<svg xmlns="http://www.w3.org/2000/svg" xmlns:xlink="http://www.w3.org/1999/xlink" width="540" height="121" viewBox="0 0 540 121">
  <defs>
    <rect id="default-a" width="540" height="121" x="0" y="0"/>
    <filter id="default-b" width="100.2%" height="100.8%" x="-.1%" y="-.4%" filterUnits="objectBoundingBox">
      <feOffset dy="-1" in="SourceAlpha" result="shadowOffsetInner1"/>
      <feComposite in="shadowOffsetInner1" in2="SourceAlpha" k2="-1" k3="1" operator="arithmetic" result="shadowInnerInner1"/>
      <feColorMatrix in="shadowInnerInner1" values="0 0 0 0 0.823529412   0 0 0 0 0.823529412   0 0 0 0 0.823529412  0 0 0 1 0"/>
    </filter>
  </defs>
  <g fill="none" fill-rule="evenodd">
    <use fill="#F0F0F0" xlink:href="#default-a"/>
    <use fill="#000" filter="url(#default-b)" xlink:href="#default-a"/>
    <path fill="#3E8635" d="M11.7499815,19.499963 C16.0301837,19.499963 19.499963,16.0301837 19.499963,11.7499815 C19.499963,7.46977933 16.0301837,4 11.7499815,4 C7.46977933,4 4,7.46977933 4,11.7499815 C4,16.0301837 7.46977933,19.499963 11.7499815,19.499963 Z M10.1464087,15.8535179 L6.89641643,12.6035256 C6.70119595,12.4082746 6.70119595,12.0916555 6.89641643,11.8964045 L7.60353755,11.1893139 C7.79878855,10.9940629 8.11540767,10.9940629 8.31065867,11.1893139 L10.4999845,13.3786703 L15.1893044,8.68935039 C15.3845859,8.49406888 15.701205,8.49406888 15.8964255,8.68935039 L16.6035466,9.39644099 C16.7987671,9.59169199 16.7987671,9.90831111 16.6035466,10.1035621 L10.8535603,15.8535484 C10.6582788,16.0487689 10.3416902,16.0487689 10.1464087,15.8535179 Z" transform="translate(16 16)"/>
    <g transform="translate(484 16)">
      <rect width="40" height="36" rx="3"/>
      <g transform="translate(8 6)">
        <path fill="#151515" d="M12.2499946,8.49998927 C13.4937356,8.49998927 14.4999893,7.49373557 14.4999893,6.24999464 C14.4999893,5.0062537 13.4937356,4 12.2499946,4 C11.0062537,4 10,5.0062537 10,6.24999464 C10,7.49373557 11.0062537,8.49998927 12.2499946,8.49998927 Z M12.2499946,13.9999762 C13.4937356,13.9999762 14.4999893,12.9937225 14.4999893,11.7499815 C14.4999893,10.5062406 13.4937356,9.49998689 12.2499946,9.49998689 C11.0062537,9.49998689 10,10.5062406 10,11.7499815 C10,12.9937225 11.0062537,13.9999762 12.2499946,13.9999762 Z M12.2499946,19.499963 C13.4937356,19.499963 14.4999893,18.4937093 14.4999893,17.2499684 C14.4999893,16.0062275 13.4937356,14.9999738 12.2499946,14.9999738 C11.0062537,14.9999738 10,16.0062275 10,17.2499684 C10,18.4937093 11.0062537,19.499963 12.2499946,19.499963 Z"/>
        <rect width="24" height="24" fill="#6A6E73"/>
      </g>
      <g fill-opacity=".9">
        <rect width="7" height="35" x=".5" y=".5" fill="#92D400" stroke="#7FB300"/>
        <rect width="7" height="35" x=".5" y=".5" fill="#92D400" stroke="#7FB300" transform="translate(32)"/>
        <rect width="23" height="5" x=".5" y=".5" fill="#F3D53C" stroke="#CBB534" transform="translate(8)"/>
        <rect width="23" height="5" x=".5" y=".5" fill="#F3D53C" stroke="#CBB534" transform="translate(8 30)"/>
      </g>
    </g>
    <text fill="#6A6E73" font-family="RedHatText-Regular, Red Hat Text" font-size="14">
      <tspan x="16" y="98">A few minutes ago</tspan>
    </text>
    <text fill="#151515" font-family="RedHatText-Regular, Red Hat Text" font-size="16">
      <tspan x="16" y="69">Content</tspan>
    </text>
    <text fill="#151515" font-family="RedHatText-Regular, Red Hat Text" font-size="16">
      <tspan x="48" y="32">Title</tspan>
    </text>
    <g fill-opacity=".9">
      <rect width="15" height="120" x=".5" y=".5" fill="#3F9C35" stroke="#418A38"/>
      <rect width="15" height="120" x=".5" y=".5" fill="#3F9C35" stroke="#418A38" transform="translate(524)"/>
      <rect width="539" height="15" x=".5" y=".5" fill="#3F9C35" stroke="#418A38"/>
      <rect width="7" height="34.327" x=".5" y=".5" fill="#92D400" stroke="#7FB300" transform="translate(40 16)"/>
      <rect width="539" height="15" x=".5" y=".5" fill="#3F9C35" stroke="#418A38" transform="translate(0 105)"/>
      <rect width="507" height="7" x=".5" y=".5" fill="#92D400" stroke="#7FB300" transform="translate(16 76)"/>
      <rect width="507" height="3" x=".5" y=".5" fill="#EC7A08" stroke="#C77000" transform="translate(16 49)"/>
    </g>
  </g>
</svg>
