<svg xmlns="http://www.w3.org/2000/svg" width="24" height="24" viewBox="0 0 24 24">
  <path fill="#151515" fill-rule="evenodd" d="M8.75621997,23.0827415 C8.75621997,22.8263406 8.74527881,21.548064 8.74270442,20.5746241 L8.74216666,20.2046509 L8.74216666,20.2046509 C8.74216666,20.2046509 5.46092448,20.9077742 4.77185447,18.8077884 C4.77185447,18.8077884 4.23750821,17.4437016 3.46874173,17.09214 C3.46874173,17.09214 2.39528848,16.3561951 3.54372324,16.3702942 C3.54372324,16.3702942 4.71092627,16.4640439 5.35312139,17.5796571 C6.37965398,19.3890095 8.09997153,18.8687166 8.77027328,18.5593148 C8.87812214,17.8093166 9.18280892,17.2890237 9.52027149,16.9796677 C9.35650407,16.9615031 9.19264491,16.9429906 9.02934521,16.9231436 L8.70368468,16.8813781 C6.37789561,16.565118 4.2562307,15.8395986 4.2562307,11.7999926 C4.2562307,10.5109331 4.61250731,9.86402306 5.36250553,9.03904333 C5.24060335,8.73435656 4.8421668,7.47811871 5.48436192,5.85622011 C6.4640654,5.55153334 8.71872921,7.12184209 8.71872921,7.12184209 C9.65622698,6.85936103 10.6640371,6.72340554 11.662463,6.72340554 C12.660889,6.72340554 13.6686991,6.85936103 14.6061969,7.12184209 C14.6061969,7.12184209 16.8609065,5.54686416 17.8405642,5.85622011 C18.4827593,7.48278789 18.0843227,8.73435656 17.9624663,9.03904333 C18.7124645,9.86873801 19.1718293,10.5156023 19.1718293,11.7999926 C19.1718293,16.3234193 16.4108801,16.6843193 13.7906013,16.9796677 C14.2218594,17.3499519 14.5874744,18.0530752 14.5874744,19.1546351 L14.5871471,19.5932964 C14.5852465,20.9284035 14.5756489,22.3961585 14.5737484,22.9310997 L14.5734211,23.0734032 L14.5734211,23.0734032 C14.5734211,23.37809 14.7890272,23.7483741 15.3843475,23.640571 C20.0718363,22.0843156 23.2499446,17.6359161 23.2499446,12.4374727 C23.2499446,5.93591658 17.9765196,1 11.4749635,1 C4.97340733,1 0,5.93591658 0,12.4374727 C0,17.6359161 3.27185804,22.0843156 7.94529356,23.6499552 C8.54528297,23.7577582 8.75621997,23.3874283 8.75621997,23.0827415 Z M5.29686237,18.1515399 C5.37184388,18.0905659 5.37184388,17.9687095 5.29686237,17.8609065 C5.23121922,17.7531034 5.10936282,17.7062285 5.03438131,17.7671567 C4.95935402,17.8140316 4.95935402,17.935888 5.03438131,18.0436911 C5.10936282,18.1515399 5.23593417,18.1984148 5.29686237,18.1515399 Z M5.93434254,18.7936893 C5.99531652,18.7327611 5.96716412,18.5921364 5.87341434,18.5031016 C5.77028043,18.3952527 5.62965577,18.3811994 5.56872757,18.4562267 C5.49374606,18.5171549 5.52185268,18.6577796 5.62965577,18.7468144 C5.73750463,18.8546632 5.87341434,18.8687166 5.93434254,18.7936893 Z M6.81091211,19.1780725 C6.8390645,19.0843227 6.74998391,18.9765196 6.60935924,18.9343139 C6.48750284,18.9015381 6.35154736,18.948413 6.31872578,19.0421628 C6.2859042,19.1359126 6.37965398,19.2437157 6.52027864,19.2718223 C6.64218082,19.3186972 6.78280548,19.2718223 6.81091211,19.1780725 Z M8.45153319,19.314028 C8.58748868,19.2812064 8.68123846,19.1921258 8.66718515,19.098376 C8.65308606,19.0093412 8.52656048,18.948413 8.390605,18.9624663 C8.25464951,18.9952879 8.16089973,19.0843227 8.17499882,19.1921258 C8.18905213,19.2858756 8.31090853,19.3468496 8.45153319,19.314028 Z M7.5328037,19.4218311 C7.66871341,19.4218311 7.77656227,19.3468496 7.77656227,19.2530998 C7.77656227,19.1452509 7.65466009,19.0702694 7.51403543,19.0843227 C7.37812572,19.0843227 7.27027686,19.15935 7.27027686,19.2530998 C7.27027686,19.3609029 7.37812572,19.4358844 7.5328037,19.4218311 Z"/>
</svg>
