<svg xmlns="http://www.w3.org/2000/svg" width="24" height="24" viewBox="0 0 24 24">
  <path fill="#151515" fill-rule="evenodd" d="M22.9999499,22.9999499 L22.9999499,2 L2,2 L2,22.9999499 L22.9999499,22.9999499 Z M18.0968549,21.3546597 C16.2640193,21.3546597 15.0780938,20.4827593 14.5015418,19.3390395 L16.1093414,18.4108801 C16.5312154,19.0999501 17.0843299,19.6109047 18.0546492,19.6109047 C18.8702906,19.6109047 19.3952527,19.203084 19.3952527,18.6359161 C19.3952527,17.9608994 18.8609065,17.7218558 17.9562303,17.3234193 L17.4640439,17.1124823 C16.039029,16.5077779 15.0968621,15.7437264 15.0968621,14.1359269 C15.0968621,12.6546529 16.2265286,11.5296556 17.9843369,11.5296556 C19.2405747,11.5296556 20.1405817,11.9655829 20.7874461,13.1093485 L19.2499589,14.0937212 C18.9124505,13.4890168 18.5468355,13.2499732 17.9796677,13.2499732 C17.40307,13.2499732 17.037455,13.6155882 17.037455,14.0937212 C17.037455,14.6843264 17.40307,14.9234158 18.2515329,15.2937 L18.7437192,15.504637 C20.4218311,16.2218594 21.363998,16.9577585 21.363998,18.6077637 C21.363998,20.3796254 19.9671355,21.3546597 18.0968549,21.3546597 Z M10.4796856,21.3546597 C8.8999927,21.3546597 7.98593238,20.5390183 7.5171835,19.5499765 L9.12498301,18.5796571 C9.43433896,19.1281025 9.71558829,19.5921364 10.3952742,19.5921364 C11.0421843,19.5921364 11.4546741,19.3390395 11.4546741,18.3499519 L11.4546741,11.6421737 L13.4280886,11.6421737 L13.4280886,18.3781043 C13.4280886,20.4218311 12.2281098,21.3546597 10.4796856,21.3546597 Z"/>
</svg>
