<svg xmlns="http://www.w3.org/2000/svg" width="24" height="24" viewBox="0 0 24 24">
  <path fill="#151515" fill-rule="evenodd" d="M2.23300171,0 C1.00340618,0.00349693198 0.00745169733,0.999337802 0.00381448866,2.22893292 L0.00381448866,7.48275524 L5.42165988,7.48275524 L5.42165988,6.62474956 C5.42160055,6.30495431 5.54859505,5.9982363 5.7747006,5.77208308 C6.00080616,5.54592986 6.3074974,5.41887072 6.62729265,5.41886264 L17.3727075,5.41886264 C17.6925026,5.41887092 17.9991936,5.54593016 18.225299,5.77208336 C18.4514044,5.99823655 18.5783988,6.30495445 18.5783395,6.62474956 L18.5783395,7.48275524 L24,7.48275524 L24,2.22893292 C23.9956347,0.996662363 22.9954618,0 21.7631835,0 L2.23300171,0 Z M0,9.0319463 L0,14.4510626 L5.41886264,14.4510626 L5.41886264,9.0319463 L0,9.0319463 Z M18.5745259,9.0319463 L18.5745259,14.4510626 L23.9933884,14.4510626 L23.9933884,9.0319463 L18.5745259,9.0319463 Z M0,16.0005078 L0,21.2528052 C0.00293815273,22.4827981 0.998941888,23.4793702 2.22893292,23.4830138 L21.7591147,23.4830138 C22.9934755,23.4852385 23.9963313,22.4871625 24,21.2528052 L24,16.0005078 L18.5745259,16.0005078 L18.5745259,16.8585142 C18.5737911,17.5240623 18.0344407,18.0634122 17.3688926,18.0641462 L6.62322386,18.0641462 C5.95767599,18.0634119 5.41832588,17.5240621 5.4175911,16.8585142 L5.4175911,16.0005078 L0,16.0005078 Z"/>
</svg>
