<svg xmlns="http://www.w3.org/2000/svg" width="24" height="24" viewBox="0 0 24 24">
  <path fill="#151515" fill-rule="evenodd" d="M6.97702298,10.8526518 L3.11688312,12.2432612 C3.16483516,12.8666379 3.26073926,13.4660385 3.42857143,14.0654391 L7.0969031,12.7227817 C6.97702298,12.1233811 6.92907093,11.4760285 6.97702298,10.8526518 M24,6.58491958 C23.7362637,6.03347103 23.4245754,5.5059985 23.0649351,5.002502 L19.2047952,6.39311139 C19.6603397,6.84865584 20.01998,7.37612837 20.3316683,7.92757692 L24,6.58491958 Z M15.5364635,5.5059985 C16.3276723,5.88961488 17.022977,6.39311139 17.6223776,6.99251199 L21.4825175,5.6019026 C20.4275724,4.11538911 18.965035,2.84465984 17.1908092,2.02947502 C11.7002997,-0.535959541 5.13086913,1.86164286 2.56543457,7.35215235 C1.72627373,9.12637812 1.41458541,11.020484 1.58241758,12.8666379 L5.44255744,11.4760285 C5.51448551,10.6368676 5.70629371,9.79770679 6.08991009,9.006498 C7.6963037,5.38611838 11.9400599,3.82767682 15.5364635,5.5059985 M3.66833167,13.993511 L0,15.3361683 C0.335664336,16.6788257 0.911088911,17.9255789 1.72627373,19.052452 L5.56243756,17.6618427 C4.6033966,16.6308736 3.93206793,15.3601444 3.66833167,13.993511 M19.6363636,12.5309735 C19.5644356,13.3701344 19.3726274,14.2092952 18.989011,15.000504 C17.3106893,18.5729316 13.042957,20.1313731 9.47052947,18.4530514 C8.67932068,18.0694351 7.96003996,17.5659386 7.38461538,16.966538 L3.54845155,18.3571474 C4.6033966,19.8436608 6.06593407,21.1143901 7.84015984,21.9295749 C13.3306693,24.4950095 19.9000999,22.0974071 22.4655345,16.6068976 C23.3046953,14.8326718 23.5924076,12.9385659 23.4485514,11.1163881 L19.6363636,12.5309735 Z M20.5714286,7.83167283 L16.9030969,9.17433017 C17.5744256,10.3971074 17.9100899,11.7877168 17.7902098,13.2023022 L21.6263736,11.8116928 C21.5544456,10.4210834 21.1708292,9.07842607 20.5714286,7.83167283"/>
</svg>
