<?xml version="1.0" encoding="UTF-8"?><svg version="1.1" width="712px" height="25px" viewBox="0 0 712.0 25.0" xmlns="http://www.w3.org/2000/svg" xmlns:xlink="http://www.w3.org/1999/xlink"><defs><clipPath id="i0"><path d="M8,0 L8,18 L0,18 L0,0 L8,0 Z"></path></clipPath><filter id="i1" x="-1.66666667%" y="-36.3636364%" filterUnits="userSpaceOnUse" width="102.222222%" height="148.484848%"><feGaussianBlur stdDeviation="2" in="SourceAlpha" result="i2"></feGaussianBlur><feOffset dx="0" dy="0" in="i2" result="i3"></feOffset><feColorMatrix values="0 0 0 0.0 0 0 0 0 0.0 0 0 0 0 0.0 0 0 0 0 0.06 0" type="matrix" in="i3"></feColorMatrix></filter><filter id="i4" x="-3.84615385%" y="-58.5365854%" filterUnits="userSpaceOnUse" width="105.494505%" height="197.560976%"><feGaussianBlur stdDeviation="4" in="SourceAlpha" result="i5"></feGaussianBlur><feOffset dx="0" dy="4" in="i5" result="i6"></feOffset><feColorMatrix values="0 0 0 0.0 0 0 0 0 0.0 0 0 0 0 0.0 0 0 0 0 0.12 0" type="matrix" in="i6"></feColorMatrix></filter><clipPath id="i7"><path d="M712,0 L712,25 L0,25 L0,0 L712,0 Z"></path></clipPath><clipPath id="i8"><path d="M5.81248614,0 C9.02240891,0 11.6249723,2.60350179 11.6249723,5.81248614 C11.6249723,9.02334732 9.02240891,11.6249723 5.81248614,11.6249723 C2.60256338,11.6249723 0,9.02334732 0,5.81248614 C0,2.60350179 2.60256338,0 5.81248614,0 Z M5.81248614,6.98435835 C5.21705147,6.98435835 4.73436371,7.4670461 4.73436371,8.06248078 C4.73436371,8.65791545 5.21705147,9.14060321 5.81248614,9.14060321 C6.40792082,9.14060321 6.89060857,8.65791545 6.89060857,8.06248078 C6.89060857,7.4670461 6.40792082,6.98435835 5.81248614,6.98435835 Z M6.55525171,2.81249329 L5.06969769,2.81249329 C4.90835927,2.81249329 4.78011708,2.94796813 4.78890612,3.10907767 L4.96276435,6.29657007 C4.97088964,6.44570912 5.09421088,6.56248435 5.24357881,6.56248435 L6.38139348,6.56248435 C6.53076141,6.56248435 6.65408265,6.44570912 6.66220793,6.29657007 L6.83606616,3.10907767 C6.8448552,2.94796813 6.71659013,2.81249329 6.55525171,2.81249329 Z"></path></clipPath></defs><g clip-path="url(#i0)"><polygon points="0,0 8,0 8,18 0,18 0,0" stroke="none" fill="rgba(146, 211, 0, 0.9)"></polygon></g><g clip-path="url(#i0)"><polygon points="0,0 8,0 8,18 0,18 0,0 0,0" stroke="#7EB200" stroke-width="2" fill="none" stroke-miterlimit="5"></polygon></g><g transform="translate(25.0 0.0)"><g clip-path="url(#i0)"><polygon points="0,0 8,0 8,18 0,18 0,0" stroke="none" fill="rgba(146, 211, 0, 0.9)"></polygon></g><g clip-path="url(#i0)"><polygon points="0,0 8,0 8,18 0,18 0,0 0,0" stroke="#7EB200" stroke-width="2" fill="none" stroke-miterlimit="5"></polygon></g></g><polygon points="0,0 712,0 712,25 0,25 0,0 0,0" stroke="none" fill="#000000" filter="url(#i1)"></polygon><polygon points="0,0 712,0 712,25 0,25 0,0 0,0" stroke="none" fill="#000000" filter="url(#i4)"></polygon><g clip-path="url(#i7)"><polygon points="0,0 712,0 712,25 0,25 0,0" stroke="none" fill="#FFFFFF"></polygon></g><g clip-path="url(#i7)"><polygon points="0,0 712,0 712,25 0,25 0,0" stroke="none" fill="#C9190A"></polygon></g><g transform="translate(617.0 4.0)"><text transform="translate(0.09199999999998454 12.0)" font-family="RedHatText-Regular, Red Hat Text" font-size="12.0" font-weight="normal" fill="#FFFFFF" text-anchor="right" line-spacing="18.0">Optional text</text></g><g transform="translate(332.0 1.0)"><g transform="translate(24.0 3.0)"><text transform="translate(0.26599999999999824 12.0)" font-family="RedHatText-Regular, Red Hat Text" font-size="12.0" font-weight="normal" fill="#FFFFFF" text-anchor="center" line-spacing="18.0">Text</text></g><g transform="translate(6.0 6.0)"><g clip-path="url(#i8)"><polygon points="0,0 11.6249723,0 11.6249723,11.6249723 0,11.6249723 0,0" stroke="none" fill="#FFFFFF"></polygon></g></g></g><g transform="translate(24.0 4.0)"><text transform="translate(0.0 12.0)" font-family="RedHatText-Regular, Red Hat Text" font-size="12.0" font-weight="normal" fill="#FFFFFF" text-anchor="left" line-spacing="18.0">Optional text</text></g></svg>