<?xml version="1.0" encoding="UTF-8"?>
<svg width="712px" height="25px" viewBox="0 0 712 25" version="1.1" xmlns="http://www.w3.org/2000/svg" xmlns:xlink="http://www.w3.org/1999/xlink">
    <title></title>
    <defs>
        <rect id="path-1" x="0" y="0" width="712" height="25"></rect>
        <filter x="-2.0%" y="-40.0%" width="103.9%" height="212.0%" filterUnits="objectBoundingBox" id="filter-2">
            <feOffset dx="0" dy="0" in="SourceAlpha" result="shadowOffsetOuter1"></feOffset>
            <feGaussianBlur stdDeviation="2" in="shadowOffsetOuter1" result="shadowBlurOuter1"></feGaussianBlur>
            <feColorMatrix values="0 0 0 0 0   0 0 0 0 0   0 0 0 0 0  0 0 0 0.06 0" type="matrix" in="shadowBlurOuter1" result="shadowMatrixOuter1"></feColorMatrix>
            <feOffset dx="0" dy="4" in="SourceAlpha" result="shadowOffsetOuter2"></feOffset>
            <feGaussianBlur stdDeviation="4" in="shadowOffsetOuter2" result="shadowBlurOuter2"></feGaussianBlur>
            <feColorMatrix values="0 0 0 0 0   0 0 0 0 0   0 0 0 0 0  0 0 0 0.12 0" type="matrix" in="shadowBlurOuter2" result="shadowMatrixOuter2"></feColorMatrix>
            <feMerge>
                <feMergeNode in="shadowMatrixOuter1"></feMergeNode>
                <feMergeNode in="shadowMatrixOuter2"></feMergeNode>
            </feMerge>
        </filter>
    </defs>
    <g id="Banner" stroke="none" stroke-width="1" fill="none" fill-rule="evenodd">
        <g id="Banner-/-5.-Danger-/-2.-With-icon">
            <g id="ðŸ“-Padding" fill="#92D400" fill-opacity="0.9" stroke="#7FB300">
                <g id="Spacer-/-Horizontal-/-2.-pf-global--spacer--sm-(8px)">
                    <rect id="Rectangle-Copy" x="0.5" y="0.5" width="7" height="17"></rect>
                </g>
                <g id="Spacer-/-Horizontal-/-2.-pf-global--spacer--sm-(8px)" transform="translate(25.000000, 0.000000)">
                    <rect id="Rectangle-Copy" x="0.5" y="0.5" width="7" height="17"></rect>
                </g>
            </g>
            <g id="Shadow">
                <use fill="black" fill-opacity="1" filter="url(#filter-2)" xlink:href="#path-1"></use>
                <use fill="#FFFFFF" fill-rule="evenodd" xlink:href="#path-1"></use>
            </g>
            <rect id="Background" fill="#C9190B" x="0" y="0" width="712" height="25"></rect>
            <text id="Optional-text-right" font-family="RedHatText-Regular, Red Hat Text" font-size="12" font-weight="normal" line-spacing="18" fill="#FFFFFF">
                <tspan x="617.092" y="16">Optional text</tspan>
            </text>
            <g id="Group" transform="translate(332.000000, 1.000000)" fill="#FFFFFF">
                <text id="Text" font-family="RedHatText-Regular, Red Hat Text" font-size="12" font-weight="normal" line-spacing="18">
                    <tspan x="24.266" y="15">Text</tspan>
                </text>
                <g id="Icons/2.-Size-sm/Status/exclamation-circle" transform="translate(6.000000, 6.000000)">
                    <path d="M5.81248614,11.6249723 C9.02240891,11.6249723 11.6249723,9.02334732 11.6249723,5.81248614 C11.6249723,2.60350179 9.02240891,0 5.81248614,0 C2.60256338,0 0,2.60350179 0,5.81248614 C0,9.02334732 2.60256338,11.6249723 5.81248614,11.6249723 Z M6.38139348,6.56248435 L5.24357881,6.56248435 C5.09421088,6.56248435 4.97088964,6.44570912 4.96276435,6.29657007 L4.78890612,3.10907767 C4.78011708,2.94796813 4.90835927,2.81249329 5.06969769,2.81249329 L6.55525171,2.81249329 C6.71659013,2.81249329 6.8448552,2.94796813 6.83606616,3.10907767 L6.66220793,6.29657007 C6.65408265,6.44570912 6.53076141,6.56248435 6.38139348,6.56248435 Z M5.81248614,9.14060321 C5.21705147,9.14060321 4.73436371,8.65791545 4.73436371,8.06248078 C4.73436371,7.4670461 5.21705147,6.98435835 5.81248614,6.98435835 C6.40792082,6.98435835 6.89060857,7.4670461 6.89060857,8.06248078 C6.89060857,8.65791545 6.40792082,9.14060321 5.81248614,9.14060321 Z" id="exclamation-circle"></path>
                </g>
            </g>
            <text id="Optional-text-left" font-family="RedHatText-Regular, Red Hat Text" font-size="12" font-weight="normal" line-spacing="18" fill="#FFFFFF">
                <tspan x="24" y="16">Optional text</tspan>
            </text>
        </g>
    </g>
</svg>