<?xml version="1.0" encoding="UTF-8"?><svg version="1.1" width="150px" height="150px" viewBox="0 0 150.0 150.0" xmlns="http://www.w3.org/2000/svg" xmlns:xlink="http://www.w3.org/1999/xlink"><defs><clipPath id="i0"><path d="M3,0 L3,8 L0,8 L0,0 L3,0 Z"></path></clipPath><clipPath id="i1"><path d="M8,0 L8,3 L0,3 L0,0 L8,0 Z"></path></clipPath></defs><g transform="translate(5.0 5.0)"><path d="M70,140 C108.659932,140 140,108.659932 140,70 C140,31.3400675 108.659932,0 70,0 C31.3400675,0 0,31.3400675 0,70 C0,108.659932 31.3400675,140 70,140 Z" stroke="#EDEDED" stroke-width="8" fill="none" stroke-miterlimit="10"></path></g><g transform="translate(75.0 5.0)"><path d="M70,70 C70,31.3400675 38.6599325,0 0,0" stroke="#0066CC" stroke-width="8" fill="none" stroke-miterlimit="10"></path></g><g transform="translate(72.0 1.0)"><g clip-path="url(#i0)"><polygon points="0,0 3,0 3,8 0,8 0,0" stroke="none" fill="#FFFFFF"></polygon></g></g><g transform="translate(141.0 74.0)"><g clip-path="url(#i1)"><polygon points="0,0 8,0 8,3 0,3 0,0" stroke="none" fill="#FFFFFF"></polygon></g></g><g transform="translate(53.0 51.8)"><text transform="translate(0.04800000000000182 24.0)" font-family="RedHatDisplay-Medium, Red Hat Display" font-size="24.0" font-weight="500" fill="#151515" text-anchor="center" line-spacing="31.2">22%</text></g><g transform="translate(42.0 84.0)"><text transform="translate(0.21799999999999642 12.0)" font-family="RedHatText-Regular, Red Hat Text" font-size="12.0" font-weight="normal" fill="#696E73" text-anchor="center" line-spacing="18.0">of 100 GBps</text></g></svg>