<?xml version="1.0" encoding="UTF-8"?>
<svg width="24px" height="24px" viewBox="0 0 24 24" version="1.1" xmlns="http://www.w3.org/2000/svg" xmlns:xlink="http://www.w3.org/1999/xlink">
    <title></title>
    <g id="Icons" stroke="none" stroke-width="1" fill="none" fill-rule="evenodd">
        <g id="Icons-/-2.-Size-sm-/-Framework-/-angle-double-right" fill="#151515">
            <path d="M8.48943927,15.3370987 L11.6769317,12.1496063 C11.8972528,11.9292852 11.8972528,11.5730544 11.6745971,11.3527332 L8.48710469,8.16524085 C8.26914103,7.94491972 7.9128873,7.94491972 7.69256617,8.16524085 L7.16522368,8.69961 C6.94492544,8.91757365 6.94492544,9.27382738 7.16522368,9.49414851 L9.42460245,11.7535044 L7.16522368,14.0128832 C6.94492544,14.2308468 6.94492544,14.5871005 7.16522368,14.8074217 L7.69492365,15.3370987 C7.9128873,15.5574199 8.26914103,15.5574199 8.48943927,15.3370987 Z M12.9894285,15.3324067 L16.1769209,12.1449143 C16.3972421,11.9292852 16.3972421,11.5730544 16.1769209,11.3527332 L12.9894285,8.16524085 C12.7691303,7.94491972 12.4128766,7.94491972 12.1949129,8.16524085 L11.665213,8.69491793 C11.4449147,8.91523906 11.4449147,9.27149279 11.665213,9.48945644 L13.9245917,11.7488352 L11.665213,14.0081911 C11.4449147,14.2285122 11.4449147,14.5847659 11.665213,14.8027296 L12.1949129,15.3324067 C12.4152112,15.5527278 12.7714649,15.5527278 12.9894285,15.3324067 Z" id="angle-double-right"></path>
        </g>
    </g>
</svg>