<?xml version="1.0" encoding="UTF-8"?>
<svg width="24px" height="24px" viewBox="0 0 24 24" version="1.1" xmlns="http://www.w3.org/2000/svg" xmlns:xlink="http://www.w3.org/1999/xlink">
    <title></title>
    <g id="Icons" stroke="none" stroke-width="1" fill="none" fill-rule="evenodd">
        <g id="Icons-/-2.-Size-sm-/-Framework-/-calendar" fill="#151515">
            <path d="M16.3749776,17.9999714 C16.9960699,17.9999714 17.499975,17.4960663 17.499975,16.8749741 L17.499975,8.62499374 C17.499975,8.00390147 16.9960699,7.5 16.3749776,7.5 L15.2499803,7.5 L15.2499803,6.28124933 C15.2499803,6.12657135 15.123409,6 14.968731,6 L14.0312332,6 C13.8765553,6 13.7499839,6.12657135 13.7499839,6.28124933 L13.7499839,7.5 L10.7499911,7.5 L10.7499911,6.28124933 C10.7499911,6.12657135 10.6234197,6 10.4687417,6 L9.53124397,6 C9.37656599,6 9.24999464,6.12657135 9.24999464,6.28124933 L9.24999464,7.5 L8.12499732,7.5 C7.50390505,7.5 7,8.00390147 7,8.62499374 L7,16.8749741 C7,17.4960663 7.50390505,17.9999714 8.12499732,17.9999714 L16.3749776,17.9999714 Z M16.234353,16.8749741 L8.26562198,16.8749741 C8.18828299,16.8749741 8.12499732,16.8116884 8.12499732,16.7343494 L8.12499732,9.74999106 L16.3749776,9.74999106 L16.3749776,16.7343494 C16.3749776,16.8116884 16.311692,16.8749741 16.234353,16.8749741 Z M10.4687417,12.7499875 C10.6234197,12.7499875 10.7499946,12.6234126 10.7499946,12.4687346 L10.7499946,11.5312368 C10.7499946,11.3765588 10.6234197,11.2499875 10.4687417,11.2499875 L9.53124397,11.2499875 C9.37656599,11.2499875 9.24999464,11.3765588 9.24999464,11.5312368 L9.24999464,12.4687346 C9.24999464,12.6234126 9.37656599,12.7499875 9.53124397,12.7499875 L10.4687417,12.7499875 Z M12.7187364,12.7499875 C12.8734143,12.7499875 12.9999893,12.6234126 12.9999893,12.4687346 L12.9999893,11.5312368 C12.9999893,11.3765588 12.8734143,11.2499875 12.7187364,11.2499875 L11.7812386,11.2499875 C11.6265606,11.2499875 11.4999893,11.3765588 11.4999893,11.5312368 L11.4999893,12.4687346 C11.4999893,12.6234126 11.6265606,12.7499875 11.7812386,12.7499875 L12.7187364,12.7499875 Z M14.968731,12.7499875 C15.123409,12.7499875 15.2499839,12.6234126 15.2499839,12.4687346 L15.2499839,11.5312368 C15.2499839,11.3765588 15.123409,11.2499875 14.968731,11.2499875 L14.0312332,11.2499875 C13.8765553,11.2499875 13.7499839,11.3765588 13.7499839,11.5312368 L13.7499839,12.4687346 C13.7499839,12.6234126 13.8765553,12.7499875 14.0312332,12.7499875 L14.968731,12.7499875 Z M12.7187364,14.9999821 C12.8734143,14.9999821 12.9999893,14.8734072 12.9999893,14.7187292 L12.9999893,13.7812314 C12.9999893,13.6265535 12.8734143,13.4999821 12.7187364,13.4999821 L11.7812386,13.4999821 C11.6265606,13.4999821 11.4999893,13.6265535 11.4999893,13.7812314 L11.4999893,14.7187292 C11.4999893,14.8734072 11.6265606,14.9999821 11.7812386,14.9999821 L12.7187364,14.9999821 Z M10.4687417,14.9999821 C10.6234197,14.9999821 10.7499946,14.8734072 10.7499946,14.7187292 L10.7499946,13.7812314 C10.7499946,13.6265535 10.6234197,13.4999821 10.4687417,13.4999821 L9.53124397,13.4999821 C9.37656599,13.4999821 9.24999464,13.6265535 9.24999464,13.7812314 L9.24999464,14.7187292 C9.24999464,14.8734072 9.37656599,14.9999821 9.53124397,14.9999821 L10.4687417,14.9999821 Z M14.968731,14.9999821 C15.123409,14.9999821 15.2499839,14.8734072 15.2499839,14.7187292 L15.2499839,13.7812314 C15.2499839,13.6265535 15.123409,13.4999821 14.968731,13.4999821 L14.0312332,13.4999821 C13.8765553,13.4999821 13.7499839,13.6265535 13.7499839,13.7812314 L13.7499839,14.7187292 C13.7499839,14.8734072 13.8765553,14.9999821 14.0312332,14.9999821 L14.968731,14.9999821 Z" id="calendar-alt"></path>
        </g>
    </g>
</svg>