<?xml version="1.0" encoding="UTF-8"?>
<svg width="24px" height="24px" viewBox="0 0 24 24" version="1.1" xmlns="http://www.w3.org/2000/svg" xmlns:xlink="http://www.w3.org/1999/xlink">
    <title></title>
    <g id="Icons" stroke="none" stroke-width="1" fill="none" fill-rule="evenodd">
        <g id="Icons-/-2.-Size-sm-/-Framework-/-ellipsis-v" fill="#151515">
            <path d="M11.687496,9.37499195 C12.6203017,9.37499195 13.374992,8.62030168 13.374992,7.68749598 C13.374992,6.75469028 12.6203017,6 11.687496,6 C10.7546903,6 10,6.75469028 10,7.68749598 C10,8.62030168 10.7546903,9.37499195 11.687496,9.37499195 Z M11.687496,13.4999821 C12.6203017,13.4999821 13.374992,12.7452918 13.374992,11.8124861 C13.374992,10.8796804 12.6203017,10.1249902 11.687496,10.1249902 C10.7546903,10.1249902 10,10.8796804 10,11.8124861 C10,12.7452918 10.7546903,13.4999821 11.687496,13.4999821 Z M11.687496,17.6249723 C12.6203017,17.6249723 13.374992,16.870282 13.374992,15.9374763 C13.374992,15.0046706 12.6203017,14.2499803 11.687496,14.2499803 C10.7546903,14.2499803 10,15.0046706 10,15.9374763 C10,16.870282 10.7546903,17.6249723 11.687496,17.6249723 Z" id="ellipsis-v"></path>
        </g>
    </g>
</svg>