<?xml version="1.0" encoding="UTF-8"?>
<svg width="24px" height="24px" viewBox="0 0 24 24" version="1.1" xmlns="http://www.w3.org/2000/svg" xmlns:xlink="http://www.w3.org/1999/xlink">
    <title></title>
    <g id="Icons" stroke="none" stroke-width="1" fill="none" fill-rule="evenodd">
        <g id="Icons-/-2.-Size-sm-/-Framework-/-eye" fill="#030303" fill-rule="nonzero">
            <path d="M12,15.5555556 C13.236111,15.5555556 14.375,15.2544282 15.4166667,14.6521739 C16.4444443,14.063607 17.2569443,13.2697264 17.8541667,12.2705314 C17.951389,12.1199679 18,11.9557167 18,11.7777778 C18,11.5998389 17.951389,11.4355877 17.8541667,11.2850242 C17.2569443,10.2858292 16.4444443,9.49194857 15.4166667,8.90338164 C14.375,8.30112732 13.236111,8 12,8 C10.763889,8 9.625,8.30112732 8.58333333,8.90338164 C7.55555566,9.49194857 6.74305566,10.2858292 6.14583333,11.2850242 C6.04861101,11.4355877 6,11.5998389 6,11.7777778 C6,11.9557167 6.04861101,12.1199679 6.14583333,12.2705314 C6.74305566,13.2697264 7.55555566,14.063607 8.58333333,14.6521739 C9.625,15.2544282 10.763889,15.5555556 12,15.5555556 Z M12,14.6666667 C11.4760348,14.6666667 10.9945535,14.5356753 10.5555556,14.2736928 C10.1165576,14.0117103 9.76606743,13.6612202 9.50408497,13.2222222 C9.2421025,12.7832243 9.11111111,12.301743 9.11111111,11.7777778 C9.11111111,11.2538125 9.2421025,10.7723313 9.50408497,10.3333333 C9.76606743,9.8943354 10.1165576,9.54384521 10.5555556,9.28186275 C10.9945535,9.01988028 11.4760348,8.88888889 12,8.88888889 C12.5239652,8.88888889 13.0054465,9.01988028 13.4444444,9.28186275 C13.8834424,9.54384521 14.2339326,9.8943354 14.495915,10.3333333 C14.7578975,10.7723313 14.8888889,11.2538125 14.8888889,11.7777778 C14.8888889,12.301743 14.7578975,12.7832243 14.495915,13.2222222 C14.2339326,13.6612202 13.8834424,14.0117103 13.4444444,14.2736928 C13.0054465,14.5356753 12.5239652,14.6666667 12,14.6666667 Z M12,14 C12.6125357,14 13.13604,13.7827634 13.5705128,13.3482906 C14.0049856,12.9138178 14.2222222,12.3903135 14.2222222,11.7777778 C14.2222222,11.1652421 14.0049856,10.6417378 13.5705128,10.207265 C13.13604,9.77279213 12.6125357,9.55555556 12,9.55555556 C11.6296297,9.55555556 11.2806267,9.64102564 10.9529915,9.81196581 C11.2094017,9.81196581 11.4266383,9.90099726 11.6047009,10.0790598 C11.7827634,10.2571224 11.8717949,10.474359 11.8717949,10.7307692 C11.8717949,10.9871795 11.7827634,11.2044161 11.6047009,11.3824786 C11.4266383,11.5605412 11.2094017,11.6495726 10.9529915,11.6495726 C10.6965812,11.6495726 10.4793446,11.5605412 10.3012821,11.3824786 C10.1232195,11.2044161 10.034188,10.9871795 10.034188,10.7307692 C9.86324786,11.0584044 9.77777778,11.4074075 9.77777778,11.7777778 C9.77777778,12.3903135 9.99501435,12.9138178 10.4294872,13.3482906 C10.86396,13.7827634 11.3874643,14 12,14 Z" id="eye"></path>
        </g>
    </g>
</svg>