<?xml version="1.0" encoding="UTF-8"?>
<svg width="24px" height="24px" viewBox="0 0 24 24" version="1.1" xmlns="http://www.w3.org/2000/svg" xmlns:xlink="http://www.w3.org/1999/xlink">
    <title></title>
    <g id="Icons" stroke="none" stroke-width="1" fill="none" fill-rule="evenodd">
        <g id="Icons-/-2.-Size-sm-/-Framework-/-file" fill="#151515" fill-rule="nonzero">
            <g id="file-solid" transform="translate(6.000000, 4.000000)">
                <path d="M6.9754386,4.25 L6.9754386,0 L0.747368421,0 C0.333201754,0 0,0.334375 0,0.75 L0,15.25 C0,15.665625 0.333201754,16 0.747368421,16 L11.2105263,16 C11.624693,16 11.9578947,15.665625 11.9578947,15.25 L11.9578947,5 L7.72280702,5 C7.31175439,5 6.9754386,4.6625 6.9754386,4.25 Z M11.9578947,3.809375 L11.9578947,4 L7.97192982,4 L7.97192982,0 L8.16188596,0 C8.36118421,0 8.55114035,0.078125 8.69127193,0.21875 L11.7399123,3.28125 C11.8800439,3.421875 11.9578947,3.6125 11.9578947,3.809375 Z" id="Shape"></path>
            </g>
        </g>
    </g>
</svg>