<?xml version="1.0" encoding="UTF-8"?>
<svg width="24px" height="24px" viewBox="0 0 24 24" version="1.1" xmlns="http://www.w3.org/2000/svg" xmlns:xlink="http://www.w3.org/1999/xlink">
    <title></title>
    <g id="Icons" stroke="none" stroke-width="1" fill="none" fill-rule="evenodd">
        <g id="Icons-/-2.-Size-sm-/-Framework-/-folder-open" fill="#151515">
            <path d="M5,15.6416825 L6.61899181,12.866268 C7.02063269,12.1777244 7.76536664,11.7499911 8.56249151,11.7499911 L16.2499732,11.7499911 L16.2499732,10.6249937 C16.2499732,10.0036726 15.746297,9.5 15.1249759,9.5 L11.3749848,9.5 L9.87498838,8 L6.12499732,8 C5.50367617,8 5,8.50367617 5,9.12499732 L5,15.6416825 Z M15.4294338,16.9999785 C15.9050033,16.9999785 16.4854234,16.6665901 16.7250392,16.2557939 L18.4224915,13.3459116 C18.6412562,12.9709125 18.3707643,12.4999893 17.9366223,12.4999893 L8.56249151,12.4999893 C8.08689907,12.4999893 7.50645612,12.8333778 7.26681741,13.2441739 L5.56938799,16.1540562 C5.35064614,16.5290553 5.62113805,16.9999785 6.05528008,16.9999785 L15.4294338,16.9999785 Z" id="folder-open"></path>
        </g>
    </g>
</svg>