<?xml version="1.0" encoding="UTF-8"?>
<svg width="24px" height="24px" viewBox="0 0 24 24" version="1.1" xmlns="http://www.w3.org/2000/svg" xmlns:xlink="http://www.w3.org/1999/xlink">
    <title></title>
    <g id="Icons" stroke="none" stroke-width="1" fill="none" fill-rule="evenodd">
        <g id="Icons-/-2.-Size-sm-/-Framework-/-task" fill="#020303" fill-rule="nonzero">
            <path d="M16,11.0022144 C16,11.1843298 15.8875033,11.3333333 15.7500073,11.3333333 L8.24999268,11.3244759 C8.1124967,11.3244759 8,11.1754931 8,10.9933569 L8,10.331119 C8,10.1490035 8.1124967,10 8.24999268,10 L15.7500073,10.0088574 C15.8875033,10.0088574 16,10.157861 16,10.3399764 L16,11.0022144 Z M15.3333333,13.666651 C15.3333333,13.8500023 15.220491,13.9999792 15.0825726,13.9999792 L9.5840941,14 C9.44617568,14 9.33333333,13.8500023 9.33333333,13.6666667 L9.33333333,13.0000156 C9.33333333,12.8166852 9.44617568,12.6666875 9.5840941,12.6666875 L15.0825726,12.6666667 C15.220491,12.6666667 15.3333333,12.8166643 15.3333333,12.9999948 L15.3333333,13.666651 Z M14,16.3333177 C14,16.516669 13.8871093,16.6666458 13.7491318,16.6666458 L10.2508682,16.6666667 C10.1128907,16.6666667 10,16.516669 10,16.3333333 L10,15.6666823 C10,15.4833518 10.1128907,15.3333542 10.2508682,15.3333542 L13.7491318,15.3333333 C13.8871093,15.3333333 14,15.483331 14,15.6666615 L14,16.3333177 Z M12,5.33333333 C12.3694444,5.33333333 12.6666667,5.63055556 12.6666667,6 C12.6666667,6.36944444 12.3694444,6.66666667 12,6.66666667 C11.6305556,6.66666667 11.3333333,6.36944444 11.3333333,6 C11.3333333,5.63055556 11.6305556,5.33333333 12,5.33333333 L12,5.33333333 Z M16.5,6 L14,6 C14,4.896875 13.103125,4 12,4 C10.896875,4 10,4.896875 10,6 L7.5,6 C6.671875,6 6,6.671875 6,7.5 L6,18.5 C6,19.328125 6.671875,20 7.5,20 L16.5,20 C17.328125,20 18,19.328125 18,18.5 L18,7.5 C18,6.671875 17.328125,6 16.5,6 L16.5,6 Z" id="task"></path>
        </g>
    </g>
</svg>