<svg xmlns="http://www.w3.org/2000/svg" width="179" height="40" viewBox="0 0 179 40" style="background:#fff">
  <g fill="none" fill-rule="evenodd">
    <rect width="179" height="40" fill="#FFF"/>
    <rect width="179" height="40" fill="#F0F0F0"/>
    <text fill="#151515" font-family="RedHatText-Regular, Red Hat Text" font-size="16">
      <tspan x="48" y="24">Option</tspan>
    </text>
    <path fill="#F0AB00" d="M5.11640325,17.9135414 L8.17968177,16.3033844 L11.2429603,17.9135414 C11.7867136,18.1994828 12.4359125,17.740118 12.330444,17.1236949 L11.7445079,13.7135468 L14.2218503,11.2994901 C14.6671617,10.8658974 14.4210686,10.1088725 13.8070029,10.0198148 L10.3828015,9.5206018 L8.852341,6.41747505 C8.57811832,5.86436052 7.78357981,5.85733387 7.50702255,6.41747505 L5.97656202,9.5206018 L2.55236059,10.0198148 C1.93829498,10.1088725 1.69220182,10.8658974 2.13751325,11.2994901 L4.61485568,13.7135468 L4.02891957,17.1236949 C3.92345107,17.740118 4.57264997,18.2018174 5.11640325,17.9135414 Z" transform="translate(147 8)"/>
    <path fill="#6A6E73" d="M6.0938213,15.0013518 C6.22275013,15.0013518 6.40125465,14.9272401 6.49225785,14.8359164 L12.2018619,9.12468737 L13.0390409,9.96092806 C13.3906026,10.3124897 13.9999762,10.0663966 13.9999762,9.56249151 L13.9999762,6.56249866 C13.9999762,6.2519983 13.7479779,6 13.4374775,6 L10.4374847,6 C9.93662372,6 9.68631915,6.60726784 10.0390481,6.96093521 L10.876479,7.79836607 L5.16405972,13.5086567 C5.07273609,13.5996599 4.99862433,13.7781644 4.99862433,13.9070933 C4.99862433,14.0360221 5.07273609,14.2145266 5.16405972,14.3055298 L5.69538475,14.8359164 C5.78638795,14.9272401 5.96489247,15.0013518 6.0938213,15.0013518 Z M11.3749824,17.9999714 C11.9959831,17.9999714 12.4999797,17.4959748 12.4999797,16.8749741 L12.4999797,13.8749812 C12.4999797,13.667981 12.3319809,13.4999821 12.1249806,13.4999821 L11.3749824,13.4999821 C11.1679822,13.4999821 10.9999833,13.667981 10.9999833,13.8749812 L10.9999833,16.499975 L3.50000477,16.499975 L3.50000477,8.99999642 L6.87499315,8.99999642 C7.08199338,8.99999642 7.24999225,8.83199398 7.24999225,8.62499374 L7.24999225,7.87499553 C7.24999225,7.66799529 7.08199338,7.49999642 6.87499315,7.49999642 L3.12500209,7.49999642 C2.50400137,7.49999642 2.00000477,8.00399302 2.00000477,8.62499374 L2.00000477,16.8749741 C2.00000477,17.4959748 2.50400137,17.9999714 3.12500209,17.9999714 L11.3749824,17.9999714 Z" transform="translate(115 8)"/>
    <g fill-opacity=".9">
      <rect width="146" height="7" x=".5" y=".5" fill="#92D400" stroke="#7FB300" transform="translate(16)"/>
      <rect width="146" height="7" x=".5" y=".5" fill="#92D400" stroke="#7FB300" transform="translate(16 32)"/>
      <rect width="15" height="39" x=".5" y=".5" fill="#3F9C35" stroke="#418A38"/>
      <rect width="15" height="23" x=".5" y=".5" fill="#3F9C35" stroke="#418A38" transform="translate(99 8)"/>
      <rect width="15" height="23" x=".5" y=".5" fill="#3F9C35" stroke="#418A38" transform="translate(131 8)"/>
      <rect width="15" height="39" x=".5" y=".5" fill="#3F9C35" stroke="#418A38" transform="translate(163)"/>
      <rect width="7" height="23" x=".5" y=".5" fill="#92D400" stroke="#7FB300" transform="translate(40 8)"/>
    </g>
    <path fill="#151515" d="M9.0544942,10.6710833 L12.0013561,19.8585614 L14.9482179,10.6710833 L19.0700953,10.6710833 L17.3044745,5.20860241 C17.2075815,4.93046586 16.8138446,4.93046586 16.7138387,5.20860241 L14.9451052,10.6710833 L9.05760698,10.6710833 C9.05609776,10.6710833 8.64026158,9.38697391 8.21222482,8.06395214 L8.05192454,7.56842698 C7.65367109,6.33721416 7.28887341,5.20860241 7.28887341,5.20860241 C7.19198033,4.93046586 6.79824347,4.93046586 6.69823761,5.20860241 L4.93261682,10.6710833 L9.0544942,10.6710833 Z M11.9982433,19.8585614 L4.92950403,10.6710833 L4.02951228,13.4210767 C3.94824417,13.6710833 4.03888116,13.9491822 4.25137455,14.1085751 L11.9982433,19.8585614 Z M12.0013561,19.8585614 L19.7482248,14.1085751 C19.963831,13.9491822 20.0513247,13.6710833 19.9731999,13.4210767 L19.0732081,10.6710833 L12.0013561,19.8585614 Z" transform="translate(16 8)"/>
  </g>
</svg>
