<?xml version="1.0" encoding="UTF-8"?>
<svg width="268px" height="40px" viewBox="0 0 268 40" version="1.1" xmlns="http://www.w3.org/2000/svg" xmlns:xlink="http://www.w3.org/1999/xlink">
    <title></title>
    <g id="Tree-view" stroke="none" stroke-width="1" fill="none" fill-rule="evenodd">
        <g id="Tree-view-/-3.-With-icon-/-Item-/-1.-First-level-/-Default">
            <g id="Dropdowns-/-3.-Menu-Item-/-Default">
                <text id="âœï¸-Label" font-family="RedHatText-Regular, Red Hat Text" font-size="16" font-weight="normal" line-spacing="24" fill="#151515">
                    <tspan x="56" y="24">First level</tspan>
                </text>
                <g id="ðŸ“-Padding" fill-opacity="0.9">
                    <g id="Spacer-/-Vertical-/-2.-pf-global--spacer--sm-(8px)" transform="translate(8.000000, 0.000000)" fill="#92D400" stroke="#7FB300">
                        <rect id="Rectangle-Copy" x="0.5" y="0.5" width="251" height="7"></rect>
                    </g>
                    <g id="Spacer-/-Vertical-/-2.-pf-global--spacer--sm-(8px)" transform="translate(8.000000, 32.000000)" fill="#92D400" stroke="#7FB300">
                        <rect id="Rectangle-Copy" x="0.5" y="0.5" width="251" height="7"></rect>
                    </g>
                    <g id="Spacer-/-Horizontal-/-2.-pf-global--spacer--sm-(8px)" transform="translate(260.000000, 0.000000)" fill="#92D400" stroke="#7FB300">
                        <rect id="Rectangle-Copy" x="0.5" y="0.5" width="7" height="39"></rect>
                    </g>
                    <g id="Spacer-/-Horizontal-/-3.-pf-global--spacer--md-(16px)" transform="translate(48.000000, 0.000000)" fill="#92D400" stroke="#7FB300">
                        <rect id="Rectangle-Copy" x="0.5" y="0.5" width="7" height="39"></rect>
                    </g>
                    <g id="Spacer-/-Horizontal-/-5.-pf-global--spacer--xl-(32px)" fill="#0088CE" stroke="#0479B0">
                        <rect id="Rectangle-Copy-4" x="0.5" y="0.5" width="31" height="39"></rect>
                    </g>
                </g>
            </g>
            <g id="Icons/1.-Size-md-(16px)/Framework/folder" transform="translate(30.970982, 14.000000)" fill="#6A6E73">
                <path d="M0,10.18891 L2.15865574,6.48835733 C2.69417693,5.57029922 3.68715552,4.99998808 4.74998868,4.99998808 L14.9999642,4.99998808 L14.9999642,3.5 C14.9999642,2.67156345 14.328396,2 13.4999678,2 L8.49997973,2 L6.4999845,0 L1.5,0 C0.671568223,0 0,0.671568223 0,1.5 L0,10.18891 Z M13.9059117,11.9999714 C14.5400044,11.9999714 15.3138978,11.5554534 15.6333856,11.0077252 L17.8966553,7.12788218 C18.1883416,6.62788337 17.8276858,5.99998569 17.2488297,5.99998569 L4.74998868,5.99998569 C4.11586543,5.99998569 3.3419415,6.44450368 3.02242321,6.99223186 L0.759183981,10.8720749 C0.467528182,11.3720737 0.828184061,11.9999714 1.4070401,11.9999714 L13.9059117,11.9999714 Z" id="folder-open"></path>
            </g>
        </g>
    </g>
</svg>