<svg xmlns="http://www.w3.org/2000/svg" xmlns:xlink="http://www.w3.org/1999/xlink" width="150" height="36" viewBox="0 0 150 36">
  <defs>
    <rect id="hover-a" width="150" height="36" x="0" y="0"/>
    <filter id="hover-b" width="100.7%" height="102.8%" x="-.3%" y="-1.4%" filterUnits="objectBoundingBox">
      <feOffset dy="-1" in="SourceAlpha" result="shadowOffsetInner1"/>
      <feComposite in="shadowOffsetInner1" in2="SourceAlpha" k2="-1" k3="1" operator="arithmetic" result="shadowInnerInner1"/>
      <feColorMatrix in="shadowInnerInner1" values="0 0 0 0 0.168627451   0 0 0 0 0.603921569   0 0 0 0 0.952941176  0 0 0 1 0"/>
    </filter>
  </defs>
  <g fill="none" fill-rule="evenodd">
    <use fill="#393F44" xlink:href="#hover-a"/>
    <use fill="#000" filter="url(#hover-b)" xlink:href="#hover-a"/>
    <path fill="#FFF" d="M12.0876296,14.0874818 L16.1063883,10.0656103 C16.5001252,9.6718734 16.2220191,9 15.6657461,9 L7.62514633,9 C7.06890376,9 6.79076721,9.6718734 7.18453458,10.0656103 L11.2032628,14.0874818 C11.4470061,14.3312251 11.8438863,14.3312251 12.0876296,14.0874818 Z" transform="translate(118 6)"/>
    <text fill="#FFF" font-family="RedHatText-Regular, Red Hat Text" font-size="16">
      <tspan x="8" y="22">Dark dropdown</tspan>
    </text>
    <g fill-opacity=".9">
      <rect width="7" height="35" x=".5" y=".5" fill="#92D400" stroke="#7FB300"/>
      <rect width="7" height="35" x=".5" y=".5" fill="#92D400" stroke="#7FB300" transform="translate(142)"/>
      <rect width="133" height="5" x=".5" y=".5" fill="#F3D53C" stroke="#CBB534" transform="translate(8)"/>
      <rect width="133" height="5" x=".5" y=".5" fill="#F3D53C" stroke="#CBB534" transform="translate(8 30)"/>
    </g>
  </g>
</svg>
