<?xml version="1.0" encoding="UTF-8"?><svg version="1.1" width="62px" height="31px" viewBox="0 0 62.0 31.0" xmlns="http://www.w3.org/2000/svg" xmlns:xlink="http://www.w3.org/1999/xlink"><defs><clipPath id="i0"><path d="M48,0 C49.6568542,-3.04359188e-16 51,1.34314575 51,3 L51,14 C51,15.6568542 49.6568542,17 48,17 L3,17 C1.34314575,17 1.09108455e-15,15.6568542 0,14 L0,3 C-2.02906125e-16,1.34314575 1.34314575,1.19253761e-15 3,0 L48,0 Z"></path></clipPath><clipPath id="i1"><path d="M9,0 L9,17 L0,17 L0,0 L9,0 Z"></path></clipPath><clipPath id="i2"><path d="M54,0 L54,8 L0,8 L0,0 L54,0 Z"></path></clipPath><clipPath id="i3"><path d="M8,0 L8,31 L0,31 L0,0 L8,0 Z"></path></clipPath></defs><g transform="translate(0.0 6.0)"><g clip-path="url(#i0)"><polygon points="0,0 51,0 51,17 0,17 0,0" stroke="none" fill="rgba(0, 102, 204, 0.2)"></polygon></g><g clip-path="url(#i0)"><path d="M3,0 L48,0 C49.6568542,-3.04359188e-16 51,1.34314575 51,3 L51,14 C51,15.6568542 49.6568542,17 48,17 L3,17 C1.34314575,17 1.09108455e-15,15.6568542 0,14 L0,3 C-2.02906125e-16,1.34314575 1.34314575,1.19253761e-15 3,0 Z" stroke="#0066CC" stroke-width="2" fill="none" stroke-miterlimit="5"></path></g></g><g transform="translate(2.0 20.0)"><path d="M0.5,0.5 L35.5,0.5" stroke="#151515" stroke-width="1" fill="none" stroke-linecap="square" stroke-miterlimit="10" stroke-dasharray=" 2.0 2.0"></path></g><g transform="translate(43.0 4.0)"><g clip-path="url(#i1)"><text transform="translate(0.0 14.0)" font-family="RedHatText-Regular, Red Hat Text" font-size="14.0" font-weight="normal" fill="#C9190A" text-anchor="left" line-spacing="21.0">*</text></g></g><g transform="translate(2.0 4.0)"><text transform="translate(0.0 14.0)" font-family="RedHatText-Medium, Red Hat Text" font-size="14.0" font-weight="400" fill="#151515" text-anchor="left" line-spacing="18.20000076293945">Label</text></g><g transform="translate(0.0 23.0)"><g clip-path="url(#i2)"><polygon points="0,0 54,0 54,8 0,8 0,0" stroke="none" fill="rgba(146, 211, 0, 0.9)"></polygon></g><g clip-path="url(#i2)"><polygon points="0,0 54,0 54,8 0,8 0,0 0,0" stroke="#7EB200" stroke-width="2" fill="none" stroke-miterlimit="5"></polygon></g></g><g transform="translate(54.0 0.0)"><g clip-path="url(#i3)"><polygon points="0,0 8,0 8,31 0,31 0,0" stroke="none" fill="rgba(146, 211, 0, 0.9)"></polygon></g><g clip-path="url(#i3)"><polygon points="0,0 8,0 8,31 0,31 0,0 0,0" stroke="#7EB200" stroke-width="2" fill="none" stroke-miterlimit="5"></polygon></g></g></svg>