<?xml version="1.0" encoding="UTF-8"?>
<svg width="115px" height="40px" viewBox="0 0 115 40" version="1.1" xmlns="http://www.w3.org/2000/svg" xmlns:xlink="http://www.w3.org/1999/xlink">
    <title></title>
    <g id="Application-launcher" stroke="none" stroke-width="1" fill="none" fill-rule="evenodd">
        <g id="Application-launcher-/-2.-Menu-Item-/-1.-No-icons-/-2.-With-favoriting-/-1.-Default-/-1.-Favorited">
            <rect fill="#FFFFFF" x="0" y="0" width="115" height="40"></rect>
            <text id="✏️-Label" font-family="RedHatText-Regular, Red Hat Text" font-size="16" font-weight="normal" line-spacing="24" fill="#151515">
                <tspan x="16" y="24">Option</tspan>
            </text>
            <g id="Icons-/-Small-/-star" transform="translate(84.910159, 14.000000)" fill="#F0AB00">
                <path d="M3.20624413,11.9135414 L6.26952266,10.3033844 L9.33280118,11.9135414 C9.87655446,12.1994828 10.5257534,11.740118 10.4202849,11.1236949 L9.83434875,7.71354683 L12.3116912,5.29949008 C12.7570026,4.86589736 12.5109094,4.1088725 11.8968438,4.01981479 L8.4726424,3.5206018 L6.94218188,0.417475048 C6.66795921,-0.135639478 5.8734207,-0.142666133 5.59686343,0.417475048 L4.06640291,3.5206018 L0.642201479,4.01981479 C0.0281358651,4.1088725 -0.217957298,4.86589736 0.22735414,5.29949008 L2.70469656,7.71354683 L2.11876046,11.1236949 C2.01329196,11.740118 2.66249085,12.2018174 3.20624413,11.9135414 Z" id="star"></path>
            </g>
        </g>
    </g>
</svg>