<?xml version="1.0" encoding="UTF-8"?><svg version="1.1" width="115px" height="40px" viewBox="0 0 115.0 40.0" xmlns="http://www.w3.org/2000/svg" xmlns:xlink="http://www.w3.org/1999/xlink"><defs><clipPath id="i0"><path d="M51,0 L51,24 L0,24 L0,0 L51,0 Z"></path></clipPath><clipPath id="i1"><path d="M5.59686343,0.417475048 C5.8734207,-0.142666133 6.66795921,-0.135639478 6.94218188,0.417475048 L8.4726424,3.5206018 L11.8968438,4.01981479 C12.5109094,4.1088725 12.7570026,4.86589736 12.3116912,5.29949008 L9.83434875,7.71354683 L10.4202849,11.1236949 C10.5257534,11.740118 9.87655446,12.1994828 9.33280118,11.9135414 L6.26952266,10.3033844 L3.20624413,11.9135414 C2.66249085,12.2018174 2.01329196,11.740118 2.11876046,11.1236949 L2.70469656,7.71354683 L0.22735414,5.29949008 C-0.217957298,4.86589736 0.0281358651,4.1088725 0.642201479,4.01981479 L4.06640291,3.5206018 Z"></path></clipPath></defs><rect x="0px" y="0px" width="115px" height="40px" fill="#FFFFFF"></rect><g transform="translate(16.0 8.0)"><g clip-path="url(#i0)"><text transform="translate(0.0 16.0)" font-family="RedHatText-Regular, Red Hat Text" font-size="16.0" font-weight="normal" fill="#151515" text-anchor="left" line-spacing="24.0">Option</text></g></g><g transform="translate(83.0 8.0)"><g transform="translate(1.9101591143949772 6.0)"><g clip-path="url(#i1)"><polygon points="2.87547763e-14,4.39648318e-14 12.5390453,4.39648318e-14 12.5390453,12.0014464 2.87547763e-14,12.0014464 2.87547763e-14,4.39648318e-14" stroke="none" fill="#D2D2D2"></polygon></g></g></g></svg>