<?xml version="1.0" encoding="UTF-8"?><svg version="1.1" width="40px" height="24px" viewBox="0 0 40.0 24.0" xmlns="http://www.w3.org/2000/svg" xmlns:xlink="http://www.w3.org/1999/xlink"><defs><clipPath id="i0"><path d="M28,0 C34.627417,-1.21743675e-15 40,5.372583 40,12 C40,18.627417 34.627417,24 28,24 L12,24 C5.372583,24 8.11624501e-16,18.627417 0,12 C-8.11624501e-16,5.372583 5.372583,1.21743675e-15 12,0 L28,0 Z"></path></clipPath><clipPath id="i1"><path d="M7,0 C10.3137085,-6.08718376e-16 13,2.6862915 13,6 L13,7 C13,10.3137085 10.3137085,13 7,13 L6,13 C2.6862915,13 4.05812251e-16,10.3137085 0,7 L0,6 C-4.05812251e-16,2.6862915 2.6862915,6.08718376e-16 6,0 L7,0 Z"></path></clipPath></defs><g transform="translate(40.0 0.0) scale(-1.0 1.0)"><g clip-path="url(#i0)"><polygon points="0,0 40,0 40,24 0,24 0,0" stroke="none" fill="#8A8D90"></polygon></g></g><g transform="translate(19.0 6.0) scale(-1.0 1.0)"><g clip-path="url(#i1)"><polygon points="0,0 13,0 13,13 0,13 0,0" stroke="none" fill="#FFFFFF"></polygon></g></g></svg>