<?xml version="1.0" encoding="UTF-8"?>
<svg width="96px" height="24px" viewBox="0 0 96 24" version="1.1" xmlns="http://www.w3.org/2000/svg" xmlns:xlink="http://www.w3.org/1999/xlink">
    <title></title>
    <g id="Form-Inputs" stroke="none" stroke-width="1" fill="none" fill-rule="evenodd">
        <g id="Forms-/-7.-Switches-/-4.-Label-On---with-icon">
            <text id="âœï¸-Label" font-family="RedHatText-Regular, Red Hat Text" font-size="16" font-weight="normal" line-spacing="24" fill="#151515">
                <tspan x="56" y="16">Label</tspan>
            </text>
            <g id="ðŸ“-Padding" transform="translate(40.000000, 0.000000)" fill="#3F9C35" fill-opacity="0.9" stroke="#418A38">
                <g id="Spacer-/-Horizontal-/-3.-pf-global--spacer--md-(16px)">
                    <rect id="Rectangle-Copy-2" x="0.5" y="0.5" width="15" height="23"></rect>
                </g>
            </g>
            <g id="On" fill="#0066CC">
                <rect id="Rectangle-5-Copy" x="0" y="0" width="40" height="24" rx="12"></rect>
            </g>
            <rect id="Rectangle" fill="#FFFFFF" x="21" y="6" width="13" height="13" rx="6"></rect>
            <g id="Icons-/-Small-/-check" transform="translate(6.000000, 8.000000)">
                <g id="ðŸ–¼-Icon" transform="translate(-0.000000, 0.000000)" fill="#6A6E73">
                    <path d="M4.92423791,8.77280814 L11.8242306,1.87279255 C12.0585364,1.63846388 12.0585364,1.25856672 11.8242306,1.02426094 L10.9757219,0.175729333 C10.7414161,-0.0585764442 10.3614961,-0.0585764442 10.1271903,0.175729333 L4.49998355,5.80293607 L1.87276966,3.17572218 C1.63846388,2.94139352 1.25854383,2.94139352 1.02423805,3.17572218 L0.175729333,4.02425379 C-0.0585764442,4.25858245 -0.0585764442,4.63847962 0.175729333,4.87278539 L4.07572919,8.77278525 C4.31001208,9.00711392 4.68990924,9.00711392 4.92423791,8.77280814 Z" id="check"></path>
                </g>
                <rect id="ðŸŽ¨-Color" fill="#FFFFFF" x="-6" y="-8" width="24" height="24"></rect>
            </g>
        </g>
    </g>
</svg>