<?xml version="1.0" encoding="UTF-8"?>
<svg width="96px" height="24px" viewBox="0 0 96 24" version="1.1" xmlns="http://www.w3.org/2000/svg" xmlns:xlink="http://www.w3.org/1999/xlink">
    <title></title>
    <g id="Form-Inputs" stroke="none" stroke-width="1" fill="none" fill-rule="evenodd">
        <g id="Forms-/-7.-Switches-/-7.-Disabled-Label-On---with-icon">
            <text id="âœï¸-Label" font-family="RedHatText-Regular, Red Hat Text" font-size="16" font-weight="normal" line-spacing="24" fill="#6A6E73">
                <tspan x="56" y="16">Label</tspan>
            </text>
            <g id="ðŸ“-Padding" transform="translate(40.000000, 0.000000)" fill="#3F9C35" fill-opacity="0.9" stroke="#418A38">
                <g id="Spacer-/-Horizontal-/-3.-pf-global--spacer--md-(16px)">
                    <rect id="Rectangle-Copy-2" x="0.5" y="0.5" width="15" height="23"></rect>
                </g>
            </g>
            <g id="On" fill="#D2D2D2">
                <rect id="Rectangle-5-Copy" x="0" y="0" width="40" height="24" rx="12"></rect>
            </g>
            <rect id="Rectangle" fill="#F5F5F5" x="21" y="6" width="13" height="13" rx="6"></rect>
            <g id="Icons-/-Small-/-check">
                <g id="ðŸ–¼-Icon" fill="#F5F5F5">
                    <path d="M10.9242379,16.7728081 L17.8242306,9.87279255 C18.0585364,9.63846388 18.0585364,9.25856672 17.8242306,9.02426094 L16.9757219,8.17572933 C16.7414161,7.94142356 16.3614961,7.94142356 16.1271903,8.17572933 L10.4999835,13.8029361 L7.87276966,11.1757222 C7.63846388,10.9413935 7.25854383,10.9413935 7.02423805,11.1757222 L6.17572933,12.0242538 C5.94142356,12.2585825 5.94142356,12.6384796 6.17572933,12.8727854 L10.0757292,16.7727853 C10.3100121,17.0071139 10.6899092,17.0071139 10.9242379,16.7728081 Z" id="check"></path>
                </g>
                <rect id="ðŸŽ¨-Color" fill="#FFFFFF" x="0" y="0" width="24" height="24"></rect>
            </g>
        </g>
    </g>
</svg>