<?xml version="1.0" encoding="UTF-8"?><svg version="1.1" width="96px" height="24px" viewBox="0 0 96.0 24.0" xmlns="http://www.w3.org/2000/svg" xmlns:xlink="http://www.w3.org/1999/xlink"><defs><clipPath id="i0"><path d="M16,0 L16,24 L0,24 L0,0 L16,0 Z"></path></clipPath><clipPath id="i1"><path d="M28,0 C34.627417,-1.21743675e-15 40,5.372583 40,12 C40,18.627417 34.627417,24 28,24 L12,24 C5.372583,24 8.11624501e-16,18.627417 0,12 C-8.11624501e-16,5.372583 5.372583,1.21743675e-15 12,0 L28,0 Z"></path></clipPath><clipPath id="i2"><path d="M7,0 C10.3137085,-6.08718376e-16 13,2.6862915 13,6 L13,7 C13,10.3137085 10.3137085,13 7,13 L6,13 C2.6862915,13 4.05812251e-16,10.3137085 0,7 L0,6 C-4.05812251e-16,2.6862915 2.6862915,6.08718376e-16 6,0 L7,0 Z"></path></clipPath><clipPath id="i3"><path d="M10.1271903,0.175729333 C10.3614961,-0.0585764442 10.7414161,-0.0585764442 10.9757219,0.175729333 L11.8242306,1.02426094 C12.0585364,1.25856672 12.0585364,1.63846388 11.8242306,1.87279255 L4.92423791,8.77280814 C4.68990924,9.00711392 4.31001208,9.00711392 4.07572919,8.77278525 L0.175729333,4.87278539 C-0.0585764442,4.63847962 -0.0585764442,4.25858245 0.175729333,4.02425379 L1.02423805,3.17572218 C1.25854383,2.94139352 1.63846388,2.94139352 1.87276966,3.17572218 L4.49998355,5.80293607 Z"></path></clipPath><clipPath id="i4"><path d="M24,0 L24,24 L0,24 L0,0 L24,0 Z"></path></clipPath></defs><g transform="translate(56.0 0.0)"><text transform="translate(0.0 16.0)" font-family="RedHatText-Regular, Red Hat Text" font-size="16.0" font-weight="normal" fill="#696E73" text-anchor="left" line-spacing="24.0">Label</text></g><g transform="translate(40.0 0.0)"><g clip-path="url(#i0)"><polygon points="0,0 16,0 16,24 0,24 0,0" stroke="none" fill="rgba(62, 156, 52, 0.9)"></polygon></g><g clip-path="url(#i0)"><polygon points="0,0 16,0 16,24 0,24 0,0 0,0" stroke="#418A37" stroke-width="2" fill="none" stroke-miterlimit="5"></polygon></g></g><g clip-path="url(#i1)"><polygon points="0,0 40,0 40,24 0,24 0,0" stroke="none" fill="#D2D2D2"></polygon></g><g transform="translate(21.0 6.0)"><g clip-path="url(#i2)"><polygon points="0,0 13,0 13,13 0,13 0,0" stroke="none" fill="#F5F5F5"></polygon></g></g><g transform="translate(5.999999999999998 8.000000000000014)"><g clip-path="url(#i3)"><polygon points="0,0 11.9999599,0 11.9999599,8.94853461 0,8.94853461 0,0" stroke="none" fill="#F5F5F5"></polygon><g clip-path="url(#i4)"><polygon points="0,0 11.9999599,0 11.9999599,8.94853461 0,8.94853461 0,0" stroke="none" fill="#FFFFFF"></polygon></g></g></g></svg>