<?xml version="1.0" encoding="UTF-8"?>
<svg width="40px" height="24px" viewBox="0 0 40 24" version="1.1" xmlns="http://www.w3.org/2000/svg" xmlns:xlink="http://www.w3.org/1999/xlink">
    <title></title>
    <g id="Form-Inputs" stroke="none" stroke-width="1" fill="none" fill-rule="evenodd">
        <g id="Forms-/-7.-Switches-/-7.-Disabled-on---with-icon">
            <rect id="Rectangle-5-Copy" fill="#6A6E73" x="0" y="0" width="40" height="24" rx="12"></rect>
            <rect id="Rectangle" fill="#FFFFFF" x="21" y="6" width="13" height="13" rx="6"></rect>
            <g id="Icons-/-Small-/-check">
                <g id="🖼-Icon" fill="#6A6E73">
                    <path d="M10.9242379,16.7728081 L17.8242306,9.87279255 C18.0585364,9.63846388 18.0585364,9.25856672 17.8242306,9.02426094 L16.9757219,8.17572933 C16.7414161,7.94142356 16.3614961,7.94142356 16.1271903,8.17572933 L10.4999835,13.8029361 L7.87276966,11.1757222 C7.63846388,10.9413935 7.25854383,10.9413935 7.02423805,11.1757222 L6.17572933,12.0242538 C5.94142356,12.2585825 5.94142356,12.6384796 6.17572933,12.8727854 L10.0757292,16.7727853 C10.3100121,17.0071139 10.6899092,17.0071139 10.9242379,16.7728081 Z" id="check"></path>
                </g>
                <rect id="🎨-Color" fill="#FFFFFF" x="0" y="0" width="24" height="24"></rect>
            </g>
        </g>
    </g>
</svg>