<?xml version="1.0" encoding="UTF-8"?><svg version="1.1" width="241px" height="40px" viewBox="0 0 241.0 40.0" xmlns="http://www.w3.org/2000/svg" xmlns:xlink="http://www.w3.org/1999/xlink"><defs><clipPath id="i0"><path d="M177,0 L177,16 L0,16 L0,0 L177,0 Z"></path></clipPath><clipPath id="i1"><path d="M16,0 L16,24 L0,24 L0,0 L16,0 Z"></path></clipPath><clipPath id="i2"><path d="M48,0 L48,40 L0,40 L0,0 L48,0 Z"></path></clipPath><clipPath id="i3"><path d="M16,0 L16,40 L0,40 L0,0 L16,0 Z"></path></clipPath></defs><g transform="translate(64.0 16.0)"><text transform="translate(0.0 16.0)" font-family="RedHatText-Regular, Red Hat Text" font-size="16.0" font-weight="normal" fill="#696E73" text-anchor="left" line-spacing="24.0">Substep</text></g><g transform="translate(64.0 -1.1368683772161603e-13)"><g clip-path="url(#i0)"><polygon points="0,0 177,0 177,16 0,16 0,0" stroke="none" fill="rgba(62, 156, 52, 0.9)"></polygon></g><g clip-path="url(#i0)"><polygon points="0,0 177,0 177,16 0,16 0,0 0,0" stroke="#418A37" stroke-width="2" fill="none" stroke-miterlimit="5"></polygon></g></g><g transform="translate(225.0 16.0)"><g clip-path="url(#i1)"><polygon points="0,0 16,0 16,24 0,24 0,0" stroke="none" fill="rgba(62, 156, 52, 0.9)"></polygon></g><g clip-path="url(#i1)"><polygon points="0,0 16,0 16,24 0,24 0,0 0,0" stroke="#418A37" stroke-width="2" fill="none" stroke-miterlimit="5"></polygon></g></g><g clip-path="url(#i2)"><polygon points="0,0 48,0 48,40 0,40 0,0" stroke="none" fill="rgba(88, 46, 192, 0.9)"></polygon></g><g clip-path="url(#i2)"><polygon points="0,0 48,0 48,40 0,40 0,0 0,0" stroke="#5430A4" stroke-width="2" fill="none" stroke-miterlimit="5"></polygon></g><g transform="translate(48.0 0.0)"><g clip-path="url(#i3)"><polygon points="0,0 16,0 16,40 0,40 0,0" stroke="none" fill="rgba(62, 156, 52, 0.9)"></polygon></g><g clip-path="url(#i3)"><polygon points="0,0 16,0 16,40 0,40 0,0 0,0" stroke="#418A37" stroke-width="2" fill="none" stroke-miterlimit="5"></polygon></g></g></svg>