<?xml version="1.0" encoding="UTF-8"?><svg version="1.1" width="24px" height="24px" viewBox="0 0 24.0 24.0" xmlns="http://www.w3.org/2000/svg" xmlns:xlink="http://www.w3.org/1999/xlink"><defs><clipPath id="i0"><path d="M0.692566174,0.165240847 C0.912887304,-0.0550802825 1.26914103,-0.0550802825 1.48710469,0.165240847 L4.67459709,3.35273325 C4.8972528,3.57305438 4.8972528,3.92928522 4.67693167,4.14960635 L1.48943927,7.33709875 C1.26914103,7.55741988 0.912887304,7.55741988 0.694923651,7.33709875 L0.165223681,6.80742167 C-0.0550745605,6.58710054 -0.0550745605,6.23084681 0.165223681,6.01288316 L2.42460245,3.75350439 L0.165223681,1.49414851 C-0.0550745605,1.27382738 -0.0550745605,0.917573649 0.165223681,0.699609996 Z M5.19491292,0.165240847 C5.41287658,-0.0550802825 5.7691303,-0.0550802825 5.98942855,0.165240847 L9.17692095,3.35273325 C9.39724208,3.57305438 9.39724208,3.92928522 9.17692095,4.14491428 L5.98942855,7.33240668 C5.77146489,7.55272781 5.41521116,7.55272781 5.19491292,7.33240668 L4.66521295,6.8027296 C4.44491471,6.58476595 4.44491471,6.22851222 4.66521295,6.00819109 L6.92459172,3.74883521 L4.66521295,1.48945644 C4.44491471,1.27149279 4.44491471,0.915239059 4.66521295,0.694917929 Z"></path></clipPath></defs><g transform="translate(7.0 8.0)"><g clip-path="url(#i0)"><polygon points="2.77555756e-17,0 9.34216179,0 9.34216179,7.5023396 2.77555756e-17,7.5023396 2.77555756e-17,0" stroke="none" fill="#151515"></polygon></g></g></svg>