<?xml version="1.0" encoding="UTF-8"?><svg version="1.1" width="24px" height="24px" viewBox="0 0 24.0 24.0" xmlns="http://www.w3.org/2000/svg" xmlns:xlink="http://www.w3.org/1999/xlink"><defs><clipPath id="i0"><path d="M2.18291782,0.164760197 C2.40259808,-0.0549200656 2.75871448,-0.0549200656 2.97839474,0.164760197 L4.99541111,2.18175368 C5.34976512,2.53613058 5.09879679,3.14200224 4.59763832,3.14200224 L3.5181426,3.14200224 L3.5181426,8.85799203 L4.59763832,8.85799203 C5.09879679,8.85799203 5.34976512,9.46388659 4.99538822,9.8182406 L2.97837185,11.8352341 C2.75869159,12.0549143 2.40257519,12.0549143 2.18289493,11.8352341 L0.165878559,9.8182406 C-0.188475455,9.4638637 0.0624928797,8.85799203 0.563651353,8.85799203 L1.64314707,8.85799203 L1.64314707,3.14200224 L0.563674241,3.14200224 C0.0625157679,3.14200224 -0.188452567,2.53610769 0.165901447,2.18175368 Z"></path></clipPath></defs><g transform="translate(9.0 6.000000000000001)"><g clip-path="url(#i0)"><polygon points="-1.15463195e-14,0 5.16128967,0 5.16128967,11.9999943 -1.15463195e-14,11.9999943 -1.15463195e-14,0" stroke="none" fill="#151515"></polygon></g></g></svg>