<?xml version="1.0" encoding="UTF-8"?><svg version="1.1" width="24px" height="24px" viewBox="0 0 24.0 24.0" xmlns="http://www.w3.org/2000/svg" xmlns:xlink="http://www.w3.org/1999/xlink"><defs><clipPath id="i0"><path d="M10.1249759,7.49998212 C10.3320905,7.49998212 10.499975,7.66786654 10.499975,7.87498122 L10.499975,8.81247899 C10.499975,9.01959367 10.3320905,9.1874781 10.1249759,9.1874781 L0.374999106,9.1874781 C0.167884426,9.1874781 0,9.01959367 0,8.81247899 L0,7.87498122 C0,7.66786654 0.167884426,7.49998212 0.374999106,7.49998212 Z M10.1249759,3.74999106 C10.3320905,3.74999106 10.499975,3.91787549 10.499975,4.12499017 L10.499975,5.06248793 C10.499975,5.26960261 10.3320905,5.43748704 10.1249759,5.43748704 L0.374999106,5.43748704 C0.167884426,5.43748704 0,5.26960261 0,5.06248793 L0,4.12499017 C0,3.91787549 0.167884426,3.74999106 0.374999106,3.74999106 Z M10.1249759,0 C10.3320905,0 10.499975,0.167884426 10.499975,0.374999106 L10.499975,1.31249687 C10.499975,1.51961155 10.3320905,1.68749598 10.1249759,1.68749598 L0.374999106,1.68749598 C0.167884426,1.68749598 0,1.51961155 0,1.31249687 L0,0.374999106 C0,0.167884426 0.167884426,0 0.374999106,0 Z"></path></clipPath></defs><g transform="translate(7.0 7.0)"><g clip-path="url(#i0)"><polygon points="0,0 10.499975,0 10.499975,9.1874781 0,9.1874781 0,0" stroke="none" fill="#151515"></polygon></g></g></svg>