<?xml version="1.0" encoding="UTF-8"?><svg version="1.1" width="24px" height="24px" viewBox="0 0 24.0 24.0" xmlns="http://www.w3.org/2000/svg" xmlns:xlink="http://www.w3.org/1999/xlink"><defs><clipPath id="i0"><path d="M3.46874173,0 C3.62341971,0 3.74999106,0.126571354 3.74999106,0.281249329 L3.74999106,1.5 L6.74998391,1.5 L6.74998391,0.281249329 C6.74998391,0.126571354 6.87655526,0 7.03123324,0 L7.968731,0 C8.12340898,0 8.24998033,0.126571354 8.24998033,0.281249329 L8.24998033,1.5 L9.37497765,1.5 C9.99606992,1.5 10.499975,2.00390147 10.499975,2.62499374 L10.499975,10.8749741 C10.499975,11.4960663 9.99606992,11.9999714 9.37497765,11.9999714 L1.12499732,11.9999714 C0.503905049,11.9999714 0,11.4960663 0,10.8749741 L0,2.62499374 C0,2.00390147 0.503905049,1.5 1.12499732,1.5 L2.24999464,1.5 L2.24999464,0.281249329 C2.24999464,0.126571354 2.37656599,0 2.53124397,0 Z M9.37497765,3.74999106 L1.12499732,3.74999106 L1.12499732,10.7343494 C1.12499732,10.8116884 1.18828299,10.8749741 1.26562198,10.8749741 L9.23435298,10.8749741 C9.31169197,10.8749741 9.37497765,10.8116884 9.37497765,10.7343494 L9.37497765,3.74999106 Z M5.71873637,7.49998212 C5.87341434,7.49998212 5.99998927,7.62655347 5.99998927,7.78123145 L5.99998927,8.71872921 C5.99998927,8.87340719 5.87341434,8.99998212 5.71873637,8.99998212 L4.7812386,8.99998212 C4.62656062,8.99998212 4.49998927,8.87340719 4.49998927,8.71872921 L4.49998927,7.78123145 C4.49998927,7.62655347 4.62656062,7.49998212 4.7812386,7.49998212 Z M3.46874173,7.49998212 C3.62341971,7.49998212 3.74999464,7.62655347 3.74999464,7.78123145 L3.74999464,8.71872921 C3.74999464,8.87340719 3.62341971,8.99998212 3.46874173,8.99998212 L2.53124397,8.99998212 C2.37656599,8.99998212 2.24999464,8.87340719 2.24999464,8.71872921 L2.24999464,7.78123145 C2.24999464,7.62655347 2.37656599,7.49998212 2.53124397,7.49998212 Z M7.968731,7.49998212 C8.12340898,7.49998212 8.24998391,7.62655347 8.24998391,7.78123145 L8.24998391,8.71872921 C8.24998391,8.87340719 8.12340898,8.99998212 7.968731,8.99998212 L7.03123324,8.99998212 C6.87655526,8.99998212 6.74998391,8.87340719 6.74998391,8.71872921 L6.74998391,7.78123145 C6.74998391,7.62655347 6.87655526,7.49998212 7.03123324,7.49998212 Z M3.46874173,5.24998748 C3.62341971,5.24998748 3.74999464,5.37655884 3.74999464,5.53123681 L3.74999464,6.46873458 C3.74999464,6.62341255 3.62341971,6.74998748 3.46874173,6.74998748 L2.53124397,6.74998748 C2.37656599,6.74998748 2.24999464,6.62341255 2.24999464,6.46873458 L2.24999464,5.53123681 C2.24999464,5.37655884 2.37656599,5.24998748 2.53124397,5.24998748 Z M5.71873637,5.24998748 C5.87341434,5.24998748 5.99998927,5.37655884 5.99998927,5.53123681 L5.99998927,6.46873458 C5.99998927,6.62341255 5.87341434,6.74998748 5.71873637,6.74998748 L4.7812386,6.74998748 C4.62656062,6.74998748 4.49998927,6.62341255 4.49998927,6.46873458 L4.49998927,5.53123681 C4.49998927,5.37655884 4.62656062,5.24998748 4.7812386,5.24998748 Z M7.968731,5.24998748 C8.12340898,5.24998748 8.24998391,5.37655884 8.24998391,5.53123681 L8.24998391,6.46873458 C8.24998391,6.62341255 8.12340898,6.74998748 7.968731,6.74998748 L7.03123324,6.74998748 C6.87655526,6.74998748 6.74998391,6.62341255 6.74998391,6.46873458 L6.74998391,5.53123681 C6.74998391,5.37655884 6.87655526,5.24998748 7.03123324,5.24998748 Z"></path></clipPath></defs><g transform="translate(7.0 5.999999999999999)"><g clip-path="url(#i0)"><polygon points="0,0 10.499975,0 10.499975,11.9999714 0,11.9999714 0,0" stroke="none" fill="#151515"></polygon></g></g></svg>