<?xml version="1.0" encoding="UTF-8"?><svg version="1.1" width="24px" height="24px" viewBox="0 0 24.0 24.0" xmlns="http://www.w3.org/2000/svg" xmlns:xlink="http://www.w3.org/1999/xlink"><defs><clipPath id="i0"><path d="M5.81248614,0 C9.02341599,0 11.6249723,2.6015563 11.6249723,5.81248614 C11.6249723,9.02341599 9.02341599,11.6249723 5.81248614,11.6249723 C2.6015563,11.6249723 0,9.02341599 0,5.81248614 C0,2.6015563 2.6015563,0 5.81248614,0 Z M5.81248614,1.12499732 C3.22264857,1.12499732 1.12499732,3.22264857 1.12499732,5.81248614 C1.12499732,8.40232372 3.22264857,10.499975 5.81248614,10.499975 C8.40232372,10.499975 10.499975,8.40232372 10.499975,5.81248614 C10.499975,3.22264857 8.40232372,1.12499732 5.81248614,1.12499732 Z M6.18748525,2.24999464 C6.34216322,2.24999464 6.46873458,2.37656599 6.46873458,2.53124397 L6.46873458,5.85233437 L8.03435127,6.991385 C8.16092262,7.08280019 8.18669465,7.25858102 8.09530235,7.38512949 L7.65466009,7.99216845 C7.5632678,8.11638232 7.38748696,8.14451183 7.26091561,8.05309664 L5.27109034,6.60702465 C5.19842053,6.55310022 5.15623771,6.46873458 5.15623771,6.37967687 L5.15623771,2.53124397 C5.15623771,2.37656599 5.28280906,2.24999464 5.43748704,2.24999464 Z"></path></clipPath></defs><g transform="translate(6.0 6.0)"><g clip-path="url(#i0)"><polygon points="0,0 11.6249723,0 11.6249723,11.6249723 0,11.6249723 0,0" stroke="none" fill="#151515"></polygon></g></g></svg>