<?xml version="1.0" encoding="UTF-8"?><svg version="1.1" width="24px" height="24px" viewBox="0 0 24.0 24.0" xmlns="http://www.w3.org/2000/svg" xmlns:xlink="http://www.w3.org/1999/xlink"><defs><clipPath id="i0"><path d="M4.87514185,0 C6.8977887,0 8.63215956,0.949216487 9.37043905,2.29920411 C11.7071568,2.57578426 13.5001213,4.12499017 13.5001213,5.99998569 C13.5001213,6.86950572 13.1134035,7.66637882 12.4688737,8.30154729 C12.8274621,9.0210814 13.3454433,9.57888799 13.3548046,9.58591465 C13.5024559,9.7429501 13.5423041,9.97263247 13.4579385,10.1718507 C13.3712153,10.371069 13.1766891,10.499975 12.9610601,10.499975 C11.7048222,10.499975 10.6946546,10.0241994 10.0266875,9.59060671 C9.58137605,9.69371773 9.11262717,9.74997675 8.6251329,9.74997675 C6.60482064,9.74997675 4.87747643,8.80309486 4.14155442,7.4577993 C3.91420664,7.42966979 3.69155092,7.39217903 3.47592185,7.34294667 C2.8079547,7.77889686 1.79545253,8.25231492 0.541549273,8.25231492 C0.325943097,8.25231492 0.129059411,8.12340898 0.0446937677,7.9241907 C-0.0420293532,7.72497243 0.000153468599,7.49529005 0.147804789,7.3382546 C0.157188922,7.32889335 0.672812692,6.77108676 1.03140101,6.05155265 C0.386871297,5.41404959 0.000153468599,4.61717649 0.000153468599,3.74999106 C0.000153468599,1.67811184 2.18217036,0 4.87514185,0 Z M9.73371943,3.51561662 C9.74074609,3.59295561 9.75013022,3.67029459 9.75013022,3.74999106 C9.75013022,5.64608944 7.92200958,7.20701407 5.54780107,7.46013389 C6.22982154,8.15389596 7.35951092,8.62497944 8.6251329,8.62497944 C9.01185073,8.62497944 9.39856856,8.58043914 9.77356767,8.4937389 L10.239982,8.38591293 L10.6407531,8.64608229 C10.9712119,8.85935388 11.3087203,9.02810805 11.6508978,9.14762986 C11.587635,9.0374693 11.5243493,8.92028208 11.4633982,8.80076027 L11.1001178,8.07186491 L11.6790273,7.49998212 C11.9954328,7.18591121 12.375124,6.67264492 12.375124,5.99998569 C12.375124,4.84685887 11.2431,3.85545956 9.73371943,3.51561662 Z M4.87514185,1.12499732 C2.84311086,1.12499732 1.12515079,2.32733362 1.12515079,3.74999106 C1.12515079,4.42265028 1.50484196,4.93591658 1.82124745,5.24998748 L2.40249149,5.82420486 L2.03921111,6.55310022 C1.97828291,6.67264492 1.91499723,6.78983214 1.85171155,6.8999927 C2.19388908,6.78044801 2.53139743,6.61169383 2.86185624,6.39842224 L3.26265027,6.13827577 L3.72670708,6.24374427 C4.10170619,6.3304445 4.48842402,6.3749848 4.87514185,6.3749848 C6.90717283,6.3749848 8.6251329,5.1726485 8.6251329,3.74999106 C8.6251329,2.32733362 6.90717283,1.12499732 4.87514185,1.12499732 Z"></path></clipPath></defs><g transform="translate(5.0 7.0)"><g clip-path="url(#i0)"><polygon points="-3.73034936e-14,0 13.5015795,0 13.5015795,10.499975 -3.73034936e-14,10.499975 -3.73034936e-14,0" stroke="none" fill="#151515"></polygon></g></g></svg>