<?xml version="1.0" encoding="UTF-8"?><svg version="1.1" width="24px" height="24px" viewBox="0 0 24.0 24.0" xmlns="http://www.w3.org/2000/svg" xmlns:xlink="http://www.w3.org/1999/xlink"><defs><clipPath id="i0"><path d="M1.68749598,8.24998033 C2.62030168,8.24998033 3.37499195,9.00467061 3.37499195,9.93747631 C3.37499195,10.870282 2.62030168,11.6249723 1.68749598,11.6249723 C0.754690278,11.6249723 0,10.870282 0,9.93747631 C0,9.00467061 0.754690278,8.24998033 1.68749598,8.24998033 Z M1.68749598,4.12499017 C2.62030168,4.12499017 3.37499195,4.87968044 3.37499195,5.81248614 C3.37499195,6.74529184 2.62030168,7.49998212 1.68749598,7.49998212 C0.754690278,7.49998212 0,6.74529184 0,5.81248614 C0,4.87968044 0.754690278,4.12499017 1.68749598,4.12499017 Z M1.68749598,0 C2.62030168,0 3.37499195,0.754690278 3.37499195,1.68749598 C3.37499195,2.62030168 2.62030168,3.37499195 1.68749598,3.37499195 C0.754690278,3.37499195 0,2.62030168 0,1.68749598 C0,0.754690278 0.754690278,0 1.68749598,0 Z"></path></clipPath></defs><g transform="translate(10.0 6.0)"><g clip-path="url(#i0)"><polygon points="0,0 3.37499195,0 3.37499195,11.6249723 0,11.6249723 0,0" stroke="none" fill="#151515"></polygon></g></g></svg>