<?xml version="1.0" encoding="UTF-8"?><svg version="1.1" width="24px" height="24px" viewBox="0 0 24.0 24.0" xmlns="http://www.w3.org/2000/svg" xmlns:xlink="http://www.w3.org/1999/xlink"><defs><clipPath id="i0"><path d="M2.75260411,5.0082007e-05 L2.85416667,0.00721152544 C2.99305566,0.0280448588 3.10416667,0.094017187 3.1875,0.205128192 L4.25,1.72596153 C4.81944434,1.57318385 5.40277767,1.49679486 6,1.49679486 C7.23611101,1.49679486 8.375,1.80235052 9.41666667,2.41346153 C10.4444443,3.01068385 11.2569443,3.8162392 11.8541667,4.83012819 C11.951389,4.98290586 12,5.14957253 12,5.33012819 C12,5.51068385 11.951389,5.67735052 11.8541667,5.83012819 C11.5347223,6.39957253 11.1319443,6.90651719 10.6458333,7.35096153 C10.1597223,7.79540586 9.625,8.16346153 9.04166667,8.45512819 L9.91666667,9.68429486 C9.98611101,9.79540586 10.0104167,9.92040586 9.98958333,10.0592949 C9.96875,10.1981839 9.90277767,10.3023505 9.79166667,10.3717949 L9.52083333,10.5801282 C9.40972233,10.6495725 9.28472233,10.6738782 9.14583333,10.6530449 C9.00694434,10.6322115 8.89583333,10.5662392 8.8125,10.4551282 L2.08333333,0.975961525 C2.01388899,0.86485052 1.98958333,0.73985052 2.01041667,0.600961525 C2.03125,0.462072531 2.09722233,0.357905864 2.20833333,0.288461525 L2.47916667,0.0801281921 C2.59027767,0.0106838536 2.71527767,-0.0136218079 2.85416667,0.00721152544 Z M2.14583333,2.68429486 L3.33333333,4.39262819 C3.22222233,4.69818385 3.16666667,5.01068385 3.16666667,5.33012819 C3.16666667,5.84401719 3.29166667,6.3162392 3.54166667,6.74679486 C3.79166667,7.17735052 4.13194434,7.52110052 4.5625,7.77804486 C4.99305566,8.0349892 5.46527767,8.16346153 5.97916667,8.16346153 L6.64583333,9.14262819 C6.4375,9.15651719 6.22222233,9.16346153 6,9.16346153 C4.76388899,9.16346153 3.625,8.85790586 2.58333333,8.24679486 C1.55555566,7.64957253 0.743055662,6.84401719 0.145833333,5.83012819 C0.0486110051,5.67735052 0,5.51068385 0,5.33012819 C0,5.14957253 0.0486110051,4.98290586 0.145833333,4.83012819 C0.645833333,3.96901719 1.3125,3.2537392 2.14583333,2.68429486 Z M3.83333333,5.12179486 L5.45833333,7.43429486 C4.94444434,7.29540586 4.53472233,7.01068385 4.22916667,6.58012819 C3.92361101,6.14957253 3.79166667,5.66346153 3.83333333,5.12179486 Z M6,2.49679486 C5.63888899,2.49679486 5.28472233,2.5662392 4.9375,2.70512819 L5.35416667,3.26762819 C5.61805566,3.18429486 5.89583333,3.15304486 6.1875,3.17387819 C6.47916667,3.19471153 6.75694434,3.27457253 7.02083333,3.41346153 C6.77083333,3.41346153 6.55902767,3.50026719 6.38541667,3.67387819 C6.21180566,3.8474892 6.125,4.05929486 6.125,4.30929486 C6.125,4.55929486 6.21180566,4.77110052 6.38541667,4.94471153 C6.55902767,5.11832253 6.77083333,5.20512819 7.02083333,5.20512819 C7.27083333,5.20512819 7.48263899,5.11832253 7.65625,4.94471153 C7.82986101,4.77110052 7.91666667,4.55929486 7.91666667,4.30929486 C8.11111101,4.67040586 8.19444434,5.05929486 8.16666667,5.47596153 C8.13888899,5.89262819 8,6.27457253 7.75,6.62179486 L8.14583333,7.18429486 C8.60416667,6.65651719 8.83333333,6.03846153 8.83333333,5.33012819 C8.83333333,4.8162392 8.70486101,4.34401719 8.44791667,3.91346153 C8.19097233,3.48290586 7.84722233,3.13915586 7.41666667,2.88221153 C6.98611101,2.62526719 6.51388899,2.49679486 6,2.49679486 Z"></path></clipPath></defs><g transform="translate(6.0 6.999999999999999)"><g clip-path="url(#i0)"><polygon points="0,8.67361738e-19 12,8.67361738e-19 12,10.6602564 0,10.6602564 0,8.67361738e-19" stroke="none" fill="#020202"></polygon></g></g></svg>