<?xml version="1.0" encoding="UTF-8"?>
<svg width="24px" height="24px" viewBox="0 0 24 24" version="1.1" xmlns="http://www.w3.org/2000/svg" xmlns:xlink="http://www.w3.org/1999/xlink">
    <title></title>
    <g id="Icons" stroke="none" stroke-width="1" fill="none" fill-rule="evenodd">
        <g id="Icons/2.-Size-sm/Framework/eye-slash" fill="#030303" fill-rule="nonzero">
            <path d="M15.5208333,17.5801282 L15.7916667,17.3717949 C15.9027777,17.3023505 15.96875,17.1981839 15.9895833,17.0592949 C16.0104167,16.9204059 15.986111,16.7954059 15.9166667,16.6842949 L15.0416667,15.4551282 C15.625,15.1634615 16.1597223,14.7954059 16.6458333,14.3509615 C17.1319443,13.9065172 17.5347223,13.3995725 17.8541667,12.8301282 C17.951389,12.6773505 18,12.5106839 18,12.3301282 C18,12.1495725 17.951389,11.9829059 17.8541667,11.8301282 C17.2569443,10.8162392 16.4444443,10.0106839 15.4166667,9.41346153 C14.375,8.80235052 13.236111,8.49679486 12,8.49679486 C11.4027777,8.49679486 10.8194443,8.57318385 10.25,8.72596153 L9.1875,7.20512819 C9.10416667,7.09401719 8.99305566,7.02804486 8.85416667,7.00721153 C8.71527767,6.98637819 8.59027767,7.01068385 8.47916667,7.08012819 L8.20833333,7.28846153 C8.09722233,7.35790586 8.03125,7.46207253 8.01041667,7.60096153 C7.98958333,7.73985052 8.01388899,7.86485052 8.08333333,7.97596153 L14.8125,17.4551282 C14.8958333,17.5662392 15.0069443,17.6322115 15.1458333,17.6530449 C15.2847223,17.6738782 15.4097223,17.6495725 15.5208333,17.5801282 Z M14.1458333,14.1842949 L13.75,13.6217949 C14,13.2745725 14.138889,12.8926282 14.1666667,12.4759615 C14.1944443,12.0592949 14.111111,11.6704059 13.9166667,11.3092949 C13.9166667,11.5592949 13.829861,11.7711005 13.65625,11.9447115 C13.482639,12.1183225 13.2708333,12.2051282 13.0208333,12.2051282 C12.7708333,12.2051282 12.5590277,12.1183225 12.3854167,11.9447115 C12.2118057,11.7711005 12.125,11.5592949 12.125,11.3092949 C12.125,11.0592949 12.2118057,10.8474892 12.3854167,10.6738782 C12.5590277,10.5002672 12.7708333,10.4134615 13.0208333,10.4134615 C12.7569443,10.2745725 12.4791667,10.1947115 12.1875,10.1738782 C11.8958333,10.1530449 11.6180557,10.1842949 11.3541667,10.2676282 L10.9375,9.70512819 C11.2847223,9.5662392 11.638889,9.49679486 12,9.49679486 C12.513889,9.49679486 12.986111,9.62526719 13.4166667,9.88221153 C13.8472223,10.1391559 14.1909723,10.4829059 14.4479167,10.9134615 C14.704861,11.3440172 14.8333333,11.8162392 14.8333333,12.3301282 C14.8333333,13.0384615 14.6041667,13.6565172 14.1458333,14.1842949 Z M12,16.1634615 C12.2222223,16.1634615 12.4375,16.1565172 12.6458333,16.1426282 L11.9791667,15.1634615 C11.4652777,15.1634615 10.9930557,15.0349892 10.5625,14.7780449 C10.1319443,14.5211005 9.79166667,14.1773505 9.54166667,13.7467949 C9.29166667,13.3162392 9.16666667,12.8440172 9.16666667,12.3301282 C9.16666667,12.0106839 9.22222233,11.6981839 9.33333333,11.3926282 L8.14583333,9.68429486 C7.3125,10.2537392 6.64583333,10.9690172 6.14583333,11.8301282 C6.04861101,11.9829059 6,12.1495725 6,12.3301282 C6,12.5106839 6.04861101,12.6773505 6.14583333,12.8301282 C6.74305566,13.8440172 7.55555566,14.6495725 8.58333333,15.2467949 C9.625,15.8579059 10.763889,16.1634615 12,16.1634615 Z M11.4583333,14.4342949 L9.83333333,12.1217949 C9.79166667,12.6634615 9.92361101,13.1495725 10.2291667,13.5801282 C10.5347223,14.0106839 10.9444443,14.2954059 11.4583333,14.4342949 Z" id="eye-slash"></path>
        </g>
    </g>
</svg>