<?xml version="1.0" encoding="UTF-8"?><svg version="1.1" width="24px" height="24px" viewBox="0 0 24.0 24.0" xmlns="http://www.w3.org/2000/svg" xmlns:xlink="http://www.w3.org/1999/xlink"><defs><clipPath id="i0"><path d="M6,0 C7.23611101,0 8.375,0.301127319 9.41666667,0.903381643 C10.4444443,1.49194857 11.2569443,2.2858292 11.8541667,3.28502415 C11.951389,3.43558766 12,3.59983886 12,3.77777778 C12,3.95571669 11.951389,4.1199679 11.8541667,4.2705314 C11.2569443,5.26972635 10.4444443,6.06360698 9.41666667,6.65217391 C8.375,7.25442824 7.23611101,7.55555556 6,7.55555556 C4.76388899,7.55555556 3.625,7.25442824 2.58333333,6.65217391 C1.55555566,6.06360698 0.743055662,5.26972635 0.145833333,4.2705314 C0.0486110051,4.1199679 0,3.95571669 0,3.77777778 C0,3.59983886 0.0486110051,3.43558766 0.145833333,3.28502415 C0.743055662,2.2858292 1.55555566,1.49194857 2.58333333,0.903381643 C3.625,0.301127319 4.76388899,0 6,0 Z M6,0.888888889 C5.47603475,0.888888889 4.99455348,1.01988028 4.55555556,1.28186275 C4.11655763,1.54384521 3.76606743,1.8943354 3.50408497,2.33333333 C3.2421025,2.77233126 3.11111111,3.25381253 3.11111111,3.77777778 C3.11111111,4.30174303 3.2421025,4.78322429 3.50408497,5.22222222 C3.76606743,5.66122015 4.11655763,6.01171035 4.55555556,6.27369281 C4.99455348,6.53567527 5.47603475,6.66666667 6,6.66666667 C6.52396525,6.66666667 7.00544652,6.53567527 7.44444444,6.27369281 C7.88344237,6.01171035 8.23393257,5.66122015 8.49591503,5.22222222 C8.7578975,4.78322429 8.88888889,4.30174303 8.88888889,3.77777778 C8.88888889,3.25381253 8.7578975,2.77233126 8.49591503,2.33333333 C8.23393257,1.8943354 7.88344237,1.54384521 7.44444444,1.28186275 C7.00544652,1.01988028 6.52396525,0.888888889 6,0.888888889 Z M6,1.55555556 C6.61253572,1.55555556 7.13603999,1.77279213 7.57051282,2.20726496 C8.00498565,2.64173778 8.22222222,3.16524206 8.22222222,3.77777778 C8.22222222,4.3903135 8.00498565,4.91381777 7.57051282,5.3482906 C7.13603999,5.78276342 6.61253572,6 6,6 C5.38746428,6 4.86396001,5.78276342 4.42948718,5.3482906 C3.99501435,4.91381777 3.77777778,4.3903135 3.77777778,3.77777778 C3.77777778,3.40740752 3.86324786,3.05840445 4.03418803,2.73076923 C4.03418803,2.98717949 4.12321948,3.20441606 4.30128205,3.38247863 C4.47934462,3.5605412 4.6965812,3.64957265 4.95299145,3.64957265 C5.20940171,3.64957265 5.42663829,3.5605412 5.60470085,3.38247863 C5.78276342,3.20441606 5.87179487,2.98717949 5.87179487,2.73076923 C5.87179487,2.47435897 5.78276342,2.2571224 5.60470085,2.07905983 C5.42663829,1.90099726 5.20940171,1.81196581 4.95299145,1.81196581 C5.28062667,1.64102564 5.62962974,1.55555556 6,1.55555556 Z"></path></clipPath></defs><g transform="translate(6.0 8.0)"><g clip-path="url(#i0)"><polygon points="0,0 12,0 12,7.55555556 0,7.55555556 0,0" stroke="none" fill="#020202"></polygon></g></g></svg>