<?xml version="1.0" encoding="UTF-8"?><svg version="1.1" width="24px" height="24px" viewBox="0 0 24.0 24.0" xmlns="http://www.w3.org/2000/svg" xmlns:xlink="http://www.w3.org/1999/xlink"><defs><clipPath id="i0"><path d="M6.9754386,0 L6.9754386,4.25 C6.9754386,4.6625 7.31175439,5 7.72280702,5 L11.9578947,5 L11.9578947,15.25 C11.9578947,15.665625 11.624693,16 11.2105263,16 L0.747368421,16 C0.333201754,16 0,15.665625 0,15.25 L0,0.75 C0,0.334375 0.333201754,0 0.747368421,0 L6.9754386,0 Z M8.16188596,0 C8.36118421,0 8.55114035,0.078125 8.69127193,0.21875 L11.7399123,3.28125 C11.8800439,3.421875 11.9578947,3.6125 11.9578947,3.809375 L11.9578947,4 L7.97192982,4 L7.97192982,0 L8.16188596,0 Z"></path></clipPath></defs><g transform="translate(6.0 4.0)"><g clip-path="url(#i0)"><polygon points="0,0 11.9578947,0 11.9578947,16 0,16 0,0" stroke="none" fill="#151515"></polygon></g></g></svg>