<?xml version="1.0" encoding="UTF-8"?><svg version="1.1" width="24px" height="24px" viewBox="0 0 24.0 24.0" xmlns="http://www.w3.org/2000/svg" xmlns:xlink="http://www.w3.org/1999/xlink"><defs><clipPath id="i0"><path d="M12.9366223,4.49998927 C13.3707643,4.49998927 13.6412562,4.97091253 13.4224915,5.34591163 L11.7250392,8.25579392 C11.4854234,8.66659005 10.9050033,8.99997854 10.4294338,8.99997854 L1.05528008,8.99997854 C0.621138045,8.99997854 0.350646137,8.52905529 0.569387986,8.15405618 L2.26681741,5.2441739 C2.50645612,4.83337776 3.08689907,4.49998927 3.56249151,4.49998927 Z M4.87498838,0 L6.3749848,1.5 L10.1249759,1.5 C10.746297,1.5 11.2499732,2.00367259 11.2499732,2.62499374 L11.2499732,3.74999106 L3.56249151,3.74999106 C2.76536664,3.74999106 2.02063269,4.17772441 1.61899181,4.866268 L0,7.64168253 L0,1.12499732 C0,0.503676167 0.503676167,0 1.12499732,0 L4.87498838,0 Z"></path></clipPath></defs><g transform="translate(4.999999999999999 8.0)"><g clip-path="url(#i0)"><polygon points="0,0 13.4999728,0 13.4999728,8.99997854 0,8.99997854 0,0" stroke="none" fill="#151515"></polygon></g></g></svg>