<?xml version="1.0" encoding="UTF-8"?><svg version="1.1" width="24px" height="24px" viewBox="0 0 24.0 24.0" xmlns="http://www.w3.org/2000/svg" xmlns:xlink="http://www.w3.org/1999/xlink"><defs><clipPath id="i0"><path d="M2.24999464,7.49998212 C2.66413244,7.49998212 3,7.83584252 3,8.24998033 L3,9.74997675 C3,10.1641146 2.66413244,10.4999821 2.24999464,10.4999821 L0.749998212,10.4999821 C0.335860405,10.4999821 0,10.1641146 0,9.74997675 L0,8.24998033 C0,7.83584252 0.335860405,7.49998212 0.749998212,7.49998212 Z M6.74998391,7.49998212 C7.16412171,7.49998212 7.49998927,7.83584252 7.49998927,8.24998033 L7.49998927,9.74997675 C7.49998927,10.1641146 7.16412171,10.4999821 6.74998391,10.4999821 L5.24998748,10.4999821 C4.83584968,10.4999821 4.49998927,10.1641146 4.49998927,9.74997675 L4.49998927,8.24998033 C4.49998927,7.83584252 4.83584968,7.49998212 5.24998748,7.49998212 Z M2.24999464,3.74999106 C2.66413244,3.74999106 3,4.08585146 3,4.49998927 L3,5.99998569 C3,6.4141235 2.66413244,6.74999106 2.24999464,6.74999106 L0.749998212,6.74999106 C0.335860405,6.74999106 0,6.4141235 0,5.99998569 L0,4.49998927 C0,4.08585146 0.335860405,3.74999106 0.749998212,3.74999106 Z M6.74998391,3.74999106 C7.16412171,3.74999106 7.49998927,4.08585146 7.49998927,4.49998927 L7.49998927,5.99998569 C7.49998927,6.4141235 7.16412171,6.74999106 6.74998391,6.74999106 L5.24998748,6.74999106 C4.83584968,6.74999106 4.49998927,6.4141235 4.49998927,5.99998569 L4.49998927,4.49998927 C4.49998927,4.08585146 4.83584968,3.74999106 5.24998748,3.74999106 Z M2.24999464,0 C2.66413244,0 3,0.335860405 3,0.749998212 L3,2.24999464 C3,2.66413244 2.66413244,3 2.24999464,3 L0.749998212,3 C0.335860405,3 0,2.66413244 0,2.24999464 L0,0.749998212 C0,0.335860405 0.335860405,0 0.749998212,0 Z M6.74998391,0 C7.16412171,0 7.49998927,0.335860405 7.49998927,0.749998212 L7.49998927,2.24999464 C7.49998927,2.66413244 7.16412171,3 6.74998391,3 L5.24998748,3 C4.83584968,3 4.49998927,2.66413244 4.49998927,2.24999464 L4.49998927,0.749998212 C4.49998927,0.335860405 4.83584968,0 5.24998748,0 Z"></path></clipPath></defs><g transform="translate(8.0 7.0)"><g clip-path="url(#i0)"><polygon points="0,0 7.49998927,0 7.49998927,10.4999821 0,10.4999821 0,0" stroke="none" fill="#151515"></polygon></g></g></svg>