<?xml version="1.0" encoding="UTF-8"?>
<svg width="24px" height="24px" viewBox="0 0 24 24" version="1.1" xmlns="http://www.w3.org/2000/svg" xmlns:xlink="http://www.w3.org/1999/xlink">
    <title></title>
    <g id="Icons" stroke="none" stroke-width="1" fill="none" fill-rule="evenodd">
        <g id="Icons/2.-Size-sm/Framework/grip-vertical" fill="#151515">
            <path d="M10.2499946,10 C10.6641324,10 11,9.66413244 11,9.24999464 L11,7.74999821 C11,7.33586041 10.6641324,7 10.2499946,7 L8.74999821,7 C8.33586041,7 8,7.33586041 8,7.74999821 L8,9.24999464 C8,9.66413244 8.33586041,10 8.74999821,10 L10.2499946,10 Z M14.7499839,10 C15.1641217,10 15.4999893,9.66413244 15.4999893,9.24999464 L15.4999893,7.74999821 C15.4999893,7.33586041 15.1641217,7 14.7499839,7 L13.2499875,7 C12.8358497,7 12.4999893,7.33586041 12.4999893,7.74999821 L12.4999893,9.24999464 C12.4999893,9.66413244 12.8358497,10 13.2499875,10 L14.7499839,10 Z M10.2499946,13.7499911 C10.6641324,13.7499911 11,13.4141235 11,12.9999857 L11,11.4999893 C11,11.0858515 10.6641324,10.7499911 10.2499946,10.7499911 L8.74999821,10.7499911 C8.33586041,10.7499911 8,11.0858515 8,11.4999893 L8,12.9999857 C8,13.4141235 8.33586041,13.7499911 8.74999821,13.7499911 L10.2499946,13.7499911 Z M14.7499839,13.7499911 C15.1641217,13.7499911 15.4999893,13.4141235 15.4999893,12.9999857 L15.4999893,11.4999893 C15.4999893,11.0858515 15.1641217,10.7499911 14.7499839,10.7499911 L13.2499875,10.7499911 C12.8358497,10.7499911 12.4999893,11.0858515 12.4999893,11.4999893 L12.4999893,12.9999857 C12.4999893,13.4141235 12.8358497,13.7499911 13.2499875,13.7499911 L14.7499839,13.7499911 Z M10.2499946,17.4999821 C10.6641324,17.4999821 11,17.1641146 11,16.7499768 L11,15.2499803 C11,14.8358425 10.6641324,14.4999821 10.2499946,14.4999821 L8.74999821,14.4999821 C8.33586041,14.4999821 8,14.8358425 8,15.2499803 L8,16.7499768 C8,17.1641146 8.33586041,17.4999821 8.74999821,17.4999821 L10.2499946,17.4999821 Z M14.7499839,17.4999821 C15.1641217,17.4999821 15.4999893,17.1641146 15.4999893,16.7499768 L15.4999893,15.2499803 C15.4999893,14.8358425 15.1641217,14.4999821 14.7499839,14.4999821 L13.2499875,14.4999821 C12.8358497,14.4999821 12.4999893,14.8358425 12.4999893,15.2499803 L12.4999893,16.7499768 C12.4999893,17.1641146 12.8358497,17.4999821 13.2499875,17.4999821 L14.7499839,17.4999821 Z" id="grip-vertical"></path>
        </g>
    </g>
</svg>