<?xml version="1.0" encoding="UTF-8"?><svg version="1.1" width="24px" height="24px" viewBox="0 0 24.0 24.0" xmlns="http://www.w3.org/2000/svg" xmlns:xlink="http://www.w3.org/1999/xlink"><defs><clipPath id="i0"><path d="M2.24999464,4.49998927 C2.66413244,4.49998927 3,4.83584968 3,5.24998748 L3,6.74998391 C3,7.16412171 2.66413244,7.49998927 2.24999464,7.49998927 L0.749998212,7.49998927 C0.335860405,7.49998927 0,7.16412171 0,6.74998391 L0,5.24998748 C0,4.83584968 0.335860405,4.49998927 0.749998212,4.49998927 Z M5.99998569,4.49998927 C6.4141235,4.49998927 6.74999106,4.83584968 6.74999106,5.24998748 L6.74999106,6.74998391 C6.74999106,7.16412171 6.4141235,7.49998927 5.99998569,7.49998927 L4.49998927,7.49998927 C4.08585146,7.49998927 3.74999106,7.16412171 3.74999106,6.74998391 L3.74999106,5.24998748 C3.74999106,4.83584968 4.08585146,4.49998927 4.49998927,4.49998927 Z M9.74997675,4.49998927 C10.1641146,4.49998927 10.4999821,4.83584968 10.4999821,5.24998748 L10.4999821,6.74998391 C10.4999821,7.16412171 10.1641146,7.49998927 9.74997675,7.49998927 L8.24998033,7.49998927 C7.83584252,7.49998927 7.49998212,7.16412171 7.49998212,6.74998391 L7.49998212,5.24998748 C7.49998212,4.83584968 7.83584252,4.49998927 8.24998033,4.49998927 Z M2.24999464,0 C2.66413244,0 3,0.335860405 3,0.749998212 L3,2.24999464 C3,2.66413244 2.66413244,3 2.24999464,3 L0.749998212,3 C0.335860405,3 0,2.66413244 0,2.24999464 L0,0.749998212 C0,0.335860405 0.335860405,0 0.749998212,0 Z M5.99998569,0 C6.4141235,0 6.74999106,0.335860405 6.74999106,0.749998212 L6.74999106,2.24999464 C6.74999106,2.66413244 6.4141235,3 5.99998569,3 L4.49998927,3 C4.08585146,3 3.74999106,2.66413244 3.74999106,2.24999464 L3.74999106,0.749998212 C3.74999106,0.335860405 4.08585146,0 4.49998927,0 Z M9.74997675,0 C10.1641146,0 10.4999821,0.335860405 10.4999821,0.749998212 L10.4999821,2.24999464 C10.4999821,2.66413244 10.1641146,3 9.74997675,3 L8.24998033,3 C7.83584252,3 7.49998212,2.66413244 7.49998212,2.24999464 L7.49998212,0.749998212 C7.49998212,0.335860405 7.83584252,0 8.24998033,0 Z"></path></clipPath></defs><g transform="translate(7.0 8.0)"><g clip-path="url(#i0)"><polygon points="0,0 10.4999821,0 10.4999821,7.49998927 0,7.49998927 0,0" stroke="none" fill="#151515"></polygon></g></g></svg>