<?xml version="1.0" encoding="UTF-8"?><svg version="1.1" width="24px" height="24px" viewBox="0 0 24.0 24.0" xmlns="http://www.w3.org/2000/svg" xmlns:xlink="http://www.w3.org/1999/xlink"><defs><clipPath id="i0"><path d="M6.75078499,2.66040168 C6.80644892,2.66040168 6.88676337,2.68873718 6.93009059,2.72366447 L11.2503165,6.28006773 L11.2503165,10.1238086 C11.2503165,10.3308088 11.0823176,10.4988077 10.8753174,10.4988077 L8.24986589,10.4915521 L8.17429805,10.4839291 C8.00346803,10.448943 7.8748439,10.2976782 7.8748439,10.116553 L7.87486678,7.87381393 C7.87486678,7.66681369 7.70684503,7.49881482 7.49986768,7.49881482 L5.99987125,7.49881482 C5.79287102,7.49881482 5.62487215,7.66681369 5.62487215,7.87381393 L5.62487215,10.1170108 C5.62487215,10.3229811 5.45769725,10.4909799 5.25172698,10.4920099 L2.62533706,10.4988077 C2.41833682,10.4988077 2.25033796,10.3308088 2.25033796,10.1238086 L2.25033796,6.28265409 L6.57150228,2.72366447 C6.6148295,2.68873718 6.69514395,2.66040168 6.75078499,2.66040168 Z M11.1565667,0 C11.3118169,0 11.4378161,0.12599915 11.4378161,0.281249329 L11.4378161,3.52756422 L13.3971772,5.14264216 C13.4544891,5.18924239 13.5009978,5.28699759 13.5009978,5.36085758 C13.5009978,5.41647573 13.4723418,5.49646974 13.4370255,5.53945365 L12.8393706,6.26601442 C12.7928162,6.3223421 12.695679,6.36807259 12.6225972,6.36807259 C12.5666815,6.36807259 12.4863441,6.33914199 12.4432916,6.30350517 L6.93009059,1.76272926 C6.88676337,1.72780197 6.80644892,1.69946647 6.75078499,1.69946647 C6.69514395,1.69946647 6.6148295,1.72780197 6.57150228,1.76272926 L1.05855308,6.30350517 C1.01550051,6.33905044 0.935254728,6.36791237 0.879430581,6.36791237 C0.806119904,6.36791237 0.70879958,6.32193012 0.662222237,6.26530489 L0.064567412,5.53874412 C0.0289305951,5.49566866 0,5.41533133 0,5.35943852 C0,5.28633383 0.0457304818,5.1892195 0.102058167,5.14264216 L6.03477565,0.256644591 C6.20671128,0.115173065 6.52696198,0.000343321935 6.7496177,0.000343321935 C6.9722963,0.000343321935 7.29252412,0.115173065 7.46445974,0.256644591 L9.56282052,1.98305039 L9.56282052,0.281249329 C9.56282052,0.12599915 9.68881967,0 9.84406985,0 Z"></path></clipPath></defs><g transform="translate(5.0 7.0)"><g clip-path="url(#i0)"><polygon points="0,0 13.5009978,0 13.5009978,10.4988077 0,10.4988077 0,0" stroke="none" fill="#151515"></polygon></g></g></svg>