<?xml version="1.0" encoding="UTF-8"?><svg version="1.1" width="24px" height="24px" viewBox="0 0 24.0 24.0" xmlns="http://www.w3.org/2000/svg" xmlns:xlink="http://www.w3.org/1999/xlink"><defs><clipPath id="i0"><path d="M3.23689327,0 C3.39221211,0 3.5181426,0.125930486 3.5181426,0.281249329 L3.5181426,7.35798417 L4.59761543,7.35798417 C5.0987739,7.35798417 5.34974224,7.96387872 4.99538822,8.31823273 L2.97837185,10.3352262 C2.75871448,10.5549065 2.40257519,10.5549065 2.18289493,10.3352262 L0.165878559,8.31823273 C-0.188475455,7.96385583 0.0624928797,7.35798417 0.563651353,7.35798417 L1.64314707,7.35798417 L1.64314707,0.281249329 C1.64314707,0.125930486 1.76907756,0 1.9243964,0 Z"></path></clipPath></defs><g transform="translate(9.0 7.0)"><g clip-path="url(#i0)"><polygon points="-1.15463195e-14,0 5.16126678,0 5.16126678,10.4999864 -1.15463195e-14,10.4999864 -1.15463195e-14,0" stroke="none" fill="#151515"></polygon></g></g></svg>