<?xml version="1.0" encoding="UTF-8"?><svg version="1.1" width="24px" height="24px" viewBox="0 0 24.0 24.0" xmlns="http://www.w3.org/2000/svg" xmlns:xlink="http://www.w3.org/1999/xlink"><defs><clipPath id="i0"><path d="M2.18289493,0.164760197 C2.4025523,-0.0549200656 2.75869159,-0.0549200656 2.97837185,0.164760197 L4.99538822,2.18175368 C5.34974224,2.53613058 5.0987739,3.14200224 4.59761543,3.14200224 L3.51811971,3.14200224 L3.51811971,10.2187371 C3.51811971,10.3740559 3.39218923,10.4999864 3.23687038,10.4999864 L1.92437351,10.4999864 C1.76905467,10.4999864 1.64312418,10.3740559 1.64312418,10.2187371 L1.64312418,3.14200224 L0.563651353,3.14200224 C0.0624928797,3.14200224 -0.188475455,2.53610769 0.165878559,2.18175368 Z"></path></clipPath></defs><g transform="translate(9.0 7.0)"><g clip-path="url(#i0)"><polygon points="-1.16018306e-14,0 5.16126678,0 5.16126678,10.4999864 -1.16018306e-14,10.4999864 -1.16018306e-14,0" stroke="none" fill="#151515"></polygon></g></g></svg>