<?xml version="1.0" encoding="UTF-8"?><svg version="1.1" width="24px" height="24px" viewBox="0 0 24.0 24.0" xmlns="http://www.w3.org/2000/svg" xmlns:xlink="http://www.w3.org/1999/xlink"><defs><clipPath id="i0"><path d="M5.81248614,0 C9.02240891,0 11.6249723,2.60350179 11.6249723,5.81248614 C11.6249723,9.02334732 9.02240891,11.6249723 5.81248614,11.6249723 C2.60256338,11.6249723 0,9.02334732 0,5.81248614 C0,2.60350179 2.60256338,0 5.81248614,0 Z M5.81248614,1.12499732 C3.22198481,1.12499732 1.12499732,3.22276301 1.12499732,5.81248614 C1.12499732,8.40394877 3.22189326,10.499975 5.81248614,10.499975 C8.40394877,10.499975 10.499975,8.40303325 10.499975,5.81248614 C10.499975,3.22196192 8.40211772,1.12499732 5.81248614,1.12499732 Z M5.81248614,7.45310723 C6.35527812,7.45310723 6.79685879,7.8946879 6.79685879,8.43747988 C6.79685879,8.98027186 6.35527812,9.42185254 5.81248614,9.42185254 C5.26969416,9.42185254 4.82811349,8.98027186 4.82811349,8.43747988 C4.82811349,7.8946879 5.26969416,7.45310723 5.81248614,7.45310723 Z M5.94828141,2.43749419 C7.09838701,2.43749419 8.3260147,3.33523527 8.3260147,4.51873465 C8.3260147,6.09025648 6.62865393,6.11444923 6.62865393,6.69521261 L6.62865393,6.84373368 C6.62865393,6.99905253 6.50272345,7.12498301 6.34740461,7.12498301 L5.27754479,7.12498301 C5.12222595,7.12498301 4.99629546,6.99905253 4.99629546,6.84373368 L4.99629546,6.64078464 C4.99629546,5.80301046 5.63146393,5.46811135 6.111428,5.19901562 C6.52302522,4.96828039 6.77527529,4.81133649 6.77527529,4.50575708 C6.77527529,4.10155272 6.25967441,3.83325807 5.8428358,3.83325807 C5.29935718,3.83325807 5.04845751,4.09054353 4.69575144,4.53567186 C4.60067415,4.65565144 4.42715924,4.67794447 4.30514263,4.58545354 L3.65303694,4.09095552 C3.53333203,4.00020409 3.50653003,3.83161013 3.59105589,3.70744203 C4.14481128,2.89431836 4.85015476,2.43749419 5.94828141,2.43749419 Z"></path></clipPath></defs><g transform="translate(6.0 6.0)"><g clip-path="url(#i0)"><polygon points="0,0 11.6249723,0 11.6249723,11.6249723 0,11.6249723 0,0" stroke="none" fill="#151515"></polygon></g></g></svg>