<?xml version="1.0" encoding="UTF-8"?><svg version="1.1" width="24px" height="24px" viewBox="0 0 24.0 24.0" xmlns="http://www.w3.org/2000/svg" xmlns:xlink="http://www.w3.org/1999/xlink"><defs><clipPath id="i0"><path d="M6,0 C7.103125,0 8,0.896875 8,2 L10.5,2 C11.328125,2 12,2.671875 12,3.5 L12,14.5 C12,15.328125 11.328125,16 10.5,16 L1.5,16 C0.671875,16 0,15.328125 0,14.5 L0,3.5 C0,2.671875 0.671875,2 1.5,2 L4,2 C4,0.896875 4.896875,0 6,0 Z M7.74913176,11.3333333 L4.25086824,11.3333542 C4.11289071,11.3333542 4,11.4833518 4,11.6666823 L4,12.3333333 C4,12.516669 4.11289071,12.6666667 4.25086824,12.6666667 L7.74913176,12.6666458 C7.88710929,12.6666458 8,12.516669 8,12.3333177 L8,11.6666615 C8,11.483331 7.88710929,11.3333333 7.74913176,11.3333333 Z M9.08257256,8.66666667 L3.5840941,8.6666875 C3.44617568,8.6666875 3.33333333,8.81668516 3.33333333,9.00001562 L3.33333333,9.66666667 C3.33333333,9.85000234 3.44617568,10 3.5840941,10 L9.08257256,9.99997917 C9.22049099,9.99997917 9.33333333,9.85000234 9.33333333,9.66665104 L9.33333333,8.99999479 C9.33333333,8.81666432 9.22049099,8.66666667 9.08257256,8.66666667 Z M2.24999268,6 C2.1124967,6 2,6.14900354 2,6.33111898 L2,6.99335693 C2,7.17549306 2.1124967,7.3244759 2.24999268,7.3244759 L9.75000732,7.33333333 C9.8875033,7.33333333 10,7.18432979 10,7.00221436 L10,6.33997641 C10,6.15786097 9.8875033,6.00885743 9.75000732,6.00885743 Z M6,1.33333333 C5.63055556,1.33333333 5.33333333,1.63055556 5.33333333,2 C5.33333333,2.36944444 5.63055556,2.66666667 6,2.66666667 C6.36944444,2.66666667 6.66666667,2.36944444 6.66666667,2 C6.66666667,1.63055556 6.36944444,1.33333333 6,1.33333333 Z"></path></clipPath></defs><g transform="translate(6.0 4.0)"><g clip-path="url(#i0)"><polygon points="0,0 12,0 12,16 0,16 0,0" stroke="none" fill="#010202"></polygon></g></g></svg>