<?xml version="1.0" encoding="UTF-8"?><svg version="1.1" width="24px" height="24px" viewBox="0 0 24.0 24.0" xmlns="http://www.w3.org/2000/svg" xmlns:xlink="http://www.w3.org/1999/xlink"><defs><clipPath id="i0"><path d="M7.68748167,0 C7.99814225,0 8.24998033,0.251838084 8.24998033,0.562498659 L8.24998033,1.68749598 C8.24998033,1.99815655 7.99814225,2.24999464 7.68748167,2.24999464 L6.69825674,2.24999464 L6.9850221,5.0218615 C8.10976765,5.54483236 9,6.48789194 9,7.68748167 C9,7.99814225 8.74816335,8.24998033 8.43750277,8.24998033 L5.25001037,8.24998033 L5.25001037,10.6876347 C5.25001037,10.7120793 5.24112978,10.7496387 5.23021214,10.7714968 L4.66771348,11.8964942 C4.59863711,12.0346011 4.40122699,12.0343494 4.33228795,11.8964942 L3.76978929,10.7714968 C3.75676595,10.7454501 3.74999106,10.7167484 3.74999106,10.6876347 L3.74999106,8.24998033 L0.562498659,8.24998033 C0.251838084,8.24998033 0,7.99814225 0,7.68748167 C0,6.49828315 0.878080182,5.55046284 2.01495644,5.0218615 L2.30172181,2.24999464 L1.31249687,2.24999464 C1.0018363,2.24999464 0.749998212,1.99815655 0.749998212,1.68749598 L0.749998212,0.562498659 C0.749998212,0.251838084 1.0018363,0 1.31249687,0 Z"></path></clipPath></defs><g transform="translate(7.0 6.0)"><g clip-path="url(#i0)"><polygon points="0,0 9,0 9,11.99998 0,11.99998 0,0" stroke="none" fill="#151515"></polygon></g></g></svg>