<?xml version="1.0" encoding="UTF-8"?><svg version="1.1" width="24px" height="24px" viewBox="0 0 24.0 24.0" xmlns="http://www.w3.org/2000/svg" xmlns:xlink="http://www.w3.org/1999/xlink"><defs><clipPath id="i0"><path d="M3.54138865,6.74998391 C4.06406197,6.98905041 4.64061394,7.12498301 5.24998748,7.12498301 C5.85936103,7.12498301 6.43827048,6.98905041 6.95858631,6.74998391 L7.34997332,6.74998391 C9.08903625,6.74998391 10.499975,8.16092262 10.499975,9.89998555 L10.499975,10.8749741 C10.499975,11.4960663 9.99606992,11.9999714 9.37497765,11.9999714 L1.12499732,11.9999714 C0.503905049,11.9999714 0,11.4960663 0,10.8749741 L0,9.89998555 C0,8.16092262 1.41093871,6.74998391 3.15000165,6.74998391 Z M5.24999464,0 C6.90701936,0 8.24998033,1.34296097 8.24998033,3 C8.24998033,4.65702472 6.90701936,5.99998569 5.24999464,5.99998569 C3.59295561,5.99998569 2.24999464,4.65702472 2.24999464,3 C2.24999464,1.34296097 3.59295561,0 5.24999464,0 Z"></path></clipPath></defs><g transform="translate(7.0 5.999999999999999)"><g clip-path="url(#i0)"><polygon points="0,0 10.499975,0 10.499975,11.9999714 0,11.9999714 0,0" stroke="none" fill="#151515"></polygon></g></g></svg>