<?xml version="1.0" encoding="UTF-8"?><svg version="1.1" width="54px" height="51px" viewBox="0 0 54.0 51.0" xmlns="http://www.w3.org/2000/svg" xmlns:xlink="http://www.w3.org/1999/xlink"><defs><clipPath id="i0"><path d="M27,0 L27.6206897,0.617142857 L54,26.2285714 L43.137931,41.5028571 L35.0689655,39.6514286 L27,50.9142857 L18.9310345,39.6514286 L10.862069,41.5028571 L0,26.2285714 L26.3793103,0.617142857 L27,0 Z M31.5,38.88 L27.1551724,45.2057143 L22.5,38.88 L20.4827586,39.3428571 L27,48.2914286 L33.5172414,39.3428571 L31.5,38.88 Z M27,6.48 L23.7413793,37.8 L27.1551724,42.4285714 L30.2586207,37.8 L27,6.48 Z M35.8448276,10.8 L44.3793103,21.1371429 L39.5689655,27.7714286 L41.1206897,31.32 L36.1551724,38.2628571 L42.362069,39.6514286 L51.8275862,26.3828571 L35.8448276,10.8 Z M18,10.8 L2.01724138,26.3828571 L11.4827586,39.6514286 L17.8448276,38.2628571 L12.8793103,31.32 L14.4310345,27.7714286 L9.62068966,21.1371429 L18,10.8 Z M15.5172414,29.16 L14.7413793,31.0114286 L19.5517241,37.8 L21.5689655,37.3371429 L15.5172414,29.16 Z M38.4827586,29.16 L32.4310345,37.3371429 L34.4482759,37.8 L39.2586207,31.0114286 L38.4827586,29.16 Z M28.7068966,7.09714286 L31.6551724,35.64 L37.7068966,27.4628571 L28.7068966,7.09714286 Z M25.2931034,7.09714286 L16.2931034,27.6171429 L22.1896552,35.64 L25.2931034,7.09714286 Z M24.2068966,5.86285714 L11.637931,21.1371429 L15.2068966,26.0742857 L24.2068966,5.86285714 Z M29.7931034,5.86285714 L38.7931034,26.0742857 L42.362069,21.1371429 L29.7931034,5.86285714 Z"></path></clipPath><linearGradient id="i1" x1="26.9688103px" y1="1.59978857px" x2="26.9688103px" y2="51.0860057px" gradientUnits="userSpaceOnUse"><stop stop-color="#00F1FF" offset="0%"></stop><stop stop-color="#0076C1" offset="100%"></stop></linearGradient></defs><g clip-path="url(#i0)"><polygon points="0,0 54,0 54,50.9142857 0,50.9142857 0,0" stroke="none" fill="url(#i1)"></polygon></g></svg>