<?xml version="1.0" encoding="UTF-8"?>
<svg width="24px" height="23px" viewBox="0 0 24 23" version="1.1" xmlns="http://www.w3.org/2000/svg" xmlns:xlink="http://www.w3.org/1999/xlink">
    <title></title>
    <defs>
        <linearGradient x1="49.9422414%" y1="3.14212121%" x2="49.9422414%" y2="100.337273%" id="linearGradient-1">
            <stop stop-color="#00F1FF" offset="0%"></stop>
            <stop stop-color="#0076C1" offset="100%"></stop>
        </linearGradient>
    </defs>
    <g id="Icons" stroke="none" stroke-width="1" fill="none" fill-rule="evenodd">
        <g id="Icons-/-PatternFly-/-Medium-placeholder" fill="url(#linearGradient-1)" fill-rule="nonzero">
            <path d="M9.6091954,15.7485714 L7.2183908,16.2971429 L4,11.7714286 L11.816092,4.18285714 L12,4 L12.183908,4.18285714 L20,11.7714286 L16.7816092,16.2971429 L14.3908046,15.7485714 L12,19.0857143 L9.6091954,15.7485714 Z M12,18.3085714 L13.9310345,15.6571429 L13.3333333,15.52 L12.045977,17.3942857 L10.6666667,15.52 L10.0689655,15.6571429 L12,18.3085714 Z M12.045977,16.5714286 L12.9655172,15.2 L12,5.92 L11.0344828,15.2 L12.045977,16.5714286 Z M16.5517241,15.7485714 L19.3563218,11.8171429 L14.6206897,7.2 L17.1494253,10.2628571 L15.7241379,12.2285714 L16.183908,13.28 L14.7126437,15.3371429 L16.5517241,15.7485714 Z M7.40229885,15.7485714 L9.28735632,15.3371429 L7.81609195,13.28 L8.27586207,12.2285714 L6.85057471,10.2628571 L9.33333333,7.2 L4.59770115,11.8171429 L7.40229885,15.7485714 Z M9.79310345,15.2 L10.3908046,15.0628571 L8.59770115,12.64 L8.36781609,13.1885714 L9.79310345,15.2 Z M14.2068966,15.2 L15.6321839,13.1885714 L15.4022989,12.64 L13.6091954,15.0628571 L14.2068966,15.2 Z M13.3793103,14.56 L15.1724138,12.1371429 L12.5057471,6.10285714 L13.3793103,14.56 Z M10.5747126,14.56 L11.4942529,6.10285714 L8.82758621,12.1828571 L10.5747126,14.56 Z M8.50574713,11.7257143 L11.1724138,5.73714286 L7.44827586,10.2628571 L8.50574713,11.7257143 Z M15.4942529,11.7257143 L16.5517241,10.2628571 L12.8275862,5.73714286 L15.4942529,11.7257143 Z" id="pf-shape"></path>
        </g>
    </g>
</svg>