<?xml version="1.0" encoding="UTF-8"?><svg version="1.1" width="24px" height="23px" viewBox="0 0 24.0 23.0" xmlns="http://www.w3.org/2000/svg" xmlns:xlink="http://www.w3.org/1999/xlink"><defs><clipPath id="i0"><path d="M6,0 L6.13793103,0.137142857 L12,5.82857143 L9.5862069,9.22285714 L7.79310345,8.81142857 L6,11.3142857 L4.20689655,8.81142857 L2.4137931,9.22285714 L0,5.82857143 L5.86206897,0.137142857 L6,0 Z M7,8.64 L6.03448276,10.0457143 L5,8.64 L4.55172414,8.74285714 L6,10.7314286 L7.44827586,8.74285714 L7,8.64 Z M6,1.44 L5.27586207,8.4 L6.03448276,9.42857143 L6.72413793,8.4 L6,1.44 Z M7.96551724,2.4 L9.86206897,4.69714286 L8.79310345,6.17142857 L9.13793103,6.96 L8.03448276,8.50285714 L9.4137931,8.81142857 L11.5172414,5.86285714 L7.96551724,2.4 Z M4,2.4 L0.448275862,5.86285714 L2.55172414,8.81142857 L3.96551724,8.50285714 L2.86206897,6.96 L3.20689655,6.17142857 L2.13793103,4.69714286 L4,2.4 Z M3.44827586,6.48 L3.27586207,6.89142857 L4.34482759,8.4 L4.79310345,8.29714286 L3.44827586,6.48 Z M8.55172414,6.48 L7.20689655,8.29714286 L7.65517241,8.4 L8.72413793,6.89142857 L8.55172414,6.48 Z M6.37931034,1.57714286 L7.03448276,7.92 L8.37931034,6.10285714 L6.37931034,1.57714286 Z M5.62068966,1.57714286 L3.62068966,6.13714286 L4.93103448,7.92 L5.62068966,1.57714286 Z M5.37931034,1.30285714 L2.5862069,4.69714286 L3.37931034,5.79428571 L5.37931034,1.30285714 Z M6.62068966,1.30285714 L8.62068966,5.79428571 L9.4137931,4.69714286 L6.62068966,1.30285714 Z"></path></clipPath><linearGradient id="i1" x1="5.99306897px" y1="0.355508571px" x2="5.99306897px" y2="11.3524457px" gradientUnits="userSpaceOnUse"><stop stop-color="#00F1FF" offset="0%"></stop><stop stop-color="#0076C1" offset="100%"></stop></linearGradient></defs><g transform="translate(6.0 6.0)"><g clip-path="url(#i0)"><polygon points="0,0 12,0 12,11.3142857 0,11.3142857 0,0" stroke="none" fill="url(#i1)"></polygon></g></g></svg>