<?xml version="1.0" encoding="UTF-8"?>
<svg width="24px" height="23px" viewBox="0 0 24 23" version="1.1" xmlns="http://www.w3.org/2000/svg" xmlns:xlink="http://www.w3.org/1999/xlink">
    <title></title>
    <defs>
        <linearGradient x1="49.9422414%" y1="3.14212121%" x2="49.9422414%" y2="100.337273%" id="linearGradient-1">
            <stop stop-color="#00F1FF" offset="0%"></stop>
            <stop stop-color="#0076C1" offset="100%"></stop>
        </linearGradient>
    </defs>
    <g id="Icons" stroke="none" stroke-width="1" fill="none" fill-rule="evenodd">
        <g id="Icons-/-PatternFly-/-Small-placeholder" fill="url(#linearGradient-1)" fill-rule="nonzero">
            <path d="M10.2068966,14.8114286 L8.4137931,15.2228571 L6,11.8285714 L11.862069,6.13714286 L12,6 L12.137931,6.13714286 L18,11.8285714 L15.5862069,15.2228571 L13.7931034,14.8114286 L12,17.3142857 L10.2068966,14.8114286 Z M12,16.7314286 L13.4482759,14.7428571 L13,14.64 L12.0344828,16.0457143 L11,14.64 L10.5517241,14.7428571 L12,16.7314286 Z M12.0344828,15.4285714 L12.7241379,14.4 L12,7.44 L11.2758621,14.4 L12.0344828,15.4285714 Z M15.4137931,14.8114286 L17.5172414,11.8628571 L13.9655172,8.4 L15.862069,10.6971429 L14.7931034,12.1714286 L15.137931,12.96 L14.0344828,14.5028571 L15.4137931,14.8114286 Z M8.55172414,14.8114286 L9.96551724,14.5028571 L8.86206897,12.96 L9.20689655,12.1714286 L8.13793103,10.6971429 L10,8.4 L6.44827586,11.8628571 L8.55172414,14.8114286 Z M10.3448276,14.4 L10.7931034,14.2971429 L9.44827586,12.48 L9.27586207,12.8914286 L10.3448276,14.4 Z M13.6551724,14.4 L14.7241379,12.8914286 L14.5517241,12.48 L13.2068966,14.2971429 L13.6551724,14.4 Z M13.0344828,13.92 L14.3793103,12.1028571 L12.3793103,7.57714286 L13.0344828,13.92 Z M10.9310345,13.92 L11.6206897,7.57714286 L9.62068966,12.1371429 L10.9310345,13.92 Z M9.37931034,11.7942857 L11.3793103,7.30285714 L8.5862069,10.6971429 L9.37931034,11.7942857 Z M14.6206897,11.7942857 L15.4137931,10.6971429 L12.6206897,7.30285714 L14.6206897,11.7942857 Z" id="pf-shape"></path>
        </g>
    </g>
</svg>