<?xml version="1.0" encoding="UTF-8"?>
<svg width="24px" height="24px" viewBox="0 0 24 24" version="1.1" xmlns="http://www.w3.org/2000/svg" xmlns:xlink="http://www.w3.org/1999/xlink">
    <title></title>
    <g id="Icons" stroke="none" stroke-width="1" fill="none" fill-rule="evenodd">
        <g id="Icons/1.-Size-md/Object/clipboard-check" fill="#151515">
            <path d="M16.499975,19.9999619 C17.328098,19.9999619 17.9999714,19.3280885 17.9999714,18.4999654 L17.9999714,7.5 C17.9999714,6.67186863 17.328098,6 16.499975,6 L13.9999809,6 C13.9999809,4.89687897 13.103102,4 11.9999857,4 C10.8968694,4 10,4.89687897 10,6 L7.5,6 C6.6718734,6 6,6.67186863 6,7.5 L6,18.4999654 C6,19.3280885 6.6718734,19.9999619 7.5,19.9999619 L16.499975,19.9999619 Z M11.9999857,6.74999702 C11.5843678,6.74999702 11.2499875,6.41561314 11.2499875,5.99999523 C11.2499875,5.58437733 11.5843678,5.24999702 11.9999857,5.24999702 C12.4156036,5.24999702 12.7499875,5.58437733 12.7499875,5.99999523 C12.7499875,6.41561314 12.4156036,6.74999702 11.9999857,6.74999702 Z M10.7874947,16.9218442 L8.20623253,14.3187315 C8.0593823,14.1718507 8.06249508,13.9343635 8.20937584,13.7874828 L9.09685541,12.9062288 C9.24373616,12.759348 9.48125391,12.7624913 9.62810414,12.9093416 L11.0656007,14.3593503 L14.3780928,11.071852 C14.5249736,10.9249713 14.7624913,10.9281146 14.9093416,11.0749953 L15.7905956,11.9624749 C15.9374763,12.1124685 15.9343635,12.3468429 15.7874828,12.4937236 L11.3187434,16.924957 C11.1718627,17.0718377 10.9343754,17.0687249 10.7874947,16.9218442 Z" id="clipboard-check"></path>
        </g>
    </g>
</svg>