<?xml version="1.0" encoding="UTF-8"?><svg version="1.1" width="24px" height="24px" viewBox="0 0 24.0 24.0" xmlns="http://www.w3.org/2000/svg" xmlns:xlink="http://www.w3.org/1999/xlink"><defs><clipPath id="i0"><path d="M5.99998569,0 C7.10310196,0 7.99998093,0.896878965 7.99998093,2 L10.499975,2 C11.328098,2 11.9999714,2.67186863 11.9999714,3.5 L11.9999714,14.4999654 C11.9999714,15.3280885 11.328098,15.9999619 10.499975,15.9999619 L1.5,15.9999619 C0.671873398,15.9999619 0,15.3280885 0,14.4999654 L0,3.5 C0,2.67186863 0.671873398,2 1.5,2 L4,2 C4,0.896878965 4.89686943,0 5.99998569,0 Z M8.90934155,7.07499534 C8.76249132,6.92811459 8.52497357,6.92497128 8.37809282,7.07185204 L5.06560072,10.3593503 L3.62810414,8.90934155 C3.48125391,8.76249132 3.24373616,8.75934801 3.09685541,8.90622877 L2.20937584,9.78748277 C2.06249508,9.93436352 2.0593823,10.1718507 2.20623253,10.3187315 L4.78749469,12.9218442 C4.93437544,13.0687249 5.17186267,13.0718377 5.31874342,12.924957 L9.78748277,8.49372365 C9.93436352,8.34684289 9.93747631,8.11246845 9.79059555,7.96247491 Z M5.99998569,1.24999702 C5.58436779,1.24999702 5.24998748,1.58437733 5.24998748,1.99999523 C5.24998748,2.41561314 5.58436779,2.74999702 5.99998569,2.74999702 C6.4156036,2.74999702 6.74998748,2.41561314 6.74998748,1.99999523 C6.74998748,1.58437733 6.4156036,1.24999702 5.99998569,1.24999702 Z"></path></clipPath></defs><g transform="translate(5.999999999999999 4.0)"><g clip-path="url(#i0)"><polygon points="0,0 11.9999714,0 11.9999714,15.9999619 0,15.9999619 0,0" stroke="none" fill="#151515"></polygon></g></g></svg>