<?xml version="1.0" encoding="UTF-8"?><svg version="1.1" width="24px" height="24px" viewBox="0 0 24.0 24.0" xmlns="http://www.w3.org/2000/svg" xmlns:xlink="http://www.w3.org/1999/xlink"><defs><clipPath id="i0"><path d="M2.5,0 C3.88124685,0 4.99998808,1.11874123 4.99998808,2.5 C4.99998808,3.61873527 4.26561483,4.56560191 3.24999225,4.88435725 L3.24999225,9.38434652 C3.99687768,9.02497238 4.90935109,8.93747869 5.79060509,8.85624109 C6.91248962,8.75309192 7.97184379,8.65311658 8.45310485,8.0531119 C8.66559824,7.79060032 8.77811628,7.40311956 8.79685403,6.89997745 C7.7593504,6.59684706 6.99998331,5.63749877 6.99998331,4.49998927 C6.99998331,3.11873646 8.11872454,2 9.49997735,2 C10.8812302,2 11.9999714,3.11873646 11.9999714,4.49998927 C11.9999714,5.59999275 11.2874792,6.53434721 10.2999632,6.87187082 C10.2843383,7.74998152 10.062476,8.44999206 9.62497705,8.99372245 C8.74372305,10.0874698 7.24998271,10.2280945 5.93122976,10.3499814 C5.12810057,10.4249629 4.37187678,10.4937189 3.86562189,10.7499744 C3.64372911,10.8624619 3.49687887,11.0062299 3.39998579,11.1687356 C4.33748356,11.5281097 4.99998808,12.4374703 4.99998808,13.4999678 C4.99998808,14.8812206 3.88124685,15.9999619 2.5,15.9999619 C1.11874123,15.9999619 0,14.8812206 0,13.4999678 C0,12.3812266 0.734373249,11.4343599 1.74999583,11.1124613 L1.74999583,4.88435725 C0.734373249,4.56560191 0,3.61873527 0,2.5 C0,1.11874123 1.11874123,0 2.5,0 Z M2.49999404,12.9999678 C2.2250008,12.9999678 1.99999404,13.2249746 1.99999404,13.4999678 C1.99999404,13.7749611 2.2250008,13.9999678 2.49999404,13.9999678 C2.77498728,13.9999678 2.99999404,13.7749611 2.99999404,13.4999678 C2.99999404,13.2249746 2.77498728,12.9999678 2.49999404,12.9999678 Z M9.49997735,3.99998927 C9.22498411,3.99998927 8.99997735,4.22499603 8.99997735,4.49998927 C8.99997735,4.77498251 9.22498411,4.99998927 9.49997735,4.99998927 C9.77497059,4.99998927 9.99997735,4.77498251 9.99997735,4.49998927 C9.99997735,4.22499603 9.77497059,3.99998927 9.49997735,3.99998927 Z M2.49999404,1.99999404 C2.2250008,1.99999404 1.99999404,2.2250008 1.99999404,2.49999404 C1.99999404,2.77498728 2.2250008,2.99999404 2.49999404,2.99999404 C2.77498728,2.99999404 2.99999404,2.77498728 2.99999404,2.49999404 C2.99999404,2.2250008 2.77498728,1.99999404 2.49999404,1.99999404 Z"></path></clipPath></defs><g transform="translate(5.999999999999999 4.0)"><g clip-path="url(#i0)"><polygon points="0,0 11.9999714,0 11.9999714,15.9999619 0,15.9999619 0,0" stroke="none" fill="#151515"></polygon></g></g></svg>