<?xml version="1.0" encoding="UTF-8"?><svg version="1.1" width="24px" height="24px" viewBox="0 0 24.0 24.0" xmlns="http://www.w3.org/2000/svg" xmlns:xlink="http://www.w3.org/1999/xlink"><defs><clipPath id="i0"><path d="M7.60310077,0.0726469215 C7.85935626,-0.0242156405 8.14060559,-0.0242156405 8.39371778,0.0726469215 L11.5187103,1.24451913 C11.9593526,1.41013763 12.2499708,1.82889884 12.2499708,2.29764772 L12.2499708,5.68826464 L15.2687014,6.81951804 C15.7093436,6.98513654 15.9999619,7.40389775 15.9999619,7.87264664 L15.9999619,11.3132512 C15.9999619,11.738238 15.7593313,12.1288621 15.3780761,12.3195049 L12.2530836,13.8820012 C11.9374715,14.0413636 11.5624724,14.0413636 11.2468604,13.8820012 L7.99998093,12.2570051 L4.75310146,13.8820012 C4.43748942,14.0413636 4.06249031,14.0413636 3.74687827,13.8820012 L0.621885724,12.3195049 C0.24063053,12.1288621 0,11.738238 0,11.3132512 L0,7.87264664 C0,7.40389775 0.290618204,6.98513654 0.728117161,6.81951804 L3.74687827,5.68826464 L3.74687827,2.29764772 C3.74687827,1.82889884 4.03749648,1.41013763 4.47810822,1.24451913 Z M7.43748227,8.99450065 L4.7812386,10.2069917 L4.7812386,12.6788791 L7.43748227,11.3507572 L7.43748227,8.99450065 Z M14.9374644,8.99450065 L12.2812207,10.2069917 L12.2812207,12.6788791 L14.9374644,11.3507572 L14.9374644,8.99450065 Z M4.24998987,6.63827458 L1.06249747,7.83199732 L1.06249747,7.85076558 L4.24998987,9.14449419 L7.43748227,7.85076558 L7.43748227,7.83199732 L4.24998987,6.63827458 Z M11.749972,6.63827458 L8.56247959,7.83199732 L8.56247959,7.85076558 L11.749972,9.14449419 L14.9374644,7.85076558 L14.9374644,7.83199732 L11.749972,6.63827458 Z M11.1874733,3.42264504 L8.53122966,4.57889228 L8.53122966,6.7101433 L11.1874733,5.71325847 L11.1874733,3.42264504 Z M7.99998093,1.06016288 L4.81248853,2.25388562 L4.81248853,2.27265388 L7.99998093,3.56638249 L11.1874733,2.27265388 L11.1874733,2.25388562 L7.99998093,1.06016288 Z"></path></clipPath></defs><g transform="translate(4.0 5.000000000000001)"><g clip-path="url(#i0)"><polygon points="0,0 15.9999619,0 15.9999619,14.001523 0,14.001523 0,0" stroke="none" fill="#151515"></polygon></g></g></svg>