<?xml version="1.0" encoding="UTF-8"?><svg version="1.1" width="24px" height="24px" viewBox="0 0 24.0 24.0" xmlns="http://www.w3.org/2000/svg" xmlns:xlink="http://www.w3.org/1999/xlink"><defs><clipPath id="i0"><path d="M13.9999666,10.499975 L13.9999666,13.7142617 C13.9999666,14.9731699 10.8645676,15.9999619 6.99998331,15.9999619 C3.13539902,15.9999619 0,14.9731699 0,13.7142617 L0,10.499975 C1.50390266,11.5356781 4.2564901,12.0178546 6.99998331,12.0178546 C9.74347653,12.0178546 12.4960334,11.5356781 13.9999666,10.499975 Z M13.9999666,5.49998689 L13.9999666,8.71427366 C13.9999666,9.97318179 10.8645676,10.9999738 6.99998331,10.9999738 C3.13539902,10.9999738 0,9.97318179 0,8.71427366 L0,5.49998689 C1.50390266,6.53568998 4.2564901,7.01786657 6.99998331,7.01786657 C9.74347653,7.01786657 12.4960334,6.53568998 13.9999666,5.49998689 Z M6.99998331,0 C10.8645676,0 13.9999666,1.02679199 13.9999666,2.28570012 L13.9999666,3.71428558 C13.9999666,4.97319371 10.8645676,5.99998569 6.99998331,5.99998569 C3.13539902,5.99998569 0,4.97319371 0,3.71428558 L0,2.28570012 C0,1.02679199 3.13539902,0 6.99998331,0 Z"></path></clipPath></defs><g transform="translate(5.0 4.0)"><g clip-path="url(#i0)"><polygon points="0,0 13.9999666,0 13.9999666,15.9999619 0,15.9999619 0,0" stroke="none" fill="#151515"></polygon></g></g></svg>