<?xml version="1.0" encoding="UTF-8"?>
<svg width="24px" height="24px" viewBox="0 0 24 24" version="1.1" xmlns="http://www.w3.org/2000/svg" xmlns:xlink="http://www.w3.org/1999/xlink">
    <title></title>
    <g id="Icons" stroke="none" stroke-width="1" fill="none" fill-rule="evenodd">
        <g id="Icons/1.-Size-md/Object/database" fill="#151515">
            <path d="M11.9999833,9.99998569 C15.8645676,9.99998569 18.9999666,8.97319371 18.9999666,7.71428558 L18.9999666,6.28570012 C18.9999666,5.02679199 15.8645676,4 11.9999833,4 C8.13539902,4 5,5.02679199 5,6.28570012 L5,7.71428558 C5,8.97319371 8.13539902,9.99998569 11.9999833,9.99998569 Z M11.9999833,14.9999738 C15.8645676,14.9999738 18.9999666,13.9731818 18.9999666,12.7142737 L18.9999666,9.49998689 C17.4960334,10.53569 14.7434765,11.0178666 11.9999833,11.0178666 C9.2564901,11.0178666 6.50390266,10.53569 5,9.49998689 L5,12.7142737 C5,13.9731818 8.13539902,14.9999738 11.9999833,14.9999738 Z M11.9999833,19.9999619 C15.8645676,19.9999619 18.9999666,18.9731699 18.9999666,17.7142617 L18.9999666,14.499975 C17.4960334,15.5356781 14.7434765,16.0178546 11.9999833,16.0178546 C9.2564901,16.0178546 6.50390266,15.5356781 5,14.499975 L5,17.7142617 C5,18.9731699 8.13539902,19.9999619 11.9999833,19.9999619 Z" id="database"></path>
        </g>
    </g>
</svg>