<?xml version="1.0" encoding="UTF-8"?><svg version="1.1" width="24px" height="24px" viewBox="0 0 24.0 24.0" xmlns="http://www.w3.org/2000/svg" xmlns:xlink="http://www.w3.org/1999/xlink"><defs><clipPath id="i0"><path d="M16.4999607,0 C17.3280837,0 17.9999571,0.671873398 17.9999571,1.5 L17.9999571,11.4999726 C17.9999571,12.3280956 17.3280837,12.999969 16.4999607,12.999969 L10.499975,12.999969 L10.9999738,14.4999654 L13.2499684,14.4999654 C13.6655863,14.4999654 13.9999666,14.8343457 13.9999666,15.2499636 C13.9999666,15.6655815 13.6655863,15.9999619 13.2499684,15.9999619 L4.74998868,15.9999619 C4.33437077,15.9999619 4,15.6655815 4,15.2499636 C4,14.8343457 4.33437077,14.4999654 4.74998868,14.4999654 L6.99998331,14.4999654 L7.49998212,12.999969 L1.5,12.999969 C0.671873398,12.999969 0,12.3280956 0,11.4999726 L0,1.5 C0,0.671873398 0.671873398,0 1.5,0 Z M15.9999619,1.99999523 L1.99999523,1.99999523 L1.99999523,10.9999738 L15.9999619,10.9999738 L15.9999619,1.99999523 Z"></path></clipPath></defs><g transform="translate(3.0 4.0)"><g clip-path="url(#i0)"><polygon points="0,0 17.9999571,0 17.9999571,15.9999619 0,15.9999619 0,0" stroke="none" fill="#151515"></polygon></g></g></svg>