<?xml version="1.0" encoding="UTF-8"?><svg version="1.1" width="24px" height="24px" viewBox="0 0 24.0 24.0" xmlns="http://www.w3.org/2000/svg" xmlns:xlink="http://www.w3.org/1999/xlink"><defs><clipPath id="i0"><path d="M16.4999607,5.99998569 C17.3283889,5.99998569 17.9999571,6.67155392 17.9999571,7.49998569 L17.9999571,10.499975 C17.9999571,11.3284032 17.3283889,11.9999714 16.4999607,11.9999714 L1.5,11.9999714 C0.671568223,11.9999714 0,11.3284032 0,10.499975 L0,7.49998569 C0,6.67155392 0.671568223,5.99998569 1.5,5.99998569 Z M14.9999666,7.99998093 C14.4476889,7.99998093 13.9999666,8.44770325 13.9999666,8.99998093 C13.9999666,9.55225384 14.4476889,9.99998093 14.9999666,9.99998093 C15.5522395,9.99998093 15.9999666,9.55225384 15.9999666,8.99998093 C15.9999666,8.44770325 15.5522395,7.99998093 14.9999666,7.99998093 Z M11.9999738,7.99998093 C11.4476961,7.99998093 10.9999738,8.44770325 10.9999738,8.99998093 C10.9999738,9.55225384 11.4476961,9.99998093 11.9999738,9.99998093 C12.5522467,9.99998093 12.9999738,9.55225384 12.9999738,8.99998093 C12.9999738,8.44770325 12.5522467,7.99998093 11.9999738,7.99998093 Z M13.1971731,0 C13.6403178,0 14.1994596,0.299254658 14.4452781,0.66793664 L17.4617504,5.19264509 C17.2075701,5.08629158 16.77767,4.99998808 16.5021274,4.99998808 L1.49782968,4.99998808 C1.22228712,4.99998808 0.792387027,5.08629158 0.538206725,5.19264509 L3.55470954,0.66793664 C3.80052805,0.29922414 4.35963926,0 4.80278396,0 Z"></path></clipPath></defs><g transform="translate(3.0 5.999999999999999)"><g clip-path="url(#i0)"><polygon points="0,0 17.9999571,0 17.9999571,11.9999714 0,11.9999714 0,0" stroke="none" fill="#151515"></polygon></g></g></svg>