<?xml version="1.0" encoding="UTF-8"?>
<svg width="24px" height="24px" viewBox="0 0 24 24" version="1.1" xmlns="http://www.w3.org/2000/svg" xmlns:xlink="http://www.w3.org/1999/xlink">
    <title></title>
    <g id="Icons" stroke="none" stroke-width="1" fill="none" fill-rule="evenodd">
        <g id="Icons/1.-Size-md/Object/hdd" fill="#151515">
            <path d="M20.4617504,11.1926451 L17.4452781,6.66793664 C17.1994596,6.29925466 16.6403178,6 16.1971731,6 L7.80278396,6 C7.35963926,6 6.80052805,6.29922414 6.55470954,6.66793664 L3.53820672,11.1926451 C3.79238703,11.0862916 4.22228712,10.9999881 4.49782968,10.9999881 L19.5021274,10.9999881 C19.77767,10.9999881 20.2075701,11.0862916 20.4617504,11.1926451 Z M19.4999607,17.9999714 C20.3283889,17.9999714 20.9999571,17.3284032 20.9999571,16.499975 L20.9999571,13.4999857 C20.9999571,12.6715539 20.3283889,11.9999857 19.4999607,11.9999857 L4.5,11.9999857 C3.67156822,11.9999857 3,12.6715539 3,13.4999857 L3,16.499975 C3,17.3284032 3.67156822,17.9999714 4.5,17.9999714 L19.4999607,17.9999714 Z M17.9999666,15.9999809 C17.4476889,15.9999809 16.9999666,15.5522538 16.9999666,14.9999809 C16.9999666,14.4477032 17.4476889,13.9999809 17.9999666,13.9999809 C18.5522395,13.9999809 18.9999666,14.4477032 18.9999666,14.9999809 C18.9999666,15.5522538 18.5522395,15.9999809 17.9999666,15.9999809 Z M14.9999738,15.9999809 C14.4476961,15.9999809 13.9999738,15.5522538 13.9999738,14.9999809 C13.9999738,14.4477032 14.4476961,13.9999809 14.9999738,13.9999809 C15.5522467,13.9999809 15.9999738,14.4477032 15.9999738,14.9999809 C15.9999738,15.5522538 15.5522467,15.9999809 14.9999738,15.9999809 Z" id="hdd"></path>
        </g>
    </g>
</svg>