<?xml version="1.0" encoding="UTF-8"?><svg version="1.1" width="24px" height="24px" viewBox="0 0 24.0 24.0" xmlns="http://www.w3.org/2000/svg" xmlns:xlink="http://www.w3.org/1999/xlink"><defs><clipPath id="i0"><path d="M10.4999444,0 C13.5464765,0 15.9999619,2.45345484 15.9999619,5.5000174 C15.9999619,8.5375773 13.5375349,10.9999738 10.499975,10.9999738 C10.1493593,10.9999738 9.80652569,10.9668012 9.47412902,10.9040573 L8.7237646,11.748263 C8.60026026,11.8872092 8.34913171,11.9999714 8.16321906,11.9999714 L6.99998331,11.9999714 L6.99998331,13.2499684 C6.99998331,13.6641825 6.6641992,13.9999666 6.2499851,13.9999666 L4.99998808,13.9999666 L4.99998808,15.2499636 C4.99998808,15.6641777 4.66420397,15.9999619 4.24998987,15.9999619 L0.749998212,15.9999619 C0.335784112,15.9999619 0,15.6641777 0,15.2499636 L0,12.8106384 C0,12.6117253 0.0790403389,12.4209299 0.219665004,12.2802747 L5.27595788,7.2239818 C5.0971253,6.68168573 4.99998808,6.10221934 4.99998808,5.49998689 C4.99998808,2.46242699 7.46238455,0 10.4999444,0 Z M11.999975,2.49999404 C11.1715432,2.49999404 10.499975,3.17156226 10.499975,3.99999404 C10.499975,4.82841866 11.1715432,5.49999404 11.999975,5.49999404 C12.8283996,5.49999404 13.499975,4.82841866 13.499975,3.99999404 C13.499975,3.17156226 12.8283996,2.49999404 11.999975,2.49999404 Z"></path></clipPath></defs><g transform="translate(4.0 4.0)"><g clip-path="url(#i0)"><polygon points="0,0 15.9999619,0 15.9999619,15.9999619 0,15.9999619 0,0" stroke="none" fill="#151515"></polygon></g></g></svg>