<?xml version="1.0" encoding="UTF-8"?>
<svg width="24px" height="24px" viewBox="0 0 24 24" version="1.1" xmlns="http://www.w3.org/2000/svg" xmlns:xlink="http://www.w3.org/1999/xlink">
    <title></title>
    <g id="Icons" stroke="none" stroke-width="1" fill="none" fill-rule="evenodd">
        <g id="Icons/1.-Size-md/Object/key" fill="#151515">
            <path d="M8.24998987,19.9999619 C8.66420397,19.9999619 8.99998808,19.6641777 8.99998808,19.2499636 L8.99998808,17.9999666 L10.2499851,17.9999666 C10.6641992,17.9999666 10.9999833,17.6641825 10.9999833,17.2499684 L10.9999833,15.9999714 L12.1632191,15.9999714 C12.3491317,15.9999714 12.6002603,15.8872092 12.7237646,15.748263 L13.474129,14.9040573 C13.8065257,14.9668012 14.1493593,14.9999738 14.499975,14.9999738 C17.5375349,14.9999738 19.9999619,12.5375773 19.9999619,9.5000174 C19.9999619,6.45345484 17.5464765,4 14.4999444,4 C11.4623846,4 8.99998808,6.46242699 8.99998808,9.49998689 C8.99998808,10.1022193 9.0971253,10.6816857 9.27595788,11.2239818 L4.219665,16.2802747 C4.07904034,16.4209299 4,16.6117253 4,16.8106384 L4,19.2499636 C4,19.6641777 4.33578411,19.9999619 4.74999821,19.9999619 L8.24998987,19.9999619 Z M15.999975,9.49999404 C15.1715432,9.49999404 14.499975,8.82841866 14.499975,7.99999404 C14.499975,7.17156226 15.1715432,6.49999404 15.999975,6.49999404 C16.8283996,6.49999404 17.499975,7.17156226 17.499975,7.99999404 C17.499975,8.82841866 16.8283996,9.49999404 15.999975,9.49999404 Z" id="key"></path>
        </g>
    </g>
</svg>