<?xml version="1.0" encoding="UTF-8"?><svg version="1.1" width="24px" height="24px" viewBox="0 0 24.0 24.0" xmlns="http://www.w3.org/2000/svg" xmlns:xlink="http://www.w3.org/1999/xlink"><defs><clipPath id="i0"><path d="M19.9999523,8.99997854 L19.9999523,11.9999785 L17.9999571,11.9999785 L17.9999571,11.1665383 C17.9999571,10.8902939 17.7762027,10.6665395 17.4999583,10.6665395 C17.2237138,10.6665395 16.9999595,10.8902939 16.9999595,11.1665383 L16.9999595,11.9999785 L12.999969,11.9999785 L12.999969,11.1665383 C12.999969,10.8902939 12.7762147,10.6665395 12.4999702,10.6665395 C12.2237257,10.6665395 11.9999714,10.8902939 11.9999714,11.1665383 L11.9999714,11.9999785 L7.99998093,11.9999785 L7.99998093,11.1665383 C7.99998093,10.8902939 7.77622658,10.6665395 7.49998212,10.6665395 C7.22373766,10.6665395 6.99998331,10.8902939 6.99998331,11.1665383 L6.99998331,11.9999785 L3,11.9999785 L3,11.1665383 C3,10.8902939 2.7762385,10.6665395 2.5,10.6665395 C2.22374958,10.6665395 2,10.8902939 2,11.1665383 L2,11.9999785 L0,11.9999785 L0,8.99997854 L19.9999523,8.99997854 Z M18.9999547,0 C19.5521384,0 19.9999523,0.447813874 19.9999523,1 L19.9999523,2.09188344 C19.4187159,2.29842592 18.9999547,2.84780205 18.9999547,3.5 C18.9999547,4.15218126 19.4187159,4.70155739 19.9999523,4.90809987 L19.9999523,7.99998093 L0,7.99998093 L0,4.90809987 C0.581236407,4.70155739 1,4.15218126 1,3.5 C1,2.84780205 0.581236407,2.29842592 0,2.09188344 L0,1 C0,0.447813874 0.447813874,0 1,0 Z M6.99998808,1.99999523 L4.99998808,1.99999523 L4.99998808,5.99999523 L6.99998808,5.99999523 L6.99998808,1.99999523 Z M10.9999785,1.99999523 L8.99997854,1.99999523 L8.99997854,5.99999523 L10.9999785,5.99999523 L10.9999785,1.99999523 Z M14.999969,1.99999523 L12.999969,1.99999523 L12.999969,5.99999523 L14.999969,5.99999523 L14.999969,1.99999523 Z"></path></clipPath></defs><g transform="translate(2.0 5.999999999999999)"><g clip-path="url(#i0)"><polygon points="0,0 19.9999523,0 19.9999523,11.9999785 0,11.9999785 0,0" stroke="none" fill="#151515"></polygon></g></g></svg>