<?xml version="1.0" encoding="UTF-8"?><svg version="1.1" width="24px" height="24px" viewBox="0 0 24.0 24.0" xmlns="http://www.w3.org/2000/svg" xmlns:xlink="http://www.w3.org/1999/xlink"><defs><clipPath id="i0"><path d="M11.4999726,0 C12.3284008,0 12.999969,0.671568223 12.999969,1.5 L12.999969,14.4999654 C12.999969,15.3283936 12.3284008,15.9999619 11.4999726,15.9999619 L4.49999285,15.9999619 C3.67156107,15.9999619 2.99999285,15.3283936 2.99999285,14.4999654 L2.99999285,1.5 C2.99999285,0.671568223 3.67156107,0 4.49999285,0 Z M15.0624641,11.749972 C15.1659489,11.749972 15.2499672,11.8339867 15.2499672,11.9374715 L15.2499672,12.1249711 L15.8124623,12.1249711 C15.9159472,12.1249711 15.9999619,12.2089858 15.9999619,12.3124706 L15.9999619,12.6874698 C15.9999619,12.7909546 15.9159472,12.8749693 15.8124623,12.8749693 L15.2499672,12.8749693 L15.2499672,13.0624689 C15.2499672,13.1659537 15.1659489,13.249972 15.0624641,13.249972 L13.7499672,13.249972 L13.7499672,11.749972 Z M2.24999464,11.749972 L2.24999464,13.249972 L0.937497765,13.249972 C0.834012904,13.249972 0.749998212,13.1659537 0.749998212,13.0624689 L0.749998212,12.8749693 L0.187499553,12.8749693 C0.0840146923,12.8749693 0,12.7909546 0,12.6874698 L0,12.3124706 C0,12.2089858 0.0840146923,12.1249711 0.187499553,12.1249711 L0.749998212,12.1249711 L0.749998212,11.9374715 C0.749998212,11.8339867 0.834012904,11.749972 0.937497765,11.749972 L2.24999464,11.749972 Z M15.0624641,8.74997914 C15.1659489,8.74997914 15.2499672,8.83399383 15.2499672,8.93747869 L15.2499672,9.12497824 L15.8124623,9.12497824 C15.9159472,9.12497824 15.9999619,9.20899294 15.9999619,9.3124778 L15.9999619,9.6874769 C15.9999619,9.79096176 15.9159472,9.87497646 15.8124623,9.87497646 L15.2499672,9.87497646 L15.2499672,10.062476 C15.2499672,10.1659609 15.1659489,10.2499791 15.0624641,10.2499791 L13.7499672,10.2499791 L13.7499672,8.74997914 Z M2.24999464,8.74997914 L2.24999464,10.2499791 L0.937497765,10.2499791 C0.834012904,10.2499791 0.749998212,10.1659609 0.749998212,10.062476 L0.749998212,9.87497646 L0.187499553,9.87497646 C0.0840146923,9.87497646 0,9.79096176 0,9.6874769 L0,9.3124778 C0,9.20899294 0.0840146923,9.12497824 0.187499553,9.12497824 L0.749998212,9.12497824 L0.749998212,8.93747869 C0.749998212,8.83399383 0.834012904,8.74997914 0.937497765,8.74997914 L2.24999464,8.74997914 Z M15.0624641,5.74998629 C15.1659489,5.74998629 15.2499672,5.83400098 15.2499672,5.93748584 L15.2499672,6.1249854 L15.8124623,6.1249854 C15.9159472,6.1249854 15.9999619,6.20900009 15.9999619,6.31248495 L15.9999619,6.68748406 C15.9999619,6.79096892 15.9159472,6.87498361 15.8124623,6.87498361 L15.2499672,6.87498361 L15.2499672,7.06248316 C15.2499672,7.16596802 15.1659489,7.24998629 15.0624641,7.24998629 L13.7499672,7.24998629 L13.7499672,5.74998629 Z M2.24999464,5.74998629 L2.24999464,7.24998629 L0.937497765,7.24998629 C0.834012904,7.24998629 0.749998212,7.16596802 0.749998212,7.06248316 L0.749998212,6.87498361 L0.187499553,6.87498361 C0.0840146923,6.87498361 0,6.79096892 0,6.68748406 L0,6.31248495 C0,6.20900009 0.0840146923,6.1249854 0.187499553,6.1249854 L0.749998212,6.1249854 L0.749998212,5.93748584 C0.749998212,5.83400098 0.834012904,5.74998629 0.937497765,5.74998629 L2.24999464,5.74998629 Z M15.0624641,2.74999344 C15.1659489,2.74999344 15.2499672,2.83400814 15.2499672,2.937493 L15.2499672,3.12499255 L15.8124623,3.12499255 C15.9159472,3.12499255 15.9999619,3.20900724 15.9999619,3.3124921 L15.9999619,3.68749121 C15.9999619,3.79097607 15.9159472,3.87499076 15.8124623,3.87499076 L15.2499672,3.87499076 L15.2499672,4.06249031 C15.2499672,4.16597517 15.1659489,4.24999344 15.0624641,4.24999344 L13.7499672,4.24999344 L13.7499672,2.74999344 Z M2.24999464,2.74999344 L2.24999464,4.24999344 L0.937497765,4.24999344 C0.834012904,4.24999344 0.749998212,4.16597517 0.749998212,4.06249031 L0.749998212,3.87499076 L0.187499553,3.87499076 C0.0840146923,3.87499076 0,3.79097607 0,3.68749121 L0,3.3124921 C0,3.20900724 0.0840146923,3.12499255 0.187499553,3.12499255 L0.749998212,3.12499255 L0.749998212,2.937493 C0.749998212,2.83400814 0.834012904,2.74999344 0.937497765,2.74999344 L2.24999464,2.74999344 Z"></path></clipPath></defs><g transform="translate(4.0 4.0)"><g clip-path="url(#i0)"><polygon points="0,0 15.9999619,0 15.9999619,15.9999619 0,15.9999619 0,0" stroke="none" fill="#151515"></polygon></g></g></svg>