<?xml version="1.0" encoding="UTF-8"?><svg version="1.1" width="24px" height="24px" viewBox="0 0 24.0 24.0" xmlns="http://www.w3.org/2000/svg" xmlns:xlink="http://www.w3.org/1999/xlink"><defs><clipPath id="i0"><path d="M12,4.00001329 L12,15.5000133 C12,15.7765758 11.7765625,16.0000133 11.5,16.0000133 L0.5,16.0000133 C0.2234375,16.0000133 0,15.7765758 0,15.5000133 L0,4.50001329 C0,4.22345079 0.2234375,4.00001329 0.5,4.00001329 L12,4.00001329 Z M15.5,4.00001329 C15.7765625,4.00001329 16,4.22345079 16,4.50001329 L16,14.5000133 C16,14.7765758 15.7765625,15.0000133 15.5,15.0000133 L13,15.0000133 L13,4.00001329 Z M10,12.0000133 L5,12.0000133 L5,13.5000133 L10,13.5000133 L10,12.0000133 Z M10,9.00001329 L2,9.00001329 L2,10.5000133 L10,10.5000133 L10,9.00001329 Z M10,6.00001329 L7,6.00001329 L7,7.50001329 L10,7.50001329 L10,6.00001329 Z M8.75,4.41309506e-06 L11.75,3.00000441 L0.3453125,3.00000441 C0.16875,3.00157579 0,2.97501329 0,2.83126329 C0,2.68751329 0.01875,2.66720079 0.15,2.53907579 C0.15,2.53907579 0.533843316,2.15875895 0.993528465,1.70115352 L1.27597656,1.41973985 C1.32374674,1.37209988 1.37165934,1.32429308 1.41940635,1.27662247 L1.83634259,0.859446163 C2.18819444,0.506436905 2.4703125,0.220325794 2.525,0.156263294 C2.6609375,-0.00311170545 2.8984375,4.41309506e-06 2.8984375,4.41309506e-06 L8.75,4.41309506e-06 Z M13.1433289,0.000324573849 C13.18396,0.00250352892 13.3546875,0.0199351695 13.4859375,0.159388294 C13.6089844,0.295325794 14.8693359,1.56417345 15.4918213,2.19010118 L15.6732567,2.37249593 C15.6987467,2.39811442 15.7216593,2.42113959 15.7416901,2.44126695 L15.9034,2.60325079 C15.979,2.68020079 16,2.71595079 16,2.82970079 C16,2.97970079 15.8171875,2.99845079 15.6359375,2.99845079 L13,3.00001329 L10,1.32945525e-05 Z"></path></clipPath></defs><g transform="translate(4.0 4.0)"><g clip-path="url(#i0)"><polygon points="0,-2.45691224e-16 16,-2.45691224e-16 16,16.0000133 0,16.0000133 0,-2.45691224e-16" stroke="none" fill="#151515"></polygon></g></g></svg>