<?xml version="1.0" encoding="UTF-8"?><svg version="1.1" width="24px" height="24px" viewBox="0 0 24.0 24.0" xmlns="http://www.w3.org/2000/svg" xmlns:xlink="http://www.w3.org/1999/xlink"><defs><clipPath id="i0"><path d="M16,0 L16,11.2927941 L9.41176471,11.2927941 L9.41176471,12.2352941 L12.2352941,12.2435294 L12.2352941,13.1764706 L3.76470588,13.1764706 L3.76470588,12.2435294 L6.58823529,12.2352941 L6.58823529,11.2927941 L0,11.2927941 L0,0 L16,0 Z M14.1176471,1.88235294 L1.88235294,1.88235294 L1.88235294,9.41176471 L14.1176471,9.41176471 L14.1176471,1.88235294 Z M12.4754412,3.49205882 C12.7797059,3.79647059 12.7511765,4.21470588 12.4754412,4.49029412 L9.67647059,7.28970588 C9.40081016,7.56534801 8.95389572,7.56534801 8.67823529,7.28970588 L6.84779412,5.45941176 L4.49911765,7.80882353 C4.2228166,8.08066056 3.77900872,8.07885343 3.50493059,7.80477529 C3.23085246,7.53069716 3.22904532,7.08688928 3.50088235,6.81058824 L6.34867647,3.96205882 L6.35897059,3.95161765 C6.49135384,3.81920416 6.67092221,3.74481251 6.85816176,3.74481251 C7.04540132,3.74481251 7.22496969,3.81920416 7.35735294,3.95161765 L9.17647059,5.79220588 L11.4772059,3.49205882 C11.7529412,3.21632353 12.1711765,3.18764706 12.4754412,3.49205882 Z"></path></clipPath></defs><g transform="translate(4.0 5.00000000000003)"><g clip-path="url(#i0)"><polygon points="0,0 16,0 16,13.1764706 0,13.1764706 0,0" stroke="none" fill="#151515"></polygon></g></g></svg>