<?xml version="1.0" encoding="UTF-8"?><svg version="1.1" width="24px" height="24px" viewBox="0 0 24.0 24.0" xmlns="http://www.w3.org/2000/svg" xmlns:xlink="http://www.w3.org/1999/xlink"><defs><clipPath id="i0"><path d="M11.734375,2.18283412 C12.3234375,2.18283412 12.828125,2.39689662 13.2375,2.82345912 C13.6578125,3.24845912 13.8640625,3.76252162 13.8640625,4.36720912 C13.866643,4.78407804 13.7483268,5.19275718 13.5234375,5.54377162 C14.240625,5.71512579 14.8328125,6.09689662 15.3,6.68908412 C15.7666667,7.28179247 16,7.96095912 16,8.72658412 C16,9.63127162 15.690625,10.4015841 15.0640625,11.0422091 C14.4359375,11.6781466 13.6828125,12.0000216 12.8,12.0000216 L3.7328125,12.0000216 C2.70520833,11.99898 1.8265625,11.6250216 1.096875,10.8781466 C0.365625,10.13023 0,9.23127162 0,8.18127162 C0,7.43179247 0.197395833,6.74689662 0.5921875,6.12658412 C0.9875,5.50366747 1.50625,5.03908412 2.1484375,4.73283412 L8.4328125,9.64845912 C8.8328125,9.96095912 9.4203125,9.72189662 9.4875,9.21877162 L10.3640625,2.70158412 C10.7515625,2.35783412 11.2078125,2.18283412 11.734375,2.18283412 Z M6.4015625,7.14488319e-06 C7.278125,-0.00154087809 8.0734375,0.248459122 8.7875,0.750021622 C9.05824798,0.938477888 9.30717661,1.15648695 9.5296875,1.40002162 L8.6515625,7.92189662 C8.63552195,8.03805122 8.55871761,8.13681829 8.45009353,8.18097704 C8.34146944,8.22513581 8.21753673,8.207974 8.125,8.13595912 L2.209375,3.51095912 C2.36302083,2.66512579 2.7546875,1.92033412 3.384375,1.27658412 C4.21927083,0.423979966 5.225,-0.00154087809 6.4015625,7.14488319e-06 Z"></path></clipPath></defs><g transform="translate(4.0 6.0)"><g clip-path="url(#i0)"><polygon points="0,-1.22124533e-15 16,-1.22124533e-15 16,12.0000216 0,12.0000216 0,-1.22124533e-15" stroke="none" fill="#151515"></polygon></g></g></svg>