<?xml version="1.0" encoding="UTF-8"?><svg version="1.1" width="24px" height="24px" viewBox="0 0 24.0 24.0" xmlns="http://www.w3.org/2000/svg" xmlns:xlink="http://www.w3.org/1999/xlink"><defs><clipPath id="i0"><path d="M12,0 C12.5515625,0 13,0.4484375 13,1 L13,12 C13,12.5515625 12.5125,13 11.9609375,13 L11.9609375,16 L0.9609375,16 L1,13 C0.4484375,13 0,12.5515625 0,12 L0,1 C0,0.4484375 0.4484375,0 1,0 Z M3,12.959375 L2,12.959375 L2,14.959375 L3,14.959375 L3,12.959375 Z M5,12.959375 L4,12.959375 L4,14.959375 L5,14.959375 L5,12.959375 Z M7,12.959375 L6,12.959375 L6,14.959375 L7,14.959375 L7,12.959375 Z M9,12.959375 L8,12.959375 L8,14.959375 L9,14.959375 L9,12.959375 Z M11,12.959375 L10,12.959375 L10,14.959375 L11,14.959375 L11,12.959375 Z M5,3 L4,3 L4,4 L3,4 L3,5 L4,5 L4,6 L3,6 L3,7 L4,7 L4,8 L3,8 L3,9 L4,9 L4,10 L5,10 L5,9 L6,9 L6,10 L7,10 L7,9 L8,9 L8,10 L9,10 L9,9 L9.984375,9 L9.984375,8 L9,8 L9,7 L9.984375,7 L9.984375,6 L9,6 L9,5 L9.984375,5 L9.984375,4 L9,4 L9,3 L8,3 L8,4 L7,4 L7,3 L6,3 L6,4 L5,4 L5,3 Z"></path></clipPath></defs><g transform="translate(6.0 4.0)"><g clip-path="url(#i0)"><polygon points="0,0 13,0 13,16 0,16 0,0" stroke="none" fill="#151515"></polygon></g></g></svg>