<?xml version="1.0" encoding="UTF-8"?>
<svg width="24px" height="24px" viewBox="0 0 24 24" version="1.1" xmlns="http://www.w3.org/2000/svg" xmlns:xlink="http://www.w3.org/1999/xlink">
    <title></title>
    <g id="Icons" stroke="none" stroke-width="1" fill="none" fill-rule="evenodd">
        <g id="Icons/1.-Size-md/Object/pficon-registry" fill="#151515">
            <path d="M11.0083645,13.1055556 C10.9430867,13.0111111 10.8569756,12.9444444 10.7486423,12.9041667 L7.75003114,11.2569444 C7.68753114,11.2333333 7.62503114,11.2222222 7.56114225,11.2222222 L7.55142003,11.2222222 L7.54169781,11.2222222 C7.4805867,11.2222222 7.41669781,11.2333333 7.3555867,11.2569444 L4.35697559,12.9055556 C4.25003114,12.9458333 4.16253114,13.0125 4.09725336,13.1069444 C4.03197559,13.2 4.00001022,13.3055556 4.00001022,13.4194444 L4.00001022,16.9805556 C3.99864225,17.2194444 4.13475336,17.3055556 4.28336448,17.3888889 L7.28336447,19.1541667 C7.36253114,19.2 7.45003114,19.2222222 7.5430867,19.2222222 L7.55280892,19.2222222 L7.56253114,19.2222222 C7.6555867,19.2222222 7.7430867,19.2 7.82225336,19.1541667 L10.8222534,17.3888889 C10.96392,17.3125 11.1069756,17.2194444 11.1069756,17.0194444 L11.1069756,13.4180556 C11.1069756,13.3041667 11.0736423,13.2 11.0083645,13.1055556 Z M10.5944756,16.5555556 L7.55280892,18.3333333 L4.49447559,16.5555556 L4.49447559,15.6666667 L7.55142003,17.4444444 L10.5944756,15.6666667 L10.5944756,16.5555556 Z M10.5944756,14.7777778 L7.55280892,16.5555556 L4.49447559,14.7777778 L4.49447559,13.8888889 L7.55142003,15.6666667 L10.5944756,13.8888889 L10.5944756,14.7777778 Z M19.8972534,13.1055556 C19.8319756,13.0111111 19.7458645,12.9444444 19.6375312,12.9041667 L16.63892,11.2569444 C16.57642,11.2333333 16.51392,11.2222222 16.4500311,11.2222222 L16.4403089,11.2222222 L16.4305867,11.2222222 C16.3694756,11.2222222 16.3055867,11.2333333 16.2444756,11.2569444 L13.2458645,12.9055556 C13.13892,12.9458333 13.05142,13.0125 12.9861423,13.1069444 C12.9208645,13.2 12.88892,13.3055556 12.88892,13.4194444 L12.88892,16.9805556 C12.88892,17.2194444 13.0250311,17.3055556 13.1736423,17.3888889 L16.1736423,19.1541667 C16.2528089,19.2 16.3403089,19.2222222 16.4333645,19.2222222 L16.4430867,19.2222222 L16.4528089,19.2222222 C16.5458645,19.2222222 16.6333645,19.2 16.7125311,19.1541667 L19.7125312,17.3888889 C19.8541979,17.3125 19.9972534,17.2194444 19.9972534,17.0194444 L19.9972534,13.4180556 C19.9958645,13.3041667 19.9625312,13.2 19.8972534,13.1055556 Z M19.4833645,16.5555556 L16.4403089,18.3333333 L13.3833645,16.5555556 L13.3833645,15.6666667 L16.4403089,17.4444444 L19.4833645,15.6666667 L19.4833645,16.5555556 Z M19.4833645,14.7777778 L16.4403089,16.5555556 L13.3833645,14.7777778 L13.3833645,13.8888889 L16.4403089,15.6666667 L19.4833645,13.8888889 L19.4833645,14.7777778 Z M15.4528089,6.32777778 C15.3875311,6.23333333 15.30142,6.16666667 15.1930867,6.12638889 L12.1944756,5.03472222 C12.1319756,5.01111111 12.0694756,5 12.0055867,5 L11.9958645,5 L11.9861423,5 C11.9250311,5 11.8611423,5.01111111 11.8000311,5.03472222 L8.80142003,6.12777778 C8.69447559,6.16805556 8.60697559,6.23472222 8.54169781,6.32916667 C8.47780892,6.42222222 8.44447559,6.52777778 8.44447559,6.64166667 L8.44447559,9.99444444 C8.44447559,10.2333333 8.5805867,10.3194444 8.72919781,10.4027778 L11.7291978,12.0430556 C11.8083645,12.0888889 11.8958645,12.1111111 11.98892,12.1111111 L11.9986423,12.1111111 L12.0083645,12.1111111 C12.10142,12.1111111 12.18892,12.0888889 12.2680867,12.0430556 L15.2680867,10.4027778 C15.4097534,10.3263889 15.5528089,10.2333333 15.5528089,10.0333333 L15.5528089,6.64027778 C15.55142,6.52638889 15.5180867,6.42222222 15.4528089,6.32777778 Z M15.03892,9.61527778 L11.9972534,11.2222222 L8.93892003,9.61527778 L8.93892003,8.77777778 L11.9958645,10.3333333 L15.03892,8.77777778 L15.03892,9.61527778 Z M15.03892,7.88888889 L11.9972534,9.44444444 L8.93892003,7.88888889 L8.93892003,7 L11.9958645,8.55555556 L15.03892,7 L15.03892,7.88888889 Z" id="pficon-registry"></path>
        </g>
    </g>
</svg>