<?xml version="1.0" encoding="UTF-8"?><svg version="1.1" width="24px" height="24px" viewBox="0 0 24.0 24.0" xmlns="http://www.w3.org/2000/svg" xmlns:xlink="http://www.w3.org/1999/xlink"><defs><clipPath id="i0"><path d="M3.56114225,6.22222222 C3.62503114,6.22222222 3.68753114,6.23333333 3.75003114,6.25694444 L6.74864225,7.90416667 C6.85697559,7.94444444 6.9430867,8.01111111 7.00836447,8.10555556 C7.07364225,8.2 7.10697559,8.30416667 7.10697559,8.41805556 L7.10697559,12.0194444 C7.10697559,12.2194444 6.96392003,12.3125 6.82225336,12.3888889 L3.82225336,14.1541667 C3.7430867,14.2 3.6555867,14.2222222 3.56253114,14.2222222 L3.5430867,14.2222222 C3.45003114,14.2222222 3.36253114,14.2 3.28336447,14.1541667 L0.283364476,12.3888889 C0.134753364,12.3055556 -0.00135774709,12.2194444 1.02243375e-05,11.9805556 L1.02243375e-05,8.41944444 C1.02243375e-05,8.30555556 0.0319755863,8.2 0.0972533641,8.10694444 C0.162531142,8.0125 0.250031142,7.94583333 0.356975587,7.90555556 L3.3555867,6.25694444 C3.41669781,6.23333333 3.4805867,6.22222222 3.54169781,6.22222222 Z M12.4500311,6.22222222 C12.51392,6.22222222 12.57642,6.23333333 12.63892,6.25694444 L15.6375312,7.90416667 C15.7458645,7.94444444 15.8319756,8.01111111 15.8972534,8.10555556 C15.9625312,8.2 15.9958645,8.30416667 15.9972534,8.41805556 L15.9972534,12.0194444 C15.9972534,12.2194444 15.8541979,12.3125 15.7125312,12.3888889 L12.7125311,14.1541667 C12.6333645,14.2 12.5458645,14.2222222 12.4528089,14.2222222 L12.4333645,14.2222222 C12.3403089,14.2222222 12.2528089,14.2 12.1736423,14.1541667 L9.17364225,12.3888889 C9.02503114,12.3055556 8.88892003,12.2194444 8.88892003,11.9805556 L8.88892003,8.41944444 C8.88892003,8.30555556 8.92086447,8.2 8.98614225,8.10694444 C9.05142003,8.0125 9.13892003,7.94583333 9.24586447,7.90555556 L12.2444756,6.25694444 C12.3055867,6.23333333 12.3694756,6.22222222 12.4305867,6.22222222 Z M6.59447559,10.6666667 L3.55142003,12.4444444 L0.494475587,10.6666667 L0.494475587,11.5555556 L3.55280892,13.3333333 L6.59447559,11.5555556 L6.59447559,10.6666667 Z M15.4833645,10.6666667 L12.4403089,12.4444444 L9.38336447,10.6666667 L9.38336447,11.5555556 L12.4403089,13.3333333 L15.4833645,11.5555556 L15.4833645,10.6666667 Z M6.59447559,8.88888889 L3.55142003,10.6666667 L0.494475587,8.88888889 L0.494475587,9.77777778 L3.55280892,11.5555556 L6.59447559,9.77777778 L6.59447559,8.88888889 Z M15.4833645,8.88888889 L12.4403089,10.6666667 L9.38336447,8.88888889 L9.38336447,9.77777778 L12.4403089,11.5555556 L15.4833645,9.77777778 L15.4833645,8.88888889 Z M8.0055867,0 C8.06947559,0 8.13197559,0.0111111111 8.19447559,0.0347222222 L11.1930867,1.12638889 C11.30142,1.16666667 11.3875311,1.23333333 11.4528089,1.32777778 C11.5180867,1.42222222 11.55142,1.52638889 11.5528089,1.64027778 L11.5528089,5.03333333 C11.5528089,5.23333333 11.4097534,5.32638889 11.2680867,5.40277778 L8.2680867,7.04305556 C8.18892003,7.08888889 8.10142003,7.11111111 8.00836447,7.11111111 L7.98892003,7.11111111 C7.89586447,7.11111111 7.80836447,7.08888889 7.72919781,7.04305556 L4.72919781,5.40277778 C4.5805867,5.31944444 4.44447559,5.23333333 4.44447559,4.99444444 L4.44447559,1.64166667 C4.44447559,1.52777778 4.47780892,1.42222222 4.54169781,1.32916667 C4.60697559,1.23472222 4.69447559,1.16805556 4.80142003,1.12777778 L7.80003114,0.0347222222 C7.86114225,0.0111111111 7.92503114,0 7.98614225,0 Z M11.03892,3.77777778 L7.99586447,5.33333333 L4.93892003,3.77777778 L4.93892003,4.61527778 L7.99725336,6.22222222 L11.03892,4.61527778 L11.03892,3.77777778 Z M11.03892,2 L7.99586447,3.55555556 L4.93892003,2 L4.93892003,2.88888889 L7.99725336,4.44444444 L11.03892,2.88888889 L11.03892,2 Z"></path></clipPath></defs><g transform="translate(4.0 5.000000000000001)"><g clip-path="url(#i0)"><polygon points="-1.3069261e-15,0 15.9972534,0 15.9972534,14.2222222 -1.3069261e-15,14.2222222 -1.3069261e-15,0" stroke="none" fill="#151515"></polygon></g></g></svg>