<?xml version="1.0" encoding="UTF-8"?><svg version="1.1" width="24px" height="24px" viewBox="0 0 24.0 24.0" xmlns="http://www.w3.org/2000/svg" xmlns:xlink="http://www.w3.org/1999/xlink"><defs><clipPath id="i0"><path d="M7.1070615,0 C7.59301443,0 8.05871931,0.0607441154 8.50417616,0.182232346 C8.949633,0.303720577 9.37484181,0.481903316 9.77980258,0.716780562 C10.1928626,0.959757024 10.5613769,1.24120476 10.8853455,1.56112377 C11.2093141,1.88104277 11.488737,2.24753227 11.7236143,2.66059226 L11.7357631,2.67274108 L13.3272589,2.67274108 L13.3272589,0.886864085 L16,3.12224753 L13.3272589,5.34548216 L13.3272589,3.55960516 L12.1488231,3.55960516 C12.2460137,3.8430777 12.3189066,4.13262465 12.3675019,4.42824601 C12.4160972,4.72386738 12.4403948,5.02556315 12.4403948,5.33333333 C12.4403948,5.81928626 12.3816755,6.28499114 12.2642369,6.73044799 C12.1467983,7.17590483 11.9665907,7.60111364 11.7236143,8.00607441 C11.488737,8.4191344 11.2093141,8.7876487 10.8853455,9.11161731 C10.5613769,9.43558593 10.1969122,9.71500886 9.7919514,9.9498861 C9.37889142,10.1928626 8.949633,10.3730701 8.50417616,10.4905087 C8.05871931,10.6079474 7.59301443,10.6666667 7.1070615,10.6666667 C6.6292078,10.6666667 6.16552771,10.6079474 5.71602126,10.4905087 C5.26651481,10.3730701 4.83928119,10.1928626 4.43432043,9.9498861 C4.02935966,9.71500886 3.66489496,9.43558593 3.34092635,9.11161731 C3.01695773,8.7876487 2.73348519,8.4191344 2.49050873,8.00607441 C2.40951658,7.86028853 2.33257403,7.71247785 2.25968109,7.56264237 C2.18678815,7.41280688 2.12604404,7.2609466 2.07744875,7.1070615 L0,7.1070615 L0,6.22019742 L1.84662111,6.22019742 C1.82232346,6.07441154 1.80410023,5.92862566 1.7919514,5.78283979 C1.77980258,5.63705391 1.77372817,5.48721843 1.77372817,5.33333333 C1.77372817,4.84738041 1.83447229,4.38167553 1.95596052,3.93621868 C2.07744875,3.49076183 2.25563149,3.06555302 2.49050873,2.66059226 C2.73348519,2.25563149 3.01493293,1.89116679 3.33485194,1.56719818 C3.65477094,1.24322956 4.02126044,0.959757024 4.43432043,0.716780562 C4.83928119,0.481903316 5.26449,0.303720577 5.70994685,0.182232346 C6.1554037,0.0607441154 6.62110858,0 7.1070615,0 Z M7.13135915,1.16628702 C6.84788661,1.16628702 6.57048848,1.19463427 6.29916477,1.25132878 C6.02784105,1.30802329 5.76259175,1.39306505 5.50341686,1.50645406 C5.24424196,1.61174386 5.00329031,1.7393065 4.78056188,1.88914199 C4.55783346,2.03897747 4.35332827,2.20703619 4.16704632,2.39331815 C3.98076436,2.5796001 3.81473045,2.78410529 3.66894457,3.00683371 C3.52315869,3.22956214 3.39357125,3.47051379 3.28018223,3.72968869 C3.16679322,3.98886358 3.08377626,4.25208808 3.03113136,4.51936219 C2.97848646,4.78663629 2.95216401,5.06200962 2.95216401,5.34548216 C2.95216401,5.49936725 2.95823842,5.64717793 2.97038724,5.7889142 C2.98253607,5.93065047 3.00480891,6.07441154 3.03720577,6.22019742 L7.1070615,6.22019742 L7.1070615,4.43432043 L9.76765376,6.66970387 L7.1070615,8.8929385 L7.1070615,7.1070615 L3.34092635,7.1070615 C3.44621615,7.33383953 3.56770438,7.54644394 3.70539104,7.74487472 C3.8430777,7.94330549 3.99696279,8.12756264 4.16704632,8.29764617 C4.35332827,8.48392812 4.55783346,8.65198684 4.78056188,8.80182232 C5.00329031,8.95165781 5.24424196,9.08327006 5.50341686,9.19665907 C5.75449253,9.30194887 6.01569223,9.38294103 6.28701595,9.43963554 C6.55833966,9.49633004 6.83573779,9.5246773 7.11921033,9.5246773 C7.40268287,9.5246773 7.68008099,9.49633004 7.95140471,9.43963554 C8.22272842,9.38294103 8.48797773,9.30194887 8.74715262,9.19665907 C8.9982283,9.08327006 9.23513035,8.95165781 9.45785877,8.80182232 C9.68058719,8.65198684 9.88509238,8.48392812 10.0713743,8.29764617 C10.2576563,8.11136421 10.425715,7.90685902 10.5755505,7.6841306 C10.725386,7.46140218 10.8569982,7.22450013 10.9703872,6.97342445 C11.075677,6.71424956 11.1566692,6.44900025 11.2133637,6.17767654 C11.2700582,5.90635282 11.2984055,5.6289547 11.2984055,5.34548216 C11.2984055,5.06200962 11.2700582,4.78461149 11.2133637,4.51328778 C11.1566692,4.24196406 11.075677,3.98076436 10.9703872,3.72968869 C10.9541888,3.69729182 10.9400152,3.66691977 10.9278664,3.63857251 C10.9157175,3.61022526 10.9015439,3.58390281 10.8853455,3.55960516 L7.1070615,3.55960516 L7.1070615,2.66059226 L10.3264996,2.66059226 C10.2860035,2.62009618 10.2455075,2.57555049 10.2050114,2.5269552 C10.1645153,2.47835991 10.1240192,2.43381422 10.0835232,2.39331815 C9.8972412,2.20703619 9.69273602,2.03897747 9.47000759,1.88914199 C9.24727917,1.7393065 9.00632751,1.61174386 8.74715262,1.50645406 C8.48797773,1.39306505 8.22272842,1.30802329 7.95140471,1.25132878 C7.68008099,1.19463427 7.40673247,1.16628702 7.13135915,1.16628702 Z"></path></clipPath></defs><g transform="translate(4.0 7.000000000000001)"><g clip-path="url(#i0)"><polygon points="0,0 16,0 16,10.6666667 0,10.6666667 0,0" stroke="none" fill="#151515"></polygon></g></g></svg>