<?xml version="1.0" encoding="UTF-8"?><svg version="1.1" width="24px" height="24px" viewBox="0 0 24.0 24.0" xmlns="http://www.w3.org/2000/svg" xmlns:xlink="http://www.w3.org/1999/xlink"><defs><clipPath id="i0"><path d="M13.1764706,0 C13.6960664,0.000486437321 14.1171606,0.421580681 14.1176471,0.941176471 L14.1176471,14.1176471 C14.1171606,14.6372429 13.6960664,15.0583371 13.1764706,15.0588235 L2.82352941,15.0588235 C2.30393362,15.0583371 1.88283938,14.6372429 1.88235294,14.1176471 L1.88235294,0.941176471 C1.88283938,0.421580681 2.30393362,0.000486437321 2.82352941,0 Z M16,1.88235294 L16,13.1764706 C15.4804043,13.1759841 15.05931,12.7548899 15.0588235,12.2352941 L15.0588235,2.82352941 C15.0592753,2.3410476 15.4223939,1.94349826 15.8902831,1.88877767 L16,1.88235294 Z M7.52941176,8.47058824 L6.58823529,8.47058824 L6.58823529,9.41176471 L5.64705882,9.41176471 L5.64705882,10.3529412 L6.58823529,10.3529412 L6.58823529,11.2941176 L5.64705882,11.2941176 L5.64705882,12.2352941 L6.58823529,12.2352941 L6.58823529,13.1764706 L7.52941176,13.1764706 L7.52941176,12.2352941 L8.47058824,12.2352941 L8.47058824,13.1764706 L9.41176471,13.1764706 L9.41176471,12.2352941 L10.3529412,12.2352941 L10.3529412,11.2941176 L9.41176471,11.2941176 L9.41176471,10.3529412 L10.3529412,10.3529412 L10.3529412,9.41176471 L9.41176471,9.41176471 L9.41176471,8.47058824 L8.47058824,8.47058824 L8.47058824,9.41176471 L7.52941176,9.41176471 L7.52941176,8.47058824 Z M0,1.88235294 C0.51959579,1.88283938 0.940690034,2.30393362 0.941176471,2.82352941 L0.941176471,12.2352941 C0.940690034,12.7548899 0.51959579,13.1759841 0,13.1764706 L0,1.88235294 Z M8.45588235,10.3529412 C8.4598574,10.3526782 8.46375265,10.3541429 8.46656957,10.3569598 C8.46938649,10.3597768 8.47085121,10.363672 8.47058824,10.3676471 L8.47058824,11.2794118 C8.47085121,11.2833868 8.46938649,11.2872821 8.46656957,11.290099 C8.46375265,11.2929159 8.4598574,11.2943806 8.45588235,11.2941176 L7.54411765,11.2941176 C7.5401426,11.2943806 7.53624735,11.2929159 7.53343043,11.290099 C7.53061351,11.2872821 7.52914879,11.2833868 7.52941176,11.2794118 L7.52941176,10.3676471 C7.52914879,10.363672 7.53061351,10.3597768 7.53343043,10.3569598 C7.53624735,10.3541429 7.5401426,10.3526782 7.54411765,10.3529412 L8.45588235,10.3529412 Z M12,1.88235294 L4,1.88235294 C3.87005065,1.88235294 3.76470588,1.98769771 3.76470588,2.11764706 L3.76470588,4.45588235 C3.76470588,4.58583171 3.87005065,4.69117647 4,4.69117647 L4.70588235,4.69117647 L4.70588235,7.29411765 C4.70588235,7.424067 4.81122712,7.52941176 4.94117647,7.52941176 L11.0588235,7.52941176 C11.1887729,7.52941176 11.2941176,7.424067 11.2941176,7.29411765 L11.2941176,4.69117647 L12,4.69117647 C12.1299494,4.69117647 12.2352941,4.58583171 12.2352941,4.45588235 L12.2352941,2.11764706 C12.2352941,1.98769771 12.1299494,1.88235294 12,1.88235294 Z M6.58823529,4.70588235 L6.58823529,6.58823529 L5.64705882,6.58823529 L5.64705882,4.70588235 L6.58823529,4.70588235 Z M10.3529412,4.70588235 L10.3529412,6.58823529 L9.41176471,6.58823529 L9.41176471,4.70588235 L10.3529412,4.70588235 Z M8.47058824,4.70588235 L8.47058824,6.58823529 L7.52941176,6.58823529 L7.52941176,4.70588235 L8.47058824,4.70588235 Z"></path></clipPath></defs><g transform="translate(4.0 4.000000000000001)"><g clip-path="url(#i0)"><polygon points="0,0 16,0 16,15.0588235 0,15.0588235 0,0" stroke="none" fill="#151515"></polygon></g></g></svg>