<?xml version="1.0" encoding="UTF-8"?>
<svg width="24px" height="24px" viewBox="0 0 24 24" version="1.1" xmlns="http://www.w3.org/2000/svg" xmlns:xlink="http://www.w3.org/1999/xlink">
    <title></title>
    <g id="Icons" stroke="none" stroke-width="1" fill="none" fill-rule="evenodd">
        <g id="Icons/1.-Size-md/Object/pficon-bundle" fill="#151515">
            <path d="M8.90849822,7.22665556 L8.96177947,11.6297806 L14.169592,12.7811868 C14.3396983,12.8187156 14.517727,12.7890442 14.666467,12.6983743 L16.9847482,11.2782181 L17.0550607,7.06415556 C17.0607993,6.72526883 16.8138959,6.43487292 16.4784982,6.38603056 L11.8863107,5.72353056 L9.36599822,6.58134306 C9.08995234,6.67490847 8.90522927,6.93519722 8.90796737,7.22665556 L8.90849822,7.22665556 Z M19.4084982,5.05634306 L15.2866232,4.55321806 L13.0159982,5.33915556 L17.4394357,5.95165556 C17.7771564,5.99868995 18.0266314,6.29041469 18.0206857,6.63134306 L17.9492795,10.6874368 L19.903967,9.49056181 L19.9992795,5.74212431 C20.0097434,5.39502858 19.7534556,5.0973823 19.4086545,5.05618681 L19.4084982,5.05634306 Z M8.95849822,12.9047806 L9.01943572,17.7938431 L13.9803732,19.2829056 C14.2060976,19.3503747 14.4506673,19.2953022 14.6256857,19.1375931 L16.8725607,17.1032181 L16.9491232,12.5282181 L14.6459982,14.0344681 C14.4915718,14.1357486 14.302297,14.1690835 14.1225607,14.1266556 L8.95849822,12.9047806 Z M8.25381072,6.40478056 C9.10381072,6.12509306 9.95381072,5.84592639 10.8038107,5.56728056 L7.11474822,5.03446806 L4.48662322,5.79853056 C4.19037707,5.88446086 3.9901629,6.16039872 4.00037322,6.46868681 L4.14256072,10.5655618 L7.84568572,11.3843118 L7.78943572,7.05306181 C7.78643433,6.75892913 7.97412298,6.49667059 8.25349822,6.40462431 L8.25381072,6.40478056 Z M11.9506857,5.19071806 C12.7366232,4.93290556 13.5220399,4.67509306 14.3069357,4.41728056 L10.8475607,4.00478056 C10.7579335,3.99402379 10.6670573,4.00146395 10.5803732,4.02665556 L8.31287322,4.68603056 L11.9506857,5.19071806 Z M4.16802947,11.7719681 L4.31177947,15.9047806 C4.3212588,16.1936753 4.51444813,16.4441292 4.79146697,16.5266556 L7.95349822,17.4750931 L7.87068572,12.6485306 L4.16802947,11.7719681 Z M17.913342,11.8985306 L19.8805295,10.6125931 L19.7836545,14.1860306 C19.779215,14.3701778 19.6989295,14.5443182 19.5617795,14.6672806 L17.8367795,16.2297806 L17.913342,11.8985306 Z" id="pficon-bundle"></path>
        </g>
    </g>
</svg>