<?xml version="1.0" encoding="UTF-8"?>
<svg width="24px" height="24px" viewBox="0 0 24 24" version="1.1" xmlns="http://www.w3.org/2000/svg" xmlns:xlink="http://www.w3.org/1999/xlink">
    <title></title>
    <g id="Icons" stroke="none" stroke-width="1" fill="none" fill-rule="evenodd">
        <g id="Icons/1.-Size-md/Object/pficon-regions" fill="#151515">
            <path d="M12,17 C7.80972222,17.0027778 6.44027778,16.1944444 5.99444444,15.6666667 C5.77916667,15.4111111 5.77777778,15.6666667 5.77777778,15.6666667 L5.77777778,17.4444444 C5.77777778,18.4263889 8.5625,19.2222222 12,19.2222222 C15.4375,19.2222222 18.2222222,18.4263889 18.2222222,17.4444444 L18.2222222,15.6666667 C18.2222222,15.6666667 18.2222222,15.4111111 18.0055556,15.6666667 C17.5583333,16.1930556 16.1902778,16.9972222 12,17 L12,17 Z M12,13.8888889 C7.80972222,13.8888889 6.44027778,13.0819444 5.99444444,12.5555556 C5.77777778,12.3 5.77777778,12.5555556 5.77777778,12.5555556 L5.77777778,13.8888889 C5.77777778,14.8708333 8.5625,15.6666667 12,15.6666667 C15.4375,15.6666667 18.2222222,14.8708333 18.2222222,13.8888889 L18.2222222,12.5555556 C18.2222222,12.5555556 18.2222222,12.3 18.0055556,12.5555556 C17.5597222,13.0819444 16.1902778,13.8888889 12,13.8888889 L12,13.8888889 Z M12,10.7777778 C7.80972222,10.7777778 6.44027778,9.97083333 5.99444444,9.44444444 C5.77777778,9.18888889 5.77777778,9.44444444 5.77777778,9.44444444 L5.77777778,10.7777778 C5.77777778,11.7597222 8.5625,12.5555556 12,12.5555556 C15.4375,12.5555556 18.2222222,11.7597222 18.2222222,10.7777778 L18.2222222,9.44444444 C18.2222222,9.44444444 18.2222222,9.18888889 18.0055556,9.44444444 C17.5597222,9.97083333 16.1902778,10.7777778 12,10.7777778 L12,10.7777778 Z M18.2222222,7.66666667 C18.2222222,8.64861111 15.4375,9.44444444 12,9.44444444 C8.5625,9.44444444 5.77777778,8.64861111 5.77777778,7.66666667 L5.77777778,6.77777778 C5.77777778,5.79583333 8.5625,5 12,5 C15.4375,5 18.2222222,5.79583333 18.2222222,6.77777778 L18.2222222,7.66666667 Z M19.1111111,7 L19.1111111,17.2222222 C19.1111111,17.3444444 19.2111111,17.4444444 19.3333333,17.4444444 L19.7777778,17.4444444 C19.9,17.4444444 20,17.3444444 20,17.2222222 L20,7 C20,6.87777778 19.9,6.77777778 19.7777778,6.77777778 L19.3333333,6.77777778 C19.2111111,6.77777778 19.1111111,6.87777778 19.1111111,7 L19.1111111,7 Z M4,7 L4,17.2222222 C4,17.3444444 4.1,17.4444444 4.22222222,17.4444444 L4.66666667,17.4444444 C4.78888889,17.4444444 4.88888889,17.3444444 4.88888889,17.2222222 L4.88888889,7 C4.88888889,6.87777778 4.78888889,6.77777778 4.66666667,6.77777778 L4.22222222,6.77777778 C4.1,6.77777778 4,6.87777778 4,7 L4,7 Z" id="pficon-regions"></path>
        </g>
    </g>
</svg>