<?xml version="1.0" encoding="UTF-8"?><svg version="1.1" width="24px" height="24px" viewBox="0 0 24.0 24.0" xmlns="http://www.w3.org/2000/svg" xmlns:xlink="http://www.w3.org/1999/xlink"><defs><clipPath id="i0"><path d="M15.5328125,0 C15.7907616,0.000172368317 15.9998277,0.2092384 16,0.4671875 L16,15.578125 C16,15.83125 15.7953125,16 15.5421875,16 L0.4734375,16 C0.2125,16 0,15.8234375 0,15.5625 L0,0.45625 C0.000258375464,0.204377183 0.204377183,0.000258375464 0.45625,0 Z M15,1 L1,1 L1,15 L15,15 L15,1 Z M9,12 L9,13 L6,13 L6,12 L9,12 Z M13,9 L13,13 L10,13 L10,12 L12,12 L12,10 L11,10 L11,9 L13,9 Z M6,9 L6,10 L4,10 L4,12 L5,12 L5,13 L3,13 L3,9 L6,9 Z M10,9 L10,10 L7,10 L7,9 L10,9 Z M9,6 L9,7 L6,7 L6,6 L9,6 Z M13,3 L13,7 L10,7 L10,6 L12,6 L12,4 L11,4 L11,3 L13,3 Z M6,3 L6,4 L4,4 L4,6 L5,6 L5,7 L3,7 L3,3 L6,3 Z M10,3 L10,4 L7,4 L7,3 L10,3 Z"></path></clipPath></defs><g transform="translate(4.0 4.0)"><g clip-path="url(#i0)"><polygon points="0,0 16,0 16,16 0,16 0,0" stroke="none" fill="#151515"></polygon></g></g></svg>