<?xml version="1.0" encoding="UTF-8"?><svg version="1.1" width="24px" height="24px" viewBox="0 0 24.0 24.0" xmlns="http://www.w3.org/2000/svg" xmlns:xlink="http://www.w3.org/1999/xlink"><defs><clipPath id="i0"><path d="M12.0333676,9.9619845 C12.1906573,9.81414644 12.8138494,9.31853693 13.4953125,10 C14.284375,10.7890625 13.4953125,11.5 13.4953125,11.5 L10.1421875,14.853125 C10.0484375,14.946875 9.9203125,15 9.7875,15 L3.9953125,15 L2.9953125,16 L0,13.28125 L1.5109375,11.6875 C2.0890625,11.046875 2.69375,10.984375 3.0109375,10.9921875 L8.4953125,11 C8.4953125,11 8.9953125,11 8.9953125,11.5 C8.9953125,12 8.4953125,12 8.4953125,12 L5.98636564,12.0002276 C5.91672522,12.0029586 5.4640625,12.0384615 5.4640625,12.5 C5.4640625,13 5.9640625,13 5.9640625,13 L8.9953125,13 L11.9953125,10 Z M10.1546875,0 C10.253125,0 10.3515625,0.0765625 10.3609375,0.1796875 L10.45625,1.6203125 C10.640625,1.675 10.665625,1.675 10.834375,1.759375 L11.878125,0.8484375 C11.91875,0.8140625 11.96875,0.8 12.0171875,0.8 C12.0734375,0.8 12.1234375,0.8203125 12.1640625,0.85625 C12.3453125,1.025 13.1765625,1.784375 13.1765625,1.98125 C13.1765625,2.0296875 13.15625,2.0734375 13.128125,2.1140625 C12.925,2.3875 12.4,2.9265625 12.203125,3.2 C12.29375,3.39375 12.2640625,3.3359375 12.3265625,3.5328125 L13.8265625,3.65625 C13.925,3.6765625 13.9953125,3.76875 13.9984375,3.85625 L13.9984375,5.15625 C13.9984375,5.2453125 13.928125,5.3515625 13.8375,5.365625 L12.275,5.48125 C12.21875,5.6671875 12.2359375,5.6640625 12.1453125,5.8390625 C12.3421875,6.11875 12.93125,6.615625 13.1546875,6.8828125 C13.18125,6.9234375 13.203125,6.965625 13.203125,7.021875 C13.203125,7.0703125 13.190625,7.11875 13.1546875,7.1546875 C13.015625,7.3421875 12.228125,8.2015625 12.0234375,8.2015625 C11.9671875,8.2015625 11.9171875,8.18125 11.8765625,8.153125 L10.771875,7.165625 C10.5921875,7.2578125 10.609375,7.2671875 10.4203125,7.3234375 C10.3859375,7.6859375 10.4515625,8.4875 10.3609375,8.83125 C10.334375,8.9296875 10.25,9 10.1515625,9 L8.8453125,9 C8.7484375,9 8.65,8.9234375 8.6359375,8.825 L8.5203125,7.325 C8.334375,7.26875 8.3203125,7.2765625 8.1515625,7.1921875 L7.115625,8.159375 C7.0828125,8.19375 7.025,8.2078125 6.9765625,8.2078125 C6.9203125,8.2078125 6.8703125,8.1875 6.8296875,8.1515625 C6.6484375,7.9828125 5.8171875,7.23125 5.8171875,7.0265625 C5.8171875,6.978125 5.8375,6.934375 5.865625,6.89375 C6.06875,6.628125 6.5828125,6.0421875 6.7875,5.76875 C6.6890625,5.575 6.703125,5.6390625 6.640625,5.4421875 L5.16875,5.346875 C5.0703125,5.33125 5,5.240625 5,5.1421875 L5.0015625,3.840625 C5.0015625,3.7515625 5.071875,3.6453125 5.1625,3.63125 L6.6203125,3.5609375 C6.6765625,3.375 6.6625,3.29375 6.753125,3.11875 C6.55625,2.8375 6.06875,2.3828125 5.8453125,2.115625 C5.81875,2.075 5.796875,2.025 5.796875,1.9765625 C5.796875,1.928125 5.809375,1.878125 5.8453125,1.8375 C5.984375,1.6484375 6.771875,0.796875 6.9765625,0.796875 C7.0328125,0.796875 7.0828125,0.8171875 7.1234375,0.8453125 L8.20625,1.7953125 C8.3859375,1.703125 8.36875,1.6890625 8.5578125,1.6265625 C8.59375,1.2734375 8.5484375,0.5125 8.6390625,0.16875 C8.665625,0.0703125 8.75,0 8.8484375,0 Z M3.4796875,5.2578125 C4.1703125,5.2578125 4.7296875,5.81875 4.7296875,6.5078125 C4.7296875,7.196875 4.16875,7.7578125 3.4796875,7.7578125 C2.790625,7.7578125 2.2296875,7.196875 2.2296875,6.5078125 C2.2296875,5.81875 2.7890625,5.2578125 3.4796875,5.2578125 Z M3.4796875,6.0078125 C3.2046875,6.0078125 2.9796875,6.2328125 2.9796875,6.5078125 C2.9796875,6.7828125 3.2046875,7.0078125 3.4796875,7.0078125 C3.7546875,7.0078125 3.9796875,6.7828125 3.9796875,6.5078125 C3.9796875,6.2328125 3.7546875,6.0078125 3.4796875,6.0078125 Z M9.4734375,2.7515625 C8.503125,2.7515625 7.7140625,3.5390625 7.7140625,4.5109375 C7.7140625,5.4828125 8.50625,6.2703125 9.4734375,6.2703125 C10.4453125,6.2703125 11.2328125,5.4828125 11.2328125,4.5109375 C11.2328125,3.5390625 10.44375,2.7515625 9.4734375,2.7515625 Z M3,0.5 C4.1046875,0.5 5,1.3984375 5,2.5015625 C5,3.6046875 4.1046875,4.5 3,4.5 C1.8953125,4.5 1,3.60625 1,2.5015625 C1,1.396875 1.8953125,0.5 3,0.5 Z M3,1.75 C2.5859375,1.75 2.25,2.0875 2.25,2.5015625 C2.25,2.915625 2.5859375,3.2515625 3,3.2515625 C3.4140625,3.2515625 3.75,2.9140625 3.75,2.5 C3.75,2.0859375 3.4140625,1.75 3,1.75 Z"></path></clipPath></defs><g transform="translate(5.0 4.0)"><g clip-path="url(#i0)"><polygon points="0,0 13.9984375,0 13.9984375,16 0,16 0,0" stroke="none" fill="#151515"></polygon></g></g></svg>