<?xml version="1.0" encoding="UTF-8"?>
<svg width="24px" height="24px" viewBox="0 0 24 24" version="1.1" xmlns="http://www.w3.org/2000/svg" xmlns:xlink="http://www.w3.org/1999/xlink">
    <title></title>
    <g id="Icons" stroke="none" stroke-width="1" fill="none" fill-rule="evenodd">
        <g id="Icons/1.-Size-md/Object/pficon-tenant" fill="#151515">
            <path d="M12.0015625,4 C7.5890625,4 4,7.590625 4,12 C4,16.4109375 7.590625,20 12.0015625,20 C16.4125,20 20,16.4109375 20,12 C20,7.5890625 16.4125,4 12.0015625,4 Z M12,19 C8.1390625,19 5,15.8625 5,12 C5,8.140625 8.1390625,5 12,5 C15.859375,5 19,8.1390625 19,12 C19,15.8609375 15.859375,19 12,19 Z M14.5,12.5 C13.3953125,12.5 12.5,13.3953125 12.5,14.5 C12.5,15.6046875 13.3953125,16.5 14.5,16.5 C15.6046875,16.5 16.5,15.6046875 16.5,14.5 C16.5,13.3953125 15.6046875,12.5 14.5,12.5 Z M14.5,15.75 C13.8109375,15.75 13.25,15.1890625 13.25,14.5 C13.25,13.8109375 13.8109375,13.25 14.5,13.25 C15.1890625,13.25 15.75,13.8109375 15.75,14.5 C15.75,15.1890625 15.1890625,15.75 14.5,15.75 Z M9.5,12.5 C8.3953125,12.5 7.5,13.3953125 7.5,14.5 C7.5,15.6046875 8.3953125,16.5 9.5,16.5 C10.6046875,16.5 11.5,15.6046875 11.5,14.5 C11.5,13.3953125 10.6046875,12.5 9.5,12.5 Z M9.5,15.75 C8.8109375,15.75 8.25,15.1890625 8.25,14.5 C8.25,13.8109375 8.8109375,13.25 9.5,13.25 C10.1890625,13.25 10.75,13.8109375 10.75,14.5 C10.75,15.1890625 10.1890625,15.75 9.5,15.75 Z M14.5,7.5 C13.3953125,7.5 12.5,8.3953125 12.5,9.5 C12.5,10.6046875 13.3953125,11.5 14.5,11.5 C15.6046875,11.5 16.5,10.6046875 16.5,9.5 C16.5,8.3953125 15.6046875,7.5 14.5,7.5 Z M14.5,10.75 C13.8109375,10.75 13.25,10.1890625 13.25,9.5 C13.25,8.8109375 13.8109375,8.25 14.5,8.25 C15.1890625,8.25 15.75,8.8109375 15.75,9.5 C15.75,10.1890625 15.1890625,10.75 14.5,10.75 Z M11.5,9.5 C11.5,10.6046875 10.6046875,11.5 9.5,11.5 C8.3953125,11.5 7.5,10.6046875 7.5,9.5 C7.5,8.3953125 8.3953125,7.5 9.5,7.5 C10.6046875,7.5 11.5,8.3953125 11.5,9.5" id="pficon-tenant"></path>
        </g>
    </g>
</svg>