<?xml version="1.0" encoding="UTF-8"?><svg version="1.1" width="24px" height="24px" viewBox="0 0 24.0 24.0" xmlns="http://www.w3.org/2000/svg" xmlns:xlink="http://www.w3.org/1999/xlink"><defs><clipPath id="i0"><path d="M15.6546873,8.94375 C15.7279792,8.94412047 15.7974552,8.97647558 15.8449056,9.03233491 C15.8923559,9.08819422 15.9130495,9.1619882 15.9015625,9.234375 C15.7039167,10.4944161 15.2060568,11.6884223 14.45,12.715625 C14.3768542,12.8152452 14.3874787,12.9533638 14.4749999,13.040625 L15.9265625,14.4921875 C15.9733859,14.5390421 15.9997841,14.60251 16,14.66875 L16,15.75 C16,15.8880713 15.8880712,16 15.75,16 L14.7093749,16 C14.643135,15.9997841 14.5796671,15.9733859 14.5328125,15.9265625 L13.0609374,14.4546875 C12.9736763,14.3671663 12.8355577,14.3565418 12.7359375,14.4296875 C11.7142327,15.1830753 10.526952,15.6808117 9.2734375,15.88125 C9.20097502,15.8931838 9.12693039,15.8726531 9.0709598,15.8251083 C9.01498919,15.7775633 8.98281242,15.7078136 8.98281242,15.634375 L8.98281242,14.11875 C8.98281242,13.9993343 9.06722206,13.8965743 9.184375,13.8734375 C11.5578125,13.3984375 13.4234375,11.5234375 13.8875,9.146875 C13.910319,9.02930094 14.0130455,8.9442408 14.1328125,8.94375 L15.6546873,8.94375 Z M1.8734375,8.9546875 C1.99333798,8.95480916 2.0962687,9.04003842 2.11875,9.1578125 C2.58125,11.5234375 4.434375,13.3921875 6.7921875,13.8765625 C6.9087192,13.9003493 6.99236042,14.0029405 6.99218803,14.121875 L6.99218803,15.6390625 C6.99218803,15.7125011 6.96001081,15.7822508 6.9040402,15.8297958 C6.84806961,15.8773406 6.77402498,15.8978712 6.7015625,15.8859375 C5.46553875,15.682293 4.29486395,15.1903633 3.284375,14.45 C3.1847548,14.3768542 3.0466362,14.3874787 2.959375,14.475 L1.5078125,15.9265625 C1.46095787,15.9733859 1.39749005,15.9997841 1.33125,16 L0.25,16 C0.111928813,16 0,15.8880712 0,15.75 L0,14.709375 C0.000215936661,14.643135 0.0266140548,14.5796671 0.0734375,14.5328125 L1.5421875,13.0640625 C1.62970875,12.9768013 1.64033325,12.8386827 1.5671875,12.7390625 C0.805695147,11.7085229 0.304008061,10.5095122 0.1046875,9.24375 C0.0932628153,9.17153009 0.114027425,9.09792848 0.161512892,9.04232841 C0.208998359,8.98672834 0.278444531,8.9546875 0.3515625,8.9546875 L1.8734375,8.9546875 Z M8,4 C10.209375,4 12,5.790625 12,8 C12,10.209375 10.209375,12 8,12 C5.790625,12 4,10.209375 4,8 C4,5.790625 5.790625,4 8,4 Z M1.290625,0 C1.35686505,0.000215936661 1.42033287,0.0266140548 1.4671875,0.0734375 L2.928125,1.534375 C3.0153862,1.62189625 3.1535048,1.63252075 3.253125,1.559375 C4.26823663,0.809504478 5.44693828,0.311461525 6.6921875,0.10625 C6.76464998,0.0943162052 6.83869461,0.114846834 6.8946652,0.162391753 C6.95063581,0.209936672 6.98281258,0.279686427 6.98281258,0.353125 L6.98281258,1.8859375 C6.98214594,2.0045722 6.89888144,2.10670131 6.7828125,2.13125 C4.45625,2.609375 2.6203125,4.4375 2.1296875,6.7625 C2.10498497,6.87824423 2.00272592,6.9609375 1.884375,6.9609375 L0.35625,6.9609375 C0.282629945,6.9609375 0.21276068,6.92846117 0.165422972,6.87207805 C0.118085264,6.81569491 0.0981359942,6.74124853 0.1109375,6.66875 C0.31602732,5.44133717 0.806838164,4.27934116 1.54375,3.2765625 C1.61689575,3.1769423 1.60627125,3.0388237 1.51875,2.9515625 L0.0734375,1.5078125 C0.0266140548,1.46095787 0.000215936661,1.39749005 0,1.33125 L0,0.25 C0,0.111928812 0.111928813,0 0.25,0 L1.290625,0 Z M15.7499998,0 C15.8880712,0 15.9999998,0.111928813 15.9999998,0.25 L15.9999998,1.290625 C15.9997841,1.35686505 15.9733859,1.42033287 15.9265625,1.4671875 L14.4640625,2.9296875 C14.3765412,3.0169487 14.3659167,3.1550673 14.4390625,3.2546875 C15.1805786,4.26111473 15.6746448,5.42803192 15.88125,6.6609375 C15.893357,6.73358534 15.8729381,6.80788414 15.8254052,6.86414158 C15.777872,6.92039903 15.7080245,6.95293459 15.634375,6.953125 L14.10625,6.953125 C13.9878991,6.953125 13.88564,6.87043173 13.8609375,6.7546875 C13.3703125,4.4203125 11.5203125,2.5859375 9.178125,2.1171875 C9.06097206,2.0940507 8.97656242,1.99129075 8.97656242,1.871875 L8.97656242,0.340625 C8.97656242,0.267186427 9.00873919,0.197436672 9.0647098,0.149891753 C9.12068039,0.102346834 9.19472502,0.0818162052 9.2671875,0.09375 C10.5187437,0.294127553 11.7042823,0.790735891 12.725,1.5421875 C12.8246202,1.61533325 12.9627388,1.60470875 13.05,1.5171875 L14.4921874,0.0734375 C14.5390421,0.0266140548 14.60251,0.000215936661 14.66875,0 L15.7499998,0 Z"></path></clipPath></defs><g transform="translate(4.0 4.0)"><g clip-path="url(#i0)"><polygon points="0,0 16,0 16,16 0,16 0,0" stroke="none" fill="#151515"></polygon></g></g></svg>