<?xml version="1.0" encoding="UTF-8"?><svg version="1.1" width="24px" height="24px" viewBox="0 0 24.0 24.0" xmlns="http://www.w3.org/2000/svg" xmlns:xlink="http://www.w3.org/1999/xlink"><defs><clipPath id="i0"><path d="M11.2882353,0 C11.8161765,0 12.2426471,0.367647059 12.2426471,0.822058824 C12.2426471,1.08970588 12.0941176,1.29852941 11.8632353,1.54705882 C11.6676471,1.75882353 11.8588235,1.88235294 12.3352941,1.88235294 L13.4220588,1.88235294 C13.6073436,1.88223084 13.7850102,1.95608328 13.9156116,2.08751297 C14.0462129,2.21894268 14.1189406,2.39707259 14.1176471,2.58235294 L14.1176471,4.15 C14.1176471,4.50294118 14.3308824,4.91029412 14.4926471,4.68235294 C14.6544118,4.45441176 14.8838235,4.21617647 15.1823529,4.21617647 C15.6338235,4.21617647 16,4.64117647 16,5.16764706 C16,5.69411765 15.6338235,6.12058824 15.1823529,6.12058824 C14.8735294,6.12058824 14.6323529,5.88823529 14.4779412,5.62794118 C14.3235294,5.36764706 14.1176471,5.81470588 14.1176471,6.16029412 L14.1176471,8.67794118 C14.1176471,9.06470588 13.8632353,9.40735294 13.4764706,9.40735294 L12.3220588,9.40735294 C11.8235294,9.40735294 11.5705882,9.55882353 11.8735294,9.8 C12.1764706,10.0411765 12.2426471,10.2279412 12.2426471,10.4867647 C12.2426471,10.9323529 11.8161765,11.2941176 11.2882353,11.2941176 C10.7602941,11.2941176 10.3338235,10.9338235 10.3338235,10.4867647 C10.3338235,10.2073529 10.5308824,10.0102941 10.7588235,9.75882353 C10.9867647,9.50735294 10.7764706,9.41176471 10.2941176,9.41176471 L9.08823529,9.41176471 C8.7,9.41176471 8.47058824,9.08529412 8.47058824,8.69852941 L8.47058824,7.11029412 C8.56911765,7.125 8.59411765,7.13382353 8.68529412,7.13382353 C9.61323529,7.13382353 10.3647059,6.28235294 10.3647059,5.23088235 C10.3647059,4.17941176 9.61176471,3.32794118 8.68529412,3.32794118 C8.59411765,3.32794118 8.56911765,3.33676471 8.47058824,3.35147059 L8.47058824,2.58382353 C8.48097822,2.19219374 8.80235391,1.88061609 9.19411765,1.88235294 L10.2794118,1.88235294 C10.7044118,1.88235294 10.9294118,1.75147059 10.6941176,1.525 C10.4514706,1.29117647 10.3338235,1.12058824 10.3338235,0.822058824 C10.3338235,0.367647059 10.7602941,0 11.2882353,0 Z M4.44541267,8.46014584 C3.67838925,8.52358111 3.32941176,8.88970588 3.32941176,9.63970588 C3.32941176,9.87205882 3.38088235,10.1338235 3.49705882,10.3529412 L2.66764706,10.3529412 C2.26617647,10.3397059 1.88235294,9.98823529 1.88235294,9.60147059 L1.88235294,6.17352941 C1.88235294,5.84411765 1.70294118,5.37205882 1.53235294,5.64411765 C1.36176471,5.91617647 1.12794118,6.12058824 0.819117647,6.12058824 C0.357352941,6.12058824 0,5.69264706 0,5.16764706 C0,4.64264706 0.357352941,4.21617647 0.816176471,4.21470588 C1.11029412,4.21470588 1.25588235,4.44411765 1.50588235,4.65441176 C1.75588235,4.86470588 1.88235294,4.46470588 1.88235294,4.12205882 L1.88235294,3.50441176 C1.88235294,3.11764706 2.20735294,2.82352941 2.59558824,2.82352941 L3.58970588,2.82352941 C4.13088235,2.82352941 4.20882353,2.71029412 3.98382353,2.39852941 C3.75882353,2.08676471 3.66323529,1.92205882 3.66323529,1.70147059 C3.66323529,1.26470588 4.08970588,0.911764706 4.61764706,0.911764706 C5.14558824,0.911764706 5.57205882,1.26470588 5.57205882,1.70147059 C5.57205882,1.95882353 5.44705882,2.14264706 5.18970588,2.44117647 C4.95294118,2.74852941 5.08676471,2.82352941 5.60441176,2.82352941 L6.82058824,2.82352941 C7.20735294,2.82352941 7.52941176,3.13088235 7.52941176,3.51764706 L7.52941176,4.13529412 C7.52941176,4.51470588 7.82794118,4.95882353 7.99264706,4.66617647 C8.15735294,4.37352941 8.38970588,4.21470588 8.68088235,4.21470588 C9.12941176,4.21470588 9.49117647,4.64117647 9.49117647,5.16764706 C9.49117647,5.69411765 9.12941176,6.12058824 8.68088235,6.12058824 C8.37647059,6.12058824 8.11176471,5.92205882 7.97352941,5.62941176 C7.83529412,5.33676471 7.52941176,5.78676471 7.52941176,6.16029412 L7.52941176,9.61470588 C7.52941176,10.0014706 7.19705882,10.3529412 6.80882353,10.3529412 L5.59558824,10.3529412 C5.70237159,10.1301101 5.759568,9.88677453 5.76323529,9.63970588 C5.76323529,8.81470588 5.23235294,8.43676471 4.58823529,8.45147059 L4.6,8.451 Z"></path></clipPath></defs><g transform="translate(4.0 5.999999999999999)"><g clip-path="url(#i0)"><polygon points="0,0 16,0 16,11.2941176 0,11.2941176 0,0" stroke="none" fill="#151515"></polygon></g></g></svg>