<?xml version="1.0" encoding="UTF-8"?><svg version="1.1" width="24px" height="24px" viewBox="0 0 24.0 24.0" xmlns="http://www.w3.org/2000/svg" xmlns:xlink="http://www.w3.org/1999/xlink"><defs><clipPath id="i0"><path d="M15,3 C15.5520705,3.00051684 15.9994831,3.44792947 16,4 L16,15 C15.9994831,15.5520705 15.5520705,15.9994831 15,16 L4,16 C3.44792947,15.9994831 3.00051684,15.5520705 3,15 L3,4 C3.00051684,3.44792947 3.44792947,3.00051684 4,3 Z M14.765625,4 L4.234375,4 C4.10493327,4 4,4.10493327 4,4.234375 L4,14.765625 C4,14.8950667 4.10493327,15 4.234375,15 L14.765625,15 C14.8950667,15 15,14.8950667 15,14.765625 L15,4.234375 C15,4.10493327 14.8950667,4 14.765625,4 Z M1,10 L1,11.7546875 C1,11.8841292 1.10493326,11.9890625 1.234375,11.9890625 L2,12.0015625 L2,13.0015625 L1,12.9890625 C0.447929473,12.9885457 0.000516839653,12.541133 0,11.9890625 L0,10 L1,10 Z M1,7 L1,9 L0,9 L0,7 L1,7 Z M1,4 L1,6 L0,6 L0,4 L1,4 Z M2.9890625,0 L2.9890625,1 L1.234375,1 C1.10493326,1 1,1.10493326 1,1.234375 L1,3 L0,3 L0,1 C0.000516839653,0.447929473 0.447929473,0.000516839653 1,0 L2.9890625,0 Z M12,0.0109375 C12.5520705,0.0114543397 12.9994832,0.458866973 13,1.0109375 L13,2 L12,2 L12,1.2453125 C12,1.11587076 11.8950667,1.0109375 11.765625,1.0109375 L10,1.0109375 L10,0.0109375 L12,0.0109375 Z M9,0.0109375 L9,1.0109375 L7,1.0109375 L7,0.0109375 L9,0.0109375 Z M6,0.0109375 L6,1.0109375 L4,1.0109375 L4,0.0109375 L6,0.0109375 Z"></path></clipPath></defs><g transform="translate(4.0 4.0)"><g clip-path="url(#i0)"><polygon points="0,0 16,0 16,16 0,16 0,0" stroke="none" fill="#151515"></polygon></g></g></svg>