<?xml version="1.0" encoding="UTF-8"?><svg version="1.1" width="24px" height="24px" viewBox="0 0 24.0 24.0" xmlns="http://www.w3.org/2000/svg" xmlns:xlink="http://www.w3.org/1999/xlink"><defs><clipPath id="i0"><path d="M8.0015625,0 C12.4125,0 16,3.5890625 16,8 C16,12.4109375 12.4125,16 8.0015625,16 C3.590625,16 0,12.4109375 0,8 C0,3.590625 3.5890625,0 8.0015625,0 Z M8,1 C4.1390625,1 1,4.140625 1,8 C1,11.8625 4.1390625,15 8,15 C11.859375,15 15,11.8609375 15,8 C15,4.1390625 11.859375,1 8,1 Z M10.5,8.5 C11.6046875,8.5 12.5,9.3953125 12.5,10.5 C12.5,11.6046875 11.6046875,12.5 10.5,12.5 C9.3953125,12.5 8.5,11.6046875 8.5,10.5 C8.5,9.3953125 9.3953125,8.5 10.5,8.5 Z M5.5,8.5 C6.6046875,8.5 7.5,9.3953125 7.5,10.5 C7.5,11.6046875 6.6046875,12.5 5.5,12.5 C4.3953125,12.5 3.5,11.6046875 3.5,10.5 C3.5,9.3953125 4.3953125,8.5 5.5,8.5 Z M10.5,9.25 C9.8109375,9.25 9.25,9.8109375 9.25,10.5 C9.25,11.1890625 9.8109375,11.75 10.5,11.75 C11.1890625,11.75 11.75,11.1890625 11.75,10.5 C11.75,9.8109375 11.1890625,9.25 10.5,9.25 Z M5.5,9.25 C4.8109375,9.25 4.25,9.8109375 4.25,10.5 C4.25,11.1890625 4.8109375,11.75 5.5,11.75 C6.1890625,11.75 6.75,11.1890625 6.75,10.5 C6.75,9.8109375 6.1890625,9.25 5.5,9.25 Z M10.5,3.5 C11.6046875,3.5 12.5,4.3953125 12.5,5.5 C12.5,6.6046875 11.6046875,7.5 10.5,7.5 C9.3953125,7.5 8.5,6.6046875 8.5,5.5 C8.5,4.3953125 9.3953125,3.5 10.5,3.5 Z M5.5,3.5 C6.6046875,3.5 7.5,4.3953125 7.5,5.5 C7.5,6.6046875 6.6046875,7.5 5.5,7.5 C4.3953125,7.5 3.5,6.6046875 3.5,5.5 C3.5,4.3953125 4.3953125,3.5 5.5,3.5 Z M10.5,4.25 C9.8109375,4.25 9.25,4.8109375 9.25,5.5 C9.25,6.1890625 9.8109375,6.75 10.5,6.75 C11.1890625,6.75 11.75,6.1890625 11.75,5.5 C11.75,4.8109375 11.1890625,4.25 10.5,4.25 Z"></path></clipPath></defs><g transform="translate(4.0 4.0)"><g clip-path="url(#i0)"><polygon points="0,0 16,0 16,16 0,16 0,0" stroke="none" fill="#151515"></polygon></g></g></svg>