<?xml version="1.0" encoding="UTF-8"?><svg version="1.1" width="24px" height="24px" viewBox="0 0 24.0 24.0" xmlns="http://www.w3.org/2000/svg" xmlns:xlink="http://www.w3.org/1999/xlink"><defs><clipPath id="i0"><path d="M7.5390625,0.0807797082 C7.83691636,-0.0269265694 8.16308364,-0.0269265694 8.4609375,0.0807797082 C10.6796875,0.888383875 12.8984375,1.69645679 15.1171875,2.50499846 C15.6395527,2.69566405 15.9905164,3.18837986 16,3.74437346 L16,10.8523422 C15.9828125,11.337811 15.7203125,11.959061 15.303125,12.1868735 C13.1515625,13.3662485 9.99375,15.096561 8.646875,15.8349985 C8.2436855,16.0550083 7.7563145,16.0550083 7.353125,15.8349985 L0.696875,12.1868735 C0.2953125,11.955936 0.01875,11.3367172 0.0015625,10.8523422 L0,3.74437346 C0.0111771599,3.18930344 0.361645077,2.69790401 0.8828125,2.50656096 Z M11.5359375,10.3551547 L8.9625,11.4868735 L8.9625,14.0156235 L14.015625,11.2432797 L11.5359375,10.3551547 Z M4.4546875,10.357811 L1.98125,11.2443735 L6.9625,13.9739047 L6.9625,11.4582797 L4.4546875,10.357811 Z M14.5,9.05327971 L12.865625,9.77124846 L14.5,10.3567172 L14.5,9.05327971 Z M1.5,9.06109221 L1.5,10.3551547 L3.1234375,9.77109221 L1.5,9.06109221 Z M10.9875,6.39796721 L8.9625,7.12499846 L8.9625,9.70577971 L14.2390625,7.56406096 L10.9875,6.39796721 Z M4.9984375,6.39952971 L1.7484375,7.56562346 L6.9609375,9.67765471 L6.9609375,7.10515471 L4.9984375,6.39952971 Z M14.5,5.14062346 L12.46875,5.86734221 L14.5,6.59702971 L14.5,5.14062346 Z M1.5,5.14609221 L1.5,6.59468596 L3.51875,5.87046721 L1.5,5.14609221 Z M8.003125,1.48437346 L1.8734375,3.71781096 L7.9921875,5.91249846 L14.1203125,3.71312346 L8.003125,1.48437346 Z"></path></clipPath></defs><g transform="translate(4.0 3.999999999999977)"><g clip-path="url(#i0)"><polygon points="0,0 16,0 16,16.0000058 0,16.0000058 0,0" stroke="none" fill="#151515"></polygon></g></g></svg>