<?xml version="1.0" encoding="UTF-8"?><svg version="1.1" width="24px" height="24px" viewBox="0 0 24.0 24.0" xmlns="http://www.w3.org/2000/svg" xmlns:xlink="http://www.w3.org/1999/xlink"><defs><clipPath id="i0"><path d="M14,0 C15.1046875,0 16,0.8953125 16,2 L16,9 C16,10.1046875 15.1046875,11 14,11 L11,11 L11,14 C11,15.1046875 10.1046875,16 9,16 L2,16 C0.8953125,16 0,15.1046875 0,14 L0,7 C0,5.8953125 0.8953125,5 2,5 L5,5 L5,2 C5,0.8953125 5.8953125,0 7,0 Z M14,2 L7,2 L7,7 L2,7 L2,14 L9,14 L9,9 L14,9 L14,2 Z M12.5,3 C12.7765625,3 13,3.2234375 13,3.5 L13,7.5 C13,7.7765625 12.7765625,8 12.5,8 L8.75,8 C8.3359375,8 8,8.3359375 8,8.75 L8,12.5 C8,12.7765625 7.7765625,13 7.5,13 L3.5,13 C3.2234375,13 3,12.7765625 3,12.5 L3,8.5 C3,8.2234375 3.2234375,8 3.5,8 L7.25,8 C7.6640625,8 8,7.6640625 8,7.25 L8,3.5 C8,3.2234375 8.2234375,3 8.5,3 L12.5,3 Z"></path></clipPath></defs><g transform="translate(4.0 4.0)"><g clip-path="url(#i0)"><polygon points="0,0 16,0 16,16 0,16 0,0" stroke="none" fill="#151515"></polygon></g></g></svg>