<?xml version="1.0" encoding="UTF-8"?>
<svg width="24px" height="24px" viewBox="0 0 24 24" version="1.1" xmlns="http://www.w3.org/2000/svg" xmlns:xlink="http://www.w3.org/1999/xlink">
    <title></title>
    <g id="Icons" stroke="none" stroke-width="1" fill="none" fill-rule="evenodd">
        <g id="Icons/1.-Size-md/Object/pficon-port" fill="#151515">
            <path d="M10.42,11.0366667 C10.38,10.9283333 10.23,10.92 10.1766667,11.0216667 L8.41333333,14.3966667 C8.36666667,14.485 8.27666667,14.5333333 8.17666667,14.5333333 L4,14.5333333 L4,12.4 L6.965,12.4 C7.015,12.4 7.06,12.3766667 7.08333333,12.3333333 L10.29,6.195 C10.3566667,6.06666667 10.4616667,6 10.59,6 C10.7183333,6 10.8466667,6.09833333 10.8983333,6.23166667 L13.8016667,13.9783333 C13.8416667,14.0833333 13.9833333,14.095 14.0416667,14 L16.195,10.4083333 C16.2433333,10.3283333 16.33,10.2666667 16.4233333,10.2666667 L20,10.2666667 L20,12.4 L17.5566667,12.4 C17.51,12.4 17.4666667,12.4366667 17.4416667,12.4766667 L13.7366667,18.6533333 C13.6833333,18.7416667 13.6066667,18.8 13.5033333,18.8 C13.4,18.8 13.3,18.7216667 13.2583333,18.61 L10.42,11.0366667 Z" id="pficon-port"></path>
        </g>
    </g>
</svg>