<?xml version="1.0" encoding="UTF-8"?><svg version="1.1" width="24px" height="24px" viewBox="0 0 24.0 24.0" xmlns="http://www.w3.org/2000/svg" xmlns:xlink="http://www.w3.org/1999/xlink"><defs><clipPath id="i0"><path d="M4,0 C4.759375,0 5.140625,0.0765625 5.74375,0.5765625 L9.675,4.559375 L9.925,4.309375 L11.059375,3.184375 C11.225,3.00625 11.428125,2.965625 11.665625,3.0625 C11.890625,3.159375 12.0031401,3.33125 12.0031401,3.575 L12.0031401,7.459375 C12.0039105,7.60680467 11.9440157,7.748066 11.8375,7.85 C11.728125,7.959375 11.596875,8 11.446875,8 L7.559375,8 C7.315625,8 7.14375,7.9 7.046875,7.66875 C6.95,7.440625 6.990625,7.24375 7.16875,7.06875 L8.540625,5.696875 L4.884375,1.9734375 C4.571875,1.7234375 4.209375,1.6390625 3.98125,1.6421875 C3.965625,1.6390625 3.953125,1.6421875 3.940625,1.6390625 L3.86875,1.6390625 C2.590625,1.6765625 1.625,2.725 1.625,4.0125 C1.625,5.309375 2.55,6.334375 3.840625,6.3515625 C4.28291783,6.31892906 4.70774838,6.16542795 5.06875,5.9078125 C5.305283,5.73473489 5.61663734,5.70228711 5.88377466,5.82287475 C6.15091197,5.94346237 6.33252162,6.19843752 6.3591698,6.49031694 C6.38581798,6.78219636 6.25338378,7.06584325 6.0125,7.2328125 L5.928125,7.2890625 L5.9375,7.2953125 C5.378125,7.7328125 4.75,8 4,8 C1.790625,8 0,6.2203125 0,4.0125 C0,1.8046875 1.790625,0 4,0 Z M12,0 C14.209375,0 16,1.790625 16,4.0046875 C16,5.86875 14.725,7.434375 13,7.878125 L13,6.15625 C13.8378451,5.7659502 14.3739463,4.92585536 14.375,4.0015625 C14.375,2.69375 13.309375,1.628125 12,1.628125 C11.9463064,1.63081317 11.8919289,1.63499606 11.8375,1.634375 C11.331417,1.62497666 10.8351585,1.77472866 10.41875,2.0625 C10.1800457,2.23656359 9.86567133,2.26734367 9.59773897,2.14288434 C9.32980661,2.01842502 9.15054348,1.75834156 9.12958059,1.46365795 C9.1086177,1.16897434 9.24925888,0.886133875 9.496875,0.725 C10.191373,0.245348141 11.0185866,-0.00489220312 11.8625,0.009375 C11.9086437,0.00873907813 11.9547274,0.0129285 12,0.021875 Z"></path></clipPath></defs><g transform="translate(4.0 8.0)"><g clip-path="url(#i0)"><polygon points="0,0 16,0 16,8 0,8 0,0" stroke="none" fill="#151515"></polygon></g></g></svg>