<?xml version="1.0" encoding="UTF-8"?>
<svg width="24px" height="24px" viewBox="0 0 24 24" version="1.1" xmlns="http://www.w3.org/2000/svg" xmlns:xlink="http://www.w3.org/1999/xlink">
    <title></title>
    <g id="Icons" stroke="none" stroke-width="1" fill="none" fill-rule="evenodd">
        <g id="Icons/1.-Size-md/Object/pficon-enterprise" fill="#151515">
            <path d="M10.8578125,4 L4,5.7140625 L4,17.7859375 L13.1421875,20 L14.2859375,20 L20,17.7140625 L20,5.7140625 L12.0015625,4 L10.8578125,4 Z M5.14375,16.8921875 L5.14375,7.1390625 L13,8.884375 L13,18.7546875 L11.99375,18.515625 L11.99375,16.803125 L6.00625,15.3546875 L6.00625,17.090625 L5.14375,16.8921875 Z M14,9.109375 L19,7.1734375 L19,16.878125 L17.9984375,17.2765625 L17.9984375,15.9296875 L15,17.115625 L15,18.4765625 L14,18.8828125 L14,9.109375 Z M6.00625,10.784375 L11.99375,12.20625 L11.99375,9.8859375 L6.00625,8.5453125 L6.00625,10.784375 Z M15,10.2578125 L15,12.54375 L18,11.359375 L18,9.075 L15,10.2578125 Z M6.00625,14.2125 L11.99375,15.64375 L11.99375,13.3390625 L6.00625,11.9265625 L6.00625,14.2125 Z M15,13.6875 L15,15.9734375 L18.0015625,14.7890625 L18.0015625,12.503125 L15,13.6875 Z" id="pficon-enterprise"></path>
        </g>
    </g>
</svg>