<?xml version="1.0" encoding="UTF-8"?><svg version="1.1" width="24px" height="24px" viewBox="0 0 24.0 24.0" xmlns="http://www.w3.org/2000/svg" xmlns:xlink="http://www.w3.org/1999/xlink"><defs><clipPath id="i0"><path d="M9.25,0 C9.62969577,0 9.94349096,0.282153882 9.99315338,0.648229443 L10,0.75 L10,3.25 L9.99921875,3.26738281 L9.9984375,3.2859375 L11.7125,5 L13.5,5 C13.7454599,5 13.9496084,5.17687516 13.9919443,5.41012437 L14,5.5 L14,7.5 C14,7.74545989 13.8231248,7.94960837 13.5898756,7.99194433 L13.5,8 L13,8 L13,8.984375 L14.25,8.984375 C14.6296958,8.984375 14.943491,9.26652888 14.9931534,9.63260444 L15,9.734375 L15,11 L15.5,11 C15.7454599,11 15.9496084,11.1768752 15.9919443,11.4101244 L16,11.5 L16,13.5 C16,13.7454599 15.8231248,13.9496084 15.5898756,13.9919443 L15.5,14 L13.5,14 C13.2545401,14 13.0503916,13.8231248 13.0080557,13.5898756 L13,13.5 L13,11.5 C13,11.2545401 13.1768752,11.0503916 13.4101244,11.0080557 L13.5,11 L14,11 L14,9.984375 L11,9.984375 L11,11 L11.5,11 C11.7454599,11 11.9496084,11.1768752 11.9919443,11.4101244 L12,11.5 L12,13.5 C12,13.7454599 11.8231248,13.9496084 11.5898756,13.9919443 L11.5,14 L9.5,14 C9.25454011,14 9.05039163,13.8231248 9.00805567,13.5898756 L9,13.5 L9,11.5 C9,11.2545401 9.17687516,11.0503916 9.41012437,11.0080557 L9.5,11 L10,11 L10,9.734375 C10,9.35467923 10.2821539,9.04088404 10.6482294,8.99122162 L10.75,8.984375 L12,8.984375 L12,8 L11.5,8 C11.2545401,8 11.0503916,7.82312484 11.0080557,7.58987563 L11,7.5 L11,5.7015625 L9.296875,3.9984375 L9.25,4 L6.7234375,4 L5,5.7234375 L5,7.5 C5,7.74545989 4.82312484,7.94960837 4.58987563,7.99194433 L4.5,8 L4,8 L4,8.984375 L5.25,8.984375 C5.62969577,8.984375 5.94349096,9.26652888 5.99315338,9.63260444 L6,9.734375 L6,11 L6.5,11 C6.74545989,11 6.94960837,11.1768752 6.99194433,11.4101244 L7,11.5 L7,13.5 C7,13.7454599 6.82312484,13.9496084 6.58987563,13.9919443 L6.5,14 L4.5,14 C4.25454011,14 4.05039163,13.8231248 4.00805567,13.5898756 L4,13.5 L4,11.5 C4,11.2545401 4.17687516,11.0503916 4.41012437,11.0080557 L4.5,11 L5,11 L5,9.984375 L2,9.984375 L2,11 L2.5,11 C2.74545989,11 2.94960837,11.1768752 2.99194433,11.4101244 L3,11.5 L3,13.5 C3,13.7454599 2.82312484,13.9496084 2.58987563,13.9919443 L2.5,14 L0.5,14 C0.254540111,14 0.0503916296,13.8231248 0.00805566941,13.5898756 L0,13.5 L0,11.5 C0,11.2545401 0.17687516,11.0503916 0.410124368,11.0080557 L0.5,11 L1,11 L1,9.734375 C1,9.35467923 1.28215388,9.04088404 1.64822944,8.99122162 L1.75,8.984375 L3,8.984375 L3,8 L2.5,8 C2.25454011,8 2.05039163,7.82312484 2.00805567,7.58987563 L2,7.5 L2,5.5 C2,5.25454011 2.17687516,5.05039163 2.41012437,5.00805567 L2.5,5 L4.3078125,5 L6.0015625,3.30625 L6.00078125,3.278125 L6,0.75 C6,0.370304234 6.28215388,0.0565090391 6.64822944,0.00684661599 L6.75,0 L9.25,0 Z M9,1 L7,1 L7,3 L9,3 L9,1 Z"></path></clipPath></defs><g transform="translate(4.0 5.0)"><g clip-path="url(#i0)"><polygon points="0,0 16,0 16,14 0,14 0,0" stroke="none" fill="#151515"></polygon></g></g></svg>