<?xml version="1.0" encoding="UTF-8"?><svg version="1.1" width="24px" height="24px" viewBox="0 0 24.0 24.0" xmlns="http://www.w3.org/2000/svg" xmlns:xlink="http://www.w3.org/1999/xlink"><defs><clipPath id="i0"><path d="M15.428125,11.9996414 C15.58125,11.9996414 15.715625,12.0558914 15.8296875,12.1699539 C15.94375,12.2840164 16,12.4152664 16,12.5715164 L16,14.4277664 C16,14.5840164 15.94375,14.7152664 15.8296875,14.8293289 C15.715625,14.9433914 15.584375,14.9996414 15.428125,14.9996414 L0.56875,14.9996414 C0.4125,14.9996414 0.28125,14.9433914 0.1671875,14.8293289 C0.05625,14.7137039 0,14.5824539 0,14.4262039 L0,12.5715164 C0,12.4183914 0.05625,12.2840164 0.1703125,12.1699539 C0.284375,12.0558914 0.415625,11.9996414 0.571875,11.9996414 Z M2,12.9996414 L1,12.9996414 L1,13.9996414 L2,13.9996414 L2,12.9996414 Z M4,12.9996414 L3,12.9996414 L3,13.9996414 L4,13.9996414 L4,12.9996414 Z M6,12.9996414 L5,12.9996414 L5,13.9996414 L6,13.9996414 L6,12.9996414 Z M8,12.9996414 L7,12.9996414 L7,13.9996414 L8,13.9996414 L8,12.9996414 Z M15,12.9996414 L14,12.9996414 L14,13.9996414 L15,13.9996414 L15,12.9996414 Z M15.428125,7.99964139 C15.58125,7.99964139 15.715625,8.05589139 15.8296875,8.16995389 C15.94375,8.28401639 16,8.41526639 16,8.57151639 L16,10.4277664 C16,10.5840164 15.94375,10.7152664 15.8296875,10.8293289 C15.715625,10.9433914 15.584375,10.9996414 15.428125,10.9996414 L0.56875,10.9996414 C0.4125,10.9996414 0.28125,10.9433914 0.1671875,10.8293289 C0.05625,10.7137039 0,10.5824539 0,10.4262039 L0,8.57151639 C0,8.41839139 0.05625,8.28401639 0.1703125,8.16995389 C0.284375,8.05589139 0.415625,7.99964139 0.571875,7.99964139 Z M2,8.99964139 L1,8.99964139 L1,9.99964139 L2,9.99964139 L2,8.99964139 Z M4,8.99964139 L3,8.99964139 L3,9.99964139 L4,9.99964139 L4,8.99964139 Z M6,8.99964139 L5,8.99964139 L5,9.99964139 L6,9.99964139 L6,8.99964139 Z M8,8.99964139 L7,8.99964139 L7,9.99964139 L8,9.99964139 L8,8.99964139 Z M15,8.99964139 L14,8.99964139 L14,9.99964139 L15,9.99964139 L15,8.99964139 Z M15.428125,3.99964139 C15.58125,3.99964139 15.715625,4.05589139 15.8296875,4.16995389 C15.94375,4.28401639 16,4.41526639 16,4.57151639 L16,6.42776639 C16,6.58401639 15.94375,6.71526639 15.8296875,6.82932889 C15.715625,6.94339139 15.584375,6.99964139 15.428125,6.99964139 L0.56875,6.99964139 C0.4125,6.99964139 0.28125,6.94339139 0.1671875,6.82932889 C0.05625,6.71370389 0,6.58245389 0,6.42620389 L0,4.57151639 C0,4.41839139 0.05625,4.28401639 0.1703125,4.16995389 C0.284375,4.05589139 0.415625,3.99964139 0.571875,3.99964139 Z M2,4.99964139 L1,4.99964139 L1,5.99964139 L2,5.99964139 L2,4.99964139 Z M4,4.99964139 L3,4.99964139 L3,5.99964139 L4,5.99964139 L4,4.99964139 Z M6,4.99964139 L5,4.99964139 L5,5.99964139 L6,5.99964139 L6,4.99964139 Z M8,4.99964139 L7,4.99964139 L7,5.99964139 L8,5.99964139 L8,4.99964139 Z M15,4.99964139 L14,4.99964139 L14,5.99964139 L15,5.99964139 L15,4.99964139 Z M2.8984375,0.00323514227 L13.1346875,0.00323514227 C13.1346875,0.00323514227 13.3190625,-0.0186398577 13.4860938,0.162610142 C13.6023047,0.290884882 14.7328849,1.42906034 15.3825041,2.08208376 L15.5893758,2.28998345 C15.6803914,2.38142649 15.7509505,2.45228349 15.7928353,2.4943382 L15.8359375,2.53761014 C15.9671875,2.66886014 16,2.68917264 16,2.83136014 C16,2.98136014 15.8171875,3.00011014 15.6359375,3.00011014 L0.3453125,3.00011014 C0.16875,3.00120389 0,2.97464139 0,2.83089139 C0,2.68714139 0.01875,2.66682889 0.15,2.53870389 L0.193594202,2.49549634 C0.348922752,2.34151255 0.894140738,1.80073566 1.41934332,1.27645114 L1.83627315,0.85935204 C2.188125,0.506412225 2.47026042,0.220370559 2.525,0.156360142 C2.68921875,-0.0356711077 2.8984375,0.00323514227 2.8984375,0.00323514227 Z"></path></clipPath></defs><g transform="translate(4.0 5.0)"><g clip-path="url(#i0)"><polygon points="0,0 16,0 16,14.9996414 0,14.9996414 0,0" stroke="none" fill="#151515"></polygon></g></g></svg>