<?xml version="1.0" encoding="UTF-8"?><svg version="1.1" width="24px" height="24px" viewBox="0 0 24.0 24.0" xmlns="http://www.w3.org/2000/svg" xmlns:xlink="http://www.w3.org/1999/xlink"><defs><clipPath id="i0"><path d="M7.4719755,0 C9.28392037,0.00735068913 10.901072,0.833078101 11.9767228,2.12557427 C12.0009791,2.1548884 12.0060776,2.19559228 11.9898008,2.22998347 C11.9735241,2.26437466 11.9388138,2.28623776 11.9007657,2.28606432 L11.1436447,2.28606432 C11.0928874,2.28598717 11.0441388,2.26622426 11.007657,2.23093415 C10.5548921,1.79051871 10.0249982,1.43711765 9.44441041,1.18836141 C9.66333236,1.48836497 9.85132477,1.8097581 10.005513,2.14762634 C10.0191931,2.17813074 10.016573,2.21347617 9.99854462,2.24163005 C9.98051626,2.26978394 9.9495094,2.28695188 9.91607963,2.28728943 L9.32434916,2.28728943 C9.20918836,2.28728943 9.14548239,2.18070444 9.10382848,2.10597243 C8.8575804,1.66738132 8.56722818,1.31577335 8.26462481,1.08790199 C8.13612527,0.988685819 7.99316604,0.909769017 7.84073507,0.853905054 L7.84073507,3.13629403 L8.66156202,3.13629403 C8.70150817,3.13462508 8.73823,3.15812706 8.75344564,3.19509954 C8.82652941,3.3906079 8.88950194,3.5897483 8.94211332,3.79173047 C8.95926493,3.85298622 8.91148545,3.92036753 8.84777948,3.92036753 L7.84073507,3.92036753 L7.84073507,5.48851455 L13.1283308,5.48851455 C13.2347035,5.4884813 13.3216898,5.57329297 13.3243492,5.67963247 L13.3292496,5.88177642 C13.3292496,6.01408882 13.3255743,6.143951 13.3169985,6.27381317 C13.1148545,9.33905054 10.5641654,11.7611165 7.44869832,11.7611165 C6.51571982,11.7625429 5.59588212,11.5411938 4.76569678,11.1154671 C4.7379727,11.1009508 4.71877092,11.0741519 4.71393976,11.0432325 C4.70910862,11.0123132 4.71922008,10.980934 4.74119449,10.9586524 L5.18101072,10.5200613 C5.21004481,10.4911052 5.2540359,10.4832845 5.29127106,10.5004594 C5.34517611,10.5249617 5.39908116,10.549464 5.45421133,10.5727412 C5.42480858,10.5323124 5.39540582,10.4906585 5.36600306,10.4490046 C5.3390482,10.4101459 5.34368625,10.3575812 5.3770291,10.3240429 L5.80091884,9.90015314 C5.82181629,9.87955 5.85084636,9.86939508 5.88002989,9.87247951 C5.90921344,9.87556396 5.93547925,9.89156316 5.95160796,9.91607963 C6.1611026,10.2333844 6.39264931,10.4931087 6.63277182,10.6732006 C6.76127136,10.7724168 6.90423059,10.8513336 7.05666156,10.9071975 L7.05666156,8.75712098 C7.05656426,8.6531984 7.01513131,8.553583 6.94150077,8.48024502 L6.46493109,8.00245023 C6.43713556,7.97509905 6.4290053,7.93347826 6.44446467,7.89767761 C6.45992404,7.86187697 6.49579479,7.83925661 6.53476263,7.84073507 L7.05666156,7.84073507 L7.05666156,6.27258806 L2.3669219,6.27258806 C2.38360268,6.49408181 2.41470487,6.71425258 2.46003063,6.93169985 C2.47350689,6.99295559 2.42695253,7.05666156 2.36447167,7.05666156 L1.76539051,7.05666156 C1.71761103,7.05666156 1.67718224,7.01745789 1.66860643,6.97090352 C1.62572741,6.74303216 1.56814701,6.20888208 1.56814701,6.07656968 L1.56814701,5.91485452 C1.56814701,2.68790199 4.19601838,0.017151608 7.41807044,0 Z M9.55467075,8.62480858 L7.84073507,8.62480858 L7.84073507,10.9059724 C7.99316604,10.8501085 8.13612527,10.7711917 8.26462481,10.6719755 C8.56722818,10.4453292 8.8575804,10.0924962 9.10382848,9.65390505 C9.28745305,9.32646759 9.4384593,8.98177941 9.55467075,8.62480858 Z M11.7488515,8.618683 L10.3767228,8.618683 C10.1488515,9.3856049 9.82909648,10.0520674 9.44441041,10.5727412 C10.0455636,10.3169067 10.5917305,9.94752649 11.0529862,9.4848392 C11.3154349,9.2220031 11.5487417,8.93160187 11.7488515,8.618683 Z M4.25482389,6.98928025 L5.7482389,8.47901991 C5.82456518,8.55553127 5.82456518,8.6793845 5.7482389,8.75589587 L4.25482389,10.2517611 C4.1323124,10.3754977 3.92036753,10.2885145 3.92036753,10.1133231 L3.92036753,9.40888208 L0.196018377,9.40888208 C0.0882082695,9.40888208 0,9.31454824 0,9.20673813 L0,8.03062787 C0,7.92281776 0.0882082695,7.84073507 0.196018377,7.84073507 L3.92036753,7.84073507 L3.92036753,7.12771822 C3.92036753,6.95375191 4.13108729,6.86554364 4.25482389,6.98928025 Z M9.96508423,6.27258806 L7.84073507,6.27258806 L7.84073507,7.84073507 L9.76906585,7.84073507 C9.88012581,7.32475543 9.94571658,6.80002923 9.96508423,6.27258806 Z M12.5304747,6.27258806 L10.7491577,6.27258806 C10.7301803,6.79717878 10.6699639,7.31946372 10.5690658,7.83460949 L12.1568147,7.83460949 C12.36451,7.33740221 12.4906824,6.80996038 12.5304747,6.27258806 Z M14.4416539,2.29464012 L15.936294,3.7856049 C15.9742726,3.82358346 16,3.87381317 16,3.92404288 C16,3.97427259 15.9742726,4.0245023 15.9375191,4.06370597 L14.4441041,5.55957121 C14.3215926,5.68330781 14.1096478,5.59632466 14.1096478,5.42113323 L14.1096478,4.70444104 L10.0018377,4.70444104 C9.95283308,4.70444104 9.91117917,4.67748851 9.9050536,4.62848392 C9.86584992,4.33690658 9.81316998,4.05186319 9.74701378,3.77335375 C9.70658499,3.60183767 9.66003063,3.43522205 9.60980092,3.27350689 C9.59019908,3.20980092 9.63675345,3.13629403 9.70290965,3.13629403 L14.1071975,3.13629403 L14.1071975,2.4330781 C14.1071975,2.25911179 14.3179173,2.17090352 14.4416539,2.29464012 Z M4.33078101,3.92036753 L2.74548239,3.92036753 C2.53492693,4.41904138 2.40706362,4.94870176 2.3669219,5.48851455 L4.1482389,5.48851455 C4.16733867,4.96178015 4.22837921,4.43740506 4.33078101,3.92036753 Z M7.05666156,3.92036753 L5.13078101,3.92036753 C5.0188933,4.43627338 4.9524825,4.96100069 4.9323124,5.48851455 L7.05666156,5.48851455 L7.05666156,3.92036753 Z M5.45421133,1.18836141 C4.85305819,1.4441959 4.30689127,1.81357611 3.84563553,2.2762634 C3.58698092,2.53801631 3.35661379,2.82628321 3.15834609,3.13629403 L4.52434916,3.13629403 C4.75099541,2.3754977 5.07075038,1.70535988 5.45421133,1.18836141 Z M7.05666156,0.855130168 C6.90423059,0.910994132 6.76127136,0.989910934 6.63277182,1.08912711 C6.33016845,1.31699847 6.03981623,1.66860643 5.79356815,2.10719755 C5.62082695,2.41470138 5.47136294,2.762634 5.34640123,3.13629403 L7.05666156,3.13629403 Z"></path></clipPath></defs><g transform="translate(4.0 6.0)"><g clip-path="url(#i0)"><polygon points="0,0 16,0 16,11.7611234 0,11.7611234 0,0" stroke="none" fill="#151515"></polygon></g></g></svg>