<?xml version="1.0" encoding="UTF-8"?><svg version="1.1" width="24px" height="24px" viewBox="0 0 24.0 24.0" xmlns="http://www.w3.org/2000/svg" xmlns:xlink="http://www.w3.org/1999/xlink"><defs><clipPath id="i0"><path d="M14.0055556,10.6666667 C14.2222222,10.4111111 14.2222222,10.6666667 14.2222222,10.6666667 L14.2222222,12.4444444 C14.2222222,13.4263889 11.4375,14.2222222 8,14.2222222 C4.5625,14.2222222 1.77777778,13.4263889 1.77777778,12.4444444 L1.77797187,10.6609066 C1.77979798,10.6244261 1.79873737,10.4343434 1.99444444,10.6666667 C2.44027778,11.1944444 3.80972222,12.0027778 8,12 C12.1902778,11.9972222 13.5583333,11.1930556 14.0055556,10.6666667 Z M15.7777778,1.77777778 C15.9,1.77777778 16,1.87777778 16,2 L16,12.2222222 C16,12.3444444 15.9,12.4444444 15.7777778,12.4444444 L15.3333333,12.4444444 C15.2111111,12.4444444 15.1111111,12.3444444 15.1111111,12.2222222 L15.1111111,2 C15.1111111,1.87777778 15.2111111,1.77777778 15.3333333,1.77777778 Z M0.666666667,1.77777778 C0.788888889,1.77777778 0.888888889,1.87777778 0.888888889,2 L0.888888889,12.2222222 C0.888888889,12.3444444 0.788888889,12.4444444 0.666666667,12.4444444 L0.222222222,12.4444444 C0.1,12.4444444 0,12.3444444 0,12.2222222 L0,2 C0,1.87777778 0.1,1.77777778 0.222222222,1.77777778 Z M14.0055556,7.55555556 C14.2222222,7.3 14.2222222,7.55555556 14.2222222,7.55555556 L14.2222222,8.88888889 C14.2222222,9.87083333 11.4375,10.6666667 8,10.6666667 C4.5625,10.6666667 1.77777778,9.87083333 1.77777778,8.88888889 L1.77794056,7.54979548 C1.77956841,7.51331497 1.79747475,7.32323232 1.99444444,7.55555556 C2.44027778,8.08194444 3.80972222,8.88888889 8,8.88888889 C12.1902778,8.88888889 13.5597222,8.08194444 14.0055556,7.55555556 Z M14.0055556,4.44444444 C14.2222222,4.18888889 14.2222222,4.44444444 14.2222222,4.44444444 L14.2222222,5.77777778 C14.2222222,6.75972222 11.4375,7.55555556 8,7.55555556 C4.5625,7.55555556 1.77777778,6.75972222 1.77777778,5.77777778 L1.77794056,4.43868436 C1.77956841,4.40220386 1.79747475,4.21212121 1.99444444,4.44444444 C2.44027778,4.97083333 3.80972222,5.77777778 8,5.77777778 C12.1902778,5.77777778 13.5597222,4.97083333 14.0055556,4.44444444 Z M8,0 C11.4375,0 14.2222222,0.795833333 14.2222222,1.77777778 L14.2222222,2.66666667 C14.2222222,3.64861111 11.4375,4.44444444 8,4.44444444 C4.5625,4.44444444 1.77777778,3.64861111 1.77777778,2.66666667 L1.77777778,1.77777778 C1.77777778,0.795833333 4.5625,0 8,0 Z"></path></clipPath></defs><g transform="translate(4.0 5.000000000000001)"><g clip-path="url(#i0)"><polygon points="0,0 16,0 16,14.2222222 0,14.2222222 0,0" stroke="none" fill="#151515"></polygon></g></g></svg>