<?xml version="1.0" encoding="UTF-8"?>
<svg width="24px" height="24px" viewBox="0 0 24 24" version="1.1" xmlns="http://www.w3.org/2000/svg" xmlns:xlink="http://www.w3.org/1999/xlink">
    <title></title>
    <g id="Icons" stroke="none" stroke-width="1" fill="none" fill-rule="evenodd">
        <g id="Icons/1.-Size-md/Object/pficon-cluster" fill="#151515">
            <path d="M19.8296875,9.16995389 C19.715625,9.05589139 19.58125,8.99964139 19.428125,8.99964139 L4.571875,8.99964139 C4.415625,8.99964139 4.284375,9.05589139 4.1703125,9.16995389 C4.05625,9.28401639 4,9.41839139 4,9.57151639 L4,11.4262039 C4,11.5824539 4.05625,11.7137039 4.1671875,11.8293289 C4.28125,11.9433914 4.4125,11.9996414 4.56875,11.9996414 L19.428125,11.9996414 C19.584375,11.9996414 19.715625,11.9433914 19.8296875,11.8293289 C19.94375,11.7152664 20,11.5840164 20,11.4277664 L20,9.57151639 C20,9.41526639 19.94375,9.28401639 19.8296875,9.16995389 Z M6,10.9996414 L5,10.9996414 L5,9.99964139 L6,9.99964139 L6,10.9996414 Z M8,10.9996414 L7,10.9996414 L7,9.99964139 L8,9.99964139 L8,10.9996414 Z M10,10.9996414 L9,10.9996414 L9,9.99964139 L10,9.99964139 L10,10.9996414 Z M12,10.9996414 L11,10.9996414 L11,9.99964139 L12,9.99964139 L12,10.9996414 Z M19,10.9996414 L18,10.9996414 L18,9.99964139 L19,9.99964139 L19,10.9996414 Z M4,7.83089139 C4,7.68714139 4.01875,7.66682889 4.15,7.53870389 C4.15,7.53870389 6.36078125,5.34839139 6.525,5.15636014 C6.68921875,4.96432889 6.8984375,5.00323514 6.8984375,5.00323514 L17.1346875,5.00323514 C17.1346875,5.00323514 17.3190625,4.98136014 17.4860938,5.16261014 C17.6501563,5.34370389 19.8359375,7.53761014 19.8359375,7.53761014 C19.9671875,7.66886014 20,7.68917264 20,7.83136014 C20,7.98136014 19.8171875,8.00011014 19.6359375,8.00011014 L4.3453125,8.00011014 C4.16875,8.00120389 4,7.97464139 4,7.83089139 Z M19.8296875,17.1699539 C19.715625,17.0558914 19.58125,16.9996414 19.428125,16.9996414 L4.571875,16.9996414 C4.415625,16.9996414 4.284375,17.0558914 4.1703125,17.1699539 C4.05625,17.2840164 4,17.4183914 4,17.5715164 L4,19.4262039 C4,19.5824539 4.05625,19.7137039 4.1671875,19.8293289 C4.28125,19.9433914 4.4125,19.9996414 4.56875,19.9996414 L19.428125,19.9996414 C19.584375,19.9996414 19.715625,19.9433914 19.8296875,19.8293289 C19.94375,19.7152664 20,19.5840164 20,19.4277664 L20,17.5715164 C20,17.4152664 19.94375,17.2840164 19.8296875,17.1699539 Z M6,18.9996414 L5,18.9996414 L5,17.9996414 L6,17.9996414 L6,18.9996414 Z M8,18.9996414 L7,18.9996414 L7,17.9996414 L8,17.9996414 L8,18.9996414 Z M10,18.9996414 L9,18.9996414 L9,17.9996414 L10,17.9996414 L10,18.9996414 Z M12,18.9996414 L11,18.9996414 L11,17.9996414 L12,17.9996414 L12,18.9996414 Z M19,18.9996414 L18,18.9996414 L18,17.9996414 L19,17.9996414 L19,18.9996414 Z M19.8296875,13.1699539 C19.715625,13.0558914 19.58125,12.9996414 19.428125,12.9996414 L4.571875,12.9996414 C4.415625,12.9996414 4.284375,13.0558914 4.1703125,13.1699539 C4.05625,13.2840164 4,13.4183914 4,13.5715164 L4,15.4262039 C4,15.5824539 4.05625,15.7137039 4.1671875,15.8293289 C4.28125,15.9433914 4.4125,15.9996414 4.56875,15.9996414 L19.428125,15.9996414 C19.584375,15.9996414 19.715625,15.9433914 19.8296875,15.8293289 C19.94375,15.7152664 20,15.5840164 20,15.4277664 L20,13.5715164 C20,13.4152664 19.94375,13.2840164 19.8296875,13.1699539 Z M6,14.9996414 L5,14.9996414 L5,13.9996414 L6,13.9996414 L6,14.9996414 Z M8,14.9996414 L7,14.9996414 L7,13.9996414 L8,13.9996414 L8,14.9996414 Z M10,14.9996414 L9,14.9996414 L9,13.9996414 L10,13.9996414 L10,14.9996414 Z M12,14.9996414 L11,14.9996414 L11,13.9996414 L12,13.9996414 L12,14.9996414 Z M19,14.9996414 L18,14.9996414 L18,13.9996414 L19,13.9996414 L19,14.9996414 Z" id="pficon-cluster"></path>
        </g>
    </g>
</svg>