<?xml version="1.0" encoding="UTF-8"?><svg version="1.1" width="24px" height="24px" viewBox="0 0 24.0 24.0" xmlns="http://www.w3.org/2000/svg" xmlns:xlink="http://www.w3.org/1999/xlink"><defs><clipPath id="i0"><path d="M8.0015625,0 C12.321875,0 15.853125,3.44375 15.9953125,7.7296875 C16,7.8703125 15.8859375,7.9875 15.7453125,7.9875 L14.24375,7.9875 C14.1109375,7.9875 14,7.8828125 13.99375,7.7484375 C13.8625,4.55625 11.2234375,2 8,2 C6.3453125,2 4.8453125,2.6734375 3.759375,3.759375 L4.7546875,4.7546875 L5.209375,4.3 C5.2796875,4.2296875 5.4046875,4.2140625 5.4859375,4.275 L6.4875,5.134375 C6.6609375,5.04375 6.84375,4.9671875 7.034375,4.909375 L7.1078125,3.58125 C7.1359375,3.48125 7.221875,3.409375 7.321875,3.409375 L8.6546875,3.409375 C8.7546875,3.409375 8.8546875,3.4875 8.86875,3.5875 L8.95625,4.9140625 C9.140625,4.971875 9.31875,5.0453125 9.4890625,5.134375 L10.484375,4.24375 C10.575,4.1921875 10.6875,4.203125 10.7578125,4.2734375 L11.7,5.215625 C11.7703125,5.2859375 11.7859375,5.4109375 11.725,5.4921875 L10.8546875,6.4859375 C10.9453125,6.6578125 11.0234375,6.8390625 11.0828125,7.0265625 L12.403125,7.1 C12.503125,7.128125 12.575,7.2140625 12.5765625,7.315625 L12.5765625,8.6484375 C12.5765625,8.7484375 12.4984375,8.8484375 12.3984375,8.8625 L11.1015625,8.9484375 C11.0421875,9.14375 10.965625,9.3328125 10.8734375,9.5109375 L11.3125,10.0015625 L15.875,10.0015625 C15.94375,10 16,10.05625 16,10.125 L16,15.6984375 C16,15.809375 15.865625,15.865625 15.7859375,15.7875 L13.6546875,13.6546875 C12.20625,15.103125 10.20625,16 8.0015625,16 C3.6765625,16 0.140625,12.55 0.0046875,8.2578125 C0,8.1171875 0.1140625,8 0.2546875,8 L1.75625,8 C1.890625,8 2,8.1046875 2.00625,8.2390625 C2.13125,11.4390625 4.771875,14 8.0015625,14 C9.65625,14 11.15625,13.3265625 12.24375,12.240625 L11.2328125,11.2296875 L10.7671875,11.6953125 C10.696875,11.765625 10.571875,11.78125 10.490625,11.7203125 L9.5296875,10.878125 C9.346875,10.9765625 9.1546875,11.0578125 8.9546875,11.1203125 L8.9046875,12.3984375 C8.8765625,12.4984375 8.790625,12.5703125 8.690625,12.5703125 L7.3578125,12.5703125 C7.2578125,12.5703125 7.1578125,12.4921875 7.14375,12.3921875 L7.046875,11.1296875 C6.8421875,11.0671875 6.64375,10.9859375 6.4578125,10.8859375 L5.521875,11.75 C5.43125,11.8015625 5.31875,11.790625 5.2484375,11.7203125 L4.30625,10.778125 C4.2359375,10.7078125 4.2203125,10.5828125 4.28125,10.5015625 L5.1125,9.5328125 C5.015625,9.3484375 4.9359375,9.1546875 4.875,8.9515625 L3.5890625,8.9 C3.4890625,8.871875 3.4171875,8.7859375 3.4171875,8.6859375 L3.4171875,7.353125 C3.4171875,7.253125 3.4953125,7.153125 3.5953125,7.1390625 L4.8890625,7.0390625 C4.9515625,6.84375 5.03125,6.65625 5.1265625,6.478125 L4.6859375,6.0015625 L0.125,6.0015625 C0.05625,6.0015625 0,5.9453125 0,5.8765625 L0,0.3015625 C0,0.190625 0.134375,0.134375 0.2140625,0.2125 L2.346875,2.3453125 C3.7953125,0.8984375 5.7953125,0 8.0015625,0 Z M7.9859375,6.0140625 C6.88125,6.0140625 5.9859375,6.909375 5.9859375,8.0140625 C5.9859375,9.11875 6.88125,10.0140625 7.9859375,10.0140625 C9.090625,10.0140625 9.9859375,9.11875 9.9859375,8.0140625 C9.9859375,6.909375 9.090625,6.0140625 7.9859375,6.0140625 Z"></path></clipPath></defs><g transform="translate(4.0 4.0)"><g clip-path="url(#i0)"><polygon points="0,0 16,0 16,16 0,16 0,0" stroke="none" fill="#151515"></polygon></g></g></svg>