<?xml version="1.0" encoding="UTF-8"?><svg version="1.1" width="24px" height="24px" viewBox="0 0 24.0 24.0" xmlns="http://www.w3.org/2000/svg" xmlns:xlink="http://www.w3.org/1999/xlink"><defs><clipPath id="i0"><path d="M14.5,0 C15.3284375,0 16,0.6715625 16,1.5 L16,10.5 C16,11.3284375 15.3284375,12 14.5,12 L1.5,12 C0.6715625,12 0,11.3284375 0,10.5 L0,1.5 C0,0.6715625 0.6715625,0 1.5,0 L14.5,0 Z M10.7348125,3.76515625 L6.5,8 L4.76515625,6.26515625 C4.61871875,6.11871875 4.38128125,6.11871875 4.2348125,6.26515625 L2,8.5 L2,10 L14,10 L14,6.5 L11.2651563,3.76515625 C11.1187188,3.61871875 10.8812813,3.61871875 10.7348125,3.76515625 Z M3.5,1.75 C2.5335,1.75 1.75,2.5335 1.75,3.5 C1.75,4.4665 2.5335,5.25 3.5,5.25 C4.4665,5.25 5.25,4.4665 5.25,3.5 C5.25,2.5335 4.4665,1.75 3.5,1.75 Z"></path></clipPath></defs><g transform="translate(4.0 6.0)"><g clip-path="url(#i0)"><polygon points="0,0 16,0 16,12 0,12 0,0" stroke="none" fill="#151515"></polygon></g></g></svg>