<?xml version="1.0" encoding="UTF-8"?><svg version="1.1" width="24px" height="24px" viewBox="0 0 24.0 24.0" xmlns="http://www.w3.org/2000/svg" xmlns:xlink="http://www.w3.org/1999/xlink"><defs><clipPath id="i0"><path d="M15.0588235,0.941176471 C15.9446367,0.941176471 15.9967433,1.81135762 15.9998084,1.91373188 L16,13.1764706 C16,14.0185759 14.7956371,14.0824955 14.542087,14.0866215 L14.4955882,14.0867647 C13.0237995,11.8634754 9.9399374,13.2906258 8.85674228,13.88989 L8.7097196,13.9730106 C8.5567527,14.0614346 8.47058824,14.1176471 8.47058824,14.1176471 L8.47058824,13.1382353 C12.6911765,10.2455882 15.0588235,13.1764706 15.0588235,13.1764706 L15.0588235,0.941176471 Z M0.941176471,0.941176471 L0.941176471,13.1764706 C0.941176471,13.1763009 0.972894187,13.1371498 1.03547116,13.0724588 L1.10830277,12.9997523 C1.7173686,12.4114427 3.97058824,10.6906109 7.52941176,13.1382353 L7.52941176,14.1176471 C7.52941176,14.1176471 3.35147059,11.3794118 1.50735294,14.0867647 L1.46076323,14.0866215 C1.20671745,14.0824955 0,14.0185759 0,13.1764706 L0,1.92352941 C0,1.92352941 0,0.941176471 0.941176471,0.941176471 Z M14.1176471,0 L14.1176471,11.2941176 C13.2176471,11.0455882 10.8529412,10.7132353 8.47058824,12.2352941 L8.47058824,1.88235294 C10.1073529,0.832352941 12.8617647,0 14.1176471,0 Z M1.88235294,0 C3.13088235,0 5.89117647,0.827941176 7.52941176,1.88235294 L7.52941176,12.2352941 C5.17647059,10.7132353 2.78382353,11.0470588 1.88235294,11.2941176 L1.88235294,0 Z"></path></clipPath></defs><g transform="translate(4.0 4.999999999999999)"><g clip-path="url(#i0)"><polygon points="0,0 16,0 16,14.1176471 0,14.1176471 0,0" stroke="none" fill="#151515"></polygon></g></g></svg>