<?xml version="1.0" encoding="UTF-8"?>
<svg width="24px" height="24px" viewBox="0 0 24 24" version="1.1" xmlns="http://www.w3.org/2000/svg" xmlns:xlink="http://www.w3.org/1999/xlink">
    <title></title>
    <g id="Icons" stroke="none" stroke-width="1" fill="none" fill-rule="evenodd">
        <g id="Icons/1.-Size-md/Object/pficon-automation" fill="#151515">
            <path d="M16,8 L16,8.021875 C15.9547274,8.0129285 15.9086437,8.00873908 15.8625,8.009375 C15.0185866,7.9951078 14.191373,8.24534814 13.496875,8.725 C13.2492589,8.88613387 13.1086177,9.16897434 13.1295806,9.46365795 C13.1505435,9.75834156 13.3298066,10.018425 13.597739,10.1428843 C13.8656713,10.2673437 14.1800457,10.2365636 14.41875,10.0625 C14.8351585,9.77472866 15.331417,9.62497666 15.8375,9.634375 C15.8919289,9.63499606 15.9463064,9.63081317 16,9.621875 L16,9.628125 C17.309375,9.628125 18.375,10.69375 18.375,12.0015625 C18.3739463,12.9258554 17.8378451,13.7659502 17,14.15625 L17,15.878125 C18.725,15.434375 20,13.86875 20,12.0046875 C20,9.790625 18.209375,8 16,8 M15.665625,11.0625 C15.428125,10.965625 15.225,11.00625 15.059375,11.184375 L13.925,12.309375 L13.675,12.559375 L9.74375,8.5765625 C9.140625,8.0765625 8.759375,8 8,8 C5.790625,8 4,9.8046875 4,12.0125 C4,14.2203125 5.790625,16 8,16 C8.75,16 9.378125,15.7328125 9.9375,15.2953125 L9.928125,15.2890625 L10.0125,15.2328125 C10.2533838,15.0658433 10.385818,14.7821964 10.3591698,14.4903169 C10.3325216,14.1984375 10.150912,13.9434624 9.88377466,13.8228748 C9.61663734,13.7022871 9.305283,13.7347349 9.06875,13.9078125 C8.70774838,14.165428 8.28291783,14.3189291 7.840625,14.3515625 C6.55,14.334375 5.625,13.309375 5.625,12.0125 C5.625,10.725 6.590625,9.6765625 7.86875,9.6390625 L7.940625,9.6390625 C7.953125,9.6421875 7.965625,9.6390625 7.975,9.6421875 L7.98125,9.6421875 C8.209375,9.6390625 8.571875,9.7234375 8.884375,9.9734375 L12.540625,13.696875 L11.16875,15.06875 C10.990625,15.24375 10.95,15.440625 11.046875,15.66875 C11.14375,15.9 11.315625,16 11.559375,16 L15.446875,16 C15.596875,16 15.728125,15.959375 15.8375,15.85 C15.9440157,15.748066 16.0039105,15.6068047 16.0031401,15.459375 L16.0031401,11.575 C16.0031401,11.33125 15.890625,11.159375 15.665625,11.0625" id="pficon-automation"></path>
        </g>
    </g>
</svg>