<?xml version="1.0" encoding="UTF-8"?><svg version="1.1" width="24px" height="24px" viewBox="0 0 24.0 24.0" xmlns="http://www.w3.org/2000/svg" xmlns:xlink="http://www.w3.org/1999/xlink"><defs><clipPath id="i0"><path d="M14.2457168,10.0459072 L14.3071424,10.0595344 L15.5551112,10.5000031 C15.8219622,10.5958094 15.999955,10.8488186 15.999955,11.1323469 L15.999955,11.4075031 C15.9997647,11.6469042 15.8692241,11.8672064 15.65933,11.9823469 L8.62979867,15.835472 C8.43731373,15.943122 8.2204973,15.9997599 7.99995492,16.0000032 C7.7745442,15.9998421 7.55275653,15.9432806 7.35479867,15.835472 L0.34167368,11.9823469 C0.131658772,11.8672886 0.000988983779,11.6469705 0.000736179087,11.4075031 L0.000736179087,11.1137531 C0.00300632609,10.8372958 0.177301933,10.5915359 0.43745493,10.4979719 L1.57261117,10.0903156 C1.63484784,10.0682566 1.70326452,10.071568 1.76307992,10.0995344 L2.40370492,10.3996906 C2.60495492,10.4934406 2.59104867,10.7856281 2.38182992,10.8606281 L1.73870492,11.0917219 L7.99995492,14.3151594 L14.2343299,11.0937531 L13.4735487,10.8203156 C13.2613612,10.7439094 13.2504237,10.4470344 13.4579237,10.3564094 L14.1229237,10.0656281 C14.1813125,10.0402081 14.2472013,10.0380286 14.3071424,10.0595344 Z M13.3241714,6.15276025 L13.3799549,6.1664094 L15.4877674,6.90625315 C15.7999959,7.0171944 16.0056867,7.31608885 15.9977675,7.6473469 L15.9977675,7.8489094 C16.0126436,8.16858623 15.8289103,8.46434907 15.5357362,8.5926594 L12.5396424,9.9135969 L8.50839242,11.6776594 C8.16887447,11.8256408 7.78298698,11.825131 7.44386117,11.6762531 L0.46870493,8.60937815 C0.172807484,8.48067521 -0.0132387139,8.18300131 0.000736179087,7.86062815 L0.000736179087,7.65750315 C-0.0042062012,7.32387893 0.203813211,7.02413245 0.51807993,6.9120344 L2.59104867,6.16844065 C2.64565472,6.14984463 2.70488014,6.14984463 2.75948617,6.16844065 L3.49792367,6.4326594 C3.71792367,6.5107844 3.71792367,6.8232844 3.49792367,6.90281565 L1.71057992,7.54344065 L7.99995492,10.1059406 L14.2680799,7.54687815 L12.4699549,6.9007844 C12.2482362,6.8226594 12.2482362,6.5085969 12.4699549,6.4304719 L13.2113612,6.1664094 C13.2656944,6.14593568 13.3256217,6.14593568 13.3799549,6.1664094 Z M8.33823617,5.4120344 C8.49034223,5.36204307 8.6572038,5.38816485 8.78675517,5.48224899 C8.91630655,5.57633312 8.99277445,5.72692457 8.99230308,5.8870344 L8.99230308,6.4964094 C8.99219825,6.70728049 8.85981223,6.89542113 8.66136117,6.9667219 L8.17120492,7.14812815 C8.05522506,7.19795874 7.92464575,7.20186831 7.80589242,7.15906565 L7.32682992,6.99500315 C7.12820177,6.9239349 6.9957142,6.73564991 6.99589043,6.52469065 L6.99589043,5.91375315 C6.99557219,5.75373321 7.07205252,5.60327699 7.20152017,5.5092312 C7.33098783,5.4151854 7.49771866,5.38897209 7.64979867,5.43875315 L7.99995492,5.5214094 Z M3.70367959,4.24989962 C3.83311858,4.15590559 3.99977933,4.12967965 4.15182992,4.17937815 L5.15089242,4.5057844 C5.35652442,4.57283332 5.49573311,4.76449745 5.49589242,4.9807844 L5.49526742,5.6229719 C5.49564033,5.78576463 5.41673703,5.93854702 5.28377905,6.03248204 C5.15082105,6.12641704 4.98045644,6.14974277 4.82714242,6.09500315 L3.82807992,5.73562815 C3.63004461,5.6641052 3.49803705,5.47618338 3.49792289,5.26562815 L3.49792289,4.6542219 C3.49772291,4.49425538 3.57424061,4.34389366 3.70367959,4.24989962 Z M11.8346424,4.17312815 C11.9867516,4.12306252 12.153654,4.14915354 12.2832265,4.24325306 C12.4127991,4.33735259 12.4892504,4.48799235 12.4887107,4.64812815 L12.4887107,5.25781565 C12.4889393,5.46915713 12.3565514,5.65792557 12.1577674,5.72969065 L11.1587049,6.08594065 C11.0056696,6.14052312 10.8356551,6.11734209 10.7028187,6.02378176 C10.5699823,5.93022143 10.49089,5.77794966 10.4907362,5.6154719 L10.4907362,4.9748469 C10.4909631,4.75861754 10.6301589,4.56703418 10.8357362,4.50000315 Z M7.99995492,1.0394603e-06 C8.15224216,0.000127573586 8.30327483,0.0275399526 8.44589242,0.0809406521 L15.5691737,2.67937815 C15.8276067,2.7739234 15.9996055,3.01966282 15.9999559,3.2948469 L15.9999559,3.88719065 C16.0002902,4.17113854 15.8218041,4.42453632 15.5543299,4.5198469 L14.4194862,4.9198469 C14.3204043,4.95520165 14.2103199,4.94018451 14.1243278,4.87958296 C14.0383358,4.81898141 13.9871701,4.72036006 13.9871424,4.6151594 L13.9871424,3.6745344 L7.99995492,1.48437815 L1.99995492,3.66531565 L1.99995492,4.3651594 C1.99997527,4.52784899 1.92084145,4.68037652 1.78781995,4.77404182 C1.65479845,4.8677071 1.48452327,4.89079756 1.33136118,4.83594065 L0.44792368,4.5201594 C0.181611281,4.42483429 0.00306001887,4.17347752 0.000725605126,3.89062815 L0.000725605126,3.29687815 C-0.000372877431,3.02012024 0.172264777,2.77241459 0.43229868,2.6776594 L7.53589242,0.0809406521 C7.68470005,0.027194799 7.84173898,-0.000194483091 7.99995492,1.0394603e-06 Z"></path></clipPath></defs><g transform="translate(4.0 4.0)"><g clip-path="url(#i0)"><polygon points="1.08420217e-19,-3.83921707e-16 15.9999564,-3.83921707e-16 15.9999564,16.0000032 1.08420217e-19,16.0000032 1.08420217e-19,-3.83921707e-16" stroke="none" fill="#151515"></polygon></g></g></svg>