<?xml version="1.0" encoding="UTF-8"?><svg version="1.1" width="24px" height="24px" viewBox="0 0 24.0 24.0" xmlns="http://www.w3.org/2000/svg" xmlns:xlink="http://www.w3.org/1999/xlink"><defs><clipPath id="i0"><path d="M10.25,0 C13.425,0 16,2.575 16,5.75 C16,7.0484375 15.56875,8.246875 14.84375,9.209375 C14.9046875,9.546875 14.9375,9.8953125 14.9375,10.25 C14.9375,13.425 12.3625,16 9.1875,16 C6.7859375,16 4.7265625,14.5265625 3.8671875,12.434375 C1.615625,11.6546875 0,9.515625 0,7 C0,3.825 2.575,1.25 5.75,1.25 C6.0359375,1.25 6.31875,1.2703125 6.59375,1.3109375 C7.5875,0.4921875 8.8609375,0 10.25,0 Z M13.684375,10.359375 C12.7265625,11.075 11.5359375,11.4984375 10.2484375,11.4984375 C9.9625,11.4984375 9.6796875,11.478125 9.4046875,11.4375 C8.4109375,12.25625 7.1375,12.7484375 5.7484375,12.7484375 C5.64375,12.7484375 5.540625,12.746875 5.4375,12.740625 C5.6015625,12.9875 5.790625,13.21875 6.003125,13.43125 C6.4171875,13.8453125 6.8984375,14.1703125 7.434375,14.396875 C7.9890625,14.63125 8.578125,14.75 9.1859375,14.75 C9.79375,14.75 10.3828125,14.63125 10.9375,14.396875 C11.4734375,14.1703125 11.9546875,13.8453125 12.36875,13.43125 C12.7828125,13.01875 13.1078125,12.5375 13.3328125,12 C13.553125,11.4796875 13.6703125,10.928125 13.684375,10.359375 Z M5.1140625,8.3359375 C5.0875,8.3890625 5.0640625,8.44375 5.040625,8.4984375 C4.80625,9.053125 4.6875,9.6421875 4.6875,10.25 C4.6875,10.6453125 4.7375,11.0328125 4.8375,11.4078125 C5.1359375,11.46875 5.440625,11.5 5.75,11.5 C6.3578125,11.5 6.946875,11.38125 7.5015625,11.146875 C7.621875,11.0953125 7.7390625,11.0390625 7.8546875,10.978125 C6.66875,10.434375 5.7,9.4984375 5.1140625,8.3359375 Z M5.503125,2.5046875 C4.9828125,2.5328125 4.478125,2.65 4,2.8515625 C3.4640625,3.078125 2.9828125,3.403125 2.56875,3.8171875 C2.1546875,4.23125 1.8296875,4.7125 1.603125,5.2484375 C1.36875,5.803125 1.25,6.3921875 1.25,7 C1.25,7.6078125 1.36875,8.196875 1.603125,8.75 C1.8296875,9.2859375 2.1546875,9.7671875 2.56875,10.18125 C2.840625,10.4546875 3.14375,10.6890625 3.471875,10.88125 C3.45,10.675 3.4375,10.4640625 3.4375,10.25 C3.4375,8.9515625 3.8671875,7.753125 4.59375,6.790625 C4.5328125,6.453125 4.5,6.1046875 4.5,5.75 C4.5,4.546875 4.8703125,3.4296875 5.503125,2.5046875 Z M11.465625,6.36875 C11.4875,6.575 11.5,6.7859375 11.5,7 C11.5,8.203125 11.1296875,9.3203125 10.4984375,10.246875 C11.01875,10.21875 11.5234375,10.1015625 12.0015625,9.9 C12.5375,9.6734375 13.01875,9.3484375 13.4328125,8.934375 C13.4484375,8.91875 13.4625,8.903125 13.478125,8.8875 C13.4375,8.75625 13.3890625,8.6265625 13.3359375,8.5 C13.109375,7.9640625 12.784375,7.4828125 12.3703125,7.06875 C12.096875,6.7953125 11.79375,6.5609375 11.465625,6.36875 Z M9.1875,5.746875 C8.5796875,5.746875 7.990625,5.865625 7.4359375,6.1 C6.9,6.3265625 6.41875,6.6515625 6.0046875,7.065625 C5.9890625,7.08125 5.975,7.096875 5.959375,7.1125 C6,7.24375 6.0484375,7.3734375 6.1015625,7.5 C6.328125,8.0359375 6.653125,8.5171875 7.0671875,8.93125 C7.48125,9.3453125 7.9625,9.6703125 8.4984375,9.896875 C8.671875,9.9703125 8.8484375,10.0328125 9.028125,10.0796875 C9.3953125,9.6890625 9.6875,9.2421875 9.896875,8.7484375 C10.13125,8.19375 10.25,7.6046875 10.25,6.996875 C10.25,6.6015625 10.2,6.2140625 10.1,5.8390625 C9.8015625,5.778125 9.496875,5.746875 9.1875,5.746875 Z M10.25,1.25 C9.6421875,1.25 9.053125,1.36875 8.4984375,1.603125 C8.378125,1.6546875 8.2609375,1.7109375 8.1453125,1.771875 C9.465625,2.3765625 10.515625,3.4671875 11.0703125,4.815625 C12.4890625,5.30625 13.65625,6.3375 14.325,7.665625 C14.3515625,7.6125 14.375,7.5578125 14.3984375,7.503125 C14.6328125,6.9484375 14.7515625,6.359375 14.7515625,5.7515625 C14.7515625,5.14375 14.6328125,4.5546875 14.3984375,4 C14.171875,3.4640625 13.846875,2.9828125 13.4328125,2.56875 C13.01875,2.1546875 12.5375,1.8296875 12.0015625,1.603125 C11.446875,1.36875 10.8578125,1.25 10.25,1.25 Z M6.971875,2.6671875 C6.6046875,3.0578125 6.3125,3.5046875 6.103125,3.9984375 C5.8828125,4.51875 5.765625,5.0703125 5.7515625,5.640625 C6.709375,4.925 7.9,4.5015625 9.1875,4.5015625 C9.2921875,4.5015625 9.3953125,4.503125 9.4984375,4.509375 C9.334375,4.2625 9.1453125,4.03125 8.9328125,3.81875 C8.51875,3.4046875 8.0375,3.0796875 7.5015625,2.853125 C7.328125,2.7796875 7.1515625,2.7171875 6.971875,2.6671875 Z"></path></clipPath></defs><g transform="translate(4.0 4.0)"><g clip-path="url(#i0)"><polygon points="0,0 16,0 16,16 0,16 0,0" stroke="none" fill="#151515"></polygon></g></g></svg>