<?xml version="1.0" encoding="UTF-8"?><svg version="1.1" width="24px" height="24px" viewBox="0 0 24.0 24.0" xmlns="http://www.w3.org/2000/svg" xmlns:xlink="http://www.w3.org/1999/xlink"><defs><clipPath id="i0"><path d="M11.5555556,1.77777778 L11.5555556,2.66666667 L16,2.66666667 L16,11.5555556 L10.6666667,11.5555556 L10.6666667,12.3888889 L13.3333333,12.3888889 L13.3333333,13.3333333 L5.33333333,13.3333333 L5.33333333,12.3888889 L8,12.3888889 L8,11.5555556 L2.66666667,11.5555556 L2.66666667,8 L1.77777778,8 L1.77777778,7.11111111 L2.66666667,7.11111111 L2.66666667,2.66666667 L10.6666667,2.66666667 L10.6666667,1.77777778 L11.5555556,1.77777778 Z M14.2222222,4.44444444 L4.44444444,4.44444444 L4.44444444,9.77777778 L14.2222222,9.77777778 L14.2222222,4.44444444 Z M11.5555556,7.11111111 L11.5555556,8 L10.6666667,8 L10.6666667,7.11111111 L11.5555556,7.11111111 Z M9.77777778,7.11111111 L9.77777778,8 L8.88888889,8 L8.88888889,7.11111111 L9.77777778,7.11111111 Z M8,7.11111111 L8,8 L7.11111111,8 L7.11111111,7.11111111 L8,7.11111111 Z M6.22222222,7.11111111 L6.22222222,8 L5.33333333,8 L5.33333333,7.11111111 L6.22222222,7.11111111 Z M0.888888889,7.11111111 L0.888888889,8 L0,8 L0,7.11111111 L0.888888889,7.11111111 Z M11.5555556,5.33333333 L11.5555556,6.22222222 L10.6666667,6.22222222 L10.6666667,5.33333333 L11.5555556,5.33333333 Z M0.888888889,5.33333333 L0.888888889,6.22222222 L0,6.22222222 L0,5.33333333 L0.888888889,5.33333333 Z M0.888888889,3.55555556 L0.888888889,4.44444444 L0,4.44444444 L0,3.55555556 L0.888888889,3.55555556 Z M0.888888889,1.77777778 L0.888888889,2.66666667 L0,2.66666667 L0,1.77777778 L0.888888889,1.77777778 Z M11.5555556,0 L11.5555556,0.888888889 L10.6666667,0.888888889 L10.6666667,0 L11.5555556,0 Z M9.77777778,0 L9.77777778,0.888888889 L8.88888889,0.888888889 L8.88888889,0 L9.77777778,0 Z M8,0 L8,0.888888889 L7.11111111,0.888888889 L7.11111111,0 L8,0 Z M6.22222222,0 L6.22222222,0.888888889 L5.33333333,0.888888889 L5.33333333,0 L6.22222222,0 Z M4.44444444,0 L4.44444444,0.888888889 L3.55555556,0.888888889 L3.55555556,0 L4.44444444,0 Z M2.66666667,0 L2.66666667,0.888888889 L1.77777778,0.888888889 L1.77777778,0 L2.66666667,0 Z M0.888888889,0 L0.888888889,0.888888889 L0,0.888888889 L0,0 L0.888888889,0 Z"></path></clipPath></defs><g transform="translate(4.0 4.999999999999999)"><g clip-path="url(#i0)"><polygon points="0,0 16,0 16,13.3333333 0,13.3333333 0,0" stroke="none" fill="#151515"></polygon></g></g></svg>