<?xml version="1.0" encoding="UTF-8"?><svg version="1.1" width="24px" height="24px" viewBox="0 0 24.0 24.0" xmlns="http://www.w3.org/2000/svg" xmlns:xlink="http://www.w3.org/1999/xlink"><defs><clipPath id="i0"><path d="M12.9491232,8.52821806 L12.8725607,13.1032181 L10.6256857,15.1375931 C10.4506673,15.2953022 10.2060976,15.3503747 9.98037322,15.2829056 L5.01943572,13.7938431 L4.95849822,8.90478056 L10.1225607,10.1266556 C10.302297,10.1690835 10.4915718,10.1357486 10.6459982,10.0344681 L12.9491232,8.52821806 Z M0.168029473,7.77196806 L3.87068572,8.64853056 L3.95349822,13.4750931 L0.791466973,12.5266556 C0.514448128,12.4441292 0.321258802,12.1936753 0.311779473,11.9047806 L0.168029473,7.77196806 Z M15.8805295,6.61259306 L15.7836545,10.1860306 C15.779215,10.3701778 15.6989295,10.5443182 15.5617795,10.6672806 L13.8367795,12.2297806 L13.913342,7.89853056 L15.8805295,6.61259306 Z M7.88631072,1.72353056 L12.4784982,2.38603056 C12.8138959,2.43487292 13.0607993,2.72526883 13.0550607,3.06415556 L12.9847482,7.27821806 L10.666467,8.69837431 C10.517727,8.78904417 10.3396983,8.81871563 10.169592,8.78118681 L4.96177947,7.62978056 L4.90849822,3.22665556 C4.90522927,2.93519722 5.08995234,2.67490847 5.36599822,2.58134306 L7.88631072,1.72353056 Z M3.11474822,1.03446806 L6.80381072,1.56728056 C5.95381072,1.84592639 5.10381072,2.12509306 4.25381072,2.40478056 C3.97412298,2.49667059 3.78643433,2.75892913 3.78943572,3.05306181 L3.84568572,7.38431181 L0.142560723,6.56556181 L0.000373223063,2.46868681 C-0.00983710424,2.16039872 0.190377069,1.88446086 0.486623223,1.79853056 L3.11474822,1.03446806 Z M11.2866232,0.553218063 L15.4086545,1.05618681 C15.7534556,1.0973823 16.0097434,1.39502858 15.9992795,1.74212431 L15.903967,5.49056181 L13.9492795,6.68743681 L14.0206857,2.63134306 C14.0266314,2.29041469 13.7771564,1.99868995 13.4394357,1.95165556 L9.01599822,1.33915556 L11.2866232,0.553218063 Z M6.7577187,7.29346816e-05 L6.84756072,0.00478056269 L10.3069357,0.417280563 C9.52203989,0.675093063 8.73662322,0.932905563 7.95068572,1.19071806 L4.31287322,0.686030563 L6.58037322,0.0266555627 C6.66705728,0.00146395019 6.75793352,-0.00597621075 6.84756072,0.00478056269 Z"></path></clipPath></defs><g transform="translate(4.0 4.0)"><g clip-path="url(#i0)"><polygon points="-1.11022302e-16,0 15.9995887,0 15.9995887,15.3111959 -1.11022302e-16,15.3111959 -1.11022302e-16,0" stroke="none" fill="#151515"></polygon></g></g></svg>