<?xml version="1.0" encoding="UTF-8"?><svg version="1.1" width="24px" height="24px" viewBox="0 0 24.0 24.0" xmlns="http://www.w3.org/2000/svg" xmlns:xlink="http://www.w3.org/1999/xlink"><defs><clipPath id="i0"><path d="M6.4015625,4.24066622e-06 C7.278125,4.24066622e-06 8.0734375,0.248450286 8.7875,0.750012786 C9.5015625,1.25157529 10.025,1.90157529 10.3515625,2.71251279 C10.740625,2.36095029 11.2015625,2.18282529 11.734375,2.18282529 C12.3234375,2.18282529 12.828125,2.39688779 13.2375,2.82345029 C13.6578125,3.24845029 13.8640625,3.76251279 13.8640625,4.36720029 C13.866643,4.78406921 13.7483268,5.19274835 13.5234375,5.54376279 C14.240625,5.71511696 14.8328125,6.09688779 15.3,6.68907529 C15.7666667,7.28178363 16,7.96095029 16,8.72657529 C16,9.63126279 15.690625,10.4015753 15.0640625,11.0422003 C14.4422188,11.6717784 13.6978625,11.9935439 12.8264455,12.0000042 L3.7328125,12.0000042 C2.70520833,11.9989711 1.8265625,11.6250128 1.096875,10.8781378 C0.365625,10.1302211 0,9.23126279 0,8.18126279 C0,7.43230446 0.197395833,6.74688779 0.5921875,6.12501279 C0.988020833,5.50105446 1.5078125,5.03595029 2.1515625,4.72970029 C2.140625,4.57032529 2.134375,4.44688779 2.134375,4.36251279 C2.134375,3.15938779 2.55,2.12813779 3.384375,1.27657529 C4.21927083,0.42397113 5.225,-0.00154971416 6.4015625,4.24066622e-06 Z M8,3.00001279 C7.4515625,3.00001279 6.98125,3.19688779 6.5875,3.59220029 C6.19375,3.98751279 5.996875,4.45470029 5.996875,5.00626279 L5.996875,5.99063779 L5.5015625,5.99063779 C5.3625,5.99063779 5.24375,6.02345029 5.146875,6.12032529 C5.05165614,6.2142606 4.99865077,6.34282682 5,6.47657529 L5,9.48438779 C4.99780834,9.61829733 5.05094498,9.74718193 5.146875,9.84063779 C5.2453125,9.93751279 5.3625,10.0000128 5.5015625,10.0000128 L10.496875,10.0000128 C10.6359375,10.0000128 10.7546875,9.93751279 10.8515625,9.84063779 C10.9467814,9.74670247 10.9997867,9.61813627 10.9984375,9.48438779 L11.0015625,6.47813779 C11.0045302,6.3440823 10.9512709,6.21490029 10.8546875,6.12188779 C10.75625,6.02501279 10.6390625,5.99063779 10.5,5.99063779 L10.0015625,5.99063779 L10.0015625,5.00626279 C10.0015625,4.45626279 9.8078125,3.98751279 9.4140625,3.59220029 C9.0203125,3.19688779 8.5484375,3.00001279 8,3.00001279 Z M8,4.02657529 C8.2765625,4.02657529 8.5140625,4.12345029 8.70625,4.31876279 C8.89784278,4.50392129 9.00418716,4.76016596 9,5.02657529 L9,6.00001279 L7,6.00001279 L7,5.02657529 C7,4.47429054 7.44771525,4.02657529 8,4.02657529 Z"></path></clipPath></defs><g transform="translate(4.0 6.0)"><g clip-path="url(#i0)"><polygon points="0,2.22044605e-16 16,2.22044605e-16 16,12.0000042 0,12.0000042 0,2.22044605e-16" stroke="none" fill="#151515"></polygon></g></g></svg>