<?xml version="1.0" encoding="UTF-8"?><svg version="1.1" width="24px" height="24px" viewBox="0 0 24.0 24.0" xmlns="http://www.w3.org/2000/svg" xmlns:xlink="http://www.w3.org/1999/xlink"><defs><clipPath id="i0"><path d="M15.0588235,0.941176471 C16,0.941176471 16,1.92352941 16,1.92352941 L16,13.1764706 C16,14.0185759 14.7956371,14.0824955 14.542087,14.0866215 L14.4955882,14.0867647 C13.0237995,11.8634754 9.9399374,13.2906258 8.85674228,13.88989 L8.7097196,13.9730106 C8.5567527,14.0614346 8.47058824,14.1176471 8.47058824,14.1176471 L8.47058824,13.1382353 C12.6911765,10.2455882 15.0588235,13.1764706 15.0588235,13.1764706 Z M0.941176471,0.941176471 L0.941176471,13.1764706 C0.941176471,13.1763009 0.972894187,13.1371498 1.03547116,13.0724588 L1.10830277,12.9997523 C1.7173686,12.4114427 3.97058824,10.6906109 7.52941176,13.1382353 L7.52941176,14.1176471 C7.52941176,14.1176471 3.35147059,11.3794118 1.50735294,14.0867647 L1.46076323,14.0866215 C1.20671745,14.0824955 0,14.0185759 0,13.1764706 L0.000191568588,1.91373188 C0.00325666599,1.81135762 0.0553633218,0.941176471 0.941176471,0.941176471 Z M1.88235294,0 C3.13088235,0 5.89117647,0.827941176 7.52794118,1.88235294 L7.52794118,3.03676471 L7.41029412,3.03676471 C7.32205882,3.03676471 7.24705882,3.09852941 7.22205882,3.18676471 C7.14117647,3.49411765 7.18088235,4.175 7.15,4.49117647 C6.98088235,4.54705882 6.99705882,4.56029412 6.83676471,4.64117647 L5.86764706,3.79117647 C5.82941176,3.76617647 5.78529412,3.74705882 5.73529412,3.74705882 C5.55294118,3.74705882 4.84705882,4.51029412 4.72205882,4.67941176 C4.69117647,4.71617647 4.67794118,4.76029412 4.67794118,4.80441176 C4.67794118,4.84852941 4.69705882,4.89117647 4.72205882,4.92941176 C4.92352941,5.16764706 5.36029412,5.575 5.53529412,5.82647059 C5.45441176,5.98382353 5.46617647,6.05588235 5.41617647,6.22205882 L4.11176471,6.28529412 C4.03088235,6.29852941 3.96764706,6.39264706 3.96764706,6.47352941 L3.96764706,7.63382353 C3.96764706,7.72205882 4.02941176,7.80294118 4.11764706,7.81617647 L5.43529412,7.90147059 C5.49264706,8.07647059 5.47941176,8.02058824 5.56764706,8.19264706 C5.38529412,8.43823529 4.925,8.96176471 4.74264706,9.2 C4.71764706,9.23823529 4.69852941,9.275 4.69852941,9.31911765 C4.69852941,9.50147059 5.44264706,10.1764706 5.60588235,10.3264706 C5.64411765,10.3573529 5.68823529,10.3764706 5.73823529,10.3764706 C5.78235294,10.3764706 5.83235294,10.3632353 5.86323529,10.3323529 L6.79264706,9.46617647 C6.94264706,9.54117647 6.95588235,9.53529412 7.12205882,9.58529412 L7.225,10.9279412 C7.23823529,11.0161765 7.325,11.0852941 7.41323529,11.0852941 L7.52941176,11.0838235 L7.52941176,12.2352941 C5.17647059,10.7132353 2.78382353,11.0470588 1.88235294,11.2941176 Z M14.1161765,0 L14.1161765,11.2941176 C13.2161765,11.0455882 10.8514706,10.7132353 8.46911765,12.2352941 L8.46911765,11.0838235 L8.58676471,11.0838235 C8.675,11.0838235 8.76176471,11.0147059 8.775,10.9264706 L8.87794118,9.58382353 C9.04411765,9.53382353 9.05735294,9.53970588 9.20735294,9.46470588 L10.1352941,10.3308824 C10.1661765,10.3617647 10.2161765,10.375 10.2602941,10.375 C10.3102941,10.375 10.3544118,10.3558824 10.3926471,10.325 C10.5558824,10.175 11.3,9.5 11.3,9.31764706 C11.3,9.27352941 11.2808824,9.23676471 11.2558824,9.19852941 C11.0735294,8.96029412 10.6132353,8.43676471 10.4308824,8.19117647 C10.5191176,8.01911765 10.5058824,8.075 10.5632353,7.9 L11.8808824,7.81470588 C11.9691176,7.80147059 12.0308824,7.72058824 12.0308824,7.63235294 L12.0308824,6.47205882 C12.0308824,6.39117647 11.9676471,6.29705882 11.8867647,6.28382353 L10.5823529,6.22058824 C10.5323529,6.05441176 10.5441176,5.98235294 10.4632353,5.825 C10.6382353,5.57352941 11.075,5.16617647 11.2764706,4.92794118 C11.3014706,4.88970588 11.3205882,4.84705882 11.3205882,4.80294118 C11.3205882,4.75882353 11.3073529,4.71470588 11.2764706,4.67794118 C11.1514706,4.50882353 10.4455882,3.74558824 10.2632353,3.74558824 C10.2132353,3.74558824 10.1691176,3.76470588 10.1308824,3.78970588 L9.16176471,4.63676471 C9.00147059,4.55588235 9.01764706,4.54264706 8.84852941,4.48676471 C8.81764706,4.17058824 8.85735294,3.48970588 8.77647059,3.18235294 C8.75147059,3.09411765 8.67647059,3.03235294 8.58823529,3.03235294 L8.46911765,3.03382353 L8.46911765,1.88235294 C10.1058824,0.832352941 12.8602941,0 14.1161765,0 Z M8,5.45882353 C8.88382353,5.45882353 9.6,6.175 9.6,7.05882353 C9.6,7.94264706 8.88382353,8.65882353 8,8.65882353 C7.11617647,8.65882353 6.4,7.94264706 6.4,7.05882353 C6.4,6.175 7.11617647,5.45882353 8,5.45882353 Z"></path></clipPath></defs><g transform="translate(4.0 5.000000000000003)"><g clip-path="url(#i0)"><polygon points="0,0 16,0 16,14.1176471 0,14.1176471 0,0" stroke="none" fill="#151515"></polygon></g></g></svg>