<?xml version="1.0" encoding="UTF-8"?><svg version="1.1" width="24px" height="24px" viewBox="0 0 24.0 24.0" xmlns="http://www.w3.org/2000/svg" xmlns:xlink="http://www.w3.org/1999/xlink"><defs><clipPath id="i0"><path d="M9.72058824,7.52941176 C10.2676471,7.52941176 10.5235294,8.08382353 10.5235294,8.08382353 L10.7323529,8.47058824 L15.5294118,8.47058824 C15.7897059,8.47058824 16,8.68088235 16,8.94117647 L16,15.0588235 L5.64705882,15.0588235 L5.64705882,8.06617647 C5.64705882,8.06617647 5.64705882,7.52941176 6.18382353,7.52941176 L9.72058824,7.52941176 Z M6.89705882,3.76470588 C7.44411765,3.76470588 7.7,4.31911765 7.7,4.31911765 L7.90882353,4.70588235 L12.7058824,4.70588235 C12.9661765,4.70588235 13.1764706,4.91617647 13.1764706,5.17647059 L13.1764706,7.51470588 L11.3073529,7.51470588 C11.2455882,7.41176471 11.1514706,7.27647059 11.0220588,7.14117647 C10.6720588,6.775 10.2147059,6.57352941 9.73529412,6.57352941 L6.19852941,6.57352941 C5.62352941,6.57352941 5.11911765,6.86764706 4.87205882,7.36176471 C4.72205882,7.66323529 4.70588235,7.94411765 4.70588235,8.05147059 L4.70588235,11.2941176 L2.82352941,11.2941176 L2.82377373,4.29243085 C2.82670553,4.22206753 2.864819,3.76470588 3.36029412,3.76470588 Z M4.07352941,0 C4.62058824,0 4.87647059,0.554411765 4.87647059,0.554411765 L5.08529412,0.941176471 L9.88235294,0.941176471 C10.1426471,0.941176471 10.3529412,1.15147059 10.3529412,1.41176471 L10.3529412,3.76470588 L8.46911765,3.76470588 C8.40735294,3.66176471 8.31323529,3.49705882 8.18382353,3.36176471 C7.83382353,2.99558824 7.37647059,2.79411765 6.89705882,2.79411765 L3.36029412,2.79411765 C2.78676471,2.79411765 2.29558824,3.08823529 2.04852941,3.58235294 C1.89852941,3.88235294 1.88235294,4.16470588 1.88235294,4.27205882 L1.88235294,7.52941176 L0,7.52941176 L0,0.536764706 C0,0.536764706 0,0 0.536764706,0 L4.07352941,0 Z"></path></clipPath></defs><g transform="translate(4.0 4.000000000000001)"><g clip-path="url(#i0)"><polygon points="0,0 16,0 16,15.0588235 0,15.0588235 0,0" stroke="none" fill="#151515"></polygon></g></g></svg>