<?xml version="1.0" encoding="UTF-8"?><svg version="1.1" width="24px" height="24px" viewBox="0 0 24.0 24.0" xmlns="http://www.w3.org/2000/svg" xmlns:xlink="http://www.w3.org/1999/xlink"><defs><clipPath id="i0"><path d="M6.36052632,1.34013158 C6.59736842,1.22171053 6.87631579,1.22171053 7.11315789,1.34013158 L9.63947368,2.60328947 C9.925,2.74539474 10.1052632,3.0375 10.1052632,3.35592105 L10.1052632,6.51907895 L13.0065789,7.97171053 C13.2921053,8.11381579 13.4723684,8.40592105 13.4723684,8.72434211 L13.4723684,11.3690789 C13.4723684,11.6875 13.2934211,11.9782895 13.0092105,12.1217105 L10.4815789,13.3848684 C10.3631579,13.4440789 10.2342105,13.4730263 10.1052632,13.4730263 C9.97631579,13.4730263 9.84736842,13.4427632 9.72894737,13.3835526 L6.73684211,11.8875 L3.74473684,13.3835526 C3.62631579,13.4427632 3.49736842,13.4730263 3.36842105,13.4730263 C3.23947368,13.4730263 3.11052632,13.4427632 2.99210526,13.3835526 L0.465789474,12.1203947 C0.180263158,11.9782895 0,11.6861842 0,11.3677632 L0,8.72434211 C0,8.40592105 0.180263158,8.11381579 0.465789474,7.97171053 L3.36842105,6.51907895 L3.36842105,3.35592105 C3.36842105,3.0375 3.54868421,2.74539474 3.83421053,2.60328947 Z M5.89473684,9.57302632 L3.36842105,10.8361842 L3.36842105,12.6361842 L5.89473684,11.3730263 L5.89473684,9.57302632 Z M12.6315789,9.57302632 L10.1052632,10.8361842 L10.1052632,12.6361842 L12.6315789,11.3730263 L12.6315789,9.57302632 Z M9.63947368,0.0888157895 L12.1657895,1.35197368 C12.4513158,1.49407895 12.6315789,1.78618421 12.6315789,2.10460526 L12.6315789,5.1625 L15.5342105,6.61381579 C15.8197368,6.75723684 16,7.04934211 16,7.36776316 L16,10.1177632 C16,10.4361842 15.8210526,10.7269737 15.5368421,10.8703947 L14.3131579,11.4809211 C14.5657895,11.3217105 14.7223684,11.0480263 14.7223684,10.7506579 L14.7223684,8.10592105 C14.7223684,7.7875 14.5421053,7.49539474 14.2565789,7.35328947 L11.3552632,5.90065789 L11.3552632,2.7375 C11.3552632,2.41907895 11.175,2.12697368 10.8894737,1.98486842 L8.36315789,0.721710526 C8.15,0.615131579 7.90394737,0.604605263 7.68421053,0.690131579 L8.88684211,0.0888157895 C9.12368421,-0.0296052632 9.40263158,-0.0296052632 9.63947368,0.0888157895 Z M3.36842105,7.46776316 L0.951315789,8.68618421 L3.36842105,9.89407895 L5.79473684,8.68092105 L3.36842105,7.46776316 Z M10.1052632,7.46776316 L7.68815789,8.68618421 L10.1052632,9.89407895 L12.5421053,8.67565789 L10.1052632,7.46776316 Z M9.26315789,4.20460526 L6.73684211,5.46776316 L6.73684211,7.26907895 L9.26315789,6.00592105 L9.26315789,4.20460526 Z M6.73684211,2.09934211 L4.31973684,3.31776316 L6.73684211,4.52565789 L9.16315789,3.30197368 L6.73684211,2.09934211 Z"></path></clipPath></defs><g transform="translate(4.0 4.999999999999999)"><g clip-path="url(#i0)"><polygon points="0,1.38777878e-17 16,1.38777878e-17 16,13.4730263 0,13.4730263 0,1.38777878e-17" stroke="none" fill="#151515"></polygon></g></g></svg>