<?xml version="1.0" encoding="UTF-8"?><svg version="1.1" width="24px" height="24px" viewBox="0 0 24.0 24.0" xmlns="http://www.w3.org/2000/svg" xmlns:xlink="http://www.w3.org/1999/xlink"><defs><clipPath id="i0"><path d="M8.5,7.9984375 C8.77306355,7.99920227 8.99475416,8.21816989 8.9999102,8.49017873 L9,15.4984375 C8.99923523,15.7715011 8.78026761,15.9931917 8.50825877,15.9983477 L5.5,15.9984375 C5.22693645,15.9976727 5.00524584,15.7787052 5.0000898,15.5066963 L5,8.4984375 C5.00076477,8.22537395 5.21973239,8.00368334 5.49174123,7.9985273 L8.5,7.9984375 Z M11,9 L11,15 L10,15 L10,9 L11,9 Z M8,14 L6,14 L6,15 L8,15 L8,14 Z M15,8.0171875 C15,10.30175 13.90704,12.32987 12.2146368,13.6082108 L12,13.7640625 L12,12.490625 C12.0828125,12.415625 12.1625,12.340625 12.2421875,12.2609375 C13.3028376,11.2025309 13.9255599,9.7875078 13.9937427,8.2973949 L14,8.0171875 L15,8.0171875 Z M2.340625,6.015625 C1.57366227,8.19626878 2.12459186,10.6235176 3.7578125,12.259375 L3.87714805,12.3765625 L3.99999693,12.4890625 L3.99999693,13.7625 C2.1859375,12.496875 0.999996927,10.3953125 0.999996927,8.0171875 C0.999624798,7.45241022 1.06754536,6.89007802 1.2019897,6.3423859 L1.290625,6.015625 L2.340625,6.015625 Z M8.0015625,11 L6,11 L6,13 L8.0015625,13 L8.0015625,11 Z M8,9 L7,9 L7,10 L8,10 L8,9 Z M13.5,0 C13.773381,0 13.9955176,0.219402858 13.999933,0.491731586 L14,6.34375 C14,6.61713095 13.7805971,6.83926763 13.5082684,6.84375 L9.5,6.84375 C9.22661905,6.84375 9.00448238,6.62434714 9.00006698,6.35201842 L9,0.5 C9,0.226619048 9.21940286,0.00448238098 9.49173158,0 L13.5,0 Z M16,1 L16,6 L15,6 L15,1 L16,1 Z M13,4 L10,4 L10,5.5 L13,5.5 L13,4 Z M3.5,8.8817842e-16 C3.77306355,0.000764769366 3.99475416,0.219732384 3.9999102,0.491741242 L4,4.5 C3.99923523,4.77306355 3.78026761,4.99475416 3.50825877,4.9999102 L0.5,5 C0.226936455,4.99923523 0.00524585075,4.78026761 8.97945864e-05,4.50825877 L0,0.5 C0.000764769366,0.226936455 0.219732384,0.00524585075 0.491741242,8.97945864e-05 L3.5,8.8817842e-16 Z M3,3 L1,3 L1,4 L3,4 L3,3 Z M8,1.015625 L8,2.015625 C7.19754311,2.01421641 6.40304908,2.17470952 5.6640625,2.4875 C5.51215853,2.55208095 5.36296281,2.62277251 5.21683821,2.69939367 L5,2.81875 L5,1.690625 C5.93769073,1.2462862 6.96235802,1.01573606 8,1.015625 Z M13,1 L11.5,1 L11.5,2.5 L13,2.5 L13,1 Z M3,1 L2,1 L2,2 L3,2 L3,1 Z"></path></clipPath></defs><g transform="translate(4.0 4.000000000000001)"><g clip-path="url(#i0)"><polygon points="0,0 16,0 16,15.9984375 0,15.9984375 0,0" stroke="none" fill="#151515"></polygon></g></g></svg>