<?xml version="1.0" encoding="UTF-8"?><svg version="1.1" width="24px" height="24px" viewBox="0 0 24.0 24.0" xmlns="http://www.w3.org/2000/svg" xmlns:xlink="http://www.w3.org/1999/xlink"><defs><clipPath id="i0"><path d="M12.28125,1.2015625 C12.4109375,1.2015625 12.525,1.2609375 12.6015625,1.353125 C12.7109375,1.428125 12.840625,1.540625 12.9953125,1.7109375 C13.1671875,1.9015625 13.3375,2.090625 13.503125,2.2890625 C14.3703125,3.3203125 14.9625,4.6953125 14.953125,6.421875 C14.9484375,7.3265625 15.0765625,8.271875 14.29375,9.46875 C14.2796875,9.4875 14.2671875,9.50625 14.253125,9.525 L9.9,15.4390625 C9.9,15.4390625 9.5828125,15.9999546 8.95,15.996875 C8.95,15.996875 8.3984375,16.0609375 8.06875,15.6046875 C8.14375,15.5109375 8.1859375,15.4375 8.1859375,15.4375 L12.7890625,9.2984375 L12.8296875,9.2421875 C13.51875,8.259375 13.7359375,7.3359375 13.7359375,6.0453125 C13.7359375,4.9046875 13.4296875,3.853125 12.859375,2.946875 C12.603125,2.59375 12.2125,2.1578125 12.2125,2.1578125 C12.1640625,2.115625 12.1109375,2.0640625 12.0609375,2.0078125 C12.0296875,1.971875 11.9984375,1.9328125 11.9734375,1.8921875 C11.9078125,1.81875 11.8671875,1.721875 11.8671875,1.615625 C11.8671875,1.3875 12.053125,1.2015625 12.28125,1.2015625 Z M6.296875,0 C9.625,0 12.5921875,2.70625 12.5921875,6.046875 C12.5921875,7.3375 12.1875,8.5328125 11.4984375,9.515625 C11.484375,9.534375 11.471875,9.553125 11.4578125,9.56875 L7.0421875,15.4359375 C7.0421875,15.4359375 6.7171875,15.99375 6.30625,15.99375 C6.30625,15.99375 5.9375,16.071875 5.56875,15.4390625 L1.134375,9.56875 C1.121875,9.553125 1.1109375,9.5375 1.1,9.521875 C0.4046875,8.5328125 0,7.3359375 0,6.0453125 C0,2.70625 2.9578125,0 6.296875,0 Z M4.9953125,3 L3.9953125,3 L3.9953125,10 L4.9953125,10 L4.9953125,3 Z M8.28125,3 L5.9953125,3 L5.9953125,10 L6.9953125,10 L6.9953125,7 L8.28125,7.003125 C9.5390625,7.003125 10.4953125,6.259375 10.4953125,5 C10.4953125,3.740625 9.540625,3 8.28125,3 Z M8.1375,4 C8.765625,4 9.2765625,4.4484375 9.2765625,5 C9.2765625,5.5515625 8.765625,6 8.1375,6 L6.9953125,6 L6.9953125,4 L8.1375,4 Z"></path></clipPath></defs><g transform="translate(5.0 4.0)"><g clip-path="url(#i0)"><polygon points="0,0 14.9582784,0 14.9582784,15.9999546 0,15.9999546 0,0" stroke="none" fill="#151515"></polygon></g></g></svg>