<?xml version="1.0" encoding="UTF-8"?><svg version="1.1" width="24px" height="24px" viewBox="0 0 24.0 24.0" xmlns="http://www.w3.org/2000/svg" xmlns:xlink="http://www.w3.org/1999/xlink"><defs><clipPath id="i0"><path d="M15.7211538,7.38461538 C16,7.03076923 16,7.38461538 16,7.38461538 L16,11.0769231 C16,12.4365385 12.4192308,13.5384615 8,13.5384615 C3.58076923,13.5384615 0,12.4365385 0,11.0769231 L0.000126921326,7.37881727 C0.00164997724,7.33436504 0.0214497041,7.05798817 0.278846154,7.38461538 C0.851923077,8.11346154 2.61153846,9.23076923 8,9.23076923 C13.3884615,9.23076923 15.1480769,8.11346154 15.7211538,7.38461538 Z M8,0 C12.4192308,0 16,1.10192308 16,2.46153846 L16,4.90384615 C16,6.26346154 12.4192308,7.36538462 8,7.36538462 C3.58076923,7.36538462 0,6.26346154 0,4.90384615 L0,2.46153846 C0,1.10192308 3.58076923,0 8,0 Z"></path></clipPath></defs><g transform="translate(4.0 5.0)"><g clip-path="url(#i0)"><polygon points="0,0 16,0 16,13.5384615 0,13.5384615 0,0" stroke="none" fill="#151515"></polygon></g></g></svg>