<?xml version="1.0" encoding="UTF-8"?><svg version="1.1" width="24px" height="24px" viewBox="0 0 24.0 24.0" xmlns="http://www.w3.org/2000/svg" xmlns:xlink="http://www.w3.org/1999/xlink"><defs><clipPath id="i0"><path d="M8.44117647,3.76470588 L8.44117647,5.64705882 L13.1764706,5.64705882 C13.6589524,5.64751052 14.0565017,6.01062914 14.1112223,6.4785184 L14.1176471,6.58823529 L14.1176471,8.47058824 L15.0588235,8.47058824 C15.5413053,8.47103993 15.9388546,8.83415855 15.9935753,9.30204781 L16,9.41176471 L16,12.2352941 C15.9995483,12.7177759 15.6364296,13.1153253 15.1685404,13.1700459 L15.0588235,13.1764706 L12.2352941,13.1764706 C11.7528123,13.1760189 11.355263,12.8129003 11.3005424,12.345011 L11.2941176,12.2352941 L11.2941176,9.41176471 C11.2945693,8.9292829 11.657688,8.53173355 12.1255772,8.47701296 L12.2352941,8.47058824 L13.1764706,8.47058824 L13.1764706,6.58823529 L8.44117647,6.58823529 L8.44117647,8.47058824 L9.39705882,8.47058824 C9.87954063,8.47103993 10.27709,8.83415855 10.3318106,9.30204781 L10.3382353,9.41176471 L10.3382353,12.2352941 C10.3377836,12.7177759 9.97466498,13.1153253 9.50677572,13.1700459 L9.39705882,13.1764706 L6.57352941,13.1764706 C6.0910476,13.1760189 5.69349826,12.8129003 5.63877767,12.345011 L5.63235294,12.2352941 L5.63235294,9.41176471 C5.63280464,8.9292829 5.99592326,8.53173355 6.46381252,8.47701296 L6.57352941,8.47058824 L7.5,8.47058824 L7.5,6.58823529 L2.82352941,6.58823529 L2.82352941,8.47058824 L3.76470588,8.47058824 C4.24718769,8.47103993 4.64473703,8.83415855 4.69945763,9.30204781 L4.70588235,9.41176471 L4.70588235,12.2352941 C4.70543066,12.7177759 4.34231204,13.1153253 3.87442278,13.1700459 L3.76470588,13.1764706 L0.941176471,13.1764706 C0.458694666,13.1760189 0.0611453167,12.8129003 0.00642472549,12.345011 L0,12.2352941 L0,9.41176471 C0.000451691798,8.9292829 0.363570319,8.53173355 0.831459578,8.47701296 L0.941176471,8.47058824 L1.88235294,8.47058824 L1.88235294,6.58823529 C1.88280464,6.10575349 2.24592326,5.70820414 2.71381252,5.65348355 L2.82352941,5.64705882 L7.5,5.64705882 L7.5,3.76470588 L8.44117647,3.76470588 Z M15.0588235,0 L15.0588235,2.82352941 L0.941176471,2.82352941 L0.941176471,0 L15.0588235,0 Z M14.125,0.941176471 L10.3529412,0.941176471 L10.3529412,1.88235294 L14.125,1.88235294 L14.125,0.941176471 Z"></path></clipPath></defs><g transform="translate(4.0 5.0)"><g clip-path="url(#i0)"><polygon points="0,0 16,0 16,13.1764706 0,13.1764706 0,0" stroke="none" fill="#151515"></polygon></g></g></svg>