<?xml version="1.0" encoding="UTF-8"?>
<svg width="24px" height="24px" viewBox="0 0 24 24" version="1.1" xmlns="http://www.w3.org/2000/svg" xmlns:xlink="http://www.w3.org/1999/xlink">
    <title></title>
    <g id="Icons" stroke="none" stroke-width="1" fill="none" fill-rule="evenodd">
        <g id="Icons/1.-Size-md/Object/pficon-virtual-machine" fill="#151515">
            <path d="M20,16.5555556 L20,7.66666667 L15.5555556,7.66666667 L15.5555556,6.77777778 L14.6666667,6.77777778 L14.6666667,7.66666667 L6.66666667,7.66666667 L6.66666667,12.1111111 L5.77777778,12.1111111 L5.77777778,13 L6.66666667,13 L6.66666667,16.5555556 L12,16.5555556 L12,17.3888889 L9.33333333,17.3888889 L9.33333333,18.3333333 L17.3333333,18.3333333 L17.3333333,17.3888889 L14.6666667,17.3888889 L14.6666667,16.5555556 L20,16.5555556 Z M8.44444444,14.7777778 L8.44444444,9.44444444 L18.2222222,9.44444444 L18.2222222,14.7777778 L8.44444444,14.7777778 Z M14.6666667,5.88888889 L15.5555556,5.88888889 L15.5555556,5 L14.6666667,5 L14.6666667,5.88888889 Z M12.8888889,5.88888889 L13.7777778,5.88888889 L13.7777778,5 L12.8888889,5 L12.8888889,5.88888889 Z M11.1111111,5.88888889 L12,5.88888889 L12,5 L11.1111111,5 L11.1111111,5.88888889 Z M9.33333333,5.88888889 L10.2222222,5.88888889 L10.2222222,5 L9.33333333,5 L9.33333333,5.88888889 Z M7.55555556,5.88888889 L8.44444444,5.88888889 L8.44444444,5 L7.55555556,5 L7.55555556,5.88888889 Z M5.77777778,5.88888889 L6.66666667,5.88888889 L6.66666667,5 L5.77777778,5 L5.77777778,5.88888889 Z M4,5.88888889 L4.88888889,5.88888889 L4.88888889,5 L4,5 L4,5.88888889 Z M4,7.66666667 L4.88888889,7.66666667 L4.88888889,6.77777778 L4,6.77777778 L4,7.66666667 Z M4,9.44444444 L4.88888889,9.44444444 L4.88888889,8.55555556 L4,8.55555556 L4,9.44444444 Z M14.6666667,11.2222222 L15.5555556,11.2222222 L15.5555556,10.3333333 L14.6666667,10.3333333 L14.6666667,11.2222222 Z M4,11.2222222 L4.88888889,11.2222222 L4.88888889,10.3333333 L4,10.3333333 L4,11.2222222 Z M14.6666667,13 L15.5555556,13 L15.5555556,12.1111111 L14.6666667,12.1111111 L14.6666667,13 Z M12.8888889,13 L13.7777778,13 L13.7777778,12.1111111 L12.8888889,12.1111111 L12.8888889,13 Z M11.1111111,13 L12,13 L12,12.1111111 L11.1111111,12.1111111 L11.1111111,13 Z M9.33333333,13 L10.2222222,13 L10.2222222,12.1111111 L9.33333333,12.1111111 L9.33333333,13 Z M4,13 L4.88888889,13 L4.88888889,12.1111111 L4,12.1111111 L4,13 Z" id="pficon-virtual-machine"></path>
        </g>
    </g>
</svg>