<?xml version="1.0" encoding="UTF-8"?>
<svg width="24px" height="24px" viewBox="0 0 24 24" version="1.1" xmlns="http://www.w3.org/2000/svg" xmlns:xlink="http://www.w3.org/1999/xlink">
    <title></title>
    <g id="Icons" stroke="none" stroke-width="1" fill="none" fill-rule="evenodd">
        <g id="Icons/1.-Size-md/Object/pficon-image" fill="#151515">
            <path d="M18.5,18 L5.5,18 C4.6715625,18 4,17.3284375 4,16.5 L4,7.5 C4,6.6715625 4.6715625,6 5.5,6 L18.5,6 C19.3284375,6 20,6.6715625 20,7.5 L20,16.5 C20,17.3284375 19.3284375,18 18.5,18 Z M7.5,7.75 C6.5335,7.75 5.75,8.5335 5.75,9.5 C5.75,10.4665 6.5335,11.25 7.5,11.25 C8.4665,11.25 9.25,10.4665 9.25,9.5 C9.25,8.5335 8.4665,7.75 7.5,7.75 Z M6,16 L18,16 L18,12.5 L15.2651563,9.76515625 C15.1187188,9.61871875 14.8812813,9.61871875 14.7348125,9.76515625 L10.5,14 L8.76515625,12.2651563 C8.61871875,12.1187188 8.38128125,12.1187188 8.2348125,12.2651563 L6,14.5 L6,16 Z" id="pficon-image"></path>
        </g>
    </g>
</svg>