<?xml version="1.0" encoding="UTF-8"?><svg version="1.1" width="24px" height="24px" viewBox="0 0 24.0 24.0" xmlns="http://www.w3.org/2000/svg" xmlns:xlink="http://www.w3.org/1999/xlink"><defs><clipPath id="i0"><path d="M8.0015625,0 L16,1.7140625 L16,13.7140625 L10.2859375,16 L9.1421875,16 L0,13.7859375 L0,1.7140625 L6.8578125,0 L8.0015625,0 Z M15,3.1734375 L10,5.109375 L10,14.8828125 L11,14.4765625 L11,13.115625 L13.9984375,11.9296875 L13.9984375,13.2765625 L15,12.878125 L15,3.1734375 Z M1.14375,3.1390625 L1.14375,12.8921875 L2.00625,13.090625 L2.00625,11.3546875 L7.99375,12.803125 L7.99375,14.515625 L9,14.7546875 L9,4.884375 L1.14375,3.1390625 Z M14.0015625,8.503125 L14.0015625,10.7890625 L11,11.9734375 L11,9.6875 L14.0015625,8.503125 Z M2.00625,7.9265625 L7.99375,9.3390625 L7.99375,11.64375 L2.00625,10.2125 L2.00625,7.9265625 Z M14,5.075 L14,7.359375 L11,8.54375 L11,6.2578125 L14,5.075 Z M2.00625,4.5453125 L7.99375,5.8859375 L7.99375,8.20625 L2.00625,6.784375 L2.00625,4.5453125 Z"></path></clipPath></defs><g transform="translate(4.0 4.0)"><g clip-path="url(#i0)"><polygon points="0,0 16,0 16,16 0,16 0,0" stroke="none" fill="#151515"></polygon></g></g></svg>