<?xml version="1.0" encoding="UTF-8"?>
<svg width="24px" height="24px" viewBox="0 0 24 24" version="1.1" xmlns="http://www.w3.org/2000/svg" xmlns:xlink="http://www.w3.org/1999/xlink">
    <title></title>
    <g id="Icons" stroke="none" stroke-width="1" fill="none" fill-rule="evenodd">
        <g id="Icons/1.-Size-md/Object/pficon-builder-image" fill="#151515">
            <path d="M18.1203125,7.71312346 L11.9921875,9.91249846 L5.8734375,7.71781096 L12.003125,5.48437346 L18.1203125,7.71312346 Z M5.98125,15.2443735 L8.4546875,14.357811 L10.9625,15.4582797 L10.9625,17.9739047 L5.98125,15.2443735 Z M5.5,9.14609221 L7.51875,9.87046721 L5.5,10.594686 L5.5,9.14609221 Z M7.1234375,13.7710922 L5.5,14.3551547 L5.5,13.0610922 L7.1234375,13.7710922 Z M10.9609375,11.1051547 L10.9609375,13.6776547 L5.7484375,11.5656235 L8.9984375,10.3995297 L10.9609375,11.1051547 Z M15.5359375,14.3551547 L18.015625,15.2432797 L12.9625,18.0156235 L12.9625,15.4868735 L15.5359375,14.3551547 Z M16.46875,9.86734221 L18.5,9.14062346 L18.5,10.5970297 L16.46875,9.86734221 Z M18.5,13.0532797 L18.5,14.3567172 L16.865625,13.7712485 L18.5,13.0532797 Z M14.9875,10.3979672 L18.2390625,11.564061 L12.9625,13.7057797 L12.9625,11.1249985 L14.9875,10.3979672 Z M20,7.74437346 C19.9905164,7.18837986 19.6395527,6.69566405 19.1171875,6.50499846 C16.8984375,5.69645679 14.6796875,4.88838388 12.4609375,4.08077971 C12.1630836,3.97307343 11.8369164,3.97307343 11.5390625,4.08077971 L4.8828125,6.50656096 C4.36164508,6.69790401 4.01117716,7.18930344 4,7.74437346 L4,14.8523422 L4.0015625,14.8523422 C4.01875,15.3367172 4.2953125,15.955936 4.696875,16.1868735 L11.353125,19.8349985 C11.7563145,20.0550083 12.2436855,20.0550083 12.646875,19.8349985 C13.99375,19.096561 17.1515625,17.3662485 19.303125,16.1868735 C19.7203125,15.959061 19.9828125,15.337811 20,14.8523422 L20,7.74437346 Z" id="pficon-builder-image"></path>
        </g>
    </g>
</svg>