<?xml version="1.0" encoding="UTF-8"?><svg version="1.1" width="24px" height="24px" viewBox="0 0 24.0 24.0" xmlns="http://www.w3.org/2000/svg" xmlns:xlink="http://www.w3.org/1999/xlink"><defs><clipPath id="i0"><path d="M7.87867384,0 C8.22162957,0 8.69681764,0.19683791 8.93930974,0.439330007 L15.5606318,7.06065211 C16.1463848,7.64640511 16.1463848,8.59617091 15.5606318,9.18195443 L9.18195443,15.5606318 C8.59617091,16.1463848 7.64640511,16.1463848 7.06065211,15.5606318 L0.439330007,8.93930974 C0.19683791,8.69681764 0,8.22162957 0,7.87867384 L0,1.5 C0,0.671568223 0.671568223,0 1.5,0 Z M3.49999523,1.99999523 C2.67156345,1.99999523 1.99999523,2.67156345 1.99999523,3.49999523 C1.99999523,4.32841986 2.67156345,4.99999523 3.49999523,4.99999523 C4.32841986,4.99999523 4.99999523,4.32841986 4.99999523,3.49999523 C4.99999523,2.67156345 4.32841986,1.99999523 3.49999523,1.99999523 Z"></path></clipPath></defs><g transform="translate(4.000000000000001 4.000000000000001)"><g clip-path="url(#i0)"><polygon points="0,0 15.9999466,0 15.9999466,15.9999466 0,15.9999466 0,0" stroke="none" fill="#151515"></polygon></g></g></svg>