<?xml version="1.0" encoding="UTF-8"?><svg version="1.1" width="24px" height="24px" viewBox="0 0 24.0 24.0" xmlns="http://www.w3.org/2000/svg" xmlns:xlink="http://www.w3.org/1999/xlink"><defs><clipPath id="i0"><path d="M7.85935626,7.99998093 C8.51249191,8.31248018 9.2312402,8.49998093 9.99997616,8.49998093 C10.7687121,8.49998093 11.4906037,8.31248018 12.1405961,7.99998093 L12.3999643,7.99998093 C14.3874779,7.99998093 15.9999619,9.61246488 15.9999619,11.5999784 L15.9999619,12.4999702 C15.9999619,13.3280932 15.3280885,13.9999666 14.4999654,13.9999666 L5.49999046,13.9999666 C4.67186386,13.9999666 3.99999046,13.3280932 3.99999046,12.4999702 L3.99999046,11.5999784 C3.99999046,9.61246488 5.61247441,7.99998093 7.59998798,7.99998093 Z M17.9999571,6.99998331 C19.1030734,6.99998331 19.9999523,7.89686228 19.9999523,8.99998331 L19.9999523,9.99998331 C19.9999523,10.5531059 19.5530845,10.9999833 18.9999547,10.9999833 L16.9374596,10.9999833 C16.743704,9.5187151 15.8499683,8.27186138 14.5906024,7.58121972 C14.9530893,7.22184557 15.4499754,6.99998331 15.9999619,6.99998331 Z M4,6.99998331 C4.54997694,6.99998331 5.04686297,7.22184557 5.4093499,7.58121972 C4.149984,8.27186138 3.25624834,9.5187151 3.05937991,10.9999833 L1,10.9999833 C0.446867831,10.9999833 0,10.5531059 0,9.99998331 L0,8.99998331 C0,7.89686228 0.896878965,6.99998331 2,6.99998331 Z M9.9999845,0 C11.9343588,0 13.4999678,1.56560906 13.4999678,3.5 C13.4999678,5.43437425 11.9343588,6.99998331 9.9999845,6.99998331 C8.06559356,6.99998331 6.4999845,5.43437425 6.4999845,3.5 C6.4999845,1.56560906 8.06559356,0 9.9999845,0 Z M2.99999762,1.99999523 C4.10310911,1.99999523 4.99999762,2.8968742 4.99999762,3.99999523 C4.99999762,5.10310673 4.10310911,5.99999523 2.99999762,5.99999523 C1.89687658,5.99999523 0.999997616,5.10310673 0.999997616,3.99999523 C0.999997616,2.8968742 1.89687658,1.99999523 2.99999762,1.99999523 Z M16.9999642,1.99999523 C18.1030757,1.99999523 18.9999642,2.8968742 18.9999642,3.99999523 C18.9999642,5.10310673 18.1030757,5.99999523 16.9999642,5.99999523 C15.8968432,5.99999523 14.9999642,5.10310673 14.9999642,3.99999523 C14.9999642,2.8968742 15.8968432,1.99999523 16.9999642,1.99999523 Z"></path></clipPath></defs><g transform="translate(2.0 5.0)"><g clip-path="url(#i0)"><polygon points="0,0 19.9999523,0 19.9999523,13.9999666 0,13.9999666 0,0" stroke="none" fill="#151515"></polygon></g></g></svg>