<?xml version="1.0" encoding="UTF-8"?>
<svg width="24px" height="24px" viewBox="0 0 24 24" version="1.1" xmlns="http://www.w3.org/2000/svg" xmlns:xlink="http://www.w3.org/1999/xlink">
    <title></title>
    <g id="Icons" stroke="none" stroke-width="1" fill="none" fill-rule="evenodd">
        <g id="Icons/1.-Size-md/Object/users" fill="#151515">
            <path d="M11.9999845,11.9999833 C13.9343588,11.9999833 15.4999678,10.4343743 15.4999678,8.5 C15.4999678,6.56560906 13.9343588,5 11.9999845,5 C10.0655936,5 8.4999845,6.56560906 8.4999845,8.5 C8.4999845,10.4343743 10.0655936,11.9999833 11.9999845,11.9999833 Z M4.99999762,10.9999952 C6.10310911,10.9999952 6.99999762,10.1031067 6.99999762,8.99999523 C6.99999762,7.8968742 6.10310911,6.99999523 4.99999762,6.99999523 C3.89687658,6.99999523 2.99999762,7.8968742 2.99999762,8.99999523 C2.99999762,10.1031067 3.89687658,10.9999952 4.99999762,10.9999952 Z M18.9999642,10.9999952 C20.1030757,10.9999952 20.9999642,10.1031067 20.9999642,8.99999523 C20.9999642,7.8968742 20.1030757,6.99999523 18.9999642,6.99999523 C17.8968432,6.99999523 16.9999642,7.8968742 16.9999642,8.99999523 C16.9999642,10.1031067 17.8968432,10.9999952 18.9999642,10.9999952 Z M20.9999547,15.9999833 C21.5530845,15.9999833 21.9999523,15.5531059 21.9999523,14.9999833 L21.9999523,13.9999833 C21.9999523,12.8968623 21.1030734,11.9999833 19.9999571,11.9999833 L17.9999619,11.9999833 C17.4499754,11.9999833 16.9530893,12.2218456 16.5906024,12.5812197 C17.8499683,13.2718614 18.743704,14.5187151 18.9374596,15.9999833 L20.9999547,15.9999833 Z M5.05937991,15.9999833 C5.25624834,14.5187151 6.149984,13.2718614 7.4093499,12.5812197 C7.04686297,12.2218456 6.54997694,11.9999833 6,11.9999833 L4,11.9999833 C2.89687897,11.9999833 2,12.8968623 2,13.9999833 L2,14.9999833 C2,15.5531059 2.44686783,15.9999833 3,15.9999833 L5.05937991,15.9999833 Z M16.4999654,18.9999666 C17.3280885,18.9999666 17.9999619,18.3280932 17.9999619,17.4999702 L17.9999619,16.5999784 C17.9999619,14.6124649 16.3874779,12.9999809 14.3999643,12.9999809 L14.1405961,12.9999809 C13.4906037,13.3124802 12.7687121,13.4999809 11.9999762,13.4999809 C11.2312402,13.4999809 10.5124919,13.3124802 9.85935626,12.9999809 L9.59998798,12.9999809 C7.61247441,12.9999809 5.99999046,14.6124649 5.99999046,16.5999784 L5.99999046,17.4999702 C5.99999046,18.3280932 6.67186386,18.9999666 7.49999046,18.9999666 L16.4999654,18.9999666 Z" id="users"></path>
        </g>
    </g>
</svg>