<?xml version="1.0" encoding="UTF-8"?><svg version="1.1" width="24px" height="24px" viewBox="0 0 24.0 24.0" xmlns="http://www.w3.org/2000/svg" xmlns:xlink="http://www.w3.org/1999/xlink"><defs><clipPath id="i0"><path d="M4.72185154,8.99997854 C5.41874929,9.31873389 6.18748525,9.49997854 6.99998331,9.49997854 C7.81248137,9.49997854 8.58436064,9.31873389 9.27811509,8.99997854 L9.79996443,8.99997854 C12.118715,8.99997854 13.9999666,10.8812302 13.9999666,13.1999807 L13.9999666,14.4999654 C13.9999666,15.3280885 13.3280932,15.9999619 12.4999702,15.9999619 L1.5,15.9999619 C0.671873398,15.9999619 0,15.3280885 0,14.4999654 L0,13.1999807 C0,10.8812302 1.88125162,8.99997854 4.20000219,8.99997854 Z M6.99999285,0 C9.20935915,0 10.9999738,1.79061463 10.9999738,4 C10.9999738,6.2093663 9.20935915,7.99998093 6.99999285,7.99998093 C4.79060747,7.99998093 2.99999285,6.2093663 2.99999285,4 C2.99999285,1.79061463 4.79060747,0 6.99999285,0 Z"></path></clipPath></defs><g transform="translate(5.0 4.0)"><g clip-path="url(#i0)"><polygon points="0,0 13.9999666,0 13.9999666,15.9999619 0,15.9999619 0,0" stroke="none" fill="#151515"></polygon></g></g></svg>