<?xml version="1.0" encoding="UTF-8"?><svg version="1.1" width="133px" height="36px" viewBox="0 0 133.0 36.0" xmlns="http://www.w3.org/2000/svg" xmlns:xlink="http://www.w3.org/1999/xlink"><defs><clipPath id="i0"><path d="M133,0 L133,36 L0,36 L0,0 L133,0 Z"></path></clipPath><clipPath id="i1"><path d="M1,0 L1,36 L0,36 L0,0 L1,0 Z"></path></clipPath></defs><g clip-path="url(#i0)"><polygon points="0,0 133,0 133,36 0,36 0,0" stroke="none" fill="#FFFFFF"></polygon></g><g transform="translate(16.0 8.0)"><text transform="translate(0.0 14.0)" font-family="RedHatText-Regular, Red Hat Text" font-size="14.0" font-weight="normal" fill="#141514" text-anchor="left" line-spacing="21.0">Default - center</text></g><g transform="translate(132.0 -2.842170943040401e-14)"><g clip-path="url(#i1)"><polygon points="0,0 1,0 1,36 0,36 0,0" stroke="none" fill="#FFFFFF"></polygon><polygon points="0,0 1,0 1,36 0,36 0,0 0,0" stroke="#D2D2D2" stroke-width="2" fill="none" stroke-miterlimit="5"></polygon></g></g></svg>