<?xml version="1.0" encoding="UTF-8"?><svg version="1.1" width="82px" height="48px" viewBox="0 0 82.0 48.0" xmlns="http://www.w3.org/2000/svg" xmlns:xlink="http://www.w3.org/1999/xlink"><defs><clipPath id="i0"><path d="M34,0 L34,16 L0,16 L0,0 L34,0 Z"></path></clipPath><clipPath id="i1"><path d="M34,0 L34,8 L0,8 L0,0 L34,0 Z"></path></clipPath><clipPath id="i2"><path d="M32,0 L32,48 L0,48 L0,0 L32,0 Z"></path></clipPath><clipPath id="i3"><path d="M16,0 L16,48 L0,48 L0,0 L16,0 Z"></path></clipPath></defs><g transform="translate(16.0 16.0)"><text transform="translate(0.0 16.0)" font-family="RedHatText-Regular, Red Hat Text" font-size="16.0" font-weight="normal" fill="#151515" text-anchor="left" line-spacing="24.0">Item</text></g><g transform="translate(16.0 0.0)"><g clip-path="url(#i0)"><polygon points="0,0 34,0 34,16 0,16 0,0" stroke="none" fill="rgba(62, 156, 52, 0.9)"></polygon></g><g clip-path="url(#i0)"><polygon points="0,0 34,0 34,16 0,16 0,0 0,0" stroke="#418A37" stroke-width="2" fill="none" stroke-miterlimit="5"></polygon></g></g><g transform="translate(16.0 40.0)"><g clip-path="url(#i1)"><polygon points="0,0 34,0 34,8 0,8 0,0" stroke="none" fill="rgba(146, 211, 0, 0.9)"></polygon></g><g clip-path="url(#i1)"><polygon points="0,0 34,0 34,8 0,8 0,0 0,0" stroke="#7EB200" stroke-width="2" fill="none" stroke-miterlimit="5"></polygon></g></g><g transform="translate(50.0 0.0)"><g clip-path="url(#i2)"><polygon points="0,0 32,0 32,48 0,48 0,0" stroke="none" fill="rgba(0, 136, 206, 0.9)"></polygon></g><g clip-path="url(#i2)"><polygon points="0,0 32,0 32,48 0,48 0,0 0,0" stroke="#0478B0" stroke-width="2" fill="none" stroke-miterlimit="5"></polygon></g></g><g clip-path="url(#i3)"><polygon points="0,0 16,0 16,48 0,48 0,0" stroke="none" fill="rgba(62, 156, 52, 0.9)"></polygon></g><g clip-path="url(#i3)"><polygon points="0,0 16,0 16,48 0,48 0,0 0,0" stroke="#418A37" stroke-width="2" fill="none" stroke-miterlimit="5"></polygon></g></svg>