<?xml version="1.0" encoding="UTF-8"?><svg version="1.1" width="274px" height="29px" viewBox="0 0 274.0 29.0" xmlns="http://www.w3.org/2000/svg" xmlns:xlink="http://www.w3.org/1999/xlink"><defs><clipPath id="i0"><path d="M242,0 L242,21 L0,21 L0,0 L242,0 Z"></path></clipPath><clipPath id="i1"><path d="M16,0 L16,29 L0,29 L0,0 L16,0 Z"></path></clipPath><clipPath id="i2"><path d="M242,0 L242,4 L0,4 L0,0 L242,0 Z"></path></clipPath></defs><g transform="translate(16.0 4.0)"><g clip-path="url(#i0)"><text transform="translate(0.0 14.0)" font-family="RedHatText-Regular, Red Hat Text" font-size="14.0" font-weight="normal" fill="#141514" text-anchor="left" line-spacing="21.0">This is the item</text></g></g><g transform="translate(257.9999999999999 0.0)"><g clip-path="url(#i1)"><polygon points="0,0 16,0 16,29 0,29 0,0" stroke="none" fill="rgba(62, 156, 52, 0.9)"></polygon></g><g clip-path="url(#i1)"><polygon points="0,0 16,0 16,29 0,29 0,0 0,0" stroke="#418A37" stroke-width="2" fill="none" stroke-miterlimit="5"></polygon></g></g><g clip-path="url(#i1)"><polygon points="0,0 16,0 16,29 0,29 0,0" stroke="none" fill="rgba(62, 156, 52, 0.9)"></polygon></g><g clip-path="url(#i1)"><polygon points="0,0 16,0 16,29 0,29 0,0 0,0" stroke="#418A37" stroke-width="2" fill="none" stroke-miterlimit="5"></polygon></g><g transform="translate(16.0 0.0)"><g clip-path="url(#i2)"><polygon points="0,0 242,0 242,4 0,4 0,0" stroke="none" fill="rgba(236, 121, 8, 0.9)"></polygon></g><g clip-path="url(#i2)"><polygon points="0,0 242,0 242,4 0,4 0,0 0,0" stroke="#C67000" stroke-width="2" fill="none" stroke-miterlimit="5"></polygon></g></g><g transform="translate(16.0 25.0)"><g clip-path="url(#i2)"><polygon points="0,0 242,0 242,4 0,4 0,0" stroke="none" fill="rgba(236, 121, 8, 0.9)"></polygon></g><g clip-path="url(#i2)"><polygon points="0,0 242,0 242,4 0,4 0,0 0,0" stroke="#C67000" stroke-width="2" fill="none" stroke-miterlimit="5"></polygon></g></g></svg>