<?xml version="1.0" encoding="UTF-8"?><svg version="1.1" width="274px" height="29px" viewBox="0 0 274.0 29.0" xmlns="http://www.w3.org/2000/svg" xmlns:xlink="http://www.w3.org/1999/xlink"><defs><clipPath id="i0"><path d="M287,0 C288.656854,-3.04359188e-16 290,1.34314575 290,3 L290,42 C290,43.6568542 288.656854,45 287,45 L3,45 C1.34314575,45 6.42015506e-15,43.6568542 0,42 L0,3 C-2.02906125e-16,1.34314575 1.34314575,-1.39730022e-16 3,0 L287,0 Z"></path></clipPath><clipPath id="i1"><path d="M274,0 L274,29 L0,29 L0,0 L274,0 Z"></path></clipPath><clipPath id="i2"><path d="M242,0 L242,21 L0,21 L0,0 L242,0 Z"></path></clipPath><clipPath id="i3"><path d="M242,0 L242,4 L0,4 L0,0 L242,0 Z"></path></clipPath><clipPath id="i4"><path d="M16,0 L16,29 L0,29 L0,0 L16,0 Z"></path></clipPath></defs><g transform="translate(-8.0 -8.0)"><g clip-path="url(#i0)"><polygon points="0,0 290,0 290,45 0,45 0,0" stroke="none" fill="rgba(0, 102, 204, 0.2)"></polygon></g><g clip-path="url(#i0)"><path d="M3,0 L287,0 C288.656854,-3.04359188e-16 290,1.34314575 290,3 L290,42 C290,43.6568542 288.656854,45 287,45 L3,45 C1.34314575,45 6.42015506e-15,43.6568542 0,42 L0,3 C-2.02906125e-16,1.34314575 1.34314575,-1.39730022e-16 3,0 Z" stroke="#0066CC" stroke-width="2" fill="none" stroke-miterlimit="5"></path></g></g><g clip-path="url(#i1)"><polygon points="0,0 274,0 274,29 0,29 0,0" stroke="none" fill="#F0F0F0"></polygon></g><g transform="translate(16.0 4.0)"><g clip-path="url(#i2)"><text transform="translate(0.0 14.0)" font-family="RedHatText-Medium, Red Hat Text" font-size="14.0" font-weight="400" fill="#0066CC" text-anchor="left" line-spacing="21.0">This is the item</text></g></g><g transform="translate(16.0 0.0)"><g clip-path="url(#i3)"><polygon points="0,0 242,0 242,4 0,4 0,0" stroke="none" fill="rgba(236, 121, 8, 0.9)"></polygon></g><g clip-path="url(#i3)"><polygon points="0,0 242,0 242,4 0,4 0,0 0,0" stroke="#C67000" stroke-width="2" fill="none" stroke-miterlimit="5"></polygon></g></g><g transform="translate(16.0 25.0)"><g clip-path="url(#i3)"><polygon points="0,0 242,0 242,4 0,4 0,0" stroke="none" fill="rgba(236, 121, 8, 0.9)"></polygon></g><g clip-path="url(#i3)"><polygon points="0,0 242,0 242,4 0,4 0,0 0,0" stroke="#C67000" stroke-width="2" fill="none" stroke-miterlimit="5"></polygon></g></g><g transform="translate(257.9999999999999 0.0)"><g clip-path="url(#i4)"><polygon points="0,0 16,0 16,29 0,29 0,0" stroke="none" fill="rgba(62, 156, 52, 0.9)"></polygon></g><g clip-path="url(#i4)"><polygon points="0,0 16,0 16,29 0,29 0,0 0,0" stroke="#418A37" stroke-width="2" fill="none" stroke-miterlimit="5"></polygon></g></g><g clip-path="url(#i4)"><polygon points="0,0 16,0 16,29 0,29 0,0" stroke="none" fill="rgba(62, 156, 52, 0.9)"></polygon></g><g clip-path="url(#i4)"><polygon points="0,0 16,0 16,29 0,29 0,0 0,0" stroke="#418A37" stroke-width="2" fill="none" stroke-miterlimit="5"></polygon></g></svg>