<?xml version="1.0" encoding="UTF-8"?><svg version="1.1" width="185px" height="90px" viewBox="0 0 185.0 90.0" xmlns="http://www.w3.org/2000/svg" xmlns:xlink="http://www.w3.org/1999/xlink"><defs><clipPath id="i0"><path d="M182,0 C183.656854,-3.04359188e-16 185,1.34314575 185,3 L185,87 C185,88.6568542 183.656854,90 182,90 L3,90 C1.34314575,90 2.02906125e-16,88.6568542 0,87 L0,3 C-2.02906125e-16,1.34314575 1.34314575,-1.39730022e-16 3,0 L182,0 Z"></path></clipPath><clipPath id="i1"><path d="M7.49998212,0 C8.05216586,0 8.49997973,0.447813874 8.49997973,1 L8.49997973,5.49998689 L12.999969,5.49998689 C13.5521527,5.49998689 13.9999666,5.94780076 13.9999666,6.4999845 L13.9999666,7.49998212 C13.9999666,8.05216586 13.5521527,8.49997973 12.999969,8.49997973 L8.49997973,8.49997973 L8.49997973,12.999969 C8.49997973,13.5521527 8.05216586,13.9999666 7.49998212,13.9999666 L6.4999845,13.9999666 C5.94780076,13.9999666 5.49998689,13.5521527 5.49998689,12.999969 L5.49998689,8.49997973 L1,8.49997973 C0.447813874,8.49997973 0,8.05216586 0,7.49998212 L0,6.4999845 C0,5.94780076 0.447813874,5.49998689 1,5.49998689 L5.49998689,5.49998689 L5.49998689,1 C5.49998689,0.447813874 5.94780076,0 6.4999845,0 Z"></path></clipPath><clipPath id="i2"><path d="M24,0 L24,24 L0,24 L0,0 L24,0 Z"></path></clipPath></defs><g clip-path="url(#i0)"><polygon points="0,0 185,0 185,90 0,90 0,0" stroke="none" fill="#FFFFFF"></polygon><path d="M3,0 L182,0 C183.656854,-3.04359188e-16 185,1.34314575 185,3 L185,87 C185,88.6568542 183.656854,90 182,90 L3,90 C1.34314575,90 2.02906125e-16,88.6568542 0,87 L0,3 C-2.02906125e-16,1.34314575 1.34314575,-1.39730022e-16 3,0 Z" stroke="#D2D2D2" stroke-width="2" fill="none" stroke-miterlimit="5"></path></g><g transform="translate(64.0 24.0)"><text transform="translate(0.0 16.0)" font-family="RedHatText-Regular, Red Hat Text" font-size="16.0" font-weight="normal" fill="#151515" text-anchor="left" line-spacing="24.0">Default tile</text></g><g transform="translate(24.0 48.0)"><text transform="translate(19.216 12.0)" font-family="RedHatText-Regular, Red Hat Text" font-size="12.0" font-weight="normal" fill="#151515" text-anchor="center" line-spacing="18.0">Subtext goes here</text></g><g transform="translate(40.0 24.0)"><g transform="translate(5.0 5.0)"><g clip-path="url(#i1)"><polygon points="0,0 13.9999666,0 13.9999666,13.9999666 0,13.9999666 0,0" stroke="none" fill="#696E73"></polygon><g clip-path="url(#i2)"><polygon points="0,0 13.9999666,0 13.9999666,13.9999666 0,13.9999666 0,0" stroke="none" fill="#151515"></polygon></g></g></g></g></svg>