<?xml version="1.0" encoding="UTF-8"?>
<svg width="185px" height="90px" viewBox="0 0 185 90" version="1.1" xmlns="http://www.w3.org/2000/svg" xmlns:xlink="http://www.w3.org/1999/xlink">
    <title></title>
    <defs>
        <rect id="path-1" x="0" y="0" width="185" height="90"></rect>
        <filter x="-2.2%" y="-4.4%" width="104.3%" height="108.9%" filterUnits="objectBoundingBox" id="filter-2">
            <feOffset dx="0" dy="-8" in="SourceAlpha" result="shadowOffsetInner1"></feOffset>
            <feComposite in="shadowOffsetInner1" in2="SourceAlpha" operator="arithmetic" k2="-1" k3="1" result="shadowInnerInner1"></feComposite>
            <feColorMatrix values="0 0 0 0 0.823529412   0 0 0 0 0.823529412   0 0 0 0 0.823529412  0 0 0 1 0" type="matrix" in="shadowInnerInner1"></feColorMatrix>
        </filter>
    </defs>
    <g id="Tiles" stroke="none" stroke-width="1" fill="none" fill-rule="evenodd">
        <g id="Group">
            <g id="Rectangle">
                <use fill="#FAFAFA" fill-rule="evenodd" xlink:href="#path-1"></use>
                <use fill="black" fill-opacity="1" filter="url(#filter-2)" xlink:href="#path-1"></use>
            </g>
            <text id="Subtext-goes-here" font-family="RedHatText-Regular, Red Hat Text" font-size="12" font-weight="normal" line-spacing="18" fill="#6A6E73">
                <tspan x="43.216" y="60">Subtext goes here</tspan>
            </text>
            <text id="Selected-tile" font-family="RedHatText-Regular, Red Hat Text" font-size="16" font-weight="normal" line-spacing="24" fill="#6A6E73">
                <tspan x="60.2" y="40">Selected tile</tspan>
            </text>
            <g id="Icons-/-🖼-Dynamic-Icon" transform="translate(41.000000, 29.000000)" fill="#6A6E73">
                <g id="🖼-Icon">
                    <path d="M7.49998212,13.9999666 C8.05216586,13.9999666 8.49997973,13.5521527 8.49997973,12.999969 L8.49997973,8.49997973 L12.999969,8.49997973 C13.5521527,8.49997973 13.9999666,8.05216586 13.9999666,7.49998212 L13.9999666,6.4999845 C13.9999666,5.94780076 13.5521527,5.49998689 12.999969,5.49998689 L8.49997973,5.49998689 L8.49997973,1 C8.49997973,0.447813874 8.05216586,0 7.49998212,0 L6.4999845,0 C5.94780076,0 5.49998689,0.447813874 5.49998689,1 L5.49998689,5.49998689 L1,5.49998689 C0.447813874,5.49998689 0,5.94780076 0,6.4999845 L0,7.49998212 C0,8.05216586 0.447813874,8.49997973 1,8.49997973 L5.49998689,8.49997973 L5.49998689,12.999969 C5.49998689,13.5521527 5.94780076,13.9999666 6.4999845,13.9999666 L7.49998212,13.9999666 Z" id="plus"></path>
                </g>
                <rect id="🎨-Color" x="-5" y="-5" width="24" height="24"></rect>
            </g>
        </g>
    </g>
</svg>