<?xml version="1.0" encoding="UTF-8"?><svg version="1.1" width="150px" height="36px" viewBox="0 0 150.0 36.0" xmlns="http://www.w3.org/2000/svg" xmlns:xlink="http://www.w3.org/1999/xlink"><defs><clipPath id="i0"><path d="M150,0 L150,36 L0,36 L0,0 L150,0 Z"></path></clipPath><clipPath id="i1"><path d="M8,0 L8,36 L0,36 L0,0 L8,0 Z"></path></clipPath><clipPath id="i2"><path d="M134,0 L134,6 L0,6 L0,0 L134,0 Z"></path></clipPath></defs><g clip-path="url(#i0)"><polygon points="0,0 150,0 150,36 0,36 0,0" stroke="none" fill="#393F44"></polygon><g transform="translate(0.0 -1.0)"><polygon points="150,36 150,37 0,37 0,36 150,36 150,36" stroke="none" fill="#8B8D8F"></polygon></g></g><g transform="translate(8.0 6.0)"><text transform="translate(0.0 16.0)" font-family="RedHatText-Regular, Red Hat Text" font-size="16.0" font-weight="normal" fill="#FFFFFF" text-anchor="left" line-spacing="24.0">Text Box</text></g><g clip-path="url(#i1)"><polygon points="0,0 8,0 8,36 0,36 0,0" stroke="none" fill="rgba(146, 211, 0, 0.9)"></polygon></g><g clip-path="url(#i1)"><polygon points="0,0 8,0 8,36 0,36 0,0 0,0" stroke="#7EB200" stroke-width="2" fill="none" stroke-miterlimit="5"></polygon></g><g transform="translate(142.0 0.0)"><g clip-path="url(#i1)"><polygon points="0,0 8,0 8,36 0,36 0,0" stroke="none" fill="rgba(146, 211, 0, 0.9)"></polygon></g><g clip-path="url(#i1)"><polygon points="0,0 8,0 8,36 0,36 0,0 0,0" stroke="#7EB200" stroke-width="2" fill="none" stroke-miterlimit="5"></polygon></g></g><g transform="translate(8.0 30.0)"><g clip-path="url(#i2)"><polygon points="0,0 134,0 134,6 0,6 0,0" stroke="none" fill="rgba(243, 213, 59, 0.9)"></polygon></g><g clip-path="url(#i2)"><polygon points="0,0 134,0 134,6 0,6 0,0 0,0" stroke="#CAB534" stroke-width="2" fill="none" stroke-miterlimit="5"></polygon></g></g><g transform="translate(8.0 0.0)"><g clip-path="url(#i2)"><polygon points="0,0 134,0 134,6 0,6 0,0" stroke="none" fill="rgba(243, 213, 59, 0.9)"></polygon></g><g clip-path="url(#i2)"><polygon points="0,0 134,0 134,6 0,6 0,0 0,0" stroke="#CAB534" stroke-width="2" fill="none" stroke-miterlimit="5"></polygon></g></g></svg>