<svg xmlns="http://www.w3.org/2000/svg" width="62" height="36" viewBox="0 0 62 36" style="background:#fff">
  <g fill="none" fill-rule="evenodd">
    <rect width="62" height="36" fill="#FFF"/>
    <path fill="#6A6E73" d="M11.9846107,22.7835782 L12.6908468,22.0741988 C12.9846083,21.7835806 12.9846083,21.3085756 12.6908468,21.0148446 L9.67837228,18.0023396 L12.687734,14.9867218 C12.981465,14.6961036 12.981465,14.2210986 12.687734,13.9273371 L11.9814674,13.221101 C11.6908492,12.9273395 11.2158442,12.9273395 10.9221132,13.221101 L6.67212335,17.4710909 C6.37836184,17.7648524 6.37836184,18.2398268 6.67523613,18.5335883 L10.925226,22.7835782 C11.2158442,23.0773397 11.6908492,23.0773397 11.9846107,22.7835782 Z" transform="translate(8)"/>
    <path fill="#6A6E73" d="M8.43843544,22.7835782 L12.6884253,18.5335883 C12.9821868,18.2398268 12.9821868,17.7648524 12.6853125,17.4710909 L8.43532266,13.221101 C8.14470445,12.9273395 7.66969948,12.9273395 7.37593797,13.221101 L6.67281465,13.9335932 C6.37908366,14.2242114 6.37908366,14.6992164 6.67281465,14.9929779 L9.68531968,18.0054524 L6.67281465,21.0179574 C6.37908366,21.3085756 6.37908366,21.7835806 6.67281465,22.0773421 L7.37908128,22.7835782 C7.66969948,23.0773397 8.14470445,23.0773397 8.43843544,22.7835782 Z" transform="translate(43)"/>
    <g fill-opacity=".9">
      <rect width="7" height="35" x=".5" y=".5" fill="#92D400" stroke="#7FB300"/>
      <rect width="15" height="35" x=".5" y=".5" fill="#3F9C35" stroke="#418A38" transform="translate(27)"/>
    </g>
  </g>
</svg>
