<svg xmlns="http://www.w3.org/2000/svg" xmlns:xlink="http://www.w3.org/1999/xlink" width="214" height="36" viewBox="0 0 214 36" style="background:#fff">
  <defs>
    <rect id="full-a" width="48" height="36" x="0" y="0"/>
    <filter id="full-b" width="102.1%" height="102.8%" x="-1%" y="-1.4%" filterUnits="objectBoundingBox">
      <feOffset dx="-1" in="SourceAlpha" result="shadowOffsetInner1"/>
      <feComposite in="shadowOffsetInner1" in2="SourceAlpha" k2="-1" k3="1" operator="arithmetic" result="shadowInnerInner1"/>
      <feColorMatrix in="shadowInnerInner1" result="shadowMatrixInner1" values="0 0 0 0 0.941176471   0 0 0 0 0.941176471   0 0 0 0 0.941176471  0 0 0 1 0"/>
      <feOffset dy="1" in="SourceAlpha" result="shadowOffsetInner2"/>
      <feComposite in="shadowOffsetInner2" in2="SourceAlpha" k2="-1" k3="1" operator="arithmetic" result="shadowInnerInner2"/>
      <feColorMatrix in="shadowInnerInner2" result="shadowMatrixInner2" values="0 0 0 0 0.941176471   0 0 0 0 0.941176471   0 0 0 0 0.941176471  0 0 0 1 0"/>
      <feOffset dx="1" in="SourceAlpha" result="shadowOffsetInner3"/>
      <feComposite in="shadowOffsetInner3" in2="SourceAlpha" k2="-1" k3="1" operator="arithmetic" result="shadowInnerInner3"/>
      <feColorMatrix in="shadowInnerInner3" result="shadowMatrixInner3" values="0 0 0 0 0.941176471   0 0 0 0 0.941176471   0 0 0 0 0.941176471  0 0 0 1 0"/>
      <feOffset dy="-1" in="SourceAlpha" result="shadowOffsetInner4"/>
      <feComposite in="shadowOffsetInner4" in2="SourceAlpha" k2="-1" k3="1" operator="arithmetic" result="shadowInnerInner4"/>
      <feColorMatrix in="shadowInnerInner4" result="shadowMatrixInner4" values="0 0 0 0 0.541176471   0 0 0 0 0.552941176   0 0 0 0 0.564705882  0 0 0 1 0"/>
      <feMerge>
        <feMergeNode in="shadowMatrixInner1"/>
        <feMergeNode in="shadowMatrixInner2"/>
        <feMergeNode in="shadowMatrixInner3"/>
        <feMergeNode in="shadowMatrixInner4"/>
      </feMerge>
    </filter>
  </defs>
  <g fill="none" fill-rule="evenodd">
    <rect width="214" height="36" fill="#FFF"/>
    <g transform="translate(162)">
      <path fill="#151515" d="M10.985919,16.7827983 L15.2359089,12.5328085 C15.5296704,12.239047 15.5296704,11.7640725 15.2327961,11.470311 L10.9828062,7.22032113 C10.692188,6.92655962 10.2171831,6.92655962 9.92342157,7.22032113 L9.22029824,7.93281333 C8.92656725,8.22343153 8.92656725,8.6984365 9.22029824,8.99219801 L12.2328033,12.0046725 L9.22029824,15.0171775 C8.92656725,15.3077957 8.92656725,15.7828007 9.22029824,16.0765622 L9.92656487,16.7827983 C10.2171831,17.0765598 10.692188,17.0765598 10.985919,16.7827983 Z" transform="translate(-2 6)"/>
      <rect width="20" height="36" fill="#6A6E73"/>
    </g>
    <g transform="translate(33)">
      <path fill="#151515" d="M14.5324209,16.7827983 L15.238657,16.0734189 C15.5324185,15.7828007 15.5324185,15.3077957 15.238657,15.0140648 L12.2261825,12.0015597 L15.2355442,8.98594192 C15.5292752,8.69532372 15.5292752,8.22031875 15.2355442,7.92655724 L14.5292776,7.22032113 C14.2386594,6.92655962 13.7636544,6.92655962 13.4699234,7.22032113 L9.21993357,11.470311 C8.92617206,11.7640725 8.92617206,12.239047 9.22304636,12.5328085 L13.4730362,16.7827983 C13.7636544,17.0765598 14.2386594,17.0765598 14.5324209,16.7827983 Z" transform="translate(-2.5 6)"/>
      <rect width="19" height="36" fill="#D2D2D2"/>
    </g>
    <path fill="#151515" d="M17.5324066,16.7827983 L18.2386427,16.0734189 C18.5324042,15.7828007 18.5324042,15.3077957 18.2386427,15.0140648 L15.2261682,12.0015597 L18.2355299,8.98594192 C18.5292609,8.69532372 18.5292609,8.22031875 18.2355299,7.92655724 L17.5292633,7.22032113 C17.2386451,6.92655962 16.7636401,6.92655962 16.4699091,7.22032113 L12.2199193,11.470311 C11.9261578,11.7640725 11.9261578,12.239047 12.2230321,12.5328085 L16.4730219,16.7827983 C16.7636401,17.0765598 17.2386451,17.0765598 17.5324066,16.7827983 Z M11.5292776,16.7827983 L12.2355442,16.0765622 C12.5292752,15.7828007 12.5292752,15.3077957 12.2355442,15.0171775 L9.22618251,12.0015597 L12.238657,8.98905471 C12.5324185,8.69532372 12.5324185,8.22031875 12.238657,7.92970054 L11.5324209,7.22032113 C11.2386594,6.92655962 10.7636544,6.92655962 10.4730362,7.22032113 L6.22304636,11.470311 C5.92617206,11.7640725 5.92617206,12.239047 6.21993357,12.5328085 L10.4699234,16.7827983 C10.7636544,17.0765598 11.2386594,17.0765598 11.5292776,16.7827983 Z" transform="translate(2 6)"/>
    <rect width="28" height="36" fill="#D2D2D2"/>
    <g transform="translate(186)">
      <path fill="#151515" d="M7.98591903,16.7827983 L12.2359089,12.5328085 C12.5296704,12.239047 12.5296704,11.7640725 12.2327961,11.470311 L7.98280625,7.22032113 C7.69218804,6.92655962 7.21718307,6.92655962 6.92342157,7.22032113 L6.22029824,7.93281333 C5.92656725,8.22343153 5.92656725,8.6984365 6.22029824,8.99219801 L9.23280327,12.0046725 L6.22029824,15.0171775 C5.92656725,15.3077957 5.92656725,15.7828007 6.22029824,16.0765622 L6.92656487,16.7827983 C7.21718307,17.0765598 7.69218804,17.0765598 7.98591903,16.7827983 Z M13.9859047,16.7765422 L18.2358946,12.5265524 C18.5296561,12.239047 18.5296561,11.7640725 18.2358946,11.470311 L13.9859047,7.22032113 C13.6921737,6.92655962 13.2171688,6.92655962 12.9265506,7.22032113 L12.2202839,7.92655724 C11.9265529,8.22031875 11.9265529,8.69532372 12.2202839,8.98594192 L15.232789,11.9984469 L12.2202839,15.0109215 C11.9265529,15.304683 11.9265529,15.7796879 12.2202839,16.0703061 L12.9265506,16.7765422 C13.2202816,17.0703037 13.6952865,17.0703037 13.9859047,16.7765422 Z" transform="translate(2 6)"/>
      <rect width="28" height="36" fill="#6A6E73"/>
    </g>
    <text fill="#151515" font-family="RedHatText-Regular, Red Hat Text" font-size="14">
      <tspan x="120" y="23">of 4</tspan>
    </text>
    <g transform="translate(68)">
      <use fill="#FFF" xlink:href="#full-a"/>
      <use fill="#000" filter="url(#full-b)" xlink:href="#full-a"/>
      <text fill="#151515" font-family="RedHatText-Regular, Red Hat Text" font-size="16">
        <tspan x="8" y="22">1</tspan>
      </text>
      <g fill-opacity=".9">
        <rect width="7" height="35" x=".5" y=".5" fill="#92D400" stroke="#7FB300"/>
        <rect width="7" height="35" x=".5" y=".5" fill="#92D400" stroke="#7FB300" transform="translate(40)"/>
        <rect width="31" height="5" x=".5" y=".5" fill="#F3D53C" stroke="#CBB534" transform="translate(8 30)"/>
        <rect width="31" height="5" x=".5" y=".5" fill="#F3D53C" stroke="#CBB534" transform="translate(8)"/>
      </g>
    </g>
    <g fill-opacity=".9" transform="translate(29)">
      <rect width="3" height="35" x=".5" y=".5" fill="#EC7A08" stroke="#C77000"/>
      <rect width="3" height="35" x=".5" y=".5" fill="#EC7A08" stroke="#C77000" transform="translate(153)"/>
      <rect width="3" height="35" x=".5" y=".5" fill="#EC7A08" stroke="#C77000" transform="translate(87)"/>
      <rect width="15" height="35" x=".5" y=".5" fill="#3F9C35" stroke="#418A38" transform="translate(23)"/>
      <rect width="15" height="35" x=".5" y=".5" fill="#3F9C35" stroke="#418A38" transform="translate(117)"/>
    </g>
  </g>
</svg>
