<?xml version="1.0" encoding="UTF-8"?><svg version="1.1" width="540px" height="121px" viewBox="0 0 540.0 121.0" xmlns="http://www.w3.org/2000/svg" xmlns:xlink="http://www.w3.org/1999/xlink"><defs><filter id="i0" x="-4.77941176%" y="-14.4%" filterUnits="userSpaceOnUse" width="108.823529%" height="138.4%"><feGaussianBlur stdDeviation="4" in="SourceAlpha" result="i1"></feGaussianBlur><feOffset dx="0" dy="8" in="i1" result="i2"></feOffset><feColorMatrix values="0 0 0 0.0 0 0 0 0 0.0 0 0 0 0 0.0 0 0 0 0 0.18 0" type="matrix" in="i2"></feColorMatrix></filter><clipPath id="i3"><path d="M540,0 L540,121 L0,121 L0,0 L540,0 Z"></path></clipPath><filter id="i4" x="-4.77941176%" y="-27.2%" filterUnits="userSpaceOnUse" width="108.823529%" height="138.4%"><feGaussianBlur stdDeviation="4" in="SourceAlpha" result="i5"></feGaussianBlur><feOffset dx="0" dy="-8" in="i5" result="i6"></feOffset><feColorMatrix values="0 0 0 0.0 0 0 0 0 0.0 0 0 0 0 0.0 0 0 0 0 0.18 0" type="matrix" in="i6"></feColorMatrix></filter><clipPath id="i7"><path d="M3,0 L3,121 L0,121 L0,0 L3,0 Z"></path></clipPath><clipPath id="i8"><path d="M7.7007141,0.749540607 C8.27780012,-0.250762184 9.72320073,-0.248931134 10.2992797,0.749540607 L17.7973697,13.7503641 C18.3741811,14.7501786 17.6501533,15.999962 16.4981174,15.999962 L1.50169323,15.999962 C0.347429627,15.999962 -0.373271779,14.748256 0.202410442,13.7503641 Z M8.99999689,11.0624738 C8.20608399,11.0624738 7.56250032,11.7060575 7.56250032,12.4999704 C7.56250032,13.2938833 8.20608399,13.9374669 8.99999689,13.9374669 C9.79390979,13.9374669 10.4374935,13.2938833 10.4374935,12.4999704 C10.4374935,11.7060575 9.79390979,11.0624738 8.99999689,11.0624738 Z M9.99035097,5.49998704 L8.00961229,5.49998704 C7.79449439,5.49998704 7.62350481,5.68062016 7.63522353,5.89543288 L7.8670345,10.1454227 C7.87786822,10.3442748 8.04229654,10.4999751 8.24145378,10.4999751 L9.75854,10.4999751 C9.95769724,10.4999751 10.1221256,10.3442748 10.1329593,10.1454227 L10.3647702,5.89543288 C10.376489,5.68062016 10.2054689,5.49998704 9.99035097,5.49998704 Z"></path></clipPath><clipPath id="i9"><path d="M2.24999464,10.9999738 C3.49373557,10.9999738 4.49998927,12.0062275 4.49998927,13.2499684 C4.49998927,14.4937093 3.49373557,15.499963 2.24999464,15.499963 C1.0062537,15.499963 0,14.4937093 0,13.2499684 C0,12.0062275 1.0062537,10.9999738 2.24999464,10.9999738 Z M2.24999464,5.49998689 C3.49373557,5.49998689 4.49998927,6.50624059 4.49998927,7.74998152 C4.49998927,8.99372245 3.49373557,9.99997616 2.24999464,9.99997616 C1.0062537,9.99997616 0,8.99372245 0,7.74998152 C0,6.50624059 1.0062537,5.49998689 2.24999464,5.49998689 Z M2.24999464,0 C3.49373557,0 4.49998927,1.0062537 4.49998927,2.24999464 C4.49998927,3.49373557 3.49373557,4.49998927 2.24999464,4.49998927 C1.0062537,4.49998927 0,3.49373557 0,2.24999464 C0,1.0062537 1.0062537,0 2.24999464,0 Z"></path></clipPath><clipPath id="i10"><path d="M24,0 L24,24 L0,24 L0,0 L24,0 Z"></path></clipPath><clipPath id="i11"><path d="M436,0 L436,32 L0,32 L0,0 L436,0 Z"></path></clipPath><clipPath id="i12"><path d="M508,0 L508,4 L0,4 L0,0 L508,0 Z"></path></clipPath><clipPath id="i13"><path d="M16,0 L16,121 L0,121 L0,0 L16,0 Z"></path></clipPath><clipPath id="i14"><path d="M540,0 L540,16 L0,16 L0,0 L540,0 Z"></path></clipPath><clipPath id="i15"><path d="M508,0 L508,8 L0,8 L0,0 L508,0 Z"></path></clipPath><clipPath id="i16"><path d="M8,0 L8,32 L0,32 L0,0 L8,0 Z"></path></clipPath></defs><polygon points="6,6 534,6 534,115 6,115 6,6" stroke="none" fill="#000000" filter="url(#i0)"></polygon><g clip-path="url(#i3)"><polygon points="0,0 540,0 540,121 0,121 0,0" stroke="none" fill="#FFFFFF"></polygon></g><polygon points="6,6 534,6 534,115 6,115 6,6" stroke="none" fill="#000000" filter="url(#i4)"></polygon><g clip-path="url(#i3)"><polygon points="0,0 540,0 540,121 0,121 0,0" stroke="none" fill="#FFFFFF"></polygon></g><g clip-path="url(#i7)"><polygon points="0,0 3,0 3,121 0,121 0,0" stroke="none" fill="#F0AB00"></polygon></g><g transform="translate(16.0 16.0)"><g transform="translate(3.000000000000057 4.000000000000001)"><g clip-path="url(#i8)"><polygon points="-1.77635684e-15,-4.42978987e-14 17.9999599,-4.42978987e-14 17.9999599,15.999962 -1.77635684e-15,15.999962 -1.77635684e-15,-4.42978987e-14" stroke="none" fill="#F0AB00"></polygon></g></g></g><g transform="translate(484.0 16.0)"><g transform="translate(8.0 6.0)"><g transform="translate(10.0 3.999999999999999)"><g clip-path="url(#i9)"><polygon points="0,0 4.49998927,0 4.49998927,15.499963 0,15.499963 0,0" stroke="none" fill="#151515"></polygon><g clip-path="url(#i10)"><polygon points="0,0 4.49998927,0 4.49998927,15.499963 0,15.499963 0,0" stroke="none" fill="#696E73"></polygon></g></g></g></g></g><g transform="translate(16.0 84.0)"><text transform="translate(0.0 14.0)" font-family="RedHatText-Regular, Red Hat Text" font-size="14.0" font-weight="normal" fill="#696E73" text-anchor="left" line-spacing="21.0">A few minutes ago</text></g><g transform="translate(16.0 52.0)"><text transform="translate(0.0 16.0)" font-family="RedHatText-Regular, Red Hat Text" font-size="16.0" font-weight="normal" fill="#151515" text-anchor="left" line-spacing="24.0">Content</text></g><g transform="translate(48.0 16.0)"><g clip-path="url(#i11)"><text transform="translate(0.0 16.0)" font-family="RedHatDisplay-Medium, Red Hat Display" font-size="16.0" font-weight="500" fill="#151515" text-anchor="left" line-spacing="24.0">Title</text></g></g><g transform="translate(16.0 48.0)"><g clip-path="url(#i12)"><polygon points="0,0 508,0 508,4 0,4 0,0" stroke="none" fill="rgba(236, 121, 8, 0.9)"></polygon></g><g clip-path="url(#i12)"><polygon points="0,0 508,0 508,4 0,4 0,0 0,0" stroke="#C67000" stroke-width="2" fill="none" stroke-miterlimit="5"></polygon></g></g><g clip-path="url(#i13)"><polygon points="0,0 16,0 16,121 0,121 0,0" stroke="none" fill="rgba(62, 156, 52, 0.9)"></polygon></g><g clip-path="url(#i13)"><polygon points="0,0 16,0 16,121 0,121 0,0 0,0" stroke="#418A37" stroke-width="2" fill="none" stroke-miterlimit="5"></polygon></g><g transform="translate(524.0 0.0)"><g clip-path="url(#i13)"><polygon points="0,0 16,0 16,121 0,121 0,0" stroke="none" fill="rgba(62, 156, 52, 0.9)"></polygon></g><g clip-path="url(#i13)"><polygon points="0,0 16,0 16,121 0,121 0,0 0,0" stroke="#418A37" stroke-width="2" fill="none" stroke-miterlimit="5"></polygon></g></g><g clip-path="url(#i14)"><polygon points="0,0 540,0 540,16 0,16 0,0" stroke="none" fill="rgba(62, 156, 52, 0.9)"></polygon></g><g clip-path="url(#i14)"><polygon points="0,0 540,0 540,16 0,16 0,0 0,0" stroke="#418A37" stroke-width="2" fill="none" stroke-miterlimit="5"></polygon></g><g transform="translate(16.0 75.0)"><g transform="translate(0.0 1.0)"><g clip-path="url(#i15)"><polygon points="0,0 508,0 508,8 0,8 0,0" stroke="none" fill="rgba(146, 211, 0, 0.9)"></polygon></g><g clip-path="url(#i15)"><polygon points="0,0 508,0 508,8 0,8 0,0 0,0" stroke="#7EB200" stroke-width="2" fill="none" stroke-miterlimit="5"></polygon></g></g></g><g transform="translate(40.0 16.0)"><g clip-path="url(#i16)"><polygon points="0,0 8,0 8,32 0,32 0,0" stroke="none" fill="rgba(146, 211, 0, 0.9)"></polygon></g><g clip-path="url(#i16)"><polygon points="0,0 8,0 8,32 0,32 0,0 0,0" stroke="#7EB200" stroke-width="2" fill="none" stroke-miterlimit="5"></polygon></g></g><g transform="translate(0.0 105.0)"><g clip-path="url(#i14)"><polygon points="0,0 540,0 540,16 0,16 0,0" stroke="none" fill="rgba(62, 156, 52, 0.9)"></polygon></g><g clip-path="url(#i14)"><polygon points="0,0 540,0 540,16 0,16 0,0 0,0" stroke="#418A37" stroke-width="2" fill="none" stroke-miterlimit="5"></polygon></g></g></svg>