<svg xmlns="http://www.w3.org/2000/svg" width="24" height="24" viewBox="0 0 24 24">
  <path fill="#6A6E73" fill-rule="evenodd" d="M18.6249675,9.99998808 C18.8312048,9.99998808 18.9999666,9.83122627 18.9999666,9.62498897 L18.9999666,8.37499195 C18.9999666,8.16875465 18.8312048,8 18.6249675,8 L15.9999785,8 L15.9999785,5.37499911 C15.9999785,5.1687618 15.831212,5 15.6249747,5 L14.3749776,5 C14.1687403,5 13.9999785,5.1687618 13.9999785,5.37499911 L13.9999785,9.24998987 C13.9999785,9.66560777 14.3343588,9.99998808 14.7499768,9.99998808 L18.6249675,9.99998808 Z M9.24998987,9.99998808 C9.66560777,9.99998808 9.99998808,9.66560777 9.99998808,9.24998987 L9.99998808,5.37499911 C9.99998808,5.1687618 9.83122627,5 9.62498897,5 L8.37499195,5 C8.16875465,5 8,5.1687618 8,5.37499911 L8,8 L5.37499911,8 C5.1687618,8 5,8.16875465 5,8.37499195 L5,9.62498897 C5,9.83122627 5.1687618,9.99998808 5.37499911,9.99998808 L9.24998987,9.99998808 Z M9.62498897,18.9999666 C9.83122627,18.9999666 9.99998808,18.8312048 9.99998808,18.6249675 L9.99998808,14.7499768 C9.99998808,14.3343588 9.66560777,13.9999785 9.24998987,13.9999785 L5.37499911,13.9999785 C5.1687618,13.9999785 5,14.1687403 5,14.3749776 L5,15.6249747 C5,15.831212 5.1687618,15.9999785 5.37499911,15.9999785 L8,15.9999785 L8,18.6249675 C8,18.8312048 8.16875465,18.9999666 8.37499195,18.9999666 L9.62498897,18.9999666 Z M15.6249747,18.9999666 C15.831212,18.9999666 15.9999785,18.8312048 15.9999785,18.6249675 L15.9999785,15.9999785 L18.6249675,15.9999785 C18.8312048,15.9999785 18.9999666,15.831212 18.9999666,15.6249747 L18.9999666,14.3749776 C18.9999666,14.1687403 18.8312048,13.9999785 18.6249675,13.9999785 L14.7499768,13.9999785 C14.3343588,13.9999785 13.9999785,14.3343588 13.9999785,14.7499768 L13.9999785,18.6249675 C13.9999785,18.8312048 14.1687403,18.9999666 14.3749776,18.9999666 L15.6249747,18.9999666 Z"/>
</svg>
