<svg xmlns="http://www.w3.org/2000/svg" width="24" height="24" viewBox="0 0 24 24">
  <path fill="#6A6E73" fill-rule="evenodd" d="M17.2484044,10.9984193 C17.917165,10.9984193 18.2515148,10.189034 17.7796531,9.71717234 L16.7484056,8.74842465 L19.8515171,5.64531315 C20.0452727,5.45155751 20.0452727,5.13280217 19.8515171,4.93904653 L19.0577873,4.14531673 C18.8640316,3.95156109 18.5452763,3.95156109 18.3515207,4.14531673 L15.2484092,7.24842823 L14.2765487,6.21718069 C13.8046565,5.74531902 12.9984145,6.07966881 12.9984145,6.74842942 L12.9984145,10.2484211 C12.9984145,10.664039 13.3327948,10.9984193 13.7484127,10.9984193 L17.2484044,10.9984193 Z M10.2484211,10.9984193 C10.664039,10.9984193 10.9984193,10.664039 10.9984193,10.2484211 L10.9984193,6.74842942 C10.9984193,6.08281211 10.189034,5.74843181 9.71717234,6.22029347 L8.74842465,7.24842823 L5.64531315,4.14531673 C5.45155751,3.95156109 5.13280217,3.95156109 4.93904653,4.14531673 L4.14531673,4.93904653 C3.95156109,5.13280217 3.95156109,5.45155751 4.14531673,5.64531315 L7.24842823,8.74842465 L6.21718069,9.72028513 C5.74531902,10.1921773 6.07966881,10.9984193 6.74842942,10.9984193 L10.2484211,10.9984193 Z M5.64531315,19.8515171 L8.74842465,16.7484056 L9.72028513,17.7796531 C10.1921773,18.2515148 10.9984193,17.917165 10.9984193,17.2484044 L10.9984193,13.7484127 C10.9984193,13.3327948 10.664039,12.9984145 10.2484211,12.9984145 L6.74842942,12.9984145 C6.07966881,12.9984145 5.74531902,13.8046565 6.21718069,14.2796615 L7.24531544,15.2484092 L4.14531673,18.3515207 C3.95156109,18.5452763 3.95156109,18.8640316 4.14531673,19.0577873 L4.93904653,19.8515171 C5.13280217,20.0452727 5.45155751,20.0452727 5.64531315,19.8515171 Z M19.0577873,19.8546604 L19.8515171,19.0609001 C20.0452727,18.8671444 20.0452727,18.5483891 19.8515171,18.354664 L16.7484056,15.2484092 L17.7796531,14.2765487 C18.2515148,13.8046565 17.917165,12.9984145 17.2484044,12.9984145 L13.7484127,12.9984145 C13.3327948,12.9984145 12.9984145,13.3327948 12.9984145,13.7484127 L12.9984145,17.2484044 C12.9984145,17.917165 13.8077998,18.2515148 14.2796615,17.7796531 L15.2484092,16.7515184 L18.3515207,19.8546604 C18.5452763,20.0483855 18.8640316,20.0483855 19.0577873,19.8546604 Z"/>
</svg>
