<svg xmlns="http://www.w3.org/2000/svg" width="24" height="24" viewBox="0 0 24 24">
  <path fill="#6A6E73" fill-rule="evenodd" d="M9.24998987,18.9999666 C9.91841479,18.9999666 10.2527951,18.1905813 9.7812386,17.7187197 L8.64903915,16.5906096 L11.9999833,13.2374682 L15.3499814,16.5874663 L14.218728,17.7187197 C13.7471715,18.1905813 14.0815518,18.9999666 14.7499768,18.9999666 L18.2518605,18.9999666 C18.6648234,18.9999666 18.9999666,18.6648234 18.9999666,18.2518605 L18.9999666,14.7499768 C18.9999666,14.0812161 18.1905813,13.7468664 17.7187197,14.2218408 L16.5881071,15.3530942 L13.2356066,11.9999833 L16.5877714,8.64998519 L17.7187197,9.7812386 C18.190917,10.2531003 18.9999666,9.91875048 18.9999666,9.24998987 L18.9999666,5.74810613 C18.9999666,5.33514324 18.6648234,5 18.2518605,5 L14.7499768,5 C14.0815518,5 13.7471715,5.80938528 14.218728,6.28124695 L15.3509275,7.40935705 L11.9999833,10.7624985 L8.64998519,7.41250035 L9.7812386,6.28124695 C10.2527951,5.80938528 9.91841479,5 9.24998987,5 L5.74810613,5 C5.33514324,5 5,5.33514324 5,5.74810613 L5,9.24998987 C5,9.91875048 5.80938528,10.2531003 6.28124695,9.7812386 L7.41185948,8.64687241 L10.76436,11.9999833 L7.41219518,15.3499814 L6.28124695,14.218728 C5.80904958,13.7468664 5,14.0812161 5,14.7499768 L5,18.2518605 C5,18.6648234 5.33514324,18.9999666 5.74810613,18.9999666 L9.24998987,18.9999666 Z"/>
</svg>
