<svg xmlns="http://www.w3.org/2000/svg" width="24" height="24" viewBox="0 0 24 24">
  <path fill="#6A6E73" fill-rule="evenodd" d="M9.49998927,18.9999666 C10.3281123,18.9999666 10.9999857,18.3280932 10.9999857,17.4999702 L10.9999857,6.5 C10.9999857,5.6718734 10.3281123,5 9.49998927,5 L6.5,5 C5.6718734,5 5,5.6718734 5,6.5 L5,17.4999702 C5,18.3280932 5.6718734,18.9999666 6.5,18.9999666 L9.49998927,18.9999666 Z M17.4999702,18.9999666 C18.3280932,18.9999666 18.9999666,18.3280932 18.9999666,17.4999702 L18.9999666,6.5 C18.9999666,5.6718734 18.3280932,5 17.4999702,5 L14.4999809,5 C13.6718543,5 12.9999809,5.6718734 12.9999809,6.5 L12.9999809,17.4999702 C12.9999809,18.3280932 13.6718543,18.9999666 14.4999809,18.9999666 L17.4999702,18.9999666 Z"/>
</svg>
