<svg xmlns="http://www.w3.org/2000/svg" width="24" height="24" viewBox="0 0 24 24">
  <path fill="#6A6E73" fill-rule="evenodd" d="M19.246875,13.9515625 L17.6078125,15.590625 L11.1546875,9.134375 C11.0640625,9.04375 10.959375,8.9984375 10.8421875,8.9984375 C10.725,8.9984375 10.6203125,9.04375 10.5296875,9.134375 L9.1375,10.5265625 C9.046875,10.6171875 9.0015625,10.721875 9.0015625,10.8390625 C9.0015625,10.95625 9.046875,11.0609375 9.1375,11.1515625 L15.59375,17.6046875 L13.9515625,19.246875 C13.5390625,19.659375 13.678125,20 14.2625,20 L18.9375,20 C19.8515625,20 20,19.8390625 20,18.9359375 L20,14.2609375 C19.9984375,13.678125 19.659375,13.5390625 19.246875,13.9515625 Z M6,6 L18,6 L18,9.6515625 C18.0001241,9.78410439 18.0529673,9.91115294 18.146875,10.0046875 L19.5734375,11.43125 C19.73125,11.5890625 20,11.4765625 20,11.2546875 L20,4.3546875 C20,4.2515625 19.9671875,4.1671875 19.9,4.1 C19.8328125,4.0328125 19.7484375,4 19.6453125,4 L4.3546875,4 C4.2515625,4 4.1671875,4.0328125 4.1,4.1 C4.0328125,4.1671875 4,4.2515625 4,4.3546875 L4,19.6453125 C4,19.7484375 4.0328125,19.8328125 4.1,19.9 C4.1671875,19.9671875 4.2515625,20 4.3546875,20 L11.240625,20 C11.3416076,19.9998272 11.4325701,19.9389187 11.4711911,19.8456133 C11.5098121,19.7523077 11.4885067,19.6449294 11.4171875,19.5734375 L9.990625,18.146875 C9.89709044,18.0529673 9.77004189,18.0001241 9.6375,18 L6,18 L6,6 Z"/>
</svg>
