<?xml version="1.0" encoding="UTF-8"?>
<svg width="152px" height="36px" viewBox="0 0 152 36" version="1.1" xmlns="http://www.w3.org/2000/svg" xmlns:xlink="http://www.w3.org/1999/xlink">
    <title></title>
    <g id="Toggle-group" stroke="none" stroke-width="1" fill="none" fill-rule="evenodd">
        <g id="Toggle-group-/-On-white-bg-/-Text-+-Icon-on-right-/-3.-Right-/-3.-Selected">
            <path d="M149,0.5 C149.690356,0.5 150.315356,0.779822031 150.767767,1.23223305 C151.220178,1.68464406 151.5,2.30964406 151.5,3 L151.5,3 L151.5,33 C151.5,33.6903559 151.220178,34.3153559 150.767767,34.767767 C150.315356,35.220178 149.690356,35.5 149,35.5 L149,35.5 L0.5,35.5 L0.5,0.5 Z" id="Rectangle-Copy" stroke="#0066CC" fill="#E7F1FA"></path>
            <text id="Selected---right" font-family="RedHatText-Regular, Red Hat Text" font-size="14" font-weight="normal" line-spacing="21" fill="#151515">
                <tspan x="16" y="22">Selected - right</tspan>
            </text>
            <g id="Icons/1.-Size-md/Actions/copy" transform="translate(122.000000, 10.000000)" fill="#151515">
                <path d="M13.2499587,12.9999563 C13.6641728,12.9999563 13.9999569,12.6641722 13.9999569,12.2499581 L13.9999569,3.99998728 L10.7499646,3.99998728 C10.3374595,3.99998728 9.99996642,3.66248466 9.99996642,3.24997954 L9.99996642,-1.27156272e-05 L4.74997894,-1.27156272e-05 C4.33576484,-1.27156272e-05 3.99998073,0.335771396 3.99998073,0.749985496 L3.99998073,12.2499581 C3.99998073,12.6641722 4.33576484,12.9999563 4.74997894,12.9999563 L13.2499587,12.9999563 Z M13.999964,2.99998728 L13.999964,2.81064953 C13.999964,2.63917167 13.9015379,2.40159289 13.7802919,2.28031632 L11.7196279,0.219652288 C11.5983513,0.0984062392 11.3607725,-1.27156272e-05 11.1892946,-1.27156272e-05 L10.999964,-1.27156272e-05 L10.999964,2.99998728 L13.999964,2.99998728 Z M9.24996821,15.9999491 C9.66418231,15.9999491 9.99996642,15.664165 9.99996642,15.2499509 L9.99996642,13.9999539 L4.74997894,13.9999539 C3.78501542,13.9999539 2.99999026,13.2149216 2.99999026,12.2499581 L2.99999026,2.99998013 L0.749988476,2.99998013 C0.335774376,2.99998013 -9.7354021e-06,3.33576424 -9.7354021e-06,3.74997834 L-9.7354021e-06,15.2499509 C-9.7354021e-06,15.664165 0.335774376,15.9999491 0.749988476,15.9999491 L9.24996821,15.9999491 Z" id="copy"></path>
            </g>
            <g id="ðŸ“-Padding" fill-opacity="0.9">
                <g id="Spacer-/-Horizontal-/-2.-pf-global--spacer--sm-(8px)" transform="translate(114.000000, 0.000000)" fill="#92D400" stroke="#7FB300">
                    <rect id="Rectangle-Copy" x="0.5" y="0.5" width="7" height="36"></rect>
                </g>
                <g id="Spacer-/-Horizontal-/-3.-pf-global--spacer--md-(16px)" fill="#3F9C35" stroke="#418A38">
                    <rect id="Rectangle-Copy-2" x="0.5" y="0.5" width="15" height="36"></rect>
                </g>
                <g id="Spacer-/-Horizontal-/-3.-pf-global--spacer--md-(16px)" transform="translate(136.000000, 0.000000)" fill="#3F9C35" stroke="#418A38">
                    <rect id="Rectangle-Copy-2" x="0.5" y="0.5" width="15" height="36"></rect>
                </g>
            </g>
        </g>
    </g>
</svg>