<?xml version="1.0" encoding="UTF-8"?>
<svg width="397px" height="19px" viewBox="0 0 397 19" version="1.1" xmlns="http://www.w3.org/2000/svg" xmlns:xlink="http://www.w3.org/1999/xlink">
    <title></title>
    <g id="Breadcrumbs" stroke="none" stroke-width="1" fill="none" fill-rule="evenodd">
        <g id="Breadcrumbs-/-1.-Full-basic-breadcrumb">
            <g id="Breadcrumbs-/-Stem-/-Default" transform="translate(-0.000000, 0.000000)">
                <g id="Icons-/-Framework-/-angle-right-/-14px" transform="translate(86.000000, 5.551840)" fill="#8A8D90">
                    <path d="M1.48943927,7.33709875 L4.67693167,4.14960635 C4.8972528,3.92928522 4.8972528,3.57305438 4.67459709,3.35273325 L1.48710469,0.165240847 C1.26914103,-0.0550802825 0.912887304,-0.0550802825 0.692566174,0.165240847 L0.165223681,0.699609996 C-0.0550745605,0.917573649 -0.0550745605,1.27382738 0.165223681,1.49414851 L2.42460245,3.75350439 L0.165223681,6.01288316 C-0.0550745605,6.23084681 -0.0550745605,6.58710054 0.165223681,6.80742167 L0.694923651,7.33709875 C0.912887304,7.55741988 1.26914103,7.55741988 1.48943927,7.33709875 Z" id="angle-right"></path>
                </g>
                <text id="Section-title" font-family="RedHatText-Regular, Red Hat Text" font-size="14" font-weight="normal" line-spacing="18.2" fill="#0066CC">
                    <tspan x="0" y="14">Section title</tspan>
                </text>
            </g>
            <g id="Breadcrumbs-/-Stem-/-Default" transform="translate(100.000000, 0.000000)">
                <g id="Icons-/-Framework-/-angle-right-/-14px" transform="translate(86.000000, 5.551840)" fill="#8A8D90">
                    <path d="M1.48943927,7.33709875 L4.67693167,4.14960635 C4.8972528,3.92928522 4.8972528,3.57305438 4.67459709,3.35273325 L1.48710469,0.165240847 C1.26914103,-0.0550802825 0.912887304,-0.0550802825 0.692566174,0.165240847 L0.165223681,0.699609996 C-0.0550745605,0.917573649 -0.0550745605,1.27382738 0.165223681,1.49414851 L2.42460245,3.75350439 L0.165223681,6.01288316 C-0.0550745605,6.23084681 -0.0550745605,6.58710054 0.165223681,6.80742167 L0.694923651,7.33709875 C0.912887304,7.55741988 1.26914103,7.55741988 1.48943927,7.33709875 Z" id="angle-right"></path>
                </g>
                <text id="Section-title" font-family="RedHatText-Regular, Red Hat Text" font-size="14" font-weight="normal" line-spacing="18.2" fill="#0066CC">
                    <tspan x="0" y="14">Section title</tspan>
                </text>
            </g>
            <g id="Breadcrumbs-/-Stem-/-Default" transform="translate(200.000000, 0.000000)">
                <g id="Icons-/-Framework-/-angle-right-/-14px" transform="translate(86.000000, 5.551840)" fill="#8A8D90">
                    <path d="M1.48943927,7.33709875 L4.67693167,4.14960635 C4.8972528,3.92928522 4.8972528,3.57305438 4.67459709,3.35273325 L1.48710469,0.165240847 C1.26914103,-0.0550802825 0.912887304,-0.0550802825 0.692566174,0.165240847 L0.165223681,0.699609996 C-0.0550745605,0.917573649 -0.0550745605,1.27382738 0.165223681,1.49414851 L2.42460245,3.75350439 L0.165223681,6.01288316 C-0.0550745605,6.23084681 -0.0550745605,6.58710054 0.165223681,6.80742167 L0.694923651,7.33709875 C0.912887304,7.55741988 1.26914103,7.55741988 1.48943927,7.33709875 Z" id="angle-right"></path>
                </g>
                <text id="Section-title" font-family="RedHatText-Regular, Red Hat Text" font-size="14" font-weight="normal" line-spacing="18.2" fill="#0066CC">
                    <tspan x="0" y="14">Section title</tspan>
                </text>
            </g>
            <g id="Breadcrumbs-/-Stem-/-Default" transform="translate(300.000000, 0.000000)" fill="#151515" font-family="RedHatText-Regular, Red Hat Text" font-size="14" font-weight="normal" line-spacing="18.2">
                <text id="Section-landing">
                    <tspan x="0" y="14">Section landing</tspan>
                </text>
            </g>
        </g>
    </g>
</svg>