<?xml version="1.0" encoding="UTF-8"?><svg version="1.1" width="270px" height="19px" viewBox="0 0 270.0 19.0" xmlns="http://www.w3.org/2000/svg" xmlns:xlink="http://www.w3.org/1999/xlink"><defs><clipPath id="i0"><path d="M0.692566174,0.165240847 C0.912887304,-0.0550802825 1.26914103,-0.0550802825 1.48710469,0.165240847 L4.67459709,3.35273325 C4.8972528,3.57305438 4.8972528,3.92928522 4.67693167,4.14960635 L1.48943927,7.33709875 C1.26914103,7.55741988 0.912887304,7.55741988 0.694923651,7.33709875 L0.165223681,6.80742167 C-0.0550745605,6.58710054 -0.0550745605,6.23084681 0.165223681,6.01288316 L2.42460245,3.75350439 L0.165223681,1.49414851 C-0.0550745605,1.27382738 -0.0550745605,0.917573649 0.165223681,0.699609996 Z"></path></clipPath><clipPath id="i1"><path d="M40,0 C44.9705627,-9.13077564e-16 49,4.02943725 49,9 C49,13.9705627 44.9705627,18 40,18 L9,18 C4.02943725,18 6.08718376e-16,13.9705627 0,9 C-6.08718376e-16,4.02943725 4.02943725,9.13077564e-16 9,0 L40,0 Z"></path></clipPath><clipPath id="i2"><path d="M6.49930954,0 C6.91651436,0 7.12509388,0.503905049 6.82979123,0.799207689 L3.81572219,3.81561133 C3.6329147,3.99841881 3.33525458,3.99841881 3.1524471,3.81561133 L0.138400938,0.799207689 C-0.15692459,0.503905049 0.0516778175,0 0.468859745,0 Z"></path></clipPath></defs><g transform="translate(76.0 0.0)"><g transform="translate(10.0 5.551839625427496)"><g clip-path="url(#i0)"><polygon points="0,0 4.84188185,0 4.84188185,7.5023396 0,7.5023396 0,0" stroke="none" fill="#8A8D90"></polygon></g></g></g><text transform="translate(0.0 14.0)" font-family="RedHatText-Regular, Red Hat Text" font-size="14.0" font-weight="normal" fill="#0066CC" text-anchor="left" line-spacing="18.2">Section title</text><g transform="translate(100.0 0.0)"><g clip-path="url(#i1)"><polygon points="0,0 49,0 49,18 0,18 0,0" stroke="none" fill="#F0F0F0"></polygon></g><g transform="translate(25.0 -2.0)"><g transform="translate(9.0 10.0)"><g clip-path="url(#i2)"><polygon points="6.61692923e-14,0 6.96818123,0 6.96818123,3.95271694 6.61692923e-14,3.95271694 6.61692923e-14,0" stroke="none" fill="#151515"></polygon></g></g></g><g transform="translate(8.0 0.0)"><text transform="translate(0.0 12.0)" font-family="RedHatText-Medium, Red Hat Text" font-size="12.0" font-weight="400" fill="#151515" text-anchor="left" line-spacing="18.0">00</text></g></g><g transform="translate(173.0 0.0)"><text transform="translate(0.0 14.0)" font-family="RedHatText-Regular, Red Hat Text" font-size="14.0" font-weight="normal" fill="#151515" text-anchor="left" line-spacing="18.2">Section landing</text></g><g transform="translate(149.0 0.0)"><g transform="translate(10.0 5.551839625427496)"><g clip-path="url(#i0)"><polygon points="0,0 4.84188185,0 4.84188185,7.5023396 0,7.5023396 0,0" stroke="none" fill="#8A8D90"></polygon></g></g></g></svg>