<?xml version="1.0" encoding="UTF-8"?>
<svg width="75px" height="29px" viewBox="0 0 75 29" version="1.1" xmlns="http://www.w3.org/2000/svg" xmlns:xlink="http://www.w3.org/1999/xlink">
    <title></title>
    <g id="Labels" stroke="none" stroke-width="1" fill="none" fill-rule="evenodd">
        <g id="Labels-/-2.-Blue-/-1.-Default-/-Filled-/-No-icon-/-Default">
            <rect id="Rectangle-Copy" stroke="#BEE1F4" fill="#E7F1FA" x="0" y="0" width="75" height="29" rx="14"></rect>
            <text id="Label" font-family="RedHatText-Regular, Red Hat Text" font-size="14" font-weight="normal" line-spacing="21" fill="#002952">
                <tspan x="8" y="18">Label</tspan>
            </text>
            <g id="Close" transform="translate(59.000000, 10.000000)" fill="#6A6E73">
                <path d="M1.77960353,8.03412811 L4.12499589,5.68873575 L6.47038824,8.03412811 C6.75818358,8.32194633 7.22505563,8.32194633 7.51287386,8.03412811 L8.03412811,7.51287386 C8.32194633,7.22505563 8.32194633,6.75843535 8.03412811,6.47038824 L5.68873575,4.12499589 L8.03412811,1.77960353 C8.32194633,1.4918082 8.32194633,1.02516502 8.03412811,0.737117917 L7.51287386,0.215863667 C7.22505563,-0.0719545556 6.75843535,-0.0719545556 6.47038824,0.215863667 L4.12499589,2.56125602 L1.77960353,0.215863667 C1.4918082,-0.0719545556 1.02516502,-0.0719545556 0.737117917,0.215863667 L0.215863667,0.737117917 C-0.0719545556,1.02493614 -0.0719545556,1.49155643 0.215863667,1.77960353 L2.56125602,4.12499589 L0.215863667,6.47038824 C-0.0719545556,6.75818358 -0.0719545556,7.22482675 0.215863667,7.51287386 L0.737117917,8.03412811 C1.02493614,8.32194633 1.4918082,8.32194633 1.77960353,8.03412811 Z" id="times"></path>
            </g>
        </g>
    </g>
</svg>