<?xml version="1.0" encoding="UTF-8"?>
<svg width="83px" height="85px" viewBox="0 0 83 85" version="1.1" xmlns="http://www.w3.org/2000/svg" xmlns:xlink="http://www.w3.org/1999/xlink">
    <title></title>
    <g id="Progress-stepper" stroke="none" stroke-width="1" fill="none" fill-rule="evenodd">
        <g id="Progress-stepper-/-1.-Horizontal-items-/-Completed-/-3.-Centered">
            <text id="Description-2" font-family="RedHatText-Regular, Red Hat Text" font-size="14" font-weight="normal" line-spacing="21" fill="#6A6E73">
                <tspan x="0.067" y="78">Description 2</tspan>
            </text>
            <text id="Description" font-family="RedHatText-Regular, Red Hat Text" font-size="16" font-weight="normal" line-spacing="24" fill="#151515">
                <tspan x="0.896" y="52">Description</tspan>
            </text>
            <g id="Progress-stepper-/-Item-/-1.-Default" transform="translate(28.000000, 0.000000)">
                <circle id="Oval" stroke="#D2D2D2" stroke-width="2" fill="#FAFAFA" cx="14" cy="14" r="13"></circle>
                <g id="Icons/1.-Size-md/Status/check-circle" transform="translate(6.000000, 6.000000)" fill="#3E8635">
                    <path d="M7.74998152,15.499963 C12.0301837,15.499963 15.499963,12.0301837 15.499963,7.74998152 C15.499963,3.46977933 12.0301837,0 7.74998152,0 C3.46977933,0 0,3.46977933 0,7.74998152 C0,12.0301837 3.46977933,15.499963 7.74998152,15.499963 Z M6.14640869,11.8535179 L2.89641643,8.60352563 C2.70119595,8.40827463 2.70119595,8.09165551 2.89641643,7.89640451 L3.60353755,7.18931391 C3.79878855,6.99406291 4.11540767,6.99406291 4.31065867,7.18931391 L6.4999845,9.37867027 L11.1893044,4.68935039 C11.3845859,4.49406888 11.701205,4.49406888 11.8964255,4.68935039 L12.6035466,5.39644099 C12.7987671,5.59169199 12.7987671,5.90831111 12.6035466,6.10356211 L6.85356032,11.8535484 C6.6582788,12.0487689 6.3416902,12.0487689 6.14640869,11.8535179 Z" id="check-circle"></path>
                </g>
            </g>
            <g id="ðŸ“-Padding" transform="translate(0.000000, 27.000000)" fill-opacity="0.9">
                <g id="Spacer-/-Vertical-/-2.-pf-global--spacer--sm-(8px)" transform="translate(0.000000, -0.222222)" fill="#92D400" stroke="#7FB300">
                    <rect id="Rectangle-Copy" x="0.5" y="0.5" width="84" height="7"></rect>
                </g>
                <g id="Spacer-/-Vertical-/-2.-pf-global--spacer--sm-(8px)-Copy" transform="translate(0.000000, 30.111111)" fill="#EC7A08" stroke="#C77000">
                    <rect id="Rectangle" x="0.5" y="0.5" width="84" height="3"></rect>
                </g>
            </g>
        </g>
    </g>
</svg>