<?xml version="1.0" encoding="UTF-8"?><svg version="1.1" width="83px" height="85px" viewBox="0 0 83.0 85.0" xmlns="http://www.w3.org/2000/svg" xmlns:xlink="http://www.w3.org/1999/xlink"><defs><clipPath id="i0"><path d="M14,0 C21.7319865,0 28,6.2680135 28,14 C28,21.7319865 21.7319865,28 14,28 C6.2680135,28 0,21.7319865 0,14 C0,6.2680135 6.2680135,0 14,0 Z"></path></clipPath><clipPath id="i1"><path d="M7.74998152,0 C12.0301837,0 15.499963,3.46977933 15.499963,7.74998152 C15.499963,12.0301837 12.0301837,15.499963 7.74998152,15.499963 C3.46977933,15.499963 0,12.0301837 0,7.74998152 C0,3.46977933 3.46977933,0 7.74998152,0 Z M11.8964255,4.68935039 C11.701205,4.49406888 11.3845859,4.49406888 11.1893044,4.68935039 L6.4999845,9.37867027 L4.31065867,7.18931391 C4.11540767,6.99406291 3.79878855,6.99406291 3.60353755,7.18931391 L2.89641643,7.89640451 C2.70119595,8.09165551 2.70119595,8.40827463 2.89641643,8.60352563 L6.14640869,11.8535179 C6.3416902,12.0487689 6.6582788,12.0487689 6.85356032,11.8535484 L12.6035466,6.10356211 C12.7987671,5.90831111 12.7987671,5.59169199 12.6035466,5.39644099 Z"></path></clipPath><clipPath id="i2"><path d="M85,0 L85,8 L0,8 L0,0 L85,0 Z"></path></clipPath><clipPath id="i3"><path d="M85,0 L85,4 L0,4 L0,0 L85,0 Z"></path></clipPath></defs><g transform="translate(0.0 64.0)"><text transform="translate(0.06699999999999307 14.0)" font-family="RedHatText-Regular, Red Hat Text" font-size="14.0" font-weight="normal" fill="#696E73" text-anchor="center" line-spacing="21.0">Description 2</text></g><g transform="translate(0.5 36.0)"><text transform="translate(0.3960000000000008 16.0)" font-family="RedHatText-Regular, Red Hat Text" font-size="16.0" font-weight="normal" fill="#151515" text-anchor="center" line-spacing="24.0">Description</text></g><g transform="translate(28.0 0.0)"><g clip-path="url(#i0)"><polygon points="0,0 28,0 28,28 0,28 0,0" stroke="none" fill="#FAFAFA"></polygon><path d="M14,28 C21.7319865,28 28,21.7319865 28,14 C28,6.2680135 21.7319865,0 14,0 C6.2680135,0 0,6.2680135 0,14 C0,21.7319865 6.2680135,28 14,28 Z" stroke="#D2D2D2" stroke-width="4" fill="none" stroke-miterlimit="5"></path></g><g transform="translate(2.0 2.0)"><g transform="translate(4.0 4.0)"><g clip-path="url(#i1)"><polygon points="0,0 15.499963,0 15.499963,15.499963 0,15.499963 0,0" stroke="none" fill="#3E8634"></polygon></g></g></g></g><g transform="translate(0.0 27.0)"><g transform="translate(0.0 -0.22222222222222232)"><g clip-path="url(#i2)"><polygon points="0,0 85,0 85,8 0,8 0,0" stroke="none" fill="rgba(146, 211, 0, 0.9)"></polygon></g><g clip-path="url(#i2)"><polygon points="0,0 85,0 85,8 0,8 0,0 0,0" stroke="#7EB200" stroke-width="2" fill="none" stroke-miterlimit="5"></polygon></g></g><g transform="translate(0.0 30.222222222222225)"><g transform="translate(0.0 -0.1111111111111105)"><g clip-path="url(#i3)"><polygon points="0,0 85,0 85,4 0,4 0,0" stroke="none" fill="rgba(236, 121, 8, 0.9)"></polygon></g><g clip-path="url(#i3)"><polygon points="0,0 85,0 85,4 0,4 0,0 0,0" stroke="#C67000" stroke-width="2" fill="none" stroke-miterlimit="5"></polygon></g></g></g></g></svg>