<svg xmlns="http://www.w3.org/2000/svg" width="82" height="36" viewBox="0 0 82 36">
  <g fill="none" fill-rule="evenodd">
    <rect width="97" height="51" x="-7.5" y="-7.5" stroke="#06C" rx="3"/>
    <path fill="#06C" fill-opacity=".2" fill-rule="nonzero" d="M87,-8 C88.6568542,-8 90,-6.65685425 90,-5 L90,41 C90,42.6568542 88.6568542,44 87,44 L-5,44 C-6.65685425,44 -8,42.6568542 -8,41 L-8,-5 C-8,-6.65685425 -6.65685425,-8 -5,-8 L87,-8 Z M79,0 L3,0 C1.34314575,0 0,1.34314575 0,3 L0,3 L0,33 C0,34.6568542 1.34314575,36 3,36 L3,36 L79,36 C80.6568542,36 82,34.6568542 82,33 L82,33 L82,3 C82,1.34314575 80.6568542,0 79,0 L79,0 Z"/>
    <rect width="82" height="36" rx="3"/>
    <text fill="#004080" font-family="RedHatText-Regular, Red Hat Text" font-size="16" text-decoration="underline">
      <tspan x="16" y="22">Button</tspan>
    </text>
    <g fill-opacity=".9">
      <rect width="15" height="35" x=".5" y=".5" fill="#3F9C35" stroke="#418A38"/>
      <rect width="15" height="35" x=".5" y=".5" fill="#3F9C35" stroke="#418A38" transform="translate(66)"/>
      <rect width="49" height="5" x=".5" y=".5" fill="#F3D53C" stroke="#CBB534" transform="translate(16)"/>
      <rect width="49" height="5" x=".5" y=".5" fill="#F3D53C" stroke="#CBB534" transform="translate(16 30)"/>
    </g>
  </g>
</svg>
