<?xml version="1.0" encoding="UTF-8"?><svg version="1.1" width="540px" height="121px" viewBox="0 0 540.0 121.0" xmlns="http://www.w3.org/2000/svg" xmlns:xlink="http://www.w3.org/1999/xlink"><defs><clipPath id="i0"><path d="M540,0 L540,121 L0,121 L0,0 L540,0 Z"></path></clipPath><clipPath id="i1"><path d="M7.74998152,0 C12.0298785,0 15.499963,3.47133572 15.499963,7.74998152 C15.499963,12.0311298 12.0298785,15.499963 7.74998152,15.499963 C3.4700845,15.499963 0,12.0311298 0,7.74998152 C0,3.47133572 3.4700845,0 7.74998152,0 Z M8.37498003,6.74998391 L6.3749848,6.74998391 C6.16789301,6.74998391 5.99998569,6.91789122 5.99998569,7.12498301 L5.99998569,7.87498122 C5.99998569,8.08207302 6.16789301,8.24998391 6.3749848,8.24998391 L6.74998391,8.24998391 L6.74998391,10.2499839 L6.3749848,10.2499839 C6.16789301,10.2499839 5.99998569,10.4178829 5.99998569,10.6249747 L5.99998569,11.3749729 C5.99998569,11.5820647 6.16789301,11.749972 6.3749848,11.749972 L9.12497824,11.749972 C9.33207004,11.749972 9.49998569,11.5820647 9.49998569,11.3749729 L9.49998569,10.6249747 C9.49998569,10.4178829 9.33207004,10.2499839 9.12497824,10.2499839 L8.74997914,10.2499839 L8.74997914,7.12498301 C8.74997914,6.91789122 8.58207182,6.74998391 8.37498003,6.74998391 Z M7.74998152,3.4374918 C7.02509922,3.4374918 6.43748465,4.02510637 6.43748465,4.74998868 C6.43748465,5.47487098 7.02509922,6.06248555 7.74998152,6.06248555 C8.47486383,6.06248555 9.06247839,5.47487098 9.06247839,4.74998868 C9.06247839,4.02510637 8.47486383,3.4374918 7.74998152,3.4374918 Z"></path></clipPath><clipPath id="i2"><path d="M2.24999464,10.9999738 C3.49373557,10.9999738 4.49998927,12.0062275 4.49998927,13.2499684 C4.49998927,14.4937093 3.49373557,15.499963 2.24999464,15.499963 C1.0062537,15.499963 0,14.4937093 0,13.2499684 C0,12.0062275 1.0062537,10.9999738 2.24999464,10.9999738 Z M2.24999464,5.49998689 C3.49373557,5.49998689 4.49998927,6.50624059 4.49998927,7.74998152 C4.49998927,8.99372245 3.49373557,9.99997616 2.24999464,9.99997616 C1.0062537,9.99997616 0,8.99372245 0,7.74998152 C0,6.50624059 1.0062537,5.49998689 2.24999464,5.49998689 Z M2.24999464,0 C3.49373557,0 4.49998927,1.0062537 4.49998927,2.24999464 C4.49998927,3.49373557 3.49373557,4.49998927 2.24999464,4.49998927 C1.0062537,4.49998927 0,3.49373557 0,2.24999464 C0,1.0062537 1.0062537,0 2.24999464,0 Z"></path></clipPath><clipPath id="i3"><path d="M24,0 L24,24 L0,24 L0,0 L24,0 Z"></path></clipPath><clipPath id="i4"><path d="M16,0 L16,121 L0,121 L0,0 L16,0 Z"></path></clipPath><clipPath id="i5"><path d="M540,0 L540,16 L0,16 L0,0 L540,0 Z"></path></clipPath><clipPath id="i6"><path d="M8,0 L8,35.3271028 L0,35.3271028 L0,0 L8,0 Z"></path></clipPath><clipPath id="i7"><path d="M508,0 L508,8 L0,8 L0,0 L508,0 Z"></path></clipPath><clipPath id="i8"><path d="M508,0 L508,4 L0,4 L0,0 L508,0 Z"></path></clipPath></defs><g clip-path="url(#i0)"><polygon points="0,0 540,0 540,121 0,121 0,0" stroke="none" fill="#F0F0F0"></polygon><g transform="translate(0.0 -1.0)"><polygon points="540,121 540,122 0,122 0,121 540,121 540,121" stroke="none" fill="#D2D2D2"></polygon></g></g><g transform="translate(16.0 16.0)"><g transform="translate(4.0 4.0)"><g clip-path="url(#i1)"><polygon points="0,0 15.499963,0 15.499963,15.499963 0,15.499963 0,0" stroke="none" fill="#2B9AF3"></polygon></g></g></g><g transform="translate(484.0 16.0)"><g transform="translate(8.0 6.0)"><g transform="translate(10.0 3.999999999999999)"><g clip-path="url(#i2)"><polygon points="0,0 4.49998927,0 4.49998927,15.499963 0,15.499963 0,0" stroke="none" fill="#151515"></polygon><g clip-path="url(#i3)"><polygon points="0,0 4.49998927,0 4.49998927,15.499963 0,15.499963 0,0" stroke="none" fill="#696E73"></polygon></g></g></g></g></g><g transform="translate(16.0 84.0)"><text transform="translate(0.0 14.0)" font-family="RedHatText-Regular, Red Hat Text" font-size="14.0" font-weight="normal" fill="#696E73" text-anchor="left" line-spacing="21.0">A few minutes ago</text></g><g transform="translate(16.0 53.0)"><text transform="translate(0.0 16.0)" font-family="RedHatText-Regular, Red Hat Text" font-size="16.0" font-weight="normal" fill="#151515" text-anchor="left" line-spacing="24.0">Content</text></g><g transform="translate(48.0 16.0)"><text transform="translate(0.0 16.0)" font-family="RedHatText-Regular, Red Hat Text" font-size="16.0" font-weight="normal" fill="#151515" text-anchor="left" line-spacing="24.0">Title</text></g><g clip-path="url(#i4)"><polygon points="0,0 16,0 16,121 0,121 0,0" stroke="none" fill="rgba(62, 156, 52, 0.9)"></polygon></g><g clip-path="url(#i4)"><polygon points="0,0 16,0 16,121 0,121 0,0 0,0" stroke="#418A37" stroke-width="2" fill="none" stroke-miterlimit="5"></polygon></g><g transform="translate(524.0 0.0)"><g clip-path="url(#i4)"><polygon points="0,0 16,0 16,121 0,121 0,0" stroke="none" fill="rgba(62, 156, 52, 0.9)"></polygon></g><g clip-path="url(#i4)"><polygon points="0,0 16,0 16,121 0,121 0,0 0,0" stroke="#418A37" stroke-width="2" fill="none" stroke-miterlimit="5"></polygon></g></g><g clip-path="url(#i5)"><polygon points="0,0 540,0 540,16 0,16 0,0" stroke="none" fill="rgba(62, 156, 52, 0.9)"></polygon></g><g clip-path="url(#i5)"><polygon points="0,0 540,0 540,16 0,16 0,0 0,0" stroke="#418A37" stroke-width="2" fill="none" stroke-miterlimit="5"></polygon></g><g transform="translate(40.0 15.999999999999996)"><g clip-path="url(#i6)"><polygon points="0,0 8,0 8,35.3271028 0,35.3271028 0,0" stroke="none" fill="rgba(146, 211, 0, 0.9)"></polygon></g><g clip-path="url(#i6)"><polygon points="0,0 8,0 8,35.3271028 0,35.3271028 0,0 0,0" stroke="#7EB200" stroke-width="2" fill="none" stroke-miterlimit="5"></polygon></g></g><g transform="translate(0.0 105.0)"><g clip-path="url(#i5)"><polygon points="0,0 540,0 540,16 0,16 0,0" stroke="none" fill="rgba(62, 156, 52, 0.9)"></polygon></g><g clip-path="url(#i5)"><polygon points="0,0 540,0 540,16 0,16 0,0 0,0" stroke="#418A37" stroke-width="2" fill="none" stroke-miterlimit="5"></polygon></g></g><g transform="translate(16.0 76.0)"><g clip-path="url(#i7)"><polygon points="0,0 508,0 508,8 0,8 0,0" stroke="none" fill="rgba(146, 211, 0, 0.9)"></polygon></g><g clip-path="url(#i7)"><polygon points="0,0 508,0 508,8 0,8 0,0 0,0" stroke="#7EB200" stroke-width="2" fill="none" stroke-miterlimit="5"></polygon></g></g><g transform="translate(16.0 49.0)"><g clip-path="url(#i8)"><polygon points="0,0 508,0 508,4 0,4 0,0" stroke="none" fill="rgba(236, 121, 8, 0.9)"></polygon></g><g clip-path="url(#i8)"><polygon points="0,0 508,0 508,4 0,4 0,0 0,0" stroke="#C67000" stroke-width="2" fill="none" stroke-miterlimit="5"></polygon></g></g></svg>