<?xml version="1.0" encoding="UTF-8"?><svg version="1.1" width="82px" height="36px" viewBox="0 0 82.0 36.0" xmlns="http://www.w3.org/2000/svg" xmlns:xlink="http://www.w3.org/1999/xlink"><defs><clipPath id="i0"><path d="M79,0 C80.6568542,-3.04359188e-16 82,1.34314575 82,3 L82,33 C82,34.6568542 80.6568542,36 79,36 L3,36 C1.34314575,36 -1.57345071e-15,34.6568542 0,33 L0,3 C-2.02906125e-16,1.34314575 1.34314575,-1.39730022e-16 3,0 L79,0 Z"></path></clipPath><clipPath id="i1"><path d="M16,0 L16,36 L0,36 L0,0 L16,0 Z"></path></clipPath><clipPath id="i2"><path d="M50,0 L50,6 L0,6 L0,0 L50,0 Z"></path></clipPath></defs><g clip-path="url(#i0)"><polygon points="0,0 82,0 82,36 0,36 0,0" stroke="none" fill="#7C1006"></polygon></g><g transform="translate(16.0 6.0)"><text transform="translate(0.120000000000001 16.0)" font-family="RedHatText-Regular, Red Hat Text" font-size="16.0" font-weight="normal" fill="#FFFFFF" text-anchor="center" line-spacing="24.0">Button</text></g><g clip-path="url(#i1)"><polygon points="0,0 16,0 16,36 0,36 0,0" stroke="none" fill="rgba(62, 156, 52, 0.9)"></polygon></g><g clip-path="url(#i1)"><polygon points="0,0 16,0 16,36 0,36 0,0 0,0" stroke="#418A37" stroke-width="2" fill="none" stroke-miterlimit="5"></polygon></g><g transform="translate(66.0 0.0)"><g clip-path="url(#i1)"><polygon points="0,0 16,0 16,36 0,36 0,0" stroke="none" fill="rgba(62, 156, 52, 0.9)"></polygon></g><g clip-path="url(#i1)"><polygon points="0,0 16,0 16,36 0,36 0,0 0,0" stroke="#418A37" stroke-width="2" fill="none" stroke-miterlimit="5"></polygon></g></g><g transform="translate(16.0 0.0)"><g clip-path="url(#i2)"><polygon points="0,0 50,0 50,6 0,6 0,0" stroke="none" fill="rgba(243, 213, 59, 0.9)"></polygon></g><g clip-path="url(#i2)"><polygon points="0,0 50,0 50,6 0,6 0,0 0,0" stroke="#CAB534" stroke-width="2" fill="none" stroke-miterlimit="5"></polygon></g></g><g transform="translate(16.0 30.0)"><g clip-path="url(#i2)"><polygon points="0,0 50,0 50,6 0,6 0,0" stroke="none" fill="rgba(243, 213, 59, 0.9)"></polygon></g><g clip-path="url(#i2)"><polygon points="0,0 50,0 50,6 0,6 0,0 0,0" stroke="#CAB534" stroke-width="2" fill="none" stroke-miterlimit="5"></polygon></g></g></svg>