<?xml version="1.0" encoding="UTF-8"?><svg version="1.1" width="72px" height="72px" viewBox="0 0 72.0 72.0" xmlns="http://www.w3.org/2000/svg" xmlns:xlink="http://www.w3.org/1999/xlink"><defs><clipPath id="i0"><path d="M36,0 C55.882251,0 72,16.117749 72,36 C72,55.882251 55.882251,72 36,72 C16.117749,72 0,55.882251 0,36 C0,16.117749 16.117749,0 36,0 Z"></path></clipPath><clipPath id="i1"><path d="M12.8,0 C19.8,0 25.6,5.8 25.6,12.8 C25.6,19.8 20,25.6 12.8,25.6 C5.8,25.6 0,19.8 0,12.8 C0,5.8 5.8,0 12.8,0 Z"></path></clipPath><clipPath id="i2"><path d="M6.4,0 L6.4,13.4 L0,13.4 L0.2,7 C0.6,2.8 2.4,0.8 6.4,0 Z"></path></clipPath><clipPath id="i3"><path d="M25,0 C32.05,0 34.3138333,0.245444444 36.1174583,0.736333333 L36.3455417,0.800333333 C36.38325,0.811222222 36.4208333,0.822222222 36.4583333,0.833333333 L36.6826667,0.901333333 C36.9066667,0.970666667 37.1306667,1.044 37.3636667,1.12133333 L37.6,1.2 C40,2 42.4,3.6 44.6,6.4 C47.8,10.4 49.6,20.6 50.4,28.4 L41,28.4 L40.8,22 C40.4,17.8 38.6,15.8 34.6,15 L34.6,28.4 L15.8,28.4 L15.8,15 C11.8,15.8 10,17.8 9.6,22 L9.4,28.4 L0,28.4 C0.8,20.8 2.6,10.4 6,6.6 C8,3.8 10.4,2.2 12.8,1.4 C12.8,1.4 16,0 25,0 Z"></path></clipPath><clipPath id="i4"><path d="M0,0 C4,0.8 5.8,2.8 6.2,7 L6.4,13.4 L0,13.4 Z"></path></clipPath></defs><g clip-path="url(#i0)"><polygon points="0,0 72,0 72,72 0,72 0,0" stroke="none" fill="#202426"></polygon><g transform="translate(11.000000000000046 14.600000000000001)"><g transform="translate(11.800000000000072 0.0)"><g clip-path="url(#i1)"><polygon points="0,0 25.6,0 25.6,25.6 0,25.6 0,0" stroke="none" fill="#696E73"></polygon></g></g><g transform="translate(9.400000000000087 44.0)"><g clip-path="url(#i2)"><polygon points="0,0 6.4,0 6.4,13.4 0,13.4 0,0" stroke="none" fill="#4F5255"></polygon></g></g><g transform="translate(0.0 29.000000000000004)"><g clip-path="url(#i3)"><polygon points="0,0 50.4,0 50.4,28.4 0,28.4 0,0" stroke="none" fill="#696E73"></polygon></g></g><g transform="translate(34.60000000000015 44.0)"><g clip-path="url(#i4)"><polygon points="0,0 6.4,0 6.4,13.4 0,13.4 0,0" stroke="none" fill="#4F5255"></polygon></g></g></g></g><path d="M36,72 C55.882251,72 72,55.882251 72,36 C72,16.117749 55.882251,0 36,0 C16.117749,0 0,16.117749 0,36 C0,55.882251 16.117749,72 36,72 Z" stroke="#4F5255" stroke-width="1" fill="none" stroke-miterlimit="10"></path></svg>