<?xml version="1.0" encoding="UTF-8"?><svg version="1.1" width="106px" height="36px" viewBox="0 0 106.0 36.0" xmlns="http://www.w3.org/2000/svg" xmlns:xlink="http://www.w3.org/1999/xlink"><defs><clipPath id="i0"><path d="M119,0 C120.656854,-3.04359188e-16 122,1.34314575 122,3 L122,49 C122,50.6568542 120.656854,52 119,52 L3,52 C1.34314575,52 3.7556198e-15,50.6568542 0,49 L0,3 C-2.02906125e-16,1.34314575 1.34314575,1.63662682e-15 3,0 L119,0 Z"></path></clipPath><clipPath id="i1"><path d="M103,0 C104.656854,-3.04359188e-16 106,1.34314575 106,3 L106,33 C106,34.6568542 104.656854,36 103,36 L3,36 C1.34314575,36 -6.85272294e-16,34.6568542 0,33 L0,3 C-2.02906125e-16,1.34314575 1.34314575,-5.83819232e-16 3,0 L103,0 Z"></path></clipPath><clipPath id="i2"><path d="M7.74998152,0 C12.0301837,0 15.499963,3.46977933 15.499963,7.74998152 C15.499963,12.0301837 12.0301837,15.499963 7.74998152,15.499963 C3.46977933,15.499963 0,12.0301837 0,7.74998152 C0,3.46977933 3.46977933,0 7.74998152,0 Z M11.8964255,4.68935039 C11.701205,4.49406888 11.3845859,4.49406888 11.1893044,4.68935039 L6.4999845,9.37867027 L4.31065867,7.18931391 C4.11540767,6.99406291 3.79878855,6.99406291 3.60353755,7.18931391 L2.89641643,7.89640451 C2.70119595,8.09165551 2.70119595,8.40827463 2.89641643,8.60352563 L6.14640869,11.8535179 C6.3416902,12.0487689 6.6582788,12.0487689 6.85356032,11.8535484 L12.6035466,6.10356211 C12.7987671,5.90831111 12.7987671,5.59169199 12.6035466,5.39644099 Z"></path></clipPath></defs><rect x="0px" y="0px" width="106px" height="36px" fill="#FFFFFF"></rect><g transform="translate(-8.0 -8.0)"><g clip-path="url(#i0)"><polygon points="0,0 122,0 122,52 0,52 0,0" stroke="none" fill="rgba(0, 102, 204, 0.2)"></polygon></g><g clip-path="url(#i0)"><path d="M3,0 L119,0 C120.656854,-3.04359188e-16 122,1.34314575 122,3 L122,49 C122,50.6568542 120.656854,52 119,52 L3,52 C1.34314575,52 3.7556198e-15,50.6568542 0,49 L0,3 C-2.02906125e-16,1.34314575 1.34314575,1.63662682e-15 3,0 Z" stroke="#0066CC" stroke-width="2" fill="none" stroke-miterlimit="5"></path></g></g><g clip-path="url(#i1)"><polygon points="0,0 106,0 106,36 0,36 0,0" stroke="none" fill="#FFFFFF"></polygon></g><g clip-path="url(#i1)"><polygon points="0,0 106,0 106,36 0,36 0,0" stroke="none" fill="#FFFFFF"></polygon><path d="M3,0 L103,0 C104.656854,-3.04359188e-16 106,1.34314575 106,3 L106,33 C106,34.6568542 104.656854,36 103,36 L3,36 C1.34314575,36 -6.85272294e-16,34.6568542 0,33 L0,3 C-2.02906125e-16,1.34314575 1.34314575,-5.83819232e-16 3,0 Z" stroke="#0066CC" stroke-width="4" fill="none" stroke-miterlimit="5"></path></g><g transform="translate(40.0 6.0)"><text transform="translate(0.0 16.0)" font-family="RedHatText-Regular, Red Hat Text" font-size="16.0" font-weight="normal" fill="#0066CC" text-anchor="left" line-spacing="24.0">Button</text></g><g transform="translate(16.0 6.0)"><g transform="translate(4.0 4.0)"><g clip-path="url(#i2)"><polygon points="0,0 15.499963,0 15.499963,15.499963 0,15.499963 0,0" stroke="none" fill="#0066CC"></polygon></g></g></g></svg>