<?xml version="1.0" encoding="UTF-8"?><svg version="1.1" width="109px" height="36px" viewBox="0 0 109.0 36.0" xmlns="http://www.w3.org/2000/svg" xmlns:xlink="http://www.w3.org/1999/xlink"><defs><clipPath id="i0"><path d="M106,0 C107.656854,-3.04359188e-16 109,1.34314575 109,3 L109,33 C109,34.6568542 107.656854,36 106,36 L3,36 C1.34314575,36 2.02906125e-16,34.6568542 0,33 L0,3 C-2.02906125e-16,1.34314575 1.34314575,-5.83819232e-16 3,0 L106,0 Z"></path></clipPath><clipPath id="i1"><path d="M16,0 L16,36 L0,36 L0,0 L16,0 Z"></path></clipPath><clipPath id="i2"><path d="M77,0 L77,6 L0,6 L0,0 L77,0 Z"></path></clipPath></defs><g clip-path="url(#i0)"><path d="M3,0 L106,0 C107.656854,-3.04359188e-16 109,1.34314575 109,3 L109,33 C109,34.6568542 107.656854,36 106,36 L3,36 C1.34314575,36 2.02906125e-16,34.6568542 0,33 L0,3 C-2.02906125e-16,1.34314575 1.34314575,-5.83819232e-16 3,0 Z" stroke="#2B9AF3" stroke-width="2" fill="none" stroke-miterlimit="5"></path></g><g transform="translate(16.0 6.0)"><text transform="translate(0.259999999999998 16.0)" font-family="RedHatText-Regular, Red Hat Text" font-size="16.0" font-weight="normal" fill="#FFFFFF" text-anchor="center" line-spacing="24.0">Secondary</text></g><g clip-path="url(#i1)"><polygon points="0,0 16,0 16,36 0,36 0,0" stroke="none" fill="rgba(62, 156, 52, 0.9)"></polygon></g><g clip-path="url(#i1)"><polygon points="0,0 16,0 16,36 0,36 0,0 0,0" stroke="#418A37" stroke-width="2" fill="none" stroke-miterlimit="5"></polygon></g><g transform="translate(93.0 0.0)"><g clip-path="url(#i1)"><polygon points="0,0 16,0 16,36 0,36 0,0" stroke="none" fill="rgba(62, 156, 52, 0.9)"></polygon></g><g clip-path="url(#i1)"><polygon points="0,0 16,0 16,36 0,36 0,0 0,0" stroke="#418A37" stroke-width="2" fill="none" stroke-miterlimit="5"></polygon></g></g><g transform="translate(16.0 0.0)"><g clip-path="url(#i2)"><polygon points="0,0 77,0 77,6 0,6 0,0" stroke="none" fill="rgba(243, 213, 59, 0.9)"></polygon></g><g clip-path="url(#i2)"><polygon points="0,0 77,0 77,6 0,6 0,0 0,0" stroke="#CAB534" stroke-width="2" fill="none" stroke-miterlimit="5"></polygon></g></g><g transform="translate(16.0 30.0)"><g clip-path="url(#i2)"><polygon points="0,0 77,0 77,6 0,6 0,0" stroke="none" fill="rgba(243, 213, 59, 0.9)"></polygon></g><g clip-path="url(#i2)"><polygon points="0,0 77,0 77,6 0,6 0,0 0,0" stroke="#CAB534" stroke-width="2" fill="none" stroke-miterlimit="5"></polygon></g></g></svg>