<?xml version="1.0" encoding="UTF-8"?><svg version="1.1" width="140px" height="17px" viewBox="0 0 140.0 17.0" xmlns="http://www.w3.org/2000/svg" xmlns:xlink="http://www.w3.org/1999/xlink"><defs><clipPath id="i0"><path d="M140,0 L140,17 L0,17 L0,0 L140,0 Z"></path></clipPath><clipPath id="i1"><path d="M140,0 L140,1 L0,1 L0,0 L140,0 Z"></path></clipPath><clipPath id="i2"><path d="M140,0 L140,8 L0,8 L0,0 L140,0 Z"></path></clipPath></defs><g clip-path="url(#i0)"><polygon points="0,0 140,0 140,17 0,17 0,0" stroke="none" fill="#FFFFFF"></polygon></g><g transform="translate(0.0 8.0)"><g clip-path="url(#i1)"><polygon points="0,0 140,0 140,1 0,1 0,0" stroke="none" fill="#D2D2D2"></polygon></g></g><g clip-path="url(#i2)"><polygon points="0,0 140,0 140,8 0,8 0,0" stroke="none" fill="rgba(146, 211, 0, 0.9)"></polygon></g><g clip-path="url(#i2)"><polygon points="0,0 140,0 140,8 0,8 0,0 0,0" stroke="#7EB200" stroke-width="2" fill="none" stroke-miterlimit="5"></polygon></g><g transform="translate(0.0 9.0)"><g clip-path="url(#i2)"><polygon points="0,0 140,0 140,8 0,8 0,0" stroke="none" fill="rgba(146, 211, 0, 0.9)"></polygon></g><g clip-path="url(#i2)"><polygon points="0,0 140,0 140,8 0,8 0,0 0,0" stroke="#7EB200" stroke-width="2" fill="none" stroke-miterlimit="5"></polygon></g></g></svg>