<?xml version="1.0" encoding="UTF-8"?>
<svg width="114px" height="40px" viewBox="0 0 114 40" version="1.1" xmlns="http://www.w3.org/2000/svg" xmlns:xlink="http://www.w3.org/1999/xlink">
    <title></title>
    <g id="Dropdowns" stroke="none" stroke-width="1" fill="none" fill-rule="evenodd">
        <g id="Dropdowns-/-3.-Menu-Item-/-3.-Single-select">
            <rect fill="#FFFFFF" x="0" y="0" width="114" height="40"></rect>
            <rect id="Background" fill="#FFFFFF" x="0" y="0" width="114" height="40"></rect>
            <text id="âœï¸-Label" font-family="RedHatText-Regular, Red Hat Text" font-size="16" font-weight="normal" line-spacing="24" fill="#151515">
                <tspan x="16" y="24">Option</tspan>
            </text>
            <g id="Check" transform="translate(84.000007, 16.000000)" fill="#0066CC">
                <path d="M4.92423791,8.77280814 L11.8242306,1.87279255 C12.0585364,1.63846388 12.0585364,1.25856672 11.8242306,1.02426094 L10.9757219,0.175729333 C10.7414161,-0.0585764442 10.3614961,-0.0585764442 10.1271903,0.175729333 L4.49998355,5.80293607 L1.87276966,3.17572218 C1.63846388,2.94139352 1.25854383,2.94139352 1.02423805,3.17572218 L0.175729333,4.02425379 C-0.0585764442,4.25858245 -0.0585764442,4.63847962 0.175729333,4.87278539 L4.07572919,8.77278525 C4.31001208,9.00711392 4.68990924,9.00711392 4.92423791,8.77280814 Z" id="check"></path>
            </g>
            <g id="ðŸ“-Padding" fill-opacity="0.9">
                <g id="Spacer-/-Vertical-/-2.-pf-global--spacer--sm-(8px)" transform="translate(16.000000, 0.000000)" fill="#92D400" stroke="#7FB300">
                    <rect id="Rectangle-Copy" x="0.5" y="0.5" width="81" height="7"></rect>
                </g>
                <g id="Spacer-/-Vertical-/-2.-pf-global--spacer--sm-(8px)" transform="translate(16.000000, 32.000000)" fill="#92D400" stroke="#7FB300">
                    <rect id="Rectangle-Copy" x="0.5" y="0.5" width="81" height="7"></rect>
                </g>
                <g id="Spacer-/-Horizontal-/-3.-pf-global--spacer--md-(16px)" fill="#3F9C35" stroke="#418A38">
                    <rect id="Rectangle-Copy-2" x="0.5" y="0.5" width="15" height="39"></rect>
                </g>
                <g id="Spacer-/-Horizontal-/-3.-pf-global--spacer--md-(16px)" transform="translate(66.000000, 8.000000)" fill="#3F9C35" stroke="#418A38">
                    <rect id="Rectangle-Copy-2" x="0.5" y="0.5" width="15" height="23"></rect>
                </g>
                <g id="Spacer-/-Horizontal-/-3.-pf-global--spacer--md-(16px)" transform="translate(98.000000, 0.000000)" fill="#3F9C35" stroke="#418A38">
                    <rect id="Rectangle-Copy-2" x="0.5" y="0.5" width="15" height="39"></rect>
                </g>
            </g>
        </g>
    </g>
</svg>