<?xml version="1.0" encoding="UTF-8"?><svg version="1.1" width="114px" height="42px" viewBox="0 0 114.0 42.0" xmlns="http://www.w3.org/2000/svg" xmlns:xlink="http://www.w3.org/1999/xlink"><defs><clipPath id="i0"><path d="M114,0 L114,42 L0,42 L0,0 L114,0 Z"></path></clipPath><clipPath id="i1"><path d="M16,0 L16,45 L0,45 L0,0 L16,0 Z"></path></clipPath><clipPath id="i2"><path d="M41,0 L41,16 L0,16 L0,0 L41,0 Z"></path></clipPath><clipPath id="i3"><path d="M41,0 L41,8 L0,8 L0,0 L41,0 Z"></path></clipPath></defs><rect x="0px" y="0px" width="114px" height="42px" fill="#FFFFFF"></rect><g clip-path="url(#i0)"><polygon points="0,0 114,0 114,42 0,42 0,0" stroke="none" fill="#FFFFFF"></polygon></g><g transform="translate(16.0 16.0)"><text transform="translate(0.0 12.0)" font-family="RedHatText-Regular, Red Hat Text" font-size="12.0" font-weight="normal" fill="#696E73" text-anchor="left" line-spacing="18.0">Group title</text></g><g transform=""><g clip-path="url(#i1)"><polygon points="0,0 16,0 16,45 0,45 0,0" stroke="none" fill="rgba(62, 156, 52, 0.9)"></polygon></g><g clip-path="url(#i1)"><polygon points="0,0 16,0 16,45 0,45 0,0 0,0" stroke="#418A37" stroke-width="2" fill="none" stroke-miterlimit="5"></polygon></g></g><g transform="translate(16.0 0.0)"><g clip-path="url(#i2)"><polygon points="0,0 41,0 41,16 0,16 0,0" stroke="none" fill="rgba(62, 156, 52, 0.9)"></polygon></g><g clip-path="url(#i2)"><polygon points="0,0 41,0 41,16 0,16 0,0 0,0" stroke="#418A37" stroke-width="2" fill="none" stroke-miterlimit="5"></polygon></g></g><g transform="translate(16.0 37.0)"><g clip-path="url(#i3)"><polygon points="0,0 41,0 41,8 0,8 0,0" stroke="none" fill="rgba(146, 211, 0, 0.9)"></polygon></g><g clip-path="url(#i3)"><polygon points="0,0 41,0 41,8 0,8 0,0 0,0" stroke="#7EB200" stroke-width="2" fill="none" stroke-miterlimit="5"></polygon></g></g><g transform="translate(57.00000000000001 0.0)"><g clip-path="url(#i1)"><polygon points="0,0 16,0 16,45 0,45 0,0" stroke="none" fill="rgba(62, 156, 52, 0.9)"></polygon></g><g clip-path="url(#i1)"><polygon points="0,0 16,0 16,45 0,45 0,0 0,0" stroke="#418A37" stroke-width="2" fill="none" stroke-miterlimit="5"></polygon></g></g></svg>