<?xml version="1.0" encoding="UTF-8"?><svg version="1.1" width="84px" height="40px" viewBox="0 0 84.0 40.0" xmlns="http://www.w3.org/2000/svg" xmlns:xlink="http://www.w3.org/1999/xlink"><defs><clipPath id="i0"><path d="M84,0 L84,40 L0,40 L0,0 L84,0 Z"></path></clipPath><clipPath id="i1"><path d="M0.694917929,0.165223681 C0.915239059,-0.0550745605 1.27149279,-0.0550745605 1.48945644,0.165223681 L3.74883521,2.42460245 L6.00819109,0.165223681 C6.22851222,-0.0550745605 6.58476595,-0.0550745605 6.8027296,0.165223681 L7.33240668,0.694923651 C7.55272781,0.915221893 7.55272781,1.27147562 7.33240668,1.48943927 L4.14491428,4.67693167 C3.92928522,4.8972528 3.57305438,4.8972528 3.35273325,4.67693167 L0.165240847,1.48943927 C-0.0550802825,1.26914103 -0.0550802825,0.912887304 0.165240847,0.694923651 Z"></path></clipPath><clipPath id="i2"><path d="M16,0 L16,24 L0,24 L0,0 L16,0 Z"></path></clipPath><clipPath id="i3"><path d="M60,0 L60,8 L0,8 L0,0 L60,0 Z"></path></clipPath></defs><g clip-path="url(#i0)"><polygon points="0,0 84,0 84,40 0,40 0,0" stroke="none" fill="#FFFFFF"></polygon><g transform="translate(0.0 -1.0)"><polygon points="84,40 84,41 0,41 0,40 84,40 84,40" stroke="none" fill="#D2D2D2"></polygon></g></g><g transform="translate(16.0 8.0)"><text transform="translate(0.19200000000000017 16.0)" font-family="RedHatText-Regular, Red Hat Text" font-size="16.0" font-weight="normal" fill="#696E73" text-anchor="center" line-spacing="24.0">Tab</text></g><g transform="translate(44.0 8.0)"><g transform="translate(8.0 10.0)"><g clip-path="url(#i1)"><polygon points="0,2.77555756e-17 7.49764753,2.77555756e-17 7.49764753,4.84217252 0,4.84217252 0,2.77555756e-17" stroke="none" fill="#696E73"></polygon></g></g></g><g transform="translate(0.0 8.0)"><g clip-path="url(#i2)"><polygon points="0,0 16,0 16,24 0,24 0,0" stroke="none" fill="rgba(62, 156, 52, 0.9)"></polygon></g><g clip-path="url(#i2)"><polygon points="0,0 16,0 16,24 0,24 0,0 0,0" stroke="#418A37" stroke-width="2" fill="none" stroke-miterlimit="5"></polygon></g></g><g transform="translate(44.0 8.0)"><g clip-path="url(#i2)"><polygon points="0,0 16,0 16,24 0,24 0,0" stroke="none" fill="rgba(62, 156, 52, 0.9)"></polygon></g><g clip-path="url(#i2)"><polygon points="0,0 16,0 16,24 0,24 0,0 0,0" stroke="#418A37" stroke-width="2" fill="none" stroke-miterlimit="5"></polygon></g></g><g clip-path="url(#i3)"><polygon points="0,0 60,0 60,8 0,8 0,0" stroke="none" fill="rgba(146, 211, 0, 0.9)"></polygon></g><g clip-path="url(#i3)"><polygon points="0,0 60,0 60,8 0,8 0,0 0,0" stroke="#7EB200" stroke-width="2" fill="none" stroke-miterlimit="5"></polygon></g><g transform="translate(0.0 32.0)"><g clip-path="url(#i3)"><polygon points="0,0 60,0 60,8 0,8 0,0" stroke="none" fill="rgba(146, 211, 0, 0.9)"></polygon></g><g clip-path="url(#i3)"><polygon points="0,0 60,0 60,8 0,8 0,0 0,0" stroke="#7EB200" stroke-width="2" fill="none" stroke-miterlimit="5"></polygon></g></g></svg>