<svg xmlns="http://www.w3.org/2000/svg" width="24" height="24" viewBox="0 0 24 24">
  <path fill="#151515" fill-rule="evenodd" d="M11.6249723,23.2499446 C18.046832,23.2499446 23.2499446,18.046832 23.2499446,11.6249723 C23.2499446,5.20311259 18.046832,0 11.6249723,0 C5.20311259,0 0,5.20311259 0,11.6249723 C0,18.046832 5.20311259,23.2499446 11.6249723,23.2499446 Z M10.8280992,18.5765091 L4.61250731,12.3562022 C4.17186505,11.9202749 4.17186505,11.2077675 4.61250731,10.767171 L5.12341613,10.2515472 C5.56872757,9.80623578 6.29528834,9.81561991 6.73121564,10.2702697 L10.1249759,13.8093238 L10.1249759,5.24998748 C10.1249759,4.62656062 10.6265463,4.12499017 11.2499732,4.12499017 L11.9999714,4.12499017 C12.6233982,4.12499017 13.1249687,4.62656062 13.1249687,5.24998748 L13.1249687,13.8093238 L16.5187289,10.2702697 C16.9546562,9.81561991 17.681217,9.80623578 18.1265284,10.2515472 L18.6374373,10.767171 C19.0780795,11.2030983 19.0780795,11.9156057 18.6374373,12.3562022 L12.4171762,18.5765091 C11.9812031,19.0171513 11.2687414,19.0171513 10.8280992,18.5765091 Z"/>
</svg>
