<svg xmlns="http://www.w3.org/2000/svg" width="24" height="24" viewBox="0 0 24 24">
  <path fill="#151515" fill-rule="evenodd" d="M22.1085937,7.434375 L16.5679687,1.89140625 C15.3046875,0.63046875 13.6523438,0 12,0 C10.3476562,0 8.6953125,0.63046875 7.43203125,1.89140625 L1.89140625,7.43203125 C-0.63046875,9.95390625 -0.63046875,14.04375 1.89140625,16.565625 L7.43203125,22.10625 C8.6953125,23.3695313 10.3476562,24 12,24 C13.6523438,24 15.3046875,23.3695313 16.5679687,22.1085937 L22.1085937,16.5679687 C24.6304688,14.0460937 24.6304688,9.95625 22.1085937,7.434375 Z M20.30625,14.1140625 L14.128125,20.2992187 C12.95625,21.4710937 11.0578125,21.4734375 9.88359375,20.3015625 L3.69609375,14.1140625 C2.5265625,12.9421875 2.5265625,11.04375 3.6984375,9.87421875 L9.8765625,3.7125 C11.0460938,2.5453125 12.9398438,2.5453125 14.1117188,3.71015625 L20.3039062,9.87421875 C21.4757813,11.0460937 21.4757813,12.9421875 20.30625,14.1140625 Z M12.2179688,13.5 C14.7070313,13.5 16.7273438,11.765625 16.7273438,9.69609375 C16.7273438,7.6265625 14.709375,5.94375 12.2179688,5.94375 C8.578125,5.94375 7.83984375,7.91484375 7.715625,9.54375 C7.715625,9.71015625 7.85625,9.75 8.05078125,9.75 L10.4296875,9.75 C10.5585938,9.75 10.734375,9.73828125 10.8,9.52734375 C10.8,8.4984375 13.6617188,8.36953125 13.6617188,9.69375 C13.6617188,10.3570312 13.0359375,11.0367188 12.2179688,11.0859375 C11.4,11.1351563 10.4835938,11.2453125 10.4835938,12.2273438 L10.4835938,12.9796875 C10.4835938,13.378125 10.6898438,13.5 11.0625,13.5 C11.4375,13.5023438 12.2179688,13.5 12.2179688,13.5 L12.2179688,13.5 Z M13.4835938,17.6085937 L13.4835938,15.3585937 C13.4835938,15.2554687 13.4460938,15.1710937 13.3734375,15.09375 C13.3007812,15.0210937 13.2117188,14.9835937 13.1085937,14.9835937 L10.8585938,14.9835937 C10.7554688,14.9835937 10.6710938,15.0210937 10.59375,15.09375 C10.5210938,15.1664062 10.4835938,15.2554687 10.4835938,15.3585937 L10.4835938,17.6085937 C10.4835938,17.7117187 10.5210938,17.7960937 10.59375,17.8734375 C10.6664063,17.9460937 10.7554688,17.9835937 10.8585938,17.9835937 L13.1085937,17.9835937 C13.2117188,17.9835937 13.2960937,17.9460937 13.3734375,17.8734375 C13.4484375,17.7984375 13.4835938,17.709375 13.4835938,17.6085937 L13.4835938,17.6085937 Z"/>
</svg>
