<svg xmlns="http://www.w3.org/2000/svg" width="24" height="24" viewBox="0 0 24 24">
  <path fill="#151515" fill-rule="evenodd" d="M12.0023438,0 C5.38359375,0 0,5.3859375 0,12 C0,18.6164062 5.3859375,24 12.0023438,24 C18.61875,24 24,18.6164062 24,12 C24,5.38359375 18.61875,0 12.0023438,0 Z M12,21 C7.0359375,21 3,16.9664062 3,12 C3,7.03828125 7.0359375,3 12,3 C16.9617188,3 21,7.0359375 21,12 C21,16.9640625 16.9617188,21 12,21 Z M5.953125,15 C7.05703125,17.221875 9.3515625,18.75 12,18.75 C14.6484375,18.75 16.9429687,17.221875 18.046875,15 L5.953125,15 Z"/>
</svg>
