<svg xmlns="http://www.w3.org/2000/svg" width="24" height="24" viewBox="0 0 24 24">
  <path fill="#151515" fill-rule="evenodd" d="M12,3 C7.0359375,3 3,7.03828125 3,12 C3,16.9664062 7.0359375,21 12,21 C16.9640625,21 21,16.9640625 21,12 C21,7.0359375 16.9617188,3 12,3 M12.0023438,24 C5.3859375,24 0,18.6164062 0,12 C0,5.38359375 5.38359375,0 12.0023438,0 C18.6210938,0 24,5.38359375 24,12 C24,18.6164062 18.61875,24 12.0023438,24 M17.4398438,14.5125 C16.95,15.5695313 16.2125,16.4140625 15.2273438,17.0460938 C14.2421875,17.678125 13.1664063,17.9945313 12,17.995375 C11.200323,17.9979535 10.4087426,17.8351688 9.675,17.5171875 C8.9390625,17.1984375 8.296875,16.7742188 7.7578125,16.2351563 C7.21875,15.6960938 6.79453125,15.0609375 6.47578125,14.3226563 C6.15877284,13.5886891 5.99679478,12.797151 5.99990802,11.9976563 C5.99746155,11.2136793 6.15041135,10.4369812 6.45,9.7125 C6.75,8.9859375 7.15624999,8.35703126 7.66875,7.82578125 C8.18125001,7.29453124 8.79453124,6.86640626 9.50859375,6.54140625 C10.2209754,6.2163222 10.9901544,6.03398058 11.7726563,6.0046875 C12,5.9953125 12.2648437,6.14765625 12.3539063,6.3609375 C12.4476563,6.57421875 12.4617188,6.815625 12.2882813,6.97734375 C11.8382813,7.3828125 11.4445313,7.85625 11.2078125,8.3953125 C10.9710938,8.934375 10.8,9.45 10.8,10.0476563 C10.8,10.81875 10.9382812,11.475 11.3179688,12.1265625 C11.6893602,12.7686563 12.22275,13.3020461 12.8648438,13.6734375 C13.5140625,14.053125 14.2265625,14.2429688 14.9976563,14.2429688 C15.612812,14.2435095 16.2204095,14.1074205 16.7765625,13.8445313 C16.9898437,13.7507813 17.1773437,13.7835938 17.3390625,13.9453125 C17.41039,14.017617 17.4578344,14.1100519 17.475,14.2101563 C17.4939723,14.3121791 17.4817195,14.4175525 17.4398438,14.5125"/>
</svg>
