<svg xmlns="http://www.w3.org/2000/svg" width="24" height="24" viewBox="0 0 24 24">
  <path fill="#151515" fill-rule="evenodd" d="M12,0 C5.371875,0 0,5.371875 0,12 C0,18.628125 5.371875,24 12,24 C18.628125,24 24,18.628125 24,12 C24,5.371875 18.628125,0 12,0 Z M3.62109375,8.46796875 C4.096875,7.37109375 4.75078125,6.40546875 5.57578125,5.57578125 C6.40546875,4.74609375 7.36875,4.096875 8.46796875,3.62109375 C9.56484375,3.1453125 10.74375,2.90859375 11.9929687,2.90859375 C13.2398437,2.90859375 14.41875,3.1453125 15.5179687,3.62109375 C16.6148437,4.096875 17.5804688,4.75078125 18.4101562,5.57578125 C19.2398437,6.40546875 19.8890625,7.37109375 20.3648437,8.46796875 C20.68125,9.18046875 20.8898437,9.9140625 20.9976562,10.6851563 L17.015625,10.6851563 C16.6242187,10.6851563 16.25625,10.884375 16.040625,11.2101563 L15.5039062,12.0304688 L12.8695312,6.80390625 C12.58125,6.2296875 11.878125,5.9953125 11.30625,6.290625 C11.0320312,6.42890625 10.8304688,6.665625 10.7273437,6.95390625 L8.446875,13.584375 L7.38046875,11.3507813 C7.18828125,10.9429688 6.77578125,10.6875 6.32578125,10.6875 L3,10.6875 C3.10546875,9.9140625 3.3140625,9.1734375 3.62109375,8.46796875 Z M20.371875,15.5320313 C19.8960937,16.640625 19.2421875,17.6039063 18.4171875,18.4242188 C17.5921875,19.2445313 16.6242188,19.8914063 15.525,20.3671875 C14.428125,20.8429687 13.2492188,21.0796875 12,21.0796875 C10.753125,21.0796875 9.57421875,20.8429687 8.475,20.3671875 C7.378125,19.8914063 6.4125,19.2421875 5.5828125,18.4242188 C4.753125,17.60625 4.10390625,16.640625 3.628125,15.5320313 C3.2859375,14.728125 3.065625,13.89375 2.96953125,13.0195312 L5.5828125,13.0195312 L7.55859375,17.165625 C7.75078125,17.5734375 8.16328125,17.8289062 8.61328125,17.8289062 L8.6765625,17.8289062 C9.14765625,17.803125 9.56015625,17.4914062 9.71484375,17.0414063 L12.028125,10.3265625 L14.3320313,14.8898437 C14.5195313,15.2601563 14.8945313,15.50625 15.3070313,15.5273438 C15.703125,15.5484375 16.1203125,15.3515625 16.3453125,15.0023438 L17.6414063,13.021875 L21.0257813,13.021875 C20.934375,13.89375 20.7164062,14.7328125 20.371875,15.5320313 Z"/>
</svg>
