<?xml version="1.0" encoding="UTF-8"?>
<svg width="24px" height="24px" viewBox="0 0 24 24" version="1.1" xmlns="http://www.w3.org/2000/svg" xmlns:xlink="http://www.w3.org/1999/xlink">
    <title></title>
    <g id="Icons" stroke="none" stroke-width="1" fill="none" fill-rule="evenodd">
        <g id="Icons/2.-Size-sm-(12px)/Actions/download" fill="#6A6E73">
            <path d="M12.3210833,14.8663805 L15.8859094,11.299197 C16.1812349,11.0038943 15.9726325,10.4999893 15.5554505,10.4999893 L13.4999821,10.4999893 L13.4999821,6.56249866 C13.4999821,6.25078523 13.2491969,6 12.9374835,6 L11.0624879,6 C10.7507745,6 10.4999893,6.25078523 10.4999893,6.56249866 L10.4999893,10.4999893 L8.44218625,10.4999893 C8.02500433,10.4999893 7.81640192,11.0038943 8.11170456,11.299197 L11.6812456,14.8663805 C11.8570264,15.0421614 12.1453024,15.0421614 12.3210833,14.8663805 Z M17.4374727,17.9999714 C17.7491862,17.9999714 17.9999714,17.7491862 17.9999714,17.4374727 L17.9999714,14.812479 C17.9999714,14.5007656 17.7491862,14.2499803 17.4374727,14.2499803 L13.9991951,14.2499803 L12.8507603,15.3984151 C12.3796769,15.8694986 11.6202945,15.8694986 11.1492111,15.3984151 L10.0007763,14.2499803 L6.56249866,14.2499803 C6.25078523,14.2499803 6,14.5007656 6,14.812479 L6,17.4374727 C6,17.7491862 6.25078523,17.9999714 6.56249866,17.9999714 L17.4374727,17.9999714 Z M14.6249794,17.343723 C14.3671676,17.343723 14.1562306,17.132786 14.1562306,16.8749741 C14.1562306,16.6171622 14.3671676,16.4062252 14.6249794,16.4062252 C14.8827913,16.4062252 15.0937283,16.6171622 15.0937283,16.8749741 C15.0937283,17.132786 14.8827913,17.343723 14.6249794,17.343723 Z M16.1249759,17.343723 C15.867164,17.343723 15.656227,17.132786 15.656227,16.8749741 C15.656227,16.6171622 15.867164,16.4062252 16.1249759,16.4062252 C16.3827877,16.4062252 16.5937247,16.6171622 16.5937247,16.8749741 C16.5937247,17.132786 16.3827877,17.343723 16.1249759,17.343723 Z" id="download"></path>
        </g>
    </g>
</svg>