<?xml version="1.0" encoding="UTF-8"?>
<svg width="24px" height="24px" viewBox="0 0 24 24" version="1.1" xmlns="http://www.w3.org/2000/svg" xmlns:xlink="http://www.w3.org/1999/xlink">
    <title></title>
    <g id="Icons" stroke="none" stroke-width="1" fill="none" fill-rule="evenodd">
        <g id="Icons/2.-Size-sm-(12px)/Actions/pause-circle" fill="#6A6E73">
            <path d="M11.8124861,17.6249723 C15.023416,17.6249723 17.6249723,15.023416 17.6249723,11.8124861 C17.6249723,8.6015563 15.023416,6 11.8124861,6 C8.6015563,6 6,8.6015563 6,11.8124861 C6,15.023416 8.6015563,17.6249723 11.8124861,17.6249723 Z M11.0624915,14.0624808 L9.93749061,14.0624808 C9.73124568,14.0624808 9.56249151,13.8937266 9.56249151,13.6874817 L9.56249151,9.93749061 C9.56249151,9.73124568 9.73124568,9.56249151 9.93749061,9.56249151 L11.0624915,9.56249151 C11.2687329,9.56249151 11.437487,9.73124568 11.437487,9.93749061 L11.437487,13.6874817 C11.437487,13.8937266 11.2687329,14.0624808 11.0624915,14.0624808 Z M13.6874852,14.0624808 L12.5624844,14.0624808 C12.3562394,14.0624808 12.1874852,13.8937266 12.1874852,13.6874817 L12.1874852,9.93749061 C12.1874852,9.73124568 12.3562394,9.56249151 12.5624844,9.56249151 L13.6874852,9.56249151 C13.8937266,9.56249151 14.0624808,9.73124568 14.0624808,9.93749061 L14.0624808,13.6874817 C14.0624808,13.8937266 13.8937266,14.0624808 13.6874852,14.0624808 Z" id="pause-circle"></path>
        </g>
    </g>
</svg>