<?xml version="1.0" encoding="UTF-8"?>
<svg width="24px" height="24px" viewBox="0 0 24 24" version="1.1" xmlns="http://www.w3.org/2000/svg" xmlns:xlink="http://www.w3.org/1999/xlink">
    <title></title>
    <g id="Icons" stroke="none" stroke-width="1" fill="none" fill-rule="evenodd">
        <g id="Icons/2.-Size-sm-(12px)/Actions/pause" fill="#6A6E73">
            <path d="M10.374992,17.499975 C10.9960842,17.499975 11.4999893,16.9960699 11.4999893,16.3749776 L11.4999893,8.12499732 C11.4999893,7.50390505 10.9960842,7 10.374992,7 L8.12499732,7 C7.50390505,7 7,7.50390505 7,8.12499732 L7,16.3749776 C7,16.9960699 7.50390505,17.499975 8.12499732,17.499975 L10.374992,17.499975 Z M16.3749776,17.499975 C16.9960699,17.499975 17.499975,16.9960699 17.499975,16.3749776 L17.499975,8.12499732 C17.499975,7.50390505 16.9960699,7 16.3749776,7 L14.124983,7 C13.5038907,7 12.9999857,7.50390505 12.9999857,8.12499732 L12.9999857,16.3749776 C12.9999857,16.9960699 13.5038907,17.499975 14.124983,17.499975 L16.3749776,17.499975 Z" id="pause"></path>
        </g>
    </g>
</svg>