<?xml version="1.0" encoding="UTF-8"?>
<svg width="24px" height="24px" viewBox="0 0 24 24" version="1.1" xmlns="http://www.w3.org/2000/svg" xmlns:xlink="http://www.w3.org/1999/xlink">
    <title></title>
    <g id="Icons" stroke="none" stroke-width="1" fill="none" fill-rule="evenodd">
        <g id="Icons/2.-Size-sm-(12px)/Actions/pficon-import" fill="#6A6E73">
            <path d="M16.5,16.5 L7.5,16.5 L7.5,13.0113281 C7.49990703,12.9119216 7.46027463,12.8166352 7.38984385,12.7464843 L6.31992199,11.6765624 C6.26670663,11.6224992 6.18608004,11.6059881 6.11589693,11.6347811 C6.04571383,11.6635742 6,11.7319527 6,11.8078124 L6,17.7339843 C6,17.811328 6.0246095,17.8746093 6.07500012,17.9249999 C6.12539075,17.9753905 6.188672,18 6.26601574,18 L17.7339844,18 C17.8113281,18 17.8746094,17.9753905 17.925,17.9249999 C17.9753906,17.8746093 18,17.811328 18,17.7339843 L18,6.26601562 C18,6.18867187 17.9753906,6.12539062 17.925,6.075 C17.8746094,6.02460937 17.8113281,6 17.7339844,6 L11.8195313,6 C11.7437944,6.00012959 11.6755725,6.04581091 11.6466067,6.11579008 C11.617641,6.18576925 11.63362,6.266303 11.6871094,6.31992187 L12.7570313,7.38984374 C12.8271822,7.46027451 12.9224686,7.49990692 13.021875,7.5 L16.5,7.5 L16.5,16.5 Z M13.6851563,9.71367184 L12.4558594,10.9441406 L7.61484385,6.10195312 C7.5468751,6.03398437 7.46835948,6 7.38046885,6 C7.29257823,6 7.21406261,6.03398437 7.14609386,6.10195312 L6.10195325,7.14609374 C6.0339845,7.21406249 6.00000012,7.29257811 6.00000012,7.38046874 C6.00000012,7.46835936 6.0339845,7.54687498 6.10195325,7.61484373 L10.9441407,12.4546874 L9.71367196,13.6851562 C9.40429696,13.9945312 9.50859383,14.2499999 9.94687508,14.2499999 L13.453125,14.2499999 C14.1386719,14.2499999 14.25,14.1292968 14.25,13.4519531 L14.25,9.94570309 C14.2488282,9.50859372 13.9945313,9.40429684 13.6851563,9.71367184 Z" id="pficon-import"></path>
        </g>
    </g>
</svg>