<?xml version="1.0" encoding="UTF-8"?>
<svg width="24px" height="24px" viewBox="0 0 24 24" version="1.1" xmlns="http://www.w3.org/2000/svg" xmlns:xlink="http://www.w3.org/1999/xlink">
    <title></title>
    <g id="Icons" stroke="none" stroke-width="1" fill="none" fill-rule="evenodd">
        <g id="Icons/2.-Size-sm-(12px)/Actions/pficon-save" fill="#6A6E73">
            <path d="M17.8898438,8.13984375 L15.8601562,6.11015625 C15.7898437,6.03984375 15.6949219,6 15.5953125,6 L6.375,6 C6.16757813,6 6,6.16757813 6,6.375 L6,17.625 C6,17.8324219 6.16757813,18 6.375,18 L17.625,18 C17.8324219,18 18,17.8324219 18,17.625 L18,8.40585938 C18,8.30625 17.9601563,8.21015625 17.8898438,8.13984375 Z M16.5,16.5 L7.5,16.5 L7.5,7.5 L15.1289062,7.5 L16.5,8.87109375 L16.5,16.5 Z M12.75,12 L12.75,9.17578125 C12.75,9.07851562 12.6667969,9 12.5707031,9 L11.4609375,9 C11.3449219,9 11.25,9.09492188 11.25,9.2109375 L11.25,12 L9.74882813,12 C9.43125,12 9.2578125,12.3691406 9.459375,12.6140625 L11.709375,15.3398438 C11.859375,15.5214844 12.1394531,15.5214844 12.2882813,15.3386719 L14.5207031,12.6128906 C14.7210938,12.3679687 14.5464844,12 14.2300781,12 L12.75,12 Z" id="pficon-save"></path>
        </g>
    </g>
</svg>