<?xml version="1.0" encoding="UTF-8"?>
<svg width="24px" height="24px" viewBox="0 0 24 24" version="1.1" xmlns="http://www.w3.org/2000/svg" xmlns:xlink="http://www.w3.org/1999/xlink">
    <title></title>
    <g id="Icons" stroke="none" stroke-width="1" fill="none" fill-rule="evenodd">
        <g id="Icons/2.-Size-sm-(12px)/Actions/redo" fill="#6A6E73">
            <path d="M11.8206588,17.8124718 C13.0527039,17.8124718 14.7939412,17.1414148 15.7073148,16.3145811 C15.759042,16.2683013 15.8010188,16.1744142 15.8010188,16.1050174 C15.8010188,16.0406789 15.7640774,15.9515525 15.7185758,15.9060738 L14.9217027,15.1092007 C14.876224,15.0637449 14.7871434,15.0268492 14.7228506,15.0268492 C14.6645775,15.0268492 14.5816767,15.0579542 14.5378001,15.0963147 C13.8928126,15.6637572 12.6721201,16.1243121 11.813037,16.1243121 C9.53605728,16.1243121 7.68804686,14.2763246 7.68804686,11.9993219 C7.68804686,9.7223422 9.53605728,7.87433177 11.813037,7.87433177 C13.0261994,7.87433177 14.5600016,8.69152953 15.2366891,9.6984241 L12.8571019,9.58428101 C12.8534169,9.58412079 12.8474202,9.58396057 12.8437352,9.58396057 C12.7106637,9.58396057 12.5990826,9.67653138 12.5699181,9.80074705 L12.5624859,9.86553033 L12.5624859,10.9767032 C12.5624859,11.1319534 12.6884851,11.2579526 12.8437352,11.2579526 L17.5389603,11.2579526 C17.6942104,11.2579526 17.8202096,11.1319534 17.8202096,10.9767032 L17.8202096,6.28124933 C17.8202096,6.12599915 17.6942104,6 17.5389603,6 L16.4274669,6 C16.2722168,6 16.1462176,6.12599915 16.1462176,6.28124933 C16.1462176,6.28493432 16.1463549,6.29093101 16.146538,6.294616 L16.2402878,8.23429338 C15.2815041,7.10446667 13.3006967,6.18749955 11.8188735,6.18749955 L11.8124877,6.18749955 C8.60952293,6.18749955 5.99766697,8.8014841 6,12.0044489 C6.00233615,15.2125635 8.60389245,17.8124718 11.8124877,17.8124718 L11.8206588,17.8124718 Z" id="redo"></path>
        </g>
    </g>
</svg>