<?xml version="1.0" encoding="UTF-8"?>
<svg width="24px" height="24px" viewBox="0 0 24 24" version="1.1" xmlns="http://www.w3.org/2000/svg" xmlns:xlink="http://www.w3.org/1999/xlink">
    <title></title>
    <g id="Icons" stroke="none" stroke-width="1" fill="none" fill-rule="evenodd">
        <g id="Icons/2.-Size-sm-(12px)/Actions/sync-alt" fill="#6A6E73">
            <path d="M7.72045488,11.0624879 C7.85002458,11.0624879 7.9620162,10.9737278 7.99351026,10.8480262 C8.42623323,9.12134571 9.99349786,7.8765977 11.8089156,7.87499553 C12.8176641,7.87410289 13.7685285,8.25017774 14.5012233,8.93624941 L13.52271,9.91473981 C13.168356,10.2691167 13.4193244,10.8749884 13.9204828,10.8749884 L17.0624736,10.8749884 C17.3731342,10.8749884 17.6249723,10.6231503 17.6249723,10.3124897 L17.6249723,7.17049892 C17.6249723,6.66934045 17.0191006,6.41837211 16.6647466,6.77272612 L15.827682,7.60979078 C14.7841435,6.612555 13.3698631,6 11.8124861,6 C8.97218377,6 6.60779427,8.03727236 6.10068488,10.7302438 C6.06818374,10.9029577 6.20169019,11.0624879 6.37740236,11.0624879 L7.72045488,11.0624879 Z M11.8124861,17.6249723 C14.6527885,17.6249723 17.017178,15.5876999 17.5243103,12.8947742 C17.5568114,12.7220604 17.4233279,12.5625301 17.2475928,12.5625301 L15.9045174,12.5625301 C15.7749477,12.5625301 15.6629561,12.6512903 15.631462,12.7769919 C15.1985102,14.5044505 13.6306276,15.7483517 11.8161482,15.7499996 C10.8073768,15.7509152 9.85644375,15.3748403 9.12374896,14.6887458 L10.1022623,13.7102325 C10.4566163,13.3558556 10.2056479,12.7499839 9.70448946,12.7499839 L6.56249866,12.7499839 C6.25183808,12.7499839 6,13.001822 6,13.3124826 L6,16.4544734 C6,16.9556318 6.60587166,17.2066002 6.96022568,16.8522462 L7.79729033,16.0151815 C8.8408288,17.0124173 10.2551092,17.6249723 11.8124861,17.6249723 Z" id="sync-alt"></path>
        </g>
    </g>
</svg>