<?xml version="1.0" encoding="UTF-8"?>
<svg width="85px" height="60px" viewBox="0 0 85 60" version="1.1" xmlns="http://www.w3.org/2000/svg" xmlns:xlink="http://www.w3.org/1999/xlink">
    <title></title>
    <g id="Progress-stepper" stroke="none" stroke-width="1" fill="none" fill-rule="evenodd">
        <g id="Progress-stepper-/-1.-Horizontal-items-/-In-progress-/-1.-Default">
            <text id="Description" font-family="RedHatDisplay-Medium, Red Hat Display" font-size="16" font-weight="500" line-spacing="24" fill="#151515">
                <tspan x="0" y="52">Description</tspan>
            </text>
            <g id="ðŸ“-Padding" transform="translate(0.000000, 28.000000)" fill="#92D400" fill-opacity="0.9" stroke="#7FB300">
                <g id="Spacer-/-Vertical-/-2.-pf-global--spacer--sm-(8px)">
                    <rect id="Rectangle-Copy" x="0.5" y="0.5" width="84" height="7"></rect>
                </g>
            </g>
            <g id="Progress-steps-/-Item-/-1.-Default">
                <circle id="Oval" stroke="#D2D2D2" stroke-width="2" fill="#FAFAFA" cx="14" cy="14" r="13"></circle>
                <g id="Icons/1.-Size-md/Status/check-circle" transform="translate(2.000000, 2.000000)" fill="#0066CC">
                    <path d="M12.0015625,4 C7.5890625,4 4,7.590625 4,12 C4,16.4109375 7.590625,20 12.0015625,20 C16.4125,20 20,16.4109375 20,12 C20,7.5890625 16.4125,4 12.0015625,4 Z M12,18 C8.690625,18 6,15.3109375 6,12 C6,8.6921875 8.690625,6 12,6 C15.3078125,6 18,8.690625 18,12 C18,15.309375 15.3078125,18 12,18 Z M12,7.5 C14.4859375,7.5 16.5,9.5140625 16.5,12 C16.5,14.4859375 14.4859375,16.5 12,16.5 C9.5140625,16.5 7.5,14.4859375 7.5,12 C7.5,9.5140625 9.5140625,7.5 12,7.5" id="pficon-resources-full"></path>
                </g>
            </g>
        </g>
    </g>
</svg>