<?xml version="1.0" encoding="UTF-8"?><svg version="1.1" width="85px" height="60px" viewBox="0 0 85.0 60.0" xmlns="http://www.w3.org/2000/svg" xmlns:xlink="http://www.w3.org/1999/xlink"><defs><clipPath id="i0"><path d="M85,0 L85,8 L0,8 L0,0 L85,0 Z"></path></clipPath><clipPath id="i1"><path d="M14,0 C21.7319865,0 28,6.2680135 28,14 C28,21.7319865 21.7319865,28 14,28 C6.2680135,28 0,21.7319865 0,14 C0,6.2680135 6.2680135,0 14,0 Z"></path></clipPath><clipPath id="i2"><path d="M8.0015625,0 C12.4125,0 16,3.5890625 16,8 C16,12.4109375 12.4125,16 8.0015625,16 C3.590625,16 0,12.4109375 0,8 C0,3.590625 3.5890625,0 8.0015625,0 Z M8,2 C4.690625,2 2,4.6921875 2,8 C2,11.3109375 4.690625,14 8,14 C11.3078125,14 14,11.309375 14,8 C14,4.690625 11.3078125,2 8,2 Z M8,3.5 C10.4859375,3.5 12.5,5.5140625 12.5,8 C12.5,10.4859375 10.4859375,12.5 8,12.5 C5.5140625,12.5 3.5,10.4859375 3.5,8 C3.5,5.5140625 5.5140625,3.5 8,3.5 Z"></path></clipPath></defs><g transform="translate(0.0 36.0)"><text transform="translate(0.0 16.0)" font-family="RedHatDisplay-Medium, Red Hat Display" font-size="16.0" font-weight="500" fill="#151515" text-anchor="left" line-spacing="24.0">Description</text></g><g transform="translate(0.0 28.0)"><g clip-path="url(#i0)"><polygon points="0,0 85,0 85,8 0,8 0,0" stroke="none" fill="rgba(146, 211, 0, 0.9)"></polygon></g><g clip-path="url(#i0)"><polygon points="0,0 85,0 85,8 0,8 0,0 0,0" stroke="#7EB200" stroke-width="2" fill="none" stroke-miterlimit="5"></polygon></g></g><g clip-path="url(#i1)"><polygon points="0,0 28,0 28,28 0,28 0,0" stroke="none" fill="#FAFAFA"></polygon><path d="M14,28 C21.7319865,28 28,21.7319865 28,14 C28,6.2680135 21.7319865,0 14,0 C6.2680135,0 0,6.2680135 0,14 C0,21.7319865 6.2680135,28 14,28 Z" stroke="#D2D2D2" stroke-width="4" fill="none" stroke-miterlimit="5"></path></g><g transform="translate(2.0 2.0)"><g transform="translate(4.0 4.0)"><g clip-path="url(#i2)"><polygon points="0,0 16,0 16,16 0,16 0,0" stroke="none" fill="#0066CC"></polygon></g></g></g></svg>