<svg xmlns="http://www.w3.org/2000/svg" width="24" height="24" viewBox="0 0 24 24">
  <path fill="#151515" fill-rule="evenodd" d="M12,6 C8.68664062,6 6,8.68664062 6,12 C6,15.3133594 8.68664062,18 12,18 C15.3133594,18 18,15.3133594 18,12 C18,8.68664062 15.3133594,6 12,6 Z M14.8955859,14.5580859 C14.8955859,14.8098047 14.6919141,14.9866406 14.4589453,14.9866406 C14.3383594,14.9866406 14.25,14.9410547 14.1268359,14.8393359 L11.0273438,12.3398438 L9.99105469,14.9383594 L9.09644531,14.9383594 L11.7160547,8.63367188 C11.7830859,8.47019531 11.9303906,8.38183594 12.0964453,8.38183594 C12.2625,8.38183594 12.3991406,8.4675 12.4660547,8.63367188 L14.8580859,14.38125 C14.8875,14.4508594 14.8981641,14.5151953 14.8955859,14.5580859 Z M12.1018359,9.66433594 L13.6553906,13.5 L11.3116406,11.6544141 L12.1018359,9.66433594 Z"/>
</svg>
