<svg xmlns="http://www.w3.org/2000/svg" width="24" height="24" viewBox="0 0 24 24">
  <path fill="#151515" fill-rule="evenodd" d="M9.48851149,11.9263259 L7.55844156,12.6216306 C7.58241758,12.9333189 7.63036963,13.2330192 7.71428571,13.5327195 L9.54845155,12.8613909 C9.48851149,12.5616906 9.46453546,12.2380142 9.48851149,11.9263259 M18,9.79245979 C17.8681319,9.51673551 17.7122877,9.25299925 17.5324675,9.001251 L15.6023976,9.69655569 C15.8301698,9.92432792 16.00999,10.1880642 16.1658342,10.4637885 L18,9.79245979 Z M13.7682318,9.25299925 C14.1638362,9.44480744 14.5114885,9.69655569 14.8111888,9.99625599 L16.7412587,9.3009513 C16.2137862,8.55769456 15.4825175,7.92232992 14.5954046,7.51473751 C11.8501499,6.23202023 8.56543457,7.43082143 7.28271728,10.1760762 C6.86313686,11.0631891 6.70729271,12.010242 6.79120879,12.9333189 L8.72127872,12.2380142 C8.75724276,11.8184338 8.85314685,11.3988534 9.04495504,11.003249 C9.84815185,9.19305919 11.97003,8.41383841 13.7682318,9.25299925 M7.83416583,13.4967555 L6,14.1680842 C6.16783217,14.8394128 6.45554446,15.4627895 6.86313686,16.026226 L8.78121878,15.3309213 C8.3016983,14.8154368 7.96603397,14.1800722 7.83416583,13.4967555 M15.8181818,12.7654868 C15.7822178,13.1850672 15.6863137,13.6046476 15.4945055,14.000252 C14.6553447,15.7864658 12.5214785,16.5656866 10.7352647,15.7265257 C10.3396603,15.5347175 9.98001998,15.2829693 9.69230769,14.983269 L7.77422577,15.6785737 C8.3016983,16.4218304 9.03296703,17.0571951 9.92007992,17.4647875 C12.6653347,18.7475047 15.95005,17.5487035 17.2327672,14.8034488 C17.6523477,13.9163359 17.7962038,12.969283 17.7242757,12.0581941 L15.8181818,12.7654868 Z M16.2857143,10.4158364 L14.4515485,11.0871651 C14.7872128,11.6985537 14.955045,12.3938584 14.8951049,13.1011511 L16.8131868,12.4058464 C16.7772228,11.7105417 16.5854146,11.039213 16.2857143,10.4158364"/>
</svg>
