<svg xmlns="http://www.w3.org/2000/svg" width="24" height="24" viewBox="0 0 24 24">
  <path fill="#151515" fill-rule="evenodd" d="M17.94375,15.8214113 L14.7832031,12.6620598 C14.7105469,12.5894041 14.5910156,12.5894041 14.5183594,12.6620598 L13.8550781,13.3253361 L13.3242188,12.7944807 L15.0480469,11.0706654 C15.1207031,10.9980097 15.1207031,10.8784793 15.0480469,10.8058236 L14.915625,10.6734027 L15.3128906,10.2749682 C15.3855469,10.2023125 15.3855469,10.0827821 15.3128906,10.0101264 L13.9886719,8.68474566 C13.9160156,8.61208995 13.7964844,8.61208995 13.7238281,8.68474566 L13.3253906,9.08318019 L13.1929687,8.9507593 C13.1203125,8.87810359 13.0007812,8.87810359 12.928125,8.9507593 L11.2042969,10.6734027 L10.6734375,10.1425473 L11.3367187,9.479271 C11.409375,9.40661529 11.409375,9.28708493 11.3367187,9.21442922 L8.17617187,6.05507772 C8.13984375,6.01874986 8.09179688,6 8.04375,6 C7.99570313,6 7.94765625,6.01874986 7.91132812,6.05507772 L6.05507812,7.91131391 C6.01875,7.94764177 6,7.99568828 6,8.0437348 C6,8.09178131 6.01875,8.13982784 6.05507812,8.17615569 L9.215625,11.3366791 C9.28828125,11.4093348 9.4078125,11.4093348 9.48046875,11.3366791 L10.14375,10.6734027 L10.6746094,11.2042582 L10.0113281,11.8675345 C9.93867188,11.9401902 9.93867188,12.0597206 10.0113281,12.1323763 L11.8675781,13.9886124 C11.9402344,14.0612682 12.0597656,14.0612682 12.1324219,13.9886124 L12.7957031,13.3253361 L13.3265625,13.8561916 L12.6632813,14.5194679 C12.590625,14.5921236 12.590625,14.7116539 12.6632813,14.7843097 L15.8226563,17.9436612 C15.8589844,17.9799891 15.9082031,18.0010826 15.95625,18 C16.0042969,18 16.0511719,17.9799891 16.0875,17.9436612 L17.94375,16.087425 C17.9800781,16.0510971 18,16.0030506 18,15.9550041 C18,15.9069576 17.9800781,15.858911 17.94375,15.8214113 Z M9.34804687,10.408561 L6.98320313,8.0437348 L8.04375,6.98319581 L10.4085937,9.34802197 L9.34804687,10.408561 Z M15.9550781,17.0155431 L13.5902344,14.6507169 L14.6507813,13.5901779 L17.015625,15.9550041 L15.9550781,17.0155431 Z M8.02148438,16.7717949 C7.80234375,16.9909339 7.44609375,16.9909339 7.22578125,16.7717949 C7.00546875,16.5526559 7.00664063,16.1964085 7.22578125,15.9760977 C7.34414063,15.8577392 7.5,15.8038333 7.6546875,15.8120364 L8.55,14.9167305 L7.22460938,13.5913498 C7.22460938,13.5913498 8.81484375,11.9976116 10.4074219,13.5890061 C12,15.1804005 10.4074219,16.7729667 10.4074219,16.7729667 L9.08085937,15.447586 L8.18554688,16.3428918 C8.19375,16.4975782 8.13984375,16.6546082 8.02148438,16.7717949 Z"/>
</svg>
