<svg xmlns="http://www.w3.org/2000/svg" width="24" height="24" viewBox="0 0 24 24">
  <path fill="#151515" fill-rule="evenodd" d="M9.77663284,16.7461544 C14.2994874,16.7461544 16.7740832,12.9999628 16.7740832,9.74872697 C16.7740832,9.64213695 16.7740832,9.53550116 16.7664615,9.42891114 C17.2461509,9.0786541 17.6649578,8.6446494 17.9999256,8.15736113 C17.5583221,8.34769881 17.0786326,8.48477582 16.5836997,8.53805938 C17.0938304,8.23350994 17.4821504,7.75382053 17.6649121,7.18273882 C17.1927986,7.4644688 16.6598257,7.67004998 16.1040103,7.77663999 C15.6547392,7.29695059 15.0151763,7 14.3070404,7 C12.944121,7 11.8476652,8.10405468 11.8476652,9.45937524 C11.8476652,9.64973581 11.8705075,9.84007349 11.9085705,10.0228123 C9.86800225,9.91619941 8.04819,8.94159999 6.83754531,7.44922531 C6.6243195,7.81470295 6.50253176,8.23348705 6.50253176,8.6903341 C6.50253176,9.5431229 6.93651358,10.2969205 7.59894181,10.738547 C7.19542409,10.7233493 6.81468006,10.6091375 6.48728827,10.4263987 L6.48728827,10.4568399 C6.48728827,11.652264 7.33247821,12.642084 8.45937524,12.8705304 C8.25381695,12.923814 8.03299228,12.9542781 7.8121905,12.9542781 C7.65227115,12.9542781 7.5,12.9390575 7.34769881,12.9162151 C7.65989289,13.8908375 8.56598814,14.5989504 9.64720047,14.6218156 C8.80201053,15.2842439 7.74361767,15.6725639 6.59390117,15.6725639 C6.38832,15.6725639 6.19798232,15.6649421 6,15.6421226 C7.08883407,16.3425909 8.38322643,16.7461544 9.77663284,16.7461544 Z"/>
</svg>
