<?xml version="1.0" encoding="UTF-8"?>
<svg width="107px" height="36px" viewBox="0 0 107 36" version="1.1" xmlns="http://www.w3.org/2000/svg" xmlns:xlink="http://www.w3.org/1999/xlink">
    <title></title>
    <g id="Buttons" stroke="none" stroke-width="1" fill="none" fill-rule="evenodd">
        <g id="Button-/-8.-Link-button-with-left-icon-/--No-padding-/-Disabled-">
            <rect id="Background" x="-3" y="0" width="110" height="36" rx="3"></rect>
            <g id="Icons/1.-Size-md-(16px)/Actions/plus-circle" transform="translate(0.000000, 10.000000)" fill="#6A6E73">
                <path d="M7.74998152,15.499963 C12.0312213,15.499963 15.499963,12.0312213 15.499963,7.74998152 C15.499963,3.46874173 12.0312213,0 7.74998152,0 C3.46874173,0 0,3.46874173 0,7.74998152 C0,12.0312213 3.46874173,15.499963 7.74998152,15.499963 Z M8.62497944,12.2499708 L6.87498361,12.2499708 C6.66874631,12.2499708 6.4999845,12.081209 6.4999845,11.8749717 L6.4999845,8.99997854 L3.62499136,8.99997854 C3.41875406,8.99997854 3.24999225,8.83121674 3.24999225,8.62497944 L3.24999225,6.87498361 C3.24999225,6.66874631 3.41875406,6.4999845 3.62499136,6.4999845 L6.4999845,6.4999845 L6.4999845,3.62499136 C6.4999845,3.41875406 6.66874631,3.24999225 6.87498361,3.24999225 L8.62497944,3.24999225 C8.83121674,3.24999225 8.99997854,3.41875406 8.99997854,3.62499136 L8.99997854,6.4999845 L11.8749717,6.4999845 C12.081209,6.4999845 12.2499708,6.66874631 12.2499708,6.87498361 L12.2499708,8.62497944 C12.2499708,8.83121674 12.081209,8.99997854 11.8749717,8.99997854 L8.99997854,8.99997854 L8.99997854,11.8749717 C8.99997854,12.081209 8.83121674,12.2499708 8.62497944,12.2499708 Z" id="plus-circle"></path>
            </g>
            <text id="âœï¸-Label" font-family="RedHatText-Regular, Red Hat Text" font-size="16" font-weight="normal" line-spacing="24" fill="#6A6E73">
                <tspan x="24" y="22">Link button</tspan>
            </text>
            <g id="ðŸ“-Padding" fill-opacity="0.9">
                <g id="Spacer-/-Vertical-/-8.-pf-global--spacer--form-element-(6px)" transform="translate(0.000000, 0.000000)" fill="#F3D53C" stroke="#CBB534">
                    <rect id="Rectangle" x="0.5" y="0.5" width="106" height="5"></rect>
                </g>
                <g id="Spacer-/-Vertical-/-8.-pf-global--spacer--form-element-(6px)" transform="translate(0.000000, 30.000000)" fill="#F3D53C" stroke="#CBB534">
                    <rect id="Rectangle" x="0.5" y="0.5" width="106" height="5"></rect>
                </g>
                <g id="Spacer-/-Horizontal-/-1.-pf-global--spacer--xs-(4px)" transform="translate(20.000000, 6.000000)" fill="#EC7A08" stroke="#C77000">
                    <rect id="Rectangle" x="0.5" y="0.5" width="3" height="23"></rect>
                </g>
            </g>
        </g>
    </g>
</svg>