<?xml version="1.0" encoding="UTF-8"?><svg version="1.1" width="140px" height="88px" viewBox="0 0 140.0 88.0" xmlns="http://www.w3.org/2000/svg" xmlns:xlink="http://www.w3.org/1999/xlink"><defs><clipPath id="i0"><path d="M140,0 L140,36 L0,36 L0,0 L140,0 Z"></path></clipPath><clipPath id="i1"><path d="M7.74998152,0 C12.0301837,0 15.499963,3.46977933 15.499963,7.74998152 C15.499963,12.0301837 12.0301837,15.499963 7.74998152,15.499963 C3.46977933,15.499963 0,12.0301837 0,7.74998152 C0,3.46977933 3.46977933,0 7.74998152,0 Z M11.8964255,4.68935039 C11.701205,4.49406888 11.3845859,4.49406888 11.1893044,4.68935039 L6.4999845,9.37867027 L4.31065867,7.18931391 C4.11540767,6.99406291 3.79878855,6.99406291 3.60353755,7.18931391 L2.89641643,7.89640451 C2.70119595,8.09165551 2.70119595,8.40827463 2.89641643,8.60352563 L6.14640869,11.8535179 C6.3416902,12.0487689 6.6582788,12.0487689 6.85356032,11.8535484 L12.6035466,6.10356211 C12.7987671,5.90831111 12.7987671,5.59169199 12.6035466,5.39644099 Z"></path></clipPath><clipPath id="i2"><path d="M140,0 L140,4 L0,4 L0,0 L140,0 Z"></path></clipPath></defs><g transform="translate(0.0 67.0)"><text transform="translate(0.0 14.0)" font-family="RedHatText-Regular, Red Hat Text" font-size="14.0" font-weight="normal" fill="#1E4F17" text-anchor="left" line-spacing="21.0">Success input</text></g><g transform="translate(0.0 27.0)"><g clip-path="url(#i0)"><polygon points="0,0 140,0 140,36 0,36 0,0" stroke="none" fill="#FFFFFF"></polygon><g transform="translate(1.0 0.0)"><polygon points="0,0 0,36 -1,36 -1,0 0,0 0,0" stroke="none" fill="#EDEDED"></polygon></g><g transform="translate(-1.0 0.0)"><polygon points="141,0 141,36 140,36 140,0 141,0 141,0" stroke="none" fill="#EDEDED"></polygon></g><g transform="translate(0.0 1.0)"><polygon points="140,0 0,0 0,-1 140,-1 140,0 140,0" stroke="none" fill="#EDEDED"></polygon></g><g transform="translate(0.0 -2.0)"><polygon points="140,36 140,38 0,38 0,36 140,36 140,36" stroke="none" fill="#3E8634"></polygon></g></g><g transform="translate(108.0 6.0)"><g transform="translate(4.0 4.0)"><g clip-path="url(#i1)"><polygon points="0,0 15.499963,0 15.499963,15.499963 0,15.499963 0,0" stroke="none" fill="#3E8634"></polygon></g></g></g><g transform="translate(8.0 6.0)"><text transform="translate(0.0 16.0)" font-family="RedHatText-Regular, Red Hat Text" font-size="16.0" font-weight="normal" fill="#151515" text-anchor="left" line-spacing="24.0">Text box</text></g></g><g transform="translate(0.0 4.0)"><text transform="translate(0.0 14.0)" font-family="RedHatText-Medium, Red Hat Text" font-size="14.0" font-weight="400" fill="#151515" text-anchor="left" line-spacing="18.20000076293945">Label</text></g><g transform="translate(0.0 63.0)"><g transform=""><g transform=""><g clip-path="url(#i2)"><polygon points="0,0 140,0 140,4 0,4 0,0" stroke="none" fill="rgba(236, 121, 8, 0.9)"></polygon></g><g clip-path="url(#i2)"><polygon points="0,0 140,0 140,4 0,4 0,0 0,0" stroke="#C67000" stroke-width="2" fill="none" stroke-miterlimit="5"></polygon></g></g></g></g></svg>