<svg xmlns="http://www.w3.org/2000/svg" xmlns:xlink="http://www.w3.org/1999/xlink" width="412" height="41" viewBox="0 0 412 41">
  <defs>
    <rect id="2.-background-expandable-a" width="412" height="42" x="0" y="0"/>
    <filter id="2.-background-expandable-b" width="100.2%" height="102.4%" x="-.1%" y="-1.2%" filterUnits="objectBoundingBox">
      <feOffset dy="-1" in="SourceAlpha" result="shadowOffsetInner1"/>
      <feComposite in="shadowOffsetInner1" in2="SourceAlpha" k2="-1" k3="1" operator="arithmetic" result="shadowInnerInner1"/>
      <feColorMatrix in="shadowInnerInner1" values="0 0 0 0 0.823529412   0 0 0 0 0.823529412   0 0 0 0 0.823529412  0 0 0 1 0"/>
    </filter>
  </defs>
  <g fill="none" fill-rule="evenodd">
    <use fill="#FFF" xlink:href="#2.-background-expandable-a"/>
    <use fill="#000" filter="url(#2.-background-expandable-b)" xlink:href="#2.-background-expandable-a"/>
    <rect width="15" height="15" x="8.5" y="4.5" fill="#FFF" stroke="#6A6E73" transform="translate(48 9)"/>
    <path fill="#6A6E73" d="M10.985919,16.7827983 L15.2359089,12.5328085 C15.5296704,12.239047 15.5296704,11.7640725 15.2327961,11.470311 L10.9828062,7.22032113 C10.692188,6.92655962 10.2171831,6.92655962 9.92342157,7.22032113 L9.22029824,7.93281333 C8.92656725,8.22343153 8.92656725,8.6984365 9.22029824,8.99219801 L12.2328033,12.0046725 L9.22029824,15.0171775 C8.92656725,15.3077957 8.92656725,15.7828007 9.22029824,16.0765622 L9.92656487,16.7827983 C10.2171831,17.0765598 10.692188,17.0765598 10.985919,16.7827983 Z" transform="translate(24 9)"/>
    <g fill-opacity=".9">
      <rect width="47" height="41" x=".5" y=".5" fill="#582FC0" stroke="#5431A5"/>
      <rect width="340" height="7" x=".5" y=".5" fill="#92D400" stroke="#7FB300" transform="translate(48 4)"/>
      <rect width="340" height="3" x=".5" y=".5" fill="#EC7A08" stroke="#C77000" transform="translate(48)"/>
      <rect width="340" height="7" x=".5" y=".5" fill="#92D400" stroke="#7FB300" transform="translate(48 34)"/>
      <rect width="23" height="41" x=".5" y=".5" fill="#007A87" stroke="#09707B" transform="translate(389)"/>
    </g>
  </g>
</svg>
