<?xml version="1.0" encoding="UTF-8"?><svg version="1.1" width="108px" height="36px" viewBox="0 0 108.0 36.0" xmlns="http://www.w3.org/2000/svg" xmlns:xlink="http://www.w3.org/1999/xlink"><defs><clipPath id="i0"><path d="M121,0 C122.656854,-3.04359188e-16 124,1.34314575 124,3 L124,49 C124,50.6568542 122.656854,52 121,52 L3,52 C1.34314575,52 -2.46162913e-15,50.6568542 0,49 L0,3 C-2.02906125e-16,1.34314575 1.34314575,1.63662682e-15 3,0 L121,0 Z"></path></clipPath><clipPath id="i1"><path d="M105,0 C106.656854,-3.04359188e-16 108,1.34314575 108,3 L108,33 C108,34.6568542 106.656854,36 105,36 L3,36 C1.34314575,36 1.53517375e-15,34.6568542 0,33 L0,3 C-2.02906125e-16,1.34314575 1.34314575,-5.83819232e-16 3,0 L105,0 Z"></path></clipPath></defs><g transform="translate(-8.0 -8.0)"><g clip-path="url(#i0)"><polygon points="0,0 124,0 124,52 0,52 0,0" stroke="none" fill="rgba(0, 102, 204, 0.2)"></polygon></g><g clip-path="url(#i0)"><path d="M3,0 L121,0 C122.656854,-3.04359188e-16 124,1.34314575 124,3 L124,49 C124,50.6568542 122.656854,52 121,52 L3,52 C1.34314575,52 -2.46162913e-15,50.6568542 0,49 L0,3 C-2.02906125e-16,1.34314575 1.34314575,1.63662682e-15 3,0 Z" stroke="#0066CC" stroke-width="2" fill="none" stroke-miterlimit="5"></path></g></g><g clip-path="url(#i1)"><polygon points="0,0 108,0 108,36 0,36 0,0" stroke="none" fill="#003F80"></polygon></g><g transform="translate(40.0 6.0)"><text transform="translate(0.0 16.0)" font-family="RedHatText-Regular, Red Hat Text" font-size="16.0" font-weight="normal" fill="#FFFFFF" text-anchor="left" line-spacing="24.0">Button</text></g><g transform="translate(16.0 10.0)"><path d="M0,8 C0,12.418278 3.581722,16 8,16 C12.418278,16 16,12.418278 16,8 C16,3.581722 12.418278,0 8,0" stroke="#FFFFFF" stroke-width="2" fill="none" stroke-linecap="round" stroke-miterlimit="10"></path></g></svg>