<?xml version="1.0" encoding="UTF-8"?>
<svg width="114px" height="40px" viewBox="0 0 114 40" version="1.1" xmlns="http://www.w3.org/2000/svg" xmlns:xlink="http://www.w3.org/1999/xlink">
    <title></title>
    <g id="Dropdowns" stroke="none" stroke-width="1" fill="none" fill-rule="evenodd">
        <g id="Dropdowns-/-3.-Menu-Item-/-11.-Favorites-/-Single-item-/-1.-Default">
            <rect fill="#FFFFFF" x="0" y="0" width="114" height="40"></rect>
            <rect id="Background" fill="#FFFFFF" x="0" y="0" width="114" height="40"></rect>
            <g id="Button-/-6.-Icon-button-/-Default" transform="translate(72.000000, 0.000000)">
                <g id="ðŸ–¼-Icon" transform="translate(15.000000, 14.000000)">
                    <g fill="#151515" id="star">
                        <path d="M3.20624413,11.9135414 L6.26952266,10.3033844 L9.33280118,11.9135414 C9.87655446,12.1994828 10.5257534,11.740118 10.4202849,11.1236949 L9.83434875,7.71354683 L12.3116912,5.29949008 C12.7570026,4.86589736 12.5109094,4.1088725 11.8968438,4.01981479 L8.4726424,3.5206018 L6.94218188,0.417475048 C6.66795921,-0.135639478 5.8734207,-0.142666133 5.59686343,0.417475048 L4.06640291,3.5206018 L0.642201479,4.01981479 C0.0281358651,4.1088725 -0.217957298,4.86589736 0.22735414,5.29949008 L2.70469656,7.71354683 L2.11876046,11.1236949 C2.01329196,11.740118 2.66249085,12.2018174 3.20624413,11.9135414 Z"></path>
                    </g>
                    <rect id="ðŸŽ¨-Color" fill="#D2D2D2" x="-7" y="-8" width="26" height="28"></rect>
                </g>
                <g id="ðŸ“-Padding" fill-opacity="0.9">
                    <g id="Spacer-/-Horizontal-/-3.-pf-global--spacer--md-(16px)" fill="#92D400" stroke="#7FB300">
                        <rect id="Rectangle-Copy" x="0.5" y="0.5" width="7" height="35"></rect>
                    </g>
                    <g id="Spacer-/-Horizontal-/-3.-pf-global--spacer--md-(16px)" transform="translate(32.000000, 0.000000)" fill="#92D400" stroke="#7FB300">
                        <rect id="Rectangle-Copy" x="0.5" y="0.5" width="7" height="35"></rect>
                    </g>
                    <g id="Spacer-/-Vertical-/-8.-pf-global--spacer--form-element-(6px)" transform="translate(8.000000, 0.000000)" fill="#F3D53C" stroke="#CBB534">
                        <rect id="Rectangle" x="0.5" y="0.5" width="23" height="5"></rect>
                    </g>
                    <g id="Spacer-/-Vertical-/-8.-pf-global--spacer--form-element-(6px)" transform="translate(8.000000, 30.000000)" fill="#F3D53C" stroke="#CBB534">
                        <rect id="Rectangle" x="0.5" y="0.5" width="23" height="5"></rect>
                    </g>
                </g>
            </g>
            <text id="âœï¸-Label" font-family="RedHatText-Regular, Red Hat Text" font-size="16" font-weight="normal" line-spacing="24" fill="#151515">
                <tspan x="16" y="24">Option</tspan>
            </text>
            <g id="ðŸ“-Padding" fill-opacity="0.9">
                <g id="Spacer-/-Vertical-/-2.-pf-global--spacer--sm-(8px)" transform="translate(16.000000, 0.000000)" fill="#92D400" stroke="#7FB300">
                    <rect id="Rectangle-Copy" x="0.5" y="0.5" width="55" height="7"></rect>
                </g>
                <g id="Spacer-/-Vertical-/-2.-pf-global--spacer--sm-(8px)" transform="translate(16.000000, 32.000000)" fill="#92D400" stroke="#7FB300">
                    <rect id="Rectangle-Copy" x="0.5" y="0.5" width="55" height="7"></rect>
                </g>
                <g id="Spacer-/-Horizontal-/-3.-pf-global--spacer--md-(16px)" fill="#3F9C35" stroke="#418A38">
                    <rect id="Rectangle-Copy-2" x="0.5" y="0.5" width="15" height="39"></rect>
                </g>
            </g>
        </g>
    </g>
</svg>