<?xml version="1.0" encoding="UTF-8"?><svg version="1.1" width="147px" height="40px" viewBox="0 0 147.0 40.0" xmlns="http://www.w3.org/2000/svg" xmlns:xlink="http://www.w3.org/1999/xlink"><defs><clipPath id="i0"><path d="M147,0 L147,40 L0,40 L0,0 L147,0 Z"></path></clipPath><clipPath id="i1"><path d="M7.46248458,0.556633398 C7.83122759,-0.190221511 8.89061228,-0.180852637 9.25624251,0.556633398 L11.2968565,4.69413574 L15.8624584,5.35975305 C16.6812126,5.47849666 17.0093368,6.48786315 16.4155882,7.06598677 L13.112465,10.2847291 L13.8937131,14.8315933 C14.0343378,15.6534907 13.1687393,16.265977 12.4437349,15.8847219 L8.35936354,13.7378459 L4.27499218,15.8847219 C3.5499878,16.2690898 2.68438928,15.6534907 2.82501394,14.8315933 L3.60626208,10.2847291 L0.303138854,7.06598677 C-0.290609731,6.48786315 0.0375144868,5.47849666 0.856268638,5.35975305 L5.42187055,4.69413574 Z"></path></clipPath></defs><rect x="0px" y="0px" width="147px" height="40px" fill="#FFFFFF"></rect><g transform=""><g clip-path="url(#i0)"><polygon points="0,0 147,0 147,40 0,40 0,0" stroke="none" fill="#FFFFFF"></polygon></g></g><g transform="translate(16.0 8.0)"><text transform="translate(0.0 16.0)" font-family="RedHatText-Regular, Red Hat Text" font-size="16.0" font-weight="normal" fill="#151515" text-anchor="left" line-spacing="24.0">Option</text></g><g transform="translate(107.0 8.0)"><g transform="translate(4.0 4.000000000000028)"><g clip-path="url(#i1)"><polygon points="4.4408921e-16,1.66533454e-15 16.7187271,1.66533454e-15 16.7187271,16.0019285 4.4408921e-16,16.0019285 4.4408921e-16,1.66533454e-15" stroke="none" fill="#D2D2D2"></polygon></g></g></g><g transform="translate(83.0 10.0)"><text transform="translate(0.3279999999999994 14.0)" font-family="RedHatText-Regular, Red Hat Text" font-size="14.0" font-weight="normal" fill="#696E73" text-anchor="right" line-spacing="21.0">2</text></g></svg>