<?xml version="1.0" encoding="UTF-8"?>
<svg width="147px" height="40px" viewBox="0 0 147 40" version="1.1" xmlns="http://www.w3.org/2000/svg" xmlns:xlink="http://www.w3.org/1999/xlink">
    <title></title>
    <g id="Dropdowns" stroke="none" stroke-width="1" fill="none" fill-rule="evenodd">
        <g id="Dropdowns-/-3.-Menu-Item-/-11.-Favorites-/-Single-item-/-7.-With-number-and-Icon">
            <rect fill="#FFFFFF" x="0" y="0" width="147" height="40"></rect>
            <rect id="Background" fill="#FFFFFF" x="0" y="-3.55271368e-15" width="147" height="40"></rect>
            <text id="Option" font-family="RedHatText-Regular, Red Hat Text" font-size="16" font-weight="normal" line-spacing="24" fill="#151515">
                <tspan x="16" y="24">Option</tspan>
            </text>
            <g id="Icons/1.-Size-md-(16px)/Actions/flag" transform="translate(111.000000, 12.000000)" fill="#D2D2D2">
                <path d="M4.27499218,15.8847219 L8.35936354,13.7378459 L12.4437349,15.8847219 C13.1687393,16.265977 14.0343378,15.6534907 13.8937131,14.8315933 L13.112465,10.2847291 L16.4155882,7.06598677 C17.0093368,6.48786315 16.6812126,5.47849666 15.8624584,5.35975305 L11.2968565,4.69413574 L9.25624251,0.556633398 C8.89061228,-0.180852637 7.83122759,-0.190221511 7.46248458,0.556633398 L5.42187055,4.69413574 L0.856268638,5.35975305 C0.0375144868,5.47849666 -0.290609731,6.48786315 0.303138854,7.06598677 L3.60626208,10.2847291 L2.82501394,14.8315933 C2.68438928,15.6534907 3.5499878,16.2690898 4.27499218,15.8847219 Z" id="star"></path>
            </g>
            <text id="Number" font-family="RedHatText-Regular, Red Hat Text" font-size="14" font-weight="normal" line-spacing="21" fill="#6A6E73">
                <tspan x="83.328" y="24">2</tspan>
            </text>
        </g>
    </g>
</svg>