<?xml version="1.0" encoding="UTF-8"?><svg version="1.1" width="48px" height="40px" viewBox="0 0 48.0 40.0" xmlns="http://www.w3.org/2000/svg" xmlns:xlink="http://www.w3.org/1999/xlink"><defs><clipPath id="i0"><path d="M1,0 L1,19 L0,19 L0,0 L1,0 Z"></path></clipPath><clipPath id="i1"><path d="M16,0 L16,1 L0,1 L0,0 L16,0 Z"></path></clipPath></defs><g transform="translate(16.0 0.0)"><g clip-path="url(#i0)"><polygon points="0,0 1,0 1,19 0,19 0,0" stroke="none" fill="#FFFFFF"></polygon><polygon points="0,0 1,0 1,19 0,19 0,0 0,0" stroke="#D2D2D2" stroke-width="2" fill="none" stroke-miterlimit="5"></polygon></g></g><g transform="translate(16.0 18.0)"><g clip-path="url(#i1)"><polygon points="0,0 16,0 16,1 0,1 0,0" stroke="none" fill="#FFFFFF"></polygon><polygon points="0,0 16,0 16,1 0,1 0,0 0,0" stroke="#D2D2D2" stroke-width="2" fill="none" stroke-miterlimit="5"></polygon></g></g></svg>