<?xml version="1.0" encoding="UTF-8"?><svg version="1.1" width="290px" height="37px" viewBox="0 0 290.0 37.0" xmlns="http://www.w3.org/2000/svg" xmlns:xlink="http://www.w3.org/1999/xlink"><defs><clipPath id="i0"><path d="M266,0 L266,37 L0,37 L0,0 L266,0 Z"></path></clipPath><clipPath id="i1"><path d="M1,0 L1,37 L0,37 L0,0 L1,0 Z"></path></clipPath><clipPath id="i2"><path d="M242,0 L242,8 L0,8 L0,0 L242,0 Z"></path></clipPath><clipPath id="i3"><path d="M24,0 L24,21 L0,21 L0,0 L24,0 Z"></path></clipPath><clipPath id="i4"><path d="M24,0 L24,37 L0,37 L0,0 L24,0 Z"></path></clipPath></defs><rect x="0px" y="0px" width="290px" height="37px" fill="#202426"></rect><g transform="translate(24.0 0.0)"><g clip-path="url(#i0)"><polygon points="0,0 266,0 266,37 0,37 0,0" stroke="none" fill="#3B3F41"></polygon></g></g><g transform="translate(24.0 0.0)"><g clip-path="url(#i1)"><polygon points="0,0 1,0 1,37 0,37 0,0" stroke="none" fill="#8A8D90"></polygon></g></g><g transform="translate(48.0 8.0)"><text transform="translate(0.0 14.0)" font-family="RedHatText-Regular, Red Hat Text" font-size="14.0" font-weight="normal" fill="#FEFFFE" text-anchor="left" line-spacing="21.0">Page title</text></g><g transform="translate(24.0 29.0)"><g clip-path="url(#i2)"><polygon points="0,0 242,0 242,8 0,8 0,0" stroke="none" fill="rgba(146, 211, 0, 0.9)"></polygon></g><g clip-path="url(#i2)"><polygon points="0,0 242,0 242,8 0,8 0,0 0,0" stroke="#7EB200" stroke-width="2" fill="none" stroke-miterlimit="5"></polygon></g></g><g transform="translate(24.0 0.0)"><g clip-path="url(#i2)"><polygon points="0,0 242,0 242,8 0,8 0,0" stroke="none" fill="rgba(146, 211, 0, 0.9)"></polygon></g><g clip-path="url(#i2)"><polygon points="0,0 242,0 242,8 0,8 0,0 0,0" stroke="#7EB200" stroke-width="2" fill="none" stroke-miterlimit="5"></polygon></g></g><g transform="translate(24.0 8.0)"><g clip-path="url(#i3)"><polygon points="0,0 24,0 24,21 0,21 0,0" stroke="none" fill="rgba(0, 121, 135, 0.9)"></polygon></g><g clip-path="url(#i3)"><polygon points="0,0 24,0 24,21 0,21 0,0 0,0" stroke="#09707A" stroke-width="2" fill="none" stroke-miterlimit="5"></polygon></g></g><g clip-path="url(#i4)"><polygon points="0,0 24,0 24,37 0,37 0,0" stroke="none" fill="rgba(0, 121, 135, 0.9)"></polygon></g><g clip-path="url(#i4)"><polygon points="0,0 24,0 24,37 0,37 0,0 0,0" stroke="#09707A" stroke-width="2" fill="none" stroke-miterlimit="5"></polygon></g><g transform="translate(266.0 0.0)"><g clip-path="url(#i4)"><polygon points="0,0 24,0 24,37 0,37 0,0" stroke="none" fill="rgba(0, 121, 135, 0.9)"></polygon></g><g clip-path="url(#i4)"><polygon points="0,0 24,0 24,37 0,37 0,0 0,0" stroke="#09707A" stroke-width="2" fill="none" stroke-miterlimit="5"></polygon></g></g></svg>