<?xml version="1.0" encoding="UTF-8"?>
<svg width="441px" height="277px" viewBox="0 0 441 277" version="1.1" xmlns="http://www.w3.org/2000/svg" xmlns:xlink="http://www.w3.org/1999/xlink">
    <title></title>
    <g id="Empty-state" stroke="none" stroke-width="1" fill="none" fill-rule="evenodd">
        <g id="Empty-state-/-2.-Backend-failure">
            <text id="Unable-to-connect" font-family="RedHatDisplay-Medium, Red Hat Display" font-size="20" font-weight="500" line-spacing="30" fill="#151515">
                <tspan x="137" y="91">Unable to connect</tspan>
            </text>
            <text id="Check-your-connectio" font-family="RedHatText-Regular, Red Hat Text" font-size="16" font-weight="normal" line-spacing="24" fill="#6A6E73">
                <tspan x="63.348" y="133">Check your connection and reload the page.</tspan>
            </text>
            <g id="Group" transform="translate(142.000000, 173.000000)">
                <g id="Button-/-1.-Primary-/-Default" transform="translate(11.000000, 0.000000)">
                    <rect id="Background" fill="#0066CC" x="0" y="0" width="136" height="36" rx="3"></rect>
                    <text id="âœï¸-Label" font-family="RedHatText-Regular, Red Hat Text" font-size="16" font-weight="normal" line-spacing="24" fill="#FFFFFF">
                        <tspan x="16.384" y="22">Primary action</tspan>
                    </text>
                </g>
                <g id="Button-/-1.-Primary-/-Default" transform="translate(0.000000, 52.000000)">
                    <rect id="Background" x="0" y="0" width="157" height="36" rx="3"></rect>
                    <text id="âœï¸-Label" font-family="RedHatText-Regular, Red Hat Text" font-size="16" font-weight="normal" line-spacing="24" fill="#0066CC">
                        <tspan x="16" y="22">Secondary action</tspan>
                    </text>
                    <g id="ðŸ“-Padding" fill-opacity="0.9">
                        <g id="Spacer-/-Horizontal-/-3.-pf-global--spacer--md-(16px)" fill="#3F9C35" stroke="#418A38">
                            <rect id="Rectangle-Copy-2" x="0.5" y="0.5" width="15" height="35"></rect>
                        </g>
                        <g id="Spacer-/-Horizontal-/-3.-pf-global--spacer--md-(16px)" transform="translate(141.000000, 0.000000)" fill="#3F9C35" stroke="#418A38">
                            <rect id="Rectangle-Copy-2" x="0.5" y="0.5" width="15" height="35"></rect>
                        </g>
                        <g id="Spacer-/-Vertical-/-8.-pf-global--spacer--form-element-(6px)" transform="translate(16.000000, 0.000000)" fill="#F3D53C" stroke="#CBB534">
                            <rect id="Rectangle" x="0.5" y="0.5" width="124" height="5"></rect>
                        </g>
                        <g id="Spacer-/-Vertical-/-8.-pf-global--spacer--form-element-(6px)" transform="translate(16.000000, 30.000000)" fill="#F3D53C" stroke="#CBB534">
                            <rect id="Rectangle" x="0.5" y="0.5" width="124" height="5"></rect>
                        </g>
                    </g>
                </g>
            </g>
            <g id="Icons/3.-Size-lg/Object/cubes" transform="translate(195.000000, 0.000000)" fill="#C9190B">
                <path d="M26,52 C30.6827962,52 35.016129,50.8293005 39,48.4879032 C42.983871,46.1465059 46.1465059,42.983871 48.4879032,39 C50.8293005,35.016129 52,30.6827962 52,26 C52,21.3172038 50.8293005,16.983871 48.4879032,13 C46.1465059,9.01612903 42.983871,5.85349409 39,3.51209677 C35.016129,1.17069946 30.6827962,0 26,0 C21.3172038,0 16.983871,1.17069946 13,3.51209677 C9.01612903,5.85349409 5.85349409,9.01612903 3.51209677,13 C1.17069946,16.983871 0,21.3172038 0,26 C0,30.6827962 1.17069946,35.016129 3.51209677,39 C5.85349409,42.983871 9.01612903,46.1465059 13,48.4879032 C16.983871,50.8293005 21.3172038,52 26,52 Z M28.516129,29.3548387 L23.483871,29.3548387 C23.1344091,29.3548387 22.8373651,29.2325263 22.5927419,28.9879032 C22.3481188,28.7432801 22.2258065,28.4811833 22.2258065,28.2016129 L21.3870968,13.9435484 C21.3870968,13.5241935 21.5094091,13.1922038 21.7540323,12.9475806 C21.9986554,12.7029575 22.2956995,12.5806452 22.6451613,12.5806452 L29.3548387,12.5806452 C29.7043005,12.5806452 30.0013446,12.7029575 30.2459677,12.9475806 C30.4905909,13.1922038 30.6129032,13.5241935 30.6129032,13.9435484 L29.7741935,28.2016129 C29.7741935,28.4811833 29.6518812,28.7432801 29.4072581,28.9879032 C29.1626349,29.2325263 28.8655909,29.3548387 28.516129,29.3548387 Z M26,40.8870968 C24.6720425,40.8870968 23.5362903,40.4153226 22.5927419,39.4717742 C21.6491935,38.5282258 21.1774194,37.3924737 21.1774194,36.0645161 C21.1774194,34.7365586 21.6491935,33.6008065 22.5927419,32.6572581 C23.5362903,31.7137097 24.6720425,31.2419355 26,31.2419355 C27.3279575,31.2419355 28.4637097,31.7137097 29.4072581,32.6572581 C30.3508065,33.6008065 30.8225806,34.7365586 30.8225806,36.0645161 C30.8225806,37.3924737 30.3508065,38.5282258 29.4072581,39.4717742 C28.4637097,40.4153226 27.3279575,40.8870968 26,40.8870968 Z" id="exclamation-circle"></path>
            </g>
        </g>
    </g>
</svg>