<?xml version="1.0" encoding="UTF-8"?><svg version="1.1" width="441px" height="249px" viewBox="0 0 441.0 249.0" xmlns="http://www.w3.org/2000/svg" xmlns:xlink="http://www.w3.org/1999/xlink"><defs><clipPath id="i0"><path d="M21.9374477,0 C34.0558194,0 43.8748954,9.81907602 43.8748954,21.9374477 C43.8748954,27.0315556 42.1451708,31.7143981 39.2342815,35.4374155 L40.9533974,35.4374155 C41.628437,35.4374155 42.2717536,35.7010868 42.7463619,36.175695 L53.2615918,46.6909249 C54.2424282,47.682267 54.2424282,49.2854088 53.2510861,50.2768539 L50.2662452,53.2615918 C49.2854088,54.2530368 47.682267,54.2530368 46.6909249,53.2615918 L36.175695,42.7463619 C35.7010868,42.2717536 35.4374155,41.628437 35.4374155,40.9533974 L35.4374155,39.2342815 C31.7143981,42.1451708 27.0315556,43.8748954 21.9374477,43.8748954 C9.81907602,43.8748954 0,34.0558194 0,21.9374477 C0,9.81907602 9.81907602,0 21.9374477,0 Z M21.9374477,8.43747988 C14.4702986,8.43747988 8.43747988,14.4808043 8.43747988,21.9374477 C8.43747988,29.4045968 14.4808043,35.4374155 21.9374477,35.4374155 C29.4045968,35.4374155 35.4374155,29.3940911 35.4374155,21.9374477 C35.4374155,14.4702986 29.3940911,8.43747988 21.9374477,8.43747988 Z"></path></clipPath></defs><g transform="translate(145.0 71.0)"><text transform="translate(0.0 20.0)" font-family="RedHatDisplay-Medium, Red Hat Display" font-size="20.0" font-weight="500" fill="#151515" text-anchor="left" line-spacing="30.0">No results found</text></g><g transform="translate(0.0 117.0)"><text transform="translate(19.26000000000002 16.0)"><tspan x="19.26px" y="0px" font-family="RedHatText-Regular, Red Hat Text" font-size="16.0" font-weight="normal" fill="#696E73" text-anchor="center" line-spacing="24.0">No results match the filter criteria. Clear all filters and try </tspan><tspan x="199.468px" y="24px" font-family="RedHatText-Regular, Red Hat Text" font-size="16.0" font-weight="normal" fill="#696E73" text-anchor="center" line-spacing="24.0">again.</tspan></text></g><g transform="translate(153.0 197.0)"><g transform="translate(16.0 6.0)"><text transform="translate(0.0 16.0)" font-family="RedHatText-Regular, Red Hat Text" font-size="16.0" font-weight="normal" fill="#0066CC" text-anchor="left" line-spacing="24.0">Clear all filters</text></g></g><g transform="translate(194.0 0.0)"><g transform=""><g clip-path="url(#i0)"><polygon points="0,0 53.9959111,0 53.9959111,54.0051756 0,54.0051756 0,0" stroke="none" fill="#696E73"></polygon></g></g></g></svg>