<?xml version="1.0" encoding="UTF-8"?>
<svg width="441px" height="249px" viewBox="0 0 441 249" version="1.1" xmlns="http://www.w3.org/2000/svg" xmlns:xlink="http://www.w3.org/1999/xlink">
    <title></title>
    <g id="Empty-state" stroke="none" stroke-width="1" fill="none" fill-rule="evenodd">
        <g id="Empty-state-/-3.-No-results-found">
            <text id="No-results-found" font-family="RedHatDisplay-Medium, Red Hat Display" font-size="20" font-weight="500" line-spacing="30" fill="#151515">
                <tspan x="145" y="91">No results found</tspan>
            </text>
            <text id="No-results-match-the" font-family="RedHatText-Regular, Red Hat Text" font-size="16" font-weight="normal" line-spacing="24" fill="#6A6E73">
                <tspan x="19.26" y="133">No results match the filter criteria. Clear all filters and try </tspan>
                <tspan x="199.468" y="157">again.</tspan>
            </text>
            <g id="Button-/-1.-Primary-/-Default" transform="translate(153.000000, 197.000000)">
                <rect id="Background" x="0" y="0" width="135" height="36" rx="3"></rect>
                <text id="âœï¸-Label" font-family="RedHatText-Regular, Red Hat Text" font-size="16" font-weight="normal" line-spacing="24" fill="#0066CC">
                    <tspan x="16" y="22">Clear all filters</tspan>
                </text>
                <g id="ðŸ“-Padding" fill-opacity="0.9">
                    <g id="Spacer-/-Horizontal-/-3.-pf-global--spacer--md-(16px)" fill="#3F9C35" stroke="#418A38">
                        <rect id="Rectangle-Copy-2" x="0.5" y="0.5" width="15" height="35"></rect>
                    </g>
                    <g id="Spacer-/-Horizontal-/-3.-pf-global--spacer--md-(16px)" transform="translate(119.000000, 0.000000)" fill="#3F9C35" stroke="#418A38">
                        <rect id="Rectangle-Copy-2" x="0.5" y="0.5" width="15" height="35"></rect>
                    </g>
                    <g id="Spacer-/-Vertical-/-8.-pf-global--spacer--form-element-(6px)" transform="translate(16.000000, 0.000000)" fill="#F3D53C" stroke="#CBB534">
                        <rect id="Rectangle" x="0.5" y="0.5" width="102" height="5"></rect>
                    </g>
                    <g id="Spacer-/-Vertical-/-8.-pf-global--spacer--form-element-(6px)" transform="translate(16.000000, 30.000000)" fill="#F3D53C" stroke="#CBB534">
                        <rect id="Rectangle" x="0.5" y="0.5" width="102" height="5"></rect>
                    </g>
                </g>
            </g>
            <g id="Icons/3.-Size-lg/Object/cubes" transform="translate(194.000000, 0.000000)" fill="#6A6E73">
                <path d="M50.2662452,53.2615918 L53.2510861,50.2768539 C54.2424282,49.2854088 54.2424282,47.682267 53.2615918,46.6909249 L42.7463619,36.175695 C42.2717536,35.7010868 41.628437,35.4374155 40.9533974,35.4374155 L39.2342815,35.4374155 C42.1451708,31.7143981 43.8748954,27.0315556 43.8748954,21.9374477 C43.8748954,9.81907602 34.0558194,0 21.9374477,0 C9.81907602,0 0,9.81907602 0,21.9374477 C0,34.0558194 9.81907602,43.8748954 21.9374477,43.8748954 C27.0315556,43.8748954 31.7143981,42.1451708 35.4374155,39.2342815 L35.4374155,40.9533974 C35.4374155,41.628437 35.7010868,42.2717536 36.175695,42.7463619 L46.6909249,53.2615918 C47.682267,54.2530368 49.2854088,54.2530368 50.2662452,53.2615918 Z M21.9374477,35.4374155 C14.4808043,35.4374155 8.43747988,29.4045968 8.43747988,21.9374477 C8.43747988,14.4808043 14.4702986,8.43747988 21.9374477,8.43747988 C29.3940911,8.43747988 35.4374155,14.4702986 35.4374155,21.9374477 C35.4374155,29.3940911 29.4045968,35.4374155 21.9374477,35.4374155 Z" id="search"></path>
            </g>
        </g>
    </g>
</svg>