<?xml version="1.0" encoding="UTF-8"?><svg version="1.1" width="223px" height="222px" viewBox="0 0 223.0 222.0" xmlns="http://www.w3.org/2000/svg" xmlns:xlink="http://www.w3.org/1999/xlink"><defs><clipPath id="i0"><path d="M9,0 L9,3 L0,3 L0,0 L9,0 Z"></path></clipPath><clipPath id="i1"><path d="M3,0 L3,8 L0,8 L0,0 L3,0 Z"></path></clipPath></defs><g transform="translate(39.03632751924954 4.0)"><path d="M71.9636725,0 C44.2537664,0 19.0040311,10.5332433 0,27.8141965" stroke="#B8BBBE" stroke-width="8" fill="none" stroke-miterlimit="10"></path></g><g transform="translate(4.0 22.275607367809783)"><path d="M47.1727842,0 C18.7120033,19.2288912 0,51.7914306 0,88.7243926 C0,109.689898 6.0297966,129.247068 16.4497898,145.756304" stroke="#D2D2D2" stroke-width="8" fill="none" stroke-miterlimit="10"></path></g><g transform="translate(20.0 4.0)"><path d="M0,163.638697 C18.9056176,193.882221 52.5020298,214 90.7972011,214 L90.7972011,214 C149.891669,214 197.797201,166.094468 197.797201,107 C197.797201,47.9055318 149.891669,0 90.7972011,0" stroke="#EDEDED" stroke-width="8" fill="none" stroke-miterlimit="10"></path></g><g transform="translate(14.888904670946275 168.61256454481477) rotate(-32.0)"><g clip-path="url(#i0)"><polygon points="-2.27373675e-13,0 9,0 9,3 -2.27373675e-13,3 -2.27373675e-13,0" stroke="none" fill="#FFFFFF"></polygon></g></g><g transform="translate(108.0 0.0)"><g clip-path="url(#i1)"><polygon points="0,0 3,0 3,8 0,8 0,0" stroke="none" fill="#FFFFFF"></polygon></g></g><g transform="translate(48.01967202728445 19.522639064985952) rotate(-34.0)"><g clip-path="url(#i1)"><polygon points="2.27373675e-13,0 3,0 3,8 2.27373675e-13,8 2.27373675e-13,0" stroke="none" fill="#FFFFFF"></polygon></g></g><g transform="translate(17.0 16.0)"><path d="M16.1457077,41.6543954 C5.95228204,56.738608 0,74.924189 0,94.5 C0,146.690909 42.3090911,189 94.5,189 L94.5,189 C146.690909,189 189,146.690909 189,94.5 C189,42.3090911 146.690909,0 94.5,0" stroke="#F0AB00" stroke-width="8" fill="none" stroke-miterlimit="10"></path></g><g transform="translate(87.0 85.8)"><text transform="translate(0.4239999999999995 24.0)" font-family="RedHatDisplay-Medium, Red Hat Display" font-size="24.0" font-weight="500" fill="#151515" text-anchor="center" line-spacing="31.2">80%</text></g><g transform="translate(73.5 120.20000076293951)"><text transform="translate(0.17099999999999227 14.0)" font-family="RedHatText-Regular, Red Hat Text" font-size="14.0" font-weight="normal" fill="#696E73" text-anchor="center" line-spacing="21.0">of 100 GBps</text></g></svg>