<?xml version="1.0" encoding="UTF-8"?>
<svg width="67px" height="27px" viewBox="0 0 67 27" version="1.1" xmlns="http://www.w3.org/2000/svg" xmlns:xlink="http://www.w3.org/1999/xlink">
    <title></title>
    <g id="Form-Inputs" stroke="none" stroke-width="1" fill="none" fill-rule="evenodd">
        <g id="Forms-/-8.-Field-Label-/-Optional-with-help">
            <g id="Forms-/-8.-Field-Label-/-Optional" transform="translate(0.500000, 0.000000)">
                <text id="âœï¸-Label" font-family="RedHatText-Medium, Red Hat Text" font-size="14" font-weight="400" line-spacing="18.2000008" fill="#151515">
                    <tspan x="0" y="18">Label</tspan>
                </text>
                <g id="ðŸ“-Padding" fill="#92D400" fill-opacity="0.9" stroke="#7FB300">
                    <g id="Spacer-/-Vertical-/-2.-pf-global--spacer--sm-(8px)" transform="translate(0.000000, 19.000000)">
                        <rect id="Rectangle-Copy" x="0.5" y="0.5" width="34" height="7"></rect>
                    </g>
                    <g id="Spacer-/-Horizontal-/-2.-pf-global--spacer--sm-(8px)" transform="translate(35.000000, 0.000000)">
                        <rect id="Rectangle-Copy" x="0.5" y="0.5" width="7" height="26"></rect>
                    </g>
                </g>
            </g>
            <g id="Icons/2.-Size-sm/Framework/question-circle-(far)" transform="translate(49.000000, 7.500000)" fill="#6A6E73">
                <path d="M5.81248614,11.6249723 C9.02240891,11.6249723 11.6249723,9.02334732 11.6249723,5.81248614 C11.6249723,2.60350179 9.02240891,0 5.81248614,0 C2.60256338,0 0,2.60350179 0,5.81248614 C0,9.02334732 2.60256338,11.6249723 5.81248614,11.6249723 Z M5.81248614,10.499975 C3.22189326,10.499975 1.12499732,8.40394877 1.12499732,5.81248614 C1.12499732,3.22276301 3.22198481,1.12499732 5.81248614,1.12499732 C8.40211772,1.12499732 10.499975,3.22196192 10.499975,5.81248614 C10.499975,8.40303325 8.40394877,10.499975 5.81248614,10.499975 Z M6.34740461,7.12498301 C6.50272345,7.12498301 6.62865393,6.99905253 6.62865393,6.84373368 L6.62865393,6.69521261 C6.62865393,6.11444923 8.3260147,6.09025648 8.3260147,4.51873465 C8.3260147,3.33523527 7.09838701,2.43749419 5.94828141,2.43749419 C4.85015476,2.43749419 4.14481128,2.89431836 3.59105589,3.70744203 C3.50653003,3.83161013 3.53333203,4.00020409 3.65303694,4.09095552 L4.30514263,4.58545354 C4.42715924,4.67794447 4.60067415,4.65565144 4.69575144,4.53567186 C5.04845751,4.09054353 5.29935718,3.83325807 5.8428358,3.83325807 C6.25967441,3.83325807 6.77527529,4.10155272 6.77527529,4.50575708 C6.77527529,4.81133649 6.52302522,4.96828039 6.111428,5.19901562 C5.63146393,5.46811135 4.99629546,5.80301046 4.99629546,6.64078464 L4.99629546,6.84373368 C4.99629546,6.99905253 5.12222595,7.12498301 5.27754479,7.12498301 L6.34740461,7.12498301 Z M5.81248614,9.42185254 C6.35527812,9.42185254 6.79685879,8.98027186 6.79685879,8.43747988 C6.79685879,7.8946879 6.35527812,7.45310723 5.81248614,7.45310723 C5.26969416,7.45310723 4.82811349,7.8946879 4.82811349,8.43747988 C4.82811349,8.98027186 5.26969416,9.42185254 5.81248614,9.42185254 Z" id="question-circle"></path>
            </g>
        </g>
    </g>
</svg>