<?xml version="1.0" encoding="UTF-8"?><svg version="1.1" width="62px" height="27px" viewBox="0 0 62.0 27.0" xmlns="http://www.w3.org/2000/svg" xmlns:xlink="http://www.w3.org/1999/xlink"><defs><clipPath id="i0"><path d="M9,0 L9,17 L0,17 L0,0 L9,0 Z"></path></clipPath><clipPath id="i1"><path d="M54,0 L54,8 L0,8 L0,0 L54,0 Z"></path></clipPath><clipPath id="i2"><path d="M8,0 L8,27 L0,27 L0,0 L8,0 Z"></path></clipPath></defs><g transform="translate(41.0 4.0)"><g clip-path="url(#i0)"><text transform="translate(0.0 14.0)" font-family="RedHatText-Regular, Red Hat Text" font-size="14.0" font-weight="normal" fill="#C9190A" text-anchor="left" line-spacing="21.0">*</text></g></g><g transform="translate(0.0 4.0)"><text transform="translate(0.0 14.0)" font-family="RedHatText-Medium, Red Hat Text" font-size="14.0" font-weight="400" fill="#151515" text-anchor="left" line-spacing="18.20000076293945">Label</text></g><g transform="translate(0.0 19.0)"><g clip-path="url(#i1)"><polygon points="0,0 54,0 54,8 0,8 0,0" stroke="none" fill="rgba(146, 211, 0, 0.9)"></polygon></g><g clip-path="url(#i1)"><polygon points="0,0 54,0 54,8 0,8 0,0 0,0" stroke="#7EB200" stroke-width="2" fill="none" stroke-miterlimit="5"></polygon></g></g><g transform="translate(54.0 0.0)"><g clip-path="url(#i2)"><polygon points="0,0 8,0 8,27 0,27 0,0" stroke="none" fill="rgba(146, 211, 0, 0.9)"></polygon></g><g clip-path="url(#i2)"><polygon points="0,0 8,0 8,27 0,27 0,0 0,0" stroke="#7EB200" stroke-width="2" fill="none" stroke-miterlimit="5"></polygon></g></g></svg>