<?xml version="1.0" encoding="UTF-8"?><svg version="1.1" width="53px" height="53px" viewBox="0 0 53.0 53.0" xmlns="http://www.w3.org/2000/svg" xmlns:xlink="http://www.w3.org/1999/xlink"><defs><clipPath id="i0"><path d="M26.1561876,0 C40.6053719,0 52.3123753,11.7070033 52.3123753,26.1561876 C52.3123753,40.6053719 40.6053719,52.3123753 26.1561876,52.3123753 C11.7070033,52.3123753 0,40.6053719 0,26.1561876 C0,11.7070033 11.7070033,0 26.1561876,0 Z M26.9999356,9.28122787 L25.3124397,9.28122787 C23.9097292,9.28122787 22.7811957,10.4097614 22.7811957,11.8124718 L22.7811957,31.0709785 L15.1452352,23.1081068 C14.1643988,22.0851448 12.529637,22.0640305 11.5276863,23.0659812 L10.3781415,24.2261347 C9.38669637,25.2174768 9.38669637,26.8206186 10.3781415,27.801455 L24.3632232,41.7971454 C25.3546682,42.7885905 26.957707,42.7885905 27.9386465,41.7971454 L41.9342338,27.801455 C42.9256789,26.8101129 42.9256789,25.2069712 41.9342338,24.2261347 L40.784689,23.0659812 C39.7827382,22.0640305 38.1479765,22.0851448 37.1671401,23.1081068 L29.5311796,31.0709785 L29.5311796,11.8124718 C29.5311796,10.4097614 28.4026461,9.28122787 26.9999356,9.28122787 Z"></path></clipPath></defs><g clip-path="url(#i0)"><polygon points="0,0 52.3123753,0 52.3123753,52.3123753 0,52.3123753 0,0" stroke="none" fill="#151515"></polygon></g></svg>