<?xml version="1.0" encoding="UTF-8"?><svg version="1.1" width="53px" height="53px" viewBox="0 0 53.0 53.0" xmlns="http://www.w3.org/2000/svg" xmlns:xlink="http://www.w3.org/1999/xlink"><defs><clipPath id="i0"><path d="M26.1561876,0 C40.6053719,0 52.3123753,11.7070033 52.3123753,26.1561876 C52.3123753,40.6053719 40.6053719,52.3123753 26.1561876,52.3123753 C11.7070033,52.3123753 0,40.6053719 0,26.1561876 C0,11.7070033 11.7070033,0 26.1561876,0 Z M27.9491521,10.5152299 C26.957707,9.52378482 25.3546682,9.52378482 24.3737288,10.5152299 L10.3675328,24.5109203 C9.37619072,25.5022623 9.37619072,27.1054041 10.3675328,28.0862406 L11.5171806,29.246394 C12.529637,30.2483448 14.1643988,30.2272305 15.1452352,29.2042684 L22.7811957,21.2413968 L22.7811957,40.4999034 C22.7811957,41.9026139 23.9097292,43.0311474 25.3124397,43.0311474 L26.9999356,43.0311474 C28.4026461,43.0311474 29.5311796,41.9026139 29.5311796,40.4999034 L29.5311796,21.2413968 L37.1671401,29.2042684 C38.1479765,30.2272305 39.7827382,30.2483448 40.784689,29.246394 L41.9342338,28.0862406 C42.9256789,27.0948985 42.9256789,25.4917567 41.9342338,24.5109203 Z"></path></clipPath></defs><g clip-path="url(#i0)"><polygon points="0,0 52.3123753,0 52.3123753,52.3123753 0,52.3123753 0,0" stroke="none" fill="#151515"></polygon></g></svg>