<?xml version="1.0" encoding="UTF-8"?><svg version="1.1" width="68px" height="54px" viewBox="0 0 68.0 54.0" xmlns="http://www.w3.org/2000/svg" xmlns:xlink="http://www.w3.org/1999/xlink"><defs><clipPath id="i0"><path d="M33.7499195,0 C36.5015762,0 38.9220988,1.3373076 40.4618977,3.37499195 L55.6873672,3.37499195 C56.6196923,3.37499195 57.3748632,4.13016288 57.3748632,5.06248793 L57.3748632,8.43747988 C57.3748632,9.36980493 56.6196923,10.1249759 55.6873672,10.1249759 L42.0175581,10.1249759 C41.4660114,12.8428496 39.6044512,15.0777724 37.1249115,16.1630474 L37.1249115,47.2498873 L55.6873672,47.2498873 C56.6196923,47.2498873 57.3748632,48.0050583 57.3748632,48.9373833 L57.3748632,52.3123753 C57.3748632,53.2447003 56.6196923,53.9998713 55.6873672,53.9998713 L11.8124718,53.9998713 C10.8801468,53.9998713 10.1249759,53.2447003 10.1249759,52.3123753 L10.1249759,48.9373833 C10.1249759,48.0050583 10.8801468,47.2498873 11.8124718,47.2498873 L30.3749276,47.2498873 L30.3749276,16.1630474 C27.8943579,15.0777724 26.0338277,12.8418197 25.482281,10.1249759 L11.8124718,10.1249759 C10.8801468,10.1249759 10.1249759,9.36980493 10.1249759,8.43747988 L10.1249759,5.06248793 C10.1249759,4.13016288 10.8801468,3.37499195 11.8124718,3.37499195 L27.0379414,3.37499195 C28.5777402,1.3373076 30.9982629,0 33.7499195,0 Z M8.97110517,16.2938531 C10.8358583,12.5644499 16.1662403,12.5718656 18.0276975,16.2938531 C21.2130742,22.6645345 23.2675722,26.7120025 24.5925845,29.3549355 L24.7957933,29.7607026 C26.4725341,33.1127878 26.8733445,34.0220522 26.9685776,34.7093666 L26.9784302,34.7893371 C26.9812835,34.8157419 26.9837254,34.8419393 26.9858143,34.8680632 L26.991081,34.9463486 C26.9932436,34.9855151 26.9947437,35.0248176 26.9957791,35.0647083 L26.9973727,35.1525256 L26.9979528,35.2432279 C26.9980273,35.2740575 26.998008,35.3055399 26.9979701,35.3378472 L26.9978757,35.4374155 C26.9999356,40.0969808 20.9555813,43.8748954 13.4999678,43.8748954 C6.04435433,43.8748954 0,40.0969808 0,35.4374155 C0.00205993161,35.4043618 0.00197221972,35.3723245 0.00187381102,35.3411289 L0.00177111766,35.1626619 C0.00218827854,35.0913466 0.00350127276,35.0231121 0.0069134609,34.9552322 L0.0155824549,34.8328427 C0.0181282271,34.8054684 0.021125393,34.7778892 0.0246509676,34.7499307 L0.0368899326,34.6647422 C0.0525847776,34.5674223 0.0751489185,34.4638181 0.107525793,34.3472618 L0.133694328,34.257312 C0.531783396,32.9456664 2.12070974,29.9836772 8.43101778,17.3736421 Z M49.4710086,16.2938531 C51.3357617,12.5644499 56.6661437,12.5718656 58.5276009,16.2938531 L58.9716791,17.1815997 C62.173308,23.5790123 64.1729951,27.5120299 65.4218594,30.0131394 L65.5875476,30.3454213 C66.7690873,32.7184906 67.2203096,33.7065831 67.3923335,34.3421858 L67.418269,34.4440762 C67.4732188,34.6751528 67.4904308,34.8623643 67.4956825,35.0647083 L67.4972762,35.1525256 L67.4977791,35.4374155 C67.4998391,40.0969808 61.4554847,43.8748954 53.9998713,43.8748954 C46.5442578,43.8748954 40.4999034,40.0969808 40.4999034,35.4374155 L40.5016746,35.1626619 C40.5022586,35.0628206 40.5045984,34.9690173 40.5119962,34.8737721 L40.5196527,34.7916058 C40.5211609,34.7777944 40.5227916,34.7639099 40.5245544,34.7499307 L40.5367934,34.6647422 C40.5463452,34.6055139 40.5584412,34.543958 40.5737451,34.4785715 L40.5936919,34.3981727 C40.7878355,33.6563044 41.3870914,32.397508 43.2272718,28.7284281 L43.4368854,28.3107375 C44.7615177,25.6726262 46.6832708,21.8700161 49.4710086,16.2938531 Z M13.4999678,18.5624557 L5.90623592,33.7499195 L21.0936997,33.7499195 L13.4999678,18.5624557 Z M53.9998713,18.5624557 L46.4061394,33.7499195 L61.5936031,33.7499195 L53.9998713,18.5624557 Z"></path></clipPath></defs><g clip-path="url(#i0)"><polygon points="0,0 67.4998391,0 67.4998391,53.9998713 0,53.9998713 0,0" stroke="none" fill="#151515"></polygon></g></svg>