<?xml version="1.0" encoding="UTF-8"?><svg version="1.1" width="53px" height="53px" viewBox="0 0 53.0 53.0" xmlns="http://www.w3.org/2000/svg" xmlns:xlink="http://www.w3.org/1999/xlink"><defs><clipPath id="i0"><path d="M26.1561876,0 C40.6018701,0 52.3123753,11.7106082 52.3123753,26.1561876 C52.3123753,40.6017671 40.6017671,52.3123753 26.1561876,52.3123753 C11.7106082,52.3123753 0,40.6018701 0,26.1561876 C0,11.7105052 11.7106082,0 26.1561876,0 Z M10.2531036,15.0261711 C5.05105531,22.4254455 5.53122537,32.9757972 12.4338502,39.8785251 C19.3327672,46.777339 29.8820889,47.2646159 37.2863071,42.0591687 Z M39.8785251,12.4338502 C32.9796081,5.53513924 22.4303893,5.04775942 15.0260681,10.2532066 L42.0592717,37.2862041 C47.26132,29.8869298 46.7811499,19.336578 39.8785251,12.4338502 Z"></path></clipPath></defs><g clip-path="url(#i0)"><polygon points="0,0 52.3123753,0 52.3123753,52.3123753 0,52.3123753 0,0" stroke="none" fill="#151515"></polygon></g></svg>