<?xml version="1.0" encoding="UTF-8"?><svg version="1.1" width="55px" height="55px" viewBox="0 0 55.0 55.0" xmlns="http://www.w3.org/2000/svg" xmlns:xlink="http://www.w3.org/1999/xlink"><defs><clipPath id="i0"><path d="M4.36341887,11.113434 C5.68156911,9.7953868 7.81833617,9.7953868 9.13648641,11.113434 L14.8979091,16.8749598 L39.1017966,16.8749598 L44.8632193,11.113537 C46.1813696,9.7954898 48.3181366,9.7954898 49.6362869,11.113537 C50.9542311,12.4315843 50.9542311,14.5684543 49.6362869,15.8865016 L44.7186121,20.8041763 L44.7186121,26.9999356 L50.624848,26.9999356 C52.5202941,26.9999356 54.0509263,28.5625997 53.998604,30.4698904 C53.9481357,32.3081734 52.3937113,33.7499195 50.5547074,33.7499195 L44.7186121,33.7499195 L44.7186121,35.4374155 C44.7186121,37.743406 44.2037322,39.9286844 43.2842817,41.8862374 L49.6363898,48.2384485 C50.9543341,49.5564958 50.9543341,51.6933658 49.6363898,53.0114131 C48.3182396,54.3294603 46.1813696,54.3293573 44.8633223,53.0114131 L39.090364,47.2384547 C36.4800186,49.3555494 33.154053,50.6248793 29.5311483,50.6248793 L29.5311483,24.8905657 C29.5311483,24.1916309 28.9644611,23.6249437 28.2655263,23.6249437 L25.7342824,23.6249437 C25.0353476,23.6249437 24.4686604,24.1916309 24.4686604,24.8905657 L24.4686604,50.6248793 C20.8457557,50.6248793 17.5197901,49.3555494 14.9094448,47.2384547 L9.13648641,53.0114131 C7.81833617,54.3294603 5.68146611,54.3293573 4.36341887,53.0114131 C3.04547462,51.6933658 3.04547462,49.5564958 4.36341887,48.2384485 L10.715527,41.8862374 C9.79607651,39.9286844 9.2811966,37.743406 9.2811966,35.4374155 L9.2811966,33.7499195 L3.44520435,33.7499195 C1.6063034,33.7499195 0.051776013,32.3081734 0.00130768847,30.4698904 C-0.0511175711,28.5625997 1.47951461,26.9999356 3.37496069,26.9999356 L9.2811966,26.9999356 L9.2811966,20.8041763 L4.36341887,15.8863986 C3.04547462,14.5683513 3.04547462,12.4314813 4.36341887,11.113434 Z M27.1053729,0 C33.6292793,0 38.9178447,5.28856542 38.9178447,11.8124718 L15.292901,11.8124718 C15.292901,5.28856542 20.5814664,0 27.1053729,0 Z"></path></clipPath></defs><g transform="translate(0.9999999999999716 0.9999999999999645)"><g clip-path="url(#i0)"><polygon points="-7.10542736e-15,0 53.9999067,0 53.9999067,53.9999099 -7.10542736e-15,53.9999099 -7.10542736e-15,0" stroke="none" fill="#151515"></polygon></g></g></svg>