<?xml version="1.0" encoding="UTF-8"?><svg version="1.1" width="53px" height="53px" viewBox="0 0 53.0 53.0" xmlns="http://www.w3.org/2000/svg" xmlns:xlink="http://www.w3.org/1999/xlink"><defs><clipPath id="i0"><path d="M26.1561876,0 C40.6018701,0 52.3123753,11.7105052 52.3123753,26.1561876 C52.3123753,40.6018701 40.6018701,52.3123753 26.1561876,52.3123753 C11.7105052,52.3123753 0,40.6018701 0,26.1561876 C0,11.7105052 11.7105052,0 26.1561876,0 Z M40.150436,15.8265576 C39.4915669,15.1674825 38.4229774,15.1674825 37.7639023,15.8265576 L21.9374477,31.6530121 L14.548473,24.2639345 C13.8895009,23.6049623 12.8209114,23.6049623 12.1619392,24.2639345 L9.77540547,26.6503652 C9.11653634,27.3093374 9.11653634,28.3779269 9.77540547,29.036899 L20.7441293,40.0056229 C21.4032044,40.664595 22.471691,40.664595 23.1307661,40.0057258 L42.5369698,20.5995221 C43.1958389,19.94055 43.1958389,18.8719605 42.5369698,18.2129883 Z"></path></clipPath></defs><g clip-path="url(#i0)"><polygon points="0,0 52.3123753,0 52.3123753,52.3123753 0,52.3123753 0,0" stroke="none" fill="#3E8634"></polygon></g></svg>