<?xml version="1.0" encoding="UTF-8"?>
<svg width="47px" height="52px" viewBox="0 0 47 52" version="1.1" xmlns="http://www.w3.org/2000/svg" xmlns:xlink="http://www.w3.org/1999/xlink">
    <title></title>
    <g id="Icons" stroke="none" stroke-width="1" fill="none" fill-rule="evenodd">
        <g id="Icons/4.-Size-xl/Status/critical-risk" fill="#000000" fill-rule="nonzero">
            <path d="M45.4797425,12.8095018 L24.8760528,0.404595954 C23.979573,-0.135026217 22.8597709,-0.134873739 21.9637975,0.405104216 L1.37378379,12.8093493 C0.522029147,13.3226435 0.000825808786,14.2466645 0.000825808786,15.2436212 L0.000825808786,49.1547856 C-0.0528140683,51.3301994 2.51825312,52.7566376 4.32737067,51.5642035 C4.32732002,51.564305 21.9230738,40.5554436 21.9230738,40.5554436 C22.8390545,39.9825302 24.0002894,39.9822253 24.9166246,40.5551386 L42.5276245,51.5663891 C44.3365901,52.7634484 46.906391,51.3264385 46.8533589,49.1564121 C46.8534096,49.1565137 46.8534096,15.2441294 46.8534096,15.2441294 C46.8534096,14.246817 46.3318516,13.3226435 45.4797425,12.8095018" id="Fill-1"></path>
        </g>
    </g>
</svg>