<?xml version="1.0" encoding="UTF-8"?><svg version="1.1" width="47px" height="52px" viewBox="0 0 47.0 52.0" xmlns="http://www.w3.org/2000/svg" xmlns:xlink="http://www.w3.org/1999/xlink"><defs><clipPath id="i0"><path d="M21.9637975,0.405104216 C22.8597709,-0.134873739 23.979573,-0.135026217 24.8760528,0.404595954 L45.4797425,12.8095018 C46.3318516,13.3226435 46.8534096,14.246817 46.8534096,15.2441294 L46.8533589,49.1564121 C46.906391,51.3264385 44.3365901,52.7634484 42.5276245,51.5663891 L24.9166246,40.5551386 C24.0002894,39.9822253 22.8390545,39.9825302 21.9230738,40.5554436 C21.9230738,40.5554436 17.4091353,43.3796092 12.9538259,46.1670842 L12.2694729,46.5952512 C8.17353052,49.1578865 4.32734699,51.5642509 4.32737067,51.5642035 C2.51825312,52.7566376 -0.0528140683,51.3301994 0.000825808786,49.1547856 L0.000825808786,15.2436212 C0.000825808786,14.2466645 0.522029147,13.3226435 1.37378379,12.8093493 Z"></path></clipPath></defs><g clip-path="url(#i0)"><polygon points="1.08420217e-19,5.55111512e-17 46.8541667,5.55111512e-17 46.8541667,52 1.08420217e-19,52 1.08420217e-19,5.55111512e-17" stroke="none" fill="#000000"></polygon></g></svg>