<?xml version="1.0" encoding="UTF-8"?><svg version="1.1" width="53px" height="53px" viewBox="0 0 53.0 53.0" xmlns="http://www.w3.org/2000/svg" xmlns:xlink="http://www.w3.org/1999/xlink"><defs><clipPath id="i0"><path d="M26.1561876,0 C40.6008401,0 52.3123753,11.715758 52.3123753,26.1561876 C52.3123753,40.6050629 40.6008401,52.3123753 26.1561876,52.3123753 C11.7115352,52.3123753 0,40.6050629 0,26.1561876 C0,11.715758 11.7115352,0 26.1561876,0 Z M26.1561876,31.4296126 C23.4767316,31.4296126 21.3046367,33.6017075 21.3046367,36.2811635 C21.3046367,38.9606195 23.4767316,41.1327144 26.1561876,41.1327144 C28.8356437,41.1327144 31.0077386,38.9606195 31.0077386,36.2811635 C31.0077386,33.6017075 28.8356437,31.4296126 26.1561876,31.4296126 Z M29.4986327,12.6562198 L22.8136396,12.6562198 C22.0876167,12.6562198 21.5105269,13.2658566 21.5500776,13.9908495 L22.3324396,28.3345653 C22.3690034,29.005691 22.9239489,29.5311796 23.5961046,29.5311796 L28.7162706,29.5311796 C29.3884263,29.5311796 29.9433719,29.005691 29.9799357,28.3345653 L30.7622977,13.9908495 C30.8018484,13.2658566 30.2246556,12.6562198 29.4986327,12.6562198 Z"></path></clipPath></defs><g clip-path="url(#i0)"><polygon points="0,0 52.3123753,0 52.3123753,52.3123753 0,52.3123753 0,0" stroke="none" fill="#C9190A"></polygon></g></svg>