<?xml version="1.0" encoding="UTF-8"?><svg version="1.1" width="61px" height="55px" viewBox="0 0 61.0 55.0" xmlns="http://www.w3.org/2000/svg" xmlns:xlink="http://www.w3.org/1999/xlink"><defs><clipPath id="i0"><path d="M25.9899101,2.52969955 C27.9375754,-0.846322372 32.8158025,-0.840142577 34.7600689,2.52969955 L60.0661228,46.4074788 C62.0128612,49.7818528 59.5692673,53.9998718 55.6811464,53.9998718 L5.06821466,53.9998718 C1.17257499,53.9998718 -1.25979225,49.775364 0.683135242,46.4074788 Z M30.3749895,37.335849 C27.6955335,37.335849 25.5234386,39.5079439 25.5234386,42.1873999 C25.5234386,44.866856 27.6955335,47.0389509 30.3749895,47.0389509 C33.0544455,47.0389509 35.2265404,44.866856 35.2265404,42.1873999 C35.2265404,39.5079439 33.0544455,37.335849 30.3749895,37.335849 Z M33.7174345,18.5624563 L27.0324415,18.5624563 C26.3064186,18.5624563 25.7293287,19.172093 25.7688794,19.897086 L26.5512414,34.2408018 C26.5878052,34.9119275 27.1427508,35.437416 27.8149065,35.437416 L32.9350725,35.437416 C33.6072282,35.437416 34.1621738,34.9119275 34.1987376,34.2408018 L34.9810996,19.897086 C35.0206503,19.172093 34.4434574,18.5624563 33.7174345,18.5624563 Z"></path></clipPath></defs><g transform="translate(5.684341886080802e-14 0.9999999999999822)"><g clip-path="url(#i0)"><polygon points="-1.77635684e-14,0 60.7498645,0 60.7498645,53.9998718 -1.77635684e-14,53.9998718 -1.77635684e-14,0" stroke="none" fill="#F0AB00"></polygon></g></g></svg>