<?xml version="1.0" encoding="UTF-8"?><svg version="1.1" width="53px" height="54px" viewBox="0 0 53.0 54.0" xmlns="http://www.w3.org/2000/svg" xmlns:xlink="http://www.w3.org/1999/xlink"><defs><clipPath id="i0"><path d="M26.1561876,0 C40.5852876,0 52.2856992,11.6838291 52.3124206,26.1067493 C52.3390514,40.5179278 40.5864206,52.3021786 26.175139,52.312279 C19.9509526,52.3167011 14.2337155,50.1469752 9.74090161,46.5208775 C8.5726114,45.5780469 8.4852703,43.827105 9.54685605,42.7655192 L10.7352306,41.5771447 C11.6431455,40.6692298 13.0927193,40.5698381 14.0986869,41.3679586 C17.408791,43.9945774 21.597971,45.5623914 26.1561876,45.5623914 C36.8828695,45.5623914 45.5623914,36.8812216 45.5623914,26.1561876 C45.5623914,15.4295058 36.8812216,6.74998391 26.1561876,6.74998391 C21.0078006,6.74998391 16.3318588,8.75058949 12.8599471,12.0161991 L18.2128853,17.3691374 C19.2760161,18.4322681 18.523111,20.2499517 17.019773,20.2499517 L1.68749598,20.2499517 C0.755479919,20.2499517 0,19.4944718 0,18.5624557 L0,3.23017876 C0,1.72684067 1.81768365,0.973935666 2.88081436,2.03696337 L8.08790949,7.2440585 C12.7837296,2.75649749 19.1479913,0 26.1561876,0 Z M26.9999356,12.6562198 C28.3979082,12.6562198 29.5311796,13.7894912 29.5311796,15.1874638 L29.5311796,26.1929574 L33.8238711,29.5317976 C34.9273764,30.3899651 35.1261598,31.9803353 34.2678893,33.0838406 L33.2318467,34.4159984 C32.3735762,35.5195038 30.783309,35.7181842 29.6798037,34.8600167 L22.7811957,29.4944098 L22.7811957,15.1874638 C22.7811957,13.7894912 23.9144671,12.6562198 25.3124397,12.6562198 Z"></path></clipPath></defs><g transform="translate(0.0 0.9999999999999467)"><g clip-path="url(#i0)"><polygon points="0,0 52.3124658,0 52.3124658,52.3122858 0,52.3122858 0,0" stroke="none" fill="#151515"></polygon></g></g></svg>