<?xml version="1.0" encoding="UTF-8"?><svg version="1.1" width="53px" height="53px" viewBox="0 0 53.0 53.0" xmlns="http://www.w3.org/2000/svg" xmlns:xlink="http://www.w3.org/1999/xlink"><defs><clipPath id="i0"><path d="M26.1561876,0 C40.6008401,0 52.3123753,11.715758 52.3123753,26.1561876 C52.3123753,40.6050629 40.6008401,52.3123753 26.1561876,52.3123753 C11.7115352,52.3123753 0,40.6050629 0,26.1561876 C0,11.715758 11.7115352,0 26.1561876,0 Z M28.2655576,22.7811957 L21.5155737,22.7811957 C20.8166389,22.7811957 20.2499517,23.3478829 20.2499517,24.0468177 L20.2499517,26.5780616 C20.2499517,27.2769964 20.8166389,27.8436836 21.5155737,27.8436836 L22.7811957,27.8436836 L22.7811957,34.5936675 L21.5155737,34.5936675 C20.8166389,34.5936675 20.2499517,35.1603547 20.2499517,35.8592895 L20.2499517,38.3905335 C20.2499517,39.0894683 20.8166389,39.6561555 21.5155737,39.6561555 L30.7968016,39.6561555 C31.4957364,39.6561555 32.0624236,39.0894683 32.0624236,38.3905335 L32.0624236,35.8592895 C32.0624236,35.1603547 31.4957364,34.5936675 30.7968016,34.5936675 L29.5311796,34.5936675 L29.5311796,24.0468177 C29.5311796,23.3478829 28.9644924,22.7811957 28.2655576,22.7811957 Z M26.1561876,11.6015348 C23.7097099,11.6015348 21.7265107,13.584734 21.7265107,16.0312118 C21.7265107,18.4776896 23.7097099,20.4608887 26.1561876,20.4608887 C28.6026654,20.4608887 30.5858646,18.4776896 30.5858646,16.0312118 C30.5858646,13.584734 28.6026654,11.6015348 26.1561876,11.6015348 Z"></path></clipPath></defs><g clip-path="url(#i0)"><polygon points="0,0 52.3123753,0 52.3123753,52.3123753 0,52.3123753 0,0" stroke="none" fill="#2B9AF3"></polygon></g></svg>