<?xml version="1.0" encoding="UTF-8"?>
<svg width="53px" height="53px" viewBox="0 0 53 53" version="1.1" xmlns="http://www.w3.org/2000/svg" xmlns:xlink="http://www.w3.org/1999/xlink">
    <title></title>
    <g id="Icons" stroke="none" stroke-width="1" fill="none" fill-rule="evenodd">
        <g id="Icons/4.-Size-xl/Status/info-circle" fill="#2B9AF3">
            <path d="M26.1561876,52.3123753 C40.6008401,52.3123753 52.3123753,40.6050629 52.3123753,26.1561876 C52.3123753,11.715758 40.6008401,0 26.1561876,0 C11.7115352,0 0,11.715758 0,26.1561876 C0,40.6050629 11.7115352,52.3123753 26.1561876,52.3123753 Z M26.1561876,20.4608887 C23.7097099,20.4608887 21.7265107,18.4776896 21.7265107,16.0312118 C21.7265107,13.584734 23.7097099,11.6015348 26.1561876,11.6015348 C28.6026654,11.6015348 30.5858646,13.584734 30.5858646,16.0312118 C30.5858646,18.4776896 28.6026654,20.4608887 26.1561876,20.4608887 Z M30.7968016,39.6561555 L21.5155737,39.6561555 C20.8166389,39.6561555 20.2499517,39.0894683 20.2499517,38.3905335 L20.2499517,35.8592895 C20.2499517,35.1603547 20.8166389,34.5936675 21.5155737,34.5936675 L22.7811957,34.5936675 L22.7811957,27.8436836 L21.5155737,27.8436836 C20.8166389,27.8436836 20.2499517,27.2769964 20.2499517,26.5780616 L20.2499517,24.0468177 C20.2499517,23.3478829 20.8166389,22.7811957 21.5155737,22.7811957 L28.2655576,22.7811957 C28.9644924,22.7811957 29.5311796,23.3478829 29.5311796,24.0468177 L29.5311796,34.5936675 L30.7968016,34.5936675 C31.4957364,34.5936675 32.0624236,35.1603547 32.0624236,35.8592895 L32.0624236,38.3905335 C32.0624236,39.0894683 31.4957364,39.6561555 30.7968016,39.6561555 Z" id="info-circle"></path>
        </g>
    </g>
</svg>