<?xml version="1.0" encoding="UTF-8"?><svg version="1.1" width="61px" height="55px" viewBox="0 0 61.0 55.0" xmlns="http://www.w3.org/2000/svg" xmlns:xlink="http://www.w3.org/1999/xlink"><defs><clipPath id="i0"><path d="M44.6659091,0 C53.525263,-0.0315162491 60.7498552,7.1719616 60.7498552,16.0313155 L60.7498552,24.4687954 C60.7498552,25.8715058 59.6213216,27.0000393 58.2186112,27.0000393 L54.8436192,27.0000393 C53.4409088,27.0000393 52.3123753,25.8715058 52.3123753,24.4687954 L52.3123753,16.0313155 C52.3123753,11.8230812 48.8635348,8.39535499 44.6447948,8.43758358 C40.4682835,8.47981218 37.1249115,11.949664 37.1249115,16.1262783 L37.1249115,23.6250474 L42.1873994,23.6250474 C44.9823146,23.6250474 47.2498873,25.8926201 47.2498873,28.6875353 L47.2498873,48.937487 C47.2498873,51.7324022 44.9823146,53.999975 42.1873994,53.999975 L5.06248793,53.999975 C2.26757272,53.999975 0,51.7324022 0,48.937487 L0,28.6875353 C0,25.8926201 2.26757272,23.6250474 5.06248793,23.6250474 L28.6874316,23.6250474 L28.6874316,16.1895182 C28.6874316,7.33016435 35.8065553,0.0317236514 44.6659091,0 Z"></path></clipPath></defs><g transform="translate(0.0 0.9999999999999538)"><g clip-path="url(#i0)"><polygon points="0,-0.000103023313 60.7498552,-0.000103023313 60.7498552,53.999975 0,53.999975 0,-0.000103023313" stroke="none" fill="#151515"></polygon></g></g></svg>