<?xml version="1.0" encoding="UTF-8"?>
<svg width="53px" height="53px" viewBox="0 0 53 53" version="1.1" xmlns="http://www.w3.org/2000/svg" xmlns:xlink="http://www.w3.org/1999/xlink">
    <title></title>
    <g id="Icons" stroke="none" stroke-width="1" fill="none" fill-rule="evenodd">
        <g id="Icons/4.-Size-xl/Status/pause-circle" fill="#151515">
            <path d="M26.1561876,52.3123753 C40.6053719,52.3123753 52.3123753,40.6053719 52.3123753,26.1561876 C52.3123753,11.7070033 40.6053719,0 26.1561876,0 C11.7070033,0 0,11.7070033 0,26.1561876 C0,40.6053719 11.7070033,52.3123753 26.1561876,52.3123753 Z M22.7811957,36.2811635 L17.7187078,36.2811635 C16.7906056,36.2811635 16.0312118,35.5217697 16.0312118,34.5936675 L16.0312118,17.7187078 C16.0312118,16.7906056 16.7906056,16.0312118 17.7187078,16.0312118 L22.7811957,16.0312118 C23.7092979,16.0312118 24.4686917,16.7906056 24.4686917,17.7187078 L24.4686917,34.5936675 C24.4686917,35.5217697 23.7092979,36.2811635 22.7811957,36.2811635 Z M34.5936675,36.2811635 L29.5311796,36.2811635 C28.6030774,36.2811635 27.8436836,35.5217697 27.8436836,34.5936675 L27.8436836,17.7187078 C27.8436836,16.7906056 28.6030774,16.0312118 29.5311796,16.0312118 L34.5936675,16.0312118 C35.5217697,16.0312118 36.2811635,16.7906056 36.2811635,17.7187078 L36.2811635,34.5936675 C36.2811635,35.5217697 35.5217697,36.2811635 34.5936675,36.2811635 Z" id="pause-circle"></path>
        </g>
    </g>
</svg>