<?xml version="1.0" encoding="UTF-8"?>
<svg width="54px" height="54px" viewBox="0 0 54 54" version="1.1" xmlns="http://www.w3.org/2000/svg" xmlns:xlink="http://www.w3.org/1999/xlink">
    <title></title>
    <g id="Icons" stroke="none" stroke-width="1" fill="none" fill-rule="evenodd">
        <g id="Icons/4.-Size-xl/Status/pficon-unknown" fill="#151515">
            <path d="M49.7443359,16.7273437 L37.2779297,4.25566406 C34.4355469,1.41855469 30.7177734,0 27,0 C23.2822266,0 19.5644531,1.41855469 16.7220703,4.25566406 L4.25566406,16.7220703 C-1.41855469,22.3962891 -1.41855469,31.5984375 4.25566406,37.2726562 L16.7220703,49.7390625 C19.5644531,52.5814453 23.2822266,54 27,54 C30.7177734,54 34.4355469,52.5814453 37.2779297,49.7443359 L49.7443359,37.2779297 C55.4185547,31.6037109 55.4185547,22.4015625 49.7443359,16.7273437 Z M45.6890625,31.7566406 L31.7882812,45.6732422 C29.1515625,48.3099609 24.8800781,48.3152344 22.2380859,45.6785156 L8.31621094,31.7566406 C5.68476562,29.1199219 5.68476562,24.8484375 8.32148437,22.2169922 L22.2222656,8.353125 C24.8537109,5.72695312 29.1146484,5.72695312 31.7513672,8.34785156 L45.6837891,22.2169922 C48.3205078,24.8537109 48.3205078,29.1199219 45.6890625,31.7566406 Z M27.4904297,30.375 C33.0908203,30.375 37.6365234,26.4726562 37.6365234,21.8162109 C37.6365234,17.1597656 33.0960937,13.3734375 27.4904297,13.3734375 C19.3007812,13.3734375 17.6396484,17.8083984 17.3601562,21.4734375 C17.3601562,21.8478516 17.6765625,21.9375 18.1142578,21.9375 L23.4667969,21.9375 C23.7568359,21.9375 24.1523438,21.9111328 24.3,21.4365234 C24.3,19.1214844 30.7388672,18.8314453 30.7388672,21.8109375 C30.7388672,23.3033203 29.3308594,24.8326172 27.4904297,24.9433594 C25.65,25.0541016 23.5880859,25.3019531 23.5880859,27.5115234 L23.5880859,29.2042969 C23.5880859,30.1007812 24.0521484,30.375 24.890625,30.375 C25.734375,30.3802734 27.4904297,30.375 27.4904297,30.375 L27.4904297,30.375 Z M30.3380859,39.6193359 L30.3380859,34.5568359 C30.3380859,34.3248047 30.2537109,34.1349609 30.0902344,33.9609375 C29.9267578,33.7974609 29.7263672,33.7130859 29.4943359,33.7130859 L24.4318359,33.7130859 C24.1998047,33.7130859 24.0099609,33.7974609 23.8359375,33.9609375 C23.6724609,34.1244141 23.5880859,34.3248047 23.5880859,34.5568359 L23.5880859,39.6193359 C23.5880859,39.8513672 23.6724609,40.0412109 23.8359375,40.2152344 C23.9994141,40.3787109 24.1998047,40.4630859 24.4318359,40.4630859 L29.4943359,40.4630859 C29.7263672,40.4630859 29.9162109,40.3787109 30.0902344,40.2152344 C30.2589844,40.0464844 30.3380859,39.8460938 30.3380859,39.6193359 L30.3380859,39.6193359 Z" id="pficon-unknown"></path>
        </g>
    </g>
</svg>