<?xml version="1.0" encoding="UTF-8"?><svg version="1.1" width="54px" height="54px" viewBox="0 0 54.0 54.0" xmlns="http://www.w3.org/2000/svg" xmlns:xlink="http://www.w3.org/1999/xlink"><defs><clipPath id="i0"><path d="M26.9472656,0 C28.8105469,0 30.6123047,0.17578125 32.3525391,0.52734375 C34.0927734,0.87890625 35.7890625,1.42382812 37.4414062,2.16210938 C39.0585938,2.86523437 40.5878906,3.70019531 42.0292969,4.66699219 C43.4707031,5.63378906 44.7890625,6.73242188 45.984375,7.96289062 C47.2148438,9.15820312 48.3134766,10.4765625 49.2802734,11.9179688 C50.2470703,13.359375 51.0820312,14.8886719 51.7851562,16.5058594 C52.5234375,18.1582031 53.0683594,19.8544922 53.4199219,21.5947266 C53.7714844,23.3349609 53.9472656,25.1367188 53.9472656,27 C53.9472656,28.8632813 53.7714844,30.6738281 53.4199219,32.4316406 C53.0683594,34.1894531 52.5234375,35.8769531 51.7851562,37.4941406 C51.0820312,39.1464844 50.2470703,40.6845703 49.2802734,42.1083984 C48.3134766,43.5322266 47.2148438,44.859375 45.984375,46.0898438 C44.7890625,47.3203125 43.4707031,48.4189453 42.0292969,49.3857422 C40.5878906,50.3525391 39.0585938,51.1875 37.4414062,51.890625 C35.7890625,52.59375 34.0927734,53.1210938 32.3525391,53.4726562 C30.6123047,53.8242188 28.8105469,54 26.9472656,54 C25.1542969,54 23.4140625,53.8417969 21.7265625,53.5253906 C20.0390625,53.2089844 18.4042969,52.7167969 16.8222656,52.0488281 L20.3554688,45.8789062 C21.375,46.2304688 22.4208984,46.4941406 23.4931641,46.6699219 C24.5654297,46.8457031 25.6816406,46.9335938 26.8417969,46.9335938 C28.1777344,46.9335938 29.4873047,46.8105469 30.7705078,46.5644531 C32.0537109,46.3183594 33.3105469,45.9316406 34.5410156,45.4042969 C35.7363281,44.8769531 36.8525391,44.2617188 37.8896484,43.5585938 C38.9267578,42.8554688 39.9023438,42.046875 40.8164062,41.1328125 C41.7304688,40.2539062 42.5390625,39.2871094 43.2421875,38.2324219 C43.9453125,37.1777344 44.5605469,36.0527344 45.0878906,34.8574219 C45.6152344,33.6269531 46.0107422,32.3701172 46.2744141,31.0869141 C46.5380859,29.8037109 46.6699219,28.4765625 46.6699219,27.1054688 C46.6699219,25.7695312 46.5380859,24.4599609 46.2744141,23.1767578 C46.0107422,21.8935547 45.6152344,20.6367188 45.0878906,19.40625 C44.5605469,18.2109375 43.9453125,17.0947266 43.2421875,16.0576172 C42.5390625,15.0205078 41.7304688,14.0449219 40.8164062,13.1308594 C39.9023438,12.2167969 38.9267578,11.4082031 37.8896484,10.7050781 C36.8525391,10.0019531 35.7363281,9.38671875 34.5410156,8.859375 C33.3457031,8.33203125 32.1152344,7.9453125 30.8496094,7.69921875 C29.5839844,7.453125 28.2832031,7.3125 26.9472656,7.27734375 Z M7.69921875,32.3261719 C7.8046875,32.7480469 7.92773438,33.1699219 8.06835938,33.5917969 C8.20898438,34.0136719 8.3671875,34.4355469 8.54296875,34.8574219 C9.0703125,36.0527344 9.69433594,37.1777344 10.4150391,38.2324219 C11.1357422,39.2871094 11.9355469,40.2714844 12.8144531,41.1855469 C12.9550781,41.3261719 13.1044922,41.4580078 13.2626953,41.5810547 L13.4179688,41.7070312 C13.5195312,41.7929688 13.6171875,41.8828125 13.7109375,41.9765625 L10.1777344,48.1464844 C9.75585938,47.8300781 9.36035156,47.5048828 8.99121094,47.1708984 C8.62207031,46.8369141 8.26171875,46.4765625 7.91015625,46.0898438 C6.6796875,44.859375 5.58105469,43.5322266 4.61425781,42.1083984 C3.64746094,40.6845703 2.8125,39.1464844 2.109375,37.4941406 C1.7578125,36.7558594 1.45898437,35.9912109 1.21289062,35.2001953 C0.966796875,34.4091797 0.755859375,33.609375 0.580078125,32.8007812 Z M2.84765625,14.8710938 L9.22851562,18.0351562 C9.08789062,18.28125 8.96484375,18.5185547 8.859375,18.7470703 C8.75390625,18.9755859 8.6484375,19.2128906 8.54296875,19.4589844 C8.19140625,20.2675781 7.90136719,21.1025391 7.67285156,21.9638672 C7.44433594,22.8251953 7.27734375,23.7128906 7.171875,24.6269531 L0,25.1015625 C0.10546875,23.5898438 0.333984375,22.1220703 0.685546875,20.6982422 C1.03710938,19.2744141 1.51171875,17.8769531 2.109375,16.5058594 C2.21484375,16.2246094 2.32910156,15.9433594 2.45214844,15.6621094 C2.57519531,15.3808594 2.70703125,15.1171875 2.84765625,14.8710938 Z"></path></clipPath></defs><g clip-path="url(#i0)"><polygon points="0,0 53.9472656,0 53.9472656,54 0,54 0,0" stroke="none" fill="#151515"></polygon></g></svg>