<?xml version="1.0" encoding="UTF-8"?><svg version="1.1" width="54px" height="54px" viewBox="0 0 54.0 54.0" xmlns="http://www.w3.org/2000/svg" xmlns:xlink="http://www.w3.org/1999/xlink"><defs><clipPath id="i0"><path d="M27,0 C41.9132812,0 54,12.0867187 54,27 C54,41.9132812 41.9132812,54 27,54 C12.0867187,54 0,41.9132812 0,27 C0,12.0867187 12.0867187,0 27,0 Z M27.0052734,6.75 C25.3230469,6.75 23.7304688,7.06113281 22.2591797,7.678125 C20.7984375,8.28984375 19.4484375,9.21269531 18.2566406,10.4097656 C15.8361328,12.8355469 14.6126953,15.778125 14.6126953,19.153125 L14.6126953,20.334375 C13.7900391,20.4714844 12.7248047,20.8300781 11.7755859,21.7792969 L11.7333984,21.8214844 C10.6787109,22.9078125 10.1197266,24.2736328 10.1197266,25.7712891 L10.1197266,38.1375 C10.1197266,39.6720703 10.6892578,41.0484375 11.7703125,42.1294922 L11.7914062,42.1505859 C13.2416016,43.5744141 14.7445312,43.875 15.7570312,43.875 L38.2324219,43.875 C39.2554688,43.875 40.7742188,43.5744141 42.2138672,42.1347656 L42.2349609,42.1136719 L42.2560547,42.0925781 C43.3160156,41.0009766 43.875,39.6351563 43.875,38.1427734 L43.8802734,25.7712891 C43.8802734,24.2208984 43.3054688,22.8339844 42.2191406,21.7634766 C41.4439453,21.0041016 40.4947266,20.5294922 39.3873047,20.3396484 L39.3873047,19.153125 C39.3873047,15.7675781 38.1638672,12.825 35.7591797,10.4097656 C34.5673828,9.21269531 33.2173828,8.28984375 31.7513672,7.678125 C30.2800781,7.06113281 28.6822266,6.75 27.0052734,6.75 Z M27,10.125 C29.4679687,10.125 31.5931641,11.0109375 33.3650391,12.7880859 C35.1369141,14.5705078 36.0070312,16.6798828 36.0070312,19.153125 L36.0070312,23.625 L38.2482422,23.625 C38.8757813,23.625 39.403125,23.7357422 39.8460938,24.1734375 C40.2890625,24.6111328 40.5,25.14375 40.5052734,25.7765625 L40.5052734,38.1480469 C40.5052734,38.7755859 40.2732422,39.3029297 39.8355469,39.7511719 C39.3978516,40.1888672 38.8652344,40.5052734 38.2376953,40.5052734 L15.7570313,40.5052734 C15.1294922,40.5052734 14.6021484,40.1888672 14.1591797,39.7511719 C13.7267578,39.3134766 13.5,38.7808594 13.5,38.1480469 L13.5,25.7712891 C13.5,25.14375 13.7214844,24.6164063 14.1591797,24.1681641 C14.596875,23.7304688 15.1294922,23.625 15.7570313,23.625 L17.9876953,23.625 L17.9876953,19.153125 C17.9876953,16.6693359 18.8736328,14.5652344 20.6455078,12.7880859 C22.4173828,11.0109375 24.5320312,10.125 27,10.125 Z M27,14.7392578 C25.7554687,14.7392578 24.6955078,15.1822266 23.8148437,16.0628906 C22.9447266,16.9382812 22.5017578,18.0035156 22.5017578,19.2427734 L22.5017578,23.625 L31.5035156,23.625 L31.5035156,19.2375 C31.5035156,17.9929687 31.0605469,16.9330078 30.1798828,16.0523437 C29.3150391,15.1769531 28.2445312,14.7392578 27,14.7392578 Z"></path></clipPath></defs><g clip-path="url(#i0)"><polygon points="0,0 54,0 54,54 0,54 0,0" stroke="none" fill="#151515"></polygon></g></svg>