<?xml version="1.0" encoding="UTF-8"?><svg version="1.1" width="54px" height="54px" viewBox="0 0 54.0 54.0" xmlns="http://www.w3.org/2000/svg" xmlns:xlink="http://www.w3.org/1999/xlink"><defs><clipPath id="i0"><path d="M27.003375,0 C41.887125,0 54,12.11625 54,27 C54,41.8905 41.887125,54 27.003375,54 C12.1095,54 0,41.8905 0,27 C0,12.11625 12.1095,0 27.003375,0 Z M27.003375,6.746625 C15.8355,6.746625 6.753375,15.832125 6.753375,26.996625 C6.753375,38.17125 15.8355,47.246625 27.003375,47.246625 C38.167875,47.246625 47.253375,38.167875 47.253375,26.996625 C47.25,15.832125 38.167875,6.746625 27.003375,6.746625 Z M36.2795625,13.5016875 C36.7094856,13.5016875 37.0646394,13.8266461 37.1167346,14.2403102 L37.1233125,14.3454375 L37.1233125,15.1891875 C37.1233125,23.6266875 28.6858125,23.5760625 28.6858125,27.0016875 C28.6858125,30.3771094 36.8617006,30.3775247 37.1171971,38.4248534 L37.1233125,38.8141875 L37.1233125,39.6579375 C37.1233125,40.0878606 36.8012297,40.4430144 36.3853535,40.4951096 L36.2795625,40.5016875 L17.7170625,40.5016875 C17.2871394,40.5016875 16.9319856,40.1796047 16.8798904,39.7637285 L16.8733125,39.6579375 L16.8733125,38.8141875 C16.8733125,30.3260625 25.3108125,30.3260625 25.3108125,27.0016875 C25.3108125,23.7334018 17.1390438,23.5801943 16.8796226,15.5823483 L16.8733125,15.1891875 L16.8733125,14.3454375 C16.8733125,13.9186298 17.1953953,13.5608399 17.6112715,13.5083207 L17.7170625,13.5016875 L36.2795625,13.5016875 Z M26.2940149,32.233919 L26.1140625,32.2936875 C25.3175625,32.5603125 22.5061875,33.4648125 22.1146875,36.2188125 L22.1120239,36.2369733 L22.1067564,36.2733909 L22.101589,36.3098821 C22.0981831,36.3342195 22.0948609,36.3585622 22.0916558,36.382823 L22.0869403,36.4191417 C22.0446741,36.7506946 22.0276447,37.0585644 22.1226322,37.1168228 L22.1585625,37.1266875 L31.8414375,37.1266875 C31.9754868,37.1266875 31.9601014,36.7964851 31.9154538,36.4334561 L31.9108959,36.3970547 L31.9061697,36.3605007 L31.9013018,36.32386 C31.8996585,36.3116392 31.8979961,36.2994151 31.896319,36.2871986 L31.8886875,36.2323125 C31.5106875,33.5120625 28.6858125,32.5738125 27.8893125,32.2936875 C27.077625,32.0147679 27.0196473,31.994845 26.2940149,32.233919 Z M31.8414375,16.736625 L22.1619375,16.736625 C22.0234199,16.736625 22.0470239,17.0917813 22.0934521,17.4694838 L22.0980116,17.5060949 L22.1003362,17.5244323 L22.1050569,17.5611289 C22.1082313,17.5855918 22.111454,17.610037 22.1146875,17.634375 C22.4926875,20.354625 25.3175625,21.292875 26.1140625,21.573 C26.9716193,21.8665483 26.9911092,21.8732199 27.8326226,21.5930146 L27.8926875,21.573 C28.6891875,21.303 31.5005625,20.401875 31.8920625,17.6445 L31.8947594,17.6262218 L31.9026751,17.5711611 L31.9102639,17.515944 C31.9628705,17.1232912 31.9844234,16.736625 31.8414375,16.736625 Z"></path></clipPath></defs><g transform="translate(0.00074926829256583 0.02266536585364065)"><g clip-path="url(#i0)"><polygon points="0,0 54,0 54,54 0,54 0,0" stroke="none" fill="#151515"></polygon></g></g></svg>