<?xml version="1.0" encoding="UTF-8"?>
<svg width="54px" height="40px" viewBox="0 0 54 40" version="1.1" xmlns="http://www.w3.org/2000/svg" xmlns:xlink="http://www.w3.org/1999/xlink">
    <title></title>
    <g id="Icons" stroke="none" stroke-width="1" fill="none" fill-rule="evenodd">
        <g id="Icons/4.-Size-xl/Status/pficon-trend-up" fill="#151515">
            <path d="M54,1.8 C54,0.804375 53.195625,0 52.2,0 L27,0 C26.004375,0 25.2,0.804375 25.2,1.8 L25.2,5.4 C25.2,6.395625 26.004375,7.2 27,7.2 L41.709375,7.2 L25.329375,23.74875 L19.333125,17.73 C18.63,17.026875 17.488125,17.02125 16.785,17.73 L0.52875,33.98625 C0.174375,34.335 0,34.79625 0,35.251875 C0,35.713125 0.174375,36.174375 0.52875,36.523125 L3.076875,39.07125 C3.425625,39.42 3.886875,39.6 4.348125,39.6 C4.809375,39.6 5.270625,39.425625 5.619375,39.07125 L18.050625,26.64 L24.046875,32.65875 C24.75,33.361875 25.891875,33.3675 26.595,32.65875 L46.8,12.290625 L46.74375,27 C46.74375,27.995625 47.491875,28.8 48.4875,28.8 L52.0875,28.8 C53.083125,28.8 54,27.995625 54,27 L54,1.8 Z" id="pficon-trend-up"></path>
        </g>
    </g>
</svg>