<?xml version="1.0" encoding="UTF-8"?><svg version="1.1" width="54px" height="54px" viewBox="0 0 54.0 54.0" xmlns="http://www.w3.org/2000/svg" xmlns:xlink="http://www.w3.org/1999/xlink"><defs><clipPath id="i0"><path d="M27.003375,0 C41.887125,0 54,12.1044293 54,26.9736585 C54,41.8496312 41.887125,53.9473171 27.003375,53.9473171 C12.1095,53.9473171 0,41.8496312 0,26.9736585 C0,12.1044293 12.1095,0 27.003375,0 Z M27.003375,6.74004293 C15.8355,6.74004293 6.753375,15.816679 6.753375,26.9702868 C6.753375,38.1340098 15.8355,47.2005307 27.003375,47.2005307 C38.167875,47.2005307 47.253375,38.130638 47.253375,26.9702868 C47.25,15.816679 38.167875,6.74004293 27.003375,6.74004293 Z M13.9201875,22.7607102 C16.2501388,22.7607102 18.1389375,24.6476662 18.1389375,26.9753444 C18.1389375,29.3030226 16.2501388,31.1899785 13.9201875,31.1899785 C11.5902362,31.1899785 9.7014375,29.3030226 9.7014375,26.9753444 C9.7014375,24.6476662 11.5902362,22.7607102 13.9201875,22.7607102 Z M27.0510469,22.7607102 C29.3809982,22.7607102 31.2697969,24.6476662 31.2697969,26.9753444 C31.2697969,29.3030226 29.3809982,31.1899785 27.0510469,31.1899785 C24.7210956,31.1899785 22.8322969,29.3030226 22.8322969,26.9753444 C22.8322969,24.6476662 24.7210956,22.7607102 27.0510469,22.7607102 Z M40.1291719,22.7607102 C42.4591232,22.7607102 44.3479219,24.6476662 44.3479219,26.9753444 C44.3479219,29.3030226 42.4591232,31.1899785 40.1291719,31.1899785 C37.7992206,31.1899785 35.9104219,29.3030226 35.9104219,26.9753444 C35.9104219,24.6476662 37.7992206,22.7607102 40.1291719,22.7607102 Z"></path></clipPath></defs><g transform="translate(0.00074926829256583 0.02266536585365131)"><g clip-path="url(#i0)"><polygon points="0,0 54,0 54,53.9473171 0,53.9473171 0,0" stroke="none" fill="#151515"></polygon></g></g></svg>