<?xml version="1.0" encoding="UTF-8"?><svg version="1.1" width="54px" height="54px" viewBox="0 0 54.0 54.0" xmlns="http://www.w3.org/2000/svg" xmlns:xlink="http://www.w3.org/1999/xlink"><defs><clipPath id="i0"><path d="M50.625,20.25 C52.488238,20.2517443 53.9982555,21.761762 54,23.625 L54,50.625 C53.9982555,52.488238 52.488238,53.9982555 50.625,54 L23.625,54 C21.761762,53.9982555 20.2517443,52.488238 20.2499503,50.625 L20.2499503,30.8443359 C20.2481266,30.6722822 20.3509297,30.5163315 20.5097923,30.4502354 C20.6686548,30.3841393 20.8517388,30.4211443 20.9724609,30.54375 L23.5037109,33.075 C23.5820626,33.1553683 23.6256328,33.2633467 23.625,33.3755859 L23.625,50.625 L50.625,50.625 L50.625,23.625 L33.3755859,23.625 C33.2631594,23.6266241 33.1548152,23.5829063 33.075,23.5037109 L30.54375,20.9724609 C30.4238683,20.8507976 30.3885777,20.6691355 30.4541893,20.5114374 C30.519801,20.3537392 30.6735346,20.2507222 30.8443359,20.25 Z M9.43753903,9.4480859 C10.7412596,8.14436527 12.8530843,8.13815248 14.1644531,9.43417969 L37.0248047,32.2839844 L41.8921875,27.4007812 C42.6251953,26.6677734 43.875,27.1845703 43.875,28.2181641 L43.875,42.1558594 C43.875,43.1051939 43.1051939,43.875 42.1558594,43.875 L28.2234375,43.875 C27.1898437,43.875 26.6730469,42.6199219 27.4060547,41.8921875 L32.2787109,37.0353516 L9.42363281,14.175 C8.1276056,12.8636311 8.1338184,10.7518065 9.43753903,9.4480859 Z M2.953125,23.625 C3.18612013,23.625 3.375,23.8138799 3.375,24.046875 L3.375,27 L6.328125,27 C6.56112013,27 6.75,27.1888799 6.75,27.421875 L6.75,29.953125 C6.75,30.1861201 6.56112013,30.375 6.328125,30.375 L3.375,30.375 C1.51176197,30.3732557 0.00174433383,28.863238 0,27 L0,24.046875 C0,23.8138799 0.188879871,23.625 0.421875,23.625 Z M16.453125,27 C16.6861201,27 16.875,27.1888799 16.875,27.421875 L16.875,29.953125 C16.875,30.1861201 16.6861201,30.375 16.453125,30.375 L10.546875,30.375 C10.3138799,30.375 10.125,30.1861201 10.125,29.953125 L10.125,27.421875 C10.125,27.1888799 10.3138799,27 10.546875,27 L16.453125,27 Z M2.953125,10.125 C3.18612013,10.125 3.375,10.3138799 3.375,10.546875 L3.375,19.828125 C3.375,20.0611201 3.18612013,20.25 2.953125,20.25 L0.421875,20.25 C0.188879871,20.25 0,20.0611201 0,19.828125 L0,10.546875 C0,10.3138799 0.188879871,10.125 0.421875,10.125 Z M29.953125,10.125 C30.1861201,10.125 30.375,10.3138799 30.375,10.546875 L30.375,16.453125 C30.375,16.6861201 30.1861201,16.875 29.953125,16.875 L27.421875,16.875 C27.1888799,16.875 27,16.6861201 27,16.453125 L27,10.546875 C27,10.3138799 27.1888799,10.125 27.421875,10.125 Z M27,0 C28.863238,0.00174433383 30.3732557,1.51176197 30.375,3.375 L30.375,6.328125 C30.375,6.56112013 30.1861201,6.75 29.953125,6.75 L27.421875,6.75 C27.1888799,6.75 27,6.56112013 27,6.328125 L27,3.375 L24.046875,3.375 C23.8138799,3.375 23.625,3.18612013 23.625,2.953125 L23.625,0.421875 C23.625,0.188879871 23.8138799,0 24.046875,0 Z M6.328125,0 C6.56112013,0 6.75,0.188879871 6.75,0.421875 L6.75,2.953125 C6.75,3.18612013 6.56112013,3.375 6.328125,3.375 L3.375,3.375 L3.375,6.328125 C3.375,6.56112013 3.18612013,6.75 2.953125,6.75 L0.421875,6.75 C0.188879871,6.75 0,6.56112013 0,6.328125 L0,3.375 C0.00174433383,1.51176197 1.51176197,0.00174433383 3.375,0 Z M19.828125,0 C20.0611201,0 20.25,0.188879871 20.25,0.421875 L20.25,2.953125 C20.25,3.18612013 20.0611201,3.375 19.828125,3.375 L10.546875,3.375 C10.3138799,3.375 10.125,3.18612013 10.125,2.953125 L10.125,0.421875 C10.125,0.188879871 10.3138799,0 10.546875,0 Z"></path></clipPath></defs><g transform=""><g clip-path="url(#i0)"><polygon points="0,0 54,0 54,54 0,54 0,0" stroke="none" fill="#151515"></polygon></g></g></svg>