<?xml version="1.0" encoding="UTF-8"?><svg version="1.1" width="54px" height="54px" viewBox="0 0 54.0 54.0" xmlns="http://www.w3.org/2000/svg" xmlns:xlink="http://www.w3.org/1999/xlink"><defs><clipPath id="i0"><path d="M27.0052734,0 C41.8869141,0 54,12.1130859 54,27 C54,41.8869141 41.8869141,54 27.0052734,54 C12.1130859,54 0,41.8869141 0,27 C0,12.1130859 12.1130859,0 27.0052734,0 Z M27.0052734,6.74472656 C15.8361328,6.74472656 6.75527344,15.8308594 6.75527344,26.9947266 C6.75527344,38.1691406 15.8361328,47.2447266 27.0052734,47.2447266 C38.1691406,47.2447266 47.2552734,38.1638672 47.2552734,26.9947266 C47.25,15.8308594 38.1691406,6.74472656 27.0052734,6.74472656 Z M36.28125,13.5 C36.7453125,13.5 37.125,13.8796875 37.125,14.34375 L37.125,15.1875 C37.125,23.625 28.6875,23.5722656 28.6875,27 C28.6875,30.4277344 37.125,30.375 37.125,38.8125 L37.125,39.65625 C37.125,40.1203125 36.7453125,40.5 36.28125,40.5 L17.71875,40.5 C17.2546875,40.5 16.875,40.1203125 16.875,39.65625 L16.875,38.8125 C16.875,30.3222656 25.3125,30.3222656 25.3125,27 C25.3125,23.6777344 16.875,23.5722656 16.875,15.1875 L16.875,14.34375 C16.875,13.8796875 17.2546875,13.5 17.71875,13.5 Z M27.8912109,32.2892578 C27.0158203,31.9886719 27.0158203,31.9886719 26.1140625,32.2892578 L26.0308625,32.3173013 C25.138954,32.6183126 22.494443,33.5489289 22.1167969,36.2179688 C22.0535156,36.6503906 22.0060547,37.125 22.1642578,37.125 L31.8462891,37.125 C32.0044922,37.125 31.9517578,36.6609375 31.89375,36.2285156 C31.5140625,33.5074219 28.6875,32.56875 27.8912109,32.2892578 Z"></path></clipPath></defs><g clip-path="url(#i0)"><polygon points="0,0 54,0 54,54 0,54 0,0" stroke="none" fill="#151515"></polygon></g></svg>