<?xml version="1.0" encoding="UTF-8"?>
<svg width="54px" height="54px" viewBox="0 0 54 54" version="1.1" xmlns="http://www.w3.org/2000/svg" xmlns:xlink="http://www.w3.org/1999/xlink">
    <title></title>
    <g id="Icons" stroke="none" stroke-width="1" fill="none" fill-rule="evenodd">
        <g id="Icons/4.-Size-xl/Status/pficon-new-process" fill="#151515">
            <path d="M27.0041243,0.0226653659 C41.8878743,0.0226653659 54.0007493,12.1389154 54.0007493,27.0226654 C54.0007493,41.9131654 41.8878743,54.0226654 27.0041243,54.0226654 C12.1102493,54.0226654 0.000749268293,41.9131654 0.000749268293,27.0226654 C0.000749268293,12.1389154 12.1102493,0.0226653659 27.0041243,0.0226653659 Z M27.0041243,6.76929037 C15.8362493,6.76929037 6.75412427,15.8547904 6.75412427,27.0192904 C6.75412427,38.1939154 15.8362493,47.2692904 27.0041243,47.2692904 C38.1686243,47.2692904 47.2541243,38.1905404 47.2541243,27.0192904 C47.2507493,15.8547904 38.1686243,6.76929037 27.0041243,6.76929037 Z M36.2803118,13.5243529 C36.7460618,13.5243529 37.1240618,13.9057279 37.1240618,14.3681029 L37.1240618,14.3681029 L37.1240618,15.2118529 C37.1240618,23.6493529 28.6865618,23.5987279 28.6865618,27.0243529 C28.6865618,30.4533529 37.1240618,30.3993529 37.1240618,38.8368529 L37.1240618,38.8368529 L37.1240618,39.6806029 C37.1240618,40.1463529 36.7460618,40.5243529 36.2803118,40.5243529 L36.2803118,40.5243529 L17.7178118,40.5243529 C17.2520618,40.5243529 16.8740618,40.1463529 16.8740618,39.6806029 L16.8740618,39.6806029 L16.8740618,38.8368529 C16.8740618,30.3487279 25.3115618,30.3487279 25.3115618,27.0243529 C25.3115618,23.7033529 16.8740618,23.5987279 16.8740618,15.2118529 L16.8740618,15.2118529 L16.8740618,14.3681029 C16.8740618,13.9057279 17.2520618,13.5243529 17.7178118,13.5243529 L17.7178118,13.5243529 L36.2803118,13.5243529 Z M27.8900618,32.3163529 C27.0159368,32.0159779 27.0159368,32.0159779 26.1148118,32.3163529 C25.3183118,32.5829779 22.5069368,33.4874779 22.1154368,36.2414779 C22.1145461,36.2475248 22.1136581,36.2535788 22.1127732,36.2596386 L22.1075056,36.2960563 L22.1075056,36.2960563 L22.1023383,36.3325474 C22.0989324,36.3568848 22.0956101,36.3812276 22.092405,36.4054884 L22.0876895,36.4418071 C22.0407271,36.8101992 22.0249212,37.1493529 22.1593118,37.1493529 L22.1593118,37.1493529 L31.8421868,37.1493529 C31.9762361,37.1493529 31.9608507,36.8191505 31.9162031,36.4561214 L31.9116452,36.4197201 L31.9116452,36.4197201 L31.906919,36.3831661 L31.906919,36.3831661 L31.9020511,36.3465253 C31.9004078,36.3343046 31.8987454,36.3220805 31.8970682,36.309864 L31.8894368,36.2549779 C31.5114368,33.5347279 28.6865618,32.5964779 27.8900618,32.3163529 Z M31.8421868,16.7592904 L22.1626868,16.7592904 C22.0241692,16.7592904 22.0477731,17.1144467 22.0942013,17.4921492 L22.0987609,17.5287603 C22.0995312,17.5348701 22.1003062,17.540983 22.1010854,17.5470976 L22.1058062,17.5837942 C22.1089806,17.6082572 22.1122033,17.6327023 22.1154368,17.6570404 C22.4934368,20.3772904 25.3183118,21.3155404 26.1148118,21.5956654 C26.9723686,21.8892136 26.9918585,21.8958852 27.8333719,21.61568 L27.8934368,21.5956654 C28.6899368,21.3256654 31.5013118,20.4245404 31.8928118,17.6671654 C31.8937149,17.6610809 31.8946141,17.6549876 31.8955087,17.6488872 L31.9034244,17.5938265 L31.9034244,17.5938265 L31.9110131,17.5386094 C31.9636198,17.1459565 31.9851727,16.7592904 31.8421868,16.7592904 L31.8421868,16.7592904 Z" id="new-process"></path>
        </g>
    </g>
</svg>