<?xml version="1.0" encoding="UTF-8"?>
<svg width="54px" height="54px" viewBox="0 0 54 54" version="1.1" xmlns="http://www.w3.org/2000/svg" xmlns:xlink="http://www.w3.org/1999/xlink">
    <title></title>
    <g id="Icons" stroke="none" stroke-width="1" fill="none" fill-rule="evenodd">
        <g id="Icons/4.-Size-xl/Status/pficon-running" fill="#151515">
            <path d="M27,0 C12.0867187,0 0,12.0867187 0,27 C0,41.9132812 12.0867187,54 27,54 C41.9132812,54 54,41.9132812 54,27 C54,12.0867187 41.9132812,0 27,0 Z M8.14746094,19.0529297 C9.21796875,16.5849609 10.6892578,14.4123047 12.5455078,12.5455078 C14.4123047,10.6787109 16.5796875,9.21796875 19.0529297,8.14746094 C21.5208984,7.07695313 24.1734375,6.54433594 26.9841797,6.54433594 C29.7896484,6.54433594 32.4421875,7.07695313 34.9154297,8.14746094 C37.3833984,9.21796875 39.5560547,10.6892578 41.4228516,12.5455078 C43.2896484,14.4123047 44.7503906,16.5849609 45.8208984,19.0529297 C46.5328125,20.6560547 47.0021484,22.3066406 47.2447266,24.0416016 L38.2851562,24.0416016 C37.4044922,24.0416016 36.5765625,24.4898437 36.0914062,25.2228516 L34.8837891,27.0685547 L28.9564453,15.3087891 C28.3078125,14.0167969 26.7257813,13.4894531 25.4390625,14.1539063 C24.8220703,14.4650391 24.3685547,14.9976563 24.1365234,15.6462891 L19.0054687,30.5648438 L16.6060547,25.5392578 C16.1736328,24.6216797 15.2455078,24.046875 14.2330078,24.046875 L6.75,24.046875 C6.98730469,22.3066406 7.45664063,20.6402344 8.14746094,19.0529297 Z M45.8367188,34.9470703 C44.7662109,37.4414062 43.2949219,39.6087891 41.4386719,41.4544922 C39.5824219,43.3001953 37.4044922,44.7556641 34.93125,45.8261719 C32.4632813,46.8966797 29.8107422,47.4292969 27,47.4292969 C24.1945313,47.4292969 21.5419922,46.8966797 19.06875,45.8261719 C16.6007813,44.7556641 14.428125,43.2949219 12.5613281,41.4544922 C10.6945313,39.6140625 9.23378906,37.4414062 8.16328125,34.9470703 C7.39335937,33.1382812 6.89765625,31.2609375 6.68144531,29.2939453 L12.5613281,29.2939453 L17.0068359,38.6226563 C17.4392578,39.5402344 18.3673828,40.1150391 19.3798828,40.1150391 L19.5222656,40.1150391 C20.5822266,40.0570313 21.5103516,39.3556641 21.8583984,38.3431641 L27.0632812,23.2347656 L32.2470703,33.5021484 C32.6689453,34.3353516 33.5126953,34.8890625 34.4408203,34.9365234 C35.3320312,34.9839844 36.2707031,34.5410156 36.7769531,33.7552734 L39.6931641,29.2992188 L47.3080078,29.2992188 C47.1023438,31.2609375 46.6119141,33.1488281 45.8367188,34.9470703 Z" id="pficon-running"></path>
        </g>
    </g>
</svg>