<?xml version="1.0" encoding="UTF-8"?><svg version="1.1" width="54px" height="54px" viewBox="0 0 54.0 54.0" xmlns="http://www.w3.org/2000/svg" xmlns:xlink="http://www.w3.org/1999/xlink"><defs><clipPath id="i0"><path d="M0.821394532,0.725973397 C1.78437372,-0.239923919 3.34803708,-0.242289521 4.3139344,0.720689676 L25.0298211,21.4994526 C25.6614624,21.2666795 26.3295988,21.1485836 27.0027627,21.150727 C30.2026295,21.1553921 32.7938343,23.7513263 32.7926646,26.9511964 C32.7949586,27.6253588 32.6770482,28.2945315 32.4444674,28.9273082 L36.4162408,32.8948546 C38.818894,29.1114906 38.6935945,24.2504942 36.0992175,20.5959362 C35.3552695,19.5339082 35.5925086,18.0650337 36.6529515,17.3147452 C37.1605401,16.9527183 37.7914043,16.807736 38.4061172,16.9118405 C39.0208301,17.0159451 39.5687778,17.360565 39.9288588,17.869536 C41.833112,20.5325316 42.8296219,23.6811012 42.8296219,26.9723313 C42.8399181,30.2151085 41.8388721,33.3804087 39.9658448,36.0275731 C39.9120551,36.1077889 39.8521723,36.1837465 39.7867267,36.2547731 L43.6628647,40.13778 C50.0670937,32.2502718 49.8848639,20.9034629 43.2306563,13.2256732 C42.2071995,12.042648 42.322913,10.2461827 43.5048815,9.22114072 C44.067986,8.72653129 44.8053259,8.47733165 45.5530313,8.52892492 C46.3007368,8.58051819 46.9968608,8.92862989 47.4866939,9.49589424 C56.096646,19.4207045 56.1794408,34.1424237 47.6816632,44.1634473 L53.1825457,49.6685567 C54.148297,50.6327031 54.1495983,52.1971945 53.1854518,53.1629458 C52.2213053,54.1286975 50.6568139,54.1299984 49.6910625,53.1658518 L28.9550977,32.3876174 L21.5494338,24.9703292 L17.5517701,20.9657967 L10.3315648,13.7334388 L6.31276624,9.71781054 L0.826678253,4.21851327 C-0.139219063,3.25553407 -0.141584666,1.69187071 0.821394532,0.725973397 Z M3.43842176,13.8391133 L7.61890218,18.0333313 C6.31263304,20.8218926 5.634961,23.8633899 5.63380803,26.9427424 C5.63455901,31.990888 7.45620181,36.8693637 10.7643016,40.6825317 C11.7951556,41.8655569 11.6794421,43.6614938 10.5001155,44.6860074 C9.99098078,45.1388557 9.33218811,45.3871264 8.65081298,45.3830337 C7.83598123,45.381366 7.06121109,45.0293027 6.5241151,44.4165376 C-0.773951935,36.0042314 -2.07575546,23.9424814 3.2593036,14.166704 C3.31742454,14.0557458 3.38030082,13.9500714 3.43842176,13.8391133 Z M15.7492453,27.3632824 C15.8175837,29.5003781 16.5100204,31.5739095 17.7451543,33.3260063 C18.4946137,34.3899233 18.2417349,35.8596929 17.1797961,36.6119527 C16.784348,36.8902967 16.311793,37.0380856 15.8282202,37.0347655 C15.0607642,37.0361245 14.3409547,36.6627073 13.9001902,36.0344419 C11.0883943,32.0160097 10.3002462,26.9203726 11.7666235,22.2402303 L15.7700992,26.25216 C15.7542481,26.4899275 15.7436806,26.7335071 15.7436806,26.9876541 Z"></path></clipPath></defs><g clip-path="url(#i0)"><polygon points="0,1.11022302e-16 54,1.11022302e-16 54,53.8881115 0,53.8881115 0,1.11022302e-16" stroke="none" fill="#151515"></polygon></g></svg>