<?xml version="1.0" encoding="UTF-8"?><svg version="1.1" width="54px" height="54px" viewBox="0 0 54.0 54.0" xmlns="http://www.w3.org/2000/svg" xmlns:xlink="http://www.w3.org/1999/xlink"><defs><clipPath id="i0"><path d="M27,0 C41.9132812,0 54,12.0867187 54,27 C54,41.9132812 41.9132812,54 27,54 C12.0867187,54 0,41.9132812 0,27 C0,12.0867187 12.0867187,0 27,0 Z M27,6.75 C15.8150391,6.75 6.75,15.8150391 6.75,27 C6.75,38.1849609 15.8150391,47.25 27,47.25 C38.1849609,47.25 47.25,38.1849609 47.25,27 C47.25,15.8150391 38.1849609,6.75 27,6.75 Z M27,15.1875 C28.8609592,15.1947271 30.3677729,16.7015408 30.375,18.5625 L30.375,35.4375 C30.375,37.301461 28.863961,38.8125 27,38.8125 C25.136039,38.8125 23.625,37.301461 23.625,35.4375 L23.625,18.5625 C23.6322271,16.7015408 25.1390408,15.1947271 27,15.1875 Z"></path></clipPath></defs><g clip-path="url(#i0)"><polygon points="0,0 54,0 54,54 0,54 0,0" stroke="none" fill="#151515"></polygon></g></svg>