<?xml version="1.0" encoding="UTF-8"?><svg version="1.1" width="54px" height="54px" viewBox="0 0 54.0 54.0" xmlns="http://www.w3.org/2000/svg" xmlns:xlink="http://www.w3.org/1999/xlink"><defs><clipPath id="i0"><path d="M27.0052734,0 C41.8921875,0 54,12.1130859 54,27 C54,41.8869141 41.8921875,54 27.0052734,54 C12.1183594,54 0,41.8869141 0,27 C0,12.1183594 12.1130859,0 27.0052734,0 Z M27,6.75 C15.8308594,6.75 6.75,15.8361328 6.75,27 C6.75,38.1744141 15.8308594,47.25 27,47.25 C38.1638672,47.25 47.25,38.1691406 47.25,27 C47.25,15.8308594 38.1638672,6.75 27,6.75 Z M40.6054688,33.75 C38.1216797,38.7492187 32.9589844,42.1875 27,42.1875 C21.0410156,42.1875 15.8783203,38.7492187 13.3945312,33.75 Z"></path></clipPath></defs><g transform=""><g clip-path="url(#i0)"><polygon points="0,0 54,0 54,54 0,54 0,0" stroke="none" fill="#151515"></polygon></g></g></svg>