<?xml version="1.0" encoding="UTF-8"?><svg version="1.1" width="54px" height="54px" viewBox="0 0 54.0 54.0" xmlns="http://www.w3.org/2000/svg" xmlns:xlink="http://www.w3.org/1999/xlink"><defs><clipPath id="i0"><path d="M27,0 C41.9132812,0 54,12.0867187 54,27 C54,41.9132812 41.9132812,54 27,54 C12.0867187,54 0,41.9132812 0,27 C0,12.0867187 12.0867187,0 27,0 Z M27.0632812,23.2347656 L21.8583984,38.3431641 C21.5103516,39.3556641 20.5822266,40.0570313 19.5222656,40.1150391 L19.3798828,40.1150391 C18.3673828,40.1150391 17.4392578,39.5402344 17.0068359,38.6226563 L12.5613281,29.2939453 L6.68144531,29.2939453 C6.89765625,31.2609375 7.39335937,33.1382812 8.16328125,34.9470703 C9.23378906,37.4414062 10.6945313,39.6140625 12.5613281,41.4544922 C14.428125,43.2949219 16.6007813,44.7556641 19.06875,45.8261719 C21.5419922,46.8966797 24.1945313,47.4292969 27,47.4292969 C29.8107422,47.4292969 32.4632813,46.8966797 34.93125,45.8261719 C37.4044922,44.7556641 39.5824219,43.3001953 41.4386719,41.4544922 C43.2949219,39.6087891 44.7662109,37.4414062 45.8367188,34.9470703 C46.6119141,33.1488281 47.1023438,31.2609375 47.3080078,29.2992188 L39.6931641,29.2992188 L36.7769531,33.7552734 C36.2707031,34.5410156 35.3320312,34.9839844 34.4408203,34.9365234 C33.5126953,34.8890625 32.6689453,34.3353516 32.2470703,33.5021484 L27.0632812,23.2347656 Z M26.9841797,6.54433594 C24.1734375,6.54433594 21.5208984,7.07695313 19.0529297,8.14746094 C16.5796875,9.21796875 14.4123047,10.6787109 12.5455078,12.5455078 C10.6892578,14.4123047 9.21796875,16.5849609 8.14746094,19.0529297 C7.45664063,20.6402344 6.98730469,22.3066406 6.75,24.046875 L14.2330078,24.046875 C15.2455078,24.046875 16.1736328,24.6216797 16.6060547,25.5392578 L19.0054687,30.5648438 L24.1365234,15.6462891 C24.3685547,14.9976563 24.8220703,14.4650391 25.4390625,14.1539063 C26.7257813,13.4894531 28.3078125,14.0167969 28.9564453,15.3087891 L34.8837891,27.0685547 L36.0914062,25.2228516 C36.5765625,24.4898437 37.4044922,24.0416016 38.2851562,24.0416016 L47.2447266,24.0416016 C47.0021484,22.3066406 46.5328125,20.6560547 45.8208984,19.0529297 C44.7503906,16.5849609 43.2896484,14.4123047 41.4228516,12.5455078 C39.5560547,10.6892578 37.3833984,9.21796875 34.9154297,8.14746094 C32.4421875,7.07695313 29.7896484,6.54433594 26.9841797,6.54433594 Z"></path></clipPath></defs><g clip-path="url(#i0)"><polygon points="0,0 54,0 54,54 0,54 0,0" stroke="none" fill="#151515"></polygon></g></svg>