<?xml version="1.0" encoding="UTF-8"?><svg version="1.1" width="48px" height="54px" viewBox="0 0 48.0 54.0" xmlns="http://www.w3.org/2000/svg" xmlns:xlink="http://www.w3.org/1999/xlink"><defs><clipPath id="i0"><path d="M45.4306641,0 C46.4378906,0 47.25,0.754101563 47.25,1.6875 L47.25,23.8464844 C47.25,40.5 26.8576172,54 23.6513672,54 C20.4451172,54 0,40.5 0,23.8412109 L0,1.6875 C0,0.754101563 0.812109375,0 1.81933594,0 Z M25.8767578,33.75 L21.3732422,33.75 C20.75625,33.7658203 20.2605469,34.3037109 20.25,34.9787109 L20.25,39.2712891 C20.2605469,39.9462891 20.7509766,40.4894531 21.3732422,40.5 L25.8767578,40.5 C26.49375,40.4894531 26.9894531,39.9462891 27.0052734,39.2712891 L27,34.9787109 C26.9894531,34.3037109 26.4990234,33.7605469 25.8767578,33.75 Z M27,6.75 L20.25,6.76582031 C19.2638672,6.76582031 18.4833984,7.60957031 18.5677734,8.59570312 L19.9705078,27.1423828 C20.0443359,28.0125 20.7773438,28.6875 21.6527344,28.6875 L25.5919922,28.6875 C26.4726563,28.6875 27.2003906,27.9966797 27.2742188,27.1265625 L28.6822266,8.57988281 C28.7613281,7.59375 27.9861328,6.75 27,6.75 Z"></path></clipPath></defs><g clip-path="url(#i0)"><polygon points="0,0 47.25,0 47.25,54 0,54 0,0" stroke="none" fill="#151515"></polygon></g></svg>