<?xml version="1.0" encoding="UTF-8"?><svg version="1.1" width="54px" height="54px" viewBox="0 0 54.0 54.0" xmlns="http://www.w3.org/2000/svg" xmlns:xlink="http://www.w3.org/1999/xlink"><defs><clipPath id="i0"><path d="M27,0 C30.7177734,0 34.4355469,1.41855469 37.2779297,4.25566406 L49.7443359,16.7273437 C55.4185547,22.4015625 55.4185547,31.6037109 49.7443359,37.2779297 L37.2779297,49.7443359 C34.4355469,52.5814453 30.7177734,54 27,54 C23.2822266,54 19.5644531,52.5814453 16.7220703,49.7390625 L4.25566406,37.2726562 C-1.41855469,31.5984375 -1.41855469,22.3962891 4.25566406,16.7220703 L16.7220703,4.25566406 C19.5644531,1.41855469 23.2822266,0 27,0 Z M31.7513672,8.34785156 C29.1146484,5.72695312 24.8537109,5.72695312 22.2222656,8.353125 L8.32148437,22.2169922 C5.68476562,24.8484375 5.68476562,29.1199219 8.31621094,31.7566406 L22.2380859,45.6785156 C24.8800781,48.3152344 29.1515625,48.3099609 31.7882812,45.6732422 L45.6890625,31.7566406 C48.3205078,29.1199219 48.3205078,24.8537109 45.6837891,22.2169922 Z M29.4943359,33.7130859 C29.7263672,33.7130859 29.9267578,33.7974609 30.0902344,33.9609375 C30.2537109,34.1349609 30.3380859,34.3248047 30.3380859,34.5568359 L30.3380859,39.6193359 C30.3380859,39.8460938 30.2589844,40.0464844 30.0902344,40.2152344 C29.9162109,40.3787109 29.7263672,40.4630859 29.4943359,40.4630859 L24.4318359,40.4630859 C24.1998047,40.4630859 23.9994141,40.3787109 23.8359375,40.2152344 C23.6724609,40.0412109 23.5880859,39.8513672 23.5880859,39.6193359 L23.5880859,34.5568359 C23.5880859,34.3248047 23.6724609,34.1244141 23.8359375,33.9609375 C24.0099609,33.7974609 24.1998047,33.7130859 24.4318359,33.7130859 Z M27.4904297,13.3734375 C33.0960937,13.3734375 37.6365234,17.1597656 37.6365234,21.8162109 C37.6365234,26.4726562 33.0908203,30.375 27.4904297,30.375 L27.0883406,30.3759967 C27.0476666,30.3760837 27.0046037,30.376172 26.9594855,30.3762597 L26.5069336,30.3769775 C26.4524854,30.3770435 26.3969824,30.3771028 26.3407583,30.3771535 L25.4850047,30.377025 C25.2646172,30.3766875 25.059375,30.3760547 24.890625,30.375 C24.0521484,30.375 23.5880859,30.1007812 23.5880859,29.2042969 L23.5880859,27.5115234 C23.5880859,25.3019531 25.65,25.0541016 27.4904297,24.9433594 C29.3308594,24.8326172 30.7388672,23.3033203 30.7388672,21.8109375 C30.7388672,18.8314453 24.3,19.1214844 24.3,21.4365234 C24.1523438,21.9111328 23.7568359,21.9375 23.4667969,21.9375 L18.1142578,21.9375 C17.6765625,21.9375 17.3601562,21.8478516 17.3601562,21.4734375 C17.6396484,17.8083984 19.3007812,13.3734375 27.4904297,13.3734375 Z"></path></clipPath></defs><g clip-path="url(#i0)"><polygon points="0,0 54,0 54,54 0,54 0,0" stroke="none" fill="#151515"></polygon></g></svg>