<?xml version="1.0" encoding="UTF-8"?><svg version="1.1" width="53px" height="55px" viewBox="0 0 53.0 55.0" xmlns="http://www.w3.org/2000/svg" xmlns:xlink="http://www.w3.org/1999/xlink"><defs><clipPath id="i0"><path d="M37.6733874,6.52854126 C38.4116669,5.22069068 40.1202771,4.83043663 41.3436705,5.70580457 C47.9881859,10.451887 52.3123944,18.2144303 52.3123944,26.9999356 C52.3123944,41.4280056 40.6265053,53.1245033 26.208941,53.156187 C11.8124909,53.1877432 0.0211333988,41.4491199 -2.84217094e-14,27.0421642 C-0.0104865514,18.2565559 4.31372189,10.4730013 10.9476286,5.71641322 C12.1816307,4.84104528 13.9007466,5.21018503 14.6390261,6.52854126 L16.3054078,9.49216487 C16.9277131,10.5995841 16.6324219,12.0022945 15.6093569,12.7616883 C11.2324142,16.0100975 8.43749898,21.1569396 8.43749898,26.98943 C8.42699333,36.7241518 16.2949021,44.7186434 26.1562067,44.7186434 C35.81708,44.7186434 43.9381544,36.8928602 43.8749145,26.8839615 C43.8432945,21.4206109 41.269822,16.1471859 36.6925509,12.7511827 C35.6694859,11.9917889 35.3847004,10.5890785 36.0070057,9.49216487 Z M27.8437027,0 C29.2464131,0 30.3749467,1.12853353 30.3749467,2.53124397 L30.3749467,27.8436836 C30.3749467,29.246394 29.2464131,30.3749276 27.8437027,30.3749276 L24.4687108,30.3749276 C23.0660003,30.3749276 21.9374668,29.246394 21.9374668,27.8436836 L21.9374668,2.53124397 C21.9374668,1.12853353 23.0660003,0 24.4687108,0 Z"></path></clipPath></defs><g transform="translate(2.842170943040401e-14 0.9999999999999503)"><g clip-path="url(#i0)"><polygon points="-1.90304883e-05,0 52.3123944,0 52.3123944,53.1562505 -1.90304883e-05,53.1562505 -1.90304883e-05,0" stroke="none" fill="#151515"></polygon></g></g></svg>