<?xml version="1.0" encoding="UTF-8"?><svg version="1.1" width="55px" height="55px" viewBox="0 0 55.0 55.0" xmlns="http://www.w3.org/2000/svg" xmlns:xlink="http://www.w3.org/1999/xlink"><defs><clipPath id="i0"><path d="M28.0738295,4.4474261 C31.9793568,0.543031722 37.4816401,-0.791185983 42.4787252,0.447038909 C43.4374174,0.685372997 43.7739072,1.8750865 43.0756934,2.57330032 L35.2330188,10.415872 L36.4259252,17.5750613 L43.5851145,18.7679677 L51.4277891,10.925293 C52.1217801,10.2313021 53.3135535,10.5540934 53.5498277,11.5063997 C54.7932024,16.5066777 53.4611476,22.0174068 49.5515004,25.927157 C45.3432661,30.1353913 39.294689,31.2986347 34.0085954,29.5362602 L11.521661,52.0231946 C8.88597849,54.6588771 4.61244437,54.6588771 1.97676187,52.0231946 C-0.658920624,49.3875121 -0.658920624,45.113978 1.97676187,42.4782955 L24.4826477,19.9724097 C22.7424175,14.6883761 23.8930953,8.6281603 28.0738295,4.4474261 Z M6.7502414,44.7184711 C5.35278379,44.7184711 4.21899743,45.8512275 4.21899743,47.2497151 C4.21899743,48.6471727 5.35278379,49.7809591 6.7502414,49.7809591 C8.147699,49.7809591 9.28148536,48.6471727 9.28148536,47.2497151 C9.28148536,45.8512275 8.147699,44.7184711 6.7502414,44.7184711 Z"></path></clipPath></defs><g transform="translate(2.842170943040401e-14 0.9999999999999858)"><g clip-path="url(#i0)"><polygon points="0,0 54.0000078,0 54.0000078,53.9999565 0,53.9999565 0,0" stroke="none" fill="#151515"></polygon></g></g></svg>