<svg xmlns="http://www.w3.org/2000/svg" width="54" height="54" viewBox="0 0 54 54">
  <path fill="#151515" fill-rule="evenodd" d="M27,0 C12.0898828,0 0,12.0898828 0,27 C0,41.9101172 12.0898828,54 27,54 C41.9101172,54 54,41.9101172 54,27 C54,12.0898828 41.9101172,0 27,0 Z M40.0301367,38.5113867 C40.0301367,39.6441211 39.1136133,40.4398828 38.0652539,40.4398828 C37.5226172,40.4398828 37.125,40.2347461 36.5707617,39.7770117 L22.6230469,28.5292969 L17.9597461,40.2226172 L13.9340039,40.2226172 L25.7222461,11.8515234 C26.0238867,11.1158789 26.6867578,10.7182617 27.4340039,10.7182617 C28.18125,10.7182617 28.7961328,11.10375 29.0972461,11.8515234 L39.8613867,37.715625 C39.99375,38.0288672 40.0417383,38.3183789 40.0301367,38.5113867 Z M27.4582617,16.4895117 L34.4492578,33.75 L23.9023828,25.4448633 L27.4582617,16.4895117 Z"/>
</svg>
