<svg xmlns="http://www.w3.org/2000/svg" width="40" height="48" viewBox="0 0 40 48">
  <path fill="#151515" fill-rule="evenodd" d="M36.5553404,19.4378237 L39.9303323,16.9065797 L27.3479611,0 L23.9729691,2.53124397 L36.5553404,19.4378237 Z M33.0643743,23.4983609 L35.753821,20.2499517 L19.5644065,6.71836396 L16.8749598,9.96677311 L33.0643743,23.4983609 Z M30.6913331,28.2655576 L32.4631833,24.4370717 L13.3417651,15.5038693 L11.5804205,19.3534695 L30.6913331,28.2655576 Z M29.5100653,33.5389825 L30.3749276,29.4257111 L9.73472182,25.0698827 L8.86985953,29.2147741 L29.5100653,33.5389825 Z M37.9159252,47.2498873 L37.9159252,30.3749276 L33.6971853,30.3749276 L33.6971853,43.0311474 L4.21873994,43.0311474 L4.21873994,30.3749276 L0,30.3749276 L0,47.2498873 L37.9159252,47.2498873 Z M29.5100653,38.7807875 L29.5100653,34.5936675 L8.41636558,34.5936675 L8.41636558,38.7807875 L29.5100653,38.7807875 Z"/>
</svg>
