<svg xmlns="http://www.w3.org/2000/svg" width="54" height="44" viewBox="0 0 54 44">
  <path fill="#151515" fill-rule="evenodd" d="M16.9948478,43.857695 C37.3476931,43.857695 48.4833744,26.9998326 48.4833744,12.3692714 C48.4833744,11.8896163 48.4833744,11.4097552 48.4490765,10.9301001 C50.6076789,9.35394346 52.4923103,7.4009223 53.9996653,5.2081251 C52.0124492,6.06464466 49.8538469,6.68149118 47.6266488,6.92126722 C49.9222366,5.55079472 51.6696766,3.39219238 52.4921043,0.8223247 C50.3675938,2.09010961 47.9692155,3.0152249 45.4680465,3.49487997 C43.4463266,1.33627764 40.5682932,0 37.381682,0 C31.2485446,0 26.3144934,4.96824606 26.3144934,11.0671886 C26.3144934,11.9238111 26.417284,12.7803307 26.5885673,13.6026554 C17.4060101,13.1228973 9.21685501,8.73719993 3.76895387,2.02151389 C2.80943773,3.66616329 2.26139292,5.55069172 2.26139292,7.60650347 C2.26139292,11.4440531 4.21431109,14.8361425 7.19523812,16.8234615 C5.37940841,16.7550717 3.66606029,16.2411188 2.1927972,15.4187941 L2.1927972,15.5557796 C2.1927972,20.935188 5.99615193,25.3893781 11.0671886,26.417387 C10.1421763,26.657163 9.14846528,26.7942515 8.15485727,26.7942515 C7.43522016,26.7942515 6.74998391,26.7257587 6.06464466,26.6229681 C7.46951802,31.0087685 11.5469467,34.1952767 16.4124021,34.2981703 C12.6090474,37.2790974 7.84627951,39.0265374 2.67255527,39.0265374 C1.74743999,39.0265374 0.890920422,38.9922395 0,38.8895519 C4.89975333,42.0416593 10.724519,43.857695 16.9948478,43.857695 Z"/>
</svg>
