<svg xmlns="http://www.w3.org/2000/svg" width="118" height="36" viewBox="0 0 118 36">
  <g fill="none" fill-rule="evenodd">
    <path fill="#151515" d="M10.985919,16.7827983 L15.2359089,12.5328085 C15.5296704,12.239047 15.5296704,11.7640725 15.2327961,11.470311 L10.9828062,7.22032113 C10.692188,6.92655962 10.2171831,6.92655962 9.92342157,7.22032113 L9.22029824,7.93281333 C8.92656725,8.22343153 8.92656725,8.6984365 9.22029824,8.99219801 L12.2328033,12.0046725 L9.22029824,15.0171775 C8.92656725,15.3077957 8.92656725,15.7828007 9.22029824,16.0765622 L9.92656487,16.7827983 C10.2171831,17.0765598 10.692188,17.0765598 10.985919,16.7827983 Z" transform="translate(-6 6)"/>
    <text fill="#06C" font-family="RedHatText-Regular, Red Hat Text" font-size="16">
      <tspan x="18" y="22">Expandable</tspan>
    </text>
    <g fill-opacity=".9">
      <rect width="15" height="23" x=".5" y=".5" fill="#3F9C35" stroke="#418A38" transform="translate(102 6)"/>
      <rect width="117" height="5" x=".5" y=".5" fill="#F3D53C" stroke="#CBB534" transform="translate(0 30)"/>
      <rect width="117" height="5" x=".5" y=".5" fill="#F3D53C" stroke="#CBB534"/>
    </g>
  </g>
</svg>
