<svg xmlns="http://www.w3.org/2000/svg" width="118" height="36" viewBox="0 0 118 36">
  <g fill="none" fill-rule="evenodd">
    <path fill="#151515" d="M12.5265524,15.2359089 L16.7765422,10.985919 C17.0703037,10.6953008 17.0703037,10.2202959 16.7765422,9.92656487 L16.0703061,9.22029824 C15.7796879,8.92656725 15.304683,8.92656725 15.0109215,9.22029824 L11.9984469,12.2328033 L8.98594192,9.22029824 C8.69532372,8.92656725 8.22031875,8.92656725 7.92655724,9.22029824 L7.22032113,9.92656487 C6.92655962,10.2171831 6.92655962,10.692188 7.22032113,10.985919 L11.470311,15.2359089 C11.7640725,15.5296704 12.239047,15.5296704 12.5265524,15.2359089 Z" transform="translate(-6 6)"/>
    <text fill="#004080" font-family="RedHatText-Regular, Red Hat Text" font-size="16">
      <tspan x="18" y="22">Expandable</tspan>
    </text>
    <g fill-opacity=".9">
      <rect width="15" height="23" x=".5" y=".5" fill="#3F9C35" stroke="#418A38" transform="translate(102 6)"/>
      <rect width="117" height="5" x=".5" y=".5" fill="#F3D53C" stroke="#CBB534" transform="translate(0 30)"/>
      <rect width="117" height="5" x=".5" y=".5" fill="#F3D53C" stroke="#CBB534"/>
    </g>
  </g>
</svg>
