<?xml version="1.0" encoding="UTF-8"?>
<svg width="140px" height="36px" viewBox="0 0 140 36" version="1.1" xmlns="http://www.w3.org/2000/svg" xmlns:xlink="http://www.w3.org/1999/xlink">
    <title></title>
    <defs>
        <rect id="path-1" x="0" y="0" width="140" height="36"></rect>
        <filter x="-0.4%" y="-1.4%" width="100.7%" height="102.8%" filterUnits="objectBoundingBox" id="filter-2">
            <feOffset dx="-1" dy="0" in="SourceAlpha" result="shadowOffsetInner1"></feOffset>
            <feComposite in="shadowOffsetInner1" in2="SourceAlpha" operator="arithmetic" k2="-1" k3="1" result="shadowInnerInner1"></feComposite>
            <feColorMatrix values="0 0 0 0 0.941176471   0 0 0 0 0.941176471   0 0 0 0 0.941176471  0 0 0 1 0" type="matrix" in="shadowInnerInner1" result="shadowMatrixInner1"></feColorMatrix>
            <feOffset dx="0" dy="1" in="SourceAlpha" result="shadowOffsetInner2"></feOffset>
            <feComposite in="shadowOffsetInner2" in2="SourceAlpha" operator="arithmetic" k2="-1" k3="1" result="shadowInnerInner2"></feComposite>
            <feColorMatrix values="0 0 0 0 0.941176471   0 0 0 0 0.941176471   0 0 0 0 0.941176471  0 0 0 1 0" type="matrix" in="shadowInnerInner2" result="shadowMatrixInner2"></feColorMatrix>
            <feOffset dx="1" dy="0" in="SourceAlpha" result="shadowOffsetInner3"></feOffset>
            <feComposite in="shadowOffsetInner3" in2="SourceAlpha" operator="arithmetic" k2="-1" k3="1" result="shadowInnerInner3"></feComposite>
            <feColorMatrix values="0 0 0 0 0.941176471   0 0 0 0 0.941176471   0 0 0 0 0.941176471  0 0 0 1 0" type="matrix" in="shadowInnerInner3" result="shadowMatrixInner3"></feColorMatrix>
            <feOffset dx="0" dy="-1" in="SourceAlpha" result="shadowOffsetInner4"></feOffset>
            <feComposite in="shadowOffsetInner4" in2="SourceAlpha" operator="arithmetic" k2="-1" k3="1" result="shadowInnerInner4"></feComposite>
            <feColorMatrix values="0 0 0 0 0.541176471   0 0 0 0 0.552941176   0 0 0 0 0.564705882  0 0 0 1 0" type="matrix" in="shadowInnerInner4" result="shadowMatrixInner4"></feColorMatrix>
            <feMerge>
                <feMergeNode in="shadowMatrixInner1"></feMergeNode>
                <feMergeNode in="shadowMatrixInner2"></feMergeNode>
                <feMergeNode in="shadowMatrixInner3"></feMergeNode>
                <feMergeNode in="shadowMatrixInner4"></feMergeNode>
            </feMerge>
        </filter>
    </defs>
    <g id="Form-Inputs" stroke="none" stroke-width="1" fill="none" fill-rule="evenodd">
        <g id="Forms-/-2.-Text-Box-/-With-Icon-/-6.-Placeholder">
            <g id="Background">
                <use fill="#FFFFFF" fill-rule="evenodd" xlink:href="#path-1"></use>
                <use fill="black" fill-opacity="1" filter="url(#filter-2)" xlink:href="#path-1"></use>
            </g>
            <text id="âœï¸-Content" font-family="RedHatText-Regular, Red Hat Text" font-size="16" font-weight="normal" line-spacing="24" fill="#6A6E73">
                <tspan x="8" y="22">Text box</tspan>
            </text>
            <g id="ðŸ“-Padding" fill-opacity="0.9">
                <g id="Spacer-/-Horizontal-/-2.-pf-global--spacer--sm-(8px)" fill="#92D400" stroke="#7FB300">
                    <rect id="Rectangle-Copy" x="0.5" y="0.5" width="7" height="35"></rect>
                </g>
                <g id="Spacer-/-Vertical-/-8.-pf-global--spacer--form-element-(6px)" transform="translate(8.000000, 30.000000)" fill="#F3D53C" stroke="#CBB534">
                    <rect id="Rectangle" x="0.5" y="0.5" width="91" height="5"></rect>
                </g>
                <g id="Spacer-/-Vertical-/-8.-pf-global--spacer--form-element-(6px)" transform="translate(8.000000, 0.000000)" fill="#F3D53C" stroke="#CBB534">
                    <rect id="Rectangle" x="0.5" y="0.5" width="91" height="5"></rect>
                </g>
                <g id="Spacer-/-Horizontal-/-2.-pf-global--spacer--sm-(8px)" transform="translate(92.000000, 6.000000)" fill="#92D400" stroke="#7FB300">
                    <rect id="Rectangle-Copy" x="0.5" y="0.5" width="7" height="23"></rect>
                </g>
            </g>
            <g id="Icons/1.-Size-md/Actions/search" transform="translate(112.000000, 10.000000)" fill="#6A6E73">
                <path d="M4.24998987,15.9999619 C4.66420397,15.9999619 4.99998808,15.6641777 4.99998808,15.2499636 L4.99998808,13.9999666 L6.2499851,13.9999666 C6.6641992,13.9999666 6.99998331,13.6641825 6.99998331,13.2499684 L6.99998331,11.9999714 L8.16321906,11.9999714 C8.34913171,11.9999714 8.60026026,11.8872092 8.7237646,11.748263 L9.47412902,10.9040573 C9.80652569,10.9668012 10.1493593,10.9999738 10.499975,10.9999738 C13.5375349,10.9999738 15.9999619,8.5375773 15.9999619,5.5000174 C15.9999619,2.45345484 13.5464765,-1.77635684e-15 10.4999444,-1.77635684e-15 C7.46238455,-1.77635684e-15 4.99998808,2.46242699 4.99998808,5.49998689 C4.99998808,6.10221934 5.0971253,6.68168573 5.27595788,7.2239818 L0.219665004,12.2802747 C0.0790403389,12.4209299 0,12.6117253 0,12.8106384 L0,15.2499636 C0,15.6641777 0.335784112,15.9999619 0.749998212,15.9999619 L4.24998987,15.9999619 Z M11.999975,5.49999404 C11.1715432,5.49999404 10.499975,4.82841866 10.499975,3.99999404 C10.499975,3.17156226 11.1715432,2.49999404 11.999975,2.49999404 C12.8283996,2.49999404 13.499975,3.17156226 13.499975,3.99999404 C13.499975,4.82841866 12.8283996,5.49999404 11.999975,5.49999404 Z" id="key"></path>
            </g>
        </g>
    </g>
</svg>