<?xml version="1.0" encoding="UTF-8"?>
<svg width="149px" height="36px" viewBox="0 0 149 36" version="1.1" xmlns="http://www.w3.org/2000/svg" xmlns:xlink="http://www.w3.org/1999/xlink">
    <title></title>
    <defs>
        <rect id="path-1" x="0" y="0" width="149" height="36"></rect>
        <filter x="-0.7%" y="-2.8%" width="101.3%" height="105.6%" filterUnits="objectBoundingBox" id="filter-2">
            <feOffset dx="1" dy="0" in="SourceAlpha" result="shadowOffsetInner1"></feOffset>
            <feComposite in="shadowOffsetInner1" in2="SourceAlpha" operator="arithmetic" k2="-1" k3="1" result="shadowInnerInner1"></feComposite>
            <feColorMatrix values="0 0 0 0 0.929411765   0 0 0 0 0.929411765   0 0 0 0 0.929411765  0 0 0 1 0" type="matrix" in="shadowInnerInner1" result="shadowMatrixInner1"></feColorMatrix>
            <feOffset dx="-1" dy="0" in="SourceAlpha" result="shadowOffsetInner2"></feOffset>
            <feComposite in="shadowOffsetInner2" in2="SourceAlpha" operator="arithmetic" k2="-1" k3="1" result="shadowInnerInner2"></feComposite>
            <feColorMatrix values="0 0 0 0 0.929411765   0 0 0 0 0.929411765   0 0 0 0 0.929411765  0 0 0 1 0" type="matrix" in="shadowInnerInner2" result="shadowMatrixInner2"></feColorMatrix>
            <feOffset dx="0" dy="1" in="SourceAlpha" result="shadowOffsetInner3"></feOffset>
            <feComposite in="shadowOffsetInner3" in2="SourceAlpha" operator="arithmetic" k2="-1" k3="1" result="shadowInnerInner3"></feComposite>
            <feColorMatrix values="0 0 0 0 0.929411765   0 0 0 0 0.929411765   0 0 0 0 0.929411765  0 0 0 1 0" type="matrix" in="shadowInnerInner3" result="shadowMatrixInner3"></feColorMatrix>
            <feOffset dx="0" dy="-2" in="SourceAlpha" result="shadowOffsetInner4"></feOffset>
            <feComposite in="shadowOffsetInner4" in2="SourceAlpha" operator="arithmetic" k2="-1" k3="1" result="shadowInnerInner4"></feComposite>
            <feColorMatrix values="0 0 0 0 0.788235294   0 0 0 0 0.0980392157   0 0 0 0 0.0431372549  0 0 0 1 0" type="matrix" in="shadowInnerInner4" result="shadowMatrixInner4"></feColorMatrix>
            <feMerge>
                <feMergeNode in="shadowMatrixInner1"></feMergeNode>
                <feMergeNode in="shadowMatrixInner2"></feMergeNode>
                <feMergeNode in="shadowMatrixInner3"></feMergeNode>
                <feMergeNode in="shadowMatrixInner4"></feMergeNode>
            </feMerge>
        </filter>
    </defs>
    <g id="Form-Inputs" stroke="none" stroke-width="1" fill="none" fill-rule="evenodd">
        <g id="Forms-/-2.-Text-Box-/-With-Icon-/-7.-Error">
            <g id="Background">
                <use fill="#FFFFFF" fill-rule="evenodd" xlink:href="#path-1"></use>
                <use fill="black" fill-opacity="1" filter="url(#filter-2)" xlink:href="#path-1"></use>
            </g>
            <g id="Icons-/-Status-/-exclamation-circle" transform="translate(13.000000, 10.000000)" fill="#C9190B">
                <path d="M7.74998152,15.499963 C12.0298785,15.499963 15.499963,12.0311298 15.499963,7.74998152 C15.499963,3.47133572 12.0298785,0 7.74998152,0 C3.4700845,0 0,3.47133572 0,7.74998152 C0,12.0311298 3.4700845,15.499963 7.74998152,15.499963 Z M8.50852464,8.74997914 L6.99143841,8.74997914 C6.79228117,8.74997914 6.62785285,8.59427883 6.61701914,8.39542676 L6.38520817,4.14543689 C6.37348944,3.93062417 6.54447903,3.74999106 6.75959692,3.74999106 L8.74033561,3.74999106 C8.9554535,3.74999106 9.1264736,3.93062417 9.11475488,4.14543689 L8.88294391,8.39542676 C8.87211019,8.59427883 8.70768188,8.74997914 8.50852464,8.74997914 Z M7.74998152,12.1874709 C6.95606862,12.1874709 6.31248495,11.5438873 6.31248495,10.7499744 C6.31248495,9.95606147 6.95606862,9.3124778 7.74998152,9.3124778 C8.54389442,9.3124778 9.1874781,9.95606147 9.1874781,10.7499744 C9.1874781,11.5438873 8.54389442,12.1874709 7.74998152,12.1874709 Z" id="exclamation-circle"></path>
            </g>
            <text id="âœï¸-Content" font-family="RedHatText-Regular, Red Hat Text" font-size="16" font-weight="normal" line-spacing="24" fill="#6A6E73">
                <tspan x="40" y="22">Text box</tspan>
            </text>
            <g id="ðŸ“-Padding" fill-opacity="0.9">
                <g id="Spacer-/-Horizontal-/-2.-pf-global--spacer--sm-(8px)" fill="#92D400" stroke="#7FB300">
                    <rect id="Rectangle-Copy" x="0.5" y="0.5" width="7" height="35"></rect>
                </g>
                <g id="Spacer-/-Horizontal-/-2.-pf-global--spacer--sm-(8px)" transform="translate(105.000000, 6.000000)" fill="#EC7A08" stroke="#C77000">
                    <rect id="Rectangle" x="0.5" y="0.5" width="3" height="23"></rect>
                </g>
                <g id="Spacer-/-Vertical-/-8.-pf-global--spacer--form-element-(6px)" transform="translate(8.000000, 30.000000)" fill="#F3D53C" stroke="#CBB534">
                    <rect id="Rectangle" x="0.5" y="0.5" width="100" height="5"></rect>
                </g>
                <g id="Spacer-/-Vertical-/-8.-pf-global--spacer--form-element-(6px)" transform="translate(8.000000, -0.000000)" fill="#F3D53C" stroke="#CBB534">
                    <rect id="Rectangle" x="0.5" y="0.5" width="100" height="5"></rect>
                </g>
            </g>
            <g id="Icons/1.-Size-md/Actions/search" transform="translate(122.000000, 10.000000)" fill="#6A6E73">
                <path d="M4.24998987,15.9999619 C4.66420397,15.9999619 4.99998808,15.6641777 4.99998808,15.2499636 L4.99998808,13.9999666 L6.2499851,13.9999666 C6.6641992,13.9999666 6.99998331,13.6641825 6.99998331,13.2499684 L6.99998331,11.9999714 L8.16321906,11.9999714 C8.34913171,11.9999714 8.60026026,11.8872092 8.7237646,11.748263 L9.47412902,10.9040573 C9.80652569,10.9668012 10.1493593,10.9999738 10.499975,10.9999738 C13.5375349,10.9999738 15.9999619,8.5375773 15.9999619,5.5000174 C15.9999619,2.45345484 13.5464765,-1.77635684e-15 10.4999444,-1.77635684e-15 C7.46238455,-1.77635684e-15 4.99998808,2.46242699 4.99998808,5.49998689 C4.99998808,6.10221934 5.0971253,6.68168573 5.27595788,7.2239818 L0.219665004,12.2802747 C0.0790403389,12.4209299 0,12.6117253 0,12.8106384 L0,15.2499636 C0,15.6641777 0.335784112,15.9999619 0.749998212,15.9999619 L4.24998987,15.9999619 Z M11.999975,5.49999404 C11.1715432,5.49999404 10.499975,4.82841866 10.499975,3.99999404 C10.499975,3.17156226 11.1715432,2.49999404 11.999975,2.49999404 C12.8283996,2.49999404 13.499975,3.17156226 13.499975,3.99999404 C13.499975,4.82841866 12.8283996,5.49999404 11.999975,5.49999404 Z" id="key"></path>
            </g>
        </g>
    </g>
</svg>