<?xml version="1.0" encoding="UTF-8"?><svg version="1.1" width="149px" height="36px" viewBox="0 0 149.0 36.0" xmlns="http://www.w3.org/2000/svg" xmlns:xlink="http://www.w3.org/1999/xlink"><defs><clipPath id="i0"><path d="M40,0 L40,36 L0,36 L0,0 L40,0 Z"></path></clipPath><clipPath id="i1"><path d="M6.4999845,0 C10.0906131,0 12.999969,2.90935586 12.999969,6.4999845 C12.999969,8.0093498 12.487458,9.3968587 11.6249723,10.499975 L12.13434,10.499975 C12.3343517,10.499975 12.524964,10.5780998 12.6655887,10.7187244 L15.7812124,13.8343481 C16.0718306,14.1280791 16.0718306,14.6030841 15.7780996,14.8968456 L14.8937023,15.7812124 C14.6030841,16.0749739 14.1280791,16.0749739 13.8343481,15.7812124 L10.7187244,12.6655887 C10.5780998,12.524964 10.499975,12.3343517 10.499975,12.13434 L10.499975,11.6249723 C9.3968587,12.487458 8.0093498,12.999969 6.4999845,12.999969 C2.90935586,12.999969 0,10.0906131 0,6.4999845 C0,2.90935586 2.90935586,0 6.4999845,0 Z M6.49999404,2.49999404 C4.28749588,2.49999404 2.49999404,4.29060867 2.49999404,6.49999404 C2.49999404,8.71247312 4.29060867,10.499975 6.49999404,10.499975 C8.71247312,10.499975 10.499975,8.70936034 10.499975,6.49999404 C10.499975,4.28749588 8.70936034,2.49999404 6.49999404,2.49999404 Z"></path></clipPath><clipPath id="i2"><path d="M110,0 L110,36 L0,36 L0,0 L110,0 Z"></path></clipPath><clipPath id="i3"><path d="M7.7007141,0.749540607 C8.27780012,-0.250762184 9.72320073,-0.248931134 10.2992797,0.749540607 L17.7973697,13.7503641 C18.3741811,14.7501786 17.6501533,15.999962 16.4981174,15.999962 L1.50169323,15.999962 C0.347429627,15.999962 -0.373271779,14.748256 0.202410442,13.7503641 Z M8.99999689,11.0624738 C8.20608399,11.0624738 7.56250032,11.7060575 7.56250032,12.4999704 C7.56250032,13.2938833 8.20608399,13.9374669 8.99999689,13.9374669 C9.79390979,13.9374669 10.4374935,13.2938833 10.4374935,12.4999704 C10.4374935,11.7060575 9.79390979,11.0624738 8.99999689,11.0624738 Z M9.99035097,5.49998704 L8.00961229,5.49998704 C7.79449439,5.49998704 7.62350481,5.68062016 7.63522353,5.89543288 L7.8670345,10.1454227 C7.87786822,10.3442748 8.04229654,10.4999751 8.24145378,10.4999751 L9.75854,10.4999751 C9.95769724,10.4999751 10.1221256,10.3442748 10.1329593,10.1454227 L10.3647702,5.89543288 C10.376489,5.68062016 10.2054689,5.49998704 9.99035097,5.49998704 Z"></path></clipPath><clipPath id="i4"><path d="M65,0 L65,24 L0,24 L0,0 L65,0 Z"></path></clipPath><clipPath id="i5"><path d="M8,0 L8,36 L0,36 L0,0 L8,0 Z"></path></clipPath><clipPath id="i6"><path d="M4,0 L4,24 L0,24 L0,0 L4,0 Z"></path></clipPath><clipPath id="i7"><path d="M101,0 L101,6 L0,6 L0,0 L101,0 Z"></path></clipPath></defs><g transform="translate(109.0 0.0)"><g clip-path="url(#i0)"><polygon points="0,0 40,0 40,36 0,36 0,0" stroke="none" fill="#FFFFFF"></polygon><g transform="translate(-1.0 0.0)"><polygon points="41,0 41,36 40,36 40,0 41,0 41,0" stroke="none" fill="#F0F0F0"></polygon></g><g transform="translate(0.0 1.0)"><polygon points="40,0 0,0 0,-1 40,-1 40,0 40,0" stroke="none" fill="#F0F0F0"></polygon></g><g transform="translate(1.0 0.0)"><polygon points="0,0 0,36 -1,36 -1,0 0,0 0,0" stroke="none" fill="#F0F0F0"></polygon></g><g transform="translate(0.0 -1.0)"><polygon points="40,36 40,37 0,37 0,36 40,36 40,36" stroke="none" fill="#8A8D90"></polygon></g></g><g transform="translate(8.0 6.0)"><g transform="translate(4.0 4.0)"><g clip-path="url(#i1)"><polygon points="0,0 15.9987885,0 15.9987885,16.0015335 0,16.0015335 0,0" stroke="none" fill="#696E73"></polygon></g></g></g></g><g clip-path="url(#i2)"><polygon points="0,0 110,0 110,36 0,36 0,0" stroke="none" fill="#FFFFFF"></polygon><g transform="translate(1.0 0.0)"><polygon points="0,0 0,36 -1,36 -1,0 0,0 0,0" stroke="none" fill="#EDEDED"></polygon></g><g transform="translate(-1.0 0.0)"><polygon points="111,0 111,36 110,36 110,0 111,0 111,0" stroke="none" fill="#EDEDED"></polygon></g><g transform="translate(0.0 1.0)"><polygon points="110,0 0,0 0,-1 110,-1 110,0 110,0" stroke="none" fill="#EDEDED"></polygon></g><g transform="translate(0.0 -2.0)"><polygon points="110,36 110,38 0,38 0,36 110,36 110,36" stroke="none" fill="#F0AB00"></polygon></g></g><g transform="translate(81.0 6.0)"><g transform="translate(3.000000000000057 4.000000000000001)"><g clip-path="url(#i3)"><polygon points="-1.77635684e-15,-4.42978987e-14 17.9999599,-4.42978987e-14 17.9999599,15.999962 -1.77635684e-15,15.999962 -1.77635684e-15,-4.42978987e-14" stroke="none" fill="#F0AB00"></polygon></g></g></g><g transform="translate(8.0 6.0)"><g clip-path="url(#i4)"><text transform="translate(0.0 16.0)" font-family="RedHatText-Regular, Red Hat Text" font-size="16.0" font-weight="normal" fill="#151515" text-anchor="left" line-spacing="24.0">Text box</text></g></g><g clip-path="url(#i5)"><polygon points="0,0 8,0 8,36 0,36 0,0" stroke="none" fill="rgba(146, 211, 0, 0.9)"></polygon></g><g clip-path="url(#i5)"><polygon points="0,0 8,0 8,36 0,36 0,0 0,0" stroke="#7EB200" stroke-width="2" fill="none" stroke-miterlimit="5"></polygon></g><g transform="translate(105.0 6.0)"><g clip-path="url(#i6)"><polygon points="0,0 4,0 4,24 0,24 0,0" stroke="none" fill="rgba(236, 121, 8, 0.9)"></polygon></g><g clip-path="url(#i6)"><polygon points="0,0 4,0 4,24 0,24 0,0 0,0" stroke="#C67000" stroke-width="2" fill="none" stroke-miterlimit="5"></polygon></g></g><g transform="translate(8.0 29.99999999999999)"><g transform=""><g clip-path="url(#i7)"><polygon points="0,0 101,0 101,6 0,6 0,0" stroke="none" fill="rgba(243, 213, 59, 0.9)"></polygon></g><g clip-path="url(#i7)"><polygon points="0,0 101,0 101,6 0,6 0,0 0,0" stroke="#CAB534" stroke-width="2" fill="none" stroke-miterlimit="5"></polygon></g></g></g><g transform="translate(8.0 8.881784197001252e-16)"><g transform=""><g clip-path="url(#i7)"><polygon points="0,0 101,0 101,6 0,6 0,0" stroke="none" fill="rgba(243, 213, 59, 0.9)"></polygon></g><g clip-path="url(#i7)"><polygon points="0,0 101,0 101,6 0,6 0,0 0,0" stroke="#CAB534" stroke-width="2" fill="none" stroke-miterlimit="5"></polygon></g></g></g></svg>