<?xml version="1.0" encoding="UTF-8"?><svg version="1.1" width="44px" height="40px" viewBox="0 0 44.0 40.0" xmlns="http://www.w3.org/2000/svg" xmlns:xlink="http://www.w3.org/1999/xlink"><defs><clipPath id="i0"><path d="M44,0 L44,40 L0,40 L0,0 L44,0 Z"></path></clipPath><clipPath id="i1"><path d="M1,0 L1,40 L0,40 L0,0 L1,0 Z"></path></clipPath><clipPath id="i2"><path d="M4.46992344,0.22032113 C4.76365443,-0.0734403767 5.2386594,-0.0734403767 5.5292776,0.22032113 L6.23554423,0.926557239 C6.52927522,1.22031875 6.52927522,1.69532372 6.23554423,1.98594192 L3.22618251,5.00155973 L6.23865701,8.01406476 C6.53241852,8.30779574 6.53241852,8.78280072 6.23865701,9.07341892 L5.5324209,9.78279833 C5.2386594,10.0765598 4.76365443,10.0765598 4.47303622,9.78279833 L0.223046355,5.53280846 C-0.0738279369,5.23904696 -0.0738279369,4.7640725 0.21993357,4.470311 Z"></path></clipPath><clipPath id="i3"><path d="M24,0 L24,24 L0,24 L0,0 L24,0 Z"></path></clipPath><clipPath id="i4"><path d="M8,0 L8,40 L0,40 L0,0 L8,0 Z"></path></clipPath></defs><g clip-path="url(#i0)"><polygon points="0,0 44,0 44,40 0,40 0,0" stroke="none" fill="#FFFFFF"></polygon></g><g transform="translate(43.0 0.0)"><g clip-path="url(#i1)"><polygon points="0,0 1,0 1,40 0,40 0,0" stroke="none" fill="#FFFFFF"></polygon><polygon points="0,0 1,0 1,40 0,40 0,0 0,0" stroke="#F0F0F0" stroke-width="2" fill="none" stroke-miterlimit="5"></polygon></g></g><g transform="translate(10.0 8.0)"><g transform="translate(9.0 6.999999999999999)"><g clip-path="url(#i2)"><polygon points="4.22994972e-14,-2.77555756e-17 6.45897814,-2.77555756e-17 6.45897814,10.0031195 4.22994972e-14,10.0031195 4.22994972e-14,-2.77555756e-17" stroke="none" fill="#151515"></polygon><g clip-path="url(#i3)"><polygon points="4.22994972e-14,0 6.45897814,0 6.45897814,10.0031195 4.22994972e-14,10.0031195 4.22994972e-14,0" stroke="none" fill="#151515"></polygon></g></g></g></g><g clip-path="url(#i4)"><polygon points="0,0 8,0 8,40 0,40 0,0" stroke="none" fill="rgba(146, 211, 0, 0.9)"></polygon></g><g clip-path="url(#i4)"><polygon points="0,0 8,0 8,40 0,40 0,0 0,0" stroke="#7EB200" stroke-width="2" fill="none" stroke-miterlimit="5"></polygon></g><g transform="translate(24.0 0.0)"><g clip-path="url(#i4)"><polygon points="0,0 8,0 8,40 0,40 0,0" stroke="none" fill="rgba(146, 211, 0, 0.9)"></polygon></g><g clip-path="url(#i4)"><polygon points="0,0 8,0 8,40 0,40 0,0 0,0" stroke="#7EB200" stroke-width="2" fill="none" stroke-miterlimit="5"></polygon></g></g></svg>