<?xml version="1.0" encoding="UTF-8"?>
<svg width="44px" height="40px" viewBox="0 0 44 40" version="1.1" xmlns="http://www.w3.org/2000/svg" xmlns:xlink="http://www.w3.org/1999/xlink">
    <title></title>
    <g id="Navigation" stroke="none" stroke-width="1" fill="none" fill-rule="evenodd">
        <g id="Navigation-/-Tertiary-Nav-(legacy)-/-Overflow-Arrows-/-Right---Default">
            <rect id="Background" fill="#FFFFFF" x="0" y="0" width="44" height="40"></rect>
            <g id="Icons--/--ðŸ–¼-Dynamic-Icon" transform="translate(19.000000, 15.000000)" fill="#151515">
                <g id="ðŸ–¼-Icon">
                    <path d="M1.98591903,9.78279833 L6.2359089,5.53280846 C6.52967041,5.23904696 6.52967041,4.7640725 6.23279611,4.470311 L1.98280625,0.22032113 C1.69218804,-0.0734403767 1.21718307,-0.0734403767 0.923421565,0.22032113 L0.220298242,0.932813328 C-0.0734327473,1.22343153 -0.0734327473,1.6984365 0.220298242,1.99219801 L3.23280327,5.00467252 L0.220298242,8.01717754 C-0.0734327473,8.30779574 -0.0734327473,8.78280072 0.220298242,9.07656222 L0.926564869,9.78279833 C1.21718307,10.0765598 1.69218804,10.0765598 1.98591903,9.78279833 Z" id="angle-right"></path>
                </g>
                <rect id="ðŸŽ¨-Color" x="-9" y="-7" width="24" height="24"></rect>
            </g>
            <g id="ðŸ“-Padding" fill="#92D400" fill-opacity="0.9" stroke="#7FB300">
                <g id="Spacer--/--Horizontal--/--2.-pf-global--spacer--sm-(8px)">
                    <rect id="Rectangle-Copy" x="0.5" y="0.5" width="7" height="39"></rect>
                </g>
                <g id="Spacer--/--Horizontal--/--2.-pf-global--spacer--sm-(8px)-Copy" transform="translate(24.000000, 0.000000)">
                    <rect id="Rectangle-Copy" x="0.5" y="0.5" width="7" height="39"></rect>
                </g>
            </g>
            <rect id="Rectangle" stroke="#F0F0F0" fill="#FFFFFF" x="0.5" y="0.5" width="1" height="39"></rect>
        </g>
    </g>
</svg>