<svg xmlns="http://www.w3.org/2000/svg" width="54" height="54" viewBox="0 0 54 54">
  <path fill="#6A6E73" fill-rule="evenodd" d="M50.2662452,53.2615918 L53.2510861,50.2768539 C54.2424282,49.2854088 54.2424282,47.682267 53.2615918,46.6909249 L42.7463619,36.175695 C42.2717536,35.7010868 41.628437,35.4374155 40.9533974,35.4374155 L39.2342815,35.4374155 C42.1451708,31.7143981 43.8748954,27.0315556 43.8748954,21.9374477 C43.8748954,9.81907602 34.0558194,0 21.9374477,0 C9.81907602,0 1.13686838e-13,9.81907602 1.13686838e-13,21.9374477 C1.13686838e-13,34.0558194 9.81907602,43.8748954 21.9374477,43.8748954 C27.0315556,43.8748954 31.7143981,42.1451708 35.4374155,39.2342815 L35.4374155,40.9533974 C35.4374155,41.628437 35.7010868,42.2717536 36.175695,42.7463619 L46.6909249,53.2615918 C47.682267,54.2530368 49.2854088,54.2530368 50.2662452,53.2615918 Z M21.9374477,35.4374155 C14.4808043,35.4374155 8.43747988,29.4045968 8.43747988,21.9374477 C8.43747988,14.4808043 14.4702986,8.43747988 21.9374477,8.43747988 C29.3940911,8.43747988 35.4374155,14.4702986 35.4374155,21.9374477 C35.4374155,29.3940911 29.4045968,35.4374155 21.9374477,35.4374155 Z"/>
</svg>
