<?xml version="1.0" encoding="UTF-8"?>
<svg width="24px" height="24px" viewBox="0 0 24 24" version="1.1" xmlns="http://www.w3.org/2000/svg" xmlns:xlink="http://www.w3.org/1999/xlink">
    <title></title>
    <g id="Icons" stroke="none" stroke-width="1" fill="none" fill-rule="evenodd">
        <g id="Icons/3.-Size-lg-(24px)/Brands/drupal" fill="#151515">
            <path d="M12.0843442,22.9577442 C16.8515295,22.9577442 20.9999571,19.4890025 20.9999571,14.239015 C20.9999571,8.97497422 17.1093414,6.22340912 16.4765304,5.8343567 C15.4358987,5.17810827 14.4374727,4.92029638 13.4437159,4.26404795 C12.8343424,3.85155809 11.9765411,2.8578013 11.2640336,2 C11.1374623,3.37342507 10.7249724,3.93120877 10.2327861,4.32030697 C9.23436014,5.11718007 8.60154914,5.36089287 7.72497958,5.8343567 C6.9843655,6.22340912 3,8.96559008 3,14.0749529 C3,19.1936999 7.30310559,22.9577442 12.0843442,22.9577442 Z M7.76718529,19.0905659 C5.94844878,17.8437122 7.08278446,14.1780868 10.1952953,14.1593185 C12.5156023,14.1358811 14.1234018,16.4561881 15.2812207,16.4327506 C16.2796467,16.4186973 18.1780797,14.4733895 19.1155774,14.4733895 C21.3983936,14.4733895 20.2077532,19.5968056 18.3749633,19.4421276 C17.6624559,19.3952527 16.2421559,17.1546422 15.3280956,17.1218206 C13.8796433,17.0796149 10.4484381,20.9046333 7.76718529,19.0905659 Z M12.9890204,19.8030734 C12.707771,19.4186902 13.7343494,18.7577725 14.0390362,18.6312012 C14.4468569,18.4624241 15.3984079,18.4530858 15.7640229,18.6921294 C15.9562374,18.8233699 16.5187361,19.5733681 16.0546564,19.8030734 C15.660889,19.9999571 15.9983974,19.0671285 14.8124718,19.0671285 C14.1234018,19.0671285 13.8984115,19.3108871 13.5609032,19.5827523 C13.2327789,19.8640016 13.1015384,19.9577514 12.9890204,19.8030734 Z M11.123409,21.2936857 C10.8984187,21.0686954 11.1374623,20.731187 11.4280958,20.731187 C11.4280958,20.731187 12.2249689,21.3546139 13.8421525,21.3546139 C15.1077745,21.3546139 15.9983974,20.9936681 16.3968339,20.6983655 C16.6827982,20.4827593 16.7906013,20.8999183 16.5937176,21.096802 C15.6515506,22.0390147 12.3703085,22.4421205 11.123409,21.2936857 Z" id="drupal"></path>
        </g>
    </g>
</svg>