<?xml version="1.0" encoding="UTF-8"?>
<svg width="24px" height="24px" viewBox="0 0 24 24" version="1.1" xmlns="http://www.w3.org/2000/svg" xmlns:xlink="http://www.w3.org/1999/xlink">
    <title></title>
    <g id="Icons" stroke="none" stroke-width="1" fill="none" fill-rule="evenodd">
        <g id="Icons/3.-Size-lg-(24px)/Brands/Facebook" fill="#151515">
            <path d="M10.683573,22.9999499 L10.683573,15.8604558 L7.73045509,15.8604558 L7.73045509,12.499975 L10.683573,12.499975 L10.683573,9.93874755 C10.683573,7.02545494 12.4179439,5.41623636 15.0743402,5.41623636 C16.3465082,5.41623636 17.6768578,5.6431035 17.6768578,5.6431035 L17.6768578,8.50247168 L16.2110562,8.50247168 C14.766861,8.50247168 14.3163769,9.39872504 14.3163769,10.3179581 L14.3163769,12.499975 L17.5404445,12.499975 L17.0248207,15.8604558 L14.3163769,15.8604558 L14.3163769,22.9999499 L20.7499553,22.9999499 C21.9919567,22.9999499 22.9999499,21.9919567 22.9999499,20.7499553 L22.9999499,4.24999464 C22.9999499,3.0079932 21.9919567,2 20.7499553,2 L4.24999464,2 C3.0079932,2 2,3.0079932 2,4.24999464 L2,20.7499553 C2,21.9919567 3.0079932,22.9999499 4.24999464,22.9999499 L10.683573,22.9999499 Z" id="facebook-square"></path>
        </g>
    </g>
</svg>