<?xml version="1.0" encoding="UTF-8"?>
<svg width="24px" height="24px" viewBox="0 0 24 24" version="1.1" xmlns="http://www.w3.org/2000/svg" xmlns:xlink="http://www.w3.org/1999/xlink">
    <title></title>
    <g id="Icons" stroke="none" stroke-width="1" fill="none" fill-rule="evenodd">
        <g id="Icons/3.-Size-lg-(24px)/Brands/Gitlab" fill="#151515">
            <path d="M7.5817413,9.50662492 L12.0020341,23.2878421 L16.4223269,9.50662492 L22.605143,9.50662492 L19.9567118,1.31290361 C19.8113722,0.895698796 19.2207669,0.895698796 19.0707581,1.31290361 L16.4176577,9.50662492 L7.58641048,9.50662492 C7.5817413,9.50662492 4.93331011,1.31290361 4.93331011,1.31290361 C4.78797049,0.895698796 4.19736521,0.895698796 4.04735641,1.31290361 L1.39892523,9.50662492 L7.5817413,9.50662492 Z M11.9973649,23.2878421 L1.39425605,9.50662492 L0.0442684248,13.6316151 C-0.0776337504,14.0066142 0.058321736,14.4237732 0.377061821,14.6628626 L11.9973649,23.2878421 Z M12.0020341,23.2878421 L23.6223372,14.6628626 C23.9457465,14.4237732 24.076987,14.0066142 23.9597998,13.6316151 L22.6098122,9.50662492 L12.0020341,23.2878421 Z" id="gitlab"></path>
        </g>
    </g>
</svg>