<?xml version="1.0" encoding="UTF-8"?>
<svg width="24px" height="24px" viewBox="0 0 24 24" version="1.1" xmlns="http://www.w3.org/2000/svg" xmlns:xlink="http://www.w3.org/1999/xlink">
    <title></title>
    <g id="Icons" stroke="none" stroke-width="1" fill="none" fill-rule="evenodd">
        <g id="Icons/3.-Size-lg-(24px)/Brands/linkedin" fill="#151515">
            <path d="M21.4999535,22.9999499 C22.3249332,22.9999499 22.9999499,22.3202641 22.9999499,21.4859002 L22.9999499,3.51404973 C22.9999499,2.67968588 22.3249332,2 21.4999535,2 L3.49532725,2 C2.67030175,2 2,2.67968588 2,3.51404973 L2,21.4859002 C2,22.3202641 2.67030175,22.9999499 3.49532725,22.9999499 L21.4999535,22.9999499 Z M6.79062273,8.60935924 C5.79219677,8.60935924 4.98593954,7.79843283 4.98593954,6.80467604 C4.98593954,5.81091926 5.79219677,4.99999285 6.79062273,4.99999285 C7.78437952,4.99999285 8.59530593,5.81091926 8.59530593,6.80467604 C8.59530593,7.80310201 7.7890487,8.60935924 6.79062273,8.60935924 Z M13.4140353,19.9999571 L10.3015244,19.9999571 L10.3015244,9.97811513 L13.2874639,9.97811513 L13.2874639,11.346871 L13.3296696,11.346871 C13.7468287,10.5593363 14.7640229,9.72968738 16.2780726,9.72968738 C19.4280743,9.72968738 20.0140104,11.8062358 20.0140104,14.506211 L20.0140104,19.9999571 L16.9015453,19.9999571 L16.9015453,15.1249687 C16.9015453,13.9624806 16.8781078,12.4671534 15.2843616,12.4671534 C13.662463,12.4671534 13.4140353,13.7327754 13.4140353,15.0406031 L13.4140353,19.9999571 Z M8.35154736,19.9999571 L5.23436729,19.9999571 L5.23436729,9.97811513 L8.35154736,9.97811513 L8.35154736,19.9999571 Z" id="linkedin"></path>
        </g>
    </g>
</svg>