<?xml version="1.0" encoding="UTF-8"?>
<svg width="24px" height="24px" viewBox="0 0 24 24" version="1.1" xmlns="http://www.w3.org/2000/svg" xmlns:xlink="http://www.w3.org/1999/xlink">
    <title></title>
    <g id="Icons" stroke="none" stroke-width="1" fill="none" fill-rule="evenodd">
        <g id="Icons/3.-Size-lg-(24px)/Brands/Satellite" fill="#151515">
            <path d="M23.8875,19.6428226 L17.5664062,13.3241196 C17.4210937,13.1788082 17.1820313,13.1788082 17.0367187,13.3241196 L15.7101562,14.6506723 L14.6484375,13.5889614 L18.0960938,10.1413308 C18.2414062,9.99601941 18.2414062,9.75695866 18.0960938,9.61164727 L17.83125,9.34680548 L18.6257813,8.54993641 C18.7710937,8.40462499 18.7710937,8.16556427 18.6257813,8.02025285 L15.9773438,5.36949131 C15.8320312,5.22417989 15.5929687,5.22417989 15.4476563,5.36949131 L14.6507813,6.16636038 L14.3859375,5.9015186 C14.240625,5.75620718 14.0015625,5.75620718 13.85625,5.9015186 L10.4085938,9.34680548 L9.346875,8.28509463 L10.6734375,6.958542 C10.81875,6.81323058 10.81875,6.57416986 10.6734375,6.42885844 L4.35234375,0.110155431 C4.2796875,0.0374997211 4.18359375,-3.55271368e-15 4.0875,-3.55271368e-15 C3.99140625,-3.55271368e-15 3.8953125,0.0374997211 3.82265625,0.110155431 L0.11015625,3.82262782 C0.0375,3.89528353 0,3.99137655 0,4.0874696 C0,4.18356262 0.0375,4.27965567 0.11015625,4.35231138 L6.43125,10.6733581 C6.5765625,10.8186695 6.815625,10.8186695 6.9609375,10.6733581 L8.2875,9.34680548 L9.34921875,10.4085163 L8.02265625,11.735069 C7.87734375,11.8803804 7.87734375,12.1194411 8.02265625,12.2647525 L11.7351562,15.9772249 C11.8804687,16.1225363 12.1195313,16.1225363 12.2648437,15.9772249 L13.5914062,14.6506723 L14.653125,15.7123831 L13.3265625,17.0389357 C13.18125,17.1842472 13.18125,17.4233079 13.3265625,17.5686193 L19.6453125,23.8873223 C19.7179687,23.9599781 19.8164062,24.0021652 19.9125,24 C20.0085938,24 20.1023438,23.9599781 20.175,23.8873223 L23.8875,20.1748499 C23.9601562,20.1021942 24,20.0061012 24,19.9100081 C24,19.8139151 23.9601562,19.7178221 23.8875,19.6428226 Z M6.69609375,8.81712192 L1.96640625,4.0874696 L4.0875,1.96639162 L8.8171875,6.69604395 L6.69609375,8.81712192 Z M19.9101562,22.0310861 L15.1804687,17.3014338 L17.3015625,15.1803558 L22.03125,19.9100081 L19.9101562,22.0310861 Z M4.04296875,21.5435898 C3.6046875,21.9818677 2.8921875,21.9818677 2.4515625,21.5435898 C2.0109375,21.1053118 2.01328125,20.3928171 2.4515625,19.9521953 C2.68828125,19.7154784 3,19.6076666 3.309375,19.6240728 L5.1,17.8334611 L2.44921875,15.1826996 C2.44921875,15.1826996 5.6296875,11.9952233 8.81484375,15.1780121 C12,18.3608009 8.81484375,21.5459335 8.81484375,21.5459335 L6.16171875,18.8951719 L4.37109375,20.6857836 C4.3875,20.9951563 4.2796875,21.3092165 4.04296875,21.5435898 Z" id="pficon-satellite"></path>
        </g>
    </g>
</svg>