<?xml version="1.0" encoding="UTF-8"?><svg version="1.1" width="40px" height="40px" viewBox="0 0 40.0 40.0" xmlns="http://www.w3.org/2000/svg" xmlns:xlink="http://www.w3.org/1999/xlink"><defs><clipPath id="i0"><path d="M20,0 C31.045695,0 40,8.954305 40,20 C40,31.045695 31.045695,40 20,40 C8.954305,40 0,31.045695 0,20 C0,8.954305 8.954305,0 20,0 Z"></path></clipPath><clipPath id="i1"><path d="M1.22852986,0.359772778 C1.70860837,-0.119924259 2.48634699,-0.119924259 2.96600588,0.359772778 L6.87499315,4.26876004 L10.7839804,0.359772778 C11.2640589,-0.119924259 12.0417594,-0.119924259 12.5214564,0.359772778 L13.3902135,1.22852986 C13.8699106,1.70860837 13.8699106,2.48634699 13.3902135,2.96600588 L9.48122625,6.87499315 L13.3902135,10.7839804 C13.8699106,11.2640589 13.8699106,12.0417594 13.3902135,12.5214564 L12.5214564,13.3902135 C12.0417594,13.8699106 11.2636393,13.8699106 10.7839804,13.3902135 L6.87499315,9.48122625 L2.96600588,13.3902135 C2.48634699,13.8699106 1.7082269,13.8699106 1.22852986,13.3902135 L0.359772778,12.5214564 C-0.119924259,12.0413779 -0.119924259,11.2636393 0.359772778,10.7839804 L4.26876004,6.87499315 L0.359772778,2.96600588 C-0.119924259,2.48592738 -0.119924259,1.7082269 0.359772778,1.22852986 Z"></path></clipPath></defs><g clip-path="url(#i0)"><polygon points="0,0 40,0 40,40 0,40 0,0" stroke="none" fill="#151515"></polygon></g><g transform="translate(12.999999999999998 12.999999999999998)"><g clip-path="url(#i1)"><polygon points="-5.55111512e-17,-5.55111512e-17 13.7499863,-5.55111512e-17 13.7499863,13.7499863 -5.55111512e-17,13.7499863 -5.55111512e-17,-5.55111512e-17" stroke="none" fill="#FFFFFF"></polygon></g></g></svg>