<svg xmlns="http://www.w3.org/2000/svg" width="154" height="72" viewBox="0 0 154 72">
  <g fill="none" fill-rule="evenodd">
    <rect width="154" height="72" fill="#F0F0F0" rx="3"/>
    <text fill="#6A6E73" font-family="RedHatText-Regular, Red Hat Text" font-size="16">
      <tspan x="40.2" y="40">Selected tile</tspan>
    </text>
    <g fill="#6A6E73" transform="translate(16 24)">
      <path d="M12.4999821,18.9999666 C13.0521659,18.9999666 13.4999797,18.5521527 13.4999797,17.999969 L13.4999797,13.4999797 L17.999969,13.4999797 C18.5521527,13.4999797 18.9999666,13.0521659 18.9999666,12.4999821 L18.9999666,11.4999845 C18.9999666,10.9478008 18.5521527,10.4999869 17.999969,10.4999869 L13.4999797,10.4999869 L13.4999797,6 C13.4999797,5.44781387 13.0521659,5 12.4999821,5 L11.4999845,5 C10.9478008,5 10.4999869,5.44781387 10.4999869,6 L10.4999869,10.4999869 L6,10.4999869 C5.44781387,10.4999869 5,10.9478008 5,11.4999845 L5,12.4999821 C5,13.0521659 5.44781387,13.4999797 6,13.4999797 L10.4999869,13.4999797 L10.4999869,17.999969 C10.4999869,18.5521527 10.9478008,18.9999666 11.4999845,18.9999666 L12.4999821,18.9999666 Z"/>
      <rect width="24" height="24"/>
    </g>
    <g fill="#007A87" fill-opacity=".9" stroke="#09707B">
      <rect width="23" height="71" x=".5" y=".5"/>
      <rect width="23" height="71" x=".5" y=".5" transform="translate(130)"/>
      <rect width="153" height="23" x=".5" y=".5"/>
      <rect width="153" height="23" x=".5" y=".5" transform="translate(0 48)"/>
    </g>
  </g>
</svg>
