<?xml version="1.0" encoding="UTF-8"?>
<svg width="197px" height="118px" viewBox="0 0 197 118" version="1.1" xmlns="http://www.w3.org/2000/svg" xmlns:xlink="http://www.w3.org/1999/xlink">
    <title></title>
    <g id="Alerts" stroke="none" stroke-width="1" fill="none" fill-rule="evenodd">
        <g id="Alerts-/-Inline-/-1.-Default-/-9.-Expandable-/-2.-Expanded">
            <g id="ðŸ“-Padding" transform="translate(0.000000, 0.000000)" fill-opacity="0.9">
                <g id="Spacer-/-Horizontal-/-3.-pf-global--spacer--md-(16px)" fill="#3F9C35" stroke="#418A38" transform="translate(8.000000, 59.000000) scale(-1, 1) translate(-8.000000, -59.000000) ">
                    <rect id="Rectangle-Copy-2" x="0.5" y="0.5" width="15" height="117"></rect>
                </g>
                <g id="Group" transform="translate(181.000000, 0.000000)" fill="#3F9C35" stroke="#418A38">
                    <g id="Spacer-/-Horizontal-/-3.-pf-global--spacer--md-(16px)" transform="translate(8.000000, 59.000000) scale(-1, 1) translate(-8.000000, -59.000000) ">
                        <rect id="Rectangle-Copy-2" x="0.5" y="0.5" width="15" height="117"></rect>
                    </g>
                </g>
                <g id="Group" transform="translate(66.000000, 16.000000)" fill="#EC7A08" stroke="#C77000">
                    <g id="Spacer-/-Horizontal-/-3.-pf-global--spacer--md-(16px)" transform="translate(2.000000, 24.500000) scale(-1, 1) translate(-2.000000, -24.500000) ">
                        <rect id="Rectangle" x="0.5" y="0.5" width="3" height="48"></rect>
                    </g>
                </g>
                <g id="Spacer-/-Vertical-/-1.-pf-global--spacer--xs-(4px)" transform="translate(70.000000, 40.000000)" fill="#EC7A08" stroke="#C77000">
                    <rect id="Rectangle" x="0.5" y="0.5" width="110" height="3"></rect>
                </g>
                <g id="Spacer-/-Vertical-/-3.-pf-global--spacer--md-(16px)" transform="translate(16.000000, 0.000000)" fill="#3F9C35" stroke="#418A38">
                    <rect id="Rectangle-Copy-2" x="0.5" y="0.5" width="164" height="15"></rect>
                </g>
                <g id="Spacer-/-Vertical-/-3.-pf-global--spacer--md-(16px)" transform="translate(16.000000, 102.000000)" fill="#3F9C35" stroke="#418A38">
                    <rect id="Rectangle-Copy-2" x="0.5" y="0.5" width="164" height="15"></rect>
                </g>
                <g id="Spacer-/-Vertical-/-3.-pf-global--spacer--md-(16px)" transform="translate(16.000000, 65.000000)" fill="#3F9C35" stroke="#418A38">
                    <rect id="Rectangle-Copy-2" x="0.5" y="0.5" width="164" height="15"></rect>
                </g>
                <g id="Spacer-/-Horizontal-/-3.-pf-global--spacer--md-(16px)" transform="translate(26.000000, 16.000000)" fill="#3F9C35" stroke="#418A38">
                    <rect id="Rectangle-Copy-2" x="0.5" y="0.5" width="15" height="48"></rect>
                </g>
                <g id="Group" transform="translate(66.000000, 81.000000)" fill="#EC7A08" stroke="#C77000">
                    <g id="Spacer-/-Horizontal-/-3.-pf-global--spacer--md-(16px)-Copy" transform="translate(2.000000, 10.500000) scale(-1, 1) translate(-2.000000, -10.500000) ">
                        <rect id="Rectangle" x="0.5" y="0.5" width="3" height="20"></rect>
                    </g>
                </g>
            </g>
            <rect id="Background" fill="#F2F9F9" x="0" y="0" width="197" height="118"></rect>
            <g id="Success-icon" transform="translate(47.000000, 20.000000)" fill="#73C5C5">
                <path d="M12.9968777,12.999969 C13.5943494,12.999969 13.9968753,12.5124824 14,11.9999714 C14.0015445,11.7640406 13.9184148,11.5227997 13.7309152,11.3215367 C13.1271874,10.6727956 11.9974904,9.69684578 11.9974904,6.4999845 C11.9974904,4.07185919 10.2950103,2.12810772 7.99939201,1.65124118 L7.99939201,1 C7.99939201,0.447813874 7.55188332,0 7,0 C6.44812618,0 6.00061748,0.447813874 6.00061748,1 L6.00061748,1.65124118 C3.70499918,2.12810772 2.0025191,4.07185919 2.0025191,6.4999845 C2.0025191,9.69684578 0.872822091,10.6727956 0.269094283,11.3215367 C0.0815947296,11.5231049 -0.00153495504,11.7640406 -2.66453526e-14,11.9999714 C0.00346991584,12.5124824 0.405660119,12.999969 1.00313184,12.999969 L12.9968777,12.999969 Z M7.00000475,15.9999666 C8.10376188,15.9999666 8.99905394,15.1046393 8.99905394,13.9999666 L5.00095556,13.9999666 C5.00095556,15.1046393 5.89624761,15.9999666 7.00000475,15.9999666 Z" id="bell"></path>
            </g>
            <g id="times" transform="translate(157.000000, 16.000000)" fill="#6A6E73">
                <path d="M9.37280471,17.7121708 L12.5,14.584981 L15.6271843,17.7121708 C16.0109114,18.0959284 16.6334075,18.0959284 17.0171651,17.7121708 L17.7121708,17.0171651 C18.0959284,16.6334075 18.0959284,16.0112471 17.7121708,15.6271843 L14.584981,12.5 L17.7121708,9.37280471 C18.0959284,8.98907759 18.0959284,8.36688669 17.7121708,7.98282389 L17.0171651,7.28781822 C16.6334075,6.90406059 16.0112471,6.90406059 15.6271843,7.28781822 L12.5,10.415008 L9.37280471,7.28781822 C8.98907759,6.90406059 8.36688669,6.90406059 7.98282389,7.28781822 L7.28781822,7.98282389 C6.90406059,8.36658152 6.90406059,8.9887419 7.28781822,9.37280471 L10.415008,12.5 L7.28781822,15.6271843 C6.90406059,16.0109114 6.90406059,16.6331023 7.28781822,17.0171651 L7.98282389,17.7121708 C8.36658152,18.0959284 8.98907759,18.0959284 9.37280471,17.7121708 Z"></path>
            </g>
            <text id="Action-2" font-family="RedHatText-Regular, Red Hat Text" font-size="14" font-weight="normal" line-spacing="21" fill="#0066CC">
                <tspan x="135" y="95">Action</tspan>
            </text>
            <text id="Action" font-family="RedHatText-Regular, Red Hat Text" font-size="14" font-weight="normal" line-spacing="21" fill="#0066CC">
                <tspan x="70" y="95">Action</tspan>
            </text>
            <text id="Description" font-family="RedHatText-Regular, Red Hat Text" font-size="14" font-weight="normal" line-spacing="21" fill="#151515">
                <tspan x="70" y="58">Description</tspan>
            </text>
            <text id="Title" font-family="RedHatText-Medium, Red Hat Text" font-size="14" font-weight="400" line-spacing="21" fill="#003737">
                <tspan x="70" y="32">Title</tspan>
            </text>
            <g id="Icons/1.-Size-md/Framework/angle-right" transform="translate(9.000000, 16.000000)" fill="#6A6E73">
                <path d="M12.5265524,15.2359089 L16.7765422,10.985919 C17.0703037,10.6953008 17.0703037,10.2202959 16.7765422,9.92656487 L16.0703061,9.22029824 C15.7796879,8.92656725 15.304683,8.92656725 15.0109215,9.22029824 L11.9984469,12.2328033 L8.98594192,9.22029824 C8.69532372,8.92656725 8.22031875,8.92656725 7.92655724,9.22029824 L7.22032113,9.92656487 C6.92655962,10.2171831 6.92655962,10.692188 7.22032113,10.985919 L11.470311,15.2359089 C11.7640725,15.5296704 12.239047,15.5296704 12.5265524,15.2359089 Z" id="angle-down"></path>
            </g>
            <rect id="Status-Color" fill="#73C5C5" x="0" y="0" width="197" height="3"></rect>
        </g>
    </g>
</svg>