<svg xmlns="http://www.w3.org/2000/svg" width="24" height="24" viewBox="0 0 24 24">
  <path fill="#151515" fill-rule="evenodd" d="M17.999969,18.9999666 C18.5499555,18.9999666 18.9999666,18.5468427 18.9999666,17.9906001 L18.9999666,6.00936649 C18.9999666,5.45312392 18.5499555,5 17.999969,5 L5.99688483,5 C5.44686783,5 5,5.45312392 5,6.00936649 L5,17.9906001 C5,18.5468427 5.44686783,18.9999666 5.99688483,18.9999666 L17.999969,18.9999666 Z M8.19374849,9.40623949 C7.52813118,9.40623949 6.99062636,8.86562189 6.99062636,8.20311736 C6.99062636,7.54061284 7.52813118,6.99999523 8.19374849,6.99999523 C8.85625301,6.99999523 9.39687062,7.54061284 9.39687062,8.20311736 C9.39687062,8.86873467 8.8593658,9.40623949 8.19374849,9.40623949 Z M12.6093569,16.9999714 L10.5343496,16.9999714 L10.5343496,10.3187434 L12.524976,10.3187434 L12.524976,11.2312474 L12.5531131,11.2312474 C12.8312191,10.7062242 13.5093486,10.1531249 14.5187151,10.1531249 C16.6187162,10.1531249 17.0093403,11.5374905 17.0093403,13.337474 L17.0093403,16.9999714 L14.9343635,16.9999714 L14.9343635,13.7499791 C14.9343635,12.9749871 14.9187386,11.9781023 13.8562411,11.9781023 C12.7749754,11.9781023 12.6093569,12.8218502 12.6093569,13.6937354 L12.6093569,16.9999714 Z M9.2343649,16.9999714 L7.15624486,16.9999714 L7.15624486,10.3187434 L9.2343649,10.3187434 L9.2343649,16.9999714 Z"/>
</svg>
