<svg xmlns="http://www.w3.org/2000/svg" width="24" height="24" viewBox="0 0 24 24">
  <path fill="#151515" fill-rule="evenodd" d="M5.48866781,4 C4.66893746,4.00233129 4.0049678,4.6662252 4.00254299,5.48595528 L4.00254299,8.98850349 L7.61443992,8.98850349 L7.61443992,8.41649971 C7.61440037,8.20330287 7.69906336,7.9988242 7.8498004,7.84805539 C8.00053744,7.69728657 8.20499826,7.61258048 8.4181951,7.61257509 L15.581805,7.61257509 C15.7950017,7.61258062 15.9994624,7.69728677 16.1501993,7.84805557 C16.3009363,7.99882437 16.3855992,8.20330296 16.3855596,8.41649971 L16.3855596,8.98850349 L20,8.98850349 L20,5.48595528 C19.9970898,4.66444158 19.3303079,4 18.508789,4 L5.48866781,4 Z M4,10.0212975 L4,13.6340417 L7.61257509,13.6340417 L7.61257509,10.0212975 L4,10.0212975 Z M16.3830172,10.0212975 L16.3830172,13.6340417 L19.9955923,13.6340417 L19.9955923,10.0212975 L16.3830172,10.0212975 Z M4,14.6670052 L4,18.1685368 C4.00195877,18.9885321 4.66596126,19.6529135 5.48595528,19.6553425 L18.5060765,19.6553425 C19.3289837,19.6568257 19.9975542,18.9914417 20,18.1685368 L20,14.6670052 L16.3830172,14.6670052 L16.3830172,15.2390095 C16.3825274,15.6827082 16.0229604,16.0422748 15.5792617,16.0427642 L8.41548257,16.0427642 C7.97178399,16.0422746 7.61221725,15.6827081 7.6117274,15.2390095 L7.6117274,14.6670052 L4,14.6670052 Z"/>
</svg>
