<?xml version="1.0" encoding="UTF-8"?>
<svg width="24px" height="24px" viewBox="0 0 24 24" version="1.1" xmlns="http://www.w3.org/2000/svg" xmlns:xlink="http://www.w3.org/1999/xlink">
    <title></title>
    <g id="Icons" stroke="none" stroke-width="1" fill="none" fill-rule="evenodd">
        <g id="Icons-/-3.-Size-lg-/-Status-/-check-circle" fill="#3E8635">
            <path d="M11.6249723,23.2499446 C18.0452756,23.2499446 23.2499446,18.0452756 23.2499446,11.6249723 C23.2499446,5.20466899 18.0452756,0 11.6249723,0 C5.20466899,0 0,5.20466899 0,11.6249723 C0,18.0452756 5.20466899,23.2499446 11.6249723,23.2499446 Z M9.21961303,17.7802768 L4.34462465,12.9052884 C4.05179393,12.6124119 4.05179393,12.1374833 4.34462465,11.8446068 L5.40530633,10.7839709 C5.69818283,10.4910944 6.1731115,10.4910944 6.465988,10.7839709 L9.74997675,14.0680054 L16.7839566,7.03402559 C17.0768788,6.74110331 17.5518075,6.74110331 17.8446382,7.03402559 L18.9053199,8.09466149 C19.1981506,8.38753799 19.1981506,8.86246666 18.9053199,9.15534316 L10.2803405,17.7803226 C9.9874182,18.0731533 9.5125353,18.0731533 9.21961303,17.7802768 Z" id="check-circle"></path>
        </g>
    </g>
</svg>