<?xml version="1.0" encoding="UTF-8"?>
<svg width="24px" height="24px" viewBox="0 0 24 24" version="1.1" xmlns="http://www.w3.org/2000/svg" xmlns:xlink="http://www.w3.org/1999/xlink">
    <title></title>
    <g id="Icons" stroke="none" stroke-width="1" fill="none" fill-rule="evenodd">
        <g id="Icons-/-3.-Size-lg-/-Status-/-pficon-connected" fill="#151515">
            <path d="M3.84853128,20.3533221 C3.48590837,20.3554879 3.14027435,20.1997815 2.90166235,19.9267163 C-0.344624927,16.1957771 -0.923547979,10.8376993 1.45089041,6.49945873 C1.85672698,5.76328045 2.33907965,5.07196067 2.88994368,4.43697197 C3.34622287,3.9133835 4.14056258,3.85881856 4.66415104,4.31509775 C5.18773951,4.77137696 5.24230445,5.56571664 4.78602526,6.08930511 C4.35304589,6.5877034 3.97362237,7.13020836 3.65400128,7.70788848 C1.78789834,11.1194576 2.24530661,15.3324777 4.80008767,18.2640707 C5.12510383,18.6366516 5.20217563,19.1648892 4.99716442,19.614803 C4.79215319,20.0647168 4.3429515,20.3533221 3.84853128,20.3523386 M20.210145,20.2820265 C19.7198838,20.281087 19.274944,19.9950776 19.0705179,19.5494692 C18.8660919,19.1038607 18.9395196,18.5800466 19.2585886,18.2078211 C22.2495476,14.7156492 22.2315998,9.55963236 19.2164014,6.08836762 C18.9176127,5.75098421 18.8225249,5.27936213 18.9672396,4.85256014 C19.1119543,4.42575818 19.4742785,4.10922967 19.9166499,4.02314965 C20.3590214,3.93706966 20.8135991,4.09463919 21.1077955,4.43603447 C24.9417232,8.84551542 24.9666535,15.398191 21.1663889,19.8367169 C20.9283208,20.1181403 20.5787563,20.2809276 20.210145,20.2820265 M14.5781499,12.1736411 C14.5781499,13.5949022 13.4259901,14.7470621 12.0047289,14.7470621 C10.5834678,14.7470621 9.43130795,13.5949022 9.43130795,12.1736411 C9.43130795,10.7523799 10.5834678,9.60022008 12.0047289,9.60022008 C13.4257222,9.60086674 14.5775033,10.7526479 14.5781499,12.1736411 M16.9148537,16.6712685 C16.5149135,16.6703659 16.1487915,16.4467182 15.9654115,16.0912962 C15.7820316,15.7358743 15.811945,15.307892 16.0429843,14.9814355 C17.2307647,13.2994804 17.227006,11.0508527 16.0336093,9.37287779 C15.6905909,8.89135763 15.8028688,8.22293705 16.284389,7.87991867 C16.7659092,7.53690026 17.4343297,7.64917813 17.7773481,8.13069826 C19.4985233,10.5498883 19.5060386,13.7917836 17.796098,16.2189276 C17.5914423,16.5017868 17.263983,16.6698709 16.9148537,16.6712685 M7.05710444,16.666581 C6.70844072,16.6662674 6.38162064,16.4967404 6.18054756,16.2118964 C4.4864459,13.7990753 4.4836355,10.5839772 6.17351636,8.16819802 C6.50867046,7.68538862 7.17897865,7.56820187 7.66647553,7.90569971 C8.14939379,8.24664953 8.2666303,8.91343219 7.92897384,9.39865888 C7.35007131,10.2166224 7.05241697,11.1845849 7.05241697,12.1900472 C7.05001347,13.1893172 7.35793698,14.1646812 7.93366131,14.9814355 C8.09748749,15.2138451 8.16189797,15.5019782 8.11262819,15.7820241 C8.0633584,16.0620701 7.90447438,16.3109179 7.671163,16.4734572 C7.49010849,16.5970873 7.27633579,16.6639932 7.05710444,16.6656435" id="pficon-connected"></path>
        </g>
    </g>
</svg>