<?xml version="1.0" encoding="UTF-8"?>
<svg width="24px" height="24px" viewBox="0 0 24 24" version="1.1" xmlns="http://www.w3.org/2000/svg" xmlns:xlink="http://www.w3.org/1999/xlink">
    <title></title>
    <g id="Icons" stroke="none" stroke-width="1" fill="none" fill-rule="evenodd">
        <g id="Icons-/-3.-Size-lg-/-Status-/-pficon-in-progress" fill="#151515">
            <path d="M11.9765625,24 C12.8046875,24 13.6054688,23.921875 14.3789062,23.765625 C15.1523438,23.609375 15.90625,23.375 16.640625,23.0625 C17.359375,22.75 18.0390625,22.3789062 18.6796875,21.9492188 C19.3203125,21.5195312 19.90625,21.03125 20.4375,20.484375 C20.984375,19.9375 21.4726562,19.3476562 21.9023438,18.7148438 C22.3320312,18.0820312 22.703125,17.3984375 23.015625,16.6640625 C23.34375,15.9453125 23.5859375,15.1953125 23.7421875,14.4140625 C23.8984375,13.6328125 23.9765625,12.828125 23.9765625,12 C23.9765625,11.171875 23.8984375,10.3710938 23.7421875,9.59765625 C23.5859375,8.82421875 23.34375,8.0703125 23.015625,7.3359375 C22.703125,6.6171875 22.3320312,5.9375 21.9023438,5.296875 C21.4726562,4.65625 20.984375,4.0703125 20.4375,3.5390625 C19.90625,2.9921875 19.3203125,2.50390625 18.6796875,2.07421875 C18.0390625,1.64453125 17.359375,1.2734375 16.640625,0.9609375 C15.90625,0.6328125 15.1523438,0.390625 14.3789062,0.234375 C13.6054688,0.078125 12.8046875,0 11.9765625,0 L11.9765625,3.234375 C12.5703125,3.25 13.1484375,3.3125 13.7109375,3.421875 C14.2734375,3.53125 14.8203125,3.703125 15.3515625,3.9375 C15.8828125,4.171875 16.3789062,4.4453125 16.8398438,4.7578125 C17.3007812,5.0703125 17.734375,5.4296875 18.140625,5.8359375 C18.546875,6.2421875 18.90625,6.67578125 19.21875,7.13671875 C19.53125,7.59765625 19.8046875,8.09375 20.0390625,8.625 C20.2734375,9.171875 20.4492188,9.73046875 20.5664062,10.3007812 C20.6835938,10.8710938 20.7421875,11.453125 20.7421875,12.046875 C20.7421875,12.65625 20.6835938,13.2460938 20.5664062,13.8164062 C20.4492188,14.3867188 20.2734375,14.9453125 20.0390625,15.4921875 C19.8046875,16.0234375 19.53125,16.5234375 19.21875,16.9921875 C18.90625,17.4609375 18.546875,17.890625 18.140625,18.28125 C17.734375,18.6875 17.3007812,19.046875 16.8398438,19.359375 C16.3789062,19.671875 15.8828125,19.9453125 15.3515625,20.1796875 C14.8046875,20.4140625 14.2460938,20.5859375 13.6757812,20.6953125 C13.1054688,20.8046875 12.5234375,20.859375 11.9296875,20.859375 C11.4140625,20.859375 10.9179688,20.8203125 10.4414062,20.7421875 C9.96484375,20.6640625 9.5,20.546875 9.046875,20.390625 L7.4765625,23.1328125 C8.1796875,23.4296875 8.90625,23.6484375 9.65625,23.7890625 C10.40625,23.9296875 11.1796875,24 11.9765625,24 Z M0,11.15625 L3.1875,10.9453125 C3.234375,10.5390625 3.30859375,10.1445312 3.41015625,9.76171875 C3.51171875,9.37890625 3.640625,9.0078125 3.796875,8.6484375 C3.84375,8.5390625 3.890625,8.43359375 3.9375,8.33203125 C3.984375,8.23046875 4.0390625,8.125 4.1015625,8.015625 L1.265625,6.609375 C1.203125,6.71875 1.14453125,6.8359375 1.08984375,6.9609375 C1.03515625,7.0859375 0.984375,7.2109375 0.9375,7.3359375 C0.671875,7.9453125 0.4609375,8.56640625 0.3046875,9.19921875 C0.1484375,9.83203125 0.046875,10.484375 0,11.15625 Z M4.5234375,21.3984375 L6.09375,18.65625 C6.03125,18.59375 5.96484375,18.5351562 5.89453125,18.4804688 C5.82421875,18.4257812 5.7578125,18.3671875 5.6953125,18.3046875 C5.3046875,17.8984375 4.94921875,17.4609375 4.62890625,16.9921875 C4.30859375,16.5234375 4.03125,16.0234375 3.796875,15.4921875 C3.71875,15.3046875 3.6484375,15.1171875 3.5859375,14.9296875 C3.5234375,14.7421875 3.46875,14.5546875 3.421875,14.3671875 L0.2578125,14.578125 C0.3359375,14.9375 0.4296875,15.2929688 0.5390625,15.6445312 C0.6484375,15.9960938 0.78125,16.3359375 0.9375,16.6640625 C1.25,17.3984375 1.62109375,18.0820312 2.05078125,18.7148438 C2.48046875,19.3476562 2.96875,19.9375 3.515625,20.484375 C3.671875,20.65625 3.83203125,20.8164062 3.99609375,20.9648438 C4.16015625,21.1132812 4.3359375,21.2578125 4.5234375,21.3984375 Z" id="pficon-in-progress"></path>
        </g>
    </g>
</svg>