<?xml version="1.0" encoding="UTF-8"?>
<svg width="24px" height="24px" viewBox="0 0 24 24" version="1.1" xmlns="http://www.w3.org/2000/svg" xmlns:xlink="http://www.w3.org/1999/xlink">
    <title></title>
    <g id="Icons" stroke="none" stroke-width="1" fill="none" fill-rule="evenodd">
        <g id="Icons-/-3.-Size-lg-/-Status-/-power-off" fill="#151515">
            <path d="M12.374979,13.4999678 C12.9984058,13.4999678 13.4999763,12.9983974 13.4999763,12.3749705 L13.4999763,1.12499732 C13.4999763,0.501570459 12.9984058,0 12.374979,0 L10.8749826,0 C10.2515557,0 9.74998524,0.501570459 9.74998524,1.12499732 L9.74998524,12.3749705 C9.74998524,12.9983974 10.2515557,13.4999678 10.8749826,13.4999678 L12.374979,13.4999678 Z M11.6484182,23.624972 C18.0562246,23.6108904 23.2499531,18.4124469 23.2499531,11.9999714 C23.2499531,8.09530235 21.3280826,4.64528311 18.3749647,2.53591314 C17.8312343,2.14686073 17.0718519,2.32030697 16.7437277,2.90157389 L16.0031136,4.21873994 C15.7265335,4.70625709 15.8531048,5.32968395 16.3078004,5.6671923 C18.3421431,7.17652708 19.4859087,9.52027149 19.499962,11.9484273 C19.5280686,16.3968268 15.9187022,19.8749526 11.6249808,19.8749526 C7.24217872,19.8749526 3.74533037,16.3218452 3.74999955,11.9953022 C3.74999955,9.40308427 4.99218409,7.11559888 6.93749195,5.67186148 C7.39218752,5.33435313 7.52342805,4.71092627 7.2468479,4.21873994 L6.50623382,2.90157389 C6.1781096,2.31563779 5.41405808,2.15157568 4.86561273,2.5406281 C1.91720973,4.65466725 -0.00466068952,8.11402484 -2.48689958e-14,12.0187397 C0.0093926217,18.4218311 5.24999597,23.638997 11.6484182,23.624972 Z" id="power-off"></path>
        </g>
    </g>
</svg>