<?xml version="1.0" encoding="UTF-8"?><svg version="1.1" width="330px" height="37px" viewBox="0 0 330.0 37.0" xmlns="http://www.w3.org/2000/svg" xmlns:xlink="http://www.w3.org/1999/xlink"><defs><clipPath id="i0"><path d="M330,0 L330,37 L0,37 L0,0 L330,0 Z"></path></clipPath><clipPath id="i1"><path d="M330,0 L330,8 L0,8 L0,0 L330,0 Z"></path></clipPath><clipPath id="i2"><path d="M16,0 L16,37 L0,37 L0,0 L16,0 Z"></path></clipPath><clipPath id="i3"><path d="M24,0 L24,37 L0,37 L0,0 L24,0 Z"></path></clipPath><clipPath id="i4"><path d="M32,0 L32,37 L0,37 L0,0 L32,0 Z"></path></clipPath><clipPath id="i5"><path d="M8,0 L8,21 L0,21 L0,0 L8,0 Z"></path></clipPath><clipPath id="i6"><path d="M16,0 L16,16 L0,16 L0,0 L16,0 Z"></path></clipPath></defs><g clip-path="url(#i0)"><polygon points="0,0 330,0 330,37 0,37 0,0" stroke="none" fill="#FFFFFF"></polygon></g><g transform="translate(80.0 8.0)"><text transform="translate(0.0 14.0)" font-family="RedHatText-Regular, Red Hat Text" font-size="14.0" font-weight="normal" fill="#141514" text-anchor="left" line-spacing="21.0">Type something</text></g><g clip-path="url(#i1)"><polygon points="0,0 330,0 330,8 0,8 0,0" stroke="none" fill="rgba(146, 211, 0, 0.9)"></polygon></g><g clip-path="url(#i1)"><polygon points="0,0 330,0 330,8 0,8 0,0 0,0" stroke="#7EB200" stroke-width="2" fill="none" stroke-miterlimit="5"></polygon></g><g transform="translate(0.0 29.0)"><g clip-path="url(#i1)"><polygon points="0,0 330,0 330,8 0,8 0,0" stroke="none" fill="rgba(146, 211, 0, 0.9)"></polygon></g><g clip-path="url(#i1)"><polygon points="0,0 330,0 330,8 0,8 0,0 0,0" stroke="#7EB200" stroke-width="2" fill="none" stroke-miterlimit="5"></polygon></g></g><g transform="translate(314.0 0.0)"><g clip-path="url(#i2)"><polygon points="0,0 16,0 16,37 0,37 0,0" stroke="none" fill="rgba(62, 156, 52, 0.9)"></polygon></g><g clip-path="url(#i2)"><polygon points="0,0 16,0 16,37 0,37 0,0 0,0" stroke="#418A37" stroke-width="2" fill="none" stroke-miterlimit="5"></polygon></g></g><g clip-path="url(#i3)"><polygon points="0,0 24,0 24,37 0,37 0,0" stroke="none" fill="rgba(0, 121, 135, 0.9)"></polygon></g><g clip-path="url(#i3)"><polygon points="0,0 24,0 24,37 0,37 0,0 0,0" stroke="#09707A" stroke-width="2" fill="none" stroke-miterlimit="5"></polygon></g><g transform="translate(24.0 0.0)"><g clip-path="url(#i4)"><polygon points="0,0 32,0 32,37 0,37 0,0" stroke="none" fill="rgba(0, 136, 206, 0.9)"></polygon></g><g clip-path="url(#i4)"><polygon points="0,0 32,0 32,37 0,37 0,0 0,0" stroke="#0478B0" stroke-width="2" fill="none" stroke-miterlimit="5"></polygon></g></g><g transform="translate(72.0 8.0)"><g clip-path="url(#i5)"><polygon points="0,0 8,0 8,21 0,21 0,0" stroke="none" fill="rgba(146, 211, 0, 0.9)"></polygon></g><g clip-path="url(#i5)"><polygon points="0,0 8,0 8,21 0,21 0,0 0,0" stroke="#7EB200" stroke-width="2" fill="none" stroke-miterlimit="5"></polygon></g></g><g transform="translate(48.0 6.5)"><g transform="translate(8.0 4.0)"><g clip-path="url(#i6)"><polygon points="0,0 16,0 16,16 0,16 0,0" stroke="none" fill="#FFFFFF"></polygon><polygon points="0,0 16,0 16,16 0,16 0,0 0,0" stroke="#696E73" stroke-width="2" fill="none" stroke-miterlimit="5"></polygon></g></g></g></svg>