<?xml version="1.0" encoding="UTF-8"?><svg version="1.1" width="140px" height="192px" viewBox="0 0 140.0 192.0" xmlns="http://www.w3.org/2000/svg" xmlns:xlink="http://www.w3.org/1999/xlink"><defs><filter id="i0" x="-8.10810811%" y="-6%" filterUnits="userSpaceOnUse" width="110.810811%" height="108%"><feGaussianBlur stdDeviation="2" in="SourceAlpha" result="i1"></feGaussianBlur><feOffset dx="0" dy="0" in="i1" result="i2"></feOffset><feColorMatrix values="0 0 0 0.0 0 0 0 0 0.0 0 0 0 0 0.0 0 0 0 0 0.06 0" type="matrix" in="i2"></feColorMatrix></filter><filter id="i3" x="-17.9487179%" y="-11.5384615%" filterUnits="userSpaceOnUse" width="125.641026%" height="119.230769%"><feGaussianBlur stdDeviation="4" in="SourceAlpha" result="i4"></feGaussianBlur><feOffset dx="0" dy="4" in="i4" result="i5"></feOffset><feColorMatrix values="0 0 0 0.0 0 0 0 0 0.0 0 0 0 0 0.0 0 0 0 0 0.12 0" type="matrix" in="i5"></feColorMatrix></filter><clipPath id="i6"><path d="M140,0 L140,192 L0,192 L0,0 L140,0 Z"></path></clipPath><clipPath id="i7"><path d="M140,0 L140,8 L0,8 L0,0 L140,0 Z"></path></clipPath></defs><polygon points="0,0 140,0 140,192 0,192 0,0 0,0" stroke="none" fill="#000000" filter="url(#i0)"></polygon><polygon points="0,0 140,0 140,192 0,192 0,0 0,0" stroke="none" fill="#000000" filter="url(#i3)"></polygon><g clip-path="url(#i6)"><polygon points="0,0 140,0 140,192 0,192 0,0" stroke="none" fill="#FFFFFF"></polygon></g><g transform="translate(0.0 184.0)"><g clip-path="url(#i7)"><polygon points="0,0 140,0 140,8 0,8 0,0" stroke="none" fill="rgba(146, 211, 0, 0.9)"></polygon></g><g clip-path="url(#i7)"><polygon points="0,0 140,0 140,8 0,8 0,0 0,0" stroke="#7EB200" stroke-width="2" fill="none" stroke-miterlimit="5"></polygon></g></g><g clip-path="url(#i7)"><polygon points="0,0 140,0 140,8 0,8 0,0" stroke="none" fill="rgba(146, 211, 0, 0.9)"></polygon></g><g clip-path="url(#i7)"><polygon points="0,0 140,0 140,8 0,8 0,0 0,0" stroke="#7EB200" stroke-width="2" fill="none" stroke-miterlimit="5"></polygon></g></svg>