<?xml version="1.0" encoding="UTF-8"?>
<svg width="24px" height="24px" viewBox="0 0 24 24" version="1.1" xmlns="http://www.w3.org/2000/svg" xmlns:xlink="http://www.w3.org/1999/xlink">
    <title></title>
    <g id="Icons" stroke="none" stroke-width="1" fill="none" fill-rule="evenodd">
        <g id="Icons/1.-Size-md-(16px)/View-Type/table" fill="#151515">
            <path d="M18.4999654,18.9999666 C19.3283936,18.9999666 19.9999619,18.3283984 19.9999619,17.4999702 L19.9999619,6.5 C19.9999619,5.67156822 19.3283936,5 18.4999654,5 L5.5,5 C4.67156822,5 4,5.67156822 4,6.5 L4,17.4999702 C4,18.3283984 4.67156822,18.9999666 5.5,18.9999666 L18.4999654,18.9999666 Z M10.9999833,11.9999905 L5.99999523,11.9999905 L5.99999523,8.99999046 L10.9999833,8.99999046 L10.9999833,11.9999905 Z M17.9999666,11.9999905 L12.9999785,11.9999905 L12.9999785,8.99999046 L17.9999666,8.99999046 L17.9999666,11.9999905 Z M10.9999833,16.9999785 L5.99999523,16.9999785 L5.99999523,13.9999785 L10.9999833,13.9999785 L10.9999833,16.9999785 Z M17.9999666,16.9999785 L12.9999785,16.9999785 L12.9999785,13.9999785 L17.9999666,13.9999785 L17.9999666,16.9999785 Z" id="table"></path>
        </g>
    </g>
</svg>