<?xml version="1.0" encoding="UTF-8"?>
<svg width="24px" height="24px" viewBox="0 0 24 24" version="1.1" xmlns="http://www.w3.org/2000/svg" xmlns:xlink="http://www.w3.org/1999/xlink">
    <title></title>
    <g id="Icons" stroke="none" stroke-width="1" fill="none" fill-rule="evenodd">
        <g id="Icons/1.-Size-md-(16px)/View-Type/tachometer-alt" fill="#151515">
            <path d="M18.921837,18.9999666 C19.2699502,18.9999666 19.6040254,18.8255896 19.7793484,18.5249617 C20.5546456,17.1955886 20.9999571,15.6499685 20.9999571,13.9999785 C20.9999571,9.02937882 16.9705783,5 11.9999785,5 C7.02937882,5 3,9.02937882 3,13.9999785 C3,15.6499685 3.44531144,17.1955886 4.22060866,18.5249617 C4.39593173,18.8255896 4.73000686,18.9999666 5.07812005,18.9999666 L18.921837,18.9999666 Z M12.0002861,8.99999523 C11.4481,8.99999523 11.0002861,8.55217659 11.0002861,7.99999523 C11.0002861,7.44780911 11.4477948,6.99999523 11.9999785,6.99999523 C12.4596637,6.99999523 12.830604,7.31655331 12.947486,7.73906818 L12.8711539,7.87526215 C12.8590361,7.89829496 12.8481007,7.92208166 12.8396677,7.94750274 L12.5515519,8.81218574 C12.391213,8.9212553 12.2087183,8.99999523 12.0002861,8.99999523 Z M13.7224781,16.9999714 L10.277479,16.9999714 C10.1056044,16.7046535 9.99998331,16.3662144 9.99998331,15.9999738 C9.99998331,14.9393379 10.8281063,14.0803006 11.8718661,14.0127959 L13.7887316,8.26250443 C13.9190413,7.86998827 14.3427769,7.65468727 14.7374598,7.7884455 C15.1302811,7.9193656 15.3421642,8.34435238 15.2115187,8.73717371 L13.2949889,14.48716 C13.7227833,14.8540414 13.9999833,15.3918514 13.9999833,15.9999738 C13.9999833,16.3662144 13.8943527,16.7046535 13.7224781,16.9999714 Z M7.49999166,10.9999905 C6.94780553,10.9999905 6.49999166,10.5521718 6.49999166,9.99999046 C6.49999166,9.44780434 6.94780553,8.99999046 7.49999166,8.99999046 C8.05217301,8.99999046 8.49999166,9.44780434 8.49999166,9.99999046 C8.49999166,10.5521718 8.05217301,10.9999905 7.49999166,10.9999905 Z M16.4999678,11.0002956 C16.1443473,10.9999857 15.8471679,10.8040633 15.6696475,10.5246755 L16.1546622,9.06999762 C16.2630909,9.029684 16.3774705,9.00029564 16.4999678,9.00029564 C17.0521516,9.00029564 17.4999654,9.44810951 17.4999654,10.0002956 C17.4999654,10.552477 17.0521516,11.0002956 16.4999678,11.0002956 Z M5.99999523,15.9999785 C5.44780911,15.9999785 4.99999523,15.5521599 4.99999523,14.9999785 C4.99999523,14.4477924 5.44780911,13.9999785 5.99999523,13.9999785 C6.55217659,13.9999785 6.99999523,14.4477924 6.99999523,14.9999785 C6.99999523,15.5521599 6.55217659,15.9999785 5.99999523,15.9999785 Z M17.9999666,15.9999785 C17.4477805,15.9999785 16.9999666,15.5521599 16.9999666,14.9999785 C16.9999666,14.4477924 17.4477805,13.9999785 17.9999666,13.9999785 C18.552148,13.9999785 18.9999666,14.4477924 18.9999666,14.9999785 C18.9999666,15.5521599 18.552148,15.9999785 17.9999666,15.9999785 Z" id="tachometer-alt"></path>
        </g>
    </g>
</svg>