<?xml version="1.0" encoding="UTF-8"?><svg version="1.1" width="138px" height="37px" viewBox="0 0 138.0 37.0" xmlns="http://www.w3.org/2000/svg" xmlns:xlink="http://www.w3.org/1999/xlink"><defs><filter id="i0" x="-8.21917808%" y="-26.6666667%" filterUnits="userSpaceOnUse" width="110.958904%" height="135.555556%"><feGaussianBlur stdDeviation="2" in="SourceAlpha" result="i1"></feGaussianBlur><feOffset dx="0" dy="0" in="i1" result="i2"></feOffset><feColorMatrix values="0 0 0 0.0 0 0 0 0 0.0 0 0 0 0 0.0 0 0 0 0 0.06 0" type="matrix" in="i2"></feColorMatrix></filter><filter id="i3" x="-18.1818182%" y="-45.2830189%" filterUnits="userSpaceOnUse" width="125.974026%" height="175.471698%"><feGaussianBlur stdDeviation="4" in="SourceAlpha" result="i4"></feGaussianBlur><feOffset dx="0" dy="4" in="i4" result="i5"></feOffset><feColorMatrix values="0 0 0 0.0 0 0 0 0 0.0 0 0 0 0 0.0 0 0 0 0 0.12 0" type="matrix" in="i5"></feColorMatrix></filter><clipPath id="i6"><path d="M135,0 C136.656854,-3.04359188e-16 138,1.34314575 138,3 L138,34 C138,35.6568542 136.656854,37 135,37 L3,37 C1.34314575,37 -1.57345071e-15,35.6568542 0,34 L0,3 C-2.02906125e-16,1.34314575 1.34314575,3.04359188e-16 3,0 L135,0 Z"></path></clipPath><clipPath id="i7"><path d="M3,9.99997616 C3.55217659,9.99997616 4,10.44779 4,10.9999762 L4,12.9999762 C4,13.5521527 3.55217659,13.9999762 3,13.9999762 L1,13.9999762 C0.447813874,13.9999762 0,13.5521527 0,12.9999762 L0,10.9999762 C0,10.44779 0.447813874,9.99997616 1,9.99997616 Z M8.99998569,9.99997616 C9.55216228,9.99997616 9.99998569,10.44779 9.99998569,10.9999762 L9.99998569,12.9999762 C9.99998569,13.5521527 9.55216228,13.9999762 8.99998569,13.9999762 L6.99998569,13.9999762 C6.44779957,13.9999762 5.99998569,13.5521527 5.99998569,12.9999762 L5.99998569,10.9999762 C5.99998569,10.44779 6.44779957,9.99997616 6.99998569,9.99997616 Z M3,4.99998808 C3.55217659,4.99998808 4,5.44780195 4,5.99998808 L4,7.99998808 C4,8.55216467 3.55217659,8.99998808 3,8.99998808 L1,8.99998808 C0.447813874,8.99998808 0,8.55216467 0,7.99998808 L0,5.99998808 C0,5.44780195 0.447813874,4.99998808 1,4.99998808 Z M8.99998569,4.99998808 C9.55216228,4.99998808 9.99998569,5.44780195 9.99998569,5.99998808 L9.99998569,7.99998808 C9.99998569,8.55216467 9.55216228,8.99998808 8.99998569,8.99998808 L6.99998569,8.99998808 C6.44779957,8.99998808 5.99998569,8.55216467 5.99998569,7.99998808 L5.99998569,5.99998808 C5.99998569,5.44780195 6.44779957,4.99998808 6.99998569,4.99998808 Z M3,0 C3.55217659,0 4,0.447813874 4,1 L4,3 C4,3.55217659 3.55217659,4 3,4 L1,4 C0.447813874,4 0,3.55217659 0,3 L0,1 C0,0.447813874 0.447813874,0 1,0 Z M8.99998569,0 C9.55216228,0 9.99998569,0.447813874 9.99998569,1 L9.99998569,3 C9.99998569,3.55217659 9.55216228,4 8.99998569,4 L6.99998569,4 C6.44779957,4 5.99998569,3.55217659 5.99998569,3 L5.99998569,1 C5.99998569,0.447813874 6.44779957,0 6.99998569,0 Z"></path></clipPath></defs><path d="M3,0 L135,0 C136.656854,-3.04359188e-16 138,1.34314575 138,3 L138,34 C138,35.6568542 136.656854,37 135,37 L3,37 C1.34314575,37 -1.57345071e-15,35.6568542 0,34 L0,3 C-2.02906125e-16,1.34314575 1.34314575,3.04359188e-16 3,0 Z" stroke="none" fill="#000000" filter="url(#i0)"></path><path d="M3,0 L135,0 C136.656854,-3.04359188e-16 138,1.34314575 138,3 L138,34 C138,35.6568542 136.656854,37 135,37 L3,37 C1.34314575,37 -1.57345071e-15,35.6568542 0,34 L0,3 C-2.02906125e-16,1.34314575 1.34314575,3.04359188e-16 3,0 Z" stroke="none" fill="#000000" filter="url(#i3)"></path><g clip-path="url(#i6)"><polygon points="0,0 138,0 138,37 0,37 0,0" stroke="none" fill="#FFFFFF"></polygon></g><g clip-path="url(#i6)"><polygon points="0,0 138,0 138,37 0,37 0,0" stroke="none" fill="#F0F0F0"></polygon></g><g transform="translate(9.0 6.0)"><g transform="translate(7.0 5.0)"><g clip-path="url(#i7)"><polygon points="0,0 9.99998569,0 9.99998569,13.9999762 0,13.9999762 0,0" stroke="none" fill="#151515"></polygon></g></g></g><g transform="translate(35.0 9.0)"><text transform="translate(0.0 14.0)" font-family="RedHatText-Regular, Red Hat Text" font-size="14.0" font-weight="normal" fill="#141514" text-anchor="left" line-spacing="21.0">Dragging chip</text></g></svg>