<?xml version="1.0" encoding="UTF-8"?>
<svg width="138px" height="37px" viewBox="0 0 138 37" version="1.1" xmlns="http://www.w3.org/2000/svg" xmlns:xlink="http://www.w3.org/1999/xlink">
    <title></title>
    <defs>
        <rect id="path-1" x="0" y="0" width="138" height="37" rx="3"></rect>
        <filter x="-10.1%" y="-27.0%" width="120.3%" height="175.7%" filterUnits="objectBoundingBox" id="filter-2">
            <feOffset dx="0" dy="0" in="SourceAlpha" result="shadowOffsetOuter1"></feOffset>
            <feGaussianBlur stdDeviation="2" in="shadowOffsetOuter1" result="shadowBlurOuter1"></feGaussianBlur>
            <feColorMatrix values="0 0 0 0 0   0 0 0 0 0   0 0 0 0 0  0 0 0 0.06 0" type="matrix" in="shadowBlurOuter1" result="shadowMatrixOuter1"></feColorMatrix>
            <feOffset dx="0" dy="4" in="SourceAlpha" result="shadowOffsetOuter2"></feOffset>
            <feGaussianBlur stdDeviation="4" in="shadowOffsetOuter2" result="shadowBlurOuter2"></feGaussianBlur>
            <feColorMatrix values="0 0 0 0 0   0 0 0 0 0   0 0 0 0 0  0 0 0 0.12 0" type="matrix" in="shadowBlurOuter2" result="shadowMatrixOuter2"></feColorMatrix>
            <feMerge>
                <feMergeNode in="shadowMatrixOuter1"></feMergeNode>
                <feMergeNode in="shadowMatrixOuter2"></feMergeNode>
            </feMerge>
        </filter>
    </defs>
    <g id="Data-List-and-Table" stroke="none" stroke-width="1" fill="none" fill-rule="evenodd">
        <g id="Data-list-and-tables-/-7.-Column-management-(OLD)-/-dragging-chip">
            <g id="Background">
                <use fill="black" fill-opacity="1" filter="url(#filter-2)" xlink:href="#path-1"></use>
                <use fill="#FFFFFF" fill-rule="evenodd" xlink:href="#path-1"></use>
            </g>
            <rect id="Background" fill="#F0F0F0" x="0" y="0" width="138" height="37" rx="3"></rect>
            <g id="Icons/1.-Size-md-(16px)/Actions/plus-circle" transform="translate(16.000000, 11.000000)" fill="#151515">
                <path d="M3,4 C3.55217659,4 4,3.55217659 4,3 L4,1 C4,0.447813874 3.55217659,1.77635684e-15 3,1.77635684e-15 L1,1.77635684e-15 C0.447813874,1.77635684e-15 0,0.447813874 0,1 L0,3 C0,3.55217659 0.447813874,4 1,4 L3,4 Z M8.99998569,4 C9.55216228,4 9.99998569,3.55217659 9.99998569,3 L9.99998569,1 C9.99998569,0.447813874 9.55216228,1.77635684e-15 8.99998569,1.77635684e-15 L6.99998569,1.77635684e-15 C6.44779957,1.77635684e-15 5.99998569,0.447813874 5.99998569,1 L5.99998569,3 C5.99998569,3.55217659 6.44779957,4 6.99998569,4 L8.99998569,4 Z M3,8.99998808 C3.55217659,8.99998808 4,8.55216467 4,7.99998808 L4,5.99998808 C4,5.44780195 3.55217659,4.99998808 3,4.99998808 L1,4.99998808 C0.447813874,4.99998808 0,5.44780195 0,5.99998808 L0,7.99998808 C0,8.55216467 0.447813874,8.99998808 1,8.99998808 L3,8.99998808 Z M8.99998569,8.99998808 C9.55216228,8.99998808 9.99998569,8.55216467 9.99998569,7.99998808 L9.99998569,5.99998808 C9.99998569,5.44780195 9.55216228,4.99998808 8.99998569,4.99998808 L6.99998569,4.99998808 C6.44779957,4.99998808 5.99998569,5.44780195 5.99998569,5.99998808 L5.99998569,7.99998808 C5.99998569,8.55216467 6.44779957,8.99998808 6.99998569,8.99998808 L8.99998569,8.99998808 Z M3,13.9999762 C3.55217659,13.9999762 4,13.5521527 4,12.9999762 L4,10.9999762 C4,10.44779 3.55217659,9.99997616 3,9.99997616 L1,9.99997616 C0.447813874,9.99997616 0,10.44779 0,10.9999762 L0,12.9999762 C0,13.5521527 0.447813874,13.9999762 1,13.9999762 L3,13.9999762 Z M8.99998569,13.9999762 C9.55216228,13.9999762 9.99998569,13.5521527 9.99998569,12.9999762 L9.99998569,10.9999762 C9.99998569,10.44779 9.55216228,9.99997616 8.99998569,9.99997616 L6.99998569,9.99997616 C6.44779957,9.99997616 5.99998569,10.44779 5.99998569,10.9999762 L5.99998569,12.9999762 C5.99998569,13.5521527 6.44779957,13.9999762 6.99998569,13.9999762 L8.99998569,13.9999762 Z" id="grip-vertical"></path>
            </g>
            <text id="✏️-Label" font-family="RedHatText-Regular, Red Hat Text" font-size="14" font-weight="normal" line-spacing="21" fill="#151515">
                <tspan x="35" y="23">Dragging chip</tspan>
            </text>
        </g>
    </g>
</svg>