<svg xmlns="http://www.w3.org/2000/svg" width="24" height="24" viewBox="0 0 24 24">
  <path fill="#151515" fill-rule="evenodd" d="M9.03551046,18.9948726 C15.0659831,18.9948726 18.3654443,13.9999504 18.3654443,9.66496929 C18.3654443,9.52284927 18.3654443,9.38066821 18.3552819,9.23854819 C18.9948678,8.7715388 19.5532771,8.19286587 19.9999008,7.54314818 C19.4110961,7.79693175 18.7715102,7.97970109 18.1115997,8.05074584 C18.7917738,7.64467992 19.3095338,7.00509404 19.5532161,6.24365176 C18.9237315,6.61929174 18.2131009,6.89339997 17.4720138,7.03551999 C16.8729857,6.39593411 16.020235,6 15.0760539,6 C13.258828,6 11.7968869,7.47207291 11.7968869,9.27916699 C11.7968869,9.53298108 11.8273434,9.78676465 11.878094,10.0304164 C9.15733634,9.88826588 6.73092,8.58879998 5.11672707,6.59896708 C4.83242599,7.0862706 4.67004235,7.6446494 4.67004235,8.25377881 C4.67004235,9.39083054 5.24868477,10.3958941 6.13192241,10.9847293 C5.59389879,10.9644657 5.08624009,10.8121834 4.64971769,10.5685316 L4.64971769,10.6091199 C4.64971769,12.2030187 5.77663761,13.5227787 7.27916699,13.8273739 C7.00508927,13.8984187 6.71065638,13.9390375 6.416254,13.9390375 C6.20302819,13.9390375 6,13.9187433 5.79693175,13.8882869 C6.21319052,15.1877833 7.42131753,16.1319339 8.86293396,16.1624208 C7.73601404,17.0456585 6.32482356,17.5634185 4.79186823,17.5634185 C4.51776,17.5634185 4.26397642,17.5532561 4,17.5228302 C5.45177877,18.4567879 7.17763525,18.9948726 9.03551046,18.9948726 Z"/>
</svg>
