<?xml version="1.0" encoding="UTF-8"?>
<svg width="179px" height="40px" viewBox="0 0 179 40" version="1.1" xmlns="http://www.w3.org/2000/svg" xmlns:xlink="http://www.w3.org/1999/xlink">
    <title></title>
    <defs>
        <linearGradient x1="49.9422414%" y1="3.14212121%" x2="49.9422414%" y2="100.337273%" id="linearGradient-1">
            <stop stop-color="#00F1FF" offset="0%"></stop>
            <stop stop-color="#0076C1" offset="100%"></stop>
        </linearGradient>
    </defs>
    <g id="Application-launcher" stroke="none" stroke-width="1" fill="none" fill-rule="evenodd">
        <g id="Application-launcher-/-2.-Menu-Item-/-2.-With-icons-/-2.-With-favoriting-/-2.-Hover-/-2.-Star-hover">
            <rect fill="#FFFFFF" x="0" y="0" width="179" height="40"></rect>
            <rect id="Rectangle" fill="#F0F0F0" x="0" y="5.68434189e-14" width="179" height="40"></rect>
            <text id="✏️-Label" font-family="RedHatText-Regular, Red Hat Text" font-size="16" font-weight="normal" line-spacing="24" fill="#151515">
                <tspan x="48" y="24">Option</tspan>
            </text>
            <g id="Icons-/-Small-/-star" transform="translate(147.000000, 8.000000)" fill="#151515">
                <path d="M5.11640325,17.9135414 L8.17968177,16.3033844 L11.2429603,17.9135414 C11.7867136,18.1994828 12.4359125,17.740118 12.330444,17.1236949 L11.7445079,13.7135468 L14.2218503,11.2994901 C14.6671617,10.8658974 14.4210686,10.1088725 13.8070029,10.0198148 L10.3828015,9.5206018 L8.852341,6.41747505 C8.57811832,5.86436052 7.78357981,5.85733387 7.50702255,6.41747505 L5.97656202,9.5206018 L2.55236059,10.0198148 C1.93829498,10.1088725 1.69220182,10.8658974 2.13751325,11.2994901 L4.61485568,13.7135468 L4.02891957,17.1236949 C3.92345107,17.740118 4.57264997,18.2018174 5.11640325,17.9135414 Z" id="star"></path>
            </g>
            <g id="Icons-/-Small-/-external-link-alt" transform="translate(115.000000, 8.000000)" fill="#6A6E73">
                <path d="M6.0938213,15.0013518 C6.22275013,15.0013518 6.40125465,14.9272401 6.49225785,14.8359164 L12.2018619,9.12468737 L13.0390409,9.96092806 C13.3906026,10.3124897 13.9999762,10.0663966 13.9999762,9.56249151 L13.9999762,6.56249866 C13.9999762,6.2519983 13.7479779,6 13.4374775,6 L10.4374847,6 C9.93662372,6 9.68631915,6.60726784 10.0390481,6.96093521 L10.876479,7.79836607 L5.16405972,13.5086567 C5.07273609,13.5996599 4.99862433,13.7781644 4.99862433,13.9070933 C4.99862433,14.0360221 5.07273609,14.2145266 5.16405972,14.3055298 L5.69538475,14.8359164 C5.78638795,14.9272401 5.96489247,15.0013518 6.0938213,15.0013518 Z M11.3749824,17.9999714 C11.9959831,17.9999714 12.4999797,17.4959748 12.4999797,16.8749741 L12.4999797,13.8749812 C12.4999797,13.667981 12.3319809,13.4999821 12.1249806,13.4999821 L11.3749824,13.4999821 C11.1679822,13.4999821 10.9999833,13.667981 10.9999833,13.8749812 L10.9999833,16.499975 L3.50000477,16.499975 L3.50000477,8.99999642 L6.87499315,8.99999642 C7.08199338,8.99999642 7.24999225,8.83199398 7.24999225,8.62499374 L7.24999225,7.87499553 C7.24999225,7.66799529 7.08199338,7.49999642 6.87499315,7.49999642 L3.12500209,7.49999642 C2.50400137,7.49999642 2.00000477,8.00399302 2.00000477,8.62499374 L2.00000477,16.8749741 C2.00000477,17.4959748 2.50400137,17.9999714 3.12500209,17.9999714 L11.3749824,17.9999714 Z" id="external-link-alt"></path>
            </g>
            <g id="Group" transform="translate(16.000000, 8.000000)" fill="url(#linearGradient-1)" fill-rule="nonzero">
                <g id="Icons-/-Social-/-Gitlab">
                    <path d="M9.6091954,16.2504348 L7.2183908,16.7990062 L4,12.2732919 L11.816092,4.6847205 L12,4.50186335 L12.183908,4.6847205 L20,12.2732919 L16.7816092,16.7990062 L14.3908046,16.2504348 L12,19.5875776 L9.6091954,16.2504348 Z M12,18.8104348 L13.9310345,16.1590062 L13.3333333,16.0218634 L12.045977,17.8961491 L10.6666667,16.0218634 L10.0689655,16.1590062 L12,18.8104348 Z M12.045977,17.0732919 L12.9655172,15.7018634 L12,6.42186335 L11.0344828,15.7018634 L12.045977,17.0732919 Z M16.5517241,16.2504348 L19.3563218,12.3190062 L14.6206897,7.70186335 L17.1494253,10.7647205 L15.7241379,12.7304348 L16.183908,13.7818634 L14.7126437,15.8390062 L16.5517241,16.2504348 Z M7.40229885,16.2504348 L9.28735632,15.8390062 L7.81609195,13.7818634 L8.27586207,12.7304348 L6.85057471,10.7647205 L9.33333333,7.70186335 L4.59770115,12.3190062 L7.40229885,16.2504348 Z M9.79310345,15.7018634 L10.3908046,15.5647205 L8.59770115,13.1418634 L8.36781609,13.6904348 L9.79310345,15.7018634 Z M14.2068966,15.7018634 L15.6321839,13.6904348 L15.4022989,13.1418634 L13.6091954,15.5647205 L14.2068966,15.7018634 Z M13.3793103,15.0618634 L15.1724138,12.6390062 L12.5057471,6.6047205 L13.3793103,15.0618634 Z M10.5747126,15.0618634 L11.4942529,6.6047205 L8.82758621,12.6847205 L10.5747126,15.0618634 Z M8.50574713,12.2275776 L11.1724138,6.23900621 L7.44827586,10.7647205 L8.50574713,12.2275776 Z M15.4942529,12.2275776 L16.5517241,10.7647205 L12.8275862,6.23900621 L15.4942529,12.2275776 Z" id="pf-shape"></path>
                </g>
            </g>
        </g>
    </g>
</svg>