<?xml version="1.0" encoding="UTF-8"?>
<svg width="52px" height="52px" viewBox="0 0 52 52" version="1.1" xmlns="http://www.w3.org/2000/svg" xmlns:xlink="http://www.w3.org/1999/xlink">
    <title></title>
    <g id="Icons" stroke="none" stroke-width="1" fill="none" fill-rule="evenodd">
        <g id="Icons-/-4.-Size-xl-/-Empty-state-/-info-circle" fill="#2B9AF3">
            <path d="M26,52 C30.6827962,52 35.016129,50.8293005 39,48.4879032 C42.983871,46.1465059 46.1465059,42.983871 48.4879032,39 C50.8293005,35.016129 52,30.6827962 52,26 C52,21.3172038 50.8293005,16.983871 48.4879032,13 C46.1465059,9.01612903 42.983871,5.85349409 39,3.51209677 C35.016129,1.17069946 30.6827962,0 26,0 C21.3172038,0 16.983871,1.17069946 13,3.51209677 C9.01612903,5.85349409 5.85349409,9.01612903 3.51209677,13 C1.17069946,16.983871 0,21.3172038 0,26 C0,30.6827962 1.17069946,35.016129 3.51209677,39 C5.85349409,42.983871 9.01612903,46.1465059 13,48.4879032 C16.983871,50.8293005 21.3172038,52 26,52 Z M26,20.3387097 C24.8118285,20.3387097 23.7809134,19.9018812 22.9072581,19.0282258 C22.0336027,18.1545704 21.5967742,17.1236554 21.5967742,15.9354839 C21.5967742,14.7473124 22.0336027,13.7163973 22.9072581,12.8427419 C23.7809134,11.9690866 24.8118285,11.5322581 26,11.5322581 C27.1881715,11.5322581 28.2190866,11.9690866 29.0927419,12.8427419 C29.9663973,13.7163973 30.4032258,14.7473124 30.4032258,15.9354839 C30.4032258,17.1236554 29.9663973,18.1545704 29.0927419,19.0282258 C28.2190866,19.9018812 27.1881715,20.3387097 26,20.3387097 Z M30.6129032,39.4193548 L21.3870968,39.4193548 C21.0376349,39.4193548 20.7405909,39.2970425 20.4959677,39.0524194 C20.2513446,38.8077962 20.1290323,38.5107522 20.1290323,38.1612903 L20.1290323,38.1612903 L20.1290323,35.6451613 C20.1290323,35.2956995 20.2513446,34.9986554 20.4959677,34.7540323 C20.7405909,34.5094091 21.0376349,34.3870968 21.3870968,34.3870968 L21.3870968,34.3870968 L22.6451613,34.3870968 L22.6451613,27.6774194 L21.3870968,27.6774194 C21.0376349,27.6774194 20.7405909,27.555107 20.4959677,27.3104839 C20.2513446,27.0658607 20.1290323,26.7688167 20.1290323,26.4193548 L20.1290323,26.4193548 L20.1290323,23.9032258 C20.1290323,23.553764 20.2513446,23.2567199 20.4959677,23.0120968 C20.7405909,22.7674737 21.0376349,22.6451613 21.3870968,22.6451613 L21.3870968,22.6451613 L28.0967742,22.6451613 C28.446236,22.6451613 28.7432801,22.7674737 28.9879032,23.0120968 C29.2325263,23.2567199 29.3548387,23.553764 29.3548387,23.9032258 L29.3548387,23.9032258 L29.3548387,34.3870968 L30.6129032,34.3870968 C30.9623651,34.3870968 31.2594091,34.5094091 31.5040323,34.7540323 C31.7486554,34.9986554 31.8709677,35.2956995 31.8709677,35.6451613 L31.8709677,35.6451613 L31.8709677,38.1612903 C31.8709677,38.5107522 31.7486554,38.8077962 31.5040323,39.0524194 C31.2594091,39.2970425 30.9623651,39.4193548 30.6129032,39.4193548 L30.6129032,39.4193548 Z" id="info-circle"></path>
        </g>
    </g>
</svg>