<?xml version="1.0" encoding="UTF-8"?>
<svg width="48px" height="54px" viewBox="0 0 48 54" version="1.1" xmlns="http://www.w3.org/2000/svg" xmlns:xlink="http://www.w3.org/1999/xlink">
    <title></title>
    <g id="Icons" stroke="none" stroke-width="1" fill="none" fill-rule="evenodd">
        <g id="Icons-/-4.-Size-xl-/-Empty-state-/-lock" fill="#6A6E73">
            <path d="M42.1873994,53.7499839 C43.5936455,53.7499839 44.7889563,53.257797 45.7733284,52.2734249 C46.7577005,51.2890528 47.2498873,50.0937421 47.2498873,48.687496 L47.2498873,48.687496 L47.2498873,28.4375443 C47.2498873,27.0312981 46.7577005,25.8359874 45.7733284,24.8516153 C44.7889563,23.8672432 43.5936455,23.3750563 42.1873994,23.3750563 L42.1873994,23.3750563 L39.6561555,23.3750563 L39.6561555,15.7813244 C39.6561555,12.8985193 38.9354546,10.2266496 37.4940512,7.76571854 C36.0526479,5.30478745 34.1014807,3.35362022 31.6405496,1.91221687 C29.1796185,0.470813523 26.5077488,-0.249887347 23.6249437,-0.249887347 C20.7421386,-0.249887347 18.0702689,0.470813523 15.6093378,1.91221687 C13.1484067,3.35362022 11.1972395,5.30478745 9.75583612,7.76571854 C8.31443277,10.2266496 7.5937319,12.8985193 7.5937319,15.7813244 L7.5937319,15.7813244 L7.5937319,23.3750563 L5.06248793,23.3750563 C3.65624182,23.3750563 2.4609311,23.8672432 1.47655898,24.8516153 C0.492186863,25.8359874 0,27.0312981 0,28.4375443 L0,28.4375443 L0,48.687496 C0,50.0937421 0.492186863,51.2890528 1.47655898,52.2734249 C2.4609311,53.257797 3.65624182,53.7499839 5.06248793,53.7499839 L5.06248793,53.7499839 L42.1873994,53.7499839 Z M31.2186756,23.3750563 L16.0312118,23.3750563 L16.0312118,15.7813244 C16.0312118,13.6719545 16.7694913,11.87899 18.2460502,10.402431 C19.7226092,8.92587203 21.5155737,8.18759254 23.6249437,8.18759254 C25.7343136,8.18759254 27.5272781,8.92587203 29.0038371,10.402431 C30.4803961,11.87899 31.2186756,13.6719545 31.2186756,15.7813244 L31.2186756,15.7813244 L31.2186756,23.3750563 Z" id="lock"></path>
        </g>
    </g>
</svg>