<svg xmlns="http://www.w3.org/2000/svg" width="24" height="24" viewBox="0 0 24 24">
  <path fill="#6A6E73" fill-rule="evenodd" d="M4.43749419,9.49998212 C4.74685014,9.49998212 5,9.24683941 5,8.93748346 L5,5 L8.93748346,5 C9.24683941,5 9.49998212,4.74685014 9.49998212,4.43749419 L9.49998212,2.56249866 C9.49998212,2.25314271 9.24683941,2 8.93748346,2 L3.12499732,2 C2.50157046,2 2,2.50157046 2,3.12499732 L2,8.93748346 C2,9.24683941 2.25314271,9.49998212 2.56249866,9.49998212 L4.43749419,9.49998212 Z M22.4374513,9.49998212 C22.7468072,9.49998212 22.9999499,9.24683941 22.9999499,8.93748346 L22.9999499,3.12499732 C22.9999499,2.50157046 22.4983795,2 21.8749526,2 L16.0624665,2 C15.7531105,2 15.4999678,2.25314271 15.4999678,2.56249866 L15.4999678,4.43749419 C15.4999678,4.74685014 15.7531105,5 16.0624665,5 L19.9999571,5 L19.9999571,8.93748346 C19.9999571,9.24683941 20.2530998,9.49998212 20.5624557,9.49998212 L22.4374513,9.49998212 Z M21.8749526,22.9999499 C22.4983795,22.9999499 22.9999499,22.4983795 22.9999499,21.8749526 L22.9999499,16.0624665 C22.9999499,15.7531105 22.7468072,15.4999678 22.4374513,15.4999678 L20.5624557,15.4999678 C20.2530998,15.4999678 19.9999571,15.7531105 19.9999571,16.0624665 L19.9999571,19.9999571 L16.0624665,19.9999571 C15.7531105,19.9999571 15.4999678,20.2530998 15.4999678,20.5624557 L15.4999678,22.4374513 C15.4999678,22.7468072 15.7531105,22.9999499 16.0624665,22.9999499 L21.8749526,22.9999499 Z M8.93748346,22.9999499 C9.24683941,22.9999499 9.49998212,22.7468072 9.49998212,22.4374513 L9.49998212,20.5624557 C9.49998212,20.2530998 9.24683941,19.9999571 8.93748346,19.9999571 L5,19.9999571 L5,16.0624665 C5,15.7531105 4.74685014,15.4999678 4.43749419,15.4999678 L2.56249866,15.4999678 C2.25314271,15.4999678 2,15.7531105 2,16.0624665 L2,21.8749526 C2,22.4983795 2.50157046,22.9999499 3.12499732,22.9999499 L8.93748346,22.9999499 Z"/>
</svg>
