<svg xmlns="http://www.w3.org/2000/svg" width="24" height="24" viewBox="0 0 24 24">
  <path fill="#6A6E73" fill-rule="evenodd" d="M11.6249723,23.2499446 C18.046832,23.2499446 23.2499446,18.046832 23.2499446,11.6249723 C23.2499446,5.20311259 18.046832,0 11.6249723,0 C5.20311259,0 0,5.20311259 0,11.6249723 C0,18.046832 5.20311259,23.2499446 11.6249723,23.2499446 Z M7.77656227,17.3249404 L5.92500418,15.4687131 C5.70468305,15.248392 5.70468305,14.8921611 5.92500418,14.67184 L8.99997854,11.6249723 L5.92500418,8.57343537 C5.70468305,8.35311424 5.70468305,7.99683762 5.92500418,7.77656227 L7.78123145,5.92028923 C8.00155258,5.6999681 8.35778342,5.6999681 8.57810455,5.92028923 L11.6249723,8.99997854 L14.6765092,5.92500418 C14.8968303,5.70468305 15.2531069,5.70468305 15.4733823,5.92500418 L17.3296553,7.78123145 C17.5499765,8.00155258 17.5499765,8.35778342 17.3296553,8.57810455 L14.249966,11.6249723 L17.3249404,14.6765092 C17.5452615,14.8968303 17.5452615,15.2531069 17.3249404,15.4733823 L15.4687131,17.3249404 C15.248392,17.5452615 14.8921611,17.5452615 14.67184,17.3249404 L11.6249723,14.249966 L8.57343537,17.3249404 C8.35311424,17.5452615 7.99683762,17.5452615 7.77656227,17.3249404 Z"/>
</svg>
