<?xml version="1.0" encoding="UTF-8"?>
<svg width="64px" height="40px" viewBox="0 0 64 40" version="1.1" xmlns="http://www.w3.org/2000/svg" xmlns:xlink="http://www.w3.org/1999/xlink">
    <title></title>
    <g id="Tabs-" stroke="none" stroke-width="1" fill="none" fill-rule="evenodd">
        <g id="Tabs-/-4.-Overflow-arrows-/-Right-/-Hover">
            <rect id="Background" fill="#FFFFFF" x="0" y="0" width="64" height="40"></rect>
            <rect id="Right-border" fill="#D2D2D2" transform="translate(0.500000, 20.000000) scale(1, -1) translate(-0.500000, -20.000000) " x="0" y="0" width="1" height="40"></rect>
            <g id="Arrow" transform="translate(20.000000, 8.000000)" fill="#0066CC">
                <path d="M10.985919,16.7827983 L15.2359089,12.5328085 C15.5296704,12.239047 15.5296704,11.7640725 15.2327961,11.470311 L10.9828062,7.22032113 C10.692188,6.92655962 10.2171831,6.92655962 9.92342157,7.22032113 L9.22029824,7.93281333 C8.92656725,8.22343153 8.92656725,8.6984365 9.22029824,8.99219801 L12.2328033,12.0046725 L9.22029824,15.0171775 C8.92656725,15.3077957 8.92656725,15.7828007 9.22029824,16.0765622 L9.92656487,16.7827983 C10.2171831,17.0765598 10.692188,17.0765598 10.985919,16.7827983 Z" id="angle-right"></path>
            </g>
            <rect id="Bottom-border" fill="#D2D2D2" x="0" y="39" width="64" height="1"></rect>
        </g>
    </g>
</svg>