<?xml version="1.0" encoding="UTF-8"?>
<svg width="24px" height="24px" viewBox="0 0 24 24" version="1.1" xmlns="http://www.w3.org/2000/svg" xmlns:xlink="http://www.w3.org/1999/xlink">
    <title></title>
    <g id="Icons" stroke="none" stroke-width="1" fill="none" fill-rule="evenodd">
        <g id="Icons-/-1.-Size-md-/-Actions-/-pficon-save" fill="#6A6E73">
            <path d="M19.853125,6.853125 L17.146875,4.146875 C17.053125,4.053125 16.9265625,4 16.79375,4 L4.5,4 C4.2234375,4 4,4.2234375 4,4.5 L4,19.5 C4,19.7765625 4.2234375,20 4.5,20 L19.5,20 C19.7765625,20 20,19.7765625 20,19.5 L20,7.2078125 C20,7.075 19.946875,6.946875 19.853125,6.853125 Z M18,18 L6,18 L6,6 L16.171875,6 L18,7.828125 L18,18 Z M13,12 L13,8.234375 C13,8.1046875 12.8890625,8 12.7609375,8 L11.28125,8 C11.1265625,8 11,8.1265625 11,8.28125 L11,12 L8.9984375,12 C8.575,12 8.34375,12.4921875 8.6125,12.81875 L11.6125,16.453125 C11.8125,16.6953125 12.1859375,16.6953125 12.384375,16.4515625 L15.3609375,12.8171875 C15.628125,12.490625 15.3953125,12 14.9734375,12 L13,12 Z" id="pficon-save"></path>
        </g>
    </g>
</svg>