<?xml version="1.0" encoding="UTF-8"?>
<svg width="24px" height="24px" viewBox="0 0 24 24" version="1.1" xmlns="http://www.w3.org/2000/svg" xmlns:xlink="http://www.w3.org/1999/xlink">
    <title></title>
    <g id="Icons" stroke="none" stroke-width="1" fill="none" fill-rule="evenodd">
        <g id="Icons-/-1.-Size-md-/-Actions-/-sync-alt" fill="#6A6E73">
            <path d="M6.29393984,10.7499839 C6.46669944,10.7499839 6.61602159,10.631637 6.65801368,10.4640349 C7.23497764,8.16179428 9.32466382,6.50213026 11.7452208,6.5 C13.0902188,6.49880386 14.358038,7.00023699 15.3349644,7.91499921 L14.03028,9.21965308 C13.557808,9.69215562 13.8924325,10.4999845 14.5606438,10.4999845 L18.7499648,10.4999845 C19.1641789,10.4999845 19.499963,10.1642004 19.499963,9.74998629 L19.499963,5.56066522 C19.499963,4.89245393 18.6921342,4.55782948 18.2196621,5.0303015 L17.1035759,6.1463877 C15.7121913,4.81674 13.8264841,4 11.7499815,4 C7.96291169,4 4.81039235,6.71636315 4.13424651,10.3069918 C4.09091165,10.5372769 4.26892026,10.7499839 4.50320315,10.7499839 L6.29393984,10.7499839 Z M11.7499815,19.499963 C15.5370514,19.499963 18.6895707,16.7835999 19.3657471,13.1930323 C19.4090819,12.9627472 19.2311038,12.7500402 18.9967904,12.7500402 L17.2060232,12.7500402 C17.0332636,12.7500402 16.8839415,12.8683871 16.8419494,13.0359892 C16.2646802,15.3392674 14.1741701,16.9978023 11.7548643,16.9999995 C10.4098358,17.0012202 9.141925,16.4997871 8.16499861,15.5849944 L9.469683,14.28031 C9.94215502,13.8078074 9.60753058,12.9999785 8.93931928,12.9999785 L4.74999821,12.9999785 C4.33578411,12.9999785 4,13.3357627 4,13.7499768 L4,17.9392978 C4,18.6075091 4.80782888,18.9421336 5.2803009,18.4696615 L6.39638711,17.3535753 C7.78777173,18.683223 9.6734789,19.499963 11.7499815,19.499963 Z" id="sync-alt"></path>
        </g>
    </g>
</svg>