<?xml version="1.0" encoding="UTF-8"?><svg version="1.1" width="152px" height="36px" viewBox="0 0 152.0 36.0" xmlns="http://www.w3.org/2000/svg" xmlns:xlink="http://www.w3.org/1999/xlink"><defs><clipPath id="i0"><path d="M149,0 C150.656854,-3.04359188e-16 152,1.34314575 152,3 L152,33 C152,34.6568542 150.656854,36 149,36 L0,36 L0,0 L149,0 Z"></path></clipPath><clipPath id="i1"><path d="M3,2.99999285 L3,12.2499708 C3,13.2149343 3.78502516,13.9999666 4.74998868,13.9999666 L9.99997616,13.9999666 L9.99997616,15.2499636 C9.99997616,15.6641777 9.66419205,15.9999619 9.24997795,15.9999619 L0.749998212,15.9999619 C0.335784112,15.9999619 0,15.6641777 0,15.2499636 L0,3.74999106 C0,3.33577696 0.335784112,2.99999285 0.749998212,2.99999285 L3,2.99999285 Z M9.99997616,0 L9.99997616,3.24999225 C9.99997616,3.66249737 10.3374692,4 10.7499744,4 L13.9999666,4 L13.9999666,12.2499708 C13.9999666,12.6641849 13.6641825,12.999969 13.2499684,12.999969 L4.74998868,12.999969 C4.33577457,12.999969 3.99999046,12.6641849 3.99999046,12.2499708 L3.99999046,0.749998212 C3.99999046,0.335784112 4.33577457,0 4.74998868,0 L9.99997616,0 Z M11.1893044,0 C11.3607822,0 11.598361,0.0984189548 11.7196376,0.219665004 L13.7803016,2.28032904 C13.9015477,2.4016056 13.9999738,2.63918438 13.9999738,2.81066224 L13.9999738,3 L10.9999738,3 L10.9999738,0 Z"></path></clipPath><clipPath id="i2"><path d="M8,0 L8,37 L0,37 L0,0 L8,0 Z"></path></clipPath><clipPath id="i3"><path d="M16,0 L16,37 L0,37 L0,0 L16,0 Z"></path></clipPath></defs><g clip-path="url(#i0)"><polygon points="0,0 152,0 152,36 0,36 0,0" stroke="none" fill="#E7F1FA"></polygon><path d="M0,0 L149,0 C150.656854,-3.04359188e-16 152,1.34314575 152,3 L152,33 C152,34.6568542 150.656854,36 149,36 L0,36 L0,36 L0,0 Z" stroke="#0066CC" stroke-width="2" fill="none" stroke-miterlimit="5"></path></g><g transform="translate(38.0 8.0625)"><text transform="translate(0.0 14.0)" font-family="RedHatText-Regular, Red Hat Text" font-size="14.0" font-weight="normal" fill="#141514" text-anchor="left" line-spacing="21.0">Selected - right</text></g><g transform="translate(15.999999999999998 10.000000000000002)"><g transform="translate(-9.735402100474744e-06 -1.2715627237369631e-05)"><g clip-path="url(#i1)"><polygon points="0,0 13.9999738,0 13.9999738,15.9999619 0,15.9999619 0,0" stroke="none" fill="#151515"></polygon></g></g></g><g transform="translate(30.0 0.0)"><g clip-path="url(#i2)"><polygon points="0,0 8,0 8,37 0,37 0,0" stroke="none" fill="rgba(146, 211, 0, 0.9)"></polygon></g><g clip-path="url(#i2)"><polygon points="0,0 8,0 8,37 0,37 0,0 0,0" stroke="#7EB200" stroke-width="2" fill="none" stroke-miterlimit="5"></polygon></g></g><g clip-path="url(#i3)"><polygon points="0,0 16,0 16,37 0,37 0,0" stroke="none" fill="rgba(62, 156, 52, 0.9)"></polygon></g><g clip-path="url(#i3)"><polygon points="0,0 16,0 16,37 0,37 0,0 0,0" stroke="#418A37" stroke-width="2" fill="none" stroke-miterlimit="5"></polygon></g><g transform="translate(131.1592356687898 0.0)"><g clip-path="url(#i3)"><polygon points="0,0 16,0 16,37 0,37 0,0" stroke="none" fill="rgba(62, 156, 52, 0.9)"></polygon></g><g clip-path="url(#i3)"><polygon points="0,0 16,0 16,37 0,37 0,0 0,0" stroke="#418A37" stroke-width="2" fill="none" stroke-miterlimit="5"></polygon></g></g></svg>