<?xml version="1.0" encoding="UTF-8"?>
<svg width="249px" height="40px" viewBox="0 0 249 40" version="1.1" xmlns="http://www.w3.org/2000/svg" xmlns:xlink="http://www.w3.org/1999/xlink">
    <title></title>
    <g id="Wizard" stroke="none" stroke-width="1" fill="none" fill-rule="evenodd">
        <g id="Wizard-/-2.-Step-/--With-Arrow-/-Current--">
            <text id="âœï¸-Step-Name" font-family="RedHatText-Regular, Red Hat Text" font-size="16" font-weight="normal" line-spacing="24" fill="#0066CC">
                <tspan x="56" y="32">Step</tspan>
            </text>
            <circle id="Oval" fill="#0066CC" cx="36" cy="28" r="12"></circle>
            <g id="ðŸ“-Padding" fill-opacity="0.9">
                <g id="Spacer-/-Horizontal-/-2.-pf-global--spacer--sm-(8px)" transform="translate(48.000000, 16.000000)" fill="#92D400" stroke="#7FB300">
                    <rect id="Rectangle-Copy" x="0.5" y="0.5" width="7" height="23"></rect>
                </g>
                <g id="Spacer-/-Vertical-/-3.-pf-global--spacer--md-(16px)" fill="#3F9C35" stroke="#418A38">
                    <rect id="Rectangle-Copy-2" x="0.5" y="0.5" width="248" height="15"></rect>
                </g>
                <g id="Spacer-/-Horizontal-/-4.-pf-global--spacer--lg-(24px)" transform="translate(0.000000, 16.000000)" fill="#007A87" stroke="#09707B">
                    <rect id="Rectangle-Copy-3" x="0.5" y="0.5" width="23" height="23"></rect>
                </g>
                <g id="Spacer-/-Horizontal-/-4.-pf-global--spacer--lg-(24px)" transform="translate(225.000000, 16.000000)" fill="#007A87" stroke="#09707B">
                    <rect id="Rectangle-Copy-3" x="0.5" y="0.5" width="23" height="23"></rect>
                </g>
            </g>
            <g id="Icons/3.-Size-lg-(24px)/Framework/angle-right" transform="translate(206.000000, 23.000000)" fill="#6A6E73">
                <path d="M8.28982856,9.35386335 L14.6648134,2.97887855 C15.1054556,2.54295124 15.1054556,1.83044379 14.6648134,1.3898473 L13.6054592,0.330447363 C13.1695319,-0.110149121 12.4570244,-0.110149121 12.0163822,0.330447363 L7.49767042,4.8492049 L2.97891288,0.330447363 C2.54298558,-0.110149121 1.83047812,-0.110149121 1.38983586,0.330447363 L0.330481695,1.3898473 C-0.110160565,1.82577461 -0.110160565,2.53828206 0.330481695,2.97887855 L6.7054665,9.35386335 C7.14610876,9.79450561 7.85857044,9.79450561 8.28982856,9.35386335 Z" id="angle-down"></path>
            </g>
            <text id="ðŸ’¯-Step-Number" font-family="RedHatText-Regular, Red Hat Text" font-size="16" font-weight="normal" line-spacing="24" fill="#FFFFFF">
                <tspan x="33.544" y="32">1</tspan>
            </text>
        </g>
    </g>
</svg>