<?xml version="1.0" encoding="UTF-8"?><svg version="1.1" width="249px" height="40px" viewBox="0 0 249.0 40.0" xmlns="http://www.w3.org/2000/svg" xmlns:xlink="http://www.w3.org/1999/xlink"><defs><clipPath id="i0"><path d="M12,0 C18.627417,0 24,5.372583 24,12 C24,18.627417 18.627417,24 12,24 C5.372583,24 0,18.627417 0,12 C0,5.372583 5.372583,0 12,0 Z"></path></clipPath><clipPath id="i1"><path d="M8,0 L8,24 L0,24 L0,0 L8,0 Z"></path></clipPath><clipPath id="i2"><path d="M249,0 L249,16 L0,16 L0,0 L249,0 Z"></path></clipPath><clipPath id="i3"><path d="M24,0 L24,24 L0,24 L0,0 L24,0 Z"></path></clipPath><clipPath id="i4"><path d="M12.0163822,0.330447363 C12.4570244,-0.110149121 13.1695319,-0.110149121 13.6054592,0.330447363 L14.6648134,1.3898473 C15.1054556,1.83044379 15.1054556,2.54295124 14.6648134,2.97887855 L8.28982856,9.35386335 C7.85857044,9.79450561 7.14610876,9.79450561 6.7054665,9.35386335 L0.330481695,2.97887855 C-0.110160565,2.53828206 -0.110160565,1.82577461 0.330481695,1.3898473 L1.38983586,0.330447363 C1.83047812,-0.110149121 2.54298558,-0.110149121 2.97891288,0.330447363 L7.49767042,4.8492049 Z"></path></clipPath></defs><g transform="translate(56.0 16.0)"><text transform="translate(0.0 16.0)" font-family="RedHatText-Regular, Red Hat Text" font-size="16.0" font-weight="normal" fill="#0066CC" text-anchor="left" line-spacing="24.0">Step</text></g><g transform="translate(24.0 16.0)"><g clip-path="url(#i0)"><polygon points="0,0 24,0 24,24 0,24 0,0" stroke="none" fill="#0066CC"></polygon></g></g><g transform="translate(48.0 16.0)"><g clip-path="url(#i1)"><polygon points="0,0 8,0 8,24 0,24 0,0" stroke="none" fill="rgba(146, 211, 0, 0.9)"></polygon></g><g clip-path="url(#i1)"><polygon points="0,0 8,0 8,24 0,24 0,0 0,0" stroke="#7EB200" stroke-width="2" fill="none" stroke-miterlimit="5"></polygon></g></g><g clip-path="url(#i2)"><polygon points="0,0 249,0 249,16 0,16 0,0" stroke="none" fill="rgba(62, 156, 52, 0.9)"></polygon></g><g clip-path="url(#i2)"><polygon points="0,0 249,0 249,16 0,16 0,0 0,0" stroke="#418A37" stroke-width="2" fill="none" stroke-miterlimit="5"></polygon></g><g transform="translate(0.0 16.0)"><g clip-path="url(#i3)"><polygon points="0,0 24,0 24,24 0,24 0,0" stroke="none" fill="rgba(0, 121, 135, 0.9)"></polygon></g><g clip-path="url(#i3)"><polygon points="0,0 24,0 24,24 0,24 0,0 0,0" stroke="#09707A" stroke-width="2" fill="none" stroke-miterlimit="5"></polygon></g></g><g transform="translate(225.0 16.0)"><g clip-path="url(#i3)"><polygon points="0,0 24,0 24,24 0,24 0,0" stroke="none" fill="rgba(0, 121, 135, 0.9)"></polygon></g><g clip-path="url(#i3)"><polygon points="0,0 24,0 24,24 0,24 0,0 0,0" stroke="#09707A" stroke-width="2" fill="none" stroke-miterlimit="5"></polygon></g></g><g transform="translate(201.0 16.0)"><g transform="translate(4.999999999999999 7.0)"><g clip-path="url(#i4)"><polygon points="0,0 14.9952951,0 14.9952951,9.68434504 0,9.68434504 0,0" stroke="none" fill="#696E73"></polygon></g></g></g><g transform="translate(24.0 16.0)"><text transform="translate(9.544 16.0)" font-family="RedHatText-Regular, Red Hat Text" font-size="16.0" font-weight="normal" fill="#FFFFFF" text-anchor="center" line-spacing="24.0">1</text></g></svg>