<?xml version="1.0" encoding="UTF-8"?><svg version="1.1" width="249px" height="40px" viewBox="0 0 249.0 40.0" xmlns="http://www.w3.org/2000/svg" xmlns:xlink="http://www.w3.org/1999/xlink"><defs><clipPath id="i0"><path d="M12,0 C18.627417,0 24,5.372583 24,12 C24,18.627417 18.627417,24 12,24 C5.372583,24 0,18.627417 0,12 C0,5.372583 5.372583,0 12,0 Z"></path></clipPath><clipPath id="i1"><path d="M8,0 L8,24 L0,24 L0,0 L8,0 Z"></path></clipPath><clipPath id="i2"><path d="M249,0 L249,16 L0,16 L0,0 L249,0 Z"></path></clipPath><clipPath id="i3"><path d="M24,0 L24,24 L0,24 L0,0 L24,0 Z"></path></clipPath><clipPath id="i4"><path d="M1.38513235,0.330481695 C1.82577461,-0.110160565 2.53828206,-0.110160565 2.97420937,0.330481695 L9.34919417,6.7054665 C9.79450561,7.14610876 9.79450561,7.85857044 9.35386335,8.2992127 L2.97887855,14.6741975 C2.53828206,15.1148398 1.82577461,15.1148398 1.3898473,14.6741975 L0.330447363,13.6148433 C-0.110149121,13.1742011 -0.110149121,12.4616936 0.330447363,12.0257663 L4.8492049,7.50700877 L0.330447363,2.98829701 C-0.110149121,2.54765475 -0.110149121,1.8351473 0.330447363,1.39921999 Z"></path></clipPath></defs><g transform="translate(56.0 16.0)"><text transform="translate(0.0 16.0)" font-family="RedHatText-Regular, Red Hat Text" font-size="16.0" font-weight="normal" fill="#151515" text-anchor="left" line-spacing="24.0">Step</text></g><g transform="translate(24.0 16.0)"><g clip-path="url(#i0)"><polygon points="0,0 24,0 24,24 0,24 0,0" stroke="none" fill="#EDEDED"></polygon></g></g><g transform="translate(24.0 16.0)"><text transform="translate(9.544 16.0)" font-family="RedHatText-Regular, Red Hat Text" font-size="16.0" font-weight="normal" fill="#151515" text-anchor="center" line-spacing="24.0">1</text></g><g transform="translate(48.0 16.0)"><g clip-path="url(#i1)"><polygon points="0,0 8,0 8,24 0,24 0,0" stroke="none" fill="rgba(146, 211, 0, 0.9)"></polygon></g><g clip-path="url(#i1)"><polygon points="0,0 8,0 8,24 0,24 0,0 0,0" stroke="#7EB200" stroke-width="2" fill="none" stroke-miterlimit="5"></polygon></g></g><g clip-path="url(#i2)"><polygon points="0,0 249,0 249,16 0,16 0,0" stroke="none" fill="rgba(62, 156, 52, 0.9)"></polygon></g><g clip-path="url(#i2)"><polygon points="0,0 249,0 249,16 0,16 0,0 0,0" stroke="#418A37" stroke-width="2" fill="none" stroke-miterlimit="5"></polygon></g><g transform="translate(0.0 16.0)"><g clip-path="url(#i3)"><polygon points="0,0 24,0 24,24 0,24 0,0" stroke="none" fill="rgba(0, 121, 135, 0.9)"></polygon></g><g clip-path="url(#i3)"><polygon points="0,0 24,0 24,24 0,24 0,0 0,0" stroke="#09707A" stroke-width="2" fill="none" stroke-miterlimit="5"></polygon></g></g><g transform="translate(225.0 16.0)"><g clip-path="url(#i3)"><polygon points="0,0 24,0 24,24 0,24 0,0" stroke="none" fill="rgba(0, 121, 135, 0.9)"></polygon></g><g clip-path="url(#i3)"><polygon points="0,0 24,0 24,24 0,24 0,0 0,0" stroke="#09707A" stroke-width="2" fill="none" stroke-miterlimit="5"></polygon></g></g><g transform="translate(201.0 16.0)"><g transform="translate(7.0 4.0)"><g clip-path="url(#i4)"><polygon points="0,5.55111512e-17 9.6837637,5.55111512e-17 9.6837637,15.0046792 0,15.0046792 0,5.55111512e-17" stroke="none" fill="#696E73"></polygon></g></g></g></svg>