<?xml version="1.0" encoding="UTF-8"?>
<svg width="249px" height="40px" viewBox="0 0 249 40" version="1.1" xmlns="http://www.w3.org/2000/svg" xmlns:xlink="http://www.w3.org/1999/xlink">
    <title></title>
    <g id="Wizard" stroke="none" stroke-width="1" fill="none" fill-rule="evenodd">
        <g id="Wizard-/-2.-Step-/--With-Arrow-/-Default-">
            <text id="âœï¸-Step-Name" font-family="RedHatText-Regular, Red Hat Text" font-size="16" font-weight="normal" line-spacing="24" fill="#151515">
                <tspan x="56" y="32">Step</tspan>
            </text>
            <circle id="Oval" fill="#EDEDED" cx="36" cy="28" r="12"></circle>
            <text id="ðŸ’¯-Step-Number" font-family="RedHatText-Regular, Red Hat Text" font-size="16" font-weight="normal" line-spacing="24" fill="#151515">
                <tspan x="33.544" y="32">1</tspan>
            </text>
            <g id="ðŸ“-Padding" fill-opacity="0.9">
                <g id="Spacer-/-Horizontal-/-2.-pf-global--spacer--sm-(8px)" transform="translate(48.000000, 16.000000)" fill="#92D400" stroke="#7FB300">
                    <rect id="Rectangle-Copy" x="0.5" y="0.5" width="7" height="23"></rect>
                </g>
                <g id="Spacer-/-Vertical-/-3.-pf-global--spacer--md-(16px)" fill="#3F9C35" stroke="#418A38">
                    <rect id="Rectangle-Copy-2" x="0.5" y="0.5" width="248" height="15"></rect>
                </g>
                <g id="Spacer-/-Horizontal-/-4.-pf-global--spacer--lg-(24px)" transform="translate(0.000000, 16.000000)" fill="#007A87" stroke="#09707B">
                    <rect id="Rectangle-Copy-3" x="0.5" y="0.5" width="23" height="23"></rect>
                </g>
                <g id="Spacer-/-Horizontal-/-4.-pf-global--spacer--lg-(24px)" transform="translate(225.000000, 16.000000)" fill="#007A87" stroke="#09707B">
                    <rect id="Rectangle-Copy-3" x="0.5" y="0.5" width="23" height="23"></rect>
                </g>
            </g>
            <g id="Icons/3.-Size-lg-(24px)/Framework/angle-right" transform="translate(208.000000, 20.000000)" fill="#6A6E73">
                <path d="M2.97887855,14.6741975 L9.35386335,8.2992127 C9.79450561,7.85857044 9.79450561,7.14610876 9.34919417,6.7054665 L2.97420937,0.330481695 C2.53828206,-0.110160565 1.82577461,-0.110160565 1.38513235,0.330481695 L0.330447363,1.39921999 C-0.110149121,1.8351473 -0.110149121,2.54765475 0.330447363,2.98829701 L4.8492049,7.50700877 L0.330447363,12.0257663 C-0.110149121,12.4616936 -0.110149121,13.1742011 0.330447363,13.6148433 L1.3898473,14.6741975 C1.82577461,15.1148398 2.53828206,15.1148398 2.97887855,14.6741975 Z" id="angle-right"></path>
            </g>
        </g>
    </g>
</svg>