<?xml version="1.0" encoding="UTF-8"?>
<svg width="24px" height="24px" viewBox="0 0 24 24" version="1.1" xmlns="http://www.w3.org/2000/svg" xmlns:xlink="http://www.w3.org/1999/xlink">
    <title></title>
    <g id="Icons" stroke="none" stroke-width="1" fill="none" fill-rule="evenodd">
        <g id="Icons/3.-Size-lg-(24px)/Object/code" fill="#151515">
            <path d="M11.0175691,20.870878 L16.1359208,3.23974274 C16.2034082,2.99978339 16.0684334,2.74854561 15.8284374,2.68105819 L13.5411154,2.01735252 C13.3011561,1.94986509 13.0499183,2.08483994 12.9824309,2.32483591 L7.86407918,19.9559712 C7.79659176,20.1959305 7.9315666,20.4471683 8.17156258,20.5146557 L10.4588846,21.1783614 C10.6988439,21.2496205 10.9463466,21.110874 11.0175691,20.870878 Z M18.4532332,16.9937017 L23.8565846,11.927824 C24.0478051,11.7515804 24.0478051,11.4478686 23.8565846,11.271625 L18.4532332,6.20201222 C18.2732545,6.03327535 17.9882913,6.04078209 17.8157828,6.22076076 L16.1846597,7.96064001 C16.0121878,8.14439036 16.0234296,8.43686028 16.2146867,8.60559714 L19.6119076,11.597857 L16.2146867,14.5863817 C16.0234296,14.7551186 16.0084527,15.0475885 16.1846597,15.2313389 L17.8157828,16.9711815 C17.9845196,17.1549318 18.2695194,17.1624386 18.4532332,16.9937017 Z M6.18421723,16.9711815 L7.8153403,15.2313389 C7.98781223,15.0475885 7.97657043,14.7551186 7.78531334,14.5863817 L4.38809236,11.597857 L7.78531334,8.6093322 C7.97657043,8.44059534 7.99154729,8.14812542 7.8153403,7.96437507 L6.18421723,6.22453244 C6.01548036,6.04455377 5.73048057,6.03327535 5.54676684,6.2057839 L0.143415353,11.26789 C-0.0478051177,11.4441336 -0.0478051177,11.7478453 0.143415353,11.9240889 L5.54676684,16.98993 C5.73048057,17.1624386 6.01548036,17.1549318 6.18421723,16.9711815 Z" id="code"></path>
        </g>
    </g>
</svg>