<?xml version="1.0" encoding="UTF-8"?>
<svg width="24px" height="24px" viewBox="0 0 24 24" version="1.1" xmlns="http://www.w3.org/2000/svg" xmlns:xlink="http://www.w3.org/1999/xlink">
    <title></title>
    <g id="Icons" stroke="none" stroke-width="1" fill="none" fill-rule="evenodd">
        <g id="Icons/3.-Size-lg-(24px)/Object/desktop" fill="#151515">
            <path d="M17.6666667,22.3333333 C18.2208252,22.3333333 18.6666667,21.8874919 18.6666667,21.3333333 C18.6666667,20.7791748 18.2208252,20.3333333 17.6666667,20.3333333 L14.6666667,20.3333333 L14,18.3333333 L22,18.3333333 C23.1041667,18.3333333 24,17.4375 24,16.3333333 L24,3 C24,1.89583333 23.1041667,1 22,1 L2,1 C0.895833333,1 0,1.89583333 0,3 L0,16.3333333 C0,17.4375 0.895833333,18.3333333 2,18.3333333 L10,18.3333333 L9.33333333,20.3333333 L6.33333333,20.3333333 C5.7791748,20.3333333 5.33333333,20.7791748 5.33333333,21.3333333 C5.33333333,21.8874919 5.7791748,22.3333333 6.33333333,22.3333333 L17.6666667,22.3333333 Z M21.3333333,15.6666667 L2.66666667,15.6666667 L2.66666667,3.66666667 L21.3333333,3.66666667 L21.3333333,15.6666667 Z" id="desktop"></path>
        </g>
    </g>
</svg>