<?xml version="1.0" encoding="UTF-8"?>
<svg width="24px" height="24px" viewBox="0 0 24 24" version="1.1" xmlns="http://www.w3.org/2000/svg" xmlns:xlink="http://www.w3.org/1999/xlink">
    <title></title>
    <g id="Icons" stroke="none" stroke-width="1" fill="none" fill-rule="evenodd">
        <g id="Icons/3.-Size-lg-(24px)/Object/key" fill="#151515">
            <path d="M6.3749848,23.9999428 C6.99630595,23.9999428 7.49998212,23.4962666 7.49998212,22.8749455 L7.49998212,20.9999499 L9.37497765,20.9999499 C9.9962988,20.9999499 10.499975,20.4962738 10.499975,19.8749526 L10.499975,17.9999571 L12.2448286,17.9999571 C12.5236976,17.9999571 12.9003904,17.8308138 13.0856469,17.6223945 L14.2111935,16.3560859 C14.7097885,16.4502019 15.224039,16.4999607 15.7499624,16.4999607 C20.3063023,16.4999607 23.9999428,12.806366 23.9999428,8.25002611 C23.9999428,3.68018227 20.3197147,-1.77635684e-15 15.7499167,-1.77635684e-15 C11.1935768,-1.77635684e-15 7.49998212,3.69364049 7.49998212,8.24998033 C7.49998212,9.15332901 7.64568795,10.0225286 7.91393682,10.8359727 L0.329497505,18.420412 C0.118560508,18.6313948 -1.77635684e-15,18.917588 -1.77635684e-15,19.2159576 L-1.77635684e-15,22.8749455 C-1.77635684e-15,23.4962666 0.503676167,23.9999428 1.12499732,23.9999428 L6.3749848,23.9999428 Z M17.9999571,8.24998033 C16.7573148,8.24998033 15.7499624,7.242628 15.7499624,5.99998569 C15.7499624,4.75734339 16.7573148,3.74999106 17.9999571,3.74999106 C19.2425994,3.74999106 20.2499517,4.75734339 20.2499517,5.99998569 C20.2499517,7.242628 19.2425994,8.24998033 17.9999571,8.24998033 Z" id="key"></path>
        </g>
    </g>
</svg>