<?xml version="1.0" encoding="UTF-8"?>
<svg width="24px" height="24px" viewBox="0 0 24 24" version="1.1" xmlns="http://www.w3.org/2000/svg" xmlns:xlink="http://www.w3.org/1999/xlink">
    <title></title>
    <g id="Icons" stroke="none" stroke-width="1" fill="none" fill-rule="evenodd">
        <g id="Icons/3.-Size-lg-(24px)/Object/memory" fill="#151515">
            <path d="M24,14.6 L24,10.8897339 C23.3025146,10.6418823 22.8,9.98262939 22.8,9.2 C22.8,8.41737061 23.3025146,7.75811768 24,7.51026611 L24,6.2 C24,5.53737793 23.4626221,5 22.8,5 L1.2,5 C0.53737793,5 0,5.53737793 0,6.2 L0,7.51026611 C0.697485352,7.75811768 1.2,8.41737061 1.2,9.2 C1.2,9.98262939 0.697485352,10.6418823 0,10.8897339 L0,14.6 L24,14.6 Z M8.4,12.2 L6,12.2 L6,7.4 L8.4,7.4 L8.4,12.2 Z M13.2,12.2 L10.8,12.2 L10.8,7.4 L13.2,7.4 L13.2,12.2 Z M18,12.2 L15.6,12.2 L15.6,7.4 L18,7.4 L18,12.2 Z M2.4,19.4 L2.4,18.3998779 C2.4,18.0683838 2.66850586,17.7998779 3,17.7998779 C3.33149414,17.7998779 3.6,18.0683838 3.6,18.3998779 L3.6,19.4 L8.4,19.4 L8.4,18.3998779 C8.4,18.0683838 8.66850586,17.7998779 9,17.7998779 C9.33149414,17.7998779 9.6,18.0683838 9.6,18.3998779 L9.6,19.4 L14.4,19.4 L14.4,18.3998779 C14.4,18.0683838 14.6685059,17.7998779 15,17.7998779 C15.3314941,17.7998779 15.6,18.0683838 15.6,18.3998779 L15.6,19.4 L20.4,19.4 L20.4,18.3998779 C20.4,18.0683838 20.6685059,17.7998779 21,17.7998779 C21.3314941,17.7998779 21.6,18.0683838 21.6,18.3998779 L21.6,19.4 L24,19.4 L24,15.8 L0,15.8 L0,19.4 L2.4,19.4 Z" id="memory"></path>
        </g>
    </g>
</svg>