<?xml version="1.0" encoding="UTF-8"?>
<svg width="24px" height="24px" viewBox="0 0 24 24" version="1.1" xmlns="http://www.w3.org/2000/svg" xmlns:xlink="http://www.w3.org/1999/xlink">
    <title></title>
    <g id="Icons" stroke="none" stroke-width="1" fill="none" fill-rule="evenodd">
        <g id="Icons/3.-Size-lg-(24px)/Object/pficon-cloud-tenant" fill="#151515">
            <path d="M13.18125,4.12503243 C12.1101563,3.37268868 10.9171875,2.99768868 9.60234375,3.00001072 C7.8375,2.99768868 6.32890624,3.63596995 5.0765625,4.91487618 C4.13203125,5.88050118 3.54453124,6.99768869 3.3140625,8.26643868 L12.1875,15.2039387 C12.3263051,15.311961 12.5122042,15.3377037 12.6751403,15.2714656 C12.8380764,15.2052274 12.9532829,15.0570768 12.9773438,14.8828449 L14.2945313,5.10003243 C13.9607649,4.73473043 13.587372,4.40771683 13.18125,4.12503243 M22.95,13.0336262 C22.2492187,12.1453449 21.3609375,11.5726887 20.2851562,11.3156574 C20.6224902,10.7891358 20.7999645,10.1761171 20.7960937,9.55081368 C20.7960937,8.64378243 20.4867188,7.87268868 19.85625,7.23518868 C19.2421875,6.59534493 18.4851563,6.27425118 17.6015625,6.27425118 C16.8117187,6.27425118 16.1273438,6.53675118 15.5460937,7.05237618 L14.23125,16.8281574 C14.1304687,17.5828449 13.2492187,17.9414387 12.6492188,17.4726887 L3.22265625,10.0992512 C2.259375,10.5586262 1.48125,11.2555012 0.88828125,12.1898762 C0.296093749,13.1203449 0,14.1476887 0,15.2719074 C0,16.8469074 0.5484375,18.1953449 1.6453125,19.3172199 C2.73984375,20.4375324 4.05781249,20.9984699 5.59921875,21.0000324 L19.2,21.0000324 C20.5242188,21.0000324 21.6539062,20.5172199 22.5960938,19.5633137 C23.5359375,18.6023762 24,17.4469074 24,16.0898762 C24,14.9414387 23.6500001,13.9226887 22.95,13.0336262" id="pficon-cloud-tenant"></path>
        </g>
    </g>
</svg>