<?xml version="1.0" encoding="UTF-8"?>
<svg width="24px" height="24px" viewBox="0 0 24 24" version="1.1" xmlns="http://www.w3.org/2000/svg" xmlns:xlink="http://www.w3.org/1999/xlink">
    <title></title>
    <g id="Icons" stroke="none" stroke-width="1" fill="none" fill-rule="evenodd">
        <g id="Icons/3.-Size-lg-(24px)/Object/pficon-registry" fill="#151515">
            <path d="M10.5143516,13.1604208 C10.4164181,13.0187298 10.2872293,12.9187126 10.1247014,12.8582856 L5.62601248,10.3870281 C5.53224638,10.3516053 5.43848029,10.3349358 5.3426305,10.3349358 L5.32804466,10.3349358 L5.31345883,10.3349358 C5.22177642,10.3349358 5.12592663,10.3516053 5.03424423,10.3870281 L0.535555314,12.8603693 C0.375111106,12.9207963 0.243838571,13.0208135 0.145905092,13.1625045 C0.0479716143,13.3021118 1.53391393e-05,13.4604723 1.53391393e-05,13.631335 L1.53391393e-05,18.9739188 C-0.00203697031,19.3323136 0.20216475,19.4615025 0.42511969,19.5865239 L4.9258923,22.2348952 C5.04466268,22.303657 5.17593522,22.3369961 5.31554252,22.3369961 L5.33012836,22.3369961 L5.34471419,22.3369961 C5.48432149,22.3369961 5.61559403,22.303657 5.73436441,22.2348952 L10.235137,19.5865239 C10.4476735,19.4719209 10.6622937,19.3323136 10.6622937,19.0322621 L10.6622937,13.6292513 C10.6622937,13.4583886 10.6122851,13.3021118 10.5143516,13.1604208 Z M9.89341169,18.3363093 L5.33012836,21.0034338 L0.741840726,18.3363093 L0.741840726,17.0027471 L5.32804466,19.6698716 L9.89341169,17.0027471 L9.89341169,18.3363093 Z M9.89341169,15.6691848 L5.33012836,18.3363093 L0.741840726,15.6691848 L0.741840726,14.3356225 L5.32804466,17.0027471 L9.89341169,14.3356225 L9.89341169,15.6691848 Z M23.8499742,13.1604208 C23.7520408,13.0187298 23.6228519,12.9187126 23.460324,12.8582856 L18.961635,10.3870281 C18.8678689,10.3516053 18.7741028,10.3349358 18.678253,10.3349358 L18.6636672,10.3349358 L18.6490814,10.3349358 C18.557399,10.3349358 18.4615492,10.3516053 18.3698668,10.3870281 L13.8711779,12.8603693 C13.7107336,12.9207963 13.5794611,13.0208135 13.4815276,13.1625045 C13.3835942,13.3021118 13.3356693,13.4604723 13.3356693,13.631335 L13.3356693,18.9739188 C13.3356693,19.3323136 13.539871,19.4615025 13.7628259,19.5865239 L18.2635985,22.2348952 C18.3823689,22.303657 18.5136415,22.3369961 18.6532488,22.3369961 L18.6678346,22.3369961 L18.6824204,22.3369961 C18.8220277,22.3369961 18.9533003,22.303657 19.0720706,22.2348952 L23.5728433,19.5865239 C23.7853798,19.4719209 24,19.3323136 24,19.0322621 L24,13.6292513 C23.9979163,13.4583886 23.9479077,13.3021118 23.8499742,13.1604208 Z M23.2290343,18.3363093 L18.6636672,21.0034338 L14.0774633,18.3363093 L14.0774633,17.0027471 L18.6636672,19.6698716 L23.2290343,17.0027471 L23.2290343,18.3363093 Z M23.2290343,15.6691848 L18.6636672,18.3363093 L14.0774633,15.6691848 L14.0774633,14.3356225 L18.6636672,17.0027471 L23.2290343,14.3356225 L23.2290343,15.6691848 Z M17.1821629,2.99200862 C17.0842294,2.85031763 16.9550406,2.75030046 16.7925127,2.68987342 L12.2938238,1.05209228 C12.2000577,1.01666953 12.1062916,1 12.0104418,1 L11.9958559,1 L11.9812701,1 C11.8895877,1 11.7937379,1.01666953 11.7020555,1.05209228 L7.20336658,2.69195711 C7.04292238,2.75238415 6.91164984,2.85240132 6.81371636,2.99409231 C6.71786658,3.13369961 6.66785799,3.29206012 6.66785799,3.46292279 L6.66785799,8.49295292 C6.66785799,8.85134777 6.87205971,8.98053662 7.09501465,9.10555808 L11.5957873,11.5663972 C11.7145576,11.635159 11.8458302,11.668498 11.9854375,11.668498 L12.0000233,11.668498 L12.0146092,11.668498 C12.1542165,11.668498 12.285489,11.635159 12.4042594,11.5663972 L16.905032,9.10555808 C17.1175685,8.99095507 17.3321886,8.85134777 17.3321886,8.55129627 L17.3321886,3.4608391 C17.330105,3.28997643 17.2800964,3.13369961 17.1821629,2.99200862 Z M16.561223,7.92410527 L11.9979396,10.3349358 L7.409652,7.92410527 L7.409652,6.66763958 L11.9958559,9.00137353 L16.561223,6.66763958 L16.561223,7.92410527 Z M16.561223,5.33407733 L11.9979396,7.66781127 L7.409652,5.33407733 L7.409652,4.00051507 L11.9958559,6.33424902 L16.561223,4.00051507 L16.561223,5.33407733 Z" id="pficon-registry"></path>
        </g>
    </g>
</svg>