<?xml version="1.0" encoding="UTF-8"?>
<svg width="24px" height="24px" viewBox="0 0 24 24" version="1.1" xmlns="http://www.w3.org/2000/svg" xmlns:xlink="http://www.w3.org/1999/xlink">
    <title></title>
    <g id="Icons" stroke="none" stroke-width="1" fill="none" fill-rule="evenodd">
        <g id="Icons/3.-Size-lg-(24px)/Object/pficon-volume" fill="#151515">
            <path d="M12,15.8461538 C3.91730769,15.8461538 1.27788462,14.1701923 0.418269231,13.0769231 C0,12.5461538 0,13.0769231 0,13.0769231 L0,18.6153846 C0,20.6548077 5.37115385,22.3076923 12,22.3076923 C18.6288462,22.3076923 24,20.6548077 24,18.6153846 L24,13.0769231 C24,13.0769231 24,12.5461538 23.5817308,13.0769231 C22.7221154,14.1701923 20.0826923,15.8461538 12,15.8461538 L12,15.8461538 Z M24,9.35576923 C24,11.3951923 18.6288462,13.0480769 12,13.0480769 C5.37115385,13.0480769 0,11.3951923 0,9.35576923 L0,5.69230769 C0,3.65288462 5.37115385,2 12,2 C18.6288462,2 24,3.65288462 24,5.69230769 L24,9.35576923 Z" id="pficon-volume"></path>
        </g>
    </g>
</svg>