<?xml version="1.0" encoding="UTF-8"?>
<svg width="24px" height="24px" viewBox="0 0 24 24" version="1.1" xmlns="http://www.w3.org/2000/svg" xmlns:xlink="http://www.w3.org/1999/xlink">
    <title></title>
    <g id="Icons" stroke="none" stroke-width="1" fill="none" fill-rule="evenodd">
        <g id="Icons/3.-Size-lg-(24px)/Object/pficon-virtual-machine" fill="#151515">
            <path d="M24,19.3333333 L24,6 L17.3333333,6 L17.3333333,4.66666667 L16,4.66666667 L16,6 L4,6 L4,12.6666667 L2.66666667,12.6666667 L2.66666667,14 L4,14 L4,19.3333333 L12,19.3333333 L12,20.5833333 L8,20.5833333 L8,22 L20,22 L20,20.5833333 L16,20.5833333 L16,19.3333333 L24,19.3333333 Z M6.66666667,16.6666667 L6.66666667,8.66666667 L21.3333333,8.66666667 L21.3333333,16.6666667 L6.66666667,16.6666667 Z M16,3.33333333 L17.3333333,3.33333333 L17.3333333,2 L16,2 L16,3.33333333 Z M13.3333333,3.33333333 L14.6666667,3.33333333 L14.6666667,2 L13.3333333,2 L13.3333333,3.33333333 Z M10.6666667,3.33333333 L12,3.33333333 L12,2 L10.6666667,2 L10.6666667,3.33333333 Z M8,3.33333333 L9.33333333,3.33333333 L9.33333333,2 L8,2 L8,3.33333333 Z M5.33333333,3.33333333 L6.66666667,3.33333333 L6.66666667,2 L5.33333333,2 L5.33333333,3.33333333 Z M2.66666667,3.33333333 L4,3.33333333 L4,2 L2.66666667,2 L2.66666667,3.33333333 Z M0,3.33333333 L1.33333333,3.33333333 L1.33333333,2 L0,2 L0,3.33333333 Z M0,6 L1.33333333,6 L1.33333333,4.66666667 L0,4.66666667 L0,6 Z M0,8.66666667 L1.33333333,8.66666667 L1.33333333,7.33333333 L0,7.33333333 L0,8.66666667 Z M16,11.3333333 L17.3333333,11.3333333 L17.3333333,10 L16,10 L16,11.3333333 Z M0,11.3333333 L1.33333333,11.3333333 L1.33333333,10 L0,10 L0,11.3333333 Z M16,14 L17.3333333,14 L17.3333333,12.6666667 L16,12.6666667 L16,14 Z M13.3333333,14 L14.6666667,14 L14.6666667,12.6666667 L13.3333333,12.6666667 L13.3333333,14 Z M10.6666667,14 L12,14 L12,12.6666667 L10.6666667,12.6666667 L10.6666667,14 Z M8,14 L9.33333333,14 L9.33333333,12.6666667 L8,12.6666667 L8,14 Z M0,14 L1.33333333,14 L1.33333333,12.6666667 L0,12.6666667 L0,14 Z" id="pficon-virtual-machine"></path>
        </g>
    </g>
</svg>