<?xml version="1.0" encoding="UTF-8"?>
<svg width="24px" height="24px" viewBox="0 0 24 24" version="1.1" xmlns="http://www.w3.org/2000/svg" xmlns:xlink="http://www.w3.org/1999/xlink">
    <title></title>
    <g id="Icons" stroke="none" stroke-width="1" fill="none" fill-rule="evenodd">
        <g id="Icons/3.-Size-lg-(24px)/Object/pficon-build" fill="#151515">
            <path d="M23.3526523,4.01907817 L12.6688731,0.121411309 C12.4549462,0.0413100414 12.2283966,0.000191360901 11.9999651,1.55919471e-06 C11.7626405,-0.000291725432 11.5270815,0.0407923096 11.3038694,0.121411309 L0.648449786,4.01650004 C0.258397869,4.15863321 -0.00055931767,4.53019271 0.00108841065,4.9453307 L0.00108841065,5.83595812 C0.00459004082,6.26023334 0.272417664,6.63726952 0.67188735,6.78025757 L1.99704721,7.25393074 C2.22679097,7.33621632 2.48220444,7.30158055 2.68173724,7.16108224 C2.88127003,7.02058391 2.99997107,6.79179199 2.99994056,6.54775694 L2.99994056,5.49798845 L11.9999651,2.22657329 L20.9807708,5.51181662 L20.9807708,6.92275796 C20.9808123,7.08055937 21.057561,7.22849182 21.1865494,7.31939438 C21.3155379,7.41029695 21.4806649,7.43282272 21.6292882,7.37979045 L23.3315585,6.77978882 C23.7327708,6.63682256 24.0005006,6.25672486 23.9999993,5.83080186 L23.9999993,4.94228381 C23.9994736,4.52950657 23.7414748,4.16089643 23.3538241,4.01907817 M12.5073883,8.11807372 L11.9999651,8.28213666 L11.4747293,8.15815195 C11.2466086,8.08348015 10.9965117,8.12280023 10.8023097,8.26386931 C10.6081077,8.40493839 10.4933869,8.63062333 10.4938642,8.87065389 L10.4938642,9.78706264 C10.4935999,10.1035024 10.6923318,10.3859306 10.9902748,10.4925333 L11.7088705,10.7386277 C11.887001,10.8028319 12.0828705,10.7969675 12.2568408,10.7222214 L12.9920772,10.4501113 C13.2897546,10.3431599 13.4883341,10.0609482 13.4884914,9.74464065 L13.4884914,8.83057566 C13.4891984,8.59041026 13.3744963,8.36452247 13.1801687,8.22339589 C12.9858411,8.0822693 12.7355481,8.04308652 12.5073883,8.11807372 M8.24386109,8.43448083 L8.24386109,7.47119695 C8.24362212,7.14676564 8.03480852,6.85926867 7.72635968,6.75869501 L6.22776185,6.2690843 C5.99968534,6.19453635 5.74969353,6.23387536 5.55553453,6.3748668 C5.36137552,6.51585825 5.24659865,6.74140144 5.24689863,6.98135187 L5.24689863,7.89846374 C5.24706987,8.21429746 5.44508175,8.49618094 5.74213553,8.60346566 L7.24073336,9.14252963 C7.47070501,9.22463929 7.72625262,9.1896506 7.92569016,9.04874771 C8.12512768,8.90784481 8.24348295,8.6786706 8.24292359,8.43448083 M23.2317144,10.3594079 L20.0699871,9.2496393 C19.9884871,9.21892864 19.8985958,9.21892864 19.8170958,9.2496393 L18.7049833,9.64573413 C18.3724043,9.76292195 18.3724043,10.234017 18.7049833,10.3512048 L21.4021782,11.3203481 L11.9999651,15.1589523 L2.56587687,11.3151918 L5.2468998,10.3542517 C5.5769007,10.2349545 5.5769007,9.76620321 5.2468998,9.64901539 L4.13924054,9.25268618 C4.05733127,9.22479208 3.96849289,9.22479208 3.8865836,9.25268618 L0.777122012,10.3680798 C0.305720649,10.5362274 -0.006309319,10.9858483 0.00110427164,11.486286 L0.00110427164,11.7909743 C-0.0198581249,12.2745354 0.259211933,12.7210475 0.70305931,12.9141024 L11.1658222,17.5144274 C11.6745123,17.7377448 12.2533451,17.7385095 12.7626234,17.5165368 L18.8095149,14.8704359 L23.3036677,12.8890242 C23.7434302,12.6965582 24.0190308,12.2529127 23.9967166,11.7733962 L23.9967166,11.4710516 C24.0085955,10.9741632 23.7000585,10.5258203 23.2317144,10.3594079 M23.3327303,15.7500476 L21.4607721,15.0893427 C21.3708602,15.0570839 21.2720268,15.0603532 21.1844432,15.0984834 L20.1869405,15.5346564 C19.8756897,15.6705943 19.892096,16.115908 20.2103781,16.2305177 L21.3515531,16.6406751 L11.9999651,21.4727976 L2.60806449,16.6376282 L3.57275462,16.2909866 C3.8865836,16.1784863 3.90744303,15.7402039 3.60556721,15.5995785 L2.64462709,15.1493429 C2.55490373,15.1073931 2.45227845,15.1024261 2.35892318,15.1355147 L0.656184182,15.7470008 C0.265953624,15.8873472 0.00450950143,16.255988 0.00110427164,16.6706751 L0.00110427164,17.1113013 C0.00148347971,17.4705033 0.197488696,17.8009814 0.512511916,17.9735693 L11.0322281,23.7532727 C11.3291657,23.914986 11.6618481,23.9998286 11.9999651,24.0000702 C12.3307795,23.9997053 12.6560051,23.9147481 12.9447333,23.7532727 L23.489059,17.9735693 C23.8039009,17.8008581 23.9997124,17.4704039 23.9999979,17.1113013 L23.9999979,16.6985658 C23.9999979,16.2732722 23.7330079,15.8937573 23.3327303,15.7500476 M18.7331171,7.88627621 L18.7331171,6.97221122 C18.7339266,6.73200687 18.6192494,6.50604661 18.42489,6.36489692 C18.2305306,6.22374727 17.9801764,6.18461064 17.752012,6.25970928 L16.2536485,6.75002311 C15.9452817,6.85056993 15.7364875,7.13794576 15.7361471,7.46229068 L15.7361471,8.4232308 C15.7363779,8.66694811 15.8550167,8.89535638 16.0542718,9.03569726 C16.253527,9.17603813 16.5085494,9.21080977 16.738103,9.12893585 L18.2367008,8.59455939 C18.5348775,8.48691148 18.73346,8.20375805 18.7331171,7.88674496" id="pficon-build"></path>
        </g>
    </g>
</svg>