<?xml version="1.0" encoding="UTF-8"?>
<svg width="24px" height="24px" viewBox="0 0 24 24" version="1.1" xmlns="http://www.w3.org/2000/svg" xmlns:xlink="http://www.w3.org/1999/xlink">
    <title></title>
    <g id="Icons" stroke="none" stroke-width="1" fill="none" fill-rule="evenodd">
        <g id="Icons/3.-Size-lg-(24px)/Object/pficon-storage-domain" fill="#151515">
            <path d="M0,15.1176471 L0,13 C0,13 0,12.5941176 0.319852941,13 C0.977205882,13.8360294 2.99558824,15.1176471 9.17647059,15.1176471 C9.42352941,15.1176471 9.66617647,15.1154412 9.9,15.1110294 C10.0213235,15.1088235 10.1073529,15.2257353 10.0698529,15.3404412 C10.0522059,15.3933824 10.0367647,15.4463235 10.0213235,15.4992647 C9.81176471,16.2316176 9.73455882,16.9860294 9.79191176,17.7448529 C9.80073529,17.8463235 9.72132353,17.9345588 9.61764706,17.9367647 C9.46985294,17.9389764 9.32205882,17.9389764 9.17205882,17.9389764 C4.10735294,17.9411765 0,16.6772059 0,15.1176471 M13.2816176,22.9661765 C13.4360294,23.0433824 13.3985294,23.2727941 13.2286765,23.2992647 C12.0066176,23.4845588 10.6301471,23.5882353 9.17647059,23.5882353 C4.10735294,23.5860294 0,22.3242647 0,20.7647059 L0,17.9411765 C0,17.9411765 0,17.5352941 0.319852941,17.9411765 C0.977205882,18.7794118 2.99558824,20.0632353 9.17647059,20.0588235 C9.56691176,20.0588235 9.93970588,20.0522059 10.2970588,20.0433824 C10.3654412,20.0411765 10.4294118,20.0786765 10.4602941,20.1404412 C11.0757353,21.3625 12.0705882,22.3529412 13.2816176,22.9661765 M0,5.23529412 L0,3.82352941 C0,2.26397059 4.10735294,1 9.17647059,1 C14.2455882,1 18.3529412,2.26397059 18.3529412,3.82352941 L18.3529412,5.23529412 C18.3529412,6.79485294 14.2455882,8.05882353 9.17647059,8.05882353 C4.10735294,8.05882353 0,6.79485294 0,5.23529412 M0,10.1764706 L0,8.05882353 C0,8.05882353 0,7.65294118 0.319852941,8.05882353 C0.977205882,8.89485294 2.99558824,10.1764706 9.17647059,10.1764706 C15.3573529,10.1764706 17.3757353,8.89485294 18.0330882,8.05882353 C18.3529412,7.65294118 18.3529412,8.05882353 18.3529412,8.05882353 L18.3529412,10.1764706 C18.3529412,10.4720588 18.2051471,10.7566176 17.9316176,11.0235294 C17.8875,11.0654412 17.8257353,11.0830882 17.7661765,11.0676471 C17.2566176,10.9375 16.725,10.8669118 16.1779412,10.8669118 C15.9176471,10.8669118 15.6551471,10.8823529 15.3970588,10.9154412 C14.5411765,11.0191176 13.7316176,11.2904412 12.9882353,11.7161765 C12.4477941,12.0272059 11.9602941,12.4110294 11.5345588,12.8588235 C11.5036765,12.8897059 11.4639706,12.9095588 11.4198529,12.9139706 C10.7007353,12.9691176 9.95073529,13 9.17647059,13 C4.10735294,13 0,11.7360294 0,10.1764706 M23.5455882,21.8257353 L20.5852941,19.8735294 C20.2919118,19.6661765 19.9963235,19.5867647 19.7625,19.6154412 C19.7514706,19.6154412 19.7426471,19.6198529 19.7316176,19.6198529 C20.2764706,18.7970588 20.5389706,17.7889706 20.4132353,16.7411765 C20.1330882,14.4007353 18,12.7308824 15.6551471,13.0176471 C13.3102941,13.3044118 11.6426471,15.4330882 11.925,17.7779412 C12.2073529,20.1227941 14.3404412,21.7904412 16.6852941,21.5036765 C17.7397059,21.3779412 18.6507353,20.8727941 19.3169118,20.1514706 C19.3367647,20.3941176 19.4889706,20.6764706 19.7713235,20.9235294 L22.3786765,23.3235294 C22.5794118,23.5 22.8242647,23.5882353 23.0647059,23.5882353 C23.3426471,23.5882353 23.6492647,23.4360294 23.8058824,23.2330882 C23.9426471,23.0566176 24,22.8823529 24,22.6397059 C24,22.3330882 23.8345588,22.0264706 23.5455882,21.8257353 Z M16.5176471,20.0919118 C14.9536765,20.2838235 13.5286765,19.1698529 13.3411765,17.6058824 C13.1536765,16.0419118 14.2632353,14.6169118 15.8272059,14.4294118 C17.3911765,14.2419118 18.8161765,15.3514706 19.0036765,16.9154412 C19.1889706,18.4794118 18.0816176,19.9 16.5176471,20.0919118 Z" id="pficon-storage-domain"></path>
        </g>
    </g>
</svg>