<?xml version="1.0" encoding="UTF-8"?>
<svg width="24px" height="24px" viewBox="0 0 24 24" version="1.1" xmlns="http://www.w3.org/2000/svg" xmlns:xlink="http://www.w3.org/1999/xlink">
    <title></title>
    <g id="Icons" stroke="none" stroke-width="1" fill="none" fill-rule="evenodd">
        <g id="Icons/3.-Size-lg-(24px)/Object/pficon-domain" fill="#151515">
            <path d="M12.75,11.9976563 C13.1595953,11.9988034 13.4921312,12.3272548 13.4998653,12.7352681 L13.5,12.7476563 L13.5,23.2476563 C13.4988529,23.6572516 13.1704014,23.9897876 12.7623881,23.9975215 L12.75,23.9976563 L8.25,23.9976563 C7.84040468,23.996509 7.50786877,23.6680577 7.5001347,23.2600444 L7.5,23.2476563 L7.5,12.7476563 C7.50114715,12.3380609 7.82959859,12.005525 8.23761185,11.9977909 L8.25,11.9976563 L12.75,11.9976563 Z M16.5,13.5 L16.5,22.5 L15,22.5 L15,13.5 L16.5,13.5 Z M12,21 L9,21 L9,22.5 L12,22.5 L12,21 Z M22.5,12.0257812 L22.5,12.028125 C22.5,15.5953125 20.7210938,18.7476562 18,20.6460937 L18,20.6460937 L18,18.7359375 C18.1242187,18.6234375 18.24375,18.5109375 18.3632812,18.3914063 C20.0536924,16.7045707 21.0025344,14.4138553 21,12.0257812 L21,12.0257812 L22.5,12.0257812 Z M3.5109375,9.0234375 C2.3604934,12.2944032 3.18688779,15.9352764 5.63671875,18.3890625 C5.75390625,18.5085938 5.87578125,18.6234375 5.99999539,18.7335938 L5.99999539,18.7335938 L5.99999539,20.64375 C3.27890625,18.7453125 1.49999539,15.5929688 1.49999539,12.0257813 C1.49932556,11.0091821 1.64616795,9.99786441 1.9359375,9.0234375 L1.9359375,9.0234375 L3.5109375,9.0234375 Z M12.0023438,16.5 L9,16.5 L9,19.5 L12.0023438,19.5 L12.0023438,16.5 Z M12,13.5 L10.5,13.5 L10.5,15 L12,15 L12,13.5 Z M20.25,0 C20.6600714,0 20.9932764,0.329104287 20.9998995,0.737597379 L21,0.75 L21,9.515625 C21,9.92569643 20.6708957,10.2589014 20.2624026,10.265625 L20.25,10.265625 L14.25,10.265625 C13.8399286,10.265625 13.5067236,9.93652071 13.5001005,9.52802763 L13.5,9.515625 L13.5,0.75 C13.5,0.339928573 13.8291043,0.00672357148 14.2375974,0 L14.25,0 L20.25,0 Z M24,1.5 L24,9 L22.5,9 L22.5,1.5 L24,1.5 Z M19.5,6 L15,6 L15,8.25 L19.5,8.25 L19.5,6 Z M5.25,1.33226763e-15 C5.65959532,0.00114715405 5.99213123,0.329598577 5.9998653,0.737611863 L6,0.75 L6,6.75 C5.99885285,7.15959532 5.67040141,7.49213123 5.26238815,7.4998653 L5.25,7.5 L0.75,7.5 C0.340404682,7.49885285 0.00786877613,7.17040141 0.00013469188,6.76238815 L0,6.75 L0,0.75 C0.00114715405,0.340404682 0.329598577,0.00786877613 0.737611863,0.00013469188 L0.75,1.33226763e-15 L5.25,1.33226763e-15 Z M4.5,4.5 L1.5,4.5 L1.5,6 L4.5,6 L4.5,4.5 Z M12,1.5234375 L12,3.0234375 C10.7963147,3.02132461 9.60457362,3.26206427 8.49609375,3.73125 C8.15430982,3.87655713 7.82166623,4.04248758 7.5,4.228125 L7.5,4.228125 L7.5,2.5359375 C8.9065361,1.86942929 10.443537,1.52360408 12,1.5234375 L12,1.5234375 Z M19.5,1.5 L17.25,1.5 L17.25,3.75 L19.5,3.75 L19.5,1.5 Z M4.5,1.5 L3,1.5 L3,3 L4.5,3 L4.5,1.5 Z" id="pficon-domain"></path>
        </g>
    </g>
</svg>