<?xml version="1.0" encoding="UTF-8"?>
<svg width="24px" height="24px" viewBox="0 0 24 24" version="1.1" xmlns="http://www.w3.org/2000/svg" xmlns:xlink="http://www.w3.org/1999/xlink">
    <title></title>
    <g id="Icons" stroke="none" stroke-width="1" fill="none" fill-rule="evenodd">
        <g id="Icons/3.-Size-lg-(24px)/Object/pficon-process-automation" fill="#151515">
            <path d="M23.8125,15.0023438 L16.96875,15.0023438 L16.3101562,14.2664063 C16.4484375,13.9992187 16.5632813,13.715625 16.6523438,13.4226563 L18.5976562,13.29375 C18.7476562,13.2726562 18.8648437,13.1226562 18.8648437,12.9726562 L18.8648437,10.9734375 C18.8625,10.8210937 18.7546875,10.6921875 18.6046875,10.65 L16.6242187,10.5398437 C16.5351562,10.2585937 16.4179688,9.98671875 16.2820313,9.72890625 L17.5875,8.23828125 C17.6789062,8.11640625 17.6554687,7.92890625 17.55,7.8234375 L16.1367188,6.41015625 C16.03125,6.3046875 15.8625,6.28828125 15.7265625,6.365625 L14.2335937,7.7015625 C13.978125,7.56796875 13.7109375,7.4578125 13.434375,7.37109375 L13.303125,5.38125 C13.2820313,5.23125 13.1320312,5.1140625 12.9820312,5.1140625 L10.9828125,5.1140625 C10.8328125,5.1140625 10.7039062,5.221875 10.6617187,5.371875 L10.5515625,7.3640625 C10.265625,7.45078125 9.99140625,7.565625 9.73125,7.7015625 L8.22890625,6.4125 C8.10703125,6.32109375 7.91953125,6.34453125 7.8140625,6.45 L7.13203125,7.13203125 L5.6390625,5.6390625 C7.26796875,4.01015625 9.51796875,3 12,3 C16.8351562,3 20.79375,6.834375 20.990625,11.6226562 C21,11.8242188 21.1664063,11.98125 21.365625,11.98125 L23.6179688,11.98125 C23.8289063,11.98125 24,11.8054687 23.9929688,11.5945312 C23.7796875,5.165625 18.4828125,0 12.0023438,0 C8.69296875,0 5.69296875,1.34765625 3.5203125,3.51796875 L0.32109375,0.31875 C0.2015625,0.2015625 0,0.2859375 0,0.45234375 L0,8.81484375 C0,8.91796875 0.084375,9.00234375 0.1875,9.00234375 L7.02890625,9.00234375 L7.68984375,9.7171875 C7.546875,9.984375 7.42734375,10.265625 7.33359375,10.5585938 L5.39296875,10.7085937 C5.24296875,10.7296875 5.12578125,10.8796875 5.12578125,11.0296875 L5.12578125,13.0289062 C5.12578125,13.1789062 5.23359375,13.3078125 5.38359375,13.35 L7.3125,13.4273437 C7.40390625,13.7320312 7.5234375,14.0226562 7.66875,14.2992188 L6.421875,15.7523438 C6.33046875,15.8742187 6.35390625,16.0617187 6.459375,16.1671875 L7.87265625,17.5804688 C7.978125,17.6859375 8.146875,17.7023437 8.2828125,17.625 L9.68671875,16.3289063 C9.965625,16.4789063 10.2632812,16.6007812 10.5703125,16.6945312 L10.715625,18.5882813 C10.7367188,18.7382812 10.8867188,18.8554688 11.0367187,18.8554688 L13.0359375,18.8554688 C13.1859375,18.8554688 13.3148438,18.7476562 13.3570312,18.5976562 L13.4320313,16.6804688 C13.7320312,16.5867188 14.0203125,16.4648438 14.2945312,16.3171875 L15.7359375,17.5804688 C15.8578125,17.671875 16.0453125,17.6484375 16.1507813,17.5429688 L16.8492187,16.8445313 L18.365625,18.3609375 C16.734375,19.9898437 14.484375,21 12.0023438,21 C7.1578125,21 3.196875,17.1585938 3.009375,12.3585937 C3,12.1570313 2.8359375,12 2.634375,12 L0.38203125,12 C0.17109375,12 0,12.1757812 0.00703125,12.3867188 C0.2109375,18.825 5.51484375,24 12.0023438,24 C15.309375,24 18.309375,22.6546875 20.4820312,20.4820312 L23.6789062,23.68125 C23.7984375,23.7984375 24,23.7140625 24,23.5476563 L24,15.1875 C24,15.084375 23.915625,15 23.8125,15.0023438 M11.9789063,15.0210937 C10.321875,15.0210937 8.97890625,13.678125 8.97890625,12.0210937 C8.97890625,10.3640625 10.321875,9.02109375 11.9789063,9.02109375 C13.6359375,9.02109375 14.9789063,10.3640625 14.9789063,12.0210937 C14.9789063,13.678125 13.6359375,15.0210937 11.9789063,15.0210937" id="pficon-process-automation"></path>
        </g>
    </g>
</svg>