<?xml version="1.0" encoding="UTF-8"?>
<svg width="24px" height="24px" viewBox="0 0 24 24" version="1.1" xmlns="http://www.w3.org/2000/svg" xmlns:xlink="http://www.w3.org/1999/xlink">
    <title></title>
    <g id="Icons" stroke="none" stroke-width="1" fill="none" fill-rule="evenodd">
        <g id="Icons/3.-Size-lg-(24px)/Object/pficon-catalog" fill="#151515">
            <path d="M12.7058824,3.82352941 C15.1610294,2.24852941 19.2926471,1 21.1764706,1 L21.1764706,17.9411765 C19.8264706,17.5683824 16.2794118,17.0698529 12.7058824,19.3529412 L12.7058824,3.82352941 Z M22.5882353,2.41176471 C24,2.41176471 24,3.88529412 24,3.88529412 L24,20.7647059 C24,22.1764706 21.7433824,22.1301471 21.7433824,22.1301471 C19.0389706,18.0448529 12.7058824,22.1764706 12.7058824,22.1764706 L12.7058824,20.7073529 C19.0367647,16.3683824 22.5882353,20.7647059 22.5882353,20.7647059 L22.5882353,2.41176471 Z M2.82352941,17.9411765 L2.82352941,1 C4.69632353,1 8.83676471,2.24191176 11.2941176,3.82352941 L11.2941176,19.3529412 C7.76470588,17.0698529 4.17573529,17.5705882 2.82352941,17.9411765 Z M11.2941176,20.7073529 L11.2941176,22.1764706 C11.2941176,22.1764706 5.02720588,18.0691176 2.26102941,22.1301471 C2.26102941,22.1301471 0,22.1764706 0,20.7647059 L0,3.88529412 C0,3.88529412 0,2.41176471 1.41176471,2.41176471 L1.41176471,20.7647059 C1.41176471,20.7625 4.98529412,16.3683824 11.2941176,20.7073529 Z" id="pficon-catalog"></path>
        </g>
    </g>
</svg>