<?xml version="1.0" encoding="UTF-8"?>
<svg width="24px" height="24px" viewBox="0 0 24 24" version="1.1" xmlns="http://www.w3.org/2000/svg" xmlns:xlink="http://www.w3.org/1999/xlink">
    <title></title>
    <g id="Icons" stroke="none" stroke-width="1" fill="none" fill-rule="evenodd">
        <g id="Icons/3.-Size-lg-(24px)/Object/pficon-bundle" fill="#151515">
            <path d="M7.36293658,5.84010775 L7.44286051,12.444965 L15.2547801,14.1721188 C15.5099462,14.2284135 15.7769961,14.1839051 16.0001117,14.0478968 L19.477623,11.9176077 L19.5830944,5.59635149 C19.5917025,5.08800832 19.2213378,4.65240326 18.7182285,4.57913784 L11.8297701,3.5853623 L8.04920422,4.87211412 C7.63512477,5.01246584 7.35803303,5.402909 7.36214029,5.84010775 L7.36293658,5.84010775 Z M23.1133414,2.58455532 L16.93037,1.82984842 L13.524345,3.00878498 L20.1596718,3.92755859 C20.6662658,3.99811199 21.0404879,4.43571034 21.0315692,4.94711605 L20.924457,11.0314131 L23.8565637,9.23605442 L23.9995362,3.61325364 C24.0152324,3.09259665 23.6307908,2.64611577 23.1135758,2.58432094 L23.1133414,2.58455532 Z M7.43793851,14.3575142 L7.52934711,21.6912964 L14.9709446,23.9249477 C15.3095399,24.0261539 15.6764039,23.943543 15.9389383,23.7069732 L19.3093374,20.6553323 L19.4241841,13.7926559 L15.9694078,16.052089 C15.7377622,16.2040137 15.4538428,16.2540174 15.1842314,16.1903738 L7.43793851,14.3575142 Z M6.38088009,4.60726356 C7.65591286,4.18772153 8.93094564,3.76896076 10.2059784,3.35098127 L4.67224242,2.55174198 L0.729953598,3.69786519 C0.285572943,3.82676395 -0.0147560356,4.24068138 0.000559848985,4.7031254 L0.213846581,10.8485959 L5.76867685,12.0767524 L5.68429969,5.57971043 C5.67979748,5.13850006 5.9613377,4.74510215 6.38041133,4.60702918 L6.38088009,4.60726356 Z M11.9263351,2.786123 C13.1052717,2.39939431 14.283427,2.01266562 15.460801,1.62593693 L10.2716051,1.00717103 C10.1371608,0.991035453 10.000843,1.00219598 9.87081354,1.03998437 L6.46947612,2.02907229 L11.9263351,2.786123 Z M0.252050689,12.6582518 L0.467681231,18.8576299 C0.481900589,19.2909831 0.771692028,19.6666737 1.18723098,19.7904663 L5.93039976,21.2131591 L5.80617782,13.9731293 L0.252050689,12.6582518 Z M20.8705494,12.8481004 L23.8214066,10.9191446 L23.6760904,16.2794386 C23.6694309,16.5556665 23.5489996,16.8168838 23.3432692,17.0013321 L20.7557027,19.3451424 L20.8705494,12.8481004 Z" id="pficon-bundle"></path>
        </g>
    </g>
</svg>