<?xml version="1.0" encoding="UTF-8"?><svg version="1.1" width="172px" height="203px" viewBox="0 0 172.0 203.0" xmlns="http://www.w3.org/2000/svg" xmlns:xlink="http://www.w3.org/1999/xlink"><defs><filter id="i0" x="-6.66666667%" y="-5.68720379%" filterUnits="userSpaceOnUse" width="108.888889%" height="107.582938%"><feGaussianBlur stdDeviation="2" in="SourceAlpha" result="i1"></feGaussianBlur><feOffset dx="0" dy="0" in="i1" result="i2"></feOffset><feColorMatrix values="0 0 0 0.0 0 0 0 0 0.0 0 0 0 0 0.0 0 0 0 0 0.06 0" type="matrix" in="i2"></feColorMatrix></filter><filter id="i3" x="-14.893617%" y="-10.9589041%" filterUnits="userSpaceOnUse" width="121.276596%" height="118.26484%"><feGaussianBlur stdDeviation="4" in="SourceAlpha" result="i4"></feGaussianBlur><feOffset dx="0" dy="4" in="i4" result="i5"></feOffset><feColorMatrix values="0 0 0 0.0 0 0 0 0 0.0 0 0 0 0 0.0 0 0 0 0 0.12 0" type="matrix" in="i5"></feColorMatrix></filter><clipPath id="i6"><path d="M172,0 L172,203 L0,203 L0,0 L172,0 Z"></path></clipPath><clipPath id="i7"><path d="M140,0 L140,36 L0,36 L0,0 L140,0 Z"></path></clipPath></defs><polygon points="0,0 172,0 172,203 0,203 0,0 0,0" stroke="none" fill="#000000" filter="url(#i0)"></polygon><polygon points="0,0 172,0 172,203 0,203 0,0 0,0" stroke="none" fill="#000000" filter="url(#i3)"></polygon><g clip-path="url(#i6)"><polygon points="0,0 172,0 172,203 0,203 0,0" stroke="none" fill="#FFFFFF"></polygon></g><g transform="translate(16.0 16.0)"><g clip-path="url(#i7)"><polygon points="0,0 140,0 140,36 0,36 0,0" stroke="none" fill="#FFFFFF"></polygon><g transform="translate(-1.0 0.0)"><polygon points="141,0 141,36 140,36 140,0 141,0 141,0" stroke="none" fill="#F0F0F0"></polygon></g><g transform="translate(0.0 1.0)"><polygon points="140,0 0,0 0,-1 140,-1 140,0 140,0" stroke="none" fill="#F0F0F0"></polygon></g><g transform="translate(1.0 0.0)"><polygon points="0,0 0,36 -1,36 -1,0 0,0 0,0" stroke="none" fill="#F0F0F0"></polygon></g><g transform="translate(0.0 -1.0)"><polygon points="140,36 140,37 0,37 0,36 140,36 140,36" stroke="none" fill="#8A8D90"></polygon></g></g><g transform="translate(8.0 6.0)"><text transform="translate(0.0 16.0)" font-family="RedHatText-Regular, Red Hat Text" font-size="16.0" font-weight="normal" fill="#696E73" text-anchor="left" line-spacing="24.0">Filter by name …</text></g></g></svg>