<?xml version="1.0" encoding="UTF-8"?><svg version="1.1" width="956px" height="72px" viewBox="0 0 956.0 72.0" xmlns="http://www.w3.org/2000/svg" xmlns:xlink="http://www.w3.org/1999/xlink"><defs><filter id="i0" x="-1.35135135%" y="-19.2307692%" filterUnits="userSpaceOnUse" width="102.079002%" height="125.641026%"><feGaussianBlur stdDeviation="2" in="SourceAlpha" result="i1"></feGaussianBlur><feOffset dx="0" dy="-2" in="i1" result="i2"></feOffset><feColorMatrix values="0 0 0 0.0 0 0 0 0 0.0 0 0 0 0 0.0 0 0 0 0 0.16 0" type="matrix" in="i2"></feColorMatrix></filter><clipPath id="i3"><path d="M956,0 L956,72 L0,72 L0,0 L956,0 Z"></path></clipPath><filter id="i4" x="-1.35135135%" y="-14.1025641%" filterUnits="userSpaceOnUse" width="102.079002%" height="125.641026%"><feGaussianBlur stdDeviation="2" in="SourceAlpha" result="i5"></feGaussianBlur><feOffset dx="0" dy="2" in="i5" result="i6"></feOffset><feColorMatrix values="0 0 0 0.0 0 0 0 0 0.0 0 0 0 0 0.0 0 0 0 0 0.16 0" type="matrix" in="i6"></feColorMatrix></filter></defs><polygon points="1,1 955,1 955,71 1,71 1,1" stroke="none" fill="#000000" filter="url(#i0)"></polygon><g clip-path="url(#i3)"><polygon points="0,0 956,0 956,72 0,72 0,0" stroke="none" fill="#FFFFFF"></polygon></g><polygon points="1,1 955,1 955,71 1,71 1,1" stroke="none" fill="#000000" filter="url(#i4)"></polygon><g clip-path="url(#i3)"><polygon points="0,0 956,0 956,72 0,72 0,0" stroke="none" fill="#FFFFFF"></polygon></g><g clip-path="url(#i3)"><polygon points="0,0 956,0 956,72 0,72 0,0" stroke="none" fill="#FFFFFF"></polygon><g transform="translate(0.0 -1.0)"><polygon points="956,72 956,73 0,73 0,72 956,72 956,72" stroke="none" fill="#D2D2D2"></polygon></g></g></svg>