<svg xmlns="http://www.w3.org/2000/svg" width="48" height="54" viewBox="0 0 48 54">
  <path fill="#FFF" fill-rule="evenodd" d="M23.625,0 C24.5390625,0 25.3300781,0.333984375 25.9980469,1.00195312 C26.6660156,1.66992188 27,2.4609375 27,3.375 L27,5.58984375 L27.1175977,5.61357422 C31.0020117,6.40142578 34.1971875,8.29195312 36.703125,11.2851562 C39.234375,14.3085937 40.5,17.859375 40.5,21.9375 C40.5,26.3671875 41.1328125,29.9882813 42.3984375,32.8007812 C43.171875,34.4179688 44.3671875,36.0703125 45.984375,37.7578125 C46.0779087,37.9070052 46.1837456,38.0481212 46.3007812,38.1796875 C46.9335938,38.8828125 47.25,39.6738281 47.25,40.5527344 C47.25,41.4316406 46.9335938,42.2050781 46.3007812,42.8730469 C45.6679688,43.5410156 44.859375,43.875 43.875,43.875 L3.33808594,43.875 C2.37058594,43.8665625 1.57429687,43.5325781 0.94921875,42.8730469 C0.31640625,42.2050781 0,41.4316406 0,40.5527344 C0,39.6738281 0.31640625,38.8828125 0.94921875,38.1796875 L1.265625,37.7578125 L1.32152344,37.6998047 C2.91058594,36.0323437 4.08726563,34.3993359 4.8515625,32.8007812 C6.1171875,29.9882813 6.75,26.3671875 6.75,21.9375 C6.75,17.859375 8.015625,14.3085937 10.546875,11.2851562 C13.078125,8.26171877 16.3125,6.36328127 20.25,5.58984375 L20.25,3.33861328 C20.2587891,2.44001953 20.5927734,1.66113281 21.2519531,1.00195312 C21.9199219,0.333984375 22.7109375,0 23.625,0 Z M30.375,47.25 L30.375,47.3069531 C30.3612891,49.1800781 29.6933203,50.7607031 28.3710938,52.0488281 C27.0351563,53.3496096 25.453125,54 23.625,54 C21.796875,54 20.2148437,53.3496096 18.8789062,52.0488281 C17.5429688,50.7480469 16.875,49.1484375 16.875,47.25 L30.375,47.25 Z M25.0488281,10.125 L22.2011719,10.125 C21.1235694,10.125 20.25,10.9985694 20.25,12.0761719 L20.25,28.4238281 C20.25,29.5014306 21.1235694,30.375 22.2011719,30.375 L25.0488281,30.375 C26.1264306,30.375 27,29.5014306 27,28.4238281 L27,12.0761719 C27,10.9985694 26.1264306,10.125 25.0488281,10.125 Z M23.625,33.75 C21.761039,33.75 20.25,35.261039 20.25,37.125 C20.25,38.988961 21.761039,40.5 23.625,40.5 C25.488961,40.5 27,38.988961 27,37.125 C27,35.261039 25.488961,33.75 23.625,33.75 Z"/>
</svg>
