<svg xmlns="http://www.w3.org/2000/svg" width="48" height="55" viewBox="0 0 48 55">
  <path fill="#73C5C5" fill-rule="evenodd" d="M43.8644621,44.8748954 C45.8809292,44.8748954 47.239454,43.229628 47.2500321,41.4999034 C47.2552125,40.7036369 46.9746498,39.8894489 46.3418388,39.2101865 C44.3042575,37.0206851 40.4915301,33.7268545 40.4915301,22.9374477 C40.4915301,14.7425248 34.7456598,8.18236355 26.997948,6.57293898 L26.997948,4.37499195 C26.997948,2.51137182 25.4876062,1 23.625016,1 C21.7624259,1 20.252084,2.51137182 20.252084,4.37499195 L20.252084,6.57293898 C12.5043722,8.18236355 6.75850198,14.7425248 6.75850198,22.9374477 C6.75850198,33.7268545 2.94577456,37.0206851 0.908193204,39.2101865 C0.275382212,39.8904789 -0.00518047326,40.7036369 -1.42108547e-14,41.4999034 C0.011710966,43.229628 1.3691029,44.8748954 3.38556996,44.8748954 L43.8644621,44.8748954 Z M23.625016,54.9998713 C27.3501964,54.9998713 30.371807,51.9781576 30.371807,48.2498873 L16.878225,48.2498873 C16.878225,51.9781576 19.8998357,54.9998713 23.625016,54.9998713 Z"/>
</svg>
