<?xml version="1.0" encoding="UTF-8"?>
<svg width="24px" height="24px" viewBox="0 0 24 24" version="1.1" xmlns="http://www.w3.org/2000/svg" xmlns:xlink="http://www.w3.org/1999/xlink">
    <title></title>
    <g id="Icons" stroke="none" stroke-width="1" fill="none" fill-rule="evenodd">
        <g id="Icons/3.-Size-lg-(24px)/View-Type/list" fill="#151515">
            <path d="M3.74999106,6.49998927 C4.16399154,6.49998927 4.49998927,6.16399154 4.49998927,5.74999106 L4.49998927,2.74999821 C4.49998927,2.33599773 4.16399154,2 3.74999106,2 L0.749998212,2 C0.335997734,2 0,2.33599773 0,2.74999821 L0,5.74999106 C0,6.16399154 0.335997734,6.49998927 0.749998212,6.49998927 L3.74999106,6.49998927 Z M23.2499446,5.74999821 C23.663945,5.74999821 23.9999428,5.41399333 23.9999428,4.99999285 L23.9999428,3.49999642 C23.9999428,3.08599595 23.663945,2.74999821 23.2499446,2.74999821 L8.24998033,2.74999821 C7.83597985,2.74999821 7.49998212,3.08599595 7.49998212,3.49999642 L7.49998212,4.99999285 C7.49998212,5.41399333 7.83597985,5.74999821 8.24998033,5.74999821 L23.2499446,5.74999821 Z M3.74999106,13.9999714 C4.16399154,13.9999714 4.49998927,13.6639737 4.49998927,13.2499732 L4.49998927,10.2499803 C4.49998927,9.83597985 4.16399154,9.49998212 3.74999106,9.49998212 L0.749998212,9.49998212 C0.335997734,9.49998212 0,9.83597985 0,10.2499803 L0,13.2499732 C0,13.6639737 0.335997734,13.9999714 0.749998212,13.9999714 L3.74999106,13.9999714 Z M23.2499446,13.2499803 C23.663945,13.2499803 23.9999428,12.9139754 23.9999428,12.499975 L23.9999428,10.9999785 C23.9999428,10.5859781 23.663945,10.2499803 23.2499446,10.2499803 L8.24998033,10.2499803 C7.83597985,10.2499803 7.49998212,10.5859781 7.49998212,10.9999785 L7.49998212,12.499975 C7.49998212,12.9139754 7.83597985,13.2499803 8.24998033,13.2499803 L23.2499446,13.2499803 Z M3.74999106,21.4999535 C4.16399154,21.4999535 4.49998927,21.1639558 4.49998927,20.7499553 L4.49998927,17.7499624 C4.49998927,17.335962 4.16399154,16.9999642 3.74999106,16.9999642 L0.749998212,16.9999642 C0.335997734,16.9999642 0,17.335962 0,17.7499624 L0,20.7499553 C0,21.1639558 0.335997734,21.4999535 0.749998212,21.4999535 L3.74999106,21.4999535 Z M23.2499446,20.7499624 C23.663945,20.7499624 23.9999428,20.4139576 23.9999428,19.9999571 L23.9999428,18.4999607 C23.9999428,18.0859602 23.663945,17.7499624 23.2499446,17.7499624 L8.24998033,17.7499624 C7.83597985,17.7499624 7.49998212,18.0859602 7.49998212,18.4999607 L7.49998212,19.9999571 C7.49998212,20.4139576 7.83597985,20.7499624 8.24998033,20.7499624 L23.2499446,20.7499624 Z" id="list"></path>
        </g>
    </g>
</svg>