<?xml version="1.0" encoding="UTF-8"?>
<svg width="24px" height="24px" viewBox="0 0 24 24" version="1.1" xmlns="http://www.w3.org/2000/svg" xmlns:xlink="http://www.w3.org/1999/xlink">
    <title></title>
    <g id="Icons" stroke="none" stroke-width="1" fill="none" fill-rule="evenodd">
        <g id="Icons/3.-Size-lg-(24px)/View-Type/th-large" fill="#151515">
            <path d="M22.8749455,11.7499768 C23.4962666,11.7499768 23.9999428,11.2463006 23.9999428,10.6249794 L23.9999428,3.12499732 C23.9999428,2.50367617 23.4962666,2 22.8749455,2 L13.8749669,2 C13.2536458,2 12.7499696,2.50367617 12.7499696,3.12499732 L12.7499696,10.6249794 C12.7499696,11.2463006 13.2536458,11.7499768 13.8749669,11.7499768 L22.8749455,11.7499768 Z M10.1249759,11.7499768 C10.746297,11.7499768 11.2499732,11.2463006 11.2499732,10.6249794 L11.2499732,3.12499732 C11.2499732,2.50367617 10.746297,2 10.1249759,2 L1.12499732,2 C0.503676167,2 0,2.50367617 0,3.12499732 L0,10.6249794 C0,11.2463006 0.503676167,11.7499768 1.12499732,11.7499768 L10.1249759,11.7499768 Z M10.1249759,22.9999499 C10.746297,22.9999499 11.2499732,22.4962738 11.2499732,21.8749526 L11.2499732,14.3749705 C11.2499732,13.7536493 10.746297,13.2499732 10.1249759,13.2499732 L1.12499732,13.2499732 C0.503676167,13.2499732 0,13.7536493 0,14.3749705 L0,21.8749526 C0,22.4962738 0.503676167,22.9999499 1.12499732,22.9999499 L10.1249759,22.9999499 Z M22.8749455,22.9999499 C23.4962666,22.9999499 23.9999428,22.4962738 23.9999428,21.8749526 L23.9999428,14.3749705 C23.9999428,13.7536493 23.4962666,13.2499732 22.8749455,13.2499732 L13.8749669,13.2499732 C13.2536458,13.2499732 12.7499696,13.7536493 12.7499696,14.3749705 L12.7499696,21.8749526 C12.7499696,22.4962738 13.2536458,22.9999499 13.8749669,22.9999499 L22.8749455,22.9999499 Z" id="th-large"></path>
        </g>
    </g>
</svg>