<?xml version="1.0" encoding="UTF-8"?>
<svg width="24px" height="24px" viewBox="0 0 24 24" version="1.1" xmlns="http://www.w3.org/2000/svg" xmlns:xlink="http://www.w3.org/1999/xlink">
    <title></title>
    <g id="Icons" stroke="none" stroke-width="1" fill="none" fill-rule="evenodd">
        <g id="Icons-/-1.-Size-md-/-Framework-/-clock" fill="#151515">
            <path d="M11.7499815,19.499963 C16.0312213,19.499963 19.499963,16.0312213 19.499963,11.7499815 C19.499963,7.46874173 16.0312213,4 11.7499815,4 C7.46874173,4 4,7.46874173 4,11.7499815 C4,16.0312213 7.46874173,19.499963 11.7499815,19.499963 Z M11.7499815,17.9999666 C8.29686476,17.9999666 5.49999642,15.2030983 5.49999642,11.7499815 C5.49999642,8.29686476 8.29686476,5.49999642 11.7499815,5.49999642 C15.2030983,5.49999642 17.9999666,8.29686476 17.9999666,11.7499815 C17.9999666,15.2030983 15.2030983,17.9999666 11.7499815,17.9999666 Z M14.2062135,14.6562246 L14.7937365,13.8468393 C14.9155929,13.678108 14.8812302,13.4437336 14.7124684,13.3218467 L12.6249794,11.8031125 L12.6249794,7.37499195 C12.6249794,7.16875465 12.4562176,6.99999285 12.2499803,6.99999285 L11.2499827,6.99999285 C11.0437454,6.99999285 10.8749836,7.16875465 10.8749836,7.37499195 L10.8749836,12.5062358 C10.8749836,12.6249794 10.9312274,12.737467 11.0281205,12.8093662 L13.6812208,14.7374622 C13.8499826,14.8593491 14.0843571,14.8218431 14.2062135,14.6562246 Z" id="clock"></path>
        </g>
    </g>
</svg>