<?xml version="1.0" encoding="UTF-8"?>
<svg width="24px" height="24px" viewBox="0 0 24 24" version="1.1" xmlns="http://www.w3.org/2000/svg" xmlns:xlink="http://www.w3.org/1999/xlink">
    <title></title>
    <g id="Icons" stroke="none" stroke-width="1" fill="none" fill-rule="evenodd">
        <g id="Icons-/-1.-Size-md-/-Framework-/-eye" fill="#030303" fill-rule="nonzero">
            <path d="M12,17.0740741 C13.648148,17.0740741 15.1666667,16.672571 16.5555556,15.8695652 C17.9259258,15.0848093 19.0092591,14.0263018 19.8055556,12.6940419 C19.9351853,12.4932905 20,12.2742889 20,12.037037 C20,11.7997852 19.9351853,11.5807835 19.8055556,11.3800322 C19.0092591,10.0477723 17.9259258,8.98926477 16.5555556,8.20450886 C15.1666667,7.40150309 13.648148,7 12,7 C10.351852,7 8.83333333,7.40150309 7.44444444,8.20450886 C6.07407422,8.98926477 4.99074088,10.0477723 4.19444444,11.3800322 C4.06481467,11.5807835 4,11.7997852 4,12.037037 C4,12.2742889 4.06481467,12.4932905 4.19444444,12.6940419 C4.99074088,14.0263018 6.07407422,15.0848093 7.44444444,15.8695652 C8.83333333,16.672571 10.351852,17.0740741 12,17.0740741 Z M12,15.8888889 C11.3013797,15.8888889 10.6594046,15.7142337 10.0740741,15.3649237 C9.4887435,15.0156138 9.02142324,14.5482935 8.67211329,13.962963 C8.32280334,13.3776324 8.14814815,12.7356574 8.14814815,12.037037 C8.14814815,11.3384167 8.32280334,10.6964417 8.67211329,10.1111111 C9.02142324,9.52578054 9.4887435,9.05846028 10.0740741,8.70915033 C10.6594046,8.35984038 11.3013797,8.18518519 12,8.18518519 C12.6986203,8.18518519 13.3405954,8.35984038 13.9259259,8.70915033 C14.5112565,9.05846028 14.9785768,9.52578054 15.3278867,10.1111111 C15.6771967,10.6964417 15.8518519,11.3384167 15.8518519,12.037037 C15.8518519,12.7356574 15.6771967,13.3776324 15.3278867,13.962963 C14.9785768,14.5482935 14.5112565,15.0156138 13.9259259,15.3649237 C13.3405954,15.7142337 12.6986203,15.8888889 12,15.8888889 Z M12,15 C12.8167143,15 13.51472,14.7103512 14.0940171,14.1310541 C14.6733142,13.551757 14.962963,12.8537513 14.962963,12.037037 C14.962963,11.2203227 14.6733142,10.522317 14.0940171,9.94301994 C13.51472,9.36372284 12.8167143,9.07407407 12,9.07407407 C11.506173,9.07407407 11.0408356,9.18803419 10.6039886,9.41595442 C10.9458689,9.41595442 11.2355177,9.53466301 11.4729345,9.77207977 C11.7103512,10.0094965 11.8290598,10.2991453 11.8290598,10.6410256 C11.8290598,10.982906 11.7103512,11.2725548 11.4729345,11.5099715 C11.2355177,11.7473883 10.9458689,11.8660969 10.6039886,11.8660969 C10.2621083,11.8660969 9.97245949,11.7473883 9.73504274,11.5099715 C9.49762598,11.2725548 9.37891738,10.982906 9.37891738,10.6410256 C9.15099715,11.0778726 9.03703704,11.54321 9.03703704,12.037037 C9.03703704,12.8537513 9.3266858,13.551757 9.90598291,14.1310541 C10.48528,14.7103512 11.1832857,15 12,15 Z" id="eye"></path>
        </g>
    </g>
</svg>