<?xml version="1.0" encoding="UTF-8"?>
<svg width="24px" height="24px" viewBox="0 0 24 24" version="1.1" xmlns="http://www.w3.org/2000/svg" xmlns:xlink="http://www.w3.org/1999/xlink">
    <title></title>
    <g id="Icons" stroke="none" stroke-width="1" fill="none" fill-rule="evenodd">
        <g id="Icons-/-1.-Size-md-/-Framework-/-thumbtack" fill="#151515">
            <path d="M12.223618,19.8619922 L12.9736162,18.3619958 C12.988173,18.3328516 13.0000138,18.2827723 13.0000138,18.2501796 L13.0000138,14.9999738 L17.2500037,14.9999738 C17.6642178,14.9999738 18,14.6641897 18,14.2499756 C18,12.6505226 16.8130235,11.3931098 15.3133628,10.6958153 L14.931009,7 L16.2499756,7 C16.6641897,7 16.9999738,6.66420874 16.9999738,6.24999464 L16.9999738,4.74999821 C16.9999738,4.33578411 16.6641897,4 16.2499756,4 L7.74999583,4 C7.33578173,4 7,4.33578411 7,4.74999821 L7,6.24999464 C7,6.66420874 7.33578173,7 7.74999583,7 L9.06896241,7 L8.68660858,10.6958153 C7.17077358,11.4006171 6,12.6643775 6,14.2499756 C6,14.6641897 6.33578411,14.9999738 6.74999821,14.9999738 L10.9999881,14.9999738 L10.9999881,18.2501796 C10.9999881,18.2889979 11.0090213,18.3272669 11.0263857,18.3619958 L11.7763839,19.8619922 C11.8683027,20.0457991 12.1315161,20.0461348 12.223618,19.8619922 Z" id="thumbtack"></path>
        </g>
    </g>
</svg>