<?xml version="1.0" encoding="UTF-8"?>
<svg width="18px" height="18px" viewBox="0 0 18 18" version="1.1" xmlns="http://www.w3.org/2000/svg" xmlns:xlink="http://www.w3.org/1999/xlink">
    <title></title>
    <g id="Progress-stepper" stroke="none" stroke-width="1" fill="none" fill-rule="evenodd">
        <g id="Progress-stepper-/-4.-Compact-item">
            <circle id="Oval" stroke="#D2D2D2" stroke-width="2" fill="#FAFAFA" cx="9" cy="9" r="8"></circle>
            <g id="Icons/1.-Size-md/Status/check-circle" transform="translate(3.000000, 3.000000)" fill="#3E8635">
                <path d="M5.81248614,11.6249723 C9.02263779,11.6249723 11.6249723,9.02263779 11.6249723,5.81248614 C11.6249723,2.60233449 9.02263779,0 5.81248614,0 C2.60233449,0 0,2.60233449 0,5.81248614 C0,9.02263779 2.60233449,11.6249723 5.81248614,11.6249723 Z M4.60980651,8.89013841 L2.17231233,6.45264422 C2.02589696,6.30620597 2.02589696,6.06874163 2.17231233,5.92230338 L2.70265316,5.39198544 C2.84909141,5.24554719 3.08655575,5.24554719 3.232994,5.39198544 L4.87498838,7.0340027 L8.39197828,3.51701279 C8.53843942,3.37055166 8.77590376,3.37055166 8.92231912,3.51701279 L9.45265996,4.04733074 C9.59907532,4.19376899 9.59907532,4.43123333 9.45265996,4.57767158 L5.14017024,8.8901613 C4.9937091,9.03657666 4.75626765,9.03657666 4.60980651,8.89013841 Z" id="check-circle"></path>
            </g>
        </g>
    </g>
</svg>