<?xml version="1.0" encoding="UTF-8"?><svg version="1.1" width="18px" height="18px" viewBox="0 0 18.0 18.0" xmlns="http://www.w3.org/2000/svg" xmlns:xlink="http://www.w3.org/1999/xlink"><defs><clipPath id="i0"><path d="M9,0 C13.9705627,0 18,4.02943725 18,9 C18,13.9705627 13.9705627,18 9,18 C4.02943725,18 0,13.9705627 0,9 C0,4.02943725 4.02943725,0 9,0 Z"></path></clipPath><clipPath id="i1"><path d="M5.81248614,0 C9.02263779,0 11.6249723,2.60233449 11.6249723,5.81248614 C11.6249723,9.02263779 9.02263779,11.6249723 5.81248614,11.6249723 C2.60233449,11.6249723 0,9.02263779 0,5.81248614 C0,2.60233449 2.60233449,0 5.81248614,0 Z M8.92231912,3.51701279 C8.77590376,3.37055166 8.53843942,3.37055166 8.39197828,3.51701279 L4.87498838,7.0340027 L3.232994,5.39198544 C3.08655575,5.24554719 2.84909141,5.24554719 2.70265316,5.39198544 L2.17231233,5.92230338 C2.02589696,6.06874163 2.02589696,6.30620597 2.17231233,6.45264422 L4.60980651,8.89013841 C4.75626765,9.03657666 4.9937091,9.03657666 5.14017024,8.8901613 L9.45265996,4.57767158 C9.59907532,4.43123333 9.59907532,4.19376899 9.45265996,4.04733074 Z"></path></clipPath></defs><g clip-path="url(#i0)"><polygon points="0,0 18,0 18,18 0,18 0,0" stroke="none" fill="#FAFAFA"></polygon><path d="M9,18 C13.9705627,18 18,13.9705627 18,9 C18,4.02943725 13.9705627,0 9,0 C4.02943725,0 0,4.02943725 0,9 C0,13.9705627 4.02943725,18 9,18 Z" stroke="#D2D2D2" stroke-width="4" fill="none" stroke-miterlimit="5"></path></g><g transform="translate(-3.0 -3.0)"><g transform="translate(6.0 6.0)"><g clip-path="url(#i1)"><polygon points="0,0 11.6249723,0 11.6249723,11.6249723 0,11.6249723 0,0" stroke="none" fill="#3E8634"></polygon></g></g></g></svg>