<?xml version="1.0" encoding="UTF-8"?><svg version="1.1" width="52px" height="52px" viewBox="0 0 52.0 52.0" xmlns="http://www.w3.org/2000/svg" xmlns:xlink="http://www.w3.org/1999/xlink"><defs><clipPath id="i0"><path d="M26,0 C30.6827962,0 35.016129,1.17069946 39,3.51209677 C42.983871,5.85349409 46.1465059,9.01612903 48.4879032,13 C50.8293005,16.983871 52,21.3172038 52,26 C52,30.6827962 50.8293005,35.016129 48.4879032,39 C46.1465059,42.983871 42.983871,46.1465059 39,48.4879032 C35.016129,50.8293005 30.6827962,52 26,52 C21.3172038,52 16.983871,50.8293005 13,48.4879032 C9.01612903,46.1465059 5.85349409,42.983871 3.51209677,39 C1.17069946,35.016129 0,30.6827962 0,26 C0,21.3172038 1.17069946,16.983871 3.51209677,13 C5.85349409,9.01612903 9.01612903,5.85349409 13,3.51209677 C16.983871,1.17069946 21.3172038,0 26,0 Z M38.7379032,15.2016129 C38.2836027,15.2016129 37.8817199,15.3763446 37.5322581,15.7258065 L21.8064516,31.4516129 L14.4677419,24.1129032 C14.1182801,23.7634414 13.7163973,23.5887097 13.2620968,23.5887097 C12.8077962,23.5887097 12.4059134,23.7634414 12.0564516,24.1129032 L9.75,26.5241935 C9.40053817,26.803764 9.22580645,27.1881715 9.22580645,27.6774194 C9.22580645,28.1666672 9.40053817,28.5510747 9.75,28.8306452 L20.6532258,39.733871 C20.9327962,40.0833328 21.3172038,40.2580645 21.8064516,40.2580645 C22.2956995,40.2580645 22.680107,40.0833328 22.9596774,39.733871 L42.25,20.4435484 C42.5994618,20.163978 42.7741935,19.7795704 42.7741935,19.2903226 C42.7741935,18.8010747 42.5994618,18.4166672 42.25,18.1370968 L39.9435484,15.7258065 C39.5940866,15.3763446 39.1922038,15.2016129 38.7379032,15.2016129 Z"></path></clipPath></defs><g clip-path="url(#i0)"><polygon points="0,0 52,0 52,52 0,52 0,0" stroke="none" fill="#3E8634"></polygon></g></svg>