<?xml version="1.0" encoding="UTF-8"?><svg version="1.1" width="67px" height="54px" viewBox="0 0 67.0 54.0" xmlns="http://www.w3.org/2000/svg" xmlns:xlink="http://www.w3.org/1999/xlink"><defs><clipPath id="i0"><path d="M57.7932333,32.2859931 C58.1073217,31.7251398 58.7774179,31.4923035 59.3741042,31.7144953 C60.6096005,32.1801678 61.7402985,32.8468464 62.7349119,33.6829074 C63.2164732,34.0850227 63.3421291,34.7940727 63.0280406,35.3442815 L62.1695118,36.8576656 C62.8919561,37.7042678 63.4572539,38.6884221 63.8342214,39.7572161 L65.5617078,39.7572161 C66.1898847,39.7572161 66.7343251,40.2122441 66.8390213,40.8471957 C67.0484136,42.117099 67.0588423,43.4505594 66.8390213,44.7733754 C66.7343251,45.408327 66.1898847,45.8738962 65.5617078,45.8738962 L63.8342214,45.8738962 C63.4572539,46.9427935 62.8919561,47.9269478 62.1695118,48.77355 L63.0280406,50.2868308 C63.3421291,50.8371429 63.2270042,51.5461929 62.7349119,51.9483082 C61.7402985,52.7843692 60.5990696,53.4510478 59.3741042,53.916617 C58.7774179,54.1389121 58.1073217,53.9060758 57.7932333,53.3452225 L56.9347044,51.8319418 C55.8459258,52.0329478 54.7151256,52.0329478 53.6158161,51.8319418 L52.7573895,53.3452225 C52.4433011,53.9060758 51.7732048,54.1389121 51.1764163,53.916617 C49.9410222,53.4510478 48.8103243,52.7843692 47.8157109,51.9483082 C47.3340473,51.5461929 47.2084937,50.8371429 47.5225821,50.2868308 L48.3810088,48.77355 C47.6586667,47.9269478 47.0932666,46.9427935 46.7164014,45.8738962 L44.9889149,45.8738962 C44.3607381,45.8738962 43.8162976,45.4188682 43.7116015,44.7839165 C43.5022092,43.5140133 43.4917805,42.1806562 43.7116015,40.8578402 C43.8162976,40.2228886 44.3607381,39.7572161 44.9889149,39.7572161 L46.7164014,39.7572161 C47.0932666,38.6884221 47.6586667,37.7042678 48.3810088,36.8576656 L47.5225821,35.3442815 C47.2084937,34.7940727 47.3236186,34.0850227 47.8157109,33.6829074 C48.8103243,32.8468464 49.951451,32.1801678 51.1764163,31.7144953 C51.7732048,31.4923035 52.4433011,31.7251398 52.7573895,32.2859931 L53.6158161,33.7992738 C54.7151256,33.5981645 55.8353949,33.5981645 56.9347044,33.7992738 Z M18.5949549,3.54378678 C21.1705415,3.09940331 23.8821104,3.07821759 26.5518621,3.53324559 C27.7558678,3.74489614 28.6457851,4.79260769 28.6457851,6.03068071 L28.6457851,9.58647191 C30.7711986,10.3484345 32.7185061,11.4913268 34.3936444,12.9411537 L37.4402614,11.1632065 C38.4872229,10.5494406 39.8378441,10.7822768 40.6126364,11.7241631 C42.3086322,13.7771114 44.0884667,16.1264531 45.0203033,18.6874454 C45.4390879,19.8408789 45.0307321,21.1426124 43.9733419,21.7669196 L40.4450613,23.5447635 C40.8534171,25.7670942 40.8534171,28.0423376 40.4450613,30.2646684 L43.9733419,32.0426156 C45.0307321,32.6563815 45.491436,33.9580117 45.0726514,35.1220897 C44.1408148,37.683082 42.3086322,40.0324238 40.6126364,42.0853721 C39.8378441,43.0272583 38.4977538,43.2600946 37.4402614,42.6462254 L34.3936444,40.8683814 C32.7185061,42.3182083 30.7711986,43.4717452 28.6457851,44.2230633 L28.6457851,47.7787511 C28.6457851,49.0063863 27.7768275,50.064639 26.5833527,50.2762896 C24.0077662,50.7207764 21.306626,50.7418588 18.6368743,50.2762896 C17.4328686,50.064639 16.5429514,49.0169275 16.5429514,47.7787511 L16.5429514,44.2230633 C14.41764,43.4611006 12.4702303,42.3182083 10.795092,40.8683814 L7.74847501,42.6356842 C6.70151354,43.2494501 5.35089235,43.0166138 4.57620221,42.0748309 C2.88010418,40.0217792 1.08984096,37.6724375 0.158004354,35.1220897 C-0.260780234,33.9685529 0.19992371,32.6669227 1.2573139,32.0426156 L4.74367514,30.2646684 C4.33542152,28.0529821 4.33542152,25.7777388 4.74367514,23.555408 L1.2573139,21.7669196 C0.19992371,21.1531536 -0.271208951,19.8515234 0.158004354,18.6979866 C1.08984096,16.1369943 2.88010418,13.7877559 4.57620221,11.7347043 C5.35089235,10.792818 6.69108482,10.5600851 7.74847501,11.173851 L10.795092,12.9516949 C12.4702303,11.501868 14.41764,10.3484345 16.5429514,9.5970131 L16.5429514,6.03068071 C16.5429514,4.81369007 17.4014802,3.75543733 18.5949549,3.54378678 Z M58.0445449,40.011238 C54.0137433,36.8787479 49.4175415,41.5245188 52.5165066,45.5987918 C56.5473082,48.7311786 61.14351,44.0855111 58.0445449,40.011238 Z M28.1328353,32.4976436 C34.3308676,24.3490976 25.1280354,15.0470147 17.0664321,21.3118915 C10.8683997,29.4604376 20.071232,38.7625205 28.1328353,32.4976436 Z M51.1764163,0.0833830158 C51.7732048,-0.138912066 52.4433011,0.0939242052 52.7573895,0.654777486 L53.6158161,2.16805823 C54.7151256,1.96705222 55.8353949,1.96705222 56.9347044,2.16805823 L57.7932333,0.654777486 C58.1073217,0.0939242052 58.7774179,-0.138912066 59.3741042,0.0833830158 C60.6096005,0.548952212 61.7402985,1.21563077 62.7349119,2.05169177 C63.2164732,2.45380714 63.3421291,3.16285714 63.0280406,3.71316923 L62.1695118,5.22644997 C62.8919561,6.07305216 63.4572539,7.05720653 63.8342214,8.1261038 L65.5617078,8.1261038 C66.1898847,8.1261038 66.7343251,8.58113181 66.8390213,9.21608345 C67.0484136,10.4859867 67.0588423,11.8193438 66.8390213,13.1421598 C66.7343251,13.7771114 66.1898847,14.2427839 65.5617078,14.2427839 L63.8342214,14.2427839 C63.4572539,15.3115779 62.8919561,16.2957322 62.1695118,17.1423344 L63.0280406,18.6557185 C63.3421291,19.2059273 63.2270042,19.9149773 62.7349119,20.3170926 C61.7402985,21.1531536 60.5990696,21.8198322 59.3741042,22.2855047 C58.7774179,22.5076965 58.1073217,22.2748602 57.7932333,21.7140069 L56.9347044,20.2007262 C55.8459258,20.4018355 54.7151256,20.4018355 53.6158161,20.2007262 L52.7573895,21.7140069 C52.4433011,22.2748602 51.7732048,22.5076965 51.1764163,22.2855047 C49.9410222,21.8198322 48.8103243,21.1531536 47.8157109,20.3170926 C47.3340473,19.9149773 47.2084937,19.2059273 47.5225821,18.6557185 L48.3810088,17.1423344 C47.6586667,16.2957322 47.0932666,15.3115779 46.7164014,14.2427839 L44.9889149,14.2427839 C44.3607381,14.2427839 43.8162976,13.7877559 43.7116015,13.1528043 C43.5022092,11.882901 43.4917805,10.5494406 43.7116015,9.22662464 C43.8162976,8.591673 44.3607381,8.1261038 44.9889149,8.1261038 L46.7164014,8.1261038 C47.0932666,7.05720653 47.6586667,6.07305216 48.3810088,5.22644997 L47.5225821,3.71316923 C47.2084937,3.16285714 47.3236186,2.45380714 47.8157109,2.05169177 C48.8103243,1.21563077 49.951451,0.548952212 51.1764163,0.0833830158 Z M58.0445449,8.39066699 C54.0137433,5.2476357 49.4175415,9.90394773 52.5165066,13.9782208 C56.5473082,17.1106075 61.14351,12.46494 58.0445449,8.39066699 Z"></path></clipPath></defs><g clip-path="url(#i0)"><polygon points="7.10542736e-15,-1.11022302e-16 67,-1.11022302e-16 67,54 7.10542736e-15,54 7.10542736e-15,-1.11022302e-16" stroke="none" fill="#151515"></polygon></g></svg>