<?xml version="1.0" encoding="UTF-8"?><svg version="1.1" width="54px" height="47px" viewBox="0 0 54.0 47.0" xmlns="http://www.w3.org/2000/svg" xmlns:xlink="http://www.w3.org/1999/xlink"><defs><clipPath id="i0"><path d="M25.857422,0.181933331 C26.6953129,-0.0849022213 27.5332026,-0.058218666 28.3710938,0.261983997 L38.9179688,4.24414683 L39.1477866,4.34376573 C39.7484814,4.62666603 40.2519536,5.04756565 40.6582031,5.60646569 C41.1152338,6.23522825 41.34375,6.93385384 41.34375,7.70234087 L41.34375,19.1248606 L51.5742188,22.8974359 L51.8040366,22.9977017 C52.4047314,23.2840521 52.9082036,23.7222021 53.3144531,24.3121516 C53.7714838,24.9758449 54,25.6919367 54,26.4604237 L54,37.9877371 L53.9928386,38.2193186 C53.9546442,38.8334189 53.7636724,39.4199185 53.4199219,39.9788186 C53.0332026,40.6075811 52.5234375,41.0616869 51.890625,41.3411374 L41.34375,46.5808254 L41.1328124,46.6790694 C40.0781246,47.1375417 39.023438,47.1047937 37.96875,46.5808254 L27,41.1315499 L16.03125,46.5808254 L15.8203124,46.6790694 C14.7656246,47.1375417 13.710938,47.1047937 12.65625,46.5808254 L2.109375,41.3411374 L1.90299481,41.2415185 C1.36480045,40.9586182 0.923828602,40.5377186 0.580078125,39.9788186 C0.193358839,39.350056 0,38.6863627 0,37.9877371 L0,26.4604237 L0.00846355933,26.2062019 C0.0536025365,25.533452 0.279297352,24.9021012 0.685546875,24.3121516 C1.14257759,23.6484584 1.72265571,23.1768864 2.42578125,22.8974359 L12.65625,19.1248606 L12.65625,7.70234087 L12.6647136,7.44876599 C12.7098525,6.77946621 12.9355474,6.16536574 13.3417969,5.60646569 C13.7988276,4.97770314 14.3789057,4.52359739 15.0820312,4.24414683 L25.6289062,0.261983997 Z M25.1015625,30.232999 L16.1367188,34.3199556 L16.1367188,42.5986625 L25.1015625,38.0925309 L25.1015625,30.232999 Z M50.4140625,30.232999 L41.4492188,34.3199556 L41.4492188,42.5986625 L50.4140625,38.0925309 L50.4140625,30.232999 Z M14.34375,22.2686733 L3.5859375,26.3556299 L14.34375,30.7569678 L25.1015625,26.3556299 L14.34375,22.2686733 Z M39.65625,22.2686733 L28.8984375,26.3556299 L39.65625,30.7569678 L50.4140625,26.3556299 L39.65625,22.2686733 Z M37.7578125,11.4749162 L28.7929688,15.3522853 L28.7929688,22.5830546 L37.7578125,19.2296543 L37.7578125,11.4749162 Z M27,3.61538428 L16.2421875,7.59754711 L16.2421875,7.70234087 L27,11.998885 L37.7578125,7.70234087 L37.7578125,7.59754711 L27,3.61538428 Z"></path></clipPath></defs><g clip-path="url(#i0)"><polygon points="0,0 54,0 54,47 0,47 0,0" stroke="none" fill="#696E73"></polygon></g></svg>