<?xml version="1.0" encoding="UTF-8"?><svg version="1.1" width="61px" height="54px" viewBox="0 0 61.0 54.0" xmlns="http://www.w3.org/2000/svg" xmlns:xlink="http://www.w3.org/1999/xlink"><defs><clipPath id="i0"><path d="M28.6155212,0.290038773 C29.7756747,-0.0966795911 30.9358281,-0.0966795911 32.0959816,0.290038773 C33.2561351,0.676757138 34.1526174,1.43261364 34.7854283,2.55761149 L60.097868,46.4325069 C60.6603661,47.5575047 60.8361475,48.7000796 60.6252105,49.8602331 C60.4142735,51.0203866 59.8517754,52.0047587 58.9377145,52.813351 C58.0236537,53.6219434 56.933813,54.0262388 55.6681911,54.0262388 L5.04331175,54.0262388 C3.77768977,54.0262388 2.68784915,53.6219434 1.7737883,52.813351 C0.85972744,52.0047587 0.297229318,51.0203866 0.0862923208,49.8602331 C-0.124644676,48.7000796 0.0511366911,47.5575047 0.613634814,46.4325069 L25.9260745,2.55761149 C26.5588855,1.43261364 27.4553677,0.676757138 28.6155212,0.290038773 Z M30.3557514,37.362216 C29.0198166,37.362216 27.8772417,37.8368243 26.9280252,38.7860407 C25.9788087,39.7352572 25.5042005,40.8778321 25.5042005,42.2137669 C25.5042005,43.5497018 25.9788087,44.6922767 26.9280252,45.6414931 C27.8772417,46.5907096 29.0198166,47.0653179 30.3557514,47.0653179 C31.6916863,47.0653179 32.8342611,46.5907096 33.7834776,45.6414931 C34.7326941,44.6922767 35.2073023,43.5497018 35.2073023,42.2137669 C35.2073023,40.8778321 34.7326941,39.7352572 33.7834776,38.7860407 C32.8342611,37.8368243 31.6916863,37.362216 30.3557514,37.362216 Z M33.7307434,18.5888233 L26.9807594,18.5888233 C26.6291983,18.5888233 26.3303698,18.7118704 26.0842772,18.957963 C25.8381846,19.2040556 25.7151375,19.5380398 25.7151375,19.9599138 L26.5588855,34.3036296 C26.5588855,34.5848794 26.6819326,34.8485507 26.9280252,35.0946433 C27.1741178,35.3407359 27.4729463,35.463783 27.8245074,35.463783 L32.8869954,35.463783 C33.2385565,35.463783 33.537385,35.3407359 33.7834776,35.0946433 C34.0295702,34.8485507 34.1526174,34.5848794 34.1526174,34.3036296 L34.9963653,19.9599138 C34.9963653,19.5380398 34.8733182,19.2040556 34.6272256,18.957963 C34.381133,18.7118704 34.0823045,18.5888233 33.7307434,18.5888233 Z"></path></clipPath></defs><g transform="translate(0.019176177699819164 -0.2762548741874937)"><g clip-path="url(#i0)"><polygon points="0,0 60.7115028,0 60.7115028,54.0262388 0,54.0262388 0,0" stroke="none" fill="#F0AB00"></polygon></g></g></svg>