<?xml version="1.0" encoding="UTF-8"?><svg version="1.1" width="52px" height="52px" viewBox="0 0 52.0 52.0" xmlns="http://www.w3.org/2000/svg" xmlns:xlink="http://www.w3.org/1999/xlink"><defs><clipPath id="i0"><path d="M26,0 C30.6827962,0 35.016129,1.17069946 39,3.51209677 C42.983871,5.85349409 46.1465059,9.01612903 48.4879032,13 C50.8293005,16.983871 52,21.3172038 52,26 C52,30.6827962 50.8293005,35.016129 48.4879032,39 C46.1465059,42.983871 42.983871,46.1465059 39,48.4879032 C35.016129,50.8293005 30.6827962,52 26,52 C21.3172038,52 16.983871,50.8293005 13,48.4879032 C9.01612903,46.1465059 5.85349409,42.983871 3.51209677,39 C1.17069946,35.016129 0,30.6827962 0,26 C0,21.3172038 1.17069946,16.983871 3.51209677,13 C5.85349409,9.01612903 9.01612903,5.85349409 13,3.51209677 C16.983871,1.17069946 21.3172038,0 26,0 Z M26,31.2419355 C24.6720425,31.2419355 23.5362903,31.7137097 22.5927419,32.6572581 C21.6491935,33.6008065 21.1774194,34.7365586 21.1774194,36.0645161 C21.1774194,37.3924737 21.6491935,38.5282258 22.5927419,39.4717742 C23.5362903,40.4153226 24.6720425,40.8870968 26,40.8870968 C27.3279575,40.8870968 28.4637097,40.4153226 29.4072581,39.4717742 C30.3508065,38.5282258 30.8225806,37.3924737 30.8225806,36.0645161 C30.8225806,34.7365586 30.3508065,33.6008065 29.4072581,32.6572581 C28.4637097,31.7137097 27.3279575,31.2419355 26,31.2419355 Z M29.3548387,12.5806452 L22.6451613,12.5806452 C22.2956995,12.5806452 21.9986554,12.7029575 21.7540323,12.9475806 C21.5094091,13.1922038 21.3870968,13.5241935 21.3870968,13.9435484 L22.2258065,28.2016129 C22.2258065,28.4811833 22.3481188,28.7432801 22.5927419,28.9879032 C22.8373651,29.2325263 23.1344091,29.3548387 23.483871,29.3548387 L28.516129,29.3548387 C28.8655909,29.3548387 29.1626349,29.2325263 29.4072581,28.9879032 C29.6518812,28.7432801 29.7741935,28.4811833 29.7741935,28.2016129 L30.6129032,13.9435484 C30.6129032,13.5241935 30.4905909,13.1922038 30.2459677,12.9475806 C30.0013446,12.7029575 29.7043005,12.5806452 29.3548387,12.5806452 Z"></path></clipPath></defs><g clip-path="url(#i0)"><polygon points="0,0 52,0 52,52 0,52 0,0" stroke="none" fill="#C9190A"></polygon></g></svg>