<?xml version="1.0" encoding="UTF-8"?><svg version="1.1" width="52px" height="52px" viewBox="0 0 52.0 52.0" xmlns="http://www.w3.org/2000/svg" xmlns:xlink="http://www.w3.org/1999/xlink"><defs><clipPath id="i0"><path d="M26,0 C30.6827962,0 35.016129,1.17069946 39,3.51209677 C42.983871,5.85349409 46.1465059,9.01612903 48.4879032,13 C50.8293005,16.983871 52,21.3172038 52,26 C52,30.6827962 50.8293005,35.016129 48.4879032,39 C46.1465059,42.983871 42.983871,46.1465059 39,48.4879032 C35.016129,50.8293005 30.6827962,52 26,52 C21.3172038,52 16.983871,50.8293005 13,48.4879032 C9.01612903,46.1465059 5.85349409,42.983871 3.51209677,39 C1.17069946,35.016129 0,30.6827962 0,26 C0,21.3172038 1.17069946,16.983871 3.51209677,13 C5.85349409,9.01612903 9.01612903,5.85349409 13,3.51209677 C16.983871,1.17069946 21.3172038,0 26,0 Z M28.0967742,22.6451613 L21.3870968,22.6451613 L21.2405367,22.6526498 C20.953835,22.6826038 20.7056447,22.8024198 20.4959677,23.0120968 C20.2513446,23.2567199 20.1290323,23.553764 20.1290323,23.9032258 L20.1290323,26.4193548 L20.1365208,26.5659149 C20.1664748,26.8526166 20.2862908,27.1008069 20.4959677,27.3104839 C20.7405909,27.555107 21.0376349,27.6774194 21.3870968,27.6774194 L22.6451613,27.6774194 L22.6451613,34.3870968 L21.3870968,34.3870968 L21.2405367,34.3945853 C20.953835,34.4245393 20.7056447,34.5443553 20.4959677,34.7540323 C20.2513446,34.9986554 20.1290323,35.2956995 20.1290323,35.6451613 L20.1290323,38.1612903 L20.1365208,38.3078504 C20.1664748,38.5945521 20.2862908,38.8427424 20.4959677,39.0524194 C20.7405909,39.2970425 21.0376349,39.4193548 21.3870968,39.4193548 L30.6129032,39.4193548 C30.9623651,39.4193548 31.2594091,39.2970425 31.5040323,39.0524194 C31.7486554,38.8077962 31.8709677,38.5107522 31.8709677,38.1612903 L31.8709677,35.6451613 L31.8634792,35.4986012 C31.8335252,35.2118995 31.7137092,34.9637092 31.5040323,34.7540323 C31.2594091,34.5094091 30.9623651,34.3870968 30.6129032,34.3870968 L29.3548387,34.3870968 L29.3548387,23.9032258 L29.3473502,23.7566657 C29.3173962,23.4699641 29.1975802,23.2217737 28.9879032,23.0120968 C28.7432801,22.7674737 28.446236,22.6451613 28.0967742,22.6451613 Z M26,11.5322581 C24.8118285,11.5322581 23.7809134,11.9690866 22.9072581,12.8427419 C22.0336027,13.7163973 21.5967742,14.7473124 21.5967742,15.9354839 C21.5967742,17.1236554 22.0336027,18.1545704 22.9072581,19.0282258 C23.7809134,19.9018812 24.8118285,20.3387097 26,20.3387097 C27.1881715,20.3387097 28.2190866,19.9018812 29.0927419,19.0282258 C29.9663973,18.1545704 30.4032258,17.1236554 30.4032258,15.9354839 C30.4032258,14.7473124 29.9663973,13.7163973 29.0927419,12.8427419 C28.2190866,11.9690866 27.1881715,11.5322581 26,11.5322581 Z"></path></clipPath></defs><g clip-path="url(#i0)"><polygon points="0,0 52,0 52,52 0,52 0,0" stroke="none" fill="#2B9AF3"></polygon></g></svg>