<?xml version="1.0" encoding="UTF-8"?><svg version="1.1" width="48px" height="54px" viewBox="0 0 48.0 54.0" xmlns="http://www.w3.org/2000/svg" xmlns:xlink="http://www.w3.org/1999/xlink"><defs><clipPath id="i0"><path d="M23.6249437,0 C26.5077488,0 29.1796185,0.72070087 31.6405496,2.16210422 C34.1014807,3.60350757 36.0526479,5.55467479 37.4940512,8.01560589 C38.9354546,10.476537 39.6561555,13.1484067 39.6561555,16.0312118 L39.6561555,23.6249437 L42.1873994,23.6249437 L42.4658362,23.6315062 C43.7520828,23.6927561 44.8545811,24.1827553 45.7733284,25.1015027 C46.7577005,26.0858748 47.2498873,27.2811855 47.2498873,28.6874316 L47.2498873,48.9373833 L47.2433249,49.2158201 C47.1820749,50.5020667 46.6920757,51.604565 45.7733284,52.5233123 C44.7889563,53.5076844 43.5936455,53.9998713 42.1873994,53.9998713 L5.06248793,53.9998713 L4.78405118,53.9933088 C3.49780456,53.9320588 2.39530629,53.4420596 1.47655898,52.5233123 C0.492186863,51.5389402 0,50.3436294 0,48.9373833 L0,28.6874316 L0.00656249103,28.4089949 C0.0678124051,27.1227482 0.557811671,26.02025 1.47655898,25.1015027 C2.4609311,24.1171305 3.65624182,23.6249437 5.06248793,23.6249437 L7.5937319,23.6249437 L7.5937319,16.0312118 L7.60040505,15.5526974 C7.67603416,12.8521833 8.39451073,10.3398186 9.75583612,8.01560589 C11.1972395,5.55467479 13.1484067,3.60350757 15.6093378,2.16210422 C18.0702689,0.72070087 20.7421386,0 23.6249437,0 Z M23.6249437,8.43747988 C21.5155737,8.43747988 19.7226092,9.17575937 18.2460502,10.6523184 C16.7694913,12.1288773 16.0312118,13.9218418 16.0312118,16.0312118 L16.0312118,23.6249437 L31.2186756,23.6249437 L31.2186756,16.0312118 L31.2125403,15.7007828 C31.1389168,13.7339852 30.4026824,12.0511637 29.0038371,10.6523184 C27.5272781,9.17575937 25.7343136,8.43747988 23.6249437,8.43747988 Z"></path></clipPath></defs><g transform="translate(0.0 -0.2498873472213745)"><g clip-path="url(#i0)"><polygon points="0,0 47.2498873,0 47.2498873,53.9998713 0,53.9998713 0,0" stroke="none" fill="#696E73"></polygon></g></g></svg>