<?xml version="1.0" encoding="UTF-8"?>
<svg width="52px" height="52px" viewBox="0 0 52 52" version="1.1" xmlns="http://www.w3.org/2000/svg" xmlns:xlink="http://www.w3.org/1999/xlink">
    <title></title>
    <g id="Icons" stroke="none" stroke-width="1" fill="none" fill-rule="evenodd">
        <g id="Icons/4.-Size-xl/Empty-state/plus-circle" fill="#6A6E73">
            <path d="M26,52 C30.6827962,52 35.016129,50.8293005 39,48.4879032 C42.983871,46.1465059 46.1465059,42.983871 48.4879032,39 C50.8293005,35.016129 52,30.6827962 52,26 C52,21.3172038 50.8293005,16.983871 48.4879032,13 C46.1465059,9.01612903 42.983871,5.85349409 39,3.51209677 C35.016129,1.17069946 30.6827962,0 26,0 C21.3172038,0 16.983871,1.17069946 13,3.51209677 C9.01612903,5.85349409 5.85349409,9.01612903 3.51209677,13 C1.17069946,16.983871 0,21.3172038 0,26 C0,30.6827962 1.17069946,35.016129 3.51209677,39 C5.85349409,42.983871 9.01612903,46.1465059 13,48.4879032 C16.983871,50.8293005 21.3172038,52 26,52 Z M28.9354839,41.0967742 L23.0645161,41.0967742 C22.7150543,41.0967742 22.4180102,40.9744618 22.1733871,40.7298387 C21.928764,40.4852156 21.8064516,40.1881715 21.8064516,39.8387097 L21.8064516,39.8387097 L21.8064516,30.1935484 L12.1612903,30.1935484 C11.8118285,30.1935484 11.5147844,30.071236 11.2701613,29.8266129 C11.0255382,29.5819898 10.9032258,29.2849457 10.9032258,28.9354839 L10.9032258,28.9354839 L10.9032258,23.0645161 C10.9032258,22.7150543 11.0255382,22.4180102 11.2701613,22.1733871 C11.5147844,21.928764 11.8118285,21.8064516 12.1612903,21.8064516 L12.1612903,21.8064516 L21.8064516,21.8064516 L21.8064516,12.1612903 C21.8064516,11.8118285 21.928764,11.5147844 22.1733871,11.2701613 C22.4180102,11.0255382 22.7150543,10.9032258 23.0645161,10.9032258 L23.0645161,10.9032258 L28.9354839,10.9032258 C29.2849457,10.9032258 29.5819898,11.0255382 29.8266129,11.2701613 C30.071236,11.5147844 30.1935484,11.8118285 30.1935484,12.1612903 L30.1935484,12.1612903 L30.1935484,21.8064516 L39.8387097,21.8064516 C40.1881715,21.8064516 40.4852156,21.928764 40.7298387,22.1733871 C40.9744618,22.4180102 41.0967742,22.7150543 41.0967742,23.0645161 L41.0967742,23.0645161 L41.0967742,28.9354839 C41.0967742,29.2849457 40.9744618,29.5819898 40.7298387,29.8266129 C40.4852156,30.071236 40.1881715,30.1935484 39.8387097,30.1935484 L39.8387097,30.1935484 L30.1935484,30.1935484 L30.1935484,39.8387097 C30.1935484,40.1881715 30.071236,40.4852156 29.8266129,40.7298387 C29.5819898,40.9744618 29.2849457,41.0967742 28.9354839,41.0967742 L28.9354839,41.0967742 Z" id="plus-circle"></path>
        </g>
    </g>
</svg>