<?xml version="1.0" encoding="UTF-8"?><svg version="1.1" width="54px" height="54px" viewBox="0 0 54.0 54.0" xmlns="http://www.w3.org/2000/svg" xmlns:xlink="http://www.w3.org/1999/xlink"><defs><clipPath id="i0"><path d="M34.8046045,0.555097551 C37.4061614,-0.148026309 39.9725609,-0.183181939 42.5038049,0.449629052 C42.9959918,0.590253181 43.2948187,0.889081666 43.4002872,1.34611129 C43.5057556,1.80314091 43.3827085,2.2074379 43.0311474,2.55899902 L35.2264785,10.4691364 L36.386632,17.6409943 L43.5584899,18.8011478 L51.4686273,10.9964789 L51.5877675,10.8877553 C51.9106832,10.6203952 52.2752665,10.5335894 52.681515,10.6273392 C53.1385446,10.7328077 53.4373731,11.0316345 53.5779973,11.5238214 C54.2108083,14.0550654 54.1756526,16.6038879 53.4725288,19.1702875 C52.7694049,21.7366871 51.4686273,24.0042599 49.5701943,25.9730057 C47.4608243,28.0120628 45.0174703,29.3479977 42.2401337,29.9808086 C39.4627971,30.6136196 36.7030375,30.4729955 33.9608565,29.5589347 L11.4960663,52.0237248 L11.2709691,52.2401958 C9.98158385,53.4318166 8.45701159,54.0276263 6.69724966,54.0276263 C4.83397231,54.0276263 3.25194484,53.3772367 1.95116722,52.0764591 C0.650389611,50.7756815 0,49.193654 0,47.3303767 C0,45.4670993 0.667966621,43.8674948 2.00390147,42.53156 L24.4686917,19.9613013 L24.3307937,19.5388431 C23.5419707,17.0005878 23.4473125,14.3992262 24.0468177,11.7347584 C24.6796287,8.92226457 26.0155635,6.4964891 28.0546206,4.457432 C29.9530536,2.55899902 32.2030477,1.25822141 34.8046045,0.555097551 Z M6.74998391,44.7463984 C6.04686005,44.7463984 5.44920629,44.9924911 4.95701943,45.4846779 C4.46483257,45.9768648 4.21873994,46.5745185 4.21873994,47.2776424 C4.21873994,47.9807663 4.46483257,48.57842 4.95701943,49.0706069 C5.44920629,49.5627937 6.04686005,49.8088864 6.74998391,49.8088864 C7.45310777,49.8088864 8.05076152,49.5627937 8.54294838,49.0706069 C9.03513524,48.57842 9.28122787,47.9807663 9.28122787,47.2776424 C9.28122787,46.5745185 9.03513524,45.9768648 8.54294838,45.4846779 C8.05076152,44.9924911 7.45310777,44.7463984 6.74998391,44.7463984 Z"></path></clipPath></defs><g transform="translate(0.0 -0.2776424053086437)"><g clip-path="url(#i0)"><polygon points="0,0 54.0276263,0 54.0276263,54.0276263 0,54.0276263 0,0" stroke="none" fill="#696E73"></polygon></g></g></svg>