<?xml version="1.0" encoding="UTF-8"?><svg version="1.1" width="412px" height="41px" viewBox="0 0 412.0 41.0" xmlns="http://www.w3.org/2000/svg" xmlns:xlink="http://www.w3.org/1999/xlink"><defs><clipPath id="i0"><path d="M412,0 L412,42 L0,42 L0,0 L412,0 Z"></path></clipPath><clipPath id="i1"><path d="M16,0 L16,16 L0,16 L0,0 L16,0 Z"></path></clipPath><clipPath id="i2"><path d="M364,0 L364,8 L0,8 L0,0 L364,0 Z"></path></clipPath><clipPath id="i3"><path d="M24,0 L24,42 L0,42 L0,0 L24,0 Z"></path></clipPath><clipPath id="i4"><path d="M364,0 L364,4 L0,4 L0,0 L364,0 Z"></path></clipPath></defs><g clip-path="url(#i0)"><polygon points="0,0 412,0 412,42 0,42 0,0" stroke="none" fill="#FFFFFF"></polygon><g transform="translate(0.0 -1.0)"><polygon points="412,42 412,43 0,43 0,42 412,42 412,42" stroke="none" fill="#D2D2D2"></polygon></g></g><g transform="translate(16.0 9.0)"><g transform="translate(8.0 4.0)"><g clip-path="url(#i1)"><polygon points="0,0 16,0 16,16 0,16 0,0" stroke="none" fill="#FFFFFF"></polygon><polygon points="0,0 16,0 16,16 0,16 0,0 0,0" stroke="#696E73" stroke-width="2" fill="none" stroke-miterlimit="5"></polygon></g></g></g><g transform="translate(24.0 4.0)"><g clip-path="url(#i2)"><polygon points="0,0 364,0 364,8 0,8 0,0" stroke="none" fill="rgba(146, 211, 0, 0.9)"></polygon></g><g clip-path="url(#i2)"><polygon points="0,0 364,0 364,8 0,8 0,0 0,0" stroke="#7EB200" stroke-width="2" fill="none" stroke-miterlimit="5"></polygon></g></g><g transform=""><g clip-path="url(#i3)"><polygon points="0,0 24,0 24,42 0,42 0,0" stroke="none" fill="rgba(0, 121, 135, 0.9)"></polygon></g><g clip-path="url(#i3)"><polygon points="0,0 24,0 24,42 0,42 0,0 0,0" stroke="#09707A" stroke-width="2" fill="none" stroke-miterlimit="5"></polygon></g></g><g transform="translate(388.0 0.0)"><g clip-path="url(#i3)"><polygon points="0,0 24,0 24,42 0,42 0,0" stroke="none" fill="rgba(0, 121, 135, 0.9)"></polygon></g><g clip-path="url(#i3)"><polygon points="0,0 24,0 24,42 0,42 0,0 0,0" stroke="#09707A" stroke-width="2" fill="none" stroke-miterlimit="5"></polygon></g></g><g transform="translate(24.0 0.0)"><g clip-path="url(#i4)"><polygon points="0,0 364,0 364,4 0,4 0,0" stroke="none" fill="rgba(236, 121, 8, 0.9)"></polygon></g><g clip-path="url(#i4)"><polygon points="0,0 364,0 364,4 0,4 0,0 0,0" stroke="#C67000" stroke-width="2" fill="none" stroke-miterlimit="5"></polygon></g></g><g transform="translate(24.0 34.0)"><g clip-path="url(#i2)"><polygon points="0,0 364,0 364,8 0,8 0,0" stroke="none" fill="rgba(146, 211, 0, 0.9)"></polygon></g><g clip-path="url(#i2)"><polygon points="0,0 364,0 364,8 0,8 0,0 0,0" stroke="#7EB200" stroke-width="2" fill="none" stroke-miterlimit="5"></polygon></g></g></svg>