<?xml version="1.0" encoding="UTF-8"?><svg version="1.1" width="412px" height="41px" viewBox="0 0 412.0 41.0" xmlns="http://www.w3.org/2000/svg" xmlns:xlink="http://www.w3.org/1999/xlink"><defs><clipPath id="i0"><path d="M412,0 L412,42 L0,42 L0,0 L412,0 Z"></path></clipPath><clipPath id="i1"><path d="M16,0 L16,16 L0,16 L0,0 L16,0 Z"></path></clipPath><clipPath id="i2"><path d="M0.923421565,0.22032113 C1.21718307,-0.0734403767 1.69218804,-0.0734403767 1.98280625,0.22032113 L6.23279611,4.470311 C6.52967041,4.7640725 6.52967041,5.23904696 6.2359089,5.53280846 L1.98591903,9.78279833 C1.69218804,10.0765598 1.21718307,10.0765598 0.926564869,9.78279833 L0.220298242,9.07656222 C-0.0734327473,8.78280072 -0.0734327473,8.30779574 0.220298242,8.01717754 L3.23280327,5.00467252 L0.220298242,1.99219801 C-0.0734327473,1.6984365 -0.0734327473,1.22343153 0.220298242,0.932813328 Z"></path></clipPath><clipPath id="i3"><path d="M48,0 L48,42 L0,42 L0,0 L48,0 Z"></path></clipPath><clipPath id="i4"><path d="M341,0 L341,8 L0,8 L0,0 L341,0 Z"></path></clipPath><clipPath id="i5"><path d="M341,0 L341,4 L0,4 L0,0 L341,0 Z"></path></clipPath><clipPath id="i6"><path d="M24,0 L24,42 L0,42 L0,0 L24,0 Z"></path></clipPath></defs><g clip-path="url(#i0)"><polygon points="0,0 412,0 412,42 0,42 0,0" stroke="none" fill="#FFFFFF"></polygon><g transform="translate(0.0 -1.0)"><polygon points="412,42 412,43 0,43 0,42 412,42 412,42" stroke="none" fill="#D2D2D2"></polygon></g></g><g transform="translate(48.0 9.0)"><g transform="translate(8.0 4.0)"><g clip-path="url(#i1)"><polygon points="0,0 16,0 16,16 0,16 0,0" stroke="none" fill="#FFFFFF"></polygon><polygon points="0,0 16,0 16,16 0,16 0,0 0,0" stroke="#696E73" stroke-width="2" fill="none" stroke-miterlimit="5"></polygon></g></g></g><g transform="translate(24.0 9.0)"><g transform="translate(9.0 6.999999999999999)"><g clip-path="url(#i2)"><polygon points="-2.77555756e-17,-2.77555756e-17 6.45584247,-2.77555756e-17 6.45584247,10.0031195 -2.77555756e-17,10.0031195 -2.77555756e-17,-2.77555756e-17" stroke="none" fill="#696E73"></polygon></g></g></g><g clip-path="url(#i3)"><polygon points="0,0 48,0 48,42 0,42 0,0" stroke="none" fill="rgba(88, 46, 192, 0.9)"></polygon></g><g clip-path="url(#i3)"><polygon points="0,0 48,0 48,42 0,42 0,0 0,0" stroke="#5430A4" stroke-width="2" fill="none" stroke-miterlimit="5"></polygon></g><g transform="translate(48.0 4.000000000000057)"><g clip-path="url(#i4)"><polygon points="0,0 341,0 341,8 0,8 0,0" stroke="none" fill="rgba(146, 211, 0, 0.9)"></polygon></g><g clip-path="url(#i4)"><polygon points="0,0 341,0 341,8 0,8 0,0 0,0" stroke="#7EB200" stroke-width="2" fill="none" stroke-miterlimit="5"></polygon></g></g><g transform="translate(48.0 0.0)"><g clip-path="url(#i5)"><polygon points="0,0 341,0 341,4 0,4 0,0" stroke="none" fill="rgba(236, 121, 8, 0.9)"></polygon></g><g clip-path="url(#i5)"><polygon points="0,0 341,0 341,4 0,4 0,0 0,0" stroke="#C67000" stroke-width="2" fill="none" stroke-miterlimit="5"></polygon></g></g><g transform="translate(48.0 34.0)"><g clip-path="url(#i4)"><polygon points="0,0 341,0 341,8 0,8 0,0" stroke="none" fill="rgba(146, 211, 0, 0.9)"></polygon></g><g clip-path="url(#i4)"><polygon points="0,0 341,0 341,8 0,8 0,0 0,0" stroke="#7EB200" stroke-width="2" fill="none" stroke-miterlimit="5"></polygon></g></g><g transform="translate(389.0 0.0)"><g clip-path="url(#i6)"><polygon points="0,0 24,0 24,42 0,42 0,0" stroke="none" fill="rgba(0, 121, 135, 0.9)"></polygon></g><g clip-path="url(#i6)"><polygon points="0,0 24,0 24,42 0,42 0,0 0,0" stroke="#09707A" stroke-width="2" fill="none" stroke-miterlimit="5"></polygon></g></g></svg>