<svg xmlns="http://www.w3.org/2000/svg" xmlns:xlink="http://www.w3.org/1999/xlink" width="540" height="121" viewBox="0 0 540 121">
  <defs>
    <rect id="hover-b" width="540" height="121" x="0" y="0"/>
    <filter id="hover-a" width="102.6%" height="116.5%" x="-1.3%" y="-4.1%" filterUnits="objectBoundingBox">
      <feMorphology in="SourceAlpha" radius="3" result="shadowSpreadOuter1"/>
      <feOffset dy="8" in="shadowSpreadOuter1" result="shadowOffsetOuter1"/>
      <feGaussianBlur in="shadowOffsetOuter1" result="shadowBlurOuter1" stdDeviation="4"/>
      <feColorMatrix in="shadowBlurOuter1" values="0 0 0 0 0   0 0 0 0 0   0 0 0 0 0  0 0 0 0.18 0"/>
    </filter>
    <rect id="hover-d" width="540" height="121" x="0" y="0"/>
    <filter id="hover-c" width="102.6%" height="116.5%" x="-1.3%" y="-12.4%" filterUnits="objectBoundingBox">
      <feMorphology in="SourceAlpha" radius="3" result="shadowSpreadOuter1"/>
      <feOffset dy="-8" in="shadowSpreadOuter1" result="shadowOffsetOuter1"/>
      <feGaussianBlur in="shadowOffsetOuter1" result="shadowBlurOuter1" stdDeviation="4"/>
      <feColorMatrix in="shadowBlurOuter1" values="0 0 0 0 0   0 0 0 0 0   0 0 0 0 0  0 0 0 0.18 0"/>
    </filter>
  </defs>
  <g fill="none" fill-rule="evenodd">
    <use fill="#000" filter="url(#hover-a)" xlink:href="#hover-b"/>
    <use fill="#FFF" xlink:href="#hover-b"/>
    <use fill="#000" filter="url(#hover-c)" xlink:href="#hover-d"/>
    <use fill="#FFF" xlink:href="#hover-d"/>
    <rect width="3" height="121" fill="#009596"/>
    <path fill="#73C5C5" d="M17.9968777,16.999969 C18.5943494,16.999969 18.9968753,16.5124824 19,15.9999714 C19.0015445,15.7640406 18.9184148,15.5227997 18.7309152,15.3215367 C18.1271874,14.6727956 16.9974904,13.6968458 16.9974904,10.4999845 C16.9974904,8.07185919 15.2950103,6.12810772 12.999392,5.65124118 L12.999392,5 C12.999392,4.44781387 12.5518833,4 12,4 C11.4481262,4 11.0006175,4.44781387 11.0006175,5 L11.0006175,5.65124118 C8.70499918,6.12810772 7.0025191,8.07185919 7.0025191,10.4999845 C7.0025191,13.6968458 5.87282209,14.6727956 5.26909428,15.3215367 C5.08159473,15.5231049 4.99846504,15.7640406 5,15.9999714 C5.00346992,16.5124824 5.40566012,16.999969 6.00313184,16.999969 L17.9968777,16.999969 Z M12.0000047,19.9999666 C13.1037619,19.9999666 13.9990539,19.1046393 13.9990539,17.9999666 L10.0009556,17.9999666 C10.0009556,19.1046393 10.8962476,19.9999666 12.0000047,19.9999666 Z" transform="translate(16 16)"/>
    <g transform="translate(484 16)">
      <rect width="40" height="36" rx="3"/>
      <g transform="translate(8 6)">
        <path fill="#151515" d="M12.2499946,8.49998927 C13.4937356,8.49998927 14.4999893,7.49373557 14.4999893,6.24999464 C14.4999893,5.0062537 13.4937356,4 12.2499946,4 C11.0062537,4 10,5.0062537 10,6.24999464 C10,7.49373557 11.0062537,8.49998927 12.2499946,8.49998927 Z M12.2499946,13.9999762 C13.4937356,13.9999762 14.4999893,12.9937225 14.4999893,11.7499815 C14.4999893,10.5062406 13.4937356,9.49998689 12.2499946,9.49998689 C11.0062537,9.49998689 10,10.5062406 10,11.7499815 C10,12.9937225 11.0062537,13.9999762 12.2499946,13.9999762 Z M12.2499946,19.499963 C13.4937356,19.499963 14.4999893,18.4937093 14.4999893,17.2499684 C14.4999893,16.0062275 13.4937356,14.9999738 12.2499946,14.9999738 C11.0062537,14.9999738 10,16.0062275 10,17.2499684 C10,18.4937093 11.0062537,19.499963 12.2499946,19.499963 Z"/>
        <rect width="24" height="24" fill="#6A6E73"/>
      </g>
      <g fill-opacity=".9">
        <rect width="7" height="35" x=".5" y=".5" fill="#92D400" stroke="#7FB300"/>
        <rect width="7" height="35" x=".5" y=".5" fill="#92D400" stroke="#7FB300" transform="translate(32)"/>
        <rect width="23" height="5" x=".5" y=".5" fill="#F3D53C" stroke="#CBB534" transform="translate(8)"/>
        <rect width="23" height="5" x=".5" y=".5" fill="#F3D53C" stroke="#CBB534" transform="translate(8 30)"/>
      </g>
    </g>
    <text fill="#6A6E73" font-family="RedHatText-Regular, Red Hat Text" font-size="14">
      <tspan x="16" y="98">A few minutes ago</tspan>
    </text>
    <text fill="#151515" font-family="RedHatText-Regular, Red Hat Text" font-size="16">
      <tspan x="16" y="68">Content</tspan>
    </text>
    <text fill="#151515" font-family="RedHatDisplay-Medium, Red Hat Display" font-size="16" font-weight="400">
      <tspan x="48" y="32">Title</tspan>
    </text>
    <g fill-opacity=".9">
      <rect width="507" height="3" x=".5" y=".5" fill="#EC7A08" stroke="#C77000" transform="translate(16 48)"/>
      <rect width="15" height="120" x=".5" y=".5" fill="#3F9C35" stroke="#418A38"/>
      <rect width="15" height="120" x=".5" y=".5" fill="#3F9C35" stroke="#418A38" transform="translate(524)"/>
      <rect width="539" height="15" x=".5" y=".5" fill="#3F9C35" stroke="#418A38"/>
      <rect width="507" height="7" x=".5" y="1.5" fill="#92D400" stroke="#7FB300" transform="translate(16 75)"/>
      <rect width="7" height="31" x=".5" y=".5" fill="#92D400" stroke="#7FB300" transform="translate(40 16)"/>
      <rect width="539" height="15" x=".5" y=".5" fill="#3F9C35" stroke="#418A38" transform="translate(0 105)"/>
    </g>
  </g>
</svg>
