<?xml version="1.0" encoding="UTF-8"?><svg version="1.1" width="150px" height="18px" viewBox="0 0 150.0 18.0" xmlns="http://www.w3.org/2000/svg" xmlns:xlink="http://www.w3.org/1999/xlink"><defs><clipPath id="i0"><path d="M150,0 L150,18 L0,18 L0,0 L150,0 Z"></path></clipPath><clipPath id="i1"><path d="M1,0 L1,18 L0,18 L0,0 L1,0 Z"></path></clipPath><clipPath id="i2"><path d="M16,0 L16,40 L0,40 L0,0 L16,0 Z"></path></clipPath><clipPath id="i3"><path d="M118,0 L118,8 L0,8 L0,0 L118,0 Z"></path></clipPath><clipPath id="i4"><path d="M150,0 L150,16 L0,16 L0,0 L150,0 Z"></path></clipPath></defs><g clip-path="url(#i0)"><polygon points="0,0 150,0 150,18 0,18 0,0" stroke="none" fill="#FFFFFF"></polygon></g><g clip-path="url(#i1)"><polygon points="0,0 1,0 1,18 0,18 0,0" stroke="none" fill="#FFFFFF"></polygon><polygon points="0,0 1,0 1,18 0,18 0,0 0,0" stroke="#D2D2D2" stroke-width="2" fill="none" stroke-miterlimit="5"></polygon></g><g transform="translate(0.0 16.000000000000057)"><g clip-path="url(#i2)"><polygon points="0,0 16,0 16,40 0,40 0,0" stroke="none" fill="rgba(62, 156, 52, 0.9)"></polygon></g><g clip-path="url(#i2)"><polygon points="0,0 16,0 16,40 0,40 0,0 0,0" stroke="#418A37" stroke-width="2" fill="none" stroke-miterlimit="5"></polygon></g></g><g transform="translate(134.0 16.0)"><g clip-path="url(#i2)"><polygon points="0,0 16,0 16,40 0,40 0,0" stroke="none" fill="rgba(62, 156, 52, 0.9)"></polygon></g><g clip-path="url(#i2)"><polygon points="0,0 16,0 16,40 0,40 0,0 0,0" stroke="#418A37" stroke-width="2" fill="none" stroke-miterlimit="5"></polygon></g></g><g transform="translate(16.0 16.000000000000114)"><g transform=""><g clip-path="url(#i3)"><polygon points="0,0 118,0 118,8 0,8 0,0" stroke="none" fill="rgba(146, 211, 0, 0.9)"></polygon></g><g clip-path="url(#i3)"><polygon points="0,0 118,0 118,8 0,8 0,0 0,0" stroke="#7EB200" stroke-width="2" fill="none" stroke-miterlimit="5"></polygon></g></g></g><g clip-path="url(#i4)"><polygon points="0,0 150,0 150,16 0,16 0,0" stroke="none" fill="rgba(62, 156, 52, 0.9)"></polygon></g><g clip-path="url(#i4)"><polygon points="0,0 150,0 150,16 0,16 0,0 0,0" stroke="#418A37" stroke-width="2" fill="none" stroke-miterlimit="5"></polygon></g></svg>