<?xml version="1.0" encoding="UTF-8"?><svg version="1.1" width="66px" height="18px" viewBox="0 0 66.0 18.0" xmlns="http://www.w3.org/2000/svg" xmlns:xlink="http://www.w3.org/1999/xlink"><defs><clipPath id="i0"><path d="M57,0 C61.9705627,-9.13077564e-16 66,4.02943725 66,9 C66,13.9705627 61.9705627,18 57,18 L9,18 C4.02943725,18 6.08718376e-16,13.9705627 0,9 C-6.08718376e-16,4.02943725 4.02943725,9.13077564e-16 9,0 L57,0 Z"></path></clipPath><clipPath id="i1"><path d="M0.737117917,0.215863667 C1.02516502,-0.0719545556 1.4918082,-0.0719545556 1.77960353,0.215863667 L4.12499589,2.56125602 L6.47038824,0.215863667 C6.75843535,-0.0719545556 7.22505563,-0.0719545556 7.51287386,0.215863667 L8.03412811,0.737117917 C8.32194633,1.02516502 8.32194633,1.4918082 8.03412811,1.77960353 L5.68873575,4.12499589 L8.03412811,6.47038824 C8.32194633,6.75843535 8.32194633,7.22505563 8.03412811,7.51287386 L7.51287386,8.03412811 C7.22505563,8.32194633 6.75818358,8.32194633 6.47038824,8.03412811 L4.12499589,5.68873575 L1.77960353,8.03412811 C1.4918082,8.32194633 1.02493614,8.32194633 0.737117917,8.03412811 L0.215863667,7.51287386 C-0.0719545556,7.22482675 -0.0719545556,6.75818358 0.215863667,6.47038824 L2.56125602,4.12499589 L0.215863667,1.77960353 C-0.0719545556,1.49155643 -0.0719545556,1.02493614 0.215863667,0.737117917 Z"></path></clipPath><clipPath id="i2"><path d="M8,0 L8,18 L0,18 L0,0 L8,0 Z"></path></clipPath><clipPath id="i3"><path d="M4,0 L4,18 L0,18 L0,0 L4,0 Z"></path></clipPath></defs><g clip-path="url(#i0)"><polygon points="0,0 66,0 66,18 0,18 0,0" stroke="none" fill="#F3FAF2"></polygon></g><path d="M9,0 L57,0 C61.9705627,-9.13077564e-16 66,4.02943725 66,9 C66,13.9705627 61.9705627,18 57,18 L9,18 C4.02943725,18 6.08718376e-16,13.9705627 0,9 C-6.08718376e-16,4.02943725 4.02943725,9.13077564e-16 9,0 Z" stroke="#BDE5B8" stroke-width="1" fill="none" stroke-miterlimit="10"></path><g transform="translate(8.0 0.0)"><text transform="translate(0.0 12.0)" font-family="RedHatText-Regular, Red Hat Text" font-size="12.0" font-weight="normal" fill="#0E280C" text-anchor="left" line-spacing="18.0">Label</text></g><g transform="translate(42.0 -3.0)"><g transform="translate(8.0 8.0)"><g clip-path="url(#i1)"><polygon points="0,0 8.24999177,0 8.24999177,8.24999177 0,8.24999177 0,0" stroke="none" fill="#696E73"></polygon></g></g></g><g clip-path="url(#i2)"><polygon points="0,0 8,0 8,18 0,18 0,0" stroke="none" fill="rgba(146, 211, 0, 0.9)"></polygon></g><g clip-path="url(#i2)"><polygon points="0,0 8,0 8,18 0,18 0,0 0,0" stroke="#7EB200" stroke-width="2" fill="none" stroke-miterlimit="5"></polygon></g><g transform="translate(38.0 0.0)"><g clip-path="url(#i3)"><polygon points="0,0 4,0 4,18 0,18 0,0" stroke="none" fill="rgba(236, 121, 8, 0.9)"></polygon></g><g clip-path="url(#i3)"><polygon points="0,0 4,0 4,18 0,18 0,0 0,0" stroke="#C67000" stroke-width="2" fill="none" stroke-miterlimit="5"></polygon></g></g><g transform="translate(59.0 0.0)"><g clip-path="url(#i2)"><polygon points="0,0 8,0 8,18 0,18 0,0" stroke="none" fill="rgba(146, 211, 0, 0.9)"></polygon></g><g clip-path="url(#i2)"><polygon points="0,0 8,0 8,18 0,18 0,0 0,0" stroke="#7EB200" stroke-width="2" fill="none" stroke-miterlimit="5"></polygon></g></g><g transform="translate(9.0 14.49810149343091)"><path d="M0,0.5 L28,0.5" stroke="#8A8D90" stroke-width="1" fill="none" stroke-miterlimit="10" stroke-dasharray=" 4.0 2.0"></path></g></svg>