<svg xmlns="http://www.w3.org/2000/svg" width="48" height="48" viewBox="0 0 48 48">
  <path fill="#6A6E73" fill-rule="evenodd" d="M15.1874638,47.2498873 C17.982379,47.2498873 20.2499517,44.9823146 20.2499517,42.1873994 L20.2499517,5.06248793 C20.2499517,2.26757272 17.982379,0 15.1874638,0 L5.06248793,0 C2.26757272,0 0,2.26757272 0,5.06248793 L0,42.1873994 C0,44.9823146 2.26757272,47.2498873 5.06248793,47.2498873 L15.1874638,47.2498873 Z M42.1873994,47.2498873 C44.9823146,47.2498873 47.2498873,44.9823146 47.2498873,42.1873994 L47.2498873,5.06248793 C47.2498873,2.26757272 44.9823146,0 42.1873994,0 L32.0624236,0 C29.2675083,0 26.9999356,2.26757272 26.9999356,5.06248793 L26.9999356,42.1873994 C26.9999356,44.9823146 29.2675083,47.2498873 32.0624236,47.2498873 L42.1873994,47.2498873 Z"/>
</svg>
