<svg xmlns="http://www.w3.org/2000/svg" width="54" height="55" viewBox="0 0 54 55">
  <path fill="#6A6E73" fill-rule="evenodd" d="M38.8124075,54.9998713 C41.6073227,54.9998713 43.8748954,52.7322985 43.8748954,49.9373833 L43.8748954,44.8748954 L48.9373833,44.8748954 C51.7322985,44.8748954 53.9998713,42.6073227 53.9998713,39.8124075 L53.9998713,6.06248793 C53.9998713,3.26757272 51.7322985,1 48.9373833,1 L15.1874638,1 C12.3925486,1 10.1249759,3.26757272 10.1249759,6.06248793 L10.1249759,11.1249759 L5.06248793,11.1249759 C2.26757272,11.1249759 0,13.3925486 0,16.1874638 L0,49.9373833 C0,52.7322985 2.26757272,54.9998713 5.06248793,54.9998713 L38.8124075,54.9998713 Z M48.9373833,39.8124075 L43.8748954,39.8124075 L43.8748954,16.1874638 C43.8748954,13.3925486 41.6073227,11.1249759 38.8124075,11.1249759 L15.1874638,11.1249759 L15.1874638,6.06248793 L48.9373833,6.06248793 L48.9373833,39.8124075 Z M38.8124075,49.9373833 L5.06248793,49.9373833 L5.06248793,27.9999356 L38.8124075,27.9999356 L38.8124075,49.9373833 Z"/>
</svg>
