<?xml version="1.0" encoding="UTF-8"?>
<svg width="24px" height="24px" viewBox="0 0 24 24" version="1.1" xmlns="http://www.w3.org/2000/svg" xmlns:xlink="http://www.w3.org/1999/xlink">
    <title></title>
    <g id="Icons" stroke="none" stroke-width="1" fill="none" fill-rule="evenodd">
        <g id="Icons/3.-Size-lg-(24px)/Status/exclamation-triangle" fill="#F0AB00">
            <path d="M23.7471762,23.999943 C25.4752299,23.999943 26.5612716,22.1252679 25.6960546,20.6255462 L14.4489195,1.12431091 C13.5848011,-0.373396701 11.4167002,-0.376143276 10.5510711,1.12431091 L-0.696384337,20.6255462 C-1.55990767,22.122384 -0.478855559,23.999943 1.25253985,23.999943 L23.7471762,23.999943 Z M13.63781,15.7499627 L11.3621807,15.7499627 C11.0634448,15.7499627 10.8168023,15.5164122 10.8005518,15.2181341 L10.4528353,8.84314932 C10.4352572,8.52093024 10.6917416,8.24998057 11.0144184,8.24998057 L13.9855265,8.24998057 C14.3082033,8.24998057 14.5647335,8.52093024 14.5471554,8.84314932 L14.1994389,15.2181341 C14.1831883,15.5164122 13.9365459,15.7499627 13.63781,15.7499627 Z M12.4999953,20.9062004 C11.309126,20.9062004 10.3437505,19.9408249 10.3437505,18.7499555 C10.3437505,17.5590862 11.309126,16.5937107 12.4999953,16.5937107 C13.6908647,16.5937107 14.6562402,17.5590862 14.6562402,18.7499555 C14.6562402,19.9408249 13.6908647,20.9062004 12.4999953,20.9062004 Z" id="exclamation-triangle"></path>
        </g>
    </g>
</svg>