<?xml version="1.0" encoding="UTF-8"?>
<svg width="24px" height="24px" viewBox="0 0 24 24" version="1.1" xmlns="http://www.w3.org/2000/svg" xmlns:xlink="http://www.w3.org/1999/xlink">
    <title></title>
    <g id="Icons" stroke="none" stroke-width="1" fill="none" fill-rule="evenodd">
        <g id="Icons/3.-Size-lg-(24px)/Status/history" fill="#151515">
            <path d="M11.6333951,23.2499018 C18.0384091,23.2454127 23.2618006,18.0079679 23.2499647,11.6029997 C23.2380885,5.19281294 18.0379056,0 11.6249723,0 C8.51021836,0 5.6816576,1.22510999 3.59462644,3.21958156 L1.28036194,0.905317055 C0.807859402,0.432860296 0,0.767484742 0,1.435635 L0,8.24998033 C0,8.66420969 0.335768853,8.99997854 0.749998212,8.99997854 L7.56434354,8.99997854 C8.2324938,8.99997854 8.56711825,8.19211914 8.09461571,7.7196166 L5.71553203,5.34053292 C7.25860391,3.88915088 9.33680025,3 11.6249723,3 C16.391654,3 20.2499517,6.85755811 20.2499517,11.6249723 C20.2499517,16.391654 16.3923865,20.2499517 11.6249723,20.2499517 C9.59909821,20.2499517 7.73724046,19.5531455 6.26608308,18.3857594 C5.81898637,18.0310392 5.17473131,18.0752133 4.7712136,18.478731 L4.24304713,19.0068974 C3.77123124,19.4787133 3.81004951,20.2569097 4.3292896,20.6759456 C6.32609576,22.2875445 8.86709007,23.2518672 11.6333951,23.2499018 Z M14.7697097,15.2959993 L15.230173,14.7039292 C15.6116266,14.2134823 15.5232784,13.5066511 15.0328316,13.1252434 L13.1249759,11.6413144 L13.1249759,6.74998391 C13.1249759,6.12866276 12.6212925,5.62498659 11.9999714,5.62498659 L11.2499732,5.62498659 C10.628652,5.62498659 10.1249759,6.12866276 10.1249759,6.74998391 L10.1249759,13.1086266 L13.1910238,15.4933407 C13.6814707,15.8747485 14.3882561,15.7864461 14.7697097,15.2959993 Z" id="history"></path>
        </g>
    </g>
</svg>