<?xml version="1.0" encoding="UTF-8"?>
<svg width="24px" height="24px" viewBox="0 0 24 24" version="1.1" xmlns="http://www.w3.org/2000/svg" xmlns:xlink="http://www.w3.org/1999/xlink">
    <title></title>
    <g id="Icons" stroke="none" stroke-width="1" fill="none" fill-rule="evenodd">
        <g id="Icons/3.-Size-lg-(24px)/Status/info-circle" fill="#2B9AF3">
            <path d="M11.6249723,23.2499446 C18.0448178,23.2499446 23.2499446,18.0466946 23.2499446,11.6249723 C23.2499446,5.20700358 18.0448178,0 11.6249723,0 C5.20512675,0 0,5.20700358 0,11.6249723 C0,18.0466946 5.20512675,23.2499446 11.6249723,23.2499446 Z M11.6249723,9.09372832 C10.5376488,9.09372832 9.65622698,8.21230647 9.65622698,7.12498301 C9.65622698,6.03765956 10.5376488,5.15623771 11.6249723,5.15623771 C12.7122957,5.15623771 13.5937176,6.03765956 13.5937176,7.12498301 C13.5937176,8.21230647 12.7122957,9.09372832 11.6249723,9.09372832 Z M13.6874674,17.624958 L9.5624772,17.624958 C9.25183951,17.624958 8.99997854,17.373097 8.99997854,17.0624593 L8.99997854,15.937462 C8.99997854,15.6268243 9.25183951,15.3749633 9.5624772,15.3749633 L10.1249759,15.3749633 L10.1249759,12.3749705 L9.5624772,12.3749705 C9.25183951,12.3749705 8.99997854,12.1231095 8.99997854,11.8124718 L8.99997854,10.6874745 C8.99997854,10.3768368 9.25183951,10.1249759 9.5624772,10.1249759 L12.56247,10.1249759 C12.8731077,10.1249759 13.1249687,10.3768368 13.1249687,10.6874745 L13.1249687,15.3749633 L13.6874674,15.3749633 C13.9981051,15.3749633 14.249966,15.6268243 14.249966,15.937462 L14.249966,17.0624593 C14.249966,17.373097 13.9981051,17.624958 13.6874674,17.624958 Z" id="info-circle"></path>
        </g>
    </g>
</svg>