<?xml version="1.0" encoding="UTF-8"?>
<svg width="24px" height="24px" viewBox="0 0 24 24" version="1.1" xmlns="http://www.w3.org/2000/svg" xmlns:xlink="http://www.w3.org/1999/xlink">
    <title></title>
    <g id="Icons" stroke="none" stroke-width="1" fill="none" fill-rule="evenodd">
        <g id="Icons/3.-Size-lg-(24px)/Status/pause-circle" fill="#151515">
            <path d="M11.6249723,23.2499446 C18.046832,23.2499446 23.2499446,18.046832 23.2499446,11.6249723 C23.2499446,5.20311259 18.046832,0 11.6249723,0 C5.20311259,0 0,5.20311259 0,11.6249723 C0,18.046832 5.20311259,23.2499446 11.6249723,23.2499446 Z M10.124983,16.1249616 L7.87498122,16.1249616 C7.46249136,16.1249616 7.12498301,15.7874532 7.12498301,15.3749633 L7.12498301,7.87498122 C7.12498301,7.46249136 7.46249136,7.12498301 7.87498122,7.12498301 L10.124983,7.12498301 C10.5374657,7.12498301 10.8749741,7.46249136 10.8749741,7.87498122 L10.8749741,15.3749633 C10.8749741,15.7874532 10.5374657,16.1249616 10.124983,16.1249616 Z M15.3749705,16.1249616 L13.1249687,16.1249616 C12.7124788,16.1249616 12.3749705,15.7874532 12.3749705,15.3749633 L12.3749705,7.87498122 C12.3749705,7.46249136 12.7124788,7.12498301 13.1249687,7.12498301 L15.3749705,7.12498301 C15.7874532,7.12498301 16.1249616,7.46249136 16.1249616,7.87498122 L16.1249616,15.3749633 C16.1249616,15.7874532 15.7874532,16.1249616 15.3749705,16.1249616 Z" id="pause-circle"></path>
        </g>
    </g>
</svg>