<?xml version="1.0" encoding="UTF-8"?>
<svg width="24px" height="24px" viewBox="0 0 24 24" version="1.1" xmlns="http://www.w3.org/2000/svg" xmlns:xlink="http://www.w3.org/1999/xlink">
    <title></title>
    <g id="Icons" stroke="none" stroke-width="1" fill="none" fill-rule="evenodd">
        <g id="Icons/3.-Size-lg-(24px)/Status/pficon-disconnected" fill="#151515">
            <path d="M2.50391468,11.9745522 C2.50442711,10.6059511 2.80561468,9.2541745 3.38617875,8.01481393 L1.52818745,6.150717 C1.50235592,6.20003174 1.47441091,6.24699815 1.44857938,6.29631288 C-0.92255798,10.6411028 -0.343978638,16.0018806 2.89960671,19.7406834 C3.13831604,20.0130234 3.48265833,20.169496 3.84480577,20.1702372 C4.14763916,20.1720562 4.4404359,20.0617137 4.66671799,19.8604477 C5.19086316,19.4051084 5.24229138,18.6069142 4.78413402,18.0811252 C3.31386747,16.3863839 2.50424845,14.2181724 2.50391468,11.9745522 Z M6.99719139,11.9945129 C6.99719139,11.8815587 7.00188804,11.7733011 7.008933,11.6676267 L5.22961045,9.88454682 C4.5778872,11.9646101 4.92817524,14.2293376 6.17786232,16.0153075 C6.37375766,16.2945366 6.69367299,16.4604998 7.03476452,16.4598958 C7.24968579,16.4613714 7.45971024,16.3956874 7.63546494,16.271979 C8.10743773,15.9376413 8.21982833,15.2844104 7.88673525,14.8115584 C7.30549577,13.9870422 6.99466594,13.0023649 6.99719139,11.9935736 L6.99719139,11.9945129 Z M21.1918503,19.6281988 C24.9686404,15.1744106 24.9318427,8.63142422 21.1051973,4.22039744 C20.8874937,3.96827995 20.5781052,3.81356364 20.2457917,3.7906333 C19.9134782,3.76770296 19.5857716,3.87845835 19.3355029,4.09828477 C18.8101835,4.55385897 18.7587553,5.35228799 19.213625,5.87807698 C22.1710506,9.29042795 22.2520416,14.3334542 19.4057177,17.8390133 L17.6829896,16.1132325 C17.7120766,16.0816651 17.7386911,16.0479062 17.7625977,16.0122547 C18.5950543,14.8357372 19.0399636,13.4289371 19.0353875,11.9877028 C19.0353875,10.5249339 18.5924942,9.12556959 17.7461595,7.94201599 C17.5861235,7.71580668 17.3425912,7.56264228 17.0693854,7.51637357 C16.7961797,7.47010487 16.5157956,7.53454147 16.2902007,7.69544232 C15.8188927,8.02890385 15.7134531,8.68173699 16.0440967,9.15374944 C17.1971531,10.7779974 17.2528418,12.9384403 16.1849959,14.6199354 L14.4197633,12.8565814 C14.5231325,12.5753473 14.5755371,12.2779373 14.5745176,11.9783095 C14.5750375,10.556145 13.4233909,9.40239651 12.0012278,9.40032311 C11.7020439,9.39937049 11.4050944,9.45185757 11.1243649,9.55531227 L1.91730418,0.320306522 C1.48801648,-0.107684232 0.793054989,-0.106632853 0.365064236,0.322654843 C-0.0629265181,0.751942538 -0.0618751393,1.44690403 0.367412557,1.87489479 L2.80567388,4.31902691 L4.59180656,6.10375059 L7.80078672,9.31813188 L9.57752611,11.0979241 L12.8689323,14.3944966 L22.0849167,23.6292675 C22.5141395,24.0577771 23.209469,24.0571989 23.6379786,23.6279759 C24.0664881,23.1987531 24.0659098,22.5034236 23.636687,22.0749141 L21.1918503,19.6281988 Z" id="pficon-disconnected"></path>
        </g>
    </g>
</svg>