<?xml version="1.0" encoding="UTF-8"?>
<svg width="24px" height="24px" viewBox="0 0 24 24" version="1.1" xmlns="http://www.w3.org/2000/svg" xmlns:xlink="http://www.w3.org/1999/xlink">
    <title></title>
    <g id="Icons" stroke="none" stroke-width="1" fill="none" fill-rule="evenodd">
        <g id="Icons/3.-Size-lg-(24px)/Status/pficon-migration" fill="#151515">
            <path d="M16.4554687,14.3484375 L6.2953125,4.19296875 C5.7124819,3.61695666 4.77389316,3.6197179 4.19446179,4.19914929 C3.6150304,4.77858066 3.61226916,5.7171694 4.18828125,6.3 L14.3460937,16.4601562 L12.1804687,18.61875 C11.8546875,18.9421875 12.084375,19.5 12.54375,19.5 L18.7359375,19.5 C19.157864,19.5 19.5,19.157864 19.5,18.7359375 L19.5,12.5414062 C19.5,12.0820312 18.9445312,11.8523437 18.61875,12.178125 L16.4554687,14.3484375 Z M22.5,9 L13.7085937,9 C13.6326821,9.00032098 13.564356,9.0461063 13.5351952,9.11619438 C13.5060345,9.18628245 13.5217192,9.26702116 13.575,9.32109375 L14.7,10.4460937 C14.7354734,10.4812917 14.7836264,10.5007218 14.8335937,10.5 L22.5,10.5 L22.5,22.5 L10.5,22.5 L10.5,14.8335937 C10.5002812,14.7837096 10.4809167,14.7357193 10.4460937,14.7 L9.32109375,13.575 C9.26743948,13.5205086 9.18606881,13.5040619 9.11546323,13.533438 C9.04485766,13.562814 8.99916736,13.6321254 8.9999779,13.7085937 L8.9999779,22.5 C9.00077527,23.3281058 9.6718942,23.9992247 10.5,24 L22.5,24 C23.3281058,23.9992247 23.9992247,23.3281058 24,22.5 L24,10.5 C23.9992247,9.6718942 23.3281058,9.00077527 22.5,9 L22.5,9 Z M13.5,7.3125 L13.5,4.6875 C13.5,4.58394661 13.4160534,4.5 13.3125,4.5 L12.1875,4.5 C12.0839466,4.5 12,4.58394661 12,4.6875 L12,7.3125 C12,7.41605339 12.0839466,7.5 12.1875,7.5 L13.3125,7.5 C13.4160534,7.5 13.5,7.41605339 13.5,7.3125 Z M13.5,2.8125 L13.5,1.5 C13.4992247,0.67189421 12.8281058,0.00077525948 12,0 L10.6875,0 C10.5839466,0 10.5,0.0839466094 10.5,0.1875 L10.5,1.3125 C10.5,1.41605339 10.5839466,1.5 10.6875,1.5 L12,1.5 L12,2.8125 C12,2.91605339 12.0839466,3 12.1875,3 L13.3125,3 C13.4160534,3 13.5,2.91605339 13.5,2.8125 Z M9,1.3125 L9,0.1875 C9,0.0839466094 8.91605339,0 8.8125,0 L4.6875,0 C4.58394661,0 4.5,0.0839466094 4.5,0.1875 L4.5,1.3125 C4.5,1.41605339 4.58394661,1.5 4.6875,1.5 L8.8125,1.5 C8.91605339,1.5 9,1.41605339 9,1.3125 Z M1.5,2.8125 L1.5,1.5 L2.8125,1.5 C2.91605339,1.5 3,1.41605339 3,1.3125 L3,0.1875 C3,0.0839466094 2.91605339,0 2.8125,0 L1.5,0 C0.67189421,0.00077525948 0.00077525948,0.67189421 0,1.5 L0,2.8125 C0,2.91605339 0.0839466094,3 0.1875,3 L1.3125,3 C1.41605339,3 1.5,2.91605339 1.5,2.8125 Z M1.5,8.8125 L1.5,4.6875 C1.5,4.58394661 1.41605339,4.5 1.3125,4.5 L0.1875,4.5 C0.0839466094,4.5 0,4.58394661 0,4.6875 L0,8.8125 C0,8.91605339 0.0839466094,9 0.1875,9 L1.3125,9 C1.41605339,9 1.5,8.91605339 1.5,8.8125 Z M3,13.3125 L3,12.1875 C3,12.0839466 2.91605339,12 2.8125,12 L1.5,12 L1.5,10.6875 C1.5,10.5839466 1.41605339,10.5 1.3125,10.5 L0.1875,10.5 C0.0839466094,10.5 0,10.5839466 0,10.6875 L0,12 C0.00077525948,12.8281058 0.67189421,13.4992247 1.5,13.5 L2.8125,13.5 C2.91605339,13.5 3,13.4160534 3,13.3125 Z M7.3125,13.5 L4.6875,13.5 C4.58394661,13.5 4.5,13.4160534 4.5,13.3125 L4.5,12.1875 C4.5,12.0839466 4.58394661,12 4.6875,12 L7.3125,12 C7.41605339,12 7.5,12.0839466 7.5,12.1875 L7.5,13.3125 C7.5,13.4160534 7.41605339,13.5 7.3125,13.5 Z" id="pficon-migration"></path>
        </g>
    </g>
</svg>