<?xml version="1.0" encoding="UTF-8"?>
<svg width="24px" height="24px" viewBox="0 0 24 24" version="1.1" xmlns="http://www.w3.org/2000/svg" xmlns:xlink="http://www.w3.org/1999/xlink">
    <title></title>
    <g id="Icons" stroke="none" stroke-width="1" fill="none" fill-rule="evenodd">
        <g id="Icons/3.-Size-lg-(24px)/Status/pficon-trend-up" fill="#151515">
            <path d="M24,3.8 C24,3.3575 23.6425,3 23.2,3 L12,3 C11.5575,3 11.2,3.3575 11.2,3.8 L11.2,5.4 C11.2,5.8425 11.5575,6.2 12,6.2 L18.5375,6.2 L11.2575,13.555 L8.5925,10.88 C8.28,10.5675 7.7725,10.565 7.46,10.88 L0.235,18.105 C0.0775,18.26 0,18.465 0,18.6675 C0,18.8725 0.0775,19.0775 0.235,19.2325 L1.3675,20.365 C1.5225,20.52 1.7275,20.6 1.9325,20.6 C2.1375,20.6 2.3425,20.5225 2.4975,20.365 L8.0225,14.84 L10.6875,17.515 C11,17.8275 11.5075,17.83 11.82,17.515 L20.8,8.4625 L20.775,15 C20.775,15.4425 21.1075,15.8 21.55,15.8 L23.15,15.8 C23.5925,15.8 24,15.4425 24,15 L24,3.8 Z" id="pficon-trend-up"></path>
        </g>
    </g>
</svg>