<?xml version="1.0" encoding="UTF-8"?>
<svg width="24px" height="24px" viewBox="0 0 24 24" version="1.1" xmlns="http://www.w3.org/2000/svg" xmlns:xlink="http://www.w3.org/1999/xlink">
    <title></title>
    <g id="Icons" stroke="none" stroke-width="1" fill="none" fill-rule="evenodd">
        <g id="Icons/3.-Size-lg-(24px)/Status/pficon-degraded" fill="#151515">
            <path d="M15.7429688,0 C16.4953125,0 17.2171875,0.02578125 17.9039062,0.09375 C18.590625,0.16171875 19.2492187,0.2484375 19.8796875,0.37734375 C20.4508763,0.492481343 21.0156995,0.63720753 21.571875,0.8109375 C22.0757812,0.98203125 22.5140625,1.16484375 22.8867188,1.378125 C23.2476562,1.59140625 23.5289062,1.81640625 23.709375,2.0484375 C23.8898437,2.28046875 24,2.5171875 24,2.75390625 L24,6.2203125 C24,6.4734375 23.9109375,6.71015625 23.7304688,6.946875 C23.55,7.17890625 23.26875,7.40390625 22.9078125,7.6171875 C22.4844749,7.83870084 22.0430349,8.02374497 21.5882813,8.1703125 C21.0336761,8.35260724 20.4685894,8.50131429 19.8960937,8.615625 C19.2397829,8.74158837 18.5770747,8.83156648 17.9109375,8.88515625 C17.8078125,8.89453125 17.7046875,8.9015625 17.5992187,8.90859375 C17.5408309,8.81128479 17.4758345,8.71809717 17.4046875,8.6296875 C17.109375,8.24765625 16.7015625,7.9078125 16.1625,7.5890625 L16.14375,7.5796875 C15.7101562,7.32890625 15.1921875,7.10625 14.5640625,6.89296875 L14.5359375,6.88359375 C13.9290997,6.69329637 13.3126117,6.53526267 12.6890625,6.41015625 C12.0703125,6.28359375 11.3929688,6.18515625 10.5609375,6.103125 C9.8578125,6.0328125 9.10078125,6 8.24765625,6 C7.99453125,6 7.7484375,6.00234375 7.50703125,6.009375 C7.50100345,6.00538207 7.49549285,6.00065869 7.490625,5.9953125 L7.490625,2.75625 C7.490625,2.51953125 7.58671875,2.2828125 7.77421875,2.05078125 C7.95703125,1.81875 8.23828125,1.59140625 8.60625,1.38046875 C8.9671875,1.16953125 9.403125,0.97734375 9.9046875,0.81328125 C10.4596104,0.635174684 11.0246798,0.490385416 11.596875,0.3796875 C12.2320312,0.25546875 12.9023438,0.16171875 13.59375,0.09609375 C14.2851562,0.03046875 15,0 15.7429688,0 M24,8.83125 L24,13.7507812 C24,14.0039062 23.9109375,14.240625 23.7304687,14.4773437 C23.55,14.709375 23.26875,14.934375 22.9078125,15.1476562 C22.4844749,15.3691696 22.0430349,15.5542137 21.5882812,15.7007812 C21.0336761,15.883076 20.4685894,16.031783 19.8960937,16.1460937 C19.2689707,16.2659815 18.6361067,16.3535968 18,16.4085937 L17.9929687,11.1585937 C18.6314217,11.1037538 19.2666345,11.0161383 19.8960937,10.8960937 C20.521875,10.7671875 21.1476562,10.603125 21.5882812,10.4507812 C22.0289062,10.2984375 22.5351562,10.0945312 22.9054687,9.89765625 C23.2664062,9.684375 23.5476562,9.459375 23.728125,9.22734375 C23.8229766,9.10707298 23.8966837,8.97154713 23.9460937,8.8265625 C23.953125,8.80078125 23.9976562,8.8078125 24,8.83125 M5.4421875,12.2014725 C5.40669349,12.2010739 5.37151388,12.2082698 5.3390625,12.2226563 C5.31375,12.234375 5.28984375,12.2477344 5.26640625,12.2613281 L5.25234375,12.2695313 L5.2359375,12.2789063 L4.0171875,13.5070313 C3.98508007,13.5293007 3.95989877,13.5601681 3.94453125,13.5960938 C3.92921946,13.6340243 3.92203352,13.6747446 3.9234375,13.715625 C3.92294892,13.751119 3.93014475,13.7862986 3.94453125,13.81875 C3.95993123,13.850545 3.97956244,13.88011 4.00289063,13.9066406 L4.01015625,13.9148438 L4.0171875,13.921875 L6.61875,16.509375 L3.96328125,19.1601562 C3.93117382,19.1824257 3.90599252,19.2132931 3.890625,19.2492188 C3.87531321,19.2871493 3.86812727,19.3278696 3.86953125,19.36875 C3.86904267,19.404244 3.8762385,19.4394236 3.890625,19.471875 C3.90602498,19.50367 3.92565619,19.533235 3.94898438,19.5597656 L3.95625,19.5679688 L3.96328125,19.575 L5.18203125,20.7984375 C5.21144484,20.8290268 5.24645215,20.853691 5.28515625,20.8710938 C5.32308677,20.8864055 5.36380713,20.8935915 5.4046875,20.8921875 C5.44018151,20.8926761 5.47536113,20.8854803 5.5078125,20.8710938 C5.53939254,20.8591599 5.56699805,20.8386182 5.5875,20.8117969 L5.5921875,20.8054688 L5.596875,20.7984375 L8.25234375,18.159375 L10.9054688,20.7890625 C10.9277382,20.8211699 10.9586056,20.8463512 10.9945313,20.8617188 C11.0268443,20.8765332 11.0621214,20.883749 11.0976562,20.8828125 C11.1385509,20.8844237 11.1793145,20.8772302 11.2171875,20.8617188 C11.2489825,20.8463188 11.2785475,20.8266876 11.3050781,20.8033594 L11.3132812,20.7960938 L11.3203125,20.7890625 L12.5390625,19.5773438 C12.5696518,19.5479302 12.594316,19.5129229 12.6117187,19.4742188 C12.6271139,19.4446128 12.634392,19.4114571 12.6328125,19.378125 C12.6344237,19.3372303 12.6272302,19.2964668 12.6117187,19.2585938 C12.5997849,19.2270137 12.5792432,19.1994082 12.5524219,19.1789063 L12.5460937,19.1742188 L12.5390625,19.1695313 L9.8859375,16.51875 L12.4875,13.9382813 C12.5180893,13.9088677 12.5427535,13.8738604 12.5601562,13.8351563 C12.5749707,13.8028432 12.5821865,13.7675661 12.58125,13.7320313 C12.5828612,13.6911366 12.5756677,13.650373 12.5601562,13.6125 C12.5482224,13.58092 12.5276807,13.5533145 12.5008594,13.5328125 L12.4945312,13.528125 L12.4875,13.5234375 L11.2828125,12.290625 C11.2500173,12.2691135 11.2155289,12.2503016 11.1796875,12.234375 C11.141757,12.2190632 11.1010366,12.2118773 11.0601562,12.2132813 C11.0251374,12.2133555 10.9903443,12.2188907 10.9570312,12.2296875 C10.925173,12.2367258 10.8967534,12.2546227 10.8766406,12.2803125 L10.8726563,12.2859375 L10.8679687,12.290625 L8.2640625,14.8898438 L5.65078125,12.2789063 C5.62716818,12.2508941 5.59638237,12.2298301 5.56171875,12.2179688 C5.5229388,12.2064641 5.48263305,12.200932 5.4421875,12.2014725 M8.24765625,7.5 C8.99765625,7.5 9.72421875,7.52578125 10.4102344,7.59375 C11.09625,7.66171875 11.7553125,7.7484375 12.3855469,7.87734375 C12.9565826,7.99247573 13.5212501,8.13720211 14.0772656,8.3109375 C14.5809375,8.48203125 15.0192187,8.66484375 15.3916406,8.878125 C15.7525781,9.09140625 16.0338281,9.31640625 16.2140625,9.5484375 C16.3889062,9.7715625 16.4939062,9.999375 16.4997656,10.228125 L16.4997656,13.6195313 C16.4763281,13.8257812 16.3778906,14.0203125 16.2278906,14.2171875 C16.0476562,14.4492188 15.7664062,14.6742188 15.4054687,14.8875 C14.9821442,15.1090412 14.5407018,15.2940863 14.0859375,15.440625 C13.9263281,15.4952344 13.7564062,15.5479687 13.5782812,15.5985937 L13.5400781,15.609375 L13.4978906,15.61875 L13.4978906,17.915625 C13.7015625,17.859375 13.8984375,17.7984375 14.0859375,17.7351563 C14.5403817,17.5881611 14.9816304,17.4031314 15.405,17.1820313 C15.7659375,16.96875 16.0471875,16.74375 16.2274219,16.5117188 C16.3222735,16.391448 16.3959806,16.2559221 16.4453906,16.1109375 C16.4521875,16.0875 16.4936719,16.0919531 16.4988281,16.1130469 L16.4988281,16.115625 L16.4988281,21.2507813 C16.4988281,21.5039062 16.4097656,21.740625 16.2292969,21.9773438 C16.0490625,22.209375 15.7678125,22.434375 15.406875,22.6476562 C14.9837012,22.8691729 14.5424165,23.0542177 14.0878125,23.2007812 C13.5333675,23.3830802 12.9684365,23.5317874 12.3960937,23.6460937 C11.7399431,23.7720729 11.07739,23.8620513 10.4114062,23.915625 C9.72960937,23.9742187 9.0103125,24 8.25515625,24 C7.51242187,24 6.80015625,23.971875 6.10898437,23.915625 C5.44253587,23.8689199 4.7796724,23.7804652 4.12429687,23.6507813 C3.489375,23.5265625 2.91304687,23.38125 2.41148438,23.2054688 C1.91320312,23.0390625 1.48117188,22.8546875 1.11539063,22.6523438 C0.752109375,22.4390625 0.477890625,22.2140625 0.2859375,21.9820312 C0.1040625,21.7589062 0.008203125,21.5266406 0.002578125,21.283125 L0.002578125,16.1203125 C0.004921875,16.096875 0.044765625,16.0921875 0.054140625,16.115625 C0.288515625,16.6933594 1.025625,17.34 2.8978125,17.8760156 L2.95476562,17.8921875 L2.99695312,17.9039062 L2.99695312,15.6304688 C2.79328125,15.5742188 2.59640625,15.5132812 2.41101563,15.4476563 C1.91210937,15.28125 1.47945312,15.096875 1.11304687,14.8945312 C0.749765625,14.68125 0.475546875,14.45625 0.28359375,14.2242187 C0.10171875,14.0010937 0.005859375,13.7688281 0,13.5253125 L0,10.25625 C0,10.0195312 0.09609375,9.7828125 0.28359375,9.55078125 C0.466171875,9.31875 0.747421875,9.09140625 1.11539063,8.88046875 C1.47609375,8.66953125 1.91226562,8.47734375 2.41335937,8.31328125 C2.96813081,8.13520024 3.53304277,7.99041122 4.10507812,7.8796875 C4.74,7.75546875 5.41007813,7.66171875 6.10148437,7.59609375 C6.79289062,7.53046875 7.50492187,7.5 8.24765625,7.5" id="pficon-degraded"></path>
        </g>
    </g>
</svg>