<?xml version="1.0" encoding="UTF-8"?>
<svg width="24px" height="24px" viewBox="0 0 24 24" version="1.1" xmlns="http://www.w3.org/2000/svg" xmlns:xlink="http://www.w3.org/1999/xlink">
    <title></title>
    <g id="Icons" stroke="none" stroke-width="1" fill="none" fill-rule="evenodd">
        <g id="Icons/3.-Size-lg-(24px)/Status/pficon-resources-almost-full" fill="#151515">
            <path d="M12.0023438,0 C5.38359375,0 0,5.3859375 0,12 C0,18.6164062 5.3859375,24 12.0023438,24 C18.61875,24 24,18.6164062 24,12 C24,5.38359375 18.61875,0 12.0023438,0 Z M12,21 C7.0359375,21 3,16.9664062 3,12 C3,7.03828125 7.0359375,3 12,3 C16.9617188,3 21,7.0359375 21,12 C21,16.9640625 16.9617188,21 12,21 Z M18.046875,9 L5.95078125,9 C5.50078125,9.9046875 5.25,10.921875 5.25,12 C5.25,15.7289063 8.27109375,18.75 12,18.75 C15.7289062,18.75 18.75,15.7289063 18.75,12 C18.75,10.921875 18.496875,9.9046875 18.046875,9" id="pficon-resources-almost-full"></path>
        </g>
    </g>
</svg>