<?xml version="1.0" encoding="UTF-8"?>
<svg width="24px" height="24px" viewBox="0 0 24 24" version="1.1" xmlns="http://www.w3.org/2000/svg" xmlns:xlink="http://www.w3.org/1999/xlink">
    <title></title>
    <g id="Icons" stroke="none" stroke-width="1" fill="none" fill-rule="evenodd">
        <g id="Icons/3.-Size-lg-(24px)/Status/wrench" fill="#151515">
            <path d="M5.12073822,23.1214198 L15.1149313,13.1272267 C17.4643062,13.9105043 20.1525627,13.3935072 22.0228891,11.5231809 C23.7605101,9.78551413 24.3525344,7.33630122 23.7999234,5.11395544 C23.6949127,4.69070816 23.1652356,4.54724537 22.8567952,4.8556858 L19.371162,8.34131897 L16.1893001,7.81113834 L15.6591195,4.62927642 L19.1447526,1.14368903 C19.4550699,0.833371778 19.3055189,0.304610221 18.8794334,0.19868396 C16.6585067,-0.351638215 14.2130475,0.241347432 12.4772575,1.97663382 C10.6191535,3.83473791 10.1077411,6.52816716 10.8811768,8.87662653 L0.878560833,18.8792424 C-0.292853611,20.0506569 -0.292853611,21.9500054 0.878560833,23.1214198 C2.04997528,24.2928343 3.94932377,24.2928343 5.12073822,23.1214198 Z M3.00010729,22.1248707 C2.37901502,22.1248707 1.87510997,21.6209656 1.87510997,20.9998734 C1.87510997,20.3783233 2.37901502,19.8748761 3.00010729,19.8748761 C3.62119956,19.8748761 4.12510461,20.3783233 4.12510461,20.9998734 C4.12510461,21.6209656 3.62119956,22.1248707 3.00010729,22.1248707 Z" id="wrench"></path>
        </g>
    </g>
</svg>