<?xml version="1.0" encoding="UTF-8"?><svg version="1.1" width="141px" height="34px" viewBox="0 0 141.0 34.0" xmlns="http://www.w3.org/2000/svg" xmlns:xlink="http://www.w3.org/1999/xlink"><defs><clipPath id="i0"><path d="M138,0 C139.656854,-3.04359188e-16 141,1.34314575 141,3 L141,31 C141,32.6568542 139.656854,34 138,34 L3,34 C1.34314575,34 -3.79389676e-15,32.6568542 0,31 L0,3 C-2.02906125e-16,1.34314575 1.34314575,1.19253761e-15 3,0 L138,0 Z"></path></clipPath><clipPath id="i1"><path d="M55,0 C56.6568542,-3.04359188e-16 58,1.34314575 58,3 L58,23 C58,24.6568542 56.6568542,26 55,26 L3,26 C1.34314575,26 -2.41183085e-16,24.6568542 0,23 L0,3 C-2.02906125e-16,1.34314575 1.34314575,1.63662682e-15 3,0 L55,0 Z"></path></clipPath><clipPath id="i2"><path d="M0.737117917,0.215863667 C1.02516502,-0.0719545556 1.4918082,-0.0719545556 1.77960353,0.215863667 L4.12499589,2.56125602 L6.47038824,0.215863667 C6.75843535,-0.0719545556 7.22505563,-0.0719545556 7.51287386,0.215863667 L8.03412811,0.737117917 C8.32194633,1.02516502 8.32194633,1.4918082 8.03412811,1.77960353 L5.68873575,4.12499589 L8.03412811,6.47038824 C8.32194633,6.75843535 8.32194633,7.22505563 8.03412811,7.51287386 L7.51287386,8.03412811 C7.22505563,8.32194633 6.75818358,8.32194633 6.47038824,8.03412811 L4.12499589,5.68873575 L1.77960353,8.03412811 C1.4918082,8.32194633 1.02493614,8.32194633 0.737117917,8.03412811 L0.215863667,7.51287386 C-0.0719545556,7.22482675 -0.0719545556,6.75818358 0.215863667,6.47038824 L2.56125602,4.12499589 L0.215863667,1.77960353 C-0.0719545556,1.49155643 -0.0719545556,1.02493614 0.215863667,0.737117917 Z"></path></clipPath><clipPath id="i3"><path d="M8,0 L8,26 L0,26 L0,0 L8,0 Z"></path></clipPath><clipPath id="i4"><path d="M141,0 L141,4 L0,4 L0,0 L141,0 Z"></path></clipPath><clipPath id="i5"><path d="M4,0 L4,26 L0,26 L0,0 L4,0 Z"></path></clipPath></defs><g clip-path="url(#i0)"><polygon points="0,0 141,0 141,34 0,34 0,0" stroke="none" fill="#F0F0F0"></polygon></g><g transform="translate(8.0 7.0)"><text transform="translate(0.0 14.0)" font-family="RedHatText-Regular, Red Hat Text" font-size="14.0" font-weight="normal" fill="#141514" text-anchor="left" line-spacing="21.0">Category</text></g><g transform="translate(75.0 4.0)"><g clip-path="url(#i1)"><polygon points="0,0 58,0 58,26 0,26 0,0" stroke="none" fill="#FFFFFF"></polygon><path d="M3,0 L55,0 C56.6568542,-3.04359188e-16 58,1.34314575 58,3 L58,23 C58,24.6568542 56.6568542,26 55,26 L3,26 C1.34314575,26 -2.41183085e-16,24.6568542 0,23 L0,3 C-2.02906125e-16,1.34314575 1.34314575,1.63662682e-15 3,0 Z" stroke="#F0F0F0" stroke-width="2" fill="none" stroke-miterlimit="5"></path></g><g transform="translate(34.0 1.0)"><g transform="translate(8.0 8.0)"><g clip-path="url(#i2)"><polygon points="0,0 8.24999177,0 8.24999177,8.24999177 0,8.24999177 0,0" stroke="none" fill="#696E73"></polygon></g></g></g><g transform="translate(8.0 4.0)"><text transform="translate(0.0 12.0)" font-family="RedHatText-Regular, Red Hat Text" font-size="12.0" font-weight="normal" fill="#151515" text-anchor="left" line-spacing="18.0">Chip</text></g></g><g transform="translate(0.0 4.0)"><g clip-path="url(#i3)"><polygon points="0,0 8,0 8,26 0,26 0,0" stroke="none" fill="rgba(146, 211, 0, 0.9)"></polygon></g><g clip-path="url(#i3)"><polygon points="0,0 8,0 8,26 0,26 0,0 0,0" stroke="#7EB200" stroke-width="2" fill="none" stroke-miterlimit="5"></polygon></g></g><g clip-path="url(#i4)"><polygon points="0,0 141,0 141,4 0,4 0,0" stroke="none" fill="rgba(236, 121, 8, 0.9)"></polygon></g><g clip-path="url(#i4)"><polygon points="0,0 141,0 141,4 0,4 0,0 0,0" stroke="#C67000" stroke-width="2" fill="none" stroke-miterlimit="5"></polygon></g><g transform="translate(0.0 30.0)"><g clip-path="url(#i4)"><polygon points="0,0 141,0 141,4 0,4 0,0" stroke="none" fill="rgba(236, 121, 8, 0.9)"></polygon></g><g clip-path="url(#i4)"><polygon points="0,0 141,0 141,4 0,4 0,0 0,0" stroke="#C67000" stroke-width="2" fill="none" stroke-miterlimit="5"></polygon></g></g><g transform="translate(67.0 4.0)"><g clip-path="url(#i3)"><polygon points="0,0 8,0 8,26 0,26 0,0" stroke="none" fill="rgba(146, 211, 0, 0.9)"></polygon></g><g clip-path="url(#i3)"><polygon points="0,0 8,0 8,26 0,26 0,0 0,0" stroke="#7EB200" stroke-width="2" fill="none" stroke-miterlimit="5"></polygon></g></g><g transform="translate(133.0 4.0)"><g clip-path="url(#i5)"><polygon points="0,0 4,0 4,26 0,26 0,0" stroke="none" fill="rgba(236, 121, 8, 0.9)"></polygon></g><g clip-path="url(#i5)"><polygon points="0,0 4,0 4,26 0,26 0,0 0,0" stroke="#C67000" stroke-width="2" fill="none" stroke-miterlimit="5"></polygon></g></g><g transform="translate(137.0 4.0)"><g clip-path="url(#i5)"><polygon points="0,0 4,0 4,26 0,26 0,0" stroke="none" fill="rgba(236, 121, 8, 0.9)"></polygon></g><g clip-path="url(#i5)"><polygon points="0,0 4,0 4,26 0,26 0,0 0,0" stroke="#C67000" stroke-width="2" fill="none" stroke-miterlimit="5"></polygon></g></g></svg>