<?xml version="1.0" encoding="UTF-8"?><svg version="1.1" width="184px" height="36px" viewBox="0 0 184.0 36.0" xmlns="http://www.w3.org/2000/svg" xmlns:xlink="http://www.w3.org/1999/xlink"><defs><clipPath id="i0"><path d="M181,0 C182.656854,-3.04359188e-16 184,1.34314575 184,3 L184,33 C184,34.6568542 182.656854,36 181,36 L3,36 C1.34314575,36 3.31153059e-15,34.6568542 0,33 L0,3 C-2.02906125e-16,1.34314575 1.34314575,-1.39730022e-16 3,0 L181,0 Z"></path></clipPath><clipPath id="i1"><path d="M7.74998152,0 C12.0312213,0 15.499963,3.46874173 15.499963,7.74998152 C15.499963,12.0312213 12.0312213,15.499963 7.74998152,15.499963 C3.46874173,15.499963 0,12.0312213 0,7.74998152 C0,3.46874173 3.46874173,0 7.74998152,0 Z M5.71873637,3.94685949 C5.57185561,3.79997873 5.33436839,3.79997873 5.18748763,3.94685949 L3.95000279,5.18437485 C3.80312204,5.33122508 3.80312204,5.56874283 3.95000279,5.71562358 L5.99998569,7.74998152 L3.95000279,9.78122668 C3.80312204,9.92810743 3.80312204,10.1655947 3.95000279,10.3124754 L5.18437485,11.5499603 C5.33122508,11.696841 5.56874283,11.696841 5.71562358,11.5499603 L7.74998152,9.49997735 L9.78122668,11.5499603 C9.92810743,11.696841 10.1655947,11.696841 10.3124754,11.5499603 L11.5499603,10.3155882 C11.696841,10.168738 11.696841,9.93122022 11.5499603,9.78433947 L9.49997735,7.74998152 L11.5531036,5.71873637 C11.6999843,5.57185561 11.6999843,5.33436839 11.5531036,5.18748763 L10.3155882,3.95000279 C10.168738,3.80312204 9.93122022,3.80312204 9.78433947,3.95000279 L7.74998152,5.99998569 Z"></path></clipPath><clipPath id="i2"><path d="M32,0 L32,24 L0,24 L0,0 L32,0 Z"></path></clipPath><clipPath id="i3"><path d="M55,0 C56.6568542,-3.04359188e-16 58,1.34314575 58,3 L58,23 C58,24.6568542 56.6568542,26 55,26 L3,26 C1.34314575,26 -2.41183085e-16,24.6568542 0,23 L0,3 C-2.02906125e-16,1.34314575 1.34314575,1.63662682e-15 3,0 L55,0 Z"></path></clipPath><clipPath id="i4"><path d="M0.737117917,0.215863667 C1.02516502,-0.0719545556 1.4918082,-0.0719545556 1.77960353,0.215863667 L4.12499589,2.56125602 L6.47038824,0.215863667 C6.75843535,-0.0719545556 7.22505563,-0.0719545556 7.51287386,0.215863667 L8.03412811,0.737117917 C8.32194633,1.02516502 8.32194633,1.4918082 8.03412811,1.77960353 L5.68873575,4.12499589 L8.03412811,6.47038824 C8.32194633,6.75843535 8.32194633,7.22505563 8.03412811,7.51287386 L7.51287386,8.03412811 C7.22505563,8.32194633 6.75818358,8.32194633 6.47038824,8.03412811 L4.12499589,5.68873575 L1.77960353,8.03412811 C1.4918082,8.32194633 1.02493614,8.32194633 0.737117917,8.03412811 L0.215863667,7.51287386 C-0.0719545556,7.22482675 -0.0719545556,6.75818358 0.215863667,6.47038824 L2.56125602,4.12499589 L0.215863667,1.77960353 C-0.0719545556,1.49155643 -0.0719545556,1.02493614 0.215863667,0.737117917 Z"></path></clipPath><clipPath id="i5"><path d="M8,0 L8,28 L0,28 L0,0 L8,0 Z"></path></clipPath><clipPath id="i6"><path d="M184,0 L184,4 L0,4 L0,0 L184,0 Z"></path></clipPath><clipPath id="i7"><path d="M4,0 L4,28 L0,28 L0,0 L4,0 Z"></path></clipPath></defs><g clip-path="url(#i0)"><polygon points="0,0 184,0 184,36 0,36 0,0" stroke="none" fill="#F0F0F0"></polygon></g><g transform="translate(133.0 0.0)"><g transform="translate(8.0 6.0)"><g transform="translate(4.0 0.0)"><g transform="translate(4.0 4.0)"><g clip-path="url(#i1)"><polygon points="0,0 15.499963,0 15.499963,15.499963 0,15.499963 0,0" stroke="none" fill="#696E73"></polygon><g transform="translate(-4.0 0.0)"><g clip-path="url(#i2)"><polygon points="4,0 19.499963,0 19.499963,15.499963 4,15.499963 4,0" stroke="none" fill="#696E73"></polygon></g></g></g></g></g></g></g><g transform="translate(8.0 7.0)"><text transform="translate(0.0 14.0)" font-family="RedHatText-Regular, Red Hat Text" font-size="14.0" font-weight="normal" fill="#141514" text-anchor="left" line-spacing="21.0">Category</text></g><g transform="translate(75.0 5.0)"><g clip-path="url(#i3)"><polygon points="0,0 58,0 58,26 0,26 0,0" stroke="none" fill="#FFFFFF"></polygon><path d="M3,0 L55,0 C56.6568542,-3.04359188e-16 58,1.34314575 58,3 L58,23 C58,24.6568542 56.6568542,26 55,26 L3,26 C1.34314575,26 -2.41183085e-16,24.6568542 0,23 L0,3 C-2.02906125e-16,1.34314575 1.34314575,1.63662682e-15 3,0 Z" stroke="#F0F0F0" stroke-width="2" fill="none" stroke-miterlimit="5"></path></g><g transform="translate(34.0 1.0)"><g transform="translate(8.0 8.0)"><g clip-path="url(#i4)"><polygon points="0,0 8.24999177,0 8.24999177,8.24999177 0,8.24999177 0,0" stroke="none" fill="#696E73"></polygon></g></g></g><g transform="translate(8.0 4.0)"><text transform="translate(0.0 12.0)" font-family="RedHatText-Regular, Red Hat Text" font-size="12.0" font-weight="normal" fill="#151515" text-anchor="left" line-spacing="18.0">Chip</text></g></g><g transform="translate(0.0 4.0)"><g clip-path="url(#i5)"><polygon points="0,0 8,0 8,28 0,28 0,0" stroke="none" fill="rgba(146, 211, 0, 0.9)"></polygon></g><g clip-path="url(#i5)"><polygon points="0,0 8,0 8,28 0,28 0,0 0,0" stroke="#7EB200" stroke-width="2" fill="none" stroke-miterlimit="5"></polygon></g></g><g clip-path="url(#i6)"><polygon points="0,0 184,0 184,4 0,4 0,0" stroke="none" fill="rgba(236, 121, 8, 0.9)"></polygon></g><g clip-path="url(#i6)"><polygon points="0,0 184,0 184,4 0,4 0,0 0,0" stroke="#C67000" stroke-width="2" fill="none" stroke-miterlimit="5"></polygon></g><g transform="translate(0.0 32.0)"><g clip-path="url(#i6)"><polygon points="0,0 184,0 184,4 0,4 0,0" stroke="none" fill="rgba(236, 121, 8, 0.9)"></polygon></g><g clip-path="url(#i6)"><polygon points="0,0 184,0 184,4 0,4 0,0 0,0" stroke="#C67000" stroke-width="2" fill="none" stroke-miterlimit="5"></polygon></g></g><g transform="translate(67.0 4.0)"><g clip-path="url(#i5)"><polygon points="0,0 8,0 8,28 0,28 0,0" stroke="none" fill="rgba(146, 211, 0, 0.9)"></polygon></g><g clip-path="url(#i5)"><polygon points="0,0 8,0 8,28 0,28 0,0 0,0" stroke="#7EB200" stroke-width="2" fill="none" stroke-miterlimit="5"></polygon></g></g><g transform="translate(180.0 4.0)"><g clip-path="url(#i7)"><polygon points="0,0 4,0 4,28 0,28 0,0" stroke="none" fill="rgba(236, 121, 8, 0.9)"></polygon></g><g clip-path="url(#i7)"><polygon points="0,0 4,0 4,28 0,28 0,0 0,0" stroke="#C67000" stroke-width="2" fill="none" stroke-miterlimit="5"></polygon></g></g></svg>