<?xml version="1.0" encoding="UTF-8"?>
<svg width="184px" height="36px" viewBox="0 0 184 36" version="1.1" xmlns="http://www.w3.org/2000/svg" xmlns:xlink="http://www.w3.org/1999/xlink">
    <title></title>
    <g id="Chips" stroke="none" stroke-width="1" fill="none" fill-rule="evenodd">
        <g id="Chips-/-Chip-Group-/-Group-/-Dismissible-with-chip">
            <rect id="Background" fill="#F0F0F0" x="0" y="0" width="184" height="36" rx="3"></rect>
            <g id="Button-/-6.-Icon-button-/-Default" transform="translate(133.000000, 0.000000)">
                <g id="ðŸ–¼-Icon" transform="translate(16.000000, 10.000000)" fill="#6A6E73">
                    <g id="times-circle">
                        <path d="M7.74998152,15.499963 C12.0312213,15.499963 15.499963,12.0312213 15.499963,7.74998152 C15.499963,3.46874173 12.0312213,0 7.74998152,0 C3.46874173,0 0,3.46874173 0,7.74998152 C0,12.0312213 3.46874173,15.499963 7.74998152,15.499963 Z M5.18437485,11.5499603 L3.95000279,10.3124754 C3.80312204,10.1655947 3.80312204,9.92810743 3.95000279,9.78122668 L5.99998569,7.74998152 L3.95000279,5.71562358 C3.80312204,5.56874283 3.80312204,5.33122508 3.95000279,5.18437485 L5.18748763,3.94685949 C5.33436839,3.79997873 5.57185561,3.79997873 5.71873637,3.94685949 L7.74998152,5.99998569 L9.78433947,3.95000279 C9.93122022,3.80312204 10.168738,3.80312204 10.3155882,3.95000279 L11.5531036,5.18748763 C11.6999843,5.33436839 11.6999843,5.57185561 11.5531036,5.71873637 L9.49997735,7.74998152 L11.5499603,9.78433947 C11.696841,9.93122022 11.696841,10.168738 11.5499603,10.3155882 L10.3124754,11.5499603 C10.1655947,11.696841 9.92810743,11.696841 9.78122668,11.5499603 L7.74998152,9.49997735 L5.71562358,11.5499603 C5.56874283,11.696841 5.33122508,11.696841 5.18437485,11.5499603 Z"></path>
                    </g>
                    <rect id="ðŸŽ¨-Color" x="-8" y="-4" width="32" height="24"></rect>
                </g>
                <g id="ðŸ“-Padding" fill-opacity="0.9">
                    <g id="Spacer-/-Horizontal-/-3.-pf-global--spacer--md-(16px)" fill="#92D400" stroke="#7FB300">
                        <rect id="Rectangle-Copy" x="0.5" y="0.5" width="7" height="35"></rect>
                    </g>
                    <g id="Spacer-/-Horizontal-/-3.-pf-global--spacer--md-(16px)" transform="translate(32.000000, 0.000000)" fill="#92D400" stroke="#7FB300">
                        <rect id="Rectangle-Copy" x="0.5" y="0.5" width="7" height="35"></rect>
                    </g>
                    <g id="Spacer-/-Vertical-/-8.-pf-global--spacer--form-element-(6px)" transform="translate(8.000000, 0.000000)" fill="#F3D53C" stroke="#CBB534">
                        <rect id="Rectangle" x="0.5" y="0.5" width="23" height="5"></rect>
                    </g>
                    <g id="Spacer-/-Vertical-/-8.-pf-global--spacer--form-element-(6px)" transform="translate(8.000000, 30.000000)" fill="#F3D53C" stroke="#CBB534">
                        <rect id="Rectangle" x="0.5" y="0.5" width="23" height="5"></rect>
                    </g>
                </g>
            </g>
            <text id="âœï¸-Label" font-family="RedHatText-Regular, Red Hat Text" font-size="14" font-weight="normal" line-spacing="21" fill="#151515">
                <tspan x="8" y="21">Category</tspan>
            </text>
            <g id="Chip" transform="translate(75.000000, 5.000000)">
                <rect id="Rectangle" stroke="#F0F0F0" fill="#FFFFFF" x="0.5" y="0.5" width="57" height="25" rx="3"></rect>
                <g id="Icons-/-ðŸ–¼-Icon" transform="translate(42.000000, 9.000000)" fill="#6A6E73">
                    <path d="M1.77960353,8.03412811 L4.12499589,5.68873575 L6.47038824,8.03412811 C6.75818358,8.32194633 7.22505563,8.32194633 7.51287386,8.03412811 L8.03412811,7.51287386 C8.32194633,7.22505563 8.32194633,6.75843535 8.03412811,6.47038824 L5.68873575,4.12499589 L8.03412811,1.77960353 C8.32194633,1.4918082 8.32194633,1.02516502 8.03412811,0.737117917 L7.51287386,0.215863667 C7.22505563,-0.0719545556 6.75843535,-0.0719545556 6.47038824,0.215863667 L4.12499589,2.56125602 L1.77960353,0.215863667 C1.4918082,-0.0719545556 1.02516502,-0.0719545556 0.737117917,0.215863667 L0.215863667,0.737117917 C-0.0719545556,1.02493614 -0.0719545556,1.49155643 0.215863667,1.77960353 L2.56125602,4.12499589 L0.215863667,6.47038824 C-0.0719545556,6.75818358 -0.0719545556,7.22482675 0.215863667,7.51287386 L0.737117917,8.03412811 C1.02493614,8.32194633 1.4918082,8.32194633 1.77960353,8.03412811 Z" id="times"></path>
                </g>
                <text id="âœï¸-Label" font-family="RedHatText-Regular, Red Hat Text" font-size="12" font-weight="normal" line-spacing="18" fill="#151515">
                    <tspan x="8" y="16">Chip</tspan>
                </text>
                <g id="ðŸ“-Padding" fill-opacity="0.9">
                    <g id="Spacer-/-Horizontal-/-2.-pf-global--spacer--sm-(8px)" transform="translate(0.000000, 0.000000)" fill="#92D400" stroke="#7FB300">
                        <rect id="Rectangle-Copy" x="0.5" y="0.5" width="7" height="25"></rect>
                    </g>
                    <g id="Spacer-/-Vertical-/-8.-pf-global--spacer--form-element-(6px)" transform="translate(8.000000, 0.000000)" fill="#EC7A08" stroke="#C77000">
                        <rect id="Rectangle" x="0.5" y="0.5" width="49" height="3"></rect>
                    </g>
                    <g id="Spacer-/-Vertical-/-8.-pf-global--spacer--form-element-(6px)" transform="translate(8.000000, 22.000000)" fill="#EC7A08" stroke="#C77000">
                        <rect id="Rectangle" x="0.5" y="0.5" width="49" height="3"></rect>
                    </g>
                </g>
            </g>
            <g id="ðŸ“-Padding" fill-opacity="0.9">
                <g id="Spacer-/-Horizontal-/-2.-pf-global--spacer--sm-(8px)" transform="translate(0.000000, 4.000000)" fill="#92D400" stroke="#7FB300">
                    <rect id="Rectangle-Copy" x="0.5" y="0.5" width="7" height="27"></rect>
                </g>
                <g id="Spacer-/-Vertical-/-2.-pf-global--spacer--sm-(8px)" fill="#EC7A08" stroke="#C77000">
                    <rect id="Rectangle" x="0.5" y="0.5" width="183" height="3"></rect>
                </g>
                <g id="Spacer-/-Vertical-/-2.-pf-global--spacer--sm-(8px)" transform="translate(0.000000, 32.000000)" fill="#EC7A08" stroke="#C77000">
                    <rect id="Rectangle" x="0.5" y="0.5" width="183" height="3"></rect>
                </g>
                <g id="Spacer-/-Horizontal-/-2.-pf-global--spacer--sm-(8px)" transform="translate(67.000000, 4.000000)" fill="#92D400" stroke="#7FB300">
                    <rect id="Rectangle-Copy" x="0.5" y="0.5" width="7" height="27"></rect>
                </g>
                <g id="Spacer-/-Horizontal-/-2.-pf-global--spacer--sm-(8px)" transform="translate(180.000000, 4.000000)" fill="#EC7A08" stroke="#C77000">
                    <rect id="Rectangle" x="0.5" y="0.5" width="3" height="27"></rect>
                </g>
            </g>
        </g>
    </g>
</svg>