<?xml version="1.0" encoding="UTF-8"?>
<svg width="184px" height="36px" viewBox="0 0 184 36" version="1.1" xmlns="http://www.w3.org/2000/svg" xmlns:xlink="http://www.w3.org/1999/xlink">
    <title></title>
    <g id="Chips" stroke="none" stroke-width="1" fill="none" fill-rule="evenodd">
        <g id="Chips-/-Chip-Group-/-Group-/-Dismissible-with-chip">
            <rect id="Background" fill="#F0F0F0" x="0" y="0" width="184" height="36" rx="3"></rect>
            <g id="Button-/-6.-Icon-button-/-Default" transform="translate(133.000000, 0.000000)">
                <g id="ðŸ–¼-Icon" transform="translate(8.000000, 6.000000)" fill="#6A6E73">
                    <g id="ðŸ–¼-Icon" transform="translate(4.000000, 0.000000)">
                        <path d="M11.7499815,19.499963 C16.0312213,19.499963 19.499963,16.0312213 19.499963,11.7499815 C19.499963,7.46874173 16.0312213,4 11.7499815,4 C7.46874173,4 4,7.46874173 4,11.7499815 C4,16.0312213 7.46874173,19.499963 11.7499815,19.499963 Z M9.18437485,15.5499603 L7.95000279,14.3124754 C7.80312204,14.1655947 7.80312204,13.9281074 7.95000279,13.7812267 L9.99998569,11.7499815 L7.95000279,9.71562358 C7.80312204,9.56874283 7.80312204,9.33122508 7.95000279,9.18437485 L9.18748763,7.94685949 C9.33436839,7.79997873 9.57185561,7.79997873 9.71873637,7.94685949 L11.7499815,9.99998569 L13.7843395,7.95000279 C13.9312202,7.80312204 14.168738,7.80312204 14.3155882,7.95000279 L15.5531036,9.18748763 C15.6999843,9.33436839 15.6999843,9.57185561 15.5531036,9.71873637 L13.4999774,11.7499815 L15.5499603,13.7843395 C15.696841,13.9312202 15.696841,14.168738 15.5499603,14.3155882 L14.3124754,15.5499603 C14.1655947,15.696841 13.9281074,15.696841 13.7812267,15.5499603 L11.7499815,13.4999774 L9.71562358,15.5499603 C9.56874283,15.696841 9.33122508,15.696841 9.18437485,15.5499603 Z" id="times-circle"></path>
                    </g>
                    <rect id="ðŸŽ¨-Color" x="0" y="0" width="32" height="24"></rect>
                </g>
                <g id="ðŸ“-Padding" fill-opacity="0.9">
                    <g id="Spacer-/-Horizontal-/-2.-pf-global--spacer--sm-(8px)" fill="#92D400" stroke="#7FB300">
                        <rect id="Rectangle-Copy" x="0.5" y="0.5" width="7" height="35"></rect>
                    </g>
                    <g id="Spacer-/-Horizontal-/-2.-pf-global--spacer--sm-(8px)" transform="translate(32.000000, 0.000000)" fill="#92D400" stroke="#7FB300">
                        <rect id="Rectangle-Copy" x="0.5" y="0.5" width="7" height="35"></rect>
                    </g>
                    <g id="Spacer-/-Vertical-/-8.-pf-global--spacer--form-element-(6px)" transform="translate(8.000000, 0.000000)" fill="#F3D53C" stroke="#CBB534">
                        <rect id="Rectangle" x="0.5" y="0.5" width="23" height="5"></rect>
                    </g>
                    <g id="Spacer-/-Vertical-/-8.-pf-global--spacer--form-element-(6px)" transform="translate(8.000000, 30.000000)" fill="#F3D53C" stroke="#CBB534">
                        <rect id="Rectangle" x="0.5" y="0.5" width="23" height="5"></rect>
                    </g>
                </g>
            </g>
            <text id="âœï¸-Label" font-family="RedHatText-Regular, Red Hat Text" font-size="14" font-weight="normal" line-spacing="21" fill="#151515">
                <tspan x="8" y="21">Category</tspan>
            </text>
            <g id="Group" transform="translate(75.000000, 5.000000)">
                <rect id="Rectangle" stroke="#F0F0F0" fill="#FFFFFF" x="0.5" y="0.5" width="57" height="25" rx="3"></rect>
                <g transform="translate(34.000000, 1.000000)" fill="#6A6E73" id="Icons-/-ðŸ–¼-Icon">
                    <path d="M9.77960353,16.0341281 L12.1249959,13.6887358 L14.4703882,16.0341281 C14.7581836,16.3219463 15.2250556,16.3219463 15.5128739,16.0341281 L16.0341281,15.5128739 C16.3219463,15.2250556 16.3219463,14.7584353 16.0341281,14.4703882 L13.6887358,12.1249959 L16.0341281,9.77960353 C16.3219463,9.4918082 16.3219463,9.02516502 16.0341281,8.73711792 L15.5128739,8.21586367 C15.2250556,7.92804544 14.7584353,7.92804544 14.4703882,8.21586367 L12.1249959,10.561256 L9.77960353,8.21586367 C9.4918082,7.92804544 9.02516502,7.92804544 8.73711792,8.21586367 L8.21586367,8.73711792 C7.92804544,9.02493614 7.92804544,9.49155643 8.21586367,9.77960353 L10.561256,12.1249959 L8.21586367,14.4703882 C7.92804544,14.7581836 7.92804544,15.2248268 8.21586367,15.5128739 L8.73711792,16.0341281 C9.02493614,16.3219463 9.4918082,16.3219463 9.77960353,16.0341281 Z" id="times"></path>
                </g>
                <text id="âœï¸-Label" font-family="RedHatText-Regular, Red Hat Text" font-size="12" font-weight="normal" line-spacing="18" fill="#151515">
                    <tspan x="8" y="16">Chip</tspan>
                </text>
                <g id="ðŸ“-Padding" fill-opacity="0.9">
                    <g id="Spacer-/-Horizontal-/-2.-pf-global--spacer--sm-(8px)" fill="#92D400" stroke="#7FB300">
                        <rect id="Rectangle-Copy" x="0.5" y="0.5" width="7" height="25"></rect>
                    </g>
                    <g id="Spacer-/-Vertical-/-8.-pf-global--spacer--form-element-(6px)" transform="translate(8.000000, -0.000000)" fill="#EC7A08" stroke="#C77000">
                        <rect id="Rectangle" x="0.5" y="0.5" width="49" height="3"></rect>
                    </g>
                    <g id="Spacer-/-Vertical-/-8.-pf-global--spacer--form-element-(6px)" transform="translate(8.000000, 22.000000)" fill="#EC7A08" stroke="#C77000">
                        <rect id="Rectangle" x="0.5" y="0.5" width="49" height="3"></rect>
                    </g>
                </g>
            </g>
            <g id="ðŸ“-Padding" fill-opacity="0.9">
                <g id="Spacer-/-Horizontal-/-2.-pf-global--spacer--sm-(8px)" transform="translate(0.000000, 4.000000)" fill="#92D400" stroke="#7FB300">
                    <rect id="Rectangle-Copy" x="0.5" y="0.5" width="7" height="27"></rect>
                </g>
                <g id="Spacer-/-Vertical-/-2.-pf-global--spacer--sm-(8px)" fill="#EC7A08" stroke="#C77000">
                    <rect id="Rectangle" x="0.5" y="0.5" width="183" height="3"></rect>
                </g>
                <g id="Spacer-/-Vertical-/-2.-pf-global--spacer--sm-(8px)" transform="translate(0.000000, 32.000000)" fill="#EC7A08" stroke="#C77000">
                    <rect id="Rectangle" x="0.5" y="0.5" width="183" height="3"></rect>
                </g>
                <g id="Spacer-/-Horizontal-/-2.-pf-global--spacer--sm-(8px)" transform="translate(67.000000, 4.000000)" fill="#92D400" stroke="#7FB300">
                    <rect id="Rectangle-Copy" x="0.5" y="0.5" width="7" height="27"></rect>
                </g>
                <g id="Spacer-/-Horizontal-/-2.-pf-global--spacer--sm-(8px)" transform="translate(180.000000, 4.000000)" fill="#EC7A08" stroke="#C77000">
                    <rect id="Rectangle" x="0.5" y="0.5" width="3" height="27"></rect>
                </g>
            </g>
        </g>
    </g>
</svg>