<?xml version="1.0" encoding="UTF-8"?><svg version="1.1" width="83px" height="85px" viewBox="0 0 83.0 85.0" xmlns="http://www.w3.org/2000/svg" xmlns:xlink="http://www.w3.org/1999/xlink"><defs><clipPath id="i0"><path d="M85,0 L85,8 L0,8 L0,0 L85,0 Z"></path></clipPath><clipPath id="i1"><path d="M85,0 L85,4 L0,4 L0,0 L85,0 Z"></path></clipPath><clipPath id="i2"><path d="M14,0 C21.7319865,0 28,6.2680135 28,14 C28,21.7319865 21.7319865,28 14,28 C6.2680135,28 0,21.7319865 0,14 C0,6.2680135 6.2680135,0 14,0 Z"></path></clipPath></defs><g transform="translate(0.0 64.0)"><text transform="translate(0.0 14.0)" font-family="RedHatText-Regular, Red Hat Text" font-size="14.0" font-weight="normal" fill="#696E73" text-anchor="left" line-spacing="21.0">Description 2</text></g><g transform="translate(0.0 27.0)"><g transform="translate(0.0 -0.22222222222222232)"><g clip-path="url(#i0)"><polygon points="0,0 85,0 85,8 0,8 0,0" stroke="none" fill="rgba(146, 211, 0, 0.9)"></polygon></g><g clip-path="url(#i0)"><polygon points="0,0 85,0 85,8 0,8 0,0 0,0" stroke="#7EB200" stroke-width="2" fill="none" stroke-miterlimit="5"></polygon></g></g><g transform="translate(0.0 30.222222222222225)"><g transform="translate(0.0 -0.1111111111111105)"><g clip-path="url(#i1)"><polygon points="0,0 85,0 85,4 0,4 0,0" stroke="none" fill="rgba(236, 121, 8, 0.9)"></polygon></g><g clip-path="url(#i1)"><polygon points="0,0 85,0 85,4 0,4 0,0 0,0" stroke="#C67000" stroke-width="2" fill="none" stroke-miterlimit="5"></polygon></g></g></g></g><g transform="translate(0.0 36.0)"><text transform="translate(0.0 16.0)" font-family="RedHatText-Regular, Red Hat Text" font-size="16.0" font-weight="normal" fill="#696E73" text-anchor="left" line-spacing="24.0">Description</text></g><g clip-path="url(#i2)"><polygon points="0,0 28,0 28,28 0,28 0,0" stroke="none" fill="#FAFAFA"></polygon><path d="M14,28 C21.7319865,28 28,21.7319865 28,14 C28,6.2680135 21.7319865,0 14,0 C6.2680135,0 0,6.2680135 0,14 C0,21.7319865 6.2680135,28 14,28 Z" stroke="#D2D2D2" stroke-width="4" fill="none" stroke-miterlimit="5"></path></g></svg>