<?xml version="1.0" encoding="UTF-8"?><svg version="1.1" width="147px" height="145px" viewBox="0 0 147.0 145.0" xmlns="http://www.w3.org/2000/svg" xmlns:xlink="http://www.w3.org/1999/xlink"><defs><clipPath id="i0"><path d="M147,0 L147,145 L0,145 L0,0 L147,0 Z"></path></clipPath><clipPath id="i1"><path d="M99,0 L99,18 L0,18 L0,0 L99,0 Z"></path></clipPath><clipPath id="i2"><path d="M80,0 L80,24 L0,24 L0,0 L80,0 Z"></path></clipPath><clipPath id="i3"><path d="M26,0 C30.6827962,0 35.016129,1.17069946 39,3.51209677 C42.983871,5.85349409 46.1465059,9.01612903 48.4879032,13 C50.8293005,16.983871 52,21.3172038 52,26 C52,30.6827962 50.8293005,35.016129 48.4879032,39 C46.1465059,42.983871 42.983871,46.1465059 39,48.4879032 C35.016129,50.8293005 30.6827962,52 26,52 C21.3172038,52 16.983871,50.8293005 13,48.4879032 C9.01612903,46.1465059 5.85349409,42.983871 3.51209677,39 C1.17069946,35.016129 0,30.6827962 0,26 C0,21.3172038 1.17069946,16.983871 3.51209677,13 C5.85349409,9.01612903 9.01612903,5.85349409 13,3.51209677 C16.983871,1.17069946 21.3172038,0 26,0 Z M28.9354839,10.9032258 L23.0645161,10.9032258 L22.917956,10.9107143 C22.6312544,10.9406683 22.3830641,11.0604843 22.1733871,11.2701613 C21.928764,11.5147844 21.8064516,11.8118285 21.8064516,12.1612903 L21.8064516,21.8064516 L12.1612903,21.8064516 L12.0147302,21.8139401 C11.7280286,21.8438941 11.4798383,21.9637101 11.2701613,22.1733871 C11.0255382,22.4180102 10.9032258,22.7150543 10.9032258,23.0645161 L10.9032258,28.9354839 L10.9107143,29.082044 C10.9406683,29.3687456 11.0604843,29.6169359 11.2701613,29.8266129 C11.5147844,30.071236 11.8118285,30.1935484 12.1612903,30.1935484 L21.8064516,30.1935484 L21.8064516,39.8387097 L21.8139401,39.9852698 C21.8438941,40.2719714 21.9637101,40.5201617 22.1733871,40.7298387 C22.4180102,40.9744618 22.7150543,41.0967742 23.0645161,41.0967742 L28.9354839,41.0967742 C29.2849457,41.0967742 29.5819898,40.9744618 29.8266129,40.7298387 C30.071236,40.4852156 30.1935484,40.1881715 30.1935484,39.8387097 L30.1935484,30.1935484 L39.8387097,30.1935484 L39.9852698,30.1860599 C40.2719714,30.1561059 40.5201617,30.0362899 40.7298387,29.8266129 C40.9744618,29.5819898 41.0967742,29.2849457 41.0967742,28.9354839 L41.0967742,23.0645161 L41.0892857,22.917956 C41.0593317,22.6312544 40.9395157,22.3830641 40.7298387,22.1733871 C40.4852156,21.928764 40.1881715,21.8064516 39.8387097,21.8064516 L30.1935484,21.8064516 L30.1935484,12.1612903 L30.1860599,12.0147302 C30.1561059,11.7280286 30.0362899,11.4798383 29.8266129,11.2701613 C29.5819898,11.0255382 29.2849457,10.9032258 28.9354839,10.9032258 Z"></path></clipPath></defs><g clip-path="url(#i0)"><polygon points="0,0 147,0 147,145 0,145 0,0" stroke="none" fill="#FFFFFF"></polygon><polygon points="0,0 147,0 147,145 0,145 0,0 0,0" stroke="#D2D2D2" stroke-width="2" fill="none" stroke-miterlimit="5"></polygon></g><g transform="translate(24.0 103.0)"><g clip-path="url(#i1)"><text transform="translate(0.21600000000000108 12.0)" font-family="RedHatText-Regular, Red Hat Text" font-size="12.0" font-weight="normal" fill="#151515" text-anchor="center" line-spacing="18.0">Subtext goes here</text></g></g><g transform="translate(33.0 79.0)"><g clip-path="url(#i2)"><text transform="translate(0.4159999999999968 16.0)" font-family="RedHatText-Regular, Red Hat Text" font-size="16.0" font-weight="normal" fill="#151515" text-anchor="center" line-spacing="24.0">Default tile</text></g></g><g transform="translate(47.0 24.0)"><g clip-path="url(#i3)"><polygon points="0,0 52,0 52,52 0,52 0,0" stroke="none" fill="#151515"></polygon></g></g></svg>