<?xml version="1.0" encoding="UTF-8"?>
<svg width="117px" height="53px" viewBox="0 0 117 53" version="1.1" xmlns="http://www.w3.org/2000/svg" xmlns:xlink="http://www.w3.org/1999/xlink">
    <title></title>
    <g id="Progress-stepper" stroke="none" stroke-width="1" fill="none" fill-rule="evenodd">
        <g id="Progress-stepper-/-2.-Vertical-items-/-In-progress">
            <text id="Description-2" font-family="RedHatText-Regular, Red Hat Text" font-size="14" font-weight="normal" line-spacing="21" fill="#6A6E73">
                <tspan x="32" y="46">Description 2</tspan>
            </text>
            <text id="Description" font-family="RedHatDisplay-Medium, Red Hat Display" font-size="16" font-weight="500" line-spacing="24" fill="#151515">
                <tspan x="32" y="20">Description</tspan>
            </text>
            <g id="Progress-stepper-/-Item-/-1.-Default">
                <circle id="Oval" stroke="#D2D2D2" stroke-width="2" fill="#FAFAFA" cx="14" cy="14" r="13"></circle>
                <g id="Icons/1.-Size-md/Status/check-circle" transform="translate(6.000000, 6.000000)" fill="#0066CC">
                    <path d="M8.0015625,0 C3.5890625,0 0,3.590625 0,8 C0,12.4109375 3.590625,16 8.0015625,16 C12.4125,16 16,12.4109375 16,8 C16,3.5890625 12.4125,0 8.0015625,0 Z M8,14 C4.690625,14 2,11.3109375 2,8 C2,4.6921875 4.690625,2 8,2 C11.3078125,2 14,4.690625 14,8 C14,11.309375 11.3078125,14 8,14 Z M8,3.5 C10.4859375,3.5 12.5,5.5140625 12.5,8 C12.5,10.4859375 10.4859375,12.5 8,12.5 C5.5140625,12.5 3.5,10.4859375 3.5,8 C3.5,5.5140625 5.5140625,3.5 8,3.5" id="pficon-resources-full"></path>
                </g>
            </g>
            <g id="ðŸ“-Padding" transform="translate(28.000000, 0.000000)" fill="#EC7A08" fill-opacity="0.9" stroke="#C77000">
                <g id="Spacer-/-Horizontal-/-1.-pf-global--spacer--xs-(4px)">
                    <rect id="Rectangle" x="0.5" y="0.5" width="3" height="48"></rect>
                </g>
                <g id="Spacer-/-Vertical-/-1.-pf-global--spacer--xs-(4px)" transform="translate(4.000000, 24.000000)">
                    <rect id="Rectangle" x="0.5" y="0.5" width="82" height="3"></rect>
                </g>
                <g id="Spacer-/-Vertical-/-1.-pf-global--spacer--xs-(4px)-Copy" transform="translate(4.000000, 0.000000)">
                    <rect id="Rectangle" x="0.5" y="0.5" width="82" height="3"></rect>
                </g>
            </g>
        </g>
    </g>
</svg>