<svg xmlns="http://www.w3.org/2000/svg" width="24" height="24" viewBox="0 0 24 24">
  <path fill="#6A6E73" fill-rule="evenodd" d="M18.8968456,19.7812124 L19.7812124,18.8968456 C20.0718306,18.6030841 20.0718306,18.1280791 19.7812124,17.8343481 L16.6655887,14.7187244 C16.524964,14.5780998 16.3343517,14.499975 16.13434,14.499975 L15.6249723,14.499975 C16.487458,13.3968587 16.999969,12.0093498 16.999969,10.4999845 C16.999969,6.90935586 14.0906131,4 10.4999845,4 C6.90935586,4 4,6.90935586 4,10.4999845 C4,14.0906131 6.90935586,16.999969 10.4999845,16.999969 C12.0093498,16.999969 13.3968587,16.487458 14.499975,15.6249723 L14.499975,16.13434 C14.499975,16.3343517 14.5780998,16.524964 14.7187244,16.6655887 L17.8374609,19.7812124 C18.1280791,20.0749739 18.6030841,20.0749739 18.8968456,19.7812124 Z M10.4999845,14.7499744 C8.149984,14.7499744 6.24999464,12.849985 6.24999464,10.4999845 C6.24999464,8.149984 8.149984,6.24999464 10.4999845,6.24999464 C12.849985,6.24999464 14.7499744,8.149984 14.7499744,10.4999845 C14.7499744,12.849985 12.849985,14.7499744 10.4999845,14.7499744 Z M13.1249782,11.3749824 C13.3312155,11.3749824 13.4999774,11.2062206 13.4999774,10.9999833 L13.4999774,9.99998569 C13.4999774,9.79374839 13.3312155,9.62498659 13.1249782,9.62498659 L7.87499076,9.62498659 C7.66875346,9.62498659 7.49999166,9.79374839 7.49999166,9.99998569 L7.49999166,10.9999833 C7.49999166,11.2062206 7.66875346,11.3749824 7.87499076,11.3749824 L13.1249782,11.3749824 Z"/>
</svg>
