<svg xmlns="http://www.w3.org/2000/svg" width="24" height="24" viewBox="0 0 24 24">
  <path fill="#6A6E73" fill-rule="evenodd" d="M11.7499815,19.499963 C16.0312213,19.499963 19.499963,16.0312213 19.499963,11.7499815 C19.499963,7.46874173 16.0312213,4 11.7499815,4 C7.46874173,4 4,7.46874173 4,11.7499815 C4,16.0312213 7.46874173,19.499963 11.7499815,19.499963 Z M9.18437485,15.5499603 L7.95000279,14.3124754 C7.80312204,14.1655947 7.80312204,13.9281074 7.95000279,13.7812267 L9.99998569,11.7499815 L7.95000279,9.71562358 C7.80312204,9.56874283 7.80312204,9.33122508 7.95000279,9.18437485 L9.18748763,7.94685949 C9.33436839,7.79997873 9.57185561,7.79997873 9.71873637,7.94685949 L11.7499815,9.99998569 L13.7843395,7.95000279 C13.9312202,7.80312204 14.168738,7.80312204 14.3155882,7.95000279 L15.5531036,9.18748763 C15.6999843,9.33436839 15.6999843,9.57185561 15.5531036,9.71873637 L13.4999774,11.7499815 L15.5499603,13.7843395 C15.696841,13.9312202 15.696841,14.168738 15.5499603,14.3155882 L14.3124754,15.5499603 C14.1655947,15.696841 13.9281074,15.696841 13.7812267,15.5499603 L11.7499815,13.4999774 L9.71562358,15.5499603 C9.56874283,15.696841 9.33122508,15.696841 9.18437485,15.5499603 Z"/>
</svg>
