<svg xmlns="http://www.w3.org/2000/svg" width="24" height="24" viewBox="0 0 24 24">
  <path fill="#6A6E73" fill-rule="evenodd" d="M18.4999678,7 C18.7759681,7 18.9999666,6.77599436 18.9999666,6.5 L18.9999666,5.5 C18.9999666,5.22399611 18.7759681,5 18.4999678,5 L14.7499768,5 L14.4562152,4.41561791 C14.3562399,4.21486613 14.1134813,4.0472225 13.8826417,4.00844834 L13.7843418,4 L10.2096433,4 C9.95424234,4 9.65593372,4.1861873 9.54375137,4.41561791 L9.24998987,5 L5.5,5 C5.22399849,5 5,5.22399611 5,5.5 L5,6.5 C5,6.77599436 5.22399849,7 5.5,7 L18.4999678,7 Z M15.8406114,19.9999619 C16.6182584,19.9999619 17.2888806,19.3698669 17.3374645,18.5937152 L17.999969,7.99999046 L5.99999762,7.99999046 L6.66250214,18.5937152 C6.71108601,19.3698669 7.38170819,19.9999619 8.15935526,19.9999619 L15.8406114,19.9999619 Z"/>
</svg>
