<svg xmlns="http://www.w3.org/2000/svg" width="24" height="24" viewBox="0 0 24 24">
  <path fill="#6A6E73" fill-rule="evenodd" d="M12.0103874,19.7499624 C16.2849744,19.7499624 19.7512442,16.2892773 19.7603565,12.0168266 C19.7694326,7.73842492 16.3462535,4.28127985 12.0679434,4.25021303 C9.75810395,4.2334284 7.68041115,5.2274751 6.24999464,6.81600281 L6.24999464,4.37499911 C6.24999464,4.16790731 6.08208732,4 5.87499553,4 L4.37499911,4 C4.16790731,4 4,4.16790731 4,4.37499911 L4,10.6353907 C4,10.8424825 4.16790731,11.0103898 4.37499911,11.0103898 L10.6353907,11.0103898 C10.8424825,11.0103898 11.0103898,10.8424825 11.0103898,10.6353907 L11.0103898,9.13539425 C11.0103898,8.92830246 10.8424825,8.76039514 10.6353907,8.76039514 L7.56432256,8.76039514 C8.56413707,7.38985398 10.1823888,6.5 12.0103874,6.5 C15.0505108,6.5 17.5103743,8.96040687 17.5103743,11.9999809 C17.5103743,15.0401043 15.049992,17.4999678 12.0103874,17.4999678 C10.6118617,17.4999678 9.33622995,16.9792171 8.36635312,16.1210038 C8.21828218,15.9899922 7.99364282,15.997591 7.85384213,16.1374222 L6.79238226,17.1988821 C6.64028301,17.3509508 6.64760721,17.598814 6.80696963,17.7432534 C8.18239359,18.9901681 10.0076151,19.7499624 12.0103874,19.7499624 Z"/>
</svg>
