<svg xmlns="http://www.w3.org/2000/svg" width="24" height="24" viewBox="0 0 24 24">
  <path fill="#151515" fill-rule="evenodd" d="M12.0015625,4 C7.5890625,4 4,7.590625 4,12 C4,16.4109375 7.590625,20 12.0015625,20 C16.4125,20 20,16.4109375 20,12 C20,7.5890625 16.4125,4 12.0015625,4 Z M12,18 C8.690625,18 6,15.3109375 6,12 C6,8.6921875 8.690625,6 12,6 C15.3078125,6 18,8.690625 18,12 C18,15.309375 15.3078125,18 12,18 Z M7.96875,14 C8.7046875,15.48125 10.234375,16.5 12,16.5 C13.765625,16.5 15.2953125,15.48125 16.03125,14 L7.96875,14 Z"/>
</svg>
