<svg xmlns="http://www.w3.org/2000/svg" width="24" height="24" viewBox="0 0 24 24">
  <path fill="#151515" fill-rule="evenodd" d="M11.984375,20 C12.5364583,20 13.0703125,19.9479167 13.5859375,19.84375 C14.1015625,19.7395833 14.6041667,19.5833333 15.09375,19.375 C15.5729167,19.1666667 16.0260417,18.9192708 16.453125,18.6328125 C16.8802083,18.3463542 17.2708333,18.0208333 17.625,17.65625 C17.9895833,17.2916667 18.3151042,16.8984375 18.6015625,16.4765625 C18.8880208,16.0546875 19.1354167,15.5989583 19.34375,15.109375 C19.5625,14.6302083 19.7239583,14.1302083 19.828125,13.609375 C19.9322917,13.0885417 19.984375,12.5520833 19.984375,12 C19.984375,11.4479167 19.9322917,10.9140625 19.828125,10.3984375 C19.7239583,9.8828125 19.5625,9.38020833 19.34375,8.890625 C19.1354167,8.41145833 18.8880208,7.95833333 18.6015625,7.53125 C18.3151042,7.10416667 17.9895833,6.71354167 17.625,6.359375 C17.2708333,5.99479167 16.8802083,5.66927083 16.453125,5.3828125 C16.0260417,5.09635417 15.5729167,4.84895833 15.09375,4.640625 C14.6041667,4.421875 14.1015625,4.26041667 13.5859375,4.15625 C13.0703125,4.05208333 12.5364583,4 11.984375,4 L11.984375,6.15625 C12.3802083,6.16666667 12.765625,6.20833333 13.140625,6.28125 C13.515625,6.35416667 13.8802083,6.46875 14.234375,6.625 C14.5885417,6.78125 14.9192708,6.96354167 15.2265625,7.171875 C15.5338542,7.38020833 15.8229167,7.61979167 16.09375,7.890625 C16.3645833,8.16145833 16.6041667,8.45052083 16.8125,8.7578125 C17.0208333,9.06510417 17.203125,9.39583333 17.359375,9.75 C17.515625,10.1145833 17.6328125,10.4869792 17.7109375,10.8671875 C17.7890625,11.2473958 17.828125,11.6354167 17.828125,12.03125 C17.828125,12.4375 17.7890625,12.8307292 17.7109375,13.2109375 C17.6328125,13.5911458 17.515625,13.9635417 17.359375,14.328125 C17.203125,14.6822917 17.0208333,15.015625 16.8125,15.328125 C16.6041667,15.640625 16.3645833,15.9270833 16.09375,16.1875 C15.8229167,16.4583333 15.5338542,16.6979167 15.2265625,16.90625 C14.9192708,17.1145833 14.5885417,17.296875 14.234375,17.453125 C13.8697917,17.609375 13.4973958,17.7239583 13.1171875,17.796875 C12.7369792,17.8697917 12.3489583,17.90625 11.953125,17.90625 C11.609375,17.90625 11.2786458,17.8802083 10.9609375,17.828125 C10.6432292,17.7760417 10.3333333,17.6979167 10.03125,17.59375 L8.984375,19.421875 C9.453125,19.6197917 9.9375,19.765625 10.4375,19.859375 C10.9375,19.953125 11.453125,20 11.984375,20 Z M4,11.4375 L6.125,11.296875 C6.15625,11.0260417 6.20572917,10.7630208 6.2734375,10.5078125 C6.34114583,10.2526042 6.42708333,10.0052083 6.53125,9.765625 C6.5625,9.69270833 6.59375,9.62239583 6.625,9.5546875 C6.65625,9.48697917 6.69270833,9.41666667 6.734375,9.34375 L4.84375,8.40625 C4.80208333,8.47916667 4.76302083,8.55729167 4.7265625,8.640625 C4.69010417,8.72395833 4.65625,8.80729167 4.625,8.890625 C4.44791667,9.296875 4.30729167,9.7109375 4.203125,10.1328125 C4.09895833,10.5546875 4.03125,10.9895833 4,11.4375 Z M7.015625,18.265625 L8.0625,16.4375 C8.02083333,16.3958333 7.9765625,16.3567708 7.9296875,16.3203125 C7.8828125,16.2838542 7.83854167,16.2447917 7.796875,16.203125 C7.53645833,15.9322917 7.29947917,15.640625 7.0859375,15.328125 C6.87239583,15.015625 6.6875,14.6822917 6.53125,14.328125 C6.47916667,14.203125 6.43229167,14.078125 6.390625,13.953125 C6.34895833,13.828125 6.3125,13.703125 6.28125,13.578125 L4.171875,13.71875 C4.22395833,13.9583333 4.28645833,14.1953125 4.359375,14.4296875 C4.43229167,14.6640625 4.52083333,14.890625 4.625,15.109375 C4.83333333,15.5989583 5.08072917,16.0546875 5.3671875,16.4765625 C5.65364583,16.8984375 5.97916667,17.2916667 6.34375,17.65625 C6.44791667,17.7708333 6.5546875,17.8776042 6.6640625,17.9765625 C6.7734375,18.0755208 6.890625,18.171875 7.015625,18.265625 Z"/>
</svg>
