<svg xmlns="http://www.w3.org/2000/svg" width="24" height="24" viewBox="0 0 24 24">
  <path fill="#151515" fill-rule="evenodd" d="M6.56320086,17.8916483 C6.32168656,17.8930908 6.0914872,17.7893871 5.93256671,17.6075201 C3.77047272,15.122638 3.38489808,11.5540481 4.9663228,8.66469084 C5.2366183,8.17438099 5.55787508,7.71394781 5.92476183,7.2910323 C6.22865314,6.94231163 6.7576997,6.90597026 7.10642037,7.20986157 C7.45514104,7.5137529 7.49148241,8.04279944 7.1875911,8.39152011 C6.89921795,8.7234636 6.64651409,9.08478305 6.43363988,9.46952986 C5.19077701,11.7417049 5.49542031,14.5476629 7.19695696,16.500164 C7.41342439,16.7483105 7.46475579,17.1001276 7.32821412,17.3997794 C7.19167243,17.6994312 6.89249488,17.8916483 6.56320086,17.8909933 M17.4603716,17.844164 C17.1338476,17.8435382 16.8375085,17.6530502 16.7013565,17.3562658 C16.5652046,17.0594814 16.6141089,16.7106104 16.8266155,16.4627006 C18.8186556,14.1368424 18.806702,10.7028293 16.7985179,8.39089572 C16.5995185,8.16619144 16.5361881,7.85208145 16.6325711,7.56782256 C16.728954,7.28356369 16.9702693,7.0727492 17.2648978,7.01541814 C17.5595263,6.9580871 17.8622844,7.06303165 18.0582252,7.29040791 C20.6116998,10.2272128 20.6283039,14.5914292 18.0972496,17.5475786 C17.9386914,17.7350124 17.7058743,17.8434321 17.4603716,17.844164 M13.7093472,12.4438128 C13.7093472,13.3904019 12.9419851,14.157764 11.995396,14.157764 C11.0488069,14.157764 10.2814448,13.3904019 10.2814448,12.4438128 C10.2814448,11.4972237 11.0488069,10.7298616 11.995396,10.7298616 C12.9418066,10.7302923 13.7089165,11.4974021 13.7093472,12.4438128 M15.2656399,15.439325 C14.9992715,15.4387239 14.7554267,15.2897699 14.6332919,15.0530516 C14.5111571,14.8163333 14.5310801,14.5312883 14.684957,14.3138616 C15.4760431,13.1936449 15.4735397,11.6960127 14.6787131,10.5784469 C14.4502558,10.2577446 14.5250351,9.81256279 14.8457375,9.5841055 C15.1664398,9.3556482 15.6116216,9.43042757 15.8400789,9.75112986 C16.9864169,11.3623601 16.9914222,13.521529 15.8525667,15.1380567 C15.7162618,15.3264467 15.4981672,15.4383942 15.2656399,15.439325 M8.70017647,15.436203 C8.46795927,15.4359942 8.25029039,15.3230857 8.11637159,15.1333738 C6.98806509,13.5263854 6.98619331,11.385064 8.11168866,9.77610547 C8.33490817,9.4545445 8.7813472,9.37649572 9.10603013,9.60127621 C9.42766361,9.82835579 9.50574553,10.2724467 9.28085939,10.5956177 C8.89529842,11.1403982 8.69705452,11.7850811 8.69705452,12.4547396 C8.69545374,13.1202739 8.90053712,13.7698864 9.28398135,14.3138616 C9.39309295,14.4686511 9.43599165,14.6605537 9.40317696,14.84707 C9.37036227,15.0335864 9.26454225,15.1993241 9.10915208,15.3075786 C8.98856606,15.3899188 8.84618905,15.4344795 8.70017647,15.4355786"/>
</svg>
