<svg xmlns="http://www.w3.org/2000/svg" width="24" height="24" viewBox="0 0 24 24">
  <path fill="#151515" fill-rule="evenodd" d="M12.0015625,17.9984375 C8.6921875,17.9984375 6.0015625,15.309375 6.0015625,11.9984375 C6.0015625,8.690625 8.6921875,5.9984375 12.0015625,5.9984375 C15.309375,5.9984375 18,8.690625 18.0015625,11.9984375 C18.0015625,15.3078125 15.309375,17.9984375 12.0015625,17.9984375 M12.0015625,4 C7.5890625,4 4,7.5890625 4,12 C4,16.4109375 7.5890625,20 12.0015625,20 C16.4109375,20 20,16.4109375 20,12 C20,7.5890625 16.4109375,4 12.0015625,4 M15,8.5 L15,8.25 C15,8.1125 14.8875,8 14.75,8 L9.25,8 C9.1125,8 9,8.1125 9,8.25 L9,8.5 C9,10.984375 11.5,11.015625 11.5,12 C11.5,12.984375 9,12.984375 9,15.5 L9,15.75 C9,15.8875 9.1125,16 9.25,16 L14.75,16 C14.8875,16 15,15.8875 15,15.75 L15,15.5 C15,13 12.5,13.015625 12.5,12 C12.5,10.984375 15,11 15,8.5 M13.4359375,15 L10.5671875,15 C10.5203125,15 10.534375,14.859375 10.553125,14.73125 C10.66875,13.9140625 11.5015625,13.646875 11.7375,13.5671875 C12.0046875,13.478125 12.0046875,13.478125 12.2640625,13.5671875 C12.5,13.65 13.3375,13.928125 13.45,14.734375 C13.4671875,14.8625 13.4828125,15 13.4359375,15"/>
</svg>
