<svg xmlns="http://www.w3.org/2000/svg" width="24" height="24" viewBox="0 0 24 24">
  <path fill="#151515" fill-rule="evenodd" d="M5.66765604,11.9752854 C5.66799733,11.0637704 5.86859413,10.1634608 6.25526112,9.33802247 L5.01780266,8.09649755 C5.00059836,8.12934212 4.98198643,8.16062267 4.96478213,8.19346725 C3.38555838,11.0871821 3.77090351,14.6575647 5.93119465,17.1476803 C6.09017972,17.3290641 6.3195184,17.4332779 6.56071567,17.4337716 C6.76240862,17.4349831 6.95741696,17.3614928 7.10812525,17.2274457 C7.45721616,16.9241808 7.49146836,16.3925679 7.18632662,16.0423822 C6.2071004,14.9136514 5.66787833,13.4695803 5.66765604,11.9752854 Z M8.66026601,11.9885797 C8.66026601,11.9133499 8.66339406,11.8412483 8.66808615,11.770867 L7.48302261,10.5833011 C7.04896221,11.9686638 7.28226088,13.4770165 8.11457686,14.6665073 C8.24504698,14.8524793 8.45811683,14.9630141 8.68529045,14.9626118 C8.8284322,14.9635946 8.96831259,14.9198478 9.08536865,14.8374555 C9.39971173,14.6147801 9.47456607,14.1797156 9.25271958,13.8647869 C8.86560274,13.3156431 8.65858401,12.6598287 8.66026601,11.987954 L8.66026601,11.9885797 Z M18.1141859,17.0727634 C20.6296017,14.1064535 20.6050937,9.74869696 18.0564732,6.81086705 C17.9114784,6.64295188 17.7054196,6.5399078 17.4840923,6.52463575 C17.262765,6.50936369 17.0445061,6.58312895 16.8778222,6.72953763 C16.5279493,7.03295894 16.4936971,7.56472824 16.7966492,7.91491397 C18.7663524,10.1876063 18.8202939,13.5463602 16.9245866,15.881131 L15.7772162,14.7317273 C15.7965886,14.7107028 15.8143144,14.6882187 15.8302367,14.6644741 C16.384669,13.8808905 16.6809873,12.9439342 16.6779395,11.984044 C16.6779395,11.0098113 16.382964,10.0778074 15.8192885,9.28953763 C15.7127014,9.13887781 15.5505041,9.03686733 15.3685438,9.00605147 C15.1865834,8.97523561 14.9998422,9.01815165 14.8495915,9.12531475 C14.5356912,9.34740664 14.4654664,9.78220625 14.6856815,10.0965757 C15.4536395,11.1783566 15.4907293,12.6172537 14.7795231,13.7371623 L13.6038437,12.5627341 C13.6726897,12.3754267 13.7075922,12.1773458 13.7069131,11.9777879 C13.7072594,11.0305986 12.9402403,10.2621796 11.9930519,10.2607986 C11.7937896,10.2601642 11.5960154,10.2951216 11.4090441,10.3640244 L5.276962,4.21333039 C4.99104801,3.9282802 4.5281901,3.92898044 4.24313991,4.21489442 C3.95808971,4.5008084 3.95878995,4.96366632 4.24470393,5.24871651 L5.86863356,6.8765562 L7.05823277,8.065217 L9.19547618,10.2060577 L10.3788193,11.391434 L12.57096,13.5870156 L18.7089855,19.7375532 C18.9948562,20.022949 19.4579593,20.0225639 19.743355,19.736693 C20.0287507,19.4508223 20.0283655,18.9877193 19.7424948,18.7023236 L18.1141859,17.0727634 Z"/>
</svg>
