<?xml version="1.0" encoding="UTF-8"?><svg version="1.1" width="41px" height="55px" viewBox="0 0 41.0 55.0" xmlns="http://www.w3.org/2000/svg" xmlns:xlink="http://www.w3.org/1999/xlink"><defs><clipPath id="i0"><path d="M20.2499517,0 C23.9729691,0 26.9999356,3.02696651 26.9999356,6.74998391 L35.4374155,6.74998391 C38.2323307,6.74998391 40.4999034,9.01755663 40.4999034,11.8124718 L40.4999034,48.9373833 C40.4999034,51.7322985 38.2323307,53.9998713 35.4374155,53.9998713 L5.06248793,53.9998713 C2.26757272,53.9998713 0,51.7322985 0,48.9373833 L0,11.8124718 C0,9.01755663 2.26757272,6.74998391 5.06248793,6.74998391 L13.4999678,6.74998391 C13.4999678,3.02696651 16.5269343,0 20.2499517,0 Z M30.0690277,23.8781093 C29.5734082,23.3823867 28.7717858,23.3717781 28.2760633,23.8675006 L17.0964024,34.9628073 L12.2448515,30.0690277 C11.7492319,29.5734082 10.9476095,29.5627995 10.451887,30.0585221 L7.45664345,33.0327543 C6.9609209,33.5284769 6.95041525,34.3299963 7.4460348,34.8257188 L16.1577946,43.6112241 C16.6535171,44.1069467 17.4550365,44.1174523 17.9507591,43.6217298 L33.0327543,28.6663173 C33.5284769,28.1705948 33.5389825,27.379581 33.04326,26.8733528 Z M20.2499517,4.21873994 C18.8472413,4.21873994 17.7187078,5.34727348 17.7187078,6.74998391 C17.7187078,8.15269434 18.8472413,9.28122787 20.2499517,9.28122787 C21.6526622,9.28122787 22.7811957,8.15269434 22.7811957,6.74998391 C22.7811957,5.34727348 21.6526622,4.21873994 20.2499517,4.21873994 Z"></path></clipPath></defs><g transform="translate(3.552713678800501e-15 0.9999999999999964)"><g clip-path="url(#i0)"><polygon points="0,0 40.4999034,0 40.4999034,53.9998713 0,53.9998713 0,0" stroke="none" fill="#151515"></polygon></g></g></svg>