<?xml version="1.0" encoding="UTF-8"?>
<svg width="41px" height="55px" viewBox="0 0 41 55" version="1.1" xmlns="http://www.w3.org/2000/svg" xmlns:xlink="http://www.w3.org/1999/xlink">
    <title></title>
    <g id="Icons" stroke="none" stroke-width="1" fill="none" fill-rule="evenodd">
        <g id="Icons/4.-Size-xl/Object/code-branch" fill="#151515">
            <path d="M8.43747988,54.9998713 C13.0992081,54.9998713 16.8749598,51.2241196 16.8749598,46.5623914 C16.8749598,42.9764624 14.639007,39.9073703 11.474952,38.6944826 C11.8019662,38.1460258 12.2975857,37.6608089 13.0464739,37.2811635 C14.7550841,36.4163012 17.3073394,36.1842499 20.0179004,35.9311873 C24.4686917,35.519819 29.5100653,35.0452107 32.4842976,31.3538133 C33.9608565,29.5187232 34.7096417,27.1561876 34.7623759,24.192564 C38.0952423,23.0534218 40.4999034,19.8999755 40.4999034,16.1874638 C40.4999034,11.5257356 36.7241518,7.74998391 32.0624236,7.74998391 C27.4006953,7.74998391 23.6249437,11.5257356 23.6249437,16.1874638 C23.6249437,20.0265583 26.1878076,23.2643588 29.6893823,24.2874239 C29.6261424,25.9855285 29.246394,27.2932761 28.5292289,28.1792527 C26.9049728,30.2042684 23.3296525,30.5416852 19.5432922,30.8898137 C16.5690599,31.1639906 13.4894622,31.4592818 10.9687238,32.6721695 L10.9687238,17.4847057 C14.3964501,16.4089064 16.8749598,13.2132315 16.8749598,9.43747988 C16.8749598,4.77575165 13.0992081,1 8.43747988,1 C3.77575165,1 3.55271368e-15,4.77575165 3.55271368e-15,9.43747988 C3.55271368e-15,13.2132315 2.47850972,16.4089064 5.90623592,17.4847057 L5.90623592,38.5045569 C2.47850972,39.5909648 3.55271368e-15,42.7866397 3.55271368e-15,46.5623914 C3.55271368e-15,51.2241196 3.77575165,54.9998713 8.43747988,54.9998713 Z M8.43747988,11.1249759 C7.5093777,11.1249759 6.74998391,10.3655821 6.74998391,9.43747988 C6.74998391,8.5093777 7.5093777,7.74998391 8.43747988,7.74998391 C9.36558207,7.74998391 10.1249759,8.5093777 10.1249759,9.43747988 C10.1249759,10.3655821 9.36558207,11.1249759 8.43747988,11.1249759 Z M32.0624236,17.8749598 C31.1343214,17.8749598 30.3749276,17.115566 30.3749276,16.1874638 C30.3749276,15.2593616 31.1343214,14.4999678 32.0624236,14.4999678 C32.9905257,14.4999678 33.7499195,15.2593616 33.7499195,16.1874638 C33.7499195,17.115566 32.9905257,17.8749598 32.0624236,17.8749598 Z M8.43747988,48.2498873 C7.5093777,48.2498873 6.74998391,47.4904936 6.74998391,46.5623914 C6.74998391,45.6342892 7.5093777,44.8748954 8.43747988,44.8748954 C9.36558207,44.8748954 10.1249759,45.6342892 10.1249759,46.5623914 C10.1249759,47.4904936 9.36558207,48.2498873 8.43747988,48.2498873 Z" id="code-branch"></path>
        </g>
    </g>
</svg>