<?xml version="1.0" encoding="UTF-8"?><svg version="1.1" width="68px" height="55px" viewBox="0 0 68.0 55.0" xmlns="http://www.w3.org/2000/svg" xmlns:xlink="http://www.w3.org/1999/xlink"><defs><clipPath id="i0"><path d="M36.5158412,0.91366992 C36.7056639,0.238630331 37.4123234,-0.141015066 38.08726,0.0488076325 L44.5208384,1.91562066 C45.195878,2.10544335 45.5755234,2.81210289 45.3857007,3.48703949 L30.9892507,53.0783481 C30.7889223,53.7533877 30.0927684,54.1436417 29.4178319,53.9432104 L22.9842534,52.0763974 C22.3092139,51.8865747 21.9295685,51.1799151 22.1193912,50.5049785 Z M50.1106689,11.8717851 C50.5958858,11.3655569 51.3974052,11.3444426 51.9036333,11.8190509 L67.1017058,26.0784125 C67.6395539,26.574135 67.6395539,27.4283887 67.1017058,27.9241112 L51.9036333,42.1729671 C51.3868995,42.6475754 50.5852771,42.6264611 50.1106689,42.1096243 L45.5227892,37.2159477 C45.0271696,36.6991109 45.0692952,35.8764772 45.6072464,35.4018689 L55.1626512,26.996009 L45.6072464,18.5796434 C45.0692952,18.1050352 45.0376753,17.2824015 45.5227892,16.7655647 Z M15.6014585,11.8296595 C16.1181924,11.3444426 16.9198148,11.3761656 17.394423,11.8823938 L21.9823027,16.7760703 C22.4779223,17.2929071 22.4357967,18.1155408 21.8978455,18.5901491 L12.3424407,26.996009 L21.8978455,35.4018689 C22.4357967,35.8764772 22.4674166,36.6991109 21.9823027,37.2159477 L17.394423,42.1096243 C16.9198148,42.6264611 16.1181924,42.6475754 15.6014585,42.1623585 L0.403386108,27.9136055 C-0.134462036,27.417883 -0.134462036,26.5636294 0.403386108,26.0679068 Z"></path></clipPath></defs><g transform="translate(0.0 0.9999999999999467)"><g clip-path="url(#i0)"><polygon points="-5.55111512e-17,0 67.5050919,0 67.5050919,53.9958201 -5.55111512e-17,53.9958201 -5.55111512e-17,0" stroke="none" fill="#151515"></polygon></g></g></svg>