<?xml version="1.0" encoding="UTF-8"?><svg version="1.1" width="41px" height="55px" viewBox="0 0 41.0 55.0" xmlns="http://www.w3.org/2000/svg" xmlns:xlink="http://www.w3.org/1999/xlink"><defs><clipPath id="i0"><path d="M8.43747988,0 C13.0992081,0 16.8749598,3.77575165 16.8749598,8.43747988 C16.8749598,12.2132315 14.3964501,15.4089064 10.9687238,16.4847057 L10.9687238,31.6721695 C13.4894622,30.4592818 16.5690599,30.1639906 19.5432922,29.8898137 C23.3296525,29.5416852 26.9049728,29.2042684 28.5292289,27.1792527 C29.246394,26.2932761 29.6261424,24.9855285 29.6893823,23.2874239 C26.1878076,22.2643588 23.6249437,19.0265583 23.6249437,15.1874638 C23.6249437,10.5257356 27.4006953,6.74998391 32.0624236,6.74998391 C36.7241518,6.74998391 40.4999034,10.5257356 40.4999034,15.1874638 C40.4999034,18.8999755 38.0952423,22.0534218 34.7623759,23.192564 C34.7096417,26.1561876 33.9608565,28.5187232 32.4842976,30.3538133 C29.5100653,34.0452107 24.4686917,34.519819 20.0179004,34.9311873 C17.3073394,35.1842499 14.7550841,35.4163012 13.0464739,36.2811635 C12.2975857,36.6608089 11.8019662,37.1460258 11.474952,37.6944826 C14.639007,38.9073703 16.8749598,41.9764624 16.8749598,45.5623914 C16.8749598,50.2241196 13.0992081,53.9998713 8.43747988,53.9998713 C3.77575165,53.9998713 0,50.2241196 0,45.5623914 C0,41.7866397 2.47850972,38.5909648 5.90623592,37.5045569 L5.90623592,16.4847057 C2.47850972,15.4089064 0,12.2132315 0,8.43747988 C0,3.77575165 3.77575165,0 8.43747988,0 Z M8.43747988,43.8748954 C7.5093777,43.8748954 6.74998391,44.6342892 6.74998391,45.5623914 C6.74998391,46.4904936 7.5093777,47.2498873 8.43747988,47.2498873 C9.36558207,47.2498873 10.1249759,46.4904936 10.1249759,45.5623914 C10.1249759,44.6342892 9.36558207,43.8748954 8.43747988,43.8748954 Z M32.0624236,13.4999678 C31.1343214,13.4999678 30.3749276,14.2593616 30.3749276,15.1874638 C30.3749276,16.115566 31.1343214,16.8749598 32.0624236,16.8749598 C32.9905257,16.8749598 33.7499195,16.115566 33.7499195,15.1874638 C33.7499195,14.2593616 32.9905257,13.4999678 32.0624236,13.4999678 Z M8.43747988,6.74998391 C7.5093777,6.74998391 6.74998391,7.5093777 6.74998391,8.43747988 C6.74998391,9.36558207 7.5093777,10.1249759 8.43747988,10.1249759 C9.36558207,10.1249759 10.1249759,9.36558207 10.1249759,8.43747988 C10.1249759,7.5093777 9.36558207,6.74998391 8.43747988,6.74998391 Z"></path></clipPath></defs><g transform="translate(3.552713678800501e-15 0.9999999999999964)"><g clip-path="url(#i0)"><polygon points="0,0 40.4999034,0 40.4999034,53.9998713 0,53.9998713 0,0" stroke="none" fill="#151515"></polygon></g></g></svg>