<?xml version="1.0" encoding="UTF-8"?>
<svg width="68px" height="55px" viewBox="0 0 68 55" version="1.1" xmlns="http://www.w3.org/2000/svg" xmlns:xlink="http://www.w3.org/1999/xlink">
    <title></title>
    <g id="Icons" stroke="none" stroke-width="1" fill="none" fill-rule="evenodd">
        <g id="Icons/4.-Size-xl/Object/code" fill="#151515">
            <path d="M30.9892507,54.0783481 L45.3857007,4.48703949 C45.5755234,3.81210289 45.195878,3.10544335 44.5208384,2.91562066 L38.08726,1.04880763 C37.4123234,0.858984934 36.7056639,1.23863033 36.5158412,1.91366992 L22.1193912,51.5049785 C21.9295685,52.1799151 22.3092139,52.8865747 22.9842534,53.0763974 L29.4178319,54.9432104 C30.0927684,55.1436417 30.7889223,54.7533877 30.9892507,54.0783481 Z M51.9036333,43.1729671 L67.1017058,28.9241112 C67.6395539,28.4283887 67.6395539,27.574135 67.1017058,27.0784125 L51.9036333,12.8190509 C51.3974052,12.3444426 50.5958858,12.3655569 50.1106689,12.8717851 L45.5227892,17.7655647 C45.0376753,18.2824015 45.0692952,19.1050352 45.6072464,19.5796434 L55.1626512,27.996009 L45.6072464,36.4018689 C45.0692952,36.8764772 45.0271696,37.6991109 45.5227892,38.2159477 L50.1106689,43.1096243 C50.5852771,43.6264611 51.3868995,43.6475754 51.9036333,43.1729671 Z M17.394423,43.1096243 L21.9823027,38.2159477 C22.4674166,37.6991109 22.4357967,36.8764772 21.8978455,36.4018689 L12.3424407,27.996009 L21.8978455,19.5901491 C22.4357967,19.1155408 22.4779223,18.2929071 21.9823027,17.7760703 L17.394423,12.8823938 C16.9198148,12.3761656 16.1181924,12.3444426 15.6014585,12.8296595 L0.403386108,27.0679068 C-0.134462036,27.5636294 -0.134462036,28.417883 0.403386108,28.9136055 L15.6014585,43.1623585 C16.1181924,43.6475754 16.9198148,43.6264611 17.394423,43.1096243 Z" id="code"></path>
        </g>
    </g>
</svg>