<?xml version="1.0" encoding="UTF-8"?><svg version="1.1" width="55px" height="48px" viewBox="0 0 55.0 48.0" xmlns="http://www.w3.org/2000/svg" xmlns:xlink="http://www.w3.org/1999/xlink"><defs><clipPath id="i0"><path d="M25.6604651,0.24518336 C26.5253274,-0.0817277867 27.4745439,-0.0817277867 28.3287975,0.24518336 L38.8756474,4.20025206 C40.362815,4.7592145 41.3436514,6.17253358 41.3436514,7.75456106 L41.3436514,19.1978931 L51.5318672,23.0158734 C53.0190348,23.5748358 53.9998713,24.9881549 53.9998713,26.5701824 L53.9998713,38.1822229 C53.9998713,39.6165533 53.1877432,40.9349095 51.9010069,41.5783291 L41.3541571,46.8517541 C40.2889664,47.3896022 39.0233445,47.3896022 37.9581538,46.8517541 L26.9999356,41.3673921 L16.0417174,46.8517541 C14.9765268,47.3896022 13.7109048,47.3896022 12.6457142,46.8517541 L2.09886432,41.5783291 C0.812128038,40.9349095 0,39.6165533 0,38.1822229 L0,26.5701824 C0,24.9881549 0.980836437,23.5748358 2.45739542,23.0158734 L12.6457142,19.1978931 L12.6457142,7.75456106 C12.6457142,6.17253358 13.6265506,4.7592145 15.1136152,4.20025206 Z M25.1015027,30.3564397 L16.1366803,34.4485968 L16.1366803,42.7912169 L25.1015027,38.3088057 L25.1015027,30.3564397 Z M50.4139423,30.3564397 L41.4491199,34.4485968 L41.4491199,42.7912169 L50.4139423,38.3088057 L50.4139423,30.3564397 Z M14.3437158,22.4041767 L3.58592895,26.4329909 L3.58592895,26.4963338 L14.3437158,30.8626679 L25.1015027,26.4963338 L25.1015027,26.4329909 L14.3437158,22.4041767 Z M39.6561555,22.4041767 L28.8983686,26.4329909 L28.8983686,26.4963338 L39.6561555,30.8626679 L50.4139423,26.4963338 L50.4139423,26.4329909 L39.6561555,22.4041767 Z M37.7577225,11.551427 L28.7929001,15.4537614 L28.7929001,22.6467336 L37.7577225,19.2822473 L37.7577225,11.551427 Z M26.9999356,3.57804971 L16.2421488,7.60686396 L16.2421488,7.67020686 L26.9999356,12.0365409 L37.7577225,7.67020686 L37.7577225,7.60686396 L26.9999356,3.57804971 Z"></path></clipPath></defs><g transform="translate(0.9999999999999964 0.0)"><g clip-path="url(#i0)"><polygon points="0,-2.77555756e-17 53.9998713,-2.77555756e-17 53.9998713,47.2551402 0,47.2551402 0,-2.77555756e-17" stroke="none" fill="#151515"></polygon></g></g></svg>