<?xml version="1.0" encoding="UTF-8"?><svg version="1.1" width="54px" height="55px" viewBox="0 0 54.0 55.0" xmlns="http://www.w3.org/2000/svg" xmlns:xlink="http://www.w3.org/1999/xlink"><defs><clipPath id="i0"><path d="M25.2174768,0.322970707 C26.3671246,-0.109408939 27.6327466,-0.109408939 28.7717858,0.333579354 L50.7092335,8.56012224 C52.681515,9.29840173 53.9893656,11.1862261 53.9893656,13.295596 L53.9893656,37.0366168 C53.9893656,38.9455555 52.9135663,40.7069 51.1944504,41.5611536 L29.2570027,52.5298775 C27.833178,53.2470427 26.1561876,53.2470427 24.7323629,52.5298775 L2.79491521,41.5611536 C1.08630494,40.7069 0,38.9560611 0,37.0366168 L0,13.295596 C0,11.1862261 1.30785058,9.28779308 3.28002911,8.54951359 Z M47.2498873,21.8596587 L30.3749276,28.7151111 L30.3749276,44.4194117 L47.2498873,35.9819319 L47.2498873,21.8596587 Z M26.9999356,6.87262626 L6.74998391,14.4663582 L6.74998391,14.5823323 L26.9999356,22.8088752 L47.2498873,14.5823323 L47.2498873,14.4663582 L26.9999356,6.87262626 Z"></path></clipPath></defs><g transform="translate(0.0 0.9999999999999645)"><g clip-path="url(#i0)"><polygon points="0,0 53.9893656,0 53.9893656,53.0677514 0,53.0677514 0,0" stroke="none" fill="#151515"></polygon></g></g></svg>