<?xml version="1.0" encoding="UTF-8"?><svg version="1.1" width="48px" height="55px" viewBox="0 0 48.0 55.0" xmlns="http://www.w3.org/2000/svg" xmlns:xlink="http://www.w3.org/1999/xlink"><defs><clipPath id="i0"><path d="M47.2498873,35.4374155 L47.2498873,46.2856334 C47.2498873,50.5344483 36.6679157,53.9998713 23.6249437,53.9998713 C10.5819717,53.9998713 0,50.5344483 0,46.2856334 L0,35.4374155 C5.07567149,38.9329135 14.3656541,40.5602594 23.6249437,40.5602594 C32.8842333,40.5602594 42.1741129,38.9329135 47.2498873,35.4374155 Z M47.2498873,18.5624557 L47.2498873,29.4106736 C47.2498873,33.6594885 36.6679157,37.1249115 23.6249437,37.1249115 C10.5819717,37.1249115 0,33.6594885 0,29.4106736 L0,18.5624557 C5.07567149,22.0579537 14.3656541,23.6852997 23.6249437,23.6852997 C32.8842333,23.6852997 42.1741129,22.0579537 47.2498873,18.5624557 Z M23.6249437,0 C36.6679157,0 47.2498873,3.46542295 47.2498873,7.71423789 L47.2498873,12.5357138 C47.2498873,16.7845288 36.6679157,20.2499517 23.6249437,20.2499517 C10.5819717,20.2499517 0,16.7845288 0,12.5357138 L0,7.71423789 C0,3.46542295 10.5819717,0 23.6249437,0 Z"></path></clipPath></defs><g transform="translate(3.552713678800501e-15 0.9999999999999964)"><g clip-path="url(#i0)"><polygon points="0,0 47.2498873,0 47.2498873,53.9998713 0,53.9998713 0,0" stroke="none" fill="#151515"></polygon></g></g></svg>