<?xml version="1.0" encoding="UTF-8"?><svg version="1.1" width="62px" height="55px" viewBox="0 0 62.0 55.0" xmlns="http://www.w3.org/2000/svg" xmlns:xlink="http://www.w3.org/1999/xlink"><defs><clipPath id="i0"><path d="M55.6873672,0 C58.4822824,0 60.7498552,2.26757272 60.7498552,5.06248793 L60.7498552,38.8124075 C60.7498552,41.6073227 58.4822824,43.8748954 55.6873672,43.8748954 L35.4374155,43.8748954 L37.1249115,48.9373833 L44.7186434,48.9373833 C46.1213538,48.9373833 47.2498873,50.0659169 47.2498873,51.4686273 C47.2498873,52.8713377 46.1213538,53.9998713 44.7186434,53.9998713 L16.0312118,53.9998713 C14.6285013,53.9998713 13.4999678,52.8713377 13.4999678,51.4686273 C13.4999678,50.0659169 14.6285013,48.9373833 16.0312118,48.9373833 L23.6249437,48.9373833 L25.3124397,43.8748954 L5.06248793,43.8748954 C2.26757272,43.8748954 0,41.6073227 0,38.8124075 L0,5.06248793 C0,2.26757272 2.26757272,0 5.06248793,0 Z M53.9998713,6.74998391 L6.74998391,6.74998391 L6.74998391,37.1249115 L53.9998713,37.1249115 L53.9998713,6.74998391 Z"></path></clipPath></defs><g transform="translate(0.9999999999999964 0.9999999999999964)"><g clip-path="url(#i0)"><polygon points="0,0 60.7498552,0 60.7498552,53.9998713 0,53.9998713 0,0" stroke="none" fill="#151515"></polygon></g></g></svg>