<?xml version="1.0" encoding="UTF-8"?><svg version="1.1" width="61px" height="41px" viewBox="0 0 61.0 41.0" xmlns="http://www.w3.org/2000/svg" xmlns:xlink="http://www.w3.org/1999/xlink"><defs><clipPath id="i0"><path d="M55.6873672,20.2499517 C58.4833124,20.2499517 60.7498552,22.5164945 60.7498552,25.3124397 L60.7498552,35.4374155 C60.7498552,38.2333607 58.4833124,40.4999034 55.6873672,40.4999034 L5.06248793,40.4999034 C2.26654275,40.4999034 0,38.2333607 0,35.4374155 L0,25.3124397 C0,22.5164945 2.26654275,20.2499517 5.06248793,20.2499517 Z M50.6248793,26.9999356 C48.7609502,26.9999356 47.2498873,28.5109985 47.2498873,30.3749276 C47.2498873,32.2388567 48.7609502,33.7499195 50.6248793,33.7499195 C52.4888084,33.7499195 53.9998713,32.2388567 53.9998713,30.3749276 C53.9998713,28.5109985 52.4888084,26.9999356 50.6248793,26.9999356 Z M40.4999034,26.9999356 C38.6359743,26.9999356 37.1249115,28.5109985 37.1249115,30.3749276 C37.1249115,32.2388567 38.6359743,33.7499195 40.4999034,33.7499195 C42.3638326,33.7499195 43.8748954,32.2388567 43.8748954,30.3749276 C43.8748954,28.5109985 42.3638326,26.9999356 40.4999034,26.9999356 Z M44.5404593,0 C46.0360726,0 47.923176,1.00998447 48.7528135,2.25428616 L58.9334075,17.5251772 C58.0755489,17.1662341 56.6246361,16.8749598 55.69468,16.8749598 L5.05517517,16.8749598 C4.12521905,16.8749598 2.67430622,17.1662341 1.8164477,17.5251772 L11.9971447,2.25428616 C12.8267822,1.00988147 14.7137825,0 16.2093959,0 Z"></path></clipPath></defs><g clip-path="url(#i0)"><polygon points="0,0 60.7498552,0 60.7498552,40.4999034 0,40.4999034 0,0" stroke="none" fill="#151515"></polygon></g></svg>