<?xml version="1.0" encoding="UTF-8"?><svg version="1.1" width="55px" height="55px" viewBox="0 0 55.0 55.0" xmlns="http://www.w3.org/2000/svg" xmlns:xlink="http://www.w3.org/1999/xlink"><defs><clipPath id="i0"><path d="M35.4373125,0 C45.7193582,0 53.9998713,8.2804101 53.9998713,18.5625587 C53.9998713,28.8143234 45.6891802,37.1249115 35.4374155,37.1249115 C34.2540878,37.1249115 33.0970242,37.0129542 31.9751855,36.8011932 L29.4427055,39.6503876 C29.0258784,40.1193311 28.1783195,40.4999034 27.5508643,40.4999034 L23.6249437,40.4999034 L23.6249437,44.7186434 C23.6249437,46.116616 22.4916723,47.2498873 21.0936997,47.2498873 L16.8749598,47.2498873 L16.8749598,51.4686273 C16.8749598,52.8665999 15.7416884,53.9998713 14.3437158,53.9998713 L2.53124397,53.9998713 C1.13327138,53.9998713 0,52.8665999 0,51.4686273 L0,43.2359046 C0,42.5645729 0.266761144,41.9206383 0.741369387,41.445927 L17.8063578,24.3809386 C17.2027979,22.5506893 16.8749598,20.5949903 16.8749598,18.5624557 C16.8749598,8.31069109 25.1855479,0 35.4373125,0 Z M40.4999034,8.43747988 C37.7039583,8.43747988 35.4374155,10.7040226 35.4374155,13.4999678 C35.4374155,16.295913 37.7039583,18.5624557 40.4999034,18.5624557 C43.2958486,18.5624557 45.5623914,16.295913 45.5623914,13.4999678 C45.5623914,10.7040226 43.2958486,8.43747988 40.4999034,8.43747988 Z"></path></clipPath></defs><g transform="translate(0.9999999999999964 0.9999999999999964)"><g clip-path="url(#i0)"><polygon points="0,0 53.9998713,0 53.9998713,53.9998713 0,53.9998713 0,0" stroke="none" fill="#151515"></polygon></g></g></svg>