<?xml version="1.0" encoding="UTF-8"?><svg version="1.1" width="68px" height="41px" viewBox="0 0 68.0 41.0" xmlns="http://www.w3.org/2000/svg" xmlns:xlink="http://www.w3.org/1999/xlink"><defs><clipPath id="i0"><path d="M67.4998391,30.3749276 L67.4998391,40.4999034 L60.7498552,40.4999034 L60.7498552,37.6870668 C60.7498552,36.7547418 59.9946842,35.9995708 59.0623592,35.9995708 C58.1300341,35.9995708 57.3748632,36.7547418 57.3748632,37.6870668 L57.3748632,40.4999034 L43.8748954,40.4999034 L43.8748954,37.6870668 C43.8748954,36.7547418 43.1197245,35.9995708 42.1873994,35.9995708 C41.2550744,35.9995708 40.4999034,36.7547418 40.4999034,37.6870668 L40.4999034,40.4999034 L26.9999356,40.4999034 L26.9999356,37.6870668 C26.9999356,36.7547418 26.2447647,35.9995708 25.3124397,35.9995708 C24.3801146,35.9995708 23.6249437,36.7547418 23.6249437,37.6870668 L23.6249437,40.4999034 L10.1249759,40.4999034 L10.1249759,37.6870668 C10.1249759,36.7547418 9.36980493,35.9995708 8.43747988,35.9995708 C7.50515484,35.9995708 6.74998391,36.7547418 6.74998391,37.6870668 L6.74998391,40.4999034 L0,40.4999034 L0,30.3749276 L67.4998391,30.3749276 Z M64.1248471,0 C65.9884672,0 67.4998391,1.51137182 67.4998391,3.37499195 L67.4998391,7.06010661 C65.5381662,7.75718747 64.1248471,9.61133191 64.1248471,11.8124718 C64.1248471,14.0136118 65.5381662,15.8677562 67.4998391,16.5648371 L67.4998391,26.9999356 L0,26.9999356 L0,16.5648371 C1.96167287,15.8677562 3.37499195,14.0136118 3.37499195,11.8124718 C3.37499195,9.61133191 1.96167287,7.75718747 0,7.06010661 L0,3.37499195 C0,1.51137182 1.51137182,0 3.37499195,0 Z M23.6249437,6.74998391 L16.8749598,6.74998391 L16.8749598,20.2499517 L23.6249437,20.2499517 L23.6249437,6.74998391 Z M37.1249115,6.74998391 L30.3749276,6.74998391 L30.3749276,20.2499517 L37.1249115,20.2499517 L37.1249115,6.74998391 Z M50.6248793,6.74998391 L43.8748954,6.74998391 L43.8748954,20.2499517 L50.6248793,20.2499517 L50.6248793,6.74998391 Z"></path></clipPath></defs><g transform=""><g clip-path="url(#i0)"><polygon points="0,0 67.4998391,0 67.4998391,40.4999034 0,40.4999034 0,0" stroke="none" fill="#151515"></polygon></g></g></svg>