<?xml version="1.0" encoding="UTF-8"?><svg version="1.1" width="55px" height="55px" viewBox="0 0 55.0 55.0" xmlns="http://www.w3.org/2000/svg" xmlns:xlink="http://www.w3.org/1999/xlink"><defs><clipPath id="i0"><path d="M38.8124075,0 C41.6083526,0 43.8748954,2.26654275 43.8748954,5.06248793 L43.8748954,48.9373833 C43.8748954,51.7333285 41.6083526,53.9998713 38.8124075,53.9998713 L15.1874638,53.9998713 C12.3915186,53.9998713 10.1249759,51.7333285 10.1249759,48.9373833 L10.1249759,5.06248793 C10.1249759,2.26654275 12.3915186,0 15.1874638,0 Z M50.8358163,39.6561555 C51.1850777,39.6561555 51.4686273,39.939705 51.4686273,40.2889664 L51.4686273,40.9217774 L53.3670603,40.9217774 C53.7163217,40.9217774 53.9998713,41.205327 53.9998713,41.5545884 L53.9998713,42.8202104 C53.9998713,43.1694718 53.7163217,43.4530214 53.3670603,43.4530214 L51.4686273,43.4530214 L51.4686273,44.0858324 C51.4686273,44.4350938 51.1850777,44.7186434 50.8358163,44.7186434 L46.4061394,44.7186434 L46.4061394,39.6561555 Z M7.5937319,39.6561555 L7.5937319,44.7186434 L3.16405496,44.7186434 C2.81479355,44.7186434 2.53124397,44.4350938 2.53124397,44.0858324 L2.53124397,43.4530214 L0.632810991,43.4530214 C0.283549586,43.4530214 0,43.1694718 0,42.8202104 L0,41.5545884 C0,41.205327 0.283549586,40.9217774 0.632810991,40.9217774 L2.53124397,40.9217774 L2.53124397,40.2889664 C2.53124397,39.939705 2.81479355,39.6561555 3.16405496,39.6561555 L7.5937319,39.6561555 Z M50.8358163,29.5311796 C51.1850777,29.5311796 51.4686273,29.8147292 51.4686273,30.1639906 L51.4686273,30.7968016 L53.3670603,30.7968016 C53.7163217,30.7968016 53.9998713,31.0803512 53.9998713,31.4296126 L53.9998713,32.6952345 C53.9998713,33.044496 53.7163217,33.3280455 53.3670603,33.3280455 L51.4686273,33.3280455 L51.4686273,33.9608565 C51.4686273,34.3101179 51.1850777,34.5936675 50.8358163,34.5936675 L46.4061394,34.5936675 L46.4061394,29.5311796 Z M7.5937319,29.5311796 L7.5937319,34.5936675 L3.16405496,34.5936675 C2.81479355,34.5936675 2.53124397,34.3101179 2.53124397,33.9608565 L2.53124397,33.3280455 L0.632810991,33.3280455 C0.283549586,33.3280455 0,33.044496 0,32.6952345 L0,31.4296126 C0,31.0803512 0.283549586,30.7968016 0.632810991,30.7968016 L2.53124397,30.7968016 L2.53124397,30.1639906 C2.53124397,29.8147292 2.81479355,29.5311796 3.16405496,29.5311796 L7.5937319,29.5311796 Z M50.8358163,19.4062037 C51.1850777,19.4062037 51.4686273,19.6897533 51.4686273,20.0390147 L51.4686273,20.6718257 L53.3670603,20.6718257 C53.7163217,20.6718257 53.9998713,20.9553753 53.9998713,21.3046367 L53.9998713,22.5702587 C53.9998713,22.9195201 53.7163217,23.2030697 53.3670603,23.2030697 L51.4686273,23.2030697 L51.4686273,23.8358807 C51.4686273,24.1851421 51.1850777,24.4686917 50.8358163,24.4686917 L46.4061394,24.4686917 L46.4061394,19.4062037 Z M7.5937319,19.4062037 L7.5937319,24.4686917 L3.16405496,24.4686917 C2.81479355,24.4686917 2.53124397,24.1851421 2.53124397,23.8358807 L2.53124397,23.2030697 L0.632810991,23.2030697 C0.283549586,23.2030697 0,22.9195201 0,22.5702587 L0,21.3046367 C0,20.9553753 0.283549586,20.6718257 0.632810991,20.6718257 L2.53124397,20.6718257 L2.53124397,20.0390147 C2.53124397,19.6897533 2.81479355,19.4062037 3.16405496,19.4062037 L7.5937319,19.4062037 Z M50.8358163,9.28122787 C51.1850777,9.28122787 51.4686273,9.56477746 51.4686273,9.91403886 L51.4686273,10.5468499 L53.3670603,10.5468499 C53.7163217,10.5468499 53.9998713,10.8303994 53.9998713,11.1796608 L53.9998713,12.4452828 C53.9998713,12.7945442 53.7163217,13.0780938 53.3670603,13.0780938 L51.4686273,13.0780938 L51.4686273,13.7109048 C51.4686273,14.0601662 51.1850777,14.3437158 50.8358163,14.3437158 L46.4061394,14.3437158 L46.4061394,9.28122787 Z M7.5937319,9.28122787 L7.5937319,14.3437158 L3.16405496,14.3437158 C2.81479355,14.3437158 2.53124397,14.0601662 2.53124397,13.7109048 L2.53124397,13.0780938 L0.632810991,13.0780938 C0.283549586,13.0780938 0,12.7945442 0,12.4452828 L0,11.1796608 C0,10.8303994 0.283549586,10.5468499 0.632810991,10.5468499 L2.53124397,10.5468499 L2.53124397,9.91403886 C2.53124397,9.56477746 2.81479355,9.28122787 3.16405496,9.28122787 L7.5937319,9.28122787 Z"></path></clipPath></defs><g transform="translate(0.9999999999999964 0.9999999999999964)"><g clip-path="url(#i0)"><polygon points="0,0 53.9998713,0 53.9998713,53.9998713 0,53.9998713 0,0" stroke="none" fill="#151515"></polygon></g></g></svg>