<?xml version="1.0" encoding="UTF-8"?><svg version="1.1" width="54px" height="48px" viewBox="0 0 54.0 48.0" xmlns="http://www.w3.org/2000/svg" xmlns:xlink="http://www.w3.org/1999/xlink"><defs><clipPath id="i0"><path d="M47.26875,36 C48,35.1375 48,36 48,36 L48,42 C48,45.3140625 38.6015625,48 27,48 C15.3984375,48 6,45.3140625 6,42 L6.0005779,35.9821361 C6.00627363,35.8630435 6.06786685,35.2125 6.73125,36 C8.2359375,37.78125 12.8578125,40.509375 27,40.5 C41.1421875,40.490625 45.759375,37.7765625 47.26875,36 Z M53.25,6 C53.6625,6 54,6.3375 54,6.75 L54,41.25 C54,41.6625 53.6625,42 53.25,42 L51.75,42 C51.3375,42 51,41.6625 51,41.25 L51,6.75 C51,6.3375 51.3375,6 51.75,6 Z M2.25,6 C2.6625,6 3,6.3375 3,6.75 L3,41.25 C3,41.6625 2.6625,42 2.25,42 L0.75,42 C0.3375,42 0,41.6625 0,41.25 L0,6.75 C0,6.3375 0.3375,6 0.75,6 Z M47.26875,25.5 C48,24.6375 48,25.5 48,25.5 L48,30 C48,33.3140625 38.6015625,36 27,36 C15.3984375,36 6,33.3140625 6,30 L6.00048081,25.4821361 C6.0055293,25.3630435 6.06358696,24.7125 6.73125,25.5 C8.2359375,27.2765625 12.8578125,30 27,30 C41.1421875,30 45.7640625,27.2765625 47.26875,25.5 Z M47.26875,15 C48,14.1375 48,15 48,15 L48,19.5 C48,22.8140625 38.6015625,25.5 27,25.5 C15.3984375,25.5 6,22.8140625 6,19.5 L6.00048081,14.9821361 C6.0055293,14.8630435 6.06358696,14.2125 6.73125,15 C8.2359375,16.7765625 12.8578125,19.5 27,19.5 C41.1421875,19.5 45.7640625,16.7765625 47.26875,15 Z M27,0 C38.6015625,0 48,2.6859375 48,6 L48,9 C48,12.3140625 38.6015625,15 27,15 C15.3984375,15 6,12.3140625 6,9 L6,6 C6,2.6859375 15.3984375,0 27,0 Z"></path></clipPath></defs><g clip-path="url(#i0)"><polygon points="0,0 54,0 54,48 0,48 0,0" stroke="none" fill="#151515"></polygon></g></svg>