<?xml version="1.0" encoding="UTF-8"?><svg version="1.1" width="54px" height="54px" viewBox="0 0 54.0 54.0" xmlns="http://www.w3.org/2000/svg" xmlns:xlink="http://www.w3.org/1999/xlink"><defs><clipPath id="i0"><path d="M27.0052734,0 C41.5863281,0 53.5042969,11.6226563 53.9841797,26.0876953 C54,26.5623047 53.6150391,26.9578125 53.1404297,26.9578125 L48.0726563,26.9578125 C47.6244141,26.9578125 47.25,26.6044922 47.2289063,26.1509766 C46.7859375,15.3773438 37.8791016,6.75 27,6.75 C21.4154297,6.75 16.3529297,9.02285156 12.6878906,12.6878906 L16.0470703,16.0470703 L17.5816406,14.5125 C17.8189453,14.2751953 18.2408203,14.2224609 18.5150391,14.428125 L21.8953125,17.3285156 C22.4806641,17.0226563 23.0976562,16.7642578 23.7410156,16.5691406 L23.9888672,12.0867187 C24.0837891,11.7492188 24.3738281,11.5066406 24.7113281,11.5066406 L29.2095703,11.5066406 C29.5470703,11.5066406 29.8845703,11.7703125 29.9320313,12.1078125 L30.2273438,16.5849609 C30.8496094,16.7800781 31.4507812,17.0279297 32.0255859,17.3285156 L35.3847656,14.3226563 C35.690625,14.1486328 36.0703125,14.1855469 36.3076172,14.4228516 L39.4875,17.6027344 C39.7248047,17.8400391 39.7775391,18.2619141 39.571875,18.5361328 L36.6345703,21.8900391 C36.9404297,22.4701172 37.2041016,23.0818359 37.4044922,23.7146484 L41.8605469,23.9625 C42.1980469,24.0574219 42.440625,24.3474609 42.4458984,24.6902344 L42.4458984,29.1884766 C42.4458984,29.5259766 42.1822266,29.8634766 41.8447266,29.9109375 L37.4677734,30.2009766 C37.2673828,30.8601563 37.0089844,31.4982422 36.6978516,32.0994141 L38.1796875,33.7552734 L53.578125,33.7552734 C53.8101562,33.75 54,33.9398438 54,34.171875 L54,52.9822266 C54,53.3566406 53.5464844,53.5464844 53.2775391,53.2828125 L46.0845703,46.0845703 C41.1960938,50.9730469 34.4460938,54 27.0052734,54 C12.4083984,54 0.474609375,42.35625 0.0158203125,27.8701172 C0,27.3955078 0.384960937,27 0.859570313,27 L5.92734375,27 C6.38085938,27 6.75,27.3533203 6.77109375,27.8068359 C7.19296875,38.6068359 16.1050781,47.25 27.0052734,47.25 C32.5898438,47.25 37.6523438,44.9771484 41.3226563,41.3121094 L37.9107422,37.9001953 L36.3392578,39.4716797 C36.1019531,39.7089844 35.6800781,39.7617188 35.4058594,39.5560547 L32.1626953,36.7136719 C31.5457031,37.0458984 30.8970703,37.3201172 30.2220703,37.5310547 L30.0533203,41.8447266 C29.9583984,42.1822266 29.6683594,42.4248047 29.3308594,42.4248047 L24.8326172,42.4248047 C24.4951172,42.4248047 24.1576172,42.1611328 24.1101562,41.8236328 L23.7832031,37.5626953 C23.0923828,37.3517578 22.4226562,37.0775391 21.7951172,36.7400391 L18.6363281,39.65625 C18.3304688,39.8302734 17.9507812,39.7933594 17.7134766,39.5560547 L14.5335938,36.3761719 C14.2962891,36.1388672 14.2435547,35.7169922 14.4492188,35.4427734 L17.2546875,32.1732422 C16.9277344,31.5509766 16.6587891,30.8970703 16.453125,30.2115234 L12.1130859,30.0375 C11.7755859,29.9425781 11.5330078,29.6525391 11.5330078,29.3150391 L11.5330078,24.8167969 C11.5330078,24.4792969 11.7966797,24.1417969 12.1341797,24.0943359 L16.5005859,23.7568359 C16.7115234,23.0976562 16.9804688,22.4648438 17.3021484,21.8636719 L15.8150391,20.2552734 L0.421875,20.2552734 C0.18984375,20.2552734 0,20.0654297 0,19.8333984 L0,1.01777344 C0,0.643359375 0.453515625,0.453515625 0.722460937,0.7171875 L7.92070312,7.91542969 C12.8091797,3.03222656 19.5591797,0 27.0052734,0 Z M26.9525391,20.2974609 C23.2242187,20.2974609 20.2025391,23.3191406 20.2025391,27.0474609 C20.2025391,30.7757813 23.2242187,33.7974609 26.9525391,33.7974609 C30.6808594,33.7974609 33.7025391,30.7757813 33.7025391,27.0474609 C33.7025391,23.3191406 30.6808594,20.2974609 26.9525391,20.2974609 Z"></path></clipPath></defs><g clip-path="url(#i0)"><polygon points="0,0 54,0 54,54 0,54 0,0" stroke="none" fill="#151515"></polygon></g></svg>