<?xml version="1.0" encoding="UTF-8"?><svg version="1.1" width="48px" height="54px" viewBox="0 0 48.0 54.0" xmlns="http://www.w3.org/2000/svg" xmlns:xlink="http://www.w3.org/1999/xlink"><defs><clipPath id="i0"><path d="M40.4841797,33.75 C40.4841797,33.75 42.8835937,31.0869141 45.5466797,33.75 C47.9264586,36.1297789 46.0530156,38.2990023 45.627478,38.7336064 L45.5771522,38.783728 C45.5575297,38.8027242 45.5466797,38.8125 45.5466797,38.8125 L37.1091797,47.25 L34.2298828,50.1292969 C33.9134766,50.4457031 33.4810547,50.625 33.0328125,50.625 L13.4841797,50.625 L10.1091797,54 L0,44.8242188 L5.09941406,39.4453125 C7.05058594,37.2832031 9.09140625,37.0722656 10.1619141,37.0986328 L28.6716797,37.125 L28.7000991,37.1257681 C28.9213099,37.1349852 30.3591797,37.2548077 30.3591797,38.8125 C30.3591797,40.5 28.6716797,40.5 28.6716797,40.5 L20.203984,40.5007681 C19.9689476,40.5099852 18.4412109,40.6298077 18.4412109,42.1875 C18.4412109,43.875 20.1287109,43.875 20.1287109,43.875 L30.3591797,43.875 Z M34.2720703,0 C34.6042969,0 34.9365234,0.258398438 34.9681641,0.606445312 L35.2898437,5.46855469 C35.9121094,5.653125 35.9964844,5.653125 36.5660156,5.93789062 L40.0886719,2.86347656 C40.2257812,2.74746094 40.3945312,2.7 40.5580078,2.7 C40.7478516,2.7 40.9166016,2.76855469 41.0537109,2.88984375 C41.6654297,3.459375 44.4708984,6.02226563 44.4708984,6.68671875 C44.4708984,6.85019531 44.4023437,6.99785156 44.3074219,7.13496094 C43.621875,8.0578125 41.85,9.87714844 41.1855469,10.8 C41.4914062,11.4539062 41.3912109,11.2587891 41.6021484,11.9232422 L46.6646484,12.3398438 C46.996875,12.4083984 47.2341797,12.7195312 47.2447266,13.0148438 L47.2447266,17.4023438 C47.2447266,17.7029297 47.0074219,18.0615234 46.7015625,18.1089844 L41.428125,18.4992188 C41.2382812,19.1267578 41.2962891,19.1162109 40.9904297,19.7068359 C41.6548828,20.6507813 43.6429687,22.3277344 44.3970703,23.2294922 C44.4867187,23.3666016 44.5605469,23.5089844 44.5605469,23.6988281 C44.5605469,23.8623047 44.5183594,24.0257813 44.3970703,24.1470703 C43.9277344,24.7798828 41.2699219,27.6802734 40.5791016,27.6802734 C40.3892578,27.6802734 40.2205078,27.6117188 40.0833984,27.5167969 L36.3550781,24.1839844 C35.7486328,24.4951172 35.8066406,24.5267578 35.1685547,24.7166016 C35.0525391,25.9400391 35.2740234,28.6453125 34.9681641,29.8054688 C34.8785156,30.1376953 34.59375,30.375 34.2615234,30.375 L29.8529297,30.375 C29.5259766,30.375 29.19375,30.1166016 29.1462891,29.784375 L28.7560547,24.721875 C28.1285156,24.5320312 28.0810547,24.5583984 27.5115234,24.2736328 L24.0152344,27.5378906 C23.9044922,27.6539062 23.709375,27.7013672 23.5458984,27.7013672 C23.3560547,27.7013672 23.1873047,27.6328125 23.0501953,27.5115234 C22.4384766,26.9419922 19.6330078,24.4054688 19.6330078,23.7146484 C19.6330078,23.5511719 19.7015625,23.4035156 19.7964844,23.2664062 C20.4820312,22.3699219 22.2169922,20.3923828 22.9078125,19.4695312 C22.5755859,18.815625 22.6230469,19.0318359 22.4121094,18.3673828 L17.4445312,18.0457031 C17.1123047,17.9929687 16.875,17.6871094 16.875,17.3548828 L16.8802734,12.9621094 C16.8802734,12.6615234 17.1175781,12.3029297 17.4234375,12.2554688 L22.3435547,12.0181641 C22.5333984,11.390625 22.4859375,11.1164063 22.7917969,10.5257812 C22.1273437,9.5765625 20.4820312,8.04199219 19.7279297,7.14023438 C19.6382812,7.003125 19.5644531,6.834375 19.5644531,6.67089844 C19.5644531,6.50742188 19.6066406,6.33867188 19.7279297,6.2015625 C20.1972656,5.56347656 22.8550781,2.68945312 23.5458984,2.68945312 C23.7357422,2.68945312 23.9044922,2.75800781 24.0416016,2.85292969 L27.6960937,6.05917969 C28.3025391,5.74804688 28.2445312,5.70058594 28.8826172,5.48964844 C29.0039062,4.29785156 28.8509766,1.7296875 29.1568359,0.56953125 C29.2464844,0.237304688 29.53125,0 29.8634766,0 Z M11.7439453,17.7451172 C14.0748047,17.7451172 15.9626953,19.6382812 15.9626953,21.9638672 C15.9626953,24.2894531 14.0695312,26.1826172 11.7439453,26.1826172 C9.41835937,26.1826172 7.52519531,24.2894531 7.52519531,21.9638672 C7.52519531,19.6382812 9.41308594,17.7451172 11.7439453,17.7451172 Z M11.7439453,20.2763672 C10.8158203,20.2763672 10.0564453,21.0357422 10.0564453,21.9638672 C10.0564453,22.8919922 10.8158203,23.6513672 11.7439453,23.6513672 C12.6720703,23.6513672 13.4314453,22.8919922 13.4314453,21.9638672 C13.4314453,21.0357422 12.6720703,20.2763672 11.7439453,20.2763672 Z M31.9728516,9.28652344 C28.6980469,9.28652344 26.0349609,11.9443359 26.0349609,15.2244141 C26.0349609,18.5044922 28.7085937,21.1623047 31.9728516,21.1623047 C35.2529297,21.1623047 37.9107422,18.5044922 37.9107422,15.2244141 C37.9107422,11.9443359 35.2476562,9.28652344 31.9728516,9.28652344 Z M10.125,1.6875 C13.8533203,1.6875 16.875,4.71972656 16.875,8.44277344 C16.875,12.1658203 13.8533203,15.1875 10.125,15.1875 C6.39667969,15.1875 3.375,12.1710938 3.375,8.44277344 C3.375,4.71445313 6.39667969,1.6875 10.125,1.6875 Z M10.125,5.90625 C8.72753906,5.90625 7.59375,7.0453125 7.59375,8.44277344 C7.59375,9.84023438 8.72753906,10.9740234 10.125,10.9740234 C11.5224609,10.9740234 12.65625,9.83496094 12.65625,8.4375 C12.65625,7.04003906 11.5224609,5.90625 10.125,5.90625 Z"></path></clipPath></defs><g clip-path="url(#i0)"><polygon points="0,0 47.2447266,0 47.2447266,54 0,54 0,0" stroke="none" fill="#151515"></polygon></g></svg>