<?xml version="1.0" encoding="UTF-8"?><svg version="1.1" width="44px" height="54px" viewBox="0 0 44.0 54.0" xmlns="http://www.w3.org/2000/svg" xmlns:xlink="http://www.w3.org/1999/xlink"><defs><clipPath id="i0"><path d="M40.5,0 C42.3615234,0 43.875,1.51347656 43.875,3.375 L43.875,40.5 C43.875,42.3615234 42.2296875,43.875 40.3681641,43.875 L40.3681641,54 L3.24316406,54 L3.375,43.875 C1.51347656,43.875 0,42.3615234 0,40.5 L0,3.375 C0,1.51347656 1.51347656,0 3.375,0 Z M10.125,43.7378906 L6.75,43.7378906 L6.75,50.4878906 L10.125,50.4878906 L10.125,43.7378906 Z M16.875,43.7378906 L13.5,43.7378906 L13.5,50.4878906 L16.875,50.4878906 L16.875,43.7378906 Z M23.625,43.7378906 L20.25,43.7378906 L20.25,50.4878906 L23.625,50.4878906 L23.625,43.7378906 Z M30.375,43.7378906 L27,43.7378906 L27,50.4878906 L30.375,50.4878906 L30.375,43.7378906 Z M37.125,43.7378906 L33.75,43.7378906 L33.75,50.4878906 L37.125,50.4878906 L37.125,43.7378906 Z M16.875,10.125 L13.5,10.125 L13.5,13.5 L10.125,13.5 L10.125,16.875 L13.5,16.875 L13.5,20.25 L10.125,20.25 L10.125,23.625 L13.5,23.625 L13.5,27 L10.125,27 L10.125,30.375 L13.5,30.375 L13.5,33.75 L16.875,33.75 L16.875,30.375 L20.25,30.375 L20.25,33.75 L23.625,33.75 L23.625,30.375 L27,30.375 L27,33.75 L30.375,33.75 L30.375,30.375 L33.6972656,30.375 L33.6972656,27 L30.375,27 L30.375,23.625 L33.6972656,23.625 L33.6972656,20.25 L30.375,20.25 L30.375,16.875 L33.6972656,16.875 L33.6972656,13.5 L30.375,13.5 L30.375,10.125 L27,10.125 L27,13.5 L23.625,13.5 L23.625,10.125 L20.25,10.125 L20.25,13.5 L16.875,13.5 L16.875,10.125 Z"></path></clipPath></defs><g clip-path="url(#i0)"><polygon points="0,0 43.875,0 43.875,54 0,54 0,0" stroke="none" fill="#151515"></polygon></g></svg>