<?xml version="1.0" encoding="UTF-8"?>
<svg width="54px" height="44px" viewBox="0 0 54 44" version="1.1" xmlns="http://www.w3.org/2000/svg" xmlns:xlink="http://www.w3.org/1999/xlink">
    <title></title>
    <g id="Icons" stroke="none" stroke-width="1" fill="none" fill-rule="evenodd">
        <g id="Icons/4.-Size-xl/Object/pficon-port" fill="#151515">
            <path d="M21.6675,16.99875 C21.5325,16.633125 21.02625,16.605 20.84625,16.948125 L14.895,28.33875 C14.7375,28.636875 14.43375,28.8 14.09625,28.8 L0,28.8 L0,21.6 L10.006875,21.6 C10.175625,21.6 10.3275,21.52125 10.40625,21.375 L21.22875,0.658125 C21.45375,0.225 21.808125,0 22.24125,0 C22.674375,0 23.1075,0.331875 23.281875,0.781875 L33.080625,26.926875 C33.215625,27.28125 33.69375,27.320625 33.890625,27 L41.158125,14.878125 C41.32125,14.608125 41.61375,14.4 41.92875,14.4 L54,14.4 L54,21.6 L45.75375,21.6 C45.59625,21.6 45.45,21.72375 45.365625,21.85875 L32.86125,42.705 C32.68125,43.003125 32.4225,43.2 32.07375,43.2 C31.725,43.2 31.3875,42.935625 31.246875,42.55875 L21.6675,16.99875 Z" id="pficon-port"></path>
        </g>
    </g>
</svg>