<?xml version="1.0" encoding="UTF-8"?><svg version="1.1" width="54px" height="56px" viewBox="0 0 54.0 56.0" xmlns="http://www.w3.org/2000/svg" xmlns:xlink="http://www.w3.org/1999/xlink"><defs><clipPath id="i0"><path d="M25.4443359,0.272631515 C26.4495927,-0.0908771718 27.5504073,-0.0908771718 28.5556641,0.272631515 C36.0439453,2.99829558 43.5322266,5.72554165 51.0205078,8.4543698 C52.7834902,9.09786618 53.9679929,10.760782 54,12.6372604 L54,36.626655 C53.9419922,38.265112 53.0560547,40.3618307 51.6480469,41.1306979 C44.3865234,45.1110885 33.7289063,50.9508932 29.1832031,53.4431198 C27.8224386,54.185653 26.1775614,54.185653 24.8167969,53.4431198 L2.35195313,41.1306979 C0.996679687,40.3512839 0.06328125,38.2614206 0.0052734375,36.626655 L0,12.6372604 C0.0377229148,10.7638991 1.22055213,9.10542602 2.97949219,8.45964323 Z M38.9337891,34.9486471 L30.2484375,38.7681979 L30.2484375,47.3027292 L47.3027344,37.946069 L38.9337891,34.9486471 Z M15.0345703,34.957612 L6.68671875,37.9497604 L23.4984375,47.1619284 L23.4984375,38.671694 L15.0345703,34.957612 Z M48.9375,30.554819 L43.4214844,32.9779635 L48.9375,34.9539206 L48.9375,30.554819 Z M5.0625,30.5811862 L5.0625,34.9486471 L10.5416016,32.9774362 L5.0625,30.5811862 Z M37.0828125,21.5931393 L30.2484375,24.0468698 L30.2484375,32.7570065 L48.0568359,25.5287057 L37.0828125,21.5931393 Z M16.8697266,21.5984128 L5.90097656,25.5339792 L23.4931641,32.6620846 L23.4931641,23.9798971 L16.8697266,21.5984128 Z M48.9375,17.3496042 L42.0820312,19.80228 L48.9375,22.2649753 L48.9375,17.3496042 Z M5.0625,17.3680612 L5.0625,22.2570651 L11.8757812,19.8128268 L5.0625,17.3680612 Z M27.0105469,5.00976042 L6.32285156,12.547612 L26.9736328,19.9546823 L47.6560547,12.5317917 L27.0105469,5.00976042 Z"></path></clipPath></defs><g transform="translate(0.0 0.9999999999999787)"><g clip-path="url(#i0)"><polygon points="0,0 54,0 54,54.0000197 0,54.0000197 0,0" stroke="none" fill="#151515"></polygon></g></g></svg>