<?xml version="1.0" encoding="UTF-8"?><svg version="1.1" width="54px" height="55px" viewBox="0 0 54.0 55.0" xmlns="http://www.w3.org/2000/svg" xmlns:xlink="http://www.w3.org/1999/xlink"><defs><clipPath id="i0"><path d="M40.5,13.5000448 L40.5,52.3125448 C40.5,53.2459434 39.7458984,54.0000448 38.8125,54.0000448 L1.6875,54.0000448 C0.754101563,54.0000448 0,53.2459434 0,52.3125448 L0,15.1875448 C0,14.2541464 0.754101563,13.5000448 1.6875,13.5000448 L40.5,13.5000448 Z M52.3125,13.5000448 C53.2458984,13.5000448 54,14.2541464 54,15.1875448 L54,48.9375448 C54,49.8709433 53.2458984,50.6250448 52.3125,50.6250448 L43.875,50.6250448 L43.875,13.5000448 Z M33.75,40.5000448 L16.875,40.5000448 L16.875,45.5625448 L33.75,45.5625448 L33.75,40.5000448 Z M33.75,30.3750448 L6.75,30.3750448 L6.75,35.4375448 L33.75,35.4375448 L33.75,30.3750448 Z M33.75,20.2500448 L23.625,20.2500448 L23.625,25.3125448 L33.75,25.3125448 L33.75,20.2500448 Z M29.53125,1.48941958e-05 L39.65625,10.1250448 L1.16542969,10.1250448 C0.56953125,10.1303183 0,10.0406698 0,9.5555136 C0,9.07035735 0.06328125,9.00180266 0.50625,8.56938078 L0.575367499,8.50088015 C0.891834851,8.18719331 2.25208769,6.8384218 3.76222263,5.33403534 L4.19699599,4.90073594 C4.34276513,4.75539781 4.48912156,4.60940792 4.63529308,4.46352601 L5.07248077,4.02696386 C6.74032045,2.36054175 8.28158535,0.808870782 8.521875,0.527388618 C8.92331543,0.0567343221 9.58719177,0.00595453674 9.74688835,0.00061356377 L29.53125,1.48941958e-05 Z M44.3373328,0.000204244115 C44.4184453,0.00243549411 45.0425391,0.0359042441 45.5150391,0.537935493 C45.985171,1.05731934 51.3745809,6.47697316 52.9908612,8.10126147 L53.2612333,8.37293777 C53.3806292,8.49289247 53.4462891,8.55883391 53.4462891,8.55883391 C53.8892578,9.00180266 54,9.07035735 54,9.55024016 C54,10.0564902 53.3830078,10.1197714 52.7712891,10.1197714 L43.875,10.1250448 L33.75,4.48691148e-05 Z"></path></clipPath></defs><g clip-path="url(#i0)"><polygon points="0,-7.98040562e-17 54,-7.98040562e-17 54,54.0000448 0,54.0000448 0,-7.98040562e-17" stroke="none" fill="#151515"></polygon></g></svg>