<?xml version="1.0" encoding="UTF-8"?><svg version="1.1" width="54px" height="51px" viewBox="0 0 54.0 51.0" xmlns="http://www.w3.org/2000/svg" xmlns:xlink="http://www.w3.org/1999/xlink"><defs><clipPath id="i0"><path d="M0.719669118,38.1176471 C2.19871324,40.0036765 6.74007353,42.8922794 20.6470588,42.8823529 C21.5255515,42.8823529 22.3643382,42.8674632 23.1683824,42.8476103 C23.3222426,42.8426471 23.4661765,42.9270221 23.5356618,43.0659926 C24.9204044,45.815625 27.1588235,48.0441176 29.8836397,49.4238971 C30.2310662,49.5976103 30.1466912,50.1137868 29.7645221,50.1733456 C27.0148897,50.5902574 23.9178309,50.8235294 20.6470588,50.8235294 C9.24154412,50.8185662 0,47.9795956 0,44.4705882 L0.000473194127,38.0987323 C0.00544173246,37.9726343 0.0625799233,37.2838235 0.719669118,38.1176471 Z M35.2240809,27.0397059 C40.5,26.3944853 45.2994485,30.1516544 45.9297794,35.4176471 C46.2126838,37.7751838 45.6220588,40.0433824 44.3961397,41.8946691 C44.4209559,41.8946691 44.4408088,41.8847426 44.465625,41.8847426 C44.9917279,41.8202206 45.6568015,41.9988971 46.3169118,42.4654412 L52.9775735,46.8579044 C53.6277574,47.3095588 54,47.9994485 54,48.6893382 C54,49.2352941 53.8709559,49.6273897 53.5632353,50.0244485 C53.2108456,50.4810662 52.5209559,50.8235294 51.8955882,50.8235294 C51.3545956,50.8235294 50.8036765,50.625 50.3520221,50.2279412 L44.4854779,44.8279412 C43.8501838,44.2720588 43.5077206,43.6367647 43.4630515,43.0908088 C41.9641544,44.7137868 39.9143382,45.8503676 37.5419118,46.1332721 C32.2659926,46.7784926 27.4665441,43.0262868 26.83125,37.7503676 C26.1959559,32.4744485 29.9481618,27.6849265 35.2240809,27.0397059 Z M42.7582721,35.8097426 C42.3363971,32.2908088 39.1301471,29.7943015 35.6112132,30.2161765 C32.0922794,30.6380515 29.5957721,33.8443015 30.0176471,37.3632353 C30.4395221,40.8821691 33.6457721,43.3886029 37.1647059,42.9568015 C40.6836397,42.525 43.1751838,39.3286765 42.7582721,35.8097426 Z M0.719669118,27 C2.19871324,28.8810662 6.74007353,31.7647059 20.6470588,31.7647059 C21.2029412,31.7647059 21.7488971,31.7597426 22.275,31.7498162 C22.5479779,31.7448529 22.7415441,32.0079044 22.6571691,32.2659926 C22.6174632,32.3851103 22.5827206,32.5042279 22.5479779,32.6233456 C22.0764706,34.2711397 21.9027574,35.9685662 22.0318015,37.6759191 C22.0516544,37.9042279 21.8729779,38.1027574 21.6397059,38.1077206 C21.3071691,38.1126968 20.9746324,38.1126968 20.6371324,38.1126968 C9.24154412,38.1176471 0,35.2737132 0,31.7647059 L0.000473194127,26.9810853 C0.00544173246,26.8549872 0.0625799233,26.1661765 0.719669118,27 Z M41.2940585,15.8773991 L41.2941176,20.6470588 C41.2941176,21.3121324 40.9615809,21.9523897 40.3461397,22.5529412 C40.246875,22.6472426 40.1079044,22.6869485 39.9738971,22.6522059 C38.8273897,22.359375 37.63125,22.2005515 36.4003676,22.2005515 C35.8147059,22.2005515 35.2240809,22.2352941 34.6433824,22.3097426 C32.7176471,22.5430147 30.8961397,23.1534926 29.2235294,24.1113971 C28.0075368,24.8112132 26.9106618,25.6748162 25.9527574,26.6823529 C25.8832721,26.7518382 25.7939338,26.7965074 25.6946691,26.8064338 C24.0766544,26.9305147 22.3891544,27 20.6470588,27 C9.24154412,27 0,24.1560662 0,20.6470588 L0.000473194127,15.8634382 C0.00544173246,15.7373402 0.0625799233,15.0485294 0.719669118,15.8823529 C2.19871324,17.7634191 6.74007353,20.6470588 20.6470588,20.6470588 C34.5540441,20.6470588 39.0954044,17.7634191 40.5744485,15.8823529 C41.2628277,15.0088235 41.2927572,15.8063939 41.2940585,15.8773991 Z M20.6470588,0 C32.0525735,0 41.2941176,2.84393382 41.2941176,6.35294118 L41.2941176,9.52941176 C41.2941176,13.0384191 32.0525735,15.8823529 20.6470588,15.8823529 C9.24154412,15.8823529 0,13.0384191 0,9.52941176 L0,6.35294118 C0,2.84393382 9.24154412,0 20.6470588,0 Z"></path></clipPath></defs><g clip-path="url(#i0)"><polygon points="0,0 54,0 54,50.8235294 0,50.8235294 0,0" stroke="none" fill="#151515"></polygon></g></svg>