<?xml version="1.0" encoding="UTF-8"?><svg version="1.1" width="54px" height="52px" viewBox="0 0 54.0 52.0" xmlns="http://www.w3.org/2000/svg" xmlns:xlink="http://www.w3.org/1999/xlink"><defs><clipPath id="i0"><path d="M43.7044142,28.7834758 L43.4460091,44.2244977 L35.8626111,51.0906898 C35.2719087,51.6229718 34.4464649,51.8088462 33.6846254,51.5811323 L16.941031,46.555417 L16.7353616,30.0544069 L34.1645206,34.178341 C34.7711462,34.3215391 35.4099649,34.2090307 35.9311676,33.8672002 L43.7044142,28.7834758 Z M0.56711405,26.2310664 L13.0639001,29.1895409 L13.3433995,45.4796081 L2.6712697,42.2785492 C1.73630706,42.0000157 1.08427633,41.154712 1.05228277,40.1796672 L0.56711405,26.2310664 Z M53.5981648,22.3180752 L53.2712033,34.3787368 C53.2562195,35.0002496 52.9852491,35.5879885 52.5223557,36.0029973 L46.7003311,41.2765704 L46.9587362,26.6582259 L53.5981648,22.3180752 Z M26.6169828,5.81706517 L42.116014,8.05306014 C43.2480102,8.21790734 44.0813306,9.19801872 44.0619625,10.3417908 L43.8246517,24.5646174 L36.0002514,29.3577679 C35.4982412,29.6637865 34.8973789,29.7639303 34.3232551,29.6372673 L16.7464362,25.7511713 L16.5666073,10.8902424 C16.5555743,9.90654525 17.1790307,9.02804814 18.1107095,8.71225677 L26.6169828,5.81706517 Z M10.5125454,3.49141945 L22.9634514,5.28970786 C20.0946277,6.23016171 17.2258039,7.17237344 14.3569802,8.11634302 C13.4130098,8.42647985 12.7795443,9.31162514 12.7896743,10.3043485 L12.9795229,24.922693 L0.481154808,22.1593407 L0.00125966022,8.33203216 C-0.0332010802,7.2915331 0.642539123,6.36021888 1.64239559,6.07019668 L10.5125454,3.49141945 Z M38.0933325,1.86715895 L52.0050182,3.56524948 C53.1692794,3.70376047 54.034273,4.70834247 53.9989564,5.87982069 L53.6772684,18.5311224 L47.0800283,22.5706794 L47.3210306,8.88101111 C47.3410977,7.73034827 46.4990981,6.74575198 45.3592615,6.58700683 L30.4297761,4.5197662 L38.0933325,1.86715895 Z M22.9292528,0.0017097072 L23.1111115,0.0161348138 L34.7868022,1.4083581 C32.1377107,2.27849765 29.4868613,3.14863721 26.834254,4.01877676 L14.5563213,2.31541266 L22.2093305,0.0899648365 C22.5018967,0.00494095889 22.8086119,-0.0201702297 23.1111115,0.0161348138 Z"></path></clipPath></defs><g clip-path="url(#i0)"><polygon points="0,0 54,0 54,51.6766144 0,51.6766144 0,0" stroke="none" fill="#151515"></polygon></g></svg>