<?xml version="1.0" encoding="UTF-8"?><svg version="1.1" width="54px" height="54px" viewBox="0 0 54.0 54.0" xmlns="http://www.w3.org/2000/svg" xmlns:xlink="http://www.w3.org/1999/xlink"><defs><clipPath id="i0"><path d="M34.59375,0 C45.309375,0 54,8.690625 54,19.40625 C54,23.7884766 52.5445312,27.8332031 50.0976562,31.0816406 C50.3033203,32.2207031 50.4140625,33.3966797 50.4140625,34.59375 C50.4140625,45.309375 41.7234375,54 31.0078125,54 C22.9025391,54 15.9521484,49.0271484 13.0517578,41.9660156 C5.45273438,39.3345703 0,32.1152344 0,23.625 C0,12.909375 8.690625,4.21875 19.40625,4.21875 C20.3712891,4.21875 21.3257812,4.28730469 22.2539062,4.42441406 C25.6078125,1.66113281 29.9056641,0 34.59375,0 Z M46.1847656,34.9628906 C42.9521484,37.378125 38.9337891,38.8072266 34.5884766,38.8072266 C33.6234375,38.8072266 32.6689453,38.7386719 31.7408203,38.6015625 C28.3869141,41.3648437 24.0890625,43.0259766 19.4009766,43.0259766 C19.0476562,43.0259766 18.6996094,43.0207031 18.3515625,42.9996094 C18.9052734,43.8328125 19.5433594,44.6132812 20.2605469,45.3304688 C21.6580078,46.7279297 23.2822266,47.8248047 25.0910156,48.5894531 C26.9630859,49.3804687 28.9511719,49.78125 31.0025391,49.78125 C33.0539062,49.78125 35.0419922,49.3804687 36.9140625,48.5894531 C38.7228516,47.8248047 40.3470703,46.7279297 41.7445313,45.3304688 C43.1419922,43.9382813 44.2388672,42.3140625 44.9982422,40.5 C45.7417969,38.7439453 46.1373047,36.8824219 46.1847656,34.9628906 Z M17.2599609,28.1337891 C17.1703125,28.3130859 17.0912109,28.4976562 17.0121094,28.6822266 C16.2210938,30.5542969 15.8203125,32.5423828 15.8203125,34.59375 C15.8203125,35.9279297 15.9890625,37.2357422 16.3265625,38.5013672 C17.3337891,38.7070312 18.3621094,38.8125 19.40625,38.8125 C21.4576172,38.8125 23.4457031,38.4117187 25.3177734,37.6207031 C25.7238281,37.4466797 26.1193359,37.2568359 26.5095703,37.0511719 C22.5070313,35.2160156 19.2375,32.0572266 17.2599609,28.1337891 Z M18.5730469,8.45332031 C16.8169922,8.54824219 15.1136719,8.94375 13.5,9.62402344 C11.6912109,10.3886719 10.0669922,11.4855469 8.66953125,12.8830078 C7.27207031,14.2804687 6.17519531,15.9046875 5.41054687,17.7134766 C4.61953125,19.5855469 4.21875,21.5736328 4.21875,23.625 C4.21875,25.6763672 4.61953125,27.6644531 5.41054687,29.53125 C6.17519531,31.3400391 7.27207031,32.9642578 8.66953125,34.3617187 C9.58710938,35.2845703 10.6101562,36.0755859 11.7175781,36.7242187 C11.64375,36.028125 11.6015625,35.3162109 11.6015625,34.59375 C11.6015625,30.2115234 13.0517578,26.1667969 15.5039062,22.9183594 C15.2982422,21.7792969 15.1875,20.6033203 15.1875,19.40625 C15.1875,15.3457031 16.4373047,11.5751953 18.5730469,8.45332031 Z M38.6964844,21.4945313 C38.7703125,22.190625 38.8125,22.9025391 38.8125,23.625 C38.8125,27.6855469 37.5626953,31.4560547 35.4322266,34.5832031 C37.1882813,34.4882812 38.8916016,34.0927734 40.5052734,33.4125 C42.3140625,32.6478516 43.9382813,31.5509766 45.3357422,30.1535156 C45.3884766,30.1007812 45.4359375,30.0480469 45.4886719,29.9953125 C45.3515625,29.5523437 45.1880859,29.1146484 45.0087891,28.6875 C44.2441406,26.8787109 43.1472656,25.2544922 41.7498047,23.8570312 C40.8269531,22.9341797 39.8039062,22.1431641 38.6964844,21.4945313 Z M31.0078125,19.3957031 C28.9564453,19.3957031 26.9683594,19.7964844 25.0962891,20.5875 C23.2875,21.3521484 21.6632813,22.4490234 20.2658203,23.8464844 C20.2130859,23.8992188 20.165625,23.9519531 20.1128906,24.0046875 C20.25,24.4476563 20.4134766,24.8853516 20.5927734,25.3125 C21.3574219,27.1212891 22.4542969,28.7455078 23.8517578,30.1429688 C25.2492188,31.5404297 26.8734375,32.6373047 28.6822266,33.4019531 C29.2675781,33.6498047 29.8634766,33.8607422 30.4699219,34.0189453 C31.7091797,32.7005859 32.6953125,31.1923828 33.4019531,29.5259766 C34.1929687,27.6539063 34.59375,25.6658203 34.59375,23.6144531 C34.59375,22.2802734 34.425,20.9724609 34.0875,19.7068359 C33.0802734,19.5011719 32.0519531,19.3957031 31.0078125,19.3957031 Z M34.59375,4.21875 C32.5423828,4.21875 30.5542969,4.61953125 28.6822266,5.41054687 C28.2761719,5.58457031 27.8806641,5.77441406 27.4904297,5.98007813 C31.9464844,8.02089844 35.4902344,11.7017578 37.3623047,16.2527344 C42.1505859,17.9085938 46.0898438,21.3890625 48.346875,25.8714844 C48.4365234,25.6921875 48.515625,25.5076172 48.5947266,25.3230469 C49.3857422,23.4509766 49.7865234,21.4628906 49.7865234,19.4115234 C49.7865234,17.3601562 49.3857422,15.3720703 48.5947266,13.5 C47.8300781,11.6912109 46.7332031,10.0669922 45.3357422,8.66953125 C43.9382813,7.27207031 42.3140625,6.17519531 40.5052734,5.41054687 C38.6332031,4.61953125 36.6451172,4.21875 34.59375,4.21875 Z M23.5300781,9.00175781 C22.2908203,10.3201172 21.3046875,11.8283203 20.5980469,13.4947266 C19.8544922,15.2507812 19.4589844,17.1123047 19.4115234,19.0371094 C22.6441406,16.621875 26.6625,15.1927734 31.0078125,15.1927734 C31.3611328,15.1927734 31.7091797,15.1980469 32.0572266,15.2191406 C31.5035156,14.3859375 30.8654297,13.6054688 30.1482422,12.8882813 C28.7507813,11.4908203 27.1265625,10.3939453 25.3177734,9.62929687 C24.7324219,9.38144531 24.1365234,9.17050781 23.5300781,9.00175781 Z"></path></clipPath></defs><g clip-path="url(#i0)"><polygon points="0,0 54,0 54,54 0,54 0,0" stroke="none" fill="#151515"></polygon></g></svg>