<?xml version="1.0" encoding="UTF-8"?><svg version="1.1" width="54px" height="49px" viewBox="0 0 54.0 49.0" xmlns="http://www.w3.org/2000/svg" xmlns:xlink="http://www.w3.org/1999/xlink"><defs><clipPath id="i0"><path d="M12.0209186,21.0036055 C12.2365806,21.0036055 12.4475544,21.0411119 12.6585281,21.1208131 L22.7805781,26.6811426 C23.1462659,26.8171035 23.4369408,27.0421421 23.6572911,27.3609468 C23.8776415,27.6797515 23.9901608,28.0313744 23.9901608,28.4158154 L23.9901608,40.5725897 C23.9901608,41.2477056 23.5072654,41.5618221 23.0290583,41.8196788 L12.9023199,47.7785142 C12.6350866,47.9332283 12.3397234,48.0082412 12.0256069,48.0082412 L11.9599707,48.0082412 C11.6458542,48.0082412 11.350491,47.9332283 11.0832577,47.7785142 L0.956519303,41.8196788 C0.454870687,41.5383805 -0.00458318319,41.2477056 3.45130635e-05,40.4413172 L3.45130635e-05,28.4205037 C3.45130635e-05,28.0360627 0.107936132,27.6797515 0.328286458,27.3656351 C0.548636785,27.0468304 0.843999988,26.8217918 1.20499946,26.6858309 L11.3270495,21.1208131 C11.5333349,21.0411119 11.7489969,21.0036055 11.9552824,21.0036055 Z M42.0260694,21.0036055 C42.2417314,21.0036055 42.4527051,21.0411119 42.6636788,21.1208131 L52.7857291,26.6811426 C53.1514168,26.8171035 53.4420917,27.0421421 53.6624421,27.3609468 C53.8827924,27.6797515 53.9953117,28.0313744 54,28.4158154 L54,40.5725897 C54,41.2477056 53.5171046,41.5618221 53.0388975,41.8196788 L42.912159,47.7785142 C42.6449256,47.9332283 42.3495624,48.0082412 42.035446,48.0082412 L41.9698097,48.0082412 C41.6556933,48.0082412 41.3603301,47.9332283 41.0930967,47.7785142 L30.9663583,41.8196788 C30.4647097,41.5383805 30.0052558,41.2477056 30.0052558,40.4413172 L30.0052558,28.4205037 C30.0052558,28.0360627 30.1130869,27.6797515 30.3334372,27.3656351 C30.5537875,27.0468304 30.8491507,26.8217918 31.2101502,26.6858309 L41.3322002,21.1208131 C41.5384857,21.0411119 41.7541477,21.0036055 41.9604331,21.0036055 Z M22.2601763,36.0061809 L11.9881005,42.007211 L1.66914163,36.0061809 L1.66914163,39.0066959 L11.9927888,45.0077261 L22.2601763,39.0066959 L22.2601763,36.0061809 Z M52.2653272,36.0061809 L41.9932512,42.007211 L31.6742924,36.0061809 L31.6742924,39.0066959 L41.9932512,45.0077261 L52.2653272,39.0066959 L52.2653272,36.0061809 Z M22.2601763,30.0051507 L11.9881005,36.0061809 L1.66914163,30.0051507 L1.66914163,33.0056658 L11.9927888,39.0066959 L22.2601763,33.0056658 L22.2601763,30.0051507 Z M52.2653272,30.0051507 L41.9932512,36.0061809 L31.6742924,30.0051507 L31.6742924,33.0056658 L41.9932512,39.0066959 L52.2653272,33.0056658 L52.2653272,30.0051507 Z M27.023494,0 C27.239156,0 27.4501297,0.0375064384 27.6611034,0.11720762 L37.7831535,3.80221519 C38.1488413,3.93817603 38.4395162,4.16321466 38.6598665,4.48201939 C38.8802168,4.80082412 38.9927361,5.15244698 38.9974245,5.53688797 L38.9974245,16.9904166 C38.9974245,17.6655325 38.5145291,17.9796489 38.036322,18.2375057 L27.9095836,23.7743936 C27.6423502,23.9291077 27.346987,24.0041206 27.0328706,24.0041206 L26.9672343,24.0041206 C26.6531179,24.0041206 26.3577547,23.9291077 26.0905213,23.7743936 L15.963783,18.2375057 C15.4621344,17.9562074 15.0026805,17.6655325 15.0026805,16.8591441 L15.0026805,5.54157627 C15.0026805,5.15713528 15.1151998,4.80082412 15.3308618,4.48670769 C15.5512121,4.16790297 15.8465753,3.94286434 16.2075748,3.8069035 L26.3296249,0.11720762 C26.5359103,0.0375064384 26.7515723,0 26.9578577,0 Z M37.2627517,12.7521891 L26.9906759,18.0030904 L16.671717,12.7521891 L16.671717,15.5792369 L26.9953642,21.0036055 L37.2627517,15.5792369 L37.2627517,12.7521891 Z M37.2627517,6.75115891 L26.9906759,12.0020603 L16.671717,6.75115891 L16.671717,9.75167399 L26.9953642,15.0025754 L37.2627517,9.75167399 L37.2627517,6.75115891 Z"></path></clipPath></defs><g clip-path="url(#i0)"><polygon points="-3.81914281e-15,0 54,0 54,48.0082412 -3.81914281e-15,48.0082412 -3.81914281e-15,0" stroke="none" fill="#151515"></polygon></g></svg>