<?xml version="1.0" encoding="UTF-8"?><svg version="1.1" width="54px" height="48px" viewBox="0 0 54.0 48.0" xmlns="http://www.w3.org/2000/svg" xmlns:xlink="http://www.w3.org/1999/xlink"><defs><clipPath id="i0"><path d="M50.8235294,3.17647059 C54,3.17647059 54,6.49191176 54,6.49191176 L54,44.4705882 C54,47.6470588 48.9226103,47.5428309 48.9226103,47.5428309 C42.8376838,38.3509191 28.5882353,47.6470588 28.5882353,47.6470588 L28.5882353,44.3415441 C42.8327206,34.5788603 50.8235294,44.4705882 50.8235294,44.4705882 L50.8235294,3.17647059 Z M3.17647059,3.17647059 L3.17647059,44.4705882 C3.17647059,44.465625 11.2169118,34.5788603 25.4117647,44.3415441 L25.4117647,47.6470588 L25.3742866,47.6228524 C24.5728206,47.1091072 11.1244963,38.6796342 5.08731618,47.5428309 C5.08731618,47.5428309 0,47.6470588 0,44.4705882 L0.000463109869,6.46532636 C0.0087990875,6.152102 0.167182663,3.17647059 3.17647059,3.17647059 Z M47.6470588,0 L47.6470588,38.1176471 C44.6095588,37.2788603 36.6286765,36.1571691 28.5882353,41.2941176 L28.5882353,6.35294118 C34.1123162,2.80919118 43.4084559,0 47.6470588,0 Z M6.35294118,0 C10.5667279,0 19.8827206,2.79430147 25.4117647,6.35294118 L25.4117647,41.2941176 C17.4705882,36.1571691 9.39540441,37.2838235 6.35294118,38.1176471 L6.35294118,0 Z"></path></clipPath></defs><g clip-path="url(#i0)"><polygon points="0,0 54,0 54,47.6470588 0,47.6470588 0,0" stroke="none" fill="#151515"></polygon></g></svg>