<?xml version="1.0" encoding="UTF-8"?>
<svg width="54px" height="45px" viewBox="0 0 54 45" version="1.1" xmlns="http://www.w3.org/2000/svg" xmlns:xlink="http://www.w3.org/1999/xlink">
    <title></title>
    <g id="Icons" stroke="none" stroke-width="1" fill="none" fill-rule="evenodd">
        <g id="Icons/4.-Size-xl/Object/pficon-monitoring" fill="#151515">
            <path d="M54,3.01980663e-14 L54,38.1131801 L31.7647059,38.1131801 L31.7647059,41.2941176 L41.2941176,41.3219118 L41.2941176,44.4705882 L12.7058824,44.4705882 L12.7058824,41.3219118 L22.2352941,41.2941176 L22.2352941,38.1131801 L0,38.1131801 L0,3.01980663e-14 L54,3.01980663e-14 Z M47.6470588,6.35294118 L6.35294118,6.35294118 L6.35294118,31.7647059 L47.6470588,31.7647059 L47.6470588,6.35294118 Z M42.104614,11.7856985 C43.1315074,12.8130882 43.0352206,14.2246324 42.104614,15.1547426 L32.6580882,24.6027574 C31.7277343,25.5330495 30.2193981,25.5330495 29.2890441,24.6027574 L23.1113051,18.4255147 L15.1845221,26.3547794 C14.252006,27.2722294 12.7541544,27.2661303 11.8291407,26.3411166 C10.904127,25.4161029 10.898028,23.9182513 11.8154779,22.9857353 L21.4267831,13.3719485 L21.4615257,13.3367096 C21.9083192,12.889814 22.5143624,12.6387422 23.146296,12.6387422 C23.7782295,12.6387422 24.3842727,12.889814 24.8310662,13.3367096 L30.9705882,19.5486949 L38.7355699,11.7856985 C39.6661765,10.8550919 41.0777206,10.7583088 42.104614,11.7856985 Z" id="pficon-monitoring"></path>
        </g>
    </g>
</svg>