<?xml version="1.0" encoding="UTF-8"?><svg version="1.1" width="54px" height="45px" viewBox="0 0 54.0 45.0" xmlns="http://www.w3.org/2000/svg" xmlns:xlink="http://www.w3.org/1999/xlink"><defs><clipPath id="i0"><path d="M39,6 L39,9 L54,9 L54,39 L36,39 L36,41.8125 L45,41.8125 L45,45 L18,45 L18,41.8125 L27,41.8125 L27,39 L9,39 L9,27 L6,27 L6,24 L9,24 L9,9 L36,9 L36,6 L39,6 Z M48,15 L15,15 L15,33 L48,33 L48,15 Z M39,24 L39,27 L36,27 L36,24 L39,24 Z M33,24 L33,27 L30,27 L30,24 L33,24 Z M27,24 L27,27 L24,27 L24,24 L27,24 Z M21,24 L21,27 L18,27 L18,24 L21,24 Z M3,24 L3,27 L0,27 L0,24 L3,24 Z M39,18 L39,21 L36,21 L36,18 L39,18 Z M3,18 L3,21 L0,21 L0,18 L3,18 Z M3,12 L3,15 L0,15 L0,12 L3,12 Z M3,6 L3,9 L0,9 L0,6 L3,6 Z M39,0 L39,3 L36,3 L36,0 L39,0 Z M33,0 L33,3 L30,3 L30,0 L33,0 Z M27,0 L27,3 L24,3 L24,0 L27,0 Z M21,0 L21,3 L18,3 L18,0 L21,0 Z M15,0 L15,3 L12,3 L12,0 L15,0 Z M9,0 L9,3 L6,3 L6,0 L9,0 Z M3,0 L3,3 L0,3 L0,0 L3,0 Z"></path></clipPath></defs><g clip-path="url(#i0)"><polygon points="0,0 54,0 54,45 0,45 0,0" stroke="none" fill="#151515"></polygon></g></svg>