<?xml version="1.0" encoding="UTF-8"?><svg version="1.1" width="54px" height="54px" viewBox="0 0 54.0 54.0" xmlns="http://www.w3.org/2000/svg" xmlns:xlink="http://www.w3.org/1999/xlink"><defs><clipPath id="i0"><path d="M50.625,10.125 C52.488238,10.1267443 53.9982555,11.636762 54,13.5 L54,50.625 C53.9982555,52.488238 52.488238,53.9982555 50.625,54 L13.5,54 C11.636762,53.9982555 10.1267443,52.488238 10.125,50.625 L10.125,13.5 C10.1267443,11.636762 11.636762,10.1267443 13.5,10.125 Z M49.8339844,13.5 L14.2910156,13.5 C13.8541498,13.5 13.5,13.8541498 13.5,14.2910156 L13.5,49.8339844 C13.5,50.2708502 13.8541498,50.625 14.2910156,50.625 L49.8339844,50.625 C50.2708502,50.625 50.625,50.2708502 50.625,49.8339844 L50.625,14.2910156 C50.625,13.8541498 50.2708502,13.5 49.8339844,13.5 Z M3.375,33.75 L3.375,39.6720703 C3.375,40.1089362 3.72914976,40.4630859 4.16601562,40.4630859 L6.75,40.5052734 L6.75,43.8802734 L3.375,43.8380859 C1.51176197,43.8363416 0.00174433383,42.326324 0,40.4630859 L0,33.75 L3.375,33.75 Z M3.375,23.625 L3.375,30.375 L0,30.375 L0,23.625 L3.375,23.625 Z M3.375,13.5 L3.375,20.25 L0,20.25 L0,13.5 L3.375,13.5 Z M10.0880859,0 L10.0880859,3.375 L4.16601562,3.375 C3.72914976,3.375 3.375,3.72914976 3.375,4.16601562 L3.375,10.125 L0,10.125 L0,3.375 C0.00174433383,1.51176197 1.51176197,0.00174433383 3.375,0 L10.0880859,0 Z M40.5,0.0369140625 C42.363238,0.0386583963 43.8732557,1.54867604 43.875,3.41191406 L43.875,6.75 L40.5,6.75 L40.5,4.20292969 C40.5,3.76606382 40.1458502,3.41191406 39.7089844,3.41191406 L33.75,3.41191406 L33.75,0.0369140625 L40.5,0.0369140625 Z M30.375,0.0369140625 L30.375,3.41191406 L23.625,3.41191406 L23.625,0.0369140625 L30.375,0.0369140625 Z M20.25,0.0369140625 L20.25,3.41191406 L13.5,3.41191406 L13.5,0.0369140625 L20.25,0.0369140625 Z"></path></clipPath></defs><g clip-path="url(#i0)"><polygon points="0,0 54,0 54,54 0,54 0,0" stroke="none" fill="#151515"></polygon></g></svg>