<?xml version="1.0" encoding="UTF-8"?><svg version="1.1" width="54px" height="48px" viewBox="0 0 54.0 48.0" xmlns="http://www.w3.org/2000/svg" xmlns:xlink="http://www.w3.org/1999/xlink"><defs><clipPath id="i0"><path d="M50.8235294,3.17647059 C54,3.17647059 54,6.49191176 54,6.49191176 L54,44.4705882 C54,47.6470588 48.9226103,47.5428309 48.9226103,47.5428309 C42.8376838,38.3509191 28.5882353,47.6470588 28.5882353,47.6470588 L28.5882353,44.3415441 C42.8327206,34.5788603 50.8235294,44.4705882 50.8235294,44.4705882 Z M3.17647059,3.17647059 L3.17647059,44.4705882 C3.17647059,44.465625 11.2169118,34.5788603 25.4117647,44.3415441 L25.4117647,47.6470588 L25.3742866,47.6228524 C24.5728206,47.1091072 11.1244963,38.6796342 5.08731618,47.5428309 C5.08731618,47.5428309 0,47.6470588 0,44.4705882 L0.000463109869,6.46532636 C0.0087990875,6.152102 0.167182663,3.17647059 3.17647059,3.17647059 Z M6.35294118,0 C10.5667279,0 19.8827206,2.79430147 25.4068015,6.35294118 L25.4068015,10.2490809 L25.0097426,10.2490809 C24.7119485,10.2490809 24.4588235,10.4575368 24.3744485,10.7553309 C24.1014706,11.7926471 24.2354779,14.090625 24.13125,15.1577206 C23.5604779,15.3463235 23.6150735,15.3909926 23.0740809,15.6639706 L19.8033088,12.7952206 C19.6742647,12.7108456 19.5253676,12.6463235 19.3566176,12.6463235 C18.7411765,12.6463235 16.3588235,15.2222426 15.9369485,15.7930147 C15.8327206,15.9170956 15.7880515,16.0659926 15.7880515,16.2148897 C15.7880515,16.3637868 15.8525735,16.5077206 15.9369485,16.6367647 C16.6169118,17.4408088 18.0909926,18.815625 18.6816176,19.6643382 C18.4086397,20.1954044 18.4483456,20.4386029 18.2795956,20.9994485 L13.8772059,21.2128676 C13.6042279,21.2575368 13.3908088,21.5751838 13.3908088,21.8481618 L13.3908088,25.7641544 C13.3908088,26.0619485 13.5992647,26.3349265 13.8970588,26.3795956 L18.3441176,26.6674632 C18.5376838,27.2580882 18.4930147,27.0694853 18.7908088,27.6501838 C18.5270483,28.0054097 18.0909926,28.5329307 17.6303234,29.0831118 L17.1669193,29.6353043 C16.70625,30.1839661 16.2701943,30.7054097 16.0064338,31.05 C15.9220588,31.1790441 15.8575368,31.303125 15.8575368,31.4520221 C15.8575368,31.7474338 16.4361626,32.4259279 17.0988608,33.1076697 L17.4349263,33.4470527 C18.0554956,34.0633032 18.6774485,34.6290882 18.9198529,34.8518382 C19.0488971,34.9560662 19.1977941,35.0205882 19.3665441,35.0205882 C19.5154412,35.0205882 19.6841912,34.9759191 19.7884191,34.8716912 L22.9251838,31.9483456 C23.4314338,32.2014706 23.4761029,32.1816176 24.0369485,32.3503676 L24.384375,36.8818015 C24.4290441,37.1795956 24.721875,37.4128676 25.0196691,37.4128676 L25.4117647,37.4079044 L25.4117647,41.2941176 C17.4705882,36.1571691 9.39540441,37.2838235 6.35294118,38.1176471 Z M47.6420956,0 L47.6420956,38.1176471 C44.6045956,37.2788603 36.6237132,36.1571691 28.5832721,41.2941176 L28.5832721,37.4079044 L28.9803309,37.4079044 C29.278125,37.4079044 29.5709559,37.1746324 29.615625,36.8768382 L29.9630515,32.3454044 C30.5238971,32.1766544 30.5685662,32.1965074 31.0748162,31.9433824 L34.2066176,34.8667279 C34.3108456,34.9709559 34.4795956,35.015625 34.6284926,35.015625 C34.7972426,35.015625 34.9461397,34.9511029 35.0751838,34.846875 C35.6261029,34.340625 38.1375,32.0625 38.1375,31.4470588 C38.1375,31.2981618 38.0729779,31.1740809 37.9886029,31.0450368 C37.7248424,30.7004464 37.2887868,30.1790029 36.8281175,29.6303411 L36.3647134,29.0781486 C35.9040441,28.5279674 35.4679884,28.0004464 35.2042279,27.6452206 C35.5020221,27.0645221 35.4573529,27.253125 35.6509191,26.6625 L40.0979779,26.3746324 C40.3957721,26.3299632 40.6042279,26.0569853 40.6042279,25.7591912 L40.6042279,21.8431985 C40.6042279,21.5702206 40.3908088,21.2525735 40.1178309,21.2079044 L35.7154412,20.9944853 C35.5466912,20.4336397 35.5863971,20.1904412 35.3134191,19.659375 C35.9040441,18.8106618 37.378125,17.4358456 38.0580882,16.6318015 C38.1424632,16.5027574 38.2069853,16.3588235 38.2069853,16.2099265 C38.2069853,16.0610294 38.1623162,15.9121324 38.0580882,15.7880515 C37.6362132,15.2172794 35.2538603,12.6413603 34.6384191,12.6413603 C34.4696691,12.6413603 34.3207721,12.7058824 34.1917279,12.7902574 L30.9209559,15.6490809 C30.3799632,15.3761029 30.4345588,15.3314338 29.8637868,15.1428309 C29.7595588,14.0757353 29.8935662,11.7777574 29.6205882,10.7404412 C29.5362132,10.4426471 29.2830882,10.2341912 28.9852941,10.2341912 L28.5832721,10.2391544 L28.5832721,6.35294118 C34.1073529,2.80919118 43.4034926,0 47.6420956,0 Z M27,18.4235294 C29.9829044,18.4235294 32.4,20.840625 32.4,23.8235294 C32.4,26.8064338 29.9829044,29.2235294 27,29.2235294 C24.0170956,29.2235294 21.6,26.8064338 21.6,23.8235294 C21.6,20.840625 24.0170956,18.4235294 27,18.4235294 Z"></path></clipPath></defs><g clip-path="url(#i0)"><polygon points="0,0 54,0 54,47.6470588 0,47.6470588 0,0" stroke="none" fill="#151515"></polygon></g></svg>