<?xml version="1.0" encoding="UTF-8"?><svg version="1.1" width="54px" height="27px" viewBox="0 0 54.0 27.0" xmlns="http://www.w3.org/2000/svg" xmlns:xlink="http://www.w3.org/1999/xlink"><defs><clipPath id="i0"><path d="M13.5,0 C16.0628906,0 17.3496094,0.258398437 19.3851563,1.94589844 L32.653125,15.3878906 L33.496875,14.5441406 L37.3253906,10.7472656 C37.884375,10.1460937 38.5699219,10.0089844 39.3714844,10.3359375 C40.1308594,10.6628906 40.5105979,11.2429687 40.5105979,12.065625 L40.5105979,25.1753906 C40.5131978,25.6729658 40.3110529,26.1497227 39.9515625,26.49375 C39.5824219,26.8628906 39.1394531,27 38.6332031,27 L25.5128906,27 C24.6902344,27 24.1101563,26.6625 23.7832031,25.8820312 C23.45625,25.1121094 23.5933594,24.4476563 24.1945313,23.8570312 L28.8246094,19.2269531 L16.4847656,6.66035156 C15.4300781,5.81660156 14.2066406,5.53183594 13.4367188,5.54238281 L13.415625,5.54238281 C13.3839844,5.53183594 13.3417969,5.54238281 13.2996094,5.53183594 L13.0570312,5.53183594 C8.74335938,5.65839844 5.484375,9.196875 5.484375,13.5421875 C5.484375,17.9191406 8.60625,21.3785156 12.9621094,21.4365234 C14.4548477,21.3263856 15.8886508,20.8083193 17.1070313,19.9388672 C17.9053301,19.3547303 18.956151,19.245219 19.8577395,19.6522023 C20.7593279,20.0591855 21.3722605,20.9197266 21.4621981,21.9048197 C21.5521357,22.8899127 21.1051703,23.847221 20.2921875,24.4107422 L20.0074219,24.6005859 L20.0390625,24.6216797 C18.1511719,26.0982422 16.03125,27 13.5,27 C6.04335937,27 0,20.9935547 0,13.5421875 C0,6.09082031 6.04335937,0 13.5,0 Z M40.5,0 C47.9566406,0 54,6.04335938 54,13.5158203 C54,19.8070313 49.696875,25.0910156 43.875,26.5886719 L43.875,20.7773437 C46.7027273,19.4600819 48.5120687,16.6247618 48.515625,13.5052734 C48.515625,9.09140625 44.9191406,5.49492187 40.5,5.49492187 L40.5,5.47382812 C40.3187842,5.50399446 40.13526,5.51811171 39.9515625,5.51601563 C38.2435322,5.48429621 36.5686599,5.98970921 35.1632813,6.9609375 C34.3576543,7.54840213 33.2966407,7.65228489 32.392369,7.23223466 C31.4880973,6.81218443 30.8830843,5.93440277 30.8123345,4.93984559 C30.7415847,3.94528841 31.2162487,2.99070183 32.0519531,2.446875 C34.3958837,0.828049975 37.1877299,-0.0165111855 40.0359375,0.031640625 C40.1916724,0.0294943887 40.3472051,0.0436336875 40.5,0.073828125 Z"></path></clipPath></defs><g clip-path="url(#i0)"><polygon points="0,0 54,0 54,27 0,27 0,0" stroke="none" fill="#151515"></polygon></g></svg>