<?xml version="1.0" encoding="UTF-8"?><svg version="1.1" width="54px" height="51px" viewBox="0 0 54.0 51.0" xmlns="http://www.w3.org/2000/svg" xmlns:xlink="http://www.w3.org/1999/xlink"><defs><clipPath id="i0"><path d="M44.4705882,0 C46.224224,0.00164172596 47.6454171,1.4228348 47.6470588,3.17647059 L47.6470588,47.6470588 C47.6454171,49.4006946 46.224224,50.8218876 44.4705882,50.8235294 L9.52941176,50.8235294 C7.77577596,50.8218876 6.35458292,49.4006946 6.35294118,47.6470588 L6.35294118,3.17647059 C6.35458292,1.4228348 7.77577596,0.00164172596 9.52941176,0 Z M54,6.35294118 L54,44.4705882 C52.2463644,44.4689465 50.8251712,43.0477535 50.8235294,41.2941176 L50.8235294,9.52941176 C50.8251146,7.83624616 52.150039,6.45299152 53.8198199,6.35813024 L54,6.35294118 Z M25.4117647,28.5882353 L22.2352941,28.5882353 L22.2352941,31.7647059 L19.0588235,31.7647059 L19.0588235,34.9411765 L22.2352941,34.9411765 L22.2352941,38.1176471 L19.0588235,38.1176471 L19.0588235,41.2941176 L22.2352941,41.2941176 L22.2352941,44.4705882 L25.4117647,44.4705882 L25.4117647,41.2941176 L28.5882353,41.2941176 L28.5882353,44.4705882 L31.7647059,44.4705882 L31.7647059,41.2941176 L34.9411765,41.2941176 L34.9411765,38.1176471 L31.7647059,38.1176471 L31.7647059,34.9411765 L34.9411765,34.9411765 L34.9411765,31.7647059 L31.7647059,31.7647059 L31.7647059,28.5882353 L28.5882353,28.5882353 L28.5882353,31.7647059 L25.4117647,31.7647059 L25.4117647,28.5882353 Z M0,6.35294118 C1.75363579,6.35458292 3.17482886,7.77577596 3.17647059,9.52941176 L3.17647059,41.2941176 C3.17482886,43.0477535 1.75363579,44.4689465 0,44.4705882 L0,6.35294118 Z M28.5386029,34.9411765 C28.5520187,34.9402889 28.5651652,34.9452324 28.5746723,34.9547395 C28.5841794,34.9642466 28.5891228,34.977393 28.5882353,34.9908088 L28.5882353,38.0680147 C28.5891228,38.0814305 28.5841794,38.0945769 28.5746723,38.1040841 C28.5651652,38.1135912 28.5520187,38.1185346 28.5386029,38.1176471 L25.4613971,38.1176471 C25.4479813,38.1185346 25.4348348,38.1135912 25.4253277,38.1040841 C25.4158206,38.0945769 25.4108772,38.0814305 25.4117647,38.0680147 L25.4117647,34.9908088 C25.4108772,34.977393 25.4158206,34.9642466 25.4253277,34.9547395 C25.4348348,34.9452324 25.4479813,34.9402889 25.4613971,34.9411765 L28.5386029,34.9411765 Z M40.5,6.35294118 L13.5,6.35294118 C13.0614209,6.35294118 12.7058824,6.70847976 12.7058824,7.14705882 L12.7058824,15.0386029 C12.7058824,15.477182 13.0614209,15.8327206 13.5,15.8327206 L15.8823529,15.8327206 L15.8823529,24.6176471 C15.8823529,25.0562261 16.2378915,25.4117647 16.6764706,25.4117647 L37.3235294,25.4117647 C37.7621085,25.4117647 38.1176471,25.0562261 38.1176471,24.6176471 L38.1176471,15.8327206 L40.5,15.8327206 C40.9385791,15.8327206 41.2941176,15.477182 41.2941176,15.0386029 L41.2941176,7.14705882 C41.2941176,6.70847976 40.9385791,6.35294118 40.5,6.35294118 Z M22.2352941,15.8823529 L22.2352941,22.2352941 L19.0588235,22.2352941 L19.0588235,15.8823529 L22.2352941,15.8823529 Z M34.9411765,15.8823529 L34.9411765,22.2352941 L31.7647059,22.2352941 L31.7647059,15.8823529 L34.9411765,15.8823529 Z M28.5882353,15.8823529 L28.5882353,22.2352941 L25.4117647,22.2352941 L25.4117647,15.8823529 L28.5882353,15.8823529 Z"></path></clipPath></defs><g clip-path="url(#i0)"><polygon points="0,0 54,0 54,50.8235294 0,50.8235294 0,0" stroke="none" fill="#151515"></polygon></g></svg>