<?xml version="1.0" encoding="UTF-8"?>
<svg width="54px" height="54px" viewBox="0 0 54 54" version="1.1" xmlns="http://www.w3.org/2000/svg" xmlns:xlink="http://www.w3.org/1999/xlink">
    <title></title>
    <g id="Icons" stroke="none" stroke-width="1" fill="none" fill-rule="evenodd">
        <g id="Icons/4.-Size-xl/Object/pficon-vcenter" fill="#151515">
            <path d="M47.25,0 L23.625,0 C19.8966797,0 16.875,3.02167969 16.875,6.75 L16.875,16.875 L6.75,16.875 C3.02167969,16.875 0,19.8966797 0,23.625 L0,47.25 C0,50.9783203 3.02167969,54 6.75,54 L30.375,54 C34.1033203,54 37.125,50.9783203 37.125,47.25 L37.125,37.125 L47.25,37.125 C50.9783203,37.125 54,34.1033203 54,30.375 L54,6.75 C54,3.02167969 50.9783203,0 47.25,0 L47.25,0 Z M30.375,30.375 L30.375,47.25 L6.75,47.25 L6.75,23.625 L23.625,23.625 L23.625,6.75 L47.25,6.75 L47.25,30.375 L30.375,30.375 Z M24.46875,27 C25.8662109,27 27,25.8662109 27,24.46875 L27,11.8125 C27,10.8791016 27.7541016,10.125 28.6875,10.125 L42.1875,10.125 C43.1208984,10.125 43.875,10.8791016 43.875,11.8125 L43.875,25.3125 C43.875,26.2458984 43.1208984,27 42.1875,27 L29.53125,27 C28.1337891,27 27,28.1337891 27,29.53125 L27,42.1875 C27,43.1208984 26.2458984,43.875 25.3125,43.875 L11.8125,43.875 C10.8791016,43.875 10.125,43.1208984 10.125,42.1875 L10.125,28.6875 C10.125,27.7541016 10.8791016,27 11.8125,27 L24.46875,27 Z" id="pficon-vcenter"></path>
        </g>
    </g>
</svg>