<?xml version="1.0" encoding="UTF-8"?><svg version="1.1" width="54px" height="48px" viewBox="0 0 54.0 48.0" xmlns="http://www.w3.org/2000/svg" xmlns:xlink="http://www.w3.org/1999/xlink"><defs><clipPath id="i0"><path d="M31.21875,0 C32.5608019,0 33.6589142,1.04443014 33.7446158,2.36481962 L33.75,2.53125 L33.75,10.96875 L33.7473633,11.027417 L33.7447266,11.0900391 L39.5296875,16.875 L45.5625,16.875 C46.4454289,16.875 47.1699828,17.553084 47.2438059,18.416896 L47.25,18.5625 L47.25,25.3125 C47.25,26.1954289 46.571916,26.9199828 45.708104,26.9938059 L45.5625,27 L43.875,27 L43.875,30.3222656 L48.09375,30.3222656 C49.4358019,30.3222656 50.5339142,31.3666958 50.6196158,32.6870852 L50.625,32.8535156 L50.625,37.125 L52.3125,37.125 C53.1954288,37.125 53.9199828,37.803084 53.9938059,38.666896 L54,38.8125 L54,45.5625 C54,46.4454289 53.3219159,47.1699828 52.4581039,47.2438059 L52.3125,47.25 L45.5625,47.25 C44.6795711,47.25 43.9550172,46.571916 43.8811941,45.708104 L43.875,45.5625 L43.875,38.8125 C43.875,37.9295711 44.553084,37.2050172 45.416896,37.1311941 L45.5625,37.125 L47.25,37.125 L47.25,33.6972656 L37.125,33.6972656 L37.125,37.125 L38.8125,37.125 C39.6954289,37.125 40.4199828,37.803084 40.4938059,38.666896 L40.5,38.8125 L40.5,45.5625 C40.5,46.4454289 39.821916,47.1699828 38.958104,47.2438059 L38.8125,47.25 L32.0625,47.25 C31.1795711,47.25 30.4550172,46.571916 30.3811941,45.708104 L30.375,45.5625 L30.375,38.8125 C30.375,37.9295711 31.053084,37.2050172 31.916896,37.1311941 L32.0625,37.125 L33.75,37.125 L33.75,32.8535156 C33.75,31.5114637 34.7944301,30.4133515 36.1148196,30.3276498 L36.28125,30.3222656 L40.5,30.3222656 L40.5,27 L38.8125,27 C37.9295711,27 37.2050172,26.321916 37.1311941,25.458104 L37.125,25.3125 L37.125,19.2427734 L31.3769531,13.4947266 L31.2978516,13.4993408 L31.21875,13.5 L22.6916016,13.5 L16.875,19.3166016 L16.875,25.3125 C16.875,26.1954289 16.196916,26.9199828 15.333104,26.9938059 L15.1875,27 L13.5,27 L13.5,30.3222656 L17.71875,30.3222656 C19.0608019,30.3222656 20.1589142,31.3666958 20.2446158,32.6870852 L20.25,32.8535156 L20.25,37.125 L21.9375,37.125 C22.8204289,37.125 23.5449828,37.803084 23.6188059,38.666896 L23.625,38.8125 L23.625,45.5625 C23.625,46.4454289 22.946916,47.1699828 22.083104,47.2438059 L21.9375,47.25 L15.1875,47.25 C14.3045711,47.25 13.5800172,46.571916 13.5061941,45.708104 L13.5,45.5625 L13.5,38.8125 C13.5,37.9295711 14.178084,37.2050172 15.041896,37.1311941 L15.1875,37.125 L16.875,37.125 L16.875,33.6972656 L6.75,33.6972656 L6.75,37.125 L8.4375,37.125 C9.32042891,37.125 10.0449828,37.803084 10.1188059,38.666896 L10.125,38.8125 L10.125,45.5625 C10.125,46.4454289 9.44691603,47.1699828 8.58310396,47.2438059 L8.4375,47.25 L1.6875,47.25 C0.80457109,47.25 0.0800171785,46.571916 0.00619413211,45.708104 L0,45.5625 L0,38.8125 C0,37.9295711 0.678083969,37.2050172 1.54189604,37.1311941 L1.6875,37.125 L3.375,37.125 L3.375,32.8535156 C3.375,31.5114637 4.41943014,30.4133515 5.73981962,30.3276498 L5.90625,30.3222656 L10.125,30.3222656 L10.125,27 L8.4375,27 C7.55457109,27 6.83001718,26.321916 6.75619413,25.458104 L6.75,25.3125 L6.75,18.5625 C6.75,17.6795711 7.42808397,16.9550172 8.29189604,16.8811941 L8.4375,16.875 L14.5388672,16.875 L20.2552734,11.1585938 L20.2526367,11.0636719 L20.25,10.96875 L20.25,2.53125 C20.25,1.18919806 21.2944301,0.0910858446 22.6148196,0.00538415068 L22.78125,0 L31.21875,0 Z M30.375,3.375 L23.625,3.375 L23.625,10.125 L30.375,10.125 L30.375,3.375 Z"></path></clipPath></defs><g clip-path="url(#i0)"><polygon points="0,0 54,0 54,47.25 0,47.25 0,0" stroke="none" fill="#151515"></polygon></g></svg>