<?xml version="1.0" encoding="UTF-8"?><svg version="1.1" width="54px" height="39px" viewBox="0 0 54.0 39.0" xmlns="http://www.w3.org/2000/svg" xmlns:xlink="http://www.w3.org/1999/xlink"><defs><clipPath id="i0"><path d="M38.0977941,0 C39.8795956,0 41.3189338,1.24080882 41.3189338,2.77444853 C41.3189338,3.67775735 40.8176471,4.38253676 40.0384191,5.22132353 C39.3783088,5.93602941 40.0235294,6.35294118 41.6316176,6.35294118 L45.2994485,6.35294118 C45.9247848,6.35252908 46.5244094,6.60178107 46.965189,7.04535628 C47.4059686,7.48893153 47.6514245,8.09011999 47.6470588,8.71544118 L47.6470588,14.00625 C47.6470588,15.1974265 48.3667279,16.5722426 48.9126838,15.8029412 C49.4586397,15.0336397 50.2329044,14.2295956 51.2404412,14.2295956 C52.7641544,14.2295956 54,15.6639706 54,17.4408088 C54,19.2176471 52.7641544,20.6569853 51.2404412,20.6569853 C50.1981618,20.6569853 49.3841912,19.8727941 48.8630515,18.9943015 C48.3419118,18.1158088 47.6470588,19.6246324 47.6470588,20.7909926 L47.6470588,29.2880515 C47.6470588,30.5933824 46.7884191,31.7498162 45.4830882,31.7498162 L41.5869485,31.7498162 C39.9044118,31.7498162 39.0507353,32.2610294 40.0731618,33.075 C41.0955882,33.8889706 41.3189338,34.5193015 41.3189338,35.3928309 C41.3189338,36.8966912 39.8795956,38.1176471 38.0977941,38.1176471 C36.3159926,38.1176471 34.8766544,36.9016544 34.8766544,35.3928309 C34.8766544,34.4498162 35.5417279,33.7847426 36.3110294,32.9360294 C37.0803309,32.0873162 36.3705882,31.7647059 34.7426471,31.7647059 L30.6727941,31.7647059 C29.3625,31.7647059 28.5882353,30.6628676 28.5882353,29.3575368 L28.5882353,23.9972426 C28.9207721,24.046875 29.0051471,24.0766544 29.3128676,24.0766544 C32.4446691,24.0766544 34.9808824,21.2029412 34.9808824,17.6542279 C34.9808824,14.1055147 32.4397059,11.2318015 29.3128676,11.2318015 C29.0051471,11.2318015 28.9207721,11.2615809 28.5882353,11.3112132 L28.5882353,8.72040441 C28.6233015,7.39865386 29.7079445,6.3470793 31.0301471,6.35294118 L34.6930147,6.35294118 C36.1273897,6.35294118 36.8867647,5.91121324 36.0926471,5.146875 C35.2737132,4.35772059 34.8766544,3.78198529 34.8766544,2.77444853 C34.8766544,1.24080882 36.3159926,0 38.0977941,0 Z M15.5845588,3.07720588 C17.3663603,3.07720588 18.8056985,4.26838235 18.8056985,5.74246324 C18.8056985,6.61102941 18.3838235,7.23143382 17.5152574,8.23897059 C16.7161765,9.27628676 17.1678309,9.52941176 18.9148897,9.52941176 L23.0194853,9.52941176 C24.3248162,9.52941176 25.4117647,10.5667279 25.4117647,11.8720588 L25.4117647,13.9566176 C25.4117647,15.2371324 26.4193015,16.7360294 26.9751838,15.7483456 C27.5310662,14.7606618 28.3152574,14.2246324 29.2979779,14.2246324 C30.8117647,14.2246324 32.0327206,15.6639706 32.0327206,17.4408088 C32.0327206,19.2176471 30.8117647,20.6569853 29.2979779,20.6569853 C28.2705882,20.6569853 27.3772059,19.9869485 26.9106618,18.9992647 C26.4441176,18.0115809 25.4117647,19.5303309 25.4117647,20.7909926 L25.4117647,32.4496324 C25.4117647,33.7549632 24.2900735,34.9411765 22.9797794,34.9411765 L18.8851103,34.9411765 C19.2455041,34.1891217 19.438542,33.367864 19.4509191,32.5340074 C19.4509191,29.7496324 17.6591912,28.4740809 15.4852941,28.5237132 L15.5398897,28.5237132 C12.5768382,28.6080882 11.2367647,29.8340074 11.2367647,32.5340074 C11.2367647,33.3181985 11.4104779,34.2016544 11.8025735,34.9411765 L9.00330882,34.9411765 C7.64834559,34.8965074 6.35294118,33.7102941 6.35294118,32.4049632 L6.35294118,20.8356618 C6.35294118,19.7238971 5.74742647,18.1306985 5.17169118,19.0488971 C4.59595588,19.9670956 3.80680147,20.6569853 2.76452206,20.6569853 C1.20606618,20.6569853 0,19.2126838 0,17.4408088 C0,15.6689338 1.20606618,14.2295956 2.75459559,14.2246324 C3.74724265,14.2246324 4.23860294,14.9988971 5.08235294,15.7086397 C5.92610294,16.4183824 6.35294118,15.0683824 6.35294118,13.9119485 L6.35294118,11.8273897 C6.35294118,10.5220588 7.44981618,9.52941176 8.76011029,9.52941176 L12.1152574,9.52941176 C13.9417279,9.52941176 14.2047794,9.14724265 13.4454044,8.09503676 C12.6860294,7.04283088 12.3634191,6.48694853 12.3634191,5.74246324 C12.3634191,4.26838235 13.8027574,3.07720588 15.5845588,3.07720588 Z"></path></clipPath></defs><g clip-path="url(#i0)"><polygon points="0,0 54,0 54,38.1176471 0,38.1176471 0,0" stroke="none" fill="#151515"></polygon></g></svg>