<?xml version="1.0" encoding="UTF-8"?><svg version="1.1" width="54px" height="46px" viewBox="0 0 54.0 46.0" xmlns="http://www.w3.org/2000/svg" xmlns:xlink="http://www.w3.org/1999/xlink"><defs><clipPath id="i0"><path d="M53.0588942,24.9230769 C54,23.7288462 54,24.9230769 54,24.9230769 L54,37.3846154 C54,41.9733173 41.9149038,45.6923077 27,45.6923077 C12.0850962,45.6923077 0,41.9733173 0,37.3846154 L0.000342968575,24.9061035 C0.00480156005,24.7646586 0.0672218407,23.8141484 0.941105769,24.9230769 C1.07925824,25.0987809 1.23784218,25.281174 1.41986152,25.4684041 L1.58168743,25.6300284 C4.0693164,28.0437456 10.4840905,31.1538462 27,31.1538462 C43.5159095,31.1538462 49.9306836,28.0437456 52.4183126,25.6300284 L52.5801385,25.4684041 C52.7621578,25.281174 52.9207418,25.0987809 53.0588942,24.9230769 Z M27,0 C41.9149038,0 54,3.71899038 54,8.30769231 L54,16.5504808 C54,21.1391827 41.9149038,24.8581731 27,24.8581731 C12.0850962,24.8581731 0,21.1391827 0,16.5504808 L0,8.30769231 C0,3.71899038 12.0850962,0 27,0 Z"></path></clipPath></defs><g clip-path="url(#i0)"><polygon points="0,0 54,0 54,45.6923077 0,45.6923077 0,0" stroke="none" fill="#151515"></polygon></g></svg>