<?xml version="1.0" encoding="UTF-8"?>
<svg width="54px" height="40px" viewBox="0 0 54 40" version="1.1" xmlns="http://www.w3.org/2000/svg" xmlns:xlink="http://www.w3.org/1999/xlink">
    <title></title>
    <g id="Icons" stroke="none" stroke-width="1" fill="none" fill-rule="evenodd">
        <g id="Icons/4.-Size-xl/Object/pficon-route" fill="#151515">
            <path d="M53.7891271,13.7150077 L48.7488515,18.7635528 C48.3353752,19.1811639 47.6200613,18.8875957 47.6200613,18.2963247 L47.6200613,15.8774885 L33.7562021,15.8774885 C33.5908116,15.8774885 33.4502297,15.7865237 33.4295559,15.6211332 C33.2972435,14.6370597 33.1194487,13.6750383 32.8961715,12.7350689 C32.7597243,12.1562021 32.6026034,11.5938744 32.4330781,11.0480858 C32.3669219,10.8330781 32.5240429,10.5849923 32.7473201,10.5849923 L47.6117917,10.5849923 L47.6117917,8.21163859 C47.6117917,7.6245023 48.3229709,7.32679939 48.7405819,7.74441041 L53.7849923,12.7764165 C53.91317,12.9045942 54,13.0741194 54,13.2436447 C54,13.41317 53.91317,13.5826953 53.7891271,13.7150077 Z M19.4003063,29.5511485 L14.3600306,34.5996937 C13.9465544,35.0173047 13.2312404,34.7237366 13.2312404,34.1324655 L13.2312404,31.754977 L0.661562021,31.754977 C0.29770291,31.754977 0,31.4366003 0,31.0727412 L0,27.1033691 C0,26.73951 0.29770291,26.4624809 0.661562021,26.4624809 L13.2312404,26.4624809 L13.2312404,24.056049 C13.2312404,23.4689127 13.9424196,23.1712098 14.3600306,23.5888208 L19.4003063,28.6166922 C19.6579075,28.874918 19.6579075,29.2929227 19.4003063,29.5511485 Z M44.9696784,19.1687596 C44.9607031,18.8098638 44.6671242,18.5236244 44.3081164,18.5237366 L26.4624809,18.5237366 L26.4624809,13.2312404 L29.8612557,13.2312404 C30.0762634,13.2312404 30.2375191,13.0038285 30.1796325,12.7970904 C30.0020691,12.1154005 29.7895368,11.4433017 29.542879,10.7834609 C29.4915263,10.6586788 29.3675901,10.5793596 29.2327718,10.5849923 L26.4624809,10.5849923 L26.4624809,2.88192956 C26.9769354,3.07047043 27.4594228,3.33681464 27.8931087,3.67166922 C28.9143951,4.44073507 29.8943338,5.62741194 30.7254211,7.10765697 C30.8660031,7.35987749 31.0810107,7.71960184 31.4696784,7.71960184 L33.4667688,7.71960184 C33.5795942,7.71846259 33.6842424,7.66052079 33.7450881,7.56550143 C33.8059339,7.47048206 33.8147768,7.35119126 33.7686064,7.2482389 C33.2482211,6.10793359 32.6137467,5.02323179 31.8748851,4.01071975 C33.8343688,4.85027206 35.6227609,6.04300066 37.1508423,7.52940276 C37.2739685,7.64850687 37.4384948,7.71520671 37.6098009,7.71546708 L40.1650842,7.71546708 C40.2934965,7.71605243 40.4106438,7.64226449 40.4655778,7.52619422 C40.5205118,7.41012395 40.5033045,7.27274836 40.4214395,7.17381317 C36.7911179,2.81163859 31.3332312,0.0248085758 25.2179173,0 L25.0359877,0 C14.161562,0.0578866769 5.29249617,9.07166922 5.29249617,19.962634 L5.29249617,20.5084227 C5.29249617,20.954977 5.48683002,22.7577335 5.63154671,23.5267994 C5.66049005,23.6839204 5.79693721,23.8162328 5.95819296,23.8162328 L7.98009188,23.8162328 C8.19096478,23.8162328 8.34808576,23.6012251 8.30260337,23.394487 C8.14962894,22.6606025 8.04465906,21.9175261 7.98836141,21.1699847 L23.8162328,21.1699847 L23.8162328,26.4624809 L22.0548239,26.4624809 C21.9233074,26.4574911 21.8022436,26.5338348 21.7500683,26.6546619 C21.6978929,26.7754891 21.7253325,26.9159593 21.8191424,27.0082695 L23.4275651,28.620827 C23.6760682,28.8683426 23.8159044,29.2045446 23.8162328,29.5552833 L23.8162328,36.8117917 C23.3017782,36.6232509 22.8192908,36.3569066 22.3856049,36.0220521 C21.5751914,35.414242 20.7937213,34.5376723 20.0866769,33.4667688 C20.0322425,33.3840257 19.9435954,33.3300284 19.8451009,33.3196183 C19.7466065,33.3092084 19.64863,33.3434813 19.5781011,33.4130168 L18.1474732,34.8436447 C18.0349411,34.9568365 18.0192877,35.1342424 18.1102603,35.2653905 C18.2094946,35.4059724 18.3087289,35.5465544 18.4079632,35.6830015 C18.2218989,35.604441 18.0399694,35.5217458 17.8580398,35.4390505 C17.7323711,35.3810853 17.5839012,35.40748 17.4859112,35.5052067 L16.0015314,36.9854518 C15.9273678,37.0606523 15.8932416,37.1665569 15.9095467,37.2709097 C15.9258518,37.3752625 15.9906579,37.465709 16.0842266,37.5147014 C18.8861022,38.9515292 21.9905544,39.6985822 25.1393568,39.6937682 C35.6540582,39.6937682 44.262634,31.5192956 44.9448698,21.1741194 C44.9738132,20.7358346 44.9862175,20.2975498 44.9862175,19.8509954 L44.9696784,19.1687596 Z M14.0003063,18.5237366 L7.98836141,18.5237366 C8.12383972,16.7018684 8.5553784,14.9142647 9.26600306,13.2312404 L14.6163859,13.2312404 C14.2707798,14.9762421 14.064768,16.746008 14.0003063,18.5237366 L14.0003063,18.5237366 Z M10.6594181,10.5849923 C11.3285716,9.53870583 12.1060606,8.56580503 12.9790199,7.68238897 C14.535758,6.12081937 16.3790714,4.87416115 18.4079632,4.01071975 C17.1137825,5.75558959 16.0346095,8.01730475 15.2696784,10.5849923 L10.6594181,10.5849923 Z M23.8162328,18.5237366 L16.6465544,18.5237366 C16.7146284,16.7433773 16.9387649,14.9724227 17.3163859,13.2312404 L23.8162328,13.2312404 L23.8162328,18.5237366 Z M23.8162328,10.5849923 L18.0441041,10.5849923 C18.4658499,9.32388974 18.970291,8.14961715 19.5532925,7.11179173 C20.3843798,5.63154671 21.3643185,4.44486983 22.3856049,3.67580398 C22.8192908,3.3409494 23.3017782,3.07460519 23.8162328,2.88606432 L23.8162328,10.5849923 Z M23.8227709,2.58027278 L24.1265209,2.58027278 L24.1265209,2.27652278 L23.8227709,2.27652278 L23.8227709,2.58027278 Z M26.4624809,21.1699847 L33.6321593,21.1699847 C33.5667935,22.9500987 33.3454246,24.7210496 32.9705972,26.4624809 L26.4624809,26.4624809 L26.4624809,21.1699847 Z M27.8931087,36.0179173 C27.4594228,36.3527719 26.9769354,36.6191161 26.4624809,36.807657 L26.4624809,29.1087289 L32.2470138,29.1087289 C31.8548001,30.3135055 31.345154,31.4768281 30.7254211,32.5819296 C29.8943338,34.0621746 28.9143951,35.2529862 27.8931087,36.0179173 L27.8931087,36.0179173 Z M37.3038285,32.0113323 C35.7470904,33.5729019 33.903777,34.8195601 31.8748851,35.6830015 C33.1732006,33.9257274 34.2523737,31.6764165 35.0214395,29.0880551 L39.6523737,29.0880551 C38.9770032,30.1441563 38.1895928,31.1242605 37.3038285,32.0113323 L37.3038285,32.0113323 Z M41.0292496,26.441807 L35.6705972,26.441807 C36.011128,24.70319 36.2143583,22.9404784 36.2784074,21.1699847 L42.2903522,21.1699847 C42.1560531,22.9836163 41.7302213,24.7637324 41.0292496,26.441807 L41.0292496,26.441807 Z" id="pficon-route"></path>
        </g>
    </g>
</svg>