<?xml version="1.0" encoding="UTF-8"?><svg version="1.1" width="54px" height="45px" viewBox="0 0 54.0 45.0" xmlns="http://www.w3.org/2000/svg" xmlns:xlink="http://www.w3.org/1999/xlink"><defs><clipPath id="i0"><path d="M28.4889706,12.7058824 L28.4889706,19.0588235 L44.4705882,19.0588235 C46.1637538,19.0604087 47.5470085,20.3853329 47.6418698,22.055114 L47.6470588,22.2352941 L47.6470588,28.5882353 L50.8235294,28.5882353 C52.5166948,28.5898204 53.8999495,29.9147447 53.9948109,31.5845257 L54,31.7647059 L54,41.2941176 C53.9984148,42.9872833 52.6734904,44.3705379 51.0037095,44.4653992 L50.8235294,44.4705882 L41.2941176,44.4705882 C39.600952,44.4690031 38.2176974,43.1440788 38.1228361,41.4742978 L38.1176471,41.2941176 L38.1176471,31.7647059 C38.1192322,30.0715403 39.4441565,28.6882856 41.1139375,28.5934244 L41.2941176,28.5882353 L44.4705882,28.5882353 L44.4705882,22.2352941 L28.4889706,22.2352941 L28.4889706,28.5882353 L31.7150735,28.5882353 C33.4082391,28.5898204 34.7914938,29.9147447 34.8863551,31.5845257 L34.8915441,31.7647059 L34.8915441,41.2941176 C34.889959,42.9872833 33.5650347,44.3705379 31.8952537,44.4653992 L31.7150735,44.4705882 L22.1856618,44.4705882 C20.4924962,44.4690031 19.1092415,43.1440788 19.0143802,41.4742978 L19.0091912,41.2941176 L19.0091912,31.7647059 C19.0107763,30.0715403 20.3357006,28.6882856 22.0054816,28.5934244 L22.1856618,28.5882353 L25.3125,28.5882353 L25.3125,22.2352941 L9.52941176,22.2352941 L9.52941176,28.5882353 L12.7058824,28.5882353 C14.399048,28.5898204 15.7823026,29.9147447 15.8771639,31.5845257 L15.8823529,31.7647059 L15.8823529,41.2941176 C15.8807678,42.9872833 14.5558435,44.3705379 12.8860625,44.4653992 L12.7058824,44.4705882 L3.17647059,44.4705882 C1.483305,44.4690031 0.100050336,43.1440788 0.0051890579,41.4742978 L0,41.2941176 L0,31.7647059 C0.00158511472,30.0715403 1.32650942,28.6882856 2.99629045,28.5934244 L3.17647059,28.5882353 L6.35294118,28.5882353 L6.35294118,22.2352941 C6.3545263,20.5421285 7.67945058,19.1588739 9.34923162,19.0640126 L9.52941176,19.0588235 L25.3125,19.0588235 L25.3125,12.7058824 L28.4889706,12.7058824 Z M50.8235294,0 L50.8235294,9.52941176 L3.17647059,9.52941176 L3.17647059,0 L50.8235294,0 Z M47.671875,3.17647059 L34.9411765,3.17647059 L34.9411765,6.35294118 L47.671875,6.35294118 L47.671875,3.17647059 Z"></path></clipPath></defs><g clip-path="url(#i0)"><polygon points="0,0 54,0 54,44.4705882 0,44.4705882 0,0" stroke="none" fill="#151515"></polygon></g></svg>