<?xml version="1.0" encoding="UTF-8"?><svg version="1.1" width="54px" height="51px" viewBox="0 0 54.0 51.0" xmlns="http://www.w3.org/2000/svg" xmlns:xlink="http://www.w3.org/1999/xlink"><defs><clipPath id="i0"><path d="M32.8069853,25.4117647 C34.6533088,25.4117647 35.5169118,27.2829044 35.5169118,27.2829044 L36.2216912,28.5882353 L52.4117647,28.5882353 C53.2902574,28.5882353 54,29.2979779 54,30.1764706 L54,50.8235294 L19.0588235,50.8235294 L19.0588235,27.2233456 C19.0588235,27.2233456 19.0588235,25.4117647 20.8704044,25.4117647 L32.8069853,25.4117647 Z M23.2775735,12.7058824 C25.1238971,12.7058824 25.9875,14.5770221 25.9875,14.5770221 L26.6922794,15.8823529 L42.8823529,15.8823529 C43.7608456,15.8823529 44.4705882,16.5920956 44.4705882,17.4705882 L44.4705882,25.3621324 L38.1623162,25.3621324 C37.9538603,25.0147059 37.6362132,24.5580882 37.1994485,24.1014706 C36.0181985,22.865625 34.4746324,22.1856618 32.8566176,22.1856618 L20.9200368,22.1856618 C18.9794118,22.1856618 17.2770221,23.1783088 16.4431985,24.8459559 C15.9369485,25.8634191 15.8823529,26.8113971 15.8823529,27.1737132 L15.8823529,38.1176471 L9.52941176,38.1176471 L9.52949429,14.5106962 C9.53172245,14.3903753 9.59411108,12.7058824 11.3409926,12.7058824 Z M13.7481618,0 C15.5944853,0 16.4580882,1.87113971 16.4580882,1.87113971 L17.1628676,3.17647059 L33.3529412,3.17647059 C34.2314338,3.17647059 34.9411765,3.88621324 34.9411765,4.76470588 L34.9411765,12.7058824 L28.5832721,12.7058824 C28.3748162,12.3584559 28.0571691,11.8025735 27.6204044,11.3459559 C26.4391544,10.1101103 24.8955882,9.43014706 23.2775735,9.43014706 L11.3409926,9.43014706 C9.40533088,9.43014706 7.74761029,10.4227941 6.91378676,12.0904412 C6.40753676,13.1029412 6.35294118,14.0558824 6.35294118,14.4181985 L6.35294118,25.4117647 L0,25.4117647 L0.000660197115,1.785173 C0.0092427596,1.56202637 0.129398634,0 1.81158088,0 L13.7481618,0 Z"></path></clipPath></defs><g clip-path="url(#i0)"><polygon points="0,0 54,0 54,50.8235294 0,50.8235294 0,0" stroke="none" fill="#151515"></polygon></g></svg>