<?xml version="1.0" encoding="UTF-8"?><svg version="1.1" width="54px" height="54px" viewBox="0 0 54.0 54.0" xmlns="http://www.w3.org/2000/svg" xmlns:xlink="http://www.w3.org/1999/xlink"><defs><clipPath id="i0"><path d="M27.0052734,0 C41.8921875,0 54,12.1130859 54,27 C54,41.8869141 41.8921875,54 27.0052734,54 C12.1183594,54 0,41.8869141 0,27 C0,12.1183594 12.1130859,0 27.0052734,0 Z M27,3.375 C13.9693359,3.375 3.375,13.9746094 3.375,27 C3.375,40.0359375 13.9693359,50.625 27,50.625 C40.0253906,50.625 50.625,40.0306641 50.625,27 C50.625,13.9693359 40.0253906,3.375 27,3.375 Z M35.4375,28.6875 C39.1658203,28.6875 42.1875,31.7091797 42.1875,35.4375 C42.1875,39.1658203 39.1658203,42.1875 35.4375,42.1875 C31.7091797,42.1875 28.6875,39.1658203 28.6875,35.4375 C28.6875,31.7091797 31.7091797,28.6875 35.4375,28.6875 Z M18.5625,28.6875 C22.2908203,28.6875 25.3125,31.7091797 25.3125,35.4375 C25.3125,39.1658203 22.2908203,42.1875 18.5625,42.1875 C14.8341797,42.1875 11.8125,39.1658203 11.8125,35.4375 C11.8125,31.7091797 14.8341797,28.6875 18.5625,28.6875 Z M35.4375,31.21875 C33.1119141,31.21875 31.21875,33.1119141 31.21875,35.4375 C31.21875,37.7630859 33.1119141,39.65625 35.4375,39.65625 C37.7630859,39.65625 39.65625,37.7630859 39.65625,35.4375 C39.65625,33.1119141 37.7630859,31.21875 35.4375,31.21875 Z M18.5625,31.21875 C16.2369141,31.21875 14.34375,33.1119141 14.34375,35.4375 C14.34375,37.7630859 16.2369141,39.65625 18.5625,39.65625 C20.8880859,39.65625 22.78125,37.7630859 22.78125,35.4375 C22.78125,33.1119141 20.8880859,31.21875 18.5625,31.21875 Z M35.4375,11.8125 C39.1658203,11.8125 42.1875,14.8341797 42.1875,18.5625 C42.1875,22.2908203 39.1658203,25.3125 35.4375,25.3125 C31.7091797,25.3125 28.6875,22.2908203 28.6875,18.5625 C28.6875,14.8341797 31.7091797,11.8125 35.4375,11.8125 Z M18.5625,11.8125 C22.2908203,11.8125 25.3125,14.8341797 25.3125,18.5625 C25.3125,22.2908203 22.2908203,25.3125 18.5625,25.3125 C14.8341797,25.3125 11.8125,22.2908203 11.8125,18.5625 C11.8125,14.8341797 14.8341797,11.8125 18.5625,11.8125 Z M35.4375,14.34375 C33.1119141,14.34375 31.21875,16.2369141 31.21875,18.5625 C31.21875,20.8880859 33.1119141,22.78125 35.4375,22.78125 C37.7630859,22.78125 39.65625,20.8880859 39.65625,18.5625 C39.65625,16.2369141 37.7630859,14.34375 35.4375,14.34375 Z"></path></clipPath></defs><g transform=""><g clip-path="url(#i0)"><polygon points="0,0 54,0 54,54 0,54 0,0" stroke="none" fill="#151515"></polygon></g></g></svg>