<?xml version="1.0" encoding="UTF-8"?><svg version="1.1" width="54px" height="54px" viewBox="0 0 54.0 54.0" xmlns="http://www.w3.org/2000/svg" xmlns:xlink="http://www.w3.org/1999/xlink"><defs><clipPath id="i0"><path d="M52.4232422,0 C53.2938203,0.000581743071 53.9994183,0.7061796 54,1.57675781 L54,52.5761719 C54,53.4304688 53.3091797,54 52.4548828,54 L1.59785156,54 C0.7171875,54 0,53.4041016 0,52.5234375 L0,1.53984375 C0.000872017191,0.689772992 0.689772992,0.000872017191 1.53984375,0 Z M50.625,3.375 L3.375,3.375 L3.375,50.625 L50.625,50.625 L50.625,3.375 Z M30.375,40.5 L30.375,43.875 L20.25,43.875 L20.25,40.5 L30.375,40.5 Z M43.875,30.375 L43.875,43.875 L33.75,43.875 L33.75,40.5 L40.5,40.5 L40.5,33.75 L37.125,33.75 L37.125,30.375 L43.875,30.375 Z M20.25,30.375 L20.25,33.75 L13.5,33.75 L13.5,40.5 L16.875,40.5 L16.875,43.875 L10.125,43.875 L10.125,30.375 L20.25,30.375 Z M33.75,30.375 L33.75,33.75 L23.625,33.75 L23.625,30.375 L33.75,30.375 Z M30.375,20.25 L30.375,23.625 L20.25,23.625 L20.25,20.25 L30.375,20.25 Z M43.875,10.125 L43.875,23.625 L33.75,23.625 L33.75,20.25 L40.5,20.25 L40.5,13.5 L37.125,13.5 L37.125,10.125 L43.875,10.125 Z M20.25,10.125 L20.25,13.5 L13.5,13.5 L13.5,20.25 L16.875,20.25 L16.875,23.625 L10.125,23.625 L10.125,10.125 L20.25,10.125 Z M33.75,10.125 L33.75,13.5 L23.625,13.5 L23.625,10.125 L33.75,10.125 Z"></path></clipPath></defs><g clip-path="url(#i0)"><polygon points="0,0 54,0 54,54 0,54 0,0" stroke="none" fill="#151515"></polygon></g></svg>