<?xml version="1.0" encoding="UTF-8"?>
<svg width="54px" height="54px" viewBox="0 0 54 54" version="1.1" xmlns="http://www.w3.org/2000/svg" xmlns:xlink="http://www.w3.org/1999/xlink">
    <title></title>
    <g id="Icons" stroke="none" stroke-width="1" fill="none" fill-rule="evenodd">
        <g id="Icons/4.-Size-xl/Object/pficon-domain" fill="#151515">
            <path d="M28.6875,26.9947266 C29.6090895,26.9973076 30.3572953,27.7363234 30.3746969,28.6543532 L30.375,28.6822266 L30.375,52.3072266 C30.3724189,53.2288162 29.6334032,53.9770221 28.7153733,53.9944233 L28.6875,53.9947266 L18.5625,53.9947266 C17.6409105,53.9921452 16.8927047,53.2531299 16.8753031,52.3350999 L16.875,52.3072266 L16.875,28.6822266 C16.8775811,27.7606371 17.6165968,27.0124313 18.5346267,26.9950296 L18.5625,26.9947266 L28.6875,26.9947266 Z M37.125,30.375 L37.125,50.625 L33.75,50.625 L33.75,30.375 L37.125,30.375 Z M27,47.25 L20.25,47.25 L20.25,50.625 L27,50.625 L27,47.25 Z M50.625,27.0580078 L50.625,27.0632813 C50.625,35.0894531 46.6224609,42.1822266 40.5,46.4537109 L40.5,46.4537109 L40.5,42.1558594 C40.7794922,41.9027344 41.0484375,41.6496094 41.3173828,41.3806641 C45.1208079,37.585284 47.2557023,32.4311745 47.25,27.0580078 L47.25,27.0580078 L50.625,27.0580078 Z M7.89960937,20.3027344 C5.31111015,27.6624071 7.17049753,35.8543719 12.6826172,41.3753906 C12.9462891,41.6443359 13.2205078,41.9027344 13.5,42.1505859 L13.5,42.1505859 L13.5,46.4484375 C7.37753906,42.1769531 3.37498963,35.0841797 3.37498963,27.0580078 C3.37348251,24.7706598 3.70387788,22.4951949 4.35585937,20.3027344 L4.35585937,20.3027344 L7.89960937,20.3027344 Z M27.0052734,37.125 L20.25,37.125 L20.25,43.875 L27.0052734,43.875 L27.0052734,37.125 Z M27,30.375 L23.625,30.375 L23.625,33.75 L27,33.75 L27,30.375 Z M45.5625,0 C46.4851607,0 47.234872,0.740484645 47.2497739,1.6595941 L47.25,1.6875 L47.25,21.4101562 C47.25,22.332817 46.5095153,23.0825282 45.5904059,23.0976562 L45.5625,23.0976562 L32.0625,23.0976562 C31.1398393,23.0976562 30.390128,22.3571716 30.3752261,21.4380622 L30.375,21.4101562 L30.375,1.6875 C30.375,0.764839288 31.1154847,0.0151280358 32.0345941,0 L32.0625,0 L45.5625,0 Z M54,3.375 L54,20.25 L50.625,20.25 L50.625,3.375 L54,3.375 Z M43.875,13.5 L33.75,13.5 L33.75,18.5625 L43.875,18.5625 L43.875,13.5 Z M11.8125,3.55271368e-15 C12.7340895,0.00258109661 13.4822953,0.741596797 13.4996969,1.65962669 L13.5,1.6875 L13.5,15.1875 C13.4974189,16.1090895 12.7584032,16.8572953 11.8403733,16.8746969 L11.8125,16.875 L1.6875,16.875 C0.765910535,16.8724189 0.0177047463,16.1334032 0.000303056729,15.2153733 L0,15.1875 L0,1.6875 C0.00258109661,0.765910535 0.741596797,0.0177047463 1.65962669,0.000303056729 L1.6875,3.55271368e-15 L11.8125,3.55271368e-15 Z M10.125,10.125 L3.375,10.125 L3.375,13.5 L10.125,13.5 L10.125,10.125 Z M27,3.42773438 L27,6.80273438 C24.291708,6.79798037 21.6102906,7.33964462 19.1162109,8.3953125 C18.3471971,8.72225355 17.598749,9.09559705 16.875,9.51328125 L16.875,9.51328125 L16.875,5.70585938 C20.0397062,4.20621591 23.4979583,3.42810919 27,3.42773438 L27,3.42773438 Z M43.875,3.375 L38.8125,3.375 L38.8125,8.4375 L43.875,8.4375 L43.875,3.375 Z M10.125,3.375 L6.75,3.375 L6.75,6.75 L10.125,6.75 L10.125,3.375 Z" id="pficon-domain"></path>
        </g>
    </g>
</svg>