<?xml version="1.0" encoding="UTF-8"?><svg version="1.1" width="54px" height="41px" viewBox="0 0 54.0 41.0" xmlns="http://www.w3.org/2000/svg" xmlns:xlink="http://www.w3.org/1999/xlink"><defs><clipPath id="i0"><path d="M39.6035156,7.36706516 C41.5916016,7.36706516 43.2949219,8.0895261 44.6765625,9.52917454 C46.0951172,10.9635495 46.7912109,12.6985105 46.7912109,14.7393308 C46.79992,16.1462634 46.400603,17.5255555 45.6416016,18.7102292 C48.0621094,19.2885496 50.0607422,20.5770261 51.6375,22.5756589 C53.2125002,24.5760496 54,26.868237 54,29.4522214 C54,32.5055417 52.9558594,35.1053464 50.8412109,37.2674558 C48.7212891,39.4137448 46.1794922,40.500073 43.2,40.500073 L12.5982422,40.500073 C9.13007811,40.4965574 6.16464844,39.234448 3.70195313,36.7137448 C1.23398437,34.1895261 0,31.1555417 0,27.6117917 C0,25.0822996 0.666210936,22.7707761 1.99863281,20.6772214 C3.3328125,18.5748777 5.08359375,17.0069089 7.25097656,15.9733152 L28.4607422,32.5635495 C29.8107422,33.618237 31.7935547,32.8114011 32.0203125,31.1133542 L34.9787109,9.11784641 C36.2865234,7.95769016 37.8263672,7.36706516 39.6035156,7.36706516 Z M21.6052734,2.41139808e-05 C24.5636719,-0.00520046356 27.2478516,0.838549536 29.6578125,2.53132297 C30.5715869,3.16736287 31.4117211,3.90314346 32.1626953,4.72507297 L29.1990234,26.7364011 C29.1448866,27.1284229 28.8856719,27.4617617 28.5190657,27.6107975 C28.1524594,27.7598334 27.7341865,27.7019122 27.421875,27.458862 L7.45664062,11.849487 C7.97519529,8.99479955 9.29707031,6.48112766 11.4222656,4.30847141 C14.240039,1.43093238 17.634375,-0.00520046356 21.6052734,2.41139808e-05 Z"></path></clipPath></defs><g clip-path="url(#i0)"><polygon points="0,-3.55271368e-15 54,-3.55271368e-15 54,40.500073 0,40.500073 0,-3.55271368e-15" stroke="none" fill="#151515"></polygon></g></svg>