<?xml version="1.0" encoding="UTF-8"?>
<svg width="54px" height="55px" viewBox="0 0 54 55" version="1.1" xmlns="http://www.w3.org/2000/svg" xmlns:xlink="http://www.w3.org/1999/xlink">
    <title></title>
    <g id="Icons" stroke="none" stroke-width="1" fill="none" fill-rule="evenodd">
        <g id="Icons/4.-Size-xl/Object/pficon-build" fill="#151515">
            <path d="M52.5434676,9.04292589 L28.5049646,0.273175445 C28.0236289,0.0929475932 27.5138922,0.000430562027 26.9999214,3.50818809e-06 C26.4659412,-0.000656382221 25.9359333,0.0917826967 25.4337062,0.273175445 L1.45901202,9.03712509 C0.581395205,9.35692472 -0.00125846476,10.1929336 0.00244892397,11.1269941 L0.00244892397,13.1309058 C0.0103275918,14.085525 0.612939744,14.9338564 1.51174654,15.2555795 L4.49335622,16.3213442 C5.01027969,16.5064867 5.58496,16.4285562 6.03390878,16.112435 C6.48285757,15.7963138 6.74993491,15.281532 6.74986625,14.7324531 L6.74986625,12.370474 L26.9999214,5.00978991 L47.2067343,12.4015874 L47.2067343,15.5762054 C47.2068277,15.9312586 47.3795123,16.2641066 47.6697362,16.4686374 C47.9599602,16.6731681 48.3314961,16.7238511 48.6658984,16.6045285 L52.4960065,15.2545248 C53.3987342,14.9328508 54.0011264,14.0776309 53.9999984,13.1193042 L53.9999984,11.1201386 C53.9988156,10.1913898 53.4183182,9.36201698 52.5461043,9.04292589 M28.1416238,18.2656659 L26.9999214,18.6348075 L25.8181409,18.3558419 C25.3048694,18.1878303 24.7421513,18.2763005 24.3051968,18.5937059 C23.8682423,18.9111114 23.6101205,19.4189025 23.6111945,19.9589713 L23.6111945,22.0208909 C23.6105998,22.7328804 24.0577465,23.368344 24.7281184,23.6081999 L26.3449587,24.1619124 C26.7457523,24.3063718 27.1864587,24.2931769 27.5778917,24.1249982 L29.2321736,23.5127505 C29.9019478,23.2721097 30.3487518,22.6371333 30.3491056,21.9254415 L30.3491056,19.8687952 C30.3506965,19.3284231 30.0926166,18.8201755 29.6553795,18.5026408 C29.2181424,18.1851059 28.6549831,18.0969447 28.1416238,18.2656659 M18.5486875,18.9775819 L18.5486875,16.8101931 C18.5481498,16.0802227 18.0783192,15.4333545 17.3843093,15.2070638 L14.0124642,14.1054397 C13.499292,13.9377068 12.9368104,14.0262196 12.4999527,14.3434503 C12.0630949,14.6606811 11.804847,15.1681532 11.8055219,15.7080417 L11.8055219,17.7715434 C11.8059072,18.4821693 12.2514339,19.1164071 12.9198049,19.3577977 L16.2916501,20.5706917 C16.8090863,20.7554384 17.3840684,20.6767138 17.8328029,20.3596824 C18.2815373,20.0426508 18.5478366,19.5270088 18.5465781,18.9775819 M52.2713575,23.3086679 L45.1574709,20.8116884 C44.9740959,20.7425894 44.7718405,20.7425894 44.5884654,20.8116884 L42.0862125,21.7029018 C41.3379097,21.9665744 41.3379097,23.0265382 42.0862125,23.2902108 L48.1549009,25.4707831 L26.9999214,34.1076426 L5.77322297,25.4591816 L11.8055246,23.2970663 C12.5480266,23.0286476 12.5480266,21.9739572 11.8055246,21.7102846 L9.3132912,20.8185439 C9.12899535,20.7557822 8.929109,20.7557822 8.74481309,20.8185439 L1.74852453,23.3281797 C0.687871461,23.7065116 -0.0141959677,24.7181587 0.00248461119,25.8441435 L0.00248461119,26.5296923 C-0.0446807811,27.6177047 0.583226849,28.6223568 1.58188345,29.0567304 L25.1230999,39.4074617 C26.2676526,39.9099258 27.5700264,39.9116463 28.7159027,39.4122079 L42.3214085,33.4584807 L52.4332524,29.0003045 C53.4227179,28.5672559 54.0428194,27.5690536 53.9926124,26.4901414 L53.9926124,25.8098661 C54.0193399,24.6918671 53.3251316,23.6830956 52.2713575,23.3086679 M52.4986432,35.4376072 L48.2867372,33.9510211 C48.0844354,33.8784387 47.8620602,33.8857946 47.6649973,33.9715876 L45.4206161,34.952977 C44.7203017,35.2588372 44.7572159,36.260793 45.4733507,36.5186648 L48.0409944,37.4415189 L26.9999214,48.3137946 L5.8681451,37.4346634 L8.03869789,36.6547199 C8.74481309,36.4015942 8.79174681,35.4154587 8.11252621,35.0990516 L5.95041095,34.0860215 C5.7485334,33.9916346 5.51762651,33.9804586 5.30757717,34.0549081 L1.47641441,35.4307517 C0.598395654,35.7465311 0.0101463782,36.5759731 0.00248461119,37.5090191 L0.00248461119,38.500428 C0.00333782935,39.3086325 0.444349567,40.0522082 1.15315181,40.440531 L24.8225131,53.4448635 C25.4906227,53.8087185 26.2391582,53.9996143 26.9999214,54.000158 C27.744254,53.9993369 28.4760114,53.8081833 29.1256499,53.4448635 L52.8503827,40.440531 C53.5587771,40.0519308 53.9993529,39.3084088 53.9999953,38.500428 L53.9999953,37.5717731 C53.9999953,36.6148625 53.3992679,35.760954 52.4986432,35.4376072 M42.1495134,17.7441215 L42.1495134,15.6874752 C42.1513349,15.1470155 41.8933111,14.6386049 41.4560025,14.3210181 C41.0186939,14.0034313 40.4553969,13.9153739 39.942027,14.0843459 L36.5707092,15.187552 C35.8768839,15.4137824 35.4070968,16.060378 35.406331,16.790154 L35.406331,18.9522693 C35.4068502,19.5006332 35.6737876,20.0145519 36.1221116,20.3303188 C36.5704357,20.6460858 37.1442362,20.724322 37.6607317,20.5401057 L41.0325768,19.3377586 C41.7034745,19.0955508 42.150285,18.4584556 42.1495134,17.7451762" id="pficon-build"></path>
        </g>
    </g>
</svg>