<?xml version="1.0" encoding="UTF-8"?><svg version="1.1" width="54px" height="55px" viewBox="0 0 54.0 55.0" xmlns="http://www.w3.org/2000/svg" xmlns:xlink="http://www.w3.org/1999/xlink"><defs><clipPath id="i0"><path d="M47.6649973,33.9715876 C47.8620602,33.8857946 48.0844354,33.8784387 48.2867372,33.9510211 L52.4986432,35.4376072 C53.3992679,35.760954 53.9999953,36.6148625 53.9999953,37.5717731 L53.9999953,38.500428 C53.9993529,39.3084088 53.5587771,40.0519308 52.8503827,40.440531 L29.1256499,53.4448635 C28.4760114,53.8081833 27.744254,53.9993369 26.9999214,54.000158 C26.2391582,53.9996143 25.4906227,53.8087185 24.8225131,53.4448635 L1.15315181,40.440531 C0.444349567,40.0522082 0.00333782935,39.3086325 0.00248461119,38.500428 L0.00248461119,37.5090191 C0.0101463782,36.5759731 0.598395654,35.7465311 1.47641441,35.4307517 L5.30757717,34.0549081 C5.51762651,33.9804586 5.7485334,33.9916346 5.95041095,34.0860215 L8.11252621,35.0990516 C8.79174681,35.4154587 8.74481309,36.4015942 8.03869789,36.6547199 L5.8681451,37.4346634 L26.9999214,48.3137946 L48.0409944,37.4415189 L45.4733507,36.5186648 C44.7572159,36.260793 44.7203017,35.2588372 45.4206161,34.952977 Z M44.5884654,20.8116884 C44.7718405,20.7425894 44.9740959,20.7425894 45.1574709,20.8116884 L52.2713575,23.3086679 C53.3251316,23.6830956 54.0193399,24.6918671 53.9926124,25.8098661 L53.9926124,26.4901414 C54.0428194,27.5690536 53.4227179,28.5672559 52.4332524,29.0003045 L42.3214085,33.4584807 L28.7159027,39.4122079 C27.5700264,39.9116463 26.2676526,39.9099258 25.1230999,39.4074617 L1.58188345,29.0567304 C0.583226849,28.6223568 -0.0446807811,27.6177047 0.00248461119,26.5296923 L0.00248461119,25.8441435 C-0.0141959677,24.7181587 0.687871461,23.7065116 1.74852453,23.3281797 L8.74481309,20.8185439 C8.929109,20.7557822 9.12899535,20.7557822 9.3132912,20.8185439 L11.8055246,21.7102846 C12.5480266,21.9739572 12.5480266,23.0286476 11.8055246,23.2970663 L5.77322297,25.4591816 L26.9999214,34.1076426 L48.1549009,25.4707831 L42.0862125,23.2902108 C41.3379097,23.0265382 41.3379097,21.9665744 42.0862125,21.7029018 Z M28.1416238,18.2656659 C28.6549831,18.0969447 29.2181424,18.1851059 29.6553795,18.5026408 C30.0926166,18.8201755 30.3506965,19.3284231 30.3491056,19.8687952 L30.3491056,21.9254415 C30.3487518,22.6371333 29.9019478,23.2721097 29.2321736,23.5127505 L27.5778917,24.1249982 C27.1864587,24.2931769 26.7457523,24.3063718 26.3449587,24.1619124 L24.7281184,23.6081999 C24.0577465,23.368344 23.6105998,22.7328804 23.6111945,22.0208909 L23.6111945,19.9589713 C23.6101205,19.4189025 23.8682423,18.9111114 24.3051968,18.5937059 C24.7421513,18.2763005 25.3048694,18.1878303 25.8181409,18.3558419 L26.9999214,18.6348075 Z M12.4999527,14.3434503 C12.9368104,14.0262196 13.499292,13.9377068 14.0124642,14.1054397 L17.3843093,15.2070638 C18.0783192,15.4333545 18.5481498,16.0802227 18.5486875,16.8101931 L18.5465781,18.9775819 C18.5478366,19.5270088 18.2815373,20.0426508 17.8328029,20.3596824 C17.3840684,20.6767138 16.8090863,20.7554384 16.2916501,20.5706917 L12.9198049,19.3577977 C12.2514339,19.1164071 11.8059072,18.4821693 11.8055219,17.7715434 L11.8055219,15.7080417 C11.804847,15.1681532 12.0630949,14.6606811 12.4999527,14.3434503 Z M39.942027,14.0843459 C40.4553969,13.9153739 41.0186939,14.0034313 41.4560025,14.3210181 C41.8933111,14.6386049 42.1513349,15.1470155 42.1495134,15.6874752 L42.1495134,17.7451762 C42.150285,18.4584556 41.7034745,19.0955508 41.0325768,19.3377586 L37.6607317,20.5401057 C37.1442362,20.724322 36.5704357,20.6460858 36.1221116,20.3303188 C35.6737876,20.0145519 35.4068502,19.5006332 35.406331,18.9522693 L35.406331,16.790154 C35.4070968,16.060378 35.8768839,15.4137824 36.5707092,15.187552 Z M26.9999214,3.50818809e-06 C27.5138922,0.000430562027 28.0236289,0.0929475932 28.5049646,0.273175445 L52.5461043,9.04292589 C53.4183182,9.36201698 53.9988156,10.1913898 53.9999984,11.1201386 L53.9999984,13.1193042 C54.0011264,14.0776309 53.3987342,14.9328508 52.4960065,15.2545248 L48.6658984,16.6045285 C48.3314961,16.7238511 47.9599602,16.6731681 47.6697362,16.4686374 C47.3795123,16.2641066 47.2068277,15.9312586 47.2067343,15.5762054 L47.2067343,12.4015874 L26.9999214,5.00978991 L6.74986625,12.370474 L6.74986625,14.7324531 C6.74993491,15.281532 6.48285757,15.7963138 6.03390878,16.112435 C5.58496,16.4285562 5.01027969,16.5064867 4.49335622,16.3213442 L1.51174654,15.2555795 C0.612939744,14.9338564 0.0103275918,14.085525 0.00244892397,13.1309058 L0.00244892397,11.1269941 C-0.00125846476,10.1929336 0.581395205,9.35692472 1.45901202,9.03712509 L25.4337062,0.273175445 C25.9359333,0.0917826967 26.4659412,-0.000656382221 26.9999214,3.50818809e-06 Z"></path></clipPath></defs><g clip-path="url(#i0)"><polygon points="0,-2.0083761e-15 54,-2.0083761e-15 54,54.000158 0,54.000158 0,-2.0083761e-15" stroke="none" fill="#151515"></polygon></g></svg>