<?xml version="1.0" encoding="UTF-8"?><svg version="1.1" width="54px" height="46px" viewBox="0 0 54.0 46.0" xmlns="http://www.w3.org/2000/svg" xmlns:xlink="http://www.w3.org/1999/xlink"><defs><clipPath id="i0"><path d="M21.4667763,4.52294408 C22.2661184,4.12327303 23.2075658,4.12327303 24.0069079,4.52294408 L32.5332237,8.78610197 C33.496875,9.26570724 34.1052632,10.2515625 34.1052632,11.3262336 L34.1052632,22.0018914 L43.8972039,26.904523 C44.8608553,27.3841283 45.4692434,28.3699836 45.4692434,29.4446546 L45.4692434,38.3706414 C45.4692434,39.4453125 44.8652961,40.426727 43.9060855,40.910773 L35.3753289,45.1739309 C34.9756579,45.3737664 34.5404605,45.4714638 34.1052632,45.4714638 C33.6700658,45.4714638 33.2348684,45.3693257 32.8351974,45.1694901 L22.7368421,40.1203125 L12.6384868,45.1694901 C12.2388158,45.3693257 11.8036184,45.4714638 11.3684211,45.4714638 C10.9332237,45.4714638 10.4980263,45.3693257 10.0983553,45.1694901 L1.57203947,40.9063322 C0.608388158,40.426727 0,39.4408717 0,38.3662007 L0,29.4446546 C0,28.3699836 0.608388158,27.3841283 1.57203947,26.904523 L11.3684211,22.0018914 L11.3684211,11.3262336 C11.3684211,10.2515625 11.9768092,9.26570724 12.9404605,8.78610197 Z M19.8947368,32.3089638 L11.3684211,36.5721217 L11.3684211,42.6471217 L19.8947368,38.3839638 L19.8947368,32.3089638 Z M42.6315789,32.3089638 L34.1052632,36.5721217 L34.1052632,42.6471217 L42.6315789,38.3839638 L42.6315789,32.3089638 Z M32.5332237,0.299753289 L41.0595395,4.56291118 C42.0231908,5.04251645 42.6315789,6.02837171 42.6315789,7.10304276 L42.6315789,17.4234375 L52.4279605,22.3216283 C53.3916118,22.8056743 54,23.7915296 54,24.8662007 L54,34.1474507 C54,35.2221217 53.3960526,36.2035362 52.4368421,36.6875822 L48.3069079,38.7481086 L48.3069079,38.7214638 C49.1595395,38.210773 49.6879934,37.2870888 49.6879934,36.2834704 L49.6879934,27.3574836 C49.6879934,26.2828125 49.0796053,25.2969572 48.1159539,24.817352 L38.3240132,19.9147204 L38.3240132,9.2390625 C38.3240132,8.16439145 37.715625,7.17853618 36.7519737,6.69893092 L28.2256579,2.43577303 C27.50625,2.07606908 26.6758224,2.04054276 25.9342105,2.32919408 L29.9930921,0.299753289 C30.7924342,-0.0999177632 31.7338816,-0.0999177632 32.5332237,0.299753289 Z M11.3684211,25.2037007 L3.21069079,29.3158717 L11.3684211,33.3925164 L19.5572368,29.2981086 L11.3684211,25.2037007 Z M34.1052632,25.2037007 L25.9475329,29.3158717 L34.1052632,33.3925164 L42.3296053,29.2803454 L34.1052632,25.2037007 Z M31.2631579,14.1905428 L22.7368421,18.4537007 L22.7368421,24.5331414 L31.2631579,20.2699836 L31.2631579,14.1905428 Z M22.7368421,7.08527961 L14.5791118,11.1974507 L22.7368421,15.2740954 L30.9256579,11.1441612 L22.7368421,7.08527961 Z"></path></clipPath></defs><g clip-path="url(#i0)"><polygon points="0,5.55111512e-17 54,5.55111512e-17 54,45.4714638 0,45.4714638 0,5.55111512e-17" stroke="none" fill="#151515"></polygon></g></svg>