<?xml version="1.0" encoding="UTF-8"?><svg version="1.1" width="54px" height="54px" viewBox="0 0 54.0 54.0" xmlns="http://www.w3.org/2000/svg" xmlns:xlink="http://www.w3.org/1999/xlink"><defs><clipPath id="i0"><path d="M27.0052734,0 L54,5.78496094 L54,46.2849609 L34.7150391,54 L30.8548828,54 L0,46.5275391 L0,5.78496094 L23.1451172,0 L27.0052734,0 Z M50.625,10.7103516 L33.75,17.2441406 L33.75,50.2294922 L37.125,48.8583984 L37.125,44.2652344 L47.2447266,40.2626953 L47.2447266,44.8083984 L50.625,43.4636719 L50.625,10.7103516 Z M3.86015625,10.5943359 L3.86015625,43.5111328 L6.77109375,44.1808594 L6.77109375,38.3220703 L26.9789063,43.2105469 L26.9789063,48.9902344 L30.375,49.7970703 L30.375,16.4847656 L3.86015625,10.5943359 Z M47.2552734,28.6980469 L47.2552734,36.4130859 L37.125,40.4103516 L37.125,32.6953125 L47.2552734,28.6980469 Z M6.77109375,26.7521484 L26.9789063,31.5193359 L26.9789063,39.2976563 L6.77109375,34.4671875 L6.77109375,26.7521484 Z M47.25,17.128125 L47.25,24.8378906 L37.125,28.8351563 L37.125,21.1201172 L47.25,17.128125 Z M6.77109375,15.3404297 L26.9789063,19.8650391 L26.9789063,27.6960938 L6.77109375,22.8972656 L6.77109375,15.3404297 Z"></path></clipPath></defs><g clip-path="url(#i0)"><polygon points="0,0 54,0 54,54 0,54 0,0" stroke="none" fill="#151515"></polygon></g></svg>