<?xml version="1.0" encoding="UTF-8"?>
<svg width="54px" height="51px" viewBox="0 0 54 51" version="1.1" xmlns="http://www.w3.org/2000/svg" xmlns:xlink="http://www.w3.org/1999/xlink">
    <title></title>
    <g id="Icons" stroke="none" stroke-width="1" fill="none" fill-rule="evenodd">
        <g id="Icons/4.-Size-xl/Object/pficon-repository" fill="#151515">
            <path d="M54,30.1764706 L54,50.8235294 L19.0588235,50.8235294 L19.0588235,27.2233456 C19.0588235,27.2233456 19.0588235,25.4117647 20.8704044,25.4117647 L32.8069853,25.4117647 C34.6533088,25.4117647 35.5169118,27.2829044 35.5169118,27.2829044 L36.2216912,28.5882353 L52.4117647,28.5882353 C53.2902574,28.5882353 54,29.2979779 54,30.1764706 L54,30.1764706 Z M15.8823529,27.1737132 C15.8823529,26.8113971 15.9369485,25.8634191 16.4431985,24.8459559 C17.2770221,23.1783088 18.9794118,22.1856618 20.9200368,22.1856618 L32.8566176,22.1856618 C34.4746324,22.1856618 36.0181985,22.865625 37.1994485,24.1014706 C37.6362132,24.5580882 37.9538603,25.0147059 38.1623162,25.3621324 L44.4705882,25.3621324 L44.4705882,17.4705882 C44.4705882,16.5920956 43.7608456,15.8823529 42.8823529,15.8823529 L26.6922794,15.8823529 L25.9875,14.5770221 C25.9875,14.5770221 25.1238971,12.7058824 23.2775735,12.7058824 L11.3409926,12.7058824 C9.52941176,12.7058824 9.52941176,14.5174632 9.52941176,14.5174632 L9.52941176,38.1176471 L15.8823529,38.1176471 L15.8823529,27.1737132 Z M6.35294118,25.4117647 L0,25.4117647 L0,1.81158088 C0,1.81158088 0,0 1.81158088,0 L13.7481618,0 C15.5944853,0 16.4580882,1.87113971 16.4580882,1.87113971 L17.1628676,3.17647059 L33.3529412,3.17647059 C34.2314338,3.17647059 34.9411765,3.88621324 34.9411765,4.76470588 L34.9411765,12.7058824 L28.5832721,12.7058824 C28.3748162,12.3584559 28.0571691,11.8025735 27.6204044,11.3459559 C26.4391544,10.1101103 24.8955882,9.43014706 23.2775735,9.43014706 L11.3409926,9.43014706 C9.40533088,9.43014706 7.74761029,10.4227941 6.91378676,12.0904412 C6.40753676,13.1029412 6.35294118,14.0558824 6.35294118,14.4181985 L6.35294118,25.4117647 Z" id="pficon-repository"></path>
        </g>
    </g>
</svg>