<?xml version="1.0" encoding="UTF-8"?><svg version="1.1" width="57px" height="56px" viewBox="0 0 57.0 56.0" xmlns="http://www.w3.org/2000/svg" xmlns:xlink="http://www.w3.org/1999/xlink"><defs><clipPath id="i0"><path d="M25.1858854,1.87863772 C26.4303931,-0.6419976 30.0058164,-0.61037765 31.2398185,1.87863772 L38.1268908,15.8427081 L53.5357973,18.0891665 C56.2990925,18.4899262 57.4065118,21.8965381 55.4026103,23.8477054 L44.2545694,34.7109607 L46.8912818,50.0566273 C47.3658901,52.8305312 44.4444951,54.8976725 41.9976053,53.6109363 L28.212852,46.3652298 L14.4280986,53.6109363 C11.9812088,54.9081782 9.05981382,52.8305312 9.53442206,50.0566273 L12.1711345,34.7109607 L1.02309363,23.8477054 C-0.980807842,21.8965381 0.126611393,18.4899262 2.88990665,18.0891665 L18.2988131,15.8427081 Z"></path></clipPath></defs><g transform="translate(3.552713678800501e-15 0.9999999999999964)"><g clip-path="url(#i0)"><polygon points="1.59872116e-14,2.22044605e-16 56.4257039,2.22044605e-16 56.4257039,54.0065088 1.59872116e-14,54.0065088 1.59872116e-14,2.22044605e-16" stroke="none" fill="#151515"></polygon></g></g></svg>