<?xml version="1.0" encoding="UTF-8"?><svg version="1.1" width="54px" height="54px" viewBox="0 0 54.0 54.0" xmlns="http://www.w3.org/2000/svg" xmlns:xlink="http://www.w3.org/1999/xlink"><defs><clipPath id="i0"><path d="M26.5905242,0 C27.7479998,0 29.3517595,0.664327945 30.1701704,1.48273877 L52.5171325,23.8297009 C54.4940488,25.8066172 54.4940488,29.0120768 52.5171325,30.9890962 L30.9890962,52.5171325 C29.0120768,54.4940488 25.8066172,54.4940488 23.8297009,52.5171325 L1.48273877,30.1701704 C0.664327945,29.3517595 0,27.7479998 0,26.5905242 L0,5.06248793 C0,2.26654275 2.26654275,0 5.06248793,0 Z M11.8124718,6.74998391 C9.01652666,6.74998391 6.74998391,9.01652666 6.74998391,11.8124718 C6.74998391,14.608417 9.01652666,16.8749598 11.8124718,16.8749598 C14.608417,16.8749598 16.8749598,14.608417 16.8749598,11.8124718 C16.8749598,9.01652666 14.608417,6.74998391 11.8124718,6.74998391 Z"></path></clipPath></defs><g clip-path="url(#i0)"><polygon points="0,0 53.9998198,0 53.9998198,53.9998198 0,53.9998198 0,0" stroke="none" fill="#151515"></polygon></g></svg>