<?xml version="1.0" encoding="UTF-8"?>
<svg width="68px" height="48px" viewBox="0 0 68 48" version="1.1" xmlns="http://www.w3.org/2000/svg" xmlns:xlink="http://www.w3.org/1999/xlink">
    <title></title>
    <g id="Icons" stroke="none" stroke-width="1" fill="none" fill-rule="evenodd">
        <g id="Icons/4.-Size-xl/Object/users" fill="#151515">
            <path d="M33.7499195,23.6249437 C40.2784608,23.6249437 45.5623914,18.3410131 45.5623914,11.8124718 C45.5623914,5.28393058 40.2784608,3.55271368e-15 33.7499195,3.55271368e-15 C27.2213783,3.55271368e-15 21.9374477,5.28393058 21.9374477,11.8124718 C21.9374477,18.3410131 27.2213783,23.6249437 33.7499195,23.6249437 Z M10.1249759,20.2499517 C13.8479933,20.2499517 16.8749598,17.2229852 16.8749598,13.4999678 C16.8749598,9.77695041 13.8479933,6.74998391 10.1249759,6.74998391 C6.40195846,6.74998391 3.37499195,9.77695041 3.37499195,13.4999678 C3.37499195,17.2229852 6.40195846,20.2499517 10.1249759,20.2499517 Z M57.3748632,20.2499517 C61.0978806,20.2499517 64.1248471,17.2229852 64.1248471,13.4999678 C64.1248471,9.77695041 61.0978806,6.74998391 57.3748632,6.74998391 C53.6518458,6.74998391 50.6248793,9.77695041 50.6248793,13.4999678 C50.6248793,17.2229852 53.6518458,20.2499517 57.3748632,20.2499517 Z M64.1248471,37.1249115 C65.9916601,37.1249115 67.4998391,35.6167326 67.4998391,33.7499195 L67.4998391,30.3749276 C67.4998391,26.6519102 64.4728726,23.6249437 60.7498552,23.6249437 L53.9998713,23.6249437 C52.1436669,23.6249437 50.4666766,24.3737288 49.2432832,25.5866165 C53.4936431,27.9175322 56.5100009,32.1256635 57.1639262,37.1249115 L64.1248471,37.1249115 Z M10.3254072,37.1249115 C10.9898381,32.1256635 14.006196,27.9175322 18.2565559,25.5866165 C17.0331625,24.3737288 15.3561722,23.6249437 13.4999678,23.6249437 L6.74998391,23.6249437 C3.02696651,23.6249437 0,26.6519102 0,30.3749276 L0,33.7499195 C0,35.6167326 1.50817893,37.1249115 3.37499195,37.1249115 L10.3254072,37.1249115 Z M48.9373833,47.2498873 C51.7322985,47.2498873 53.9998713,44.9823146 53.9998713,42.1873994 L53.9998713,39.1499273 C53.9998713,32.442069 48.5577379,26.9999356 41.8498796,26.9999356 L40.9745117,26.9999356 C38.7807875,28.0546206 36.3444034,28.6874316 33.7499195,28.6874316 C31.1554357,28.6874316 28.7296602,28.0546206 26.5253274,26.9999356 L25.6499594,26.9999356 C18.9421011,26.9999356 13.4999678,32.442069 13.4999678,39.1499273 L13.4999678,42.1873994 C13.4999678,44.9823146 15.7675405,47.2498873 18.5624557,47.2498873 L48.9373833,47.2498873 Z" id="users"></path>
        </g>
    </g>
</svg>