<?xml version="1.0" encoding="UTF-8"?><svg version="1.1" width="68px" height="48px" viewBox="0 0 68.0 48.0" xmlns="http://www.w3.org/2000/svg" xmlns:xlink="http://www.w3.org/1999/xlink"><defs><clipPath id="i0"><path d="M26.5253274,26.9999356 C28.7296602,28.0546206 31.1554357,28.6874316 33.7499195,28.6874316 C36.3444034,28.6874316 38.7807875,28.0546206 40.9745117,26.9999356 L41.8498796,26.9999356 C48.5577379,26.9999356 53.9998713,32.442069 53.9998713,39.1499273 L53.9998713,42.1873994 C53.9998713,44.9823146 51.7322985,47.2498873 48.9373833,47.2498873 L18.5624557,47.2498873 C15.7675405,47.2498873 13.4999678,44.9823146 13.4999678,42.1873994 L13.4999678,39.1499273 C13.4999678,32.442069 18.9421011,26.9999356 25.6499594,26.9999356 Z M60.7498552,23.6249437 C64.4728726,23.6249437 67.4998391,26.6519102 67.4998391,30.3749276 L67.4998391,33.7499195 C67.4998391,35.6167326 65.9916601,37.1249115 64.1248471,37.1249115 L57.1639262,37.1249115 C56.5100009,32.1256635 53.4936431,27.9175322 49.2432832,25.5866165 C50.4666766,24.3737288 52.1436669,23.6249437 53.9998713,23.6249437 Z M13.4999678,23.6249437 C15.3561722,23.6249437 17.0331625,24.3737288 18.2565559,25.5866165 C14.006196,27.9175322 10.9898381,32.1256635 10.3254072,37.1249115 L3.37499195,37.1249115 C1.50817893,37.1249115 0,35.6167326 0,33.7499195 L0,30.3749276 C0,26.6519102 3.02696651,23.6249437 6.74998391,23.6249437 Z M33.7499195,0 C40.2784608,0 45.5623914,5.28393058 45.5623914,11.8124718 C45.5623914,18.3410131 40.2784608,23.6249437 33.7499195,23.6249437 C27.2213783,23.6249437 21.9374477,18.3410131 21.9374477,11.8124718 C21.9374477,5.28393058 27.2213783,0 33.7499195,0 Z M10.1249759,6.74998391 C13.8479933,6.74998391 16.8749598,9.77695041 16.8749598,13.4999678 C16.8749598,17.2229852 13.8479933,20.2499517 10.1249759,20.2499517 C6.40195846,20.2499517 3.37499195,17.2229852 3.37499195,13.4999678 C3.37499195,9.77695041 6.40195846,6.74998391 10.1249759,6.74998391 Z M57.3748632,6.74998391 C61.0978806,6.74998391 64.1248471,9.77695041 64.1248471,13.4999678 C64.1248471,17.2229852 61.0978806,20.2499517 57.3748632,20.2499517 C53.6518458,20.2499517 50.6248793,17.2229852 50.6248793,13.4999678 C50.6248793,9.77695041 53.6518458,6.74998391 57.3748632,6.74998391 Z"></path></clipPath></defs><g transform=""><g clip-path="url(#i0)"><polygon points="0,0 67.4998391,0 67.4998391,47.2498873 0,47.2498873 0,0" stroke="none" fill="#151515"></polygon></g></g></svg>