<svg xmlns="http://www.w3.org/2000/svg" width="24" height="24" viewBox="0 0 24 24">
  <path fill="#6A6E73" fill-rule="evenodd" d="M12.6421665,17.7327611 L19.7718187,10.5983939 C20.3624698,10.0077886 19.9452649,8.99997854 19.1109011,8.99997854 L14.9999642,8.99997854 L14.9999642,1.12499732 C14.9999642,0.501570459 14.4983938,-1.77635684e-15 13.8749669,-1.77635684e-15 L10.1249759,-1.77635684e-15 C9.501549,-1.77635684e-15 8.99997854,0.501570459 8.99997854,1.12499732 L8.99997854,8.99997854 L4.88437251,8.99997854 C4.05000865,8.99997854 3.63280384,10.0077886 4.22340912,10.5983939 L11.3624912,17.7327611 C11.7140529,18.0843227 12.2906049,18.0843227 12.6421665,17.7327611 Z M22.8749455,23.9999428 C23.4983723,23.9999428 23.9999428,23.4983723 23.9999428,22.8749455 L23.9999428,17.624958 C23.9999428,17.0015311 23.4983723,16.4999607 22.8749455,16.4999607 L15.9983902,16.4999607 L13.7015207,18.7968302 C12.7593537,19.7389971 11.240589,19.7389971 10.2984221,18.7968302 L8.00155258,16.4999607 L1.12499732,16.4999607 C0.501570459,16.4999607 -1.77635684e-15,17.0015311 -1.77635684e-15,17.624958 L-1.77635684e-15,22.8749455 C-1.77635684e-15,23.4983723 0.501570459,23.9999428 1.12499732,23.9999428 L22.8749455,23.9999428 Z M17.2499589,22.6874459 C16.7343351,22.6874459 16.3124611,22.2655719 16.3124611,21.7499481 C16.3124611,21.2343244 16.7343351,20.8124504 17.2499589,20.8124504 C17.7655826,20.8124504 18.1874566,21.2343244 18.1874566,21.7499481 C18.1874566,22.2655719 17.7655826,22.6874459 17.2499589,22.6874459 Z M20.2499517,22.6874459 C19.7343279,22.6874459 19.312454,22.2655719 19.312454,21.7499481 C19.312454,21.2343244 19.7343279,20.8124504 20.2499517,20.8124504 C20.7655755,20.8124504 21.1874495,21.2343244 21.1874495,21.7499481 C21.1874495,22.2655719 20.7655755,22.6874459 20.2499517,22.6874459 Z"/>
</svg>
