<svg xmlns="http://www.w3.org/2000/svg" width="24" height="24" viewBox="0 0 24 24">
  <path fill="#6A6E73" fill-rule="evenodd" d="M8.3749848,22.9999499 C9.37762218,22.9999499 9.87919264,21.785872 9.1718579,21.0780795 L7.47355873,19.3859144 L12.499975,14.3562022 L17.5249721,19.3811994 L15.828092,21.0780795 C15.1207573,21.785872 15.6223278,22.9999499 16.6249651,22.9999499 L21.8777907,22.9999499 C22.4972351,22.9999499 22.9999499,22.4972351 22.9999499,21.8777907 L22.9999499,16.6249651 C22.9999499,15.6218242 21.785872,15.1202995 21.0780795,15.8327612 L19.3821607,17.5296413 L14.3534099,12.499975 L19.3816572,7.47497779 L21.0780795,9.1718579 C21.7863756,9.8796504 22.9999499,9.37812572 22.9999499,8.3749848 L22.9999499,3.12215919 C22.9999499,2.50271487 22.4972351,2 21.8777907,2 L16.6249651,2 C15.6223278,2 15.1207573,3.21407792 15.828092,3.92187042 L17.5263912,5.61403557 L12.499975,10.6437477 L7.47497779,5.61875053 L9.1718579,3.92187042 C9.87919264,3.21407792 9.37762218,2 8.3749848,2 L3.12215919,2 C2.50271487,2 2,2.50271487 2,3.12215919 L2,8.3749848 C2,9.37812572 3.21407792,9.8796504 3.92187042,9.1718579 L5.61778923,7.47030861 L10.6465401,12.499975 L5.61829276,17.5249721 L3.92187042,15.828092 C3.21357438,15.1202995 2,15.6218242 2,16.6249651 L2,21.8777907 C2,22.4972351 2.50271487,22.9999499 3.12215919,22.9999499 L8.3749848,22.9999499 Z"/>
</svg>
