<svg xmlns="http://www.w3.org/2000/svg" width="24" height="24" viewBox="0 0 24 24">
  <path fill="#6A6E73" fill-rule="evenodd" d="M8.74998391,22.9999499 C9.99216845,22.9999499 10.9999785,21.9921398 10.9999785,20.7499553 L10.9999785,4.24999464 C10.9999785,3.0078101 9.99216845,2 8.74998391,2 L4.24999464,2 C3.0078101,2 2,3.0078101 2,4.24999464 L2,20.7499553 C2,21.9921398 3.0078101,22.9999499 4.24999464,22.9999499 L8.74998391,22.9999499 Z M20.7499553,22.9999499 C21.9921398,22.9999499 22.9999499,21.9921398 22.9999499,20.7499553 L22.9999499,4.24999464 C22.9999499,3.0078101 21.9921398,2 20.7499553,2 L16.249966,2 C15.0077815,2 13.9999714,3.0078101 13.9999714,4.24999464 L13.9999714,20.7499553 C13.9999714,21.9921398 15.0077815,22.9999499 16.249966,22.9999499 L20.7499553,22.9999499 Z"/>
</svg>
