<svg xmlns="http://www.w3.org/2000/svg" width="24" height="24" viewBox="0 0 24 24">
  <path fill="#6A6E73" fill-rule="evenodd" d="M19.4999535,23.9999428 C20.3282291,23.9999428 20.9999499,23.328222 20.9999499,22.4999464 L20.9999499,17.9999571 L23.2499446,17.9999571 C23.6643113,17.9999571 23.9999428,17.6643256 23.9999428,17.2499589 L23.9999428,11.9999714 C23.9999428,10.3429624 22.6569589,8.99997854 20.9999499,8.99997854 L20.9999499,3.62108512 C20.9999499,3.22310633 20.8419761,2.84201898 20.5607267,2.56031189 L18.4391803,0.439223196 C18.157931,0.157973867 17.7763858,0 17.3784071,0 L4.49998927,0 C3.67171366,0 3,0.671720811 3,1.5 L3,8.99997854 C1.34298386,8.99997854 0,10.3429624 0,11.9999714 L0,17.2499589 C0,17.6643256 0.335631524,17.9999571 0.749998212,17.9999571 L3,17.9999571 L3,22.4999464 C3,23.328222 3.67171366,23.9999428 4.49998927,23.9999428 L19.4999535,23.9999428 Z M17.9999571,10.499975 L5.99998569,10.499975 L5.99998569,2.99999285 L14.9999642,2.99999285 L14.9999642,5.24998748 C14.9999642,5.66435417 15.3355958,5.99999285 15.7499624,5.99999285 L17.9999571,5.99999285 L17.9999571,10.499975 Z M20.2499517,13.8749669 C19.6288595,13.8749669 19.1249544,13.3710619 19.1249544,12.7499696 C19.1249544,12.1284196 19.6288595,11.6249723 20.2499517,11.6249723 C20.871044,11.6249723 21.374949,12.1284196 21.374949,12.7499696 C21.374949,13.3710619 20.871044,13.8749669 20.2499517,13.8749669 Z M17.9999571,20.9999499 L5.99998569,20.9999499 L5.99998569,16.4999607 L17.9999571,16.4999607 L17.9999571,20.9999499 Z"/>
</svg>
