<svg xmlns="http://www.w3.org/2000/svg" width="24" height="24" viewBox="0 0 24 24">
  <path fill="#6A6E73" fill-rule="evenodd" d="M19.0257477,20.0682562 L20.0682562,19.0257477 C20.6438927,18.4501113 20.6438927,17.5168707 20.0682562,16.9407765 L15.3774715,12.2499918 L20.0682562,7.55920706 C20.6438927,6.98361639 20.6438927,6.05033004 20.0682562,5.47423583 L19.0257477,4.43172733 C18.4501113,3.85609089 17.5168707,3.85609089 16.9407765,4.43172733 L12.2499918,9.12251205 L7.55920706,4.43172733 C6.98361639,3.85609089 6.05033004,3.85609089 5.47423583,4.43172733 L4.43172733,5.47423583 C3.85609089,6.04987228 3.85609089,6.98311285 4.43172733,7.55920706 L9.12251205,12.2499918 L4.43172733,16.9407765 C3.85609089,17.5163672 3.85609089,18.4496535 4.43172733,19.0257477 L5.47423583,20.0682562 C6.04987228,20.6438927 6.98361639,20.6438927 7.55920706,20.0682562 L12.2499918,15.3774715 L16.9407765,20.0682562 C17.5163672,20.6438927 18.4501113,20.6438927 19.0257477,20.0682562 Z"/>
</svg>
