<?xml version="1.0" encoding="UTF-8"?><svg version="1.1" width="24px" height="24px" viewBox="0 0 24.0 24.0" xmlns="http://www.w3.org/2000/svg" xmlns:xlink="http://www.w3.org/1999/xlink"><defs><clipPath id="i0"><path d="M4.2833438,0.140637984 C5.10129687,-0.042169502 5.9825585,-0.0515307468 6.84269439,0.140637984 C6.97160033,0.168767495 7.06301552,0.283620126 7.06301552,0.414860658 L7.06301552,1.5656529 C7.58566595,1.74846038 8.06849103,2.02735224 8.48800754,2.38829803 L9.4864564,1.81174606 C9.59895155,1.74610291 9.74426828,1.76954035 9.83332599,1.8656476 C10.4122354,2.49376653 10.8551894,3.24845681 11.1153588,4.08282066 C11.1528495,4.20939202 11.1012826,4.34532461 10.9864528,4.41094488 L9.98800397,4.98751974 C10.0887804,5.53125013 10.0887804,6.08907961 9.98800397,6.63281001 L10.9864528,7.20938486 C11.1012826,7.27500513 11.1528495,7.41093773 11.1176934,7.53984367 C10.8575469,8.376565 10.41457,9.13125528 9.83566058,9.75703962 C9.74660287,9.85545857 9.60364362,9.87656143 9.48879099,9.81094116 L8.49036502,9.2343663 C8.06849103,9.59297751 7.58566595,9.87186936 7.06535011,10.0570343 L7.06535011,11.2101612 C7.06535011,11.3414017 6.97395781,11.4562543 6.84505187,11.4843609 C6.02707591,11.6671913 5.14583717,11.6765526 4.28567839,11.4843609 C4.15677245,11.4562543 4.06535726,11.3414017 4.06535726,11.2101612 L4.06535726,10.0570343 C3.54270683,9.87422684 3.05990464,9.5953121 2.64036524,9.2343663 L1.64193927,9.81094116 C1.52944412,9.87656143 1.38412739,9.85312398 1.29506968,9.75703962 C0.716160229,9.1288978 0.27318338,8.37423041 0.0130369056,7.53984367 C-0.0244767378,7.41329521 0.0270902169,7.27733972 0.141942848,7.21171945 L1.14036881,6.63516748 C1.03959238,6.0914142 1.03959238,5.53360761 1.14036881,4.98985433 L0.141942848,4.41330236 C0.0270902169,4.3476592 -0.026811327,4.21172661 0.0130369056,4.08517814 C0.27318338,3.24845681 0.716160229,2.49376653 1.29506968,1.86798219 C1.38412739,1.76954035 1.52708664,1.74846038 1.64193927,1.81408065 L2.63803065,2.39063262 C3.05990464,2.0320443 3.54270683,1.75315245 4.06302267,1.56798749 L4.06302267,0.414860658 C4.06302267,0.283620126 4.15443786,0.168767495 4.2833438,0.140637984 Z M5.5630191,3.93516934 C4.52943697,3.93516934 3.68802357,4.77658274 3.68802357,5.81016487 C3.68802357,6.843747 4.52943697,7.6851604 5.5630191,7.6851604 C6.59660123,7.6851604 7.43801463,6.843747 7.43801463,5.81016487 C7.43801463,4.77658274 6.59660123,3.93516934 5.5630191,3.93516934 Z"></path></clipPath></defs><g transform="translate(6.000000000000001 6.000000000000001)"><g clip-path="url(#i0)"><polygon points="-1.77462212e-15,-4.4408921e-15 11.128586,-4.4408921e-15 11.128586,11.6250161 -1.77462212e-15,11.6250161 -1.77462212e-15,-4.4408921e-15" stroke="none" fill="#696E73"></polygon></g></g></svg>