<?xml version="1.0" encoding="UTF-8"?><svg version="1.1" width="24px" height="24px" viewBox="0 0 24.0 24.0" xmlns="http://www.w3.org/2000/svg" xmlns:xlink="http://www.w3.org/1999/xlink"><defs><clipPath id="i0"><path d="M10.8749741,0 C11.4962952,0 11.9999714,0.503676167 11.9999714,1.12499732 L11.9999714,9.37497765 C11.9999714,9.9962988 11.4962952,10.499975 10.8749741,10.499975 L1.12499732,10.499975 C0.503676167,10.499975 0,9.9962988 0,9.37497765 L0,1.12499732 C0,0.503676167 0.503676167,0 1.12499732,0 Z M5.24998748,2.99999285 L1.49999642,2.99999285 L1.49999642,8.99997854 L5.24998748,8.99997854 L5.24998748,2.99999285 Z M10.499975,2.99999285 L6.74998391,2.99999285 L6.74998391,8.99997854 L10.499975,8.99997854 L10.499975,2.99999285 Z"></path></clipPath></defs><g transform="translate(5.999999999999999 7.000000000000002)"><g clip-path="url(#i0)"><polygon points="0,0 11.9999714,0 11.9999714,10.499975 0,10.499975 0,0" stroke="none" fill="#696E73"></polygon></g></g></svg>