<?xml version="1.0" encoding="UTF-8"?><svg version="1.1" width="24px" height="24px" viewBox="0 0 24.0 24.0" xmlns="http://www.w3.org/2000/svg" xmlns:xlink="http://www.w3.org/1999/xlink"><defs><clipPath id="i0"><path d="M9.93630329,6.74881089 C10.4378737,6.74881089 10.6886361,7.35349237 10.3347398,7.70741151 L9.56130418,8.43630687 L11.8886378,10.765998 C12.0339545,10.9112918 12.0339545,11.1503583 11.8886378,11.295675 L11.2933405,11.8909953 C11.1480237,12.0362891 10.9089572,12.0362891 10.7636405,11.8909953 L8.43630687,9.56363877 L7.7097461,10.3347398 C7.35584985,10.6886361 6.74881089,10.4378737 6.74881089,9.93630329 L6.74881089,7.31130955 C6.74881089,6.99959612 6.99959612,6.74881089 7.31130955,6.74881089 Z M4.68631581,6.74881089 C4.99802924,6.74881089 5.24881447,6.99959612 5.24881447,7.31130955 L5.24881447,9.93630329 C5.24881447,10.4378737 4.64413299,10.6886361 4.29021385,10.3347398 L3.56131849,9.56130418 L1.23398487,11.8886378 C1.08866813,12.0339545 0.849601627,12.0339545 0.704284896,11.8886378 L0.108987548,11.2933405 C-0.0363291828,11.1480237 -0.0363291828,10.9089572 0.108987548,10.7636405 L2.43398658,8.43630687 L1.66288552,7.7097461 C1.30898926,7.35349237 1.55975161,6.74881089 2.06132207,6.74881089 Z M10.7636405,0.108987548 C10.9089572,-0.0363291828 11.1480237,-0.0363291828 11.2933405,0.108987548 L11.8886378,0.704284896 C12.0339545,0.849601627 12.0339545,1.08866813 11.8886378,1.23398487 L9.56130418,3.56131849 L10.3347398,4.28787926 C10.6886361,4.64177551 10.4378737,5.24881447 9.93630329,5.24881447 L7.31130955,5.24881447 C6.99959612,5.24881447 6.74881089,4.99802924 6.74881089,4.68631581 L6.74881089,2.06132207 C6.74881089,1.55975161 7.35349237,1.30898926 7.70741151,1.66288552 L8.43630687,2.43632117 Z M0.704284896,0.108987548 C0.849601627,-0.0363291828 1.08866813,-0.0363291828 1.23398487,0.108987548 L3.56131849,2.43632117 L4.28787926,1.66522011 C4.64177551,1.31132385 5.24881447,1.56210908 5.24881447,2.06132207 L5.24881447,4.68631581 C5.24881447,4.99802924 4.99802924,5.24881447 4.68631581,5.24881447 L2.06132207,5.24881447 C1.55975161,5.24881447 1.30898926,4.64413299 1.66288552,4.29021385 L2.43632117,3.56131849 L0.108987548,1.23398487 C-0.0363291828,1.08866813 -0.0363291828,0.849601627 0.108987548,0.704284896 Z"></path></clipPath></defs><g transform="translate(6.0 6.000000000000001)"><g clip-path="url(#i0)"><polygon points="0,0 11.9976254,0 11.9976254,11.9999657 0,11.9999657 0,0" stroke="none" fill="#696E73"></polygon></g></g></svg>