<?xml version="1.0" encoding="UTF-8"?><svg version="1.1" width="24px" height="24px" viewBox="0 0 24.0 24.0" xmlns="http://www.w3.org/2000/svg" xmlns:xlink="http://www.w3.org/1999/xlink"><defs><clipPath id="i0"><path d="M3.1874924,6.74998391 C3.49920583,6.74998391 3.74999106,7.00076914 3.74999106,7.31248257 L3.74999106,10.2187256 C3.74999106,10.3734036 3.62341971,10.499975 3.46874173,10.499975 L2.53124397,10.499975 C2.37656599,10.499975 2.24999464,10.3734036 2.24999464,10.2187256 L2.24999464,8.24998391 L0.281249329,8.24998391 C0.126571354,8.24998391 0,8.12340898 0,7.968731 L0,7.03123324 C0,6.87655526 0.126571354,6.74998391 0.281249329,6.74998391 Z M10.2187256,6.74998391 C10.3734036,6.74998391 10.499975,6.87655526 10.499975,7.03123324 L10.499975,7.968731 C10.499975,8.12340898 10.3734036,8.24998391 10.2187256,8.24998391 L8.24998391,8.24998391 L8.24998391,10.2187256 C8.24998391,10.3734036 8.12340898,10.499975 7.968731,10.499975 L7.03123324,10.499975 C6.87655526,10.499975 6.74998391,10.3734036 6.74998391,10.2187256 L6.74998391,7.31248257 C6.74998391,7.00076914 7.00076914,6.74998391 7.31248257,6.74998391 Z M7.968731,0 C8.12340898,0 8.24998391,0.126571354 8.24998391,0.281249329 L8.24998391,2.24999464 L10.2187256,2.24999464 C10.3734036,2.24999464 10.499975,2.37656599 10.499975,2.53124397 L10.499975,3.46874173 C10.499975,3.62341971 10.3734036,3.74999106 10.2187256,3.74999106 L7.31248257,3.74999106 C7.00076914,3.74999106 6.74998391,3.49920583 6.74998391,3.1874924 L6.74998391,0.281249329 C6.74998391,0.126571354 6.87655526,0 7.03123324,0 Z M3.46874173,0 C3.62341971,0 3.74999106,0.126571354 3.74999106,0.281249329 L3.74999106,3.1874924 C3.74999106,3.49920583 3.49920583,3.74999106 3.1874924,3.74999106 L0.281249329,3.74999106 C0.126571354,3.74999106 0,3.62341971 0,3.46874173 L0,2.53124397 C0,2.37656599 0.126571354,2.24999464 0.281249329,2.24999464 L2.24999464,2.24999464 L2.24999464,0.281249329 C2.24999464,0.126571354 2.37656599,0 2.53124397,0 Z"></path></clipPath></defs><g transform="translate(7.000000000000002 7.000000000000002)"><g clip-path="url(#i0)"><polygon points="0,0 10.499975,0 10.499975,10.499975 0,10.499975 0,0" stroke="none" fill="#696E73"></polygon></g></g></svg>