<?xml version="1.0" encoding="UTF-8"?><svg version="1.1" width="24px" height="24px" viewBox="0 0 24.0 24.0" xmlns="http://www.w3.org/2000/svg" xmlns:xlink="http://www.w3.org/1999/xlink"><defs><clipPath id="i0"><path d="M2.24999464,2.24999464 L2.24999464,9.1874781 C2.24999464,9.91120074 2.83876887,10.499975 3.56249151,10.499975 L7.49998212,10.499975 L7.49998212,11.4374727 C7.49998212,11.7481333 7.24814403,11.9999714 6.93748346,11.9999714 L0.562498659,11.9999714 C0.251838084,11.9999714 0,11.7481333 0,11.4374727 L0,2.81249329 C0,2.50183272 0.251838084,2.24999464 0.562498659,2.24999464 L2.24999464,2.24999464 Z M7.49998212,0 L7.49998212,2.43749419 C7.49998212,2.74687303 7.75310194,3 8.06248078,3 L10.499975,3 L10.499975,9.1874781 C10.499975,9.49813867 10.2481369,9.74997675 9.93747631,9.74997675 L3.56249151,9.74997675 C3.25183093,9.74997675 2.99999285,9.49813867 2.99999285,9.1874781 L2.99999285,0.562498659 C2.99999285,0.251838084 3.25183093,0 3.56249151,0 L7.49998212,0 Z M8.39197828,0 C8.52058668,0 8.69877076,0.0738142161 8.78972819,0.164748753 L10.3352262,1.71024678 C10.4261607,1.8012042 10.499975,1.97938829 10.499975,2.10799668 L10.499975,2.24999464 L8.24998033,2.24999464 L8.24998033,0 Z"></path></clipPath></defs><g transform="translate(7.000000000000002 5.999999999999999)"><g clip-path="url(#i0)"><polygon points="0,0 10.499975,0 10.499975,11.9999714 0,11.9999714 0,0" stroke="none" fill="#696E73"></polygon></g></g></svg>