<?xml version="1.0" encoding="UTF-8"?><svg version="1.1" width="24px" height="24px" viewBox="0 0 24.0 24.0" xmlns="http://www.w3.org/2000/svg" xmlns:xlink="http://www.w3.org/1999/xlink"><defs><clipPath id="i0"><path d="M4.00077629,8.24998033 L5.14921105,9.39841509 C5.62029452,9.86949856 6.37967687,9.86949856 6.85076034,9.39841509 L7.9991951,8.24998033 L11.4374727,8.24998033 C11.7491862,8.24998033 11.9999714,8.50076556 11.9999714,8.81247899 L11.9999714,11.4374727 C11.9999714,11.7491862 11.7491862,11.9999714 11.4374727,11.9999714 L0.562498659,11.9999714 C0.25078523,11.9999714 0,11.7491862 0,11.4374727 L0,8.81247899 C0,8.50076556 0.25078523,8.24998033 0.562498659,8.24998033 L4.00077629,8.24998033 Z M8.62497944,10.4062252 C8.36716755,10.4062252 8.15623055,10.6171622 8.15623055,10.8749741 C8.15623055,11.132786 8.36716755,11.343723 8.62497944,11.343723 C8.88279132,11.343723 9.09372832,11.132786 9.09372832,10.8749741 C9.09372832,10.6171622 8.88279132,10.4062252 8.62497944,10.4062252 Z M10.1249759,10.4062252 C9.86716397,10.4062252 9.65622698,10.6171622 9.65622698,10.8749741 C9.65622698,11.132786 9.86716397,11.343723 10.1249759,11.343723 C10.3827877,11.343723 10.5937247,11.132786 10.5937247,10.8749741 C10.5937247,10.6171622 10.3827877,10.4062252 10.1249759,10.4062252 Z M6.93748346,0 C7.24919689,0 7.49998212,0.25078523 7.49998212,0.562498659 L7.49998212,4.49998927 L9.55545055,4.49998927 C9.97263247,4.49998927 10.1812349,5.00389432 9.88590935,5.29919696 L6.32108326,8.86638053 C6.14530243,9.04216136 5.85702644,9.04216136 5.68124561,8.86638053 L2.11170456,5.29919696 C1.81640192,5.00389432 2.02500433,4.49998927 2.44218625,4.49998927 L4.49998927,4.49998927 L4.49998927,0.562498659 C4.49998927,0.25078523 4.7507745,0 5.06248793,0 Z"></path></clipPath></defs><g transform="translate(5.999999999999999 5.999999999999999)"><g clip-path="url(#i0)"><polygon points="0,0 11.9999714,0 11.9999714,11.9999714 0,11.9999714 0,0" stroke="none" fill="#696E73"></polygon></g></g></svg>