<?xml version="1.0" encoding="UTF-8"?><svg version="1.1" width="24px" height="24px" viewBox="0 0 24.0 24.0" xmlns="http://www.w3.org/2000/svg" xmlns:xlink="http://www.w3.org/1999/xlink"><defs><clipPath id="i0"><path d="M3.1874924,0 C3.68881109,0 3.93959632,0.607038958 3.58592895,0.960935209 L2.7374889,1.80937526 L5.24998748,4.32187385 L7.7631956,1.80701779 L6.91404602,0.960935209 C6.56037865,0.607038958 6.81116388,0 7.31248257,0 L9.93889537,0 C10.2486175,0 10.499975,0.251357433 10.499975,0.561079595 L10.499975,3.1874924 C10.499975,3.68906286 9.89318778,3.9398252 9.53903976,3.58592895 L8.69082858,2.7374889 L6.17670494,5.24998748 L8.69108035,7.76482066 L9.53903976,6.9163806 C9.89293601,6.56014976 10.499975,6.81091211 10.499975,7.31248257 L10.499975,9.93889537 C10.499975,10.2486175 10.2486175,10.499975 9.93889537,10.499975 L7.31248257,10.499975 C6.81116388,10.499975 6.56037865,9.89293601 6.91404602,9.53903976 L7.76248607,8.6905997 L5.24998748,6.17810111 L2.73677936,8.69295718 L3.58592895,9.53903976 C3.93959632,9.89293601 3.68881109,10.499975 3.1874924,10.499975 L0.561079595,10.499975 C0.251357433,10.499975 0,10.2486175 0,9.93889537 L0,7.31248257 C0,6.81091211 0.606787189,6.56014976 0.960935209,6.91404602 L1.80914638,7.76248607 L4.32327003,5.24998748 L1.80889461,2.73515431 L0.960935209,3.58592895 C0.607038958,3.9398252 0,3.68906286 0,3.1874924 L0,0.561079595 C0,0.251357433 0.251357433,0 0.561079595,0 Z"></path></clipPath></defs><g transform="translate(7.000000000000002 7.000000000000002)"><g clip-path="url(#i0)"><polygon points="0,0 10.499975,0 10.499975,10.499975 0,10.499975 0,0" stroke="none" fill="#696E73"></polygon></g></g></svg>