<?xml version="1.0" encoding="UTF-8"?><svg version="1.1" width="24px" height="24px" viewBox="0 0 24.0 24.0" xmlns="http://www.w3.org/2000/svg" xmlns:xlink="http://www.w3.org/1999/xlink"><defs><clipPath id="i0"><path d="M10.2187256,6.74998391 C10.3734036,6.74998391 10.499975,6.87655526 10.499975,7.03123324 L10.499975,9.93747631 C10.499975,10.2491897 10.2491897,10.499975 9.93747631,10.499975 L7.03123324,10.499975 C6.87655526,10.499975 6.74998391,10.3734036 6.74998391,10.2187256 L6.74998391,9.28122787 C6.74998391,9.1265499 6.87655526,8.99997854 7.03123324,8.99997854 L8.99997854,8.99997854 L8.99997854,7.03123324 C8.99997854,6.87655526 9.1265499,6.74998391 9.28122787,6.74998391 Z M1.21874709,6.74998391 C1.37342507,6.74998391 1.5,6.87655526 1.5,7.03123324 L1.5,8.99997854 L3.46874173,8.99997854 C3.62341971,8.99997854 3.74999106,9.1265499 3.74999106,9.28122787 L3.74999106,10.2187256 C3.74999106,10.3734036 3.62341971,10.499975 3.46874173,10.499975 L0.562498659,10.499975 C0.25078523,10.499975 0,10.2491897 0,9.93747631 L0,7.03123324 C0,6.87655526 0.126571354,6.74998391 0.281249329,6.74998391 Z M3.46874173,0 C3.62341971,0 3.74999106,0.126571354 3.74999106,0.281249329 L3.74999106,1.21874709 C3.74999106,1.37342507 3.62341971,1.5 3.46874173,1.5 L1.5,1.5 L1.5,3.46874173 C1.5,3.62341971 1.37342507,3.74999106 1.21874709,3.74999106 L0.281249329,3.74999106 C0.126571354,3.74999106 0,3.62341971 0,3.46874173 L0,0.562498659 C0,0.25078523 0.25078523,0 0.562498659,0 Z M9.93747631,0 C10.2491897,0 10.499975,0.25078523 10.499975,0.562498659 L10.499975,3.46874173 C10.499975,3.62341971 10.3734036,3.74999106 10.2187256,3.74999106 L9.28122787,3.74999106 C9.1265499,3.74999106 8.99997854,3.62341971 8.99997854,3.46874173 L8.99997854,1.5 L7.03123324,1.5 C6.87655526,1.5 6.74998391,1.37342507 6.74998391,1.21874709 L6.74998391,0.281249329 C6.74998391,0.126571354 6.87655526,0 7.03123324,0 Z"></path></clipPath></defs><g transform="translate(7.0 7.0)"><g clip-path="url(#i0)"><polygon points="0,0 10.499975,0 10.499975,10.499975 0,10.499975 0,0" stroke="none" fill="#696E73"></polygon></g></g></svg>