<?xml version="1.0" encoding="UTF-8"?>
<svg width="24px" height="24px" viewBox="0 0 24 24" version="1.1" xmlns="http://www.w3.org/2000/svg" xmlns:xlink="http://www.w3.org/1999/xlink">
    <title></title>
    <g id="Icons" stroke="none" stroke-width="1" fill="none" fill-rule="evenodd">
        <g id="Icons/2.-Size-sm/Actions/external-link-alt" fill="#6A6E73">
            <path d="M10.0938165,15.0013518 C10.2227454,15.0013518 10.4012499,14.9272401 10.4922531,14.8359164 L16.2018571,9.12468737 L17.0390362,9.96092806 C17.3905978,10.3124897 17.9999714,10.0663966 17.9999714,9.56249151 L17.9999714,6.56249866 C17.9999714,6.2519983 17.7479731,6 17.4374727,6 L14.4374799,6 C13.936619,6 13.6863144,6.60726784 14.0390433,6.96093521 L14.8764742,7.79836607 L9.16405496,13.5086567 C9.07273132,13.5996599 8.99861956,13.7781644 8.99861956,13.9070933 C8.99861956,14.0360221 9.07273132,14.2145266 9.16405496,14.3055298 L9.69537998,14.8359164 C9.78638318,14.9272401 9.9648877,15.0013518 10.0938165,15.0013518 Z M15.3749776,17.9999714 C15.9959784,17.9999714 16.499975,17.4959748 16.499975,16.8749741 L16.499975,13.8749812 C16.499975,13.667981 16.3319761,13.4999821 16.1249759,13.4999821 L15.3749776,13.4999821 C15.1679774,13.4999821 14.9999785,13.667981 14.9999785,13.8749812 L14.9999785,16.499975 L7.5,16.499975 L7.5,8.99999642 L10.8749884,8.99999642 C11.0819886,8.99999642 11.2499875,8.83199398 11.2499875,8.62499374 L11.2499875,7.87499553 C11.2499875,7.66799529 11.0819886,7.49999642 10.8749884,7.49999642 L7.12499732,7.49999642 C6.5039966,7.49999642 6,8.00399302 6,8.62499374 L6,16.8749741 C6,17.4959748 6.5039966,17.9999714 7.12499732,17.9999714 L15.3749776,17.9999714 Z" id="external-link-alt"></path>
        </g>
    </g>
</svg>