<?xml version="1.0" encoding="UTF-8"?><svg version="1.1" width="24px" height="24px" viewBox="0 0 24.0 24.0" xmlns="http://www.w3.org/2000/svg" xmlns:xlink="http://www.w3.org/1999/xlink"><defs><clipPath id="i0"><path d="M4.87498838,1.49999642 C5.08198862,1.49999642 5.24998748,1.66799529 5.24998748,1.87499553 L5.24998748,2.62499374 C5.24998748,2.83199398 5.08198862,2.99999642 4.87498838,2.99999642 L1.5,2.99999642 L1.5,10.499975 L8.99997854,10.499975 L8.99997854,7.87498122 C8.99997854,7.66798099 9.16797741,7.49998212 9.37497765,7.49998212 L10.1249759,7.49998212 C10.3319761,7.49998212 10.499975,7.66798099 10.499975,7.87498122 L10.499975,10.8749741 C10.499975,11.4959748 9.99597836,11.9999714 9.37497765,11.9999714 L1.12499732,11.9999714 C0.503996601,11.9999714 0,11.4959748 0,10.8749741 L0,2.62499374 C0,2.00399302 0.503996601,1.49999642 1.12499732,1.49999642 Z M11.4374727,0 C11.7479731,0 11.9999714,0.251998301 11.9999714,0.562498659 L11.9999714,3.56249151 C11.9999714,4.06639655 11.3905978,4.31248972 11.0390362,3.96092806 L10.2018571,3.12468737 L4.49225308,8.83591643 C4.40124988,8.92724007 4.22274536,9.00135183 4.09381653,9.00135183 C3.9648877,9.00135183 3.78638318,8.92724007 3.69537998,8.83591643 L3.16405496,8.30552982 C3.07273132,8.21452662 2.99861956,8.0360221 2.99861956,7.90709327 C2.99861956,7.77816444 3.07273132,7.59965992 3.16405496,7.50865672 L8.8764742,1.79836607 L8.03904333,0.960935209 C7.68631438,0.607267839 7.93661896,0 8.43747988,0 Z"></path></clipPath></defs><g transform="translate(5.999999999999999 5.999999999999999)"><g clip-path="url(#i0)"><polygon points="0,0 11.9999714,0 11.9999714,11.9999714 0,11.9999714 0,0" stroke="none" fill="#696E73"></polygon></g></g></svg>