<?xml version="1.0" encoding="UTF-8"?><svg version="1.1" width="24px" height="24px" viewBox="0 0 24.0 24.0" xmlns="http://www.w3.org/2000/svg" xmlns:xlink="http://www.w3.org/1999/xlink"><defs><clipPath id="i0"><path d="M5.81248614,0 C9.02341599,0 11.6249723,2.6015563 11.6249723,5.81248614 C11.6249723,9.02341599 9.02341599,11.6249723 5.81248614,11.6249723 C2.6015563,11.6249723 0,9.02341599 0,5.81248614 C0,2.6015563 2.6015563,0 5.81248614,0 Z M8.90622877,4.87498838 L2.71874352,4.87498838 C2.56406554,4.87498838 2.43749419,5.00155973 2.43749419,5.15623771 L2.43749419,6.46873458 C2.43749419,6.62341255 2.56406554,6.74998391 2.71874352,6.74998391 L8.90622877,6.74998391 C9.06090674,6.74998391 9.1874781,6.62341255 9.1874781,6.46873458 L9.1874781,5.15623771 C9.1874781,5.00155973 9.06090674,4.87498838 8.90622877,4.87498838 Z"></path></clipPath></defs><g transform="translate(6.0 6.0)"><g clip-path="url(#i0)"><polygon points="0,0 11.6249723,0 11.6249723,11.6249723 0,11.6249723 0,0" stroke="none" fill="#696E73"></polygon></g></g></svg>