<?xml version="1.0" encoding="UTF-8"?>
<svg width="24px" height="24px" viewBox="0 0 24 24" version="1.1" xmlns="http://www.w3.org/2000/svg" xmlns:xlink="http://www.w3.org/1999/xlink">
    <title></title>
    <g id="Icons" stroke="none" stroke-width="1" fill="none" fill-rule="evenodd">
        <g id="Icons/2.-Size-sm/Actions/panel-close" fill="#6A6E73">
            <path d="M17.7188513,7 L16.7816889,7 C16.6264128,7 16.5005402,7.12587262 16.5005402,7.28114871 L16.5005402,15.7334394 C16.5005402,15.8887155 16.6264128,16.0145881 16.7816889,16.0145881 L17.7188513,16.0145881 C17.8741274,16.0145881 18,15.8887155 18,15.7334394 L18,7.28114871 C18,7.12587262 17.8741274,7 17.7188513,7 M6.13695607,11.8474641 L6.5398656,12.2503736 C6.54630859,12.2568166 6.55293901,12.2629902 6.55966315,12.268988 L9.75783513,15.4671483 C9.94082779,15.6501409 10.2375217,15.6501409 10.4205143,15.4671483 L10.822065,15.0655976 C11.0050577,14.882605 11.0050577,14.5859228 10.822065,14.4029301 L8.68787686,12.2687303 L14.0519482,12.2687303 C14.3107339,12.2687303 14.5205294,12.0589465 14.5205294,11.8001491 L14.5205294,11.2322639 C14.5205294,10.9734782 14.3107339,10.7636827 14.0519482,10.7636827 L8.68787686,10.7636827 L10.822065,8.62949456 C11.0050694,8.4465019 11.0050694,8.14980801 10.822065,7.96681535 L10.4205143,7.5652647 C10.2375217,7.38227204 9.94082779,7.38227204 9.75783513,7.5652647 L6.55971001,10.7633781 C6.55297416,10.7693877 6.5463203,10.7755729 6.53985388,10.7820394 L6.13695607,11.1849372 C6.0454656,11.2764276 5.99982579,11.3963844 6.0000005,11.5162826 C5.99986093,11.636134 6.04551245,11.7560205 6.13695607,11.8474641" id="Fill-4-2"></path>
        </g>
    </g>
</svg>