<?xml version="1.0" encoding="UTF-8"?><svg version="1.1" width="24px" height="24px" viewBox="0 0 24.0 24.0" xmlns="http://www.w3.org/2000/svg" xmlns:xlink="http://www.w3.org/1999/xlink"><defs><clipPath id="i0"><path d="M11.7490763,0 C11.9041012,0 12.0297701,0.125668922 12.0297701,0.280693729 L12.0297701,8.71930627 C12.0297701,8.87433108 11.9041012,9 11.7490763,9 L10.8134306,9 C10.6584058,9 10.5327369,8.87433108 10.5327369,8.71930627 L10.5327369,0.280693729 C10.5327369,0.125668922 10.6584058,0 10.8134306,0 Z M3.69045202,0.698628581 C3.86226545,0.526815147 4.14083397,0.526815147 4.31264741,0.698628581 L7.31543939,3.70140957 C7.32175275,3.70704099 7.32797811,3.7128374 7.33402749,3.71888678 L7.71232281,4.0971821 C7.79819103,4.18303932 7.84104265,4.29561281 7.84091161,4.40813131 C7.84107565,4.5207048 7.79822403,4.63334428 7.71233381,4.7192345 L7.33403849,5.09752982 C7.32796711,5.1035902 7.32171975,5.10939761 7.3153954,5.11504003 L4.31264741,8.11778802 C4.14083397,8.28959046 3.86226545,8.28959046 3.69045202,8.11778802 L3.31343257,7.74075757 C3.14161914,7.56894414 3.14161914,7.29038662 3.31343257,7.11857319 L5.31724069,5.11475406 L0.280866628,5.11475406 C0.0378904705,5.11475406 -0.15908839,4.9177862 -0.15908839,4.67479904 L-0.15908839,4.14161756 C-0.15908839,3.8986304 0.0378904705,3.70166254 0.280866628,3.70166254 L5.31725169,3.70166254 L3.31343257,1.69784342 C3.14161914,1.52602998 3.14161914,1.24746147 3.31343257,1.07564803 Z"></path></clipPath></defs><g transform="translate(5.998022148814471 7.5)"><g clip-path="url(#i0)"><polygon points="-0.15908839,0 12.0297701,0 12.0297701,9 -0.15908839,9 -0.15908839,0" stroke="none" fill="#696E73"></polygon></g></g></svg>