<?xml version="1.0" encoding="UTF-8"?>
<svg width="24px" height="24px" viewBox="0 0 24 24" version="1.1" xmlns="http://www.w3.org/2000/svg" xmlns:xlink="http://www.w3.org/1999/xlink">
    <title></title>
    <g id="Icons" stroke="none" stroke-width="1" fill="none" fill-rule="evenodd">
        <g id="Icons/2.-Size-sm/Actions/panel-close" fill="#6A6E73">
            <path d="M17.7188513,7 C17.8741274,7 18,7.12587262 18,7.28114871 L18,7.28114871 L18,15.7334394 C18,15.8887155 17.8741274,16.0145881 17.7188513,16.0145881 L17.7188513,16.0145881 L16.7816889,16.0145881 C16.6264128,16.0145881 16.5005402,15.8887155 16.5005402,15.7334394 L16.5005402,15.7334394 L16.5005402,7.28114871 C16.5005402,7.12587262 16.6264128,7 16.7816889,7 L16.7816889,7 Z M9.75783513,7.5652647 C9.94082779,7.38227204 10.2375217,7.38227204 10.4205143,7.5652647 L10.4205143,7.5652647 L10.822065,7.96681535 C11.0050694,8.14980801 11.0050694,8.4465019 10.822065,8.62949456 L10.822065,8.62949456 L8.68787686,10.7636827 L14.0519482,10.7636827 C14.3107339,10.7636827 14.5205294,10.9734782 14.5205294,11.2322639 L14.5205294,11.2322639 L14.5205294,11.8001491 C14.5205294,12.0589465 14.3107339,12.2687303 14.0519482,12.2687303 L14.0519482,12.2687303 L8.68787686,12.2687303 L10.822065,14.4029301 C11.0050577,14.5859228 11.0050577,14.882605 10.822065,15.0655976 L10.822065,15.0655976 L10.4205143,15.4671483 C10.2375217,15.6501409 9.94082779,15.6501409 9.75783513,15.4671483 L9.75783513,15.4671483 L6.55966315,12.268988 L6.55966315,12.268988 L6.5398656,12.2503736 L6.13695607,11.8474641 C6.04551245,11.7560205 5.99986093,11.636134 6.0000005,11.5162826 C5.99982579,11.3963844 6.0454656,11.2764276 6.13695607,11.1849372 L6.13695607,11.1849372 L6.53985388,10.7820394 C6.5463203,10.7755729 6.55297416,10.7693877 6.55971001,10.7633781 L6.55971001,10.7633781 Z" id="Fill-4-2"></path>
        </g>
    </g>
</svg>