<?xml version="1.0" encoding="UTF-8"?><svg version="1.1" width="24px" height="24px" viewBox="0 0 24.0 24.0" xmlns="http://www.w3.org/2000/svg" xmlns:xlink="http://www.w3.org/1999/xlink"><defs><clipPath id="i0"><path d="M5.81248614,0 C9.02341599,0 11.6249723,2.6015563 11.6249723,5.81248614 C11.6249723,9.02341599 9.02341599,11.6249723 5.81248614,11.6249723 C2.6015563,11.6249723 0,9.02341599 0,5.81248614 C0,2.6015563 2.6015563,0 5.81248614,0 Z M5.06249151,3.56249151 L3.93749061,3.56249151 C3.73124568,3.56249151 3.56249151,3.73124568 3.56249151,3.93749061 L3.56249151,7.68748167 C3.56249151,7.8937266 3.73124568,8.06248078 3.93749061,8.06248078 L5.06249151,8.06248078 C5.26873286,8.06248078 5.43748704,7.8937266 5.43748704,7.68748167 L5.43748704,3.93749061 C5.43748704,3.73124568 5.26873286,3.56249151 5.06249151,3.56249151 Z M7.68748525,3.56249151 L6.56248435,3.56249151 C6.35623942,3.56249151 6.18748525,3.73124568 6.18748525,3.93749061 L6.18748525,7.68748167 C6.18748525,7.8937266 6.35623942,8.06248078 6.56248435,8.06248078 L7.68748525,8.06248078 C7.8937266,8.06248078 8.06248078,7.8937266 8.06248078,7.68748167 L8.06248078,3.93749061 C8.06248078,3.73124568 7.8937266,3.56249151 7.68748525,3.56249151 Z"></path></clipPath></defs><g transform="translate(6.0 6.0)"><g clip-path="url(#i0)"><polygon points="0,0 11.6249723,0 11.6249723,11.6249723 0,11.6249723 0,0" stroke="none" fill="#696E73"></polygon></g></g></svg>