<?xml version="1.0" encoding="UTF-8"?><svg version="1.1" width="24px" height="24px" viewBox="0 0 24.0 24.0" xmlns="http://www.w3.org/2000/svg" xmlns:xlink="http://www.w3.org/1999/xlink"><defs><clipPath id="i0"><path d="M3.37499195,0 C3.99608422,0 4.49998927,0.503905049 4.49998927,1.12499732 L4.49998927,9.37497765 C4.49998927,9.99606992 3.99608422,10.499975 3.37499195,10.499975 L1.12499732,10.499975 C0.503905049,10.499975 0,9.99606992 0,9.37497765 L0,1.12499732 C0,0.503905049 0.503905049,0 1.12499732,0 Z M9.37497765,0 C9.99606992,0 10.499975,0.503905049 10.499975,1.12499732 L10.499975,9.37497765 C10.499975,9.99606992 9.99606992,10.499975 9.37497765,10.499975 L7.12498301,10.499975 C6.50389074,10.499975 5.99998569,9.99606992 5.99998569,9.37497765 L5.99998569,1.12499732 C5.99998569,0.503905049 6.50389074,0 7.12498301,0 Z"></path></clipPath></defs><g transform="translate(7.000000000000002 7.000000000000002)"><g clip-path="url(#i0)"><polygon points="0,0 10.499975,0 10.499975,10.499975 0,10.499975 0,0" stroke="none" fill="#696E73"></polygon></g></g></svg>