<?xml version="1.0" encoding="UTF-8"?><svg version="1.1" width="24px" height="24px" viewBox="0 0 24.0 24.0" xmlns="http://www.w3.org/2000/svg" xmlns:xlink="http://www.w3.org/1999/xlink"><defs><clipPath id="i0"><path d="M5.13164062,3.74882813 C5.21953125,3.74882813 5.29804687,3.7828125 5.36601562,3.85078125 L10.2058594,8.69296875 L11.4351562,7.46367188 C11.7445312,7.15429688 11.9988281,7.25859375 12,7.69570313 L12,11.2019531 C12,11.8792969 11.8886719,12 11.203125,12 L7.696875,12 C7.25859375,12 7.15429687,11.7445313 7.46367187,11.4351563 L8.6953125,10.2035156 L3.853125,5.36367188 C3.78515625,5.29570313 3.75117187,5.2171875 3.75117187,5.12929688 C3.75117187,5.04140625 3.78515625,4.96289062 3.853125,4.89492188 L4.89726562,3.85078125 C4.96523437,3.7828125 5.04375,3.74882813 5.13164062,3.74882813 Z M11.7339844,0 C11.8113281,0 11.8746094,0.024609375 11.925,0.075 C11.9753906,0.125390625 12,0.188671875 12,0.266015625 L12,5.44101563 C12,5.60742188 11.7984375,5.69179687 11.6800781,5.5734375 L10.6101562,4.50351563 C10.5397255,4.4333647 10.5000931,4.33807829 10.5,4.23867187 L10.5,1.5 L1.5,1.5 L1.5,10.5 L4.228125,10.5 C4.32753142,10.5000931 4.42281783,10.5397255 4.49296875,10.6101562 L5.56289062,11.6800781 C5.61638002,11.733697 5.63235909,11.8142307 5.60339334,11.88421 C5.57442761,11.9541891 5.50620567,11.9998704 5.43046875,12 L0.266015625,12 C0.188671875,12 0.125390625,11.9753906 0.075,11.925 C0.024609375,11.8746094 0,11.8113281 0,11.7339844 L0,0.266015625 C0,0.188671875 0.024609375,0.125390625 0.075,0.075 C0.125390625,0.024609375 0.188671875,0 0.266015625,0 Z"></path></clipPath></defs><g transform="translate(6.0 6.0)"><g clip-path="url(#i0)"><polygon points="0,0 12,0 12,12 0,12 0,0" stroke="none" fill="#696E73"></polygon></g></g></svg>