<?xml version="1.0" encoding="UTF-8"?><svg version="1.1" width="24px" height="24px" viewBox="0 0 24.0 24.0" xmlns="http://www.w3.org/2000/svg" xmlns:xlink="http://www.w3.org/1999/xlink"><defs><clipPath id="i0"><path d="M9.5953125,0 C9.69492187,0 9.78984375,0.03984375 9.86015625,0.11015625 L11.8898438,2.13984375 C11.9601563,2.21015625 12,2.30625 12,2.40585938 L12,11.625 C12,11.8324219 11.8324219,12 11.625,12 L0.375,12 C0.167578125,12 0,11.8324219 0,11.625 L0,0.375 C0,0.167578125 0.167578125,0 0.375,0 Z M9.12890625,1.5 L1.5,1.5 L1.5,10.5 L10.5,10.5 L10.5,2.87109375 L9.12890625,1.5 Z M6.57070313,3 C6.66679688,3 6.75,3.07851562 6.75,3.17578125 L6.75,6 L8.23007813,6 C8.54648438,6 8.72109375,6.36796875 8.52070313,6.61289063 L6.28828125,9.33867187 C6.13945313,9.52148438 5.859375,9.52148438 5.709375,9.33984375 L3.459375,6.6140625 C3.2578125,6.36914062 3.43125,6 3.74882813,6 L5.25,6 L5.25,3.2109375 C5.25,3.09492188 5.34492188,3 5.4609375,3 Z"></path></clipPath></defs><g transform="translate(6.0 6.0)"><g clip-path="url(#i0)"><polygon points="0,0 12,0 12,12 0,12 0,0" stroke="none" fill="#696E73"></polygon></g></g></svg>