<?xml version="1.0" encoding="UTF-8"?><svg version="1.1" width="24px" height="24px" viewBox="0 0 24.0 24.0" xmlns="http://www.w3.org/2000/svg" xmlns:xlink="http://www.w3.org/1999/xlink"><defs><clipPath id="i0"><path d="M11.7339844,0 C11.8113281,0 11.8746094,0.0246093748 11.925,0.0749999993 C11.9753906,0.125390624 12,0.188671873 12,0.266015622 L12,11.7339843 C12,11.811328 11.9753906,11.8746093 11.925,11.9249999 C11.8746094,11.9753905 11.8113281,12 11.7339844,12 L0.266015744,12 C0.188671995,12 0.125390746,11.9753905 0.0750001213,11.9249999 C0.0246094968,11.8746093 0,11.811328 0,11.7339843 L0,5.80781244 C0,5.7319527 0.0457138309,5.66357421 0.115896934,5.63478114 C0.186080036,5.60598808 0.266706634,5.6224992 0.319921994,5.67656244 L1.38984385,6.74648431 C1.46027463,6.81663523 1.49990703,6.91192164 1.5,7.01132806 L1.5,10.5 L10.5,10.5 L10.5,1.5 L7.02187505,1.5 C6.92246863,1.49990692 6.82718222,1.46027451 6.7570313,1.38984374 L5.68710944,0.319921872 C5.63362005,0.266302999 5.61764098,0.185769254 5.64660672,0.11579008 C5.67557246,0.0458109067 5.74379439,0.000129591005 5.81953131,0 Z M1.38046885,0 C1.46835948,0 1.5468751,0.0339843747 1.61484385,0.101953124 L6.45585943,4.94414058 L7.68515629,3.71367184 C7.99453129,3.40429684 8.24882816,3.50859372 8.25000004,3.94570309 L8.25000004,7.45195305 C8.25000004,8.1292968 8.13867191,8.24999992 7.45312504,8.24999992 L3.94687508,8.24999992 C3.50859383,8.24999992 3.40429696,7.99453117 3.71367196,7.68515617 L4.94414069,6.45468744 L0.101953246,1.61484373 C0.0339844967,1.54687498 1.21969003e-07,1.46835936 1.21969003e-07,1.38046874 C1.21969003e-07,1.29257811 0.0339844967,1.21406249 0.101953246,1.14609374 L1.14609386,0.101953124 C1.21406261,0.0339843747 1.29257823,0 1.38046885,0 Z"></path></clipPath></defs><g transform="translate(6.0 5.999999999999999)"><g clip-path="url(#i0)"><polygon points="0,0 12,0 12,12 0,12 0,0" stroke="none" fill="#696E73"></polygon></g></g></svg>