<?xml version="1.0" encoding="UTF-8"?><svg version="1.1" width="24px" height="24px" viewBox="0 0 24.0 24.0" xmlns="http://www.w3.org/2000/svg" xmlns:xlink="http://www.w3.org/1999/xlink"><defs><clipPath id="i0"><path d="M6.00117188,0 C9.309375,0 12,2.69179687 12,6 C12,9.30820312 9.309375,12 6.00117188,12 C2.69296875,12 0,9.30703125 0,6 C0,2.69296875 2.69179687,0 6.00117188,0 Z M6,1.5 C3.51796875,1.5 1.5,3.51914063 1.5,6 C1.5,8.48320312 3.51796875,10.5 6,10.5 C8.48085938,10.5 10.5,8.48203125 10.5,6 C10.5,3.51796875 8.48203125,1.5 6,1.5 Z M6.57421875,3.375 C6.67130005,3.375 6.75,3.45369995 6.75,3.55078125 L6.75,5.25 L8.44921875,5.25 C8.54656992,5.250452 8.62519485,5.3296011 8.62500072,5.42695313 L8.62500072,6.57539063 C8.62500072,6.62190367 8.60644398,6.66649477 8.57344447,6.69927428 C8.54044498,6.73205378 8.49573075,6.75031216 8.44921875,6.75 L6.75,6.75 L6.75,8.44804687 C6.75019485,8.5453989 6.67156992,8.624548 6.57421875,8.625 L5.42578125,8.625 C5.32843008,8.624548 5.24980515,8.5453989 5.25,8.44804687 L5.25,6.75 L3.55078125,6.75 C3.45369995,6.75 3.375,6.67130005 3.375,6.57421875 L3.375,5.42578125 C3.375,5.32869995 3.45369995,5.25 3.55078125,5.25 L5.25,5.25 L5.25,3.55078125 C5.25,3.45369995 5.32869995,3.375 5.42578125,3.375 Z"></path></clipPath></defs><g transform="translate(6.0 6.0)"><g clip-path="url(#i0)"><polygon points="0,0 12,0 12,12 0,12 0,0" stroke="none" fill="#696E73"></polygon></g></g></svg>