<?xml version="1.0" encoding="UTF-8"?><svg version="1.1" width="24px" height="24px" viewBox="0 0 24.0 24.0" xmlns="http://www.w3.org/2000/svg" xmlns:xlink="http://www.w3.org/1999/xlink"><defs><clipPath id="i0"><path d="M3.59765625,2.89335938 C3.81679687,2.67421875 4.17421875,2.67421875 4.39335937,2.89335938 L11.8359375,10.3359375 C11.9460937,10.4460937 12,10.5914062 12,10.7367187 C12,10.8820313 11.9460937,11.0226563 11.8371094,11.1316406 L11.1328125,11.8359375 C11.0226563,11.9449219 10.8785156,12 10.734375,12 C10.5902344,12 10.4449219,11.9449219 10.3359375,11.8359375 L2.89335938,4.39335937 C2.67421875,4.17421875 2.67421875,3.81679687 2.89335938,3.59765625 Z M4.3125,6.75 C4.415625,6.75 4.5,6.834375 4.5,6.9375 L4.5,8.0625 C4.5,8.165625 4.415625,8.25 4.3125,8.25 L3.9375,8.25 C3.834375,8.25 3.75,8.165625 3.75,8.0625 L3.75,6.9375 C3.75,6.834375 3.834375,6.75 3.9375,6.75 L4.3125,6.75 Z M2.38242188,5.38242188 L2.86757813,5.86757813 C2.94023437,5.94023438 2.94023437,6.05976563 2.86757813,6.13242188 L1.55507812,7.44492187 C1.51992187,7.48007812 1.471875,7.5 1.42265625,7.5 L0.9375,7.5 C0.834375,7.5 0.75,7.415625 0.75,7.3125 L0.75,6.82734375 C0.75,6.778125 0.769921875,6.73007812 0.805078125,6.69492187 L2.11757812,5.38242188 C2.19023438,5.30976563 2.30976562,5.30976563 2.38242188,5.38242188 Z M3.99609375,3.24609375 L3.24609375,3.99609375 L5.63671875,6.38671875 L6.38671875,5.63671875 L3.99609375,3.24609375 Z M1.3125,3.75 C1.415625,3.75 1.5,3.834375 1.5,3.9375 L1.5,4.3125 C1.5,4.415625 1.415625,4.5 1.3125,4.5 L0.1875,4.5 C0.084375,4.5 0,4.415625 0,4.3125 L0,3.9375 C0,3.834375 0.084375,3.75 0.1875,3.75 L1.3125,3.75 Z M8.0625,3.75 C8.165625,3.75 8.25,3.834375 8.25,3.9375 L8.25,4.3125 C8.25,4.415625 8.165625,4.5 8.0625,4.5 L6.9375,4.5 C6.834375,4.5 6.75,4.415625 6.75,4.3125 L6.75,3.9375 C6.75,3.834375 6.834375,3.75 6.9375,3.75 L8.0625,3.75 Z M7.3125,0.75 C7.415625,0.75 7.5,0.834375 7.5,0.9375 L7.5,1.42265625 C7.5,1.471875 7.48007812,1.51992187 7.44492187,1.55507812 L6.13242188,2.86757813 C6.05976563,2.94023437 5.94023438,2.94023437 5.86757813,2.86757813 L5.38242188,2.38242188 C5.30976563,2.30976562 5.30976563,2.19023438 5.38242188,2.11757812 L6.69492187,0.805078125 C6.73007812,0.769921875 6.778125,0.75 6.82734375,0.75 L7.3125,0.75 Z M1.42265625,0.75 C1.471875,0.75 1.51992187,0.769921875 1.55507812,0.805078125 L2.86757813,2.11757812 C2.94023437,2.19023438 2.94023437,2.30976562 2.86757813,2.38242188 L2.38242188,2.86757813 C2.30976562,2.94023437 2.19023438,2.94023437 2.11757812,2.86757813 L0.805078125,1.55507812 C0.769921875,1.51992187 0.75,1.471875 0.75,1.42265625 L0.75,0.9375 C0.75,0.834375 0.834375,0.75 0.9375,0.75 L1.42265625,0.75 Z M4.3125,0 C4.415625,0 4.5,0.084375 4.5,0.1875 L4.5,1.3125 C4.5,1.415625 4.415625,1.5 4.3125,1.5 L3.9375,1.5 C3.834375,1.5 3.75,1.415625 3.75,1.3125 L3.75,0.1875 C3.75,0.084375 3.834375,0 3.9375,0 L4.3125,0 Z"></path></clipPath></defs><g transform="translate(6.0 6.0)"><g clip-path="url(#i0)"><polygon points="0,0 12,0 12,12 0,12 0,0" stroke="none" fill="#696E73"></polygon></g></g></svg>