<?xml version="1.0" encoding="UTF-8"?><svg version="1.1" width="24px" height="24px" viewBox="0 0 24.0 24.0" xmlns="http://www.w3.org/2000/svg" xmlns:xlink="http://www.w3.org/1999/xlink"><defs><clipPath id="i0"><path d="M5.62498659,0 C6.0391244,0 6.3749848,0.335860405 6.3749848,0.749998212 L6.3749848,4.12499017 L9.74997675,4.12499017 C10.1641146,4.12499017 10.499975,4.46085057 10.499975,4.87498838 L10.499975,5.62498659 C10.499975,6.0391244 10.1641146,6.3749848 9.74997675,6.3749848 L6.3749848,6.3749848 L6.3749848,9.74997675 C6.3749848,10.1641146 6.0391244,10.499975 5.62498659,10.499975 L4.87498838,10.499975 C4.46085057,10.499975 4.12499017,10.1641146 4.12499017,9.74997675 L4.12499017,6.3749848 L0.749998212,6.3749848 C0.335860405,6.3749848 0,6.0391244 0,5.62498659 L0,4.87498838 C0,4.46085057 0.335860405,4.12499017 0.749998212,4.12499017 L4.12499017,4.12499017 L4.12499017,0.749998212 C4.12499017,0.335860405 4.46085057,0 4.87498838,0 Z"></path></clipPath></defs><g transform="translate(7.000000000000002 7.000000000000002)"><g clip-path="url(#i0)"><polygon points="0,0 10.499975,0 10.499975,10.499975 0,10.499975 0,0" stroke="none" fill="#696E73"></polygon></g></g></svg>