<?xml version="1.0" encoding="UTF-8"?>
<svg width="24px" height="24px" viewBox="0 0 24 24" version="1.1" xmlns="http://www.w3.org/2000/svg" xmlns:xlink="http://www.w3.org/1999/xlink">
    <title></title>
    <g id="Icons" stroke="none" stroke-width="1" fill="none" fill-rule="evenodd">
        <g id="Icons/2.-Size-sm/Actions/plus" fill="#6A6E73">
            <path d="M12.6249866,17.499975 C13.0391244,17.499975 13.3749848,17.1641146 13.3749848,16.7499768 L13.3749848,13.3749848 L16.7499768,13.3749848 C17.1641146,13.3749848 17.499975,13.0391244 17.499975,12.6249866 L17.499975,11.8749884 C17.499975,11.4608506 17.1641146,11.1249902 16.7499768,11.1249902 L13.3749848,11.1249902 L13.3749848,7.74999821 C13.3749848,7.33586041 13.0391244,7 12.6249866,7 L11.8749884,7 C11.4608506,7 11.1249902,7.33586041 11.1249902,7.74999821 L11.1249902,11.1249902 L7.74999821,11.1249902 C7.33586041,11.1249902 7,11.4608506 7,11.8749884 L7,12.6249866 C7,13.0391244 7.33586041,13.3749848 7.74999821,13.3749848 L11.1249902,13.3749848 L11.1249902,16.7499768 C11.1249902,17.1641146 11.4608506,17.499975 11.8749884,17.499975 L12.6249866,17.499975 Z" id="plus"></path>
        </g>
    </g>
</svg>