<?xml version="1.0" encoding="UTF-8"?><svg version="1.1" width="24px" height="24px" viewBox="0 0 24.0 24.0" xmlns="http://www.w3.org/2000/svg" xmlns:xlink="http://www.w3.org/1999/xlink"><defs><clipPath id="i0"><path d="M8.68920353,0 C8.88819292,0 9.07896548,0.0789869333 9.21959014,0.219611598 L10.2803634,1.28015594 C10.420988,1.42100949 10.499975,1.61155316 10.499975,1.81054256 L10.499975,4.49998927 C11.3284795,4.49998927 11.9999714,5.1714812 11.9999714,5.99998569 L11.9999714,8.62497944 C11.9999714,8.83216278 11.8321556,8.99997854 11.6249723,8.99997854 L10.499975,8.99997854 L10.499975,11.2499732 C10.499975,11.664111 10.1641146,11.9999714 9.74997675,11.9999714 L2.24999464,11.9999714 C1.83585683,11.9999714 1.5,11.664111 1.5,11.2499732 L1.5,8.99997854 L0.374999106,8.99997854 C0.167815762,8.99997854 0,8.83216278 0,8.62497944 L0,5.99998569 C0,5.1714812 0.671491929,4.49998927 1.5,4.49998927 L1.5,0.749998212 C1.5,0.335860405 1.83585683,0 2.24999464,0 Z M8.99997854,8.24998033 L2.99999285,8.24998033 L2.99999285,10.499975 L8.99997854,10.499975 L8.99997854,8.24998033 Z M10.1249759,5.81248614 C9.81442973,5.81248614 9.5624772,6.06420978 9.5624772,6.3749848 C9.5624772,6.68553094 9.81442973,6.93748346 10.1249759,6.93748346 C10.435522,6.93748346 10.6874745,6.68553094 10.6874745,6.3749848 C10.6874745,6.06420978 10.435522,5.81248614 10.1249759,5.81248614 Z M7.49998212,1.49999642 L2.99999285,1.49999642 L2.99999285,5.24998748 L8.99997854,5.24998748 L8.99997854,2.99999642 L7.87498122,2.99999642 C7.66779788,2.99999642 7.49998212,2.83217709 7.49998212,2.62499374 L7.49998212,1.49999642 Z"></path></clipPath></defs><g transform="translate(5.999999999999999 5.999999999999999)"><g clip-path="url(#i0)"><polygon points="0,0 11.9999714,0 11.9999714,11.9999714 0,11.9999714 0,0" stroke="none" fill="#696E73"></polygon></g></g></svg>