<?xml version="1.0" encoding="UTF-8"?><svg version="1.1" width="24px" height="24px" viewBox="0 0 24.0 24.0" xmlns="http://www.w3.org/2000/svg" xmlns:xlink="http://www.w3.org/1999/xlink"><defs><clipPath id="i0"><path d="M11.5389603,0 C11.6942104,0 11.8202096,0.12599915 11.8202096,0.281249329 L11.8202096,4.97670322 C11.8202096,5.1319534 11.6942104,5.25795255 11.5389603,5.25795255 L6.84373525,5.25795255 C6.68848507,5.25795255 6.56248592,5.1319534 6.56248592,4.97670322 L6.56248592,3.86553033 L6.56991809,3.80074705 C6.59908263,3.67653138 6.71066366,3.58396057 6.84373525,3.58396057 C6.84742024,3.58396057 6.85341693,3.58412079 6.85710191,3.58428101 L9.23668914,3.6984241 C8.5600016,2.69152953 7.02619941,1.87433177 5.81303702,1.87433177 C3.53605728,1.87433177 1.68804686,3.7223422 1.68804686,5.99932194 C1.68804686,8.27632457 3.53605728,10.1243121 5.81303702,10.1243121 C6.67212006,10.1243121 7.89281264,9.66375717 8.53780012,9.09631468 C8.58167666,9.05795417 8.66457746,9.02684921 8.72285064,9.02684921 C8.78714339,9.02684921 8.87622399,9.06374487 8.9217027,9.10920069 L9.71857581,9.90607379 C9.76407741,9.95155251 9.80101885,10.0406789 9.80101885,10.1050174 C9.80101885,10.1744142 9.75904202,10.2683013 9.70731485,10.3145811 C8.79394117,11.1414148 7.05270387,11.8124718 5.82065877,11.8124718 C2.60389245,11.8124718 0.00233615301,9.21256348 0,6.00444888 C-0.00233302531,2.8014841 2.60952293,0.187499553 5.81248771,0.187499553 C7.30069674,0.187499553 9.28150409,1.10446667 10.2402878,2.23429338 L10.146538,0.294615997 L10.1462176,0.281249329 C10.1462176,0.12599915 10.2722168,0 10.4274669,0 Z"></path></clipPath></defs><g transform="translate(6.0 6.0)"><g clip-path="url(#i0)"><polygon points="-1.56175601e-06,0 11.8202096,0 11.8202096,11.8124718 -1.56175601e-06,11.8124718 -1.56175601e-06,0" stroke="none" fill="#696E73"></polygon></g></g></svg>