<?xml version="1.0" encoding="UTF-8"?>
<svg width="24px" height="24px" viewBox="0 0 24 24" version="1.1" xmlns="http://www.w3.org/2000/svg" xmlns:xlink="http://www.w3.org/1999/xlink">
    <title></title>
    <g id="Icons" stroke="none" stroke-width="1" fill="none" fill-rule="evenodd">
        <g id="Icons/2.-Size-sm/Actions/search-plus" fill="#6A6E73">
            <path d="M17.1726342,17.8359093 L17.8359093,17.1726342 C18.0538729,16.9523131 18.0538729,16.5960593 17.8359093,16.3757611 L15.4991915,14.0390433 C15.393723,13.9335748 15.2507638,13.8749812 15.100755,13.8749812 L14.7187292,13.8749812 C15.3655935,13.047644 15.7499768,12.0070124 15.7499768,10.8749884 C15.7499768,8.18201689 13.5679599,6 10.8749884,6 C8.18201689,6 6,8.18201689 6,10.8749884 C6,13.5679599 8.18201689,15.7499768 10.8749884,15.7499768 C12.0070124,15.7499768 13.047644,15.3655935 13.8749812,14.7187292 L13.8749812,15.100755 C13.8749812,15.2507638 13.9335748,15.393723 14.0390433,15.4991915 L16.3780957,17.8359093 C16.5960593,18.0562304 16.9523131,18.0562304 17.1726342,17.8359093 Z M10.8749884,14.0624808 C9.112488,14.0624808 7.68749598,12.6374888 7.68749598,10.8749884 C7.68749598,9.112488 9.112488,7.68749598 10.8749884,7.68749598 C12.6374888,7.68749598 14.0624808,9.112488 14.0624808,10.8749884 C14.0624808,12.6374888 12.6374888,14.0624808 10.8749884,14.0624808 Z M11.2499875,13.124983 C11.4046655,13.124983 11.5312368,12.9984117 11.5312368,12.8437337 L11.5312368,11.5312368 L12.8437337,11.5312368 C12.9984117,11.5312368 13.124983,11.4046655 13.124983,11.2499875 L13.124983,10.4999893 C13.124983,10.3453113 12.9984117,10.2187399 12.8437337,10.2187399 L11.5312368,10.2187399 L11.5312368,8.90624307 C11.5312368,8.7515651 11.4046655,8.62499374 11.2499875,8.62499374 L10.4999893,8.62499374 C10.3453113,8.62499374 10.2187399,8.7515651 10.2187399,8.90624307 L10.2187399,10.2187399 L8.90624307,10.2187399 C8.7515651,10.2187399 8.62499374,10.3453113 8.62499374,10.4999893 L8.62499374,11.2499875 C8.62499374,11.4046655 8.7515651,11.5312368 8.90624307,11.5312368 L10.2187399,11.5312368 L10.2187399,12.8437337 C10.2187399,12.9984117 10.3453113,13.124983 10.4999893,13.124983 L11.2499875,13.124983 Z" id="search-plus"></path>
        </g>
    </g>
</svg>