<?xml version="1.0" encoding="UTF-8"?><svg version="1.1" width="24px" height="24px" viewBox="0 0 24.0 24.0" xmlns="http://www.w3.org/2000/svg" xmlns:xlink="http://www.w3.org/1999/xlink"><defs><clipPath id="i0"><path d="M4.87498838,0 C7.56795986,0 9.74997675,2.18201689 9.74997675,4.87498838 C9.74997675,6.00701235 9.36559352,7.04764402 8.71872921,7.87498122 L9.10075497,7.87498122 C9.25076377,7.87498122 9.39372303,7.93357483 9.49919152,8.03904333 L11.8359093,10.3757611 C12.0538729,10.5960593 12.0538729,10.9523131 11.8359093,11.1726342 L11.1726342,11.8359093 C10.9523131,12.0562304 10.5960593,12.0562304 10.3780957,11.8359093 L8.03904333,9.49919152 C7.93357483,9.39372303 7.87498122,9.25076377 7.87498122,9.10075497 L7.87498122,8.71872921 C7.04764402,9.36559352 6.00701235,9.74997675 4.87498838,9.74997675 C2.18201689,9.74997675 0,7.56795986 0,4.87498838 C0,2.18201689 2.18201689,0 4.87498838,0 Z M4.87498838,1.68749598 C3.112488,1.68749598 1.68749598,3.112488 1.68749598,4.87498838 C1.68749598,6.63748875 3.112488,8.06248078 4.87498838,8.06248078 C6.63748875,8.06248078 8.06248078,6.63748875 8.06248078,4.87498838 C8.06248078,3.112488 6.63748875,1.68749598 4.87498838,1.68749598 Z M5.24998748,2.62499374 C5.40466546,2.62499374 5.53123681,2.7515651 5.53123681,2.90624307 L5.53123681,4.21873994 L6.84373368,4.21873994 C6.99841166,4.21873994 7.12498301,4.3453113 7.12498301,4.49998927 L7.12498301,5.24998748 C7.12498301,5.40466546 6.99841166,5.53123681 6.84373368,5.53123681 L5.53123681,5.53123681 L5.53123681,6.84373368 C5.53123681,6.99841166 5.40466546,7.12498301 5.24998748,7.12498301 L4.49998927,7.12498301 C4.3453113,7.12498301 4.21873994,6.99841166 4.21873994,6.84373368 L4.21873994,5.53123681 L2.90624307,5.53123681 C2.7515651,5.53123681 2.62499374,5.40466546 2.62499374,5.24998748 L2.62499374,4.49998927 C2.62499374,4.3453113 2.7515651,4.21873994 2.90624307,4.21873994 L4.21873994,4.21873994 L4.21873994,2.90624307 C4.21873994,2.7515651 4.3453113,2.62499374 4.49998927,2.62499374 Z"></path></clipPath></defs><g transform="translate(5.999999999999999 6.0)"><g clip-path="url(#i0)"><polygon points="0,0 11.999382,0 11.999382,12.0011501 0,12.0011501 0,0" stroke="none" fill="#696E73"></polygon></g></g></svg>