<?xml version="1.0" encoding="UTF-8"?>
<svg width="24px" height="24px" viewBox="0 0 24 24" version="1.1" xmlns="http://www.w3.org/2000/svg" xmlns:xlink="http://www.w3.org/1999/xlink">
    <title></title>
    <g id="Icons" stroke="none" stroke-width="1" fill="none" fill-rule="evenodd">
        <g id="Icons/2.-Size-sm/Actions/share-square" fill="#6A6E73">
            <path d="M10.1380645,15.2665806 C9.18202738,12.0734578 10.6115055,11.273243 13.9999785,11.2505151 L13.9999785,12.9371413 C13.9999785,13.432944 14.5929413,13.6820355 14.9486915,13.3460606 L18.323775,10.1589344 C18.5587903,9.93694247 18.5586072,9.56283601 18.323775,9.34105003 L14.9486915,6.15385518 C14.5933533,5.81822366 13.9999785,6.06651408 13.9999785,6.56277449 L13.9999785,8.25063668 C10.5687047,8.26965672 7.81249329,8.9391116 7.81249329,12.3126158 C7.81249329,13.652052 8.63870898,14.9790142 9.5519911,15.6727534 C9.83699408,15.8892522 10.2431439,15.6175014 10.1380645,15.2665806 Z M14.3749776,17.9999726 C14.9962988,17.9999726 15.499975,17.4962964 15.499975,16.8749752 L15.499975,14.7935975 C15.499975,14.5993459 15.307852,14.4639168 15.1247241,14.5286903 C14.9743491,14.5818823 14.7228772,14.6250493 14.5633927,14.6250493 C14.4968112,14.6250493 14.3893056,14.617336 14.3234107,14.6078374 C14.1530315,14.5833242 13.9999785,14.7136492 13.9999785,14.8857908 L13.9999785,16.4999761 L6.5,16.4999761 L6.5,8.9999976 L7.69333769,8.9999976 C7.7594615,8.99994825 7.85025871,8.96117576 7.89603497,8.91343112 C8.24647511,8.54857146 8.6515721,8.25976904 9.09166505,8.0304071 C9.35252106,7.89445162 9.25586449,7.4999976 8.96170625,7.4999976 L6.12499732,7.4999976 C5.50367617,7.4999976 5,8.00367377 5,8.62499492 L5,16.8749752 C5,17.4962964 5.50367617,17.9999726 6.12499732,17.9999726 L14.3749776,17.9999726 Z" id="share-square"></path>
        </g>
    </g>
</svg>