<?xml version="1.0" encoding="UTF-8"?>
<svg width="24px" height="24px" viewBox="0 0 24 24" version="1.1" xmlns="http://www.w3.org/2000/svg" xmlns:xlink="http://www.w3.org/1999/xlink">
    <title></title>
    <g id="Icons" stroke="none" stroke-width="1" fill="none" fill-rule="evenodd">
        <g id="Icons/2.-Size-sm/Actions/sort-amount-down" fill="#6A6E73">
            <path d="M8.25047412,17.4997919 C8.33619016,17.4997919 8.45493378,17.4506282 8.51556443,17.3900433 L10.39056,15.1400486 C10.6253922,14.9045069 10.4582859,14.4999821 10.1250119,14.4999821 L9.00001457,14.4999821 L9.00001457,7.37499911 C9.00001457,7.16799887 8.8320157,7 8.62501546,7 L7.87501725,7 C7.66801701,7 7.50001815,7.16799887 7.50001815,7.37499911 L7.50001815,14.4999821 L6.37502083,14.4999821 C6.04243343,14.4999821 5.8741599,14.9040491 6.11041117,15.1400486 L7.9854067,17.3900433 C8.04603735,17.4506282 8.16478097,17.4997919 8.25047412,17.4997919 Z M17.624994,8.5 C17.8319942,8.5 17.9999931,8.33199756 17.9999931,8.12499732 L17.9999931,7.37499911 C17.9999931,7.16799887 17.8319942,7 17.624994,7 L11.6250083,7 C11.4180081,7 11.2500092,7.16799887 11.2500092,7.37499911 L11.2500092,8.12499732 C11.2500092,8.33199756 11.4180081,8.5 11.6250083,8.5 L17.624994,8.5 Z M16.1249976,11.4999928 C16.3319978,11.4999928 16.4999967,11.3319904 16.4999967,11.1249902 L16.4999967,10.374992 C16.4999967,10.1679917 16.3319978,9.99999285 16.1249976,9.99999285 L11.6250083,9.99999285 C11.4180081,9.99999285 11.2500092,10.1679917 11.2500092,10.374992 L11.2500092,11.1249902 C11.2500092,11.3319904 11.4180081,11.4999928 11.6250083,11.4999928 L16.1249976,11.4999928 Z M14.6250012,14.4999857 C14.8320014,14.4999857 15.0000003,14.3319833 15.0000003,14.124983 L15.0000003,13.3749848 C15.0000003,13.1679846 14.8320014,12.9999857 14.6250012,12.9999857 L11.6250083,12.9999857 C11.4180081,12.9999857 11.2500092,13.1679846 11.2500092,13.3749848 L11.2500092,14.124983 C11.2500092,14.3319833 11.4180081,14.4999857 11.6250083,14.4999857 L14.6250012,14.4999857 Z M13.1250047,17.4999785 C13.332005,17.4999785 13.5000038,17.3319761 13.5000038,17.1249759 L13.5000038,16.3749776 C13.5000038,16.1679774 13.332005,15.9999785 13.1250047,15.9999785 L11.6250083,15.9999785 C11.4180081,15.9999785 11.2500092,16.1679774 11.2500092,16.3749776 L11.2500092,17.1249759 C11.2500092,17.3319761 11.4180081,17.4999785 11.6250083,17.4999785 L13.1250047,17.4999785 Z" id="sort-amount-down"></path>
        </g>
    </g>
</svg>