<?xml version="1.0" encoding="UTF-8"?><svg version="1.1" width="24px" height="24px" viewBox="0 0 24.0 24.0" xmlns="http://www.w3.org/2000/svg" xmlns:xlink="http://www.w3.org/1999/xlink"><defs><clipPath id="i0"><path d="M2.62501546,0 C2.8320157,0 3.00001457,0.167998867 3.00001457,0.374999106 L3.00001457,7.49998212 L4.12501189,7.49998212 C4.45828593,7.49998212 4.62539216,7.90450691 4.39055996,8.14004865 L2.51556443,10.3900433 C2.45493378,10.4506282 2.33619016,10.4997919 2.25047412,10.4997919 C2.16478097,10.4997919 2.04603735,10.4506282 1.9854067,10.3900433 L0.110411169,8.14004865 C-0.125840099,7.90404915 0.0424334259,7.49998212 0.375020829,7.49998212 L1.50001815,7.49998212 L1.50001815,0.374999106 C1.50001815,0.167998867 1.66801701,0 1.87501725,0 Z M7.12500474,8.99997854 C7.33200497,8.99997854 7.50000384,9.16797741 7.50000384,9.37497765 L7.50000384,10.1249759 C7.50000384,10.3319761 7.33200497,10.4999785 7.12500474,10.4999785 L5.62500831,10.4999785 C5.41800807,10.4999785 5.25000921,10.3319761 5.25000921,10.1249759 L5.25000921,9.37497765 C5.25000921,9.16797741 5.41800807,8.99997854 5.62500831,8.99997854 Z M8.62500116,5.99998569 C8.8320014,5.99998569 9.00000027,6.16798456 9.00000027,6.3749848 L9.00000027,7.12498301 C9.00000027,7.33198325 8.8320014,7.49998569 8.62500116,7.49998569 L5.62500831,7.49998569 C5.41800807,7.49998569 5.25000921,7.33198325 5.25000921,7.12498301 L5.25000921,6.3749848 C5.25000921,6.16798456 5.41800807,5.99998569 5.62500831,5.99998569 Z M10.1249976,2.99999285 C10.3319978,2.99999285 10.4999967,3.16799171 10.4999967,3.37499195 L10.4999967,4.12499017 C10.4999967,4.3319904 10.3319978,4.49999285 10.1249976,4.49999285 L5.62500831,4.49999285 C5.41800807,4.49999285 5.25000921,4.3319904 5.25000921,4.12499017 L5.25000921,3.37499195 C5.25000921,3.16799171 5.41800807,2.99999285 5.62500831,2.99999285 Z M11.624994,0 C11.8319942,0 11.9999931,0.167998867 11.9999931,0.374999106 L11.9999931,1.12499732 C11.9999931,1.33199756 11.8319942,1.5 11.624994,1.5 L5.62500831,1.5 C5.41800807,1.5 5.25000921,1.33199756 5.25000921,1.12499732 L5.25000921,0.374999106 C5.25000921,0.167998867 5.41800807,0 5.62500831,0 Z"></path></clipPath></defs><g transform="translate(6.0 7.0)"><g clip-path="url(#i0)"><polygon points="1.66533454e-15,0 11.9999931,0 11.9999931,10.4999785 1.66533454e-15,10.4999785 1.66533454e-15,0" stroke="none" fill="#696E73"></polygon></g></g></svg>