<?xml version="1.0" encoding="UTF-8"?><svg version="1.1" width="24px" height="24px" viewBox="0 0 24.0 24.0" xmlns="http://www.w3.org/2000/svg" xmlns:xlink="http://www.w3.org/1999/xlink"><defs><clipPath id="i0"><path d="M11.2475928,6.56253013 C11.4233279,6.56253013 11.5568114,6.72206039 11.5243103,6.89477421 C11.017178,9.58769992 8.65278851,11.6249723 5.81248614,11.6249723 C4.25510918,11.6249723 2.8408288,11.0124173 1.79729033,10.0151815 L0.960225677,10.8522462 C0.605871663,11.2066002 0,10.9556318 0,10.4544734 L0,7.31248257 C0,7.00182199 0.251838084,6.74998391 0.562498659,6.74998391 L3.70448946,6.74998391 C4.20564793,6.74998391 4.45661627,7.35585557 4.10226225,7.71023247 L3.12374896,8.68874576 C3.85644375,9.37484032 4.80737684,9.75091517 5.81614824,9.74999964 C7.63062756,9.7483517 9.19851017,8.50445055 9.63146202,6.7769919 C9.66295609,6.65129029 9.7749477,6.56253013 9.9045174,6.56253013 Z M5.81248614,0 C7.36986311,0 8.78414349,0.612554997 9.82768195,1.60979078 L10.6647466,0.772726124 C11.0191006,0.41837211 11.6249723,0.669340445 11.6249723,1.17049892 L11.6249723,4.31248972 C11.6249723,4.62315029 11.3731342,4.87498838 11.0624736,4.87498838 L7.92048283,4.87498838 C7.41932435,4.87498838 7.16835602,4.26911671 7.52271003,3.91473981 L8.50122332,2.93624941 C7.76852854,2.25017774 6.8176641,1.87410289 5.80891559,1.87499553 C3.99349786,1.8765977 2.42623323,3.12134571 1.99351026,4.84802616 C1.9620162,4.97372777 1.85002458,5.06248793 1.72045488,5.06248793 L0.377402359,5.06248793 C0.201690193,5.06248793 0.0681837364,4.90295767 0.10068488,4.73024385 C0.607794266,2.03727236 2.97218377,0 5.81248614,0 Z"></path></clipPath></defs><g transform="translate(6.0 6.0)"><g clip-path="url(#i0)"><polygon points="0,0 11.6249723,0 11.6249723,11.6249723 0,11.6249723 0,0" stroke="none" fill="#696E73"></polygon></g></g></svg>