<?xml version="1.0" encoding="UTF-8"?><svg version="1.1" width="24px" height="24px" viewBox="0 0 24.0 24.0" xmlns="http://www.w3.org/2000/svg" xmlns:xlink="http://www.w3.org/1999/xlink"><defs><clipPath id="i0"><path d="M5.81248614,0 C9.02341599,0 11.6249723,2.6015563 11.6249723,5.81248614 C11.6249723,9.02341599 9.02341599,11.6249723 5.81248614,11.6249723 C2.6015563,11.6249723 0,9.02341599 0,5.81248614 C0,2.6015563 2.6015563,0 5.81248614,0 Z M4.28905227,2.96014461 C4.17889171,2.84998405 4.00077629,2.84998405 3.89061572,2.96014461 L2.96250209,3.88828113 C2.85234153,3.99841881 2.85234153,4.17655712 2.96250209,4.28671768 L4.49998927,5.81248614 L2.96250209,7.33592001 C2.85234153,7.44608057 2.85234153,7.62419599 2.96250209,7.73435656 L3.88828113,8.66247019 C3.99841881,8.77263076 4.17655712,8.77263076 4.28671768,8.66247019 L5.81248614,7.12498301 L7.33592001,8.66247019 C7.44608057,8.77263076 7.62419599,8.77263076 7.73435656,8.66247019 L8.66247019,7.73669115 C8.77263076,7.62655347 8.77263076,7.44841516 8.66247019,7.3382546 L7.12498301,5.81248614 L8.66482767,4.28905227 C8.77498823,4.17889171 8.77498823,4.00077629 8.66482767,3.89061572 L7.73669115,2.96250209 C7.62655347,2.85234153 7.44841516,2.85234153 7.3382546,2.96250209 L5.81248614,4.49998927 Z"></path></clipPath></defs><g transform="translate(6.0 6.0)"><g clip-path="url(#i0)"><polygon points="0,0 11.6249723,0 11.6249723,11.6249723 0,11.6249723 0,0" stroke="none" fill="#696E73"></polygon></g></g></svg>