<?xml version="1.0" encoding="UTF-8"?><svg version="1.1" width="24px" height="24px" viewBox="0 0 24.0 24.0" xmlns="http://www.w3.org/2000/svg" xmlns:xlink="http://www.w3.org/1999/xlink"><defs><clipPath id="i0"><path d="M9.74997675,2.99999285 L9.25309836,10.9452864 C9.21666046,11.5274002 8.71369382,11.9999714 8.13045852,11.9999714 L2.36951645,11.9999714 C1.78628114,11.9999714 1.28331451,11.5274002 1.2468766,10.9452864 L0.749998212,2.99999285 L9.74997675,2.99999285 Z M6.58825639,0 L6.6725912,0.00823685709 C6.84249772,0.0405591659 7.01871016,0.164222326 7.09216144,0.311713429 L7.31248257,0.749998212 L10.1249759,0.749998212 C10.3319761,0.749998212 10.499975,0.917997079 10.499975,1.12499732 L10.499975,1.87499553 C10.499975,2.08199577 10.3319761,2.24999464 10.1249759,2.24999464 L0.374999106,2.24999464 C0.167998867,2.24999464 0,2.08199577 0,1.87499553 L0,1.12499732 C0,0.917997079 0.167998867,0.749998212 0.374999106,0.749998212 L3.1874924,0.749998212 L3.40781353,0.311713429 C3.49195029,0.139640475 3.71568175,0 3.90723251,0 L6.58825639,0 Z"></path></clipPath></defs><g transform="translate(7.000000000000002 5.999999999999999)"><g clip-path="url(#i0)"><polygon points="0,0 10.499975,0 10.499975,11.9999714 0,11.9999714 0,0" stroke="none" fill="#696E73"></polygon></g></g></svg>