<?xml version="1.0" encoding="UTF-8"?><svg version="1.1" width="24px" height="24px" viewBox="0 0 24.0 24.0" xmlns="http://www.w3.org/2000/svg" xmlns:xlink="http://www.w3.org/1999/xlink"><defs><clipPath id="i0"><path d="M1.40624665,0 C1.56156549,0 1.68749598,0.125930486 1.68749598,0.281249329 L1.68749598,2.11200211 C2.76030836,0.920606326 4.31857796,0.175071299 6.05095756,0.18765977 C9.25969014,0.210959885 11.8270745,2.80381869 11.8202674,6.01261994 C11.8134331,9.21695801 9.21373078,11.8124718 6.00779055,11.8124718 C4.5057113,11.8124718 3.13679519,11.2426261 2.10522722,10.30744 C1.98570541,10.1991105 1.98021226,10.0132131 2.09428669,9.89916158 L2.8903816,9.10306668 C2.99523212,8.99819327 3.16371163,8.99249412 3.27476484,9.09075286 C4.00217246,9.73441283 4.95889626,10.1249759 6.00779055,10.1249759 C8.28749397,10.1249759 10.1327807,8.28007822 10.1327807,5.99998569 C10.1327807,3.72030516 8.28788307,1.87499553 6.00779055,1.87499553 C4.63679162,1.87499553 3.4231028,2.54239048 2.67324192,3.57029636 L4.97654301,3.57029636 C5.13186185,3.57029636 5.25779234,3.69622684 5.25779234,3.85154569 L5.25779234,4.97654301 C5.25779234,5.13186185 5.13186185,5.25779234 4.97654301,5.25779234 L0.281249329,5.25779234 C0.125930486,5.25779234 0,5.13186185 0,4.97654301 L0,0.281249329 C0,0.125930486 0.125930486,0 0.281249329,0 Z"></path></clipPath></defs><g transform="translate(6.0 6.0)"><g clip-path="url(#i0)"><polygon points="0,0 11.8202809,0 11.8202809,11.8124718 0,11.8124718 0,0" stroke="none" fill="#696E73"></polygon></g></g></svg>