<?xml version="1.0" encoding="UTF-8"?><svg version="1.1" width="24px" height="24px" viewBox="0 0 24.0 24.0" xmlns="http://www.w3.org/2000/svg" xmlns:xlink="http://www.w3.org/1999/xlink"><defs><clipPath id="i0"><path d="M3.74999106,8.24821794 L3.74999106,8.4357175 C3.74999106,9.15994368 4.33826175,9.74821794 5.06248793,9.74821794 L6.93748346,9.74821794 C7.66170964,9.74821794 8.24998033,9.15994368 8.24998033,8.4357175 L8.24998033,8.24821794 L11.4374727,8.24821794 C11.7491862,8.24821794 11.9999714,8.49900317 11.9999714,8.8107166 L11.9999714,11.4357103 C11.9999714,11.7474238 11.7491862,11.998209 11.4374727,11.998209 L0.562498659,11.998209 C0.25078523,11.998209 0,11.7474238 0,11.4357103 L0,8.8107166 C0,8.49900317 0.25078523,8.24821794 0.562498659,8.24821794 L3.74999106,8.24821794 Z M8.62497944,10.4044628 C8.36716755,10.4044628 8.15623055,10.6153998 8.15623055,10.8732117 C8.15623055,11.1310236 8.36716755,11.3419606 8.62497944,11.3419606 C8.88279132,11.3419606 9.09372832,11.1310236 9.09372832,10.8732117 C9.09372832,10.6153998 8.88279132,10.4044628 8.62497944,10.4044628 Z M10.1249759,10.4044628 C9.86716397,10.4044628 9.65622698,10.6153998 9.65622698,10.8732117 C9.65622698,11.1310236 9.86716397,11.3419606 10.1249759,11.3419606 C10.3827877,11.3419606 10.5937247,11.1310236 10.5937247,10.8732117 C10.5937247,10.6153998 10.3827877,10.4044628 10.1249759,10.4044628 Z M5.67888813,0.131835623 C5.85466896,-0.0439452077 6.14294495,-0.0439452077 6.31872578,0.131835623 L9.88590935,3.6990192 C10.1812349,3.99432184 9.97263247,4.49822689 9.55545055,4.49822689 L7.49998212,4.49822689 L7.49998212,8.4357175 C7.49998212,8.74743093 7.24919689,8.99821616 6.93748346,8.99821616 L5.06248793,8.99821616 C4.7507745,8.99821616 4.49998927,8.74743093 4.49998927,8.4357175 L4.49998927,4.49822689 L2.44452084,4.49822689 C2.02733892,4.49822689 1.81873651,3.99432184 2.11406204,3.6990192 Z"></path></clipPath></defs><g transform="translate(5.999999999999999 5.999999999999999)"><g clip-path="url(#i0)"><polygon points="0,0 11.9999714,0 11.9999714,11.998209 0,11.998209 0,0" stroke="none" fill="#696E73"></polygon></g></g></svg>