<?xml version="1.0" encoding="UTF-8"?>
<svg width="24px" height="24px" viewBox="0 0 24 24" version="1.1" xmlns="http://www.w3.org/2000/svg" xmlns:xlink="http://www.w3.org/1999/xlink">
    <title></title>
    <g id="Icons" stroke="none" stroke-width="1" fill="none" fill-rule="evenodd">
        <g id="Icons/2.-Size-sm/Actions/upload" fill="#6A6E73">
            <path d="M12.9374835,14.9982162 C13.2491969,14.9982162 13.4999821,14.7474309 13.4999821,14.4357175 L13.4999821,10.4982269 L15.5554505,10.4982269 C15.9726325,10.4982269 16.1812349,9.99432184 15.8859094,9.6990192 L12.3187258,6.13183562 C12.1429449,5.95605479 11.854669,5.95605479 11.6788881,6.13183562 L8.11406204,9.6990192 C7.81873651,9.99432184 8.02733892,10.4982269 8.44452084,10.4982269 L10.4999893,10.4982269 L10.4999893,14.4357175 C10.4999893,14.7474309 10.7507745,14.9982162 11.0624879,14.9982162 L12.9374835,14.9982162 Z M17.4374727,17.998209 C17.7491862,17.998209 17.9999714,17.7474238 17.9999714,17.4357103 L17.9999714,14.8107166 C17.9999714,14.4990032 17.7491862,14.2482179 17.4374727,14.2482179 L14.2499803,14.2482179 L14.2499803,14.4357175 C14.2499803,15.1599437 13.6617096,15.7482179 12.9374835,15.7482179 L11.0624879,15.7482179 C10.3382618,15.7482179 9.74999106,15.1599437 9.74999106,14.4357175 L9.74999106,14.2482179 L6.56249866,14.2482179 C6.25078523,14.2482179 6,14.4990032 6,14.8107166 L6,17.4357103 C6,17.7474238 6.25078523,17.998209 6.56249866,17.998209 L17.4374727,17.998209 Z M14.6249794,17.3419606 C14.3671676,17.3419606 14.1562306,17.1310236 14.1562306,16.8732117 C14.1562306,16.6153998 14.3671676,16.4044628 14.6249794,16.4044628 C14.8827913,16.4044628 15.0937283,16.6153998 15.0937283,16.8732117 C15.0937283,17.1310236 14.8827913,17.3419606 14.6249794,17.3419606 Z M16.1249759,17.3419606 C15.867164,17.3419606 15.656227,17.1310236 15.656227,16.8732117 C15.656227,16.6153998 15.867164,16.4044628 16.1249759,16.4044628 C16.3827877,16.4044628 16.5937247,16.6153998 16.5937247,16.8732117 C16.5937247,17.1310236 16.3827877,17.3419606 16.1249759,17.3419606 Z" id="upload"></path>
        </g>
    </g>
</svg>