<?xml version="1.0" encoding="UTF-8"?>
<svg width="24px" height="24px" viewBox="0 0 24 24" version="1.1" xmlns="http://www.w3.org/2000/svg" xmlns:xlink="http://www.w3.org/1999/xlink">
    <title></title>
    <g id="Icons" stroke="none" stroke-width="1" fill="none" fill-rule="evenodd">
        <g id="Icons/2.-Size-sm/Actions/window-restore" fill="#6A6E73">
            <path d="M14.6249794,17.9999714 C15.2460717,17.9999714 15.7499768,17.4960663 15.7499768,16.8749741 L15.7499768,15.7499768 L16.8749741,15.7499768 C17.4960663,15.7499768 17.9999714,15.2460717 17.9999714,14.6249794 L17.9999714,7.12499732 C17.9999714,6.50390505 17.4960663,6 16.8749741,6 L9.37499195,6 C8.75389968,6 8.24999464,6.50390505 8.24999464,7.12499732 L8.24999464,8.24999464 L7.12499732,8.24999464 C6.50390505,8.24999464 6,8.75389968 6,9.37499195 L6,16.8749741 C6,17.4960663 6.50390505,17.9999714 7.12499732,17.9999714 L14.6249794,17.9999714 Z M16.8749741,14.6249794 L15.7499768,14.6249794 L15.7499768,9.37499195 C15.7499768,8.75389968 15.2460717,8.24999464 14.6249794,8.24999464 L9.37499195,8.24999464 L9.37499195,7.12499732 L16.8749741,7.12499732 L16.8749741,14.6249794 Z M14.6249794,16.8749741 L7.12499732,16.8749741 L7.12499732,11.9999857 L14.6249794,11.9999857 L14.6249794,16.8749741 Z" id="window-restore"></path>
        </g>
    </g>
</svg>