<?xml version="1.0" encoding="UTF-8"?><svg version="1.1" width="24px" height="24px" viewBox="0 0 24.0 24.0" xmlns="http://www.w3.org/2000/svg" xmlns:xlink="http://www.w3.org/1999/xlink"><defs><clipPath id="i0"><path d="M10.8749741,0 C11.4960663,0 11.9999714,0.503905049 11.9999714,1.12499732 L11.9999714,8.62497944 C11.9999714,9.24607171 11.4960663,9.74997675 10.8749741,9.74997675 L9.74997675,9.74997675 L9.74997675,10.8749741 C9.74997675,11.4960663 9.24607171,11.9999714 8.62497944,11.9999714 L1.12499732,11.9999714 C0.503905049,11.9999714 0,11.4960663 0,10.8749741 L0,3.37499195 C0,2.75389968 0.503905049,2.24999464 1.12499732,2.24999464 L2.24999464,2.24999464 L2.24999464,1.12499732 C2.24999464,0.503905049 2.75389968,0 3.37499195,0 Z M8.62497944,5.99998569 L1.12499732,5.99998569 L1.12499732,10.8749741 L8.62497944,10.8749741 L8.62497944,5.99998569 Z M10.8749741,1.12499732 L3.37499195,1.12499732 L3.37499195,2.24999464 L8.62497944,2.24999464 C9.24607171,2.24999464 9.74997675,2.75389968 9.74997675,3.37499195 L9.74997675,8.62497944 L10.8749741,8.62497944 L10.8749741,1.12499732 Z"></path></clipPath></defs><g transform="translate(5.999999999999999 5.999999999999999)"><g clip-path="url(#i0)"><polygon points="0,0 11.9999714,0 11.9999714,11.9999714 0,11.9999714 0,0" stroke="none" fill="#696E73"></polygon></g></g></svg>