<?xml version="1.0" encoding="UTF-8"?><svg version="1.1" width="24px" height="24px" viewBox="0 0 24.0 24.0" xmlns="http://www.w3.org/2000/svg" xmlns:xlink="http://www.w3.org/1999/xlink"><defs><clipPath id="i0"><path d="M6,0 C9.31335938,0 12,2.68664062 12,6 C12,9.31335938 9.31335938,12 6,12 C2.68664062,12 0,9.31335938 0,6 C0,2.68664062 2.68664062,0 6,0 Z M6.09644531,2.38183594 C5.93039062,2.38183594 5.78308594,2.47019531 5.71605469,2.63367188 L3.09644531,8.93835937 L3.99105469,8.93835937 L5.02734375,6.33984375 L8.12683594,8.83933594 C8.25,8.94105469 8.33835937,8.98664062 8.45894531,8.98664062 C8.69191406,8.98664062 8.89558594,8.80980469 8.89558594,8.55808594 C8.89816406,8.51519531 8.8875,8.45085938 8.85808594,8.38125 L6.46605469,2.63367188 C6.39914062,2.4675 6.2625,2.38183594 6.09644531,2.38183594 Z M6.10183594,3.66433594 L7.65539062,7.5 L5.31164062,5.65441406 L6.10183594,3.66433594 Z"></path></clipPath></defs><g transform="translate(6.0 6.0)"><g clip-path="url(#i0)"><polygon points="0,0 12,0 12,12 0,12 0,0" stroke="none" fill="#151515"></polygon></g></g></svg>