<?xml version="1.0" encoding="UTF-8"?><svg version="1.1" width="24px" height="24px" viewBox="0 0 24.0 24.0" xmlns="http://www.w3.org/2000/svg" xmlns:xlink="http://www.w3.org/1999/xlink"><defs><clipPath id="i0"><path d="M6.17810111,6.54843104 L9.27184374,8.524203 L6.17810111,10.499975 L3.08435849,8.524203 L6.17810111,6.54843104 Z M3.10076928,0 L6.19686938,1.97577196 L3.10312676,3.95154392 L6.19686938,5.92733877 L3.10312676,7.90311074 L0,5.90857051 L3.10076928,3.93279855 L0,1.97577196 L3.10076928,0 Z M9.27420122,0 L12.3749705,1.97577196 L9.27420122,3.95154392 L12.3749705,5.9249813 L9.27420122,7.90075326 L6.19686938,5.90857051 L9.290612,3.93279855 L6.19686938,1.97343737 L9.27420122,0 Z"></path></clipPath></defs><g transform="translate(6.0 7.0)"><g clip-path="url(#i0)"><polygon points="0,0 12.3749705,0 12.3749705,10.499975 0,10.499975 0,0" stroke="none" fill="#151515"></polygon></g></g></svg>