<?xml version="1.0" encoding="UTF-8"?><svg version="1.1" width="24px" height="24px" viewBox="0 0 24.0 24.0" xmlns="http://www.w3.org/2000/svg" xmlns:xlink="http://www.w3.org/1999/xlink"><defs><clipPath id="i0"><path d="M4.13201682,0 C4.48827055,0.42890065 4.9171712,0.925779043 5.22185797,1.13202397 C5.71873637,1.46014819 6.21794935,1.58905413 6.73826518,1.91717835 C7.05467068,2.11170456 8.99997854,3.48748711 8.99997854,6.1195075 C8.99997854,8.74450125 6.92576474,10.4788721 4.54217209,10.4788721 C2.15155279,10.4788721 0,8.59684993 0,6.03747645 C0,3.48279504 1.99218275,2.11170456 2.36248979,1.91717835 C2.80077457,1.68044643 3.11718007,1.55859003 3.61639305,1.16015348 C3.86248621,0.965604387 4.06873114,0.686712535 4.13201682,0 Z M6.79685879,9.548401 C6.89530064,9.44995916 6.84139909,9.24137964 6.69841695,9.34918273 C6.49919868,9.49683405 6.05388724,9.67730694 5.42107625,9.67730694 C4.73688317,9.67730694 4.34635155,9.45412751 4.2423819,9.38545691 L4.21404788,9.36559352 C4.06873114,9.36559352 3.94920933,9.53434769 4.06170449,9.64684284 C4.68515423,10.2210602 6.32577532,10.0195074 6.79685879,9.548401 Z M6.38201146,8.3460647 C6.19920397,8.22654289 5.72342843,8.23121206 5.51951809,8.3156006 C5.3671747,8.37888627 4.85388552,8.70934508 4.99451019,8.9015367 C5.05076921,8.97887569 5.11638947,8.9320008 5.28045158,8.79137613 C5.44920576,8.65544354 5.56170091,8.53356425 5.90623592,8.53356425 C6.49919868,8.53356425 6.3304445,8.99997854 6.52732819,8.9015367 C6.75936804,8.78668407 6.47811871,8.41168496 6.38201146,8.3460647 Z M3.59764767,6.07965927 C2.04139223,6.0890434 1.47422439,7.92185611 2.38359264,8.54528297 C3.72421903,9.45231664 5.43982163,7.53980746 6.1640478,7.56091032 C6.62107796,7.57732111 7.33122794,8.69762636 7.68748167,8.7210638 C8.60387658,8.79840279 9.19919682,6.23669473 8.05778871,6.23669473 C7.58903983,6.23669473 6.63982334,7.20934866 6.14061036,7.21637531 C5.56170091,7.22809403 4.75780116,6.06794055 3.59764767,6.07965927 Z"></path></clipPath></defs><g transform="translate(8.0 7.0)"><g clip-path="url(#i0)"><polygon points="0,0 8.99997854,0 8.99997854,10.4788721 0,10.4788721 0,0" stroke="none" fill="#151515"></polygon></g></g></svg>