<?xml version="1.0" encoding="UTF-8"?><svg version="1.1" width="24px" height="24px" viewBox="0 0 24.0 24.0" xmlns="http://www.w3.org/2000/svg" xmlns:xlink="http://www.w3.org/1999/xlink"><defs><clipPath id="i0"><path d="M9.37497765,0 C9.99597836,0 10.499975,0.503996601 10.499975,1.12499732 L10.499975,9.37497765 C10.499975,9.99597836 9.99597836,10.499975 9.37497765,10.499975 L6.15818844,10.499975 L6.15818844,6.93022792 L7.51241037,6.93022792 L7.77022226,5.24998748 L6.15818844,5.24998748 L6.15818844,4.15897904 C6.15818844,3.69936252 6.38343052,3.25123584 7.1055281,3.25123584 L7.83842888,3.25123584 L7.83842888,1.82155175 C7.83842888,1.82155175 7.17325408,1.70811818 6.53717008,1.70811818 C5.20897196,1.70811818 4.34178652,2.51272747 4.34178652,3.96937378 L4.34178652,5.24998748 L2.86522754,5.24998748 L2.86522754,6.93022792 L4.34178652,6.93022792 L4.34178652,10.499975 L1.12499732,10.499975 C0.503996601,10.499975 0,9.99597836 0,9.37497765 L0,1.12499732 C0,0.503996601 0.503996601,0 1.12499732,0 Z"></path></clipPath></defs><g transform="translate(7.0 7.0)"><g clip-path="url(#i0)"><polygon points="0,0 10.499975,0 10.499975,10.499975 0,10.499975 0,0" stroke="none" fill="#151515"></polygon></g></g></svg>