<?xml version="1.0" encoding="UTF-8"?>
<svg width="24px" height="24px" viewBox="0 0 24 24" version="1.1" xmlns="http://www.w3.org/2000/svg" xmlns:xlink="http://www.w3.org/1999/xlink">
    <title></title>
    <g id="Icons" stroke="none" stroke-width="1" fill="none" fill-rule="evenodd">
        <g id="Icons/2.-Size-sm/Brands/Facebook" fill="#151515">
            <path d="M11.3417865,17.499975 L11.3417865,13.9302279 L9.86522754,13.9302279 L9.86522754,12.2499875 L11.3417865,12.2499875 L11.3417865,10.9693738 C11.3417865,9.51272747 12.208972,8.70811818 13.5371701,8.70811818 C14.1732541,8.70811818 14.8384289,8.82155175 14.8384289,8.82155175 L14.8384289,10.2512358 L14.1055281,10.2512358 C13.3834305,10.2512358 13.1581884,10.6993625 13.1581884,11.158979 L13.1581884,12.2499875 L14.7702223,12.2499875 L14.5124104,13.9302279 L13.1581884,13.9302279 L13.1581884,17.499975 L16.3749776,17.499975 C16.9959784,17.499975 17.499975,16.9959784 17.499975,16.3749776 L17.499975,8.12499732 C17.499975,7.5039966 16.9959784,7 16.3749776,7 L8.12499732,7 C7.5039966,7 7,7.5039966 7,8.12499732 L7,16.3749776 C7,16.9959784 7.5039966,17.499975 8.12499732,17.499975 L11.3417865,17.499975 Z" id="facebook-square"></path>
        </g>
    </g>
</svg>