<?xml version="1.0" encoding="UTF-8"?><svg version="1.1" width="24px" height="24px" viewBox="0 0 24.0 24.0" xmlns="http://www.w3.org/2000/svg" xmlns:xlink="http://www.w3.org/1999/xlink"><defs><clipPath id="i0"><path d="M5.73748174,0 C8.98825982,0 11.6249723,2.46795829 11.6249723,5.71873637 C11.6249723,8.31795807 10.0359182,10.5421578 7.69217374,11.3202855 C7.39451362,11.3741871 7.28671053,11.189045 7.28671053,11.0367016 C7.28671053,10.8719659 7.29187297,10.1303821 7.29334796,9.42446699 L7.29373719,9.07731753 C7.29373719,8.52653759 7.1109297,8.17497593 6.89530064,7.98983386 L7.15783645,7.95925504 C8.38336787,7.80884959 9.58591465,7.51092875 9.58591465,5.39999628 C9.58591465,4.75780116 9.35623227,4.43436901 8.98123316,4.01952167 C9.04216136,3.86717828 9.24137964,3.24139394 8.92028208,2.42811006 C8.43045323,2.27343208 7.30309843,3.06092105 7.30309843,3.06092105 C6.83434955,2.92968052 6.3304445,2.86170277 5.83123152,2.86170277 C5.33201854,2.86170277 4.82811349,2.92968052 4.35936461,3.06092105 C4.35936461,3.06092105 3.2320327,2.27576667 2.74218096,2.42811006 C2.4210834,3.23905936 2.62030168,3.86717828 2.68125276,4.01952167 C2.30625366,4.43201153 2.12811535,4.75546657 2.12811535,5.39999628 C2.12811535,7.50434917 3.27962058,7.81002594 4.49834646,7.95957804 L4.76013575,7.98983386 C4.59140446,8.14451183 4.43906107,8.40465831 4.38513664,8.77965741 C4.04998577,8.93435828 3.18982699,9.19450475 2.6765607,8.28982856 C2.35546313,7.73202197 1.77186162,7.68514708 1.77186162,7.68514708 C1.19764424,7.67809754 1.73437086,8.04606999 1.73437086,8.04606999 C2.1187541,8.22185082 2.38592723,8.90389418 2.38592723,8.90389418 C2.73046224,9.9538871 4.37108333,9.60232543 4.37108333,9.60232543 L4.37160382,9.86972956 C4.3727424,10.2013481 4.37547499,10.5834766 4.37701207,10.8244378 L4.37797173,10.9919338 L4.37810998,11.0413708 C4.37810998,11.1937142 4.27264149,11.3788791 3.97264678,11.3249776 C1.63592902,10.5421578 0,8.31795807 0,5.71873637 C0,2.46795829 2.48670367,0 5.73748174,0 Z"></path></clipPath></defs><g transform="translate(6.0 5.999999999999975)"><g clip-path="url(#i0)"><polygon points="0,0 11.6249723,0 11.6249723,11.334525 0,11.334525 0,0" stroke="none" fill="#151515"></polygon></g></g></svg>