<?xml version="1.0" encoding="UTF-8"?><svg version="1.1" width="24px" height="24px" viewBox="0 0 24.0 24.0" xmlns="http://www.w3.org/2000/svg" xmlns:xlink="http://www.w3.org/1999/xlink"><defs><clipPath id="i0"><path d="M2.02367821,0.156451806 C2.09868261,-0.052150602 2.39398525,-0.052150602 2.46665506,0.156451806 C2.46665506,0.156451806 3.6084532,3.688949 3.77343642,4.19359146 L3.79320524,4.25331246 L8.20882887,4.25331246 L9.53537905,0.156451806 C9.61038345,-0.052150602 9.90568609,-0.052150602 9.9783559,0.156451806 L11.3025715,4.25331246 L8.21116346,4.25331246 L6.00101705,11.143921 L3.79087065,4.25331246 L0.699462615,4.25331246 Z M0.697128025,4.25331246 L5.99868246,11.143921 L0.18853091,6.83143131 C0.029160868,6.71188662 -0.0388168752,6.5033071 0.0221342124,6.31580754 L0.697128025,4.25331246 Z M11.3049061,4.25331246 L11.9798999,6.31580754 C12.0384935,6.5033071 11.9728732,6.71188662 11.8111686,6.83143131 L6.00101705,11.143921 L11.3049061,4.25331246 Z"></path></clipPath></defs><g transform="translate(6.000000000000057 6.000000000000001)"><g clip-path="url(#i0)"><polygon points="3.8191672e-14,0 12.0010142,0 12.0010142,11.143921 3.8191672e-14,11.143921 3.8191672e-14,0" stroke="none" fill="#151515"></polygon></g></g></svg>