<?xml version="1.0" encoding="UTF-8"?>
<svg width="24px" height="24px" viewBox="0 0 24 24" version="1.1" xmlns="http://www.w3.org/2000/svg" xmlns:xlink="http://www.w3.org/1999/xlink">
    <title></title>
    <g id="Icons" stroke="none" stroke-width="1" fill="none" fill-rule="evenodd">
        <g id="Icons/2.-Size-sm/Brands/Google" fill="#151515">
            <path d="M11.8124861,17.6249723 C15.1663752,17.6249723 17.4374727,15.2648171 17.4374727,11.9484187 C17.4374727,11.5617009 17.399982,11.2757595 17.3460575,10.9781223 L11.8124861,10.9781223 L11.8124861,12.9773317 L15.1124737,12.9773317 C14.9765411,13.8327984 14.1140477,15.4827807 11.8124861,15.4827807 C9.82968752,15.4827807 8.2101464,13.8398251 8.2101464,11.8124861 C8.2101464,8.54529728 12.0585793,7.04530085 14.128101,9.04217567 L15.7101285,7.52109928 C14.6952918,6.57421738 13.3781028,6 11.8124861,6 C8.59686423,6 6,8.59686423 6,11.8124861 C6,15.0281081 8.59686423,17.6249723 11.8124861,17.6249723 Z" id="google"></path>
        </g>
    </g>
</svg>