<?xml version="1.0" encoding="UTF-8"?><svg version="1.1" width="24px" height="24px" viewBox="0 0 24.0 24.0" xmlns="http://www.w3.org/2000/svg" xmlns:xlink="http://www.w3.org/1999/xlink"><defs><clipPath id="i0"><path d="M5.81248614,0 C7.37810283,0 8.69529177,0.574217381 9.71012852,1.52109928 L8.12810104,3.04217567 C6.05857931,1.04530085 2.2101464,2.54529728 2.2101464,5.81248614 C2.2101464,7.83982506 3.82968752,9.48278074 5.81248614,9.48278074 C8.11404773,9.48278074 8.9765411,7.8327984 9.1124737,6.97733169 L5.81248614,6.97733169 L5.81248614,4.97812229 L11.3460575,4.97812229 C11.399982,5.27575952 11.4374727,5.56170091 11.4374727,5.94841874 C11.4374727,9.26481708 9.16637524,11.6249723 5.81248614,11.6249723 C2.59686423,11.6249723 0,9.02810805 0,5.81248614 C0,2.59686423 2.59686423,0 5.81248614,0 Z"></path></clipPath></defs><g transform="translate(6.000000000000001 6.0)"><g clip-path="url(#i0)"><polygon points="0,0 11.4374727,0 11.4374727,11.6249723 0,11.6249723 0,0" stroke="none" fill="#151515"></polygon></g></g></svg>