<?xml version="1.0" encoding="UTF-8"?><svg version="1.1" width="24px" height="24px" viewBox="0 0 24.0 24.0" xmlns="http://www.w3.org/2000/svg" xmlns:xlink="http://www.w3.org/1999/xlink"><defs><clipPath id="i0"><path d="M10.499975,0 L10.499975,10.499975 L0,10.499975 L0,0 L10.499975,0 Z M7.99216845,4.76482781 C7.11326429,4.76482781 6.54843104,5.32732647 6.54843104,6.06796344 C6.54843104,6.87186319 7.01951451,7.25388896 7.73202197,7.55624114 L7.97811513,7.66170964 C8.43045323,7.86092791 8.69762636,7.98044972 8.69762636,8.31795807 C8.69762636,8.60154199 8.43514529,8.80545233 8.02732461,8.80545233 C7.54216494,8.80545233 7.26560768,8.54997504 7.05467068,8.20544003 L6.25077092,8.66951974 C6.53904691,9.24137964 7.13200967,9.67732983 8.04842747,9.67732983 C8.98356775,9.67732983 9.68199901,9.18981268 9.68199901,8.30388187 C9.68199901,7.47887926 9.21091554,7.1109297 8.37185962,6.7523185 L8.12576645,6.64685 C7.70153498,6.46170792 7.5187275,6.34216322 7.5187275,6.04686058 C7.5187275,5.80779408 7.70153498,5.62498659 7.98983386,5.62498659 C8.27341777,5.62498659 8.45622526,5.7445084 8.62497944,6.04686058 L9.39372303,5.55467426 C9.07029087,4.98279146 8.62028737,4.76482781 7.99216845,4.76482781 Z M5.7140443,4.82108683 L4.72733706,4.82108683 L4.72733706,8.17497593 C4.72733706,8.66951974 4.52109213,8.7960682 4.19763709,8.7960682 C3.85779415,8.7960682 3.71716948,8.56405124 3.56249151,8.28982856 L2.75859175,8.77498823 C2.99296619,9.26950915 3.44999635,9.67732983 4.2398428,9.67732983 C5.11405488,9.67732983 5.7140443,9.21091554 5.7140443,8.18905213 L5.7140443,4.82108683 Z"></path></clipPath></defs><g transform="translate(7.0 7.0)"><g clip-path="url(#i0)"><polygon points="0,0 10.499975,0 10.499975,10.499975 0,10.499975 0,0" stroke="none" fill="#151515"></polygon></g></g></svg>