<?xml version="1.0" encoding="UTF-8"?><svg version="1.1" width="24px" height="24px" viewBox="0 0 24.0 24.0" xmlns="http://www.w3.org/2000/svg" xmlns:xlink="http://www.w3.org/1999/xlink"><defs><clipPath id="i0"><path d="M9.74997675,0 C10.1624666,0 10.499975,0.33984294 10.499975,0.757024867 L10.499975,9.7429501 C10.499975,10.160132 10.1624666,10.499975 9.74997675,10.499975 L0.747663623,10.499975 C0.335150873,10.499975 0,10.160132 0,9.7429501 L0,0.757024867 C0,0.33984294 0.335150873,0 0.747663623,0 Z M7.13903632,3.86484369 C6.38201146,3.86484369 5.87341434,4.27966814 5.66483482,4.67343551 L5.64373197,4.67343551 L5.64373197,3.98905757 L4.1507622,3.98905757 L4.1507622,8.99997854 L5.70701764,8.99997854 L5.70701764,6.52030153 C5.70701764,5.86638769 5.83123152,5.23357669 6.64218082,5.23357669 C7.43905392,5.23357669 7.45077264,5.98124032 7.45077264,6.56248435 L7.45077264,8.99997854 L9.0070052,8.99997854 L9.0070052,6.25310551 C9.0070052,4.90311789 8.71403715,3.86484369 7.13903632,3.86484369 Z M3.17577368,3.98905757 L1.61718364,3.98905757 L1.61718364,8.99997854 L3.17577368,8.99997854 L3.17577368,3.98905757 Z M2.39531137,1.49999642 C1.89609838,1.49999642 1.49296977,1.90545963 1.49296977,2.40233802 C1.49296977,2.89921642 1.89609838,3.30467962 2.39531137,3.30467962 C2.89452435,3.30467962 3.29765297,2.901551 3.29765297,2.40233802 C3.29765297,1.90545963 2.89218976,1.49999642 2.39531137,1.49999642 Z"></path></clipPath></defs><g transform="translate(7.0 7.0)"><g clip-path="url(#i0)"><polygon points="0,0 10.499975,0 10.499975,10.499975 0,10.499975 0,0" stroke="none" fill="#151515"></polygon></g></g></svg>