<?xml version="1.0" encoding="UTF-8"?><svg version="1.1" width="24px" height="24px" viewBox="0 0 24.0 24.0" xmlns="http://www.w3.org/2000/svg" xmlns:xlink="http://www.w3.org/1999/xlink"><defs><clipPath id="i0"><path d="M5.20606609,0 C7.10216447,0.00234137987 6.99433849,2.00157367 6.98261977,3.07733863 C6.97559312,3.78281943 7.36466842,4.26092955 7.76543956,4.7648346 C8.12169329,5.1867086 8.58808469,5.8031088 8.85528071,6.5085896 C9.07324437,7.08514157 9.1576329,7.72264463 8.94200383,8.36248228 C8.97480252,8.374201 9.0076241,8.39061179 9.0380882,8.40935716 C9.07090978,8.42810254 9.10137388,8.45153999 9.13183798,8.47733491 C9.28653884,8.60857544 9.33574832,8.81248578 9.37793114,9.00231992 C9.42247144,9.19217695 9.46231967,9.37029237 9.54668531,9.46404215 C9.80683179,9.75467561 9.91934983,9.9679472 9.9099657,10.1601388 C9.89824698,10.3523304 9.75762231,10.483571 9.58417607,10.5890395 C9.23497189,10.7999765 8.70996398,10.9593465 8.3912239,11.3437297 C8.05840761,11.7398317 7.64825234,11.9671566 7.25919992,11.9976436 C6.8724821,12.0281077 6.50920171,11.8499694 6.31465261,11.4585824 C6.28888058,11.4070154 6.2701352,11.3531139 6.256059,11.2991894 C5.75215396,11.327319 5.31389206,11.1749756 4.96466499,11.2031051 C4.44904122,11.2312346 4.12560907,11.3554485 3.83264102,11.3577831 C3.72014586,11.6062337 3.49749014,11.7702958 3.22560206,11.831224 C2.85060295,11.9179471 2.37951948,11.831224 1.91546266,11.5874883 C1.48186995,11.3577831 0.931090011,11.3788859 0.525603917,11.2945203 C0.321716464,11.2523146 0.143578156,11.177333 0.0545204455,11.0062214 C-0.0322026753,10.8351326 -0.0157918868,10.6007582 0.1060874,10.2632727 C0.145935633,10.143728 0.115448645,9.96561261 0.0873420226,9.77575558 C0.0732658232,9.68436328 0.059212512,9.5906135 0.059212512,9.49919832 C0.059212512,9.39842188 0.0756233005,9.29998004 0.124832778,9.20858774 C0.230301276,9.00936947 0.401390041,8.92498093 0.558425494,8.8687448 C0.715460947,8.81248578 0.858420201,8.77499502 0.956862044,8.6741957 C1.07874133,8.54528976 1.19357107,8.33671024 1.34591446,8.20077764 C1.28498626,7.79764903 1.35060653,7.37108297 1.49123119,6.95154356 C1.78655672,6.06327816 2.40998358,5.21250352 2.85296043,4.68516103 C3.23029412,4.1484344 3.34045469,3.71717627 3.38030292,3.16875381 C3.40607495,2.42344767 2.80608554,-0.00468527574 5.20606609,0 Z M7.1584006,8.17029066 L7.13496316,8.18200938 C6.96856646,8.27342457 6.87481668,8.43515208 6.81388849,8.67655318 C6.75529487,8.91561969 6.73419202,9.22733312 6.71544664,9.58358685 C6.69903585,9.86014411 6.57012991,10.2023216 6.48340679,10.5351379 C6.40137574,10.8445168 6.34747419,11.1257661 6.45763476,11.3859126 C6.62638893,11.7257555 6.91466492,11.8640456 7.2474812,11.8382507 C7.5802746,11.8124786 7.95996577,11.6085683 8.26934461,11.2405958 C8.78496838,10.617169 9.7294928,10.5445221 9.75059566,10.1507547 C9.75762231,10.0312329 9.67792585,9.84606791 9.42949809,9.57420271 C9.19512365,9.30936417 9.26074392,8.79843247 9.02872695,8.59921419 C8.86699943,8.45858953 8.70996398,8.47264284 8.49902698,8.4796695 C8.31855409,8.68591443 7.8943455,8.93905713 7.59904286,8.86169526 C7.32951226,8.7937404 7.17716887,8.4796695 7.1584006,8.17029066 Z M1.81702082,8.20311223 C1.63654792,8.17498272 1.52169529,8.23593381 1.40217348,8.36483975 C1.28967833,8.48436156 1.19592855,8.65311574 1.06702261,8.78671375 C0.884215123,8.93905713 0.849058956,8.93200759 0.607634972,9.01873071 C0.459983651,9.07029767 0.342796431,9.12655669 0.260765376,9.28356925 C0.197479699,9.40075647 0.211555899,9.56951065 0.239685409,9.75231813 C0.267792032,9.9374831 0.309997742,10.1343668 0.253738721,10.3124822 C0.1365515,10.6382718 0.1365515,10.8257714 0.192810521,10.9359091 C0.377952597,11.2968549 1.28498626,11.0788912 1.985775,11.4491982 C2.72169701,11.8335815 3.68732428,11.8499694 3.75060996,11.0273242 C3.79981944,10.5468566 3.01233047,9.87888949 2.78967475,9.41247519 L2.33028711,8.57811134 C2.17091707,8.36248228 2.00685496,8.23124174 1.81702082,8.20311223 Z M6.06389027,3.63281063 C5.95842177,3.78281943 5.77325681,3.91172537 5.54121696,3.98437229 C5.43107928,4.01952846 5.31389206,4.11327823 5.16857533,4.19530929 C4.8427857,4.38280884 4.46545201,4.40155422 4.17481854,4.16717978 C4.06935005,4.08281413 3.98731899,3.98906436 3.8795159,3.92577868 C3.84200226,3.90467583 3.75997121,3.84843969 3.73419917,3.82969432 C3.68732428,4.71562513 3.09436153,5.82890372 2.8131122,6.47107596 C2.61858599,6.93279818 2.50373336,7.42734199 2.48968004,7.91247877 C1.97872545,7.2304583 2.35138997,6.3585808 2.55060824,5.98124711 C2.77326396,5.56873436 2.80842013,5.45390462 2.75451859,5.49375285 C2.55294283,5.82187707 2.23889482,6.34452749 2.11701553,6.88123123 C2.05372985,7.16014597 2.04201113,7.44372989 2.12404218,7.70623384 C2.20607324,7.96873779 2.38421155,8.21013889 2.70061704,8.40702257 C2.70061704,8.40702257 3.28186108,8.74217345 3.59826657,9.16873951 C3.77168993,9.40311395 3.82561436,9.60702429 3.77168993,9.75231813 C3.71309632,9.90935359 3.54669962,9.96092054 3.38030292,9.96092054 C3.49279808,10.1015452 3.62170402,10.2656073 3.71778838,10.4202853 C4.59905002,11.0226322 5.64435087,10.7882577 6.39668367,10.251554 C6.47168807,9.99374212 6.54435788,9.75231813 6.5560766,9.57186812 C6.57482198,9.2156144 6.59356736,8.8992089 6.65918762,8.63670495 C6.73185743,8.34140231 6.87715127,8.09530915 7.16075808,7.9968673 C7.21465962,7.5023235 7.59904286,7.5023235 8.05840761,7.70389925 C8.50138446,7.90311753 8.66778116,8.07889836 8.59277676,8.31560739 C8.61621421,8.31560739 8.63965165,8.3132728 8.6912186,8.31560739 C8.81309789,7.91952831 8.35606773,7.65935895 7.97168449,7.49998891 C8.03966224,7.21873958 8.02794351,6.93515566 7.96232325,6.66326758 C7.82169858,6.07030482 7.43262328,5.54296233 7.13732064,5.28045837 C7.08341909,5.27812378 7.08808827,5.32499867 7.19824884,5.43280176 C7.47013692,5.68358699 8.06779175,6.58592859 7.74433671,7.42264992 C7.65294441,7.39921248 7.56622129,7.38749376 7.4888823,7.38982834 C7.36466842,6.70780788 7.07872703,6.14295174 6.93574488,5.87577861 C6.66621428,5.37420815 6.24434028,4.34531809 6.06389027,3.63281063 Z M4.65764363,2.62030847 C4.32013528,2.62030847 4.11389034,2.84999084 4.00372978,2.95312475 C3.99201106,2.96484347 3.81856482,3.09141483 3.67327097,3.19921791 C3.57482913,3.2765569 3.54200755,3.37266415 3.57482913,3.4874939 C3.6099853,3.60234653 3.71778838,3.73358706 3.91936414,3.84608222 C4.10217162,3.95390819 4.20061347,4.11561282 4.38811302,4.19764388 C4.44904122,4.2234388 4.52168814,4.24218418 4.61310333,4.24687624 C5.04436145,4.27264828 5.24824891,3.9820377 5.50841827,3.89764917 C5.78264094,3.81092605 5.97950174,3.63983729 6.04045283,3.47344059 C6.11543434,3.27422231 5.99122046,3.12890558 5.79435967,3.04687453 C5.52949824,2.93202189 5.41231102,2.92499524 5.2646597,2.82891087 C5.0232586,2.67421001 4.82404032,2.62030847 4.65764363,2.62030847 Z M5.75684602,3.24842739 C5.82246629,3.25547693 5.7755914,3.32343179 5.6841991,3.40312825 C5.59278391,3.48280183 5.45215925,3.58593574 5.33732951,3.64686394 C5.11934296,3.76171657 4.86388856,3.90000665 4.59200047,3.90000665 C4.32246986,3.90000665 4.10686369,3.77343529 3.95216283,3.65155601 C3.87482384,3.59062781 3.81153816,3.52967672 3.76466327,3.48515931 C3.68263222,3.41953904 3.69201635,3.33045845 3.72481504,3.33281592 C3.78107406,3.33984258 3.79045819,3.41484698 3.82561436,3.44764567 C3.87248925,3.49218596 3.93341745,3.55077957 4.00606437,3.60937319 C4.1513811,3.72422582 4.34590731,3.83672097 4.58966588,3.83672097 C4.83342446,3.83672097 5.11700838,3.69609631 5.29045462,3.59765446 C5.38887357,3.54139544 5.51311034,3.44297649 5.61622136,3.36797209 C5.69591782,3.30937848 5.69122576,3.24140073 5.75684602,3.24842739 Z M3.99201106,1.77656048 C3.54903421,1.77656048 3.4295124,2.65546463 3.79512737,2.99766505 C3.97795775,2.86406704 3.95685489,2.88750448 3.93341745,2.86875911 C3.74591789,2.70703159 3.77873947,2.22656398 3.97560027,2.21015319 C4.12325159,2.19843447 4.22872009,2.46093842 4.20061347,2.66954083 C4.27326039,2.62030847 4.35762603,2.5851523 4.43965709,2.56171486 C4.47950532,2.10937676 4.22872009,1.77656048 3.99201106,1.77656048 Z M5.97716715,2.03672984 C5.74748478,1.53515938 5.17560199,1.52577525 4.94591961,2.04609108 C4.87091521,2.21484526 4.85450442,2.39531816 4.87794187,2.55702279 C4.9623304,2.57812564 5.08654428,2.61328181 5.18262864,2.6601567 C5.13341916,2.3742153 5.28809714,2.10937676 5.4591859,2.12109548 C5.66778831,2.12812214 5.78497553,2.48437587 5.67248038,2.76093313 C5.653735,2.80547343 5.60686011,2.8406296 5.58106519,2.86875911 C5.73810064,2.92266065 5.83887708,2.96484347 5.87639072,2.98358885 C6.0615328,2.76093313 6.12951054,2.36952324 5.97716715,2.03672984 Z"></path></clipPath></defs><g transform="translate(7.0 5.999999999999999)"><g clip-path="url(#i0)"><polygon points="2.4855118e-14,-6.77108027e-06 9.91050604,-6.77108027e-06 9.91050604,12.0009785 2.4855118e-14,12.0009785 2.4855118e-14,-6.77108027e-06" stroke="none" fill="#151515"></polygon></g></g></svg>