<?xml version="1.0" encoding="UTF-8"?>
<svg width="24px" height="24px" viewBox="0 0 24 24" version="1.1" xmlns="http://www.w3.org/2000/svg" xmlns:xlink="http://www.w3.org/1999/xlink">
    <title></title>
    <g id="Icons" stroke="none" stroke-width="1" fill="none" fill-rule="evenodd">
        <g id="Icons/2.-Size-sm/Brands/Open-Stack" fill="#151515">
            <path d="M7.11650086,6 C6.50170309,6.00174847 6.00372585,6.4996689 6.00190724,7.11446646 L6.00190724,9.74137762 L8.71082994,9.74137762 L8.71082994,9.31237478 C8.71080028,9.15247716 8.77429752,8.99911815 8.8873503,8.88604154 C9.00040308,8.77296493 9.1537487,8.70943536 9.31364632,8.70943132 L14.6863537,8.70943132 C14.8462513,8.70943546 14.9995968,8.77296508 15.1126495,8.88604168 C15.2257022,8.99911828 15.2891994,9.15247722 15.2891697,9.31237478 L15.2891697,9.74137762 L18,9.74137762 L18,7.11446646 C17.9978174,6.49833118 17.4977309,6 16.8815918,6 L7.11650086,6 Z M6,10.5159731 L6,13.2255313 L8.70943132,13.2255313 L8.70943132,10.5159731 L6,10.5159731 Z M15.2872629,10.5159731 L15.2872629,13.2255313 L17.9966942,13.2255313 L17.9966942,10.5159731 L15.2872629,10.5159731 Z M6,14.0002539 L6,16.6264026 C6.00146908,17.241399 6.49947094,17.7396851 7.11446646,17.7415069 L16.8795574,17.7415069 C17.4967377,17.7426192 17.9981656,17.2435812 18,16.6264026 L18,14.0002539 L15.2872629,14.0002539 L15.2872629,14.4292571 C15.2868955,14.7620312 15.0172203,15.0317061 14.6844463,15.0320731 L9.31161193,15.0320731 C8.978838,15.0317059 8.70916294,14.7620311 8.70879555,14.4292571 L8.70879555,14.0002539 L6,14.0002539 Z" id="openstack"></path>
        </g>
    </g>
</svg>