<?xml version="1.0" encoding="UTF-8"?><svg version="1.1" width="24px" height="24px" viewBox="0 0 24.0 24.0" xmlns="http://www.w3.org/2000/svg" xmlns:xlink="http://www.w3.org/1999/xlink"><defs><clipPath id="i0"><path d="M2.70879555,8.00025389 L2.70879555,8.42925712 C2.70916294,8.76203106 2.978838,9.03170594 3.31161193,9.03207312 L8.68444629,9.03207312 C9.01722033,9.03170608 9.28689554,8.76203116 9.28726294,8.42925712 L9.28726294,8.00025389 L12,8.00025389 L12,10.6264026 C11.9981656,11.2435812 11.4967377,11.7426192 10.8795574,11.7415069 L1.11446646,11.7415069 C0.499470944,11.7396851 0.00146907637,11.241399 0,10.6264026 L0,8.00025389 L2.70879555,8.00025389 Z M2.70943132,4.51597315 L2.70943132,7.22553129 L0,7.22553129 L0,4.51597315 L2.70943132,4.51597315 Z M11.9966942,4.51597315 L11.9966942,7.22553129 L9.28726294,7.22553129 L9.28726294,4.51597315 L11.9966942,4.51597315 Z M10.8815918,0 C11.4977309,0 11.9978174,0.498331182 12,1.11446646 L12,3.74137762 L9.28916973,3.74137762 L9.28916973,3.31237478 C9.2891994,3.15247722 9.22570221,2.99911828 9.11264951,2.88604168 C8.99959682,2.77296508 8.8462513,2.70943546 8.68635374,2.70943132 L3.31364632,2.70943132 C3.1537487,2.70943536 3.00040308,2.77296493 2.8873503,2.88604154 C2.77429752,2.99911815 2.71080028,3.15247716 2.71082994,3.31237478 L2.71082994,3.74137762 L0.00190724433,3.74137762 L0.00190724433,1.11446646 C0.00372584866,0.499668901 0.501703091,0.00174846599 1.11650086,0 Z"></path></clipPath></defs><g transform="translate(6.0 6.0)"><g clip-path="url(#i0)"><polygon points="0,0 12,0 12,11.7415087 0,11.7415087 0,0" stroke="none" fill="#151515"></polygon></g></g></svg>