<?xml version="1.0" encoding="UTF-8"?><svg version="1.1" width="24px" height="24px" viewBox="0 0 24.0 24.0" xmlns="http://www.w3.org/2000/svg" xmlns:xlink="http://www.w3.org/1999/xlink"><defs><clipPath id="i0"><path d="M11.7242757,5.05819406 C11.7962038,5.96928297 11.6523477,6.91633591 11.2327672,7.8034488 C9.95004995,10.5487035 6.66533467,11.7475047 3.92007992,10.4647875 C3.03296703,10.0571951 2.3016983,9.42183042 1.77422577,8.67857368 L1.784,8.692 L2.78121878,8.33092133 L2.77,8.317 L3.69230769,7.98326898 C3.92247752,8.22302922 4.19868132,8.43210015 4.50250549,8.60434391 L4.73526474,8.72652572 C6.52147852,9.56568656 8.65534466,8.78646578 9.49450549,7.000252 C9.68631369,6.6046476 9.78221778,6.18506718 9.81818182,5.76548676 L9.818,5.766 L10.8131868,5.4058464 L10.812,5.396 Z M1.83416583,6.49675549 C1.96603397,7.18007218 2.3016983,7.81543681 2.78121878,8.33092133 L2.77,8.317 L1.77422577,8.67857368 L1.784,8.692 L0.863136863,9.02622602 C0.513771942,8.5432804 0.252482212,8.01629718 0.0792676711,7.45282566 L0,7.16808417 Z M3.48851149,4.92632592 C3.46453546,5.23801424 3.48851149,5.56169056 3.54845155,5.86139086 L1.71428571,6.53271953 C1.63036963,6.23301923 1.58241758,5.93331893 1.55844156,5.62163062 L1.561,5.656 L2.72127872,5.23801424 L2.725,5.201 Z M11.5324675,2.001251 C11.7122877,2.25299925 11.8681319,2.51673551 12,2.79245979 L10.287,3.419 L10.4074118,3.68586376 C10.5987657,4.14056941 10.7315775,4.61799286 10.788372,5.1093965 L10.812,5.396 L9.81818182,5.76548676 L9.818,5.766 L8.8951049,6.1011511 C8.94838495,5.47244647 8.82169682,4.85321385 8.55713833,4.29397062 L8.45154845,4.08716508 L10.163,3.46 L10.0440809,3.25961763 C9.95941558,3.12550175 9.86725774,2.99588137 9.76461039,2.8737535 L9.612,2.707 L10.7412587,2.3009513 L10.733,2.289 Z M1.28271728,3.17607617 C2.56543457,0.430821428 5.85014985,-0.76797977 8.5954046,0.514737512 C9.48251748,0.92232992 10.2137862,1.55769456 10.7412587,2.3009513 L10.733,2.289 L9.6023976,2.69655569 L9.612,2.707 L8.81118881,2.99625599 C8.57142857,2.75649575 8.30097902,2.54742482 7.99984016,2.37518107 L7.76823177,2.25299925 C5.97002997,1.41383841 3.84815185,2.19305919 3.04495504,4.003249 C2.85314685,4.3988534 2.75724276,4.81843382 2.72127872,5.23801424 L2.725,5.201 L1.55844156,5.62163062 L1.561,5.656 L0.791208791,5.93331893 C0.715684316,5.1025497 0.834365634,4.25235989 1.16473127,3.44392433 Z"></path></clipPath></defs><g transform="translate(6.0 7.0)"><g clip-path="url(#i0)"><polygon points="0,-1.11022302e-16 12,-1.11022302e-16 12,10.979525 0,10.979525 0,-1.11022302e-16" stroke="none" fill="#151515"></polygon></g></g></svg>