<?xml version="1.0" encoding="UTF-8"?><svg version="1.1" width="24px" height="24px" viewBox="0 0 24.0 24.0" xmlns="http://www.w3.org/2000/svg" xmlns:xlink="http://www.w3.org/1999/xlink"><defs><clipPath id="i0"><path d="M2.04375,0 C2.09179688,0 2.13984375,0.0187498605 2.17617187,0.0550777153 L5.33671875,3.21442922 C5.409375,3.28708493 5.409375,3.40661529 5.33671875,3.479271 L4.6734375,4.14254732 L5.20429688,4.67340274 L6.928125,2.9507593 C7.00078125,2.87810359 7.1203125,2.87810359 7.19296875,2.9507593 L7.32539063,3.08318019 L7.72382813,2.68474566 C7.79648437,2.61208995 7.91601562,2.61208995 7.98867188,2.68474566 L9.31289063,4.01012643 C9.38554687,4.08278214 9.38554687,4.2023125 9.31289063,4.27496821 L8.915625,4.67340274 L9.04804688,4.80582363 C9.12070312,4.87847933 9.12070312,4.9980097 9.04804688,5.0706654 L7.32421875,6.79448071 L7.85507812,7.32533613 L8.51835937,6.66205982 C8.59101563,6.58940412 8.71054687,6.58940412 8.78320312,6.66205982 L11.94375,9.82141132 C11.9800781,9.85891104 12,9.90695756 12,9.95500407 C12,10.0030506 11.9800781,10.0510971 11.94375,10.087425 L10.0875,11.9436612 C10.0511719,11.9799891 10.0042969,12 9.95625,12 C9.90820312,12.0010826 9.85898437,11.9799891 9.82265625,11.9436612 L6.66328125,8.78430966 C6.590625,8.71165395 6.590625,8.59212359 6.66328125,8.51946788 L7.3265625,7.85619156 L6.79570312,7.32533613 L6.13242187,7.98861245 C6.05976563,8.06126816 5.94023437,8.06126816 5.86757812,7.98861245 L4.01132813,6.13237627 C3.93867188,6.05972055 3.93867188,5.9401902 4.01132813,5.86753448 L4.67460937,5.20425817 L4.14375,4.67340274 L3.48046875,5.33667906 C3.4078125,5.40933477 3.28828125,5.40933477 3.215625,5.33667906 L0.055078125,2.17615569 C0.01875,2.13982784 0,2.09178131 0,2.0437348 C0,1.99568828 0.01875,1.94764177 0.055078125,1.91131391 L1.91132812,0.0550777153 C1.94765625,0.0187498605 1.99570313,0 2.04375,0 Z M8.65078125,7.59017791 L7.59023438,8.6507169 L9.95507812,11.0155431 L11.015625,9.95500407 L8.65078125,7.59017791 Z M4.40742188,7.58900605 C6,9.18040046 4.40742188,10.7729667 4.40742188,10.7729667 L3.08085938,9.44758597 L2.18554688,10.3428918 C2.19375,10.4975782 2.13984375,10.6546082 2.02148438,10.7717949 C1.80234375,10.9909339 1.44609375,10.9909339 1.22578125,10.7717949 C1.00546875,10.5526559 1.00664063,10.1964085 1.22578125,9.97609767 C1.34414063,9.85773918 1.5,9.80383332 1.6546875,9.81203639 L2.55,8.91673055 L1.22460938,7.59134979 L1.24177914,7.57485177 C1.41737367,7.4098687 2.91136364,6.09405978 4.40742188,7.58900605 Z M2.04375,0.983195811 L0.983203125,2.0437348 L3.34804687,4.40856096 L4.40859375,3.34802197 L2.04375,0.983195811 Z"></path></clipPath></defs><g transform="translate(6.0 5.999999999999999)"><g clip-path="url(#i0)"><polygon points="0,0 12,0 12,12.0000397 0,12.0000397 0,0" stroke="none" fill="#151515"></polygon></g></g></svg>