<?xml version="1.0" encoding="UTF-8"?><svg version="1.1" width="24px" height="24px" viewBox="0 0 24.0 24.0" xmlns="http://www.w3.org/2000/svg" xmlns:xlink="http://www.w3.org/1999/xlink"><defs><clipPath id="i0"><path d="M0.937497765,6.74998391 L0.937497765,9.5624772 L7.4882634,9.5624772 L7.4882634,6.74998391 L8.42576116,6.74998391 L8.42576116,10.499975 L0,10.499975 L0,6.74998391 L0.937497765,6.74998391 Z M6.55779229,7.68748167 L6.55779229,8.61795278 L1.87030346,8.61795278 L1.87030346,7.68748167 L6.55779229,7.68748167 Z M2.16327151,5.57108505 L6.74998391,6.53904691 L6.55779229,7.45310723 L1.9710799,6.49217202 L2.16327151,5.57108505 Z M2.96483668,3.44530429 L7.21404072,5.43046038 L6.82029624,6.28123502 L2.57342679,4.300771 L2.96483668,3.44530429 Z M4.34764588,1.49296977 L7.94529356,4.49998927 L7.34763873,5.22185797 L3.74999106,2.21483847 L4.34764588,1.49296977 Z M6.07732468,0 L8.87340719,3.75701771 L8.12340898,4.31951637 L5.32732647,0.562498659 L6.07732468,0 Z"></path></clipPath></defs><g transform="translate(8.0 7.0)"><g clip-path="url(#i0)"><polygon points="0,0 8.87340719,0 8.87340719,10.499975 0,10.499975 0,0" stroke="none" fill="#151515"></polygon></g></g></svg>