<?xml version="1.0" encoding="UTF-8"?><svg version="1.1" width="24px" height="24px" viewBox="0 0 24.0 24.0" xmlns="http://www.w3.org/2000/svg" xmlns:xlink="http://www.w3.org/1999/xlink"><defs><clipPath id="i0"><path d="M8.30704044,0 C9.01517626,0 9.65473925,0.296950586 10.1040103,0.776639994 C10.6598257,0.670049977 11.1927986,0.464468802 11.6649121,0.182738822 C11.4821504,0.753820529 11.0938304,1.23350994 10.5836997,1.53805938 C11.0786326,1.48477582 11.5583221,1.34769881 11.9999256,1.15736113 C11.6649578,1.6446494 11.2461509,2.0786541 10.7664615,2.42891114 C10.7740832,2.53550116 10.7740832,2.64213695 10.7740832,2.74872697 C10.7740832,5.99996281 8.29948735,9.74615444 3.77663284,9.74615444 C2.38322643,9.74615444 1.08883407,9.34259095 0,8.64212265 C0.197982316,8.66494211 0.388319997,8.67256386 0.593901172,8.67256386 C1.74361767,8.67256386 2.80201053,8.28424386 3.64720047,7.62181563 C2.56598814,7.59895039 1.65989289,6.89083745 1.34769881,5.91621514 C1.5,5.9390575 1.65227115,5.9542781 1.8121905,5.9542781 C2.03299228,5.9542781 2.25381695,5.923814 2.45937524,5.87053044 C1.33247821,5.64208402 0.487288267,4.65226399 0.487288267,3.4568399 L0.487288267,3.42639869 C0.814680064,3.60913751 1.19542409,3.72334928 1.59894181,3.73854699 C0.936513575,3.29692055 0.502531761,2.5431229 0.502531761,1.6903341 C0.502531761,1.23348705 0.624319495,0.814702953 0.837545305,0.449225308 C2.04819,1.94159999 3.86800225,2.91619941 5.90857051,3.02281231 C5.87050755,2.84007349 5.8476652,2.64973581 5.8476652,2.45937524 C5.8476652,1.10405468 6.94412102,0 8.30704044,0 Z"></path></clipPath></defs><g transform="translate(6.0 7.0)"><g clip-path="url(#i0)"><polygon points="0,0 11.9999256,0 11.9999256,9.74615444 0,9.74615444 0,0" stroke="none" fill="#151515"></polygon></g></g></svg>