<?xml version="1.0" encoding="UTF-8"?><svg version="1.1" width="123px" height="40px" viewBox="0 0 123.0 40.0" xmlns="http://www.w3.org/2000/svg" xmlns:xlink="http://www.w3.org/1999/xlink"><defs><clipPath id="i0"><path d="M1,0 L1,40 L0,40 L0,0 L1,0 Z"></path></clipPath><clipPath id="i1"><path d="M122,0 L122,3 L0,3 L0,0 L122,0 Z"></path></clipPath><clipPath id="i2"><path d="M16,0 L16,40 L0,40 L0,0 L16,0 Z"></path></clipPath><clipPath id="i3"><path d="M91,0 L91,8 L0,8 L0,0 L91,0 Z"></path></clipPath></defs><g clip-path="url(#i0)"><polygon points="0,0 1,0 1,40 0,40 0,0" stroke="none" fill="#3B3F41"></polygon></g><g transform="translate(16.0 8.0)"><text transform="translate(0.0 16.0)" font-family="RedHatText-Regular, Red Hat Text" font-size="16.0" font-weight="normal" fill="#73BCF7" text-anchor="left" line-spacing="24.0">Subnav item</text></g><g transform="translate(1.0 37.0)"><g clip-path="url(#i1)"><polygon points="0,0 122,0 122,3 0,3 0,0" stroke="none" fill="#73BCF7"></polygon></g></g><g clip-path="url(#i2)"><polygon points="0,0 16,0 16,40 0,40 0,0" stroke="none" fill="rgba(62, 156, 52, 0.9)"></polygon></g><g clip-path="url(#i2)"><polygon points="0,0 16,0 16,40 0,40 0,0 0,0" stroke="#418A37" stroke-width="2" fill="none" stroke-miterlimit="5"></polygon></g><g transform="translate(107.0 0.0)"><g clip-path="url(#i2)"><polygon points="0,0 16,0 16,40 0,40 0,0" stroke="none" fill="rgba(62, 156, 52, 0.9)"></polygon></g><g clip-path="url(#i2)"><polygon points="0,0 16,0 16,40 0,40 0,0 0,0" stroke="#418A37" stroke-width="2" fill="none" stroke-miterlimit="5"></polygon></g></g><g transform="translate(16.0 0.0)"><g clip-path="url(#i3)"><polygon points="0,0 91,0 91,8 0,8 0,0" stroke="none" fill="rgba(146, 211, 0, 0.9)"></polygon></g><g clip-path="url(#i3)"><polygon points="0,0 91,0 91,8 0,8 0,0 0,0" stroke="#7EB200" stroke-width="2" fill="none" stroke-miterlimit="5"></polygon></g></g><g transform="translate(16.0 32.0)"><g clip-path="url(#i3)"><polygon points="0,0 91,0 91,8 0,8 0,0" stroke="none" fill="rgba(146, 211, 0, 0.9)"></polygon></g><g clip-path="url(#i3)"><polygon points="0,0 91,0 91,8 0,8 0,0 0,0" stroke="#7EB200" stroke-width="2" fill="none" stroke-miterlimit="5"></polygon></g></g></svg>