<?xml version="1.0" encoding="UTF-8"?><svg version="1.1" width="310px" height="53px" viewBox="0 0 310.0 53.0" xmlns="http://www.w3.org/2000/svg" xmlns:xlink="http://www.w3.org/1999/xlink"><defs><clipPath id="i0"><path d="M310,0 L310,53 L0,53 L0,0 L310,0 Z"></path></clipPath><clipPath id="i1"><path d="M294,0 L294,21 L0,21 L0,0 L294,0 Z"></path></clipPath><clipPath id="i2"><path d="M16,0 L16,53 L0,53 L0,0 L16,0 Z"></path></clipPath><clipPath id="i3"><path d="M294,0 L294,16 L0,16 L0,0 L294,0 Z"></path></clipPath></defs><g clip-path="url(#i0)"><polygon points="0,0 310,0 310,53 0,53 0,0" stroke="none" fill="#FFFFFF"></polygon></g><g transform="translate(16.0 16.0)"><g clip-path="url(#i1)"><text transform="translate(0.0 14.0)" font-family="RedHatText-Regular, Red Hat Text" font-size="14.0" font-weight="normal" fill="#696E73" text-anchor="left" line-spacing="21.0">Caption</text></g></g><g clip-path="url(#i2)"><polygon points="0,0 16,0 16,53 0,53 0,0" stroke="none" fill="rgba(62, 156, 52, 0.9)"></polygon></g><g clip-path="url(#i2)"><polygon points="0,0 16,0 16,53 0,53 0,0 0,0" stroke="#418A37" stroke-width="2" fill="none" stroke-miterlimit="5"></polygon></g><g transform="translate(16.0 0.0)"><g clip-path="url(#i3)"><polygon points="0,0 294,0 294,16 0,16 0,0" stroke="none" fill="rgba(62, 156, 52, 0.9)"></polygon></g><g clip-path="url(#i3)"><polygon points="0,0 294,0 294,16 0,16 0,0 0,0" stroke="#418A37" stroke-width="2" fill="none" stroke-miterlimit="5"></polygon></g></g><g transform="translate(16.0 37.0)"><g clip-path="url(#i3)"><polygon points="0,0 294,0 294,16 0,16 0,0" stroke="none" fill="rgba(62, 156, 52, 0.9)"></polygon></g><g clip-path="url(#i3)"><polygon points="0,0 294,0 294,16 0,16 0,0 0,0" stroke="#418A37" stroke-width="2" fill="none" stroke-miterlimit="5"></polygon></g></g></svg>