<?xml version="1.0" encoding="UTF-8"?><svg version="1.1" width="24px" height="24px" viewBox="0 0 24.0 24.0" xmlns="http://www.w3.org/2000/svg" xmlns:xlink="http://www.w3.org/1999/xlink"><defs><clipPath id="i0"><path d="M1.87499553,7.49998212 C2.08199577,7.49998212 2.24999464,7.66798099 2.24999464,7.87498122 L2.24999464,9.37497765 C2.24999464,9.58197789 2.08199577,9.74997675 1.87499553,9.74997675 L0.374999106,9.74997675 C0.167998867,9.74997675 0,9.58197789 0,9.37497765 L0,7.87498122 C0,7.66798099 0.167998867,7.49998212 0.374999106,7.49998212 Z M11.6249723,7.87498122 C11.8319725,7.87498122 11.9999714,8.04298009 11.9999714,8.24998033 L11.9999714,8.99997854 C11.9999714,9.20697878 11.8319725,9.37498122 11.6249723,9.37498122 L4.12499017,9.37498122 C3.91798993,9.37498122 3.74999106,9.20697878 3.74999106,8.99997854 L3.74999106,8.24998033 C3.74999106,8.04298009 3.91798993,7.87498122 4.12499017,7.87498122 Z M1.87499553,3.74999106 C2.08199577,3.74999106 2.24999464,3.91798993 2.24999464,4.12499017 L2.24999464,5.62498659 C2.24999464,5.83198683 2.08199577,5.99998569 1.87499553,5.99998569 L0.374999106,5.99998569 C0.167998867,5.99998569 0,5.83198683 0,5.62498659 L0,4.12499017 C0,3.91798993 0.167998867,3.74999106 0.374999106,3.74999106 Z M11.6249723,4.12499017 C11.8319725,4.12499017 11.9999714,4.29298903 11.9999714,4.49998927 L11.9999714,5.24998748 C11.9999714,5.45698772 11.8319725,5.62499017 11.6249723,5.62499017 L4.12499017,5.62499017 C3.91798993,5.62499017 3.74999106,5.45698772 3.74999106,5.24998748 L3.74999106,4.49998927 C3.74999106,4.29298903 3.91798993,4.12499017 4.12499017,4.12499017 Z M1.87499553,0 C2.08199577,0 2.24999464,0.167998867 2.24999464,0.374999106 L2.24999464,1.87499553 C2.24999464,2.08199577 2.08199577,2.24999464 1.87499553,2.24999464 L0.374999106,2.24999464 C0.167998867,2.24999464 0,2.08199577 0,1.87499553 L0,0.374999106 C0,0.167998867 0.167998867,0 0.374999106,0 Z M11.6249723,0.374999106 C11.8319725,0.374999106 11.9999714,0.542997973 11.9999714,0.749998212 L11.9999714,1.49999642 C11.9999714,1.70699666 11.8319725,1.87499911 11.6249723,1.87499911 L4.12499017,1.87499911 C3.91798993,1.87499911 3.74999106,1.70699666 3.74999106,1.49999642 L3.74999106,0.749998212 C3.74999106,0.542997973 3.91798993,0.374999106 4.12499017,0.374999106 Z"></path></clipPath></defs><g transform="translate(5.999999999999999 7.0)"><g clip-path="url(#i0)"><polygon points="0,0 11.9999714,0 11.9999714,9.74997675 0,9.74997675 0,0" stroke="none" fill="#151515"></polygon></g></g></svg>