<?xml version="1.0" encoding="UTF-8"?><svg version="1.1" width="24px" height="24px" viewBox="0 0 24.0 24.0" xmlns="http://www.w3.org/2000/svg" xmlns:xlink="http://www.w3.org/1999/xlink"><defs><clipPath id="i0"><path d="M9.68161765,0 C10.5716912,0 11.2952206,0.726838235 11.2952206,1.61691176 C11.2952206,2.50698529 10.5716912,3.23051471 9.68161765,3.23051471 C9.39926471,3.23051471 9.13455882,3.15661765 8.90514706,3.03088235 L7.94669118,4.00919118 C8.27647059,4.47022059 8.47058824,5.03602941 8.47058824,5.64705882 C8.47058824,5.96360294 8.41875,6.26801471 8.32279412,6.55257353 L9.14117647,7.10955882 C9.34522059,7.24522059 9.41360294,7.50992647 9.29558824,7.69852941 C9.17757353,7.88492647 8.91286765,7.92352941 8.71102941,7.78455882 L7.95661765,7.27058824 C7.46911765,7.96433824 6.67610294,8.42867647 5.77389706,8.46838235 L5.70882353,9.26139706 C6.08713235,9.42242647 6.35294118,9.79742647 6.35294118,10.2352941 C6.35294118,10.8198529 5.87867348,11.2941176 5.29411765,11.2941176 C4.70955882,11.2941176 4.23529412,10.8198529 4.23529412,10.2352941 C4.23529412,9.75110294 4.56066176,9.34301471 5.00514706,9.21617647 L5.07132353,8.41102941 C4.29154412,8.25 3.62977941,7.76691176 3.23051471,7.10735294 L2.94816176,7.25404412 C2.73860294,7.35441176 2.49375,7.27389706 2.40882353,7.07205882 C2.32389706,6.87022059 2.42426471,6.62095588 2.63602941,6.51727941 L2.91727941,6.37169118 C2.85661765,6.14007353 2.82352941,5.89742647 2.82352941,5.64705882 C2.82352941,4.75588235 3.23602941,3.96176471 3.88125,3.44448529 L3.63529412,3.12242647 C3.48970588,2.92058824 3.51507353,2.64816176 3.69375,2.51691176 C3.87022059,2.38345588 4.13713235,2.44080882 4.28602941,2.64264706 L4.58051471,3.03198529 C4.90919118,2.89742647 5.26985294,2.82352941 5.64705882,2.82352941 C6.30551471,2.82352941 6.90992647,3.04852941 7.38970588,3.42463235 L8.31727941,2.47610294 C8.15845588,2.22573529 8.06801471,1.93125 8.06801471,1.61360294 C8.06801471,0.723529412 8.79154412,0 9.68161765,0 Z M5.29411765,9.70588235 C5.00183824,9.70588235 4.76470588,9.94301471 4.76470588,10.2352941 C4.76470588,10.5275735 5.00183824,10.7647059 5.29411765,10.7647059 C5.58639706,10.7647059 5.82352941,10.5275735 5.82352941,10.2352941 C5.82352941,9.94301471 5.58639706,9.70588235 5.29411765,9.70588235 Z M11.6459559,7.85625 C11.8819853,8.09227941 12,8.40220588 12,8.71213235 C12,9.02205882 11.8819853,9.33088235 11.6459559,9.56801471 C11.1738971,10.0400735 10.4073529,10.0400735 9.93529412,9.56801471 C9.46323529,9.09485294 9.46323529,8.32941176 9.93529412,7.85625 C10.4073529,7.38419118 11.1738971,7.38419118 11.6459559,7.85625 Z M1.05882353,6.70588235 C1.64338235,6.70588235 2.11764706,7.18014706 2.11764706,7.76470588 C2.11764706,8.34926471 1.64338235,8.82352941 1.05882353,8.82352941 C0.474264706,8.82352941 0,8.34926471 0,7.76470588 C0,7.18014706 0.474264706,6.70588235 1.05882353,6.70588235 Z M5.64705882,4.23529412 C4.86727941,4.23529412 4.23529412,4.86727941 4.23529412,5.64705882 C4.23529412,6.42683824 4.86727941,7.05882353 5.64705882,7.05882353 C6.42794118,7.05882353 7.05882353,6.42683824 7.05882353,5.64705882 C7.05882353,4.86727941 6.42683824,4.23529412 5.64705882,4.23529412 Z M9.68161765,0.756617647 C9.20735294,0.756617647 8.82463235,1.13933824 8.82463235,1.61360294 C8.82463235,2.08786765 9.20735294,2.47058824 9.68161765,2.47058824 C10.1558824,2.47058824 10.5386029,2.08786765 10.5386029,1.61360294 C10.5386029,1.13933824 10.1558824,0.756617647 9.68161765,0.756617647 Z M2.82352941,0.0253676471 C3.49191176,0.0253676471 4.03345588,0.566911765 4.03345588,1.23529412 C4.03345588,1.90367647 3.49191176,2.44522059 2.82352941,2.44522059 C2.15514706,2.44522059 1.61360294,1.90367647 1.61360294,1.23529412 C1.61360294,0.566911765 2.15514706,0.0253676471 2.82352941,0.0253676471 Z"></path></clipPath></defs><g transform="translate(6.0 5.999999999999999)"><g clip-path="url(#i0)"><polygon points="0,0 12,0 12,11.2941176 0,11.2941176 0,0" stroke="none" fill="#151515"></polygon></g></g></svg>