<?xml version="1.0" encoding="UTF-8"?>
<svg width="24px" height="24px" viewBox="0 0 24 24" version="1.1" xmlns="http://www.w3.org/2000/svg" xmlns:xlink="http://www.w3.org/1999/xlink">
    <title></title>
    <g id="Icons" stroke="none" stroke-width="1" fill="none" fill-rule="evenodd">
        <g id="Icons/2.-Size-sm/View-Type/table" fill="#151515">
            <path d="M16.8749741,17.499975 C17.4962952,17.499975 17.9999714,16.9962988 17.9999714,16.3749776 L17.9999714,8.12499732 C17.9999714,7.50367617 17.4962952,7 16.8749741,7 L7.12499732,7 C6.50367617,7 6,7.50367617 6,8.12499732 L6,16.3749776 C6,16.9962988 6.50367617,17.499975 7.12499732,17.499975 L16.8749741,17.499975 Z M11.2499875,12.2499875 L7.49999642,12.2499875 L7.49999642,9.99999285 L11.2499875,9.99999285 L11.2499875,12.2499875 Z M16.499975,12.2499875 L12.7499839,12.2499875 L12.7499839,9.99999285 L16.499975,9.99999285 L16.499975,12.2499875 Z M11.2499875,15.9999785 L7.49999642,15.9999785 L7.49999642,13.7499839 L11.2499875,13.7499839 L11.2499875,15.9999785 Z M16.499975,15.9999785 L12.7499839,15.9999785 L12.7499839,13.7499839 L16.499975,13.7499839 L16.499975,15.9999785 Z" id="table"></path>
        </g>
    </g>
</svg>