<?xml version="1.0" encoding="UTF-8"?><svg version="1.1" width="24px" height="24px" viewBox="0 0 24.0 24.0" xmlns="http://www.w3.org/2000/svg" xmlns:xlink="http://www.w3.org/1999/xlink"><defs><clipPath id="i0"><path d="M6.74998391,0 C10.4779337,0 13.4999678,3.02203412 13.4999678,6.74998391 C13.4999678,7.98747638 13.1659842,9.14669145 12.5845113,10.1437212 C12.453019,10.3691922 12.2024627,10.499975 11.9413778,10.499975 L1.55859003,10.499975 C1.29750515,10.499975 1.0469488,10.3691922 0.915456497,10.1437212 C0.333983579,9.14669145 0,7.98747638 0,6.74998391 C0,3.02203412 3.02203412,0 6.74998391,0 Z M8.80309486,2.09133413 C8.50708268,1.99101546 8.18928101,2.15249121 8.0915487,2.44687832 L6.65389954,6.75959692 C5.87107975,6.81022546 5.24998748,7.45450341 5.24998748,8.24998033 C5.24998748,8.52466077 5.3292033,8.77849012 5.45810924,8.99997854 L8.04185857,8.99997854 C8.17076452,8.77849012 8.24998748,8.52466077 8.24998748,8.24998033 C8.24998748,7.79388858 8.04208745,7.39053109 7.72124166,7.11537 L9.15863905,2.80288028 C9.25662313,2.50826428 9.09771085,2.1895242 8.80309486,2.09133413 Z M2.24999464,6.74998391 C1.83585683,6.74998391 1.49999642,7.08584431 1.49999642,7.49998212 C1.49999642,7.91411993 1.83585683,8.24998391 2.24999464,8.24998391 C2.66413244,8.24998391 2.99999642,7.91411993 2.99999642,7.49998212 C2.99999642,7.08584431 2.66413244,6.74998391 2.24999464,6.74998391 Z M11.2499732,6.74998391 C10.8358354,6.74998391 10.499975,7.08584431 10.499975,7.49998212 C10.499975,7.91411993 10.8358354,8.24998391 11.2499732,8.24998391 C11.664111,8.24998391 11.999975,7.91411993 11.999975,7.49998212 C11.999975,7.08584431 11.664111,6.74998391 11.2499732,6.74998391 Z M10.1249759,3.00022173 C10.0331029,3.00022173 9.9473182,3.022263 9.86599668,3.05249822 L9.50223565,4.14350666 C9.63537589,4.35304748 9.85826049,4.49998927 10.1249759,4.50022173 C10.5391137,4.50022173 10.8749741,4.16435775 10.8749741,3.75021994 C10.8749741,3.33608213 10.5391137,3.00022173 10.1249759,3.00022173 Z M3.37499195,2.99999285 C2.96085415,2.99999285 2.62499374,3.33585325 2.62499374,3.74999106 C2.62499374,4.16412887 2.96085415,4.49999285 3.37499195,4.49999285 C3.78912976,4.49999285 4.12499374,4.16412887 4.12499374,3.74999106 C4.12499374,3.33585325 3.78912976,2.99999285 3.37499195,2.99999285 Z M6.74998391,1.49999642 C6.3358461,1.49999642 6.00021458,1.83585683 6.00021458,2.24999464 C6.00021458,2.66413244 6.33607498,2.99999642 6.75021279,2.99999642 C6.90653871,2.99999642 7.04340972,2.94094147 7.16366395,2.8591393 L7.37975078,2.21062705 C7.39872504,2.15342962 7.43459073,2.10726426 7.46061454,2.05430113 C7.372953,1.73741499 7.09474779,1.49999642 6.74998391,1.49999642 Z"></path></clipPath></defs><g transform="translate(5.000000000000001 7.0)"><g clip-path="url(#i0)"><polygon points="0,0 13.4999678,0 13.4999678,10.499975 0,10.499975 0,0" stroke="none" fill="#151515"></polygon></g></g></svg>