<?xml version="1.0" encoding="UTF-8"?><svg version="1.1" width="24px" height="24px" viewBox="0 0 24.0 24.0" xmlns="http://www.w3.org/2000/svg" xmlns:xlink="http://www.w3.org/1999/xlink"><defs><clipPath id="i0"><path d="M5.06248793,5.62498659 C5.37314851,5.62498659 5.62498659,5.87682467 5.62498659,6.18748525 L5.62498659,9.93747631 C5.62498659,10.2481369 5.37314851,10.499975 5.06248793,10.499975 L0.562498659,10.499975 C0.251838084,10.499975 0,10.2481369 0,9.93747631 L0,6.18748525 C0,5.87682467 0.251838084,5.62498659 0.562498659,5.62498659 Z M11.4374727,5.62498659 C11.7481333,5.62498659 11.9999714,5.87682467 11.9999714,6.18748525 L11.9999714,9.93747631 C11.9999714,10.2481369 11.7481333,10.499975 11.4374727,10.499975 L6.93748346,10.499975 C6.62682288,10.499975 6.3749848,10.2481369 6.3749848,9.93747631 L6.3749848,6.18748525 C6.3749848,5.87682467 6.62682288,5.62498659 6.93748346,5.62498659 Z M11.4374727,0 C11.7481333,0 11.9999714,0.251838084 11.9999714,0.562498659 L11.9999714,4.31248972 C11.9999714,4.62315029 11.7481333,4.87498838 11.4374727,4.87498838 L6.93748346,4.87498838 C6.62682288,4.87498838 6.3749848,4.62315029 6.3749848,4.31248972 L6.3749848,0.562498659 C6.3749848,0.251838084 6.62682288,0 6.93748346,0 Z M5.06248793,0 C5.37314851,0 5.62498659,0.251838084 5.62498659,0.562498659 L5.62498659,4.31248972 C5.62498659,4.62315029 5.37314851,4.87498838 5.06248793,4.87498838 L0.562498659,4.87498838 C0.251838084,4.87498838 0,4.62315029 0,4.31248972 L0,0.562498659 C0,0.251838084 0.251838084,0 0.562498659,0 Z"></path></clipPath></defs><g transform="translate(5.999999999999999 7.0)"><g clip-path="url(#i0)"><polygon points="0,0 11.9999714,0 11.9999714,10.499975 0,10.499975 0,0" stroke="none" fill="#151515"></polygon></g></g></svg>