<?xml version="1.0" encoding="UTF-8"?><svg version="1.1" width="24px" height="24px" viewBox="0 0 24.0 24.0" xmlns="http://www.w3.org/2000/svg" xmlns:xlink="http://www.w3.org/1999/xlink"><defs><clipPath id="i0"><path d="M2.93748537,7.49998212 C3.24814594,7.49998212 3.49998403,7.7518202 3.49998403,8.06248078 L3.49998403,9.93747631 C3.49998403,10.2481369 3.24814594,10.4999821 2.93748537,10.4999821 L0.562498659,10.4999821 C0.251838084,10.4999821 0,10.2481369 0,9.93747631 L0,8.06248078 C0,7.7518202 0.251838084,7.49998212 0.562498659,7.49998212 Z M11.4374727,7.49998212 C11.7481333,7.49998212 11.9999714,7.7518202 11.9999714,8.06248078 L11.9999714,9.93747631 C11.9999714,10.2481369 11.7481333,10.4999821 11.4374727,10.4999821 L9.06248602,10.4999821 C8.75182545,10.4999821 8.49998736,10.2481369 8.49998736,9.93747631 L8.49998736,8.06248078 C8.49998736,7.7518202 8.75182545,7.49998212 9.06248602,7.49998212 Z M7.1874676,7.49998212 C7.49812818,7.49998212 7.74996626,7.7518202 7.74996626,8.06248078 L7.74996626,9.93747631 C7.74996626,10.2481369 7.49812818,10.4999821 7.1874676,10.4999821 L4.8124809,10.4999821 C4.50182032,10.4999821 4.24998224,10.2481369 4.24998224,9.93747631 L4.24998224,8.06248078 C4.24998224,7.7518202 4.50182032,7.49998212 4.8124809,7.49998212 Z M7.18749049,3.74999106 C7.49815107,3.74999106 7.74998224,4.00182914 7.74998224,4.31248972 L7.74998224,6.18748525 C7.74998224,6.49814582 7.49815107,6.74999106 7.1874676,6.74999106 L4.8124809,6.74999106 C4.50182032,6.74999106 4.24998224,6.49814582 4.24998224,6.18748525 L4.24998224,4.31248972 C4.24998224,4.00182914 4.50182032,3.74999106 4.8124809,3.74999106 Z M2.93748537,3.74999106 C3.24814594,3.74999106 3.49998403,4.00182914 3.49998403,4.31248972 L3.49998403,6.18748525 C3.49998403,6.49814582 3.24814594,6.74999106 2.93748537,6.74999106 L0.562498659,6.74999106 C0.251838084,6.74999106 0,6.49814582 0,6.18748525 L0,4.31248972 C0,4.00182914 0.251838084,3.74999106 0.562498659,3.74999106 Z M11.4374727,3.74999106 C11.7481333,3.74999106 11.9999714,4.00182914 11.9999714,4.31248972 L11.9999714,6.18748525 C11.9999714,6.49814582 11.7481333,6.74999106 11.4374727,6.74999106 L9.06248602,6.74999106 C8.75182545,6.74999106 8.49998736,6.49814582 8.49998736,6.18748525 L8.49998736,4.31248972 C8.49998736,4.00182914 8.75182545,3.74999106 9.06248602,3.74999106 Z M2.93748537,0 C3.24814594,0 3.49998403,0.251838084 3.49998403,0.562498659 L3.49998403,2.43749419 C3.49998403,2.74815476 3.24814594,3 2.93748537,3 L0.562498659,3 C0.251838084,3 0,2.74815476 0,2.43749419 L0,0.562498659 C0,0.251838084 0.251838084,0 0.562498659,0 Z M11.4374727,0 C11.7481333,0 11.9999714,0.251838084 11.9999714,0.562498659 L11.9999714,2.43749419 C11.9999714,2.74815476 11.7481333,3 11.4374727,3 L9.06248602,3 C8.75182545,3 8.49998736,2.74815476 8.49998736,2.43749419 L8.49998736,0.562498659 C8.49998736,0.251838084 8.75182545,0 9.06248602,0 Z M7.18749049,0 C7.49815107,0 7.74998224,0.251838084 7.74998224,0.562498659 L7.74998224,2.43749419 C7.74998224,2.74815476 7.49815107,3 7.1874676,3 L4.8124809,3 C4.50182032,3 4.24998224,2.74815476 4.24998224,2.43749419 L4.24998224,0.562498659 C4.24998224,0.251838084 4.50182032,0 4.8124809,0 Z"></path></clipPath></defs><g transform="translate(5.999999999999999 7.0)"><g clip-path="url(#i0)"><polygon points="0,0 11.9999714,0 11.9999714,10.4999821 0,10.4999821 0,0" stroke="none" fill="#151515"></polygon></g></g></svg>