<?xml version="1.0" encoding="UTF-8"?><svg version="1.1" width="106px" height="145px" viewBox="0 0 106.0 145.0" xmlns="http://www.w3.org/2000/svg" xmlns:xlink="http://www.w3.org/1999/xlink"><defs><clipPath id="i0"><path d="M106,0 L106,145 L0,145 L0,0 L106,0 Z"></path></clipPath><clipPath id="i1"><path d="M3,0 L3,145 L0,145 L0,0 L3,0 Z"></path></clipPath><clipPath id="i2"><path d="M74,0 L74,129 L0,129 L0,0 L74,0 Z"></path></clipPath><clipPath id="i3"><path d="M74,0 L74,8 L0,8 L0,0 L74,0 Z"></path></clipPath><clipPath id="i4"><path d="M16,0 L16,145 L0,145 L0,0 L16,0 Z"></path></clipPath></defs><g clip-path="url(#i0)"><polygon points="0,0 106,0 106,145 0,145 0,0" stroke="none" fill="#FFFFFF"></polygon></g><g clip-path="url(#i1)"><polygon points="0,0 3,0 3,145 0,145 0,0" stroke="none" fill="#0066CC"></polygon></g><g transform="translate(16.0 8.0)"><g clip-path="url(#i2)"><text transform="translate(0.0 14.0)"><tspan x="0px" y="0px" font-family="RedHatText-Regular, Red Hat Text" font-size="14.0" font-weight="normal" fill="#696E73" text-anchor="left" line-spacing="21.0">ctrl+enter </tspan><tspan x="0px" y="21px" font-family="RedHatText-Regular, Red Hat Text" font-size="14.0" font-weight="normal" fill="#696E73" text-anchor="left" line-spacing="21.0">to add lines </tspan><tspan x="0px" y="42px" font-family="RedHatText-Regular, Red Hat Text" font-size="14.0" font-weight="normal" fill="#696E73" text-anchor="left" line-spacing="21.0">in override.</tspan><tspan x="0px" y="63px" font-family="RedHatText-Regular, Red Hat Text" font-size="14.0" font-weight="normal" fill="#696E73" text-anchor="left" line-spacing="21.0">Default </tspan><tspan x="0px" y="84px" font-family="RedHatText-Regular, Red Hat Text" font-size="14.0" font-weight="normal" fill="#696E73" text-anchor="left" line-spacing="21.0">height is </tspan><tspan x="0px" y="105px" font-family="RedHatText-Regular, Red Hat Text" font-size="14.0" font-weight="normal" fill="#696E73" text-anchor="left" line-spacing="21.0">“fixed”</tspan></text></g></g><g transform="translate(16.0 0.0)"><g clip-path="url(#i3)"><polygon points="0,0 74,0 74,8 0,8 0,0" stroke="none" fill="rgba(146, 211, 0, 0.9)"></polygon></g><g clip-path="url(#i3)"><polygon points="0,0 74,0 74,8 0,8 0,0 0,0" stroke="#7EB200" stroke-width="2" fill="none" stroke-miterlimit="5"></polygon></g></g><g transform="translate(16.0 137.0)"><g clip-path="url(#i3)"><polygon points="0,0 74,0 74,8 0,8 0,0" stroke="none" fill="rgba(146, 211, 0, 0.9)"></polygon></g><g clip-path="url(#i3)"><polygon points="0,0 74,0 74,8 0,8 0,0 0,0" stroke="#7EB200" stroke-width="2" fill="none" stroke-miterlimit="5"></polygon></g></g><g clip-path="url(#i4)"><polygon points="0,0 16,0 16,145 0,145 0,0" stroke="none" fill="rgba(62, 156, 52, 0.9)"></polygon></g><g clip-path="url(#i4)"><polygon points="0,0 16,0 16,145 0,145 0,0 0,0" stroke="#418A37" stroke-width="2" fill="none" stroke-miterlimit="5"></polygon></g><g transform="translate(90.0 0.0)"><g clip-path="url(#i4)"><polygon points="0,0 16,0 16,145 0,145 0,0" stroke="none" fill="rgba(62, 156, 52, 0.9)"></polygon></g><g clip-path="url(#i4)"><polygon points="0,0 16,0 16,145 0,145 0,0 0,0" stroke="#418A37" stroke-width="2" fill="none" stroke-miterlimit="5"></polygon></g></g></svg>