<?xml version="1.0" encoding="UTF-8"?><svg version="1.1" width="343px" height="91px" viewBox="0 0 343.0 91.0" xmlns="http://www.w3.org/2000/svg" xmlns:xlink="http://www.w3.org/1999/xlink"><defs><filter id="i0" x="-2.01729107%" y="-6.31578947%" filterUnits="userSpaceOnUse" width="102.881844%" height="110.526316%"><feGaussianBlur stdDeviation="1" in="SourceAlpha" result="i1"></feGaussianBlur><feOffset dx="0" dy="1" in="i1" result="i2"></feOffset><feColorMatrix values="0 0 0 0.0 0 0 0 0 0.0 0 0 0 0 0.0 0 0 0 0 0.12 0" type="matrix" in="i2"></feColorMatrix></filter><clipPath id="i3"><path d="M343,0 L343,91 L0,91 L0,0 L343,0 Z"></path></clipPath><clipPath id="i4"><path d="M9.05097583,0.0296855352 C9.35142038,-0.0508183388 9.67199091,0.0350782771 9.89193158,0.255018959 L15.4884982,5.85158562 C15.6561055,6.01252385 15.7508477,6.23484337 15.7508477,6.46720796 C15.7508477,6.69957255 15.6561055,6.92189206 15.4884982,7.08283029 L9.89193158,12.679397 C9.5495258,13.0135343 9.0030927,13.0135343 8.66068691,12.679397 C8.49307967,12.5184587 8.3983375,12.2961392 8.3983375,12.0637746 C8.3983375,11.83141 8.49307967,11.6090905 8.66068691,11.4481523 L12.760172,7.33467579 L0.88145925,7.33467579 C0.400054802,7.33473644 0.00764133668,6.94855176 0,6.46720796 C0,6.23343043 0.0928677615,6.00922782 0.258173437,5.84392214 C0.423479112,5.67861647 0.647681722,5.58574871 0.88145925,5.58574871 L12.760172,5.58574871 L8.66068691,1.48626362 C8.44074623,1.26632295 8.35484962,0.945752428 8.43535349,0.645307874 C8.51585737,0.34486332 8.75053128,0.110189409 9.05097583,0.0296855352 Z"></path></clipPath><clipPath id="i5"><path d="M24,0 L24,67 L0,67 L0,0 L24,0 Z"></path></clipPath><clipPath id="i6"><path d="M16,0 L16,67 L0,67 L0,0 L16,0 Z"></path></clipPath><clipPath id="i7"><path d="M303,0 L303,16 L0,16 L0,0 L303,0 Z"></path></clipPath><clipPath id="i8"><path d="M343,0 L343,24 L0,24 L0,0 L343,0 Z"></path></clipPath></defs><polygon points="0,0 343,0 343,91 0,91 0,0 0,0" stroke="none" fill="#000000" filter="url(#i0)"></polygon><g clip-path="url(#i3)"><polygon points="0,0 343,0 343,91 0,91 0,0" stroke="none" fill="#FFFFFF"></polygon><g transform="translate(0.0 -1.0)"><polygon points="343,91 343,92 0,92 0,91 343,91 343,91" stroke="none" fill="#D2D2D2"></polygon></g><g transform="translate(3.0 0.0)"><polygon points="0,0 0,91 -3,91 -3,0 0,0 0,0" stroke="none" fill="#0066CC"></polygon></g></g><g transform="translate(24.0 40.0)"><text transform="translate(0.0 18.0)" font-family="RedHatDisplay-Bold, Red Hat Display" font-size="18.0" font-weight="bold" fill="#0066CC" text-anchor="left" line-spacing="27.0">Call to action</text><g transform="translate(124.0 6.0)"><g transform="translate(0.04152539041454251 1.8449999999999829)"><g clip-path="url(#i4)"><polygon points="0,1.11022302e-16 15.7508477,1.11022302e-16 15.7508477,12.93 0,12.93 0,1.11022302e-16" stroke="none" fill="#0066CC"></polygon></g></g></g></g><g transform="translate(24.0 0.0)"><text transform="translate(0.0 16.0)" font-family="RedHatText-Regular, Red Hat Text" font-size="16.0" font-weight="normal" fill="#151515" text-anchor="left" line-spacing="24.0">Content</text></g><g clip-path="url(#i5)"><polygon points="0,0 24,0 24,67 0,67 0,0" stroke="none" fill="rgba(0, 121, 135, 0.9)"></polygon></g><g clip-path="url(#i5)"><polygon points="0,0 24,0 24,67 0,67 0,0 0,0" stroke="#09707A" stroke-width="2" fill="none" stroke-miterlimit="5"></polygon></g><g transform="translate(327.0 0.0)"><g clip-path="url(#i6)"><polygon points="0,0 16,0 16,67 0,67 0,0" stroke="none" fill="rgba(62, 156, 52, 0.9)"></polygon></g><g clip-path="url(#i6)"><polygon points="0,0 16,0 16,67 0,67 0,0 0,0" stroke="#418A37" stroke-width="2" fill="none" stroke-miterlimit="5"></polygon></g></g><g transform="translate(24.0 24.0)"><g clip-path="url(#i7)"><polygon points="0,0 303,0 303,16 0,16 0,0" stroke="none" fill="rgba(62, 156, 52, 0.9)"></polygon></g><g clip-path="url(#i7)"><polygon points="0,0 303,0 303,16 0,16 0,0 0,0" stroke="#418A37" stroke-width="2" fill="none" stroke-miterlimit="5"></polygon></g></g><g transform="translate(0.0 67.0)"><g clip-path="url(#i8)"><polygon points="0,0 343,0 343,24 0,24 0,0" stroke="none" fill="rgba(0, 121, 135, 0.9)"></polygon></g><g clip-path="url(#i8)"><polygon points="0,0 343,0 343,24 0,24 0,0 0,0" stroke="#09707A" stroke-width="2" fill="none" stroke-miterlimit="5"></polygon></g></g></svg>