<?xml version="1.0" encoding="UTF-8"?><svg version="1.1" width="56px" height="36px" viewBox="0 0 56.0 36.0" xmlns="http://www.w3.org/2000/svg" xmlns:xlink="http://www.w3.org/1999/xlink"><defs><clipPath id="i0"><path d="M56,0 L56,36 L0,36 L0,0 L56,0 Z"></path></clipPath><clipPath id="i1"><path d="M8.66574605,0 C9.22201914,0 9.50012517,0.671873398 9.10638831,1.06561025 L5.08762958,5.08748177 C4.84388627,5.33122508 4.44700611,5.33122508 4.2032628,5.08748177 L0.184534585,1.06561025 C-0.209232787,0.671873398 0.0689037567,0 0.625146327,0 Z"></path></clipPath><clipPath id="i2"><path d="M16,0 L16,16 L0,16 L0,0 L16,0 Z"></path></clipPath><clipPath id="i3"><path d="M56,0 L56,6 L0,6 L0,0 L56,0 Z"></path></clipPath></defs><g clip-path="url(#i0)"><g transform="translate(1.0 1.0)"><polygon points="55,-1 55,0 0,0 0,35 -1,35 -1,-1 55,-1 55,-1" stroke="none" fill="#EDEDED"></polygon></g><g transform="translate(-1.0 0.0)"><polygon points="57,0 57,36 56,36 56,0 57,0 57,0" stroke="none" fill="#EDEDED"></polygon></g><g transform="translate(0.0 -2.0)"><polygon points="56,36 56,38 0,38 0,36 56,36 56,36" stroke="none" fill="#0065CB"></polygon></g></g><g transform="translate(32.0 6.0)"><g transform="translate(7.0 9.0)"><g clip-path="url(#i1)"><polygon points="5.04041253e-14,0 9.29090831,0 9.29090831,5.27028925 5.04041253e-14,5.27028925 5.04041253e-14,0" stroke="none" fill="#151515"></polygon></g></g></g><g transform="translate(0.0 6.0)"><g transform="translate(8.0 4.0)"><g clip-path="url(#i2)"><polygon points="0,0 16,0 16,16 0,16 0,0" stroke="none" fill="#FFFFFF"></polygon><polygon points="0,0 16,0 16,16 0,16 0,0 0,0" stroke="#696E73" stroke-width="2" fill="none" stroke-miterlimit="5"></polygon></g></g></g><g clip-path="url(#i3)"><polygon points="0,0 56,0 56,6 0,6 0,0" stroke="none" fill="rgba(243, 213, 59, 0.9)"></polygon></g><g clip-path="url(#i3)"><polygon points="0,0 56,0 56,6 0,6 0,0 0,0" stroke="#CAB534" stroke-width="2" fill="none" stroke-miterlimit="5"></polygon></g><g transform="translate(0.0 30.0)"><g clip-path="url(#i3)"><polygon points="0,0 56,0 56,6 0,6 0,0" stroke="none" fill="rgba(243, 213, 59, 0.9)"></polygon></g><g clip-path="url(#i3)"><polygon points="0,0 56,0 56,6 0,6 0,0 0,0" stroke="#CAB534" stroke-width="2" fill="none" stroke-miterlimit="5"></polygon></g></g></svg>