<?xml version="1.0" encoding="UTF-8"?>
<svg width="24px" height="24px" viewBox="0 0 24 24" version="1.1" xmlns="http://www.w3.org/2000/svg" xmlns:xlink="http://www.w3.org/1999/xlink">
    <title></title>
    <g id="Icons" stroke="none" stroke-width="1" fill="none" fill-rule="evenodd">
        <g id="Icons/1.-Size-md-(16px)/Brands/Ansible" fill="#151515">
            <path d="M12,4 C7.5821875,4 4,7.5821875 4,12 C4,16.4178125 7.5821875,20 12,20 C16.4178125,20 20,16.4178125 20,12 C20,7.5821875 16.4178125,4 12,4 Z M15.8607813,15.4107812 C15.8607813,15.7464062 15.5892188,15.9821875 15.2785938,15.9821875 C15.1178125,15.9821875 15,15.9214063 14.8357813,15.7857812 L10.703125,12.453125 L9.32140625,15.9178125 L8.12859375,15.9178125 L11.6214062,7.5115625 C11.7107813,7.29359375 11.9071875,7.17578125 12.1285938,7.17578125 C12.35,7.17578125 12.5321875,7.29 12.6214062,7.5115625 L15.8107812,15.175 C15.85,15.2678125 15.8642187,15.3535937 15.8607813,15.4107812 Z M12.1357813,8.88578125 L14.2071875,14 L11.0821875,11.5392187 L12.1357813,8.88578125 Z" id="pficon-ansible-tower"></path>
        </g>
    </g>
</svg>