<?xml version="1.0" encoding="UTF-8"?>
<svg width="24px" height="24px" viewBox="0 0 24 24" version="1.1" xmlns="http://www.w3.org/2000/svg" xmlns:xlink="http://www.w3.org/1999/xlink">
    <title></title>
    <g id="Icons" stroke="none" stroke-width="1" fill="none" fill-rule="evenodd">
        <g id="Icons/1.-Size-md-(16px)/Brands/Facebook" fill="#151515">
            <path d="M10.7890487,18.9999666 L10.7890487,14.2403039 L8.82030339,14.2403039 L8.82030339,11.9999833 L10.7890487,11.9999833 L10.7890487,10.2924984 C10.7890487,8.35030329 11.9452959,7.27749091 13.7162268,7.27749091 C14.4053178,7.27749091 15.1200147,7.37733608 15.3638002,7.41477802 L15.4410712,7.42703711 C15.4477741,7.42814486 15.4512385,7.42873566 15.4512385,7.42873566 L15.4512385,9.33498112 L14.4740375,9.33498112 C13.5112407,9.33498112 13.2109179,9.93248336 13.2109179,10.5453054 L13.2109179,11.9999833 L15.3602963,11.9999833 L15.0165472,14.2403039 L13.2109179,14.2403039 L13.2109179,18.9999666 L17.4999702,18.9999666 C18.3279712,18.9999666 18.9999666,18.3279712 18.9999666,17.4999702 L18.9999666,6.5 C18.9999666,5.67199547 18.3279712,5 17.4999702,5 L6.5,5 C5.67199547,5 5,5.67199547 5,6.5 L5,17.4999702 C5,18.3279712 5.67199547,18.9999666 6.5,18.9999666 L10.7890487,18.9999666 Z" id="facebook-square"></path>
        </g>
    </g>
</svg>