<?xml version="1.0" encoding="UTF-8"?>
<svg width="24px" height="24px" viewBox="0 0 24 24" version="1.1" xmlns="http://www.w3.org/2000/svg" xmlns:xlink="http://www.w3.org/1999/xlink">
    <title></title>
    <g id="Icons" stroke="none" stroke-width="1" fill="none" fill-rule="evenodd">
        <g id="Icons/1.-Size-md-(16px)/Brands/Google" fill="#151515">
            <path d="M11.7499815,19.499963 C16.2218337,19.499963 19.2499636,16.3530894 19.2499636,11.931225 C19.2499636,11.4156012 19.199976,11.034346 19.1280767,10.6374964 L11.7499815,10.6374964 L11.7499815,13.3031089 L16.1499649,13.3031089 C15.9687215,14.4437312 14.8187303,16.6437076 11.7499815,16.6437076 C9.10625003,16.6437076 6.94686187,14.4531001 6.94686187,11.7499815 C6.94686187,7.3937297 12.0781057,5.39373447 14.8374681,8.05623423 L16.946838,6.02813237 C15.5937224,4.76562317 13.8374704,4 11.7499815,4 C7.46248564,4 4,7.46248564 4,11.7499815 C4,16.0374774 7.46248564,19.499963 11.7499815,19.499963 Z" id="google"></path>
        </g>
    </g>
</svg>