<?xml version="1.0" encoding="UTF-8"?>
<svg width="24px" height="24px" viewBox="0 0 24 24" version="1.1" xmlns="http://www.w3.org/2000/svg" xmlns:xlink="http://www.w3.org/1999/xlink">
    <title></title>
    <g id="Icons" stroke="none" stroke-width="1" fill="none" fill-rule="evenodd">
        <g id="Icons/1.-Size-md-(16px)/Brands/js" fill="#151515">
            <path d="M18.9999666,18.9999666 L18.9999666,5 L5,5 L5,18.9999666 L18.9999666,18.9999666 Z M15.7312366,17.9031064 C14.5093462,17.9031064 13.7187292,17.3218395 13.3343612,16.5593596 L14.4062276,15.9405867 C14.6874769,16.3999667 15.0562199,16.7406031 15.7030995,16.7406031 C16.2468604,16.7406031 16.5968351,16.4687227 16.5968351,16.0906108 C16.5968351,15.6405996 16.2406043,15.4812372 15.6374868,15.2156129 L15.3093626,15.0749882 C14.3593527,14.6718519 13.7312414,14.1624843 13.7312414,13.0906179 C13.7312414,12.103102 14.4843524,11.3531037 15.6562246,11.3531037 C16.4937165,11.3531037 17.0937212,11.643722 17.524964,12.4062323 L16.4999726,13.0624808 C16.274967,12.6593445 16.0312237,12.4999821 15.6531118,12.4999821 C15.2687133,12.4999821 15.02497,12.7437254 15.02497,13.0624808 C15.02497,13.4562176 15.2687133,13.6156106 15.8343612,13.8624667 L16.1624795,14.0030913 C17.2812207,14.4812396 17.909332,14.971839 17.909332,16.0718425 C17.909332,17.2530836 16.9780903,17.9031064 15.7312366,17.9031064 Z M10.6531237,17.9031064 C9.59999514,17.9031064 8.99062159,17.3593455 8.67812233,16.6999843 L9.74998868,16.0531048 C9.95622598,16.418735 10.1437255,16.7280909 10.5968494,16.7280909 C11.0281228,16.7280909 11.3031161,16.5593596 11.3031161,15.8999679 L11.3031161,11.4281158 L12.6187257,11.4281158 L12.6187257,15.9187362 C12.6187257,17.2812207 11.8187398,17.9031064 10.6531237,17.9031064 Z" id="js"></path>
        </g>
    </g>
</svg>