<?xml version="1.0" encoding="UTF-8"?>
<svg width="24px" height="24px" viewBox="0 0 24 24" version="1.1" xmlns="http://www.w3.org/2000/svg" xmlns:xlink="http://www.w3.org/1999/xlink">
    <title></title>
    <g id="Icons" stroke="none" stroke-width="1" fill="none" fill-rule="evenodd">
        <g id="Icons/1.-Size-md-(16px)/Brands/stack-overflow" fill="#151515">
            <path d="M16.831212,10.7593552 L17.8312096,10.009357 L14.103102,5 L13.103102,5.74999821 L16.831212,10.7593552 Z M15.7968516,11.9624773 L16.5937247,10.9999857 L11.7968612,6.99062636 L10.9999881,7.95311796 L15.7968516,11.9624773 Z M15.0937283,13.37498 L15.618721,12.2406138 L9.95311558,9.59373905 L9.43123572,10.7343613 L15.0937283,13.37498 Z M14.743723,14.9374763 L14.9999785,13.7187292 L8.88436202,12.4281134 L8.62810653,13.6562294 L14.743723,14.9374763 Z M17.2343482,18.9999666 L17.2343482,13.9999785 L15.9843512,13.9999785 L15.9843512,17.7499696 L7.24999702,17.7499696 L7.24999702,13.9999785 L6,13.9999785 L6,18.9999666 L17.2343482,18.9999666 Z M14.743723,16.4906037 L14.743723,15.2499756 L8.49373795,15.2499756 L8.49373795,16.4906037 L14.743723,16.4906037 Z" id="stack-overflow"></path>
        </g>
    </g>
</svg>