<svg xmlns="http://www.w3.org/2000/svg" width="24" height="24" viewBox="0 0 24 24">
  <path fill="#151515" fill-rule="evenodd" d="M15.8749812,17.9999714 C16.4960735,17.9999714 16.9999785,17.4960663 16.9999785,16.8749741 L16.9999785,8.62499374 C16.9999785,8.00390147 16.4960735,7.5 15.8749812,7.5 L13.9999857,7.5 C13.9999857,6.67265922 13.3273265,6 12.4999893,6 C11.6726521,6 11,6.67265922 11,7.5 L9.12499732,7.5 C8.50390505,7.5 8,8.00390147 8,8.62499374 L8,16.8749741 C8,17.4960663 8.50390505,17.9999714 9.12499732,17.9999714 L15.8749812,17.9999714 Z M12.4999893,8.06249508 C12.1882758,8.06249508 11.9374906,7.81170985 11.9374906,7.49999642 C11.9374906,7.18828299 12.1882758,6.93749776 12.4999893,6.93749776 C12.8117027,6.93749776 13.0624879,7.18828299 13.0624879,7.49999642 C13.0624879,7.81170985 12.8117027,8.06249508 12.4999893,8.06249508 Z M11.590621,15.6913831 L9.6546744,13.7390486 C9.54453672,13.6288881 9.54687131,13.4507726 9.65703188,13.3406121 L10.3226416,12.6796716 C10.4328021,12.569511 10.6109404,12.5718685 10.7210781,12.6820062 L11.7992005,13.7695127 L14.2835696,11.303889 C14.3937302,11.1937285 14.5718685,11.1960859 14.6820062,11.3062465 L15.3429467,11.9718562 C15.4531072,12.0843513 15.4507726,12.2601322 15.3406121,12.3702927 L11.9890576,15.6937177 C11.878897,15.8038783 11.7007816,15.8015437 11.590621,15.6913831 Z"/>
</svg>
