<svg xmlns="http://www.w3.org/2000/svg" width="24" height="24" viewBox="0 0 24 24">
  <path fill="#151515" fill-rule="evenodd" d="M9.5648261,17.4115009 L11.9999857,16.1927538 L14.4351453,17.4115009 C14.6718543,17.5310227 14.9531037,17.5310227 15.1898127,17.4115009 L17.5335571,16.2396287 C17.8194985,16.0966466 17.9999714,15.8036785 17.9999714,15.4849384 L17.9999714,12.904485 C17.9999714,12.5529233 17.7820077,12.2388524 17.451526,12.1146385 L15.1874781,11.2661985 L15.1874781,8.72323579 C15.1874781,8.37167413 14.9695144,8.05760322 14.6390327,7.93338935 L12.2952883,7.05448519 C12.1054542,6.98183827 11.8945172,6.98183827 11.7023256,7.05448519 L9.35858116,7.93338935 C9.02812236,8.05760322 8.81015871,8.37167413 8.81015871,8.72323579 L8.81015871,11.2661985 L6.54608787,12.1146385 C6.21796365,12.2388524 6,12.5529233 6,12.904485 L6,15.4849384 C6,15.8036785 6.1804729,16.0966466 6.46641429,16.2396287 L8.81015871,17.4115009 C9.04686774,17.5310227 9.32811707,17.5310227 9.5648261,17.4115009 Z M11.9999857,9.67478687 L9.60936639,8.70449041 L9.60936639,8.69041421 L11.9999857,7.79512216 L14.390605,8.69041421 L14.390605,8.70449041 L11.9999857,9.67478687 Z M12.3984222,12.0326075 L12.3984222,10.4341692 L14.390605,9.56698378 L14.390605,11.2849439 L12.3984222,12.0326075 Z M9.1874924,13.8583706 L6.7968731,12.8880742 L6.7968731,12.873998 L9.1874924,11.9787059 L11.5781117,12.873998 L11.5781117,12.8880742 L9.1874924,13.8583706 Z M14.812479,13.8583706 L12.4218597,12.8880742 L12.4218597,12.873998 L14.812479,11.9787059 L17.2030983,12.873998 L17.2030983,12.8880742 L14.812479,13.8583706 Z M9.58592895,16.5091593 L9.58592895,14.6552437 L11.5781117,13.7458755 L11.5781117,15.5130679 L9.58592895,16.5091593 Z M15.2109155,16.5091593 L15.2109155,14.6552437 L17.2030983,13.7458755 L17.2030983,15.5130679 L15.2109155,16.5091593 Z"/>
</svg>
