<svg xmlns="http://www.w3.org/2000/svg" width="24" height="24" viewBox="0 0 24 24">
  <path fill="#151515" fill-rule="evenodd" d="M14.6249794,17.9999714 C15.2463006,17.9999714 15.7499768,17.4962952 15.7499768,16.8749741 L15.7499768,7.12499732 C15.7499768,6.50367617 15.2463006,6 14.6249794,6 L9.37499195,6 C8.7536708,6 8.24999464,6.50367617 8.24999464,7.12499732 L8.24999464,16.8749741 C8.24999464,17.4962952 8.7536708,17.9999714 9.37499195,17.9999714 L14.6249794,17.9999714 Z M17.2968481,9.1874924 C17.3744617,9.1874924 17.4374727,9.12448138 17.4374727,9.04686774 L17.4374727,8.90624307 L17.8593467,8.90624307 C17.9369604,8.90624307 17.9999714,8.84323205 17.9999714,8.76561841 L17.9999714,8.48436908 C17.9999714,8.40675543 17.9369604,8.34374441 17.8593467,8.34374441 L17.4374727,8.34374441 L17.4374727,8.20311975 C17.4374727,8.1255061 17.3744617,8.06249508 17.2968481,8.06249508 L16.3124754,8.06249508 L16.3124754,9.1874924 L17.2968481,9.1874924 Z M7.68749598,9.1874924 L7.68749598,8.06249508 L6.70312332,8.06249508 C6.62550968,8.06249508 6.56249866,8.1255061 6.56249866,8.20311975 L6.56249866,8.34374441 L6.14062466,8.34374441 C6.06301102,8.34374441 6,8.40675543 6,8.48436908 L6,8.76561841 C6,8.84323205 6.06301102,8.90624307 6.14062466,8.90624307 L6.56249866,8.90624307 L6.56249866,9.04686774 C6.56249866,9.12448138 6.62550968,9.1874924 6.70312332,9.1874924 L7.68749598,9.1874924 Z M17.2968481,11.437487 C17.3744617,11.437487 17.4374727,11.374476 17.4374727,11.2968624 L17.4374727,11.1562377 L17.8593467,11.1562377 C17.9369604,11.1562377 17.9999714,11.0932267 17.9999714,11.015613 L17.9999714,10.7343637 C17.9999714,10.6567501 17.9369604,10.593739 17.8593467,10.593739 L17.4374727,10.593739 L17.4374727,10.4531144 C17.4374727,10.3755007 17.3744617,10.3124897 17.2968481,10.3124897 L16.3124754,10.3124897 L16.3124754,11.437487 L17.2968481,11.437487 Z M7.68749598,11.437487 L7.68749598,10.3124897 L6.70312332,10.3124897 C6.62550968,10.3124897 6.56249866,10.3755007 6.56249866,10.4531144 L6.56249866,10.593739 L6.14062466,10.593739 C6.06301102,10.593739 6,10.6567501 6,10.7343637 L6,11.015613 C6,11.0932267 6.06301102,11.1562377 6.14062466,11.1562377 L6.56249866,11.1562377 L6.56249866,11.2968624 C6.56249866,11.374476 6.62550968,11.437487 6.70312332,11.437487 L7.68749598,11.437487 Z M17.2968481,13.6874817 C17.3744617,13.6874817 17.4374727,13.6244707 17.4374727,13.546857 L17.4374727,13.4062323 L17.8593467,13.4062323 C17.9369604,13.4062323 17.9999714,13.3432213 17.9999714,13.2656077 L17.9999714,12.9843583 C17.9999714,12.9067447 17.9369604,12.8437337 17.8593467,12.8437337 L17.4374727,12.8437337 L17.4374727,12.703109 C17.4374727,12.6254954 17.3744617,12.5624844 17.2968481,12.5624844 L16.3124754,12.5624844 L16.3124754,13.6874817 L17.2968481,13.6874817 Z M7.68749598,13.6874817 L7.68749598,12.5624844 L6.70312332,12.5624844 C6.62550968,12.5624844 6.56249866,12.6254954 6.56249866,12.703109 L6.56249866,12.8437337 L6.14062466,12.8437337 C6.06301102,12.8437337 6,12.9067447 6,12.9843583 L6,13.2656077 C6,13.3432213 6.06301102,13.4062323 6.14062466,13.4062323 L6.56249866,13.4062323 L6.56249866,13.546857 C6.56249866,13.6244707 6.62550968,13.6874817 6.70312332,13.6874817 L7.68749598,13.6874817 Z M17.2968481,15.9374763 C17.3744617,15.9374763 17.4374727,15.8744653 17.4374727,15.7968516 L17.4374727,15.656227 L17.8593467,15.656227 C17.9369604,15.656227 17.9999714,15.593216 17.9999714,15.5156023 L17.9999714,15.234353 C17.9999714,15.1567393 17.9369604,15.0937283 17.8593467,15.0937283 L17.4374727,15.0937283 L17.4374727,14.9531037 C17.4374727,14.87549 17.3744617,14.812479 17.2968481,14.812479 L16.3124754,14.812479 L16.3124754,15.9374763 L17.2968481,15.9374763 Z M7.68749598,15.9374763 L7.68749598,14.812479 L6.70312332,14.812479 C6.62550968,14.812479 6.56249866,14.87549 6.56249866,14.9531037 L6.56249866,15.0937283 L6.14062466,15.0937283 C6.06301102,15.0937283 6,15.1567393 6,15.234353 L6,15.5156023 C6,15.593216 6.06301102,15.656227 6.14062466,15.656227 L6.56249866,15.656227 L6.56249866,15.7968516 C6.56249866,15.8744653 6.62550968,15.9374763 6.70312332,15.9374763 L7.68749598,15.9374763 Z"/>
</svg>
