<svg xmlns="http://www.w3.org/2000/svg" width="24" height="24" viewBox="0 0 24 24">
  <path fill="#151515" fill-rule="evenodd" d="M12,11.0941176 C12.6628676,11.0941176 13.2,11.63125 13.2,12.2941176 C13.2,12.9569853 12.6628676,13.4941176 12,13.4941176 C11.3371324,13.4941176 10.8,12.9569853 10.8,12.2941176 C10.8,11.63125 11.3371324,11.0941176 12,11.0941176 L12,11.0941176 Z M11.5599265,15.3139706 C11.49375,15.3139706 11.4286765,15.2621324 11.41875,15.1959559 L11.3415441,14.1889706 C11.2169118,14.1514706 11.2069853,14.1558824 11.0944853,14.0996324 L10.3974265,14.7492647 C10.3742647,14.7724265 10.3367647,14.7823529 10.3036765,14.7823529 C10.2661765,14.7823529 10.2330882,14.7680147 10.2044118,14.7448529 C10.0819853,14.6323529 9.52389706,14.1261029 9.52389706,13.9893382 C9.52389706,13.95625 9.53823529,13.9286765 9.55698529,13.9 C9.69375,13.7213235 10.0389706,13.3286765 10.1757353,13.1444853 C10.1095588,13.0154412 10.1194853,13.0573529 10.0764706,12.9261029 L9.08823529,12.8621324 C9.02205882,12.8522059 8.97573529,12.7915441 8.97573529,12.7253676 L8.97573529,11.8551471 C8.97573529,11.7944853 9.02316176,11.7238971 9.08382353,11.7139706 L10.0621324,11.6665441 C10.0996324,11.5419118 10.0908088,11.4878676 10.1514706,11.3698529 C10.0202206,11.18125 9.69264706,10.8757353 9.54154412,10.6970588 C9.52279412,10.6683824 9.50845588,10.6363971 9.50845588,10.6033088 C9.50845588,10.5702206 9.51838235,10.5371324 9.54154412,10.5095588 C9.63529412,10.3827206 10.1647059,9.81029412 10.3014706,9.81029412 C10.3389706,9.81029412 10.3720588,9.82463235 10.4007353,9.84338235 L11.1275735,10.4808824 C11.2477941,10.4202206 11.2356618,10.4102941 11.3625,10.3683824 C11.3856618,10.13125 11.3558824,9.62058824 11.4165441,9.39007353 C11.4352941,9.32389706 11.4915441,9.27757353 11.5577206,9.27757353 L11.6459559,9.27757353 L11.6459559,8.41176471 C10.4183824,7.62095588 8.34816176,7 7.41176471,7 L7.41176471,15.4705882 C8.08786765,15.2852941 9.88235294,15.0349265 11.6470588,16.1764706 L11.6470588,15.3128676 L11.5599265,15.3139706 Z M17.2941176,7.70588235 L17.2941176,16.8823529 C17.2941176,16.8823529 15.5183824,14.6841912 12.3529412,16.8536765 L12.3529412,17.5882353 C12.3529412,17.5882353 15.5194853,15.5224265 16.8716912,17.5650735 C16.8716912,17.5650735 18,17.5882353 18,16.8823529 L18,8.44264706 C18,8.44264706 18,7.70588235 17.2941176,7.70588235 L17.2941176,7.70588235 Z M12.4411765,9.27426471 C12.5073529,9.27426471 12.5636029,9.32058824 12.5823529,9.38676471 C12.6430147,9.61727941 12.6132353,10.1279412 12.6363971,10.3650735 C12.7632353,10.4069853 12.7511029,10.4169118 12.8713235,10.4775735 L13.5981618,9.84227941 C13.6268382,9.82352941 13.6599265,9.80919118 13.6974265,9.80919118 C13.8341912,9.80919118 14.3636029,10.3816176 14.4573529,10.5084559 C14.4805147,10.5360294 14.4904412,10.5691176 14.4904412,10.6022059 C14.4904412,10.6352941 14.4761029,10.6672794 14.4573529,10.6959559 C14.30625,10.8746324 13.9786765,11.1801471 13.8474265,11.36875 C13.9080882,11.4867647 13.8992647,11.5408088 13.9367647,11.6654412 L14.9150735,11.7128676 C14.9757353,11.7227941 15.0231618,11.7933824 15.0231618,11.8540441 L15.0231618,12.7242647 C15.0231618,12.7904412 14.9768382,12.8511029 14.9106618,12.8610294 L13.9224265,12.925 C13.8794118,13.05625 13.8893382,13.0143382 13.8231618,13.1433824 C13.9599265,13.3275735 14.3051471,13.7202206 14.4419118,13.8988971 C14.4606618,13.9275735 14.475,13.9551471 14.475,13.9882353 C14.475,14.125 13.9169118,14.63125 13.7944853,14.74375 C13.7658088,14.7669118 13.7327206,14.78125 13.6952206,14.78125 C13.6621324,14.78125 13.6246324,14.7713235 13.6014706,14.7481618 L12.9055147,14.0985294 C12.7930147,14.1547794 12.7830882,14.1503676 12.6584559,14.1878676 L12.58125,15.1948529 C12.5713235,15.2610294 12.50625,15.3128676 12.4400735,15.3128676 L12.3518382,15.3128676 L12.3518382,16.1764706 C14.1386029,15.0349265 15.9121324,15.2841912 16.5871324,15.4705882 L16.5871324,7 C15.6452206,7 13.5794118,7.62426471 12.3518382,8.41176471 L12.3518382,9.27536765 L12.4411765,9.27426471 Z M6.70588235,16.8823529 L6.70588235,7.70588235 C6,7.70588235 6,8.44264706 6,8.44264706 L6,16.8823529 C6,17.5882353 7.13051471,17.5650735 7.13051471,17.5650735 C8.51360294,15.5345588 11.6470588,17.5882353 11.6470588,17.5882353 L11.6470588,16.8536765 C8.49264706,14.6841912 6.70588235,16.88125 6.70588235,16.8823529 L6.70588235,16.8823529 Z M12.052261,12.3274908 C12.032261,12.3574908 12.032261,12.3574908 12.052261,12.3274908 L12.052261,12.3274908 Z M12.0367096,12.3686029 L12.0367096,12.3086029 C12.0567096,12.3286029 12.0567096,12.3486029 12.0367096,12.3686029 L12.0367096,12.3686029 Z"/>
</svg>
