<svg xmlns="http://www.w3.org/2000/svg" width="24" height="24" viewBox="0 0 24 24">
  <path fill="#151515" fill-rule="evenodd" d="M11.2571758,13.0802104 C11.2082091,13.0093649 11.1436146,12.9593563 11.0623507,12.9291428 L8.81300624,11.693514 C8.76612319,11.6758027 8.71924014,11.6674679 8.67131525,11.6674679 L8.66402233,11.6674679 L8.65672941,11.6674679 C8.61088821,11.6674679 8.56296332,11.6758027 8.51712211,11.693514 L6.26777766,12.9301847 C6.18755555,12.9603982 6.12191929,13.0104068 6.07295255,13.0812522 C6.02398581,13.1510559 6.00000767,13.2302362 6.00000767,13.3156675 L6.00000767,15.9869594 C5.99898151,16.1661568 6.10108237,16.2307512 6.21255985,16.293262 L8.46294615,17.6174476 C8.52233134,17.6518285 8.58796761,17.668498 8.65777126,17.668498 L8.66506418,17.668498 L8.6723571,17.668498 C8.74216075,17.668498 8.80779701,17.6518285 8.86718221,17.6174476 L11.1175685,16.293262 C11.2238368,16.2359605 11.3311468,16.1661568 11.3311468,16.0161311 L11.3311468,13.3146256 C11.3311468,13.2291943 11.3061425,13.1510559 11.2571758,13.0802104 Z M10.9467058,15.6681547 L8.66506418,17.0017169 L6.37092036,15.6681547 L6.37092036,15.0013735 L8.66402233,16.3349358 L10.9467058,15.0013735 L10.9467058,15.6681547 Z M10.9467058,14.3345924 L8.66506418,15.6681547 L6.37092036,14.3345924 L6.37092036,13.6678113 L8.66402233,15.0013735 L10.9467058,13.6678113 L10.9467058,14.3345924 Z M17.9249871,13.0802104 C17.8760204,13.0093649 17.811426,12.9593563 17.730162,12.9291428 L15.4808175,11.693514 C15.4339345,11.6758027 15.3870514,11.6674679 15.3391265,11.6674679 L15.3318336,11.6674679 L15.3245407,11.6674679 C15.2786995,11.6674679 15.2307746,11.6758027 15.1849334,11.693514 L12.9355889,12.9301847 C12.8553668,12.9603982 12.7897306,13.0104068 12.7407638,13.0812522 C12.6917971,13.1510559 12.6678346,13.2302362 12.6678346,13.3156675 L12.6678346,15.9869594 C12.6678346,16.1661568 12.7699355,16.2307512 12.881413,16.293262 L15.1317993,17.6174476 C15.1911845,17.6518285 15.2568207,17.668498 15.3266244,17.668498 L15.3339173,17.668498 L15.3412102,17.668498 C15.4110139,17.668498 15.4766501,17.6518285 15.5360353,17.6174476 L17.7864217,16.293262 C17.8926899,16.2359605 18,16.1661568 18,16.0161311 L18,13.3146256 C17.9989582,13.2291943 17.9739539,13.1510559 17.9249871,13.0802104 Z M17.6145172,15.6681547 L15.3318336,17.0017169 L13.0387316,15.6681547 L13.0387316,15.0013735 L15.3318336,16.3349358 L17.6145172,15.0013735 L17.6145172,15.6681547 Z M17.6145172,14.3345924 L15.3318336,15.6681547 L13.0387316,14.3345924 L13.0387316,13.6678113 L15.3318336,15.0013735 L17.6145172,13.6678113 L17.6145172,14.3345924 Z M14.5910814,7.99600431 C14.5421147,7.92515881 14.4775203,7.87515023 14.3962563,7.84493671 L12.1469119,7.02604614 C12.1000288,7.00833476 12.0531458,7 12.0052209,7 L11.997928,7 L11.990635,7 C11.9447938,7 11.896869,7.00833476 11.8510278,7.02604614 L9.60168329,7.84597856 C9.52146119,7.87619207 9.45582492,7.92620066 9.40685818,7.99704615 C9.35893329,8.0668498 9.333929,8.14603006 9.333929,8.23146139 L9.333929,10.7464765 C9.333929,10.9256739 9.43602986,10.9902683 9.54750733,11.052779 L11.7978936,12.2831986 C11.8572788,12.3175795 11.9229151,12.334249 11.9927187,12.334249 L12.0000117,12.334249 L12.0073046,12.334249 C12.0771082,12.334249 12.1427445,12.3175795 12.2021297,12.2831986 L14.452516,11.052779 C14.5587842,10.9954775 14.6660943,10.9256739 14.6660943,10.7756481 L14.6660943,8.23041955 C14.6650525,8.14498822 14.6400482,8.0668498 14.5910814,7.99600431 Z M14.2806115,10.4620526 L11.9989698,11.6674679 L9.704826,10.4620526 L9.704826,9.83381979 L11.997928,11.0006868 L14.2806115,9.83381979 L14.2806115,10.4620526 Z M14.2806115,9.16703866 L11.9989698,10.3339056 L9.704826,9.16703866 L9.704826,8.50025754 L11.997928,9.66712451 L14.2806115,8.50025754 L14.2806115,9.16703866 Z"/>
</svg>
