<svg xmlns="http://www.w3.org/2000/svg" width="24" height="24" viewBox="0 0 24 24">
  <path fill="#151515" fill-rule="evenodd" d="M17.90625,13.5011719 L14.484375,13.5011719 L14.1550781,13.1332031 C14.2242187,12.9996094 14.2816406,12.8578125 14.3261719,12.7113281 L15.2988281,12.646875 C15.3738281,12.6363281 15.4324219,12.5613281 15.4324219,12.4863281 L15.4324219,11.4867187 C15.43125,11.4105469 15.3773438,11.3460937 15.3023437,11.325 L14.3121094,11.2699219 C14.2675781,11.1292969 14.2089844,10.9933594 14.1410156,10.8644531 L14.79375,10.1191406 C14.8394531,10.0582031 14.8277344,9.96445313 14.775,9.91171875 L14.0683594,9.20507812 C14.015625,9.15234375 13.93125,9.14414063 13.8632812,9.1828125 L13.1167969,9.85078125 C12.9890625,9.78398437 12.8554688,9.72890625 12.7171875,9.68554688 L12.6515625,8.690625 C12.6410156,8.615625 12.5660156,8.55703125 12.4910156,8.55703125 L11.4914063,8.55703125 C11.4164062,8.55703125 11.3519531,8.6109375 11.3308594,8.6859375 L11.2757812,9.68203125 C11.1328125,9.72539062 10.9957031,9.7828125 10.865625,9.85078125 L10.1144531,9.20625 C10.0535156,9.16054687 9.95976562,9.17226562 9.90703125,9.225 L9.56601563,9.56601563 L8.81953125,8.81953125 C9.63398438,8.00507813 10.7589844,7.5 12,7.5 C14.4175781,7.5 16.396875,9.4171875 16.4953125,11.8113281 C16.5,11.9121094 16.5832031,11.990625 16.6828125,11.990625 L17.8089844,11.990625 C17.9144531,11.990625 18,11.9027344 17.9964844,11.7972656 C17.8898438,8.5828125 15.2414063,6 12.0011719,6 C10.3464844,6 8.84648437,6.67382812 7.76015625,7.75898437 L6.16054687,6.159375 C6.10078125,6.10078125 6,6.14296875 6,6.22617188 L6,10.4074219 C6,10.4589844 6.0421875,10.5011719 6.09375,10.5011719 L9.51445312,10.5011719 L9.84492188,10.8585938 C9.7734375,10.9921875 9.71367187,11.1328125 9.66679687,11.2792969 L8.69648438,11.3542969 C8.62148437,11.3648438 8.56289062,11.4398437 8.56289062,11.5148438 L8.56289062,12.5144531 C8.56289062,12.5894531 8.61679688,12.6539062 8.69179687,12.675 L9.65625,12.7136719 C9.70195312,12.8660156 9.76171875,13.0113281 9.834375,13.1496094 L9.2109375,13.8761719 C9.16523438,13.9371094 9.17695313,14.0308594 9.2296875,14.0835937 L9.93632812,14.7902344 C9.9890625,14.8429688 10.0734375,14.8511719 10.1414062,14.8125 L10.8433594,14.1644531 C10.9828125,14.2394531 11.1316406,14.3003906 11.2851562,14.3472656 L11.3578125,15.2941406 C11.3683594,15.3691406 11.4433594,15.4277344 11.5183594,15.4277344 L12.5179688,15.4277344 C12.5929688,15.4277344 12.6574219,15.3738281 12.6785156,15.2988281 L12.7160156,14.3402344 C12.8660156,14.2933594 13.0101563,14.2324219 13.1472656,14.1585938 L13.8679687,14.7902344 C13.9289063,14.8359375 14.0226563,14.8242188 14.0753906,14.7714844 L14.4246094,14.4222656 L15.1828125,15.1804687 C14.3671875,15.9949219 13.2421875,16.5 12.0011719,16.5 C9.57890625,16.5 7.5984375,14.5792969 7.5046875,12.1792969 C7.5,12.0785156 7.41796875,12 7.3171875,12 L6.19101563,12 C6.08554688,12 6,12.0878906 6.00351563,12.1933594 C6.10546875,15.4125 8.75742188,18 12.0011719,18 C13.6546875,18 15.1546875,17.3273438 16.2410156,16.2410156 L17.8394531,17.840625 C17.8992187,17.8992187 18,17.8570312 18,17.7738281 L18,13.59375 C18,13.5421875 17.9578125,13.5 17.90625,13.5011719 M11.9894531,13.5105469 C11.1609375,13.5105469 10.4894531,12.8390625 10.4894531,12.0105469 C10.4894531,11.1820312 11.1609375,10.5105469 11.9894531,10.5105469 C12.8179688,10.5105469 13.4894531,11.1820312 13.4894531,12.0105469 C13.4894531,12.8390625 12.8179688,13.5105469 11.9894531,13.5105469"/>
</svg>
