<svg xmlns="http://www.w3.org/2000/svg" width="24" height="24" viewBox="0 0 24 24">
  <path fill="#151515" fill-rule="evenodd" d="M10.815,10.7775 C10.785,10.69625 10.6725,10.69 10.6325,10.76625 L9.31,13.2975 C9.275,13.36375 9.2075,13.4 9.1325,13.4 L6,13.4 L6,11.8 L8.22375,11.8 C8.26125,11.8 8.295,11.7825 8.3125,11.75 L10.7175,7.14625 C10.7675,7.05 10.84625,7 10.9425,7 C11.03875,7 11.135,7.07375 11.17375,7.17375 L13.35125,12.98375 C13.38125,13.0625 13.4875,13.07125 13.53125,13 L15.14625,10.30625 C15.1825,10.24625 15.2475,10.2 15.3175,10.2 L18,10.2 L18,11.8 L16.1675,11.8 C16.1325,11.8 16.1,11.8275 16.08125,11.8575 L13.3025,16.49 C13.2625,16.55625 13.205,16.6 13.1275,16.6 C13.05,16.6 12.975,16.54125 12.94375,16.4575 L10.815,10.7775 Z"/>
</svg>
