<svg xmlns="http://www.w3.org/2000/svg" width="24" height="24" viewBox="0 0 24 24">
  <path fill="#151515" fill-rule="evenodd" d="M17.676292,8.00953321 L12.334418,6.06070548 C12.2274549,6.02065496 12.1141804,6.00009568 11.999965,6.00000078 C11.8813031,5.99985414 11.7635239,6.0203961 11.6519182,6.06070548 L6.32422394,8.00824414 C6.12919856,8.07931052 5.99972034,8.26508973 6.0005442,8.47265811 L6.0005442,8.91797052 C6.00229501,9.13010751 6.13620843,9.31862505 6.33594269,9.39011887 L6.99852068,9.62695476 C7.11339223,9.66809743 7.24109859,9.65077959 7.34086469,9.58053064 C7.4406308,9.51028168 7.49998115,9.39588606 7.49996589,9.27386889 L7.49996589,8.74898618 L11.999965,7.11328339 L16.4903547,8.75590024 L16.4903547,9.46136885 C16.4903755,9.54026933 16.5287497,9.61423533 16.5932437,9.65968648 C16.6577377,9.70513763 16.740301,9.71640049 16.8146124,9.68988443 L17.6657451,9.38988449 C17.8663507,9.31840157 18.0002152,9.12835327 17.9999645,8.9153924 L17.9999645,8.47113468 C17.9997017,8.26474666 17.8707026,8.08044213 17.6768779,8.00953321 M12.2536759,10.059025 L11.999965,10.1410562 L11.7373478,10.079064 C11.6232879,10.0417282 11.4982398,10.0613882 11.401139,10.1319226 C11.3040383,10.2024569 11.2466781,10.315299 11.2469168,10.435314 L11.2469168,10.893517 C11.2467846,11.0517364 11.3461502,11.1929501 11.4951213,11.2462513 L11.8544181,11.3692982 C11.9434831,11.4014001 12.0414176,11.398468 12.1284025,11.361095 L12.4960196,11.2250404 C12.6448578,11.1715648 12.7441473,11.0304594 12.7442259,10.8723061 L12.7442259,10.4152749 C12.7445795,10.2951926 12.6872286,10.182249 12.590065,10.1116859 C12.4929015,10.0411228 12.3677554,10.0215315 12.2536759,10.059025 M10.1219185,10.2172281 L10.1219185,9.73558755 C10.121799,9.57337236 10.0173925,9.4296243 9.86316854,9.37933762 L9.11387181,9.13453298 C8.99983389,9.09725911 8.87483835,9.11692856 8.77775914,9.18742407 C8.68067992,9.25791959 8.62329165,9.37069086 8.62344164,9.49066572 L8.62344164,9.94922032 C8.62352726,10.1071367 8.72253291,10.248078 8.87105936,10.3017202 L9.62035609,10.5712514 C9.73534157,10.6123062 9.86311501,10.5948119 9.96283349,10.5243606 C10.062552,10.4539094 10.1217294,10.3393226 10.1214497,10.2172281 M17.6158232,11.1796888 L16.0349642,10.6248061 C15.9942143,10.6094508 15.9492688,10.6094508 15.9085189,10.6248061 L15.3524643,10.822853 C15.1861753,10.8814467 15.1861753,11.1169935 15.3524643,11.1755873 L16.7010578,11.6601575 L11.999965,13.579454 L7.28293468,11.6575793 L8.62344222,11.1771107 C8.78844219,11.1174623 8.78844219,10.8830873 8.62344222,10.8244936 L8.06961421,10.6263296 C8.0286597,10.6123825 7.98424064,10.6123825 7.94328611,10.6263296 L6.38855987,11.1840248 C6.15285988,11.2680983 5.99684535,11.4929081 6.00055213,11.7431262 L6.00055213,11.8954699 C5.99007097,12.1372497 6.12960559,12.3605051 6.35152863,12.4570323 L11.5828948,14.7571881 C11.8372391,14.8688465 12.1266546,14.8692288 12.381293,14.7582428 L15.4047299,13.4351962 L17.6517998,12.4444932 C17.8716803,12.3482605 18.0094803,12.1264384 17.9983232,11.8866809 L17.9983232,11.735509 C18.0042626,11.4870655 17.8499946,11.2628947 17.6158232,11.1796888 M17.666331,13.8750008 L16.7303547,13.5446493 C16.6853988,13.5285199 16.6359823,13.5301545 16.5921906,13.5492196 L16.0934407,13.7673055 C15.9378157,13.8352742 15.9460189,14.0579304 16.1051595,14.1152351 L16.6757453,14.3203132 L11.999965,16.7363674 L7.30402843,14.3187897 L7.78637208,14.1454695 C7.94328611,14.0892195 7.9537158,13.8700789 7.80277833,13.7997664 L7.32230967,13.5746493 C7.27744813,13.5536745 7.22613564,13.5511909 7.17945814,13.5677352 L6.32809113,13.8734773 C6.13297642,13.9436503 6.00225474,14.1279702 6.00055213,14.3353132 L6.00055213,14.5556256 C6.00074174,14.7352261 6.09874406,14.9004647 6.25625521,14.9867584 L11.5160979,17.8766016 C11.6645663,17.957458 11.830907,17.9998792 11.999965,18 C12.1653717,17.9998175 12.327984,17.9573391 12.4723477,17.8766016 L17.7444951,14.9867584 C17.9019156,14.900403 17.9998211,14.7351764 17.9999638,14.5556256 L17.9999638,14.3492585 C17.9999638,14.1366123 17.8664692,13.9468554 17.666331,13.8750008 M15.3665311,9.94312657 L15.3665311,9.48609541 C15.3669359,9.36599359 15.3095975,9.25301378 15.2124181,9.18243915 C15.1152386,9.11186453 14.9900619,9.09229627 14.87598,9.12984548 L14.1268005,9.37500168 C13.9726175,9.42527494 13.8682207,9.56896243 13.8680505,9.73113442 L13.8680505,10.2116031 C13.8681659,10.3334614 13.9274851,10.4476652 14.0271124,10.5178354 C14.1267397,10.5880056 14.2542506,10.6053914 14.369027,10.5644546 L15.1183237,10.2972671 C15.2674117,10.2434433 15.3667026,10.101867 15.3665311,9.94336094"/>
</svg>
