<svg xmlns="http://www.w3.org/2000/svg" width="24" height="24" viewBox="0 0 24 24">
  <path fill="#151515" fill-rule="evenodd" d="M12.0937355,17.9999714 C12.4062346,17.9999714 12.6718592,17.8905965 12.8906086,17.6718472 L17.6718472,12.8906086 C17.8905965,12.6718592 17.9999714,12.4062346 17.9999714,12.0937355 C17.9999714,11.7812363 17.8905965,11.5156117 17.6718472,11.2968624 L12.703109,6.32812422 C12.4843597,6.10937486 12.2187351,6 11.9062359,6 L7.12499732,6 C6.81249818,6 6.54687358,6.10937486 6.32812422,6.32812422 C6.10937486,6.54687358 6,6.81249818 6,7.12499732 L6,11.9062359 C6,12.2187351 6.10937486,12.4843597 6.32812422,12.703109 L11.2968624,17.6718472 C11.5156117,17.8905965 11.7812363,17.9999714 12.0937355,17.9999714 Z M8.62499374,9.74999106 C8.31249461,9.74999106 8.04687,9.6406162 7.82812064,9.42186684 C7.60937128,9.20311748 7.49999642,8.93749288 7.49999642,8.62499374 C7.49999642,8.31249461 7.60937128,8.04687 7.82812064,7.82812064 C8.04687,7.60937128 8.31249461,7.49999642 8.62499374,7.49999642 C8.93749288,7.49999642 9.20311748,7.60937128 9.42186684,7.82812064 C9.6406162,8.04687 9.74999106,8.31249461 9.74999106,8.62499374 C9.74999106,8.93749288 9.6406162,9.20311748 9.42186684,9.42186684 C9.20311748,9.6406162 8.93749288,9.74999106 8.62499374,9.74999106 Z"/>
</svg>
