<svg xmlns="http://www.w3.org/2000/svg" width="24" height="24" viewBox="0 0 24 24">
  <path fill="#151515" fill-rule="evenodd" d="M12.374992,6.74998391 C14.2406034,6.74998391 15.7499839,5.24060335 15.7499839,3.37499195 C15.7499839,1.50938056 14.2406034,0 12.374992,0 C10.5093806,0 9,1.50938056 9,3.37499195 C9,5.24060335 10.5093806,6.74998391 12.374992,6.74998391 Z M12.374992,14.9999642 C14.2406034,14.9999642 15.7499839,13.4905837 15.7499839,11.6249723 C15.7499839,9.75936089 14.2406034,8.24998033 12.374992,8.24998033 C10.5093806,8.24998033 9,9.75936089 9,11.6249723 C9,13.4905837 10.5093806,14.9999642 12.374992,14.9999642 Z M12.374992,23.2499446 C14.2406034,23.2499446 15.7499839,21.740564 15.7499839,19.8749526 C15.7499839,18.0093412 14.2406034,16.4999607 12.374992,16.4999607 C10.5093806,16.4999607 9,18.0093412 9,19.8749526 C9,21.740564 10.5093806,23.2499446 12.374992,23.2499446 Z"/>
</svg>
