<svg xmlns="http://www.w3.org/2000/svg" width="24" height="24" viewBox="0 0 24 24">
  <path fill="#151515" fill-rule="evenodd" d="M11.6249723,23.2499446 C18.0448178,23.2499446 23.2499446,18.0466946 23.2499446,11.6249723 C23.2499446,5.20700358 18.0448178,0 11.6249723,0 C5.20512675,0 0,5.20700358 0,11.6249723 C0,18.0466946 5.20512675,23.2499446 11.6249723,23.2499446 Z M12.9374692,14.249966 L10.3124754,14.249966 C10.0018377,14.249966 9.74997675,13.9981051 9.74997675,13.6874674 L9.74997675,13.4999678 C9.74997675,11.5753508 11.209095,10.8059893 12.3117993,10.1878267 C13.2573079,9.65773759 13.8367895,9.29720379 13.8367895,8.59522487 C13.8367895,7.6666077 12.6523288,7.05032194 11.6947353,7.05032194 C10.4201869,7.05032194 9.84601534,7.66619571 9.00863026,8.72829645 C8.81907077,8.96875913 8.47144587,9.01279589 8.22745841,8.82776826 L6.60098219,7.59446432 C6.36340341,7.41433474 6.30796836,7.08016806 6.47372419,6.83238117 C7.75312483,4.91984911 9.3823934,3.84374084 11.9369375,3.84374084 C14.5790973,3.84374084 17.399281,5.90614437 17.399281,8.62497944 C17.399281,12.2352614 13.4999678,12.2908337 13.4999678,13.6249828 L13.4999678,13.6874674 C13.4999678,13.9981051 13.2481068,14.249966 12.9374692,14.249966 Z M11.6249723,19.7812028 C10.4359798,19.7812028 9.46872742,18.8139047 9.46872742,17.624958 C9.46872742,16.4359655 10.4359798,15.4687131 11.6249723,15.4687131 C12.8139648,15.4687131 13.7812171,16.4359655 13.7812171,17.624958 C13.7812171,18.8139047 12.8139648,19.7812028 11.6249723,19.7812028 Z"/>
</svg>
