<svg xmlns="http://www.w3.org/2000/svg" width="24" height="24" viewBox="0 0 24 24">
  <path fill="#151515" fill-rule="evenodd" d="M12.335427,23.7929883 L13.4604243,21.5429937 C13.4822596,21.4992774 13.5000207,21.4241585 13.5000207,21.3752695 L13.5000207,16.4999607 L19.8750055,16.4999607 C20.4963267,16.4999607 21,15.9962845 21,15.3749633 C21,12.9757839 19.2195353,11.0896647 16.9700442,10.043723 L16.3965135,4.49998927 L18.3749633,4.49998927 C18.9962845,4.49998927 19.4999607,3.9963131 19.4999607,3.37499195 L19.4999607,1.12499732 C19.4999607,0.503676167 18.9962845,0 18.3749633,0 L5.62499374,0 C5.00367259,0 4.5,0.503676167 4.5,1.12499732 L4.5,3.37499195 C4.5,3.9963131 5.00367259,4.49998927 5.62499374,4.49998927 L7.60344361,4.49998927 L7.02991288,10.043723 C4.75616036,11.1009257 3,12.9965663 3,15.3749633 C3,15.9962845 3.50367617,16.4999607 4.12499732,16.4999607 L10.4999821,16.4999607 L10.4999821,21.3752695 C10.4999821,21.4334969 10.5135319,21.4909003 10.5395786,21.5429937 L11.6645759,23.7929883 C11.802454,24.0686987 12.1972742,24.0692023 12.335427,23.7929883 Z"/>
</svg>
