<?xml version="1.0" encoding="UTF-8"?><svg version="1.1" width="290px" height="245px" viewBox="0 0 290.0 245.0" xmlns="http://www.w3.org/2000/svg" xmlns:xlink="http://www.w3.org/1999/xlink"><defs><filter id="i0" x="-5.9602649%" y="-7.03125%" filterUnits="userSpaceOnUse" width="107.94702%" height="109.375%"><feGaussianBlur stdDeviation="3" in="SourceAlpha" result="i1"></feGaussianBlur><feOffset dx="0" dy="0" in="i1" result="i2"></feOffset><feColorMatrix values="0 0 0 0.0 0 0 0 0 0.0 0 0 0 0 0.0 0 0 0 0 0.08 0" type="matrix" in="i2"></feColorMatrix></filter><filter id="i3" x="-17.3913043%" y="-17.3913043%" filterUnits="userSpaceOnUse" width="124.84472%" height="128.985507%"><feGaussianBlur stdDeviation="8" in="SourceAlpha" result="i4"></feGaussianBlur><feOffset dx="0" dy="8" in="i4" result="i5"></feOffset><feColorMatrix values="0 0 0 0.0 0 0 0 0 0.0 0 0 0 0 0.0 0 0 0 0 0.16 0" type="matrix" in="i5"></feColorMatrix></filter><clipPath id="i6"><path d="M290,0 L290,244 L0,244 L0,0 L290,0 Z"></path></clipPath><clipPath id="i7"><path d="M290,0 L290,16 L0,16 L0,0 L290,0 Z"></path></clipPath><clipPath id="i8"><path d="M290,0 L290,8 L0,8 L0,0 L290,0 Z"></path></clipPath></defs><g transform="translate(0.0 1.0)"><polygon points="0,0 290,0 290,244 0,244 0,0 0,0" stroke="none" fill="#000000" filter="url(#i0)"></polygon><polygon points="0,0 290,0 290,244 0,244 0,0 0,0" stroke="none" fill="#000000" filter="url(#i3)"></polygon><g clip-path="url(#i6)"><polygon points="0,0 290,0 290,244 0,244 0,0" stroke="none" fill="#FFFFFF"></polygon></g></g><g transform="translate(0.0 230.0)"><g clip-path="url(#i7)"><polygon points="0,0 290,0 290,16 0,16 0,0" stroke="none" fill="rgba(62, 156, 52, 0.9)"></polygon></g><g clip-path="url(#i7)"><polygon points="0,0 290,0 290,16 0,16 0,0 0,0" stroke="#418A37" stroke-width="2" fill="none" stroke-miterlimit="5"></polygon></g></g><g clip-path="url(#i8)"><polygon points="0,0 290,0 290,8 0,8 0,0" stroke="none" fill="rgba(146, 211, 0, 0.9)"></polygon></g><g clip-path="url(#i8)"><polygon points="0,0 290,0 290,8 0,8 0,0 0,0" stroke="#7EB200" stroke-width="2" fill="none" stroke-miterlimit="5"></polygon></g></svg>