<?xml version="1.0" encoding="UTF-8"?><svg version="1.1" width="274px" height="37px" viewBox="0 0 274.0 37.0" xmlns="http://www.w3.org/2000/svg" xmlns:xlink="http://www.w3.org/1999/xlink"><defs><clipPath id="i0"><path d="M242,0 L242,21 L0,21 L0,0 L242,0 Z"></path></clipPath><clipPath id="i1"><path d="M242,0 L242,8 L0,8 L0,0 L242,0 Z"></path></clipPath><clipPath id="i2"><path d="M16,0 L16,37 L0,37 L0,0 L16,0 Z"></path></clipPath></defs><g transform="translate(16.0 8.0)"><g clip-path="url(#i0)"><text transform="translate(0.0 12.0)" font-family="RedHatText-Medium, Red Hat Text" font-size="12.0" font-weight="400" fill="#696E73" text-anchor="left" line-spacing="21.0">Section title</text></g></g><g transform="translate(16.0 29.0)"><g clip-path="url(#i1)"><polygon points="0,0 242,0 242,8 0,8 0,0" stroke="none" fill="rgba(146, 211, 0, 0.9)"></polygon></g><g clip-path="url(#i1)"><polygon points="0,0 242,0 242,8 0,8 0,0 0,0" stroke="#7EB200" stroke-width="2" fill="none" stroke-miterlimit="5"></polygon></g></g><g transform="translate(16.0 0.0)"><g clip-path="url(#i1)"><polygon points="0,0 242,0 242,8 0,8 0,0" stroke="none" fill="rgba(146, 211, 0, 0.9)"></polygon></g><g clip-path="url(#i1)"><polygon points="0,0 242,0 242,8 0,8 0,0 0,0" stroke="#7EB200" stroke-width="2" fill="none" stroke-miterlimit="5"></polygon></g></g><g transform="translate(258.0 0.0)"><g clip-path="url(#i2)"><polygon points="0,0 16,0 16,37 0,37 0,0" stroke="none" fill="rgba(62, 156, 52, 0.9)"></polygon></g><g clip-path="url(#i2)"><polygon points="0,0 16,0 16,37 0,37 0,0 0,0" stroke="#418A37" stroke-width="2" fill="none" stroke-miterlimit="5"></polygon></g></g><g clip-path="url(#i2)"><polygon points="0,0 16,0 16,37 0,37 0,0" stroke="none" fill="rgba(62, 156, 52, 0.9)"></polygon></g><g clip-path="url(#i2)"><polygon points="0,0 16,0 16,37 0,37 0,0 0,0" stroke="#418A37" stroke-width="2" fill="none" stroke-miterlimit="5"></polygon></g></svg>