<?xml version="1.0" encoding="UTF-8"?><svg version="1.1" width="310px" height="52px" viewBox="0 0 310.0 52.0" xmlns="http://www.w3.org/2000/svg" xmlns:xlink="http://www.w3.org/1999/xlink"><defs><clipPath id="i0"><path d="M310,0 L310,52 L0,52 L0,0 L310,0 Z"></path></clipPath><clipPath id="i1"><path d="M310,0 L310,8 L0,8 L0,0 L310,0 Z"></path></clipPath><clipPath id="i2"><path d="M24,0 L24,36 L0,36 L0,0 L24,0 Z"></path></clipPath></defs><g clip-path="url(#i0)"><polygon points="0,0 310,0 310,52 0,52 0,0" stroke="none" fill="#FFFFFF"></polygon></g><g clip-path="url(#i1)"><polygon points="0,0 310,0 310,8 0,8 0,0" stroke="none" fill="rgba(146, 211, 0, 0.9)"></polygon></g><g clip-path="url(#i1)"><polygon points="0,0 310,0 310,8 0,8 0,0 0,0" stroke="#7EB200" stroke-width="2" fill="none" stroke-miterlimit="5"></polygon></g><g transform="translate(0.0 44.0)"><g clip-path="url(#i1)"><polygon points="0,0 310,0 310,8 0,8 0,0" stroke="none" fill="rgba(146, 211, 0, 0.9)"></polygon></g><g clip-path="url(#i1)"><polygon points="0,0 310,0 310,8 0,8 0,0 0,0" stroke="#7EB200" stroke-width="2" fill="none" stroke-miterlimit="5"></polygon></g></g><g transform="translate(0.0 8.0)"><g clip-path="url(#i2)"><polygon points="0,0 24,0 24,36 0,36 0,0" stroke="none" fill="rgba(0, 121, 135, 0.9)"></polygon></g><g clip-path="url(#i2)"><polygon points="0,0 24,0 24,36 0,36 0,0 0,0" stroke="#09707A" stroke-width="2" fill="none" stroke-miterlimit="5"></polygon></g></g><g transform="translate(286.0 8.0)"><g clip-path="url(#i2)"><polygon points="0,0 24,0 24,36 0,36 0,0" stroke="none" fill="rgba(0, 121, 135, 0.9)"></polygon></g><g clip-path="url(#i2)"><polygon points="0,0 24,0 24,36 0,36 0,0 0,0" stroke="#09707A" stroke-width="2" fill="none" stroke-miterlimit="5"></polygon></g></g></svg>