<?xml version="1.0" encoding="UTF-8"?><svg version="1.1" width="310px" height="68px" viewBox="0 0 310.0 68.0" xmlns="http://www.w3.org/2000/svg" xmlns:xlink="http://www.w3.org/1999/xlink"><defs><clipPath id="i0"><path d="M310,0 L310,68 L0,68 L0,0 L310,0 Z"></path></clipPath><clipPath id="i1"><path d="M310,0 L310,16 L0,16 L0,0 L310,0 Z"></path></clipPath><clipPath id="i2"><path d="M24,0 L24,36 L0,36 L0,0 L24,0 Z"></path></clipPath></defs><g clip-path="url(#i0)"><polygon points="0,0 310,0 310,68 0,68 0,0" stroke="none" fill="#FFFFFF"></polygon></g><g clip-path="url(#i1)"><polygon points="0,0 310,0 310,16 0,16 0,0" stroke="none" fill="rgba(62, 156, 52, 0.9)"></polygon></g><g clip-path="url(#i1)"><polygon points="0,0 310,0 310,16 0,16 0,0 0,0" stroke="#418A37" stroke-width="2" fill="none" stroke-miterlimit="5"></polygon></g><g transform="translate(0.0 52.0)"><g clip-path="url(#i1)"><polygon points="0,0 310,0 310,16 0,16 0,0" stroke="none" fill="rgba(62, 156, 52, 0.9)"></polygon></g><g clip-path="url(#i1)"><polygon points="0,0 310,0 310,16 0,16 0,0 0,0" stroke="#418A37" stroke-width="2" fill="none" stroke-miterlimit="5"></polygon></g></g><g transform="translate(0.0 16.0)"><g clip-path="url(#i2)"><polygon points="0,0 24,0 24,36 0,36 0,0" stroke="none" fill="rgba(0, 121, 135, 0.9)"></polygon></g><g clip-path="url(#i2)"><polygon points="0,0 24,0 24,36 0,36 0,0 0,0" stroke="#09707A" stroke-width="2" fill="none" stroke-miterlimit="5"></polygon></g></g><g transform="translate(286.0 16.0)"><g clip-path="url(#i2)"><polygon points="0,0 24,0 24,36 0,36 0,0" stroke="none" fill="rgba(0, 121, 135, 0.9)"></polygon></g><g clip-path="url(#i2)"><polygon points="0,0 24,0 24,36 0,36 0,0 0,0" stroke="#09707A" stroke-width="2" fill="none" stroke-miterlimit="5"></polygon></g></g></svg>