<?xml version="1.0" encoding="UTF-8"?>
<svg width="24px" height="24px" viewBox="0 0 24 24" version="1.1" xmlns="http://www.w3.org/2000/svg" xmlns:xlink="http://www.w3.org/1999/xlink">
    <title></title>
    <g id="Icons" stroke="none" stroke-width="1" fill="none" fill-rule="evenodd">
        <g id="Icons-/-Web-Componenta-/-arrow-right" fill="#151515">
            <path d="M19.4884982,11.8515856 L13.8919316,6.25501896 C13.6719909,6.03507828 13.3514204,5.94918166 13.0509758,6.02968554 C12.7505313,6.11018941 12.5158574,6.34486332 12.4353535,6.64530787 C12.3548496,6.94575243 12.4407462,7.26632295 12.6606869,7.48626362 L16.760172,11.5857487 L4.88145925,11.5857487 C4.64768172,11.5857487 4.42347911,11.6786165 4.25817344,11.8439221 C4.09286776,12.0092278 4,12.2334304 4,12.467208 C4.00764134,12.9485518 4.4000548,13.3347364 4.88145925,13.3346758 L16.760172,13.3346758 L12.6606869,17.4481523 C12.4930797,17.6090905 12.3983375,17.83141 12.3983375,18.0637746 C12.3983375,18.2961392 12.4930797,18.5184587 12.6606869,18.679397 C13.0030927,19.0135343 13.5495258,19.0135343 13.8919316,18.679397 L19.4884982,13.0828303 C19.6561055,12.9218921 19.7508477,12.6995725 19.7508477,12.467208 C19.7508477,12.2348434 19.6561055,12.0125239 19.4884982,11.8515856 Z" id="Arrow-right"></path>
        </g>
    </g>
</svg>