<?xml version="1.0" encoding="UTF-8"?><svg version="1.1" width="193px" height="93px" viewBox="0 0 193.0 93.0" xmlns="http://www.w3.org/2000/svg" xmlns:xlink="http://www.w3.org/1999/xlink"><defs><filter id="i0" x="-8.7804878%" y="-17.1428571%" filterUnits="userSpaceOnUse" width="111.707317%" height="122.857143%"><feGaussianBlur stdDeviation="3" in="SourceAlpha" result="i1"></feGaussianBlur><feOffset dx="0" dy="0" in="i1" result="i2"></feOffset><feColorMatrix values="0 0 0 0.0 0 0 0 0 0.0 0 0 0 0 0.0 0 0 0 0 0.08 0" type="matrix" in="i2"></feColorMatrix></filter><filter id="i3" x="-24.8888889%" y="-38.4%" filterUnits="userSpaceOnUse" width="135.555556%" height="164%"><feGaussianBlur stdDeviation="8" in="SourceAlpha" result="i4"></feGaussianBlur><feOffset dx="0" dy="8" in="i4" result="i5"></feOffset><feColorMatrix values="0 0 0 0.0 0 0 0 0 0.0 0 0 0 0 0.0 0 0 0 0 0.16 0" type="matrix" in="i5"></feColorMatrix></filter><clipPath id="i6"><path d="M193,0 L193,93 L0,93 L0,0 L193,0 Z"></path></clipPath><clipPath id="i7"><path d="M193,0 L193,3 L0,3 L0,0 L193,0 Z"></path></clipPath><clipPath id="i8"><path d="M0.98282389,0.287818222 C1.36688669,-0.0959394075 1.98907759,-0.0959394075 2.37280471,0.287818222 L5.5,3.41500803 L8.62718433,0.287818222 C9.01124713,-0.0959394075 9.63340751,-0.0959394075 10.0171651,0.287818222 L10.7121708,0.98282389 C11.0959284,1.36688669 11.0959284,1.98907759 10.7121708,2.37280471 L7.584981,5.5 L10.7121708,8.62718433 C11.0959284,9.01124713 11.0959284,9.63340751 10.7121708,10.0171651 L10.0171651,10.7121708 C9.63340751,11.0959284 9.01091144,11.0959284 8.62718433,10.7121708 L5.5,7.584981 L2.37280471,10.7121708 C1.98907759,11.0959284 1.36658152,11.0959284 0.98282389,10.7121708 L0.287818222,10.0171651 C-0.0959394075,9.63310234 -0.0959394075,9.01091144 0.287818222,8.62718433 L3.41500803,5.5 L0.287818222,2.37280471 C-0.0959394075,1.9887419 -0.0959394075,1.36658152 0.287818222,0.98282389 Z"></path></clipPath><clipPath id="i9"><path d="M87,0 L87,20 L0,20 L0,0 L87,0 Z"></path></clipPath><clipPath id="i10"><path d="M0.923421565,0.22032113 C1.21718307,-0.0734403767 1.69218804,-0.0734403767 1.98280625,0.22032113 L6.23279611,4.470311 C6.52967041,4.7640725 6.52967041,5.23904696 6.2359089,5.53280846 L1.98591903,9.78279833 C1.69218804,10.0765598 1.21718307,10.0765598 0.926564869,9.78279833 L0.220298242,9.07656222 C-0.0734327473,8.78280072 -0.0734327473,8.30779574 0.220298242,8.01717754 L3.23280327,5.00467252 L0.220298242,1.99219801 C-0.0734327473,1.6984365 -0.0734327473,1.22343153 0.220298242,0.932813328 Z"></path></clipPath><clipPath id="i11"><path d="M16,0 L16,93 L0,93 L0,0 L16,0 Z"></path></clipPath><clipPath id="i12"><path d="M4,0 L4,61 L0,61 L0,0 L4,0 Z"></path></clipPath><clipPath id="i13"><path d="M24,0 L24,21 L0,21 L0,0 L24,0 Z"></path></clipPath><clipPath id="i14"><path d="M139,0 L139,16 L0,16 L0,0 L139,0 Z"></path></clipPath><clipPath id="i15"><path d="M7.74998152,0 C12.0298785,0 15.499963,3.47133572 15.499963,7.74998152 C15.499963,12.0311298 12.0298785,15.499963 7.74998152,15.499963 C3.4700845,15.499963 0,12.0311298 0,7.74998152 C0,3.47133572 3.4700845,0 7.74998152,0 Z M7.74998152,9.3124778 C6.95606862,9.3124778 6.31248495,9.95606147 6.31248495,10.7499744 C6.31248495,11.5438873 6.95606862,12.1874709 7.74998152,12.1874709 C8.54389442,12.1874709 9.1874781,11.5438873 9.1874781,10.7499744 C9.1874781,9.95606147 8.54389442,9.3124778 7.74998152,9.3124778 Z M8.74033561,3.74999106 L6.75959692,3.74999106 C6.54447903,3.74999106 6.37348944,3.93062417 6.38520817,4.14543689 L6.61701914,8.39542676 C6.62785285,8.59427883 6.79228117,8.74997914 6.99143841,8.74997914 L8.50852464,8.74997914 C8.70768188,8.74997914 8.87211019,8.59427883 8.88294391,8.39542676 L9.11475488,4.14543689 C9.1264736,3.93062417 8.9554535,3.74999106 8.74033561,3.74999106 Z"></path></clipPath></defs><polygon points="0,0 193,0 193,93 0,93 0,0 0,0" stroke="none" fill="#000000" filter="url(#i0)"></polygon><polygon points="0,0 193,0 193,93 0,93 0,0 0,0" stroke="none" fill="#000000" filter="url(#i3)"></polygon><g clip-path="url(#i6)"><polygon points="0,0 193,0 193,93 0,93 0,0" stroke="none" fill="#FFFFFF"></polygon></g><g clip-path="url(#i7)"><polygon points="0,0 193,0 193,3 0,3 0,0" stroke="none" fill="#C9190A"></polygon></g><g transform="translate(153.0 16.0)"><g transform="translate(7.000000000000001 7.000000000000001)"><g clip-path="url(#i8)"><polygon points="0,0 10.999989,0 10.999989,10.999989 0,10.999989 0,0" stroke="none" fill="#696E73"></polygon></g></g></g><g transform="translate(131.0 56.0)"><text transform="translate(0.0 14.0)" font-family="RedHatText-Regular, Red Hat Text" font-size="14.0" font-weight="normal" fill="#0066CC" text-anchor="left" line-spacing="21.0">Action</text></g><g transform="translate(66.0 56.0)"><text transform="translate(0.0 14.0)" font-family="RedHatText-Regular, Red Hat Text" font-size="14.0" font-weight="normal" fill="#0066CC" text-anchor="left" line-spacing="21.0">Action</text></g><g transform="translate(66.0 18.0)"><g clip-path="url(#i9)"><text transform="translate(0.0 14.0)" font-family="RedHatText-Medium, Red Hat Text" font-size="14.0" font-weight="400" fill="#7C1006" text-anchor="left" line-spacing="21.0">Title</text></g></g><g transform="translate(7.0 16.0)"><g transform="translate(9.0 6.999999999999999)"><g clip-path="url(#i10)"><polygon points="-2.77555756e-17,-2.77555756e-17 6.45584247,-2.77555756e-17 6.45584247,10.0031195 -2.77555756e-17,10.0031195 -2.77555756e-17,-2.77555756e-17" stroke="none" fill="#696E73"></polygon></g></g></g><g transform="translate(16.0 0.0) scale(-1.0 1.0)"><g clip-path="url(#i11)"><polygon points="0,0 16,0 16,93 0,93 0,0" stroke="none" fill="rgba(62, 156, 52, 0.9)"></polygon></g><g clip-path="url(#i11)"><polygon points="0,0 16,0 16,93 0,93 0,0 0,0" stroke="#418A37" stroke-width="2" fill="none" stroke-miterlimit="5"></polygon></g></g><g transform="translate(38.5 0.0) scale(-1.0 1.0)"><g clip-path="url(#i11)"><polygon points="0,0 16,0 16,93 0,93 0,0" stroke="none" fill="rgba(62, 156, 52, 0.9)"></polygon></g><g clip-path="url(#i11)"><polygon points="0,0 16,0 16,93 0,93 0,0 0,0" stroke="#418A37" stroke-width="2" fill="none" stroke-miterlimit="5"></polygon></g></g><g transform="translate(193.0 0.0) scale(-1.0 1.0)"><g clip-path="url(#i11)"><polygon points="0,0 16,0 16,93 0,93 0,0" stroke="none" fill="rgba(62, 156, 52, 0.9)"></polygon></g><g clip-path="url(#i11)"><polygon points="0,0 16,0 16,93 0,93 0,0 0,0" stroke="#418A37" stroke-width="2" fill="none" stroke-miterlimit="5"></polygon></g></g><g transform="translate(66.0 16.0) scale(-1.0 1.0)"><g clip-path="url(#i12)"><polygon points="0,0 4,0 4,61 0,61 0,0" stroke="none" fill="rgba(236, 121, 8, 0.9)"></polygon></g><g clip-path="url(#i12)"><polygon points="0,0 4,0 4,61 0,61 0,0 0,0" stroke="#C67000" stroke-width="2" fill="none" stroke-miterlimit="5"></polygon></g></g><g transform="translate(131.0 56.0) scale(-1.0 1.0)"><g clip-path="url(#i13)"><polygon points="0,0 24,0 24,21 0,21 0,0" stroke="none" fill="rgba(0, 121, 135, 0.9)"></polygon></g><g clip-path="url(#i13)"><polygon points="0,0 24,0 24,21 0,21 0,0 0,0" stroke="#09707A" stroke-width="2" fill="none" stroke-miterlimit="5"></polygon></g></g><g transform="translate(38.0 0.0)"><g clip-path="url(#i14)"><polygon points="0,0 139,0 139,16 0,16 0,0" stroke="none" fill="rgba(62, 156, 52, 0.9)"></polygon></g><g clip-path="url(#i14)"><polygon points="0,0 139,0 139,16 0,16 0,0 0,0" stroke="#418A37" stroke-width="2" fill="none" stroke-miterlimit="5"></polygon></g></g><g transform="translate(38.0 40.0)"><g clip-path="url(#i14)"><polygon points="0,0 139,0 139,16 0,16 0,0" stroke="none" fill="rgba(62, 156, 52, 0.9)"></polygon></g><g clip-path="url(#i14)"><polygon points="0,0 139,0 139,16 0,16 0,0 0,0" stroke="#418A37" stroke-width="2" fill="none" stroke-miterlimit="5"></polygon></g></g><g transform="translate(38.0 77.0)"><g clip-path="url(#i14)"><polygon points="0,0 139,0 139,16 0,16 0,0" stroke="none" fill="rgba(62, 156, 52, 0.9)"></polygon></g><g clip-path="url(#i14)"><polygon points="0,0 139,0 139,16 0,16 0,0 0,0" stroke="#418A37" stroke-width="2" fill="none" stroke-miterlimit="5"></polygon></g></g><g transform="translate(41.0 16.0)"><g transform="translate(4.0 4.0)"><g clip-path="url(#i15)"><polygon points="0,0 15.499963,0 15.499963,15.499963 0,15.499963 0,0" stroke="none" fill="#C9190A"></polygon></g></g></g></svg>