<?xml version="1.0" encoding="UTF-8"?><svg version="1.1" width="197px" height="118px" viewBox="0 0 197.0 118.0" xmlns="http://www.w3.org/2000/svg" xmlns:xlink="http://www.w3.org/1999/xlink"><defs><filter id="i0" x="-8.61244019%" y="-13.8461538%" filterUnits="userSpaceOnUse" width="111.483254%" height="118.461538%"><feGaussianBlur stdDeviation="3" in="SourceAlpha" result="i1"></feGaussianBlur><feOffset dx="0" dy="0" in="i1" result="i2"></feOffset><feColorMatrix values="0 0 0 0.0 0 0 0 0 0.0 0 0 0 0 0.0 0 0 0 0 0.08 0" type="matrix" in="i2"></feColorMatrix></filter><filter id="i3" x="-24.4541485%" y="-32%" filterUnits="userSpaceOnUse" width="134.934498%" height="153.333333%"><feGaussianBlur stdDeviation="8" in="SourceAlpha" result="i4"></feGaussianBlur><feOffset dx="0" dy="8" in="i4" result="i5"></feOffset><feColorMatrix values="0 0 0 0.0 0 0 0 0 0.0 0 0 0 0 0.0 0 0 0 0 0.16 0" type="matrix" in="i5"></feColorMatrix></filter><clipPath id="i6"><path d="M197,0 L197,118 L0,118 L0,0 L197,0 Z"></path></clipPath><clipPath id="i7"><path d="M197,0 L197,3 L0,3 L0,0 L197,0 Z"></path></clipPath><clipPath id="i8"><path d="M0.98282389,0.287818222 C1.36688669,-0.0959394075 1.98907759,-0.0959394075 2.37280471,0.287818222 L5.5,3.41500803 L8.62718433,0.287818222 C9.01124713,-0.0959394075 9.63340751,-0.0959394075 10.0171651,0.287818222 L10.7121708,0.98282389 C11.0959284,1.36688669 11.0959284,1.98907759 10.7121708,2.37280471 L7.584981,5.5 L10.7121708,8.62718433 C11.0959284,9.01124713 11.0959284,9.63340751 10.7121708,10.0171651 L10.0171651,10.7121708 C9.63340751,11.0959284 9.01091144,11.0959284 8.62718433,10.7121708 L5.5,7.584981 L2.37280471,10.7121708 C1.98907759,11.0959284 1.36658152,11.0959284 0.98282389,10.7121708 L0.287818222,10.0171651 C-0.0959394075,9.63310234 -0.0959394075,9.01091144 0.287818222,8.62718433 L3.41500803,5.5 L0.287818222,2.37280471 C-0.0959394075,1.9887419 -0.0959394075,1.36658152 0.287818222,0.98282389 Z"></path></clipPath><clipPath id="i9"><path d="M111,0 L111,21 L0,21 L0,0 L111,0 Z"></path></clipPath><clipPath id="i10"><path d="M87,0 L87,20 L0,20 L0,0 L87,0 Z"></path></clipPath><clipPath id="i11"><path d="M0.926557239,0.220298242 C1.22031875,-0.0734327473 1.69532372,-0.0734327473 1.98594192,0.220298242 L4.99844695,3.23280327 L8.01092145,0.220298242 C8.30468296,-0.0734327473 8.77968793,-0.0734327473 9.07030613,0.220298242 L9.77654224,0.926564869 C10.0703037,1.22029586 10.0703037,1.69530083 9.77654224,1.98591903 L5.52655238,6.2359089 C5.23904696,6.52967041 4.7640725,6.52967041 4.470311,6.2359089 L0.22032113,1.98591903 C-0.0734403767,1.69218804 -0.0734403767,1.21718307 0.22032113,0.926564869 Z"></path></clipPath><clipPath id="i12"><path d="M16,0 L16,118 L0,118 L0,0 L16,0 Z"></path></clipPath><clipPath id="i13"><path d="M4,0 L4,49 L0,49 L0,0 L4,0 Z"></path></clipPath><clipPath id="i14"><path d="M111,0 L111,4 L0,4 L0,0 L111,0 Z"></path></clipPath><clipPath id="i15"><path d="M165,0 L165,16 L0,16 L0,0 L165,0 Z"></path></clipPath><clipPath id="i16"><path d="M16,0 L16,49 L0,49 L0,0 L16,0 Z"></path></clipPath><clipPath id="i17"><path d="M4,0 L4,21 L0,21 L0,0 L4,0 Z"></path></clipPath><clipPath id="i18"><path d="M24,0 L24,21 L0,21 L0,0 L24,0 Z"></path></clipPath><clipPath id="i19"><path d="M7.74998152,0 C12.0298785,0 15.499963,3.47133572 15.499963,7.74998152 C15.499963,12.0311298 12.0298785,15.499963 7.74998152,15.499963 C3.4700845,15.499963 0,12.0311298 0,7.74998152 C0,3.47133572 3.4700845,0 7.74998152,0 Z M7.74998152,9.3124778 C6.95606862,9.3124778 6.31248495,9.95606147 6.31248495,10.7499744 C6.31248495,11.5438873 6.95606862,12.1874709 7.74998152,12.1874709 C8.54389442,12.1874709 9.1874781,11.5438873 9.1874781,10.7499744 C9.1874781,9.95606147 8.54389442,9.3124778 7.74998152,9.3124778 Z M8.74033561,3.74999106 L6.75959692,3.74999106 C6.54447903,3.74999106 6.37348944,3.93062417 6.38520817,4.14543689 L6.61701914,8.39542676 C6.62785285,8.59427883 6.79228117,8.74997914 6.99143841,8.74997914 L8.50852464,8.74997914 C8.70768188,8.74997914 8.87211019,8.59427883 8.88294391,8.39542676 L9.11475488,4.14543689 C9.1264736,3.93062417 8.9554535,3.74999106 8.74033561,3.74999106 Z"></path></clipPath></defs><polygon points="0,0 197,0 197,118 0,118 0,0 0,0" stroke="none" fill="#000000" filter="url(#i0)"></polygon><polygon points="0,0 197,0 197,118 0,118 0,0 0,0" stroke="none" fill="#000000" filter="url(#i3)"></polygon><g clip-path="url(#i6)"><polygon points="0,0 197,0 197,118 0,118 0,0" stroke="none" fill="#FFFFFF"></polygon></g><g clip-path="url(#i7)"><polygon points="0,0 197,0 197,3 0,3 0,0" stroke="none" fill="#C9190A"></polygon></g><g transform="translate(157.0 16.0)"><g transform="translate(7.000000000000001 7.000000000000001)"><g clip-path="url(#i8)"><polygon points="0,0 10.999989,0 10.999989,10.999989 0,10.999989 0,0" stroke="none" fill="#696E73"></polygon></g></g></g><g transform="translate(135.0 81.0)"><text transform="translate(0.0 14.0)" font-family="RedHatText-Regular, Red Hat Text" font-size="14.0" font-weight="normal" fill="#0066CC" text-anchor="left" line-spacing="21.0">Action</text></g><g transform="translate(70.0 81.0)"><text transform="translate(0.0 14.0)" font-family="RedHatText-Regular, Red Hat Text" font-size="14.0" font-weight="normal" fill="#0066CC" text-anchor="left" line-spacing="21.0">Action</text></g><g transform="translate(70.0 44.0)"><g clip-path="url(#i9)"><text transform="translate(0.0 14.0)" font-family="RedHatText-Regular, Red Hat Text" font-size="14.0" font-weight="normal" fill="#141514" text-anchor="left" line-spacing="21.0">Description</text></g></g><g transform="translate(70.0 18.0)"><g clip-path="url(#i10)"><text transform="translate(0.0 14.0)" font-family="RedHatText-Medium, Red Hat Text" font-size="14.0" font-weight="400" fill="#7C1006" text-anchor="left" line-spacing="21.0">Title</text></g></g><g transform="translate(9.0 16.0)"><g transform="translate(7.0 9.0)"><g clip-path="url(#i11)"><polygon points="0,0 9.99686337,0 9.99686337,6.45623003 0,6.45623003 0,0" stroke="none" fill="#696E73"></polygon></g></g></g><g transform=""><g transform="translate(15.99999999999999 0.0) scale(-1.0 1.0)"><g clip-path="url(#i12)"><polygon points="0,0 16,0 16,118 0,118 0,0" stroke="none" fill="rgba(62, 156, 52, 0.9)"></polygon></g><g clip-path="url(#i12)"><polygon points="0,0 16,0 16,118 0,118 0,0 0,0" stroke="#418A37" stroke-width="2" fill="none" stroke-miterlimit="5"></polygon></g></g><g transform="translate(197.0 0.0) scale(-1.0 1.0)"><g clip-path="url(#i12)"><polygon points="0,0 16,0 16,118 0,118 0,0" stroke="none" fill="rgba(62, 156, 52, 0.9)"></polygon></g><g clip-path="url(#i12)"><polygon points="0,0 16,0 16,118 0,118 0,0 0,0" stroke="#418A37" stroke-width="2" fill="none" stroke-miterlimit="5"></polygon></g></g><g transform="translate(69.99999999999997 16.0) scale(-1.0 1.0)"><g clip-path="url(#i13)"><polygon points="0,0 4,0 4,49 0,49 0,0" stroke="none" fill="rgba(236, 121, 8, 0.9)"></polygon></g><g clip-path="url(#i13)"><polygon points="0,0 4,0 4,49 0,49 0,0 0,0" stroke="#C67000" stroke-width="2" fill="none" stroke-miterlimit="5"></polygon></g></g><g transform="translate(69.99999999999997 40.0)"><g clip-path="url(#i14)"><polygon points="0,0 111,0 111,4 0,4 0,0" stroke="none" fill="rgba(236, 121, 8, 0.9)"></polygon></g><g clip-path="url(#i14)"><polygon points="0,0 111,0 111,4 0,4 0,0 0,0" stroke="#C67000" stroke-width="2" fill="none" stroke-miterlimit="5"></polygon></g></g><g transform="translate(15.999999999999972 0.0)"><g clip-path="url(#i15)"><polygon points="0,0 165,0 165,16 0,16 0,0" stroke="none" fill="rgba(62, 156, 52, 0.9)"></polygon></g><g clip-path="url(#i15)"><polygon points="0,0 165,0 165,16 0,16 0,0 0,0" stroke="#418A37" stroke-width="2" fill="none" stroke-miterlimit="5"></polygon></g></g><g transform="translate(15.999999999999972 102.0)"><g clip-path="url(#i15)"><polygon points="0,0 165,0 165,16 0,16 0,0" stroke="none" fill="rgba(62, 156, 52, 0.9)"></polygon></g><g clip-path="url(#i15)"><polygon points="0,0 165,0 165,16 0,16 0,0 0,0" stroke="#418A37" stroke-width="2" fill="none" stroke-miterlimit="5"></polygon></g></g><g transform="translate(15.999999999999972 65.0)"><g clip-path="url(#i15)"><polygon points="0,0 165,0 165,16 0,16 0,0" stroke="none" fill="rgba(62, 156, 52, 0.9)"></polygon></g><g clip-path="url(#i15)"><polygon points="0,0 165,0 165,16 0,16 0,0 0,0" stroke="#418A37" stroke-width="2" fill="none" stroke-miterlimit="5"></polygon></g></g><g transform="translate(25.99999999999997 16.0)"><g clip-path="url(#i16)"><polygon points="0,0 16,0 16,49 0,49 0,0" stroke="none" fill="rgba(62, 156, 52, 0.9)"></polygon></g><g clip-path="url(#i16)"><polygon points="0,0 16,0 16,49 0,49 0,0 0,0" stroke="#418A37" stroke-width="2" fill="none" stroke-miterlimit="5"></polygon></g></g><g transform="translate(69.99999999999997 81.0) scale(-1.0 1.0)"><g clip-path="url(#i17)"><polygon points="0,0 4,0 4,21 0,21 0,0" stroke="none" fill="rgba(236, 121, 8, 0.9)"></polygon></g><g clip-path="url(#i17)"><polygon points="0,0 4,0 4,21 0,21 0,0 0,0" stroke="#C67000" stroke-width="2" fill="none" stroke-miterlimit="5"></polygon></g></g><g transform="translate(135.0 81.0) scale(-1.0 1.0)"><g clip-path="url(#i18)"><polygon points="0,0 24,0 24,21 0,21 0,0" stroke="none" fill="rgba(0, 121, 135, 0.9)"></polygon></g><g clip-path="url(#i18)"><polygon points="0,0 24,0 24,21 0,21 0,0 0,0" stroke="#09707A" stroke-width="2" fill="none" stroke-miterlimit="5"></polygon></g></g></g><g transform="translate(41.0 16.0)"><g transform="translate(4.0 4.0)"><g clip-path="url(#i19)"><polygon points="0,0 15.499963,0 15.499963,15.499963 0,15.499963 0,0" stroke="none" fill="#C9190A"></polygon></g></g></g></svg>