<?xml version="1.0" encoding="UTF-8"?><svg version="1.1" width="956px" height="72px" viewBox="0 0 956.0 72.0" xmlns="http://www.w3.org/2000/svg" xmlns:xlink="http://www.w3.org/1999/xlink"><defs><clipPath id="i0"><path d="M956,0 L956,72 L0,72 L0,0 L956,0 Z"></path></clipPath><clipPath id="i1"><path d="M2.24999464,10.9999738 C3.49373557,10.9999738 4.49998927,12.0062275 4.49998927,13.2499684 C4.49998927,14.4937093 3.49373557,15.499963 2.24999464,15.499963 C1.0062537,15.499963 0,14.4937093 0,13.2499684 C0,12.0062275 1.0062537,10.9999738 2.24999464,10.9999738 Z M2.24999464,5.49998689 C3.49373557,5.49998689 4.49998927,6.50624059 4.49998927,7.74998152 C4.49998927,8.99372245 3.49373557,9.99997616 2.24999464,9.99997616 C1.0062537,9.99997616 0,8.99372245 0,7.74998152 C0,6.50624059 1.0062537,5.49998689 2.24999464,5.49998689 Z M2.24999464,0 C3.49373557,0 4.49998927,1.0062537 4.49998927,2.24999464 C4.49998927,3.49373557 3.49373557,4.49998927 2.24999464,4.49998927 C1.0062537,4.49998927 0,3.49373557 0,2.24999464 C0,1.0062537 1.0062537,0 2.24999464,0 Z"></path></clipPath><clipPath id="i2"><path d="M16,0 L16,16 L0,16 L0,0 L16,0 Z"></path></clipPath><clipPath id="i3"><path d="M0.926557239,0.220298242 C1.22031875,-0.0734327473 1.69532372,-0.0734327473 1.98594192,0.220298242 L4.99844695,3.23280327 L8.01092145,0.220298242 C8.30468296,-0.0734327473 8.77968793,-0.0734327473 9.07030613,0.220298242 L9.77654224,0.926564869 C10.0703037,1.22029586 10.0703037,1.69530083 9.77654224,1.98591903 L5.52655238,6.2359089 C5.23904696,6.52967041 4.7640725,6.52967041 4.470311,6.2359089 L0.22032113,1.98591903 C-0.0734403767,1.69218804 -0.0734403767,1.21718307 0.22032113,0.926564869 Z"></path></clipPath><clipPath id="i4"><path d="M17.2488297,5.99998569 C17.8276858,5.99998569 18.1883416,6.62788337 17.8966553,7.12788218 L15.6333856,11.0077252 C15.3138978,11.5554534 14.5400044,11.9999714 13.9059117,11.9999714 L1.4070401,11.9999714 C0.828184061,11.9999714 0.467528182,11.3720737 0.759183981,10.8720749 L3.02242321,6.99223186 C3.3419415,6.44450368 4.11586543,5.99998569 4.74998868,5.99998569 Z M6.4999845,0 L8.49997973,2 L13.4999678,2 C14.328396,2 14.9999642,2.67156345 14.9999642,3.5 L14.9999642,4.99998808 L4.74998868,4.99998808 C3.68715552,4.99998808 2.69417693,5.57029922 2.15865574,6.48835733 L0,10.18891 L0,1.5 C0,0.671568223 0.671568223,0 1.5,0 L6.4999845,0 Z"></path></clipPath><clipPath id="i5"><path d="M24,0 L24,72 L0,72 L0,0 L24,0 Z"></path></clipPath><clipPath id="i6"><path d="M908,0 L908,24 L0,24 L0,0 L908,0 Z"></path></clipPath></defs><g clip-path="url(#i0)"><polygon points="0,0 956,0 956,72 0,72 0,0" stroke="none" fill="#FFFFFF"></polygon><g transform="translate(0.0 -1.0)"><polygon points="956,72 956,73 0,73 0,72 956,72 956,72" stroke="none" fill="#D2D2D2"></polygon></g></g><g transform="translate(902.0 18.0)"><g transform="translate(8.0 6.0)"><g transform="translate(10.0 3.999999999999999)"><g clip-path="url(#i1)"><polygon points="0,0 4.49998927,0 4.49998927,15.499963 0,15.499963 0,0" stroke="none" fill="#696E73"></polygon></g></g></g></g><g transform="translate(48.0 24.0)"><g transform="translate(8.0 4.0)"><g clip-path="url(#i2)"><polygon points="0,0 16,0 16,16 0,16 0,0" stroke="none" fill="#FFFFFF"></polygon><polygon points="0,0 16,0 16,16 0,16 0,0 0,0" stroke="#696E73" stroke-width="2" fill="none" stroke-miterlimit="5"></polygon></g></g></g><g transform="translate(24.0 24.0)"><g transform="translate(7.0 9.0)"><g clip-path="url(#i3)"><polygon points="0,0 9.99686337,0 9.99686337,6.45623003 0,6.45623003 0,0" stroke="none" fill="#696E73"></polygon></g></g></g><g transform="translate(80.0 24.0)"><g transform="translate(3.0 5.999999999999999)"><g clip-path="url(#i4)"><polygon points="0,0 17.9999638,0 17.9999638,11.9999714 0,11.9999714 0,0" stroke="none" fill="#151515"></polygon></g></g></g><g clip-path="url(#i5)"><polygon points="0,0 24,0 24,72 0,72 0,0" stroke="none" fill="rgba(0, 121, 135, 0.9)"></polygon></g><g clip-path="url(#i5)"><polygon points="0,0 24,0 24,72 0,72 0,0 0,0" stroke="#09707A" stroke-width="2" fill="none" stroke-miterlimit="5"></polygon></g><g transform="translate(931.9999999999999 0.0)"><g clip-path="url(#i5)"><polygon points="0,0 24,0 24,72 0,72 0,0" stroke="none" fill="rgba(0, 121, 135, 0.9)"></polygon></g><g clip-path="url(#i5)"><polygon points="0,0 24,0 24,72 0,72 0,0 0,0" stroke="#09707A" stroke-width="2" fill="none" stroke-miterlimit="5"></polygon></g></g><g transform="translate(24.0 0.0)"><g clip-path="url(#i6)"><polygon points="0,0 908,0 908,24 0,24 0,0" stroke="none" fill="rgba(0, 121, 135, 0.9)"></polygon></g><g clip-path="url(#i6)"><polygon points="0,0 908,0 908,24 0,24 0,0 0,0" stroke="#09707A" stroke-width="2" fill="none" stroke-miterlimit="5"></polygon></g></g><g transform="translate(24.0 47.99999999999997)"><g clip-path="url(#i6)"><polygon points="0,0 908,0 908,24 0,24 0,0" stroke="none" fill="rgba(0, 121, 135, 0.9)"></polygon></g><g clip-path="url(#i6)"><polygon points="0,0 908,0 908,24 0,24 0,0 0,0" stroke="#09707A" stroke-width="2" fill="none" stroke-miterlimit="5"></polygon></g></g></svg>