<?xml version="1.0" encoding="UTF-8"?>
<svg width="82px" height="36px" viewBox="0 0 82 36" version="1.1" xmlns="http://www.w3.org/2000/svg" xmlns:xlink="http://www.w3.org/1999/xlink">
    <title></title>
    <g id="Buttons" stroke="none" stroke-width="1" fill="none" fill-rule="evenodd">
        <g id="Button-/-5.-Link-button-/-Focus">
            <rect id="Focus-border" stroke="#0066CC" fill-rule="nonzero" x="-7.5" y="-7.5" width="97" height="51" rx="3"></rect>
            <path d="M87,-8 C88.6568542,-8 90,-6.65685425 90,-5 L90,41 C90,42.6568542 88.6568542,44 87,44 L-5,44 C-6.65685425,44 -8,42.6568542 -8,41 L-8,-5 C-8,-6.65685425 -6.65685425,-8 -5,-8 L87,-8 Z M79,0 L3,0 C1.34314575,0 0,1.34314575 0,3 L0,3 L0,33 C0,34.6568542 1.34314575,36 3,36 L3,36 L79,36 C80.6568542,36 82,34.6568542 82,33 L82,33 L82,3 C82,1.34314575 80.6568542,0 79,0 L79,0 Z" id="Focus-background" fill-opacity="0.2" fill="#0066CC" fill-rule="nonzero"></path>
            <rect id="Background" x="0" y="0" width="82" height="36" rx="3"></rect>
            <text id="âœï¸-Label" font-family="RedHatText-Regular, Red Hat Text" font-size="16" font-weight="normal" line-spacing="24" fill="#004080" text-decoration="underline">
                <tspan x="16" y="22">Button</tspan>
            </text>
            <g id="ðŸ“-Padding" fill-opacity="0.9">
                <g id="Spacer-/-Horizontal-/-3.-pf-global--spacer--md-(16px)" fill="#3F9C35" stroke="#418A38">
                    <rect id="Rectangle-Copy-2" x="0.5" y="0.5" width="15" height="35"></rect>
                </g>
                <g id="Spacer-/-Horizontal-/-3.-pf-global--spacer--md-(16px)" transform="translate(66.000000, 0.000000)" fill="#3F9C35" stroke="#418A38">
                    <rect id="Rectangle-Copy-2" x="0.5" y="0.5" width="15" height="35"></rect>
                </g>
                <g id="Spacer-/-Vertical-/-8.-pf-global--spacer--form-element-(6px)" transform="translate(16.000000, 0.000000)" fill="#F3D53C" stroke="#CBB534">
                    <rect id="Rectangle" x="0.5" y="0.5" width="49" height="5"></rect>
                </g>
                <g id="Spacer-/-Vertical-/-8.-pf-global--spacer--form-element-(6px)" transform="translate(16.000000, 30.000000)" fill="#F3D53C" stroke="#CBB534">
                    <rect id="Rectangle" x="0.5" y="0.5" width="49" height="5"></rect>
                </g>
            </g>
        </g>
    </g>
</svg>