<?xml version="1.0" encoding="UTF-8"?><svg version="1.1" width="36px" height="36px" viewBox="0 0 36.0 36.0" xmlns="http://www.w3.org/2000/svg" xmlns:xlink="http://www.w3.org/1999/xlink"><defs><clipPath id="i0"><path d="M18,0 C27.9411255,0 36,8.0588745 36,18 C36,27.9411255 27.9411255,36 18,36 C8.0588745,36 0,27.9411255 0,18 C0,8.0588745 8.0588745,0 18,0 Z"></path></clipPath><clipPath id="i1"><path d="M6.4,0 C9.9,0 12.8,2.9 12.8,6.4 C12.8,9.9 10,12.8 6.4,12.8 C2.9,12.8 0,9.9 0,6.4 C0,2.9 2.9,0 6.4,0 Z"></path></clipPath><clipPath id="i2"><path d="M3.2,0 L3.2,6.7 L0,6.7 L0.1,3.5 C0.3,1.4 1.2,0.4 3.2,0 Z"></path></clipPath><clipPath id="i3"><path d="M12.5,0 C16.3076923,0 17.3230769,0.143195266 18.2723714,0.429585799 L18.444849,0.483234714 C18.5601578,0.520052597 18.6769231,0.558974359 18.8,0.6 C20,1 21.2,1.8 22.3,3.2 C23.9,5.2 24.8,10.3 25.2,14.2 L20.5,14.2 L20.4,11 C20.2,8.9 19.3,7.9 17.3,7.5 L17.3,14.2 L7.9,14.2 L7.9,7.5 C5.9,7.9 5,8.9 4.8,11 L4.7,14.2 L0,14.2 C0.4,10.4 1.3,5.2 3,3.3 C4,1.9 5.2,1.1 6.4,0.7 C6.4,0.7 6.5,0.65625 6.7203125,0.590625 L6.8671,0.5488 C7.621,0.343 9.35,0 12.5,0 Z"></path></clipPath><clipPath id="i4"><path d="M0,0 C2,0.4 2.9,1.4 3.1,3.5 L3.2,6.7 L0,6.7 Z"></path></clipPath></defs><g clip-path="url(#i0)"><polygon points="0,0 36,0 36,36 0,36 0,0" stroke="none" fill="#F0F0F0"></polygon><g transform="translate(5.4 7.300000000000001)"><g transform="translate(5.899999999999864 0.0)"><g clip-path="url(#i1)"><polygon points="0,0 12.8,0 12.8,12.8 0,12.8 0,0" stroke="none" fill="#D2D2D2"></polygon></g></g><g transform="translate(4.699999999999818 22.0)"><g clip-path="url(#i2)"><polygon points="0,0 3.2,0 3.2,6.7 0,6.7 0,0" stroke="none" fill="#B8BBBE"></polygon></g></g><g transform="translate(0.0 14.500000000000002)"><g clip-path="url(#i3)"><polygon points="0,0 25.2,0 25.2,14.2 0,14.2 0,0" stroke="none" fill="#D2D2D2"></polygon></g></g><g transform="translate(17.29999999999995 22.0)"><g clip-path="url(#i4)"><polygon points="0,0 3.2,0 3.2,6.7 0,6.7 0,0" stroke="none" fill="#B8BBBE"></polygon></g></g></g></g></svg>