<svg xmlns="http://www.w3.org/2000/svg" width="24" height="24" viewBox="0 0 24 24">
  <path fill="#151515" fill-rule="evenodd" d="M11.8124861,17.6249723 C15.0226149,17.6249723 17.6249723,15.0226149 17.6249723,11.8124861 C17.6249723,8.60235738 15.0226378,6 11.8124861,6 C8.60235738,6 6,8.60233449 6,11.8124861 C6,15.0226378 8.60235738,17.6249723 11.8124861,17.6249723 Z M15.3465048,14.2858231 L9.33912626,8.27849036 C10.984531,7.12172432 13.3288018,7.23003094 14.8618945,8.76307782 C16.3958111,10.2970173 16.5025155,12.64154 15.3465048,14.2858231 Z M8.76307782,14.8618945 C7.22916119,13.3279549 7.12245674,10.9834323 8.27846747,9.33914914 L14.285846,15.3464819 C12.6404642,16.503248 10.2961705,16.3949642 8.76307782,14.8618945 Z"/>
</svg>
