<svg xmlns="http://www.w3.org/2000/svg" width="24" height="24" viewBox="0 0 24 24">
  <path fill="#F0AB00" fill-rule="evenodd" d="M17.3735881,17.9999715 C18.237615,17.9999715 18.7806358,17.062634 18.3480273,16.3127731 L12.7244598,6.56215545 C12.2924005,5.81330165 11.2083501,5.81192836 10.7755356,6.56215545 L5.15180783,16.3127731 C4.72004617,17.061192 5.26057222,17.9999715 6.12626992,17.9999715 L17.3735881,17.9999715 Z M12.318905,13.8749813 L11.1810903,13.8749813 C11.0317224,13.8749813 10.9084012,13.7582061 10.9002759,13.6090671 L10.7264176,10.4215747 C10.7176286,10.2604651 10.8458708,10.1249903 11.0072092,10.1249903 L12.4927632,10.1249903 C12.6541017,10.1249903 12.7823667,10.2604651 12.7735777,10.4215747 L12.5997195,13.6090671 C12.5915942,13.7582061 12.4682729,13.8749813 12.318905,13.8749813 Z M11.7499977,16.4531002 C11.154563,16.4531002 10.6718752,15.9704124 10.6718752,15.3749778 C10.6718752,14.7795431 11.154563,14.2968553 11.7499977,14.2968553 C12.3454323,14.2968553 12.8281201,14.7795431 12.8281201,15.3749778 C12.8281201,15.9704124 12.3454323,16.4531002 11.7499977,16.4531002 Z"/>
</svg>
