<svg xmlns="http://www.w3.org/2000/svg" width="24" height="24" viewBox="0 0 24 24">
  <path fill="#151515" fill-rule="evenodd" d="M7.92426564,16.176661 C7.74295419,16.1777439 7.57013718,16.0998907 7.45083118,15.9633582 C5.82768754,14.0978885 5.53822601,11.4188496 6.7254452,9.24972937 C6.92836349,8.88164022 7.16953983,8.53598033 7.44497184,8.21848598 C7.67311143,7.95669175 8.07028129,7.92940928 8.33207552,8.15754887 C8.59386976,8.38568848 8.62115223,8.78285832 8.39301263,9.04465256 C8.17652295,9.2938517 7.98681118,9.56510418 7.82700064,9.85394424 C6.89394917,11.5597288 7.1226533,13.6662389 8.40004384,15.1320354 C8.56255191,15.3183258 8.60108781,15.5824446 8.49858221,15.8074015 C8.3960766,16.0323584 8.17147575,16.176661 7.92426564,16.1761693 M16.1050725,16.1410133 C15.8599419,16.1405435 15.637472,15.9975388 15.535259,15.7747346 C15.433046,15.5519304 15.4697598,15.2900233 15.6292943,15.1039105 C17.1247738,13.3578246 17.1157999,10.7798162 15.6082007,9.04418381 C15.4588063,8.8754921 15.4112624,8.63968107 15.4836198,8.42628007 C15.5559772,8.21287909 15.7371392,8.05461484 15.958325,8.01157483 C16.1795107,7.96853483 16.4067996,8.0473196 16.5538978,8.21801724 C18.4708616,10.4227577 18.4833268,13.6990955 16.5831944,15.9183584 C16.4641604,16.0590701 16.2893781,16.1404638 16.1050725,16.1410133 M13.289075,12.0868205 C13.289075,12.7974511 12.712995,13.373531 12.0023645,13.373531 C11.2917339,13.373531 10.715654,12.7974511 10.715654,12.0868205 C10.715654,11.37619 11.2917339,10.80011 12.0023645,10.80011 C12.7128611,10.8004334 13.2887516,11.3763239 13.289075,12.0868205 M14.4574268,14.3356342 C14.2574567,14.3351829 14.0743958,14.2233591 13.9827058,14.0456481 C13.8910158,13.8679371 13.9059725,13.653946 14.0214921,13.4907178 C14.6153823,12.6497402 14.613503,11.5254264 14.0168047,10.6864389 C13.8452955,10.4456788 13.9014344,10.1114685 14.1421945,9.93995933 C14.3829546,9.76845013 14.7171649,9.82458906 14.8886741,10.0653491 C15.7492617,11.2749442 15.7530193,12.8958918 14.898049,14.1094638 C14.7957211,14.2508934 14.6319915,14.3349355 14.4574268,14.3356342 M9.52855222,14.3332905 C9.35422036,14.3331337 9.19081032,14.2483702 9.09027378,14.1059482 C8.24322295,12.8995376 8.24181775,11.2919886 9.08675818,10.084099 C9.25433523,9.84269431 9.58948933,9.78410094 9.83323776,9.95284985 C10.0746969,10.1233248 10.1333151,10.4567161 9.96448692,10.6993294 C9.67503565,11.1083112 9.52620848,11.5922925 9.52620848,12.0950236 C9.52500673,12.5946586 9.67896849,13.0823406 9.96683066,13.4907178 C10.0487437,13.6069226 10.080949,13.7509891 10.0563141,13.8910121 C10.0316792,14.031035 9.95223719,14.155459 9.8355815,14.2367286 C9.74505424,14.2985436 9.63816789,14.3319966 9.52855222,14.3328217"/>
</svg>
