<svg xmlns="http://www.w3.org/2000/svg" width="24" height="24" viewBox="0 0 24 24">
  <path fill="#151515" fill-rule="evenodd" d="M17.0957031,6 L7.40429688,6 C7.18046875,6 7,6.16757813 7,6.375 L7,11.2980469 C7,15 11.5433594,18 12.2558594,18 C12.9683594,18 17.5,15 17.5,11.2992187 L17.5,6.375 C17.5,6.16757813 17.3195312,6 17.0957031,6 Z M12.7503906,15 L11.7496094,15 C11.6113281,14.9976562 11.5023437,14.8769531 11.5,14.7269531 L11.5,13.7730469 C11.5023437,13.6230469 11.6125,13.5035156 11.7496094,13.5 L12.7503906,13.5 C12.8886719,13.5023438 12.9976562,13.6230469 13,13.7730469 L13,14.7269531 L13.0011719,14.7269531 C12.9976562,14.8769531 12.8875,14.9976562 12.7503906,15 Z M13.3738281,7.90664062 L13.0609375,12.028125 C13.0445312,12.2214844 12.8828125,12.375 12.6871094,12.375 L11.8117188,12.375 C11.6171875,12.375 11.4542969,12.225 11.4378906,12.0316406 L11.1261719,7.91015625 C11.1074219,7.69101563 11.2808594,7.50351563 11.5,7.50351563 L13,7.5 C13.2191406,7.5 13.3914062,7.6875 13.3738281,7.90664062 Z"/>
</svg>
