<svg xmlns="http://www.w3.org/2000/svg" width="24" height="24" viewBox="0 0 24 24">
  <path fill="#151515" fill-rule="evenodd" d="M17.0542969,9.7171875 L14.2839844,6.94570312 C13.6523438,6.31523438 12.8261719,6 12,6 C11.1738281,6 10.3476562,6.31523438 9.71601563,6.94570312 L6.94570312,9.71601563 C5.68476562,10.9769531 5.68476562,13.021875 6.94570312,14.2828125 L9.71601563,17.053125 C10.3476562,17.6847656 11.1738281,18 12,18 C12.8261719,18 13.6523438,17.6847656 14.2839844,17.0542969 L17.0542969,14.2839844 C18.3152344,13.0230469 18.3152344,10.978125 17.0542969,9.7171875 Z M16.153125,13.0570312 L13.0640625,16.1496094 C12.478125,16.7355469 11.5289063,16.7367187 10.9417969,16.1507812 L7.84804687,13.0570312 C7.26328125,12.4710937 7.26328125,11.521875 7.84921875,10.9371094 L10.9382812,7.85625 C11.5230469,7.27265625 12.4699219,7.27265625 13.0558594,7.85507813 L16.1519531,10.9371094 C16.7378906,11.5230469 16.7378906,12.4710937 16.153125,13.0570312 Z M12.1089844,12.75 C13.3535156,12.75 14.3636719,11.8828125 14.3636719,10.8480469 C14.3636719,9.81328125 13.3546875,8.971875 12.1089844,8.971875 C10.2890625,8.971875 9.91992188,9.95742187 9.8578125,10.771875 C9.8578125,10.8550781 9.928125,10.875 10.0253906,10.875 L11.2148438,10.875 C11.2792969,10.875 11.3671875,10.8691406 11.4,10.7636719 C11.4,10.2492188 12.8308594,10.1847656 12.8308594,10.846875 C12.8308594,11.1785156 12.5179688,11.5183594 12.1089844,11.5429688 C11.7,11.5675781 11.2417969,11.6226563 11.2417969,12.1136719 L11.2417969,12.4898437 C11.2417969,12.6890625 11.3449219,12.75 11.53125,12.75 C11.71875,12.7511719 12.1089844,12.75 12.1089844,12.75 L12.1089844,12.75 Z M12.7417969,14.8042969 L12.7417969,13.6792969 C12.7417969,13.6277344 12.7230469,13.5855469 12.6867188,13.546875 C12.6503906,13.5105469 12.6058594,13.4917969 12.5542969,13.4917969 L11.4292969,13.4917969 C11.3777344,13.4917969 11.3355469,13.5105469 11.296875,13.546875 C11.2605469,13.5832031 11.2417969,13.6277344 11.2417969,13.6792969 L11.2417969,14.8042969 C11.2417969,14.8558594 11.2605469,14.8980469 11.296875,14.9367187 C11.3332031,14.9730469 11.3777344,14.9917969 11.4292969,14.9917969 L12.5542969,14.9917969 C12.6058594,14.9917969 12.6480469,14.9730469 12.6867188,14.9367187 C12.7242187,14.8992187 12.7417969,14.8546875 12.7417969,14.8042969 L12.7417969,14.8042969 Z"/>
</svg>
