<?xml version="1.0" encoding="UTF-8"?>
<svg width="24px" height="24px" viewBox="0 0 24 24" version="1.1" xmlns="http://www.w3.org/2000/svg" xmlns:xlink="http://www.w3.org/1999/xlink">
    <title></title>
    <g id="Icons" stroke="none" stroke-width="1" fill="none" fill-rule="evenodd">
        <g id="Icons-/-3.-Size-lg-/-Framework-/-arrow-right" fill="#151515">
            <path d="M12.5593291,22.1397912 L21.6718257,13.0273403 C22.112468,12.5913673 22.112468,11.8789056 21.6718257,11.4382633 L12.5593291,2.33048169 C12.1234018,1.88983944 11.4108944,1.88983944 10.9702979,2.33048169 L9.92966621,3.37111337 C9.47968559,3.81642481 9.48902395,4.54298558 9.94843448,4.97891288 L15.5968585,10.3601409 L2.12499732,10.3601409 C1.50157046,10.3601409 1,10.8617114 1,11.4851382 L1,12.9851346 C1,13.6085615 1.50157046,14.110132 2.12499732,14.110132 L15.5968585,14.110132 L9.94843448,19.49136 C9.4937389,19.9272873 9.48435477,20.653848 9.92966621,21.0991595 L10.9702979,22.1397912 C11.4062252,22.5804334 12.1187326,22.5804334 12.5593291,22.1397912 Z" id="arrow-right"></path>
        </g>
    </g>
</svg>