<?xml version="1.0" encoding="UTF-8"?>
<svg width="24px" height="24px" viewBox="0 0 24 24" version="1.1" xmlns="http://www.w3.org/2000/svg" xmlns:xlink="http://www.w3.org/1999/xlink">
    <title></title>
    <g id="Icons" stroke="none" stroke-width="1" fill="none" fill-rule="evenodd">
        <g id="Icons-/-3.-Size-lg-/-Framework-/-folder-open" fill="#151515">
            <path d="M-1,18.2833651 L2.23798361,12.732536 C3.04126539,11.3554488 4.53073327,10.4999821 6.12498301,10.4999821 L21.4999464,10.4999821 L21.4999464,8.24998748 C21.4999464,7.00734518 20.492594,6 19.2499517,6 L11.7499696,6 L8.74997675,3 L1.24999464,3 C0.00735233461,3 -1,4.00735233 -1,5.24999464 L-1,18.2833651 Z M19.8588675,20.9999571 C20.8100066,20.9999571 21.9708467,20.3331801 22.4500784,19.5115878 L25.844983,13.6918233 C26.2825125,12.9418251 25.7415287,11.9999785 24.8732446,11.9999785 L6.12498301,11.9999785 C5.17379815,11.9999785 4.01291224,12.6667555 3.53363482,13.4883478 L0.138775971,19.3081124 C-0.298707727,20.0581106 0.242276091,20.9999571 1.11056015,20.9999571 L19.8588675,20.9999571 Z" id="folder-open"></path>
        </g>
    </g>
</svg>