<?xml version="1.0" encoding="UTF-8"?>
<svg width="24px" height="24px" viewBox="0 0 24 24" version="1.1" xmlns="http://www.w3.org/2000/svg" xmlns:xlink="http://www.w3.org/1999/xlink">
    <title></title>
    <g id="Icons" stroke="none" stroke-width="1" fill="none" fill-rule="evenodd">
        <g id="Icons-/-3.-Size-lg-/-Framework-/-grip-horizontal" fill="#151515">
            <path d="M6.49998927,10.9999857 C7.32826488,10.9999857 7.99998569,10.3282649 7.99998569,9.49998927 L7.99998569,6.5 C7.99998569,5.67172081 7.32826488,5 6.49998927,5 L3.5,5 C2.67172081,5 2,5.67172081 2,6.5 L2,9.49998927 C2,10.3282649 2.67172081,10.9999857 3.5,10.9999857 L6.49998927,10.9999857 Z M13.9999714,10.9999857 C14.828247,10.9999857 15.4999678,10.3282649 15.4999678,9.49998927 L15.4999678,6.5 C15.4999678,5.67172081 14.828247,5 13.9999714,5 L10.9999821,5 C10.1717029,5 9.49998212,5.67172081 9.49998212,6.5 L9.49998212,9.49998927 C9.49998212,10.3282649 10.1717029,10.9999857 10.9999821,10.9999857 L13.9999714,10.9999857 Z M21.4999535,10.9999857 C22.3282291,10.9999857 22.9999499,10.3282649 22.9999499,9.49998927 L22.9999499,6.5 C22.9999499,5.67172081 22.3282291,5 21.4999535,5 L18.4999642,5 C17.671685,5 16.9999642,5.67172081 16.9999642,6.5 L16.9999642,9.49998927 C16.9999642,10.3282649 17.671685,10.9999857 18.4999642,10.9999857 L21.4999535,10.9999857 Z M6.49998927,19.9999642 C7.32826488,19.9999642 7.99998569,19.3282434 7.99998569,18.4999678 L7.99998569,15.4999785 C7.99998569,14.6716994 7.32826488,13.9999785 6.49998927,13.9999785 L3.5,13.9999785 C2.67172081,13.9999785 2,14.6716994 2,15.4999785 L2,18.4999678 C2,19.3282434 2.67172081,19.9999642 3.5,19.9999642 L6.49998927,19.9999642 Z M13.9999714,19.9999642 C14.828247,19.9999642 15.4999678,19.3282434 15.4999678,18.4999678 L15.4999678,15.4999785 C15.4999678,14.6716994 14.828247,13.9999785 13.9999714,13.9999785 L10.9999821,13.9999785 C10.1717029,13.9999785 9.49998212,14.6716994 9.49998212,15.4999785 L9.49998212,18.4999678 C9.49998212,19.3282434 10.1717029,19.9999642 10.9999821,19.9999642 L13.9999714,19.9999642 Z M21.4999535,19.9999642 C22.3282291,19.9999642 22.9999499,19.3282434 22.9999499,18.4999678 L22.9999499,15.4999785 C22.9999499,14.6716994 22.3282291,13.9999785 21.4999535,13.9999785 L18.4999642,13.9999785 C17.671685,13.9999785 16.9999642,14.6716994 16.9999642,15.4999785 L16.9999642,18.4999678 C16.9999642,19.3282434 17.671685,19.9999642 18.4999642,19.9999642 L21.4999535,19.9999642 Z" id="grip-horizontal"></path>
        </g>
    </g>
</svg>