<?xml version="1.0" encoding="UTF-8"?>
<svg width="24px" height="24px" viewBox="0 0 24 24" version="1.1" xmlns="http://www.w3.org/2000/svg" xmlns:xlink="http://www.w3.org/1999/xlink">
    <title></title>
    <g id="Icons" stroke="none" stroke-width="1" fill="none" fill-rule="evenodd">
        <g id="Icons-/-3.-Size-lg-/-Framework-/-grip-vertical" fill="#151515">
            <path d="M9.49998927,7.99998569 C10.3282649,7.99998569 10.9999857,7.32826488 10.9999857,6.49998927 L10.9999857,3.5 C10.9999857,2.67172081 10.3282649,2 9.49998927,2 L6.5,2 C5.67172081,2 5,2.67172081 5,3.5 L5,6.49998927 C5,7.32826488 5.67172081,7.99998569 6.5,7.99998569 L9.49998927,7.99998569 Z M18.4999678,7.99998569 C19.3282434,7.99998569 19.9999642,7.32826488 19.9999642,6.49998927 L19.9999642,3.5 C19.9999642,2.67172081 19.3282434,2 18.4999678,2 L15.4999785,2 C14.6716994,2 13.9999785,2.67172081 13.9999785,3.5 L13.9999785,6.49998927 C13.9999785,7.32826488 14.6716994,7.99998569 15.4999785,7.99998569 L18.4999678,7.99998569 Z M9.49998927,15.4999678 C10.3282649,15.4999678 10.9999857,14.828247 10.9999857,13.9999714 L10.9999857,10.9999821 C10.9999857,10.1717029 10.3282649,9.49998212 9.49998927,9.49998212 L6.5,9.49998212 C5.67172081,9.49998212 5,10.1717029 5,10.9999821 L5,13.9999714 C5,14.828247 5.67172081,15.4999678 6.5,15.4999678 L9.49998927,15.4999678 Z M18.4999678,15.4999678 C19.3282434,15.4999678 19.9999642,14.828247 19.9999642,13.9999714 L19.9999642,10.9999821 C19.9999642,10.1717029 19.3282434,9.49998212 18.4999678,9.49998212 L15.4999785,9.49998212 C14.6716994,9.49998212 13.9999785,10.1717029 13.9999785,10.9999821 L13.9999785,13.9999714 C13.9999785,14.828247 14.6716994,15.4999678 15.4999785,15.4999678 L18.4999678,15.4999678 Z M9.49998927,22.9999499 C10.3282649,22.9999499 10.9999857,22.3282291 10.9999857,21.4999535 L10.9999857,18.4999642 C10.9999857,17.671685 10.3282649,16.9999642 9.49998927,16.9999642 L6.5,16.9999642 C5.67172081,16.9999642 5,17.671685 5,18.4999642 L5,21.4999535 C5,22.3282291 5.67172081,22.9999499 6.5,22.9999499 L9.49998927,22.9999499 Z M18.4999678,22.9999499 C19.3282434,22.9999499 19.9999642,22.3282291 19.9999642,21.4999535 L19.9999642,18.4999642 C19.9999642,17.671685 19.3282434,16.9999642 18.4999678,16.9999642 L15.4999785,16.9999642 C14.6716994,16.9999642 13.9999785,17.671685 13.9999785,18.4999642 L13.9999785,21.4999535 C13.9999785,22.3282291 14.6716994,22.9999499 15.4999785,22.9999499 L18.4999678,22.9999499 Z" id="grip-vertical"></path>
        </g>
    </g>
</svg>