<?xml version="1.0" encoding="UTF-8"?>
<svg width="24px" height="24px" viewBox="0 0 24 24" version="1.1" xmlns="http://www.w3.org/2000/svg" xmlns:xlink="http://www.w3.org/1999/xlink">
    <title></title>
    <g id="Icons" stroke="none" stroke-width="1" fill="none" fill-rule="evenodd">
        <g id="Icons-/-3.-Size-lg-/-Framework-/-home" fill="#151515">
            <path d="M23.2451943,14.7361452 C23.3913579,14.7361452 23.5856324,14.6446842 23.6787413,14.5320288 L24.8740509,13.0789073 C24.9446837,12.9929395 25.0019956,12.8329515 25.0019956,12.7217152 C25.0019956,12.5739952 24.9089782,12.3784848 24.7943545,12.2852843 L20.8756321,9.05512844 L20.8756321,2.56249866 C20.8756321,2.2519983 20.6236338,2 20.3131334,2 L17.6881397,2 C17.3776393,2 17.125641,2.2519983 17.125641,2.56249866 L17.125641,5.96610077 L12.9289195,2.51328918 C12.5850482,2.23034613 11.9445926,2.00068664 11.4992354,2.00068664 C11.053924,2.00068664 10.4134226,2.23034613 10.0695513,2.51328918 L-1.79588367,12.2852843 C-1.90853904,12.378439 -2,12.5726677 -2,12.718877 C-2,12.8306627 -1.94213881,12.9913373 -1.87086518,13.0774882 L-0.675555526,14.5306098 C-0.582400841,14.6438602 -0.387760192,14.7358247 -0.241138837,14.7358247 C-0.129490544,14.7358247 0.0310010171,14.6781009 0.117106158,14.6070103 L11.1430046,5.52545851 C11.229659,5.45560394 11.3902879,5.39893294 11.50157,5.39893294 C11.6128978,5.39893294 11.7735267,5.45560394 11.8601812,5.52545851 L22.8865831,14.6070103 C22.9726883,14.678284 23.1333629,14.7361452 23.2451943,14.7361452 Z M19.7506348,22.9976153 C20.1646353,22.9976153 20.500633,22.6616176 20.500633,22.2476171 L20.500633,14.5601355 L11.8601812,7.44732893 C11.7735267,7.37747436 11.6128978,7.32080335 11.50157,7.32080335 C11.3902879,7.32080335 11.229659,7.37747436 11.1430046,7.44732893 L2.50067592,14.5653082 L2.50067592,22.2476171 C2.50067592,22.6616176 2.83667365,22.9976153 3.25067413,22.9976153 L8.50345396,22.9840198 C8.91539451,22.9819599 9.2497443,22.6459621 9.2497443,22.2340216 L9.2497443,17.7476279 C9.2497443,17.3336274 9.58574203,16.9976296 9.99974251,16.9976296 L12.9997354,16.9976296 C13.4136901,16.9976296 13.7497336,17.3336274 13.7497336,17.7476279 L13.7496878,22.2331061 L13.7496878,22.2331061 C13.7496878,22.6471065 14.0856855,22.9831043 14.499686,22.9831043 L14.4997318,22.9831043 L19.7506348,22.9976153 Z" id="home"></path>
        </g>
    </g>
</svg>