<?xml version="1.0" encoding="UTF-8"?>
<svg width="24px" height="32px" viewBox="0 0 24 32" version="1.1" xmlns="http://www.w3.org/2000/svg" xmlns:xlink="http://www.w3.org/1999/xlink">
    <title></title>
    <g id="Icons" stroke="none" stroke-width="1" fill="none" fill-rule="evenodd">
        <g id="Icons-/-3.-Size-lg-/-Framework-/-task" fill="#020303" fill-rule="nonzero">
            <path d="M20,14.0044287 C20,14.3686596 19.7750066,14.6666667 19.5000146,14.6666667 L4.49998535,14.6489518 C4.22499341,14.6489518 4,14.3509861 4,13.9867139 L4,12.662238 C4,12.2980071 4.22499341,12 4.49998535,12 L19.5000146,12.0177149 C19.7750066,12.0177149 20,12.3157219 20,12.6799528 L20,14.0044287 Z M18.6666667,19.3333021 C18.6666667,19.7000047 18.440982,19.9999583 18.1651451,19.9999583 L7.16818821,20 C6.89235136,20 6.66666667,19.7000047 6.66666667,19.3333437 L6.66666667,18.0000312 C6.66666667,17.6333703 6.89235136,17.333375 7.16818821,17.333375 L18.1651451,17.3333333 C18.440982,17.3333333 18.6666667,17.6333286 18.6666667,17.9999896 L18.6666667,19.3333021 Z M16,24.6666354 C16,25.033338 15.7742186,25.3332917 15.4982635,25.3332917 L8.50173648,25.3333333 C8.22578142,25.3333333 8,25.033338 8,24.6666771 L8,23.3333646 C8,22.9667036 8.22578142,22.6667083 8.50173648,22.6667083 L15.4982635,22.6666667 C15.7742186,22.6666667 16,22.966662 16,23.3333229 L16,24.6666354 Z M12,2.66666667 C12.7388889,2.66666667 13.3333333,3.26111111 13.3333333,4 C13.3333333,4.73888889 12.7388889,5.33333333 12,5.33333333 C11.2611111,5.33333333 10.6666667,4.73888889 10.6666667,4 C10.6666667,3.26111111 11.2611111,2.66666667 12,2.66666667 L12,2.66666667 Z M21,4 L16,4 C16,1.79375 14.20625,0 12,0 C9.79375,0 8,1.79375 8,4 L3,4 C1.34375,4 0,5.34375 0,7 L0,29 C0,30.65625 1.34375,32 3,32 L21,32 C22.65625,32 24,30.65625 24,29 L24,7 C24,5.34375 22.65625,4 21,4 L21,4 Z" id="task"></path>
        </g>
    </g>
</svg>