<svg xmlns="http://www.w3.org/2000/svg" width="53" height="53" viewBox="0 0 53 53">
  <path fill="#151515" fill-rule="evenodd" d="M26.1561876,52.3123753 C40.6053719,52.3123753 52.3123753,40.6053719 52.3123753,26.1561876 C52.3123753,11.7070033 40.6053719,0 26.1561876,0 C11.7070033,0 0,11.7070033 0,26.1561876 C0,40.6053719 11.7070033,52.3123753 26.1561876,52.3123753 Z M24.3632232,41.7971454 L10.3781415,27.801455 C9.38669637,26.8206186 9.38669637,25.2174768 10.3781415,24.2261347 L11.5276863,23.0659812 C12.529637,22.0640305 14.1643988,22.0851448 15.1452352,23.1081068 L22.7811957,31.0709785 L22.7811957,11.8124718 C22.7811957,10.4097614 23.9097292,9.28122787 25.3124397,9.28122787 L26.9999356,9.28122787 C28.4026461,9.28122787 29.5311796,10.4097614 29.5311796,11.8124718 L29.5311796,31.0709785 L37.1671401,23.1081068 C38.1479765,22.0851448 39.7827382,22.0640305 40.784689,23.0659812 L41.9342338,24.2261347 C42.9256789,25.2069712 42.9256789,26.8101129 41.9342338,27.801455 L27.9386465,41.7971454 C26.957707,42.7885905 25.3546682,42.7885905 24.3632232,41.7971454 Z"/>
</svg>
