<svg xmlns="http://www.w3.org/2000/svg" width="48" height="54" viewBox="0 0 48 54">
  <path fill="#151515" fill-rule="evenodd" d="M42.1873994,53.9998713 C44.9823146,53.9998713 47.2498873,51.7322985 47.2498873,48.9373833 L47.2498873,28.6874316 C47.2498873,25.8925164 44.9823146,23.6249437 42.1873994,23.6249437 L39.6561555,23.6249437 L39.6561555,16.0312118 C39.6561555,7.1929722 32.4631833,0 23.6249437,0 C14.7867041,0 7.5937319,7.1929722 7.5937319,16.0312118 L7.5937319,23.6249437 L5.06248793,23.6249437 C2.26757272,23.6249437 0,25.8925164 0,28.6874316 L0,48.9373833 C0,51.7322985 2.26757272,53.9998713 5.06248793,53.9998713 L42.1873994,53.9998713 Z M31.2186756,23.6249437 L16.0312118,23.6249437 L16.0312118,16.0312118 C16.0312118,11.8440918 19.4378237,8.43747988 23.6249437,8.43747988 C27.8120637,8.43747988 31.2186756,11.8440918 31.2186756,16.0312118 L31.2186756,23.6249437 Z"/>
</svg>
