<svg xmlns="http://www.w3.org/2000/svg" width="54" height="54" viewBox="0 0 54 54">
  <path fill="#151515" fill-rule="evenodd" d="M27,15.1875 C25.1390408,15.1947271 23.6322271,16.7015408 23.625,18.5625 L23.625,35.4375 C23.625,37.301461 25.136039,38.8125 27,38.8125 C28.863961,38.8125 30.375,37.301461 30.375,35.4375 L30.375,18.5625 C30.3677729,16.7015408 28.8609592,15.1947271 27,15.1875 M27,47.25 C15.8150391,47.25 6.75,38.1849609 6.75,27 C6.75,15.8150391 15.8150391,6.75 27,6.75 C38.1849609,6.75 47.25,15.8150391 47.25,27 C47.25,38.1849609 38.1849609,47.25 27,47.25 M27,0 C12.0867187,0 0,12.0867187 0,27 C0,41.9132812 12.0867187,54 27,54 C41.9132812,54 54,41.9132812 54,27 C54,12.0867187 41.9132812,0 27,0"/>
</svg>
