<svg xmlns="http://www.w3.org/2000/svg" width="54" height="54" viewBox="0 0 54 54">
  <path fill="#151515" fill-rule="evenodd" d="M27,6.75 C15.8308594,6.75 6.75,15.8361328 6.75,27 C6.75,38.1744141 15.8308594,47.25 27,47.25 C38.1691406,47.25 47.25,38.1691406 47.25,27 C47.25,15.8308594 38.1638672,6.75 27,6.75 M27.0052734,54 C12.1183594,54 0,41.8869141 0,27 C0,12.1130859 12.1130859,0 27.0052734,0 C41.8974609,0 54,12.1130859 54,27 C54,41.8869141 41.8921875,54 27.0052734,54 M39.2396484,32.653125 C38.1375,35.0314453 36.478125,36.9316406 34.2615234,38.3537109 C32.0449219,39.7757813 29.6244141,40.4876953 27,40.4895937 C25.2007268,40.4953954 23.4196707,40.1291299 21.76875,39.4136719 C20.1128906,38.6964844 18.6679688,37.7419922 17.4550781,36.5291016 C16.2421875,35.3162109 15.2876953,33.8871094 14.5705078,32.2259766 C13.8572389,30.5745506 13.4927883,28.7935896 13.499793,26.9947266 C13.4942885,25.2307784 13.8384255,23.4832076 14.5125,21.853125 C15.1875,20.2183594 16.1015625,18.8033203 17.2546875,17.6080078 C18.4078125,16.4126953 19.7876953,15.4494141 21.3943359,14.7181641 C22.9971946,13.9867249 24.7278473,13.5764563 26.4884766,13.5105469 C27,13.4894531 27.5958984,13.8322266 27.7962891,14.3121094 C28.0072266,14.7919922 28.0388672,15.3351562 27.6486328,15.6990234 C26.6361328,16.6113281 25.7501953,17.6765625 25.2175781,18.8894531 C24.6849609,20.1023437 24.3,21.2625 24.3,22.6072266 C24.3,24.3421875 24.6111328,25.81875 25.4654297,27.2847656 C26.3010604,28.7294766 27.5011874,29.9296037 28.9458984,30.7652344 C30.4066406,31.6195313 32.0097656,32.0466797 33.7447266,32.0466797 C35.128827,32.0478965 36.4959215,31.7416961 37.7472656,31.1501953 C38.2271484,30.9392578 38.6490234,31.0130859 39.0128906,31.3769531 C39.1733774,31.5396382 39.2801274,31.7476167 39.31875,31.9728516 C39.3614376,32.2024029 39.3338689,32.4394932 39.2396484,32.653125"/>
</svg>
