<?xml version="1.0" encoding="UTF-8"?><svg version="1.1" width="50px" height="36px" viewBox="0 0 50.0 36.0" xmlns="http://www.w3.org/2000/svg" xmlns:xlink="http://www.w3.org/1999/xlink"><defs><clipPath id="i0"><path d="M63,0 C64.6568542,-3.04359188e-16 66,1.34314575 66,3 L66,49 C66,50.6568542 64.6568542,52 63,52 L3,52 C1.34314575,52 1.09108455e-15,50.6568542 0,49 L0,3 C-2.02906125e-16,1.34314575 1.34314575,1.19253761e-15 3,0 L63,0 Z"></path></clipPath><clipPath id="i1"><path d="M47,0 C48.6568542,-3.04359188e-16 50,1.34314575 50,3 L50,33 C50,34.6568542 48.6568542,36 47,36 L3,36 C1.34314575,36 2.02906125e-16,34.6568542 0,33 L0,3 C-2.02906125e-16,1.34314575 1.34314575,-5.83819232e-16 3,0 L47,0 Z"></path></clipPath><clipPath id="i2"><path d="M50,0 L50,6 L0,6 L0,0 L50,0 Z"></path></clipPath></defs><g transform="translate(-8.0 -8.0)"><g clip-path="url(#i0)"><polygon points="0,0 66,0 66,52 0,52 0,0" stroke="none" fill="rgba(0, 102, 204, 0.2)"></polygon></g><g clip-path="url(#i0)"><path d="M3,0 L63,0 C64.6568542,-3.04359188e-16 66,1.34314575 66,3 L66,49 C66,50.6568542 64.6568542,52 63,52 L3,52 C1.34314575,52 1.09108455e-15,50.6568542 0,49 L0,3 C-2.02906125e-16,1.34314575 1.34314575,1.19253761e-15 3,0 Z" stroke="#0066CC" stroke-width="2" fill="none" stroke-miterlimit="5"></path></g></g><g clip-path="url(#i1)"><polygon points="0,0 50,0 50,36 0,36 0,0" stroke="none" fill="#FFFFFF"></polygon></g><g transform="translate(0.0 6.0)"><text transform="translate(0.0 16.0)" font-family="RedHatText-Regular, Red Hat Text" font-size="16.0" font-weight="normal" fill="#003F80" text-anchor="left" line-spacing="24.0">Button</text></g><g clip-path="url(#i2)"><polygon points="0,0 50,0 50,6 0,6 0,0" stroke="none" fill="rgba(243, 213, 59, 0.9)"></polygon></g><g clip-path="url(#i2)"><polygon points="0,0 50,0 50,6 0,6 0,0 0,0" stroke="#CAB534" stroke-width="2" fill="none" stroke-miterlimit="5"></polygon></g><g transform="translate(0.0 30.0)"><g clip-path="url(#i2)"><polygon points="0,0 50,0 50,6 0,6 0,0" stroke="none" fill="rgba(243, 213, 59, 0.9)"></polygon></g><g clip-path="url(#i2)"><polygon points="0,0 50,0 50,6 0,6 0,0 0,0" stroke="#CAB534" stroke-width="2" fill="none" stroke-miterlimit="5"></polygon></g></g></svg>