<?xml version="1.0" encoding="UTF-8"?><svg version="1.1" width="50px" height="36px" viewBox="0 0 50.0 36.0" xmlns="http://www.w3.org/2000/svg" xmlns:xlink="http://www.w3.org/1999/xlink"><defs><clipPath id="i0"><path d="M50,0 L50,6 L0,6 L0,0 L50,0 Z"></path></clipPath></defs><g transform="translate(0.0 6.0)"><text transform="translate(0.0 16.0)" font-family="RedHatText-Regular, Red Hat Text" font-size="16.0" font-weight="normal" fill="#003F80" text-anchor="left" line-spacing="24.0">Button</text></g><g clip-path="url(#i0)"><polygon points="0,0 50,0 50,6 0,6 0,0" stroke="none" fill="rgba(243, 213, 59, 0.9)"></polygon></g><g clip-path="url(#i0)"><polygon points="0,0 50,0 50,6 0,6 0,0 0,0" stroke="#CAB534" stroke-width="2" fill="none" stroke-miterlimit="5"></polygon></g><g transform="translate(0.0 30.0)"><g clip-path="url(#i0)"><polygon points="0,0 50,0 50,6 0,6 0,0" stroke="none" fill="rgba(243, 213, 59, 0.9)"></polygon></g><g clip-path="url(#i0)"><polygon points="0,0 50,0 50,6 0,6 0,0 0,0" stroke="#CAB534" stroke-width="2" fill="none" stroke-miterlimit="5"></polygon></g></g></svg>