<?xml version="1.0" encoding="UTF-8"?>
<svg width="136px" height="36px" viewBox="0 0 136 36" version="1.1" xmlns="http://www.w3.org/2000/svg" xmlns:xlink="http://www.w3.org/1999/xlink">
    <title></title>
    <g id="Labels" stroke="none" stroke-width="1" fill="none" fill-rule="evenodd">
        <g id="Labels-/-9.-Label-group-/-1.-Group-/-2.-Dismissible">
            <rect id="Background" stroke="#F0F0F0" fill="#FFFFFF" x="0.5" y="0.5" width="135" height="35" rx="3"></rect>
            <text id="âœï¸-Label" font-family="RedHatText-Regular, Red Hat Text" font-size="14" font-weight="normal" line-spacing="21" fill="#151515">
                <tspan x="8" y="22">Label group</tspan>
            </text>
            <g id="Button-/-6.-Icon-button-/-Default" transform="translate(103.833321, 9.874991)" fill="#6A6E73">
                <path d="M7.74998152,15.499963 C12.0312213,15.499963 15.499963,12.0312213 15.499963,7.74998152 C15.499963,3.46874173 12.0312213,0 7.74998152,0 C3.46874173,0 0,3.46874173 0,7.74998152 C0,12.0312213 3.46874173,15.499963 7.74998152,15.499963 Z M5.18437485,11.5499603 L3.95000279,10.3124754 C3.80312204,10.1655947 3.80312204,9.92810743 3.95000279,9.78122668 L5.99998569,7.74998152 L3.95000279,5.71562358 C3.80312204,5.56874283 3.80312204,5.33122508 3.95000279,5.18437485 L5.18748763,3.94685949 C5.33436839,3.79997873 5.57185561,3.79997873 5.71873637,3.94685949 L7.74998152,5.99998569 L9.78433947,3.95000279 C9.93122022,3.80312204 10.168738,3.80312204 10.3155882,3.95000279 L11.5531036,5.18748763 C11.6999843,5.33436839 11.6999843,5.57185561 11.5531036,5.71873637 L9.49997735,7.74998152 L11.5499603,9.78433947 C11.696841,9.93122022 11.696841,10.168738 11.5499603,10.3155882 L10.3124754,11.5499603 C10.1655947,11.696841 9.92810743,11.696841 9.78122668,11.5499603 L7.74998152,9.49997735 L5.71562358,11.5499603 C5.56874283,11.696841 5.33122508,11.696841 5.18437485,11.5499603 Z" id="times-circle"></path>
            </g>
            <g id="ðŸ“-Padding" fill-opacity="0.9">
                <g id="Spacer-/-Horizontal-/-2.-pf-global--spacer--sm-(8px)" transform="translate(0.000000, 4.000000)" fill="#92D400" stroke="#7FB300">
                    <rect id="Rectangle-Copy" x="0.5" y="0.5" width="7" height="27"></rect>
                </g>
                <g id="Spacer-/-Vertical-/-2.-pf-global--spacer--sm-(8px)" fill="#EC7A08" stroke="#C77000">
                    <rect id="Rectangle" x="0.5" y="0.5" width="135" height="3"></rect>
                </g>
                <g id="Spacer-/-Horizontal-/-2.-pf-global--spacer--sm-(8px)" transform="translate(132.000000, 4.000000)" fill="#EC7A08" stroke="#C77000">
                    <rect id="Rectangle" x="0.5" y="0.5" width="3" height="27"></rect>
                </g>
                <g id="Spacer-/-Vertical-/-2.-pf-global--spacer--sm-(8px)" transform="translate(0.000000, 32.000000)" fill="#EC7A08" stroke="#C77000">
                    <rect id="Rectangle" x="0.5" y="0.5" width="135" height="3"></rect>
                </g>
                <g id="Spacer-/-Horizontal-/-2.-pf-global--spacer--sm-(8px)" transform="translate(84.000000, 4.000000)" fill="#92D400" stroke="#7FB300">
                    <rect id="Rectangle-Copy" x="0.5" y="0.5" width="7" height="27"></rect>
                </g>
            </g>
        </g>
    </g>
</svg>