<?xml version="1.0" encoding="UTF-8"?>
<svg width="268px" height="40px" viewBox="0 0 268 40" version="1.1" xmlns="http://www.w3.org/2000/svg" xmlns:xlink="http://www.w3.org/1999/xlink">
    <title></title>
    <defs>
        <rect id="path-1" x="0" y="0" width="80" height="40"></rect>
        <filter x="-8.8%" y="-12.5%" width="117.5%" height="135.0%" filterUnits="objectBoundingBox" id="filter-2">
            <feOffset dx="0" dy="2" in="SourceAlpha" result="shadowOffsetOuter1"></feOffset>
            <feGaussianBlur stdDeviation="2" in="shadowOffsetOuter1" result="shadowBlurOuter1"></feGaussianBlur>
            <feComposite in="shadowBlurOuter1" in2="SourceAlpha" operator="out" result="shadowBlurOuter1"></feComposite>
            <feColorMatrix values="0 0 0 0 0   0 0 0 0 0   0 0 0 0 0  0 0 0 0.5 0" type="matrix" in="shadowBlurOuter1"></feColorMatrix>
        </filter>
    </defs>
    <g id="Tree-view" stroke="none" stroke-width="1" fill="none" fill-rule="evenodd">
        <g id="Tree-view-/-3.-With-icon-/-Item-/-4.-Fourth-level-/-Selected">
            <g id="Dropdowns-/-3.-Menu-Item-/-Default">
                <text id="âœï¸-Label" font-family="RedHatText-Medium, Red Hat Text" font-size="16" font-weight="400" line-spacing="24" fill="#0066CC">
                    <tspan x="128" y="24">Fourth level</tspan>
                </text>
                <g id="ðŸ“-Padding">
                    <g id="Group" fill="#92D400" fill-opacity="0.9" stroke="#7FB300">
                        <g id="Spacer-/-Vertical-/-2.-pf-global--spacer--sm-(8px)">
                            <rect id="Rectangle-Copy" x="0.5" y="0.5" width="259" height="7"></rect>
                        </g>
                    </g>
                    <g id="Group" transform="translate(0.000000, 32.000000)" fill="#92D400" fill-opacity="0.9" stroke="#7FB300">
                        <g id="Spacer-/-Vertical-/-2.-pf-global--spacer--sm-(8px)">
                            <rect id="Rectangle-Copy" x="0.5" y="0.5" width="259" height="7"></rect>
                        </g>
                    </g>
                    <g id="Group" transform="translate(260.000000, 0.000000)" fill="#92D400" fill-opacity="0.9" stroke="#7FB300">
                        <g id="Spacer-/-Horizontal-/-4.-pf-global--spacer--lg-(24px)">
                            <rect id="Rectangle-Copy" x="0.5" y="0.5" width="7" height="39"></rect>
                        </g>
                    </g>
                    <g id="Group" transform="translate(120.000000, 0.000000)" fill="#92D400" fill-opacity="0.9" stroke="#7FB300">
                        <g id="Spacer-/-Horizontal-/-4.-pf-global--spacer--lg-(24px)">
                            <rect id="Rectangle-Copy" x="0.5" y="0.5" width="7" height="39"></rect>
                        </g>
                    </g>
                    <g id="Group" transform="translate(80.000000, 0.000000)" fill="#007A87" fill-opacity="0.9" stroke="#09707B">
                        <g id="Spacer-/-Horizontal-/-4.-pf-global--spacer--lg-(24px)">
                            <rect id="Rectangle-Copy-3" x="0.5" y="0.5" width="23" height="39"></rect>
                        </g>
                    </g>
                    <g id="Rectangle-Copy-6">
                        <use fill="black" fill-opacity="1" filter="url(#filter-2)" xlink:href="#path-1"></use>
                        <rect stroke="#8F008F" stroke-width="1" stroke-linejoin="square" fill="#B300B3" fill-rule="evenodd" x="0.5" y="0.5" width="79" height="39"></rect>
                    </g>
                </g>
            </g>
            <g id="Icons/1.-Size-md-(16px)/Framework/folder" transform="translate(99.992188, 8.000000)" fill="#6A6E73">
                <path d="M3,16.18891 L5.15865574,12.4883573 C5.69417693,11.5702992 6.68715552,10.9999881 7.74998868,10.9999881 L17.9999642,10.9999881 L17.9999642,9.5 C17.9999642,8.67156345 17.328396,8 16.4999678,8 L11.4999797,8 L9.4999845,6 L4.5,6 C3.67156822,6 3,6.67156822 3,7.5 L3,16.18891 Z M16.9059117,17.9999714 C17.5400044,17.9999714 18.3138978,17.5554534 18.6333856,17.0077252 L20.8966553,13.1278822 C21.1883416,12.6278834 20.8276858,11.9999857 20.2488297,11.9999857 L7.74998868,11.9999857 C7.11586543,11.9999857 6.3419415,12.4445037 6.02242321,12.9922319 L3.75918398,16.8720749 C3.46752818,17.3720737 3.82818406,17.9999714 4.4070401,17.9999714 L16.9059117,17.9999714 Z" id="folder-open"></path>
            </g>
        </g>
    </g>
</svg>