<?xml version="1.0" encoding="UTF-8"?><svg version="1.1" width="540px" height="56px" viewBox="0 0 540.0 55.99999999999999" xmlns="http://www.w3.org/2000/svg" xmlns:xlink="http://www.w3.org/1999/xlink"><defs><clipPath id="i0"><path d="M540,0 L540,56 L0,56 L0,0 L540,0 Z"></path></clipPath><clipPath id="i1"><path d="M16,0 L16,56 L0,56 L0,0 L16,0 Z"></path></clipPath><clipPath id="i2"><path d="M540,0 L540,16 L0,16 L0,0 L540,0 Z"></path></clipPath><clipPath id="i3"><path d="M0.923421565,0.22032113 C1.21718307,-0.0734403767 1.69218804,-0.0734403767 1.98280625,0.22032113 L6.23279611,4.470311 C6.52967041,4.7640725 6.52967041,5.23904696 6.2359089,5.53280846 L1.98591903,9.78279833 C1.69218804,10.0765598 1.21718307,10.0765598 0.926564869,9.78279833 L0.220298242,9.07656222 C-0.0734327473,8.78280072 -0.0734327473,8.30779574 0.220298242,8.01717754 L3.23280327,5.00467252 L0.220298242,1.99219801 C-0.0734327473,1.6984365 -0.0734327473,1.22343153 0.220298242,0.932813328 Z"></path></clipPath><clipPath id="i4"><path d="M24,0 C28.9705627,-9.13077564e-16 33,4.02943725 33,9 C33,13.9705627 28.9705627,18 24,18 L9,18 C4.02943725,18 6.08718376e-16,13.9705627 0,9 C-6.08718376e-16,4.02943725 4.02943725,9.13077564e-16 9,0 L24,0 Z"></path></clipPath></defs><g transform=""><g clip-path="url(#i0)"><polygon points="0,0 540,0 540,56 0,56 0,0" stroke="none" fill="#FFFFFF"></polygon><g transform="translate(0.0 -1.0)"><polygon points="540,56 540,57 0,57 0,56 540,56 540,56" stroke="none" fill="#D2D2D2"></polygon></g></g></g><g transform="translate(16.0 16.0)"><text transform="translate(0.0 16.0)" font-family="RedHatText-Regular, Red Hat Text" font-size="16.0" font-weight="normal" fill="#151515" text-anchor="left" line-spacing="24.0">Group name</text></g><g transform=""><g transform="translate(524.0 0.0)"><g clip-path="url(#i1)"><polygon points="0,0 16,0 16,56 0,56 0,0" stroke="none" fill="rgba(62, 156, 52, 0.9)"></polygon></g><g clip-path="url(#i1)"><polygon points="0,0 16,0 16,56 0,56 0,0 0,0" stroke="#418A37" stroke-width="2" fill="none" stroke-miterlimit="5"></polygon></g></g><g clip-path="url(#i1)"><polygon points="0,0 16,0 16,56 0,56 0,0" stroke="none" fill="rgba(62, 156, 52, 0.9)"></polygon></g><g clip-path="url(#i1)"><polygon points="0,0 16,0 16,56 0,56 0,0 0,0" stroke="#418A37" stroke-width="2" fill="none" stroke-miterlimit="5"></polygon></g><g transform="translate(500.0 0.0)"><g clip-path="url(#i1)"><polygon points="0,0 16,0 16,56 0,56 0,0" stroke="none" fill="rgba(62, 156, 52, 0.9)"></polygon></g><g clip-path="url(#i1)"><polygon points="0,0 16,0 16,56 0,56 0,0 0,0" stroke="#418A37" stroke-width="2" fill="none" stroke-miterlimit="5"></polygon></g></g><g clip-path="url(#i2)"><polygon points="0,0 540,0 540,16 0,16 0,0" stroke="none" fill="rgba(62, 156, 52, 0.9)"></polygon></g><g clip-path="url(#i2)"><polygon points="0,0 540,0 540,16 0,16 0,0 0,0" stroke="#418A37" stroke-width="2" fill="none" stroke-miterlimit="5"></polygon></g><g transform="translate(0.0 40.0)"><g clip-path="url(#i2)"><polygon points="0,0 540,0 540,16 0,16 0,0" stroke="none" fill="rgba(62, 156, 52, 0.9)"></polygon></g><g clip-path="url(#i2)"><polygon points="0,0 540,0 540,16 0,16 0,0 0,0" stroke="#418A37" stroke-width="2" fill="none" stroke-miterlimit="5"></polygon></g></g></g><g transform="translate(508.0 16.0)"><g transform="translate(9.0 6.999999999999999)"><g clip-path="url(#i3)"><polygon points="-2.77555756e-17,-2.77555756e-17 6.45584247,-2.77555756e-17 6.45584247,10.0031195 -2.77555756e-17,10.0031195 -2.77555756e-17,-2.77555756e-17" stroke="none" fill="#696E73"></polygon></g></g></g><g transform="translate(467.0 19.0)"><g clip-path="url(#i4)"><polygon points="0,0 33,0 33,18 0,18 0,0" stroke="none" fill="#0066CC"></polygon></g><g transform="translate(8.0 0.0)"><text transform="translate(0.41199999999999903 12.0)" font-family="RedHatText-Medium, Red Hat Text" font-size="12.0" font-weight="400" fill="#FFFFFF" text-anchor="center" line-spacing="18.0">00</text></g></g></svg>