<?xml version="1.0" encoding="UTF-8"?><svg version="1.1" width="540px" height="56px" viewBox="0 0 540.0 55.99999999999999" xmlns="http://www.w3.org/2000/svg" xmlns:xlink="http://www.w3.org/1999/xlink"><defs><clipPath id="i0"><path d="M540,0 L540,56 L0,56 L0,0 L540,0 Z"></path></clipPath><clipPath id="i1"><path d="M0.926557239,0.220298242 C1.22031875,-0.0734327473 1.69532372,-0.0734327473 1.98594192,0.220298242 L4.99844695,3.23280327 L8.01092145,0.220298242 C8.30468296,-0.0734327473 8.77968793,-0.0734327473 9.07030613,0.220298242 L9.77654224,0.926564869 C10.0703037,1.22029586 10.0703037,1.69530083 9.77654224,1.98591903 L5.52655238,6.2359089 C5.23904696,6.52967041 4.7640725,6.52967041 4.470311,6.2359089 L0.22032113,1.98591903 C-0.0734403767,1.69218804 -0.0734403767,1.21718307 0.22032113,0.926564869 Z"></path></clipPath><clipPath id="i2"><path d="M24,0 C28.9705627,-9.13077564e-16 33,4.02943725 33,9 C33,13.9705627 28.9705627,18 24,18 L9,18 C4.02943725,18 6.08718376e-16,13.9705627 0,9 C-6.08718376e-16,4.02943725 4.02943725,9.13077564e-16 9,0 L24,0 Z"></path></clipPath></defs><g transform=""><g clip-path="url(#i0)"><polygon points="0,0 540,0 540,56 0,56 0,0" stroke="none" fill="#FFFFFF"></polygon><g transform="translate(0.0 -1.0)"><polygon points="540,56 540,57 0,57 0,56 540,56 540,56" stroke="none" fill="#D2D2D2"></polygon></g></g></g><g transform="translate(16.0 16.0)"><text transform="translate(0.0 16.0)" font-family="RedHatText-Regular, Red Hat Text" font-size="16.0" font-weight="normal" fill="#151515" text-anchor="left" line-spacing="24.0">Group name</text></g><g transform="translate(507.0 17.00000000000003)"><g transform="translate(7.0 9.0)"><g clip-path="url(#i1)"><polygon points="0,0 9.99686337,0 9.99686337,6.45623003 0,6.45623003 0,0" stroke="none" fill="#696E73"></polygon></g></g></g><g transform="translate(467.0 19.0)"><g clip-path="url(#i2)"><polygon points="0,0 33,0 33,18 0,18 0,0" stroke="none" fill="#0066CC"></polygon></g><g transform="translate(8.0 0.0)"><text transform="translate(0.41199999999999903 12.0)" font-family="RedHatText-Medium, Red Hat Text" font-size="12.0" font-weight="400" fill="#FFFFFF" text-anchor="center" line-spacing="18.0">00</text></g></g></svg>