<svg xmlns="http://www.w3.org/2000/svg" width="196" height="56" viewBox="0 0 196 56">
  <g fill="none" fill-rule="evenodd">
    <g transform="translate(156)">
      <path fill="#6A6E73" d="M10.985919,16.7827983 L15.2359089,12.5328085 C15.5296704,12.239047 15.5296704,11.7640725 15.2327961,11.470311 L10.9828062,7.22032113 C10.692188,6.92655962 10.2171831,6.92655962 9.92342157,7.22032113 L9.22029824,7.93281333 C8.92656725,8.22343153 8.92656725,8.6984365 9.22029824,8.99219801 L12.2328033,12.0046725 L9.22029824,15.0171775 C8.92656725,15.3077957 8.92656725,15.7828007 9.22029824,16.0765622 L9.92656487,16.7827983 C10.2171831,17.0765598 10.692188,17.0765598 10.985919,16.7827983 Z" transform="translate(8 16)"/>
      <g fill-opacity=".9">
        <rect width="39" height="15" x=".5" y=".5" fill="#3F9C35" stroke="#418A38"/>
        <rect width="39" height="15" x=".5" y=".5" fill="#3F9C35" stroke="#418A38" transform="translate(0 40)"/>
        <rect width="7" height="23" x=".5" y=".5" fill="#92D400" stroke="#7FB300" transform="translate(0 16)"/>
        <rect width="7" height="23" x=".5" y=".5" fill="#92D400" stroke="#7FB300" transform="translate(32 16)"/>
      </g>
    </g>
    <path fill="#D2D2D2" d="M14.5324209,16.7827983 L15.238657,16.0734189 C15.5324185,15.7828007 15.5324185,15.3077957 15.238657,15.0140648 L12.2261825,12.0015597 L15.2355442,8.98594192 C15.5292752,8.69532372 15.5292752,8.22031875 15.2355442,7.92655724 L14.5292776,7.22032113 C14.2386594,6.92655962 13.7636544,6.92655962 13.4699234,7.22032113 L9.21993357,11.470311 C8.92617206,11.7640725 8.92617206,12.239047 9.22304636,12.5328085 L13.4730362,16.7827983 C13.7636544,17.0765598 14.2386594,17.0765598 14.5324209,16.7827983 Z" transform="translate(8 16)"/>
    <g fill-opacity=".9">
      <rect width="39" height="15" x=".5" y=".5" fill="#3F9C35" stroke="#418A38"/>
      <rect width="39" height="15" x=".5" y=".5" fill="#3F9C35" stroke="#418A38" transform="translate(0 40)"/>
      <rect width="7" height="23" x=".5" y=".5" fill="#92D400" stroke="#7FB300" transform="translate(0 16)"/>
      <rect width="7" height="23" x=".5" y=".5" fill="#92D400" stroke="#7FB300" transform="translate(32 16)"/>
    </g>
    <g transform="translate(40)">
      <path fill="#151515" d="M12.0876296,14.0874818 L16.1063883,10.0656103 C16.5001252,9.6718734 16.2220191,9 15.6657461,9 L7.62514633,9 C7.06890376,9 6.79076721,9.6718734 7.18453458,10.0656103 L11.2032628,14.0874818 C11.4470061,14.3312251 11.8438863,14.3312251 12.0876296,14.0874818 Z" transform="translate(92 15)"/>
      <text fill="#151515" font-family="RedHatText-Medium, Red Hat Text" font-size="16" font-weight="400">
        <tspan x="8" y="31">1 - 10</tspan> <tspan x="44.32" y="31" font-family="RedHatText-Regular, Red Hat Text" font-weight="normal"> of </tspan> <tspan x="66.992" y="31">37</tspan>
      </text>
      <rect width="7" height="55" x=".5" y=".5" fill="#92D400" fill-opacity=".9" stroke="#7FB300"/>
    </g>
  </g>
</svg>
