<?xml version="1.0" encoding="UTF-8"?>
<svg width="712px" height="25px" viewBox="0 0 712 25" version="1.1" xmlns="http://www.w3.org/2000/svg" xmlns:xlink="http://www.w3.org/1999/xlink">
    <title></title>
    <defs>
        <rect id="path-1" x="0" y="0" width="712" height="25"></rect>
        <filter x="-2.0%" y="-40.0%" width="103.9%" height="212.0%" filterUnits="objectBoundingBox" id="filter-2">
            <feOffset dx="0" dy="0" in="SourceAlpha" result="shadowOffsetOuter1"></feOffset>
            <feGaussianBlur stdDeviation="2" in="shadowOffsetOuter1" result="shadowBlurOuter1"></feGaussianBlur>
            <feColorMatrix values="0 0 0 0 0   0 0 0 0 0   0 0 0 0 0  0 0 0 0.06 0" type="matrix" in="shadowBlurOuter1" result="shadowMatrixOuter1"></feColorMatrix>
            <feOffset dx="0" dy="4" in="SourceAlpha" result="shadowOffsetOuter2"></feOffset>
            <feGaussianBlur stdDeviation="4" in="shadowOffsetOuter2" result="shadowBlurOuter2"></feGaussianBlur>
            <feColorMatrix values="0 0 0 0 0   0 0 0 0 0   0 0 0 0 0  0 0 0 0.12 0" type="matrix" in="shadowBlurOuter2" result="shadowMatrixOuter2"></feColorMatrix>
            <feMerge>
                <feMergeNode in="shadowMatrixOuter1"></feMergeNode>
                <feMergeNode in="shadowMatrixOuter2"></feMergeNode>
            </feMerge>
        </filter>
    </defs>
    <g id="Banner" stroke="none" stroke-width="1" fill="none" fill-rule="evenodd">
        <g id="Banner-/-1.-Default-/-2.-With-icon">
            <g id="ðŸ“-Padding" fill="#92D400" fill-opacity="0.9" stroke="#7FB300">
                <g id="Spacer-/-Horizontal-/-2.-pf-global--spacer--sm-(8px)">
                    <rect id="Rectangle-Copy" x="0.5" y="0.5" width="7" height="17"></rect>
                </g>
                <g id="Spacer-/-Horizontal-/-2.-pf-global--spacer--sm-(8px)" transform="translate(25.000000, 0.000000)">
                    <rect id="Rectangle-Copy" x="0.5" y="0.5" width="7" height="17"></rect>
                </g>
            </g>
            <g id="Shadow">
                <use fill="black" fill-opacity="1" filter="url(#filter-2)" xlink:href="#path-1"></use>
                <use fill="#FFFFFF" fill-rule="evenodd" xlink:href="#path-1"></use>
            </g>
            <rect id="Background" fill="#4F5255" x="0" y="0" width="712" height="25"></rect>
            <g id="Group" transform="translate(332.000000, 1.000000)" fill="#FFFFFF">
                <text id="Text" font-family="RedHatText-Regular, Red Hat Text" font-size="12" font-weight="normal" line-spacing="18">
                    <tspan x="24.266" y="15">Text</tspan>
                </text>
                <g id="Icons/2.-Size-sm/Status/exclamation-circle" transform="translate(6.999984, 6.000000)">
                    <path d="M9.74767389,9.74997675 C10.1957777,9.74997675 10.4976721,9.38436178 10.5000156,8.99997854 C10.501174,8.82303042 10.4388267,8.64209976 10.2982021,8.49115255 C9.8454062,8.0045967 8.99813344,7.27263433 8.99813344,4.87498838 C8.99813344,3.05389439 7.72127338,1.59608079 5.99955965,1.23843089 L5.99955965,0.749998212 C5.99955965,0.335860405 5.66392813,0 5.2500192,0 C4.83611028,0 4.50047875,0.335860405 4.50047875,0.749998212 L4.50047875,1.23843089 C2.77876502,1.59608079 1.50190497,3.05389439 1.50190497,4.87498838 C1.50190497,7.27263433 0.654632211,8.0045967 0.201836354,8.49115255 C0.0612116897,8.64232864 -0.00113557376,8.82303042 1.56425204e-05,8.99997854 C0.0026180794,9.38436178 0.304260732,9.74997675 0.752364522,9.74997675 L9.74767389,9.74997675 Z M5.2500192,11.999975 C6.07783705,11.999975 6.7493061,11.3284795 6.7493061,10.499975 L3.75073231,10.499975 C3.75073231,11.3284795 4.42220135,11.999975 5.2500192,11.999975 Z" id="bell"></path>
                </g>
            </g>
            <text id="Optional-text-right" font-family="RedHatText-Regular, Red Hat Text" font-size="12" font-weight="normal" line-spacing="18" fill="#FFFFFF">
                <tspan x="617.092" y="16">Optional text</tspan>
            </text>
            <text id="Optional-text-left" font-family="RedHatText-Regular, Red Hat Text" font-size="12" font-weight="normal" line-spacing="18" fill="#FFFFFF">
                <tspan x="24" y="16">Optional text</tspan>
            </text>
        </g>
    </g>
</svg>