<?xml version="1.0" encoding="UTF-8"?>
<svg width="24px" height="24px" viewBox="0 0 24 24" version="1.1" xmlns="http://www.w3.org/2000/svg" xmlns:xlink="http://www.w3.org/1999/xlink">
    <title></title>
    <g id="Icons" stroke="none" stroke-width="1" fill="none" fill-rule="evenodd">
        <g id="Icons-/-2.-Size-sm-/-Status-/-arrow-circle-down" fill="#151515">
            <path d="M11.8124861,17.6249723 C15.023416,17.6249723 17.6249723,15.023416 17.6249723,11.8124861 C17.6249723,8.6015563 15.023416,6 11.8124861,6 C8.6015563,6 6,8.6015563 6,11.8124861 C6,15.023416 8.6015563,17.6249723 11.8124861,17.6249723 Z M11.4140496,15.2882545 L8.30625366,12.1781011 C8.08593253,11.9601375 8.08593253,11.6038837 8.30625366,11.3835855 L8.56170806,11.1257736 C8.78436378,10.9031179 9.14764417,10.90781 9.36560782,11.1351349 L11.0624879,12.9046619 L11.0624879,8.62499374 C11.0624879,8.31328031 11.3132732,8.06249508 11.6249866,8.06249508 L11.9999857,8.06249508 C12.3116991,8.06249508 12.5624844,8.31328031 12.5624844,8.62499374 L12.5624844,12.9046619 L14.2593645,11.1351349 C14.4773281,10.90781 14.8406085,10.9031179 15.0632642,11.1257736 L15.3187186,11.3835855 C15.5390398,11.6015491 15.5390398,11.9578029 15.3187186,12.1781011 L12.2085881,15.2882545 C11.9906016,15.5085757 11.6343707,15.5085757 11.4140496,15.2882545 Z" id="arrow-circle-down"></path>
        </g>
    </g>
</svg>