<?xml version="1.0" encoding="UTF-8"?>
<svg width="24px" height="24px" viewBox="0 0 24 24" version="1.1" xmlns="http://www.w3.org/2000/svg" xmlns:xlink="http://www.w3.org/1999/xlink">
    <title></title>
    <g id="Icons" stroke="none" stroke-width="1" fill="none" fill-rule="evenodd">
        <g id="Icons-/-2.-Size-sm-/-Status-/-history" fill="#151515">
            <path d="M11.8166976,17.6249509 C15.0192046,17.6227064 17.6309003,15.003984 17.6249824,11.8014998 C17.6190443,8.59640647 15.0189528,6 11.8124861,6 C10.2551092,6 8.8408288,6.612555 7.79731322,7.60979078 L6.64018097,6.45265853 C6.4039297,6.21643015 6,6.38374237 6,6.7178175 L6,10.1249902 C6,10.3321048 6.16788443,10.4999893 6.37499911,10.4999893 L9.78217177,10.4999893 C10.1162469,10.4999893 10.2835591,10.0960596 10.0473079,9.8598083 L8.85776601,8.67026646 C9.62930195,7.94457544 10.6684001,7.5 11.8124861,7.5 C14.195827,7.5 16.1249759,9.42877906 16.1249759,11.8124861 C16.1249759,14.195827 14.1961932,16.1249759 11.8124861,16.1249759 C10.7995491,16.1249759 9.86862023,15.7765728 9.13304154,15.1928797 C8.90949319,15.0155196 8.58736566,15.0376066 8.3856068,15.2393655 L8.12152357,15.5034487 C7.88561562,15.7393567 7.90502475,16.1284549 8.1646448,16.3379728 C9.16304788,17.1437723 10.433545,17.6259336 11.8166976,17.6249509 Z M13.3848548,13.6479996 L13.6150865,13.3519646 C13.8058133,13.1067412 13.7616392,12.7533256 13.5164158,12.5626217 L12.5624879,11.8206572 L12.5624879,9.37499195 C12.5624879,9.06433138 12.3106463,8.81249329 11.9999857,8.81249329 L11.6249866,8.81249329 C11.314326,8.81249329 11.0624879,9.06433138 11.0624879,9.37499195 L11.0624879,12.5543133 L12.5955119,13.7466704 C12.8407353,13.9373743 13.1941281,13.8932231 13.3848548,13.6479996 Z" id="history"></path>
        </g>
    </g>
</svg>