<?xml version="1.0" encoding="UTF-8"?>
<svg width="24px" height="24px" viewBox="0 0 24 24" version="1.1" xmlns="http://www.w3.org/2000/svg" xmlns:xlink="http://www.w3.org/1999/xlink">
    <title></title>
    <g id="Icons" stroke="none" stroke-width="1" fill="none" fill-rule="evenodd">
        <g id="Icons-/-2.-Size-sm-/-Status-/-lock" fill="#151515">
            <path d="M16.3749776,17.9999714 C16.9960699,17.9999714 17.499975,17.4960663 17.499975,16.8749741 L17.499975,12.3749848 C17.499975,11.7538925 16.9960699,11.2499875 16.3749776,11.2499875 L15.812479,11.2499875 L15.812479,9.56249151 C15.812479,7.59843827 14.2140407,6 12.2499875,6 C10.2859342,6 8.68749598,7.59843827 8.68749598,9.56249151 L8.68749598,11.2499875 L8.12499732,11.2499875 C7.50390505,11.2499875 7,11.7538925 7,12.3749848 L7,16.8749741 C7,17.4960663 7.50390505,17.9999714 8.12499732,17.9999714 L16.3749776,17.9999714 Z M13.9374835,11.2499875 L10.5624915,11.2499875 L10.5624915,9.56249151 C10.5624915,8.6320204 11.3195164,7.87499553 12.2499875,7.87499553 C13.1804586,7.87499553 13.9374835,8.6320204 13.9374835,9.56249151 L13.9374835,11.2499875 Z" id="lock"></path>
        </g>
    </g>
</svg>