<?xml version="1.0" encoding="UTF-8"?>
<svg width="24px" height="24px" viewBox="0 0 24 24" version="1.1" xmlns="http://www.w3.org/2000/svg" xmlns:xlink="http://www.w3.org/1999/xlink">
    <title></title>
    <g id="Icons" stroke="none" stroke-width="1" fill="none" fill-rule="evenodd">
        <g id="Icons-/-2.-Size-sm-/-Status-/-lock-open" fill="#151515">
            <path d="M14.3749776,18 C14.9960699,18 15.499975,17.4960894 15.499975,16.8749971 L15.499975,12.3750078 C15.499975,11.7539156 14.9960699,11.2500105 14.3749776,11.2500105 L13.2499803,11.2500105 L13.2499803,9.58361741 C13.2499803,8.65548089 13.9929519,7.88440271 14.9210655,7.87501857 C15.8585633,7.86563444 16.6249723,8.62735138 16.6249723,9.56251455 L16.6249723,11.4375101 C16.6249723,11.7492235 16.8757575,12 17.1874709,12 L17.9374692,12 C18.2491826,12 18.4999678,11.7492235 18.4999678,11.4375101 L18.4999678,9.56251455 C18.4999678,7.59376924 16.8945029,5.99299639 14.9257576,6 C12.9570123,6.0070497 11.3749848,7.62892541 11.3749848,9.59767072 L11.3749848,11.2500105 L6.12499732,11.2500105 C5.50390505,11.2500105 5,11.7539156 5,12.3750078 L5,16.8749971 C5,17.4960894 5.50390505,18 6.12499732,18 L14.3749776,18 Z" id="lock-open"></path>
        </g>
    </g>
</svg>