<?xml version="1.0" encoding="UTF-8"?>
<svg width="24px" height="24px" viewBox="0 0 24 24" version="1.1" xmlns="http://www.w3.org/2000/svg" xmlns:xlink="http://www.w3.org/1999/xlink">
    <title></title>
    <g id="Icons" stroke="none" stroke-width="1" fill="none" fill-rule="evenodd">
        <g id="Icons-/-2.-Size-sm-/-Status-/-pficon-resources-almost-empty" fill="#151515">
            <path d="M12.0011719,6 C8.69179687,6 6,8.69296875 6,12 C6,15.3082031 8.69296875,18 12.0011719,18 C15.309375,18 18,15.3082031 18,12 C18,8.69179687 15.309375,6 12.0011719,6 Z M12,16.5 C9.51796875,16.5 7.5,14.4832031 7.5,12 C7.5,9.51914063 9.51796875,7.5 12,7.5 C14.4808594,7.5 16.5,9.51796875 16.5,12 C16.5,14.4820312 14.4808594,16.5 12,16.5 Z M8.9765625,13.5 C9.52851563,14.6109375 10.6757812,15.375 12,15.375 C13.3242188,15.375 14.4714844,14.6109375 15.0234375,13.5 L8.9765625,13.5 Z" id="pficon-resources-almost-empty"></path>
        </g>
    </g>
</svg>