<?xml version="1.0" encoding="UTF-8"?>
<svg width="24px" height="24px" viewBox="0 0 24 24" version="1.1" xmlns="http://www.w3.org/2000/svg" xmlns:xlink="http://www.w3.org/1999/xlink">
    <title></title>
    <g id="Icons" stroke="none" stroke-width="1" fill="none" fill-rule="evenodd">
        <g id="Icons-/-2.-Size-sm-/-Status-/-pficon-asleep" fill="#151515">
            <path d="M12,7.5 C9.51796875,7.5 7.5,9.51914063 7.5,12 C7.5,14.4832031 9.51796875,16.5 12,16.5 C14.4820312,16.5 16.5,14.4820312 16.5,12 C16.5,9.51796875 14.4808594,7.5 12,7.5 M12.0011719,18 C8.69296875,18 6,15.3082031 6,12 C6,8.69179687 8.69179687,6 12.0011719,6 C15.3105469,6 18,8.69179687 18,12 C18,15.3082031 15.309375,18 12.0011719,18 M14.7199219,13.25625 C14.475,13.7847656 14.10625,14.2070312 13.6136719,14.5230469 C13.1210938,14.8390625 12.5832031,14.9972656 12,14.9976875 C11.6001615,14.9989768 11.2043713,14.9175844 10.8375,14.7585937 C10.4695312,14.5992188 10.1484375,14.3871094 9.87890625,14.1175781 C9.609375,13.8480469 9.39726562,13.5304688 9.23789063,13.1613281 C9.07938642,12.7943446 8.99839739,12.3985755 8.99995401,11.9988281 C8.99873078,11.6068397 9.07520568,11.2184906 9.225,10.85625 C9.375,10.4929687 9.578125,10.1785156 9.834375,9.91289062 C10.090625,9.64726562 10.3972656,9.43320313 10.7542969,9.27070313 C11.1104877,9.1081611 11.4950772,9.01699029 11.8863281,9.00234375 C12,8.99765625 12.1324219,9.07382813 12.1769531,9.18046875 C12.2238281,9.28710938 12.2308594,9.4078125 12.1441406,9.48867187 C11.9191406,9.69140625 11.7222656,9.928125 11.6039062,10.1976563 C11.4855469,10.4671875 11.4,10.725 11.4,11.0238281 C11.4,11.409375 11.4691406,11.7375 11.6589844,12.0632812 C11.8446801,12.3843281 12.111375,12.651023 12.4324219,12.8367188 C12.7570313,13.0265625 13.1132812,13.1214844 13.4988281,13.1214844 C13.806406,13.1217548 14.1102048,13.0537102 14.3882813,12.9222656 C14.4949219,12.8753906 14.5886719,12.8917969 14.6695312,12.9726562 C14.705195,13.0088085 14.7289172,13.0550259 14.7375,13.1050781 C14.7469861,13.1560895 14.7408598,13.2087763 14.7199219,13.25625" id="pficon-asleep"></path>
        </g>
    </g>
</svg>