<?xml version="1.0" encoding="UTF-8"?><svg version="1.1" width="105px" height="36px" viewBox="0 0 105.0 36.0" xmlns="http://www.w3.org/2000/svg" xmlns:xlink="http://www.w3.org/1999/xlink"><defs><clipPath id="i0"><path d="M119,0 C120.656854,-3.04359188e-16 122,1.34314575 122,3 L122,49 C122,50.6568542 120.656854,52 119,52 L3,52 C1.34314575,52 3.7556198e-15,50.6568542 0,49 L0,3 C-2.02906125e-16,1.34314575 1.34314575,1.63662682e-15 3,0 L119,0 Z"></path></clipPath><clipPath id="i1"><path d="M102,0 C103.656854,-3.04359188e-16 105,1.34314575 105,3 L105,33 C105,34.6568542 103.656854,36 102,36 L3,36 C1.34314575,36 1.09108455e-15,34.6568542 0,33 L0,3 C-2.02906125e-16,1.34314575 1.34314575,-5.83819232e-16 3,0 L102,0 Z"></path></clipPath><clipPath id="i2"><path d="M12,0 C16.9705627,-9.13077564e-16 21,4.02943725 21,9 C21,13.9705627 16.9705627,18 12,18 L9,18 C4.02943725,18 6.08718376e-16,13.9705627 0,9 C-6.08718376e-16,4.02943725 4.02943725,9.13077564e-16 9,0 L12,0 Z"></path></clipPath><clipPath id="i3"><path d="M8,0 L8,18 L0,18 L0,0 L8,0 Z"></path></clipPath></defs><g transform="translate(-9.0 -8.0)"><g clip-path="url(#i0)"><polygon points="0,0 122,0 122,52 0,52 0,0" stroke="none" fill="rgba(0, 102, 204, 0.2)"></polygon></g><g clip-path="url(#i0)"><path d="M3,0 L119,0 C120.656854,-3.04359188e-16 122,1.34314575 122,3 L122,49 C122,50.6568542 120.656854,52 119,52 L3,52 C1.34314575,52 3.7556198e-15,50.6568542 0,49 L0,3 C-2.02906125e-16,1.34314575 1.34314575,1.63662682e-15 3,0 Z" stroke="#0066CC" stroke-width="2" fill="none" stroke-miterlimit="5"></path></g></g><g clip-path="url(#i1)"><polygon points="0,0 105,0 105,36 0,36 0,0" stroke="none" fill="#FFFFFF"></polygon></g><g transform="translate(16.0 6.0)"><text transform="translate(0.0 16.0)" font-family="RedHatText-Regular, Red Hat Text" font-size="16.0" font-weight="normal" fill="#003F80" text-anchor="left" line-spacing="24.0">Issues</text></g><g transform="translate(68.0 9.0)"><g clip-path="url(#i2)"><polygon points="0,0 21,0 21,18 0,18 0,0" stroke="none" fill="#003F80"></polygon></g><g transform="translate(8.0 0.0)"><text transform="translate(0.44799999999999995 12.0)" font-family="RedHatText-Medium, Red Hat Text" font-size="12.0" font-weight="400" fill="#FFFFFF" text-anchor="center" line-spacing="18.0">1</text></g><g clip-path="url(#i3)"><polygon points="0,0 8,0 8,18 0,18 0,0" stroke="none" fill="rgba(146, 211, 0, 0.9)"></polygon></g><g clip-path="url(#i3)"><polygon points="0,0 8,0 8,18 0,18 0,0 0,0" stroke="#7EB200" stroke-width="2" fill="none" stroke-miterlimit="5"></polygon></g><g transform="translate(13.0 0.0)"><g clip-path="url(#i3)"><polygon points="0,0 8,0 8,18 0,18 0,0" stroke="none" fill="rgba(146, 211, 0, 0.9)"></polygon></g><g clip-path="url(#i3)"><polygon points="0,0 8,0 8,18 0,18 0,0 0,0" stroke="#7EB200" stroke-width="2" fill="none" stroke-miterlimit="5"></polygon></g></g></g></svg>