<?xml version="1.0" encoding="UTF-8"?>
<svg width="143px" height="36px" viewBox="0 0 143 36" version="1.1" xmlns="http://www.w3.org/2000/svg" xmlns:xlink="http://www.w3.org/1999/xlink">
    <title></title>
    <g id="Dark-Theme" stroke="none" stroke-width="1" fill="none" fill-rule="evenodd">
        <g id="Dark-Theme-/-Button-/-Link-button-/-Default">
            <rect id="Background" x="0" y="0" width="143" height="36" rx="3"></rect>
            <text id="âœï¸-Label" font-family="RedHatText-Regular, Red Hat Text" font-size="16" font-weight="normal" line-spacing="24" fill="#2B9AF3">
                <tspan x="44" y="22">Link button</tspan>
            </text>
            <g id="Icons/1.-Size-md-(16px)/Actions/plus-circle" transform="translate(16.000000, 6.000000)" fill="#2B9AF3">
                <path d="M11.7499815,19.499963 C16.0312213,19.499963 19.499963,16.0312213 19.499963,11.7499815 C19.499963,7.46874173 16.0312213,4 11.7499815,4 C7.46874173,4 4,7.46874173 4,11.7499815 C4,16.0312213 7.46874173,19.499963 11.7499815,19.499963 Z M12.6249794,16.2499708 L10.8749836,16.2499708 C10.6687463,16.2499708 10.4999845,16.081209 10.4999845,15.8749717 L10.4999845,12.9999785 L7.62499136,12.9999785 C7.41875406,12.9999785 7.24999225,12.8312167 7.24999225,12.6249794 L7.24999225,10.8749836 C7.24999225,10.6687463 7.41875406,10.4999845 7.62499136,10.4999845 L10.4999845,10.4999845 L10.4999845,7.62499136 C10.4999845,7.41875406 10.6687463,7.24999225 10.8749836,7.24999225 L12.6249794,7.24999225 C12.8312167,7.24999225 12.9999785,7.41875406 12.9999785,7.62499136 L12.9999785,10.4999845 L15.8749717,10.4999845 C16.081209,10.4999845 16.2499708,10.6687463 16.2499708,10.8749836 L16.2499708,12.6249794 C16.2499708,12.8312167 16.081209,12.9999785 15.8749717,12.9999785 L12.9999785,12.9999785 L12.9999785,15.8749717 C12.9999785,16.081209 12.8312167,16.2499708 12.6249794,16.2499708 Z" id="plus-circle"></path>
            </g>
            <g id="ðŸ“-Padding" fill-opacity="0.9">
                <g id="Spacer-/-Horizontal-/-3.-pf-global--spacer--md-(16px)" fill="#3F9C35" stroke="#418A38">
                    <rect id="Rectangle-Copy-2" x="0.5" y="0.5" width="15" height="35"></rect>
                </g>
                <g id="Spacer-/-Horizontal-/-3.-pf-global--spacer--md-(16px)" transform="translate(127.000000, 0.000000)" fill="#3F9C35" stroke="#418A38">
                    <rect id="Rectangle-Copy-2" x="0.5" y="0.5" width="15" height="35"></rect>
                </g>
                <g id="Spacer-/-Vertical-/-8.-pf-global--spacer--form-element-(6px)" transform="translate(16.000000, 0.000000)" fill="#F3D53C" stroke="#CBB534">
                    <rect id="Rectangle" x="0.5" y="0.5" width="110" height="5"></rect>
                </g>
                <g id="Spacer-/-Vertical-/-8.-pf-global--spacer--form-element-(6px)" transform="translate(16.000000, 30.000000)" fill="#F3D53C" stroke="#CBB534">
                    <rect id="Rectangle" x="0.5" y="0.5" width="110" height="5"></rect>
                </g>
                <g id="Spacer-/-Horizontal-/-1.-pf-global--spacer--xs-(4px)" transform="translate(40.000000, 6.000000)" fill="#EC7A08" stroke="#C77000">
                    <rect id="Rectangle" x="0.5" y="0.5" width="3" height="23"></rect>
                </g>
            </g>
        </g>
    </g>
</svg>