<svg xmlns="http://www.w3.org/2000/svg" width="24" height="24" viewBox="0 0 24 24">
  <path fill="#151515" fill-rule="evenodd" d="M11.7499815,19.499963 C16.0312213,19.499963 19.499963,16.0312213 19.499963,11.7499815 C19.499963,7.46874173 16.0312213,4 11.7499815,4 C7.46874173,4 4,7.46874173 4,11.7499815 C4,16.0312213 7.46874173,19.499963 11.7499815,19.499963 Z M11.9999809,16.7499696 L11.4999821,16.7499696 C11.0843642,16.7499696 10.7499839,16.4155893 10.7499839,15.9999714 L10.7499839,10.2937472 L8.48747709,12.6531166 C8.19685889,12.9562164 7.71248505,12.9624725 7.41249797,12.6655982 L7.07186157,12.3218491 C6.77813058,12.0312309 6.77813058,11.5562259 7.07186157,11.2624949 L11.2218456,7.11562368 C11.5124943,6.82186217 11.9874687,6.82186217 12.2812303,7.11562368 L16.4249582,11.2624949 C16.7187197,11.5531131 16.7187197,12.0281181 16.4249582,12.3218491 L16.0843523,12.6655982 C15.787478,12.9624725 15.3031042,12.9562164 15.012486,12.6531166 L12.7499791,10.2937472 L12.7499791,15.9999714 C12.7499791,16.4155893 12.4155988,16.7499696 11.9999809,16.7499696 Z"/>
</svg>
