<?xml version="1.0" encoding="UTF-8"?>
<svg width="223px" height="222px" viewBox="0 0 223 222" version="1.1" xmlns="http://www.w3.org/2000/svg" xmlns:xlink="http://www.w3.org/1999/xlink">
    <title></title>
    <g id="Charts" stroke="none" stroke-width="1" fill="none" fill-rule="evenodd">
        <g id="Group" transform="translate(6.000000, 8.000000)">
            <path d="M213.981682,105.000036 C212.915323,163.171592 165.426342,210 107,210 C48.5736583,210 1.08467743,163.171592 0.0183178487,105.000036 Z" id="Combined-Shape" fill="#0066CC"></path>
            <path d="M213.963365,-2.7920704e-14 C212.897005,58.1715559 165.408024,104.999964 106.981683,104.999964 C48.5553411,104.999964 1.06636024,58.1715559 6.57045095e-07,-3.57790478e-14 Z" id="Combined-Shape" fill="#009596" transform="translate(106.981683, 52.499982) scale(1, -1) translate(-106.981683, -52.499982) "></path>
            <path d="M106.981683,-7.10542736e-15 C106.987692,-7.10542736e-15 106.993702,4.95425438e-07 106.999711,1.48623771e-06 L106.999001,104.999 L6.57045195e-07,104.999964 C1.05569664,47.4101238 47.6102038,0.937702479 105.232209,0.0140130372 Z" id="Combined-Shape" fill="#F0AB00"></path>
            <path d="M213.999999,105.000036 C213.307119,142.797708 193.015037,175.806407 162.858195,194.291691 L107.063082,105.000036 L213.999999,105.000036 Z" id="Combined-Shape" fill="#4CB140"></path>
        </g>
    </g>
</svg>