<svg xmlns="http://www.w3.org/2000/svg" xmlns:xlink="http://www.w3.org/1999/xlink" width="140" height="36" viewBox="0 0 140 36">
  <defs>
    <rect id="success-a" width="140" height="36" x="0" y="0"/>
    <filter id="success-b" width="101.4%" height="105.6%" x="-.7%" y="-2.8%" filterUnits="objectBoundingBox">
      <feOffset dx="1" in="SourceAlpha" result="shadowOffsetInner1"/>
      <feComposite in="shadowOffsetInner1" in2="SourceAlpha" k2="-1" k3="1" operator="arithmetic" result="shadowInnerInner1"/>
      <feColorMatrix in="shadowInnerInner1" result="shadowMatrixInner1" values="0 0 0 0 0.929411765   0 0 0 0 0.929411765   0 0 0 0 0.929411765  0 0 0 1 0"/>
      <feOffset dx="-1" in="SourceAlpha" result="shadowOffsetInner2"/>
      <feComposite in="shadowOffsetInner2" in2="SourceAlpha" k2="-1" k3="1" operator="arithmetic" result="shadowInnerInner2"/>
      <feColorMatrix in="shadowInnerInner2" result="shadowMatrixInner2" values="0 0 0 0 0.929411765   0 0 0 0 0.929411765   0 0 0 0 0.929411765  0 0 0 1 0"/>
      <feOffset dy="1" in="SourceAlpha" result="shadowOffsetInner3"/>
      <feComposite in="shadowOffsetInner3" in2="SourceAlpha" k2="-1" k3="1" operator="arithmetic" result="shadowInnerInner3"/>
      <feColorMatrix in="shadowInnerInner3" result="shadowMatrixInner3" values="0 0 0 0 0.929411765   0 0 0 0 0.929411765   0 0 0 0 0.929411765  0 0 0 1 0"/>
      <feOffset dy="-2" in="SourceAlpha" result="shadowOffsetInner4"/>
      <feComposite in="shadowOffsetInner4" in2="SourceAlpha" k2="-1" k3="1" operator="arithmetic" result="shadowInnerInner4"/>
      <feColorMatrix in="shadowInnerInner4" result="shadowMatrixInner4" values="0 0 0 0 0.243137255   0 0 0 0 0.525490196   0 0 0 0 0.207843137  0 0 0 1 0"/>
      <feMerge>
        <feMergeNode in="shadowMatrixInner1"/>
        <feMergeNode in="shadowMatrixInner2"/>
        <feMergeNode in="shadowMatrixInner3"/>
        <feMergeNode in="shadowMatrixInner4"/>
      </feMerge>
    </filter>
  </defs>
  <g fill="none" fill-rule="evenodd">
    <use fill="#FFF" xlink:href="#success-a"/>
    <use fill="#000" filter="url(#success-b)" xlink:href="#success-a"/>
    <path fill="#151515" d="M12.0876296,14.0874818 L16.1063883,10.0656103 C16.5001252,9.6718734 16.2220191,9 15.6657461,9 L7.62514633,9 C7.06890376,9 6.79076721,9.6718734 7.18453458,10.0656103 L11.2032628,14.0874818 C11.4470061,14.3312251 11.8438863,14.3312251 12.0876296,14.0874818 Z" transform="translate(108 6)"/>
    <text fill="#151515" font-family="RedHatText-Regular, Red Hat Text" font-size="16">
      <tspan x="8" y="22">Dropdown</tspan>
    </text>
    <g fill-opacity=".9">
      <rect width="7" height="35" x=".5" y=".5" fill="#92D400" stroke="#7FB300"/>
      <rect width="7" height="35" x=".5" y=".5" fill="#92D400" stroke="#7FB300" transform="translate(132)"/>
      <rect width="123" height="5" x=".5" y=".5" fill="#F3D53C" stroke="#CBB534" transform="translate(8)"/>
      <rect width="123" height="5" x=".5" y=".5" fill="#F3D53C" stroke="#CBB534" transform="translate(8 30)"/>
    </g>
    <path fill="#3E8635" d="M11.7499815,19.499963 C16.0301837,19.499963 19.499963,16.0301837 19.499963,11.7499815 C19.499963,7.46977933 16.0301837,4 11.7499815,4 C7.46977933,4 4,7.46977933 4,11.7499815 C4,16.0301837 7.46977933,19.499963 11.7499815,19.499963 Z M10.1464087,15.8535179 L6.89641643,12.6035256 C6.70119595,12.4082746 6.70119595,12.0916555 6.89641643,11.8964045 L7.60353755,11.1893139 C7.79878855,10.9940629 8.11540767,10.9940629 8.31065867,11.1893139 L10.4999845,13.3786703 L15.1893044,8.68935039 C15.3845859,8.49406888 15.701205,8.49406888 15.8964255,8.68935039 L16.6035466,9.39644099 C16.7987671,9.59169199 16.7987671,9.90831111 16.6035466,10.1035621 L10.8535603,15.8535484 C10.6582788,16.0487689 10.3416902,16.0487689 10.1464087,15.8535179 Z" transform="translate(84 6)"/>
  </g>
</svg>
