<?xml version="1.0" encoding="UTF-8"?>
<svg width="52px" height="52px" viewBox="0 0 52 52" version="1.1" xmlns="http://www.w3.org/2000/svg" xmlns:xlink="http://www.w3.org/1999/xlink">
    <title></title>
    <g id="Icons" stroke="none" stroke-width="1" fill="none" fill-rule="evenodd">
        <g id="Icons/4.-Size-xl-(54px)/Empty-state/check-circle" fill="#3E8635">
            <path d="M26,52 C30.6827962,52 35.016129,50.8293005 39,48.4879032 C42.983871,46.1465059 46.1465059,42.983871 48.4879032,39 C50.8293005,35.016129 52,30.6827962 52,26 C52,21.3172038 50.8293005,16.983871 48.4879032,13 C46.1465059,9.01612903 42.983871,5.85349409 39,3.51209677 C35.016129,1.17069946 30.6827962,0 26,0 C21.3172038,0 16.983871,1.17069946 13,3.51209677 C9.01612903,5.85349409 5.85349409,9.01612903 3.51209677,13 C1.17069946,16.983871 0,21.3172038 0,26 C0,30.6827962 1.17069946,35.016129 3.51209677,39 C5.85349409,42.983871 9.01612903,46.1465059 13,48.4879032 C16.983871,50.8293005 21.3172038,52 26,52 Z M21.8064516,40.2580645 C21.3172038,40.2580645 20.9327962,40.0833328 20.6532258,39.733871 L9.75,28.8306452 C9.40053817,28.5510747 9.22580645,28.1666672 9.22580645,27.6774194 C9.22580645,27.1881715 9.40053817,26.803764 9.75,26.5241935 L12.0564516,24.1129032 C12.4059134,23.7634414 12.8077962,23.5887097 13.2620968,23.5887097 C13.7163973,23.5887097 14.1182801,23.7634414 14.4677419,24.1129032 L21.8064516,31.4516129 L37.5322581,15.7258065 C37.8817199,15.3763446 38.2836027,15.2016129 38.7379032,15.2016129 C39.1922038,15.2016129 39.5940866,15.3763446 39.9435484,15.7258065 L42.25,18.1370968 C42.5994618,18.4166672 42.7741935,18.8010747 42.7741935,19.2903226 C42.7741935,19.7795704 42.5994618,20.163978 42.25,20.4435484 L22.9596774,39.733871 C22.680107,40.0833328 22.2956995,40.2580645 21.8064516,40.2580645 Z" id="check-circle"></path>
        </g>
    </g>
</svg>