<?xml version="1.0" encoding="UTF-8"?>
<svg width="54px" height="47px" viewBox="0 0 54 47" version="1.1" xmlns="http://www.w3.org/2000/svg" xmlns:xlink="http://www.w3.org/1999/xlink">
    <title></title>
    <g id="Icons" stroke="none" stroke-width="1" fill="none" fill-rule="evenodd">
        <g id="Icons/4.-Size-xl-(54px)/Empty-state/cubes" fill="#6A6E73">
            <path d="M37.96875,46.5808254 C39.0937505,47.1397249 40.2187495,47.1397249 41.34375,46.5808254 L41.34375,46.5808254 L51.890625,41.3411374 C52.5234375,41.0616869 53.0332026,40.6075811 53.4199219,39.9788186 C53.8066412,39.350056 54,38.6863627 54,37.9877371 L54,37.9877371 L54,26.4604237 C54,25.6919367 53.7714838,24.9758449 53.3144531,24.3121516 C52.8574224,23.6484584 52.2773443,23.1768864 51.5742188,22.8974359 L51.5742188,22.8974359 L41.34375,19.1248606 L41.34375,7.70234087 C41.34375,6.93385384 41.1152338,6.23522825 40.6582031,5.60646569 C40.2011724,4.97770314 39.6210943,4.52359739 38.9179688,4.24414683 L38.9179688,4.24414683 L28.3710938,0.261983997 C27.4570307,-0.087327999 26.5429693,-0.087327999 25.6289062,0.261983997 L25.6289062,0.261983997 L15.0820312,4.24414683 C14.3789057,4.52359739 13.7988276,4.97770314 13.3417969,5.60646569 C12.8847662,6.23522825 12.65625,6.93385384 12.65625,7.70234087 L12.65625,7.70234087 L12.65625,19.1248606 L2.42578125,22.8974359 C1.72265571,23.1768864 1.14257759,23.6484584 0.685546875,24.3121516 C0.228516161,24.9758449 0,25.6919367 0,26.4604237 L0,26.4604237 L0,37.9877371 C0,38.6863627 0.193358839,39.350056 0.580078125,39.9788186 C0.966797411,40.6075811 1.4765625,41.0616869 2.109375,41.3411374 L2.109375,41.3411374 L12.65625,46.5808254 C13.7812505,47.1397249 14.9062495,47.1397249 16.03125,46.5808254 L16.03125,46.5808254 L27,41.1315499 L37.96875,46.5808254 Z M27,11.998885 L16.2421875,7.70234087 L16.2421875,7.59754711 L27,3.61538428 L37.7578125,7.59754711 L37.7578125,7.70234087 L27,11.998885 Z M28.7929688,22.5830546 L28.7929688,15.3522853 L37.7578125,11.4749162 L37.7578125,19.2296543 L28.7929688,22.5830546 Z M14.34375,30.7569678 L3.5859375,26.3556299 L14.34375,22.2686733 L25.1015625,26.3556299 L14.34375,30.7569678 Z M39.65625,30.7569678 L28.8984375,26.3556299 L39.65625,22.2686733 L50.4140625,26.3556299 L39.65625,30.7569678 Z M16.1367188,42.5986625 L16.1367188,34.3199556 L25.1015625,30.232999 L25.1015625,38.0925309 L16.1367188,42.5986625 Z M41.4492188,42.5986625 L41.4492188,34.3199556 L50.4140625,30.232999 L50.4140625,38.0925309 L41.4492188,42.5986625 Z" id="cubes"></path>
        </g>
    </g>
</svg>