<?xml version="1.0" encoding="UTF-8"?>
<svg width="54px" height="54px" viewBox="0 0 54 54" version="1.1" xmlns="http://www.w3.org/2000/svg" xmlns:xlink="http://www.w3.org/1999/xlink">
    <title></title>
    <g id="Icons" stroke="none" stroke-width="1" fill="none" fill-rule="evenodd">
        <g id="Icons/4.-Size-xl-(54px)/Empty-state/wrench" fill="#6A6E73">
            <path d="M6.69724966,53.7499839 C8.560527,53.7499839 10.1601315,53.0820173 11.4960663,51.7460824 L11.4960663,51.7460824 L33.9608565,29.2812922 C36.7030375,30.1953531 39.4627971,30.3359772 42.2401337,29.7031662 C45.0174703,29.0703552 47.4608243,27.7344204 49.5701943,25.6953633 C51.4686273,23.7266175 52.7694049,21.4590447 53.4725288,18.8926451 C54.1756526,16.3262455 54.2108083,13.777423 53.5779973,11.246179 C53.4373731,10.7539921 53.1385446,10.4551653 52.681515,10.3496968 C52.2244854,10.2442283 51.8201884,10.3672754 51.4686273,10.7188365 L51.4686273,10.7188365 L43.5584899,18.5235054 L36.386632,17.3633519 L35.2264785,10.191494 L43.0311474,2.28135662 C43.3827085,1.92979549 43.5057556,1.52549851 43.4002872,1.06846888 C43.2948187,0.611439261 42.9959918,0.312610775 42.5038049,0.171986647 C39.9725609,-0.460824344 37.4061614,-0.425668715 34.8046045,0.277455145 C32.2030477,0.980579006 29.9530536,2.28135662 28.0546206,4.17978959 C26.0155635,6.21884669 24.6796287,8.64462216 24.0468177,11.457116 C23.4140067,14.2696098 23.5546308,17.0117908 24.4686917,19.6836589 L24.4686917,19.6836589 L2.00390147,42.2539176 C0.667966621,43.5898524 0,45.1894569 0,47.0527342 C0,48.9160116 0.650389611,50.4980391 1.95116722,51.7988167 C3.25194484,53.0995943 4.83397231,53.7499839 6.69724966,53.7499839 Z M6.74998391,49.531244 C6.04686005,49.531244 5.44920629,49.2851513 4.95701943,48.7929645 C4.46483257,48.3007776 4.21873994,47.7031239 4.21873994,47 C4.21873994,46.2968761 4.46483257,45.6992224 4.95701943,45.2070355 C5.44920629,44.7148487 6.04686005,44.468756 6.74998391,44.468756 C7.45310777,44.468756 8.05076152,44.7148487 8.54294838,45.2070355 C9.03513524,45.6992224 9.28122787,46.2968761 9.28122787,47 C9.28122787,47.7031239 9.03513524,48.3007776 8.54294838,48.7929645 C8.05076152,49.2851513 7.45310777,49.531244 6.74998391,49.531244 Z" id="wrench"></path>
        </g>
    </g>
</svg>