<?xml version="1.0" encoding="UTF-8"?>
<svg width="330px" height="37px" viewBox="0 0 330 37" version="1.1" xmlns="http://www.w3.org/2000/svg" xmlns:xlink="http://www.w3.org/1999/xlink">
    <title></title>
    <g id="Dual-list" stroke="none" stroke-width="1" fill="none" fill-rule="evenodd">
        <g id="Dual-list-/-1.-Single-level-/-Default">
            <rect id="Rectangle" fill="#FFFFFF" x="0" y="0" width="330" height="37"></rect>
            <text id="Label" font-family="RedHatText-Regular, Red Hat Text" font-size="14" font-weight="normal" line-spacing="21" fill="#151515">
                <tspan x="16" y="22">Type something</tspan>
            </text>
            <g id="ðŸ“-Padding" transform="translate(-1.000000, 0.000000)" fill-opacity="0.9">
                <g id="Spacer-/-Vertical-/-2.-pf-global--spacer--sm-(8px)" transform="translate(1.000000, 0.000000)" fill="#92D400" stroke="#7FB300">
                    <rect id="Rectangle-Copy" x="0.5" y="0.5" width="328" height="7"></rect>
                </g>
                <g id="Spacer-/-Vertical-/-2.-pf-global--spacer--sm-(8px)" transform="translate(1.000000, 29.000000)" fill="#92D400" stroke="#7FB300">
                    <rect id="Rectangle-Copy" x="0.5" y="0.5" width="328" height="7"></rect>
                </g>
                <g id="Spacer-/-Horizontal-/-3.-pf-global--spacer--md-(16px)" transform="translate(0.500000, 0.000000)" fill="#3F9C35" stroke="#418A38">
                    <rect id="Rectangle-Copy-2" x="0.5" y="0.5" width="15" height="36"></rect>
                </g>
                <g id="Spacer-/-Horizontal-/-3.-pf-global--spacer--md-(16px)" transform="translate(315.000000, 0.000000)" fill="#3F9C35" stroke="#418A38">
                    <rect id="Rectangle-Copy-2" x="0.5" y="0.5" width="15" height="36"></rect>
                </g>
            </g>
            <g id="Labels-/-2.-Blue-/-Filled-/-With-icon-/-Default" transform="translate(235.000000, -23.000000)">
                <rect id="Rectangle" stroke="#BEE1F4" fill="#E7F1FA" x="0" y="0" width="95" height="24" rx="12"></rect>
                <text id="Label" font-family="RedHatText-Regular, Red Hat Text" font-size="12" font-weight="normal" line-spacing="18" fill="#002952">
                    <tspan x="24" y="15">Pre-release</tspan>
                </text>
                <g id="Tag-icon">
                    <g id="star" fill="#151515">
                        <path d="M9.20624413,17.9135414 L12.2695227,16.3033844 L15.3328012,17.9135414 C15.8765545,18.1994828 16.5257534,17.740118 16.4202849,17.1236949 L15.8343488,13.7135468 L18.3116912,11.2994901 C18.7570026,10.8658974 18.5109094,10.1088725 17.8968438,10.0198148 L14.4726424,9.5206018 L12.9421819,6.41747505 C12.6679592,5.86436052 11.8734207,5.85733387 11.5968634,6.41747505 L10.0664029,9.5206018 L6.64220148,10.0198148 C6.02813587,10.1088725 5.7820427,10.8658974 6.22735414,11.2994901 L8.70469656,13.7135468 L8.11876046,17.1236949 C8.01329196,17.740118 8.66249085,18.2018174 9.20624413,17.9135414 Z"></path>
                    </g>
                    <rect id="ðŸŽ¨-Color" fill="#0066CC" x="0" y="0" width="24" height="24"></rect>
                </g>
            </g>
        </g>
    </g>
</svg>