<?xml version="1.0" encoding="UTF-8"?><svg version="1.1" width="330px" height="37px" viewBox="0 0 330.0 37.0" xmlns="http://www.w3.org/2000/svg" xmlns:xlink="http://www.w3.org/1999/xlink"><defs><clipPath id="i0"><path d="M330,0 L330,37 L0,37 L0,0 L330,0 Z"></path></clipPath><clipPath id="i1"><path d="M299,0 L299,21 L0,21 L0,0 L299,0 Z"></path></clipPath><clipPath id="i2"><path d="M329,0 L329,8 L0,8 L0,0 L329,0 Z"></path></clipPath><clipPath id="i3"><path d="M16,0 L16,37 L0,37 L0,0 L16,0 Z"></path></clipPath></defs><g clip-path="url(#i0)"><polygon points="0,0 330,0 330,37 0,37 0,0" stroke="none" fill="#F0F0F0"></polygon></g><g transform="translate(16.0 8.0)"><g clip-path="url(#i1)"><text transform="translate(0.0 14.0)" font-family="RedHatText-Medium, Red Hat Text" font-size="14.0" font-weight="400" fill="#0066CC" text-anchor="left" line-spacing="21.0">Type something</text></g></g><g transform="translate(1.0 0.0)"><g clip-path="url(#i2)"><polygon points="0,0 329,0 329,8 0,8 0,0" stroke="none" fill="rgba(146, 211, 0, 0.9)"></polygon></g><g clip-path="url(#i2)"><polygon points="0,0 329,0 329,8 0,8 0,0 0,0" stroke="#7EB200" stroke-width="2" fill="none" stroke-miterlimit="5"></polygon></g></g><g transform="translate(1.0 29.0)"><g clip-path="url(#i2)"><polygon points="0,0 329,0 329,8 0,8 0,0" stroke="none" fill="rgba(146, 211, 0, 0.9)"></polygon></g><g clip-path="url(#i2)"><polygon points="0,0 329,0 329,8 0,8 0,0 0,0" stroke="#7EB200" stroke-width="2" fill="none" stroke-miterlimit="5"></polygon></g></g><g transform="translate(0.5 0.0)"><g clip-path="url(#i3)"><polygon points="0,0 16,0 16,37 0,37 0,0" stroke="none" fill="rgba(62, 156, 52, 0.9)"></polygon></g><g clip-path="url(#i3)"><polygon points="0,0 16,0 16,37 0,37 0,0 0,0" stroke="#418A37" stroke-width="2" fill="none" stroke-miterlimit="5"></polygon></g></g><g transform="translate(315.0 0.0)"><g clip-path="url(#i3)"><polygon points="0,0 16,0 16,37 0,37 0,0" stroke="none" fill="rgba(62, 156, 52, 0.9)"></polygon></g><g clip-path="url(#i3)"><polygon points="0,0 16,0 16,37 0,37 0,0 0,0" stroke="#418A37" stroke-width="2" fill="none" stroke-miterlimit="5"></polygon></g></g></svg>