<?xml version="1.0" encoding="UTF-8"?><svg version="1.1" width="712px" height="25px" viewBox="0 0 712.0 25.0" xmlns="http://www.w3.org/2000/svg" xmlns:xlink="http://www.w3.org/1999/xlink"><defs><clipPath id="i0"><path d="M8,0 L8,18 L0,18 L0,0 L8,0 Z"></path></clipPath><filter id="i1" x="-1.66666667%" y="-36.3636364%" filterUnits="userSpaceOnUse" width="102.222222%" height="148.484848%"><feGaussianBlur stdDeviation="2" in="SourceAlpha" result="i2"></feGaussianBlur><feOffset dx="0" dy="0" in="i2" result="i3"></feOffset><feColorMatrix values="0 0 0 0.0 0 0 0 0 0.0 0 0 0 0 0.0 0 0 0 0 0.06 0" type="matrix" in="i3"></feColorMatrix></filter><filter id="i4" x="-3.84615385%" y="-58.5365854%" filterUnits="userSpaceOnUse" width="105.494505%" height="197.560976%"><feGaussianBlur stdDeviation="4" in="SourceAlpha" result="i5"></feGaussianBlur><feOffset dx="0" dy="4" in="i5" result="i6"></feOffset><feColorMatrix values="0 0 0 0.0 0 0 0 0 0.0 0 0 0 0 0.0 0 0 0 0 0.12 0" type="matrix" in="i6"></feColorMatrix></filter><clipPath id="i7"><path d="M712,0 L712,25 L0,25 L0,0 L712,0 Z"></path></clipPath></defs><g clip-path="url(#i0)"><polygon points="0,0 8,0 8,18 0,18 0,0" stroke="none" fill="rgba(146, 211, 0, 0.9)"></polygon></g><g clip-path="url(#i0)"><polygon points="0,0 8,0 8,18 0,18 0,0 0,0" stroke="#7EB200" stroke-width="2" fill="none" stroke-miterlimit="5"></polygon></g><g transform="translate(25.0 0.0)"><g clip-path="url(#i0)"><polygon points="0,0 8,0 8,18 0,18 0,0" stroke="none" fill="rgba(146, 211, 0, 0.9)"></polygon></g><g clip-path="url(#i0)"><polygon points="0,0 8,0 8,18 0,18 0,0 0,0" stroke="#7EB200" stroke-width="2" fill="none" stroke-miterlimit="5"></polygon></g></g><polygon points="0,0 712,0 712,25 0,25 0,0 0,0" stroke="none" fill="#000000" filter="url(#i1)"></polygon><polygon points="0,0 712,0 712,25 0,25 0,0 0,0" stroke="none" fill="#000000" filter="url(#i4)"></polygon><g clip-path="url(#i7)"><polygon points="0,0 712,0 712,25 0,25 0,0" stroke="none" fill="#FFFFFF"></polygon></g><g clip-path="url(#i7)"><polygon points="0,0 712,0 712,25 0,25 0,0" stroke="none" fill="#73BCF7"></polygon></g><g transform="translate(617.0 4.0)"><text transform="translate(0.09199999999998454 12.0)" font-family="RedHatText-Regular, Red Hat Text" font-size="12.0" font-weight="normal" fill="#151515" text-anchor="right" line-spacing="18.0">Optional text</text></g><g transform="translate(343.5 4.0)"><text transform="translate(0.26599999999999824 12.0)" font-family="RedHatText-Regular, Red Hat Text" font-size="12.0" font-weight="normal" fill="#151515" text-anchor="center" line-spacing="18.0">Text</text></g><g transform="translate(24.0 4.0)"><text transform="translate(0.0 12.0)" font-family="RedHatText-Regular, Red Hat Text" font-size="12.0" font-weight="normal" fill="#151515" text-anchor="left" line-spacing="18.0">Optional text</text></g></svg>