<?xml version="1.0" encoding="UTF-8"?>
<svg width="712px" height="25px" viewBox="0 0 712 25" version="1.1" xmlns="http://www.w3.org/2000/svg" xmlns:xlink="http://www.w3.org/1999/xlink">
    <title></title>
    <defs>
        <rect id="path-1" x="0" y="0" width="712" height="25"></rect>
        <filter x="-2.0%" y="-40.0%" width="103.9%" height="212.0%" filterUnits="objectBoundingBox" id="filter-2">
            <feOffset dx="0" dy="0" in="SourceAlpha" result="shadowOffsetOuter1"></feOffset>
            <feGaussianBlur stdDeviation="2" in="shadowOffsetOuter1" result="shadowBlurOuter1"></feGaussianBlur>
            <feColorMatrix values="0 0 0 0 0   0 0 0 0 0   0 0 0 0 0  0 0 0 0.06 0" type="matrix" in="shadowBlurOuter1" result="shadowMatrixOuter1"></feColorMatrix>
            <feOffset dx="0" dy="4" in="SourceAlpha" result="shadowOffsetOuter2"></feOffset>
            <feGaussianBlur stdDeviation="4" in="shadowOffsetOuter2" result="shadowBlurOuter2"></feGaussianBlur>
            <feColorMatrix values="0 0 0 0 0   0 0 0 0 0   0 0 0 0 0  0 0 0 0.12 0" type="matrix" in="shadowBlurOuter2" result="shadowMatrixOuter2"></feColorMatrix>
            <feMerge>
                <feMergeNode in="shadowMatrixOuter1"></feMergeNode>
                <feMergeNode in="shadowMatrixOuter2"></feMergeNode>
            </feMerge>
        </filter>
    </defs>
    <g id="Banner" stroke="none" stroke-width="1" fill="none" fill-rule="evenodd">
        <g id="Banner-/-2.-Informational-/-2.-With-icon">
            <g id="ðŸ“-Padding" fill="#92D400" fill-opacity="0.9" stroke="#7FB300">
                <g id="Spacer-/-Horizontal-/-2.-pf-global--spacer--sm-(8px)">
                    <rect id="Rectangle-Copy" x="0.5" y="0.5" width="7" height="17"></rect>
                </g>
                <g id="Spacer-/-Horizontal-/-2.-pf-global--spacer--sm-(8px)" transform="translate(25.000000, 0.000000)">
                    <rect id="Rectangle-Copy" x="0.5" y="0.5" width="7" height="17"></rect>
                </g>
            </g>
            <g id="Shadow">
                <use fill="black" fill-opacity="1" filter="url(#filter-2)" xlink:href="#path-1"></use>
                <use fill="#FFFFFF" fill-rule="evenodd" xlink:href="#path-1"></use>
            </g>
            <rect id="Background" fill="#73BCF7" x="0" y="0" width="712" height="25"></rect>
            <g id="Group" transform="translate(332.000000, 1.000000)" fill="#151515">
                <text id="Text" font-family="RedHatText-Regular, Red Hat Text" font-size="12" font-weight="normal" line-spacing="18">
                    <tspan x="24.266" y="15">Text</tspan>
                </text>
                <g id="Icons/2.-Size-sm/Status/exclamation-circle" transform="translate(6.000000, 6.000000)">
                    <path d="M5.81248614,11.6249723 C9.02240891,11.6249723 11.6249723,9.02334732 11.6249723,5.81248614 C11.6249723,2.60350179 9.02240891,0 5.81248614,0 C2.60256338,0 0,2.60350179 0,5.81248614 C0,9.02334732 2.60256338,11.6249723 5.81248614,11.6249723 Z M5.81248614,4.54686416 C5.26882441,4.54686416 4.82811349,4.10615324 4.82811349,3.56249151 C4.82811349,3.01882978 5.26882441,2.57811885 5.81248614,2.57811885 C6.35614787,2.57811885 6.79685879,3.01882978 6.79685879,3.56249151 C6.79685879,4.10615324 6.35614787,4.54686416 5.81248614,4.54686416 Z M6.84373368,8.81247899 L4.7812386,8.81247899 C4.62591976,8.81247899 4.49998927,8.6865485 4.49998927,8.53122966 L4.49998927,7.968731 C4.49998927,7.81341216 4.62591976,7.68748167 4.7812386,7.68748167 L5.06248793,7.68748167 L5.06248793,6.18748525 L4.7812386,6.18748525 C4.62591976,6.18748525 4.49998927,6.06155476 4.49998927,5.90623592 L4.49998927,5.34373726 C4.49998927,5.18841842 4.62591976,5.06248793 4.7812386,5.06248793 L6.28123502,5.06248793 C6.43655387,5.06248793 6.56248435,5.18841842 6.56248435,5.34373726 L6.56248435,7.68748167 L6.84373368,7.68748167 C6.99905253,7.68748167 7.12498301,7.81341216 7.12498301,7.968731 L7.12498301,8.53122966 C7.12498301,8.6865485 6.99905253,8.81247899 6.84373368,8.81247899 Z" id="info-circle"></path>
                </g>
            </g>
            <text id="Optional-text-right" font-family="RedHatText-Regular, Red Hat Text" font-size="12" font-weight="normal" line-spacing="18" fill="#151515">
                <tspan x="617.092" y="16">Optional text</tspan>
            </text>
            <text id="Optional-text-left" font-family="RedHatText-Regular, Red Hat Text" font-size="12" font-weight="normal" line-spacing="18" fill="#151515">
                <tspan x="24" y="16">Optional text</tspan>
            </text>
        </g>
    </g>
</svg>