<?xml version="1.0" encoding="UTF-8"?><svg version="1.1" width="712px" height="25px" viewBox="0 0 712.0 25.0" xmlns="http://www.w3.org/2000/svg" xmlns:xlink="http://www.w3.org/1999/xlink"><defs><clipPath id="i0"><path d="M8,0 L8,18 L0,18 L0,0 L8,0 Z"></path></clipPath><filter id="i1" x="-1.66666667%" y="-36.3636364%" filterUnits="userSpaceOnUse" width="102.222222%" height="148.484848%"><feGaussianBlur stdDeviation="2" in="SourceAlpha" result="i2"></feGaussianBlur><feOffset dx="0" dy="0" in="i2" result="i3"></feOffset><feColorMatrix values="0 0 0 0.0 0 0 0 0 0.0 0 0 0 0 0.0 0 0 0 0 0.06 0" type="matrix" in="i3"></feColorMatrix></filter><filter id="i4" x="-3.84615385%" y="-58.5365854%" filterUnits="userSpaceOnUse" width="105.494505%" height="197.560976%"><feGaussianBlur stdDeviation="4" in="SourceAlpha" result="i5"></feGaussianBlur><feOffset dx="0" dy="4" in="i5" result="i6"></feOffset><feColorMatrix values="0 0 0 0.0 0 0 0 0 0.0 0 0 0 0 0.0 0 0 0 0 0.12 0" type="matrix" in="i6"></feColorMatrix></filter><clipPath id="i7"><path d="M712,0 L712,25 L0,25 L0,0 L712,0 Z"></path></clipPath><clipPath id="i8"><path d="M5.81248614,0 C9.02240891,0 11.6249723,2.60350179 11.6249723,5.81248614 C11.6249723,9.02334732 9.02240891,11.6249723 5.81248614,11.6249723 C2.60256338,11.6249723 0,9.02334732 0,5.81248614 C0,2.60350179 2.60256338,0 5.81248614,0 Z M6.28123502,5.06248793 L4.7812386,5.06248793 C4.62591976,5.06248793 4.49998927,5.18841842 4.49998927,5.34373726 L4.49998927,5.90623592 C4.49998927,6.06155476 4.62591976,6.18748525 4.7812386,6.18748525 L5.06248793,6.18748525 L5.06248793,7.68748167 L4.7812386,7.68748167 C4.62591976,7.68748167 4.49998927,7.81341216 4.49998927,7.968731 L4.49998927,8.53122966 C4.49998927,8.6865485 4.62591976,8.81247899 4.7812386,8.81247899 L6.84373368,8.81247899 C6.99905253,8.81247899 7.12498301,8.6865485 7.12498301,8.53122966 L7.12498301,7.968731 C7.12498301,7.81341216 6.99905253,7.68748167 6.84373368,7.68748167 L6.56248435,7.68748167 L6.56248435,5.34373726 C6.56248435,5.18841842 6.43655387,5.06248793 6.28123502,5.06248793 Z M5.81248614,2.57811885 C5.26882441,2.57811885 4.82811349,3.01882978 4.82811349,3.56249151 C4.82811349,4.10615324 5.26882441,4.54686416 5.81248614,4.54686416 C6.35614787,4.54686416 6.79685879,4.10615324 6.79685879,3.56249151 C6.79685879,3.01882978 6.35614787,2.57811885 5.81248614,2.57811885 Z"></path></clipPath></defs><g clip-path="url(#i0)"><polygon points="0,0 8,0 8,18 0,18 0,0" stroke="none" fill="rgba(146, 211, 0, 0.9)"></polygon></g><g clip-path="url(#i0)"><polygon points="0,0 8,0 8,18 0,18 0,0 0,0" stroke="#7EB200" stroke-width="2" fill="none" stroke-miterlimit="5"></polygon></g><g transform="translate(25.0 0.0)"><g clip-path="url(#i0)"><polygon points="0,0 8,0 8,18 0,18 0,0" stroke="none" fill="rgba(146, 211, 0, 0.9)"></polygon></g><g clip-path="url(#i0)"><polygon points="0,0 8,0 8,18 0,18 0,0 0,0" stroke="#7EB200" stroke-width="2" fill="none" stroke-miterlimit="5"></polygon></g></g><polygon points="0,0 712,0 712,25 0,25 0,0 0,0" stroke="none" fill="#000000" filter="url(#i1)"></polygon><polygon points="0,0 712,0 712,25 0,25 0,0 0,0" stroke="none" fill="#000000" filter="url(#i4)"></polygon><g clip-path="url(#i7)"><polygon points="0,0 712,0 712,25 0,25 0,0" stroke="none" fill="#FFFFFF"></polygon></g><g clip-path="url(#i7)"><polygon points="0,0 712,0 712,25 0,25 0,0" stroke="none" fill="#73BCF7"></polygon></g><g transform="translate(332.0 1.0)"><g transform="translate(24.0 3.0)"><text transform="translate(0.26599999999999824 12.0)" font-family="RedHatText-Regular, Red Hat Text" font-size="12.0" font-weight="normal" fill="#151515" text-anchor="center" line-spacing="18.0">Text</text></g><g transform="translate(6.0 6.0)"><g clip-path="url(#i8)"><polygon points="0,0 11.6249723,0 11.6249723,11.6249723 0,11.6249723 0,0" stroke="none" fill="#151515"></polygon></g></g></g><g transform="translate(617.0 4.0)"><text transform="translate(0.09199999999998454 12.0)" font-family="RedHatText-Regular, Red Hat Text" font-size="12.0" font-weight="normal" fill="#151515" text-anchor="right" line-spacing="18.0">Optional text</text></g><g transform="translate(24.0 4.0)"><text transform="translate(0.0 12.0)" font-family="RedHatText-Regular, Red Hat Text" font-size="12.0" font-weight="normal" fill="#151515" text-anchor="left" line-spacing="18.0">Optional text</text></g></svg>