<?xml version="1.0" encoding="UTF-8"?><svg version="1.1" width="166px" height="36px" viewBox="0 0 166.0 36.0" xmlns="http://www.w3.org/2000/svg" xmlns:xlink="http://www.w3.org/1999/xlink"><defs><clipPath id="i0"><path d="M127,0 L127,36 L0,36 L0,0 L127,0 Z"></path></clipPath><clipPath id="i1"><path d="M40,0 L40,36 L0,36 L0,0 L40,0 Z"></path></clipPath><clipPath id="i2"><path d="M4.62498897,0 C4.83122627,0 4.99998808,0.168761805 4.99998808,0.374999106 L4.99998808,2 L8.99997854,2 L8.99997854,0.374999106 C8.99997854,0.168761805 9.16874035,0 9.37497765,0 L10.6249747,0 C10.831212,0 10.9999738,0.168761805 10.9999738,0.374999106 L10.9999738,2 L12.4999702,2 C13.3280932,2 13.9999666,2.67186863 13.9999666,3.5 L13.9999666,14.4999654 C13.9999666,15.3280885 13.3280932,15.9999619 12.4999702,15.9999619 L1.5,15.9999619 C0.671873398,15.9999619 0,15.3280885 0,14.4999654 L0,3.5 C0,2.67186863 0.671873398,2 1.5,2 L3,2 L3,0.374999106 C3,0.168761805 3.16875465,0 3.37499195,0 Z M12.4999702,4.99998808 L1.49999642,4.99998808 L1.49999642,14.3124659 C1.49999642,14.4155845 1.58437733,14.4999654 1.68749598,14.4999654 L12.3124706,14.4999654 C12.4155893,14.4999654 12.4999702,14.4155845 12.4999702,14.3124659 L12.4999702,4.99998808 Z M7.62498182,9.99997616 C7.83121912,9.99997616 7.99998569,10.168738 7.99998569,10.3749753 L7.99998569,11.6249723 C7.99998569,11.8312096 7.83121912,11.9999762 7.62498182,11.9999762 L6.3749848,11.9999762 C6.1687475,11.9999762 5.99998569,11.8312096 5.99998569,11.6249723 L5.99998569,10.3749753 C5.99998569,10.168738 6.1687475,9.99997616 6.3749848,9.99997616 Z M4.62498897,9.99997616 C4.83122627,9.99997616 4.99999285,10.168738 4.99999285,10.3749753 L4.99999285,11.6249723 C4.99999285,11.8312096 4.83122627,11.9999762 4.62498897,11.9999762 L3.37499195,11.9999762 C3.16875465,11.9999762 2.99999285,11.8312096 2.99999285,11.6249723 L2.99999285,10.3749753 C2.99999285,10.168738 3.16875465,9.99997616 3.37499195,9.99997616 Z M10.6249747,9.99997616 C10.831212,9.99997616 10.9999785,10.168738 10.9999785,10.3749753 L10.9999785,11.6249723 C10.9999785,11.8312096 10.831212,11.9999762 10.6249747,11.9999762 L9.37497765,11.9999762 C9.16874035,11.9999762 8.99997854,11.8312096 8.99997854,11.6249723 L8.99997854,10.3749753 C8.99997854,10.168738 9.16874035,9.99997616 9.37497765,9.99997616 Z M4.62498897,6.99998331 C4.83122627,6.99998331 4.99999285,7.16874512 4.99999285,7.37498242 L4.99999285,8.62497944 C4.99999285,8.83121674 4.83122627,8.99998331 4.62498897,8.99998331 L3.37499195,8.99998331 C3.16875465,8.99998331 2.99999285,8.83121674 2.99999285,8.62497944 L2.99999285,7.37498242 C2.99999285,7.16874512 3.16875465,6.99998331 3.37499195,6.99998331 Z M7.62498182,6.99998331 C7.83121912,6.99998331 7.99998569,7.16874512 7.99998569,7.37498242 L7.99998569,8.62497944 C7.99998569,8.83121674 7.83121912,8.99998331 7.62498182,8.99998331 L6.3749848,8.99998331 C6.1687475,8.99998331 5.99998569,8.83121674 5.99998569,8.62497944 L5.99998569,7.37498242 C5.99998569,7.16874512 6.1687475,6.99998331 6.3749848,6.99998331 Z M10.6249747,6.99998331 C10.831212,6.99998331 10.9999785,7.16874512 10.9999785,7.37498242 L10.9999785,8.62497944 C10.9999785,8.83121674 10.831212,8.99998331 10.6249747,8.99998331 L9.37497765,8.99998331 C9.16874035,8.99998331 8.99997854,8.83121674 8.99997854,8.62497944 L8.99997854,7.37498242 C8.99997854,7.16874512 9.16874035,6.99998331 9.37497765,6.99998331 Z"></path></clipPath><clipPath id="i3"><path d="M8,0 L8,36 L0,36 L0,0 L8,0 Z"></path></clipPath><clipPath id="i4"><path d="M150,0 L150,6 L0,6 L0,0 L150,0 Z"></path></clipPath><clipPath id="i5"><path d="M8,0 L8,24 L0,24 L0,0 L8,0 Z"></path></clipPath></defs><g clip-path="url(#i0)"><polygon points="0,0 127,0 127,36 0,36 0,0" stroke="none" fill="#FFFFFF"></polygon><g transform="translate(-1.0 0.0)"><polygon points="128,0 128,36 127,36 127,0 128,0 128,0" stroke="none" fill="#F0F0F0"></polygon></g><g transform="translate(0.0 1.0)"><polygon points="127,0 0,0 0,-1 127,-1 127,0 127,0" stroke="none" fill="#F0F0F0"></polygon></g><g transform="translate(1.0 0.0)"><polygon points="0,0 0,36 -1,36 -1,0 0,0 0,0" stroke="none" fill="#F0F0F0"></polygon></g><g transform="translate(0.0 -1.0)"><polygon points="127,36 127,37 0,37 0,36 127,36 127,36" stroke="none" fill="#8A8D90"></polygon></g></g><g transform="translate(126.0 0.0)"><g clip-path="url(#i1)"><polygon points="0,0 40,0 40,36 0,36 0,0" stroke="none" fill="#FFFFFF"></polygon><g transform="translate(-1.0 0.0)"><polygon points="41,0 41,36 40,36 40,0 41,0 41,0" stroke="none" fill="#F0F0F0"></polygon></g><g transform="translate(0.0 1.0)"><polygon points="40,0 0,0 0,-1 40,-1 40,0 40,0" stroke="none" fill="#F0F0F0"></polygon></g><g transform="translate(1.0 0.0)"><polygon points="0,0 0,36 -1,36 -1,0 0,0 0,0" stroke="none" fill="#F0F0F0"></polygon></g><g transform="translate(0.0 -1.0)"><polygon points="40,36 40,37 0,37 0,36 40,36 40,36" stroke="none" fill="#8A8D90"></polygon></g></g><g transform="translate(8.0 6.0)"><g transform="translate(5.0 4.0)"><g clip-path="url(#i2)"><polygon points="0,0 13.9999666,0 13.9999666,15.9999619 0,15.9999619 0,0" stroke="none" fill="#151515"></polygon></g></g></g></g><g transform="translate(8.0 6.0)"><text transform="translate(0.0 16.0)" font-family="RedHatText-Regular, Red Hat Text" font-size="16.0" font-weight="normal" fill="#696E73" text-anchor="left" line-spacing="24.0">MM/dd/yyy</text></g><g clip-path="url(#i3)"><polygon points="0,0 8,0 8,36 0,36 0,0" stroke="none" fill="rgba(146, 211, 0, 0.9)"></polygon></g><g clip-path="url(#i3)"><polygon points="0,0 8,0 8,36 0,36 0,0 0,0" stroke="#7EB200" stroke-width="2" fill="none" stroke-miterlimit="5"></polygon></g><g transform="translate(158.0 0.0)"><g clip-path="url(#i3)"><polygon points="0,0 8,0 8,36 0,36 0,0" stroke="none" fill="rgba(146, 211, 0, 0.9)"></polygon></g><g clip-path="url(#i3)"><polygon points="0,0 8,0 8,36 0,36 0,0 0,0" stroke="#7EB200" stroke-width="2" fill="none" stroke-miterlimit="5"></polygon></g></g><g transform="translate(8.0 0.0)"><g clip-path="url(#i4)"><polygon points="0,0 150,0 150,6 0,6 0,0" stroke="none" fill="rgba(243, 213, 59, 0.9)"></polygon></g><g clip-path="url(#i4)"><polygon points="0,0 150,0 150,6 0,6 0,0 0,0" stroke="#CAB534" stroke-width="2" fill="none" stroke-miterlimit="5"></polygon></g></g><g transform="translate(8.0 29.999999999999996)"><g transform=""><g clip-path="url(#i4)"><polygon points="0,0 150,0 150,6 0,6 0,0" stroke="none" fill="rgba(243, 213, 59, 0.9)"></polygon></g><g clip-path="url(#i4)"><polygon points="0,0 150,0 150,6 0,6 0,0 0,0" stroke="#CAB534" stroke-width="2" fill="none" stroke-miterlimit="5"></polygon></g></g></g><g transform="translate(126.0 6.0)"><g clip-path="url(#i5)"><polygon points="0,0 8,0 8,24 0,24 0,0" stroke="none" fill="rgba(146, 211, 0, 0.9)"></polygon></g><g clip-path="url(#i5)"><polygon points="0,0 8,0 8,24 0,24 0,0 0,0" stroke="#7EB200" stroke-width="2" fill="none" stroke-miterlimit="5"></polygon></g></g></svg>