<?xml version="1.0" encoding="UTF-8"?><svg version="1.1" width="24px" height="24px" viewBox="0 0 24.0 24.0" xmlns="http://www.w3.org/2000/svg" xmlns:xlink="http://www.w3.org/1999/xlink"><defs><clipPath id="i0"><path d="M12,0 C18.627417,0 24,5.372583 24,12 C24,18.627417 18.627417,24 12,24 C5.372583,24 0,18.627417 0,12 C0,5.372583 5.372583,0 12,0 Z"></path></clipPath><clipPath id="i1"><path d="M4.26666667,0 C6.6,0 8.53333333,1.93333333 8.53333333,4.26666667 C8.53333333,6.6 6.66666667,8.53333333 4.26666667,8.53333333 C1.93333333,8.53333333 0,6.6 0,4.26666667 C0,1.93333333 1.93333333,0 4.26666667,0 Z"></path></clipPath><clipPath id="i2"><path d="M2.13333333,0 L2.13333333,4.46666667 L0,4.46666667 L0.0666666667,2.33333333 C0.2,0.933333333 0.8,0.266666667 2.13333333,0 Z"></path></clipPath><clipPath id="i3"><path d="M8.33333333,0 C10.9333333,0 11.5804444,0.100148148 12.2275556,0.300444444 L12.3777778,0.348444444 C12.4284444,0.365037037 12.48,0.382222222 12.5333333,0.4 C13.3333333,0.666666667 14.1333333,1.2 14.8666667,2.13333333 C15.9333333,3.46666667 16.5333333,6.86666667 16.8,9.46666667 L13.6666667,9.46666667 L13.6,7.33333333 C13.4666667,5.93333333 12.8666667,5.26666667 11.5333333,5 L11.5333333,9.46666667 L5.26666667,9.46666667 L5.26666667,5 C3.93333333,5.26666667 3.33333333,5.93333333 3.2,7.33333333 L3.13333333,9.46666667 L0,9.46666667 C0.266666667,6.93333333 0.866666667,3.46666667 2,2.2 C2.66666667,1.26666667 3.46666667,0.733333333 4.26666667,0.466666667 C4.26666667,0.466666667 5.33333333,0 8.33333333,0 Z"></path></clipPath><clipPath id="i4"><path d="M0,0 C1.33333333,0.266666667 1.93333333,0.933333333 2.06666667,2.33333333 L2.13333333,4.46666667 L0,4.46666667 Z"></path></clipPath></defs><g clip-path="url(#i0)"><polygon points="0,0 24,0 24,24 0,24 0,0" stroke="none" fill="#F0F0F0"></polygon><g transform="translate(3.399999999999954 4.870000000000001)"><g transform="translate(3.933333333333244 0.0)"><g clip-path="url(#i1)"><polygon points="0,0 8.53333333,0 8.53333333,8.53333333 0,8.53333333 0,0" stroke="none" fill="#D2D2D2"></polygon></g></g><g transform="translate(3.133333333333212 14.666666666666668)"><g clip-path="url(#i2)"><polygon points="0,0 2.13333333,0 2.13333333,4.46333333 0,4.46333333 0,0" stroke="none" fill="#B8BBBE"></polygon></g></g><g transform="translate(0.0 9.666666666666668)"><g clip-path="url(#i3)"><polygon points="0,0 16.8,0 16.8,9.46333333 0,9.46333333 0,0" stroke="none" fill="#D2D2D2"></polygon></g></g><g transform="translate(11.5333333333333 14.666666666666668)"><g clip-path="url(#i4)"><polygon points="0,0 2.13333333,0 2.13333333,4.46333333 0,4.46333333 0,0" stroke="none" fill="#B8BBBE"></polygon></g></g></g></g><path d="M12,24 C18.627417,24 24,18.627417 24,12 C24,5.372583 18.627417,0 12,0 C5.372583,0 0,5.372583 0,12 C0,18.627417 5.372583,24 12,24 Z" stroke="#D2D2D2" stroke-width="1" fill="none" stroke-miterlimit="10"></path></svg>