<?xml version="1.0" encoding="UTF-8"?>
<svg width="24px" height="24px" viewBox="0 0 24 24" version="1.1" xmlns="http://www.w3.org/2000/svg" xmlns:xlink="http://www.w3.org/1999/xlink">
    <title></title>
    <defs>
        <circle id="path-1" cx="12" cy="12" r="12"></circle>
        <circle id="path-3" cx="12" cy="12" r="12"></circle>
    </defs>
    <g id="Masthead" stroke="none" stroke-width="1" fill="none" fill-rule="evenodd">
        <g id="Light-bordered-avatar">
            <mask id="mask-2" fill="white">
                <use xlink:href="#path-1"></use>
            </mask>
            <use id="Oval" fill="#F0F0F0" fill-rule="nonzero" xlink:href="#path-1"></use>
            <g id="img_avatar-light" mask="url(#mask-2)">
                <g transform="translate(3.400000, 4.870000)" id="Path">
                    <path d="M8.2,8.53333333 C5.86666667,8.53333333 3.93333333,6.6 3.93333333,4.26666667 C3.93333333,1.93333333 5.86666667,0 8.2,0 C10.5333333,0 12.4666667,1.93333333 12.4666667,4.26666667 C12.4666667,6.6 10.6,8.53333333 8.2,8.53333333 Z" fill="#D2D2D2" fill-rule="evenodd"></path>
                    <path d="M5.26666667,19.1333333 L5.26666667,14.6666667 C3.93333333,14.9333333 3.33333333,15.6 3.2,17 L3.13333333,19.1333333 L5.26666667,19.1333333 Z" fill="#B8BBBE" fill-rule="nonzero"></path>
                    <path d="M3.13333333,19.1333333 L3.2,17 C3.33333333,15.6 3.93333333,14.9333333 5.26666667,14.6666667 L5.26666667,19.1333333 L11.5333333,19.1333333 L11.5333333,14.6666667 C12.8666667,14.9333333 13.4666667,15.6 13.6,17 L13.6666667,19.1333333 L16.8,19.1333333 C16.5333333,16.5333333 15.9333333,13.1333333 14.8666667,11.8 C14.1333333,10.8666667 13.3333333,10.3333333 12.5333333,10.0666667 C11.7333333,9.8 11.3333333,9.66666667 8.33333333,9.66666667 C5.33333333,9.66666667 4.26666667,10.1333333 4.26666667,10.1333333 C3.46666667,10.4 2.66666667,10.9333333 2,11.8666667 C0.866666667,13.1333333 0.266666667,16.6 0,19.1333333 L3.13333333,19.1333333 Z" fill="#D2D2D2" fill-rule="nonzero"></path>
                    <path d="M13.6666667,19.1333333 L13.6,17 C13.4666667,15.6 12.8666667,14.9333333 11.5333333,14.6666667 L11.5333333,19.1333333 L13.6666667,19.1333333 Z" fill="#B8BBBE" fill-rule="nonzero"></path>
                </g>
            </g>
            <mask id="mask-4" fill="white">
                <use xlink:href="#path-3"></use>
            </mask>
            <use id="Oval" stroke="#D2D2D2" fill-rule="nonzero" xlink:href="#path-3"></use>
        </g>
    </g>
</svg>