<?xml version="1.0" encoding="UTF-8"?>
<svg width="128px" height="128px" viewBox="0 0 128 128" version="1.1" xmlns="http://www.w3.org/2000/svg" xmlns:xlink="http://www.w3.org/1999/xlink">
    <title></title>
    <defs>
        <circle id="path-1" cx="64" cy="64" r="64"></circle>
        <circle id="path-3" cx="64" cy="64" r="64"></circle>
    </defs>
    <g id="Masthead" stroke="none" stroke-width="1" fill="none" fill-rule="evenodd">
        <g id="Light-bordered-avatar">
            <mask id="mask-2" fill="white">
                <use xlink:href="#path-1"></use>
            </mask>
            <use id="Oval" fill="#F0F0F0" fill-rule="nonzero" xlink:href="#path-1"></use>
            <g id="img_avatar-light" mask="url(#mask-2)">
                <g transform="translate(19.000000, 25.960000)" id="Path">
                    <path d="M43.733142,45.510912 C31.288752,45.510912 20.977686,35.199846 20.977686,22.755456 C20.977686,10.311066 31.288752,0 43.733142,0 C56.177532,0 66.488598,10.311066 66.488598,22.755456 C66.488598,35.199846 56.533086,45.510912 43.733142,45.510912 Z" fill="#D2D2D2" fill-rule="evenodd"></path>
                    <path d="M28.088766,102.043998 L28.088766,78.22188 C20.977686,79.644096 17.7777,83.199636 17.066592,90.66627 L16.711038,102.043998 L28.088766,102.043998 Z" fill="#B8BBBE" fill-rule="nonzero"></path>
                    <path d="M16.711038,102.043998 L17.066592,90.66627 C17.7777,83.199636 20.977686,79.644096 28.088766,78.22188 L28.088766,102.043998 L61.510842,102.043998 L61.510842,78.22188 C68.621922,79.644096 71.821908,83.199636 72.533016,90.66627 L72.88857,102.043998 L89.599608,102.043998 C88.177392,88.177392 84.977406,70.044138 79.288542,62.933058 C75.377448,57.955302 71.1108,55.11087 66.844152,53.688654 C62.577504,52.266438 60.44418,51.55533 44.44425,51.55533 C28.44432,51.55533 22.755456,54.044208 22.755456,54.044208 C18.488808,55.466424 14.22216,58.310856 10.66662,63.288612 C4.622202,70.044138 1.422216,88.532946 0,102.043998 L16.711038,102.043998 Z" fill="#D2D2D2" fill-rule="nonzero"></path>
                    <path d="M72.88857,102.043998 L72.533016,90.66627 C71.821908,83.199636 68.621922,79.644096 61.510842,78.22188 L61.510842,102.043998 L72.88857,102.043998 Z" fill="#B8BBBE" fill-rule="nonzero"></path>
                </g>
            </g>
            <mask id="mask-4" fill="white">
                <use xlink:href="#path-3"></use>
            </mask>
            <use id="Oval" stroke="#D2D2D2" fill-rule="nonzero" xlink:href="#path-3"></use>
        </g>
    </g>
</svg>