<?xml version="1.0" encoding="UTF-8"?><svg version="1.1" width="128px" height="128px" viewBox="0 0 128.0 128.0" xmlns="http://www.w3.org/2000/svg" xmlns:xlink="http://www.w3.org/1999/xlink"><defs><clipPath id="i0"><path d="M64,0 C99.346224,0 128,28.653776 128,64 C128,99.346224 99.346224,128 64,128 C28.653776,128 0,99.346224 0,64 C0,28.653776 28.653776,0 64,0 Z"></path></clipPath><clipPath id="i1"><path d="M22.755456,0 C35.199846,0 45.510912,10.311066 45.510912,22.755456 C45.510912,35.199846 35.5554,45.510912 22.755456,45.510912 C10.311066,45.510912 0,35.199846 0,22.755456 C0,10.311066 10.311066,0 22.755456,0 Z"></path></clipPath><clipPath id="i2"><path d="M11.377728,0 L11.377728,23.822118 L0,23.822118 L0.355554,12.44439 C1.066662,4.977756 4.266648,1.422216 11.377728,0 Z"></path></clipPath><clipPath id="i3"><path d="M44.9724672,0.000263373333 C57.527474,0.0129052933 61.3216302,0.480656333 64.5469,1.40351649 L64.8145312,1.481475 L65.0805822,1.56154049 L65.3461064,1.64371297 L65.6121574,1.72799244 C65.8343786,1.79910324 66.058246,1.87240882 66.2865029,1.94790917 L66.5626937,2.03956309 C66.6555767,2.07046556 66.7493376,2.1017192 66.844152,2.133324 C71.1108,3.55554 75.377448,6.399972 79.288542,11.377728 C84.977406,18.488808 88.177392,36.622062 89.599608,50.488668 L72.88857,50.488668 L72.533016,39.11094 C71.821908,31.644306 68.621922,28.088766 61.510842,26.66655 L61.510842,50.488668 L28.088766,50.488668 L28.088766,26.66655 C20.977686,28.088766 17.7777,31.644306 17.066592,39.11094 L16.711038,50.488668 L0,50.488668 C1.422216,36.977616 4.622202,18.488808 10.66662,11.733282 C14.22216,6.755526 18.488808,3.911094 22.755456,2.488878 L22.7880979,2.4751725 C22.8482896,2.45042077 22.9926813,2.39318241 23.2291738,2.31196581 L23.3673512,2.26533898 C25.2099296,1.65405704 31.4008288,0 44.44425,0 Z"></path></clipPath><clipPath id="i4"><path d="M0,0 C7.11108,1.422216 10.311066,4.977756 11.022174,12.44439 L11.377728,23.822118 L0,23.822118 Z"></path></clipPath></defs><g clip-path="url(#i0)"><polygon points="0,0 128,0 128,128 0,128 0,0" stroke="none" fill="#F0F0F0"></polygon><g transform="translate(18.999999999999993 25.960000000000015)"><g transform="translate(20.97768599999952 0.0)"><g clip-path="url(#i1)"><polygon points="0,0 45.510912,0 45.510912,45.510912 0,45.510912 0,0" stroke="none" fill="#D2D2D2"></polygon></g></g><g transform="translate(16.71103799999935 78.22188000000001)"><g clip-path="url(#i2)"><polygon points="0,0 11.377728,0 11.377728,23.81812 0,23.81812 0,0" stroke="none" fill="#B8BBBE"></polygon></g></g><g transform="translate(0.0 51.55533)"><g clip-path="url(#i3)"><polygon points="0,0 89.599608,0 89.599608,50.48467 0,50.48467 0,0" stroke="none" fill="#D2D2D2"></polygon></g></g><g transform="translate(61.51084199999979 78.22188000000001)"><g clip-path="url(#i4)"><polygon points="0,0 11.377728,0 11.377728,23.81812 0,23.81812 0,0" stroke="none" fill="#B8BBBE"></polygon></g></g></g></g><path d="M64,128 C99.346224,128 128,99.346224 128,64 C128,28.653776 99.346224,0 64,0 C28.653776,0 0,28.653776 0,64 C0,99.346224 28.653776,128 64,128 Z" stroke="#D2D2D2" stroke-width="1" fill="none" stroke-miterlimit="10"></path></svg>