<?xml version="1.0" encoding="UTF-8"?><svg version="1.1" width="41px" height="30px" viewBox="0 0 41.0 30.0" xmlns="http://www.w3.org/2000/svg" xmlns:xlink="http://www.w3.org/1999/xlink"><defs><clipPath id="i0"><path d="M38,0 C39.6568542,-3.04359188e-16 41,1.34314575 41,3 L41,27 C41,28.6568542 39.6568542,30 38,30 L3,30 C1.34314575,30 6.46995335e-16,28.6568542 0,27 L0,3 C-2.02906125e-16,1.34314575 1.34314575,-5.83819232e-16 3,0 L38,0 Z"></path></clipPath></defs><g clip-path="url(#i0)"><polygon points="0,0 41,0 41,30 0,30 0,0" stroke="none" fill="#FFFFFF"></polygon><path d="M3,0 L38,0 C39.6568542,-3.04359188e-16 41,1.34314575 41,3 L41,27 C41,28.6568542 39.6568542,30 38,30 L3,30 C1.34314575,30 6.46995335e-16,28.6568542 0,27 L0,3 C-2.02906125e-16,1.34314575 1.34314575,-5.83819232e-16 3,0 Z" stroke="#F0F0F0" stroke-width="2" fill="none" stroke-miterlimit="5"></path></g><g transform="translate(8.0 6.0)"><text transform="translate(0.0 12.0)" font-family="RedHatText-Regular, Red Hat Text" font-size="12.0" font-weight="normal" fill="#151515" text-anchor="left" line-spacing="18.0">Text</text></g></svg>