<?xml version="1.0" encoding="UTF-8"?>
<svg width="24px" height="24px" viewBox="0 0 24 24" version="1.1" xmlns="http://www.w3.org/2000/svg" xmlns:xlink="http://www.w3.org/1999/xlink">
    <title></title>
    <g id="Icons" stroke="none" stroke-width="1" fill="none" fill-rule="evenodd">
        <g id="Icons/2.-Size-sm-(12px)/Status/attention-bell" fill="#FFFFFF">
            <path d="M12.25,6 C12.453125,6 12.6289062,6.07421875 12.7773438,6.22265625 C12.9257813,6.37109375 13,6.546875 13,6.75 L13,7.2421875 L13.0261328,7.24746094 C13.8893359,7.42253906 14.599375,7.84265625 15.15625,8.5078125 C15.71875,9.1796875 16,9.96875 16,10.875 C16,11.859375 16.140625,12.6640625 16.421875,13.2890625 C16.59375,13.6484375 16.859375,14.015625 17.21875,14.390625 C17.2395353,14.4237789 17.2630546,14.455138 17.2890625,14.484375 C17.4296875,14.640625 17.5,14.8164062 17.5,15.0117188 C17.5,15.2070313 17.4296875,15.3789062 17.2890625,15.5273438 C17.1484375,15.6757813 16.96875,15.75 16.75,15.75 L7.74179688,15.75 C7.52679687,15.748125 7.34984375,15.6739063 7.2109375,15.5273438 C7.0703125,15.3789062 7,15.2070313 7,15.0117188 C7,14.8164062 7.0703125,14.640625 7.2109375,14.484375 L7.28125,14.390625 L7.29367188,14.3777344 C7.64679687,14.0071875 7.90828125,13.6442969 8.078125,13.2890625 C8.359375,12.6640625 8.5,11.859375 8.5,10.875 C8.5,9.96875 8.78125,9.1796875 9.34375,8.5078125 C9.90625,7.8359375 10.625,7.4140625 11.5,7.2421875 L11.5,6.74191406 C11.5019531,6.54222656 11.5761719,6.36914062 11.7226562,6.22265625 C11.8710938,6.07421875 12.046875,6 12.25,6 Z M13.75,16.5 L13.75,16.5126562 C13.7469531,16.9289063 13.5985156,17.2801562 13.3046875,17.5664062 C13.0078125,17.8554688 12.65625,18 12.25,18 C11.84375,18 11.4921875,17.8554688 11.1953125,17.5664062 C10.8984375,17.2773437 10.75,16.921875 10.75,16.5 L13.75,16.5 Z M12.5664062,8.25 L11.9335938,8.25 C11.6941265,8.25 11.5,8.44412653 11.5,8.68359375 L11.5,12.3164062 C11.5,12.5558735 11.6941265,12.75 11.9335938,12.75 L12.5664062,12.75 C12.8058735,12.75 13,12.5558735 13,12.3164062 L13,8.68359375 C13,8.44412653 12.8058735,8.25 12.5664062,8.25 Z M12.25,13.5 C11.8357864,13.5 11.5,13.8357864 11.5,14.25 C11.5,14.6642136 11.8357864,15 12.25,15 C12.6642136,15 13,14.6642136 13,14.25 C13,13.8357864 12.6642136,13.5 12.25,13.5 Z" id="pficon-attention-bell"></path>
        </g>
    </g>
</svg>