<?xml version="1.0" encoding="UTF-8"?>
<svg width="24px" height="24px" viewBox="0 0 24 24" version="1.1" xmlns="http://www.w3.org/2000/svg" xmlns:xlink="http://www.w3.org/1999/xlink">
    <title></title>
    <g id="Icons" stroke="none" stroke-width="1" fill="none" fill-rule="evenodd">
        <g id="Icons/2.-Size-sm-(12px)/Status/balance-scale" fill="#151515">
            <path d="M17.3749705,17.9999714 C17.5821538,17.9999714 17.7499696,17.8321556 17.7499696,17.6249723 L17.7499696,16.8749741 C17.7499696,16.6677907 17.5821538,16.499975 17.3749705,16.499975 L13.2499803,16.499975 L13.2499803,9.59178831 C13.8009891,9.3506161 14.2146692,8.85396658 14.3372351,8.24999464 L17.3749705,8.24999464 C17.5821538,8.24999464 17.7499696,8.08217887 17.7499696,7.87499553 L17.7499696,7.12499732 C17.7499696,6.91781397 17.5821538,6.74999821 17.3749705,6.74999821 L13.9915328,6.74999821 C13.6493553,6.29717947 13.1114614,6 12.4999821,6 C11.8885029,6 11.3506089,6.29717947 11.0084314,6.74999821 L7.62499374,6.74999821 C7.4178104,6.74999821 7.24999464,6.91781397 7.24999464,7.12499732 L7.24999464,7.87499553 C7.24999464,8.08217887 7.4178104,8.24999464 7.62499374,8.24999464 L10.6627291,8.24999464 C10.785295,8.8537377 11.1987462,9.3506161 11.7499839,9.59178831 L11.7499839,16.499975 L7.62499374,16.499975 C7.4178104,16.499975 7.24999464,16.6677907 7.24999464,16.8749741 L7.24999464,17.6249723 C7.24999464,17.8321556 7.4178104,17.9999714 7.62499374,17.9999714 L17.3749705,17.9999714 Z M8,15.7499768 C9.59052372,15.7499768 10.8920287,14.9762598 10.9936043,13.9982547 L10.9995279,13.8749812 L10.9993281,13.8051075 C10.999215,13.7978496 10.9990486,13.7907078 10.9988061,13.7836299 L10.9962544,13.7415077 C10.9815658,13.5797561 10.9023676,13.3962562 10.4799261,12.5530638 L10.3617545,12.3177164 C10.1091057,11.8154145 9.75642429,11.1184361 9.26412357,10.136178 L9.006155,9.62085624 L9.006155,9.62085624 C8.59249784,8.79374792 7.4079685,8.79209997 6.99357893,9.62085624 C6.37214632,10.8638747 5.94435901,11.7103039 5.64990776,12.2967618 L5.53170197,12.5325825 C5.23731793,13.1211179 5.10583407,13.3955901 5.0472261,13.5599302 L5.02848834,13.6167936 C5.00759053,13.6867904 5.00209843,13.735627 5.00075901,13.7887947 L5,13.8749812 C5,14.9104402 6.34318985,15.7499768 8,15.7499768 Z M16.9999785,15.7499768 C18.6567744,15.7499768 19.9999642,14.9104402 19.9999642,13.8749812 L19.9993066,13.8051075 C19.9991935,13.7978496 19.9990271,13.7907078 19.9987847,13.7836299 L19.9962329,13.7415077 C19.9815444,13.5797561 19.9023461,13.3962562 19.4799047,12.5530638 L19.361733,12.3177164 C19.1090842,11.8154145 18.7564028,11.1184361 18.2641021,10.136178 L18.0061335,9.62085624 L18.0061335,9.62085624 C17.5924764,8.79374792 16.407947,8.79209997 15.9935575,9.62085624 C15.3721249,10.8638747 14.9443376,11.7103039 14.6498863,12.2967618 L14.5316805,12.5325825 C14.2372965,13.1211179 14.1058126,13.3955901 14.0472046,13.5599302 L14.0284669,13.6167936 C14.0075691,13.6867904 14.002077,13.735627 14.0007376,13.7887947 L14.0004363,13.8749812 L14.0004363,13.8749812 L13.9999785,13.8749812 C13.9999785,14.9104402 15.3431684,15.7499768 16.9999785,15.7499768 Z M9.68748882,13.4999821 L6.31249687,13.4999821 L7.99999285,10.1249902 L9.68748882,13.4999821 Z M18.6874674,13.4999821 L15.3124754,13.4999821 L16.9999714,10.1249902 L18.6874674,13.4999821 Z" id="balance-scale"></path>
        </g>
    </g>
</svg>