<?xml version="1.0" encoding="UTF-8"?>
<svg width="24px" height="24px" viewBox="0 0 24 24" version="1.1" xmlns="http://www.w3.org/2000/svg" xmlns:xlink="http://www.w3.org/1999/xlink">
    <title></title>
    <g id="Icons" stroke="none" stroke-width="1" fill="none" fill-rule="evenodd">
        <g id="Icons/2.-Size-sm-(12px)/Status/pficon-pending" fill="#151515">
            <path d="M12.0011719,16.4988281 C9.51914063,16.4988281 7.50117187,14.4820312 7.50117187,11.9988281 C7.50117187,9.51796875 9.51914063,7.49882813 12.0011719,7.49882813 C14.4820312,7.49882813 16.5,9.51796875 16.5011719,11.9988281 C16.5011719,14.4808594 14.4820312,16.4988281 12.0011719,16.4988281 M12.0011719,6 C8.69179687,6 6,8.69179687 6,12 C6,15.3082031 8.69179687,18 12.0011719,18 C15.3082031,18 18,15.3082031 18,12 C18,8.69179687 15.3082031,6 12.0011719,6 M14.25,9.375 L14.25,9.1875 C14.25,9.084375 14.165625,9 14.0625,9 L9.9375,9 C9.834375,9 9.75,9.084375 9.75,9.1875 L9.75,9.375 C9.75,11.2382812 11.625,11.2617188 11.625,12 C11.625,12.7382812 9.75,12.7382812 9.75,14.625 L9.75,14.8125 C9.75,14.915625 9.834375,15 9.9375,15 L14.0625,15 C14.165625,15 14.25,14.915625 14.25,14.8125 L14.25,14.625 C14.25,12.75 12.375,12.7617188 12.375,12 C12.375,11.2382812 14.25,11.25 14.25,9.375 M13.0769531,14.25 L10.9253906,14.25 C10.8902344,14.25 10.9007812,14.1445312 10.9148437,14.0484375 C11.0015625,13.4355469 11.6261719,13.2351562 11.803125,13.1753906 C12.0035156,13.1085938 12.0035156,13.1085938 12.1980469,13.1753906 C12.375,13.2375 13.003125,13.4460937 13.0875,14.0507812 C13.1003906,14.146875 13.1121094,14.25 13.0769531,14.25" id="pficon-pending"></path>
        </g>
    </g>
</svg>