<?xml version="1.0" encoding="UTF-8"?>
<svg width="24px" height="24px" viewBox="0 0 24 24" version="1.1" xmlns="http://www.w3.org/2000/svg" xmlns:xlink="http://www.w3.org/1999/xlink">
    <title></title>
    <g id="Icons" stroke="none" stroke-width="1" fill="none" fill-rule="evenodd">
        <g id="Icons/2.-Size-sm-(12px)/Status/pficon-trend-down" fill="#151515">
            <path d="M18,16.4 C18,16.62125 17.82125,16.8 17.6,16.8 L12,16.8 C11.77875,16.8 11.6,16.62125 11.6,16.4 L11.6,15.6 C11.6,15.37875 11.77875,15.2 12,15.2 L15.26875,15.2 L11.62875,11.5225 L10.29625,12.86 C10.14,13.01625 9.88625,13.0175 9.73,12.86 L6.1175,9.2475 C6.03875,9.17 6,9.0675 6,8.96625 C6,8.86375 6.03875,8.76125 6.1175,8.68375 L6.6825,8.1175 C6.76125,8.03875 6.86375,8 6.96625,8 C7.06875,8 7.17125,8.03875 7.24875,8.1175 L10.01125,10.88 L11.34375,9.5425 C11.5,9.38625 11.75375,9.385 11.91,9.5425 L16.4,14.06875 L16.3875,10.8 C16.3875,10.57875 16.55375,10.4 16.775,10.4 L17.575,10.4 C17.79625,10.4 18,10.57875 18,10.8 L18,16.4 Z" id="pficon-trend-down"></path>
        </g>
    </g>
</svg>