<?xml version="1.0" encoding="UTF-8"?>
<svg width="24px" height="24px" viewBox="0 0 24 24" version="1.1" xmlns="http://www.w3.org/2000/svg" xmlns:xlink="http://www.w3.org/1999/xlink">
    <title></title>
    <g id="Icons" stroke="none" stroke-width="1" fill="none" fill-rule="evenodd">
        <g id="Icons/2.-Size-sm-(12px)/Status/pficon-in-progress" fill="#151515">
            <path d="M11.9882812,18 C12.4023438,18 12.8027344,17.9609375 13.1894531,17.8828125 C13.5761719,17.8046875 13.953125,17.6875 14.3203125,17.53125 C14.6796875,17.375 15.0195312,17.1894531 15.3398438,16.9746094 C15.6601562,16.7597656 15.953125,16.515625 16.21875,16.2421875 C16.4921875,15.96875 16.7363281,15.6738281 16.9511719,15.3574219 C17.1660156,15.0410156 17.3515625,14.6992188 17.5078125,14.3320312 C17.671875,13.9726562 17.7929688,13.5976562 17.8710938,13.2070312 C17.9492188,12.8164062 17.9882812,12.4140625 17.9882812,12 C17.9882812,11.5859375 17.9492188,11.1855469 17.8710938,10.7988281 C17.7929688,10.4121094 17.671875,10.0351562 17.5078125,9.66796875 C17.3515625,9.30859375 17.1660156,8.96875 16.9511719,8.6484375 C16.7363281,8.328125 16.4921875,8.03515625 16.21875,7.76953125 C15.953125,7.49609375 15.6601562,7.25195312 15.3398438,7.03710938 C15.0195312,6.82226562 14.6796875,6.63671875 14.3203125,6.48046875 C13.953125,6.31640625 13.5761719,6.1953125 13.1894531,6.1171875 C12.8027344,6.0390625 12.4023438,6 11.9882812,6 L11.9882812,7.6171875 C12.2851562,7.625 12.5742188,7.65625 12.8554688,7.7109375 C13.1367188,7.765625 13.4101562,7.8515625 13.6757812,7.96875 C13.9414062,8.0859375 14.1894531,8.22265625 14.4199219,8.37890625 C14.6503906,8.53515625 14.8671875,8.71484375 15.0703125,8.91796875 C15.2734375,9.12109375 15.453125,9.33789062 15.609375,9.56835938 C15.765625,9.79882812 15.9023438,10.046875 16.0195312,10.3125 C16.1367188,10.5859375 16.2246094,10.8652344 16.2832031,11.1503906 C16.3417969,11.4355469 16.3710938,11.7265625 16.3710938,12.0234375 C16.3710938,12.328125 16.3417969,12.6230469 16.2832031,12.9082031 C16.2246094,13.1933594 16.1367188,13.4726562 16.0195312,13.7460938 C15.9023438,14.0117188 15.765625,14.2617188 15.609375,14.4960938 C15.453125,14.7304688 15.2734375,14.9453125 15.0703125,15.140625 C14.8671875,15.34375 14.6503906,15.5234375 14.4199219,15.6796875 C14.1894531,15.8359375 13.9414062,15.9726562 13.6757812,16.0898438 C13.4023438,16.2070312 13.1230469,16.2929688 12.8378906,16.3476562 C12.5527344,16.4023438 12.2617188,16.4296875 11.9648438,16.4296875 C11.7070312,16.4296875 11.4589844,16.4101562 11.2207031,16.3710938 C10.9824219,16.3320312 10.75,16.2734375 10.5234375,16.1953125 L9.73828125,17.5664062 C10.0898438,17.7148438 10.453125,17.8242188 10.828125,17.8945312 C11.203125,17.9648438 11.5898438,18 11.9882812,18 Z M6,11.578125 L7.59375,11.4726562 C7.6171875,11.2695312 7.65429688,11.0722656 7.70507812,10.8808594 C7.75585938,10.6894531 7.8203125,10.5039062 7.8984375,10.3242188 C7.921875,10.2695312 7.9453125,10.2167969 7.96875,10.1660156 C7.9921875,10.1152344 8.01953125,10.0625 8.05078125,10.0078125 L6.6328125,9.3046875 C6.6015625,9.359375 6.57226562,9.41796875 6.54492188,9.48046875 C6.51757812,9.54296875 6.4921875,9.60546875 6.46875,9.66796875 C6.3359375,9.97265625 6.23046875,10.2832031 6.15234375,10.5996094 C6.07421875,10.9160156 6.0234375,11.2421875 6,11.578125 Z M8.26171875,16.6992188 L9.046875,15.328125 C9.015625,15.296875 8.98242188,15.2675781 8.94726562,15.2402344 C8.91210938,15.2128906 8.87890625,15.1835938 8.84765625,15.1523438 C8.65234375,14.9492188 8.47460938,14.7304688 8.31445312,14.4960938 C8.15429688,14.2617188 8.015625,14.0117188 7.8984375,13.7460938 C7.859375,13.6523438 7.82421875,13.5585938 7.79296875,13.4648438 C7.76171875,13.3710938 7.734375,13.2773438 7.7109375,13.1835938 L6.12890625,13.2890625 C6.16796875,13.46875 6.21484375,13.6464844 6.26953125,13.8222656 C6.32421875,13.9980469 6.390625,14.1679688 6.46875,14.3320312 C6.625,14.6992188 6.81054688,15.0410156 7.02539062,15.3574219 C7.24023438,15.6738281 7.484375,15.96875 7.7578125,16.2421875 C7.8359375,16.328125 7.91601562,16.4082031 7.99804688,16.4824219 C8.08007812,16.5566406 8.16796875,16.6289062 8.26171875,16.6992188 Z" id="pficon-in-progress"></path>
        </g>
    </g>
</svg>