<?xml version="1.0" encoding="UTF-8"?>
<svg width="24px" height="24px" viewBox="0 0 24 24" version="1.1" xmlns="http://www.w3.org/2000/svg" xmlns:xlink="http://www.w3.org/1999/xlink">
    <title></title>
    <g id="Icons" stroke="none" stroke-width="1" fill="none" fill-rule="evenodd">
        <g id="Icons/2.-Size-sm-(12px)/Status/pficon-enhancement" fill="#151515">
            <path d="M12.5741899,9.74998154 L11.4257605,9.74998154 C11.3286798,9.74998154 11.2499902,9.82868094 11.2499902,9.92576156 L11.2499902,11.249971 L9.92577098,11.249971 C9.82842049,11.250423 9.74979612,11.3295716 9.74999024,11.4269229 L9.74999024,12.5753524 C9.74999024,12.6218651 9.76854686,12.6664559 9.80154613,12.6992351 C9.8345454,12.7320144 9.87925931,12.7502727 9.92577098,12.7499605 L11.2499902,12.7499605 L11.2499902,14.07417 C11.2499902,14.1712506 11.3286798,14.24995 11.4257605,14.24995 L12.5741899,14.24995 C12.6712705,14.24995 12.7499699,14.1712506 12.7499699,14.07417 L12.7499699,12.7499605 L14.0741794,12.7499605 C14.1205729,12.7505558 14.1652731,12.7325499 14.1983004,12.699963 C14.2313277,12.6673761 14.2499601,12.6229215 14.2499601,12.5765242 L14.2499601,11.4269229 C14.2501543,11.3295716 14.1715299,11.250423 14.0741794,11.249971 L12.7499699,11.2511429 L12.7499699,9.92576156 C12.7499699,9.82868094 12.6712705,9.74998154 12.5741899,9.74998154 Z M11.505213,6.2642638 C11.6833368,5.99707818 12.0501311,5.9185631 12.3255198,6.09317125 C12.3955046,6.13678439 12.4551005,6.19518045 12.5001279,6.2642638 L13.3239503,7.89315863 L15.235265,6.88289228 C15.5411222,6.76687747 15.8844792,6.91687641 16.0016659,7.21453057 C16.0324785,7.29108555 16.0456946,7.37358598 16.0403375,7.45593513 L15.7555739,9.30185969 L17.5590768,9.6562322 C17.874309,9.73943474 18.0641514,10.0581825 17.9786051,10.3665007 C17.9561449,10.4456271 17.9178742,10.519378 17.8661059,10.583296 L16.5864274,11.9999658 L17.8661059,13.4168699 C17.9651559,13.5348838 18.0124194,13.6878602 17.9972001,13.8411787 C17.9819807,13.9944972 17.9055651,14.1351964 17.7852471,14.2314345 C17.7200745,14.2834565 17.6445734,14.3210073 17.5637643,14.34159 L15.7051836,14.6415879 L16.0438531,16.5414183 C16.0637748,16.8625098 15.8118235,17.1355548 15.4860445,17.1519609 C15.4018813,17.1574869 15.3175208,17.1446929 15.2387806,17.1144612 L13.3544188,16.1041948 L12.5001279,17.7356677 C12.3220042,18.0028534 11.9552099,18.0813684 11.680993,17.9067603 C11.6110083,17.8631472 11.5514123,17.804751 11.5063849,17.7356677 L10.6523284,16.1041948 L8.7679666,17.1144612 C8.46210937,17.230476 8.11886959,17.080477 8.00168291,16.7828229 C7.97078759,16.7062889 7.95752983,16.6237784 7.96289412,16.5414183 L8.30156362,14.6415879 L6.44286572,14.34159 C6.12528982,14.2607312 5.9354474,13.9419834 6.02099368,13.6336652 C6.04345393,13.5545388 6.08172466,13.4807879 6.13349289,13.4168699 L7.41305423,11.9999658 L6.13114915,10.5830616 C6.03285682,10.4641692 5.98675429,10.3106153 6.00330283,10.1572434 C6.01985138,10.0038715 6.09764784,9.86368603 6.21903916,9.76849704 C6.28421174,9.71647505 6.3597129,9.67892421 6.44052198,9.65834156 L8.24519683,9.30209406 L7.9604332,7.4561695 C7.94390988,7.13742174 8.19351751,6.86437678 8.5216402,6.84797065 C8.60464481,6.84271061 8.68780331,6.85550422 8.76538849,6.88547038 L10.6509221,7.89573673 L11.505213,6.2642638 Z" id="pficon-enhancement"></path>
        </g>
    </g>
</svg>