<?xml version="1.0" encoding="UTF-8"?>
<svg width="24px" height="24px" viewBox="0 0 24 24" version="1.1" xmlns="http://www.w3.org/2000/svg" xmlns:xlink="http://www.w3.org/1999/xlink">
    <title></title>
    <g id="Icons" stroke="none" stroke-width="1" fill="none" fill-rule="evenodd">
        <g id="Icons/2.-Size-sm-(12px)/Status/pficon-migration" fill="#151515">
            <path d="M14.2277344,13.1742187 L9.14765625,8.09648437 C8.85624095,7.80847833 8.38694658,7.80985895 8.09723089,8.09957464 C7.8075152,8.38929033 7.80613458,8.8585847 8.09414062,9.15 L13.1730469,14.2300781 L12.0902344,15.309375 C11.9273437,15.4710937 12.0421875,15.75 12.271875,15.75 L15.3679687,15.75 C15.578932,15.75 15.75,15.578932 15.75,15.3679687 L15.75,12.2707031 C15.75,12.0410156 15.4722656,11.9261719 15.309375,12.0890625 L14.2277344,13.1742187 Z M17.25,10.5 L12.8542969,10.5 C12.816341,10.5001605 12.782178,10.5230531 12.7675976,10.5580972 C12.7530173,10.5931412 12.7608596,10.6335106 12.7875,10.6605469 L13.35,11.2230469 C13.3677367,11.2406458 13.3918132,11.2503609 13.4167969,11.25 L17.25,11.25 L17.25,17.25 L11.25,17.25 L11.25,13.4167969 C11.2501406,13.3918548 11.2404584,13.3678596 11.2230469,13.35 L10.6605469,12.7875 C10.6337197,12.7602543 10.5930344,12.752031 10.5577316,12.766719 C10.5224288,12.781407 10.4995837,12.8160627 10.499989,12.8542969 L10.499989,17.25 C10.5003876,17.6640529 10.8359471,17.9996123 11.25,18 L17.25,18 C17.6640529,17.9996123 17.9996123,17.6640529 18,17.25 L18,11.25 C17.9996123,10.8359471 17.6640529,10.5003876 17.25,10.5 L17.25,10.5 Z M12.75,9.65625 L12.75,8.34375 C12.75,8.2919733 12.7080267,8.25 12.65625,8.25 L12.09375,8.25 C12.0419733,8.25 12,8.2919733 12,8.34375 L12,9.65625 C12,9.7080267 12.0419733,9.75 12.09375,9.75 L12.65625,9.75 C12.7080267,9.75 12.75,9.7080267 12.75,9.65625 Z M12.75,7.40625 L12.75,6.75 C12.7496124,6.33594711 12.4140529,6.00038763 12,6 L11.34375,6 C11.2919733,6 11.25,6.0419733 11.25,6.09375 L11.25,6.65625 C11.25,6.7080267 11.2919733,6.75 11.34375,6.75 L12,6.75 L12,7.40625 C12,7.4580267 12.0419733,7.5 12.09375,7.5 L12.65625,7.5 C12.7080267,7.5 12.75,7.4580267 12.75,7.40625 Z M10.5,6.65625 L10.5,6.09375 C10.5,6.0419733 10.4580267,6 10.40625,6 L8.34375,6 C8.2919733,6 8.25,6.0419733 8.25,6.09375 L8.25,6.65625 C8.25,6.7080267 8.2919733,6.75 8.34375,6.75 L10.40625,6.75 C10.4580267,6.75 10.5,6.7080267 10.5,6.65625 Z M6.75,7.40625 L6.75,6.75 L7.40625,6.75 C7.4580267,6.75 7.5,6.7080267 7.5,6.65625 L7.5,6.09375 C7.5,6.0419733 7.4580267,6 7.40625,6 L6.75,6 C6.33594711,6.00038763 6.00038763,6.33594711 6,6.75 L6,7.40625 C6,7.4580267 6.0419733,7.5 6.09375,7.5 L6.65625,7.5 C6.7080267,7.5 6.75,7.4580267 6.75,7.40625 Z M6.75,10.40625 L6.75,8.34375 C6.75,8.2919733 6.7080267,8.25 6.65625,8.25 L6.09375,8.25 C6.0419733,8.25 6,8.2919733 6,8.34375 L6,10.40625 C6,10.4580267 6.0419733,10.5 6.09375,10.5 L6.65625,10.5 C6.7080267,10.5 6.75,10.4580267 6.75,10.40625 Z M7.5,12.65625 L7.5,12.09375 C7.5,12.0419733 7.4580267,12 7.40625,12 L6.75,12 L6.75,11.34375 C6.75,11.2919733 6.7080267,11.25 6.65625,11.25 L6.09375,11.25 C6.0419733,11.25 6,11.2919733 6,11.34375 L6,12 C6.00038763,12.4140529 6.33594711,12.7496124 6.75,12.75 L7.40625,12.75 C7.4580267,12.75 7.5,12.7080267 7.5,12.65625 Z M9.65625,12.75 L8.34375,12.75 C8.2919733,12.75 8.25,12.7080267 8.25,12.65625 L8.25,12.09375 C8.25,12.0419733 8.2919733,12 8.34375,12 L9.65625,12 C9.7080267,12 9.75,12.0419733 9.75,12.09375 L9.75,12.65625 C9.75,12.7080267 9.7080267,12.75 9.65625,12.75 Z" id="pficon-migration"></path>
        </g>
    </g>
</svg>