<?xml version="1.0" encoding="UTF-8"?>
<svg width="24px" height="24px" viewBox="0 0 24 24" version="1.1" xmlns="http://www.w3.org/2000/svg" xmlns:xlink="http://www.w3.org/1999/xlink">
    <title></title>
    <g id="Icons" stroke="none" stroke-width="1" fill="none" fill-rule="evenodd">
        <g id="Icons/2.-Size-sm-(12px)/Status/pficon-resources-almost-full" fill="#151515">
            <path d="M12.0011719,6 C8.69179687,6 6,8.69296875 6,12 C6,15.3082031 8.69296875,18 12.0011719,18 C15.309375,18 18,15.3082031 18,12 C18,8.69179687 15.309375,6 12.0011719,6 Z M12,16.5 C9.51796875,16.5 7.5,14.4832031 7.5,12 C7.5,9.51914063 9.51796875,7.5 12,7.5 C14.4808594,7.5 16.5,9.51796875 16.5,12 C16.5,14.4820312 14.4808594,16.5 12,16.5 Z M15.0234375,10.5 L8.97539062,10.5 C8.75039062,10.9523438 8.625,11.4609375 8.625,12 C8.625,13.8644531 10.1355469,15.375 12,15.375 C13.8644531,15.375 15.375,13.8644531 15.375,12 C15.375,11.4609375 15.2484375,10.9523438 15.0234375,10.5" id="pficon-resources-almost-full"></path>
        </g>
    </g>
</svg>