<?xml version="1.0" encoding="UTF-8"?>
<svg width="330px" height="37px" viewBox="0 0 330 37" version="1.1" xmlns="http://www.w3.org/2000/svg" xmlns:xlink="http://www.w3.org/1999/xlink">
    <title></title>
    <g id="Dual-list" stroke="none" stroke-width="1" fill="none" fill-rule="evenodd">
        <g id="Dual-list-/-3.-Multi-level-item-/-Selected-/-Third-level">
            <rect id="Rectangle" fill="#FFFFFF" x="0" y="0" width="330" height="37"></rect>
            <g id="ðŸ“-Padding" fill-opacity="0.9">
                <g id="Spacer-/-Vertical-/-2.-pf-global--spacer--sm-(8px)" fill="#92D400" stroke="#7FB300">
                    <rect id="Rectangle-Copy" x="0.5" y="0.5" width="329" height="7"></rect>
                </g>
                <g id="Spacer-/-Vertical-/-2.-pf-global--spacer--sm-(8px)" transform="translate(0.000000, 29.000000)" fill="#92D400" stroke="#7FB300">
                    <rect id="Rectangle-Copy" x="0.5" y="0.5" width="329" height="7"></rect>
                </g>
                <g id="Spacer-/-Horizontal-/-3.-pf-global--spacer--md-(16px)" transform="translate(314.000000, 0.000000)" fill="#3F9C35" stroke="#418A38">
                    <rect id="Rectangle-Copy-2" x="0.5" y="0.5" width="15" height="36"></rect>
                </g>
                <g id="Spacer-/-Horizontal-/-8.-pf-global--spacer--4xl-(80px)" fill="#582FC0" stroke="#5431A5">
                    <rect id="Rectangle-Copy-5" x="0.5" y="0.5" width="47" height="36"></rect>
                </g>
                <g id="Spacer-/-Horizontal-/-8.-pf-global--spacer--4xl-(80px)" transform="translate(48.000000, 0.000000)" fill="#0088CE" stroke="#0479B0">
                    <rect id="Rectangle-Copy-4" x="0.5" y="0.5" width="31" height="36"></rect>
                </g>
                <g id="Spacer-/-Horizontal-/-2.-pf-global--spacer--sm-(8px)" transform="translate(96.000000, 8.000000)" fill="#92D400" stroke="#7FB300">
                    <rect id="Rectangle-Copy" x="0.5" y="0.5" width="7" height="20"></rect>
                </g>
            </g>
            <g id="Forms/3.-Toggles/2.-Checkbox/1.-Unchecked/Default" transform="translate(80.000000, 10.500000)">
                <rect id="Rectangle" fill="#0066CC" x="0" y="0" width="16" height="16"></rect>
                <g id="Icons-/-Small-/-check" transform="translate(2.000000, 4.000000)">
                    <g id="ðŸ–¼-Icon" fill="#6A6E73">
                        <path d="M4.92423791,8.77280814 L11.8242306,1.87279255 C12.0585364,1.63846388 12.0585364,1.25856672 11.8242306,1.02426094 L10.9757219,0.175729333 C10.7414161,-0.0585764442 10.3614961,-0.0585764442 10.1271903,0.175729333 L4.49998355,5.80293607 L1.87276966,3.17572218 C1.63846388,2.94139352 1.25854383,2.94139352 1.02423805,3.17572218 L0.175729333,4.02425379 C-0.0585764442,4.25858245 -0.0585764442,4.63847962 0.175729333,4.87278539 L4.07572919,8.77278525 C4.31001208,9.00711392 4.68990924,9.00711392 4.92423791,8.77280814 Z" id="check"></path>
                    </g>
                    <rect id="ðŸŽ¨-Color" fill="#FFFFFF" x="-6" y="-8" width="24" height="24"></rect>
                </g>
            </g>
            <text id="Label" font-family="RedHatText-Medium, Red Hat Text" font-size="14" font-weight="400" line-spacing="21" fill="#0066CC">
                <tspan x="104" y="22">Type something</tspan>
            </text>
        </g>
    </g>
</svg>