<?xml version="1.0" encoding="UTF-8"?><svg version="1.1" width="223px" height="222px" viewBox="0 0 223.0 222.0" xmlns="http://www.w3.org/2000/svg" xmlns:xlink="http://www.w3.org/1999/xlink"><defs><clipPath id="i0"><path d="M3,0 L3,8 L0,8 L0,0 L3,0 Z"></path></clipPath></defs><g transform="translate(4.017985814170302 4.018942683290007)"><path d="M0,108.962897 C1.05678896,167.142884 48.5495808,213.981057 106.982014,213.981057 C166.076482,213.981057 213.982014,166.075526 213.982014,106.981057 C213.982014,48.5660319 167.171744,1.08413087 109.015849,0" stroke="#0066CC" stroke-width="8" fill="none" stroke-miterlimit="10"></path></g><g transform="translate(4.004510545694288 4.004445382856211)"><path d="M106.009851,0 C47.699855,0.52616182 0.529998652,47.6936415 0,106.002721" stroke="#8BC1F7" stroke-width="8" fill="none" stroke-miterlimit="10"></path></g><g transform="translate(110.0 0.0)"><g clip-path="url(#i0)"><polygon points="0,0 3,0 3,8 0,8 0,0" stroke="none" fill="#FFFFFF"></polygon></g></g><g transform="translate(8.0 110.0) rotate(90.0)"><g clip-path="url(#i0)"><polygon points="5.68434189e-14,0 3,0 3,8 5.68434189e-14,8 5.68434189e-14,0" stroke="none" fill="#FFFFFF"></polygon></g></g><g transform="translate(92.0 85.8)"><text transform="translate(0.1280000000000001 24.0)" font-family="RedHatDisplay-Medium, Red Hat Display" font-size="24.0" font-weight="500" fill="#151515" text-anchor="center" line-spacing="31.2">100</text></g><g transform="translate(97.0 120.0)"><text transform="translate(0.2129999999999992 14.0)" font-family="RedHatText-Regular, Red Hat Text" font-size="14.0" font-weight="normal" fill="#696E73" text-anchor="center" line-spacing="21.0">Pets</text></g></svg>