<svg xmlns="http://www.w3.org/2000/svg" width="40" height="36" viewBox="0 0 40 36">
  <g fill="none" fill-rule="evenodd">
    <rect width="40" height="36" rx="3"/>
    <rect width="55" height="51" x="-7.5" y="-7.5" stroke="#06C" rx="3"/>
    <path fill="#06C" fill-opacity=".2" fill-rule="nonzero" d="M45,-8 C46.6568542,-8 48,-6.65685425 48,-5 L48,41 C48,42.6568542 46.6568542,44 45,44 L-5,44 C-6.65685425,44 -8,42.6568542 -8,41 L-8,-5 C-8,-6.65685425 -6.65685425,-8 -5,-8 L45,-8 Z M37,0 L3,0 C1.34314575,0 0,1.34314575 0,3 L0,3 L0,33 C0,34.6568542 1.34314575,36 3,36 L3,36 L37,36 C38.6568542,36 40,34.6568542 40,33 L40,33 L40,3 C40,1.34314575 38.6568542,0 37,0 L37,0 Z"/>
    <g fill="#151515" transform="translate(8 6)">
      <path d="M12.2499946,8.49998927 C13.4937356,8.49998927 14.4999893,7.49373557 14.4999893,6.24999464 C14.4999893,5.0062537 13.4937356,4 12.2499946,4 C11.0062537,4 10,5.0062537 10,6.24999464 C10,7.49373557 11.0062537,8.49998927 12.2499946,8.49998927 Z M12.2499946,13.9999762 C13.4937356,13.9999762 14.4999893,12.9937225 14.4999893,11.7499815 C14.4999893,10.5062406 13.4937356,9.49998689 12.2499946,9.49998689 C11.0062537,9.49998689 10,10.5062406 10,11.7499815 C10,12.9937225 11.0062537,13.9999762 12.2499946,13.9999762 Z M12.2499946,19.499963 C13.4937356,19.499963 14.4999893,18.4937093 14.4999893,17.2499684 C14.4999893,16.0062275 13.4937356,14.9999738 12.2499946,14.9999738 C11.0062537,14.9999738 10,16.0062275 10,17.2499684 C10,18.4937093 11.0062537,19.499963 12.2499946,19.499963 Z"/>
      <rect width="24" height="24"/>
    </g>
    <g fill-opacity=".9">
      <rect width="7" height="35" x=".5" y=".5" fill="#92D400" stroke="#7FB300"/>
      <rect width="7" height="35" x=".5" y=".5" fill="#92D400" stroke="#7FB300" transform="translate(32)"/>
      <rect width="23" height="5" x=".5" y=".5" fill="#F3D53C" stroke="#CBB534" transform="translate(8)"/>
      <rect width="23" height="5" x=".5" y=".5" fill="#F3D53C" stroke="#CBB534" transform="translate(8 30)"/>
    </g>
  </g>
</svg>
