<svg xmlns="http://www.w3.org/2000/svg" width="24" height="24" viewBox="0 0 24 24">
  <path fill="#151515" fill-rule="evenodd" d="M19.875,14.0015625 L15.3125,14.0015625 L14.8734375,13.5109375 C14.965625,13.3328125 15.0421875,13.14375 15.1015625,12.9484375 L16.3984375,12.8625 C16.4984375,12.8484375 16.5765625,12.7484375 16.5765625,12.6484375 L16.5765625,11.315625 C16.575,11.2140625 16.503125,11.128125 16.403125,11.1 L15.0828125,11.0265625 C15.0234375,10.8390625 14.9453125,10.6578125 14.8546875,10.4859375 L15.725,9.4921875 C15.7859375,9.4109375 15.7703125,9.2859375 15.7,9.215625 L14.7578125,8.2734375 C14.6875,8.203125 14.575,8.1921875 14.484375,8.24375 L13.4890625,9.134375 C13.31875,9.0453125 13.140625,8.971875 12.95625,8.9140625 L12.86875,7.5875 C12.8546875,7.4875 12.7546875,7.409375 12.6546875,7.409375 L11.321875,7.409375 C11.221875,7.409375 11.1359375,7.48125 11.1078125,7.58125 L11.034375,8.909375 C10.84375,8.9671875 10.6609375,9.04375 10.4875,9.134375 L9.4859375,8.275 C9.4046875,8.2140625 9.2796875,8.2296875 9.209375,8.3 L8.7546875,8.7546875 L7.759375,7.759375 C8.8453125,6.6734375 10.3453125,6 12,6 C15.2234375,6 17.8625,8.55625 17.99375,11.7484375 C18,11.8828125 18.1109375,11.9875 18.24375,11.9875 L19.7453125,11.9875 C19.8859375,11.9875 20,11.8703125 19.9953125,11.7296875 C19.853125,7.44375 16.321875,4 12.0015625,4 C9.7953125,4 7.7953125,4.8984375 6.346875,6.3453125 L4.2140625,4.2125 C4.134375,4.134375 4,4.190625 4,4.3015625 L4,9.8765625 C4,9.9453125 4.05625,10.0015625 4.125,10.0015625 L8.6859375,10.0015625 L9.1265625,10.478125 C9.03125,10.65625 8.9515625,10.84375 8.8890625,11.0390625 L7.5953125,11.1390625 C7.4953125,11.153125 7.4171875,11.253125 7.4171875,11.353125 L7.4171875,12.6859375 C7.4171875,12.7859375 7.4890625,12.871875 7.5890625,12.9 L8.875,12.9515625 C8.9359375,13.1546875 9.015625,13.3484375 9.1125,13.5328125 L8.28125,14.5015625 C8.2203125,14.5828125 8.2359375,14.7078125 8.30625,14.778125 L9.2484375,15.7203125 C9.31875,15.790625 9.43125,15.8015625 9.521875,15.75 L10.4578125,14.8859375 C10.64375,14.9859375 10.8421875,15.0671875 11.046875,15.1296875 L11.14375,16.3921875 C11.1578125,16.4921875 11.2578125,16.5703125 11.3578125,16.5703125 L12.690625,16.5703125 C12.790625,16.5703125 12.8765625,16.4984375 12.9046875,16.3984375 L12.9546875,15.1203125 C13.1546875,15.0578125 13.346875,14.9765625 13.5296875,14.878125 L14.490625,15.7203125 C14.571875,15.78125 14.696875,15.765625 14.7671875,15.6953125 L15.2328125,15.2296875 L16.24375,16.240625 C15.15625,17.3265625 13.65625,18 12.0015625,18 C8.771875,18 6.13125,15.4390625 6.00625,12.2390625 C6,12.1046875 5.890625,12 5.75625,12 L4.2546875,12 C4.1140625,12 4,12.1171875 4.0046875,12.2578125 C4.140625,16.55 7.6765625,20 12.0015625,20 C14.20625,20 16.20625,19.103125 17.6546875,17.6546875 L19.7859375,19.7875 C19.865625,19.865625 20,19.809375 20,19.6984375 L20,14.125 C20,14.05625 19.94375,14 19.875,14.0015625 M11.9859375,14.0140625 C10.88125,14.0140625 9.9859375,13.11875 9.9859375,12.0140625 C9.9859375,10.909375 10.88125,10.0140625 11.9859375,10.0140625 C13.090625,10.0140625 13.9859375,10.909375 13.9859375,12.0140625 C13.9859375,13.11875 13.090625,14.0140625 11.9859375,14.0140625"/>
</svg>
