<svg xmlns="http://www.w3.org/2000/svg" width="24" height="24" viewBox="0 0 24 24">
  <path fill="#151515" fill-rule="evenodd" d="M19.5328125,4 L4.45625,4 C4.20437718,4.00025838 4.00025838,4.20437718 4,4.45625 L4,19.5625 C4,19.8234375 4.2125,20 4.4734375,20 L19.5421875,20 C19.7953125,20 20,19.83125 20,19.578125 L20,4.4671875 C19.9998277,4.2092384 19.7907616,4.00017237 19.5328125,4 Z M19,19 L5,19 L5,5 L19,5 L19,19 Z M10,11 L13,11 L13,10 L10,10 L10,11 Z M11,8 L14,8 L14,7 L11,7 L11,8 Z M17,11 L14,11 L14,10 L16,10 L16,8 L15,8 L15,7 L17,7 L17,11 Z M7,7 L10,7 L10,8 L8,8 L8,10 L9,10 L9,11 L7,11 L7,7 Z M10,17 L13,17 L13,16 L10,16 L10,17 Z M11,14 L14,14 L14,13 L11,13 L11,14 Z M17,17 L14,17 L14,16 L16,16 L16,14 L15,14 L15,13 L17,13 L17,17 Z M7,13 L10,13 L10,14 L8,14 L8,16 L9,16 L9,17 L7,17 L7,13 Z"/>
</svg>
