<svg xmlns="http://www.w3.org/2000/svg" width="24" height="24" viewBox="0 0 24 24">
  <path fill="#151515" fill-rule="evenodd" d="M12.4411765,8.76470588 L12.4411765,10.6470588 L17.1764706,10.6470588 C17.6960664,10.6475453 18.1171606,11.0686395 18.1176471,11.5882353 L18.1176471,11.5882353 L18.1176471,13.4705882 L19.0588235,13.4705882 C19.5784193,13.4710747 19.9995135,13.8921689 20,14.4117647 L20,14.4117647 L20,17.2352941 C19.9995135,17.7548899 19.5784193,18.1759841 19.0588235,18.1764706 L19.0588235,18.1764706 L16.2352941,18.1764706 C15.7156983,18.1759841 15.2946041,17.7548899 15.2941176,17.2352941 L15.2941176,17.2352941 L15.2941176,14.4117647 C15.2946041,13.8921689 15.7156983,13.4710747 16.2352941,13.4705882 L16.2352941,13.4705882 L17.1764706,13.4705882 L17.1764706,11.5882353 L12.4411765,11.5882353 L12.4411765,13.4705882 L13.3970588,13.4705882 C13.9166546,13.4710747 14.3377489,13.8921689 14.3382353,14.4117647 L14.3382353,14.4117647 L14.3382353,17.2352941 C14.3377489,17.7548899 13.9166546,18.1759841 13.3970588,18.1764706 L13.3970588,18.1764706 L10.5735294,18.1764706 C10.0539336,18.1759841 9.63283938,17.7548899 9.63235294,17.2352941 L9.63235294,17.2352941 L9.63235294,14.4117647 C9.63283938,13.8921689 10.0539336,13.4710747 10.5735294,13.4705882 L10.5735294,13.4705882 L11.5,13.4705882 L11.5,11.5882353 L6.82352941,11.5882353 L6.82352941,13.4705882 L7.76470588,13.4705882 C8.28430168,13.4710747 8.70539591,13.8921689 8.70588235,14.4117647 L8.70588235,14.4117647 L8.70588235,17.2352941 C8.70539591,17.7548899 8.28430168,18.1759841 7.76470588,18.1764706 L7.76470588,18.1764706 L4.94117647,18.1764706 C4.42158068,18.1759841 4.00048644,17.7548899 4,17.2352941 L4,17.2352941 L4,14.4117647 C4.00048644,13.8921689 4.42158068,13.4710747 4.94117647,13.4705882 L4.94117647,13.4705882 L5.88235294,13.4705882 L5.88235294,11.5882353 C5.88283938,11.0686395 6.30393362,10.6475453 6.82352941,10.6470588 L6.82352941,10.6470588 L11.5,10.6470588 L11.5,8.76470588 L12.4411765,8.76470588 Z M19.0588235,5 L19.0588235,7.82352941 L4.94117647,7.82352941 L4.94117647,5 L19.0588235,5 Z M14.3529412,6.88235294 L18.125,6.88235294 L18.125,5.94117647 L14.3529412,5.94117647 L14.3529412,6.88235294 Z"/>
</svg>
