<svg xmlns="http://www.w3.org/2000/svg" width="24" height="24" viewBox="0 0 24 24">
  <path fill="#151515" fill-rule="evenodd" d="M12,14.2307692 C6.61153846,14.2307692 4.85192308,13.1134615 4.27884615,12.3846154 C4,12.0307692 4,12.3846154 4,12.3846154 L4,16.0769231 C4,17.4365385 7.58076923,18.5384615 12,18.5384615 C16.4192308,18.5384615 20,17.4365385 20,16.0769231 L20,12.3846154 C20,12.3846154 20,12.0307692 19.7211538,12.3846154 C19.1480769,13.1134615 17.3884615,14.2307692 12,14.2307692 L12,14.2307692 Z M20,9.90384615 C20,11.2634615 16.4192308,12.3653846 12,12.3653846 C7.58076923,12.3653846 4,11.2634615 4,9.90384615 L4,7.46153846 C4,6.10192308 7.58076923,5 12,5 C16.4192308,5 20,6.10192308 20,7.46153846 L20,9.90384615 Z"/>
</svg>
