<?xml version="1.0" encoding="UTF-8"?>
<svg width="44px" height="40px" viewBox="0 0 44 40" version="1.1" xmlns="http://www.w3.org/2000/svg" xmlns:xlink="http://www.w3.org/1999/xlink">
    <title></title>
    <g id="Navigation" stroke="none" stroke-width="1" fill="none" fill-rule="evenodd">
        <g id="Navigation/5.-Tertiary-Nav/Overflow-Arrows/Right-Disabled">
            <rect id="Background" fill="#FFFFFF" x="0" y="0" width="44" height="40"></rect>
            <g id="Icons-/-ðŸ–¼-Dynamic-Icon" transform="translate(10.000000, 8.000000)">
                <g id="angle-right" fill="#151515">
                    <path d="M10.985919,16.7827983 L15.2359089,12.5328085 C15.5296704,12.239047 15.5296704,11.7640725 15.2327961,11.470311 L10.9828062,7.22032113 C10.692188,6.92655962 10.2171831,6.92655962 9.92342157,7.22032113 L9.22029824,7.93281333 C8.92656725,8.22343153 8.92656725,8.6984365 9.22029824,8.99219801 L12.2328033,12.0046725 L9.22029824,15.0171775 C8.92656725,15.3077957 8.92656725,15.7828007 9.22029824,16.0765622 L9.92656487,16.7827983 C10.2171831,17.0765598 10.692188,17.0765598 10.985919,16.7827983 Z"></path>
                </g>
                <rect id="ðŸŽ¨-Color" fill="#D2D2D2" x="0" y="0" width="24" height="24"></rect>
            </g>
            <g id="ðŸ“-Padding" fill="#92D400" fill-opacity="0.9" stroke="#7FB300">
                <g id="Spacer-/-Horizontal-/-4.-pf-global--spacer--lg-(24px)">
                    <rect id="Rectangle-Copy" x="0.5" y="0.5" width="7" height="39"></rect>
                </g>
                <g id="Spacer-/-Horizontal-/-4.-pf-global--spacer--lg-(24px)" transform="translate(24.000000, 0.000000)">
                    <rect id="Rectangle-Copy" x="0.5" y="0.5" width="7" height="39"></rect>
                </g>
            </g>
            <rect id="Rectangle" stroke="#F0F0F0" fill="#FFFFFF" x="0.5" y="0.5" width="1" height="39"></rect>
        </g>
    </g>
</svg>