<?xml version="1.0" encoding="UTF-8"?>
<svg width="44px" height="76px" viewBox="0 0 44 76" version="1.1" xmlns="http://www.w3.org/2000/svg" xmlns:xlink="http://www.w3.org/1999/xlink">
    <title></title>
    <g id="Masthead" stroke="none" stroke-width="1" fill="none" fill-rule="evenodd">
        <g id="Masthead-/-3.-Horizontal-Nav-/-4.-Overflow-Arrows-/-Left-Hover">
            <rect id="Background" fill="#151515" x="0" y="0" width="44" height="76"></rect>
            <g id="Icons-/-Framework-/-angle-left" transform="translate(10.000000, 26.000000)" fill="#2B9AF3">
                <path d="M14.5324209,16.7827983 L15.238657,16.0734189 C15.5324185,15.7828007 15.5324185,15.3077957 15.238657,15.0140648 L12.2261825,12.0015597 L15.2355442,8.98594192 C15.5292752,8.69532372 15.5292752,8.22031875 15.2355442,7.92655724 L14.5292776,7.22032113 C14.2386594,6.92655962 13.7636544,6.92655962 13.4699234,7.22032113 L9.21993357,11.470311 C8.92617206,11.7640725 8.92617206,12.239047 9.22304636,12.5328085 L13.4730362,16.7827983 C13.7636544,17.0765598 14.2386594,17.0765598 14.5324209,16.7827983 Z" id="angle-left"></path>
            </g>
            <g id="ðŸ“-Padding" fill="#92D400" fill-opacity="0.9" stroke="#7FB300">
                <g id="Spacer-/-Horizontal-/-2.-pf-global--spacer--sm-(8px)">
                    <rect id="Rectangle-Copy" x="0.5" y="0.5" width="7" height="75"></rect>
                </g>
                <g id="Spacer-/-Horizontal-/-2.-pf-global--spacer--sm-(8px)" transform="translate(24.000000, 0.000000)">
                    <rect id="Rectangle-Copy" x="0.5" y="0.5" width="7" height="75"></rect>
                </g>
            </g>
            <rect id="Rectangle" stroke="#6A6E73" fill="#FFFFFF" x="43.5" y="0.5" width="1" height="75"></rect>
        </g>
    </g>
</svg>