<?xml version="1.0" encoding="UTF-8"?>
<svg width="44px" height="76px" viewBox="0 0 44 76" version="1.1" xmlns="http://www.w3.org/2000/svg" xmlns:xlink="http://www.w3.org/1999/xlink">
    <title></title>
    <g id="Masthead" stroke="none" stroke-width="1" fill="none" fill-rule="evenodd">
        <g id="Masthead-/-3.-Horizontal-Nav-/-4.-Overflow-Arrows-/-Right">
            <rect id="Background" fill="#151515" x="0" y="0" width="44" height="76"></rect>
            <g id="Icons-/-Framework-/-angle-left" transform="translate(10.000000, 26.000000)" fill="#FFFFFF">
                <path d="M10.985919,16.7827983 L15.2359089,12.5328085 C15.5296704,12.239047 15.5296704,11.7640725 15.2327961,11.470311 L10.9828062,7.22032113 C10.692188,6.92655962 10.2171831,6.92655962 9.92342157,7.22032113 L9.22029824,7.93281333 C8.92656725,8.22343153 8.92656725,8.6984365 9.22029824,8.99219801 L12.2328033,12.0046725 L9.22029824,15.0171775 C8.92656725,15.3077957 8.92656725,15.7828007 9.22029824,16.0765622 L9.92656487,16.7827983 C10.2171831,17.0765598 10.692188,17.0765598 10.985919,16.7827983 Z" id="angle-right"></path>
            </g>
            <g id="ðŸ“-Padding" fill="#92D400" fill-opacity="0.9" stroke="#7FB300">
                <g id="Spacer-/-Horizontal-/-2.-pf-global--spacer--sm-(8px)">
                    <rect id="Rectangle-Copy" x="0.5" y="0.5" width="7" height="75"></rect>
                </g>
                <g id="Spacer-/-Horizontal-/-2.-pf-global--spacer--sm-(8px)" transform="translate(24.000000, 0.000000)">
                    <rect id="Rectangle-Copy" x="0.5" y="0.5" width="7" height="75"></rect>
                </g>
            </g>
            <rect id="Rectangle" stroke="#6A6E73" fill="#FFFFFF" x="0.5" y="0.5" width="1" height="75"></rect>
        </g>
    </g>
</svg>