<?xml version="1.0" encoding="UTF-8"?><svg version="1.1" width="87px" height="85px" viewBox="0 0 87.0 85.0" xmlns="http://www.w3.org/2000/svg" xmlns:xlink="http://www.w3.org/1999/xlink"><defs><clipPath id="i0"><path d="M85,0 L85,8 L0,8 L0,0 L85,0 Z"></path></clipPath><clipPath id="i1"><path d="M85,0 L85,4 L0,4 L0,0 L85,0 Z"></path></clipPath><clipPath id="i2"><path d="M14,0 C21.7319865,0 28,6.2680135 28,14 C28,21.7319865 21.7319865,28 14,28 C6.2680135,28 0,21.7319865 0,14 C0,6.2680135 6.2680135,0 14,0 Z"></path></clipPath><clipPath id="i3"><path d="M7.74998152,0 C12.0298785,0 15.499963,3.47133572 15.499963,7.74998152 C15.499963,12.0311298 12.0298785,15.499963 7.74998152,15.499963 C3.4700845,15.499963 0,12.0311298 0,7.74998152 C0,3.47133572 3.4700845,0 7.74998152,0 Z M7.74998152,9.3124778 C6.95606862,9.3124778 6.31248495,9.95606147 6.31248495,10.7499744 C6.31248495,11.5438873 6.95606862,12.1874709 7.74998152,12.1874709 C8.54389442,12.1874709 9.1874781,11.5438873 9.1874781,10.7499744 C9.1874781,9.95606147 8.54389442,9.3124778 7.74998152,9.3124778 Z M8.74033561,3.74999106 L6.75959692,3.74999106 C6.54447903,3.74999106 6.37348944,3.93062417 6.38520817,4.14543689 L6.61701914,8.39542676 C6.62785285,8.59427883 6.79228117,8.74997914 6.99143841,8.74997914 L8.50852464,8.74997914 C8.70768188,8.74997914 8.87211019,8.59427883 8.88294391,8.39542676 L9.11475488,4.14543689 C9.1264736,3.93062417 8.9554535,3.74999106 8.74033561,3.74999106 Z"></path></clipPath></defs><g transform="translate(0.0 64.0)"><text transform="translate(0.0 14.0)" font-family="RedHatText-Regular, Red Hat Text" font-size="14.0" font-weight="normal" fill="#696E73" text-anchor="left" line-spacing="21.0">Description 2</text></g><g transform="translate(0.0 27.0)"><g transform="translate(0.0 -0.22222222222222232)"><g clip-path="url(#i0)"><polygon points="0,0 85,0 85,8 0,8 0,0" stroke="none" fill="rgba(146, 211, 0, 0.9)"></polygon></g><g clip-path="url(#i0)"><polygon points="0,0 85,0 85,8 0,8 0,0 0,0" stroke="#7EB200" stroke-width="2" fill="none" stroke-miterlimit="5"></polygon></g></g><g transform="translate(0.0 30.222222222222225)"><g transform="translate(0.0 -0.1111111111111105)"><g clip-path="url(#i1)"><polygon points="0,0 85,0 85,4 0,4 0,0" stroke="none" fill="rgba(236, 121, 8, 0.9)"></polygon></g><g clip-path="url(#i1)"><polygon points="0,0 85,0 85,4 0,4 0,0 0,0" stroke="#C67000" stroke-width="2" fill="none" stroke-miterlimit="5"></polygon></g></g></g></g><g transform="translate(0.0 36.0)"><text transform="translate(0.0 16.0)" font-family="RedHatText-Medium, Red Hat Text" font-size="16.0" font-weight="400" fill="#C9190A" text-anchor="left" line-spacing="24.0">Description</text></g><g clip-path="url(#i2)"><polygon points="0,0 28,0 28,28 0,28 0,0" stroke="none" fill="#FAFAFA"></polygon><path d="M14,28 C21.7319865,28 28,21.7319865 28,14 C28,6.2680135 21.7319865,0 14,0 C6.2680135,0 0,6.2680135 0,14 C0,21.7319865 6.2680135,28 14,28 Z" stroke="#D2D2D2" stroke-width="4" fill="none" stroke-miterlimit="5"></path></g><g transform="translate(2.0 2.0)"><g transform="translate(4.0 4.0)"><g clip-path="url(#i3)"><polygon points="0,0 15.499963,0 15.499963,15.499963 0,15.499963 0,0" stroke="none" fill="#C9190A"></polygon></g></g></g></svg>