<?xml version="1.0" encoding="UTF-8"?>
<svg width="171px" height="118px" viewBox="0 0 171 118" version="1.1" xmlns="http://www.w3.org/2000/svg" xmlns:xlink="http://www.w3.org/1999/xlink">
    <title></title>
    <g id="Alerts" stroke="none" stroke-width="1" fill="none" fill-rule="evenodd">
        <g id="Alerts-/-Inline-/-2.-Success-/-3.-Description-/-Actions">
            <rect id="Background" fill="#F3FAF2" x="0" y="0" width="171" height="118"></rect>
            <rect id="Status-Color" fill="#3E8635" x="0" y="0" width="171" height="3"></rect>
            <g id="check-circle" transform="translate(16.000000, 16.000000)" fill="#3E8635">
                <path d="M11.7499815,19.499963 C16.0301837,19.499963 19.499963,16.0301837 19.499963,11.7499815 C19.499963,7.46977933 16.0301837,4 11.7499815,4 C7.46977933,4 4,7.46977933 4,11.7499815 C4,16.0301837 7.46977933,19.499963 11.7499815,19.499963 Z M10.1464087,15.8535179 L6.89641643,12.6035256 C6.70119595,12.4082746 6.70119595,12.0916555 6.89641643,11.8964045 L7.60353755,11.1893139 C7.79878855,10.9940629 8.11540767,10.9940629 8.31065867,11.1893139 L10.4999845,13.3786703 L15.1893044,8.68935039 C15.3845859,8.49406888 15.701205,8.49406888 15.8964255,8.68935039 L16.6035466,9.39644099 C16.7987671,9.59169199 16.7987671,9.90831111 16.6035466,10.1035621 L10.8535603,15.8535484 C10.6582788,16.0487689 10.3416902,16.0487689 10.1464087,15.8535179 Z"></path>
            </g>
            <text id="Action" font-family="RedHatText-Regular, Red Hat Text" font-size="14" font-weight="normal" line-spacing="21" fill="#0066CC">
                <tspan x="44" y="95">Action</tspan>
            </text>
            <text id="Description" font-family="RedHatText-Regular, Red Hat Text" font-size="14" font-weight="normal" line-spacing="21" fill="#151515">
                <tspan x="44" y="58">Description</tspan>
            </text>
            <text id="Title" font-family="RedHatText-Medium, Red Hat Text" font-size="14" font-weight="400" line-spacing="21" fill="#1E4F18">
                <tspan x="44" y="32">Title</tspan>
            </text>
            <g id="ðŸ“-Padding" fill-opacity="0.9">
                <g id="Group" transform="translate(0.000000, 0.000000)" fill="#3F9C35" stroke="#418A38">
                    <g id="Spacer-/-Horizontal-/-3.-pf-global--spacer--md-(16px)" transform="translate(8.000000, 59.000000) scale(-1, 1) translate(-8.000000, -59.000000) translate(0.000000, 0.000000)">
                        <rect id="Rectangle-Copy-2" x="0.5" y="0.5" width="15" height="117"></rect>
                    </g>
                </g>
                <g id="Group" transform="translate(155.000000, 0.000000)" fill="#3F9C35" stroke="#418A38">
                    <g id="Spacer-/-Horizontal-/-3.-pf-global--spacer--md-(16px)" transform="translate(8.000000, 59.000000) scale(-1, 1) translate(-8.000000, -59.000000) ">
                        <rect id="Rectangle-Copy-2" x="0.5" y="0.5" width="15" height="117"></rect>
                    </g>
                </g>
                <g id="Group" transform="translate(40.000000, 16.000000)" fill="#EC7A08" stroke="#C77000">
                    <g id="Spacer-/-Horizontal-/-3.-pf-global--spacer--md-(16px)" transform="translate(2.000000, 24.500000) scale(-1, 1) translate(-2.000000, -24.500000) ">
                        <rect id="Rectangle" x="0.5" y="0.5" width="3" height="48"></rect>
                    </g>
                </g>
                <g id="Spacer-/-Vertical-/-1.-pf-global--spacer--xs-(4px)" transform="translate(44.000000, 40.000000)" fill="#EC7A08" stroke="#C77000">
                    <rect id="Rectangle" x="0.5" y="0.5" width="110" height="3"></rect>
                </g>
                <g id="Spacer-/-Vertical-/-3.-pf-global--spacer--md-(16px)" transform="translate(16.000000, 0.000000)" fill="#3F9C35" stroke="#418A38">
                    <rect id="Rectangle-Copy-2" x="0.5" y="0.5" width="138" height="15"></rect>
                </g>
                <g id="Spacer-/-Vertical-/-3.-pf-global--spacer--md-(16px)" transform="translate(16.000000, 102.000000)" fill="#3F9C35" stroke="#418A38">
                    <rect id="Rectangle-Copy-2" x="0.5" y="0.5" width="138" height="15"></rect>
                </g>
                <g id="Spacer-/-Vertical-/-3.-pf-global--spacer--md-(16px)" transform="translate(16.000000, 65.000000)" fill="#3F9C35" stroke="#418A38">
                    <rect id="Rectangle-Copy-2" x="0.5" y="0.5" width="138" height="15"></rect>
                </g>
            </g>
        </g>
    </g>
</svg>