<?xml version="1.0" encoding="UTF-8"?><svg version="1.1" width="208px" height="36px" viewBox="0 0 208.0 36.0" xmlns="http://www.w3.org/2000/svg" xmlns:xlink="http://www.w3.org/1999/xlink"><defs><clipPath id="i0"><path d="M40,0 L40,36 L0,36 L0,0 L40,0 Z"></path></clipPath><clipPath id="i1"><path d="M12.999969,0 C13.5521527,0 13.9999666,0.447813874 13.9999666,1 L13.9999666,2 C13.9999666,2.55217897 13.5521527,3 12.999969,3 L1,3 C0.447813874,3 0,2.55217897 0,2 L0,1 C0,0.447813874 0.447813874,0 1,0 Z"></path></clipPath><clipPath id="i2"><path d="M7.49998212,0 C8.05216586,0 8.49997973,0.447813874 8.49997973,1 L8.49997973,5.49998689 L12.999969,5.49998689 C13.5521527,5.49998689 13.9999666,5.94780076 13.9999666,6.4999845 L13.9999666,7.49998212 C13.9999666,8.05216586 13.5521527,8.49997973 12.999969,8.49997973 L8.49997973,8.49997973 L8.49997973,12.999969 C8.49997973,13.5521527 8.05216586,13.9999666 7.49998212,13.9999666 L6.4999845,13.9999666 C5.94780076,13.9999666 5.49998689,13.5521527 5.49998689,12.999969 L5.49998689,8.49997973 L1,8.49997973 C0.447813874,8.49997973 0,8.05216586 0,7.49998212 L0,6.4999845 C0,5.94780076 0.447813874,5.49998689 1,5.49998689 L5.49998689,5.49998689 L5.49998689,1 C5.49998689,0.447813874 5.94780076,0 6.4999845,0 Z"></path></clipPath><clipPath id="i3"><path d="M8,0 L8,36 L0,36 L0,0 L8,0 Z"></path></clipPath><clipPath id="i4"><path d="M24,0 L24,6 L0,6 L0,0 L24,0 Z"></path></clipPath><clipPath id="i5"><path d="M130,0 L130,36 L0,36 L0,0 L130,0 Z"></path></clipPath><clipPath id="i6"><path d="M114,0 L114,6 L0,6 L0,0 L114,0 Z"></path></clipPath></defs><g clip-path="url(#i0)"><polygon points="0,0 40,0 40,36 0,36 0,0" stroke="none" fill="#F0F0F0"></polygon></g><g transform="translate(8.0 6.0)"><g transform="translate(5.0 11.0)"><g clip-path="url(#i1)"><polygon points="0,0 13.9999666,0 13.9999666,3 0,3 0,0" stroke="none" fill="#696E73"></polygon></g></g></g><g transform="translate(168.0 0.0)"><g clip-path="url(#i0)"><polygon points="0,0 40,0 40,36 0,36 0,0" stroke="none" fill="#F0F0F0"></polygon></g><g transform="translate(8.0 6.0)"><g transform="translate(5.0 5.0)"><g clip-path="url(#i2)"><polygon points="0,0 13.9999666,0 13.9999666,13.9999666 0,13.9999666 0,0" stroke="none" fill="#696E73"></polygon></g></g></g><g clip-path="url(#i3)"><polygon points="0,0 8,0 8,36 0,36 0,0" stroke="none" fill="rgba(146, 211, 0, 0.9)"></polygon></g><g clip-path="url(#i3)"><polygon points="0,0 8,0 8,36 0,36 0,0 0,0" stroke="#7EB200" stroke-width="2" fill="none" stroke-miterlimit="5"></polygon></g><g transform="translate(32.0 0.0)"><g clip-path="url(#i3)"><polygon points="0,0 8,0 8,36 0,36 0,0" stroke="none" fill="rgba(146, 211, 0, 0.9)"></polygon></g><g clip-path="url(#i3)"><polygon points="0,0 8,0 8,36 0,36 0,0 0,0" stroke="#7EB200" stroke-width="2" fill="none" stroke-miterlimit="5"></polygon></g></g><g transform="translate(8.0 0.0)"><g clip-path="url(#i4)"><polygon points="0,0 24,0 24,6 0,6 0,0" stroke="none" fill="rgba(243, 213, 59, 0.9)"></polygon></g><g clip-path="url(#i4)"><polygon points="0,0 24,0 24,6 0,6 0,0 0,0" stroke="#CAB534" stroke-width="2" fill="none" stroke-miterlimit="5"></polygon></g></g><g transform="translate(8.0 30.0)"><g clip-path="url(#i4)"><polygon points="0,0 24,0 24,6 0,6 0,0" stroke="none" fill="rgba(243, 213, 59, 0.9)"></polygon></g><g clip-path="url(#i4)"><polygon points="0,0 24,0 24,6 0,6 0,0 0,0" stroke="#CAB534" stroke-width="2" fill="none" stroke-miterlimit="5"></polygon></g></g></g><g transform="translate(39.0 0.0)"><g clip-path="url(#i5)"><polygon points="0,0 130,0 130,36 0,36 0,0" stroke="none" fill="#F0F0F0"></polygon></g><g transform="translate(8.0 6.0)"><text transform="translate(51.232 16.0)" font-family="RedHatText-Regular, Red Hat Text" font-size="16.0" font-weight="normal" fill="#151515" text-anchor="right" line-spacing="24.0">Text box</text></g><g clip-path="url(#i3)"><polygon points="0,0 8,0 8,36 0,36 0,0" stroke="none" fill="rgba(146, 211, 0, 0.9)"></polygon></g><g clip-path="url(#i3)"><polygon points="0,0 8,0 8,36 0,36 0,0 0,0" stroke="#7EB200" stroke-width="2" fill="none" stroke-miterlimit="5"></polygon></g><g transform="translate(122.0 0.0)"><g clip-path="url(#i3)"><polygon points="0,0 8,0 8,36 0,36 0,0" stroke="none" fill="rgba(146, 211, 0, 0.9)"></polygon></g><g clip-path="url(#i3)"><polygon points="0,0 8,0 8,36 0,36 0,0 0,0" stroke="#7EB200" stroke-width="2" fill="none" stroke-miterlimit="5"></polygon></g></g><g transform="translate(8.0 30.0)"><g clip-path="url(#i6)"><polygon points="0,0 114,0 114,6 0,6 0,0" stroke="none" fill="rgba(243, 213, 59, 0.9)"></polygon></g><g clip-path="url(#i6)"><polygon points="0,0 114,0 114,6 0,6 0,0 0,0" stroke="#CAB534" stroke-width="2" fill="none" stroke-miterlimit="5"></polygon></g></g><g transform="translate(8.0 0.0)"><g clip-path="url(#i6)"><polygon points="0,0 114,0 114,6 0,6 0,0" stroke="none" fill="rgba(243, 213, 59, 0.9)"></polygon></g><g clip-path="url(#i6)"><polygon points="0,0 114,0 114,6 0,6 0,0 0,0" stroke="#CAB534" stroke-width="2" fill="none" stroke-miterlimit="5"></polygon></g></g></g></svg>