<?xml version="1.0" encoding="UTF-8"?>
<svg width="208px" height="36px" viewBox="0 0 208 36" version="1.1" xmlns="http://www.w3.org/2000/svg" xmlns:xlink="http://www.w3.org/1999/xlink">
    <title></title>
    <g id="Form-Inputs" stroke="none" stroke-width="1" fill="none" fill-rule="evenodd">
        <g id="Forms-/-13.-Number-input-/-2.-Disabled">
            <g id="Forms-/-6.-Icon-Field-/-Disabled-(no-border)">
                <rect id="Background" fill="#F0F0F0" x="0" y="0" width="40" height="36"></rect>
                <g id="ðŸ–¼-Icon" transform="translate(13.000000, 11.000000)" fill="#6A6E73">
                    <path d="M7.18748286,13.6249675 C7.39581586,13.6249675 7.57289845,13.5520512 7.7187316,13.406218 L13.7812171,7.34373249 C13.9270503,7.19789935 13.9999666,7.02081675 13.9999666,6.81248376 C13.9999666,6.60415076 13.9270503,6.42706817 13.7812171,6.28123502 L7.7187316,0.218749478 C7.57289845,0.0729163339 7.39581586,0 7.18748286,0 C6.97914987,0 6.80206727,0.0729163339 6.65623413,0.218749478 L5.96873577,0.906247839 C5.80206966,1.05208098 5.72394485,1.22916358 5.73436133,1.43749657 C5.74477781,1.64582957 5.82290262,1.82291216 5.96873577,1.96874531 L9.71872683,5.56248674 L0.749998212,5.56248674 C0.541665216,5.56248674 0.364582623,5.63540307 0.218749478,5.78123622 C0.0729163339,5.92706936 1.77635684e-15,6.10415195 1.77635684e-15,6.31248495 L1.77635684e-15,7.31248257 C1.77635684e-15,7.52081556 0.0729163339,7.69789815 0.218749478,7.8437313 C0.364582623,7.98956444 0.541665216,8.06248078 0.749998212,8.06248078 L9.71872683,8.06248078 L5.96873577,11.6562222 C5.82290262,11.8020554 5.74477781,11.9791379 5.73436133,12.1874709 C5.72394485,12.3958039 5.80206966,12.5728865 5.96873577,12.7187197 L6.65623413,13.406218 C6.80206727,13.5520512 6.97914987,13.6249675 7.18748286,13.6249675 Z" id="arrow-right"></path>
                </g>
                <g id="ðŸ“-Padding" fill-opacity="0.9">
                    <g id="Spacer-/-Horizontal-/-3.-pf-global--spacer--md-(16px)" fill="#92D400" stroke="#7FB300">
                        <rect id="Rectangle-Copy" x="0.5" y="0.5" width="7" height="35"></rect>
                    </g>
                    <g id="Spacer-/-Horizontal-/-3.-pf-global--spacer--md-(16px)" transform="translate(32.000000, 0.000000)" fill="#92D400" stroke="#7FB300">
                        <rect id="Rectangle-Copy" x="0.5" y="0.5" width="7" height="35"></rect>
                    </g>
                    <g id="Spacer-/-Vertical-/-8.-pf-global--spacer--form-element-(6px)" transform="translate(8.000000, 0.000000)" fill="#F3D53C" stroke="#CBB534">
                        <rect id="Rectangle" x="0.5" y="0.5" width="23" height="5"></rect>
                    </g>
                    <g id="Spacer-/-Vertical-/-8.-pf-global--spacer--form-element-(6px)" transform="translate(8.000000, 30.000000)" fill="#F3D53C" stroke="#CBB534">
                        <rect id="Rectangle" x="0.5" y="0.5" width="23" height="5"></rect>
                    </g>
                </g>
            </g>
            <g id="Forms-/-6.-Icon-Field-/-1.-Default" transform="translate(168.000000, 0.000000)">
                <rect id="Background" fill="#F0F0F0" x="0" y="0" width="40" height="36"></rect>
                <g id="ðŸ–¼-Icon" transform="translate(13.000000, 11.000000)" fill="#6A6E73">
                    <path d="M7.49998212,13.9999666 C8.05216586,13.9999666 8.49997973,13.5521527 8.49997973,12.999969 L8.49997973,8.49997973 L12.999969,8.49997973 C13.5521527,8.49997973 13.9999666,8.05216586 13.9999666,7.49998212 L13.9999666,6.4999845 C13.9999666,5.94780076 13.5521527,5.49998689 12.999969,5.49998689 L8.49997973,5.49998689 L8.49997973,1 C8.49997973,0.447813874 8.05216586,1.77635684e-15 7.49998212,1.77635684e-15 L6.4999845,1.77635684e-15 C5.94780076,1.77635684e-15 5.49998689,0.447813874 5.49998689,1 L5.49998689,5.49998689 L1,5.49998689 C0.447813874,5.49998689 1.77635684e-15,5.94780076 1.77635684e-15,6.4999845 L1.77635684e-15,7.49998212 C1.77635684e-15,8.05216586 0.447813874,8.49997973 1,8.49997973 L5.49998689,8.49997973 L5.49998689,12.999969 C5.49998689,13.5521527 5.94780076,13.9999666 6.4999845,13.9999666 L7.49998212,13.9999666 Z" id="plus"></path>
                </g>
                <g id="ðŸ“-Padding" fill-opacity="0.9">
                    <g id="Spacer-/-Horizontal-/-3.-pf-global--spacer--md-(16px)" fill="#92D400" stroke="#7FB300">
                        <rect id="Rectangle-Copy" x="0.5" y="0.5" width="7" height="35"></rect>
                    </g>
                    <g id="Spacer-/-Horizontal-/-3.-pf-global--spacer--md-(16px)" transform="translate(32.000000, 0.000000)" fill="#92D400" stroke="#7FB300">
                        <rect id="Rectangle-Copy" x="0.5" y="0.5" width="7" height="35"></rect>
                    </g>
                    <g id="Spacer-/-Vertical-/-8.-pf-global--spacer--form-element-(6px)" transform="translate(8.000000, 0.000000)" fill="#F3D53C" stroke="#CBB534">
                        <rect id="Rectangle" x="0.5" y="0.5" width="23" height="5"></rect>
                    </g>
                    <g id="Spacer-/-Vertical-/-8.-pf-global--spacer--form-element-(6px)" transform="translate(8.000000, 30.000000)" fill="#F3D53C" stroke="#CBB534">
                        <rect id="Rectangle" x="0.5" y="0.5" width="23" height="5"></rect>
                    </g>
                </g>
            </g>
            <g id="Forms-/-2.-Text-Box-/-1.-Default" transform="translate(39.000000, 0.000000)">
                <rect id="Background" fill="#F0F0F0" x="0" y="0" width="130" height="36"></rect>
                <text id="âœï¸-Content" font-family="RedHatText-Regular, Red Hat Text" font-size="16" font-weight="normal" line-spacing="24" fill="#151515">
                    <tspan x="59.232" y="22">Text box</tspan>
                </text>
                <g id="ðŸ“-Padding" fill-opacity="0.9">
                    <g id="Spacer-/-Horizontal-/-2.-pf-global--spacer--sm-(8px)" fill="#92D400" stroke="#7FB300">
                        <rect id="Rectangle-Copy" x="0.5" y="0.5" width="7" height="35"></rect>
                    </g>
                    <g id="Spacer-/-Horizontal-/-2.-pf-global--spacer--sm-(8px)" transform="translate(122.000000, 0.000000)" fill="#92D400" stroke="#7FB300">
                        <rect id="Rectangle-Copy" x="0.5" y="0.5" width="7" height="35"></rect>
                    </g>
                    <g id="Spacer-/-Vertical-/-8.-pf-global--spacer--form-element-(6px)" transform="translate(8.000000, 30.000000)" fill="#F3D53C" stroke="#CBB534">
                        <rect id="Rectangle" x="0.5" y="0.5" width="113" height="5"></rect>
                    </g>
                    <g id="Spacer-/-Vertical-/-8.-pf-global--spacer--form-element-(6px)" transform="translate(8.000000, 0.000000)" fill="#F3D53C" stroke="#CBB534">
                        <rect id="Rectangle" x="0.5" y="0.5" width="113" height="5"></rect>
                    </g>
                </g>
            </g>
        </g>
    </g>
</svg>