<svg xmlns="http://www.w3.org/2000/svg" xmlns:xlink="http://www.w3.org/1999/xlink" width="32" height="40" viewBox="0 0 32 40">
  <defs>
    <rect id="right-default-b" width="32" height="40" x="0" y="0"/>
    <filter id="right-default-a" width="262.5%" height="195%" x="-121.9%" y="-47.5%" filterUnits="objectBoundingBox">
      <feMorphology in="SourceAlpha" radius="2" result="shadowSpreadOuter1"/>
      <feOffset dx="-20" in="shadowSpreadOuter1" result="shadowOffsetOuter1"/>
      <feGaussianBlur in="shadowOffsetOuter1" result="shadowBlurOuter1" stdDeviation="5"/>
      <feColorMatrix in="shadowBlurOuter1" values="0 0 0 0 0.141176471   0 0 0 0 0.141176471   0 0 0 0 0.141176471  0 0 0 1 0"/>
    </filter>
  </defs>
  <g fill="none" fill-rule="evenodd">
    <use fill="#000" filter="url(#right-default-a)" xlink:href="#right-default-b"/>
    <use fill="#242424" xlink:href="#right-default-b"/>
    <g transform="translate(4 8)">
      <path fill="#151515" d="M11.4894393,15.3370987 L14.6769317,12.1496063 C14.8972528,11.9292852 14.8972528,11.5730544 14.6745971,11.3527332 L11.4871047,8.16524085 C11.269141,7.94491972 10.9128873,7.94491972 10.6925662,8.16524085 L10.1652237,8.69961 C9.94492544,8.91757365 9.94492544,9.27382738 10.1652237,9.49414851 L12.4246024,11.7535044 L10.1652237,14.0128832 C9.94492544,14.2308468 9.94492544,14.5871005 10.1652237,14.8074217 L10.6949237,15.3370987 C10.9128873,15.5574199 11.269141,15.5574199 11.4894393,15.3370987 Z"/>
      <rect width="24" height="24" fill="#FFF"/>
    </g>
    <g fill="#92D400" fill-opacity=".9" stroke="#7FB300">
      <rect width="7" height="39" x=".5" y=".5"/>
      <rect width="7" height="39" x=".5" y=".5" transform="translate(24)"/>
    </g>
  </g>
</svg>
