<?xml version="1.0" encoding="UTF-8"?><svg version="1.1" width="290px" height="56px" viewBox="0 0 290.0 56.0" xmlns="http://www.w3.org/2000/svg" xmlns:xlink="http://www.w3.org/1999/xlink"><defs><clipPath id="i0"><path d="M290,0 L290,56 L0,56 L0,0 L290,0 Z"></path></clipPath><clipPath id="i1"><path d="M0.923421565,0.22032113 C1.21718307,-0.0734403767 1.69218804,-0.0734403767 1.98280625,0.22032113 L6.23279611,4.470311 C6.52967041,4.7640725 6.52967041,5.23904696 6.2359089,5.53280846 L1.98591903,9.78279833 C1.69218804,10.0765598 1.21718307,10.0765598 0.926564869,9.78279833 L0.220298242,9.07656222 C-0.0734327473,8.78280072 -0.0734327473,8.30779574 0.220298242,8.01717754 L3.23280327,5.00467252 L0.220298242,1.99219801 C-0.0734327473,1.6984365 -0.0734327473,1.22343153 0.220298242,0.932813328 Z"></path></clipPath><clipPath id="i2"><path d="M24,0 L24,24 L0,24 L0,0 L24,0 Z"></path></clipPath><clipPath id="i3"><path d="M242,0 L242,16 L0,16 L0,0 L242,0 Z"></path></clipPath><clipPath id="i4"><path d="M24,0 L24,56 L0,56 L0,0 L24,0 Z"></path></clipPath></defs><rect x="0px" y="0px" width="290px" height="56px" fill="#3B3F41"></rect><g clip-path="url(#i0)"><polygon points="0,0 290,0 290,56 0,56 0,0" stroke="none" fill="#3B3F41"></polygon></g><g transform="translate(24.0 16.0)"><text transform="translate(0.0 16.0)" font-family="RedHatText-Regular, Red Hat Text" font-size="16.0" font-weight="normal" fill="#FFFFFF" text-anchor="left" line-spacing="24.0">Page title</text></g><g transform="translate(242.0 16.0)"><g transform="translate(9.0 6.999999999999999)"><g clip-path="url(#i1)"><polygon points="-2.77555756e-17,-2.77555756e-17 6.45584247,-2.77555756e-17 6.45584247,10.0031195 -2.77555756e-17,10.0031195 -2.77555756e-17,-2.77555756e-17" stroke="none" fill="#151515"></polygon><g clip-path="url(#i2)"><polygon points="0,0 6.45584247,0 6.45584247,10.0031195 0,10.0031195 0,0" stroke="none" fill="#FFFFFF"></polygon></g></g></g></g><g transform="translate(24.0 40.0)"><g clip-path="url(#i3)"><polygon points="0,0 242,0 242,16 0,16 0,0" stroke="none" fill="rgba(62, 156, 52, 0.9)"></polygon></g><g clip-path="url(#i3)"><polygon points="0,0 242,0 242,16 0,16 0,0 0,0" stroke="#418A37" stroke-width="2" fill="none" stroke-miterlimit="5"></polygon></g></g><g transform="translate(24.0 0.0)"><g clip-path="url(#i3)"><polygon points="0,0 242,0 242,16 0,16 0,0" stroke="none" fill="rgba(62, 156, 52, 0.9)"></polygon></g><g clip-path="url(#i3)"><polygon points="0,0 242,0 242,16 0,16 0,0 0,0" stroke="#418A37" stroke-width="2" fill="none" stroke-miterlimit="5"></polygon></g></g><g transform="translate(266.0 0.0)"><g clip-path="url(#i4)"><polygon points="0,0 24,0 24,56 0,56 0,0" stroke="none" fill="rgba(0, 121, 135, 0.9)"></polygon></g><g clip-path="url(#i4)"><polygon points="0,0 24,0 24,56 0,56 0,0 0,0" stroke="#09707A" stroke-width="2" fill="none" stroke-miterlimit="5"></polygon></g></g><g clip-path="url(#i4)"><polygon points="0,0 24,0 24,56 0,56 0,0" stroke="none" fill="rgba(0, 121, 135, 0.9)"></polygon></g><g clip-path="url(#i4)"><polygon points="0,0 24,0 24,56 0,56 0,0 0,0" stroke="#09707A" stroke-width="2" fill="none" stroke-miterlimit="5"></polygon></g></svg>