<?xml version="1.0" encoding="UTF-8"?>
<svg width="290px" height="56px" viewBox="0 0 290 56" version="1.1" xmlns="http://www.w3.org/2000/svg" xmlns:xlink="http://www.w3.org/1999/xlink">
    <title></title>
    <g id="Navigation" stroke="none" stroke-width="1" fill="none" fill-rule="evenodd">
        <g id="Navigation-/-3.-Expandable-Nav-/-Collapsed---Selected">
            <rect fill="#4F5255" x="0" y="0" width="290" height="56"></rect>
            <rect id="bg" fill="#4F5255" x="0" y="0" width="290" height="56"></rect>
            <text id="âœï¸-Label" font-family="RedHatText-Regular, Red Hat Text" font-size="16" font-weight="normal" line-spacing="24" fill="#FFFFFF">
                <tspan x="24" y="32">Page title</tspan>
            </text>
            <rect id="Underline" fill="#73BCF7" x="0" y="0" width="4" height="56"></rect>
            <g id="arrow" transform="translate(251.000000, 23.000000)">
                <g id="ðŸ–¼-Icon" fill="#151515">
                    <path d="M1.98591903,9.78279833 L6.2359089,5.53280846 C6.52967041,5.23904696 6.52967041,4.7640725 6.23279611,4.470311 L1.98280625,0.22032113 C1.69218804,-0.0734403767 1.21718307,-0.0734403767 0.923421565,0.22032113 L0.220298242,0.932813328 C-0.0734327473,1.22343153 -0.0734327473,1.6984365 0.220298242,1.99219801 L3.23280327,5.00467252 L0.220298242,8.01717754 C-0.0734327473,8.30779574 -0.0734327473,8.78280072 0.220298242,9.07656222 L0.926564869,9.78279833 C1.21718307,10.0765598 1.69218804,10.0765598 1.98591903,9.78279833 Z" id="angle-right"></path>
                </g>
                <rect id="ðŸŽ¨-Color" fill="#FFFFFF" x="-9" y="-7" width="24" height="24"></rect>
            </g>
            <g id="ðŸ“-Padding" fill-opacity="0.9">
                <g id="Spacer--/--Vertical--/--3.-pf-global--spacer--md-(16px)" transform="translate(24.000000, 40.000000)" fill="#3F9C35" stroke="#418A38">
                    <rect id="Rectangle-Copy-2" x="0.5" y="0.5" width="241" height="15"></rect>
                </g>
                <g id="Spacer--/--Vertical--/--3.-pf-global--spacer--md-(16px)" transform="translate(24.000000, 0.000000)" fill="#3F9C35" stroke="#418A38">
                    <rect id="Rectangle-Copy-2" x="0.5" y="0.5" width="241" height="15"></rect>
                </g>
                <g id="Spacer--/--Horizontal--/--4.-pf-global--spacer--lg-(24px)" transform="translate(266.000000, 0.000000)" fill="#007A87" stroke="#09707B">
                    <rect id="Rectangle-Copy-3" x="0.5" y="0.5" width="23" height="55"></rect>
                </g>
                <g id="Spacer--/--Horizontal--/--4.-pf-global--spacer--lg-(24px)" fill="#007A87" stroke="#09707B">
                    <rect id="Rectangle-Copy-3" x="0.5" y="0.5" width="23" height="55"></rect>
                </g>
            </g>
        </g>
    </g>
</svg>