<?xml version="1.0" encoding="UTF-8"?>
<svg width="290px" height="56px" viewBox="0 0 290 56" version="1.1" xmlns="http://www.w3.org/2000/svg" xmlns:xlink="http://www.w3.org/1999/xlink">
    <title></title>
    <g id="Navigation" stroke="none" stroke-width="1" fill="none" fill-rule="evenodd">
        <g id="Navigation-/-3.-Expandable-Nav-/-Expanded---Default">
            <rect id="bg" fill="#212427" x="0" y="0" width="290" height="56"></rect>
            <text id="âœï¸-Label" font-family="RedHatText-Regular, Red Hat Text" font-size="16" font-weight="normal" line-spacing="24" fill="#FFFFFF">
                <tspan x="24" y="32">Page title</tspan>
            </text>
            <g id="arrow" transform="translate(249.000000, 25.000000)">
                <g id="ðŸ–¼-Icon" fill="#151515">
                    <path d="M5.52655238,6.2359089 L9.77654224,1.98591903 C10.0703037,1.69530083 10.0703037,1.22029586 9.77654224,0.926564869 L9.07030613,0.220298242 C8.77968793,-0.0734327473 8.30468296,-0.0734327473 8.01092145,0.220298242 L4.99844695,3.23280327 L1.98594192,0.220298242 C1.69532372,-0.0734327473 1.22031875,-0.0734327473 0.926557239,0.220298242 L0.22032113,0.926564869 C-0.0734403767,1.21718307 -0.0734403767,1.69218804 0.22032113,1.98591903 L4.470311,6.2359089 C4.7640725,6.52967041 5.23904696,6.52967041 5.52655238,6.2359089 Z" id="angle-down"></path>
                </g>
                <rect id="ðŸŽ¨-Color" fill="#FFFFFF" x="-7" y="-9" width="24" height="24"></rect>
            </g>
            <g id="ðŸ“-Padding" fill-opacity="0.9">
                <g id="Spacer--/--Vertical--/--3.-pf-global--spacer--md-(16px)" transform="translate(24.000000, 40.000000)" fill="#3F9C35" stroke="#418A38">
                    <rect id="Rectangle-Copy-2" x="0.5" y="0.5" width="241" height="15"></rect>
                </g>
                <g id="Spacer--/--Vertical--/--3.-pf-global--spacer--md-(16px)" transform="translate(24.000000, 0.000000)" fill="#3F9C35" stroke="#418A38">
                    <rect id="Rectangle-Copy-2" x="0.5" y="0.5" width="241" height="15"></rect>
                </g>
                <g id="Spacer--/--Horizontal--/--4.-pf-global--spacer--lg-(24px)" transform="translate(266.000000, 0.000000)" fill="#007A87" stroke="#09707B">
                    <rect id="Rectangle-Copy-3" x="0.5" y="0.5" width="23" height="55"></rect>
                </g>
                <g id="Spacer--/--Horizontal--/--4.-pf-global--spacer--lg-(24px)" fill="#007A87" stroke="#09707B">
                    <rect id="Rectangle-Copy-3" x="0.5" y="0.5" width="23" height="55"></rect>
                </g>
            </g>
        </g>
    </g>
</svg>