<?xml version="1.0" encoding="UTF-8"?><svg version="1.1" width="84px" height="40px" viewBox="0 0 84.0 40.0" xmlns="http://www.w3.org/2000/svg" xmlns:xlink="http://www.w3.org/1999/xlink"><defs><clipPath id="i0"><path d="M84,0 L84,40 L0,40 L0,0 L84,0 Z"></path></clipPath><clipPath id="i1"><path d="M1,0 L1,40 L0,40 L0,0 L1,0 Z"></path></clipPath><clipPath id="i2"><path d="M84,0 L84,3 L0,3 L0,0 L84,0 Z"></path></clipPath></defs><g clip-path="url(#i0)"><polygon points="0,0 84,0 84,40 0,40 0,0" stroke="none" fill="#FFFFFF"></polygon></g><g transform="translate(16.0 8.0)"><text transform="translate(0.0 16.0)" font-family="RedHatText-Regular, Red Hat Text" font-size="16.0" font-weight="normal" fill="#0066CC" text-anchor="left" line-spacing="24.0">Toggle</text></g><g clip-path="url(#i1)"><polygon points="0,0 1,0 1,40 0,40 0,0" stroke="none" fill="#D2D2D2"></polygon></g><g transform="translate(83.0 0.0)"><g clip-path="url(#i1)"><polygon points="0,0 1,0 1,40 0,40 0,0" stroke="none" fill="#D2D2D2"></polygon></g></g><g clip-path="url(#i2)"><polygon points="0,0 84,0 84,3 0,3 0,0" stroke="none" fill="#0066CC"></polygon></g></svg>