<svg xmlns="http://www.w3.org/2000/svg" xmlns:xlink="http://www.w3.org/1999/xlink" width="171" height="118" viewBox="0 0 171 118">
  <defs>
    <rect id="actions-b" width="171" height="118" x="0" y="0"/>
    <filter id="actions-a" width="132.7%" height="147.5%" x="-16.4%" y="-16.9%" filterUnits="objectBoundingBox">
      <feOffset in="SourceAlpha" result="shadowOffsetOuter1"/>
      <feGaussianBlur in="shadowOffsetOuter1" result="shadowBlurOuter1" stdDeviation="3"/>
      <feColorMatrix in="shadowBlurOuter1" result="shadowMatrixOuter1" values="0 0 0 0 0   0 0 0 0 0   0 0 0 0 0  0 0 0 0.08 0"/>
      <feOffset dy="8" in="SourceAlpha" result="shadowOffsetOuter2"/>
      <feGaussianBlur in="shadowOffsetOuter2" result="shadowBlurOuter2" stdDeviation="8"/>
      <feColorMatrix in="shadowBlurOuter2" result="shadowMatrixOuter2" values="0 0 0 0 0   0 0 0 0 0   0 0 0 0 0  0 0 0 0.16 0"/>
      <feMerge>
        <feMergeNode in="shadowMatrixOuter1"/>
        <feMergeNode in="shadowMatrixOuter2"/>
      </feMerge>
    </filter>
  </defs>
  <g fill="none" fill-rule="evenodd">
    <use fill="#000" filter="url(#actions-a)" xlink:href="#actions-b"/>
    <use fill="#FFF" xlink:href="#actions-b"/>
    <rect width="171" height="3" fill="#2B9AF3"/>
    <path fill="#2B9AF3" d="M11.7499815,19.499963 C16.0298785,19.499963 19.499963,16.0311298 19.499963,11.7499815 C19.499963,7.47133572 16.0298785,4 11.7499815,4 C7.4700845,4 4,7.47133572 4,11.7499815 C4,16.0311298 7.4700845,19.499963 11.7499815,19.499963 Z M11.7499815,10.0624855 C11.0250992,10.0624855 10.4374847,9.47487098 10.4374847,8.74998868 C10.4374847,8.02510637 11.0250992,7.4374918 11.7499815,7.4374918 C12.4748638,7.4374918 13.0624784,8.02510637 13.0624784,8.74998868 C13.0624784,9.47487098 12.4748638,10.0624855 11.7499815,10.0624855 Z M13.1249782,15.749972 L10.3749848,15.749972 C10.167893,15.749972 9.99998569,15.5820647 9.99998569,15.3749729 L9.99998569,14.6249747 C9.99998569,14.4178829 10.167893,14.2499839 10.3749848,14.2499839 L10.7499839,14.2499839 L10.7499839,12.2499839 L10.3749848,12.2499839 C10.167893,12.2499839 9.99998569,12.082073 9.99998569,11.8749812 L9.99998569,11.124983 C9.99998569,10.9178912 10.167893,10.7499839 10.3749848,10.7499839 L12.37498,10.7499839 C12.5820718,10.7499839 12.7499791,10.9178912 12.7499791,11.124983 L12.7499791,14.2499839 L13.1249782,14.2499839 C13.33207,14.2499839 13.4999857,14.4178829 13.4999857,14.6249747 L13.4999857,15.3749729 C13.4999857,15.5820647 13.33207,15.749972 13.1249782,15.749972 Z" transform="translate(16 16)"/>
    <path fill="#6A6E73" d="M9.37280471,17.7121708 L12.5,14.584981 L15.6271843,17.7121708 C16.0109114,18.0959284 16.6334075,18.0959284 17.0171651,17.7121708 L17.7121708,17.0171651 C18.0959284,16.6334075 18.0959284,16.0112471 17.7121708,15.6271843 L14.584981,12.5 L17.7121708,9.37280471 C18.0959284,8.98907759 18.0959284,8.36688669 17.7121708,7.98282389 L17.0171651,7.28781822 C16.6334075,6.90406059 16.0112471,6.90406059 15.6271843,7.28781822 L12.5,10.415008 L9.37280471,7.28781822 C8.98907759,6.90406059 8.36688669,6.90406059 7.98282389,7.28781822 L7.28781822,7.98282389 C6.90406059,8.36658152 6.90406059,8.9887419 7.28781822,9.37280471 L10.415008,12.5 L7.28781822,15.6271843 C6.90406059,16.0109114 6.90406059,16.6331023 7.28781822,17.0171651 L7.98282389,17.7121708 C8.36658152,18.0959284 8.98907759,18.0959284 9.37280471,17.7121708 Z" transform="translate(131 16)"/>
    <text fill="#06C" font-family="RedHatText-Regular, Red Hat Text" font-size="14">
      <tspan x="44" y="95">Action</tspan>
    </text>
    <text fill="#151515" font-family="RedHatText-Regular, Red Hat Text" font-size="14">
      <tspan x="44" y="58">Description</tspan>
    </text>
    <text fill="#004368" font-family="RedHatText-Medium, Red Hat Text" font-size="14" font-weight="400">
      <tspan x="44" y="32">Title</tspan>
    </text>
    <g fill-opacity=".9">
      <rect width="15" height="117" x=".5" y=".5" fill="#3F9C35" stroke="#418A38" transform="matrix(-1 0 0 1 16 0)"/>
      <rect width="15" height="117" x=".5" y=".5" fill="#3F9C35" stroke="#418A38" transform="matrix(-1 0 0 1 171 0)"/>
      <rect width="3" height="48" x=".5" y=".5" fill="#EC7A08" stroke="#C77000" transform="matrix(-1 0 0 1 44 16)"/>
      <rect width="110" height="3" x=".5" y=".5" fill="#EC7A08" stroke="#C77000" transform="translate(44 40)"/>
      <rect width="138" height="15" x=".5" y=".5" fill="#3F9C35" stroke="#418A38" transform="translate(16)"/>
      <rect width="138" height="15" x=".5" y=".5" fill="#3F9C35" stroke="#418A38" transform="translate(16 102)"/>
      <rect width="138" height="15" x=".5" y=".5" fill="#3F9C35" stroke="#418A38" transform="translate(16 65)"/>
    </g>
  </g>
</svg>
