<?xml version="1.0" encoding="UTF-8"?><svg version="1.1" width="102px" height="26px" viewBox="0 0 102.0 26.0" xmlns="http://www.w3.org/2000/svg" xmlns:xlink="http://www.w3.org/1999/xlink"><defs><clipPath id="i0"><path d="M115,0 C116.656854,-3.04359188e-16 118,1.34314575 118,3 L118,39 C118,40.6568542 116.656854,42 115,42 L3,42 C1.34314575,42 -1.1293615e-15,40.6568542 0,39 L0,3 C-2.02906125e-16,1.34314575 1.34314575,-1.02790844e-15 3,0 L115,0 Z"></path></clipPath><clipPath id="i1"><path d="M89,0 C96.1797017,-1.31888981e-15 102,5.82029825 102,13 C102,20.1797017 96.1797017,26 89,26 L13,26 C5.82029825,26 8.79259876e-16,20.1797017 0,13 C-8.79259876e-16,5.82029825 5.82029825,1.31888981e-15 13,0 L89,0 Z"></path></clipPath><clipPath id="i2"><path d="M4.470311,0.223046355 C4.7640725,-0.0738279369 5.23904696,-0.0738279369 5.53280846,0.21993357 L9.78279833,4.46992344 C10.0765598,4.76365443 10.0765598,5.2386594 9.78279833,5.5292776 L9.07656222,6.23554423 C8.78280072,6.52927522 8.30779574,6.52927522 8.01717754,6.23554423 L5.00155973,3.22618251 L1.98905471,6.23865701 C1.69532372,6.53241852 1.22031875,6.53241852 0.929700542,6.23865701 L0.22032113,5.5324209 C-0.0734403767,5.2386594 -0.0734403767,4.76365443 0.22032113,4.47303622 Z"></path></clipPath></defs><g transform="translate(-8.0 -8.0)"><g clip-path="url(#i0)"><polygon points="0,0 118,0 118,42 0,42 0,0" stroke="none" fill="rgba(0, 102, 204, 0.2)"></polygon></g><g clip-path="url(#i0)"><path d="M3,0 L115,0 C116.656854,-3.04359188e-16 118,1.34314575 118,3 L118,39 C118,40.6568542 116.656854,42 115,42 L3,42 C1.34314575,42 -1.1293615e-15,40.6568542 0,39 L0,3 C-2.02906125e-16,1.34314575 1.34314575,-1.02790844e-15 3,0 Z" stroke="#0066CC" stroke-width="2" fill="none" stroke-miterlimit="5"></path></g></g><g clip-path="url(#i1)"><polygon points="0,0 102,0 102,26 0,26 0,0" stroke="none" fill="#003F80"></polygon></g><g transform="translate(8.0 4.0)"><text transform="translate(0.0 12.0)" font-family="RedHatText-Regular, Red Hat Text" font-size="12.0" font-weight="normal" fill="#FFFFFF" text-anchor="left" line-spacing="18.0">Back to top</text></g><g transform="translate(70.0 1.0)"><g transform="translate(6.999999999999999 9.0)"><g clip-path="url(#i2)"><polygon points="-2.77555756e-17,4.22994972e-14 10.0031195,4.22994972e-14 10.0031195,6.45897814 -2.77555756e-17,6.45897814 -2.77555756e-17,4.22994972e-14" stroke="none" fill="#FFFFFF"></polygon></g></g></g></svg>