<?xml version="1.0" encoding="UTF-8"?><svg version="1.1" width="110px" height="72px" viewBox="0 0 110.0 72.0" xmlns="http://www.w3.org/2000/svg" xmlns:xlink="http://www.w3.org/1999/xlink"><defs><clipPath id="i0"><path d="M0.692566174,0.165240847 C0.912887304,-0.0550802825 1.26914103,-0.0550802825 1.48710469,0.165240847 L4.67459709,3.35273325 C4.8972528,3.57305438 4.8972528,3.92928522 4.67693167,4.14960635 L1.48943927,7.33709875 C1.26914103,7.55741988 0.912887304,7.55741988 0.694923651,7.33709875 L0.165223681,6.80742167 C-0.0550745605,6.58710054 -0.0550745605,6.23084681 0.165223681,6.01288316 L2.42460245,3.75350439 L0.165223681,1.49414851 C-0.0550745605,1.27382738 -0.0550745605,0.917573649 0.165223681,0.699609996 Z"></path></clipPath><clipPath id="i1"><path d="M24,0 L24,24 L0,24 L0,0 L24,0 Z"></path></clipPath><clipPath id="i2"><path d="M12,0 C18.627417,0 24,5.372583 24,12 C24,18.627417 18.627417,24 12,24 C5.372583,24 0,18.627417 0,12 C0,5.372583 5.372583,0 12,0 Z"></path></clipPath><clipPath id="i3"><path d="M8,0 L8,75 L0,75 L0,0 L8,0 Z"></path></clipPath></defs><g transform="translate(86.0 24.0)"><g transform="translate(10.0 8.0)"><g clip-path="url(#i0)"><polygon points="0,0 4.84188185,0 4.84188185,7.5023396 0,7.5023396 0,0" stroke="none" fill="#151515"></polygon><g clip-path="url(#i1)"><polygon points="0,0 4.84188185,0 4.84188185,7.5023396 0,7.5023396 0,0" stroke="none" fill="#696E73"></polygon></g></g></g></g><g transform="translate(32.0 24.0)"><text transform="translate(0.0 16.0)" font-family="RedHatText-Regular, Red Hat Text" font-size="16.0" font-weight="normal" fill="#151515" text-anchor="left" line-spacing="24.0">Default</text></g><g transform="translate(0.0 24.0)"><g clip-path="url(#i2)"><polygon points="0,0 24,0 24,24 0,24 0,0" stroke="none" fill="#F0F0F0"></polygon></g></g><g transform="translate(0.0 24.0)"><text transform="translate(9.544 16.0)" font-family="RedHatText-Regular, Red Hat Text" font-size="16.0" font-weight="normal" fill="#151515" text-anchor="center" line-spacing="24.0">1</text></g><g transform="translate(24.0 0.0)"><g clip-path="url(#i3)"><polygon points="0,0 8,0 8,75 0,75 0,0" stroke="none" fill="rgba(146, 211, 0, 0.9)"></polygon></g><g clip-path="url(#i3)"><polygon points="0,0 8,0 8,75 0,75 0,0 0,0" stroke="#7EB200" stroke-width="2" fill="none" stroke-miterlimit="5"></polygon></g></g></svg>