<svg xmlns="http://www.w3.org/2000/svg" xmlns:xlink="http://www.w3.org/1999/xlink" width="258" height="52" viewBox="0 0 258 52">
  <defs>
    <rect id="focused-a" width="242" height="36" x="8" y="8"/>
    <filter id="focused-b" width="100.8%" height="105.6%" x="-.4%" y="-2.8%" filterUnits="objectBoundingBox">
      <feOffset dx="-1" in="SourceAlpha" result="shadowOffsetInner1"/>
      <feComposite in="shadowOffsetInner1" in2="SourceAlpha" k2="-1" k3="1" operator="arithmetic" result="shadowInnerInner1"/>
      <feColorMatrix in="shadowInnerInner1" result="shadowMatrixInner1" values="0 0 0 0 0.235294118   0 0 0 0 0.247058824   0 0 0 0 0.258823529  0 0 0 1 0"/>
      <feOffset dy="1" in="SourceAlpha" result="shadowOffsetInner2"/>
      <feComposite in="shadowOffsetInner2" in2="SourceAlpha" k2="-1" k3="1" operator="arithmetic" result="shadowInnerInner2"/>
      <feColorMatrix in="shadowInnerInner2" result="shadowMatrixInner2" values="0 0 0 0 0.235294118   0 0 0 0 0.247058824   0 0 0 0 0.258823529  0 0 0 1 0"/>
      <feOffset dx="1" in="SourceAlpha" result="shadowOffsetInner3"/>
      <feComposite in="shadowOffsetInner3" in2="SourceAlpha" k2="-1" k3="1" operator="arithmetic" result="shadowInnerInner3"/>
      <feColorMatrix in="shadowInnerInner3" result="shadowMatrixInner3" values="0 0 0 0 0.235294118   0 0 0 0 0.247058824   0 0 0 0 0.258823529  0 0 0 1 0"/>
      <feOffset dy="-2" in="SourceAlpha" result="shadowOffsetInner4"/>
      <feComposite in="shadowOffsetInner4" in2="SourceAlpha" k2="-1" k3="1" operator="arithmetic" result="shadowInnerInner4"/>
      <feColorMatrix in="shadowInnerInner4" result="shadowMatrixInner4" values="0 0 0 0 0.168627451   0 0 0 0 0.603921569   0 0 0 0 0.952941176  0 0 0 1 0"/>
      <feMerge>
        <feMergeNode in="shadowMatrixInner1"/>
        <feMergeNode in="shadowMatrixInner2"/>
        <feMergeNode in="shadowMatrixInner3"/>
        <feMergeNode in="shadowMatrixInner4"/>
      </feMerge>
    </filter>
  </defs>
  <g fill="none" fill-rule="evenodd">
    <use fill="#151515" xlink:href="#focused-a"/>
    <use fill="#000" filter="url(#focused-b)" xlink:href="#focused-a"/>
    <rect width="257" height="51" x=".5" y=".5" fill="#06C" fill-opacity=".2" fill-rule="nonzero" stroke="#06C" rx="3"/>
    <path fill="#FFF" d="M12.0876296,14.0874818 L16.1063883,10.0656103 C16.5001252,9.6718734 16.2220191,9 15.6657461,9 L7.62514633,9 C7.06890376,9 6.79076721,9.6718734 7.18453458,10.0656103 L11.2032628,14.0874818 C11.4470061,14.3312251 11.8438863,14.3312251 12.0876296,14.0874818 Z" transform="translate(218 14)"/>
    <text fill="#FFF" font-family="RedHatText-Regular, Red Hat Text" font-size="16">
      <tspan x="16" y="30">Context</tspan>
    </text>
    <g fill-opacity=".9" transform="translate(-16)">
      <rect width="7" height="35" x=".5" y=".5" fill="#92D400" stroke="#7FB300" transform="translate(24 8)"/>
      <rect width="7" height="35" x=".5" y=".5" fill="#92D400" stroke="#7FB300" transform="translate(258 8)"/>
      <rect width="225" height="5" x=".5" y=".5" fill="#F3D53C" stroke="#CBB534" transform="translate(32 8)"/>
      <rect width="225" height="5" x=".5" y=".5" fill="#F3D53C" stroke="#CBB534" transform="translate(32 38)"/>
      <rect width="7" height="23" x=".5" y=".5" fill="#92D400" stroke="#7FB300" transform="translate(226 14)"/>
      <rect width="23" height="59" x=".5" y=".5" fill="#007A87" stroke="#09707B"/>
      <rect width="241" height="15" x=".5" y=".5" fill="#3F9C35" stroke="#418A38" transform="translate(24 44)"/>
      <rect width="23" height="59" x=".5" y=".5" fill="#007A87" stroke="#09707B" transform="translate(266)"/>
      <rect width="241" height="7" x=".5" y=".5" fill="#92D400" stroke="#7FB300" transform="translate(24)"/>
    </g>
  </g>
</svg>
