<?xml version="1.0" encoding="UTF-8"?><svg version="1.1" width="223px" height="222px" viewBox="0 0 223.0 222.0" xmlns="http://www.w3.org/2000/svg" xmlns:xlink="http://www.w3.org/1999/xlink"><defs><clipPath id="i0"><path d="M213.963364,-2.7920704e-14 C212.897005,58.1715559 165.408024,104.999964 106.981682,104.999964 C48.5553405,104.999964 1.06635958,58.1715559 8.75701384e-15,-3.57790478e-14 L213.963364,-2.7920704e-14 Z"></path></clipPath><clipPath id="i1"><path d="M213.963364,-2.7920704e-14 C212.897005,58.1715559 165.408024,104.999964 106.981682,104.999964 C48.5553405,104.999964 1.06635958,58.1715559 -4.80907028e-14,-3.57790478e-14 L213.963364,-2.7920704e-14 Z"></path></clipPath><clipPath id="i2"><path d="M106.999711,1.48623772e-06 L106.999,104.999 L2.29678686e-14,104.999964 C1.05569598,47.4101238 47.6102031,0.937702479 105.232209,0.0140130372 L106.981682,0 L106.999711,1.48623772e-06 Z"></path></clipPath><clipPath id="i3"><path d="M106.936917,-4.26325641e-14 C106.244037,37.7976718 85.9519546,70.8063714 55.7951126,89.2916555 L0,0 L106.936917,-4.26325641e-14 Z"></path></clipPath></defs><g transform="translate(6.000000657045149 8.0)"><g transform="translate(0.018317191665289556 105.00003584314278)"><g clip-path="url(#i0)"><polygon points="8.75701384e-15,-3.57790478e-14 213.963364,-3.57790478e-14 213.963364,104.999964 8.75701384e-15,104.999964 8.75701384e-15,-3.57790478e-14" stroke="none" fill="#002F5D"></polygon></g></g><g transform="translate(0.0 104.9999641568572) scale(1.0 -1.0)"><g clip-path="url(#i1)"><polygon points="-4.80907028e-14,-3.57790478e-14 213.963364,-3.57790478e-14 213.963364,104.999964 -4.80907028e-14,104.999964 -4.80907028e-14,-3.57790478e-14" stroke="none" fill="#519DE9"></polygon></g></g><g transform=""><g clip-path="url(#i2)"><polygon points="2.29678686e-14,0 106.999711,0 106.999711,104.999964 2.29678686e-14,104.999964 2.29678686e-14,0" stroke="none" fill="#8BC1F7"></polygon></g></g><g transform="translate(107.06308150807519 105.0000358431427)"><g clip-path="url(#i3)"><polygon points="0,-4.26325641e-14 106.936917,-4.26325641e-14 106.936917,89.2916555 0,89.2916555 0,-4.26325641e-14" stroke="none" fill="#0066CC"></polygon></g></g></g></svg>