<?xml version="1.0" encoding="UTF-8"?>
<svg width="223px" height="222px" viewBox="0 0 223 222" version="1.1" xmlns="http://www.w3.org/2000/svg" xmlns:xlink="http://www.w3.org/1999/xlink">
    <title></title>
    <g id="Charts" stroke="none" stroke-width="1" fill="none" fill-rule="evenodd">
        <g id="Group" transform="translate(6.000001, 8.000000)">
            <path d="M213.981681,105.000036 C212.915322,163.171592 165.426341,210 106.999999,210 C48.5736577,210 1.08467677,163.171592 0.0183171917,105.000036 Z" id="Combined-Shape" fill="#002F5D"></path>
            <path d="M213.963364,-2.7920704e-14 C212.897005,58.1715559 165.408024,104.999964 106.981682,104.999964 C48.5553405,104.999964 1.06635958,58.1715559 -4.80907028e-14,-3.57790478e-14 Z" id="Combined-Shape" fill="#519DE9" transform="translate(106.981682, 52.499982) scale(1, -1) translate(-106.981682, -52.499982) "></path>
            <path d="M106.981682,0 C106.987692,0 106.993701,4.95425445e-07 106.999711,1.48623772e-06 L106.999,104.999 L7.98112874e-14,104.999964 C1.05569598,47.4101238 47.6102031,0.937702479 105.232209,0.0140130372 Z" id="Combined-Shape" fill="#8BC1F7"></path>
            <path d="M213.999999,105.000036 C213.307119,142.797708 193.015036,175.806407 162.858194,194.291691 L107.063082,105.000036 L213.999999,105.000036 Z" id="Combined-Shape" fill="#0066CC"></path>
        </g>
    </g>
</svg>