<?xml version="1.0" encoding="UTF-8"?>
<svg width="97px" height="97px" viewBox="0 0 97 97" version="1.1" xmlns="http://www.w3.org/2000/svg" xmlns:xlink="http://www.w3.org/1999/xlink">
    <title></title>
    <g id="Icons" stroke="none" stroke-width="1" fill="none" fill-rule="evenodd">
        <g id="Icons/5.-Size-2xl-(100px)---Empty-state/check-circle-2xl" fill="#3E8635">
            <path d="M48.5,97 C57.235216,97 65.3185484,94.8161952 72.75,90.4485887 C80.1814516,86.0809822 86.0809822,80.1814516 90.4485887,72.75 C94.8161952,65.3185484 97,57.235216 97,48.5 C97,39.764784 94.8161952,31.6814516 90.4485887,24.25 C86.0809822,16.8185484 80.1814516,10.9190178 72.75,6.55141129 C65.3185484,2.18380476 57.235216,0 48.5,0 C39.764784,0 31.6814516,2.18380476 24.25,6.55141129 C16.8185484,10.9190178 10.9190178,16.8185484 6.55141129,24.25 C2.18380476,31.6814516 0,39.764784 0,48.5 C0,57.235216 2.18380476,65.3185484 6.55141129,72.75 C10.9190178,80.1814516 16.8185484,86.0809822 24.25,90.4485887 C31.6814516,94.8161952 39.764784,97 48.5,97 Z M40.6774194,75.0967742 C39.764784,75.0967742 39.047716,74.7708323 38.5262097,74.1189516 L18.1875,53.7802419 C17.5356193,53.2587356 17.2096774,52.5416677 17.2096774,51.6290323 C17.2096774,50.7163969 17.5356193,49.999329 18.1875,49.4778226 L22.4899194,44.9798387 C23.1418001,44.327958 23.891466,44.0020161 24.7389113,44.0020161 C25.5863565,44.0020161 26.3360225,44.327958 26.9879032,44.9798387 L40.6774194,58.6693548 L70.0120968,29.3346774 C70.6639775,28.6827967 71.4136435,28.3568548 72.2610887,28.3568548 C73.108534,28.3568548 73.8581999,28.6827967 74.5100806,29.3346774 L78.8125,33.8326613 C79.4643807,34.3541677 79.7903226,35.0712356 79.7903226,35.983871 C79.7903226,36.8965064 79.4643807,37.6135743 78.8125,38.1350806 L42.828629,74.1189516 C42.3071227,74.7708323 41.5900548,75.0967742 40.6774194,75.0967742 Z" id="check-circle-xl"></path>
        </g>
    </g>
</svg>