<?xml version="1.0" encoding="UTF-8"?>
<svg width="125px" height="87px" viewBox="0 0 125 87" version="1.1" xmlns="http://www.w3.org/2000/svg" xmlns:xlink="http://www.w3.org/1999/xlink">
    <title></title>
    <g id="Icons" stroke="none" stroke-width="1" fill="none" fill-rule="evenodd">
        <g id="Icons/5.-Size-2xl-(100px)---Empty-state/space-shuttle-2xl" fill="#6A6E73">
            <path d="M18.75,87 C24.21875,87 29.2317718,85.8348214 33.7890625,83.5044643 C36.5234375,82.0803581 40.234375,79.4263393 44.921875,75.5424107 C49.609375,71.6584821 53.515625,68.8102669 56.640625,66.9977679 C61.71875,64.0200903 67.3177093,61.8839296 73.4375,60.5892857 L73.4375,60.5892857 L33.203125,60.5892857 C34.375,59.8125 35.4166657,58.7767867 36.328125,57.4821429 L36.328125,57.4821429 L92.1875,57.4821429 C96.484375,57.4821429 100.683594,57.0613829 104.785156,56.2198661 C108.886719,55.3783492 112.565103,54.2455347 115.820312,52.8214286 C118.684897,51.3973224 120.930991,49.8761151 122.558594,48.2578125 C124.186197,46.6395099 125,45.0535714 125,43.5 C125,41.9464286 124.186197,40.3604901 122.558594,38.7421875 C120.930991,37.1238849 118.684897,35.6026776 115.820312,34.1785714 C112.565103,32.7544653 108.886719,31.6216508 104.785156,30.7801339 C100.683594,29.9386171 96.484375,29.5178571 92.1875,29.5178571 L92.1875,29.5178571 L36.328125,29.5178571 C35.4166657,28.2232133 34.375,27.1875 33.203125,26.4107143 L33.203125,26.4107143 L73.4375,26.4107143 C67.3177093,25.1160704 61.71875,22.9799097 56.640625,20.0022321 C53.515625,18.1897331 49.609375,15.3415179 44.921875,11.4575893 C40.234375,7.57366071 36.5234375,4.91964187 33.7890625,3.49553571 C29.2317718,1.16517857 24.21875,0 18.75,0 L18.75,0 L18.75,24.8571429 L15.625,24.8571429 L15.625,0 C13.0208343,0 10.8072907,1.19754563 8.984375,3.59263393 C7.16145933,5.98772223 6.25,8.93303571 6.25,12.4285714 L6.25,12.4285714 L6.25,24.8571429 C2.08333433,24.8571429 0,26.4107143 0,29.5178571 L0,29.5178571 L0,37.2857143 C0,40.3928571 2.08333433,41.9464286 6.25,41.9464286 L6.25,41.9464286 L6.25,45.0535714 C2.08333433,45.0535714 0,46.6071429 0,49.7142857 L0,49.7142857 L0,57.4821429 C0,60.5892857 2.08333433,62.1428571 6.25,62.1428571 L6.25,62.1428571 L6.25,74.5714286 C6.25,78.0669643 7.16145933,81.0122778 8.984375,83.4073661 C10.8072907,85.8024544 13.0208343,87 15.625,87 L15.625,87 L15.625,62.1428571 L18.75,62.1428571 L18.75,87 Z M95.3125,51.2678571 C94.921875,51.2678571 94.5638031,51.1060278 94.2382812,50.7823661 C93.9127594,50.4587044 93.75,50.1026786 93.75,49.7142857 L93.75,49.7142857 L93.75,37.2857143 C93.75,36.8973214 93.9127594,36.5412956 94.2382812,36.2176339 C94.5638031,35.8939722 94.921875,35.7321429 95.3125,35.7321429 C97.265625,35.7321429 98.6328125,37.0267867 99.4140625,39.6160714 C100.195312,42.2053562 100.195312,44.7946438 99.4140625,47.3839286 C98.6328125,49.9732133 97.265625,51.2678571 95.3125,51.2678571 Z" id="space-shuttle"></path>
        </g>
    </g>
</svg>