<?xml version="1.0" encoding="UTF-8"?>
<svg width="78px" height="76px" viewBox="0 0 78 76" version="1.1" xmlns="http://www.w3.org/2000/svg" xmlns:xlink="http://www.w3.org/1999/xlink">
    <title></title>
    <g id="Masthead" stroke="none" stroke-width="1" fill="none" fill-rule="evenodd">
        <g id="Masthead-/-4.-Icon-/-Notifications-/-2.-Count-/-1.-Read-/-1.-Drawer-closed">
            <g id="Icons-/-1.-Size-md-(16px)-/-Framework-/-bell" transform="translate(15.999979, 29.000000)" fill="#F0F0F0">
                <path d="M12.9968985,12.999969 C13.5943702,12.999969 13.9968961,12.5124824 14.0000209,11.9999714 C14.0015653,11.7640406 13.9184356,11.5227997 13.7309361,11.3215367 C13.1272083,10.6727956 11.9975112,9.69684578 11.9975112,6.4999845 C11.9975112,4.07185919 10.2950312,2.12810772 7.99941287,1.65124118 L7.99941287,1 C7.99941287,0.447813874 7.55190417,0 7.00002086,0 C6.44814704,0 6.00063834,0.447813874 6.00063834,1 L6.00063834,1.65124118 C3.70502003,2.12810772 2.00253996,4.07185919 2.00253996,6.4999845 C2.00253996,9.69684578 0.872842948,10.6727956 0.269115139,11.3215367 C0.0816155863,11.5231049 -0.00151409835,11.7640406 2.08566939e-05,11.9999714 C0.00349077253,12.5124824 0.405680976,12.999969 1.0031527,12.999969 L12.9968985,12.999969 Z M7.00002561,15.9999666 C8.10378274,15.9999666 8.99907479,15.1046393 8.99907479,13.9999666 L5.00097642,13.9999666 C5.00097642,15.1046393 5.89626847,15.9999666 7.00002561,15.9999666 Z" id="bell"></path>
            </g>
            <text id="ðŸ’¯-Count" font-family="RedHatText-Regular, Red Hat Text" font-size="14" font-weight="normal" line-spacing="21" fill="#F0F0F0">
                <tspan x="34" y="42">000</tspan>
            </text>
            <g id="ðŸ“-Padding" fill-opacity="0.9">
                <g id="Spacer-/-Horizontal-/-3.-pf-global--spacer--md-(16px)" fill="#3F9C35" stroke="#418A38">
                    <rect id="Rectangle-Copy-2" x="0.5" y="0.5" width="15" height="75"></rect>
                </g>
                <g id="Spacer-/-Horizontal-/-3.-pf-global--spacer--md-(16px)" transform="translate(62.000000, 0.000000)" fill="#3F9C35" stroke="#418A38">
                    <rect id="Rectangle-Copy-2" x="0.5" y="0.5" width="15" height="75"></rect>
                </g>
                <g id="Spacer-/-Horizontal-/-1.-pf-global--spacer--xs-(4px)" transform="translate(30.000000, 0.000000)" fill="#EC7A08" stroke="#C77000">
                    <rect id="Rectangle" x="0.5" y="0.5" width="3" height="75"></rect>
                </g>
            </g>
        </g>
    </g>
</svg>