<?xml version="1.0" encoding="UTF-8"?>
<svg width="956px" height="40px" viewBox="0 0 956 40" version="1.1" xmlns="http://www.w3.org/2000/svg" xmlns:xlink="http://www.w3.org/1999/xlink">
    <title></title>
    <g id="Data-List-and-Table" stroke="none" stroke-width="1" fill="none" fill-rule="evenodd">
        <g id="Data-list-+-table/1.-Row/2.-Row-features/Compact-(8px-spacers)/3.-Draggable-Expandable">
            <g id="Kebab" transform="translate(902.000000, 2.000000)">
                <rect id="Background" x="0" y="0" width="40" height="36" rx="3"></rect>
                <g id="ðŸ–¼-Icon" transform="translate(8.000000, 6.000000)">
                    <g id="ellipsis-v" fill="#151515">
                        <path d="M12.2499946,8.49998927 C13.4937356,8.49998927 14.4999893,7.49373557 14.4999893,6.24999464 C14.4999893,5.0062537 13.4937356,4 12.2499946,4 C11.0062537,4 10,5.0062537 10,6.24999464 C10,7.49373557 11.0062537,8.49998927 12.2499946,8.49998927 Z M12.2499946,13.9999762 C13.4937356,13.9999762 14.4999893,12.9937225 14.4999893,11.7499815 C14.4999893,10.5062406 13.4937356,9.49998689 12.2499946,9.49998689 C11.0062537,9.49998689 10,10.5062406 10,11.7499815 C10,12.9937225 11.0062537,13.9999762 12.2499946,13.9999762 Z M12.2499946,19.499963 C13.4937356,19.499963 14.4999893,18.4937093 14.4999893,17.2499684 C14.4999893,16.0062275 13.4937356,14.9999738 12.2499946,14.9999738 C11.0062537,14.9999738 10,16.0062275 10,17.2499684 C10,18.4937093 11.0062537,19.499963 12.2499946,19.499963 Z"></path>
                    </g>
                    <rect id="ðŸŽ¨-Color" fill="#6A6E73" x="0" y="0" width="24" height="24"></rect>
                </g>
                <g id="ðŸ“-Padding" fill-opacity="0.9">
                    <g id="Spacer-/-Horizontal-/-2.-pf-global--spacer--sm-(8px)" fill="#92D400" stroke="#7FB300">
                        <rect id="Rectangle-Copy" x="0.5" y="0.5" width="7" height="35"></rect>
                    </g>
                    <g id="Spacer-/-Horizontal-/-2.-pf-global--spacer--sm-(8px)" transform="translate(32.000000, 0.000000)" fill="#92D400" stroke="#7FB300">
                        <rect id="Rectangle-Copy" x="0.5" y="0.5" width="7" height="35"></rect>
                    </g>
                    <g id="Spacer-/-Vertical-/-8.-pf-global--spacer--form-element-(6px)" transform="translate(8.000000, 0.000000)" fill="#F3D53C" stroke="#CBB534">
                        <rect id="Rectangle" x="0.5" y="0.5" width="23" height="5"></rect>
                    </g>
                    <g id="Spacer-/-Vertical-/-8.-pf-global--spacer--form-element-(6px)" transform="translate(8.000000, 30.000000)" fill="#F3D53C" stroke="#CBB534">
                        <rect id="Rectangle" x="0.5" y="0.5" width="23" height="5"></rect>
                    </g>
                </g>
            </g>
            <g id="Rectangle" transform="translate(72.000000, 8.000000)" fill="#FFFFFF" stroke="#6A6E73">
                <rect x="8.5" y="4.5" width="15" height="15"></rect>
            </g>
            <g id="Icons/1.-Size-md-(16px)/Framework/angle-right" transform="translate(48.000000, 8.000000)" fill="#6A6E73">
                <path d="M10.985919,16.7827983 L15.2359089,12.5328085 C15.5296704,12.239047 15.5296704,11.7640725 15.2327961,11.470311 L10.9828062,7.22032113 C10.692188,6.92655962 10.2171831,6.92655962 9.92342157,7.22032113 L9.22029824,7.93281333 C8.92656725,8.22343153 8.92656725,8.6984365 9.22029824,8.99219801 L12.2328033,12.0046725 L9.22029824,15.0171775 C8.92656725,15.3077957 8.92656725,15.7828007 9.22029824,16.0765622 L9.92656487,16.7827983 C10.2171831,17.0765598 10.692188,17.0765598 10.985919,16.7827983 Z" id="angle-right"></path>
            </g>
            <g id="Icons/1.-Size-md-(16px)/Framework/angle-right" transform="translate(24.000000, 8.000000)" fill="#6A6E73">
                <path d="M10,9 C10.5521766,9 11,8.55217659 11,8 L11,6 C11,5.44781387 10.5521766,5 10,5 L8,5 C7.44781387,5 7,5.44781387 7,6 L7,8 C7,8.55217659 7.44781387,9 8,9 L10,9 Z M15.9999857,9 C16.5521623,9 16.9999857,8.55217659 16.9999857,8 L16.9999857,6 C16.9999857,5.44781387 16.5521623,5 15.9999857,5 L13.9999857,5 C13.4477996,5 12.9999857,5.44781387 12.9999857,6 L12.9999857,8 C12.9999857,8.55217659 13.4477996,9 13.9999857,9 L15.9999857,9 Z M10,13.9999881 C10.5521766,13.9999881 11,13.5521647 11,12.9999881 L11,10.9999881 C11,10.447802 10.5521766,9.99998808 10,9.99998808 L8,9.99998808 C7.44781387,9.99998808 7,10.447802 7,10.9999881 L7,12.9999881 C7,13.5521647 7.44781387,13.9999881 8,13.9999881 L10,13.9999881 Z M15.9999857,13.9999881 C16.5521623,13.9999881 16.9999857,13.5521647 16.9999857,12.9999881 L16.9999857,10.9999881 C16.9999857,10.447802 16.5521623,9.99998808 15.9999857,9.99998808 L13.9999857,9.99998808 C13.4477996,9.99998808 12.9999857,10.447802 12.9999857,10.9999881 L12.9999857,12.9999881 C12.9999857,13.5521647 13.4477996,13.9999881 13.9999857,13.9999881 L15.9999857,13.9999881 Z M10,18.9999762 C10.5521766,18.9999762 11,18.5521527 11,17.9999762 L11,15.9999762 C11,15.44779 10.5521766,14.9999762 10,14.9999762 L8,14.9999762 C7.44781387,14.9999762 7,15.44779 7,15.9999762 L7,17.9999762 C7,18.5521527 7.44781387,18.9999762 8,18.9999762 L10,18.9999762 Z M15.9999857,18.9999762 C16.5521623,18.9999762 16.9999857,18.5521527 16.9999857,17.9999762 L16.9999857,15.9999762 C16.9999857,15.44779 16.5521623,14.9999762 15.9999857,14.9999762 L13.9999857,14.9999762 C13.4477996,14.9999762 12.9999857,15.44779 12.9999857,15.9999762 L12.9999857,17.9999762 C12.9999857,18.5521527 13.4477996,18.9999762 13.9999857,18.9999762 L15.9999857,18.9999762 Z" id="grip-vertical"></path>
            </g>
            <g id="ðŸ“-Padding" fill-opacity="0.9">
                <g id="Spacer-/-Horizontal-/-4.-pf-global--spacer--lg-(24px)" fill="#007A87" stroke="#09707B">
                    <rect id="Rectangle-Copy-3" x="0.5" y="0.5" width="23" height="39"></rect>
                </g>
                <g id="Spacer-/-Horizontal-/-4.-pf-global--spacer--lg-(24px)" transform="translate(932.000000, 0.000000)" fill="#007A87" stroke="#09707B">
                    <rect id="Rectangle-Copy-3" x="0.5" y="0.5" width="23" height="39"></rect>
                </g>
                <g id="Spacer-/-Vertical-/-4.-pf-global--spacer--lg-(24px)" transform="translate(24.000000, 0.000000)" fill="#92D400" stroke="#7FB300">
                    <rect id="Rectangle-Copy" x="0.5" y="0.5" width="907" height="7"></rect>
                </g>
                <g id="Spacer-/-Vertical-/-4.-pf-global--spacer--lg-(24px)" transform="translate(24.000000, 32.000000)" fill="#92D400" stroke="#7FB300">
                    <rect id="Rectangle-Copy" x="0.5" y="0.5" width="907" height="7"></rect>
                </g>
            </g>
        </g>
    </g>
</svg>