<svg xmlns="http://www.w3.org/2000/svg" width="24" height="24" viewBox="0 0 24 24">
  <path fill="#151515" fill-rule="evenodd" d="M12.2499875,10.4999893 C15.1484257,10.4999893 17.499975,9.72989528 17.499975,8.78571418 L17.499975,7.71427509 C17.499975,6.77009399 15.1484257,6 12.2499875,6 C9.35154926,6 7,6.77009399 7,7.71427509 L7,8.78571418 C7,9.72989528 9.35154926,10.4999893 12.2499875,10.4999893 Z M12.2499875,14.2499803 C15.1484257,14.2499803 17.499975,13.4798863 17.499975,12.5357052 L17.499975,10.1249902 C16.3720251,10.9017675 14.3076074,11.2633999 12.2499875,11.2633999 C10.1923676,11.2633999 8.127927,10.9017675 7,10.1249902 L7,12.5357052 C7,13.4798863 9.35154926,14.2499803 12.2499875,14.2499803 Z M12.2499875,17.9999714 C15.1484257,17.9999714 17.499975,17.2298774 17.499975,16.2856963 L17.499975,13.8749812 C16.3720251,14.6517585 14.3076074,15.013391 12.2499875,15.013391 C10.1923676,15.013391 8.127927,14.6517585 7,13.8749812 L7,16.2856963 C7,17.2298774 9.35154926,17.9999714 12.2499875,17.9999714 Z"/>
</svg>
