<svg xmlns="http://www.w3.org/2000/svg" width="24" height="24" viewBox="0 0 24 24">
  <path fill="#151515" fill-rule="evenodd" d="M12,13.9230769 C7.95865385,13.9230769 6.63894231,13.0850962 6.20913462,12.5384615 C6,12.2730769 6,12.5384615 6,12.5384615 L6,15.3076923 C6,16.3274038 8.68557692,17.1538462 12,17.1538462 C15.3144231,17.1538462 18,16.3274038 18,15.3076923 L18,12.5384615 C18,12.5384615 18,12.2730769 17.7908654,12.5384615 C17.3610577,13.0850962 16.0413462,13.9230769 12,13.9230769 L12,13.9230769 Z M18,10.6778846 C18,11.6975962 15.3144231,12.5240385 12,12.5240385 C8.68557692,12.5240385 6,11.6975962 6,10.6778846 L6,8.84615385 C6,7.82644231 8.68557692,7 12,7 C15.3144231,7 18,7.82644231 18,8.84615385 L18,10.6778846 Z"/>
</svg>
