<svg xmlns="http://www.w3.org/2000/svg" width="24" height="24" viewBox="0 0 24 24">
  <path fill="#151515" fill-rule="evenodd" d="M15,9 L15,9.01640625 C14.9660456,9.00969638 14.9314828,9.00655431 14.896875,9.00703125 C14.26394,8.99633085 13.6435297,9.18401111 13.1226562,9.54375 C12.9369442,9.66460041 12.8314633,9.87673076 12.8471854,10.0977435 C12.8629076,10.3187562 12.997355,10.5138188 13.1983042,10.6071633 C13.3992535,10.7005078 13.6350343,10.6774227 13.8140625,10.546875 C14.1263689,10.3310465 14.4985627,10.2187325 14.878125,10.2257813 C14.9189467,10.226247 14.9597298,10.2231099 15,10.2164063 L15,10.2210937 C15.9820312,10.2210937 16.78125,11.0203125 16.78125,12.0011719 C16.7804597,12.6943915 16.3783839,13.3244627 15.75,13.6171875 L15.75,14.9085938 C17.04375,14.5757813 18,13.4015625 18,12.0035156 C18,10.3429688 16.6570312,9 15,9 M14.7492188,11.296875 C14.5710938,11.2242188 14.41875,11.2546875 14.2945312,11.3882813 L13.44375,12.2320312 L13.25625,12.4195312 L10.3078125,9.43242187 C9.85546875,9.05742187 9.56953125,9 9,9 C7.34296875,9 6,10.3535156 6,12.009375 C6,13.6652344 7.34296875,15 9,15 C9.5625,15 10.0335938,14.7996094 10.453125,14.4714844 L10.4460937,14.4667969 L10.509375,14.4246094 C10.6900378,14.2993824 10.7893635,14.0866473 10.7693773,13.8677377 C10.7493912,13.6488281 10.613184,13.4575968 10.412831,13.3671561 C10.212478,13.2767153 9.97896225,13.3010512 9.8015625,13.4308594 C9.53081128,13.624071 9.21218837,13.7391968 8.88046875,13.7636719 C7.9125,13.7507812 7.21875,12.9820312 7.21875,12.009375 C7.21875,11.04375 7.94296875,10.2574219 8.9015625,10.2292969 L8.95546875,10.2292969 C8.96484375,10.2316406 8.97421875,10.2292969 8.98125,10.2316406 L8.9859375,10.2316406 C9.15703125,10.2292969 9.42890625,10.2925781 9.66328125,10.4800781 L12.4054688,13.2726563 L11.3765625,14.3015625 C11.2429687,14.4328125 11.2125,14.5804688 11.2851562,14.7515625 C11.3578125,14.925 11.4867187,15 11.6695313,15 L14.5851563,15 C14.6976563,15 14.7960938,14.9695312 14.878125,14.8875 C14.9580118,14.8110495 15.0029329,14.7051035 15.0023551,14.5945312 L15.0023551,11.68125 C15.0023551,11.4984375 14.9179688,11.3695312 14.7492188,11.296875"/>
</svg>
