<svg xmlns="http://www.w3.org/2000/svg" width="24" height="24" viewBox="0 0 24 24">
  <path fill="#151515" fill-rule="evenodd" d="M17.9261719,12.9257812 C17.7779375,13.8708121 17.4045426,14.7663167 16.8375,15.5367187 C16.7826407,15.6114339 16.7906091,15.7150228 16.8562499,15.7804688 L17.9449219,16.8691406 C17.9800395,16.9042816 17.999838,16.9518825 18,17.0015625 L18,17.8125 C18,17.9160534 17.9160534,18 17.8125,18 L17.0320312,18 C16.9823512,17.999838 16.9347503,17.9800395 16.8996094,17.9449219 L15.7957031,16.8410156 C15.7302572,16.7753747 15.6266683,16.7674063 15.5519531,16.8222656 C14.7856745,17.3873065 13.895214,17.7606088 12.9550781,17.9109375 C12.9007313,17.9198878 12.8451978,17.9044898 12.8032198,17.8688312 C12.7612419,17.8331725 12.7371093,17.7808602 12.7371093,17.7257813 L12.7371093,16.5890625 C12.7371093,16.4995007 12.8004165,16.4224307 12.8882813,16.4050781 C14.6683594,16.0488281 16.0675781,14.6425781 16.415625,12.8601562 C16.4327393,12.7719757 16.5097841,12.7081806 16.5996094,12.7078125 L17.7410155,12.7078125 C17.7959844,12.7080904 17.8480914,12.7323567 17.8836792,12.7742512 C17.919267,12.8161457 17.9347871,12.8714912 17.9261719,12.9257812 M11.244141,16.5914062 L11.244141,17.7292969 C11.244141,17.7843758 11.2200081,17.8366881 11.1780302,17.8723468 C11.1360522,17.9080055 11.0805187,17.9234034 11.0261719,17.9144531 C10.0991541,17.7617197 9.22114796,17.3927725 8.46328125,16.8375 C8.3885661,16.7826407 8.28497715,16.7906091 8.21953125,16.85625 L7.13085938,17.9449219 C7.0957184,17.9800395 7.04811754,17.999838 6.9984375,18 L6.1875,18 C6.08394661,18 6,17.9160534 6,17.8125 L6,17.0320312 C6.00016195,16.9823512 6.01996054,16.9347503 6.05507812,16.8996094 L7.15664062,15.7980469 C7.22228156,15.732601 7.23024994,15.629012 7.17539063,15.5542969 C6.60427136,14.7813921 6.22800605,13.8821341 6.07851562,12.9328125 C6.06994711,12.8786476 6.08552057,12.8234464 6.12113467,12.7817463 C6.15674877,12.7400463 6.2088334,12.7160156 6.26367188,12.7160156 L7.40507813,12.7160156 C7.49500349,12.7161069 7.57220153,12.7800288 7.5890625,12.8683594 C7.9359375,14.6425781 9.32578125,16.0441406 11.0941406,16.4074219 C11.1815394,16.425262 11.2442703,16.5022054 11.244141,16.5914062 M12.7324218,7.40390625 L12.7324218,6.25546875 C12.7324218,6.20038982 12.7565544,6.1480775 12.7985323,6.11241881 C12.8405103,6.07676013 12.8960438,6.06136215 12.9503906,6.0703125 C13.8890578,6.22059566 14.7782117,6.59305192 15.54375,7.15664062 C15.6184652,7.21149994 15.7220541,7.20353156 15.7875,7.13789062 L16.8691406,6.05507812 C16.9042816,6.01996054 16.9518825,6.00016195 17.0015625,6 L17.8124999,6 C17.9160534,6 17.9999999,6.08394661 17.9999999,6.1875 L17.9999999,6.96796875 C17.999838,7.01764879 17.9800395,7.06524965 17.9449219,7.10039063 L16.8480469,8.19726562 C16.7824059,8.26271153 16.7744376,8.36630047 16.8292969,8.44101563 C17.3854339,9.19583605 17.7559836,10.0710239 17.9109375,10.9957031 C17.9200178,11.050189 17.9047036,11.1059131 17.8690539,11.1481062 C17.833404,11.1902993 17.7810184,11.2147009 17.7257812,11.2148438 L16.5796875,11.2148438 C16.4909243,11.2148438 16.41423,11.1528238 16.3957031,11.0660156 C16.0277344,9.31523437 14.6402344,7.93945312 12.8835937,7.58789062 C12.795729,7.57053803 12.7324218,7.49346806 12.7324218,7.40390625 M6.08320312,11.0015625 C6.23702049,10.0810029 6.60512862,9.20950587 7.1578125,8.45742187 C7.21267181,8.38270672 7.20470344,8.27911778 7.1390625,8.21367187 L6.05507812,7.13085938 C6.01996054,7.0957184 6.00016195,7.04811754 6,6.9984375 L6,6.1875 C6,6.08394661 6.08394661,6 6.1875,6 L6.96796875,6 C7.01764879,6.00016195 7.06524965,6.01996054 7.10039063,6.05507812 L8.19609375,7.15078125 C8.26153965,7.21642219 8.3651286,7.22439056 8.43984375,7.16953125 C9.20117747,6.60712836 10.0852037,6.23359614 11.0191406,6.0796875 C11.0734875,6.07073715 11.129021,6.08613513 11.1709989,6.12179381 C11.2129769,6.1574525 11.2371094,6.20976482 11.2371094,6.26484375 L11.2371094,7.41445312 C11.2366095,7.50342915 11.1741611,7.58002598 11.0871094,7.5984375 C9.3421875,7.95703125 7.96523437,9.328125 7.59726563,11.071875 C7.57873873,11.1586832 7.50204444,11.2207031 7.41328125,11.2207031 L6.2671875,11.2207031 C6.21197246,11.2207031 6.15957051,11.1963459 6.12406723,11.1540585 C6.08856395,11.1117712 6.073602,11.0559364 6.08320312,11.0015625 M12,9 C13.6570312,9 15,10.3429688 15,12 C15,13.6570312 13.6570312,15 12,15 C10.3429688,15 9,13.6570312 9,12 C9,10.3429688 10.3429688,9 12,9"/>
</svg>
