<svg xmlns="http://www.w3.org/2000/svg" width="24" height="24" viewBox="0 0 24 24">
  <path fill="#151515" fill-rule="evenodd" d="M6,13.0588235 L6,12 C6,12 6,11.7970588 6.15992647,12 C6.48860294,12.4180147 7.49779412,13.0588235 10.5882353,13.0588235 C10.7117647,13.0588235 10.8330882,13.0577206 10.95,13.0555147 C11.0106618,13.0544118 11.0536765,13.1128676 11.0349265,13.1702206 C11.0261029,13.1966912 11.0183824,13.2231618 11.0106618,13.2496324 C10.9058824,13.6158088 10.8672794,13.9930147 10.8959559,14.3724265 C10.9003676,14.4231618 10.8606618,14.4672794 10.8088235,14.4683824 C10.7349265,14.4694882 10.6610294,14.4694882 10.5860294,14.4694882 C8.05367647,14.4705882 6,13.8386029 6,13.0588235 M12.6408088,16.9830882 C12.7180147,17.0216912 12.6992647,17.1363971 12.6143382,17.1496324 C12.0033088,17.2422794 11.3150735,17.2941176 10.5882353,17.2941176 C8.05367647,17.2930147 6,16.6621324 6,15.8823529 L6,14.4705882 C6,14.4705882 6,14.2676471 6.15992647,14.4705882 C6.48860294,14.8897059 7.49779412,15.5316176 10.5882353,15.5294118 C10.7834559,15.5294118 10.9698529,15.5261029 11.1485294,15.5216912 C11.1827206,15.5205882 11.2147059,15.5393382 11.2301471,15.5702206 C11.5378676,16.18125 12.0352941,16.6764706 12.6408088,16.9830882 M6,8.11764706 L6,7.41176471 C6,6.63198529 8.05367647,6 10.5882353,6 C13.1227941,6 15.1764706,6.63198529 15.1764706,7.41176471 L15.1764706,8.11764706 C15.1764706,8.89742647 13.1227941,9.52941176 10.5882353,9.52941176 C8.05367647,9.52941176 6,8.89742647 6,8.11764706 M6,10.5882353 L6,9.52941176 C6,9.52941176 6,9.32647059 6.15992647,9.52941176 C6.48860294,9.94742647 7.49779412,10.5882353 10.5882353,10.5882353 C13.6786765,10.5882353 14.6878676,9.94742647 15.0165441,9.52941176 C15.1764706,9.32647059 15.1764706,9.52941176 15.1764706,9.52941176 L15.1764706,10.5882353 C15.1764706,10.7360294 15.1025735,10.8783088 14.9658088,11.0117647 C14.94375,11.0327206 14.9128676,11.0415441 14.8830882,11.0338235 C14.6283088,10.96875 14.3625,10.9334559 14.0889706,10.9334559 C13.9588235,10.9334559 13.8275735,10.9411765 13.6985294,10.9577206 C13.2705882,11.0095588 12.8658088,11.1452206 12.4941176,11.3580882 C12.2238971,11.5136029 11.9801471,11.7055147 11.7672794,11.9294118 C11.7518382,11.9448529 11.7319853,11.9547794 11.7099265,11.9569853 C11.3503676,11.9845588 10.9753676,12 10.5882353,12 C8.05367647,12 6,11.3680147 6,10.5882353 M17.7727941,16.4128676 L16.2926471,15.4367647 C16.1459559,15.3330882 15.9981618,15.2933824 15.88125,15.3077206 C15.8757353,15.3077206 15.8713235,15.3099265 15.8658088,15.3099265 C16.1382353,14.8985294 16.2694853,14.3944853 16.2066176,13.8705882 C16.0665441,12.7003676 15,11.8654412 13.8275735,12.0088235 C12.6551471,12.1522059 11.8213235,13.2165441 11.9625,14.3889706 C12.1036765,15.5613971 13.1702206,16.3952206 14.3426471,16.2518382 C14.8698529,16.1889706 15.3253676,15.9363971 15.6584559,15.5757353 C15.6683824,15.6970588 15.7444853,15.8382353 15.8856618,15.9617647 L17.1893382,17.1617647 C17.2897059,17.25 17.4121324,17.2941176 17.5323529,17.2941176 C17.6713235,17.2941176 17.8246324,17.2180147 17.9029412,17.1165441 C17.9713235,17.0283088 18,16.9411765 18,16.8198529 C18,16.6665441 17.9172794,16.5132353 17.7727941,16.4128676 Z M14.2588235,15.5459559 C13.4768382,15.6419118 12.7643382,15.0849265 12.6705882,14.3029412 C12.5768382,13.5209559 13.1316176,12.8084559 13.9136029,12.7147059 C14.6955882,12.6209559 15.4080882,13.1757353 15.5018382,13.9577206 C15.5944853,14.7397059 15.0408088,15.45 14.2588235,15.5459559 Z"/>
</svg>
