<svg xmlns="http://www.w3.org/2000/svg" width="24" height="24" viewBox="0 0 24 24">
  <path fill="#151515" fill-rule="evenodd" d="M17.6496094,6 L6.3421875,6 C6.15328289,6.00019378 6.00019378,6.15328289 6,6.3421875 L6,17.671875 C6,17.8675781 6.159375,18 6.35507813,18 L17.6566406,18 C17.8464844,18 18,17.8734375 18,17.6835938 L18,6.35039063 C17.9998707,6.1569288 17.8430712,6.00012928 17.6496094,6 Z M17.25,17.25 L6.75,17.25 L6.75,6.75 L17.25,6.75 L17.25,17.25 Z M10.5,11.25 L12.75,11.25 L12.75,10.5 L10.5,10.5 L10.5,11.25 Z M11.25,9 L13.5,9 L13.5,8.25 L11.25,8.25 L11.25,9 Z M15.75,11.25 L13.5,11.25 L13.5,10.5 L15,10.5 L15,9 L14.25,9 L14.25,8.25 L15.75,8.25 L15.75,11.25 Z M8.25,8.25 L10.5,8.25 L10.5,9 L9,9 L9,10.5 L9.75,10.5 L9.75,11.25 L8.25,11.25 L8.25,8.25 Z M10.5,15.75 L12.75,15.75 L12.75,15 L10.5,15 L10.5,15.75 Z M11.25,13.5 L13.5,13.5 L13.5,12.75 L11.25,12.75 L11.25,13.5 Z M15.75,15.75 L13.5,15.75 L13.5,15 L15,15 L15,13.5 L14.25,13.5 L14.25,12.75 L15.75,12.75 L15.75,15.75 Z M8.25,12.75 L10.5,12.75 L10.5,13.5 L9,13.5 L9,15 L9.75,15 L9.75,15.75 L8.25,15.75 L8.25,12.75 Z"/>
</svg>
