<?xml version="1.0" encoding="UTF-8"?>
<svg width="24px" height="54px" viewBox="0 0 24 54" version="1.1" xmlns="http://www.w3.org/2000/svg" xmlns:xlink="http://www.w3.org/1999/xlink">
    <title></title>
    <g id="Icons" stroke="none" stroke-width="1" fill="none" fill-rule="evenodd">
        <g id="Icons/4.-Size-xl-(54px)/Framework/arrows-alt-v" fill="#151515">
            <path d="M13.4026733,53.2585534 L22.479247,44.1820827 C24.0739431,42.5874896 22.9445856,39.8609642 20.6893724,39.8609642 L15.8316417,39.8609642 L15.8316417,14.1390101 L20.6893724,14.1390101 C22.9445856,14.1390101 24.0739431,11.4125876 22.47935,9.81789156 L13.4027763,0.741420886 C12.4142152,-0.247140295 10.8116914,-0.247140295 9.82313018,0.741420886 L0.74655651,9.81789156 C-0.848036551,11.4124846 0.281320955,14.1390101 2.53653408,14.1390101 L7.39416182,14.1390101 L7.39416182,39.8609642 L2.53643109,39.8609642 C0.281217959,39.8609642 -0.848139548,42.5873866 0.746453513,44.1820827 L9.82302718,53.2585534 C10.8115884,54.2471145 12.4141122,54.2471145 13.4026733,53.2585534 Z" id="arrows-alt-v"></path>
        </g>
    </g>
</svg>