<?xml version="1.0" encoding="UTF-8"?>
<svg width="48px" height="55px" viewBox="0 0 48 55" version="1.1" xmlns="http://www.w3.org/2000/svg" xmlns:xlink="http://www.w3.org/1999/xlink">
    <title></title>
    <g id="Icons" stroke="none" stroke-width="1" fill="none" fill-rule="evenodd">
        <g id="Icons/4.-Size-xl-(54px)/Framework/calendar" fill="#151515">
            <path d="M42.1873994,54.9998713 C44.9823146,54.9998713 47.2498873,52.7322985 47.2498873,49.9373833 L47.2498873,12.8124718 C47.2498873,10.0175566 44.9823146,7.74998391 42.1873994,7.74998391 L37.1249115,7.74998391 L37.1249115,2.26562198 C37.1249115,1.56957109 36.5553404,1 35.8592895,1 L31.6405496,1 C30.9444987,1 30.3749276,1.56957109 30.3749276,2.26562198 L30.3749276,7.74998391 L16.8749598,7.74998391 L16.8749598,2.26562198 C16.8749598,1.56957109 16.3053887,1 15.6093378,1 L11.3905978,1 C10.694547,1 10.1249759,1.56957109 10.1249759,2.26562198 L10.1249759,7.74998391 L5.06248793,7.74998391 C2.26757272,7.74998391 3.55271368e-15,10.0175566 3.55271368e-15,12.8124718 L3.55271368e-15,49.9373833 C3.55271368e-15,52.7322985 2.26757272,54.9998713 5.06248793,54.9998713 L42.1873994,54.9998713 Z M41.5545884,49.9373833 L5.69529892,49.9373833 C5.34727348,49.9373833 5.06248793,49.6525978 5.06248793,49.3045723 L5.06248793,17.8749598 L42.1873994,17.8749598 L42.1873994,49.3045723 C42.1873994,49.6525978 41.9026139,49.9373833 41.5545884,49.9373833 Z M15.6093378,31.3749276 C16.3053887,31.3749276 16.8749598,30.8053565 16.8749598,30.1093056 L16.8749598,25.8905657 C16.8749598,25.1945148 16.3053887,24.6249437 15.6093378,24.6249437 L11.3905978,24.6249437 C10.694547,24.6249437 10.1249759,25.1945148 10.1249759,25.8905657 L10.1249759,30.1093056 C10.1249759,30.8053565 10.694547,31.3749276 11.3905978,31.3749276 L15.6093378,31.3749276 Z M25.7343136,31.3749276 C26.4303645,31.3749276 26.9999356,30.8053565 26.9999356,30.1093056 L26.9999356,25.8905657 C26.9999356,25.1945148 26.4303645,24.6249437 25.7343136,24.6249437 L21.5155737,24.6249437 C20.8195228,24.6249437 20.2499517,25.1945148 20.2499517,25.8905657 L20.2499517,30.1093056 C20.2499517,30.8053565 20.8195228,31.3749276 21.5155737,31.3749276 L25.7343136,31.3749276 Z M35.8592895,31.3749276 C36.5553404,31.3749276 37.1249115,30.8053565 37.1249115,30.1093056 L37.1249115,25.8905657 C37.1249115,25.1945148 36.5553404,24.6249437 35.8592895,24.6249437 L31.6405496,24.6249437 C30.9444987,24.6249437 30.3749276,25.1945148 30.3749276,25.8905657 L30.3749276,30.1093056 C30.3749276,30.8053565 30.9444987,31.3749276 31.6405496,31.3749276 L35.8592895,31.3749276 Z M25.7343136,41.4999034 C26.4303645,41.4999034 26.9999356,40.9303323 26.9999356,40.2342815 L26.9999356,36.0155415 C26.9999356,35.3194906 26.4303645,34.7499195 25.7343136,34.7499195 L21.5155737,34.7499195 C20.8195228,34.7499195 20.2499517,35.3194906 20.2499517,36.0155415 L20.2499517,40.2342815 C20.2499517,40.9303323 20.8195228,41.4999034 21.5155737,41.4999034 L25.7343136,41.4999034 Z M15.6093378,41.4999034 C16.3053887,41.4999034 16.8749598,40.9303323 16.8749598,40.2342815 L16.8749598,36.0155415 C16.8749598,35.3194906 16.3053887,34.7499195 15.6093378,34.7499195 L11.3905978,34.7499195 C10.694547,34.7499195 10.1249759,35.3194906 10.1249759,36.0155415 L10.1249759,40.2342815 C10.1249759,40.9303323 10.694547,41.4999034 11.3905978,41.4999034 L15.6093378,41.4999034 Z M35.8592895,41.4999034 C36.5553404,41.4999034 37.1249115,40.9303323 37.1249115,40.2342815 L37.1249115,36.0155415 C37.1249115,35.3194906 36.5553404,34.7499195 35.8592895,34.7499195 L31.6405496,34.7499195 C30.9444987,34.7499195 30.3749276,35.3194906 30.3749276,36.0155415 L30.3749276,40.2342815 C30.3749276,40.9303323 30.9444987,41.4999034 31.6405496,41.4999034 L35.8592895,41.4999034 Z" id="calendar-alt"></path>
        </g>
    </g>
</svg>