<?xml version="1.0" encoding="UTF-8"?>
<svg width="53px" height="53px" viewBox="0 0 53 53" version="1.1" xmlns="http://www.w3.org/2000/svg" xmlns:xlink="http://www.w3.org/1999/xlink">
    <title></title>
    <g id="Icons" stroke="none" stroke-width="1" fill="none" fill-rule="evenodd">
        <g id="Icons/4.-Size-xl-(54px)/Framework/clock" fill="#151515">
            <path d="M26.1561876,52.3123753 C40.6053719,52.3123753 52.3123753,40.6053719 52.3123753,26.1561876 C52.3123753,11.7070033 40.6053719,0 26.1561876,0 C11.7070033,0 0,11.7070033 0,26.1561876 C0,40.6053719 11.7070033,52.3123753 26.1561876,52.3123753 Z M26.1561876,47.2498873 C14.5019185,47.2498873 5.06248793,37.8104567 5.06248793,26.1561876 C5.06248793,14.5019185 14.5019185,5.06248793 26.1561876,5.06248793 C37.8104567,5.06248793 47.2498873,14.5019185 47.2498873,26.1561876 C47.2498873,37.8104567 37.8104567,47.2498873 26.1561876,47.2498873 Z M34.4459704,35.964758 L36.4288606,33.2330827 C36.8401259,32.6636146 36.7241518,31.8726009 36.1545807,31.4612325 L29.1093056,26.3355047 L29.1093056,11.3905978 C29.1093056,10.694547 28.5397345,10.1249759 27.8436836,10.1249759 L24.4686917,10.1249759 C23.7726408,10.1249759 23.2030697,10.694547 23.2030697,11.3905978 L23.2030697,28.7085459 C23.2030697,29.1093056 23.3928924,29.488951 23.7199065,29.7316109 L32.6741202,36.2389349 C33.2436913,36.6503032 34.0347051,36.5237204 34.4459704,35.964758 Z" id="clock"></path>
        </g>
    </g>
</svg>