<?xml version="1.0" encoding="UTF-8"?>
<svg width="41px" height="54px" viewBox="0 0 41 54" version="1.1" xmlns="http://www.w3.org/2000/svg" xmlns:xlink="http://www.w3.org/1999/xlink">
    <title></title>
    <g id="Icons" stroke="none" stroke-width="1" fill="none" fill-rule="evenodd">
        <g id="Icons/4.-Size-xl-(54px)/Framework/thumbtack" fill="#151515">
            <path d="M21.0047107,53.5342237 L23.5359546,48.4717358 C23.585084,48.373374 23.6250467,48.2043567 23.6250467,48.0943563 L23.6250467,37.1249115 L37.9687625,37.1249115 C39.3667351,37.1249115 40.5,35.9916401 40.5,34.5936675 C40.5,29.1955137 36.4939544,24.9517456 31.4325995,22.5983768 L30.1421553,10.1249759 L34.5936675,10.1249759 C35.9916401,10.1249759 37.1249115,8.99170448 37.1249115,7.5937319 L37.1249115,2.53124397 C37.1249115,1.13327138 35.9916401,2.84217094e-14 34.5936675,2.84217094e-14 L5.90623592,2.84217094e-14 C4.50826333,2.84217094e-14 3.37499195,1.13327138 3.37499195,2.53124397 L3.37499195,7.5937319 C3.37499195,8.99170448 4.50826333,10.1249759 5.90623592,10.1249759 L10.3577481,10.1249759 L9.06730397,22.5983768 C3.95136082,24.9770828 0,29.2422742 0,34.5936675 C0,35.9916401 1.13327138,37.1249115 2.53124397,37.1249115 L16.8749598,37.1249115 L16.8749598,48.0943563 C16.8749598,48.225368 16.9054468,48.3545257 16.9640518,48.4717358 L19.4952958,53.5342237 C19.8055215,54.1545721 20.693867,54.1557051 21.0047107,53.5342237 Z" id="thumbtack"></path>
        </g>
    </g>
</svg>