<?xml version="1.0" encoding="UTF-8"?>
<svg width="48px" height="48px" viewBox="0 0 48 48" version="1.1" xmlns="http://www.w3.org/2000/svg" xmlns:xlink="http://www.w3.org/1999/xlink">
    <title></title>
    <g id="Icons" stroke="none" stroke-width="1" fill="none" fill-rule="evenodd">
        <g id="Icons/4.-Size-xl-(54px)/Actions/compress" fill="#6A6E73">
            <path d="M45.9842654,16.8749598 C46.6803163,16.8749598 47.2498873,16.3053887 47.2498873,15.6093378 L47.2498873,11.3905978 C47.2498873,10.694547 46.6803163,10.1249759 45.9842654,10.1249759 L37.1249115,10.1249759 L37.1249115,1.26562198 C37.1249115,0.569571091 36.5553404,3.55271368e-15 35.8592895,3.55271368e-15 L31.6405496,3.55271368e-15 C30.9444987,3.55271368e-15 30.3749276,0.569571091 30.3749276,1.26562198 L30.3749276,14.3437158 C30.3749276,15.7464262 31.5034611,16.8749598 32.9061715,16.8749598 L45.9842654,16.8749598 Z M14.3437158,16.8749598 C15.7464262,16.8749598 16.8749598,15.7464262 16.8749598,14.3437158 L16.8749598,1.26562198 C16.8749598,0.569571091 16.3053887,3.55271368e-15 15.6093378,3.55271368e-15 L11.3905978,3.55271368e-15 C10.694547,3.55271368e-15 10.1249759,0.569571091 10.1249759,1.26562198 L10.1249759,10.1249759 L1.26562198,10.1249759 C0.569571091,10.1249759 3.55271368e-15,10.694547 3.55271368e-15,11.3905978 L3.55271368e-15,15.6093378 C3.55271368e-15,16.3053887 0.569571091,16.8749598 1.26562198,16.8749598 L14.3437158,16.8749598 Z M15.6093378,47.2498873 C16.3053887,47.2498873 16.8749598,46.6803163 16.8749598,45.9842654 L16.8749598,32.9061715 C16.8749598,31.5034611 15.7464262,30.3749276 14.3437158,30.3749276 L1.26562198,30.3749276 C0.569571091,30.3749276 3.55271368e-15,30.9444987 3.55271368e-15,31.6405496 L3.55271368e-15,35.8592895 C3.55271368e-15,36.5553404 0.569571091,37.1249115 1.26562198,37.1249115 L10.1249759,37.1249115 L10.1249759,45.9842654 C10.1249759,46.6803163 10.694547,47.2498873 11.3905978,47.2498873 L15.6093378,47.2498873 Z M35.8592895,47.2498873 C36.5553404,47.2498873 37.1249115,46.6803163 37.1249115,45.9842654 L37.1249115,37.1249115 L45.9842654,37.1249115 C46.6803163,37.1249115 47.2498873,36.5553404 47.2498873,35.8592895 L47.2498873,31.6405496 C47.2498873,30.9444987 46.6803163,30.3749276 45.9842654,30.3749276 L32.9061715,30.3749276 C31.5034611,30.3749276 30.3749276,31.5034611 30.3749276,32.9061715 L30.3749276,45.9842654 C30.3749276,46.6803163 30.9444987,47.2498873 31.6405496,47.2498873 L35.8592895,47.2498873 Z" id="compress"></path>
        </g>
    </g>
</svg>