<?xml version="1.0" encoding="UTF-8"?>
<svg width="48px" height="55px" viewBox="0 0 48 55" version="1.1" xmlns="http://www.w3.org/2000/svg" xmlns:xlink="http://www.w3.org/1999/xlink">
    <title></title>
    <g id="Icons" stroke="none" stroke-width="1" fill="none" fill-rule="evenodd">
        <g id="Icons/4.-Size-xl-(54px)/Actions/copy" fill="#6A6E73">
            <path d="M30.2499684,32.999969 C30.6641825,32.999969 30.9999666,32.6641849 30.9999666,32.2499708 L30.9999666,24 L27.7499744,24 C27.3374692,24 26.9999762,23.6624974 26.9999762,23.2499923 L26.9999762,20 L21.7499887,20 C21.3357746,20 20.9999905,20.3357841 20.9999905,20.7499982 L20.9999905,32.2499708 C20.9999905,32.6641849 21.3357746,32.999969 21.7499887,32.999969 L30.2499684,32.999969 Z M30.9999738,23 L30.9999738,22.8106622 C30.9999738,22.6391844 30.9015477,22.4016056 30.7803016,22.280329 L28.7196376,20.219665 C28.598361,20.098419 28.3607822,20 28.1893044,20 L27.9999738,20 L27.9999738,23 L30.9999738,23 Z M26.2499779,35.9999619 C26.664192,35.9999619 26.9999762,35.6641777 26.9999762,35.2499636 L26.9999762,33.9999666 L21.7499887,33.9999666 C20.7850252,33.9999666 20,33.2149343 20,32.2499708 L20,22.9999928 L17.7499982,22.9999928 C17.3357841,22.9999928 17,23.335777 17,23.7499911 L17,35.2499636 C17,35.6641777 17.3357841,35.9999619 17.7499982,35.9999619 L26.2499779,35.9999619 Z" id="copy"></path>
            <path d="M44.7186434,44.8748954 C46.116616,44.8748954 47.2498873,43.741624 47.2498873,42.3436514 L47.2498873,14.4999678 L36.2811635,14.4999678 C34.8889587,14.4999678 33.7499195,13.3609286 33.7499195,11.9687238 L33.7499195,1 L16.0312118,1 C14.6332392,1 13.4999678,2.13327138 13.4999678,3.53124397 L13.4999678,42.3436514 C13.4999678,43.741624 14.6332392,44.8748954 16.0312118,44.8748954 L44.7186434,44.8748954 Z M47.2498873,11.1249759 L47.2498873,10.4859851 C47.2498873,9.90724729 46.9177234,9.10541891 46.508518,8.6961105 L39.5537769,1.74136939 C39.1444684,1.33216397 38.3426401,1 37.7639023,1 L37.1249115,1 L37.1249115,11.1249759 L47.2498873,11.1249759 Z M31.2186756,54.9998713 C32.6166482,54.9998713 33.7499195,53.8665999 33.7499195,52.4686273 L33.7499195,48.2498873 L16.0312118,48.2498873 C12.7744599,48.2498873 10.1249759,45.6004033 10.1249759,42.3436514 L10.1249759,11.1249759 L2.53124397,11.1249759 C1.13327138,11.1249759 0,12.2582472 0,13.6562198 L0,52.4686273 C0,53.8665999 1.13327138,54.9998713 2.53124397,54.9998713 L31.2186756,54.9998713 Z" id="copy"></path>
        </g>
    </g>
</svg>