<?xml version="1.0" encoding="UTF-8"?>
<svg width="48px" height="48px" viewBox="0 0 48 48" version="1.1" xmlns="http://www.w3.org/2000/svg" xmlns:xlink="http://www.w3.org/1999/xlink">
    <title></title>
    <g id="Icons" stroke="none" stroke-width="1" fill="none" fill-rule="evenodd">
        <g id="Icons/4.-Size-xl-(54px)/Actions/expand" fill="#6A6E73">
            <path d="M5.48436192,16.8749598 C6.18041282,16.8749598 6.74998391,16.3053887 6.74998391,15.6093378 L6.74998391,6.74998391 L15.6093378,6.74998391 C16.3053887,6.74998391 16.8749598,6.18041282 16.8749598,5.48436192 L16.8749598,1.26562198 C16.8749598,0.569571091 16.3053887,0 15.6093378,0 L2.53124397,0 C1.12853353,0 0,1.12853353 0,2.53124397 L0,15.6093378 C0,16.3053887 0.569571091,16.8749598 1.26562198,16.8749598 L5.48436192,16.8749598 Z M45.9842654,16.8749598 C46.6803163,16.8749598 47.2498873,16.3053887 47.2498873,15.6093378 L47.2498873,2.53124397 C47.2498873,1.12853353 46.1213538,0 44.7186434,0 L31.6405496,0 C30.9444987,0 30.3749276,0.569571091 30.3749276,1.26562198 L30.3749276,5.48436192 C30.3749276,6.18041282 30.9444987,6.74998391 31.6405496,6.74998391 L40.4999034,6.74998391 L40.4999034,15.6093378 C40.4999034,16.3053887 41.0694745,16.8749598 41.7655254,16.8749598 L45.9842654,16.8749598 Z M44.7186434,47.2498873 C46.1213538,47.2498873 47.2498873,46.1213538 47.2498873,44.7186434 L47.2498873,31.6405496 C47.2498873,30.9444987 46.6803163,30.3749276 45.9842654,30.3749276 L41.7655254,30.3749276 C41.0694745,30.3749276 40.4999034,30.9444987 40.4999034,31.6405496 L40.4999034,40.4999034 L31.6405496,40.4999034 C30.9444987,40.4999034 30.3749276,41.0694745 30.3749276,41.7655254 L30.3749276,45.9842654 C30.3749276,46.6803163 30.9444987,47.2498873 31.6405496,47.2498873 L44.7186434,47.2498873 Z M15.6093378,47.2498873 C16.3053887,47.2498873 16.8749598,46.6803163 16.8749598,45.9842654 L16.8749598,41.7655254 C16.8749598,41.0694745 16.3053887,40.4999034 15.6093378,40.4999034 L6.74998391,40.4999034 L6.74998391,31.6405496 C6.74998391,30.9444987 6.18041282,30.3749276 5.48436192,30.3749276 L1.26562198,30.3749276 C0.569571091,30.3749276 0,30.9444987 0,31.6405496 L0,44.7186434 C0,46.1213538 1.12853353,47.2498873 2.53124397,47.2498873 L15.6093378,47.2498873 Z" id="expand"></path>
        </g>
    </g>
</svg>