<?xml version="1.0" encoding="UTF-8"?>
<svg width="54px" height="55px" viewBox="0 0 54 55" version="1.1" xmlns="http://www.w3.org/2000/svg" xmlns:xlink="http://www.w3.org/1999/xlink">
    <title></title>
    <g id="Icons" stroke="none" stroke-width="1" fill="none" fill-rule="evenodd">
        <g id="Icons/4.-Size-xl-(54px)/Actions/external-link-alt" fill="#6A6E73">
            <path d="M18.4221744,41.5060832 C19.0023541,41.5060832 19.8056245,41.1725803 20.2151389,40.761624 L45.9083569,15.0610932 L49.6756628,18.8241763 C51.2576903,20.4062037 53.9998713,19.2987845 53.9998713,17.0312118 L53.9998713,3.53124397 C53.9998713,2.13399235 52.8658789,1 51.4686273,1 L37.9686595,1 C35.7147853,1 34.5884147,3.73270528 36.175695,5.32420844 L39.9441339,9.09264733 L14.2382473,34.7889552 C13.8272909,35.1984696 13.493788,36.00174 13.493788,36.5819197 C13.493788,37.1620995 13.8272909,37.9653698 14.2382473,38.3748842 L16.6292099,40.761624 C17.0387243,41.1725803 17.8419947,41.5060832 18.4221744,41.5060832 Z M42.1873994,54.9998713 C44.9819026,54.9998713 47.2498873,52.7318865 47.2498873,49.9373833 L47.2498873,36.4374155 C47.2498873,35.5059144 46.4938924,34.7499195 45.5623914,34.7499195 L42.1873994,34.7499195 C41.2558983,34.7499195 40.4999034,35.5059144 40.4999034,36.4374155 L40.4999034,48.2498873 L6.74998391,48.2498873 L6.74998391,14.4999678 L21.9374477,14.4999678 C22.8689488,14.4999678 23.6249437,13.7439729 23.6249437,12.8124718 L23.6249437,9.43747988 C23.6249437,8.50597881 22.8689488,7.74998391 21.9374477,7.74998391 L5.06248793,7.74998391 C2.2679847,7.74998391 0,10.0179686 0,12.8124718 L0,49.9373833 C0,52.7318865 2.2679847,54.9998713 5.06248793,54.9998713 L42.1873994,54.9998713 Z" id="external-link-alt"></path>
        </g>
    </g>
</svg>