<?xml version="1.0" encoding="UTF-8"?>
<svg width="54px" height="55px" viewBox="0 0 54 55" version="1.1" xmlns="http://www.w3.org/2000/svg" xmlns:xlink="http://www.w3.org/1999/xlink">
    <title></title>
    <g id="Icons" stroke="none" stroke-width="1" fill="none" fill-rule="evenodd">
        <g id="Icons/4.-Size-xl-(54px)/Actions/flag" fill="#6A6E73">
            <path d="M6.74998391,54.999848 C8.1479565,54.999848 9.28122787,53.8665766 9.28122787,52.468604 L9.28122787,42.5123365 C12.2670987,41.2400198 15.9871292,40.179155 21.3504702,40.179155 C27.0024075,40.179155 31.6700066,43.8476872 38.7757407,43.8476872 C43.856047,43.8476872 47.9163782,42.1291893 51.6961467,39.5385163 C52.6118893,38.9108551 53.1561233,37.8687357 53.1561233,36.7585356 L53.1561233,11.1191848 C53.1561233,8.65190167 50.5965552,7.01961186 48.3588515,8.05884736 C44.7372858,9.74088452 40.2953522,11.4184928 36.024393,11.4184928 C30.3725587,11.4184928 25.7048566,7.74996061 18.5991225,7.74996061 C15.9671479,7.74996061 13.6095562,8.21231226 11.4225268,9.01692155 C11.6378926,8.45456022 11.8126778,7.5092576 11.8126778,6.9069336 C11.8126778,6.80331904 11.807322,6.63533162 11.8007302,6.53192305 C11.6138944,3.53276562 9.15526305,1.12717748 6.15280973,1.00502354 C2.77853876,0.867729096 0,3.56242863 0,6.90621262 C0,8.912895 1.00164175,10.6846422 2.53124397,11.7519957 L2.53124397,52.468604 C2.53124397,53.8665766 3.66451534,54.999848 5.06248793,54.999848 L6.74998391,54.999848 Z" id="flag"></path>
        </g>
    </g>
</svg>