<?xml version="1.0" encoding="UTF-8"?>
<svg width="53px" height="53px" viewBox="0 0 53 53" version="1.1" xmlns="http://www.w3.org/2000/svg" xmlns:xlink="http://www.w3.org/1999/xlink">
    <title></title>
    <g id="Icons" stroke="none" stroke-width="1" fill="none" fill-rule="evenodd">
        <g id="Icons/4.-Size-xl-(54px)/Actions/minus-circle" fill="#6A6E73">
            <path d="M26.1561876,52.3123753 C40.6053719,52.3123753 52.3123753,40.6053719 52.3123753,26.1561876 C52.3123753,11.7070033 40.6053719,0 26.1561876,0 C11.7070033,0 0,11.7070033 0,26.1561876 C0,40.6053719 11.7070033,52.3123753 26.1561876,52.3123753 Z M40.0780294,30.3749276 L12.2343458,30.3749276 C11.5382949,30.3749276 10.9687238,29.8053565 10.9687238,29.1093056 L10.9687238,23.2030697 C10.9687238,22.5070188 11.5382949,21.9374477 12.2343458,21.9374477 L40.0780294,21.9374477 C40.7740803,21.9374477 41.3436514,22.5070188 41.3436514,23.2030697 L41.3436514,29.1093056 C41.3436514,29.8053565 40.7740803,30.3749276 40.0780294,30.3749276 Z" id="minus-circle"></path>
        </g>
    </g>
</svg>