<?xml version="1.0" encoding="UTF-8"?>
<svg width="54px" height="54px" viewBox="0 0 54 54" version="1.1" xmlns="http://www.w3.org/2000/svg" xmlns:xlink="http://www.w3.org/1999/xlink">
    <title></title>
    <g id="Icons" stroke="none" stroke-width="1" fill="none" fill-rule="evenodd">
        <g id="Icons/4.-Size-xl-(54px)/Actions/pficon-optimize" fill="#6A6E73">
            <path d="M53.2617188,46.5117188 L19.7701172,13.0201172 C18.7839844,12.0339844 17.1755859,12.0339844 16.1894531,13.0201172 L13.0201172,16.1894531 C12.0339844,17.1755859 12.0339844,18.7839844 13.0201172,19.7701172 L46.5117188,53.2617188 C47.0021484,53.7521484 47.6560547,54 48.3046875,54 C48.9533203,54 49.6019531,53.7521484 50.0976562,53.2617188 L53.2669922,50.0923828 C53.7574219,49.6019531 54,48.9691406 54,48.3152344 C54,47.6613281 53.7574219,47.0074219 53.2617188,46.5117188 Z M25.3652344,28.7402344 L14.6074219,17.9824219 L17.9824219,14.6074219 L28.7402344,25.3652344 L25.3652344,28.7402344 Z M12.9041016,26.4041016 C13.2310547,26.7310547 13.2310547,27.2689453 12.9041016,27.5958984 L6.99785156,33.5021484 C6.83964844,33.6603516 6.6234375,33.75 6.40195313,33.75 L4.21875,33.75 C3.7546875,33.75 3.375,33.3703125 3.375,32.90625 L3.375,30.7230469 C3.375,30.5015625 3.46464844,30.2853516 3.62285156,30.1271484 L9.52910156,24.2208984 C9.85605469,23.8939453 10.3939453,23.8939453 10.7208984,24.2208984 L12.9041016,26.4041016 Z M20.25,31.21875 L20.25,36.28125 C20.25,36.7453125 19.8703125,37.125 19.40625,37.125 L17.71875,37.125 C17.2546875,37.125 16.875,36.7453125 16.875,36.28125 L16.875,31.21875 C16.875,30.7546875 17.2546875,30.375 17.71875,30.375 L19.40625,30.375 C19.8703125,30.375 20.25,30.7546875 20.25,31.21875 Z M5.90625,20.25 L0.84375,20.25 C0.3796875,20.25 0,19.8703125 0,19.40625 L0,17.71875 C0,17.2546875 0.3796875,16.875 0.84375,16.875 L5.90625,16.875 C6.3703125,16.875 6.75,17.2546875 6.75,17.71875 L6.75,19.40625 C6.75,19.8703125 6.3703125,20.25 5.90625,20.25 Z M24.2208984,10.7208984 C23.8939453,10.3939453 23.8939453,9.85605469 24.2208984,9.52910156 L30.1271484,3.62285156 C30.2853516,3.46464844 30.5015625,3.375 30.7230469,3.375 L32.90625,3.375 C33.3703125,3.375 33.75,3.7546875 33.75,4.21875 L33.75,6.40195313 C33.75,6.6234375 33.6603516,6.83964844 33.5021484,6.99785156 L27.5958984,12.9041016 C27.2689453,13.2310547 26.7310547,13.2310547 26.4041016,12.9041016 L24.2208984,10.7208984 Z M31.21875,16.875 L36.28125,16.875 C36.7453125,16.875 37.125,17.2546875 37.125,17.71875 L37.125,19.40625 C37.125,19.8703125 36.7453125,20.25 36.28125,20.25 L31.21875,20.25 C30.7546875,20.25 30.375,19.8703125 30.375,19.40625 L30.375,17.71875 C30.375,17.2546875 30.7546875,16.875 31.21875,16.875 Z M16.875,5.90625 L16.875,0.84375 C16.875,0.3796875 17.2546875,0 17.71875,0 L19.40625,0 C19.8703125,0 20.25,0.3796875 20.25,0.84375 L20.25,5.90625 C20.25,6.3703125 19.8703125,6.75 19.40625,6.75 L17.71875,6.75 C17.2546875,6.75 16.875,6.3703125 16.875,5.90625 Z M3.62285156,6.99785156 C3.46464844,6.83964844 3.375,6.6234375 3.375,6.40195313 L3.375,4.21875 C3.375,3.7546875 3.7546875,3.375 4.21875,3.375 L6.40195313,3.375 C6.6234375,3.375 6.83964844,3.46464844 6.99785156,3.62285156 L12.9041016,9.52910156 C13.2310547,9.85605469 13.2310547,10.3939453 12.9041016,10.7208984 L10.7208984,12.9041016 C10.3939453,13.2310547 9.85605469,13.2310547 9.52910156,12.9041016 L3.62285156,6.99785156 Z" id="pficon-optimize"></path>
        </g>
    </g>
</svg>