<?xml version="1.0" encoding="UTF-8"?>
<svg width="54px" height="54px" viewBox="0 0 54 54" version="1.1" xmlns="http://www.w3.org/2000/svg" xmlns:xlink="http://www.w3.org/1999/xlink">
    <title></title>
    <g id="Icons" stroke="none" stroke-width="1" fill="none" fill-rule="evenodd">
        <g id="Icons/4.-Size-xl-(54px)/Actions/pficon-add-circle-o" fill="#6A6E73">
            <path d="M30.375,15.9785156 C30.375,15.5416498 30.0208502,15.1875 29.5839844,15.1875 L24.4160156,15.1875 C23.9791498,15.1875 23.625,15.5416498 23.625,15.9785156 L23.625,23.625 L15.9785156,23.625 C15.5416498,23.625 15.1875,23.9791498 15.1875,24.4160156 L15.1875,29.5839844 C15.1875,30.0208502 15.5416498,30.375 15.9785156,30.375 L23.625,30.375 L23.625,38.0162109 C23.6241232,38.4542951 23.9779354,38.810466 24.4160156,38.8125 L29.5839844,38.8125 C30.0220646,38.810466 30.3758768,38.4542951 30.375,38.0162109 L30.375,30.375 L38.0214844,30.375 C38.2307884,30.3764047 38.4320024,30.294242 38.5805001,30.1467342 C38.7289979,29.9992264 38.8125033,29.7985665 38.8125033,29.5892578 L38.8125033,24.4212891 C38.8133768,23.9832049 38.4595646,23.627034 38.0214844,23.625 L30.375,23.625 L30.375,15.9785156 Z M27,47.25 C15.8308594,47.25 6.75,38.1744141 6.75,27 C6.75,15.8361328 15.8308594,6.75 27,6.75 C38.1691406,6.75 47.25,15.8308594 47.25,27 C47.25,38.1691406 38.1638672,47.25 27,47.25 Z M27.0052734,0 C12.1130859,0 0,12.1183594 0,27 C0,41.8816406 12.1183594,54 27.0052734,54 C41.8921875,54 54,41.8869141 54,27 C54,12.1130859 41.8921875,0 27.0052734,0 Z" id="pficon-add-circle-o"></path>
        </g>
    </g>
</svg>