<?xml version="1.0" encoding="UTF-8"?>
<svg width="48px" height="48px" viewBox="0 0 48 48" version="1.1" xmlns="http://www.w3.org/2000/svg" xmlns:xlink="http://www.w3.org/1999/xlink">
    <title></title>
    <g id="Icons" stroke="none" stroke-width="1" fill="none" fill-rule="evenodd">
        <g id="Icons/4.-Size-xl-(54px)/Actions/plus" fill="#6A6E73">
            <path d="M25.3124397,47.2498873 C27.1760598,47.2498873 28.6874316,45.7385155 28.6874316,43.8748954 L28.6874316,28.6874316 L43.8748954,28.6874316 C45.7385155,28.6874316 47.2498873,27.1760598 47.2498873,25.3124397 L47.2498873,21.9374477 C47.2498873,20.0738276 45.7385155,18.5624557 43.8748954,18.5624557 L28.6874316,18.5624557 L28.6874316,3.37499195 C28.6874316,1.51137182 27.1760598,0 25.3124397,0 L21.9374477,0 C20.0738276,0 18.5624557,1.51137182 18.5624557,3.37499195 L18.5624557,18.5624557 L3.37499195,18.5624557 C1.51137182,18.5624557 0,20.0738276 0,21.9374477 L0,25.3124397 C0,27.1760598 1.51137182,28.6874316 3.37499195,28.6874316 L18.5624557,28.6874316 L18.5624557,43.8748954 C18.5624557,45.7385155 20.0738276,47.2498873 21.9374477,47.2498873 L25.3124397,47.2498873 Z" id="plus"></path>
        </g>
    </g>
</svg>