<?xml version="1.0" encoding="UTF-8"?>
<svg width="54px" height="55px" viewBox="0 0 54 55" version="1.1" xmlns="http://www.w3.org/2000/svg" xmlns:xlink="http://www.w3.org/1999/xlink">
    <title></title>
    <g id="Icons" stroke="none" stroke-width="1" fill="none" fill-rule="evenodd">
        <g id="Icons/4.-Size-xl-(54px)/Actions/redo" fill="#6A6E73">
            <path d="M26.1929645,54.1561233 C31.7371674,54.1561233 39.5727353,51.1363665 43.6829168,47.415615 C43.9156891,47.207356 44.1045848,46.784864 44.1045848,46.4725784 C44.1045848,46.183055 43.9383483,45.7819863 43.7335911,45.5773321 L40.1476622,41.9914031 C39.943008,41.7868519 39.5421453,41.6208214 39.2528279,41.6208214 C38.9905986,41.6208214 38.617545,41.7607938 38.4201005,41.933416 C35.5176569,44.4869073 30.0245403,46.5594045 26.1586666,46.5594045 C15.9122578,46.5594045 7.59621085,38.2434606 7.59621085,27.9969487 C7.59621085,17.7505399 15.9122578,9.43449298 26.1586666,9.43449298 C31.6178974,9.43449298 38.5200072,13.1118829 41.5651011,17.6429085 L30.8569586,17.1292645 L30.7968086,17.1278226 L30.7968086,17.1278226 C30.0981828,17.1278226 29.5311866,17.6948187 29.5311866,18.3934446 L29.5311866,23.3951645 C29.5311866,24.0937903 30.0981828,24.6607865 30.7968086,24.6607865 L51.9253212,24.6607865 C52.623947,24.6607865 53.1909431,24.0937903 53.1909431,23.3951645 L53.1909431,2.26562198 C53.1909431,1.56699618 52.623947,1 51.9253212,1 L46.9236012,1 C46.2249754,1 45.6579792,1.56699618 45.6579792,2.26562198 L45.6594212,2.32577199 L45.6594212,2.32577199 L46.0812952,11.0543202 C41.7667684,5.9701 32.8531353,1.84374799 26.1849307,1.84374799 L26.1561947,1.84374799 C11.7428532,1.84374799 -0.0104986139,13.6066785 3.55271368e-15,28.02002 C0.0105126885,42.4565357 11.717516,54.1561233 26.1561947,54.1561233 L26.1929645,54.1561233 Z" id="redo"></path>
        </g>
    </g>
</svg>