<?xml version="1.0" encoding="UTF-8"?>
<svg width="53px" height="53px" viewBox="0 0 53 53" version="1.1" xmlns="http://www.w3.org/2000/svg" xmlns:xlink="http://www.w3.org/1999/xlink">
    <title></title>
    <g id="Icons" stroke="none" stroke-width="1" fill="none" fill-rule="evenodd">
        <g id="Icons/4.-Size-xl-(54px)/Actions/sync-alt" fill="#6A6E73">
            <path d="M7.74204697,22.7811957 C8.32511061,22.7811957 8.82907288,22.3817749 8.97079618,21.8161177 C10.9180495,14.0460557 17.9707404,8.44468964 26.1401202,8.43747988 C30.6794885,8.43346302 34.9583784,10.1257998 38.255505,13.2131223 L33.8521951,17.6163292 C32.2576021,19.2110252 33.3869596,21.9374477 35.6421727,21.9374477 L49.7811313,21.9374477 C51.1791039,21.9374477 52.3123753,20.8041763 52.3123753,19.4062037 L52.3123753,5.26724513 C52.3123753,3.012032 49.5859528,1.8826745 47.9913597,3.47726756 L44.2245688,7.2440585 C39.5286457,2.75649749 33.164384,0 26.1561876,0 C13.374827,0 2.7350742,9.16772564 0.453081958,21.2860973 C0.306826814,22.0633095 0.907605868,22.7811957 1.69831062,22.7811957 L7.74204697,22.7811957 Z M26.1561876,52.3123753 C38.9375483,52.3123753 49.5773011,43.1446496 51.8593963,31.0264839 C52.0056515,30.2492718 51.4049754,29.5313856 50.6141677,29.5313856 L44.5703283,29.5313856 C43.9872647,29.5313856 43.4833024,29.9308063 43.3415791,30.4964635 C41.3932958,38.2700275 34.337824,43.8675826 26.1726671,43.8749984 C21.6331958,43.8791183 17.3539969,42.1867814 14.0568703,39.0993559 L18.4601801,34.6960461 C20.0547732,33.1013501 18.9254157,30.3749276 16.6702026,30.3749276 L2.53124397,30.3749276 C1.13327138,30.3749276 0,31.508199 0,32.9061715 L0,47.0451301 C0,49.3003433 2.72642249,50.4297008 4.32101555,48.8351077 L8.08780649,45.0683168 C12.7837296,49.5558778 19.1479913,52.3123753 26.1561876,52.3123753 Z" id="sync-alt"></path>
        </g>
    </g>
</svg>