<?xml version="1.0" encoding="UTF-8"?>
<svg width="53px" height="53px" viewBox="0 0 53 53" version="1.1" xmlns="http://www.w3.org/2000/svg" xmlns:xlink="http://www.w3.org/1999/xlink">
    <title></title>
    <g id="Icons" stroke="none" stroke-width="1" fill="none" fill-rule="evenodd">
        <g id="Icons/4.-Size-xl-(54px)/Actions/times-circle" fill="#6A6E73">
            <path d="M26.1561876,52.3123753 C40.6053719,52.3123753 52.3123753,40.6053719 52.3123753,26.1561876 C52.3123753,11.7070033 40.6053719,0 26.1561876,0 C11.7070033,0 0,11.7070033 0,26.1561876 C0,40.6053719 11.7070033,52.3123753 26.1561876,52.3123753 Z M17.4972651,38.9811159 L13.3312594,34.8046045 C12.8355369,34.308882 12.8355369,33.5073626 13.3312594,33.01164 L20.2499517,26.1561876 L13.3312594,19.2902296 C12.8355369,18.794507 12.8355369,17.9928847 13.3312594,17.4972651 L17.5077708,13.3206508 C18.0034933,12.8249282 18.8050127,12.8249282 19.3007352,13.3206508 L26.1561876,20.2499517 L33.0221457,13.3312594 C33.5178682,12.8355369 34.3194906,12.8355369 34.8151102,13.3312594 L38.9917245,17.5077708 C39.4874471,18.0034933 39.4874471,18.8050127 38.9917245,19.3007352 L32.0624236,26.1561876 L38.9811159,33.0221457 C39.4768384,33.5178682 39.4768384,34.3194906 38.9811159,34.8151102 L34.8046045,38.9811159 C34.308882,39.4768384 33.5073626,39.4768384 33.01164,38.9811159 L26.1561876,32.0624236 L19.2902296,38.9811159 C18.794507,39.4768384 17.9928847,39.4768384 17.4972651,38.9811159 Z" id="times-circle"></path>
        </g>
    </g>
</svg>