<?xml version="1.0" encoding="UTF-8"?>
<svg width="54px" height="54px" viewBox="0 0 54 54" version="1.1" xmlns="http://www.w3.org/2000/svg" xmlns:xlink="http://www.w3.org/1999/xlink">
    <title></title>
    <g id="Icons" stroke="none" stroke-width="1" fill="none" fill-rule="evenodd">
        <g id="Icons/4.-Size-xl-(54px)/Actions/upload" fill="#6A6E73">
            <path d="M31.2186756,40.4919727 C32.621386,40.4919727 33.7499195,39.3634392 33.7499195,37.9607287 L33.7499195,20.242021 L42.9995275,20.242021 C44.8768461,20.242021 45.815557,17.9744483 44.4865921,16.6455864 L28.434266,0.593260304 C27.6432523,-0.197753435 26.3460103,-0.197753435 25.5549966,0.593260304 L9.51327917,16.6455864 C8.18431429,17.9744483 9.12302512,20.242021 11.0003438,20.242021 L20.2499517,20.242021 L20.2499517,37.9607287 C20.2499517,39.3634392 21.3784853,40.4919727 22.7811957,40.4919727 L31.2186756,40.4919727 Z M51.4686273,53.9919405 C52.8713377,53.9919405 53.9998713,52.863407 53.9998713,51.4606966 L53.9998713,39.6482247 C53.9998713,38.2455143 52.8713377,37.1169808 51.4686273,37.1169808 L37.1249115,37.1169808 L37.1249115,37.9607287 C37.1249115,41.2197465 34.4776934,43.8669647 31.2186756,43.8669647 L22.7811957,43.8669647 C19.5221779,43.8669647 16.8749598,41.2197465 16.8749598,37.9607287 L16.8749598,37.1169808 L2.53124397,37.1169808 C1.12853353,37.1169808 0,38.2455143 0,39.6482247 L0,51.4606966 C0,52.863407 1.12853353,53.9919405 2.53124397,53.9919405 L51.4686273,53.9919405 Z M38.8124075,51.0388226 C37.652254,51.0388226 36.7030375,50.0896061 36.7030375,48.9294526 C36.7030375,47.7692991 37.652254,46.8200826 38.8124075,46.8200826 C39.9725609,46.8200826 40.9217774,47.7692991 40.9217774,48.9294526 C40.9217774,50.0896061 39.9725609,51.0388226 38.8124075,51.0388226 Z M45.5623914,51.0388226 C44.4022379,51.0388226 43.4530214,50.0896061 43.4530214,48.9294526 C43.4530214,47.7692991 44.4022379,46.8200826 45.5623914,46.8200826 C46.7225449,46.8200826 47.6717613,47.7692991 47.6717613,48.9294526 C47.6717613,50.0896061 46.7225449,51.0388226 45.5623914,51.0388226 Z" id="upload"></path>
        </g>
    </g>
</svg>