<svg xmlns="http://www.w3.org/2000/svg" xmlns:xlink="http://www.w3.org/1999/xlink" width="540" height="56" viewBox="0 0 540 56">
  <defs>
    <rect id="default-a" width="540" height="56" x="0" y="0"/>
    <filter id="default-b" width="100.2%" height="101.8%" x="-.1%" y="-.9%" filterUnits="objectBoundingBox">
      <feOffset dy="-1" in="SourceAlpha" result="shadowOffsetInner1"/>
      <feComposite in="shadowOffsetInner1" in2="SourceAlpha" k2="-1" k3="1" operator="arithmetic" result="shadowInnerInner1"/>
      <feColorMatrix in="shadowInnerInner1" values="0 0 0 0 0.823529412   0 0 0 0 0.823529412   0 0 0 0 0.823529412  0 0 0 1 0"/>
    </filter>
  </defs>
  <g fill="none" fill-rule="evenodd">
    <use fill="#FFF" xlink:href="#default-a"/>
    <use fill="#000" filter="url(#default-b)" xlink:href="#default-a"/>
    <text fill="#151515" font-family="RedHatText-Regular, Red Hat Text" font-size="16">
      <tspan x="16" y="32">Group name</tspan>
    </text>
    <g fill="#3F9C35" fill-opacity=".9" stroke="#418A38">
      <rect width="15" height="55" x=".5" y=".5" transform="translate(524)"/>
      <rect width="15" height="55" x=".5" y=".5"/>
      <rect width="15" height="55" x=".5" y=".5" transform="translate(500)"/>
      <rect width="539" height="15" x=".5" y=".5"/>
      <rect width="539" height="15" x=".5" y=".5" transform="translate(0 40)"/>
    </g>
    <path fill="#6A6E73" d="M10.985919,16.7827983 L15.2359089,12.5328085 C15.5296704,12.239047 15.5296704,11.7640725 15.2327961,11.470311 L10.9828062,7.22032113 C10.692188,6.92655962 10.2171831,6.92655962 9.92342157,7.22032113 L9.22029824,7.93281333 C8.92656725,8.22343153 8.92656725,8.6984365 9.22029824,8.99219801 L12.2328033,12.0046725 L9.22029824,15.0171775 C8.92656725,15.3077957 8.92656725,15.7828007 9.22029824,16.0765622 L9.92656487,16.7827983 C10.2171831,17.0765598 10.692188,17.0765598 10.985919,16.7827983 Z" transform="translate(508 16)"/>
    <g transform="translate(467 19)">
      <rect width="33" height="18" fill="#06C" rx="9"/>
      <text fill="#FFF" font-family="RedHatText-Medium, Red Hat Text" font-size="12" font-weight="400">
        <tspan x="8.412" y="12">00</tspan>
      </text>
      <g fill="#92D400" fill-opacity=".9" stroke="#7FB300">
        <rect width="7" height="17" x=".5" y=".5"/>
        <rect width="7" height="17" x=".5" y=".5" transform="translate(25)"/>
      </g>
    </g>
  </g>
</svg>
