<?xml version="1.0" encoding="UTF-8"?>
<svg width="109px" height="40px" viewBox="0 0 109 40" version="1.1" xmlns="http://www.w3.org/2000/svg" xmlns:xlink="http://www.w3.org/1999/xlink">
    <title>Accordion / Toggle / Focus</title>
    <g id="Accordion-/-Toggle-/-Focus" stroke="none" stroke-width="1" fill="none" fill-rule="evenodd">
        <rect id="Focus" stroke="#0066CC" fill-opacity="0.2" fill="#0066CC" fill-rule="nonzero" x="-7.5" y="-7.5" width="124" height="55" rx="3"></rect>
        <rect id="Background" fill="#F0F0F0" x="0" y="0" width="109" height="40"></rect>
        <rect id="Rectangle" fill="#0066CC" x="0" y="0" width="3" height="40"></rect>
        <g id="angle-down" transform="translate(69.000000, 8.000000)" fill="#151515">
            <path d="M12.5265524,15.2359089 L16.7765422,10.985919 C17.0703037,10.6953008 17.0703037,10.2202959 16.7765422,9.92656487 L16.0703061,9.22029824 C15.7796879,8.92656725 15.304683,8.92656725 15.0109215,9.22029824 L11.9984469,12.2328033 L8.98594192,9.22029824 C8.69532372,8.92656725 8.22031875,8.92656725 7.92655724,9.22029824 L7.22032113,9.92656487 C6.92655962,10.2171831 6.92655962,10.692188 7.22032113,10.985919 L11.470311,15.2359089 C11.7640725,15.5296704 12.239047,15.5296704 12.5265524,15.2359089 Z"></path>
        </g>
        <text id="âœï¸-Label" font-family="RedHatText-Medium, Red Hat Text" font-size="16" font-weight="400" line-spacing="24" fill="#0066CC">
            <tspan x="16" y="24">Toggle</tspan>
        </text>
        <g id="ðŸ“-Padding" fill-opacity="0.9">
            <g id="Spacer-/-Vertical-/-2.-pf-global--spacer--sm-(8px)" transform="translate(16.000000, 0.000000)" fill="#92D400" stroke="#7FB300">
                <rect id="Rectangle-Copy" x="0.5" y="0.5" width="76" height="7"></rect>
            </g>
            <g id="Spacer-/-Vertical-/-2.-pf-global--spacer--sm-(8px)" transform="translate(16.000000, 32.000000)" fill="#92D400" stroke="#7FB300">
                <rect id="Rectangle-Copy" x="0.5" y="0.5" width="76" height="7"></rect>
            </g>
            <g id="Spacer-/-Horizontal-/-3.-pf-global--spacer--md-(16px)" fill="#3F9C35" stroke="#418A38">
                <rect id="Rectangle-Copy-2" x="0.5" y="0.5" width="15" height="39"></rect>
            </g>
            <g id="Spacer-/-Horizontal-/-3.-pf-global--spacer--md-(16px)" transform="translate(93.000000, 0.000000)" fill="#3F9C35" stroke="#418A38">
                <rect id="Rectangle-Copy-2" x="0.5" y="0.5" width="15" height="39"></rect>
            </g>
        </g>
    </g>
</svg>