<?xml version="1.0" encoding="UTF-8"?>
<svg width="54px" height="44px" viewBox="0 0 54 44" version="1.1" xmlns="http://www.w3.org/2000/svg" xmlns:xlink="http://www.w3.org/1999/xlink">
    <title></title>
    <g id="Icons" stroke="none" stroke-width="1" fill="none" fill-rule="evenodd">
        <g id="Icons/4.-Size-xl-(54px)/View-Type/list" fill="#151515">
            <path d="M8.43747988,10.1249759 C9.36898096,10.1249759 10.1249759,9.36898096 10.1249759,8.43747988 L10.1249759,1.68749598 C10.1249759,0.755994902 9.36898096,0 8.43747988,0 L1.68749598,0 C0.755994902,0 0,0.755994902 0,1.68749598 L0,8.43747988 C0,9.36898096 0.755994902,10.1249759 1.68749598,10.1249759 L8.43747988,10.1249759 Z M52.3123753,8.43747988 C53.2438764,8.43747988 53.9998713,7.68148498 53.9998713,6.74998391 L53.9998713,3.37499195 C53.9998713,2.44349088 53.2438764,1.68749598 52.3123753,1.68749598 L18.5624557,1.68749598 C17.6309547,1.68749598 16.8749598,2.44349088 16.8749598,3.37499195 L16.8749598,6.74998391 C16.8749598,7.68148498 17.6309547,8.43747988 18.5624557,8.43747988 L52.3123753,8.43747988 Z M8.43747988,26.9999356 C9.36898096,26.9999356 10.1249759,26.2439407 10.1249759,25.3124397 L10.1249759,18.5624557 C10.1249759,17.6309547 9.36898096,16.8749598 8.43747988,16.8749598 L1.68749598,16.8749598 C0.755994902,16.8749598 0,17.6309547 0,18.5624557 L0,25.3124397 C0,26.2439407 0.755994902,26.9999356 1.68749598,26.9999356 L8.43747988,26.9999356 Z M52.3123753,25.3124397 C53.2438764,25.3124397 53.9998713,24.5564447 53.9998713,23.6249437 L53.9998713,20.2499517 C53.9998713,19.3184506 53.2438764,18.5624557 52.3123753,18.5624557 L18.5624557,18.5624557 C17.6309547,18.5624557 16.8749598,19.3184506 16.8749598,20.2499517 L16.8749598,23.6249437 C16.8749598,24.5564447 17.6309547,25.3124397 18.5624557,25.3124397 L52.3123753,25.3124397 Z M8.43747988,43.8748954 C9.36898096,43.8748954 10.1249759,43.1189005 10.1249759,42.1873994 L10.1249759,35.4374155 C10.1249759,34.5059144 9.36898096,33.7499195 8.43747988,33.7499195 L1.68749598,33.7499195 C0.755994902,33.7499195 0,34.5059144 0,35.4374155 L0,42.1873994 C0,43.1189005 0.755994902,43.8748954 1.68749598,43.8748954 L8.43747988,43.8748954 Z M52.3123753,42.1873994 C53.2438764,42.1873994 53.9998713,41.4314045 53.9998713,40.4999034 L53.9998713,37.1249115 C53.9998713,36.1934104 53.2438764,35.4374155 52.3123753,35.4374155 L18.5624557,35.4374155 C17.6309547,35.4374155 16.8749598,36.1934104 16.8749598,37.1249115 L16.8749598,40.4999034 C16.8749598,41.4314045 17.6309547,42.1873994 18.5624557,42.1873994 L52.3123753,42.1873994 Z" id="list"></path>
        </g>
    </g>
</svg>