<?xml version="1.0" encoding="UTF-8"?>
<svg width="62px" height="48px" viewBox="0 0 62 48" version="1.1" xmlns="http://www.w3.org/2000/svg" xmlns:xlink="http://www.w3.org/1999/xlink">
    <title></title>
    <g id="Icons" stroke="none" stroke-width="1" fill="none" fill-rule="evenodd">
        <g id="Icons/4.-Size-xl-(54px)/View-Type/tachometer-alt" fill="#151515">
            <path d="M54.7362,47.2498873 C55.911082,47.2498873 57.0385856,46.6613649 57.6303009,45.6467456 C60.2469291,41.1601115 61.7498552,35.9436437 61.7498552,30.3749276 C61.7498552,13.5991535 48.1507016,3.55271368e-15 31.3749276,3.55271368e-15 C14.5991535,3.55271368e-15 1,13.5991535 1,30.3749276 C1,35.9436437 2.5029261,41.1601115 5.11955423,45.6467456 C5.71126959,46.6613649 6.83877316,47.2498873 8.01365515,47.2498873 L54.7362,47.2498873 Z M31.3759575,13.4999678 C29.5123374,13.4999678 28.0009656,11.988596 28.0009656,10.1249759 C28.0009656,8.26135573 29.5113075,6.74998391 31.3749276,6.74998391 C32.9263651,6.74998391 34.1782885,7.81836744 34.5727654,9.2443551 C34.4556583,9.48268918 34.2942627,9.69043329 34.2088785,9.94782174 L33.2364878,12.8661269 C32.6953437,13.2342366 32.0794242,13.4999678 31.3759575,13.4999678 Z M37.1883636,40.4999034 L25.5614916,40.4999034 C24.9814148,39.5032055 24.6249437,38.3609735 24.6249437,37.1249115 C24.6249437,33.5452653 27.4198589,30.6460146 30.9425479,30.4181861 L37.4119692,11.0109524 C37.8517646,9.68621043 39.2818721,8.95956955 40.6139269,9.41100356 C41.9396988,9.85285889 42.6548041,11.2871893 42.2138757,12.6129613 L35.7455875,32.019165 C37.1893935,33.2573899 38.1249115,35.0724986 38.1249115,37.1249115 C38.1249115,38.3609735 37.7684403,39.5032055 37.1883636,40.4999034 Z M16.1874638,20.2499517 C14.3238437,20.2499517 12.8124718,18.7385799 12.8124718,16.8749598 C12.8124718,15.0113396 14.3238437,13.4999678 16.1874638,13.4999678 C18.0510839,13.4999678 19.5624557,15.0113396 19.5624557,16.8749598 C19.5624557,18.7385799 18.0510839,20.2499517 16.1874638,20.2499517 Z M46.5623914,20.2509817 C45.3621722,20.2499517 44.3591915,19.5887137 43.7600604,18.64578 L45.3969851,13.736242 C45.7629319,13.6001835 46.1489631,13.5009978 46.5623914,13.5009978 C48.4260115,13.5009978 49.9373833,15.0123696 49.9373833,16.8759897 C49.9373833,18.7396099 48.4260115,20.2509817 46.5623914,20.2509817 Z M11.1249759,37.1249115 C9.26135573,37.1249115 7.74998391,35.6135397 7.74998391,33.7499195 C7.74998391,31.8862994 9.26135573,30.3749276 11.1249759,30.3749276 C12.988596,30.3749276 14.4999678,31.8862994 14.4999678,33.7499195 C14.4999678,35.6135397 12.988596,37.1249115 11.1249759,37.1249115 Z M51.6248793,37.1249115 C49.7612592,37.1249115 48.2498873,35.6135397 48.2498873,33.7499195 C48.2498873,31.8862994 49.7612592,30.3749276 51.6248793,30.3749276 C53.4884994,30.3749276 54.9998713,31.8862994 54.9998713,33.7499195 C54.9998713,35.6135397 53.4884994,37.1249115 51.6248793,37.1249115 Z" id="tachometer-alt"></path>
        </g>
    </g>
</svg>