<?xml version="1.0" encoding="UTF-8"?>
<svg width="54px" height="48px" viewBox="0 0 54 48" version="1.1" xmlns="http://www.w3.org/2000/svg" xmlns:xlink="http://www.w3.org/1999/xlink">
    <title></title>
    <g id="Icons" stroke="none" stroke-width="1" fill="none" fill-rule="evenodd">
        <g id="Icons/4.-Size-xl-(54px)/View-Type/th-large" fill="#151515">
            <path d="M51.4686273,21.9374477 C52.8665999,21.9374477 53.9998713,20.8041763 53.9998713,19.4062037 L53.9998713,2.53124397 C53.9998713,1.13327138 52.8665999,0 51.4686273,0 L31.2186756,0 C29.820703,0 28.6874316,1.13327138 28.6874316,2.53124397 L28.6874316,19.4062037 C28.6874316,20.8041763 29.820703,21.9374477 31.2186756,21.9374477 L51.4686273,21.9374477 Z M22.7811957,21.9374477 C24.1791683,21.9374477 25.3124397,20.8041763 25.3124397,19.4062037 L25.3124397,2.53124397 C25.3124397,1.13327138 24.1791683,0 22.7811957,0 L2.53124397,0 C1.13327138,0 0,1.13327138 0,2.53124397 L0,19.4062037 C0,20.8041763 1.13327138,21.9374477 2.53124397,21.9374477 L22.7811957,21.9374477 Z M22.7811957,47.2498873 C24.1791683,47.2498873 25.3124397,46.116616 25.3124397,44.7186434 L25.3124397,27.8436836 C25.3124397,26.445711 24.1791683,25.3124397 22.7811957,25.3124397 L2.53124397,25.3124397 C1.13327138,25.3124397 0,26.445711 0,27.8436836 L0,44.7186434 C0,46.116616 1.13327138,47.2498873 2.53124397,47.2498873 L22.7811957,47.2498873 Z M51.4686273,47.2498873 C52.8665999,47.2498873 53.9998713,46.116616 53.9998713,44.7186434 L53.9998713,27.8436836 C53.9998713,26.445711 52.8665999,25.3124397 51.4686273,25.3124397 L31.2186756,25.3124397 C29.820703,25.3124397 28.6874316,26.445711 28.6874316,27.8436836 L28.6874316,44.7186434 C28.6874316,46.116616 29.820703,47.2498873 31.2186756,47.2498873 L51.4686273,47.2498873 Z" id="th-large"></path>
        </g>
    </g>
</svg>