<?xml version="1.0" encoding="UTF-8"?>
<svg width="55px" height="48px" viewBox="0 0 55 48" version="1.1" xmlns="http://www.w3.org/2000/svg" xmlns:xlink="http://www.w3.org/1999/xlink">
    <title></title>
    <g id="Icons" stroke="none" stroke-width="1" fill="none" fill-rule="evenodd">
        <g id="Icons/4.-Size-xl-(54px)/View-Type/th" fill="#151515">
            <path d="M14.2186842,13.4999678 C15.6166567,13.4999678 16.7499281,12.3666964 16.7499281,10.9687238 L16.7499281,2.53124397 C16.7499281,1.13327138 15.6166567,3.55271368e-15 14.2186842,3.55271368e-15 L3.53124397,3.55271368e-15 C2.13327138,3.55271368e-15 1,1.13327138 1,2.53124397 L1,10.9687238 C1,12.3666964 2.13327138,13.4999678 3.53124397,13.4999678 L14.2186842,13.4999678 Z M52.4686273,13.4999678 C53.8665999,13.4999678 54.9998713,12.3666964 54.9998713,10.9687238 L54.9998713,2.53124397 C54.9998713,1.13327138 53.8665999,3.55271368e-15 52.4686273,3.55271368e-15 L41.7811871,3.55271368e-15 C40.3832145,3.55271368e-15 39.2499431,1.13327138 39.2499431,2.53124397 L39.2499431,10.9687238 C39.2499431,12.3666964 40.3832145,13.4999678 41.7811871,13.4999678 L52.4686273,13.4999678 Z M33.3436042,13.4999678 C34.7416798,13.4999678 35.8749512,12.3666964 35.8749512,10.9687238 L35.8749512,2.53124397 C35.8749512,1.13327138 34.7416798,3.55271368e-15 33.3437072,3.55271368e-15 L22.656164,3.55271368e-15 C21.2581914,3.55271368e-15 20.1249201,1.13327138 20.1249201,2.53124397 L20.1249201,10.9687238 C20.1249201,12.3666964 21.2581914,13.4999678 22.656164,13.4999678 L33.3436042,13.4999678 Z M33.3436042,30.3749276 C34.7416798,30.3749276 35.8749512,29.2416562 35.8749512,27.8436836 L35.8749512,19.4062037 C35.8749512,18.0082311 34.7416798,16.8749598 33.3437072,16.8749598 L22.656164,16.8749598 C21.2581914,16.8749598 20.1249201,18.0082311 20.1249201,19.4062037 L20.1249201,27.8436836 C20.1249201,29.2416562 21.2581914,30.3749276 22.656164,30.3749276 L33.3436042,30.3749276 Z M14.2186842,30.3749276 C15.6166567,30.3749276 16.7499281,29.2416562 16.7499281,27.8436836 L16.7499281,19.4062037 C16.7499281,18.0082311 15.6166567,16.8749598 14.2186842,16.8749598 L3.53124397,16.8749598 C2.13327138,16.8749598 1,18.0082311 1,19.4062037 L1,27.8436836 C1,29.2416562 2.13327138,30.3749276 3.53124397,30.3749276 L14.2186842,30.3749276 Z M52.4686273,30.3749276 C53.8665999,30.3749276 54.9998713,29.2416562 54.9998713,27.8436836 L54.9998713,19.4062037 C54.9998713,18.0082311 53.8665999,16.8749598 52.4686273,16.8749598 L41.7811871,16.8749598 C40.3832145,16.8749598 39.2499431,18.0082311 39.2499431,19.4062037 L39.2499431,27.8436836 C39.2499431,29.2416562 40.3832145,30.3749276 41.7811871,30.3749276 L52.4686273,30.3749276 Z M14.2186842,47.2498873 C15.6166567,47.2498873 16.7499281,46.116616 16.7499281,44.7186434 L16.7499281,36.2811635 C16.7499281,34.8831909 15.6166567,33.7499195 14.2186842,33.7499195 L3.53124397,33.7499195 C2.13327138,33.7499195 1,34.8831909 1,36.2811635 L1,44.7186434 C1,46.116616 2.13327138,47.2498873 3.53124397,47.2498873 L14.2186842,47.2498873 Z M52.4686273,47.2498873 C53.8665999,47.2498873 54.9998713,46.116616 54.9998713,44.7186434 L54.9998713,36.2811635 C54.9998713,34.8831909 53.8665999,33.7499195 52.4686273,33.7499195 L41.7811871,33.7499195 C40.3832145,33.7499195 39.2499431,34.8831909 39.2499431,36.2811635 L39.2499431,44.7186434 C39.2499431,46.116616 40.3832145,47.2498873 41.7811871,47.2498873 L52.4686273,47.2498873 Z M33.3436042,47.2498873 C34.7415768,47.2498873 35.8748482,46.116616 35.8748482,44.7186434 L35.8748482,36.2811635 C35.8748482,34.8831909 34.7415768,33.7499195 33.3436042,33.7499195 L22.656164,33.7499195 C21.2581914,33.7499195 20.1249201,34.8831909 20.1249201,36.2811635 L20.1249201,44.7186434 C20.1249201,46.116616 21.2581914,47.2498873 22.656164,47.2498873 L33.3436042,47.2498873 Z" id="th"></path>
        </g>
    </g>
</svg>