<svg xmlns="http://www.w3.org/2000/svg" width="61" height="41" viewBox="0 0 61 41">
  <path fill="#151515" fill-rule="evenodd" d="M58.9334075,17.5251772 L48.7528135,2.25428616 C47.923176,1.00998447 46.0360726,0 44.5404593,0 L16.2093959,0 C14.7137825,0 12.8267822,1.00988147 11.9971447,2.25428616 L1.8164477,17.5251772 C2.67430622,17.1662341 4.12521905,16.8749598 5.05517517,16.8749598 L55.69468,16.8749598 C56.6246361,16.8749598 58.0755489,17.1662341 58.9334075,17.5251772 Z M55.6873672,40.4999034 C58.4833124,40.4999034 60.7498552,38.2333607 60.7498552,35.4374155 L60.7498552,25.3124397 C60.7498552,22.5164945 58.4833124,20.2499517 55.6873672,20.2499517 L5.06248793,20.2499517 C2.26654275,20.2499517 0,22.5164945 0,25.3124397 L0,35.4374155 C0,38.2333607 2.26654275,40.4999034 5.06248793,40.4999034 L55.6873672,40.4999034 Z M50.6248793,33.7499195 C48.7609502,33.7499195 47.2498873,32.2388567 47.2498873,30.3749276 C47.2498873,28.5109985 48.7609502,26.9999356 50.6248793,26.9999356 C52.4888084,26.9999356 53.9998713,28.5109985 53.9998713,30.3749276 C53.9998713,32.2388567 52.4888084,33.7499195 50.6248793,33.7499195 Z M40.4999034,33.7499195 C38.6359743,33.7499195 37.1249115,32.2388567 37.1249115,30.3749276 C37.1249115,28.5109985 38.6359743,26.9999356 40.4999034,26.9999356 C42.3638326,26.9999356 43.8748954,28.5109985 43.8748954,30.3749276 C43.8748954,32.2388567 42.3638326,33.7499195 40.4999034,33.7499195 Z"/>
</svg>
