<svg xmlns="http://www.w3.org/2000/svg" width="54" height="54" viewBox="0 0 54 54">
  <path fill="#151515" fill-rule="evenodd" d="M27.0052734,1.42108547e-14 C12.1130859,1.42108547e-14 0,12.1183594 0,27 C0,41.8869141 12.1183594,54 27.0052734,54 C41.8921875,54 54,41.8869141 54,27 C54,12.1130859 41.8921875,1.42108547e-14 27.0052734,1.42108547e-14 Z M27,50.625 C13.9693359,50.625 3.375,40.0359375 3.375,27 C3.375,13.9746094 13.9693359,3.375 27,3.375 C40.0253906,3.375 50.625,13.9693359 50.625,27 C50.625,40.0306641 40.0253906,50.625 27,50.625 Z M35.4375,28.6875 C31.7091797,28.6875 28.6875,31.7091797 28.6875,35.4375 C28.6875,39.1658203 31.7091797,42.1875 35.4375,42.1875 C39.1658203,42.1875 42.1875,39.1658203 42.1875,35.4375 C42.1875,31.7091797 39.1658203,28.6875 35.4375,28.6875 Z M35.4375,39.65625 C33.1119141,39.65625 31.21875,37.7630859 31.21875,35.4375 C31.21875,33.1119141 33.1119141,31.21875 35.4375,31.21875 C37.7630859,31.21875 39.65625,33.1119141 39.65625,35.4375 C39.65625,37.7630859 37.7630859,39.65625 35.4375,39.65625 Z M18.5625,28.6875 C14.8341797,28.6875 11.8125,31.7091797 11.8125,35.4375 C11.8125,39.1658203 14.8341797,42.1875 18.5625,42.1875 C22.2908203,42.1875 25.3125,39.1658203 25.3125,35.4375 C25.3125,31.7091797 22.2908203,28.6875 18.5625,28.6875 Z M18.5625,39.65625 C16.2369141,39.65625 14.34375,37.7630859 14.34375,35.4375 C14.34375,33.1119141 16.2369141,31.21875 18.5625,31.21875 C20.8880859,31.21875 22.78125,33.1119141 22.78125,35.4375 C22.78125,37.7630859 20.8880859,39.65625 18.5625,39.65625 Z M35.4375,11.8125 C31.7091797,11.8125 28.6875,14.8341797 28.6875,18.5625 C28.6875,22.2908203 31.7091797,25.3125 35.4375,25.3125 C39.1658203,25.3125 42.1875,22.2908203 42.1875,18.5625 C42.1875,14.8341797 39.1658203,11.8125 35.4375,11.8125 Z M35.4375,22.78125 C33.1119141,22.78125 31.21875,20.8880859 31.21875,18.5625 C31.21875,16.2369141 33.1119141,14.34375 35.4375,14.34375 C37.7630859,14.34375 39.65625,16.2369141 39.65625,18.5625 C39.65625,20.8880859 37.7630859,22.78125 35.4375,22.78125 Z M25.3125,18.5625 C25.3125,22.2908203 22.2908203,25.3125 18.5625,25.3125 C14.8341797,25.3125 11.8125,22.2908203 11.8125,18.5625 C11.8125,14.8341797 14.8341797,11.8125 18.5625,11.8125 C22.2908203,11.8125 25.3125,14.8341797 25.3125,18.5625"/>
</svg>
