<svg xmlns="http://www.w3.org/2000/svg" width="54" height="54" viewBox="0 0 54 54">
  <path fill="#151515" fill-rule="evenodd" d="M53.578125,33.7552734 L38.1796875,33.7552734 L36.6978516,32.0994141 C37.0089844,31.4982422 37.2673828,30.8601563 37.4677734,30.2009766 L41.8447266,29.9109375 C42.1822266,29.8634766 42.4458984,29.5259766 42.4458984,29.1884766 L42.4458984,24.6902344 C42.440625,24.3474609 42.1980469,24.0574219 41.8605469,23.9625 L37.4044922,23.7146484 C37.2041016,23.0818359 36.9404297,22.4701172 36.6345703,21.8900391 L39.571875,18.5361328 C39.7775391,18.2619141 39.7248047,17.8400391 39.4875,17.6027344 L36.3076172,14.4228516 C36.0703125,14.1855469 35.690625,14.1486328 35.3847656,14.3226563 L32.0255859,17.3285156 C31.4507812,17.0279297 30.8496094,16.7800781 30.2273438,16.5849609 L29.9320313,12.1078125 C29.8845703,11.7703125 29.5470703,11.5066406 29.2095703,11.5066406 L24.7113281,11.5066406 C24.3738281,11.5066406 24.0837891,11.7492188 23.9888672,12.0867187 L23.7410156,16.5691406 C23.0976562,16.7642578 22.4806641,17.0226563 21.8953125,17.3285156 L18.5150391,14.428125 C18.2408203,14.2224609 17.8189453,14.2751953 17.5816406,14.5125 L16.0470703,16.0470703 L12.6878906,12.6878906 C16.3529297,9.02285156 21.4154297,6.75 27,6.75 C37.8791016,6.75 46.7859375,15.3773438 47.2289063,26.1509766 C47.25,26.6044922 47.6244141,26.9578125 48.0726563,26.9578125 L53.1404297,26.9578125 C53.6150391,26.9578125 54,26.5623047 53.9841797,26.0876953 C53.5042969,11.6226563 41.5863281,0 27.0052734,0 C19.5591797,0 12.8091797,3.03222656 7.92070312,7.91542969 L0.722460937,0.7171875 C0.453515625,0.453515625 0,0.643359375 0,1.01777344 L0,19.8333984 C0,20.0654297 0.18984375,20.2552734 0.421875,20.2552734 L15.8150391,20.2552734 L17.3021484,21.8636719 C16.9804688,22.4648438 16.7115234,23.0976562 16.5005859,23.7568359 L12.1341797,24.0943359 C11.7966797,24.1417969 11.5330078,24.4792969 11.5330078,24.8167969 L11.5330078,29.3150391 C11.5330078,29.6525391 11.7755859,29.9425781 12.1130859,30.0375 L16.453125,30.2115234 C16.6587891,30.8970703 16.9277344,31.5509766 17.2546875,32.1732422 L14.4492188,35.4427734 C14.2435547,35.7169922 14.2962891,36.1388672 14.5335938,36.3761719 L17.7134766,39.5560547 C17.9507812,39.7933594 18.3304688,39.8302734 18.6363281,39.65625 L21.7951172,36.7400391 C22.4226562,37.0775391 23.0923828,37.3517578 23.7832031,37.5626953 L24.1101562,41.8236328 C24.1576172,42.1611328 24.4951172,42.4248047 24.8326172,42.4248047 L29.3308594,42.4248047 C29.6683594,42.4248047 29.9583984,42.1822266 30.0533203,41.8447266 L30.2220703,37.5310547 C30.8970703,37.3201172 31.5457031,37.0458984 32.1626953,36.7136719 L35.4058594,39.5560547 C35.6800781,39.7617188 36.1019531,39.7089844 36.3392578,39.4716797 L37.9107422,37.9001953 L41.3226563,41.3121094 C37.6523438,44.9771484 32.5898438,47.25 27.0052734,47.25 C16.1050781,47.25 7.19296875,38.6068359 6.77109375,27.8068359 C6.75,27.3533203 6.38085938,27 5.92734375,27 L0.859570313,27 C0.384960937,27 0,27.3955078 0.0158203125,27.8701172 C0.474609375,42.35625 12.4083984,54 27.0052734,54 C34.4460938,54 41.1960938,50.9730469 46.0845703,46.0845703 L53.2775391,53.2828125 C53.5464844,53.5464844 54,53.3566406 54,52.9822266 L54,34.171875 C54,33.9398438 53.8101562,33.75 53.578125,33.7552734 M26.9525391,33.7974609 C23.2242187,33.7974609 20.2025391,30.7757813 20.2025391,27.0474609 C20.2025391,23.3191406 23.2242187,20.2974609 26.9525391,20.2974609 C30.6808594,20.2974609 33.7025391,23.3191406 33.7025391,27.0474609 C33.7025391,30.7757813 30.6808594,33.7974609 26.9525391,33.7974609"/>
</svg>
