<svg xmlns="http://www.w3.org/2000/svg" width="54" height="46" viewBox="0 0 54 46">
  <path fill="#151515" fill-rule="evenodd" d="M27,31.1538462 C8.81394231,31.1538462 2.87524038,27.3829327 0.941105769,24.9230769 C0,23.7288462 0,24.9230769 0,24.9230769 L0,37.3846154 C0,41.9733173 12.0850962,45.6923077 27,45.6923077 C41.9149038,45.6923077 54,41.9733173 54,37.3846154 L54,24.9230769 C54,24.9230769 54,23.7288462 53.0588942,24.9230769 C51.1247596,27.3829327 45.1860577,31.1538462 27,31.1538462 L27,31.1538462 Z M54,16.5504808 C54,21.1391827 41.9149038,24.8581731 27,24.8581731 C12.0850962,24.8581731 0,21.1391827 0,16.5504808 L0,8.30769231 C0,3.71899038 12.0850962,0 27,0 C41.9149038,0 54,3.71899038 54,8.30769231 L54,16.5504808 Z"/>
</svg>
