<svg xmlns="http://www.w3.org/2000/svg" width="54" height="36" viewBox="0 0 54 36">
  <path fill="#151515" fill-rule="evenodd" d="M23.9863326,36 C25.6264237,36 27.1981777,35.8018223 28.7015945,35.405467 C30.2050114,35.0091116 31.6537585,34.4009112 33.047836,33.5808656 C34.4145786,32.7881549 35.6446469,31.8451025 36.738041,30.7517084 C37.8314351,29.6583144 38.7744875,28.4145786 39.5671982,27.0205011 C40.3872437,25.6537585 40.9954442,24.2186788 41.3917995,22.715262 C41.7881549,21.2118451 41.9863326,19.6400911 41.9863326,18 C41.9863326,16.9612756 41.904328,15.9430524 41.7403189,14.9453303 C41.5763098,13.9476082 41.3302961,12.9703872 41.0022779,12.0136674 L44.9794989,12.0136674 L44.9794989,18.0410023 L54,10.5375854 L44.9794989,2.99316629 L44.9794989,9.02050114 L39.6082005,9.02050114 L39.5671982,8.97949886 L39.5671982,8.97949886 C38.7744875,7.58542141 37.8314351,6.34851936 36.738041,5.26879271 C35.6446469,4.18906606 34.4009112,3.23917995 33.0068337,2.4191344 C31.6400911,1.62642369 30.2050114,1.02505695 28.7015945,0.615034169 C27.1981777,0.20501139 25.6264237,0 23.9863326,0 C22.3462415,0 20.7744875,0.20501139 19.2710706,0.615034169 C17.7676538,1.02505695 16.332574,1.62642369 14.9658314,2.4191344 C13.571754,3.23917995 12.3348519,4.19589977 11.2551253,5.28929385 C10.1753986,6.38268793 9.22551253,7.61275626 8.40546697,8.97949886 C7.61275626,10.3462415 7.01138952,11.7813212 6.60136674,13.284738 C6.19134396,14.7881549 5.98633257,16.3599089 5.98633257,18 C5.98633257,18.5193622 6.00683371,19.0250569 6.04783599,19.5170843 C6.08883827,20.0091116 6.15034169,20.501139 6.23234624,20.9931663 L0,20.9931663 L0,23.9863326 L7.01138952,23.9863326 C7.17539863,24.5056948 7.38041002,25.0182232 7.62642369,25.523918 C7.87243736,26.0296128 8.13211845,26.5284738 8.40546697,27.0205011 C9.22551253,28.4145786 10.1822323,29.6583144 11.2756264,30.7517084 C12.3690205,31.8451025 13.5990888,32.7881549 14.9658314,33.5808656 C16.332574,34.4009112 17.7744875,35.0091116 19.2915718,35.405467 C20.808656,35.8018223 22.3735763,36 23.9863326,36 Z M24.0273349,32.1457859 C23.070615,32.1457859 22.1343964,32.0501139 21.2186788,31.8587699 C20.3029613,31.667426 19.4214123,31.3940774 18.5740319,31.0387244 C17.6993166,30.6560364 16.8861048,30.2118451 16.1343964,29.7061503 C15.3826879,29.2004556 14.6924829,28.6332574 14.0637813,28.0045558 C13.4897494,27.4305239 12.9703872,26.808656 12.5056948,26.1389522 C12.0410023,25.4692483 11.6309795,24.7517084 11.2756264,23.9863326 L23.9863326,23.9863326 L23.9863326,30.0136674 L32.9658314,22.5102506 L23.9863326,14.9658314 L23.9863326,20.9931663 L10.2505695,20.9931663 C10.1412301,20.501139 10.0660592,20.0159453 10.0250569,19.5375854 C9.98405467,19.0592255 9.96355353,18.5603645 9.96355353,18.0410023 C9.96355353,17.0842825 10.0523918,16.1548975 10.2300683,15.2528474 C10.4077449,14.3507973 10.6879271,13.4624146 11.070615,12.5876993 C11.453303,11.7129841 11.8906606,10.8997722 12.3826879,10.1480638 C12.8747153,9.39635535 13.4350797,8.70615034 14.0637813,8.07744875 C14.6924829,7.44874715 15.3826879,6.88154897 16.1343964,6.37585421 C16.8861048,5.87015945 17.6993166,5.43963554 18.5740319,5.08428246 C19.4487472,4.70159453 20.3439636,4.41457859 21.2596811,4.22323462 C22.1753986,4.03189066 23.1116173,3.93621868 24.0683371,3.93621868 C24.9977221,3.93621868 25.9202733,4.03189066 26.8359909,4.22323462 C27.7517084,4.41457859 28.6469248,4.70159453 29.5216401,5.08428246 C30.3963554,5.43963554 31.2095672,5.87015945 31.9612756,6.37585421 C32.7129841,6.88154897 33.4031891,7.44874715 34.0318907,8.07744875 C34.1685649,8.21412301 34.3052392,8.36446469 34.4419134,8.5284738 C34.5785877,8.69248292 34.715262,8.8428246 34.8519362,8.97949886 L23.9863326,8.97949886 L23.9863326,12.0136674 L36.738041,12.0136674 C36.7927107,12.095672 36.8405467,12.1845103 36.881549,12.2801822 C36.9225513,12.3758542 36.9703872,12.4783599 37.0250569,12.5876993 C37.38041,13.4350797 37.6537585,14.3166287 37.8451025,15.2323462 C38.0364465,16.1480638 38.1321185,17.0842825 38.1321185,18.0410023 C38.1321185,18.9977221 38.0364465,19.9339408 37.8451025,20.8496583 C37.6537585,21.7653759 37.38041,22.6605923 37.0250569,23.5353075 C36.642369,24.3826879 36.1981777,25.1822323 35.6924829,25.9339408 C35.1867882,26.6856492 34.61959,27.3758542 33.9908884,28.0045558 C33.3621868,28.6332574 32.6719818,29.2004556 31.9202733,29.7061503 C31.1685649,30.2118451 30.3690205,30.6560364 29.5216401,31.0387244 C28.6469248,31.3940774 27.7517084,31.667426 26.8359909,31.8587699 C25.9202733,32.0501139 24.9840547,32.1457859 24.0273349,32.1457859 Z"/>
</svg>
