<svg xmlns="http://www.w3.org/2000/svg" width="48" height="55" viewBox="0 0 48 55">
  <path fill="#151515" fill-rule="evenodd" d="M23.6249437,27.9999356 C31.0815871,27.9999356 37.1249115,21.9566113 37.1249115,14.4999678 C37.1249115,7.04332437 31.0815871,1 23.6249437,1 C16.1683002,1 10.1249759,7.04332437 10.1249759,14.4999678 C10.1249759,21.9566113 16.1683002,27.9999356 23.6249437,27.9999356 Z M42.1873994,54.9998713 C44.9823146,54.9998713 47.2498873,52.7322985 47.2498873,49.9373833 L47.2498873,45.549935 C47.2498873,37.7241518 40.9006631,31.3749276 33.0748799,31.3749276 L31.3136384,31.3749276 C28.9722171,32.4507269 26.3671246,33.0624236 23.6249437,33.0624236 C20.8827627,33.0624236 18.2882788,32.4507269 15.9362489,31.3749276 L14.1750074,31.3749276 C6.34922421,31.3749276 3.55271368e-15,37.7241518 3.55271368e-15,45.549935 L3.55271368e-15,49.9373833 C3.55271368e-15,52.7322985 2.26757272,54.9998713 5.06248793,54.9998713 L42.1873994,54.9998713 Z"/>
</svg>
