<?xml version="1.0" encoding="UTF-8"?><svg version="1.1" width="75px" height="29px" viewBox="0 0 75.0 29.0" xmlns="http://www.w3.org/2000/svg" xmlns:xlink="http://www.w3.org/1999/xlink"><defs><clipPath id="i0"><path d="M61,0 C68.7319865,-1.42034288e-15 75,6.2680135 75,14 L75,15 C75,22.7319865 68.7319865,29 61,29 L14,29 C6.2680135,29 -2.60581843e-15,22.7319865 0,15 L0,14 C-9.46895252e-16,6.2680135 6.2680135,1.42034288e-15 14,0 L61,0 Z"></path></clipPath><clipPath id="i1"><path d="M0.737117917,0.215863667 C1.02516502,-0.0719545556 1.4918082,-0.0719545556 1.77960353,0.215863667 L4.12499589,2.56125602 L6.47038824,0.215863667 C6.75843535,-0.0719545556 7.22505563,-0.0719545556 7.51287386,0.215863667 L8.03412811,0.737117917 C8.32194633,1.02516502 8.32194633,1.4918082 8.03412811,1.77960353 L5.68873575,4.12499589 L8.03412811,6.47038824 C8.32194633,6.75843535 8.32194633,7.22505563 8.03412811,7.51287386 L7.51287386,8.03412811 C7.22505563,8.32194633 6.75818358,8.32194633 6.47038824,8.03412811 L4.12499589,5.68873575 L1.77960353,8.03412811 C1.4918082,8.32194633 1.02493614,8.32194633 0.737117917,8.03412811 L0.215863667,7.51287386 C-0.0719545556,7.22482675 -0.0719545556,6.75818358 0.215863667,6.47038824 L2.56125602,4.12499589 L0.215863667,1.77960353 C-0.0719545556,1.49155643 -0.0719545556,1.02493614 0.215863667,0.737117917 Z"></path></clipPath></defs><g clip-path="url(#i0)"><polygon points="0,0 75,0 75,29 0,29 0,0" stroke="none" fill="#FAEAE8"></polygon><path d="M14,0 L61,0 C68.7319865,-1.42034288e-15 75,6.2680135 75,14 L75,15 C75,22.7319865 68.7319865,29 61,29 L14,29 C6.2680135,29 -2.60581843e-15,22.7319865 0,15 L0,14 C-9.46895252e-16,6.2680135 6.2680135,1.42034288e-15 14,0 Z" stroke="#C9190A" stroke-width="2" fill="none" stroke-miterlimit="5"></path></g><g transform="translate(8.0 4.0)"><text transform="translate(0.0 14.0)" font-family="RedHatText-Regular, Red Hat Text" font-size="14.0" font-weight="normal" fill="#7C0F06" text-anchor="left" line-spacing="21.0">Label</text></g><g transform="translate(51.0 2.0)"><g transform="translate(8.0 8.0)"><g clip-path="url(#i1)"><polygon points="0,0 8.24999177,0 8.24999177,8.24999177 0,8.24999177 0,0" stroke="none" fill="#696E73"></polygon></g></g></g><g transform="translate(9.0 24.5)"><path d="M0,0.5 L33,0.5" stroke="#8A8D90" stroke-width="1" fill="none" stroke-miterlimit="10" stroke-dasharray=" 4.0 2.0"></path></g></svg>