<?xml version="1.0" encoding="UTF-8"?>
<svg width="62px" height="36px" viewBox="0 0 62 36" version="1.1" xmlns="http://www.w3.org/2000/svg" xmlns:xlink="http://www.w3.org/1999/xlink">
    <title></title>
    <g id="Toolbar" stroke="none" stroke-width="1" fill="none" fill-rule="evenodd">
        <g id="Pagination-/-Compact">
            <g id="Icons-/-Framework-/-angle-left" transform="translate(14.452190, 13.000780)" fill="#6A6E73">
                <path d="M5.5324209,9.78279833 L6.23865701,9.07341892 C6.53241852,8.78280072 6.53241852,8.30779574 6.23865701,8.01406476 L3.22618251,5.00155973 L6.23554423,1.98594192 C6.52927522,1.69532372 6.52927522,1.22031875 6.23554423,0.926557239 L5.5292776,0.22032113 C5.2386594,-0.0734403767 4.76365443,-0.0734403767 4.46992344,0.22032113 L0.21993357,4.470311 C-0.0738279369,4.7640725 -0.0738279369,5.23904696 0.223046355,5.53280846 L4.47303622,9.78279833 C4.76365443,10.0765598 5.2386594,10.0765598 5.5324209,9.78279833 Z" id="angle-left"></path>
            </g>
            <g id="Icons-/-Framework-/-angle-right" transform="translate(49.452516, 13.000780)" fill="#6A6E73">
                <path d="M1.98591903,9.78279833 L6.2359089,5.53280846 C6.52967041,5.23904696 6.52967041,4.7640725 6.23279611,4.470311 L1.98280625,0.22032113 C1.69218804,-0.0734403767 1.21718307,-0.0734403767 0.923421565,0.22032113 L0.220298242,0.932813328 C-0.0734327473,1.22343153 -0.0734327473,1.6984365 0.220298242,1.99219801 L3.23280327,5.00467252 L0.220298242,8.01717754 C-0.0734327473,8.30779574 -0.0734327473,8.78280072 0.220298242,9.07656222 L0.926564869,9.78279833 C1.21718307,10.0765598 1.69218804,10.0765598 1.98591903,9.78279833 Z" id="angle-right"></path>
            </g>
            <g id="ðŸ“-Padding" fill-opacity="0.9">
                <g id="Spacer-/-Horizontal-/-2.-pf-global--spacer--sm-(8px)" fill="#92D400" stroke="#7FB300">
                    <rect id="Rectangle-Copy" x="0.5" y="0.5" width="7" height="35"></rect>
                </g>
                <g id="Spacer-/-Horizontal-/-3.-pf-global--spacer--md-(16px)" transform="translate(27.000000, 0.000000)" fill="#3F9C35" stroke="#418A38">
                    <rect id="Rectangle-Copy-2" x="0.5" y="0.5" width="15" height="35"></rect>
                </g>
            </g>
        </g>
    </g>
</svg>