<?xml version="1.0" encoding="UTF-8"?>
<svg width="62px" height="36px" viewBox="0 0 62 36" version="1.1" xmlns="http://www.w3.org/2000/svg" xmlns:xlink="http://www.w3.org/1999/xlink">
    <title></title>
    <g id="Toolbar" stroke="none" stroke-width="1" fill="none" fill-rule="evenodd">
        <g id="Pagination-/-Compact">
            <g id="Icons-/-Framework-/-angle-left" transform="translate(8.000000, 0.000000)" fill="#6A6E73">
                <path d="M11.9846107,22.7835782 L12.6908468,22.0741988 C12.9846083,21.7835806 12.9846083,21.3085756 12.6908468,21.0148446 L9.67837228,18.0023396 L12.687734,14.9867218 C12.981465,14.6961036 12.981465,14.2210986 12.687734,13.9273371 L11.9814674,13.221101 C11.6908492,12.9273395 11.2158442,12.9273395 10.9221132,13.221101 L6.67212335,17.4710909 C6.37836184,17.7648524 6.37836184,18.2398268 6.67523613,18.5335883 L10.925226,22.7835782 C11.2158442,23.0773397 11.6908492,23.0773397 11.9846107,22.7835782 Z" id="angle-left"></path>
            </g>
            <g id="Icons-/-Framework-/-angle-right" transform="translate(43.000000, 0.000000)" fill="#6A6E73">
                <path d="M8.43843544,22.7835782 L12.6884253,18.5335883 C12.9821868,18.2398268 12.9821868,17.7648524 12.6853125,17.4710909 L8.43532266,13.221101 C8.14470445,12.9273395 7.66969948,12.9273395 7.37593797,13.221101 L6.67281465,13.9335932 C6.37908366,14.2242114 6.37908366,14.6992164 6.67281465,14.9929779 L9.68531968,18.0054524 L6.67281465,21.0179574 C6.37908366,21.3085756 6.37908366,21.7835806 6.67281465,22.0773421 L7.37908128,22.7835782 C7.66969948,23.0773397 8.14470445,23.0773397 8.43843544,22.7835782 Z" id="angle-right"></path>
            </g>
            <g id="ðŸ“-Padding" fill-opacity="0.9">
                <g id="Spacer-/-Horizontal-/-2.-pf-global--spacer--sm-(8px)" fill="#92D400" stroke="#7FB300">
                    <rect id="Rectangle-Copy" x="0.5" y="0.5" width="7" height="35"></rect>
                </g>
                <g id="Spacer-/-Horizontal-/-3.-pf-global--spacer--md-(16px)" transform="translate(27.000000, 0.000000)" fill="#3F9C35" stroke="#418A38">
                    <rect id="Rectangle-Copy-2" x="0.5" y="0.5" width="15" height="35"></rect>
                </g>
            </g>
        </g>
    </g>
</svg>