<?xml version="1.0" encoding="UTF-8"?><svg version="1.1" width="62px" height="36px" viewBox="0 0 62.0 36.0" xmlns="http://www.w3.org/2000/svg" xmlns:xlink="http://www.w3.org/1999/xlink"><defs><clipPath id="i0"><path d="M4.46992344,0.22032113 C4.76365443,-0.0734403767 5.2386594,-0.0734403767 5.5292776,0.22032113 L6.23554423,0.926557239 C6.52927522,1.22031875 6.52927522,1.69532372 6.23554423,1.98594192 L3.22618251,5.00155973 L6.23865701,8.01406476 C6.53241852,8.30779574 6.53241852,8.78280072 6.23865701,9.07341892 L5.5324209,9.78279833 C5.2386594,10.0765598 4.76365443,10.0765598 4.47303622,9.78279833 L0.223046355,5.53280846 C-0.0738279369,5.23904696 -0.0738279369,4.7640725 0.21993357,4.470311 Z"></path></clipPath><clipPath id="i1"><path d="M0.923421565,0.22032113 C1.21718307,-0.0734403767 1.69218804,-0.0734403767 1.98280625,0.22032113 L6.23279611,4.470311 C6.52967041,4.7640725 6.52967041,5.23904696 6.2359089,5.53280846 L1.98591903,9.78279833 C1.69218804,10.0765598 1.21718307,10.0765598 0.926564869,9.78279833 L0.220298242,9.07656222 C-0.0734327473,8.78280072 -0.0734327473,8.30779574 0.220298242,8.01717754 L3.23280327,5.00467252 L0.220298242,1.99219801 C-0.0734327473,1.6984365 -0.0734327473,1.22343153 0.220298242,0.932813328 Z"></path></clipPath><clipPath id="i2"><path d="M8,0 L8,36 L0,36 L0,0 L8,0 Z"></path></clipPath><clipPath id="i3"><path d="M16,0 L16,36 L0,36 L0,0 L16,0 Z"></path></clipPath></defs><g transform="translate(8.0 0.0)"><g transform="translate(6.452189776776876 13.000779865298682)"><g clip-path="url(#i0)"><polygon points="4.22994972e-14,0 6.45897814,0 6.45897814,10.0031195 4.22994972e-14,10.0031195 4.22994972e-14,0" stroke="none" fill="#696E73"></polygon></g></g></g><g transform="translate(43.0 0.0)"><g transform="translate(6.452516409451491 13.000779865298682)"><g clip-path="url(#i1)"><polygon points="-2.77555756e-17,0 6.45584247,0 6.45584247,10.0031195 -2.77555756e-17,10.0031195 -2.77555756e-17,0" stroke="none" fill="#696E73"></polygon></g></g></g><g clip-path="url(#i2)"><polygon points="0,0 8,0 8,36 0,36 0,0" stroke="none" fill="rgba(146, 211, 0, 0.9)"></polygon></g><g clip-path="url(#i2)"><polygon points="0,0 8,0 8,36 0,36 0,0 0,0" stroke="#7EB200" stroke-width="2" fill="none" stroke-miterlimit="5"></polygon></g><g transform="translate(27.0 0.0)"><g clip-path="url(#i3)"><polygon points="0,0 16,0 16,36 0,36 0,0" stroke="none" fill="rgba(62, 156, 52, 0.9)"></polygon></g><g clip-path="url(#i3)"><polygon points="0,0 16,0 16,36 0,36 0,0 0,0" stroke="#418A37" stroke-width="2" fill="none" stroke-miterlimit="5"></polygon></g></g></svg>