<?xml version="1.0" encoding="UTF-8"?><svg version="1.1" width="214px" height="36px" viewBox="0 0 214.0 36.0" xmlns="http://www.w3.org/2000/svg" xmlns:xlink="http://www.w3.org/1999/xlink"><defs><clipPath id="i0"><path d="M0.923421565,0.22032113 C1.21718307,-0.0734403767 1.69218804,-0.0734403767 1.98280625,0.22032113 L6.23279611,4.470311 C6.52967041,4.7640725 6.52967041,5.23904696 6.2359089,5.53280846 L1.98591903,9.78279833 C1.69218804,10.0765598 1.21718307,10.0765598 0.926564869,9.78279833 L0.220298242,9.07656222 C-0.0734327473,8.78280072 -0.0734327473,8.30779574 0.220298242,8.01717754 L3.23280327,5.00467252 L0.220298242,1.99219801 C-0.0734327473,1.6984365 -0.0734327473,1.22343153 0.220298242,0.932813328 Z"></path></clipPath><clipPath id="i1"><path d="M4.46992344,0.22032113 C4.76365443,-0.0734403767 5.2386594,-0.0734403767 5.5292776,0.22032113 L6.23554423,0.926557239 C6.52927522,1.22031875 6.52927522,1.69532372 6.23554423,1.98594192 L3.22618251,5.00155973 L6.23865701,8.01406476 C6.53241852,8.30779574 6.53241852,8.78280072 6.23865701,9.07341892 L5.5324209,9.78279833 C5.2386594,10.0765598 4.76365443,10.0765598 4.47303622,9.78279833 L0.223046355,5.53280846 C-0.0738279369,5.23904696 -0.0738279369,4.7640725 0.21993357,4.470311 Z"></path></clipPath><clipPath id="i2"><path d="M10.4699091,0.22032113 C10.7636401,-0.0734403767 11.2386451,-0.0734403767 11.5292633,0.22032113 L12.2355299,0.926557239 C12.5292609,1.22031875 12.5292609,1.69532372 12.2355299,1.98594192 L9.2261682,5.00155973 L12.2386427,8.01406476 C12.5324042,8.30779574 12.5324042,8.78280072 12.2386427,9.07341892 L11.5324066,9.78279833 C11.2386451,10.0765598 10.7636401,10.0765598 10.4730219,9.78279833 L6.22303205,5.53280846 C5.92615776,5.23904696 5.92615776,4.7640725 6.21991926,4.470311 Z M4.47303622,0.22032113 C4.76365443,-0.0734403767 5.2386594,-0.0734403767 5.5324209,0.22032113 L6.23865701,0.929700542 C6.53241852,1.22031875 6.53241852,1.69532372 6.23865701,1.98905471 L3.22618251,5.00155973 L6.23554423,8.01717754 C6.52927522,8.30779574 6.52927522,8.78280072 6.23554423,9.07656222 L5.5292776,9.78279833 C5.2386594,10.0765598 4.76365443,10.0765598 4.46992344,9.78279833 L0.21993357,5.53280846 C-0.0738279369,5.23904696 -0.0738279369,4.7640725 0.223046355,4.470311 Z"></path></clipPath><clipPath id="i3"><path d="M0.923421565,0.22032113 C1.21718307,-0.0734403767 1.69218804,-0.0734403767 1.98280625,0.22032113 L6.23279611,4.470311 C6.52967041,4.7640725 6.52967041,5.23904696 6.2359089,5.53280846 L1.98591903,9.78279833 C1.69218804,10.0765598 1.21718307,10.0765598 0.926564869,9.78279833 L0.220298242,9.07656222 C-0.0734327473,8.78280072 -0.0734327473,8.30779574 0.220298242,8.01717754 L3.23280327,5.00467252 L0.220298242,1.99219801 C-0.0734327473,1.6984365 -0.0734327473,1.22343153 0.220298242,0.932813328 Z M6.92655056,0.22032113 C7.21716877,-0.0734403767 7.69217374,-0.0734403767 7.98590473,0.22032113 L12.2358946,4.470311 C12.5296561,4.7640725 12.5296561,5.23904696 12.2358946,5.52655238 L7.98590473,9.77654224 C7.69528652,10.0703037 7.22028155,10.0703037 6.92655056,9.77654224 L6.22028394,9.07030613 C5.92655295,8.77968793 5.92655295,8.30468296 6.22028394,8.01092145 L9.23278896,4.99844695 L6.22028394,1.98594192 C5.92655295,1.69532372 5.92655295,1.22031875 6.22028394,0.926557239 Z"></path></clipPath><clipPath id="i4"><path d="M48,0 L48,36 L0,36 L0,0 L48,0 Z"></path></clipPath><clipPath id="i5"><path d="M8,0 L8,36 L0,36 L0,0 L8,0 Z"></path></clipPath><clipPath id="i6"><path d="M32,0 L32,6 L0,6 L0,0 L32,0 Z"></path></clipPath></defs><g transform="translate(162.0 0.0)"><g transform="translate(6.9620131275611925 13.000779865298682)"><g clip-path="url(#i0)"><polygon points="-2.77555756e-17,0 6.45584247,0 6.45584247,10.0031195 -2.77555756e-17,10.0031195 -2.77555756e-17,0" stroke="none" fill="#696E73"></polygon></g></g></g><g transform="translate(33.0 0.0)"><g transform="translate(6.452189776776876 13.000779865298682)"><g clip-path="url(#i1)"><polygon points="4.22994972e-14,0 6.45897814,0 6.45897814,10.0031195 4.22994972e-14,10.0031195 4.22994972e-14,0" stroke="none" fill="#696E73"></polygon></g></g></g><g transform="translate(8.038246986485646 13.000779865298682)"><g clip-path="url(#i2)"><polygon points="-2.77555756e-17,0 12.4589638,0 12.4589638,10.0031195 -2.77555756e-17,10.0031195 -2.77555756e-17,0" stroke="none" fill="#696E73"></polygon></g></g><g transform="translate(186.0 0.0)"><g transform="translate(8.038017977029995 13.000779865298682)"><g clip-path="url(#i3)"><polygon points="0,0 12.4562157,0 12.4562157,10.0031195 0,10.0031195 0,0" stroke="none" fill="#696E73"></polygon></g></g></g><g transform="translate(120.0 9.0)"><text transform="translate(0.0 14.0)" font-family="RedHatText-Regular, Red Hat Text" font-size="14.0" font-weight="normal" fill="#141514" text-anchor="left" line-spacing="21.0">of 4</text></g><g transform="translate(68.0 0.0)"><g clip-path="url(#i4)"><polygon points="0,0 48,0 48,36 0,36 0,0" stroke="none" fill="#FFFFFF"></polygon><g transform="translate(-1.0 0.0)"><polygon points="49,0 49,36 48,36 48,0 49,0 49,0" stroke="none" fill="#F0F0F0"></polygon></g><g transform="translate(0.0 1.0)"><polygon points="48,0 0,0 0,-1 48,-1 48,0 48,0" stroke="none" fill="#F0F0F0"></polygon></g><g transform="translate(1.0 0.0)"><polygon points="0,0 0,36 -1,36 -1,0 0,0 0,0" stroke="none" fill="#F0F0F0"></polygon></g><g transform="translate(0.0 -1.0)"><polygon points="48,36 48,37 0,37 0,36 48,36 48,36" stroke="none" fill="#8A8D90"></polygon></g></g><g transform="translate(8.0 6.0)"><text transform="translate(0.0 16.0)" font-family="RedHatText-Regular, Red Hat Text" font-size="16.0" font-weight="normal" fill="#151515" text-anchor="left" line-spacing="24.0">1</text></g><g clip-path="url(#i5)"><polygon points="0,0 8,0 8,36 0,36 0,0" stroke="none" fill="rgba(146, 211, 0, 0.9)"></polygon></g><g clip-path="url(#i5)"><polygon points="0,0 8,0 8,36 0,36 0,0 0,0" stroke="#7EB200" stroke-width="2" fill="none" stroke-miterlimit="5"></polygon></g><g transform="translate(40.0 0.0)"><g clip-path="url(#i5)"><polygon points="0,0 8,0 8,36 0,36 0,0" stroke="none" fill="rgba(146, 211, 0, 0.9)"></polygon></g><g clip-path="url(#i5)"><polygon points="0,0 8,0 8,36 0,36 0,0 0,0" stroke="#7EB200" stroke-width="2" fill="none" stroke-miterlimit="5"></polygon></g></g><g transform="translate(8.0 30.0)"><g clip-path="url(#i6)"><polygon points="0,0 32,0 32,6 0,6 0,0" stroke="none" fill="rgba(243, 213, 59, 0.9)"></polygon></g><g clip-path="url(#i6)"><polygon points="0,0 32,0 32,6 0,6 0,0 0,0" stroke="#CAB534" stroke-width="2" fill="none" stroke-miterlimit="5"></polygon></g></g><g transform="translate(8.0 0.0)"><g clip-path="url(#i6)"><polygon points="0,0 32,0 32,6 0,6 0,0" stroke="none" fill="rgba(243, 213, 59, 0.9)"></polygon></g><g clip-path="url(#i6)"><polygon points="0,0 32,0 32,6 0,6 0,0 0,0" stroke="#CAB534" stroke-width="2" fill="none" stroke-miterlimit="5"></polygon></g></g></g></svg>