<?xml version="1.0" encoding="UTF-8"?>
<svg width="214px" height="36px" viewBox="0 0 214 36" version="1.1" xmlns="http://www.w3.org/2000/svg" xmlns:xlink="http://www.w3.org/1999/xlink">
    <title></title>
    <defs>
        <rect id="path-1" x="0" y="0" width="48" height="36"></rect>
        <filter x="-1.0%" y="-1.4%" width="102.1%" height="102.8%" filterUnits="objectBoundingBox" id="filter-2">
            <feOffset dx="-1" dy="0" in="SourceAlpha" result="shadowOffsetInner1"></feOffset>
            <feComposite in="shadowOffsetInner1" in2="SourceAlpha" operator="arithmetic" k2="-1" k3="1" result="shadowInnerInner1"></feComposite>
            <feColorMatrix values="0 0 0 0 0.941176471   0 0 0 0 0.941176471   0 0 0 0 0.941176471  0 0 0 1 0" type="matrix" in="shadowInnerInner1" result="shadowMatrixInner1"></feColorMatrix>
            <feOffset dx="0" dy="1" in="SourceAlpha" result="shadowOffsetInner2"></feOffset>
            <feComposite in="shadowOffsetInner2" in2="SourceAlpha" operator="arithmetic" k2="-1" k3="1" result="shadowInnerInner2"></feComposite>
            <feColorMatrix values="0 0 0 0 0.941176471   0 0 0 0 0.941176471   0 0 0 0 0.941176471  0 0 0 1 0" type="matrix" in="shadowInnerInner2" result="shadowMatrixInner2"></feColorMatrix>
            <feOffset dx="1" dy="0" in="SourceAlpha" result="shadowOffsetInner3"></feOffset>
            <feComposite in="shadowOffsetInner3" in2="SourceAlpha" operator="arithmetic" k2="-1" k3="1" result="shadowInnerInner3"></feComposite>
            <feColorMatrix values="0 0 0 0 0.941176471   0 0 0 0 0.941176471   0 0 0 0 0.941176471  0 0 0 1 0" type="matrix" in="shadowInnerInner3" result="shadowMatrixInner3"></feColorMatrix>
            <feOffset dx="0" dy="-1" in="SourceAlpha" result="shadowOffsetInner4"></feOffset>
            <feComposite in="shadowOffsetInner4" in2="SourceAlpha" operator="arithmetic" k2="-1" k3="1" result="shadowInnerInner4"></feComposite>
            <feColorMatrix values="0 0 0 0 0.541176471   0 0 0 0 0.552941176   0 0 0 0 0.564705882  0 0 0 1 0" type="matrix" in="shadowInnerInner4" result="shadowMatrixInner4"></feColorMatrix>
            <feMerge>
                <feMergeNode in="shadowMatrixInner1"></feMergeNode>
                <feMergeNode in="shadowMatrixInner2"></feMergeNode>
                <feMergeNode in="shadowMatrixInner3"></feMergeNode>
                <feMergeNode in="shadowMatrixInner4"></feMergeNode>
            </feMerge>
        </filter>
    </defs>
    <g id="Toolbar" stroke="none" stroke-width="1" fill="none" fill-rule="evenodd">
        <g id="Pagination-/-Full">
            <g id="Button-/-6.-Icon-button-/-Default" transform="translate(168.962013, 13.000780)" fill="#6A6E73">
                <path d="M1.98591903,9.78279833 L6.2359089,5.53280846 C6.52967041,5.23904696 6.52967041,4.7640725 6.23279611,4.470311 L1.98280625,0.22032113 C1.69218804,-0.0734403767 1.21718307,-0.0734403767 0.923421565,0.22032113 L0.220298242,0.932813328 C-0.0734327473,1.22343153 -0.0734327473,1.6984365 0.220298242,1.99219801 L3.23280327,5.00467252 L0.220298242,8.01717754 C-0.0734327473,8.30779574 -0.0734327473,8.78280072 0.220298242,9.07656222 L0.926564869,9.78279833 C1.21718307,10.0765598 1.69218804,10.0765598 1.98591903,9.78279833 Z" id="angle-right"></path>
            </g>
            <g id="Button-/-6.-Icon-button-/-Default" transform="translate(39.452190, 13.000780)" fill="#6A6E73">
                <path d="M5.5324209,9.78279833 L6.23865701,9.07341892 C6.53241852,8.78280072 6.53241852,8.30779574 6.23865701,8.01406476 L3.22618251,5.00155973 L6.23554423,1.98594192 C6.52927522,1.69532372 6.52927522,1.22031875 6.23554423,0.926557239 L5.5292776,0.22032113 C5.2386594,-0.0734403767 4.76365443,-0.0734403767 4.46992344,0.22032113 L0.21993357,4.470311 C-0.0738279369,4.7640725 -0.0738279369,5.23904696 0.223046355,5.53280846 L4.47303622,9.78279833 C4.76365443,10.0765598 5.2386594,10.0765598 5.5324209,9.78279833 Z" id="angle-left"></path>
            </g>
            <g id="Button-/-6.-Icon-button-/-Default" transform="translate(8.038247, 13.000780)" fill="#6A6E73">
                <path d="M11.5324066,9.78279833 L12.2386427,9.07341892 C12.5324042,8.78280072 12.5324042,8.30779574 12.2386427,8.01406476 L9.2261682,5.00155973 L12.2355299,1.98594192 C12.5292609,1.69532372 12.5292609,1.22031875 12.2355299,0.926557239 L11.5292633,0.22032113 C11.2386451,-0.0734403767 10.7636401,-0.0734403767 10.4699091,0.22032113 L6.21991926,4.470311 C5.92615776,4.7640725 5.92615776,5.23904696 6.22303205,5.53280846 L10.4730219,9.78279833 C10.7636401,10.0765598 11.2386451,10.0765598 11.5324066,9.78279833 Z M5.5292776,9.78279833 L6.23554423,9.07656222 C6.52927522,8.78280072 6.52927522,8.30779574 6.23554423,8.01717754 L3.22618251,5.00155973 L6.23865701,1.98905471 C6.53241852,1.69532372 6.53241852,1.22031875 6.23865701,0.929700542 L5.5324209,0.22032113 C5.2386594,-0.0734403767 4.76365443,-0.0734403767 4.47303622,0.22032113 L0.223046355,4.470311 C-0.0738279369,4.7640725 -0.0738279369,5.23904696 0.21993357,5.53280846 L4.46992344,9.78279833 C4.76365443,10.0765598 5.2386594,10.0765598 5.5292776,9.78279833 Z" id="angle-double-left"></path>
            </g>
            <g id="Button-/-6.-Icon-button-/-Default" transform="translate(194.038018, 13.000780)" fill="#6A6E73">
                <path d="M1.98591903,9.78279833 L6.2359089,5.53280846 C6.52967041,5.23904696 6.52967041,4.7640725 6.23279611,4.470311 L1.98280625,0.22032113 C1.69218804,-0.0734403767 1.21718307,-0.0734403767 0.923421565,0.22032113 L0.220298242,0.932813328 C-0.0734327473,1.22343153 -0.0734327473,1.6984365 0.220298242,1.99219801 L3.23280327,5.00467252 L0.220298242,8.01717754 C-0.0734327473,8.30779574 -0.0734327473,8.78280072 0.220298242,9.07656222 L0.926564869,9.78279833 C1.21718307,10.0765598 1.69218804,10.0765598 1.98591903,9.78279833 Z M7.98590473,9.77654224 L12.2358946,5.52655238 C12.5296561,5.23904696 12.5296561,4.7640725 12.2358946,4.470311 L7.98590473,0.22032113 C7.69217374,-0.0734403767 7.21716877,-0.0734403767 6.92655056,0.22032113 L6.22028394,0.926557239 C5.92655295,1.22031875 5.92655295,1.69532372 6.22028394,1.98594192 L9.23278896,4.99844695 L6.22028394,8.01092145 C5.92655295,8.30468296 5.92655295,8.77968793 6.22028394,9.07030613 L6.92655056,9.77654224 C7.22028155,10.0703037 7.69528652,10.0703037 7.98590473,9.77654224 Z" id="angle-double-right"></path>
            </g>
            <text id="âœï¸-Total-#" font-family="RedHatText-Regular, Red Hat Text" font-size="14" font-weight="normal" line-spacing="21" fill="#151515">
                <tspan x="120" y="23">of 4</tspan>
            </text>
            <g id="Forms-/-4.-Text-Box-/-Default" transform="translate(68.000000, 0.000000)">
                <g id="Background">
                    <use fill="#FFFFFF" fill-rule="evenodd" xlink:href="#path-1"></use>
                    <use fill="black" fill-opacity="1" filter="url(#filter-2)" xlink:href="#path-1"></use>
                </g>
                <text id="âœï¸-Content" font-family="RedHatText-Regular, Red Hat Text" font-size="16" font-weight="normal" line-spacing="24" fill="#151515">
                    <tspan x="8" y="22">1</tspan>
                </text>
                <g id="ðŸ“-Padding" fill-opacity="0.9">
                    <g id="Spacer-/-Horizontal-/-2.-pf-global--spacer--sm-(8px)" fill="#92D400" stroke="#7FB300">
                        <rect id="Rectangle-Copy" x="0.5" y="0.5" width="7" height="35"></rect>
                    </g>
                    <g id="Spacer-/-Horizontal-/-2.-pf-global--spacer--sm-(8px)" transform="translate(40.000000, 0.000000)" fill="#92D400" stroke="#7FB300">
                        <rect id="Rectangle-Copy" x="0.5" y="0.5" width="7" height="35"></rect>
                    </g>
                    <g id="Spacer-/-Vertical-/-8.-pf-global--spacer--form-element-(6px)" transform="translate(8.000000, 30.000000)" fill="#F3D53C" stroke="#CBB534">
                        <rect id="Rectangle" x="0.5" y="0.5" width="31" height="5"></rect>
                    </g>
                    <g id="Spacer-/-Vertical-/-8.-pf-global--spacer--form-element-(6px)" transform="translate(8.000000, 0.000000)" fill="#F3D53C" stroke="#CBB534">
                        <rect id="Rectangle" x="0.5" y="0.5" width="31" height="5"></rect>
                    </g>
                </g>
            </g>
        </g>
    </g>
</svg>