<?xml version="1.0" encoding="UTF-8"?>
<svg width="789px" height="571px" viewBox="0 0 789 571" version="1.1" xmlns="http://www.w3.org/2000/svg" xmlns:xlink="http://www.w3.org/1999/xlink">
    <title></title>
    <g id="Code-editor" stroke="none" stroke-width="1" fill="none" fill-rule="evenodd">
        <g id="Code-editor-/-Code-area-/-2.-Editable-/-2.-With-text">
            <rect id="Rectangle" stroke="#D2D2D2" fill="#FFFFFF" x="0.5" y="36.5" width="788" height="534"></rect>
            <g id="Code-editor/Language-tab" transform="translate(705.000000, 0.062327)">
                <rect id="Rectangle" fill="#FFFFFF" x="1" y="15" width="82" height="23"></rect>
                <rect id="Rectangle" fill="#FFFFFF" x="0" y="0" width="84" height="36"></rect>
                <line x1="0.5" y1="0.5" x2="0.5" y2="35.5" id="Line" stroke="#D2D2D2" stroke-linecap="square"></line>
                <line x1="83.5" y1="0.5" x2="83.5" y2="35.5" id="Line" stroke="#D2D2D2" stroke-linecap="square"></line>
                <line x1="83.5" y1="0.526315789" x2="0.5" y2="0.526315789" id="Line" stroke="#D2D2D2" stroke-linecap="square"></line>
                <text id="HTML" font-family="LiberationMono, Liberation Mono" font-size="16" font-weight="normal" fill="#6A6E73">
                    <tspan x="37" y="22">HTML</tspan>
                </text>
                <g id="Icons/1.-Size-md-(16px)/Object/code" transform="translate(10.000000, 10.062327)" fill="#6A6E73">
                    <path d="M9.1820002,15.726918 L13.447615,1.03319688 C13.5038588,0.833215672 13.3913713,0.623835068 13.1913595,0.567591305 L11.2851141,0.0144615207 C11.0851329,-0.0417822417 10.8757523,0.0707052831 10.8195085,0.270717013 L6.55389368,14.9644381 C6.49764991,15.1644193 6.61013744,15.3737999 6.81014917,15.4300437 L8.71639462,15.9831734 C8.91637584,16.0425605 9.12264366,15.9269297 9.1820002,15.726918 Z M5.15390312,12.4769257 L6.51327488,11.0269475 C6.65701233,10.8738106 6.64764345,10.6300673 6.48825052,10.4894426 L3.65701948,7.99881748 L6.48825052,5.50819232 C6.64764345,5.36756765 6.66012511,5.12382434 6.51327488,4.9706875 L5.15390312,3.52070926 C5.01327845,3.37071573 4.77576071,3.36131633 4.62265438,3.5050843 L0.11952181,7.72382424 C-0.0398406033,7.870705 -0.0398406033,8.12381719 0.11952181,8.27069794 L4.62265438,12.4925507 C4.77576071,12.6363186 5.01327845,12.6300625 5.15390312,12.4769257 Z M15.3788543,12.495694 L19.8819869,8.27381073 C20.0413493,8.12692997 20.0413493,7.87381778 19.8819869,7.72693703 L15.3788543,3.501941 C15.2288608,3.36131633 14.9913736,3.36757242 14.8476056,3.51756596 L13.4882338,4.96757471 C13.3444964,5.12071155 13.3538653,5.36445487 13.5132582,5.50507953 L16.3444892,7.99881748 L13.5132582,10.4894426 C13.3538653,10.6300673 13.3413836,10.8738106 13.4882338,11.0269475 L14.8476056,12.4769257 C14.9882303,12.6300625 15.225748,12.6363186 15.3788543,12.495694 Z" id="code"></path>
                </g>
            </g>
            <text id="1-code-goes-here" font-family="LiberationMono, Liberation Mono" font-size="14" font-weight="normal" fill="#151515">
                <tspan x="24" y="56">1	code goes here</tspan>
            </text>
        </g>
    </g>
</svg>