<?xml version="1.0" encoding="UTF-8"?>
<svg width="789px" height="571px" viewBox="0 0 789 571" version="1.1" xmlns="http://www.w3.org/2000/svg" xmlns:xlink="http://www.w3.org/1999/xlink">
    <title></title>
    <g id="Code-editor" stroke="none" stroke-width="1" fill="none" fill-rule="evenodd">
        <g id="Code-editor-/-Code-area-/-2.-Editable-/-3.-Empty-state">
            <rect id="Rectangle" stroke="#D2D2D2" fill="#FFFFFF" x="0.5" y="36.5" width="788" height="534"></rect>
            <g id="Code-editor/Language-tab" transform="translate(705.000000, 0.062327)">
                <rect id="Rectangle" fill="#FFFFFF" x="1" y="15" width="82" height="23"></rect>
                <rect id="Rectangle" fill="#FFFFFF" x="0" y="0" width="84" height="36"></rect>
                <line x1="0.5" y1="0.5" x2="0.5" y2="35.5" id="Line" stroke="#D2D2D2" stroke-linecap="square"></line>
                <line x1="83.5" y1="0.5" x2="83.5" y2="35.5" id="Line" stroke="#D2D2D2" stroke-linecap="square"></line>
                <line x1="83.5" y1="0.526315789" x2="0.5" y2="0.526315789" id="Line" stroke="#D2D2D2" stroke-linecap="square"></line>
                <text id="HTML" font-family="LiberationMono, Liberation Mono" font-size="16" font-weight="normal" fill="#6A6E73">
                    <tspan x="37" y="22">HTML</tspan>
                </text>
                <g id="Icons/1.-Size-md-(16px)/Object/code" transform="translate(10.000000, 10.062327)" fill="#6A6E73">
                    <path d="M9.1820002,15.726918 L13.447615,1.03319688 C13.5038588,0.833215672 13.3913713,0.623835068 13.1913595,0.567591305 L11.2851141,0.0144615207 C11.0851329,-0.0417822417 10.8757523,0.0707052831 10.8195085,0.270717013 L6.55389368,14.9644381 C6.49764991,15.1644193 6.61013744,15.3737999 6.81014917,15.4300437 L8.71639462,15.9831734 C8.91637584,16.0425605 9.12264366,15.9269297 9.1820002,15.726918 Z M5.15390312,12.4769257 L6.51327488,11.0269475 C6.65701233,10.8738106 6.64764345,10.6300673 6.48825052,10.4894426 L3.65701948,7.99881748 L6.48825052,5.50819232 C6.64764345,5.36756765 6.66012511,5.12382434 6.51327488,4.9706875 L5.15390312,3.52070926 C5.01327845,3.37071573 4.77576071,3.36131633 4.62265438,3.5050843 L0.11952181,7.72382424 C-0.0398406033,7.870705 -0.0398406033,8.12381719 0.11952181,8.27069794 L4.62265438,12.4925507 C4.77576071,12.6363186 5.01327845,12.6300625 5.15390312,12.4769257 Z M15.3788543,12.495694 L19.8819869,8.27381073 C20.0413493,8.12692997 20.0413493,7.87381778 19.8819869,7.72693703 L15.3788543,3.501941 C15.2288608,3.36131633 14.9913736,3.36757242 14.8476056,3.51756596 L13.4882338,4.96757471 C13.3444964,5.12071155 13.3538653,5.36445487 13.5132582,5.50507953 L16.3444892,7.99881748 L13.5132582,10.4894426 C13.3538653,10.6300673 13.3413836,10.8738106 13.4882338,11.0269475 L14.8476056,12.4769257 C14.9882303,12.6300625 15.225748,12.6363186 15.3788543,12.495694 Z" id="code"></path>
                </g>
            </g>
            <g id="Group" transform="translate(211.000000, 165.000000)">
                <g id="Icons/4.-Size-xl-(54px)/Object/code" transform="translate(150.000000, 1.000000)" fill="#6A6E73">
                    <path d="M30.9892507,53.0783481 L45.3857007,3.48703949 C45.5755234,2.81210289 45.195878,2.10544335 44.5208384,1.91562066 L38.08726,0.0488076325 C37.4123234,-0.141015066 36.7056639,0.238630331 36.5158412,0.91366992 L22.1193912,50.5049785 C21.9295685,51.1799151 22.3092139,51.8865747 22.9842534,52.0763974 L29.4178319,53.9432104 C30.0927684,54.1436417 30.7889223,53.7533877 30.9892507,53.0783481 Z M51.9036333,42.1729671 L67.1017058,27.9241112 C67.6395539,27.4283887 67.6395539,26.574135 67.1017058,26.0784125 L51.9036333,11.8190509 C51.3974052,11.3444426 50.5958858,11.3655569 50.1106689,11.8717851 L45.5227892,16.7655647 C45.0376753,17.2824015 45.0692952,18.1050352 45.6072464,18.5796434 L55.1626512,26.996009 L45.6072464,35.4018689 C45.0692952,35.8764772 45.0271696,36.6991109 45.5227892,37.2159477 L50.1106689,42.1096243 C50.5852771,42.6264611 51.3868995,42.6475754 51.9036333,42.1729671 Z M17.394423,42.1096243 L21.9823027,37.2159477 C22.4674166,36.6991109 22.4357967,35.8764772 21.8978455,35.4018689 L12.3424407,26.996009 L21.8978455,18.5901491 C22.4357967,18.1155408 22.4779223,17.2929071 21.9823027,16.7760703 L17.394423,11.8823938 C16.9198148,11.3761656 16.1181924,11.3444426 15.6014585,11.8296595 L0.403386108,26.0679068 C-0.134462036,26.5636294 -0.134462036,27.417883 0.403386108,27.9136055 L15.6014585,42.1623585 C16.1181924,42.6475754 16.9198148,42.6264611 17.394423,42.1096243 Z" id="code"></path>
                </g>
                <text id="Start-editing" font-family="RedHatDisplay-Medium, Red Hat Display" font-size="20" font-weight="500" line-spacing="30" fill="#151515">
                    <tspan x="127.22" y="99">Start editing</tspan>
                </text>
                <text id="Drag-a-file-here,-up" font-family="RedHatText-Regular, Red Hat Text" font-size="16" font-weight="normal" line-spacing="24" fill="#6A6E73">
                    <tspan x="2.068" y="141">Drag a file here, upload files, or start from scratch.</tspan>
                </text>
                <g id="Button-/-1.-Primary-/-Default" transform="translate(125.000000, 181.000000)">
                    <rect id="Background" fill="#0066CC" x="0" y="0" width="117" height="36" rx="3"></rect>
                    <text id="âœï¸-Label" font-family="RedHatText-Regular, Red Hat Text" font-size="16" font-weight="normal" line-spacing="24" fill="#FFFFFF">
                        <tspan x="16.38" y="22">Upload files</tspan>
                    </text>
                </g>
                <g id="Button-/-5.-Link-button-/-Default" transform="translate(102.000000, 225.000000)">
                    <rect id="Background" x="0" y="0" width="163" height="36" rx="3"></rect>
                    <text id="âœï¸-Label" font-family="RedHatText-Regular, Red Hat Text" font-size="16" font-weight="normal" line-spacing="24" fill="#0066CC">
                        <tspan x="16" y="22">Start from scratch</tspan>
                    </text>
                    <g id="ðŸ“-Padding" fill-opacity="0.9">
                        <g id="Spacer-/-Horizontal-/-3.-pf-global--spacer--md-(16px)" fill="#3F9C35" stroke="#418A38">
                            <rect id="Rectangle-Copy-2" x="0.5" y="0.5" width="15" height="35"></rect>
                        </g>
                        <g id="Spacer-/-Horizontal-/-3.-pf-global--spacer--md-(16px)" transform="translate(147.000000, 0.000000)" fill="#3F9C35" stroke="#418A38">
                            <rect id="Rectangle-Copy-2" x="0.5" y="0.5" width="15" height="35"></rect>
                        </g>
                        <g id="Spacer-/-Vertical-/-8.-pf-global--spacer--form-element-(6px)" transform="translate(16.000000, 0.000000)" fill="#F3D53C" stroke="#CBB534">
                            <rect id="Rectangle" x="0.5" y="0.5" width="130" height="5"></rect>
                        </g>
                        <g id="Spacer-/-Vertical-/-8.-pf-global--spacer--form-element-(6px)" transform="translate(16.000000, 30.000000)" fill="#F3D53C" stroke="#CBB534">
                            <rect id="Rectangle" x="0.5" y="0.5" width="130" height="5"></rect>
                        </g>
                    </g>
                </g>
            </g>
        </g>
    </g>
</svg>