<?xml version="1.0" encoding="UTF-8"?><svg version="1.1" width="789px" height="571px" viewBox="0 0 789.0 571.0" xmlns="http://www.w3.org/2000/svg" xmlns:xlink="http://www.w3.org/1999/xlink"><defs><clipPath id="i0"><path d="M789,0 L789,535 L0,535 L0,0 L789,0 Z"></path></clipPath><clipPath id="i1"><path d="M84,0 L84,36 L0,36 L0,0 L84,0 Z"></path></clipPath><clipPath id="i2"><path d="M11.209998,0.00112078134 L11.2851141,0.0144615207 L13.1913595,0.567591305 C13.3913713,0.623835068 13.5038588,0.833215672 13.447615,1.03319688 L9.1820002,15.726918 C9.12264366,15.9269297 8.91637584,16.0425605 8.71639462,15.9831734 L6.81014917,15.4300437 C6.61013744,15.3737999 6.49764991,15.1644193 6.55389368,14.9644381 L10.8195085,0.270717013 C10.8757523,0.0707052831 11.0851329,-0.0417822417 11.2851141,0.0144615207 Z M4.62265438,3.5050843 C4.77576071,3.36131633 5.01327845,3.37071573 5.15390312,3.52070926 L6.51327488,4.9706875 C6.66012511,5.12382434 6.64764345,5.36756765 6.48825052,5.50819232 L3.65701948,7.99881748 L6.48825052,10.4894426 C6.64764345,10.6300673 6.65701233,10.8738106 6.51327488,11.0269475 L5.15390312,12.4769257 C5.01327845,12.6300625 4.77576071,12.6363186 4.62265438,12.4925507 L0.11952181,8.27069794 C-0.0398406033,8.12381719 -0.0398406033,7.870705 0.11952181,7.72382424 Z M14.8476056,3.51756596 C14.9913736,3.36757242 15.2288608,3.36131633 15.3788543,3.501941 L19.8819869,7.72693703 C20.0413493,7.87381778 20.0413493,8.12692997 19.8819869,8.27381073 L15.3788543,12.495694 C15.225748,12.6363186 14.9882303,12.6300625 14.8476056,12.4769257 L13.4882338,11.0269475 C13.3413836,10.8738106 13.3538653,10.6300673 13.5132582,10.4894426 L16.3444892,7.99881748 L13.5132582,5.50507953 C13.3538653,5.36445487 13.3444964,5.12071155 13.4882338,4.96757471 Z"></path></clipPath><clipPath id="i3"><path d="M36.5158412,0.91366992 C36.7056639,0.238630331 37.4123234,-0.141015066 38.08726,0.0488076325 L44.5208384,1.91562066 C45.195878,2.10544335 45.5755234,2.81210289 45.3857007,3.48703949 L30.9892507,53.0783481 C30.7889223,53.7533877 30.0927684,54.1436417 29.4178319,53.9432104 L22.9842534,52.0763974 C22.3092139,51.8865747 21.9295685,51.1799151 22.1193912,50.5049785 Z M50.1106689,11.8717851 C50.5958858,11.3655569 51.3974052,11.3444426 51.9036333,11.8190509 L67.1017058,26.0784125 C67.6395539,26.574135 67.6395539,27.4283887 67.1017058,27.9241112 L51.9036333,42.1729671 C51.3868995,42.6475754 50.5852771,42.6264611 50.1106689,42.1096243 L45.5227892,37.2159477 C45.0271696,36.6991109 45.0692952,35.8764772 45.6072464,35.4018689 L55.1626512,26.996009 L45.6072464,18.5796434 C45.0692952,18.1050352 45.0376753,17.2824015 45.5227892,16.7655647 Z M15.6014585,11.8296595 C16.1181924,11.3444426 16.9198148,11.3761656 17.394423,11.8823938 L21.9823027,16.7760703 C22.4779223,17.2929071 22.4357967,18.1155408 21.8978455,18.5901491 L12.3424407,26.996009 L21.8978455,35.4018689 C22.4357967,35.8764772 22.4674166,36.6991109 21.9823027,37.2159477 L17.394423,42.1096243 C16.9198148,42.6264611 16.1181924,42.6475754 15.6014585,42.1623585 L0.403386108,27.9136055 C-0.134462036,27.417883 -0.134462036,26.5636294 0.403386108,26.0679068 Z"></path></clipPath><clipPath id="i4"><path d="M114,0 C115.656854,-3.04359188e-16 117,1.34314575 117,3 L117,33 C117,34.6568542 115.656854,36 114,36 L3,36 C1.34314575,36 2.86744138e-15,34.6568542 0,33 L0,3 C-2.02906125e-16,1.34314575 1.34314575,-5.83819232e-16 3,0 L114,0 Z"></path></clipPath></defs><g transform="translate(0.0 36.0)"><g clip-path="url(#i0)"><polygon points="0,0 789,0 789,535 0,535 0,0" stroke="none" fill="rgba(0, 102, 204, 0.2)"></polygon></g><g clip-path="url(#i0)"><polygon points="0,0 789,0 789,535 0,535 0,0 0,0" stroke="#0066CC" stroke-width="2" fill="none" stroke-miterlimit="5"></polygon></g></g><g transform="translate(705.0 0.06232686980615654)"><g clip-path="url(#i1)"><polygon points="0,0 84,0 84,36 0,36 0,0" stroke="none" fill="#FFFFFF"></polygon></g><path d="M0.5,0.5 L0.5,35.5" stroke="#D2D2D2" stroke-width="1" fill="none" stroke-linecap="square" stroke-miterlimit="10"></path><g transform="translate(83.0 0.0)"><path d="M0.5,0.5 L0.5,35.5" stroke="#D2D2D2" stroke-width="1" fill="none" stroke-linecap="square" stroke-miterlimit="10"></path></g><path d="M83.5,0.5 L0.5,0.5" stroke="#D2D2D2" stroke-width="1" fill="none" stroke-linecap="square" stroke-miterlimit="10"></path><g transform="translate(37.0 9.0)"><text transform="translate(0.0 13.0)" font-family="LiberationMono, Liberation Mono" font-size="16.0" font-weight="normal" fill="#696E73" text-anchor="left">HTML</text></g><g transform="translate(8.0 6.0623268698061565)"><g transform="translate(2.0 4.0000000000000036)"><g clip-path="url(#i2)"><polygon points="0,1.73472348e-18 20.0015087,1.73472348e-18 20.0015087,15.9987615 0,15.9987615 0,1.73472348e-18" stroke="none" fill="#696E73"></polygon></g></g></g></g><g transform="translate(211.0 165.0)"><g transform="translate(150.0 0.0)"><g transform="translate(0.0 0.9999999999999467)"><g clip-path="url(#i3)"><polygon points="-5.55111512e-17,0 67.5050919,0 67.5050919,53.9958201 -5.55111512e-17,53.9958201 -5.55111512e-17,0" stroke="none" fill="#696E73"></polygon></g></g></g><g transform="translate(56.0 79.0)"><text transform="translate(71.22 20.0)" font-family="RedHatDisplay-Medium, Red Hat Display" font-size="20.0" font-weight="500" fill="#151515" text-anchor="center" line-spacing="30.0">Start editing</text></g><g transform="translate(0.0 125.0)"><text transform="translate(5.568000000000012 16.0)" font-family="RedHatText-Regular, Red Hat Text" font-size="16.0" font-weight="normal" fill="#696E73" text-anchor="center" line-spacing="24.0">Drag a file here, upload files, or start from scratch.</text></g><g transform="translate(125.0 181.0)"><g clip-path="url(#i4)"><polygon points="0,0 117,0 117,36 0,36 0,0" stroke="none" fill="#0066CC"></polygon></g><g transform="translate(16.0 6.0)"><text transform="translate(0.37999999999999545 16.0)" font-family="RedHatText-Regular, Red Hat Text" font-size="16.0" font-weight="normal" fill="#FFFFFF" text-anchor="center" line-spacing="24.0">Upload files</text></g></g><g transform="translate(102.0 225.0)"><g transform="translate(16.0 6.0)"><text transform="translate(0.0 16.0)" font-family="RedHatText-Regular, Red Hat Text" font-size="16.0" font-weight="normal" fill="#0066CC" text-anchor="left" line-spacing="24.0">Start from scratch</text></g></g></g></svg>