<svg xmlns="http://www.w3.org/2000/svg" width="24" height="24" viewBox="0 0 24 24">
  <path fill="#151515" fill-rule="evenodd" d="M4.5,8.00001329 C4.2234375,8.00001329 4,8.22345079 4,8.50001329 L4,19.5000133 C4,19.7765758 4.2234375,20.0000133 4.5,20.0000133 L15.5,20.0000133 C15.7765625,20.0000133 16,19.7765758 16,19.5000133 L16,8.00001329 L4.5,8.00001329 Z M14,17.5000133 L9,17.5000133 L9,16.0000133 L14,16.0000133 L14,17.5000133 Z M14,14.5000133 L6,14.5000133 L6,13.0000133 L14,13.0000133 L14,14.5000133 Z M14,11.5000133 L11,11.5000133 L11,10.0000133 L14,10.0000133 L14,11.5000133 Z M6.8984375,4.00000441 C6.8984375,4.00000441 6.6609375,3.99688829 6.525,4.15626329 C6.3609375,4.34845079 4.15,6.53907579 4.15,6.53907579 C4.01875,6.66720079 4,6.68751329 4,6.83126329 C4,6.97501329 4.16875,7.00157579 4.3453125,7.00000441 L15.75,7.00000441 L12.75,4.00000441 L6.8984375,4.00000441 Z M19.5,8.00001329 L17,8.00001329 L17,19.0000133 L19.5,19.0000133 C19.7765625,19.0000133 20,18.7765758 20,18.5000133 L20,8.50001329 C20,8.22345079 19.7765625,8.00001329 19.5,8.00001329 L19.5,8.00001329 Z M19.6359375,6.99845079 C19.8171875,6.99845079 20,6.97970079 20,6.82970079 C20,6.68751329 19.9671875,6.66720079 19.8359375,6.53595079 C19.8359375,6.53595079 17.65,4.34063829 17.4859375,4.15938829 C17.3359375,4.00001329 17.134375,4.00001329 17.134375,4.00001329 L14,4.00001329 L17,7.00001329 L19.6359375,7.00001329 L19.6359375,6.99845079 Z"/>
</svg>
