<svg xmlns="http://www.w3.org/2000/svg" width="24" height="24" viewBox="0 0 24 24">
  <path fill="#151515" fill-rule="evenodd" d="M12.7875,6.75002162 C12.0734375,6.24845912 11.278125,5.99845912 10.4015625,6.00000714 C9.225,5.99845912 8.21927083,6.42397997 7.384375,7.27658412 C6.7546875,7.92033412 6.36302083,8.66512579 6.209375,9.51095912 L12.125,14.1359591 C12.2175367,14.207974 12.3414694,14.2251358 12.4500935,14.180977 C12.5587176,14.1368183 12.635522,14.0380512 12.6515625,13.9218966 L13.5296875,7.40002162 C13.3071766,7.15648695 13.058248,6.93847789 12.7875,6.75002162 M19.3,12.6890841 C18.8328125,12.0968966 18.240625,11.7151258 17.5234375,11.5437716 C17.7483268,11.1927572 17.866643,10.784078 17.8640625,10.3672091 C17.8640625,9.76252162 17.6578125,9.24845912 17.2375,8.82345912 C16.828125,8.39689662 16.3234375,8.18283412 15.734375,8.18283412 C15.2078125,8.18283412 14.7515625,8.35783412 14.3640625,8.70158412 L13.4875,15.2187716 C13.4203125,15.7218966 12.8328125,15.9609591 12.4328125,15.6484591 L6.1484375,10.7328341 C5.50625,11.0390841 4.9875,11.5036675 4.5921875,12.1265841 C4.19739583,12.7468966 4,13.4317925 4,14.1812716 C4,15.2312716 4.365625,16.13023 5.096875,16.8781466 C5.8265625,17.6250216 6.70520833,17.99898 7.7328125,18.0000216 L16.8,18.0000216 C17.6828125,18.0000216 18.4359375,17.6781466 19.0640625,17.0422091 C19.690625,16.4015841 20,15.6312716 20,14.7265841 C20,13.9609591 19.7666667,13.2817925 19.3,12.6890841"/>
</svg>
