<svg xmlns="http://www.w3.org/2000/svg" width="24" height="24" viewBox="0 0 24 24">
  <path fill="#151515" fill-rule="evenodd" d="M20,5.88235294 L20,5.88235294 L20,17.1764706 C19.4804043,17.1759841 19.05931,16.7548899 19.0588235,16.2352941 L19.0588235,6.82352941 C19.05931,6.30393362 19.4804043,5.88283938 20,5.88235294 L20,5.88235294 Z M9.64705882,10.5882353 L10.5882353,10.5882353 L10.5882353,8.70588235 L9.64705882,8.70588235 L9.64705882,10.5882353 Z M16,8.69117647 L15.2941176,8.69117647 L15.2941176,11.2941176 C15.2941176,11.424067 15.1887729,11.5294118 15.0588235,11.5294118 L8.94117647,11.5294118 C8.81122712,11.5294118 8.70588235,11.424067 8.70588235,11.2941176 L8.70588235,8.69117647 L8,8.69117647 C7.87005065,8.69117647 7.76470588,8.58583171 7.76470588,8.45588235 L7.76470588,6.11764706 C7.76470588,5.98769771 7.87005065,5.88235294 8,5.88235294 L16,5.88235294 C16.1299494,5.88235294 16.2352941,5.98769771 16.2352941,6.11764706 L16.2352941,8.45588235 C16.2352941,8.58583171 16.1299494,8.69117647 16,8.69117647 Z M14.3529412,14.3529412 L13.4117647,14.3529412 L13.4117647,15.2941176 L14.3529412,15.2941176 L14.3529412,16.2352941 L13.4117647,16.2352941 L13.4117647,17.1764706 L12.4705882,17.1764706 L12.4705882,16.2352941 L11.5294118,16.2352941 L11.5294118,17.1764706 L10.5882353,17.1764706 L10.5882353,16.2352941 L9.64705882,16.2352941 L9.64705882,15.2941176 L10.5882353,15.2941176 L10.5882353,14.3529412 L9.64705882,14.3529412 L9.64705882,13.4117647 L10.5882353,13.4117647 L10.5882353,12.4705882 L11.5294118,12.4705882 L11.5294118,13.4117647 L12.4705882,13.4117647 L12.4705882,12.4705882 L13.4117647,12.4705882 L13.4117647,13.4117647 L14.3529412,13.4117647 L14.3529412,14.3529412 Z M5.88235294,4.94117647 L5.88235294,18.1176471 C5.88283938,18.6372429 6.30393362,19.0583371 6.82352941,19.0588235 L17.1764706,19.0588235 C17.6960664,19.0583371 18.1171606,18.6372429 18.1176471,18.1176471 L18.1176471,4.94117647 C18.1171606,4.42158068 17.6960664,4.00048644 17.1764706,4 L6.82352941,4 C6.30393362,4.00048644 5.88283938,4.42158068 5.88235294,4.94117647 Z M11.5441176,14.3529412 L12.4558824,14.3529412 C12.4598574,14.3526782 12.4637526,14.3541429 12.4665696,14.3569598 C12.4693865,14.3597768 12.4708512,14.363672 12.4705882,14.3676471 L12.4705882,15.2794118 C12.4708512,15.2833868 12.4693865,15.2872821 12.4665696,15.290099 C12.4637526,15.2929159 12.4598574,15.2943806 12.4558824,15.2941176 L11.5441176,15.2941176 C11.5401426,15.2943806 11.5362474,15.2929159 11.5334304,15.290099 C11.5306135,15.2872821 11.5291488,15.2833868 11.5294118,15.2794118 L11.5294118,14.3676471 C11.5291488,14.363672 11.5306135,14.3597768 11.5334304,14.3569598 C11.5362474,14.3541429 11.5401426,14.3526782 11.5441176,14.3529412 L11.5441176,14.3529412 Z M13.4117647,10.5882353 L14.3529412,10.5882353 L14.3529412,8.70588235 L13.4117647,8.70588235 L13.4117647,10.5882353 Z M11.5294118,10.5882353 L12.4705882,10.5882353 L12.4705882,8.70588235 L11.5294118,8.70588235 L11.5294118,10.5882353 Z M4,5.88235294 L4,5.88235294 C4.51959579,5.88283938 4.94069003,6.30393362 4.94117647,6.82352941 L4.94117647,16.2352941 C4.94069003,16.7548899 4.51959579,17.1759841 4,17.1764706 L4,5.88235294 Z"/>
</svg>
