<svg xmlns="http://www.w3.org/2000/svg" width="24" height="24" viewBox="0 0 24 24">
  <path fill="#151515" fill-rule="evenodd" d="M19.9375191,10.063706 L18.4441041,11.5595712 C18.3215926,11.6833078 18.1096478,11.5963247 18.1096478,11.4211332 L18.1096478,10.704441 L14.0018377,10.704441 C13.9528331,10.704441 13.9111792,10.6774885 13.9050536,10.6284839 C13.8658499,10.3369066 13.81317,10.0518632 13.7470138,9.77335375 C13.706585,9.60183767 13.6600306,9.43522205 13.6098009,9.27350689 C13.5901991,9.20980092 13.6367534,9.13629403 13.7029096,9.13629403 L18.1071975,9.13629403 L18.1071975,8.4330781 C18.1071975,8.25911179 18.3179173,8.17090352 18.4416539,8.29464012 L19.936294,9.7856049 C19.9742726,9.82358346 20,9.87381317 20,9.92404288 C20,9.97427259 19.9742726,10.0245023 19.9375191,10.063706 Z M9.7482389,14.7558959 L8.25482389,16.2517611 C8.1323124,16.3754977 7.92036753,16.2885145 7.92036753,16.1133231 L7.92036753,15.4088821 L4.19601838,15.4088821 C4.08820827,15.4088821 4,15.3145482 4,15.2067381 L4,14.0306279 C4,13.9228178 4.08820827,13.8407351 4.19601838,13.8407351 L7.92036753,13.8407351 L7.92036753,13.1277182 C7.92036753,12.9537519 8.13108729,12.8655436 8.25482389,12.9892802 L9.7482389,14.4790199 C9.82456518,14.5555313 9.82456518,14.6793845 9.7482389,14.7558959 Z M17.3243492,11.6796325 C17.3216898,11.573293 17.2347035,11.4884813 17.1283308,11.4885145 L11.8407351,11.4885145 L11.8407351,9.92036753 L12.8477795,9.92036753 C12.9114855,9.92036753 12.9592649,9.85298622 12.9421133,9.79173047 C12.8895019,9.5897483 12.8265294,9.3906079 12.7534456,9.19509954 C12.73823,9.15812706 12.7015082,9.13462508 12.661562,9.13629403 L11.8407351,9.13629403 L11.8407351,6.85390505 C11.993166,6.90976902 12.1361253,6.98868582 12.2646248,7.08790199 C12.5672282,7.31577335 12.8575804,7.66738132 13.1038285,8.10597243 C13.1454824,8.18070444 13.2091884,8.28728943 13.3243492,8.28728943 L13.9160796,8.28728943 C13.9495094,8.28695188 13.9805163,8.26978394 13.9985446,8.24163005 C14.016573,8.21347617 14.0191931,8.17813074 14.005513,8.14762634 C13.8513248,7.8097581 13.6633324,7.48836497 13.4444104,7.18836141 C14.0249982,7.43711765 14.5548921,7.79051871 15.007657,8.23093415 C15.0441388,8.26622426 15.0928874,8.28598717 15.1436447,8.28606432 L15.9007657,8.28606432 C15.9388138,8.28623776 15.9735241,8.26437466 15.9898008,8.22998347 C16.0060776,8.19559228 16.0009791,8.1548884 15.9767228,8.12557427 C14.901072,6.8330781 13.2839204,6.00735069 11.4719755,6 L11.4180704,6 C8.19601838,6.01715161 5.56814701,8.68790199 5.56814701,11.9148545 L5.56814701,12.0765697 C5.56814701,12.2088821 5.62572741,12.7430322 5.66860643,12.9709035 C5.67718224,13.0174579 5.71761103,13.0566616 5.76539051,13.0566616 L6.36447167,13.0566616 C6.42695253,13.0566616 6.47350689,12.9929556 6.46003063,12.9316998 C6.41470487,12.7142526 6.38360268,12.4940818 6.3669219,12.2725881 L11.0566616,12.2725881 L11.0566616,13.8407351 L10.5347626,13.8407351 C10.4957948,13.8392566 10.459924,13.861877 10.4444647,13.8976776 C10.4290053,13.9334783 10.4371356,13.9750991 10.4649311,14.0024502 L10.9415008,14.480245 C11.0151313,14.553583 11.0565643,14.6531984 11.0566616,14.757121 L11.0566616,16.9071975 C10.9042306,16.8513336 10.7612714,16.7724168 10.6327718,16.6732006 C10.3926493,16.4931087 10.1611026,16.2333844 9.95160796,15.9160796 C9.93547925,15.8915632 9.90921344,15.875564 9.88002989,15.8724795 C9.85084636,15.8693951 9.82181629,15.87955 9.80091884,15.9001531 L9.3770291,16.3240429 C9.34368625,16.3575812 9.3390482,16.4101459 9.36600306,16.4490046 C9.39540582,16.4906585 9.42480858,16.5323124 9.45421133,16.5727412 C9.39908116,16.549464 9.34517611,16.5249617 9.29127106,16.5004594 C9.2540359,16.4832845 9.21004481,16.4911052 9.18101072,16.5200613 L8.74119449,16.9586524 C8.71922008,16.980934 8.70910862,17.0123132 8.71393976,17.0432325 C8.71877092,17.0741519 8.7379727,17.1009508 8.76569678,17.1154671 C9.59588212,17.5411938 10.5157198,17.7625429 11.4486983,17.7611165 C14.5641654,17.7611165 17.1148545,15.3390505 17.3169985,12.2738132 C17.3255743,12.143951 17.3292496,12.0140888 17.3292496,11.8817764 L17.3243492,11.6796325 Z M8.1482389,11.4885145 L6.3669219,11.4885145 C6.40706362,10.9487018 6.53492693,10.4190414 6.74548239,9.92036753 L8.33078101,9.92036753 C8.22837921,10.4374051 8.16733867,10.9617802 8.1482389,11.4885145 L8.1482389,11.4885145 Z M7.15834609,9.13629403 C7.35661379,8.82628321 7.58698092,8.53801631 7.84563553,8.2762634 C8.30689127,7.81357611 8.85305819,7.4441959 9.45421133,7.18836141 C9.07075038,7.70535988 8.75099541,8.3754977 8.52434916,9.13629403 L7.15834609,9.13629403 Z M11.0566616,11.4885145 L8.9323124,11.4885145 C8.9524825,10.9610007 9.0188933,10.4362734 9.13078101,9.92036753 L11.0566616,9.92036753 L11.0566616,11.4885145 Z M11.0566616,9.13629403 L9.34640123,9.13629403 C9.47136294,8.762634 9.62082695,8.41470138 9.79356815,8.10719755 C10.0398162,7.66860643 10.3301685,7.31699847 10.6327718,7.08912711 C10.7612714,6.98991093 10.9042306,6.91099413 11.0566616,6.85513017 L11.0566616,9.13629403 Z M11.0585988,6.76452527 L11.1485988,6.76452527 L11.1485988,6.67452527 L11.0585988,6.67452527 L11.0585988,6.76452527 Z M11.8407351,12.2725881 L13.9650842,12.2725881 C13.9457166,12.8000292 13.8801258,13.3247554 13.7690658,13.8407351 L11.8407351,13.8407351 L11.8407351,12.2725881 Z M12.2646248,16.6719755 C12.1361253,16.7711917 11.993166,16.8501085 11.8407351,16.9059724 L11.8407351,14.6248086 L13.5546708,14.6248086 C13.4384593,14.9817794 13.287453,15.3264676 13.1038285,15.6539051 C12.8575804,16.0924962 12.5672282,16.4453292 12.2646248,16.6719755 L12.2646248,16.6719755 Z M15.0529862,15.4848392 C14.5917305,15.9475265 14.0455636,16.3169067 13.4444104,16.5727412 C13.8290965,16.0520674 14.1488515,15.3856049 14.3767228,14.618683 L15.7488515,14.618683 C15.5487417,14.9316019 15.3154349,15.2220031 15.0529862,15.4848392 L15.0529862,15.4848392 Z M16.1568147,13.8346095 L14.5690658,13.8346095 C14.6699639,13.3194637 14.7301803,12.7971788 14.7491577,12.2725881 L16.5304747,12.2725881 C16.4906824,12.8099604 16.36451,13.3374022 16.1568147,13.8346095 L16.1568147,13.8346095 Z"/>
</svg>
