<svg xmlns="http://www.w3.org/2000/svg" width="24" height="24" viewBox="0 0 24 24">
  <path fill="#151515" fill-rule="evenodd" d="M18,4 L11,4 C9.8953125,4 9,4.8953125 9,6 L9,9 L6,9 C4.8953125,9 4,9.8953125 4,11 L4,18 C4,19.1046875 4.8953125,20 6,20 L13,20 C14.1046875,20 15,19.1046875 15,18 L15,15 L18,15 C19.1046875,15 20,14.1046875 20,13 L20,6 C20,4.8953125 19.1046875,4 18,4 L18,4 Z M13,13 L13,18 L6,18 L6,11 L11,11 L11,6 L18,6 L18,13 L13,13 Z M11.25,12 C11.6640625,12 12,11.6640625 12,11.25 L12,7.5 C12,7.2234375 12.2234375,7 12.5,7 L16.5,7 C16.7765625,7 17,7.2234375 17,7.5 L17,11.5 C17,11.7765625 16.7765625,12 16.5,12 L12.75,12 C12.3359375,12 12,12.3359375 12,12.75 L12,16.5 C12,16.7765625 11.7765625,17 11.5,17 L7.5,17 C7.2234375,17 7,16.7765625 7,16.5 L7,12.5 C7,12.2234375 7.2234375,12 7.5,12 L11.25,12 Z"/>
</svg>
