<?xml version="1.0" encoding="UTF-8"?><svg version="1.1" width="469px" height="88px" viewBox="0 0 469.0 88.0" xmlns="http://www.w3.org/2000/svg" xmlns:xlink="http://www.w3.org/1999/xlink"><defs><clipPath id="i0"><path d="M469,0 L469,1 L0,1 L0,0 L469,0 Z"></path></clipPath><clipPath id="i1"><path d="M79,0 C80.6568542,-3.04359188e-16 82,1.34314575 82,3 L82,33 C82,34.6568542 80.6568542,36 79,36 L3,36 C1.34314575,36 -1.57345071e-15,34.6568542 0,33 L0,3 C-2.02906125e-16,1.34314575 1.34314575,-1.39730022e-16 3,0 L79,0 Z"></path></clipPath><clipPath id="i2"><path d="M0.923421565,0.22032113 C1.21718307,-0.0734403767 1.69218804,-0.0734403767 1.98280625,0.22032113 L6.23279611,4.470311 C6.52967041,4.7640725 6.52967041,5.23904696 6.2359089,5.53280846 L1.98591903,9.78279833 C1.69218804,10.0765598 1.21718307,10.0765598 0.926564869,9.78279833 L0.220298242,9.07656222 C-0.0734327473,8.78280072 -0.0734327473,8.30779574 0.220298242,8.01717754 L3.23280327,5.00467252 L0.220298242,1.99219801 C-0.0734327473,1.6984365 -0.0734327473,1.22343153 0.220298242,0.932813328 Z"></path></clipPath><clipPath id="i3"><path d="M24,0 L24,24 L0,24 L0,0 L24,0 Z"></path></clipPath><clipPath id="i4"><path d="M8,0 L8,36 L0,36 L0,0 L8,0 Z"></path></clipPath><clipPath id="i5"><path d="M24,0 L24,6 L0,6 L0,0 L24,0 Z"></path></clipPath></defs><g transform="translate(44.0 16.0)"><text transform="translate(0.0 16.0)" font-family="RedHatText-Regular, Red Hat Text" font-size="16.0" font-weight="normal" fill="#151515" text-anchor="left" line-spacing="24.0">Field group title</text></g><g transform="translate(0.0 87.0)"><g clip-path="url(#i0)"><polygon points="0,0 469,0 469,1 0,1 0,0" stroke="none" fill="#FFFFFF"></polygon><polygon points="0,0 469,0 469,1 0,1 0,0 0,0" stroke="#D2D2D2" stroke-width="2" fill="none" stroke-miterlimit="5"></polygon></g></g><g transform="translate(44.0 48.0)"><text transform="translate(0.0 16.0)" font-family="RedHatText-Regular, Red Hat Text" font-size="16.0" font-weight="normal" fill="#696E73" text-anchor="left" line-spacing="24.0">Some description this group</text></g><g transform="translate(387.0 10.0)"><g clip-path="url(#i1)"><path d="M3,0 L79,0 C80.6568542,-3.04359188e-16 82,1.34314575 82,3 L82,33 C82,34.6568542 80.6568542,36 79,36 L3,36 C1.34314575,36 -1.57345071e-15,34.6568542 0,33 L0,3 C-2.02906125e-16,1.34314575 1.34314575,-1.39730022e-16 3,0 Z" stroke="#0066CC" stroke-width="2" fill="none" stroke-miterlimit="5"></path></g><g transform="translate(16.0 6.0)"><text transform="translate(0.120000000000001 16.0)" font-family="RedHatText-Regular, Red Hat Text" font-size="16.0" font-weight="normal" fill="#0066CC" text-anchor="center" line-spacing="24.0">Button</text></g></g><g transform="translate(289.0 10.0)"><g clip-path="url(#i1)"><path d="M3,0 L79,0 C80.6568542,-3.04359188e-16 82,1.34314575 82,3 L82,33 C82,34.6568542 80.6568542,36 79,36 L3,36 C1.34314575,36 -1.57345071e-15,34.6568542 0,33 L0,3 C-2.02906125e-16,1.34314575 1.34314575,-1.39730022e-16 3,0 Z" stroke="#0066CC" stroke-width="2" fill="none" stroke-miterlimit="5"></path></g><g transform="translate(16.0 6.0)"><text transform="translate(0.120000000000001 16.0)" font-family="RedHatText-Regular, Red Hat Text" font-size="16.0" font-weight="normal" fill="#0066CC" text-anchor="center" line-spacing="24.0">Button</text></g></g><g transform="translate(0.0 10.0)"><g transform="translate(8.0 6.0)"><g transform="translate(9.0 6.999999999999999)"><g clip-path="url(#i2)"><polygon points="-2.77555756e-17,-2.77555756e-17 6.45584247,-2.77555756e-17 6.45584247,10.0031195 -2.77555756e-17,10.0031195 -2.77555756e-17,-2.77555756e-17" stroke="none" fill="#151515"></polygon><g clip-path="url(#i3)"><polygon points="0,0 6.45584247,0 6.45584247,10.0031195 0,10.0031195 0,0" stroke="none" fill="#696E73"></polygon></g></g></g></g><g clip-path="url(#i4)"><polygon points="0,0 8,0 8,36 0,36 0,0" stroke="none" fill="rgba(146, 211, 0, 0.9)"></polygon></g><g clip-path="url(#i4)"><polygon points="0,0 8,0 8,36 0,36 0,0 0,0" stroke="#7EB200" stroke-width="2" fill="none" stroke-miterlimit="5"></polygon></g><g transform="translate(32.0 0.0)"><g clip-path="url(#i4)"><polygon points="0,0 8,0 8,36 0,36 0,0" stroke="none" fill="rgba(146, 211, 0, 0.9)"></polygon></g><g clip-path="url(#i4)"><polygon points="0,0 8,0 8,36 0,36 0,0 0,0" stroke="#7EB200" stroke-width="2" fill="none" stroke-miterlimit="5"></polygon></g></g><g transform="translate(8.0 0.0)"><g clip-path="url(#i5)"><polygon points="0,0 24,0 24,6 0,6 0,0" stroke="none" fill="rgba(243, 213, 59, 0.9)"></polygon></g><g clip-path="url(#i5)"><polygon points="0,0 24,0 24,6 0,6 0,0 0,0" stroke="#CAB534" stroke-width="2" fill="none" stroke-miterlimit="5"></polygon></g></g><g transform="translate(8.0 30.0)"><g clip-path="url(#i5)"><polygon points="0,0 24,0 24,6 0,6 0,0" stroke="none" fill="rgba(243, 213, 59, 0.9)"></polygon></g><g clip-path="url(#i5)"><polygon points="0,0 24,0 24,6 0,6 0,0 0,0" stroke="#CAB534" stroke-width="2" fill="none" stroke-miterlimit="5"></polygon></g></g></g></svg>