<?xml version="1.0" encoding="UTF-8"?>
<svg width="24px" height="24px" viewBox="0 0 24 24" version="1.1" xmlns="http://www.w3.org/2000/svg" xmlns:xlink="http://www.w3.org/1999/xlink">
    <title></title>
    <g id="Icons" stroke="none" stroke-width="1" fill="none" fill-rule="evenodd">
        <g id="Icons-/-3.-Size-lg-/-View-Type-/-table" fill="#151515">
            <path d="M21.7499481,22.9999499 C22.9925904,22.9999499 23.9999428,21.9925976 23.9999428,20.7499553 L23.9999428,4.24999464 C23.9999428,3.00735233 22.9925904,2 21.7499481,2 L2.24999464,2 C1.00735233,2 0,3.00735233 0,4.24999464 L0,20.7499553 C0,21.9925976 1.00735233,22.9999499 2.24999464,22.9999499 L21.7499481,22.9999499 Z M10.499975,12.499975 L2.99999285,12.499975 L2.99999285,7.99998569 L10.499975,7.99998569 L10.499975,12.499975 Z M20.9999499,12.499975 L13.4999678,12.499975 L13.4999678,7.99998569 L20.9999499,7.99998569 L20.9999499,12.499975 Z M10.499975,19.9999571 L2.99999285,19.9999571 L2.99999285,15.4999678 L10.499975,15.4999678 L10.499975,19.9999571 Z M20.9999499,19.9999571 L13.4999678,19.9999571 L13.4999678,15.4999678 L20.9999499,15.4999678 L20.9999499,19.9999571 Z" id="table"></path>
        </g>
    </g>
</svg>