<?xml version="1.0" encoding="UTF-8"?>
<svg width="24px" height="24px" viewBox="0 0 24 24" version="1.1" xmlns="http://www.w3.org/2000/svg" xmlns:xlink="http://www.w3.org/1999/xlink">
    <title></title>
    <g id="Icons" stroke="none" stroke-width="1" fill="none" fill-rule="evenodd">
        <g id="Icons-/-3.-Size-lg-/-View-Type-/-th" fill="#151515">
            <path d="M5.87497073,7.99998569 C6.49629188,7.99998569 6.99996805,7.49630953 6.99996805,6.87498838 L6.99996805,3.12499732 C6.99996805,2.50367617 6.49629188,2 5.87497073,2 L1.12499732,2 C0.503676167,2 0,2.50367617 0,3.12499732 L0,6.87498838 C0,7.49630953 0.503676167,7.99998569 1.12499732,7.99998569 L5.87497073,7.99998569 Z M22.8749455,7.99998569 C23.4962666,7.99998569 23.9999428,7.49630953 23.9999428,6.87498838 L23.9999428,3.12499732 C23.9999428,2.50367617 23.4962666,2 22.8749455,2 L18.124972,2 C17.5036509,2 16.9999747,2.50367617 16.9999747,3.12499732 L16.9999747,6.87498838 C16.9999747,7.49630953 17.5036509,7.99998569 18.124972,7.99998569 L22.8749455,7.99998569 Z M14.3749352,7.99998569 C14.9963021,7.99998569 15.4999783,7.49630953 15.4999783,6.87498838 L15.4999783,3.12499732 C15.4999783,2.50367617 14.9963021,2 14.374981,2 L9.62496179,2 C9.00364064,2 8.49996448,2.50367617 8.49996448,3.12499732 L8.49996448,6.87498838 C8.49996448,7.49630953 9.00364064,7.99998569 9.62496179,7.99998569 L14.3749352,7.99998569 Z M14.3749352,15.4999678 C14.9963021,15.4999678 15.4999783,14.9962916 15.4999783,14.3749705 L15.4999783,10.6249794 C15.4999783,10.0036583 14.9963021,9.49998212 14.374981,9.49998212 L9.62496179,9.49998212 C9.00364064,9.49998212 8.49996448,10.0036583 8.49996448,10.6249794 L8.49996448,14.3749705 C8.49996448,14.9962916 9.00364064,15.4999678 9.62496179,15.4999678 L14.3749352,15.4999678 Z M5.87497073,15.4999678 C6.49629188,15.4999678 6.99996805,14.9962916 6.99996805,14.3749705 L6.99996805,10.6249794 C6.99996805,10.0036583 6.49629188,9.49998212 5.87497073,9.49998212 L1.12499732,9.49998212 C0.503676167,9.49998212 0,10.0036583 0,10.6249794 L0,14.3749705 C0,14.9962916 0.503676167,15.4999678 1.12499732,15.4999678 L5.87497073,15.4999678 Z M22.8749455,15.4999678 C23.4962666,15.4999678 23.9999428,14.9962916 23.9999428,14.3749705 L23.9999428,10.6249794 C23.9999428,10.0036583 23.4962666,9.49998212 22.8749455,9.49998212 L18.124972,9.49998212 C17.5036509,9.49998212 16.9999747,10.0036583 16.9999747,10.6249794 L16.9999747,14.3749705 C16.9999747,14.9962916 17.5036509,15.4999678 18.124972,15.4999678 L22.8749455,15.4999678 Z M5.87497073,22.9999499 C6.49629188,22.9999499 6.99996805,22.4962738 6.99996805,21.8749526 L6.99996805,18.1249616 C6.99996805,17.5036404 6.49629188,16.9999642 5.87497073,16.9999642 L1.12499732,16.9999642 C0.503676167,16.9999642 0,17.5036404 0,18.1249616 L0,21.8749526 C0,22.4962738 0.503676167,22.9999499 1.12499732,22.9999499 L5.87497073,22.9999499 Z M22.8749455,22.9999499 C23.4962666,22.9999499 23.9999428,22.4962738 23.9999428,21.8749526 L23.9999428,18.1249616 C23.9999428,17.5036404 23.4962666,16.9999642 22.8749455,16.9999642 L18.124972,16.9999642 C17.5036509,16.9999642 16.9999747,17.5036404 16.9999747,18.1249616 L16.9999747,21.8749526 C16.9999747,22.4962738 17.5036509,22.9999499 18.124972,22.9999499 L22.8749455,22.9999499 Z M14.3749352,22.9999499 C14.9962564,22.9999499 15.4999325,22.4962738 15.4999325,21.8749526 L15.4999325,18.1249616 C15.4999325,17.5036404 14.9962564,16.9999642 14.3749352,16.9999642 L9.62496179,16.9999642 C9.00364064,16.9999642 8.49996448,17.5036404 8.49996448,18.1249616 L8.49996448,21.8749526 C8.49996448,22.4962738 9.00364064,22.9999499 9.62496179,22.9999499 L14.3749352,22.9999499 Z" id="th"></path>
        </g>
    </g>
</svg>