<?xml version="1.0" encoding="UTF-8"?>
<svg width="110px" height="24px" viewBox="0 0 110 24" version="1.1" xmlns="http://www.w3.org/2000/svg" xmlns:xlink="http://www.w3.org/1999/xlink">
    <title></title>
    <g id="Password-strength" stroke="none" stroke-width="1" fill="none" fill-rule="evenodd">
        <g id="Password-strength-/-Requirement---Failure">
            <g id="Icons-/-🖼-Dynamic-Icon" transform="translate(7.000000, 6.000000)" fill="#C9190B">
                <g id="🖼-Icon" transform="translate(-6.500005, -6.500005)">
                    <path d="M11.8124861,17.6249723 C15.0224089,17.6249723 17.6249723,15.0233473 17.6249723,11.8124861 C17.6249723,8.60350179 15.0224089,6 11.8124861,6 C8.60256338,6 6,8.60350179 6,11.8124861 C6,15.0233473 8.60256338,17.6249723 11.8124861,17.6249723 Z M12.3813935,12.5624844 L11.2435788,12.5624844 C11.0942109,12.5624844 10.9708896,12.4457091 10.9627644,12.2965701 L10.7889061,9.10907767 C10.7801171,8.94796813 10.9083593,8.81249329 11.0696977,8.81249329 L12.5552517,8.81249329 C12.7165901,8.81249329 12.8448552,8.94796813 12.8360662,9.10907767 L12.6622079,12.2965701 C12.6540826,12.4457091 12.5307614,12.5624844 12.3813935,12.5624844 Z M11.8124861,15.1406032 C11.2170515,15.1406032 10.7343637,14.6579155 10.7343637,14.0624808 C10.7343637,13.4670461 11.2170515,12.9843583 11.8124861,12.9843583 C12.4079208,12.9843583 12.8906086,13.4670461 12.8906086,14.0624808 C12.8906086,14.6579155 12.4079208,15.1406032 11.8124861,15.1406032 Z" id="exclamation-circle"></path>
                </g>
                <rect id="🎨-Color" x="0" y="0" width="10.999989" height="10.999989"></rect>
            </g>
            <text id="Requirement" font-family="RedHatText-Regular, Red Hat Text" font-size="14" font-weight="normal" line-spacing="21" fill="#151515">
                <tspan x="28" y="16">Requirement</tspan>
            </text>
        </g>
    </g>
</svg>