<?xml version="1.0" encoding="UTF-8"?><svg version="1.1" width="110px" height="24px" viewBox="0 0 110.0 24.0" xmlns="http://www.w3.org/2000/svg" xmlns:xlink="http://www.w3.org/1999/xlink"><defs><clipPath id="i0"><path d="M5.77553557,0.562155455 C6.20835009,-0.188071638 7.29240055,-0.186698351 7.72445976,0.562155455 L13.3480273,10.3127731 C13.7806358,11.062634 13.237615,11.9999715 12.3735881,11.9999715 L1.12626992,11.9999715 C0.260572221,11.9999715 -0.279953834,11.061192 0.151807831,10.3127731 Z M6.74999767,8.29685534 C6.15456299,8.29685534 5.67187524,8.77954309 5.67187524,9.37497777 C5.67187524,9.97041244 6.15456299,10.4531002 6.74999767,10.4531002 C7.34543234,10.4531002 7.8281201,9.97041244 7.8281201,9.37497777 C7.8281201,8.77954309 7.34543234,8.29685534 6.74999767,8.29685534 Z M7.49276323,4.12499028 L6.00720922,4.12499028 C5.84587079,4.12499028 5.71762861,4.26046512 5.72641765,4.42157466 L5.90027588,7.60906706 C5.90840116,7.75820611 6.0317224,7.87498134 6.18109033,7.87498134 L7.318905,7.87498134 C7.46827293,7.87498134 7.59159417,7.75820611 7.59971946,7.60906706 L7.77357768,4.42157466 C7.78236673,4.26046512 7.65410165,4.12499028 7.49276323,4.12499028 Z"></path></clipPath><clipPath id="i1"><path d="M15.9999466,0 L15.9999466,11.9313795 L0,11.9313795 L0,0 L15.9999466,0 Z"></path></clipPath></defs><g transform="translate(4.000000000000001 4.999999999999999)"><g transform="translate(-4.00002670286267 -6.034310259043365)"><g transform="translate(5.0 6.0)"><g clip-path="url(#i0)"><polygon points="-2.93376434e-14,-3.28626015e-14 13.4999699,-3.28626015e-14 13.4999699,11.9999715 -2.93376434e-14,11.9999715 -2.93376434e-14,-3.28626015e-14" stroke="none" fill="#F0AB00"></polygon><g transform="translate(4.00002670286267 6.034310259043365)"><g clip-path="url(#i1)"><polygon points="0,0 9.49994319,0 9.49994319,5.96566125 0,5.96566125 0,0" stroke="none" fill="#F0AB00"></polygon></g></g></g></g></g></g><g transform="translate(28.0 2.0)"><text transform="translate(0.0 14.0)" font-family="RedHatText-Regular, Red Hat Text" font-size="14.0" font-weight="normal" fill="#141514" text-anchor="left" line-spacing="21.0">Requirement</text></g></svg>