<?xml version="1.0" encoding="UTF-8"?>
<svg width="110px" height="24px" viewBox="0 0 110 24" version="1.1" xmlns="http://www.w3.org/2000/svg" xmlns:xlink="http://www.w3.org/1999/xlink">
    <title></title>
    <g id="Password-strength" stroke="none" stroke-width="1" fill="none" fill-rule="evenodd">
        <g id="Password-strength-/-Requirement---Warning">
            <g id="Icons-/-🖼-Dynamic-Icon" transform="translate(4.999973, 4.965690)" fill="#F0AB00">
                <g id="🖼-Icon">
                    <path d="M12.3735881,11.9999715 C13.237615,11.9999715 13.7806358,11.062634 13.3480273,10.3127731 L7.72445976,0.562155455 C7.29240055,-0.186698351 6.20835009,-0.188071638 5.77553557,0.562155455 L0.151807831,10.3127731 C-0.279953834,11.061192 0.260572221,11.9999715 1.12626992,11.9999715 L12.3735881,11.9999715 Z M7.318905,7.87498134 L6.18109033,7.87498134 C6.0317224,7.87498134 5.90840116,7.75820611 5.90027588,7.60906706 L5.72641765,4.42157466 C5.71762861,4.26046512 5.84587079,4.12499028 6.00720922,4.12499028 L7.49276323,4.12499028 C7.65410165,4.12499028 7.78236673,4.26046512 7.77357768,4.42157466 L7.59971946,7.60906706 C7.59159417,7.75820611 7.46827293,7.87498134 7.318905,7.87498134 Z M6.74999767,10.4531002 C6.15456299,10.4531002 5.67187524,9.97041244 5.67187524,9.37497777 C5.67187524,8.77954309 6.15456299,8.29685534 6.74999767,8.29685534 C7.34543234,8.29685534 7.8281201,8.77954309 7.8281201,9.37497777 C7.8281201,9.97041244 7.34543234,10.4531002 6.74999767,10.4531002 Z" id="exclamation-triangle"></path>
                </g>
                <rect id="🎨-Color" x="-0.999973297" y="0.034310259" width="15.9999466" height="11.9313795"></rect>
            </g>
            <text id="Requirement" font-family="RedHatText-Regular, Red Hat Text" font-size="14" font-weight="normal" line-spacing="21" fill="#151515">
                <tspan x="28" y="16">Requirement</tspan>
            </text>
        </g>
    </g>
</svg>