<?xml version="1.0" encoding="UTF-8"?>
<svg width="110px" height="24px" viewBox="0 0 110 24" version="1.1" xmlns="http://www.w3.org/2000/svg" xmlns:xlink="http://www.w3.org/1999/xlink">
    <title></title>
    <g id="Password-strength" stroke="none" stroke-width="1" fill="none" fill-rule="evenodd">
        <g id="Password-strength-/-Requirement---Failure">
            <g id="Icons-/-🖼-Dynamic-Icon" transform="translate(6.499995, 5.499995)" fill="#C9190B">
                <g id="🖼-Icon">
                    <path d="M5.81248614,11.6249723 C9.02240891,11.6249723 11.6249723,9.02334732 11.6249723,5.81248614 C11.6249723,2.60350179 9.02240891,0 5.81248614,0 C2.60256338,0 0,2.60350179 0,5.81248614 C0,9.02334732 2.60256338,11.6249723 5.81248614,11.6249723 Z M6.38139348,6.56248435 L5.24357881,6.56248435 C5.09421088,6.56248435 4.97088964,6.44570912 4.96276435,6.29657007 L4.78890612,3.10907767 C4.78011708,2.94796813 4.90835927,2.81249329 5.06969769,2.81249329 L6.55525171,2.81249329 C6.71659013,2.81249329 6.8448552,2.94796813 6.83606616,3.10907767 L6.66220793,6.29657007 C6.65408265,6.44570912 6.53076141,6.56248435 6.38139348,6.56248435 Z M5.81248614,9.14060321 C5.21705147,9.14060321 4.73436371,8.65791545 4.73436371,8.06248078 C4.73436371,7.4670461 5.21705147,6.98435835 5.81248614,6.98435835 C6.40792082,6.98435835 6.89060857,7.4670461 6.89060857,8.06248078 C6.89060857,8.65791545 6.40792082,9.14060321 5.81248614,9.14060321 Z" id="exclamation-circle"></path>
                </g>
                <rect id="🎨-Color" x="0.500005484" y="0.500005484" width="10.999989" height="10.999989"></rect>
            </g>
            <text id="Requirement" font-family="RedHatText-Regular, Red Hat Text" font-size="14" font-weight="normal" line-spacing="21" fill="#151515">
                <tspan x="28" y="16">Requirement</tspan>
            </text>
        </g>
    </g>
</svg>