<?xml version="1.0" encoding="UTF-8"?>
<svg width="110px" height="24px" viewBox="0 0 110 24" version="1.1" xmlns="http://www.w3.org/2000/svg" xmlns:xlink="http://www.w3.org/1999/xlink">
    <title></title>
    <g id="Password-strength" stroke="none" stroke-width="1" fill="none" fill-rule="evenodd">
        <g id="Password-strength-/-Requirement---Success">
            <g id="Icons-/-🖼-Dynamic-Icon" transform="translate(5.999973, 5.965690)" fill="#3E8635">
                <g id="🖼-Icon">
                    <path d="M5.81248614,11.6249723 C9.02263779,11.6249723 11.6249723,9.02263779 11.6249723,5.81248614 C11.6249723,2.60233449 9.02263779,0 5.81248614,0 C2.60233449,0 0,2.60233449 0,5.81248614 C0,9.02263779 2.60233449,11.6249723 5.81248614,11.6249723 Z M4.60980651,8.89013841 L2.17231233,6.45264422 C2.02589696,6.30620597 2.02589696,6.06874163 2.17231233,5.92230338 L2.70265316,5.39198544 C2.84909141,5.24554719 3.08655575,5.24554719 3.232994,5.39198544 L4.87498838,7.0340027 L8.39197828,3.51701279 C8.53843942,3.37055166 8.77590376,3.37055166 8.92231912,3.51701279 L9.45265996,4.04733074 C9.59907532,4.19376899 9.59907532,4.43123333 9.45265996,4.57767158 L5.14017024,8.8901613 C4.9937091,9.03657666 4.75626765,9.03657666 4.60980651,8.89013841 Z" id="check-circle"></path>
                </g>
                <rect id="🎨-Color" x="-1.9999733" y="0.034310259" width="15.9999466" height="11.9313795"></rect>
            </g>
            <text id="Requirement" font-family="RedHatText-Regular, Red Hat Text" font-size="14" font-weight="normal" line-spacing="21" fill="#6A6E73">
                <tspan x="28" y="16">Requirement</tspan>
            </text>
        </g>
    </g>
</svg>