<?xml version="1.0" encoding="UTF-8"?><svg version="1.1" width="75px" height="24px" viewBox="0 0 75.0 24.0" xmlns="http://www.w3.org/2000/svg" xmlns:xlink="http://www.w3.org/1999/xlink"><defs><clipPath id="i0"><path d="M5.81248614,0 C9.02240891,0 11.6249723,2.60350179 11.6249723,5.81248614 C11.6249723,9.02334732 9.02240891,11.6249723 5.81248614,11.6249723 C2.60256338,11.6249723 0,9.02334732 0,5.81248614 C0,2.60350179 2.60256338,0 5.81248614,0 Z M5.81248614,6.98435835 C5.21705147,6.98435835 4.73436371,7.4670461 4.73436371,8.06248078 C4.73436371,8.65791545 5.21705147,9.14060321 5.81248614,9.14060321 C6.40792082,9.14060321 6.89060857,8.65791545 6.89060857,8.06248078 C6.89060857,7.4670461 6.40792082,6.98435835 5.81248614,6.98435835 Z M6.55525171,2.81249329 L5.06969769,2.81249329 C4.90835927,2.81249329 4.78011708,2.94796813 4.78890612,3.10907767 L4.96276435,6.29657007 C4.97088964,6.44570912 5.09421088,6.56248435 5.24357881,6.56248435 L6.38139348,6.56248435 C6.53076141,6.56248435 6.65408265,6.44570912 6.66220793,6.29657007 L6.83606616,3.10907767 C6.8448552,2.94796813 6.71659013,2.81249329 6.55525171,2.81249329 Z"></path></clipPath><clipPath id="i1"><path d="M11,0 L11,11 L0,11 L0,0 L11,0 Z"></path></clipPath><clipPath id="i2"><path d="M35,0 L35,24 L0,24 L0,0 L35,0 Z"></path></clipPath></defs><g transform="translate(22.0 7.0)"><g transform="translate(-6.5 -6.5)"><g transform="translate(6.0 6.0)"><g clip-path="url(#i0)"><polygon points="0,0 11.6249723,0 11.6249723,11.6249723 0,11.6249723 0,0" stroke="none" fill="#C9190A"></polygon><g transform="translate(6.5 6.5)"><g clip-path="url(#i1)"><polygon points="0,0 5.12497228,0 5.12497228,5.12497228 0,5.12497228 0,0" stroke="none" fill="#C9190A"></polygon></g></g></g></g></g></g><g transform="translate(40.0 0.0)"><g clip-path="url(#i2)"><text transform="translate(0.0 14.0)" font-family="RedHatText-Regular, Red Hat Text" font-size="14.0" font-weight="normal" fill="#C9190A" text-anchor="left" line-spacing="28.0">Weak</text></g></g></svg>