<?xml version="1.0" encoding="UTF-8"?><svg version="1.1" width="446px" height="214px" viewBox="0 0 446.0 214.0" xmlns="http://www.w3.org/2000/svg" xmlns:xlink="http://www.w3.org/1999/xlink"><defs><filter id="i0" x="-3.930131%" y="-7.96460177%" filterUnits="userSpaceOnUse" width="105.240175%" height="110.619469%"><feGaussianBlur stdDeviation="3" in="SourceAlpha" result="i1"></feGaussianBlur><feOffset dx="0" dy="0" in="i1" result="i2"></feOffset><feColorMatrix values="0 0 0 0.0 0 0 0 0 0.0 0 0 0 0 0.0 0 0 0 0 0.08 0" type="matrix" in="i2"></feColorMatrix></filter><filter id="i3" x="-11.7154812%" y="-19.5121951%" filterUnits="userSpaceOnUse" width="116.736402%" height="132.520325%"><feGaussianBlur stdDeviation="8" in="SourceAlpha" result="i4"></feGaussianBlur><feOffset dx="0" dy="8" in="i4" result="i5"></feOffset><feColorMatrix values="0 0 0 0.0 0 0 0 0 0.0 0 0 0 0 0.0 0 0 0 0 0.16 0" type="matrix" in="i5"></feColorMatrix></filter><clipPath id="i6"><path d="M446,0 L446,214 L0,214 L0,0 L446,0 Z"></path></clipPath><clipPath id="i7"><path d="M0.98282389,0.287818222 C1.36688669,-0.0959394075 1.98907759,-0.0959394075 2.37280471,0.287818222 L5.5,3.41500803 L8.62718433,0.287818222 C9.01124713,-0.0959394075 9.63340751,-0.0959394075 10.0171651,0.287818222 L10.7121708,0.98282389 C11.0959284,1.36688669 11.0959284,1.98907759 10.7121708,2.37280471 L7.584981,5.5 L10.7121708,8.62718433 C11.0959284,9.01124713 11.0959284,9.63340751 10.7121708,10.0171651 L10.0171651,10.7121708 C9.63340751,11.0959284 9.01091144,11.0959284 8.62718433,10.7121708 L5.5,7.584981 L2.37280471,10.7121708 C1.98907759,11.0959284 1.36658152,11.0959284 0.98282389,10.7121708 L0.287818222,10.0171651 C-0.0959394075,9.63310234 -0.0959394075,9.01091144 0.287818222,8.62718433 L3.41500803,5.5 L0.287818222,2.37280471 C-0.0959394075,1.9887419 -0.0959394075,1.36658152 0.287818222,0.98282389 Z"></path></clipPath><clipPath id="i8"><path d="M8,0 L8,12 L0,12 L0,0 L8,0 Z"></path></clipPath><clipPath id="i9"><path d="M24,0 L24,214 L0,214 L0,0 L24,0 Z"></path></clipPath><clipPath id="i10"><path d="M398,0 L398,24 L0,24 L0,0 L398,0 Z"></path></clipPath><clipPath id="i11"><path d="M398,0 L398,16 L0,16 L0,0 L398,0 Z"></path></clipPath><clipPath id="i12"><path d="M112,0 C113.656854,-3.04359188e-16 115,1.34314575 115,3 L115,33 C115,34.6568542 113.656854,36 112,36 L3,36 C1.34314575,36 1.97926296e-15,34.6568542 0,33 L0,3 C-2.02906125e-16,1.34314575 1.34314575,-5.83819232e-16 3,0 L112,0 Z"></path></clipPath></defs><polygon points="0,0 446,0 446,214 0,214 0,0 0,0" stroke="none" fill="#000000" filter="url(#i0)"></polygon><polygon points="0,0 446,0 446,214 0,214 0,0 0,0" stroke="none" fill="#000000" filter="url(#i3)"></polygon><g clip-path="url(#i6)"><polygon points="0,0 446,0 446,214 0,214 0,0" stroke="none" fill="#FFFFFF"></polygon></g><g transform="translate(398.0 28.0)"><g transform="translate(8.0 6.0)"><g transform="translate(-8.0 -6.0)"><g transform="translate(7.000000000000001 7.000000000000001)"><g clip-path="url(#i7)"><polygon points="0,0 10.999989,0 10.999989,10.999989 0,10.999989 0,0" stroke="none" fill="#696E73"></polygon><g transform="translate(8.0 6.0)"><g clip-path="url(#i8)"><polygon points="0,0 2.99998903,0 2.99998903,4.99998903 0,4.99998903 0,0" stroke="none" fill="#696E73"></polygon></g></g></g></g></g></g></g><g transform="translate(24.0 24.0)"><text transform="translate(0.0 24.0)" font-family="RedHatDisplay-Medium, Red Hat Display" font-size="24.0" font-weight="500" fill="#151515" text-anchor="left" line-spacing="31.2">Modal title</text></g><g transform=""><g clip-path="url(#i9)"><polygon points="0,0 24,0 24,214 0,214 0,0" stroke="none" fill="rgba(0, 121, 135, 0.9)"></polygon></g><g clip-path="url(#i9)"><polygon points="0,0 24,0 24,214 0,214 0,0 0,0" stroke="#09707A" stroke-width="2" fill="none" stroke-miterlimit="5"></polygon></g><g transform="translate(422.0 0.0)"><g clip-path="url(#i9)"><polygon points="0,0 24,0 24,214 0,214 0,0" stroke="none" fill="rgba(0, 121, 135, 0.9)"></polygon></g><g clip-path="url(#i9)"><polygon points="0,0 24,0 24,214 0,214 0,0 0,0" stroke="#09707A" stroke-width="2" fill="none" stroke-miterlimit="5"></polygon></g></g><g transform="translate(24.0 0.0)"><g clip-path="url(#i10)"><polygon points="0,0 398,0 398,24 0,24 0,0" stroke="none" fill="rgba(0, 121, 135, 0.9)"></polygon></g><g clip-path="url(#i10)"><polygon points="0,0 398,0 398,24 0,24 0,0 0,0" stroke="#09707A" stroke-width="2" fill="none" stroke-miterlimit="5"></polygon></g></g><g transform="translate(24.0 190.0)"><g clip-path="url(#i10)"><polygon points="0,0 398,0 398,24 0,24 0,0" stroke="none" fill="rgba(0, 121, 135, 0.9)"></polygon></g><g clip-path="url(#i10)"><polygon points="0,0 398,0 398,24 0,24 0,0 0,0" stroke="#09707A" stroke-width="2" fill="none" stroke-miterlimit="5"></polygon></g></g><g transform="translate(24.0 55.0)"><g clip-path="url(#i11)"><polygon points="0,0 398,0 398,16 0,16 0,0" stroke="none" fill="rgba(62, 156, 52, 0.9)"></polygon></g><g clip-path="url(#i11)"><polygon points="0,0 398,0 398,16 0,16 0,0 0,0" stroke="#418A37" stroke-width="2" fill="none" stroke-miterlimit="5"></polygon></g></g></g><g transform="translate(24.0 154.0)"><g clip-path="url(#i12)"><polygon points="0,0 115,0 115,36 0,36 0,0" stroke="none" fill="#0066CC"></polygon></g><g transform="translate(16.0 6.0)"><text transform="translate(0.3879999999999981 16.0)" font-family="RedHatText-Regular, Red Hat Text" font-size="16.0" font-weight="normal" fill="#FFFFFF" text-anchor="center" line-spacing="24.0">Action item</text></g><g transform="translate(123.0 0.0)"><g transform="translate(16.0 6.0)"><text transform="translate(0.0 16.0)" font-family="RedHatText-Regular, Red Hat Text" font-size="16.0" font-weight="normal" fill="#0066CC" text-anchor="left" line-spacing="24.0">Cancel</text></g></g></g></svg>