<?xml version="1.0" encoding="UTF-8"?>
<svg width="446px" height="214px" viewBox="0 0 446 214" version="1.1" xmlns="http://www.w3.org/2000/svg" xmlns:xlink="http://www.w3.org/1999/xlink">
    <title></title>
    <defs>
        <rect id="path-1" x="0" y="0" width="446" height="214"></rect>
        <filter x="-6.3%" y="-9.3%" width="112.6%" height="126.2%" filterUnits="objectBoundingBox" id="filter-2">
            <feOffset dx="0" dy="0" in="SourceAlpha" result="shadowOffsetOuter1"></feOffset>
            <feGaussianBlur stdDeviation="3" in="shadowOffsetOuter1" result="shadowBlurOuter1"></feGaussianBlur>
            <feColorMatrix values="0 0 0 0 0   0 0 0 0 0   0 0 0 0 0  0 0 0 0.08 0" type="matrix" in="shadowBlurOuter1" result="shadowMatrixOuter1"></feColorMatrix>
            <feOffset dx="0" dy="8" in="SourceAlpha" result="shadowOffsetOuter2"></feOffset>
            <feGaussianBlur stdDeviation="8" in="shadowOffsetOuter2" result="shadowBlurOuter2"></feGaussianBlur>
            <feColorMatrix values="0 0 0 0 0   0 0 0 0 0   0 0 0 0 0  0 0 0 0.16 0" type="matrix" in="shadowBlurOuter2" result="shadowMatrixOuter2"></feColorMatrix>
            <feMerge>
                <feMergeNode in="shadowMatrixOuter1"></feMergeNode>
                <feMergeNode in="shadowMatrixOuter2"></feMergeNode>
            </feMerge>
        </filter>
    </defs>
    <g id="Modal" stroke="none" stroke-width="1" fill="none" fill-rule="evenodd">
        <g id="Modal-/-4.-Warning-alert">
            <g id="Background">
                <use fill="black" fill-opacity="1" filter="url(#filter-2)" xlink:href="#path-1"></use>
                <use fill="#FFFFFF" fill-rule="evenodd" xlink:href="#path-1"></use>
            </g>
            <g id="Close-Button" transform="translate(398.000000, 28.000000)">
                <g id="ðŸ–¼-Icon" transform="translate(7.000000, 7.000000)" fill="#6A6E73">
                    <g id="times">
                        <path d="M2.37280471,10.7121708 L5.5,7.584981 L8.62718433,10.7121708 C9.01091144,11.0959284 9.63340751,11.0959284 10.0171651,10.7121708 L10.7121708,10.0171651 C11.0959284,9.63340751 11.0959284,9.01124713 10.7121708,8.62718433 L7.584981,5.5 L10.7121708,2.37280471 C11.0959284,1.98907759 11.0959284,1.36688669 10.7121708,0.98282389 L10.0171651,0.287818222 C9.63340751,-0.0959394075 9.01124713,-0.0959394075 8.62718433,0.287818222 L5.5,3.41500803 L2.37280471,0.287818222 C1.98907759,-0.0959394075 1.36688669,-0.0959394075 0.98282389,0.287818222 L0.287818222,0.98282389 C-0.0959394075,1.36658152 -0.0959394075,1.9887419 0.287818222,2.37280471 L3.41500803,5.5 L0.287818222,8.62718433 C-0.0959394075,9.01091144 -0.0959394075,9.63310234 0.287818222,10.0171651 L0.98282389,10.7121708 C1.36658152,11.0959284 1.98907759,11.0959284 2.37280471,10.7121708 Z"></path>
                    </g>
                    <rect id="ðŸŽ¨-Color" x="1" y="-1" width="8" height="12"></rect>
                </g>
                <g id="ðŸ“-Padding" fill-opacity="0.9">
                    <g id="Spacer-/-Horizontal-/-3.-pf-global--spacer--md-(16px)" fill="#92D400" stroke="#7FB300">
                        <rect id="Rectangle-Copy" x="0.5" y="0.5" width="7" height="35"></rect>
                    </g>
                    <g id="Spacer-/-Horizontal-/-3.-pf-global--spacer--md-(16px)" transform="translate(32.000000, 0.000000)" fill="#92D400" stroke="#7FB300">
                        <rect id="Rectangle-Copy" x="0.5" y="0.5" width="7" height="35"></rect>
                    </g>
                    <g id="Spacer-/-Vertical-/-8.-pf-global--spacer--form-element-(6px)" transform="translate(8.000000, 0.000000)" fill="#F3D53C" stroke="#CBB534">
                        <rect id="Rectangle" x="0.5" y="0.5" width="23" height="5"></rect>
                    </g>
                    <g id="Spacer-/-Vertical-/-8.-pf-global--spacer--form-element-(6px)" transform="translate(8.000000, 30.000000)" fill="#F3D53C" stroke="#CBB534">
                        <rect id="Rectangle" x="0.5" y="0.5" width="23" height="5"></rect>
                    </g>
                </g>
            </g>
            <text id="âœï¸-Title" font-family="RedHatDisplay-Medium, Red Hat Display" font-size="24" font-weight="500" line-spacing="31.2" fill="#151515">
                <tspan x="64" y="48">Modal title</tspan>
            </text>
            <g id="Icons/3.-Size-lg-(24px)/Status/exclamation-triangle" transform="translate(23.000000, 25.000000)" fill="#F0AB00">
                <path d="M24.7471762,23.999943 C26.4752299,23.999943 27.5612716,22.1252679 26.6960546,20.6255462 L15.4489195,1.12431091 C14.5848011,-0.373396701 12.4167002,-0.376143276 11.5510711,1.12431091 L0.303615663,20.6255462 C-0.559907669,22.122384 0.521144441,23.999943 2.25253985,23.999943 L24.7471762,23.999943 Z M14.63781,15.7499627 L12.3621807,15.7499627 C12.0634448,15.7499627 11.8168023,15.5164122 11.8005518,15.2181341 L11.4528353,8.84314932 C11.4352572,8.52093024 11.6917416,8.24998057 12.0144184,8.24998057 L14.9855265,8.24998057 C15.3082033,8.24998057 15.5647335,8.52093024 15.5471554,8.84314932 L15.1994389,15.2181341 C15.1831883,15.5164122 14.9365459,15.7499627 14.63781,15.7499627 Z M13.4999953,20.9062004 C12.309126,20.9062004 11.3437505,19.9408249 11.3437505,18.7499555 C11.3437505,17.5590862 12.309126,16.5937107 13.4999953,16.5937107 C14.6908647,16.5937107 15.6562402,17.5590862 15.6562402,18.7499555 C15.6562402,19.9408249 14.6908647,20.9062004 13.4999953,20.9062004 Z" id="exclamation-triangle"></path>
            </g>
            <g id="buttons" transform="translate(24.000000, 154.000000)">
                <g id="Button-/-1.-Primary-/-Default">
                    <rect id="Background" fill="#0066CC" x="0" y="0" width="115" height="36" rx="3"></rect>
                    <text id="âœï¸-Label" font-family="RedHatText-Regular, Red Hat Text" font-size="16" font-weight="normal" line-spacing="24" fill="#FFFFFF">
                        <tspan x="16.388" y="22">Action item</tspan>
                    </text>
                </g>
                <g id="Button-/-1.-Primary-/-Default" transform="translate(123.000000, 0.000000)">
                    <rect id="Background" x="0" y="0" width="82" height="36" rx="3"></rect>
                    <text id="âœï¸-Label" font-family="RedHatText-Regular, Red Hat Text" font-size="16" font-weight="normal" line-spacing="24" fill="#0066CC">
                        <tspan x="16" y="22">Cancel</tspan>
                    </text>
                    <g id="ðŸ“-Padding" fill-opacity="0.9">
                        <g id="Spacer-/-Horizontal-/-3.-pf-global--spacer--md-(16px)" fill="#3F9C35" stroke="#418A38">
                            <rect id="Rectangle-Copy-2" x="0.5" y="0.5" width="15" height="35"></rect>
                        </g>
                        <g id="Spacer-/-Horizontal-/-3.-pf-global--spacer--md-(16px)" transform="translate(66.000000, 0.000000)" fill="#3F9C35" stroke="#418A38">
                            <rect id="Rectangle-Copy-2" x="0.5" y="0.5" width="15" height="35"></rect>
                        </g>
                        <g id="Spacer-/-Vertical-/-8.-pf-global--spacer--form-element-(6px)" transform="translate(16.000000, 0.000000)" fill="#F3D53C" stroke="#CBB534">
                            <rect id="Rectangle" x="0.5" y="0.5" width="49" height="5"></rect>
                        </g>
                        <g id="Spacer-/-Vertical-/-8.-pf-global--spacer--form-element-(6px)" transform="translate(16.000000, 30.000000)" fill="#F3D53C" stroke="#CBB534">
                            <rect id="Rectangle" x="0.5" y="0.5" width="49" height="5"></rect>
                        </g>
                    </g>
                </g>
            </g>
            <g id="ðŸ“-Padding" fill-opacity="0.9">
                <g id="Spacer-/-Horizontal-/-4.-pf-global--spacer--lg-(24px)" fill="#007A87" stroke="#09707B">
                    <rect id="Rectangle-Copy-3" x="0.5" y="0.5" width="23" height="213"></rect>
                </g>
                <g id="Spacer-/-Horizontal-/-4.-pf-global--spacer--lg-(24px)" transform="translate(422.000000, 0.000000)" fill="#007A87" stroke="#09707B">
                    <rect id="Rectangle-Copy-3" x="0.5" y="0.5" width="23" height="213"></rect>
                </g>
                <g id="Spacer-/-Vertical-/-4.-pf-global--spacer--lg-(24px)" transform="translate(24.000000, 0.000000)" fill="#007A87" stroke="#09707B">
                    <rect id="Rectangle-Copy-3" x="0.5" y="0.5" width="397" height="23"></rect>
                </g>
                <g id="Spacer-/-Vertical-/-4.-pf-global--spacer--lg-(24px)" transform="translate(24.000000, 190.000000)" fill="#007A87" stroke="#09707B">
                    <rect id="Rectangle-Copy-3" x="0.5" y="0.5" width="397" height="23"></rect>
                </g>
                <g id="Spacer-/-Vertical-/-3.-pf-global--spacer--md-(16px)" transform="translate(24.000000, 55.000000)" fill="#3F9C35" stroke="#418A38">
                    <rect id="Rectangle-Copy-2" x="0.5" y="0.5" width="397" height="15"></rect>
                </g>
            </g>
        </g>
    </g>
</svg>