<?xml version="1.0" encoding="UTF-8"?><svg version="1.1" width="446px" height="214px" viewBox="0 0 446.0 214.0" xmlns="http://www.w3.org/2000/svg" xmlns:xlink="http://www.w3.org/1999/xlink"><defs><filter id="i0" x="-3.930131%" y="-7.96460177%" filterUnits="userSpaceOnUse" width="105.240175%" height="110.619469%"><feGaussianBlur stdDeviation="3" in="SourceAlpha" result="i1"></feGaussianBlur><feOffset dx="0" dy="0" in="i1" result="i2"></feOffset><feColorMatrix values="0 0 0 0.0 0 0 0 0 0.0 0 0 0 0 0.0 0 0 0 0 0.08 0" type="matrix" in="i2"></feColorMatrix></filter><filter id="i3" x="-11.7154812%" y="-19.5121951%" filterUnits="userSpaceOnUse" width="116.736402%" height="132.520325%"><feGaussianBlur stdDeviation="8" in="SourceAlpha" result="i4"></feGaussianBlur><feOffset dx="0" dy="8" in="i4" result="i5"></feOffset><feColorMatrix values="0 0 0 0.0 0 0 0 0 0.0 0 0 0 0 0.0 0 0 0 0 0.16 0" type="matrix" in="i5"></feColorMatrix></filter><clipPath id="i6"><path d="M446,0 L446,214 L0,214 L0,0 L446,0 Z"></path></clipPath><clipPath id="i7"><path d="M0.98282389,0.287818222 C1.36688669,-0.0959394075 1.98907759,-0.0959394075 2.37280471,0.287818222 L5.5,3.41500803 L8.62718433,0.287818222 C9.01124713,-0.0959394075 9.63340751,-0.0959394075 10.0171651,0.287818222 L10.7121708,0.98282389 C11.0959284,1.36688669 11.0959284,1.98907759 10.7121708,2.37280471 L7.584981,5.5 L10.7121708,8.62718433 C11.0959284,9.01124713 11.0959284,9.63340751 10.7121708,10.0171651 L10.0171651,10.7121708 C9.63340751,11.0959284 9.01091144,11.0959284 8.62718433,10.7121708 L5.5,7.584981 L2.37280471,10.7121708 C1.98907759,11.0959284 1.36658152,11.0959284 0.98282389,10.7121708 L0.287818222,10.0171651 C-0.0959394075,9.63310234 -0.0959394075,9.01091144 0.287818222,8.62718433 L3.41500803,5.5 L0.287818222,2.37280471 C-0.0959394075,1.9887419 -0.0959394075,1.36658152 0.287818222,0.98282389 Z"></path></clipPath><clipPath id="i8"><path d="M8,0 L8,12 L0,12 L0,0 L8,0 Z"></path></clipPath><clipPath id="i9"><path d="M11.5510711,1.12431091 C12.4167002,-0.376143276 14.5848011,-0.373396701 15.4489195,1.12431091 L26.6960546,20.6255462 C27.5612716,22.1252679 26.4752299,23.999943 24.7471762,23.999943 L2.25253985,23.999943 C0.521144441,23.999943 -0.559907669,22.122384 0.303615663,20.6255462 Z M13.4999953,16.5937107 C12.309126,16.5937107 11.3437505,17.5590862 11.3437505,18.7499555 C11.3437505,19.9408249 12.309126,20.9062004 13.4999953,20.9062004 C14.6908647,20.9062004 15.6562402,19.9408249 15.6562402,18.7499555 C15.6562402,17.5590862 14.6908647,16.5937107 13.4999953,16.5937107 Z M14.9855265,8.24998057 L12.0144184,8.24998057 C11.6917416,8.24998057 11.4352572,8.52093024 11.4528353,8.84314932 L11.8005518,15.2181341 C11.8168023,15.5164122 12.0634448,15.7499627 12.3621807,15.7499627 L14.63781,15.7499627 C14.9365459,15.7499627 15.1831883,15.5164122 15.1994389,15.2181341 L15.5471554,8.84314932 C15.5647335,8.52093024 15.3082033,8.24998057 14.9855265,8.24998057 Z"></path></clipPath><clipPath id="i10"><path d="M24,0 L24,214 L0,214 L0,0 L24,0 Z"></path></clipPath><clipPath id="i11"><path d="M398,0 L398,24 L0,24 L0,0 L398,0 Z"></path></clipPath><clipPath id="i12"><path d="M398,0 L398,16 L0,16 L0,0 L398,0 Z"></path></clipPath><clipPath id="i13"><path d="M78,0 C79.6568542,-3.04359188e-16 81,1.34314575 81,3 L81,33 C81,34.6568542 79.6568542,36 78,36 L3,36 C1.34314575,36 2.02906125e-16,34.6568542 0,33 L0,3 C-2.02906125e-16,1.34314575 1.34314575,-1.39730022e-16 3,0 L78,0 Z"></path></clipPath></defs><polygon points="0,0 446,0 446,214 0,214 0,0 0,0" stroke="none" fill="#000000" filter="url(#i0)"></polygon><polygon points="0,0 446,0 446,214 0,214 0,0 0,0" stroke="none" fill="#000000" filter="url(#i3)"></polygon><g clip-path="url(#i6)"><polygon points="0,0 446,0 446,214 0,214 0,0" stroke="none" fill="#FFFFFF"></polygon></g><g transform="translate(398.0 28.0)"><g transform="translate(8.0 6.0)"><g transform="translate(-8.0 -6.0)"><g transform="translate(7.000000000000001 7.000000000000001)"><g clip-path="url(#i7)"><polygon points="0,0 10.999989,0 10.999989,10.999989 0,10.999989 0,0" stroke="none" fill="#696E73"></polygon><g transform="translate(8.0 6.0)"><g clip-path="url(#i8)"><polygon points="0,0 2.99998903,0 2.99998903,4.99998903 0,4.99998903 0,0" stroke="none" fill="#696E73"></polygon></g></g></g></g></g></g></g><g transform="translate(64.0 24.00000000000002)"><text transform="translate(0.0 24.0)" font-family="RedHatDisplay-Medium, Red Hat Display" font-size="24.0" font-weight="500" fill="#151515" text-anchor="left" line-spacing="31.2">Delete [action]?</text></g><g transform="translate(24.0 25.0)"><g transform="translate(-1.0 0.0)"><g clip-path="url(#i9)"><polygon points="5.50115509e-14,-8.8817842e-15 26.9999398,-8.8817842e-15 26.9999398,23.999943 5.50115509e-14,23.999943 5.50115509e-14,-8.8817842e-15" stroke="none" fill="#F0AB00"></polygon></g></g></g><g clip-path="url(#i10)"><polygon points="0,0 24,0 24,214 0,214 0,0" stroke="none" fill="rgba(0, 121, 135, 0.9)"></polygon></g><g clip-path="url(#i10)"><polygon points="0,0 24,0 24,214 0,214 0,0 0,0" stroke="#09707A" stroke-width="2" fill="none" stroke-miterlimit="5"></polygon></g><g transform="translate(422.0 0.0)"><g clip-path="url(#i10)"><polygon points="0,0 24,0 24,214 0,214 0,0" stroke="none" fill="rgba(0, 121, 135, 0.9)"></polygon></g><g clip-path="url(#i10)"><polygon points="0,0 24,0 24,214 0,214 0,0 0,0" stroke="#09707A" stroke-width="2" fill="none" stroke-miterlimit="5"></polygon></g></g><g transform="translate(24.0 0.0)"><g clip-path="url(#i11)"><polygon points="0,0 398,0 398,24 0,24 0,0" stroke="none" fill="rgba(0, 121, 135, 0.9)"></polygon></g><g clip-path="url(#i11)"><polygon points="0,0 398,0 398,24 0,24 0,0 0,0" stroke="#09707A" stroke-width="2" fill="none" stroke-miterlimit="5"></polygon></g></g><g transform="translate(24.0 190.0)"><g clip-path="url(#i11)"><polygon points="0,0 398,0 398,24 0,24 0,0" stroke="none" fill="rgba(0, 121, 135, 0.9)"></polygon></g><g clip-path="url(#i11)"><polygon points="0,0 398,0 398,24 0,24 0,0 0,0" stroke="#09707A" stroke-width="2" fill="none" stroke-miterlimit="5"></polygon></g></g><g transform="translate(24.0 55.0)"><g clip-path="url(#i12)"><polygon points="0,0 398,0 398,16 0,16 0,0" stroke="none" fill="rgba(62, 156, 52, 0.9)"></polygon></g><g clip-path="url(#i12)"><polygon points="0,0 398,0 398,16 0,16 0,0 0,0" stroke="#418A37" stroke-width="2" fill="none" stroke-miterlimit="5"></polygon></g></g><g transform="translate(24.0 154.0)"><g clip-path="url(#i13)"><polygon points="0,0 81,0 81,36 0,36 0,0" stroke="none" fill="#C9190A"></polygon></g><g transform="translate(16.0 6.0)"><text transform="translate(0.49999999999999645 16.0)" font-family="RedHatText-Regular, Red Hat Text" font-size="16.0" font-weight="normal" fill="#FFFFFF" text-anchor="center" line-spacing="24.0">Delete</text></g><g transform="translate(89.0 0.0)"><g transform="translate(16.0 6.0)"><text transform="translate(0.0 16.0)" font-family="RedHatText-Regular, Red Hat Text" font-size="16.0" font-weight="normal" fill="#0066CC" text-anchor="left" line-spacing="24.0">Cancel</text></g></g></g></svg>