<?xml version="1.0" encoding="UTF-8"?>
<svg width="446px" height="214px" viewBox="0 0 446 214" version="1.1" xmlns="http://www.w3.org/2000/svg" xmlns:xlink="http://www.w3.org/1999/xlink">
    <title></title>
    <defs>
        <rect id="path-1" x="0" y="0" width="446" height="214"></rect>
        <filter x="-6.3%" y="-9.3%" width="112.6%" height="126.2%" filterUnits="objectBoundingBox" id="filter-2">
            <feOffset dx="0" dy="0" in="SourceAlpha" result="shadowOffsetOuter1"></feOffset>
            <feGaussianBlur stdDeviation="3" in="shadowOffsetOuter1" result="shadowBlurOuter1"></feGaussianBlur>
            <feColorMatrix values="0 0 0 0 0   0 0 0 0 0   0 0 0 0 0  0 0 0 0.08 0" type="matrix" in="shadowBlurOuter1" result="shadowMatrixOuter1"></feColorMatrix>
            <feOffset dx="0" dy="8" in="SourceAlpha" result="shadowOffsetOuter2"></feOffset>
            <feGaussianBlur stdDeviation="8" in="shadowOffsetOuter2" result="shadowBlurOuter2"></feGaussianBlur>
            <feColorMatrix values="0 0 0 0 0   0 0 0 0 0   0 0 0 0 0  0 0 0 0.16 0" type="matrix" in="shadowBlurOuter2" result="shadowMatrixOuter2"></feColorMatrix>
            <feMerge>
                <feMergeNode in="shadowMatrixOuter1"></feMergeNode>
                <feMergeNode in="shadowMatrixOuter2"></feMergeNode>
            </feMerge>
        </filter>
    </defs>
    <g id="Modal" stroke="none" stroke-width="1" fill="none" fill-rule="evenodd">
        <g id="Modal-/-With-help-icon">
            <g id="Background">
                <use fill="black" fill-opacity="1" filter="url(#filter-2)" xlink:href="#path-1"></use>
                <use fill="#FFFFFF" fill-rule="evenodd" xlink:href="#path-1"></use>
            </g>
            <g id="Close-Button" transform="translate(398.000000, 28.000000)">
                <rect id="Background" x="0" y="0" width="40" height="36" rx="3"></rect>
                <g id="ðŸ–¼-Icon" transform="translate(8.000000, 6.000000)" fill="#6A6E73">
                    <g id="ðŸ–¼-Icon" transform="translate(-8.000000, -6.000000)">
                        <path d="M9.37280471,17.7121708 L12.5,14.584981 L15.6271843,17.7121708 C16.0109114,18.0959284 16.6334075,18.0959284 17.0171651,17.7121708 L17.7121708,17.0171651 C18.0959284,16.6334075 18.0959284,16.0112471 17.7121708,15.6271843 L14.584981,12.5 L17.7121708,9.37280471 C18.0959284,8.98907759 18.0959284,8.36688669 17.7121708,7.98282389 L17.0171651,7.28781822 C16.6334075,6.90406059 16.0112471,6.90406059 15.6271843,7.28781822 L12.5,10.415008 L9.37280471,7.28781822 C8.98907759,6.90406059 8.36688669,6.90406059 7.98282389,7.28781822 L7.28781822,7.98282389 C6.90406059,8.36658152 6.90406059,8.9887419 7.28781822,9.37280471 L10.415008,12.5 L7.28781822,15.6271843 C6.90406059,16.0109114 6.90406059,16.6331023 7.28781822,17.0171651 L7.98282389,17.7121708 C8.36658152,18.0959284 8.98907759,18.0959284 9.37280471,17.7121708 Z" id="times"></path>
                    </g>
                    <rect id="ðŸŽ¨-Color" x="0" y="0" width="8" height="12"></rect>
                </g>
                <g id="ðŸ“-Padding" fill-opacity="0.9">
                    <g id="Spacer-/-Horizontal-/-2.-pf-global--spacer--sm-(8px)" fill="#92D400" stroke="#7FB300">
                        <rect id="Rectangle-Copy" x="0.5" y="0.5" width="7" height="35"></rect>
                    </g>
                    <g id="Spacer-/-Horizontal-/-2.-pf-global--spacer--sm-(8px)" transform="translate(32.000000, 0.000000)" fill="#92D400" stroke="#7FB300">
                        <rect id="Rectangle-Copy" x="0.5" y="0.5" width="7" height="35"></rect>
                    </g>
                    <g id="Spacer-/-Vertical-/-8.-pf-global--spacer--form-element-(6px)" transform="translate(8.000000, 0.000000)" fill="#F3D53C" stroke="#CBB534">
                        <rect id="Rectangle" x="0.5" y="0.5" width="23" height="5"></rect>
                    </g>
                    <g id="Spacer-/-Vertical-/-8.-pf-global--spacer--form-element-(6px)" transform="translate(8.000000, 30.000000)" fill="#F3D53C" stroke="#CBB534">
                        <rect id="Rectangle" x="0.5" y="0.5" width="23" height="5"></rect>
                    </g>
                </g>
            </g>
            <g id="Close-Button" transform="translate(366.000000, 29.000000)">
                <rect id="Background" x="0" y="0" width="40" height="36" rx="3"></rect>
                <g id="ðŸ–¼-Icon" transform="translate(8.000000, 6.000000)" fill="#6A6E73">
                    <g id="ðŸ–¼-Icon" transform="translate(-8.000000, -6.000000)">
                        <path d="M11.7499815,19.499963 C16.0298785,19.499963 19.499963,16.0311298 19.499963,11.7499815 C19.499963,7.47133572 16.0298785,4 11.7499815,4 C7.4700845,4 4,7.47133572 4,11.7499815 C4,16.0311298 7.4700845,19.499963 11.7499815,19.499963 Z M11.7499815,17.9999666 C8.29585768,17.9999666 5.49999642,15.205265 5.49999642,11.7499815 C5.49999642,8.29701734 8.29597975,5.49999642 11.7499815,5.49999642 C15.2028236,5.49999642 17.9999666,8.29594923 17.9999666,11.7499815 C17.9999666,15.2040443 15.205265,17.9999666 11.7499815,17.9999666 Z M12.4632061,13.4999774 C12.6702979,13.4999774 12.8382052,13.33207 12.8382052,13.1249782 L12.8382052,12.9269502 C12.8382052,12.152599 15.1013529,12.120342 15.1013529,10.0249795 C15.1013529,8.44698036 13.464516,7.24999225 11.9310419,7.24999225 C10.466873,7.24999225 9.52641505,7.85909114 8.78807452,8.94325604 C8.67537337,9.1088135 8.71110937,9.33360545 8.87071593,9.45460736 L9.74019017,10.1139381 C9.90287899,10.2372593 10.1342322,10.2075352 10.2610019,10.0475625 C10.7312767,9.45405804 11.0658096,9.11101076 11.7904477,9.11101076 C12.3462325,9.11101076 13.0337004,9.46873696 13.0337004,10.0076761 C13.0337004,10.4151153 12.697367,10.6243739 12.1485707,10.9320208 C11.5086186,11.2908151 10.6617273,11.7373473 10.6617273,12.8543795 L10.6617273,13.1249782 C10.6617273,13.33207 10.8296346,13.4999774 11.0367264,13.4999774 L12.4632061,13.4999774 Z M11.7499815,16.56247 C12.4737042,16.56247 13.0624784,15.9736958 13.0624784,15.2499732 C13.0624784,14.5262505 12.4737042,13.9374763 11.7499815,13.9374763 C11.0262589,13.9374763 10.4374847,14.5262505 10.4374847,15.2499732 C10.4374847,15.9736958 11.0262589,16.56247 11.7499815,16.56247 Z" id="question-circle"></path>
                    </g>
                    <rect id="ðŸŽ¨-Color" x="0" y="0" width="8" height="12"></rect>
                </g>
                <g id="ðŸ“-Padding" fill-opacity="0.9">
                    <g id="Spacer-/-Horizontal-/-2.-pf-global--spacer--sm-(8px)" fill="#92D400" stroke="#7FB300">
                        <rect id="Rectangle-Copy" x="0.5" y="0.5" width="7" height="35"></rect>
                    </g>
                    <g id="Spacer-/-Horizontal-/-2.-pf-global--spacer--sm-(8px)" transform="translate(32.000000, 0.000000)" fill="#92D400" stroke="#7FB300">
                        <rect id="Rectangle-Copy" x="0.5" y="0.5" width="7" height="35"></rect>
                    </g>
                    <g id="Spacer-/-Vertical-/-8.-pf-global--spacer--form-element-(6px)" transform="translate(8.000000, 0.000000)" fill="#F3D53C" stroke="#CBB534">
                        <rect id="Rectangle" x="0.5" y="0.5" width="23" height="5"></rect>
                    </g>
                    <g id="Spacer-/-Vertical-/-8.-pf-global--spacer--form-element-(6px)" transform="translate(8.000000, 30.000000)" fill="#F3D53C" stroke="#CBB534">
                        <rect id="Rectangle" x="0.5" y="0.5" width="23" height="5"></rect>
                    </g>
                </g>
            </g>
            <text id="âœï¸-Title" font-family="RedHatDisplay-Medium, Red Hat Display" font-size="24" font-weight="400" line-spacing="31.2" fill="#151515">
                <tspan x="24" y="48">Modal title</tspan>
            </text>
            <g id="ðŸ“-Padding" transform="translate(0.000000, 0.000000)" fill-opacity="0.9">
                <g id="Spacer-/-Horizontal-/-4.-pf-global--spacer--lg-(24px)" fill="#007A87" stroke="#09707B">
                    <rect id="Rectangle-Copy-3" x="0.5" y="0.5" width="23" height="213"></rect>
                </g>
                <g id="Spacer-/-Horizontal-/-4.-pf-global--spacer--lg-(24px)" transform="translate(422.000000, 0.000000)" fill="#007A87" stroke="#09707B">
                    <rect id="Rectangle-Copy-3" x="0.5" y="0.5" width="23" height="213"></rect>
                </g>
                <g id="Spacer-/-Vertical-/-4.-pf-global--spacer--lg-(24px)" transform="translate(24.000000, 0.000000)" fill="#007A87" stroke="#09707B">
                    <rect id="Rectangle-Copy-3" x="0.5" y="0.5" width="397" height="23"></rect>
                </g>
                <g id="Spacer-/-Vertical-/-4.-pf-global--spacer--lg-(24px)" transform="translate(24.000000, 190.000000)" fill="#007A87" stroke="#09707B">
                    <rect id="Rectangle-Copy-3" x="0.5" y="0.5" width="397" height="23"></rect>
                </g>
                <g id="Spacer-/-Vertical-/-3.-pf-global--spacer--md-(16px)" transform="translate(24.000000, 55.000000)" fill="#3F9C35" stroke="#418A38">
                    <rect id="Rectangle-Copy-2" x="0.5" y="0.5" width="397" height="15"></rect>
                </g>
            </g>
        </g>
    </g>
</svg>