<?xml version="1.0" encoding="UTF-8"?><svg version="1.1" width="158px" height="32px" viewBox="0 0 158.0 32.0" xmlns="http://www.w3.org/2000/svg" xmlns:xlink="http://www.w3.org/1999/xlink"><defs><clipPath id="i0"><path d="M158,0 L158,32 L0,32 L0,0 L158,0 Z"></path></clipPath><clipPath id="i1"><path d="M1,0 L1,32 L0,32 L0,0 L1,0 Z"></path></clipPath><clipPath id="i2"><path d="M16,0 L16,40 L0,40 L0,0 L16,0 Z"></path></clipPath><clipPath id="i3"><path d="M118,0 L118,8 L0,8 L0,0 L118,0 Z"></path></clipPath></defs><g transform=""><g clip-path="url(#i0)"><polygon points="0,0 158,0 158,32 0,32 0,0" stroke="none" fill="#FFFFFF"></polygon></g></g><g transform="translate(24.0 0.0)"><text transform="translate(0.0 16.0)" font-family="RedHatText-Regular, Red Hat Text" font-size="16.0" font-weight="normal" fill="#151515" text-anchor="left" line-spacing="24.0">Hover section</text></g><g clip-path="url(#i1)"><polygon points="0,0 1,0 1,32 0,32 0,0" stroke="none" fill="#FFFFFF"></polygon><polygon points="0,0 1,0 1,32 0,32 0,0 0,0" stroke="#D2D2D2" stroke-width="2" fill="none" stroke-miterlimit="5"></polygon></g><g transform=""><g clip-path="url(#i2)"><polygon points="0,0 16,0 16,40 0,40 0,0" stroke="none" fill="rgba(62, 156, 52, 0.9)"></polygon></g><g clip-path="url(#i2)"><polygon points="0,0 16,0 16,40 0,40 0,0 0,0" stroke="#418A37" stroke-width="2" fill="none" stroke-miterlimit="5"></polygon></g></g><g transform="translate(134.0 0.0)"><g clip-path="url(#i2)"><polygon points="0,0 16,0 16,40 0,40 0,0" stroke="none" fill="rgba(62, 156, 52, 0.9)"></polygon></g><g clip-path="url(#i2)"><polygon points="0,0 16,0 16,40 0,40 0,0 0,0" stroke="#418A37" stroke-width="2" fill="none" stroke-miterlimit="5"></polygon></g></g><g transform="translate(16.0 5.684341886080802e-14)"><g transform=""><g clip-path="url(#i3)"><polygon points="0,0 118,0 118,8 0,8 0,0" stroke="none" fill="rgba(146, 211, 0, 0.9)"></polygon></g><g clip-path="url(#i3)"><polygon points="0,0 118,0 118,8 0,8 0,0 0,0" stroke="#7EB200" stroke-width="2" fill="none" stroke-miterlimit="5"></polygon></g></g></g></svg>