<?xml version="1.0" encoding="UTF-8"?><svg version="1.1" width="40px" height="36px" viewBox="0 0 40.0 36.0" xmlns="http://www.w3.org/2000/svg" xmlns:xlink="http://www.w3.org/1999/xlink"><defs><clipPath id="i0"><path d="M40,0 L40,36 L0,36 L0,0 L40,0 Z"></path></clipPath><clipPath id="i1"><path d="M6.4999845,0 C10.0906131,0 12.999969,2.90935586 12.999969,6.4999845 C12.999969,8.0093498 12.487458,9.3968587 11.6249723,10.499975 L12.13434,10.499975 C12.3343517,10.499975 12.524964,10.5780998 12.6655887,10.7187244 L15.7812124,13.8343481 C16.0718306,14.1280791 16.0718306,14.6030841 15.7780996,14.8968456 L14.8937023,15.7812124 C14.6030841,16.0749739 14.1280791,16.0749739 13.8343481,15.7812124 L10.7187244,12.6655887 C10.5780998,12.524964 10.499975,12.3343517 10.499975,12.13434 L10.499975,11.6249723 C9.3968587,12.487458 8.0093498,12.999969 6.4999845,12.999969 C2.90935586,12.999969 0,10.0906131 0,6.4999845 C0,2.90935586 2.90935586,0 6.4999845,0 Z M6.49999404,2.49999404 C4.28749588,2.49999404 2.49999404,4.29060867 2.49999404,6.49999404 C2.49999404,8.71247312 4.29060867,10.499975 6.49999404,10.499975 C8.71247312,10.499975 10.499975,8.70936034 10.499975,6.49999404 C10.499975,4.28749588 8.70936034,2.49999404 6.49999404,2.49999404 Z"></path></clipPath><clipPath id="i2"><path d="M8,0 L8,36 L0,36 L0,0 L8,0 Z"></path></clipPath><clipPath id="i3"><path d="M24,0 L24,6 L0,6 L0,0 L24,0 Z"></path></clipPath></defs><g clip-path="url(#i0)"><polygon points="0,0 40,0 40,36 0,36 0,0" stroke="none" fill="#FFFFFF"></polygon><g transform="translate(1.0 0.0)"><polygon points="0,0 0,36 -1,36 -1,0 0,0 0,0" stroke="none" fill="#EDEDED"></polygon></g><g transform="translate(-1.0 0.0)"><polygon points="41,0 41,36 40,36 40,0 41,0 41,0" stroke="none" fill="#EDEDED"></polygon></g><g transform="translate(0.0 1.0)"><polygon points="40,0 0,0 0,-1 40,-1 40,0 40,0" stroke="none" fill="#EDEDED"></polygon></g><g transform="translate(0.0 -1.0)"><polygon points="40,36 40,37 0,37 0,36 40,36 40,36" stroke="none" fill="#0066CC"></polygon></g></g><g transform="translate(8.0 6.0)"><g transform="translate(4.0 4.0)"><g clip-path="url(#i1)"><polygon points="0,0 15.9987885,0 15.9987885,16.0015335 0,16.0015335 0,0" stroke="none" fill="#696E73"></polygon></g></g></g><g clip-path="url(#i2)"><polygon points="0,0 8,0 8,36 0,36 0,0" stroke="none" fill="rgba(146, 211, 0, 0.9)"></polygon></g><g clip-path="url(#i2)"><polygon points="0,0 8,0 8,36 0,36 0,0 0,0" stroke="#7EB200" stroke-width="2" fill="none" stroke-miterlimit="5"></polygon></g><g transform="translate(32.0 0.0)"><g clip-path="url(#i2)"><polygon points="0,0 8,0 8,36 0,36 0,0" stroke="none" fill="rgba(146, 211, 0, 0.9)"></polygon></g><g clip-path="url(#i2)"><polygon points="0,0 8,0 8,36 0,36 0,0 0,0" stroke="#7EB200" stroke-width="2" fill="none" stroke-miterlimit="5"></polygon></g></g><g transform="translate(8.0 0.0)"><g clip-path="url(#i3)"><polygon points="0,0 24,0 24,6 0,6 0,0" stroke="none" fill="rgba(243, 213, 59, 0.9)"></polygon></g><g clip-path="url(#i3)"><polygon points="0,0 24,0 24,6 0,6 0,0 0,0" stroke="#CAB534" stroke-width="2" fill="none" stroke-miterlimit="5"></polygon></g></g><g transform="translate(8.0 30.0)"><g clip-path="url(#i3)"><polygon points="0,0 24,0 24,6 0,6 0,0" stroke="none" fill="rgba(243, 213, 59, 0.9)"></polygon></g><g clip-path="url(#i3)"><polygon points="0,0 24,0 24,6 0,6 0,0 0,0" stroke="#CAB534" stroke-width="2" fill="none" stroke-miterlimit="5"></polygon></g></g></svg>