<?xml version="1.0" encoding="UTF-8"?>
<svg width="40px" height="36px" viewBox="0 0 40 36" version="1.1" xmlns="http://www.w3.org/2000/svg" xmlns:xlink="http://www.w3.org/1999/xlink">
    <title></title>
    <g id="Form-Inputs" stroke="none" stroke-width="1" fill="none" fill-rule="evenodd">
        <g id="Forms-/-6.-Icon-Field-/-5.-Disabled-(no-border)">
            <rect id="Background" fill="#F0F0F0" x="0" y="0" width="40" height="36"></rect>
            <g id="ðŸ–¼-Icon" transform="translate(13.000000, 17.000000)" fill="#6A6E73">
                <path d="M12.999969,3 C13.5521527,3 13.9999666,2.55217897 13.9999666,2 L13.9999666,1 C13.9999666,0.447813874 13.5521527,0 12.999969,0 L1,0 C0.447813874,0 1.77635684e-15,0.447813874 1.77635684e-15,1 L1.77635684e-15,2 C1.77635684e-15,2.55217897 0.447813874,3 1,3 L12.999969,3 Z" id="minus"></path>
            </g>
            <g id="ðŸ“-Padding" fill-opacity="0.9">
                <g id="Spacer-/-Horizontal-/-3.-pf-global--spacer--md-(16px)" fill="#92D400" stroke="#7FB300">
                    <rect id="Rectangle-Copy" x="0.5" y="0.5" width="7" height="35"></rect>
                </g>
                <g id="Spacer-/-Horizontal-/-3.-pf-global--spacer--md-(16px)" transform="translate(32.000000, 0.000000)" fill="#92D400" stroke="#7FB300">
                    <rect id="Rectangle-Copy" x="0.5" y="0.5" width="7" height="35"></rect>
                </g>
                <g id="Spacer-/-Vertical-/-8.-pf-global--spacer--form-element-(6px)" transform="translate(8.000000, 0.000000)" fill="#F3D53C" stroke="#CBB534">
                    <rect id="Rectangle" x="0.5" y="0.5" width="23" height="5"></rect>
                </g>
                <g id="Spacer-/-Vertical-/-8.-pf-global--spacer--form-element-(6px)" transform="translate(8.000000, 30.000000)" fill="#F3D53C" stroke="#CBB534">
                    <rect id="Rectangle" x="0.5" y="0.5" width="23" height="5"></rect>
                </g>
            </g>
        </g>
    </g>
</svg>