<?xml version="1.0" encoding="UTF-8"?>
<svg width="24px" height="24px" viewBox="0 0 24 24" version="1.1" xmlns="http://www.w3.org/2000/svg" xmlns:xlink="http://www.w3.org/1999/xlink">
    <title></title>
    <g id="Icons" stroke="none" stroke-width="1" fill="none" fill-rule="evenodd">
        <g id="Icons-/-2.-Size-sm-/-Actions-/-cog" fill="#6A6E73">
            <path d="M12.8450519,17.4843609 C12.9739578,17.4562543 13.0653501,17.3414017 13.0653501,17.2101612 L13.0653501,16.0570343 C13.5856659,15.8718694 14.068491,15.5929775 14.490365,15.2343663 L15.488791,15.8109412 C15.6036436,15.8765614 15.7466029,15.8554586 15.8356606,15.7570396 C16.41457,15.1312553 16.8575469,14.376565 17.1176934,13.5398437 C17.1528495,13.4109377 17.1012826,13.2750051 16.9864528,13.2093849 L15.988004,12.63281 C16.0887804,12.0890796 16.0887804,11.5312501 15.988004,10.9875197 L16.9864528,10.4109449 C17.1012826,10.3453246 17.1528495,10.209392 17.1153588,10.0828207 C16.8551894,9.24845681 16.4122354,8.49376653 15.833326,7.8656476 C15.7442683,7.76954035 15.5989516,7.74610291 15.4864564,7.81174606 L14.4880075,8.38829803 C14.068491,8.02735224 13.5856659,7.74846038 13.0630155,7.5656529 L13.0630155,6.41486066 C13.0630155,6.28362013 12.9716003,6.1687675 12.8426944,6.14063798 C11.9825585,5.94846925 11.1012969,5.9578305 10.2833438,6.14063798 C10.1544379,6.1687675 10.0630227,6.28362013 10.0630227,6.41486066 L10.0630227,7.56798749 C9.54270683,7.75315245 9.05990464,8.0320443 8.63803065,8.39063262 L7.64193927,7.81408065 C7.52708664,7.74846038 7.38412739,7.76954035 7.29506968,7.86798219 C6.71616023,8.49376653 6.27318338,9.24845681 6.01303691,10.0851781 C5.97318867,10.2117266 6.02709022,10.3476592 6.14194285,10.4133024 L7.14036881,10.9898543 C7.03959238,11.5336076 7.03959238,12.0914142 7.14036881,12.6351675 L6.14194285,13.2117195 C6.02709022,13.2773397 5.97552326,13.4132952 6.01303691,13.5398437 C6.27318338,14.3742304 6.71616023,15.1288978 7.29506968,15.7570396 C7.38412739,15.853124 7.52944412,15.8765614 7.64193927,15.8109412 L8.64036524,15.2343663 C9.05990464,15.5953121 9.54270683,15.8742268 10.0653573,16.0570343 L10.0653573,17.2101612 C10.0653573,17.3414017 10.1567724,17.4562543 10.2856784,17.4843609 C11.1458372,17.6765526 12.0270759,17.6671913 12.8450519,17.4843609 Z M11.5630191,13.6851604 C10.529437,13.6851604 9.68802357,12.843747 9.68802357,11.8101649 C9.68802357,10.7765827 10.529437,9.93516934 11.5630191,9.93516934 C12.5966012,9.93516934 13.4380146,10.7765827 13.4380146,11.8101649 C13.4380146,12.843747 12.5966012,13.6851604 11.5630191,13.6851604 Z" id="cog"></path>
        </g>
    </g>
</svg>