<?xml version="1.0" encoding="UTF-8"?>
<svg width="24px" height="24px" viewBox="0 0 24 24" version="1.1" xmlns="http://www.w3.org/2000/svg" xmlns:xlink="http://www.w3.org/1999/xlink">
    <title></title>
    <g id="Icons" stroke="none" stroke-width="1" fill="none" fill-rule="evenodd">
        <g id="Icons-/-2.-Size-sm-/-Actions-/-compress" fill="#6A6E73">
            <path d="M17.2187256,10.7499911 C17.3734036,10.7499911 17.499975,10.6234197 17.499975,10.4687417 L17.499975,9.53124397 C17.499975,9.37656599 17.3734036,9.24999464 17.2187256,9.24999464 L15.2499839,9.24999464 L15.2499839,7.28124933 C15.2499839,7.12657135 15.123409,7 14.968731,7 L14.0312332,7 C13.8765553,7 13.7499839,7.12657135 13.7499839,7.28124933 L13.7499839,10.1874924 C13.7499839,10.4992058 14.0007691,10.7499911 14.3124826,10.7499911 L17.2187256,10.7499911 Z M10.1874924,10.7499911 C10.4992058,10.7499911 10.7499911,10.4992058 10.7499911,10.1874924 L10.7499911,7.28124933 C10.7499911,7.12657135 10.6234197,7 10.4687417,7 L9.53124397,7 C9.37656599,7 9.24999464,7.12657135 9.24999464,7.28124933 L9.24999464,9.24999464 L7.28124933,9.24999464 C7.12657135,9.24999464 7,9.37656599 7,9.53124397 L7,10.4687417 C7,10.6234197 7.12657135,10.7499911 7.28124933,10.7499911 L10.1874924,10.7499911 Z M10.4687417,17.499975 C10.6234197,17.499975 10.7499911,17.3734036 10.7499911,17.2187256 L10.7499911,14.3124826 C10.7499911,14.0007691 10.4992058,13.7499839 10.1874924,13.7499839 L7.28124933,13.7499839 C7.12657135,13.7499839 7,13.8765553 7,14.0312332 L7,14.968731 C7,15.123409 7.12657135,15.2499839 7.28124933,15.2499839 L9.24999464,15.2499839 L9.24999464,17.2187256 C9.24999464,17.3734036 9.37656599,17.499975 9.53124397,17.499975 L10.4687417,17.499975 Z M14.968731,17.499975 C15.123409,17.499975 15.2499839,17.3734036 15.2499839,17.2187256 L15.2499839,15.2499839 L17.2187256,15.2499839 C17.3734036,15.2499839 17.499975,15.123409 17.499975,14.968731 L17.499975,14.0312332 C17.499975,13.8765553 17.3734036,13.7499839 17.2187256,13.7499839 L14.3124826,13.7499839 C14.0007691,13.7499839 13.7499839,14.0007691 13.7499839,14.3124826 L13.7499839,17.2187256 C13.7499839,17.3734036 13.8765553,17.499975 14.0312332,17.499975 L14.968731,17.499975 Z" id="compress"></path>
        </g>
    </g>
</svg>