<?xml version="1.0" encoding="UTF-8"?>
<svg width="24px" height="24px" viewBox="0 0 24 24" version="1.1" xmlns="http://www.w3.org/2000/svg" xmlns:xlink="http://www.w3.org/1999/xlink">
    <title></title>
    <g id="Icons" stroke="none" stroke-width="1" fill="none" fill-rule="evenodd">
        <g id="Icons-/-2.-Size-sm-/-Actions-/-expand-arrows-alt" fill="#6A6E73">
            <path d="M10.1874924,17.499975 C10.6888111,17.499975 10.9395963,16.892936 10.585929,16.5390398 L9.73677936,15.6929572 L12.2499875,13.1781011 L14.7624861,15.6905997 L13.914046,16.5390398 C13.5603786,16.892936 13.8111639,17.499975 14.3124826,17.499975 L16.9388954,17.499975 C17.2486175,17.499975 17.499975,17.2486175 17.499975,16.9388954 L17.499975,14.3124826 C17.499975,13.8109121 16.892936,13.5601498 16.5390398,13.9163806 L15.6910804,14.7648207 L13.1767049,12.2499875 L15.6908286,9.7374889 L16.5390398,10.585929 C16.8931878,10.9398252 17.499975,10.6890629 17.499975,10.1874924 L17.499975,7.56107959 C17.499975,7.25135743 17.2486175,7 16.9388954,7 L14.3124826,7 C13.8111639,7 13.5603786,7.60703896 13.914046,7.96093521 L14.7631956,8.80701779 L12.2499875,11.3218739 L9.7374889,8.80937526 L10.585929,7.96093521 C10.9395963,7.60703896 10.6888111,7 10.1874924,7 L7.56107959,7 C7.25135743,7 7,7.25135743 7,7.56107959 L7,10.1874924 C7,10.6890629 7.60703896,10.9398252 7.96093521,10.585929 L8.80889461,9.73515431 L11.32327,12.2499875 L8.80914638,14.7624861 L7.96093521,13.914046 C7.60678719,13.5601498 7,13.8109121 7,14.3124826 L7,16.9388954 C7,17.2486175 7.25135743,17.499975 7.56107959,17.499975 L10.1874924,17.499975 Z" id="expand-arrows-alt"></path>
        </g>
    </g>
</svg>