<?xml version="1.0" encoding="UTF-8"?>
<svg width="24px" height="24px" viewBox="0 0 24 24" version="1.1" xmlns="http://www.w3.org/2000/svg" xmlns:xlink="http://www.w3.org/1999/xlink">
    <title></title>
    <g id="Icons" stroke="none" stroke-width="1" fill="none" fill-rule="evenodd">
        <g id="Icons-/-2.-Size-sm-/-Actions-/-expand" fill="#6A6E73">
            <path d="M8.21874709,10.7499911 C8.37342507,10.7499911 8.5,10.6234197 8.5,10.4687417 L8.5,8.5 L10.4687417,8.5 C10.6234197,8.5 10.7499911,8.37342507 10.7499911,8.21874709 L10.7499911,7.28124933 C10.7499911,7.12657135 10.6234197,7 10.4687417,7 L7.56249866,7 C7.25078523,7 7,7.25078523 7,7.56249866 L7,10.4687417 C7,10.6234197 7.12657135,10.7499911 7.28124933,10.7499911 L8.21874709,10.7499911 Z M17.2187256,10.7499911 C17.3734036,10.7499911 17.499975,10.6234197 17.499975,10.4687417 L17.499975,7.56249866 C17.499975,7.25078523 17.2491897,7 16.9374763,7 L14.0312332,7 C13.8765553,7 13.7499839,7.12657135 13.7499839,7.28124933 L13.7499839,8.21874709 C13.7499839,8.37342507 13.8765553,8.5 14.0312332,8.5 L15.9999785,8.5 L15.9999785,10.4687417 C15.9999785,10.6234197 16.1265499,10.7499911 16.2812279,10.7499911 L17.2187256,10.7499911 Z M16.9374763,17.499975 C17.2491897,17.499975 17.499975,17.2491897 17.499975,16.9374763 L17.499975,14.0312332 C17.499975,13.8765553 17.3734036,13.7499839 17.2187256,13.7499839 L16.2812279,13.7499839 C16.1265499,13.7499839 15.9999785,13.8765553 15.9999785,14.0312332 L15.9999785,15.9999785 L14.0312332,15.9999785 C13.8765553,15.9999785 13.7499839,16.1265499 13.7499839,16.2812279 L13.7499839,17.2187256 C13.7499839,17.3734036 13.8765553,17.499975 14.0312332,17.499975 L16.9374763,17.499975 Z M10.4687417,17.499975 C10.6234197,17.499975 10.7499911,17.3734036 10.7499911,17.2187256 L10.7499911,16.2812279 C10.7499911,16.1265499 10.6234197,15.9999785 10.4687417,15.9999785 L8.5,15.9999785 L8.5,14.0312332 C8.5,13.8765553 8.37342507,13.7499839 8.21874709,13.7499839 L7.28124933,13.7499839 C7.12657135,13.7499839 7,13.8765553 7,14.0312332 L7,16.9374763 C7,17.2491897 7.25078523,17.499975 7.56249866,17.499975 L10.4687417,17.499975 Z" id="expand"></path>
        </g>
    </g>
</svg>