<?xml version="1.0" encoding="UTF-8"?>
<svg width="24px" height="24px" viewBox="0 0 24 24" version="1.1" xmlns="http://www.w3.org/2000/svg" xmlns:xlink="http://www.w3.org/1999/xlink">
    <title></title>
    <g id="Icons" stroke="none" stroke-width="1" fill="none" fill-rule="evenodd">
        <g id="Icons-/-2.-Size-sm-/-Actions-/-minus-circle" fill="#6A6E73">
            <path d="M11.8124861,17.6249723 C15.023416,17.6249723 17.6249723,15.023416 17.6249723,11.8124861 C17.6249723,8.6015563 15.023416,6 11.8124861,6 C8.6015563,6 6,8.6015563 6,11.8124861 C6,15.023416 8.6015563,17.6249723 11.8124861,17.6249723 Z M14.9062288,12.7499839 L8.71874352,12.7499839 C8.56406554,12.7499839 8.43749419,12.6234126 8.43749419,12.4687346 L8.43749419,11.1562377 C8.43749419,11.0015597 8.56406554,10.8749884 8.71874352,10.8749884 L14.9062288,10.8749884 C15.0609067,10.8749884 15.1874781,11.0015597 15.1874781,11.1562377 L15.1874781,12.4687346 C15.1874781,12.6234126 15.0609067,12.7499839 14.9062288,12.7499839 Z" id="minus-circle"></path>
        </g>
    </g>
</svg>