<?xml version="1.0" encoding="UTF-8"?>
<svg width="24px" height="24px" viewBox="0 0 24 24" version="1.1" xmlns="http://www.w3.org/2000/svg" xmlns:xlink="http://www.w3.org/1999/xlink">
    <title></title>
    <g id="Icons" stroke="none" stroke-width="1" fill="none" fill-rule="evenodd">
        <g id="Icons-/-2.-Size-sm-/-Actions-/-open-drawer-right" fill="#6A6E73">
            <path d="M18.745,6 C18.9521055,6 19.12,6.16797656 19.12,6.37517578 L19.12,17.6248125 C19.12,17.8320234 18.9521055,18 18.745,18 L5.245,18 C5.03789453,18 4.87,17.8320234 4.87,17.6248125 L4.87,6.37517578 C4.87,6.16797656 5.03789453,6 5.245,6 L18.745,6 Z M18.3695313,6.75036328 L5.62,6.75036328 L5.62,17.249625 L18.37,17.249625 L18.3695313,6.75036328 Z M17.2560238,7.50733125 C17.463516,7.50733125 17.6317152,7.67544844 17.6317152,7.88282344 L17.6317152,16.1245031 C17.6317152,16.3318898 17.463516,16.4999953 17.2560238,16.4999953 L13.5074184,16.4999953 C13.2999262,16.4999953 13.1317152,16.3318898 13.1317152,16.1245031 L13.1317152,7.88282344 C13.1317152,7.67544844 13.2999262,7.50733125 13.5074184,7.50733125 L17.2560238,7.50733125 Z" id="quick-start"></path>
        </g>
    </g>
</svg>