<?xml version="1.0" encoding="UTF-8"?>
<svg width="24px" height="24px" viewBox="0 0 24 24" version="1.1" xmlns="http://www.w3.org/2000/svg" xmlns:xlink="http://www.w3.org/1999/xlink">
    <title></title>
    <g id="Icons" stroke="none" stroke-width="1" fill="none" fill-rule="evenodd">
        <g id="Icons-/-2.-Size-sm-/-Actions-/-panel-open" fill="#6A6E73">
            <path d="M17.7470985,7.5 L16.8114527,7.5 C16.6564279,7.5 16.530759,7.62566892 16.530759,7.78069373 L16.530759,16.2193063 C16.530759,16.3743311 16.6564279,16.5 16.8114527,16.5 L17.7470985,16.5 C17.9021233,16.5 18.0277922,16.3743311 18.0277922,16.2193063 L18.0277922,7.78069373 C18.0277922,7.62566892 17.9021233,7.5 17.7470985,7.5 M13.710345,11.5971821 L13.3320496,11.2188868 C13.3260003,11.2128374 13.3197749,11.207041 13.3134615,11.2014096 L10.3106696,8.19862858 C10.1388561,8.02681515 9.8602876,8.02681515 9.68847417,8.19862858 L9.31145472,8.57564803 C9.13964128,8.74746147 9.13964128,9.02602998 9.31145472,9.19784342 L11.3152738,11.2016625 L6.27888878,11.2016625 C6.03591262,11.2016625 5.83893376,11.3986304 5.83893376,11.6416176 L5.83893376,12.174799 C5.83893376,12.4177862 6.03591262,12.6147541 6.27888878,12.6147541 L11.3152628,12.6147541 L9.31145472,14.6185732 C9.13964128,14.7903866 9.13964128,15.0689441 9.31145472,15.2407576 L9.68847417,15.617788 C9.8602876,15.7895905 10.1388561,15.7895905 10.3106696,15.617788 L13.3134175,12.61504 C13.3197419,12.6093976 13.3259893,12.6035902 13.3320606,12.5975298 L13.710356,12.2192345 C13.7962462,12.1333443 13.8390978,12.0207048 13.8389338,11.9081313 C13.8390648,11.7956128 13.7962132,11.6830393 13.710345,11.5971821" id="Fill-4-2"></path>
        </g>
    </g>
</svg>