<?xml version="1.0" encoding="UTF-8"?>
<svg width="24px" height="24px" viewBox="0 0 24 24" version="1.1" xmlns="http://www.w3.org/2000/svg" xmlns:xlink="http://www.w3.org/1999/xlink">
    <title></title>
    <g id="Icons" stroke="none" stroke-width="1" fill="none" fill-rule="evenodd">
        <g id="Icons-/-2.-Size-sm-/-Actions-/-pencil-alt" fill="#6A6E73">
            <path d="M16.5884705,10.4091692 L17.6689504,9.32868927 C18.1095697,8.8880699 18.1095697,8.17558533 17.6689504,7.73730055 L16.2603462,6.32869642 C15.8197269,5.89043453 15.1072194,5.89043453 14.6689575,6.32869642 L13.5884776,7.40917633 C13.4783171,7.51933689 13.4783171,7.69745231 13.5884776,7.80761288 L16.1900339,10.4091692 C16.3001945,10.5193297 16.4783099,10.5193297 16.5884705,10.4091692 Z M6.66037829,17.9911823 L9.50802775,17.4919694 L15.6626914,11.3372828 C15.772852,11.2271222 15.772852,11.0490068 15.6626914,10.9388463 L13.0611351,8.33728996 C12.94864,8.22712939 12.7705245,8.22712939 12.660364,8.33728996 L6.50567742,14.4919765 L6.00882192,17.339626 C5.94084418,17.7239863 6.27599505,18.0568026 6.66037829,17.9911823 Z M8.90801545,13.964634 C8.7791095,13.8357281 8.7791095,13.6294603 8.90801545,13.5005543 L12.5173818,9.89118793 C12.6462878,9.76228198 12.8525556,9.76228198 12.9814615,9.89118793 C13.1103675,10.0200939 13.1103675,10.2263617 12.9814615,10.3552676 L9.37209515,13.964634 C9.24318921,14.09354 9.03692139,14.09354 8.90801545,13.964634 Z M7.67521504,17.0513271 L6.94631968,16.3224317 L7.21115823,14.8107166 L8.06193287,14.8107166 L8.06193287,15.9357139 L9.18693019,15.9357139 L9.18693019,16.7864886 L7.67521504,17.0513271 Z" id="pencil-alt"></path>
        </g>
    </g>
</svg>