<?xml version="1.0" encoding="UTF-8"?>
<svg width="24px" height="24px" viewBox="0 0 24 24" version="1.1" xmlns="http://www.w3.org/2000/svg" xmlns:xlink="http://www.w3.org/1999/xlink">
    <title></title>
    <g id="Icons" stroke="none" stroke-width="1" fill="none" fill-rule="evenodd">
        <g id="Icons-/-2.-Size-sm-/-Actions-/-pficon-add-circle-o" fill="#6A6E73">
            <path d="M12.75,9.55078125 C12.75,9.45369995 12.6713001,9.375 12.5742188,9.375 L11.4257812,9.375 C11.3286999,9.375 11.25,9.45369995 11.25,9.55078125 L11.25,11.25 L9.55078125,11.25 C9.45369995,11.25 9.375,11.3286999 9.375,11.4257812 L9.375,12.5742188 C9.375,12.6713001 9.45369995,12.75 9.55078125,12.75 L11.25,12.75 L11.25,14.4480469 C11.2498052,14.5453989 11.3284301,14.624548 11.4257812,14.625 L12.5742188,14.625 C12.6715699,14.624548 12.7501948,14.5453989 12.75,14.4480469 L12.75,12.75 L14.4492188,12.75 C14.4957307,12.7503122 14.540445,12.7320538 14.5734445,12.6992743 C14.606444,12.6664948 14.6250007,12.6219037 14.6250007,12.5753906 L14.6250007,11.4269531 C14.6251948,11.3296011 14.5465699,11.250452 14.4492188,11.25 L12.75,11.25 L12.75,9.55078125 Z M12,16.5 C9.51796875,16.5 7.5,14.4832031 7.5,12 C7.5,9.51914063 9.51796875,7.5 12,7.5 C14.4820312,7.5 16.5,9.51796875 16.5,12 C16.5,14.4820312 14.4808594,16.5 12,16.5 Z M12.0011719,6 C8.69179687,6 6,8.69296875 6,12 C6,15.3070313 8.69296875,18 12.0011719,18 C15.309375,18 18,15.3082031 18,12 C18,8.69179687 15.309375,6 12.0011719,6 Z" id="pficon-add-circle-o"></path>
        </g>
    </g>
</svg>