<?xml version="1.0" encoding="UTF-8"?>
<svg width="24px" height="24px" viewBox="0 0 24 24" version="1.1" xmlns="http://www.w3.org/2000/svg" xmlns:xlink="http://www.w3.org/1999/xlink">
    <title></title>
    <g id="Icons" stroke="none" stroke-width="1" fill="none" fill-rule="evenodd">
        <g id="Icons-/-2.-Size-sm-/-Actions-/-print" fill="#6A6E73">
            <path d="M15.7499768,17.9999714 C16.1641146,17.9999714 16.499975,17.664111 16.499975,17.2499732 L16.499975,14.9999785 L17.6249723,14.9999785 C17.8321556,14.9999785 17.9999714,14.8321628 17.9999714,14.6249794 L17.9999714,11.9999857 C17.9999714,11.1714812 17.3284795,10.4999893 16.499975,10.4999893 L16.499975,7.81054256 C16.499975,7.61155316 16.420988,7.42100949 16.2803634,7.28015594 L15.2195901,6.2196116 C15.0789655,6.07898693 14.8881929,6 14.6892035,6 L8.24999464,6 C7.83585683,6 7.5,6.33586041 7.5,6.74999821 L7.5,10.4999893 C6.67149193,10.4999893 6,11.1714812 6,11.9999857 L6,14.6249794 C6,14.8321628 6.16781576,14.9999785 6.37499911,14.9999785 L7.5,14.9999785 L7.5,17.2499732 C7.5,17.664111 7.83585683,17.9999714 8.24999464,17.9999714 L15.7499768,17.9999714 Z M14.9999785,11.2499875 L8.99999285,11.2499875 L8.99999285,7.49999642 L13.4999821,7.49999642 L13.4999821,8.62499374 C13.4999821,8.83217709 13.6677979,8.99999642 13.8749812,8.99999642 L14.9999785,8.99999642 L14.9999785,11.2499875 Z M16.1249759,12.9374835 C15.8144297,12.9374835 15.5624772,12.6855309 15.5624772,12.3749848 C15.5624772,12.0642098 15.8144297,11.8124861 16.1249759,11.8124861 C16.435522,11.8124861 16.6874745,12.0642098 16.6874745,12.3749848 C16.6874745,12.6855309 16.435522,12.9374835 16.1249759,12.9374835 Z M14.9999785,16.499975 L8.99999285,16.499975 L8.99999285,14.2499803 L14.9999785,14.2499803 L14.9999785,16.499975 Z" id="print"></path>
        </g>
    </g>
</svg>