<?xml version="1.0" encoding="UTF-8"?>
<svg width="24px" height="24px" viewBox="0 0 24 24" version="1.1" xmlns="http://www.w3.org/2000/svg" xmlns:xlink="http://www.w3.org/1999/xlink">
    <title></title>
    <g id="Icons" stroke="none" stroke-width="1" fill="none" fill-rule="evenodd">
        <g id="Icons-/-2.-Size-sm-/-Actions-/-search" fill="#6A6E73">
            <path d="M17.1702767,17.8359093 L17.8335747,17.1726342 C18.0538729,16.9523131 18.0538729,16.5960593 17.8359093,16.3757611 L15.4991915,14.0390433 C15.393723,13.9335748 15.2507638,13.8749812 15.100755,13.8749812 L14.7187292,13.8749812 C15.3655935,13.047644 15.7499768,12.0070124 15.7499768,10.8749884 C15.7499768,8.18201689 13.5679599,6 10.8749884,6 C8.18201689,6 6,8.18201689 6,10.8749884 C6,13.5679599 8.18201689,15.7499768 10.8749884,15.7499768 C12.0070124,15.7499768 13.047644,15.3655935 13.8749812,14.7187292 L13.8749812,15.100755 C13.8749812,15.2507638 13.9335748,15.393723 14.0390433,15.4991915 L16.3757611,17.8359093 C16.5960593,18.0562304 16.9523131,18.0562304 17.1702767,17.8359093 Z M10.8749955,13.8749812 C9.2179565,13.8749812 7.87499553,12.5343548 7.87499553,10.8749955 C7.87499553,9.2179565 9.21562191,7.87499553 10.8749955,7.87499553 C12.5320203,7.87499553 13.8749812,9.21562191 13.8749812,10.8749955 C13.8749812,12.5320203 12.5343548,13.8749812 10.8749955,13.8749812 Z" id="search"></path>
        </g>
    </g>
</svg>