<?xml version="1.0" encoding="UTF-8"?>
<svg width="24px" height="24px" viewBox="0 0 24 24" version="1.1" xmlns="http://www.w3.org/2000/svg" xmlns:xlink="http://www.w3.org/1999/xlink">
    <title></title>
    <g id="Icons" stroke="none" stroke-width="1" fill="none" fill-rule="evenodd">
        <g id="Icons-/-2.-Size-sm-/-Actions-/-trash" fill="#6A6E73">
            <path d="M17.1249759,8.24999464 C17.3319761,8.24999464 17.499975,8.08199577 17.499975,7.87499553 L17.499975,7.12499732 C17.499975,6.91799708 17.3319761,6.74999821 17.1249759,6.74999821 L14.3124826,6.74999821 L14.0921614,6.31171343 C14.0187102,6.16422233 13.8424977,6.04055917 13.6725912,6.00823686 L13.5882564,6 L10.9072325,6 C10.7156818,6 10.4919503,6.13964048 10.4078135,6.31171343 L10.1874924,6.74999821 L7.37499911,6.74999821 C7.16799887,6.74999821 7,6.91799708 7,7.12499732 L7,7.87499553 C7,8.08199577 7.16799887,8.24999464 7.37499911,8.24999464 L17.1249759,8.24999464 Z M15.1304585,17.9999714 C15.7136938,17.9999714 16.2166605,17.5274002 16.2530984,16.9452864 L16.7499768,8.99999285 L7.74999821,8.99999285 L8.2468766,16.9452864 C8.28331451,17.5274002 8.78628114,17.9999714 9.36951645,17.9999714 L15.1304585,17.9999714 Z" id="trash"></path>
        </g>
    </g>
</svg>