<?xml version="1.0" encoding="UTF-8"?>
<svg width="24px" height="24px" viewBox="0 0 24 24" version="1.1" xmlns="http://www.w3.org/2000/svg" xmlns:xlink="http://www.w3.org/1999/xlink">
    <title></title>
    <g id="Icons" stroke="none" stroke-width="1" fill="none" fill-rule="evenodd">
        <g id="Icons-/-2.-Size-sm-/-Actions-/-undo" fill="#6A6E73">
            <path d="M12.0077905,17.8124718 C15.2137308,17.8124718 17.8134331,15.216958 17.8202674,12.0126199 C17.8270745,8.80381869 15.2596901,6.21095989 12.0509576,6.18765977 C10.318578,6.1750713 8.76030836,6.92060633 7.68749598,8.11200211 L7.68749598,6.28124933 C7.68749598,6.12593049 7.56156549,6 7.40624665,6 L6.28124933,6 C6.12593049,6 6,6.12593049 6,6.28124933 L6,10.976543 C6,11.1318618 6.12593049,11.2577923 6.28124933,11.2577923 L10.976543,11.2577923 C11.1318618,11.2577923 11.2577923,11.1318618 11.2577923,10.976543 L11.2577923,9.85154569 C11.2577923,9.69622684 11.1318618,9.57029636 10.976543,9.57029636 L8.67324192,9.57029636 C9.4231028,8.54239048 10.6367916,7.87499553 12.0077905,7.87499553 C14.2878831,7.87499553 16.1327807,9.72030516 16.1327807,11.9999857 C16.1327807,14.2800782 14.287494,16.1249759 12.0077905,16.1249759 C10.9588963,16.1249759 10.0021725,15.7344128 9.27476484,15.0907529 C9.16371163,14.9924941 8.99523212,14.9981933 8.8903816,15.1030667 L8.09428669,15.8991616 C7.98021226,16.0132131 7.98570541,16.1991105 8.10522722,16.30744 C9.13679519,17.2426261 10.5057113,17.8124718 12.0077905,17.8124718 Z" id="undo"></path>
        </g>
    </g>
</svg>