<?xml version="1.0" encoding="UTF-8"?>
<svg width="540px" height="67px" viewBox="0 0 540 67" version="1.1" xmlns="http://www.w3.org/2000/svg" xmlns:xlink="http://www.w3.org/1999/xlink">
    <title></title>
    <defs>
        <rect id="path-1" x="0" y="0" width="540" height="68"></rect>
        <filter x="-1.0%" y="-5.1%" width="102.0%" height="116.2%" filterUnits="objectBoundingBox" id="filter-2">
            <feMorphology radius="0.5" operator="erode" in="SourceAlpha" result="shadowSpreadOuter1"></feMorphology>
            <feOffset dx="0" dy="2" in="shadowSpreadOuter1" result="shadowOffsetOuter1"></feOffset>
            <feGaussianBlur stdDeviation="2" in="shadowOffsetOuter1" result="shadowBlurOuter1"></feGaussianBlur>
            <feColorMatrix values="0 0 0 0 0   0 0 0 0 0   0 0 0 0 0  0 0 0 0.16 0" type="matrix" in="shadowBlurOuter1"></feColorMatrix>
        </filter>
    </defs>
    <g id="Notification-Drawer" stroke="none" stroke-width="1" fill="none" fill-rule="evenodd">
        <g id="Notification-Drawer-/-Header-/-Unread">
            <g id="Background">
                <use fill="black" fill-opacity="1" filter="url(#filter-2)" xlink:href="#path-1"></use>
                <use fill="#FFFFFF" fill-rule="evenodd" xlink:href="#path-1"></use>
            </g>
            <g id="Kebab" transform="translate(444.000000, 16.000000)">
                <g id="ðŸ–¼-Icon" transform="translate(18.000000, 10.000000)">
                    <g fill="#151515" id="ellipsis-v">
                        <path d="M2.24999464,4.49998927 C3.49373557,4.49998927 4.49998927,3.49373557 4.49998927,2.24999464 C4.49998927,1.0062537 3.49373557,-8.8817842e-16 2.24999464,-8.8817842e-16 C1.0062537,-8.8817842e-16 0,1.0062537 0,2.24999464 C0,3.49373557 1.0062537,4.49998927 2.24999464,4.49998927 Z M2.24999464,9.99997616 C3.49373557,9.99997616 4.49998927,8.99372245 4.49998927,7.74998152 C4.49998927,6.50624059 3.49373557,5.49998689 2.24999464,5.49998689 C1.0062537,5.49998689 0,6.50624059 0,7.74998152 C0,8.99372245 1.0062537,9.99997616 2.24999464,9.99997616 Z M2.24999464,15.499963 C3.49373557,15.499963 4.49998927,14.4937093 4.49998927,13.2499684 C4.49998927,12.0062275 3.49373557,10.9999738 2.24999464,10.9999738 C1.0062537,10.9999738 0,12.0062275 0,13.2499684 C0,14.4937093 1.0062537,15.499963 2.24999464,15.499963 Z"></path>
                    </g>
                    <rect id="ðŸŽ¨-Color" fill="#6A6E73" x="-10" y="-4" width="24" height="24"></rect>
                </g>
                <g id="ðŸ“-Padding" fill-opacity="0.9">
                    <g id="Spacer-/-Horizontal-/-3.-pf-global--spacer--md-(16px)" fill="#92D400" stroke="#7FB300">
                        <rect id="Rectangle-Copy" x="0.5" y="0.5" width="7" height="35"></rect>
                    </g>
                    <g id="Spacer-/-Horizontal-/-3.-pf-global--spacer--md-(16px)" transform="translate(32.000000, 0.000000)" fill="#92D400" stroke="#7FB300">
                        <rect id="Rectangle-Copy" x="0.5" y="0.5" width="7" height="35"></rect>
                    </g>
                    <g id="Spacer-/-Vertical-/-8.-pf-global--spacer--form-element-(6px)" transform="translate(8.000000, 0.000000)" fill="#F3D53C" stroke="#CBB534">
                        <rect id="Rectangle" x="0.5" y="0.5" width="23" height="5"></rect>
                    </g>
                    <g id="Spacer-/-Vertical-/-8.-pf-global--spacer--form-element-(6px)" transform="translate(8.000000, 30.000000)" fill="#F3D53C" stroke="#CBB534">
                        <rect id="Rectangle" x="0.5" y="0.5" width="23" height="5"></rect>
                    </g>
                </g>
            </g>
            <g id="Icons/1.-Size-md-(16px)/Actions/times" transform="translate(499.000000, 29.000000)" fill="#6A6E73">
                <path d="M2.37280471,10.7121708 L5.5,7.584981 L8.62718433,10.7121708 C9.01091144,11.0959284 9.63340751,11.0959284 10.0171651,10.7121708 L10.7121708,10.0171651 C11.0959284,9.63340751 11.0959284,9.01124713 10.7121708,8.62718433 L7.584981,5.5 L10.7121708,2.37280471 C11.0959284,1.98907759 11.0959284,1.36688669 10.7121708,0.98282389 L10.0171651,0.287818222 C9.63340751,-0.0959394075 9.01124713,-0.0959394075 8.62718433,0.287818222 L5.5,3.41500803 L2.37280471,0.287818222 C1.98907759,-0.0959394075 1.36688669,-0.0959394075 0.98282389,0.287818222 L0.287818222,0.98282389 C-0.0959394075,1.36658152 -0.0959394075,1.9887419 0.287818222,2.37280471 L3.41500803,5.5 L0.287818222,8.62718433 C-0.0959394075,9.01091144 -0.0959394075,9.63310234 0.287818222,10.0171651 L0.98282389,10.7121708 C1.36658152,11.0959284 1.98907759,11.0959284 2.37280471,10.7121708 Z" id="times"></path>
            </g>
            <text id="Notifications" font-family="RedHatDisplay-Medium, Red Hat Display" font-size="20" font-weight="500" line-spacing="30" fill="#151515">
                <tspan x="16" y="39">Notifications</tspan>
            </text>
            <text id="Unread-count" font-family="RedHatText-Regular, Red Hat Text" font-size="16" font-weight="normal" line-spacing="24" fill="#151515">
                <tspan x="152" y="38">10+ unread</tspan>
            </text>
        </g>
    </g>
</svg>