<?xml version="1.0" encoding="UTF-8"?><svg version="1.1" width="290px" height="37px" viewBox="0 0 290.0 37.0" xmlns="http://www.w3.org/2000/svg" xmlns:xlink="http://www.w3.org/1999/xlink"><defs><clipPath id="i0"><path d="M290,0 L290,37 L0,37 L0,0 L290,0 Z"></path></clipPath><clipPath id="i1"><path d="M0.694917929,0.165223681 C0.915239059,-0.0550745605 1.27149279,-0.0550745605 1.48945644,0.165223681 L3.74883521,2.42460245 L6.00819109,0.165223681 C6.22851222,-0.0550745605 6.58476595,-0.0550745605 6.8027296,0.165223681 L7.33240668,0.694923651 C7.55272781,0.915221893 7.55272781,1.27147562 7.33240668,1.48943927 L4.14491428,4.67693167 C3.92928522,4.8972528 3.57305438,4.8972528 3.35273325,4.67693167 L0.165240847,1.48943927 C-0.0550802825,1.26914103 -0.0550802825,0.912887304 0.165240847,0.694923651 Z"></path></clipPath></defs><rect x="0px" y="0px" width="290px" height="37px" fill="#202426"></rect><g clip-path="url(#i0)"><polygon points="0,0 290,0 290,37 0,37 0,0" stroke="none" fill="#202426"></polygon></g><g transform="translate(24.0 8.0)"><text transform="translate(0.0 14.0)" font-family="RedHatText-Regular, Red Hat Text" font-size="14.0" font-weight="normal" fill="#FEFFFE" text-anchor="left" line-spacing="21.0">Third level item </text></g><g transform="translate(242.0 7.0)"><g transform="translate(8.0 10.0)"><g clip-path="url(#i1)"><polygon points="0,2.77555756e-17 7.49764753,2.77555756e-17 7.49764753,4.84217252 0,4.84217252 0,2.77555756e-17" stroke="none" fill="#FFFFFF"></polygon></g></g></g></svg>