<?xml version="1.0" encoding="UTF-8"?><svg version="1.1" width="289px" height="37px" viewBox="0 0 289.0 37.0" xmlns="http://www.w3.org/2000/svg" xmlns:xlink="http://www.w3.org/1999/xlink"><defs><clipPath id="i0"><path d="M289,0 L289,37 L0,37 L0,0 L289,0 Z"></path></clipPath><clipPath id="i1"><path d="M4,0 L4,37 L0,37 L0,0 L4,0 Z"></path></clipPath><clipPath id="i2"><path d="M0.692566174,0.165240847 C0.912887304,-0.0550802825 1.26914103,-0.0550802825 1.48710469,0.165240847 L4.67459709,3.35273325 C4.8972528,3.57305438 4.8972528,3.92928522 4.67693167,4.14960635 L1.48943927,7.33709875 C1.26914103,7.55741988 0.912887304,7.55741988 0.694923651,7.33709875 L0.165223681,6.80742167 C-0.0550745605,6.58710054 -0.0550745605,6.23084681 0.165223681,6.01288316 L2.42460245,3.75350439 L0.165223681,1.49414851 C-0.0550745605,1.27382738 -0.0550745605,0.917573649 0.165223681,0.699609996 Z"></path></clipPath></defs><g clip-path="url(#i0)"><polygon points="0,0 289,0 289,37 0,37 0,0" stroke="none" fill="#4F5255"></polygon></g><g clip-path="url(#i1)"><polygon points="0,0 4,0 4,37 0,37 0,0" stroke="none" fill="#73BCF7"></polygon></g><g transform="translate(24.0 8.0)"><text transform="translate(0.0 14.0)" font-family="RedHatText-Regular, Red Hat Text" font-size="14.0" font-weight="normal" fill="#FEFFFE" text-anchor="left" line-spacing="21.0">Third level item</text></g><g transform="translate(241.0 7.0)"><g transform="translate(10.0 8.0)"><g clip-path="url(#i2)"><polygon points="0,0 4.84188185,0 4.84188185,7.5023396 0,7.5023396 0,0" stroke="none" fill="#FFFFFF"></polygon></g></g></g></svg>