<?xml version="1.0" encoding="UTF-8"?>
<svg width="24px" height="24px" viewBox="0 0 24 24" version="1.1" xmlns="http://www.w3.org/2000/svg" xmlns:xlink="http://www.w3.org/1999/xlink">
    <title></title>
    <g id="Icons" stroke="none" stroke-width="1" fill="none" fill-rule="evenodd">
        <g id="Icons/2.-Size-sm-(12px)/Brands/drupal" fill="#151515">
            <path d="M12.5421721,17.4788721 C14.9257647,17.4788721 16.9999785,15.7445012 16.9999785,13.1195075 C16.9999785,10.4874871 15.0546707,9.11170456 14.7382652,8.91717835 C14.2179493,8.58905413 13.7187364,8.46014819 13.221858,8.13202397 C12.9171712,7.92577904 12.4882705,7.42890065 12.1320168,7 C12.0687311,7.68671254 11.8624862,7.96560439 11.6163931,8.16015348 C11.1171801,8.55859003 10.8007746,8.68044643 10.3624898,8.91717835 C9.99218275,9.11170456 8,10.482795 8,13.0374765 C8,15.5968499 10.1515528,17.4788721 12.5421721,17.4788721 Z M10.3835926,15.545283 C9.47422439,14.9218561 10.0413922,13.0890434 11.5976477,13.0796593 C12.7578012,13.0679405 13.5617009,14.228094 14.1406104,14.2163753 C14.6398233,14.2093487 15.5890398,13.2366947 16.0577887,13.2366947 C17.1991968,13.2366947 16.6038766,15.7984028 15.6874817,15.7210638 C15.3312279,15.6976264 14.621078,14.5773211 14.1640478,14.5609103 C13.4398216,14.5398075 11.724219,16.4523166 10.3835926,15.545283 Z M12.9945102,15.9015367 C12.8538855,15.7093451 13.3671747,15.3788863 13.5195181,15.3156006 C13.7234284,15.2312121 14.199204,15.2265429 14.3820115,15.3460647 C14.4781187,15.411685 14.759368,15.7866841 14.5273282,15.9015367 C14.3304445,15.9999785 14.4991987,15.5335642 13.9062359,15.5335642 C13.5617009,15.5335642 13.4492058,15.6554435 13.2804516,15.7913761 C13.1163895,15.9320008 13.0507692,15.9788757 12.9945102,15.9015367 Z M12.0617045,16.6468428 C11.9492093,16.5343477 12.0687311,16.3655935 12.2140479,16.3655935 L12.2423819,16.3854569 C12.3463516,16.4541275 12.7368832,16.6773069 13.4210762,16.6773069 C14.0538872,16.6773069 14.4991987,16.496834 14.698417,16.3491827 C14.8413991,16.2413796 14.8953006,16.4499592 14.7968588,16.548401 C14.3257753,17.0195074 12.6851542,17.2210602 12.0617045,16.6468428 Z" id="drupal"></path>
        </g>
    </g>
</svg>