<?xml version="1.0" encoding="UTF-8"?>
<svg width="24px" height="24px" viewBox="0 0 24 24" version="1.1" xmlns="http://www.w3.org/2000/svg" xmlns:xlink="http://www.w3.org/1999/xlink">
    <title></title>
    <g id="Icons" stroke="none" stroke-width="1" fill="none" fill-rule="evenodd">
        <g id="Icons/2.-Size-sm-(12px)/Brands/Github" fill="#151515">
            <path d="M10.37811,17.0413708 C10.37811,16.8960769 10.3710833,16.0945118 10.3710833,15.6023254 C10.3710833,15.6023254 8.73046224,15.9538871 8.38592723,14.9038942 C8.38592723,14.9038942 8.1187541,14.2218508 7.73437086,14.04607 C7.73437086,14.04607 7.19764424,13.6780975 7.77186162,13.6851471 C7.77186162,13.6851471 8.35546313,13.732022 8.6765607,14.2898286 C9.18982699,15.1945048 10.0499858,14.9343583 10.3851366,14.7796574 C10.4390611,14.4046583 10.5914045,14.1445118 10.7601357,13.9898339 L10.4983465,13.959578 C9.27962058,13.8100259 8.12811535,13.5043492 8.12811535,11.3999963 C8.12811535,10.7554666 8.30625366,10.4320115 8.68125276,10.0195217 C8.62030168,9.86717828 8.4210834,9.23905936 8.74218096,8.42811006 C9.2320327,8.27576667 10.3593646,9.06092105 10.3593646,9.06092105 C10.8281135,8.92968052 11.3320185,8.86170277 11.8312315,8.86170277 C12.3304445,8.86170277 12.8343496,8.92968052 13.3030984,9.06092105 C13.3030984,9.06092105 14.4304532,8.27343208 14.9202821,8.42811006 C15.2413796,9.24139394 15.0421614,9.86717828 14.9812332,10.0195217 C15.3562323,10.434369 15.5859146,10.7578012 15.5859146,11.3999963 C15.5859146,13.6617096 14.20544,13.8421596 12.8953006,13.9898339 C13.1109297,14.1749759 13.2937372,14.5265376 13.2937372,15.0773175 L13.293348,15.424467 C13.291873,16.1303821 13.2867105,16.8719659 13.2867105,17.0367016 C13.2867105,17.189045 13.3945136,17.3741871 13.6921737,17.3202855 C16.0359182,16.5421578 17.6249723,14.3179581 17.6249723,11.7187364 C17.6249723,8.46795829 14.9882598,6 11.7374817,6 C8.48670367,6 6,8.46795829 6,11.7187364 C6,14.3179581 7.63592902,16.5421578 9.97264678,17.3249776 C10.2726415,17.3788791 10.37811,17.1937142 10.37811,17.0413708 Z" id="github"></path>
        </g>
    </g>
</svg>