<?xml version="1.0" encoding="UTF-8"?>
<svg width="24px" height="24px" viewBox="0 0 24 24" version="1.1" xmlns="http://www.w3.org/2000/svg" xmlns:xlink="http://www.w3.org/1999/xlink">
    <title></title>
    <g id="Icons" stroke="none" stroke-width="1" fill="none" fill-rule="evenodd">
        <g id="Icons/2.-Size-sm-(12px)/Brands/Gitlab" fill="#151515">
            <path d="M9.79087065,10.2533125 L12.0010171,17.143921 L14.2111635,10.2533125 L17.3025715,10.2533125 L15.9783559,6.15645181 C15.9056861,5.9478494 15.6103834,5.9478494 15.535379,6.15645181 L14.2088289,10.2533125 L9.79320524,10.2533125 C9.79087065,10.2533125 8.46665506,6.15645181 8.46665506,6.15645181 C8.39398525,5.9478494 8.09868261,5.9478494 8.02367821,6.15645181 L6.69946261,10.2533125 L9.79087065,10.2533125 Z M11.9986825,17.143921 L6.69712803,10.2533125 L6.02213421,12.3158075 C5.96118312,12.5033071 6.02916087,12.7118866 6.18853091,12.8314313 L11.9986825,17.143921 Z M12.0010171,17.143921 L17.8111686,12.8314313 C17.9728732,12.7118866 18.0384935,12.5033071 17.9798999,12.3158075 L17.3049061,10.2533125 L12.0010171,17.143921 Z" id="gitlab"></path>
        </g>
    </g>
</svg>