<?xml version="1.0" encoding="UTF-8"?>
<svg width="24px" height="24px" viewBox="0 0 24 24" version="1.1" xmlns="http://www.w3.org/2000/svg" xmlns:xlink="http://www.w3.org/1999/xlink">
    <title></title>
    <g id="Icons" stroke="none" stroke-width="1" fill="none" fill-rule="evenodd">
        <g id="Icons/2.-Size-sm-(12px)/Brands/linkedin" fill="#151515">
            <path d="M16.7499768,17.499975 C17.1624666,17.499975 17.499975,17.160132 17.499975,16.7429501 L17.499975,7.75702487 C17.499975,7.33984294 17.1624666,7 16.7499768,7 L7.74766362,7 C7.33515087,7 7,7.33984294 7,7.75702487 L7,16.7429501 C7,17.160132 7.33515087,17.499975 7.74766362,17.499975 L16.7499768,17.499975 Z M9.39531137,10.3046796 C8.89609838,10.3046796 8.49296977,9.89921642 8.49296977,9.40233802 C8.49296977,8.90545963 8.89609838,8.49999642 9.39531137,8.49999642 C9.89218976,8.49999642 10.297653,8.90545963 10.297653,9.40233802 C10.297653,9.901551 9.89452435,10.3046796 9.39531137,10.3046796 Z M12.7070176,15.9999785 L11.1507622,15.9999785 L11.1507622,10.9890576 L12.643732,10.9890576 L12.643732,11.6734355 L12.6648348,11.6734355 C12.8734143,11.2796681 13.3820115,10.8648437 14.1390363,10.8648437 C15.7140371,10.8648437 16.0070052,11.9031179 16.0070052,13.2531055 L16.0070052,15.9999785 L14.4507726,15.9999785 L14.4507726,13.5624844 C14.4507726,12.9812403 14.4390539,12.2335767 13.6421808,12.2335767 C12.8312315,12.2335767 12.7070176,12.8663877 12.7070176,13.5203015 L12.7070176,15.9999785 Z M10.1757737,15.9999785 L8.61718364,15.9999785 L8.61718364,10.9890576 L10.1757737,10.9890576 L10.1757737,15.9999785 Z" id="linkedin"></path>
        </g>
    </g>
</svg>