<svg xmlns="http://www.w3.org/2000/svg" width="24" height="24" viewBox="0 0 24 24">
  <path fill="#6A6E73" fill-rule="evenodd" d="M15.9363033,11.2488145 C16.4378737,11.2488145 16.6886361,10.6417755 16.3347398,10.2878793 L15.5613042,9.56131849 L17.8886378,7.23398487 C18.0339545,7.08866813 18.0339545,6.84960163 17.8886378,6.7042849 L17.2933405,6.10898755 C17.1480237,5.96367082 16.9089572,5.96367082 16.7636405,6.10898755 L14.4363069,8.43632117 L13.7074115,7.66288552 C13.3534924,7.30898926 12.7488109,7.55975161 12.7488109,8.06132207 L12.7488109,10.6863158 C12.7488109,10.9980292 12.9995961,11.2488145 13.3113095,11.2488145 L15.9363033,11.2488145 Z M10.6863158,11.2488145 C10.9980292,11.2488145 11.2488145,10.9980292 11.2488145,10.6863158 L11.2488145,8.06132207 C11.2488145,7.56210908 10.6417755,7.31132385 10.2878793,7.66522011 L9.56131849,8.43632117 L7.23398487,6.10898755 C7.08866813,5.96367082 6.84960163,5.96367082 6.7042849,6.10898755 L6.10898755,6.7042849 C5.96367082,6.84960163 5.96367082,7.08866813 6.10898755,7.23398487 L8.43632117,9.56131849 L7.66288552,10.2902138 C7.30898926,10.644133 7.55975161,11.2488145 8.06132207,11.2488145 L10.6863158,11.2488145 Z M7.23398487,17.8886378 L9.56131849,15.5613042 L10.2902138,16.3347398 C10.644133,16.6886361 11.2488145,16.4378737 11.2488145,15.9363033 L11.2488145,13.3113095 C11.2488145,12.9995961 10.9980292,12.7488109 10.6863158,12.7488109 L8.06132207,12.7488109 C7.55975161,12.7488109 7.30898926,13.3534924 7.66288552,13.7097461 L8.43398658,14.4363069 L6.10898755,16.7636405 C5.96367082,16.9089572 5.96367082,17.1480237 6.10898755,17.2933405 L6.7042849,17.8886378 C6.84960163,18.0339545 7.08866813,18.0339545 7.23398487,17.8886378 Z M17.2933405,17.8909953 L17.8886378,17.295675 C18.0339545,17.1503583 18.0339545,16.9112918 17.8886378,16.765998 L15.5613042,14.4363069 L16.3347398,13.7074115 C16.6886361,13.3534924 16.4378737,12.7488109 15.9363033,12.7488109 L13.3113095,12.7488109 C12.9995961,12.7488109 12.7488109,12.9995961 12.7488109,13.3113095 L12.7488109,15.9363033 C12.7488109,16.4378737 13.3558498,16.6886361 13.7097461,16.3347398 L14.4363069,15.5636388 L16.7636405,17.8909953 C16.9089572,18.0362891 17.1480237,18.0362891 17.2933405,17.8909953 Z"/>
</svg>
