<svg xmlns="http://www.w3.org/2000/svg" width="24" height="24" viewBox="0 0 24 24">
  <path fill="#6A6E73" fill-rule="evenodd" d="M17.4351562,13.4636719 L16.2058594,14.6929688 L11.3660156,9.85078125 C11.2980469,9.7828125 11.2195312,9.74882812 11.1316406,9.74882812 C11.04375,9.74882812 10.9652344,9.7828125 10.8972656,9.85078125 L9.853125,10.8949219 C9.78515625,10.9628906 9.75117188,11.0414063 9.75117188,11.1292969 C9.75117188,11.2171875 9.78515625,11.2957031 9.853125,11.3636719 L14.6953125,16.2035156 L13.4636719,17.4351562 C13.1542969,17.7445313 13.2585937,18 13.696875,18 L17.203125,18 C17.8886719,18 18,17.8792969 18,17.2019531 L18,13.6957031 C17.9988281,13.2585938 17.7445313,13.1542969 17.4351562,13.4636719 Z M7.5,7.5 L16.5,7.5 L16.5,10.2386719 C16.5000931,10.3380783 16.5397255,10.4333647 16.6101562,10.5035156 L17.6800781,11.5734375 C17.7984375,11.6917969 18,11.6074219 18,11.4410156 L18,6.26601562 C18,6.18867187 17.9753906,6.12539062 17.925,6.075 C17.8746094,6.02460937 17.8113281,6 17.7339844,6 L6.26601562,6 C6.18867187,6 6.12539062,6.02460937 6.075,6.075 C6.02460937,6.12539062 6,6.18867187 6,6.26601562 L6,17.7339844 C6,17.8113281 6.02460937,17.8746094 6.075,17.925 C6.12539062,17.9753906 6.18867187,18 6.26601562,18 L11.4304687,18 C11.5062057,17.9998704 11.5744276,17.9541891 11.6033933,17.88421 C11.6323591,17.8142307 11.61638,17.733697 11.5628906,17.6800781 L10.4929687,16.6101562 C10.4228178,16.5397255 10.3275314,16.5000931 10.228125,16.5 L7.5,16.5 L7.5,7.5 Z"/>
</svg>
