<svg xmlns="http://www.w3.org/2000/svg" width="24" height="24" viewBox="0 0 24 24">
  <path fill="#6A6E73" fill-rule="evenodd" d="M17.8359375,16.3359375 L10.3933594,8.89335937 C10.1742187,8.67421875 9.81679687,8.67421875 9.59765625,8.89335937 L8.89335937,9.59765625 C8.67421875,9.81679687 8.67421875,10.1742187 8.89335937,10.3933594 L16.3359375,17.8359375 C16.4449219,17.9449219 16.5902344,18 16.734375,18 C16.8785156,18 17.0226563,17.9449219 17.1328125,17.8359375 L17.8371094,17.1316406 C17.9460937,17.0226563 18,16.8820313 18,16.7367188 C18,16.5914062 17.9460937,16.4460937 17.8359375,16.3359375 Z M11.6367188,12.3867188 L9.24609375,9.99609375 L9.99609375,9.24609375 L12.3867188,11.6367188 L11.6367188,12.3867188 Z M8.86757812,11.8675781 C8.94023437,11.9402344 8.94023437,12.0597656 8.86757812,12.1324219 L7.55507812,13.4449219 C7.51992187,13.4800781 7.471875,13.5 7.42265625,13.5 L6.9375,13.5 C6.834375,13.5 6.75,13.415625 6.75,13.3125 L6.75,12.8273438 C6.75,12.778125 6.76992187,12.7300781 6.80507812,12.6949219 L8.11757812,11.3824219 C8.19023437,11.3097656 8.30976563,11.3097656 8.38242188,11.3824219 L8.86757812,11.8675781 Z M10.5,12.9375 L10.5,14.0625 C10.5,14.165625 10.415625,14.25 10.3125,14.25 L9.9375,14.25 C9.834375,14.25 9.75,14.165625 9.75,14.0625 L9.75,12.9375 C9.75,12.834375 9.834375,12.75 9.9375,12.75 L10.3125,12.75 C10.415625,12.75 10.5,12.834375 10.5,12.9375 Z M7.3125,10.5 L6.1875,10.5 C6.084375,10.5 6,10.415625 6,10.3125 L6,9.9375 C6,9.834375 6.084375,9.75 6.1875,9.75 L7.3125,9.75 C7.415625,9.75 7.5,9.834375 7.5,9.9375 L7.5,10.3125 C7.5,10.415625 7.415625,10.5 7.3125,10.5 Z M11.3824219,8.38242188 C11.3097656,8.30976563 11.3097656,8.19023437 11.3824219,8.11757812 L12.6949219,6.80507812 C12.7300781,6.76992187 12.778125,6.75 12.8273438,6.75 L13.3125,6.75 C13.415625,6.75 13.5,6.834375 13.5,6.9375 L13.5,7.42265625 C13.5,7.471875 13.4800781,7.51992187 13.4449219,7.55507812 L12.1324219,8.86757812 C12.0597656,8.94023437 11.9402344,8.94023437 11.8675781,8.86757812 L11.3824219,8.38242188 Z M12.9375,9.75 L14.0625,9.75 C14.165625,9.75 14.25,9.834375 14.25,9.9375 L14.25,10.3125 C14.25,10.415625 14.165625,10.5 14.0625,10.5 L12.9375,10.5 C12.834375,10.5 12.75,10.415625 12.75,10.3125 L12.75,9.9375 C12.75,9.834375 12.834375,9.75 12.9375,9.75 Z M9.75,7.3125 L9.75,6.1875 C9.75,6.084375 9.834375,6 9.9375,6 L10.3125,6 C10.415625,6 10.5,6.084375 10.5,6.1875 L10.5,7.3125 C10.5,7.415625 10.415625,7.5 10.3125,7.5 L9.9375,7.5 C9.834375,7.5 9.75,7.415625 9.75,7.3125 Z M6.80507812,7.55507812 C6.76992187,7.51992187 6.75,7.471875 6.75,7.42265625 L6.75,6.9375 C6.75,6.834375 6.834375,6.75 6.9375,6.75 L7.42265625,6.75 C7.471875,6.75 7.51992187,6.76992187 7.55507812,6.80507812 L8.86757812,8.11757812 C8.94023437,8.19023437 8.94023437,8.30976563 8.86757812,8.38242188 L8.38242188,8.86757812 C8.30976563,8.94023437 8.19023437,8.94023437 8.11757812,8.86757812 L6.80507812,7.55507812 Z"/>
</svg>
