<?xml version="1.0" encoding="UTF-8"?>
<svg width="54px" height="54px" viewBox="0 0 54 54" version="1.1" xmlns="http://www.w3.org/2000/svg" xmlns:xlink="http://www.w3.org/1999/xlink">
    <title></title>
    <g id="Icons" stroke="none" stroke-width="1" fill="none" fill-rule="evenodd">
        <g id="Icons-/-4.-Size-xl-/-Actions-/-download" fill="#6A6E73">
            <path d="M28.4448747,39.8987124 L44.4865921,23.8463863 C45.815557,22.5175244 44.8768461,20.2499517 42.9995275,20.2499517 L33.7499195,20.2499517 L33.7499195,2.53124397 C33.7499195,1.12853353 32.621386,0 31.2186756,0 L22.7811957,0 C21.3784853,0 20.2499517,1.12853353 20.2499517,2.53124397 L20.2499517,20.2499517 L10.9898381,20.2499517 C9.11251947,20.2499517 8.17380864,22.5175244 9.50267052,23.8463863 L25.5656052,39.8987124 C26.356619,40.6897261 27.6538609,40.6897261 28.4448747,39.8987124 Z M51.4686273,53.9998713 C52.8713377,53.9998713 53.9998713,52.8713377 53.9998713,51.4686273 L53.9998713,39.6561555 C53.9998713,38.253445 52.8713377,37.1249115 51.4686273,37.1249115 L35.996378,37.1249115 L30.8284215,42.2928679 C28.7085459,44.4127435 25.2913254,44.4127435 23.1714497,42.2928679 L18.0034933,37.1249115 L2.53124397,37.1249115 C1.12853353,37.1249115 0,38.253445 0,39.6561555 L0,51.4686273 C0,52.8713377 1.12853353,53.9998713 2.53124397,53.9998713 L51.4686273,53.9998713 Z M38.8124075,51.0467533 C37.652254,51.0467533 36.7030375,50.0975368 36.7030375,48.9373833 C36.7030375,47.7772298 37.652254,46.8280134 38.8124075,46.8280134 C39.9725609,46.8280134 40.9217774,47.7772298 40.9217774,48.9373833 C40.9217774,50.0975368 39.9725609,51.0467533 38.8124075,51.0467533 Z M45.5623914,51.0467533 C44.4022379,51.0467533 43.4530214,50.0975368 43.4530214,48.9373833 C43.4530214,47.7772298 44.4022379,46.8280134 45.5623914,46.8280134 C46.7225449,46.8280134 47.6717613,47.7772298 47.6717613,48.9373833 C47.6717613,50.0975368 46.7225449,51.0467533 45.5623914,51.0467533 Z" id="download"></path>
        </g>
    </g>
</svg>