<?xml version="1.0" encoding="UTF-8"?>
<svg width="48px" height="48px" viewBox="0 0 48 48" version="1.1" xmlns="http://www.w3.org/2000/svg" xmlns:xlink="http://www.w3.org/1999/xlink">
    <title></title>
    <g id="Icons" stroke="none" stroke-width="1" fill="none" fill-rule="evenodd">
        <g id="Icons-/-4.-Size-xl-/-Actions-/-expand-arrows-alt" fill="#6A6E73">
            <path d="M14.3437158,47.2498873 C16.5996499,47.2498873 17.7281834,44.518212 16.1366803,42.9256789 L12.3155071,39.1183073 L23.6249437,27.801455 L34.9311873,39.1076987 L31.1132071,42.9256789 C29.5217039,44.518212 30.6502374,47.2498873 32.9061715,47.2498873 L44.7250292,47.2498873 C46.1187789,47.2498873 47.2498873,46.1187789 47.2498873,44.7250292 L47.2498873,32.9061715 C47.2498873,30.6491045 44.518212,29.5206739 42.9256789,31.1237127 L39.1098616,34.941693 L27.7951722,23.6249437 L39.1087286,12.3187 L42.9256789,16.1366803 C44.519345,17.7292134 47.2498873,16.6007829 47.2498873,14.3437158 L47.2498873,2.52485818 C47.2498873,1.13110845 46.1187789,0 44.7250292,0 L32.9061715,0 C30.6502374,0 29.5217039,2.73167531 31.1132071,4.32420844 L34.9343802,8.13158004 L23.6249437,19.4484323 L12.3187,8.14218869 L16.1366803,4.32420844 C17.7281834,2.73167531 16.5996499,0 14.3437158,0 L2.52485818,0 C1.13110845,0 0,1.13110845 0,2.52485818 L0,14.3437158 C0,16.6007829 2.73167531,17.7292134 4.32420844,16.1366803 L8.14002576,12.3081944 L19.4547151,23.6249437 L8.14115872,34.9311873 L4.32420844,31.1132071 C2.73054235,29.5206739 0,30.6491045 0,32.9061715 L0,44.7250292 C0,46.1187789 1.13110845,47.2498873 2.52485818,47.2498873 L14.3437158,47.2498873 Z" id="expand-arrows-alt"></path>
        </g>
    </g>
</svg>