<?xml version="1.0" encoding="UTF-8"?>
<svg width="54px" height="54px" viewBox="0 0 54 54" version="1.1" xmlns="http://www.w3.org/2000/svg" xmlns:xlink="http://www.w3.org/1999/xlink">
    <title></title>
    <g id="Icons" stroke="none" stroke-width="1" fill="none" fill-rule="evenodd">
        <g id="Icons-/-4.-Size-xl-/-Actions-/-open-drawer-right" fill="#6A6E73">
            <path d="M52.5789474,4 C53.3637681,4 54,4.63654276 54,5.42171875 L54,48.0519211 C54,48.8371414 53.3637681,49.4736842 52.5789474,49.4736842 L1.42105263,49.4736842 C0.636231908,49.4736842 0,48.8371414 0,48.0519211 L0,5.42171875 C0,4.63654276 0.636231908,4 1.42105263,4 L52.5789474,4 Z M51.1561184,6.84348191 L2.84210526,6.84348191 L2.84210526,46.6301579 L51.1578947,46.6301579 L51.1561184,6.84348191 Z M46.9365113,9.71199211 C47.7227975,9.71199211 48.360184,10.3490678 48.360184,11.1349099 L48.360184,42.3665382 C48.360184,43.1524247 47.7227975,43.7894559 46.9365113,43.7894559 L32.7312696,43.7894559 C31.9449834,43.7894559 31.3075525,43.1524247 31.3075525,42.3665382 L31.3075525,11.1349099 C31.3075525,10.3490678 31.9449834,9.71199211 32.7312696,9.71199211 L46.9365113,9.71199211 Z" id="quick-start"></path>
        </g>
    </g>
</svg>