<?xml version="1.0" encoding="UTF-8"?>
<svg width="54px" height="41px" viewBox="0 0 54 41" version="1.1" xmlns="http://www.w3.org/2000/svg" xmlns:xlink="http://www.w3.org/1999/xlink">
    <title></title>
    <g id="Icons" stroke="none" stroke-width="1" fill="none" fill-rule="evenodd">
        <g id="Icons-/-4.-Size-xl-/-Actions-/-panel-open" fill="#6A6E73">
            <path d="M52.7348308,0.434352214 L48.5176001,0.434352214 C47.8188576,0.434352214 47.2524308,1.00077902 47.2524308,1.69952143 L47.2524308,39.7348308 C47.2524308,40.4335732 47.8188576,41 48.5176001,41 L52.7348308,41 C53.4335732,41 54,40.4335732 54,39.7348308 L54,1.69952143 C54,1.00077902 53.4335732,0.434352214 52.7348308,0.434352214 M37.7260809,19.2666174 L35.912988,17.4535245 C35.8839945,17.424531 35.8541576,17.39675 35.823899,17.3697598 L21.4321247,2.97803819 C20.6086577,2.15457117 19.2735351,2.15457117 18.4500681,2.97803819 L16.6430902,4.78501612 C15.8196232,5.60848314 15.8196232,6.94360567 16.6430902,7.76707268 L26.2469897,17.3709722 L2.10861536,17.3709722 C0.944079813,17.3709722 0,18.3149993 0,19.4795876 L0,22.0350185 C0,23.1996068 0.944079813,24.1436339 2.10861536,24.1436339 L26.246937,24.1436339 L16.6430902,33.7475334 C15.8196232,34.5710004 15.8196232,35.9060703 16.6430902,36.7295373 L18.4500681,38.5365679 C19.2735351,39.3599822 20.6086577,39.3599822 21.4321247,38.5365679 L35.8236881,24.1450045 C35.8539995,24.1179615 35.8839418,24.0901278 35.9130407,24.0610816 L37.7261336,22.2479887 C38.1377881,21.8363343 38.3431672,21.296476 38.342381,20.756934 C38.343009,20.2176557 38.1376299,19.6781137 37.7260809,19.2666174" id="Fill-4-2"></path>
        </g>
    </g>
</svg>