<?xml version="1.0" encoding="UTF-8"?>
<svg width="54px" height="54px" viewBox="0 0 54 54" version="1.1" xmlns="http://www.w3.org/2000/svg" xmlns:xlink="http://www.w3.org/1999/xlink">
    <title></title>
    <g id="Icons" stroke="none" stroke-width="1" fill="none" fill-rule="evenodd">
        <g id="Icons-/-4.-Size-xl-/-Actions-/-pficon-export" fill="#6A6E73">
            <path d="M51.4582031,33.5865234 L45.9263672,39.1183594 L24.1470703,17.3285156 C23.8412109,17.0226563 23.4878906,16.8697266 23.0923828,16.8697266 C22.696875,16.8697266 22.3435547,17.0226563 22.0376953,17.3285156 L17.3390625,22.0271484 C17.0332031,22.3330078 16.8802734,22.6863281 16.8802734,23.0818359 C16.8802734,23.4773438 17.0332031,23.8306641 17.3390625,24.1365234 L39.1289062,45.9158203 L33.5865234,51.4582031 C32.1943359,52.8503906 32.6636719,54 34.6359375,54 L50.4140625,54 C53.4990234,54 54,53.4568359 54,50.4087891 L54,34.6306641 C53.9947266,32.6636719 52.8503906,32.1943359 51.4582031,33.5865234 Z M6.75,6.75 L47.25,6.75 L47.25,19.0740234 C47.2504188,19.5213523 47.4287646,19.9501412 47.7457031,20.2658203 L52.5603516,25.0804688 C53.0929687,25.6130859 54,25.2333984 54,24.4845703 L54,1.19707031 C54,0.849023438 53.8892578,0.564257812 53.6625,0.3375 C53.4357422,0.110742188 53.1509766,0 52.8029297,0 L1.19707031,0 C0.849023438,0 0.564257812,0.110742188 0.3375,0.3375 C0.110742188,0.564257812 0,0.849023438 0,1.19707031 L0,52.8029297 C0,53.1509766 0.110742188,53.4357422 0.3375,53.6625 C0.564257812,53.8892578 0.849023438,54 1.19707031,54 L24.4371094,54 C24.7779255,53.9994168 25.0849242,53.7938508 25.21527,53.4789448 C25.3456159,53.1640383 25.2737101,52.8016366 25.0330078,52.5603516 L20.2183594,47.7457031 C19.9026802,47.4287646 19.4738914,47.2504188 19.0265625,47.25 L6.75,47.25 L6.75,6.75 Z" id="pficon-export"></path>
        </g>
    </g>
</svg>