<?xml version="1.0" encoding="UTF-8"?>
<svg width="54px" height="54px" viewBox="0 0 54 54" version="1.1" xmlns="http://www.w3.org/2000/svg" xmlns:xlink="http://www.w3.org/1999/xlink">
    <title></title>
    <g id="Icons" stroke="none" stroke-width="1" fill="none" fill-rule="evenodd">
        <g id="Icons-/-4.-Size-xl-/-Actions-/-pficon-save" fill="#6A6E73">
            <path d="M53.5042969,9.62929687 L44.3707031,0.495703125 C44.0542969,0.179296875 43.6271484,0 43.1789062,0 L1.6875,0 C0.754101563,0 0,0.754101563 0,1.6875 L0,52.3125 C0,53.2458984 0.754101563,54 1.6875,54 L52.3125,54 C53.2458984,54 54,53.2458984 54,52.3125 L54,10.8263672 C54,10.378125 53.8207031,9.94570312 53.5042969,9.62929687 Z M47.25,47.25 L6.75,47.25 L6.75,6.75 L41.0800781,6.75 L47.25,12.9199219 L47.25,47.25 Z M30.375,27 L30.375,14.2910156 C30.375,13.8533203 30.0005859,13.5 29.5681641,13.5 L24.5742188,13.5 C24.0521484,13.5 23.625,13.9271484 23.625,14.4492188 L23.625,27 L16.8697266,27 C15.440625,27 14.6601562,28.6611328 15.5671875,29.7632813 L25.6921875,42.0292969 C26.3671875,42.8466797 27.6275391,42.8466797 28.2972656,42.0240234 L38.3431641,29.7580078 C39.2449219,28.6558594 38.4591797,27 37.0353516,27 L30.375,27 Z" id="pficon-save"></path>
        </g>
    </g>
</svg>