<?xml version="1.0" encoding="UTF-8"?>
<svg width="55px" height="54px" viewBox="0 0 55 54" version="1.1" xmlns="http://www.w3.org/2000/svg" xmlns:xlink="http://www.w3.org/1999/xlink">
    <title></title>
    <g id="Icons" stroke="none" stroke-width="1" fill="none" fill-rule="evenodd">
        <g id="Icons-/-4.-Size-xl-/-Actions-/-pficon-import" fill="#6A6E73">
            <path d="M47.2500005,47.25 L6.75000053,47.25 L6.75000053,31.5509766 C6.74958171,31.1036477 6.5712359,30.6748588 6.2542974,30.3591797 L1.43964899,25.5445312 C1.20017986,25.3012466 0.837360171,25.2269466 0.521536206,25.3565154 C0.205712241,25.4860842 0,25.7937874 0,26.1351563 L0,52.8029297 C0,53.1509766 0.110742736,53.4357422 0.337500549,53.6625 C0.564258361,53.8892578 0.849023986,54 1.19707086,54 L52.8029302,54 C53.1509771,54 53.4357427,53.8892578 53.6625005,53.6625 C53.8892583,53.4357422 54,53.1509766 54,52.8029297 L54,1.19707031 C54,0.849023438 53.8892583,0.564257812 53.6625005,0.3375 C53.4357427,0.110742188 53.1509771,0 52.8029302,0 L26.1878912,0 C25.847075,0.000583159526 25.5400763,0.206149082 25.4097305,0.521055365 C25.2793847,0.83596165 25.3512905,1.19836351 25.5919927,1.43964844 L30.4066412,6.25429687 C30.7223203,6.57123537 31.1511091,6.74958118 31.598438,6.75 L47.2500005,6.75 L47.2500005,47.25 Z M34.5832037,16.7115234 L29.0513677,22.2486328 L7.2667974,0.458789063 C6.96093803,0.152929687 6.60761771,0 6.2121099,0 C5.81660209,0 5.46328178,0.152929687 5.15742242,0.458789063 L0.458789611,5.15742187 C0.152930236,5.46328125 5.48860516e-07,5.81660156 5.48860516e-07,6.21210937 C5.48860516e-07,6.60761719 0.152930236,6.9609375 0.458789611,7.26679688 L22.2486333,29.0460937 L16.711524,34.5832031 C15.3193365,35.9753906 15.7886724,37.125 17.760938,37.125 L33.539063,37.125 C36.624024,37.125 37.1250005,36.5818359 37.1250005,33.5337891 L37.1250005,17.7556641 C37.1197271,15.7886719 35.9753912,15.3193359 34.5832037,16.7115234 Z" id="pficon-import"></path>
        </g>
    </g>
</svg>