<?xml version="1.0" encoding="UTF-8"?>
<svg width="54px" height="55px" viewBox="0 0 54 55" version="1.1" xmlns="http://www.w3.org/2000/svg" xmlns:xlink="http://www.w3.org/1999/xlink">
    <title></title>
    <g id="Icons" stroke="none" stroke-width="1" fill="none" fill-rule="evenodd">
        <g id="Icons-/-4.-Size-xl-/-Actions-/-print" fill="#6A6E73">
            <path d="M43.8748954,54.9998713 C45.7385155,54.9998713 47.2498873,53.4884994 47.2498873,51.6248793 L47.2498873,41.4999034 L52.3123753,41.4999034 C53.2447003,41.4999034 53.9998713,40.7447325 53.9998713,39.8124075 L53.9998713,27.9999356 C53.9998713,24.2716654 50.9781576,21.2499517 47.2498873,21.2499517 L47.2498873,9.14744151 C47.2498873,8.25198924 46.8944461,7.39454271 46.2616352,6.76070175 L41.4881556,1.98825219 C40.8553446,1.3554412 39.9968681,1 39.1014159,1 L10.1249759,1 C8.26135573,1 6.74998391,2.51137182 6.74998391,4.37499195 L6.74998391,21.2499517 C3.02171368,21.2499517 0,24.2716654 0,27.9999356 L0,39.8124075 C0,40.7447325 0.755170929,41.4999034 1.68749598,41.4999034 L6.74998391,41.4999034 L6.74998391,51.6248793 C6.74998391,53.4884994 8.26135573,54.9998713 10.1249759,54.9998713 L43.8748954,54.9998713 Z M40.4999034,24.6249437 L13.4999678,24.6249437 L13.4999678,7.74998391 L33.7499195,7.74998391 L33.7499195,12.8124718 C33.7499195,13.7447969 34.5050905,14.4999678 35.4374155,14.4999678 L40.4999034,14.4999678 L40.4999034,24.6249437 Z M45.5623914,32.2186756 C44.1649338,32.2186756 43.0311474,31.0848892 43.0311474,29.6874316 C43.0311474,28.288944 44.1649338,27.1561876 45.5623914,27.1561876 C46.959849,27.1561876 48.0936353,28.288944 48.0936353,29.6874316 C48.0936353,31.0848892 46.959849,32.2186756 45.5623914,32.2186756 Z M40.4999034,48.2498873 L13.4999678,48.2498873 L13.4999678,38.1249115 L40.4999034,38.1249115 L40.4999034,48.2498873 Z" id="print"></path>
        </g>
    </g>
</svg>