<?xml version="1.0" encoding="UTF-8"?>
<svg width="61px" height="54px" viewBox="0 0 61 54" version="1.1" xmlns="http://www.w3.org/2000/svg" xmlns:xlink="http://www.w3.org/1999/xlink">
    <title></title>
    <g id="Icons" stroke="none" stroke-width="1" fill="none" fill-rule="evenodd">
        <g id="Icons-/-4.-Size-xl-/-Actions-/-share-square" fill="#6A6E73">
            <path d="M23.1212904,41.6996129 C18.8191232,27.3305599 25.2517747,23.7295935 40.4999034,23.6273179 L40.4999034,31.2171359 C40.4999034,33.4482478 43.1682359,34.5691596 44.7691117,33.0572728 L59.9569875,18.715205 C61.0145564,17.7162411 61.0137324,16.032762 59.9569875,15.0347252 L44.7691117,0.69234831 C43.1700898,-0.817993548 40.4999034,0.299313359 40.4999034,2.53248522 L40.4999034,10.1278651 C25.0591711,10.2134552 12.6562198,13.2260022 12.6562198,28.4067712 C12.6562198,34.4342341 16.3741904,40.4055639 20.48396,43.5273902 C21.7664734,44.5016349 23.5941477,43.2787565 23.1212904,41.6996129 Z M42.1873994,53.9998765 C44.9833446,53.9998765 47.2498873,51.7333338 47.2498873,48.9373886 L47.2498873,39.5711886 C47.2498873,38.6970566 46.385334,38.0876258 45.5612584,38.3791061 C44.8845709,38.6184702 43.7529474,38.8127217 43.0352673,38.8127217 C42.7356502,38.8127217 42.2518753,38.7780119 41.9553481,38.7352683 C41.1886416,38.624959 40.4999034,39.2114215 40.4999034,39.9860588 L40.4999034,47.2498926 L6.74998391,47.2498926 L6.74998391,13.4999731 L12.1200196,13.4999731 C12.4175767,13.4997671 12.8261642,13.3252909 13.0321573,13.11044 C14.609138,11.4685715 16.4320745,10.1689607 18.4124927,9.13683196 C19.5863448,8.52503227 19.1513902,6.7499892 17.8276781,6.7499892 L5.06248793,6.7499892 C2.26654275,6.7499892 0,9.01653196 0,11.8124771 L0,48.9373886 C0,51.7333338 2.26654275,53.9998765 5.06248793,53.9998765 L42.1873994,53.9998765 Z" id="share-square"></path>
        </g>
    </g>
</svg>