<?xml version="1.0" encoding="UTF-8"?>
<svg width="54px" height="54px" viewBox="0 0 54 54" version="1.1" xmlns="http://www.w3.org/2000/svg" xmlns:xlink="http://www.w3.org/1999/xlink">
    <title></title>
    <g id="Icons" stroke="none" stroke-width="1" fill="none" fill-rule="evenodd">
        <g id="Icons-/-4.-Size-xl-/-Actions-/-undo" fill="#6A6E73">
            <path d="M27.0350575,53.1561233 C41.4617885,53.1561233 53.1604491,41.476311 53.1912031,27.0567897 C53.2218351,12.6171841 41.6686056,0.949319483 27.229309,0.844468964 C19.4336008,0.787820845 12.4213876,4.14272847 7.5937319,9.50400948 L7.5937319,1.26562198 C7.5937319,0.566687187 7.02704471,0 6.32810991,0 L1.26562198,0 C0.566687187,0 1.42108547e-14,0.566687187 1.42108547e-14,1.26562198 L1.42108547e-14,22.3944435 C1.42108547e-14,23.0933783 0.566687187,23.6600655 1.26562198,23.6600655 L22.3944435,23.6600655 C23.0933783,23.6600655 23.6600655,23.0933783 23.6600655,22.3944435 L23.6600655,17.3319556 C23.6600655,16.6330208 23.0933783,16.0663336 22.3944435,16.0663336 L12.0295886,16.0663336 C15.4039626,11.4407572 20.8655623,8.43747988 27.0350575,8.43747988 C37.2954738,8.43747988 45.5975132,16.7413732 45.5975132,26.9999356 C45.5975132,37.260352 37.2937229,45.5623914 27.0350575,45.5623914 C22.3150332,45.5623914 18.0097761,43.8048577 14.7364418,40.9083879 C14.2367024,40.4662236 13.4785445,40.4918697 13.0067172,40.9638 L9.42429012,44.5462271 C8.91095516,45.0594591 8.93567434,45.8959973 9.47352249,46.3834801 C14.1155784,50.5918174 20.2757009,53.1561233 27.0350575,53.1561233 Z" id="undo"></path>
        </g>
    </g>
</svg>