<svg xmlns="http://www.w3.org/2000/svg" xmlns:xlink="http://www.w3.org/1999/xlink" width="32" height="40" viewBox="0 0 32 40">
  <defs>
    <rect id="left-hover-b" width="32" height="40" x="0" y="0"/>
    <filter id="left-hover-a" width="262.5%" height="195%" x="-40.6%" y="-47.5%" filterUnits="objectBoundingBox">
      <feMorphology in="SourceAlpha" radius="2" result="shadowSpreadOuter1"/>
      <feOffset dx="20" in="shadowSpreadOuter1" result="shadowOffsetOuter1"/>
      <feGaussianBlur in="shadowOffsetOuter1" result="shadowBlurOuter1" stdDeviation="5"/>
      <feColorMatrix in="shadowBlurOuter1" values="0 0 0 0 0.141176471   0 0 0 0 0.141176471   0 0 0 0 0.141176471  0 0 0 1 0"/>
    </filter>
  </defs>
  <g fill="none" fill-rule="evenodd">
    <use fill="#000" filter="url(#left-hover-a)" xlink:href="#left-hover-b"/>
    <use fill="#242424" xlink:href="#left-hover-b"/>
    <g transform="translate(4 8)">
      <path fill="#151515" d="M14.1493157,15.3370987 L14.6789928,14.8050642 C14.8993139,14.5871005 14.8993139,14.2308468 14.6789928,14.0105486 L12.4196369,11.7511698 L14.6766582,9.48945644 C14.8969564,9.27149279 14.8969564,8.91523906 14.6766582,8.69491793 L14.1469582,8.16524085 C13.9289945,7.94491972 13.5727408,7.94491972 13.3524426,8.16524085 L10.1649502,11.3527332 C9.94462905,11.5730544 9.94462905,11.9292852 10.1672848,12.1496063 L13.3547772,15.3370987 C13.5727408,15.5574199 13.9289945,15.5574199 14.1493157,15.3370987 Z"/>
      <rect width="24" height="24" fill="#2B9AF3"/>
    </g>
    <g fill="#92D400" fill-opacity=".9" stroke="#7FB300">
      <rect width="7" height="39" x=".5" y=".5"/>
      <rect width="7" height="39" x=".5" y=".5" transform="translate(24)"/>
    </g>
  </g>
</svg>
