<?xml version="1.0" encoding="UTF-8"?>
<svg width="268px" height="40px" viewBox="0 0 268 40" version="1.1" xmlns="http://www.w3.org/2000/svg" xmlns:xlink="http://www.w3.org/1999/xlink">
    <title></title>
    <g id="Tree-view" stroke="none" stroke-width="1" fill="none" fill-rule="evenodd">
        <g id="Tree-view-/-2.-With-checkbox-/-Folder-/-2.-Second-level-/-Selected">
            <g id="Dropdowns-/-3.-Menu-Item-/-Default">
                <text id="âœï¸-Label" font-family="RedHatText-Regular, Red Hat Text" font-size="16" font-weight="normal" line-spacing="24" fill="#151515">
                    <tspan x="80" y="24">Second level </tspan>
                </text>
                <g id="ðŸ“-Padding" fill-opacity="0.9">
                    <g id="Spacer-/-Vertical-/-2.-pf-global--spacer--sm-(8px)" fill="#92D400" stroke="#7FB300">
                        <rect id="Rectangle-Copy" x="0.5" y="0.5" width="259" height="7"></rect>
                    </g>
                    <g id="Spacer-/-Vertical-/-2.-pf-global--spacer--sm-(8px)" transform="translate(0.000000, 32.000000)" fill="#92D400" stroke="#7FB300">
                        <rect id="Rectangle-Copy" x="0.5" y="0.5" width="259" height="7"></rect>
                    </g>
                    <g id="Spacer-/-Horizontal-/-2.-pf-global--spacer--sm-(8px)" transform="translate(260.000000, 0.000000)" fill="#92D400" stroke="#7FB300">
                        <rect id="Rectangle-Copy" x="0.5" y="0.5" width="7" height="39"></rect>
                    </g>
                    <g id="Spacer-/-Horizontal-/-5.-pf-global--spacer--xl-(32px)" fill="#0088CE" stroke="#0479B0">
                        <rect id="Rectangle-Copy-4" x="0.5" y="0.5" width="31" height="39"></rect>
                    </g>
                    <g id="Spacer-/-Horizontal-/-3.-pf-global--spacer--md-(16px)" transform="translate(48.000000, 8.000000)" fill="#92D400" stroke="#7FB300">
                        <rect id="Rectangle-Copy" x="0.5" y="0.5" width="7" height="23.5"></rect>
                    </g>
                    <g id="Spacer-/-Horizontal-/-3.-pf-global--spacer--md-(16px)" transform="translate(72.000000, 0.000000)" fill="#92D400" stroke="#7FB300">
                        <rect id="Rectangle-Copy" x="0.5" y="0.5" width="7" height="39"></rect>
                    </g>
                </g>
                <g id="Icons/2.-Size-sm-(12px)/angle-right" transform="translate(36.000000, 18.000000)" fill="#151515">
                    <path d="M4.14491428,4.67693167 L7.33240668,1.48943927 C7.55272781,1.27147562 7.55272781,0.915221893 7.33240668,0.694923651 L6.8027296,0.165223681 C6.58476595,-0.0550745605 6.22851222,-0.0550745605 6.00819109,0.165223681 L3.74883521,2.42460245 L1.48945644,0.165223681 C1.27149279,-0.0550745605 0.915239059,-0.0550745605 0.694917929,0.165223681 L0.165240847,0.694923651 C-0.0550802825,0.912887304 -0.0550802825,1.26914103 0.165240847,1.48943927 L3.35273325,4.67693167 C3.57305438,4.8972528 3.92928522,4.8972528 4.14491428,4.67693167 Z" id="angle-down"></path>
                </g>
            </g>
            <g id="Forms/3.-Toggles/2.-Checkbox/1.-Unchecked/Default" transform="translate(56.000000, 12.000000)" fill="#FFFFFF" stroke="#6A6E73">
                <rect id="Rectangle" x="0.5" y="0.5" width="15" height="15"></rect>
            </g>
        </g>
    </g>
</svg>