<?xml version="1.0" encoding="UTF-8"?><svg version="1.1" width="94px" height="58px" viewBox="0 0 94.0 58.0" xmlns="http://www.w3.org/2000/svg" xmlns:xlink="http://www.w3.org/1999/xlink"><defs><clipPath id="i0"><path d="M94,0 L94,58 L0,58 L0,0 L94,0 Z"></path></clipPath><clipPath id="i1"><path d="M16,0 L16,58 L0,58 L0,0 L16,0 Z"></path></clipPath><clipPath id="i2"><path d="M62,0 L62,8 L0,8 L0,0 L62,0 Z"></path></clipPath></defs><g transform=""><g clip-path="url(#i0)"><polygon points="0,0 94,0 94,58 0,58 0,0" stroke="none" fill="#F0F0F0"></polygon></g></g><g transform="translate(16.0 32.0)"><text transform="translate(0.0 12.0)" font-family="RedHatText-Regular, Red Hat Text" font-size="12.0" font-weight="normal" fill="#696E73" text-anchor="left" line-spacing="18.0">Description</text></g><g transform="translate(16.0 8.0)"><text transform="translate(0.0 16.0)" font-family="RedHatText-Regular, Red Hat Text" font-size="16.0" font-weight="normal" fill="#151515" text-anchor="left" line-spacing="24.0">Option</text></g><g clip-path="url(#i1)"><polygon points="0,0 16,0 16,58 0,58 0,0" stroke="none" fill="rgba(62, 156, 52, 0.9)"></polygon></g><g clip-path="url(#i1)"><polygon points="0,0 16,0 16,58 0,58 0,0 0,0" stroke="#418A37" stroke-width="2" fill="none" stroke-miterlimit="5"></polygon></g><g transform="translate(16.0 0.0)"><g clip-path="url(#i2)"><polygon points="0,0 62,0 62,8 0,8 0,0" stroke="none" fill="rgba(146, 211, 0, 0.9)"></polygon></g><g clip-path="url(#i2)"><polygon points="0,0 62,0 62,8 0,8 0,0 0,0" stroke="#7EB200" stroke-width="2" fill="none" stroke-miterlimit="5"></polygon></g></g><g transform="translate(16.0 50.00000000000001)"><g clip-path="url(#i2)"><polygon points="0,0 62,0 62,8 0,8 0,0" stroke="none" fill="rgba(146, 211, 0, 0.9)"></polygon></g><g clip-path="url(#i2)"><polygon points="0,0 62,0 62,8 0,8 0,0 0,0" stroke="#7EB200" stroke-width="2" fill="none" stroke-miterlimit="5"></polygon></g></g><g transform="translate(78.0 1.4210854715202004e-14)"><g clip-path="url(#i1)"><polygon points="0,0 16,0 16,58 0,58 0,0" stroke="none" fill="rgba(62, 156, 52, 0.9)"></polygon></g><g clip-path="url(#i1)"><polygon points="0,0 16,0 16,58 0,58 0,0 0,0" stroke="#418A37" stroke-width="2" fill="none" stroke-miterlimit="5"></polygon></g></g></svg>