<?xml version="1.0" encoding="UTF-8"?>
<svg width="114px" height="58px" viewBox="0 0 114 58" version="1.1" xmlns="http://www.w3.org/2000/svg" xmlns:xlink="http://www.w3.org/1999/xlink">
    <title></title>
    <g id="Dropdowns" stroke="none" stroke-width="1" fill="none" fill-rule="evenodd">
        <g id="Dropdowns-/-3.-Menu-Item-/-8.-With-description-/-5.-Single-select">
            <rect fill="#FFFFFF" x="0" y="0" width="114" height="58"></rect>
            <rect id="Background" fill="#FFFFFF" x="0" y="0" width="114" height="58"></rect>
            <text id="âœï¸-Label" font-family="RedHatText-Regular, Red Hat Text" font-size="16" font-weight="normal" line-spacing="24" fill="#151515">
                <tspan x="16" y="24">Option</tspan>
            </text>
            <g id="Check" transform="translate(82.000000, 8.000000)" fill="#0066CC">
                <path d="M6.92424458,16.7728081 L13.8242373,9.87279255 C14.0585431,9.63846388 14.0585431,9.25856672 13.8242373,9.02426094 L12.9757286,8.17572933 C12.7414228,7.94142356 12.3615027,7.94142356 12.127197,8.17572933 L6.49999022,13.8029361 L3.87277633,11.1757222 C3.63847056,10.9413935 3.2585505,10.9413935 3.02424473,11.1757222 L2.17573601,12.0242538 C1.94143023,12.2585825 1.94143023,12.6384796 2.17573601,12.8727854 L6.07573587,16.7727853 C6.31001875,17.0071139 6.68991592,17.0071139 6.92424458,16.7728081 Z" id="check"></path>
            </g>
            <g id="ðŸ“-Padding" fill-opacity="0.9">
                <g id="Spacer-/-Vertical-/-2.-pf-global--spacer--sm-(8px)" transform="translate(16.000000, 0.000000)" fill="#92D400" stroke="#7FB300">
                    <rect id="Rectangle-Copy" x="0.5" y="0.5" width="81" height="7"></rect>
                </g>
                <g id="Spacer-/-Vertical-/-2.-pf-global--spacer--sm-(8px)" transform="translate(16.000000, 50.000000)" fill="#92D400" stroke="#7FB300">
                    <rect id="Rectangle-Copy" x="0.5" y="0.5" width="81" height="7"></rect>
                </g>
                <g id="Spacer-/-Horizontal-/-4.-pf-global--spacer--lg-(24px)" fill="#3F9C35" stroke="#418A38">
                    <rect id="Rectangle-Copy-2" x="0.5" y="0.5" width="15" height="57"></rect>
                </g>
                <g id="Spacer-/-Horizontal-/-3.-pf-global--spacer--md-(16px)" transform="translate(66.000000, 8.000000)" fill="#3F9C35" stroke="#418A38">
                    <rect id="Rectangle-Copy-2" x="0.5" y="0.5" width="15" height="23"></rect>
                </g>
                <g id="Spacer-/-Horizontal-/-4.-pf-global--spacer--lg-(24px)" transform="translate(98.000000, 0.000000)" fill="#3F9C35" stroke="#418A38">
                    <rect id="Rectangle-Copy-2" x="0.5" y="0.5" width="15" height="57"></rect>
                </g>
            </g>
            <text id="âœï¸-Label" font-family="RedHatText-Regular, Red Hat Text" font-size="12" font-weight="normal" line-spacing="18" fill="#6A6E73">
                <tspan x="16" y="44">Description</tspan>
            </text>
        </g>
    </g>
</svg>