<?xml version="1.0" encoding="UTF-8"?>
<svg width="24px" height="24px" viewBox="0 0 24 24" version="1.1" xmlns="http://www.w3.org/2000/svg" xmlns:xlink="http://www.w3.org/1999/xlink">
    <title></title>
    <g id="Icons" stroke="none" stroke-width="1" fill="none" fill-rule="evenodd">
        <g id="Icons/1.-Size-md-(16px)/Framework/angle-double-right" fill="#151515">
            <path d="M7.98591903,16.7827983 L12.2359089,12.5328085 C12.5296704,12.239047 12.5296704,11.7640725 12.2327961,11.470311 L7.98280625,7.22032113 C7.69218804,6.92655962 7.21718307,6.92655962 6.92342157,7.22032113 L6.22029824,7.93281333 C5.92656725,8.22343153 5.92656725,8.6984365 6.22029824,8.99219801 L9.23280327,12.0046725 L6.22029824,15.0171775 C5.92656725,15.3077957 5.92656725,15.7828007 6.22029824,16.0765622 L6.92656487,16.7827983 C7.21718307,17.0765598 7.69218804,17.0765598 7.98591903,16.7827983 Z M13.9859047,16.7765422 L18.2358946,12.5265524 C18.5296561,12.239047 18.5296561,11.7640725 18.2358946,11.470311 L13.9859047,7.22032113 C13.6921737,6.92655962 13.2171688,6.92655962 12.9265506,7.22032113 L12.2202839,7.92655724 C11.9265529,8.22031875 11.9265529,8.69532372 12.2202839,8.98594192 L15.232789,11.9984469 L12.2202839,15.0109215 C11.9265529,15.304683 11.9265529,15.7796879 12.2202839,16.0703061 L12.9265506,16.7765422 C13.2202816,17.0703037 13.6952865,17.0703037 13.9859047,16.7765422 Z" id="angle-double-right"></path>
        </g>
    </g>
</svg>