<?xml version="1.0" encoding="UTF-8"?>
<svg width="24px" height="24px" viewBox="0 0 24 24" version="1.1" xmlns="http://www.w3.org/2000/svg" xmlns:xlink="http://www.w3.org/1999/xlink">
    <title></title>
    <g id="Icons" stroke="none" stroke-width="1" fill="none" fill-rule="evenodd">
        <g id="Icons/1.-Size-md-(16px)/Framework/folder-open" fill="#151515">
            <path d="M3,16.18891 L5.15865574,12.4883573 C5.69417693,11.5702992 6.68715552,10.9999881 7.74998868,10.9999881 L17.9999642,10.9999881 L17.9999642,9.5 C17.9999642,8.67156345 17.328396,8 16.4999678,8 L11.4999797,8 L9.4999845,6 L4.5,6 C3.67156822,6 3,6.67156822 3,7.5 L3,16.18891 Z M16.9059117,17.9999714 C17.5400044,17.9999714 18.3138978,17.5554534 18.6333856,17.0077252 L20.8966553,13.1278822 C21.1883416,12.6278834 20.8276858,11.9999857 20.2488297,11.9999857 L7.74998868,11.9999857 C7.11586543,11.9999857 6.3419415,12.4445037 6.02242321,12.9922319 L3.75918398,16.8720749 C3.46752818,17.3720737 3.82818406,17.9999714 4.4070401,17.9999714 L16.9059117,17.9999714 Z" id="folder-open"></path>
        </g>
    </g>
</svg>