<?xml version="1.0" encoding="UTF-8"?><svg version="1.1" width="158px" height="56px" viewBox="0 0 158.0 56.0" xmlns="http://www.w3.org/2000/svg" xmlns:xlink="http://www.w3.org/1999/xlink"><defs><filter id="i0" x="-4.32098765%" y="-10%" filterUnits="userSpaceOnUse" width="106.17284%" height="116.666667%"><feGaussianBlur stdDeviation="1" in="SourceAlpha" result="i1"></feGaussianBlur><feOffset dx="0" dy="1" in="i1" result="i2"></feOffset><feColorMatrix values="0 0 0 0.0 0 0 0 0 0.0 0 0 0 0 0.0 0 0 0 0 0.12 0" type="matrix" in="i2"></feColorMatrix></filter><clipPath id="i3"><path d="M158,0 L158,56 L0,56 L0,0 L158,0 Z"></path></clipPath><clipPath id="i4"><path d="M0.923421565,0.22032113 C1.21718307,-0.0734403767 1.69218804,-0.0734403767 1.98280625,0.22032113 L6.23279611,4.470311 C6.52967041,4.7640725 6.52967041,5.23904696 6.2359089,5.53280846 L1.98591903,9.78279833 C1.69218804,10.0765598 1.21718307,10.0765598 0.926564869,9.78279833 L0.220298242,9.07656222 C-0.0734327473,8.78280072 -0.0734327473,8.30779574 0.220298242,8.01717754 L3.23280327,5.00467252 L0.220298242,1.99219801 C-0.0734327473,1.6984365 -0.0734327473,1.22343153 0.220298242,0.932813328 Z"></path></clipPath><clipPath id="i5"><path d="M128,0 L128,16 L0,16 L0,0 L128,0 Z"></path></clipPath></defs><polygon points="0,0 158,0 158,56 0,56 0,0 0,0" stroke="none" fill="#000000" filter="url(#i0)"></polygon><g clip-path="url(#i3)"><polygon points="0,0 158,0 158,56 0,56 0,0" stroke="none" fill="#FFFFFF"></polygon></g><g transform="translate(40.0 18.0)"><text transform="translate(0.0 14.0)" font-family="RedHatText-Regular, Red Hat Text" font-size="14.0" font-weight="normal" fill="#141514" text-anchor="left" line-spacing="21.0">Jump to section</text></g><g transform="translate(16.0 16.0)"><g transform="translate(9.0 6.999999999999999)"><g clip-path="url(#i4)"><polygon points="-2.77555756e-17,-2.77555756e-17 6.45584247,-2.77555756e-17 6.45584247,10.0031195 -2.77555756e-17,10.0031195 -2.77555756e-17,-2.77555756e-17" stroke="none" fill="#151515"></polygon></g></g></g><g transform="translate(-126.0 0.0)"><g transform="translate(0.0 21.0)"><g clip-path="url(#i5)"><polygon points="0,0 128,0 128,16 0,16 0,0" stroke="none" fill="rgba(62, 156, 52, 0.9)"></polygon></g><g clip-path="url(#i5)"><polygon points="0,0 128,0 128,16 0,16 0,0 0,0" stroke="#418A37" stroke-width="2" fill="none" stroke-miterlimit="5"></polygon></g></g></g></svg>