<?xml version="1.0" encoding="UTF-8"?><svg version="1.1" width="158px" height="56px" viewBox="0 0 158.0 56.0" xmlns="http://www.w3.org/2000/svg" xmlns:xlink="http://www.w3.org/1999/xlink"><defs><filter id="i0" x="-4.32098765%" y="-10%" filterUnits="userSpaceOnUse" width="106.17284%" height="116.666667%"><feGaussianBlur stdDeviation="1" in="SourceAlpha" result="i1"></feGaussianBlur><feOffset dx="0" dy="1" in="i1" result="i2"></feOffset><feColorMatrix values="0 0 0 0.0 0 0 0 0 0.0 0 0 0 0 0.0 0 0 0 0 0.12 0" type="matrix" in="i2"></feColorMatrix></filter><clipPath id="i3"><path d="M158,0 L158,56 L0,56 L0,0 L158,0 Z"></path></clipPath><clipPath id="i4"><path d="M0.926557239,0.220298242 C1.22031875,-0.0734327473 1.69532372,-0.0734327473 1.98594192,0.220298242 L4.99844695,3.23280327 L8.01092145,0.220298242 C8.30468296,-0.0734327473 8.77968793,-0.0734327473 9.07030613,0.220298242 L9.77654224,0.926564869 C10.0703037,1.22029586 10.0703037,1.69530083 9.77654224,1.98591903 L5.52655238,6.2359089 C5.23904696,6.52967041 4.7640725,6.52967041 4.470311,6.2359089 L0.22032113,1.98591903 C-0.0734403767,1.69218804 -0.0734403767,1.21718307 0.22032113,0.926564869 Z"></path></clipPath></defs><polygon points="0,0 158,0 158,56 0,56 0,0 0,0" stroke="none" fill="#000000" filter="url(#i0)"></polygon><g clip-path="url(#i3)"><polygon points="0,0 158,0 158,56 0,56 0,0" stroke="none" fill="#FFFFFF"></polygon></g><g transform="translate(40.0 18.0)"><text transform="translate(0.0 14.0)" font-family="RedHatText-Regular, Red Hat Text" font-size="14.0" font-weight="normal" fill="#141514" text-anchor="left" line-spacing="21.0">Jump to section</text></g><g transform="translate(16.0 16.0)"><g transform="translate(7.0 9.0)"><g clip-path="url(#i4)"><polygon points="0,0 9.99686337,0 9.99686337,6.45623003 0,6.45623003 0,0" stroke="none" fill="#151515"></polygon></g></g></g></svg>