<?xml version="1.0" encoding="UTF-8"?><svg version="1.1" width="79px" height="36px" viewBox="0 0 79.0 36.0" xmlns="http://www.w3.org/2000/svg" xmlns:xlink="http://www.w3.org/1999/xlink"><defs><clipPath id="i0"><path d="M76,0 C77.6568542,-3.04359188e-16 79,1.34314575 79,3 L79,33 C79,34.6568542 77.6568542,36 76,36 L3,36 C1.34314575,36 -1.57345071e-15,34.6568542 0,33 L0,3 C-2.02906125e-16,1.34314575 1.34314575,-1.39730022e-16 3,0 L76,0 Z"></path></clipPath></defs><g clip-path="url(#i0)"><polygon points="0,0 79,0 79,36 0,36 0,0" stroke="none" fill="#FFFFFF"></polygon><path d="M3,0 L76,0 C77.6568542,-3.04359188e-16 79,1.34314575 79,3 L79,33 C79,34.6568542 77.6568542,36 76,36 L3,36 C1.34314575,36 -1.57345071e-15,34.6568542 0,33 L0,3 C-2.02906125e-16,1.34314575 1.34314575,-1.39730022e-16 3,0 Z" stroke="#D2D2D2" stroke-width="2" fill="none" stroke-miterlimit="5"></path></g><g transform="translate(16.0 8.0)"><text transform="translate(0.0 14.0)" font-family="RedHatText-Regular, Red Hat Text" font-size="14.0" font-weight="normal" fill="#141514" text-anchor="left" line-spacing="21.0">Default</text></g></svg>