<?xml version="1.0" encoding="UTF-8"?><svg version="1.1" width="88px" height="36px" viewBox="0 0 88.0 36.0" xmlns="http://www.w3.org/2000/svg" xmlns:xlink="http://www.w3.org/1999/xlink"><defs><clipPath id="i0"><path d="M85,0 C86.6568542,-3.04359188e-16 88,1.34314575 88,3 L88,33 C88,34.6568542 86.6568542,36 85,36 L3,36 C1.34314575,36 -2.01753992e-15,34.6568542 0,33 L0,3 C-2.02906125e-16,1.34314575 1.34314575,-1.39730022e-16 3,0 L85,0 Z"></path></clipPath></defs><g clip-path="url(#i0)"><polygon points="0,0 88,0 88,36 0,36 0,0" stroke="none" fill="#E7F1FA"></polygon><path d="M3,0 L85,0 C86.6568542,-3.04359188e-16 88,1.34314575 88,3 L88,33 C88,34.6568542 86.6568542,36 85,36 L3,36 C1.34314575,36 -2.01753992e-15,34.6568542 0,33 L0,3 C-2.02906125e-16,1.34314575 1.34314575,-1.39730022e-16 3,0 Z" stroke="#0066CC" stroke-width="2" fill="none" stroke-miterlimit="5"></path></g><g transform="translate(16.0 8.0)"><text transform="translate(0.0 14.0)" font-family="RedHatText-Regular, Red Hat Text" font-size="14.0" font-weight="normal" fill="#141514" text-anchor="left" line-spacing="21.0">Selected</text></g></svg>