<?xml version="1.0" encoding="UTF-8"?>
<svg width="24px" height="24px" viewBox="0 0 24 24" version="1.1" xmlns="http://www.w3.org/2000/svg" xmlns:xlink="http://www.w3.org/1999/xlink">
    <title></title>
    <g id="Icons" stroke="none" stroke-width="1" fill="none" fill-rule="evenodd">
        <g id="Icons/1.-Size-md-(16px)/Status/bug" fill="#151515">
            <path d="M15.5312132,7.5 C15.5312132,5.56698235 13.9642309,4 12.0312299,4 C10.0982123,4 8.53122993,5.56698235 8.53122993,7.5 L15.5312132,7.5 Z M6.70710708,19.7070854 L8.41761326,17.9965792 C9.19104892,18.6238665 10.1765202,18.99997 11.2499735,18.99997 L11.2499735,11.3749824 C11.2499735,11.1678906 11.4178808,10.9999833 11.6249726,10.9999833 L12.3749708,10.9999833 C12.5820626,10.9999833 12.7499699,11.1678906 12.7499699,11.3749824 L12.7499699,18.99997 C13.8234231,18.99997 14.8088944,18.6238665 15.5823301,17.9965792 L17.2928362,19.7070854 C17.6833688,20.0975874 18.3165154,20.0976179 18.7070785,19.7070854 C19.0975805,19.3165528 19.0975805,18.6834062 18.7070785,18.2928736 L16.8249724,16.410737 C17.0974021,15.8307213 17.2499591,15.1832314 17.2499591,14.49997 L17.2499591,13.99997 L18.9791726,13.99997 C19.5240626,13.99997 19.9846328,13.5727921 19.9995864,13.0281157 C20.0150893,12.4629925 19.5615686,11.9999809 18.999955,11.9999809 L17.2499591,11.9999809 L17.2499591,10.1642004 L18.707048,8.70711158 C19.09755,8.31657906 19.09755,7.68343238 18.707048,7.29289986 C18.3164849,6.90236735 17.6833688,6.90236735 17.2928057,7.29289986 L15.5857175,8.99998808 L8.4141953,8.99998808 L6.70710708,7.29286935 C6.31654405,6.90233683 5.68342788,6.90233683 5.29286485,7.29286935 C4.90236285,7.68340186 4.90236285,8.31654855 5.29286485,8.70708106 L6.74998418,10.1642004 L6.74998418,11.9999809 L4.99998835,11.9999809 C4.4383747,11.9999809 3.98485405,12.4629925 4.00038746,13.0281157 C4.01534104,13.5727921 4.47594175,13.99997 5.02080129,13.99997 L6.74998418,13.99997 L6.74998418,14.49997 C6.74998418,15.1832314 6.90254119,15.8307213 7.17497096,16.410737 L5.29286485,18.2928736 C4.90236285,18.6834062 4.90236285,19.3165528 5.29286485,19.7070854 C5.68339737,20.0975874 6.31654405,20.0976179 6.70710708,19.7070854 Z" id="bug"></path>
        </g>
    </g>
</svg>