<?xml version="1.0" encoding="UTF-8"?>
<svg width="24px" height="24px" viewBox="0 0 24 24" version="1.1" xmlns="http://www.w3.org/2000/svg" xmlns:xlink="http://www.w3.org/1999/xlink">
    <title></title>
    <g id="Icons" stroke="none" stroke-width="1" fill="none" fill-rule="evenodd">
        <g id="Icons/1.-Size-md-(16px)/Status/lock" fill="#151515">
            <path d="M17.4999702,19.9999619 C18.3280932,19.9999619 18.9999666,19.3280885 18.9999666,18.4999654 L18.9999666,12.4999797 C18.9999666,11.6718567 18.3280932,10.9999833 17.4999702,10.9999833 L16.749972,10.9999833 L16.749972,8.74998868 C16.749972,6.13125102 14.618721,4 11.9999833,4 C9.38124566,4 7.24999464,6.13125102 7.24999464,8.74998868 L7.24999464,10.9999833 L6.5,10.9999833 C5.6718734,10.9999833 5,11.6718567 5,12.4999797 L5,18.4999654 C5,19.3280885 5.6718734,19.9999619 6.5,19.9999619 L17.4999702,19.9999619 Z M14.2499779,10.9999833 L9.74998868,10.9999833 L9.74998868,8.74998868 C9.74998868,7.50936053 10.7593552,6.49999404 11.9999833,6.49999404 C13.2406115,6.49999404 14.2499779,7.50936053 14.2499779,8.74998868 L14.2499779,10.9999833 Z" id="lock"></path>
        </g>
    </g>
</svg>