<?xml version="1.0" encoding="UTF-8"?>
<svg width="24px" height="24px" viewBox="0 0 24 24" version="1.1" xmlns="http://www.w3.org/2000/svg" xmlns:xlink="http://www.w3.org/1999/xlink">
    <title></title>
    <g id="Icons" stroke="none" stroke-width="1" fill="none" fill-rule="evenodd">
        <g id="Icons/1.-Size-md-(16px)/Status/pficon-asleep" fill="#151515">
            <path d="M12,6 C8.690625,6 6,8.6921875 6,12 C6,15.3109375 8.690625,18 12,18 C15.309375,18 18,15.309375 18,12 C18,8.690625 15.3078125,6 12,6 M12.0015625,20 C7.590625,20 4,16.4109375 4,12 C4,7.5890625 7.5890625,4 12.0015625,4 C16.4140625,4 20,7.5890625 20,12 C20,16.4109375 16.4125,20 12.0015625,20 M15.6265625,13.675 C15.3,14.3796875 14.8083333,14.9427083 14.1515625,15.3640625 C13.4947917,15.7854167 12.7776042,15.9963542 12,15.9969167 C11.466882,15.9986357 10.9391617,15.8901126 10.45,15.678125 C9.959375,15.465625 9.53125,15.1828125 9.171875,14.8234375 C8.8125,14.4640625 8.5296875,14.040625 8.3171875,13.5484375 C8.10584856,13.0591261 7.99786319,12.531434 7.99993868,11.9984375 C7.9983077,11.4757862 8.10027423,10.9579874 8.3,10.475 C8.5,9.990625 8.77083333,9.57135417 9.1125,9.2171875 C9.45416667,8.86302083 9.86302083,8.57760417 10.3390625,8.3609375 C10.8139836,8.1442148 11.3267696,8.02265372 11.8484375,8.003125 C12,7.996875 12.1765625,8.0984375 12.2359375,8.240625 C12.2984375,8.3828125 12.3078125,8.54375 12.1921875,8.6515625 C11.8921875,8.921875 11.6296875,9.2375 11.471875,9.596875 C11.3140625,9.95625 11.2,10.3 11.2,10.6984375 C11.2,11.2125 11.2921875,11.65 11.5453125,12.084375 C11.7929068,12.5124375 12.1485,12.8680307 12.5765625,13.115625 C13.009375,13.36875 13.484375,13.4953125 13.9984375,13.4953125 C14.4085413,13.495673 14.8136064,13.404947 15.184375,13.2296875 C15.3265625,13.1671875 15.4515625,13.1890625 15.559375,13.296875 C15.6069266,13.345078 15.6385563,13.4067012 15.65,13.4734375 C15.6626482,13.5414527 15.6544797,13.6117017 15.6265625,13.675" id="pficon-asleep"></path>
        </g>
    </g>
</svg>