<?xml version="1.0" encoding="UTF-8"?>
<svg width="24px" height="24px" viewBox="0 0 24 24" version="1.1" xmlns="http://www.w3.org/2000/svg" xmlns:xlink="http://www.w3.org/1999/xlink">
    <title></title>
    <g id="Icons" stroke="none" stroke-width="1" fill="none" fill-rule="evenodd">
        <g id="Icons/1.-Size-md-(16px)/Status/pficon-security" fill="#151515">
            <path d="M18.4609375,4 L5.5390625,4 C5.240625,4 5,4.2234375 5,4.5 L5,11.0640625 C5,16 11.0578125,20 12.0078125,20 C12.9578125,20 19,16 19,11.065625 L19,4.5 C19,4.2234375 18.759375,4 18.4609375,4 Z M12.6671875,16 L11.3328125,16 C11.1484375,15.996875 11.003125,15.8359375 11,15.6359375 L11,14.3640625 C11.003125,14.1640625 11.15,14.0046875 11.3328125,14 L12.6671875,14 C12.8515625,14.003125 12.996875,14.1640625 13,14.3640625 L13,15.6359375 L13.0015625,15.6359375 C12.996875,15.8359375 12.85,15.996875 12.6671875,16 Z M13.4984375,6.5421875 L13.08125,12.0375 C13.059375,12.2953125 12.84375,12.5 12.5828125,12.5 L11.415625,12.5 C11.15625,12.5 10.9390625,12.3 10.9171875,12.0421875 L10.5015625,6.546875 C10.4765625,6.2546875 10.7078125,6.0046875 11,6.0046875 L13,6 C13.2921875,6 13.521875,6.25 13.4984375,6.5421875 Z" id="pficon-security"></path>
        </g>
    </g>
</svg>