<?xml version="1.0" encoding="UTF-8"?>
<svg width="24px" height="24px" viewBox="0 0 24 24" version="1.1" xmlns="http://www.w3.org/2000/svg" xmlns:xlink="http://www.w3.org/1999/xlink">
    <title></title>
    <g id="Icons" stroke="none" stroke-width="1" fill="none" fill-rule="evenodd">
        <g id="Icons/1.-Size-md-(16px)/Status/pficon-off" fill="#151515">
            <path d="M12,8.5 C11.4486047,8.50214136 11.0021414,8.94860467 11,9.5 L11,14.5 C11,15.0522848 11.4477152,15.5 12,15.5 C12.5522848,15.5 13,15.0522848 13,14.5 L13,9.5 C12.9978586,8.94860467 12.5513953,8.50214136 12,8.5 M12,18 C8.6859375,18 6,15.3140625 6,12 C6,8.6859375 8.6859375,6 12,6 C15.3140625,6 18,8.6859375 18,12 C18,15.3140625 15.3140625,18 12,18 M12,4 C7.58125,4 4,7.58125 4,12 C4,16.41875 7.58125,20 12,20 C16.41875,20 20,16.41875 20,12 C20,7.58125 16.41875,4 12,4" id="pficon-off"></path>
        </g>
    </g>
</svg>