<?xml version="1.0" encoding="UTF-8"?><svg version="1.1" width="24px" height="24px" viewBox="0 0 24.0 24.0" xmlns="http://www.w3.org/2000/svg" xmlns:xlink="http://www.w3.org/1999/xlink"><defs><clipPath id="i0"><path d="M13.5029204,0.234305777 C13.8153281,-0.0781019256 14.3218882,-0.0781019256 14.6342959,0.234305777 L15.7656408,1.36568125 C16.0780485,1.67808896 16.0780485,2.18461851 15.7656408,2.49705673 L6.56565054,11.6970775 C6.25321233,12.0094852 5.74668277,12.0094852 5.43430559,11.697047 L0.234305777,6.49704719 C-0.0781019256,6.18463949 -0.0781019256,5.67810994 0.234305777,5.36567172 L1.36565074,4.23429624 C1.67805844,3.92185802 2.18461851,3.92185802 2.49702621,4.23429624 L5.99997807,7.73724809 Z"></path></clipPath></defs><g transform="translate(4.000000000000001 5.999999999999999)"><g clip-path="url(#i0)"><polygon points="-2.77555756e-17,-2.77555756e-17 15.9999466,-2.77555756e-17 15.9999466,11.9313795 -2.77555756e-17,11.9313795 -2.77555756e-17,-2.77555756e-17" stroke="none" fill="#696E73"></polygon></g></g></svg>