<?xml version="1.0" encoding="UTF-8"?><svg version="1.1" width="24px" height="24px" viewBox="0 0 24.0 24.0" xmlns="http://www.w3.org/2000/svg" xmlns:xlink="http://www.w3.org/1999/xlink"><defs><clipPath id="i0"><path d="M5.71112507,0.187517313 C6.80172916,-0.0562260027 7.97674467,-0.0687076624 9.12359252,0.187517313 C9.29546711,0.225023327 9.41735403,0.378160169 9.41735403,0.553147544 L9.41735403,2.0875372 C10.1142213,2.33128051 10.757988,2.70313631 11.3173434,3.18439737 L12.6486085,2.41566141 C12.7986021,2.32813721 12.9923577,2.35938713 13.1111013,2.48753014 C13.8829806,3.32502204 14.4735859,4.33127574 14.8204784,5.44376088 C14.870466,5.61252269 14.8017101,5.79376615 14.6486038,5.88125984 L13.3173386,6.65002632 C13.4517072,7.37500018 13.4517072,8.11877282 13.3173386,8.84374667 L14.6486038,9.61251315 C14.8017101,9.70000684 14.870466,9.8812503 14.8235911,10.0531249 C14.4767292,11.1687533 13.8860934,12.175007 13.1142141,13.0093862 C12.9954705,13.1406114 12.8048582,13.1687486 12.6517213,13.0812549 L11.3204867,12.3124884 C10.757988,12.7906367 10.1142213,13.1624925 9.42046681,13.4093791 L9.42046681,14.9468815 C9.42046681,15.1218689 9.29861041,15.2750058 9.12673582,15.3124813 C8.03610122,15.5562551 6.86111622,15.5687367 5.71423785,15.3124813 C5.54236326,15.2750058 5.42047635,15.1218689 5.42047635,14.9468815 L5.42047635,13.4093791 C4.72360911,13.1656358 4.07987286,12.7937495 3.52048698,12.3124884 L2.18925236,13.0812549 C2.03925882,13.1687486 1.84550318,13.1374986 1.72675957,13.0093862 C0.954880306,12.1718637 0.364244507,11.1656406 0.0173825408,10.0531249 C-0.0326356504,9.88439361 0.0361202891,9.70311963 0.189257131,9.61562594 L1.52049175,8.84688998 C1.38612317,8.1218856 1.38612317,7.37814348 1.52049175,6.6531391 L0.189257131,5.88440314 C0.0361202891,5.79687894 -0.035748436,5.61563547 0.0173825408,5.44690419 C0.364244507,4.33127574 0.954880306,3.32502204 1.72675957,2.49064293 C1.84550318,2.35938713 2.03611552,2.33128051 2.18925236,2.4187742 L3.5173742,3.18751016 C4.07987286,2.7093924 4.72360911,2.3375366 5.41736356,2.09064998 L5.41736356,0.553147544 C5.41736356,0.378160169 5.53925048,0.225023327 5.71112507,0.187517313 Z M7.41736475,5.24689246 C6.03924929,5.24689246 4.91736475,6.36877699 4.91736475,7.74689246 C4.91736475,9.124996 6.03924929,10.2468805 7.41736475,10.2468805 C8.7954683,10.2468805 9.91735283,9.124996 9.91735283,7.74689246 C9.91735283,6.36877699 8.7954683,5.24689246 7.41736475,5.24689246 Z"></path></clipPath></defs><g transform="translate(5.0 4.000000000000029)"><g clip-path="url(#i0)"><polygon points="-2.66453526e-15,-2.48967513e-14 14.8381147,-2.48967513e-14 14.8381147,15.5000214 -2.66453526e-15,15.5000214 -2.66453526e-15,-2.48967513e-14" stroke="none" fill="#696E73"></polygon></g></g></svg>