<?xml version="1.0" encoding="UTF-8"?><svg version="1.1" width="24px" height="24px" viewBox="0 0 24.0 24.0" xmlns="http://www.w3.org/2000/svg" xmlns:xlink="http://www.w3.org/1999/xlink"><defs><clipPath id="i0"><path d="M4.24998987,8.99997854 C4.66560777,8.99997854 4.99998808,9.33435885 4.99998808,9.74997675 L4.99998808,13.6249675 C4.99998808,13.8312048 4.83122627,13.9999666 4.62498897,13.9999666 L3.37499195,13.9999666 C3.16875465,13.9999666 3,13.8312048 3,13.6249675 L3,10.9999785 L0.374999106,10.9999785 C0.168761805,10.9999785 0,10.831212 0,10.6249747 L0,9.37497765 C0,9.16874035 0.168761805,8.99997854 0.374999106,8.99997854 Z M13.6249675,8.99997854 C13.8312048,8.99997854 13.9999666,9.16874035 13.9999666,9.37497765 L13.9999666,10.6249747 C13.9999666,10.831212 13.8312048,10.9999785 13.6249675,10.9999785 L10.9999785,10.9999785 L10.9999785,13.6249675 C10.9999785,13.8312048 10.831212,13.9999666 10.6249747,13.9999666 L9.37497765,13.9999666 C9.16874035,13.9999666 8.99997854,13.8312048 8.99997854,13.6249675 L8.99997854,9.74997675 C8.99997854,9.33435885 9.33435885,8.99997854 9.74997675,8.99997854 Z M10.6249747,0 C10.831212,0 10.9999785,0.168761805 10.9999785,0.374999106 L10.9999785,3 L13.6249675,3 C13.8312048,3 13.9999666,3.16875465 13.9999666,3.37499195 L13.9999666,4.62498897 C13.9999666,4.83122627 13.8312048,4.99998808 13.6249675,4.99998808 L9.74997675,4.99998808 C9.33435885,4.99998808 8.99997854,4.66560777 8.99997854,4.24998987 L8.99997854,0.374999106 C8.99997854,0.168761805 9.16874035,0 9.37497765,0 Z M4.62498897,0 C4.83122627,0 4.99998808,0.168761805 4.99998808,0.374999106 L4.99998808,4.24998987 C4.99998808,4.66560777 4.66560777,4.99998808 4.24998987,4.99998808 L0.374999106,4.99998808 C0.168761805,4.99998808 0,4.83122627 0,4.62498897 L0,3.37499195 C0,3.16875465 0.168761805,3 0.374999106,3 L3,3 L3,0.374999106 C3,0.168761805 3.16875465,0 3.37499195,0 Z"></path></clipPath></defs><g transform="translate(5.0 5.0)"><g clip-path="url(#i0)"><polygon points="0,0 13.9999666,0 13.9999666,13.9999666 0,13.9999666 0,0" stroke="none" fill="#696E73"></polygon></g></g></svg>