<?xml version="1.0" encoding="UTF-8"?><svg version="1.1" width="24px" height="24px" viewBox="0 0 24.0 24.0" xmlns="http://www.w3.org/2000/svg" xmlns:xlink="http://www.w3.org/1999/xlink"><defs><clipPath id="i0"><path d="M13.2484044,8.99841452 C13.917165,8.99841452 14.2515148,9.80465649 13.7796531,10.2765487 L12.7484056,11.2484092 L15.8515171,14.354664 C16.0452727,14.5483891 16.0452727,14.8671444 15.8515171,15.0609001 L15.0577873,15.8546604 C14.8640316,16.0483855 14.5452763,16.0483855 14.3515207,15.8546604 L11.2484092,12.7515184 L10.2796615,13.7796531 C9.8077998,14.2515148 8.99841452,13.917165 8.99841452,13.2484044 L8.99841452,9.74841273 C8.99841452,9.33279483 9.33279483,8.99841452 9.74841273,8.99841452 Z M6.24842108,8.99841452 C6.66403898,8.99841452 6.99841929,9.33279483 6.99841929,9.74841273 L6.99841929,13.2484044 C6.99841929,13.917165 6.19217731,14.2515148 5.72028513,13.7796531 L4.74842465,12.7484056 L1.64531315,15.8515171 C1.45155751,16.0452727 1.13280217,16.0452727 0.939046528,15.8515171 L0.145316731,15.0577873 C-0.0484389104,14.8640316 -0.0484389104,14.5452763 0.145316731,14.3515207 L3.24531544,11.2484092 L2.21718069,10.2796615 C1.74531902,9.80465649 2.07966881,8.99841452 2.74842942,8.99841452 Z M14.3515207,0.145316731 C14.5452763,-0.0484389104 14.8640316,-0.0484389104 15.0577873,0.145316731 L15.8515171,0.939046528 C16.0452727,1.13280217 16.0452727,1.45155751 15.8515171,1.64531315 L12.7484056,4.74842465 L13.7796531,5.71717234 C14.2515148,6.18903401 13.917165,6.99841929 13.2484044,6.99841929 L9.74841273,6.99841929 C9.33279483,6.99841929 8.99841452,6.66403898 8.99841452,6.24842108 L8.99841452,2.74842942 C8.99841452,2.07966881 9.80465649,1.74531902 10.2765487,2.21718069 L11.2484092,3.24842823 Z M0.939046528,0.145316731 C1.13280217,-0.0484389104 1.45155751,-0.0484389104 1.64531315,0.145316731 L4.74842465,3.24842823 L5.71717234,2.22029347 C6.18903401,1.74843181 6.99841929,2.08281211 6.99841929,2.74842942 L6.99841929,6.24842108 C6.99841929,6.66403898 6.66403898,6.99841929 6.24842108,6.99841929 L2.74842942,6.99841929 C2.07966881,6.99841929 1.74531902,6.19217731 2.21718069,5.72028513 L3.24842823,4.74842465 L0.145316731,1.64531315 C-0.0484389104,1.45155751 -0.0484389104,1.13280217 0.145316731,0.939046528 Z"></path></clipPath></defs><g transform="translate(3.999999999999999 4.000000000000001)"><g clip-path="url(#i0)"><polygon points="0,0 15.9968338,0 15.9968338,15.9999542 0,15.9999542 0,0" stroke="none" fill="#696E73"></polygon></g></g></svg>