<?xml version="1.0" encoding="UTF-8"?><svg version="1.1" width="24px" height="24px" viewBox="0 0 24.0 24.0" xmlns="http://www.w3.org/2000/svg" xmlns:xlink="http://www.w3.org/1999/xlink"><defs><clipPath id="i0"><path d="M5.33436839,10.9999738 L6.86561473,12.5312201 C7.49372603,13.1593314 8.50623582,13.1593314 9.13434712,12.5312201 L10.6655935,10.9999738 L15.2499636,10.9999738 C15.6655815,10.9999738 15.9999619,11.3343541 15.9999619,11.749972 L15.9999619,15.2499636 C15.9999619,15.6655815 15.6655815,15.9999619 15.2499636,15.9999619 L0.749998212,15.9999619 C0.334380306,15.9999619 0,15.6655815 0,15.2499636 L0,11.749972 C0,11.3343541 0.334380306,10.9999738 0.749998212,10.9999738 L5.33436839,10.9999738 Z M11.4999726,13.8749669 C11.1562234,13.8749669 10.8749741,14.1562162 10.8749741,14.4999654 C10.8749741,14.8437146 11.1562234,15.1249639 11.4999726,15.1249639 C11.8437218,15.1249639 12.1249711,14.8437146 12.1249711,14.4999654 C12.1249711,14.1562162 11.8437218,13.8749669 11.4999726,13.8749669 Z M13.4999678,13.8749669 C13.1562186,13.8749669 12.8749693,14.1562162 12.8749693,14.4999654 C12.8749693,14.8437146 13.1562186,15.1249639 13.4999678,15.1249639 C13.843717,15.1249639 14.1249663,14.8437146 14.1249663,14.4999654 C14.1249663,14.1562162 13.843717,13.8749669 13.4999678,13.8749669 Z M9.24997795,0 C9.66559585,0 9.99997616,0.334380306 9.99997616,0.749998212 L9.99997616,5.99998569 L12.7406007,5.99998569 C13.2968433,5.99998569 13.5749798,6.67185909 13.1812125,7.06559595 L8.42811101,11.8218407 C8.19373657,12.0562152 7.80936859,12.0562152 7.57499415,11.8218407 L2.81560608,7.06559595 C2.42186923,6.67185909 2.70000577,5.99998569 3.25624834,5.99998569 L5.99998569,5.99998569 L5.99998569,0.749998212 C5.99998569,0.334380306 6.334366,0 6.74998391,0 Z"></path></clipPath></defs><g transform="translate(4.0 4.0)"><g clip-path="url(#i0)"><polygon points="0,0 15.9999619,0 15.9999619,15.9999619 0,15.9999619 0,0" stroke="none" fill="#696E73"></polygon></g></g></svg>