<?xml version="1.0" encoding="UTF-8"?>
<svg width="24px" height="24px" viewBox="0 0 24 24" version="1.1" xmlns="http://www.w3.org/2000/svg" xmlns:xlink="http://www.w3.org/1999/xlink">
    <title></title>
    <g id="Icons" stroke="none" stroke-width="1" fill="none" fill-rule="evenodd">
        <g id="Icons/1.-Size-md/Actions/download" fill="#6A6E73">
            <path d="M12.428111,15.8218407 L17.1812125,11.0655959 C17.5749798,10.6718591 17.2968433,9.99998569 16.7406007,9.99998569 L13.9999762,9.99998569 L13.9999762,4.74999821 C13.9999762,4.33438031 13.6655959,4 13.2499779,4 L10.7499839,4 C10.334366,4 9.99998569,4.33438031 9.99998569,4.74999821 L9.99998569,9.99998569 L7.25624834,9.99998569 C6.70000577,9.99998569 6.42186923,10.6718591 6.81560608,11.0655959 L11.5749941,15.8218407 C11.8093686,16.0562152 12.1937366,16.0562152 12.428111,15.8218407 Z M19.2499636,19.9999619 C19.6655815,19.9999619 19.9999619,19.6655815 19.9999619,19.2499636 L19.9999619,15.749972 C19.9999619,15.3343541 19.6655815,14.9999738 19.2499636,14.9999738 L14.6655935,14.9999738 L13.1343471,16.5312201 C12.5062358,17.1593314 11.493726,17.1593314 10.8656147,16.5312201 L9.33436839,14.9999738 L4.74999821,14.9999738 C4.33438031,14.9999738 4,15.3343541 4,15.749972 L4,19.2499636 C4,19.6655815 4.33438031,19.9999619 4.74999821,19.9999619 L19.2499636,19.9999619 Z M15.4999726,19.1249639 C15.1562234,19.1249639 14.8749741,18.8437146 14.8749741,18.4999654 C14.8749741,18.1562162 15.1562234,17.8749669 15.4999726,17.8749669 C15.8437218,17.8749669 16.1249711,18.1562162 16.1249711,18.4999654 C16.1249711,18.8437146 15.8437218,19.1249639 15.4999726,19.1249639 Z M17.4999678,19.1249639 C17.1562186,19.1249639 16.8749693,18.8437146 16.8749693,18.4999654 C16.8749693,18.1562162 17.1562186,17.8749669 17.4999678,17.8749669 C17.843717,17.8749669 18.1249663,18.1562162 18.1249663,18.4999654 C18.1249663,18.8437146 17.843717,19.1249639 17.4999678,19.1249639 Z" id="download"></path>
        </g>
    </g>
</svg>