<?xml version="1.0" encoding="UTF-8"?><svg version="1.1" width="24px" height="24px" viewBox="0 0 24.0 24.0" xmlns="http://www.w3.org/2000/svg" xmlns:xlink="http://www.w3.org/1999/xlink"><defs><clipPath id="i0"><path d="M13.6249675,8.99997854 C13.8312048,8.99997854 13.9999666,9.16874035 13.9999666,9.37497765 L13.9999666,13.2499684 C13.9999666,13.6655863 13.6655863,13.9999666 13.2499684,13.9999666 L9.37497765,13.9999666 C9.16874035,13.9999666 8.99997854,13.8312048 8.99997854,13.6249675 L8.99997854,12.3749705 C8.99997854,12.1687332 9.16874035,11.9999785 9.37497765,11.9999785 L11.9999785,11.9999785 L11.9999785,9.37497765 C11.9999785,9.16874035 12.1687332,8.99997854 12.3749705,8.99997854 Z M1.62499613,8.99997854 C1.83123343,8.99997854 2,9.16874035 2,9.37497765 L2,11.9999785 L4.62498897,11.9999785 C4.83122627,11.9999785 4.99998808,12.1687332 4.99998808,12.3749705 L4.99998808,13.6249675 C4.99998808,13.8312048 4.83122627,13.9999666 4.62498897,13.9999666 L0.749998212,13.9999666 C0.334380306,13.9999666 0,13.6655863 0,13.2499684 L0,9.37497765 C0,9.16874035 0.168761805,8.99997854 0.374999106,8.99997854 Z M4.62498897,0 C4.83122627,0 4.99998808,0.168761805 4.99998808,0.374999106 L4.99998808,1.62499613 C4.99998808,1.83123343 4.83122627,2 4.62498897,2 L2,2 L2,4.62498897 C2,4.83122627 1.83123343,4.99998808 1.62499613,4.99998808 L0.374999106,4.99998808 C0.168761805,4.99998808 0,4.83122627 0,4.62498897 L0,0.749998212 C0,0.334380306 0.334380306,0 0.749998212,0 Z M13.2499684,0 C13.6655863,0 13.9999666,0.334380306 13.9999666,0.749998212 L13.9999666,4.62498897 C13.9999666,4.83122627 13.8312048,4.99998808 13.6249675,4.99998808 L12.3749705,4.99998808 C12.1687332,4.99998808 11.9999785,4.83122627 11.9999785,4.62498897 L11.9999785,2 L9.37497765,2 C9.16874035,2 8.99997854,1.83123343 8.99997854,1.62499613 L8.99997854,0.374999106 C8.99997854,0.168761805 9.16874035,0 9.37497765,0 Z"></path></clipPath></defs><g transform="translate(5.0 5.0)"><g clip-path="url(#i0)"><polygon points="0,0 13.9999666,0 13.9999666,13.9999666 0,13.9999666 0,0" stroke="none" fill="#696E73"></polygon></g></g></svg>