<?xml version="1.0" encoding="UTF-8"?><svg version="1.1" width="24px" height="24px" viewBox="0 0 24.0 24.0" xmlns="http://www.w3.org/2000/svg" xmlns:xlink="http://www.w3.org/1999/xlink"><defs><clipPath id="i0"><path d="M4.24998987,0 C4.91841479,0 5.25279509,0.809385277 4.7812386,1.28124695 L3.64998519,2.41250035 L6.99998331,5.76249847 L10.3509275,2.40935705 L9.21872802,1.28124695 C8.74717153,0.809385277 9.08155183,0 9.74997675,0 L13.2518605,0 C13.6648234,0 13.9999666,0.335143244 13.9999666,0.748106127 L13.9999666,4.24998987 C13.9999666,4.91875048 13.190917,5.25310027 12.7187197,4.7812386 L11.5877714,3.64998519 L8.23560659,6.99998331 L11.5881071,10.3530942 L12.7187197,9.22184081 C13.1905813,8.74686635 13.9999666,9.08121614 13.9999666,9.74997675 L13.9999666,13.2518605 C13.9999666,13.6648234 13.6648234,13.9999666 13.2518605,13.9999666 L9.74997675,13.9999666 C9.08155183,13.9999666 8.74717153,13.1905813 9.21872802,12.7187197 L10.3499814,11.5874663 L6.99998331,8.23746815 L3.64903915,11.5906096 L4.7812386,12.7187197 C5.25279509,13.1905813 4.91841479,13.9999666 4.24998987,13.9999666 L0.748106127,13.9999666 C0.335143244,13.9999666 0,13.6648234 0,13.2518605 L0,9.74997675 C0,9.08121614 0.809049585,8.74686635 1.28124695,9.21872802 L2.41219518,10.3499814 L5.76436004,6.99998331 L2.41185948,3.64687241 L1.28124695,4.7812386 C0.809385277,5.25310027 0,4.91875048 0,4.24998987 L0,0.748106127 C0,0.335143244 0.335143244,0 0.748106127,0 Z"></path></clipPath></defs><g transform="translate(5.0 5.0)"><g clip-path="url(#i0)"><polygon points="0,0 13.9999666,0 13.9999666,13.9999666 0,13.9999666 0,0" stroke="none" fill="#696E73"></polygon></g></g></svg>