<?xml version="1.0" encoding="UTF-8"?>
<svg width="24px" height="24px" viewBox="0 0 24 24" version="1.1" xmlns="http://www.w3.org/2000/svg" xmlns:xlink="http://www.w3.org/1999/xlink">
    <title></title>
    <g id="Icons" stroke="none" stroke-width="1" fill="none" fill-rule="evenodd">
        <g id="Icons/1.-Size-md/Actions/expand" fill="#6A6E73">
            <path d="M6.62499613,9.99998808 C6.83123343,9.99998808 7,9.83122627 7,9.62498897 L7,7 L9.62498897,7 C9.83122627,7 9.99998808,6.83123343 9.99998808,6.62499613 L9.99998808,5.37499911 C9.99998808,5.1687618 9.83122627,5 9.62498897,5 L5.74999821,5 C5.33438031,5 5,5.33438031 5,5.74999821 L5,9.62498897 C5,9.83122627 5.1687618,9.99998808 5.37499911,9.99998808 L6.62499613,9.99998808 Z M18.6249675,9.99998808 C18.8312048,9.99998808 18.9999666,9.83122627 18.9999666,9.62498897 L18.9999666,5.74999821 C18.9999666,5.33438031 18.6655863,5 18.2499684,5 L14.3749776,5 C14.1687403,5 13.9999785,5.1687618 13.9999785,5.37499911 L13.9999785,6.62499613 C13.9999785,6.83123343 14.1687403,7 14.3749776,7 L16.9999785,7 L16.9999785,9.62498897 C16.9999785,9.83122627 17.1687332,9.99998808 17.3749705,9.99998808 L18.6249675,9.99998808 Z M18.2499684,18.9999666 C18.6655863,18.9999666 18.9999666,18.6655863 18.9999666,18.2499684 L18.9999666,14.3749776 C18.9999666,14.1687403 18.8312048,13.9999785 18.6249675,13.9999785 L17.3749705,13.9999785 C17.1687332,13.9999785 16.9999785,14.1687403 16.9999785,14.3749776 L16.9999785,16.9999785 L14.3749776,16.9999785 C14.1687403,16.9999785 13.9999785,17.1687332 13.9999785,17.3749705 L13.9999785,18.6249675 C13.9999785,18.8312048 14.1687403,18.9999666 14.3749776,18.9999666 L18.2499684,18.9999666 Z M9.62498897,18.9999666 C9.83122627,18.9999666 9.99998808,18.8312048 9.99998808,18.6249675 L9.99998808,17.3749705 C9.99998808,17.1687332 9.83122627,16.9999785 9.62498897,16.9999785 L7,16.9999785 L7,14.3749776 C7,14.1687403 6.83123343,13.9999785 6.62499613,13.9999785 L5.37499911,13.9999785 C5.1687618,13.9999785 5,14.1687403 5,14.3749776 L5,18.2499684 C5,18.6655863 5.33438031,18.9999666 5.74999821,18.9999666 L9.62498897,18.9999666 Z" id="expand"></path>
        </g>
    </g>
</svg>