<?xml version="1.0" encoding="UTF-8"?><svg version="1.1" width="24px" height="24px" viewBox="0 0 24.0 24.0" xmlns="http://www.w3.org/2000/svg" xmlns:xlink="http://www.w3.org/1999/xlink"><defs><clipPath id="i0"><path d="M6.4999845,1.99999523 C6.77598482,1.99999523 6.99998331,2.22399372 6.99998331,2.49999523 L6.99998331,3.49999523 C6.99998331,3.77599197 6.77598482,3.99999523 6.4999845,3.99999523 L2,3.99999523 L2,13.9999666 L11.9999714,13.9999666 L11.9999714,10.499975 C11.9999714,10.2239746 12.2239699,9.99997616 12.4999702,9.99997616 L13.4999678,9.99997616 C13.7759681,9.99997616 13.9999666,10.2239746 13.9999666,10.499975 L13.9999666,14.4999654 C13.9999666,15.3279664 13.3279712,15.9999619 12.4999702,15.9999619 L1.5,15.9999619 C0.671995468,15.9999619 0,15.3279664 0,14.4999654 L0,3.49999523 C0,2.6719907 0.671995468,1.99999523 1.5,1.99999523 Z M15.2499636,0 C15.6639641,0 15.9999619,0.335997734 15.9999619,0.749998212 L15.9999619,4.74998868 C15.9999619,5.42186207 15.1874638,5.74998629 14.7187149,5.28123741 L13.6024761,4.16624983 L5.98967078,11.7812219 C5.86833318,11.9029868 5.63032715,12.0018024 5.45842204,12.0018024 C5.28651694,12.0018024 5.04851091,11.9029868 4.92717331,11.7812219 L4.21873994,11.0740398 C4.0969751,10.9527022 3.99815941,10.7146961 3.99815941,10.542791 C3.99815941,10.3708859 4.0969751,10.1328799 4.21873994,10.0115423 L11.8352989,2.39782143 L10.7187244,1.28124695 C10.2484192,0.809690452 10.5821586,0 11.2499732,0 Z"></path></clipPath></defs><g transform="translate(4.0 4.0)"><g clip-path="url(#i0)"><polygon points="0,0 15.9999619,0 15.9999619,15.9999619 0,15.9999619 0,0" stroke="none" fill="#696E73"></polygon></g></g></svg>