<?xml version="1.0" encoding="UTF-8"?>
<svg width="24px" height="24px" viewBox="0 0 24 24" version="1.1" xmlns="http://www.w3.org/2000/svg" xmlns:xlink="http://www.w3.org/1999/xlink">
    <title></title>
    <g id="Icons" stroke="none" stroke-width="1" fill="none" fill-rule="evenodd">
        <g id="Icons/1.-Size-md/Actions/external-link-alt" fill="#6A6E73">
            <path d="M9.45842204,16.0018024 C9.63032715,16.0018024 9.86833318,15.9029868 9.98967078,15.7812219 L17.6024761,8.16624983 L18.7187149,9.28123741 C19.1874638,9.74998629 19.9999619,9.42186207 19.9999619,8.74998868 L19.9999619,4.74999821 C19.9999619,4.33599773 19.6639641,4 19.2499636,4 L15.2499732,4 C14.5821586,4 14.2484192,4.80969045 14.7187244,5.28124695 L15.8352989,6.39782143 L8.21873994,14.0115423 C8.0969751,14.1328799 7.99815941,14.3708859 7.99815941,14.542791 C7.99815941,14.7146961 8.0969751,14.9527022 8.21873994,15.0740398 L8.92717331,15.7812219 C9.04851091,15.9029868 9.28651694,16.0018024 9.45842204,16.0018024 Z M16.4999702,19.9999619 C17.3279712,19.9999619 17.9999666,19.3279664 17.9999666,18.4999654 L17.9999666,14.499975 C17.9999666,14.2239746 17.7759681,13.9999762 17.4999678,13.9999762 L16.4999702,13.9999762 C16.2239699,13.9999762 15.9999714,14.2239746 15.9999714,14.499975 L15.9999714,17.9999666 L6,17.9999666 L6,7.99999523 L10.4999845,7.99999523 C10.7759848,7.99999523 10.9999833,7.77599197 10.9999833,7.49999523 L10.9999833,6.49999523 C10.9999833,6.22399372 10.7759848,5.99999523 10.4999845,5.99999523 L5.5,5.99999523 C4.67199547,5.99999523 4,6.6719907 4,7.49999523 L4,18.4999654 C4,19.3279664 4.67199547,19.9999619 5.5,19.9999619 L16.4999702,19.9999619 Z" id="external-link-alt"></path>
        </g>
    </g>
</svg>