<?xml version="1.0" encoding="UTF-8"?><svg version="1.1" width="24px" height="24px" viewBox="0 0 24.0 24.0" xmlns="http://www.w3.org/2000/svg" xmlns:xlink="http://www.w3.org/1999/xlink"><defs><clipPath id="i0"><path d="M7.74998152,0 C12.0312213,0 15.499963,3.46874173 15.499963,7.74998152 C15.499963,12.0312213 12.0312213,15.499963 7.74998152,15.499963 C3.46874173,15.499963 0,12.0312213 0,7.74998152 C0,3.46874173 3.46874173,0 7.74998152,0 Z M11.8749717,6.4999845 L3.62499136,6.4999845 C3.41875406,6.4999845 3.24999225,6.66874631 3.24999225,6.87498361 L3.24999225,8.62497944 C3.24999225,8.83121674 3.41875406,8.9999845 3.62499136,8.9999845 L11.8749717,8.9999845 C12.081209,8.9999845 12.2499708,8.83121674 12.2499708,8.62497944 L12.2499708,6.87498361 C12.2499708,6.66874631 12.081209,6.4999845 11.8749717,6.4999845 Z"></path></clipPath></defs><g transform="translate(4.0 4.0)"><g clip-path="url(#i0)"><polygon points="0,0 15.499963,0 15.499963,15.499963 0,15.499963 0,0" stroke="none" fill="#696E73"></polygon></g></g></svg>