<?xml version="1.0" encoding="UTF-8"?>
<svg width="24px" height="24px" viewBox="0 0 24 24" version="1.1" xmlns="http://www.w3.org/2000/svg" xmlns:xlink="http://www.w3.org/1999/xlink">
    <title></title>
    <g id="Icons" stroke="none" stroke-width="1" fill="none" fill-rule="evenodd">
        <g id="Icons/1.-Size-md/Actions/panel-close" fill="#6A6E73">
            <path d="M19.6251351,6 L18.3755852,6 C18.1685505,6 18.0007203,6.16755856 18.0007203,6.37425831 L18.0007203,17.6257417 C18.0007203,17.8324414 18.1685505,18 18.3755852,18 L19.6251351,18 C19.8321698,18 20,17.8324414 20,17.6257417 L20,6.37425831 C20,6.16755856 19.8321698,6 19.6251351,6 M4.17150598,12.105557 L4.67605736,12.6101565 C4.68412573,12.6182257 4.6924288,12.6259574 4.70084924,12.633469 L8.70582305,16.6388101 C8.93497922,16.8679881 9.30651998,16.8679881 9.53567614,16.6388101 L10.0385258,16.1359124 C10.267682,15.9067344 10.267682,15.5351729 10.0385258,15.3059949 L7.36594675,12.6331462 L14.0832107,12.6331462 C14.4072801,12.6331462 14.6700007,12.3704153 14.6700007,12.0463003 L14.6700007,11.335087 C14.6700007,11.0109866 14.4072801,10.748241 14.0832107,10.748241 L7.36594675,10.748241 L10.0385258,8.07540702 C10.2676967,7.84622899 10.2676967,7.4746528 10.0385258,7.24547478 L9.53567614,6.74257712 C9.30651998,6.5133991 8.93497922,6.5133991 8.70582305,6.74257712 L4.70090792,10.7478595 C4.69247281,10.7553858 4.68414039,10.7631322 4.67604269,10.7712307 L4.17150598,11.2758155 C4.05693523,11.3903972 3.99978188,11.5406298 4.00000067,11.690789 C3.99982589,11.8408895 4.05699391,11.991034 4.17150598,12.105557" id="Fill-4-2"></path>
        </g>
    </g>
</svg>