<?xml version="1.0" encoding="UTF-8"?><svg version="1.1" width="24px" height="24px" viewBox="0 0 24.0 24.0" xmlns="http://www.w3.org/2000/svg" xmlns:xlink="http://www.w3.org/1999/xlink"><defs><clipPath id="i0"><path d="M15.621786,0 C15.8284857,0 15.9960443,0.167558562 15.9960443,0.374258306 L15.9960443,11.6257417 C15.9960443,11.8324414 15.8284857,12 15.621786,12 L14.3742583,12 C14.1675586,12 14,11.8324414 14,11.6257417 L14,0.374258306 C14,0.167558562 14.1675586,0 14.3742583,0 Z M5.13272055,0.741581939 C5.36180513,0.512497361 5.73322982,0.512497361 5.96231439,0.741581939 L9.96603704,4.74528992 C9.97445485,4.75279849 9.98275533,4.76052703 9.99082117,4.76859287 L10.4952149,5.27298663 C10.6097059,5.38746293 10.6668414,5.53756092 10.6666667,5.68758558 C10.6668854,5.83768356 10.6097499,5.98786954 10.4952296,6.10238983 L9.99083584,6.6067836 C9.98274067,6.6148641 9.97441085,6.62260731 9.96597838,6.63013054 L5.96231439,10.6337945 C5.73322982,10.8628644 5.36180513,10.8628644 5.13272055,10.6337945 L4.63002794,10.1310873 C4.40094337,9.90200268 4.40094337,9.53059266 4.63002794,9.30150808 L7.30177211,6.62974925 L0.58660669,6.62974925 C0.26263848,6.62974925 0,6.36712543 0,6.04314256 L0,5.33223391 C0,5.00825103 0.26263848,4.74562722 0.58660669,4.74562722 L7.30178678,4.74562722 L4.63002794,2.07386839 C4.40094337,1.84478381 4.40094337,1.47335912 4.63002794,1.24427454 Z"></path></clipPath></defs><g transform="translate(3.9980221488144707 6.0)"><g clip-path="url(#i0)"><polygon points="0,0 15.9960443,0 15.9960443,12 0,12 0,0" stroke="none" fill="#696E73"></polygon></g></g></svg>