<?xml version="1.0" encoding="UTF-8"?>
<svg width="24px" height="24px" viewBox="0 0 24 24" version="1.1" xmlns="http://www.w3.org/2000/svg" xmlns:xlink="http://www.w3.org/1999/xlink">
    <title></title>
    <g id="Icons" stroke="none" stroke-width="1" fill="none" fill-rule="evenodd">
        <g id="Icons/1.-Size-md/Actions/panel-open" fill="#6A6E73">
            <path d="M19.6198081,6 L18.3722805,6 C18.1655807,6 17.9980221,6.16755856 17.9980221,6.37425831 L17.9980221,17.6257417 C17.9980221,17.8324414 18.1655807,18 18.3722805,18 L19.6198081,18 C19.8265079,18 19.9940664,17.8324414 19.9940664,17.6257417 L19.9940664,6.37425831 C19.9940664,6.16755856 19.8265079,6 19.6198081,6 M14.4932371,11.2729866 L13.9888433,10.7685929 C13.9807775,10.760527 13.972477,10.7527985 13.9640592,10.7452899 L9.96033654,6.74158194 C9.73125197,6.51249736 9.35982727,6.51249736 9.1307427,6.74158194 L8.62805009,7.24427454 C8.39896552,7.47335912 8.39896552,7.84478381 8.62805009,8.07386839 L11.2998089,10.7456272 L4.58462884,10.7456272 C4.26066063,10.7456272 3.99802215,11.008251 3.99802215,11.3322339 L3.99802215,12.0431426 C3.99802215,12.3671254 4.26066063,12.6297492 4.58462884,12.6297492 L11.2997943,12.6297492 L8.62805009,15.3015081 C8.39896552,15.5305927 8.39896552,15.9020027 8.62805009,16.1310873 L9.1307427,16.6337945 C9.35982727,16.8628644 9.73125197,16.8628644 9.96033654,16.6337945 L13.9640005,12.6301305 C13.972433,12.6226073 13.9807628,12.6148641 13.988858,12.6067836 L14.4932518,12.1023898 C14.607772,11.9878695 14.6649075,11.8376836 14.6646888,11.6875856 C14.6648635,11.5375609 14.607728,11.3874629 14.4932371,11.2729866" id="Fill-4-2"></path>
        </g>
    </g>
</svg>