<?xml version="1.0" encoding="UTF-8"?><svg version="1.1" width="24px" height="24px" viewBox="0 0 24.0 24.0" xmlns="http://www.w3.org/2000/svg" xmlns:xlink="http://www.w3.org/1999/xlink"><defs><clipPath id="i0"><path d="M8.88048531,3.11638661 C9.02736606,2.96950586 9.26485329,2.96950586 9.41484683,3.11638661 L12.8835886,6.58512834 C13.0304693,6.7320091 13.0304693,6.96949632 12.8835886,7.11637708 L4.67737033,15.3226258 L0.880504384,15.9882431 C0.367993399,16.0757368 -0.0788744318,15.6319818 0.0117625592,15.1195013 L0.674236566,11.3226354 Z M2.74924383,11.7476221 L1.61487763,11.7476221 L1.26175958,13.7632423 L2.23362005,14.7351028 L4.24924025,14.3819848 L4.24924025,13.2476221 L2.74924383,13.2476221 L2.74924383,11.7476221 Z M9.30861539,5.18825057 C9.1367408,5.01637598 8.86171705,5.01637598 8.68984245,5.18825057 L3.87735393,10.0007391 C3.70547934,10.1726137 3.70547934,10.4476374 3.87735393,10.619512 C4.04922852,10.7913866 4.32425228,10.7913866 4.49612687,10.619512 L9.30861539,5.80702351 C9.48048998,5.63514892 9.48048998,5.36012516 9.30861539,5.18825057 Z M11.55861,0.438261895 C12.1429592,-0.146087298 13.0929692,-0.146087298 13.6804617,0.438261895 L15.5586005,2.31640073 C16.146093,2.90078044 16.146093,3.85075986 15.5586005,4.43825236 L14.1179606,5.87889223 C13.9710799,6.02577299 13.7335926,6.02577299 13.5867119,5.87889223 L10.1179702,2.4101505 C9.9710894,2.26326975 9.9710894,2.02578252 10.1179702,1.87890177 Z"></path></clipPath></defs><g transform="translate(4.0 4.000000000000028)"><g clip-path="url(#i0)"><polygon points="-1.77982629e-15,0 15.9992199,0 15.9992199,15.9993237 -1.77982629e-15,15.9993237 -1.77982629e-15,0" stroke="none" fill="#696E73"></polygon></g></g></svg>