<?xml version="1.0" encoding="UTF-8"?><svg version="1.1" width="24px" height="24px" viewBox="0 0 24.0 24.0" xmlns="http://www.w3.org/2000/svg" xmlns:xlink="http://www.w3.org/1999/xlink"><defs><clipPath id="i0"><path d="M4.796875,3.8578125 C5.0890625,3.565625 5.565625,3.565625 5.8578125,3.8578125 L15.78125,13.78125 C15.928125,13.928125 16,14.121875 16,14.315625 C16,14.509375 15.928125,14.696875 15.7828125,14.8421875 L14.84375,15.78125 C14.696875,15.9265625 14.5046875,16 14.3125,16 C14.1203125,16 13.9265625,15.9265625 13.78125,15.78125 L3.8578125,5.8578125 C3.565625,5.565625 3.565625,5.0890625 3.8578125,4.796875 Z M5.75,9 C5.8875,9 6,9.1125 6,9.25 L6,10.75 C6,10.8875 5.8875,11 5.75,11 L5.25,11 C5.1125,11 5,10.8875 5,10.75 L5,9.25 C5,9.1125 5.1125,9 5.25,9 L5.75,9 Z M3.1765625,7.1765625 L3.8234375,7.8234375 C3.9203125,7.9203125 3.9203125,8.0796875 3.8234375,8.1765625 L2.0734375,9.9265625 C2.0265625,9.9734375 1.9625,10 1.896875,10 L1.25,10 C1.1125,10 1,9.8875 1,9.75 L1,9.103125 C1,9.0375 1.0265625,8.9734375 1.0734375,8.9265625 L2.8234375,7.1765625 C2.9203125,7.0796875 3.0796875,7.0796875 3.1765625,7.1765625 Z M5.328125,4.328125 L4.328125,5.328125 L7.515625,8.515625 L8.515625,7.515625 L5.328125,4.328125 Z M1.75,5 C1.8875,5 2,5.1125 2,5.25 L2,5.75 C2,5.8875 1.8875,6 1.75,6 L0.25,6 C0.1125,6 0,5.8875 0,5.75 L0,5.25 C0,5.1125 0.1125,5 0.25,5 L1.75,5 Z M10.75,5 C10.8875,5 11,5.1125 11,5.25 L11,5.75 C11,5.8875 10.8875,6 10.75,6 L9.25,6 C9.1125,6 9,5.8875 9,5.75 L9,5.25 C9,5.1125 9.1125,5 9.25,5 L10.75,5 Z M9.75,1 C9.8875,1 10,1.1125 10,1.25 L10,1.896875 C10,1.9625 9.9734375,2.0265625 9.9265625,2.0734375 L8.1765625,3.8234375 C8.0796875,3.9203125 7.9203125,3.9203125 7.8234375,3.8234375 L7.1765625,3.1765625 C7.0796875,3.0796875 7.0796875,2.9203125 7.1765625,2.8234375 L8.9265625,1.0734375 C8.9734375,1.0265625 9.0375,1 9.103125,1 L9.75,1 Z M1.896875,1 C1.9625,1 2.0265625,1.0265625 2.0734375,1.0734375 L3.8234375,2.8234375 C3.9203125,2.9203125 3.9203125,3.0796875 3.8234375,3.1765625 L3.1765625,3.8234375 C3.0796875,3.9203125 2.9203125,3.9203125 2.8234375,3.8234375 L1.0734375,2.0734375 C1.0265625,2.0265625 1,1.9625 1,1.896875 L1,1.25 C1,1.1125 1.1125,1 1.25,1 L1.896875,1 Z M5.75,0 C5.8875,0 6,0.1125 6,0.25 L6,1.75 C6,1.8875 5.8875,2 5.75,2 L5.25,2 C5.1125,2 5,1.8875 5,1.75 L5,0.25 C5,0.1125 5.1125,0 5.25,0 L5.75,0 Z"></path></clipPath></defs><g transform="translate(4.0 4.0)"><g clip-path="url(#i0)"><polygon points="0,0 16,0 16,16 0,16 0,0" stroke="none" fill="#696E73"></polygon></g></g></svg>