<?xml version="1.0" encoding="UTF-8"?><svg version="1.1" width="24px" height="24px" viewBox="0 0 24.0 24.0" xmlns="http://www.w3.org/2000/svg" xmlns:xlink="http://www.w3.org/1999/xlink"><defs><clipPath id="i0"><path d="M8.0015625,0 C12.4125,0 16,3.5890625 16,8 C16,12.4109375 12.4125,16 8.0015625,16 C3.590625,16 0,12.409375 0,8 C0,3.590625 3.5890625,0 8.0015625,0 Z M8,2 C4.690625,2 2,4.6921875 2,8 C2,11.3109375 4.690625,14 8,14 C11.3078125,14 14,11.309375 14,8 C14,4.690625 11.309375,2 8,2 Z M8.765625,4.5 C8.89506673,4.5 9,4.60493327 9,4.734375 L9,7 L11.265625,7 C11.3954266,7.00060267 11.5002598,7.1061348 11.5,7.2359375 L11.5,8.7671875 C11.5,8.82920489 11.4752586,8.88865969 11.4312593,8.9323657 C11.38726,8.9760717 11.327641,9.00041622 11.265625,9 L9,9 L9,11.2640625 C9.0002598,11.3938652 8.89542656,11.4993973 8.765625,11.5 L7.234375,11.5 C7.10457344,11.4993973 6.9997402,11.3938652 7,11.2640625 L7,9 L4.734375,9 C4.60493327,9 4.5,8.89506673 4.5,8.765625 L4.5,7.234375 C4.5,7.10493327 4.60493327,7 4.734375,7 L7,7 L7,4.734375 C7,4.60493327 7.10493327,4.5 7.234375,4.5 Z"></path></clipPath></defs><g transform="translate(4.0 4.0)"><g clip-path="url(#i0)"><polygon points="0,0 16,0 16,16 0,16 0,0" stroke="none" fill="#696E73"></polygon></g></g></svg>