<?xml version="1.0" encoding="UTF-8"?><svg version="1.1" width="24px" height="24px" viewBox="0 0 24.0 24.0" xmlns="http://www.w3.org/2000/svg" xmlns:xlink="http://www.w3.org/1999/xlink"><defs><clipPath id="i0"><path d="M6.8421875,4.9984375 C6.959375,4.9984375 7.0640625,5.04375 7.1546875,5.134375 L13.6078125,11.590625 L15.246875,9.9515625 C15.659375,9.5390625 15.9984375,9.678125 16,10.2609375 L16,14.9359375 C16,15.8390625 15.8515625,16 14.9375,16 L10.2625,16 C9.678125,16 9.5390625,15.659375 9.9515625,15.246875 L11.59375,13.6046875 L5.1375,7.1515625 C5.046875,7.0609375 5.0015625,6.95625 5.0015625,6.8390625 C5.0015625,6.721875 5.046875,6.6171875 5.1375,6.5265625 L6.5296875,5.134375 C6.6203125,5.04375 6.725,4.9984375 6.8421875,4.9984375 Z M15.6453125,0 C15.7484375,0 15.8328125,0.0328125 15.9,0.1 C15.9671875,0.1671875 16,0.2515625 16,0.3546875 L16,7.2546875 C16,7.4765625 15.73125,7.5890625 15.5734375,7.43125 L14.146875,6.0046875 C14.0529673,5.91115294 14.0001241,5.78410439 14,5.6515625 L14,2 L2,2 L2,14 L5.6375,14 C5.77004189,14.0001241 5.89709044,14.0529673 5.990625,14.146875 L7.4171875,15.5734375 C7.48850669,15.6449294 7.50981212,15.7523077 7.47119112,15.8456133 C7.43257014,15.9389187 7.34160756,15.9998272 7.240625,16 L0.3546875,16 C0.2515625,16 0.1671875,15.9671875 0.1,15.9 C0.0328125,15.8328125 0,15.7484375 0,15.6453125 L0,0.3546875 C0,0.2515625 0.0328125,0.1671875 0.1,0.1 C0.1671875,0.0328125 0.2515625,0 0.3546875,0 Z"></path></clipPath></defs><g transform="translate(4.0 4.0)"><g clip-path="url(#i0)"><polygon points="0,0 16,0 16,16 0,16 0,0" stroke="none" fill="#696E73"></polygon></g></g></svg>