<?xml version="1.0" encoding="UTF-8"?><svg version="1.1" width="24px" height="24px" viewBox="0 0 24.0 24.0" xmlns="http://www.w3.org/2000/svg" xmlns:xlink="http://www.w3.org/1999/xlink"><defs><clipPath id="i0"><path d="M15.6453127,0 C15.7484377,0 15.8328127,0.0328125 15.9000002,0.1 C15.9671877,0.1671875 16,0.2515625 16,0.3546875 L16,15.6453125 C16,15.7484375 15.9671877,15.8328125 15.9000002,15.9 C15.8328127,15.9671875 15.7484377,16 15.6453127,16 L0.354687663,16 C0.251562663,16 0.167187663,15.9671875 0.100000163,15.9 C0.0328126627,15.8328125 0,15.7484375 0,15.6453125 L0,7.74375 C0,7.64260367 0.0609517752,7.55143236 0.154529246,7.51304159 C0.248106717,7.47465084 0.355608848,7.49666567 0.426562663,7.56875 L1.85312516,8.9953125 C1.94703286,9.08884706 1.99987606,9.21589561 2,9.3484375 L2,14 L14,14 L14,2 L9.36250016,2 C9.22995827,1.99987591 9.10290972,1.9470327 9.00937516,1.853125 L7.58281266,0.4265625 C7.51149347,0.355070669 7.49018805,0.247692341 7.52880903,0.154386775 C7.56743002,0.0610812095 7.65839259,0.000172788008 7.75937516,0 Z M1.84062516,0 C1.95781266,0 2.06250016,0.0453125 2.15312516,0.1359375 L8.60781266,6.5921875 L10.2468752,4.9515625 C10.6593752,4.5390625 10.9984377,4.678125 11.0000002,5.2609375 L11.0000002,9.9359375 C11.0000002,10.8390625 10.8515627,11 9.93750016,11 L5.26250016,11 C4.67812516,11 4.53906266,10.659375 4.95156266,10.246875 L6.59218766,8.60625 L0.135937663,2.153125 C0.0453126627,2.0625 1.62625339e-07,1.9578125 1.62625339e-07,1.840625 C1.62625339e-07,1.7234375 0.0453126627,1.61875 0.135937663,1.528125 L1.52812516,0.1359375 C1.61875016,0.0453125 1.72343766,0 1.84062516,0 Z"></path></clipPath></defs><g transform="translate(4.0 4.0)"><g clip-path="url(#i0)"><polygon points="0,0 16,0 16,16 0,16 0,0" stroke="none" fill="#696E73"></polygon></g></g></svg>