<?xml version="1.0" encoding="UTF-8"?>
<svg width="24px" height="24px" viewBox="0 0 24 24" version="1.1" xmlns="http://www.w3.org/2000/svg" xmlns:xlink="http://www.w3.org/1999/xlink">
    <title></title>
    <g id="Icons" stroke="none" stroke-width="1" fill="none" fill-rule="evenodd">
        <g id="Icons/1.-Size-md/Actions/pficon-import" fill="#6A6E73">
            <path d="M18,18 L6,18 L6,13.3484375 C5.99987606,13.2158956 5.94703286,13.0888471 5.85312516,12.9953125 L4.42656266,11.56875 C4.35560885,11.4966657 4.24810672,11.4746508 4.15452925,11.5130416 C4.06095178,11.5514324 4,11.6426037 4,11.74375 L4,19.6453125 C4,19.7484375 4.03281266,19.8328125 4.10000016,19.9 C4.16718766,19.9671875 4.25156266,20 4.35468766,20 L19.6453127,20 C19.7484377,20 19.8328127,19.9671875 19.9000002,19.9 C19.9671877,19.8328125 20,19.7484375 20,19.6453125 L20,4.3546875 C20,4.2515625 19.9671877,4.1671875 19.9000002,4.1 C19.8328127,4.0328125 19.7484377,4 19.6453127,4 L11.7593752,4 C11.6583926,4.00017279 11.56743,4.06108121 11.528809,4.15438677 C11.490188,4.24769234 11.5114935,4.35507067 11.5828127,4.4265625 L13.0093752,5.853125 C13.1029097,5.9470327 13.2299583,5.99987591 13.3625002,6 L18,6 L18,18 Z M14.2468752,8.9515625 L12.6078127,10.5921875 L6.15312516,4.1359375 C6.06250016,4.0453125 5.95781266,4 5.84062516,4 C5.72343766,4 5.61875016,4.0453125 5.52812516,4.1359375 L4.13593766,5.528125 C4.04531266,5.61875 4.00000016,5.7234375 4.00000016,5.840625 C4.00000016,5.9578125 4.04531266,6.0625 4.13593766,6.153125 L10.5921877,12.60625 L8.95156266,14.246875 C8.53906266,14.659375 8.67812516,15 9.26250016,15 L13.9375002,15 C14.8515627,15 15.0000002,14.8390625 15.0000002,13.9359375 L15.0000002,9.2609375 C14.9984377,8.678125 14.6593752,8.5390625 14.2468752,8.9515625 Z" id="pficon-import"></path>
        </g>
    </g>
</svg>