<?xml version="1.0" encoding="UTF-8"?><svg version="1.1" width="24px" height="24px" viewBox="0 0 24.0 24.0" xmlns="http://www.w3.org/2000/svg" xmlns:xlink="http://www.w3.org/1999/xlink"><defs><clipPath id="i0"><path d="M12.79375,0 C12.9265625,0 13.053125,0.053125 13.146875,0.146875 L15.853125,2.853125 C15.946875,2.946875 16,3.075 16,3.2078125 L16,15.5 C16,15.7765625 15.7765625,16 15.5,16 L0.5,16 C0.2234375,16 0,15.7765625 0,15.5 L0,0.5 C0,0.2234375 0.2234375,0 0.5,0 Z M12.171875,2 L2,2 L2,14 L14,14 L14,3.828125 L12.171875,2 Z M8.7609375,4 C8.8890625,4 9,4.1046875 9,4.234375 L9,8 L10.9734375,8 C11.3953125,8 11.628125,8.490625 11.3609375,8.8171875 L8.384375,12.4515625 C8.1859375,12.6953125 7.8125,12.6953125 7.6125,12.453125 L4.6125,8.81875 C4.34375,8.4921875 4.575,8 4.9984375,8 L7,8 L7,4.28125 C7,4.1265625 7.1265625,4 7.28125,4 Z"></path></clipPath></defs><g transform="translate(4.0 4.0)"><g clip-path="url(#i0)"><polygon points="0,0 16,0 16,16 0,16 0,0" stroke="none" fill="#696E73"></polygon></g></g></svg>