<?xml version="1.0" encoding="UTF-8"?><svg version="1.1" width="24px" height="24px" viewBox="0 0 24.0 24.0" xmlns="http://www.w3.org/2000/svg" xmlns:xlink="http://www.w3.org/1999/xlink"><defs><clipPath id="i0"><path d="M7.49998212,0 C8.05216586,0 8.49997973,0.447813874 8.49997973,1 L8.49997973,5.49998689 L12.999969,5.49998689 C13.5521527,5.49998689 13.9999666,5.94780076 13.9999666,6.4999845 L13.9999666,7.49998212 C13.9999666,8.05216586 13.5521527,8.49997973 12.999969,8.49997973 L8.49997973,8.49997973 L8.49997973,12.999969 C8.49997973,13.5521527 8.05216586,13.9999666 7.49998212,13.9999666 L6.4999845,13.9999666 C5.94780076,13.9999666 5.49998689,13.5521527 5.49998689,12.999969 L5.49998689,8.49997973 L1,8.49997973 C0.447813874,8.49997973 0,8.05216586 0,7.49998212 L0,6.4999845 C0,5.94780076 0.447813874,5.49998689 1,5.49998689 L5.49998689,5.49998689 L5.49998689,1 C5.49998689,0.447813874 5.94780076,0 6.4999845,0 Z"></path></clipPath></defs><g transform="translate(5.0 5.0)"><g clip-path="url(#i0)"><polygon points="0,0 13.9999666,0 13.9999666,13.9999666 0,13.9999666 0,0" stroke="none" fill="#696E73"></polygon></g></g></svg>