<?xml version="1.0" encoding="UTF-8"?><svg version="1.1" width="24px" height="24px" viewBox="0 0 24.0 24.0" xmlns="http://www.w3.org/2000/svg" xmlns:xlink="http://www.w3.org/1999/xlink"><defs><clipPath id="i0"><path d="M11.5856047,0 C11.8509239,0 12.1052873,0.105315911 12.2927869,0.292815464 L13.7071512,1.70687459 C13.8946507,1.89467932 13.9999666,2.14873755 13.9999666,2.41405674 L13.9999666,5.99998569 C15.1046393,5.99998569 15.9999619,6.89530827 15.9999619,7.99998093 L15.9999619,11.4999726 C15.9999619,11.776217 15.7762075,11.9999714 15.499963,11.9999714 L13.9999666,11.9999714 L13.9999666,14.9999642 C13.9999666,15.552148 13.5521527,15.9999619 12.999969,15.9999619 L3,15.9999619 C2.44780911,15.9999619 2,15.552148 2,14.9999642 L2,11.9999714 L0.5,11.9999714 C0.223754349,11.9999714 0,11.776217 0,11.4999726 L0,7.99998093 C0,6.89530827 0.895322572,5.99998569 2,5.99998569 L2,1 C2,0.447813874 2.44780911,0 3,0 Z M11.9999714,10.9999738 L3.99999046,10.9999738 L3.99999046,13.9999738 L11.9999714,13.9999738 L11.9999714,10.9999738 Z M13.4999678,7.74998152 C13.0859063,7.74998152 12.7499696,8.08561305 12.7499696,8.49997973 C12.7499696,8.91404125 13.0859063,9.24998152 13.4999678,9.24998152 C13.9140293,9.24998152 14.2499696,8.91404125 14.2499696,8.49997973 C14.2499696,8.08561305 13.9140293,7.74998152 13.4999678,7.74998152 Z M9.99997616,1.99999523 L3.99999046,1.99999523 L3.99999046,6.99998331 L11.9999714,6.99998331 L11.9999714,3.99999523 L10.499975,3.99999523 C10.2237305,3.99999523 9.99997616,3.77623611 9.99997616,3.49999523 L9.99997616,1.99999523 Z"></path></clipPath></defs><g transform="translate(4.0 4.0)"><g clip-path="url(#i0)"><polygon points="0,0 15.9999619,0 15.9999619,15.9999619 0,15.9999619 0,0" stroke="none" fill="#696E73"></polygon></g></g></svg>