<?xml version="1.0" encoding="UTF-8"?>
<svg width="24px" height="24px" viewBox="0 0 24 24" version="1.1" xmlns="http://www.w3.org/2000/svg" xmlns:xlink="http://www.w3.org/1999/xlink">
    <title></title>
    <g id="Icons" stroke="none" stroke-width="1" fill="none" fill-rule="evenodd">
        <g id="Icons/1.-Size-md/Actions/print" fill="#6A6E73">
            <path d="M16.999969,19.9999619 C17.5521527,19.9999619 17.9999666,19.552148 17.9999666,18.9999642 L17.9999666,15.9999714 L19.499963,15.9999714 C19.7762075,15.9999714 19.9999619,15.776217 19.9999619,15.4999726 L19.9999619,11.9999809 C19.9999619,10.8953083 19.1046393,9.99998569 17.9999666,9.99998569 L17.9999666,6.41405674 C17.9999666,6.14873755 17.8946507,5.89467932 17.7071512,5.70687459 L16.2927869,4.29281546 C16.1052873,4.10531591 15.8509239,4 15.5856047,4 L7,4 C6.44780911,4 6,4.44781387 6,5 L6,9.99998569 C4.89532257,9.99998569 4,10.8953083 4,11.9999809 L4,15.4999726 C4,15.776217 4.22375435,15.9999714 4.5,15.9999714 L6,15.9999714 L6,18.9999642 C6,19.552148 6.44780911,19.9999619 7,19.9999619 L16.999969,19.9999619 Z M15.9999714,10.9999833 L7.99999046,10.9999833 L7.99999046,5.99999523 L13.9999762,5.99999523 L13.9999762,7.49999523 C13.9999762,7.77623611 14.2237305,7.99999523 14.499975,7.99999523 L15.9999714,7.99999523 L15.9999714,10.9999833 Z M17.4999678,13.2499815 C17.0859063,13.2499815 16.7499696,12.9140412 16.7499696,12.4999797 C16.7499696,12.085613 17.0859063,11.7499815 17.4999678,11.7499815 C17.9140293,11.7499815 18.2499696,12.085613 18.2499696,12.4999797 C18.2499696,12.9140412 17.9140293,13.2499815 17.4999678,13.2499815 Z M15.9999714,17.9999738 L7.99999046,17.9999738 L7.99999046,14.9999738 L15.9999714,14.9999738 L15.9999714,17.9999738 Z" id="print"></path>
        </g>
    </g>
</svg>