<?xml version="1.0" encoding="UTF-8"?><svg version="1.1" width="24px" height="24px" viewBox="0 0 24.0 24.0" xmlns="http://www.w3.org/2000/svg" xmlns:xlink="http://www.w3.org/1999/xlink"><defs><clipPath id="i0"><path d="M15.3852803,0 C15.5922806,0 15.7602795,0.167998867 15.7602795,0.374999106 L15.7602795,6.6356043 C15.7602795,6.84260454 15.5922806,7.0106034 15.3852803,7.0106034 L9.12498033,7.0106034 C8.91798009,7.0106034 8.74998122,6.84260454 8.74998122,6.6356043 L8.74998122,5.1536132 C8.74998122,4.94661296 8.91798009,4.7786141 9.12498033,4.7786141 C9.12989365,4.7786141 9.13788923,4.77882772 9.14280255,4.77904134 L12.3155855,4.93123214 C11.4133355,3.58870604 9.36826588,2.49910903 7.75071603,2.49910903 C4.71474304,2.49910903 2.25072914,4.96312293 2.25072914,7.99909592 C2.25072914,11.0350994 4.71474304,13.4990828 7.75071603,13.4990828 C8.89616007,13.4990828 10.5237502,12.8850096 11.3837335,12.1284196 C11.4422355,12.0772722 11.55277,12.0357989 11.6304675,12.0357989 C11.7161912,12.0357989 11.8349653,12.0849932 11.8956036,12.1456009 L12.9581011,13.2080984 C13.0187699,13.2687367 13.0680251,13.3875718 13.0680251,13.4733565 C13.0680251,13.5658856 13.012056,13.6910684 12.9430865,13.7527748 C11.7252549,14.8552197 9.40360515,15.7499624 7.76087836,15.7499624 L7.74998361,15.7499624 C3.4718566,15.7499624 0.00311487068,12.283418 0,8.00593184 C-0.00311070041,3.73531214 3.47936391,0.249999404 7.74998361,0.249999404 C9.73426232,0.249999404 12.3753388,1.47262222 13.6537171,2.97905784 L13.5287174,0.392821329 L13.5282901,0.374999106 C13.5282901,0.167998867 13.696289,0 13.9032892,0 Z"></path></clipPath></defs><g transform="translate(3.9999999999999716 4.000000000000001)"><g clip-path="url(#i0)"><polygon points="-2.08234134e-06,0 15.7602795,0 15.7602795,15.7499624 -2.08234134e-06,15.7499624 -2.08234134e-06,0" stroke="none" fill="#696E73"></polygon></g></g></svg>