<?xml version="1.0" encoding="UTF-8"?>
<svg width="24px" height="24px" viewBox="0 0 24 24" version="1.1" xmlns="http://www.w3.org/2000/svg" xmlns:xlink="http://www.w3.org/1999/xlink">
    <title></title>
    <g id="Icons" stroke="none" stroke-width="1" fill="none" fill-rule="evenodd">
        <g id="Icons/1.-Size-md/Actions/redo" fill="#6A6E73">
            <path d="M11.7608784,19.7499624 C13.4036052,19.7499624 15.7252549,18.8552197 16.9430865,17.7527748 C17.012056,17.6910684 17.0680251,17.5658856 17.0680251,17.4733565 C17.0680251,17.3875718 17.0187699,17.2687367 16.9581011,17.2080984 L15.8956036,16.1456009 C15.8349653,16.0849932 15.7161912,16.0357989 15.6304675,16.0357989 C15.55277,16.0357989 15.4422355,16.0772722 15.3837335,16.1284196 C14.5237502,16.8850096 12.8961601,17.4990828 11.750716,17.4990828 C8.71474304,17.4990828 6.25072914,15.0350994 6.25072914,11.9990959 C6.25072914,8.96312293 8.71474304,6.49910903 11.750716,6.49910903 C13.3682659,6.49910903 15.4133355,7.58870604 16.3155855,8.93123214 L13.1428026,8.77904134 C13.1378892,8.77882772 13.1298936,8.7786141 13.1249803,8.7786141 C12.9179801,8.7786141 12.7499812,8.94661296 12.7499812,9.1536132 L12.7499812,10.6356043 C12.7499812,10.8426045 12.9179801,11.0106034 13.1249803,11.0106034 L19.3852803,11.0106034 C19.5922806,11.0106034 19.7602795,10.8426045 19.7602795,10.6356043 L19.7602795,4.37499911 C19.7602795,4.16799887 19.5922806,4 19.3852803,4 L17.9032892,4 C17.696289,4 17.5282901,4.16799887 17.5282901,4.37499911 L17.5287174,4.39282133 L17.5287174,4.39282133 L17.6537171,6.97905784 C16.3753388,5.47262222 13.7342623,4.2499994 11.758498,4.2499994 L11.7499836,4.2499994 C7.47936391,4.2499994 3.9968893,7.73531214 4,12.0059318 C4.00311487,16.283418 7.4718566,19.7499624 11.7499836,19.7499624 L11.7608784,19.7499624 Z" id="redo"></path>
        </g>
    </g>
</svg>