<?xml version="1.0" encoding="UTF-8"?><svg version="1.1" width="24px" height="24px" viewBox="0 0 24.0 24.0" xmlns="http://www.w3.org/2000/svg" xmlns:xlink="http://www.w3.org/1999/xlink"><defs><clipPath id="i0"><path d="M6.4999845,0 C10.0906131,0 12.999969,2.90935586 12.999969,6.4999845 C12.999969,8.0093498 12.487458,9.3968587 11.6249723,10.499975 L12.13434,10.499975 C12.3343517,10.499975 12.524964,10.5780998 12.6655887,10.7187244 L15.7812124,13.8343481 C16.0718306,14.1280791 16.0718306,14.6030841 15.7812124,14.8968456 L14.8968456,15.7812124 C14.6030841,16.0749739 14.1280791,16.0749739 13.8374609,15.7812124 L10.7187244,12.6655887 C10.5780998,12.524964 10.499975,12.3343517 10.499975,12.13434 L10.499975,11.6249723 C9.3968587,12.487458 8.0093498,12.999969 6.4999845,12.999969 C2.90935586,12.999969 0,10.0906131 0,6.4999845 C0,2.90935586 2.90935586,0 6.4999845,0 Z M6.4999845,2.24999464 C4.149984,2.24999464 2.24999464,4.149984 2.24999464,6.4999845 C2.24999464,8.849985 4.149984,10.7499744 6.4999845,10.7499744 C8.849985,10.7499744 10.7499744,8.849985 10.7499744,6.4999845 C10.7499744,4.149984 8.849985,2.24999464 6.4999845,2.24999464 Z M9.12497824,5.62498659 C9.33121555,5.62498659 9.49997735,5.79374839 9.49997735,5.99998569 L9.49997735,6.99998331 C9.49997735,7.20622061 9.33121555,7.37498242 9.12497824,7.37498242 L3.87499076,7.37498242 C3.66875346,7.37498242 3.49999166,7.20622061 3.49999166,6.99998331 L3.49999166,5.99998569 C3.49999166,5.79374839 3.66875346,5.62498659 3.87499076,5.62498659 Z"></path></clipPath></defs><g transform="translate(4.0 4.0)"><g clip-path="url(#i0)"><polygon points="0,0 15.999176,0 15.999176,16.0015335 0,16.0015335 0,0" stroke="none" fill="#696E73"></polygon></g></g></svg>