<?xml version="1.0" encoding="UTF-8"?><svg version="1.1" width="24px" height="24px" viewBox="0 0 24.0 24.0" xmlns="http://www.w3.org/2000/svg" xmlns:xlink="http://www.w3.org/1999/xlink"><defs><clipPath id="i0"><path d="M5.282275,1.9999968 C5.67448598,1.9999968 5.80336141,2.52593549 5.4555534,2.70720947 C4.86876281,3.01302539 4.32863348,3.39809527 3.86137995,3.88457483 C3.80034494,3.94823434 3.679282,3.999931 3.59111693,3.9999968 L2,3.9999968 L2,13.9999682 L11.9999714,13.9999682 L11.9999714,11.8477211 C11.9999714,11.618199 12.2040419,11.4444323 12.4312143,11.4771165 C12.5190742,11.4897813 12.6624149,11.5000657 12.7511903,11.5000657 C12.9638363,11.5000657 13.2991321,11.4425097 13.4996321,11.371587 C13.7438027,11.2852225 13.9999666,11.4657945 13.9999666,11.7247966 L13.9999666,14.499967 C13.9999666,15.3283952 13.3283984,15.9999634 12.4999702,15.9999634 L1.5,15.9999634 C0.671568223,15.9999634 0,15.3283952 0,14.499967 L0,3.4999968 C0,2.67156502 0.671568223,1.9999968 1.5,1.9999968 Z M11.9999714,0.750365991 C11.9999714,0.0886854396 12.7911377,-0.242368459 13.264922,0.20514024 L17.7650333,4.45473338 C18.0781429,4.75044801 18.0783871,5.24925663 17.7650333,5.54524592 L13.264922,9.7947475 C12.7905884,10.242714 11.9999714,9.91059195 11.9999714,9.24952175 L11.9999714,7.00068678 C7.48200731,7.03099067 5.57603651,8.09794369 6.85075271,12.3554409 C6.99085858,12.8233353 6.44932544,13.1856696 6.06932147,12.8970045 C4.85161197,11.9720189 3.74999106,10.202736 3.74999106,8.4168211 C3.74999106,3.91881547 7.42493957,3.02620895 11.9999714,3.00084891 Z"></path></clipPath></defs><g transform="translate(3.0 3.9999999999999725)"><g clip-path="url(#i0)"><polygon points="0,8.90953977e-15 17.9999571,8.90953977e-15 17.9999571,15.9999634 0,15.9999634 0,8.90953977e-15" stroke="none" fill="#696E73"></polygon></g></g></svg>