<?xml version="1.0" encoding="UTF-8"?><svg version="1.1" width="24px" height="24px" viewBox="0 0 24.0 24.0" xmlns="http://www.w3.org/2000/svg" xmlns:xlink="http://www.w3.org/1999/xlink"><defs><clipPath id="i0"><path d="M3.50002062,0 C3.77602094,0 4.00001943,0.223998489 4.00001943,0.5 L4.00001943,9.99997616 L5.50001585,9.99997616 C5.94438125,9.99997616 6.16718955,10.5393425 5.85407995,10.8533982 L3.35408591,13.853391 C3.27324504,13.9341709 3.11492022,13.9997225 3.00063216,13.9997225 C2.88637462,13.9997225 2.7280498,13.9341709 2.64720893,13.853391 L0.147214892,10.8533982 C-0.167786798,10.5387322 0.0565779012,9.99997616 0.500027772,9.99997616 L2.0000242,9.99997616 L2.0000242,0.5 C2.0000242,0.223998489 2.22402268,0 2.500023,0 Z M9.50001227,11.9999714 C9.77600663,11.9999714 10.0000123,12.2239699 10.0000123,12.4999714 L10.0000123,13.4999714 C10.0000123,13.7759681 9.77600663,13.9999714 9.50001227,13.9999714 L7.50001227,13.9999714 C7.22401076,13.9999714 7.00001227,13.7759681 7.00001227,13.4999714 L7.00001227,12.4999714 C7.00001227,12.2239699 7.22401076,11.9999714 7.50001227,11.9999714 Z M11.5000015,7.99998093 C11.7760019,7.99998093 12.0000004,8.22397942 12.0000004,8.49998093 L12.0000004,9.49998093 C12.0000004,9.77597767 11.7760019,9.99998093 11.5000015,9.99998093 L7.50001227,9.99998093 C7.22401076,9.99998093 7.00001227,9.77597767 7.00001227,9.49998093 L7.00001227,8.49998093 C7.00001227,8.22397942 7.22401076,7.99998093 7.50001227,7.99998093 Z M13.4999968,3.99999046 C13.7759971,3.99999046 13.9999956,4.22398895 13.9999956,4.49999046 L13.9999956,5.49999046 C13.9999956,5.77598721 13.7759971,5.99999046 13.4999968,5.99999046 L7.50001227,5.99999046 C7.22401076,5.99999046 7.00001227,5.77598721 7.00001227,5.49999046 L7.00001227,4.49999046 C7.00001227,4.22398895 7.22401076,3.99999046 7.50001227,3.99999046 Z M15.499992,0 C15.7759923,0 15.9999908,0.223998489 15.9999908,0.5 L15.9999908,1.5 C15.9999908,1.77599674 15.7759923,2 15.499992,2 L7.50001227,2 C7.22401076,2 7.00001227,1.77599674 7.00001227,1.5 L7.00001227,0.5 C7.00001227,0.223998489 7.22401076,0 7.50001227,0 Z"></path></clipPath></defs><g transform="translate(4.000000000000001 5.0)"><g clip-path="url(#i0)"><polygon points="2.22044605e-15,0 15.9999908,0 15.9999908,13.9999714 2.22044605e-15,13.9999714 2.22044605e-15,0" stroke="none" fill="#696E73"></polygon></g></g></svg>