<?xml version="1.0" encoding="UTF-8"?>
<svg width="24px" height="24px" viewBox="0 0 24 24" version="1.1" xmlns="http://www.w3.org/2000/svg" xmlns:xlink="http://www.w3.org/1999/xlink">
    <title></title>
    <g id="Icons" stroke="none" stroke-width="1" fill="none" fill-rule="evenodd">
        <g id="Icons/1.-Size-md/Actions/sort-amount-down" fill="#6A6E73">
            <path d="M7.00063216,18.9997225 C7.11492022,18.9997225 7.27324504,18.9341709 7.35408591,18.853391 L9.85407995,15.8533982 C10.1671896,15.5393425 9.94438125,14.9999762 9.50001585,14.9999762 L8.00001943,14.9999762 L8.00001943,5.5 C8.00001943,5.22399849 7.77602094,5 7.50002062,5 L6.500023,5 C6.22402268,5 6.0000242,5.22399849 6.0000242,5.5 L6.0000242,14.9999762 L4.50002777,14.9999762 C4.0565779,14.9999762 3.8322132,15.5387322 4.14721489,15.8533982 L6.64720893,18.853391 C6.7280498,18.9341709 6.88637462,18.9997225 7.00063216,18.9997225 Z M19.499992,7 C19.7759923,7 19.9999908,6.77599674 19.9999908,6.5 L19.9999908,5.5 C19.9999908,5.22399849 19.7759923,5 19.499992,5 L11.5000123,5 C11.2240108,5 11.0000123,5.22399849 11.0000123,5.5 L11.0000123,6.5 C11.0000123,6.77599674 11.2240108,7 11.5000123,7 L19.499992,7 Z M17.4999968,10.9999905 C17.7759971,10.9999905 17.9999956,10.7759872 17.9999956,10.4999905 L17.9999956,9.49999046 C17.9999956,9.22398895 17.7759971,8.99999046 17.4999968,8.99999046 L11.5000123,8.99999046 C11.2240108,8.99999046 11.0000123,9.22398895 11.0000123,9.49999046 L11.0000123,10.4999905 C11.0000123,10.7759872 11.2240108,10.9999905 11.5000123,10.9999905 L17.4999968,10.9999905 Z M15.5000015,14.9999809 C15.7760019,14.9999809 16.0000004,14.7759777 16.0000004,14.4999809 L16.0000004,13.4999809 C16.0000004,13.2239794 15.7760019,12.9999809 15.5000015,12.9999809 L11.5000123,12.9999809 C11.2240108,12.9999809 11.0000123,13.2239794 11.0000123,13.4999809 L11.0000123,14.4999809 C11.0000123,14.7759777 11.2240108,14.9999809 11.5000123,14.9999809 L15.5000015,14.9999809 Z M13.5000123,18.9999714 C13.7760066,18.9999714 14.0000123,18.7759681 14.0000123,18.4999714 L14.0000123,17.4999714 C14.0000123,17.2239699 13.7760066,16.9999714 13.5000123,16.9999714 L11.5000123,16.9999714 C11.2240108,16.9999714 11.0000123,17.2239699 11.0000123,17.4999714 L11.0000123,18.4999714 C11.0000123,18.7759681 11.2240108,18.9999714 11.5000123,18.9999714 L13.5000123,18.9999714 Z" id="sort-amount-down"></path>
        </g>
    </g>
</svg>