<?xml version="1.0" encoding="UTF-8"?><svg version="1.1" width="24px" height="24px" viewBox="0 0 24.0 24.0" xmlns="http://www.w3.org/2000/svg" xmlns:xlink="http://www.w3.org/1999/xlink"><defs><clipPath id="i0"><path d="M7.74998152,0 C12.0312213,0 15.499963,3.46874173 15.499963,7.74998152 C15.499963,12.0312213 12.0312213,15.499963 7.74998152,15.499963 C3.46874173,15.499963 0,12.0312213 0,7.74998152 C0,3.46874173 3.46874173,0 7.74998152,0 Z M5.71873637,3.94685949 C5.57185561,3.79997873 5.33436839,3.79997873 5.18748763,3.94685949 L3.95000279,5.18437485 C3.80312204,5.33122508 3.80312204,5.56874283 3.95000279,5.71562358 L5.99998569,7.74998152 L3.95000279,9.78122668 C3.80312204,9.92810743 3.80312204,10.1655947 3.95000279,10.3124754 L5.18437485,11.5499603 C5.33122508,11.696841 5.56874283,11.696841 5.71562358,11.5499603 L7.74998152,9.49997735 L9.78122668,11.5499603 C9.92810743,11.696841 10.1655947,11.696841 10.3124754,11.5499603 L11.5499603,10.3155882 C11.696841,10.168738 11.696841,9.93122022 11.5499603,9.78433947 L9.49997735,7.74998152 L11.5531036,5.71873637 C11.6999843,5.57185561 11.6999843,5.33436839 11.5531036,5.18748763 L10.3155882,3.95000279 C10.168738,3.80312204 9.93122022,3.80312204 9.78433947,3.95000279 L7.74998152,5.99998569 Z"></path></clipPath></defs><g transform="translate(4.0 4.0)"><g clip-path="url(#i0)"><polygon points="0,0 15.499963,0 15.499963,15.499963 0,15.499963 0,0" stroke="none" fill="#696E73"></polygon></g></g></svg>