<?xml version="1.0" encoding="UTF-8"?><svg version="1.1" width="24px" height="24px" viewBox="0 0 24.0 24.0" xmlns="http://www.w3.org/2000/svg" xmlns:xlink="http://www.w3.org/1999/xlink"><defs><clipPath id="i0"><path d="M12.999969,3.99999046 L12.3374645,14.5937152 C12.2888806,15.3698669 11.6182584,15.9999619 10.8406114,15.9999619 L3.15935526,15.9999619 C2.38170819,15.9999619 1.71108601,15.3698669 1.66250214,14.5937152 L0.999997616,3.99999046 L12.999969,3.99999046 Z M8.78434185,0 L8.88264165,0.00844834221 C9.11348125,0.0472225017 9.3562399,0.214866126 9.45621525,0.415617906 L9.74997675,1 L13.4999678,1 C13.7759681,1 13.9999666,1.22399611 13.9999666,1.5 L13.9999666,2.5 C13.9999666,2.77599436 13.7759681,3 13.4999678,3 L0.5,3 C0.223998489,3 0,2.77599436 0,2.5 L0,1.5 C0,1.22399611 0.223998489,1 0.5,1 L4.24998987,1 L4.54375137,0.415617906 C4.65593372,0.1861873 4.95424234,0 5.20964334,0 L8.78434185,0 Z"></path></clipPath></defs><g transform="translate(5.0 4.0)"><g clip-path="url(#i0)"><polygon points="0,0 13.9999666,0 13.9999666,15.9999619 0,15.9999619 0,0" stroke="none" fill="#696E73"></polygon></g></g></svg>