<?xml version="1.0" encoding="UTF-8"?><svg version="1.1" width="24px" height="24px" viewBox="0 0 24.0 24.0" xmlns="http://www.w3.org/2000/svg" xmlns:xlink="http://www.w3.org/1999/xlink"><defs><clipPath id="i0"><path d="M1.87499553,0 C2.08208732,0 2.24999464,0.167907315 2.24999464,0.374999106 L2.24999464,2.81600281 C3.68041115,1.2274751 5.75810395,0.233428399 8.06794341,0.250213026 C12.3462535,0.281279847 15.7694326,3.73842492 15.7603565,8.01682659 C15.7512442,12.2892773 12.2849744,15.7499624 8.0103874,15.7499624 C6.00761507,15.7499624 4.18239359,14.9901681 2.80696963,13.7432534 C2.64760721,13.598814 2.64028301,13.3509508 2.79238226,13.1988821 L3.85384213,12.1374222 C3.99364282,11.997591 4.21828218,11.9899922 4.36635312,12.1210038 C5.33622995,12.9792171 6.61186168,13.4999678 8.0103874,13.4999678 C11.049992,13.4999678 13.5103743,11.0401043 13.5103743,7.99998093 C13.5103743,4.96040687 11.0505108,2.5 8.0103874,2.5 C6.18238882,2.5 4.56413707,3.38985398 3.56432256,4.76039514 L6.63539067,4.76039514 C6.84248247,4.76039514 7.01038978,4.92830246 7.01038978,5.13539425 L7.01038978,6.63539067 C7.01038978,6.84248247 6.84248247,7.01038978 6.63539067,7.01038978 L0.374999106,7.01038978 C0.167907315,7.01038978 0,6.84248247 0,6.63539067 L0,0.374999106 C0,0.167907315 0.167907315,0 0.374999106,0 Z"></path></clipPath></defs><g transform="translate(4.000000000000015 3.999999999999944)"><g clip-path="url(#i0)"><polygon points="0,0 15.7603745,0 15.7603745,15.7499624 0,15.7499624 0,0" stroke="none" fill="#696E73"></polygon></g></g></svg>