<?xml version="1.0" encoding="UTF-8"?><svg version="1.1" width="24px" height="24px" viewBox="0 0 24.0 24.0" xmlns="http://www.w3.org/2000/svg" xmlns:xlink="http://www.w3.org/1999/xlink"><defs><clipPath id="i0"><path d="M4.99998808,10.9976239 L4.99998808,11.2476233 C4.99998808,12.2132582 5.784349,12.9976239 6.74998391,12.9976239 L9.24997795,12.9976239 C10.2156129,12.9976239 10.9999738,12.2132582 10.9999738,11.2476233 L10.9999738,10.9976239 L15.2499636,10.9976239 C15.6655815,10.9976239 15.9999619,11.3320042 15.9999619,11.7476221 L15.9999619,15.2476138 C15.9999619,15.6632317 15.6655815,15.997612 15.2499636,15.997612 L0.749998212,15.997612 C0.334380306,15.997612 0,15.6632317 0,15.2476138 L0,11.7476221 C0,11.3320042 0.334380306,10.9976239 0.749998212,10.9976239 L4.99998808,10.9976239 Z M11.4999726,13.8726171 C11.1562234,13.8726171 10.8749741,14.1538664 10.8749741,14.4976156 C10.8749741,14.8413648 11.1562234,15.1226141 11.4999726,15.1226141 C11.8437218,15.1226141 12.1249711,14.8413648 12.1249711,14.4976156 C12.1249711,14.1538664 11.8437218,13.8726171 11.4999726,13.8726171 Z M13.4999678,13.8726171 C13.1562186,13.8726171 12.8749693,14.1538664 12.8749693,14.4976156 C12.8749693,14.8413648 13.1562186,15.1226141 13.4999678,15.1226141 C13.843717,15.1226141 14.1249663,14.8413648 14.1249663,14.4976156 C14.1249663,14.1538664 13.843717,13.8726171 13.4999678,13.8726171 Z M7.57185084,0.175780831 C7.80622528,-0.0585936103 8.19059327,-0.0585936103 8.42496771,0.175780831 L13.1812125,4.93202559 C13.5749798,5.32576245 13.2968433,5.99763585 12.7406007,5.99763585 L9.99997616,5.99763585 L9.99997616,11.2476233 C9.99997616,11.6632412 9.66559585,11.9976215 9.24997795,11.9976215 L6.74998391,11.9976215 C6.334366,11.9976215 5.99998569,11.6632412 5.99998569,11.2476233 L5.99998569,5.99763585 L3.25936113,5.99763585 C2.70311856,5.99763585 2.42498201,5.32576245 2.81874938,4.93202559 Z"></path></clipPath></defs><g transform="translate(4.0 4.002383226514212)"><g clip-path="url(#i0)"><polygon points="0,0 15.9999619,0 15.9999619,15.997612 0,15.997612 0,0" stroke="none" fill="#696E73"></polygon></g></g></svg>