<?xml version="1.0" encoding="UTF-8"?><svg version="1.1" width="24px" height="24px" viewBox="0 0 24.0 24.0" xmlns="http://www.w3.org/2000/svg" xmlns:xlink="http://www.w3.org/1999/xlink"><defs><clipPath id="i0"><path d="M14.4999654,0 C15.3280885,0 15.9999619,0.671873398 15.9999619,1.5 L15.9999619,11.4999726 C15.9999619,12.3280956 15.3280885,12.999969 14.4999654,12.999969 L12.999969,12.999969 L12.999969,14.4999654 C12.999969,15.3280885 12.3280956,15.9999619 11.4999726,15.9999619 L1.5,15.9999619 C0.671873398,15.9999619 0,15.3280885 0,14.4999654 L0,4.49998927 C0,3.67186625 0.671873398,3 1.5,3 L3,3 L3,1.5 C3,0.671873398 3.67186625,0 4.49998927,0 Z M11.4999726,7.99998093 L1.49999642,7.99998093 L1.49999642,14.4999654 L11.4999726,14.4999654 L11.4999726,7.99998093 Z M14.4999654,1.49999642 L4.49998927,1.49999642 L4.49998927,2.99999642 L11.4999726,2.99999642 C12.3280956,2.99999642 12.999969,3.67186625 12.999969,4.49999642 L12.999969,11.4999726 L14.4999654,11.4999726 L14.4999654,1.49999642 Z"></path></clipPath></defs><g transform="translate(4.0 4.0)"><g clip-path="url(#i0)"><polygon points="0,0 15.9999619,0 15.9999619,15.9999619 0,15.9999619 0,0" stroke="none" fill="#696E73"></polygon></g></g></svg>