<?xml version="1.0" encoding="UTF-8"?><svg version="1.1" width="268px" height="40px" viewBox="0 0 268.0 40.0" xmlns="http://www.w3.org/2000/svg" xmlns:xlink="http://www.w3.org/1999/xlink"><defs><clipPath id="i0"><path d="M260,0 L260,8 L0,8 L0,0 L260,0 Z"></path></clipPath><clipPath id="i1"><path d="M8,0 L8,40 L0,40 L0,0 L8,0 Z"></path></clipPath><clipPath id="i2"><path d="M32,0 L32,40 L0,40 L0,0 L32,0 Z"></path></clipPath><clipPath id="i3"><path d="M24,0 L24,40 L0,40 L0,0 L24,0 Z"></path></clipPath><clipPath id="i4"><path d="M0.694917929,0.165223681 C0.915239059,-0.0550745605 1.27149279,-0.0550745605 1.48945644,0.165223681 L3.74883521,2.42460245 L6.00819109,0.165223681 C6.22851222,-0.0550745605 6.58476595,-0.0550745605 6.8027296,0.165223681 L7.33240668,0.694923651 C7.55272781,0.915221893 7.55272781,1.27147562 7.33240668,1.48943927 L4.14491428,4.67693167 C3.92928522,4.8972528 3.57305438,4.8972528 3.35273325,4.67693167 L0.165240847,1.48943927 C-0.0550802825,1.26914103 -0.0550802825,0.912887304 0.165240847,0.694923651 Z"></path></clipPath><clipPath id="i5"><path d="M17.2488297,5.99998569 C17.8276858,5.99998569 18.1883416,6.62788337 17.8966553,7.12788218 L15.6333856,11.0077252 C15.3138978,11.5554534 14.5400044,11.9999714 13.9059117,11.9999714 L1.4070401,11.9999714 C0.828184061,11.9999714 0.467528182,11.3720737 0.759183981,10.8720749 L3.02242321,6.99223186 C3.3419415,6.44450368 4.11586543,5.99998569 4.74998868,5.99998569 Z M6.4999845,0 L8.49997973,2 L13.4999678,2 C14.328396,2 14.9999642,2.67156345 14.9999642,3.5 L14.9999642,4.99998808 L4.74998868,4.99998808 C3.68715552,4.99998808 2.69417693,5.57029922 2.15865574,6.48835733 L0,10.18891 L0,1.5 C0,0.671568223 0.671568223,0 1.5,0 L6.4999845,0 Z"></path></clipPath></defs><g transform="translate(104.0 8.0)"><text transform="translate(0.0 16.0)" font-family="RedHatText-Regular, Red Hat Text" font-size="16.0" font-weight="normal" fill="#151515" text-anchor="left" line-spacing="24.0">Third level </text></g><g clip-path="url(#i0)"><polygon points="0,0 260,0 260,8 0,8 0,0" stroke="none" fill="rgba(146, 211, 0, 0.9)"></polygon></g><g clip-path="url(#i0)"><polygon points="0,0 260,0 260,8 0,8 0,0 0,0" stroke="#7EB200" stroke-width="2" fill="none" stroke-miterlimit="5"></polygon></g><g transform="translate(0.0 32.0)"><g clip-path="url(#i0)"><polygon points="0,0 260,0 260,8 0,8 0,0" stroke="none" fill="rgba(146, 211, 0, 0.9)"></polygon></g><g clip-path="url(#i0)"><polygon points="0,0 260,0 260,8 0,8 0,0 0,0" stroke="#7EB200" stroke-width="2" fill="none" stroke-miterlimit="5"></polygon></g></g><g transform="translate(260.0 0.0)"><g clip-path="url(#i1)"><polygon points="0,0 8,0 8,40 0,40 0,0" stroke="none" fill="rgba(146, 211, 0, 0.9)"></polygon></g><g clip-path="url(#i1)"><polygon points="0,0 8,0 8,40 0,40 0,0 0,0" stroke="#7EB200" stroke-width="2" fill="none" stroke-miterlimit="5"></polygon></g></g><g clip-path="url(#i2)"><polygon points="0,0 32,0 32,40 0,40 0,0" stroke="none" fill="rgba(0, 136, 206, 0.9)"></polygon></g><g clip-path="url(#i2)"><polygon points="0,0 32,0 32,40 0,40 0,0 0,0" stroke="#0478B0" stroke-width="2" fill="none" stroke-miterlimit="5"></polygon></g><g transform="translate(32.0 0.0)"><g clip-path="url(#i3)"><polygon points="0,0 24,0 24,40 0,40 0,0" stroke="none" fill="rgba(0, 121, 135, 0.9)"></polygon></g><g clip-path="url(#i3)"><polygon points="0,0 24,0 24,40 0,40 0,0 0,0" stroke="#09707A" stroke-width="2" fill="none" stroke-miterlimit="5"></polygon></g></g><g transform="translate(72.0 0.0)"><g clip-path="url(#i1)"><polygon points="0,0 8,0 8,40 0,40 0,0" stroke="none" fill="rgba(146, 211, 0, 0.9)"></polygon></g><g clip-path="url(#i1)"><polygon points="0,0 8,0 8,40 0,40 0,0 0,0" stroke="#7EB200" stroke-width="2" fill="none" stroke-miterlimit="5"></polygon></g></g><g transform="translate(96.0 0.0)"><g clip-path="url(#i1)"><polygon points="0,0 8,0 8,40 0,40 0,0" stroke="none" fill="rgba(146, 211, 0, 0.9)"></polygon></g><g clip-path="url(#i1)"><polygon points="0,0 8,0 8,40 0,40 0,0 0,0" stroke="#7EB200" stroke-width="2" fill="none" stroke-miterlimit="5"></polygon></g></g><g transform="translate(52.0 8.0)"><g transform="translate(8.0 10.0)"><g clip-path="url(#i4)"><polygon points="0,2.77555756e-17 7.49764753,2.77555756e-17 7.49764753,4.84217252 0,4.84217252 0,2.77555756e-17" stroke="none" fill="#151515"></polygon></g></g></g><g transform="translate(75.9921875 8.0)"><g transform="translate(3.0 6.0)"><g clip-path="url(#i5)"><polygon points="0,0 17.9999638,0 17.9999638,11.9999714 0,11.9999714 0,0" stroke="none" fill="#696E73"></polygon></g></g></g></svg>