<?xml version="1.0" encoding="UTF-8"?><svg version="1.1" width="24px" height="24px" viewBox="0 0 24.0 24.0" xmlns="http://www.w3.org/2000/svg" xmlns:xlink="http://www.w3.org/1999/xlink"><defs><clipPath id="i0"><path d="M11.6249723,0 C18.046832,0 23.2499446,5.20311259 23.2499446,11.6249723 C23.2499446,18.046832 18.046832,23.2499446 11.6249723,23.2499446 C5.20311259,23.2499446 0,18.046832 0,11.6249723 C0,5.20311259 5.20311259,0 11.6249723,0 Z M12.4218454,4.67343551 C11.9812031,4.23279325 11.2687414,4.23279325 10.8327684,4.67343551 L4.60779236,10.8937423 C4.16719588,11.3343388 4.16719588,12.0468463 4.60779236,12.4827736 L5.11874695,12.9983974 C5.56872757,13.4437088 6.29528834,13.4343247 6.73121564,12.9796749 L10.1249759,9.4406208 L10.1249759,17.9999571 C10.1249759,18.6233839 10.6265463,19.1249544 11.2499732,19.1249544 L11.9999714,19.1249544 C12.6233982,19.1249544 13.1249687,18.6233839 13.1249687,17.9999571 L13.1249687,9.4406208 L16.5187289,12.9796749 C16.9546562,13.4343247 17.681217,13.4437088 18.1265284,12.9983974 L18.6374373,12.4827736 C19.0780795,12.0421771 19.0780795,11.3296696 18.6374373,10.8937423 Z"></path></clipPath></defs><g clip-path="url(#i0)"><polygon points="0,0 23.2499446,0 23.2499446,23.2499446 0,23.2499446 0,0" stroke="none" fill="#151515"></polygon></g></svg>