<?xml version="1.0" encoding="UTF-8"?><svg version="1.1" width="24px" height="24px" viewBox="0 0 24.0 24.0" xmlns="http://www.w3.org/2000/svg" xmlns:xlink="http://www.w3.org/1999/xlink"><defs><clipPath id="i0"><path d="M11.6249723,0 C18.046832,0 23.2499446,5.20311259 23.2499446,11.6249723 C23.2499446,18.046832 18.046832,23.2499446 11.6249723,23.2499446 C5.20311259,23.2499446 0,18.046832 0,11.6249723 C0,5.20311259 5.20311259,0 11.6249723,0 Z M11.9999714,4.12499017 L11.2499732,4.12499017 C10.6265463,4.12499017 10.1249759,4.62656062 10.1249759,5.24998748 L10.1249759,13.8093238 L6.73121564,10.2702697 C6.29528834,9.81561991 5.56872757,9.80623578 5.12341613,10.2515472 L4.61250731,10.767171 C4.17186505,11.2077675 4.17186505,11.9202749 4.61250731,12.3562022 L10.8280992,18.5765091 C11.2687414,19.0171513 11.9812031,19.0171513 12.4171762,18.5765091 L18.6374373,12.3562022 C19.0780795,11.9156057 19.0780795,11.2030983 18.6374373,10.767171 L18.1265284,10.2515472 C17.681217,9.80623578 16.9546562,9.81561991 16.5187289,10.2702697 L13.1249687,13.8093238 L13.1249687,5.24998748 C13.1249687,4.62656062 12.6233982,4.12499017 11.9999714,4.12499017 Z"></path></clipPath></defs><g clip-path="url(#i0)"><polygon points="0,0 23.2499446,0 23.2499446,23.2499446 0,23.2499446 0,0" stroke="none" fill="#151515"></polygon></g></svg>