<?xml version="1.0" encoding="UTF-8"?><svg version="1.1" width="24px" height="24px" viewBox="0 0 24.0 24.0" xmlns="http://www.w3.org/2000/svg" xmlns:xlink="http://www.w3.org/1999/xlink"><defs><clipPath id="i0"><path d="M13.5,21 L13.5,21.0253125 C13.4939063,21.8578125 13.1970312,22.5603125 12.609375,23.1328125 C12.015625,23.7109376 11.3125,24 10.5,24 C9.68749999,24 8.98437499,23.7109376 8.390625,23.1328125 C7.79687501,22.5546875 7.5,21.84375 7.5,21 L13.5,21 Z M10.5,0 C10.90625,0 11.2578125,0.1484375 11.5546875,0.4453125 C11.8515625,0.742187501 12,1.09375 12,1.5 L12,2.484375 L12.0522656,2.49492188 C13.7786719,2.84507813 15.19875,3.6853125 16.3125,5.015625 C17.4375,6.35937499 18,7.93750001 18,9.75 C18,11.71875 18.28125,13.328125 18.84375,14.578125 C19.1875,15.296875 19.71875,16.03125 20.4375,16.78125 C20.4790705,16.8475579 20.5261092,16.9102761 20.578125,16.96875 C20.859375,17.28125 21,17.6328125 21,18.0234375 C21,18.4140625 20.859375,18.7578125 20.578125,19.0546875 C20.296875,19.3515625 19.9375,19.5 19.5,19.5 L1.48359375,19.5 C1.05359375,19.49625 0.699687499,19.3478125 0.421875,19.0546875 C0.140625,18.7578125 0,18.4140625 0,18.0234375 C0,17.6328125 0.140625,17.28125 0.421875,16.96875 L0.5625,16.78125 L0.58734375,16.7554687 C1.29359375,16.014375 1.8165625,15.2885937 2.15625,14.578125 C2.71875,13.328125 3,11.71875 3,9.75 C3,7.93750001 3.5625,6.35937499 4.6875,5.015625 C5.8125,3.67187501 7.24999999,2.82812501 9,2.484375 L9,1.48382813 C9.00390626,1.08445313 9.15234375,0.73828125 9.4453125,0.4453125 C9.74218751,0.1484375 10.09375,0 10.5,0 Z M10.5,15 C9.67157287,15 9,15.6715729 9,16.5 C9,17.3284271 9.67157287,18 10.5,18 C11.3284271,18 12,17.3284271 12,16.5 C12,15.6715729 11.3284271,15 10.5,15 Z M11.1328125,4.5 L9.8671875,4.5 C9.38825306,4.5 9,4.88825306 9,5.3671875 L9,12.6328125 C9,13.1117469 9.38825306,13.5 9.8671875,13.5 L11.1328125,13.5 C11.6117469,13.5 12,13.1117469 12,12.6328125 L12,5.3671875 C12,4.88825306 11.6117469,4.5 11.1328125,4.5 Z"></path></clipPath></defs><g transform="translate(2.0 0.0)"><g clip-path="url(#i0)"><polygon points="0,0 21,0 21,24 0,24 0,0" stroke="none" fill="#FFFFFF"></polygon></g></g></svg>