<?xml version="1.0" encoding="UTF-8"?>
<svg width="24px" height="24px" viewBox="0 0 24 24" version="1.1" xmlns="http://www.w3.org/2000/svg" xmlns:xlink="http://www.w3.org/1999/xlink">
    <title></title>
    <g id="Icons" stroke="none" stroke-width="1" fill="none" fill-rule="evenodd">
        <g id="Icons/3.-Size-lg/Status/balance-scale" fill="#131313" fill-rule="nonzero">
            <path d="M19.8,21.2 C20.1314941,21.2 20.4,20.9314941 20.4,20.6 L20.4,19.4 C20.4,19.0685059 20.1314941,18.8 19.8,18.8 L13.2,18.8 L13.2,7.746875 C14.0816162,7.36099854 14.7435059,6.56635742 14.9396118,5.6 L19.8,5.6 C20.1314941,5.6 20.4,5.33149414 20.4,5 L20.4,3.8 C20.4,3.46850586 20.1314941,3.2 19.8,3.2 L14.3864868,3.2 C13.8390015,2.47548828 12.9783691,2 12,2 C11.0216309,2 10.1609985,2.47548828 9.61351318,3.2 L4.2,3.2 C3.86850586,3.2 3.6,3.46850586 3.6,3.8 L3.6,5 C3.6,5.33149414 3.86850586,5.6 4.2,5.6 L9.06038818,5.6 C9.25649414,6.56599121 9.91801758,7.36099854 10.8,7.746875 L10.8,18.8 L4.2,18.8 C3.86850586,18.8 3.6,19.0685059 3.6,19.4 L3.6,20.6 C3.6,20.9314941 3.86850586,21.2 4.2,21.2 L19.8,21.2 Z M4.8,17.6 C7.38113082,17.6 9.48654151,16.326506 9.59556511,14.7301251 L9.59927414,14.6 L9.59927414,14.5242139 C9.59927414,14.5082306 9.5990685,14.492722 9.59875468,14.4774936 L9.59722126,14.4324549 L9.59722126,14.4324549 L9.59416401,14.3879307 L9.59416401,14.3879307 L9.58907302,14.3427541 C9.52943372,13.9067812 9.12545094,13.2244977 6.40986328,7.79338379 C5.74801025,6.47000732 3.85275879,6.46737061 3.18973389,7.79338379 C2.08473008,10.0036639 1.36239715,11.4302268 0.890285381,12.3731094 L0.772714795,12.6083041 C0.231049571,13.6939543 0.0688737431,14.0521313 0.0206891495,14.284265 L0.0122593453,14.3306915 C0.0110964337,14.3381952 0.0100472925,14.3455984 0.00910103594,14.3529258 L0.00457102323,14.3961762 C0.00399276094,14.4032986 0.00349561123,14.4103944 0.00306868814,14.4174883 L0.00126278111,14.4602259 C0.000883659986,14.4745956 0.000698357475,14.489155 0.000619785737,14.5041013 L0,14.6 C0,16.2567383 2.14910889,17.6 4.8,17.6 Z M19.2,17.6 C21.8508911,17.6 24,16.2567383 24,14.6 L23.9992741,14.5242139 C23.9992133,14.5082306 23.9990685,14.492722 23.9987547,14.4774936 L23.9972213,14.4324549 L23.9972213,14.4324549 L23.994164,14.3879307 L23.994164,14.3879307 L23.989073,14.3427541 C23.9294337,13.9067812 23.5254509,13.2244977 20.8098633,7.79338379 C20.1480103,6.47000732 18.2527588,6.46737061 17.5897339,7.79338379 C16.4847301,10.0036639 15.7623972,11.4302268 15.2902854,12.3731094 L15.1727148,12.6083041 C14.6310496,13.6939543 14.4688737,14.0521313 14.4206891,14.284265 L14.4122593,14.3306915 C14.4110964,14.3381952 14.4100473,14.3455984 14.409101,14.3529258 L14.404571,14.3961762 C14.4039928,14.4032986 14.4034956,14.4103944 14.4030687,14.4174883 L14.4008286,14.4819474 L14.4008286,14.4819474 L14.4007324,14.6 L14.4007324,14.6 L14.4,14.6 C14.4,16.2567383 16.5491089,17.6 19.2,17.6 Z M7.5,14 L2.1,14 L4.8,8.6 L7.5,14 Z M21.9,14 L16.5,14 L19.2,8.6 L21.9,14 Z" id="balance-scale"></path>
        </g>
    </g>
</svg>