<?xml version="1.0" encoding="UTF-8"?><svg version="1.1" width="24px" height="24px" viewBox="0 0 24.0 24.0" xmlns="http://www.w3.org/2000/svg" xmlns:xlink="http://www.w3.org/1999/xlink"><defs><clipPath id="i0"><path d="M12,0 C12.9783691,0 13.8390015,0.475488281 14.3864868,1.2 L19.8,1.2 C20.1314941,1.2 20.4,1.46850586 20.4,1.8 L20.4,3 C20.4,3.33149414 20.1314941,3.6 19.8,3.6 L14.9396118,3.6 C14.7435059,4.56635742 14.0816162,5.36099854 13.2,5.746875 L13.2,16.8 L19.8,16.8 C20.1314941,16.8 20.4,17.0685059 20.4,17.4 L20.4,18.6 C20.4,18.9314941 20.1314941,19.2 19.8,19.2 L4.2,19.2 C3.86850586,19.2 3.6,18.9314941 3.6,18.6 L3.6,17.4 C3.6,17.0685059 3.86850586,16.8 4.2,16.8 L10.8,16.8 L10.8,5.746875 C9.91801758,5.36099854 9.25649414,4.56599121 9.06038818,3.6 L4.2,3.6 C3.86850586,3.6 3.6,3.33149414 3.6,3 L3.6,1.8 C3.6,1.46850586 3.86850586,1.2 4.2,1.2 L9.61351318,1.2 C10.1609985,0.475488281 11.0216309,0 12,0 Z M3.18973389,5.79338379 C3.85275879,4.46737061 5.74801025,4.47000732 6.40986328,5.79338379 C6.5665318,6.10671728 6.71550637,6.40424476 6.85716474,6.68683081 L7.1308385,7.23233717 C9.02386116,11.0026976 9.46555206,11.8218408 9.56830207,12.2357232 L9.58055148,12.2911003 C9.583976,12.3088534 9.5867792,12.3259859 9.58907302,12.3427541 L9.59416401,12.3879307 L9.59722126,12.4324549 L9.59875468,12.4774936 C9.5990685,12.492722 9.59927414,12.5082306 9.59927414,12.5242139 L9.59927414,12.6 L9.59556511,12.7301251 C9.48654151,14.326506 7.38113082,15.6 4.8,15.6 C2.14910889,15.6 0,14.2567383 0,12.6 L0.000828577403,12.4819474 L0.00126278111,12.4602259 L0.00306868814,12.4174883 C0.00349561123,12.4103944 0.00399276094,12.4032986 0.00457102323,12.3961762 L0.00910103594,12.3529258 C0.0100472925,12.3455984 0.0110964337,12.3381952 0.0122593453,12.3306915 L0.0206891495,12.284265 C0.0688737431,12.0521313 0.231049571,11.6939543 0.772714795,10.6083041 L0.890285381,10.3731094 C1.36239715,9.43022683 2.08473008,8.0036639 3.18973389,5.79338379 Z M17.5897339,5.79338379 C18.2527588,4.46737061 20.1480103,4.47000732 20.8098633,5.79338379 C20.9665318,6.10671728 21.1155064,6.40424476 21.2571647,6.68683081 L21.5308385,7.23233717 C23.4238612,11.0026976 23.8655521,11.8218408 23.9683021,12.2357232 L23.9805515,12.2911003 C23.983976,12.3088534 23.9867792,12.3259859 23.989073,12.3427541 L23.994164,12.3879307 L23.9972213,12.4324549 L23.9987547,12.4774936 C23.9990685,12.492722 23.9992133,12.5082306 23.9992741,12.5242139 L24,12.6 C24,14.2567383 21.8508911,15.6 19.2,15.6 C16.5491089,15.6 14.4,14.2567383 14.4,12.6 L14.4008286,12.4819474 L14.4030687,12.4174883 C14.4034956,12.4103944 14.4039928,12.4032986 14.404571,12.3961762 L14.409101,12.3529258 C14.4100473,12.3455984 14.4110964,12.3381952 14.4122593,12.3306915 L14.4206891,12.284265 C14.4688737,12.0521313 14.6310496,11.6939543 15.1727148,10.6083041 L15.2902854,10.3731094 C15.7623972,9.43022683 16.4847301,8.0036639 17.5897339,5.79338379 Z M4.8,6.6 L2.1,12 L7.5,12 L4.8,6.6 Z M19.2,6.6 L16.5,12 L21.9,12 L19.2,6.6 Z"></path></clipPath></defs><g transform="translate(0.0 2.000000000000023)"><g clip-path="url(#i0)"><polygon points="0,0 24,0 24,19.2 0,19.2 0,0" stroke="none" fill="#131312"></polygon></g></g></svg>