<?xml version="1.0" encoding="UTF-8"?>
<svg width="24px" height="24px" viewBox="0 0 24 24" version="1.1" xmlns="http://www.w3.org/2000/svg" xmlns:xlink="http://www.w3.org/1999/xlink">
    <title></title>
    <g id="Icons" stroke="none" stroke-width="1" fill="none" fill-rule="evenodd">
        <g id="Icons/3.-Size-lg/Status/ban" fill="#131313" fill-rule="nonzero">
            <path d="M11.6249723,23.2499446 C18.0452298,23.2499446 23.2499446,18.0452298 23.2499446,11.6249723 C23.2499446,5.20471476 18.0452756,0 11.6249723,0 C5.20471476,0 0,5.20466899 0,11.6249723 C0,18.0452756 5.20471476,23.2499446 11.6249723,23.2499446 Z M18.6930096,16.5716463 L6.67825251,4.55698071 C9.96906193,2.24344863 14.6576036,2.46006188 17.7237889,5.52615565 C20.7916222,8.59403469 21.0050311,13.2830799 18.6930096,16.5716463 Z M5.52615565,17.7237889 C2.45832239,14.6559099 2.24491347,9.96686466 4.55693494,6.67829829 L16.5716921,18.6929639 C13.2809284,21.0064959 8.59234096,20.7899285 5.52615565,17.7237889 Z" id="ban"></path>
        </g>
    </g>
</svg>