<?xml version="1.0" encoding="UTF-8"?><svg version="1.1" width="24px" height="24px" viewBox="0 0 24.0 24.0" xmlns="http://www.w3.org/2000/svg" xmlns:xlink="http://www.w3.org/1999/xlink"><defs><clipPath id="i0"><path d="M11.6249723,0 C18.0452756,0 23.2499446,5.20471476 23.2499446,11.6249723 C23.2499446,18.0452298 18.0452298,23.2499446 11.6249723,23.2499446 C5.20471476,23.2499446 0,18.0452756 0,11.6249723 C0,5.20466899 5.20471476,0 11.6249723,0 Z M4.55693494,6.67829829 C2.24491347,9.96686466 2.45832239,14.6559099 5.52615565,17.7237889 C8.59234096,20.7899285 13.2809284,21.0064959 16.5716921,18.6929639 Z M17.7237889,5.52615565 C14.6576036,2.46006188 9.96906193,2.24344863 6.67825251,4.55698071 L18.6930096,16.5716463 C21.0050311,13.2830799 20.7916222,8.59403469 17.7237889,5.52615565 Z"></path></clipPath></defs><g clip-path="url(#i0)"><polygon points="0,0 23.2499446,0 23.2499446,23.2499446 0,23.2499446 0,0" stroke="none" fill="#131312"></polygon></g></svg>