<?xml version="1.0" encoding="UTF-8"?>
<svg width="24px" height="24px" viewBox="0 0 24 24" version="1.1" xmlns="http://www.w3.org/2000/svg" xmlns:xlink="http://www.w3.org/1999/xlink">
    <title></title>
    <g id="Icons" stroke="none" stroke-width="1" fill="none" fill-rule="evenodd">
        <g id="Icons/3.-Size-lg/Status/bug" fill="#151515">
            <path d="M17.2968199,5.24998748 C17.2968199,2.35047352 14.9463463,0 12.0468324,0 C9.14731842,0 6.7968449,2.35047352 6.7968449,5.24998748 L17.2968199,5.24998748 Z M22.0606177,23.560628 C22.6463707,22.9748293 22.6463707,22.0251092 22.0606177,21.4393105 L19.2374585,18.6161055 C19.6461032,17.746082 19.8749387,16.7748471 19.8749387,15.7499624 L19.8749387,14.9999549 L22.4687588,14.9999549 C23.2860939,14.9999549 23.9769492,14.3591882 23.9993796,13.5421735 C24.0226339,12.6944888 23.3423529,11.9999714 22.4999325,11.9999714 L19.8749387,11.9999714 L19.8749387,9.24630059 L22.0605719,7.06066737 C22.6463249,6.4748686 22.6463249,5.52514857 22.0605719,4.9393498 C21.4747274,4.35355102 20.5250531,4.35355102 19.9392086,4.9393498 L17.3785763,7.49998212 L6.62129295,7.49998212 L4.06066063,4.93930402 C3.47481608,4.35350525 2.52514183,4.35350525 1.93929728,4.93930402 C1.35354428,5.52510279 1.35354428,6.47482282 1.93929728,7.06062159 L4.12497627,9.24630059 L4.12497627,11.9999714 L1.49998253,11.9999714 C0.65756205,11.9999714 -0.0227189205,12.6944888 0.000581194875,13.5421735 C0.0230115613,14.3591882 0.713912624,14.9999549 1.53120194,14.9999549 L4.12497627,14.9999549 L4.12497627,15.7499624 C4.12497627,16.7748471 4.35381178,17.746082 4.76245644,18.6161055 L1.93929728,21.4393105 C1.35354428,22.0251092 1.35354428,22.9748293 1.93929728,23.560628 C2.52509605,24.146381 3.47481608,24.1464268 4.06066063,23.560628 L6.62641989,20.9948688 C7.78657337,21.9357998 9.2647803,22.4999549 10.8749602,22.4999549 L10.8749602,11.0624736 C10.8749602,10.7518359 11.1268211,10.499975 11.4374588,10.499975 L12.5624562,10.499975 C12.8730938,10.499975 13.1249548,10.7518359 13.1249548,11.0624736 L13.1249548,22.4999549 C14.7351347,22.4999549 16.2133416,21.9357998 17.3734951,20.9948688 L19.9392544,23.560628 C20.5250531,24.146381 21.4747732,24.1464268 22.0606177,23.560628 Z" id="bug"></path>
        </g>
    </g>
</svg>