<?xml version="1.0" encoding="UTF-8"?><svg version="1.1" width="24px" height="24px" viewBox="0 0 24.0 24.0" xmlns="http://www.w3.org/2000/svg" xmlns:xlink="http://www.w3.org/1999/xlink"><defs><clipPath id="i0"><path d="M1.93929728,4.93930402 C2.52514183,4.35350525 3.47481608,4.35350525 4.06066063,4.93930402 L6.62129295,7.49998212 L17.3785763,7.49998212 L19.9392086,4.9393498 C20.5250531,4.35355102 21.4747274,4.35355102 22.0605719,4.9393498 C22.6463249,5.52514857 22.6463249,6.4748686 22.0605719,7.06066737 L19.8749387,9.24630059 L19.8749387,11.9999714 L22.4999325,11.9999714 C23.3423529,11.9999714 24.0226339,12.6944888 23.9993796,13.5421735 C23.9769492,14.3591882 23.2860939,14.9999549 22.4687588,14.9999549 L19.8749387,14.9999549 L19.8749387,15.7499624 C19.8749387,16.7748471 19.6461032,17.746082 19.2374585,18.6161055 L22.0606177,21.4393105 C22.6463707,22.0251092 22.6463707,22.9748293 22.0606177,23.560628 C21.4747732,24.1464268 20.5250531,24.146381 19.9392544,23.560628 L17.3734951,20.9948688 C16.2133416,21.9357998 14.7351347,22.4999549 13.1249548,22.4999549 L13.1249548,11.0624736 C13.1249548,10.7518359 12.8730938,10.499975 12.5624562,10.499975 L11.4374588,10.499975 C11.1268211,10.499975 10.8749602,10.7518359 10.8749602,11.0624736 L10.8749602,22.4999549 C9.2647803,22.4999549 7.78657337,21.9357998 6.62641989,20.9948688 L4.06066063,23.560628 C3.47481608,24.1464268 2.52509605,24.146381 1.93929728,23.560628 C1.35354428,22.9748293 1.35354428,22.0251092 1.93929728,21.4393105 L4.76245644,18.6161055 C4.35381178,17.746082 4.12497627,16.7748471 4.12497627,15.7499624 L4.12497627,14.9999549 L1.53120194,14.9999549 C0.713912624,14.9999549 0.0230115613,14.3591882 0.000581194875,13.5421735 C-0.0227189205,12.6944888 0.65756205,11.9999714 1.49998253,11.9999714 L4.12497627,11.9999714 L4.12497627,9.24630059 L1.93929728,7.06062159 C1.35354428,6.47482282 1.35354428,5.52510279 1.93929728,4.93930402 Z M12.0468324,0 C14.9463463,0 17.2968199,2.35047352 17.2968199,5.24998748 L6.7968449,5.24998748 C6.7968449,2.35047352 9.14731842,0 12.0468324,0 Z"></path></clipPath></defs><g transform=""><g clip-path="url(#i0)"><polygon points="-4.13002965e-14,0 23.9999585,0 23.9999585,23.9999599 -4.13002965e-14,23.9999599 -4.13002965e-14,0" stroke="none" fill="#151515"></polygon></g></g></svg>