<?xml version="1.0" encoding="UTF-8"?><svg version="1.1" width="24px" height="24px" viewBox="0 0 24.0 24.0" xmlns="http://www.w3.org/2000/svg" xmlns:xlink="http://www.w3.org/1999/xlink"><defs><clipPath id="i0"><path d="M11.6249723,0 C18.0452756,0 23.2499446,5.20466899 23.2499446,11.6249723 C23.2499446,18.0452756 18.0452756,23.2499446 11.6249723,23.2499446 C5.20466899,23.2499446 0,18.0452756 0,11.6249723 C0,5.20466899 5.20466899,0 11.6249723,0 Z M17.8446382,7.03402559 C17.5518075,6.74110331 17.0768788,6.74110331 16.7839566,7.03402559 L9.74997675,14.0680054 L6.465988,10.7839709 C6.1731115,10.4910944 5.69818283,10.4910944 5.40530633,10.7839709 L4.34462465,11.8446068 C4.05179393,12.1374833 4.05179393,12.6124119 4.34462465,12.9052884 L9.21961303,17.7802768 C9.5125353,18.0731533 9.9874182,18.0731533 10.2803405,17.7803226 L18.9053199,9.15534316 C19.1981506,8.86246666 19.1981506,8.38753799 18.9053199,8.09466149 Z"></path></clipPath></defs><g clip-path="url(#i0)"><polygon points="0,0 23.2499446,0 23.2499446,23.2499446 0,23.2499446 0,0" stroke="none" fill="#3E8634"></polygon></g></svg>