<?xml version="1.0" encoding="UTF-8"?>
<svg width="22px" height="24px" viewBox="0 0 22 24" version="1.1" xmlns="http://www.w3.org/2000/svg" xmlns:xlink="http://www.w3.org/1999/xlink">
    <title></title>
    <g id="Icons" stroke="none" stroke-width="1" fill="none" fill-rule="evenodd">
        <g id="Icons/3.-Size-lg/Status/critical-risk" fill="#000000" fill-rule="nonzero">
            <path d="M21.1756504,5.91207774 L11.6662552,0.186736594 C11.2524952,-0.0623197924 10.7356635,-0.0622494178 10.3221373,0.186971177 L0.819054059,5.91200738 C0.425936529,6.14891238 0.185381143,6.57538362 0.185381143,7.03551746 L0.185381143,22.6868241 C0.160624276,23.6908613 1.34727067,24.3492174 2.182248,23.7988631 C2.18222462,23.79891 10.3033418,18.717897 10.3033418,18.717897 C10.7261021,18.4534755 11.2620566,18.4533347 11.6849806,18.7177563 L19.8131344,23.7998719 C20.6480416,24.3523608 21.8341035,23.6891255 21.8096272,22.6875748 C21.8096506,22.6876217 21.8096506,7.03575204 21.8096506,7.03575204 C21.8096506,6.57545398 21.5689315,6.14891238 21.1756504,5.91207774" id="Fill-1"></path>
        </g>
    </g>
</svg>