<?xml version="1.0" encoding="UTF-8"?><svg version="1.1" width="22px" height="24px" viewBox="0 0 22.0 24.0" xmlns="http://www.w3.org/2000/svg" xmlns:xlink="http://www.w3.org/1999/xlink"><defs><clipPath id="i0"><path d="M10.1371373,0.186971177 C10.5506635,-0.0622494178 11.0674952,-0.0623197924 11.4812552,0.186736594 L20.9906504,5.91207774 C21.3839315,6.14891238 21.6246506,6.57545398 21.6246506,7.03575204 L21.6246272,22.6875748 C21.6491035,23.6891255 20.4630416,24.3523608 19.6281344,23.7998719 L11.4999806,18.7177563 C11.0770566,18.4533347 10.5411021,18.4534755 10.1183418,18.717897 C10.1183418,18.717897 8.33897521,19.8311656 6.44603448,21.0154891 L5.66953781,21.5013061 C3.77659778,22.6856282 1.99723706,23.7988851 1.997248,23.7988631 C1.16227067,24.3492174 -0.0243757238,23.6908613 0.000381142517,22.6868241 L0.000381142517,7.03551746 C0.000381142517,6.57538362 0.240936529,6.14891238 0.634054059,5.91200738 Z"></path></clipPath></defs><g transform="translate(0.18499999999994365 0.0)"><g clip-path="url(#i0)"><polygon points="1.08420217e-19,-2.77555756e-17 21.625,-2.77555756e-17 21.625,24 1.08420217e-19,24 1.08420217e-19,-2.77555756e-17" stroke="none" fill="#000000"></polygon></g></g></svg>