<?xml version="1.0" encoding="UTF-8"?><svg version="1.1" width="24px" height="24px" viewBox="0 0 24.0 24.0" xmlns="http://www.w3.org/2000/svg" xmlns:xlink="http://www.w3.org/1999/xlink"><defs><clipPath id="i0"><path d="M11.6249723,0 C18.0448178,0 23.2499446,5.20700358 23.2499446,11.6249723 C23.2499446,18.0466946 18.0448178,23.2499446 11.6249723,23.2499446 C5.20512675,23.2499446 0,18.0466946 0,11.6249723 C0,5.20700358 5.20512675,0 11.6249723,0 Z M11.6249723,13.9687167 C10.4341029,13.9687167 9.46872742,14.9340922 9.46872742,16.1249616 C9.46872742,17.3158309 10.4341029,18.2812064 11.6249723,18.2812064 C12.8158416,18.2812064 13.7812171,17.3158309 13.7812171,16.1249616 C13.7812171,14.9340922 12.8158416,13.9687167 11.6249723,13.9687167 Z M13.1105034,5.62498659 L10.1393954,5.62498659 C9.81671854,5.62498659 9.56023416,5.89593626 9.57781225,6.21815534 L9.9255287,12.5931401 C9.94177928,12.8914182 10.1884218,13.1249687 10.4871576,13.1249687 L12.762787,13.1249687 C13.0615228,13.1249687 13.3081653,12.8914182 13.3244159,12.5931401 L13.6721323,6.21815534 C13.6897104,5.89593626 13.4331803,5.62498659 13.1105034,5.62498659 Z"></path></clipPath></defs><g clip-path="url(#i0)"><polygon points="0,0 23.2499446,0 23.2499446,23.2499446 0,23.2499446 0,0" stroke="none" fill="#C9190A"></polygon></g></svg>