<?xml version="1.0" encoding="UTF-8"?><svg version="1.1" width="24px" height="24px" viewBox="0 0 24.0 24.0" xmlns="http://www.w3.org/2000/svg" xmlns:xlink="http://www.w3.org/1999/xlink"><defs><clipPath id="i0"><path d="M11.5510711,1.12431091 C12.4167002,-0.376143276 14.5848011,-0.373396701 15.4489195,1.12431091 L26.6960546,20.6255462 C27.5612716,22.1252679 26.4752299,23.999943 24.7471762,23.999943 L2.25253985,23.999943 C0.521144441,23.999943 -0.559907669,22.122384 0.303615663,20.6255462 Z M13.4999953,16.5937107 C12.309126,16.5937107 11.3437505,17.5590862 11.3437505,18.7499555 C11.3437505,19.9408249 12.309126,20.9062004 13.4999953,20.9062004 C14.6908647,20.9062004 15.6562402,19.9408249 15.6562402,18.7499555 C15.6562402,17.5590862 14.6908647,16.5937107 13.4999953,16.5937107 Z M14.9855265,8.24998057 L12.0144184,8.24998057 C11.6917416,8.24998057 11.4352572,8.52093024 11.4528353,8.84314932 L11.8005518,15.2181341 C11.8168023,15.5164122 12.0634448,15.7499627 12.3621807,15.7499627 L14.63781,15.7499627 C14.9365459,15.7499627 15.1831883,15.5164122 15.1994389,15.2181341 L15.5471554,8.84314932 C15.5647335,8.52093024 15.3082033,8.24998057 14.9855265,8.24998057 Z"></path></clipPath></defs><g transform="translate(-1.0 0.0)"><g clip-path="url(#i0)"><polygon points="5.50115509e-14,-8.8817842e-15 26.9999398,-8.8817842e-15 26.9999398,23.999943 5.50115509e-14,23.999943 5.50115509e-14,-8.8817842e-15" stroke="none" fill="#F0AB00"></polygon></g></g></svg>