<?xml version="1.0" encoding="UTF-8"?>
<svg width="24px" height="24px" viewBox="0 0 24 24" version="1.1" xmlns="http://www.w3.org/2000/svg" xmlns:xlink="http://www.w3.org/1999/xlink">
    <title></title>
    <g id="Icons" stroke="none" stroke-width="1" fill="none" fill-rule="evenodd">
        <g id="Icons/3.-Size-lg/Status/exclamation-circle" fill="#C9190B">
            <path d="M11.6249723,23.2499446 C18.0448178,23.2499446 23.2499446,18.0466946 23.2499446,11.6249723 C23.2499446,5.20700358 18.0448178,0 11.6249723,0 C5.20512675,0 0,5.20700358 0,11.6249723 C0,18.0466946 5.20512675,23.2499446 11.6249723,23.2499446 Z M12.762787,13.1249687 L10.4871576,13.1249687 C10.1884218,13.1249687 9.94177928,12.8914182 9.9255287,12.5931401 L9.57781225,6.21815534 C9.56023416,5.89593626 9.81671854,5.62498659 10.1393954,5.62498659 L13.1105034,5.62498659 C13.4331803,5.62498659 13.6897104,5.89593626 13.6721323,6.21815534 L13.3244159,12.5931401 C13.3081653,12.8914182 13.0615228,13.1249687 12.762787,13.1249687 Z M11.6249723,18.2812064 C10.4341029,18.2812064 9.46872742,17.3158309 9.46872742,16.1249616 C9.46872742,14.9340922 10.4341029,13.9687167 11.6249723,13.9687167 C12.8158416,13.9687167 13.7812171,14.9340922 13.7812171,16.1249616 C13.7812171,17.3158309 12.8158416,18.2812064 11.6249723,18.2812064 Z" id="exclamation-circle"></path>
        </g>
    </g>
</svg>