<?xml version="1.0" encoding="UTF-8"?><svg version="1.1" width="24px" height="24px" viewBox="0 0 24.0 24.0" xmlns="http://www.w3.org/2000/svg" xmlns:xlink="http://www.w3.org/1999/xlink"><defs><clipPath id="i0"><path d="M11.6249723,0 C18.0379056,0 23.2380885,5.19281294 23.2499647,11.6029997 C23.2618006,18.0079679 18.0384091,23.2454127 11.6333951,23.2499018 C8.86709007,23.2518672 6.32609576,22.2875445 4.3292896,20.6759456 C3.81004951,20.2569097 3.77123124,19.4787133 4.24304713,19.0068974 L4.7712136,18.478731 C5.17473131,18.0752133 5.81898637,18.0310392 6.26608308,18.3857594 C7.73724046,19.5531455 9.59909821,20.2499517 11.6249723,20.2499517 C16.3923865,20.2499517 20.2499517,16.391654 20.2499517,11.6249723 C20.2499517,6.85755811 16.391654,3 11.6249723,3 C9.33680025,3 7.25860391,3.88915088 5.71553203,5.34053292 L8.09461571,7.7196166 C8.56711825,8.19211914 8.2324938,8.99997854 7.56434354,8.99997854 L0.749998212,8.99997854 C0.335768853,8.99997854 0,8.66420969 0,8.24998033 L0,1.435635 C0,0.767484742 0.807859402,0.432860296 1.28036194,0.905317055 L3.59462644,3.21958156 C5.6816576,1.22510999 8.51021836,0 11.6249723,0 Z M11.9999714,5.62498659 C12.6212925,5.62498659 13.1249759,6.12866276 13.1249759,6.74998391 L13.1249759,11.6413144 L15.0328316,13.1252434 C15.5232784,13.5066511 15.6116266,14.2134823 15.230173,14.7039292 L14.7697097,15.2959993 C14.3882561,15.7864461 13.6814707,15.8747485 13.1910238,15.4933407 L10.1249759,13.1086266 L10.1249759,6.74998391 C10.1249759,6.12866276 10.628652,5.62498659 11.2499732,5.62498659 Z"></path></clipPath></defs><g clip-path="url(#i0)"><polygon points="0,0 23.2499848,0 23.2499848,23.2499048 0,23.2499048 0,0" stroke="none" fill="#151515"></polygon></g></svg>