<?xml version="1.0" encoding="UTF-8"?><svg version="1.1" width="24px" height="24px" viewBox="0 0 24.0 24.0" xmlns="http://www.w3.org/2000/svg" xmlns:xlink="http://www.w3.org/1999/xlink"><defs><clipPath id="i0"><path d="M11.6249723,0 C18.0448178,0 23.2499446,5.20700358 23.2499446,11.6249723 C23.2499446,18.0466946 18.0448178,23.2499446 11.6249723,23.2499446 C5.20512675,23.2499446 0,18.0466946 0,11.6249723 C0,5.20700358 5.20512675,0 11.6249723,0 Z M12.56247,10.1249759 L9.5624772,10.1249759 C9.25183951,10.1249759 8.99997854,10.3768368 8.99997854,10.6874745 L8.99997854,11.8124718 C8.99997854,12.1231095 9.25183951,12.3749705 9.5624772,12.3749705 L10.1249759,12.3749705 L10.1249759,15.3749633 L9.5624772,15.3749633 C9.25183951,15.3749633 8.99997854,15.6268243 8.99997854,15.937462 L8.99997854,17.0624593 C8.99997854,17.373097 9.25183951,17.624958 9.5624772,17.624958 L13.6874674,17.624958 C13.9981051,17.624958 14.249966,17.373097 14.249966,17.0624593 L14.249966,15.937462 C14.249966,15.6268243 13.9981051,15.3749633 13.6874674,15.3749633 L13.1249687,15.3749633 L13.1249687,10.6874745 C13.1249687,10.3768368 12.8731077,10.1249759 12.56247,10.1249759 Z M11.6249723,5.15623771 C10.5376488,5.15623771 9.65622698,6.03765956 9.65622698,7.12498301 C9.65622698,8.21230647 10.5376488,9.09372832 11.6249723,9.09372832 C12.7122957,9.09372832 13.5937176,8.21230647 13.5937176,7.12498301 C13.5937176,6.03765956 12.7122957,5.15623771 11.6249723,5.15623771 Z"></path></clipPath></defs><g clip-path="url(#i0)"><polygon points="0,0 23.2499446,0 23.2499446,23.2499446 0,23.2499446 0,0" stroke="none" fill="#2B9AF3"></polygon></g></svg>