<?xml version="1.0" encoding="UTF-8"?>
<svg width="24px" height="24px" viewBox="0 0 24 24" version="1.1" xmlns="http://www.w3.org/2000/svg" xmlns:xlink="http://www.w3.org/1999/xlink">
    <title></title>
    <g id="Icons" stroke="none" stroke-width="1" fill="none" fill-rule="evenodd">
        <g id="Icons/3.-Size-lg/Status/lock-open" fill="#151515">
            <path d="M16.6666667,22.3333743 C17.7708333,22.3333743 18.6666667,21.437541 18.6666667,20.3333743 L18.6666667,12.3333743 C18.6666667,11.2292076 17.7708333,10.3333743 16.6666667,10.3333743 L14.6666667,10.3333743 L14.6666667,7.37089058 C14.6666667,5.72086616 15.9875081,4.35005724 17.6374919,4.3333743 C19.3041585,4.31669136 20.6666667,5.67085803 20.6666667,7.3333743 L20.6666667,10.6667076 C20.6666667,11.2208662 21.1125081,11.6667076 21.6666667,11.6667076 L23,11.6667076 C23.5541585,11.6667076 24,11.2208662 24,10.6667076 L24,7.3333743 C24,3.8333743 21.1458333,0.987549106 17.6458333,1 C14.1458333,1.01253283 11.3333333,3.8958743 11.3333333,7.3958743 L11.3333333,10.3333743 L2,10.3333743 C0.895833333,10.3333743 0,11.2292076 0,12.3333743 L0,20.3333743 C0,21.437541 0.895833333,22.3333743 2,22.3333743 L16.6666667,22.3333743 Z" id="lock-open"></path>
        </g>
    </g>
</svg>