<?xml version="1.0" encoding="UTF-8"?><svg version="1.1" width="24px" height="24px" viewBox="0 0 24.0 24.0" xmlns="http://www.w3.org/2000/svg" xmlns:xlink="http://www.w3.org/1999/xlink"><defs><clipPath id="i0"><path d="M10.499975,0 C14.4280814,0 17.624958,3.19687653 17.624958,7.12498301 L17.624958,10.499975 L18.7499553,10.499975 C19.9921398,10.499975 20.9999499,11.5077851 20.9999499,12.7499696 L20.9999499,21.7499481 C20.9999499,22.9921327 19.9921398,23.9999428 18.7499553,23.9999428 L2.24999464,23.9999428 C1.0078101,23.9999428 0,22.9921327 0,21.7499481 L0,12.7499696 C0,11.5077851 1.0078101,10.499975 2.24999464,10.499975 L3.37499195,10.499975 L3.37499195,7.12498301 C3.37499195,3.19687653 6.57186849,0 10.499975,0 Z M10.499975,3.74999106 C8.63903275,3.74999106 7.12498301,5.26404079 7.12498301,7.12498301 L7.12498301,10.499975 L13.8749669,10.499975 L13.8749669,7.12498301 C13.8749669,5.26404079 12.3609172,3.74999106 10.499975,3.74999106 Z"></path></clipPath></defs><g transform="translate(2.0 0.0)"><g clip-path="url(#i0)"><polygon points="0,0 20.9999499,0 20.9999499,23.9999428 0,23.9999428 0,0" stroke="none" fill="#151515"></polygon></g></g></svg>