<?xml version="1.0" encoding="UTF-8"?><svg version="1.1" width="24px" height="24px" viewBox="0 0 24.0 24.0" xmlns="http://www.w3.org/2000/svg" xmlns:xlink="http://www.w3.org/1999/xlink"><defs><clipPath id="i0"><path d="M17.6458333,0 C21.1458333,-0.0124508935 24,2.8333743 24,6.3333743 L24,9.66670764 C24,10.2208662 23.5541585,10.6667076 23,10.6667076 L21.6666667,10.6667076 C21.1125081,10.6667076 20.6666667,10.2208662 20.6666667,9.66670764 L20.6666667,6.3333743 C20.6666667,4.67085803 19.3041585,3.31669136 17.6374919,3.3333743 C15.9875081,3.35005724 14.6666667,4.72086616 14.6666667,6.37089058 L14.6666667,9.3333743 L16.6666667,9.3333743 C17.7708333,9.3333743 18.6666667,10.2292076 18.6666667,11.3333743 L18.6666667,19.3333743 C18.6666667,20.437541 17.7708333,21.3333743 16.6666667,21.3333743 L2,21.3333743 C0.895833333,21.3333743 0,20.437541 0,19.3333743 L0,11.3333743 C0,10.2292076 0.895833333,9.3333743 2,9.3333743 L11.3333333,9.3333743 L11.3333333,6.3958743 C11.3333333,2.8958743 14.1458333,0.0125328304 17.6458333,0 Z"></path></clipPath></defs><g transform="translate(0.0 1.0)"><g clip-path="url(#i0)"><polygon points="0,-4.0700665e-05 24,-4.0700665e-05 24,21.3333743 0,21.3333743 0,-4.0700665e-05" stroke="none" fill="#151515"></polygon></g></g></svg>