<?xml version="1.0" encoding="UTF-8"?><svg version="1.1" width="24px" height="24px" viewBox="0 0 24.0 24.0" xmlns="http://www.w3.org/2000/svg" xmlns:xlink="http://www.w3.org/1999/xlink"><defs><clipPath id="i0"><path d="M11.6249723,0 C18.046832,0 23.2499446,5.20311259 23.2499446,11.6249723 C23.2499446,18.046832 18.046832,23.2499446 11.6249723,23.2499446 C5.20311259,23.2499446 0,18.046832 0,11.6249723 C0,5.20311259 5.20311259,0 11.6249723,0 Z M10.124983,7.12498301 L7.87498122,7.12498301 C7.46249136,7.12498301 7.12498301,7.46249136 7.12498301,7.87498122 L7.12498301,15.3749633 C7.12498301,15.7874532 7.46249136,16.1249616 7.87498122,16.1249616 L10.124983,16.1249616 C10.5374657,16.1249616 10.8749741,15.7874532 10.8749741,15.3749633 L10.8749741,7.87498122 C10.8749741,7.46249136 10.5374657,7.12498301 10.124983,7.12498301 Z M15.3749705,7.12498301 L13.1249687,7.12498301 C12.7124788,7.12498301 12.3749705,7.46249136 12.3749705,7.87498122 L12.3749705,15.3749633 C12.3749705,15.7874532 12.7124788,16.1249616 13.1249687,16.1249616 L15.3749705,16.1249616 C15.7874532,16.1249616 16.1249616,15.7874532 16.1249616,15.3749633 L16.1249616,7.87498122 C16.1249616,7.46249136 15.7874532,7.12498301 15.3749705,7.12498301 Z"></path></clipPath></defs><g clip-path="url(#i0)"><polygon points="0,0 23.2499446,0 23.2499446,23.2499446 0,23.2499446 0,0" stroke="none" fill="#151515"></polygon></g></svg>