<?xml version="1.0" encoding="UTF-8"?><svg version="1.1" width="24px" height="24px" viewBox="0 0 24.0 24.0" xmlns="http://www.w3.org/2000/svg" xmlns:xlink="http://www.w3.org/1999/xlink"><defs><clipPath id="i0"><path d="M22.5,9 C23.3281058,9.00077527 23.9992247,9.6718942 24,10.5 L24,22.5 C23.9992247,23.3281058 23.3281058,23.9992247 22.5,24 L10.5,24 C9.6718942,23.9992247 9.00077527,23.3281058 8.9999779,22.5 L8.9999779,13.7085937 C8.99916736,13.6321254 9.04485766,13.562814 9.11546323,13.533438 C9.18606881,13.5040619 9.26743948,13.5205086 9.32109375,13.575 L10.4460937,14.7 C10.4809167,14.7357193 10.5002812,14.7837096 10.5,14.8335937 L10.5,22.5 L22.5,22.5 L22.5,10.5 L14.8335937,10.5 C14.7836264,10.5007218 14.7354734,10.4812917 14.7,10.4460937 L13.575,9.32109375 C13.5217192,9.26702116 13.5060345,9.18628245 13.5351952,9.11619438 C13.564356,9.0461063 13.6326821,9.00032098 13.7085937,9 Z M4.19446179,4.19914929 C4.77389316,3.6197179 5.7124819,3.61695666 6.2953125,4.19296875 L16.4554687,14.3484375 L18.61875,12.178125 C18.9445312,11.8523437 19.5,12.0820312 19.5,12.5414062 L19.5,18.7359375 C19.5,19.157864 19.157864,19.5 18.7359375,19.5 L12.54375,19.5 C12.084375,19.5 11.8546875,18.9421875 12.1804687,18.61875 L14.3460937,16.4601562 L4.18828125,6.3 C3.61226916,5.7171694 3.6150304,4.77858066 4.19446179,4.19914929 Z M1.3125,10.5 C1.41605339,10.5 1.5,10.5839466 1.5,10.6875 L1.5,12 L2.8125,12 C2.91605339,12 3,12.0839466 3,12.1875 L3,13.3125 C3,13.4160534 2.91605339,13.5 2.8125,13.5 L1.5,13.5 C0.67189421,13.4992247 0.00077525948,12.8281058 0,12 L0,10.6875 C0,10.5839466 0.0839466094,10.5 0.1875,10.5 Z M7.3125,12 C7.41605339,12 7.5,12.0839466 7.5,12.1875 L7.5,13.3125 C7.5,13.4160534 7.41605339,13.5 7.3125,13.5 L4.6875,13.5 C4.58394661,13.5 4.5,13.4160534 4.5,13.3125 L4.5,12.1875 C4.5,12.0839466 4.58394661,12 4.6875,12 L7.3125,12 Z M1.3125,4.5 C1.41605339,4.5 1.5,4.58394661 1.5,4.6875 L1.5,8.8125 C1.5,8.91605339 1.41605339,9 1.3125,9 L0.1875,9 C0.0839466094,9 0,8.91605339 0,8.8125 L0,4.6875 C0,4.58394661 0.0839466094,4.5 0.1875,4.5 Z M13.3125,4.5 C13.4160534,4.5 13.5,4.58394661 13.5,4.6875 L13.5,7.3125 C13.5,7.41605339 13.4160534,7.5 13.3125,7.5 L12.1875,7.5 C12.0839466,7.5 12,7.41605339 12,7.3125 L12,4.6875 C12,4.58394661 12.0839466,4.5 12.1875,4.5 Z M12,0 C12.8281058,0.00077525948 13.4992247,0.67189421 13.5,1.5 L13.5,2.8125 C13.5,2.91605339 13.4160534,3 13.3125,3 L12.1875,3 C12.0839466,3 12,2.91605339 12,2.8125 L12,1.5 L10.6875,1.5 C10.5839466,1.5 10.5,1.41605339 10.5,1.3125 L10.5,0.1875 C10.5,0.0839466094 10.5839466,0 10.6875,0 Z M2.8125,0 C2.91605339,0 3,0.0839466094 3,0.1875 L3,1.3125 C3,1.41605339 2.91605339,1.5 2.8125,1.5 L1.5,1.5 L1.5,2.8125 C1.5,2.91605339 1.41605339,3 1.3125,3 L0.1875,3 C0.0839466094,3 0,2.91605339 0,2.8125 L0,1.5 C0.00077525948,0.67189421 0.67189421,0.00077525948 1.5,0 Z M8.8125,0 C8.91605339,0 9,0.0839466094 9,0.1875 L9,1.3125 C9,1.41605339 8.91605339,1.5 8.8125,1.5 L4.6875,1.5 C4.58394661,1.5 4.5,1.41605339 4.5,1.3125 L4.5,0.1875 C4.5,0.0839466094 4.58394661,0 4.6875,0 Z"></path></clipPath></defs><g clip-path="url(#i0)"><polygon points="0,0 24,0 24,24 0,24 0,0" stroke="none" fill="#151515"></polygon></g></svg>