<?xml version="1.0" encoding="UTF-8"?><svg version="1.1" width="24px" height="24px" viewBox="0 0 24.0 24.0" xmlns="http://www.w3.org/2000/svg" xmlns:xlink="http://www.w3.org/1999/xlink"><defs><clipPath id="i0"><path d="M12.6510396,0.186342506 C12.7910091,0.27356878 12.9102011,0.390360896 13.0002559,0.528527606 L14.6479006,3.78631725 L18.47053,1.76578455 C19.0822445,1.53375493 19.7689584,1.83375283 20.0033318,2.42906115 C20.064957,2.5821711 20.0913892,2.74717195 20.080675,2.91187026 L19.5111477,6.60371937 L23.1181537,7.3124644 C23.7486179,7.47886949 24.1283028,8.11636502 23.9572102,8.73300132 C23.9122897,8.89125424 23.8357483,9.03875603 23.7322118,9.16659203 L21.1728548,11.9999315 L23.7322118,14.8337398 C23.9303119,15.0697677 24.0248389,15.3757204 23.9944001,15.6823574 C23.9639613,15.9889944 23.8111302,16.2703928 23.5704942,16.462869 C23.4401491,16.566913 23.2891468,16.6420147 23.1275286,16.6831799 L19.4103672,17.2831757 L20.0877062,21.0828366 C20.1275496,21.7250196 19.6236469,22.2711095 18.972089,22.3039218 C18.8037626,22.3149739 18.6350417,22.2893859 18.4775612,22.2289223 L14.7088376,20.2083896 L13.0002559,23.4713355 C12.6440084,24.0057067 11.9104198,24.1627369 11.3619861,23.8135206 C11.2220165,23.7262943 11.1028246,23.6095021 11.0127698,23.4713355 L9.30465678,20.2083896 L5.5359332,22.2289223 C4.92421874,22.4609519 4.23773918,22.160954 4.00336583,21.5656457 C3.94157519,21.4125779 3.91505966,21.2475568 3.92578824,21.0828366 L4.60312724,17.2831757 L0.885731435,16.6831799 C0.250579639,16.5214623 -0.129105199,15.8839668 0.0419873514,15.2673305 C0.0869078615,15.1090776 0.163449328,14.9615758 0.266985774,14.8337398 L2.82610846,11.9999315 L0.262298307,9.16612328 C0.0657136497,8.92833838 -0.0264914221,8.62123058 0.00660566636,8.31448677 C0.0397027549,8.00774295 0.195295686,7.72737206 0.438078324,7.53699408 C0.56842348,7.4329501 0.719425794,7.35784841 0.881043968,7.31668312 L4.49039366,6.60418812 L3.9208664,2.91233901 C3.88781976,2.27484348 4.38703501,1.72875356 5.04328041,1.69594129 C5.20928961,1.68542121 5.37560662,1.71100844 5.53077699,1.77094077 L9.3018443,3.79147347 L11.0104261,0.528527606 C11.3666736,-0.0058436466 12.1002622,-0.162873795 12.6510396,0.186342506 Z M13.1483798,7.49996309 L10.8515209,7.49996309 C10.6573597,7.49996309 10.4999609,7.65736188 10.4999609,7.85152312 L10.4999609,10.4999421 L7.85154197,10.4999421 C7.65684099,10.5008461 7.49959224,10.6591431 7.49998048,10.8538458 L7.49998048,13.1507047 C7.49998048,13.2437301 7.53709371,13.3329117 7.60309226,13.3984703 C7.66909079,13.4640288 7.75851862,13.5005454 7.85154197,13.499921 L10.4999609,13.499921 L10.4999609,16.1483399 C10.4999609,16.3425012 10.6573597,16.4999 10.8515209,16.4999 L13.1483798,16.4999 C13.3425411,16.4999 13.4999399,16.3425012 13.4999399,16.1483399 L13.4999399,13.499921 L16.1483588,13.499921 C16.2411458,13.5011115 16.3305463,13.4650999 16.3966009,13.399926 C16.4626554,13.3347521 16.4999203,13.2458431 16.4999203,13.1530484 L16.4999203,10.8538458 C16.5003085,10.6591431 16.3430598,10.5008461 16.1483588,10.4999421 L13.4999399,10.5022858 L13.4999399,7.85152312 C13.4999399,7.65736188 13.3425411,7.49996309 13.1483798,7.49996309 Z"></path></clipPath></defs><g clip-path="url(#i0)"><polygon points="0,-1.11022302e-16 24,-1.11022302e-16 24,23.9998631 0,23.9998631 0,-1.11022302e-16" stroke="none" fill="#151515"></polygon></g></svg>