<?xml version="1.0" encoding="UTF-8"?><svg version="1.1" width="24px" height="24px" viewBox="0 0 24.0 24.0" xmlns="http://www.w3.org/2000/svg" xmlns:xlink="http://www.w3.org/1999/xlink"><defs><clipPath id="i0"><path d="M20.1914062,0 C20.6390625,0 21,0.33515625 21,0.75 L21,10.5984375 C21,18 11.9367187,24 10.5117188,24 C9.08671875,24 0,18 0,10.5960938 L0,0.75 C0,0.33515625 0.3609375,0 0.80859375,0 Z M11.5007812,15 L9.49921875,15 C9.225,15.0070312 9.0046875,15.2460938 9,15.5460937 L9,17.4539063 C9.0046875,17.7539062 9.22265625,17.9953125 9.49921875,18 L11.5007812,18 C11.775,17.9953125 11.9953125,17.7539062 12.0023437,17.4539063 L12,15.5460937 C11.9953125,15.2460938 11.7773438,15.0046875 11.5007812,15 Z M12,3 L9,3.00703125 C8.56171875,3.00703125 8.21484375,3.38203125 8.25234375,3.8203125 L8.87578125,12.0632813 C8.90859375,12.45 9.234375,12.75 9.6234375,12.75 L11.3742187,12.75 C11.765625,12.75 12.0890625,12.4429687 12.121875,12.05625 L12.7476562,3.81328125 C12.7828125,3.375 12.4382812,3 12,3 Z"></path></clipPath></defs><g transform="translate(2.0 0.0)"><g clip-path="url(#i0)"><polygon points="0,0 21,0 21,24 0,24 0,0" stroke="none" fill="#151515"></polygon></g></g></svg>