<?xml version="1.0" encoding="UTF-8"?><svg version="1.1" width="24px" height="24px" viewBox="0 0 24.0 24.0" xmlns="http://www.w3.org/2000/svg" xmlns:xlink="http://www.w3.org/1999/xlink"><defs><clipPath id="i0"><path d="M12,0 C18.628125,0 24,5.371875 24,12 C24,18.628125 18.628125,24 12,24 C5.371875,24 0,18.628125 0,12 C0,5.371875 5.371875,0 12,0 Z M12,3 C7.02890625,3 3,7.02890625 3,12 C3,16.9710938 7.02890625,21 12,21 C16.9710938,21 21,16.9710938 21,12 C21,7.02890625 16.9710938,3 12,3 Z M12,6.75 C12.827093,6.75321204 13.496788,7.42290701 13.5,8.25 L13.5,15.75 C13.5,16.5784271 12.8284271,17.25 12,17.25 C11.1715729,17.25 10.5,16.5784271 10.5,15.75 L10.5,8.25 C10.503212,7.42290701 11.172907,6.75321204 12,6.75 Z"></path></clipPath></defs><g clip-path="url(#i0)"><polygon points="0,0 24,0 24,24 0,24 0,0" stroke="none" fill="#151515"></polygon></g></svg>