<?xml version="1.0" encoding="UTF-8"?>
<svg width="24px" height="24px" viewBox="0 0 24 24" version="1.1" xmlns="http://www.w3.org/2000/svg" xmlns:xlink="http://www.w3.org/1999/xlink">
    <title></title>
    <g id="Icons" stroke="none" stroke-width="1" fill="none" fill-rule="evenodd">
        <g id="Icons/3.-Size-lg/Status/pficon-not-started" fill="#151515">
            <path d="M12.0022493,0.0226653659 C18.6172493,0.0226653659 24.0007493,5.40241171 24.0007493,12.010958 C24.0007493,18.6225015 18.6172493,23.9992507 12.0022493,23.9992507 C5.38274927,23.9992507 0.000749268293,18.6225015 0.000749268293,12.010958 C0.000749268293,5.40241171 5.38274927,0.0226653659 12.0022493,0.0226653659 Z M12.0022493,3.01824 C7.03874927,3.01824 3.00224927,7.05230049 3.00224927,12.0094595 C3.00224927,16.9711141 7.03874927,21.000679 12.0022493,21.000679 C16.9642493,21.000679 21.0022493,16.9696156 21.0022493,12.0094595 C21.0007493,7.05230049 16.9642493,3.01824 12.0022493,3.01824 Z M6.18749927,10.1385366 C7.22303317,10.1385366 8.06249927,10.9771837 8.06249927,12.0117073 C8.06249927,13.0462309 7.22303317,13.884878 6.18749927,13.884878 C5.15196536,13.884878 4.31249927,13.0462309 4.31249927,12.0117073 C4.31249927,10.9771837 5.15196536,10.1385366 6.18749927,10.1385366 Z M12.0234368,10.1385366 C13.0589707,10.1385366 13.8984368,10.9771837 13.8984368,12.0117073 C13.8984368,13.0462309 13.0589707,13.884878 12.0234368,13.884878 C10.9879029,13.884878 10.1484368,13.0462309 10.1484368,12.0117073 C10.1484368,10.9771837 10.9879029,10.1385366 12.0234368,10.1385366 Z M17.8359368,10.1385366 C18.8714707,10.1385366 19.7109368,10.9771837 19.7109368,12.0117073 C19.7109368,13.0462309 18.8714707,13.884878 17.8359368,13.884878 C16.8004029,13.884878 15.9609368,13.0462309 15.9609368,12.0117073 C15.9609368,10.9771837 16.8004029,10.1385366 17.8359368,10.1385366 Z" id="not-started"></path>
        </g>
    </g>
</svg>