<?xml version="1.0" encoding="UTF-8"?><svg version="1.1" width="24px" height="24px" viewBox="0 0 24.0 24.0" xmlns="http://www.w3.org/2000/svg" xmlns:xlink="http://www.w3.org/1999/xlink"><defs><clipPath id="i0"><path d="M12.0015,0 C18.6165,0 24,5.385 24,12 C24,18.618 18.6165,24 12.0015,24 C5.382,24 0,18.618 0,12 C0,5.385 5.382,0 12.0015,0 Z M12.0015,2.9985 C7.038,2.9985 3.0015,7.0365 3.0015,11.9985 C3.0015,16.965 7.038,20.9985 12.0015,20.9985 C16.9635,20.9985 21.0015,16.9635 21.0015,11.9985 C21,7.0365 16.9635,2.9985 12.0015,2.9985 Z M16.12425,6.00075 C16.305375,6.00075 16.4566406,6.13052344 16.491627,6.30063574 L16.49925,6.37575 L16.49925,6.75075 C16.49925,10.50075 12.74925,10.47825 12.74925,12.00075 C12.74925,13.4846447 16.3044785,13.5009411 16.4915958,16.9624411 L16.49925,17.25075 L16.49925,17.62575 C16.49925,17.806875 16.370625,17.9581406 16.1997949,17.993127 L16.12425,18.00075 L7.87425,18.00075 C7.693125,18.00075 7.54185937,17.872125 7.50687305,17.7012949 L7.49925,17.62575 L7.49925,17.25075 C7.49925,13.47825 11.24925,13.47825 11.24925,12.00075 C11.24925,10.5635921 7.69402147,10.4816873 7.50690418,7.03747194 L7.49925,6.75075 L7.49925,6.37575 C7.49925,6.1959375 7.627875,6.0436875 7.79870508,6.00843457 L7.87425,6.00075 L16.12425,6.00075 Z M11.60625,14.35275 C11.25225,14.47125 10.00275,14.87325 9.82875,16.09725 L9.82522505,16.1215071 L9.82292845,16.1377254 C9.82141472,16.148542 9.81993816,16.159361 9.81851367,16.1701436 L9.81641789,16.1862852 C9.79852746,16.3266251 9.79081055,16.4574177 9.82658452,16.4919229 L9.84825,16.50075 L14.15175,16.50075 C14.2113275,16.50075 14.2044895,16.3539934 14.1846461,16.1926471 L14.1805199,16.1602225 L14.1783564,16.1439378 L14.1761418,16.1276438 L14.17275,16.10325 C14.00475,14.89425 12.74925,14.47725 12.39525,14.35275 C12.00675,14.21925 12.00675,14.21925 11.60625,14.35275 Z M14.15175,7.4385 L9.84975,7.4385 C9.78818663,7.4385 9.79867727,7.59634725 9.81931202,7.76421502 L9.8213385,7.78048662 L9.82446973,7.80494616 C9.82588059,7.81581858 9.82731288,7.8266831 9.82875,7.8375 C9.99675,9.0465 11.25225,9.4635 11.60625,9.588 C11.9873864,9.7184659 11.9960486,9.72143105 12.3700545,9.5968954 L12.39675,9.588 C12.75075,9.468 14.00025,9.0675 14.17425,7.842 L14.1789667,7.80940493 L14.1823395,7.78486402 C14.2057202,7.61035162 14.2152993,7.4385 14.15175,7.4385 Z"></path></clipPath></defs><g transform="translate(0.0007492682926830696 0.02266536585366019)"><g clip-path="url(#i0)"><polygon points="0,0 24,0 24,24 0,24 0,0" stroke="none" fill="#151515"></polygon></g></g></svg>