<?xml version="1.0" encoding="UTF-8"?><svg version="1.1" width="24px" height="24px" viewBox="0 0 24.0 24.0" xmlns="http://www.w3.org/2000/svg" xmlns:xlink="http://www.w3.org/1999/xlink"><defs><clipPath id="i0"><path d="M12,0 C18.628125,0 24,5.371875 24,12 C24,18.628125 18.628125,24 12,24 C5.371875,24 0,18.628125 0,12 C0,5.371875 5.371875,0 12,0 Z M12.028125,10.3265625 L9.71484375,17.0414063 C9.56015625,17.4914062 9.14765625,17.803125 8.6765625,17.8289063 L8.61328125,17.8289063 C8.16328125,17.8289063 7.75078125,17.5734375 7.55859375,17.165625 L5.5828125,13.0195312 L2.96953125,13.0195312 C3.065625,13.89375 3.2859375,14.728125 3.628125,15.5320313 C4.10390625,16.640625 4.753125,17.60625 5.5828125,18.4242188 C6.4125,19.2421875 7.378125,19.8914063 8.475,20.3671875 C9.57421875,20.8429687 10.753125,21.0796875 12,21.0796875 C13.2492187,21.0796875 14.428125,20.8429687 15.525,20.3671875 C16.6242187,19.8914063 17.5921875,19.2445313 18.4171875,18.4242188 C19.2421875,17.6039063 19.8960937,16.640625 20.371875,15.5320313 C20.7164062,14.7328125 20.934375,13.89375 21.0257812,13.021875 L17.6414062,13.021875 L16.3453125,15.0023438 C16.1203125,15.3515625 15.703125,15.5484375 15.3070312,15.5273438 C14.8945312,15.50625 14.5195312,15.2601563 14.3320312,14.8898437 L12.028125,10.3265625 Z M11.9929687,2.90859375 C10.74375,2.90859375 9.56484375,3.1453125 8.46796875,3.62109375 C7.36875,4.096875 6.40546875,4.74609375 5.57578125,5.57578125 C4.75078125,6.40546875 4.096875,7.37109375 3.62109375,8.46796875 C3.3140625,9.1734375 3.10546875,9.9140625 3,10.6875 L6.32578125,10.6875 C6.77578125,10.6875 7.18828125,10.9429687 7.38046875,11.3507813 L8.446875,13.584375 L10.7273437,6.95390625 C10.8304688,6.665625 11.0320312,6.42890625 11.30625,6.290625 C11.878125,5.9953125 12.58125,6.2296875 12.8695312,6.80390625 L15.5039062,12.0304687 L16.040625,11.2101563 C16.25625,10.884375 16.6242187,10.6851562 17.015625,10.6851562 L20.9976562,10.6851562 C20.8898437,9.9140625 20.68125,9.18046875 20.3648437,8.46796875 C19.8890625,7.37109375 19.2398437,6.40546875 18.4101562,5.57578125 C17.5804688,4.75078125 16.6148437,4.096875 15.5179687,3.62109375 C14.41875,3.1453125 13.2398437,2.90859375 11.9929687,2.90859375 Z"></path></clipPath></defs><g clip-path="url(#i0)"><polygon points="0,0 24,0 24,24 0,24 0,0" stroke="none" fill="#151515"></polygon></g></svg>