<?xml version="1.0" encoding="UTF-8"?>
<svg width="24px" height="24px" viewBox="0 0 24 24" version="1.1" xmlns="http://www.w3.org/2000/svg" xmlns:xlink="http://www.w3.org/1999/xlink">
    <title></title>
    <g id="Icons" stroke="none" stroke-width="1" fill="none" fill-rule="evenodd">
        <g id="Icons/3.-Size-lg/Status/pficon-pending" fill="#151515">
            <path d="M12.0023437,20.9976562 C7.03828125,20.9976562 3.00234375,16.9640625 3.00234375,11.9976563 C3.00234375,7.0359375 7.03828125,2.99765625 12.0023437,2.99765625 C16.9640625,2.99765625 21,7.0359375 21.0023438,11.9976563 C21.0023438,16.9617188 16.9640625,20.9976562 12.0023437,20.9976562 M12.0023438,0 C5.38359375,0 0,5.38359375 0,12 C0,18.6164062 5.38359375,24 12.0023438,24 C18.6164062,24 24,18.6164062 24,12 C24,5.38359375 18.6164062,0 12.0023438,0 M16.5,6.75 L16.5,6.375 C16.5,6.16875 16.33125,6 16.125,6 L7.875,6 C7.66875,6 7.5,6.16875 7.5,6.375 L7.5,6.75 C7.5,10.4765625 11.25,10.5234375 11.25,12 C11.25,13.4765625 7.5,13.4765625 7.5,17.25 L7.5,17.625 C7.5,17.83125 7.66875,18 7.875,18 L16.125,18 C16.33125,18 16.5,17.83125 16.5,17.625 L16.5,17.25 C16.5,13.5 12.75,13.5234375 12.75,12 C12.75,10.4765625 16.5,10.5 16.5,6.75 M14.1539062,16.5 L9.85078125,16.5 C9.78046875,16.5 9.8015625,16.2890625 9.8296875,16.096875 C10.003125,14.8710938 11.2523437,14.4703125 11.60625,14.3507813 C12.0070312,14.2171875 12.0070312,14.2171875 12.3960937,14.3507813 C12.75,14.475 14.00625,14.8921875 14.175,16.1015625 C14.2007812,16.29375 14.2242187,16.5 14.1539062,16.5" id="pficon-pending"></path>
        </g>
    </g>
</svg>