<?xml version="1.0" encoding="UTF-8"?><svg version="1.1" width="24px" height="24px" viewBox="0 0 24.0 24.0" xmlns="http://www.w3.org/2000/svg" xmlns:xlink="http://www.w3.org/1999/xlink"><defs><clipPath id="i0"><path d="M12.0023438,0 C18.6164062,0 24,5.38359375 24,12 C24,18.6164062 18.6164062,24 12.0023438,24 C5.38359375,24 0,18.6164062 0,12 C0,5.38359375 5.38359375,0 12.0023438,0 Z M12.0023437,2.99765625 C7.03828125,2.99765625 3.00234375,7.0359375 3.00234375,11.9976563 C3.00234375,16.9640625 7.03828125,20.9976562 12.0023437,20.9976562 C16.9640625,20.9976562 21.0023438,16.9617188 21.0023438,11.9976563 C21,7.0359375 16.9640625,2.99765625 12.0023437,2.99765625 Z M16.125,6 C16.33125,6 16.5,6.16875 16.5,6.375 L16.5,6.75 C16.5,10.5 12.75,10.4765625 12.75,12 C12.75,13.5234375 16.5,13.5 16.5,17.25 L16.5,17.625 C16.5,17.83125 16.33125,18 16.125,18 L7.875,18 C7.66875,18 7.5,17.83125 7.5,17.625 L7.5,17.25 C7.5,13.4765625 11.25,13.4765625 11.25,12 C11.25,10.5234375 7.5,10.4765625 7.5,6.75 L7.5,6.375 C7.5,6.16875 7.66875,6 7.875,6 Z M12.3960937,14.3507813 C12.0070312,14.2171875 12.0070312,14.2171875 11.60625,14.3507813 C11.2523437,14.4703125 10.003125,14.8710938 9.8296875,16.096875 C9.8015625,16.2890625 9.78046875,16.5 9.85078125,16.5 L14.1539062,16.5 C14.2242187,16.5 14.2007812,16.29375 14.175,16.1015625 C14.00625,14.8921875 12.75,14.475 12.3960937,14.3507813 Z"></path></clipPath></defs><g clip-path="url(#i0)"><polygon points="0,0 24,0 24,24 0,24 0,0" stroke="none" fill="#151515"></polygon></g></svg>