<?xml version="1.0" encoding="UTF-8"?><svg version="1.1" width="24px" height="24px" viewBox="0 0 24.0 24.0" xmlns="http://www.w3.org/2000/svg" xmlns:xlink="http://www.w3.org/1999/xlink"><defs><clipPath id="i0"><path d="M0.365064236,0.322654843 C0.793054989,-0.106632853 1.48801648,-0.107684232 1.91730418,0.320306522 L11.1243649,9.55531227 C11.4050944,9.45185757 11.7020439,9.39937049 12.0012278,9.40032311 C13.4233909,9.40239651 14.5750375,10.556145 14.5745176,11.9783095 C14.5755371,12.2779373 14.5231325,12.5753473 14.4197633,12.8565814 L16.1849959,14.6199354 C17.2528418,12.9384403 17.1971531,10.7779974 16.0440967,9.15374944 C15.7134531,8.68173699 15.8188927,8.02890385 16.2902007,7.69544232 C16.5157956,7.53454147 16.7961797,7.47010487 17.0693854,7.51637357 C17.3425912,7.56264228 17.5861235,7.71580668 17.7461595,7.94201599 C18.5924942,9.12556959 19.0353875,10.5249339 19.0353875,11.9877028 C19.0399636,13.4289371 18.5950543,14.8357372 17.7625977,16.0122547 C17.7386911,16.0479062 17.7120766,16.0816651 17.6829896,16.1132325 L19.4057177,17.8390133 C22.2520416,14.3334542 22.1710506,9.29042795 19.213625,5.87807698 C18.7587553,5.35228799 18.8101835,4.55385897 19.3355029,4.09828477 C19.5857716,3.87845835 19.9134782,3.76770296 20.2457917,3.7906333 C20.5781052,3.81356364 20.8874937,3.96827995 21.1051973,4.22039744 C24.9318427,8.63142422 24.9686404,15.1744106 21.1918503,19.6281988 L23.636687,22.0749141 C24.0659098,22.5034236 24.0664881,23.1987531 23.6379786,23.6279759 C23.209469,24.0571989 22.5141395,24.0577771 22.0849167,23.6292675 L12.8689323,14.3944966 L9.57752611,11.0979241 L7.80078672,9.31813188 L4.59180656,6.10375059 L2.80567388,4.31902691 L0.367412557,1.87489479 C-0.0618751393,1.44690403 -0.0629265181,0.751942538 0.365064236,0.322654843 Z M1.52818745,6.150717 L3.38617875,8.01481393 C2.80561468,9.2541745 2.50442711,10.6059511 2.50391468,11.9745522 C2.50424845,14.2181724 3.31386747,16.3863839 4.78413402,18.0811252 C5.24229138,18.6069142 5.19086316,19.4051084 4.66671799,19.8604477 C4.4404359,20.0617137 4.14763916,20.1720562 3.84480577,20.1702372 C3.48265833,20.169496 3.13831604,20.0130234 2.89960671,19.7406834 C-0.343978638,16.0018806 -0.92255798,10.6411028 1.44857938,6.29631288 L1.52818745,6.150717 Z M7.00423951,12.2679984 C7.05341524,13.1800735 7.35833572,14.0619982 7.88673525,14.8115584 C8.21982833,15.2844104 8.10743773,15.9376413 7.63546494,16.271979 C7.45971024,16.3956874 7.24968579,16.4613714 7.03476452,16.4598958 C6.69367299,16.4604998 6.37375766,16.2945366 6.17786232,16.0153075 C4.92817524,14.2293376 4.5778872,11.9646101 5.22961045,9.88454682 L7.008933,11.6676267 C7.00188804,11.7733011 6.99719139,11.8815587 6.99719139,11.9945129 Z"></path></clipPath></defs><g clip-path="url(#i0)"><polygon points="0,0 24,0 24,23.9502718 0,23.9502718 0,0" stroke="none" fill="#151515"></polygon></g></svg>