<?xml version="1.0" encoding="UTF-8"?><svg version="1.1" width="24px" height="24px" viewBox="0 0 24.0 24.0" xmlns="http://www.w3.org/2000/svg" xmlns:xlink="http://www.w3.org/1999/xlink"><defs><clipPath id="i0"><path d="M12.0015,0 C18.6165,0 24,5.37974634 24,11.9882927 C24,18.5998361 18.6165,23.9765854 12.0015,23.9765854 C5.382,23.9765854 0,18.5998361 0,11.9882927 C0,5.37974634 5.382,0 12.0015,0 Z M12.0015,2.99557463 C7.038,2.99557463 3.0015,7.02963512 3.0015,11.9867941 C3.0015,16.9484488 7.038,20.9780137 12.0015,20.9780137 C16.9635,20.9780137 21.0015,16.9469502 21.0015,11.9867941 C21,7.02963512 16.9635,2.99557463 12.0015,2.99557463 Z M6.18675,10.1158712 C7.22228391,10.1158712 8.06175,10.9545183 8.06175,11.989042 C8.06175,13.0235656 7.22228391,13.8622127 6.18675,13.8622127 C5.15121609,13.8622127 4.31175,13.0235656 4.31175,11.989042 C4.31175,10.9545183 5.15121609,10.1158712 6.18675,10.1158712 Z M12.0226875,10.1158712 C13.0582214,10.1158712 13.8976875,10.9545183 13.8976875,11.989042 C13.8976875,13.0235656 13.0582214,13.8622127 12.0226875,13.8622127 C10.9871536,13.8622127 10.1476875,13.0235656 10.1476875,11.989042 C10.1476875,10.9545183 10.9871536,10.1158712 12.0226875,10.1158712 Z M17.8351875,10.1158712 C18.8707214,10.1158712 19.7101875,10.9545183 19.7101875,11.989042 C19.7101875,13.0235656 18.8707214,13.8622127 17.8351875,13.8622127 C16.7996536,13.8622127 15.9601875,13.0235656 15.9601875,11.989042 C15.9601875,10.9545183 16.7996536,10.1158712 17.8351875,10.1158712 Z"></path></clipPath></defs><g transform="translate(0.0007492682926830696 0.02266536585366019)"><g clip-path="url(#i0)"><polygon points="0,0 24,0 24,23.9765854 0,23.9765854 0,0" stroke="none" fill="#151515"></polygon></g></g></svg>