<?xml version="1.0" encoding="UTF-8"?>
<svg width="24px" height="24px" viewBox="0 0 24 24" version="1.1" xmlns="http://www.w3.org/2000/svg" xmlns:xlink="http://www.w3.org/1999/xlink">
    <title></title>
    <g id="Icons" stroke="none" stroke-width="1" fill="none" fill-rule="evenodd">
        <g id="Icons/3.-Size-lg/Status/pficon-new-process" fill="#151515">
            <path d="M12.0022493,0.0226653659 C18.6172493,0.0226653659 24.0007493,5.40766537 24.0007493,12.0226654 C24.0007493,18.6406654 18.6172493,24.0226654 12.0022493,24.0226654 C5.38274927,24.0226654 0.000749268293,18.6406654 0.000749268293,12.0226654 C0.000749268293,5.40766537 5.38274927,0.0226653659 12.0022493,0.0226653659 Z M12.0022493,3.02116537 C7.03874927,3.02116537 3.00224927,7.05916537 3.00224927,12.0211654 C3.00224927,16.9876654 7.03874927,21.0211654 12.0022493,21.0211654 C16.9642493,21.0211654 21.0022493,16.9861654 21.0022493,12.0211654 C21.0007493,7.05916537 16.9642493,3.02116537 12.0022493,3.02116537 Z M16.1249993,6.02341537 C16.3319993,6.02341537 16.4999993,6.19291537 16.4999993,6.39841537 L16.4999993,6.39841537 L16.4999993,6.77341537 C16.4999993,10.5234154 12.7499993,10.5009154 12.7499993,12.0234154 C12.7499993,13.5474154 16.4999993,13.5234154 16.4999993,17.2734154 L16.4999993,17.2734154 L16.4999993,17.6484154 C16.4999993,17.8554154 16.3319993,18.0234154 16.1249993,18.0234154 L16.1249993,18.0234154 L7.87499927,18.0234154 C7.66799927,18.0234154 7.49999927,17.8554154 7.49999927,17.6484154 L7.49999927,17.6484154 L7.49999927,17.2734154 C7.49999927,13.5009154 11.2499993,13.5009154 11.2499993,12.0234154 C11.2499993,10.5474154 7.49999927,10.5009154 7.49999927,6.77341537 L7.49999927,6.77341537 L7.49999927,6.39841537 C7.49999927,6.19291537 7.66799927,6.02341537 7.87499927,6.02341537 L7.87499927,6.02341537 L16.1249993,6.02341537 Z M12.3959993,14.3754154 C12.0074993,14.2419154 12.0074993,14.2419154 11.6069993,14.3754154 C11.2529993,14.4939154 10.0034993,14.8959154 9.82949927,16.1199154 C9.82910343,16.1226029 9.82870877,16.1252935 9.82831546,16.1279868 L9.82597432,16.1441724 L9.82597432,16.1441724 L9.82367772,16.1603907 C9.82216399,16.1712074 9.82068742,16.1820264 9.81926294,16.1928089 L9.81716716,16.2089506 C9.79629499,16.3726804 9.78927011,16.5234154 9.84899927,16.5234154 L9.84899927,16.5234154 L14.1524993,16.5234154 C14.2120767,16.5234154 14.2052388,16.3766588 14.1853954,16.2153125 L14.1833697,16.1991341 L14.1833697,16.1991341 L14.1812692,16.1828879 L14.1812692,16.1828879 L14.1791056,16.1666031 C14.1783753,16.1611717 14.1776364,16.1557388 14.176891,16.1503092 L14.1734993,16.1259154 C14.0054993,14.9169154 12.7499993,14.4999154 12.3959993,14.3754154 Z M14.1524993,7.46116537 L9.85049927,7.46116537 C9.78893589,7.46116537 9.79942654,7.61901262 9.82006129,7.78688038 L9.82208777,7.80315198 C9.82243012,7.80586745 9.82277458,7.80858433 9.82312089,7.81130193 L9.82521899,7.82761152 C9.82662986,7.83848394 9.82806215,7.84934847 9.82949927,7.86016537 C9.99749927,9.06916537 11.2529993,9.48616537 11.6069993,9.61066537 C11.9881356,9.74113126 11.9967978,9.74409641 12.3708038,9.61956076 L12.3974993,9.61066537 C12.7514993,9.49066537 14.0009993,9.09016537 14.1749993,7.86466537 C14.1754007,7.86196115 14.1758003,7.85925304 14.1761979,7.85654174 L14.179716,7.8320703 L14.179716,7.8320703 L14.1830888,7.80752938 C14.2064695,7.63301699 14.2160486,7.46116537 14.1524993,7.46116537 L14.1524993,7.46116537 Z" id="new-process"></path>
        </g>
    </g>
</svg>