<?xml version="1.0" encoding="UTF-8"?><svg version="1.1" width="24px" height="24px" viewBox="0 0 24.0 24.0" xmlns="http://www.w3.org/2000/svg" xmlns:xlink="http://www.w3.org/1999/xlink"><defs><clipPath id="i0"><path d="M12,0 C13.6523438,0 15.3046875,0.63046875 16.5679687,1.89140625 L22.1085937,7.434375 C24.6304688,9.95625 24.6304688,14.0460937 22.1085937,16.5679687 L16.5679687,22.1085937 C15.3046875,23.3695313 13.6523438,24 12,24 C10.3476562,24 8.6953125,23.3695313 7.43203125,22.10625 L1.89140625,16.565625 C-0.63046875,14.04375 -0.63046875,9.95390625 1.89140625,7.43203125 L7.43203125,1.89140625 C8.6953125,0.63046875 10.3476562,0 12,0 Z M14.1117188,3.71015625 C12.9398438,2.5453125 11.0460938,2.5453125 9.8765625,3.7125 L3.6984375,9.87421875 C2.5265625,11.04375 2.5265625,12.9421875 3.69609375,14.1140625 L9.88359375,20.3015625 C11.0578125,21.4734375 12.95625,21.4710937 14.128125,20.2992187 L20.30625,14.1140625 C21.4757813,12.9421875 21.4757813,11.0460937 20.3039062,9.87421875 Z M13.1085937,14.9835938 C13.2117188,14.9835938 13.3007812,15.0210938 13.3734375,15.09375 C13.4460938,15.1710938 13.4835938,15.2554688 13.4835938,15.3585938 L13.4835938,17.6085938 C13.4835938,17.709375 13.4484375,17.7984375 13.3734375,17.8734375 C13.2960937,17.9460938 13.2117188,17.9835938 13.1085937,17.9835938 L10.8585938,17.9835938 C10.7554688,17.9835938 10.6664063,17.9460938 10.59375,17.8734375 C10.5210938,17.7960938 10.4835938,17.7117188 10.4835938,17.6085938 L10.4835938,15.3585938 C10.4835938,15.2554688 10.5210938,15.1664063 10.59375,15.09375 C10.6710938,15.0210938 10.7554688,14.9835938 10.8585938,14.9835938 Z M12.2179688,5.94375 C14.709375,5.94375 16.7273438,7.6265625 16.7273438,9.69609375 C16.7273438,11.765625 14.7070313,13.5 12.2179688,13.5 L11.7242504,13.5009409 C11.6096381,13.5010529 11.4874698,13.5010881 11.3723199,13.5009601 L11.0625,13.5 C10.6898438,13.5 10.4835938,13.378125 10.4835938,12.9796875 L10.4835938,12.2273438 C10.4835938,11.2453125 11.4,11.1351563 12.2179688,11.0859375 C13.0359375,11.0367188 13.6617188,10.3570312 13.6617188,9.69375 C13.6617188,8.36953125 10.8,8.4984375 10.8,9.52734375 C10.734375,9.73828125 10.5585938,9.75 10.4296875,9.75 L8.05078125,9.75 C7.85625,9.75 7.715625,9.71015625 7.715625,9.54375 C7.83984375,7.91484375 8.578125,5.94375 12.2179688,5.94375 Z"></path></clipPath></defs><g clip-path="url(#i0)"><polygon points="-4.4408921e-16,0 24,0 24,24 -4.4408921e-16,24 -4.4408921e-16,0" stroke="none" fill="#151515"></polygon></g></svg>