<?xml version="1.0" encoding="UTF-8"?><svg version="1.1" width="24px" height="24px" viewBox="0 0 24.0 24.0" xmlns="http://www.w3.org/2000/svg" xmlns:xlink="http://www.w3.org/1999/xlink"><defs><clipPath id="i0"><path d="M4.66415104,0.315097749 C5.18773951,0.771376961 5.24230445,1.56571664 4.78602526,2.08930511 C4.35304589,2.5877034 3.97362237,3.13020836 3.65400128,3.70788848 C1.78789834,7.11945758 2.24530661,11.3324777 4.80008767,14.2640707 C5.12510383,14.6366516 5.20217563,15.1648892 4.99716442,15.614803 C4.79215319,16.0647168 4.3429515,16.3533221 3.84853128,16.3523386 C3.48590837,16.3554879 3.14027435,16.1997815 2.90166235,15.9267163 C-0.344624927,12.1957771 -0.923547979,6.83769927 1.45089041,2.49945873 C1.85672698,1.76328045 2.33907965,1.07196067 2.88994368,0.436971967 C3.34622287,-0.0866165014 4.14056258,-0.14118144 4.66415104,0.315097749 Z M21.1077955,0.436034473 C24.9417232,4.84551542 24.9666535,11.398191 21.1663889,15.8367169 C20.9283208,16.1181403 20.5787563,16.2809276 20.210145,16.2820265 C19.7198838,16.281087 19.274944,15.9950776 19.0705179,15.5494692 C18.8660919,15.1038607 18.9395196,14.5800466 19.2585886,14.2078211 C22.2495476,10.7156492 22.2315998,5.55963236 19.2164014,2.08836762 C18.9176127,1.75098421 18.8225249,1.27936213 18.9672396,0.852560143 C19.1119543,0.425758179 19.4742785,0.109229671 19.9166499,0.0231496535 C20.3590214,-0.0629303409 20.8135991,0.0946391948 21.1077955,0.436034473 Z M17.7773481,4.13069826 C19.4985233,6.54988834 19.5060386,9.79178364 17.796098,12.2189276 C17.5914423,12.5017868 17.263983,12.6698709 16.9148537,12.6712685 C16.5149135,12.6703659 16.1487915,12.4467182 15.9654115,12.0912962 C15.7820316,11.7358743 15.811945,11.307892 16.0429843,10.9814355 C17.2307647,9.2994804 17.227006,7.05085271 16.0336093,5.37287779 C15.6905909,4.89135763 15.8028688,4.22293705 16.284389,3.87991867 C16.7659092,3.53690026 17.4343297,3.64917813 17.7773481,4.13069826 Z M7.66647553,3.90569971 C8.14939379,4.24664953 8.2666303,4.91343219 7.92897384,5.39865888 C7.35007131,6.21662238 7.05241697,7.18458491 7.05241697,8.19004721 C7.05001347,9.18931715 7.35793698,10.1646812 7.93366131,10.9814355 C8.09748749,11.2138451 8.16189797,11.5019782 8.11262819,11.7820241 C8.0633584,12.0620701 7.90447438,12.3109179 7.671163,12.4734572 C7.49010849,12.5970873 7.27633579,12.6639932 7.05710444,12.6656435 C6.70844072,12.6662674 6.38162064,12.4967404 6.18054756,12.2118964 C4.4864459,9.79907528 4.4836355,6.58397719 6.17351636,4.16819802 C6.50867046,3.68538862 7.17897865,3.56820187 7.66647553,3.90569971 Z M12.0047289,5.60022008 C13.4257222,5.60086674 14.5775033,6.75264785 14.5781499,8.17364107 C14.5781499,9.59490224 13.4259901,10.7470621 12.0047289,10.7470621 C10.5834678,10.7470621 9.43130795,9.59490224 9.43130795,8.17364107 C9.43130795,6.75237991 10.5834678,5.60022008 12.0047289,5.60022008 Z"></path></clipPath></defs><g transform="translate(0.0 4.0)"><g clip-path="url(#i0)"><polygon points="0,0 24,0 24,16.3533444 0,16.3533444 0,0" stroke="none" fill="#151515"></polygon></g></g></svg>