<?xml version="1.0" encoding="UTF-8"?><svg version="1.1" width="24px" height="24px" viewBox="0 0 24.0 24.0" xmlns="http://www.w3.org/2000/svg" xmlns:xlink="http://www.w3.org/1999/xlink"><defs><clipPath id="i0"><path d="M11.9765625,0 C12.8046875,0 13.6054688,0.078125 14.3789062,0.234375 C15.1523438,0.390625 15.90625,0.6328125 16.640625,0.9609375 C17.359375,1.2734375 18.0390625,1.64453125 18.6796875,2.07421875 C19.3203125,2.50390625 19.90625,2.9921875 20.4375,3.5390625 C20.984375,4.0703125 21.4726562,4.65625 21.9023438,5.296875 C22.3320312,5.9375 22.703125,6.6171875 23.015625,7.3359375 C23.34375,8.0703125 23.5859375,8.82421875 23.7421875,9.59765625 C23.8984375,10.3710938 23.9765625,11.171875 23.9765625,12 C23.9765625,12.828125 23.8984375,13.6328125 23.7421875,14.4140625 C23.5859375,15.1953125 23.34375,15.9453125 23.015625,16.6640625 C22.703125,17.3984375 22.3320312,18.0820312 21.9023438,18.7148438 C21.4726562,19.3476562 20.984375,19.9375 20.4375,20.484375 C19.90625,21.03125 19.3203125,21.5195312 18.6796875,21.9492188 C18.0390625,22.3789062 17.359375,22.75 16.640625,23.0625 C15.90625,23.375 15.1523438,23.609375 14.3789062,23.765625 C13.6054688,23.921875 12.8046875,24 11.9765625,24 C11.1796875,24 10.40625,23.9296875 9.65625,23.7890625 C8.90625,23.6484375 8.1796875,23.4296875 7.4765625,23.1328125 L9.046875,20.390625 C9.5,20.546875 9.96484375,20.6640625 10.4414062,20.7421875 C10.9179688,20.8203125 11.4140625,20.859375 11.9296875,20.859375 C12.5234375,20.859375 13.1054688,20.8046875 13.6757812,20.6953125 C14.2460938,20.5859375 14.8046875,20.4140625 15.3515625,20.1796875 C15.8828125,19.9453125 16.3789062,19.671875 16.8398438,19.359375 C17.3007812,19.046875 17.734375,18.6875 18.140625,18.28125 C18.546875,17.890625 18.90625,17.4609375 19.21875,16.9921875 C19.53125,16.5234375 19.8046875,16.0234375 20.0390625,15.4921875 C20.2734375,14.9453125 20.4492188,14.3867188 20.5664062,13.8164062 C20.6835938,13.2460938 20.7421875,12.65625 20.7421875,12.046875 C20.7421875,11.453125 20.6835938,10.8710938 20.5664062,10.3007812 C20.4492188,9.73046875 20.2734375,9.171875 20.0390625,8.625 C19.8046875,8.09375 19.53125,7.59765625 19.21875,7.13671875 C18.90625,6.67578125 18.546875,6.2421875 18.140625,5.8359375 C17.734375,5.4296875 17.3007812,5.0703125 16.8398438,4.7578125 C16.3789062,4.4453125 15.8828125,4.171875 15.3515625,3.9375 C14.8203125,3.703125 14.2734375,3.53125 13.7109375,3.421875 C13.1484375,3.3125 12.5703125,3.25 11.9765625,3.234375 Z M3.421875,14.3671875 C3.46875,14.5546875 3.5234375,14.7421875 3.5859375,14.9296875 C3.6484375,15.1171875 3.71875,15.3046875 3.796875,15.4921875 C4.03125,16.0234375 4.30859375,16.5234375 4.62890625,16.9921875 C4.94921875,17.4609375 5.3046875,17.8984375 5.6953125,18.3046875 C5.7578125,18.3671875 5.82421875,18.4257812 5.89453125,18.4804688 L5.99707031,18.5654297 L6.09375,18.65625 L4.5234375,21.3984375 C4.3359375,21.2578125 4.16015625,21.1132812 3.99609375,20.9648438 C3.83203125,20.8164062 3.671875,20.65625 3.515625,20.484375 C2.96875,19.9375 2.48046875,19.3476562 2.05078125,18.7148438 C1.62109375,18.0820312 1.25,17.3984375 0.9375,16.6640625 C0.78125,16.3359375 0.6484375,15.9960938 0.5390625,15.6445312 C0.4296875,15.2929688 0.3359375,14.9375 0.2578125,14.578125 Z M1.265625,6.609375 L4.1015625,8.015625 C4.0390625,8.125 3.984375,8.23046875 3.9375,8.33203125 C3.890625,8.43359375 3.84375,8.5390625 3.796875,8.6484375 C3.640625,9.0078125 3.51171875,9.37890625 3.41015625,9.76171875 C3.30859375,10.1445312 3.234375,10.5390625 3.1875,10.9453125 L0,11.15625 C0.046875,10.484375 0.1484375,9.83203125 0.3046875,9.19921875 C0.4609375,8.56640625 0.671875,7.9453125 0.9375,7.3359375 C0.984375,7.2109375 1.03515625,7.0859375 1.08984375,6.9609375 C1.14453125,6.8359375 1.203125,6.71875 1.265625,6.609375 Z"></path></clipPath></defs><g clip-path="url(#i0)"><polygon points="0,0 23.9765625,0 23.9765625,24 0,24 0,0" stroke="none" fill="#151515"></polygon></g></svg>