<?xml version="1.0" encoding="UTF-8"?><svg version="1.1" width="24px" height="24px" viewBox="0 0 24.0 24.0" xmlns="http://www.w3.org/2000/svg" xmlns:xlink="http://www.w3.org/1999/xlink"><defs><clipPath id="i0"><path d="M12,0 C18.628125,0 24,5.371875 24,12 C24,18.628125 18.628125,24 12,24 C5.371875,24 0,18.628125 0,12 C0,5.371875 5.371875,0 12,0 Z M12.0023438,3 C11.2546875,3 10.546875,3.13828125 9.89296875,3.4125 C9.24375,3.684375 8.64375,4.09453125 8.1140625,4.6265625 C7.03828125,5.7046875 6.49453125,7.0125 6.49453125,8.5125 L6.49453125,9.0375 C6.12890625,9.0984375 5.65546875,9.2578125 5.23359375,9.6796875 L5.22421875,9.6890625 L5.21484375,9.6984375 C4.74609375,10.18125 4.49765625,10.7882813 4.49765625,11.4539062 L4.49765625,16.95 C4.49765625,17.6320312 4.75078125,18.24375 5.23125,18.7242187 L5.240625,18.7335937 C5.88515625,19.3664062 6.553125,19.5 7.003125,19.5 L16.9921875,19.5 C17.446875,19.5 18.121875,19.3664062 18.7617188,18.7265625 L18.7710937,18.7171875 L18.7804687,18.7078125 C19.2515625,18.2226562 19.5,17.615625 19.5,16.9523437 L19.5023438,11.4539062 C19.5023438,10.7648438 19.246875,10.1484375 18.7640625,9.67265625 C18.4195312,9.33515625 17.9976562,9.12421875 17.5054687,9.03984375 L17.5054687,8.5125 C17.5054687,7.0078125 16.9617188,5.7 15.8929687,4.6265625 C15.3632812,4.09453125 14.7632812,3.684375 14.1117188,3.4125 C13.4578125,3.13828125 12.7476562,3 12.0023438,3 Z M12,4.5 C13.096875,4.5 14.0414063,4.89375 14.8289063,5.68359375 C15.6164062,6.47578125 16.003125,7.41328125 16.003125,8.5125 L16.003125,10.5 L16.9992187,10.5 C17.278125,10.5 17.5125,10.5492188 17.709375,10.74375 C17.90625,10.9382812 18,11.175 18.0023438,11.45625 L18.0023438,16.9546875 C18.0023438,17.2335937 17.8992188,17.4679688 17.7046875,17.6671875 C17.5101563,17.8617188 17.2734375,18.0023438 16.9945313,18.0023438 L7.003125,18.0023438 C6.72421875,18.0023438 6.48984375,17.8617188 6.29296875,17.6671875 C6.10078125,17.4726562 6,17.2359375 6,16.9546875 L6,11.4539062 C6,11.175 6.0984375,10.940625 6.29296875,10.7414063 C6.4875,10.546875 6.72421875,10.5 7.003125,10.5 L7.99453125,10.5 L7.99453125,8.5125 C7.99453125,7.40859375 8.38828125,6.4734375 9.17578125,5.68359375 C9.96328125,4.89375 10.903125,4.5 12,4.5 Z M12,6.55078125 C11.446875,6.55078125 10.9757812,6.74765625 10.584375,7.1390625 C10.1976562,7.528125 10.0007812,8.0015625 10.0007812,8.55234375 L10.0007812,10.5 L14.0015625,10.5 L14.0015625,8.55 C14.0015625,7.996875 13.8046875,7.52578125 13.4132812,7.134375 C13.0289062,6.7453125 12.553125,6.55078125 12,6.55078125 Z"></path></clipPath></defs><g clip-path="url(#i0)"><polygon points="0,0 24,0 24,24 0,24 0,0" stroke="none" fill="#151515"></polygon></g></svg>