<?xml version="1.0" encoding="UTF-8"?><svg version="1.1" width="24px" height="24px" viewBox="0 0 24.0 24.0" xmlns="http://www.w3.org/2000/svg" xmlns:xlink="http://www.w3.org/1999/xlink"><defs><clipPath id="i0"><path d="M16.7437277,2.90157389 C17.0718519,2.32030697 17.8312343,2.14686073 18.3749647,2.53591314 C21.3280826,4.64528311 23.2499531,8.09530235 23.2499531,11.9999714 C23.2499531,18.4124469 18.0562246,23.6108904 11.6484182,23.624972 C5.24999597,23.638997 0.0093926217,18.4218311 -2.48689958e-14,12.0187397 C-0.00466068952,8.11402484 1.91720973,4.65466725 4.86561273,2.5406281 C5.41405808,2.15157568 6.1781096,2.31563779 6.50623382,2.90157389 L7.2468479,4.21873994 C7.52342805,4.71092627 7.39218752,5.33435313 6.93749195,5.67186148 C4.99218409,7.11559888 3.74999955,9.40308427 3.74999955,11.9953022 C3.74533037,16.3218452 7.24217872,19.8749526 11.6249808,19.8749526 C15.9187022,19.8749526 19.5280686,16.3968268 19.499962,11.9484273 C19.4859087,9.52027149 18.3421431,7.17652708 16.3078004,5.6671923 C15.8531048,5.32968395 15.7265335,4.70625709 16.0031136,4.21873994 Z M12.374979,0 C12.9984058,0 13.4999763,0.501570459 13.4999763,1.12499732 L13.4999763,12.3749705 C13.4999763,12.9983974 12.9984058,13.4999678 12.374979,13.4999678 L10.8749826,13.4999678 C10.2515557,13.4999678 9.74998524,12.9983974 9.74998524,12.3749705 L9.74998524,1.12499732 C9.74998524,0.501570459 10.2515557,0 10.8749826,0 Z"></path></clipPath></defs><g clip-path="url(#i0)"><polygon points="-8.45799483e-06,0 23.2499531,0 23.2499531,23.6250002 -8.45799483e-06,23.6250002 -8.45799483e-06,0" stroke="none" fill="#151515"></polygon></g></svg>