<?xml version="1.0" encoding="UTF-8"?><svg version="1.1" width="24px" height="24px" viewBox="0 0 24.0 24.0" xmlns="http://www.w3.org/2000/svg" xmlns:xlink="http://www.w3.org/1999/xlink"><defs><clipPath id="i0"><path d="M12.4772575,1.97663382 C14.2130475,0.241347432 16.6585067,-0.351638215 18.8794334,0.19868396 C19.3055189,0.304610221 19.4550699,0.833371778 19.1447526,1.14368903 L15.6591195,4.62927642 L16.1893001,7.81113834 L19.371162,8.34131897 L22.8567952,4.8556858 C23.1652356,4.54724537 23.6949127,4.69070816 23.7999234,5.11395544 C24.3525344,7.33630122 23.7605101,9.78551413 22.0228891,11.5231809 C20.1525627,13.3935072 17.4643062,13.9105043 15.1149313,13.1272267 L5.12073822,23.1214198 C3.94932377,24.2928343 2.04997528,24.2928343 0.878560833,23.1214198 C-0.292853611,21.9500054 -0.292853611,20.0506569 0.878560833,18.8792424 L10.8811768,8.87662653 C10.1077411,6.52816716 10.6191535,3.83473791 12.4772575,1.97663382 Z M3.00010729,19.8748761 C2.37901502,19.8748761 1.87510997,20.3783233 1.87510997,20.9998734 C1.87510997,21.6209656 2.37901502,22.1248707 3.00010729,22.1248707 C3.62119956,22.1248707 4.12510461,21.6209656 4.12510461,20.9998734 C4.12510461,20.3783233 3.62119956,19.8748761 3.00010729,19.8748761 Z"></path></clipPath></defs><g transform=""><g clip-path="url(#i0)"><polygon points="0,1.24344979e-14 24.0000035,1.24344979e-14 24.0000035,23.9999807 0,23.9999807 0,1.24344979e-14" stroke="none" fill="#151515"></polygon></g></g></svg>