<?xml version="1.0" encoding="UTF-8"?>
<svg width="64px" height="40px" viewBox="0 0 64 40" version="1.1" xmlns="http://www.w3.org/2000/svg" xmlns:xlink="http://www.w3.org/1999/xlink">
    <title></title>
    <g id="Tabs-" stroke="none" stroke-width="1" fill="none" fill-rule="evenodd">
        <g id="Tabs-/-4.-Overflow-arrows-/-Left-/-Disabled">
            <rect id="Background" fill="#FFFFFF" x="0" y="0" width="64" height="40"></rect>
            <rect id="Right-border" fill="#D2D2D2" transform="translate(63.500000, 20.000000) scale(1, -1) translate(-63.500000, -20.000000) " x="63" y="0" width="1" height="40"></rect>
            <g id="Arrow" transform="translate(29.000000, 15.000000)" fill="#D2D2D2">
                <path d="M5.5324209,9.78279833 L6.23865701,9.07341892 C6.53241852,8.78280072 6.53241852,8.30779574 6.23865701,8.01406476 L3.22618251,5.00155973 L6.23554423,1.98594192 C6.52927522,1.69532372 6.52927522,1.22031875 6.23554423,0.926557239 L5.5292776,0.22032113 C5.2386594,-0.0734403767 4.76365443,-0.0734403767 4.46992344,0.22032113 L0.21993357,4.470311 C-0.0738279369,4.7640725 -0.0738279369,5.23904696 0.223046355,5.53280846 L4.47303622,9.78279833 C4.76365443,10.0765598 5.2386594,10.0765598 5.5324209,9.78279833 Z" id="angle-left"></path>
            </g>
            <rect id="Bottom-border" fill="#D2D2D2" x="0" y="39" width="64" height="1"></rect>
        </g>
    </g>
</svg>