<?xml version="1.0" encoding="UTF-8"?>
<svg width="64px" height="40px" viewBox="0 0 64 40" version="1.1" xmlns="http://www.w3.org/2000/svg" xmlns:xlink="http://www.w3.org/1999/xlink">
    <title></title>
    <g id="Tabs-" stroke="none" stroke-width="1" fill="none" fill-rule="evenodd">
        <g id="Tabs-/-4.-Overflow-arrows-/-Left-/-Disabled">
            <rect id="Background" fill="#FFFFFF" x="0" y="0" width="64" height="40"></rect>
            <rect id="Right-border" fill="#D2D2D2" transform="translate(63.500000, 20.000000) scale(1, -1) translate(-63.500000, -20.000000) " x="63" y="0" width="1" height="40"></rect>
            <g id="Arrow" transform="translate(20.000000, 8.000000)" fill="#D2D2D2">
                <path d="M14.5324209,16.7827983 L15.238657,16.0734189 C15.5324185,15.7828007 15.5324185,15.3077957 15.238657,15.0140648 L12.2261825,12.0015597 L15.2355442,8.98594192 C15.5292752,8.69532372 15.5292752,8.22031875 15.2355442,7.92655724 L14.5292776,7.22032113 C14.2386594,6.92655962 13.7636544,6.92655962 13.4699234,7.22032113 L9.21993357,11.470311 C8.92617206,11.7640725 8.92617206,12.239047 9.22304636,12.5328085 L13.4730362,16.7827983 C13.7636544,17.0765598 14.2386594,17.0765598 14.5324209,16.7827983 Z" id="angle-left"></path>
            </g>
            <rect id="Bottom-border" fill="#D2D2D2" x="0" y="39" width="64" height="1"></rect>
        </g>
    </g>
</svg>