<?xml version="1.0" encoding="UTF-8"?>
<svg width="450px" height="850px" viewBox="0 0 450 850" version="1.1" xmlns="http://www.w3.org/2000/svg" xmlns:xlink="http://www.w3.org/1999/xlink">
    <title></title>
    <defs>
        <rect id="path-1" x="0" y="1" width="450" height="850"></rect>
        <filter x="-1.8%" y="-1.4%" width="107.1%" height="102.8%" filterUnits="objectBoundingBox" id="filter-2">
            <feMorphology radius="4" operator="erode" in="SourceAlpha" result="shadowSpreadOuter1"></feMorphology>
            <feOffset dx="12" dy="0" in="shadowSpreadOuter1" result="shadowOffsetOuter1"></feOffset>
            <feGaussianBlur stdDeviation="6" in="shadowOffsetOuter1" result="shadowBlurOuter1"></feGaussianBlur>
            <feColorMatrix values="0 0 0 0 0   0 0 0 0 0   0 0 0 0 0  0 0 0 0.18 0" type="matrix" in="shadowBlurOuter1"></feColorMatrix>
        </filter>
    </defs>
    <g id="Drawer" stroke="none" stroke-width="1" fill="none" fill-rule="evenodd">
        <g id="Drawer-/-1.-Basic-overlay-/-1.-Left-panel">
            <g id="Rectangle-Copy-2">
                <use fill="black" fill-opacity="1" filter="url(#filter-2)" xlink:href="#path-1"></use>
                <use fill="#FFFFFF" fill-rule="evenodd" xlink:href="#path-1"></use>
            </g>
            <g id="Button-/-6.-Icon-button-/-Default" transform="translate(386.000000, 24.000000)">
                <g id="ðŸ–¼-Icon" transform="translate(15.000000, 13.000000)" fill="#6A6E73">
                    <g id="times">
                        <path d="M2.37280471,10.7121708 L5.5,7.584981 L8.62718433,10.7121708 C9.01091144,11.0959284 9.63340751,11.0959284 10.0171651,10.7121708 L10.7121708,10.0171651 C11.0959284,9.63340751 11.0959284,9.01124713 10.7121708,8.62718433 L7.584981,5.5 L10.7121708,2.37280471 C11.0959284,1.98907759 11.0959284,1.36688669 10.7121708,0.98282389 L10.0171651,0.287818222 C9.63340751,-0.0959394075 9.01124713,-0.0959394075 8.62718433,0.287818222 L5.5,3.41500803 L2.37280471,0.287818222 C1.98907759,-0.0959394075 1.36688669,-0.0959394075 0.98282389,0.287818222 L0.287818222,0.98282389 C-0.0959394075,1.36658152 -0.0959394075,1.9887419 0.287818222,2.37280471 L3.41500803,5.5 L0.287818222,8.62718433 C-0.0959394075,9.01091144 -0.0959394075,9.63310234 0.287818222,10.0171651 L0.98282389,10.7121708 C1.36658152,11.0959284 1.98907759,11.0959284 2.37280471,10.7121708 Z"></path>
                    </g>
                    <rect id="ðŸŽ¨-Color" x="-7" y="-7" width="24" height="24"></rect>
                </g>
                <g id="ðŸ“-Padding" fill-opacity="0.9">
                    <g id="Spacer-/-Horizontal-/-3.-pf-global--spacer--md-(16px)" fill="#92D400" stroke="#7FB300">
                        <rect id="Rectangle-Copy" x="0.5" y="0.5" width="7" height="35"></rect>
                    </g>
                    <g id="Spacer-/-Horizontal-/-3.-pf-global--spacer--md-(16px)" transform="translate(32.000000, 0.000000)" fill="#92D400" stroke="#7FB300">
                        <rect id="Rectangle-Copy" x="0.5" y="0.5" width="7" height="35"></rect>
                    </g>
                    <g id="Spacer-/-Vertical-/-8.-pf-global--spacer--form-element-(6px)" transform="translate(8.000000, 0.000000)" fill="#F3D53C" stroke="#CBB534">
                        <rect id="Rectangle" x="0.5" y="0.5" width="23" height="5"></rect>
                    </g>
                    <g id="Spacer-/-Vertical-/-8.-pf-global--spacer--form-element-(6px)" transform="translate(8.000000, 30.000000)" fill="#F3D53C" stroke="#CBB534">
                        <rect id="Rectangle" x="0.5" y="0.5" width="23" height="5"></rect>
                    </g>
                </g>
            </g>
        </g>
    </g>
</svg>