<?xml version="1.0" encoding="UTF-8"?><svg version="1.1" width="450px" height="850px" viewBox="0 0 450.0 850.0" xmlns="http://www.w3.org/2000/svg" xmlns:xlink="http://www.w3.org/1999/xlink"><defs><filter id="i0" x="-6.11353712%" y="-4.66200466%" filterUnits="userSpaceOnUse" width="115.720524%" height="108.391608%"><feGaussianBlur stdDeviation="6" in="SourceAlpha" result="i1"></feGaussianBlur><feOffset dx="12" dy="0" in="i1" result="i2"></feOffset><feColorMatrix values="0 0 0 0.0 0 0 0 0 0.0 0 0 0 0 0.0 0 0 0 0 0.18 0" type="matrix" in="i2"></feColorMatrix></filter><clipPath id="i3"><path d="M450,0 L450,850 L0,850 L0,0 L450,0 Z"></path></clipPath><clipPath id="i4"><path d="M0.98282389,0.287818222 C1.36688669,-0.0959394075 1.98907759,-0.0959394075 2.37280471,0.287818222 L5.5,3.41500803 L8.62718433,0.287818222 C9.01124713,-0.0959394075 9.63340751,-0.0959394075 10.0171651,0.287818222 L10.7121708,0.98282389 C11.0959284,1.36688669 11.0959284,1.98907759 10.7121708,2.37280471 L7.584981,5.5 L10.7121708,8.62718433 C11.0959284,9.01124713 11.0959284,9.63340751 10.7121708,10.0171651 L10.0171651,10.7121708 C9.63340751,11.0959284 9.01091144,11.0959284 8.62718433,10.7121708 L5.5,7.584981 L2.37280471,10.7121708 C1.98907759,11.0959284 1.36658152,11.0959284 0.98282389,10.7121708 L0.287818222,10.0171651 C-0.0959394075,9.63310234 -0.0959394075,9.01091144 0.287818222,8.62718433 L3.41500803,5.5 L0.287818222,2.37280471 C-0.0959394075,1.9887419 -0.0959394075,1.36658152 0.287818222,0.98282389 Z"></path></clipPath><clipPath id="i5"><path d="M24,0 L24,24 L0,24 L0,0 L24,0 Z"></path></clipPath></defs><g transform="translate(0.0 1.0)"><polygon points="8,8 442,8 442,842 8,842 8,8" stroke="none" fill="#000000" filter="url(#i0)"></polygon><g clip-path="url(#i3)"><polygon points="0,0 450,0 450,850 0,850 0,0" stroke="none" fill="#FFFFFF"></polygon></g></g><g transform="translate(386.0 24.0)"><g transform="translate(8.0 6.0)"><g transform="translate(7.000000000000001 7.000000000000001)"><g clip-path="url(#i4)"><polygon points="0,0 10.999989,0 10.999989,10.999989 0,10.999989 0,0" stroke="none" fill="#696E73"></polygon><g clip-path="url(#i5)"><polygon points="0,0 10.999989,0 10.999989,10.999989 0,10.999989 0,0" stroke="none" fill="#696E73"></polygon></g></g></g></g></g></svg>