<?xml version="1.0" encoding="UTF-8"?>
<svg width="107px" height="40px" viewBox="0 0 107 40" version="1.1" xmlns="http://www.w3.org/2000/svg" xmlns:xlink="http://www.w3.org/1999/xlink">
    <title></title>
    <g id="Drill-down-menu" stroke="none" stroke-width="1" fill="none" fill-rule="evenodd">
        <g id="Drill-down-menu-/-2.-Menu-items-/-3.-Standard-with-icon-/-1.-Default">
            <rect id="Background" fill="#FFFFFF" x="0" y="-3.55271368e-15" width="107" height="40"></rect>
            <g id="pficon-storage-domain" transform="translate(12.000000, 8.000000)" fill="#151515">
                <path d="M4,13.4117647 L4,12 C4,12 4,11.7294118 4.21323529,12 C4.65147059,12.5573529 5.99705882,13.4117647 10.1176471,13.4117647 C10.2823529,13.4117647 10.4441176,13.4102941 10.6,13.4073529 C10.6808824,13.4058824 10.7382353,13.4838235 10.7132353,13.5602941 C10.7014706,13.5955882 10.6911765,13.6308824 10.6808824,13.6661765 C10.5411765,14.1544118 10.4897059,14.6573529 10.5279412,15.1632353 C10.5338235,15.2308824 10.4808824,15.2897059 10.4117647,15.2911765 C10.3132353,15.2926509 10.2147059,15.2926509 10.1147059,15.2926509 C6.73823529,15.2941176 4,14.4514706 4,13.4117647 M12.8544118,18.6441176 C12.9573529,18.6955882 12.9323529,18.8485294 12.8191176,18.8661765 C12.0044118,18.9897059 11.0867647,19.0588235 10.1176471,19.0588235 C6.73823529,19.0573529 4,18.2161765 4,17.1764706 L4,15.2941176 C4,15.2941176 4,15.0235294 4.21323529,15.2941176 C4.65147059,15.8529412 5.99705882,16.7088235 10.1176471,16.7058824 C10.3779412,16.7058824 10.6264706,16.7014706 10.8647059,16.6955882 C10.9102941,16.6941176 10.9529412,16.7191176 10.9735294,16.7602941 C11.3838235,17.575 12.0470588,18.2352941 12.8544118,18.6441176 M4,6.82352941 L4,5.88235294 C4,4.84264706 6.73823529,4 10.1176471,4 C13.4970588,4 16.2352941,4.84264706 16.2352941,5.88235294 L16.2352941,6.82352941 C16.2352941,7.86323529 13.4970588,8.70588235 10.1176471,8.70588235 C6.73823529,8.70588235 4,7.86323529 4,6.82352941 M4,10.1176471 L4,8.70588235 C4,8.70588235 4,8.43529412 4.21323529,8.70588235 C4.65147059,9.26323529 5.99705882,10.1176471 10.1176471,10.1176471 C14.2382353,10.1176471 15.5838235,9.26323529 16.0220588,8.70588235 C16.2352941,8.43529412 16.2352941,8.70588235 16.2352941,8.70588235 L16.2352941,10.1176471 C16.2352941,10.3147059 16.1367647,10.5044118 15.9544118,10.6823529 C15.925,10.7102941 15.8838235,10.7220588 15.8441176,10.7117647 C15.5044118,10.625 15.15,10.5779412 14.7852941,10.5779412 C14.6117647,10.5779412 14.4367647,10.5882353 14.2647059,10.6102941 C13.6941176,10.6794118 13.1544118,10.8602941 12.6588235,11.1441176 C12.2985294,11.3514706 11.9735294,11.6073529 11.6897059,11.9058824 C11.6691176,11.9264706 11.6426471,11.9397059 11.6132353,11.9426471 C11.1338235,11.9794118 10.6338235,12 10.1176471,12 C6.73823529,12 4,11.1573529 4,10.1176471 M19.6970588,17.8838235 L17.7235294,16.5823529 C17.5279412,16.4441176 17.3308824,16.3911765 17.175,16.4102941 C17.1676471,16.4102941 17.1617647,16.4132353 17.1544118,16.4132353 C17.5176471,15.8647059 17.6926471,15.1926471 17.6088235,14.4941176 C17.4220588,12.9338235 16,11.8205882 14.4367647,12.0117647 C12.8735294,12.2029412 11.7617647,13.6220588 11.95,15.1852941 C12.1382353,16.7485294 13.5602941,17.8602941 15.1235294,17.6691176 C15.8264706,17.5852941 16.4338235,17.2485294 16.8779412,16.7676471 C16.8911765,16.9294118 16.9926471,17.1176471 17.1808824,17.2823529 L18.9191176,18.8823529 C19.0529412,19 19.2161765,19.0588235 19.3764706,19.0588235 C19.5617647,19.0588235 19.7661765,18.9573529 19.8705882,18.8220588 C19.9617647,18.7044118 20,18.5882353 20,18.4264706 C20,18.2220588 19.8897059,18.0176471 19.6970588,17.8838235 Z M15.0117647,16.7279412 C13.9691176,16.8558824 13.0191176,16.1132353 12.8941176,15.0705882 C12.7691176,14.0279412 13.5088235,13.0779412 14.5514706,12.9529412 C15.5941176,12.8279412 16.5441176,13.5676471 16.6691176,14.6102941 C16.7926471,15.6529412 16.0544118,16.6 15.0117647,16.7279412 Z"></path>
            </g>
            <text id="✏️-Label" font-family="RedHatText-Regular, Red Hat Text" font-size="16" font-weight="normal" line-spacing="24" fill="#151515">
                <tspan x="40" y="24">Option</tspan>
            </text>
        </g>
    </g>
</svg>