<?xml version="1.0" encoding="UTF-8"?><svg version="1.1" width="41px" height="48px" viewBox="0 0 41.0 48.0" xmlns="http://www.w3.org/2000/svg" xmlns:xlink="http://www.w3.org/1999/xlink"><defs><clipPath id="i0"><path d="M18.5940757,0 C20.1972175,1.93005292 22.1272704,4.16600569 23.4983609,5.09410788 C25.7343136,6.57066686 27.9807721,7.1507436 30.3221933,8.62730258 C31.7460181,9.50267052 40.4999034,15.693692 40.4999034,27.5377838 C40.4999034,39.3502556 31.1659413,47.1549245 20.4397744,47.1549245 C9.68198757,47.1549245 0,38.6858247 0,27.168644 C0,15.6725777 8.96482238,9.50267052 10.6312041,8.62730258 C12.6034856,7.56200895 14.0273103,7.01365515 16.2737687,5.22069068 C17.381188,4.34521974 18.3092901,3.09020641 18.5940757,0 Z M30.5858646,42.9678045 C31.0288529,42.5248162 30.7862959,41.5862084 30.1428763,42.0713223 C29.246394,42.7357532 27.2424926,43.5478813 24.3948431,43.5478813 C20.7561799,43.5478813 18.9632154,42.1451708 18.9632154,42.1451708 C18.3092901,42.1451708 17.771442,42.9045646 18.2776702,43.4107928 C21.0831941,45.994771 28.465989,45.0877831 30.5858646,42.9678045 Z M28.7190516,37.5572911 C27.8964179,37.019443 25.7554279,37.0404543 24.8378314,37.4202027 C24.1522862,37.7049882 21.8424848,39.1920529 22.4752958,40.0569151 C22.7284614,40.4049406 23.0237526,40.1940036 23.7620321,39.5611926 C24.5214259,38.9494959 25.0276541,38.4010391 26.5780616,38.4010391 C29.246394,38.4010391 28.4870003,40.4999034 29.3729768,40.0569151 C30.4171562,39.5400783 29.1515342,37.8525823 28.7190516,37.5572911 Z M16.1894145,27.3584667 C9.18626502,27.4006953 6.63400976,35.6483525 10.7261669,38.4537734 C16.7589856,42.5354249 24.4791973,33.9291336 27.7382151,34.0240964 C29.7948508,34.097945 32.9905257,39.1393186 34.5936675,39.2447871 C38.7174446,39.5928126 41.3963857,28.0651263 36.2600492,28.0651263 C35.2756765,28.0651263 33.8204456,29.0183271 32.3198919,30.0382882 L31.6752633,30.4769174 C30.1704446,31.4978622 28.6810939,32.4589329 27.6327466,32.4736889 C25.0276541,32.5264232 21.4101052,27.3057325 16.1894145,27.3584667 Z"></path></clipPath></defs><g clip-path="url(#i0)"><polygon points="0,0 40.4999034,0 40.4999034,47.1549245 0,47.1549245 0,0" stroke="none" fill="#151515"></polygon></g></svg>