<?xml version="1.0" encoding="UTF-8"?><svg version="1.1" width="53px" height="52px" viewBox="0 0 53.0 52.0" xmlns="http://www.w3.org/2000/svg" xmlns:xlink="http://www.w3.org/1999/xlink"><defs><clipPath id="i0"><path d="M25.8186678,0 C40.4471692,0 52.3123753,11.1058123 52.3123753,25.7343136 C52.3123753,37.4308113 45.1616317,47.43971 34.6147818,50.9412848 C33.2753113,51.1838417 32.7901974,50.3507024 32.7901974,49.6651572 L32.7908925,49.3567071 C32.7941845,48.4156954 32.808379,46.1570843 32.8163435,43.7666483 L32.8183484,43.1123337 C32.8195648,42.6751329 32.8205237,42.2371378 32.8211223,41.8054755 L32.8218173,40.8479289 C32.8218173,38.3694192 31.9991837,36.7873917 31.0288529,35.9542524 C31.5971061,35.8902009 32.1682998,35.8247792 32.7365878,35.749733 L33.1621677,35.6915147 C38.3312056,34.9580984 43.1366159,33.2514632 43.1366159,24.2999833 C43.1366159,21.4101052 42.1030452,19.9546605 40.4155492,18.0878475 C40.6897261,17.4023023 41.5862084,14.5862727 40.1412693,10.9264953 C37.9370395,10.2304444 32.8639429,13.7741447 32.8639429,13.7741447 C30.754573,13.1835623 28.4870003,12.8776625 26.2405418,12.8776625 C23.9940834,12.8776625 21.7265107,13.1835623 19.6171407,13.7741447 C19.6171407,13.7741447 14.5441471,10.24095 12.3398143,10.9264953 C10.8948753,14.5757671 11.7913575,17.4023023 12.0656374,18.0878475 C10.3781415,19.9440519 9.57651907,21.3995996 9.57651907,24.2999833 C9.57651907,34.4459704 15.5249836,35.3003271 21.4206109,35.9542524 C20.6613201,36.6503032 19.9757748,37.8209624 19.7331149,39.5084584 C18.2249359,40.2046122 14.3542215,41.3752714 12.0445231,37.3042285 C10.5995841,34.7940989 7.97337729,34.5831619 7.97337729,34.5831619 L7.79312005,34.5838039 C5.6201473,34.6288571 7.5862456,36.0535279 7.78828787,36.1958824 L7.80466889,36.207315 C9.53439347,36.9983287 10.7366726,40.0675238 10.7366726,40.0675238 C12.2870801,44.7924919 19.669875,43.2104645 19.669875,43.2104645 C19.669875,45.2725554 19.6972839,48.5414446 19.7010645,49.5101816 L19.7014949,49.6861685 C19.7014949,50.3717137 19.2268867,51.204956 17.8769105,50.9623991 C7.3616806,47.43971 0,37.4308113 0,25.7343136 C0,11.1058123 11.1901665,0 25.8186678,0 Z M16.9065797,40.6897261 C17.2229852,40.6581062 17.4972651,40.8268146 17.4972651,41.0694745 C17.4972651,41.2804115 17.2546052,41.4491199 16.9488083,41.4491199 C16.6007829,41.4807399 16.3581229,41.3120315 16.3581229,41.0694745 C16.3581229,40.8585375 16.6007829,40.6897261 16.9065797,40.6897261 Z M18.8788612,40.4155492 C19.1847611,40.3839293 19.4694436,40.5210177 19.5011666,40.7213461 C19.5327865,40.9322831 19.3218495,41.1327144 19.0159497,41.206563 C18.6995442,41.2804115 18.4253673,41.1432201 18.3937473,40.9322831 C18.3620244,40.6897261 18.5729614,40.4893978 18.8788612,40.4155492 Z M14.217133,40.5948663 C14.2909816,40.3839293 14.5968814,40.2784608 14.8710583,40.3522063 C15.1874638,40.4471692 15.3878951,40.6897261 15.3245522,40.9006631 C15.2613123,41.1116001 14.9449068,41.2170686 14.6706269,41.1116001 C14.3542215,41.0483602 14.1432845,40.8058033 14.217133,40.5948663 Z M12.529637,39.2765101 C12.6667255,39.1076987 12.983131,39.1393186 13.2151823,39.3819786 C13.4261193,39.5823069 13.4894622,39.8987124 13.3522707,40.0358008 C13.2151823,40.2046122 12.9093854,40.1729923 12.6667255,39.9303323 C12.4241685,39.730004 12.3609286,39.4135985 12.529637,39.2765101 Z M11.3273579,37.7261025 C11.4960663,37.5890141 11.7702432,37.6944826 11.9179403,37.9370395 C12.0866487,38.1795965 12.0866487,38.4537734 11.9179403,38.5909648 C11.7808519,38.6964333 11.4960663,38.5909648 11.3273579,38.3483049 C11.1585465,38.1057479 11.1585465,37.831571 11.3273579,37.7261025 Z M10.2515587,36.3761263 C10.3886471,36.2389349 10.6312041,36.3127834 10.8000154,36.4815948 C10.9792295,36.6819232 11.0109524,36.9244801 10.873761,37.0299486 C10.7366726,37.1671401 10.4941156,37.0932915 10.3254072,36.9244801 C10.1460902,36.7241518 10.1144702,36.4815948 10.2515587,36.3761263 Z M9.11251947,35.5217697 C9.18626502,35.4163012 9.35507642,35.3846813 9.56601342,35.4479212 C9.77695041,35.5533897 9.88241891,35.7222011 9.80857036,35.8592895 C9.73472182,36.0069866 9.52378482,36.0386066 9.35507642,35.9331381 C9.14413942,35.8276696 9.03867092,35.6588582 9.11251947,35.5217697 Z"></path></clipPath></defs><g clip-path="url(#i0)"><polygon points="0,0 52.3123753,0 52.3123753,51.0053624 0,51.0053624 0,0" stroke="none" fill="#151515"></polygon></g></svg>