<?xml version="1.0" encoding="UTF-8"?><svg version="1.1" width="56px" height="51px" viewBox="0 0 56.0 51.0" xmlns="http://www.w3.org/2000/svg" xmlns:xlink="http://www.w3.org/1999/xlink"><defs><clipPath id="i0"><path d="M9.10655193,0.704033127 C9.44407173,-0.234677709 10.7729336,-0.234677709 11.0999478,0.704033127 C11.0999478,0.704033127 12.3926048,4.70325796 13.7748615,8.9764023 L14.0194743,9.73257179 C15.5306359,14.4037998 17.0640988,19.1399061 17.0694236,19.1399061 L36.9397299,19.1399061 L42.9092057,0.704033127 C43.2467255,-0.234677709 44.5755874,-0.234677709 44.9026015,0.704033127 L50.8615717,19.1399061 L36.9502355,19.1399061 L27.0045767,50.1476446 L17.0589179,19.1399061 L3.14758177,19.1399061 Z M3.13707611,19.1399061 L26.9940711,50.1476446 L0.848389097,30.7414409 C0.131223906,30.2034898 -0.174675938,29.2648819 0.0996039558,28.4211339 L3.13707611,19.1399061 Z M50.8720774,19.1399061 L53.9095495,28.4211339 C54.1732208,29.2648819 53.8779296,30.2034898 53.1502587,30.7414409 L27.0045767,50.1476446 L50.8720774,19.1399061 Z"></path></clipPath></defs><g transform="translate(0.9999999999999716 0.0)"><g clip-path="url(#i0)"><polygon points="1.79023463e-15,-1.11022302e-16 54.004564,-1.11022302e-16 54.004564,50.1476446 1.79023463e-15,50.1476446 1.79023463e-15,-1.11022302e-16" stroke="none" fill="#151515"></polygon></g></g></svg>