<?xml version="1.0" encoding="UTF-8"?><svg version="1.1" width="52px" height="53px" viewBox="0 0 52.0 53.0" xmlns="http://www.w3.org/2000/svg" xmlns:xlink="http://www.w3.org/1999/xlink"><defs><clipPath id="i0"><path d="M26.1561876,0 C33.2014627,0 39.128813,2.58397821 43.6955783,6.84494675 L36.5764547,13.6897905 C27.2636069,4.70385384 9.94565881,11.4538377 9.94565881,26.1561876 C9.94565881,35.2792128 17.2335939,42.6725133 26.1561876,42.6725133 C36.5132148,42.6725133 40.3944349,35.2475928 41.0061316,31.3979926 L26.1561876,31.3979926 L26.1561876,22.4015503 L51.0572589,22.4015503 C51.2999189,23.7409178 51.4686273,25.0276541 51.4686273,26.7678843 C51.4686273,41.6916769 41.2486886,52.3123753 26.1561876,52.3123753 C11.685889,52.3123753 0,40.6264862 0,26.1561876 C0,11.685889 11.685889,0 26.1561876,0 Z"></path></clipPath></defs><g clip-path="url(#i0)"><polygon points="0,0 51.4686273,0 51.4686273,52.3123753 0,52.3123753 0,0" stroke="none" fill="#151515"></polygon></g></svg>