<?xml version="1.0" encoding="UTF-8"?><svg version="1.1" width="48px" height="48px" viewBox="0 0 48.0 48.0" xmlns="http://www.w3.org/2000/svg" xmlns:xlink="http://www.w3.org/1999/xlink"><defs><clipPath id="i0"><path d="M43.8748954,0 C45.7310998,0 47.2498873,1.52929323 47.2498873,3.4066119 L47.2498873,43.8432754 C47.2498873,45.7205941 45.7310998,47.2498873 43.8748954,47.2498873 L3.3644863,47.2498873 C1.50817893,47.2498873 0,45.7205941 0,43.8432754 L0,3.4066119 C0,1.52929323 1.50817893,0 3.3644863,0 Z M32.1256635,17.3917966 C28.7190516,17.3917966 26.4303645,19.2585066 25.4917567,21.0304598 L25.3967938,21.0304598 L25.3967938,17.9507591 L18.6784299,17.9507591 L18.6784299,40.4999034 L25.6815794,40.4999034 L25.6815794,29.3413569 C25.6815794,26.3987446 26.2405418,23.5510951 29.8898137,23.5510951 C33.0859678,23.5510951 33.4752691,26.2239219 33.5221381,28.6570058 L33.5268386,29.0110174 C33.5282526,29.1868294 33.5284769,29.3605971 33.5284769,29.5311796 L33.5284769,40.4999034 L40.5315234,40.4999034 L40.5315234,28.1389748 C40.5315234,22.0640305 39.2131672,17.3917966 32.1256635,17.3917966 Z M14.2909816,17.9507591 L7.2773264,17.9507591 L7.2773264,40.4999034 L14.2909816,40.4999034 L14.2909816,17.9507591 Z M10.7789012,6.74998391 C8.53244273,6.74998391 6.71836396,8.57456833 6.71836396,10.8105211 C6.71836396,13.0464739 8.53244273,14.8710583 10.7789012,14.8710583 C13.0253596,14.8710583 14.8394383,13.0569795 14.8394383,10.8105211 C14.8394383,8.57456833 13.0148539,6.74998391 10.7789012,6.74998391 Z"></path></clipPath></defs><g clip-path="url(#i0)"><polygon points="0,0 47.2498873,0 47.2498873,47.2498873 0,47.2498873 0,0" stroke="none" fill="#151515"></polygon></g></svg>