<?xml version="1.0" encoding="UTF-8"?><svg version="1.1" width="45px" height="55px" viewBox="0 0 45.0 55.0" xmlns="http://www.w3.org/2000/svg" xmlns:xlink="http://www.w3.org/1999/xlink"><defs><clipPath id="i0"><path d="M23.4272974,0 C30.7261339,0.00901290203 31.4263318,6.59350438 31.4432228,11.527461 L31.4431558,11.9403022 C31.4407739,12.6212094 31.4281425,13.2647778 31.421789,13.8480238 C31.390169,17.0226874 33.1410079,19.174183 34.944478,21.4417557 C36.5476198,23.3401887 38.6463811,26.1139896 39.8487632,29.2886532 C40.8295996,31.8831371 41.209348,34.7519008 40.2390173,37.6311702 C40.3866114,37.6839045 40.5343084,37.757753 40.6713969,37.8421072 C40.819094,37.9264614 40.9561824,38.0319299 41.0932709,38.1480071 C41.7894248,38.7385895 42.0108674,39.656186 42.2006901,40.5104396 C42.4011215,41.3647963 42.5804385,42.1663157 42.9600839,42.5881897 C44.1307431,43.8960403 44.6370742,44.8557624 44.5948456,45.7206247 C44.5421114,46.585487 43.9093004,47.1760694 43.1287923,47.6506776 C41.5573735,48.5998941 39.1948379,49.3170593 37.7605075,51.0467839 C36.2628343,52.8292427 34.4171355,53.8522047 32.6663997,53.9893962 C30.9261694,54.1264846 29.2914077,53.3248622 28.4159368,51.5636207 L28.4159368,51.553012 C28.2999626,51.3315694 28.2156084,51.0890125 28.1522655,50.8463525 C25.8846928,50.9729353 23.9125143,50.2873901 22.3409924,50.4139729 C20.0206855,50.5405557 18.5652408,51.0995181 17.2468846,51.1100238 C16.7406564,52.2280516 15.7387056,52.9663311 14.5152093,53.240508 C12.8277133,53.6307621 10.7078377,53.240508 8.61958199,52.1436974 C6.66841476,51.1100238 4.18990505,51.2049866 2.36521763,50.8253412 C1.44772409,50.6354155 0.6461017,50.2979987 0.245342005,49.5279963 C-0.144912039,48.7580968 -0.0710634907,47.7034118 0.477393301,46.1847273 C0.656710348,45.6467761 0.519518903,44.8452567 0.393039102,43.9909001 C0.329696204,43.5796348 0.266456304,43.1577608 0.266456304,42.7463924 C0.266456304,42.2928985 0.340304852,41.8499102 0.561747501,41.4386448 C1.03635574,40.5421626 1.80625518,40.1624142 2.51291472,39.9093516 C3.21957426,39.656186 3.86289091,39.4874776 4.3058792,39.0338807 C4.85433599,38.4538039 5.37106984,37.5151961 6.05661508,36.9034994 C5.78243818,35.0894206 6.07772938,33.1698733 6.71054037,31.281946 C8.03950525,27.2847517 10.8449261,23.4562658 12.8383219,21.0832246 C14.5363236,18.6679548 15.0320461,16.7272932 15.2113631,14.2593922 C15.3273373,10.9055145 12.6273849,-0.0210837408 23.4272974,0 Z M32.2128027,36.766308 C32.1811828,36.7874223 32.1390572,36.7980309 32.1073342,36.8190422 C31.3585491,37.2304105 30.9366751,37.9581844 30.6624982,39.0444893 C30.3988269,40.1202886 30.3038641,41.522999 30.2195099,43.1261408 C30.1456613,44.3706485 29.5655846,45.9104474 29.1753306,47.4081207 C28.8061908,48.8003254 28.5636339,50.0659474 29.0593564,51.2366066 C29.8187502,52.7658998 31.1159921,53.3882051 32.6136654,53.272128 C34.1112357,53.1561538 35.819846,52.2385573 37.2120507,50.5826813 C39.5323577,47.7772604 43.7827176,47.4503493 43.8776805,45.6783961 C43.9093004,45.1405479 43.5506663,44.3073056 42.4327414,43.0839122 C41.3780564,41.8921388 41.6733476,39.5929461 40.6292713,38.6964639 C39.9014975,38.0636529 39.1948379,38.1268928 38.2456214,38.1585127 C37.4334934,39.0866149 35.5245548,40.2257571 34.1956929,39.8776287 C32.9828052,39.5718318 32.2972599,38.1585127 32.2128027,36.766308 Z M8.17659369,36.914005 C7.36446566,36.7874223 6.84762882,37.0617021 6.30978067,37.6417789 C5.80355248,38.179627 5.38167848,38.9390208 4.80160174,39.5402119 C3.97896805,40.2257571 3.8207653,40.1940342 2.73435737,40.5842882 C2.06992643,40.8163395 1.54258394,41.0695051 1.17344419,41.7760616 C0.888658647,42.3034041 0.952001544,43.0627979 1.07858434,43.8854316 C1.20506414,44.7186739 1.39498984,45.6046505 1.14182424,46.4061699 L1.14182424,46.4272842 C0.61448175,47.8722232 0.61448175,48.7159712 0.867647345,49.2115908 C1.70078669,50.8358469 5.78243818,49.8550104 8.93598748,51.5213921 C12.2476365,53.2511167 16.5929593,53.3248622 16.8777448,49.6229591 C16.9991811,48.4372891 15.9883319,46.99788 14.8853022,45.5934556 L14.4938636,45.0996992 C13.7101059,44.1169722 12.9413883,43.168602 12.5535364,42.3561384 L10.486292,38.601501 C9.76912682,37.6311702 9.03084733,37.0405878 8.17659369,36.914005 Z M27.2875062,16.3476478 C26.812898,17.0226874 25.9796556,17.6027642 24.9354763,17.9296753 C24.4398568,18.0878781 23.9125143,18.5097521 23.258589,18.8788918 C21.7925357,19.7226398 20.094534,19.806994 18.7866834,18.752309 C18.3120752,18.3726636 17.9429355,17.9507896 17.4578216,17.6660041 C17.2890102,17.5710412 16.9198704,17.3179786 16.8038963,17.2336244 C16.5929593,21.2203131 13.9246269,26.2300667 12.6590049,29.1198418 C11.7836369,31.1975918 11.2668001,33.4230389 11.2035602,35.6061545 C8.90426454,32.5370624 10.5812549,28.6136136 11.4777371,26.915612 C12.4796878,25.0593046 12.6378906,24.5425708 12.3953336,24.7218878 C11.4882428,26.1984468 10.0750267,28.5503737 9.52656988,30.9655405 C9.24178433,32.2206569 9.18905008,33.4967845 9.55818983,34.6780523 C9.92732957,35.8593201 10.728952,36.945625 12.1527767,37.8316016 C12.1527767,37.8316016 14.7683749,39.3397805 16.1921996,41.2593278 C16.9726047,42.3140128 17.2152646,43.2316093 16.9726047,43.8854316 C16.7089334,44.5920911 15.9601483,44.8241424 15.2113631,44.8241424 C15.7175913,45.4569534 16.2976681,46.1952329 16.7300477,46.8912838 C20.6957251,49.6018448 25.3995789,48.5471598 28.7850765,46.131993 C29.1225963,44.9718395 29.4496105,43.8854316 29.5023447,43.0734066 C29.5866989,41.4702648 29.6710531,40.0464401 29.9663443,38.8651723 C30.2933584,37.5363104 30.9471807,36.4288912 32.2234114,35.9859029 C32.4659683,33.7604557 34.1956929,33.7604557 36.2628343,34.6675466 C38.2562301,35.5640289 39.0050152,36.3550426 38.6674954,37.4202332 C38.7729639,37.4202332 38.8784324,37.4097276 39.1104837,37.4202332 C39.6589405,35.6378774 37.6023048,34.4671153 35.8725802,33.7499501 C36.1784801,32.4843281 36.1257458,31.2082005 35.8304546,29.9847041 C35.1976436,27.3163717 33.4468047,24.9433305 32.1179429,23.7620627 C31.8753859,23.751557 31.8963972,23.962494 32.3921198,24.4476079 C33.6156161,25.5761415 36.3050629,29.6366786 34.8495152,33.4019246 C34.4382498,33.2964561 34.0479958,33.2437219 33.6999703,33.2542275 C33.1410079,30.1851354 31.8542716,27.6432828 31.210852,26.4410037 C29.9979642,24.1839367 28.0995313,19.5539314 27.2875062,16.3476478 Z M20.9593963,11.7913881 C19.4406087,11.7913881 18.5125066,12.8249588 18.016784,13.2890614 C17.9640498,13.3417956 17.1835417,13.9113667 16.5297194,14.3964806 C16.0867311,14.7445061 15.939034,15.1769887 16.0867311,15.6937225 C16.2449338,16.2105594 16.7300477,16.8011418 17.6371386,17.30737 C18.4597723,17.7925869 18.9027606,18.5202577 19.7465086,18.8893974 C20.0206855,19.0054746 20.3475966,19.0898288 20.758965,19.1109431 C22.6996265,19.2269172 23.6171201,17.9191697 24.7878822,17.5394213 C26.0218842,17.1491672 26.9077578,16.3792678 27.1820377,15.6304826 C27.5194545,14.7340004 26.9604921,14.0800751 26.0746185,13.7109354 C24.8827421,13.1940985 24.3553996,13.1624786 23.6909686,12.7300989 C22.6046637,12.033945 21.7081815,11.7913881 20.9593963,11.7913881 Z M25.9058071,14.6179233 C26.2010983,14.6496462 25.9901613,14.9554431 25.578896,15.3140771 C25.1675276,15.6726082 24.5347166,16.1367108 24.0179828,16.4108877 C23.0370433,16.9277246 21.8874985,17.5500299 20.6640021,17.5500299 C19.4511144,17.5500299 18.4808866,16.9804588 17.7847327,16.432002 C17.4367073,16.1578251 17.1519217,15.8835452 16.9409847,15.6832169 C16.571845,15.3879257 16.6140736,14.987063 16.7616677,14.9976717 C17.0148333,15.0292916 17.0570619,15.3668114 17.2152646,15.5144055 C17.4262016,15.7148368 17.7003785,15.9785081 18.0272897,16.2421793 C18.681215,16.7590162 19.5565829,17.2652444 20.6534965,17.2652444 C21.7504101,17.2652444 23.0265377,16.6324334 23.8070458,16.1894451 C24.2499311,15.9362795 24.8089965,15.4933942 25.2729961,15.1558744 C25.6316302,14.8922032 25.6105159,14.5863033 25.9058071,14.6179233 Z M17.9640498,7.99452215 C15.9706539,7.99452215 15.4328058,11.9495908 17.0780732,13.4894927 C17.9008099,12.8883017 17.805847,12.9937702 17.7003785,12.909416 C16.8566305,12.1816421 17.0043276,10.0195379 17.8902012,9.94568937 C18.5546322,9.89295512 19.0292404,11.0742229 18.9027606,12.0129337 C19.2296717,11.7913881 19.6093171,11.6331853 19.9784569,11.5277168 C20.1577739,9.49219543 19.0292404,7.99452215 17.9640498,7.99452215 Z M26.8972522,9.16528428 C25.8636815,6.90821721 23.2902089,6.86598861 22.2566383,9.20740988 C21.9191185,9.96680367 21.8452699,10.7789317 21.9507384,11.5066026 C22.3304868,11.6015654 22.8894492,11.7597681 23.3218289,11.9707051 C23.1003862,10.6839689 23.7964371,9.49219543 24.5663366,9.54492968 C25.5050474,9.57654963 26.0323899,11.1796914 25.5261617,12.4241991 C25.4418075,12.6246304 25.2308705,12.7828332 25.1147934,12.909416 C25.8214529,13.1519729 26.2749468,13.3417956 26.4437582,13.4261498 C27.2768976,12.4241991 27.5827974,10.6628546 26.8972522,9.16528428 Z M21.6554472,12.7089846 C21.8241556,12.6140218 22.0562069,12.6457447 22.235524,12.7194903 C22.3726124,12.7828332 22.594158,12.877693 22.5730437,13.0253901 C22.5624351,13.1413643 22.383221,13.1835929 22.2671439,13.1835929 C22.1405611,13.1835929 22.0562069,13.0570101 21.9507384,13.0042758 C21.8347643,12.9410359 21.6238273,12.9621502 21.5922073,12.8249588 C21.571093,12.7828332 21.6132186,12.7300989 21.6554472,12.7089846 Z M19.6831657,12.7300989 C19.8624827,12.6562504 20.094534,12.6246304 20.2632424,12.7194903 C20.305471,12.7406046 20.3475966,12.7933388 20.3265853,12.8355674 C20.2843567,12.9621502 20.0734197,12.9410359 19.9574456,13.0042758 C19.8519771,13.0570101 19.7675199,13.1835929 19.6410401,13.1835929 C19.5355716,13.1940985 19.3562545,13.1413643 19.3456459,13.0358958 C19.3246346,12.8883017 19.5460772,12.7933388 19.6831657,12.7300989 Z"></path></clipPath></defs><g transform=""><g clip-path="url(#i0)"><polygon points="-3.60822483e-15,-3.04698612e-05 44.5972772,-3.04698612e-05 44.5972772,54.0044032 -3.60822483e-15,54.0044032 -3.60822483e-15,-3.04698612e-05" stroke="none" fill="#151515"></polygon></g></g></svg>