<?xml version="1.0" encoding="UTF-8"?>
<svg width="54px" height="54px" viewBox="0 0 54 54" version="1.1" xmlns="http://www.w3.org/2000/svg" xmlns:xlink="http://www.w3.org/1999/xlink">
    <title></title>
    <g id="Icons" stroke="none" stroke-width="1" fill="none" fill-rule="evenodd">
        <g id="Icons/4.-Size-xl/Brands/Open-Stack" fill="#151515">
            <path d="M5.02425385,1 C2.25766391,1.0078681 0.016766319,3.24851005 0.00858259949,6.01509908 L0.00858259949,17.8361993 L12.1987347,17.8361993 L12.1987347,15.9056865 C12.1986012,15.1861472 12.4843389,14.4960317 12.9930764,13.9871869 C13.5018139,13.4783422 14.1918691,13.1924591 14.9114085,13.1924409 L39.0885918,13.1924409 C39.8081308,13.1924596 40.4981857,13.4783429 41.0069228,13.9871875 C41.5156599,14.4960322 41.8013973,15.1861475 41.8012638,15.9056865 L41.8012638,17.8361993 L54,17.8361993 L54,6.01509908 C53.9901782,3.24249032 51.7397891,1 48.9671629,1 L5.02425385,1 Z M0,21.3218792 L0,33.5148908 L12.1924409,33.5148908 L12.1924409,21.3218792 L0,21.3218792 Z M41.7926832,21.3218792 L41.7926832,33.5148908 L53.9851239,33.5148908 L53.9851239,21.3218792 L41.7926832,21.3218792 Z M0,37.0011425 L0,48.8188117 C0.00661084365,51.5862957 2.24761925,53.8285829 5.01509908,53.836781 L48.9580082,53.836781 C51.7353198,53.8417866 53.9917453,51.5961156 54,48.8188117 L54,37.0011425 L41.7926832,37.0011425 L41.7926832,38.9316571 C41.7910299,40.4291402 40.5774915,41.6426774 39.0800083,41.644329 L14.9022537,41.644329 C13.404771,41.6426767 12.1912332,40.4291398 12.18958,38.9316571 L12.18958,37.0011425 L0,37.0011425 Z" id="openstack"></path>
        </g>
    </g>
</svg>