<?xml version="1.0" encoding="UTF-8"?><svg version="1.1" width="54px" height="54px" viewBox="0 0 54.0 54.0" xmlns="http://www.w3.org/2000/svg" xmlns:xlink="http://www.w3.org/1999/xlink"><defs><clipPath id="i0"><path d="M12.18958,36.0011425 L12.18958,37.9316571 C12.1912332,39.4291398 13.404771,40.6426767 14.9022537,40.644329 L39.0800083,40.644329 C40.5774915,40.6426774 41.7910299,39.4291402 41.7926832,37.9316571 L41.7926832,36.0011425 L54,36.0011425 L54,47.8188117 C53.9917453,50.5961156 51.7353198,52.8417866 48.9580082,52.836781 L5.01509908,52.836781 C2.24761925,52.8285829 0.00661084365,50.5862957 0,47.8188117 L0,36.0011425 L12.18958,36.0011425 Z M12.1924409,20.3218792 L12.1924409,32.5148908 L0,32.5148908 L0,20.3218792 L12.1924409,20.3218792 Z M53.9851239,20.3218792 L53.9851239,32.5148908 L41.7926832,32.5148908 L41.7926832,20.3218792 L53.9851239,20.3218792 Z M48.9671629,0 C51.7397891,0 53.9901782,2.24249032 54,5.01509908 L54,16.8361993 L41.8012638,16.8361993 L41.8012638,14.9056865 C41.8013973,14.1861475 41.5156599,13.4960322 41.0069228,12.9871875 C40.4981857,12.4783429 39.8081308,12.1924596 39.0885918,12.1924409 L14.9114085,12.1924409 C14.1918691,12.1924591 13.5018139,12.4783422 12.9930764,12.9871869 C12.4843389,13.4960317 12.1986012,14.1861472 12.1987347,14.9056865 L12.1987347,16.8361993 L0.00858259949,16.8361993 L0.00858259949,5.01509908 C0.016766319,2.24851005 2.25766391,0.00786809695 5.02425385,0 Z"></path></clipPath></defs><g transform="translate(0.0 0.9999999999999893)"><g clip-path="url(#i0)"><polygon points="0,0 54,0 54,52.8367893 0,52.8367893 0,0" stroke="none" fill="#151515"></polygon></g></g></svg>