<?xml version="1.0" encoding="UTF-8"?><svg version="1.1" width="54px" height="55px" viewBox="0 0 54.0 55.0" xmlns="http://www.w3.org/2000/svg" xmlns:xlink="http://www.w3.org/1999/xlink"><defs><clipPath id="i0"><path d="M9.196875,0 C9.41308594,0 9.62929687,0.0843743725 9.79277344,0.247849719 L24.0152344,14.4649315 C24.3421875,14.7918822 24.3421875,15.3297688 24.0152344,15.6567195 L21.0304688,18.6414629 L23.4193359,21.0303123 L31.1765625,13.2784169 C31.5035156,12.9514662 32.0414063,12.9514662 32.3683594,13.2784169 L32.9642578,13.8743109 L34.7572266,12.0813555 C35.0841797,11.7544048 35.6220703,11.7544048 35.9490234,12.0813555 L41.9080078,18.0455689 C42.2349609,18.3725196 42.2349609,18.9104062 41.9080078,19.2373569 L40.1203125,21.0303123 L40.7162109,21.6262063 C41.0431641,21.953157 41.0431641,22.4910437 40.7162109,22.8179943 L32.9589844,30.5751632 L35.3478516,32.9640126 L38.3326172,29.9792692 C38.6595703,29.6523185 39.1974609,29.6523185 39.5244141,29.9792692 L53.746875,44.1963509 C53.9103516,44.3650997 54,44.581309 54,44.7975183 C54,45.0137277 53.9103516,45.229937 53.746875,45.3934123 L45.39375,53.7464753 C45.2302734,53.9099508 45.0193359,54 44.803125,54 C44.5869141,54.0048716 44.3654297,53.9099508 44.2019531,53.7464753 L29.9847656,39.5293935 C29.6578125,39.2024428 29.6578125,38.6645561 29.9847656,38.3376054 L32.9695313,35.352862 L30.5806641,32.9640126 L27.5958984,35.948756 C27.2689453,36.2757067 26.7310547,36.2757067 26.4041016,35.948756 L18.0509766,27.5956932 C17.7240234,27.2687425 17.7240234,26.7308559 18.0509766,26.4039052 L21.0357422,23.4191618 L18.646875,21.0303123 L15.6621094,24.0150558 C15.3351563,24.3420065 14.7972656,24.3420065 14.4703125,24.0150558 L0.247851563,9.79270061 C0.084375,9.62922526 0,9.41301591 0,9.1968066 C0,8.98059725 0.084375,8.76438795 0.247851563,8.6009126 L8.60097656,0.247849719 C8.76445312,0.0843743725 8.98066406,0 9.196875,0 Z M38.9285156,34.1558006 L34.1560547,38.9282261 L44.7978516,49.5699438 L49.5703125,44.7975183 L38.9285156,34.1558006 Z M19.8333984,34.1505272 C27,41.3118021 19.8333984,48.4783503 19.8333984,48.4783503 L13.8638672,42.5141369 L9.83496094,46.5430132 C9.871875,47.2391018 9.62929688,47.9457371 9.09667969,48.473077 C8.11054688,49.4592024 6.50742188,49.4592024 5.51601563,48.473077 C4.52460938,47.4869515 4.52988281,45.8838384 5.51601563,44.8924395 C6.04863281,44.3598263 6.75,44.11725 7.44609375,44.1541638 L11.475,40.1252875 L5.51074219,34.1610741 L5.53433105,34.1379645 C5.98782422,33.6988783 12.9056836,27.2279615 19.8333984,34.1505272 Z M9.196875,4.42438115 L4.42441406,9.1968066 L15.0662109,19.8385243 L19.8386719,15.0660989 L9.196875,4.42438115 Z"></path></clipPath></defs><g clip-path="url(#i0)"><polygon points="0,0 54,0 54,54.0001788 0,54.0001788 0,0" stroke="none" fill="#151515"></polygon></g></svg>