<?xml version="1.0" encoding="UTF-8"?><svg version="1.1" width="40px" height="48px" viewBox="0 0 40.0 48.0" xmlns="http://www.w3.org/2000/svg" xmlns:xlink="http://www.w3.org/1999/xlink"><defs><clipPath id="i0"><path d="M4.21873994,30.3749276 L4.21873994,43.0311474 L33.6971853,43.0311474 L33.6971853,30.3749276 L37.9159252,30.3749276 L37.9159252,47.2498873 L0,47.2498873 L0,30.3749276 L4.21873994,30.3749276 Z M29.5100653,34.5936675 L29.5100653,38.7807875 L8.41636558,38.7807875 L8.41636558,34.5936675 L29.5100653,34.5936675 Z M9.73472182,25.0698827 L30.3749276,29.4257111 L29.5100653,33.5389825 L8.86985953,29.2147741 L9.73472182,25.0698827 Z M13.3417651,15.5038693 L32.4631833,24.4370717 L30.6913331,28.2655576 L11.5804205,19.3534695 L13.3417651,15.5038693 Z M19.5644065,6.71836396 L35.753821,20.2499517 L33.0643743,23.4983609 L16.8749598,9.96677311 L19.5644065,6.71836396 Z M27.3479611,0 L39.9303323,16.9065797 L36.5553404,19.4378237 L23.9729691,2.53124397 L27.3479611,0 Z"></path></clipPath></defs><g clip-path="url(#i0)"><polygon points="0,0 39.9303323,0 39.9303323,47.2498873 0,47.2498873 0,0" stroke="none" fill="#151515"></polygon></g></svg>