<?xml version="1.0" encoding="UTF-8"?><svg version="1.1" width="956px" height="72px" viewBox="0 0 956.0 72.0" xmlns="http://www.w3.org/2000/svg" xmlns:xlink="http://www.w3.org/1999/xlink"><defs><clipPath id="i0"><path d="M956,0 L956,72 L0,72 L0,0 L956,0 Z"></path></clipPath><clipPath id="i1"><path d="M2.24999464,10.9999738 C3.49373557,10.9999738 4.49998927,12.0062275 4.49998927,13.2499684 C4.49998927,14.4937093 3.49373557,15.499963 2.24999464,15.499963 C1.0062537,15.499963 0,14.4937093 0,13.2499684 C0,12.0062275 1.0062537,10.9999738 2.24999464,10.9999738 Z M2.24999464,5.49998689 C3.49373557,5.49998689 4.49998927,6.50624059 4.49998927,7.74998152 C4.49998927,8.99372245 3.49373557,9.99997616 2.24999464,9.99997616 C1.0062537,9.99997616 0,8.99372245 0,7.74998152 C0,6.50624059 1.0062537,5.49998689 2.24999464,5.49998689 Z M2.24999464,0 C3.49373557,0 4.49998927,1.0062537 4.49998927,2.24999464 C4.49998927,3.49373557 3.49373557,4.49998927 2.24999464,4.49998927 C1.0062537,4.49998927 0,3.49373557 0,2.24999464 C0,1.0062537 1.0062537,0 2.24999464,0 Z"></path></clipPath><clipPath id="i2"><path d="M24,0 L24,72 L0,72 L0,0 L24,0 Z"></path></clipPath><clipPath id="i3"><path d="M908,0 L908,24 L0,24 L0,0 L908,0 Z"></path></clipPath></defs><g clip-path="url(#i0)"><polygon points="0,0 956,0 956,72 0,72 0,0" stroke="none" fill="#FFFFFF"></polygon><g transform="translate(0.0 -1.0)"><polygon points="956,72 956,73 0,73 0,72 956,72 956,72" stroke="none" fill="#D2D2D2"></polygon></g></g><g transform="translate(902.0 18.0)"><g transform="translate(8.0 6.0)"><g transform="translate(10.0 3.999999999999999)"><g clip-path="url(#i1)"><polygon points="0,0 4.49998927,0 4.49998927,15.499963 0,15.499963 0,0" stroke="none" fill="#696E73"></polygon></g></g></g></g><g clip-path="url(#i2)"><polygon points="0,0 24,0 24,72 0,72 0,0" stroke="none" fill="rgba(0, 121, 135, 0.9)"></polygon></g><g clip-path="url(#i2)"><polygon points="0,0 24,0 24,72 0,72 0,0 0,0" stroke="#09707A" stroke-width="2" fill="none" stroke-miterlimit="5"></polygon></g><g transform="translate(931.9999999999999 0.0)"><g clip-path="url(#i2)"><polygon points="0,0 24,0 24,72 0,72 0,0" stroke="none" fill="rgba(0, 121, 135, 0.9)"></polygon></g><g clip-path="url(#i2)"><polygon points="0,0 24,0 24,72 0,72 0,0 0,0" stroke="#09707A" stroke-width="2" fill="none" stroke-miterlimit="5"></polygon></g></g><g transform="translate(24.0 0.0)"><g clip-path="url(#i3)"><polygon points="0,0 908,0 908,24 0,24 0,0" stroke="none" fill="rgba(0, 121, 135, 0.9)"></polygon></g><g clip-path="url(#i3)"><polygon points="0,0 908,0 908,24 0,24 0,0 0,0" stroke="#09707A" stroke-width="2" fill="none" stroke-miterlimit="5"></polygon></g></g><g transform="translate(24.0 47.99999999999997)"><g clip-path="url(#i3)"><polygon points="0,0 908,0 908,24 0,24 0,0" stroke="none" fill="rgba(0, 121, 135, 0.9)"></polygon></g><g clip-path="url(#i3)"><polygon points="0,0 908,0 908,24 0,24 0,0 0,0" stroke="#09707A" stroke-width="2" fill="none" stroke-miterlimit="5"></polygon></g></g></svg>