<svg xmlns="http://www.w3.org/2000/svg" width="118" height="58" viewBox="0 0 118 58">
  <g fill="none" fill-rule="evenodd">
    <rect width="118" height="58" fill="#FFF"/>
    <text fill="#151515" font-family="RedHatText-Regular, Red Hat Text" font-size="16">
      <tspan x="40" y="24">Option</tspan>
    </text>
    <text fill="#6A6E73" font-family="RedHatText-Regular, Red Hat Text" font-size="12">
      <tspan x="40" y="44">Description</tspan>
    </text>
    <g fill-opacity=".9">
      <rect width="15" height="57" x=".5" y=".5" fill="#3F9C35" stroke="#418A38"/>
      <rect width="85" height="7" x=".5" y=".5" fill="#92D400" stroke="#7FB300" transform="translate(16)"/>
      <rect width="85" height="7" x=".5" y=".5" fill="#92D400" stroke="#7FB300" transform="translate(16 50)"/>
      <rect width="15" height="57" x=".5" y=".5" fill="#3F9C35" stroke="#418A38" transform="translate(102)"/>
    </g>
    <g transform="translate(8 8)">
      <rect width="16" height="16" x="8" y="4" fill="#06C"/>
      <g transform="translate(4)">
        <path fill="#6A6E73" d="M10.9242379,16.7728081 L17.8242306,9.87279255 C18.0585364,9.63846388 18.0585364,9.25856672 17.8242306,9.02426094 L16.9757219,8.17572933 C16.7414161,7.94142356 16.3614961,7.94142356 16.1271903,8.17572933 L10.4999835,13.8029361 L7.87276966,11.1757222 C7.63846388,10.9413935 7.25854383,10.9413935 7.02423805,11.1757222 L6.17572933,12.0242538 C5.94142356,12.2585825 5.94142356,12.6384796 6.17572933,12.8727854 L10.0757292,16.7727853 C10.3100121,17.0071139 10.6899092,17.0071139 10.9242379,16.7728081 Z"/>
        <rect width="24" height="24" fill="#FFF"/>
      </g>
    </g>
  </g>
</svg>
