<?xml version="1.0" encoding="UTF-8"?><svg version="1.1" width="187px" height="76px" viewBox="0 0 187.0 76.0" xmlns="http://www.w3.org/2000/svg" xmlns:xlink="http://www.w3.org/1999/xlink"><defs><clipPath id="i0"><path d="M8.66574605,0 C9.22201914,0 9.50012517,0.671873398 9.10638831,1.06561025 L5.08762958,5.08748177 C4.84388627,5.33122508 4.44700611,5.33122508 4.2032628,5.08748177 L0.184534585,1.06561025 C-0.209232787,0.671873398 0.0689037567,0 0.625146327,0 Z"></path></clipPath><clipPath id="i1"><path d="M24,0 L24,24 L0,24 L0,0 L24,0 Z"></path></clipPath><clipPath id="i2"><path d="M32,0 L32,76 L0,76 L0,0 L32,0 Z"></path></clipPath><clipPath id="i3"><path d="M24,0 L24,76 L0,76 L0,0 L24,0 Z"></path></clipPath></defs><g transform="translate(16.0 26.0)"><text transform="translate(0.0 16.0)" font-family="RedHatText-Regular, Red Hat Text" font-size="16.0" font-weight="normal" fill="#FFFFFF" text-anchor="left" line-spacing="24.0">Ned Username</text></g><g transform="translate(139.0 26.0)"><g transform="translate(7.0 9.0)"><g clip-path="url(#i0)"><polygon points="5.04041253e-14,0 9.29090831,0 9.29090831,5.27028925 5.04041253e-14,5.27028925 5.04041253e-14,0" stroke="none" fill="#151515"></polygon><g clip-path="url(#i1)"><polygon points="5.04041253e-14,0 9.29090831,0 9.29090831,5.27028925 5.04041253e-14,5.27028925 5.04041253e-14,0" stroke="none" fill="#FFFFFF"></polygon></g></g></g></g><g clip-path="url(#i2)"><polygon points="0,0 32,0 32,76 0,76 0,0" stroke="none" fill="rgba(0, 136, 206, 0.9)"></polygon></g><g clip-path="url(#i2)"><polygon points="0,0 32,0 32,76 0,76 0,0 0,0" stroke="#0478B0" stroke-width="2" fill="none" stroke-miterlimit="5"></polygon></g><g transform="translate(163.0 0.0)"><g clip-path="url(#i3)"><polygon points="0,0 24,0 24,76 0,76 0,0" stroke="none" fill="rgba(0, 121, 135, 0.9)"></polygon></g><g clip-path="url(#i3)"><polygon points="0,0 24,0 24,76 0,76 0,0 0,0" stroke="#09707A" stroke-width="2" fill="none" stroke-miterlimit="5"></polygon></g></g></svg>