<?xml version="1.0" encoding="UTF-8"?><svg version="1.1" width="310px" height="52px" viewBox="0 0 310.0 52.0" xmlns="http://www.w3.org/2000/svg" xmlns:xlink="http://www.w3.org/1999/xlink"><defs><clipPath id="i0"><path d="M310,0 L310,52 L0,52 L0,0 L310,0 Z"></path></clipPath><clipPath id="i1"><path d="M16,0 L16,36 L0,36 L0,0 L16,0 Z"></path></clipPath><clipPath id="i2"><path d="M310,0 L310,8 L0,8 L0,0 L310,0 Z"></path></clipPath></defs><g clip-path="url(#i0)"><polygon points="0,0 310,0 310,52 0,52 0,0" stroke="none" fill="#FFFFFF"></polygon></g><g transform="translate(240.0 16.0)"><text transform="translate(0.35199999999999676 14.0)" font-family="RedHatText-Regular, Red Hat Text" font-size="14.0" font-weight="normal" fill="#141514" text-anchor="right" line-spacing="21.0">37 items</text></g><g transform="translate(0.0 8.0)"><g clip-path="url(#i1)"><polygon points="0,0 16,0 16,36 0,36 0,0" stroke="none" fill="rgba(62, 156, 52, 0.9)"></polygon></g><g clip-path="url(#i1)"><polygon points="0,0 16,0 16,36 0,36 0,0 0,0" stroke="#418A37" stroke-width="2" fill="none" stroke-miterlimit="5"></polygon></g></g><g transform="translate(294.0 8.0)"><g clip-path="url(#i1)"><polygon points="0,0 16,0 16,36 0,36 0,0" stroke="none" fill="rgba(62, 156, 52, 0.9)"></polygon></g><g clip-path="url(#i1)"><polygon points="0,0 16,0 16,36 0,36 0,0 0,0" stroke="#418A37" stroke-width="2" fill="none" stroke-miterlimit="5"></polygon></g></g><g clip-path="url(#i2)"><polygon points="0,0 310,0 310,8 0,8 0,0" stroke="none" fill="rgba(146, 211, 0, 0.9)"></polygon></g><g clip-path="url(#i2)"><polygon points="0,0 310,0 310,8 0,8 0,0 0,0" stroke="#7EB200" stroke-width="2" fill="none" stroke-miterlimit="5"></polygon></g><g transform="translate(0.0 44.0)"><g clip-path="url(#i2)"><polygon points="0,0 310,0 310,8 0,8 0,0" stroke="none" fill="rgba(146, 211, 0, 0.9)"></polygon></g><g clip-path="url(#i2)"><polygon points="0,0 310,0 310,8 0,8 0,0 0,0" stroke="#7EB200" stroke-width="2" fill="none" stroke-miterlimit="5"></polygon></g></g></svg>