<?xml version="1.0" encoding="UTF-8"?><svg version="1.1" width="147px" height="40px" viewBox="0 0 147.0 40.0" xmlns="http://www.w3.org/2000/svg" xmlns:xlink="http://www.w3.org/1999/xlink"><defs><clipPath id="i0"><path d="M147,0 L147,40 L0,40 L0,0 L147,0 Z"></path></clipPath><clipPath id="i1"><path d="M51,0 L51,24 L0,24 L0,0 L51,0 Z"></path></clipPath><clipPath id="i2"><path d="M5.59686343,0.417475048 C5.8734207,-0.142666133 6.66795921,-0.135639478 6.94218188,0.417475048 L8.4726424,3.5206018 L11.8968438,4.01981479 C12.5109094,4.1088725 12.7570026,4.86589736 12.3116912,5.29949008 L9.83434875,7.71354683 L10.4202849,11.1236949 C10.5257534,11.740118 9.87655446,12.1994828 9.33280118,11.9135414 L6.26952266,10.3033844 L3.20624413,11.9135414 C2.66249085,12.2018174 2.01329196,11.740118 2.11876046,11.1236949 L2.70469656,7.71354683 L0.22735414,5.29949008 C-0.217957298,4.86589736 0.0281358651,4.1088725 0.642201479,4.01981479 L4.06640291,3.5206018 Z"></path></clipPath><clipPath id="i3"><path d="M4.87498838,1.49999642 C5.08198862,1.49999642 5.24998748,1.66799529 5.24998748,1.87499553 L5.24998748,2.62499374 C5.24998748,2.83199398 5.08198862,2.99999642 4.87498838,2.99999642 L1.5,2.99999642 L1.5,10.499975 L8.99997854,10.499975 L8.99997854,7.87498122 C8.99997854,7.66798099 9.16797741,7.49998212 9.37497765,7.49998212 L10.1249759,7.49998212 C10.3319761,7.49998212 10.499975,7.66798099 10.499975,7.87498122 L10.499975,10.8749741 C10.499975,11.4959748 9.99597836,11.9999714 9.37497765,11.9999714 L1.12499732,11.9999714 C0.503996601,11.9999714 0,11.4959748 0,10.8749741 L0,2.62499374 C0,2.00399302 0.503996601,1.49999642 1.12499732,1.49999642 Z M11.4374727,0 C11.7479731,0 11.9999714,0.251998301 11.9999714,0.562498659 L11.9999714,3.56249151 C11.9999714,4.06639655 11.3905978,4.31248972 11.0390362,3.96092806 L10.2018571,3.12468737 L4.49225308,8.83591643 C4.40124988,8.92724007 4.22274536,9.00135183 4.09381653,9.00135183 C3.9648877,9.00135183 3.78638318,8.92724007 3.69537998,8.83591643 L3.16405496,8.30552982 C3.07273132,8.21452662 2.99861956,8.0360221 2.99861956,7.90709327 C2.99861956,7.77816444 3.07273132,7.59965992 3.16405496,7.50865672 L8.8764742,1.79836607 L8.03904333,0.960935209 C7.68631438,0.607267839 7.93661896,0 8.43747988,0 Z"></path></clipPath></defs><rect x="0px" y="0px" width="147px" height="40px" fill="#FFFFFF"></rect><g clip-path="url(#i0)"><polygon points="0,0 147,0 147,40 0,40 0,0" stroke="none" fill="#F0F0F0"></polygon></g><g transform="translate(16.0 8.0)"><g clip-path="url(#i1)"><text transform="translate(0.0 16.0)" font-family="RedHatText-Regular, Red Hat Text" font-size="16.0" font-weight="normal" fill="#151515" text-anchor="left" line-spacing="24.0">Option</text></g></g><g transform="translate(115.0 8.0)"><g transform="translate(1.9101591143949772 6.0)"><g clip-path="url(#i2)"><polygon points="2.87547763e-14,4.39648318e-14 12.5390453,4.39648318e-14 12.5390453,12.0014464 2.87547763e-14,12.0014464 2.87547763e-14,4.39648318e-14" stroke="none" fill="#151515"></polygon></g></g></g><g transform="translate(83.0 8.0)"><g transform="translate(2.000004768371582 6.0)"><g clip-path="url(#i3)"><polygon points="0,0 11.9999714,0 11.9999714,11.9999714 0,11.9999714 0,0" stroke="none" fill="#696E73"></polygon></g></g></g></svg>