<?xml version="1.0" encoding="UTF-8"?>
<svg width="170px" height="56px" viewBox="0 0 170 56" version="1.1" xmlns="http://www.w3.org/2000/svg" xmlns:xlink="http://www.w3.org/1999/xlink">
    <title></title>
    <defs>
        <path d="M85,-18.5 L103.958,-1 L170,-1 L170,56 L0,56 L0,-1 L66.041,-1 L85,-18.5 Z" id="path-1"></path>
        <filter x="-16.5%" y="-26.8%" width="132.9%" height="175.2%" filterUnits="objectBoundingBox" id="filter-2">
            <feOffset dx="0" dy="0" in="SourceAlpha" result="shadowOffsetOuter1"></feOffset>
            <feGaussianBlur stdDeviation="3" in="shadowOffsetOuter1" result="shadowBlurOuter1"></feGaussianBlur>
            <feColorMatrix values="0 0 0 0 0   0 0 0 0 0   0 0 0 0 0  0 0 0 0.08 0" type="matrix" in="shadowBlurOuter1" result="shadowMatrixOuter1"></feColorMatrix>
            <feOffset dx="0" dy="8" in="SourceAlpha" result="shadowOffsetOuter2"></feOffset>
            <feGaussianBlur stdDeviation="8" in="shadowOffsetOuter2" result="shadowBlurOuter2"></feGaussianBlur>
            <feColorMatrix values="0 0 0 0 0   0 0 0 0 0   0 0 0 0 0  0 0 0 0.16 0" type="matrix" in="shadowBlurOuter2" result="shadowMatrixOuter2"></feColorMatrix>
            <feMerge>
                <feMergeNode in="shadowMatrixOuter1"></feMergeNode>
                <feMergeNode in="shadowMatrixOuter2"></feMergeNode>
            </feMerge>
        </filter>
    </defs>
    <g id="Tooltips-and-Popovers" stroke="none" stroke-width="1" fill="none" fill-rule="evenodd">
        <g id="Popover-/-5.-No-Header-/-2.-Bottom">
            <g id="Background">
                <use fill="black" fill-opacity="1" filter="url(#filter-2)" xlink:href="#path-1"></use>
                <use fill="#FFFFFF" fill-rule="evenodd" xlink:href="#path-1"></use>
            </g>
            <g id="Close-button" transform="translate(130.000000, 16.000000)">
                <g id="ðŸ–¼-Icon" transform="translate(8.000000, 6.000000)" fill="#6A6E73">
                    <g id="ðŸ–¼-Icon" transform="translate(-8.000000, -6.000000)">
                        <path d="M9.77960353,16.0341281 L12.1249959,13.6887358 L14.4703882,16.0341281 C14.7581836,16.3219463 15.2250556,16.3219463 15.5128739,16.0341281 L16.0341281,15.5128739 C16.3219463,15.2250556 16.3219463,14.7584353 16.0341281,14.4703882 L13.6887358,12.1249959 L16.0341281,9.77960353 C16.3219463,9.4918082 16.3219463,9.02516502 16.0341281,8.73711792 L15.5128739,8.21586367 C15.2250556,7.92804544 14.7584353,7.92804544 14.4703882,8.21586367 L12.1249959,10.561256 L9.77960353,8.21586367 C9.4918082,7.92804544 9.02516502,7.92804544 8.73711792,8.21586367 L8.21586367,8.73711792 C7.92804544,9.02493614 7.92804544,9.49155643 8.21586367,9.77960353 L10.561256,12.1249959 L8.21586367,14.4703882 C7.92804544,14.7581836 7.92804544,15.2248268 8.21586367,15.5128739 L8.73711792,16.0341281 C9.02493614,16.3219463 9.4918082,16.3219463 9.77960353,16.0341281 Z" id="times"></path>
                    </g>
                    <rect id="ðŸŽ¨-Color" x="0" y="0" width="8" height="12"></rect>
                </g>
                <g id="ðŸ“-Padding" fill-opacity="0.9">
                    <g id="Spacer-/-Horizontal-/-2.-pf-global--spacer--sm-(8px)" fill="#92D400" stroke="#7FB300">
                        <rect id="Rectangle-Copy" x="0.5" y="0.5" width="7" height="35"></rect>
                    </g>
                    <g id="Spacer-/-Horizontal-/-2.-pf-global--spacer--sm-(8px)" transform="translate(32.000000, 0.000000)" fill="#92D400" stroke="#7FB300">
                        <rect id="Rectangle-Copy" x="0.5" y="0.5" width="7" height="35"></rect>
                    </g>
                    <g id="Spacer-/-Vertical-/-8.-pf-global--spacer--form-element-(6px)" transform="translate(8.000000, 0.000000)" fill="#F3D53C" stroke="#CBB534">
                        <rect id="Rectangle" x="0.5" y="0.5" width="23" height="5"></rect>
                    </g>
                    <g id="Spacer-/-Vertical-/-8.-pf-global--spacer--form-element-(6px)" transform="translate(8.000000, 30.000000)" fill="#F3D53C" stroke="#CBB534">
                        <rect id="Rectangle" x="0.5" y="0.5" width="23" height="5"></rect>
                    </g>
                </g>
            </g>
            <text id="âœï¸-Content" font-family="RedHatText-Regular, Red Hat Text" font-size="14" font-weight="normal" line-spacing="21" fill="#151515">
                <tspan x="16" y="30">Popover content</tspan>
            </text>
            <g id="ðŸ“-Padding" fill-opacity="0.9">
                <g id="Spacer-/-Horizontal-/-3.-pf-global--spacer--md-(16px)" fill="#3F9C35" stroke="#418A38">
                    <rect id="Rectangle-Copy-2" x="0.5" y="0.5" width="15" height="55"></rect>
                </g>
                <g id="Spacer-/-Horizontal-/-3.-pf-global--spacer--md-(16px)" transform="translate(154.000000, 0.000000)" fill="#3F9C35" stroke="#418A38">
                    <rect id="Rectangle-Copy-2" x="0.5" y="0.5" width="15" height="55"></rect>
                </g>
                <g id="Spacer-/-Vertical-/-3.-pf-global--spacer--md-(16px)" transform="translate(16.000000, 0.000000)" fill="#3F9C35" stroke="#418A38">
                    <rect id="Rectangle-Copy-2" x="0.5" y="0.5" width="137" height="15"></rect>
                </g>
                <g id="Spacer-/-Vertical-/-3.-pf-global--spacer--md-(16px)" transform="translate(16.000000, 40.000000)" fill="#3F9C35" stroke="#418A38">
                    <rect id="Rectangle-Copy-2" x="0.5" y="0.5" width="137" height="15"></rect>
                </g>
                <g id="Spacer-/-Horizontal-/-2.-pf-global--spacer--sm-(8px)" transform="translate(122.000000, 16.000000)" fill="#92D400" stroke="#7FB300">
                    <rect id="Rectangle-Copy" x="0.5" y="0.5" width="7" height="23"></rect>
                </g>
            </g>
        </g>
    </g>
</svg>