<?xml version="1.0" encoding="UTF-8"?><svg version="1.1" width="170px" height="56px" viewBox="0 0 170.0 56.0" xmlns="http://www.w3.org/2000/svg" xmlns:xlink="http://www.w3.org/1999/xlink"><defs><filter id="i0" x="-9%" y="-26.4705882%" filterUnits="userSpaceOnUse" width="112%" height="135.294118%"><feGaussianBlur stdDeviation="3" in="SourceAlpha" result="i1"></feGaussianBlur><feOffset dx="0" dy="0" in="i1" result="i2"></feOffset><feColorMatrix values="0 0 0 0.0 0 0 0 0 0.0 0 0 0 0 0.0 0 0 0 0 0.08 0" type="matrix" in="i2"></feColorMatrix></filter><filter id="i3" x="-25.4545455%" y="-54.5454545%" filterUnits="userSpaceOnUse" width="136.363636%" height="190.909091%"><feGaussianBlur stdDeviation="8" in="SourceAlpha" result="i4"></feGaussianBlur><feOffset dx="0" dy="8" in="i4" result="i5"></feOffset><feColorMatrix values="0 0 0 0.0 0 0 0 0 0.0 0 0 0 0 0.0 0 0 0 0 0.16 0" type="matrix" in="i5"></feColorMatrix></filter><clipPath id="i6"><path d="M188,0 L188,56 L18,56 L18,46 L0,28 L18,10 L18,0 L188,0 Z"></path></clipPath><clipPath id="i7"><path d="M0.737117917,0.215863667 C1.02516502,-0.0719545556 1.4918082,-0.0719545556 1.77960353,0.215863667 L4.12499589,2.56125602 L6.47038824,0.215863667 C6.75843535,-0.0719545556 7.22505563,-0.0719545556 7.51287386,0.215863667 L8.03412811,0.737117917 C8.32194633,1.02516502 8.32194633,1.4918082 8.03412811,1.77960353 L5.68873575,4.12499589 L8.03412811,6.47038824 C8.32194633,6.75843535 8.32194633,7.22505563 8.03412811,7.51287386 L7.51287386,8.03412811 C7.22505563,8.32194633 6.75818358,8.32194633 6.47038824,8.03412811 L4.12499589,5.68873575 L1.77960353,8.03412811 C1.4918082,8.32194633 1.02493614,8.32194633 0.737117917,8.03412811 L0.215863667,7.51287386 C-0.0719545556,7.22482675 -0.0719545556,6.75818358 0.215863667,6.47038824 L2.56125602,4.12499589 L0.215863667,1.77960353 C-0.0719545556,1.49155643 -0.0719545556,1.02493614 0.215863667,0.737117917 Z"></path></clipPath><clipPath id="i8"><path d="M8,0 L8,12 L0,12 L0,0 L8,0 Z"></path></clipPath><clipPath id="i9"><path d="M16,0 L16,56 L0,56 L0,0 L16,0 Z"></path></clipPath><clipPath id="i10"><path d="M138,0 L138,16 L0,16 L0,0 L138,0 Z"></path></clipPath><clipPath id="i11"><path d="M8,0 L8,24 L0,24 L0,0 L8,0 Z"></path></clipPath></defs><g transform="translate(-18.0 0.0)"><polygon points="0,28 18,10 18,0 188,0 188,56 18,56 18,46 0,28 0,28" stroke="none" fill="#000000" filter="url(#i0)"></polygon><polygon points="0,28 18,10 18,0 188,0 188,56 18,56 18,46 0,28 0,28" stroke="none" fill="#000000" filter="url(#i3)"></polygon><g clip-path="url(#i6)"><polygon points="0,0 188,0 188,56 0,56 0,0" stroke="none" fill="#FFFFFF"></polygon></g></g><g transform="translate(130.0 16.0)"><g transform="translate(8.0 6.0)"><g transform="translate(-8.0 -6.0)"><g transform="translate(8.0 8.0)"><g clip-path="url(#i7)"><polygon points="0,0 8.24999177,0 8.24999177,8.24999177 0,8.24999177 0,0" stroke="none" fill="#696E73"></polygon><g transform="translate(8.0 6.0)"><g clip-path="url(#i8)"><polygon points="0,0 0.249991775,0 0.249991775,2.24999177 0,2.24999177 0,0" stroke="none" fill="#696E73"></polygon></g></g></g></g></g></g></g><g transform="translate(16.0 16.0)"><text transform="translate(0.0 14.0)" font-family="RedHatText-Regular, Red Hat Text" font-size="14.0" font-weight="normal" fill="#141514" text-anchor="left" line-spacing="21.0">Popover content</text></g><g clip-path="url(#i9)"><polygon points="0,0 16,0 16,56 0,56 0,0" stroke="none" fill="rgba(62, 156, 52, 0.9)"></polygon></g><g clip-path="url(#i9)"><polygon points="0,0 16,0 16,56 0,56 0,0 0,0" stroke="#418A37" stroke-width="2" fill="none" stroke-miterlimit="5"></polygon></g><g transform="translate(154.0 0.0)"><g clip-path="url(#i9)"><polygon points="0,0 16,0 16,56 0,56 0,0" stroke="none" fill="rgba(62, 156, 52, 0.9)"></polygon></g><g clip-path="url(#i9)"><polygon points="0,0 16,0 16,56 0,56 0,0 0,0" stroke="#418A37" stroke-width="2" fill="none" stroke-miterlimit="5"></polygon></g></g><g transform="translate(16.0 0.0)"><g clip-path="url(#i10)"><polygon points="0,0 138,0 138,16 0,16 0,0" stroke="none" fill="rgba(62, 156, 52, 0.9)"></polygon></g><g clip-path="url(#i10)"><polygon points="0,0 138,0 138,16 0,16 0,0 0,0" stroke="#418A37" stroke-width="2" fill="none" stroke-miterlimit="5"></polygon></g></g><g transform="translate(16.0 40.0)"><g transform=""><g clip-path="url(#i10)"><polygon points="0,0 138,0 138,16 0,16 0,0" stroke="none" fill="rgba(62, 156, 52, 0.9)"></polygon></g><g clip-path="url(#i10)"><polygon points="0,0 138,0 138,16 0,16 0,0 0,0" stroke="#418A37" stroke-width="2" fill="none" stroke-miterlimit="5"></polygon></g></g></g><g transform="translate(122.0 16.0)"><g clip-path="url(#i11)"><polygon points="0,0 8,0 8,24 0,24 0,0" stroke="none" fill="rgba(146, 211, 0, 0.9)"></polygon></g><g clip-path="url(#i11)"><polygon points="0,0 8,0 8,24 0,24 0,0 0,0" stroke="#7EB200" stroke-width="2" fill="none" stroke-miterlimit="5"></polygon></g></g></svg>