<?xml version="1.0" encoding="UTF-8"?>
<svg width="336px" height="172px" viewBox="0 0 336 172" version="1.1" xmlns="http://www.w3.org/2000/svg" xmlns:xlink="http://www.w3.org/1999/xlink">
    <title></title>
    <g id="Cards" stroke="none" stroke-width="1" fill="none" fill-rule="evenodd">
        <g id="Card-/-Marketing-card-(32px-spacers)-/-Default-(large-text)">
            <g id="Card-/-Background-/-Default" fill="#FFFFFF" stroke="#D2D2D2">
                <rect id="Background" x="0.5" y="0.5" width="335" height="171"></rect>
            </g>
            <text id="âœï¸-Title" font-family="RedHatText-Medium, Red Hat Text" font-size="20" font-weight="400" line-spacing="30" fill="#151515">
                <tspan x="32" y="54">OPTIONAL title</tspan>
            </text>
            <g id="Kebab" transform="translate(264.000000, 31.000000)" fill="#6A6E73">
                <path d="M20.4166577,14.37498 C21.6603987,14.37498 22.6666524,13.3687263 22.6666524,12.1249854 C22.6666524,10.8812445 21.6603987,9.87499076 20.4166577,9.87499076 C19.1729168,9.87499076 18.1666631,10.8812445 18.1666631,12.1249854 C18.1666631,13.3687263 19.1729168,14.37498 20.4166577,14.37498 Z M20.4166577,19.8749669 C21.6603987,19.8749669 22.6666524,18.8687132 22.6666524,17.6249723 C22.6666524,16.3812314 21.6603987,15.3749776 20.4166577,15.3749776 C19.1729168,15.3749776 18.1666631,16.3812314 18.1666631,17.6249723 C18.1666631,18.8687132 19.1729168,19.8749669 20.4166577,19.8749669 Z M20.4166577,25.3749538 C21.6603987,25.3749538 22.6666524,24.3687001 22.6666524,23.1249592 C22.6666524,21.8812182 21.6603987,20.8749645 20.4166577,20.8749645 C19.1729168,20.8749645 18.1666631,21.8812182 18.1666631,23.1249592 C18.1666631,24.3687001 19.1729168,25.3749538 20.4166577,25.3749538 Z" id="ellipsis-v"></path>
            </g>
            <g id="ðŸ“-Padding" fill-opacity="0.9">
                <g id="Spacer-/-Horizontal-/-4.-pf-global--spacer--lg-(24px)" fill="#0088CE" stroke="#0479B0">
                    <rect id="Rectangle-Copy-4" x="0.5" y="0.5" width="31" height="171"></rect>
                </g>
                <g id="Spacer-/-Horizontal-/-4.-pf-global--spacer--lg-(24px)" transform="translate(304.000000, 0.000000)" fill="#0088CE" stroke="#0479B0">
                    <rect id="Rectangle-Copy-4" x="0.5" y="0.5" width="31" height="171"></rect>
                </g>
                <g id="Spacer-/-Vertical-/-4.-pf-global--spacer--lg-(24px)" transform="translate(32.000000, 0.000000)" fill="#0088CE" stroke="#0479B0">
                    <rect id="Rectangle-Copy-4" x="0.5" y="0.5" width="271" height="31"></rect>
                </g>
                <g id="Spacer-/-Vertical-/-4.-pf-global--spacer--lg-(24px)" transform="translate(32.000000, 140.000000)" fill="#0088CE" stroke="#0479B0">
                    <rect id="Rectangle-Copy-4" x="0.5" y="0.5" width="271" height="31"></rect>
                </g>
                <g id="Spacer-/-Vertical-/-4.-pf-global--spacer--lg-(24px)" transform="translate(32.000000, 64.000000)" fill="#007A87" stroke="#09707B">
                    <rect id="Rectangle-Copy-3" x="0.5" y="0.5" width="271" height="23"></rect>
                </g>
            </g>
        </g>
    </g>
</svg>