<?xml version="1.0" encoding="UTF-8"?>
<svg width="336px" height="172px" viewBox="0 0 336 172" version="1.1" xmlns="http://www.w3.org/2000/svg" xmlns:xlink="http://www.w3.org/1999/xlink">
    <title></title>
    <g id="Cards" stroke="none" stroke-width="1" fill="none" fill-rule="evenodd">
        <g id="Card-/-Marketing-card-(32px-spacers)-/-Default-(large-text)">
            <g id="Card-/-Background-/-Default" fill="#FFFFFF" stroke="#D2D2D2">
                <rect id="Background" x="0.5" y="0.5" width="335" height="171"></rect>
            </g>
            <text id="âœï¸-Title" font-family="RedHatDisplay-Medium, Red Hat Display" font-size="20" font-weight="500" line-spacing="30" fill="#151515">
                <tspan x="32" y="54">OPTIONAL title</tspan>
            </text>
            <g id="Kebab" transform="translate(282.166663, 40.874991)" fill="#6A6E73">
                <path d="M2.24999464,4.49998927 C3.49373557,4.49998927 4.49998927,3.49373557 4.49998927,2.24999464 C4.49998927,1.0062537 3.49373557,0 2.24999464,0 C1.0062537,0 0,1.0062537 0,2.24999464 C0,3.49373557 1.0062537,4.49998927 2.24999464,4.49998927 Z M2.24999464,9.99997616 C3.49373557,9.99997616 4.49998927,8.99372245 4.49998927,7.74998152 C4.49998927,6.50624059 3.49373557,5.49998689 2.24999464,5.49998689 C1.0062537,5.49998689 0,6.50624059 0,7.74998152 C0,8.99372245 1.0062537,9.99997616 2.24999464,9.99997616 Z M2.24999464,15.499963 C3.49373557,15.499963 4.49998927,14.4937093 4.49998927,13.2499684 C4.49998927,12.0062275 3.49373557,10.9999738 2.24999464,10.9999738 C1.0062537,10.9999738 0,12.0062275 0,13.2499684 C0,14.4937093 1.0062537,15.499963 2.24999464,15.499963 Z" id="ellipsis-v"></path>
            </g>
            <g id="ðŸ“-Padding" fill-opacity="0.9">
                <g id="Spacer-/-Horizontal-/-4.-pf-global--spacer--lg-(24px)" fill="#0088CE" stroke="#0479B0">
                    <rect id="Rectangle-Copy-4" x="0.5" y="0.5" width="31" height="171"></rect>
                </g>
                <g id="Spacer-/-Horizontal-/-4.-pf-global--spacer--lg-(24px)" transform="translate(304.000000, 0.000000)" fill="#0088CE" stroke="#0479B0">
                    <rect id="Rectangle-Copy-4" x="0.5" y="0.5" width="31" height="171"></rect>
                </g>
                <g id="Spacer-/-Vertical-/-4.-pf-global--spacer--lg-(24px)" transform="translate(32.000000, 0.000000)" fill="#0088CE" stroke="#0479B0">
                    <rect id="Rectangle-Copy-4" x="0.5" y="0.5" width="271" height="31"></rect>
                </g>
                <g id="Spacer-/-Vertical-/-4.-pf-global--spacer--lg-(24px)" transform="translate(32.000000, 140.000000)" fill="#0088CE" stroke="#0479B0">
                    <rect id="Rectangle-Copy-4" x="0.5" y="0.5" width="271" height="31"></rect>
                </g>
                <g id="Spacer-/-Vertical-/-3.-pf-global--spacer--md-(16px)" transform="translate(32.000000, 64.000000)" fill="#007A87" stroke="#09707B">
                    <rect id="Rectangle-Copy-3" x="0.5" y="0.5" width="271" height="23"></rect>
                </g>
            </g>
        </g>
    </g>
</svg>