<?xml version="1.0" encoding="UTF-8"?>
<svg width="336px" height="172px" viewBox="0 0 336 172" version="1.1" xmlns="http://www.w3.org/2000/svg" xmlns:xlink="http://www.w3.org/1999/xlink">
    <title></title>
    <g id="Cards" stroke="none" stroke-width="1" fill="none" fill-rule="evenodd">
        <g id="Card-/-Marketing-card-(32px-spacers)-/-Default-(large-text)">
            <g id="Card-/-Background-/-Default" fill="#FFFFFF" stroke="#D2D2D2">
                <rect id="Background" x="0.5" y="0.5" width="335" height="171"></rect>
            </g>
            <g id="Button-/-6.-Icon-button-/-Default" transform="translate(264.000000, 32.000000)">
                <rect id="Background" x="0" y="0" width="40" height="36" rx="3"></rect>
                <g id="ðŸ–¼-Icon" transform="translate(8.000000, 6.000000)">
                    <g id="ellipsis-v" fill="#151515">
                        <path d="M12.2499946,8.49998927 C13.4937356,8.49998927 14.4999893,7.49373557 14.4999893,6.24999464 C14.4999893,5.0062537 13.4937356,4 12.2499946,4 C11.0062537,4 10,5.0062537 10,6.24999464 C10,7.49373557 11.0062537,8.49998927 12.2499946,8.49998927 Z M12.2499946,13.9999762 C13.4937356,13.9999762 14.4999893,12.9937225 14.4999893,11.7499815 C14.4999893,10.5062406 13.4937356,9.49998689 12.2499946,9.49998689 C11.0062537,9.49998689 10,10.5062406 10,11.7499815 C10,12.9937225 11.0062537,13.9999762 12.2499946,13.9999762 Z M12.2499946,19.499963 C13.4937356,19.499963 14.4999893,18.4937093 14.4999893,17.2499684 C14.4999893,16.0062275 13.4937356,14.9999738 12.2499946,14.9999738 C11.0062537,14.9999738 10,16.0062275 10,17.2499684 C10,18.4937093 11.0062537,19.499963 12.2499946,19.499963 Z"></path>
                    </g>
                    <rect id="ðŸŽ¨-Color" fill="#6A6E73" x="0" y="0" width="24" height="24"></rect>
                </g>
                <g id="ðŸ“-Padding" fill-opacity="0.9">
                    <g id="Spacer-/-Horizontal-/-2.-pf-global--spacer--sm-(8px)" fill="#92D400" stroke="#7FB300">
                        <rect id="Rectangle-Copy" x="0.5" y="0.5" width="7" height="35"></rect>
                    </g>
                    <g id="Spacer-/-Horizontal-/-2.-pf-global--spacer--sm-(8px)" transform="translate(32.000000, 0.000000)" fill="#92D400" stroke="#7FB300">
                        <rect id="Rectangle-Copy" x="0.5" y="0.5" width="7" height="35"></rect>
                    </g>
                    <g id="Spacer-/-Vertical-/-8.-pf-global--spacer--form-element-(6px)" transform="translate(8.000000, 0.000000)" fill="#F3D53C" stroke="#CBB534">
                        <rect id="Rectangle" x="0.5" y="0.5" width="23" height="5"></rect>
                    </g>
                    <g id="Spacer-/-Vertical-/-8.-pf-global--spacer--form-element-(6px)" transform="translate(8.000000, 30.000000)" fill="#F3D53C" stroke="#CBB534">
                        <rect id="Rectangle" x="0.5" y="0.5" width="23" height="5"></rect>
                    </g>
                </g>
            </g>
            <text id="âœï¸-Title" font-family="RedHatDisplay-Medium, Red Hat Display" font-size="24" font-weight="400" line-spacing="31.2" fill="#151515">
                <tspan x="32" y="58">OPTIONAL title</tspan>
            </text>
            <g id="ðŸ“-Padding" fill-opacity="0.9">
                <g id="Spacer-/-Horizontal-/-4.-pf-global--spacer--lg-(24px)" fill="#0088CE" stroke="#0479B0">
                    <rect id="Rectangle-Copy-4" x="0.5" y="0.5" width="31" height="171"></rect>
                </g>
                <g id="Spacer-/-Horizontal-/-4.-pf-global--spacer--lg-(24px)" transform="translate(304.000000, 0.000000)" fill="#0088CE" stroke="#0479B0">
                    <rect id="Rectangle-Copy-4" x="0.5" y="0.5" width="31" height="171"></rect>
                </g>
                <g id="Spacer-/-Vertical-/-4.-pf-global--spacer--lg-(24px)" transform="translate(32.000000, 0.000000)" fill="#0088CE" stroke="#0479B0">
                    <rect id="Rectangle-Copy-4" x="0.5" y="0.5" width="271" height="31"></rect>
                </g>
                <g id="Spacer-/-Vertical-/-4.-pf-global--spacer--lg-(24px)" transform="translate(32.000000, 140.000000)" fill="#0088CE" stroke="#0479B0">
                    <rect id="Rectangle-Copy-4" x="0.5" y="0.5" width="271" height="31"></rect>
                </g>
                <g id="Spacer-/-Vertical-/-3.-pf-global--spacer--md-(16px)" transform="translate(32.000000, 68.000000)" fill="#3F9C35" stroke="#418A38">
                    <rect id="Rectangle-Copy-2" x="0.5" y="0.5" width="271" height="15"></rect>
                </g>
            </g>
        </g>
    </g>
</svg>