<svg xmlns="http://www.w3.org/2000/svg" xmlns:xlink="http://www.w3.org/1999/xlink" width="540" height="121" viewBox="0 0 540 121">
  <defs>
    <rect id="hover-b" width="540" height="121" x="0" y="0"/>
    <filter id="hover-a" width="102.6%" height="116.5%" x="-1.3%" y="-4.1%" filterUnits="objectBoundingBox">
      <feMorphology in="SourceAlpha" radius="3" result="shadowSpreadOuter1"/>
      <feOffset dy="8" in="shadowSpreadOuter1" result="shadowOffsetOuter1"/>
      <feGaussianBlur in="shadowOffsetOuter1" result="shadowBlurOuter1" stdDeviation="4"/>
      <feColorMatrix in="shadowBlurOuter1" values="0 0 0 0 0   0 0 0 0 0   0 0 0 0 0  0 0 0 0.18 0"/>
    </filter>
    <rect id="hover-d" width="540" height="121" x="0" y="0"/>
    <filter id="hover-c" width="102.6%" height="116.5%" x="-1.3%" y="-12.4%" filterUnits="objectBoundingBox">
      <feMorphology in="SourceAlpha" radius="3" result="shadowSpreadOuter1"/>
      <feOffset dy="-8" in="shadowSpreadOuter1" result="shadowOffsetOuter1"/>
      <feGaussianBlur in="shadowOffsetOuter1" result="shadowBlurOuter1" stdDeviation="4"/>
      <feColorMatrix in="shadowBlurOuter1" values="0 0 0 0 0   0 0 0 0 0   0 0 0 0 0  0 0 0 0.18 0"/>
    </filter>
  </defs>
  <g fill="none" fill-rule="evenodd">
    <use fill="#000" filter="url(#hover-a)" xlink:href="#hover-b"/>
    <use fill="#F0F0F0" xlink:href="#hover-b"/>
    <use fill="#000" filter="url(#hover-c)" xlink:href="#hover-d"/>
    <use fill="#F0F0F0" xlink:href="#hover-d"/>
    <path fill="#F0AB00" d="M19.4981174,19.999962 C20.6501533,19.999962 21.3741811,18.7501786 20.7973697,17.7503641 L13.2992797,4.74954061 C12.7232007,3.75106887 11.2778001,3.74923782 10.7007141,4.74954061 L3.20241044,17.7503641 C2.62672822,18.748256 3.34742963,19.999962 4.50169323,19.999962 L19.4981174,19.999962 Z M12.75854,14.4999751 L11.2414538,14.4999751 C11.0422965,14.4999751 10.8778682,14.3442748 10.8670345,14.1454227 L10.6352235,9.89543288 C10.6235048,9.68062016 10.7944944,9.49998704 11.0096123,9.49998704 L12.990351,9.49998704 C13.2054689,9.49998704 13.376489,9.68062016 13.3647702,9.89543288 L13.1329593,14.1454227 C13.1221256,14.3442748 12.9576972,14.4999751 12.75854,14.4999751 Z M11.9999969,17.9374669 C11.206084,17.9374669 10.5625003,17.2938833 10.5625003,16.4999704 C10.5625003,15.7060575 11.206084,15.0624738 11.9999969,15.0624738 C12.7939098,15.0624738 13.4374935,15.7060575 13.4374935,16.4999704 C13.4374935,17.2938833 12.7939098,17.9374669 11.9999969,17.9374669 Z" transform="translate(16 16)"/>
    <g transform="translate(484 16)">
      <rect width="40" height="36" rx="3"/>
      <g transform="translate(8 6)">
        <path fill="#151515" d="M12.2499946,8.49998927 C13.4937356,8.49998927 14.4999893,7.49373557 14.4999893,6.24999464 C14.4999893,5.0062537 13.4937356,4 12.2499946,4 C11.0062537,4 10,5.0062537 10,6.24999464 C10,7.49373557 11.0062537,8.49998927 12.2499946,8.49998927 Z M12.2499946,13.9999762 C13.4937356,13.9999762 14.4999893,12.9937225 14.4999893,11.7499815 C14.4999893,10.5062406 13.4937356,9.49998689 12.2499946,9.49998689 C11.0062537,9.49998689 10,10.5062406 10,11.7499815 C10,12.9937225 11.0062537,13.9999762 12.2499946,13.9999762 Z M12.2499946,19.499963 C13.4937356,19.499963 14.4999893,18.4937093 14.4999893,17.2499684 C14.4999893,16.0062275 13.4937356,14.9999738 12.2499946,14.9999738 C11.0062537,14.9999738 10,16.0062275 10,17.2499684 C10,18.4937093 11.0062537,19.499963 12.2499946,19.499963 Z"/>
        <rect width="24" height="24" fill="#6A6E73"/>
      </g>
      <g fill-opacity=".9">
        <rect width="7" height="35" x=".5" y=".5" fill="#92D400" stroke="#7FB300"/>
        <rect width="7" height="35" x=".5" y=".5" fill="#92D400" stroke="#7FB300" transform="translate(32)"/>
        <rect width="23" height="5" x=".5" y=".5" fill="#F3D53C" stroke="#CBB534" transform="translate(8)"/>
        <rect width="23" height="5" x=".5" y=".5" fill="#F3D53C" stroke="#CBB534" transform="translate(8 30)"/>
      </g>
    </g>
    <text fill="#6A6E73" font-family="RedHatText-Regular, Red Hat Text" font-size="14">
      <tspan x="16" y="98">A few minutes ago</tspan>
    </text>
    <text fill="#151515" font-family="RedHatText-Regular, Red Hat Text" font-size="16">
      <tspan x="16" y="69">Content</tspan>
    </text>
    <text fill="#151515" font-family="RedHatText-Regular, Red Hat Text" font-size="16">
      <tspan x="48" y="32">Title</tspan>
    </text>
    <g fill-opacity=".9">
      <rect width="15" height="120" x=".5" y=".5" fill="#3F9C35" stroke="#418A38"/>
      <rect width="15" height="120" x=".5" y=".5" fill="#3F9C35" stroke="#418A38" transform="translate(524)"/>
      <rect width="539" height="15" x=".5" y=".5" fill="#3F9C35" stroke="#418A38"/>
      <rect width="7" height="34.327" x=".5" y=".5" fill="#92D400" stroke="#7FB300" transform="translate(40 16)"/>
      <rect width="539" height="15" x=".5" y=".5" fill="#3F9C35" stroke="#418A38" transform="translate(0 105)"/>
      <rect width="507" height="7" x=".5" y=".5" fill="#92D400" stroke="#7FB300" transform="translate(16 76)"/>
      <rect width="507" height="3" x=".5" y=".5" fill="#EC7A08" stroke="#C77000" transform="translate(16 49)"/>
    </g>
  </g>
</svg>
