<?xml version="1.0" encoding="UTF-8"?><svg version="1.1" width="162px" height="85px" viewBox="0 0 162.0 85.0" xmlns="http://www.w3.org/2000/svg" xmlns:xlink="http://www.w3.org/1999/xlink"><defs><filter id="i0" x="-9.375%" y="-18.556701%" filterUnits="userSpaceOnUse" width="112.5%" height="124.742268%"><feGaussianBlur stdDeviation="3" in="SourceAlpha" result="i1"></feGaussianBlur><feOffset dx="0" dy="0" in="i1" result="i2"></feOffset><feColorMatrix values="0 0 0 0.0 0 0 0 0 0.0 0 0 0 0 0.0 0 0 0 0 0.08 0" type="matrix" in="i2"></feColorMatrix></filter><filter id="i3" x="-26.4150943%" y="-41.025641%" filterUnits="userSpaceOnUse" width="137.735849%" height="168.376068%"><feGaussianBlur stdDeviation="8" in="SourceAlpha" result="i4"></feGaussianBlur><feOffset dx="0" dy="8" in="i4" result="i5"></feOffset><feColorMatrix values="0 0 0 0.0 0 0 0 0 0.0 0 0 0 0 0.0 0 0 0 0 0.16 0" type="matrix" in="i5"></feColorMatrix></filter><clipPath id="i6"><path d="M180,0 L180,85 L18,85 L18,60 L0,42 L18,24 L18,0 L180,0 Z"></path></clipPath><clipPath id="i7"><path d="M0.737117917,0.215863667 C1.02516502,-0.0719545556 1.4918082,-0.0719545556 1.77960353,0.215863667 L4.12499589,2.56125602 L6.47038824,0.215863667 C6.75843535,-0.0719545556 7.22505563,-0.0719545556 7.51287386,0.215863667 L8.03412811,0.737117917 C8.32194633,1.02516502 8.32194633,1.4918082 8.03412811,1.77960353 L5.68873575,4.12499589 L8.03412811,6.47038824 C8.32194633,6.75843535 8.32194633,7.22505563 8.03412811,7.51287386 L7.51287386,8.03412811 C7.22505563,8.32194633 6.75818358,8.32194633 6.47038824,8.03412811 L4.12499589,5.68873575 L1.77960353,8.03412811 C1.4918082,8.32194633 1.02493614,8.32194633 0.737117917,8.03412811 L0.215863667,7.51287386 C-0.0719545556,7.22482675 -0.0719545556,6.75818358 0.215863667,6.47038824 L2.56125602,4.12499589 L0.215863667,1.77960353 C-0.0719545556,1.49155643 -0.0719545556,1.02493614 0.215863667,0.737117917 Z"></path></clipPath><clipPath id="i8"><path d="M8,0 L8,12 L0,12 L0,0 L8,0 Z"></path></clipPath><clipPath id="i9"><path d="M8,0 L8,24 L0,24 L0,0 L8,0 Z"></path></clipPath><clipPath id="i10"><path d="M130,0 L130,16 L0,16 L0,0 L130,0 Z"></path></clipPath><clipPath id="i11"><path d="M16,0 L16,85 L0,85 L0,0 L16,0 Z"></path></clipPath><clipPath id="i12"><path d="M130,0 L130,8 L0,8 L0,0 L130,0 Z"></path></clipPath></defs><g transform="translate(-18.0 0.0)"><polygon points="0,42 18,24 18,0 180,0 180,85 18,85 18,60 0,42 0,42" stroke="none" fill="#000000" filter="url(#i0)"></polygon><polygon points="0,42 18,24 18,0 180,0 180,85 18,85 18,60 0,42 0,42" stroke="none" fill="#000000" filter="url(#i3)"></polygon><g clip-path="url(#i6)"><polygon points="0,0 180,0 180,85 0,85 0,0" stroke="none" fill="#FFFFFF"></polygon></g></g><g transform="translate(16.0 48.0)"><text transform="translate(0.0 14.0)" font-family="RedHatText-Regular, Red Hat Text" font-size="14.0" font-weight="normal" fill="#141514" text-anchor="left" line-spacing="21.0">Popover content</text></g><g transform="translate(16.0 16.0)"><text transform="translate(0.0 16.0)" font-family="RedHatDisplay-Medium, Red Hat Display" font-size="16.0" font-weight="500" fill="#151515" text-anchor="left" line-spacing="24.0">Popover title</text></g><g transform="translate(122.0 16.0)"><g transform="translate(8.0 6.0)"><g transform="translate(-8.0 -6.0)"><g transform="translate(8.0 8.0)"><g clip-path="url(#i7)"><polygon points="0,0 8.24999177,0 8.24999177,8.24999177 0,8.24999177 0,0" stroke="none" fill="#696E73"></polygon><g transform="translate(8.0 6.0)"><g clip-path="url(#i8)"><polygon points="0,0 0.249991775,0 0.249991775,2.24999177 0,2.24999177 0,0" stroke="none" fill="#696E73"></polygon></g></g></g></g></g></g></g><g transform="translate(114.0 16.0)"><g clip-path="url(#i9)"><polygon points="0,0 8,0 8,24 0,24 0,0" stroke="none" fill="rgba(146, 211, 0, 0.9)"></polygon></g><g clip-path="url(#i9)"><polygon points="0,0 8,0 8,24 0,24 0,0 0,0" stroke="#7EB200" stroke-width="2" fill="none" stroke-miterlimit="5"></polygon></g></g><g transform="translate(16.0 0.0)"><g clip-path="url(#i10)"><polygon points="0,0 130,0 130,16 0,16 0,0" stroke="none" fill="rgba(62, 156, 52, 0.9)"></polygon></g><g clip-path="url(#i10)"><polygon points="0,0 130,0 130,16 0,16 0,0 0,0" stroke="#418A37" stroke-width="2" fill="none" stroke-miterlimit="5"></polygon></g></g><g transform="translate(16.0 69.0)"><g clip-path="url(#i10)"><polygon points="0,0 130,0 130,16 0,16 0,0" stroke="none" fill="rgba(62, 156, 52, 0.9)"></polygon></g><g clip-path="url(#i10)"><polygon points="0,0 130,0 130,16 0,16 0,0 0,0" stroke="#418A37" stroke-width="2" fill="none" stroke-miterlimit="5"></polygon></g></g><g transform="translate(146.0 0.0)"><g clip-path="url(#i11)"><polygon points="0,0 16,0 16,85 0,85 0,0" stroke="none" fill="rgba(62, 156, 52, 0.9)"></polygon></g><g clip-path="url(#i11)"><polygon points="0,0 16,0 16,85 0,85 0,0 0,0" stroke="#418A37" stroke-width="2" fill="none" stroke-miterlimit="5"></polygon></g></g><g clip-path="url(#i11)"><polygon points="0,0 16,0 16,85 0,85 0,0" stroke="none" fill="rgba(62, 156, 52, 0.9)"></polygon></g><g clip-path="url(#i11)"><polygon points="0,0 16,0 16,85 0,85 0,0 0,0" stroke="#418A37" stroke-width="2" fill="none" stroke-miterlimit="5"></polygon></g><g transform="translate(16.0 40.00000000000001)"><g clip-path="url(#i12)"><polygon points="0,0 130,0 130,8 0,8 0,0" stroke="none" fill="rgba(146, 211, 0, 0.9)"></polygon></g><g clip-path="url(#i12)"><polygon points="0,0 130,0 130,8 0,8 0,0 0,0" stroke="#7EB200" stroke-width="2" fill="none" stroke-miterlimit="5"></polygon></g></g></svg>