<svg xmlns="http://www.w3.org/2000/svg" width="24" height="24" viewBox="0 0 24 24">
  <path fill="#151515" fill-rule="evenodd" d="M23.2823893,10.9235433 L19.2604167,4.89058431 C18.9326579,4.39900716 18.1871338,4 17.5962728,4 L6.40372721,4 C5.81286621,4 5.06738281,4.39896647 4.73962402,4.89058431 L0.717610677,10.9235433 C1.05651855,10.7817383 1.62972005,10.6666667 1.997111,10.6666667 L22.002889,10.6666667 C22.3702799,10.6666667 22.9434814,10.7817383 23.2823893,10.9235433 Z M22,20 C23.1045736,20 24,19.1045736 24,18 L24,14 C24,12.8954264 23.1045736,12 22,12 L2,12 C0.895426432,12 0,12.8954264 0,14 L0,18 C0,19.1045736 0.895426432,20 2,20 L22,20 Z M20,17.3333333 C19.2636312,17.3333333 18.6666667,16.7363688 18.6666667,16 C18.6666667,15.2636312 19.2636312,14.6666667 20,14.6666667 C20.7363688,14.6666667 21.3333333,15.2636312 21.3333333,16 C21.3333333,16.7363688 20.7363688,17.3333333 20,17.3333333 Z M16,17.3333333 C15.2636312,17.3333333 14.6666667,16.7363688 14.6666667,16 C14.6666667,15.2636312 15.2636312,14.6666667 16,14.6666667 C16.7363688,14.6666667 17.3333333,15.2636312 17.3333333,16 C17.3333333,16.7363688 16.7363688,17.3333333 16,17.3333333 Z"/>
</svg>
