<svg xmlns="http://www.w3.org/2000/svg" width="24" height="24" viewBox="0 0 24 24">
  <path fill="#151515" fill-rule="evenodd" d="M24,8.625 C24,3.8625 20.1375,0 15.375,0 C13.2914063,0 11.38125,0.73828125 9.890625,1.96640625 C9.478125,1.90546875 9.05390625,1.875 8.625,1.875 C3.8625,1.875 0,5.7375 0,10.5 C0,14.2734375 2.4234375,17.4820312 5.80078125,18.6515625 C7.08984375,21.7898438 10.1789063,24 13.78125,24 C18.54375,24 22.40625,20.1375 22.40625,15.375 C22.40625,14.8429687 22.3570312,14.3203125 22.265625,13.8140625 C23.353125,12.3703125 24,10.5726563 24,8.625 Z M9.1546875,5.99765625 C9.46875,5.25703125 9.90703125,4.58671875 10.4578125,4.00078125 C10.7273437,4.07578125 10.9921875,4.16953125 11.2523438,4.2796875 C12.05625,4.61953125 12.778125,5.10703125 13.3992187,5.728125 C13.7179687,6.046875 14.0015625,6.39375 14.2476562,6.7640625 C14.0929687,6.7546875 13.9382812,6.75234375 13.78125,6.75234375 C11.85,6.75234375 10.0640625,7.3875 8.62734375,8.4609375 C8.6484375,7.60546875 8.82421875,6.778125 9.1546875,5.99765625 Z M15.15,8.75859375 C15.3,9.32109375 15.375,9.90234375 15.375,10.4953125 C15.375,11.4070313 15.196875,12.290625 14.8453125,13.1226563 C14.53125,13.8632812 14.0929687,14.5335938 13.5421875,15.1195313 C13.2726562,15.0492188 13.0078125,14.9554688 12.7476562,14.8453125 C11.94375,14.5054688 11.221875,14.0179688 10.6007812,13.396875 C9.9796875,12.7757813 9.4921875,12.0539062 9.15234375,11.25 C9.07265625,11.0601563 9,10.865625 8.9390625,10.66875 C8.9625,10.6453125 8.98359375,10.621875 9.00703125,10.5984375 C9.628125,9.97734375 10.35,9.48984375 11.1539062,9.15 C11.9859375,8.7984375 12.8695312,8.6203125 13.78125,8.6203125 C14.2453125,8.6203125 14.7023437,8.6671875 15.15,8.75859375 Z M5.15625,15.375 C5.15625,15.6960938 5.175,16.0125 5.2078125,16.321875 C4.715625,16.0335938 4.2609375,15.6820313 3.853125,15.271875 C3.23203125,14.6507813 2.74453125,13.9289063 2.4046875,13.125 C2.053125,12.2953125 1.875,11.4117187 1.875,10.5 C1.875,9.58828125 2.053125,8.7046875 2.4046875,7.87265625 C2.74453125,7.06875 3.23203125,6.346875 3.853125,5.72578125 C4.47421875,5.1046875 5.19609375,4.6171875 6,4.27734375 C6.7171875,3.975 7.47421875,3.79921875 8.2546875,3.75703125 C7.30546875,5.14453125 6.75,6.8203125 6.75,8.625 C6.75,9.15703125 6.79921875,9.6796875 6.890625,10.1859375 C5.80078125,11.6296875 5.15625,13.4273438 5.15625,15.375 Z M7.25625,17.1117188 C7.10625,16.5492188 7.03125,15.9679687 7.03125,15.375 C7.03125,14.4632813 7.209375,13.5796875 7.5609375,12.7476562 C7.59609375,12.665625 7.63125,12.5835937 7.67109375,12.5039062 C8.55,14.2476562 10.003125,15.6515625 11.7820312,16.4671875 C11.6085938,16.5585938 11.4328125,16.6429688 11.2523438,16.7203125 C10.4203125,17.071875 9.53671875,17.25 8.625,17.25 C8.1609375,17.25 7.70390625,17.203125 7.25625,17.1117188 Z M19.9992188,18 C19.6617187,18.80625 19.1742188,19.528125 18.553125,20.146875 C17.9320313,20.7679688 17.2101562,21.2554687 16.40625,21.5953125 C15.5742188,21.946875 14.690625,22.125 13.7789063,22.125 C12.8671875,22.125 11.9835938,21.946875 11.1515625,21.5953125 C10.3476562,21.2554687 9.62578125,20.7679688 9.0046875,20.146875 C8.6859375,19.828125 8.40234375,19.48125 8.15625,19.1109375 C8.3109375,19.1203125 8.465625,19.1226562 8.62265625,19.1226562 C10.70625,19.1226562 12.6164062,18.384375 14.1070313,17.15625 C14.5195312,17.2171875 14.94375,17.2476562 15.3726563,17.2476562 C17.3039063,17.2476562 19.0898438,16.6125 20.5265625,15.5390625 C20.5054687,16.3921875 20.3296875,17.2195313 19.9992188,18 Z M17.1984375,9.553125 C17.690625,9.84140625 18.1453125,10.1929688 18.5554688,10.603125 C19.1765625,11.2242188 19.6640625,11.9460938 20.0039062,12.75 C20.0835937,12.9398438 20.15625,13.134375 20.2171875,13.33125 C20.19375,13.3546875 20.1726563,13.378125 20.1492188,13.4015625 C19.528125,14.0226563 18.80625,14.5101563 18.0023438,14.85 C17.2851562,15.1523438 16.528125,15.328125 15.7476562,15.3703125 C16.6945312,13.9804688 17.25,12.3046875 17.25,10.5 C17.25,10.1789063 17.23125,9.8625 17.1984375,9.553125 Z M21.5976563,11.2546875 C21.5625,11.3367188 21.5273438,11.41875 21.4875,11.4984375 C20.484375,9.50625 18.7335938,7.959375 16.6054688,7.2234375 C15.7734375,5.20078125 14.1984375,3.56484375 12.2179688,2.6578125 C12.3914063,2.56640625 12.5671875,2.48203125 12.7476563,2.4046875 C13.5796875,2.053125 14.4632813,1.875 15.375,1.875 C16.2867188,1.875 17.1703125,2.053125 18.0023438,2.4046875 C18.80625,2.74453125 19.528125,3.23203125 20.1492188,3.853125 C20.7703125,4.47421875 21.2578125,5.19609375 21.5976563,6 C21.9492188,6.83203125 22.1273438,7.715625 22.1273438,8.62734375 C22.1273438,9.5390625 21.9492188,10.4226563 21.5976563,11.2546875 Z"/>
</svg>
