<svg xmlns="http://www.w3.org/2000/svg" width="24" height="24" viewBox="0 0 24 24">
  <path fill="#151515" fill-rule="evenodd" d="M22.7735294,10.3242647 C22.3257353,10.3242647 21.9816176,10.6816176 21.7389706,11.0235294 C21.4963235,11.3654412 21.1764706,10.7544118 21.1764706,10.225 L21.1764706,7.87352941 C21.1784109,7.59560888 21.0693194,7.32841401 20.8734173,7.13126946 C20.6775153,6.93412492 20.4110155,6.82334626 20.1330882,6.82352941 L18.5029412,6.82352941 C17.7882353,6.82352941 17.5014706,6.63823529 17.7948529,6.32058824 C18.1411765,5.94779412 18.3639706,5.63455882 18.3639706,5.23308824 C18.3639706,4.55147059 17.7242647,4 16.9323529,4 C16.1404412,4 15.5007353,4.55147059 15.5007353,5.23308824 C15.5007353,5.68088235 15.6772059,5.93676471 16.0411765,6.2875 C16.3941176,6.62720588 16.0566176,6.82352941 15.4191176,6.82352941 L13.7911765,6.82352941 C13.2035309,6.82092413 12.7214673,7.2882906 12.7058824,7.87573529 L12.7058824,9.02720588 C12.8536765,9.00514706 12.8911765,8.99191176 13.0279412,8.99191176 C14.4176471,8.99191176 15.5470588,10.2691176 15.5470588,11.8463235 C15.5470588,13.4235294 14.4198529,14.7007353 13.0279412,14.7007353 C12.8911765,14.7007353 12.8536765,14.6875 12.7058824,14.6654412 L12.7058824,17.0477941 C12.7058824,17.6279412 13.05,18.1176471 13.6323529,18.1176471 L15.4411765,18.1176471 C16.1647059,18.1176471 16.4801471,18.2610294 16.1382353,18.6382353 C15.7963235,19.0154412 15.5007353,19.3110294 15.5007353,19.7301471 C15.5007353,20.4007353 16.1404412,20.9411765 16.9323529,20.9411765 C17.7242647,20.9411765 18.3639706,20.3985294 18.3639706,19.7301471 C18.3639706,19.3419118 18.2647059,19.0617647 17.8102941,18.7 C17.3558824,18.3382353 17.7352941,18.1110294 18.4830882,18.1110294 L20.2147059,18.1110294 C20.7948529,18.1110294 21.1764706,17.5970588 21.1764706,17.0169118 L21.1764706,13.2404412 C21.1764706,12.7220588 21.4852941,12.0514706 21.7169118,12.4419118 C21.9485294,12.8323529 22.3102941,13.1808824 22.7735294,13.1808824 C23.4507353,13.1808824 24,12.5411765 24,11.7514706 C24,10.9617647 23.4507353,10.3242647 22.7735294,10.3242647 M14.2367647,11.7514706 C14.2367647,10.9617647 13.6941176,10.3220588 13.0213235,10.3220588 C12.5845588,10.3220588 12.2360294,10.5602941 11.9889706,10.9992647 C11.7419118,11.4382353 11.2941176,10.7720588 11.2941176,10.2029412 L11.2941176,9.27647059 C11.2941176,8.69632353 10.8110294,8.23529412 10.2308824,8.23529412 L8.40661765,8.23529412 C7.63014706,8.23529412 7.42941176,8.12279412 7.78455882,7.66176471 C8.17058824,7.21397059 8.35808824,6.93823529 8.35808824,6.55220588 C8.35808824,5.89705882 7.71838235,5.36764706 6.92647059,5.36764706 C6.13455882,5.36764706 5.49485294,5.89705882 5.49485294,6.55220588 C5.49485294,6.88308824 5.63823529,7.13014706 5.97573529,7.59779412 C6.31323529,8.06544118 6.19632353,8.23529412 5.38455882,8.23529412 L3.89338235,8.23529412 C3.31102941,8.23529412 2.82352941,8.67647059 2.82352941,9.25661765 L2.82352941,10.1830882 C2.82352941,10.6970588 2.63382353,11.2970588 2.25882353,10.9816176 C1.88382353,10.6661765 1.66544118,10.3220588 1.22426471,10.3220588 C0.536029412,10.3242647 0,10.9639706 0,11.7514706 C0,12.5389706 0.536029412,13.1808824 1.22867647,13.1808824 C1.69191176,13.1808824 2.04264706,12.8742647 2.29852941,12.4661765 C2.55441176,12.0580882 2.82352941,12.7661765 2.82352941,13.2602941 L2.82352941,18.4022059 C2.82352941,18.9823529 3.39926471,19.5095588 4.00147059,19.5294118 L5.24558824,19.5294118 C5.07132353,19.2007353 4.99411765,18.8080882 4.99411765,18.4595588 C4.99411765,17.2595588 5.58970588,16.7147059 6.90661765,16.6772059 L6.88235294,16.6772059 C7.84852941,16.6551471 8.64485294,17.2220588 8.64485294,18.4595588 C8.639352,18.8301618 8.55355738,19.1951652 8.39338235,19.5294118 L10.2132353,19.5294118 C10.7955882,19.5294118 11.2941176,19.0022059 11.2941176,18.4220588 L11.2941176,13.2404412 C11.2941176,12.6801471 11.7529412,12.0051471 11.9602941,12.4441176 C12.1676471,12.8830882 12.5647059,13.1808824 13.0213235,13.1808824 C13.6941176,13.1808824 14.2367647,12.5411765 14.2367647,11.7514706"/>
</svg>
