<svg xmlns="http://www.w3.org/2000/svg" width="24" height="24" viewBox="0 0 24 24">
  <path fill="#151515" fill-rule="evenodd" d="M12.6617647,7.64705882 L12.6617647,10.4705882 L19.7647059,10.4705882 C20.5440996,10.4713179 21.1757409,11.1029593 21.1764706,11.8823529 L21.1764706,11.8823529 L21.1764706,14.7058824 L22.5882353,14.7058824 C23.3676289,14.706612 23.9992703,15.3382534 24,16.1176471 L24,16.1176471 L24,20.3529412 C23.9992703,21.1323349 23.3676289,21.7639762 22.5882353,21.7647059 L22.5882353,21.7647059 L18.3529412,21.7647059 C17.5735475,21.7639762 16.9419061,21.1323349 16.9411765,20.3529412 L16.9411765,20.3529412 L16.9411765,16.1176471 C16.9419061,15.3382534 17.5735475,14.706612 18.3529412,14.7058824 L18.3529412,14.7058824 L19.7647059,14.7058824 L19.7647059,11.8823529 L12.6617647,11.8823529 L12.6617647,14.7058824 L14.0955882,14.7058824 C14.8749819,14.706612 15.5066233,15.3382534 15.5073529,16.1176471 L15.5073529,16.1176471 L15.5073529,20.3529412 C15.5066233,21.1323349 14.8749819,21.7639762 14.0955882,21.7647059 L14.0955882,21.7647059 L9.86029412,21.7647059 C9.08090043,21.7639762 8.44925907,21.1323349 8.44852941,20.3529412 L8.44852941,20.3529412 L8.44852941,16.1176471 C8.44925907,15.3382534 9.08090043,14.706612 9.86029412,14.7058824 L9.86029412,14.7058824 L11.25,14.7058824 L11.25,11.8823529 L4.23529412,11.8823529 L4.23529412,14.7058824 L5.64705882,14.7058824 C6.42645251,14.706612 7.05809387,15.3382534 7.05882353,16.1176471 L7.05882353,16.1176471 L7.05882353,20.3529412 C7.05809387,21.1323349 6.42645251,21.7639762 5.64705882,21.7647059 L5.64705882,21.7647059 L1.41176471,21.7647059 C0.632371021,21.7639762 0.000729655981,21.1323349 0,20.3529412 L0,20.3529412 L0,16.1176471 C0.000729655981,15.3382534 0.632371021,14.706612 1.41176471,14.7058824 L1.41176471,14.7058824 L2.82352941,14.7058824 L2.82352941,11.8823529 C2.82425907,11.1029593 3.45590043,10.4713179 4.23529412,10.4705882 L4.23529412,10.4705882 L11.25,10.4705882 L11.25,7.64705882 L12.6617647,7.64705882 Z M22.5882353,2 L22.5882353,6.23529412 L1.41176471,6.23529412 L1.41176471,2 L22.5882353,2 Z M15.5294118,4.82352941 L21.1875,4.82352941 L21.1875,3.41176471 L15.5294118,3.41176471 L15.5294118,4.82352941 Z"/>
</svg>
