<?xml version="1.0" encoding="UTF-8"?>
<svg width="118px" height="36px" viewBox="0 0 118 36" version="1.1" xmlns="http://www.w3.org/2000/svg" xmlns:xlink="http://www.w3.org/1999/xlink">
    <title></title>
    <g id="Expandable" stroke="none" stroke-width="1" fill="none" fill-rule="evenodd">
        <g id="Expandable-/-Open">
            <g id="angle-down" transform="translate(-6.000000, 6.000000)" fill="#151515">
                <path d="M12.5265524,15.2359089 L16.7765422,10.985919 C17.0703037,10.6953008 17.0703037,10.2202959 16.7765422,9.92656487 L16.0703061,9.22029824 C15.7796879,8.92656725 15.304683,8.92656725 15.0109215,9.22029824 L11.9984469,12.2328033 L8.98594192,9.22029824 C8.69532372,8.92656725 8.22031875,8.92656725 7.92655724,9.22029824 L7.22032113,9.92656487 C6.92655962,10.2171831 6.92655962,10.692188 7.22032113,10.985919 L11.470311,15.2359089 C11.7640725,15.5296704 12.239047,15.5296704 12.5265524,15.2359089 Z"></path>
            </g>
            <text id="âœï¸-Label" font-family="RedHatText-Regular, Red Hat Text" font-size="16" font-weight="normal" line-spacing="24" fill="#004080">
                <tspan x="18" y="22">Expandable</tspan>
            </text>
            <g id="ðŸ“-Padding" fill-opacity="0.9">
                <g id="Spacer-/-Horizontal-/-3.-pf-global--spacer--md-(16px)" transform="translate(102.000000, 6.000000)" fill="#3F9C35" stroke="#418A38">
                    <rect id="Rectangle-Copy-2" x="0.5" y="0.5" width="15" height="23"></rect>
                </g>
                <g id="Spacer-/-Vertical-/-8.-pf-global--spacer--form-element-(6px)" transform="translate(0.000000, 30.000000)" fill="#F3D53C" stroke="#CBB534">
                    <rect id="Rectangle" x="0.5" y="0.5" width="117" height="5"></rect>
                </g>
                <g id="Spacer-/-Vertical-/-8.-pf-global--spacer--form-element-(6px)" fill="#F3D53C" stroke="#CBB534">
                    <rect id="Rectangle" x="0.5" y="0.5" width="117" height="5"></rect>
                </g>
            </g>
        </g>
    </g>
</svg>