<svg xmlns="http://www.w3.org/2000/svg" width="111" height="73" viewBox="0 0 111 73">
  <g fill="none" fill-rule="evenodd">
    <text fill="#06C" font-family="RedHatText-Regular, Red Hat Text" font-size="16">
      <tspan x="44" y="40">Toggle</tspan>
    </text>
    <path fill="#06C" d="M12.6687415,19.5644081 L19.168726,16.3144159 C19.6780937,16.0613037 19.9968491,15.5394238 19.9968491,14.9738124 L19.9968491,7.93943586 C19.9968491,7.31443735 19.6093378,6.75508199 19.0249581,6.53633252 L12.5249736,4.09883833 C12.1874805,3.96758254 11.8124814,3.96758254 11.471845,4.09569502 L4.97186048,6.53318921 C4.38751128,6.75193869 4,7.31443735 4,7.93943586 L4,14.9738124 C4,15.5425366 4.32186813,16.0613037 4.82812303,16.3144159 L11.3281075,19.5644081 C11.7499815,19.7769015 12.2468675,19.7769015 12.6687415,19.5644081 Z M11.9999809,10.7581852 L5.99999523,8.32069105 L5.99999523,8.28632834 L11.9999809,6.03633371 L17.9999666,8.28632834 L17.9999666,8.32069105 L11.9999809,10.7581852 Z M12.9999785,17.1613072 L12.9999785,12.5081811 L17.9999666,10.4769359 L17.9999666,14.6613131 L12.9999785,17.1613072 Z" transform="translate(16 24)"/>
    <g fill="#3F9C35" fill-opacity=".9" stroke="#418A38">
      <rect width="15" height="72" x=".5" y=".5"/>
      <rect width="15" height="72" x=".5" y=".5" transform="translate(95)"/>
    </g>
  </g>
</svg>
