<?xml version="1.0" encoding="UTF-8"?>
<svg width="279px" height="162px" viewBox="0 0 279 162" version="1.1" xmlns="http://www.w3.org/2000/svg" xmlns:xlink="http://www.w3.org/1999/xlink">
    <title></title>
    <defs>
        <linearGradient x1="49.9422414%" y1="3.14212121%" x2="49.9422414%" y2="100.337273%" id="linearGradient-1">
            <stop stop-color="#00F1FF" offset="0%"></stop>
            <stop stop-color="#0076C1" offset="100%"></stop>
        </linearGradient>
    </defs>
    <g id="Cards" stroke="none" stroke-width="1" fill="none" fill-rule="evenodd">
        <g id="Card-/-With-logo-/-Default">
            <g id="Text-group">
                <g id="Card-/-Background-/-Default" fill="#FFFFFF" stroke="#D2D2D2">
                    <rect id="Background" x="0.5" y="0.5" width="278" height="161"></rect>
                </g>
                <text id="Text" font-family="RedHatText-Regular, Red Hat Text" font-size="14" font-weight="normal" line-spacing="21" fill="#151515">
                    <tspan x="16" y="96.8">PatternFly is an open source design </tspan>
                    <tspan x="16" y="117.8">system built to drive consistency and </tspan>
                    <tspan x="16" y="138.8">unify teams. </tspan>
                </text>
                <text id="Header" font-family="RedHatText-Medium, Red Hat Text" font-size="16" font-weight="400" line-spacing="24" fill="#151515">
                    <tspan x="16" y="67">PatternFly</tspan>
                </text>
            </g>
            <g id="Icons-/-PatternFly-/-Medium-placeholder" transform="translate(16.000000, 16.500000)" fill="url(#linearGradient-1)" fill-rule="nonzero">
                <path d="M8.4137931,17.6228571 L4.82758621,18.4457143 L0,11.6571429 L11.7241379,0.274285714 L12,0 L12.2758621,0.274285714 L24,11.6571429 L19.1724138,18.4457143 L15.5862069,17.6228571 L12,22.6285714 L8.4137931,17.6228571 Z M12,21.4628571 L14.8965517,17.4857143 L14,17.28 L12.0689655,20.0914286 L10,17.28 L9.10344828,17.4857143 L12,21.4628571 Z M12.0689655,18.8571429 L13.4482759,16.8 L12,2.88 L10.5517241,16.8 L12.0689655,18.8571429 Z M18.8275862,17.6228571 L23.0344828,11.7257143 L15.9310345,4.8 L19.7241379,9.39428571 L17.5862069,12.3428571 L18.2758621,13.92 L16.0689655,17.0057143 L18.8275862,17.6228571 Z M5.10344828,17.6228571 L7.93103448,17.0057143 L5.72413793,13.92 L6.4137931,12.3428571 L4.27586207,9.39428571 L8,4.8 L0.896551724,11.7257143 L5.10344828,17.6228571 Z M8.68965517,16.8 L9.5862069,16.5942857 L6.89655172,12.96 L6.55172414,13.7828571 L8.68965517,16.8 Z M15.3103448,16.8 L17.4482759,13.7828571 L17.1034483,12.96 L14.4137931,16.5942857 L15.3103448,16.8 Z M14.0689655,15.84 L16.7586207,12.2057143 L12.7586207,3.15428571 L14.0689655,15.84 Z M9.86206897,15.84 L11.2413793,3.15428571 L7.24137931,12.2742857 L9.86206897,15.84 Z M6.75862069,11.5885714 L10.7586207,2.60571429 L5.17241379,9.39428571 L6.75862069,11.5885714 Z M17.2413793,11.5885714 L18.8275862,9.39428571 L13.2413793,2.60571429 L17.2413793,11.5885714 Z" id="pf-shape"></path>
            </g>
            <g id="ðŸ“-Padding" fill-opacity="0.9">
                <g id="Spacer-/-Horizontal-/-3.-pf-global--spacer--md-(16px)" fill="#3F9C35" stroke="#418A38">
                    <rect id="Rectangle-Copy-2" x="0.5" y="0.5" width="15" height="161"></rect>
                </g>
                <g id="Spacer-/-Horizontal-/-3.-pf-global--spacer--md-(16px)" transform="translate(263.000000, 0.000000)" fill="#3F9C35" stroke="#418A38">
                    <rect id="Rectangle-Copy-2" x="0.5" y="0.5" width="15" height="161"></rect>
                </g>
                <g id="Spacer-/-Vertical-/-3.-pf-global--spacer--md-(16px)" transform="translate(16.000000, 0.000000)" fill="#3F9C35" stroke="#418A38">
                    <rect id="Rectangle-Copy-2" x="0.5" y="0.5" width="246" height="15"></rect>
                </g>
                <g id="Spacer-/-Vertical-/-3.-pf-global--spacer--md-(16px)" transform="translate(16.000000, 146.000000)" fill="#3F9C35" stroke="#418A38">
                    <rect id="Rectangle-Copy-2" x="0.5" y="0.5" width="246" height="15"></rect>
                </g>
                <g id="Spacer-/-Vertical-/-2.-pf-global--spacer--sm-(8px)" transform="translate(16.000000, 52.000000)" fill="#92D400" stroke="#7FB300">
                    <rect id="Rectangle-Copy" x="0.5" y="0.5" width="246" height="7"></rect>
                </g>
            </g>
        </g>
    </g>
</svg>