<?xml version="1.0" encoding="UTF-8"?><svg version="1.1" width="279px" height="162px" viewBox="0 0 279.0 162.0" xmlns="http://www.w3.org/2000/svg" xmlns:xlink="http://www.w3.org/1999/xlink"><defs><clipPath id="i0"><path d="M279,0 L279,162 L0,162 L0,0 L279,0 Z"></path></clipPath><clipPath id="i1"><path d="M12,0 L12.2758621,0.274285714 L24,11.6571429 L19.1724138,18.4457143 L15.5862069,17.6228571 L12,22.6285714 L8.4137931,17.6228571 L4.82758621,18.4457143 L0,11.6571429 L11.7241379,0.274285714 L12,0 Z M14,17.28 L12.0689655,20.0914286 L10,17.28 L9.10344828,17.4857143 L12,21.4628571 L14.8965517,17.4857143 L14,17.28 Z M12,2.88 L10.5517241,16.8 L12.0689655,18.8571429 L13.4482759,16.8 L12,2.88 Z M15.9310345,4.8 L19.7241379,9.39428571 L17.5862069,12.3428571 L18.2758621,13.92 L16.0689655,17.0057143 L18.8275862,17.6228571 L23.0344828,11.7257143 L15.9310345,4.8 Z M8,4.8 L0.896551724,11.7257143 L5.10344828,17.6228571 L7.93103448,17.0057143 L5.72413793,13.92 L6.4137931,12.3428571 L4.27586207,9.39428571 L8,4.8 Z M6.89655172,12.96 L6.55172414,13.7828571 L8.68965517,16.8 L9.5862069,16.5942857 L6.89655172,12.96 Z M17.1034483,12.96 L14.4137931,16.5942857 L15.3103448,16.8 L17.4482759,13.7828571 L17.1034483,12.96 Z M12.7586207,3.15428571 L14.0689655,15.84 L16.7586207,12.2057143 L12.7586207,3.15428571 Z M11.2413793,3.15428571 L7.24137931,12.2742857 L9.86206897,15.84 L11.2413793,3.15428571 Z M10.7586207,2.60571429 L5.17241379,9.39428571 L6.75862069,11.5885714 L10.7586207,2.60571429 Z M13.2413793,2.60571429 L17.2413793,11.5885714 L18.8275862,9.39428571 L13.2413793,2.60571429 Z"></path></clipPath><linearGradient id="i2" x1="11.9861379px" y1="0.711017143px" x2="11.9861379px" y2="22.7048914px" gradientUnits="userSpaceOnUse"><stop stop-color="#00F1FF" offset="0%"></stop><stop stop-color="#0076C1" offset="100%"></stop></linearGradient><clipPath id="i3"><path d="M16,0 L16,162 L0,162 L0,0 L16,0 Z"></path></clipPath><clipPath id="i4"><path d="M247,0 L247,16 L0,16 L0,0 L247,0 Z"></path></clipPath><clipPath id="i5"><path d="M247,0 L247,8 L0,8 L0,0 L247,0 Z"></path></clipPath></defs><g clip-path="url(#i0)"><polygon points="0,0 279,0 279,162 0,162 0,0" stroke="none" fill="#FFFFFF"></polygon><polygon points="0,0 279,0 279,162 0,162 0,0 0,0" stroke="#D2D2D2" stroke-width="2" fill="none" stroke-miterlimit="5"></polygon></g><g transform="translate(16.0 82.79999999999995)"><text transform="translate(0.0 14.0)"><tspan x="0px" y="0px" font-family="RedHatText-Regular, Red Hat Text" font-size="14.0" font-weight="normal" fill="#141514" text-anchor="left" line-spacing="21.0">PatternFly is an open source design </tspan><tspan x="0px" y="21px" font-family="RedHatText-Regular, Red Hat Text" font-size="14.0" font-weight="normal" fill="#141514" text-anchor="left" line-spacing="21.0">system built to drive consistency and </tspan><tspan x="0px" y="42px" font-family="RedHatText-Regular, Red Hat Text" font-size="14.0" font-weight="normal" fill="#141514" text-anchor="left" line-spacing="21.0">unify teams. </tspan></text></g><g transform="translate(16.0 51.0)"><text transform="translate(0.0 16.0)" font-family="RedHatDisplay-Medium, Red Hat Display" font-size="16.0" font-weight="500" fill="#151515" text-anchor="left" line-spacing="24.0">PatternFly</text></g><g transform="translate(16.0 16.5)"><g clip-path="url(#i1)"><polygon points="0,0 24,0 24,22.6285714 0,22.6285714 0,0" stroke="none" fill="url(#i2)"></polygon></g></g><g clip-path="url(#i3)"><polygon points="0,0 16,0 16,162 0,162 0,0" stroke="none" fill="rgba(62, 156, 52, 0.9)"></polygon></g><g clip-path="url(#i3)"><polygon points="0,0 16,0 16,162 0,162 0,0 0,0" stroke="#418A37" stroke-width="2" fill="none" stroke-miterlimit="5"></polygon></g><g transform="translate(263.0 0.0)"><g clip-path="url(#i3)"><polygon points="0,0 16,0 16,162 0,162 0,0" stroke="none" fill="rgba(62, 156, 52, 0.9)"></polygon></g><g clip-path="url(#i3)"><polygon points="0,0 16,0 16,162 0,162 0,0 0,0" stroke="#418A37" stroke-width="2" fill="none" stroke-miterlimit="5"></polygon></g></g><g transform="translate(16.0 0.0)"><g clip-path="url(#i4)"><polygon points="0,0 247,0 247,16 0,16 0,0" stroke="none" fill="rgba(62, 156, 52, 0.9)"></polygon></g><g clip-path="url(#i4)"><polygon points="0,0 247,0 247,16 0,16 0,0 0,0" stroke="#418A37" stroke-width="2" fill="none" stroke-miterlimit="5"></polygon></g></g><g transform="translate(16.0 146.0)"><g clip-path="url(#i4)"><polygon points="0,0 247,0 247,16 0,16 0,0" stroke="none" fill="rgba(62, 156, 52, 0.9)"></polygon></g><g clip-path="url(#i4)"><polygon points="0,0 247,0 247,16 0,16 0,0 0,0" stroke="#418A37" stroke-width="2" fill="none" stroke-miterlimit="5"></polygon></g></g><g transform="translate(16.0 52.0)"><g clip-path="url(#i5)"><polygon points="0,0 247,0 247,8 0,8 0,0" stroke="none" fill="rgba(146, 211, 0, 0.9)"></polygon></g><g clip-path="url(#i5)"><polygon points="0,0 247,0 247,8 0,8 0,0 0,0" stroke="#7EB200" stroke-width="2" fill="none" stroke-miterlimit="5"></polygon></g></g></svg>