<?xml version="1.0" encoding="UTF-8"?><svg version="1.1" width="320px" height="213px" viewBox="0 0 320.0 213.0" xmlns="http://www.w3.org/2000/svg" xmlns:xlink="http://www.w3.org/1999/xlink"><defs><clipPath id="i0"><path d="M320,0 L320,213 L0,213 L0,0 L320,0 Z"></path></clipPath><clipPath id="i1"><path d="M16,0 L16,16 L0,16 L0,0 L16,0 Z"></path></clipPath><clipPath id="i2"><path d="M2.24999464,10.9999738 C3.49373557,10.9999738 4.49998927,12.0062275 4.49998927,13.2499684 C4.49998927,14.4937093 3.49373557,15.499963 2.24999464,15.499963 C1.0062537,15.499963 0,14.4937093 0,13.2499684 C0,12.0062275 1.0062537,10.9999738 2.24999464,10.9999738 Z M2.24999464,5.49998689 C3.49373557,5.49998689 4.49998927,6.50624059 4.49998927,7.74998152 C4.49998927,8.99372245 3.49373557,9.99997616 2.24999464,9.99997616 C1.0062537,9.99997616 0,8.99372245 0,7.74998152 C0,6.50624059 1.0062537,5.49998689 2.24999464,5.49998689 Z M2.24999464,0 C3.49373557,0 4.49998927,1.0062537 4.49998927,2.24999464 C4.49998927,3.49373557 3.49373557,4.49998927 2.24999464,4.49998927 C1.0062537,4.49998927 0,3.49373557 0,2.24999464 C0,1.0062537 1.0062537,0 2.24999464,0 Z"></path></clipPath><clipPath id="i3"><path d="M12,0 L12.2758621,0.274285714 L24,11.6571429 L19.1724138,18.4457143 L15.5862069,17.6228571 L12,22.6285714 L8.4137931,17.6228571 L4.82758621,18.4457143 L0,11.6571429 L11.7241379,0.274285714 L12,0 Z M14,17.28 L12.0689655,20.0914286 L10,17.28 L9.10344828,17.4857143 L12,21.4628571 L14.8965517,17.4857143 L14,17.28 Z M12,2.88 L10.5517241,16.8 L12.0689655,18.8571429 L13.4482759,16.8 L12,2.88 Z M15.9310345,4.8 L19.7241379,9.39428571 L17.5862069,12.3428571 L18.2758621,13.92 L16.0689655,17.0057143 L18.8275862,17.6228571 L23.0344828,11.7257143 L15.9310345,4.8 Z M8,4.8 L0.896551724,11.7257143 L5.10344828,17.6228571 L7.93103448,17.0057143 L5.72413793,13.92 L6.4137931,12.3428571 L4.27586207,9.39428571 L8,4.8 Z M6.89655172,12.96 L6.55172414,13.7828571 L8.68965517,16.8 L9.5862069,16.5942857 L6.89655172,12.96 Z M17.1034483,12.96 L14.4137931,16.5942857 L15.3103448,16.8 L17.4482759,13.7828571 L17.1034483,12.96 Z M12.7586207,3.15428571 L14.0689655,15.84 L16.7586207,12.2057143 L12.7586207,3.15428571 Z M11.2413793,3.15428571 L7.24137931,12.2742857 L9.86206897,15.84 L11.2413793,3.15428571 Z M10.7586207,2.60571429 L5.17241379,9.39428571 L6.75862069,11.5885714 L10.7586207,2.60571429 Z M13.2413793,2.60571429 L17.2413793,11.5885714 L18.8275862,9.39428571 L13.2413793,2.60571429 Z"></path></clipPath><linearGradient id="i4" x1="11.9861379px" y1="0.711017143px" x2="11.9861379px" y2="22.7048914px" gradientUnits="userSpaceOnUse"><stop stop-color="#00F1FF" offset="0%"></stop><stop stop-color="#0076C1" offset="100%"></stop></linearGradient></defs><g clip-path="url(#i0)"><polygon points="0,0 320,0 320,213 0,213 0,0" stroke="none" fill="#FFFFFF"></polygon><polygon points="0,0 320,0 320,213 0,213 0,0 0,0" stroke="#D2D2D2" stroke-width="2" fill="none" stroke-miterlimit="5"></polygon></g><g transform="translate(264.0 30.0)"><g transform="translate(8.0 4.0)"><g clip-path="url(#i1)"><polygon points="0,0 16,0 16,16 0,16 0,0" stroke="none" fill="#FFFFFF"></polygon><polygon points="0,0 16,0 16,16 0,16 0,0 0,0" stroke="#696E73" stroke-width="2" fill="none" stroke-miterlimit="5"></polygon></g></g></g><g transform="translate(224.0 24.0)"><g transform="translate(18.16666309038797 9.87499076128006)"><g clip-path="url(#i2)"><polygon points="0,0 4.49998927,0 4.49998927,15.499963 0,15.499963 0,0" stroke="none" fill="#696E73"></polygon></g></g></g><g transform="translate(24.0 29.0)"></g><g transform="translate(24.0 117.0)"><text transform="translate(0.0 16.0)"><tspan x="0px" y="0px" font-family="RedHatText-Regular, Red Hat Text" font-size="16.0" font-weight="normal" fill="#151515" text-anchor="left" line-spacing="24.0">PatternFly is an open source design </tspan><tspan x="0px" y="24px" font-family="RedHatText-Regular, Red Hat Text" font-size="16.0" font-weight="normal" fill="#151515" text-anchor="left" line-spacing="24.0">system built to drive consistency and </tspan><tspan x="0px" y="48px" font-family="RedHatText-Regular, Red Hat Text" font-size="16.0" font-weight="normal" fill="#151515" text-anchor="left" line-spacing="24.0">unify teams. </tspan></text></g><g transform="translate(24.0 72.0)"><text transform="translate(0.0 20.0)" font-family="RedHatDisplay-Medium, Red Hat Display" font-size="20.0" font-weight="500" fill="#151515" text-anchor="left" line-spacing="30.0">PatternFly</text></g><g transform="translate(24.0 24.0)"><g clip-path="url(#i3)"><polygon points="0,0 24,0 24,22.6285714 0,22.6285714 0,0" stroke="none" fill="url(#i4)"></polygon></g></g></svg>