<?xml version="1.0" encoding="UTF-8"?><svg version="1.1" width="279px" height="229px" viewBox="0 0 279.0 229.0" xmlns="http://www.w3.org/2000/svg" xmlns:xlink="http://www.w3.org/1999/xlink"><defs><clipPath id="i0"><path d="M279,0 L279,229 L0,229 L0,0 L279,0 Z"></path></clipPath><clipPath id="i1"><path d="M7.18748286,0 C7.39581586,0 7.57289845,0.0729163339 7.7187316,0.218749478 L13.7812171,6.28123502 C13.9270503,6.42706817 13.9999666,6.60415076 13.9999666,6.81248376 C13.9999666,7.02081675 13.9270503,7.19789935 13.7812171,7.34373249 L7.7187316,13.406218 C7.57289845,13.5520512 7.39581586,13.6249675 7.18748286,13.6249675 C6.97914987,13.6249675 6.80206727,13.5520512 6.65623413,13.406218 L5.96873577,12.7187197 C5.80206966,12.5728865 5.72394485,12.3958039 5.73436133,12.1874709 C5.74477781,11.9791379 5.82290262,11.8020554 5.96873577,11.6562222 L9.71872683,8.06248078 L0.749998212,8.06248078 C0.541665216,8.06248078 0.364582623,7.98956444 0.218749478,7.8437313 C0.0729163339,7.69789815 0,7.52081556 0,7.31248257 L0,6.31248495 C0,6.10415195 0.0729163339,5.92706936 0.218749478,5.78123622 C0.364582623,5.63540307 0.541665216,5.56248674 0.749998212,5.56248674 L9.71872683,5.56248674 L5.96873577,1.96874531 C5.82290262,1.82291216 5.74477781,1.64582957 5.73436133,1.43749657 C5.72394485,1.22916358 5.80206966,1.05208098 5.96873577,0.906247839 L6.65623413,0.218749478 C6.80206727,0.0729163339 6.97914987,0 7.18748286,0 Z"></path></clipPath><clipPath id="i2"><path d="M12,0 L12.2758621,0.274285714 L24,11.6571429 L19.1724138,18.4457143 L15.5862069,17.6228571 L12,22.6285714 L8.4137931,17.6228571 L4.82758621,18.4457143 L0,11.6571429 L11.7241379,0.274285714 L12,0 Z M14,17.28 L12.0689655,20.0914286 L10,17.28 L9.10344828,17.4857143 L12,21.4628571 L14.8965517,17.4857143 L14,17.28 Z M12,2.88 L10.5517241,16.8 L12.0689655,18.8571429 L13.4482759,16.8 L12,2.88 Z M15.9310345,4.8 L19.7241379,9.39428571 L17.5862069,12.3428571 L18.2758621,13.92 L16.0689655,17.0057143 L18.8275862,17.6228571 L23.0344828,11.7257143 L15.9310345,4.8 Z M8,4.8 L0.896551724,11.7257143 L5.10344828,17.6228571 L7.93103448,17.0057143 L5.72413793,13.92 L6.4137931,12.3428571 L4.27586207,9.39428571 L8,4.8 Z M6.89655172,12.96 L6.55172414,13.7828571 L8.68965517,16.8 L9.5862069,16.5942857 L6.89655172,12.96 Z M17.1034483,12.96 L14.4137931,16.5942857 L15.3103448,16.8 L17.4482759,13.7828571 L17.1034483,12.96 Z M12.7586207,3.15428571 L14.0689655,15.84 L16.7586207,12.2057143 L12.7586207,3.15428571 Z M11.2413793,3.15428571 L7.24137931,12.2742857 L9.86206897,15.84 L11.2413793,3.15428571 Z M10.7586207,2.60571429 L5.17241379,9.39428571 L6.75862069,11.5885714 L10.7586207,2.60571429 Z M13.2413793,2.60571429 L17.2413793,11.5885714 L18.8275862,9.39428571 L13.2413793,2.60571429 Z"></path></clipPath><linearGradient id="i3" x1="11.9861379px" y1="0.711017143px" x2="11.9861379px" y2="22.7048914px" gradientUnits="userSpaceOnUse"><stop stop-color="#00F1FF" offset="0%"></stop><stop stop-color="#0076C1" offset="100%"></stop></linearGradient></defs><g clip-path="url(#i0)"><polygon points="0,0 279,0 279,229 0,229 0,0" stroke="none" fill="#FFFFFF"></polygon><polygon points="0,0 279,0 279,229 0,229 0,0 0,0" stroke="#D2D2D2" stroke-width="2" fill="none" stroke-miterlimit="5"></polygon></g><g transform="translate(16.0 22.0)"></g><g transform="translate(16.0 185.0)"><g transform="translate(45.0 6.0)"><g transform="translate(5.0 4.999999999999999)"><g clip-path="url(#i1)"><polygon points="0,0 13.9999666,0 13.9999666,13.6249675 0,13.6249675 0,0" stroke="none" fill="#0066CC"></polygon></g></g></g><g transform="translate(0.0 6.0)"><text transform="translate(0.0 16.0)" font-family="RedHatText-Regular, Red Hat Text" font-size="16.0" font-weight="normal" fill="#0066CC" text-anchor="left" line-spacing="24.0">Open</text></g></g><g transform="translate(16.0 105.8)"><text transform="translate(0.0 14.0)"><tspan x="0px" y="0px" font-family="RedHatText-Regular, Red Hat Text" font-size="14.0" font-weight="normal" fill="#696E73" text-anchor="left" line-spacing="21.0">Install, register, and manage Red Hat </tspan><tspan x="0px" y="21px" font-family="RedHatText-Regular, Red Hat Text" font-size="14.0" font-weight="normal" fill="#696E73" text-anchor="left" line-spacing="21.0">OpenShift 4 clusters.</tspan></text></g><g transform="translate(16.0 51.0)"><text transform="translate(0.0 16.0)"><tspan x="0px" y="0px" font-family="RedHatDisplay-Medium, Red Hat Display" font-size="16.0" font-weight="500" fill="#151515" text-anchor="left" line-spacing="24.0">Red Hat OpenShift Cluster </tspan><tspan x="0px" y="24px" font-family="RedHatDisplay-Medium, Red Hat Display" font-size="16.0" font-weight="500" fill="#151515" text-anchor="left" line-spacing="24.0">Manager</tspan></text></g><g transform="translate(16.0 16.0)"><g clip-path="url(#i2)"><polygon points="0,0 24,0 24,22.6285714 0,22.6285714 0,0" stroke="none" fill="url(#i3)"></polygon></g></g></svg>