<?xml version="1.0" encoding="UTF-8"?><svg version="1.1" width="956px" height="40px" viewBox="0 0 956.0 40.0" xmlns="http://www.w3.org/2000/svg" xmlns:xlink="http://www.w3.org/1999/xlink"><defs><filter id="i0" x="-1.35135135%" y="-32.6086957%" filterUnits="userSpaceOnUse" width="102.079002%" height="143.478261%"><feGaussianBlur stdDeviation="2" in="SourceAlpha" result="i1"></feGaussianBlur><feOffset dx="0" dy="-2" in="i1" result="i2"></feOffset><feColorMatrix values="0 0 0 0.0 0 0 0 0 0.0 0 0 0 0 0.0 0 0 0 0 0.16 0" type="matrix" in="i2"></feColorMatrix></filter><clipPath id="i3"><path d="M956,0 L956,40 L0,40 L0,0 L956,0 Z"></path></clipPath><filter id="i4" x="-1.35135135%" y="-23.9130435%" filterUnits="userSpaceOnUse" width="102.079002%" height="143.478261%"><feGaussianBlur stdDeviation="2" in="SourceAlpha" result="i5"></feGaussianBlur><feOffset dx="0" dy="2" in="i5" result="i6"></feOffset><feColorMatrix values="0 0 0 0.0 0 0 0 0 0.0 0 0 0 0 0.0 0 0 0 0 0.16 0" type="matrix" in="i6"></feColorMatrix></filter><clipPath id="i7"><path d="M2.24999464,10.9999738 C3.49373557,10.9999738 4.49998927,12.0062275 4.49998927,13.2499684 C4.49998927,14.4937093 3.49373557,15.499963 2.24999464,15.499963 C1.0062537,15.499963 0,14.4937093 0,13.2499684 C0,12.0062275 1.0062537,10.9999738 2.24999464,10.9999738 Z M2.24999464,5.49998689 C3.49373557,5.49998689 4.49998927,6.50624059 4.49998927,7.74998152 C4.49998927,8.99372245 3.49373557,9.99997616 2.24999464,9.99997616 C1.0062537,9.99997616 0,8.99372245 0,7.74998152 C0,6.50624059 1.0062537,5.49998689 2.24999464,5.49998689 Z M2.24999464,0 C3.49373557,0 4.49998927,1.0062537 4.49998927,2.24999464 C4.49998927,3.49373557 3.49373557,4.49998927 2.24999464,4.49998927 C1.0062537,4.49998927 0,3.49373557 0,2.24999464 C0,1.0062537 1.0062537,0 2.24999464,0 Z"></path></clipPath><clipPath id="i8"><path d="M24,0 L24,24 L0,24 L0,0 L24,0 Z"></path></clipPath><clipPath id="i9"><path d="M24,0 L24,40 L0,40 L0,0 L24,0 Z"></path></clipPath><clipPath id="i10"><path d="M908,0 L908,8 L0,8 L0,0 L908,0 Z"></path></clipPath><clipPath id="i11"><path d="M16,0 L16,16 L0,16 L0,0 L16,0 Z"></path></clipPath></defs><polygon points="1,1 955,1 955,39 1,39 1,1" stroke="none" fill="#000000" filter="url(#i0)"></polygon><g clip-path="url(#i3)"><polygon points="0,0 956,0 956,40 0,40 0,0" stroke="none" fill="#FFFFFF"></polygon></g><polygon points="1,1 955,1 955,39 1,39 1,1" stroke="none" fill="#000000" filter="url(#i4)"></polygon><g clip-path="url(#i3)"><polygon points="0,0 956,0 956,40 0,40 0,0" stroke="none" fill="#FFFFFF"></polygon></g><g clip-path="url(#i3)"><polygon points="0,0 956,0 956,40 0,40 0,0" stroke="none" fill="#FFFFFF"></polygon><g transform="translate(0.0 -1.0)"><polygon points="956,40 956,41 0,41 0,40 956,40 956,40" stroke="none" fill="#D2D2D2"></polygon></g></g><g transform="translate(902.0 2.0)"><g transform="translate(8.0 6.0)"><g transform="translate(10.0 3.999999999999999)"><g clip-path="url(#i7)"><polygon points="0,0 4.49998927,0 4.49998927,15.499963 0,15.499963 0,0" stroke="none" fill="#151515"></polygon><g clip-path="url(#i8)"><polygon points="0,0 4.49998927,0 4.49998927,15.499963 0,15.499963 0,0" stroke="none" fill="#696E73"></polygon></g></g></g></g></g><g clip-path="url(#i9)"><polygon points="0,0 24,0 24,40 0,40 0,0" stroke="none" fill="rgba(0, 121, 135, 0.9)"></polygon></g><g clip-path="url(#i9)"><polygon points="0,0 24,0 24,40 0,40 0,0 0,0" stroke="#09707A" stroke-width="2" fill="none" stroke-miterlimit="5"></polygon></g><g transform="translate(932.0 0.0)"><g clip-path="url(#i9)"><polygon points="0,0 24,0 24,40 0,40 0,0" stroke="none" fill="rgba(0, 121, 135, 0.9)"></polygon></g><g clip-path="url(#i9)"><polygon points="0,0 24,0 24,40 0,40 0,0 0,0" stroke="#09707A" stroke-width="2" fill="none" stroke-miterlimit="5"></polygon></g></g><g transform="translate(24.0 0.0)"><g clip-path="url(#i10)"><polygon points="0,0 908,0 908,8 0,8 0,0" stroke="none" fill="rgba(146, 211, 0, 0.9)"></polygon></g><g clip-path="url(#i10)"><polygon points="0,0 908,0 908,8 0,8 0,0 0,0" stroke="#7EB200" stroke-width="2" fill="none" stroke-miterlimit="5"></polygon></g></g><g transform="translate(24.000000000000057 32.0)"><g clip-path="url(#i10)"><polygon points="0,0 908,0 908,8 0,8 0,0" stroke="none" fill="rgba(146, 211, 0, 0.9)"></polygon></g><g clip-path="url(#i10)"><polygon points="0,0 908,0 908,8 0,8 0,0 0,0" stroke="#7EB200" stroke-width="2" fill="none" stroke-miterlimit="5"></polygon></g></g><g transform="translate(16.0 8.0)"><g transform="translate(8.0 4.0)"><g clip-path="url(#i11)"><polygon points="0,0 16,0 16,16 0,16 0,0" stroke="none" fill="#FFFFFF"></polygon><polygon points="0,0 16,0 16,16 0,16 0,0 0,0" stroke="#696E73" stroke-width="2" fill="none" stroke-miterlimit="5"></polygon></g></g></g></svg>