<svg xmlns="http://www.w3.org/2000/svg" width="24" height="24" viewBox="0 0 24 24">
  <path fill="#151515" fill-rule="evenodd" d="M17.1249759,8.68749598 C17.3320905,8.68749598 17.499975,8.51961155 17.499975,8.31249687 L17.499975,7.37499911 C17.499975,7.16788443 17.3320905,7 17.1249759,7 L7.37499911,7 C7.16788443,7 7,7.16788443 7,7.37499911 L7,8.31249687 C7,8.51961155 7.16788443,8.68749598 7.37499911,8.68749598 L17.1249759,8.68749598 Z M17.1249759,12.437487 C17.3320905,12.437487 17.499975,12.2696026 17.499975,12.0624879 L17.499975,11.1249902 C17.499975,10.9178755 17.3320905,10.7499911 17.1249759,10.7499911 L7.37499911,10.7499911 C7.16788443,10.7499911 7,10.9178755 7,11.1249902 L7,12.0624879 C7,12.2696026 7.16788443,12.437487 7.37499911,12.437487 L17.1249759,12.437487 Z M17.1249759,16.1874781 C17.3320905,16.1874781 17.499975,16.0195937 17.499975,15.812479 L17.499975,14.8749812 C17.499975,14.6678665 17.3320905,14.4999821 17.1249759,14.4999821 L7.37499911,14.4999821 C7.16788443,14.4999821 7,14.6678665 7,14.8749812 L7,15.812479 C7,16.0195937 7.16788443,16.1874781 7.37499911,16.1874781 L17.1249759,16.1874781 Z"/>
</svg>
