<svg xmlns="http://www.w3.org/2000/svg" width="24" height="24" viewBox="0 0 24 24">
  <path fill="#151515" fill-rule="evenodd" d="M17.9610601,17.499975 C18.1766891,17.499975 18.3712153,17.371069 18.4579385,17.1718507 C18.5423041,16.9726325 18.5024559,16.7429501 18.3548046,16.5859146 C18.3454433,16.578888 17.8274621,16.0210814 17.4688737,15.3015473 C18.1134035,14.6663788 18.5001213,13.8695057 18.5001213,12.9999857 C18.5001213,11.1249902 16.7071568,9.57578426 14.3704391,9.29920411 C13.6321596,7.94921649 11.8977887,7 9.87514185,7 C7.18217036,7 5.00015347,8.67811184 5.00015347,10.7499911 C5.00015347,11.6171765 5.3868713,12.4140496 6.03140101,13.0515526 C5.67281269,13.7710868 5.15718892,14.3288934 5.14780479,14.3382546 C5.00015347,14.4952901 4.95797065,14.7249724 5.04469377,14.9241907 C5.12905941,15.123409 5.3259431,15.2523149 5.54154927,15.2523149 C6.79545253,15.2523149 7.8079547,14.7788969 8.47592185,14.3429467 C8.69155092,14.392179 8.91420664,14.4296698 9.14155442,14.4577993 C9.87747643,15.8030949 11.6048206,16.7499768 13.6251329,16.7499768 C14.1126272,16.7499768 14.581376,16.6937177 15.0266875,16.5906067 C15.6946546,17.0241994 16.7048222,17.499975 17.9610601,17.499975 Z M6.85171155,13.8999927 C6.91499723,13.7898321 6.97828291,13.6726449 7.03921111,13.5531002 L7.40249149,12.8242049 L6.82124745,12.2499875 C6.50484196,11.9359166 6.12515079,11.4226503 6.12515079,10.7499911 C6.12515079,9.32733362 7.84311086,8.12499732 9.87514185,8.12499732 C11.9071728,8.12499732 13.6251329,9.32733362 13.6251329,10.7499911 C13.6251329,12.1726485 11.9071728,13.3749848 9.87514185,13.3749848 C9.48842402,13.3749848 9.10170619,13.3304445 8.72670708,13.2437443 L8.26265027,13.1382758 L7.86185624,13.3984222 C7.53139743,13.6116938 7.19388908,13.780448 6.85171155,13.8999927 Z M16.6508978,16.1476299 C16.3087203,16.0281081 15.9712119,15.8593539 15.6407531,15.6460823 L15.239982,15.3859129 L14.7735677,15.4937389 C14.3985686,15.5804391 14.0118507,15.6249794 13.6251329,15.6249794 C12.3595109,15.6249794 11.2298215,15.153896 10.5478011,14.4601339 C12.9220096,14.2070141 14.7501302,12.6460894 14.7501302,10.7499911 C14.7501302,10.6702946 14.7407461,10.5929556 14.7337194,10.5156166 C16.2431,10.8554596 17.375124,11.8468589 17.375124,12.9999857 C17.375124,13.6726449 16.9954328,14.1859112 16.6790273,14.4999821 L16.1001178,15.0718649 L16.4633982,15.8007603 C16.5243493,15.9202821 16.587635,16.0374693 16.6508978,16.1476299 Z"/>
</svg>
