<?xml version="1.0" encoding="UTF-8"?><svg version="1.1" width="450px" height="164px" viewBox="0 0 450.0 164.0" xmlns="http://www.w3.org/2000/svg" xmlns:xlink="http://www.w3.org/1999/xlink"><defs><filter id="i0" x="-3.8961039%" y="-10.1694915%" filterUnits="userSpaceOnUse" width="105.194805%" height="113.559322%"><feGaussianBlur stdDeviation="3" in="SourceAlpha" result="i1"></feGaussianBlur><feOffset dx="0" dy="0" in="i1" result="i2"></feOffset><feColorMatrix values="0 0 0 0.0 0 0 0 0 0.0 0 0 0 0 0.0 0 0 0 0 0.08 0" type="matrix" in="i2"></feColorMatrix></filter><filter id="i3" x="-11.6182573%" y="-24.3654822%" filterUnits="userSpaceOnUse" width="116.59751%" height="140.609137%"><feGaussianBlur stdDeviation="8" in="SourceAlpha" result="i4"></feGaussianBlur><feOffset dx="0" dy="8" in="i4" result="i5"></feOffset><feColorMatrix values="0 0 0 0.0 0 0 0 0 0.0 0 0 0 0 0.0 0 0 0 0 0.16 0" type="matrix" in="i5"></feColorMatrix></filter><clipPath id="i6"><path d="M225,0 L243,18 L207,18 L225,0 Z M432,147 L243,147 L225,165 L207,147 L18,147 L18,100.75076 L0,82.7507599 L18,64.7507599 L18,18 L432,18 L432,64.7507599 L450,82.7507599 L432,100.75076 L432,147 Z"></path></clipPath><clipPath id="i7"><path d="M0.737117917,0.215863667 C1.02516502,-0.0719545556 1.4918082,-0.0719545556 1.77960353,0.215863667 L4.12499589,2.56125602 L6.47038824,0.215863667 C6.75843535,-0.0719545556 7.22505563,-0.0719545556 7.51287386,0.215863667 L8.03412811,0.737117917 C8.32194633,1.02516502 8.32194633,1.4918082 8.03412811,1.77960353 L5.68873575,4.12499589 L8.03412811,6.47038824 C8.32194633,6.75843535 8.32194633,7.22505563 8.03412811,7.51287386 L7.51287386,8.03412811 C7.22505563,8.32194633 6.75818358,8.32194633 6.47038824,8.03412811 L4.12499589,5.68873575 L1.77960353,8.03412811 C1.4918082,8.32194633 1.02493614,8.32194633 0.737117917,8.03412811 L0.215863667,7.51287386 C-0.0719545556,7.22482675 -0.0719545556,6.75818358 0.215863667,6.47038824 L2.56125602,4.12499589 L0.215863667,1.77960353 C-0.0719545556,1.49155643 -0.0719545556,1.02493614 0.215863667,0.737117917 Z"></path></clipPath><clipPath id="i8"><path d="M8,0 L8,12 L0,12 L0,0 L8,0 Z"></path></clipPath><clipPath id="i9"><path d="M348,0 L348,63 L0,63 L0,0 L348,0 Z"></path></clipPath><clipPath id="i10"><path d="M11.6249723,0 C18.0452756,0 23.2499446,5.20466899 23.2499446,11.6249723 C23.2499446,18.0452756 18.0452756,23.2499446 11.6249723,23.2499446 C5.20466899,23.2499446 0,18.0452756 0,11.6249723 C0,5.20466899 5.20466899,0 11.6249723,0 Z M17.8446382,7.03402559 C17.5518075,6.74110331 17.0768788,6.74110331 16.7839566,7.03402559 L9.74997675,14.0680054 L6.465988,10.7839709 C6.1731115,10.4910944 5.69818283,10.4910944 5.40530633,10.7839709 L4.34462465,11.8446068 C4.05179393,12.1374833 4.05179393,12.6124119 4.34462465,12.9052884 L9.21961303,17.7802768 C9.5125353,18.0731533 9.9874182,18.0731533 10.2803405,17.7803226 L18.9053199,9.15534316 C19.1981506,8.86246666 19.1981506,8.38753799 18.9053199,8.09466149 Z"></path></clipPath></defs><g transform="translate(0.0 -0.5)"><g transform="translate(0.0 -0.5)"><path d="M18,18 L432,18 L432,147 L18,147 L18,18 Z M450,82.7507599 L432,64.7507599 L432,100.75076 L450,82.7507599 Z M0,82.7507599 L18,64.7507599 L18,100.75076 L0,82.7507599 Z M225,165 L243,147 L207,147 L225,165 Z M225,0 L243,18 L207,18 L225,0 Z" stroke="none" fill="#000000" filter="url(#i0)"></path><path d="M18,18 L432,18 L432,147 L18,147 L18,18 Z M450,82.7507599 L432,64.7507599 L432,100.75076 L450,82.7507599 Z M0,82.7507599 L18,64.7507599 L18,100.75076 L0,82.7507599 Z M225,165 L243,147 L207,147 L225,165 Z M225,0 L243,18 L207,18 L225,0 Z" stroke="none" fill="#000000" filter="url(#i3)"></path><g clip-path="url(#i6)"><polygon points="0,0 450,0 450,165 0,165 0,0" stroke="none" fill="#FFFFFF"></polygon></g></g><g transform="translate(392.0 35.0)"><g transform="translate(8.0 6.0)"><g transform="translate(-8.0 -6.0)"><g transform="translate(8.0 8.0)"><g clip-path="url(#i7)"><polygon points="0,0 8.24999177,0 8.24999177,8.24999177 0,8.24999177 0,0" stroke="none" fill="#696E73"></polygon><g transform="translate(8.0 6.0)"><g clip-path="url(#i8)"><polygon points="0,0 0.249991775,0 0.249991775,2.24999177 0,2.24999177 0,0" stroke="none" fill="#696E73"></polygon></g></g></g></g></g></g></g></g><g transform="translate(35.0 64.5)"><g clip-path="url(#i9)"><text transform="translate(0.0 14.0)"><tspan x="0px" y="0px" font-family="RedHatText-Regular, Red Hat Text" font-size="14.0" font-weight="normal" fill="#141514" text-anchor="left" line-spacing="21.0">Lorem ipsum dolor sit amet, consectetur adipiscing elit. </tspan><tspan x="0px" y="21px" font-family="RedHatText-Regular, Red Hat Text" font-size="14.0" font-weight="normal" fill="#141514" text-anchor="left" line-spacing="21.0">Praesent ullamcorper congue sollicitudin. Nullam in arcu </tspan><tspan x="0px" y="42px" font-family="RedHatText-Regular, Red Hat Text" font-size="14.0" font-weight="normal" fill="#141514" text-anchor="left" line-spacing="21.0">egestas, sagittis leo eu, vulputate ligula.</tspan></text></g></g><g transform="translate(66.0 35.5)"><text transform="translate(-1.248 14.823974609375)" font-family="RedHatText-Medium, Red Hat Text" font-size="16.0" font-weight="400" fill="#1E4F17" text-anchor="left" line-spacing="21.0">Success popover message title</text></g><g transform="translate(34.0 32.5)"><g clip-path="url(#i10)"><polygon points="0,0 23.2499446,0 23.2499446,23.2499446 0,23.2499446 0,0" stroke="none" fill="#3E8634"></polygon></g></g></svg>