<?xml version="1.0" encoding="UTF-8"?>
<svg width="450px" height="164px" viewBox="0 0 450 164" version="1.1" xmlns="http://www.w3.org/2000/svg" xmlns:xlink="http://www.w3.org/1999/xlink">
    <title></title>
    <defs>
        <path d="M18,17.5 L432,17.5 L432,146.5 L18,146.5 L18,17.5 Z M450,82.2507599 L432,64.2507599 L432,100.25076 L450,82.2507599 Z M0,82.2507599 L18,64.2507599 L18,100.25076 L0,82.2507599 Z M225,164.5 L243,146.5 L207,146.5 L225,164.5 Z M225,-0.5 L243,17.5 L207,17.5 L225,-0.5 Z" id="path-1"></path>
        <filter x="-6.2%" y="-12.1%" width="112.4%" height="133.9%" filterUnits="objectBoundingBox" id="filter-2">
            <feOffset dx="0" dy="0" in="SourceAlpha" result="shadowOffsetOuter1"></feOffset>
            <feGaussianBlur stdDeviation="3" in="shadowOffsetOuter1" result="shadowBlurOuter1"></feGaussianBlur>
            <feColorMatrix values="0 0 0 0 0   0 0 0 0 0   0 0 0 0 0  0 0 0 0.08 0" type="matrix" in="shadowBlurOuter1" result="shadowMatrixOuter1"></feColorMatrix>
            <feOffset dx="0" dy="8" in="SourceAlpha" result="shadowOffsetOuter2"></feOffset>
            <feGaussianBlur stdDeviation="8" in="shadowOffsetOuter2" result="shadowBlurOuter2"></feGaussianBlur>
            <feColorMatrix values="0 0 0 0 0   0 0 0 0 0   0 0 0 0 0  0 0 0 0.16 0" type="matrix" in="shadowBlurOuter2" result="shadowMatrixOuter2"></feColorMatrix>
            <feMerge>
                <feMergeNode in="shadowMatrixOuter1"></feMergeNode>
                <feMergeNode in="shadowMatrixOuter2"></feMergeNode>
            </feMerge>
        </filter>
    </defs>
    <g id="Tooltips-and-Popovers" stroke="none" stroke-width="1" fill="none" fill-rule="evenodd">
        <g id="Popover-/-6.-Alert-popover-/-4.-Info-popover">
            <g id="Popover-/-6.-Alert-popover-/-5.-Background-(custom)" transform="translate(0.000000, -0.500000)">
                <g id="Background">
                    <use fill="black" fill-opacity="1" filter="url(#filter-2)" xlink:href="#path-1"></use>
                    <use fill="#FFFFFF" fill-rule="evenodd" xlink:href="#path-1"></use>
                </g>
                <g id="Close-button" transform="translate(392.000000, 35.000000)">
                    <g id="ðŸ–¼-Icon" transform="translate(8.000000, 6.000000)" fill="#6A6E73">
                        <g id="ðŸ–¼-Icon" transform="translate(-8.000000, -6.000000)">
                            <path d="M9.77960353,16.0341281 L12.1249959,13.6887358 L14.4703882,16.0341281 C14.7581836,16.3219463 15.2250556,16.3219463 15.5128739,16.0341281 L16.0341281,15.5128739 C16.3219463,15.2250556 16.3219463,14.7584353 16.0341281,14.4703882 L13.6887358,12.1249959 L16.0341281,9.77960353 C16.3219463,9.4918082 16.3219463,9.02516502 16.0341281,8.73711792 L15.5128739,8.21586367 C15.2250556,7.92804544 14.7584353,7.92804544 14.4703882,8.21586367 L12.1249959,10.561256 L9.77960353,8.21586367 C9.4918082,7.92804544 9.02516502,7.92804544 8.73711792,8.21586367 L8.21586367,8.73711792 C7.92804544,9.02493614 7.92804544,9.49155643 8.21586367,9.77960353 L10.561256,12.1249959 L8.21586367,14.4703882 C7.92804544,14.7581836 7.92804544,15.2248268 8.21586367,15.5128739 L8.73711792,16.0341281 C9.02493614,16.3219463 9.4918082,16.3219463 9.77960353,16.0341281 Z" id="times"></path>
                        </g>
                        <rect id="ðŸŽ¨-Color" x="0" y="0" width="8" height="12"></rect>
                    </g>
                    <g id="ðŸ“-Padding" fill-opacity="0.9">
                        <g id="Spacer-/-Horizontal-/-2.-pf-global--spacer--sm-(8px)" fill="#92D400" stroke="#7FB300">
                            <rect id="Rectangle-Copy" x="0.5" y="0.5" width="7" height="35"></rect>
                        </g>
                        <g id="Spacer-/-Horizontal-/-2.-pf-global--spacer--sm-(8px)" transform="translate(32.000000, 0.000000)" fill="#92D400" stroke="#7FB300">
                            <rect id="Rectangle-Copy" x="0.5" y="0.5" width="7" height="35"></rect>
                        </g>
                        <g id="Spacer-/-Vertical-/-8.-pf-global--spacer--form-element-(6px)" transform="translate(8.000000, 0.000000)" fill="#F3D53C" stroke="#CBB534">
                            <rect id="Rectangle" x="0.5" y="0.5" width="23" height="5"></rect>
                        </g>
                        <g id="Spacer-/-Vertical-/-8.-pf-global--spacer--form-element-(6px)" transform="translate(8.000000, 30.000000)" fill="#F3D53C" stroke="#CBB534">
                            <rect id="Rectangle" x="0.5" y="0.5" width="23" height="5"></rect>
                        </g>
                    </g>
                </g>
                <g id="ðŸ“-Padding" transform="translate(18.000000, 17.051829)" fill-opacity="0.9">
                    <g id="Spacer-/-Horizontal-/-3.-pf-global--spacer--md-(16px)" fill="#3F9C35" stroke="#418A38">
                        <rect id="Rectangle-Copy-2" x="0.5" y="0.5" width="15" height="128.393293"></rect>
                    </g>
                    <g id="Spacer-/-Horizontal-/-3.-pf-global--spacer--md-(16px)" transform="translate(398.000000, 0.000000)" fill="#3F9C35" stroke="#418A38">
                        <rect id="Rectangle-Copy-2" x="0.5" y="0.5" width="15" height="128.393293"></rect>
                    </g>
                    <g id="Spacer-/-Vertical-/-3.-pf-global--spacer--md-(16px)" transform="translate(16.000000, 0.000000)" fill="#3F9C35" stroke="#418A38">
                        <rect id="Rectangle-Copy-2" x="0.5" y="0.5" width="381" height="15"></rect>
                    </g>
                    <g id="Spacer-/-Vertical-/-3.-pf-global--spacer--md-(16px)" transform="translate(16.000000, 113.393293)" fill="#3F9C35" stroke="#418A38">
                        <rect id="Rectangle-Copy-2" x="0.5" y="0.5" width="381" height="15"></rect>
                    </g>
                    <g id="Spacer-/-Horizontal-/-2.-pf-global--spacer--sm-(8px)" transform="translate(366.000000, 16.000000)" fill="#92D400" stroke="#7FB300">
                        <rect id="Rectangle-Copy" x="0.5" y="0.5" width="7" height="96.3932927"></rect>
                    </g>
                </g>
            </g>
            <text id="âœï¸-Content" font-family="RedHatText-Regular, Red Hat Text" font-size="14" font-weight="normal" line-spacing="21" fill="#151515">
                <tspan x="35" y="78.5">Lorem ipsum dolor sit amet, consectetur adipiscing elit. </tspan>
                <tspan x="35" y="99.5">Praesent ullamcorper congue sollicitudin. Nullam in arcu </tspan>
                <tspan x="35" y="120.5">egestas, sagittis leo eu, vulputate ligula.</tspan>
            </text>
            <text id="âœï¸-Title" font-family="RedHatText-Medium, Red Hat Text" font-size="16" font-weight="400" line-spacing="21" fill="#2B9AF3">
                <tspan x="66" y="51.5">Info popover message title</tspan>
            </text>
            <g id="info-circle" transform="translate(34.000000, 32.500000)" fill="#2B9AF3">
                <path d="M11.6249723,23.2499446 C18.0448178,23.2499446 23.2499446,18.0466946 23.2499446,11.6249723 C23.2499446,5.20700358 18.0448178,0 11.6249723,0 C5.20512675,0 0,5.20700358 0,11.6249723 C0,18.0466946 5.20512675,23.2499446 11.6249723,23.2499446 Z M11.6249723,9.09372832 C10.5376488,9.09372832 9.65622698,8.21230647 9.65622698,7.12498301 C9.65622698,6.03765956 10.5376488,5.15623771 11.6249723,5.15623771 C12.7122957,5.15623771 13.5937176,6.03765956 13.5937176,7.12498301 C13.5937176,8.21230647 12.7122957,9.09372832 11.6249723,9.09372832 Z M13.6874674,17.624958 L9.5624772,17.624958 C9.25183951,17.624958 8.99997854,17.373097 8.99997854,17.0624593 L8.99997854,15.937462 C8.99997854,15.6268243 9.25183951,15.3749633 9.5624772,15.3749633 L10.1249759,15.3749633 L10.1249759,12.3749705 L9.5624772,12.3749705 C9.25183951,12.3749705 8.99997854,12.1231095 8.99997854,11.8124718 L8.99997854,10.6874745 C8.99997854,10.3768368 9.25183951,10.1249759 9.5624772,10.1249759 L12.56247,10.1249759 C12.8731077,10.1249759 13.1249687,10.3768368 13.1249687,10.6874745 L13.1249687,15.3749633 L13.6874674,15.3749633 C13.9981051,15.3749633 14.249966,15.6268243 14.249966,15.937462 L14.249966,17.0624593 C14.249966,17.373097 13.9981051,17.624958 13.6874674,17.624958 Z"></path>
            </g>
        </g>
    </g>
</svg>