<?xml version="1.0" encoding="UTF-8"?>
<svg width="450px" height="164px" viewBox="0 0 450 164" version="1.1" xmlns="http://www.w3.org/2000/svg" xmlns:xlink="http://www.w3.org/1999/xlink">
    <title></title>
    <defs>
        <path d="M18,17.5 L432,17.5 L432,146 L18,146 Z" id="path-1"></path>
        <filter x="-6.2%" y="-12.2%" width="112.4%" height="134.0%" filterUnits="objectBoundingBox" id="filter-2">
            <feOffset dx="0" dy="0" in="SourceAlpha" result="shadowOffsetOuter1"></feOffset>
            <feGaussianBlur stdDeviation="3" in="shadowOffsetOuter1" result="shadowBlurOuter1"></feGaussianBlur>
            <feColorMatrix values="0 0 0 0 0   0 0 0 0 0   0 0 0 0 0  0 0 0 0.08 0" type="matrix" in="shadowBlurOuter1" result="shadowMatrixOuter1"></feColorMatrix>
            <feOffset dx="0" dy="8" in="SourceAlpha" result="shadowOffsetOuter2"></feOffset>
            <feGaussianBlur stdDeviation="8" in="shadowOffsetOuter2" result="shadowBlurOuter2"></feGaussianBlur>
            <feColorMatrix values="0 0 0 0 0   0 0 0 0 0   0 0 0 0 0  0 0 0 0.16 0" type="matrix" in="shadowBlurOuter2" result="shadowMatrixOuter2"></feColorMatrix>
            <feMerge>
                <feMergeNode in="shadowMatrixOuter1"></feMergeNode>
                <feMergeNode in="shadowMatrixOuter2"></feMergeNode>
            </feMerge>
        </filter>
    </defs>
    <g id="Tooltips-and-Popovers" stroke="none" stroke-width="1" fill="none" fill-rule="evenodd">
        <g id="Popover-/-6.-Alert-popover-/-5.-Background-(custom)">
            <g id="Background">
                <use fill="black" fill-opacity="1" filter="url(#filter-2)" xlink:href="#path-1"></use>
                <use fill="#FFFFFF" fill-rule="evenodd" xlink:href="#path-1"></use>
            </g>
            <g id="Close-button" transform="translate(392.000000, 35.000000)">
                <g id="ðŸ–¼-Icon" transform="translate(8.000000, 8.000000)" fill="#6A6E73">
                    <g id="times">
                        <path d="M1.77960353,8.03412811 L4.12499589,5.68873575 L6.47038824,8.03412811 C6.75818358,8.32194633 7.22505563,8.32194633 7.51287386,8.03412811 L8.03412811,7.51287386 C8.32194633,7.22505563 8.32194633,6.75843535 8.03412811,6.47038824 L5.68873575,4.12499589 L8.03412811,1.77960353 C8.32194633,1.4918082 8.32194633,1.02516502 8.03412811,0.737117917 L7.51287386,0.215863667 C7.22505563,-0.0719545556 6.75843535,-0.0719545556 6.47038824,0.215863667 L4.12499589,2.56125602 L1.77960353,0.215863667 C1.4918082,-0.0719545556 1.02516502,-0.0719545556 0.737117917,0.215863667 L0.215863667,0.737117917 C-0.0719545556,1.02493614 -0.0719545556,1.49155643 0.215863667,1.77960353 L2.56125602,4.12499589 L0.215863667,6.47038824 C-0.0719545556,6.75818358 -0.0719545556,7.22482675 0.215863667,7.51287386 L0.737117917,8.03412811 C1.02493614,8.32194633 1.4918082,8.32194633 1.77960353,8.03412811 Z"></path>
                    </g>
                    <rect id="ðŸŽ¨-Color" x="0" y="-2" width="8" height="12"></rect>
                </g>
                <g id="ðŸ“-Padding" fill-opacity="0.9">
                    <g id="Spacer-/-Horizontal-/-3.-pf-global--spacer--md-(16px)" fill="#92D400" stroke="#7FB300">
                        <rect id="Rectangle-Copy" x="0.5" y="0.5" width="7" height="35"></rect>
                    </g>
                    <g id="Spacer-/-Horizontal-/-3.-pf-global--spacer--md-(16px)" transform="translate(32.000000, 0.000000)" fill="#92D400" stroke="#7FB300">
                        <rect id="Rectangle-Copy" x="0.5" y="0.5" width="7" height="35"></rect>
                    </g>
                    <g id="Spacer-/-Vertical-/-8.-pf-global--spacer--form-element-(6px)" transform="translate(8.000000, 0.000000)" fill="#F3D53C" stroke="#CBB534">
                        <rect id="Rectangle" x="0.5" y="0.5" width="23" height="5"></rect>
                    </g>
                    <g id="Spacer-/-Vertical-/-8.-pf-global--spacer--form-element-(6px)" transform="translate(8.000000, 30.000000)" fill="#F3D53C" stroke="#CBB534">
                        <rect id="Rectangle" x="0.5" y="0.5" width="23" height="5"></rect>
                    </g>
                </g>
            </g>
            <g id="ðŸ“-Padding" transform="translate(18.000000, 17.000000)" fill-opacity="0.9">
                <g id="Spacer-/-Horizontal-/-3.-pf-global--spacer--md-(16px)" fill="#3F9C35" stroke="#418A38">
                    <rect id="Rectangle-Copy-2" x="0.5" y="0.5" width="15" height="128"></rect>
                </g>
                <g id="Spacer-/-Horizontal-/-3.-pf-global--spacer--md-(16px)" transform="translate(398.000000, 0.000000)" fill="#3F9C35" stroke="#418A38">
                    <rect id="Rectangle-Copy-2" x="0.5" y="0.5" width="15" height="128"></rect>
                </g>
                <g id="Spacer-/-Vertical-/-3.-pf-global--spacer--md-(16px)" transform="translate(16.000000, 0.000000)" fill="#3F9C35" stroke="#418A38">
                    <rect id="Rectangle-Copy-2" x="0.5" y="0.5" width="381" height="15"></rect>
                </g>
                <g id="Spacer-/-Vertical-/-3.-pf-global--spacer--md-(16px)" transform="translate(16.000000, 113.000000)" fill="#3F9C35" stroke="#418A38">
                    <rect id="Rectangle-Copy-2" x="0.5" y="0.5" width="381" height="15"></rect>
                </g>
                <g id="Spacer-/-Horizontal-/-2.-pf-global--spacer--sm-(8px)" transform="translate(366.000000, 16.000000)" fill="#92D400" stroke="#7FB300">
                    <rect id="Rectangle-Copy" x="0.5" y="0.5" width="7" height="96"></rect>
                </g>
            </g>
        </g>
    </g>
</svg>