<?xml version="1.0" encoding="UTF-8"?><svg version="1.1" width="450px" height="164px" viewBox="0 0 450.0 164.0" xmlns="http://www.w3.org/2000/svg" xmlns:xlink="http://www.w3.org/1999/xlink"><defs><filter id="i0" x="-3.8961039%" y="-10.1983003%" filterUnits="userSpaceOnUse" width="105.194805%" height="113.597734%"><feGaussianBlur stdDeviation="3" in="SourceAlpha" result="i1"></feGaussianBlur><feOffset dx="0" dy="0" in="i1" result="i2"></feOffset><feColorMatrix values="0 0 0 0.0 0 0 0 0 0.0 0 0 0 0 0.0 0 0 0 0 0.08 0" type="matrix" in="i2"></feColorMatrix></filter><filter id="i3" x="-11.6182573%" y="-24.4274809%" filterUnits="userSpaceOnUse" width="116.59751%" height="140.712468%"><feGaussianBlur stdDeviation="8" in="SourceAlpha" result="i4"></feGaussianBlur><feOffset dx="0" dy="8" in="i4" result="i5"></feOffset><feColorMatrix values="0 0 0 0.0 0 0 0 0 0.0 0 0 0 0 0.0 0 0 0 0 0.16 0" type="matrix" in="i5"></feColorMatrix></filter><clipPath id="i6"><path d="M225,0 L243,18 L207,18 L225,0 Z M432,146.5 L243,146.5 L225,164.5 L207,146.5 L18,146.5 L18,100.5 L0,82.5 L18,64.5 L18,18 L432,18 L432,64.5 L450,82.5 L432,100.5 L432,146.5 Z"></path></clipPath><clipPath id="i7"><path d="M0.737117917,0.215863667 C1.02516502,-0.0719545556 1.4918082,-0.0719545556 1.77960353,0.215863667 L4.12499589,2.56125602 L6.47038824,0.215863667 C6.75843535,-0.0719545556 7.22505563,-0.0719545556 7.51287386,0.215863667 L8.03412811,0.737117917 C8.32194633,1.02516502 8.32194633,1.4918082 8.03412811,1.77960353 L5.68873575,4.12499589 L8.03412811,6.47038824 C8.32194633,6.75843535 8.32194633,7.22505563 8.03412811,7.51287386 L7.51287386,8.03412811 C7.22505563,8.32194633 6.75818358,8.32194633 6.47038824,8.03412811 L4.12499589,5.68873575 L1.77960353,8.03412811 C1.4918082,8.32194633 1.02493614,8.32194633 0.737117917,8.03412811 L0.215863667,7.51287386 C-0.0719545556,7.22482675 -0.0719545556,6.75818358 0.215863667,6.47038824 L2.56125602,4.12499589 L0.215863667,1.77960353 C-0.0719545556,1.49155643 -0.0719545556,1.02493614 0.215863667,0.737117917 Z"></path></clipPath><clipPath id="i8"><path d="M8,0 L8,12 L0,12 L0,0 L8,0 Z"></path></clipPath><clipPath id="i9"><path d="M16,0 L16,129 L0,129 L0,0 L16,0 Z"></path></clipPath><clipPath id="i10"><path d="M382,0 L382,16 L0,16 L0,0 L382,0 Z"></path></clipPath><clipPath id="i11"><path d="M8,0 L8,97 L0,97 L0,0 L8,0 Z"></path></clipPath></defs><g transform="translate(0.0 -0.5)"><path d="M18,18 L432,18 L432,146.5 L18,146.5 L18,18 Z M450,82.5 L432,64.5 L432,100.5 L450,82.5 Z M0,82.5 L18,64.5 L18,100.5 L0,82.5 Z M225,164.5 L243,146.5 L207,146.5 L225,164.5 Z M225,0 L243,18 L207,18 L225,0 Z" stroke="none" fill="#000000" filter="url(#i0)"></path><path d="M18,18 L432,18 L432,146.5 L18,146.5 L18,18 Z M450,82.5 L432,64.5 L432,100.5 L450,82.5 Z M0,82.5 L18,64.5 L18,100.5 L0,82.5 Z M225,164.5 L243,146.5 L207,146.5 L225,164.5 Z M225,0 L243,18 L207,18 L225,0 Z" stroke="none" fill="#000000" filter="url(#i3)"></path><g clip-path="url(#i6)"><polygon points="0,0 450,0 450,164.5 0,164.5 0,0" stroke="none" fill="#FFFFFF"></polygon></g></g><g transform="translate(392.0 35.0)"><g transform="translate(8.0 6.0)"><g transform="translate(-8.0 -6.0)"><g transform="translate(8.0 8.0)"><g clip-path="url(#i7)"><polygon points="0,0 8.24999177,0 8.24999177,8.24999177 0,8.24999177 0,0" stroke="none" fill="#696E73"></polygon><g transform="translate(8.0 6.0)"><g clip-path="url(#i8)"><polygon points="0,0 0.249991775,0 0.249991775,2.24999177 0,2.24999177 0,0" stroke="none" fill="#696E73"></polygon></g></g></g></g></g></g></g><g transform="translate(18.0 17.0)"><g clip-path="url(#i9)"><polygon points="0,0 16,0 16,129 0,129 0,0" stroke="none" fill="rgba(62, 156, 52, 0.9)"></polygon></g><g clip-path="url(#i9)"><polygon points="0,0 16,0 16,129 0,129 0,0 0,0" stroke="#418A37" stroke-width="2" fill="none" stroke-miterlimit="5"></polygon></g><g transform="translate(398.0 0.0)"><g clip-path="url(#i9)"><polygon points="0,0 16,0 16,129 0,129 0,0" stroke="none" fill="rgba(62, 156, 52, 0.9)"></polygon></g><g clip-path="url(#i9)"><polygon points="0,0 16,0 16,129 0,129 0,0 0,0" stroke="#418A37" stroke-width="2" fill="none" stroke-miterlimit="5"></polygon></g></g><g transform="translate(16.0 0.0)"><g clip-path="url(#i10)"><polygon points="0,0 382,0 382,16 0,16 0,0" stroke="none" fill="rgba(62, 156, 52, 0.9)"></polygon></g><g clip-path="url(#i10)"><polygon points="0,0 382,0 382,16 0,16 0,0 0,0" stroke="#418A37" stroke-width="2" fill="none" stroke-miterlimit="5"></polygon></g></g><g transform="translate(16.0 113.0)"><g clip-path="url(#i10)"><polygon points="0,0 382,0 382,16 0,16 0,0" stroke="none" fill="rgba(62, 156, 52, 0.9)"></polygon></g><g clip-path="url(#i10)"><polygon points="0,0 382,0 382,16 0,16 0,0 0,0" stroke="#418A37" stroke-width="2" fill="none" stroke-miterlimit="5"></polygon></g></g><g transform="translate(366.0 16.0)"><g clip-path="url(#i11)"><polygon points="0,0 8,0 8,97 0,97 0,0" stroke="none" fill="rgba(146, 211, 0, 0.9)"></polygon></g><g clip-path="url(#i11)"><polygon points="0,0 8,0 8,97 0,97 0,0 0,0" stroke="#7EB200" stroke-width="2" fill="none" stroke-miterlimit="5"></polygon></g></g></g></svg>