<svg xmlns="http://www.w3.org/2000/svg" xmlns:xlink="http://www.w3.org/1999/xlink" width="419" height="36" viewBox="0 0 419 36">
  <defs>
    <rect id="expanded-a" width="40" height="36" x="0" y="0"/>
    <filter id="expanded-b" width="105%" height="105.6%" x="-2.5%" y="-2.8%" filterUnits="objectBoundingBox">
      <feOffset dx="1" in="SourceAlpha" result="shadowOffsetInner1"/>
      <feComposite in="shadowOffsetInner1" in2="SourceAlpha" k2="-1" k3="1" operator="arithmetic" result="shadowInnerInner1"/>
      <feColorMatrix in="shadowInnerInner1" result="shadowMatrixInner1" values="0 0 0 0 0.929411765   0 0 0 0 0.929411765   0 0 0 0 0.929411765  0 0 0 1 0"/>
      <feOffset dx="-1" in="SourceAlpha" result="shadowOffsetInner2"/>
      <feComposite in="shadowOffsetInner2" in2="SourceAlpha" k2="-1" k3="1" operator="arithmetic" result="shadowInnerInner2"/>
      <feColorMatrix in="shadowInnerInner2" result="shadowMatrixInner2" values="0 0 0 0 0.929411765   0 0 0 0 0.929411765   0 0 0 0 0.929411765  0 0 0 1 0"/>
      <feOffset dy="1" in="SourceAlpha" result="shadowOffsetInner3"/>
      <feComposite in="shadowOffsetInner3" in2="SourceAlpha" k2="-1" k3="1" operator="arithmetic" result="shadowInnerInner3"/>
      <feColorMatrix in="shadowInnerInner3" result="shadowMatrixInner3" values="0 0 0 0 0.929411765   0 0 0 0 0.929411765   0 0 0 0 0.929411765  0 0 0 1 0"/>
      <feOffset dy="-2" in="SourceAlpha" result="shadowOffsetInner4"/>
      <feComposite in="shadowOffsetInner4" in2="SourceAlpha" k2="-1" k3="1" operator="arithmetic" result="shadowInnerInner4"/>
      <feColorMatrix in="shadowInnerInner4" result="shadowMatrixInner4" values="0 0 0 0 0   0 0 0 0 0.4   0 0 0 0 0.8  0 0 0 1 0"/>
      <feMerge>
        <feMergeNode in="shadowMatrixInner1"/>
        <feMergeNode in="shadowMatrixInner2"/>
        <feMergeNode in="shadowMatrixInner3"/>
        <feMergeNode in="shadowMatrixInner4"/>
      </feMerge>
    </filter>
    <rect id="expanded-c" width="40" height="36" x="0" y="0"/>
    <filter id="expanded-d" width="102.5%" height="102.8%" x="-1.2%" y="-1.4%" filterUnits="objectBoundingBox">
      <feOffset dx="-1" in="SourceAlpha" result="shadowOffsetInner1"/>
      <feComposite in="shadowOffsetInner1" in2="SourceAlpha" k2="-1" k3="1" operator="arithmetic" result="shadowInnerInner1"/>
      <feColorMatrix in="shadowInnerInner1" result="shadowMatrixInner1" values="0 0 0 0 0.941176471   0 0 0 0 0.941176471   0 0 0 0 0.941176471  0 0 0 1 0"/>
      <feOffset dy="1" in="SourceAlpha" result="shadowOffsetInner2"/>
      <feComposite in="shadowOffsetInner2" in2="SourceAlpha" k2="-1" k3="1" operator="arithmetic" result="shadowInnerInner2"/>
      <feColorMatrix in="shadowInnerInner2" result="shadowMatrixInner2" values="0 0 0 0 0.941176471   0 0 0 0 0.941176471   0 0 0 0 0.941176471  0 0 0 1 0"/>
      <feOffset dx="1" in="SourceAlpha" result="shadowOffsetInner3"/>
      <feComposite in="shadowOffsetInner3" in2="SourceAlpha" k2="-1" k3="1" operator="arithmetic" result="shadowInnerInner3"/>
      <feColorMatrix in="shadowInnerInner3" result="shadowMatrixInner3" values="0 0 0 0 0.941176471   0 0 0 0 0.941176471   0 0 0 0 0.941176471  0 0 0 1 0"/>
      <feOffset dy="-1" in="SourceAlpha" result="shadowOffsetInner4"/>
      <feComposite in="shadowOffsetInner4" in2="SourceAlpha" k2="-1" k3="1" operator="arithmetic" result="shadowInnerInner4"/>
      <feColorMatrix in="shadowInnerInner4" result="shadowMatrixInner4" values="0 0 0 0 0.541176471   0 0 0 0 0.552941176   0 0 0 0 0.564705882  0 0 0 1 0"/>
      <feMerge>
        <feMergeNode in="shadowMatrixInner1"/>
        <feMergeNode in="shadowMatrixInner2"/>
        <feMergeNode in="shadowMatrixInner3"/>
        <feMergeNode in="shadowMatrixInner4"/>
      </feMerge>
    </filter>
    <rect id="expanded-e" width="341" height="36" x="0" y="0"/>
    <filter id="expanded-f" width="100.3%" height="102.8%" x="-.1%" y="-1.4%" filterUnits="objectBoundingBox">
      <feOffset dx="-1" in="SourceAlpha" result="shadowOffsetInner1"/>
      <feComposite in="shadowOffsetInner1" in2="SourceAlpha" k2="-1" k3="1" operator="arithmetic" result="shadowInnerInner1"/>
      <feColorMatrix in="shadowInnerInner1" result="shadowMatrixInner1" values="0 0 0 0 0.941176471   0 0 0 0 0.941176471   0 0 0 0 0.941176471  0 0 0 1 0"/>
      <feOffset dy="1" in="SourceAlpha" result="shadowOffsetInner2"/>
      <feComposite in="shadowOffsetInner2" in2="SourceAlpha" k2="-1" k3="1" operator="arithmetic" result="shadowInnerInner2"/>
      <feColorMatrix in="shadowInnerInner2" result="shadowMatrixInner2" values="0 0 0 0 0.941176471   0 0 0 0 0.941176471   0 0 0 0 0.941176471  0 0 0 1 0"/>
      <feOffset dx="1" in="SourceAlpha" result="shadowOffsetInner3"/>
      <feComposite in="shadowOffsetInner3" in2="SourceAlpha" k2="-1" k3="1" operator="arithmetic" result="shadowInnerInner3"/>
      <feColorMatrix in="shadowInnerInner3" result="shadowMatrixInner3" values="0 0 0 0 0.941176471   0 0 0 0 0.941176471   0 0 0 0 0.941176471  0 0 0 1 0"/>
      <feOffset dy="-1" in="SourceAlpha" result="shadowOffsetInner4"/>
      <feComposite in="shadowOffsetInner4" in2="SourceAlpha" k2="-1" k3="1" operator="arithmetic" result="shadowInnerInner4"/>
      <feColorMatrix in="shadowInnerInner4" result="shadowMatrixInner4" values="0 0 0 0 0.541176471   0 0 0 0 0.552941176   0 0 0 0 0.564705882  0 0 0 1 0"/>
      <feMerge>
        <feMergeNode in="shadowMatrixInner1"/>
        <feMergeNode in="shadowMatrixInner2"/>
        <feMergeNode in="shadowMatrixInner3"/>
        <feMergeNode in="shadowMatrixInner4"/>
      </feMerge>
    </filter>
  </defs>
  <g fill="none" fill-rule="evenodd">
    <use fill="#FFF" xlink:href="#expanded-a"/>
    <use fill="#000" filter="url(#expanded-b)" xlink:href="#expanded-a"/>
    <path fill="#151515" d="M12.5265524,15.2359089 L16.7765422,10.985919 C17.0703037,10.6953008 17.0703037,10.2202959 16.7765422,9.92656487 L16.0703061,9.22029824 C15.7796879,8.92656725 15.304683,8.92656725 15.0109215,9.22029824 L11.9984469,12.2328033 L8.98594192,9.22029824 C8.69532372,8.92656725 8.22031875,8.92656725 7.92655724,9.22029824 L7.22032113,9.92656487 C6.92655962,10.2171831 6.92655962,10.692188 7.22032113,10.985919 L11.470311,15.2359089 C11.7640725,15.5296704 12.239047,15.5296704 12.5265524,15.2359089 Z" transform="translate(8 6)"/>
    <g fill-opacity=".9">
      <rect width="7" height="35" x=".5" y=".5" fill="#92D400" stroke="#7FB300"/>
      <rect width="7" height="35" x=".5" y=".5" fill="#92D400" stroke="#7FB300" transform="translate(32)"/>
      <rect width="23" height="5" x=".5" y=".5" fill="#F3D53C" stroke="#CBB534" transform="translate(8)"/>
      <rect width="23" height="5" x=".5" y=".5" fill="#F3D53C" stroke="#CBB534" transform="translate(8 30)"/>
    </g>
    <g transform="translate(379)">
      <use fill="#FFF" xlink:href="#expanded-c"/>
      <use fill="#000" filter="url(#expanded-d)" xlink:href="#expanded-c"/>
      <path fill="#151515" d="M18.2499684,16.999969 C18.6641825,16.999969 18.9999666,16.6641849 18.9999666,16.2499708 L18.9999666,8 L15.7499744,8 C15.3374692,8 14.9999762,7.66249737 14.9999762,7.24999225 L14.9999762,4 L9.74998868,4 C9.33577457,4 8.99999046,4.33578411 8.99999046,4.74999821 L8.99999046,16.2499708 C8.99999046,16.6641849 9.33577457,16.999969 9.74998868,16.999969 L18.2499684,16.999969 Z M18.9999738,7 L18.9999738,6.81066224 C18.9999738,6.63918438 18.9015477,6.4016056 18.7803016,6.28032904 L16.7196376,4.219665 C16.598361,4.09841895 16.3607822,4 16.1893044,4 L15.9999738,4 L15.9999738,7 L18.9999738,7 Z M14.2499779,19.9999619 C14.664192,19.9999619 14.9999762,19.6641777 14.9999762,19.2499636 L14.9999762,17.9999666 L9.74998868,17.9999666 C8.78502516,17.9999666 8,17.2149343 8,16.2499708 L8,6.99999285 L5.74999821,6.99999285 C5.33578411,6.99999285 5,7.33577696 5,7.74999106 L5,19.2499636 C5,19.6641777 5.33578411,19.9999619 5.74999821,19.9999619 L14.2499779,19.9999619 Z" transform="translate(8 6)"/>
      <g fill-opacity=".9">
        <rect width="7" height="35" x=".5" y=".5" fill="#92D400" stroke="#7FB300"/>
        <rect width="7" height="35" x=".5" y=".5" fill="#92D400" stroke="#7FB300" transform="translate(32)"/>
        <rect width="23" height="5" x=".5" y=".5" fill="#F3D53C" stroke="#CBB534" transform="translate(8)"/>
        <rect width="23" height="5" x=".5" y=".5" fill="#F3D53C" stroke="#CBB534" transform="translate(8 30)"/>
      </g>
    </g>
    <g transform="translate(39)">
      <use fill="#FFF" xlink:href="#expanded-e"/>
      <use fill="#000" filter="url(#expanded-f)" xlink:href="#expanded-e"/>
      <text fill="#151515" font-family="RedHatText-Regular, Red Hat Text" font-size="16">
        <tspan x="8" y="22">This is the expandable copy to clipboard fiel…</tspan>
      </text>
      <g fill-opacity=".9">
        <rect width="7" height="35" x=".5" y=".5" fill="#92D400" stroke="#7FB300"/>
        <rect width="7" height="35" x=".5" y=".5" fill="#92D400" stroke="#7FB300" transform="translate(333)"/>
        <rect width="324" height="5" x=".5" y=".5" fill="#F3D53C" stroke="#CBB534" transform="translate(8 30)"/>
        <rect width="324" height="5" x=".5" y=".5" fill="#F3D53C" stroke="#CBB534" transform="translate(8)"/>
      </g>
    </g>
  </g>
</svg>
