<?xml version="1.0" encoding="UTF-8"?><svg version="1.1" width="956px" height="40px" viewBox="0 0 956.0 40.0" xmlns="http://www.w3.org/2000/svg" xmlns:xlink="http://www.w3.org/1999/xlink"><defs><clipPath id="i0"><path d="M956,0 L956,40 L0,40 L0,0 L956,0 Z"></path></clipPath><clipPath id="i1"><path d="M2.24999464,10.9999738 C3.49373557,10.9999738 4.49998927,12.0062275 4.49998927,13.2499684 C4.49998927,14.4937093 3.49373557,15.499963 2.24999464,15.499963 C1.0062537,15.499963 0,14.4937093 0,13.2499684 C0,12.0062275 1.0062537,10.9999738 2.24999464,10.9999738 Z M2.24999464,5.49998689 C3.49373557,5.49998689 4.49998927,6.50624059 4.49998927,7.74998152 C4.49998927,8.99372245 3.49373557,9.99997616 2.24999464,9.99997616 C1.0062537,9.99997616 0,8.99372245 0,7.74998152 C0,6.50624059 1.0062537,5.49998689 2.24999464,5.49998689 Z M2.24999464,0 C3.49373557,0 4.49998927,1.0062537 4.49998927,2.24999464 C4.49998927,3.49373557 3.49373557,4.49998927 2.24999464,4.49998927 C1.0062537,4.49998927 0,3.49373557 0,2.24999464 C0,1.0062537 1.0062537,0 2.24999464,0 Z"></path></clipPath><clipPath id="i2"><path d="M24,0 L24,24 L0,24 L0,0 L24,0 Z"></path></clipPath><clipPath id="i3"><path d="M16,0 L16,16 L0,16 L0,0 L16,0 Z"></path></clipPath><clipPath id="i4"><path d="M0.923421565,0.22032113 C1.21718307,-0.0734403767 1.69218804,-0.0734403767 1.98280625,0.22032113 L6.23279611,4.470311 C6.52967041,4.7640725 6.52967041,5.23904696 6.2359089,5.53280846 L1.98591903,9.78279833 C1.69218804,10.0765598 1.21718307,10.0765598 0.926564869,9.78279833 L0.220298242,9.07656222 C-0.0734327473,8.78280072 -0.0734327473,8.30779574 0.220298242,8.01717754 L3.23280327,5.00467252 L0.220298242,1.99219801 C-0.0734327473,1.6984365 -0.0734327473,1.22343153 0.220298242,0.932813328 Z"></path></clipPath><clipPath id="i5"><path d="M3,9.99997616 C3.55217659,9.99997616 4,10.44779 4,10.9999762 L4,12.9999762 C4,13.5521527 3.55217659,13.9999762 3,13.9999762 L1,13.9999762 C0.447813874,13.9999762 0,13.5521527 0,12.9999762 L0,10.9999762 C0,10.44779 0.447813874,9.99997616 1,9.99997616 Z M8.99998569,9.99997616 C9.55216228,9.99997616 9.99998569,10.44779 9.99998569,10.9999762 L9.99998569,12.9999762 C9.99998569,13.5521527 9.55216228,13.9999762 8.99998569,13.9999762 L6.99998569,13.9999762 C6.44779957,13.9999762 5.99998569,13.5521527 5.99998569,12.9999762 L5.99998569,10.9999762 C5.99998569,10.44779 6.44779957,9.99997616 6.99998569,9.99997616 Z M3,4.99998808 C3.55217659,4.99998808 4,5.44780195 4,5.99998808 L4,7.99998808 C4,8.55216467 3.55217659,8.99998808 3,8.99998808 L1,8.99998808 C0.447813874,8.99998808 0,8.55216467 0,7.99998808 L0,5.99998808 C0,5.44780195 0.447813874,4.99998808 1,4.99998808 Z M8.99998569,4.99998808 C9.55216228,4.99998808 9.99998569,5.44780195 9.99998569,5.99998808 L9.99998569,7.99998808 C9.99998569,8.55216467 9.55216228,8.99998808 8.99998569,8.99998808 L6.99998569,8.99998808 C6.44779957,8.99998808 5.99998569,8.55216467 5.99998569,7.99998808 L5.99998569,5.99998808 C5.99998569,5.44780195 6.44779957,4.99998808 6.99998569,4.99998808 Z M3,0 C3.55217659,0 4,0.447813874 4,1 L4,3 C4,3.55217659 3.55217659,4 3,4 L1,4 C0.447813874,4 0,3.55217659 0,3 L0,1 C0,0.447813874 0.447813874,0 1,0 Z M8.99998569,0 C9.55216228,0 9.99998569,0.447813874 9.99998569,1 L9.99998569,3 C9.99998569,3.55217659 9.55216228,4 8.99998569,4 L6.99998569,4 C6.44779957,4 5.99998569,3.55217659 5.99998569,3 L5.99998569,1 C5.99998569,0.447813874 6.44779957,0 6.99998569,0 Z"></path></clipPath><clipPath id="i6"><path d="M24,0 L24,40 L0,40 L0,0 L24,0 Z"></path></clipPath><clipPath id="i7"><path d="M908,0 L908,8 L0,8 L0,0 L908,0 Z"></path></clipPath></defs><g clip-path="url(#i0)"><polygon points="0,0 956,0 956,40 0,40 0,0" stroke="none" fill="#FFFFFF"></polygon></g><g transform="translate(902.0 2.0)"><g transform="translate(8.0 6.0)"><g transform="translate(10.0 3.999999999999999)"><g clip-path="url(#i1)"><polygon points="0,0 4.49998927,0 4.49998927,15.499963 0,15.499963 0,0" stroke="none" fill="#151515"></polygon><g clip-path="url(#i2)"><polygon points="0,0 4.49998927,0 4.49998927,15.499963 0,15.499963 0,0" stroke="none" fill="#696E73"></polygon></g></g></g></g></g><g transform="translate(72.0 8.0)"><g transform="translate(8.0 4.0)"><g clip-path="url(#i3)"><polygon points="0,0 16,0 16,16 0,16 0,0" stroke="none" fill="#FFFFFF"></polygon><polygon points="0,0 16,0 16,16 0,16 0,0 0,0" stroke="#696E73" stroke-width="2" fill="none" stroke-miterlimit="5"></polygon></g></g></g><g transform="translate(48.0 8.0)"><g transform="translate(9.0 6.999999999999999)"><g clip-path="url(#i4)"><polygon points="-2.77555756e-17,-2.77555756e-17 6.45584247,-2.77555756e-17 6.45584247,10.0031195 -2.77555756e-17,10.0031195 -2.77555756e-17,-2.77555756e-17" stroke="none" fill="#696E73"></polygon></g></g></g><g transform="translate(24.0 8.0)"><g transform="translate(7.0 5.0)"><g clip-path="url(#i5)"><polygon points="0,0 9.99998569,0 9.99998569,13.9999762 0,13.9999762 0,0" stroke="none" fill="#696E73"></polygon></g></g></g><g clip-path="url(#i6)"><polygon points="0,0 24,0 24,40 0,40 0,0" stroke="none" fill="rgba(0, 121, 135, 0.9)"></polygon></g><g clip-path="url(#i6)"><polygon points="0,0 24,0 24,40 0,40 0,0 0,0" stroke="#09707A" stroke-width="2" fill="none" stroke-miterlimit="5"></polygon></g><g transform="translate(932.0 0.0)"><g clip-path="url(#i6)"><polygon points="0,0 24,0 24,40 0,40 0,0" stroke="none" fill="rgba(0, 121, 135, 0.9)"></polygon></g><g clip-path="url(#i6)"><polygon points="0,0 24,0 24,40 0,40 0,0 0,0" stroke="#09707A" stroke-width="2" fill="none" stroke-miterlimit="5"></polygon></g></g><g transform="translate(24.0 0.0)"><g clip-path="url(#i7)"><polygon points="0,0 908,0 908,8 0,8 0,0" stroke="none" fill="rgba(146, 211, 0, 0.9)"></polygon></g><g clip-path="url(#i7)"><polygon points="0,0 908,0 908,8 0,8 0,0 0,0" stroke="#7EB200" stroke-width="2" fill="none" stroke-miterlimit="5"></polygon></g></g><g transform="translate(24.000000000000057 32.0)"><g clip-path="url(#i7)"><polygon points="0,0 908,0 908,8 0,8 0,0" stroke="none" fill="rgba(146, 211, 0, 0.9)"></polygon></g><g clip-path="url(#i7)"><polygon points="0,0 908,0 908,8 0,8 0,0 0,0" stroke="#7EB200" stroke-width="2" fill="none" stroke-miterlimit="5"></polygon></g></g></svg>