<?xml version="1.0" encoding="UTF-8"?><svg version="1.1" width="956px" height="40px" viewBox="0 0 956.0 40.0" xmlns="http://www.w3.org/2000/svg" xmlns:xlink="http://www.w3.org/1999/xlink"><defs><clipPath id="i0"><path d="M956,0 L956,40 L0,40 L0,0 L956,0 Z"></path></clipPath><filter id="i1" x="-1.35135135%" y="-32.6086957%" filterUnits="userSpaceOnUse" width="102.079002%" height="143.478261%"><feGaussianBlur stdDeviation="2" in="SourceAlpha" result="i2"></feGaussianBlur><feOffset dx="0" dy="-2" in="i2" result="i3"></feOffset><feColorMatrix values="0 0 0 0.0 0 0 0 0 0.0 0 0 0 0 0.0 0 0 0 0 0.16 0" type="matrix" in="i3"></feColorMatrix></filter><filter id="i4" x="-1.35135135%" y="-23.9130435%" filterUnits="userSpaceOnUse" width="102.079002%" height="143.478261%"><feGaussianBlur stdDeviation="2" in="SourceAlpha" result="i5"></feGaussianBlur><feOffset dx="0" dy="2" in="i5" result="i6"></feOffset><feColorMatrix values="0 0 0 0.0 0 0 0 0 0.0 0 0 0 0 0.0 0 0 0 0 0.16 0" type="matrix" in="i6"></feColorMatrix></filter><clipPath id="i7"><path d="M3,0 L3,40 L0,40 L0,0 L3,0 Z"></path></clipPath><clipPath id="i8"><path d="M2.24999464,10.9999738 C3.49373557,10.9999738 4.49998927,12.0062275 4.49998927,13.2499684 C4.49998927,14.4937093 3.49373557,15.499963 2.24999464,15.499963 C1.0062537,15.499963 0,14.4937093 0,13.2499684 C0,12.0062275 1.0062537,10.9999738 2.24999464,10.9999738 Z M2.24999464,5.49998689 C3.49373557,5.49998689 4.49998927,6.50624059 4.49998927,7.74998152 C4.49998927,8.99372245 3.49373557,9.99997616 2.24999464,9.99997616 C1.0062537,9.99997616 0,8.99372245 0,7.74998152 C0,6.50624059 1.0062537,5.49998689 2.24999464,5.49998689 Z M2.24999464,0 C3.49373557,0 4.49998927,1.0062537 4.49998927,2.24999464 C4.49998927,3.49373557 3.49373557,4.49998927 2.24999464,4.49998927 C1.0062537,4.49998927 0,3.49373557 0,2.24999464 C0,1.0062537 1.0062537,0 2.24999464,0 Z"></path></clipPath><clipPath id="i9"><path d="M24,0 L24,24 L0,24 L0,0 L24,0 Z"></path></clipPath><clipPath id="i10"><path d="M16,0 L16,16 L0,16 L0,0 L16,0 Z"></path></clipPath><clipPath id="i11"><path d="M0.926557239,0.220298242 C1.22031875,-0.0734327473 1.69532372,-0.0734327473 1.98594192,0.220298242 L4.99844695,3.23280327 L8.01092145,0.220298242 C8.30468296,-0.0734327473 8.77968793,-0.0734327473 9.07030613,0.220298242 L9.77654224,0.926564869 C10.0703037,1.22029586 10.0703037,1.69530083 9.77654224,1.98591903 L5.52655238,6.2359089 C5.23904696,6.52967041 4.7640725,6.52967041 4.470311,6.2359089 L0.22032113,1.98591903 C-0.0734403767,1.69218804 -0.0734403767,1.21718307 0.22032113,0.926564869 Z"></path></clipPath><clipPath id="i12"><path d="M3,9.99997616 C3.55217659,9.99997616 4,10.44779 4,10.9999762 L4,12.9999762 C4,13.5521527 3.55217659,13.9999762 3,13.9999762 L1,13.9999762 C0.447813874,13.9999762 0,13.5521527 0,12.9999762 L0,10.9999762 C0,10.44779 0.447813874,9.99997616 1,9.99997616 Z M8.99998569,9.99997616 C9.55216228,9.99997616 9.99998569,10.44779 9.99998569,10.9999762 L9.99998569,12.9999762 C9.99998569,13.5521527 9.55216228,13.9999762 8.99998569,13.9999762 L6.99998569,13.9999762 C6.44779957,13.9999762 5.99998569,13.5521527 5.99998569,12.9999762 L5.99998569,10.9999762 C5.99998569,10.44779 6.44779957,9.99997616 6.99998569,9.99997616 Z M3,4.99998808 C3.55217659,4.99998808 4,5.44780195 4,5.99998808 L4,7.99998808 C4,8.55216467 3.55217659,8.99998808 3,8.99998808 L1,8.99998808 C0.447813874,8.99998808 0,8.55216467 0,7.99998808 L0,5.99998808 C0,5.44780195 0.447813874,4.99998808 1,4.99998808 Z M8.99998569,4.99998808 C9.55216228,4.99998808 9.99998569,5.44780195 9.99998569,5.99998808 L9.99998569,7.99998808 C9.99998569,8.55216467 9.55216228,8.99998808 8.99998569,8.99998808 L6.99998569,8.99998808 C6.44779957,8.99998808 5.99998569,8.55216467 5.99998569,7.99998808 L5.99998569,5.99998808 C5.99998569,5.44780195 6.44779957,4.99998808 6.99998569,4.99998808 Z M3,0 C3.55217659,0 4,0.447813874 4,1 L4,3 C4,3.55217659 3.55217659,4 3,4 L1,4 C0.447813874,4 0,3.55217659 0,3 L0,1 C0,0.447813874 0.447813874,0 1,0 Z M8.99998569,0 C9.55216228,0 9.99998569,0.447813874 9.99998569,1 L9.99998569,3 C9.99998569,3.55217659 9.55216228,4 8.99998569,4 L6.99998569,4 C6.44779957,4 5.99998569,3.55217659 5.99998569,3 L5.99998569,1 C5.99998569,0.447813874 6.44779957,0 6.99998569,0 Z"></path></clipPath><clipPath id="i13"><path d="M24,0 L24,40 L0,40 L0,0 L24,0 Z"></path></clipPath><clipPath id="i14"><path d="M908,0 L908,8 L0,8 L0,0 L908,0 Z"></path></clipPath></defs><g clip-path="url(#i0)"><polygon points="0,0 956,0 956,40 0,40 0,0" stroke="none" fill="#FFFFFF"></polygon></g><polygon points="1,1 955,1 955,39 1,39 1,1" stroke="none" fill="#000000" filter="url(#i1)"></polygon><g clip-path="url(#i0)"><polygon points="0,0 956,0 956,40 0,40 0,0" stroke="none" fill="#FFFFFF"></polygon></g><polygon points="1,1 955,1 955,39 1,39 1,1" stroke="none" fill="#000000" filter="url(#i4)"></polygon><g clip-path="url(#i0)"><polygon points="0,0 956,0 956,40 0,40 0,0" stroke="none" fill="#FFFFFF"></polygon></g><g clip-path="url(#i7)"><polygon points="0,0 3,0 3,40 0,40 0,0" stroke="none" fill="#0066CC"></polygon></g><g transform="translate(902.0 2.0)"><g transform="translate(8.0 6.0)"><g transform="translate(10.0 3.999999999999999)"><g clip-path="url(#i8)"><polygon points="0,0 4.49998927,0 4.49998927,15.499963 0,15.499963 0,0" stroke="none" fill="#151515"></polygon><g clip-path="url(#i9)"><polygon points="0,0 4.49998927,0 4.49998927,15.499963 0,15.499963 0,0" stroke="none" fill="#696E73"></polygon></g></g></g></g></g><g transform="translate(72.0 8.0)"><g transform="translate(8.0 4.0)"><g clip-path="url(#i10)"><polygon points="0,0 16,0 16,16 0,16 0,0" stroke="none" fill="#FFFFFF"></polygon><polygon points="0,0 16,0 16,16 0,16 0,0 0,0" stroke="#696E73" stroke-width="2" fill="none" stroke-miterlimit="5"></polygon></g></g></g><g transform="translate(48.0 8.0)"><g transform="translate(7.0 9.0)"><g clip-path="url(#i11)"><polygon points="0,0 9.99686337,0 9.99686337,6.45623003 0,6.45623003 0,0" stroke="none" fill="#696E73"></polygon></g></g></g><g transform="translate(24.0 8.0)"><g transform="translate(7.0 5.0)"><g clip-path="url(#i12)"><polygon points="0,0 9.99998569,0 9.99998569,13.9999762 0,13.9999762 0,0" stroke="none" fill="#696E73"></polygon></g></g></g><g clip-path="url(#i13)"><polygon points="0,0 24,0 24,40 0,40 0,0" stroke="none" fill="rgba(0, 121, 135, 0.9)"></polygon></g><g clip-path="url(#i13)"><polygon points="0,0 24,0 24,40 0,40 0,0 0,0" stroke="#09707A" stroke-width="2" fill="none" stroke-miterlimit="5"></polygon></g><g transform="translate(932.0 0.0)"><g clip-path="url(#i13)"><polygon points="0,0 24,0 24,40 0,40 0,0" stroke="none" fill="rgba(0, 121, 135, 0.9)"></polygon></g><g clip-path="url(#i13)"><polygon points="0,0 24,0 24,40 0,40 0,0 0,0" stroke="#09707A" stroke-width="2" fill="none" stroke-miterlimit="5"></polygon></g></g><g transform="translate(24.0 0.0)"><g clip-path="url(#i14)"><polygon points="0,0 908,0 908,8 0,8 0,0" stroke="none" fill="rgba(146, 211, 0, 0.9)"></polygon></g><g clip-path="url(#i14)"><polygon points="0,0 908,0 908,8 0,8 0,0 0,0" stroke="#7EB200" stroke-width="2" fill="none" stroke-miterlimit="5"></polygon></g></g><g transform="translate(24.000000000000057 32.0)"><g clip-path="url(#i14)"><polygon points="0,0 908,0 908,8 0,8 0,0" stroke="none" fill="rgba(146, 211, 0, 0.9)"></polygon></g><g clip-path="url(#i14)"><polygon points="0,0 908,0 908,8 0,8 0,0 0,0" stroke="#7EB200" stroke-width="2" fill="none" stroke-miterlimit="5"></polygon></g></g></svg>