<?xml version="1.0" encoding="UTF-8"?><svg version="1.1" width="171px" height="56px" viewBox="0 0 171.0 56.0" xmlns="http://www.w3.org/2000/svg" xmlns:xlink="http://www.w3.org/1999/xlink"><defs><clipPath id="i0"><path d="M171,0 L171,56 L0,56 L0,0 L171,0 Z"></path></clipPath><clipPath id="i1"><path d="M171,0 L171,3 L0,3 L0,0 L171,0 Z"></path></clipPath><clipPath id="i2"><path d="M8.99907479,13.9999666 C8.99907479,15.1046393 8.10378274,15.9999666 7.00002561,15.9999666 C5.89626847,15.9999666 5.00097642,15.1046393 5.00097642,13.9999666 Z M7.00002086,0 C7.55190417,0 7.99941287,0.447813874 7.99941287,1 L7.99941287,1.65124118 C10.2950312,2.12810772 11.9975112,4.07185919 11.9975112,6.4999845 C11.9975112,9.69684578 13.1272083,10.6727956 13.7309361,11.3215367 C13.9184356,11.5227997 14.0015653,11.7640406 14.0000209,11.9999714 C13.9968961,12.5124824 13.5943702,12.999969 12.9968985,12.999969 L1.0031527,12.999969 C0.405680976,12.999969 0.00349077253,12.5124824 2.08566939e-05,11.9999714 C-0.00151409835,11.7640406 0.0816155863,11.5231049 0.269115139,11.3215367 C0.872842948,10.6727956 2.00253996,9.69684578 2.00253996,6.4999845 C2.00253996,4.07185919 3.70502003,2.12810772 6.00063834,1.65124118 L6.00063834,1 C6.00063834,0.447813874 6.44814704,0 7.00002086,0 Z"></path></clipPath><clipPath id="i3"><path d="M111,0 L111,20 L0,20 L0,0 L111,0 Z"></path></clipPath><clipPath id="i4"><path d="M16,0 L16,56 L0,56 L0,0 L16,0 Z"></path></clipPath><clipPath id="i5"><path d="M4,0 L4,24 L0,24 L0,0 L4,0 Z"></path></clipPath><clipPath id="i6"><path d="M139,0 L139,16 L0,16 L0,0 L139,0 Z"></path></clipPath></defs><g clip-path="url(#i0)"><polygon points="0,0 171,0 171,56 0,56 0,0" stroke="none" fill="#F2F9F9"></polygon></g><g clip-path="url(#i1)"><polygon points="0,0 171,0 171,3 0,3 0,0" stroke="none" fill="#009596"></polygon></g><g transform="translate(16.0 16.0)"><g transform="translate(4.999979143306074 4.0)"><g clip-path="url(#i2)"><polygon points="-1.94289029e-15,0 14.000042,0 14.000042,15.9999666 -1.94289029e-15,15.9999666 -1.94289029e-15,0" stroke="none" fill="#009596"></polygon></g></g></g><g transform="translate(44.0 18.0)"><g clip-path="url(#i3)"><text transform="translate(0.0 14.0)" font-family="RedHatText-Medium, Red Hat Text" font-size="14.0" font-weight="400" fill="#003636" text-anchor="left" line-spacing="21.0">Title</text></g></g><g transform="translate(16.0 0.0) scale(-1.0 1.0)"><g clip-path="url(#i4)"><polygon points="0,0 16,0 16,56 0,56 0,0" stroke="none" fill="rgba(62, 156, 52, 0.9)"></polygon></g><g clip-path="url(#i4)"><polygon points="0,0 16,0 16,56 0,56 0,0 0,0" stroke="#418A37" stroke-width="2" fill="none" stroke-miterlimit="5"></polygon></g></g><g transform="translate(171.0 0.0) scale(-1.0 1.0)"><g clip-path="url(#i4)"><polygon points="0,0 16,0 16,56 0,56 0,0" stroke="none" fill="rgba(62, 156, 52, 0.9)"></polygon></g><g clip-path="url(#i4)"><polygon points="0,0 16,0 16,56 0,56 0,0 0,0" stroke="#418A37" stroke-width="2" fill="none" stroke-miterlimit="5"></polygon></g></g><g transform="translate(44.0 16.0) scale(-1.0 1.0)"><g clip-path="url(#i5)"><polygon points="0,0 4,0 4,24 0,24 0,0" stroke="none" fill="rgba(236, 121, 8, 0.9)"></polygon></g><g clip-path="url(#i5)"><polygon points="0,0 4,0 4,24 0,24 0,0 0,0" stroke="#C67000" stroke-width="2" fill="none" stroke-miterlimit="5"></polygon></g></g><g transform="translate(16.0 0.0)"><g clip-path="url(#i6)"><polygon points="0,0 139,0 139,16 0,16 0,0" stroke="none" fill="rgba(62, 156, 52, 0.9)"></polygon></g><g clip-path="url(#i6)"><polygon points="0,0 139,0 139,16 0,16 0,0 0,0" stroke="#418A37" stroke-width="2" fill="none" stroke-miterlimit="5"></polygon></g></g><g transform="translate(16.0 40.0)"><g clip-path="url(#i6)"><polygon points="0,0 139,0 139,16 0,16 0,0" stroke="none" fill="rgba(62, 156, 52, 0.9)"></polygon></g><g clip-path="url(#i6)"><polygon points="0,0 139,0 139,16 0,16 0,0 0,0" stroke="#418A37" stroke-width="2" fill="none" stroke-miterlimit="5"></polygon></g></g></svg>