<?xml version="1.0" encoding="UTF-8"?><svg version="1.1" width="8px" height="268px" viewBox="0 0 8.0 268.0" xmlns="http://www.w3.org/2000/svg" xmlns:xlink="http://www.w3.org/1999/xlink"><defs><clipPath id="i0"><path d="M8,0 L8,268 L0,268 L0,0 L8,0 Z"></path></clipPath><clipPath id="i1"><path d="M1,0 L1,268 L0,268 L0,0 L1,0 Z"></path></clipPath><clipPath id="i2"><path d="M12,0 L12,1 L0,1 L0,0 L12,0 Z"></path></clipPath></defs><g clip-path="url(#i0)"><polygon points="0,0 8,0 8,268 0,268 0,0" stroke="none" fill="#FFFFFF"></polygon></g><g clip-path="url(#i1)"><polygon points="0,0 1,0 1,268 0,268 0,0" stroke="none" fill="#FFFFFF"></polygon><polygon points="0,0 1,0 1,268 0,268 0,0 0,0" stroke="#D2D2D2" stroke-width="2" fill="none" stroke-miterlimit="5"></polygon></g><g transform="translate(6.5 130.0) rotate(90.0)"><g transform=""><g clip-path="url(#i2)"><polygon points="7.10542736e-15,0 12,0 12,1 7.10542736e-15,1 7.10542736e-15,0" stroke="none" fill="#696E73"></polygon></g></g><g transform="translate(0.0 3.000000000000057)"><g clip-path="url(#i2)"><polygon points="7.10542736e-15,0 12,0 12,1 7.10542736e-15,1 7.10542736e-15,0" stroke="none" fill="#696E73"></polygon></g></g></g></svg>