<?xml version="1.0" encoding="UTF-8"?><svg version="1.1" width="72px" height="37px" viewBox="0 0 72.0 37.0" xmlns="http://www.w3.org/2000/svg" xmlns:xlink="http://www.w3.org/1999/xlink"><defs><clipPath id="i0"><path d="M72,0 L72,37 L11,37 L11,29 L0,18.6055303 L11,8 L11,0 L72,0 Z"></path></clipPath><clipPath id="i1"><path d="M45,0 L45,21 L0,21 L0,0 L45,0 Z"></path></clipPath><clipPath id="i2"><path d="M16,0 L16,50 L0,50 L0,0 L16,0 Z"></path></clipPath><clipPath id="i3"><path d="M45,0 L45,8 L0,8 L0,0 L45,0 Z"></path></clipPath></defs><g clip-path="url(#i0)"><polygon points="0,0 72,0 72,37 0,37 0,0" stroke="none" fill="#151515"></polygon></g><g transform="translate(19.0 8.0)"><g clip-path="url(#i1)"><text transform="translate(0.1980000000000004 14.0)" font-family="RedHatText-Regular, Red Hat Text" font-size="14.0" font-weight="normal" fill="#FEFFFE" text-anchor="center" line-spacing="21.0">Tooltip</text></g></g><g transform="translate(-5.0 0.0)"><g clip-path="url(#i2)"><polygon points="0,0 16,0 16,50 0,50 0,0" stroke="none" fill="rgba(62, 156, 52, 0.9)"></polygon></g><g clip-path="url(#i2)"><polygon points="0,0 16,0 16,50 0,50 0,0 0,0" stroke="#418A37" stroke-width="2" fill="none" stroke-miterlimit="5"></polygon></g><g transform="translate(61.0 0.0)"><g clip-path="url(#i2)"><polygon points="0,0 16,0 16,50 0,50 0,0" stroke="none" fill="rgba(62, 156, 52, 0.9)"></polygon></g><g clip-path="url(#i2)"><polygon points="0,0 16,0 16,50 0,50 0,0 0,0" stroke="#418A37" stroke-width="2" fill="none" stroke-miterlimit="5"></polygon></g></g><g transform="translate(16.0 0.0)"><g clip-path="url(#i3)"><polygon points="0,0 45,0 45,8 0,8 0,0" stroke="none" fill="rgba(146, 211, 0, 0.9)"></polygon></g><g clip-path="url(#i3)"><polygon points="0,0 45,0 45,8 0,8 0,0 0,0" stroke="#7EB200" stroke-width="2" fill="none" stroke-miterlimit="5"></polygon></g></g></g></svg>