<svg xmlns="http://www.w3.org/2000/svg" xmlns:xlink="http://www.w3.org/1999/xlink" width="540" height="121" viewBox="0 0 540 121">
  <defs>
    <rect id="default-b" width="540" height="121" x="0" y="0"/>
    <filter id="default-a" width="102%" height="109.1%" x="-1%" y="-2.9%" filterUnits="objectBoundingBox">
      <feMorphology in="SourceAlpha" radius=".5" result="shadowSpreadOuter1"/>
      <feOffset dy="2" in="shadowSpreadOuter1" result="shadowOffsetOuter1"/>
      <feGaussianBlur in="shadowOffsetOuter1" result="shadowBlurOuter1" stdDeviation="2"/>
      <feColorMatrix in="shadowBlurOuter1" values="0 0 0 0 0   0 0 0 0 0   0 0 0 0 0  0 0 0 0.16 0"/>
    </filter>
  </defs>
  <g fill="none" fill-rule="evenodd">
    <use fill="#000" filter="url(#default-a)" xlink:href="#default-b"/>
    <use fill="#FFF" xlink:href="#default-b"/>
    <rect width="3" height="121" fill="#2B9AF3"/>
    <path fill="#2B9AF3" d="M11.7499815,19.499963 C16.0298785,19.499963 19.499963,16.0311298 19.499963,11.7499815 C19.499963,7.47133572 16.0298785,4 11.7499815,4 C7.4700845,4 4,7.47133572 4,11.7499815 C4,16.0311298 7.4700845,19.499963 11.7499815,19.499963 Z M11.7499815,10.0624855 C11.0250992,10.0624855 10.4374847,9.47487098 10.4374847,8.74998868 C10.4374847,8.02510637 11.0250992,7.4374918 11.7499815,7.4374918 C12.4748638,7.4374918 13.0624784,8.02510637 13.0624784,8.74998868 C13.0624784,9.47487098 12.4748638,10.0624855 11.7499815,10.0624855 Z M13.1249782,15.749972 L10.3749848,15.749972 C10.167893,15.749972 9.99998569,15.5820647 9.99998569,15.3749729 L9.99998569,14.6249747 C9.99998569,14.4178829 10.167893,14.2499839 10.3749848,14.2499839 L10.7499839,14.2499839 L10.7499839,12.2499839 L10.3749848,12.2499839 C10.167893,12.2499839 9.99998569,12.082073 9.99998569,11.8749812 L9.99998569,11.124983 C9.99998569,10.9178912 10.167893,10.7499839 10.3749848,10.7499839 L12.37498,10.7499839 C12.5820718,10.7499839 12.7499791,10.9178912 12.7499791,11.124983 L12.7499791,14.2499839 L13.1249782,14.2499839 C13.33207,14.2499839 13.4999857,14.4178829 13.4999857,14.6249747 L13.4999857,15.3749729 C13.4999857,15.5820647 13.33207,15.749972 13.1249782,15.749972 Z" transform="translate(16 16)"/>
    <g transform="translate(484 16)">
      <rect width="40" height="36" rx="3"/>
      <g transform="translate(8 6)">
        <path fill="#151515" d="M12.2499946,8.49998927 C13.4937356,8.49998927 14.4999893,7.49373557 14.4999893,6.24999464 C14.4999893,5.0062537 13.4937356,4 12.2499946,4 C11.0062537,4 10,5.0062537 10,6.24999464 C10,7.49373557 11.0062537,8.49998927 12.2499946,8.49998927 Z M12.2499946,13.9999762 C13.4937356,13.9999762 14.4999893,12.9937225 14.4999893,11.7499815 C14.4999893,10.5062406 13.4937356,9.49998689 12.2499946,9.49998689 C11.0062537,9.49998689 10,10.5062406 10,11.7499815 C10,12.9937225 11.0062537,13.9999762 12.2499946,13.9999762 Z M12.2499946,19.499963 C13.4937356,19.499963 14.4999893,18.4937093 14.4999893,17.2499684 C14.4999893,16.0062275 13.4937356,14.9999738 12.2499946,14.9999738 C11.0062537,14.9999738 10,16.0062275 10,17.2499684 C10,18.4937093 11.0062537,19.499963 12.2499946,19.499963 Z"/>
        <rect width="24" height="24" fill="#6A6E73"/>
      </g>
      <g fill-opacity=".9">
        <rect width="7" height="35" x=".5" y=".5" fill="#92D400" stroke="#7FB300"/>
        <rect width="7" height="35" x=".5" y=".5" fill="#92D400" stroke="#7FB300" transform="translate(32)"/>
        <rect width="23" height="5" x=".5" y=".5" fill="#F3D53C" stroke="#CBB534" transform="translate(8)"/>
        <rect width="23" height="5" x=".5" y=".5" fill="#F3D53C" stroke="#CBB534" transform="translate(8 30)"/>
      </g>
    </g>
    <text fill="#6A6E73" font-family="RedHatText-Regular, Red Hat Text" font-size="14">
      <tspan x="16" y="98">A few minutes ago</tspan>
    </text>
    <text fill="#151515" font-family="RedHatText-Regular, Red Hat Text" font-size="16">
      <tspan x="16" y="68">Content</tspan>
    </text>
    <text fill="#151515" font-family="RedHatDisplay-Medium, Red Hat Display" font-size="16" font-weight="400">
      <tspan x="48" y="32">Title</tspan>
    </text>
    <g fill-opacity=".9">
      <rect width="507" height="3" x=".5" y=".5" fill="#EC7A08" stroke="#C77000" transform="translate(16 48)"/>
      <rect width="15" height="120" x=".5" y=".5" fill="#3F9C35" stroke="#418A38"/>
      <rect width="15" height="120" x=".5" y=".5" fill="#3F9C35" stroke="#418A38" transform="translate(524)"/>
      <rect width="539" height="15" x=".5" y=".5" fill="#3F9C35" stroke="#418A38"/>
      <rect width="507" height="7" x=".5" y="1.5" fill="#92D400" stroke="#7FB300" transform="translate(16 75)"/>
      <rect width="7" height="31" x=".5" y=".5" fill="#92D400" stroke="#7FB300" transform="translate(40 16)"/>
      <rect width="539" height="15" x=".5" y=".5" fill="#3F9C35" stroke="#418A38" transform="translate(0 105)"/>
    </g>
  </g>
</svg>
