<?xml version="1.0" encoding="UTF-8"?><svg version="1.1" width="142px" height="36px" viewBox="0 0 142.0 36.0" xmlns="http://www.w3.org/2000/svg" xmlns:xlink="http://www.w3.org/1999/xlink"><defs><clipPath id="i0"><path d="M155,0 C156.656854,-3.04359188e-16 158,1.34314575 158,3 L158,49 C158,50.6568542 156.656854,52 155,52 L3,52 C1.34314575,52 -1.57345071e-15,50.6568542 0,49 L0,3 C-2.02906125e-16,1.34314575 1.34314575,1.19253761e-15 3,0 L155,0 Z"></path></clipPath><clipPath id="i1"><path d="M139,0 C140.656854,-3.04359188e-16 142,1.34314575 142,3 L142,33 C142,34.6568542 140.656854,36 139,36 L3,36 C1.34314575,36 -3.79389676e-15,34.6568542 0,33 L0,3 C-2.02906125e-16,1.34314575 1.34314575,-5.83819232e-16 3,0 L139,0 Z"></path></clipPath><clipPath id="i2"><path d="M7.74998152,0 C12.0312213,0 15.499963,3.46874173 15.499963,7.74998152 C15.499963,12.0312213 12.0312213,15.499963 7.74998152,15.499963 C3.46874173,15.499963 0,12.0312213 0,7.74998152 C0,3.46874173 3.46874173,0 7.74998152,0 Z M8.62497944,3.24999225 L6.87498361,3.24999225 C6.66874631,3.24999225 6.4999845,3.41875406 6.4999845,3.62499136 L6.4999845,6.4999845 L3.62499136,6.4999845 C3.41875406,6.4999845 3.24999225,6.66874631 3.24999225,6.87498361 L3.24999225,8.62497944 C3.24999225,8.83121674 3.41875406,8.99997854 3.62499136,8.99997854 L6.4999845,8.99997854 L6.4999845,11.8749717 C6.4999845,12.081209 6.66874631,12.2499708 6.87498361,12.2499708 L8.62497944,12.2499708 C8.83121674,12.2499708 8.99997854,12.081209 8.99997854,11.8749717 L8.99997854,8.99997854 L11.8749717,8.99997854 C12.081209,8.99997854 12.2499708,8.83121674 12.2499708,8.62497944 L12.2499708,6.87498361 C12.2499708,6.66874631 12.081209,6.4999845 11.8749717,6.4999845 L8.99997854,6.4999845 L8.99997854,3.62499136 C8.99997854,3.41875406 8.83121674,3.24999225 8.62497944,3.24999225 Z"></path></clipPath><clipPath id="i3"><path d="M16,0 L16,36 L0,36 L0,0 L16,0 Z"></path></clipPath><clipPath id="i4"><path d="M110,0 L110,6 L0,6 L0,0 L110,0 Z"></path></clipPath><clipPath id="i5"><path d="M4,0 L4,24 L0,24 L0,0 L4,0 Z"></path></clipPath></defs><g transform="translate(-8.0 -8.0)"><g clip-path="url(#i0)"><polygon points="0,0 158,0 158,52 0,52 0,0" stroke="none" fill="rgba(0, 102, 204, 0.2)"></polygon></g><g clip-path="url(#i0)"><path d="M3,0 L155,0 C156.656854,-3.04359188e-16 158,1.34314575 158,3 L158,49 C158,50.6568542 156.656854,52 155,52 L3,52 C1.34314575,52 -1.57345071e-15,50.6568542 0,49 L0,3 C-2.02906125e-16,1.34314575 1.34314575,1.19253761e-15 3,0 Z" stroke="#0066CC" stroke-width="2" fill="none" stroke-miterlimit="5"></path></g></g><g clip-path="url(#i1)"><polygon points="0,0 142,0 142,36 0,36 0,0" stroke="none" fill="#FFFFFF"></polygon></g><g transform="translate(15.0 6.0)"><g transform="translate(4.0 4.0)"><g clip-path="url(#i2)"><polygon points="0,0 15.499963,0 15.499963,15.499963 0,15.499963 0,0" stroke="none" fill="#003F80"></polygon></g></g></g><g transform="translate(43.0 6.0)"><text transform="translate(0.0 16.0)" font-family="RedHatText-Regular, Red Hat Text" font-size="16.0" font-weight="normal" fill="#003F80" text-anchor="left" line-spacing="24.0">Link button</text></g><g clip-path="url(#i3)"><polygon points="0,0 16,0 16,36 0,36 0,0" stroke="none" fill="rgba(62, 156, 52, 0.9)"></polygon></g><g clip-path="url(#i3)"><polygon points="0,0 16,0 16,36 0,36 0,0 0,0" stroke="#418A37" stroke-width="2" fill="none" stroke-miterlimit="5"></polygon></g><g transform="translate(126.0 0.0)"><g clip-path="url(#i3)"><polygon points="0,0 16,0 16,36 0,36 0,0" stroke="none" fill="rgba(62, 156, 52, 0.9)"></polygon></g><g clip-path="url(#i3)"><polygon points="0,0 16,0 16,36 0,36 0,0 0,0" stroke="#418A37" stroke-width="2" fill="none" stroke-miterlimit="5"></polygon></g></g><g transform="translate(16.0 2.2737367544323206e-13)"><g clip-path="url(#i4)"><polygon points="0,0 110,0 110,6 0,6 0,0" stroke="none" fill="rgba(243, 213, 59, 0.9)"></polygon></g><g clip-path="url(#i4)"><polygon points="0,0 110,0 110,6 0,6 0,0 0,0" stroke="#CAB534" stroke-width="2" fill="none" stroke-miterlimit="5"></polygon></g></g><g transform="translate(16.0 30.000000000000185)"><g clip-path="url(#i4)"><polygon points="0,0 110,0 110,6 0,6 0,0" stroke="none" fill="rgba(243, 213, 59, 0.9)"></polygon></g><g clip-path="url(#i4)"><polygon points="0,0 110,0 110,6 0,6 0,0 0,0" stroke="#CAB534" stroke-width="2" fill="none" stroke-miterlimit="5"></polygon></g></g><g transform="translate(39.0 6.0)"><g clip-path="url(#i5)"><polygon points="0,0 4,0 4,24 0,24 0,0" stroke="none" fill="rgba(236, 121, 8, 0.9)"></polygon></g><g clip-path="url(#i5)"><polygon points="0,0 4,0 4,24 0,24 0,0 0,0" stroke="#C67000" stroke-width="2" fill="none" stroke-miterlimit="5"></polygon></g></g></svg>