<?xml version="1.0" encoding="UTF-8"?><svg version="1.1" width="801px" height="36px" viewBox="0 0 801.0 36.0" xmlns="http://www.w3.org/2000/svg" xmlns:xlink="http://www.w3.org/1999/xlink"><defs><clipPath id="i0"><path d="M762,0 L762,36 L0,36 L0,0 L762,0 Z"></path></clipPath><clipPath id="i1"><path d="M8,0 L8,36 L0,36 L0,0 L8,0 Z"></path></clipPath><clipPath id="i2"><path d="M24,0 L24,6 L0,6 L0,0 L24,0 Z"></path></clipPath><clipPath id="i3"><path d="M40,0 L40,36 L0,36 L0,0 L40,0 Z"></path></clipPath><clipPath id="i4"><path d="M3,2.99999285 L3,12.2499708 C3,13.2149343 3.78502516,13.9999666 4.74998868,13.9999666 L9.99997616,13.9999666 L9.99997616,15.2499636 C9.99997616,15.6641777 9.66419205,15.9999619 9.24997795,15.9999619 L0.749998212,15.9999619 C0.335784112,15.9999619 0,15.6641777 0,15.2499636 L0,3.74999106 C0,3.33577696 0.335784112,2.99999285 0.749998212,2.99999285 L3,2.99999285 Z M9.99997616,0 L9.99997616,3.24999225 C9.99997616,3.66249737 10.3374692,4 10.7499744,4 L13.9999666,4 L13.9999666,12.2499708 C13.9999666,12.6641849 13.6641825,12.999969 13.2499684,12.999969 L4.74998868,12.999969 C4.33577457,12.999969 3.99999046,12.6641849 3.99999046,12.2499708 L3.99999046,0.749998212 C3.99999046,0.335784112 4.33577457,0 4.74998868,0 L9.99997616,0 Z M11.1893044,0 C11.3607822,0 11.598361,0.0984189548 11.7196376,0.219665004 L13.7803016,2.28032904 C13.9015477,2.4016056 13.9999738,2.63918438 13.9999738,2.81066224 L13.9999738,3 L10.9999738,3 L10.9999738,0 Z"></path></clipPath></defs><g clip-path="url(#i0)"><polygon points="0,0 762,0 762,36 0,36 0,0" stroke="none" fill="#FFFFFF"></polygon><g transform="translate(-1.0 0.0)"><polygon points="763,0 763,36 762,36 762,0 763,0 763,0" stroke="none" fill="#F0F0F0"></polygon></g><g transform="translate(0.0 1.0)"><polygon points="762,0 0,0 0,-1 762,-1 762,0 762,0" stroke="none" fill="#F0F0F0"></polygon></g><g transform="translate(1.0 0.0)"><polygon points="0,0 0,36 -1,36 -1,0 0,0 0,0" stroke="none" fill="#F0F0F0"></polygon></g><g transform="translate(0.0 -1.0)"><polygon points="762,36 762,37 0,37 0,36 762,36 762,36" stroke="none" fill="#8A8D90"></polygon></g></g><g transform="translate(8.0 6.0)"><text transform="translate(0.0 16.0)" font-family="RedHatText-Regular, Red Hat Text" font-size="16.0" font-weight="normal" fill="#151515" text-anchor="left" line-spacing="24.0">This is read-only</text></g><g transform="translate(761.0 0.0)"><g clip-path="url(#i1)"><polygon points="0,0 8,0 8,36 0,36 0,0" stroke="none" fill="rgba(146, 211, 0, 0.9)"></polygon></g><g clip-path="url(#i1)"><polygon points="0,0 8,0 8,36 0,36 0,0 0,0" stroke="#7EB200" stroke-width="2" fill="none" stroke-miterlimit="5"></polygon></g><g transform="translate(32.0 0.0)"><g clip-path="url(#i1)"><polygon points="0,0 8,0 8,36 0,36 0,0" stroke="none" fill="rgba(146, 211, 0, 0.9)"></polygon></g><g clip-path="url(#i1)"><polygon points="0,0 8,0 8,36 0,36 0,0 0,0" stroke="#7EB200" stroke-width="2" fill="none" stroke-miterlimit="5"></polygon></g></g><g transform="translate(8.0 0.0)"><g clip-path="url(#i2)"><polygon points="0,0 24,0 24,6 0,6 0,0" stroke="none" fill="rgba(243, 213, 59, 0.9)"></polygon></g><g clip-path="url(#i2)"><polygon points="0,0 24,0 24,6 0,6 0,0 0,0" stroke="#CAB534" stroke-width="2" fill="none" stroke-miterlimit="5"></polygon></g></g><g transform="translate(8.0 30.0)"><g clip-path="url(#i2)"><polygon points="0,0 24,0 24,6 0,6 0,0" stroke="none" fill="rgba(243, 213, 59, 0.9)"></polygon></g><g clip-path="url(#i2)"><polygon points="0,0 24,0 24,6 0,6 0,0 0,0" stroke="#CAB534" stroke-width="2" fill="none" stroke-miterlimit="5"></polygon></g></g></g><g transform="translate(761.0 0.0)"><g clip-path="url(#i3)"><polygon points="0,0 40,0 40,36 0,36 0,0" stroke="none" fill="#FFFFFF"></polygon><g transform="translate(-1.0 0.0)"><polygon points="41,0 41,36 40,36 40,0 41,0 41,0" stroke="none" fill="#F0F0F0"></polygon></g><g transform="translate(0.0 1.0)"><polygon points="40,0 0,0 0,-1 40,-1 40,0 40,0" stroke="none" fill="#F0F0F0"></polygon></g><g transform="translate(1.0 0.0)"><polygon points="0,0 0,36 -1,36 -1,0 0,0 0,0" stroke="none" fill="#F0F0F0"></polygon></g><g transform="translate(0.0 -1.0)"><polygon points="40,36 40,37 0,37 0,36 40,36 40,36" stroke="none" fill="#8A8D90"></polygon></g></g><g transform="translate(8.0 6.0)"><g transform="translate(4.999999999999999 4.0)"><g clip-path="url(#i4)"><polygon points="0,0 13.9999738,0 13.9999738,15.9999619 0,15.9999619 0,0" stroke="none" fill="#151515"></polygon></g></g></g><g clip-path="url(#i1)"><polygon points="0,0 8,0 8,36 0,36 0,0" stroke="none" fill="rgba(146, 211, 0, 0.9)"></polygon></g><g clip-path="url(#i1)"><polygon points="0,0 8,0 8,36 0,36 0,0 0,0" stroke="#7EB200" stroke-width="2" fill="none" stroke-miterlimit="5"></polygon></g><g transform="translate(32.0 0.0)"><g clip-path="url(#i1)"><polygon points="0,0 8,0 8,36 0,36 0,0" stroke="none" fill="rgba(146, 211, 0, 0.9)"></polygon></g><g clip-path="url(#i1)"><polygon points="0,0 8,0 8,36 0,36 0,0 0,0" stroke="#7EB200" stroke-width="2" fill="none" stroke-miterlimit="5"></polygon></g></g><g transform="translate(8.0 0.0)"><g clip-path="url(#i2)"><polygon points="0,0 24,0 24,6 0,6 0,0" stroke="none" fill="rgba(243, 213, 59, 0.9)"></polygon></g><g clip-path="url(#i2)"><polygon points="0,0 24,0 24,6 0,6 0,0 0,0" stroke="#CAB534" stroke-width="2" fill="none" stroke-miterlimit="5"></polygon></g></g><g transform="translate(8.0 30.0)"><g clip-path="url(#i2)"><polygon points="0,0 24,0 24,6 0,6 0,0" stroke="none" fill="rgba(243, 213, 59, 0.9)"></polygon></g><g clip-path="url(#i2)"><polygon points="0,0 24,0 24,6 0,6 0,0 0,0" stroke="#CAB534" stroke-width="2" fill="none" stroke-miterlimit="5"></polygon></g></g></g></svg>