<?xml version="1.0" encoding="UTF-8"?>
<svg width="290px" height="40px" viewBox="0 0 290 40" version="1.1" xmlns="http://www.w3.org/2000/svg" xmlns:xlink="http://www.w3.org/1999/xlink">
    <title></title>
    <g id="Navigation" stroke="none" stroke-width="1" fill="none" fill-rule="evenodd">
        <g id="Navigation-/-5.-Flyout-/-1.-Default">
            <g id="Group">
                <rect id="Rectangle" fill="#212427" x="0" y="0" width="290" height="40"></rect>
                <text id="âœï¸-Label" font-family="RedHatText-Regular, Red Hat Text" font-size="16" font-weight="normal" line-spacing="24" fill="#FFFFFF">
                    <tspan x="24" y="24">Advisor</tspan>
                </text>
                <g transform="translate(242.000000, 8.000000)" fill="#FFFFFF" id="arrow">
                    <path d="M10.985919,16.7827983 L15.2359089,12.5328085 C15.5296704,12.239047 15.5296704,11.7640725 15.2327961,11.470311 L10.9828062,7.22032113 C10.692188,6.92655962 10.2171831,6.92655962 9.92342157,7.22032113 L9.22029824,7.93281333 C8.92656725,8.22343153 8.92656725,8.6984365 9.22029824,8.99219801 L12.2328033,12.0046725 L9.22029824,15.0171775 C8.92656725,15.3077957 8.92656725,15.7828007 9.22029824,16.0765622 L9.92656487,16.7827983 C10.2171831,17.0765598 10.692188,17.0765598 10.985919,16.7827983 Z" id="angle-right"></path>
                </g>
                <rect id="Divider" fill="#3C3F42" x="0" y="39" width="290" height="1"></rect>
            </g>
            <g id="ðŸ“-Padding" fill-opacity="0.9">
                <g id="ðŸ“-Padding-Copy" transform="translate(24.000000, 0.000000)" fill="#92D400" stroke="#7FB300">
                    <rect id="Rectangle-Copy" x="0.5" y="0.5" width="265" height="7"></rect>
                </g>
                <g id="ðŸ“-Padding-Copy" transform="translate(24.000000, 32.000000)" fill="#92D400" stroke="#7FB300">
                    <rect id="Rectangle-Copy" x="0.5" y="0.5" width="265" height="7"></rect>
                </g>
                <g id="Spacer-/-Horizontal-/-4.-pf-global--spacer--lg-(24px)" fill="#007A87" stroke="#09707B">
                    <rect id="Rectangle-Copy-3" x="0.5" y="0.5" width="23" height="39"></rect>
                </g>
                <g id="Spacer-/-Horizontal-/-4.-pf-global--spacer--lg-(24px)" transform="translate(266.000000, 0.000000)" fill="#007A87" stroke="#09707B">
                    <rect id="Rectangle-Copy-3" x="0.5" y="0.5" width="23" height="39"></rect>
                </g>
            </g>
        </g>
    </g>
</svg>