<?xml version="1.0" encoding="UTF-8"?>
<svg width="290px" height="40px" viewBox="0 0 290 40" version="1.1" xmlns="http://www.w3.org/2000/svg" xmlns:xlink="http://www.w3.org/1999/xlink">
    <title></title>
    <g id="Navigation" stroke="none" stroke-width="1" fill="none" fill-rule="evenodd">
        <g id="Navigation-/-5.-Flyout-/-3.-Hover">
            <rect id="Rectangle" fill="#3C3F42" x="0" y="0" width="290" height="40"></rect>
            <text id="âœï¸-Label" font-family="RedHatText-Regular, Red Hat Text" font-size="16" font-weight="normal" line-spacing="24" fill="#FFFFFF">
                <tspan x="24" y="24">Page title</tspan>
            </text>
            <g id="arrow" transform="translate(251.000000, 15.000000)" fill="#FFFFFF">
                <path d="M1.98591903,9.78279833 L6.2359089,5.53280846 C6.52967041,5.23904696 6.52967041,4.7640725 6.23279611,4.470311 L1.98280625,0.22032113 C1.69218804,-0.0734403767 1.21718307,-0.0734403767 0.923421565,0.22032113 L0.220298242,0.932813328 C-0.0734327473,1.22343153 -0.0734327473,1.6984365 0.220298242,1.99219801 L3.23280327,5.00467252 L0.220298242,8.01717754 C-0.0734327473,8.30779574 -0.0734327473,8.78280072 0.220298242,9.07656222 L0.926564869,9.78279833 C1.21718307,10.0765598 1.69218804,10.0765598 1.98591903,9.78279833 Z" id="angle-right"></path>
            </g>
            <rect id="Line" fill="#8A8D90" x="0" y="0" width="1" height="40"></rect>
            <g id="ðŸ“-Padding" fill-opacity="0.9">
                <g id="ðŸ“-Padding-Copy" transform="translate(24.000000, 0.000000)" fill="#92D400" stroke="#7FB300">
                    <rect id="Rectangle-Copy" x="0.5" y="0.5" width="265" height="7"></rect>
                </g>
                <g id="ðŸ“-Padding-Copy" transform="translate(24.000000, 32.000000)" fill="#92D400" stroke="#7FB300">
                    <rect id="Rectangle-Copy" x="0.5" y="0.5" width="265" height="7"></rect>
                </g>
                <g fill="#007A87" id="Rectangle-Copy-3" stroke="#09707B">
                    <rect x="0.5" y="0.5" width="23" height="39"></rect>
                </g>
                <g transform="translate(266.000000, 0.000000)" fill="#007A87" id="Rectangle-Copy-3" stroke="#09707B">
                    <rect x="0.5" y="0.5" width="23" height="39"></rect>
                </g>
            </g>
        </g>
    </g>
</svg>