<?xml version="1.0" encoding="UTF-8"?><svg version="1.1" width="290px" height="115px" viewBox="0 0 290.0 115.0" xmlns="http://www.w3.org/2000/svg" xmlns:xlink="http://www.w3.org/1999/xlink"><defs><filter id="i0" x="-4.02684564%" y="-9.75609756%" filterUnits="userSpaceOnUse" width="105.369128%" height="113.00813%"><feGaussianBlur stdDeviation="2" in="SourceAlpha" result="i1"></feGaussianBlur><feOffset dx="0" dy="0" in="i1" result="i2"></feOffset><feColorMatrix values="0 0 0 0.0 0 0 0 0 0.0 0 0 0 0 0.0 0 0 0 0 0.06 0" type="matrix" in="i2"></feColorMatrix></filter><filter id="i3" x="-9.1503268%" y="-18.3206107%" filterUnits="userSpaceOnUse" width="113.071895%" height="130.534351%"><feGaussianBlur stdDeviation="4" in="SourceAlpha" result="i4"></feGaussianBlur><feOffset dx="0" dy="4" in="i4" result="i5"></feOffset><feColorMatrix values="0 0 0 0.0 0 0 0 0 0.0 0 0 0 0 0.0 0 0 0 0 0.12 0" type="matrix" in="i5"></feColorMatrix></filter><clipPath id="i6"><path d="M290,0 L290,115 L0,115 L0,0 L290,0 Z"></path></clipPath><clipPath id="i7"><path d="M266,0 L266,8 L0,8 L0,0 L266,0 Z"></path></clipPath><clipPath id="i8"><path d="M24,0 L24,40 L0,40 L0,0 L24,0 Z"></path></clipPath></defs><polygon points="0,0 290,0 290,115 0,115 0,0 0,0" stroke="none" fill="#000000" filter="url(#i0)"></polygon><polygon points="0,0 290,0 290,115 0,115 0,0 0,0" stroke="none" fill="#000000" filter="url(#i3)"></polygon><g clip-path="url(#i6)"><polygon points="0,0 290,0 290,115 0,115 0,0" stroke="none" fill="#202426"></polygon></g><g transform="translate(24.0 0.0)"><g clip-path="url(#i7)"><polygon points="0,0 266,0 266,8 0,8 0,0" stroke="none" fill="rgba(146, 211, 0, 0.9)"></polygon></g><g clip-path="url(#i7)"><polygon points="0,0 266,0 266,8 0,8 0,0 0,0" stroke="#7EB200" stroke-width="2" fill="none" stroke-miterlimit="5"></polygon></g></g><g transform="translate(24.0 32.0)"><g clip-path="url(#i7)"><polygon points="0,0 266,0 266,8 0,8 0,0" stroke="none" fill="rgba(146, 211, 0, 0.9)"></polygon></g><g clip-path="url(#i7)"><polygon points="0,0 266,0 266,8 0,8 0,0 0,0" stroke="#7EB200" stroke-width="2" fill="none" stroke-miterlimit="5"></polygon></g></g><g clip-path="url(#i8)"><polygon points="0,0 24,0 24,40 0,40 0,0" stroke="none" fill="rgba(0, 121, 135, 0.9)"></polygon></g><g clip-path="url(#i8)"><polygon points="0,0 24,0 24,40 0,40 0,0 0,0" stroke="#09707A" stroke-width="2" fill="none" stroke-miterlimit="5"></polygon></g><g transform="translate(266.0 0.0)"><g clip-path="url(#i8)"><polygon points="0,0 24,0 24,40 0,40 0,0" stroke="none" fill="rgba(0, 121, 135, 0.9)"></polygon></g><g clip-path="url(#i8)"><polygon points="0,0 24,0 24,40 0,40 0,0 0,0" stroke="#09707A" stroke-width="2" fill="none" stroke-miterlimit="5"></polygon></g></g></svg>