<?xml version="1.0" encoding="UTF-8"?><svg version="1.1" width="42px" height="26px" viewBox="0 0 42.0 26.0" xmlns="http://www.w3.org/2000/svg" xmlns:xlink="http://www.w3.org/1999/xlink"><defs><clipPath id="i0"><path d="M39,0 C40.6568542,-3.04359188e-16 42,1.34314575 42,3 L42,23 C42,24.6568542 40.6568542,26 39,26 L3,26 C1.34314575,26 -1.1293615e-15,24.6568542 0,23 L0,3 C-2.02906125e-16,1.34314575 1.34314575,1.63662682e-15 3,0 L39,0 Z"></path></clipPath><clipPath id="i1"><path d="M8,0 L8,26 L0,26 L0,0 L8,0 Z"></path></clipPath><clipPath id="i2"><path d="M25,0 L25,4 L0,4 L0,0 L25,0 Z"></path></clipPath></defs><g clip-path="url(#i0)"><polygon points="0,0 42,0 42,26 0,26 0,0" stroke="none" fill="#FFFFFF"></polygon><path d="M3,0 L39,0 C40.6568542,-3.04359188e-16 42,1.34314575 42,3 L42,23 C42,24.6568542 40.6568542,26 39,26 L3,26 C1.34314575,26 -1.1293615e-15,24.6568542 0,23 L0,3 C-2.02906125e-16,1.34314575 1.34314575,1.63662682e-15 3,0 Z" stroke="#F0F0F0" stroke-width="2" fill="none" stroke-miterlimit="5"></path></g><g transform="translate(8.0 4.0)"><text transform="translate(0.0 12.0)" font-family="RedHatText-Regular, Red Hat Text" font-size="12.0" font-weight="normal" fill="#151515" text-anchor="left" line-spacing="18.0">Chip</text></g><g clip-path="url(#i1)"><polygon points="0,0 8,0 8,26 0,26 0,0" stroke="none" fill="rgba(146, 211, 0, 0.9)"></polygon></g><g clip-path="url(#i1)"><polygon points="0,0 8,0 8,26 0,26 0,0 0,0" stroke="#7EB200" stroke-width="2" fill="none" stroke-miterlimit="5"></polygon></g><g transform="translate(8.0 0.0)"><g clip-path="url(#i2)"><polygon points="0,0 25,0 25,4 0,4 0,0" stroke="none" fill="rgba(236, 121, 8, 0.9)"></polygon></g><g clip-path="url(#i2)"><polygon points="0,0 25,0 25,4 0,4 0,0 0,0" stroke="#C67000" stroke-width="2" fill="none" stroke-miterlimit="5"></polygon></g></g><g transform="translate(8.0 22.0)"><g clip-path="url(#i2)"><polygon points="0,0 25,0 25,4 0,4 0,0" stroke="none" fill="rgba(236, 121, 8, 0.9)"></polygon></g><g clip-path="url(#i2)"><polygon points="0,0 25,0 25,4 0,4 0,0 0,0" stroke="#C67000" stroke-width="2" fill="none" stroke-miterlimit="5"></polygon></g></g><g transform="translate(32.99999999999999 0.0)"><g clip-path="url(#i1)"><polygon points="0,0 8,0 8,26 0,26 0,0" stroke="none" fill="rgba(146, 211, 0, 0.9)"></polygon></g><g clip-path="url(#i1)"><polygon points="0,0 8,0 8,26 0,26 0,0 0,0" stroke="#7EB200" stroke-width="2" fill="none" stroke-miterlimit="5"></polygon></g></g></svg>