<?xml version="1.0" encoding="UTF-8"?>
<svg width="135px" height="36px" viewBox="0 0 135 36" version="1.1" xmlns="http://www.w3.org/2000/svg" xmlns:xlink="http://www.w3.org/1999/xlink">
    <title></title>
    <g id="Toggle-group" stroke="none" stroke-width="1" fill="none" fill-rule="evenodd">
        <g id="Toggle-group-/-On-grey-bg-/-Text-+-Icon-on-right-/-3.-Right-/-2.-Hover">
            <path d="M132,0.5 C132.690356,0.5 133.315356,0.779822031 133.767767,1.23223305 C134.220178,1.68464406 134.5,2.30964406 134.5,3 L134.5,3 L134.5,33 C134.5,33.6903559 134.220178,34.3153559 133.767767,34.767767 C133.315356,35.220178 132.690356,35.5 132,35.5 L132,35.5 L0.5,35.5 L0.5,0.5 Z" id="Rectangle-Copy" stroke="#8A8D90" fill="#F0F0F0"></path>
            <text id="Hover---right" font-family="RedHatText-Regular, Red Hat Text" font-size="14" font-weight="normal" line-spacing="21" fill="#151515">
                <tspan x="16" y="22">Hover - right</tspan>
            </text>
            <g id="Icons/1.-Size-md-(16px)/Actions/copy" transform="translate(105.000000, 10.000000)" fill="#151515">
                <path d="M13.2499684,12.999969 C13.6641825,12.999969 13.9999666,12.6641849 13.9999666,12.2499708 L13.9999666,4 L10.7499744,4 C10.3374692,4 9.99997616,3.66249737 9.99997616,3.24999225 L9.99997616,0 L4.74998868,0 C4.33577457,0 3.99999046,0.335784112 3.99999046,0.749998212 L3.99999046,12.2499708 C3.99999046,12.6641849 4.33577457,12.999969 4.74998868,12.999969 L13.2499684,12.999969 Z M13.9999738,3 L13.9999738,2.81066224 C13.9999738,2.63918438 13.9015477,2.4016056 13.7803016,2.28032904 L11.7196376,0.219665004 C11.598361,0.0984189548 11.3607822,0 11.1893044,0 L10.9999738,0 L10.9999738,3 L13.9999738,3 Z M9.24997795,15.9999619 C9.66419205,15.9999619 9.99997616,15.6641777 9.99997616,15.2499636 L9.99997616,13.9999666 L4.74998868,13.9999666 C3.78502516,13.9999666 3,13.2149343 3,12.2499708 L3,2.99999285 L0.749998212,2.99999285 C0.335784112,2.99999285 0,3.33577696 0,3.74999106 L0,15.2499636 C0,15.6641777 0.335784112,15.9999619 0.749998212,15.9999619 L9.24997795,15.9999619 Z" id="copy"></path>
            </g>
            <g id="ðŸ“-Padding" fill-opacity="0.9">
                <g id="Spacer-/-Horizontal-/-2.-pf-global--spacer--sm-(8px)" transform="translate(97.000000, 0.000000)" fill="#92D400" stroke="#7FB300">
                    <rect id="Rectangle-Copy" x="0.5" y="0.5" width="7" height="36"></rect>
                </g>
                <g id="Spacer-/-Horizontal-/-3.-pf-global--spacer--md-(16px)" fill="#3F9C35" stroke="#418A38">
                    <rect id="Rectangle-Copy-2" x="0.5" y="0.5" width="15" height="36"></rect>
                </g>
                <g id="Spacer-/-Horizontal-/-3.-pf-global--spacer--md-(16px)" transform="translate(119.000000, 0.000000)" fill="#3F9C35" stroke="#418A38">
                    <rect id="Rectangle-Copy-2" x="0.5" y="0.5" width="15" height="36"></rect>
                </g>
            </g>
        </g>
    </g>
</svg>