<?xml version="1.0" encoding="UTF-8"?><svg version="1.1" width="150px" height="150px" viewBox="0 0 150.0 150.0" xmlns="http://www.w3.org/2000/svg" xmlns:xlink="http://www.w3.org/1999/xlink"><defs><clipPath id="i0"><path d="M3,0 L3,8 L0,8 L0,0 L3,0 Z"></path></clipPath><clipPath id="i1"><path d="M3,0 L3,9 L0,9 L0,0 L3,0 Z"></path></clipPath><clipPath id="i2"><path d="M9,0 L9,3 L0,3 L0,0 L9,0 Z"></path></clipPath></defs><g transform="translate(5.0 5.0)"><path d="M70,140 C108.659932,140 140,108.659932 140,70 C140,31.3400675 108.659932,0 70,0 C31.3400675,0 0,31.3400675 0,70 C0,108.659932 31.3400675,140 70,140 Z" stroke="#EDEDED" stroke-width="8" fill="none" stroke-miterlimit="10"></path></g><g transform="translate(5.0 5.0)"><path d="M70,0 C31.3400675,0 0,31.3400675 0,70 C0,85.6656007 5.1460245,100.129283 13.8398609,111.792834" stroke="#D2D2D2" stroke-width="8" fill="none" stroke-miterlimit="10"></path></g><g transform="translate(32.34766704019106 5.0)"><path d="M42.652333,0 C26.5996203,0 11.8089612,5.40349317 0,14.490835" stroke="#B8BBBE" stroke-width="8" fill="none" stroke-miterlimit="10"></path></g><g transform="translate(52.428023768394496 17.0)"><path d="M0,111.443866 C6.93789155,114.377693 14.5654789,116 22.5719762,116 L22.5719762,116 C54.6044917,116 80.5719762,90.0325155 80.5719762,58 C80.5719762,25.9674845 54.6044917,0 22.5719762,0" stroke="#0066CC" stroke-width="8" fill="none" stroke-miterlimit="10"></path></g><g transform="translate(52.0 51.8)"><text transform="translate(0.14000000000000057 24.0)" font-family="RedHatDisplay-Medium, Red Hat Display" font-size="24.0" font-weight="500" fill="#151515" text-anchor="center" line-spacing="31.2">55%</text></g><g transform="translate(42.0 84.0)"><text transform="translate(0.21799999999999642 12.0)" font-family="RedHatText-Regular, Red Hat Text" font-size="12.0" font-weight="normal" fill="#696E73" text-anchor="center" line-spacing="18.0">of 100 GBps</text></g><g transform="translate(74.0 1.0)"><g clip-path="url(#i0)"><polygon points="0,0 3,0 3,8 0,8 0,0" stroke="none" fill="#FFFFFF"></polygon></g></g><g transform="translate(28.239676492961728 16.98343844495489) rotate(-38.0)"><g clip-path="url(#i1)"><polygon points="-5.68434189e-14,2.27373675e-13 3,2.27373675e-13 3,9 -5.68434189e-14,9 -5.68434189e-14,2.27373675e-13" stroke="none" fill="#FFFFFF"></polygon></g></g><g transform="translate(14.20559636987534 118.56487138375435) rotate(-39.99999999999999)"><g clip-path="url(#i2)"><polygon points="0,2.27373675e-13 9,2.27373675e-13 9,3 0,3 0,2.27373675e-13" stroke="none" fill="#FFFFFF"></polygon></g></g></svg>