<?xml version="1.0" encoding="UTF-8"?>
<svg width="150px" height="150px" viewBox="0 0 150 150" version="1.1" xmlns="http://www.w3.org/2000/svg" xmlns:xlink="http://www.w3.org/1999/xlink">
    <title></title>
    <g id="Charts" stroke="none" stroke-width="1" fill="none" fill-rule="evenodd">
        <g id="Charts-/-Donut-/-Small-size-/-Utilization-with-thresholds-/-2.-Warning">
            <circle id="threshold-1" stroke="#EDEDED" stroke-width="8" cx="75" cy="75" r="70"></circle>
            <path d="M75,5 C36.3400675,5 5,36.3400675 5,75 C5,90.6656007 10.1460245,105.129283 18.8398609,116.792834" id="threshold-2" stroke="#D2D2D2" stroke-width="8"></path>
            <path d="M75,5 C58.9472874,5 44.1566282,10.4034932 32.347667,19.490835" id="threshold-3" stroke="#B8BBBE" stroke-width="8"></path>
            <path d="M21.8989095,54.0504914 C19.3810003,60.5483834 18,67.6129168 18,75 C18,107.032515 43.9674845,133 76,133 L76,133 C108.032515,133 134,107.032515 134,75 C134,42.9674845 108.032515,17 76,17" id="utilization" stroke="#F0AB00" stroke-width="8"></path>
            <text id="％-Percentage" font-family="RedHatDisplay-Medium, Red Hat Display" font-size="24" font-weight="400" line-spacing="31.2" fill="#151515">
                <tspan x="50.424" y="75.8">80%</tspan>
            </text>
            <text id="✏️-Label" font-family="RedHatText-Regular, Red Hat Text" font-size="12" font-weight="normal" line-spacing="18" fill="#6A6E73">
                <tspan x="42.218" y="96">of 100 GBps</tspan>
            </text>
            <rect id="Rectangle" fill="#FFFFFF" x="74" y="1" width="3" height="8"></rect>
            <rect id="Rectangle" fill="#FFFFFF" transform="translate(32.192169, 19.605995) rotate(-38.000000) translate(-32.192169, -19.605995) " x="30.6921693" y="15.1059946" width="3" height="9"></rect>
            <rect id="Rectangle" fill="#FFFFFF" transform="translate(18.616978, 116.821394) rotate(-40.000000) translate(-18.616978, -116.821394) " x="14.1169778" y="115.321394" width="9" height="3"></rect>
        </g>
    </g>
</svg>