<svg xmlns="http://www.w3.org/2000/svg" width="61" height="54" viewBox="0 0 61 54">
  <path fill="#F0AB00" fill-rule="evenodd" d="M55.6873672,53.7499839 C56.9529892,53.7499839 58.0428298,53.3456885 58.9568907,52.5370962 C59.8709515,51.7285038 60.4334497,50.7441317 60.6443867,49.5839782 C60.8553237,48.4238247 60.6795423,47.2812499 60.1170442,46.156252 L34.8046045,2.28135662 C34.1717935,1.15635876 33.2753113,0.400502264 32.1151578,0.0137838991 C30.9550043,-0.372934465 29.7948508,-0.372934465 28.6346974,0.0137838991 C27.4745439,0.400502264 26.5780616,1.15635876 25.9452506,2.28135662 L0.632810991,46.156252 C0.0703128688,47.2812499 -0.105468499,48.4238247 0.105468499,49.5839782 C0.316405496,50.7441317 0.878903618,51.7285038 1.79296448,52.5370962 C2.70702533,53.3456885 3.79686595,53.7499839 5.06248793,53.7499839 L55.6873672,53.7499839 Z M32.9061715,35.1875282 L27.8436836,35.1875282 C27.4921225,35.1875282 27.193294,35.064481 26.9472014,34.8183884 C26.7011088,34.5722958 26.5780616,34.3086245 26.5780616,34.0273747 L25.7343136,19.6836589 C25.7343136,19.2617849 25.8573608,18.9278008 26.1034534,18.6817081 C26.349546,18.4356155 26.6483745,18.3125684 26.9999356,18.3125684 L33.7499195,18.3125684 C34.1014807,18.3125684 34.4003091,18.4356155 34.6464018,18.6817081 C34.8924944,18.9278008 35.0155415,19.2617849 35.0155415,19.6836589 L34.1717935,34.0273747 C34.1717935,34.3086245 34.0487464,34.5722958 33.8026538,34.8183884 C33.5565612,35.064481 33.2577327,35.1875282 32.9061715,35.1875282 Z M30.3749276,46.789063 C29.0389927,46.789063 27.8964179,46.3144548 26.9472014,45.3652383 C25.9979849,44.4160218 25.5233766,43.2734469 25.5233766,41.9375121 C25.5233766,40.6015772 25.9979849,39.4590024 26.9472014,38.5097859 C27.8964179,37.5605694 29.0389927,37.0859611 30.3749276,37.0859611 C31.7108624,37.0859611 32.8534373,37.5605694 33.8026538,38.5097859 C34.7518703,39.4590024 35.2264785,40.6015772 35.2264785,41.9375121 C35.2264785,43.2734469 34.7518703,44.4160218 33.8026538,45.3652383 C32.8534373,46.3144548 31.7108624,46.789063 30.3749276,46.789063 Z"/>
</svg>
