<?xml version="1.0" encoding="UTF-8"?>
<svg width="24px" height="24px" viewBox="0 0 24 24" version="1.1" xmlns="http://www.w3.org/2000/svg" xmlns:xlink="http://www.w3.org/1999/xlink">
    <title></title>
    <g id="Icons" stroke="none" stroke-width="1" fill="none" fill-rule="evenodd">
        <g id="Icons-/-2.-Size-sm-/-View-Type-/-list" fill="#151515">
            <path d="M7.87499553,9.24999464 C8.08199577,9.24999464 8.24999464,9.08199577 8.24999464,8.87499553 L8.24999464,7.37499911 C8.24999464,7.16799887 8.08199577,7 7.87499553,7 L6.37499911,7 C6.16799887,7 6,7.16799887 6,7.37499911 L6,8.87499553 C6,9.08199577 6.16799887,9.24999464 6.37499911,9.24999464 L7.87499553,9.24999464 Z M17.6249723,8.87499911 C17.8319725,8.87499911 17.9999714,8.70699666 17.9999714,8.49999642 L17.9999714,7.74999821 C17.9999714,7.54299797 17.8319725,7.37499911 17.6249723,7.37499911 L10.1249902,7.37499911 C9.91798993,7.37499911 9.74999106,7.54299797 9.74999106,7.74999821 L9.74999106,8.49999642 C9.74999106,8.70699666 9.91798993,8.87499911 10.1249902,8.87499911 L17.6249723,8.87499911 Z M7.87499553,12.9999857 C8.08199577,12.9999857 8.24999464,12.8319868 8.24999464,12.6249866 L8.24999464,11.1249902 C8.24999464,10.9179899 8.08199577,10.7499911 7.87499553,10.7499911 L6.37499911,10.7499911 C6.16799887,10.7499911 6,10.9179899 6,11.1249902 L6,12.6249866 C6,12.8319868 6.16799887,12.9999857 6.37499911,12.9999857 L7.87499553,12.9999857 Z M17.6249723,12.6249902 C17.8319725,12.6249902 17.9999714,12.4569877 17.9999714,12.2499875 L17.9999714,11.4999893 C17.9999714,11.292989 17.8319725,11.1249902 17.6249723,11.1249902 L10.1249902,11.1249902 C9.91798993,11.1249902 9.74999106,11.292989 9.74999106,11.4999893 L9.74999106,12.2499875 C9.74999106,12.4569877 9.91798993,12.6249902 10.1249902,12.6249902 L17.6249723,12.6249902 Z M7.87499553,16.7499768 C8.08199577,16.7499768 8.24999464,16.5819779 8.24999464,16.3749776 L8.24999464,14.8749812 C8.24999464,14.667981 8.08199577,14.4999821 7.87499553,14.4999821 L6.37499911,14.4999821 C6.16799887,14.4999821 6,14.667981 6,14.8749812 L6,16.3749776 C6,16.5819779 6.16799887,16.7499768 6.37499911,16.7499768 L7.87499553,16.7499768 Z M17.6249723,16.3749812 C17.8319725,16.3749812 17.9999714,16.2069788 17.9999714,15.9999785 L17.9999714,15.2499803 C17.9999714,15.0429801 17.8319725,14.8749812 17.6249723,14.8749812 L10.1249902,14.8749812 C9.91798993,14.8749812 9.74999106,15.0429801 9.74999106,15.2499803 L9.74999106,15.9999785 C9.74999106,16.2069788 9.91798993,16.3749812 10.1249902,16.3749812 L17.6249723,16.3749812 Z" id="list"></path>
        </g>
    </g>
</svg>