<?xml version="1.0" encoding="UTF-8"?>
<svg width="24px" height="24px" viewBox="0 0 24 24" version="1.1" xmlns="http://www.w3.org/2000/svg" xmlns:xlink="http://www.w3.org/1999/xlink">
    <title></title>
    <g id="Icons" stroke="none" stroke-width="1" fill="none" fill-rule="evenodd">
        <g id="Icons-/-2.-Size-sm-/-View-Type-/-pficon-topology" fill="#151515">
            <path d="M15.6816176,6 C14.7915441,6 14.0680147,6.72352941 14.0680147,7.61360294 C14.0680147,7.93125 14.1584559,8.22573529 14.3172794,8.47610294 L13.3897059,9.42463235 C12.9099265,9.04852941 12.3055147,8.82352941 11.6470588,8.82352941 C11.2698529,8.82352941 10.9091912,8.89742647 10.5805147,9.03198529 L10.2860294,8.64264706 C10.1371324,8.44080882 9.87022059,8.38345588 9.69375,8.51691176 C9.51507353,8.64816176 9.48970588,8.92058824 9.63529412,9.12242647 L9.88125,9.44448529 C9.23602941,9.96176471 8.82352941,10.7558824 8.82352941,11.6470588 C8.82352941,11.8974265 8.85661765,12.1400735 8.91727941,12.3716912 L8.63602941,12.5172794 C8.42426471,12.6209559 8.32389706,12.8702206 8.40882353,13.0720588 C8.49375,13.2738971 8.73860294,13.3544118 8.94816176,13.2540441 L9.23051471,13.1073529 C9.62977941,13.7669118 10.2915441,14.25 11.0713235,14.4110294 L11.0051471,15.2161765 C10.5606618,15.3430147 10.2352941,15.7511029 10.2352941,16.2352941 C10.2352941,16.8198529 10.7095588,17.2941176 11.2941176,17.2941176 C11.8786735,17.2941176 12.3529412,16.8198529 12.3529412,16.2352941 C12.3529412,15.7974265 12.0871324,15.4224265 11.7088235,15.2613971 L11.7738971,14.4683824 C12.6761029,14.4286765 13.4691176,13.9643382 13.9566176,13.2705882 L14.7110294,13.7845588 C14.9128676,13.9235294 15.1775735,13.8849265 15.2955882,13.6985294 C15.4136029,13.5099265 15.3452206,13.2452206 15.1411765,13.1095588 L14.3227941,12.5525735 C14.41875,12.2680147 14.4705882,11.9636029 14.4705882,11.6470588 C14.4705882,11.0360294 14.2764706,10.4702206 13.9466912,10.0091912 L14.9051471,9.03088235 C15.1345588,9.15661765 15.3992647,9.23051471 15.6816176,9.23051471 C16.5716912,9.23051471 17.2952206,8.50698529 17.2952206,7.61691176 C17.2952206,6.72683824 16.5716912,6 15.6816176,6 Z M11.8235294,16.2352941 C11.8235294,16.5275735 11.5863971,16.7647059 11.2941176,16.7647059 C11.0018382,16.7647059 10.7647059,16.5275735 10.7647059,16.2352941 C10.7647059,15.9430147 11.0018382,15.7058824 11.2941176,15.7058824 C11.5863971,15.7058824 11.8235294,15.9430147 11.8235294,16.2352941 Z M11.6470588,13.0588235 C10.8672794,13.0588235 10.2352941,12.4268382 10.2352941,11.6470588 C10.2352941,10.8672794 10.8672794,10.2352941 11.6470588,10.2352941 C12.4268382,10.2352941 13.0588235,10.8672794 13.0588235,11.6470588 C13.0588235,12.4268382 12.4279412,13.0588235 11.6470588,13.0588235 Z M15.6816176,8.47058824 C15.2073529,8.47058824 14.8246324,8.08786765 14.8246324,7.61360294 C14.8246324,7.13933824 15.2073529,6.75661765 15.6816176,6.75661765 C16.1558824,6.75661765 16.5386029,7.13933824 16.5386029,7.61360294 C16.5386029,8.08786765 16.1558824,8.47058824 15.6816176,8.47058824 Z M15.9352941,13.85625 C16.4073529,13.3841912 17.1738971,13.3841912 17.6459559,13.85625 C17.8819853,14.0922794 18,14.4022059 18,14.7121324 C18,15.0220588 17.8819853,15.3308824 17.6459559,15.5680147 C17.1738971,16.0400735 16.4073529,16.0400735 15.9352941,15.5680147 C15.4632353,15.0948529 15.4632353,14.3294118 15.9352941,13.85625 M8.82352941,6.02536765 C9.49191176,6.02536765 10.0334559,6.56691176 10.0334559,7.23529412 C10.0334559,7.90367647 9.49191176,8.44522059 8.82352941,8.44522059 C8.15514706,8.44522059 7.61360294,7.90367647 7.61360294,7.23529412 C7.61360294,6.56691176 8.15514706,6.02536765 8.82352941,6.02536765 M7.05882353,12.7058824 C7.64338235,12.7058824 8.11764706,13.1801471 8.11764706,13.7647059 C8.11764706,14.3492647 7.64338235,14.8235294 7.05882353,14.8235294 C6.47426471,14.8235294 6,14.3492647 6,13.7647059 C6,13.1801471 6.47426471,12.7058824 7.05882353,12.7058824" id="pficon-topology"></path>
        </g>
    </g>
</svg>