<svg xmlns="http://www.w3.org/2000/svg" width="54" height="41" viewBox="0 0 54 41">
  <path fill="#151515" fill-rule="evenodd" d="M48.9375,40.5 L5.0625,40.5 C2.26652344,40.5 0,38.2334766 0,35.4375 L0,5.0625 C0,2.26652344 2.26652344,0 5.0625,0 L48.9375,0 C51.7334766,0 54,2.26652344 54,5.0625 L54,35.4375 C54,38.2334766 51.7334766,40.5 48.9375,40.5 Z M11.8125,5.90625 C8.5505625,5.90625 5.90625,8.5505625 5.90625,11.8125 C5.90625,15.0744375 8.5505625,17.71875 11.8125,17.71875 C15.0744375,17.71875 17.71875,15.0744375 17.71875,11.8125 C17.71875,8.5505625 15.0744375,5.90625 11.8125,5.90625 Z M6.75,33.75 L47.25,33.75 L47.25,21.9375 L38.0199023,12.7074023 C37.5256758,12.2131758 36.7243242,12.2131758 36.2299922,12.7074023 L21.9375,27 L16.0824023,21.1449023 C15.5881758,20.6506758 14.7868242,20.6506758 14.2924922,21.1449023 L6.75,28.6875 L6.75,33.75 Z"/>
</svg>
