<svg xmlns="http://www.w3.org/2000/svg" width="54" height="41" viewBox="0 0 54 41">
  <path fill="#151515" fill-rule="evenodd" d="M29.6578125,2.53132297 C27.2478516,0.838549536 24.5636719,-0.00520046356 21.6052734,2.41139808e-05 C17.634375,-0.00520046356 14.240039,1.43093238 11.4222656,4.30847141 C9.29707031,6.48112766 7.97519529,8.99479955 7.45664062,11.849487 L27.421875,27.458862 C27.7341865,27.7019122 28.1524594,27.7598334 28.5190657,27.6107975 C28.8856719,27.4617617 29.1448866,27.1284229 29.1990234,26.7364011 L32.1626953,4.72507297 C31.4117211,3.90314346 30.5715869,3.16736287 29.6578125,2.53132297 M51.6375,22.5756589 C50.0607422,20.5770261 48.0621094,19.2885496 45.6416016,18.7102292 C46.400603,17.5255555 46.79992,16.1462634 46.7912109,14.7393308 C46.7912109,12.6985105 46.0951172,10.9635495 44.6765625,9.52917454 C43.2949219,8.0895261 41.5916016,7.36706516 39.6035156,7.36706516 C37.8263672,7.36706516 36.2865234,7.95769016 34.9787109,9.11784641 L32.0203125,31.1133542 C31.7935547,32.8114011 29.8107422,33.618237 28.4607422,32.5635495 L7.25097656,15.9733152 C5.08359375,17.0069089 3.3328125,18.5748777 1.99863281,20.6772214 C0.666210936,22.7707761 0,25.0822996 0,27.6117917 C0,31.1555417 1.23398437,34.1895261 3.70195313,36.7137448 C6.16464844,39.234448 9.13007811,40.4965574 12.5982422,40.500073 L43.2,40.500073 C46.1794922,40.500073 48.7212891,39.4137448 50.8412109,37.2674558 C52.9558594,35.1053464 54,32.5055417 54,29.4522214 C54,26.868237 53.2125002,24.5760496 51.6375,22.5756589"/>
</svg>
