<svg xmlns="http://www.w3.org/2000/svg" width="54" height="45" viewBox="0 0 54 45">
  <path fill="#151515" fill-rule="evenodd" d="M28.4889706,12.7058824 L28.4889706,19.0588235 L44.4705882,19.0588235 C46.224224,19.0604653 47.6454171,20.4816583 47.6470588,22.2352941 L47.6470588,22.2352941 L47.6470588,28.5882353 L50.8235294,28.5882353 C52.577165,28.589877 53.9983582,30.0110701 54,31.7647059 L54,31.7647059 L54,41.2941176 C53.9983582,43.0477535 52.577165,44.4689465 50.8235294,44.4705882 L50.8235294,44.4705882 L41.2941176,44.4705882 C39.5404818,44.4689465 38.1192888,43.0477535 38.1176471,41.2941176 L38.1176471,41.2941176 L38.1176471,31.7647059 C38.1192888,30.0110701 39.5404818,28.589877 41.2941176,28.5882353 L41.2941176,28.5882353 L44.4705882,28.5882353 L44.4705882,22.2352941 L28.4889706,22.2352941 L28.4889706,28.5882353 L31.7150735,28.5882353 C33.4687093,28.589877 34.8899024,30.0110701 34.8915441,31.7647059 L34.8915441,31.7647059 L34.8915441,41.2941176 C34.8899024,43.0477535 33.4687093,44.4689465 31.7150735,44.4705882 L31.7150735,44.4705882 L22.1856618,44.4705882 C20.432026,44.4689465 19.0108329,43.0477535 19.0091912,41.2941176 L19.0091912,41.2941176 L19.0091912,31.7647059 C19.0108329,30.0110701 20.432026,28.589877 22.1856618,28.5882353 L22.1856618,28.5882353 L25.3125,28.5882353 L25.3125,22.2352941 L9.52941176,22.2352941 L9.52941176,28.5882353 L12.7058824,28.5882353 C14.4595182,28.589877 15.8807112,30.0110701 15.8823529,31.7647059 L15.8823529,31.7647059 L15.8823529,41.2941176 C15.8807112,43.0477535 14.4595182,44.4689465 12.7058824,44.4705882 L12.7058824,44.4705882 L3.17647059,44.4705882 C1.4228348,44.4689465 0.00164172596,43.0477535 0,41.2941176 L0,41.2941176 L0,31.7647059 C0.00164172596,30.0110701 1.4228348,28.589877 3.17647059,28.5882353 L3.17647059,28.5882353 L6.35294118,28.5882353 L6.35294118,22.2352941 C6.35458292,20.4816583 7.77577596,19.0604653 9.52941176,19.0588235 L9.52941176,19.0588235 L25.3125,19.0588235 L25.3125,12.7058824 L28.4889706,12.7058824 Z M50.8235294,0 L50.8235294,9.52941176 L3.17647059,9.52941176 L3.17647059,0 L50.8235294,0 Z M34.9411765,6.35294118 L47.671875,6.35294118 L47.671875,3.17647059 L34.9411765,3.17647059 L34.9411765,6.35294118 Z"/>
</svg>
