<svg xmlns="http://www.w3.org/2000/svg" width="54" height="39" viewBox="0 0 54 39">
  <path fill="#151515" fill-rule="evenodd" d="M51.2404412,14.2295956 C50.2329044,14.2295956 49.4586397,15.0336397 48.9126838,15.8029412 C48.3667279,16.5722426 47.6470588,15.1974265 47.6470588,14.00625 L47.6470588,8.71544118 C47.6514245,8.09011999 47.4059686,7.48893153 46.965189,7.04535628 C46.5244094,6.60178107 45.9247848,6.35252908 45.2994485,6.35294118 L41.6316176,6.35294118 C40.0235294,6.35294118 39.3783088,5.93602941 40.0384191,5.22132353 C40.8176471,4.38253676 41.3189338,3.67775735 41.3189338,2.77444853 C41.3189338,1.24080882 39.8795956,0 38.0977941,0 C36.3159926,0 34.8766544,1.24080882 34.8766544,2.77444853 C34.8766544,3.78198529 35.2737132,4.35772059 36.0926471,5.146875 C36.8867647,5.91121324 36.1273897,6.35294118 34.6930147,6.35294118 L31.0301471,6.35294118 C29.7079445,6.3470793 28.6233015,7.39865386 28.5882353,8.72040441 L28.5882353,11.3112132 C28.9207721,11.2615809 29.0051471,11.2318015 29.3128676,11.2318015 C32.4397059,11.2318015 34.9808824,14.1055147 34.9808824,17.6542279 C34.9808824,21.2029412 32.4446691,24.0766544 29.3128676,24.0766544 C29.0051471,24.0766544 28.9207721,24.046875 28.5882353,23.9972426 L28.5882353,29.3575368 C28.5882353,30.6628676 29.3625,31.7647059 30.6727941,31.7647059 L34.7426471,31.7647059 C36.3705882,31.7647059 37.0803309,32.0873162 36.3110294,32.9360294 C35.5417279,33.7847426 34.8766544,34.4498162 34.8766544,35.3928309 C34.8766544,36.9016544 36.3159926,38.1176471 38.0977941,38.1176471 C39.8795956,38.1176471 41.3189338,36.8966912 41.3189338,35.3928309 C41.3189338,34.5193015 41.0955882,33.8889706 40.0731618,33.075 C39.0507353,32.2610294 39.9044118,31.7498162 41.5869485,31.7498162 L45.4830882,31.7498162 C46.7884191,31.7498162 47.6470588,30.5933824 47.6470588,29.2880515 L47.6470588,20.7909926 C47.6470588,19.6246324 48.3419118,18.1158088 48.8630515,18.9943015 C49.3841912,19.8727941 50.1981618,20.6569853 51.2404412,20.6569853 C52.7641544,20.6569853 54,19.2176471 54,17.4408088 C54,15.6639706 52.7641544,14.2295956 51.2404412,14.2295956 M32.0327206,17.4408088 C32.0327206,15.6639706 30.8117647,14.2246324 29.2979779,14.2246324 C28.3152574,14.2246324 27.5310662,14.7606618 26.9751838,15.7483456 C26.4193015,16.7360294 25.4117647,15.2371324 25.4117647,13.9566176 L25.4117647,11.8720588 C25.4117647,10.5667279 24.3248162,9.52941176 23.0194853,9.52941176 L18.9148897,9.52941176 C17.1678309,9.52941176 16.7161765,9.27628676 17.5152574,8.23897059 C18.3838235,7.23143382 18.8056985,6.61102941 18.8056985,5.74246324 C18.8056985,4.26838235 17.3663603,3.07720588 15.5845588,3.07720588 C13.8027574,3.07720588 12.3634191,4.26838235 12.3634191,5.74246324 C12.3634191,6.48694853 12.6860294,7.04283088 13.4454044,8.09503676 C14.2047794,9.14724265 13.9417279,9.52941176 12.1152574,9.52941176 L8.76011029,9.52941176 C7.44981618,9.52941176 6.35294118,10.5220588 6.35294118,11.8273897 L6.35294118,13.9119485 C6.35294118,15.0683824 5.92610294,16.4183824 5.08235294,15.7086397 C4.23860294,14.9988971 3.74724265,14.2246324 2.75459559,14.2246324 C1.20606618,14.2295956 0,15.6689338 0,17.4408088 C0,19.2126838 1.20606618,20.6569853 2.76452206,20.6569853 C3.80680147,20.6569853 4.59595588,19.9670956 5.17169118,19.0488971 C5.74742647,18.1306985 6.35294118,19.7238971 6.35294118,20.8356618 L6.35294118,32.4049632 C6.35294118,33.7102941 7.64834559,34.8965074 9.00330882,34.9411765 L11.8025735,34.9411765 C11.4104779,34.2016544 11.2367647,33.3181985 11.2367647,32.5340074 C11.2367647,29.8340074 12.5768382,28.6080882 15.5398897,28.5237132 L15.4852941,28.5237132 C17.6591912,28.4740809 19.4509191,29.7496324 19.4509191,32.5340074 C19.438542,33.367864 19.2455041,34.1891217 18.8851103,34.9411765 L22.9797794,34.9411765 C24.2900735,34.9411765 25.4117647,33.7549632 25.4117647,32.4496324 L25.4117647,20.7909926 C25.4117647,19.5303309 26.4441176,18.0115809 26.9106618,18.9992647 C27.3772059,19.9869485 28.2705882,20.6569853 29.2979779,20.6569853 C30.8117647,20.6569853 32.0327206,19.2176471 32.0327206,17.4408088"/>
</svg>
