<svg xmlns="http://www.w3.org/2000/svg" width="54" height="51" viewBox="0 0 54 51">
  <path fill="#151515" fill-rule="evenodd" d="M53.4251953,14.0735944 C53.0402344,13.6886334 52.5867188,13.4987897 52.0699219,13.4987897 L1.93007813,13.4987897 C1.40273438,13.4987897 0.959765625,13.6886334 0.574804688,14.0735944 C0.18984375,14.4585553 0,14.9120709 0,15.4288678 L0,21.6884381 C0,22.2157819 0.18984375,22.6587506 0.564257812,23.048985 C0.94921875,23.4339459 1.3921875,23.6237897 1.91953125,23.6237897 L52.0699219,23.6237897 C52.5972656,23.6237897 53.0402344,23.4339459 53.4251953,23.048985 C53.8101562,22.6640241 54,22.2210553 54,21.6937116 L54,15.4288678 C54,14.9015241 53.8101562,14.4585553 53.4251953,14.0735944 Z M6.75,20.2487897 L3.375,20.2487897 L3.375,16.8737897 L6.75,16.8737897 L6.75,20.2487897 Z M13.5,20.2487897 L10.125,20.2487897 L10.125,16.8737897 L13.5,16.8737897 L13.5,20.2487897 Z M20.25,20.2487897 L16.875,20.2487897 L16.875,16.8737897 L20.25,16.8737897 L20.25,20.2487897 Z M27,20.2487897 L23.625,20.2487897 L23.625,16.8737897 L27,16.8737897 L27,20.2487897 Z M50.625,20.2487897 L47.25,20.2487897 L47.25,16.8737897 L50.625,16.8737897 L50.625,20.2487897 Z M0,9.55425844 C0,9.06910219 0.06328125,9.00054751 0.50625,8.56812563 C0.50625,8.56812563 7.96763672,1.17582095 8.521875,0.52771548 C9.07611328,-0.120389989 9.78222656,0.0109186051 9.78222656,0.0109186051 L44.3295703,0.0109186051 C44.3295703,0.0109186051 44.9518359,-0.0629095199 45.5155664,0.54880923 C46.0692773,1.16000064 53.4462891,8.56443422 53.4462891,8.56443422 C53.8892578,9.00740297 54,9.07595766 54,9.55584047 C54,10.0620905 53.3830078,10.1253717 52.7712891,10.1253717 L1.16542969,10.1253717 C0.56953125,10.1290631 0,10.0394147 0,9.55425844 Z M53.4251953,41.0735944 C53.0402344,40.6886334 52.5867188,40.4987897 52.0699219,40.4987897 L1.93007813,40.4987897 C1.40273438,40.4987897 0.959765625,40.6886334 0.574804688,41.0735944 C0.18984375,41.4585553 0,41.9120709 0,42.4288678 L0,48.6884381 C0,49.2157819 0.18984375,49.6587507 0.564257812,50.0489851 C0.94921875,50.433946 1.3921875,50.6237897 1.91953125,50.6237897 L52.0699219,50.6237897 C52.5972656,50.6237897 53.0402344,50.433946 53.4251953,50.0489851 C53.8101562,49.6640241 54,49.2210553 54,48.6937116 L54,42.4288678 C54,41.9015241 53.8101562,41.4585553 53.4251953,41.0735944 Z M6.75,47.2487897 L3.375,47.2487897 L3.375,43.8737897 L6.75,43.8737897 L6.75,47.2487897 Z M13.5,47.2487897 L10.125,47.2487897 L10.125,43.8737897 L13.5,43.8737897 L13.5,47.2487897 Z M20.25,47.2487897 L16.875,47.2487897 L16.875,43.8737897 L20.25,43.8737897 L20.25,47.2487897 Z M27,47.2487897 L23.625,47.2487897 L23.625,43.8737897 L27,43.8737897 L27,47.2487897 Z M50.625,47.2487897 L47.25,47.2487897 L47.25,43.8737897 L50.625,43.8737897 L50.625,47.2487897 Z M53.4251953,27.5735944 C53.0402344,27.1886334 52.5867188,26.9987897 52.0699219,26.9987897 L1.93007813,26.9987897 C1.40273438,26.9987897 0.959765625,27.1886334 0.574804688,27.5735944 C0.18984375,27.9585553 0,28.4120709 0,28.9288678 L0,35.1884381 C0,35.7157819 0.18984375,36.1587506 0.564257812,36.548985 C0.94921875,36.9339459 1.3921875,37.1237897 1.91953125,37.1237897 L52.0699219,37.1237897 C52.5972656,37.1237897 53.0402344,36.9339459 53.4251953,36.548985 C53.8101562,36.1640241 54,35.7210553 54,35.1937116 L54,28.9288678 C54,28.4015241 53.8101562,27.9585553 53.4251953,27.5735944 Z M6.75,33.7487897 L3.375,33.7487897 L3.375,30.3737897 L6.75,30.3737897 L6.75,33.7487897 Z M13.5,33.7487897 L10.125,33.7487897 L10.125,30.3737897 L13.5,30.3737897 L13.5,33.7487897 Z M20.25,33.7487897 L16.875,33.7487897 L16.875,30.3737897 L20.25,30.3737897 L20.25,33.7487897 Z M27,33.7487897 L23.625,33.7487897 L23.625,30.3737897 L27,30.3737897 L27,33.7487897 Z M50.625,33.7487897 L47.25,33.7487897 L47.25,30.3737897 L50.625,30.3737897 L50.625,33.7487897 Z"/>
</svg>
