<svg xmlns="http://www.w3.org/2000/svg" width="54" height="54" viewBox="0 0 54 54">
  <path fill="#151515" fill-rule="evenodd" d="M30.9890962,52.5171325 L52.5171325,30.9890962 C54.4940488,29.0120768 54.4940488,25.8066172 52.5171325,23.8297009 L30.1701704,1.48273877 C29.3517595,0.664327945 27.7479998,0 26.5905242,0 L5.06248793,0 C2.26654275,0 0,2.26654275 0,5.06248793 L0,26.5905242 C0,27.7479998 0.664327945,29.3517595 1.48273877,30.1701704 L23.8297009,52.5171325 C25.8066172,54.4940488 29.0120768,54.4940488 30.9890962,52.5171325 Z M11.8124718,16.8749598 C9.01652666,16.8749598 6.74998391,14.608417 6.74998391,11.8124718 C6.74998391,9.01652666 9.01652666,6.74998391 11.8124718,6.74998391 C14.608417,6.74998391 16.8749598,9.01652666 16.8749598,11.8124718 C16.8749598,14.608417 14.608417,16.8749598 11.8124718,16.8749598 Z"/>
</svg>
