<?xml version="1.0" encoding="UTF-8"?><svg version="1.1" width="305px" height="360px" viewBox="0 0 305.0 360.0" xmlns="http://www.w3.org/2000/svg" xmlns:xlink="http://www.w3.org/1999/xlink"><defs><filter id="i0" x="-26.6666667%" y="-26.6666667%" filterUnits="userSpaceOnUse" width="135.555556%" height="135.555556%"><feGaussianBlur stdDeviation="2" in="SourceAlpha" result="i1"></feGaussianBlur><feOffset dx="0" dy="0" in="i1" result="i2"></feOffset><feColorMatrix values="0 0 0 0.0 0 0 0 0 0.2404963374137876 0 0 0 0 0.5409895777702332 0 0 0 0 1.0 0" type="matrix" in="i2"></feColorMatrix></filter><clipPath id="i3"><path d="M18.5,0 C28.7172679,0 37,8.28273213 37,18.5 C37,28.7172679 28.7172679,37 18.5,37 C8.28273213,37 0,28.7172679 0,18.5 C0,8.28273213 8.28273213,0 18.5,0 Z"></path></clipPath><clipPath id="i4"><path d="M269,0 L269,1 L0,1 L0,0 L269,0 Z"></path></clipPath><clipPath id="i5"><path d="M4.46992344,0.22032113 C4.76365443,-0.0734403767 5.2386594,-0.0734403767 5.5292776,0.22032113 L6.23554423,0.926557239 C6.52927522,1.22031875 6.52927522,1.69532372 6.23554423,1.98594192 L3.22618251,5.00155973 L6.23865701,8.01406476 C6.53241852,8.30779574 6.53241852,8.78280072 6.23865701,9.07341892 L5.5324209,9.78279833 C5.2386594,10.0765598 4.76365443,10.0765598 4.47303622,9.78279833 L0.223046355,5.53280846 C-0.0738279369,5.23904696 -0.0738279369,4.7640725 0.21993357,4.470311 Z"></path></clipPath><clipPath id="i6"><path d="M0.923421565,0.22032113 C1.21718307,-0.0734403767 1.69218804,-0.0734403767 1.98280625,0.22032113 L6.23279611,4.470311 C6.52967041,4.7640725 6.52967041,5.23904696 6.2359089,5.53280846 L1.98591903,9.78279833 C1.69218804,10.0765598 1.21718307,10.0765598 0.926564869,9.78279833 L0.220298242,9.07656222 C-0.0734327473,8.78280072 -0.0734327473,8.30779574 0.220298242,8.01717754 L3.23280327,5.00467252 L0.220298242,1.99219801 C-0.0734327473,1.6984365 -0.0734327473,1.22343153 0.220298242,0.932813328 Z"></path></clipPath><clipPath id="i7"><path d="M140,0 L140,36 L0,36 L0,0 L140,0 Z"></path></clipPath><clipPath id="i8"><path d="M8.66574605,0 C9.22201914,0 9.50012517,0.671873398 9.10638831,1.06561025 L5.08762958,5.08748177 C4.84388627,5.33122508 4.44700611,5.33122508 4.2032628,5.08748177 L0.184534585,1.06561025 C-0.209232787,0.671873398 0.0689037567,0 0.625146327,0 Z"></path></clipPath><clipPath id="i9"><path d="M70,0 L70,36 L0,36 L0,0 L70,0 Z"></path></clipPath></defs><g transform="translate(16.0 67.0)"><g transform="translate(0.0 43.0)"><g transform="translate(15.0 9.0)"><text transform="translate(0.0 14.0)" font-family="RedHatText-Regular, Red Hat Text" font-size="14.0" font-weight="normal" fill="#696E73" text-anchor="left" line-spacing="21.0">29</text></g></g><g transform="translate(39.0 43.0)"><g transform="translate(15.0 9.0)"><text transform="translate(0.0 14.0)" font-family="RedHatText-Regular, Red Hat Text" font-size="14.0" font-weight="normal" fill="#696E73" text-anchor="left" line-spacing="21.0">30</text></g></g><g transform="translate(78.0 43.0)"><g transform="translate(17.0 9.0)"><text transform="translate(0.351 14.0)" font-family="RedHatText-Regular, Red Hat Text" font-size="14.0" font-weight="normal" fill="#141514" text-anchor="center" line-spacing="21.0">1</text></g></g><g transform="translate(117.0 43.0)"><g transform="translate(15.5 9.0)"><text transform="translate(0.1639999999999997 14.0)" font-family="RedHatText-Regular, Red Hat Text" font-size="14.0" font-weight="normal" fill="#141514" text-anchor="center" line-spacing="21.0">2</text></g></g><g transform="translate(156.0 43.0)"><g transform="translate(15.0 9.0)"><text transform="translate(0.3979999999999997 14.0)" font-family="RedHatText-Regular, Red Hat Text" font-size="14.0" font-weight="normal" fill="#141514" text-anchor="center" line-spacing="21.0">3</text></g></g><g transform="translate(195.0 43.0)"><g transform="translate(15.0 9.0)"><text transform="translate(0.1739999999999995 14.0)" font-family="RedHatText-Regular, Red Hat Text" font-size="14.0" font-weight="normal" fill="#141514" text-anchor="center" line-spacing="21.0">4</text></g></g><g transform="translate(234.0 43.0)"><g transform="translate(1.0 1.0)"><path d="M18.5,37 C28.7172679,37 37,28.7172679 37,18.5 C37,8.28273213 28.7172679,0 18.5,0 C8.28273213,0 0,8.28273213 0,18.5 C0,28.7172679 8.28273213,37 18.5,37 Z" stroke="none" fill="#000000" filter="url(#i0)"></path><g clip-path="url(#i3)"><polygon points="0,0 37,0 37,37 0,37 0,0" stroke="none" fill="#003F80"></polygon></g></g><g transform="translate(15.5 9.0)"><text transform="translate(0.009999999999999787 14.0)" font-family="RedHatText-Regular, Red Hat Text" font-size="14.0" font-weight="normal" fill="#FFFFFF" text-anchor="center" line-spacing="21.0">5</text></g></g><g transform="translate(0.0 82.5)"><g transform="translate(15.0 9.0)"><text transform="translate(0.16699999999999982 14.0)" font-family="RedHatText-Regular, Red Hat Text" font-size="14.0" font-weight="normal" fill="#141514" text-anchor="center" line-spacing="21.0">6</text></g></g><g transform="translate(39.0 82.5)"><g transform="translate(15.5 9.0)"><text transform="translate(0.09399999999999986 14.0)" font-family="RedHatText-Regular, Red Hat Text" font-size="14.0" font-weight="normal" fill="#141514" text-anchor="center" line-spacing="21.0">7</text></g></g><g transform="translate(78.0 82.5)"><g transform="translate(15.0 9.0)"><text transform="translate(0.20199999999999996 14.0)" font-family="RedHatText-Regular, Red Hat Text" font-size="14.0" font-weight="normal" fill="#141514" text-anchor="center" line-spacing="21.0">8</text></g></g><g transform="translate(117.0 82.5)"><g transform="translate(1.0 1.0)"><g clip-path="url(#i3)"><polygon points="0,0 37,0 37,37 0,37 0,0" stroke="none" fill="#F0F0F0"></polygon></g></g><g transform="translate(15.0 9.0)"><text transform="translate(0.16699999999999982 14.0)" font-family="RedHatText-Regular, Red Hat Text" font-size="14.0" font-weight="normal" fill="#141514" text-anchor="center" line-spacing="21.0">9</text></g></g><g transform="translate(156.0 82.5)"><g transform="translate(12.5 9.0)"><text transform="translate(0.23099999999999987 14.0)" font-family="RedHatText-Regular, Red Hat Text" font-size="14.0" font-weight="normal" fill="#141514" text-anchor="center" line-spacing="21.0">10</text></g></g><g transform="translate(195.0 82.5)"><g transform="translate(15.0 9.0)"><text transform="translate(0.20199999999999996 14.0)" font-family="RedHatText-Regular, Red Hat Text" font-size="14.0" font-weight="normal" fill="#141514" text-anchor="center" line-spacing="21.0">11</text></g></g><g transform="translate(234.0 82.5)"><g transform="translate(13.5 9.0)"><text transform="translate(0.01499999999999968 14.0)" font-family="RedHatText-Regular, Red Hat Text" font-size="14.0" font-weight="normal" fill="#141514" text-anchor="center" line-spacing="21.0">12</text></g></g><g transform="translate(0.0 121.5)"><g transform="translate(13.0 9.0)"><text transform="translate(0.24899999999999967 14.0)" font-family="RedHatText-Regular, Red Hat Text" font-size="14.0" font-weight="normal" fill="#141514" text-anchor="center" line-spacing="21.0">13</text></g></g><g transform="translate(39.0 121.5)"><g transform="translate(13.0 9.0)"><text transform="translate(0.024999999999999467 14.0)" font-family="RedHatText-Regular, Red Hat Text" font-size="14.0" font-weight="normal" fill="#141514" text-anchor="center" line-spacing="21.0">14</text></g></g><g transform="translate(78.0 121.5)"><g transform="translate(13.0 9.0)"><text transform="translate(0.36099999999999977 14.0)" font-family="RedHatText-Regular, Red Hat Text" font-size="14.0" font-weight="normal" fill="#141514" text-anchor="center" line-spacing="21.0">15</text></g></g><g transform="translate(117.0 121.5)"><g transform="translate(13.0 9.0)"><text transform="translate(0.017999999999999794 14.0)" font-family="RedHatText-Regular, Red Hat Text" font-size="14.0" font-weight="normal" fill="#141514" text-anchor="center" line-spacing="21.0">16</text></g></g><g transform="translate(156.0 121.5)"><g transform="translate(13.0 9.0)"><text transform="translate(0.4450000000000003 14.0)" font-family="RedHatText-Regular, Red Hat Text" font-size="14.0" font-weight="normal" fill="#141514" text-anchor="center" line-spacing="21.0">17</text></g></g><g transform="translate(195.0 121.5)"><g transform="translate(13.0 9.0)"><text transform="translate(0.052999999999999936 14.0)" font-family="RedHatText-Regular, Red Hat Text" font-size="14.0" font-weight="normal" fill="#141514" text-anchor="center" line-spacing="21.0">18</text></g></g><g transform="translate(234.0 121.5)"><g transform="translate(13.0 9.0)"><text transform="translate(0.017999999999999794 14.0)" font-family="RedHatText-Regular, Red Hat Text" font-size="14.0" font-weight="normal" fill="#141514" text-anchor="center" line-spacing="21.0">19</text></g></g><g transform="translate(7.105427357601002e-15 160.5)"><g transform="translate(1.0 1.0)"><g clip-path="url(#i3)"><polygon points="0,0 37,0 37,37 0,37 0,0" stroke="none" fill="#0066CC"></polygon></g></g><g transform="translate(11.0 9.0)"><text transform="translate(0.04400000000000048 14.0)" font-family="RedHatText-Regular, Red Hat Text" font-size="14.0" font-weight="normal" fill="#FFFFFF" text-anchor="center" line-spacing="21.0">20</text></g></g><g transform="translate(39.0 160.5)"><g transform="translate(13.5 9.0)"><text transform="translate(0.01499999999999968 14.0)" font-family="RedHatText-Regular, Red Hat Text" font-size="14.0" font-weight="normal" fill="#141514" text-anchor="center" line-spacing="21.0">21</text></g></g><g transform="translate(78.0 160.5)"><g transform="translate(11.5 9.0)"><text transform="translate(0.3279999999999994 14.0)" font-family="RedHatText-Regular, Red Hat Text" font-size="14.0" font-weight="normal" fill="#141514" text-anchor="center" line-spacing="21.0">22</text></g></g><g transform="translate(117.0 160.5)"><g transform="translate(11.5 9.0)"><text transform="translate(0.06199999999999939 14.0)" font-family="RedHatText-Regular, Red Hat Text" font-size="14.0" font-weight="normal" fill="#141514" text-anchor="center" line-spacing="21.0">23</text></g></g><g transform="translate(156.0 160.5)"><g transform="translate(11.0 9.0)"><text transform="translate(0.3379999999999992 14.0)" font-family="RedHatText-Regular, Red Hat Text" font-size="14.0" font-weight="normal" fill="#141514" text-anchor="center" line-spacing="21.0">24</text></g></g><g transform="translate(195.0 160.5)"><g transform="translate(11.5 9.0)"><text transform="translate(0.1739999999999995 14.0)" font-family="RedHatText-Regular, Red Hat Text" font-size="14.0" font-weight="normal" fill="#141514" text-anchor="center" line-spacing="21.0">25</text></g></g><g transform="translate(234.0 160.5)"><g transform="translate(1.0 1.0)"><g clip-path="url(#i3)"><polygon points="0,0 37,0 37,37 0,37 0,0" stroke="none" fill="rgba(190, 225, 243, 0.5)"></polygon></g></g><g transform="translate(11.0 9.0)"><text transform="translate(0.3309999999999995 14.0)" font-family="RedHatText-Regular, Red Hat Text" font-size="14.0" font-weight="normal" fill="#141514" text-anchor="center" line-spacing="21.0">26</text></g></g><g transform="translate(7.105427357601002e-15 199.5)"><g transform="translate(11.5 9.0)"><text transform="translate(0.2579999999999991 14.0)" font-family="RedHatText-Regular, Red Hat Text" font-size="14.0" font-weight="normal" fill="#141514" text-anchor="center" line-spacing="21.0">27</text></g></g><g transform="translate(39.0 199.5)"><g transform="translate(11.0 9.0)"><text transform="translate(0.36599999999999966 14.0)" font-family="RedHatText-Regular, Red Hat Text" font-size="14.0" font-weight="normal" fill="#141514" text-anchor="center" line-spacing="21.0">28</text></g></g><g transform="translate(78.0 199.5)"><g transform="translate(11.0 9.0)"><text transform="translate(0.3309999999999995 14.0)" font-family="RedHatText-Regular, Red Hat Text" font-size="14.0" font-weight="normal" fill="#141514" text-anchor="center" line-spacing="21.0">29</text></g></g><g transform="translate(117.0 199.5)"><g transform="translate(1.0 1.0)"><g clip-path="url(#i3)"><polygon points="0,0 37,0 37,37 0,37 0,0" stroke="none" fill="rgba(190, 225, 243, 0.5)"></polygon></g><path d="M18.5,37 C28.7172679,37 37,28.7172679 37,18.5 C37,8.28273213 28.7172679,0 18.5,0 C8.28273213,0 0,8.28273213 0,18.5 C0,28.7172679 8.28273213,37 18.5,37 Z" stroke="#0066CC" stroke-width="2" fill="none" stroke-miterlimit="10"></path></g><g transform="translate(10.5 9.0)"><text transform="translate(0.2779999999999987 14.0)" font-family="RedHatText-Regular, Red Hat Text" font-size="14.0" font-weight="normal" fill="#141514" text-anchor="center" line-spacing="21.0">30</text></g></g><g transform="translate(156.0 199.5)"><g transform="translate(13.0 9.0)"><text transform="translate(0.24899999999999967 14.0)" font-family="RedHatText-Regular, Red Hat Text" font-size="14.0" font-weight="normal" fill="#141514" text-anchor="center" line-spacing="21.0">31</text></g></g><g transform="translate(195.0 199.5)"><g transform="translate(15.0 9.0)"><text transform="translate(0.0 14.0)" font-family="RedHatText-Regular, Red Hat Text" font-size="14.0" font-weight="normal" fill="#696E73" text-anchor="left" line-spacing="21.0">1</text></g></g><g transform="translate(234.0 199.5)"><g transform="translate(15.0 9.0)"><text transform="translate(0.0 14.0)" font-family="RedHatText-Regular, Red Hat Text" font-size="14.0" font-weight="normal" fill="#696E73" text-anchor="left" line-spacing="21.0">2</text></g></g><g transform="translate(0.0 238.0)"><g transform="translate(15.0 9.0)"><text transform="translate(0.0 14.0)" font-family="RedHatText-Regular, Red Hat Text" font-size="14.0" font-weight="normal" fill="#696E73" text-anchor="left" line-spacing="21.0">3</text></g></g><g transform="translate(39.0 238.0)"><g transform="translate(15.0 9.0)"><text transform="translate(0.0 14.0)" font-family="RedHatText-Regular, Red Hat Text" font-size="14.0" font-weight="normal" fill="#696E73" text-anchor="left" line-spacing="21.0">4</text></g></g><g transform="translate(78.0 238.0)"><g transform="translate(15.0 9.0)"><text transform="translate(0.0 14.0)" font-family="RedHatText-Regular, Red Hat Text" font-size="14.0" font-weight="normal" fill="#696E73" text-anchor="left" line-spacing="21.0">5</text></g></g><g transform="translate(117.0 238.0)"><g transform="translate(15.0 9.0)"><text transform="translate(0.0 14.0)" font-family="RedHatText-Regular, Red Hat Text" font-size="14.0" font-weight="normal" fill="#696E73" text-anchor="left" line-spacing="21.0">6</text></g></g><g transform="translate(156.0 238.0)"><g transform="translate(15.0 9.0)"><text transform="translate(0.0 14.0)" font-family="RedHatText-Regular, Red Hat Text" font-size="14.0" font-weight="normal" fill="#696E73" text-anchor="left" line-spacing="21.0">7</text></g></g><g transform="translate(195.0 238.0)"><g transform="translate(15.0 9.0)"><text transform="translate(0.0 14.0)" font-family="RedHatText-Regular, Red Hat Text" font-size="14.0" font-weight="normal" fill="#696E73" text-anchor="left" line-spacing="21.0">8</text></g></g><g transform="translate(234.0 238.0)"><g transform="translate(15.0 9.0)"><text transform="translate(0.0 14.0)" font-family="RedHatText-Regular, Red Hat Text" font-size="14.0" font-weight="normal" fill="#696E73" text-anchor="left" line-spacing="21.0">9</text></g></g><g transform="translate(2.0 34.0)"><g clip-path="url(#i4)"><polygon points="0,0 269,0 269,1 0,1 0,0" stroke="none" fill="#FFFFFF"></polygon><polygon points="0,0 269,0 269,1 0,1 0,0 0,0" stroke="#D2D2D2" stroke-width="2" fill="none" stroke-miterlimit="5"></polygon></g></g><g transform="translate(17.5 0.0)"><text transform="translate(0.0 12.0)" font-family="RedHatText-Regular, Red Hat Text" font-size="12.0" font-weight="normal" fill="#151515" text-anchor="left" line-spacing="18.0">S</text></g><g transform="translate(57.0 0.0)"><text transform="translate(0.0 12.0)" font-family="RedHatText-Regular, Red Hat Text" font-size="12.0" font-weight="normal" fill="#151515" text-anchor="left" line-spacing="18.0">M</text></g><g transform="translate(92.5 0.0)"><text transform="translate(0.0 12.0)" font-family="RedHatText-Regular, Red Hat Text" font-size="12.0" font-weight="normal" fill="#151515" text-anchor="left" line-spacing="18.0">T</text></g><g transform="translate(129.5 0.0)"><text transform="translate(0.0 12.0)" font-family="RedHatText-Regular, Red Hat Text" font-size="12.0" font-weight="normal" fill="#151515" text-anchor="left" line-spacing="18.0">W</text></g><g transform="translate(170.5 0.0)"><text transform="translate(0.0 12.0)" font-family="RedHatText-Regular, Red Hat Text" font-size="12.0" font-weight="normal" fill="#151515" text-anchor="left" line-spacing="18.0">T</text></g><g transform="translate(210.5 0.0)"><text transform="translate(0.0 12.0)" font-family="RedHatText-Regular, Red Hat Text" font-size="12.0" font-weight="normal" fill="#151515" text-anchor="left" line-spacing="18.0">F</text></g><g transform="translate(249.0 0.0)"><text transform="translate(0.0 12.0)" font-family="RedHatText-Regular, Red Hat Text" font-size="12.0" font-weight="normal" fill="#151515" text-anchor="left" line-spacing="18.0">S</text></g></g><g transform="translate(16.0 16.0)"><g transform="translate(0.0 6.0)"><g transform="translate(9.0 6.999999999999999)"><g clip-path="url(#i5)"><polygon points="4.22994972e-14,-2.77555756e-17 6.45897814,-2.77555756e-17 6.45897814,10.0031195 4.22994972e-14,10.0031195 4.22994972e-14,-2.77555756e-17" stroke="none" fill="#696E73"></polygon></g></g></g><g transform="translate(249.0 6.0)"><g transform="translate(9.0 6.999999999999999)"><g clip-path="url(#i6)"><polygon points="-2.77555756e-17,-2.77555756e-17 6.45584247,-2.77555756e-17 6.45584247,10.0031195 -2.77555756e-17,10.0031195 -2.77555756e-17,-2.77555756e-17" stroke="none" fill="#696E73"></polygon></g></g></g><g transform="translate(32.0 0.0)"><g clip-path="url(#i7)"><polygon points="0,0 140,0 140,36 0,36 0,0" stroke="none" fill="#FFFFFF"></polygon><g transform="translate(-1.0 0.0)"><polygon points="141,0 141,36 140,36 140,0 141,0 141,0" stroke="none" fill="#F0F0F0"></polygon></g><g transform="translate(0.0 1.0)"><polygon points="140,0 0,0 0,-1 140,-1 140,0 140,0" stroke="none" fill="#F0F0F0"></polygon></g><g transform="translate(1.0 0.0)"><polygon points="0,0 0,36 -1,36 -1,0 0,0 0,0" stroke="none" fill="#F0F0F0"></polygon></g><g transform="translate(0.0 -1.0)"><polygon points="140,36 140,37 0,37 0,36 140,36 140,36" stroke="none" fill="#8A8D90"></polygon></g></g><g transform="translate(108.0 6.0)"><g transform="translate(7.0 9.0)"><g clip-path="url(#i8)"><polygon points="5.04041253e-14,0 9.29090831,0 9.29090831,5.27028925 5.04041253e-14,5.27028925 5.04041253e-14,0" stroke="none" fill="#151515"></polygon></g></g></g><g transform="translate(8.0 6.0)"><text transform="translate(0.0 16.0)" font-family="RedHatText-Regular, Red Hat Text" font-size="16.0" font-weight="normal" fill="#151515" text-anchor="left" line-spacing="24.0">March</text></g></g><g transform="translate(171.0 0.0)"><g clip-path="url(#i9)"><polygon points="0,0 70,0 70,36 0,36 0,0" stroke="none" fill="#FFFFFF"></polygon><g transform="translate(-1.0 0.0)"><polygon points="71,0 71,36 70,36 70,0 71,0 71,0" stroke="none" fill="#F0F0F0"></polygon></g><g transform="translate(0.0 1.0)"><polygon points="70,0 0,0 0,-1 70,-1 70,0 70,0" stroke="none" fill="#F0F0F0"></polygon></g><g transform="translate(1.0 0.0)"><polygon points="0,0 0,36 -1,36 -1,0 0,0 0,0" stroke="none" fill="#F0F0F0"></polygon></g><g transform="translate(0.0 -1.0)"><polygon points="70,36 70,37 0,37 0,36 70,36 70,36" stroke="none" fill="#8A8D90"></polygon></g></g><g transform="translate(8.0 6.0)"><text transform="translate(0.0 16.0)" font-family="RedHatText-Regular, Red Hat Text" font-size="16.0" font-weight="normal" fill="#151515" text-anchor="left" line-spacing="24.0">2022</text></g></g></g></svg>