<?xml version="1.0" encoding="UTF-8"?>
<svg width="242px" height="36px" viewBox="0 0 242 36" version="1.1" xmlns="http://www.w3.org/2000/svg" xmlns:xlink="http://www.w3.org/1999/xlink">
    <title></title>
    <g id="Context-selector" stroke="none" stroke-width="1" fill="none" fill-rule="evenodd">
        <g id="Context-selector-/-Navigation-/-5.-Disabled">
            <rect id="Background" fill="#6A6E73" x="0" y="0" width="242" height="36"></rect>
            <g id="Icons-/-Small-/-caret-down" transform="translate(210.000000, 6.000000)" fill="#F0F0F0">
                <path d="M12.0876296,14.0874818 L16.1063883,10.0656103 C16.5001252,9.6718734 16.2220191,9 15.6657461,9 L7.62514633,9 C7.06890376,9 6.79076721,9.6718734 7.18453458,10.0656103 L11.2032628,14.0874818 C11.4470061,14.3312251 11.8438863,14.3312251 12.0876296,14.0874818 Z" id="caret-down"></path>
            </g>
            <text id="âœï¸-Label" font-family="RedHatText-Regular, Red Hat Text" font-size="16" font-weight="normal" line-spacing="24" fill="#F0F0F0">
                <tspan x="8" y="22">Context</tspan>
            </text>
            <g id="ðŸ“-Padding" transform="translate(-24.000000, -8.000000)" fill-opacity="0.9">
                <g id="Spacer-/-Horizontal-/-2.-pf-global--spacer--sm-(8px)" transform="translate(24.000000, 8.000000)" fill="#92D400" stroke="#7FB300">
                    <rect id="Rectangle-Copy" x="0.5" y="0.5" width="7" height="35"></rect>
                </g>
                <g id="Spacer-/-Horizontal-/-2.-pf-global--spacer--sm-(8px)" transform="translate(258.000000, 8.000000)" fill="#92D400" stroke="#7FB300">
                    <rect id="Rectangle-Copy" x="0.5" y="0.5" width="7" height="35"></rect>
                </g>
                <g id="Spacer-/-Vertical-/-8.-pf-global--spacer--form-element-(6px)" transform="translate(32.000000, 8.000000)" fill="#F3D53C" stroke="#CBB534">
                    <rect id="Rectangle" x="0.5" y="0.5" width="225" height="5"></rect>
                </g>
                <g id="Spacer-/-Vertical-/-8.-pf-global--spacer--form-element-(6px)" transform="translate(32.000000, 38.000000)" fill="#F3D53C" stroke="#CBB534">
                    <rect id="Rectangle" x="0.5" y="0.5" width="225" height="5"></rect>
                </g>
                <g id="Spacer-/-Horizontal-/-2.-pf-global--spacer--sm-(8px)" transform="translate(226.000000, 14.000000)" fill="#92D400" stroke="#7FB300">
                    <rect id="Rectangle-Copy" x="0.5" y="0.5" width="7" height="23"></rect>
                </g>
            </g>
        </g>
    </g>
</svg>