<?xml version="1.0" encoding="UTF-8"?>
<svg width="54px" height="55px" viewBox="0 0 54 55" version="1.1" xmlns="http://www.w3.org/2000/svg" xmlns:xlink="http://www.w3.org/1999/xlink">
    <title></title>
    <g id="Icons" stroke="none" stroke-width="1" fill="none" fill-rule="evenodd">
        <g id="Icons/4.-Size-xl-(54px)/Object/cube" fill="#151515">
            <path d="M29.2570027,53.5298775 L51.1944504,42.5611536 C52.9135663,41.7069 53.9893656,39.9455555 53.9893656,38.0366168 L53.9893656,14.295596 C53.9893656,12.1862261 52.681515,10.2984017 50.7092335,9.56012224 L28.7717858,1.33357935 C27.6327466,0.890591061 26.3671246,0.890591061 25.2174768,1.32297071 L3.28002911,9.54951359 C1.30785058,10.2877931 0,12.1862261 0,14.295596 L0,38.0366168 C0,39.9560611 1.08630494,41.7069 2.79491521,42.5611536 L24.7323629,53.5298775 C26.1561876,54.2470427 27.833178,54.2470427 29.2570027,53.5298775 Z M26.9999356,23.8088752 L6.74998391,15.5823323 L6.74998391,15.4663582 L26.9999356,7.87262626 L47.2498873,15.4663582 L47.2498873,15.5823323 L26.9999356,23.8088752 Z M30.3749276,45.4194117 L30.3749276,29.7151111 L47.2498873,22.8596587 L47.2498873,36.9819319 L30.3749276,45.4194117 Z" id="cube"></path>
        </g>
    </g>
</svg>