<?xml version="1.0" encoding="UTF-8"?>
<svg width="48px" height="55px" viewBox="0 0 48 55" version="1.1" xmlns="http://www.w3.org/2000/svg" xmlns:xlink="http://www.w3.org/1999/xlink">
    <title></title>
    <g id="Icons" stroke="none" stroke-width="1" fill="none" fill-rule="evenodd">
        <g id="Icons/4.-Size-xl-(54px)/Object/database" fill="#151515">
            <path d="M23.6249437,21.2499517 C36.6679157,21.2499517 47.2498873,17.7845288 47.2498873,13.5357138 L47.2498873,8.71423789 C47.2498873,4.46542295 36.6679157,1 23.6249437,1 C10.5819717,1 3.55271368e-15,4.46542295 3.55271368e-15,8.71423789 L3.55271368e-15,13.5357138 C3.55271368e-15,17.7845288 10.5819717,21.2499517 23.6249437,21.2499517 Z M23.6249437,38.1249115 C36.6679157,38.1249115 47.2498873,34.6594885 47.2498873,30.4106736 L47.2498873,19.5624557 C42.1741129,23.0579537 32.8842333,24.6852997 23.6249437,24.6852997 C14.3656541,24.6852997 5.07567149,23.0579537 3.55271368e-15,19.5624557 L3.55271368e-15,30.4106736 C3.55271368e-15,34.6594885 10.5819717,38.1249115 23.6249437,38.1249115 Z M23.6249437,54.9998713 C36.6679157,54.9998713 47.2498873,51.5344483 47.2498873,47.2856334 L47.2498873,36.4374155 C42.1741129,39.9329135 32.8842333,41.5602594 23.6249437,41.5602594 C14.3656541,41.5602594 5.07567149,39.9329135 3.55271368e-15,36.4374155 L3.55271368e-15,47.2856334 C3.55271368e-15,51.5344483 10.5819717,54.9998713 23.6249437,54.9998713 Z" id="database"></path>
        </g>
    </g>
</svg>