<?xml version="1.0" encoding="UTF-8"?>
<svg width="55px" height="55px" viewBox="0 0 55 55" version="1.1" xmlns="http://www.w3.org/2000/svg" xmlns:xlink="http://www.w3.org/1999/xlink">
    <title></title>
    <g id="Icons" stroke="none" stroke-width="1" fill="none" fill-rule="evenodd">
        <g id="Icons/4.-Size-xl-(54px)/Object/microchip" fill="#151515">
            <path d="M39.8124075,54.9998713 C42.6083526,54.9998713 44.8748954,52.7333285 44.8748954,49.9373833 L44.8748954,6.06248793 C44.8748954,3.26654275 42.6083526,1 39.8124075,1 L16.1874638,1 C13.3915186,1 11.1249759,3.26654275 11.1249759,6.06248793 L11.1249759,49.9373833 C11.1249759,52.7333285 13.3915186,54.9998713 16.1874638,54.9998713 L39.8124075,54.9998713 Z M51.8358163,15.3437158 C52.1850777,15.3437158 52.4686273,15.0601662 52.4686273,14.7109048 L52.4686273,14.0780938 L54.3670603,14.0780938 C54.7163217,14.0780938 54.9998713,13.7945442 54.9998713,13.4452828 L54.9998713,12.1796608 C54.9998713,11.8303994 54.7163217,11.5468499 54.3670603,11.5468499 L52.4686273,11.5468499 L52.4686273,10.9140389 C52.4686273,10.5647775 52.1850777,10.2812279 51.8358163,10.2812279 L47.4061394,10.2812279 L47.4061394,15.3437158 L51.8358163,15.3437158 Z M8.5937319,15.3437158 L8.5937319,10.2812279 L4.16405496,10.2812279 C3.81479355,10.2812279 3.53124397,10.5647775 3.53124397,10.9140389 L3.53124397,11.5468499 L1.63281099,11.5468499 C1.28354959,11.5468499 1,11.8303994 1,12.1796608 L1,13.4452828 C1,13.7945442 1.28354959,14.0780938 1.63281099,14.0780938 L3.53124397,14.0780938 L3.53124397,14.7109048 C3.53124397,15.0601662 3.81479355,15.3437158 4.16405496,15.3437158 L8.5937319,15.3437158 Z M51.8358163,25.4686917 C52.1850777,25.4686917 52.4686273,25.1851421 52.4686273,24.8358807 L52.4686273,24.2030697 L54.3670603,24.2030697 C54.7163217,24.2030697 54.9998713,23.9195201 54.9998713,23.5702587 L54.9998713,22.3046367 C54.9998713,21.9553753 54.7163217,21.6718257 54.3670603,21.6718257 L52.4686273,21.6718257 L52.4686273,21.0390147 C52.4686273,20.6897533 52.1850777,20.4062037 51.8358163,20.4062037 L47.4061394,20.4062037 L47.4061394,25.4686917 L51.8358163,25.4686917 Z M8.5937319,25.4686917 L8.5937319,20.4062037 L4.16405496,20.4062037 C3.81479355,20.4062037 3.53124397,20.6897533 3.53124397,21.0390147 L3.53124397,21.6718257 L1.63281099,21.6718257 C1.28354959,21.6718257 1,21.9553753 1,22.3046367 L1,23.5702587 C1,23.9195201 1.28354959,24.2030697 1.63281099,24.2030697 L3.53124397,24.2030697 L3.53124397,24.8358807 C3.53124397,25.1851421 3.81479355,25.4686917 4.16405496,25.4686917 L8.5937319,25.4686917 Z M51.8358163,35.5936675 C52.1850777,35.5936675 52.4686273,35.3101179 52.4686273,34.9608565 L52.4686273,34.3280455 L54.3670603,34.3280455 C54.7163217,34.3280455 54.9998713,34.044496 54.9998713,33.6952345 L54.9998713,32.4296126 C54.9998713,32.0803512 54.7163217,31.7968016 54.3670603,31.7968016 L52.4686273,31.7968016 L52.4686273,31.1639906 C52.4686273,30.8147292 52.1850777,30.5311796 51.8358163,30.5311796 L47.4061394,30.5311796 L47.4061394,35.5936675 L51.8358163,35.5936675 Z M8.5937319,35.5936675 L8.5937319,30.5311796 L4.16405496,30.5311796 C3.81479355,30.5311796 3.53124397,30.8147292 3.53124397,31.1639906 L3.53124397,31.7968016 L1.63281099,31.7968016 C1.28354959,31.7968016 1,32.0803512 1,32.4296126 L1,33.6952345 C1,34.044496 1.28354959,34.3280455 1.63281099,34.3280455 L3.53124397,34.3280455 L3.53124397,34.9608565 C3.53124397,35.3101179 3.81479355,35.5936675 4.16405496,35.5936675 L8.5937319,35.5936675 Z M51.8358163,45.7186434 C52.1850777,45.7186434 52.4686273,45.4350938 52.4686273,45.0858324 L52.4686273,44.4530214 L54.3670603,44.4530214 C54.7163217,44.4530214 54.9998713,44.1694718 54.9998713,43.8202104 L54.9998713,42.5545884 C54.9998713,42.205327 54.7163217,41.9217774 54.3670603,41.9217774 L52.4686273,41.9217774 L52.4686273,41.2889664 C52.4686273,40.939705 52.1850777,40.6561555 51.8358163,40.6561555 L47.4061394,40.6561555 L47.4061394,45.7186434 L51.8358163,45.7186434 Z M8.5937319,45.7186434 L8.5937319,40.6561555 L4.16405496,40.6561555 C3.81479355,40.6561555 3.53124397,40.939705 3.53124397,41.2889664 L3.53124397,41.9217774 L1.63281099,41.9217774 C1.28354959,41.9217774 1,42.205327 1,42.5545884 L1,43.8202104 C1,44.1694718 1.28354959,44.4530214 1.63281099,44.4530214 L3.53124397,44.4530214 L3.53124397,45.0858324 C3.53124397,45.4350938 3.81479355,45.7186434 4.16405496,45.7186434 L8.5937319,45.7186434 Z" id="microchip"></path>
        </g>
    </g>
</svg>