<?xml version="1.0" encoding="UTF-8"?>
<svg width="44px" height="54px" viewBox="0 0 44 54" version="1.1" xmlns="http://www.w3.org/2000/svg" xmlns:xlink="http://www.w3.org/1999/xlink">
    <title></title>
    <g id="Icons" stroke="none" stroke-width="1" fill="none" fill-rule="evenodd">
        <g id="Icons/4.-Size-xl-(54px)/Object/pficon-resource-pool" fill="#151515">
            <path d="M40.5,0 L3.375,0 C1.51347656,0 0,1.51347656 0,3.375 L0,40.5 C0,42.3615234 1.51347656,43.875 3.375,43.875 L3.24316406,54 L40.3681641,54 L40.3681641,43.875 C42.2296875,43.875 43.875,42.3615234 43.875,40.5 L43.875,3.375 C43.875,1.51347656 42.3615234,0 40.5,0 Z M10.125,50.4878906 L6.75,50.4878906 L6.75,43.7378906 L10.125,43.7378906 L10.125,50.4878906 Z M16.875,50.4878906 L13.5,50.4878906 L13.5,43.7378906 L16.875,43.7378906 L16.875,50.4878906 Z M23.625,50.4878906 L20.25,50.4878906 L20.25,43.7378906 L23.625,43.7378906 L23.625,50.4878906 Z M30.375,50.4878906 L27,50.4878906 L27,43.7378906 L30.375,43.7378906 L30.375,50.4878906 Z M33.6972656,16.875 L30.375,16.875 L30.375,20.25 L33.6972656,20.25 L33.6972656,23.625 L30.375,23.625 L30.375,27 L33.6972656,27 L33.6972656,30.375 L30.375,30.375 L30.375,33.75 L27,33.75 L27,30.375 L23.625,30.375 L23.625,33.75 L20.25,33.75 L20.25,30.375 L16.875,30.375 L16.875,33.75 L13.5,33.75 L13.5,30.375 L10.125,30.375 L10.125,27 L13.5,27 L13.5,23.625 L10.125,23.625 L10.125,20.25 L13.5,20.25 L13.5,16.875 L10.125,16.875 L10.125,13.5 L13.5,13.5 L13.5,10.125 L16.875,10.125 L16.875,13.5 L20.25,13.5 L20.25,10.125 L23.625,10.125 L23.625,13.5 L27,13.5 L27,10.125 L30.375,10.125 L30.375,13.5 L33.6972656,13.5 L33.6972656,16.875 Z M37.125,50.4878906 L33.75,50.4878906 L33.75,43.7378906 L37.125,43.7378906 L37.125,50.4878906 Z" id="pficon-resource-pool"></path>
        </g>
    </g>
</svg>