<?xml version="1.0" encoding="UTF-8"?>
<svg width="54px" height="48px" viewBox="0 0 54 48" version="1.1" xmlns="http://www.w3.org/2000/svg" xmlns:xlink="http://www.w3.org/1999/xlink">
    <title></title>
    <g id="Icons" stroke="none" stroke-width="1" fill="none" fill-rule="evenodd">
        <g id="Icons/4.-Size-xl-(54px)/Object/pficon-service-catalog" fill="#151515">
            <path d="M27,18.4235294 C29.9829044,18.4235294 32.4,20.840625 32.4,23.8235294 C32.4,26.8064338 29.9829044,29.2235294 27,29.2235294 C24.0170956,29.2235294 21.6,26.8064338 21.6,23.8235294 C21.6,20.840625 24.0170956,18.4235294 27,18.4235294 L27,18.4235294 Z M25.0196691,37.4128676 C24.721875,37.4128676 24.4290441,37.1795956 24.384375,36.8818015 L24.0369485,32.3503676 C23.4761029,32.1816176 23.4314338,32.2014706 22.9251838,31.9483456 L19.7884191,34.8716912 C19.6841912,34.9759191 19.5154412,35.0205882 19.3665441,35.0205882 C19.1977941,35.0205882 19.0488971,34.9560662 18.9198529,34.8518382 C18.3689338,34.3455882 15.8575368,32.0674632 15.8575368,31.4520221 C15.8575368,31.303125 15.9220588,31.1790441 16.0064338,31.05 C16.621875,30.2459559 18.1753676,28.4790441 18.7908088,27.6501838 C18.4930147,27.0694853 18.5376838,27.2580882 18.3441176,26.6674632 L13.8970588,26.3795956 C13.5992647,26.3349265 13.3908088,26.0619485 13.3908088,25.7641544 L13.3908088,21.8481618 C13.3908088,21.5751838 13.6042279,21.2575368 13.8772059,21.2128676 L18.2795956,20.9994485 C18.4483456,20.4386029 18.4086397,20.1954044 18.6816176,19.6643382 C18.0909926,18.815625 16.6169118,17.4408088 15.9369485,16.6367647 C15.8525735,16.5077206 15.7880515,16.3637868 15.7880515,16.2148897 C15.7880515,16.0659926 15.8327206,15.9170956 15.9369485,15.7930147 C16.3588235,15.2222426 18.7411765,12.6463235 19.3566176,12.6463235 C19.5253676,12.6463235 19.6742647,12.7108456 19.8033088,12.7952206 L23.0740809,15.6639706 C23.6150735,15.3909926 23.5604779,15.3463235 24.13125,15.1577206 C24.2354779,14.090625 24.1014706,11.7926471 24.3744485,10.7553309 C24.4588235,10.4575368 24.7119485,10.2490809 25.0097426,10.2490809 L25.4068015,10.2490809 L25.4068015,6.35294118 C19.8827206,2.79430147 10.5667279,0 6.35294118,0 L6.35294118,38.1176471 C9.39540441,37.2838235 17.4705882,36.1571691 25.4117647,41.2941176 L25.4117647,37.4079044 L25.0196691,37.4128676 Z M50.8235294,3.17647059 L50.8235294,44.4705882 C50.8235294,44.4705882 42.8327206,34.5788603 28.5882353,44.3415441 L28.5882353,47.6470588 C28.5882353,47.6470588 42.8376838,38.3509191 48.9226103,47.5428309 C48.9226103,47.5428309 54,47.6470588 54,44.4705882 L54,6.49191176 C54,6.49191176 54,3.17647059 50.8235294,3.17647059 L50.8235294,3.17647059 Z M28.9852941,10.2341912 C29.2830882,10.2341912 29.5362132,10.4426471 29.6205882,10.7404412 C29.8935662,11.7777574 29.7595588,14.0757353 29.8637868,15.1428309 C30.4345588,15.3314338 30.3799632,15.3761029 30.9209559,15.6490809 L34.1917279,12.7902574 C34.3207721,12.7058824 34.4696691,12.6413603 34.6384191,12.6413603 C35.2538603,12.6413603 37.6362132,15.2172794 38.0580882,15.7880515 C38.1623162,15.9121324 38.2069853,16.0610294 38.2069853,16.2099265 C38.2069853,16.3588235 38.1424632,16.5027574 38.0580882,16.6318015 C37.378125,17.4358456 35.9040441,18.8106618 35.3134191,19.659375 C35.5863971,20.1904412 35.5466912,20.4336397 35.7154412,20.9944853 L40.1178309,21.2079044 C40.3908088,21.2525735 40.6042279,21.5702206 40.6042279,21.8431985 L40.6042279,25.7591912 C40.6042279,26.0569853 40.3957721,26.3299632 40.0979779,26.3746324 L35.6509191,26.6625 C35.4573529,27.253125 35.5020221,27.0645221 35.2042279,27.6452206 C35.8196691,28.4740809 37.3731618,30.2409926 37.9886029,31.0450368 C38.0729779,31.1740809 38.1375,31.2981618 38.1375,31.4470588 C38.1375,32.0625 35.6261029,34.340625 35.0751838,34.846875 C34.9461397,34.9511029 34.7972426,35.015625 34.6284926,35.015625 C34.4795956,35.015625 34.3108456,34.9709559 34.2066176,34.8667279 L31.0748162,31.9433824 C30.5685662,32.1965074 30.5238971,32.1766544 29.9630515,32.3454044 L29.615625,36.8768382 C29.5709559,37.1746324 29.278125,37.4079044 28.9803309,37.4079044 L28.5832721,37.4079044 L28.5832721,41.2941176 C36.6237132,36.1571691 44.6045956,37.2788603 47.6420956,38.1176471 L47.6420956,0 C43.4034926,0 34.1073529,2.80919118 28.5832721,6.35294118 L28.5832721,10.2391544 L28.9852941,10.2341912 Z M3.17647059,44.4705882 L3.17647059,3.17647059 C0,3.17647059 0,6.49191176 0,6.49191176 L0,44.4705882 C0,47.6470588 5.08731618,47.5428309 5.08731618,47.5428309 C11.3112132,38.4055147 25.4117647,47.6470588 25.4117647,47.6470588 L25.4117647,44.3415441 C11.2169118,34.5788603 3.17647059,44.465625 3.17647059,44.4705882 L3.17647059,44.4705882 Z M27.1704871,23.9301149 C27.1029871,24.0313649 27.1029871,24.0313649 27.1704871,23.9301149 L27.1704871,23.9301149 Z M27.1173805,24.0687132 L27.1173805,23.8662132 C27.1848805,23.9337132 27.1848805,24.0012132 27.1173805,24.0687132 L27.1173805,24.0687132 Z" id="pficon-service-catalog"></path>
        </g>
    </g>
</svg>