<?xml version="1.0" encoding="UTF-8"?>
<svg width="54px" height="55px" viewBox="0 0 54 55" version="1.1" xmlns="http://www.w3.org/2000/svg" xmlns:xlink="http://www.w3.org/1999/xlink">
    <title></title>
    <g id="Icons" stroke="none" stroke-width="1" fill="none" fill-rule="evenodd">
        <g id="Icons/4.-Size-xl-(54px)/Object/pficon-server-group" fill="#151515">
            <path d="M1.6875,13.5000448 C0.754101563,13.5000448 0,14.2541464 0,15.1875448 L0,52.3125448 C0,53.2459434 0.754101563,54.0000448 1.6875,54.0000448 L38.8125,54.0000448 C39.7458984,54.0000448 40.5,53.2459434 40.5,52.3125448 L40.5,13.5000448 L1.6875,13.5000448 Z M33.75,45.5625448 L16.875,45.5625448 L16.875,40.5000448 L33.75,40.5000448 L33.75,45.5625448 Z M33.75,35.4375448 L6.75,35.4375448 L6.75,30.3750448 L33.75,30.3750448 L33.75,35.4375448 Z M33.75,25.3125448 L23.625,25.3125448 L23.625,20.2500448 L33.75,20.2500448 L33.75,25.3125448 Z M9.78222656,1.48941958e-05 C9.78222656,1.48941958e-05 8.98066406,-0.0105020059 8.521875,0.527388618 C7.96816406,1.17602143 0.50625,8.56938078 0.50625,8.56938078 C0.06328125,9.00180266 0,9.07035735 0,9.5555136 C0,10.0406698 0.56953125,10.1303183 1.16542969,10.1250448 L39.65625,10.1250448 L29.53125,1.48941958e-05 L9.78222656,1.48941958e-05 Z M52.3125,13.5000448 L43.875,13.5000448 L43.875,50.6250448 L52.3125,50.6250448 C53.2458984,50.6250448 54,49.8709433 54,48.9375448 L54,15.1875448 C54,14.2541464 53.2458984,13.5000448 52.3125,13.5000448 L52.3125,13.5000448 Z M52.7712891,10.1197714 C53.3830078,10.1197714 54,10.0564902 54,9.55024016 C54,9.07035735 53.8892578,9.00180266 53.4462891,8.55883391 C53.4462891,8.55883391 46.06875,1.14965424 45.5150391,0.537935493 C45.0087891,4.48691148e-05 44.3285156,4.48691148e-05 44.3285156,4.48691148e-05 L33.75,4.48691148e-05 L43.875,10.1250448 L52.7712891,10.1250448 L52.7712891,10.1197714 Z" id="pficon-server-group"></path>
        </g>
    </g>
</svg>