<?xml version="1.0" encoding="UTF-8"?>
<svg width="54px" height="48px" viewBox="0 0 54 48" version="1.1" xmlns="http://www.w3.org/2000/svg" xmlns:xlink="http://www.w3.org/1999/xlink">
    <title></title>
    <g id="Icons" stroke="none" stroke-width="1" fill="none" fill-rule="evenodd">
        <g id="Icons/4.-Size-xl-(54px)/Object/pficon-catalog" fill="#151515">
            <path d="M28.5882353,6.35294118 C34.1123162,2.80919118 43.4084559,0 47.6470588,0 L47.6470588,38.1176471 C44.6095588,37.2788603 36.6286765,36.1571691 28.5882353,41.2941176 L28.5882353,6.35294118 Z M50.8235294,3.17647059 C54,3.17647059 54,6.49191176 54,6.49191176 L54,44.4705882 C54,47.6470588 48.9226103,47.5428309 48.9226103,47.5428309 C42.8376838,38.3509191 28.5882353,47.6470588 28.5882353,47.6470588 L28.5882353,44.3415441 C42.8327206,34.5788603 50.8235294,44.4705882 50.8235294,44.4705882 L50.8235294,3.17647059 Z M6.35294118,38.1176471 L6.35294118,0 C10.5667279,0 19.8827206,2.79430147 25.4117647,6.35294118 L25.4117647,41.2941176 C17.4705882,36.1571691 9.39540441,37.2838235 6.35294118,38.1176471 Z M25.4117647,44.3415441 L25.4117647,47.6470588 C25.4117647,47.6470588 11.3112132,38.4055147 5.08731618,47.5428309 C5.08731618,47.5428309 0,47.6470588 0,44.4705882 L0,6.49191176 C0,6.49191176 0,3.17647059 3.17647059,3.17647059 L3.17647059,44.4705882 C3.17647059,44.465625 11.2169118,34.5788603 25.4117647,44.3415441 Z" id="pficon-catalog"></path>
        </g>
    </g>
</svg>