<?xml version="1.0" encoding="UTF-8"?>
<svg width="54px" height="54px" viewBox="0 0 54 54" version="1.1" xmlns="http://www.w3.org/2000/svg" xmlns:xlink="http://www.w3.org/1999/xlink">
    <title></title>
    <g id="Icons" stroke="none" stroke-width="1" fill="none" fill-rule="evenodd">
        <g id="Icons/4.-Size-xl-(54px)/Object/pficon-template" fill="#151515">
            <path d="M52.4232422,0 L1.53984375,0 C0.689772992,0.000872017191 0.000872017191,0.689772992 0,1.53984375 L0,52.5234375 C0,53.4041016 0.7171875,54 1.59785156,54 L52.4548828,54 C53.3091797,54 54,53.4304688 54,52.5761719 L54,1.57675781 C53.9994183,0.7061796 53.2938203,0.000581743071 52.4232422,0 Z M50.625,50.625 L3.375,50.625 L3.375,3.375 L50.625,3.375 L50.625,50.625 Z M20.25,23.625 L30.375,23.625 L30.375,20.25 L20.25,20.25 L20.25,23.625 Z M23.625,13.5 L33.75,13.5 L33.75,10.125 L23.625,10.125 L23.625,13.5 Z M43.875,23.625 L33.75,23.625 L33.75,20.25 L40.5,20.25 L40.5,13.5 L37.125,13.5 L37.125,10.125 L43.875,10.125 L43.875,23.625 Z M10.125,10.125 L20.25,10.125 L20.25,13.5 L13.5,13.5 L13.5,20.25 L16.875,20.25 L16.875,23.625 L10.125,23.625 L10.125,10.125 Z M20.25,43.875 L30.375,43.875 L30.375,40.5 L20.25,40.5 L20.25,43.875 Z M23.625,33.75 L33.75,33.75 L33.75,30.375 L23.625,30.375 L23.625,33.75 Z M43.875,43.875 L33.75,43.875 L33.75,40.5 L40.5,40.5 L40.5,33.75 L37.125,33.75 L37.125,30.375 L43.875,30.375 L43.875,43.875 Z M10.125,30.375 L20.25,30.375 L20.25,33.75 L13.5,33.75 L13.5,40.5 L16.875,40.5 L16.875,43.875 L10.125,43.875 L10.125,30.375 Z" id="pficon-template"></path>
        </g>
    </g>
</svg>