<?xml version="1.0" encoding="UTF-8"?><svg version="1.1" width="343px" height="62px" viewBox="0 0 343.0 62.0" xmlns="http://www.w3.org/2000/svg" xmlns:xlink="http://www.w3.org/1999/xlink"><defs><clipPath id="i0"><path d="M343,0 L343,62 L0,62 L0,0 L343,0 Z"></path></clipPath><clipPath id="i1"><path d="M343,0 L343,16 L0,16 L0,0 L343,0 Z"></path></clipPath><clipPath id="i2"><path d="M24,0 L24,30 L0,30 L0,0 L24,0 Z"></path></clipPath><clipPath id="i3"><path d="M16,0 L16,30 L0,30 L0,0 L16,0 Z"></path></clipPath><clipPath id="i4"><path d="M8,0 L8,30 L0,30 L0,0 L8,0 Z"></path></clipPath><clipPath id="i5"><path d="M12.0163822,0.330447363 C12.4570244,-0.110149121 13.1695319,-0.110149121 13.6054592,0.330447363 L14.6648134,1.3898473 C15.1054556,1.83044379 15.1054556,2.54295124 14.6648134,2.97887855 L8.28982856,9.35386335 C7.85857044,9.79450561 7.14610876,9.79450561 6.7054665,9.35386335 L0.330481695,2.97887855 C-0.110160565,2.53828206 -0.110160565,1.82577461 0.330481695,1.3898473 L1.38983586,0.330447363 C1.83047812,-0.110149121 2.54298558,-0.110149121 2.97891288,0.330447363 L7.49767042,4.8492049 Z"></path></clipPath></defs><g clip-path="url(#i0)"><polygon points="0,0 343,0 343,62 0,62 0,0" stroke="none" fill="#FFFFFF"></polygon><g transform="translate(0.0 1.0)"><polygon points="343,0 0,0 0,-1 343,-1 343,0 343,0" stroke="none" fill="#D2D2D2"></polygon></g><g transform="translate(3.0 0.0)"><polygon points="0,0 0,62 -3,62 -3,0 0,0 0,0" stroke="none" fill="#0066CC"></polygon></g></g><g transform="translate(24.0 16.0)"><text transform="translate(0.0 20.0)" font-family="RedHatDisplay-Medium, Red Hat Display" font-size="20.0" font-weight="500" fill="#151515" text-anchor="left" line-spacing="30.0">Heading</text></g><g transform="translate(0.0 46.0)"><g clip-path="url(#i1)"><polygon points="0,0 343,0 343,16 0,16 0,0" stroke="none" fill="rgba(62, 156, 52, 0.9)"></polygon></g><g clip-path="url(#i1)"><polygon points="0,0 343,0 343,16 0,16 0,0 0,0" stroke="#418A37" stroke-width="2" fill="none" stroke-miterlimit="5"></polygon></g></g><g clip-path="url(#i1)"><polygon points="0,0 343,0 343,16 0,16 0,0" stroke="none" fill="rgba(62, 156, 52, 0.9)"></polygon></g><g clip-path="url(#i1)"><polygon points="0,0 343,0 343,16 0,16 0,0 0,0" stroke="#418A37" stroke-width="2" fill="none" stroke-miterlimit="5"></polygon></g><g transform="translate(0.0 16.0)"><g clip-path="url(#i2)"><polygon points="0,0 24,0 24,30 0,30 0,0" stroke="none" fill="rgba(0, 121, 135, 0.9)"></polygon></g><g clip-path="url(#i2)"><polygon points="0,0 24,0 24,30 0,30 0,0 0,0" stroke="#09707A" stroke-width="2" fill="none" stroke-miterlimit="5"></polygon></g></g><g transform="translate(327.0 16.0)"><g clip-path="url(#i3)"><polygon points="0,0 16,0 16,30 0,30 0,0" stroke="none" fill="rgba(62, 156, 52, 0.9)"></polygon></g><g clip-path="url(#i3)"><polygon points="0,0 16,0 16,30 0,30 0,0 0,0" stroke="#418A37" stroke-width="2" fill="none" stroke-miterlimit="5"></polygon></g></g><g transform="translate(295.0 16.0)"><g clip-path="url(#i4)"><polygon points="0,0 8,0 8,30 0,30 0,0" stroke="none" fill="rgba(146, 211, 0, 0.9)"></polygon></g><g clip-path="url(#i4)"><polygon points="0,0 8,0 8,30 0,30 0,0 0,0" stroke="#7EB200" stroke-width="2" fill="none" stroke-miterlimit="5"></polygon></g></g><g transform="translate(303.0 19.0)"><g transform="translate(4.999999999999999 7.0)"><g clip-path="url(#i5)"><polygon points="0,0 14.9952951,0 14.9952951,9.68434504 0,9.68434504 0,0" stroke="none" fill="#151515"></polygon></g></g></g></svg>