<?xml version="1.0" encoding="UTF-8"?><svg version="1.1" width="113px" height="36px" viewBox="0 0 113.0 36.0" xmlns="http://www.w3.org/2000/svg" xmlns:xlink="http://www.w3.org/1999/xlink"><defs><clipPath id="i0"><path d="M110,0 C111.656854,-3.04359188e-16 113,1.34314575 113,3 L113,33 C113,34.6568542 111.656854,36 110,36 L0,36 L0,0 L110,0 Z"></path></clipPath></defs><g clip-path="url(#i0)"><polygon points="0,0 113,0 113,36 0,36 0,0" stroke="none" fill="#F0F0F0"></polygon><path d="M0,0 L110,0 C111.656854,-3.04359188e-16 113,1.34314575 113,3 L113,33 C113,34.6568542 111.656854,36 110,36 L0,36 L0,36 L0,0 Z" stroke="#8A8D90" stroke-width="2" fill="none" stroke-miterlimit="5"></path></g><g transform="translate(16.0 8.0)"><text transform="translate(0.0 14.0)" font-family="RedHatText-Regular, Red Hat Text" font-size="14.0" font-weight="normal" fill="#141514" text-anchor="left" line-spacing="21.0">Hover - right</text></g></svg>