<svg xmlns="http://www.w3.org/2000/svg" xmlns:xlink="http://www.w3.org/1999/xlink" width="540" height="121" viewBox="0 0 540 121">
  <defs>
    <rect id="hover-b" width="540" height="121" x="0" y="0"/>
    <filter id="hover-a" width="102.6%" height="116.5%" x="-1.3%" y="-4.1%" filterUnits="objectBoundingBox">
      <feMorphology in="SourceAlpha" radius="3" result="shadowSpreadOuter1"/>
      <feOffset dy="8" in="shadowSpreadOuter1" result="shadowOffsetOuter1"/>
      <feGaussianBlur in="shadowOffsetOuter1" result="shadowBlurOuter1" stdDeviation="4"/>
      <feColorMatrix in="shadowBlurOuter1" values="0 0 0 0 0   0 0 0 0 0   0 0 0 0 0  0 0 0 0.18 0"/>
    </filter>
    <rect id="hover-d" width="540" height="121" x="0" y="0"/>
    <filter id="hover-c" width="102.6%" height="116.5%" x="-1.3%" y="-12.4%" filterUnits="objectBoundingBox">
      <feMorphology in="SourceAlpha" radius="3" result="shadowSpreadOuter1"/>
      <feOffset dy="-8" in="shadowSpreadOuter1" result="shadowOffsetOuter1"/>
      <feGaussianBlur in="shadowOffsetOuter1" result="shadowBlurOuter1" stdDeviation="4"/>
      <feColorMatrix in="shadowBlurOuter1" values="0 0 0 0 0   0 0 0 0 0   0 0 0 0 0  0 0 0 0.18 0"/>
    </filter>
  </defs>
  <g fill="none" fill-rule="evenodd">
    <use fill="#000" filter="url(#hover-a)" xlink:href="#hover-b"/>
    <use fill="#FFF" xlink:href="#hover-b"/>
    <use fill="#000" filter="url(#hover-c)" xlink:href="#hover-d"/>
    <use fill="#FFF" xlink:href="#hover-d"/>
    <rect width="3" height="121" fill="#009596"/>
    <path fill="#009596" d="M11.7499815,19.499963 C16.0312213,19.499963 19.499963,16.0312213 19.499963,11.7499815 C19.499963,7.46874173 16.0312213,4 11.7499815,4 C7.46874173,4 4,7.46874173 4,11.7499815 C4,16.0312213 7.46874173,19.499963 11.7499815,19.499963 Z M11.9999809,16.7499696 L11.4999821,16.7499696 C11.0843642,16.7499696 10.7499839,16.4155893 10.7499839,15.9999714 L10.7499839,10.2937472 L8.48747709,12.6531166 C8.19685889,12.9562164 7.71248505,12.9624725 7.41249797,12.6655982 L7.07186157,12.3218491 C6.77813058,12.0312309 6.77813058,11.5562259 7.07186157,11.2624949 L11.2218456,7.11562368 C11.5124943,6.82186217 11.9874687,6.82186217 12.2812303,7.11562368 L16.4249582,11.2624949 C16.7187197,11.5531131 16.7187197,12.0281181 16.4249582,12.3218491 L16.0843523,12.6655982 C15.787478,12.9624725 15.3031042,12.9562164 15.012486,12.6531166 L12.7499791,10.2937472 L12.7499791,15.9999714 C12.7499791,16.4155893 12.4155988,16.7499696 11.9999809,16.7499696 Z" transform="translate(16 16)"/>
    <g transform="translate(484 16)">
      <rect width="40" height="36" rx="3"/>
      <g transform="translate(8 6)">
        <path fill="#151515" d="M12.2499946,8.49998927 C13.4937356,8.49998927 14.4999893,7.49373557 14.4999893,6.24999464 C14.4999893,5.0062537 13.4937356,4 12.2499946,4 C11.0062537,4 10,5.0062537 10,6.24999464 C10,7.49373557 11.0062537,8.49998927 12.2499946,8.49998927 Z M12.2499946,13.9999762 C13.4937356,13.9999762 14.4999893,12.9937225 14.4999893,11.7499815 C14.4999893,10.5062406 13.4937356,9.49998689 12.2499946,9.49998689 C11.0062537,9.49998689 10,10.5062406 10,11.7499815 C10,12.9937225 11.0062537,13.9999762 12.2499946,13.9999762 Z M12.2499946,19.499963 C13.4937356,19.499963 14.4999893,18.4937093 14.4999893,17.2499684 C14.4999893,16.0062275 13.4937356,14.9999738 12.2499946,14.9999738 C11.0062537,14.9999738 10,16.0062275 10,17.2499684 C10,18.4937093 11.0062537,19.499963 12.2499946,19.499963 Z"/>
        <rect width="24" height="24" fill="#6A6E73"/>
      </g>
      <g fill-opacity=".9">
        <rect width="7" height="35" x=".5" y=".5" fill="#92D400" stroke="#7FB300"/>
        <rect width="7" height="35" x=".5" y=".5" fill="#92D400" stroke="#7FB300" transform="translate(32)"/>
        <rect width="23" height="5" x=".5" y=".5" fill="#F3D53C" stroke="#CBB534" transform="translate(8)"/>
        <rect width="23" height="5" x=".5" y=".5" fill="#F3D53C" stroke="#CBB534" transform="translate(8 30)"/>
      </g>
    </g>
    <text fill="#6A6E73" font-family="RedHatText-Regular, Red Hat Text" font-size="14">
      <tspan x="16" y="98">A few minutes ago</tspan>
    </text>
    <text fill="#151515" font-family="RedHatText-Regular, Red Hat Text" font-size="16">
      <tspan x="16" y="68">Content</tspan>
    </text>
    <text fill="#151515" font-family="RedHatDisplay-Medium, Red Hat Display" font-size="16" font-weight="400">
      <tspan x="48" y="32">Title</tspan>
    </text>
    <g fill-opacity=".9">
      <rect width="507" height="3" x=".5" y=".5" fill="#EC7A08" stroke="#C77000" transform="translate(16 48)"/>
      <rect width="15" height="120" x=".5" y=".5" fill="#3F9C35" stroke="#418A38"/>
      <rect width="15" height="120" x=".5" y=".5" fill="#3F9C35" stroke="#418A38" transform="translate(524)"/>
      <rect width="539" height="15" x=".5" y=".5" fill="#3F9C35" stroke="#418A38"/>
      <rect width="507" height="7" x=".5" y="1.5" fill="#92D400" stroke="#7FB300" transform="translate(16 75)"/>
      <rect width="7" height="31" x=".5" y=".5" fill="#92D400" stroke="#7FB300" transform="translate(40 16)"/>
      <rect width="539" height="15" x=".5" y=".5" fill="#3F9C35" stroke="#418A38" transform="translate(0 105)"/>
    </g>
  </g>
</svg>
