<svg xmlns="http://www.w3.org/2000/svg" width="140" height="36" viewBox="0 0 140 36">
  <g fill="none" fill-rule="evenodd">
    <rect width="140" height="36" fill="#F0F0F0"/>
    <path fill="#6A6E73" d="M18.8937023,19.7812124 L19.7780996,18.8968456 C20.0718306,18.6030841 20.0718306,18.1280791 19.7812124,17.8343481 L16.6655887,14.7187244 C16.524964,14.5780998 16.3343517,14.499975 16.13434,14.499975 L15.6249723,14.499975 C16.487458,13.3968587 16.999969,12.0093498 16.999969,10.4999845 C16.999969,6.90935586 14.0906131,4 10.4999845,4 C6.90935586,4 4,6.90935586 4,10.4999845 C4,14.0906131 6.90935586,16.999969 10.4999845,16.999969 C12.0093498,16.999969 13.3968587,16.487458 14.499975,15.6249723 L14.499975,16.13434 C14.499975,16.3343517 14.5780998,16.524964 14.7187244,16.6655887 L17.8343481,19.7812124 C18.1280791,20.0749739 18.6030841,20.0749739 18.8937023,19.7812124 Z M10.499994,14.499975 C8.29060867,14.499975 6.49999404,12.7124731 6.49999404,10.499994 C6.49999404,8.29060867 8.28749588,6.49999404 10.499994,6.49999404 C12.7093603,6.49999404 14.499975,8.28749588 14.499975,10.499994 C14.499975,12.7093603 12.7124731,14.499975 10.499994,14.499975 Z" transform="translate(108 6)"/>
    <text fill="#6A6E73" font-family="RedHatText-Regular, Red Hat Text" font-size="16">
      <tspan x="8" y="22">Text box</tspan>
    </text>
    <g fill-opacity=".9">
      <rect width="7" height="35" x=".5" y=".5" fill="#92D400" stroke="#7FB300"/>
      <rect width="7" height="35" x=".5" y=".5" fill="#92D400" stroke="#7FB300" transform="translate(132)"/>
      <rect width="7" height="23" x=".5" y=".5" fill="#92D400" stroke="#7FB300" transform="translate(100 6)"/>
      <rect width="123" height="5" x=".5" y=".5" fill="#F3D53C" stroke="#CBB534" transform="translate(8 30)"/>
      <rect width="123" height="5" x=".5" y=".5" fill="#F3D53C" stroke="#CBB534" transform="translate(8)"/>
    </g>
  </g>
</svg>
