<svg xmlns="http://www.w3.org/2000/svg" xmlns:xlink="http://www.w3.org/1999/xlink" width="149" height="36" viewBox="0 0 149 36">
  <defs>
    <rect id="7.-error-a" width="40" height="36" x="0" y="0"/>
    <filter id="7.-error-b" width="102.5%" height="102.8%" x="-1.2%" y="-1.4%" filterUnits="objectBoundingBox">
      <feOffset dx="-1" in="SourceAlpha" result="shadowOffsetInner1"/>
      <feComposite in="shadowOffsetInner1" in2="SourceAlpha" k2="-1" k3="1" operator="arithmetic" result="shadowInnerInner1"/>
      <feColorMatrix in="shadowInnerInner1" result="shadowMatrixInner1" values="0 0 0 0 0.941176471   0 0 0 0 0.941176471   0 0 0 0 0.941176471  0 0 0 1 0"/>
      <feOffset dy="1" in="SourceAlpha" result="shadowOffsetInner2"/>
      <feComposite in="shadowOffsetInner2" in2="SourceAlpha" k2="-1" k3="1" operator="arithmetic" result="shadowInnerInner2"/>
      <feColorMatrix in="shadowInnerInner2" result="shadowMatrixInner2" values="0 0 0 0 0.941176471   0 0 0 0 0.941176471   0 0 0 0 0.941176471  0 0 0 1 0"/>
      <feOffset dx="1" in="SourceAlpha" result="shadowOffsetInner3"/>
      <feComposite in="shadowOffsetInner3" in2="SourceAlpha" k2="-1" k3="1" operator="arithmetic" result="shadowInnerInner3"/>
      <feColorMatrix in="shadowInnerInner3" result="shadowMatrixInner3" values="0 0 0 0 0.941176471   0 0 0 0 0.941176471   0 0 0 0 0.941176471  0 0 0 1 0"/>
      <feOffset dy="-1" in="SourceAlpha" result="shadowOffsetInner4"/>
      <feComposite in="shadowOffsetInner4" in2="SourceAlpha" k2="-1" k3="1" operator="arithmetic" result="shadowInnerInner4"/>
      <feColorMatrix in="shadowInnerInner4" result="shadowMatrixInner4" values="0 0 0 0 0.541176471   0 0 0 0 0.552941176   0 0 0 0 0.564705882  0 0 0 1 0"/>
      <feMerge>
        <feMergeNode in="shadowMatrixInner1"/>
        <feMergeNode in="shadowMatrixInner2"/>
        <feMergeNode in="shadowMatrixInner3"/>
        <feMergeNode in="shadowMatrixInner4"/>
      </feMerge>
    </filter>
    <rect id="7.-error-c" width="110" height="36" x="0" y="0"/>
    <filter id="7.-error-d" width="101.8%" height="105.6%" x="-.9%" y="-2.8%" filterUnits="objectBoundingBox">
      <feOffset dx="1" in="SourceAlpha" result="shadowOffsetInner1"/>
      <feComposite in="shadowOffsetInner1" in2="SourceAlpha" k2="-1" k3="1" operator="arithmetic" result="shadowInnerInner1"/>
      <feColorMatrix in="shadowInnerInner1" result="shadowMatrixInner1" values="0 0 0 0 0.929411765   0 0 0 0 0.929411765   0 0 0 0 0.929411765  0 0 0 1 0"/>
      <feOffset dx="-1" in="SourceAlpha" result="shadowOffsetInner2"/>
      <feComposite in="shadowOffsetInner2" in2="SourceAlpha" k2="-1" k3="1" operator="arithmetic" result="shadowInnerInner2"/>
      <feColorMatrix in="shadowInnerInner2" result="shadowMatrixInner2" values="0 0 0 0 0.929411765   0 0 0 0 0.929411765   0 0 0 0 0.929411765  0 0 0 1 0"/>
      <feOffset dy="1" in="SourceAlpha" result="shadowOffsetInner3"/>
      <feComposite in="shadowOffsetInner3" in2="SourceAlpha" k2="-1" k3="1" operator="arithmetic" result="shadowInnerInner3"/>
      <feColorMatrix in="shadowInnerInner3" result="shadowMatrixInner3" values="0 0 0 0 0.929411765   0 0 0 0 0.929411765   0 0 0 0 0.929411765  0 0 0 1 0"/>
      <feOffset dy="-2" in="SourceAlpha" result="shadowOffsetInner4"/>
      <feComposite in="shadowOffsetInner4" in2="SourceAlpha" k2="-1" k3="1" operator="arithmetic" result="shadowInnerInner4"/>
      <feColorMatrix in="shadowInnerInner4" result="shadowMatrixInner4" values="0 0 0 0 0.788235294   0 0 0 0 0.0980392157   0 0 0 0 0.0431372549  0 0 0 1 0"/>
      <feMerge>
        <feMergeNode in="shadowMatrixInner1"/>
        <feMergeNode in="shadowMatrixInner2"/>
        <feMergeNode in="shadowMatrixInner3"/>
        <feMergeNode in="shadowMatrixInner4"/>
      </feMerge>
    </filter>
  </defs>
  <g fill="none" fill-rule="evenodd">
    <g transform="translate(109)">
      <use fill="#FFF" xlink:href="#7.-error-a"/>
      <use fill="#000" filter="url(#7.-error-b)" xlink:href="#7.-error-a"/>
      <path fill="#6A6E73" d="M18.8937023,19.7812124 L19.7780996,18.8968456 C20.0718306,18.6030841 20.0718306,18.1280791 19.7812124,17.8343481 L16.6655887,14.7187244 C16.524964,14.5780998 16.3343517,14.499975 16.13434,14.499975 L15.6249723,14.499975 C16.487458,13.3968587 16.999969,12.0093498 16.999969,10.4999845 C16.999969,6.90935586 14.0906131,4 10.4999845,4 C6.90935586,4 4,6.90935586 4,10.4999845 C4,14.0906131 6.90935586,16.999969 10.4999845,16.999969 C12.0093498,16.999969 13.3968587,16.487458 14.499975,15.6249723 L14.499975,16.13434 C14.499975,16.3343517 14.5780998,16.524964 14.7187244,16.6655887 L17.8343481,19.7812124 C18.1280791,20.0749739 18.6030841,20.0749739 18.8937023,19.7812124 Z M10.499994,14.499975 C8.29060867,14.499975 6.49999404,12.7124731 6.49999404,10.499994 C6.49999404,8.29060867 8.28749588,6.49999404 10.499994,6.49999404 C12.7093603,6.49999404 14.499975,8.28749588 14.499975,10.499994 C14.499975,12.7093603 12.7124731,14.499975 10.499994,14.499975 Z" transform="translate(8 6)"/>
      <g fill-opacity=".9">
        <rect width="7" height="35" x=".5" y=".5" fill="#92D400" stroke="#7FB300"/>
        <rect width="7" height="35" x=".5" y=".5" fill="#92D400" stroke="#7FB300" transform="translate(32)"/>
        <rect width="23" height="5" x=".5" y=".5" fill="#F3D53C" stroke="#CBB534" transform="translate(8)"/>
        <rect width="23" height="5" x=".5" y=".5" fill="#F3D53C" stroke="#CBB534" transform="translate(8 30)"/>
      </g>
    </g>
    <use fill="#FFF" xlink:href="#7.-error-c"/>
    <use fill="#000" filter="url(#7.-error-d)" xlink:href="#7.-error-c"/>
    <path fill="#C9190B" d="M11.7499815,19.499963 C16.0298785,19.499963 19.499963,16.0311298 19.499963,11.7499815 C19.499963,7.47133572 16.0298785,4 11.7499815,4 C7.4700845,4 4,7.47133572 4,11.7499815 C4,16.0311298 7.4700845,19.499963 11.7499815,19.499963 Z M12.5085246,12.7499791 L10.9914384,12.7499791 C10.7922812,12.7499791 10.6278529,12.5942788 10.6170191,12.3954268 L10.3852082,8.14543689 C10.3734894,7.93062417 10.544479,7.74999106 10.7595969,7.74999106 L12.7403356,7.74999106 C12.9554535,7.74999106 13.1264736,7.93062417 13.1147549,8.14543689 L12.8829439,12.3954268 C12.8721102,12.5942788 12.7076819,12.7499791 12.5085246,12.7499791 Z M11.7499815,16.1874709 C10.9560686,16.1874709 10.3124849,15.5438873 10.3124849,14.7499744 C10.3124849,13.9560615 10.9560686,13.3124778 11.7499815,13.3124778 C12.5438944,13.3124778 13.1874781,13.9560615 13.1874781,14.7499744 C13.1874781,15.5438873 12.5438944,16.1874709 11.7499815,16.1874709 Z" transform="translate(81 6)"/>
    <text fill="#151515" font-family="RedHatText-Regular, Red Hat Text" font-size="16">
      <tspan x="8" y="22">Text box</tspan>
    </text>
    <g fill-opacity=".9">
      <rect width="7" height="35" x=".5" y=".5" fill="#92D400" stroke="#7FB300"/>
      <rect width="3" height="23" x=".5" y=".5" fill="#EC7A08" stroke="#C77000" transform="translate(105 6)"/>
      <rect width="100" height="5" x=".5" y=".5" fill="#F3D53C" stroke="#CBB534" transform="translate(8 30)"/>
      <rect width="100" height="5" x=".5" y=".5" fill="#F3D53C" stroke="#CBB534" transform="translate(8)"/>
    </g>
  </g>
</svg>
