<?xml version="1.0" encoding="UTF-8"?><svg version="1.1" width="330px" height="37px" viewBox="0 0 330.0 37.0" xmlns="http://www.w3.org/2000/svg" xmlns:xlink="http://www.w3.org/1999/xlink"><defs><clipPath id="i0"><path d="M330,0 L330,37 L0,37 L0,0 L330,0 Z"></path></clipPath><clipPath id="i1"><path d="M298,0 L298,8 L0,8 L0,0 L298,0 Z"></path></clipPath><clipPath id="i2"><path d="M16,0 L16,37 L0,37 L0,0 L16,0 Z"></path></clipPath><clipPath id="i3"><path d="M3,9.99997616 C3.55217659,9.99997616 4,10.44779 4,10.9999762 L4,12.9999762 C4,13.5521527 3.55217659,13.9999762 3,13.9999762 L1,13.9999762 C0.447813874,13.9999762 0,13.5521527 0,12.9999762 L0,10.9999762 C0,10.44779 0.447813874,9.99997616 1,9.99997616 Z M8.99998569,9.99997616 C9.55216228,9.99997616 9.99998569,10.44779 9.99998569,10.9999762 L9.99998569,12.9999762 C9.99998569,13.5521527 9.55216228,13.9999762 8.99998569,13.9999762 L6.99998569,13.9999762 C6.44779957,13.9999762 5.99998569,13.5521527 5.99998569,12.9999762 L5.99998569,10.9999762 C5.99998569,10.44779 6.44779957,9.99997616 6.99998569,9.99997616 Z M3,4.99998808 C3.55217659,4.99998808 4,5.44780195 4,5.99998808 L4,7.99998808 C4,8.55216467 3.55217659,8.99998808 3,8.99998808 L1,8.99998808 C0.447813874,8.99998808 0,8.55216467 0,7.99998808 L0,5.99998808 C0,5.44780195 0.447813874,4.99998808 1,4.99998808 Z M8.99998569,4.99998808 C9.55216228,4.99998808 9.99998569,5.44780195 9.99998569,5.99998808 L9.99998569,7.99998808 C9.99998569,8.55216467 9.55216228,8.99998808 8.99998569,8.99998808 L6.99998569,8.99998808 C6.44779957,8.99998808 5.99998569,8.55216467 5.99998569,7.99998808 L5.99998569,5.99998808 C5.99998569,5.44780195 6.44779957,4.99998808 6.99998569,4.99998808 Z M3,0 C3.55217659,0 4,0.447813874 4,1 L4,3 C4,3.55217659 3.55217659,4 3,4 L1,4 C0.447813874,4 0,3.55217659 0,3 L0,1 C0,0.447813874 0.447813874,0 1,0 Z M8.99998569,0 C9.55216228,0 9.99998569,0.447813874 9.99998569,1 L9.99998569,3 C9.99998569,3.55217659 9.55216228,4 8.99998569,4 L6.99998569,4 C6.44779957,4 5.99998569,3.55217659 5.99998569,3 L5.99998569,1 C5.99998569,0.447813874 6.44779957,0 6.99998569,0 Z"></path></clipPath><clipPath id="i4"><path d="M24,0 L24,24 L0,24 L0,0 L24,0 Z"></path></clipPath><clipPath id="i5"><path d="M8,0 L8,36 L0,36 L0,0 L8,0 Z"></path></clipPath><clipPath id="i6"><path d="M24,0 L24,6 L0,6 L0,0 L24,0 Z"></path></clipPath></defs><g clip-path="url(#i0)"><polygon points="0,0 330,0 330,37 0,37 0,0" stroke="none" fill="#F0F0F0"></polygon></g><g transform="translate(44.0 8.0)"><text transform="translate(0.0 14.0)" font-family="RedHatText-Medium, Red Hat Text" font-size="14.0" font-weight="400" fill="#0066CC" text-anchor="left" line-spacing="21.0">Type something</text></g><g transform="translate(16.0 0.0)"><g clip-path="url(#i1)"><polygon points="0,0 298,0 298,8 0,8 0,0" stroke="none" fill="rgba(146, 211, 0, 0.9)"></polygon></g><g clip-path="url(#i1)"><polygon points="0,0 298,0 298,8 0,8 0,0 0,0" stroke="#7EB200" stroke-width="2" fill="none" stroke-miterlimit="5"></polygon></g></g><g transform="translate(16.0 29.0)"><g clip-path="url(#i1)"><polygon points="0,0 298,0 298,8 0,8 0,0" stroke="none" fill="rgba(146, 211, 0, 0.9)"></polygon></g><g clip-path="url(#i1)"><polygon points="0,0 298,0 298,8 0,8 0,0 0,0" stroke="#7EB200" stroke-width="2" fill="none" stroke-miterlimit="5"></polygon></g></g><g clip-path="url(#i2)"><polygon points="0,0 16,0 16,37 0,37 0,0" stroke="none" fill="rgba(62, 156, 52, 0.9)"></polygon></g><g clip-path="url(#i2)"><polygon points="0,0 16,0 16,37 0,37 0,0 0,0" stroke="#418A37" stroke-width="2" fill="none" stroke-miterlimit="5"></polygon></g><g transform="translate(314.0 0.0)"><g clip-path="url(#i2)"><polygon points="0,0 16,0 16,37 0,37 0,0" stroke="none" fill="rgba(62, 156, 52, 0.9)"></polygon></g><g clip-path="url(#i2)"><polygon points="0,0 16,0 16,37 0,37 0,0 0,0" stroke="#418A37" stroke-width="2" fill="none" stroke-miterlimit="5"></polygon></g></g><g transform="translate(8.0 6.0)"><g transform="translate(7.0 5.0)"><g clip-path="url(#i3)"><polygon points="0,0 9.99998569,0 9.99998569,13.9999762 0,13.9999762 0,0" stroke="none" fill="#151515"></polygon><g clip-path="url(#i4)"><polygon points="0,0 9.99998569,0 9.99998569,13.9999762 0,13.9999762 0,0" stroke="none" fill="#696E73"></polygon></g></g></g></g><g clip-path="url(#i5)"><polygon points="0,0 8,0 8,36 0,36 0,0" stroke="none" fill="rgba(146, 211, 0, 0.9)"></polygon></g><g clip-path="url(#i5)"><polygon points="0,0 8,0 8,36 0,36 0,0 0,0" stroke="#7EB200" stroke-width="2" fill="none" stroke-miterlimit="5"></polygon></g><g transform="translate(32.0 0.0)"><g clip-path="url(#i5)"><polygon points="0,0 8,0 8,36 0,36 0,0" stroke="none" fill="rgba(146, 211, 0, 0.9)"></polygon></g><g clip-path="url(#i5)"><polygon points="0,0 8,0 8,36 0,36 0,0 0,0" stroke="#7EB200" stroke-width="2" fill="none" stroke-miterlimit="5"></polygon></g></g><g transform="translate(8.0 0.0)"><g clip-path="url(#i6)"><polygon points="0,0 24,0 24,6 0,6 0,0" stroke="none" fill="rgba(243, 213, 59, 0.9)"></polygon></g><g clip-path="url(#i6)"><polygon points="0,0 24,0 24,6 0,6 0,0 0,0" stroke="#CAB534" stroke-width="2" fill="none" stroke-miterlimit="5"></polygon></g></g><g transform="translate(8.0 30.0)"><g clip-path="url(#i6)"><polygon points="0,0 24,0 24,6 0,6 0,0" stroke="none" fill="rgba(243, 213, 59, 0.9)"></polygon></g><g clip-path="url(#i6)"><polygon points="0,0 24,0 24,6 0,6 0,0 0,0" stroke="#CAB534" stroke-width="2" fill="none" stroke-miterlimit="5"></polygon></g></g></svg>