<?xml version="1.0" encoding="UTF-8"?>
<svg width="330px" height="37px" viewBox="0 0 330 37" version="1.1" xmlns="http://www.w3.org/2000/svg" xmlns:xlink="http://www.w3.org/1999/xlink">
    <title></title>
    <g id="Dual-list" stroke="none" stroke-width="1" fill="none" fill-rule="evenodd">
        <g id="Dual-list-/-4.-Drag-and-drop-/-4.-Disabled">
            <rect id="Rectangle" fill="#FFFFFF" x="0" y="0" width="330" height="37"></rect>
            <text id="Label" font-family="RedHatText-Regular, Red Hat Text" font-size="14" font-weight="normal" line-spacing="21" fill="#6A6E73">
                <tspan x="44" y="22">Type something</tspan>
            </text>
            <g id="ðŸ“-Padding" fill-opacity="0.9">
                <g id="Spacer-/-Vertical-/-2.-pf-global--spacer--sm-(8px)" transform="translate(16.000000, 0.000000)" fill="#92D400" stroke="#7FB300">
                    <rect id="Rectangle-Copy" x="0.5" y="0.5" width="297" height="7"></rect>
                </g>
                <g id="Spacer-/-Vertical-/-2.-pf-global--spacer--sm-(8px)" transform="translate(16.000000, 29.000000)" fill="#92D400" stroke="#7FB300">
                    <rect id="Rectangle-Copy" x="0.5" y="0.5" width="297" height="7"></rect>
                </g>
                <g id="Spacer-/-Horizontal-/-3.-pf-global--spacer--md-(16px)" fill="#3F9C35" stroke="#418A38">
                    <rect id="Rectangle-Copy-2" x="0.5" y="0.5" width="15" height="36"></rect>
                </g>
                <g id="Spacer-/-Horizontal-/-3.-pf-global--spacer--md-(16px)" transform="translate(314.000000, 0.000000)" fill="#3F9C35" stroke="#418A38">
                    <rect id="Rectangle-Copy-2" x="0.5" y="0.5" width="15" height="36"></rect>
                </g>
            </g>
            <g id="Button-/-10.-Icon-button-/-Default">
                <g id="ðŸ–¼-Icon" transform="translate(15.000000, 11.000000)" fill="#F0F0F0">
                    <g id="grip-vertical">
                        <path d="M3,4 C3.55217659,4 4,3.55217659 4,3 L4,1 C4,0.447813874 3.55217659,0 3,0 L1,0 C0.447813874,0 0,0.447813874 0,1 L0,3 C0,3.55217659 0.447813874,4 1,4 L3,4 Z M8.99998569,4 C9.55216228,4 9.99998569,3.55217659 9.99998569,3 L9.99998569,1 C9.99998569,0.447813874 9.55216228,0 8.99998569,0 L6.99998569,0 C6.44779957,0 5.99998569,0.447813874 5.99998569,1 L5.99998569,3 C5.99998569,3.55217659 6.44779957,4 6.99998569,4 L8.99998569,4 Z M3,8.99998808 C3.55217659,8.99998808 4,8.55216467 4,7.99998808 L4,5.99998808 C4,5.44780195 3.55217659,4.99998808 3,4.99998808 L1,4.99998808 C0.447813874,4.99998808 0,5.44780195 0,5.99998808 L0,7.99998808 C0,8.55216467 0.447813874,8.99998808 1,8.99998808 L3,8.99998808 Z M8.99998569,8.99998808 C9.55216228,8.99998808 9.99998569,8.55216467 9.99998569,7.99998808 L9.99998569,5.99998808 C9.99998569,5.44780195 9.55216228,4.99998808 8.99998569,4.99998808 L6.99998569,4.99998808 C6.44779957,4.99998808 5.99998569,5.44780195 5.99998569,5.99998808 L5.99998569,7.99998808 C5.99998569,8.55216467 6.44779957,8.99998808 6.99998569,8.99998808 L8.99998569,8.99998808 Z M3,13.9999762 C3.55217659,13.9999762 4,13.5521527 4,12.9999762 L4,10.9999762 C4,10.44779 3.55217659,9.99997616 3,9.99997616 L1,9.99997616 C0.447813874,9.99997616 0,10.44779 0,10.9999762 L0,12.9999762 C0,13.5521527 0.447813874,13.9999762 1,13.9999762 L3,13.9999762 Z M8.99998569,13.9999762 C9.55216228,13.9999762 9.99998569,13.5521527 9.99998569,12.9999762 L9.99998569,10.9999762 C9.99998569,10.44779 9.55216228,9.99997616 8.99998569,9.99997616 L6.99998569,9.99997616 C6.44779957,9.99997616 5.99998569,10.44779 5.99998569,10.9999762 L5.99998569,12.9999762 C5.99998569,13.5521527 6.44779957,13.9999762 6.99998569,13.9999762 L8.99998569,13.9999762 Z"></path>
                    </g>
                    <rect id="ðŸŽ¨-Color" x="-7" y="-5" width="24" height="24"></rect>
                </g>
                <g id="ðŸ“-Padding" fill-opacity="0.9">
                    <g id="Spacer-/-Horizontal-/-3.-pf-global--spacer--md-(16px)" fill="#92D400" stroke="#7FB300">
                        <rect id="Rectangle-Copy" x="0.5" y="0.5" width="7" height="35"></rect>
                    </g>
                    <g id="Spacer-/-Horizontal-/-3.-pf-global--spacer--md-(16px)" transform="translate(32.000000, 0.000000)" fill="#92D400" stroke="#7FB300">
                        <rect id="Rectangle-Copy" x="0.5" y="0.5" width="7" height="35"></rect>
                    </g>
                    <g id="Spacer-/-Vertical-/-8.-pf-global--spacer--form-element-(6px)" transform="translate(8.000000, 0.000000)" fill="#F3D53C" stroke="#CBB534">
                        <rect id="Rectangle" x="0.5" y="0.5" width="23" height="5"></rect>
                    </g>
                    <g id="Spacer-/-Vertical-/-8.-pf-global--spacer--form-element-(6px)" transform="translate(8.000000, 30.000000)" fill="#F3D53C" stroke="#CBB534">
                        <rect id="Rectangle" x="0.5" y="0.5" width="23" height="5"></rect>
                    </g>
                </g>
            </g>
        </g>
    </g>
</svg>