<svg xmlns="http://www.w3.org/2000/svg" width="115" height="40" viewBox="0 0 115 40" style="background:#fff">
  <g fill="none" fill-rule="evenodd">
    <rect width="115" height="40" fill="#FFF"/>
    <rect width="115" height="40" fill="#F0F0F0"/>
    <text fill="#151515" font-family="RedHatText-Regular, Red Hat Text" font-size="16">
      <tspan x="16" y="24">Option</tspan>
    </text>
    <path fill="#6A6E73" d="M6.0938213,15.0013518 C6.22275013,15.0013518 6.40125465,14.9272401 6.49225785,14.8359164 L12.2018619,9.12468737 L13.0390409,9.96092806 C13.3906026,10.3124897 13.9999762,10.0663966 13.9999762,9.56249151 L13.9999762,6.56249866 C13.9999762,6.2519983 13.7479779,6 13.4374775,6 L10.4374847,6 C9.93662372,6 9.68631915,6.60726784 10.0390481,6.96093521 L10.876479,7.79836607 L5.16405972,13.5086567 C5.07273609,13.5996599 4.99862433,13.7781644 4.99862433,13.9070933 C4.99862433,14.0360221 5.07273609,14.2145266 5.16405972,14.3055298 L5.69538475,14.8359164 C5.78638795,14.9272401 5.96489247,15.0013518 6.0938213,15.0013518 Z M11.3749824,17.9999714 C11.9959831,17.9999714 12.4999797,17.4959748 12.4999797,16.8749741 L12.4999797,13.8749812 C12.4999797,13.667981 12.3319809,13.4999821 12.1249806,13.4999821 L11.3749824,13.4999821 C11.1679822,13.4999821 10.9999833,13.667981 10.9999833,13.8749812 L10.9999833,16.499975 L3.50000477,16.499975 L3.50000477,8.99999642 L6.87499315,8.99999642 C7.08199338,8.99999642 7.24999225,8.83199398 7.24999225,8.62499374 L7.24999225,7.87499553 C7.24999225,7.66799529 7.08199338,7.49999642 6.87499315,7.49999642 L3.12500209,7.49999642 C2.50400137,7.49999642 2.00000477,8.00399302 2.00000477,8.62499374 L2.00000477,16.8749741 C2.00000477,17.4959748 2.50400137,17.9999714 3.12500209,17.9999714 L11.3749824,17.9999714 Z" transform="translate(83 8)"/>
    <g fill-opacity=".9">
      <rect width="98" height="7" x=".5" y=".5" fill="#92D400" stroke="#7FB300" transform="translate(16)"/>
      <rect width="98" height="7" x=".5" y=".5" fill="#92D400" stroke="#7FB300" transform="translate(16 32)"/>
      <rect width="15" height="39" x=".5" y=".5" fill="#3F9C35" stroke="#418A38"/>
      <rect width="15" height="23" x=".5" y=".5" fill="#3F9C35" stroke="#418A38" transform="translate(67 8)"/>
      <rect width="15" height="39" x=".5" y=".5" fill="#3F9C35" stroke="#418A38" transform="translate(99)"/>
    </g>
  </g>
</svg>
