<?xml version="1.0" encoding="UTF-8"?>
<svg width="956px" height="72px" viewBox="0 0 956 72" version="1.1" xmlns="http://www.w3.org/2000/svg" xmlns:xlink="http://www.w3.org/1999/xlink">
    <title></title>
    <defs>
        <rect id="path-1" x="0" y="0" width="956" height="72"></rect>
        <filter x="-0.1%" y="-0.7%" width="100.1%" height="101.4%" filterUnits="objectBoundingBox" id="filter-2">
            <feOffset dx="0" dy="-1" in="SourceAlpha" result="shadowOffsetInner1"></feOffset>
            <feComposite in="shadowOffsetInner1" in2="SourceAlpha" operator="arithmetic" k2="-1" k3="1" result="shadowInnerInner1"></feComposite>
            <feColorMatrix values="0 0 0 0 0.823529412   0 0 0 0 0.823529412   0 0 0 0 0.823529412  0 0 0 1 0" type="matrix" in="shadowInnerInner1"></feColorMatrix>
        </filter>
    </defs>
    <g id="Data-List-and-Table" stroke="none" stroke-width="1" fill="none" fill-rule="evenodd">
        <g id="Data-list-and-tables-/-2.-Default-size-row-/-5.-With-radio-button-/-1.-Default">
            <g id="Rectangle">
                <use fill="#FFFFFF" fill-rule="evenodd" xlink:href="#path-1"></use>
                <use fill="black" fill-opacity="1" filter="url(#filter-2)" xlink:href="#path-1"></use>
            </g>
            <g id="Table-/-2.-Row-/-1.-Default-size-/-1.-Standard-/-1.-Default">
                <g id="Radio-Button" transform="translate(16.000000, 24.000000)" fill="#FFFFFF" stroke="#6A6E73">
                    <circle cx="16" cy="12" r="7.5"></circle>
                </g>
                <g id="Kebab" transform="translate(902.000000, 18.000000)">
                    <g id="ðŸ–¼-Icon" transform="translate(8.000000, 6.000000)" fill="#6A6E73">
                        <path d="M12.2499946,8.49998927 C13.4937356,8.49998927 14.4999893,7.49373557 14.4999893,6.24999464 C14.4999893,5.0062537 13.4937356,4 12.2499946,4 C11.0062537,4 10,5.0062537 10,6.24999464 C10,7.49373557 11.0062537,8.49998927 12.2499946,8.49998927 Z M12.2499946,13.9999762 C13.4937356,13.9999762 14.4999893,12.9937225 14.4999893,11.7499815 C14.4999893,10.5062406 13.4937356,9.49998689 12.2499946,9.49998689 C11.0062537,9.49998689 10,10.5062406 10,11.7499815 C10,12.9937225 11.0062537,13.9999762 12.2499946,13.9999762 Z M12.2499946,19.499963 C13.4937356,19.499963 14.4999893,18.4937093 14.4999893,17.2499684 C14.4999893,16.0062275 13.4937356,14.9999738 12.2499946,14.9999738 C11.0062537,14.9999738 10,16.0062275 10,17.2499684 C10,18.4937093 11.0062537,19.499963 12.2499946,19.499963 Z" id="ellipsis-v"></path>
                    </g>
                    <g id="ðŸ“-Padding" fill-opacity="0.9">
                        <g id="Spacer-/-Horizontal-/-2.-pf-global--spacer--sm-(8px)" fill="#92D400" stroke="#7FB300">
                            <rect id="Rectangle-Copy" x="0.5" y="0.5" width="7" height="35"></rect>
                        </g>
                        <g id="Spacer-/-Horizontal-/-2.-pf-global--spacer--sm-(8px)" transform="translate(32.000000, 0.000000)" fill="#92D400" stroke="#7FB300">
                            <rect id="Rectangle-Copy" x="0.5" y="0.5" width="7" height="35"></rect>
                        </g>
                        <g id="Spacer-/-Vertical-/-8.-pf-global--spacer--form-element-(6px)" transform="translate(8.000000, 0.000000)" fill="#F3D53C" stroke="#CBB534">
                            <rect id="Rectangle" x="0.5" y="0.5" width="23" height="5"></rect>
                        </g>
                        <g id="Spacer-/-Vertical-/-8.-pf-global--spacer--form-element-(6px)" transform="translate(8.000000, 30.000000)" fill="#F3D53C" stroke="#CBB534">
                            <rect id="Rectangle" x="0.5" y="0.5" width="23" height="5"></rect>
                        </g>
                    </g>
                </g>
                <g id="ðŸ“-Padding" fill="#007A87" fill-opacity="0.9" stroke="#09707B">
                    <g id="Spacer-/-Horizontal-/-4.-pf-global--spacer--lg-(24px)">
                        <rect id="Rectangle-Copy-3" x="0.5" y="0.5" width="23" height="71"></rect>
                    </g>
                    <g id="Spacer-/-Horizontal-/-4.-pf-global--spacer--lg-(24px)" transform="translate(932.000000, 0.000000)">
                        <rect id="Rectangle-Copy-3" x="0.5" y="0.5" width="23" height="71"></rect>
                    </g>
                    <g id="Spacer-/-Vertical-/-4.-pf-global--spacer--lg-(24px)" transform="translate(24.000000, 0.000000)">
                        <rect id="Rectangle-Copy-3" x="0.5" y="0.5" width="907" height="23"></rect>
                    </g>
                    <g id="Spacer-/-Vertical-/-4.-pf-global--spacer--lg-(24px)" transform="translate(24.000000, 48.000000)">
                        <rect id="Rectangle-Copy-3" x="0.5" y="0.5" width="907" height="23"></rect>
                    </g>
                </g>
            </g>
        </g>
    </g>
</svg>