<?xml version="1.0" encoding="UTF-8"?>
<svg width="106px" height="56px" viewBox="0 0 106 56" version="1.1" xmlns="http://www.w3.org/2000/svg" xmlns:xlink="http://www.w3.org/1999/xlink">
    <title></title>
    <g id="Data-List-and-Table" stroke="none" stroke-width="1" fill="none" fill-rule="evenodd">
        <g id="Data-list-+-table/2.-Table-header/Large-(16px-spacers)/4.-Sortable">
            <text id="âœï¸-Category" font-family="RedHatText-Medium, Red Hat Text" font-size="14" font-weight="400" line-spacing="18.2000008" fill="#151515">
                <tspan x="0" y="33">Category</tspan>
            </text>
            <g id="Icons-/-Framework-/-long-arrow-alt-up" transform="translate(82.000000, 16.000000)">
                <g id="arrows-alt-v" fill="#151515">
                    <path d="M12.9711625,19.7803121 L15.6605176,17.0909875 C16.1330202,16.6185154 15.7983957,15.810656 15.1301844,15.810656 L13.6908568,15.810656 L13.6908568,8.18933633 L15.1301844,8.18933633 C15.7983957,8.18933633 16.1330202,7.38150744 15.6605481,6.90900491 L12.971193,4.21968026 C12.678286,3.92677325 12.2034641,3.92677325 11.9105571,4.21968026 L9.22120193,6.90900491 C8.74872991,7.38147692 9.08335436,8.18933633 9.75156565,8.18933633 L11.1908628,8.18933633 L11.1908628,15.810656 L9.75153514,15.810656 C9.08332384,15.810656 8.74869939,16.6184849 9.22117141,17.0909875 L11.9105266,19.7803121 C12.2034336,20.0732191 12.6782555,20.0732191 12.9711625,19.7803121 Z"></path>
                </g>
                <rect id="ðŸŽ¨-Color" fill="#D2D2D2" x="0" y="0" width="24" height="24"></rect>
            </g>
            <g id="ðŸ“-Padding" transform="translate(66.000000, 0.000000)" fill="#3F9C35" fill-opacity="0.9" stroke="#418A38">
                <g id="Spacer-/-Horizontal-/-3.-pf-global--spacer--md-(16px)">
                    <rect id="Rectangle-Copy-2" x="0.5" y="0.5" width="15" height="55"></rect>
                </g>
            </g>
        </g>
    </g>
</svg>