<?xml version="1.0" encoding="UTF-8"?>
<svg width="24px" height="24px" viewBox="0 0 24 24" version="1.1" xmlns="http://www.w3.org/2000/svg" xmlns:xlink="http://www.w3.org/1999/xlink">
    <title></title>
    <g id="Icons" stroke="none" stroke-width="1" fill="none" fill-rule="evenodd">
        <g id="Icons-/-3.-Size-lg-/-Brands-/-Google" fill="#151515">
            <path d="M12.6249723,23.2499446 C19.3327505,23.2499446 23.8749455,18.5296342 23.8749455,11.8968375 C23.8749455,11.1234018 23.799964,10.551519 23.6921151,9.95624457 L12.6249723,9.95624457 L12.6249723,13.9546634 L19.2249474,13.9546634 C18.9530822,15.6655968 17.2280955,18.9655615 12.6249723,18.9655615 C8.65937505,18.9655615 5.42029281,15.6796501 5.42029281,11.6249723 C5.42029281,5.09059455 13.1171586,2.09060171 17.2562021,6.08435134 L20.420257,3.04219856 C18.3905835,1.14843476 15.7562057,0 12.6249723,0 C6.19372846,0 1,5.19372846 1,11.6249723 C1,18.0562161 6.19372846,23.2499446 12.6249723,23.2499446 Z" id="google"></path>
        </g>
    </g>
</svg>