<?xml version="1.0" encoding="UTF-8"?>
<svg width="24px" height="24px" viewBox="0 0 24 24" version="1.1" xmlns="http://www.w3.org/2000/svg" xmlns:xlink="http://www.w3.org/1999/xlink">
    <title></title>
    <g id="Icons" stroke="none" stroke-width="1" fill="none" fill-rule="evenodd">
        <g id="Icons-/-3.-Size-lg-/-Brands-/-linux" fill="#151515">
            <path d="M16.5183998,23.9952872 C17.2965047,23.9343132 18.1168152,23.4796634 18.7824478,22.6874595 C19.419928,21.918693 20.4699438,21.5999529 21.1683521,21.1780789 C21.5152446,20.9671419 21.796494,20.7046609 21.8199314,20.3202776 C21.8386997,19.9358944 21.6136636,19.5093512 21.0933706,18.9280843 C20.9246393,18.7405847 20.8449429,18.3843539 20.7558623,18.0046398 C20.6714966,17.6249716 20.5730777,17.2171509 20.263676,16.9546698 C20.2027478,16.90308 20.1418196,16.8562051 20.0761764,16.8187143 C20.0152482,16.7812236 19.949605,16.748402 19.8840077,16.7249646 C20.3152658,15.4452893 20.1464887,14.1702831 19.7105614,13.0171792 C19.1761694,11.6062176 18.2433866,10.3734172 17.5308791,9.52966921 L17.2328988,9.15316976 C16.5471774,8.27569871 15.9529429,7.38926865 15.9652395,6.15467725 C15.988677,4.00314735 16.2043289,0.00468275974 12.4121322,8.52651283e-14 C7.61217108,-0.00937055148 8.81214991,4.84689534 8.76060584,6.33750763 C8.68090938,7.43435255 8.46058825,8.2968688 7.70592086,9.37032205 C6.81996716,10.425007 5.57311344,12.1265563 4.98246239,13.9030871 C4.70121306,14.7421659 4.56997252,15.5952981 4.69182892,16.4015553 C4.38714215,16.6734205 4.15748266,17.0905795 3.91372409,17.3483914 C3.7168404,17.54999 3.43092189,17.6249716 3.11685099,17.7374896 C2.80278008,17.8499619 2.46060255,18.0187389 2.24966556,18.4171755 C2.1512466,18.5999601 2.11842502,18.7968438 2.11842502,18.9983966 C2.11842502,19.181227 2.14653165,19.3687266 2.17468405,19.5515112 C2.23089729,19.9312252 2.29187127,20.2874561 2.2121748,20.5265455 C1.96841623,21.2015164 1.93559465,21.6702653 2.10904089,22.0124428 C2.28715631,22.3546661 2.64343293,22.5046291 3.05120783,22.5890405 C3.86218002,22.7577718 4.9637399,22.7155661 5.83092533,23.1749766 C6.75903896,23.662448 7.7012059,23.8358943 8.45120411,23.662448 C8.99498028,23.5405916 9.44029172,23.2124674 9.66528203,22.7155661 C10.2512181,22.7108969 10.8980824,22.4624692 11.92933,22.4062102 C12.6277841,22.3499511 13.5043079,22.6546379 14.512118,22.5983789 C14.5402704,22.7062278 14.5777612,22.8140308 14.6293052,22.9124498 L14.6293052,22.9171648 C15.0184034,23.6999388 15.7449642,24.0562154 16.5183998,23.9952872 Z M13.7527814,5.9671777 C13.6777542,5.92968694 13.4762013,5.8453213 13.1621304,5.73751821 C13.2137202,5.68125919 13.30747,5.61094686 13.3449608,5.52186626 C13.5699511,4.96875173 13.3355766,4.25624428 12.9183718,4.24219097 C12.5761943,4.21875352 12.2668383,4.74843061 12.3652573,5.3203134 C12.1730886,5.22656362 11.9246608,5.15625129 11.7558837,5.11404558 C11.7090088,4.79063631 11.7418304,4.42969052 11.8918392,4.09218217 C12.351204,3.0515505 13.4949696,3.07031876 13.9543343,4.07345968 C14.2590211,4.73904647 14.1230656,5.52186626 13.7527814,5.9671777 Z M9.59025474,5.9953301 C8.8590248,5.31092926 9.09806842,3.55312095 9.98402212,3.55312095 C10.4574402,3.55312095 10.9590106,4.21875352 10.8793142,5.12342971 C10.7152521,5.1703046 10.5465208,5.24061693 10.4012269,5.33908166 C10.4574402,4.92187685 10.2465032,4.39686894 9.95120054,4.42030639 C9.55747894,4.45312796 9.49183579,5.41406317 9.8668349,5.73751821 C9.91370978,5.77500897 9.95591549,5.72813408 9.59025474,5.9953301 Z M11.2262067,8.49375249 C11.0433763,8.48436835 10.8980824,8.4468776 10.776226,8.39528775 C10.4012269,8.23122565 10.2043432,7.90781638 9.83872827,7.69216443 C9.43557677,7.46717412 9.21997059,7.20469306 9.14965826,6.9749878 C9.08401511,6.74532831 9.14965826,6.5531138 9.34654195,6.39843583 L9.54444106,6.2520701 C9.77533098,6.08166525 9.98923044,5.92447862 10.0074596,5.9062495 C10.2277807,5.69998168 10.6402706,5.24061693 11.3152873,5.24061693 C11.6480806,5.24061693 12.0465172,5.34842002 12.5293194,5.65782175 C12.824622,5.84999048 13.0589965,5.86404379 13.5887193,6.09374905 C13.9824409,6.25781116 14.2308687,6.54844462 14.0809057,6.94688117 C13.9590035,7.27967457 13.5652819,7.6218521 13.0168365,7.79529834 C12.4964978,7.9640754 12.0887229,8.54529655 11.2262067,8.49375249 Z M11.1840009,7.8000133 C11.7277771,7.8000133 12.2386859,7.52343314 12.674659,7.29372788 C12.9043185,7.17187148 13.1855678,6.96560366 13.3683982,6.80625651 C13.5511828,6.64686358 13.6449326,6.51095387 13.513692,6.49685478 C13.3824515,6.48280147 13.3918356,6.61875696 13.2324427,6.73594418 C13.0262207,6.88595297 12.7777471,7.08279088 12.5809092,7.19530893 C12.2340168,7.39219261 11.6668489,7.67344194 11.1793318,7.67344194 C10.6918146,7.67344194 10.3027622,7.44845163 10.0121287,7.21874637 C9.8668349,7.10155915 9.7449785,6.98437193 9.65122872,6.89529133 C9.58091639,6.82969395 9.56214812,6.67968516 9.44963008,6.66563184 C9.3840327,6.66091689 9.36526444,6.83907809 9.52932654,6.97031862 C9.62307632,7.05935344 9.74964767,7.18125562 9.90432565,7.30311201 C10.2137274,7.54687059 10.6449397,7.8000133 11.1840009,7.8000133 Z M9.43557677,20.8405706 C9.24340804,20.5312146 8.98559615,20.2030904 8.76060584,19.9218411 C9.09339924,19.9218411 9.42619264,19.8187072 9.54337986,19.5046363 C9.65122872,19.2140486 9.54337986,18.8062279 9.19653315,18.337479 C8.56372216,17.4843469 7.40123408,16.8140451 7.40123408,16.8140451 C6.76842309,16.4202778 6.41214648,15.9374756 6.24808437,15.4124677 C6.08402226,14.8874598 6.1074597,14.3202919 6.23403106,13.7624625 C6.47778963,12.689055 7.10588567,11.6437541 7.50903717,10.9875057 C7.61684026,10.9078092 7.54652793,11.1374687 7.10121649,11.9624942 C6.70277994,12.7171616 5.95745091,14.4609166 6.97936009,15.8249575 C7.00746671,14.854684 7.23717198,13.8655964 7.62622439,12.9421519 C8.18872305,11.6578074 9.37464857,9.43125025 9.46839834,7.65938863 C9.51994241,7.69687939 9.68400452,7.80935165 9.75903181,7.85155736 C9.97463798,7.97812872 10.1387001,8.16562827 10.3496371,8.33435956 C10.930904,8.80310844 11.6855714,8.76562126 12.3371507,8.39061858 C12.6277841,8.22655647 12.8621586,8.03905691 13.0824339,7.96874458 C13.5465136,7.82345074 13.9168435,7.56563885 14.1277805,7.26562126 C14.4886806,8.69063617 15.3324286,10.7484163 15.8714898,11.7515572 C16.1574541,12.2859035 16.7293368,13.4156158 16.9777646,14.7796567 C17.1324426,14.7749875 17.3058888,14.798425 17.4886734,14.8452998 C18.1355835,13.1718572 16.9402738,11.367174 16.3964977,10.8656035 C16.1761765,10.6499973 16.1668382,10.5562476 16.2746413,10.5609167 C16.8652466,11.0859247 17.6433972,12.1406096 17.9246465,13.3265352 C18.055887,13.8703113 18.0793245,14.4374792 17.943369,14.9999778 C18.7121355,15.3187179 19.6261958,15.8390566 19.3824372,16.6312148 C19.2793033,16.6265456 19.2324284,16.6312148 19.1855535,16.6312148 C19.3355623,16.1577967 19.0027689,15.8062351 18.1168152,15.4077985 C17.1980857,15.004647 16.4293192,15.004647 16.3215162,15.9937346 C15.7543025,16.1906183 15.4637149,16.6828046 15.3183752,17.2734099 C15.1871347,17.7984178 15.149644,18.4312288 15.1121532,19.1437362 C15.0887158,19.5046363 14.9433761,19.9874842 14.7933673,20.503108 C13.2887017,21.5765155 11.1981,22.0452644 9.43557677,20.8405706 Z M14.9152695,22.7718251 C14.6949484,22.2515322 14.8027515,21.6890335 14.9668136,21.0702758 C15.1402598,20.4046433 15.3980717,19.7202882 15.4308933,19.1671737 C15.468384,18.4546662 15.5105897,17.8312394 15.627777,17.3531064 C15.7496334,16.8703042 15.9371329,16.5468491 16.2699263,16.3640188 L16.3168012,16.3405813 L16.3168012,16.3405813 C16.3543377,16.959339 16.6590245,17.5874808 17.1980857,17.7233905 C17.788691,17.8781143 18.6371082,17.3718289 18.998054,16.959339 C19.419928,16.9452857 19.7339989,16.9171791 20.0574539,17.1984284 C20.5214878,17.5968649 20.3902473,18.6187283 20.8589962,19.1484054 C21.3558517,19.6921358 21.5152446,20.0624657 21.5011913,20.3015094 C21.4589856,21.0890441 19.5699368,21.234338 18.5386892,22.4811917 C17.9199315,23.2171366 17.1605492,23.6249573 16.4949624,23.6765013 C15.8293298,23.7280912 15.2527779,23.451511 14.9152695,22.7718251 Z M5.97154999,22.8983965 C4.56997252,22.1577824 2.75590519,22.5937097 2.38562104,21.8718181 C2.273103,21.6515428 2.273103,21.2765437 2.50747744,20.6343485 L2.50747744,20.6249644 C2.61999548,20.2687336 2.53558406,19.8749662 2.47937082,19.5046363 C2.4231118,19.1390213 2.3949594,18.8015129 2.52153075,18.5671385 C2.68559286,18.2531134 2.9199673,18.1405953 3.21526994,18.0374614 C3.69811791,17.8640152 3.76843025,17.8781143 4.13404522,17.5734275 C4.3918571,17.3062315 4.57935666,16.9687231 4.80434696,16.7296795 C5.04339058,16.4718676 5.27309585,16.3499654 5.63404164,16.4062245 C6.01370993,16.4624835 6.34183414,16.7249646 6.66057423,17.1562227 L7.5793495,18.8249504 C8.02466094,19.757779 9.59963888,21.0937133 9.50121992,22.0546485 C9.37464857,23.6999388 7.44339402,23.667163 5.97154999,22.8983965 Z" id="linux"></path>
        </g>
    </g>
</svg>