<?xml version="1.0" encoding="UTF-8"?>
<svg width="24px" height="24px" viewBox="0 0 24 24" version="1.1" xmlns="http://www.w3.org/2000/svg" xmlns:xlink="http://www.w3.org/1999/xlink">
    <title></title>
    <g id="Icons" stroke="none" stroke-width="1" fill="none" fill-rule="evenodd">
        <g id="Icons-/-3.-Size-lg-/-Brands-/-twitter" fill="#151515">
            <path d="M7.55326568,21.4923089 C16.5989747,21.4923089 21.5481664,13.9999256 21.5481664,7.49745393 C21.5481664,7.2842739 21.5481664,7.07100231 21.5329229,6.85782228 C22.4923017,6.1573082 23.3299157,5.2892988 23.9998512,4.31472226 C23.1166441,4.69539763 22.1572653,4.96955164 21.1673995,5.07611876 C22.1876607,4.46701987 22.9643007,3.50764106 23.3298241,2.36547764 C22.3855973,2.9289376 21.3196513,3.34009995 20.2080207,3.55327999 C19.3094785,2.59390117 18.0303525,2 16.6140809,2 C13.888242,2 11.6953304,4.20810936 11.6953304,6.91875048 C11.6953304,7.29947162 11.7410151,7.68014698 11.817141,8.04562462 C7.73600451,7.83239881 4.09638,5.88319997 1.67509061,2.89845062 C1.24863899,3.62940591 1.00506352,4.4669741 1.00506352,5.38066821 C1.00506352,7.08624581 1.87302715,8.59384109 3.19788361,9.47709399 C2.39084818,9.44669855 1.62936013,9.21827503 0.974576534,8.85279738 L0.974576534,8.91367981 C0.974576534,11.304528 2.66495641,13.284168 4.91875048,13.7410609 C4.50763391,13.847628 4.06598457,13.9085562 3.62438101,13.9085562 C3.30454229,13.9085562 3,13.878115 2.69539763,13.8324303 C3.31978579,15.7816749 5.13197629,17.1979008 7.29440094,17.2436313 C5.60402106,18.5684877 3.48723534,19.3451277 1.18780234,19.3451277 C0.776639994,19.3451277 0.395964632,19.3298842 0,19.2842453 C2.17766815,20.6851819 4.76645287,21.4923089 7.55326568,21.4923089 Z" id="twitter"></path>
        </g>
    </g>
</svg>