<?xml version="1.0" encoding="UTF-8"?><svg version="1.1" width="130px" height="53px" viewBox="0 0 130.0 53.0" xmlns="http://www.w3.org/2000/svg" xmlns:xlink="http://www.w3.org/1999/xlink"><defs><clipPath id="i0"><path d="M130,0 L130,53 L0,53 L0,0 L130,0 Z"></path></clipPath><clipPath id="i1"><path d="M1,0 L1,53 L0,53 L0,0 L1,0 Z"></path></clipPath><clipPath id="i2"><path d="M82,0 L82,16 L0,16 L0,0 L82,0 Z"></path></clipPath><clipPath id="i3"><path d="M24,0 L24,53 L0,53 L0,0 L24,0 Z"></path></clipPath></defs><g clip-path="url(#i0)"><polygon points="0,0 130,0 130,53 0,53 0,0" stroke="none" fill="#4F5255"></polygon></g><g transform="translate(24.0 16.0)"><text transform="translate(0.0 14.0)" font-family="RedHatText-Regular, Red Hat Text" font-size="14.0" font-weight="normal" fill="#EFF0EF" text-anchor="left" line-spacing="21.0">Sub nav item</text></g><g clip-path="url(#i1)"><polygon points="0,0 1,0 1,53 0,53 0,0" stroke="none" fill="#3B3F41"></polygon></g><g transform="translate(24.0 0.0)"><g clip-path="url(#i2)"><polygon points="0,0 82,0 82,16 0,16 0,0" stroke="none" fill="rgba(62, 156, 52, 0.9)"></polygon></g><g clip-path="url(#i2)"><polygon points="0,0 82,0 82,16 0,16 0,0 0,0" stroke="#418A37" stroke-width="2" fill="none" stroke-miterlimit="5"></polygon></g></g><g transform="translate(24.0 37.0)"><g clip-path="url(#i2)"><polygon points="0,0 82,0 82,16 0,16 0,0" stroke="none" fill="rgba(62, 156, 52, 0.9)"></polygon></g><g clip-path="url(#i2)"><polygon points="0,0 82,0 82,16 0,16 0,0 0,0" stroke="#418A37" stroke-width="2" fill="none" stroke-miterlimit="5"></polygon></g></g><g clip-path="url(#i3)"><polygon points="0,0 24,0 24,53 0,53 0,0" stroke="none" fill="rgba(0, 121, 135, 0.9)"></polygon></g><g clip-path="url(#i3)"><polygon points="0,0 24,0 24,53 0,53 0,0 0,0" stroke="#09707A" stroke-width="2" fill="none" stroke-miterlimit="5"></polygon></g><g transform="translate(106.0 0.0)"><g clip-path="url(#i3)"><polygon points="0,0 24,0 24,53 0,53 0,0" stroke="none" fill="rgba(0, 121, 135, 0.9)"></polygon></g><g clip-path="url(#i3)"><polygon points="0,0 24,0 24,53 0,53 0,0 0,0" stroke="#09707A" stroke-width="2" fill="none" stroke-miterlimit="5"></polygon></g></g></svg>