<?xml version="1.0" encoding="UTF-8"?><svg version="1.1" width="24px" height="24px" viewBox="0 0 24.0 24.0" xmlns="http://www.w3.org/2000/svg" xmlns:xlink="http://www.w3.org/1999/xlink"><defs><clipPath id="i0"><path d="M0.923421565,0.22032113 C1.21718307,-0.0734403767 1.69218804,-0.0734403767 1.98280625,0.22032113 L6.23279611,4.470311 C6.52967041,4.7640725 6.52967041,5.23904696 6.2359089,5.53280846 L1.98591903,9.78279833 C1.69218804,10.0765598 1.21718307,10.0765598 0.926564869,9.78279833 L0.220298242,9.07656222 C-0.0734327473,8.78280072 -0.0734327473,8.30779574 0.220298242,8.01717754 L3.23280327,5.00467252 L0.220298242,1.99219801 C-0.0734327473,1.6984365 -0.0734327473,1.22343153 0.220298242,0.932813328 Z M6.92655056,0.22032113 C7.21716877,-0.0734403767 7.69217374,-0.0734403767 7.98590473,0.22032113 L12.2358946,4.470311 C12.5296561,4.7640725 12.5296561,5.23904696 12.2358946,5.52655238 L7.98590473,9.77654224 C7.69528652,10.0703037 7.22028155,10.0703037 6.92655056,9.77654224 L6.22028394,9.07030613 C5.92655295,8.77968793 5.92655295,8.30468296 6.22028394,8.01092145 L9.23278896,4.99844695 L6.22028394,1.98594192 C5.92655295,1.69532372 5.92655295,1.22031875 6.22028394,0.926557239 Z"></path></clipPath></defs><g transform="translate(6.0 6.999999999999999)"><g clip-path="url(#i0)"><polygon points="0,-2.77555756e-17 12.4562157,-2.77555756e-17 12.4562157,10.0031195 0,10.0031195 0,-2.77555756e-17" stroke="none" fill="#151515"></polygon></g></g></svg>