<?xml version="1.0" encoding="UTF-8"?>
<svg width="24px" height="24px" viewBox="0 0 24 24" version="1.1" xmlns="http://www.w3.org/2000/svg" xmlns:xlink="http://www.w3.org/1999/xlink">
    <title></title>
    <g id="Icons" stroke="none" stroke-width="1" fill="none" fill-rule="evenodd">
        <g id="Icons/1.-Size-md/Framework/angle-double-left" fill="#151515">
            <path d="M17.5324066,16.7827983 L18.2386427,16.0734189 C18.5324042,15.7828007 18.5324042,15.3077957 18.2386427,15.0140648 L15.2261682,12.0015597 L18.2355299,8.98594192 C18.5292609,8.69532372 18.5292609,8.22031875 18.2355299,7.92655724 L17.5292633,7.22032113 C17.2386451,6.92655962 16.7636401,6.92655962 16.4699091,7.22032113 L12.2199193,11.470311 C11.9261578,11.7640725 11.9261578,12.239047 12.2230321,12.5328085 L16.4730219,16.7827983 C16.7636401,17.0765598 17.2386451,17.0765598 17.5324066,16.7827983 Z M11.5292776,16.7827983 L12.2355442,16.0765622 C12.5292752,15.7828007 12.5292752,15.3077957 12.2355442,15.0171775 L9.22618251,12.0015597 L12.238657,8.98905471 C12.5324185,8.69532372 12.5324185,8.22031875 12.238657,7.92970054 L11.5324209,7.22032113 C11.2386594,6.92655962 10.7636544,6.92655962 10.4730362,7.22032113 L6.22304636,11.470311 C5.92617206,11.7640725 5.92617206,12.239047 6.21993357,12.5328085 L10.4699234,16.7827983 C10.7636544,17.0765598 11.2386594,17.0765598 11.5292776,16.7827983 Z" id="angle-double-left"></path>
        </g>
    </g>
</svg>