<?xml version="1.0" encoding="UTF-8"?><svg version="1.1" width="24px" height="24px" viewBox="0 0 24.0 24.0" xmlns="http://www.w3.org/2000/svg" xmlns:xlink="http://www.w3.org/1999/xlink"><defs><clipPath id="i0"><path d="M10.4699091,0.22032113 C10.7636401,-0.0734403767 11.2386451,-0.0734403767 11.5292633,0.22032113 L12.2355299,0.926557239 C12.5292609,1.22031875 12.5292609,1.69532372 12.2355299,1.98594192 L9.2261682,5.00155973 L12.2386427,8.01406476 C12.5324042,8.30779574 12.5324042,8.78280072 12.2386427,9.07341892 L11.5324066,9.78279833 C11.2386451,10.0765598 10.7636401,10.0765598 10.4730219,9.78279833 L6.22303205,5.53280846 C5.92615776,5.23904696 5.92615776,4.7640725 6.21991926,4.470311 Z M4.47303622,0.22032113 C4.76365443,-0.0734403767 5.2386594,-0.0734403767 5.5324209,0.22032113 L6.23865701,0.929700542 C6.53241852,1.22031875 6.53241852,1.69532372 6.23865701,1.98905471 L3.22618251,5.00155973 L6.23554423,8.01717754 C6.52927522,8.30779574 6.52927522,8.78280072 6.23554423,9.07656222 L5.5292776,9.78279833 C5.2386594,10.0765598 4.76365443,10.0765598 4.46992344,9.78279833 L0.21993357,5.53280846 C-0.0738279369,5.23904696 -0.0738279369,4.7640725 0.223046355,4.470311 Z"></path></clipPath></defs><g transform="translate(6.000000000000001 6.999999999999999)"><g clip-path="url(#i0)"><polygon points="4.21607194e-14,-2.77555756e-17 12.4589638,-2.77555756e-17 12.4589638,10.0031195 4.21607194e-14,10.0031195 4.21607194e-14,-2.77555756e-17" stroke="none" fill="#151515"></polygon></g></g></svg>