<?xml version="1.0" encoding="UTF-8"?><svg version="1.1" width="24px" height="24px" viewBox="0 0 24.0 24.0" xmlns="http://www.w3.org/2000/svg" xmlns:xlink="http://www.w3.org/1999/xlink"><defs><clipPath id="i0"><path d="M4.470311,0.223046355 C4.7640725,-0.0738279369 5.23904696,-0.0738279369 5.53280846,0.21993357 L9.78279833,4.46992344 C10.0765598,4.76365443 10.0765598,5.2386594 9.78279833,5.5292776 L9.07656222,6.23554423 C8.78280072,6.52927522 8.30779574,6.52927522 8.01717754,6.23554423 L5.00155973,3.22618251 L1.98905471,6.23865701 C1.69532372,6.53241852 1.22031875,6.53241852 0.929700542,6.23865701 L0.22032113,5.5324209 C-0.0734403767,5.2386594 -0.0734403767,4.76365443 0.22032113,4.47303622 Z"></path></clipPath></defs><g transform="translate(6.999999999999999 9.0)"><g clip-path="url(#i0)"><polygon points="-2.77555756e-17,4.22994972e-14 10.0031195,4.22994972e-14 10.0031195,6.45897814 -2.77555756e-17,6.45897814 -2.77555756e-17,4.22994972e-14" stroke="none" fill="#151515"></polygon></g></g></svg>