<?xml version="1.0" encoding="UTF-8"?>
<svg width="24px" height="24px" viewBox="0 0 24 24" version="1.1" xmlns="http://www.w3.org/2000/svg" xmlns:xlink="http://www.w3.org/1999/xlink">
    <title></title>
    <g id="Icons" stroke="none" stroke-width="1" fill="none" fill-rule="evenodd">
        <g id="Icons/1.-Size-md/Framework/arrow-right" fill="#151515">
            <path d="M12.1874829,18.6249675 C12.3958159,18.6249675 12.5728985,18.5520512 12.7187316,18.406218 L18.7812171,12.3437325 C18.9270503,12.1978993 18.9999666,12.0208168 18.9999666,11.8124838 C18.9999666,11.6041508 18.9270503,11.4270682 18.7812171,11.281235 L12.7187316,5.21874948 C12.5728985,5.07291633 12.3958159,5 12.1874829,5 C11.9791499,5 11.8020673,5.07291633 11.6562341,5.21874948 L10.9687358,5.90624784 C10.8020697,6.05208098 10.7239448,6.22916358 10.7343613,6.43749657 C10.7447778,6.64582957 10.8229026,6.82291216 10.9687358,6.96874531 L14.7187268,10.5624867 L5.74999821,10.5624867 C5.54166522,10.5624867 5.36458262,10.6354031 5.21874948,10.7812362 C5.07291633,10.9270694 5,11.104152 5,11.3124849 L5,12.3124826 C5,12.5208156 5.07291633,12.6978982 5.21874948,12.8437313 C5.36458262,12.9895644 5.54166522,13.0624808 5.74999821,13.0624808 L14.7187268,13.0624808 L10.9687358,16.6562222 C10.8229026,16.8020554 10.7447778,16.9791379 10.7343613,17.1874709 C10.7239448,17.3958039 10.8020697,17.5728865 10.9687358,17.7187197 L11.6562341,18.406218 C11.8020673,18.5520512 11.9791499,18.6249675 12.1874829,18.6249675 Z" id="arrow-right"></path>
        </g>
    </g>
</svg>