<?xml version="1.0" encoding="UTF-8"?><svg version="1.1" width="24px" height="24px" viewBox="0 0 24.0 24.0" xmlns="http://www.w3.org/2000/svg" xmlns:xlink="http://www.w3.org/1999/xlink"><defs><clipPath id="i0"><path d="M2.91055709,0.219680262 C3.20346411,-0.0732267541 3.67828597,-0.0732267541 3.97119299,0.219680262 L6.66054815,2.90900491 C7.13302017,3.38150744 6.79839572,4.18933633 6.13018442,4.18933633 L4.6908568,4.18933633 L4.6908568,11.810656 L6.13018442,11.810656 C6.79839572,11.810656 7.13302017,12.6185154 6.66051763,13.0909875 L3.97116247,15.7803121 C3.67825545,16.0732191 3.20343359,16.0732191 2.91052657,15.7803121 L0.221171411,13.0909875 C-0.251300607,12.6184849 0.0833238396,11.810656 0.751535137,11.810656 L2.19086276,11.810656 L2.19086276,4.18933633 L0.751565655,4.18933633 C0.0833543572,4.18933633 -0.251270089,3.38147692 0.221201929,2.90900491 Z"></path></clipPath></defs><g transform="translate(9.0 4.0)"><g clip-path="url(#i0)"><polygon points="-5.35127498e-14,0 6.88171956,0 6.88171956,15.9999924 -5.35127498e-14,15.9999924 -5.35127498e-14,0" stroke="none" fill="#151515"></polygon></g></g></svg>