<?xml version="1.0" encoding="UTF-8"?><svg version="1.1" width="24px" height="24px" viewBox="0 0 24.0 24.0" xmlns="http://www.w3.org/2000/svg" xmlns:xlink="http://www.w3.org/1999/xlink"><defs><clipPath id="i0"><path d="M7.18748286,0 C7.39581586,0 7.57289845,0.0729163339 7.7187316,0.218749478 L13.7812171,6.28123502 C13.9270503,6.42706817 13.9999666,6.60415076 13.9999666,6.81248376 C13.9999666,7.02081675 13.9270503,7.19789935 13.7812171,7.34373249 L7.7187316,13.406218 C7.57289845,13.5520512 7.39581586,13.6249675 7.18748286,13.6249675 C6.97914987,13.6249675 6.80206727,13.5520512 6.65623413,13.406218 L5.96873577,12.7187197 C5.80206966,12.5728865 5.72394485,12.3958039 5.73436133,12.1874709 C5.74477781,11.9791379 5.82290262,11.8020554 5.96873577,11.6562222 L9.71872683,8.06248078 L0.749998212,8.06248078 C0.541665216,8.06248078 0.364582623,7.98956444 0.218749478,7.8437313 C0.0729163339,7.69789815 0,7.52081556 0,7.31248257 L0,6.31248495 C0,6.10415195 0.0729163339,5.92706936 0.218749478,5.78123622 C0.364582623,5.63540307 0.541665216,5.56248674 0.749998212,5.56248674 L9.71872683,5.56248674 L5.96873577,1.96874531 C5.82290262,1.82291216 5.74477781,1.64582957 5.73436133,1.43749657 C5.72394485,1.22916358 5.80206966,1.05208098 5.96873577,0.906247839 L6.65623413,0.218749478 C6.80206727,0.0729163339 6.97914987,0 7.18748286,0 Z"></path></clipPath></defs><g transform="translate(5.0 4.999999999999999)"><g clip-path="url(#i0)"><polygon points="0,0 13.9999666,0 13.9999666,13.6249675 0,13.6249675 0,0" stroke="none" fill="#151515"></polygon></g></g></svg>