<?xml version="1.0" encoding="UTF-8"?><svg version="1.1" width="24px" height="24px" viewBox="0 0 24.0 24.0" xmlns="http://www.w3.org/2000/svg" xmlns:xlink="http://www.w3.org/1999/xlink"><defs><clipPath id="i0"><path d="M13.4999678,9.99997616 C13.7761207,9.99997616 13.9999666,10.2238221 13.9999666,10.4999762 L13.9999666,11.749972 C13.9999666,12.0261249 13.7761207,12.2499708 13.4999678,12.2499708 L0.5,12.2499708 C0.223845902,12.2499708 0,12.0261249 0,11.749972 L0,10.4999762 C0,10.2238221 0.223845902,9.99997616 0.5,9.99997616 Z M13.4999678,4.99998808 C13.7761207,4.99998808 13.9999666,5.22383398 13.9999666,5.49998808 L13.9999666,6.74998391 C13.9999666,7.02613681 13.7761207,7.24998271 13.4999678,7.24998271 L0.5,7.24998271 C0.223845902,7.24998271 0,7.02613681 0,6.74998391 L0,5.49998808 C0,5.22383398 0.223845902,4.99998808 0.5,4.99998808 Z M13.4999678,0 C13.7761207,0 13.9999666,0.223845902 13.9999666,0.5 L13.9999666,1.74999583 C13.9999666,2.02614873 13.7761207,2.24999464 13.4999678,2.24999464 L0.5,2.24999464 C0.223845902,2.24999464 0,2.02614873 0,1.74999583 L0,0.5 C0,0.223845902 0.223845902,0 0.5,0 Z"></path></clipPath></defs><g transform="translate(5.0 6.0)"><g clip-path="url(#i0)"><polygon points="0,0 13.9999666,0 13.9999666,12.2499708 0,12.2499708 0,0" stroke="none" fill="#151515"></polygon></g></g></svg>