<?xml version="1.0" encoding="UTF-8"?>
<svg width="24px" height="24px" viewBox="0 0 24 24" version="1.1" xmlns="http://www.w3.org/2000/svg" xmlns:xlink="http://www.w3.org/1999/xlink">
    <title></title>
    <g id="Icons" stroke="none" stroke-width="1" fill="none" fill-rule="evenodd">
        <g id="Icons/1.-Size-md/Framework/calendar" fill="#151515">
            <path d="M17.4999702,19.9999619 C18.3280932,19.9999619 18.9999666,19.3280885 18.9999666,18.4999654 L18.9999666,7.5 C18.9999666,6.67186863 18.3280932,6 17.4999702,6 L15.9999738,6 L15.9999738,4.37499911 C15.9999738,4.1687618 15.831212,4 15.6249747,4 L14.3749776,4 C14.1687403,4 13.9999785,4.1687618 13.9999785,4.37499911 L13.9999785,6 L9.99998808,6 L9.99998808,4.37499911 C9.99998808,4.1687618 9.83122627,4 9.62498897,4 L8.37499195,4 C8.16875465,4 8,4.1687618 8,4.37499911 L8,6 L6.5,6 C5.6718734,6 5,6.67186863 5,7.5 L5,18.4999654 C5,19.3280885 5.6718734,19.9999619 6.5,19.9999619 L17.4999702,19.9999619 Z M17.3124706,18.4999654 L6.68749598,18.4999654 C6.58437733,18.4999654 6.49999642,18.4155845 6.49999642,18.3124659 L6.49999642,8.99998808 L17.4999702,8.99998808 L17.4999702,18.3124659 C17.4999702,18.4155845 17.4155893,18.4999654 17.3124706,18.4999654 Z M9.62498897,12.9999833 C9.83122627,12.9999833 9.99999285,12.8312167 9.99999285,12.6249794 L9.99999285,11.3749824 C9.99999285,11.1687451 9.83122627,10.9999833 9.62498897,10.9999833 L8.37499195,10.9999833 C8.16875465,10.9999833 7.99999285,11.1687451 7.99999285,11.3749824 L7.99999285,12.6249794 C7.99999285,12.8312167 8.16875465,12.9999833 8.37499195,12.9999833 L9.62498897,12.9999833 Z M12.6249818,12.9999833 C12.8312191,12.9999833 12.9999857,12.8312167 12.9999857,12.6249794 L12.9999857,11.3749824 C12.9999857,11.1687451 12.8312191,10.9999833 12.6249818,10.9999833 L11.3749848,10.9999833 C11.1687475,10.9999833 10.9999857,11.1687451 10.9999857,11.3749824 L10.9999857,12.6249794 C10.9999857,12.8312167 11.1687475,12.9999833 11.3749848,12.9999833 L12.6249818,12.9999833 Z M15.6249747,12.9999833 C15.831212,12.9999833 15.9999785,12.8312167 15.9999785,12.6249794 L15.9999785,11.3749824 C15.9999785,11.1687451 15.831212,10.9999833 15.6249747,10.9999833 L14.3749776,10.9999833 C14.1687403,10.9999833 13.9999785,11.1687451 13.9999785,11.3749824 L13.9999785,12.6249794 C13.9999785,12.8312167 14.1687403,12.9999833 14.3749776,12.9999833 L15.6249747,12.9999833 Z M12.6249818,15.9999762 C12.8312191,15.9999762 12.9999857,15.8312096 12.9999857,15.6249723 L12.9999857,14.3749753 C12.9999857,14.168738 12.8312191,13.9999762 12.6249818,13.9999762 L11.3749848,13.9999762 C11.1687475,13.9999762 10.9999857,14.168738 10.9999857,14.3749753 L10.9999857,15.6249723 C10.9999857,15.8312096 11.1687475,15.9999762 11.3749848,15.9999762 L12.6249818,15.9999762 Z M9.62498897,15.9999762 C9.83122627,15.9999762 9.99999285,15.8312096 9.99999285,15.6249723 L9.99999285,14.3749753 C9.99999285,14.168738 9.83122627,13.9999762 9.62498897,13.9999762 L8.37499195,13.9999762 C8.16875465,13.9999762 7.99999285,14.168738 7.99999285,14.3749753 L7.99999285,15.6249723 C7.99999285,15.8312096 8.16875465,15.9999762 8.37499195,15.9999762 L9.62498897,15.9999762 Z M15.6249747,15.9999762 C15.831212,15.9999762 15.9999785,15.8312096 15.9999785,15.6249723 L15.9999785,14.3749753 C15.9999785,14.168738 15.831212,13.9999762 15.6249747,13.9999762 L14.3749776,13.9999762 C14.1687403,13.9999762 13.9999785,14.168738 13.9999785,14.3749753 L13.9999785,15.6249723 C13.9999785,15.8312096 14.1687403,15.9999762 14.3749776,15.9999762 L15.6249747,15.9999762 Z" id="calendar-alt"></path>
        </g>
    </g>
</svg>