<?xml version="1.0" encoding="UTF-8"?><svg version="1.1" width="24px" height="24px" viewBox="0 0 24.0 24.0" xmlns="http://www.w3.org/2000/svg" xmlns:xlink="http://www.w3.org/1999/xlink"><defs><clipPath id="i0"><path d="M7.74998152,0 C12.0312213,0 15.499963,3.46874173 15.499963,7.74998152 C15.499963,12.0312213 12.0312213,15.499963 7.74998152,15.499963 C3.46874173,15.499963 0,12.0312213 0,7.74998152 C0,3.46874173 3.46874173,0 7.74998152,0 Z M7.74998152,1.49999642 C4.29686476,1.49999642 1.49999642,4.29686476 1.49999642,7.74998152 C1.49999642,11.2030983 4.29686476,13.9999666 7.74998152,13.9999666 C11.2030983,13.9999666 13.9999666,11.2030983 13.9999666,7.74998152 C13.9999666,4.29686476 11.2030983,1.49999642 7.74998152,1.49999642 Z M8.24998033,2.99999285 C8.45621763,2.99999285 8.62497944,3.16875465 8.62497944,3.37499195 L8.62497944,7.8031125 L10.7124684,9.32184667 C10.8812302,9.44373359 10.9155929,9.67810803 10.7937365,9.84683932 L10.2062135,10.6562246 C10.0843571,10.8218431 9.84998262,10.8593491 9.68122081,10.7374622 L7.02812045,8.8093662 C6.93122737,8.73746696 6.87498361,8.62497944 6.87498361,8.50623582 L6.87498361,3.37499195 C6.87498361,3.16875465 7.04374541,2.99999285 7.24998271,2.99999285 Z"></path></clipPath></defs><g transform="translate(4.0 4.0)"><g clip-path="url(#i0)"><polygon points="0,0 15.499963,0 15.499963,15.499963 0,15.499963 0,0" stroke="none" fill="#151515"></polygon></g></g></svg>