<?xml version="1.0" encoding="UTF-8"?><svg version="1.1" width="24px" height="24px" viewBox="0 0 24.0 24.0" xmlns="http://www.w3.org/2000/svg" xmlns:xlink="http://www.w3.org/1999/xlink"><defs><clipPath id="i0"><path d="M6.50018913,0 C9.19705159,0 11.5095461,1.26562198 12.4939187,3.06560548 C15.6095424,3.43437902 18.0001617,5.49998689 18.0001617,7.99998093 C18.0001617,9.15934096 17.4845379,10.2218384 16.625165,11.0687297 C17.1032827,12.0281085 17.7939244,12.7718507 17.8064061,12.7812195 C18.0032745,12.9906001 18.0564055,13.2968433 17.9439179,13.5624677 C17.8282871,13.828092 17.5689188,13.9999666 17.2814134,13.9999666 C15.6064296,13.9999666 14.2595395,13.3655992 13.3689166,12.7874756 C12.7751681,12.924957 12.1501696,12.999969 11.5001772,12.999969 C8.80642753,12.999969 6.50330191,11.7374598 5.52207256,9.9437324 C5.21894218,9.90622638 4.92206789,9.85623871 4.63456247,9.79059555 C3.7439396,10.3718625 2.39393671,11.0030866 0.722065697,11.0030866 C0.434590796,11.0030866 0.172079215,10.831212 0.0595916902,10.5655876 C-0.0560391376,10.2999632 0.000204624798,9.99372007 0.197073052,9.78433947 C0.209585229,9.77185781 0.89708359,9.02811568 1.37520135,8.06873687 C0.515828395,7.21873279 0.000204624798,6.15623532 0.000204624798,4.99998808 C0.000204624798,2.23748246 2.90956048,0 6.50018913,0 Z M12.9782926,4.68748882 C12.9876615,4.79060747 13.0001736,4.89372613 13.0001736,4.99998808 C13.0001736,7.52811926 10.5626794,9.60935209 7.39706809,9.94684518 C8.30642872,10.8718613 9.81268123,11.4999726 11.5001772,11.4999726 C12.015801,11.4999726 12.5314247,11.4405855 13.0314236,11.3249852 L13.6533093,11.1812172 L14.1876708,11.5281097 C14.6282825,11.8124718 15.0782937,12.0374774 15.5345304,12.1968398 C15.45018,12.0499591 15.3657991,11.8937094 15.284531,11.734347 L14.8001571,10.7624865 L15.5720364,9.99997616 C15.9939104,9.58121495 16.5001653,8.89685989 16.5001653,7.99998093 C16.5001653,6.46247849 14.9908,5.14061274 12.9782926,4.68748882 Z M6.50018913,1.49999642 C3.79081448,1.49999642 1.50020105,3.1031115 1.50020105,4.99999642 C1.50020105,5.89686704 2.00645595,6.5812221 2.42832994,6.99998331 L3.20332199,7.76560649 L2.71894814,8.73746696 C2.63771054,8.89685989 2.55332964,9.05310952 2.46894874,9.19999027 C2.92518544,9.04059734 3.37519658,8.81559177 3.81580832,8.53122966 L4.35020036,8.18436769 L4.96894278,8.32499236 C5.46894159,8.44059267 5.98456536,8.49997973 6.50018913,8.49997973 C9.20956377,8.49997973 11.5001772,6.89686466 11.5001772,4.99999642 C11.5001772,3.1031115 9.20956377,1.49999642 6.50018913,1.49999642 Z"></path></clipPath></defs><g transform="translate(3.0 5.0)"><g clip-path="url(#i0)"><polygon points="-4.97102359e-14,0 18.002106,0 18.002106,13.9999666 -4.97102359e-14,13.9999666 -4.97102359e-14,0" stroke="none" fill="#151515"></polygon></g></g></svg>