<?xml version="1.0" encoding="UTF-8"?>
<svg width="24px" height="24px" viewBox="0 0 24 24" version="1.1" xmlns="http://www.w3.org/2000/svg" xmlns:xlink="http://www.w3.org/1999/xlink">
    <title></title>
    <g id="Icons" stroke="none" stroke-width="1" fill="none" fill-rule="evenodd">
        <g id="Icons/1.-Size-md/Framework/comments" fill="#151515">
            <path d="M20.2814134,18.9999666 C20.5689188,18.9999666 20.8282871,18.828092 20.9439179,18.5624677 C21.0564055,18.2968433 21.0032745,17.9906001 20.8064061,17.7812195 C20.7939244,17.7718507 20.1032827,17.0281085 19.625165,16.0687297 C20.4845379,15.2218384 21.0001617,14.159341 21.0001617,12.9999809 C21.0001617,10.4999869 18.6095424,8.43437902 15.4939187,8.06560548 C14.5095461,6.26562198 12.1970516,5 9.50018913,5 C5.90956048,5 3.00020462,7.23748246 3.00020462,9.99998808 C3.00020462,11.1562353 3.5158284,12.2187328 4.37520135,13.0687369 C3.89708359,14.0281157 3.20958523,14.7718578 3.19707305,14.7843395 C3.00020462,14.9937201 2.94396086,15.2999632 3.05959169,15.5655876 C3.17207922,15.831212 3.4345908,16.0030866 3.7220657,16.0030866 C5.39393671,16.0030866 6.7439396,15.3718625 7.63456247,14.7905956 C7.92206789,14.8562387 8.21894218,14.9062264 8.52207256,14.9437324 C9.50330191,16.7374598 11.8064275,17.999969 14.5001772,17.999969 C15.1501696,17.999969 15.7751681,17.924957 16.3689166,17.7874756 C17.2595395,18.3655992 18.6064296,18.9999666 20.2814134,18.9999666 Z M5.46894874,14.1999903 C5.55332964,14.0531095 5.63771054,13.8968599 5.71894814,13.737467 L6.20332199,12.7656065 L5.42832994,11.9999833 C5.00645595,11.5812221 4.50020105,10.896867 4.50020105,9.99999642 C4.50020105,8.1031115 6.79081448,6.49999642 9.50018913,6.49999642 C12.2095638,6.49999642 14.5001772,8.1031115 14.5001772,9.99999642 C14.5001772,11.8968647 12.2095638,13.4999797 9.50018913,13.4999797 C8.98456536,13.4999797 8.46894159,13.4405927 7.96894278,13.3249924 L7.35020036,13.1843677 L6.81580832,13.5312297 C6.37519658,13.8155918 5.92518544,14.0405973 5.46894874,14.1999903 Z M18.5345304,17.1968398 C18.0782937,17.0374774 17.6282825,16.8124718 17.1876708,16.5281097 L16.6533093,16.1812172 L16.0314236,16.3249852 C15.5314247,16.4405855 15.015801,16.4999726 14.5001772,16.4999726 C12.8126812,16.4999726 11.3064287,15.8718613 10.3970681,14.9468452 C13.5626794,14.6093521 16.0001736,12.5281193 16.0001736,9.99998808 C16.0001736,9.89372613 15.9876615,9.79060747 15.9782926,9.68748882 C17.9908,10.1406127 19.5001653,11.4624785 19.5001653,12.9999809 C19.5001653,13.8968599 18.9939104,14.5812149 18.5720364,14.9999762 L17.8001571,15.7624865 L18.284531,16.734347 C18.3657991,16.8937094 18.45018,17.0499591 18.5345304,17.1968398 Z" id="comments"></path>
        </g>
    </g>
</svg>