<?xml version="1.0" encoding="UTF-8"?><svg version="1.1" width="24px" height="24px" viewBox="0 0 24.0 24.0" xmlns="http://www.w3.org/2000/svg" xmlns:xlink="http://www.w3.org/1999/xlink"><defs><clipPath id="i0"><path d="M2.24999464,10.9999738 C3.49373557,10.9999738 4.49998927,12.0062275 4.49998927,13.2499684 C4.49998927,14.4937093 3.49373557,15.499963 2.24999464,15.499963 C1.0062537,15.499963 0,14.4937093 0,13.2499684 C0,12.0062275 1.0062537,10.9999738 2.24999464,10.9999738 Z M2.24999464,5.49998689 C3.49373557,5.49998689 4.49998927,6.50624059 4.49998927,7.74998152 C4.49998927,8.99372245 3.49373557,9.99997616 2.24999464,9.99997616 C1.0062537,9.99997616 0,8.99372245 0,7.74998152 C0,6.50624059 1.0062537,5.49998689 2.24999464,5.49998689 Z M2.24999464,0 C3.49373557,0 4.49998927,1.0062537 4.49998927,2.24999464 C4.49998927,3.49373557 3.49373557,4.49998927 2.24999464,4.49998927 C1.0062537,4.49998927 0,3.49373557 0,2.24999464 C0,1.0062537 1.0062537,0 2.24999464,0 Z"></path></clipPath></defs><g transform="translate(10.0 4.0)"><g clip-path="url(#i0)"><polygon points="0,0 4.49998927,0 4.49998927,15.499963 0,15.499963 0,0" stroke="none" fill="#151515"></polygon></g></g></svg>