<?xml version="1.0" encoding="UTF-8"?><svg version="1.1" width="24px" height="24px" viewBox="0 0 24.0 24.0" xmlns="http://www.w3.org/2000/svg" xmlns:xlink="http://www.w3.org/1999/xlink"><defs><clipPath id="i0"><path d="M3.6966666,0.000170936371 L3.80555556,0.00961536725 C3.99074088,0.037393145 4.13888889,0.125356249 4.25,0.273504256 L5.66666667,2.30128203 C6.42592578,2.09757847 7.20370356,1.99572648 8,1.99572648 C9.64814801,1.99572648 11.1666667,2.40313403 12.5555556,3.2179487 C13.9259258,4.01424514 15.0092591,5.08831893 15.8055556,6.44017092 C15.9351853,6.64387449 16,6.86609671 16,7.10683759 C16,7.34757847 15.9351853,7.56980069 15.8055556,7.77350426 C15.3796298,8.53276337 14.8425925,9.20868958 14.1944444,9.80128203 C13.5462964,10.3938745 12.8333333,10.8846154 12.0555556,11.2735043 L13.2222222,12.9123931 C13.3148147,13.0605412 13.3472222,13.2272078 13.3194444,13.4123931 C13.2916667,13.5975785 13.2037036,13.7364674 13.0555556,13.8290598 L12.6944444,14.1068376 C12.5462964,14.19943 12.3796298,14.2318376 12.1944444,14.2040598 C12.0092591,14.176282 11.8611111,14.0883189 11.75,13.9401709 L2.77777778,1.30128203 C2.68518533,1.15313403 2.65277778,0.98646736 2.68055556,0.801282034 C2.70833333,0.616096707 2.79629644,0.477207819 2.94444444,0.384615367 L3.30555556,0.106837589 C3.45370356,0.0142451382 3.62037023,-0.0181624105 3.80555556,0.00961536725 Z M2.86111111,3.57905981 L4.44444444,5.85683759 C4.29629644,6.26424514 4.22222222,6.6809118 4.22222222,7.10683759 C4.22222222,7.79202292 4.38888889,8.42165226 4.72222222,8.99572648 C5.05555556,9.56980069 5.50925912,10.028134 6.08333333,10.3707265 C6.65740755,10.7133189 7.2870369,10.8846154 7.97222222,10.8846154 L8.86111111,12.1901709 C8.58333333,12.2086896 8.29629644,12.2179487 8,12.2179487 C6.35185199,12.2179487 4.83333333,11.8105412 3.44444444,10.9957265 C2.07407422,10.19943 0.990740882,9.12535625 0.194444444,7.77350426 C0.0648146735,7.56980069 0,7.34757847 0,7.10683759 C0,6.86609671 0.0648146735,6.64387449 0.194444444,6.44017092 C0.861111111,5.29202292 1.75,4.33831893 2.86111111,3.57905981 Z M5.11111111,6.82905981 L7.27777778,9.91239315 C6.59259245,9.72720782 6.04629644,9.34757847 5.63888889,8.77350426 C5.23148134,8.19943004 5.05555556,7.55128203 5.11111111,6.82905981 Z M8,3.32905981 C7.51851866,3.32905981 7.04629644,3.42165226 6.58333333,3.60683759 L7.13888889,4.35683759 C7.49074088,4.24572648 7.86111111,4.20405981 8.25,4.23183759 C8.63888889,4.25961537 9.00925912,4.36609671 9.36111111,4.55128203 C9.02777778,4.55128203 8.74537023,4.66702292 8.51388889,4.89850426 C8.28240755,5.1299856 8.16666667,5.41239315 8.16666667,5.74572648 C8.16666667,6.07905981 8.28240755,6.36146736 8.51388889,6.5929487 C8.74537023,6.82443004 9.02777778,6.94017092 9.36111111,6.94017092 C9.69444444,6.94017092 9.97685199,6.82443004 10.2083333,6.5929487 C10.4398147,6.36146736 10.5555556,6.07905981 10.5555556,5.74572648 C10.8148147,6.22720782 10.9259258,6.74572648 10.8888889,7.30128203 C10.851852,7.85683759 10.6666667,8.36609671 10.3333333,8.82905981 L10.8611111,9.57905981 C11.4722222,8.87535625 11.7777778,8.05128203 11.7777778,7.10683759 C11.7777778,6.42165226 11.6064813,5.79202292 11.2638889,5.2179487 C10.9212964,4.64387449 10.4629631,4.18554115 9.88888889,3.8429487 C9.31481467,3.50035625 8.68518533,3.32905981 8,3.32905981 Z"></path></clipPath></defs><g transform="translate(4.0 5.0)"><g clip-path="url(#i0)"><polygon points="0,3.46944695e-18 16,3.46944695e-18 16,14.2136752 0,14.2136752 0,3.46944695e-18" stroke="none" fill="#020202"></polygon></g></g></svg>