<?xml version="1.0" encoding="UTF-8"?>
<svg width="24px" height="24px" viewBox="0 0 24 24" version="1.1" xmlns="http://www.w3.org/2000/svg" xmlns:xlink="http://www.w3.org/1999/xlink">
    <title></title>
    <g id="Icons" stroke="none" stroke-width="1" fill="none" fill-rule="evenodd">
        <g id="Icons/1.-Size-md/Framework/eye-slash" fill="#030303" fill-rule="nonzero">
            <path d="M16.6944444,19.1068376 L17.0555556,18.8290598 C17.2037036,18.7364674 17.2916667,18.5975785 17.3194444,18.4123931 C17.3472222,18.2272078 17.3148147,18.0605412 17.2222222,17.9123931 L16.0555556,16.2735043 C16.8333333,15.8846154 17.5462964,15.3938745 18.1944444,14.801282 C18.8425925,14.2086896 19.3796298,13.5327634 19.8055556,12.7735043 C19.9351853,12.5698007 20,12.3475785 20,12.1068376 C20,11.8660967 19.9351853,11.6438745 19.8055556,11.4401709 C19.0092591,10.0883189 17.9259258,9.01424514 16.5555556,8.2179487 C15.1666667,7.40313403 13.648148,6.99572648 12,6.99572648 C11.2037036,6.99572648 10.4259258,7.09757847 9.66666667,7.30128203 L8.25,5.27350426 C8.13888889,5.12535625 7.99074088,5.03739315 7.80555556,5.00961537 C7.62037023,4.98183759 7.45370356,5.01424514 7.30555556,5.10683759 L6.94444444,5.38461537 C6.79629644,5.47720782 6.70833333,5.61609671 6.68055556,5.80128203 C6.65277778,5.98646736 6.68518533,6.15313403 6.77777778,6.30128203 L15.75,18.9401709 C15.8611111,19.0883189 16.0092591,19.176282 16.1944444,19.2040598 C16.3796298,19.2318376 16.5462964,19.19943 16.6944444,19.1068376 Z M14.8611111,14.5790598 L14.3333333,13.8290598 C14.6666667,13.3660967 14.851852,12.8568376 14.8888889,12.301282 C14.9259258,11.7457265 14.8148147,11.2272078 14.5555556,10.7457265 C14.5555556,11.0790598 14.4398147,11.3614674 14.2083333,11.5929487 C13.976852,11.82443 13.6944444,11.9401709 13.3611111,11.9401709 C13.0277778,11.9401709 12.7453702,11.82443 12.5138889,11.5929487 C12.2824075,11.3614674 12.1666667,11.0790598 12.1666667,10.7457265 C12.1666667,10.4123931 12.2824075,10.1299856 12.5138889,9.89850426 C12.7453702,9.66702292 13.0277778,9.55128203 13.3611111,9.55128203 C13.0092591,9.36609671 12.6388889,9.25961537 12.25,9.23183759 C11.8611111,9.20405981 11.4907409,9.24572648 11.1388889,9.35683759 L10.5833333,8.60683759 C11.0462964,8.42165226 11.5185187,8.32905981 12,8.32905981 C12.6851853,8.32905981 13.3148147,8.50035625 13.8888889,8.8429487 C14.4629631,9.18554115 14.9212964,9.64387449 15.2638889,10.2179487 C15.6064813,10.7920229 15.7777778,11.4216523 15.7777778,12.1068376 C15.7777778,13.051282 15.4722222,13.8753562 14.8611111,14.5790598 Z M12,17.2179487 C12.2962964,17.2179487 12.5833333,17.2086896 12.8611111,17.1901709 L11.9722222,15.8846154 C11.2870369,15.8846154 10.6574075,15.7133189 10.0833333,15.3707265 C9.50925912,15.028134 9.05555556,14.5698007 8.72222222,13.9957265 C8.38888889,13.4216523 8.22222222,12.7920229 8.22222222,12.1068376 C8.22222222,11.6809118 8.29629644,11.2642451 8.44444444,10.8568376 L6.86111111,8.57905981 C5.75,9.33831893 4.86111111,10.2920229 4.19444444,11.4401709 C4.06481467,11.6438745 4,11.8660967 4,12.1068376 C4,12.3475785 4.06481467,12.5698007 4.19444444,12.7735043 C4.99074088,14.1253562 6.07407422,15.19943 7.44444444,15.9957265 C8.83333333,16.8105412 10.351852,17.2179487 12,17.2179487 Z M11.2777778,14.9123931 L9.11111111,11.8290598 C9.05555556,12.551282 9.23148134,13.19943 9.63888889,13.7735043 C10.0462964,14.3475785 10.5925925,14.7272078 11.2777778,14.9123931 Z" id="eye-slash"></path>
        </g>
    </g>
</svg>