<?xml version="1.0" encoding="UTF-8"?><svg version="1.1" width="24px" height="24px" viewBox="0 0 24.0 24.0" xmlns="http://www.w3.org/2000/svg" xmlns:xlink="http://www.w3.org/1999/xlink"><defs><clipPath id="i0"><path d="M8,0 C9.64814801,0 11.1666667,0.401503091 12.5555556,1.20450886 C13.9259258,1.98926477 15.0092591,3.04777227 15.8055556,4.38003221 C15.9351853,4.58078354 16,4.79978515 16,5.03703704 C16,5.27428892 15.9351853,5.49329053 15.8055556,5.69404187 C15.0092591,7.0263018 13.9259258,8.08480931 12.5555556,8.86956522 C11.1666667,9.67257098 9.64814801,10.0740741 8,10.0740741 C6.35185199,10.0740741 4.83333333,9.67257098 3.44444444,8.86956522 C2.07407422,8.08480931 0.990740882,7.0263018 0.194444444,5.69404187 C0.0648146735,5.49329053 0,5.27428892 0,5.03703704 C0,4.79978515 0.0648146735,4.58078354 0.194444444,4.38003221 C0.990740882,3.04777227 2.07407422,1.98926477 3.44444444,1.20450886 C4.83333333,0.401503091 6.35185199,0 8,0 Z M8,1.18518519 C7.30137967,1.18518519 6.65940465,1.35984038 6.07407407,1.70915033 C5.4887435,2.05846028 5.02142324,2.52578054 4.67211329,3.11111111 C4.32280334,3.69644168 4.14814815,4.3384167 4.14814815,5.03703704 C4.14814815,5.73565737 4.32280334,6.37763239 4.67211329,6.96296296 C5.02142324,7.54829354 5.4887435,8.0156138 6.07407407,8.36492375 C6.65940465,8.7142337 7.30137967,8.88888889 8,8.88888889 C8.69862033,8.88888889 9.34059535,8.7142337 9.92592593,8.36492375 C10.5112565,8.0156138 10.9785768,7.54829354 11.3278867,6.96296296 C11.6771967,6.37763239 11.8518519,5.73565737 11.8518519,5.03703704 C11.8518519,4.3384167 11.6771967,3.69644168 11.3278867,3.11111111 C10.9785768,2.52578054 10.5112565,2.05846028 9.92592593,1.70915033 C9.34059535,1.35984038 8.69862033,1.18518519 8,1.18518519 Z M8,2.07407407 C8.81671429,2.07407407 9.51471999,2.36372284 10.0940171,2.94301994 C10.6733142,3.52231704 10.962963,4.22032274 10.962963,5.03703704 C10.962963,5.85375133 10.6733142,6.55175703 10.0940171,7.13105413 C9.51471999,7.71035123 8.81671429,8 8,8 C7.18328571,8 6.48528001,7.71035123 5.90598291,7.13105413 C5.3266858,6.55175703 5.03703704,5.85375133 5.03703704,5.03703704 C5.03703704,4.54321002 5.15099715,4.0778726 5.37891738,3.64102564 C5.37891738,3.98290598 5.49762598,4.27255475 5.73504274,4.50997151 C5.97245949,4.74738827 6.26210826,4.86609687 6.6039886,4.86609687 C6.94586895,4.86609687 7.23551771,4.74738827 7.47293447,4.50997151 C7.71035123,4.27255475 7.82905983,3.98290598 7.82905983,3.64102564 C7.82905983,3.2991453 7.71035123,3.00949653 7.47293447,2.77207977 C7.23551771,2.53466301 6.94586895,2.41595442 6.6039886,2.41595442 C7.04083556,2.18803419 7.50617298,2.07407407 8,2.07407407 Z"></path></clipPath></defs><g transform="translate(4.0 6.999999999999999)"><g clip-path="url(#i0)"><polygon points="0,0 16,0 16,10.0740741 0,10.0740741 0,0" stroke="none" fill="#020202"></polygon></g></g></svg>