<?xml version="1.0" encoding="UTF-8"?>
<svg width="24px" height="24px" viewBox="0 0 24 24" version="1.1" xmlns="http://www.w3.org/2000/svg" xmlns:xlink="http://www.w3.org/1999/xlink">
    <title></title>
    <g id="Icons" stroke="none" stroke-width="1" fill="none" fill-rule="evenodd">
        <g id="Icons/1.-Size-md/Framework/file" fill="#151515" fill-rule="nonzero">
            <g id="file-solid" transform="translate(4.000000, 1.000000)">
                <path d="M9.29913158,5.66578125 L9.29913158,0 L0.996335526,0 C0.444199589,0 0,0.445763672 0,0.99984375 L0,20.3301562 C0,20.8842363 0.444199589,21.33 0.996335526,21.33 L14.9450329,21.33 C15.4971688,21.33 15.9413684,20.8842363 15.9413684,20.3301562 L15.9413684,6.665625 L10.2954671,6.665625 C9.74748257,6.665625 9.29913158,6.21569531 9.29913158,5.66578125 Z M15.9413684,5.07837305 L15.9413684,5.3325 L10.6275789,5.3325 L10.6275789,0 L10.8808142,0 C11.1465037,0 11.399739,0.104150391 11.5865519,0.291621094 L15.6507706,4.37431641 C15.8375835,4.56178711 15.9413684,4.81591406 15.9413684,5.07837305 Z" id="Shape"></path>
            </g>
        </g>
    </g>
</svg>