<?xml version="1.0" encoding="UTF-8"?><svg version="1.1" width="24px" height="24px" viewBox="0 0 24.0 24.0" xmlns="http://www.w3.org/2000/svg" xmlns:xlink="http://www.w3.org/1999/xlink"><defs><clipPath id="i0"><path d="M9.29913158,0 L9.29913158,5.66578125 C9.29913158,6.21569531 9.74748257,6.665625 10.2954671,6.665625 L15.9413684,6.665625 L15.9413684,20.3301562 C15.9413684,20.8842363 15.4971688,21.33 14.9450329,21.33 L0.996335526,21.33 C0.444199589,21.33 0,20.8842363 0,20.3301562 L0,0.99984375 C0,0.445763672 0.444199589,0 0.996335526,0 L9.29913158,0 Z M10.8808142,0 C11.1465037,0 11.399739,0.104150391 11.5865519,0.291621094 L15.6507706,4.37431641 C15.8375835,4.56178711 15.9413684,4.81591406 15.9413684,5.07837305 L15.9413684,5.3325 L10.6275789,5.3325 L10.6275789,0 L10.8808142,0 Z"></path></clipPath></defs><g transform="translate(4.0 1.0)"><g clip-path="url(#i0)"><polygon points="0,0 15.9413684,0 15.9413684,21.33 0,21.33 0,0" stroke="none" fill="#151515"></polygon></g></g></svg>