<?xml version="1.0" encoding="UTF-8"?><svg version="1.1" width="24px" height="24px" viewBox="0 0 24.0 24.0" xmlns="http://www.w3.org/2000/svg" xmlns:xlink="http://www.w3.org/1999/xlink"><defs><clipPath id="i0"><path d="M17.2488297,5.99998569 C17.8276858,5.99998569 18.1883416,6.62788337 17.8966553,7.12788218 L15.6333856,11.0077252 C15.3138978,11.5554534 14.5400044,11.9999714 13.9059117,11.9999714 L1.4070401,11.9999714 C0.828184061,11.9999714 0.467528182,11.3720737 0.759183981,10.8720749 L3.02242321,6.99223186 C3.3419415,6.44450368 4.11586543,5.99998569 4.74998868,5.99998569 Z M6.4999845,0 L8.49997973,2 L13.4999678,2 C14.328396,2 14.9999642,2.67156345 14.9999642,3.5 L14.9999642,4.99998808 L4.74998868,4.99998808 C3.68715552,4.99998808 2.69417693,5.57029922 2.15865574,6.48835733 L0,10.18891 L0,1.5 C0,0.671568223 0.671568223,0 1.5,0 L6.4999845,0 Z"></path></clipPath></defs><g transform="translate(3.0 5.999999999999999)"><g clip-path="url(#i0)"><polygon points="0,0 17.9999638,0 17.9999638,11.9999714 0,11.9999714 0,0" stroke="none" fill="#151515"></polygon></g></g></svg>