<?xml version="1.0" encoding="UTF-8"?><svg version="1.1" width="24px" height="24px" viewBox="0 0 24.0 24.0" xmlns="http://www.w3.org/2000/svg" xmlns:xlink="http://www.w3.org/1999/xlink"><defs><clipPath id="i0"><path d="M3,5.99998569 C3.55217659,5.99998569 4,6.44779957 4,6.99998569 L4,8.99998569 C4,9.55216228 3.55217659,9.99998569 3,9.99998569 L1,9.99998569 C0.447813874,9.99998569 0,9.55216228 0,8.99998569 L0,6.99998569 C0,6.44779957 0.447813874,5.99998569 1,5.99998569 Z M7.99998808,5.99998569 C8.55216467,5.99998569 8.99998808,6.44779957 8.99998808,6.99998569 L8.99998808,8.99998569 C8.99998808,9.55216228 8.55216467,9.99998569 7.99998808,9.99998569 L5.99998808,9.99998569 C5.44780195,9.99998569 4.99998808,9.55216228 4.99998808,8.99998569 L4.99998808,6.99998569 C4.99998808,6.44779957 5.44780195,5.99998569 5.99998808,5.99998569 Z M12.9999762,5.99998569 C13.5521527,5.99998569 13.9999762,6.44779957 13.9999762,6.99998569 L13.9999762,8.99998569 C13.9999762,9.55216228 13.5521527,9.99998569 12.9999762,9.99998569 L10.9999762,9.99998569 C10.44779,9.99998569 9.99997616,9.55216228 9.99997616,8.99998569 L9.99997616,6.99998569 C9.99997616,6.44779957 10.44779,5.99998569 10.9999762,5.99998569 Z M3,0 C3.55217659,0 4,0.447813874 4,1 L4,3 C4,3.55217659 3.55217659,4 3,4 L1,4 C0.447813874,4 0,3.55217659 0,3 L0,1 C0,0.447813874 0.447813874,0 1,0 Z M7.99998808,0 C8.55216467,0 8.99998808,0.447813874 8.99998808,1 L8.99998808,3 C8.99998808,3.55217659 8.55216467,4 7.99998808,4 L5.99998808,4 C5.44780195,4 4.99998808,3.55217659 4.99998808,3 L4.99998808,1 C4.99998808,0.447813874 5.44780195,0 5.99998808,0 Z M12.9999762,0 C13.5521527,0 13.9999762,0.447813874 13.9999762,1 L13.9999762,3 C13.9999762,3.55217659 13.5521527,4 12.9999762,4 L10.9999762,4 C10.44779,4 9.99997616,3.55217659 9.99997616,3 L9.99997616,1 C9.99997616,0.447813874 10.44779,0 10.9999762,0 Z"></path></clipPath></defs><g transform="translate(5.0 7.0)"><g clip-path="url(#i0)"><polygon points="0,0 13.9999762,0 13.9999762,9.99998569 0,9.99998569 0,0" stroke="none" fill="#151515"></polygon></g></g></svg>