<?xml version="1.0" encoding="UTF-8"?><svg version="1.1" width="24px" height="24px" viewBox="0 0 24.0 24.0" xmlns="http://www.w3.org/2000/svg" xmlns:xlink="http://www.w3.org/1999/xlink"><defs><clipPath id="i0"><path d="M9.00104666,3.54720224 C9.07526523,3.54720224 9.18235115,3.58498291 9.24012079,3.63155262 L15.000422,8.37342364 L15.000422,13.4984114 C15.000422,13.7744117 14.7764235,13.9984102 14.5004232,13.9984102 L10.9998212,13.9887362 L10.9099525,13.9806759 C10.6767783,13.9383167 10.4997919,13.734071 10.4997919,13.4887374 L10.4998224,10.4984186 C10.4998224,10.2224183 10.2757934,9.99841977 9.99982357,9.99841977 L7.99982834,9.99841977 C7.72382802,9.99841977 7.49982953,10.2224183 7.49982953,10.4984186 L7.49982953,13.4893477 C7.49982953,13.7639748 7.27692967,13.9879732 7.00230264,13.9893465 L3.50045061,13.9984102 C3.2244491,13.9984102 3.00045061,13.7744117 3.00045061,13.4984114 L3.00045061,8.37687212 L8.76200304,3.63155262 C8.81977267,3.58498291 8.9268586,3.54720224 9.00104666,3.54720224 Z M14.8754223,0 C15.0824225,0 15.2504214,0.167998867 15.2504214,0.374999106 L15.2504214,4.70341896 L17.862903,6.85685621 C17.9393188,6.91898985 18.0013304,7.04933012 18.0013304,7.14781011 C18.0013304,7.22196764 17.9631225,7.32862633 17.9160339,7.3859382 L17.1191608,8.35468589 C17.0570882,8.42978947 16.9275719,8.49076345 16.8301296,8.49076345 C16.7555753,8.49076345 16.6484588,8.45218932 16.5910554,8.40467357 L9.24012079,2.35030568 C9.18235115,2.30373596 9.07526523,2.26595529 9.00104666,2.26595529 C8.9268586,2.26595529 8.81977267,2.30373596 8.76200304,2.35030568 L1.41140411,8.40467357 C1.35400068,8.45206725 1.2470063,8.49054983 1.17257411,8.49054983 C1.07482654,8.49054983 0.945066106,8.42924016 0.882962983,8.35373985 L0.0860898826,7.38499216 C0.0385741268,7.32755821 0,7.22044177 0,7.14591802 C0,7.04844511 0.0609739757,6.91895933 0.136077556,6.85685621 L8.04636753,0.342192788 C8.27561503,0.153564087 8.70261597,0.00045776258 8.99949026,0.00045776258 C9.29639507,0.00045776258 9.72336549,0.153564087 9.95261299,0.342192788 L12.7504274,2.64406718 L12.7504274,0.374999106 C12.7504274,0.167998867 12.9184262,0 13.1254265,0 Z"></path></clipPath></defs><g transform="translate(3.0 5.0)"><g clip-path="url(#i0)"><polygon points="0,0 18.0013304,0 18.0013304,13.9984102 0,13.9984102 0,0" stroke="none" fill="#151515"></polygon></g></g></svg>