<?xml version="1.0" encoding="UTF-8"?><svg version="1.1" width="24px" height="24px" viewBox="0 0 24.0 24.0" xmlns="http://www.w3.org/2000/svg" xmlns:xlink="http://www.w3.org/1999/xlink"><defs><clipPath id="i0"><path d="M2.91052657,0.219680262 C3.20340307,-0.0732267541 3.67825545,-0.0732267541 3.97116247,0.219680262 L6.66051763,2.90900491 C7.13298965,3.38150744 6.7983652,4.18933633 6.13015391,4.18933633 L4.69082628,4.18933633 L4.69082628,13.6249828 C4.69082628,13.8320746 4.52291897,13.9999819 4.31582718,13.9999819 L2.56583135,13.9999819 C2.35873956,13.9999819 2.19083224,13.8320746 2.19083224,13.6249828 L2.19083224,4.18933633 L0.751535137,4.18933633 C0.0833238396,4.18933633 -0.251300607,3.38147692 0.221171411,2.90900491 Z"></path></clipPath></defs><g transform="translate(9.0 4.999999999999999)"><g clip-path="url(#i0)"><polygon points="-5.33739719e-14,-2.77555756e-17 6.88168904,-2.77555756e-17 6.88168904,13.9999819 -5.33739719e-14,13.9999819 -5.33739719e-14,-2.77555756e-17" stroke="none" fill="#151515"></polygon></g></g></svg>