<?xml version="1.0" encoding="UTF-8"?><svg version="1.1" width="24px" height="24px" viewBox="0 0 24.0 24.0" xmlns="http://www.w3.org/2000/svg" xmlns:xlink="http://www.w3.org/1999/xlink"><defs><clipPath id="i0"><path d="M7.74998152,0 C12.0298785,0 15.499963,3.47133572 15.499963,7.74998152 C15.499963,12.0311298 12.0298785,15.499963 7.74998152,15.499963 C3.4700845,15.499963 0,12.0311298 0,7.74998152 C0,3.47133572 3.4700845,0 7.74998152,0 Z M7.74998152,1.49999642 C4.29597975,1.49999642 1.49999642,4.29701734 1.49999642,7.74998152 C1.49999642,11.205265 4.29585768,13.9999666 7.74998152,13.9999666 C11.205265,13.9999666 13.9999666,11.2040443 13.9999666,7.74998152 C13.9999666,4.29594923 11.2028236,1.49999642 7.74998152,1.49999642 Z M7.74998152,9.93747631 C8.47370416,9.93747631 9.06247839,10.5262505 9.06247839,11.2499732 C9.06247839,11.9736958 8.47370416,12.56247 7.74998152,12.56247 C7.02625888,12.56247 6.43748465,11.9736958 6.43748465,11.2499732 C6.43748465,10.5262505 7.02625888,9.93747631 7.74998152,9.93747631 Z M7.93104188,3.24999225 C9.46451601,3.24999225 11.1013529,4.44698036 11.1013529,6.02497953 C11.1013529,8.12034197 8.83820525,8.15259897 8.83820525,8.92695015 L8.83820525,9.12497824 C8.83820525,9.33207004 8.67029793,9.49997735 8.46320614,9.49997735 L7.03672639,9.49997735 C6.8296346,9.49997735 6.66172728,9.33207004 6.66172728,9.12497824 L6.66172728,8.85437952 C6.66172728,7.73734728 7.50861857,7.29081514 8.14857066,6.93202083 C8.69736696,6.62437385 9.03370039,6.41511532 9.03370039,6.00767611 C9.03370039,5.46873696 8.34623254,5.11101076 7.79044773,5.11101076 C7.06580957,5.11101076 6.73127668,5.45405804 6.26100192,6.04756249 C6.1342322,6.20753525 5.90287899,6.2372593 5.74019017,6.11393806 L4.87071593,5.45460736 C4.71110937,5.33360545 4.67537337,5.1088135 4.78807452,4.94325604 C5.52641505,3.85909114 6.46687301,3.24999225 7.93104188,3.24999225 Z"></path></clipPath></defs><g transform="translate(4.0 4.0)"><g clip-path="url(#i0)"><polygon points="0,0 15.499963,0 15.499963,15.499963 0,15.499963 0,0" stroke="none" fill="#151515"></polygon></g></g></svg>