<?xml version="1.0" encoding="UTF-8"?><svg version="1.1" width="24px" height="24px" viewBox="0 0 24.0 24.0" xmlns="http://www.w3.org/2000/svg" xmlns:xlink="http://www.w3.org/1999/xlink"><defs><clipPath id="i0"><path d="M7.74998152,0 C12.0298785,0 15.499963,3.47133572 15.499963,7.74998152 C15.499963,12.0311298 12.0298785,15.499963 7.74998152,15.499963 C3.4700845,15.499963 0,12.0311298 0,7.74998152 C0,3.47133572 3.4700845,0 7.74998152,0 Z M7.74998152,10.3124754 C6.95731984,10.3124754 6.31248495,10.9573103 6.31248495,11.749972 C6.31248495,12.5426032 6.95731984,13.1874686 7.74998152,13.1874686 C8.54264321,13.1874686 9.1874781,12.5426032 9.1874781,11.749972 C9.1874781,10.9573103 8.54264321,10.3124754 7.74998152,10.3124754 Z M7.95795832,2.56249389 C6.25492893,2.56249389 5.16874988,3.27989941 4.31581613,4.55492078 C4.20531224,4.72011204 4.24226894,4.94288983 4.40065479,5.06297621 L5.48497227,5.88517884 C5.64763058,6.0085306 5.87938051,5.97917276 6.0057535,5.8188643 C6.56401023,5.11079714 6.9467913,4.70021462 7.7964902,4.70021462 C8.4348859,4.70021462 9.22452635,5.1110718 9.22452635,5.73014991 C9.22452635,6.19813586 8.83820525,6.43849173 8.20786617,6.79188444 C7.47272999,7.20399283 6.4999845,7.71690055 6.4999845,8.99997854 L6.4999845,9.12497824 C6.4999845,9.33207004 6.66789182,9.49997735 6.87498361,9.49997735 L8.62497944,9.49997735 C8.83207123,9.49997735 8.99997854,9.33207004 8.99997854,9.12497824 L8.99997854,9.08332185 C8.99997854,8.19388916 11.5995207,8.1568409 11.5995207,5.74998629 C11.5995207,3.93742958 9.71939821,2.56249389 7.95795832,2.56249389 Z"></path></clipPath></defs><g transform="translate(4.0 4.0)"><g clip-path="url(#i0)"><polygon points="0,0 15.499963,0 15.499963,15.499963 0,15.499963 0,0" stroke="none" fill="#151515"></polygon></g></g></svg>