<?xml version="1.0" encoding="UTF-8"?><svg version="1.1" width="24px" height="24px" viewBox="0 0 24.0 24.0" xmlns="http://www.w3.org/2000/svg" xmlns:xlink="http://www.w3.org/1999/xlink"><defs><clipPath id="i0"><path d="M8,0 C9.47083333,0 10.6666667,1.19583333 10.6666667,2.66666667 L14,2.66666667 C15.1041667,2.66666667 16,3.5625 16,4.66666667 L16,19.3333333 C16,20.4375 15.1041667,21.3333333 14,21.3333333 L2,21.3333333 C0.895833333,21.3333333 0,20.4375 0,19.3333333 L0,4.66666667 C0,3.5625 0.895833333,2.66666667 2,2.66666667 L5.33333333,2.66666667 C5.33333333,1.19583333 6.52916667,0 8,0 Z M10.3321757,15.1111111 L5.66782432,15.1111389 C5.48385428,15.1111389 5.33333333,15.3111358 5.33333333,15.5555764 L5.33333333,16.4444514 C5.33333333,16.688892 5.48385428,16.8888889 5.66782432,16.8888889 L10.3321757,16.8888611 C10.5161457,16.8888611 10.6666667,16.688892 10.6666667,16.4444236 L10.6666667,15.5555486 C10.6666667,15.311108 10.5161457,15.1111111 10.3321757,15.1111111 Z M12.1100967,11.5555556 L4.77879214,11.5555833 C4.59490091,11.5555833 4.44444444,11.7555802 4.44444444,12.0000208 L4.44444444,12.8888958 C4.44444444,13.1333365 4.59490091,13.3333333 4.77879214,13.3333333 L12.1100967,13.3333056 C12.293988,13.3333056 12.4444444,13.1333365 12.4444444,12.8888681 L12.4444444,11.9999931 C12.4444444,11.7555524 12.293988,11.5555556 12.1100967,11.5555556 Z M2.99999023,8 C2.81666227,8 2.66666667,8.19867139 2.66666667,8.44149197 L2.66666667,9.3244759 C2.66666667,9.56732408 2.81666227,9.76596787 2.99999023,9.76596787 L13.0000098,9.77777778 C13.1833377,9.77777778 13.3333333,9.57910639 13.3333333,9.33628581 L13.3333333,8.45330188 C13.3333333,8.2104813 13.1833377,8.01180991 13.0000098,8.01180991 Z M8,1.77777778 C7.50740741,1.77777778 7.11111111,2.17407407 7.11111111,2.66666667 C7.11111111,3.15925926 7.50740741,3.55555556 8,3.55555556 C8.49259259,3.55555556 8.88888889,3.15925926 8.88888889,2.66666667 C8.88888889,2.17407407 8.49259259,1.77777778 8,1.77777778 Z"></path></clipPath></defs><g transform="translate(4.0 1.0)"><g clip-path="url(#i0)"><polygon points="0,0 16,0 16,21.3333333 0,21.3333333 0,0" stroke="none" fill="#010202"></polygon></g></g></svg>