<?xml version="1.0" encoding="UTF-8"?>
<svg width="24px" height="24px" viewBox="0 0 24 24" version="1.1" xmlns="http://www.w3.org/2000/svg" xmlns:xlink="http://www.w3.org/1999/xlink">
    <title></title>
    <g id="Icons" stroke="none" stroke-width="1" fill="none" fill-rule="evenodd">
        <g id="Icons/1.-Size-md/Framework/user" fill="#151515">
            <path d="M11.9999928,11.9999809 C14.2093591,11.9999809 15.9999738,10.2093663 15.9999738,8 C15.9999738,5.79061463 14.2093591,4 11.9999928,4 C9.79060747,4 7.99999285,5.79061463 7.99999285,8 C7.99999285,10.2093663 9.79060747,11.9999809 11.9999928,11.9999809 Z M17.4999702,19.9999619 C18.3280932,19.9999619 18.9999666,19.3280885 18.9999666,18.4999654 L18.9999666,17.1999807 C18.9999666,14.8812302 17.118715,12.9999785 14.7999644,12.9999785 L14.2781151,12.9999785 C13.5843606,13.3187339 12.8124814,13.4999785 11.9999833,13.4999785 C11.1874852,13.4999785 10.4187493,13.3187339 9.72185154,12.9999785 L9.20000219,12.9999785 C6.88125162,12.9999785 5,14.8812302 5,17.1999807 L5,18.4999654 C5,19.3280885 5.6718734,19.9999619 6.5,19.9999619 L17.4999702,19.9999619 Z" id="user"></path>
        </g>
    </g>
</svg>