<svg xmlns="http://www.w3.org/2000/svg" width="24" height="24" viewBox="0 0 24 24">
  <path fill="#151515" fill-rule="evenodd" d="M18.4999678,8.24999464 C18.7761207,8.24999464 18.9999666,8.02614873 18.9999666,7.74999583 L18.9999666,6.5 C18.9999666,6.2238459 18.7761207,6 18.4999678,6 L5.5,6 C5.2238459,6 5,6.2238459 5,6.5 L5,7.74999583 C5,8.02614873 5.2238459,8.24999464 5.5,8.24999464 L18.4999678,8.24999464 Z M18.4999678,13.2499827 C18.7761207,13.2499827 18.9999666,13.0261368 18.9999666,12.7499839 L18.9999666,11.4999881 C18.9999666,11.223834 18.7761207,10.9999881 18.4999678,10.9999881 L5.5,10.9999881 C5.2238459,10.9999881 5,11.223834 5,11.4999881 L5,12.7499839 C5,13.0261368 5.2238459,13.2499827 5.5,13.2499827 L18.4999678,13.2499827 Z M18.4999678,18.2499708 C18.7761207,18.2499708 18.9999666,18.0261249 18.9999666,17.749972 L18.9999666,16.4999762 C18.9999666,16.2238221 18.7761207,15.9999762 18.4999678,15.9999762 L5.5,15.9999762 C5.2238459,15.9999762 5,16.2238221 5,16.4999762 L5,17.749972 C5,18.0261249 5.2238459,18.2499708 5.5,18.2499708 L18.4999678,18.2499708 Z"/>
</svg>
