<svg xmlns="http://www.w3.org/2000/svg" width="24" height="24" viewBox="0 0 24 24">
  <path fill="#151515" fill-rule="evenodd" d="M8,11 C8.55217659,11 9,10.5521766 9,10 L9,8 C9,7.44781387 8.55217659,7 8,7 L6,7 C5.44781387,7 5,7.44781387 5,8 L5,10 C5,10.5521766 5.44781387,11 6,11 L8,11 Z M12.9999881,11 C13.5521647,11 13.9999881,10.5521766 13.9999881,10 L13.9999881,8 C13.9999881,7.44781387 13.5521647,7 12.9999881,7 L10.9999881,7 C10.447802,7 9.99998808,7.44781387 9.99998808,8 L9.99998808,10 C9.99998808,10.5521766 10.447802,11 10.9999881,11 L12.9999881,11 Z M17.9999762,11 C18.5521527,11 18.9999762,10.5521766 18.9999762,10 L18.9999762,8 C18.9999762,7.44781387 18.5521527,7 17.9999762,7 L15.9999762,7 C15.44779,7 14.9999762,7.44781387 14.9999762,8 L14.9999762,10 C14.9999762,10.5521766 15.44779,11 15.9999762,11 L17.9999762,11 Z M8,16.9999857 C8.55217659,16.9999857 9,16.5521623 9,15.9999857 L9,13.9999857 C9,13.4477996 8.55217659,12.9999857 8,12.9999857 L6,12.9999857 C5.44781387,12.9999857 5,13.4477996 5,13.9999857 L5,15.9999857 C5,16.5521623 5.44781387,16.9999857 6,16.9999857 L8,16.9999857 Z M12.9999881,16.9999857 C13.5521647,16.9999857 13.9999881,16.5521623 13.9999881,15.9999857 L13.9999881,13.9999857 C13.9999881,13.4477996 13.5521647,12.9999857 12.9999881,12.9999857 L10.9999881,12.9999857 C10.447802,12.9999857 9.99998808,13.4477996 9.99998808,13.9999857 L9.99998808,15.9999857 C9.99998808,16.5521623 10.447802,16.9999857 10.9999881,16.9999857 L12.9999881,16.9999857 Z M17.9999762,16.9999857 C18.5521527,16.9999857 18.9999762,16.5521623 18.9999762,15.9999857 L18.9999762,13.9999857 C18.9999762,13.4477996 18.5521527,12.9999857 17.9999762,12.9999857 L15.9999762,12.9999857 C15.44779,12.9999857 14.9999762,13.4477996 14.9999762,13.9999857 L14.9999762,15.9999857 C14.9999762,16.5521623 15.44779,16.9999857 15.9999762,16.9999857 L17.9999762,16.9999857 Z"/>
</svg>
