<?xml version="1.0" encoding="UTF-8"?>
<svg width="171px" height="56px" viewBox="0 0 171 56" version="1.1" xmlns="http://www.w3.org/2000/svg" xmlns:xlink="http://www.w3.org/1999/xlink">
    <title></title>
    <g id="Alerts" stroke="none" stroke-width="1" fill="none" fill-rule="evenodd">
        <g id="Alerts-/-Inline-/-3.-Warning-/-2.-Default---No-actions">
            <rect id="Background" fill="#FDF7E7" x="0" y="0" width="171" height="56"></rect>
            <rect id="Status-Color" fill="#F0AB00" x="0" y="0" width="171" height="3"></rect>
            <g id="exclamation-triangle" transform="translate(16.000000, 16.000000)" fill="#F0AB00">
                <path d="M19.4981174,19.999962 C20.6501533,19.999962 21.3741811,18.7501786 20.7973697,17.7503641 L13.2992797,4.74954061 C12.7232007,3.75106887 11.2778001,3.74923782 10.7007141,4.74954061 L3.20241044,17.7503641 C2.62672822,18.748256 3.34742963,19.999962 4.50169323,19.999962 L19.4981174,19.999962 Z M12.75854,14.4999751 L11.2414538,14.4999751 C11.0422965,14.4999751 10.8778682,14.3442748 10.8670345,14.1454227 L10.6352235,9.89543288 C10.6235048,9.68062016 10.7944944,9.49998704 11.0096123,9.49998704 L12.990351,9.49998704 C13.2054689,9.49998704 13.376489,9.68062016 13.3647702,9.89543288 L13.1329593,14.1454227 C13.1221256,14.3442748 12.9576972,14.4999751 12.75854,14.4999751 Z M11.9999969,17.9374669 C11.206084,17.9374669 10.5625003,17.2938833 10.5625003,16.4999704 C10.5625003,15.7060575 11.206084,15.0624738 11.9999969,15.0624738 C12.7939098,15.0624738 13.4374935,15.7060575 13.4374935,16.4999704 C13.4374935,17.2938833 12.7939098,17.9374669 11.9999969,17.9374669 Z"></path>
            </g>
            <text id="Title" font-family="RedHatText-Medium, Red Hat Text" font-size="14" font-weight="400" line-spacing="21" fill="#795600">
                <tspan x="44" y="32">Title</tspan>
            </text>
            <g id="ðŸ“-Padding" fill-opacity="0.9">
                <g id="Spacer-/-Horizontal-/-3.-pf-global--spacer--md-(16px)" fill="#3F9C35" stroke="#418A38" transform="translate(8.000000, 28.000000) scale(-1, 1) translate(-8.000000, -28.000000) ">
                    <rect id="Rectangle-Copy-2" x="0.5" y="0.5" width="15" height="55"></rect>
                </g>
                <g id="Group" transform="translate(155.000000, 0.000000)" fill="#3F9C35" stroke="#418A38">
                    <g id="Spacer-/-Horizontal-/-3.-pf-global--spacer--md-(16px)" transform="translate(8.000000, 28.000000) scale(-1, 1) translate(-8.000000, -28.000000) ">
                        <rect id="Rectangle-Copy-2" x="0.5" y="0.5" width="15" height="55"></rect>
                    </g>
                </g>
                <g id="Group" transform="translate(40.000000, 16.000000)" fill="#EC7A08" stroke="#C77000">
                    <g id="Spacer-/-Horizontal-/-3.-pf-global--spacer--md-(16px)" transform="translate(2.000000, 12.000000) scale(-1, 1) translate(-2.000000, -12.000000) ">
                        <rect id="Rectangle" x="0.5" y="0.5" width="3" height="23"></rect>
                    </g>
                </g>
                <g id="Spacer-/-Vertical-/-3.-pf-global--spacer--md-(16px)" transform="translate(16.000000, 0.000000)" fill="#3F9C35" stroke="#418A38">
                    <rect id="Rectangle-Copy-2" x="0.5" y="0.5" width="138" height="15"></rect>
                </g>
                <g id="Spacer-/-Vertical-/-3.-pf-global--spacer--md-(16px)" transform="translate(16.000000, 40.000000)" fill="#3F9C35" stroke="#418A38">
                    <rect id="Rectangle-Copy-2" x="0.5" y="0.5" width="138" height="15"></rect>
                </g>
            </g>
        </g>
    </g>
</svg>