<?xml version="1.0" encoding="UTF-8"?>
<svg width="171px" height="56px" viewBox="0 0 171 56" version="1.1" xmlns="http://www.w3.org/2000/svg" xmlns:xlink="http://www.w3.org/1999/xlink">
    <title></title>
    <g id="Alerts" stroke="none" stroke-width="1" fill="none" fill-rule="evenodd">
        <g id="Alerts-/-Inline-/-3.-Warning-/-6.-Dismissable---No-Actions">
            <rect id="Background" fill="#FDF7E7" x="0" y="0" width="171" height="56"></rect>
            <rect id="Status-Color" fill="#F0AB00" x="0" y="0" width="171" height="3"></rect>
            <g id="Warning-icon" transform="translate(19.000000, 20.000000)" fill="#F0AB00">
                <path d="M16.4981174,15.999962 C17.6501533,15.999962 18.3741811,14.7501786 17.7973697,13.7503641 L10.2992797,0.749540607 C9.72320073,-0.248931134 8.27780012,-0.250762184 7.7007141,0.749540607 L0.202410442,13.7503641 C-0.373271779,14.748256 0.347429627,15.999962 1.50169323,15.999962 L16.4981174,15.999962 Z M9.75854,10.4999751 L8.24145378,10.4999751 C8.04229654,10.4999751 7.87786822,10.3442748 7.8670345,10.1454227 L7.63522353,5.89543288 C7.62350481,5.68062016 7.79449439,5.49998704 8.00961229,5.49998704 L9.99035097,5.49998704 C10.2054689,5.49998704 10.376489,5.68062016 10.3647702,5.89543288 L10.1329593,10.1454227 C10.1221256,10.3442748 9.95769724,10.4999751 9.75854,10.4999751 Z M8.99999689,13.9374669 C8.20608399,13.9374669 7.56250032,13.2938833 7.56250032,12.4999704 C7.56250032,11.7060575 8.20608399,11.0624738 8.99999689,11.0624738 C9.79390979,11.0624738 10.4374935,11.7060575 10.4374935,12.4999704 C10.4374935,13.2938833 9.79390979,13.9374669 8.99999689,13.9374669 Z" id="exclamation-triangle"></path>
            </g>
            <g id="Close-button" transform="translate(138.000000, 23.000000)" fill="#6A6E73">
                <path d="M2.37280471,10.7121708 L5.5,7.584981 L8.62718433,10.7121708 C9.01091144,11.0959284 9.63340751,11.0959284 10.0171651,10.7121708 L10.7121708,10.0171651 C11.0959284,9.63340751 11.0959284,9.01124713 10.7121708,8.62718433 L7.584981,5.5 L10.7121708,2.37280471 C11.0959284,1.98907759 11.0959284,1.36688669 10.7121708,0.98282389 L10.0171651,0.287818222 C9.63340751,-0.0959394075 9.01124713,-0.0959394075 8.62718433,0.287818222 L5.5,3.41500803 L2.37280471,0.287818222 C1.98907759,-0.0959394075 1.36688669,-0.0959394075 0.98282389,0.287818222 L0.287818222,0.98282389 C-0.0959394075,1.36658152 -0.0959394075,1.9887419 0.287818222,2.37280471 L3.41500803,5.5 L0.287818222,8.62718433 C-0.0959394075,9.01091144 -0.0959394075,9.63310234 0.287818222,10.0171651 L0.98282389,10.7121708 C1.36658152,11.0959284 1.98907759,11.0959284 2.37280471,10.7121708 Z" id="times"></path>
            </g>
            <text id="Title" font-family="RedHatText-Medium, Red Hat Text" font-size="14" font-weight="400" line-spacing="21" fill="#795600">
                <tspan x="44" y="32">Title</tspan>
            </text>
            <g id="ðŸ“-Padding" fill-opacity="0.9">
                <g id="Spacer-/-Horizontal-/-3.-pf-global--spacer--md-(16px)" transform="translate(8.000000, 28.000000) scale(-1, 1) translate(-8.000000, -28.000000) " fill="#3F9C35" stroke="#418A38">
                    <rect id="Rectangle-Copy-2" x="0.5" y="0.5" width="15" height="55"></rect>
                </g>
                <g id="Spacer-/-Horizontal-/-3.-pf-global--spacer--md-(16px)" transform="translate(163.000000, 28.000000) scale(-1, 1) translate(-163.000000, -28.000000) translate(155.000000, 0.000000)" fill="#3F9C35" stroke="#418A38">
                    <rect id="Rectangle-Copy-2" x="0.5" y="0.5" width="15" height="55"></rect>
                </g>
                <g id="Spacer-/-Horizontal-/-3.-pf-global--spacer--md-(16px)" transform="translate(42.000000, 28.000000) scale(-1, 1) translate(-42.000000, -28.000000) translate(40.000000, 16.000000)" fill="#EC7A08" stroke="#C77000">
                    <rect id="Rectangle" x="0.5" y="0.5" width="3" height="23"></rect>
                </g>
                <g id="Spacer-/-Vertical-/-3.-pf-global--spacer--md-(16px)" transform="translate(16.000000, 0.000000)" fill="#3F9C35" stroke="#418A38">
                    <rect id="Rectangle-Copy-2" x="0.5" y="0.5" width="138" height="15"></rect>
                </g>
                <g id="Spacer-/-Vertical-/-3.-pf-global--spacer--md-(16px)" transform="translate(16.000000, 40.000000)" fill="#3F9C35" stroke="#418A38">
                    <rect id="Rectangle-Copy-2" x="0.5" y="0.5" width="138" height="15"></rect>
                </g>
            </g>
        </g>
    </g>
</svg>