<?xml version="1.0" encoding="UTF-8"?><svg version="1.1" width="290px" height="48px" viewBox="0 0 290.0 48.0" xmlns="http://www.w3.org/2000/svg" xmlns:xlink="http://www.w3.org/1999/xlink"><defs><clipPath id="i0"><path d="M290,0 L290,48 L0,48 L0,0 L290,0 Z"></path></clipPath><clipPath id="i1"><path d="M242,0 L242,8 L0,8 L0,0 L242,0 Z"></path></clipPath><clipPath id="i2"><path d="M24,0 L24,48 L0,48 L0,0 L24,0 Z"></path></clipPath></defs><g clip-path="url(#i0)"><polygon points="0,0 290,0 290,48 0,48 0,0" stroke="none" fill="#202426"></polygon></g><g transform="translate(24.0 16.0)"><text transform="translate(0.0 16.0)" font-family="RedHatText-Regular, Red Hat Text" font-size="16.0" font-weight="normal" fill="#FFFFFF" text-anchor="left" line-spacing="24.0">Page title</text></g><g transform="translate(24.0 40.0)"><g clip-path="url(#i1)"><polygon points="0,0 242,0 242,8 0,8 0,0" stroke="none" fill="rgba(146, 211, 0, 0.9)"></polygon></g><g clip-path="url(#i1)"><polygon points="0,0 242,0 242,8 0,8 0,0 0,0" stroke="#7EB200" stroke-width="2" fill="none" stroke-miterlimit="5"></polygon></g></g><g transform="translate(24.0 8.0)"><g clip-path="url(#i1)"><polygon points="0,0 242,0 242,8 0,8 0,0" stroke="none" fill="rgba(146, 211, 0, 0.9)"></polygon></g><g clip-path="url(#i1)"><polygon points="0,0 242,0 242,8 0,8 0,0 0,0" stroke="#7EB200" stroke-width="2" fill="none" stroke-miterlimit="5"></polygon></g></g><g transform="translate(24.0 0.0)"><g clip-path="url(#i1)"><polygon points="0,0 242,0 242,8 0,8 0,0" stroke="none" fill="rgba(146, 211, 0, 0.9)"></polygon></g><g clip-path="url(#i1)"><polygon points="0,0 242,0 242,8 0,8 0,0 0,0" stroke="#7EB200" stroke-width="2" fill="none" stroke-miterlimit="5"></polygon></g></g><g transform=""><g clip-path="url(#i2)"><polygon points="0,0 24,0 24,48 0,48 0,0" stroke="none" fill="rgba(0, 121, 135, 0.9)"></polygon></g><g clip-path="url(#i2)"><polygon points="0,0 24,0 24,48 0,48 0,0 0,0" stroke="#09707A" stroke-width="2" fill="none" stroke-miterlimit="5"></polygon></g></g><g transform="translate(266.0000000000002 0.0)"><g clip-path="url(#i2)"><polygon points="0,0 24,0 24,48 0,48 0,0" stroke="none" fill="rgba(0, 121, 135, 0.9)"></polygon></g><g clip-path="url(#i2)"><polygon points="0,0 24,0 24,48 0,48 0,0 0,0" stroke="#09707A" stroke-width="2" fill="none" stroke-miterlimit="5"></polygon></g></g></svg>