<?xml version="1.0" encoding="UTF-8"?>
<svg width="268px" height="40px" viewBox="0 0 268 40" version="1.1" xmlns="http://www.w3.org/2000/svg" xmlns:xlink="http://www.w3.org/1999/xlink">
    <title></title>
    <g id="Tree-view" stroke="none" stroke-width="1" fill="none" fill-rule="evenodd">
        <g id="Tree-view-/-3.-With-icon-/-Folder-/-2.-Second-level-/-Selected">
            <g id="Dropdowns-/-3.-Menu-Item-/-Default">
                <text id="âœï¸-Label" font-family="RedHatDisplay-Medium, Red Hat Display" font-size="16" font-weight="500" line-spacing="24" fill="#151515">
                    <tspan x="80" y="24">Second level </tspan>
                </text>
                <g id="ðŸ“-Padding" fill-opacity="0.9">
                    <g id="Spacer-/-Vertical-/-2.-pf-global--spacer--sm-(8px)" fill="#92D400" stroke="#7FB300">
                        <rect id="Rectangle-Copy" x="0.5" y="0.5" width="259" height="7"></rect>
                    </g>
                    <g id="Spacer-/-Vertical-/-2.-pf-global--spacer--sm-(8px)" transform="translate(0.000000, 32.000000)" fill="#92D400" stroke="#7FB300">
                        <rect id="Rectangle-Copy" x="0.5" y="0.5" width="259" height="7"></rect>
                    </g>
                    <g id="Spacer-/-Horizontal-/-4.-pf-global--spacer--lg-(24px)" transform="translate(260.000000, 0.000000)" fill="#92D400" stroke="#7FB300">
                        <rect id="Rectangle-Copy" x="0.5" y="0.5" width="7" height="39"></rect>
                    </g>
                    <g id="Spacer-/-Horizontal-/-5.-pf-global--spacer--xl-(32px)" fill="#0088CE" stroke="#0479B0">
                        <rect id="Rectangle-Copy-4" x="0.5" y="0.5" width="31" height="39"></rect>
                    </g>
                    <g id="Spacer-/-Horizontal-/-3.-pf-global--spacer--md-(16px)" transform="translate(48.000000, 8.000000)" fill="#92D400" stroke="#7FB300">
                        <rect id="Rectangle-Copy" x="0.5" y="0.5" width="7" height="23.5"></rect>
                    </g>
                    <g id="Spacer-/-Horizontal-/-4.-pf-global--spacer--lg-(24px)" transform="translate(72.000000, 0.000000)" fill="#92D400" stroke="#7FB300">
                        <rect id="Rectangle-Copy" x="0.5" y="0.5" width="7" height="39"></rect>
                    </g>
                </g>
                <g id="angle-down" transform="translate(28.000000, 8.000000)" fill="#151515">
                    <path d="M12.1449143,14.6769317 L15.3324067,11.4894393 C15.5527278,11.2714756 15.5527278,10.9152219 15.3324067,10.6949237 L14.8027296,10.1652237 C14.5847659,9.94492544 14.2285122,9.94492544 14.0081911,10.1652237 L11.7488352,12.4246024 L9.48945644,10.1652237 C9.27149279,9.94492544 8.91523906,9.94492544 8.69491793,10.1652237 L8.16524085,10.6949237 C7.94491972,10.9128873 7.94491972,11.269141 8.16524085,11.4894393 L11.3527332,14.6769317 C11.5730544,14.8972528 11.9292852,14.8972528 12.1449143,14.6769317 Z"></path>
                </g>
            </g>
            <g id="Icons/1.-Size-md-(16px)/Framework/folder" transform="translate(51.992188, 8.000000)" fill="#6A6E73">
                <path d="M3,16.18891 L5.15865574,12.4883573 C5.69417693,11.5702992 6.68715552,10.9999881 7.74998868,10.9999881 L17.9999642,10.9999881 L17.9999642,9.5 C17.9999642,8.67156345 17.328396,8 16.4999678,8 L11.4999797,8 L9.4999845,6 L4.5,6 C3.67156822,6 3,6.67156822 3,7.5 L3,16.18891 Z M16.9059117,17.9999714 C17.5400044,17.9999714 18.3138978,17.5554534 18.6333856,17.0077252 L20.8966553,13.1278822 C21.1883416,12.6278834 20.8276858,11.9999857 20.2488297,11.9999857 L7.74998868,11.9999857 C7.11586543,11.9999857 6.3419415,12.4445037 6.02242321,12.9922319 L3.75918398,16.8720749 C3.46752818,17.3720737 3.82818406,17.9999714 4.4070401,17.9999714 L16.9059117,17.9999714 Z" id="folder-open"></path>
            </g>
        </g>
    </g>
</svg>