<?xml version="1.0" encoding="UTF-8"?><svg version="1.1" width="1000px" height="194px" viewBox="0 0 1000.0 194.0" xmlns="http://www.w3.org/2000/svg" xmlns:xlink="http://www.w3.org/1999/xlink"><defs><filter id="i0" x="-1.29224652%" y="-7.5%" filterUnits="userSpaceOnUse" width="101.988072%" height="110%"><feGaussianBlur stdDeviation="2" in="SourceAlpha" result="i1"></feGaussianBlur><feOffset dx="0" dy="-2" in="i1" result="i2"></feOffset><feColorMatrix values="0 0 0 0.0 0 0 0 0 0.0 0 0 0 0 0.0 0 0 0 0 0.16 0" type="matrix" in="i2"></feColorMatrix></filter><clipPath id="i3"><path d="M1000,0 L1000,194 L0,194 L0,0 L1000,0 Z"></path></clipPath><clipPath id="i4"><path d="M3,0 L3,194 L0,194 L0,0 L3,0 Z"></path></clipPath><clipPath id="i5"><path d="M0.926557239,0.220298242 C1.22031875,-0.0734327473 1.69532372,-0.0734327473 1.98594192,0.220298242 L4.99844695,3.23280327 L8.01092145,0.220298242 C8.30468296,-0.0734327473 8.77968793,-0.0734327473 9.07030613,0.220298242 L9.77654224,0.926564869 C10.0703037,1.22029586 10.0703037,1.69530083 9.77654224,1.98591903 L5.52655238,6.2359089 C5.23904696,6.52967041 4.7640725,6.52967041 4.470311,6.2359089 L0.22032113,1.98591903 C-0.0734403767,1.69218804 -0.0734403767,1.21718307 0.22032113,0.926564869 Z"></path></clipPath><clipPath id="i6"><path d="M774,0 L774,31 L0,31 L0,0 L774,0 Z"></path></clipPath><clipPath id="i7"><path d="M9.05097583,0.0296855352 C9.35142038,-0.0508183388 9.67199091,0.0350782771 9.89193158,0.255018959 L15.4884982,5.85158562 C15.6561055,6.01252385 15.7508477,6.23484337 15.7508477,6.46720796 C15.7508477,6.69957255 15.6561055,6.92189206 15.4884982,7.08283029 L9.89193158,12.679397 C9.5495258,13.0135343 9.0030927,13.0135343 8.66068691,12.679397 C8.49307967,12.5184587 8.3983375,12.2961392 8.3983375,12.0637746 C8.3983375,11.83141 8.49307967,11.6090905 8.66068691,11.4481523 L12.760172,7.33467579 L0.88145925,7.33467579 C0.400054802,7.33473644 0.00764133668,6.94855176 0,6.46720796 C0,6.23343043 0.0928677615,6.00922782 0.258173437,5.84392214 C0.423479112,5.67861647 0.647681722,5.58574871 0.88145925,5.58574871 L12.760172,5.58574871 L8.66068691,1.48626362 C8.44074623,1.26632295 8.35484962,0.945752428 8.43535349,0.645307874 C8.51585737,0.34486332 8.75053128,0.110189409 9.05097583,0.0296855352 Z"></path></clipPath><clipPath id="i8"><path d="M953,0 L953,16 L0,16 L0,0 L953,0 Z"></path></clipPath><clipPath id="i9"><path d="M951.952747,0 L951.952747,16 L0,16 L0,0 L951.952747,0 Z"></path></clipPath><clipPath id="i10"><path d="M24,0 L24,138 L0,138 L0,0 L24,0 Z"></path></clipPath><clipPath id="i11"><path d="M24,0 L24,91 L0,91 L0,0 L24,0 Z"></path></clipPath><clipPath id="i12"><path d="M8,0 L8,24 L0,24 L0,0 L8,0 Z"></path></clipPath><clipPath id="i13"><path d="M1000,0 L1000,16 L0,16 L0,0 L1000,0 Z"></path></clipPath><clipPath id="i14"><path d="M16,0 L16,24 L0,24 L0,0 L16,0 Z"></path></clipPath><clipPath id="i15"><path d="M996,0 L996,24 L0,24 L0,0 L996,0 Z"></path></clipPath></defs><polygon points="1,1 999,1 999,193 1,193 1,1" stroke="none" fill="#000000" filter="url(#i0)"></polygon><g clip-path="url(#i3)"><polygon points="0,0 1000,0 1000,194 0,194 0,0" stroke="none" fill="#FFFFFF"></polygon></g><g clip-path="url(#i4)"><polygon points="0,0 3,0 3,194 0,194 0,0" stroke="none" fill="#0066CC"></polygon></g><g transform="translate(8.0 16.0)"><g transform="translate(7.0 9.0)"><g clip-path="url(#i5)"><polygon points="0,0 9.99686337,0 9.99686337,6.45623003 0,6.45623003 0,0" stroke="none" fill="#151515"></polygon></g></g></g><g transform="translate(40.0 16.0)"><text transform="translate(0.0 16.0)" font-family="RedHatText-Regular, Red Hat Text" font-size="16.0" font-weight="normal" fill="#151515" text-anchor="left" line-spacing="24.0">Disclosure width version</text></g><g transform="translate(24.0 103.0)"><text transform="translate(0.0 16.0)" font-family="RedHatText-Regular, Red Hat Text" font-size="16.0" font-weight="normal" fill="#151515" text-anchor="left" line-spacing="24.0">Content goes here.</text></g><g transform="translate(24.0 56.0)"><g clip-path="url(#i6)"><text transform="translate(0.0 24.0)" font-family="RedHatDisplay-Medium, Red Hat Display" font-size="24.0" font-weight="500" fill="#151515" text-anchor="left" line-spacing="31.2">Optional heading in content area</text></g></g><g transform="translate(24.0 143.0)"><text transform="translate(0.0 18.0)" font-family="RedHatDisplay-Bold, Red Hat Display" font-size="18.0" font-weight="bold" fill="#0066CC" text-anchor="left" line-spacing="27.0">Call to action</text><g transform="translate(120.0 6.0)"><g transform="translate(0.04152539041454251 1.8449999999999829)"><g clip-path="url(#i7)"><polygon points="0,1.11022302e-16 15.7508477,1.11022302e-16 15.7508477,12.93 0,12.93 0,1.11022302e-16" stroke="none" fill="#0066CC"></polygon></g></g></g></g><g transform="translate(23.0 131.0)"><g clip-path="url(#i8)"><polygon points="0,0 953,0 953,16 0,16 0,0" stroke="none" fill="rgba(62, 156, 52, 0.9)"></polygon></g><g clip-path="url(#i8)"><polygon points="0,0 953,0 953,16 0,16 0,0 0,0" stroke="#418A37" stroke-width="2" fill="none" stroke-miterlimit="5"></polygon></g></g><g transform="translate(24.04725274725274 87.0)"><g clip-path="url(#i9)"><polygon points="0,0 951.952747,0 951.952747,16 0,16 0,0" stroke="none" fill="rgba(62, 156, 52, 0.9)"></polygon></g><g clip-path="url(#i9)"><polygon points="0,0 951.952747,0 951.952747,16 0,16 0,0 0,0" stroke="#418A37" stroke-width="2" fill="none" stroke-miterlimit="5"></polygon></g></g><g transform="translate(0.0 56.0)"><g clip-path="url(#i10)"><polygon points="0,0 24,0 24,138 0,138 0,0" stroke="none" fill="rgba(0, 121, 135, 0.9)"></polygon></g><g clip-path="url(#i10)"><polygon points="0,0 24,0 24,138 0,138 0,0 0,0" stroke="#09707A" stroke-width="2" fill="none" stroke-miterlimit="5"></polygon></g></g><g transform="translate(976.0 56.0)"><g clip-path="url(#i11)"><polygon points="0,0 24,0 24,91 0,91 0,0" stroke="none" fill="rgba(0, 121, 135, 0.9)"></polygon></g><g clip-path="url(#i11)"><polygon points="0,0 24,0 24,91 0,91 0,0 0,0" stroke="#09707A" stroke-width="2" fill="none" stroke-miterlimit="5"></polygon></g></g><g transform="translate(32.0 16.0)"><g clip-path="url(#i12)"><polygon points="0,0 8,0 8,24 0,24 0,0" stroke="none" fill="rgba(146, 211, 0, 0.9)"></polygon></g><g clip-path="url(#i12)"><polygon points="0,0 8,0 8,24 0,24 0,0 0,0" stroke="#7EB200" stroke-width="2" fill="none" stroke-miterlimit="5"></polygon></g></g><g transform="translate(0.0 16.0)"><g clip-path="url(#i12)"><polygon points="0,0 8,0 8,24 0,24 0,0" stroke="none" fill="rgba(146, 211, 0, 0.9)"></polygon></g><g clip-path="url(#i12)"><polygon points="0,0 8,0 8,24 0,24 0,0 0,0" stroke="#7EB200" stroke-width="2" fill="none" stroke-miterlimit="5"></polygon></g></g><g transform="translate(0.0 40.0)"><g clip-path="url(#i13)"><polygon points="0,0 1000,0 1000,16 0,16 0,0" stroke="none" fill="rgba(62, 156, 52, 0.9)"></polygon></g><g clip-path="url(#i13)"><polygon points="0,0 1000,0 1000,16 0,16 0,0 0,0" stroke="#418A37" stroke-width="2" fill="none" stroke-miterlimit="5"></polygon></g></g><g transform="translate(983.2635983263599 15.999999999999998)"><g clip-path="url(#i14)"><polygon points="0,0 16,0 16,24 0,24 0,0" stroke="none" fill="rgba(62, 156, 52, 0.9)"></polygon></g><g clip-path="url(#i14)"><polygon points="0,0 16,0 16,24 0,24 0,0 0,0" stroke="#418A37" stroke-width="2" fill="none" stroke-miterlimit="5"></polygon></g></g><g clip-path="url(#i13)"><polygon points="0,0 1000,0 1000,16 0,16 0,0" stroke="none" fill="rgba(62, 156, 52, 0.9)"></polygon></g><g clip-path="url(#i13)"><polygon points="0,0 1000,0 1000,16 0,16 0,0 0,0" stroke="#418A37" stroke-width="2" fill="none" stroke-miterlimit="5"></polygon></g><g transform="translate(4.0 170.0)"><g clip-path="url(#i15)"><polygon points="0,0 996,0 996,24 0,24 0,0" stroke="none" fill="rgba(0, 121, 135, 0.9)"></polygon></g><g clip-path="url(#i15)"><polygon points="0,0 996,0 996,24 0,24 0,0 0,0" stroke="#09707A" stroke-width="2" fill="none" stroke-miterlimit="5"></polygon></g></g></svg>