<?xml version="1.0" encoding="UTF-8"?>
<svg width="1000px" height="194px" viewBox="0 0 1000 194" version="1.1" xmlns="http://www.w3.org/2000/svg" xmlns:xlink="http://www.w3.org/1999/xlink">
    <title></title>
    <defs>
        <rect id="path-1" x="0" y="0" width="1000" height="194"></rect>
        <filter x="-0.6%" y="-3.9%" width="101.1%" height="105.7%" filterUnits="objectBoundingBox" id="filter-2">
            <feMorphology radius="0.5" operator="erode" in="SourceAlpha" result="shadowSpreadOuter1"></feMorphology>
            <feOffset dx="0" dy="-2" in="shadowSpreadOuter1" result="shadowOffsetOuter1"></feOffset>
            <feGaussianBlur stdDeviation="2" in="shadowOffsetOuter1" result="shadowBlurOuter1"></feGaussianBlur>
            <feColorMatrix values="0 0 0 0 0   0 0 0 0 0   0 0 0 0 0  0 0 0 0.16 0" type="matrix" in="shadowBlurOuter1"></feColorMatrix>
        </filter>
    </defs>
    <g id="Expandable" stroke="none" stroke-width="1" fill="none" fill-rule="evenodd">
        <g id="Expandable-/-3.-Disclosure-/-3.-Expanded-with-heading-(full-example)">
            <g id="Expandable-/-3.-Disclosure-/-Background">
                <g id="Rectangle">
                    <use fill="black" fill-opacity="1" filter="url(#filter-2)" xlink:href="#path-1"></use>
                    <use fill="#FFFFFF" fill-rule="evenodd" xlink:href="#path-1"></use>
                </g>
                <rect id="Rectangle" fill="#0066CC" x="0" y="0" width="3" height="194"></rect>
            </g>
            <g id="Caret-right" transform="translate(15.000000, 25.000000)" fill="#151515">
                <path d="M5.52655238,6.2359089 L9.77654224,1.98591903 C10.0703037,1.69530083 10.0703037,1.22029586 9.77654224,0.926564869 L9.07030613,0.220298242 C8.77968793,-0.0734327473 8.30468296,-0.0734327473 8.01092145,0.220298242 L4.99844695,3.23280327 L1.98594192,0.220298242 C1.69532372,-0.0734327473 1.22031875,-0.0734327473 0.926557239,0.220298242 L0.22032113,0.926564869 C-0.0734403767,1.21718307 -0.0734403767,1.69218804 0.22032113,1.98591903 L4.470311,6.2359089 C4.7640725,6.52967041 5.23904696,6.52967041 5.52655238,6.2359089 Z" id="angle-down"></path>
            </g>
            <text id="Expandable-/-Disclosure-width-ver" font-family="RedHatText-Regular, Red Hat Text" font-size="16" font-weight="normal" line-spacing="24" fill="#151515">
                <tspan x="40" y="32">Disclosure width version</tspan>
            </text>
            <text id="Content-goes-here." font-family="RedHatText-Regular, Red Hat Text" font-size="16" font-weight="normal" line-spacing="24" fill="#151515">
                <tspan x="24" y="119">Content goes here.</tspan>
            </text>
            <text id="Heading" font-family="RedHatDisplay-Medium, Red Hat Display" font-size="24" font-weight="500" line-spacing="31.2" fill="#151515">
                <tspan x="24" y="80">Optional heading in content area</tspan>
            </text>
            <g id="Button-/-8.-Call-to-action-/-Link" transform="translate(24.000000, 143.000000)" fill="#0066CC">
                <text id="CTA-Label" font-family="RedHatDisplay-Bold, Red Hat Display" font-size="18" font-weight="bold" line-spacing="27">
                    <tspan x="0" y="18">Call to action</tspan>
                </text>
                <g id="Icons-/-Web-Componenta-/-Arrow-right" transform="translate(120.041525, 7.845000)">
                    <path d="M15.4884982,5.85158562 L9.89193158,0.255018959 C9.67199091,0.0350782771 9.35142038,-0.0508183388 9.05097583,0.0296855352 C8.75053128,0.110189409 8.51585737,0.34486332 8.43535349,0.645307874 C8.35484962,0.945752428 8.44074623,1.26632295 8.66068691,1.48626362 L12.760172,5.58574871 L0.88145925,5.58574871 C0.647681722,5.58574871 0.423479112,5.67861647 0.258173437,5.84392214 C0.0928677615,6.00922782 0,6.23343043 0,6.46720796 C0.00764133668,6.94855176 0.400054802,7.33473644 0.88145925,7.33467579 L12.760172,7.33467579 L8.66068691,11.4481523 C8.49307967,11.6090905 8.3983375,11.83141 8.3983375,12.0637746 C8.3983375,12.2961392 8.49307967,12.5184587 8.66068691,12.679397 C9.0030927,13.0135343 9.5495258,13.0135343 9.89193158,12.679397 L15.4884982,7.08283029 C15.6561055,6.92189206 15.7508477,6.69957255 15.7508477,6.46720796 C15.7508477,6.23484337 15.6561055,6.01252385 15.4884982,5.85158562 Z" id="Arrow-right"></path>
                </g>
            </g>
            <g id="ðŸ“-Padding" fill-opacity="0.9">
                <g id="Spacer-/-Vertical-/-3.-pf-global--spacer--md-(16px)" transform="translate(23.000000, 131.000000)" fill="#3F9C35" stroke="#418A38">
                    <rect id="Rectangle-Copy-2" x="0.5" y="0.5" width="952" height="15"></rect>
                </g>
                <g id="Spacer-/-Vertical-/-3.-pf-global--spacer--md-(16px)" transform="translate(24.047253, 87.000000)" fill="#3F9C35" stroke="#418A38">
                    <rect id="Rectangle-Copy-2" x="0.5" y="0.5" width="950.952747" height="15"></rect>
                </g>
                <g id="Spacer-/-Horizontal-/-2.-pf-global--spacer--sm-(8px)" transform="translate(0.000000, 56.000000)" fill="#007A87" stroke="#09707B">
                    <rect id="Rectangle-Copy-3" x="0.5" y="0.5" width="23" height="137"></rect>
                </g>
                <g id="Spacer-/-Horizontal-/-2.-pf-global--spacer--sm-(8px)" transform="translate(976.000000, 56.000000)" fill="#007A87" stroke="#09707B">
                    <rect id="Rectangle-Copy-3" x="0.5" y="0.5" width="23" height="90"></rect>
                </g>
                <g id="Spacer-/-Horizontal-/-2.-pf-global--spacer--sm-(8px)" transform="translate(32.000000, 16.000000)" fill="#92D400" stroke="#7FB300">
                    <rect id="Rectangle-Copy" x="0.5" y="0.5" width="7" height="23"></rect>
                </g>
                <g id="Spacer-/-Horizontal-/-2.-pf-global--spacer--sm-(8px)" transform="translate(0.000000, 16.000000)" fill="#92D400" stroke="#7FB300">
                    <rect id="Rectangle-Copy" x="0.5" y="0.5" width="7" height="23"></rect>
                </g>
                <g id="Spacer-/-Vertical-/-3.-pf-global--spacer--md-(16px)" transform="translate(0.000000, 40.000000)" fill="#3F9C35" stroke="#418A38">
                    <rect id="Rectangle-Copy-2" x="0.5" y="0.5" width="999" height="15"></rect>
                </g>
                <g id="Spacer-/-Horizontal-/-3.-pf-global--spacer--md-(16px)" transform="translate(983.263598, 16.000000)" fill="#3F9C35" stroke="#418A38">
                    <rect id="Rectangle-Copy-2" x="0.5" y="0.5" width="15" height="23"></rect>
                </g>
                <g id="Spacer-/-Vertical-/-3.-pf-global--spacer--md-(16px)" fill="#3F9C35" stroke="#418A38">
                    <rect id="Rectangle-Copy-2" x="0.5" y="0.5" width="999" height="15"></rect>
                </g>
                <g id="Spacer-/-Vertical-/-3.-pf-global--spacer--md-(16px)" transform="translate(4.000000, 170.000000)" fill="#007A87" stroke="#09707B">
                    <rect id="Rectangle-Copy-3" x="0.5" y="0.5" width="995" height="23"></rect>
                </g>
            </g>
        </g>
    </g>
</svg>