<?xml version="1.0" encoding="UTF-8"?><svg version="1.1" width="109px" height="40px" viewBox="0 0 109.0 40.0" xmlns="http://www.w3.org/2000/svg" xmlns:xlink="http://www.w3.org/1999/xlink"><defs><clipPath id="i0"><path d="M122,0 C123.656854,-3.04359188e-16 125,1.34314575 125,3 L125,53 C125,54.6568542 123.656854,56 122,56 L3,56 C1.34314575,56 2.86744138e-15,54.6568542 0,53 L0,3 C-2.02906125e-16,1.34314575 1.34314575,-1.47199765e-15 3,0 L122,0 Z"></path></clipPath><clipPath id="i1"><path d="M109,0 L109,40 L0,40 L0,0 L109,0 Z"></path></clipPath><clipPath id="i2"><path d="M3,0 L3,40 L0,40 L0,0 L3,0 Z"></path></clipPath><clipPath id="i3"><path d="M0.926557239,0.220298242 C1.22031875,-0.0734327473 1.69532372,-0.0734327473 1.98594192,0.220298242 L4.99844695,3.23280327 L8.01092145,0.220298242 C8.30468296,-0.0734327473 8.77968793,-0.0734327473 9.07030613,0.220298242 L9.77654224,0.926564869 C10.0703037,1.22029586 10.0703037,1.69530083 9.77654224,1.98591903 L5.52655238,6.2359089 C5.23904696,6.52967041 4.7640725,6.52967041 4.470311,6.2359089 L0.22032113,1.98591903 C-0.0734403767,1.69218804 -0.0734403767,1.21718307 0.22032113,0.926564869 Z"></path></clipPath><clipPath id="i4"><path d="M77,0 L77,8 L0,8 L0,0 L77,0 Z"></path></clipPath><clipPath id="i5"><path d="M16,0 L16,40 L0,40 L0,0 L16,0 Z"></path></clipPath></defs><g transform="translate(-8.0 -8.0)"><g clip-path="url(#i0)"><polygon points="0,0 125,0 125,56 0,56 0,0" stroke="none" fill="rgba(0, 102, 204, 0.2)"></polygon></g><g clip-path="url(#i0)"><path d="M3,0 L122,0 C123.656854,-3.04359188e-16 125,1.34314575 125,3 L125,53 C125,54.6568542 123.656854,56 122,56 L3,56 C1.34314575,56 2.86744138e-15,54.6568542 0,53 L0,3 C-2.02906125e-16,1.34314575 1.34314575,-1.47199765e-15 3,0 Z" stroke="#0066CC" stroke-width="2" fill="none" stroke-miterlimit="5"></path></g></g><g clip-path="url(#i1)"><polygon points="0,0 109,0 109,40 0,40 0,0" stroke="none" fill="#F0F0F0"></polygon></g><g clip-path="url(#i2)"><polygon points="0,0 3,0 3,40 0,40 0,0" stroke="none" fill="#0066CC"></polygon></g><g transform="translate(69.0 8.0)"><g transform="translate(7.0 9.0)"><g clip-path="url(#i3)"><polygon points="0,0 9.99686337,0 9.99686337,6.45623003 0,6.45623003 0,0" stroke="none" fill="#151515"></polygon></g></g></g><g transform="translate(16.0 8.0)"><text transform="translate(0.0 16.0)" font-family="RedHatText-Medium, Red Hat Text" font-size="16.0" font-weight="400" fill="#0066CC" text-anchor="left" line-spacing="24.0">Toggle</text></g><g transform="translate(16.0 0.0)"><g clip-path="url(#i4)"><polygon points="0,0 77,0 77,8 0,8 0,0" stroke="none" fill="rgba(146, 211, 0, 0.9)"></polygon></g><g clip-path="url(#i4)"><polygon points="0,0 77,0 77,8 0,8 0,0 0,0" stroke="#7EB200" stroke-width="2" fill="none" stroke-miterlimit="5"></polygon></g></g><g transform="translate(16.0 32.0)"><g clip-path="url(#i4)"><polygon points="0,0 77,0 77,8 0,8 0,0" stroke="none" fill="rgba(146, 211, 0, 0.9)"></polygon></g><g clip-path="url(#i4)"><polygon points="0,0 77,0 77,8 0,8 0,0 0,0" stroke="#7EB200" stroke-width="2" fill="none" stroke-miterlimit="5"></polygon></g></g><g clip-path="url(#i5)"><polygon points="0,0 16,0 16,40 0,40 0,0" stroke="none" fill="rgba(62, 156, 52, 0.9)"></polygon></g><g clip-path="url(#i5)"><polygon points="0,0 16,0 16,40 0,40 0,0 0,0" stroke="#418A37" stroke-width="2" fill="none" stroke-miterlimit="5"></polygon></g><g transform="translate(93.0 0.0)"><g clip-path="url(#i5)"><polygon points="0,0 16,0 16,40 0,40 0,0" stroke="none" fill="rgba(62, 156, 52, 0.9)"></polygon></g><g clip-path="url(#i5)"><polygon points="0,0 16,0 16,40 0,40 0,0 0,0" stroke="#418A37" stroke-width="2" fill="none" stroke-miterlimit="5"></polygon></g></g></svg>