<?xml version="1.0" encoding="UTF-8"?>
<svg width="109px" height="40px" viewBox="0 0 109 40" version="1.1" xmlns="http://www.w3.org/2000/svg" xmlns:xlink="http://www.w3.org/1999/xlink">
    <title></title>
    <g id="Accordion" stroke="none" stroke-width="1" fill="none" fill-rule="evenodd">
        <g id="Accordion-/-Toggle-/-Hover">
            <rect id="Background" fill="#F0F0F0" x="0" y="0" width="109" height="40"></rect>
            <g id="Icons-/-Small-/-angle-down" transform="translate(75.000000, 15.000000)" fill="#151515">
                <path d="M1.98591903,9.78279833 L6.2359089,5.53280846 C6.52967041,5.23904696 6.52967041,4.7640725 6.23279611,4.470311 L1.98280625,0.22032113 C1.69218804,-0.0734403767 1.21718307,-0.0734403767 0.923421565,0.22032113 L0.220298242,0.932813328 C-0.0734327473,1.22343153 -0.0734327473,1.6984365 0.220298242,1.99219801 L3.23280327,5.00467252 L0.220298242,8.01717754 C-0.0734327473,8.30779574 -0.0734327473,8.78280072 0.220298242,9.07656222 L0.926564869,9.78279833 C1.21718307,10.0765598 1.69218804,10.0765598 1.98591903,9.78279833 Z" id="angle-right"></path>
            </g>
            <text id="âœï¸-Label" font-family="RedHatText-Regular, Red Hat Text" font-size="16" font-weight="normal" line-spacing="24" fill="#0066CC">
                <tspan x="16" y="24">Toggle</tspan>
            </text>
            <g id="ðŸ“-Padding" fill-opacity="0.9">
                <g id="Spacer-/-Vertical-/-2.-pf-global--spacer--sm-(8px)" transform="translate(16.000000, -0.000000)" fill="#92D400" stroke="#7FB300">
                    <rect id="Rectangle-Copy" x="0.5" y="0.5" width="76" height="7"></rect>
                </g>
                <g id="Spacer-/-Vertical-/-2.-pf-global--spacer--sm-(8px)" transform="translate(16.000000, 32.000000)" fill="#92D400" stroke="#7FB300">
                    <rect id="Rectangle-Copy" x="0.5" y="0.5" width="76" height="7"></rect>
                </g>
                <g id="Spacer-/-Horizontal-/-3.-pf-global--spacer--md-(16px)" fill="#3F9C35" stroke="#418A38">
                    <rect id="Rectangle-Copy-2" x="0.5" y="0.5" width="15" height="39"></rect>
                </g>
                <g id="Spacer-/-Horizontal-/-3.-pf-global--spacer--md-(16px)" transform="translate(93.000000, 0.000000)" fill="#3F9C35" stroke="#418A38">
                    <rect id="Rectangle-Copy-2" x="0.5" y="0.5" width="15" height="39"></rect>
                </g>
            </g>
        </g>
    </g>
</svg>