<?xml version="1.0" encoding="UTF-8"?>
<svg width="63px" height="36px" viewBox="0 0 63 36" version="1.1" xmlns="http://www.w3.org/2000/svg" xmlns:xlink="http://www.w3.org/1999/xlink">
    <title></title>
    <defs>
        <rect id="path-1" x="0" y="0" width="32" height="36"></rect>
        <filter x="-1.6%" y="-1.4%" width="103.1%" height="102.8%" filterUnits="objectBoundingBox" id="filter-2">
            <feOffset dx="-1" dy="0" in="SourceAlpha" result="shadowOffsetInner1"></feOffset>
            <feComposite in="shadowOffsetInner1" in2="SourceAlpha" operator="arithmetic" k2="-1" k3="1" result="shadowInnerInner1"></feComposite>
            <feColorMatrix values="0 0 0 0 0.941176471   0 0 0 0 0.941176471   0 0 0 0 0.941176471  0 0 0 1 0" type="matrix" in="shadowInnerInner1" result="shadowMatrixInner1"></feColorMatrix>
            <feOffset dx="0" dy="1" in="SourceAlpha" result="shadowOffsetInner2"></feOffset>
            <feComposite in="shadowOffsetInner2" in2="SourceAlpha" operator="arithmetic" k2="-1" k3="1" result="shadowInnerInner2"></feComposite>
            <feColorMatrix values="0 0 0 0 0.941176471   0 0 0 0 0.941176471   0 0 0 0 0.941176471  0 0 0 1 0" type="matrix" in="shadowInnerInner2" result="shadowMatrixInner2"></feColorMatrix>
            <feOffset dx="1" dy="0" in="SourceAlpha" result="shadowOffsetInner3"></feOffset>
            <feComposite in="shadowOffsetInner3" in2="SourceAlpha" operator="arithmetic" k2="-1" k3="1" result="shadowInnerInner3"></feComposite>
            <feColorMatrix values="0 0 0 0 0.941176471   0 0 0 0 0.941176471   0 0 0 0 0.941176471  0 0 0 1 0" type="matrix" in="shadowInnerInner3" result="shadowMatrixInner3"></feColorMatrix>
            <feOffset dx="0" dy="-1" in="SourceAlpha" result="shadowOffsetInner4"></feOffset>
            <feComposite in="shadowOffsetInner4" in2="SourceAlpha" operator="arithmetic" k2="-1" k3="1" result="shadowInnerInner4"></feComposite>
            <feColorMatrix values="0 0 0 0 0.541176471   0 0 0 0 0.552941176   0 0 0 0 0.564705882  0 0 0 1 0" type="matrix" in="shadowInnerInner4" result="shadowMatrixInner4"></feColorMatrix>
            <feMerge>
                <feMergeNode in="shadowMatrixInner1"></feMergeNode>
                <feMergeNode in="shadowMatrixInner2"></feMergeNode>
                <feMergeNode in="shadowMatrixInner3"></feMergeNode>
                <feMergeNode in="shadowMatrixInner4"></feMergeNode>
            </feMerge>
        </filter>
        <rect id="path-3" x="0" y="0" width="32" height="36"></rect>
        <filter x="-1.6%" y="-1.4%" width="103.1%" height="102.8%" filterUnits="objectBoundingBox" id="filter-4">
            <feOffset dx="-1" dy="0" in="SourceAlpha" result="shadowOffsetInner1"></feOffset>
            <feComposite in="shadowOffsetInner1" in2="SourceAlpha" operator="arithmetic" k2="-1" k3="1" result="shadowInnerInner1"></feComposite>
            <feColorMatrix values="0 0 0 0 0.941176471   0 0 0 0 0.941176471   0 0 0 0 0.941176471  0 0 0 1 0" type="matrix" in="shadowInnerInner1" result="shadowMatrixInner1"></feColorMatrix>
            <feOffset dx="0" dy="1" in="SourceAlpha" result="shadowOffsetInner2"></feOffset>
            <feComposite in="shadowOffsetInner2" in2="SourceAlpha" operator="arithmetic" k2="-1" k3="1" result="shadowInnerInner2"></feComposite>
            <feColorMatrix values="0 0 0 0 0.941176471   0 0 0 0 0.941176471   0 0 0 0 0.941176471  0 0 0 1 0" type="matrix" in="shadowInnerInner2" result="shadowMatrixInner2"></feColorMatrix>
            <feOffset dx="1" dy="0" in="SourceAlpha" result="shadowOffsetInner3"></feOffset>
            <feComposite in="shadowOffsetInner3" in2="SourceAlpha" operator="arithmetic" k2="-1" k3="1" result="shadowInnerInner3"></feComposite>
            <feColorMatrix values="0 0 0 0 0.941176471   0 0 0 0 0.941176471   0 0 0 0 0.941176471  0 0 0 1 0" type="matrix" in="shadowInnerInner3" result="shadowMatrixInner3"></feColorMatrix>
            <feOffset dx="0" dy="-1" in="SourceAlpha" result="shadowOffsetInner4"></feOffset>
            <feComposite in="shadowOffsetInner4" in2="SourceAlpha" operator="arithmetic" k2="-1" k3="1" result="shadowInnerInner4"></feComposite>
            <feColorMatrix values="0 0 0 0 0.541176471   0 0 0 0 0.552941176   0 0 0 0 0.564705882  0 0 0 1 0" type="matrix" in="shadowInnerInner4" result="shadowMatrixInner4"></feColorMatrix>
            <feMerge>
                <feMergeNode in="shadowMatrixInner1"></feMergeNode>
                <feMergeNode in="shadowMatrixInner2"></feMergeNode>
                <feMergeNode in="shadowMatrixInner3"></feMergeNode>
                <feMergeNode in="shadowMatrixInner4"></feMergeNode>
            </feMerge>
        </filter>
    </defs>
    <g id="Dropdowns" stroke="none" stroke-width="1" fill="none" fill-rule="evenodd">
        <g id="Dropdowns-/-1.-Toggle-/-Split-/-Action-/-Icons-/-Icon">
            <g id="ðŸ“-Padding" fill="#F3D53C" fill-opacity="0.9" stroke="#CBB534">
                <g id="Spacer-/-Vertical-/-8.-pf-global--spacer--form-element-(6px)">
                    <rect id="Rectangle" x="0.5" y="0.5" width="55" height="5"></rect>
                </g>
                <g id="Spacer-/-Vertical-/-8.-pf-global--spacer--form-element-(6px)-Copy" transform="translate(0.000000, 30.000000)">
                    <rect id="Rectangle" x="0.5" y="0.5" width="55" height="5"></rect>
                </g>
            </g>
            <g id="Forms-/-6.-Icon-Field-/-Default">
                <g id="Background">
                    <use fill="#FFFFFF" fill-rule="evenodd" xlink:href="#path-1"></use>
                    <use fill="black" fill-opacity="1" filter="url(#filter-2)" xlink:href="#path-1"></use>
                </g>
                <g id="ðŸ–¼-Icon" transform="translate(9.000000, 10.000000)" fill="#151515">
                    <path d="M9.12673582,15.3124813 C9.29861041,15.2750058 9.42046681,15.1218689 9.42046681,14.9468815 L9.42046681,13.4093791 C10.1142213,13.1624925 10.757988,12.7906367 11.3204867,12.3124884 L12.6517213,13.0812549 C12.8048582,13.1687486 12.9954705,13.1406114 13.1142141,13.0093862 C13.8860934,12.175007 14.4767292,11.1687533 14.8235911,10.0531249 C14.870466,9.8812503 14.8017101,9.70000684 14.6486038,9.61251315 L13.3173386,8.84374667 C13.4517072,8.11877282 13.4517072,7.37500018 13.3173386,6.65002632 L14.6486038,5.88125984 C14.8017101,5.79376615 14.870466,5.61252269 14.8204784,5.44376088 C14.4735859,4.33127574 13.8829806,3.32502204 13.1111013,2.48753014 C12.9923577,2.35938713 12.7986021,2.32813721 12.6486085,2.41566141 L11.3173434,3.18439737 C10.757988,2.70313631 10.1142213,2.33128051 9.41735403,2.0875372 L9.41735403,0.553147544 C9.41735403,0.378160169 9.29546711,0.225023327 9.12359252,0.187517313 C7.97674467,-0.0687076624 6.80172916,-0.0562260027 5.71112507,0.187517313 C5.53925048,0.225023327 5.41736356,0.378160169 5.41736356,0.553147544 L5.41736356,2.09064998 C4.72360911,2.3375366 4.07987286,2.7093924 3.5173742,3.18751016 L2.18925236,2.4187742 C2.03611552,2.33128051 1.84550318,2.35938713 1.72675957,2.49064293 C0.954880306,3.32502204 0.364244507,4.33127574 0.0173825408,5.44690419 C-0.035748436,5.61563547 0.0361202891,5.79687894 0.189257131,5.88440314 L1.52049175,6.6531391 C1.38612317,7.37814348 1.38612317,8.1218856 1.52049175,8.84688998 L0.189257131,9.61562594 C0.0361202891,9.70311963 -0.0326356504,9.88439361 0.0173825408,10.0531249 C0.364244507,11.1656406 0.954880306,12.1718637 1.72675957,13.0093862 C1.84550318,13.1374986 2.03925882,13.1687486 2.18925236,13.0812549 L3.52048698,12.3124884 C4.07987286,12.7937495 4.72360911,13.1656358 5.42047635,13.4093791 L5.42047635,14.9468815 C5.42047635,15.1218689 5.54236326,15.2750058 5.71423785,15.3124813 C6.86111622,15.5687367 8.03610122,15.5562551 9.12673582,15.3124813 Z M7.41736475,10.2468805 C6.03924929,10.2468805 4.91736475,9.124996 4.91736475,7.74689246 C4.91736475,6.36877699 6.03924929,5.24689246 7.41736475,5.24689246 C8.7954683,5.24689246 9.91735283,6.36877699 9.91735283,7.74689246 C9.91735283,9.124996 8.7954683,10.2468805 7.41736475,10.2468805 Z" id="cog"></path>
                </g>
                <g id="ðŸ“-Padding" fill-opacity="0.9">
                    <g id="Spacer-/-Horizontal-/-3.-pf-global--spacer--md-(16px)" fill="#92D400" stroke="#7FB300">
                        <rect id="Rectangle-Copy" x="0.5" y="0.5" width="7" height="35"></rect>
                    </g>
                    <g id="Spacer-/-Horizontal-/-3.-pf-global--spacer--md-(16px)" transform="translate(32.000000, 0.000000)" fill="#92D400" stroke="#7FB300">
                        <rect id="Rectangle-Copy" x="0.5" y="0.5" width="7" height="35"></rect>
                    </g>
                    <g id="Spacer-/-Vertical-/-8.-pf-global--spacer--form-element-(6px)" transform="translate(8.000000, 0.000000)" fill="#F3D53C" stroke="#CBB534">
                        <rect id="Rectangle" x="0.5" y="0.5" width="23" height="5"></rect>
                    </g>
                    <g id="Spacer-/-Vertical-/-8.-pf-global--spacer--form-element-(6px)" transform="translate(8.000000, 30.000000)" fill="#F3D53C" stroke="#CBB534">
                        <rect id="Rectangle" x="0.5" y="0.5" width="23" height="5"></rect>
                    </g>
                </g>
            </g>
            <g id="Forms-/-6.-Icon-Field-/-Default" transform="translate(31.000000, 0.000000)">
                <g id="Background">
                    <use fill="#FFFFFF" fill-rule="evenodd" xlink:href="#path-3"></use>
                    <use fill="black" fill-opacity="1" filter="url(#filter-4)" xlink:href="#path-3"></use>
                </g>
                <g id="ðŸ–¼-Icon" transform="translate(11.000000, 15.000000)" fill="#151515">
                    <path d="M5.08762958,5.08748177 L9.10638831,1.06561025 C9.50012517,0.671873398 9.22201914,0 8.66574605,0 L0.625146327,0 C0.0689037567,0 -0.209232787,0.671873398 0.184534585,1.06561025 L4.2032628,5.08748177 C4.44700611,5.33122508 4.84388627,5.33122508 5.08762958,5.08748177 Z" id="caret-down"></path>
                </g>
                <g id="ðŸ“-Padding" fill-opacity="0.9">
                    <g id="Spacer-/-Horizontal-/-3.-pf-global--spacer--md-(16px)" fill="#92D400" stroke="#7FB300">
                        <rect id="Rectangle-Copy" x="0.5" y="0.5" width="7" height="35"></rect>
                    </g>
                    <g id="Spacer-/-Horizontal-/-3.-pf-global--spacer--md-(16px)" transform="translate(32.000000, 0.000000)" fill="#92D400" stroke="#7FB300">
                        <rect id="Rectangle-Copy" x="0.5" y="0.5" width="7" height="35"></rect>
                    </g>
                    <g id="Spacer-/-Vertical-/-8.-pf-global--spacer--form-element-(6px)" transform="translate(8.000000, 0.000000)" fill="#F3D53C" stroke="#CBB534">
                        <rect id="Rectangle" x="0.5" y="0.5" width="23" height="5"></rect>
                    </g>
                    <g id="Spacer-/-Vertical-/-8.-pf-global--spacer--form-element-(6px)" transform="translate(8.000000, 30.000000)" fill="#F3D53C" stroke="#CBB534">
                        <rect id="Rectangle" x="0.5" y="0.5" width="23" height="5"></rect>
                    </g>
                </g>
            </g>
        </g>
    </g>
</svg>