<?xml version="1.0" encoding="UTF-8"?><svg version="1.1" width="310px" height="59px" viewBox="0 0 310.0 59.0" xmlns="http://www.w3.org/2000/svg" xmlns:xlink="http://www.w3.org/1999/xlink"><defs><clipPath id="i0"><path d="M310,0 L310,59 L0,59 L0,0 L310,0 Z"></path></clipPath><clipPath id="i1"><path d="M2.24999464,10.9999738 C3.49373557,10.9999738 4.49998927,12.0062275 4.49998927,13.2499684 C4.49998927,14.4937093 3.49373557,15.499963 2.24999464,15.499963 C1.0062537,15.499963 0,14.4937093 0,13.2499684 C0,12.0062275 1.0062537,10.9999738 2.24999464,10.9999738 Z M2.24999464,5.49998689 C3.49373557,5.49998689 4.49998927,6.50624059 4.49998927,7.74998152 C4.49998927,8.99372245 3.49373557,9.99997616 2.24999464,9.99997616 C1.0062537,9.99997616 0,8.99372245 0,7.74998152 C0,6.50624059 1.0062537,5.49998689 2.24999464,5.49998689 Z M2.24999464,0 C3.49373557,0 4.49998927,1.0062537 4.49998927,2.24999464 C4.49998927,3.49373557 3.49373557,4.49998927 2.24999464,4.49998927 C1.0062537,4.49998927 0,3.49373557 0,2.24999464 C0,1.0062537 1.0062537,0 2.24999464,0 Z"></path></clipPath><clipPath id="i2"><path d="M24,0 L24,24 L0,24 L0,0 L24,0 Z"></path></clipPath><clipPath id="i3"><path d="M16,0 L16,16 L0,16 L0,0 L16,0 Z"></path></clipPath><clipPath id="i4"><path d="M0.926557239,0.220298242 C1.22031875,-0.0734327473 1.69532372,-0.0734327473 1.98594192,0.220298242 L4.99844695,3.23280327 L8.01092145,0.220298242 C8.30468296,-0.0734327473 8.77968793,-0.0734327473 9.07030613,0.220298242 L9.77654224,0.926564869 C10.0703037,1.22029586 10.0703037,1.69530083 9.77654224,1.98591903 L5.52655238,6.2359089 C5.23904696,6.52967041 4.7640725,6.52967041 4.470311,6.2359089 L0.22032113,1.98591903 C-0.0734403767,1.69218804 -0.0734403767,1.21718307 0.22032113,0.926564869 Z"></path></clipPath><clipPath id="i5"><path d="M16,0 L16,52 L0,52 L0,0 L16,0 Z"></path></clipPath><clipPath id="i6"><path d="M278,0 L278,8 L0,8 L0,0 L278,0 Z"></path></clipPath></defs><g transform=""><g clip-path="url(#i0)"><polygon points="0,0 310,0 310,59 0,59 0,0" stroke="none" fill="#FFFFFF"></polygon><g transform="translate(0.0 7.0)"><polygon points="310,0 0,0 0,-7 310,-7 310,0 310,0" stroke="none" fill="#F0F0F0"></polygon></g></g></g><g transform="translate(254.0000000000001 15.0)"><g transform="translate(8.0 6.0)"><g transform="translate(10.0 3.999999999999999)"><g clip-path="url(#i1)"><polygon points="0,0 4.49998927,0 4.49998927,15.499963 0,15.499963 0,0" stroke="none" fill="#151515"></polygon><g clip-path="url(#i2)"><polygon points="0,0 4.49998927,0 4.49998927,15.499963 0,15.499963 0,0" stroke="none" fill="#696E73"></polygon></g></g></g></g></g><g transform="translate(40.00000000000011 21.0)"><g transform="translate(8.0 4.0)"><g clip-path="url(#i3)"><polygon points="0,0 16,0 16,16 0,16 0,0" stroke="none" fill="#FFFFFF"></polygon><polygon points="0,0 16,0 16,16 0,16 0,0 0,0" stroke="#696E73" stroke-width="2" fill="none" stroke-miterlimit="5"></polygon></g></g></g><g transform="translate(12.00000000000011 21.0)"><g transform="translate(7.0 9.0)"><g clip-path="url(#i4)"><polygon points="0,0 9.99686337,0 9.99686337,6.45623003 0,6.45623003 0,0" stroke="none" fill="#696E73"></polygon></g></g></g><g transform="translate(1.1368683772161603e-13 7.0)"><g transform="translate(293.9999999999999 0.0)"><g clip-path="url(#i5)"><polygon points="0,0 16,0 16,52 0,52 0,0" stroke="none" fill="rgba(62, 156, 52, 0.9)"></polygon></g><g clip-path="url(#i5)"><polygon points="0,0 16,0 16,52 0,52 0,0 0,0" stroke="#418A37" stroke-width="2" fill="none" stroke-miterlimit="5"></polygon></g></g><g clip-path="url(#i5)"><polygon points="0,0 16,0 16,52 0,52 0,0" stroke="none" fill="rgba(62, 156, 52, 0.9)"></polygon></g><g clip-path="url(#i5)"><polygon points="0,0 16,0 16,52 0,52 0,0 0,0" stroke="#418A37" stroke-width="2" fill="none" stroke-miterlimit="5"></polygon></g><g transform="translate(31.999999999999943 0.0)"><g clip-path="url(#i5)"><polygon points="0,0 16,0 16,52 0,52 0,0" stroke="none" fill="rgba(62, 156, 52, 0.9)"></polygon></g><g clip-path="url(#i5)"><polygon points="0,0 16,0 16,52 0,52 0,0 0,0" stroke="#418A37" stroke-width="2" fill="none" stroke-miterlimit="5"></polygon></g></g><g transform="translate(63.99999999999988 0.0)"><g clip-path="url(#i5)"><polygon points="0,0 16,0 16,52 0,52 0,0" stroke="none" fill="rgba(62, 156, 52, 0.9)"></polygon></g><g clip-path="url(#i5)"><polygon points="0,0 16,0 16,52 0,52 0,0 0,0" stroke="#418A37" stroke-width="2" fill="none" stroke-miterlimit="5"></polygon></g></g><g transform="translate(237.9999999999999 0.0)"><g clip-path="url(#i5)"><polygon points="0,0 16,0 16,52 0,52 0,0" stroke="none" fill="rgba(62, 156, 52, 0.9)"></polygon></g><g clip-path="url(#i5)"><polygon points="0,0 16,0 16,52 0,52 0,0 0,0" stroke="#418A37" stroke-width="2" fill="none" stroke-miterlimit="5"></polygon></g></g><g transform="translate(16.0 0.0)"><g clip-path="url(#i6)"><polygon points="0,0 278,0 278,8 0,8 0,0" stroke="none" fill="rgba(146, 211, 0, 0.9)"></polygon></g><g clip-path="url(#i6)"><polygon points="0,0 278,0 278,8 0,8 0,0 0,0" stroke="#7EB200" stroke-width="2" fill="none" stroke-miterlimit="5"></polygon></g></g><g transform="translate(16.0 44.0)"><g clip-path="url(#i6)"><polygon points="0,0 278,0 278,8 0,8 0,0" stroke="none" fill="rgba(146, 211, 0, 0.9)"></polygon></g><g clip-path="url(#i6)"><polygon points="0,0 278,0 278,8 0,8 0,0 0,0" stroke="#7EB200" stroke-width="2" fill="none" stroke-miterlimit="5"></polygon></g></g></g></svg>