<?xml version="1.0" encoding="UTF-8"?>
<svg width="24px" height="24px" viewBox="0 0 24 24" version="1.1" xmlns="http://www.w3.org/2000/svg" xmlns:xlink="http://www.w3.org/1999/xlink">
    <title></title>
    <g id="Icons" stroke="none" stroke-width="1" fill="none" fill-rule="evenodd">
        <g id="Icons/2.-Size-sm-(12px)/Framework/angle-double-left" fill="#151515">
            <path d="M15.6493049,15.3370987 L16.178982,14.8050642 C16.3993032,14.5871005 16.3993032,14.2308468 16.178982,14.0105486 L13.9196262,11.7511698 L16.1766474,9.48945644 C16.3969457,9.27149279 16.3969457,8.91523906 16.1766474,8.69491793 L15.6469475,8.16524085 C15.4289838,7.94491972 15.0727301,7.94491972 14.8524318,8.16524085 L11.6649394,11.3527332 C11.4446183,11.5730544 11.4446183,11.9292852 11.667274,12.1496063 L14.8547664,15.3370987 C15.0727301,15.5574199 15.4289838,15.5574199 15.6493049,15.3370987 Z M11.1469582,15.3370987 L11.6766582,14.8074217 C11.8969564,14.5871005 11.8969564,14.2308468 11.6766582,14.0128832 L9.41963688,11.7511698 L11.6789928,9.49179103 C11.8993139,9.27149279 11.8993139,8.91523906 11.6789928,8.69727541 L11.1493157,8.16524085 C10.9289945,7.94491972 10.5727408,7.94491972 10.3547772,8.16524085 L7.16728477,11.3527332 C6.94462905,11.5730544 6.94462905,11.9292852 7.16495018,12.1496063 L10.3524426,15.3370987 C10.5727408,15.5574199 10.9289945,15.5574199 11.1469582,15.3370987 Z" id="angle-double-left"></path>
        </g>
    </g>
</svg>