<?xml version="1.0" encoding="UTF-8"?>
<svg width="24px" height="24px" viewBox="0 0 24 24" version="1.1" xmlns="http://www.w3.org/2000/svg" xmlns:xlink="http://www.w3.org/1999/xlink">
    <title></title>
    <g id="Icons" stroke="none" stroke-width="1" fill="none" fill-rule="evenodd">
        <g id="Icons/2.-Size-sm-(12px)/Framework/arrow-right" fill="#151515">
            <path d="M12.7796646,17.0698956 L17.3359129,12.5136702 C17.556234,12.2956836 17.556234,11.9394528 17.3359129,11.7191317 L12.7796646,7.16524085 C12.5617009,6.94491972 12.2054472,6.94491972 11.9851489,7.16524085 L11.4648331,7.68555668 C11.2398428,7.9082124 11.244512,8.27149279 11.4742172,8.48945644 L14.2984293,11.1800704 L7.56249866,11.1800704 C7.25078523,11.1800704 7,11.4308557 7,11.7425691 L7,12.4925673 C7,12.8042807 7.25078523,13.055066 7.56249866,13.055066 L14.2984293,13.055066 L11.4742172,15.74568 C11.2468695,15.9636436 11.2421774,16.326924 11.4648331,16.5495797 L11.9851489,17.0698956 C12.2031126,17.2902167 12.5593663,17.2902167 12.7796646,17.0698956 Z" id="arrow-right"></path>
        </g>
    </g>
</svg>