<?xml version="1.0" encoding="UTF-8"?>
<svg width="24px" height="24px" viewBox="0 0 24 24" version="1.1" xmlns="http://www.w3.org/2000/svg" xmlns:xlink="http://www.w3.org/1999/xlink">
    <title></title>
    <g id="Icons" stroke="none" stroke-width="1" fill="none" fill-rule="evenodd">
        <g id="Icons/2.-Size-sm-(12px)/Framework/bell" fill="#151515">
            <path d="M16.7476582,15.7499768 C17.195762,15.7499768 17.4976565,15.3843618 17.5,14.9999785 C17.5011583,14.8230304 17.4388111,14.6420998 17.2981864,14.4911525 C16.8453906,14.0045967 15.9981178,13.2726343 15.9981178,10.8749884 C15.9981178,9.05389439 14.7212577,7.59608079 12.999544,7.23843089 L12.999544,6.74999821 C12.999544,6.33586041 12.6639125,6 12.2500036,6 C11.8360946,6 11.5004631,6.33586041 11.5004631,6.74999821 L11.5004631,7.23843089 C9.77874938,7.59608079 8.50188933,9.05389439 8.50188933,10.8749884 C8.50188933,13.2726343 7.65461657,14.0045967 7.20182071,14.4911525 C7.06119605,14.6423286 6.99884878,14.8230304 7,14.9999785 C7.00260244,15.3843618 7.30424509,15.7499768 7.75234888,15.7499768 L16.7476582,15.7499768 Z M12.2500036,17.999975 C13.0778214,17.999975 13.7492905,17.3284795 13.7492905,16.499975 L10.7507167,16.499975 C10.7507167,17.3284795 11.4221857,17.999975 12.2500036,17.999975 Z" id="bell"></path>
        </g>
    </g>
</svg>