<?xml version="1.0" encoding="UTF-8"?>
<svg width="24px" height="24px" viewBox="0 0 24 24" version="1.1" xmlns="http://www.w3.org/2000/svg" xmlns:xlink="http://www.w3.org/1999/xlink">
    <title></title>
    <g id="Icons" stroke="none" stroke-width="1" fill="none" fill-rule="evenodd">
        <g id="Icons/2.-Size-sm-(12px)/Framework/grip-horizontal" fill="#151515">
            <path d="M9.24999464,11 C9.66413244,11 10,10.6641324 10,10.2499946 L10,8.74999821 C10,8.33586041 9.66413244,8 9.24999464,8 L7.74999821,8 C7.33586041,8 7,8.33586041 7,8.74999821 L7,10.2499946 C7,10.6641324 7.33586041,11 7.74999821,11 L9.24999464,11 Z M12.9999857,11 C13.4141235,11 13.7499911,10.6641324 13.7499911,10.2499946 L13.7499911,8.74999821 C13.7499911,8.33586041 13.4141235,8 12.9999857,8 L11.4999893,8 C11.0858515,8 10.7499911,8.33586041 10.7499911,8.74999821 L10.7499911,10.2499946 C10.7499911,10.6641324 11.0858515,11 11.4999893,11 L12.9999857,11 Z M16.7499768,11 C17.1641146,11 17.4999821,10.6641324 17.4999821,10.2499946 L17.4999821,8.74999821 C17.4999821,8.33586041 17.1641146,8 16.7499768,8 L15.2499803,8 C14.8358425,8 14.4999821,8.33586041 14.4999821,8.74999821 L14.4999821,10.2499946 C14.4999821,10.6641324 14.8358425,11 15.2499803,11 L16.7499768,11 Z M9.24999464,15.4999893 C9.66413244,15.4999893 10,15.1641217 10,14.7499839 L10,13.2499875 C10,12.8358497 9.66413244,12.4999893 9.24999464,12.4999893 L7.74999821,12.4999893 C7.33586041,12.4999893 7,12.8358497 7,13.2499875 L7,14.7499839 C7,15.1641217 7.33586041,15.4999893 7.74999821,15.4999893 L9.24999464,15.4999893 Z M12.9999857,15.4999893 C13.4141235,15.4999893 13.7499911,15.1641217 13.7499911,14.7499839 L13.7499911,13.2499875 C13.7499911,12.8358497 13.4141235,12.4999893 12.9999857,12.4999893 L11.4999893,12.4999893 C11.0858515,12.4999893 10.7499911,12.8358497 10.7499911,13.2499875 L10.7499911,14.7499839 C10.7499911,15.1641217 11.0858515,15.4999893 11.4999893,15.4999893 L12.9999857,15.4999893 Z M16.7499768,15.4999893 C17.1641146,15.4999893 17.4999821,15.1641217 17.4999821,14.7499839 L17.4999821,13.2499875 C17.4999821,12.8358497 17.1641146,12.4999893 16.7499768,12.4999893 L15.2499803,12.4999893 C14.8358425,12.4999893 14.4999821,12.8358497 14.4999821,13.2499875 L14.4999821,14.7499839 C14.4999821,15.1641217 14.8358425,15.4999893 15.2499803,15.4999893 L16.7499768,15.4999893 Z" id="grip-horizontal"></path>
        </g>
    </g>
</svg>