<?xml version="1.0" encoding="UTF-8"?>
<svg width="24px" height="24px" viewBox="0 0 24 24" version="1.1" xmlns="http://www.w3.org/2000/svg" xmlns:xlink="http://www.w3.org/1999/xlink">
    <title></title>
    <g id="Icons" stroke="none" stroke-width="1" fill="none" fill-rule="evenodd">
        <g id="Icons/2.-Size-sm-(12px)/Framework/question-circle-(fas)" fill="#151515">
            <path d="M11.8124861,17.6249723 C15.0224089,17.6249723 17.6249723,15.0233473 17.6249723,11.8124861 C17.6249723,8.60350179 15.0224089,6 11.8124861,6 C8.60256338,6 6,8.60350179 6,11.8124861 C6,15.0233473 8.60256338,17.6249723 11.8124861,17.6249723 Z M12.4687346,13.124983 L11.1562377,13.124983 C11.0009189,13.124983 10.8749884,12.9990525 10.8749884,12.8437337 L10.8749884,12.7499839 C10.8749884,11.7876754 11.6045475,11.4029946 12.1558996,11.0939133 C12.6286539,10.8288688 12.9183948,10.6486019 12.9183948,10.2976124 C12.9183948,9.83330385 12.3261644,9.52516097 11.8473677,9.52516097 C11.2100935,9.52516097 10.9230077,9.83309786 10.5043151,10.3641482 C10.4095354,10.4843796 10.2357229,10.5063979 10.1137292,10.4138841 L9.30049109,9.79723216 C9.1817017,9.70716737 9.15398418,9.54008403 9.23686209,9.41619059 C9.87656241,8.45992455 10.6911967,7.92187042 11.9684687,7.92187042 C13.2895487,7.92187042 14.6996405,8.95307218 14.6996405,10.3124897 C14.6996405,12.1176307 12.7499839,12.1454169 12.7499839,12.8124914 L12.7499839,12.8437337 C12.7499839,12.9990525 12.6240534,13.124983 12.4687346,13.124983 Z M11.8124861,15.8906014 C11.2179899,15.8906014 10.7343637,15.4069524 10.7343637,14.812479 C10.7343637,14.2179827 11.2179899,13.7343566 11.8124861,13.7343566 C12.4069824,13.7343566 12.8906086,14.2179827 12.8906086,14.812479 C12.8906086,15.4069524 12.4069824,15.8906014 11.8124861,15.8906014 Z" id="question-circle"></path>
        </g>
    </g>
</svg>