<?xml version="1.0" encoding="UTF-8"?>
<svg width="24px" height="24px" viewBox="0 0 24 24" version="1.1" xmlns="http://www.w3.org/2000/svg" xmlns:xlink="http://www.w3.org/1999/xlink">
    <title></title>
    <g id="Icons" stroke="none" stroke-width="1" fill="none" fill-rule="evenodd">
        <g id="Icons/2.-Size-sm-(12px)/Framework/thumbtack" fill="#151515">
            <path d="M11.6677135,17.8964942 L12.2302121,16.7714968 C12.2411298,16.7496387 12.2500104,16.7120793 12.2500104,16.6876347 L12.2500104,14.2499803 L15.4375028,14.2499803 C15.7481633,14.2499803 16,13.9981422 16,13.6874817 C16,12.4878919 15.1097677,11.5448324 13.9850221,11.0218615 L13.6982567,8.24999464 L14.6874817,8.24999464 C14.9981422,8.24999464 15.2499803,7.99815655 15.2499803,7.68749598 L15.2499803,6.56249866 C15.2499803,6.25183808 14.9981422,6 14.6874817,6 L8.31249687,6 C8.0018363,6 7.74999821,6.25183808 7.74999821,6.56249866 L7.74999821,7.68749598 C7.74999821,7.99815655 8.0018363,8.24999464 8.31249687,8.24999464 L9.30172181,8.24999464 L9.01495644,11.0218615 C7.87808018,11.5504628 7,12.4982832 7,13.6874817 C7,13.9981422 7.25183808,14.2499803 7.56249866,14.2499803 L10.7499911,14.2499803 L10.7499911,16.6876347 C10.7499911,16.7167484 10.7567659,16.7454501 10.7697893,16.7714968 L11.3322879,17.8964942 C11.401227,18.0343494 11.5986371,18.0346011 11.6677135,17.8964942 Z" id="thumbtack"></path>
        </g>
    </g>
</svg>