<?xml version="1.0" encoding="UTF-8"?><svg version="1.1" width="140px" height="36px" viewBox="0 0 140.0 36.0" xmlns="http://www.w3.org/2000/svg" xmlns:xlink="http://www.w3.org/1999/xlink"><defs><clipPath id="i0"><path d="M137,0 C138.656854,-3.04359188e-16 140,1.34314575 140,3 L140,33 C140,34.6568542 138.656854,36 137,36 L3,36 C1.34314575,36 -2.90571834e-15,34.6568542 0,33 L0,3 C-2.02906125e-16,1.34314575 1.34314575,-5.83819232e-16 3,0 L137,0 Z"></path></clipPath><clipPath id="i1"><path d="M6.49930954,0 C6.91651436,0 7.12509388,0.503905049 6.82979123,0.799207689 L3.81572219,3.81561133 C3.6329147,3.99841881 3.33525458,3.99841881 3.1524471,3.81561133 L0.138400938,0.799207689 C-0.15692459,0.503905049 0.0516778175,0 0.468859745,0 Z"></path></clipPath><clipPath id="i2"><path d="M8,0 L8,36 L0,36 L0,0 L8,0 Z"></path></clipPath><clipPath id="i3"><path d="M124,0 L124,6 L0,6 L0,0 L124,0 Z"></path></clipPath></defs><g clip-path="url(#i0)"><path d="M3,0 L137,0 C138.656854,-3.04359188e-16 140,1.34314575 140,3 L140,33 C140,34.6568542 138.656854,36 137,36 L3,36 C1.34314575,36 -2.90571834e-15,34.6568542 0,33 L0,3 C-2.02906125e-16,1.34314575 1.34314575,-5.83819232e-16 3,0 Z" stroke="#0066CC" stroke-width="2" fill="none" stroke-miterlimit="5"></path></g><g transform="translate(8.0 6.0)"><text transform="translate(0.0 16.0)" font-family="RedHatText-Regular, Red Hat Text" font-size="16.0" font-weight="normal" fill="#0066CC" text-anchor="left" line-spacing="24.0">Dropdown</text></g><g transform="translate(108.0 6.0)"><g transform="translate(9.0 10.0)"><g clip-path="url(#i1)"><polygon points="6.61692923e-14,0 6.96818123,0 6.96818123,3.95271694 6.61692923e-14,3.95271694 6.61692923e-14,0" stroke="none" fill="#0066CC"></polygon></g></g></g><g clip-path="url(#i2)"><polygon points="0,0 8,0 8,36 0,36 0,0" stroke="none" fill="rgba(146, 211, 0, 0.9)"></polygon></g><g clip-path="url(#i2)"><polygon points="0,0 8,0 8,36 0,36 0,0 0,0" stroke="#7EB200" stroke-width="2" fill="none" stroke-miterlimit="5"></polygon></g><g transform="translate(132.0 0.0)"><g clip-path="url(#i2)"><polygon points="0,0 8,0 8,36 0,36 0,0" stroke="none" fill="rgba(146, 211, 0, 0.9)"></polygon></g><g clip-path="url(#i2)"><polygon points="0,0 8,0 8,36 0,36 0,0 0,0" stroke="#7EB200" stroke-width="2" fill="none" stroke-miterlimit="5"></polygon></g></g><g transform="translate(8.0 0.0)"><g clip-path="url(#i3)"><polygon points="0,0 124,0 124,6 0,6 0,0" stroke="none" fill="rgba(243, 213, 59, 0.9)"></polygon></g><g clip-path="url(#i3)"><polygon points="0,0 124,0 124,6 0,6 0,0 0,0" stroke="#CAB534" stroke-width="2" fill="none" stroke-miterlimit="5"></polygon></g></g><g transform="translate(8.0 29.999999999999996)"><g transform=""><g clip-path="url(#i3)"><polygon points="0,0 124,0 124,6 0,6 0,0" stroke="none" fill="rgba(243, 213, 59, 0.9)"></polygon></g><g clip-path="url(#i3)"><polygon points="0,0 124,0 124,6 0,6 0,0 0,0" stroke="#CAB534" stroke-width="2" fill="none" stroke-miterlimit="5"></polygon></g></g></g></svg>