<?xml version="1.0" encoding="UTF-8"?><svg version="1.1" width="801px" height="92px" viewBox="0 0 801.0 92.0" xmlns="http://www.w3.org/2000/svg" xmlns:xlink="http://www.w3.org/1999/xlink"><defs><clipPath id="i0"><path d="M801,0 L801,56 L0,56 L0,0 L801,0 Z"></path></clipPath><clipPath id="i1"><path d="M40,0 L40,36 L0,36 L0,0 L40,0 Z"></path></clipPath><clipPath id="i2"><path d="M3,2.99999285 L3,12.2499708 C3,13.2149343 3.78502516,13.9999666 4.74998868,13.9999666 L9.99997616,13.9999666 L9.99997616,15.2499636 C9.99997616,15.6641777 9.66419205,15.9999619 9.24997795,15.9999619 L0.749998212,15.9999619 C0.335784112,15.9999619 0,15.6641777 0,15.2499636 L0,3.74999106 C0,3.33577696 0.335784112,2.99999285 0.749998212,2.99999285 L3,2.99999285 Z M9.99997616,0 L9.99997616,3.24999225 C9.99997616,3.66249737 10.3374692,4 10.7499744,4 L13.9999666,4 L13.9999666,12.2499708 C13.9999666,12.6641849 13.6641825,12.999969 13.2499684,12.999969 L4.74998868,12.999969 C4.33577457,12.999969 3.99999046,12.6641849 3.99999046,12.2499708 L3.99999046,0.749998212 C3.99999046,0.335784112 4.33577457,0 4.74998868,0 L9.99997616,0 Z M11.1893044,0 C11.3607822,0 11.598361,0.0984189548 11.7196376,0.219665004 L13.7803016,2.28032904 C13.9015477,2.4016056 13.9999738,2.63918438 13.9999738,2.81066224 L13.9999738,3 L10.9999738,3 L10.9999738,0 Z"></path></clipPath><clipPath id="i3"><path d="M8,0 L8,36 L0,36 L0,0 L8,0 Z"></path></clipPath><clipPath id="i4"><path d="M24,0 L24,6 L0,6 L0,0 L24,0 Z"></path></clipPath><clipPath id="i5"><path d="M723,0 L723,36 L0,36 L0,0 L723,0 Z"></path></clipPath><clipPath id="i6"><path d="M0.926557239,0.220298242 C1.22031875,-0.0734327473 1.69532372,-0.0734327473 1.98594192,0.220298242 L4.99844695,3.23280327 L8.01092145,0.220298242 C8.30468296,-0.0734327473 8.77968793,-0.0734327473 9.07030613,0.220298242 L9.77654224,0.926564869 C10.0703037,1.22029586 10.0703037,1.69530083 9.77654224,1.98591903 L5.52655238,6.2359089 C5.23904696,6.52967041 4.7640725,6.52967041 4.470311,6.2359089 L0.22032113,1.98591903 C-0.0734403767,1.69218804 -0.0734403767,1.21718307 0.22032113,0.926564869 Z"></path></clipPath><clipPath id="i7"><path d="M8,0 L8,24 L0,24 L0,0 L8,0 Z"></path></clipPath><clipPath id="i8"><path d="M801,0 L801,6 L0,6 L0,0 L801,0 Z"></path></clipPath><clipPath id="i9"><path d="M16,0 L16,56 L0,56 L0,0 L16,0 Z"></path></clipPath><clipPath id="i10"><path d="M769,0 L769,16 L0,16 L0,0 L769,0 Z"></path></clipPath></defs><g transform="translate(0.0 36.0)"><g clip-path="url(#i0)"><polygon points="0,0 801,0 801,56 0,56 0,0" stroke="none" fill="#FFFFFF"></polygon></g></g><g transform="translate(16.0 52.0)"><text transform="translate(0.0 16.0)" font-family="RedHatText-Regular, Red Hat Text" font-size="16.0" font-weight="normal" fill="#151515" text-anchor="left" line-spacing="24.0">Text goes here…</text></g><g transform="translate(761.0 2.842170943040401e-14)"><g clip-path="url(#i1)"><polygon points="0,0 40,0 40,36 0,36 0,0" stroke="none" fill="#FFFFFF"></polygon><g transform="translate(-1.0 0.0)"><polygon points="41,0 41,36 40,36 40,0 41,0 41,0" stroke="none" fill="#F0F0F0"></polygon></g><g transform="translate(0.0 1.0)"><polygon points="40,0 0,0 0,-1 40,-1 40,0 40,0" stroke="none" fill="#F0F0F0"></polygon></g><g transform="translate(1.0 0.0)"><polygon points="0,0 0,36 -1,36 -1,0 0,0 0,0" stroke="none" fill="#F0F0F0"></polygon></g><g transform="translate(0.0 -1.0)"><polygon points="40,36 40,37 0,37 0,36 40,36 40,36" stroke="none" fill="#8A8D90"></polygon></g></g><g transform="translate(8.0 6.0)"><g transform="translate(4.999999999999999 4.0)"><g clip-path="url(#i2)"><polygon points="0,0 13.9999738,0 13.9999738,15.9999619 0,15.9999619 0,0" stroke="none" fill="#151515"></polygon></g></g></g><g clip-path="url(#i3)"><polygon points="0,0 8,0 8,36 0,36 0,0" stroke="none" fill="rgba(146, 211, 0, 0.9)"></polygon></g><g clip-path="url(#i3)"><polygon points="0,0 8,0 8,36 0,36 0,0 0,0" stroke="#7EB200" stroke-width="2" fill="none" stroke-miterlimit="5"></polygon></g><g transform="translate(32.0 0.0)"><g clip-path="url(#i3)"><polygon points="0,0 8,0 8,36 0,36 0,0" stroke="none" fill="rgba(146, 211, 0, 0.9)"></polygon></g><g clip-path="url(#i3)"><polygon points="0,0 8,0 8,36 0,36 0,0 0,0" stroke="#7EB200" stroke-width="2" fill="none" stroke-miterlimit="5"></polygon></g></g><g transform="translate(8.0 0.0)"><g clip-path="url(#i4)"><polygon points="0,0 24,0 24,6 0,6 0,0" stroke="none" fill="rgba(243, 213, 59, 0.9)"></polygon></g><g clip-path="url(#i4)"><polygon points="0,0 24,0 24,6 0,6 0,0 0,0" stroke="#CAB534" stroke-width="2" fill="none" stroke-miterlimit="5"></polygon></g></g><g transform="translate(8.0 30.0)"><g clip-path="url(#i4)"><polygon points="0,0 24,0 24,6 0,6 0,0" stroke="none" fill="rgba(243, 213, 59, 0.9)"></polygon></g><g clip-path="url(#i4)"><polygon points="0,0 24,0 24,6 0,6 0,0 0,0" stroke="#CAB534" stroke-width="2" fill="none" stroke-miterlimit="5"></polygon></g></g></g><g transform="translate(39.0 0.0)"><g clip-path="url(#i5)"><polygon points="0,0 723,0 723,36 0,36 0,0" stroke="none" fill="#FFFFFF"></polygon><g transform="translate(-1.0 0.0)"><polygon points="724,0 724,36 723,36 723,0 724,0 724,0" stroke="none" fill="#F0F0F0"></polygon></g><g transform="translate(0.0 1.0)"><polygon points="723,0 0,0 0,-1 723,-1 723,0 723,0" stroke="none" fill="#F0F0F0"></polygon></g><g transform="translate(1.0 0.0)"><polygon points="0,0 0,36 -1,36 -1,0 0,0 0,0" stroke="none" fill="#F0F0F0"></polygon></g><g transform="translate(0.0 -1.0)"><polygon points="723,36 723,37 0,37 0,36 723,36 723,36" stroke="none" fill="#8A8D90"></polygon></g></g></g><g transform="translate(47.0 6.0)"><text transform="translate(0.0 16.0)" font-family="RedHatText-Regular, Red Hat Text" font-size="16.0" font-weight="normal" fill="#151515" text-anchor="left" line-spacing="24.0">This is editable</text></g><g clip-path="url(#i1)"><polygon points="0,0 40,0 40,36 0,36 0,0" stroke="none" fill="#FFFFFF"></polygon><g transform="translate(1.0 0.0)"><polygon points="0,0 0,36 -1,36 -1,0 0,0 0,0" stroke="none" fill="#EDEDED"></polygon></g><g transform="translate(-1.0 0.0)"><polygon points="41,0 41,36 40,36 40,0 41,0 41,0" stroke="none" fill="#EDEDED"></polygon></g><g transform="translate(0.0 1.0)"><polygon points="40,0 0,0 0,-1 40,-1 40,0 40,0" stroke="none" fill="#EDEDED"></polygon></g><g transform="translate(0.0 -2.0)"><polygon points="40,36 40,38 0,38 0,36 40,36 40,36" stroke="none" fill="#0066CC"></polygon></g></g><g transform="translate(8.0 6.0)"><g transform="translate(7.0 9.0)"><g clip-path="url(#i6)"><polygon points="0,0 9.99686337,0 9.99686337,6.45623003 0,6.45623003 0,0" stroke="none" fill="#151515"></polygon></g></g></g><g clip-path="url(#i3)"><polygon points="0,0 8,0 8,36 0,36 0,0" stroke="none" fill="rgba(146, 211, 0, 0.9)"></polygon></g><g clip-path="url(#i3)"><polygon points="0,0 8,0 8,36 0,36 0,0 0,0" stroke="#7EB200" stroke-width="2" fill="none" stroke-miterlimit="5"></polygon></g><g transform="translate(32.0 0.0)"><g clip-path="url(#i3)"><polygon points="0,0 8,0 8,36 0,36 0,0" stroke="none" fill="rgba(146, 211, 0, 0.9)"></polygon></g><g clip-path="url(#i3)"><polygon points="0,0 8,0 8,36 0,36 0,0 0,0" stroke="#7EB200" stroke-width="2" fill="none" stroke-miterlimit="5"></polygon></g></g><g transform="translate(8.0 0.0)"><g clip-path="url(#i4)"><polygon points="0,0 24,0 24,6 0,6 0,0" stroke="none" fill="rgba(243, 213, 59, 0.9)"></polygon></g><g clip-path="url(#i4)"><polygon points="0,0 24,0 24,6 0,6 0,0 0,0" stroke="#CAB534" stroke-width="2" fill="none" stroke-miterlimit="5"></polygon></g></g><g transform="translate(8.0 30.0)"><g clip-path="url(#i4)"><polygon points="0,0 24,0 24,6 0,6 0,0" stroke="none" fill="rgba(243, 213, 59, 0.9)"></polygon></g><g clip-path="url(#i4)"><polygon points="0,0 24,0 24,6 0,6 0,0 0,0" stroke="#CAB534" stroke-width="2" fill="none" stroke-miterlimit="5"></polygon></g></g><g transform="translate(0.0 6.0)"><g clip-path="url(#i7)"><polygon points="0,0 8,0 8,24 0,24 0,0" stroke="none" fill="rgba(146, 211, 0, 0.9)"></polygon></g><g clip-path="url(#i7)"><polygon points="0,0 8,0 8,24 0,24 0,0 0,0" stroke="#7EB200" stroke-width="2" fill="none" stroke-miterlimit="5"></polygon></g></g><g transform="translate(31.0 6.0)"><g clip-path="url(#i7)"><polygon points="0,0 8,0 8,24 0,24 0,0" stroke="none" fill="rgba(146, 211, 0, 0.9)"></polygon></g><g clip-path="url(#i7)"><polygon points="0,0 8,0 8,24 0,24 0,0 0,0" stroke="#7EB200" stroke-width="2" fill="none" stroke-miterlimit="5"></polygon></g></g><g transform="translate(39.0 6.0)"><g clip-path="url(#i7)"><polygon points="0,0 8,0 8,24 0,24 0,0" stroke="none" fill="rgba(146, 211, 0, 0.9)"></polygon></g><g clip-path="url(#i7)"><polygon points="0,0 8,0 8,24 0,24 0,0 0,0" stroke="#7EB200" stroke-width="2" fill="none" stroke-miterlimit="5"></polygon></g></g><g transform="translate(753.0 6.0)"><g clip-path="url(#i7)"><polygon points="0,0 8,0 8,24 0,24 0,0" stroke="none" fill="rgba(146, 211, 0, 0.9)"></polygon></g><g clip-path="url(#i7)"><polygon points="0,0 8,0 8,24 0,24 0,0 0,0" stroke="#7EB200" stroke-width="2" fill="none" stroke-miterlimit="5"></polygon></g></g><g transform="translate(0.0 30.0)"><g clip-path="url(#i8)"><polygon points="0,0 801,0 801,6 0,6 0,0" stroke="none" fill="rgba(243, 213, 59, 0.9)"></polygon></g><g clip-path="url(#i8)"><polygon points="0,0 801,0 801,6 0,6 0,0 0,0" stroke="#CAB534" stroke-width="2" fill="none" stroke-miterlimit="5"></polygon></g></g><g clip-path="url(#i8)"><polygon points="0,0 801,0 801,6 0,6 0,0" stroke="none" fill="rgba(243, 213, 59, 0.9)"></polygon></g><g clip-path="url(#i8)"><polygon points="0,0 801,0 801,6 0,6 0,0 0,0" stroke="#CAB534" stroke-width="2" fill="none" stroke-miterlimit="5"></polygon></g><g transform="translate(761.0 6.0)"><g clip-path="url(#i7)"><polygon points="0,0 8,0 8,24 0,24 0,0" stroke="none" fill="rgba(146, 211, 0, 0.9)"></polygon></g><g clip-path="url(#i7)"><polygon points="0,0 8,0 8,24 0,24 0,0 0,0" stroke="#7EB200" stroke-width="2" fill="none" stroke-miterlimit="5"></polygon></g></g><g transform="translate(793.0 6.0)"><g clip-path="url(#i7)"><polygon points="0,0 8,0 8,24 0,24 0,0" stroke="none" fill="rgba(146, 211, 0, 0.9)"></polygon></g><g clip-path="url(#i7)"><polygon points="0,0 8,0 8,24 0,24 0,0 0,0" stroke="#7EB200" stroke-width="2" fill="none" stroke-miterlimit="5"></polygon></g></g><g transform="translate(0.0 36.0)"><g clip-path="url(#i9)"><polygon points="0,0 16,0 16,56 0,56 0,0" stroke="none" fill="rgba(62, 156, 52, 0.9)"></polygon></g><g clip-path="url(#i9)"><polygon points="0,0 16,0 16,56 0,56 0,0 0,0" stroke="#418A37" stroke-width="2" fill="none" stroke-miterlimit="5"></polygon></g></g><g transform="translate(785.0 36.0)"><g clip-path="url(#i9)"><polygon points="0,0 16,0 16,56 0,56 0,0" stroke="none" fill="rgba(62, 156, 52, 0.9)"></polygon></g><g clip-path="url(#i9)"><polygon points="0,0 16,0 16,56 0,56 0,0 0,0" stroke="#418A37" stroke-width="2" fill="none" stroke-miterlimit="5"></polygon></g></g><g transform="translate(16.0 36.0)"><g clip-path="url(#i10)"><polygon points="0,0 769,0 769,16 0,16 0,0" stroke="none" fill="rgba(62, 156, 52, 0.9)"></polygon></g><g clip-path="url(#i10)"><polygon points="0,0 769,0 769,16 0,16 0,0 0,0" stroke="#418A37" stroke-width="2" fill="none" stroke-miterlimit="5"></polygon></g></g><g transform="translate(16.0 76.0)"><g clip-path="url(#i10)"><polygon points="0,0 769,0 769,16 0,16 0,0" stroke="none" fill="rgba(62, 156, 52, 0.9)"></polygon></g><g clip-path="url(#i10)"><polygon points="0,0 769,0 769,16 0,16 0,0 0,0" stroke="#418A37" stroke-width="2" fill="none" stroke-miterlimit="5"></polygon></g></g></svg>