<?xml version="1.0" encoding="UTF-8"?><svg version="1.1" width="57px" height="24px" viewBox="0 0 57.0 24.0" xmlns="http://www.w3.org/2000/svg" xmlns:xlink="http://www.w3.org/1999/xlink"><defs><clipPath id="i0"><path d="M54,0 C55.6568542,-3.04359188e-16 57,1.34314575 57,3 L57,21 C57,22.6568542 55.6568542,24 54,24 L3,24 C1.34314575,24 2.02906125e-16,22.6568542 0,21 L0,3 C-2.02906125e-16,1.34314575 1.34314575,3.04359188e-16 3,0 L54,0 Z"></path></clipPath><clipPath id="i1"><path d="M8,0 L8,24 L0,24 L0,0 L8,0 Z"></path></clipPath></defs><g clip-path="url(#i0)"><polygon points="0,0 57,0 57,24 0,24 0,0" stroke="none" fill="#E7F1FA"></polygon><path d="M3,0 L54,0 C55.6568542,-3.04359188e-16 57,1.34314575 57,3 L57,21 C57,22.6568542 55.6568542,24 54,24 L3,24 C1.34314575,24 2.02906125e-16,22.6568542 0,21 L0,3 C-2.02906125e-16,1.34314575 1.34314575,3.04359188e-16 3,0 Z" stroke="#0066CC" stroke-width="2" fill="none" stroke-miterlimit="5"></path></g><g transform="translate(8.0 3.0)"><text transform="translate(0.0 12.0)" font-family="RedHatText-Regular, Red Hat Text" font-size="12.0" font-weight="normal" fill="#151515" text-anchor="left" line-spacing="18.0">Default</text></g><g clip-path="url(#i1)"><polygon points="0,0 8,0 8,24 0,24 0,0" stroke="none" fill="rgba(146, 211, 0, 0.9)"></polygon></g><g clip-path="url(#i1)"><polygon points="0,0 8,0 8,24 0,24 0,0 0,0" stroke="#7EB200" stroke-width="2" fill="none" stroke-miterlimit="5"></polygon></g><g transform="translate(49.0 0.0)"><g clip-path="url(#i1)"><polygon points="0,0 8,0 8,24 0,24 0,0" stroke="none" fill="rgba(146, 211, 0, 0.9)"></polygon></g><g clip-path="url(#i1)"><polygon points="0,0 8,0 8,24 0,24 0,0 0,0" stroke="#7EB200" stroke-width="2" fill="none" stroke-miterlimit="5"></polygon></g></g></svg>