<?xml version="1.0" encoding="UTF-8"?><svg version="1.1" width="171px" height="118px" viewBox="0 0 171.0 118.0" xmlns="http://www.w3.org/2000/svg" xmlns:xlink="http://www.w3.org/1999/xlink"><defs><filter id="i0" x="-9.83606557%" y="-13.8461538%" filterUnits="userSpaceOnUse" width="113.114754%" height="118.461538%"><feGaussianBlur stdDeviation="3" in="SourceAlpha" result="i1"></feGaussianBlur><feOffset dx="0" dy="0" in="i1" result="i2"></feOffset><feColorMatrix values="0 0 0 0.0 0 0 0 0 0.0 0 0 0 0 0.0 0 0 0 0 0.08 0" type="matrix" in="i2"></feColorMatrix></filter><filter id="i3" x="-27.5862069%" y="-32%" filterUnits="userSpaceOnUse" width="139.408867%" height="153.333333%"><feGaussianBlur stdDeviation="8" in="SourceAlpha" result="i4"></feGaussianBlur><feOffset dx="0" dy="8" in="i4" result="i5"></feOffset><feColorMatrix values="0 0 0 0.0 0 0 0 0 0.0 0 0 0 0 0.0 0 0 0 0 0.16 0" type="matrix" in="i5"></feColorMatrix></filter><clipPath id="i6"><path d="M171,0 L171,118 L0,118 L0,0 L171,0 Z"></path></clipPath><clipPath id="i7"><path d="M171,0 L171,3 L0,3 L0,0 L171,0 Z"></path></clipPath><clipPath id="i8"><path d="M8.99907479,13.9999666 C8.99907479,15.1046393 8.10378274,15.9999666 7.00002561,15.9999666 C5.89626847,15.9999666 5.00097642,15.1046393 5.00097642,13.9999666 Z M7.00002086,0 C7.55190417,0 7.99941287,0.447813874 7.99941287,1 L7.99941287,1.65124118 C10.2950312,2.12810772 11.9975112,4.07185919 11.9975112,6.4999845 C11.9975112,9.69684578 13.1272083,10.6727956 13.7309361,11.3215367 C13.9184356,11.5227997 14.0015653,11.7640406 14.0000209,11.9999714 C13.9968961,12.5124824 13.5943702,12.999969 12.9968985,12.999969 L1.0031527,12.999969 C0.405680976,12.999969 0.00349077253,12.5124824 2.08566939e-05,11.9999714 C-0.00151409835,11.7640406 0.0816155863,11.5231049 0.269115139,11.3215367 C0.872842948,10.6727956 2.00253996,9.69684578 2.00253996,6.4999845 C2.00253996,4.07185919 3.70502003,2.12810772 6.00063834,1.65124118 L6.00063834,1 C6.00063834,0.447813874 6.44814704,0 7.00002086,0 Z"></path></clipPath><clipPath id="i9"><path d="M0.98282389,0.287818222 C1.36688669,-0.0959394075 1.98907759,-0.0959394075 2.37280471,0.287818222 L5.5,3.41500803 L8.62718433,0.287818222 C9.01124713,-0.0959394075 9.63340751,-0.0959394075 10.0171651,0.287818222 L10.7121708,0.98282389 C11.0959284,1.36688669 11.0959284,1.98907759 10.7121708,2.37280471 L7.584981,5.5 L10.7121708,8.62718433 C11.0959284,9.01124713 11.0959284,9.63340751 10.7121708,10.0171651 L10.0171651,10.7121708 C9.63340751,11.0959284 9.01091144,11.0959284 8.62718433,10.7121708 L5.5,7.584981 L2.37280471,10.7121708 C1.98907759,11.0959284 1.36658152,11.0959284 0.98282389,10.7121708 L0.287818222,10.0171651 C-0.0959394075,9.63310234 -0.0959394075,9.01091144 0.287818222,8.62718433 L3.41500803,5.5 L0.287818222,2.37280471 C-0.0959394075,1.9887419 -0.0959394075,1.36658152 0.287818222,0.98282389 Z"></path></clipPath><clipPath id="i10"><path d="M111,0 L111,21 L0,21 L0,0 L111,0 Z"></path></clipPath><clipPath id="i11"><path d="M87,0 L87,20 L0,20 L0,0 L87,0 Z"></path></clipPath><clipPath id="i12"><path d="M16,0 L16,118 L0,118 L0,0 L16,0 Z"></path></clipPath><clipPath id="i13"><path d="M4,0 L4,49 L0,49 L0,0 L4,0 Z"></path></clipPath><clipPath id="i14"><path d="M111,0 L111,4 L0,4 L0,0 L111,0 Z"></path></clipPath><clipPath id="i15"><path d="M139,0 L139,16 L0,16 L0,0 L139,0 Z"></path></clipPath></defs><polygon points="0,0 171,0 171,118 0,118 0,0 0,0" stroke="none" fill="#000000" filter="url(#i0)"></polygon><polygon points="0,0 171,0 171,118 0,118 0,0 0,0" stroke="none" fill="#000000" filter="url(#i3)"></polygon><g clip-path="url(#i6)"><polygon points="0,0 171,0 171,118 0,118 0,0" stroke="none" fill="#FFFFFF"></polygon></g><g clip-path="url(#i7)"><polygon points="0,0 171,0 171,3 0,3 0,0" stroke="none" fill="#009596"></polygon></g><g transform="translate(16.0 16.0)"><g transform="translate(4.999979143306074 4.0)"><g clip-path="url(#i8)"><polygon points="-1.94289029e-15,0 14.000042,0 14.000042,15.9999666 -1.94289029e-15,15.9999666 -1.94289029e-15,0" stroke="none" fill="#009596"></polygon></g></g></g><g transform="translate(131.0 16.0)"><g transform="translate(7.000000000000001 7.000000000000001)"><g clip-path="url(#i9)"><polygon points="0,0 10.999989,0 10.999989,10.999989 0,10.999989 0,0" stroke="none" fill="#696E73"></polygon></g></g></g><g transform="translate(44.0 81.0)"><g clip-path="url(#i10)"><text transform="translate(0.0 14.0)" font-family="RedHatText-Regular, Red Hat Text" font-size="14.0" font-weight="normal" fill="#0066CC" text-anchor="left" line-spacing="21.0">Action</text></g></g><g transform="translate(44.0 44.0)"><g clip-path="url(#i10)"><text transform="translate(0.0 14.0)" font-family="RedHatText-Regular, Red Hat Text" font-size="14.0" font-weight="normal" fill="#141514" text-anchor="left" line-spacing="21.0">Description</text></g></g><g transform="translate(44.0 18.0)"><g clip-path="url(#i11)"><text transform="translate(0.0 14.0)" font-family="RedHatText-Medium, Red Hat Text" font-size="14.0" font-weight="400" fill="#003636" text-anchor="left" line-spacing="21.0">Title</text></g></g><g transform="translate(16.000000000000025 0.0) scale(-1.0 1.0)"><g clip-path="url(#i12)"><polygon points="0,0 16,0 16,118 0,118 0,0" stroke="none" fill="rgba(62, 156, 52, 0.9)"></polygon></g><g clip-path="url(#i12)"><polygon points="0,0 16,0 16,118 0,118 0,0 0,0" stroke="#418A37" stroke-width="2" fill="none" stroke-miterlimit="5"></polygon></g></g><g transform="translate(171.0 0.0) scale(-1.0 1.0)"><g clip-path="url(#i12)"><polygon points="0,0 16,0 16,118 0,118 0,0" stroke="none" fill="rgba(62, 156, 52, 0.9)"></polygon></g><g clip-path="url(#i12)"><polygon points="0,0 16,0 16,118 0,118 0,0 0,0" stroke="#418A37" stroke-width="2" fill="none" stroke-miterlimit="5"></polygon></g></g><g transform="translate(44.0 16.0) scale(-1.0 1.0)"><g clip-path="url(#i13)"><polygon points="0,0 4,0 4,49 0,49 0,0" stroke="none" fill="rgba(236, 121, 8, 0.9)"></polygon></g><g clip-path="url(#i13)"><polygon points="0,0 4,0 4,49 0,49 0,0 0,0" stroke="#C67000" stroke-width="2" fill="none" stroke-miterlimit="5"></polygon></g></g><g transform="translate(44.0 40.0)"><g clip-path="url(#i14)"><polygon points="0,0 111,0 111,4 0,4 0,0" stroke="none" fill="rgba(236, 121, 8, 0.9)"></polygon></g><g clip-path="url(#i14)"><polygon points="0,0 111,0 111,4 0,4 0,0 0,0" stroke="#C67000" stroke-width="2" fill="none" stroke-miterlimit="5"></polygon></g></g><g transform="translate(16.0 0.0)"><g clip-path="url(#i15)"><polygon points="0,0 139,0 139,16 0,16 0,0" stroke="none" fill="rgba(62, 156, 52, 0.9)"></polygon></g><g clip-path="url(#i15)"><polygon points="0,0 139,0 139,16 0,16 0,0 0,0" stroke="#418A37" stroke-width="2" fill="none" stroke-miterlimit="5"></polygon></g></g><g transform="translate(16.0 102.0)"><g clip-path="url(#i15)"><polygon points="0,0 139,0 139,16 0,16 0,0" stroke="none" fill="rgba(62, 156, 52, 0.9)"></polygon></g><g clip-path="url(#i15)"><polygon points="0,0 139,0 139,16 0,16 0,0 0,0" stroke="#418A37" stroke-width="2" fill="none" stroke-miterlimit="5"></polygon></g></g><g transform="translate(16.0 65.0)"><g clip-path="url(#i15)"><polygon points="0,0 139,0 139,16 0,16 0,0" stroke="none" fill="rgba(62, 156, 52, 0.9)"></polygon></g><g clip-path="url(#i15)"><polygon points="0,0 139,0 139,16 0,16 0,0 0,0" stroke="#418A37" stroke-width="2" fill="none" stroke-miterlimit="5"></polygon></g></g></svg>