<svg xmlns="http://www.w3.org/2000/svg" width="53" height="53" viewBox="0 0 53 53">
  <path fill="#151515" fill-rule="evenodd" d="M26.1561876,52.3123753 C40.6008401,52.3123753 52.3123753,40.6050629 52.3123753,26.1561876 C52.3123753,11.715758 40.6008401,0 26.1561876,0 C11.7115352,0 0,11.715758 0,26.1561876 C0,40.6050629 11.7115352,52.3123753 26.1561876,52.3123753 Z M29.1093056,32.0624236 L23.2030697,32.0624236 C22.5041349,32.0624236 21.9374477,31.4957364 21.9374477,30.7968016 L21.9374477,30.3749276 C21.9374477,26.0445393 25.2204637,24.3134758 27.7015483,22.92261 C29.8289427,21.7299096 31.1327764,20.9187085 31.1327764,19.339256 C31.1327764,17.2498673 28.4677399,15.8632244 26.3131544,15.8632244 C23.4454206,15.8632244 22.1535345,17.2489404 20.2694181,19.638667 C19.8429092,20.1797081 19.0607532,20.2787908 18.5117814,19.8624786 L14.8522099,17.0875447 C14.3176577,16.6822532 14.1929288,15.9303781 14.5658794,15.3728576 C17.4445309,11.0696605 21.1103852,8.64841688 26.8581093,8.64841688 C32.802969,8.64841688 39.1483823,13.2888248 39.1483823,19.4062037 C39.1483823,27.5293381 30.3749276,27.6543759 30.3749276,30.6562112 L30.3749276,30.7968016 C30.3749276,31.4957364 29.8082404,32.0624236 29.1093056,32.0624236 Z M26.1561876,44.5077064 C23.4809545,44.5077064 21.3046367,42.3312856 21.3046367,39.6561555 C21.3046367,36.9809223 23.4809545,34.8046045 26.1561876,34.8046045 C28.8314208,34.8046045 31.0077386,36.9809223 31.0077386,39.6561555 C31.0077386,42.3312856 28.8314208,44.5077064 26.1561876,44.5077064 Z"/>
</svg>
