<?xml version="1.0" encoding="UTF-8"?><svg version="1.1" width="147px" height="90px" viewBox="0 0 147.0 90.0" xmlns="http://www.w3.org/2000/svg" xmlns:xlink="http://www.w3.org/1999/xlink"><defs><clipPath id="i0"><path d="M147,0 L147,90 L0,90 L0,0 L147,0 Z"></path></clipPath><clipPath id="i1"><path d="M99,0 L99,18 L0,18 L0,0 L99,0 Z"></path></clipPath><clipPath id="i2"><path d="M80,0 L80,24 L0,24 L0,0 L80,0 Z"></path></clipPath></defs><g clip-path="url(#i0)"><polygon points="0,0 147,0 147,90 0,90 0,0" stroke="none" fill="#FFFFFF"></polygon><polygon points="0,0 147,0 147,90 0,90 0,0 0,0" stroke="#D2D2D2" stroke-width="2" fill="none" stroke-miterlimit="5"></polygon></g><g transform="translate(24.0 48.0)"><g clip-path="url(#i1)"><text transform="translate(0.21600000000000108 12.0)" font-family="RedHatText-Regular, Red Hat Text" font-size="12.0" font-weight="normal" fill="#151515" text-anchor="center" line-spacing="18.0">Subtext goes here</text></g></g><g transform="translate(33.5 24.0)"><g clip-path="url(#i2)"><text transform="translate(0.4159999999999968 16.0)" font-family="RedHatText-Regular, Red Hat Text" font-size="16.0" font-weight="normal" fill="#151515" text-anchor="center" line-spacing="24.0">Default tile</text></g></g></svg>