<?xml version="1.0" encoding="UTF-8"?><svg version="1.1" width="147px" height="90px" viewBox="0 0 147.0 90.0" xmlns="http://www.w3.org/2000/svg" xmlns:xlink="http://www.w3.org/1999/xlink"><defs><clipPath id="i0"><path d="M147,0 L147,90 L0,90 L0,0 L147,0 Z"></path></clipPath><clipPath id="i1"><path d="M99,0 L99,18 L0,18 L0,0 L99,0 Z"></path></clipPath><clipPath id="i2"><path d="M70,0 L70,24 L0,24 L0,0 L70,0 Z"></path></clipPath></defs><g clip-path="url(#i0)"><polygon points="0,0 147,0 147,90 0,90 0,0" stroke="none" fill="#FFFFFF"></polygon><g transform="translate(0.0 -4.0)"><polygon points="147,90 147,94 0,94 0,90 147,90 147,90" stroke="none" fill="#73BCF7"></polygon></g></g><polygon points="0,0 147,0 147,90 0,90 0,0 0,0" stroke="#D2D2D2" stroke-width="1" fill="none" stroke-miterlimit="10"></polygon><g transform="translate(24.0 48.0)"><g clip-path="url(#i1)"><text transform="translate(0.21600000000000108 12.0)" font-family="RedHatText-Regular, Red Hat Text" font-size="12.0" font-weight="normal" fill="#151515" text-anchor="center" line-spacing="18.0">Subtext goes here</text></g></g><g transform="translate(38.5 24.0)"><g clip-path="url(#i2)"><text transform="translate(0.3119999999999976 16.0)" font-family="RedHatText-Regular, Red Hat Text" font-size="16.0" font-weight="normal" fill="#0066CC" text-anchor="center" line-spacing="24.0">Hover tile</text></g></g></svg>