<?xml version="1.0" encoding="UTF-8"?><svg version="1.1" width="330px" height="37px" viewBox="0 0 330.0 37.0" xmlns="http://www.w3.org/2000/svg" xmlns:xlink="http://www.w3.org/1999/xlink"><defs><clipPath id="i0"><path d="M330,0 L330,37 L0,37 L0,0 L330,0 Z"></path></clipPath><clipPath id="i1"><path d="M330,0 L330,8 L0,8 L0,0 L330,0 Z"></path></clipPath><clipPath id="i2"><path d="M16,0 L16,37 L0,37 L0,0 L16,0 Z"></path></clipPath><clipPath id="i3"><path d="M24,0 L24,37 L0,37 L0,0 L24,0 Z"></path></clipPath><clipPath id="i4"><path d="M8,0 L8,21.5 L0,21.5 L0,0 L8,0 Z"></path></clipPath><clipPath id="i5"><path d="M0.694917929,0.165223681 C0.915239059,-0.0550745605 1.27149279,-0.0550745605 1.48945644,0.165223681 L3.74883521,2.42460245 L6.00819109,0.165223681 C6.22851222,-0.0550745605 6.58476595,-0.0550745605 6.8027296,0.165223681 L7.33240668,0.694923651 C7.55272781,0.915221893 7.55272781,1.27147562 7.33240668,1.48943927 L4.14491428,4.67693167 C3.92928522,4.8972528 3.57305438,4.8972528 3.35273325,4.67693167 L0.165240847,1.48943927 C-0.0550802825,1.26914103 -0.0550802825,0.912887304 0.165240847,0.694923651 Z"></path></clipPath><clipPath id="i6"><path d="M16,0 L16,16 L0,16 L0,0 L16,0 Z"></path></clipPath></defs><g clip-path="url(#i0)"><polygon points="0,0 330,0 330,37 0,37 0,0" stroke="none" fill="#FFFFFF"></polygon></g><g transform=""><g clip-path="url(#i1)"><polygon points="0,0 330,0 330,8 0,8 0,0" stroke="none" fill="rgba(146, 211, 0, 0.9)"></polygon></g><g clip-path="url(#i1)"><polygon points="0,0 330,0 330,8 0,8 0,0 0,0" stroke="#7EB200" stroke-width="2" fill="none" stroke-miterlimit="5"></polygon></g></g><g transform="translate(0.0 29.0)"><g transform=""><g clip-path="url(#i1)"><polygon points="0,0 330,0 330,8 0,8 0,0" stroke="none" fill="rgba(146, 211, 0, 0.9)"></polygon></g><g clip-path="url(#i1)"><polygon points="0,0 330,0 330,8 0,8 0,0 0,0" stroke="#7EB200" stroke-width="2" fill="none" stroke-miterlimit="5"></polygon></g></g></g><g transform="translate(315.0 0.0)"><g clip-path="url(#i2)"><polygon points="0,0 16,0 16,37 0,37 0,0" stroke="none" fill="rgba(62, 156, 52, 0.9)"></polygon></g><g clip-path="url(#i2)"><polygon points="0,0 16,0 16,37 0,37 0,0 0,0" stroke="#418A37" stroke-width="2" fill="none" stroke-miterlimit="5"></polygon></g></g><g transform="translate(24.0 0.0)"><g clip-path="url(#i2)"><polygon points="0,0 16,0 16,37 0,37 0,0" stroke="none" fill="rgba(62, 156, 52, 0.9)"></polygon></g><g clip-path="url(#i2)"><polygon points="0,0 16,0 16,37 0,37 0,0 0,0" stroke="#418A37" stroke-width="2" fill="none" stroke-miterlimit="5"></polygon></g></g><g clip-path="url(#i3)"><polygon points="0,0 24,0 24,37 0,37 0,0" stroke="none" fill="rgba(0, 121, 135, 0.9)"></polygon></g><g clip-path="url(#i3)"><polygon points="0,0 24,0 24,37 0,37 0,0 0,0" stroke="#09707A" stroke-width="2" fill="none" stroke-miterlimit="5"></polygon></g><g transform="translate(48.0 7.5)"><g clip-path="url(#i4)"><polygon points="0,0 8,0 8,21.5 0,21.5 0,0" stroke="none" fill="rgba(146, 211, 0, 0.9)"></polygon></g><g clip-path="url(#i4)"><polygon points="0,0 8,0 8,21.5 0,21.5 0,0 0,0" stroke="#7EB200" stroke-width="2" fill="none" stroke-miterlimit="5"></polygon></g></g><g transform="translate(72.0 7.5)"><g clip-path="url(#i4)"><polygon points="0,0 8,0 8,21.5 0,21.5 0,0" stroke="none" fill="rgba(146, 211, 0, 0.9)"></polygon></g><g clip-path="url(#i4)"><polygon points="0,0 8,0 8,21.5 0,21.5 0,0 0,0" stroke="#7EB200" stroke-width="2" fill="none" stroke-miterlimit="5"></polygon></g></g><g transform="translate(32.0 6.5)"><g transform="translate(8.0 10.0)"><g clip-path="url(#i5)"><polygon points="0,2.77555756e-17 7.49764753,2.77555756e-17 7.49764753,4.84217252 0,4.84217252 0,2.77555756e-17" stroke="none" fill="#151515"></polygon></g></g></g><g transform="translate(80.0 9.399999618530273)"><text transform="translate(0.0 14.0)" font-family="RedHatText-Regular, Red Hat Text" font-size="14.0" font-weight="normal" fill="#141514" text-anchor="left" line-spacing="21.0">Type something</text></g><g transform="translate(48.0 6.5)"><g transform="translate(8.0 4.0)"><g clip-path="url(#i6)"><polygon points="0,0 16,0 16,16 0,16 0,0" stroke="none" fill="#FFFFFF"></polygon><polygon points="0,0 16,0 16,16 0,16 0,0 0,0" stroke="#696E73" stroke-width="2" fill="none" stroke-miterlimit="5"></polygon></g></g></g></svg>