<?xml version="1.0" encoding="UTF-8"?><svg version="1.1" width="16px" height="150px" viewBox="0 0 16.0 150.0" xmlns="http://www.w3.org/2000/svg" xmlns:xlink="http://www.w3.org/1999/xlink"><defs><clipPath id="i0"><path d="M38,0 L38,16 L0,16 L0,0 L38,0 Z"></path></clipPath><clipPath id="i1"><path d="M60,0 L60,16 L0,16 L0,0 L60,0 Z"></path></clipPath><clipPath id="i2"><path d="M24,0 L24,16 L0,16 L0,0 L24,0 Z"></path></clipPath><clipPath id="i3"><path d="M28,0 L28,16 L0,16 L0,0 L28,0 Z"></path></clipPath></defs><g transform="translate(15.999999999999549 0.0) rotate(90.0)"><g clip-path="url(#i0)"><polygon points="0,0 38,0 38,16 0,16 0,0" stroke="none" fill="#F3C144"></polygon></g></g><g transform="translate(15.999999999999998 38.0) rotate(90.0)"><g clip-path="url(#i1)"><polygon points="0,-3.55271368e-15 60,-3.55271368e-15 60,16 0,16 0,-3.55271368e-15" stroke="none" fill="#C58C00"></polygon></g></g><g transform="translate(16.0 98.0) rotate(90.0)"><g clip-path="url(#i2)"><polygon points="0,0 24,0 24,16 0,16 0,0" stroke="none" fill="#F0AB00"></polygon></g></g><g transform="translate(16.0 122.0) rotate(90.0)"><g clip-path="url(#i3)"><polygon points="0,0 28,0 28,16 0,16 0,0" stroke="none" fill="#F9E0A2"></polygon></g></g></svg>