<?xml version="1.0" encoding="UTF-8"?><svg version="1.1" width="147px" height="16px" viewBox="0 0 147.0 16.0" xmlns="http://www.w3.org/2000/svg" xmlns:xlink="http://www.w3.org/1999/xlink"><defs><clipPath id="i0"><path d="M38,0 L38,16 L0,16 L0,0 L38,0 Z"></path></clipPath><clipPath id="i1"><path d="M24,0 L24,16 L0,16 L0,0 L24,0 Z"></path></clipPath><clipPath id="i2"><path d="M26,0 L26,16 L0,16 L0,0 L26,0 Z"></path></clipPath><clipPath id="i3"><path d="M59,0 L59,16 L0,16 L0,0 L59,0 Z"></path></clipPath></defs><g transform=""><g clip-path="url(#i0)"><polygon points="0,0 38,0 38,16 0,16 0,0" stroke="none" fill="#8BC1F7"></polygon></g></g><g transform="translate(97.0 -2.2737367544323206e-13)"><g clip-path="url(#i1)"><polygon points="0,0 24,0 24,16 0,16 0,0" stroke="none" fill="#004A95"></polygon></g></g><g transform="translate(121.0 -1.9895196601282805e-13)"><g clip-path="url(#i2)"><polygon points="0,0 26,0 26,16 0,16 0,0" stroke="none" fill="#002F5D"></polygon></g></g><g transform="translate(38.0 -1.1368683772161603e-13)"><g clip-path="url(#i3)"><polygon points="0,0 59,0 59,16 0,16 0,0" stroke="none" fill="#519DE9"></polygon></g></g></svg>