<svg xmlns="http://www.w3.org/2000/svg" width="24" height="24" viewBox="0 0 24 24">
  <path fill="#151515" fill-rule="evenodd" d="M6.5,9 C6.77599436,9 7,8.77599436 7,8.5 L7,6.5 C7,6.22399849 6.77599436,6 6.5,6 L4.5,6 C4.22399849,6 4,6.22399849 4,6.5 L4,8.5 C4,8.77599436 4.22399849,9 4.5,9 L6.5,9 Z M19.499963,8.49999881 C19.7759634,8.49999881 19.9999619,8.27599555 19.9999619,7.99999881 L19.9999619,6.99999881 C19.9999619,6.7239973 19.7759634,6.49999881 19.499963,6.49999881 L9.49998808,6.49999881 C9.22398657,6.49999881 8.99998808,6.7239973 8.99998808,6.99999881 L8.99998808,7.99999881 C8.99998808,8.27599555 9.22398657,8.49999881 9.49998808,8.49999881 L19.499963,8.49999881 Z M6.5,13.9999881 C6.77599436,13.9999881 7,13.7759824 7,13.4999881 L7,11.4999881 C7,11.2239866 6.77599436,10.9999881 6.5,10.9999881 L4.5,10.9999881 C4.22399849,10.9999881 4,11.2239866 4,11.4999881 L4,13.4999881 C4,13.7759824 4.22399849,13.9999881 4.5,13.9999881 L6.5,13.9999881 Z M19.499963,13.4999869 C19.7759634,13.4999869 19.9999619,13.2759836 19.9999619,12.9999869 L19.9999619,11.9999869 C19.9999619,11.7239854 19.7759634,11.4999869 19.499963,11.4999869 L9.49998808,11.4999869 C9.22398657,11.4999869 8.99998808,11.7239854 8.99998808,11.9999869 L8.99998808,12.9999869 C8.99998808,13.2759836 9.22398657,13.4999869 9.49998808,13.4999869 L19.499963,13.4999869 Z M6.5,18.9999762 C6.77599436,18.9999762 7,18.7759705 7,18.4999762 L7,16.4999762 C7,16.2239746 6.77599436,15.9999762 6.5,15.9999762 L4.5,15.9999762 C4.22399849,15.9999762 4,16.2239746 4,16.4999762 L4,18.4999762 C4,18.7759705 4.22399849,18.9999762 4.5,18.9999762 L6.5,18.9999762 Z M19.499963,18.499975 C19.7759634,18.499975 19.9999619,18.2759717 19.9999619,17.999975 L19.9999619,16.999975 C19.9999619,16.7239735 19.7759634,16.499975 19.499963,16.499975 L9.49998808,16.499975 C9.22398657,16.499975 8.99998808,16.7239735 8.99998808,16.999975 L8.99998808,17.999975 C8.99998808,18.2759717 9.22398657,18.499975 9.49998808,18.499975 L19.499963,18.499975 Z"/>
</svg>
