<?xml version="1.0" encoding="UTF-8"?>
<svg width="83px" height="18px" viewBox="0 0 83 18" version="1.1" xmlns="http://www.w3.org/2000/svg" xmlns:xlink="http://www.w3.org/1999/xlink">
    <title></title>
    <g id="Labels" stroke="none" stroke-width="1" fill="none" fill-rule="evenodd">
        <g id="Labels-/-4.-Orange-/-4.-Editable-compact-/-1.-Filled-/-1.-Default-/-4.-Dismissable---With-icon">
            <rect id="Rectangle" stroke="#F4B678" fill="#FFF6EC" x="0" y="0" width="83" height="18" rx="9"></rect>
            <text id="Label" font-family="RedHatText-Regular, Red Hat Text" font-size="12" font-weight="normal" line-spacing="18" fill="#3D2C00">
                <tspan x="24" y="12">Label</tspan>
            </text>
            <g id="Icons/2.-Size-sm/Actions/times" transform="translate(66.000000, 5.000000)" fill="#6A6E73">
                <path d="M1.77960353,8.03412811 L4.12499589,5.68873575 L6.47038824,8.03412811 C6.75818358,8.32194633 7.22505563,8.32194633 7.51287386,8.03412811 L8.03412811,7.51287386 C8.32194633,7.22505563 8.32194633,6.75843535 8.03412811,6.47038824 L5.68873575,4.12499589 L8.03412811,1.77960353 C8.32194633,1.4918082 8.32194633,1.02516502 8.03412811,0.737117917 L7.51287386,0.215863667 C7.22505563,-0.0719545556 6.75843535,-0.0719545556 6.47038824,0.215863667 L4.12499589,2.56125602 L1.77960353,0.215863667 C1.4918082,-0.0719545556 1.02516502,-0.0719545556 0.737117917,0.215863667 L0.215863667,0.737117917 C-0.0719545556,1.02493614 -0.0719545556,1.49155643 0.215863667,1.77960353 L2.56125602,4.12499589 L0.215863667,6.47038824 C-0.0719545556,6.75818358 -0.0719545556,7.22482675 0.215863667,7.51287386 L0.737117917,8.03412811 C1.02493614,8.32194633 1.4918082,8.32194633 1.77960353,8.03412811 Z" id="times"></path>
            </g>
            <g id="Icons/2.-Size-sm/Status/info-circle" transform="translate(8.000000, 3.000000)" fill="#EC7A08">
                <path d="M5.81248614,11.6249723 C9.02240891,11.6249723 11.6249723,9.02334732 11.6249723,5.81248614 C11.6249723,2.60350179 9.02240891,0 5.81248614,0 C2.60256338,0 0,2.60350179 0,5.81248614 C0,9.02334732 2.60256338,11.6249723 5.81248614,11.6249723 Z M5.81248614,4.54686416 C5.26882441,4.54686416 4.82811349,4.10615324 4.82811349,3.56249151 C4.82811349,3.01882978 5.26882441,2.57811885 5.81248614,2.57811885 C6.35614787,2.57811885 6.79685879,3.01882978 6.79685879,3.56249151 C6.79685879,4.10615324 6.35614787,4.54686416 5.81248614,4.54686416 Z M6.84373368,8.81247899 L4.7812386,8.81247899 C4.62591976,8.81247899 4.49998927,8.6865485 4.49998927,8.53122966 L4.49998927,7.968731 C4.49998927,7.81341216 4.62591976,7.68748167 4.7812386,7.68748167 L5.06248793,7.68748167 L5.06248793,6.18748525 L4.7812386,6.18748525 C4.62591976,6.18748525 4.49998927,6.06155476 4.49998927,5.90623592 L4.49998927,5.34373726 C4.49998927,5.18841842 4.62591976,5.06248793 4.7812386,5.06248793 L6.28123502,5.06248793 C6.43655387,5.06248793 6.56248435,5.18841842 6.56248435,5.34373726 L6.56248435,7.68748167 L6.84373368,7.68748167 C6.99905253,7.68748167 7.12498301,7.81341216 7.12498301,7.968731 L7.12498301,8.53122966 C7.12498301,8.6865485 6.99905253,8.81247899 6.84373368,8.81247899 Z" id="info-circle"></path>
            </g>
            <g id="ðŸ“-Padding" transform="translate(1.000000, 0.000000)" fill-opacity="0.9">
                <g id="Spacer-/-Horizontal-/-2.-pf-global--spacer--sm-(8px)" fill="#92D400" stroke="#7FB300">
                    <rect id="Rectangle-Copy" x="0.5" y="0.5" width="7" height="17"></rect>
                </g>
                <g id="Spacer-/-Horizontal-/-2.-pf-global--spacer--sm-(8px)-Copy-2" transform="translate(20.000000, 0.000000)" fill="#EC7A08" stroke="#C77000">
                    <rect id="Rectangle" x="0.5" y="0.5" width="3" height="17"></rect>
                </g>
                <g id="Spacer-/-Horizontal-/-2.-pf-global--spacer--sm-(8px)-Copy-3" transform="translate(54.000000, 0.000000)" fill="#EC7A08" stroke="#C77000">
                    <rect id="Rectangle" x="0.5" y="0.5" width="3" height="17"></rect>
                </g>
                <g id="Spacer-/-Horizontal-/-2.-pf-global--spacer--sm-(8px)-Copy" transform="translate(74.000000, 0.000000)" fill="#92D400" stroke="#7FB300">
                    <rect id="Rectangle-Copy" x="0.5" y="0.5" width="7" height="17"></rect>
                </g>
            </g>
            <line x1="25" y1="14.9981015" x2="53" y2="14.9981015" id="Path-2" stroke="#8A8D90" stroke-dasharray="4,2"></line>
        </g>
    </g>
</svg>