<?xml version="1.0" encoding="UTF-8"?>
<svg width="54px" height="51px" viewBox="0 0 54 51" version="1.1" xmlns="http://www.w3.org/2000/svg" xmlns:xlink="http://www.w3.org/1999/xlink">
    <title></title>
    <g id="Icons" stroke="none" stroke-width="1" fill="none" fill-rule="evenodd">
        <g id="Icons-/-4.-Size-xl-/-View-Type-/-pficon-topology" fill="#151515">
            <path d="M43.5672794,0 C39.5619485,0 36.3060662,3.25588235 36.3060662,7.26121324 C36.3060662,8.690625 36.7130515,10.0158088 37.4277574,11.1424632 L33.2536765,15.4108456 C31.0946691,13.7183824 28.3748162,12.7058824 25.4117647,12.7058824 C23.7143382,12.7058824 22.0913603,13.0384191 20.6123162,13.6439338 L19.2871324,11.8919118 C18.6170956,10.9836397 17.4159926,10.7255515 16.621875,11.3261029 C15.8178309,11.9167279 15.7036765,13.1426471 16.3588235,14.0509191 L17.465625,15.5001838 C14.5621324,17.8279412 12.7058824,21.4014706 12.7058824,25.4117647 C12.7058824,26.5384191 12.8547794,27.6303309 13.1277574,28.6726103 L11.8621324,29.3277574 C10.9091912,29.7943015 10.4575368,30.9159926 10.8397059,31.8242647 C11.221875,32.7325368 12.3237132,33.0948529 13.2667279,32.6431985 L14.5373162,31.9830882 C16.3340074,34.9511029 19.3119485,37.125 22.8209559,37.8496324 L22.5231618,41.4727941 C20.5229779,42.0435662 19.0588235,43.8799632 19.0588235,46.0588235 C19.0588235,48.6893382 21.1930147,50.8235294 23.8235294,50.8235294 C26.4540441,50.8235294 28.5882353,48.6893382 28.5882353,46.0588235 C28.5882353,44.0884191 27.3920956,42.4009191 25.6897059,41.6762868 L25.9825368,38.1077206 C30.0424632,37.9290441 33.6110294,35.8395221 35.8047794,32.7176471 L39.1996324,35.0305147 C40.1079044,35.6558824 41.2990809,35.4821691 41.8301471,34.6433824 C42.3612132,33.7946691 42.0534926,32.6034926 41.1352941,31.9930147 L37.4525735,29.4865809 C37.884375,28.2060662 38.1176471,26.8362132 38.1176471,25.4117647 C38.1176471,22.6621324 37.2441176,20.1159926 35.7601103,18.0413603 L40.0731618,13.6389706 C41.1055147,14.2047794 42.2966912,14.5373162 43.5672794,14.5373162 C47.5726103,14.5373162 50.8284926,11.2814338 50.8284926,7.27610294 C50.8284926,3.27077206 47.5726103,0 43.5672794,0 Z M26.2058824,46.0588235 C26.2058824,47.3740809 25.1387868,48.4411765 23.8235294,48.4411765 C22.5082721,48.4411765 21.4411765,47.3740809 21.4411765,46.0588235 C21.4411765,44.7435662 22.5082721,43.6764706 23.8235294,43.6764706 C25.1387868,43.6764706 26.2058824,44.7435662 26.2058824,46.0588235 Z M25.4117647,31.7647059 C21.9027574,31.7647059 19.0588235,28.9207721 19.0588235,25.4117647 C19.0588235,21.9027574 21.9027574,19.0588235 25.4117647,19.0588235 C28.9207721,19.0588235 31.7647059,21.9027574 31.7647059,25.4117647 C31.7647059,28.9207721 28.9257353,31.7647059 25.4117647,31.7647059 Z M43.5672794,11.1176471 C41.4330882,11.1176471 39.7108456,9.39540441 39.7108456,7.26121324 C39.7108456,5.12702206 41.4330882,3.40477941 43.5672794,3.40477941 C45.7014706,3.40477941 47.4237132,5.12702206 47.4237132,7.26121324 C47.4237132,9.39540441 45.7014706,11.1176471 43.5672794,11.1176471 Z M44.7088235,35.353125 C46.8330882,33.2288603 50.2825368,33.2288603 52.4068015,35.353125 C53.4689338,36.4152574 54,37.8099265 54,39.2045956 C54,40.5992647 53.4689338,41.9889706 52.4068015,43.0560662 C50.2825368,45.1803309 46.8330882,45.1803309 44.7088235,43.0560662 C42.5845588,40.9268382 42.5845588,37.4823529 44.7088235,35.353125 M12.7058824,0.114154412 C15.7136029,0.114154412 18.1505515,2.55110294 18.1505515,5.55882353 C18.1505515,8.56654412 15.7136029,11.0034926 12.7058824,11.0034926 C9.69816176,11.0034926 7.26121324,8.56654412 7.26121324,5.55882353 C7.26121324,2.55110294 9.69816176,0.114154412 12.7058824,0.114154412 M4.76470588,30.1764706 C7.39522059,30.1764706 9.52941176,32.3106618 9.52941176,34.9411765 C9.52941176,37.5716912 7.39522059,39.7058824 4.76470588,39.7058824 C2.13419118,39.7058824 0,37.5716912 0,34.9411765 C0,32.3106618 2.13419118,30.1764706 4.76470588,30.1764706" id="pficon-topology"></path>
        </g>
    </g>
</svg>