<?xml version="1.0" encoding="UTF-8"?>
<svg width="54px" height="48px" viewBox="0 0 54 48" version="1.1" xmlns="http://www.w3.org/2000/svg" xmlns:xlink="http://www.w3.org/1999/xlink">
    <title></title>
    <g id="Icons" stroke="none" stroke-width="1" fill="none" fill-rule="evenodd">
        <g id="Icons-/-4.-Size-xl-/-View-Type-/-table" fill="#151515">
            <path d="M48.9373833,47.2498873 C51.7333285,47.2498873 53.9998713,44.9833446 53.9998713,42.1873994 L53.9998713,5.06248793 C53.9998713,2.26654275 51.7333285,0 48.9373833,0 L5.06248793,0 C2.26654275,0 0,2.26654275 0,5.06248793 L0,42.1873994 C0,44.9833446 2.26654275,47.2498873 5.06248793,47.2498873 L48.9373833,47.2498873 Z M23.6249437,23.6249437 L6.74998391,23.6249437 L6.74998391,13.4999678 L23.6249437,13.4999678 L23.6249437,23.6249437 Z M47.2498873,23.6249437 L30.3749276,23.6249437 L30.3749276,13.4999678 L47.2498873,13.4999678 L47.2498873,23.6249437 Z M23.6249437,40.4999034 L6.74998391,40.4999034 L6.74998391,30.3749276 L23.6249437,30.3749276 L23.6249437,40.4999034 Z M47.2498873,40.4999034 L30.3749276,40.4999034 L30.3749276,30.3749276 L47.2498873,30.3749276 L47.2498873,40.4999034 Z" id="table"></path>
        </g>
    </g>
</svg>