<?xml version="1.0" encoding="UTF-8"?>
<svg width="115px" height="40px" viewBox="0 0 115 40" version="1.1" xmlns="http://www.w3.org/2000/svg" xmlns:xlink="http://www.w3.org/1999/xlink">
    <title></title>
    <g id="Application-launcher" stroke="none" stroke-width="1" fill="none" fill-rule="evenodd">
        <g id="Application-launcher-/-2.-Menu-Item-/-1.-No-icons-/-1.-Basic-/-2.-Hover-/-2.-External-link">
            <rect fill="#FFFFFF" x="0" y="0" width="115" height="40"></rect>
            <rect id="Rectangle" fill="#F0F0F0" x="0" y="0" width="115" height="40"></rect>
            <text id="✏️-Label" font-family="RedHatText-Regular, Red Hat Text" font-size="16" font-weight="normal" line-spacing="24" fill="#151515">
                <tspan x="16" y="24">Option</tspan>
            </text>
            <g id="Icons-/-Small-/-external-link-alt" transform="translate(85.000005, 14.000000)" fill="#6A6E73">
                <path d="M4.09381653,9.00135183 C4.22274536,9.00135183 4.40124988,8.92724007 4.49225308,8.83591643 L10.2018571,3.12468737 L11.0390362,3.96092806 C11.3905978,4.31248972 11.9999714,4.06639655 11.9999714,3.56249151 L11.9999714,0.562498659 C11.9999714,0.251998301 11.7479731,-1.77635684e-15 11.4374727,-1.77635684e-15 L8.43747988,-1.77635684e-15 C7.93661896,-1.77635684e-15 7.68631438,0.607267839 8.03904333,0.960935209 L8.8764742,1.79836607 L3.16405496,7.50865672 C3.07273132,7.59965992 2.99861956,7.77816444 2.99861956,7.90709327 C2.99861956,8.0360221 3.07273132,8.21452662 3.16405496,8.30552982 L3.69537998,8.83591643 C3.78638318,8.92724007 3.9648877,9.00135183 4.09381653,9.00135183 Z M9.37497765,11.9999714 C9.99597836,11.9999714 10.499975,11.4959748 10.499975,10.8749741 L10.499975,7.87498122 C10.499975,7.66798099 10.3319761,7.49998212 10.1249759,7.49998212 L9.37497765,7.49998212 C9.16797741,7.49998212 8.99997854,7.66798099 8.99997854,7.87498122 L8.99997854,10.499975 L1.5,10.499975 L1.5,2.99999642 L4.87498838,2.99999642 C5.08198862,2.99999642 5.24998748,2.83199398 5.24998748,2.62499374 L5.24998748,1.87499553 C5.24998748,1.66799529 5.08198862,1.49999642 4.87498838,1.49999642 L1.12499732,1.49999642 C0.503996601,1.49999642 0,2.00399302 0,2.62499374 L0,10.8749741 C0,11.4959748 0.503996601,11.9999714 1.12499732,11.9999714 L9.37497765,11.9999714 Z" id="external-link-alt"></path>
            </g>
        </g>
    </g>
</svg>