<svg xmlns="http://www.w3.org/2000/svg" xmlns:xlink="http://www.w3.org/1999/xlink" width="171" height="81" viewBox="0 0 171 81">
  <defs>
    <rect id="no-actions-b" width="171" height="81" x="0" y="0"/>
    <filter id="no-actions-a" width="132.7%" height="169.1%" x="-16.4%" y="-24.7%" filterUnits="objectBoundingBox">
      <feOffset in="SourceAlpha" result="shadowOffsetOuter1"/>
      <feGaussianBlur in="shadowOffsetOuter1" result="shadowBlurOuter1" stdDeviation="3"/>
      <feColorMatrix in="shadowBlurOuter1" result="shadowMatrixOuter1" values="0 0 0 0 0   0 0 0 0 0   0 0 0 0 0  0 0 0 0.08 0"/>
      <feOffset dy="8" in="SourceAlpha" result="shadowOffsetOuter2"/>
      <feGaussianBlur in="shadowOffsetOuter2" result="shadowBlurOuter2" stdDeviation="8"/>
      <feColorMatrix in="shadowBlurOuter2" result="shadowMatrixOuter2" values="0 0 0 0 0   0 0 0 0 0   0 0 0 0 0  0 0 0 0.16 0"/>
      <feMerge>
        <feMergeNode in="shadowMatrixOuter1"/>
        <feMergeNode in="shadowMatrixOuter2"/>
      </feMerge>
    </filter>
  </defs>
  <g fill="none" fill-rule="evenodd">
    <use fill="#000" filter="url(#no-actions-a)" xlink:href="#no-actions-b"/>
    <use fill="#FFF" xlink:href="#no-actions-b"/>
    <rect width="171" height="3" fill="#F0AB00"/>
    <path fill="#F0AB00" d="M19.4981174,19.999962 C20.6501533,19.999962 21.3741811,18.7501786 20.7973697,17.7503641 L13.2992797,4.74954061 C12.7232007,3.75106887 11.2778001,3.74923782 10.7007141,4.74954061 L3.20241044,17.7503641 C2.62672822,18.748256 3.34742963,19.999962 4.50169323,19.999962 L19.4981174,19.999962 Z M12.75854,14.4999751 L11.2414538,14.4999751 C11.0422965,14.4999751 10.8778682,14.3442748 10.8670345,14.1454227 L10.6352235,9.89543288 C10.6235048,9.68062016 10.7944944,9.49998704 11.0096123,9.49998704 L12.990351,9.49998704 C13.2054689,9.49998704 13.376489,9.68062016 13.3647702,9.89543288 L13.1329593,14.1454227 C13.1221256,14.3442748 12.9576972,14.4999751 12.75854,14.4999751 Z M11.9999969,17.9374669 C11.206084,17.9374669 10.5625003,17.2938833 10.5625003,16.4999704 C10.5625003,15.7060575 11.206084,15.0624738 11.9999969,15.0624738 C12.7939098,15.0624738 13.4374935,15.7060575 13.4374935,16.4999704 C13.4374935,17.2938833 12.7939098,17.9374669 11.9999969,17.9374669 Z" transform="translate(16 16)"/>
    <path fill="#6A6E73" d="M9.37280471,17.7121708 L12.5,14.584981 L15.6271843,17.7121708 C16.0109114,18.0959284 16.6334075,18.0959284 17.0171651,17.7121708 L17.7121708,17.0171651 C18.0959284,16.6334075 18.0959284,16.0112471 17.7121708,15.6271843 L14.584981,12.5 L17.7121708,9.37280471 C18.0959284,8.98907759 18.0959284,8.36688669 17.7121708,7.98282389 L17.0171651,7.28781822 C16.6334075,6.90406059 16.0112471,6.90406059 15.6271843,7.28781822 L12.5,10.415008 L9.37280471,7.28781822 C8.98907759,6.90406059 8.36688669,6.90406059 7.98282389,7.28781822 L7.28781822,7.98282389 C6.90406059,8.36658152 6.90406059,8.9887419 7.28781822,9.37280471 L10.415008,12.5 L7.28781822,15.6271843 C6.90406059,16.0109114 6.90406059,16.6331023 7.28781822,17.0171651 L7.98282389,17.7121708 C8.36658152,18.0959284 8.98907759,18.0959284 9.37280471,17.7121708 Z" transform="translate(131 16)"/>
    <text fill="#151515" font-family="RedHatText-Regular, Red Hat Text" font-size="14">
      <tspan x="44" y="58">Description</tspan>
    </text>
    <text fill="#795600" font-family="RedHatText-Medium, Red Hat Text" font-size="14" font-weight="400">
      <tspan x="44" y="32">Title</tspan>
    </text>
    <g fill-opacity=".9">
      <rect width="15" height="80" x=".5" y=".5" fill="#3F9C35" stroke="#418A38" transform="matrix(-1 0 0 1 16 0)"/>
      <rect width="15" height="80" x=".5" y=".5" fill="#3F9C35" stroke="#418A38" transform="matrix(-1 0 0 1 171 0)"/>
      <rect width="3" height="48" x=".5" y=".5" fill="#EC7A08" stroke="#C77000" transform="matrix(-1 0 0 1 44 16)"/>
      <rect width="110" height="3" x=".5" y=".5" fill="#EC7A08" stroke="#C77000" transform="translate(44 40)"/>
      <rect width="138" height="15" x=".5" y=".5" fill="#3F9C35" stroke="#418A38" transform="translate(16)"/>
      <rect width="138" height="15" x=".5" y=".5" fill="#3F9C35" stroke="#418A38" transform="translate(16 65)"/>
    </g>
  </g>
</svg>
