<?xml version="1.0" encoding="UTF-8"?>
<svg width="789px" height="571px" viewBox="0 0 789 571" version="1.1" xmlns="http://www.w3.org/2000/svg" xmlns:xlink="http://www.w3.org/1999/xlink">
    <title></title>
    <g id="Code-editor" stroke="none" stroke-width="1" fill="none" fill-rule="evenodd">
        <g id="Code-editor-/-Code-area-/-1.-Read-only-/-1.-No-text">
            <rect id="Rectangle" stroke="#D2D2D2" fill="#F0F0F0" x="0" y="36" width="789" height="535"></rect>
            <rect id="Rectangle" fill="#FFFFFF" x="8" y="44" width="773" height="519"></rect>
            <g id="Code-editor/Language-tab" transform="translate(705.500000, 0.000000)">
                <rect id="Rectangle" fill="#F0F0F0" x="1" y="15" width="82" height="23"></rect>
                <rect id="Rectangle" fill="#FFFFFF" x="0" y="0" width="84" height="36"></rect>
                <line x1="0.5" y1="0.5" x2="0.5" y2="35.5" id="Line" stroke="#D2D2D2" stroke-linecap="square"></line>
                <line x1="83.5" y1="0.5" x2="83.5" y2="35.5" id="Line" stroke="#D2D2D2" stroke-linecap="square"></line>
                <line x1="83.5" y1="0.526315789" x2="0.5" y2="0.526315789" id="Line" stroke="#D2D2D2" stroke-linecap="square"></line>
                <text id="HTML" font-family="LiberationMono, Liberation Mono" font-size="16" font-weight="normal" fill="#6A6E73">
                    <tspan x="37" y="22">HTML</tspan>
                </text>
                <g id="Icons/1.-Size-md-(16px)/Object/code" transform="translate(8.000000, 6.062327)" fill="#6A6E73">
                    <path d="M11.1820002,19.726918 L15.447615,5.03319688 C15.5038588,4.83321567 15.3913713,4.62383507 15.1913595,4.56759131 L13.2851141,4.01446152 C13.0851329,3.95821776 12.8757523,4.07070528 12.8195085,4.27071701 L8.55389368,18.9644381 C8.49764991,19.1644193 8.61013744,19.3737999 8.81014917,19.4300437 L10.7163946,19.9831734 C10.9163758,20.0425605 11.1226437,19.9269297 11.1820002,19.726918 Z M7.15390312,16.4769257 L8.51327488,15.0269475 C8.65701233,14.8738106 8.64764345,14.6300673 8.48825052,14.4894426 L5.65701948,11.9988175 L8.48825052,9.50819232 C8.64764345,9.36756765 8.66012511,9.12382434 8.51327488,8.9706875 L7.15390312,7.52070926 C7.01327845,7.37071573 6.77576071,7.36131633 6.62265438,7.5050843 L2.11952181,11.7238242 C1.9601594,11.870705 1.9601594,12.1238172 2.11952181,12.2706979 L6.62265438,16.4925507 C6.77576071,16.6363186 7.01327845,16.6300625 7.15390312,16.4769257 Z M17.3788543,16.495694 L21.8819869,12.2738107 C22.0413493,12.12693 22.0413493,11.8738178 21.8819869,11.726937 L17.3788543,7.501941 C17.2288608,7.36131633 16.9913736,7.36757242 16.8476056,7.51756596 L15.4882338,8.96757471 C15.3444964,9.12071155 15.3538653,9.36445487 15.5132582,9.50507953 L18.3444892,11.9988175 L15.5132582,14.4894426 C15.3538653,14.6300673 15.3413836,14.8738106 15.4882338,15.0269475 L16.8476056,16.4769257 C16.9882303,16.6300625 17.225748,16.6363186 17.3788543,16.495694 Z" id="code"></path>
                </g>
            </g>
        </g>
    </g>
</svg>