<?xml version="1.0" encoding="UTF-8"?>
<svg width="48px" height="47px" viewBox="0 0 48 47" version="1.1" xmlns="http://www.w3.org/2000/svg" xmlns:xlink="http://www.w3.org/1999/xlink">
    <title></title>
    <g id="Icons" stroke="none" stroke-width="1" fill="none" fill-rule="evenodd">
        <g id="Icons-/-4.-Size-xl-/-Framework-/-arrow-right" fill="#151515">
            <path d="M26.0084905,45.3145301 L46.5116079,24.8115158 C47.5030529,23.8305763 47.5030529,22.2275376 46.5116079,21.2360925 L26.0084905,0.743583814 C25.0276541,-0.247861271 23.4245123,-0.247861271 22.4331702,0.743583814 L20.091749,3.08500508 C19.0792926,4.08695582 19.1003039,5.72171754 20.1339776,6.70255398 L32.8429316,18.810317 L2.53124397,18.810317 C1.12853353,18.810317 0,19.9388505 0,21.341561 L0,24.7165529 C0,26.1192634 1.12853353,27.2477969 2.53124397,27.2477969 L32.8429316,27.2477969 L20.1339776,39.3555599 C19.1109125,40.3363964 19.0897982,41.9711581 20.091749,42.9731088 L22.4331702,45.3145301 C23.4140067,46.3059752 25.0171485,46.3059752 26.0084905,45.3145301 Z" id="arrow-right"></path>
        </g>
    </g>
</svg>