<?xml version="1.0" encoding="UTF-8"?>
<svg width="48px" height="42px" viewBox="0 0 48 42" version="1.1" xmlns="http://www.w3.org/2000/svg" xmlns:xlink="http://www.w3.org/1999/xlink">
    <title></title>
    <g id="Icons" stroke="none" stroke-width="1" fill="none" fill-rule="evenodd">
        <g id="Icons-/-4.-Size-xl-/-Framework-/-bars" fill="#151515">
            <path d="M45.5623914,7.5937319 C46.4944074,7.5937319 47.2498873,6.83825198 47.2498873,5.90623592 L47.2498873,1.68749598 C47.2498873,0.755479919 46.4944074,0 45.5623914,0 L1.68749598,0 C0.755479919,0 0,0.755479919 0,1.68749598 L0,5.90623592 C0,6.83825198 0.755479919,7.5937319 1.68749598,7.5937319 L45.5623914,7.5937319 Z M45.5623914,24.4686917 C46.4944074,24.4686917 47.2498873,23.7132117 47.2498873,22.7811957 L47.2498873,18.5624557 C47.2498873,17.6304397 46.4944074,16.8749598 45.5623914,16.8749598 L1.68749598,16.8749598 C0.755479919,16.8749598 0,17.6304397 0,18.5624557 L0,22.7811957 C0,23.7132117 0.755479919,24.4686917 1.68749598,24.4686917 L45.5623914,24.4686917 Z M45.5623914,41.3436514 C46.4944074,41.3436514 47.2498873,40.5881715 47.2498873,39.6561555 L47.2498873,35.4374155 C47.2498873,34.5053995 46.4944074,33.7499195 45.5623914,33.7499195 L1.68749598,33.7499195 C0.755479919,33.7499195 0,34.5053995 0,35.4374155 L0,39.6561555 C0,40.5881715 0.755479919,41.3436514 1.68749598,41.3436514 L45.5623914,41.3436514 Z" id="bars"></path>
        </g>
    </g>
</svg>