<?xml version="1.0" encoding="UTF-8"?>
<svg width="16px" height="53px" viewBox="0 0 16 53" version="1.1" xmlns="http://www.w3.org/2000/svg" xmlns:xlink="http://www.w3.org/1999/xlink">
    <title></title>
    <g id="Icons" stroke="none" stroke-width="1" fill="none" fill-rule="evenodd">
        <g id="Icons-/-4.-Size-xl-/-Framework-/-ellipsis-v" fill="#151515">
            <path d="M7.5937319,15.1874638 C11.7913575,15.1874638 15.1874638,11.7913575 15.1874638,7.5937319 C15.1874638,3.39610625 11.7913575,0 7.5937319,0 C3.39610625,0 0,3.39610625 0,7.5937319 C0,11.7913575 3.39610625,15.1874638 7.5937319,15.1874638 Z M7.5937319,33.7499195 C11.7913575,33.7499195 15.1874638,30.3538133 15.1874638,26.1561876 C15.1874638,21.958562 11.7913575,18.5624557 7.5937319,18.5624557 C3.39610625,18.5624557 0,21.958562 0,26.1561876 C0,30.3538133 3.39610625,33.7499195 7.5937319,33.7499195 Z M7.5937319,52.3123753 C11.7913575,52.3123753 15.1874638,48.916269 15.1874638,44.7186434 C15.1874638,40.5210177 11.7913575,37.1249115 7.5937319,37.1249115 C3.39610625,37.1249115 0,40.5210177 0,44.7186434 C0,48.916269 3.39610625,52.3123753 7.5937319,52.3123753 Z" id="ellipsis-v"></path>
        </g>
    </g>
</svg>