<?xml version="1.0" encoding="UTF-8"?>
<svg width="40px" height="54px" viewBox="0 0 40 54" version="1.1" xmlns="http://www.w3.org/2000/svg" xmlns:xlink="http://www.w3.org/1999/xlink">
    <title></title>
    <g id="Icons" stroke="none" stroke-width="1" fill="none" fill-rule="evenodd">
        <g id="Icons-/-4.-Size-xl-/-Framework-/-file" fill="#151515" fill-rule="nonzero">
            <g id="file-solid">
                <path d="M23.5421053,14.34375 L23.5421053,0 L2.52236842,0 C1.12455592,0 0,1.12851562 0,2.53125 L0,51.46875 C0,52.8714844 1.12455592,54 2.52236842,54 L37.8355263,54 C39.2333388,54 40.3578947,52.8714844 40.3578947,51.46875 L40.3578947,16.875 L26.0644737,16.875 C24.6771711,16.875 23.5421053,15.7359375 23.5421053,14.34375 Z M40.3578947,12.8566406 L40.3578947,13.5 L26.9052632,13.5 L26.9052632,0 L27.5463651,0 C28.2189967,0 28.8600987,0.263671875 29.3330428,0.73828125 L39.6222039,11.0742188 C40.095148,11.5488281 40.3578947,12.1921875 40.3578947,12.8566406 Z" id="Shape"></path>
            </g>
        </g>
    </g>
</svg>