<?xml version="1.0" encoding="UTF-8"?>
<svg width="62px" height="41px" viewBox="0 0 62 41" version="1.1" xmlns="http://www.w3.org/2000/svg" xmlns:xlink="http://www.w3.org/1999/xlink">
    <title></title>
    <g id="Icons" stroke="none" stroke-width="1" fill="none" fill-rule="evenodd">
        <g id="Icons-/-4.-Size-xl-/-Framework-/-folder-open" fill="#151515">
            <path d="M1,34.3875714 L8.28546313,21.898206 C10.0928471,18.7997599 13.4441499,16.8749598 17.0312118,16.8749598 L51.6248793,16.8749598 L51.6248793,11.8124718 C51.6248793,9.01652666 49.3583365,6.74998391 46.5623914,6.74998391 L29.6874316,6.74998391 L22.9374477,0 L6.06248793,0 C3.26654275,0 1,2.26654275 1,5.06248793 L1,34.3875714 Z M47.9324519,40.4999034 C50.0725148,40.4999034 52.6844051,38.9996552 53.7626763,37.1510726 L61.4012117,24.0566023 C62.3856531,22.3691064 61.1684395,20.2499517 59.2148003,20.2499517 L17.0312118,20.2499517 C14.8910458,20.2499517 12.2790525,21.7501999 11.2006783,23.5987825 L3.56224594,36.6932528 C2.57790761,38.3807488 3.7951212,40.4999034 5.74876035,40.4999034 L47.9324519,40.4999034 Z" id="folder-open"></path>
        </g>
    </g>
</svg>