<?xml version="1.0" encoding="UTF-8"?>
<svg width="48px" height="34px" viewBox="0 0 48 34" version="1.1" xmlns="http://www.w3.org/2000/svg" xmlns:xlink="http://www.w3.org/1999/xlink">
    <title></title>
    <g id="Icons" stroke="none" stroke-width="1" fill="none" fill-rule="evenodd">
        <g id="Icons-/-4.-Size-xl-/-Framework-/-grip-horizontal" fill="#151515">
            <path d="M10.1249759,13.4999678 C11.988596,13.4999678 13.4999678,11.988596 13.4999678,10.1249759 L13.4999678,3.37499195 C13.4999678,1.51137182 11.988596,0 10.1249759,0 L3.37499195,0 C1.51137182,0 3.55271368e-15,1.51137182 3.55271368e-15,3.37499195 L3.55271368e-15,10.1249759 C3.55271368e-15,11.988596 1.51137182,13.4999678 3.37499195,13.4999678 L10.1249759,13.4999678 Z M26.9999356,13.4999678 C28.8635558,13.4999678 30.3749276,11.988596 30.3749276,10.1249759 L30.3749276,3.37499195 C30.3749276,1.51137182 28.8635558,0 26.9999356,0 L20.2499517,0 C18.3863316,0 16.8749598,1.51137182 16.8749598,3.37499195 L16.8749598,10.1249759 C16.8749598,11.988596 18.3863316,13.4999678 20.2499517,13.4999678 L26.9999356,13.4999678 Z M43.8748954,13.4999678 C45.7385155,13.4999678 47.2498873,11.988596 47.2498873,10.1249759 L47.2498873,3.37499195 C47.2498873,1.51137182 45.7385155,0 43.8748954,0 L37.1249115,0 C35.2612914,0 33.7499195,1.51137182 33.7499195,3.37499195 L33.7499195,10.1249759 C33.7499195,11.988596 35.2612914,13.4999678 37.1249115,13.4999678 L43.8748954,13.4999678 Z M10.1249759,33.7499195 C11.988596,33.7499195 13.4999678,32.2385477 13.4999678,30.3749276 L13.4999678,23.6249437 C13.4999678,21.7613235 11.988596,20.2499517 10.1249759,20.2499517 L3.37499195,20.2499517 C1.51137182,20.2499517 3.55271368e-15,21.7613235 3.55271368e-15,23.6249437 L3.55271368e-15,30.3749276 C3.55271368e-15,32.2385477 1.51137182,33.7499195 3.37499195,33.7499195 L10.1249759,33.7499195 Z M26.9999356,33.7499195 C28.8635558,33.7499195 30.3749276,32.2385477 30.3749276,30.3749276 L30.3749276,23.6249437 C30.3749276,21.7613235 28.8635558,20.2499517 26.9999356,20.2499517 L20.2499517,20.2499517 C18.3863316,20.2499517 16.8749598,21.7613235 16.8749598,23.6249437 L16.8749598,30.3749276 C16.8749598,32.2385477 18.3863316,33.7499195 20.2499517,33.7499195 L26.9999356,33.7499195 Z M43.8748954,33.7499195 C45.7385155,33.7499195 47.2498873,32.2385477 47.2498873,30.3749276 L47.2498873,23.6249437 C47.2498873,21.7613235 45.7385155,20.2499517 43.8748954,20.2499517 L37.1249115,20.2499517 C35.2612914,20.2499517 33.7499195,21.7613235 33.7499195,23.6249437 L33.7499195,30.3749276 C33.7499195,32.2385477 35.2612914,33.7499195 37.1249115,33.7499195 L43.8748954,33.7499195 Z" id="grip-horizontal"></path>
        </g>
    </g>
</svg>