<?xml version="1.0" encoding="UTF-8"?>
<svg width="61px" height="48px" viewBox="0 0 61 48" version="1.1" xmlns="http://www.w3.org/2000/svg" xmlns:xlink="http://www.w3.org/1999/xlink">
    <title></title>
    <g id="Icons" stroke="none" stroke-width="1" fill="none" fill-rule="evenodd">
        <g id="Icons-/-4.-Size-xl-/-Framework-/-home" fill="#151515">
            <path d="M56.8016872,28.6563266 C57.1305553,28.6563266 57.5676728,28.4505395 57.7771679,28.1970649 L60.4666146,24.9275414 C60.6255383,24.7341139 60.75449,24.3741408 60.75449,24.1238591 C60.75449,23.7914891 60.545201,23.3515907 60.2872975,23.1418897 L51.4701722,15.874039 L51.4701722,1.26562198 C51.4701722,0.566996176 50.9031761,0 50.2045503,0 L44.2983143,0 C43.5996885,0 43.0326924,0.566996176 43.0326924,1.26562198 L43.0326924,8.92372674 L33.5900688,1.15490066 C32.8163585,0.518278794 31.3753334,0.00154494871 30.3732796,0.00154494871 C29.3713289,0.00154494871 27.9302007,0.518278794 27.1564904,1.15490066 L0.459261753,23.1418897 C0.205787168,23.3514878 0,23.7885022 0,24.1174733 C0,24.368991 0.130187678,24.730509 0.290553354,24.9243485 L2.98000007,28.193872 C3.18959811,28.4486855 3.62753957,28.6556057 3.95743762,28.6556057 C4.20864628,28.6556057 4.56975229,28.525727 4.76348886,28.3657733 L29.5717602,7.93228166 C29.7667328,7.77510887 30.1281478,7.64759911 30.3785325,7.64759911 C30.6290201,7.64759911 30.9904351,7.77510887 31.1854077,7.93228166 L55.994812,28.3657733 C56.1885486,28.526139 56.5500666,28.6563266 56.8016872,28.6563266 Z M48.9389283,47.2446345 C49.8704293,47.2446345 50.6264242,46.4886396 50.6264242,45.5571385 L50.6264242,28.2603048 L31.1854077,12.2564901 C30.9904351,12.0993173 30.6290201,11.9718075 30.3785325,11.9718075 C30.1281478,11.9718075 29.7667328,12.0993173 29.5717602,12.2564901 L10.1265208,28.2719434 L10.1265208,45.5571385 C10.1265208,46.4886396 10.8825157,47.2446345 11.8140168,47.2446345 L23.6327714,47.2140445 C24.5596376,47.2094097 25.3119247,46.4534148 25.3119247,45.5265486 L25.3119247,35.4321627 C25.3119247,34.5006616 26.0679196,33.7446667 26.9994206,33.7446667 L33.7494046,33.7446667 C34.6808026,33.7446667 35.4369005,34.5006616 35.4369005,35.4321627 L35.4367975,45.5244886 L35.4367975,45.5244886 C35.4367975,46.4069633 36.1153082,47.13192 36.9787575,47.2057867 L37.1243965,47.2119846 L48.9389283,47.2446345 Z" id="home"></path>
        </g>
    </g>
</svg>