<?xml version="1.0" encoding="UTF-8"?>
<svg width="40px" height="54px" viewBox="0 0 40 54" version="1.1" xmlns="http://www.w3.org/2000/svg" xmlns:xlink="http://www.w3.org/1999/xlink">
    <title></title>
    <g id="Icons" stroke="none" stroke-width="1" fill="none" fill-rule="evenodd">
        <g id="Icons-/-4.-Size-xl-/-Framework-/-task" fill="#020303" fill-rule="nonzero">
            <path d="M33.25,22.78125 C33.25,23.2453125 32.8703125,23.625 32.40625,23.625 L7.09295898,23.6024297 C6.62889648,23.6024297 6.24920898,23.2227949 6.24920898,22.7586797 L6.24920898,21.0711797 C6.24920898,20.6071172 6.62889648,20.2274297 7.09295898,20.2274297 L32.40625,20.25 C32.8703125,20.25 33.25,20.6296875 33.25,21.09375 L33.25,22.78125 Z M29.8101367,32.9061445 C29.8101367,33.3702598 29.4304492,33.7498945 28.9663867,33.7498945 L10.4653223,33.7499473 C10.0012598,33.7499473 9.62157227,33.3702598 9.62157227,32.9061973 L9.62157227,31.2186973 C9.62157227,30.7546348 10.0012598,30.3749473 10.4653223,30.3749473 L28.9663867,30.3748945 C29.4304492,30.3748945 29.8101367,30.754582 29.8101367,31.2186445 L29.8101367,32.9061445 Z M26.438459,43.0311445 C26.438459,43.4952598 26.0587715,43.8748945 25.594709,43.8748945 L13.8289316,43.8749473 C13.3648691,43.8749473 12.9851816,43.4952598 12.9851816,43.0311973 L12.9851816,41.3436973 C12.9851816,40.8796348 13.3648691,40.4999473 13.8289316,40.4999473 L25.594709,40.4998945 C26.0587715,40.4998945 26.438459,40.879582 26.438459,41.3436445 L26.438459,43.0311445 Z M19.75,4.21875 C21.1527344,4.21875 22.28125,5.34726563 22.28125,6.75 C22.28125,8.15273437 21.1527344,9.28125 19.75,9.28125 C18.3472656,9.28125 17.21875,8.15273437 17.21875,6.75 C17.21875,5.34726563 18.3472656,4.21875 19.75,4.21875 L19.75,4.21875 Z M34.9375,6.75 L26.5,6.75 C26.5,3.02695312 23.4730469,0 19.75,0 C16.0269531,0 13,3.02695312 13,6.75 L4.5625,6.75 C1.76757812,6.75 -0.5,9.01757812 -0.5,11.8125 L-0.5,48.9375 C-0.5,51.7324219 1.76757812,54 4.5625,54 L34.9375,54 C37.7324219,54 40,51.7324219 40,48.9375 L40,11.8125 C40,9.01757812 37.7324219,6.75 34.9375,6.75 L34.9375,6.75 Z" id="task"></path>
        </g>
    </g>
</svg>