<?xml version="1.0" encoding="UTF-8"?>
<svg width="24px" height="24px" viewBox="0 0 24 24" version="1.1" xmlns="http://www.w3.org/2000/svg" xmlns:xlink="http://www.w3.org/1999/xlink">
    <title></title>
    <g id="Icons" stroke="none" stroke-width="1" fill="none" fill-rule="evenodd">
        <g id="Icons/3.-Size-lg-(24px)/Framework/bell" fill="#151515">
            <path d="M20.4953165,19.4999535 C21.3915241,19.4999535 21.9953129,18.7687236 22.0000142,17.9999571 C22.0023167,17.6460608 21.8776222,17.2841995 21.5963728,16.9823051 C20.6907811,16.0091934 18.9962356,14.5452687 18.9962356,9.74997675 C18.9962356,6.10778878 16.4425155,3.19216158 12.999088,2.47686177 L12.999088,1.5 C12.999088,0.671720811 12.327825,0 11.5,0 C10.6721893,0 10.0009262,0.671720811 10.0009262,1.5 L10.0009262,2.47686177 C6.55749876,3.19216158 4.00377866,6.10778878 4.00377866,9.74997675 C4.00377866,14.5452687 2.30923314,16.0091934 1.40364142,16.9823051 C1.12239209,17.2846573 0.997697567,17.6460608 1,17.9999571 C1.00520487,18.7687236 1.60849018,19.4999535 2.50469776,19.4999535 L20.4953165,19.4999535 Z M11.5000071,23.9999499 C13.1556428,23.9999499 14.4985809,22.6569589 14.4985809,20.9999499 L8.50143334,20.9999499 C8.50143334,22.6569589 9.84437142,23.9999499 11.5000071,23.9999499 Z" id="bell"></path>
        </g>
    </g>
</svg>