<?xml version="1.0" encoding="UTF-8"?>
<svg width="115px" height="40px" viewBox="0 0 115 40" version="1.1" xmlns="http://www.w3.org/2000/svg" xmlns:xlink="http://www.w3.org/1999/xlink">
    <title></title>
    <g id="Application-launcher" stroke="none" stroke-width="1" fill="none" fill-rule="evenodd">
        <g id="Application-launcher-/-2.-Menu-Item-/-2.-With-icons-/-1.-Basic-/-3.-Disabled">
            <rect fill="#FFFFFF" x="0" y="0" width="115" height="40"></rect>
            <text id="✏️-Label" font-family="RedHatText-Regular, Red Hat Text" font-size="16" font-weight="normal" line-spacing="24" fill="#6A6E73">
                <tspan x="48" y="24">Option</tspan>
            </text>
            <g id="gitlab" transform="translate(16.000000, 8.000000)" fill="#151515">
                <path d="M9.0544942,10.6710833 L12.0013561,19.8585614 L14.9482179,10.6710833 L19.0700953,10.6710833 L17.3044745,5.20860241 C17.2075815,4.93046586 16.8138446,4.93046586 16.7138387,5.20860241 L14.9451052,10.6710833 L9.05760698,10.6710833 C9.05609776,10.6710833 8.64026158,9.38697391 8.21222482,8.06395214 L8.05192454,7.56842698 C7.65367109,6.33721416 7.28887341,5.20860241 7.28887341,5.20860241 C7.19198033,4.93046586 6.79824347,4.93046586 6.69823761,5.20860241 L4.93261682,10.6710833 L9.0544942,10.6710833 Z M11.9982433,19.8585614 L4.92950403,10.6710833 L4.02951228,13.4210767 C3.94824417,13.6710833 4.03888116,13.9491822 4.25137455,14.1085751 L11.9982433,19.8585614 Z M12.0013561,19.8585614 L19.7482248,14.1085751 C19.963831,13.9491822 20.0513247,13.6710833 19.9731999,13.4210767 L19.0732081,10.6710833 L12.0013561,19.8585614 Z"></path>
            </g>
        </g>
    </g>
</svg>