<?xml version="1.0" encoding="UTF-8"?>
<svg width="106px" height="56px" viewBox="0 0 106 56" version="1.1" xmlns="http://www.w3.org/2000/svg" xmlns:xlink="http://www.w3.org/1999/xlink">
    <title></title>
    <g id="Data-List-and-Table" stroke="none" stroke-width="1" fill="none" fill-rule="evenodd">
        <g id="Data-list-and-tables-/-1.-Table-header-/-Large-(16px-spacers)-/-5.-Sort-down">
            <text id="âœï¸-Category" font-family="RedHatText-Medium, Red Hat Text" font-size="14" font-weight="400" line-spacing="18.2000008" fill="#0066CC">
                <tspan x="0" y="33">Category</tspan>
            </text>
            <g id="Icons-/-Framework-/-long-arrow-alt-up" transform="translate(91.000000, 21.000000)">
                <g id="ðŸ–¼-Icon" fill="#151515">
                    <path d="M3.97116247,13.7803016 L6.66051763,11.090977 C7.13298965,10.618505 6.7983652,9.81064555 6.13015391,9.81064555 L4.6908568,9.81064555 L4.6908568,0.374999106 C4.6908568,0.167907315 4.52294949,0 4.31585769,0 L2.56586187,0 C2.35877007,0 2.19086276,0.167907315 2.19086276,0.374999106 L2.19086276,9.81064555 L0.751535137,9.81064555 C0.0833238396,9.81064555 -0.251300607,10.6184744 0.221171411,11.090977 L2.91052657,13.7803016 C3.20343359,14.0732086 3.67828597,14.0732086 3.97116247,13.7803016 Z" id="long-arrow-alt-down"></path>
                </g>
                <rect id="ðŸŽ¨-Color" fill="#0066CC" x="-9" y="-5" width="24" height="24"></rect>
            </g>
            <g id="ðŸ“-Padding" transform="translate(66.000000, 0.000000)" fill="#3F9C35" fill-opacity="0.9" stroke="#418A38">
                <g id="Spacer-/-Horizontal-/-3.-pf-global--spacer--md-(16px)">
                    <rect id="Rectangle-Copy-2" x="0.5" y="0.5" width="15" height="55"></rect>
                </g>
            </g>
        </g>
    </g>
</svg>