<?xml version="1.0" encoding="UTF-8"?>
<svg width="41px" height="55px" viewBox="0 0 41 55" version="1.1" xmlns="http://www.w3.org/2000/svg" xmlns:xlink="http://www.w3.org/1999/xlink">
    <title></title>
    <g id="Icons" stroke="none" stroke-width="1" fill="none" fill-rule="evenodd">
        <g id="Icons-/-4.-Size-xl-/-Object-/-clipboard-check" fill="#151515">
            <path d="M35.4374155,54.9998713 C38.2323307,54.9998713 40.4999034,52.7322985 40.4999034,49.9373833 L40.4999034,12.8124718 C40.4999034,10.0175566 38.2323307,7.74998391 35.4374155,7.74998391 L26.9999356,7.74998391 C26.9999356,4.02696651 23.9729691,1 20.2499517,1 C16.5269343,1 13.4999678,4.02696651 13.4999678,7.74998391 L5.06248793,7.74998391 C2.26757272,7.74998391 3.55271368e-15,10.0175566 3.55271368e-15,12.8124718 L3.55271368e-15,49.9373833 C3.55271368e-15,52.7322985 2.26757272,54.9998713 5.06248793,54.9998713 L35.4374155,54.9998713 Z M20.2499517,10.2812279 C18.8472413,10.2812279 17.7187078,9.15269434 17.7187078,7.74998391 C17.7187078,6.34727348 18.8472413,5.21873994 20.2499517,5.21873994 C21.6526622,5.21873994 22.7811957,6.34727348 22.7811957,7.74998391 C22.7811957,9.15269434 21.6526622,10.2812279 20.2499517,10.2812279 Z M16.1577946,44.6112241 L7.4460348,35.8257188 C6.95041525,35.3299963 6.9609209,34.5284769 7.45664345,34.0327543 L10.451887,31.0585221 C10.9476095,30.5627995 11.7492319,30.5734082 12.2448515,31.0690277 L17.0964024,35.9628073 L28.2760633,24.8675006 C28.7717858,24.3717781 29.5734082,24.3823867 30.0690277,24.8781093 L33.04326,27.8733528 C33.5389825,28.379581 33.5284769,29.1705948 33.0327543,29.6663173 L17.9507591,44.6217298 C17.4550365,45.1174523 16.6535171,45.1069467 16.1577946,44.6112241 Z" id="clipboard-check"></path>
        </g>
    </g>
</svg>