<?xml version="1.0" encoding="UTF-8"?>
<svg width="57px" height="56px" viewBox="0 0 57 56" version="1.1" xmlns="http://www.w3.org/2000/svg" xmlns:xlink="http://www.w3.org/1999/xlink">
    <title></title>
    <g id="Icons" stroke="none" stroke-width="1" fill="none" fill-rule="evenodd">
        <g id="Icons-/-4.-Size-xl-/-Object-/-data-processor" fill="#050606" fill-rule="nonzero">
            <g id="processor" transform="translate(0.000000, 5.000000)">
                <path d="M48.9035361,0 L56.9939716,8.84615385 L48.9035361,17.6923077 L46.3087564,15.2924567 L50.5862101,10.6153846 L9.99919197,10.6153846 C8.21499221,10.6611082 6.54223188,11.4199423 5.28717457,12.7624567 C4.0291114,14.1081779 3.33631665,15.8847067 3.33631665,17.7647909 L3.33631665,17.8012812 C3.33631665,19.676113 4.02449128,21.4330697 5.27420484,22.7484375 C6.52503169,24.0649111 8.19356155,24.7692308 9.97241756,24.7692308 L17.9724769,24.7692308 L28.4999791,16.7426012 L39.027459,24.7692308 L47.0394139,24.7692308 C49.673548,24.7692308 52.1494687,25.8204281 54.020399,27.7588258 L54.0769082,27.8178365 C55.9619156,29.8019183 57.0000028,32.4504567 57.0000028,35.2756418 L57.0000028,35.3121322 C57.0000028,38.1317885 55.9640308,40.7928221 54.0829199,42.8049351 C52.2136655,44.804387 49.7214191,45.9389063 47.0652976,46 L47.0458709,46 L1.71156656,46 C0.793555062,45.9981202 -0.00171720401,45.1596154 2.78477825e-06,44.1838846 C0.00178963107,43.2093702 0.795113656,42.4615385 1.71156656,42.4615385 L47.0126395,42.4615385 C48.7967835,42.4158149 50.4695995,41.6569808 51.7246012,40.3144663 C52.9826644,38.9687452 53.6755148,37.1922163 53.6755148,35.3121322 L53.6755148,35.2756418 C53.6755148,33.4008101 52.9872845,31.6438534 51.7375709,30.3284856 C50.4867441,29.012012 48.8182699,28.3076923 47.0394139,28.3076923 L39.1225889,28.3076923 L28.4999791,36.2949233 L17.8774027,28.3076923 L9.97241756,28.3076923 C7.33822833,28.3076923 4.86236159,27.256495 2.99143239,25.3180972 L2.93492319,25.2590865 C1.04991584,23.2750048 0.0117813278,20.6264663 0.0117813278,17.8012812 L0.0117813278,17.7647909 C0.0117813278,14.9451346 1.04774494,12.284101 2.92885581,10.271988 C4.79811023,8.27253606 7.29035669,7.13801683 9.94647812,7.07736538 L9.96596053,7.07692308 L50.5862101,7.07692308 L46.3087564,2.39985096 L48.9035361,0 Z M28.4999791,21.3317647 L21.6496273,26.5548656 L28.4999791,31.7057599 L35.3503866,26.5548656 L28.4999791,21.3317647 Z" id="Combined-Shape"></path>
            </g>
        </g>
    </g>
</svg>