<?xml version="1.0" encoding="UTF-8"?>
<svg width="62px" height="55px" viewBox="0 0 62 55" version="1.1" xmlns="http://www.w3.org/2000/svg" xmlns:xlink="http://www.w3.org/1999/xlink">
    <title></title>
    <g id="Icons" stroke="none" stroke-width="1" fill="none" fill-rule="evenodd">
        <g id="Icons-/-4.-Size-xl-/-Object-/-desktop" fill="#151515">
            <path d="M45.7186434,54.9998713 C47.1213538,54.9998713 48.2498873,53.8713377 48.2498873,52.4686273 C48.2498873,51.0659169 47.1213538,49.9373833 45.7186434,49.9373833 L38.1249115,49.9373833 L36.4374155,44.8748954 L56.6873672,44.8748954 C59.4822824,44.8748954 61.7498552,42.6073227 61.7498552,39.8124075 L61.7498552,6.06248793 C61.7498552,3.26757272 59.4822824,1 56.6873672,1 L6.06248793,1 C3.26757272,1 1,3.26757272 1,6.06248793 L1,39.8124075 C1,42.6073227 3.26757272,44.8748954 6.06248793,44.8748954 L26.3124397,44.8748954 L24.6249437,49.9373833 L17.0312118,49.9373833 C15.6285013,49.9373833 14.4999678,51.0659169 14.4999678,52.4686273 C14.4999678,53.8713377 15.6285013,54.9998713 17.0312118,54.9998713 L45.7186434,54.9998713 Z M54.9998713,38.1249115 L7.74998391,38.1249115 L7.74998391,7.74998391 L54.9998713,7.74998391 L54.9998713,38.1249115 Z" id="desktop"></path>
        </g>
    </g>
</svg>