<?xml version="1.0" encoding="UTF-8"?>
<svg width="55px" height="55px" viewBox="0 0 55 55" version="1.1" xmlns="http://www.w3.org/2000/svg" xmlns:xlink="http://www.w3.org/1999/xlink">
    <title></title>
    <g id="Icons" stroke="none" stroke-width="1" fill="none" fill-rule="evenodd">
        <g id="Icons-/-4.-Size-xl-/-Object-/-flag" fill="#151515">
            <path d="M7.74998391,54.999848 C9.1479565,54.999848 10.2812279,53.8665766 10.2812279,52.468604 L10.2812279,42.5123365 C13.2670987,41.2400198 16.9871292,40.179155 22.3504702,40.179155 C28.0024075,40.179155 32.6700066,43.8476872 39.7757407,43.8476872 C44.856047,43.8476872 48.9163782,42.1291893 52.6961467,39.5385163 C53.6118893,38.9108551 54.1561233,37.8687357 54.1561233,36.7585356 L54.1561233,11.1191848 C54.1561233,8.65190167 51.5965552,7.01961186 49.3588515,8.05884736 C45.7372858,9.74088452 41.2953522,11.4184928 37.024393,11.4184928 C31.3725587,11.4184928 26.7048566,7.74996061 19.5991225,7.74996061 C16.9671479,7.74996061 14.6095562,8.21231226 12.4225268,9.01692155 C12.6378926,8.45456022 12.8126778,7.5092576 12.8126778,6.9069336 C12.8126778,6.80331904 12.807322,6.63533162 12.8007302,6.53192305 C12.6138944,3.53276562 10.1552631,1.12717748 7.15280973,1.00502354 C3.77853876,0.867729096 1,3.56242863 1,6.90621262 C1,8.912895 2.00164175,10.6846422 3.53124397,11.7519957 L3.53124397,52.468604 C3.53124397,53.8665766 4.66451534,54.999848 6.06248793,54.999848 L7.74998391,54.999848 Z" id="flag"></path>
        </g>
    </g>
</svg>