<?xml version="1.0" encoding="UTF-8"?>
<svg width="55px" height="55px" viewBox="0 0 55 55" version="1.1" xmlns="http://www.w3.org/2000/svg" xmlns:xlink="http://www.w3.org/1999/xlink">
    <title></title>
    <g id="Icons" stroke="none" stroke-width="1" fill="none" fill-rule="evenodd">
        <g id="Icons-/-4.-Size-xl-/-Object-/-key" fill="#151515">
            <path d="M15.3437158,54.9998713 C16.7416884,54.9998713 17.8749598,53.8665999 17.8749598,52.4686273 L17.8749598,48.2498873 L22.0936997,48.2498873 C23.4916723,48.2498873 24.6249437,47.116616 24.6249437,45.7186434 L24.6249437,41.4999034 L28.5508643,41.4999034 C29.1783195,41.4999034 30.0258784,41.1193311 30.4427055,40.6503876 L32.9751855,37.8011932 C34.0970242,38.0129542 35.2540878,38.1249115 36.4374155,38.1249115 C46.6891802,38.1249115 54.9998713,29.8143234 54.9998713,19.5625587 C54.9998713,9.2804101 46.7193582,1 36.4373125,1 C26.1855479,1 17.8749598,9.31069109 17.8749598,19.5624557 C17.8749598,21.5949903 18.2027979,23.5506893 18.8063578,25.3809386 L1.74136939,42.445927 C1.26676114,42.9206383 1,43.5645729 1,44.2359046 L1,52.4686273 C1,53.8665999 2.13327138,54.9998713 3.53124397,54.9998713 L15.3437158,54.9998713 Z M41.4999034,19.5624557 C38.7039583,19.5624557 36.4374155,17.295913 36.4374155,14.4999678 C36.4374155,11.7040226 38.7039583,9.43747988 41.4999034,9.43747988 C44.2958486,9.43747988 46.5623914,11.7040226 46.5623914,14.4999678 C46.5623914,17.295913 44.2958486,19.5624557 41.4999034,19.5624557 Z" id="key"></path>
        </g>
    </g>
</svg>