<?xml version="1.0" encoding="UTF-8"?>
<svg width="68px" height="41px" viewBox="0 0 68 41" version="1.1" xmlns="http://www.w3.org/2000/svg" xmlns:xlink="http://www.w3.org/1999/xlink">
    <title></title>
    <g id="Icons" stroke="none" stroke-width="1" fill="none" fill-rule="evenodd">
        <g id="Icons-/-4.-Size-xl-/-Object-/-memory" fill="#151515">
            <path d="M67.4998391,26.9999356 L67.4998391,16.5648371 C65.5381662,15.8677562 64.1248471,14.0136118 64.1248471,11.8124718 C64.1248471,9.61133191 65.5381662,7.75718747 67.4998391,7.06010661 L67.4998391,3.37499195 C67.4998391,1.51137182 65.9884672,3.55271368e-15 64.1248471,3.55271368e-15 L3.37499195,3.55271368e-15 C1.51137182,3.55271368e-15 0,1.51137182 0,3.37499195 L0,7.06010661 C1.96167287,7.75718747 3.37499195,9.61133191 3.37499195,11.8124718 C3.37499195,14.0136118 1.96167287,15.8677562 0,16.5648371 L0,26.9999356 L67.4998391,26.9999356 Z M23.6249437,20.2499517 L16.8749598,20.2499517 L16.8749598,6.74998391 L23.6249437,6.74998391 L23.6249437,20.2499517 Z M37.1249115,20.2499517 L30.3749276,20.2499517 L30.3749276,6.74998391 L37.1249115,6.74998391 L37.1249115,20.2499517 Z M50.6248793,20.2499517 L43.8748954,20.2499517 L43.8748954,6.74998391 L50.6248793,6.74998391 L50.6248793,20.2499517 Z M6.74998391,40.4999034 L6.74998391,37.6870668 C6.74998391,36.7547418 7.50515484,35.9995708 8.43747988,35.9995708 C9.36980493,35.9995708 10.1249759,36.7547418 10.1249759,37.6870668 L10.1249759,40.4999034 L23.6249437,40.4999034 L23.6249437,37.6870668 C23.6249437,36.7547418 24.3801146,35.9995708 25.3124397,35.9995708 C26.2447647,35.9995708 26.9999356,36.7547418 26.9999356,37.6870668 L26.9999356,40.4999034 L40.4999034,40.4999034 L40.4999034,37.6870668 C40.4999034,36.7547418 41.2550744,35.9995708 42.1873994,35.9995708 C43.1197245,35.9995708 43.8748954,36.7547418 43.8748954,37.6870668 L43.8748954,40.4999034 L57.3748632,40.4999034 L57.3748632,37.6870668 C57.3748632,36.7547418 58.1300341,35.9995708 59.0623592,35.9995708 C59.9946842,35.9995708 60.7498552,36.7547418 60.7498552,37.6870668 L60.7498552,40.4999034 L67.4998391,40.4999034 L67.4998391,30.3749276 L0,30.3749276 L0,40.4999034 L6.74998391,40.4999034 Z" id="memory"></path>
        </g>
    </g>
</svg>