<?xml version="1.0" encoding="UTF-8"?>
<svg width="54px" height="48px" viewBox="0 0 54 48" version="1.1" xmlns="http://www.w3.org/2000/svg" xmlns:xlink="http://www.w3.org/1999/xlink">
    <title></title>
    <g id="Icons" stroke="none" stroke-width="1" fill="none" fill-rule="evenodd">
        <g id="Icons-/-4.-Size-xl-/-Object-/-pficon-regions" fill="#151515">
            <path d="M27,40.5 C12.8578125,40.509375 8.2359375,37.78125 6.73125,36 C6.0046875,35.1375 6,36 6,36 L6,42 C6,45.3140625 15.3984375,48 27,48 C38.6015625,48 48,45.3140625 48,42 L48,36 C48,36 48,35.1375 47.26875,36 C45.759375,37.7765625 41.1421875,40.490625 27,40.5 L27,40.5 Z M27,30 C12.8578125,30 8.2359375,27.2765625 6.73125,25.5 C6,24.6375 6,25.5 6,25.5 L6,30 C6,33.3140625 15.3984375,36 27,36 C38.6015625,36 48,33.3140625 48,30 L48,25.5 C48,25.5 48,24.6375 47.26875,25.5 C45.7640625,27.2765625 41.1421875,30 27,30 L27,30 Z M27,19.5 C12.8578125,19.5 8.2359375,16.7765625 6.73125,15 C6,14.1375 6,15 6,15 L6,19.5 C6,22.8140625 15.3984375,25.5 27,25.5 C38.6015625,25.5 48,22.8140625 48,19.5 L48,15 C48,15 48,14.1375 47.26875,15 C45.7640625,16.7765625 41.1421875,19.5 27,19.5 L27,19.5 Z M48,9 C48,12.3140625 38.6015625,15 27,15 C15.3984375,15 6,12.3140625 6,9 L6,6 C6,2.6859375 15.3984375,0 27,0 C38.6015625,0 48,2.6859375 48,6 L48,9 Z M51,6.75 L51,41.25 C51,41.6625 51.3375,42 51.75,42 L53.25,42 C53.6625,42 54,41.6625 54,41.25 L54,6.75 C54,6.3375 53.6625,6 53.25,6 L51.75,6 C51.3375,6 51,6.3375 51,6.75 L51,6.75 Z M0,6.75 L0,41.25 C0,41.6625 0.3375,42 0.75,42 L2.25,42 C2.6625,42 3,41.6625 3,41.25 L3,6.75 C3,6.3375 2.6625,6 2.25,6 L0.75,6 C0.3375,6 0,6.3375 0,6.75 L0,6.75 Z" id="pficon-regions"></path>
        </g>
    </g>
</svg>