<?xml version="1.0" encoding="UTF-8"?>
<svg width="54px" height="56px" viewBox="0 0 54 56" version="1.1" xmlns="http://www.w3.org/2000/svg" xmlns:xlink="http://www.w3.org/1999/xlink">
    <title></title>
    <g id="Icons" stroke="none" stroke-width="1" fill="none" fill-rule="evenodd">
        <g id="Icons-/-4.-Size-xl-/-Object-/-pficon-builder-image" fill="#151515">
            <path d="M47.6560547,13.5317917 L26.9736328,20.9546823 L6.32285156,13.547612 L27.0105469,6.00976042 L47.6560547,13.5317917 Z M6.68671875,38.9497604 L15.0345703,35.957612 L23.4984375,39.671694 L23.4984375,48.1619284 L6.68671875,38.9497604 Z M5.0625,18.3680612 L11.8757812,20.8128268 L5.0625,23.2570651 L5.0625,18.3680612 Z M10.5416016,33.9774362 L5.0625,35.9486471 L5.0625,31.5811862 L10.5416016,33.9774362 Z M23.4931641,24.9798971 L23.4931641,33.6620846 L5.90097656,26.5339792 L16.8697266,22.5984128 L23.4931641,24.9798971 Z M38.9337891,35.9486471 L47.3027344,38.946069 L30.2484375,48.3027292 L30.2484375,39.7681979 L38.9337891,35.9486471 Z M42.0820312,20.80228 L48.9375,18.3496042 L48.9375,23.2649753 L42.0820312,20.80228 Z M48.9375,31.554819 L48.9375,35.9539206 L43.4214844,33.9779635 L48.9375,31.554819 Z M37.0828125,22.5931393 L48.0568359,26.5287057 L30.2484375,33.7570065 L30.2484375,25.0468698 L37.0828125,22.5931393 Z M54,13.6372604 C53.9679929,11.760782 52.7834902,10.0978662 51.0205078,9.4543698 C43.5322266,6.72554165 36.0439453,3.99829558 28.5556641,1.27263152 C27.5504073,0.909122828 26.4495927,0.909122828 25.4443359,1.27263152 L2.97949219,9.45964323 C1.22055213,10.105426 0.0377229148,11.7638991 0,13.6372604 L0,37.626655 L0.0052734375,37.626655 C0.06328125,39.2614206 0.996679687,41.3512839 2.35195313,42.1306979 L24.8167969,54.4431198 C26.1775614,55.185653 27.8224386,55.185653 29.1832031,54.4431198 C33.7289063,51.9508932 44.3865234,46.1110885 51.6480469,42.1306979 C53.0560547,41.3618307 53.9419922,39.265112 54,37.626655 L54,13.6372604 Z" id="pficon-builder-image"></path>
        </g>
    </g>
</svg>