<?xml version="1.0" encoding="UTF-8"?>
<svg width="54px" height="49px" viewBox="0 0 54 49" version="1.1" xmlns="http://www.w3.org/2000/svg" xmlns:xlink="http://www.w3.org/1999/xlink">
    <title></title>
    <g id="Icons" stroke="none" stroke-width="1" fill="none" fill-rule="evenodd">
        <g id="Icons-/-4.-Size-xl-/-Object-/-pficon-registry" fill="#151515">
            <path d="M23.6572911,27.3609468 C23.4369408,27.0421421 23.1462659,26.8171035 22.7805781,26.6811426 L12.6585281,21.1208131 C12.4475544,21.0411119 12.2365806,21.0036055 12.0209186,21.0036055 L11.9881005,21.0036055 L11.9552824,21.0036055 C11.7489969,21.0036055 11.5333349,21.0411119 11.3270495,21.1208131 L1.20499946,26.6858309 C0.843999988,26.8217918 0.548636785,27.0468304 0.328286458,27.3656351 C0.107936132,27.6797515 3.45130635e-05,28.0360627 3.45130635e-05,28.4205037 L3.45130635e-05,40.4413172 C-0.00458318319,41.2477056 0.454870687,41.5383805 0.956519303,41.8196788 L11.0832577,47.7785142 C11.350491,47.9332283 11.6458542,48.0082412 11.9599707,48.0082412 L11.9927888,48.0082412 L12.0256069,48.0082412 C12.3397234,48.0082412 12.6350866,47.9332283 12.9023199,47.7785142 L23.0290583,41.8196788 C23.5072654,41.5618221 23.9901608,41.2477056 23.9901608,40.5725897 L23.9901608,28.4158154 C23.9901608,28.0313744 23.8776415,27.6797515 23.6572911,27.3609468 Z M22.2601763,39.0066959 L11.9927888,45.0077261 L1.66914163,39.0066959 L1.66914163,36.0061809 L11.9881005,42.007211 L22.2601763,36.0061809 L22.2601763,39.0066959 Z M22.2601763,33.0056658 L11.9927888,39.0066959 L1.66914163,33.0056658 L1.66914163,30.0051507 L11.9881005,36.0061809 L22.2601763,30.0051507 L22.2601763,33.0056658 Z M53.6624421,27.3609468 C53.4420917,27.0421421 53.1514168,26.8171035 52.7857291,26.6811426 L42.6636788,21.1208131 C42.4527051,21.0411119 42.2417314,21.0036055 42.0260694,21.0036055 L41.9932512,21.0036055 L41.9604331,21.0036055 C41.7541477,21.0036055 41.5384857,21.0411119 41.3322002,21.1208131 L31.2101502,26.6858309 C30.8491507,26.8217918 30.5537875,27.0468304 30.3334372,27.3656351 C30.1130869,27.6797515 30.0052558,28.0360627 30.0052558,28.4205037 L30.0052558,40.4413172 C30.0052558,41.2477056 30.4647097,41.5383805 30.9663583,41.8196788 L41.0930967,47.7785142 C41.3603301,47.9332283 41.6556933,48.0082412 41.9698097,48.0082412 L42.0026278,48.0082412 L42.035446,48.0082412 C42.3495624,48.0082412 42.6449256,47.9332283 42.912159,47.7785142 L53.0388975,41.8196788 C53.5171046,41.5618221 54,41.2477056 54,40.5725897 L54,28.4158154 C53.9953117,28.0313744 53.8827924,27.6797515 53.6624421,27.3609468 Z M52.2653272,39.0066959 L41.9932512,45.0077261 L31.6742924,39.0066959 L31.6742924,36.0061809 L41.9932512,42.007211 L52.2653272,36.0061809 L52.2653272,39.0066959 Z M52.2653272,33.0056658 L41.9932512,39.0066959 L31.6742924,33.0056658 L31.6742924,30.0051507 L41.9932512,36.0061809 L52.2653272,30.0051507 L52.2653272,33.0056658 Z M38.6598665,4.48201939 C38.4395162,4.16321466 38.1488413,3.93817603 37.7831535,3.80221519 L27.6611034,0.11720762 C27.4501297,0.0375064384 27.239156,0 27.023494,0 L26.9906759,0 L26.9578577,0 C26.7515723,0 26.5359103,0.0375064384 26.3296249,0.11720762 L16.2075748,3.8069035 C15.8465753,3.94286434 15.5512121,4.16790297 15.3308618,4.48670769 C15.1151998,4.80082412 15.0026805,5.15713528 15.0026805,5.54157627 L15.0026805,16.8591441 C15.0026805,17.6655325 15.4621344,17.9562074 15.963783,18.2375057 L26.0905213,23.7743936 C26.3577547,23.9291077 26.6531179,24.0041206 26.9672343,24.0041206 L27.0000525,24.0041206 L27.0328706,24.0041206 C27.346987,24.0041206 27.6423502,23.9291077 27.9095836,23.7743936 L38.036322,18.2375057 C38.5145291,17.9796489 38.9974245,17.6655325 38.9974245,16.9904166 L38.9974245,5.53688797 C38.9927361,5.15244698 38.8802168,4.80082412 38.6598665,4.48201939 Z M37.2627517,15.5792369 L26.9953642,21.0036055 L16.671717,15.5792369 L16.671717,12.7521891 L26.9906759,18.0030904 L37.2627517,12.7521891 L37.2627517,15.5792369 Z M37.2627517,9.75167399 L26.9953642,15.0025754 L16.671717,9.75167399 L16.671717,6.75115891 L26.9906759,12.0020603 L37.2627517,6.75115891 L37.2627517,9.75167399 Z" id="pficon-registry"></path>
        </g>
    </g>
</svg>