<?xml version="1.0" encoding="UTF-8"?>
<svg width="48px" height="54px" viewBox="0 0 48 54" version="1.1" xmlns="http://www.w3.org/2000/svg" xmlns:xlink="http://www.w3.org/1999/xlink">
    <title></title>
    <g id="Icons" stroke="none" stroke-width="1" fill="none" fill-rule="evenodd">
        <g id="Icons-/-4.-Size-xl-/-Object-/-pficon-services" fill="#151515">
            <path d="M11.7439453,17.7451172 C9.41308594,17.7451172 7.52519531,19.6382812 7.52519531,21.9638672 C7.52519531,24.2894531 9.41835937,26.1826172 11.7439453,26.1826172 C14.0695312,26.1826172 15.9626953,24.2894531 15.9626953,21.9638672 C15.9626953,19.6382812 14.0748047,17.7451172 11.7439453,17.7451172 Z M11.7439453,23.6513672 C10.8158203,23.6513672 10.0564453,22.8919922 10.0564453,21.9638672 C10.0564453,21.0357422 10.8158203,20.2763672 11.7439453,20.2763672 C12.6720703,20.2763672 13.4314453,21.0357422 13.4314453,21.9638672 C13.4314453,22.8919922 12.6720703,23.6513672 11.7439453,23.6513672 Z M10.125,1.6875 C6.39667969,1.6875 3.375,4.71445313 3.375,8.44277344 C3.375,12.1710938 6.39667969,15.1875 10.125,15.1875 C13.8533203,15.1875 16.875,12.1658203 16.875,8.44277344 C16.875,4.71972656 13.8533203,1.6875 10.125,1.6875 Z M10.125,10.9740234 C8.72753906,10.9740234 7.59375,9.84023438 7.59375,8.44277344 C7.59375,7.0453125 8.72753906,5.90625 10.125,5.90625 C11.5224609,5.90625 12.65625,7.04003906 12.65625,8.4375 C12.65625,9.83496094 11.5224609,10.9740234 10.125,10.9740234 Z M46.6646484,12.3398438 L41.6021484,11.9232422 C41.3912109,11.2587891 41.4914062,11.4539062 41.1855469,10.8 C41.85,9.87714844 43.621875,8.0578125 44.3074219,7.13496094 C44.4023437,6.99785156 44.4708984,6.85019531 44.4708984,6.68671875 C44.4708984,6.02226563 41.6654297,3.459375 41.0537109,2.88984375 C40.9166016,2.76855469 40.7478516,2.7 40.5580078,2.7 C40.3945312,2.7 40.2257812,2.74746094 40.0886719,2.86347656 L36.5660156,5.93789062 C35.9964844,5.653125 35.9121094,5.653125 35.2898437,5.46855469 L34.9681641,0.606445312 C34.9365234,0.258398438 34.6042969,0 34.2720703,0 L29.8634766,0 C29.53125,0 29.2464844,0.237304688 29.1568359,0.56953125 C28.8509766,1.7296875 29.0039062,4.29785156 28.8826172,5.48964844 C28.2445312,5.70058594 28.3025391,5.74804688 27.6960937,6.05917969 L24.0416016,2.85292969 C23.9044922,2.75800781 23.7357422,2.68945312 23.5458984,2.68945312 C22.8550781,2.68945312 20.1972656,5.56347656 19.7279297,6.2015625 C19.6066406,6.33867188 19.5644531,6.50742188 19.5644531,6.67089844 C19.5644531,6.834375 19.6382812,7.003125 19.7279297,7.14023438 C20.4820312,8.04199219 22.1273437,9.5765625 22.7917969,10.5257812 C22.4859375,11.1164063 22.5333984,11.390625 22.3435547,12.0181641 L17.4234375,12.2554688 C17.1175781,12.3029297 16.8802734,12.6615234 16.8802734,12.9621094 L16.875,17.3548828 C16.875,17.6871094 17.1123047,17.9929687 17.4445312,18.0457031 L22.4121094,18.3673828 C22.6230469,19.0318359 22.5755859,18.815625 22.9078125,19.4695312 C22.2169922,20.3923828 20.4820312,22.3699219 19.7964844,23.2664062 C19.7015625,23.4035156 19.6330078,23.5511719 19.6330078,23.7146484 C19.6330078,24.4054688 22.4384766,26.9419922 23.0501953,27.5115234 C23.1873047,27.6328125 23.3560547,27.7013672 23.5458984,27.7013672 C23.709375,27.7013672 23.9044922,27.6539062 24.0152344,27.5378906 L27.5115234,24.2736328 C28.0810547,24.5583984 28.1285156,24.5320312 28.7560547,24.721875 L29.1462891,29.784375 C29.19375,30.1166016 29.5259766,30.375 29.8529297,30.375 L34.2615234,30.375 C34.59375,30.375 34.8785156,30.1376953 34.9681641,29.8054688 C35.2740234,28.6453125 35.0525391,25.9400391 35.1685547,24.7166016 C35.8066406,24.5267578 35.7486328,24.4951172 36.3550781,24.1839844 L40.0833984,27.5167969 C40.2205078,27.6117188 40.3892578,27.6802734 40.5791016,27.6802734 C41.2699219,27.6802734 43.9277344,24.7798828 44.3970703,24.1470703 C44.5183594,24.0257813 44.5605469,23.8623047 44.5605469,23.6988281 C44.5605469,23.5089844 44.4867187,23.3666016 44.3970703,23.2294922 C43.6429687,22.3277344 41.6548828,20.6507813 40.9904297,19.7068359 C41.2962891,19.1162109 41.2382812,19.1267578 41.428125,18.4992188 L46.7015625,18.1089844 C47.0074219,18.0615234 47.2447266,17.7029297 47.2447266,17.4023438 L47.2447266,13.0148438 C47.2341797,12.7195312 46.996875,12.4083984 46.6646484,12.3398438 Z M31.9728516,21.1623047 C28.7085937,21.1623047 26.0349609,18.5044922 26.0349609,15.2244141 C26.0349609,11.9443359 28.6980469,9.28652344 31.9728516,9.28652344 C35.2476562,9.28652344 37.9107422,11.9443359 37.9107422,15.2244141 C37.9107422,18.5044922 35.2529297,21.1623047 31.9728516,21.1623047 Z M45.5466797,33.75 C42.8835937,31.0869141 40.4841797,33.75 40.4841797,33.75 L30.3591797,43.875 L20.1287109,43.875 C20.1287109,43.875 18.4412109,43.875 18.4412109,42.1875 C18.4412109,40.5 20.2341797,40.5 20.2341797,40.5 L28.6716797,40.5 C28.6716797,40.5 30.3591797,40.5 30.3591797,38.8125 C30.3591797,37.125 28.6716797,37.125 28.6716797,37.125 L10.1619141,37.0986328 C9.09140625,37.0722656 7.05058594,37.2832031 5.09941406,39.4453125 L0,44.8242188 L10.1091797,54 L13.4841797,50.625 L33.0328125,50.625 C33.4810547,50.625 33.9134766,50.4457031 34.2298828,50.1292969 L37.1091797,47.25 L45.5466797,38.8125 C45.5466797,38.8125 48.2097656,36.4130859 45.5466797,33.75 L45.5466797,33.75 Z" id="pficon-services"></path>
        </g>
    </g>
</svg>