<?xml version="1.0" encoding="UTF-8"?>
<svg width="54px" height="52px" viewBox="0 0 54 52" version="1.1" xmlns="http://www.w3.org/2000/svg" xmlns:xlink="http://www.w3.org/1999/xlink">
    <title></title>
    <g id="Icons" stroke="none" stroke-width="1" fill="none" fill-rule="evenodd">
        <g id="Icons-/-4.-Size-xl-/-Object-/-pficon-bundle" fill="#151515">
            <path d="M16.5666073,10.8902424 L16.7464362,25.7511713 L34.3232551,29.6372673 C34.8973789,29.7639303 35.4982412,29.6637865 36.0002514,29.3577679 L43.8246517,24.5646174 L44.0619625,10.3417908 C44.0813306,9.19801872 43.2480102,8.21790734 42.116014,8.05306014 L26.6169828,5.81706517 L18.1107095,8.71225677 C17.1790307,9.02804814 16.5555743,9.90654525 16.5648157,10.8902424 L16.5666073,10.8902424 Z M52.0050182,3.56524948 L38.0933325,1.86715895 L30.4297761,4.5197662 L45.3592615,6.58700683 C46.4990981,6.74575198 47.3410977,7.73034827 47.3210306,8.88101111 L47.0800283,22.5706794 L53.6772684,18.5311224 L53.9989564,5.87982069 C54.034273,4.70834247 53.1692794,3.70376047 52.0055456,3.56472212 L52.0050182,3.56524948 Z M16.7353616,30.0544069 L16.941031,46.555417 L33.6846254,51.5811323 C34.4464649,51.8088462 35.2719087,51.6229718 35.8626111,51.0906898 L43.4460091,44.2244977 L43.7044142,28.7834758 L35.9311676,33.8672002 C35.4099649,34.2090307 34.7711462,34.3215391 34.1645206,34.178341 L16.7353616,30.0544069 Z M14.3569802,8.11634302 C17.2258039,7.17237344 20.0946277,6.23016171 22.9634514,5.28970786 L10.5125454,3.49141945 L1.64239559,6.07019668 C0.642539123,6.36021888 -0.0332010802,7.2915331 0.00125966022,8.33203216 L0.481154808,22.1593407 L12.9795229,24.922693 L12.7896743,10.3043485 C12.7795443,9.31162514 13.4130098,8.42647985 14.3559255,8.11581566 L14.3569802,8.11634302 Z M26.834254,4.01877676 C29.4868613,3.14863721 32.1377107,2.27849765 34.7868022,1.4083581 L23.1111115,0.0161348138 C22.8086119,-0.0201702297 22.5018967,0.00494095889 22.2093305,0.0899648365 L14.5563213,2.31541266 L26.834254,4.01877676 Z M0.56711405,26.2310664 L1.05228277,40.1796672 C1.08427633,41.154712 1.73630706,42.0000157 2.6712697,42.2785492 L13.3433995,45.4796081 L13.0639001,29.1895409 L0.56711405,26.2310664 Z M46.9587362,26.6582259 L53.5981648,22.3180752 L53.2712033,34.3787368 C53.2562195,35.0002496 52.9852491,35.5879885 52.5223557,36.0029973 L46.7003311,41.2765704 L46.9587362,26.6582259 Z" id="pficon-bundle"></path>
        </g>
    </g>
</svg>