<?xml version="1.0" encoding="UTF-8"?>
<svg width="51px" height="55px" viewBox="0 0 51 55" version="1.1" xmlns="http://www.w3.org/2000/svg" xmlns:xlink="http://www.w3.org/1999/xlink">
    <title></title>
    <g id="Icons" stroke="none" stroke-width="1" fill="none" fill-rule="evenodd">
        <g id="Icons-/-4.-Size-xl-/-Object-/-pficon-network-range" fill="#151515">
            <path d="M31.3084874,16.8750479 C31.3084874,18.7365767 29.5840684,20.2500575 27.4641405,20.2500575 L23.6092467,20.2500575 L23.6092467,13.5000383 L27.4641405,13.5000383 C29.5840684,13.5000383 31.3084874,15.0135192 31.3084874,16.8750479 Z M42.4987535,20.4082611 C42.4987535,24.7641328 41.1329293,28.798324 38.8073368,32.1153256 C38.7598757,32.178607 38.7176881,32.2418884 38.670227,32.294623 L23.7674503,52.096437 C23.7674503,52.096437 22.6705722,53.9790596 21.2836542,53.9790596 C21.2836542,53.9790596 20.0391194,54.2427322 18.7945846,52.1069839 L3.8285265,32.294623 C3.78633888,32.2418884 3.74942471,32.1891539 3.71251054,32.1364194 L3.69141673,32.1100521 C1.36582419,28.798324 0,24.7588594 0,20.4029876 C0,9.13361969 9.98264554,0 21.2520135,0 C32.4844673,0 42.4987535,9.13361969 42.4987535,20.4082611 Z M16.8592276,10.1250288 L13.484218,10.1250288 L13.484218,33.7500959 L16.8592276,33.7500959 L16.8592276,10.1250288 Z M35.4217803,16.8750479 C35.4217803,12.6246452 32.1997008,10.1250288 27.9492981,10.1250288 L20.2342372,10.1250288 L20.2342372,33.7500959 L23.6092467,33.7500959 L23.6092467,23.6250671 L27.9492981,23.635614 C32.1944274,23.635614 35.4217803,21.1254506 35.4217803,16.8750479 Z M50.4669402,21.6738897 C50.4511199,24.7272187 50.883543,27.9176574 48.2415433,31.957122 C48.1940822,32.0204034 48.1518946,32.0836849 48.1044335,32.1469663 L33.4125949,52.1069839 C33.4125949,52.1069839 32.342084,54 30.2063358,53.9896065 C30.2063358,53.9896065 28.3448071,54.205818 27.2321086,52.6659699 C27.4852343,52.3495627 27.6276175,52.1017105 27.6276175,52.1017105 L43.1632085,31.3823157 C43.2106696,31.3190343 43.2581307,31.2557528 43.3003183,31.1924714 C45.6259108,27.8754698 46.3589207,24.7588594 46.3589207,20.4029876 C46.3589207,16.5533673 45.325324,13.0043338 43.4005139,9.94573137 C42.5356677,8.75393111 41.2173046,7.28263787 41.2173046,7.28263787 C41.0538275,7.14025465 40.8745302,6.96623072 40.7057797,6.77638643 C40.6003106,6.65509703 40.4948416,6.52326071 40.4104663,6.38615095 C40.1889813,6.13829868 40.0518716,5.81134463 40.0518716,5.45274986 C40.0518716,4.6828258 40.6794124,4.05528496 41.4493365,4.05528496 C41.887033,4.05528496 42.2719951,4.25567615 42.5303942,4.56680985 C42.8995359,4.81993556 43.3372325,5.19962414 43.8593043,5.77443046 C44.439384,6.41779166 45.0141903,7.05587941 45.5731763,7.72560788 C48.4999424,11.2060865 50.4985809,15.8467247 50.4669402,21.6738897 L50.4669402,21.6738897 L50.4669402,21.6738897 Z" id="pficon-network-range"></path>
        </g>
    </g>
</svg>