<?xml version="1.0" encoding="UTF-8"?>
<svg width="48px" height="51px" viewBox="0 0 48 51" version="1.1" xmlns="http://www.w3.org/2000/svg" xmlns:xlink="http://www.w3.org/1999/xlink">
    <title></title>
    <g id="Icons" stroke="none" stroke-width="1" fill="none" fill-rule="evenodd">
        <g id="Icons-/-4.-Size-xl-/-Object-/-pficon-data-source" fill="#000000">
            <path d="M40.2120463,0 L47.9999893,8.57142474 L40.2120463,17.1428495 L37.7142796,14.8175291 L41.829,10.288 L9.58967786,10.2808347 C7.87592863,10.2808347 6.26787577,10.9949415 5.06010846,12.2917445 C3.85421614,13.5865118 3.19368072,15.3055646 3.20021643,17.1322424 C3.21382357,20.9107407 6.07941157,23.9999893 9.58812429,23.9999893 L38.41179,23.9999893 C40.9730924,23.9999893 43.3789306,25.039221 45.186162,26.9539165 C47.000679,28.87638 48,31.4426645 48,34.1801097 L48,34.2154669 C48,36.9475549 47.0027147,39.5259466 45.1919477,41.4755708 C43.3925913,43.412927 40.9935567,44.5122123 38.4367543,44.5709801 L38.4180043,44.5714087 L14.8022431,44.5718575 C14.0246933,47.8838221 11.0457305,50.3571271 7.5,50.3571271 C3.3644985,50.3571271 -5.68434189e-14,46.9926219 -5.68434189e-14,42.8571271 C-5.68434189e-14,38.7216256 3.3644985,35.3571271 7.5,35.3571271 C11.0457305,35.3571271 14.0246933,37.8304272 14.8022431,41.1423945 L38.3860221,41.1428388 C40.1034678,41.0985352 41.7137171,40.3632677 42.9218058,39.0624468 C44.132841,37.7585189 44.7997514,36.0371625 44.7997514,34.2154669 L44.7997514,34.1801097 C44.7997514,32.3635034 44.1372874,30.6611113 42.934288,29.386594 C41.7302707,28.1110053 40.1241464,27.4285592 38.41179,27.4285592 L9.58812429,27.4285592 C4.32157307,27.4285592 7.49999665e-05,22.8214184 7.49999665e-05,17.1453673 C7.49999665e-05,14.4107079 0.98214599,11.8196733 2.7931809,9.87519202 C4.60576937,7.92899646 7.01905401,6.8571398 9.58807072,6.8571398 L41.839,6.865 L37.7142796,2.32532039 L40.2120463,0 Z M7.49999665,38.785697 C5.2549798,38.785697 3.4285699,40.6121604 3.4285699,42.8571237 C3.4285699,45.102087 5.2549798,46.9285505 7.49999665,46.9285505 C9.74501351,46.9285505 11.5714234,45.102087 11.5714234,42.8571237 C11.5714234,40.6121604 9.74501351,38.785697 7.49999665,38.785697 Z" id="Combined-Shape"></path>
        </g>
    </g>
</svg>