<?xml version="1.0" encoding="UTF-8"?>
<svg width="54px" height="48px" viewBox="0 0 54 48" version="1.1" xmlns="http://www.w3.org/2000/svg" xmlns:xlink="http://www.w3.org/1999/xlink">
    <title></title>
    <g id="Icons" stroke="none" stroke-width="1" fill="none" fill-rule="evenodd">
        <g id="Icons-/-4.-Size-xl-/-Object-/-pficon-infrastructure" fill="#151515">
            <path d="M31.21875,0 C32.6167208,0 33.75,1.13327923 33.75,2.53125 L33.75,2.53125 L33.75,10.96875 C33.75,11.0056641 33.7447266,11.0478516 33.7447266,11.0900391 L33.7447266,11.0900391 L39.5296875,16.875 L45.5625,16.875 C46.4944805,16.875 47.25,17.6305195 47.25,18.5625 L47.25,18.5625 L47.25,25.3125 C47.25,26.2444805 46.4944805,27 45.5625,27 L45.5625,27 L43.875,27 L43.875,30.3222656 L48.09375,30.3222656 C49.4917208,30.3222656 50.625,31.4555449 50.625,32.8535156 L50.625,32.8535156 L50.625,37.125 L52.3125,37.125 C53.2444804,37.125 54,37.8805195 54,38.8125 L54,38.8125 L54,45.5625 C54,46.4944805 53.2444804,47.25 52.3125,47.25 L52.3125,47.25 L45.5625,47.25 C44.6305195,47.25 43.875,46.4944805 43.875,45.5625 L43.875,45.5625 L43.875,38.8125 C43.875,37.8805195 44.6305195,37.125 45.5625,37.125 L45.5625,37.125 L47.25,37.125 L47.25,33.6972656 L37.125,33.6972656 L37.125,37.125 L38.8125,37.125 C39.7444805,37.125 40.5,37.8805195 40.5,38.8125 L40.5,38.8125 L40.5,45.5625 C40.5,46.4944805 39.7444805,47.25 38.8125,47.25 L38.8125,47.25 L32.0625,47.25 C31.1305195,47.25 30.375,46.4944805 30.375,45.5625 L30.375,45.5625 L30.375,38.8125 C30.375,37.8805195 31.1305195,37.125 32.0625,37.125 L32.0625,37.125 L33.75,37.125 L33.75,32.8535156 C33.75,31.4555449 34.8832792,30.3222656 36.28125,30.3222656 L36.28125,30.3222656 L40.5,30.3222656 L40.5,27 L38.8125,27 C37.8805195,27 37.125,26.2444805 37.125,25.3125 L37.125,25.3125 L37.125,19.2427734 L31.3769531,13.4947266 C31.3242188,13.5 31.2714844,13.5 31.21875,13.5 L31.21875,13.5 L22.6916016,13.5 L16.875,19.3166016 L16.875,25.3125 C16.875,26.2444805 16.1194805,27 15.1875,27 L15.1875,27 L13.5,27 L13.5,30.3222656 L17.71875,30.3222656 C19.1167208,30.3222656 20.25,31.4555449 20.25,32.8535156 L20.25,32.8535156 L20.25,37.125 L21.9375,37.125 C22.8694805,37.125 23.625,37.8805195 23.625,38.8125 L23.625,38.8125 L23.625,45.5625 C23.625,46.4944805 22.8694805,47.25 21.9375,47.25 L21.9375,47.25 L15.1875,47.25 C14.2555195,47.25 13.5,46.4944805 13.5,45.5625 L13.5,45.5625 L13.5,38.8125 C13.5,37.8805195 14.2555195,37.125 15.1875,37.125 L15.1875,37.125 L16.875,37.125 L16.875,33.6972656 L6.75,33.6972656 L6.75,37.125 L8.4375,37.125 C9.36948052,37.125 10.125,37.8805195 10.125,38.8125 L10.125,38.8125 L10.125,45.5625 C10.125,46.4944805 9.36948052,47.25 8.4375,47.25 L8.4375,47.25 L1.6875,47.25 C0.755519484,47.25 0,46.4944805 0,45.5625 L0,45.5625 L0,38.8125 C0,37.8805195 0.755519484,37.125 1.6875,37.125 L1.6875,37.125 L3.375,37.125 L3.375,32.8535156 C3.375,31.4555449 4.50827923,30.3222656 5.90625,30.3222656 L5.90625,30.3222656 L10.125,30.3222656 L10.125,27 L8.4375,27 C7.50551948,27 6.75,26.2444805 6.75,25.3125 L6.75,25.3125 L6.75,18.5625 C6.75,17.6305195 7.50551948,16.875 8.4375,16.875 L8.4375,16.875 L14.5388672,16.875 L20.2552734,11.1585938 C20.2552734,11.0953125 20.25,11.0320312 20.25,10.96875 L20.25,10.96875 L20.25,2.53125 C20.25,1.13327923 21.3832792,0 22.78125,0 L22.78125,0 L31.21875,0 Z M30.375,3.375 L23.625,3.375 L23.625,10.125 L30.375,10.125 L30.375,3.375 Z" id="pficon-infrastructure"></path>
        </g>
    </g>
</svg>