<?xml version="1.0" encoding="UTF-8"?>
<svg width="48px" height="51px" viewBox="0 0 48 51" version="1.1" xmlns="http://www.w3.org/2000/svg" xmlns:xlink="http://www.w3.org/1999/xlink">
    <title></title>
    <g id="Icons" stroke="none" stroke-width="1" fill="none" fill-rule="evenodd">
        <g id="Icons-/-4.-Size-xl-/-Object-/-pficon-data-sink" fill="#000000">
            <path d="M23.068107,0 L30.8571188,8.57142189 L23.068107,17.1428438 L20.5714125,14.8164527 L24.688,10.285 L9.61809964,10.2857063 C7.89722598,10.3296884 6.28633438,11.0646342 5.08071032,12.3584904 C3.87305055,13.6544894 3.20796178,15.370488 3.20796178,17.1904152 L3.20796178,17.2257723 C3.20796178,19.0436102 3.87026484,20.7471267 5.07294247,22.0225543 C6.27685225,23.2993747 7.88292242,23.9999813 9.59517109,23.9999813 L38.4138986,23.9999813 C43.6792695,23.9999813 47.9795519,28.6104955 47.9999282,34.274384 C48.0097126,37.0196497 47.0185348,39.603237 45.2088933,41.5492176 C43.3965197,43.4980375 40.9831823,44.5713938 38.4139522,44.5713938 L0,44.5713938 L0,41.1428251 L38.41197,41.1428251 C40.1267366,41.1440572 41.7351103,40.4288256 42.9429308,39.1300409 C44.1477513,37.8344705 44.8076436,36.1147218 44.8011079,34.2875625 C44.7875544,30.5062262 41.9222352,27.42855 38.4138986,27.42855 L9.59517109,27.42855 C7.03467309,27.42855 4.62947853,26.3746401 2.82267637,24.4584988 C1.00832064,22.5343753 0.00916070714,19.9657344 0.00916070714,17.2257723 L0.00916070714,17.1904152 C0.00916070714,14.456078 1.0063385,11.8800443 2.8169978,9.93690297 C4.61260355,8.00988661 7.00933382,6.91633389 9.56581397,6.85713751 L24.688,6.857 L20.5714125,2.32639104 L23.068107,0 Z M40.4999743,0.857142189 C44.6354652,0.857142189 47.9999626,4.22163957 47.9999626,8.35714219 C47.9999626,12.4926331 44.6354652,15.8571305 40.4999743,15.8571305 C36.3644716,15.8571305 32.9999743,12.4926331 32.9999743,8.35714219 C32.9999743,4.22163957 36.3644716,0.857142189 40.4999743,0.857142189 Z M40.4999684,4.28640737 C38.2545773,4.28640737 36.4278466,6.11254881 36.4278466,8.35713634 C36.4278466,10.6017774 38.2545773,12.4278653 40.4999684,12.4278653 C42.7453595,12.4278653 44.5720902,10.6017774 44.5720902,8.35713634 C44.5720902,6.11254881 42.7453595,4.28640737 40.4999684,4.28640737 Z" id="Combined-Shape"></path>
        </g>
    </g>
</svg>