<?xml version="1.0" encoding="UTF-8"?>
<svg width="54px" height="54px" viewBox="0 0 54 54" version="1.1" xmlns="http://www.w3.org/2000/svg" xmlns:xlink="http://www.w3.org/1999/xlink">
    <title></title>
    <g id="Icons" stroke="none" stroke-width="1" fill="none" fill-rule="evenodd">
        <g id="Icons-/-4.-Size-xl-/-Object-/-pficon-enterprise" fill="#151515">
            <path d="M23.1451172,0 L0,5.78496094 L0,46.5275391 L30.8548828,54 L34.7150391,54 L54,46.2849609 L54,5.78496094 L27.0052734,0 L23.1451172,0 Z M3.86015625,43.5111328 L3.86015625,10.5943359 L30.375,16.4847656 L30.375,49.7970703 L26.9789063,48.9902344 L26.9789063,43.2105469 L6.77109375,38.3220703 L6.77109375,44.1808594 L3.86015625,43.5111328 Z M33.75,17.2441406 L50.625,10.7103516 L50.625,43.4636719 L47.2447266,44.8083984 L47.2447266,40.2626953 L37.125,44.2652344 L37.125,48.8583984 L33.75,50.2294922 L33.75,17.2441406 Z M6.77109375,22.8972656 L26.9789063,27.6960938 L26.9789063,19.8650391 L6.77109375,15.3404297 L6.77109375,22.8972656 Z M37.125,21.1201172 L37.125,28.8351563 L47.25,24.8378906 L47.25,17.128125 L37.125,21.1201172 Z M6.77109375,34.4671875 L26.9789063,39.2976563 L26.9789063,31.5193359 L6.77109375,26.7521484 L6.77109375,34.4671875 Z M37.125,32.6953125 L37.125,40.4103516 L47.2552734,36.4130859 L47.2552734,28.6980469 L37.125,32.6953125 Z" id="pficon-enterprise"></path>
        </g>
    </g>
</svg>