<?xml version="1.0" encoding="UTF-8"?><svg version="1.1" width="120px" height="73px" viewBox="0 0 120.0 73.0" xmlns="http://www.w3.org/2000/svg" xmlns:xlink="http://www.w3.org/1999/xlink"><defs><clipPath id="i0"><path d="M73,0 L73,120 L0,120 L0,0 L73,0 Z"></path></clipPath><clipPath id="i1"><path d="M119,0 L119,73 L0,73 L0,0 L119,0 Z"></path></clipPath></defs><g transform="rotate(-90.0) scale(-1.0 1.0)"><g clip-path="url(#i0)"><polygon points="0,0 73,0 73,120 0,120 0,0" stroke="none" fill="#FFFFFF"></polygon><g transform="translate(0.0 -1.0)"><polygon points="73,120 73,121 0,121 0,120 73,120 73,120" stroke="none" fill="#D2D2D2"></polygon></g></g></g><g transform="translate(119.0 0.0) scale(-1.0 1.0)"><g clip-path="url(#i1)"><polygon points="0,0 119,0 119,73 0,73 0,0" stroke="none" fill="#FFFFFF"></polygon><g transform="translate(0.0 -1.0)"><polygon points="119,73 119,74 0,74 0,73 119,73 119,73" stroke="none" fill="#D2D2D2"></polygon></g></g></g></svg>