<?xml version="1.0" encoding="UTF-8"?>
<svg width="50px" height="36px" viewBox="0 0 50 36" version="1.1" xmlns="http://www.w3.org/2000/svg" xmlns:xlink="http://www.w3.org/1999/xlink">
    <title></title>
    <g id="Buttons" stroke="none" stroke-width="1" fill="none" fill-rule="evenodd">
        <g id="Button-/-5.-Link-button-/-No-padding-/-Focus">
            <rect id="Focus-border" stroke="#0066CC" fill-rule="nonzero" x="-7.5" y="-7.5" width="65" height="51" rx="3"></rect>
            <path d="M55,-8 C56.6568542,-8 58,-6.65685425 58,-5 L58,41 C58,42.6568542 56.6568542,44 55,44 L-5,44 C-6.65685425,44 -8,42.6568542 -8,41 L-8,-5 C-8,-6.65685425 -6.65685425,-8 -5,-8 L55,-8 Z M47,0 L3,0 C1.34314575,0 0,1.34314575 0,3 L0,3 L0,33 C0,34.6568542 1.34314575,36 3,36 L3,36 L47,36 C48.6568542,36 50,34.6568542 50,33 L50,33 L50,3 C50,1.34314575 48.6568542,0 47,0 L47,0 Z" id="Focus-background" fill-opacity="0.2" fill="#0066CC" fill-rule="nonzero"></path>
            <rect id="Background" x="-16" y="0" width="82" height="36" rx="3"></rect>
            <text id="âœï¸-Label" font-family="RedHatText-Regular, Red Hat Text" font-size="16" font-weight="normal" line-spacing="24" fill="#004080" text-decoration="underline">
                <tspan x="0" y="22">Button</tspan>
            </text>
            <g id="ðŸ“-Padding" fill="#F3D53C" fill-opacity="0.9" stroke="#CBB534">
                <g id="Spacer-/-Vertical-/-8.-pf-global--spacer--form-element-(6px)">
                    <rect id="Rectangle" x="0.5" y="0.5" width="49" height="5"></rect>
                </g>
                <g id="Spacer-/-Vertical-/-8.-pf-global--spacer--form-element-(6px)" transform="translate(0.000000, 30.000000)">
                    <rect id="Rectangle" x="0.5" y="0.5" width="49" height="5"></rect>
                </g>
            </g>
        </g>
    </g>
</svg>