<svg xmlns="http://www.w3.org/2000/svg" width="24" height="24" viewBox="0 0 24 24">
  <path fill="#151515" fill-rule="evenodd" d="M11.6249723,23.2499446 C18.046832,23.2499446 23.2499446,18.046832 23.2499446,11.6249723 C23.2499446,5.20311259 18.046832,0 11.6249723,0 C5.20311259,0 0,5.20311259 0,11.6249723 C0,18.046832 5.20311259,23.2499446 11.6249723,23.2499446 Z M11.9999714,19.1249544 L11.2499732,19.1249544 C10.6265463,19.1249544 10.1249759,18.6233839 10.1249759,17.9999571 L10.1249759,9.4406208 L6.73121564,12.9796749 C6.29528834,13.4343247 5.56872757,13.4437088 5.11874695,12.9983974 L4.60779236,12.4827736 C4.16719588,12.0468463 4.16719588,11.3343388 4.60779236,10.8937423 L10.8327684,4.67343551 C11.2687414,4.23279325 11.9812031,4.23279325 12.4218454,4.67343551 L18.6374373,10.8937423 C19.0780795,11.3296696 19.0780795,12.0421771 18.6374373,12.4827736 L18.1265284,12.9983974 C17.681217,13.4437088 16.9546562,13.4343247 16.5187289,12.9796749 L13.1249687,9.4406208 L13.1249687,17.9999571 C13.1249687,18.6233839 12.6233982,19.1249544 11.9999714,19.1249544 Z"/>
</svg>
