<svg xmlns="http://www.w3.org/2000/svg" width="24" height="24" viewBox="0 0 24 24">
  <path fill="#151515" fill-rule="evenodd" d="M24,19.8 C24,20.2425 23.6425,20.6 23.2,20.6 L12,20.6 C11.5575,20.6 11.2,20.2425 11.2,19.8 L11.2,18.2 C11.2,17.7575 11.5575,17.4 12,17.4 L18.5375,17.4 L11.2575,10.045 L8.5925,12.72 C8.28,13.0325 7.7725,13.035 7.46,12.72 L0.235,5.495 C0.0775,5.34 0,5.135 0,4.9325 C0,4.7275 0.0775,4.5225 0.235,4.3675 L1.365,3.235 C1.5225,3.0775 1.7275,3 1.9325,3 C2.1375,3 2.3425,3.0775 2.4975,3.235 L8.0225,8.76 L10.6875,6.085 C11,5.7725 11.5075,5.77 11.82,6.085 L20.8,15.1375 L20.775,8.6 C20.775,8.1575 21.1075,7.8 21.55,7.8 L23.15,7.8 C23.5925,7.8 24,8.1575 24,8.6 L24,19.8 Z"/>
</svg>
