<svg xmlns="http://www.w3.org/2000/svg" width="24" height="24" viewBox="0 0 24 24">
  <path fill="#151515" fill-rule="evenodd" d="M12,6.75 C11.172907,6.75321204 10.503212,7.42290701 10.5,8.25 L10.5,15.75 C10.5,16.5784271 11.1715729,17.25 12,17.25 C12.8284271,17.25 13.5,16.5784271 13.5,15.75 L13.5,8.25 C13.496788,7.42290701 12.827093,6.75321204 12,6.75 M12,21 C7.02890625,21 3,16.9710938 3,12 C3,7.02890625 7.02890625,3 12,3 C16.9710938,3 21,7.02890625 21,12 C21,16.9710938 16.9710938,21 12,21 M12,0 C5.371875,0 0,5.371875 0,12 C0,18.628125 5.371875,24 12,24 C18.628125,24 24,18.628125 24,12 C24,5.371875 18.628125,0 12,0"/>
</svg>
