<svg xmlns="http://www.w3.org/2000/svg" width="24" height="24" viewBox="0 0 24 24">
  <path fill="#151515" fill-rule="evenodd" d="M11.9783719,17.8352341 L13.9953882,15.8182406 C14.3497651,15.4638866 14.0987968,14.857992 13.5976383,14.857992 L12.5181426,14.857992 L12.5181426,9.14200224 L13.5976383,9.14200224 C14.0987968,9.14200224 14.3497651,8.53613058 13.9954111,8.18175368 L11.9783947,6.1647602 C11.7587145,5.94507993 11.4025981,5.94507993 11.1829178,6.1647602 L9.16590145,8.18175368 C8.81154743,8.53610769 9.06251577,9.14200224 9.56367424,9.14200224 L10.6431471,9.14200224 L10.6431471,14.857992 L9.56365135,14.857992 C9.06249288,14.857992 8.81152454,15.4638637 9.16587856,15.8182406 L11.1828949,17.8352341 C11.4025752,18.0549143 11.7586916,18.0549143 11.9783719,17.8352341 Z"/>
</svg>
