<svg xmlns="http://www.w3.org/2000/svg" width="24" height="24" viewBox="0 0 24 24">
  <path fill="#151515" fill-rule="evenodd" d="M17.6225972,13.3680726 C17.695679,13.3680726 17.7928162,13.3223421 17.8393706,13.2660144 L18.4370255,12.5394537 C18.4723418,12.4964697 18.5009978,12.4164757 18.5009978,12.3608576 C18.5009978,12.2869976 18.4544891,12.1892424 18.3971772,12.1426422 L16.4378161,10.5275642 L16.4378161,7.28124933 C16.4378161,7.12599915 16.3118169,7 16.1565667,7 L14.8440699,7 C14.6888197,7 14.5628205,7.12599915 14.5628205,7.28124933 L14.5628205,8.98305039 L12.4644597,7.25664459 C12.2925241,7.11517307 11.9722963,7.00034332 11.7496177,7.00034332 C11.526962,7.00034332 11.2067113,7.11517307 11.0347757,7.25664459 L5.10205817,12.1426422 C5.04573048,12.1892195 5,12.2863338 5,12.3594385 C5,12.4153313 5.0289306,12.4956687 5.06456741,12.5387441 L5.66222224,13.2653049 C5.70879958,13.3219301 5.8061199,13.3679124 5.87943058,13.3679124 C5.93525473,13.3679124 6.01550051,13.3390504 6.05855308,13.3035052 L11.5715023,8.76272926 C11.6148295,8.72780197 11.6951439,8.69946647 11.750785,8.69946647 C11.8064489,8.69946647 11.8867634,8.72780197 11.9300906,8.76272926 L17.4432916,13.3035052 C17.4863441,13.339142 17.5666815,13.3680726 17.6225972,13.3680726 Z M15.8753174,17.4988077 C16.0823176,17.4988077 16.2503165,17.3308088 16.2503165,17.1238086 L16.2503165,13.2800677 L11.9300906,9.72366447 C11.8867634,9.68873718 11.8064489,9.66040168 11.750785,9.66040168 C11.6951439,9.66040168 11.6148295,9.68873718 11.5715023,9.72366447 L7.25033796,13.2826541 L7.25033796,17.1238086 C7.25033796,17.3308088 7.41833682,17.4988077 7.62533706,17.4988077 L10.251727,17.4920099 C10.4576973,17.4909799 10.6248721,17.3229811 10.6248721,17.1170108 L10.6248721,14.8738139 C10.6248721,14.6668137 10.792871,14.4988148 10.9998713,14.4988148 L12.4998677,14.4988148 C12.706845,14.4988148 12.8748668,14.6668137 12.8748668,14.8738139 L12.8748439,17.116553 L12.8748439,17.116553 C12.8748439,17.2976782 13.003468,17.448943 13.174298,17.4839291 L13.2498659,17.4915521 L15.8753174,17.4988077 Z"/>
</svg>
