<?xml version="1.0" encoding="UTF-8"?><svg version="1.1" width="32px" height="24px" viewBox="0 0 32.0 24.0" xmlns="http://www.w3.org/2000/svg" xmlns:xlink="http://www.w3.org/1999/xlink"><defs><clipPath id="i0"><path d="M29,0 C30.6568542,-3.04359188e-16 32,1.34314575 32,3 L32,29 C32,30.6568542 30.6568542,32 29,32 L3,32 C1.34314575,32 2.02906125e-16,30.6568542 0,29 L0,3 C-2.02906125e-16,1.34314575 1.34314575,3.04359188e-16 3,0 L29,0 Z"></path></clipPath><clipPath id="i1"><path d="M8,0 C12.418278,0 16,3.581722 16,8 C16,12.418278 12.418278,16 8,16 C3.581722,16 0,12.418278 0,8 C0,3.581722 3.581722,0 8,0 Z"></path></clipPath></defs><g transform="translate(0.0 -4.0)"><g clip-path="url(#i0)"><polygon points="0,0 32,0 32,32 0,32 0,0" stroke="none" fill="rgba(0, 102, 204, 0.2)"></polygon></g><g clip-path="url(#i0)"><path d="M3,0 L29,0 C30.6568542,-3.04359188e-16 32,1.34314575 32,3 L32,29 C32,30.6568542 30.6568542,32 29,32 L3,32 C1.34314575,32 2.02906125e-16,30.6568542 0,29 L0,3 C-2.02906125e-16,1.34314575 1.34314575,3.04359188e-16 3,0 Z" stroke="#0066CC" stroke-width="2" fill="none" stroke-miterlimit="5"></path></g></g><g transform="translate(8.0 4.0)"><g clip-path="url(#i1)"><polygon points="0,0 16,0 16,16 0,16 0,0" stroke="none" fill="#FFFFFF"></polygon><path d="M8,16 C12.418278,16 16,12.418278 16,8 C16,3.581722 12.418278,0 8,0 C3.581722,0 0,3.581722 0,8 C0,12.418278 3.581722,16 8,16 Z" stroke="#696E73" stroke-width="2" fill="none" stroke-miterlimit="5"></path></g></g></svg>