<?xml version="1.0" encoding="UTF-8"?><svg version="1.1" width="32px" height="40px" viewBox="0 0 32.0 40.0" xmlns="http://www.w3.org/2000/svg" xmlns:xlink="http://www.w3.org/1999/xlink"><defs><clipPath id="i0"><path d="M32,0 L32,40 L0,40 L0,0 L32,0 Z"></path></clipPath><clipPath id="i1"><path d="M3.35244258,0.165240847 C3.57274082,-0.0550802825 3.92899455,-0.0550802825 4.1469582,0.165240847 L4.67665817,0.694917929 C4.89695641,0.915239059 4.89695641,1.27149279 4.67665817,1.48945644 L2.41963688,3.7511698 L4.67899276,6.01054857 C4.89931389,6.23084681 4.89931389,6.58710054 4.67899276,6.80506419 L4.14931568,7.33709875 C3.92899455,7.55741988 3.57274082,7.55741988 3.35477717,7.33709875 L0.167284766,4.14960635 C-0.0553709527,3.92928522 -0.0553709527,3.57305438 0.164950177,3.35273325 Z"></path></clipPath><clipPath id="i2"><path d="M24,0 L24,24 L0,24 L0,0 L24,0 Z"></path></clipPath><clipPath id="i3"><path d="M8,0 L8,40 L0,40 L0,0 L8,0 Z"></path></clipPath><clipPath id="i4"><path d="M1,0 L1,40 L0,40 L0,0 L1,0 Z"></path></clipPath></defs><rect x="0px" y="0px" width="32px" height="40px" fill="#202426"></rect><g clip-path="url(#i0)"><polygon points="0,0 32,0 32,40 0,40 0,0" stroke="none" fill="#202426"></polygon></g><g transform="translate(4.0 8.0)"><g transform="translate(10.0 8.0)"><g clip-path="url(#i1)"><polygon points="-2.51187959e-14,0 4.84423361,0 4.84423361,7.5023396 -2.51187959e-14,7.5023396 -2.51187959e-14,0" stroke="none" fill="#151515"></polygon><g clip-path="url(#i2)"><polygon points="0,0 4.84423361,0 4.84423361,7.5023396 0,7.5023396 0,0" stroke="none" fill="#73BCF7"></polygon></g></g></g></g><g clip-path="url(#i3)"><polygon points="0,0 8,0 8,40 0,40 0,0" stroke="none" fill="rgba(146, 211, 0, 0.9)"></polygon></g><g clip-path="url(#i3)"><polygon points="0,0 8,0 8,40 0,40 0,0 0,0" stroke="#7EB200" stroke-width="2" fill="none" stroke-miterlimit="5"></polygon></g><g transform="translate(24.0 0.0)"><g clip-path="url(#i3)"><polygon points="0,0 8,0 8,40 0,40 0,0" stroke="none" fill="rgba(146, 211, 0, 0.9)"></polygon></g><g clip-path="url(#i3)"><polygon points="0,0 8,0 8,40 0,40 0,0 0,0" stroke="#7EB200" stroke-width="2" fill="none" stroke-miterlimit="5"></polygon></g></g><g transform="translate(31.0 0.0)"><g clip-path="url(#i4)"><polygon points="0,0 1,0 1,40 0,40 0,0" stroke="none" fill="#FFFFFF"></polygon><polygon points="0,0 1,0 1,40 0,40 0,0 0,0" stroke="#696E73" stroke-width="2" fill="none" stroke-miterlimit="5"></polygon></g></g></svg>