<?xml version="1.0" encoding="UTF-8"?>
<svg width="32px" height="40px" viewBox="0 0 32 40" version="1.1" xmlns="http://www.w3.org/2000/svg" xmlns:xlink="http://www.w3.org/1999/xlink">
    <title></title>
    <g id="Mobile" stroke="none" stroke-width="1" fill="none" fill-rule="evenodd">
        <g id="Mobile-/-Masthead-/-Horizontal-Nav-/-Overflow-Arrows-/-Left-Default">
            <rect fill="#212427" x="0" y="0" width="32" height="40"></rect>
            <rect id="Background" fill="#212427" x="0" y="0" width="32" height="40"></rect>
            <g id="Icons-/-Framework-/-angle-left" transform="translate(14.000000, 16.000000)">
                <g id="ðŸ–¼-Icon" fill="#151515">
                    <path d="M4.14931568,7.33709875 L4.67899276,6.80506419 C4.89931389,6.58710054 4.89931389,6.23084681 4.67899276,6.01054857 L2.41963688,3.7511698 L4.67665817,1.48945644 C4.89695641,1.27149279 4.89695641,0.915239059 4.67665817,0.694917929 L4.1469582,0.165240847 C3.92899455,-0.0550802825 3.57274082,-0.0550802825 3.35244258,0.165240847 L0.164950177,3.35273325 C-0.0553709527,3.57305438 -0.0553709527,3.92928522 0.167284766,4.14960635 L3.35477717,7.33709875 C3.57274082,7.55741988 3.92899455,7.55741988 4.14931568,7.33709875 Z" id="angle-left"></path>
                </g>
                <rect id="ðŸŽ¨-Color" fill="#FFFFFF" x="-10" y="-8" width="24" height="24"></rect>
            </g>
            <g id="ðŸ“-Padding" fill="#92D400" fill-opacity="0.9" stroke="#7FB300">
                <g id="Spacer-/-Horizontal-/-2.-pf-global--spacer--sm-(8px)">
                    <rect id="Rectangle-Copy" x="0.5" y="0.5" width="7" height="39"></rect>
                </g>
                <g id="Spacer-/-Horizontal-/-2.-pf-global--spacer--sm-(8px)-Copy" transform="translate(24.000000, 0.000000)">
                    <rect id="Rectangle-Copy" x="0.5" y="0.5" width="7" height="39"></rect>
                </g>
            </g>
            <rect id="Rectangle" stroke="#6A6E73" fill="#FFFFFF" x="31.5" y="0.5" width="1" height="39"></rect>
        </g>
    </g>
</svg>