<?xml version="1.0" encoding="UTF-8"?>
<svg width="32px" height="40px" viewBox="0 0 32 40" version="1.1" xmlns="http://www.w3.org/2000/svg" xmlns:xlink="http://www.w3.org/1999/xlink">
    <title></title>
    <g id="Mobile" stroke="none" stroke-width="1" fill="none" fill-rule="evenodd">
        <g id="Mobile-/-Masthead-/-Horizontal-Nav-/-Overflow-Arrows-/-Right-Default">
            <rect id="Background" fill="#242424" x="0" y="0" width="32" height="40"></rect>
            <g id="Icons-/-Framework-/-angle-left" transform="translate(4.000000, 8.000000)">
                <g id="angle-right" fill="#151515">
                    <path d="M11.4894393,15.3370987 L14.6769317,12.1496063 C14.8972528,11.9292852 14.8972528,11.5730544 14.6745971,11.3527332 L11.4871047,8.16524085 C11.269141,7.94491972 10.9128873,7.94491972 10.6925662,8.16524085 L10.1652237,8.69961 C9.94492544,8.91757365 9.94492544,9.27382738 10.1652237,9.49414851 L12.4246024,11.7535044 L10.1652237,14.0128832 C9.94492544,14.2308468 9.94492544,14.5871005 10.1652237,14.8074217 L10.6949237,15.3370987 C10.9128873,15.5574199 11.269141,15.5574199 11.4894393,15.3370987 Z"></path>
                </g>
                <rect id="ðŸŽ¨-Color" fill="#FFFFFF" x="0" y="0" width="24" height="24"></rect>
            </g>
            <g id="ðŸ“-Padding" fill="#92D400" fill-opacity="0.9" stroke="#7FB300">
                <g id="Spacer-/-Horizontal-/-4.-pf-global--spacer--lg-(24px)">
                    <rect id="Rectangle-Copy" x="0.5" y="0.5" width="7" height="39"></rect>
                </g>
                <g id="Spacer-/-Horizontal-/-4.-pf-global--spacer--lg-(24px)" transform="translate(24.000000, 0.000000)">
                    <rect id="Rectangle-Copy" x="0.5" y="0.5" width="7" height="39"></rect>
                </g>
            </g>
            <rect id="Rectangle" stroke="#6A6E73" fill="#FFFFFF" x="0.5" y="0.5" width="1" height="39"></rect>
        </g>
    </g>
</svg>