<svg xmlns="http://www.w3.org/2000/svg" xmlns:xlink="http://www.w3.org/1999/xlink" width="140" height="36" viewBox="0 0 140 36">
  <defs>
    <rect id="10.-warning-a" width="140" height="36" x="0" y="0"/>
    <filter id="10.-warning-b" width="101.4%" height="105.6%" x="-.7%" y="-2.8%" filterUnits="objectBoundingBox">
      <feOffset dx="1" in="SourceAlpha" result="shadowOffsetInner1"/>
      <feComposite in="shadowOffsetInner1" in2="SourceAlpha" k2="-1" k3="1" operator="arithmetic" result="shadowInnerInner1"/>
      <feColorMatrix in="shadowInnerInner1" result="shadowMatrixInner1" values="0 0 0 0 0.929411765   0 0 0 0 0.929411765   0 0 0 0 0.929411765  0 0 0 1 0"/>
      <feOffset dx="-1" in="SourceAlpha" result="shadowOffsetInner2"/>
      <feComposite in="shadowOffsetInner2" in2="SourceAlpha" k2="-1" k3="1" operator="arithmetic" result="shadowInnerInner2"/>
      <feColorMatrix in="shadowInnerInner2" result="shadowMatrixInner2" values="0 0 0 0 0.929411765   0 0 0 0 0.929411765   0 0 0 0 0.929411765  0 0 0 1 0"/>
      <feOffset dy="1" in="SourceAlpha" result="shadowOffsetInner3"/>
      <feComposite in="shadowOffsetInner3" in2="SourceAlpha" k2="-1" k3="1" operator="arithmetic" result="shadowInnerInner3"/>
      <feColorMatrix in="shadowInnerInner3" result="shadowMatrixInner3" values="0 0 0 0 0.929411765   0 0 0 0 0.929411765   0 0 0 0 0.929411765  0 0 0 1 0"/>
      <feOffset dy="-2" in="SourceAlpha" result="shadowOffsetInner4"/>
      <feComposite in="shadowOffsetInner4" in2="SourceAlpha" k2="-1" k3="1" operator="arithmetic" result="shadowInnerInner4"/>
      <feColorMatrix in="shadowInnerInner4" result="shadowMatrixInner4" values="0 0 0 0 0.941176471   0 0 0 0 0.670588235   0 0 0 0 0  0 0 0 1 0"/>
      <feMerge>
        <feMergeNode in="shadowMatrixInner1"/>
        <feMergeNode in="shadowMatrixInner2"/>
        <feMergeNode in="shadowMatrixInner3"/>
        <feMergeNode in="shadowMatrixInner4"/>
      </feMerge>
    </filter>
  </defs>
  <g fill="none" fill-rule="evenodd">
    <use fill="#FFF" xlink:href="#10.-warning-a"/>
    <use fill="#000" filter="url(#10.-warning-b)" xlink:href="#10.-warning-a"/>
    <g stroke="#BBB" transform="translate(131 26)">
      <line x1="4" x2="7" y1="7" y2="4"/>
      <line x2="7" y1="7"/>
    </g>
    <path fill="#F0AB00" d="M19.4981174,19.999962 C20.6501533,19.999962 21.3741811,18.7501786 20.7973697,17.7503641 L13.2992797,4.74954061 C12.7232007,3.75106887 11.2778001,3.74923782 10.7007141,4.74954061 L3.20241044,17.7503641 C2.62672822,18.748256 3.34742963,19.999962 4.50169323,19.999962 L19.4981174,19.999962 Z M12.75854,14.4999751 L11.2414538,14.4999751 C11.0422965,14.4999751 10.8778682,14.3442748 10.8670345,14.1454227 L10.6352235,9.89543288 C10.6235048,9.68062016 10.7944944,9.49998704 11.0096123,9.49998704 L12.990351,9.49998704 C13.2054689,9.49998704 13.376489,9.68062016 13.3647702,9.89543288 L13.1329593,14.1454227 C13.1221256,14.3442748 12.9576972,14.4999751 12.75854,14.4999751 Z M11.9999969,17.9374669 C11.206084,17.9374669 10.5625003,17.2938833 10.5625003,16.4999704 C10.5625003,15.7060575 11.206084,15.0624738 11.9999969,15.0624738 C12.7939098,15.0624738 13.4374935,15.7060575 13.4374935,16.4999704 C13.4374935,17.2938833 12.7939098,17.9374669 11.9999969,17.9374669 Z" transform="translate(108 6)"/>
    <text fill="#151515" font-family="RedHatText-Regular, Red Hat Text" font-size="16">
      <tspan x="8" y="22">Text box</tspan>
    </text>
    <g fill-opacity=".9">
      <rect width="7" height="35" x=".5" y=".5" fill="#92D400" stroke="#7FB300"/>
      <rect width="7" height="35" x=".5" y=".5" fill="#92D400" stroke="#7FB300" transform="translate(132)"/>
      <rect width="123" height="5" x=".5" y=".5" fill="#F3D53C" stroke="#CBB534" transform="translate(8 30)"/>
      <rect width="123" height="5" x=".5" y=".5" fill="#F3D53C" stroke="#CBB534" transform="translate(8)"/>
    </g>
  </g>
</svg>
