<?xml version="1.0" encoding="UTF-8"?><svg version="1.1" width="24px" height="24px" viewBox="0 0 24.0 24.0" xmlns="http://www.w3.org/2000/svg" xmlns:xlink="http://www.w3.org/1999/xlink"><defs><clipPath id="i0"><path d="M8.99997854,0 C10.6546529,0 11.9999714,1.34531845 11.9999714,3 L15.7499624,3 C16.992147,3 17.9999571,4.00780294 17.9999571,5.24998748 L17.9999571,21.7499481 C17.9999571,22.9921327 16.992147,23.9999428 15.7499624,23.9999428 L2.24999464,23.9999428 C1.0078101,23.9999428 0,22.9921327 0,21.7499481 L0,5.24998748 C0,4.00780294 1.0078101,3 2.24999464,3 L5.99998569,3 C5.99998569,1.34531845 7.34530414,0 8.99997854,0 Z M13.3640123,10.612493 C13.143737,10.3921719 12.7874604,10.3874569 12.5671392,10.6077781 L7.59840107,15.5390255 L5.44215621,13.3640123 C5.22188086,13.143737 4.86560424,13.139022 4.64528311,13.3593431 L3.31406375,14.6812242 C3.09374262,14.9015453 3.08907345,15.2577761 3.3093488,15.4780973 L7.18124203,19.3827663 C7.40156316,19.6030874 7.757794,19.6077566 7.97811513,19.3874355 L14.6812242,12.7405855 C14.9015453,12.5202643 14.9062145,12.1687027 14.6858933,11.9437124 Z M8.99997854,1.87499553 C8.37655168,1.87499553 7.87498122,2.37656599 7.87498122,2.99999285 C7.87498122,3.62341971 8.37655168,4.12499017 8.99997854,4.12499017 C9.6234054,4.12499017 10.1249759,3.62341971 10.1249759,2.99999285 C10.1249759,2.37656599 9.6234054,1.87499553 8.99997854,1.87499553 Z"></path></clipPath></defs><g transform="translate(3.0 0.0)"><g clip-path="url(#i0)"><polygon points="0,0 17.9999571,0 17.9999571,23.9999428 0,23.9999428 0,0" stroke="none" fill="#151515"></polygon></g></g></svg>