<?xml version="1.0" encoding="UTF-8"?>
<svg width="24px" height="24px" viewBox="0 0 24 24" version="1.1" xmlns="http://www.w3.org/2000/svg" xmlns:xlink="http://www.w3.org/1999/xlink">
    <title></title>
    <g id="Icons" stroke="none" stroke-width="1" fill="none" fill-rule="evenodd">
        <g id="Icons/3.-Size-lg/Object/code-branch" fill="#151515">
            <path d="M6.74999106,23.9999428 C8.82187027,23.9999428 10.4999821,22.3218309 10.4999821,20.2499517 C10.4999821,18.6562055 9.50622533,17.2921646 8.09997869,16.7531034 C8.2453183,16.5093448 8.46559366,16.2936928 8.79843283,16.1249616 C9.55781518,15.7405783 10.6921508,15.6374444 11.8968446,15.5249721 C13.8749741,15.3421418 16.1155846,15.1312048 17.4374656,13.4905837 C18.093714,12.6749881 18.4265074,11.6249723 18.4499449,10.3078062 C19.9312188,9.80152082 20.9999571,8.39998913 20.9999571,6.74998391 C20.9999571,4.67810469 19.3218452,3 17.249966,3 C15.1780868,3 13.499975,4.67810469 13.499975,6.74998391 C13.499975,8.45624815 14.6390256,9.8952706 16.195281,10.3499662 C16.1671744,11.1046793 15.9983974,11.6859005 15.6796573,12.0796679 C14.9577657,12.9796749 13.3687344,13.1296379 11.6859076,13.2843616 C10.3640266,13.406218 8.99531652,13.5374586 7.87498838,14.0765198 L7.87498838,7.32653588 C9.39842224,6.84840286 10.4999821,5.4281029 10.4999821,3.74999106 C10.4999821,1.67811184 8.82187027,0 6.74999106,0 C4.67811184,0 3,1.67811184 3,3.74999106 C3,5.4281029 4.10155987,6.84840286 5.62499374,7.32653588 L5.62499374,16.6686919 C4.10155987,17.1515399 3,18.5718399 3,20.2499517 C3,22.3218309 4.67811184,23.9999428 6.74999106,23.9999428 Z M6.74999106,4.49999285 C6.3375012,4.49999285 5.99999285,4.16248092 5.99999285,3.74999106 C5.99999285,3.3375012 6.3375012,2.99999285 6.74999106,2.99999285 C7.16248092,2.99999285 7.49999285,3.3375012 7.49999285,3.74999106 C7.49999285,4.16248092 7.16248092,4.49999285 6.74999106,4.49999285 Z M17.249966,7.49998569 C16.8374762,7.49998569 16.4999678,7.16247377 16.4999678,6.74998391 C16.4999678,6.33749405 16.8374762,5.99998569 17.249966,5.99998569 C17.6624559,5.99998569 17.9999678,6.33749405 17.9999678,6.74998391 C17.9999678,7.16247377 17.6624559,7.49998569 17.249966,7.49998569 Z M6.74999106,20.9999535 C6.3375012,20.9999535 5.99999285,20.6624416 5.99999285,20.2499517 C5.99999285,19.8374619 6.3375012,19.4999535 6.74999106,19.4999535 C7.16248092,19.4999535 7.49999285,19.8374619 7.49999285,20.2499517 C7.49999285,20.6624416 7.16248092,20.9999535 6.74999106,20.9999535 Z" id="code-branch"></path>
        </g>
    </g>
</svg>