<?xml version="1.0" encoding="UTF-8"?><svg version="1.1" width="24px" height="24px" viewBox="0 0 24.0 24.0" xmlns="http://www.w3.org/2000/svg" xmlns:xlink="http://www.w3.org/1999/xlink"><defs><clipPath id="i0"><path d="M12.9824309,0.324835912 C13.0499183,0.0848399398 13.3011561,-0.050134908 13.5411154,0.0173525159 L15.8284374,0.681058191 C16.0684334,0.748545615 16.2034082,0.999783388 16.1359208,1.23974274 L11.0175691,18.870878 C10.9463466,19.110874 10.6988439,19.2496205 10.4588846,19.1783614 L8.17156258,18.5146557 C7.9315666,18.4471683 7.79659176,18.1959305 7.86407918,17.9559712 Z M17.8157828,4.22076076 C17.9882913,4.04078209 18.2732545,4.03327535 18.4532332,4.20201222 L23.8565846,9.27162503 C24.0478051,9.44786863 24.0478051,9.75158035 23.8565846,9.92782396 L18.4532332,14.9937017 C18.2695194,15.1624386 17.9845196,15.1549318 17.8157828,14.9711815 L16.1846597,13.2313389 C16.0084527,13.0475885 16.0234296,12.7551186 16.2146867,12.5863817 L19.6119076,9.59785696 L16.2146867,6.60559714 C16.0234296,6.43686028 16.0121878,6.14439036 16.1846597,5.96064001 Z M5.54676684,4.2057839 C5.73048057,4.03327535 6.01548036,4.04455377 6.18421723,4.22453244 L7.8153403,5.96437507 C7.99154729,6.14812542 7.97657043,6.44059534 7.78531334,6.6093322 L4.38809236,9.59785696 L7.78531334,12.5863817 C7.97657043,12.7551186 7.98781223,13.0475885 7.8153403,13.2313389 L6.18421723,14.9711815 C6.01548036,15.1549318 5.73048057,15.1624386 5.54676684,14.98993 L0.143415353,9.9240889 C-0.0478051177,9.74784529 -0.0478051177,9.44413357 0.143415353,9.26788996 Z"></path></clipPath></defs><g transform="translate(0.0 2.0)"><g clip-path="url(#i0)"><polygon points="0,3.55271368e-15 24,3.55271368e-15 24,19.1970657 0,19.1970657 0,3.55271368e-15" stroke="none" fill="#151515"></polygon></g></g></svg>