<?xml version="1.0" encoding="UTF-8"?><svg version="1.1" width="24px" height="24px" viewBox="0 0 24.0 24.0" xmlns="http://www.w3.org/2000/svg" xmlns:xlink="http://www.w3.org/1999/xlink"><defs><clipPath id="i0"><path d="M3.74999106,0 C5.82187027,0 7.49998212,1.67811184 7.49998212,3.74999106 C7.49998212,5.4281029 6.39842224,6.84840286 4.87498838,7.32653588 L4.87498838,14.0765198 C5.99531652,13.5374586 7.36402663,13.406218 8.68590764,13.2843616 C10.3687344,13.1296379 11.9577657,12.9796749 12.6796573,12.0796679 C12.9983974,11.6859005 13.1671744,11.1046793 13.195281,10.3499662 C11.6390256,9.8952706 10.499975,8.45624815 10.499975,6.74998391 C10.499975,4.67810469 12.1780868,3 14.249966,3 C16.3218452,3 17.9999571,4.67810469 17.9999571,6.74998391 C17.9999571,8.39998913 16.9312188,9.80152082 15.4499449,10.3078062 C15.4265074,11.6249723 15.093714,12.6749881 14.4374656,13.4905837 C13.1155846,15.1312048 10.8749741,15.3421418 8.89684463,15.5249721 C7.69215085,15.6374444 6.55781518,15.7405783 5.79843283,16.1249616 C5.46559366,16.2936928 5.2453183,16.5093448 5.09997869,16.7531034 C6.50622533,17.2921646 7.49998212,18.6562055 7.49998212,20.2499517 C7.49998212,22.3218309 5.82187027,23.9999428 3.74999106,23.9999428 C1.67811184,23.9999428 0,22.3218309 0,20.2499517 C0,18.5718399 1.10155987,17.1515399 2.62499374,16.6686919 L2.62499374,7.32653588 C1.10155987,6.84840286 0,5.4281029 0,3.74999106 C0,1.67811184 1.67811184,0 3.74999106,0 Z M3.74999106,19.4999535 C3.3375012,19.4999535 2.99999285,19.8374619 2.99999285,20.2499517 C2.99999285,20.6624416 3.3375012,20.9999535 3.74999106,20.9999535 C4.16248092,20.9999535 4.49999285,20.6624416 4.49999285,20.2499517 C4.49999285,19.8374619 4.16248092,19.4999535 3.74999106,19.4999535 Z M14.249966,5.99998569 C13.8374762,5.99998569 13.4999678,6.33749405 13.4999678,6.74998391 C13.4999678,7.16247377 13.8374762,7.49998569 14.249966,7.49998569 C14.6624559,7.49998569 14.9999678,7.16247377 14.9999678,6.74998391 C14.9999678,6.33749405 14.6624559,5.99998569 14.249966,5.99998569 Z M3.74999106,2.99999285 C3.3375012,2.99999285 2.99999285,3.3375012 2.99999285,3.74999106 C2.99999285,4.16248092 3.3375012,4.49999285 3.74999106,4.49999285 C4.16248092,4.49999285 4.49999285,4.16248092 4.49999285,3.74999106 C4.49999285,3.3375012 4.16248092,2.99999285 3.74999106,2.99999285 Z"></path></clipPath></defs><g transform="translate(3.0 0.0)"><g clip-path="url(#i0)"><polygon points="0,0 17.9999571,0 17.9999571,23.9999428 0,23.9999428 0,0" stroke="none" fill="#151515"></polygon></g></g></svg>