<?xml version="1.0" encoding="UTF-8"?><svg version="1.1" width="24px" height="24px" viewBox="0 0 24.0 24.0" xmlns="http://www.w3.org/2000/svg" xmlns:xlink="http://www.w3.org/1999/xlink"><defs><clipPath id="i0"><path d="M11.2077675,0.143542536 C11.7187221,-0.0486261951 12.2812207,-0.0486261951 12.7874604,0.148257491 L22.5374371,3.80449877 C23.4140067,4.13262299 23.9952736,4.97165603 23.9952736,5.90915379 L23.9952736,16.4607186 C23.9952736,17.3091358 23.5171406,18.0919556 22.7530891,18.4716238 L13.0031123,23.3466122 C12.3703013,23.6653523 11.6249723,23.6653523 10.9921613,23.3466122 L1.24218454,18.4716238 C0.482802194,18.0919556 0,17.3138049 0,16.4607186 L0,5.90915379 C0,4.97165603 0.581266925,4.12790804 1.45779071,3.79978382 Z M20.9999499,9.71540387 L13.4999678,12.7622716 L13.4999678,19.7419608 L20.9999499,15.9919697 L20.9999499,9.71540387 Z M11.9999714,3.05450056 L2.99999285,6.42949252 L2.99999285,6.48103658 L11.9999714,10.1372779 L20.9999499,6.48103658 L20.9999499,6.42949252 L11.9999714,3.05450056 Z"></path></clipPath></defs><g clip-path="url(#i0)"><polygon points="0,-5.32907052e-15 23.9952736,-5.32907052e-15 23.9952736,23.5856673 0,23.5856673 0,-5.32907052e-15" stroke="none" fill="#151515"></polygon></g></svg>