<?xml version="1.0" encoding="UTF-8"?><svg version="1.1" width="24px" height="24px" viewBox="0 0 24.0 24.0" xmlns="http://www.w3.org/2000/svg" xmlns:xlink="http://www.w3.org/1999/xlink"><defs><clipPath id="i0"><path d="M11.4046512,0.108970382 C11.7890344,-0.0363234608 12.2109084,-0.0363234608 12.5905767,0.108970382 L17.2780655,1.86677869 C17.9390289,2.11520644 18.3749562,2.74334826 18.3749562,3.44647158 L18.3749562,8.53239695 L22.9030521,10.2292771 C23.5640155,10.4777048 23.9999428,11.1058466 23.9999428,11.80897 L23.9999428,16.9698768 C23.9999428,17.607357 23.638997,18.1932931 23.0671142,18.4792574 L18.3796254,20.8230018 C17.9062073,21.0620454 17.3437086,21.0620454 16.8702906,20.8230018 L11.9999714,18.3855076 L7.12965219,20.8230018 C6.65623413,21.0620454 6.09373547,21.0620454 5.62031741,20.8230018 L0.932828587,18.4792574 C0.360945795,18.1932931 0,17.607357 0,16.9698768 L0,11.80897 C0,11.1058466 0.435927305,10.4777048 1.09217574,10.2292771 L5.62031741,8.53239695 L5.62031741,3.44647158 C5.62031741,2.74334826 6.05624472,2.11520644 6.71716233,1.86677869 Z M11.1562234,13.491751 L7.1718579,15.3104875 L7.1718579,19.0183186 L11.1562234,17.0261359 L11.1562234,13.491751 Z M22.4061966,13.491751 L18.4218311,15.3104875 L18.4218311,19.0183186 L22.4061966,17.0261359 L22.4061966,13.491751 Z M6.3749848,9.95741187 L1.5937462,11.747996 L1.5937462,11.7761484 L6.3749848,13.7167413 L11.1562234,11.7761484 L11.1562234,11.747996 L6.3749848,9.95741187 Z M17.624958,9.95741187 L12.8437194,11.747996 L12.8437194,11.7761484 L17.624958,13.7167413 L22.4061966,11.7761484 L22.4061966,11.747996 L17.624958,9.95741187 Z M16.78121,5.13396756 L12.7968445,6.86833842 L12.7968445,10.065215 L16.78121,8.56988771 L16.78121,5.13396756 Z M11.9999714,1.59024432 L7.21873279,3.38082843 L7.21873279,3.40898082 L11.9999714,5.34957373 L16.78121,3.40898082 L16.78121,3.38082843 L11.9999714,1.59024432 Z"></path></clipPath></defs><g transform="translate(0.0 1.0)"><g clip-path="url(#i0)"><polygon points="0,0 23.9999428,0 23.9999428,21.0022845 0,21.0022845 0,0" stroke="none" fill="#151515"></polygon></g></g></svg>