<?xml version="1.0" encoding="UTF-8"?>
<svg width="24px" height="24px" viewBox="0 0 24 24" version="1.1" xmlns="http://www.w3.org/2000/svg" xmlns:xlink="http://www.w3.org/1999/xlink">
    <title></title>
    <g id="Icons" stroke="none" stroke-width="1" fill="none" fill-rule="evenodd">
        <g id="Icons/3.-Size-lg/Object/database" fill="#151515">
            <path d="M12.499975,8.99997854 C18.2968514,8.99997854 22.9999499,7.45979056 22.9999499,5.57142837 L22.9999499,3.42855018 C22.9999499,1.54018798 18.2968514,0 12.499975,0 C6.70309853,0 2,1.54018798 2,3.42855018 L2,5.57142837 C2,7.45979056 6.70309853,8.99997854 12.499975,8.99997854 Z M12.499975,16.4999607 C18.2968514,16.4999607 22.9999499,14.9597727 22.9999499,13.0714105 L22.9999499,8.24998033 C20.7440502,9.80353498 16.6152148,10.5267999 12.499975,10.5267999 C8.38473514,10.5267999 4.255854,9.80353498 2,8.24998033 L2,13.0714105 C2,14.9597727 6.70309853,16.4999607 12.499975,16.4999607 Z M12.499975,23.9999428 C18.2968514,23.9999428 22.9999499,22.4597548 22.9999499,20.5713926 L22.9999499,15.7499624 C20.7440502,17.3035171 16.6152148,18.026782 12.499975,18.026782 C8.38473514,18.026782 4.255854,17.3035171 2,15.7499624 L2,20.5713926 C2,22.4597548 6.70309853,23.9999428 12.499975,23.9999428 Z" id="database"></path>
        </g>
    </g>
</svg>