<?xml version="1.0" encoding="UTF-8"?><svg version="1.1" width="24px" height="24px" viewBox="0 0 24.0 24.0" xmlns="http://www.w3.org/2000/svg" xmlns:xlink="http://www.w3.org/1999/xlink"><defs><clipPath id="i0"><path d="M20.9999499,15.7499624 L20.9999499,20.5713926 C20.9999499,22.4597548 16.2968514,23.9999428 10.499975,23.9999428 C4.70309853,23.9999428 0,22.4597548 0,20.5713926 L0,15.7499624 C2.255854,17.3035171 6.38473514,18.026782 10.499975,18.026782 C14.6152148,18.026782 18.7440502,17.3035171 20.9999499,15.7499624 Z M20.9999499,8.24998033 L20.9999499,13.0714105 C20.9999499,14.9597727 16.2968514,16.4999607 10.499975,16.4999607 C4.70309853,16.4999607 0,14.9597727 0,13.0714105 L0,8.24998033 C2.255854,9.80353498 6.38473514,10.5267999 10.499975,10.5267999 C14.6152148,10.5267999 18.7440502,9.80353498 20.9999499,8.24998033 Z M10.499975,0 C16.2968514,0 20.9999499,1.54018798 20.9999499,3.42855018 L20.9999499,5.57142837 C20.9999499,7.45979056 16.2968514,8.99997854 10.499975,8.99997854 C4.70309853,8.99997854 0,7.45979056 0,5.57142837 L0,3.42855018 C0,1.54018798 4.70309853,0 10.499975,0 Z"></path></clipPath></defs><g transform="translate(2.0 0.0)"><g clip-path="url(#i0)"><polygon points="0,0 20.9999499,0 20.9999499,23.9999428 0,23.9999428 0,0" stroke="none" fill="#151515"></polygon></g></g></svg>