<?xml version="1.0" encoding="UTF-8"?><svg version="1.1" width="24px" height="24px" viewBox="0 0 24.0 24.0" xmlns="http://www.w3.org/2000/svg" xmlns:xlink="http://www.w3.org/1999/xlink"><defs><clipPath id="i0"><path d="M22,0 C23.1041667,0 24,0.895833333 24,2 L24,15.3333333 C24,16.4375 23.1041667,17.3333333 22,17.3333333 L14,17.3333333 L14.6666667,19.3333333 L17.6666667,19.3333333 C18.2208252,19.3333333 18.6666667,19.7791748 18.6666667,20.3333333 C18.6666667,20.8874919 18.2208252,21.3333333 17.6666667,21.3333333 L6.33333333,21.3333333 C5.7791748,21.3333333 5.33333333,20.8874919 5.33333333,20.3333333 C5.33333333,19.7791748 5.7791748,19.3333333 6.33333333,19.3333333 L9.33333333,19.3333333 L10,17.3333333 L2,17.3333333 C0.895833333,17.3333333 0,16.4375 0,15.3333333 L0,2 C0,0.895833333 0.895833333,0 2,0 Z M21.3333333,2.66666667 L2.66666667,2.66666667 L2.66666667,14.6666667 L21.3333333,14.6666667 L21.3333333,2.66666667 Z"></path></clipPath></defs><g transform="translate(0.0 1.0)"><g clip-path="url(#i0)"><polygon points="0,0 24,0 24,21.3333333 0,21.3333333 0,0" stroke="none" fill="#151515"></polygon></g></g></svg>