<?xml version="1.0" encoding="UTF-8"?><svg version="1.1" width="24px" height="24px" viewBox="0 0 24.0 24.0" xmlns="http://www.w3.org/2000/svg" xmlns:xlink="http://www.w3.org/1999/xlink"><defs><clipPath id="i0"><path d="M2.56909031,0.000583107805 L2.7345821,0.00223268339 C4.0690058,0.0565233254 5.16173086,1.12567361 5.24476899,2.45863247 C5.24769867,2.50459183 5.25007904,2.57925291 5.25007904,2.62530382 C5.25007904,2.89300338 5.17239673,3.31313788 5.07667857,3.56307624 C6.04869163,3.20547212 7.09651018,2.99998249 8.26627668,2.99998249 C11.4243807,2.99998249 13.498915,4.63044125 16.0108413,4.63044125 C17.9090454,4.63044125 19.8832381,3.88483756 21.4928229,3.13726549 C22.4873579,2.67538305 23.6249437,3.40084519 23.6249437,4.49741545 L23.6249437,15.8926825 C23.6249437,16.3861048 23.3830619,16.8492689 22.9760652,17.1282294 C21.2961681,18.2796397 19.4915765,19.0434165 17.2336625,19.0434165 C14.0755585,19.0434165 12.00107,17.4129578 9.48909786,17.4129578 C7.10539077,17.4129578 5.45204389,17.8844532 4.12499017,18.4499273 L4.12499017,22.8749351 C4.12499017,23.4962563 3.621314,23.9999324 3,23.9999324 L2.24999464,23.9999324 C1.62867349,23.9999324 1.12499732,23.4962563 1.12499732,22.8749351 L1.12499732,4.77866478 C0.44517411,4.30428541 0,3.51684222 0,2.62498339 C0,1.13885717 1.23490611,-0.0587870686 2.7345821,0.00223268339 Z"></path></clipPath></defs><g clip-path="url(#i0)"><polygon points="0,1.28499641e-14 23.6249437,1.28499641e-14 23.6249437,23.9999324 0,23.9999324 0,1.28499641e-14" stroke="none" fill="#151515"></polygon></g></svg>