<?xml version="1.0" encoding="UTF-8"?><svg version="1.1" width="24px" height="24px" viewBox="0 0 24.0 24.0" xmlns="http://www.w3.org/2000/svg" xmlns:xlink="http://www.w3.org/1999/xlink"><defs><clipPath id="i0"><path d="M22,8 C23.1045736,8 24,8.89542643 24,10 L24,14 C24,15.1045736 23.1045736,16 22,16 L2,16 C0.895426432,16 0,15.1045736 0,14 L0,10 C0,8.89542643 0.895426432,8 2,8 Z M20,10.6666667 C19.2636312,10.6666667 18.6666667,11.2636312 18.6666667,12 C18.6666667,12.7363688 19.2636312,13.3333333 20,13.3333333 C20.7363688,13.3333333 21.3333333,12.7363688 21.3333333,12 C21.3333333,11.2636312 20.7363688,10.6666667 20,10.6666667 Z M16,10.6666667 C15.2636312,10.6666667 14.6666667,11.2636312 14.6666667,12 C14.6666667,12.7363688 15.2636312,13.3333333 16,13.3333333 C16.7363688,13.3333333 17.3333333,12.7363688 17.3333333,12 C17.3333333,11.2636312 16.7363688,10.6666667 16,10.6666667 Z M17.5962728,0 C18.1871338,0 18.9326579,0.399007161 19.2604167,0.89058431 L23.2823893,6.92354329 C22.9434814,6.78173828 22.3702799,6.66666667 22.002889,6.66666667 L1.997111,6.66666667 C1.62972005,6.66666667 1.05651855,6.78173828 0.717610677,6.92354329 L4.73962402,0.89058431 C5.06738281,0.398966471 5.81286621,0 6.40372721,0 Z"></path></clipPath></defs><g transform="translate(0.0 4.0)"><g clip-path="url(#i0)"><polygon points="0,0 24,0 24,16 0,16 0,0" stroke="none" fill="#151515"></polygon></g></g></svg>