<?xml version="1.0" encoding="UTF-8"?><svg version="1.1" width="24px" height="24px" viewBox="0 0 24.0 24.0" xmlns="http://www.w3.org/2000/svg" xmlns:xlink="http://www.w3.org/1999/xlink"><defs><clipPath id="i0"><path d="M15.7499167,0 C20.3197147,0 23.9999428,3.68018227 23.9999428,8.25002611 C23.9999428,12.806366 20.3063023,16.4999607 15.7499624,16.4999607 C15.224039,16.4999607 14.7097885,16.4502019 14.2111935,16.3560859 L13.0856469,17.6223945 C12.9003904,17.8308138 12.5236976,17.9999571 12.2448286,17.9999571 L10.499975,17.9999571 L10.499975,19.8749526 C10.499975,20.4962738 9.9962988,20.9999499 9.37497765,20.9999499 L7.49998212,20.9999499 L7.49998212,22.8749455 C7.49998212,23.4962666 6.99630595,23.9999428 6.3749848,23.9999428 L1.12499732,23.9999428 C0.503676167,23.9999428 0,23.4962666 0,22.8749455 L0,19.2159576 C0,18.917588 0.118560508,18.6313948 0.329497505,18.420412 L7.91393682,10.8359727 C7.64568795,10.0225286 7.49998212,9.15332901 7.49998212,8.24998033 C7.49998212,3.69364049 11.1935768,0 15.7499167,0 Z M17.9999571,3.74999106 C16.7573148,3.74999106 15.7499624,4.75734339 15.7499624,5.99998569 C15.7499624,7.242628 16.7573148,8.24998033 17.9999571,8.24998033 C19.2425994,8.24998033 20.2499517,7.242628 20.2499517,5.99998569 C20.2499517,4.75734339 19.2425994,3.74999106 17.9999571,3.74999106 Z"></path></clipPath></defs><g transform=""><g clip-path="url(#i0)"><polygon points="0,0 23.9999428,0 23.9999428,23.9999428 0,23.9999428 0,0" stroke="none" fill="#151515"></polygon></g></g></svg>