<?xml version="1.0" encoding="UTF-8"?><svg version="1.1" width="24px" height="24px" viewBox="0 0 24.0 24.0" xmlns="http://www.w3.org/2000/svg" xmlns:xlink="http://www.w3.org/1999/xlink"><defs><clipPath id="i0"><path d="M24,10.8 L24,14.4 L21.6,14.4 L21.6,13.3998779 C21.6,13.0683838 21.3314941,12.7998779 21,12.7998779 C20.6685059,12.7998779 20.4,13.0683838 20.4,13.3998779 L20.4,14.4 L15.6,14.4 L15.6,13.3998779 C15.6,13.0683838 15.3314941,12.7998779 15,12.7998779 C14.6685059,12.7998779 14.4,13.0683838 14.4,13.3998779 L14.4,14.4 L9.6,14.4 L9.6,13.3998779 C9.6,13.0683838 9.33149414,12.7998779 9,12.7998779 C8.66850586,12.7998779 8.4,13.0683838 8.4,13.3998779 L8.4,14.4 L3.6,14.4 L3.6,13.3998779 C3.6,13.0683838 3.33149414,12.7998779 3,12.7998779 C2.66850586,12.7998779 2.4,13.0683838 2.4,13.3998779 L2.4,14.4 L0,14.4 L0,10.8 L24,10.8 Z M22.8,0 C23.4626221,0 24,0.53737793 24,1.2 L24,2.51026611 C23.3025146,2.75811768 22.8,3.41737061 22.8,4.2 C22.8,4.98262939 23.3025146,5.64188232 24,5.88973389 L24,9.6 L0,9.6 L0,5.88973389 C0.697485352,5.64188232 1.2,4.98262939 1.2,4.2 C1.2,3.41737061 0.697485352,2.75811768 0,2.51026611 L0,1.2 C0,0.53737793 0.53737793,0 1.2,0 Z M8.4,2.4 L6,2.4 L6,7.2 L8.4,7.2 L8.4,2.4 Z M13.2,2.4 L10.8,2.4 L10.8,7.2 L13.2,7.2 L13.2,2.4 Z M18,2.4 L15.6,2.4 L15.6,7.2 L18,7.2 L18,2.4 Z"></path></clipPath></defs><g transform="translate(0.0 4.999999999999999)"><g clip-path="url(#i0)"><polygon points="0,0 24,0 24,14.4 0,14.4 0,0" stroke="none" fill="#151515"></polygon></g></g></svg>