<?xml version="1.0" encoding="UTF-8"?><svg version="1.1" width="24px" height="24px" viewBox="0 0 24.0 24.0" xmlns="http://www.w3.org/2000/svg" xmlns:xlink="http://www.w3.org/1999/xlink"><defs><clipPath id="i0"><path d="M17.2499589,0 C18.4926012,0 19.4999535,1.00735233 19.4999535,2.24999464 L19.4999535,21.7499481 C19.4999535,22.9925904 18.4926012,23.9999428 17.2499589,23.9999428 L6.74998391,23.9999428 C5.50734161,23.9999428 4.49998927,22.9925904 4.49998927,21.7499481 L4.49998927,2.24999464 C4.49998927,1.00735233 5.50734161,0 6.74998391,0 Z M22.5936961,17.624958 C22.7489234,17.624958 22.8749455,17.75098 22.8749455,17.9062073 L22.8749455,18.1874566 L23.7186935,18.1874566 C23.8739207,18.1874566 23.9999428,18.3134787 23.9999428,18.468706 L23.9999428,19.0312046 C23.9999428,19.1864319 23.8739207,19.312454 23.7186935,19.312454 L22.8749455,19.312454 L22.8749455,19.5937033 C22.8749455,19.7489306 22.7489234,19.8749526 22.5936961,19.8749526 L20.6249508,19.8749526 L20.6249508,17.624958 Z M3.37499195,17.624958 L3.37499195,19.8749526 L1.40624665,19.8749526 C1.25101936,19.8749526 1.12499732,19.7489306 1.12499732,19.5937033 L1.12499732,19.312454 L0.281249329,19.312454 C0.126022038,19.312454 0,19.1864319 0,19.0312046 L0,18.468706 C0,18.3134787 0.126022038,18.1874566 0.281249329,18.1874566 L1.12499732,18.1874566 L1.12499732,17.9062073 C1.12499732,17.75098 1.25101936,17.624958 1.40624665,17.624958 L3.37499195,17.624958 Z M22.5936961,13.1249687 C22.7489234,13.1249687 22.8749455,13.2509907 22.8749455,13.406218 L22.8749455,13.6874674 L23.7186935,13.6874674 C23.8739207,13.6874674 23.9999428,13.8134894 23.9999428,13.9687167 L23.9999428,14.5312154 C23.9999428,14.6864426 23.8739207,14.8124647 23.7186935,14.8124647 L22.8749455,14.8124647 L22.8749455,15.093714 C22.8749455,15.2489413 22.7489234,15.3749633 22.5936961,15.3749633 L20.6249508,15.3749633 L20.6249508,13.1249687 Z M3.37499195,13.1249687 L3.37499195,15.3749633 L1.40624665,15.3749633 C1.25101936,15.3749633 1.12499732,15.2489413 1.12499732,15.093714 L1.12499732,14.8124647 L0.281249329,14.8124647 C0.126022038,14.8124647 0,14.6864426 0,14.5312154 L0,13.9687167 C0,13.8134894 0.126022038,13.6874674 0.281249329,13.6874674 L1.12499732,13.6874674 L1.12499732,13.406218 C1.12499732,13.2509907 1.25101936,13.1249687 1.40624665,13.1249687 L3.37499195,13.1249687 Z M22.5936961,8.62497944 C22.7489234,8.62497944 22.8749455,8.75100147 22.8749455,8.90622877 L22.8749455,9.1874781 L23.7186935,9.1874781 C23.8739207,9.1874781 23.9999428,9.31350013 23.9999428,9.46872742 L23.9999428,10.0312261 C23.9999428,10.1864534 23.8739207,10.3124754 23.7186935,10.3124754 L22.8749455,10.3124754 L22.8749455,10.5937247 C22.8749455,10.748952 22.7489234,10.8749741 22.5936961,10.8749741 L20.6249508,10.8749741 L20.6249508,8.62497944 Z M3.37499195,8.62497944 L3.37499195,10.8749741 L1.40624665,10.8749741 C1.25101936,10.8749741 1.12499732,10.748952 1.12499732,10.5937247 L1.12499732,10.3124754 L0.281249329,10.3124754 C0.126022038,10.3124754 0,10.1864534 0,10.0312261 L0,9.46872742 C0,9.31350013 0.126022038,9.1874781 0.281249329,9.1874781 L1.12499732,9.1874781 L1.12499732,8.90622877 C1.12499732,8.75100147 1.25101936,8.62497944 1.40624665,8.62497944 L3.37499195,8.62497944 Z M22.5936961,4.12499017 C22.7489234,4.12499017 22.8749455,4.2510122 22.8749455,4.40623949 L22.8749455,4.68748882 L23.7186935,4.68748882 C23.8739207,4.68748882 23.9999428,4.81351086 23.9999428,4.96873815 L23.9999428,5.53123681 C23.9999428,5.6864641 23.8739207,5.81248614 23.7186935,5.81248614 L22.8749455,5.81248614 L22.8749455,6.09373547 C22.8749455,6.24896276 22.7489234,6.3749848 22.5936961,6.3749848 L20.6249508,6.3749848 L20.6249508,4.12499017 Z M3.37499195,4.12499017 L3.37499195,6.3749848 L1.40624665,6.3749848 C1.25101936,6.3749848 1.12499732,6.24896276 1.12499732,6.09373547 L1.12499732,5.81248614 L0.281249329,5.81248614 C0.126022038,5.81248614 0,5.6864641 0,5.53123681 L0,4.96873815 C0,4.81351086 0.126022038,4.68748882 0.281249329,4.68748882 L1.12499732,4.68748882 L1.12499732,4.40623949 C1.12499732,4.2510122 1.25101936,4.12499017 1.40624665,4.12499017 L3.37499195,4.12499017 Z"></path></clipPath></defs><g transform=""><g clip-path="url(#i0)"><polygon points="0,0 23.9999428,0 23.9999428,23.9999428 0,23.9999428 0,0" stroke="none" fill="#151515"></polygon></g></g></svg>