<?xml version="1.0" encoding="UTF-8"?><svg version="1.1" width="24px" height="24px" viewBox="0 0 24.0 24.0" xmlns="http://www.w3.org/2000/svg" xmlns:xlink="http://www.w3.org/1999/xlink"><defs><clipPath id="i0"><path d="M11.2079632,0 C13.9258806,0.0110260337 16.351608,1.24961715 17.9650842,3.18836141 C18.0014687,3.23233261 18.0091164,3.29338842 17.9847012,3.34497521 C17.9602861,3.396562 17.9082207,3.42935664 17.8511485,3.42909648 L16.7154671,3.42909648 C16.639331,3.42898076 16.5662082,3.39933639 16.5114855,3.34640123 C15.8323382,2.68577807 15.0374972,2.15567647 14.1666156,1.78254211 C14.4949985,2.23254746 14.7769871,2.71463715 15.0082695,3.22143951 C15.0287897,3.26719612 15.0248595,3.32021425 14.9978169,3.36244508 C14.9707744,3.40467591 14.9242641,3.43042782 14.8741194,3.43093415 L13.9865237,3.43093415 C13.8137825,3.43093415 13.7182236,3.27105666 13.6557427,3.15895865 C13.2863706,2.50107198 12.8508423,1.97366003 12.3969372,1.63185299 C12.2041879,1.48302873 11.9897491,1.36465353 11.7611026,1.28085758 L11.7611026,4.70444104 L12.992343,4.70444104 C13.0522622,4.70193762 13.107345,4.73719058 13.1301685,4.79264931 C13.2397941,5.08591185 13.3342529,5.38462245 13.41317,5.68759571 C13.4388974,5.77947933 13.3672282,5.8805513 13.2716692,5.8805513 L11.7611026,5.8805513 L11.7611026,8.23277182 L19.6924962,8.23277182 C19.8520552,8.23272195 19.9825347,8.35993946 19.9865237,8.5194487 L19.9938744,8.82266462 C19.9938744,9.02113323 19.9883614,9.21592649 19.9754977,9.41071975 C19.6722818,14.0085758 15.8462481,17.6416748 11.1730475,17.6416748 C9.77357972,17.6438143 8.39382318,17.3117907 7.14854518,16.6732006 C7.10695906,16.6514262 7.07815637,16.6112278 7.07090964,16.5648488 C7.06366293,16.5184697 7.07883012,16.471401 7.11179173,16.4379786 L7.77151608,15.7800919 C7.81506722,15.7366578 7.88105384,15.7249268 7.93690658,15.7506891 C8.01776417,15.7874426 8.09862175,15.824196 8.181317,15.8591118 L8.04900459,15.6735069 C8.00857229,15.6152188 8.01552937,15.5363718 8.06554364,15.4860643 L8.70137825,14.8502297 C8.73272444,14.819325 8.77626954,14.8040926 8.82004484,14.8087193 C8.86382016,14.8133459 8.90321888,14.8373447 8.92741194,14.8741194 C9.24165391,15.3500766 9.58897397,15.7396631 9.94915773,16.0098009 C10.141907,16.1586252 10.3563459,16.2770004 10.5849923,16.3607963 L10.5849923,13.1356815 C10.5848464,12.9797976 10.522697,12.8303745 10.4122511,12.7203675 L9.69739663,12.0036753 C9.65570334,11.9626486 9.64350796,11.9002174 9.66669701,11.8465164 C9.68988606,11.7928155 9.74369219,11.7588849 9.80214395,11.7611026 L10.5849923,11.7611026 L10.5849923,9.40888208 L3.55038285,9.40888208 C3.57540402,9.74112272 3.6220573,10.0713789 3.69004594,10.3975498 C3.71026034,10.4894334 3.64042879,10.5849923 3.5467075,10.5849923 L2.64808576,10.5849923 C2.57641654,10.5849923 2.51577335,10.5261868 2.50290965,10.4563553 C2.43859112,10.1145482 2.35222052,9.31332312 2.35222052,9.11485452 L2.35222052,8.87228178 C2.35222052,4.03185299 6.29402757,0.0257274119 11.1271057,0 Z M14.3320061,12.9372129 L11.7611026,12.9372129 L11.7611026,16.3589587 C11.9897491,16.2751627 12.2041879,16.1567875 12.3969372,16.0079632 C12.8508423,15.6679939 13.2863706,15.1387443 13.6557427,14.4808576 C13.9311796,13.9897014 14.1576889,13.4726691 14.3320061,12.9372129 Z M17.6232772,12.9280245 L15.5650842,12.9280245 C15.2232772,14.0784074 14.7436447,15.0781011 14.1666156,15.8591118 C15.0683453,15.4753601 15.8875957,14.9212897 16.5794793,14.2272588 C16.9731524,13.8330046 17.3231125,13.3974028 17.6232772,12.9280245 Z M6.38223583,10.4839204 L8.62235835,12.7185299 C8.73684777,12.8332969 8.73684777,13.0190768 8.62235835,13.1338438 L6.38223583,15.3776417 C6.19846861,15.5632466 5.8805513,15.4327718 5.8805513,15.1699847 L5.8805513,14.1133231 L0.294027565,14.1133231 C0.132312404,14.1133231 0,13.9718224 0,13.8101072 L0,12.0459418 C0,11.8842266 0.132312404,11.7611026 0.294027565,11.7611026 L5.8805513,11.7611026 L5.8805513,10.6915773 C5.8805513,10.4306279 6.19663093,10.2983155 6.38223583,10.4839204 Z M14.9476263,9.40888208 L11.7611026,9.40888208 L11.7611026,11.7611026 L14.6535988,11.7611026 C14.8201887,10.9871331 14.9185749,10.2000438 14.9476263,9.40888208 Z M18.7957121,9.40888208 L16.1237366,9.40888208 C16.0952704,10.1957682 16.0049458,10.9791956 15.8535988,11.7519142 L18.2352221,11.7519142 C18.546765,11.0061033 18.7360236,10.2149406 18.7957121,9.40888208 Z M21.6624809,3.44196018 L23.904441,5.67840735 C23.9614089,5.73537519 24,5.81071975 24,5.88606432 C24,5.96140888 23.9614089,6.03675345 23.9062787,6.09555896 L21.6661562,8.33935681 C21.482389,8.52496172 21.1644717,8.39448698 21.1644717,8.13169985 L21.1644717,7.05666156 L15.0027565,7.05666156 C14.9292496,7.05666156 14.8667688,7.01623277 14.8575804,6.94272588 C14.7987749,6.50535988 14.719755,6.07779479 14.6205207,5.66003063 C14.5598775,5.40275651 14.4900459,5.15283308 14.4147014,4.91026034 C14.3852986,4.81470138 14.4551302,4.70444104 14.5543645,4.70444104 L21.1607963,4.70444104 L21.1607963,3.64961715 C21.1607963,3.38866769 21.476876,3.25635528 21.6624809,3.44196018 Z M6.49617152,5.8805513 L4.11822358,5.8805513 C3.8023904,6.62856208 3.61059543,7.42305264 3.55038285,8.23277182 L6.22235835,8.23277182 C6.25100801,7.44267023 6.34256881,6.65610759 6.49617152,5.8805513 Z M10.5849923,5.8805513 L7.69617152,5.8805513 C7.52833996,6.65441008 7.42872375,7.44150103 7.39846861,8.23277182 L10.5849923,8.23277182 L10.5849923,5.8805513 Z M8.181317,1.78254211 C7.27958729,2.16629384 6.46033691,2.72036417 5.76845329,3.4143951 C5.38047139,3.80702446 5.03492069,4.23942481 4.73751914,4.70444104 L6.78652374,4.70444104 C7.12649311,3.56324655 7.60612557,2.55803982 8.181317,1.78254211 Z M10.5849923,1.28269525 C10.3563459,1.3664912 10.141907,1.4848664 9.94915773,1.63369066 C9.49525268,1.9754977 9.05972435,2.50290965 8.69035222,3.16079632 C8.43124043,3.62205207 8.20704441,4.143951 8.01960184,4.70444104 L10.5849923,4.70444104 Z"></path></clipPath></defs><g transform="translate(0.0 3.0)"><g clip-path="url(#i0)"><polygon points="0,0 24,0 24,17.641685 0,17.641685 0,0" stroke="none" fill="#151515"></polygon></g></g></svg>