<?xml version="1.0" encoding="UTF-8"?>
<svg width="24px" height="24px" viewBox="0 0 24 24" version="1.1" xmlns="http://www.w3.org/2000/svg" xmlns:xlink="http://www.w3.org/1999/xlink">
    <title></title>
    <g id="Icons" stroke="none" stroke-width="1" fill="none" fill-rule="evenodd">
        <g id="Icons/3.-Size-lg/Object/pficon-route" fill="#151515">
            <path d="M23.9062787,9.09555896 L21.6661562,11.3393568 C21.482389,11.5249617 21.1644717,11.394487 21.1644717,11.1316998 L21.1644717,10.0566616 L15.0027565,10.0566616 C14.9292496,10.0566616 14.8667688,10.0162328 14.8575804,9.94272588 C14.7987749,9.50535988 14.719755,9.07779479 14.6205207,8.66003063 C14.5598775,8.40275651 14.4900459,8.15283308 14.4147014,7.91026034 C14.3852986,7.81470138 14.4551302,7.70444104 14.5543645,7.70444104 L21.1607963,7.70444104 L21.1607963,6.64961715 C21.1607963,6.38866769 21.476876,6.25635528 21.6624809,6.44196018 L23.904441,8.67840735 C23.9614089,8.73537519 24,8.81071975 24,8.88606432 C24,8.96140888 23.9614089,9.03675345 23.9062787,9.09555896 Z M8.62235835,16.1338438 L6.38223583,18.3776417 C6.19846861,18.5632466 5.8805513,18.4327718 5.8805513,18.1699847 L5.8805513,17.1133231 L0.294027565,17.1133231 C0.132312404,17.1133231 0,16.9718224 0,16.8101072 L0,15.0459418 C0,14.8842266 0.132312404,14.7611026 0.294027565,14.7611026 L5.8805513,14.7611026 L5.8805513,13.6915773 C5.8805513,13.4306279 6.19663093,13.2983155 6.38223583,13.4839204 L8.62235835,15.7185299 C8.73684777,15.8332969 8.73684777,16.0190768 8.62235835,16.1338438 Z M19.9865237,11.5194487 C19.9825347,11.3599395 19.8520552,11.2327219 19.6924962,11.2327718 L11.7611026,11.2327718 L11.7611026,8.8805513 L13.2716692,8.8805513 C13.3672282,8.8805513 13.4388974,8.77947933 13.41317,8.68759571 C13.3342529,8.38462245 13.2397941,8.08591185 13.1301685,7.79264931 C13.107345,7.73719058 13.0522622,7.70193762 12.992343,7.70444104 L11.7611026,7.70444104 L11.7611026,4.28085758 C11.9897491,4.36465353 12.2041879,4.48302873 12.3969372,4.63185299 C12.8508423,4.97366003 13.2863706,5.50107198 13.6557427,6.15895865 C13.7182236,6.27105666 13.8137825,6.43093415 13.9865237,6.43093415 L14.8741194,6.43093415 C14.9242641,6.43042782 14.9707744,6.40467591 14.9978169,6.36244508 C15.0248595,6.32021425 15.0287897,6.26719612 15.0082695,6.22143951 C14.7769871,5.71463715 14.4949985,5.23254746 14.1666156,4.78254211 C15.0374972,5.15567647 15.8323382,5.68577807 16.5114855,6.34640123 C16.5662082,6.39933639 16.639331,6.42898076 16.7154671,6.42909648 L17.8511485,6.42909648 C17.9082207,6.42935664 17.9602861,6.396562 17.9847012,6.34497521 C18.0091164,6.29338842 18.0014687,6.23233261 17.9650842,6.18836141 C16.351608,4.24961715 13.9258806,3.01102603 11.2079632,3 L11.1271057,3 C6.29402757,3.02572741 2.35222052,7.03185299 2.35222052,11.8722818 L2.35222052,12.1148545 C2.35222052,12.3133231 2.43859112,13.1145482 2.50290965,13.4563553 C2.51577335,13.5261868 2.57641654,13.5849923 2.64808576,13.5849923 L3.5467075,13.5849923 C3.64042879,13.5849923 3.71026034,13.4894334 3.69004594,13.3975498 C3.6220573,13.0713789 3.57540402,12.7411227 3.55038285,12.4088821 L10.5849923,12.4088821 L10.5849923,14.7611026 L9.80214395,14.7611026 C9.74369219,14.7588849 9.68988606,14.7928155 9.66669701,14.8465164 C9.64350796,14.9002174 9.65570334,14.9626486 9.69739663,15.0036753 L10.4122511,15.7203675 C10.522697,15.8303745 10.5848464,15.9797976 10.5849923,16.1356815 L10.5849923,19.3607963 C10.3563459,19.2770004 10.141907,19.1586252 9.94915773,19.0098009 C9.58897397,18.7396631 9.24165391,18.3500766 8.92741194,17.8741194 C8.90321888,17.8373447 8.86382016,17.8133459 8.82004484,17.8087193 C8.77626954,17.8040926 8.73272444,17.819325 8.70137825,17.8502297 L8.06554364,18.4860643 C8.01552937,18.5363718 8.00857229,18.6152188 8.04900459,18.6735069 C8.09310873,18.7359877 8.13721286,18.7984686 8.181317,18.8591118 C8.09862175,18.824196 8.01776417,18.7874426 7.93690658,18.7506891 C7.88105384,18.7249268 7.81506722,18.7366578 7.77151608,18.7800919 L7.11179173,19.4379786 C7.07883012,19.471401 7.06366293,19.5184697 7.07090964,19.5648488 C7.07815637,19.6112278 7.10695906,19.6514262 7.14854518,19.6732006 C8.39382318,20.3117907 9.77357972,20.6438143 11.1730475,20.6416748 C15.8462481,20.6416748 19.6722818,17.0085758 19.9754977,12.4107198 C19.9883614,12.2159265 19.9938744,12.0211332 19.9938744,11.8226646 L19.9865237,11.5194487 Z M6.22235835,11.2327718 L3.55038285,11.2327718 C3.61059543,10.4230526 3.8023904,9.62856208 4.11822358,8.8805513 L6.49617152,8.8805513 C6.34256881,9.65610759 6.25100801,10.4426702 6.22235835,11.2327718 L6.22235835,11.2327718 Z M4.73751914,7.70444104 C5.03492069,7.23942481 5.38047139,6.80702446 5.76845329,6.4143951 C6.46033691,5.72036417 7.27958729,5.16629384 8.181317,4.78254211 C7.60612557,5.55803982 7.12649311,6.56324655 6.78652374,7.70444104 L4.73751914,7.70444104 Z M10.5849923,11.2327718 L7.39846861,11.2327718 C7.42872375,10.441501 7.52833996,9.65441008 7.69617152,8.8805513 L10.5849923,8.8805513 L10.5849923,11.2327718 Z M10.5849923,7.70444104 L8.01960184,7.70444104 C8.20704441,7.143951 8.43124043,6.62205207 8.69035222,6.16079632 C9.05972435,5.50290965 9.49525268,4.9754977 9.94915773,4.63369066 C10.141907,4.4848664 10.3563459,4.3664912 10.5849923,4.28269525 L10.5849923,7.70444104 Z M10.5878982,4.1467879 L10.7228982,4.1467879 L10.7228982,4.0117879 L10.5878982,4.0117879 L10.5878982,4.1467879 Z M11.7611026,12.4088821 L14.9476263,12.4088821 C14.9185749,13.2000438 14.8201887,13.9871331 14.6535988,14.7611026 L11.7611026,14.7611026 L11.7611026,12.4088821 Z M12.3969372,19.0079632 C12.2041879,19.1567875 11.9897491,19.2751627 11.7611026,19.3589587 L11.7611026,15.9372129 L14.3320061,15.9372129 C14.1576889,16.4726691 13.9311796,16.9897014 13.6557427,17.4808576 C13.2863706,18.1387443 12.8508423,18.6679939 12.3969372,19.0079632 L12.3969372,19.0079632 Z M16.5794793,17.2272588 C15.8875957,17.9212897 15.0683453,18.4753601 14.1666156,18.8591118 C14.7436447,18.0781011 15.2232772,17.0784074 15.5650842,15.9280245 L17.6232772,15.9280245 C17.3231125,16.3974028 16.9731524,16.8330046 16.5794793,17.2272588 L16.5794793,17.2272588 Z M18.2352221,14.7519142 L15.8535988,14.7519142 C16.0049458,13.9791956 16.0952704,13.1957682 16.1237366,12.4088821 L18.7957121,12.4088821 C18.7360236,13.2149406 18.546765,14.0061033 18.2352221,14.7519142 L18.2352221,14.7519142 Z" id="pficon-route"></path>
        </g>
    </g>
</svg>