<?xml version="1.0" encoding="UTF-8"?>
<svg width="24px" height="24px" viewBox="0 0 24 24" version="1.1" xmlns="http://www.w3.org/2000/svg" xmlns:xlink="http://www.w3.org/1999/xlink">
    <title></title>
    <g id="Icons" stroke="none" stroke-width="1" fill="none" fill-rule="evenodd">
        <g id="Icons/3.-Size-lg/Object/pficon-cloud-security" fill="#151515">
            <path d="M9.60234375,3.00000636 C10.9171875,3.00000636 12.1101563,3.37267543 13.18125,4.12501918 C14.2523438,4.87736293 15.0375,5.85236293 15.5273438,7.06876918 C16.1109375,6.54142543 16.8023437,6.27423793 17.6015625,6.27423793 C18.4851563,6.27423793 19.2421875,6.59533168 19.85625,7.23517543 C20.4867188,7.87267543 20.7960937,8.64376918 20.7960937,9.55080043 C20.7999645,10.1761038 20.6224902,10.7891225 20.2851562,11.3156442 C21.3609375,11.5726754 22.2492187,12.1453317 22.95,13.0336129 C23.6500001,13.9226754 24,14.9414254 24,16.0898629 C24,17.4468942 23.5359375,18.6023629 22.5960938,19.5633004 C21.6633281,20.5076676 20.5467937,20.9903158 19.2396682,21.0000192 L19.2,21.0000192 L5.59921875,21.0000192 C4.05781249,20.9984567 2.73984375,20.4375192 1.6453125,19.3172067 C0.5484375,18.1953317 0,16.8468942 0,15.2718942 C0,14.1484567 0.296093749,13.1203317 0.88828125,12.1875192 C1.48203125,11.2515817 2.26171875,10.5539254 3.22734375,10.0945504 C3.2109375,9.85548793 3.2015625,9.67033168 3.2015625,9.54376918 C3.2015625,7.73908168 3.825,6.19220668 5.0765625,4.91486293 C6.32890624,3.63595669 7.8375,2.99767543 9.60234375,3.00000636 Z M12,7.50001918 C11.1773438,7.50001918 10.471875,7.79533168 9.88125,8.38830043 C9.290625,8.98126918 8.9953125,9.68205043 8.9953125,10.5093942 L8.9953125,11.9859567 L8.25234375,11.9859567 C8.04375,11.9859567 7.865625,12.0351754 7.7203125,12.1804879 C7.57748421,12.3213909 7.49797615,12.5142402 7.5,12.7148629 L7.5,17.2265817 C7.49671252,17.427446 7.57641748,17.6207729 7.7203125,17.7609567 C7.86796875,17.9062692 8.04375,18.0000192 8.25234375,18.0000192 L15.7453125,18.0000192 C15.9539063,18.0000192 16.1320312,17.9062692 16.2773438,17.7609567 C16.420172,17.6200537 16.4996801,17.4272044 16.4976562,17.2265817 L16.5023438,12.7172067 C16.5067953,12.5161235 16.4269064,12.3223504 16.2820313,12.1828317 C16.134375,12.0375192 15.9585938,11.9859567 15.75,11.9859567 L15.0023438,11.9859567 L15.0023438,10.5093942 C15.0023438,9.68439418 14.7117188,8.98126918 14.1210938,8.38830043 C13.5304688,7.79533168 12.8226563,7.50001918 12,7.50001918 Z M12,9.03986293 C12.4148438,9.03986293 12.7710938,9.18517543 13.059375,9.47814418 C13.3467642,9.75588193 13.5062807,10.1402489 13.5,10.5398629 L13.5,12.0000192 L10.5,12.0000192 L10.5,10.5398629 C10.5,9.7114358 11.1715729,9.03986293 12,9.03986293 Z" id="pficon-cloud-security"></path>
        </g>
    </g>
</svg>