<?xml version="1.0" encoding="UTF-8"?><svg version="1.1" width="24px" height="24px" viewBox="0 0 24.0 24.0" xmlns="http://www.w3.org/2000/svg" xmlns:xlink="http://www.w3.org/1999/xlink"><defs><clipPath id="i0"><path d="M5.3426305,9.33493578 C5.43848029,9.33493578 5.53224638,9.35160531 5.62601248,9.38702806 L10.1247014,11.8582856 C10.2872293,11.9187126 10.4164181,12.0187298 10.5143516,12.1604208 C10.6122851,12.3021118 10.6622937,12.4583886 10.6622937,12.6292513 L10.6622937,18.0322621 C10.6622937,18.3323136 10.4476735,18.4719209 10.235137,18.5865239 L5.73436441,21.2348952 C5.61559403,21.303657 5.48432149,21.3369961 5.34471419,21.3369961 L5.31554252,21.3369961 C5.17593522,21.3369961 5.04466268,21.303657 4.9258923,21.2348952 L0.42511969,18.5865239 C0.20216475,18.4615025 -0.00203697031,18.3323136 1.53391393e-05,17.9739188 L1.53391393e-05,12.631335 C1.53391393e-05,12.4604723 0.0479716143,12.3021118 0.145905092,12.1625045 C0.243838571,12.0208135 0.375111106,11.9207963 0.535555314,11.8603693 L5.03424423,9.38702806 C5.12592663,9.35160531 5.22177642,9.33493578 5.31345883,9.33493578 Z M18.678253,9.33493578 C18.7741028,9.33493578 18.8678689,9.35160531 18.961635,9.38702806 L23.460324,11.8582856 C23.6228519,11.9187126 23.7520408,12.0187298 23.8499742,12.1604208 C23.9479077,12.3021118 23.9979163,12.4583886 24,12.6292513 L24,18.0322621 C24,18.3323136 23.7853798,18.4719209 23.5728433,18.5865239 L19.0720706,21.2348952 C18.9533003,21.303657 18.8220277,21.3369961 18.6824204,21.3369961 L18.6532488,21.3369961 C18.5136415,21.3369961 18.3823689,21.303657 18.2635985,21.2348952 L13.7628259,18.5865239 C13.539871,18.4615025 13.3356693,18.3323136 13.3356693,17.9739188 L13.3356693,12.631335 C13.3356693,12.4604723 13.3835942,12.3021118 13.4815276,12.1625045 C13.5794611,12.0208135 13.7107336,11.9207963 13.8711779,11.8603693 L18.3698668,9.38702806 C18.4615492,9.35160531 18.557399,9.33493578 18.6490814,9.33493578 Z M9.89341169,16.0027471 L5.32804466,18.6698716 L0.741840726,16.0027471 L0.741840726,17.3363093 L5.33012836,20.0034338 L9.89341169,17.3363093 L9.89341169,16.0027471 Z M23.2290343,16.0027471 L18.6636672,18.6698716 L14.0774633,16.0027471 L14.0774633,17.3363093 L18.6636672,20.0034338 L23.2290343,17.3363093 L23.2290343,16.0027471 Z M9.89341169,13.3356225 L5.32804466,16.0027471 L0.741840726,13.3356225 L0.741840726,14.6691848 L5.33012836,17.3363093 L9.89341169,14.6691848 L9.89341169,13.3356225 Z M23.2290343,13.3356225 L18.6636672,16.0027471 L14.0774633,13.3356225 L14.0774633,14.6691848 L18.6636672,17.3363093 L23.2290343,14.6691848 L23.2290343,13.3356225 Z M12.0104418,0 C12.1062916,0 12.2000577,0.0166695282 12.2938238,0.0520922756 L16.7925127,1.68987342 C16.9550406,1.75030046 17.0842294,1.85031763 17.1821629,1.99200862 C17.2800964,2.13369961 17.330105,2.28997643 17.3321886,2.4608391 L17.3321886,7.55129627 C17.3321886,7.85134777 17.1175685,7.99095507 16.905032,8.10555808 L12.4042594,10.5663972 C12.285489,10.635159 12.1542165,10.668498 12.0146092,10.668498 L11.9854375,10.668498 C11.8458302,10.668498 11.7145576,10.635159 11.5957873,10.5663972 L7.09501465,8.10555808 C6.87205971,7.98053662 6.66785799,7.85134777 6.66785799,7.49295292 L6.66785799,2.46292279 C6.66785799,2.29206012 6.71786658,2.13369961 6.81371636,1.99409231 C6.91164984,1.85240132 7.04292238,1.75238415 7.20336658,1.69195711 L11.7020555,0.0520922756 C11.7937379,0.0166695282 11.8895877,0 11.9812701,0 Z M16.561223,5.66763958 L11.9958559,8.00137353 L7.409652,5.66763958 L7.409652,6.92410527 L11.9979396,9.33493578 L16.561223,6.92410527 L16.561223,5.66763958 Z M16.561223,3.00051507 L11.9958559,5.33424902 L7.409652,3.00051507 L7.409652,4.33407733 L11.9979396,6.66781127 L16.561223,4.33407733 L16.561223,3.00051507 Z"></path></clipPath></defs><g transform="translate(0.0 1.0)"><g clip-path="url(#i0)"><polygon points="-1.69740659e-15,0 24,0 24,21.3369961 -1.69740659e-15,21.3369961 -1.69740659e-15,0" stroke="none" fill="#151515"></polygon></g></g></svg>