<?xml version="1.0" encoding="UTF-8"?><svg version="1.1" width="24px" height="24px" viewBox="0 0 24.0 24.0" xmlns="http://www.w3.org/2000/svg" xmlns:xlink="http://www.w3.org/1999/xlink"><defs><clipPath id="i0"><path d="M6,0 C7.1390625,0 7.7109375,0.11484375 8.615625,0.86484375 L14.5125,6.8390625 L14.8875,6.4640625 L16.5890625,4.7765625 C16.8375,4.509375 17.1421875,4.4484375 17.4984375,4.59375 C17.8359375,4.7390625 18.0047102,4.996875 18.0047102,5.3625 L18.0047102,11.1890625 C18.0058657,11.410207 17.9160235,11.622099 17.75625,11.775 C17.5921875,11.9390625 17.3953125,12 17.1703125,12 L11.3390625,12 C10.9734375,12 10.715625,11.85 10.5703125,11.503125 C10.425,11.1609375 10.4859375,10.865625 10.753125,10.603125 L12.8109375,8.5453125 L7.3265625,2.96015625 C6.8578125,2.58515625 6.3140625,2.45859375 5.971875,2.46328125 C5.9484375,2.45859375 5.9296875,2.46328125 5.9109375,2.45859375 L5.803125,2.45859375 C3.8859375,2.51484375 2.4375,4.0875 2.4375,6.01875 C2.4375,7.9640625 3.825,9.5015625 5.7609375,9.52734375 C6.42437674,9.47839359 7.06162256,9.24814193 7.603125,8.86171875 C7.9579245,8.60210234 8.42495602,8.55343066 8.82566198,8.73431213 C9.22636795,8.91519356 9.49878244,9.29765627 9.5387547,9.73547541 C9.57872698,10.1732945 9.38007567,10.5987649 9.01875,10.8492187 L8.8921875,10.9335938 L8.90625,10.9429687 C8.0671875,11.5992187 7.125,12 6,12 C2.6859375,12 0,9.33046875 0,6.01875 C0,2.70703125 2.6859375,0 6,0 Z M18,0 C21.3140625,0 24,2.6859375 24,6.00703125 C24,8.803125 22.0875,11.1515625 19.5,11.8171875 L19.5,9.234375 C20.7567677,8.6489253 21.5609194,7.38878304 21.5625,6.00234375 C21.5625,4.040625 19.9640625,2.4421875 18,2.4421875 L18,2.4328125 C17.9194597,2.44621976 17.8378933,2.45249409 17.75625,2.4515625 C16.9971254,2.43746498 16.2527377,2.66209298 15.628125,3.09375 C15.2700686,3.35484539 14.798507,3.40101551 14.3966085,3.21432652 C13.9947099,3.02763752 13.7258152,2.63751234 13.6943709,2.19548693 C13.6629266,1.75346152 13.8738883,1.32920081 14.2453125,1.0875 C15.2870594,0.368022211 16.52788,-0.00733830469 17.79375,0.0140625 C17.8629655,0.0131086172 17.9320912,0.01939275 18,0.0328125 Z"></path></clipPath></defs><g transform="translate(0.0 6.0)"><g clip-path="url(#i0)"><polygon points="0,0 24,0 24,12 0,12 0,0" stroke="none" fill="#151515"></polygon></g></g></svg>