<?xml version="1.0" encoding="UTF-8"?><svg version="1.1" width="24px" height="24px" viewBox="0 0 24.0 24.0" xmlns="http://www.w3.org/2000/svg" xmlns:xlink="http://www.w3.org/1999/xlink"><defs><clipPath id="i0"><path d="M22.5882353,1.41176471 C24,1.41176471 24,2.88529412 24,2.88529412 L24,19.7647059 C24,21.0678733 22.0772015,21.128646 21.7813864,21.1302846 L21.7433824,21.1301471 C19.0389706,17.0448529 12.7058824,21.1764706 12.7058824,21.1764706 L12.7058824,19.7073529 C19.0367647,15.3683824 22.5882353,19.7647059 22.5882353,19.7647059 L22.5882353,1.41176471 Z M1.41176471,1.41176471 L1.41176471,19.7647059 C1.41176471,19.7625 4.98529412,15.3683824 11.2941176,19.7073529 L11.2941176,21.1764706 L11.2748818,21.1640605 C10.8934436,20.91998 4.93797438,17.2001186 2.26102941,21.1301471 L2.22295108,21.1302846 C1.92655761,21.128646 0,21.0678733 0,19.7647059 L0.000816993464,2.85630106 C0.00980392157,2.64993873 0.117647059,1.41176471 1.41176471,1.41176471 Z M21.1764706,0 L21.1764706,16.9411765 C19.8264706,16.5683824 16.2794118,16.0698529 12.7058824,18.3529412 L12.7058824,2.82352941 C15.1610294,1.24852941 19.2926471,0 21.1764706,0 Z M2.82352941,0 C4.69632353,0 8.83676471,1.24191176 11.2941176,2.82352941 L11.2941176,18.3529412 C7.76470588,16.0698529 4.17573529,16.5705882 2.82352941,16.9411765 L2.82352941,0 Z"></path></clipPath></defs><g transform="translate(0.0 1.0)"><g clip-path="url(#i0)"><polygon points="0,0 24,0 24,21.1764706 0,21.1764706 0,0" stroke="none" fill="#151515"></polygon></g></g></svg>