<?xml version="1.0" encoding="UTF-8"?><svg version="1.1" width="24px" height="24px" viewBox="0 0 24.0 24.0" xmlns="http://www.w3.org/2000/svg" xmlns:xlink="http://www.w3.org/1999/xlink"><defs><clipPath id="i0"><path d="M12.0023438,0 L24,2.57109375 L24,20.5710938 L15.4289062,24 L13.7132813,24 L0,20.6789062 L0,2.57109375 L10.2867187,0 L12.0023438,0 Z M22.5,4.76015625 L15,7.6640625 L15,22.3242188 L16.5,21.7148438 L16.5,19.6734375 L20.9976562,17.8945312 L20.9976562,19.9148437 L22.5,19.3171875 L22.5,4.76015625 Z M1.715625,4.70859375 L1.715625,19.3382813 L3.009375,19.6359375 L3.009375,17.0320313 L11.990625,19.2046875 L11.990625,21.7734375 L13.5,22.1320312 L13.5,7.3265625 L1.715625,4.70859375 Z M21.0023438,12.7546875 L21.0023438,16.1835937 L16.5,17.9601562 L16.5,14.53125 L21.0023438,12.7546875 Z M3.009375,11.8898438 L11.990625,14.0085938 L11.990625,17.465625 L3.009375,15.31875 L3.009375,11.8898438 Z M21,7.6125 L21,11.0390625 L16.5,12.815625 L16.5,9.38671875 L21,7.6125 Z M3.009375,6.81796875 L11.990625,8.82890625 L11.990625,12.309375 L3.009375,10.1765625 L3.009375,6.81796875 Z"></path></clipPath></defs><g clip-path="url(#i0)"><polygon points="0,0 24,0 24,24 0,24 0,0" stroke="none" fill="#151515"></polygon></g></svg>