<?xml version="1.0" encoding="UTF-8"?><svg version="1.1" width="24px" height="24px" viewBox="0 0 24.0 24.0" xmlns="http://www.w3.org/2000/svg" xmlns:xlink="http://www.w3.org/1999/xlink"><defs><clipPath id="i0"><path d="M19.4241841,12.7926559 L19.3093374,19.6553323 L15.9389383,22.7069732 C15.6764039,22.943543 15.3095399,23.0261539 14.9709446,22.9249477 L7.52934711,20.6912964 L7.43793851,13.3575142 L15.1842314,15.1903738 C15.4538428,15.2540174 15.7377622,15.2040137 15.9694078,15.052089 L19.4241841,12.7926559 Z M0.252050689,11.6582518 L5.80617782,12.9731293 L5.93039976,20.2131591 L1.18723098,18.7904663 C0.771692028,18.6666737 0.481900589,18.2909831 0.467681231,17.8576299 L0.252050689,11.6582518 Z M23.8214066,9.91914455 L23.6760904,15.2794386 C23.6694309,15.5556665 23.5489996,15.8168838 23.3432692,16.0013321 L20.7557027,18.3451424 L20.8705494,11.8481004 L23.8214066,9.91914455 Z M11.8297701,2.5853623 L18.7182285,3.57913784 C19.2213378,3.65240326 19.5917025,4.08800832 19.5830944,4.59635149 L19.477623,10.9176077 L16.0001117,13.0478968 C15.7769961,13.1839051 15.5099462,13.2284135 15.2547801,13.1721188 L7.44286051,11.444965 L7.36214029,4.84010775 C7.35803303,4.402909 7.63512477,4.01246584 8.04920422,3.87211412 L11.8297701,2.5853623 Z M4.67224242,1.55174198 L10.2059784,2.35098127 C8.93094564,2.76896076 7.65591286,3.18772153 6.38088009,3.60726356 C5.9613377,3.74510215 5.67979748,4.13850006 5.68429969,4.57971043 L5.76867685,11.0767524 L0.213846581,9.84859586 L0.000559848985,3.7031254 C-0.0147560356,3.24068138 0.285572943,2.82676395 0.729953598,2.69786519 L4.67224242,1.55174198 Z M16.93037,0.829848424 L23.1135758,1.58432094 C23.6307908,1.64611577 24.0152324,2.09259665 23.9995362,2.61325364 L23.8565637,8.23605442 L20.924457,10.0314131 L21.0315692,3.94711605 C21.0404879,3.43571034 20.6662658,2.99811199 20.1596718,2.92755859 L13.524345,2.00878498 L16.93037,0.829848424 Z M10.1368386,0.000109404834 L10.2716051,0.00717102836 L15.460801,0.625936933 C14.283427,1.01266562 13.1052717,1.39939431 11.9263351,1.786123 L6.46947612,1.02907229 L9.87081354,0.0399843718 C10.000843,0.00219598173 10.1371608,-0.00896454654 10.2716051,0.00717102836 Z"></path></clipPath></defs><g transform="translate(0.0 1.0)"><g clip-path="url(#i0)"><polygon points="-2.22044605e-16,8.67361738e-19 24,8.67361738e-19 24,22.9673842 -2.22044605e-16,22.9673842 -2.22044605e-16,8.67361738e-19" stroke="none" fill="#151515"></polygon></g></g></svg>