<?xml version="1.0" encoding="UTF-8"?>
<svg width="24px" height="24px" viewBox="0 0 24 24" version="1.1" xmlns="http://www.w3.org/2000/svg" xmlns:xlink="http://www.w3.org/1999/xlink">
    <title></title>
    <g id="Icons" stroke="none" stroke-width="1" fill="none" fill-rule="evenodd">
        <g id="Icons/3.-Size-lg/Object/pficon-services" fill="#151515">
            <path d="M7.21953125,7.88671875 C6.18359375,7.88671875 5.34453125,8.728125 5.34453125,9.76171875 C5.34453125,10.7953125 6.1859375,11.6367188 7.21953125,11.6367188 C8.253125,11.6367188 9.09453125,10.7953125 9.09453125,9.76171875 C9.09453125,8.728125 8.25546875,7.88671875 7.21953125,7.88671875 Z M7.21953125,10.5117188 C6.80703125,10.5117188 6.46953125,10.1742188 6.46953125,9.76171875 C6.46953125,9.34921875 6.80703125,9.01171875 7.21953125,9.01171875 C7.63203125,9.01171875 7.96953125,9.34921875 7.96953125,9.76171875 C7.96953125,10.1742188 7.63203125,10.5117188 7.21953125,10.5117188 Z M6.5,0.75 C4.84296875,0.75 3.5,2.0953125 3.5,3.75234375 C3.5,5.409375 4.84296875,6.75 6.5,6.75 C8.15703125,6.75 9.5,5.40703125 9.5,3.75234375 C9.5,2.09765625 8.15703125,0.75 6.5,0.75 Z M6.5,4.87734375 C5.87890625,4.87734375 5.375,4.3734375 5.375,3.75234375 C5.375,3.13125 5.87890625,2.625 6.5,2.625 C7.12109375,2.625 7.625,3.12890625 7.625,3.75 C7.625,4.37109375 7.12109375,4.87734375 6.5,4.87734375 Z M22.7398437,5.484375 L20.4898437,5.29921875 C20.3960937,5.00390625 20.440625,5.090625 20.3046875,4.8 C20.6,4.38984375 21.3875,3.58125 21.6921875,3.17109375 C21.734375,3.11015625 21.7648437,3.04453125 21.7648437,2.971875 C21.7648437,2.6765625 20.5179687,1.5375 20.2460937,1.284375 C20.1851562,1.23046875 20.1101562,1.2 20.0257812,1.2 C19.953125,1.2 19.878125,1.22109375 19.8171875,1.27265625 L18.2515625,2.6390625 C17.9984375,2.5125 17.9609375,2.5125 17.684375,2.43046875 L17.5414062,0.26953125 C17.5273437,0.11484375 17.3796875,0 17.2320312,0 L15.2726562,0 C15.125,0 14.9984375,0.10546875 14.9585937,0.253125 C14.8226562,0.76875 14.890625,1.91015625 14.8367187,2.43984375 C14.553125,2.53359375 14.5789062,2.5546875 14.309375,2.69296875 L12.6851562,1.26796875 C12.6242187,1.22578125 12.5492187,1.1953125 12.4648437,1.1953125 C12.1578125,1.1953125 10.9765625,2.47265625 10.7679687,2.75625 C10.7140625,2.8171875 10.6953125,2.8921875 10.6953125,2.96484375 C10.6953125,3.0375 10.728125,3.1125 10.7679687,3.1734375 C11.103125,3.57421875 11.834375,4.25625 12.1296875,4.678125 C11.99375,4.940625 12.0148437,5.0625 11.9304687,5.34140625 L9.74375,5.446875 C9.6078125,5.46796875 9.50234375,5.62734375 9.50234375,5.7609375 L9.5,7.71328125 C9.5,7.8609375 9.60546875,7.996875 9.753125,8.0203125 L11.9609375,8.16328125 C12.0546875,8.45859375 12.0335937,8.3625 12.18125,8.653125 C11.8742187,9.06328125 11.103125,9.9421875 10.7984375,10.340625 C10.75625,10.4015625 10.7257812,10.4671875 10.7257812,10.5398438 C10.7257812,10.846875 11.9726562,11.9742188 12.2445312,12.2273438 C12.3054687,12.28125 12.3804687,12.3117187 12.4648437,12.3117187 C12.5375,12.3117187 12.6242187,12.290625 12.6734375,12.2390625 L14.2273437,10.7882813 C14.4804687,10.9148437 14.5015625,10.903125 14.7804687,10.9875 L14.9539062,13.2375 C14.975,13.3851562 15.1226562,13.5 15.2679687,13.5 L17.2273437,13.5 C17.375,13.5 17.5015625,13.3945312 17.5414062,13.246875 C17.6773437,12.73125 17.5789062,11.5289062 17.6304687,10.9851562 C17.9140625,10.9007812 17.8882812,10.8867188 18.1578125,10.7484375 L19.8148437,12.2296875 C19.8757812,12.271875 19.9507812,12.3023438 20.0351562,12.3023438 C20.3421875,12.3023438 21.5234375,11.0132812 21.7320312,10.7320312 C21.7859375,10.678125 21.8046875,10.6054688 21.8046875,10.5328125 C21.8046875,10.4484375 21.771875,10.3851562 21.7320312,10.3242188 C21.396875,9.9234375 20.5132812,9.178125 20.2179687,8.75859375 C20.3539062,8.49609375 20.328125,8.50078125 20.4125,8.221875 L22.75625,8.0484375 C22.8921875,8.02734375 22.9976562,7.86796875 22.9976562,7.734375 L22.9976562,5.784375 C22.9929687,5.653125 22.8875,5.51484375 22.7398437,5.484375 Z M16.2101562,9.40546875 C14.759375,9.40546875 13.5710937,8.22421875 13.5710937,6.76640625 C13.5710937,5.30859375 14.7546875,4.12734375 16.2101562,4.12734375 C17.665625,4.12734375 18.8492187,5.30859375 18.8492187,6.76640625 C18.8492187,8.22421875 17.6679687,9.40546875 16.2101562,9.40546875 Z M22.2429687,15 C21.059375,13.8164062 19.9929687,15 19.9929687,15 L15.4929687,19.5 L10.9460937,19.5 C10.9460937,19.5 10.1960937,19.5 10.1960937,18.75 C10.1960937,18 10.9929687,18 10.9929687,18 L14.7429687,18 C14.7429687,18 15.4929687,18 15.4929687,17.25 C15.4929687,16.5 14.7429687,16.5 14.7429687,16.5 L6.51640625,16.4882812 C6.040625,16.4765625 5.13359375,16.5703125 4.26640625,17.53125 L2,19.921875 L6.49296875,24 L7.99296875,22.5 L16.68125,22.5 C16.8804687,22.5 17.0726562,22.4203125 17.2132812,22.2796875 L18.4929687,21 L22.2429687,17.25 C22.2429687,17.25 23.4265625,16.1835937 22.2429687,15 L22.2429687,15 Z" id="pficon-services"></path>
        </g>
    </g>
</svg>