<?xml version="1.0" encoding="UTF-8"?><svg version="1.1" width="24px" height="24px" viewBox="0 0 24.0 24.0" xmlns="http://www.w3.org/2000/svg" xmlns:xlink="http://www.w3.org/1999/xlink"><defs><clipPath id="i0"><path d="M10.6605923,0 C11.3895216,0 12.088079,0.0911161731 12.7562642,0.273348519 C13.4244495,0.455580866 14.0622627,0.722854973 14.6697039,1.07517084 C15.2892938,1.43963554 15.8420653,1.86180714 16.3280182,2.34168565 C16.8139711,2.82156416 17.2331055,3.37129841 17.5854214,3.99088838 L17.6036446,4.00911162 L19.9908884,4.00911162 L19.9908884,1.33029613 L24,4.6833713 L19.9908884,8.01822323 L19.9908884,5.33940774 L18.2232346,5.33940774 C18.3690205,5.76461655 18.4783599,6.19893698 18.5512528,6.64236902 C18.6241458,7.08580106 18.6605923,7.53834472 18.6605923,8 C18.6605923,8.72892938 18.5725133,9.42748671 18.3963554,10.095672 C18.2201974,10.7638573 17.9498861,11.4016705 17.5854214,12.0091116 C17.2331055,12.6287016 16.8139711,13.181473 16.3280182,13.667426 C15.8420653,14.1533789 15.2953683,14.5725133 14.6879271,14.9248292 C14.0683371,15.2892938 13.4244495,15.5596052 12.7562642,15.7357631 C12.088079,15.911921 11.3895216,16 10.6605923,16 C9.94381169,16 9.24829157,15.911921 8.57403189,15.7357631 C7.89977221,15.5596052 7.25892179,15.2892938 6.65148064,14.9248292 C6.04403948,14.5725133 5.49734244,14.1533789 5.01138952,13.667426 C4.5254366,13.181473 4.10022779,12.6287016 3.7357631,12.0091116 C3.61427487,11.7904328 3.49886105,11.5687168 3.38952164,11.3439636 C3.28018223,11.1192103 3.18906606,10.8914199 3.11617312,10.6605923 L0,10.6605923 L0,9.33029613 L2.76993166,9.33029613 C2.73348519,9.11161731 2.70615034,8.8929385 2.68792711,8.67425968 C2.66970387,8.45558087 2.66059226,8.23082764 2.66059226,8 C2.66059226,7.27107062 2.75170843,6.57251329 2.93394077,5.90432802 C3.11617312,5.23614275 3.38344723,4.59832954 3.7357631,3.99088838 C4.10022779,3.38344723 4.52239939,2.83675019 5.0022779,2.35079727 C5.48215642,1.86484434 6.03189066,1.43963554 6.65148064,1.07517084 C7.25892179,0.722854973 7.896735,0.455580866 8.56492027,0.273348519 C9.23310554,0.0911161731 9.93166287,0 10.6605923,0 Z M10.6970387,1.74943052 C10.2718299,1.74943052 9.85573273,1.7919514 9.44874715,1.87699317 C9.04176158,1.96203493 8.64388762,2.08959757 8.25512528,2.25968109 C7.86636295,2.41761579 7.50493546,2.60895976 7.17084282,2.83371298 C6.83675019,3.05846621 6.52999241,3.31055429 6.25056948,3.58997722 C5.97114655,3.86940015 5.72209567,4.17615793 5.50341686,4.51025057 C5.28473804,4.8443432 5.09035687,5.20577069 4.92027335,5.59453303 C4.75018983,5.98329537 4.62566439,6.37813212 4.54669704,6.77904328 C4.46772969,7.17995444 4.42824601,7.59301443 4.42824601,8.01822323 C4.42824601,8.24905087 4.43735763,8.47076689 4.45558087,8.6833713 C4.4738041,8.8959757 4.50721336,9.11161731 4.55580866,9.33029613 L10.6605923,9.33029613 L10.6605923,6.65148064 L14.6514806,10.0045558 L10.6605923,13.3394077 L10.6605923,10.6605923 L5.01138952,10.6605923 C5.16932422,11.0007593 5.35155657,11.3196659 5.55808656,11.6173121 C5.76461655,11.9149582 5.99544419,12.191344 6.25056948,12.4464692 C6.52999241,12.7258922 6.83675019,12.9779803 7.17084282,13.2027335 C7.50493546,13.4274867 7.86636295,13.6249051 8.25512528,13.7949886 C8.6317388,13.9529233 9.02353834,14.0744115 9.43052392,14.1594533 C9.83750949,14.2444951 10.2536067,14.2870159 10.6788155,14.2870159 C11.1040243,14.2870159 11.5201215,14.2444951 11.9271071,14.1594533 C12.3340926,14.0744115 12.7319666,13.9529233 13.1207289,13.7949886 C13.4973424,13.6249051 13.8526955,13.4274867 14.1867882,13.2027335 C14.5208808,12.9779803 14.8276386,12.7258922 15.1070615,12.4464692 C15.3864844,12.1670463 15.6385725,11.8602885 15.8633257,11.5261959 C16.088079,11.1921033 16.2854973,10.8367502 16.4555809,10.4601367 C16.6135156,10.0713743 16.7350038,9.67350038 16.8200456,9.26651481 C16.9050873,8.85952923 16.9476082,8.44343204 16.9476082,8.01822323 C16.9476082,7.59301443 16.9050873,7.17691724 16.8200456,6.76993166 C16.7350038,6.36294609 16.6135156,5.97114655 16.4555809,5.59453303 C16.4312832,5.54593774 16.4100228,5.50037965 16.3917995,5.45785877 C16.3735763,5.41533789 16.3523159,5.37585421 16.3280182,5.33940774 L10.6605923,5.33940774 L10.6605923,3.99088838 L15.4897494,3.99088838 C15.4290053,3.93014427 15.3682612,3.86332574 15.3075171,3.7904328 L15.2164009,3.6856492 L15.1252847,3.58997722 C14.8458618,3.31055429 14.539104,3.05846621 14.2050114,2.83371298 C13.8709188,2.60895976 13.5094913,2.41761579 13.1207289,2.25968109 C12.7319666,2.08959757 12.3340926,1.96203493 11.9271071,1.87699317 C11.5201215,1.7919514 11.1100987,1.74943052 10.6970387,1.74943052 Z"></path></clipPath></defs><g transform="translate(0.0 4.0)"><g clip-path="url(#i0)"><polygon points="0,0 24,0 24,16 0,16 0,0" stroke="none" fill="#151515"></polygon></g></g></svg>