<?xml version="1.0" encoding="UTF-8"?><svg version="1.1" width="24px" height="24px" viewBox="0 0 24.0 24.0" xmlns="http://www.w3.org/2000/svg" xmlns:xlink="http://www.w3.org/1999/xlink"><defs><clipPath id="i0"><path d="M21.75,0 C22.9926562,0 24,1.00734375 24,2.25 L24,15.75 C24,16.9926562 22.9926562,18 21.75,18 L2.25,18 C1.00734375,18 0,16.9926562 0,15.75 L0,2.25 C0,1.00734375 1.00734375,0 2.25,0 L21.75,0 Z M16.1022187,5.64773438 L9.75,12 L7.14773438,9.39773438 C6.92807813,9.17807813 6.57192188,9.17807813 6.35221875,9.39773438 L3,12.75 L3,15 L21,15 L21,9.75 L16.8977344,5.64773438 C16.6780781,5.42807812 16.3219219,5.42807812 16.1022187,5.64773438 Z M5.25,2.625 C3.80025,2.625 2.625,3.80025 2.625,5.25 C2.625,6.69975 3.80025,7.875 5.25,7.875 C6.69975,7.875 7.875,6.69975 7.875,5.25 C7.875,3.80025 6.69975,2.625 5.25,2.625 Z"></path></clipPath></defs><g transform="translate(0.0 3.0)"><g clip-path="url(#i0)"><polygon points="0,0 24,0 24,18 0,18 0,0" stroke="none" fill="#151515"></polygon></g></g></svg>