<?xml version="1.0" encoding="UTF-8"?><svg version="1.1" width="24px" height="24px" viewBox="0 0 24.0 24.0" xmlns="http://www.w3.org/2000/svg" xmlns:xlink="http://www.w3.org/1999/xlink"><defs><clipPath id="i0"><path d="M14.5808824,11.2941176 C15.4014706,11.2941176 15.7852941,12.1257353 15.7852941,12.1257353 L16.0985294,12.7058824 L23.2941176,12.7058824 C23.6845588,12.7058824 24,13.0213235 24,13.4117647 L24,22.5882353 L8.47058824,22.5882353 L8.47058824,12.0992647 C8.47058824,12.0992647 8.47058824,11.2941176 9.27573529,11.2941176 L14.5808824,11.2941176 Z M10.3455882,5.64705882 C11.1661765,5.64705882 11.55,6.47867647 11.55,6.47867647 L11.8632353,7.05882353 L19.0588235,7.05882353 C19.4492647,7.05882353 19.7647059,7.37426471 19.7647059,7.76470588 L19.7647059,11.2720588 L16.9610294,11.2720588 C16.8683824,11.1176471 16.7272059,10.9147059 16.5330882,10.7117647 C16.0080882,10.1625 15.3220588,9.86029412 14.6029412,9.86029412 L9.29779412,9.86029412 C8.43529412,9.86029412 7.67867647,10.3014706 7.30808824,11.0426471 C7.08308824,11.4948529 7.05882353,11.9161765 7.05882353,12.0772059 L7.05882353,16.9411765 L4.23529412,16.9411765 L4.23549069,6.4431637 C4.23843922,6.35470761 4.28561581,5.64705882 5.04044118,5.64705882 Z M6.11029412,0 C6.82147059,0 7.20458824,0.624637255 7.2941098,0.79120719 L7.31470588,0.831617647 L7.62794118,1.41176471 L14.8235294,1.41176471 C15.2139706,1.41176471 15.5294118,1.72720588 15.5294118,2.11764706 L15.5294118,5.64705882 L12.7036765,5.64705882 C12.6110294,5.49264706 12.4698529,5.24558824 12.2757353,5.04264706 C11.7507353,4.49338235 11.0647059,4.19117647 10.3455882,4.19117647 L5.04044118,4.19117647 C4.18014706,4.19117647 3.44338235,4.63235294 3.07279412,5.37352941 C2.84779412,5.82352941 2.82352941,6.24705882 2.82352941,6.40808824 L2.82352941,11.2941176 L0,11.2941176 L0,0.805147059 C0,0.805147059 0,0 0.805147059,0 L6.11029412,0 Z"></path></clipPath></defs><g transform="translate(0.0 1.0)"><g clip-path="url(#i0)"><polygon points="0,0 24,0 24,22.5882353 0,22.5882353 0,0" stroke="none" fill="#151515"></polygon></g></g></svg>