<?xml version="1.0" encoding="UTF-8"?>
<svg width="24px" height="24px" viewBox="0 0 24 24" version="1.1" xmlns="http://www.w3.org/2000/svg" xmlns:xlink="http://www.w3.org/1999/xlink">
    <title></title>
    <g id="Icons" stroke="none" stroke-width="1" fill="none" fill-rule="evenodd">
        <g id="Icons/3.-Size-lg/Object/pficon-infrastructure" fill="#151515">
            <path d="M13.875,2 C14.4963203,2 15,2.50367966 15,3.125 L15,3.125 L15,6.875 C15,6.89140625 14.9976562,6.91015625 14.9976562,6.92890625 L14.9976562,6.92890625 L17.56875,9.5 L20.25,9.5 C20.6642136,9.5 21,9.83578644 21,10.25 L21,10.25 L21,13.25 C21,13.6642136 20.6642136,14 20.25,14 L20.25,14 L19.5,14 L19.5,15.4765625 L21.375,15.4765625 C21.9963203,15.4765625 22.5,15.9802422 22.5,16.6015625 L22.5,16.6015625 L22.5,18.5 L23.25,18.5 C23.6642135,18.5 24,18.8357864 24,19.25 L24,19.25 L24,22.25 C24,22.6642136 23.6642135,23 23.25,23 L23.25,23 L20.25,23 C19.8357864,23 19.5,22.6642136 19.5,22.25 L19.5,22.25 L19.5,19.25 C19.5,18.8357864 19.8357864,18.5 20.25,18.5 L20.25,18.5 L21,18.5 L21,16.9765625 L16.5,16.9765625 L16.5,18.5 L17.25,18.5 C17.6642136,18.5 18,18.8357864 18,19.25 L18,19.25 L18,22.25 C18,22.6642136 17.6642136,23 17.25,23 L17.25,23 L14.25,23 C13.8357864,23 13.5,22.6642136 13.5,22.25 L13.5,22.25 L13.5,19.25 C13.5,18.8357864 13.8357864,18.5 14.25,18.5 L14.25,18.5 L15,18.5 L15,16.6015625 C15,15.9802422 15.5036797,15.4765625 16.125,15.4765625 L16.125,15.4765625 L18,15.4765625 L18,14 L17.25,14 C16.8357864,14 16.5,13.6642136 16.5,13.25 L16.5,13.25 L16.5,10.5523438 L13.9453125,7.99765625 C13.921875,8 13.8984375,8 13.875,8 L13.875,8 L10.0851563,8 L7.5,10.5851563 L7.5,13.25 C7.5,13.6642136 7.16421356,14 6.75,14 L6.75,14 L6,14 L6,15.4765625 L7.875,15.4765625 C8.49632034,15.4765625 9,15.9802422 9,16.6015625 L9,16.6015625 L9,18.5 L9.75,18.5 C10.1642136,18.5 10.5,18.8357864 10.5,19.25 L10.5,19.25 L10.5,22.25 C10.5,22.6642136 10.1642136,23 9.75,23 L9.75,23 L6.75,23 C6.33578644,23 6,22.6642136 6,22.25 L6,22.25 L6,19.25 C6,18.8357864 6.33578644,18.5 6.75,18.5 L6.75,18.5 L7.5,18.5 L7.5,16.9765625 L3,16.9765625 L3,18.5 L3.75,18.5 C4.16421356,18.5 4.5,18.8357864 4.5,19.25 L4.5,19.25 L4.5,22.25 C4.5,22.6642136 4.16421356,23 3.75,23 L3.75,23 L0.75,23 C0.335786438,23 0,22.6642136 0,22.25 L0,22.25 L0,19.25 C0,18.8357864 0.335786438,18.5 0.75,18.5 L0.75,18.5 L1.5,18.5 L1.5,16.6015625 C1.5,15.9802422 2.00367966,15.4765625 2.625,15.4765625 L2.625,15.4765625 L4.5,15.4765625 L4.5,14 L3.75,14 C3.33578644,14 3,13.6642136 3,13.25 L3,13.25 L3,10.25 C3,9.83578644 3.33578644,9.5 3.75,9.5 L3.75,9.5 L6.46171875,9.5 L9.00234375,6.959375 C9.00234375,6.93125 9,6.903125 9,6.875 L9,6.875 L9,3.125 C9,2.50367966 9.50367966,2 10.125,2 L10.125,2 L13.875,2 Z M13.5,3.5 L10.5,3.5 L10.5,6.5 L13.5,6.5 L13.5,3.5 Z" id="pficon-infrastructure"></path>
        </g>
    </g>
</svg>