<?xml version="1.0" encoding="UTF-8"?><svg version="1.1" width="24px" height="24px" viewBox="0 0 24.0 24.0" xmlns="http://www.w3.org/2000/svg" xmlns:xlink="http://www.w3.org/1999/xlink"><defs><clipPath id="i0"><path d="M11.3085896,0.121169518 C11.7553702,-0.0403898394 12.244621,-0.0403898394 12.6914016,0.121169518 C16.0195254,1.33257533 19.3476492,2.54468425 22.675773,3.75749632 C23.4593204,4.0434946 23.9857659,4.78256805 24,5.61655814 L24,16.2785074 C23.97421,17.0067102 23.5804601,17.9385849 22.9546791,18.2803035 C21.8418024,18.8903248 20.5494518,19.5986109 19.2508934,20.3102738 L18.4723994,20.7369176 C16.2724106,21.9425885 14.1546285,23.1031735 12.9703078,23.752489 C12.3655237,24.0825037 11.6344675,24.0825037 11.0296835,23.752489 L1.04531212,18.2803035 C0.442968588,17.9338974 0.0281249897,17.0050696 0.00234374914,16.2785074 L0,5.61655814 C0.0167657338,4.78395342 0.542467417,4.04685453 1.32421827,3.75984006 Z M17.3038999,15.5327264 L13.4437451,17.2303039 L13.4437451,21.0234275 L21.0234298,16.8649134 L17.3038999,15.5327264 Z M6.68202881,15.5367108 L2.97187392,16.866554 L10.4437462,20.9608494 L10.4437462,17.1874133 L6.68202881,15.5367108 Z M21.7499921,13.5799146 L19.2984305,14.6568673 L21.7499921,15.5350701 L21.7499921,13.5799146 Z M2.24999918,13.5916334 L2.24999918,15.5327264 L4.68515454,14.656633 L2.24999918,13.5916334 Z M16.481244,9.59694731 L13.4437451,10.6874938 L13.4437451,14.5586642 L21.358586,11.3460873 L16.481244,9.59694731 Z M7.49765351,9.59929106 L2.62265529,11.348431 L10.4414024,14.5164768 L10.4414024,10.6577282 L7.49765351,9.59929106 Z M21.7499921,7.71093237 L18.7031182,8.8010101 L21.7499921,9.89554095 L21.7499921,7.71093237 Z M2.24999918,7.71913549 L2.24999918,9.89202533 L5.27812307,8.8056976 L2.24999918,7.71913549 Z M12.0046831,2.22655937 L2.81015522,5.5767144 L11.9882769,8.86874445 L21.180461,5.56968315 L12.0046831,2.22655937 Z"></path></clipPath></defs><g clip-path="url(#i0)"><polygon points="0,0 24,0 24,24 0,24 0,0" stroke="none" fill="#151515"></polygon></g></svg>