<?xml version="1.0" encoding="UTF-8"?><svg version="1.1" width="24px" height="24px" viewBox="0 0 24.0 24.0" xmlns="http://www.w3.org/2000/svg" xmlns:xlink="http://www.w3.org/1999/xlink"><defs><clipPath id="i0"><path d="M22.5882353,1.41176471 C24,1.41176471 24,2.88529412 24,2.88529412 L24,19.7647059 C24,21.0678733 22.0772015,21.128646 21.7813864,21.1302846 L21.7433824,21.1301471 C19.0389706,17.0448529 12.7058824,21.1764706 12.7058824,21.1764706 L12.7058824,19.7073529 C19.0367647,15.3683824 22.5882353,19.7647059 22.5882353,19.7647059 Z M1.41176471,1.41176471 L1.41176471,19.7647059 C1.41176471,19.7625 4.98529412,15.3683824 11.2941176,19.7073529 L11.2941176,21.1764706 L11.2748818,21.1640605 C10.8934436,20.91998 4.93797438,17.2001186 2.26102941,21.1301471 L2.22295108,21.1302846 C1.92655761,21.128646 0,21.0678733 0,19.7647059 L0.000816993464,2.85630106 C0.00980392157,2.64993873 0.117647059,1.41176471 1.41176471,1.41176471 Z M2.82352941,0 C4.69632353,0 8.83676471,1.24191176 11.2919118,2.82352941 L11.2919118,4.55514706 L11.1154412,4.55514706 C10.9830882,4.55514706 10.8705882,4.64779412 10.8330882,4.78014706 C10.7117647,5.24117647 10.7713235,6.2625 10.725,6.73676471 C10.4713235,6.82058824 10.4955882,6.84044118 10.2551471,6.96176471 L8.80147059,5.68676471 C8.74411765,5.64926471 8.67794118,5.62058824 8.60294118,5.62058824 C8.32941176,5.62058824 7.27058824,6.76544118 7.08308824,7.01911765 C7.03676471,7.07426471 7.01691176,7.14044118 7.01691176,7.20661765 C7.01691176,7.27279412 7.04558824,7.33676471 7.08308824,7.39411765 C7.38529412,7.75147059 8.04044118,8.3625 8.30294118,8.73970588 C8.18161765,8.97573529 8.19926471,9.08382353 8.12426471,9.33308824 L6.16764706,9.42794118 C6.04632353,9.44779412 5.95147059,9.58897059 5.95147059,9.71029412 L5.95147059,11.4507353 C5.95147059,11.5830882 6.04411765,11.7044118 6.17647059,11.7242647 L8.15294118,11.8522059 C8.23897059,12.1147059 8.21911765,12.0308824 8.35147059,12.2889706 C8.07794118,12.6573529 7.3875,13.4426471 7.11397059,13.8 C7.07647059,13.8573529 7.04779412,13.9125 7.04779412,13.9786765 C7.04779412,14.2522059 8.16397059,15.2647059 8.40882353,15.4897059 C8.46617647,15.5360294 8.53235294,15.5647059 8.60735294,15.5647059 C8.67352941,15.5647059 8.74852941,15.5448529 8.79485294,15.4985294 L10.1889706,14.1992647 C10.4139706,14.3117647 10.4338235,14.3029412 10.6830882,14.3779412 L10.8375,16.3919118 C10.8573529,16.5242647 10.9875,16.6279412 11.1198529,16.6279412 L11.2941176,16.6257353 L11.2941176,18.3529412 C7.76470588,16.0698529 4.17573529,16.5705882 2.82352941,16.9411765 Z M21.1742647,0 L21.1742647,16.9411765 C19.8242647,16.5683824 16.2772059,16.0698529 12.7036765,18.3529412 L12.7036765,16.6257353 L12.8801471,16.6257353 C13.0125,16.6257353 13.1426471,16.5220588 13.1625,16.3897059 L13.3169118,14.3757353 C13.5661765,14.3007353 13.5860294,14.3095588 13.8110294,14.1970588 L15.2029412,15.4963235 C15.2492647,15.5426471 15.3242647,15.5625 15.3904412,15.5625 C15.4654412,15.5625 15.5316176,15.5338235 15.5889706,15.4875 C15.8338235,15.2625 16.95,14.25 16.95,13.9764706 C16.95,13.9102941 16.9213235,13.8551471 16.8838235,13.7977941 C16.6102941,13.4404412 15.9198529,12.6551471 15.6463235,12.2867647 C15.7786765,12.0286765 15.7588235,12.1125 15.8448529,11.85 L17.8213235,11.7220588 C17.9536765,11.7022059 18.0463235,11.5808824 18.0463235,11.4485294 L18.0463235,9.70808824 C18.0463235,9.58676471 17.9514706,9.44558824 17.8301471,9.42573529 L15.8735294,9.33088235 C15.7985294,9.08161765 15.8161765,8.97352941 15.6948529,8.7375 C15.9573529,8.36029412 16.6125,7.74926471 16.9147059,7.39191176 C16.9522059,7.33455882 16.9808824,7.27058824 16.9808824,7.20441176 C16.9808824,7.13823529 16.9610294,7.07205882 16.9147059,7.01691176 C16.7272059,6.76323529 15.6683824,5.61838235 15.3948529,5.61838235 C15.3198529,5.61838235 15.2536765,5.64705882 15.1963235,5.68455882 L13.7426471,6.95514706 C13.5022059,6.83382353 13.5264706,6.81397059 13.2727941,6.73014706 C13.2264706,6.25588235 13.2860294,5.23455882 13.1647059,4.77352941 C13.1272059,4.64117647 13.0147059,4.54852941 12.8823529,4.54852941 L12.7036765,4.55073529 L12.7036765,2.82352941 C15.1588235,1.24852941 19.2904412,0 21.1742647,0 Z M12,8.18823529 C13.3257353,8.18823529 14.4,9.2625 14.4,10.5882353 C14.4,11.9139706 13.3257353,12.9882353 12,12.9882353 C10.6742647,12.9882353 9.6,11.9139706 9.6,10.5882353 C9.6,9.2625 10.6742647,8.18823529 12,8.18823529 Z"></path></clipPath></defs><g transform="translate(0.0 1.0)"><g clip-path="url(#i0)"><polygon points="0,0 24,0 24,21.1764706 0,21.1764706 0,0" stroke="none" fill="#151515"></polygon></g></g></svg>