<?xml version="1.0" encoding="UTF-8"?><svg version="1.1" width="24px" height="24px" viewBox="0 0 24.0 24.0" xmlns="http://www.w3.org/2000/svg" xmlns:xlink="http://www.w3.org/1999/xlink"><defs><clipPath id="i0"><path d="M24,0 L24,16.9391912 L14.1176471,16.9391912 L14.1176471,18.3529412 L18.3529412,18.3652941 L18.3529412,19.7647059 L5.64705882,19.7647059 L5.64705882,18.3652941 L9.88235294,18.3529412 L9.88235294,16.9391912 L0,16.9391912 L0,0 L24,0 Z M21.1764706,2.82352941 L2.82352941,2.82352941 L2.82352941,14.1176471 L21.1764706,14.1176471 L21.1764706,2.82352941 Z M18.7131618,5.23808824 C19.1695588,5.69470588 19.1267647,6.32205882 18.7131618,6.73544118 L14.5147059,10.9345588 C14.1012152,11.348022 13.4308436,11.348022 13.0173529,10.9345588 L10.2716912,8.18911765 L6.74867647,11.7132353 C6.3342249,12.1209908 5.66851308,12.1182801 5.25739588,11.7071629 C4.84627868,11.2960457 4.84356799,10.6303339 5.25132353,10.2158824 L9.52301471,5.94308824 L9.53845588,5.92742647 C9.73703076,5.72880624 10.0063833,5.61721877 10.2872426,5.61721877 C10.568102,5.61721877 10.8374545,5.72880624 11.0360294,5.92742647 L13.7647059,8.68830882 L17.2158088,5.23808824 C17.6294118,4.82448529 18.2567647,4.78147059 18.7131618,5.23808824 Z"></path></clipPath></defs><g transform="translate(0.0 2.0)"><g clip-path="url(#i0)"><polygon points="0,0 24,0 24,19.7647059 0,19.7647059 0,0" stroke="none" fill="#151515"></polygon></g></g></svg>