<?xml version="1.0" encoding="UTF-8"?><svg version="1.1" width="24px" height="24px" viewBox="0 0 24.0 24.0" xmlns="http://www.w3.org/2000/svg" xmlns:xlink="http://www.w3.org/1999/xlink"><defs><clipPath id="i0"><path d="M23.5817308,11.0769231 C24,10.5461538 24,11.0769231 24,11.0769231 L24,16.6153846 C24,18.6548077 18.6288462,20.3076923 12,20.3076923 C5.37115385,20.3076923 0,18.6548077 0,16.6153846 L0.000816932091,11.0551532 C0.00653545673,10.9608173 0.0522836538,10.6125 0.418269231,11.0769231 C1.27788462,12.1701923 3.91730769,13.8461538 12,13.8461538 C20.0826923,13.8461538 22.7221154,12.1701923 23.5817308,11.0769231 Z M12,0 C18.6288462,0 24,1.65288462 24,3.69230769 L24,7.35576923 C24,9.39519231 18.6288462,11.0480769 12,11.0480769 C5.37115385,11.0480769 0,9.39519231 0,7.35576923 L0,3.69230769 C0,1.65288462 5.37115385,0 12,0 Z"></path></clipPath></defs><g transform="translate(0.0 2.0)"><g clip-path="url(#i0)"><polygon points="0,0 24,0 24,20.3076923 0,20.3076923 0,0" stroke="none" fill="#151515"></polygon></g></g></svg>