<?xml version="1.0" encoding="UTF-8"?><svg version="1.1" width="24px" height="24px" viewBox="0 0 24.0 24.0" xmlns="http://www.w3.org/2000/svg" xmlns:xlink="http://www.w3.org/1999/xlink"><defs><clipPath id="i0"><path d="M19.7647059,0 C20.5440996,0.000729655981 21.1757409,0.632371021 21.1764706,1.41176471 L21.1764706,21.1764706 C21.1757409,21.9558643 20.5440996,22.5875056 19.7647059,22.5882353 L4.23529412,22.5882353 C3.45590043,22.5875056 2.82425907,21.9558643 2.82352941,21.1764706 L2.82352941,1.41176471 C2.82425907,0.632371021 3.45590043,0.000729655981 4.23529412,0 Z M24,2.82352941 L24,19.7647059 C23.2206064,19.7639762 22.588965,19.1323349 22.5882353,18.3529412 L22.5882353,4.23529412 C22.5889221,3.50174711 23.1484787,2.89908107 23.8640921,2.83010909 L24,2.82352941 Z M11.2941176,12.7058824 L9.88235294,12.7058824 L9.88235294,14.1176471 L8.47058824,14.1176471 L8.47058824,15.5294118 L9.88235294,15.5294118 L9.88235294,16.9411765 L8.47058824,16.9411765 L8.47058824,18.3529412 L9.88235294,18.3529412 L9.88235294,19.7647059 L11.2941176,19.7647059 L11.2941176,18.3529412 L12.7058824,18.3529412 L12.7058824,19.7647059 L14.1176471,19.7647059 L14.1176471,18.3529412 L15.5294118,18.3529412 L15.5294118,16.9411765 L14.1176471,16.9411765 L14.1176471,15.5294118 L15.5294118,15.5294118 L15.5294118,14.1176471 L14.1176471,14.1176471 L14.1176471,12.7058824 L12.7058824,12.7058824 L12.7058824,14.1176471 L11.2941176,14.1176471 L11.2941176,12.7058824 Z M0,2.82352941 C0.779393685,2.82425907 1.41103505,3.45590043 1.41176471,4.23529412 L1.41176471,18.3529412 C1.41103505,19.1323349 0.779393685,19.7639762 0,19.7647059 L0,2.82352941 Z M12.6838235,15.5294118 C12.6897861,15.5290173 12.695629,15.5312144 12.6998544,15.5354398 C12.7040797,15.5396651 12.7062768,15.545508 12.7058824,15.5514706 L12.7058824,16.9191176 C12.7062768,16.9250802 12.7040797,16.9309231 12.6998544,16.9351485 C12.695629,16.9393738 12.6897861,16.9415709 12.6838235,16.9411765 L11.3161765,16.9411765 C11.3102139,16.9415709 11.304371,16.9393738 11.3001456,16.9351485 C11.2959203,16.9309231 11.2937232,16.9250802 11.2941176,16.9191176 L11.2941176,15.5514706 C11.2937232,15.545508 11.2959203,15.5396651 11.3001456,15.5354398 C11.304371,15.5312144 11.3102139,15.5290173 11.3161765,15.5294118 L12.6838235,15.5294118 Z M18,2.82352941 L6,2.82352941 C5.80507597,2.82352941 5.64705882,2.98154656 5.64705882,3.17647059 L5.64705882,6.68382353 C5.64705882,6.87874756 5.80507597,7.03676471 6,7.03676471 L7.05882353,7.03676471 L7.05882353,10.9411765 C7.05882353,11.1361005 7.21684068,11.2941176 7.41176471,11.2941176 L16.5882353,11.2941176 C16.7831593,11.2941176 16.9411765,11.1361005 16.9411765,10.9411765 L16.9411765,7.03676471 L18,7.03676471 C18.194924,7.03676471 18.3529412,6.87874756 18.3529412,6.68382353 L18.3529412,3.17647059 C18.3529412,2.98154656 18.194924,2.82352941 18,2.82352941 Z M9.88235294,7.05882353 L9.88235294,9.88235294 L8.47058824,9.88235294 L8.47058824,7.05882353 L9.88235294,7.05882353 Z M15.5294118,7.05882353 L15.5294118,9.88235294 L14.1176471,9.88235294 L14.1176471,7.05882353 L15.5294118,7.05882353 Z M12.7058824,7.05882353 L12.7058824,9.88235294 L11.2941176,9.88235294 L11.2941176,7.05882353 L12.7058824,7.05882353 Z"></path></clipPath></defs><g transform="translate(0.0 1.0)"><g clip-path="url(#i0)"><polygon points="0,0 24,0 24,22.5882353 0,22.5882353 0,0" stroke="none" fill="#151515"></polygon></g></g></svg>