<?xml version="1.0" encoding="UTF-8"?><svg version="1.1" width="24px" height="24px" viewBox="0 0 24.0 24.0" xmlns="http://www.w3.org/2000/svg" xmlns:xlink="http://www.w3.org/1999/xlink"><defs><clipPath id="i0"><path d="M17.3333333,2.66666667 L17.3333333,4 L24,4 L24,17.3333333 L16,17.3333333 L16,18.5833333 L20,18.5833333 L20,20 L8,20 L8,18.5833333 L12,18.5833333 L12,17.3333333 L4,17.3333333 L4,12 L2.66666667,12 L2.66666667,10.6666667 L4,10.6666667 L4,4 L16,4 L16,2.66666667 L17.3333333,2.66666667 Z M21.3333333,6.66666667 L6.66666667,6.66666667 L6.66666667,14.6666667 L21.3333333,14.6666667 L21.3333333,6.66666667 Z M17.3333333,10.6666667 L17.3333333,12 L16,12 L16,10.6666667 L17.3333333,10.6666667 Z M14.6666667,10.6666667 L14.6666667,12 L13.3333333,12 L13.3333333,10.6666667 L14.6666667,10.6666667 Z M12,10.6666667 L12,12 L10.6666667,12 L10.6666667,10.6666667 L12,10.6666667 Z M9.33333333,10.6666667 L9.33333333,12 L8,12 L8,10.6666667 L9.33333333,10.6666667 Z M1.33333333,10.6666667 L1.33333333,12 L0,12 L0,10.6666667 L1.33333333,10.6666667 Z M17.3333333,8 L17.3333333,9.33333333 L16,9.33333333 L16,8 L17.3333333,8 Z M1.33333333,8 L1.33333333,9.33333333 L0,9.33333333 L0,8 L1.33333333,8 Z M1.33333333,5.33333333 L1.33333333,6.66666667 L0,6.66666667 L0,5.33333333 L1.33333333,5.33333333 Z M1.33333333,2.66666667 L1.33333333,4 L0,4 L0,2.66666667 L1.33333333,2.66666667 Z M17.3333333,0 L17.3333333,1.33333333 L16,1.33333333 L16,0 L17.3333333,0 Z M14.6666667,0 L14.6666667,1.33333333 L13.3333333,1.33333333 L13.3333333,0 L14.6666667,0 Z M12,0 L12,1.33333333 L10.6666667,1.33333333 L10.6666667,0 L12,0 Z M9.33333333,0 L9.33333333,1.33333333 L8,1.33333333 L8,0 L9.33333333,0 Z M6.66666667,0 L6.66666667,1.33333333 L5.33333333,1.33333333 L5.33333333,0 L6.66666667,0 Z M4,0 L4,1.33333333 L2.66666667,1.33333333 L2.66666667,0 L4,0 Z M1.33333333,0 L1.33333333,1.33333333 L0,1.33333333 L0,0 L1.33333333,0 Z"></path></clipPath></defs><g transform="translate(0.0 2.0)"><g clip-path="url(#i0)"><polygon points="0,0 24,0 24,20 0,20 0,0" stroke="none" fill="#151515"></polygon></g></g></svg>