<?xml version="1.0" encoding="UTF-8"?><svg version="1.1" width="24px" height="24px" viewBox="0 0 24.0 24.0" xmlns="http://www.w3.org/2000/svg" xmlns:xlink="http://www.w3.org/1999/xlink"><defs><clipPath id="i0"><path d="M18.4219273,1.80234887 C18.6164591,1.80234887 18.7875534,1.89141162 18.9023974,2.02969326 C19.0664604,2.14219358 19.2609922,2.31094406 19.4930241,2.56641354 C19.7508373,2.85235185 20.0063068,3.13594641 20.254745,3.4336035 C21.55553,4.9804829 22.4438137,7.04298875 22.4297512,9.63283986 C22.4227199,10.989875 22.614908,12.4078477 21.4406859,14.2031653 C21.4195921,14.2312904 21.400842,14.2594155 21.3797482,14.2875406 L14.8500422,23.1586595 C14.8500422,23.1586595 14.3742596,24 13.4250381,23.9953806 C13.4250381,23.9953806 12.597692,24.0914747 12.1031594,23.4070977 C12.2156597,23.2664723 12.2789411,23.1563158 12.2789411,23.1563158 L19.1836482,13.9476959 C19.204742,13.9195708 19.2258359,13.8914457 19.2445859,13.8633206 C20.2781826,12.3890977 20.6039648,11.0039375 20.6039648,9.0679945 C20.6039648,7.35705214 20.1445885,5.77970392 19.2891173,4.42032505 C18.9047412,3.89063605 18.318802,3.23672794 18.318802,3.23672794 C18.2461456,3.17344651 18.1664578,3.09610254 18.0914576,3.0117273 C18.0445825,2.9578209 17.9977074,2.89922698 17.9602073,2.83828931 C17.8617695,2.72813275 17.8008318,2.58281984 17.8008318,2.42344438 C17.8008318,2.08125591 18.0797388,1.80234887 18.4219273,1.80234887 Z M9.44533933,0 C14.437541,0 18.8883349,4.05938653 18.8883349,9.07033826 C18.8883349,11.0062813 18.2813019,12.7992551 17.2477052,14.273478 C17.2266114,14.3016031 17.2078614,14.3297282 17.1867676,14.3531658 L10.5633113,23.153972 C10.5633113,23.153972 10.0758099,23.9906931 9.45940187,23.9906931 C9.45940187,23.9906931 8.90627529,24.107881 8.35314872,23.1586595 L1.70156733,14.3531658 C1.68281728,14.3297282 1.66641098,14.3062906 1.65000469,14.2828531 L1.64062966,14.2711343 C0.607032974,12.7992551 0,11.0039375 0,9.0679945 C0,4.05938653 4.43673135,0 9.44533933,0 Z M7.49298577,4.50001278 L5.99298577,4.50001278 L5.99298577,15.0000426 L7.49298577,15.0000426 L7.49298577,4.50001278 Z M12.4219103,4.50001278 L8.99299429,4.50001278 L8.99299429,15.0000426 L10.4929943,15.0000426 L10.4929943,10.5000298 L12.4219103,10.5047173 C14.3086344,10.5047173 15.7430135,9.38908917 15.7430135,7.50001278 C15.7430135,5.61095344 14.3109781,4.50001278 12.4219103,4.50001278 Z M12.2062847,6.00001704 C13.1484748,6.00001704 13.9148833,6.6726752 13.9148833,7.50001704 C13.9148833,8.3273674 13.1484748,9.00001704 12.2062847,9.00001704 L10.4929986,9.00001704 L10.4929986,6.00001704 L12.2062847,6.00001704 Z"></path></clipPath></defs><g transform="translate(1.0 0.0)"><g clip-path="url(#i0)"><polygon points="0,0 22.4374814,0 22.4374814,24 0,24 0,0" stroke="none" fill="#151515"></polygon></g></g></svg>