<?xml version="1.0" encoding="UTF-8"?><svg version="1.1" width="24px" height="24px" viewBox="0 0 24.0 24.0" xmlns="http://www.w3.org/2000/svg" xmlns:xlink="http://www.w3.org/1999/xlink"><defs><clipPath id="i0"><path d="M12.0023438,0 C18.4828125,0 23.7796875,5.165625 23.9929688,11.5945312 C24,11.8054687 23.8289063,11.98125 23.6179688,11.98125 L21.365625,11.98125 C21.1664063,11.98125 21,11.8242188 20.990625,11.6226562 C20.79375,6.834375 16.8351562,3 12,3 C9.51796875,3 7.26796875,4.01015625 5.6390625,5.6390625 L7.13203125,7.13203125 L7.8140625,6.45 C7.91953125,6.34453125 8.10703125,6.32109375 8.22890625,6.4125 L9.73125,7.7015625 C9.99140625,7.565625 10.265625,7.45078125 10.5515625,7.3640625 L10.6617187,5.371875 C10.7039062,5.221875 10.8328125,5.1140625 10.9828125,5.1140625 L12.9820312,5.1140625 C13.1320312,5.1140625 13.2820313,5.23125 13.303125,5.38125 L13.434375,7.37109375 C13.7109375,7.4578125 13.978125,7.56796875 14.2335937,7.7015625 L15.7265625,6.365625 C15.8625,6.28828125 16.03125,6.3046875 16.1367188,6.41015625 L17.55,7.8234375 C17.6554687,7.92890625 17.6789062,8.11640625 17.5875,8.23828125 L16.2820313,9.72890625 C16.4179688,9.98671875 16.5351562,10.2585937 16.6242187,10.5398437 L18.6046875,10.65 C18.7546875,10.6921875 18.8625,10.8210937 18.8648437,10.9734375 L18.8648437,12.9726562 C18.8648437,13.1226562 18.7476562,13.2726562 18.5976562,13.29375 L16.6523438,13.4226563 C16.5632813,13.715625 16.4484375,13.9992187 16.3101562,14.2664063 L16.96875,15.0023438 L23.8125,15.0023438 C23.915625,15 24,15.084375 24,15.1875 L24,23.5476563 C24,23.7140625 23.7984375,23.7984375 23.6789062,23.68125 L20.4820312,20.4820312 C18.309375,22.6546875 15.309375,24 12.0023438,24 C5.51484375,24 0.2109375,18.825 0.00703125,12.3867188 C0,12.1757812 0.17109375,12 0.38203125,12 L2.634375,12 C2.8359375,12 3,12.1570313 3.009375,12.3585937 C3.196875,17.1585938 7.1578125,21 12.0023438,21 C14.484375,21 16.734375,19.9898437 18.365625,18.3609375 L16.8492187,16.8445313 L16.1507813,17.5429688 C16.0453125,17.6484375 15.8578125,17.671875 15.7359375,17.5804688 L14.2945312,16.3171875 C14.0203125,16.4648438 13.7320312,16.5867188 13.4320313,16.6804688 L13.3570312,18.5976562 C13.3148438,18.7476562 13.1859375,18.8554688 13.0359375,18.8554688 L11.0367187,18.8554688 C10.8867188,18.8554688 10.7367188,18.7382812 10.715625,18.5882813 L10.5703125,16.6945312 C10.2632812,16.6007812 9.965625,16.4789063 9.68671875,16.3289063 L8.2828125,17.625 C8.146875,17.7023437 7.978125,17.6859375 7.87265625,17.5804688 L6.459375,16.1671875 C6.35390625,16.0617187 6.33046875,15.8742187 6.421875,15.7523438 L7.66875,14.2992188 C7.5234375,14.0226562 7.40390625,13.7320312 7.3125,13.4273437 L5.38359375,13.35 C5.23359375,13.3078125 5.12578125,13.1789062 5.12578125,13.0289062 L5.12578125,11.0296875 C5.12578125,10.8796875 5.24296875,10.7296875 5.39296875,10.7085937 L7.33359375,10.5585938 C7.42734375,10.265625 7.546875,9.984375 7.68984375,9.7171875 L7.02890625,9.00234375 L0.1875,9.00234375 C0.084375,9.00234375 0,8.91796875 0,8.81484375 L0,0.45234375 C0,0.2859375 0.2015625,0.2015625 0.32109375,0.31875 L3.5203125,3.51796875 C5.69296875,1.34765625 8.69296875,0 12.0023438,0 Z M11.9789063,9.02109375 C10.321875,9.02109375 8.97890625,10.3640625 8.97890625,12.0210937 C8.97890625,13.678125 10.321875,15.0210937 11.9789063,15.0210937 C13.6359375,15.0210937 14.9789063,13.678125 14.9789063,12.0210937 C14.9789063,10.3640625 13.6359375,9.02109375 11.9789063,9.02109375 Z"></path></clipPath></defs><g clip-path="url(#i0)"><polygon points="0,0 24,0 24,24 0,24 0,0" stroke="none" fill="#151515"></polygon></g></svg>