<?xml version="1.0" encoding="UTF-8"?><svg version="1.1" width="24px" height="24px" viewBox="0 0 24.0 24.0" xmlns="http://www.w3.org/2000/svg" xmlns:xlink="http://www.w3.org/1999/xlink"><defs><clipPath id="i0"><path d="M22.5,4.5 C23.3281058,4.50077527 23.9992247,5.1718942 24,6 L24,22.5 C23.9992247,23.3281058 23.3281058,23.9992247 22.5,24 L6,24 C5.1718942,23.9992247 4.50077527,23.3281058 4.5,22.5 L4.5,6 C4.50077527,5.1718942 5.1718942,4.50077527 6,4.5 Z M22.1484375,6 L6.3515625,6 C6.1573999,6 6,6.1573999 6,6.3515625 L6,22.1484375 C6,22.3426001 6.1573999,22.5 6.3515625,22.5 L22.1484375,22.5 C22.3426001,22.5 22.5,22.3426001 22.5,22.1484375 L22.5,6.3515625 C22.5,6.1573999 22.3426001,6 22.1484375,6 Z M1.5,15 L1.5,17.6320313 C1.5,17.8261939 1.65739989,17.9835938 1.8515625,17.9835938 L3,18.0023438 L3,19.5023438 L1.5,19.4835938 C0.67189421,19.4828185 0.00077525948,18.8116995 0,17.9835938 L0,15 L1.5,15 Z M1.5,10.5 L1.5,13.5 L0,13.5 L0,10.5 L1.5,10.5 Z M1.5,6 L1.5,9 L0,9 L0,6 L1.5,6 Z M4.48359375,0 L4.48359375,1.5 L1.8515625,1.5 C1.65739989,1.5 1.5,1.65739989 1.5,1.8515625 L1.5,4.5 L0,4.5 L0,1.5 C0.00077525948,0.67189421 0.67189421,0.00077525948 1.5,0 L4.48359375,0 Z M18,0.01640625 C18.8281058,0.0171815095 19.4992247,0.68830046 19.5,1.51640625 L19.5,3 L18,3 L18,1.86796875 C18,1.67380614 17.8426001,1.51640625 17.6484375,1.51640625 L15,1.51640625 L15,0.01640625 L18,0.01640625 Z M13.5,0.01640625 L13.5,1.51640625 L10.5,1.51640625 L10.5,0.01640625 L13.5,0.01640625 Z M9,0.01640625 L9,1.51640625 L6,1.51640625 L6,0.01640625 L9,0.01640625 Z"></path></clipPath></defs><g clip-path="url(#i0)"><polygon points="0,0 24,0 24,24 0,24 0,0" stroke="none" fill="#151515"></polygon></g></svg>