<?xml version="1.0" encoding="UTF-8"?><svg version="1.1" width="24px" height="24px" viewBox="0 0 24.0 24.0" xmlns="http://www.w3.org/2000/svg" xmlns:xlink="http://www.w3.org/1999/xlink"><defs><clipPath id="i0"><path d="M9.60234375,6.36099933e-06 C10.9171875,6.36099933e-06 12.1101563,0.372675429 13.18125,1.12501918 C14.2523438,1.87736293 15.0375,2.85236293 15.5273438,4.06876918 C16.1109375,3.54142543 16.8023437,3.27423793 17.6015625,3.27423793 C18.4851563,3.27423793 19.2421875,3.59533168 19.85625,4.23517543 C20.4867188,4.87267543 20.7960937,5.64376918 20.7960937,6.55080043 C20.7999645,7.17610381 20.6224902,7.78912252 20.2851562,8.31564418 C21.3609375,8.57267544 22.2492187,9.14533168 22.95,10.0336129 C23.6500001,10.9226754 24,11.9414254 24,13.0898629 C24,14.4468942 23.5359375,15.6023629 22.5960938,16.5633004 C21.6633281,17.5076676 20.5467937,17.9903158 19.2396682,18.0000192 L5.59921875,18.0000192 C4.05781249,17.9984567 2.73984375,17.4375192 1.6453125,16.3172067 C0.5484375,15.1953317 0,13.8468942 0,12.2718942 C0,11.1484567 0.296093749,10.1203317 0.88828125,9.18751918 C1.48203125,8.25158169 2.26171875,7.55392543 3.22734375,7.09455043 C3.2109375,6.85548793 3.2015625,6.67033168 3.2015625,6.54376918 C3.2015625,4.73908168 3.825,3.19220668 5.0765625,1.91486293 C6.32890624,0.635956694 7.8375,-0.00232457123 9.60234375,6.36099933e-06 Z M12,4.50001918 C11.1773438,4.50001918 10.471875,4.79533168 9.88125,5.38830043 C9.290625,5.98126918 8.9953125,6.68205043 8.9953125,7.50939418 L8.9953125,8.98595668 L8.25234375,8.98595668 C8.04375,8.98595668 7.865625,9.03517543 7.7203125,9.18048793 C7.57748421,9.3213909 7.49797615,9.51424023 7.5,9.71486293 L7.5,14.2265817 C7.49671252,14.427446 7.57641748,14.6207729 7.7203125,14.7609567 C7.86796875,14.9062692 8.04375,15.0000192 8.25234375,15.0000192 L15.7453125,15.0000192 C15.9539063,15.0000192 16.1320312,14.9062692 16.2773438,14.7609567 C16.420172,14.6200537 16.4996801,14.4272044 16.4976562,14.2265817 L16.5023438,9.71720668 C16.5067953,9.51612345 16.4269064,9.32235043 16.2820313,9.18283168 C16.134375,9.03751918 15.9585938,8.98595668 15.75,8.98595668 L15.0023438,8.98595668 L15.0023438,7.50939418 C15.0023438,6.68439418 14.7117188,5.98126918 14.1210938,5.38830043 C13.5304688,4.79533168 12.8226563,4.50001918 12,4.50001918 Z M12,6.03986293 C12.4148438,6.03986293 12.7710938,6.18517543 13.059375,6.47814418 C13.3467642,6.75588193 13.5062807,7.14024894 13.5,7.53986293 L13.5,9.00001918 L10.5,9.00001918 L10.5,7.53986293 C10.5,6.7114358 11.1715729,6.03986293 12,6.03986293 Z"></path></clipPath></defs><g transform="translate(0.0 3.0)"><g clip-path="url(#i0)"><polygon points="0,2.22044605e-16 24,2.22044605e-16 24,18.0000192 0,18.0000192 0,2.22044605e-16" stroke="none" fill="#151515"></polygon></g></g></svg>