<?xml version="1.0" encoding="UTF-8"?>
<svg width="24px" height="24px" viewBox="0 0 24 24" version="1.1" xmlns="http://www.w3.org/2000/svg" xmlns:xlink="http://www.w3.org/1999/xlink">
    <title></title>
    <g id="Icons" stroke="none" stroke-width="1" fill="none" fill-rule="evenodd">
        <g id="Icons/3.-Size-lg/Object/pficon-vcenter" fill="#151515">
            <path d="M21,0 L10.5,0 C8.84296875,0 7.5,1.34296875 7.5,3 L7.5,7.5 L3,7.5 C1.34296875,7.5 0,8.84296875 0,10.5 L0,21 C0,22.6570313 1.34296875,24 3,24 L13.5,24 C15.1570313,24 16.5,22.6570313 16.5,21 L16.5,16.5 L21,16.5 C22.6570313,16.5 24,15.1570313 24,13.5 L24,3 C24,1.34296875 22.6570313,0 21,0 L21,0 Z M13.5,13.5 L13.5,21 L3,21 L3,10.5 L10.5,10.5 L10.5,3 L21,3 L21,13.5 L13.5,13.5 Z M10.875,12 C11.4960938,12 12,11.4960938 12,10.875 L12,5.25 C12,4.83515625 12.3351562,4.5 12.75,4.5 L18.75,4.5 C19.1648438,4.5 19.5,4.83515625 19.5,5.25 L19.5,11.25 C19.5,11.6648437 19.1648438,12 18.75,12 L13.125,12 C12.5039062,12 12,12.5039062 12,13.125 L12,18.75 C12,19.1648438 11.6648437,19.5 11.25,19.5 L5.25,19.5 C4.83515625,19.5 4.5,19.1648438 4.5,18.75 L4.5,12.75 C4.5,12.3351562 4.83515625,12 5.25,12 L10.875,12 Z" id="pficon-vcenter"></path>
        </g>
    </g>
</svg>