<?xml version="1.0" encoding="UTF-8"?><svg version="1.1" width="24px" height="24px" viewBox="0 0 24.0 24.0" xmlns="http://www.w3.org/2000/svg" xmlns:xlink="http://www.w3.org/1999/xlink"><defs><clipPath id="i0"><path d="M23.1421875,17.9994621 C23.371875,17.9994621 23.5734375,18.0838371 23.7445313,18.2549308 C23.915625,18.4260246 24,18.6228996 24,18.8572746 L24,21.6416496 C24,21.8760246 23.915625,22.0728996 23.7445313,22.2439934 C23.5734375,22.4150871 23.3765625,22.4994621 23.1421875,22.4994621 L0.853125,22.4994621 C0.61875,22.4994621 0.421875,22.4150871 0.25078125,22.2439934 C0.084375,22.0705559 0,21.8736808 0,21.6393058 L0,18.8572746 C0,18.6275871 0.084375,18.4260246 0.25546875,18.2549308 C0.4265625,18.0838371 0.6234375,17.9994621 0.8578125,17.9994621 Z M3,19.4994621 L1.5,19.4994621 L1.5,20.9994621 L3,20.9994621 L3,19.4994621 Z M6,19.4994621 L4.5,19.4994621 L4.5,20.9994621 L6,20.9994621 L6,19.4994621 Z M9,19.4994621 L7.5,19.4994621 L7.5,20.9994621 L9,20.9994621 L9,19.4994621 Z M12,19.4994621 L10.5,19.4994621 L10.5,20.9994621 L12,20.9994621 L12,19.4994621 Z M22.5,19.4994621 L21,19.4994621 L21,20.9994621 L22.5,20.9994621 L22.5,19.4994621 Z M23.1421875,11.9994621 C23.371875,11.9994621 23.5734375,12.0838371 23.7445313,12.2549308 C23.915625,12.4260246 24,12.6228996 24,12.8572746 L24,15.6416496 C24,15.8760246 23.915625,16.0728996 23.7445313,16.2439933 C23.5734375,16.4150871 23.3765625,16.4994621 23.1421875,16.4994621 L0.853125,16.4994621 C0.61875,16.4994621 0.421875,16.4150871 0.25078125,16.2439933 C0.084375,16.0705558 0,15.8736808 0,15.6393058 L0,12.8572746 C0,12.6275871 0.084375,12.4260246 0.25546875,12.2549308 C0.4265625,12.0838371 0.6234375,11.9994621 0.8578125,11.9994621 Z M3,13.4994621 L1.5,13.4994621 L1.5,14.9994621 L3,14.9994621 L3,13.4994621 Z M6,13.4994621 L4.5,13.4994621 L4.5,14.9994621 L6,14.9994621 L6,13.4994621 Z M9,13.4994621 L7.5,13.4994621 L7.5,14.9994621 L9,14.9994621 L9,13.4994621 Z M12,13.4994621 L10.5,13.4994621 L10.5,14.9994621 L12,14.9994621 L12,13.4994621 Z M22.5,13.4994621 L21,13.4994621 L21,14.9994621 L22.5,14.9994621 L22.5,13.4994621 Z M23.1421875,5.99946209 C23.371875,5.99946209 23.5734375,6.08383709 23.7445313,6.25493084 C23.915625,6.42602459 24,6.62289959 24,6.85727459 L24,9.64164959 C24,9.87602459 23.915625,10.0728996 23.7445313,10.2439933 C23.5734375,10.4150871 23.3765625,10.4994621 23.1421875,10.4994621 L0.853125,10.4994621 C0.61875,10.4994621 0.421875,10.4150871 0.25078125,10.2439933 C0.084375,10.0705558 0,9.87368084 0,9.63930584 L0,6.85727459 C0,6.62758709 0.084375,6.42602459 0.25546875,6.25493084 C0.4265625,6.08383709 0.6234375,5.99946209 0.8578125,5.99946209 Z M3,7.49946209 L1.5,7.49946209 L1.5,8.99946209 L3,8.99946209 L3,7.49946209 Z M6,7.49946209 L4.5,7.49946209 L4.5,8.99946209 L6,8.99946209 L6,7.49946209 Z M9,7.49946209 L7.5,7.49946209 L7.5,8.99946209 L9,8.99946209 L9,7.49946209 Z M12,7.49946209 L10.5,7.49946209 L10.5,8.99946209 L12,8.99946209 L12,7.49946209 Z M22.5,7.49946209 L21,7.49946209 L21,8.99946209 L22.5,8.99946209 L22.5,7.49946209 Z M4.34765625,0.0048527134 L19.7020313,0.0048527134 C19.7020313,0.0048527134 19.9785937,-0.0279597866 20.2291406,0.243915213 C20.450625,0.488391776 23.1284977,3.17843552 23.6618573,3.71399951 L23.7432111,3.79567939 C23.7502633,3.8027587 23.7539062,3.80641521 23.7539062,3.80641521 C23.9507812,4.00329021 24,4.03375896 24,4.24704021 C24,4.47204021 23.7257812,4.50016521 23.4539063,4.50016521 L0.51796875,4.50016521 C0.253125,4.50180584 0,4.46196209 0,4.24633709 C0,4.03071209 0.028125,4.00024334 0.225,3.80805584 C0.225,3.80805584 0.311268779,3.72258579 0.457011267,3.57800805 L0.658734748,3.37783028 C1.11241693,2.92748012 1.84693183,2.19740861 2.49186439,1.55204914 L2.8051506,1.23811593 C3.30913599,0.732283449 3.70803931,0.32745856 3.7875,0.234540213 C4.03382813,-0.0535066616 4.34765625,0.0048527134 4.34765625,0.0048527134 Z"></path></clipPath></defs><g transform="translate(0.0 1.0)"><g clip-path="url(#i0)"><polygon points="0,-5.55111512e-17 24,-5.55111512e-17 24,22.4994621 0,22.4994621 0,-5.55111512e-17" stroke="none" fill="#151515"></polygon></g></g></svg>