<?xml version="1.0" encoding="UTF-8"?><svg version="1.1" width="24px" height="24px" viewBox="0 0 24.0 24.0" xmlns="http://www.w3.org/2000/svg" xmlns:xlink="http://www.w3.org/1999/xlink"><defs><clipPath id="i0"><path d="M16.9323529,0 C17.7242647,0 18.3639706,0.551470588 18.3639706,1.23308824 C18.3639706,1.63455882 18.1411765,1.94779412 17.7948529,2.32058824 C17.5014706,2.63823529 17.7882353,2.82352941 18.5029412,2.82352941 L20.1330882,2.82352941 C20.4110155,2.82334626 20.6775153,2.93412492 20.8734173,3.13126946 C21.0693194,3.32841401 21.1784109,3.59560888 21.1764706,3.87352941 L21.1764706,6.225 C21.1764706,6.75441176 21.4963235,7.36544118 21.7389706,7.02352941 C21.9816176,6.68161765 22.3257353,6.32426471 22.7735294,6.32426471 C23.4507353,6.32426471 24,6.96176471 24,7.75147059 C24,8.54117647 23.4507353,9.18088235 22.7735294,9.18088235 C22.3102941,9.18088235 21.9485294,8.83235294 21.7169118,8.44191176 C21.4852941,8.05147059 21.1764706,8.72205882 21.1764706,9.24044118 L21.1764706,13.0169118 C21.1764706,13.5970588 20.7948529,14.1110294 20.2147059,14.1110294 L18.4830882,14.1110294 C17.7352941,14.1110294 17.3558824,14.3382353 17.8102941,14.7 C18.2647059,15.0617647 18.3639706,15.3419118 18.3639706,15.7301471 C18.3639706,16.3985294 17.7242647,16.9411765 16.9323529,16.9411765 C16.1404412,16.9411765 15.5007353,16.4007353 15.5007353,15.7301471 C15.5007353,15.3110294 15.7963235,15.0154412 16.1382353,14.6382353 C16.4801471,14.2610294 16.1647059,14.1176471 15.4411765,14.1176471 L13.6323529,14.1176471 C13.05,14.1176471 12.7058824,13.6279412 12.7058824,13.0477941 L12.7058824,10.6654412 C12.8536765,10.6875 12.8911765,10.7007353 13.0279412,10.7007353 C14.4198529,10.7007353 15.5470588,9.42352941 15.5470588,7.84632353 C15.5470588,6.26911765 14.4176471,4.99191176 13.0279412,4.99191176 C12.8911765,4.99191176 12.8536765,5.00514706 12.7058824,5.02720588 L12.7058824,3.87573529 C12.7214673,3.2882906 13.2035309,2.82092413 13.7911765,2.82352941 L15.4191176,2.82352941 C16.0566176,2.82352941 16.3941176,2.62720588 16.0411765,2.2875 C15.6772059,1.93676471 15.5007353,1.68088235 15.5007353,1.23308824 C15.5007353,0.551470588 16.1404412,0 16.9323529,0 Z M6.72338078,12.6860304 C5.53433373,12.7680822 4.99411765,13.3167017 4.99411765,14.4595588 C4.99411765,14.8080882 5.07132353,15.2007353 5.24558824,15.5294118 L4.00147059,15.5294118 C3.39926471,15.5095588 2.82352941,14.9823529 2.82352941,14.4022059 L2.82352941,9.26029412 C2.82352941,8.76617647 2.55441176,8.05808824 2.29852941,8.46617647 C2.04264706,8.87426471 1.69191176,9.18088235 1.22867647,9.18088235 C0.536029412,9.18088235 0,8.53897059 0,7.75147059 C0,6.96397059 0.536029412,6.32426471 1.22426471,6.32205882 C1.66544118,6.32205882 1.88382353,6.66617647 2.25882353,6.98161765 C2.63382353,7.29705882 2.82352941,6.69705882 2.82352941,6.18308824 L2.82352941,5.25661765 C2.82352941,4.67647059 3.31102941,4.23529412 3.89338235,4.23529412 L5.38455882,4.23529412 C6.19632353,4.23529412 6.31323529,4.06544118 5.97573529,3.59779412 C5.63823529,3.13014706 5.49485294,2.88308824 5.49485294,2.55220588 C5.49485294,1.89705882 6.13455882,1.36764706 6.92647059,1.36764706 C7.71838235,1.36764706 8.35808824,1.89705882 8.35808824,2.55220588 C8.35808824,2.93823529 8.17058824,3.21397059 7.78455882,3.66176471 C7.42941176,4.12279412 7.63014706,4.23529412 8.40661765,4.23529412 L10.2308824,4.23529412 C10.8110294,4.23529412 11.2941176,4.69632353 11.2941176,5.27647059 L11.2941176,6.20294118 C11.2941176,6.77205882 11.7419118,7.43823529 11.9889706,6.99926471 C12.2360294,6.56029412 12.5845588,6.32205882 13.0213235,6.32205882 C13.6941176,6.32205882 14.2367647,6.96176471 14.2367647,7.75147059 C14.2367647,8.54117647 13.6941176,9.18088235 13.0213235,9.18088235 C12.5647059,9.18088235 12.1676471,8.88308824 11.9602941,8.44411765 C11.7529412,8.00514706 11.2941176,8.68014706 11.2941176,9.24044118 L11.2941176,14.4220588 C11.2941176,15.0022059 10.7955882,15.5294118 10.2132353,15.5294118 L8.39338235,15.5294118 C8.55355738,15.1951652 8.639352,14.8301618 8.64485294,14.4595588 C8.64485294,13.2220588 7.84852941,12.6551471 6.88235294,12.6772059 L6.903,12.677 Z"></path></clipPath></defs><g transform="translate(0.0 4.0)"><g clip-path="url(#i0)"><polygon points="0,0 24,0 24,16.9411765 0,16.9411765 0,0" stroke="none" fill="#151515"></polygon></g></g></svg>