<?xml version="1.0" encoding="UTF-8"?><svg version="1.1" width="24px" height="24px" viewBox="0 0 24.0 24.0" xmlns="http://www.w3.org/2000/svg" xmlns:xlink="http://www.w3.org/1999/xlink"><defs><clipPath id="i0"><path d="M9.54078947,2.01019737 C9.89605263,1.83256579 10.3144737,1.83256579 10.6697368,2.01019737 L14.4592105,3.90493421 C14.8875,4.11809211 15.1578947,4.55625 15.1578947,5.03388158 L15.1578947,9.77861842 L19.5098684,11.9575658 C19.9381579,12.1707237 20.2085526,12.6088816 20.2085526,13.0865132 L20.2085526,17.0536184 C20.2085526,17.53125 19.9401316,17.9674342 19.5138158,18.1825658 L15.7223684,20.0773026 C15.5447368,20.1661184 15.3513158,20.2095395 15.1578947,20.2095395 C14.9644737,20.2095395 14.7710526,20.1641447 14.5934211,20.0753289 L10.1052632,17.83125 L5.61710526,20.0753289 C5.43947368,20.1641447 5.24605263,20.2095395 5.05263158,20.2095395 C4.85921053,20.2095395 4.66578947,20.1641447 4.48815789,20.0753289 L0.698684211,18.1805921 C0.270394737,17.9674342 0,17.5292763 0,17.0516447 L0,13.0865132 C0,12.6088816 0.270394737,12.1707237 0.698684211,11.9575658 L5.05263158,9.77861842 L5.05263158,5.03388158 C5.05263158,4.55625 5.32302632,4.11809211 5.75131579,3.90493421 Z M8.84210526,14.3595395 L5.05263158,16.2542763 L5.05263158,18.9542763 L8.84210526,17.0595395 L8.84210526,14.3595395 Z M18.9473684,14.3595395 L15.1578947,16.2542763 L15.1578947,18.9542763 L18.9473684,17.0595395 L18.9473684,14.3595395 Z M14.4592105,0.133223684 L18.2486842,2.02796053 C18.6769737,2.24111842 18.9473684,2.67927632 18.9473684,3.15690789 L18.9473684,7.74375 L23.3013158,9.92072368 C23.7296053,10.1358553 24,10.5740132 24,11.0516447 L24,15.1766447 C24,15.6542763 23.7315789,16.0904605 23.3052632,16.3055921 L21.4697368,17.2213816 L21.4697368,17.2095395 C21.8486842,16.9825658 22.0835526,16.5720395 22.0835526,16.1259868 L22.0835526,12.1588816 C22.0835526,11.68125 21.8131579,11.2430921 21.3848684,11.0299342 L17.0328947,8.85098684 L17.0328947,4.10625 C17.0328947,3.62861842 16.7625,3.19046053 16.3342105,2.97730263 L12.5447368,1.08256579 C12.225,0.922697368 11.8559211,0.906907895 11.5263158,1.03519737 L13.3302632,0.133223684 C13.6855263,-0.0444078947 14.1039474,-0.0444078947 14.4592105,0.133223684 Z M5.05263158,11.2016447 L1.42697368,13.0292763 L5.05263158,14.8411184 L8.69210526,13.0213816 L5.05263158,11.2016447 Z M15.1578947,11.2016447 L11.5322368,13.0292763 L15.1578947,14.8411184 L18.8131579,13.0134868 L15.1578947,11.2016447 Z M13.8947368,6.30690789 L10.1052632,8.20164474 L10.1052632,10.9036184 L13.8947368,9.00888158 L13.8947368,6.30690789 Z M10.1052632,3.14901316 L6.47960526,4.97664474 L10.1052632,6.78848684 L13.7447368,4.95296053 L10.1052632,3.14901316 Z"></path></clipPath></defs><g transform="translate(0.0 2.0)"><g clip-path="url(#i0)"><polygon points="0,0 24,0 24,20.2095395 0,20.2095395 0,0" stroke="none" fill="#151515"></polygon></g></g></svg>