<?xml version="1.0" encoding="UTF-8"?>
<svg width="24px" height="24px" viewBox="0 0 24 24" version="1.1" xmlns="http://www.w3.org/2000/svg" xmlns:xlink="http://www.w3.org/1999/xlink">
    <title></title>
    <g id="Icons" stroke="none" stroke-width="1" fill="none" fill-rule="evenodd">
        <g id="Icons/3.-Size-lg/Object/pficon-regions" fill="#151515">
            <path d="M12,19 C5.71458333,19.0041667 3.66041667,17.7916667 2.99166667,17 C2.66875,16.6166667 2.66666667,17 2.66666667,17 L2.66666667,19.6666667 C2.66666667,21.1395833 6.84375,22.3333333 12,22.3333333 C17.15625,22.3333333 21.3333333,21.1395833 21.3333333,19.6666667 L21.3333333,17 C21.3333333,17 21.3333333,16.6166667 21.0083333,17 C20.3375,17.7895833 18.2854167,18.9958333 12,19 L12,19 Z M12,14.3333333 C5.71458333,14.3333333 3.66041667,13.1229167 2.99166667,12.3333333 C2.66666667,11.95 2.66666667,12.3333333 2.66666667,12.3333333 L2.66666667,14.3333333 C2.66666667,15.80625 6.84375,17 12,17 C17.15625,17 21.3333333,15.80625 21.3333333,14.3333333 L21.3333333,12.3333333 C21.3333333,12.3333333 21.3333333,11.95 21.0083333,12.3333333 C20.3395833,13.1229167 18.2854167,14.3333333 12,14.3333333 L12,14.3333333 Z M12,9.66666667 C5.71458333,9.66666667 3.66041667,8.45625 2.99166667,7.66666667 C2.66666667,7.28333333 2.66666667,7.66666667 2.66666667,7.66666667 L2.66666667,9.66666667 C2.66666667,11.1395833 6.84375,12.3333333 12,12.3333333 C17.15625,12.3333333 21.3333333,11.1395833 21.3333333,9.66666667 L21.3333333,7.66666667 C21.3333333,7.66666667 21.3333333,7.28333333 21.0083333,7.66666667 C20.3395833,8.45625 18.2854167,9.66666667 12,9.66666667 L12,9.66666667 Z M21.3333333,5 C21.3333333,6.47291667 17.15625,7.66666667 12,7.66666667 C6.84375,7.66666667 2.66666667,6.47291667 2.66666667,5 L2.66666667,3.66666667 C2.66666667,2.19375 6.84375,1 12,1 C17.15625,1 21.3333333,2.19375 21.3333333,3.66666667 L21.3333333,5 Z M22.6666667,4 L22.6666667,19.3333333 C22.6666667,19.5166667 22.8166667,19.6666667 23,19.6666667 L23.6666667,19.6666667 C23.85,19.6666667 24,19.5166667 24,19.3333333 L24,4 C24,3.81666667 23.85,3.66666667 23.6666667,3.66666667 L23,3.66666667 C22.8166667,3.66666667 22.6666667,3.81666667 22.6666667,4 L22.6666667,4 Z M0,4 L0,19.3333333 C0,19.5166667 0.15,19.6666667 0.333333333,19.6666667 L1,19.6666667 C1.18333333,19.6666667 1.33333333,19.5166667 1.33333333,19.3333333 L1.33333333,4 C1.33333333,3.81666667 1.18333333,3.66666667 1,3.66666667 L0.333333333,3.66666667 C0.15,3.66666667 0,3.81666667 0,4 L0,4 Z" id="pficon-regions"></path>
        </g>
    </g>
</svg>