<?xml version="1.0" encoding="UTF-8"?><svg version="1.1" width="24px" height="24px" viewBox="0 0 24.0 24.0" xmlns="http://www.w3.org/2000/svg" xmlns:xlink="http://www.w3.org/1999/xlink"><defs><clipPath id="i0"><path d="M18,0 C18.8273437,0 19.5,0.67265625 19.5,1.5 L19.5,18 C19.5,18.8273437 18.76875,19.5 17.9414062,19.5 L17.9414062,24 L1.44140625,24 L1.5,19.5 C0.67265625,19.5 0,18.8273437 0,18 L0,1.5 C0,0.67265625 0.67265625,0 1.5,0 Z M4.5,19.4390625 L3,19.4390625 L3,22.4390625 L4.5,22.4390625 L4.5,19.4390625 Z M7.5,19.4390625 L6,19.4390625 L6,22.4390625 L7.5,22.4390625 L7.5,19.4390625 Z M10.5,19.4390625 L9,19.4390625 L9,22.4390625 L10.5,22.4390625 L10.5,19.4390625 Z M13.5,19.4390625 L12,19.4390625 L12,22.4390625 L13.5,22.4390625 L13.5,19.4390625 Z M16.5,19.4390625 L15,19.4390625 L15,22.4390625 L16.5,22.4390625 L16.5,19.4390625 Z M7.5,4.5 L6,4.5 L6,6 L4.5,6 L4.5,7.5 L6,7.5 L6,9 L4.5,9 L4.5,10.5 L6,10.5 L6,12 L4.5,12 L4.5,13.5 L6,13.5 L6,15 L7.5,15 L7.5,13.5 L9,13.5 L9,15 L10.5,15 L10.5,13.5 L12,13.5 L12,15 L13.5,15 L13.5,13.5 L14.9765625,13.5 L14.9765625,12 L13.5,12 L13.5,10.5 L14.9765625,10.5 L14.9765625,9 L13.5,9 L13.5,7.5 L14.9765625,7.5 L14.9765625,6 L13.5,6 L13.5,4.5 L12,4.5 L12,6 L10.5,6 L10.5,4.5 L9,4.5 L9,6 L7.5,6 L7.5,4.5 Z"></path></clipPath></defs><g transform="translate(2.0 0.0)"><g clip-path="url(#i0)"><polygon points="0,0 19.5,0 19.5,24 0,24 0,0" stroke="none" fill="#151515"></polygon></g></g></svg>