<?xml version="1.0" encoding="UTF-8"?>
<svg width="24px" height="24px" viewBox="0 0 24 24" version="1.1" xmlns="http://www.w3.org/2000/svg" xmlns:xlink="http://www.w3.org/1999/xlink">
    <title></title>
    <g id="Icons" stroke="none" stroke-width="1" fill="none" fill-rule="evenodd">
        <g id="Icons/3.-Size-lg/Object/pficon-replicator" fill="#151515">
            <path d="M24,13.0516447 L24,17.1766447 C24,17.6542763 23.7315789,18.0904605 23.3052632,18.3055921 L21.4697368,19.2213816 L21.4697368,19.2095395 C21.8486842,18.9825658 22.0835526,18.5720395 22.0835526,18.1259868 L22.0835526,14.1588816 C22.0835526,13.68125 21.8131579,13.2430921 21.3848684,13.0299342 L17.0328947,10.8509868 L17.0328947,6.10625 C17.0328947,5.62861842 16.7625,5.19046053 16.3342105,4.97730263 L12.5447368,3.08256579 C12.225,2.92269737 11.8559211,2.90690789 11.5263158,3.03519737 L13.3302632,2.13322368 C13.6855263,1.95559211 14.1039474,1.95559211 14.4592105,2.13322368 L18.2486842,4.02796053 C18.6769737,4.24111842 18.9473684,4.67927632 18.9473684,5.15690789 L18.9473684,9.74375 L23.3013158,11.9207237 C23.7296053,12.1358553 24,12.5740132 24,13.0516447 L24,13.0516447 Z M19.5098684,13.9575658 L15.1578947,11.7786184 L15.1578947,7.03388158 C15.1578947,6.55625 14.8875,6.11809211 14.4592105,5.90493421 L10.6697368,4.01019737 C10.3144737,3.83256579 9.89605263,3.83256579 9.54078947,4.01019737 L5.75131579,5.90493421 C5.32302632,6.11809211 5.05263158,6.55625 5.05263158,7.03388158 L5.05263158,11.7786184 L0.698684211,13.9575658 C0.270394737,14.1707237 0,14.6088816 0,15.0865132 L0,19.0516447 C0,19.5292763 0.270394737,19.9674342 0.698684211,20.1805921 L4.48815789,22.0753289 C4.66578947,22.1641447 4.85921053,22.2095395 5.05263158,22.2095395 C5.24605263,22.2095395 5.43947368,22.1641447 5.61710526,22.0753289 L10.1052632,19.83125 L14.5934211,22.0753289 C14.7710526,22.1641447 14.9644737,22.2095395 15.1578947,22.2095395 C15.3513158,22.2095395 15.5447368,22.1661184 15.7223684,22.0773026 L19.5138158,20.1825658 C19.9401316,19.9674342 20.2085526,19.53125 20.2085526,19.0536184 L20.2085526,15.0865132 C20.2085526,14.6088816 19.9381579,14.1707237 19.5098684,13.9575658 Z M1.42697368,15.0292763 L5.05263158,13.2016447 L8.69210526,15.0213816 L5.05263158,16.8411184 L1.42697368,15.0292763 Z M8.84210526,19.0595395 L5.05263158,20.9542763 L5.05263158,18.2542763 L8.84210526,16.3595395 L8.84210526,19.0595395 Z M6.47960526,6.97664474 L10.1052632,5.14901316 L13.7447368,6.95296053 L10.1052632,8.78848684 L6.47960526,6.97664474 Z M10.1052632,10.2016447 L13.8947368,8.30690789 L13.8947368,11.0088816 L10.1052632,12.9036184 L10.1052632,10.2016447 Z M11.5322368,15.0292763 L15.1578947,13.2016447 L18.8131579,15.0134868 L15.1578947,16.8411184 L11.5322368,15.0292763 Z M18.9473684,19.0595395 L15.1578947,20.9542763 L15.1578947,18.2542763 L18.9473684,16.3595395 L18.9473684,19.0595395 Z" id="pficon-replicator"></path>
        </g>
    </g>
</svg>