<?xml version="1.0" encoding="UTF-8"?>
<svg width="24px" height="24px" viewBox="0 0 24 24" version="1.1" xmlns="http://www.w3.org/2000/svg" xmlns:xlink="http://www.w3.org/1999/xlink">
    <title></title>
    <g id="Icons" stroke="none" stroke-width="1" fill="none" fill-rule="evenodd">
        <g id="Icons/3.-Size-lg/Object/pficon-tenant" fill="#151515">
            <path d="M12.0023438,0 C5.38359375,0 0,5.3859375 0,12 C0,18.6164062 5.3859375,24 12.0023438,24 C18.61875,24 24,18.6164062 24,12 C24,5.38359375 18.61875,0 12.0023438,0 Z M12,22.5 C6.20859375,22.5 1.5,17.79375 1.5,12 C1.5,6.2109375 6.20859375,1.5 12,1.5 C17.7890625,1.5 22.5,6.20859375 22.5,12 C22.5,17.7914062 17.7890625,22.5 12,22.5 Z M15.75,12.75 C14.0929687,12.75 12.75,14.0929687 12.75,15.75 C12.75,17.4070313 14.0929687,18.75 15.75,18.75 C17.4070313,18.75 18.75,17.4070313 18.75,15.75 C18.75,14.0929687 17.4070313,12.75 15.75,12.75 Z M15.75,17.625 C14.7164062,17.625 13.875,16.7835938 13.875,15.75 C13.875,14.7164062 14.7164062,13.875 15.75,13.875 C16.7835938,13.875 17.625,14.7164062 17.625,15.75 C17.625,16.7835938 16.7835938,17.625 15.75,17.625 Z M8.25,12.75 C6.59296875,12.75 5.25,14.0929687 5.25,15.75 C5.25,17.4070313 6.59296875,18.75 8.25,18.75 C9.90703125,18.75 11.25,17.4070313 11.25,15.75 C11.25,14.0929687 9.90703125,12.75 8.25,12.75 Z M8.25,17.625 C7.21640625,17.625 6.375,16.7835938 6.375,15.75 C6.375,14.7164062 7.21640625,13.875 8.25,13.875 C9.28359375,13.875 10.125,14.7164062 10.125,15.75 C10.125,16.7835938 9.28359375,17.625 8.25,17.625 Z M15.75,5.25 C14.0929687,5.25 12.75,6.59296875 12.75,8.25 C12.75,9.90703125 14.0929687,11.25 15.75,11.25 C17.4070313,11.25 18.75,9.90703125 18.75,8.25 C18.75,6.59296875 17.4070313,5.25 15.75,5.25 Z M15.75,10.125 C14.7164062,10.125 13.875,9.28359375 13.875,8.25 C13.875,7.21640625 14.7164062,6.375 15.75,6.375 C16.7835938,6.375 17.625,7.21640625 17.625,8.25 C17.625,9.28359375 16.7835938,10.125 15.75,10.125 Z M11.25,8.25 C11.25,9.90703125 9.90703125,11.25 8.25,11.25 C6.59296875,11.25 5.25,9.90703125 5.25,8.25 C5.25,6.59296875 6.59296875,5.25 8.25,5.25 C9.90703125,5.25 11.25,6.59296875 11.25,8.25" id="pficon-tenant"></path>
        </g>
    </g>
</svg>