<?xml version="1.0" encoding="UTF-8"?><svg version="1.1" width="24px" height="24px" viewBox="0 0 24.0 24.0" xmlns="http://www.w3.org/2000/svg" xmlns:xlink="http://www.w3.org/1999/xlink"><defs><clipPath id="i0"><path d="M17.9929687,15 C17.9929687,15 19.059375,13.8164062 20.2429687,15 C21.4265625,16.1835937 20.2429687,17.25 20.2429687,17.25 L16.4929687,21 L15.2132812,22.2796875 C15.0726562,22.4203125 14.8804687,22.5 14.68125,22.5 L5.99296875,22.5 L4.49296875,24 L0,19.921875 L2.26640625,17.53125 C3.13359375,16.5703125 4.040625,16.4765625 4.51640625,16.4882812 L12.7429687,16.5 C12.7429687,16.5 13.4929687,16.5 13.4929687,17.25 C13.4929687,18 12.7429687,18 12.7429687,18 L8.99296875,18 C8.99296875,18 8.19609375,18 8.19609375,18.75 C8.19609375,19.5 8.94609375,19.5 8.94609375,19.5 L13.4929687,19.5 Z M15.2320312,0 C15.3796875,0 15.5273437,0.11484375 15.5414062,0.26953125 L15.684375,2.43046875 C15.9609375,2.5125 15.9984375,2.5125 16.2515625,2.6390625 L17.8171875,1.27265625 C17.878125,1.22109375 17.953125,1.2 18.0257812,1.2 C18.1101562,1.2 18.1851562,1.23046875 18.2460937,1.284375 C18.5179687,1.5375 19.7648437,2.6765625 19.7648437,2.971875 C19.7648437,3.04453125 19.734375,3.11015625 19.6921875,3.17109375 C19.3875,3.58125 18.6,4.38984375 18.3046875,4.8 C18.440625,5.090625 18.3960937,5.00390625 18.4898437,5.29921875 L20.7398437,5.484375 C20.8875,5.51484375 20.9929687,5.653125 20.9976562,5.784375 L20.9976562,7.734375 C20.9976562,7.86796875 20.8921875,8.02734375 20.75625,8.0484375 L18.4125,8.221875 C18.328125,8.50078125 18.3539062,8.49609375 18.2179687,8.75859375 C18.5132812,9.178125 19.396875,9.9234375 19.7320312,10.3242188 C19.771875,10.3851562 19.8046875,10.4484375 19.8046875,10.5328125 C19.8046875,10.6054688 19.7859375,10.678125 19.7320312,10.7320312 C19.5234375,11.0132812 18.3421875,12.3023438 18.0351562,12.3023438 C17.9507812,12.3023438 17.8757812,12.271875 17.8148437,12.2296875 L16.1578125,10.7484375 C15.8882812,10.8867188 15.9140625,10.9007812 15.6304687,10.9851562 C15.5789062,11.5289062 15.6773437,12.73125 15.5414062,13.246875 C15.5015625,13.3945312 15.375,13.5 15.2273437,13.5 L13.2679687,13.5 C13.1226562,13.5 12.975,13.3851562 12.9539062,13.2375 L12.7804687,10.9875 C12.5015625,10.903125 12.4804687,10.9148437 12.2273437,10.7882813 L10.6734375,12.2390625 C10.6242187,12.290625 10.5375,12.3117187 10.4648437,12.3117187 C10.3804687,12.3117187 10.3054687,12.28125 10.2445312,12.2273438 C9.97265625,11.9742188 8.72578125,10.846875 8.72578125,10.5398438 C8.72578125,10.4671875 8.75625,10.4015625 8.7984375,10.340625 C9.103125,9.9421875 9.87421875,9.06328125 10.18125,8.653125 C10.0335937,8.3625 10.0546875,8.45859375 9.9609375,8.16328125 L7.753125,8.0203125 C7.60546875,7.996875 7.5,7.8609375 7.5,7.71328125 L7.50234375,5.7609375 C7.50234375,5.62734375 7.6078125,5.46796875 7.74375,5.446875 L9.93046875,5.34140625 C10.0148437,5.0625 9.99375,4.940625 10.1296875,4.678125 C9.834375,4.25625 9.103125,3.57421875 8.76796875,3.1734375 C8.728125,3.1125 8.6953125,3.0375 8.6953125,2.96484375 C8.6953125,2.8921875 8.7140625,2.8171875 8.76796875,2.75625 C8.9765625,2.47265625 10.1578125,1.1953125 10.4648437,1.1953125 C10.5492187,1.1953125 10.6242187,1.22578125 10.6851562,1.26796875 L12.309375,2.69296875 C12.5789062,2.5546875 12.553125,2.53359375 12.8367187,2.43984375 C12.890625,1.91015625 12.8226562,0.76875 12.9585937,0.253125 C12.9984375,0.10546875 13.125,0 13.2726562,0 Z M5.21953125,7.88671875 C6.25546875,7.88671875 7.09453125,8.728125 7.09453125,9.76171875 C7.09453125,10.7953125 6.253125,11.6367188 5.21953125,11.6367188 C4.1859375,11.6367188 3.34453125,10.7953125 3.34453125,9.76171875 C3.34453125,8.728125 4.18359375,7.88671875 5.21953125,7.88671875 Z M5.21953125,9.01171875 C4.80703125,9.01171875 4.46953125,9.34921875 4.46953125,9.76171875 C4.46953125,10.1742188 4.80703125,10.5117188 5.21953125,10.5117188 C5.63203125,10.5117188 5.96953125,10.1742188 5.96953125,9.76171875 C5.96953125,9.34921875 5.63203125,9.01171875 5.21953125,9.01171875 Z M14.2101562,4.12734375 C12.7546875,4.12734375 11.5710937,5.30859375 11.5710937,6.76640625 C11.5710937,8.22421875 12.759375,9.40546875 14.2101562,9.40546875 C15.6679687,9.40546875 16.8492187,8.22421875 16.8492187,6.76640625 C16.8492187,5.30859375 15.665625,4.12734375 14.2101562,4.12734375 Z M4.5,0.75 C6.15703125,0.75 7.5,2.09765625 7.5,3.75234375 C7.5,5.40703125 6.15703125,6.75 4.5,6.75 C2.84296875,6.75 1.5,5.409375 1.5,3.75234375 C1.5,2.0953125 2.84296875,0.75 4.5,0.75 Z M4.5,2.625 C3.87890625,2.625 3.375,3.13125 3.375,3.75234375 C3.375,4.3734375 3.87890625,4.87734375 4.5,4.87734375 C5.12109375,4.87734375 5.625,4.37109375 5.625,3.75 C5.625,3.12890625 5.12109375,2.625 4.5,2.625 Z"></path></clipPath></defs><g transform="translate(2.0 0.0)"><g clip-path="url(#i0)"><polygon points="0,0 20.9976562,0 20.9976562,24 0,24 0,0" stroke="none" fill="#151515"></polygon></g></g></svg>