<?xml version="1.0" encoding="UTF-8"?>
<svg width="24px" height="24px" viewBox="0 0 24 24" version="1.1" xmlns="http://www.w3.org/2000/svg" xmlns:xlink="http://www.w3.org/1999/xlink">
    <title></title>
    <g id="Icons" stroke="none" stroke-width="1" fill="none" fill-rule="evenodd">
        <g id="Icons/3.-Size-lg/Object/pficon-automation" fill="#151515">
            <path d="M18,6 L18,6.0328125 C17.9320912,6.01939275 17.8629655,6.01310862 17.79375,6.0140625 C16.52788,5.9926617 15.2870594,6.36802221 14.2453125,7.0875 C13.8738883,7.32920081 13.6629266,7.75346152 13.6943709,8.19548693 C13.7258152,8.63751234 13.9947099,9.02763752 14.3966085,9.21432652 C14.798507,9.40101551 15.2700686,9.35484539 15.628125,9.09375 C16.2527377,8.66209298 16.9971254,8.43746498 17.75625,8.4515625 C17.8378933,8.45249409 17.9194597,8.44621976 18,8.4328125 L18,8.4421875 C19.9640625,8.4421875 21.5625,10.040625 21.5625,12.0023437 C21.5609194,13.388783 20.7567677,14.6489253 19.5,15.234375 L19.5,17.8171875 C22.0875,17.1515625 24,14.803125 24,12.0070312 C24,8.6859375 21.3140625,6 18,6 M17.4984375,10.59375 C17.1421875,10.4484375 16.8375,10.509375 16.5890625,10.7765625 L14.8875,12.4640625 L14.5125,12.8390625 L8.615625,6.86484375 C7.7109375,6.11484375 7.1390625,6 6,6 C2.6859375,6 0,8.70703125 0,12.01875 C0,15.3304688 2.6859375,18 6,18 C7.125,18 8.0671875,17.5992187 8.90625,16.9429687 L8.8921875,16.9335938 L9.01875,16.8492187 C9.38007567,16.5987649 9.57872698,16.1732945 9.5387547,15.7354754 C9.49878244,15.2976563 9.22636795,14.9151936 8.82566198,14.7343121 C8.42495602,14.5534307 7.9579245,14.6021023 7.603125,14.8617188 C7.06162256,15.2481419 6.42437674,15.4783936 5.7609375,15.5273438 C3.825,15.5015625 2.4375,13.9640625 2.4375,12.01875 C2.4375,10.0875 3.8859375,8.51484375 5.803125,8.45859375 L5.9109375,8.45859375 C5.9296875,8.46328125 5.9484375,8.45859375 5.9625,8.46328125 L5.971875,8.46328125 C6.3140625,8.45859375 6.8578125,8.58515625 7.3265625,8.96015625 L12.8109375,14.5453125 L10.753125,16.603125 C10.4859375,16.865625 10.425,17.1609375 10.5703125,17.503125 C10.715625,17.85 10.9734375,18 11.3390625,18 L17.1703125,18 C17.3953125,18 17.5921875,17.9390625 17.75625,17.775 C17.9160235,17.622099 18.0058657,17.410207 18.0047102,17.1890625 L18.0047102,11.3625 C18.0047102,10.996875 17.8359375,10.7390625 17.4984375,10.59375" id="pficon-automation"></path>
        </g>
    </g>
</svg>