<?xml version="1.0" encoding="UTF-8"?><svg version="1.1" width="24px" height="24px" viewBox="0 0 24.0 24.0" xmlns="http://www.w3.org/2000/svg" xmlns:xlink="http://www.w3.org/1999/xlink"><defs><clipPath id="i0"><path d="M21,0 C22.6570313,0 24,1.34296875 24,3 L24,13.5 C24,15.1570313 22.6570313,16.5 21,16.5 L16.5,16.5 L16.5,21 C16.5,22.6570313 15.1570313,24 13.5,24 L3,24 C1.34296875,24 0,22.6570313 0,21 L0,10.5 C0,8.84296875 1.34296875,7.5 3,7.5 L7.5,7.5 L7.5,3 C7.5,1.34296875 8.84296875,0 10.5,0 Z M21,3 L10.5,3 L10.5,10.5 L3,10.5 L3,21 L13.5,21 L13.5,13.5 L21,13.5 L21,3 Z M18.75,4.5 C19.1648438,4.5 19.5,4.83515625 19.5,5.25 L19.5,11.25 C19.5,11.6648437 19.1648438,12 18.75,12 L13.125,12 C12.5039062,12 12,12.5039062 12,13.125 L12,18.75 C12,19.1648438 11.6648437,19.5 11.25,19.5 L5.25,19.5 C4.83515625,19.5 4.5,19.1648438 4.5,18.75 L4.5,12.75 C4.5,12.3351562 4.83515625,12 5.25,12 L10.875,12 C11.4960938,12 12,11.4960938 12,10.875 L12,5.25 C12,4.83515625 12.3351562,4.5 12.75,4.5 L18.75,4.5 Z"></path></clipPath></defs><g clip-path="url(#i0)"><polygon points="0,0 24,0 24,24 0,24 0,0" stroke="none" fill="#151515"></polygon></g></svg>