<?xml version="1.0" encoding="UTF-8"?><svg version="1.1" width="24px" height="24px" viewBox="0 0 24.0 24.0" xmlns="http://www.w3.org/2000/svg" xmlns:xlink="http://www.w3.org/1999/xlink"><defs><clipPath id="i0"><path d="M13.875,0 C14.454899,0 14.9323199,0.438760945 14.9933987,1.00241886 L15,1.125 L15,4.875 L14.9988281,4.90107422 L14.9976562,4.92890625 L17.56875,7.5 L20.25,7.5 C20.6296958,7.5 20.943491,7.78215388 20.9931534,8.14822944 L21,8.25 L21,11.25 C21,11.6296958 20.7178461,11.943491 20.3517706,11.9931534 L20.25,12 L19.5,12 L19.5,13.4765625 L21.375,13.4765625 C21.954899,13.4765625 22.4323199,13.9153234 22.4933987,14.4789814 L22.5,14.6015625 L22.5,16.5 L23.25,16.5 C23.6296957,16.5 23.943491,16.7821539 23.9931534,17.1482294 L24,17.25 L24,20.25 C24,20.6296958 23.7178461,20.943491 23.3517705,20.9931534 L23.25,21 L20.25,21 C19.8703042,21 19.556509,20.7178461 19.5068466,20.3517706 L19.5,20.25 L19.5,17.25 C19.5,16.8703042 19.7821539,16.556509 20.1482294,16.5068466 L20.25,16.5 L21,16.5 L21,14.9765625 L16.5,14.9765625 L16.5,16.5 L17.25,16.5 C17.6296958,16.5 17.943491,16.7821539 17.9931534,17.1482294 L18,17.25 L18,20.25 C18,20.6296958 17.7178461,20.943491 17.3517706,20.9931534 L17.25,21 L14.25,21 C13.8703042,21 13.556509,20.7178461 13.5068466,20.3517706 L13.5,20.25 L13.5,17.25 C13.5,16.8703042 13.7821539,16.556509 14.1482294,16.5068466 L14.25,16.5 L15,16.5 L15,14.6015625 C15,14.0216635 15.4387609,13.5442426 16.0024189,13.4831638 L16.125,13.4765625 L18,13.4765625 L18,12 L17.25,12 C16.8703042,12 16.556509,11.7178461 16.5068466,11.3517706 L16.5,11.25 L16.5,8.55234375 L13.9453125,5.99765625 L13.9101562,5.99970703 L13.875,6 L10.0851563,6 L7.5,8.58515625 L7.5,11.25 C7.5,11.6296958 7.21784612,11.943491 6.85177056,11.9931534 L6.75,12 L6,12 L6,13.4765625 L7.875,13.4765625 C8.45489899,13.4765625 8.93231987,13.9153234 8.99339865,14.4789814 L9,14.6015625 L9,16.5 L9.75,16.5 C10.1296958,16.5 10.443491,16.7821539 10.4931534,17.1482294 L10.5,17.25 L10.5,20.25 C10.5,20.6296958 10.2178461,20.943491 9.85177056,20.9931534 L9.75,21 L6.75,21 C6.37030423,21 6.05650904,20.7178461 6.00684662,20.3517706 L6,20.25 L6,17.25 C6,16.8703042 6.28215388,16.556509 6.64822944,16.5068466 L6.75,16.5 L7.5,16.5 L7.5,14.9765625 L3,14.9765625 L3,16.5 L3.75,16.5 C4.12969577,16.5 4.44349096,16.7821539 4.49315338,17.1482294 L4.5,17.25 L4.5,20.25 C4.5,20.6296958 4.21784612,20.943491 3.85177056,20.9931534 L3.75,21 L0.75,21 C0.370304234,21 0.0565090391,20.7178461 0.00684661599,20.3517706 L0,20.25 L0,17.25 C0,16.8703042 0.282153882,16.556509 0.648229443,16.5068466 L0.75,16.5 L1.5,16.5 L1.5,14.6015625 C1.5,14.0216635 1.93876095,13.5442426 2.50241886,13.4831638 L2.625,13.4765625 L4.5,13.4765625 L4.5,12 L3.75,12 C3.37030423,12 3.05650904,11.7178461 3.00684662,11.3517706 L3,11.25 L3,8.25 C3,7.87030423 3.28215388,7.55650904 3.64822944,7.50684662 L3.75,7.5 L6.46171875,7.5 L9.00234375,4.959375 L9,4.875 L9,1.125 C9,0.545101012 9.43876095,0.067680135 10.0024189,0.00660134683 L10.125,0 L13.875,0 Z M13.5,1.5 L10.5,1.5 L10.5,4.5 L13.5,4.5 L13.5,1.5 Z"></path></clipPath></defs><g transform="translate(0.0 2.0)"><g clip-path="url(#i0)"><polygon points="0,0 24,0 24,21 0,21 0,0" stroke="none" fill="#151515"></polygon></g></g></svg>