<?xml version="1.0" encoding="UTF-8"?>
<svg width="24px" height="24px" viewBox="0 0 24 24" version="1.1" xmlns="http://www.w3.org/2000/svg" xmlns:xlink="http://www.w3.org/1999/xlink">
    <title></title>
    <g id="Icons" stroke="none" stroke-width="1" fill="none" fill-rule="evenodd">
        <g id="Icons/3.-Size-lg/Object/pficon-service-catalog" fill="#151515">
            <path d="M12,9.18823529 C13.3257353,9.18823529 14.4,10.2625 14.4,11.5882353 C14.4,12.9139706 13.3257353,13.9882353 12,13.9882353 C10.6742647,13.9882353 9.6,12.9139706 9.6,11.5882353 C9.6,10.2625 10.6742647,9.18823529 12,9.18823529 L12,9.18823529 Z M11.1198529,17.6279412 C10.9875,17.6279412 10.8573529,17.5242647 10.8375,17.3919118 L10.6830882,15.3779412 C10.4338235,15.3029412 10.4139706,15.3117647 10.1889706,15.1992647 L8.79485294,16.4985294 C8.74852941,16.5448529 8.67352941,16.5647059 8.60735294,16.5647059 C8.53235294,16.5647059 8.46617647,16.5360294 8.40882353,16.4897059 C8.16397059,16.2647059 7.04779412,15.2522059 7.04779412,14.9786765 C7.04779412,14.9125 7.07647059,14.8573529 7.11397059,14.8 C7.3875,14.4426471 8.07794118,13.6573529 8.35147059,13.2889706 C8.21911765,13.0308824 8.23897059,13.1147059 8.15294118,12.8522059 L6.17647059,12.7242647 C6.04411765,12.7044118 5.95147059,12.5830882 5.95147059,12.4507353 L5.95147059,10.7102941 C5.95147059,10.5889706 6.04632353,10.4477941 6.16764706,10.4279412 L8.12426471,10.3330882 C8.19926471,10.0838235 8.18161765,9.97573529 8.30294118,9.73970588 C8.04044118,9.3625 7.38529412,8.75147059 7.08308824,8.39411765 C7.04558824,8.33676471 7.01691176,8.27279412 7.01691176,8.20661765 C7.01691176,8.14044118 7.03676471,8.07426471 7.08308824,8.01911765 C7.27058824,7.76544118 8.32941176,6.62058824 8.60294118,6.62058824 C8.67794118,6.62058824 8.74411765,6.64926471 8.80147059,6.68676471 L10.2551471,7.96176471 C10.4955882,7.84044118 10.4713235,7.82058824 10.725,7.73676471 C10.7713235,7.2625 10.7117647,6.24117647 10.8330882,5.78014706 C10.8705882,5.64779412 10.9830882,5.55514706 11.1154412,5.55514706 L11.2919118,5.55514706 L11.2919118,3.82352941 C8.83676471,2.24191176 4.69632353,1 2.82352941,1 L2.82352941,17.9411765 C4.17573529,17.5705882 7.76470588,17.0698529 11.2941176,19.3529412 L11.2941176,17.6257353 L11.1198529,17.6279412 Z M22.5882353,2.41176471 L22.5882353,20.7647059 C22.5882353,20.7647059 19.0367647,16.3683824 12.7058824,20.7073529 L12.7058824,22.1764706 C12.7058824,22.1764706 19.0389706,18.0448529 21.7433824,22.1301471 C21.7433824,22.1301471 24,22.1764706 24,20.7647059 L24,3.88529412 C24,3.88529412 24,2.41176471 22.5882353,2.41176471 L22.5882353,2.41176471 Z M12.8823529,5.54852941 C13.0147059,5.54852941 13.1272059,5.64117647 13.1647059,5.77352941 C13.2860294,6.23455882 13.2264706,7.25588235 13.2727941,7.73014706 C13.5264706,7.81397059 13.5022059,7.83382353 13.7426471,7.95514706 L15.1963235,6.68455882 C15.2536765,6.64705882 15.3198529,6.61838235 15.3948529,6.61838235 C15.6683824,6.61838235 16.7272059,7.76323529 16.9147059,8.01691176 C16.9610294,8.07205882 16.9808824,8.13823529 16.9808824,8.20441176 C16.9808824,8.27058824 16.9522059,8.33455882 16.9147059,8.39191176 C16.6125,8.74926471 15.9573529,9.36029412 15.6948529,9.7375 C15.8161765,9.97352941 15.7985294,10.0816176 15.8735294,10.3308824 L17.8301471,10.4257353 C17.9514706,10.4455882 18.0463235,10.5867647 18.0463235,10.7080882 L18.0463235,12.4485294 C18.0463235,12.5808824 17.9536765,12.7022059 17.8213235,12.7220588 L15.8448529,12.85 C15.7588235,13.1125 15.7786765,13.0286765 15.6463235,13.2867647 C15.9198529,13.6551471 16.6102941,14.4404412 16.8838235,14.7977941 C16.9213235,14.8551471 16.95,14.9102941 16.95,14.9764706 C16.95,15.25 15.8338235,16.2625 15.5889706,16.4875 C15.5316176,16.5338235 15.4654412,16.5625 15.3904412,16.5625 C15.3242647,16.5625 15.2492647,16.5426471 15.2029412,16.4963235 L13.8110294,15.1970588 C13.5860294,15.3095588 13.5661765,15.3007353 13.3169118,15.3757353 L13.1625,17.3897059 C13.1426471,17.5220588 13.0125,17.6257353 12.8801471,17.6257353 L12.7036765,17.6257353 L12.7036765,19.3529412 C16.2772059,17.0698529 19.8242647,17.5683824 21.1742647,17.9411765 L21.1742647,1 C19.2904412,1 15.1588235,2.24852941 12.7036765,3.82352941 L12.7036765,5.55073529 L12.8823529,5.54852941 Z M1.41176471,20.7647059 L1.41176471,2.41176471 C0,2.41176471 0,3.88529412 0,3.88529412 L0,20.7647059 C0,22.1764706 2.26102941,22.1301471 2.26102941,22.1301471 C5.02720588,18.0691176 11.2941176,22.1764706 11.2941176,22.1764706 L11.2941176,20.7073529 C4.98529412,16.3683824 1.41176471,20.7625 1.41176471,20.7647059 L1.41176471,20.7647059 Z M12.0757721,11.6356066 C12.0457721,11.6806066 12.0457721,11.6806066 12.0757721,11.6356066 L12.0757721,11.6356066 Z M12.0521691,11.6972059 L12.0521691,11.6072059 C12.0821691,11.6372059 12.0821691,11.6672059 12.0521691,11.6972059 L12.0521691,11.6972059 Z" id="pficon-service-catalog"></path>
        </g>
    </g>
</svg>