<?xml version="1.0" encoding="UTF-8"?><svg version="1.1" width="24px" height="24px" viewBox="0 0 24.0 24.0" xmlns="http://www.w3.org/2000/svg" xmlns:xlink="http://www.w3.org/1999/xlink"><defs><clipPath id="i0"><path d="M0.319852941,16.9411765 C0.977205882,17.7794118 2.99558824,19.0632353 9.17647059,19.0588235 C9.56691176,19.0588235 9.93970588,19.0522059 10.2970588,19.0433824 C10.3654412,19.0411765 10.4294118,19.0786765 10.4602941,19.1404412 C11.0757353,20.3625 12.0705882,21.3529412 13.2816176,21.9661765 C13.4360294,22.0433824 13.3985294,22.2727941 13.2286765,22.2992647 C12.0066176,22.4845588 10.6301471,22.5882353 9.17647059,22.5882353 C4.10735294,22.5860294 0,21.3242647 0,19.7647059 L0.000932515863,16.9198765 C0.00652761104,16.8417767 0.0456932773,16.5932773 0.319852941,16.9411765 Z M15.6551471,12.0176471 C18,11.7308824 20.1330882,13.4007353 20.4132353,15.7411765 C20.5389706,16.7889706 20.2764706,17.7970588 19.7316176,18.6198529 C19.7426471,18.6198529 19.7514706,18.6154412 19.7625,18.6154412 C19.9963235,18.5867647 20.2919118,18.6661765 20.5852941,18.8735294 L23.5455882,20.8257353 C23.8345588,21.0264706 24,21.3330882 24,21.6397059 C24,21.8823529 23.9426471,22.0566176 23.8058824,22.2330882 C23.6492647,22.4360294 23.3426471,22.5882353 23.0647059,22.5882353 C22.8242647,22.5882353 22.5794118,22.5 22.3786765,22.3235294 L19.7713235,19.9235294 C19.4889706,19.6764706 19.3367647,19.3941176 19.3169118,19.1514706 C18.6507353,19.8727941 17.7397059,20.3779412 16.6852941,20.5036765 C14.3404412,20.7904412 12.2073529,19.1227941 11.925,16.7779412 C11.6426471,14.4330882 13.3102941,12.3044118 15.6551471,12.0176471 Z M19.0036765,15.9154412 C18.8161765,14.3514706 17.3911765,13.2419118 15.8272059,13.4294118 C14.2632353,13.6169118 13.1536765,15.0419118 13.3411765,16.6058824 C13.5286765,18.1698529 14.9536765,19.2838235 16.5176471,19.0919118 C18.0816176,18.9 19.1889706,17.4794118 19.0036765,15.9154412 Z M0.319852941,12 C0.977205882,12.8360294 2.99558824,14.1176471 9.17647059,14.1176471 C9.42352941,14.1176471 9.66617647,14.1154412 9.9,14.1110294 C10.0213235,14.1088235 10.1073529,14.2257353 10.0698529,14.3404412 C10.0522059,14.3933824 10.0367647,14.4463235 10.0213235,14.4992647 C9.81176471,15.2316176 9.73455882,15.9860294 9.79191176,16.7448529 C9.80073529,16.8463235 9.72132353,16.9345588 9.61764706,16.9367647 C9.46985294,16.9389764 9.32205882,16.9389764 9.17205882,16.9389764 C4.10735294,16.9411765 0,15.6772059 0,14.1176471 L0.000932515863,11.9787001 C0.00652761104,11.9006002 0.0456932773,11.6521008 0.319852941,12 Z M18.3520087,7.03752358 L18.3529412,9.17647059 C18.3529412,9.47205882 18.2051471,9.75661765 17.9316176,10.0235294 C17.8875,10.0654412 17.8257353,10.0830882 17.7661765,10.0676471 C17.2566176,9.9375 16.725,9.86691176 16.1779412,9.86691176 C15.9176471,9.86691176 15.6551471,9.88235294 15.3970588,9.91544118 C14.5411765,10.0191176 13.7316176,10.2904412 12.9882353,10.7161765 C12.4477941,11.0272059 11.9602941,11.4110294 11.5345588,11.8588235 C11.5036765,11.8897059 11.4639706,11.9095588 11.4198529,11.9139706 C10.7007353,11.9691176 9.95073529,12 9.17647059,12 C4.10735294,12 0,10.7360294 0,9.17647059 L0.000932515863,7.03752358 C0.00652761104,6.95942377 0.0456932773,6.71092437 0.319852941,7.05882353 C0.977205882,7.89485294 2.99558824,9.17647059 9.17647059,9.17647059 C15.3573529,9.17647059 17.3757353,7.89485294 18.0330882,7.05882353 C18.3072479,6.71092437 18.3464136,6.95942377 18.3520087,7.03752358 Z M9.17647059,0 C14.2455882,0 18.3529412,1.26397059 18.3529412,2.82352941 L18.3529412,4.23529412 C18.3529412,5.79485294 14.2455882,7.05882353 9.17647059,7.05882353 C4.10735294,7.05882353 0,5.79485294 0,4.23529412 L0,2.82352941 C0,1.26397059 4.10735294,0 9.17647059,0 Z"></path></clipPath></defs><g transform="translate(0.0 1.0)"><g clip-path="url(#i0)"><polygon points="0,0 24,0 24,22.5882353 0,22.5882353 0,0" stroke="none" fill="#151515"></polygon></g></g></svg>