<?xml version="1.0" encoding="UTF-8"?><svg version="1.1" width="24px" height="24px" viewBox="0 0 24.0 24.0" xmlns="http://www.w3.org/2000/svg" xmlns:xlink="http://www.w3.org/1999/xlink"><defs><clipPath id="i0"><path d="M21.0083333,16 C21.3333333,15.6166667 21.3333333,16 21.3333333,16 L21.3333333,18.6666667 C21.3333333,20.1395833 17.15625,21.3333333 12,21.3333333 C6.84375,21.3333333 2.66666667,20.1395833 2.66666667,18.6666667 L2.66681472,15.9945517 C2.66860119,15.9491497 2.69181548,15.6440476 2.99166667,16 C3.66041667,16.7916667 5.71458333,18.0041667 12,18 C18.2854167,17.9958333 20.3375,16.7895833 21.0083333,16 Z M23.6666667,2.66666667 C23.85,2.66666667 24,2.81666667 24,3 L24,18.3333333 C24,18.5166667 23.85,18.6666667 23.6666667,18.6666667 L23,18.6666667 C22.8166667,18.6666667 22.6666667,18.5166667 22.6666667,18.3333333 L22.6666667,3 C22.6666667,2.81666667 22.8166667,2.66666667 23,2.66666667 Z M1,2.66666667 C1.18333333,2.66666667 1.33333333,2.81666667 1.33333333,3 L1.33333333,18.3333333 C1.33333333,18.5166667 1.18333333,18.6666667 1,18.6666667 L0.333333333,18.6666667 C0.15,18.6666667 0,18.5166667 0,18.3333333 L0,3 C0,2.81666667 0.15,2.66666667 0.333333333,2.66666667 Z M21.0083333,11.3333333 C21.3333333,10.95 21.3333333,11.3333333 21.3333333,11.3333333 L21.3333333,13.3333333 C21.3333333,14.80625 17.15625,16 12,16 C6.84375,16 2.66666667,14.80625 2.66666667,13.3333333 L2.66678511,11.3278851 C2.66832483,11.282483 2.68988095,10.977381 2.99166667,11.3333333 C3.66041667,12.1229167 5.71458333,13.3333333 12,13.3333333 C18.2854167,13.3333333 20.3395833,12.1229167 21.0083333,11.3333333 Z M21.0083333,6.66666667 C21.3333333,6.28333333 21.3333333,6.66666667 21.3333333,6.66666667 L21.3333333,8.66666667 C21.3333333,10.1395833 17.15625,11.3333333 12,11.3333333 C6.84375,11.3333333 2.66666667,10.1395833 2.66666667,8.66666667 L2.66678511,6.66121842 C2.66832483,6.61581633 2.68988095,6.31071429 2.99166667,6.66666667 C3.66041667,7.45625 5.71458333,8.66666667 12,8.66666667 C18.2854167,8.66666667 20.3395833,7.45625 21.0083333,6.66666667 Z M12,0 C17.15625,0 21.3333333,1.19375 21.3333333,2.66666667 L21.3333333,4 C21.3333333,5.47291667 17.15625,6.66666667 12,6.66666667 C6.84375,6.66666667 2.66666667,5.47291667 2.66666667,4 L2.66666667,2.66666667 C2.66666667,1.19375 6.84375,0 12,0 Z"></path></clipPath></defs><g transform="translate(0.0 1.0)"><g clip-path="url(#i0)"><polygon points="0,0 24,0 24,21.3333333 0,21.3333333 0,0" stroke="none" fill="#151515"></polygon></g></g></svg>