<?xml version="1.0" encoding="UTF-8"?>
<svg width="24px" height="24px" viewBox="0 0 24 24" version="1.1" xmlns="http://www.w3.org/2000/svg" xmlns:xlink="http://www.w3.org/1999/xlink">
    <title></title>
    <g id="Icons" stroke="none" stroke-width="1" fill="none" fill-rule="evenodd">
        <g id="Icons/3.-Size-lg/Object/pficon-server-group" fill="#151515">
            <path d="M0.749999377,6.00001495 C0.335155972,6.00001495 0,6.33517092 0,6.75001433 L0,23.2500006 C0,23.6648441 0.335155972,24 0.749999377,24 L17.2499857,24 C17.6648291,24 17.9999851,23.6648441 17.9999851,23.2500006 L17.9999851,6.00001495 L0.749999377,6.00001495 Z M14.9999938,20.2500031 L7.49999377,20.2500031 L7.49999377,18.000005 L14.9999938,18.000005 L14.9999938,20.2500031 Z M14.9999975,15.7500069 L2.99999751,15.7500069 L2.99999751,13.5000087 L14.9999975,13.5000087 L14.9999975,15.7500069 Z M14.9999913,11.2500106 L10.4999913,11.2500106 L10.4999913,9.00001246 L14.9999913,9.00001246 L14.9999913,11.2500106 Z M4.34765264,6.6196371e-06 C4.34765264,6.6196371e-06 3.99140294,-0.0046675543 3.78749685,0.234394747 C3.54140331,0.522675757 0.224999813,3.80861052 0.224999813,3.80861052 C0.0281249766,4.00079786 0,4.03126658 0,4.24689141 C0,4.46251623 0.25312479,4.50235994 0.51796832,4.50000662 L17.6249854,4.50000662 L13.1249891,6.6196371e-06 L4.34765264,6.6196371e-06 Z M23.2499807,6.00001495 L19.4999838,6.00001495 L19.4999838,22.5000012 L23.2499807,22.5000012 C23.6648241,22.5000012 23.9999838,22.1648453 23.9999838,21.7500019 L23.9999838,6.75001433 C23.9999838,6.33517092 23.6648241,6.00001495 23.2499807,6.00001495 L23.2499807,6.00001495 Z M23.4538868,4.49767245 C23.7257615,4.49767245 23.9999875,4.46954747 23.9999875,4.24454766 C23.9999875,4.03126658 23.9507614,4.00079786 23.7538865,3.80392302 C23.7538865,3.80392302 20.474983,0.510957017 20.2288894,0.239082243 C20.0038896,1.99418123e-05 19.7015461,1.99418123e-05 19.7015461,1.99418123e-05 L14.9999875,1.99418123e-05 L19.4999875,4.50001994 L23.4538868,4.50001994 L23.4538868,4.49767245 Z" id="pficon-server-group"></path>
        </g>
    </g>
</svg>