<?xml version="1.0" encoding="UTF-8"?><svg version="1.1" width="24px" height="24px" viewBox="0 0 24.0 24.0" xmlns="http://www.w3.org/2000/svg" xmlns:xlink="http://www.w3.org/1999/xlink"><defs><clipPath id="i0"><path d="M17.9999851,6.00001495 L17.9999851,23.2500006 C17.9999851,23.6648441 17.6648291,24 17.2499857,24 L0.749999377,24 C0.335155972,24 0,23.6648441 0,23.2500006 L0,6.75001433 C0,6.33517092 0.335155972,6.00001495 0.749999377,6.00001495 L17.9999851,6.00001495 Z M23.2499807,6.00001495 C23.6648241,6.00001495 23.9999838,6.33517092 23.9999838,6.75001433 L23.9999838,21.7500019 C23.9999838,22.1648453 23.6648241,22.5000012 23.2499807,22.5000012 L19.4999838,22.5000012 L19.4999838,6.00001495 Z M14.9999938,18.000005 L7.49999377,18.000005 L7.49999377,20.2500031 L14.9999938,20.2500031 L14.9999938,18.000005 Z M14.9999975,13.5000087 L2.99999751,13.5000087 L2.99999751,15.7500069 L14.9999975,15.7500069 L14.9999975,13.5000087 Z M14.9999913,9.00001246 L10.4999913,9.00001246 L10.4999913,11.2500106 L14.9999913,11.2500106 L14.9999913,9.00001246 Z M13.1249891,6.6196371e-06 L17.6249854,4.50000662 L0.51796832,4.50000662 C0.25312479,4.50235994 0,4.46251623 0,4.24689141 C0,4.03126658 0.0281249766,4.00079786 0.224999813,3.80861052 C0.224999813,3.80861052 0.228450805,3.80519123 0.235138406,3.79856358 L0.376926863,3.65798378 C0.739593768,3.29829071 1.68578833,2.35908822 2.49196457,1.55223933 L2.80525235,1.23824601 C3.30923568,0.732313167 3.70811184,0.327388621 3.78749685,0.234394747 C3.99140294,-0.0046675543 4.34765264,6.6196371e-06 4.34765264,6.6196371e-06 L13.1249891,6.6196371e-06 Z M19.7122232,0.000347873638 C19.7677787,0.00297132825 20.0288896,0.0265824197 20.2288894,0.239082243 C20.474983,0.510957017 23.7538865,3.80392302 23.7538865,3.80392302 L23.8295087,3.87912795 C23.9638214,4.01323407 23.9999875,4.06173531 23.9999875,4.24454766 C23.9999875,4.46954747 23.7257615,4.49767245 23.4538868,4.49767245 L19.4999875,4.50001994 L14.9999875,1.99418123e-05 Z"></path></clipPath></defs><g clip-path="url(#i0)"><polygon points="0,-2.11931879e-16 23.9999875,-2.11931879e-16 23.9999875,24 0,24 0,-2.11931879e-16" stroke="none" fill="#151515"></polygon></g></svg>