<?xml version="1.0" encoding="UTF-8"?><svg version="1.1" width="24px" height="24px" viewBox="0 0 24.0 24.0" xmlns="http://www.w3.org/2000/svg" xmlns:xlink="http://www.w3.org/1999/xlink"><defs><clipPath id="i0"><path d="M10.7125159,0.799056141 C11.2418524,-0.27306602 12.762616,-0.259616852 13.2874841,0.799056141 L16.2168182,6.7385069 L22.7708127,7.69401118 C23.9461474,7.86446954 24.4171749,9.31343127 23.5648393,10.143337 L18.8231531,14.763893 L19.9446473,21.2909892 C20.1465163,22.4708362 18.9039358,23.3500701 17.8631804,22.8027722 L12,19.7208974 L6.13681961,22.8027722 C5.09606424,23.3545385 3.85348372,22.4708362 4.05535268,21.2909892 L5.17684687,14.763893 L0.43516067,10.143337 C-0.417174914,9.31343127 0.0538526455,7.86446954 1.22918732,7.69401118 L7.78318184,6.7385069 Z"></path></clipPath></defs><g transform="translate(0.0 1.0)"><g clip-path="url(#i0)"><polygon points="6.66133815e-16,2.44249065e-15 24,2.44249065e-15 24,22.9710242 6.66133815e-16,22.9710242 6.66133815e-16,2.44249065e-15" stroke="none" fill="#151515"></polygon></g></g></svg>