<?xml version="1.0" encoding="UTF-8"?><svg version="1.1" width="24px" height="24px" viewBox="0 0 24.0 24.0" xmlns="http://www.w3.org/2000/svg" xmlns:xlink="http://www.w3.org/1999/xlink"><defs><clipPath id="i0"><path d="M11.8180108,0 C12.3324444,0 13.0452265,0.295256864 13.4089646,0.658995011 L23.3409478,10.5909782 C24.2195773,11.4696077 24.2195773,12.8942564 23.3409478,13.7729316 L13.7729316,23.3409478 C12.8942564,24.2195773 11.4696077,24.2195773 10.5909782,23.3409478 L0.658995011,13.4089646 C0.295256864,13.0452265 0,12.3324444 0,11.8180108 L0,2.24999464 C0,1.00735233 1.00735233,0 2.24999464,0 Z M5.24998748,2.99999285 C4.00734518,2.99999285 2.99999285,4.00734518 2.99999285,5.24998748 C2.99999285,6.49262978 4.00734518,7.49998212 5.24998748,7.49998212 C6.49262978,7.49998212 7.49998212,6.49262978 7.49998212,5.24998748 C7.49998212,4.00734518 6.49262978,2.99999285 5.24998748,2.99999285 Z"></path></clipPath></defs><g clip-path="url(#i0)"><polygon points="0,0 23.9999199,0 23.9999199,23.9999199 0,23.9999199 0,0" stroke="none" fill="#151515"></polygon></g></svg>