<?xml version="1.0" encoding="UTF-8"?><svg version="1.1" width="24px" height="24px" viewBox="0 0 24.0 24.0" xmlns="http://www.w3.org/2000/svg" xmlns:xlink="http://www.w3.org/1999/xlink"><defs><clipPath id="i0"><path d="M7.0827773,13.4999678 C8.12812393,13.9781008 9.28122787,14.249966 10.499975,14.249966 C11.7187221,14.249966 12.876541,13.9781008 13.9171726,13.4999678 L14.6999466,13.4999678 C18.1780725,13.4999678 20.9999499,16.3218452 20.9999499,19.7999711 L20.9999499,21.7499481 C20.9999499,22.9921327 19.9921398,23.9999428 18.7499553,23.9999428 L2.24999464,23.9999428 C1.0078101,23.9999428 0,22.9921327 0,21.7499481 L0,19.7999711 C0,16.3218452 2.82187743,13.4999678 6.30000329,13.4999678 Z M10.499975,0 C13.8140387,0 16.4999607,2.68592194 16.4999607,5.99998569 C16.4999607,9.31404945 13.8140387,11.9999714 10.499975,11.9999714 C7.18591121,11.9999714 4.49998927,9.31404945 4.49998927,5.99998569 C4.49998927,2.68592194 7.18591121,0 10.499975,0 Z"></path></clipPath></defs><g transform="translate(2.0 0.0)"><g clip-path="url(#i0)"><polygon points="0,0 20.9999499,0 20.9999499,23.9999428 0,23.9999428 0,0" stroke="none" fill="#151515"></polygon></g></g></svg>