<?xml version="1.0" encoding="UTF-8"?>
<svg width="24px" height="24px" viewBox="0 0 24 24" version="1.1" xmlns="http://www.w3.org/2000/svg" xmlns:xlink="http://www.w3.org/1999/xlink">
    <title></title>
    <g id="Icons" stroke="none" stroke-width="1" fill="none" fill-rule="evenodd">
        <g id="Icons/3.-Size-lg/Object/user" fill="#151515">
            <path d="M12.499975,11.9999714 C15.8140387,11.9999714 18.4999607,9.31404945 18.4999607,5.99998569 C18.4999607,2.68592194 15.8140387,0 12.499975,0 C9.18591121,0 6.49998927,2.68592194 6.49998927,5.99998569 C6.49998927,9.31404945 9.18591121,11.9999714 12.499975,11.9999714 Z M20.7499553,23.9999428 C21.9921398,23.9999428 22.9999499,22.9921327 22.9999499,21.7499481 L22.9999499,19.7999711 C22.9999499,16.3218452 20.1780725,13.4999678 16.6999466,13.4999678 L15.9171726,13.4999678 C14.876541,13.9781008 13.7187221,14.249966 12.499975,14.249966 C11.2812279,14.249966 10.1281239,13.9781008 9.0827773,13.4999678 L8.30000329,13.4999678 C4.82187743,13.4999678 2,16.3218452 2,19.7999711 L2,21.7499481 C2,22.9921327 3.0078101,23.9999428 4.24999464,23.9999428 L20.7499553,23.9999428 Z" id="user"></path>
        </g>
    </g>
</svg>