<?xml version="1.0" encoding="UTF-8"?><svg version="1.1" width="24px" height="24px" viewBox="0 0 24.0 24.0" xmlns="http://www.w3.org/2000/svg" xmlns:xlink="http://www.w3.org/1999/xlink"><defs><clipPath id="i0"><path d="M9.43125,9.6 C10.2150146,9.975 11.0775146,10.2 12,10.2 C12.9224854,10.2 13.7887573,9.975 14.56875,9.6 L14.8799927,9.6 C17.2650146,9.6 19.2,11.5349854 19.2,13.9200073 L19.2,15 C19.2,15.99375 18.39375,16.8 17.4,16.8 L6.6,16.8 C5.60625,16.8 4.8,15.99375 4.8,15 L4.8,13.9200073 C4.8,11.5349854 6.73498535,9.6 9.12000732,9.6 Z M21.6,8.4 C22.9237427,8.4 24,9.47625732 24,10.8 L24,12 C24,12.6637573 23.4637573,13.2 22.8,13.2 L20.325,13.2 C20.0924927,11.4224854 19.0200073,9.92625732 17.5087646,9.09748535 C17.94375,8.66623535 18.5400146,8.4 19.2,8.4 Z M4.8,8.4 C5.45998535,8.4 6.05625,8.66623535 6.49123535,9.09748535 C4.97999268,9.92625732 3.90750732,11.4224854 3.67126465,13.2 L1.2,13.2 C0.536242676,13.2 0,12.6637573 0,12 L0,10.8 C0,9.47625732 1.07625732,8.4 2.4,8.4 Z M12,0 C14.3212646,0 16.2,1.87873535 16.2,4.2 C16.2,6.52126465 14.3212646,8.4 12,8.4 C9.67873535,8.4 7.8,6.52126465 7.8,4.2 C7.8,1.87873535 9.67873535,0 12,0 Z M3.6,2.4 C4.92374268,2.4 6,3.47625732 6,4.8 C6,6.12374268 4.92374268,7.2 3.6,7.2 C2.27625732,7.2 1.2,6.12374268 1.2,4.8 C1.2,3.47625732 2.27625732,2.4 3.6,2.4 Z M20.4,2.4 C21.7237427,2.4 22.8,3.47625732 22.8,4.8 C22.8,6.12374268 21.7237427,7.2 20.4,7.2 C19.0762573,7.2 18,6.12374268 18,4.8 C18,3.47625732 19.0762573,2.4 20.4,2.4 Z"></path></clipPath></defs><g transform="translate(0.0 4.0)"><g clip-path="url(#i0)"><polygon points="0,0 24,0 24,16.8 0,16.8 0,0" stroke="none" fill="#151515"></polygon></g></g></svg>