<?xml version="1.0" encoding="UTF-8"?>
<svg width="24px" height="24px" viewBox="0 0 24 24" version="1.1" xmlns="http://www.w3.org/2000/svg" xmlns:xlink="http://www.w3.org/1999/xlink">
    <title></title>
    <g id="Icons" stroke="none" stroke-width="1" fill="none" fill-rule="evenodd">
        <g id="Icons/1.-Size-md-(16px)/Actions/pause-circle" fill="#6A6E73">
            <path d="M11.7499815,19.499963 C16.0312213,19.499963 19.499963,16.0312213 19.499963,11.7499815 C19.499963,7.46874173 16.0312213,4 11.7499815,4 C7.46874173,4 4,7.46874173 4,11.7499815 C4,16.0312213 7.46874173,19.499963 11.7499815,19.499963 Z M10.7499887,14.7499744 L9.24998868,14.7499744 C8.97499424,14.7499744 8.74998868,14.5249688 8.74998868,14.2499756 L8.74998868,9.24998868 C8.74998868,8.97499424 8.97499424,8.74998868 9.24998868,8.74998868 L10.7499887,8.74998868 C11.0249771,8.74998868 11.2499887,8.97499424 11.2499887,9.24998868 L11.2499887,14.2499756 C11.2499887,14.5249688 11.0249771,14.7499744 10.7499887,14.7499744 Z M14.2499803,14.7499744 L12.7499803,14.7499744 C12.4749859,14.7499744 12.2499803,14.5249688 12.2499803,14.2499756 L12.2499803,9.24998868 C12.2499803,8.97499424 12.4749859,8.74998868 12.7499803,8.74998868 L14.2499803,8.74998868 C14.5249688,8.74998868 14.7499803,8.97499424 14.7499803,9.24998868 L14.7499803,14.2499756 C14.7499803,14.5249688 14.5249688,14.7499744 14.2499803,14.7499744 Z" id="pause-circle"></path>
        </g>
    </g>
</svg>