<?xml version="1.0" encoding="UTF-8"?>
<svg width="24px" height="24px" viewBox="0 0 24 24" version="1.1" xmlns="http://www.w3.org/2000/svg" xmlns:xlink="http://www.w3.org/1999/xlink">
    <title></title>
    <g id="Icons" stroke="none" stroke-width="1" fill="none" fill-rule="evenodd">
        <g id="Icons/1.-Size-md-(16px)/Actions/pficon-optimize" fill="#6A6E73">
            <path d="M19.78125,17.78125 L9.8578125,7.8578125 C9.565625,7.565625 9.0890625,7.565625 8.796875,7.8578125 L7.8578125,8.796875 C7.565625,9.0890625 7.565625,9.565625 7.8578125,9.8578125 L17.78125,19.78125 C17.9265625,19.9265625 18.1203125,20 18.3125,20 C18.5046875,20 18.696875,19.9265625 18.84375,19.78125 L19.7828125,18.8421875 C19.928125,18.696875 20,18.509375 20,18.315625 C20,18.121875 19.928125,17.928125 19.78125,17.78125 Z M11.515625,12.515625 L8.328125,9.328125 L9.328125,8.328125 L12.515625,11.515625 L11.515625,12.515625 Z M7.8234375,11.8234375 C7.9203125,11.9203125 7.9203125,12.0796875 7.8234375,12.1765625 L6.0734375,13.9265625 C6.0265625,13.9734375 5.9625,14 5.896875,14 L5.25,14 C5.1125,14 5,13.8875 5,13.75 L5,13.103125 C5,13.0375 5.0265625,12.9734375 5.0734375,12.9265625 L6.8234375,11.1765625 C6.9203125,11.0796875 7.0796875,11.0796875 7.1765625,11.1765625 L7.8234375,11.8234375 Z M10,13.25 L10,14.75 C10,14.8875 9.8875,15 9.75,15 L9.25,15 C9.1125,15 9,14.8875 9,14.75 L9,13.25 C9,13.1125 9.1125,13 9.25,13 L9.75,13 C9.8875,13 10,13.1125 10,13.25 Z M5.75,10 L4.25,10 C4.1125,10 4,9.8875 4,9.75 L4,9.25 C4,9.1125 4.1125,9 4.25,9 L5.75,9 C5.8875,9 6,9.1125 6,9.25 L6,9.75 C6,9.8875 5.8875,10 5.75,10 Z M11.1765625,7.1765625 C11.0796875,7.0796875 11.0796875,6.9203125 11.1765625,6.8234375 L12.9265625,5.0734375 C12.9734375,5.0265625 13.0375,5 13.103125,5 L13.75,5 C13.8875,5 14,5.1125 14,5.25 L14,5.896875 C14,5.9625 13.9734375,6.0265625 13.9265625,6.0734375 L12.1765625,7.8234375 C12.0796875,7.9203125 11.9203125,7.9203125 11.8234375,7.8234375 L11.1765625,7.1765625 Z M13.25,9 L14.75,9 C14.8875,9 15,9.1125 15,9.25 L15,9.75 C15,9.8875 14.8875,10 14.75,10 L13.25,10 C13.1125,10 13,9.8875 13,9.75 L13,9.25 C13,9.1125 13.1125,9 13.25,9 Z M9,5.75 L9,4.25 C9,4.1125 9.1125,4 9.25,4 L9.75,4 C9.8875,4 10,4.1125 10,4.25 L10,5.75 C10,5.8875 9.8875,6 9.75,6 L9.25,6 C9.1125,6 9,5.8875 9,5.75 Z M5.0734375,6.0734375 C5.0265625,6.0265625 5,5.9625 5,5.896875 L5,5.25 C5,5.1125 5.1125,5 5.25,5 L5.896875,5 C5.9625,5 6.0265625,5.0265625 6.0734375,5.0734375 L7.8234375,6.8234375 C7.9203125,6.9203125 7.9203125,7.0796875 7.8234375,7.1765625 L7.1765625,7.8234375 C7.0796875,7.9203125 6.9203125,7.9203125 6.8234375,7.8234375 L5.0734375,6.0734375 Z" id="pficon-optimize"></path>
        </g>
    </g>
</svg>