<?xml version="1.0" encoding="UTF-8"?>
<svg width="24px" height="24px" viewBox="0 0 24 24" version="1.1" xmlns="http://www.w3.org/2000/svg" xmlns:xlink="http://www.w3.org/1999/xlink">
    <title></title>
    <g id="Icons" stroke="none" stroke-width="1" fill="none" fill-rule="evenodd">
        <g id="Icons/1.-Size-md-(16px)/Actions/pficon-add-circle-o" fill="#6A6E73">
            <path d="M13,8.734375 C13,8.60493327 12.8950667,8.5 12.765625,8.5 L11.234375,8.5 C11.1049333,8.5 11,8.60493327 11,8.734375 L11,11 L8.734375,11 C8.60493327,11 8.5,11.1049333 8.5,11.234375 L8.5,12.765625 C8.5,12.8950667 8.60493327,13 8.734375,13 L11,13 L11,15.2640625 C10.9997402,15.3938652 11.1045734,15.4993973 11.234375,15.5 L12.765625,15.5 C12.8954266,15.4993973 13.0002598,15.3938652 13,15.2640625 L13,13 L15.265625,13 C15.327641,13.0004162 15.38726,12.9760717 15.4312593,12.9323657 C15.4752586,12.8886597 15.5,12.8292049 15.5,12.7671875 L15.5,11.2359375 C15.5002598,11.1061348 15.3954266,11.0006027 15.265625,11 L13,11 L13,8.734375 Z M12,18 C8.690625,18 6,15.3109375 6,12 C6,8.6921875 8.690625,6 12,6 C15.309375,6 18,8.690625 18,12 C18,15.309375 15.3078125,18 12,18 Z M12.0015625,4 C7.5890625,4 4,7.590625 4,12 C4,16.409375 7.590625,20 12.0015625,20 C16.4125,20 20,16.4109375 20,12 C20,7.5890625 16.4125,4 12.0015625,4 Z" id="pficon-add-circle-o"></path>
        </g>
    </g>
</svg>