<?xml version="1.0" encoding="UTF-8"?>
<svg width="24px" height="24px" viewBox="0 0 24 24" version="1.1" xmlns="http://www.w3.org/2000/svg" xmlns:xlink="http://www.w3.org/1999/xlink">
    <title></title>
    <g id="Icons" stroke="none" stroke-width="1" fill="none" fill-rule="evenodd">
        <g id="Icons/1.-Size-md-(16px)/Actions/share-square" fill="#6A6E73">
            <path d="M9.85075271,16.3554409 C8.57603651,12.0979437 10.4820073,11.0309907 14.9999714,11.0006868 L14.9999714,13.2495218 C14.9999714,13.910592 15.7905884,14.242714 16.264922,13.7947475 L20.7650333,9.54524592 C21.0783871,9.24925663 21.0781429,8.75044801 20.7650333,8.45473338 L16.264922,4.20514024 C15.7911377,3.75763154 14.9999714,4.08868544 14.9999714,4.75036599 L14.9999714,7.00084891 C10.4249396,7.02620895 6.74999106,7.91881547 6.74999106,12.4168211 C6.74999106,14.202736 7.85161197,15.9720189 9.06932147,16.8970045 C9.44932544,17.1856696 9.99085858,16.8233353 9.85075271,16.3554409 Z M15.4999702,19.9999634 C16.3283984,19.9999634 16.9999666,19.3283952 16.9999666,18.499967 L16.9999666,15.7247966 C16.9999666,15.4657945 16.7438027,15.2852225 16.4996321,15.371587 C16.2991321,15.4425097 15.9638363,15.5000657 15.7511903,15.5000657 C15.6624149,15.5000657 15.5190742,15.4897813 15.4312143,15.4771165 C15.2040419,15.4444323 14.9999714,15.618199 14.9999714,15.8477211 L14.9999714,17.9999682 L5,17.9999682 L5,7.9999968 L6.59111693,7.9999968 C6.679282,7.999931 6.80034494,7.94823434 6.86137995,7.88457483 C7.32863348,7.39809527 7.86876281,7.01302539 8.4555534,6.70720947 C8.80336141,6.52593549 8.67448598,5.9999968 8.282275,5.9999968 L4.5,5.9999968 C3.67156822,5.9999968 3,6.67156502 3,7.4999968 L3,18.499967 C3,19.3283952 3.67156822,19.9999634 4.5,19.9999634 L15.4999702,19.9999634 Z" id="share-square"></path>
        </g>
    </g>
</svg>