<?xml version="1.0" encoding="UTF-8"?>
<svg width="24px" height="24px" viewBox="0 0 24 24" version="1.1" xmlns="http://www.w3.org/2000/svg" xmlns:xlink="http://www.w3.org/1999/xlink">
    <title></title>
    <g id="Icons" stroke="none" stroke-width="1" fill="none" fill-rule="evenodd">
        <g id="Icons/1.-Size-md-(16px)/Actions/upload" fill="#6A6E73">
            <path d="M13.2499779,16.0000048 C13.6655959,16.0000048 13.9999762,15.6656245 13.9999762,15.2500066 L13.9999762,10.0000191 L16.7406007,10.0000191 C17.2968433,10.0000191 17.5749798,9.32814568 17.1812125,8.93440882 L12.4249677,4.17816406 C12.1905933,3.94378962 11.8062253,3.94378962 11.5718508,4.17816406 L6.81874938,8.93440882 C6.42498201,9.32814568 6.70311856,10.0000191 7.25936113,10.0000191 L9.99998569,10.0000191 L9.99998569,15.2500066 C9.99998569,15.6656245 10.334366,16.0000048 10.7499839,16.0000048 L13.2499779,16.0000048 Z M19.2499636,19.9999952 C19.6655815,19.9999952 19.9999619,19.6656149 19.9999619,19.249997 L19.9999619,15.7500054 C19.9999619,15.3343875 19.6655815,15.0000072 19.2499636,15.0000072 L14.9999738,15.0000072 L14.9999738,15.2500066 C14.9999738,16.2156415 14.2156129,17.0000072 13.2499779,17.0000072 L10.7499839,17.0000072 C9.784349,17.0000072 8.99998808,16.2156415 8.99998808,15.2500066 L8.99998808,15.0000072 L4.74999821,15.0000072 C4.33438031,15.0000072 4,15.3343875 4,15.7500054 L4,19.249997 C4,19.6656149 4.33438031,19.9999952 4.74999821,19.9999952 L19.2499636,19.9999952 Z M15.4999726,19.1249973 C15.1562234,19.1249973 14.8749741,18.843748 14.8749741,18.4999988 C14.8749741,18.1562496 15.1562234,17.8750003 15.4999726,17.8750003 C15.8437218,17.8750003 16.1249711,18.1562496 16.1249711,18.4999988 C16.1249711,18.843748 15.8437218,19.1249973 15.4999726,19.1249973 Z M17.4999678,19.1249973 C17.1562186,19.1249973 16.8749693,18.843748 16.8749693,18.4999988 C16.8749693,18.1562496 17.1562186,17.8750003 17.4999678,17.8750003 C17.843717,17.8750003 18.1249663,18.1562496 18.1249663,18.4999988 C18.1249663,18.843748 17.843717,19.1249973 17.4999678,19.1249973 Z" id="upload"></path>
        </g>
    </g>
</svg>