<?xml version="1.0" encoding="UTF-8"?>
<svg width="24px" height="24px" viewBox="0 0 24 24" version="1.1" xmlns="http://www.w3.org/2000/svg" xmlns:xlink="http://www.w3.org/1999/xlink">
    <title></title>
    <g id="Icons" stroke="none" stroke-width="1" fill="none" fill-rule="evenodd">
        <g id="Icons/1.-Size-md-(16px)/Actions/window-restore" fill="#6A6E73">
            <path d="M15.4999726,19.9999619 C16.3280956,19.9999619 16.999969,19.3280885 16.999969,18.4999654 L16.999969,16.999969 L18.4999654,16.999969 C19.3280885,16.999969 19.9999619,16.3280956 19.9999619,15.4999726 L19.9999619,5.5 C19.9999619,4.6718734 19.3280885,4 18.4999654,4 L8.49998927,4 C7.67186625,4 7,4.6718734 7,5.5 L7,7 L5.5,7 C4.6718734,7 4,7.67186625 4,8.49998927 L4,18.4999654 C4,19.3280885 4.6718734,19.9999619 5.5,19.9999619 L15.4999726,19.9999619 Z M18.4999654,15.4999726 L16.999969,15.4999726 L16.999969,8.49999642 C16.999969,7.67186625 16.3280956,6.99999642 15.4999726,6.99999642 L8.49998927,6.99999642 L8.49998927,5.49999642 L18.4999654,5.49999642 L18.4999654,15.4999726 Z M15.4999726,18.4999654 L5.49999642,18.4999654 L5.49999642,11.9999809 L15.4999726,11.9999809 L15.4999726,18.4999654 Z" id="window-restore"></path>
        </g>
    </g>
</svg>