<svg xmlns="http://www.w3.org/2000/svg" width="114" height="40" viewBox="0 0 114 40">
  <g fill="none" fill-rule="evenodd">
    <rect width="114" height="40" fill="#FFF"/>
    <text fill="#151515" font-family="RedHatText-Regular, Red Hat Text" font-size="16">
      <tspan x="16" y="24">Option</tspan>
    </text>
    <g fill-opacity=".9">
      <rect width="15" height="39" x=".5" y=".5" fill="#3F9C35" stroke="#418A38"/>
      <rect width="81" height="7" x=".5" y=".5" fill="#92D400" stroke="#7FB300" transform="translate(16)"/>
      <rect width="81" height="7" x=".5" y=".5" fill="#92D400" stroke="#7FB300" transform="translate(16 32)"/>
      <rect width="15" height="39" x=".5" y=".5" fill="#3F9C35" stroke="#418A38" transform="translate(98)"/>
      <rect width="7" height="39" x=".5" y=".5" fill="#92D400" stroke="#7FB300" transform="translate(66.5)"/>
    </g>
    <path fill="#151515" d="M11.4894393,15.3370987 L14.6769317,12.1496063 C14.8972528,11.9292852 14.8972528,11.5730544 14.6745971,11.3527332 L11.4871047,8.16524085 C11.269141,7.94491972 10.9128873,7.94491972 10.6925662,8.16524085 L10.1652237,8.69961 C9.94492544,8.91757365 9.94492544,9.27382738 10.1652237,9.49414851 L12.4246024,11.7535044 L10.1652237,14.0128832 C9.94492544,14.2308468 9.94492544,14.5871005 10.1652237,14.8074217 L10.6949237,15.3370987 C10.9128873,15.5574199 11.269141,15.5574199 11.4894393,15.3370987 Z" transform="translate(74 8)"/>
  </g>
</svg>
