<?xml version="1.0" encoding="UTF-8"?><svg version="1.1" width="956px" height="40px" viewBox="0 0 956.0 40.0" xmlns="http://www.w3.org/2000/svg" xmlns:xlink="http://www.w3.org/1999/xlink"><defs><clipPath id="i0"><path d="M956,0 L956,40 L0,40 L0,0 L956,0 Z"></path></clipPath><filter id="i1" x="-1.35135135%" y="-32.6086957%" filterUnits="userSpaceOnUse" width="102.079002%" height="143.478261%"><feGaussianBlur stdDeviation="2" in="SourceAlpha" result="i2"></feGaussianBlur><feOffset dx="0" dy="-2" in="i2" result="i3"></feOffset><feColorMatrix values="0 0 0 0.0 0 0 0 0 0.0 0 0 0 0 0.0 0 0 0 0 0.16 0" type="matrix" in="i3"></feColorMatrix></filter><filter id="i4" x="-1.35135135%" y="-23.9130435%" filterUnits="userSpaceOnUse" width="102.079002%" height="143.478261%"><feGaussianBlur stdDeviation="2" in="SourceAlpha" result="i5"></feGaussianBlur><feOffset dx="0" dy="2" in="i5" result="i6"></feOffset><feColorMatrix values="0 0 0 0.0 0 0 0 0 0.0 0 0 0 0 0.0 0 0 0 0 0.16 0" type="matrix" in="i6"></feColorMatrix></filter></defs><g clip-path="url(#i0)"><polygon points="0,0 956,0 956,40 0,40 0,0" stroke="none" fill="#FFFFFF"></polygon></g><polygon points="1,1 955,1 955,39 1,39 1,1" stroke="none" fill="#000000" filter="url(#i1)"></polygon><g clip-path="url(#i0)"><polygon points="0,0 956,0 956,40 0,40 0,0" stroke="none" fill="#FFFFFF"></polygon></g><polygon points="1,1 955,1 955,39 1,39 1,1" stroke="none" fill="#000000" filter="url(#i4)"></polygon><g clip-path="url(#i0)"><polygon points="0,0 956,0 956,40 0,40 0,0" stroke="none" fill="#FFFFFF"></polygon></g></svg>