<?xml version="1.0" encoding="UTF-8"?>
<svg width="90px" height="29px" viewBox="0 0 90 29" version="1.1" xmlns="http://www.w3.org/2000/svg" xmlns:xlink="http://www.w3.org/1999/xlink">
    <title></title>
    <g id="Labels" stroke="none" stroke-width="1" fill="none" fill-rule="evenodd">
        <g id="Labels-/-4.-Orange-/-3.-Editable-/-Filled-/-With-icon-/-Default">
            <rect id="Rectangle" stroke="#F4B678" fill="#FFF6EC" x="0" y="0" width="91" height="29" rx="14"></rect>
            <text id="Label" font-family="RedHatText-Regular, Red Hat Text" font-size="14" font-weight="normal" line-spacing="21" fill="#3D2C00">
                <tspan x="24" y="18">Label</tspan>
            </text>
            <g id="Close" transform="translate(74.000000, 10.000000)" fill="#6A6E73">
                <path d="M1.77960353,8.03412811 L4.12499589,5.68873575 L6.47038824,8.03412811 C6.75818358,8.32194633 7.22505563,8.32194633 7.51287386,8.03412811 L8.03412811,7.51287386 C8.32194633,7.22505563 8.32194633,6.75843535 8.03412811,6.47038824 L5.68873575,4.12499589 L8.03412811,1.77960353 C8.32194633,1.4918082 8.32194633,1.02516502 8.03412811,0.737117917 L7.51287386,0.215863667 C7.22505563,-0.0719545556 6.75843535,-0.0719545556 6.47038824,0.215863667 L4.12499589,2.56125602 L1.77960353,0.215863667 C1.4918082,-0.0719545556 1.02516502,-0.0719545556 0.737117917,0.215863667 L0.215863667,0.737117917 C-0.0719545556,1.02493614 -0.0719545556,1.49155643 0.215863667,1.77960353 L2.56125602,4.12499589 L0.215863667,6.47038824 C-0.0719545556,6.75818358 -0.0719545556,7.22482675 0.215863667,7.51287386 L0.737117917,8.03412811 C1.02493614,8.32194633 1.4918082,8.32194633 1.77960353,8.03412811 Z" id="times"></path>
            </g>
            <g id="Tag-icon" transform="translate(6.000000, 8.000000)" fill="#EC7A08">
                <path d="M6.09373547,11.9999714 C6.40623461,11.9999714 6.67185921,11.8905965 6.89060857,11.6718472 L11.6718472,6.89060857 C11.8905965,6.67185921 11.9999714,6.40623461 11.9999714,6.09373547 C11.9999714,5.78123634 11.8905965,5.51561173 11.6718472,5.29686237 L6.70310902,0.328124218 C6.48435966,0.109374858 6.21873505,0 5.90623592,0 L1.12499732,0 C0.812498182,0 0.546873577,0.109374858 0.328124218,0.328124218 C0.109374858,0.546873577 0,0.812498182 0,1.12499732 L0,5.90623592 C0,6.21873505 0.109374858,6.48435966 0.328124218,6.70310902 L5.29686237,11.6718472 C5.51561173,11.8905965 5.78123634,11.9999714 6.09373547,11.9999714 Z M2.62499374,3.74999106 C2.31249461,3.74999106 2.04687,3.6406162 1.82812064,3.42186684 C1.60937128,3.20311748 1.49999642,2.93749288 1.49999642,2.62499374 C1.49999642,2.31249461 1.60937128,2.04687 1.82812064,1.82812064 C2.04687,1.60937128 2.31249461,1.49999642 2.62499374,1.49999642 C2.93749288,1.49999642 3.20311748,1.60937128 3.42186684,1.82812064 C3.6406162,2.04687 3.74999106,2.31249461 3.74999106,2.62499374 C3.74999106,2.93749288 3.6406162,3.20311748 3.42186684,3.42186684 C3.20311748,3.6406162 2.93749288,3.74999106 2.62499374,3.74999106 Z" id="tag"></path>
            </g>
            <line x1="25" y1="25" x2="58" y2="25" id="Path" stroke="#8A8D90" stroke-dasharray="4,2"></line>
        </g>
    </g>
</svg>