<svg xmlns="http://www.w3.org/2000/svg" width="24" height="24" viewBox="0 0 24 24">
  <path fill="#151515" fill-rule="evenodd" d="M12.0011719,6 C8.69179687,6 6,8.69296875 6,12 C6,15.3082031 8.69296875,18 12.0011719,18 C15.309375,18 18,15.3082031 18,12 C18,8.69179687 15.309375,6 12.0011719,6 Z M12,16.5 C9.51796875,16.5 7.5,14.4832031 7.5,12 C7.5,9.51914063 9.51796875,7.5 12,7.5 C14.4808594,7.5 16.5,9.51796875 16.5,12 C16.5,14.4820312 14.4808594,16.5 12,16.5 Z M12,8.625 C13.8644531,8.625 15.375,10.1355469 15.375,12 C15.375,13.8644531 13.8644531,15.375 12,15.375 C10.1355469,15.375 8.625,13.8644531 8.625,12 C8.625,10.1355469 10.1355469,8.625 12,8.625"/>
</svg>
