<svg xmlns="http://www.w3.org/2000/svg" width="24" height="24" viewBox="0 0 24 24">
  <path fill="#151515" fill-rule="evenodd" d="M13.8714844,6 C14.2476562,6 14.6085938,6.01289062 14.9519531,6.046875 C15.2953125,6.08085938 15.6246094,6.12421875 15.9398438,6.18867187 C16.2254381,6.24624067 16.5078498,6.31860377 16.7859375,6.40546875 C17.0378906,6.49101563 17.2570313,6.58242187 17.4433594,6.6890625 C17.6238281,6.79570313 17.7644531,6.90820312 17.8546875,7.02421875 C17.9449219,7.14023438 18,7.25859375 18,7.37695312 L18,9.11015625 C18,9.23671875 17.9554688,9.35507813 17.8652344,9.4734375 C17.775,9.58945313 17.634375,9.70195312 17.4539062,9.80859375 C17.2422374,9.91935042 17.0215174,10.0118725 16.7941406,10.0851563 C16.5168381,10.1763036 16.2342947,10.2506571 15.9480469,10.3078125 C15.6198915,10.3707942 15.2885374,10.4157832 14.9554688,10.4425781 C14.9039062,10.4472656 14.8523437,10.4507813 14.7996094,10.4542969 C14.7704155,10.4056424 14.7379173,10.3590486 14.7023438,10.3148437 C14.5546875,10.1238281 14.3507813,9.95390625 14.08125,9.79453125 L14.071875,9.78984375 C13.8550781,9.66445312 13.5960938,9.553125 13.2820312,9.44648438 L13.2679688,9.44179687 C12.9645498,9.34664818 12.6563059,9.26763134 12.3445312,9.20507812 C12.0351562,9.14179688 11.6964844,9.09257812 11.2804688,9.0515625 C10.9289063,9.01640625 10.5503906,9 10.1238281,9 C9.99726563,9 9.87421875,9.00117188 9.75351563,9.0046875 C9.75050173,9.00269104 9.74774643,9.00032934 9.7453125,8.99765625 L9.7453125,7.378125 C9.7453125,7.25976562 9.79335937,7.14140625 9.88710937,7.02539062 C9.97851562,6.909375 10.1191406,6.79570313 10.303125,6.69023438 C10.4835938,6.58476563 10.7015625,6.48867187 10.9523438,6.40664062 C11.2298052,6.31758734 11.5123399,6.24519271 11.7984375,6.18984375 C12.1160156,6.12773438 12.4511719,6.08085938 12.796875,6.04804687 C13.1425781,6.01523438 13.5,6 13.8714844,6 M18,10.415625 L18,12.8753906 C18,13.0019531 17.9554688,13.1203125 17.8652344,13.2386719 C17.775,13.3546875 17.634375,13.4671875 17.4539062,13.5738281 C17.2422374,13.6845848 17.0215174,13.7771069 16.7941406,13.8503906 C16.5168381,13.941538 16.2342947,14.0158915 15.9480469,14.0730469 C15.6344854,14.1329907 15.3180533,14.1767984 15,14.2042969 L14.9964844,11.5792969 C15.3157109,11.5518769 15.6333173,11.5080691 15.9480469,11.4480469 C16.2609375,11.3835937 16.5738281,11.3015625 16.7941406,11.2253906 C17.0144531,11.1492187 17.2675781,11.0472656 17.4527344,10.9488281 C17.6332031,10.8421875 17.7738281,10.7296875 17.8640625,10.6136719 C17.9114883,10.5535365 17.9483419,10.4857736 17.9730469,10.4132813 C17.9765625,10.4003906 17.9988281,10.4039063 18,10.415625 M8.72109375,12.1007363 C8.70334675,12.100537 8.68575694,12.1041349 8.66953125,12.1113281 C8.656875,12.1171875 8.64492187,12.1238672 8.63320313,12.1306641 L8.62617188,12.1347656 L8.61796875,12.1394531 L8.00859375,12.7535156 C7.99254004,12.7646503 7.97994939,12.780084 7.97226563,12.7980469 C7.96460973,12.8170121 7.96101676,12.8373723 7.96171875,12.8578125 C7.96147446,12.8755595 7.96507238,12.8931493 7.97226563,12.909375 C7.97996562,12.9252725 7.98978122,12.940055 8.00144531,12.9533203 L8.00507813,12.9574219 L8.00859375,12.9609375 L9.309375,14.2546875 L7.98164063,15.5800781 C7.96558691,15.5912128 7.95299626,15.6066465 7.9453125,15.6246094 C7.93765661,15.6435746 7.93406364,15.6639348 7.93476563,15.684375 C7.93452134,15.702122 7.93811925,15.7197118 7.9453125,15.7359375 C7.95301249,15.751835 7.96282809,15.7666175 7.97449219,15.7798828 L7.978125,15.7839844 L7.98164063,15.7875 L8.59101563,16.3992187 C8.60572242,16.4145134 8.62322607,16.4268455 8.64257812,16.4355469 C8.66154339,16.4432028 8.68190357,16.4467957 8.70234375,16.4460938 C8.72009075,16.446338 8.73768056,16.4427401 8.75390625,16.4355469 C8.76969627,16.42958 8.78349902,16.4193091 8.79375,16.4058984 L8.79609375,16.4027344 L8.7984375,16.3992187 L10.1261719,15.0796875 L11.4527344,16.3945312 C11.4638691,16.410585 11.4793028,16.4231756 11.4972656,16.4308594 C11.5134221,16.4382666 11.5310607,16.4418745 11.5488281,16.4414062 C11.5692755,16.4422119 11.5896572,16.4386151 11.6085938,16.4308594 C11.6244912,16.4231594 11.6392738,16.4133438 11.6525391,16.4016797 L11.6566406,16.3980469 L11.6601562,16.3945312 L12.2695312,15.7886719 C12.2848259,15.7739651 12.297158,15.7564614 12.3058594,15.7371094 C12.3135569,15.7223064 12.317196,15.7057285 12.3164062,15.6890625 C12.3172119,15.6686152 12.3136151,15.6482334 12.3058594,15.6292969 C12.2998925,15.6135069 12.2896216,15.5997041 12.2762109,15.5894531 L12.2730469,15.5871094 L12.2695312,15.5847656 L10.9429688,14.259375 L12.24375,12.9691406 C12.2590446,12.9544338 12.2713768,12.9369302 12.2800781,12.9175781 C12.2874854,12.9014216 12.2910933,12.883783 12.290625,12.8660156 C12.2914306,12.8455683 12.2878338,12.8251865 12.2800781,12.80625 C12.2741112,12.79046 12.2638404,12.7766572 12.2504297,12.7664063 L12.2472656,12.7640625 L12.24375,12.7617188 L11.6414062,12.1453125 C11.6250087,12.1345568 11.6077645,12.1251508 11.5898438,12.1171875 C11.5708785,12.1095316 11.5505183,12.1059386 11.5300781,12.1066406 C11.5125687,12.1066777 11.4951721,12.1094454 11.4785156,12.1148438 C11.4625865,12.1183629 11.4483767,12.1273114 11.4383203,12.1401563 L11.4363281,12.1429688 L11.4339844,12.1453125 L10.1320313,13.4449219 L8.82539063,12.1394531 C8.81358409,12.125447 8.79819118,12.114915 8.78085938,12.1089844 C8.7614694,12.1032321 8.74131653,12.100466 8.72109375,12.1007363 M10.1238281,9.75 C10.4988281,9.75 10.8621094,9.76289063 11.2051172,9.796875 C11.548125,9.83085937 11.8776563,9.87421875 12.1927734,9.93867188 C12.4782913,9.99623787 12.7606251,10.0686011 13.0386328,10.1554688 C13.2904688,10.2410156 13.5096094,10.3324219 13.6958203,10.4390625 C13.8762891,10.5457031 14.0169141,10.6582031 14.1070313,10.7742187 C14.1944531,10.8857813 14.2469531,10.9996875 14.2498828,11.1140625 L14.2498828,12.8097656 C14.2381641,12.9128906 14.1889453,13.0101563 14.1139453,13.1085938 C14.0238281,13.2246094 13.8832031,13.3371094 13.7027344,13.44375 C13.4910721,13.5545206 13.2703509,13.6470431 13.0429688,13.7203125 C12.9631641,13.7476172 12.8782031,13.7739844 12.7891406,13.7992969 L12.7700391,13.8046875 L12.7489453,13.809375 L12.7489453,14.9578125 C12.8507813,14.9296875 12.9492188,14.8992187 13.0429688,14.8675781 C13.2701908,14.7940805 13.4908152,14.7015657 13.7025,14.5910156 C13.8829687,14.484375 14.0235937,14.371875 14.1137109,14.2558594 C14.1611368,14.195724 14.1979903,14.1279611 14.2226953,14.0554687 C14.2260938,14.04375 14.2468359,14.0459766 14.2494141,14.0565234 L14.2494141,14.0578125 L14.2494141,16.6253906 C14.2494141,16.7519531 14.2048828,16.8703125 14.1146484,16.9886719 C14.0245313,17.1046875 13.8839063,17.2171875 13.7034375,17.3238281 C13.4918506,17.4345865 13.2712083,17.5271088 13.0439063,17.6003906 C12.7666838,17.6915401 12.4842182,17.7658937 12.1980469,17.8230469 C11.8699715,17.8860364 11.538695,17.9310257 11.2057031,17.9578125 C10.8648047,17.9871094 10.5051563,18 10.1275781,18 C9.75621094,18 9.40007813,17.9859375 9.05449219,17.9578125 C8.72126794,17.93446 8.3898362,17.8902326 8.06214844,17.8253906 C7.7446875,17.7632812 7.45652344,17.690625 7.20574219,17.6027344 C6.95660156,17.5195312 6.74058594,17.4273437 6.55769531,17.3261719 C6.37605469,17.2195312 6.23894531,17.1070312 6.14296875,16.9910156 C6.05203125,16.8794531 6.00410156,16.7633203 6.00128906,16.6415625 L6.00128906,14.0601562 C6.00246094,14.0484375 6.02238281,14.0460938 6.02707031,14.0578125 C6.14425781,14.3466797 6.5128125,14.67 7.44890625,14.9380078 L7.47738281,14.9460937 L7.49847656,14.9519531 L7.49847656,13.8152344 C7.39664062,13.7871094 7.29820313,13.7566406 7.20550781,13.7238281 C6.95605469,13.640625 6.73972656,13.5484375 6.55652344,13.4472656 C6.37488281,13.340625 6.23777344,13.228125 6.14179687,13.1121094 C6.05085937,13.0005469 6.00292969,12.8844141 6,12.7626563 L6,11.128125 C6,11.0097656 6.04804687,10.8914062 6.14179687,10.7753906 C6.23308594,10.659375 6.37371094,10.5457031 6.55769531,10.4402344 C6.73804688,10.3347656 6.95613281,10.2386719 7.20667969,10.1566406 C7.48406541,10.0676001 7.76652138,9.99520561 8.05253906,9.93984375 C8.37,9.87773437 8.70503906,9.83085937 9.05074219,9.79804688 C9.39644531,9.76523438 9.75246094,9.75 10.1238281,9.75"/>
</svg>
