<svg xmlns="http://www.w3.org/2000/svg" width="54" height="55" viewBox="0 0 54 55">
  <path fill="#6A6E73" fill-rule="evenodd" d="M50.2768539,53.2615918 L53.2615918,50.2768539 C54.2424282,49.2854088 54.2424282,47.682267 53.2615918,46.6909249 L42.7463619,36.175695 C42.2717536,35.7010868 41.628437,35.4374155 40.9533974,35.4374155 L39.2342815,35.4374155 C42.1451708,31.7143981 43.8748954,27.0315556 43.8748954,21.9374477 C43.8748954,9.81907602 34.0558194,0 21.9374477,0 C9.81907602,0 0,9.81907602 0,21.9374477 C0,34.0558194 9.81907602,43.8748954 21.9374477,43.8748954 C27.0315556,43.8748954 31.7143981,42.1451708 35.4374155,39.2342815 L35.4374155,40.9533974 C35.4374155,41.628437 35.7010868,42.2717536 36.175695,42.7463619 L46.7014306,53.2615918 C47.682267,54.2530368 49.2854088,54.2530368 50.2768539,53.2615918 Z M21.9374477,36.2811635 C14.006196,36.2811635 7.5937319,29.8686994 7.5937319,21.9374477 C7.5937319,14.006196 14.006196,7.5937319 21.9374477,7.5937319 C29.8686994,7.5937319 36.2811635,14.006196 36.2811635,21.9374477 C36.2811635,29.8686994 29.8686994,36.2811635 21.9374477,36.2811635 Z M30.7968016,24.8905657 C31.4928525,24.8905657 32.0624236,24.3209946 32.0624236,23.6249437 L32.0624236,20.2499517 C32.0624236,19.5539008 31.4928525,18.9843297 30.7968016,18.9843297 L13.0780938,18.9843297 C12.3820429,18.9843297 11.8124718,19.5539008 11.8124718,20.2499517 L11.8124718,23.6249437 C11.8124718,24.3209946 12.3820429,24.8905657 13.0780938,24.8905657 L30.7968016,24.8905657 Z"/>
</svg>
