<svg xmlns="http://www.w3.org/2000/svg" width="38" height="38" viewBox="0 0 38 38">
  <path fill="#6A6E73" fill-rule="evenodd" d="M8.00821588,36.1535765 L18.5624815,25.5993109 L29.1167471,36.1535765 C30.4118261,37.4487585 32.5127504,37.4487585 33.8079324,36.1535765 L36.1535765,33.8079324 C37.4487585,32.5127504 37.4487585,30.4129591 36.1535765,29.1167471 L25.5993109,18.5624815 L36.1535765,8.00821588 C37.4487585,6.71313688 37.4487585,4.61324259 36.1535765,3.31703063 L33.8079324,0.971386501 C32.5127504,-0.3237955 30.4129591,-0.3237955 29.1167471,0.971386501 L18.5624815,11.5256521 L8.00821588,0.971386501 C6.71313688,-0.3237955 4.61324259,-0.3237955 3.31703063,0.971386501 L0.971386501,3.31703063 C-0.3237955,4.61221263 -0.3237955,6.71200392 0.971386501,8.00821588 L11.5256521,18.5624815 L0.971386501,29.1167471 C-0.3237955,30.4118261 -0.3237955,32.5117204 0.971386501,33.8079324 L3.31703063,36.1535765 C4.61221263,37.4487585 6.71313688,37.4487585 8.00821588,36.1535765 Z"/>
</svg>
