<svg xmlns="http://www.w3.org/2000/svg" width="48" height="55" viewBox="0 0 48 55">
  <path fill="#6A6E73" fill-rule="evenodd" d="M45.5623914,11.1249759 C46.4938924,11.1249759 47.2498873,10.368981 47.2498873,9.43747988 L47.2498873,6.06248793 C47.2498873,5.13098686 46.4938924,4.37499195 45.5623914,4.37499195 L32.9061715,4.37499195 L31.9147265,2.40271043 C31.5291073,1.62838214 30.514076,1 29.6490077,1 L17.5825463,1 C16.7205679,1 15.7137763,1.62838214 15.3351609,2.40271043 L14.3437158,4.37499195 L1.68749598,4.37499195 C0.755994902,4.37499195 3.55271368e-15,5.13098686 3.55271368e-15,6.06248793 L3.55271368e-15,9.43747988 C3.55271368e-15,10.368981 0.755994902,11.1249759 1.68749598,11.1249759 L45.5623914,11.1249759 Z M36.5870633,54.9998713 C39.2116222,54.9998713 41.4749721,52.8733009 41.6389426,50.2537888 L43.8748954,14.4999678 L3.37499195,14.4999678 L5.61094472,50.2537888 C5.77491528,52.8733009 8.03826514,54.9998713 10.662824,54.9998713 L36.5870633,54.9998713 Z"/>
</svg>
