<?xml version="1.0" encoding="UTF-8"?><svg version="1.1" width="62px" height="42px" viewBox="0 0 62.0 42.0" xmlns="http://www.w3.org/2000/svg" xmlns:xlink="http://www.w3.org/1999/xlink"><defs><clipPath id="i0"><path d="M62,0 L62,4 L0,4 L0,0 L62,0 Z"></path></clipPath><clipPath id="i1"><path d="M62,0 L62,8 L0,8 L0,0 L62,0 Z"></path></clipPath></defs><g transform="translate(0.0 12.0)"><text transform="translate(0.0 14.0)" font-family="RedHatText-Medium, Red Hat Text" font-size="14.0" font-weight="400" fill="#151515" text-anchor="left" line-spacing="18.20000076293945">Category</text></g><g clip-path="url(#i0)"><polygon points="0,0 62,0 62,4 0,4 0,0" stroke="none" fill="rgba(236, 121, 8, 0.9)"></polygon></g><g clip-path="url(#i0)"><polygon points="0,0 62,0 62,4 0,4 0,0 0,0" stroke="#C67000" stroke-width="2" fill="none" stroke-miterlimit="5"></polygon></g><g transform="translate(0.0 4.0)"><g clip-path="url(#i1)"><polygon points="0,0 62,0 62,8 0,8 0,0" stroke="none" fill="rgba(146, 211, 0, 0.9)"></polygon></g><g clip-path="url(#i1)"><polygon points="0,0 62,0 62,8 0,8 0,0 0,0" stroke="#7EB200" stroke-width="2" fill="none" stroke-miterlimit="5"></polygon></g></g><g transform="translate(0.0 30.0)"><g clip-path="url(#i1)"><polygon points="0,0 62,0 62,8 0,8 0,0" stroke="none" fill="rgba(146, 211, 0, 0.9)"></polygon></g><g clip-path="url(#i1)"><polygon points="0,0 62,0 62,8 0,8 0,0 0,0" stroke="#7EB200" stroke-width="2" fill="none" stroke-miterlimit="5"></polygon></g></g></svg>