<?xml version="1.0" encoding="UTF-8"?><svg version="1.1" width="106px" height="42px" viewBox="0 0 106.0 42.0" xmlns="http://www.w3.org/2000/svg" xmlns:xlink="http://www.w3.org/1999/xlink"><defs><clipPath id="i0"><path d="M2.91055709,0.219680262 C3.20346411,-0.0732267541 3.67828597,-0.0732267541 3.97119299,0.219680262 L6.66054815,2.90900491 C7.13302017,3.38150744 6.79839572,4.18933633 6.13018442,4.18933633 L4.6908568,4.18933633 L4.6908568,11.810656 L6.13018442,11.810656 C6.79839572,11.810656 7.13302017,12.6185154 6.66051763,13.0909875 L3.97116247,15.7803121 C3.67825545,16.0732191 3.20343359,16.0732191 2.91052657,15.7803121 L0.221171411,13.0909875 C-0.251300607,12.6184849 0.0833238396,11.810656 0.751535137,11.810656 L2.19086276,11.810656 L2.19086276,4.18933633 L0.751565655,4.18933633 C0.0833543572,4.18933633 -0.251270089,3.38147692 0.221201929,2.90900491 Z"></path></clipPath><clipPath id="i1"><path d="M24,0 L24,24 L0,24 L0,0 L24,0 Z"></path></clipPath><clipPath id="i2"><path d="M16,0 L16,18 L0,18 L0,0 L16,0 Z"></path></clipPath><clipPath id="i3"><path d="M106,0 L106,4 L0,4 L0,0 L106,0 Z"></path></clipPath><clipPath id="i4"><path d="M106,0 L106,8 L0,8 L0,0 L106,0 Z"></path></clipPath></defs><g transform="translate(0.0 11.0)"><text transform="translate(0.0 14.0)" font-family="RedHatText-Medium, Red Hat Text" font-size="14.0" font-weight="400" fill="#151515" text-anchor="left" line-spacing="18.20000076293945">Category</text></g><g transform="translate(82.0 9.0)"><g transform="translate(9.0 4.0)"><g clip-path="url(#i0)"><polygon points="-5.35127498e-14,0 6.88171956,0 6.88171956,15.9999924 -5.35127498e-14,15.9999924 -5.35127498e-14,0" stroke="none" fill="#151515"></polygon><g clip-path="url(#i1)"><polygon points="0,0 6.88171956,0 6.88171956,15.9999924 0,15.9999924 0,0" stroke="none" fill="#D2D2D2"></polygon></g></g></g></g><g transform="translate(66.0 12.0)"><g clip-path="url(#i2)"><polygon points="0,0 16,0 16,18 0,18 0,0" stroke="none" fill="rgba(62, 156, 52, 0.9)"></polygon></g><g clip-path="url(#i2)"><polygon points="0,0 16,0 16,18 0,18 0,0 0,0" stroke="#418A37" stroke-width="2" fill="none" stroke-miterlimit="5"></polygon></g></g><g clip-path="url(#i3)"><polygon points="0,0 106,0 106,4 0,4 0,0" stroke="none" fill="rgba(236, 121, 8, 0.9)"></polygon></g><g clip-path="url(#i3)"><polygon points="0,0 106,0 106,4 0,4 0,0 0,0" stroke="#C67000" stroke-width="2" fill="none" stroke-miterlimit="5"></polygon></g><g transform="translate(0.0 3.999999999999986)"><g clip-path="url(#i4)"><polygon points="0,0 106,0 106,8 0,8 0,0" stroke="none" fill="rgba(146, 211, 0, 0.9)"></polygon></g><g clip-path="url(#i4)"><polygon points="0,0 106,0 106,8 0,8 0,0 0,0" stroke="#7EB200" stroke-width="2" fill="none" stroke-miterlimit="5"></polygon></g></g><g transform="translate(0.0 30.0)"><g clip-path="url(#i4)"><polygon points="0,0 106,0 106,8 0,8 0,0" stroke="none" fill="rgba(146, 211, 0, 0.9)"></polygon></g><g clip-path="url(#i4)"><polygon points="0,0 106,0 106,8 0,8 0,0 0,0" stroke="#7EB200" stroke-width="2" fill="none" stroke-miterlimit="5"></polygon></g></g></svg>