<?xml version="1.0" encoding="UTF-8"?><svg version="1.1" width="106px" height="42px" viewBox="0 0 106.0 42.0" xmlns="http://www.w3.org/2000/svg" xmlns:xlink="http://www.w3.org/1999/xlink"><defs><clipPath id="i0"><path d="M4.31585769,0 C4.52294949,0 4.6908568,0.167907315 4.6908568,0.374999106 L4.6908568,9.81064555 L6.13015391,9.81064555 C6.7983652,9.81064555 7.13298965,10.618505 6.66051763,11.090977 L3.97116247,13.7803016 C3.67828597,14.0732086 3.20343359,14.0732086 2.91052657,13.7803016 L0.221171411,11.090977 C-0.251300607,10.6184744 0.0833238396,9.81064555 0.751535137,9.81064555 L2.19086276,9.81064555 L2.19086276,0.374999106 C2.19086276,0.167907315 2.35877007,0 2.56586187,0 Z"></path></clipPath><clipPath id="i1"><path d="M24,0 L24,24 L0,24 L0,0 L24,0 Z"></path></clipPath><clipPath id="i2"><path d="M16,0 L16,18 L0,18 L0,0 L16,0 Z"></path></clipPath><clipPath id="i3"><path d="M106,0 L106,4 L0,4 L0,0 L106,0 Z"></path></clipPath><clipPath id="i4"><path d="M106,0 L106,8 L0,8 L0,0 L106,0 Z"></path></clipPath></defs><g transform="translate(0.0 11.0)"><text transform="translate(0.0 14.0)" font-family="RedHatText-Medium, Red Hat Text" font-size="14.0" font-weight="400" fill="#0066CC" text-anchor="left" line-spacing="18.20000076293945">Category</text></g><g transform="translate(82.0 9.0)"><g transform="translate(9.0 4.999999999999999)"><g clip-path="url(#i0)"><polygon points="-5.35127498e-14,0 6.88168904,0 6.88168904,13.9999819 -5.35127498e-14,13.9999819 -5.35127498e-14,0" stroke="none" fill="#151515"></polygon><g clip-path="url(#i1)"><polygon points="0,0 6.88168904,0 6.88168904,13.9999819 0,13.9999819 0,0" stroke="none" fill="#0066CC"></polygon></g></g></g></g><g transform="translate(66.0 12.0)"><g clip-path="url(#i2)"><polygon points="0,0 16,0 16,18 0,18 0,0" stroke="none" fill="rgba(62, 156, 52, 0.9)"></polygon></g><g clip-path="url(#i2)"><polygon points="0,0 16,0 16,18 0,18 0,0 0,0" stroke="#418A37" stroke-width="2" fill="none" stroke-miterlimit="5"></polygon></g></g><g clip-path="url(#i3)"><polygon points="0,0 106,0 106,4 0,4 0,0" stroke="none" fill="rgba(236, 121, 8, 0.9)"></polygon></g><g clip-path="url(#i3)"><polygon points="0,0 106,0 106,4 0,4 0,0 0,0" stroke="#C67000" stroke-width="2" fill="none" stroke-miterlimit="5"></polygon></g><g transform="translate(0.0 3.999999999999986)"><g clip-path="url(#i4)"><polygon points="0,0 106,0 106,8 0,8 0,0" stroke="none" fill="rgba(146, 211, 0, 0.9)"></polygon></g><g clip-path="url(#i4)"><polygon points="0,0 106,0 106,8 0,8 0,0 0,0" stroke="#7EB200" stroke-width="2" fill="none" stroke-miterlimit="5"></polygon></g></g><g transform="translate(0.0 30.0)"><g clip-path="url(#i4)"><polygon points="0,0 106,0 106,8 0,8 0,0" stroke="none" fill="rgba(146, 211, 0, 0.9)"></polygon></g><g clip-path="url(#i4)"><polygon points="0,0 106,0 106,8 0,8 0,0 0,0" stroke="#7EB200" stroke-width="2" fill="none" stroke-miterlimit="5"></polygon></g></g></svg>