<?xml version="1.0" encoding="UTF-8"?>
<svg width="106px" height="42px" viewBox="0 0 106 42" version="1.1" xmlns="http://www.w3.org/2000/svg" xmlns:xlink="http://www.w3.org/1999/xlink">
    <title></title>
    <g id="Data-List-and-Table" stroke="none" stroke-width="1" fill="none" fill-rule="evenodd">
        <g id="Data-list-and-tables-/-1.-Table-header-/-Compact-(8px-spacers)-/-6.-Sort-up">
            <text id="âœï¸-Category" font-family="RedHatText-Medium, Red Hat Text" font-size="14" font-weight="400" line-spacing="18.2000008" fill="#0066CC">
                <tspan x="0" y="25">Category</tspan>
            </text>
            <g id="Icons-/-Framework-/-long-arrow-alt-up" transform="translate(91.000000, 14.000000)">
                <g id="ðŸ–¼-Icon" fill="#151515">
                    <path d="M4.31582718,13.9999819 C4.52291897,13.9999819 4.69082628,13.8320746 4.69082628,13.6249828 L4.69082628,4.18933633 L6.13015391,4.18933633 C6.7983652,4.18933633 7.13298965,3.38150744 6.66051763,2.90900491 L3.97116247,0.219680262 C3.67825545,-0.0732267541 3.20340307,-0.0732267541 2.91052657,0.219680262 L0.221171411,2.90900491 C-0.251300607,3.38147692 0.0833238396,4.18933633 0.751535137,4.18933633 L2.19083224,4.18933633 L2.19083224,13.6249828 C2.19083224,13.8320746 2.35873956,13.9999819 2.56583135,13.9999819 L4.31582718,13.9999819 Z" id="long-arrow-alt-up"></path>
                </g>
                <rect id="ðŸŽ¨-Color" fill="#0066CC" x="-9" y="-5" width="24" height="24"></rect>
            </g>
            <g id="ðŸ“-Padding" fill-opacity="0.9">
                <g id="Spacer-/-Horizontal-/-3.-pf-global--spacer--md-(16px)" transform="translate(66.000000, 12.000000)" fill="#3F9C35" stroke="#418A38">
                    <rect id="Rectangle-Copy-2" x="0.5" y="0.5" width="15" height="17"></rect>
                </g>
                <g id="Spacer-/-Vertical-/-1.-pf-global--spacer--xs-(4px)" fill="#EC7A08" stroke="#C77000">
                    <rect id="Rectangle" x="0.5" y="0.5" width="105" height="3"></rect>
                </g>
                <g id="Spacer-/-Vertical-/-2.-pf-global--spacer--sm-(8px)" transform="translate(0.000000, 4.000000)" fill="#92D400" stroke="#7FB300">
                    <rect id="Rectangle-Copy" x="0.5" y="0.5" width="105" height="7"></rect>
                </g>
                <g id="Spacer-/-Vertical-/-2.-pf-global--spacer--sm-(8px)" transform="translate(0.000000, 30.000000)" fill="#92D400" stroke="#7FB300">
                    <rect id="Rectangle-Copy" x="0.5" y="0.5" width="105" height="7"></rect>
                </g>
            </g>
        </g>
    </g>
</svg>