<?xml version="1.0" encoding="UTF-8"?><svg version="1.1" width="268px" height="40px" viewBox="0 0 268.0 40.0" xmlns="http://www.w3.org/2000/svg" xmlns:xlink="http://www.w3.org/1999/xlink"><defs><clipPath id="i0"><path d="M268,0 L268,40 L0,40 L0,0 L268,0 Z"></path></clipPath><clipPath id="i1"><path d="M16,0 L16,40 L0,40 L0,0 L16,0 Z"></path></clipPath><clipPath id="i2"><path d="M8.99907479,13.9999666 C8.99907479,15.1046393 8.10378274,15.9999666 7.00002561,15.9999666 C5.89626847,15.9999666 5.00097642,15.1046393 5.00097642,13.9999666 Z M7.00002086,0 C7.55190417,0 7.99941287,0.447813874 7.99941287,1 L7.99941287,1.65124118 C10.2950312,2.12810772 11.9975112,4.07185919 11.9975112,6.4999845 C11.9975112,9.69684578 13.1272083,10.6727956 13.7309361,11.3215367 C13.9184356,11.5227997 14.0015653,11.7640406 14.0000209,11.9999714 C13.9968961,12.5124824 13.5943702,12.999969 12.9968985,12.999969 L1.0031527,12.999969 C0.405680976,12.999969 0.00349077253,12.5124824 2.08566939e-05,11.9999714 C-0.00151409835,11.7640406 0.0816155863,11.5231049 0.269115139,11.3215367 C0.872842948,10.6727956 2.00253996,9.69684578 2.00253996,6.4999845 C2.00253996,4.07185919 3.70502003,2.12810772 6.00063834,1.65124118 L6.00063834,1 C6.00063834,0.447813874 6.44814704,0 7.00002086,0 Z"></path></clipPath></defs><g clip-path="url(#i0)"><polygon points="0,0 268,0 268,40 0,40 0,0" stroke="none" fill="#F0F0F0"></polygon></g><g transform="translate(224.0 0.0)"><g clip-path="url(#i1)"><polygon points="0,0 16,0 16,40 0,40 0,0" stroke="none" fill="rgba(62, 156, 52, 0.9)"></polygon></g><g clip-path="url(#i1)"><polygon points="0,0 16,0 16,40 0,40 0,0 0,0" stroke="#418A37" stroke-width="2" fill="none" stroke-miterlimit="5"></polygon></g><g clip-path="url(#i1)"><polygon points="0,0 16,0 16,40 0,40 0,0" stroke="none" fill="rgba(62, 156, 52, 0.9)"></polygon></g><g clip-path="url(#i1)"><polygon points="0,0 16,0 16,40 0,40 0,0 0,0" stroke="#418A37" stroke-width="2" fill="none" stroke-miterlimit="5"></polygon></g><g transform="translate(28.0 0.0)"><g clip-path="url(#i1)"><polygon points="0,0 16,0 16,40 0,40 0,0" stroke="none" fill="rgba(62, 156, 52, 0.9)"></polygon></g><g clip-path="url(#i1)"><polygon points="0,0 16,0 16,40 0,40 0,0 0,0" stroke="#418A37" stroke-width="2" fill="none" stroke-miterlimit="5"></polygon></g></g></g><g transform="translate(234.0 8.0)"><g transform="translate(4.999979143306074 4.0)"><g clip-path="url(#i2)"><polygon points="8.71525074e-15,0 14.000042,0 14.000042,15.9999666 8.71525074e-15,15.9999666 8.71525074e-15,0" stroke="none" fill="#696E73"></polygon></g></g></g></svg>