<?xml version="1.0" encoding="UTF-8"?>
<svg width="24px" height="24px" viewBox="0 0 24 24" version="1.1" xmlns="http://www.w3.org/2000/svg" xmlns:xlink="http://www.w3.org/1999/xlink">
    <title></title>
    <g id="Icons" stroke="none" stroke-width="1" fill="none" fill-rule="evenodd">
        <g id="Icons-/-1.-Size-md-/-Brands-/-drupal" fill="#151515">
            <path d="M12.0562295,18.9718295 C15.234353,18.9718295 17.9999714,16.659335 17.9999714,13.1593433 C17.9999714,9.64998281 15.4062276,7.81560608 14.9843536,7.5562378 C14.2905991,7.11873885 13.6249818,6.94686425 12.9624773,6.5093653 C12.5562283,6.23437206 11.9843607,5.57186753 11.5093558,5 C11.4249749,5.91561671 11.1499816,6.28747252 10.8218574,6.54687131 C10.1562401,7.07812005 9.7343661,7.24059524 9.14998639,7.5562378 C8.65624367,7.81560608 6,9.64372672 6,13.0499686 C6,16.4624666 8.86873706,18.9718295 12.0562295,18.9718295 Z M9.17812353,16.3937106 C7.96563252,15.5624748 8.7218563,13.1187245 10.7968636,13.1062124 C12.3437349,13.0905874 13.4156012,14.6374587 14.1874805,14.6218337 C14.8530978,14.6124649 16.1187198,13.315593 16.7437183,13.315593 C18.2655958,13.315593 17.4718354,16.7312037 16.2499756,16.6280851 C15.7749706,16.5968351 14.828104,15.1030948 14.2187304,15.0812138 C13.2530955,15.0530766 10.9656254,17.6030888 9.17812353,16.3937106 Z M12.6593469,16.8687156 C12.4718474,16.6124601 13.1562329,16.1718484 13.3593575,16.0874675 C13.6312379,15.9749494 14.2656053,15.9687238 14.5093486,16.1280863 C14.6374916,16.2155799 15.0124907,16.7155788 14.7031043,16.8687156 C14.4405927,16.9999714 14.6655982,16.3780857 13.8749812,16.3780857 C13.4156012,16.3780857 13.2656077,16.5405914 13.0406021,16.7218348 C12.8218526,16.9093344 12.7343589,16.9718342 12.6593469,16.8687156 Z M11.415606,17.8624571 C11.2656124,17.7124636 11.4249749,17.487458 11.6187305,17.487458 C11.6187305,17.487458 12.1499792,17.9030759 13.2281017,17.9030759 C14.0718497,17.9030759 14.6655982,17.6624454 14.9312226,17.465577 C15.1218655,17.3218395 15.1937342,17.5999455 15.0624784,17.7312013 C14.4343671,18.3593431 12.2468723,18.6280803 11.415606,17.8624571 Z" id="drupal"></path>
        </g>
    </g>
</svg>