<?xml version="1.0" encoding="UTF-8"?>
<svg width="24px" height="24px" viewBox="0 0 24 24" version="1.1" xmlns="http://www.w3.org/2000/svg" xmlns:xlink="http://www.w3.org/1999/xlink">
    <title></title>
    <g id="Icons" stroke="none" stroke-width="1" fill="none" fill-rule="evenodd">
        <g id="Icons-/-1.-Size-md-/-Brands-/-OpenShift" fill="#151515">
            <path d="M8.65134865,11.5684346 L6.07792208,12.4955075 C6.10989011,12.9110919 6.17382617,13.3106923 6.28571429,13.7102927 L8.73126873,12.8151878 C8.65134865,12.4155874 8.61938062,11.984019 8.65134865,11.5684346 M20,8.72327972 C19.8241758,8.35564735 19.6163836,8.003999 19.3766234,7.66833467 L16.8031968,8.59540759 C17.1068931,8.8991039 17.3466533,9.25075225 17.5544456,9.61838462 L20,8.72327972 Z M14.3576424,8.003999 C14.8851149,8.25974326 15.3486513,8.59540759 15.7482517,8.99500799 L18.3216783,8.06793506 C17.6183816,7.07692607 16.6433566,6.22977323 15.4605395,5.68631668 C11.8001998,3.97602697 7.42057942,5.57442857 5.71028971,9.23476823 C5.15084915,10.4175854 4.94305694,11.6803227 5.05494505,12.9110919 L7.62837163,11.984019 C7.67632368,11.4245784 7.8041958,10.8651379 8.05994006,10.3376653 C9.13086913,7.92407892 11.96004,6.88511788 14.3576424,8.003999 M6.44555445,13.6623407 L4,14.5574456 C4.22377622,15.4525504 4.60739261,16.2837193 5.15084915,17.034968 L7.70829171,16.1078951 C7.06893107,15.4205824 6.62137862,14.5734296 6.44555445,13.6623407 M17.0909091,12.6873157 C17.042957,13.2467562 16.9150849,13.8061968 16.6593407,14.3336693 C15.5404595,16.7152877 12.6953047,17.7542488 10.3136863,16.6353676 C9.78621379,16.3796234 9.30669331,16.043959 8.92307692,15.6443586 L6.36563437,16.5714316 C7.06893107,17.5624406 8.04395604,18.4095934 9.22677323,18.9530499 C12.8871129,20.6633397 17.2667333,19.0649381 18.977023,15.4045984 C19.5364635,14.2217812 19.7282717,12.959044 19.6323676,11.7442587 L17.0909091,12.6873157 Z M17.7142857,9.55444855 L15.2687313,10.4495534 C15.7162837,11.2647383 15.9400599,12.1918112 15.8601399,13.1348681 L18.4175824,12.2077952 C18.3696304,11.2807223 18.1138861,10.3856174 17.7142857,9.55444855" id="openshift"></path>
        </g>
    </g>
</svg>