<svg xmlns="http://www.w3.org/2000/svg" xmlns:xlink="http://www.w3.org/1999/xlink" width="171" height="93" viewBox="0 0 171 93">
  <defs>
    <rect id="actions-b" width="171" height="93" x="0" y="0"/>
    <filter id="actions-a" width="132.7%" height="160.2%" x="-16.4%" y="-21.5%" filterUnits="objectBoundingBox">
      <feOffset in="SourceAlpha" result="shadowOffsetOuter1"/>
      <feGaussianBlur in="shadowOffsetOuter1" result="shadowBlurOuter1" stdDeviation="3"/>
      <feColorMatrix in="shadowBlurOuter1" result="shadowMatrixOuter1" values="0 0 0 0 0   0 0 0 0 0   0 0 0 0 0  0 0 0 0.08 0"/>
      <feOffset dy="8" in="SourceAlpha" result="shadowOffsetOuter2"/>
      <feGaussianBlur in="shadowOffsetOuter2" result="shadowBlurOuter2" stdDeviation="8"/>
      <feColorMatrix in="shadowBlurOuter2" result="shadowMatrixOuter2" values="0 0 0 0 0   0 0 0 0 0   0 0 0 0 0  0 0 0 0.16 0"/>
      <feMerge>
        <feMergeNode in="shadowMatrixOuter1"/>
        <feMergeNode in="shadowMatrixOuter2"/>
      </feMerge>
    </filter>
  </defs>
  <g fill="none" fill-rule="evenodd">
    <use fill="#000" filter="url(#actions-a)" xlink:href="#actions-b"/>
    <use fill="#FFF" xlink:href="#actions-b"/>
    <rect width="171" height="3" fill="#C9190B"/>
    <path fill="#C9190B" d="M11.7499815,19.499963 C16.0298785,19.499963 19.499963,16.0311298 19.499963,11.7499815 C19.499963,7.47133572 16.0298785,4 11.7499815,4 C7.4700845,4 4,7.47133572 4,11.7499815 C4,16.0311298 7.4700845,19.499963 11.7499815,19.499963 Z M12.5085246,12.7499791 L10.9914384,12.7499791 C10.7922812,12.7499791 10.6278529,12.5942788 10.6170191,12.3954268 L10.3852082,8.14543689 C10.3734894,7.93062417 10.544479,7.74999106 10.7595969,7.74999106 L12.7403356,7.74999106 C12.9554535,7.74999106 13.1264736,7.93062417 13.1147549,8.14543689 L12.8829439,12.3954268 C12.8721102,12.5942788 12.7076819,12.7499791 12.5085246,12.7499791 Z M11.7499815,16.1874709 C10.9560686,16.1874709 10.3124849,15.5438873 10.3124849,14.7499744 C10.3124849,13.9560615 10.9560686,13.3124778 11.7499815,13.3124778 C12.5438944,13.3124778 13.1874781,13.9560615 13.1874781,14.7499744 C13.1874781,15.5438873 12.5438944,16.1874709 11.7499815,16.1874709 Z" transform="translate(16 16)"/>
    <path fill="#6A6E73" d="M9.37280471,17.7121708 L12.5,14.584981 L15.6271843,17.7121708 C16.0109114,18.0959284 16.6334075,18.0959284 17.0171651,17.7121708 L17.7121708,17.0171651 C18.0959284,16.6334075 18.0959284,16.0112471 17.7121708,15.6271843 L14.584981,12.5 L17.7121708,9.37280471 C18.0959284,8.98907759 18.0959284,8.36688669 17.7121708,7.98282389 L17.0171651,7.28781822 C16.6334075,6.90406059 16.0112471,6.90406059 15.6271843,7.28781822 L12.5,10.415008 L9.37280471,7.28781822 C8.98907759,6.90406059 8.36688669,6.90406059 7.98282389,7.28781822 L7.28781822,7.98282389 C6.90406059,8.36658152 6.90406059,8.9887419 7.28781822,9.37280471 L10.415008,12.5 L7.28781822,15.6271843 C6.90406059,16.0109114 6.90406059,16.6331023 7.28781822,17.0171651 L7.98282389,17.7121708 C8.36658152,18.0959284 8.98907759,18.0959284 9.37280471,17.7121708 Z" transform="translate(131 16)"/>
    <text fill="#06C" font-family="RedHatText-Regular, Red Hat Text" font-size="14">
      <tspan x="44" y="70">Action</tspan>
    </text>
    <text fill="#7D1007" font-family="RedHatText-Medium, Red Hat Text" font-size="14" font-weight="400">
      <tspan x="44" y="32">Title</tspan>
    </text>
    <g fill-opacity=".9">
      <rect width="15" height="92" x=".5" y=".5" fill="#3F9C35" stroke="#418A38" transform="matrix(-1 0 0 1 16 0)"/>
      <rect width="15" height="92" x=".5" y=".5" fill="#3F9C35" stroke="#418A38" transform="matrix(-1 0 0 1 171 0)"/>
      <rect width="3" height="23" x=".5" y=".5" fill="#EC7A08" stroke="#C77000" transform="matrix(-1 0 0 1 44 16)"/>
      <rect width="138" height="15" x=".5" y=".5" fill="#3F9C35" stroke="#418A38" transform="translate(16)"/>
      <rect width="138" height="15" x=".5" y=".5" fill="#3F9C35" stroke="#418A38" transform="translate(16 40)"/>
      <rect width="138" height="15" x=".5" y=".5" fill="#3F9C35" stroke="#418A38" transform="translate(16 77)"/>
    </g>
  </g>
</svg>
