<?xml version="1.0" encoding="UTF-8"?>
<svg width="24px" height="24px" viewBox="0 0 24 24" version="1.1" xmlns="http://www.w3.org/2000/svg" xmlns:xlink="http://www.w3.org/1999/xlink">
    <title></title>
    <g id="Icons" stroke="none" stroke-width="1" fill="none" fill-rule="evenodd">
        <g id="Icons-/-3.-Size-lg-/-Object-/-clipboard-check" fill="#151515">
            <path d="M18.7499624,23.9999428 C19.992147,23.9999428 20.9999571,22.9921327 20.9999571,21.7499481 L20.9999571,5.24998748 C20.9999571,4.00780294 19.992147,3 18.7499624,3 L14.9999714,3 C14.9999714,1.34531845 13.6546529,0 11.9999785,0 C10.3453041,0 8.99998569,1.34531845 8.99998569,3 L5.24999464,3 C4.0078101,3 3,4.00780294 3,5.24998748 L3,21.7499481 C3,22.9921327 4.0078101,23.9999428 5.24999464,23.9999428 L18.7499624,23.9999428 Z M11.9999785,4.12499017 C11.3765517,4.12499017 10.8749812,3.62341971 10.8749812,2.99999285 C10.8749812,2.37656599 11.3765517,1.87499553 11.9999785,1.87499553 C12.6234054,1.87499553 13.1249759,2.37656599 13.1249759,2.99999285 C13.1249759,3.62341971 12.6234054,4.12499017 11.9999785,4.12499017 Z M10.181242,19.3827663 L6.3093488,15.4780973 C6.08907345,15.2577761 6.09374262,14.9015453 6.31406375,14.6812242 L7.64528311,13.3593431 C7.86560424,13.139022 8.22188086,13.143737 8.44215621,13.3640123 L10.5984011,15.5390255 L15.5671392,10.6077781 C15.7874604,10.3874569 16.143737,10.3921719 16.3640123,10.612493 L17.6858933,11.9437124 C17.9062145,12.1687027 17.9015453,12.5202643 17.6812242,12.7405855 L10.9781151,19.3874355 C10.757794,19.6077566 10.4015632,19.6030874 10.181242,19.3827663 Z" id="clipboard-check"></path>
        </g>
    </g>
</svg>