<?xml version="1.0" encoding="UTF-8"?>
<svg width="24px" height="24px" viewBox="0 0 24 24" version="1.1" xmlns="http://www.w3.org/2000/svg" xmlns:xlink="http://www.w3.org/1999/xlink">
    <title></title>
    <g id="Icons" stroke="none" stroke-width="1" fill="none" fill-rule="evenodd">
        <g id="Icons-/-3.-Size-lg-/-Object-/-cube" fill="#151515">
            <path d="M13.0031123,23.3466122 L22.7530891,18.4716238 C23.5171406,18.0919556 23.9952736,17.3091358 23.9952736,16.4607186 L23.9952736,5.90915379 C23.9952736,4.97165603 23.4140067,4.13262299 22.5374371,3.80449877 L12.7874604,0.148257491 C12.2812207,-0.0486261951 11.7187221,-0.0486261951 11.2077675,0.143542536 L1.45779071,3.79978382 C0.581266925,4.12790804 0,4.97165603 0,5.90915379 L0,16.4607186 C0,17.3138049 0.482802194,18.0919556 1.24218454,18.4716238 L10.9921613,23.3466122 C11.6249723,23.6653523 12.3703013,23.6653523 13.0031123,23.3466122 Z M11.9999714,10.1372779 L2.99999285,6.48103658 L2.99999285,6.42949252 L11.9999714,3.05450056 L20.9999499,6.42949252 L20.9999499,6.48103658 L11.9999714,10.1372779 Z M13.4999678,19.7419608 L13.4999678,12.7622716 L20.9999499,9.71540387 L20.9999499,15.9919697 L13.4999678,19.7419608 Z" id="cube"></path>
        </g>
    </g>
</svg>