<?xml version="1.0" encoding="UTF-8"?>
<svg width="24px" height="24px" viewBox="0 0 24 24" version="1.1" xmlns="http://www.w3.org/2000/svg" xmlns:xlink="http://www.w3.org/1999/xlink">
    <title></title>
    <g id="Icons" stroke="none" stroke-width="1" fill="none" fill-rule="evenodd">
        <g id="Icons-/-3.-Size-lg-/-Object-/-cubes" fill="#151515">
            <path d="M7.12965219,21.8230018 L11.9999714,19.3855076 L16.8702906,21.8230018 C17.3437086,22.0620454 17.9062073,22.0620454 18.3796254,21.8230018 L23.0671142,19.4792574 C23.638997,19.1932931 23.9999428,18.607357 23.9999428,17.9698768 L23.9999428,12.80897 C23.9999428,12.1058466 23.5640155,11.4777048 22.9030521,11.2292771 L18.3749562,9.53239695 L18.3749562,4.44647158 C18.3749562,3.74334826 17.9390289,3.11520644 17.2780655,2.86677869 L12.5905767,1.10897038 C12.2109084,0.963676539 11.7890344,0.963676539 11.4046512,1.10897038 L6.71716233,2.86677869 C6.05624472,3.11520644 5.62031741,3.74334826 5.62031741,4.44647158 L5.62031741,9.53239695 L1.09217574,11.2292771 C0.435927305,11.4777048 0,12.1058466 0,12.80897 L0,17.9698768 C0,18.607357 0.360945795,19.1932931 0.932828587,19.4792574 L5.62031741,21.8230018 C6.09373547,22.0620454 6.65623413,22.0620454 7.12965219,21.8230018 Z M11.9999714,6.34957373 L7.21873279,4.40898082 L7.21873279,4.38082843 L11.9999714,2.59024432 L16.78121,4.38082843 L16.78121,4.40898082 L11.9999714,6.34957373 Z M12.7968445,11.065215 L12.7968445,7.86833842 L16.78121,6.13396756 L16.78121,9.56988771 L12.7968445,11.065215 Z M6.3749848,14.7167413 L1.5937462,12.7761484 L1.5937462,12.747996 L6.3749848,10.9574119 L11.1562234,12.747996 L11.1562234,12.7761484 L6.3749848,14.7167413 Z M17.624958,14.7167413 L12.8437194,12.7761484 L12.8437194,12.747996 L17.624958,10.9574119 L22.4061966,12.747996 L22.4061966,12.7761484 L17.624958,14.7167413 Z M7.1718579,20.0183186 L7.1718579,16.3104875 L11.1562234,14.491751 L11.1562234,18.0261359 L7.1718579,20.0183186 Z M18.4218311,20.0183186 L18.4218311,16.3104875 L22.4061966,14.491751 L22.4061966,18.0261359 L18.4218311,20.0183186 Z" id="cubes"></path>
        </g>
    </g>
</svg>