<?xml version="1.0" encoding="UTF-8"?>
<svg width="24px" height="24px" viewBox="0 0 24 24" version="1.1" xmlns="http://www.w3.org/2000/svg" xmlns:xlink="http://www.w3.org/1999/xlink">
    <title></title>
    <g id="Icons" stroke="none" stroke-width="1" fill="none" fill-rule="evenodd">
        <g id="Icons-/-3.-Size-lg-/-Object-/-data-processor" fill="#050606" fill-rule="nonzero">
            <g id="processor" transform="translate(0.000000, 3.000000)">
                <path d="M20.5909615,0 L23.9974605,3.65384615 L20.5909615,7.30769231 L19.4984228,6.31644952 L21.2994558,4.38461538 L4.21018589,4.38461538 C3.45894392,4.4035012 2.75462381,4.71693269 2.22617866,5.27144952 C1.69646787,5.82729087 1.40476484,6.56107452 1.40476484,7.33763101 L1.40476484,7.35270312 C1.40476484,8.12709014 1.69452256,8.85278966 2.22071772,9.39609375 C2.74738163,9.93985457 3.44992048,10.2307692 4.19891245,10.2307692 L7.56735832,10.2307692 L11.9999906,6.91542224 L16.4326135,10.2307692 L19.806068,10.2307692 C20.9151771,10.2307692 21.95767,10.6649594 22.7454301,11.465602 L22.7692234,11.489976 C23.5629107,12.309488 24.0000012,13.4034495 24.0000012,14.5703738 L24.0000012,14.5854459 C24.0000012,15.7500865 23.5638013,16.8492091 22.7717547,17.6802993 C21.9847002,18.5061599 20.9353333,18.9747656 19.8169665,19 L19.8087868,19 L0.720659567,19 C0.334128431,18.9992236 -0.00072303323,18.6528846 1.17253816e-06,18.2498654 C0.000753528836,17.8473486 0.334784681,17.5384615 0.720659567,17.5384615 L19.7947946,17.5384615 C20.5460131,17.5195757 21.2503567,17.2061442 21.7787784,16.6516274 C22.3084892,16.0957861 22.6002156,15.3620024 22.6002156,14.5854459 L22.6002156,14.5703738 C22.6002156,13.7959868 22.3104345,13.0702873 21.7842393,12.5269832 C21.2575754,11.9832224 20.55506,11.6923077 19.806068,11.6923077 L16.4726682,11.6923077 L11.9999906,14.9913814 L7.52732708,11.6923077 L4.19891245,11.6923077 C3.0897802,11.6923077 2.04731004,11.2581175 1.25955042,10.4574749 L1.23575707,10.433101 C0.442069806,9.61358894 0.00496055885,8.5196274 0.00496055885,7.35270312 L0.00496055885,7.33763101 C0.00496055885,6.17299038 0.441155743,5.07386779 1.23320239,4.24277764 C2.02025684,3.41691707 3.06962372,2.9483113 4.18799058,2.92325962 L4.1961937,2.92307692 L21.2994558,2.92307692 L19.4984228,0.991242788 L20.5909615,0 Z M11.9999906,8.81094627 L9.1156321,10.9683141 L11.9999906,13.0958573 L14.8843726,10.9683141 L11.9999906,8.81094627 Z" id="Combined-Shape"></path>
            </g>
        </g>
    </g>
</svg>