<?xml version="1.0" encoding="UTF-8"?>
<svg width="24px" height="24px" viewBox="0 0 24 24" version="1.1" xmlns="http://www.w3.org/2000/svg" xmlns:xlink="http://www.w3.org/1999/xlink">
    <title></title>
    <g id="Icons" stroke="none" stroke-width="1" fill="none" fill-rule="evenodd">
        <g id="Icons-/-3.-Size-lg-/-Object-/-pficon-enterprise" fill="#151515">
            <path d="M10.2867187,0 L0,2.57109375 L0,20.6789062 L13.7132813,24 L15.4289062,24 L24,20.5710938 L24,2.57109375 L12.0023438,0 L10.2867187,0 Z M1.715625,19.3382813 L1.715625,4.70859375 L13.5,7.3265625 L13.5,22.1320312 L11.990625,21.7734375 L11.990625,19.2046875 L3.009375,17.0320313 L3.009375,19.6359375 L1.715625,19.3382813 Z M15,7.6640625 L22.5,4.76015625 L22.5,19.3171875 L20.9976562,19.9148437 L20.9976562,17.8945312 L16.5,19.6734375 L16.5,21.7148438 L15,22.3242188 L15,7.6640625 Z M3.009375,10.1765625 L11.990625,12.309375 L11.990625,8.82890625 L3.009375,6.81796875 L3.009375,10.1765625 Z M16.5,9.38671875 L16.5,12.815625 L21,11.0390625 L21,7.6125 L16.5,9.38671875 Z M3.009375,15.31875 L11.990625,17.465625 L11.990625,14.0085938 L3.009375,11.8898438 L3.009375,15.31875 Z M16.5,14.53125 L16.5,17.9601562 L21.0023438,16.1835937 L21.0023438,12.7546875 L16.5,14.53125 Z" id="pficon-enterprise"></path>
        </g>
    </g>
</svg>