<?xml version="1.0" encoding="UTF-8"?>
<svg width="24px" height="24px" viewBox="0 0 24 24" version="1.1" xmlns="http://www.w3.org/2000/svg" xmlns:xlink="http://www.w3.org/1999/xlink">
    <title></title>
    <g id="Icons" stroke="none" stroke-width="1" fill="none" fill-rule="evenodd">
        <g id="Icons-/-3.-Size-lg-/-Object-/-pficon-service" fill="#151515">
            <path d="M10.6605923,20 C11.3895216,20 12.088079,19.911921 12.7562642,19.7357631 C13.4244495,19.5596052 14.0683371,19.2892938 14.6879271,18.9248292 C15.2953683,18.5725133 15.8420653,18.1533789 16.3280182,17.667426 C16.8139711,17.181473 17.2331055,16.6287016 17.5854214,16.0091116 C17.9498861,15.4016705 18.2201974,14.7638573 18.3963554,14.095672 C18.5725133,13.4274867 18.6605923,12.7289294 18.6605923,12 C18.6605923,11.5383447 18.6241458,11.0858011 18.5512528,10.642369 C18.4783599,10.198937 18.3690205,9.76461655 18.2232346,9.33940774 L19.9908884,9.33940774 L19.9908884,12.0182232 L24,8.6833713 L19.9908884,5.33029613 L19.9908884,8.00911162 L17.6036446,8.00911162 L17.5854214,7.99088838 L17.5854214,7.99088838 C17.2331055,7.37129841 16.8139711,6.82156416 16.3280182,6.34168565 C15.8420653,5.86180714 15.2892938,5.43963554 14.6697039,5.07517084 C14.0622627,4.72285497 13.4244495,4.45558087 12.7562642,4.27334852 C12.088079,4.09111617 11.3895216,4 10.6605923,4 C9.93166287,4 9.23310554,4.09111617 8.56492027,4.27334852 C7.896735,4.45558087 7.25892179,4.72285497 6.65148064,5.07517084 C6.03189066,5.43963554 5.48215642,5.86484434 5.0022779,6.35079727 C4.52239939,6.83675019 4.10022779,7.38344723 3.7357631,7.99088838 C3.38344723,8.59832954 3.11617312,9.23614275 2.93394077,9.90432802 C2.75170843,10.5725133 2.66059226,11.2710706 2.66059226,12 C2.66059226,12.2308276 2.66970387,12.4555809 2.68792711,12.6742597 C2.70615034,12.8929385 2.73348519,13.1116173 2.76993166,13.3302961 L0,13.3302961 L0,14.6605923 L3.11617312,14.6605923 C3.18906606,14.8914199 3.28018223,15.1192103 3.38952164,15.3439636 C3.49886105,15.5687168 3.61427487,15.7904328 3.7357631,16.0091116 C4.10022779,16.6287016 4.5254366,17.181473 5.01138952,17.667426 C5.49734244,18.1533789 6.04403948,18.5725133 6.65148064,18.9248292 C7.25892179,19.2892938 7.89977221,19.5596052 8.57403189,19.7357631 C9.24829157,19.911921 9.94381169,20 10.6605923,20 Z M10.6788155,18.2870159 C10.2536067,18.2870159 9.83750949,18.2444951 9.43052392,18.1594533 C9.02353834,18.0744115 8.6317388,17.9529233 8.25512528,17.7949886 C7.86636295,17.6249051 7.50493546,17.4274867 7.17084282,17.2027335 C6.83675019,16.9779803 6.52999241,16.7258922 6.25056948,16.4464692 C5.99544419,16.191344 5.76461655,15.9149582 5.55808656,15.6173121 C5.35155657,15.3196659 5.16932422,15.0007593 5.01138952,14.6605923 L10.6605923,14.6605923 L10.6605923,17.3394077 L14.6514806,14.0045558 L10.6605923,10.6514806 L10.6605923,13.3302961 L4.55580866,13.3302961 C4.50721336,13.1116173 4.4738041,12.8959757 4.45558087,12.6833713 C4.43735763,12.4707669 4.42824601,12.2490509 4.42824601,12.0182232 C4.42824601,11.5930144 4.46772969,11.1799544 4.54669704,10.7790433 C4.62566439,10.3781321 4.75018983,9.98329537 4.92027335,9.59453303 C5.09035687,9.20577069 5.28473804,8.8443432 5.50341686,8.51025057 C5.72209567,8.17615793 5.97114655,7.86940015 6.25056948,7.58997722 C6.52999241,7.31055429 6.83675019,7.05846621 7.17084282,6.83371298 C7.50493546,6.60895976 7.86636295,6.41761579 8.25512528,6.25968109 C8.64388762,6.08959757 9.04176158,5.96203493 9.44874715,5.87699317 C9.85573273,5.7919514 10.2718299,5.74943052 10.6970387,5.74943052 C11.1100987,5.74943052 11.5201215,5.7919514 11.9271071,5.87699317 C12.3340926,5.96203493 12.7319666,6.08959757 13.1207289,6.25968109 C13.5094913,6.41761579 13.8709188,6.60895976 14.2050114,6.83371298 C14.539104,7.05846621 14.8458618,7.31055429 15.1252847,7.58997722 C15.1860289,7.65072134 15.246773,7.71753986 15.3075171,7.7904328 C15.3682612,7.86332574 15.4290053,7.93014427 15.4897494,7.99088838 L10.6605923,7.99088838 L10.6605923,9.33940774 L16.3280182,9.33940774 C16.3523159,9.37585421 16.3735763,9.41533789 16.3917995,9.45785877 C16.4100228,9.50037965 16.4312832,9.54593774 16.4555809,9.59453303 C16.6135156,9.97114655 16.7350038,10.3629461 16.8200456,10.7699317 C16.9050873,11.1769172 16.9476082,11.5930144 16.9476082,12.0182232 C16.9476082,12.443432 16.9050873,12.8595292 16.8200456,13.2665148 C16.7350038,13.6735004 16.6135156,14.0713743 16.4555809,14.4601367 C16.2854973,14.8367502 16.088079,15.1921033 15.8633257,15.5261959 C15.6385725,15.8602885 15.3864844,16.1670463 15.1070615,16.4464692 C14.8276386,16.7258922 14.5208808,16.9779803 14.1867882,17.2027335 C13.8526955,17.4274867 13.4973424,17.6249051 13.1207289,17.7949886 C12.7319666,17.9529233 12.3340926,18.0744115 11.9271071,18.1594533 C11.5201215,18.2444951 11.1040243,18.2870159 10.6788155,18.2870159 Z" id="pficon-service"></path>
        </g>
    </g>
</svg>