<?xml version="1.0" encoding="UTF-8"?>
<svg width="24px" height="24px" viewBox="0 0 24 24" version="1.1" xmlns="http://www.w3.org/2000/svg" xmlns:xlink="http://www.w3.org/1999/xlink">
    <title></title>
    <g id="Icons" stroke="none" stroke-width="1" fill="none" fill-rule="evenodd">
        <g id="Icons-/-3.-Size-lg-/-Object-/-pficon-data-source" fill="#000000">
            <path d="M19.1648987,0 L22.8766009,4.08510638 L19.1648987,8.17021277 L17.9744732,7.06197447 L19.935,4.904 L4.5704017,4.89980426 C3.75363574,4.89980426 2.98724426,5.24014468 2.41162723,5.85819574 C1.83690383,6.4752766 1.52209532,7.29457021 1.52521021,8.16515745 C1.53169532,9.96597447 2.89742298,11.4382979 4.56966128,11.4382979 L18.3069038,11.4382979 C19.5276102,11.4382979 20.674223,11.9335915 21.5355421,12.8461277 C22.4003336,13.762366 22.876606,14.9854468 22.876606,16.2901021 L22.876606,16.3069532 C22.876606,17.6090553 22.4013038,18.8379064 21.5382996,19.7670894 C20.6807336,20.6904255 19.5373634,21.2143404 18.3188017,21.2423489 L7.05466834,21.2428421 C6.68406409,22.8212731 5.26432307,24 3.57446809,24 C1.60350638,24 -4.26325641e-14,22.3964936 -4.26325641e-14,20.4255319 C-4.26325641e-14,18.4545702 1.60350638,16.8510638 3.57446809,16.8510638 C5.26432307,16.8510638 6.68406409,18.0297907 7.05466834,19.6082217 L18.294623,19.6085106 C19.1131506,19.5873957 19.8805889,19.2369702 20.4563591,18.6170043 C21.0335336,17.9955574 21.3513804,17.175166 21.3513804,16.3069532 L21.3513804,16.2901021 C21.3513804,15.4243149 21.0356528,14.6129617 20.4623081,14.0055319 C19.8884783,13.3975915 19.123006,13.0723404 18.3069038,13.0723404 L4.56966128,13.0723404 C2.05964426,13.0723404 3.57446808e-05,10.8765957 3.57446808e-05,8.17141277 C3.57446808e-05,6.86808511 0.468086809,5.63320851 1.33121872,4.7064766 C2.19509106,3.77892766 3.34525277,3.26808511 4.56963574,3.26808511 L19.94,3.272 L17.9744732,1.1082383 L19.1648987,0 Z M3.57446809,18.4851064 C2.50450213,18.4851064 1.63404255,19.3555915 1.63404255,20.4255319 C1.63404255,21.4954723 2.50450213,22.3659574 3.57446809,22.3659574 C4.64443404,22.3659574 5.51489362,21.4954723 5.51489362,20.4255319 C5.51489362,19.3555915 4.64443404,18.4851064 3.57446809,18.4851064 Z" id="Combined-Shape"></path>
        </g>
    </g>
</svg>