<?xml version="1.0" encoding="UTF-8"?>
<svg width="24px" height="24px" viewBox="0 0 24 24" version="1.1" xmlns="http://www.w3.org/2000/svg" xmlns:xlink="http://www.w3.org/1999/xlink">
    <title></title>
    <g id="Icons" stroke="none" stroke-width="1" fill="none" fill-rule="evenodd">
        <g id="Icons-/-3.-Size-lg-/-Object-/-pficon-builder-image" fill="#151515">
            <path d="M21.180461,5.56968315 L11.9882769,8.86874445 L2.81015522,5.5767144 L12.0046831,2.22655937 L21.180461,5.56968315 Z M2.97187392,16.866554 L6.68202881,15.5367108 L10.4437462,17.1874133 L10.4437462,20.9608494 L2.97187392,16.866554 Z M2.24999918,7.71913549 L5.27812307,8.8056976 L2.24999918,9.89202533 L2.24999918,7.71913549 Z M4.68515454,14.656633 L2.24999918,15.5327264 L2.24999918,13.5916334 L4.68515454,14.656633 Z M10.4414024,10.6577282 L10.4414024,14.5164768 L2.62265529,11.348431 L7.49765351,9.59929106 L10.4414024,10.6577282 Z M17.3038999,15.5327264 L21.0234298,16.8649134 L13.4437451,21.0234275 L13.4437451,17.2303039 L17.3038999,15.5327264 Z M18.7031182,8.8010101 L21.7499921,7.71093237 L21.7499921,9.89554095 L18.7031182,8.8010101 Z M21.7499921,13.5799146 L21.7499921,15.5350701 L19.2984305,14.6568673 L21.7499921,13.5799146 Z M16.481244,9.59694731 L21.358586,11.3460873 L13.4437451,14.5586642 L13.4437451,10.6874938 L16.481244,9.59694731 Z M24,5.61655814 C23.9857659,4.78256805 23.4593204,4.0434946 22.675773,3.75749632 C19.3476492,2.54468425 16.0195254,1.33257533 12.6914016,0.121169518 C12.244621,-0.0403898394 11.7553702,-0.0403898394 11.3085896,0.121169518 L1.32421827,3.75984006 C0.542467417,4.04685453 0.0167657338,4.78395342 0,5.61655814 L0,16.2785074 L0.00234374914,16.2785074 C0.0281249897,17.0050696 0.442968588,17.9338974 1.04531212,18.2803035 L11.0296835,23.752489 C11.6344675,24.0825037 12.3655237,24.0825037 12.9703078,23.752489 C14.9906195,22.6448332 19.7273365,20.0493654 22.9546791,18.2803035 C23.5804601,17.9385849 23.97421,17.0067102 24,16.2785074 L24,5.61655814 Z" id="pficon-builder-image"></path>
        </g>
    </g>
</svg>