<?xml version="1.0" encoding="UTF-8"?>
<svg width="24px" height="24px" viewBox="0 0 24 24" version="1.1" xmlns="http://www.w3.org/2000/svg" xmlns:xlink="http://www.w3.org/1999/xlink">
    <title></title>
    <g id="Icons" stroke="none" stroke-width="1" fill="none" fill-rule="evenodd">
        <g id="Icons-/-3.-Size-lg-/-Object-/-pficon-monitoring" fill="#151515">
            <path d="M24,2 L24,18.9391912 L14.1176471,18.9391912 L14.1176471,20.3529412 L18.3529412,20.3652941 L18.3529412,21.7647059 L5.64705882,21.7647059 L5.64705882,20.3652941 L9.88235294,20.3529412 L9.88235294,18.9391912 L0,18.9391912 L0,2 L24,2 Z M21.1764706,4.82352941 L2.82352941,4.82352941 L2.82352941,16.1176471 L21.1764706,16.1176471 L21.1764706,4.82352941 Z M18.7131618,7.23808824 C19.1695588,7.69470588 19.1267647,8.32205882 18.7131618,8.73544118 L14.5147059,12.9345588 C14.1012152,13.348022 13.4308436,13.348022 13.0173529,12.9345588 L10.2716912,10.1891176 L6.74867647,13.7132353 C6.3342249,14.1209908 5.66851308,14.1182801 5.25739588,13.7071629 C4.84627868,13.2960457 4.84356799,12.6303339 5.25132353,12.2158824 L9.52301471,7.94308824 L9.53845588,7.92742647 C9.73703076,7.72880624 10.0063833,7.61721877 10.2872426,7.61721877 C10.568102,7.61721877 10.8374545,7.72880624 11.0360294,7.92742647 L13.7647059,10.6883088 L17.2158088,7.23808824 C17.6294118,6.82448529 18.2567647,6.78147059 18.7131618,7.23808824 Z" id="pficon-monitoring"></path>
        </g>
    </g>
</svg>