<?xml version="1.0" encoding="UTF-8"?>
<svg width="24px" height="24px" viewBox="0 0 24 24" version="1.1" xmlns="http://www.w3.org/2000/svg" xmlns:xlink="http://www.w3.org/1999/xlink">
    <title></title>
    <g id="Icons" stroke="none" stroke-width="1" fill="none" fill-rule="evenodd">
        <g id="Icons-/-3.-Size-lg-/-Object-/-pficon-image" fill="#151515">
            <path d="M21.75,21 L2.25,21 C1.00734375,21 0,19.9926562 0,18.75 L0,5.25 C0,4.00734375 1.00734375,3 2.25,3 L21.75,3 C22.9926562,3 24,4.00734375 24,5.25 L24,18.75 C24,19.9926562 22.9926562,21 21.75,21 Z M5.25,5.625 C3.80025,5.625 2.625,6.80025 2.625,8.25 C2.625,9.69975 3.80025,10.875 5.25,10.875 C6.69975,10.875 7.875,9.69975 7.875,8.25 C7.875,6.80025 6.69975,5.625 5.25,5.625 Z M3,18 L21,18 L21,12.75 L16.8977344,8.64773438 C16.6780781,8.42807812 16.3219219,8.42807812 16.1022187,8.64773438 L9.75,15 L7.14773438,12.3977344 C6.92807813,12.1780781 6.57192188,12.1780781 6.35221875,12.3977344 L3,15.75 L3,18 Z" id="pficon-image"></path>
        </g>
    </g>
</svg>