<?xml version="1.0" encoding="UTF-8"?>
<svg width="24px" height="24px" viewBox="0 0 24 24" version="1.1" xmlns="http://www.w3.org/2000/svg" xmlns:xlink="http://www.w3.org/1999/xlink">
    <title></title>
    <g id="Icons" stroke="none" stroke-width="1" fill="none" fill-rule="evenodd">
        <g id="Icons-/-3.-Size-lg-/-Object-/-pficon-cluster" fill="#151515">
            <path d="M23.7445313,7.25493084 C23.5734375,7.08383709 23.371875,6.99946209 23.1421875,6.99946209 L0.8578125,6.99946209 C0.6234375,6.99946209 0.4265625,7.08383709 0.25546875,7.25493084 C0.084375,7.42602459 0,7.62758709 0,7.85727459 L0,10.6393058 C0,10.8736808 0.084375,11.0705558 0.25078125,11.2439933 C0.421875,11.4150871 0.61875,11.4994621 0.853125,11.4994621 L23.1421875,11.4994621 C23.3765625,11.4994621 23.5734375,11.4150871 23.7445313,11.2439933 C23.915625,11.0728996 24,10.8760246 24,10.6416496 L24,7.85727459 C24,7.62289959 23.915625,7.42602459 23.7445313,7.25493084 Z M3,9.99946209 L1.5,9.99946209 L1.5,8.49946209 L3,8.49946209 L3,9.99946209 Z M6,9.99946209 L4.5,9.99946209 L4.5,8.49946209 L6,8.49946209 L6,9.99946209 Z M9,9.99946209 L7.5,9.99946209 L7.5,8.49946209 L9,8.49946209 L9,9.99946209 Z M12,9.99946209 L10.5,9.99946209 L10.5,8.49946209 L12,8.49946209 L12,9.99946209 Z M22.5,9.99946209 L21,9.99946209 L21,8.49946209 L22.5,8.49946209 L22.5,9.99946209 Z M0,5.24633709 C0,5.03071209 0.028125,5.00024334 0.225,4.80805584 C0.225,4.80805584 3.54117187,1.52258709 3.7875,1.23454021 C4.03382813,0.946493338 4.34765625,1.00485271 4.34765625,1.00485271 L19.7020313,1.00485271 C19.7020313,1.00485271 19.9785937,0.972040213 20.2291406,1.24391521 C20.4752344,1.51555584 23.7539062,4.80641521 23.7539062,4.80641521 C23.9507812,5.00329021 24,5.03375896 24,5.24704021 C24,5.47204021 23.7257812,5.50016521 23.4539063,5.50016521 L0.51796875,5.50016521 C0.253125,5.50180584 0,5.46196209 0,5.24633709 Z M23.7445313,19.2549308 C23.5734375,19.0838371 23.371875,18.9994621 23.1421875,18.9994621 L0.8578125,18.9994621 C0.6234375,18.9994621 0.4265625,19.0838371 0.25546875,19.2549308 C0.084375,19.4260246 0,19.6275871 0,19.8572746 L0,22.6393058 C0,22.8736808 0.084375,23.0705559 0.25078125,23.2439934 C0.421875,23.4150871 0.61875,23.4994621 0.853125,23.4994621 L23.1421875,23.4994621 C23.3765625,23.4994621 23.5734375,23.4150871 23.7445313,23.2439934 C23.915625,23.0728996 24,22.8760246 24,22.6416496 L24,19.8572746 C24,19.6228996 23.915625,19.4260246 23.7445313,19.2549308 Z M3,21.9994621 L1.5,21.9994621 L1.5,20.4994621 L3,20.4994621 L3,21.9994621 Z M6,21.9994621 L4.5,21.9994621 L4.5,20.4994621 L6,20.4994621 L6,21.9994621 Z M9,21.9994621 L7.5,21.9994621 L7.5,20.4994621 L9,20.4994621 L9,21.9994621 Z M12,21.9994621 L10.5,21.9994621 L10.5,20.4994621 L12,20.4994621 L12,21.9994621 Z M22.5,21.9994621 L21,21.9994621 L21,20.4994621 L22.5,20.4994621 L22.5,21.9994621 Z M23.7445313,13.2549308 C23.5734375,13.0838371 23.371875,12.9994621 23.1421875,12.9994621 L0.8578125,12.9994621 C0.6234375,12.9994621 0.4265625,13.0838371 0.25546875,13.2549308 C0.084375,13.4260246 0,13.6275871 0,13.8572746 L0,16.6393058 C0,16.8736808 0.084375,17.0705558 0.25078125,17.2439933 C0.421875,17.4150871 0.61875,17.4994621 0.853125,17.4994621 L23.1421875,17.4994621 C23.3765625,17.4994621 23.5734375,17.4150871 23.7445313,17.2439933 C23.915625,17.0728996 24,16.8760246 24,16.6416496 L24,13.8572746 C24,13.6228996 23.915625,13.4260246 23.7445313,13.2549308 Z M3,15.9994621 L1.5,15.9994621 L1.5,14.4994621 L3,14.4994621 L3,15.9994621 Z M6,15.9994621 L4.5,15.9994621 L4.5,14.4994621 L6,14.4994621 L6,15.9994621 Z M9,15.9994621 L7.5,15.9994621 L7.5,14.4994621 L9,14.4994621 L9,15.9994621 Z M12,15.9994621 L10.5,15.9994621 L10.5,14.4994621 L12,14.4994621 L12,15.9994621 Z M22.5,15.9994621 L21,15.9994621 L21,14.4994621 L22.5,14.4994621 L22.5,15.9994621 Z" id="pficon-cluster"></path>
        </g>
    </g>
</svg>