<?xml version="1.0" encoding="UTF-8"?>
<svg width="24px" height="24px" viewBox="0 0 24 24" version="1.1" xmlns="http://www.w3.org/2000/svg" xmlns:xlink="http://www.w3.org/1999/xlink">
    <title></title>
    <g id="Icons" stroke="none" stroke-width="1" fill="none" fill-rule="evenodd">
        <g id="Icons-/-3.-Size-lg-/-Object-/-pficon-template" fill="#151515">
            <path d="M23.2992188,0 L0.684375,0 C0.306565774,0.000387563196 0.000387563196,0.306565774 0,0.684375 L0,23.34375 C0,23.7351563 0.31875,24 0.71015625,24 L23.3132813,24 C23.6929687,24 24,23.746875 24,23.3671875 L24,0.70078125 C23.9997415,0.3138576 23.6861423,0.000258552476 23.2992188,0 Z M22.5,22.5 L1.5,22.5 L1.5,1.5 L22.5,1.5 L22.5,22.5 Z M9,10.5 L13.5,10.5 L13.5,9 L9,9 L9,10.5 Z M10.5,6 L15,6 L15,4.5 L10.5,4.5 L10.5,6 Z M19.5,10.5 L15,10.5 L15,9 L18,9 L18,6 L16.5,6 L16.5,4.5 L19.5,4.5 L19.5,10.5 Z M4.5,4.5 L9,4.5 L9,6 L6,6 L6,9 L7.5,9 L7.5,10.5 L4.5,10.5 L4.5,4.5 Z M9,19.5 L13.5,19.5 L13.5,18 L9,18 L9,19.5 Z M10.5,15 L15,15 L15,13.5 L10.5,13.5 L10.5,15 Z M19.5,19.5 L15,19.5 L15,18 L18,18 L18,15 L16.5,15 L16.5,13.5 L19.5,13.5 L19.5,19.5 Z M4.5,13.5 L9,13.5 L9,15 L6,15 L6,18 L7.5,18 L7.5,19.5 L4.5,19.5 L4.5,13.5 Z" id="pficon-template"></path>
        </g>
    </g>
</svg>