<?xml version="1.0" encoding="UTF-8"?>
<svg width="24px" height="24px" viewBox="0 0 24 24" version="1.1" xmlns="http://www.w3.org/2000/svg" xmlns:xlink="http://www.w3.org/1999/xlink">
    <title></title>
    <g id="Icons" stroke="none" stroke-width="1" fill="none" fill-rule="evenodd">
        <g id="Icons-/-3.-Size-lg-/-Object-/-pficon-repository" fill="#151515">
            <path d="M24,14.4117647 L24,23.5882353 L8.47058824,23.5882353 L8.47058824,13.0992647 C8.47058824,13.0992647 8.47058824,12.2941176 9.27573529,12.2941176 L14.5808824,12.2941176 C15.4014706,12.2941176 15.7852941,13.1257353 15.7852941,13.1257353 L16.0985294,13.7058824 L23.2941176,13.7058824 C23.6845588,13.7058824 24,14.0213235 24,14.4117647 L24,14.4117647 Z M7.05882353,13.0772059 C7.05882353,12.9161765 7.08308824,12.4948529 7.30808824,12.0426471 C7.67867647,11.3014706 8.43529412,10.8602941 9.29779412,10.8602941 L14.6029412,10.8602941 C15.3220588,10.8602941 16.0080882,11.1625 16.5330882,11.7117647 C16.7272059,11.9147059 16.8683824,12.1176471 16.9610294,12.2720588 L19.7647059,12.2720588 L19.7647059,8.76470588 C19.7647059,8.37426471 19.4492647,8.05882353 19.0588235,8.05882353 L11.8632353,8.05882353 L11.55,7.47867647 C11.55,7.47867647 11.1661765,6.64705882 10.3455882,6.64705882 L5.04044118,6.64705882 C4.23529412,6.64705882 4.23529412,7.45220588 4.23529412,7.45220588 L4.23529412,17.9411765 L7.05882353,17.9411765 L7.05882353,13.0772059 Z M2.82352941,12.2941176 L0,12.2941176 L0,1.80514706 C0,1.80514706 0,1 0.805147059,1 L6.11029412,1 C6.93088235,1 7.31470588,1.83161765 7.31470588,1.83161765 L7.62794118,2.41176471 L14.8235294,2.41176471 C15.2139706,2.41176471 15.5294118,2.72720588 15.5294118,3.11764706 L15.5294118,6.64705882 L12.7036765,6.64705882 C12.6110294,6.49264706 12.4698529,6.24558824 12.2757353,6.04264706 C11.7507353,5.49338235 11.0647059,5.19117647 10.3455882,5.19117647 L5.04044118,5.19117647 C4.18014706,5.19117647 3.44338235,5.63235294 3.07279412,6.37352941 C2.84779412,6.82352941 2.82352941,7.24705882 2.82352941,7.40808824 L2.82352941,12.2941176 Z" id="pficon-repository"></path>
        </g>
    </g>
</svg>