<?xml version="1.0" encoding="UTF-8"?>
<svg width="24px" height="24px" viewBox="0 0 24 24" version="1.1" xmlns="http://www.w3.org/2000/svg" xmlns:xlink="http://www.w3.org/1999/xlink">
    <title></title>
    <g id="Icons" stroke="none" stroke-width="1" fill="none" fill-rule="evenodd">
        <g id="Icons-/-3.-Size-lg-/-Object-/-pficon-flavor" fill="#151515">
            <path d="M24,3.82352941 L24,3.82352941 L24,20.7647059 C23.2206064,20.7639762 22.588965,20.1323349 22.5882353,19.3529412 L22.5882353,5.23529412 C22.588965,4.45590043 23.2206064,3.82425907 24,3.82352941 L24,3.82352941 Z M8.47058824,10.8823529 L9.88235294,10.8823529 L9.88235294,8.05882353 L8.47058824,8.05882353 L8.47058824,10.8823529 Z M18,8.03676471 L16.9411765,8.03676471 L16.9411765,11.9411765 C16.9411765,12.1361005 16.7831593,12.2941176 16.5882353,12.2941176 L7.41176471,12.2941176 C7.21684068,12.2941176 7.05882353,12.1361005 7.05882353,11.9411765 L7.05882353,8.03676471 L6,8.03676471 C5.80507597,8.03676471 5.64705882,7.87874756 5.64705882,7.68382353 L5.64705882,4.17647059 C5.64705882,3.98154656 5.80507597,3.82352941 6,3.82352941 L18,3.82352941 C18.194924,3.82352941 18.3529412,3.98154656 18.3529412,4.17647059 L18.3529412,7.68382353 C18.3529412,7.87874756 18.194924,8.03676471 18,8.03676471 Z M15.5294118,16.5294118 L14.1176471,16.5294118 L14.1176471,17.9411765 L15.5294118,17.9411765 L15.5294118,19.3529412 L14.1176471,19.3529412 L14.1176471,20.7647059 L12.7058824,20.7647059 L12.7058824,19.3529412 L11.2941176,19.3529412 L11.2941176,20.7647059 L9.88235294,20.7647059 L9.88235294,19.3529412 L8.47058824,19.3529412 L8.47058824,17.9411765 L9.88235294,17.9411765 L9.88235294,16.5294118 L8.47058824,16.5294118 L8.47058824,15.1176471 L9.88235294,15.1176471 L9.88235294,13.7058824 L11.2941176,13.7058824 L11.2941176,15.1176471 L12.7058824,15.1176471 L12.7058824,13.7058824 L14.1176471,13.7058824 L14.1176471,15.1176471 L15.5294118,15.1176471 L15.5294118,16.5294118 Z M2.82352941,2.41176471 L2.82352941,22.1764706 C2.82425907,22.9558643 3.45590043,23.5875056 4.23529412,23.5882353 L19.7647059,23.5882353 C20.5440996,23.5875056 21.1757409,22.9558643 21.1764706,22.1764706 L21.1764706,2.41176471 C21.1757409,1.63237102 20.5440996,1.00072966 19.7647059,1 L4.23529412,1 C3.45590043,1.00072966 2.82425907,1.63237102 2.82352941,2.41176471 Z M11.3161765,16.5294118 L12.6838235,16.5294118 C12.6897861,16.5290173 12.695629,16.5312144 12.6998544,16.5354398 C12.7040797,16.5396651 12.7062768,16.545508 12.7058824,16.5514706 L12.7058824,17.9191176 C12.7062768,17.9250802 12.7040797,17.9309231 12.6998544,17.9351485 C12.695629,17.9393738 12.6897861,17.9415709 12.6838235,17.9411765 L11.3161765,17.9411765 C11.3102139,17.9415709 11.304371,17.9393738 11.3001456,17.9351485 C11.2959203,17.9309231 11.2937232,17.9250802 11.2941176,17.9191176 L11.2941176,16.5514706 C11.2937232,16.545508 11.2959203,16.5396651 11.3001456,16.5354398 C11.304371,16.5312144 11.3102139,16.5290173 11.3161765,16.5294118 L11.3161765,16.5294118 Z M14.1176471,10.8823529 L15.5294118,10.8823529 L15.5294118,8.05882353 L14.1176471,8.05882353 L14.1176471,10.8823529 Z M11.2941176,10.8823529 L12.7058824,10.8823529 L12.7058824,8.05882353 L11.2941176,8.05882353 L11.2941176,10.8823529 Z M0,3.82352941 L0,3.82352941 C0.779393685,3.82425907 1.41103505,4.45590043 1.41176471,5.23529412 L1.41176471,19.3529412 C1.41103505,20.1323349 0.779393685,20.7639762 0,20.7647059 L0,3.82352941 Z" id="pficon-flavor"></path>
        </g>
    </g>
</svg>