<?xml version="1.0" encoding="UTF-8"?>
<svg width="24px" height="24px" viewBox="0 0 24 24" version="1.1" xmlns="http://www.w3.org/2000/svg" xmlns:xlink="http://www.w3.org/1999/xlink">
    <title></title>
    <g id="Icons" stroke="none" stroke-width="1" fill="none" fill-rule="evenodd">
        <g id="Icons-/-3.-Size-lg-/-Object-/-tag" fill="#151515">
            <path d="M13.7729316,23.3409478 L23.3409478,13.7729316 C24.2195773,12.8942564 24.2195773,11.4696077 23.3409478,10.5909782 L13.4089646,0.658995011 C13.0452265,0.295256864 12.3324444,0 11.8180108,0 L2.24999464,0 C1.00735233,0 0,1.00735233 0,2.24999464 L0,11.8180108 C0,12.3324444 0.295256864,13.0452265 0.658995011,13.4089646 L10.5909782,23.3409478 C11.4696077,24.2195773 12.8942564,24.2195773 13.7729316,23.3409478 Z M5.24998748,7.49998212 C4.00734518,7.49998212 2.99999285,6.49262978 2.99999285,5.24998748 C2.99999285,4.00734518 4.00734518,2.99999285 5.24998748,2.99999285 C6.49262978,2.99999285 7.49998212,4.00734518 7.49998212,5.24998748 C7.49998212,6.49262978 6.49262978,7.49998212 5.24998748,7.49998212 Z" id="tag"></path>
        </g>
    </g>
</svg>