<?xml version="1.0" encoding="UTF-8"?><svg version="1.1" width="43px" height="34px" viewBox="0 0 43.0 34.0" xmlns="http://www.w3.org/2000/svg" xmlns:xlink="http://www.w3.org/1999/xlink"><defs><clipPath id="i0"><path d="M3.11654778,0.743583814 C4.10799287,-0.247861271 5.71113465,-0.247861271 6.69197108,0.743583814 L21.0356869,15.0872996 C22.0376376,16.0787447 22.0376376,17.6817835 21.0461925,18.6732286 L6.70247673,33.0169444 C5.71113465,34.0083895 4.10799287,34.0083895 3.12715643,33.0169444 L0.743506566,30.6333975 C-0.247835522,29.6419524 -0.247835522,28.0388106 0.743506566,27.0579742 L10.910711,16.8907697 L0.743506566,6.72366828 C-0.247835522,5.7322232 -0.247835522,4.12908142 0.743506566,3.14824498 Z M23.3771082,0.743583814 C24.3579446,-0.247861271 25.9610864,-0.247861271 26.9524285,0.743583814 L41.2961443,15.0872996 C42.2875893,16.0787447 42.2875893,17.6817835 41.2961443,18.6521143 L26.9524285,32.9958301 C25.971592,33.9872752 24.3684502,33.9872752 23.3771082,32.9958301 L20.9934583,30.6122832 C20.0021162,29.6314468 20.0021162,28.028305 20.9934583,27.0368599 L31.1606627,16.8697584 L20.9934583,6.70255398 C20.0021162,5.72171754 20.0021162,4.11857577 20.9934583,3.12713068 Z"></path></clipPath></defs><g clip-path="url(#i0)"><polygon points="0,-1.11022302e-16 42.0397281,-1.11022302e-16 42.0397281,33.7605282 0,33.7605282 0,-1.11022302e-16" stroke="none" fill="#151515"></polygon></g></svg>