<?xml version="1.0" encoding="UTF-8"?><svg version="1.1" width="43px" height="34px" viewBox="0 0 43.0 34.0" xmlns="http://www.w3.org/2000/svg" xmlns:xlink="http://www.w3.org/1999/xlink"><defs><clipPath id="i0"><path d="M35.3359433,0.743583814 C36.3272854,-0.247861271 37.9304272,-0.247861271 38.9112636,0.743583814 L41.2949135,3.12713068 C42.2862556,4.11857577 42.2862556,5.72171754 41.2949135,6.70255398 L31.1383177,16.8802641 L41.3054191,27.0474685 C42.2968642,28.0388106 42.2968642,29.6419524 41.3054191,30.6227889 L38.9218723,33.0169444 C37.9304272,34.0083895 36.3272854,34.0083895 35.346449,33.0169444 L21.0027332,18.6732286 C20.0007824,17.6817835 20.0007824,16.0787447 20.9922275,15.0872996 Z M15.0964973,0.743583814 C16.0773337,-0.247861271 17.6804755,-0.247861271 18.6719206,0.743583814 L21.0554674,3.13773933 C22.0469125,4.11857577 22.0469125,5.72171754 21.0554674,6.71305963 L10.888366,16.8802641 L21.0449618,27.0579742 C22.0363039,28.0388106 22.0363039,29.6419524 21.0449618,30.6333975 L18.6613119,33.0169444 C17.6804755,34.0083895 16.0773337,34.0083895 15.0859916,33.0169444 L0.742275798,18.6732286 C-0.249169287,17.6817835 -0.249169287,16.0787447 0.752781449,15.0872996 Z"></path></clipPath></defs><g clip-path="url(#i0)"><polygon points="0,0 42.049003,0 42.049003,33.7605282 0,33.7605282 0,0" stroke="none" fill="#151515"></polygon></g></svg>