<?xml version="1.0" encoding="UTF-8"?><svg version="1.1" width="24px" height="54px" viewBox="0 0 24.0 54.0" xmlns="http://www.w3.org/2000/svg" xmlns:xlink="http://www.w3.org/1999/xlink"><defs><clipPath id="i0"><path d="M9.82313018,0.741420886 C10.8116914,-0.247140295 12.4142152,-0.247140295 13.4027763,0.741420886 L22.47935,9.81789156 C24.0739431,11.4125876 22.9445856,14.1390101 20.6893724,14.1390101 L15.8316417,14.1390101 L15.8316417,39.8609642 L20.6893724,39.8609642 C22.9445856,39.8609642 24.0739431,42.5874896 22.479247,44.1820827 L13.4026733,53.2585534 C12.4141122,54.2471145 10.8115884,54.2471145 9.82302718,53.2585534 L0.746453513,44.1820827 C-0.848139548,42.5873866 0.281217959,39.8609642 2.53643109,39.8609642 L7.39416182,39.8609642 L7.39416182,14.1390101 L2.53653408,14.1390101 C0.281320955,14.1390101 -0.848036551,11.4124846 0.74655651,9.81789156 Z"></path></clipPath></defs><g clip-path="url(#i0)"><polygon points="6.17284002e-14,0 23.2258035,0 23.2258035,53.9999743 6.17284002e-14,53.9999743 6.17284002e-14,0" stroke="none" fill="#151515"></polygon></g></svg>