<?xml version="1.0" encoding="UTF-8"?><svg version="1.1" width="48px" height="47px" viewBox="0 0 48.0 47.0" xmlns="http://www.w3.org/2000/svg" xmlns:xlink="http://www.w3.org/1999/xlink"><defs><clipPath id="i0"><path d="M22.4331702,0.743583814 C23.4245123,-0.247861271 25.0276541,-0.247861271 26.0084905,0.743583814 L46.5116079,21.2360925 C47.5030529,22.2275376 47.5030529,23.8305763 46.5116079,24.8115158 L26.0084905,45.3145301 C25.0171485,46.3059752 23.4140067,46.3059752 22.4331702,45.3145301 L20.091749,42.9731088 C19.0897982,41.9711581 19.1109125,40.3363964 20.1339776,39.3555599 L32.8429316,27.2477969 L2.53124397,27.2477969 C1.12853353,27.2477969 0,26.1192634 0,24.7165529 L0,21.341561 C0,19.9388505 1.12853353,18.810317 2.53124397,18.810317 L32.8429316,18.810317 L20.1339776,6.70255398 C19.1003039,5.72171754 19.0792926,4.08695582 20.091749,3.08500508 Z"></path></clipPath></defs><g clip-path="url(#i0)"><polygon points="0,0 47.2551917,0 47.2551917,46.0581139 0,46.0581139 0,0" stroke="none" fill="#151515"></polygon></g></svg>