<?xml version="1.0" encoding="UTF-8"?><svg version="1.1" width="48px" height="42px" viewBox="0 0 48.0 42.0" xmlns="http://www.w3.org/2000/svg" xmlns:xlink="http://www.w3.org/1999/xlink"><defs><clipPath id="i0"><path d="M45.5623914,33.7499195 C46.4944074,33.7499195 47.2498873,34.5053995 47.2498873,35.4374155 L47.2498873,39.6561555 C47.2498873,40.5881715 46.4944074,41.3436514 45.5623914,41.3436514 L1.68749598,41.3436514 C0.755479919,41.3436514 0,40.5881715 0,39.6561555 L0,35.4374155 C0,34.5053995 0.755479919,33.7499195 1.68749598,33.7499195 Z M45.5623914,16.8749598 C46.4944074,16.8749598 47.2498873,17.6304397 47.2498873,18.5624557 L47.2498873,22.7811957 C47.2498873,23.7132117 46.4944074,24.4686917 45.5623914,24.4686917 L1.68749598,24.4686917 C0.755479919,24.4686917 0,23.7132117 0,22.7811957 L0,18.5624557 C0,17.6304397 0.755479919,16.8749598 1.68749598,16.8749598 Z M45.5623914,0 C46.4944074,0 47.2498873,0.755479919 47.2498873,1.68749598 L47.2498873,5.90623592 C47.2498873,6.83825198 46.4944074,7.5937319 45.5623914,7.5937319 L1.68749598,7.5937319 C0.755479919,7.5937319 0,6.83825198 0,5.90623592 L0,1.68749598 C0,0.755479919 0.755479919,0 1.68749598,0 Z"></path></clipPath></defs><g clip-path="url(#i0)"><polygon points="0,0 47.2498873,0 47.2498873,41.3436514 0,41.3436514 0,0" stroke="none" fill="#151515"></polygon></g></svg>