<?xml version="1.0" encoding="UTF-8"?><svg version="1.1" width="48px" height="54px" viewBox="0 0 48.0 54.0" xmlns="http://www.w3.org/2000/svg" xmlns:xlink="http://www.w3.org/1999/xlink"><defs><clipPath id="i0"><path d="M30.371807,47.2498873 C30.371807,50.9781576 27.3501964,53.9998713 23.625016,53.9998713 C19.8998357,53.9998713 16.878225,50.9781576 16.878225,47.2498873 Z M23.625016,0 C25.4876062,0 26.997948,1.51137182 26.997948,3.37499195 L26.997948,5.57293898 C34.7456598,7.18236355 40.4915301,13.7425248 40.4915301,21.9374477 C40.4915301,32.7268545 44.3042575,36.0206851 46.3418388,38.2101865 C46.9746498,38.8894489 47.2552125,39.7036369 47.2500321,40.4999034 C47.239454,42.229628 45.8809292,43.8748954 43.8644621,43.8748954 L3.38556996,43.8748954 C1.3691029,43.8748954 0.011710966,42.229628 9.9475983e-14,40.4999034 C-0.00518047326,39.7036369 0.275382212,38.8904789 0.908193204,38.2101865 C2.94577456,36.0206851 6.75850198,32.7268545 6.75850198,21.9374477 C6.75850198,13.7425248 12.5043722,7.18236355 20.252084,5.57293898 L20.252084,3.37499195 C20.252084,1.51137182 21.7624259,0 23.625016,0 Z"></path></clipPath></defs><g clip-path="url(#i0)"><polygon points="-7.03913418e-05,0 47.2501024,0 47.2501024,53.9998713 -7.03913418e-05,53.9998713 -7.03913418e-05,0" stroke="none" fill="#151515"></polygon></g></svg>