<?xml version="1.0" encoding="UTF-8"?>
<svg width="48px" height="54px" viewBox="0 0 48 54" version="1.1" xmlns="http://www.w3.org/2000/svg" xmlns:xlink="http://www.w3.org/1999/xlink">
    <title></title>
    <g id="Icons" stroke="none" stroke-width="1" fill="none" fill-rule="evenodd">
        <g id="Icons/4.-Size-xl/Framework/bell" fill="#151515">
            <path d="M43.8644621,43.8748954 C45.8809292,43.8748954 47.239454,42.229628 47.2500321,40.4999034 C47.2552125,39.7036369 46.9746498,38.8894489 46.3418388,38.2101865 C44.3042575,36.0206851 40.4915301,32.7268545 40.4915301,21.9374477 C40.4915301,13.7425248 34.7456598,7.18236355 26.997948,5.57293898 L26.997948,3.37499195 C26.997948,1.51137182 25.4876062,0 23.625016,0 C21.7624259,0 20.252084,1.51137182 20.252084,3.37499195 L20.252084,5.57293898 C12.5043722,7.18236355 6.75850198,13.7425248 6.75850198,21.9374477 C6.75850198,32.7268545 2.94577456,36.0206851 0.908193204,38.2101865 C0.275382212,38.8904789 -0.00518047326,39.7036369 9.9475983e-14,40.4999034 C0.011710966,42.229628 1.3691029,43.8748954 3.38556996,43.8748954 L43.8644621,43.8748954 Z M23.625016,53.9998713 C27.3501964,53.9998713 30.371807,50.9781576 30.371807,47.2498873 L16.878225,47.2498873 C16.878225,50.9781576 19.8998357,53.9998713 23.625016,53.9998713 Z" id="bell"></path>
        </g>
    </g>
</svg>