<?xml version="1.0" encoding="UTF-8"?><svg version="1.1" width="48px" height="55px" viewBox="0 0 48.0 55.0" xmlns="http://www.w3.org/2000/svg" xmlns:xlink="http://www.w3.org/1999/xlink"><defs><clipPath id="i0"><path d="M15.6093378,0 C16.3053887,0 16.8749598,0.569571091 16.8749598,1.26562198 L16.8749598,6.74998391 L30.3749276,6.74998391 L30.3749276,1.26562198 C30.3749276,0.569571091 30.9444987,0 31.6405496,0 L35.8592895,0 C36.5553404,0 37.1249115,0.569571091 37.1249115,1.26562198 L37.1249115,6.74998391 L42.1873994,6.74998391 C44.9823146,6.74998391 47.2498873,9.01755663 47.2498873,11.8124718 L47.2498873,48.9373833 C47.2498873,51.7322985 44.9823146,53.9998713 42.1873994,53.9998713 L5.06248793,53.9998713 C2.26757272,53.9998713 0,51.7322985 0,48.9373833 L0,11.8124718 C0,9.01755663 2.26757272,6.74998391 5.06248793,6.74998391 L10.1249759,6.74998391 L10.1249759,1.26562198 C10.1249759,0.569571091 10.694547,0 11.3905978,0 Z M42.1873994,16.8749598 L5.06248793,16.8749598 L5.06248793,48.3045723 C5.06248793,48.6525978 5.34727348,48.9373833 5.69529892,48.9373833 L41.5545884,48.9373833 C41.9026139,48.9373833 42.1873994,48.6525978 42.1873994,48.3045723 L42.1873994,16.8749598 Z M25.7343136,33.7499195 C26.4303645,33.7499195 26.9999356,34.3194906 26.9999356,35.0155415 L26.9999356,39.2342815 C26.9999356,39.9303323 26.4303645,40.4999034 25.7343136,40.4999034 L21.5155737,40.4999034 C20.8195228,40.4999034 20.2499517,39.9303323 20.2499517,39.2342815 L20.2499517,35.0155415 C20.2499517,34.3194906 20.8195228,33.7499195 21.5155737,33.7499195 Z M15.6093378,33.7499195 C16.3053887,33.7499195 16.8749598,34.3194906 16.8749598,35.0155415 L16.8749598,39.2342815 C16.8749598,39.9303323 16.3053887,40.4999034 15.6093378,40.4999034 L11.3905978,40.4999034 C10.694547,40.4999034 10.1249759,39.9303323 10.1249759,39.2342815 L10.1249759,35.0155415 C10.1249759,34.3194906 10.694547,33.7499195 11.3905978,33.7499195 Z M35.8592895,33.7499195 C36.5553404,33.7499195 37.1249115,34.3194906 37.1249115,35.0155415 L37.1249115,39.2342815 C37.1249115,39.9303323 36.5553404,40.4999034 35.8592895,40.4999034 L31.6405496,40.4999034 C30.9444987,40.4999034 30.3749276,39.9303323 30.3749276,39.2342815 L30.3749276,35.0155415 C30.3749276,34.3194906 30.9444987,33.7499195 31.6405496,33.7499195 Z M15.6093378,23.6249437 C16.3053887,23.6249437 16.8749598,24.1945148 16.8749598,24.8905657 L16.8749598,29.1093056 C16.8749598,29.8053565 16.3053887,30.3749276 15.6093378,30.3749276 L11.3905978,30.3749276 C10.694547,30.3749276 10.1249759,29.8053565 10.1249759,29.1093056 L10.1249759,24.8905657 C10.1249759,24.1945148 10.694547,23.6249437 11.3905978,23.6249437 Z M25.7343136,23.6249437 C26.4303645,23.6249437 26.9999356,24.1945148 26.9999356,24.8905657 L26.9999356,29.1093056 C26.9999356,29.8053565 26.4303645,30.3749276 25.7343136,30.3749276 L21.5155737,30.3749276 C20.8195228,30.3749276 20.2499517,29.8053565 20.2499517,29.1093056 L20.2499517,24.8905657 C20.2499517,24.1945148 20.8195228,23.6249437 21.5155737,23.6249437 Z M35.8592895,23.6249437 C36.5553404,23.6249437 37.1249115,24.1945148 37.1249115,24.8905657 L37.1249115,29.1093056 C37.1249115,29.8053565 36.5553404,30.3749276 35.8592895,30.3749276 L31.6405496,30.3749276 C30.9444987,30.3749276 30.3749276,29.8053565 30.3749276,29.1093056 L30.3749276,24.8905657 C30.3749276,24.1945148 30.9444987,23.6249437 31.6405496,23.6249437 Z"></path></clipPath></defs><g transform="translate(3.552713678800501e-15 0.9999999999999964)"><g clip-path="url(#i0)"><polygon points="0,0 47.2498873,0 47.2498873,53.9998713 0,53.9998713 0,0" stroke="none" fill="#151515"></polygon></g></g></svg>