<?xml version="1.0" encoding="UTF-8"?><svg version="1.1" width="53px" height="53px" viewBox="0 0 53.0 53.0" xmlns="http://www.w3.org/2000/svg" xmlns:xlink="http://www.w3.org/1999/xlink"><defs><clipPath id="i0"><path d="M26.1561876,0 C40.6053719,0 52.3123753,11.7070033 52.3123753,26.1561876 C52.3123753,40.6053719 40.6053719,52.3123753 26.1561876,52.3123753 C11.7070033,52.3123753 0,40.6053719 0,26.1561876 C0,11.7070033 11.7070033,0 26.1561876,0 Z M26.1561876,5.06248793 C14.5019185,5.06248793 5.06248793,14.5019185 5.06248793,26.1561876 C5.06248793,37.8104567 14.5019185,47.2498873 26.1561876,47.2498873 C37.8104567,47.2498873 47.2498873,37.8104567 47.2498873,26.1561876 C47.2498873,14.5019185 37.8104567,5.06248793 26.1561876,5.06248793 Z M27.8436836,10.1249759 C28.5397345,10.1249759 29.1093056,10.694547 29.1093056,11.3905978 L29.1093056,26.3355047 L36.1545807,31.4612325 C36.7241518,31.8726009 36.8401259,32.6636146 36.4288606,33.2330827 L34.4459704,35.964758 C34.0347051,36.5237204 33.2436913,36.6503032 32.6741202,36.2389349 L23.7199065,29.7316109 C23.3928924,29.488951 23.2030697,29.1093056 23.2030697,28.7085459 L23.2030697,11.3905978 C23.2030697,10.694547 23.7726408,10.1249759 24.4686917,10.1249759 Z"></path></clipPath></defs><g clip-path="url(#i0)"><polygon points="0,0 52.3123753,0 52.3123753,52.3123753 0,52.3123753 0,0" stroke="none" fill="#151515"></polygon></g></svg>