<?xml version="1.0" encoding="UTF-8"?><svg version="1.1" width="61px" height="48px" viewBox="0 0 61.0 48.0" xmlns="http://www.w3.org/2000/svg" xmlns:xlink="http://www.w3.org/1999/xlink"><defs><clipPath id="i0"><path d="M21.9381383,0 C31.0400491,0 38.844718,4.27147419 42.1669757,10.3464185 C52.6822056,11.5910292 60.7505458,18.5624557 60.7505458,26.9999356 C60.7505458,30.9127757 59.0103155,34.4987047 56.1099318,37.3569628 C57.6363551,40.4198445 59.8045997,42.8315041 60.0702016,43.1100394 L60.0966205,43.1366159 C60.7610514,43.8432754 60.9403685,44.8768461 60.5607231,45.7733284 C60.170469,46.6698106 59.2951011,47.2498873 58.3247703,47.2498873 C52.6717,47.2498873 48.1259459,45.1088974 45.1200937,43.1577302 C43.1161922,43.6217298 41.0068222,43.8748954 38.8130981,43.8748954 C29.7216929,43.8748954 21.948644,39.6139269 18.6369949,33.5600968 C17.6139299,33.433514 16.6119791,33.2648056 15.6416483,33.04326 C12.6357961,35.0050359 8.0795364,37.1354171 2.43697173,37.1354171 C1.46674394,37.1354171 0.580767351,36.5553404 0.201121955,35.6588582 C-0.189132089,34.7623759 0.000690608694,33.7288052 0.66512155,33.0221457 C0.668545491,33.0187301 0.686945841,32.9990895 0.718731621,32.9641515 L0.79967902,32.8741538 C1.32155547,32.2883164 3.24571758,30.0323359 4.64130454,27.2319869 C1.74092083,24.3632232 0.000690608694,20.7772942 0.000690608694,16.8749598 C0.000690608694,7.5515033 9.81976662,0 21.9381383,0 Z M43.8017375,15.8202748 C43.8333574,16.1683002 43.875586,16.5163257 43.875586,16.8749598 C43.875586,25.4074025 35.6490431,32.4315633 24.9651048,33.5706025 C28.0341969,36.6925318 33.1177992,38.8124075 38.8130981,38.8124075 C40.5533283,38.8124075 42.2935585,38.6119761 43.9810545,38.2218251 L46.0799188,37.7366082 L47.8833889,38.9073703 C49.3704536,39.8670924 50.8892412,40.6264862 52.42904,41.1643344 C52.1443575,40.6686118 51.8595719,40.1412693 51.585292,39.6034212 L49.9505303,36.3233921 L52.5556228,33.7499195 C53.9794476,32.3366005 55.6880578,30.0269021 55.6880578,26.9999356 C55.6880578,21.8108649 50.59395,17.349568 43.8017375,15.8202748 Z M21.9381383,5.06248793 C12.7939989,5.06248793 5.06317854,10.4730013 5.06317854,16.8749598 C5.06317854,19.9019263 6.77178881,22.2116246 8.19561354,23.6249437 L10.8112117,26.2089219 L9.17644998,29.488951 C8.90227308,30.0269021 8.61748754,30.5542446 8.33270199,31.0499672 C9.87250087,30.512016 11.3912885,29.7526222 12.8783531,28.7929001 L14.6819262,27.622241 L16.7701819,28.0968492 C18.4576779,28.4870003 20.1979081,28.6874316 21.9381383,28.6874316 C31.0822777,28.6874316 38.8130981,23.2769182 38.8130981,16.8749598 C38.8130981,10.4730013 31.0822777,5.06248793 21.9381383,5.06248793 Z"></path></clipPath></defs><g clip-path="url(#i0)"><polygon points="-5.32907052e-14,0 60.7571077,0 60.7571077,47.2498873 -5.32907052e-14,47.2498873 -5.32907052e-14,0" stroke="none" fill="#151515"></polygon></g></svg>