<?xml version="1.0" encoding="UTF-8"?><svg version="1.1" width="16px" height="53px" viewBox="0 0 16.0 53.0" xmlns="http://www.w3.org/2000/svg" xmlns:xlink="http://www.w3.org/1999/xlink"><defs><clipPath id="i0"><path d="M7.5937319,37.1249115 C11.7913575,37.1249115 15.1874638,40.5210177 15.1874638,44.7186434 C15.1874638,48.916269 11.7913575,52.3123753 7.5937319,52.3123753 C3.39610625,52.3123753 0,48.916269 0,44.7186434 C0,40.5210177 3.39610625,37.1249115 7.5937319,37.1249115 Z M7.5937319,18.5624557 C11.7913575,18.5624557 15.1874638,21.958562 15.1874638,26.1561876 C15.1874638,30.3538133 11.7913575,33.7499195 7.5937319,33.7499195 C3.39610625,33.7499195 0,30.3538133 0,26.1561876 C0,21.958562 3.39610625,18.5624557 7.5937319,18.5624557 Z M7.5937319,0 C11.7913575,0 15.1874638,3.39610625 15.1874638,7.5937319 C15.1874638,11.7913575 11.7913575,15.1874638 7.5937319,15.1874638 C3.39610625,15.1874638 0,11.7913575 0,7.5937319 C0,3.39610625 3.39610625,0 7.5937319,0 Z"></path></clipPath></defs><g clip-path="url(#i0)"><polygon points="0,0 15.1874638,0 15.1874638,52.3123753 0,52.3123753 0,0" stroke="none" fill="#151515"></polygon></g></svg>