<?xml version="1.0" encoding="UTF-8"?>
<svg width="54px" height="54px" viewBox="0 0 54 54" version="1.1" xmlns="http://www.w3.org/2000/svg" xmlns:xlink="http://www.w3.org/1999/xlink">
    <title></title>
    <g id="Icons" stroke="none" stroke-width="1" fill="none" fill-rule="evenodd">
        <g id="Icons/4.-Size-xl/Framework/eye-slash" fill="#030303" fill-rule="nonzero">
            <path d="M42.84375,50.6105769 L44.0625,49.6730769 C44.5624995,49.3605773 44.859375,48.8918273 44.953125,48.2668269 C45.046875,47.6418264 44.9374995,47.0793264 44.625,46.5793269 L40.6875,41.0480769 C43.3125,39.7355769 45.7187505,38.0793264 47.90625,36.0793269 C50.0937495,34.0793273 51.9062505,31.7980764 53.34375,29.2355769 C53.7812505,28.5480773 54,27.7980773 54,26.9855769 C54,26.1730764 53.7812505,25.4230764 53.34375,24.7355769 C50.6562495,20.1730764 46.9999995,16.5480773 42.375,13.8605769 C37.6875,11.1105773 32.5624995,9.73557686 27,9.73557686 C24.3124995,9.73557686 21.6874995,10.0793273 19.125,10.7668269 L14.34375,3.92307686 C13.96875,3.42307734 13.4687505,3.12620186 12.84375,3.03245186 C12.2187495,2.93870186 11.6562495,3.04807734 11.15625,3.36057686 L9.9375,4.29807686 C9.43750048,4.61057639 9.140625,5.07932639 9.046875,5.70432686 C8.953125,6.32932734 9.06250048,6.89182734 9.375,7.39182686 L39.65625,50.0480769 C40.03125,50.5480764 40.5312495,50.8449519 41.15625,50.9387019 C41.7812505,51.0324519 42.3437505,50.9230764 42.84375,50.6105769 Z M36.65625,35.3293269 L34.875,32.7980769 C36,31.2355769 36.6250005,29.5168269 36.75,27.6418269 C36.8749995,25.7668269 36.4999995,24.0168264 35.625,22.3918269 C35.625,23.5168269 35.2343745,24.4699523 34.453125,25.2512019 C33.6718755,26.0324514 32.71875,26.4230769 31.59375,26.4230769 C30.46875,26.4230769 29.5156245,26.0324514 28.734375,25.2512019 C27.9531255,24.4699523 27.5625,23.5168269 27.5625,22.3918269 C27.5625,21.2668269 27.9531255,20.3137014 28.734375,19.5324519 C29.5156245,18.7512023 30.46875,18.3605769 31.59375,18.3605769 C30.4062495,17.7355769 29.15625,17.3762019 27.84375,17.2824519 C26.53125,17.1887019 25.2812505,17.3293269 24.09375,17.7043269 L22.21875,15.1730769 C23.7812505,14.5480764 25.3750005,14.2355769 27,14.2355769 C29.3125005,14.2355769 31.4374995,14.8137023 33.375,15.9699519 C35.3125005,17.1262014 36.8593755,18.6730764 38.015625,20.6105769 C39.1718745,22.5480773 39.75,24.6730764 39.75,26.9855769 C39.75,30.1730769 38.71875,32.9543273 36.65625,35.3293269 Z M27,44.2355769 C28,44.2355769 28.96875,44.2043273 29.90625,44.1418269 L26.90625,39.7355769 C24.5937495,39.7355769 22.4687505,39.1574514 20.53125,38.0012019 C18.5937495,36.8449523 17.0625,35.2980773 15.9375,33.3605769 C14.8125,31.4230764 14.25,29.2980773 14.25,26.9855769 C14.25,25.5480773 14.5,24.1418273 15,22.7668269 L9.65625,15.0793269 C5.90625,17.6418264 2.90625,20.8605773 0.65625,24.7355769 C0.218749523,25.4230764 0,26.1730764 0,26.9855769 C0,27.7980773 0.218749523,28.5480773 0.65625,29.2355769 C3.34375048,33.7980773 7,37.4230764 11.625,40.1105769 C16.3125,42.8605764 21.4375005,44.2355769 27,44.2355769 Z M24.5625,36.4543269 L17.25,26.0480769 C17.0625,28.4855769 17.6562495,30.6730764 19.03125,32.6105769 C20.4062505,34.5480769 22.2499995,35.8293264 24.5625,36.4543269 Z" id="eye-slash"></path>
        </g>
    </g>
</svg>