<?xml version="1.0" encoding="UTF-8"?><svg version="1.1" width="54px" height="54px" viewBox="0 0 54.0 54.0" xmlns="http://www.w3.org/2000/svg" xmlns:xlink="http://www.w3.org/1999/xlink"><defs><clipPath id="i0"><path d="M11.15625,0.360576864 C11.6562495,0.0480773413 12.2187495,-0.0612981355 12.84375,0.0324518645 C13.4687505,0.126201864 13.96875,0.423077341 14.34375,0.923076864 L19.125,7.76682686 C21.6874995,7.07932734 24.3124995,6.73557686 27,6.73557686 C32.5624995,6.73557686 37.6875,8.11057734 42.375,10.8605769 C46.9999995,13.5480773 50.6562495,17.1730764 53.34375,21.7355769 C53.7812505,22.4230764 54,23.1730764 54,23.9855769 C54,24.7980773 53.7812505,25.5480773 53.34375,26.2355769 C51.9062505,28.7980764 50.0937495,31.0793273 47.90625,33.0793269 C45.7187505,35.0793264 43.3125,36.7355769 40.6875,38.0480769 L44.625,43.5793269 C44.9374995,44.0793264 45.046875,44.6418264 44.953125,45.2668269 C44.859375,45.8918273 44.5624995,46.3605773 44.0625,46.6730769 L42.84375,47.6105769 C42.3437505,47.9230764 41.7812505,48.0324519 41.15625,47.9387019 C40.5312495,47.8449519 40.03125,47.5480764 39.65625,47.0480769 L9.375,4.39182686 C9.06250048,3.89182734 8.953125,3.32932734 9.046875,2.70432686 C9.140625,2.07932639 9.43750048,1.61057639 9.9375,1.29807686 Z M9.65625,12.0793269 L15,19.7668269 C14.5,21.1418273 14.25,22.5480773 14.25,23.9855769 C14.25,26.2980773 14.8125,28.4230764 15.9375,30.3605769 C17.0625,32.2980773 18.5937495,33.8449523 20.53125,35.0012019 C22.4687505,36.1574514 24.5937495,36.7355769 26.90625,36.7355769 L29.90625,41.1418269 C28.96875,41.2043273 28,41.2355769 27,41.2355769 C21.4375005,41.2355769 16.3125,39.8605764 11.625,37.1105769 C7,34.4230764 3.34375048,30.7980773 0.65625,26.2355769 C0.218749523,25.5480773 0,24.7980773 0,23.9855769 C0,23.1730764 0.218749523,22.4230764 0.65625,21.7355769 C2.90625,17.8605773 5.90625,14.6418264 9.65625,12.0793269 Z M17.25,23.0480769 L24.5625,33.4543269 C22.2499995,32.8293264 20.4062505,31.5480769 19.03125,29.6105769 C17.6562495,27.6730764 17.0625,25.4855769 17.25,23.0480769 Z M27,11.2355769 C25.3750005,11.2355769 23.7812505,11.5480764 22.21875,12.1730769 L24.09375,14.7043269 C25.2812505,14.3293269 26.53125,14.1887019 27.84375,14.2824519 C29.15625,14.3762019 30.4062495,14.7355769 31.59375,15.3605769 C30.46875,15.3605769 29.5156245,15.7512023 28.734375,16.5324519 C27.9531255,17.3137014 27.5625,18.2668269 27.5625,19.3918269 C27.5625,20.5168269 27.9531255,21.4699523 28.734375,22.2512019 C29.5156245,23.0324514 30.46875,23.4230769 31.59375,23.4230769 C32.71875,23.4230769 33.6718755,23.0324514 34.453125,22.2512019 C35.2343745,21.4699523 35.625,20.5168269 35.625,19.3918269 C36.4999995,21.0168264 36.8749995,22.7668269 36.75,24.6418269 C36.6250005,26.5168269 36,28.2355769 34.875,29.7980769 L36.65625,32.3293269 C38.71875,29.9543273 39.75,27.1730769 39.75,23.9855769 C39.75,21.6730764 39.1718745,19.5480773 38.015625,17.6105769 C36.8593755,15.6730764 35.3125005,14.1262014 33.375,12.9699519 C31.4374995,11.8137023 29.3125005,11.2355769 27,11.2355769 Z"></path></clipPath></defs><g transform="translate(0.0 2.9999999999999467)"><g clip-path="url(#i0)"><polygon points="0,6.9388939e-18 54,6.9388939e-18 54,47.9711537 0,47.9711537 0,6.9388939e-18" stroke="none" fill="#020202"></polygon></g></g></svg>