<?xml version="1.0" encoding="UTF-8"?><svg version="1.1" width="54px" height="54px" viewBox="0 0 54.0 54.0" xmlns="http://www.w3.org/2000/svg" xmlns:xlink="http://www.w3.org/1999/xlink"><defs><clipPath id="i0"><path d="M27,0 C32.5624995,0 37.6875,1.35507293 42.375,4.06521739 C47,6.71376859 50.6562495,10.2862314 53.34375,14.7826087 C53.7812505,15.4601445 54,16.1992749 54,17 C54,17.8007251 53.7812505,18.5398555 53.34375,19.2173913 C50.6562495,23.7137686 47,27.2862314 42.375,29.9347826 C37.6875,32.6449271 32.5624995,34 27,34 C21.4375005,34 16.3125,32.6449271 11.625,29.9347826 C7,27.2862314 3.34375048,23.7137686 0.65625,19.2173913 C0.218749523,18.5398555 0,17.8007251 0,17 C0,16.1992749 0.218749523,15.4601445 0.65625,14.7826087 C3.34375048,10.2862314 7,6.71376859 11.625,4.06521739 C16.3125,1.35507293 21.4375005,0 27,0 Z M27,4 C24.6421564,4 22.4754907,4.58946127 20.5,5.76838235 C18.5245093,6.94730344 16.9473034,8.52450932 15.7683824,10.5 C14.5894613,12.4754907 14,14.6421564 14,17 C14,19.3578436 14.5894613,21.5245093 15.7683824,23.5 C16.9473034,25.4754907 18.5245093,27.0526966 20.5,28.2316176 C22.4754907,29.4105387 24.6421564,30 27,30 C29.3578436,30 31.5245093,29.4105387 33.5,28.2316176 C35.4754907,27.0526966 37.0526966,25.4754907 38.2316176,23.5 C39.4105387,21.5245093 40,19.3578436 40,17 C40,14.6421564 39.4105387,12.4754907 38.2316176,10.5 C37.0526966,8.52450932 35.4754907,6.94730344 33.5,5.76838235 C31.5245093,4.58946127 29.3578436,4 27,4 Z M27,7 C29.7564107,7 32.11218,7.97756459 34.0673077,9.93269231 C36.0224354,11.88782 37,14.2435893 37,17 C37,19.7564107 36.0224354,22.11218 34.0673077,24.0673077 C32.11218,26.0224354 29.7564107,27 27,27 C24.2435893,27 21.88782,26.0224354 19.9326923,24.0673077 C17.9775646,22.11218 17,19.7564107 17,17 C17,15.3333338 17.3846154,13.76282 18.1538462,12.2884615 C18.1538462,13.4423077 18.5544877,14.4198723 19.3557692,15.2211538 C20.1570508,16.0224354 21.1346154,16.4230769 22.2884615,16.4230769 C23.4423077,16.4230769 24.4198723,16.0224354 25.2211538,15.2211538 C26.0224354,14.4198723 26.4230769,13.4423077 26.4230769,12.2884615 C26.4230769,11.1346154 26.0224354,10.1570508 25.2211538,9.35576923 C24.4198723,8.55448767 23.4423077,8.15384615 22.2884615,8.15384615 C23.76282,7.38461538 25.3333338,7 27,7 Z"></path></clipPath></defs><g transform="translate(0.0 10.0)"><g clip-path="url(#i0)"><polygon points="0,0 54,0 54,34 0,34 0,0" stroke="none" fill="#020202"></polygon></g></g></svg>