<?xml version="1.0" encoding="UTF-8"?>
<svg width="54px" height="54px" viewBox="0 0 54 54" version="1.1" xmlns="http://www.w3.org/2000/svg" xmlns:xlink="http://www.w3.org/1999/xlink">
    <title></title>
    <g id="Icons" stroke="none" stroke-width="1" fill="none" fill-rule="evenodd">
        <g id="Icons/4.-Size-xl/Framework/eye" fill="#030303" fill-rule="nonzero">
            <path d="M27,44 C32.5624995,44 37.6875,42.6449271 42.375,39.9347826 C47,37.2862314 50.6562495,33.7137686 53.34375,29.2173913 C53.7812505,28.5398555 54,27.8007251 54,27 C54,26.1992749 53.7812505,25.4601445 53.34375,24.7826087 C50.6562495,20.2862314 47,16.7137686 42.375,14.0652174 C37.6875,11.3550729 32.5624995,10 27,10 C21.4375005,10 16.3125,11.3550729 11.625,14.0652174 C7,16.7137686 3.34375048,20.2862314 0.65625,24.7826087 C0.218749523,25.4601445 0,26.1992749 0,27 C0,27.8007251 0.218749523,28.5398555 0.65625,29.2173913 C3.34375048,33.7137686 7,37.2862314 11.625,39.9347826 C16.3125,42.6449271 21.4375005,44 27,44 Z M27,40 C24.6421564,40 22.4754907,39.4105387 20.5,38.2316176 C18.5245093,37.0526966 16.9473034,35.4754907 15.7683824,33.5 C14.5894613,31.5245093 14,29.3578436 14,27 C14,24.6421564 14.5894613,22.4754907 15.7683824,20.5 C16.9473034,18.5245093 18.5245093,16.9473034 20.5,15.7683824 C22.4754907,14.5894613 24.6421564,14 27,14 C29.3578436,14 31.5245093,14.5894613 33.5,15.7683824 C35.4754907,16.9473034 37.0526966,18.5245093 38.2316176,20.5 C39.4105387,22.4754907 40,24.6421564 40,27 C40,29.3578436 39.4105387,31.5245093 38.2316176,33.5 C37.0526966,35.4754907 35.4754907,37.0526966 33.5,38.2316176 C31.5245093,39.4105387 29.3578436,40 27,40 Z M27,37 C29.7564107,37 32.11218,36.0224354 34.0673077,34.0673077 C36.0224354,32.11218 37,29.7564107 37,27 C37,24.2435893 36.0224354,21.88782 34.0673077,19.9326923 C32.11218,17.9775646 29.7564107,17 27,17 C25.3333338,17 23.76282,17.3846154 22.2884615,18.1538462 C23.4423077,18.1538462 24.4198723,18.5544877 25.2211538,19.3557692 C26.0224354,20.1570508 26.4230769,21.1346154 26.4230769,22.2884615 C26.4230769,23.4423077 26.0224354,24.4198723 25.2211538,25.2211538 C24.4198723,26.0224354 23.4423077,26.4230769 22.2884615,26.4230769 C21.1346154,26.4230769 20.1570508,26.0224354 19.3557692,25.2211538 C18.5544877,24.4198723 18.1538462,23.4423077 18.1538462,22.2884615 C17.3846154,23.76282 17,25.3333338 17,27 C17,29.7564107 17.9775646,32.11218 19.9326923,34.0673077 C21.88782,36.0224354 24.2435893,37 27,37 Z" id="eye"></path>
        </g>
    </g>
</svg>