<?xml version="1.0" encoding="UTF-8"?><svg version="1.1" width="40px" height="54px" viewBox="0 0 40.0 54.0" xmlns="http://www.w3.org/2000/svg" xmlns:xlink="http://www.w3.org/1999/xlink"><defs><clipPath id="i0"><path d="M23.5421053,0 L23.5421053,14.34375 C23.5421053,15.7359375 24.6771711,16.875 26.0644737,16.875 L40.3578947,16.875 L40.3578947,51.46875 C40.3578947,52.8714844 39.2333388,54 37.8355263,54 L2.52236842,54 C1.12455592,54 0,52.8714844 0,51.46875 L0,2.53125 C0,1.12851562 1.12455592,0 2.52236842,0 L23.5421053,0 Z M27.5463651,0 C28.2189967,0 28.8600987,0.263671875 29.3330428,0.73828125 L39.6222039,11.0742188 C40.095148,11.5488281 40.3578947,12.1921875 40.3578947,12.8566406 L40.3578947,13.5 L26.9052632,13.5 L26.9052632,0 L27.5463651,0 Z"></path></clipPath></defs><g clip-path="url(#i0)"><polygon points="0,0 40.3578947,0 40.3578947,54 0,54 0,0" stroke="none" fill="#151515"></polygon></g></svg>