<?xml version="1.0" encoding="UTF-8"?><svg version="1.1" width="62px" height="41px" viewBox="0 0 62.0 41.0" xmlns="http://www.w3.org/2000/svg" xmlns:xlink="http://www.w3.org/1999/xlink"><defs><clipPath id="i0"><path d="M58.2148003,20.2499517 C60.1684395,20.2499517 61.3856531,22.3691064 60.4012117,24.0566023 L52.7626763,37.1510726 C51.6844051,38.9996552 49.0725148,40.4999034 46.9324519,40.4999034 L4.74876035,40.4999034 C2.7951212,40.4999034 1.57790761,38.3807488 2.56224594,36.6932528 L10.2006783,23.5987825 C11.2790525,21.7501999 13.8910458,20.2499517 16.0312118,20.2499517 Z M21.9374477,0 L28.6874316,6.74998391 L45.5623914,6.74998391 C48.3583365,6.74998391 50.6248793,9.01652666 50.6248793,11.8124718 L50.6248793,16.8749598 L16.0312118,16.8749598 C12.4441499,16.8749598 9.09284713,18.7997599 7.28546313,21.898206 L0,34.3875714 L0,5.06248793 C0,2.26654275 2.26654275,0 5.06248793,0 L21.9374477,0 Z"></path></clipPath></defs><g transform="translate(1.0 0.0)"><g clip-path="url(#i0)"><polygon points="0,0 60.7498777,0 60.7498777,40.4999034 0,40.4999034 0,0" stroke="none" fill="#151515"></polygon></g></g></svg>