<?xml version="1.0" encoding="UTF-8"?><svg version="1.1" width="48px" height="34px" viewBox="0 0 48.0 34.0" xmlns="http://www.w3.org/2000/svg" xmlns:xlink="http://www.w3.org/1999/xlink"><defs><clipPath id="i0"><path d="M10.1249759,20.2499517 C11.988596,20.2499517 13.4999678,21.7613235 13.4999678,23.6249437 L13.4999678,30.3749276 C13.4999678,32.2385477 11.988596,33.7499195 10.1249759,33.7499195 L3.37499195,33.7499195 C1.51137182,33.7499195 0,32.2385477 0,30.3749276 L0,23.6249437 C0,21.7613235 1.51137182,20.2499517 3.37499195,20.2499517 Z M26.9999356,20.2499517 C28.8635558,20.2499517 30.3749276,21.7613235 30.3749276,23.6249437 L30.3749276,30.3749276 C30.3749276,32.2385477 28.8635558,33.7499195 26.9999356,33.7499195 L20.2499517,33.7499195 C18.3863316,33.7499195 16.8749598,32.2385477 16.8749598,30.3749276 L16.8749598,23.6249437 C16.8749598,21.7613235 18.3863316,20.2499517 20.2499517,20.2499517 Z M43.8748954,20.2499517 C45.7385155,20.2499517 47.2498873,21.7613235 47.2498873,23.6249437 L47.2498873,30.3749276 C47.2498873,32.2385477 45.7385155,33.7499195 43.8748954,33.7499195 L37.1249115,33.7499195 C35.2612914,33.7499195 33.7499195,32.2385477 33.7499195,30.3749276 L33.7499195,23.6249437 C33.7499195,21.7613235 35.2612914,20.2499517 37.1249115,20.2499517 Z M10.1249759,0 C11.988596,0 13.4999678,1.51137182 13.4999678,3.37499195 L13.4999678,10.1249759 C13.4999678,11.988596 11.988596,13.4999678 10.1249759,13.4999678 L3.37499195,13.4999678 C1.51137182,13.4999678 0,11.988596 0,10.1249759 L0,3.37499195 C0,1.51137182 1.51137182,0 3.37499195,0 Z M26.9999356,0 C28.8635558,0 30.3749276,1.51137182 30.3749276,3.37499195 L30.3749276,10.1249759 C30.3749276,11.988596 28.8635558,13.4999678 26.9999356,13.4999678 L20.2499517,13.4999678 C18.3863316,13.4999678 16.8749598,11.988596 16.8749598,10.1249759 L16.8749598,3.37499195 C16.8749598,1.51137182 18.3863316,0 20.2499517,0 Z M43.8748954,0 C45.7385155,0 47.2498873,1.51137182 47.2498873,3.37499195 L47.2498873,10.1249759 C47.2498873,11.988596 45.7385155,13.4999678 43.8748954,13.4999678 L37.1249115,13.4999678 C35.2612914,13.4999678 33.7499195,11.988596 33.7499195,10.1249759 L33.7499195,3.37499195 C33.7499195,1.51137182 35.2612914,0 37.1249115,0 Z"></path></clipPath></defs><g transform=""><g clip-path="url(#i0)"><polygon points="0,0 47.2498873,0 47.2498873,33.7499195 0,33.7499195 0,0" stroke="none" fill="#151515"></polygon></g></g></svg>