<?xml version="1.0" encoding="UTF-8"?><svg version="1.1" width="34px" height="48px" viewBox="0 0 34.0 48.0" xmlns="http://www.w3.org/2000/svg" xmlns:xlink="http://www.w3.org/1999/xlink"><defs><clipPath id="i0"><path d="M10.1249759,33.7499195 C11.988596,33.7499195 13.4999678,35.2612914 13.4999678,37.1249115 L13.4999678,43.8748954 C13.4999678,45.7385155 11.988596,47.2498873 10.1249759,47.2498873 L3.37499195,47.2498873 C1.51137182,47.2498873 0,45.7385155 0,43.8748954 L0,37.1249115 C0,35.2612914 1.51137182,33.7499195 3.37499195,33.7499195 Z M30.3749276,33.7499195 C32.2385477,33.7499195 33.7499195,35.2612914 33.7499195,37.1249115 L33.7499195,43.8748954 C33.7499195,45.7385155 32.2385477,47.2498873 30.3749276,47.2498873 L23.6249437,47.2498873 C21.7613235,47.2498873 20.2499517,45.7385155 20.2499517,43.8748954 L20.2499517,37.1249115 C20.2499517,35.2612914 21.7613235,33.7499195 23.6249437,33.7499195 Z M10.1249759,16.8749598 C11.988596,16.8749598 13.4999678,18.3863316 13.4999678,20.2499517 L13.4999678,26.9999356 C13.4999678,28.8635558 11.988596,30.3749276 10.1249759,30.3749276 L3.37499195,30.3749276 C1.51137182,30.3749276 0,28.8635558 0,26.9999356 L0,20.2499517 C0,18.3863316 1.51137182,16.8749598 3.37499195,16.8749598 Z M30.3749276,16.8749598 C32.2385477,16.8749598 33.7499195,18.3863316 33.7499195,20.2499517 L33.7499195,26.9999356 C33.7499195,28.8635558 32.2385477,30.3749276 30.3749276,30.3749276 L23.6249437,30.3749276 C21.7613235,30.3749276 20.2499517,28.8635558 20.2499517,26.9999356 L20.2499517,20.2499517 C20.2499517,18.3863316 21.7613235,16.8749598 23.6249437,16.8749598 Z M10.1249759,0 C11.988596,0 13.4999678,1.51137182 13.4999678,3.37499195 L13.4999678,10.1249759 C13.4999678,11.988596 11.988596,13.4999678 10.1249759,13.4999678 L3.37499195,13.4999678 C1.51137182,13.4999678 0,11.988596 0,10.1249759 L0,3.37499195 C0,1.51137182 1.51137182,0 3.37499195,0 Z M30.3749276,0 C32.2385477,0 33.7499195,1.51137182 33.7499195,3.37499195 L33.7499195,10.1249759 C33.7499195,11.988596 32.2385477,13.4999678 30.3749276,13.4999678 L23.6249437,13.4999678 C21.7613235,13.4999678 20.2499517,11.988596 20.2499517,10.1249759 L20.2499517,3.37499195 C20.2499517,1.51137182 21.7613235,0 23.6249437,0 Z"></path></clipPath></defs><g transform=""><g clip-path="url(#i0)"><polygon points="0,0 33.7499195,0 33.7499195,47.2498873 0,47.2498873 0,0" stroke="none" fill="#151515"></polygon></g></g></svg>