<?xml version="1.0" encoding="UTF-8"?>
<svg width="34px" height="48px" viewBox="0 0 34 48" version="1.1" xmlns="http://www.w3.org/2000/svg" xmlns:xlink="http://www.w3.org/1999/xlink">
    <title></title>
    <g id="Icons" stroke="none" stroke-width="1" fill="none" fill-rule="evenodd">
        <g id="Icons/4.-Size-xl/Framework/grip-vertical" fill="#151515">
            <path d="M10.1249759,13.4999678 C11.988596,13.4999678 13.4999678,11.988596 13.4999678,10.1249759 L13.4999678,3.37499195 C13.4999678,1.51137182 11.988596,3.55271368e-15 10.1249759,3.55271368e-15 L3.37499195,3.55271368e-15 C1.51137182,3.55271368e-15 0,1.51137182 0,3.37499195 L0,10.1249759 C0,11.988596 1.51137182,13.4999678 3.37499195,13.4999678 L10.1249759,13.4999678 Z M30.3749276,13.4999678 C32.2385477,13.4999678 33.7499195,11.988596 33.7499195,10.1249759 L33.7499195,3.37499195 C33.7499195,1.51137182 32.2385477,3.55271368e-15 30.3749276,3.55271368e-15 L23.6249437,3.55271368e-15 C21.7613235,3.55271368e-15 20.2499517,1.51137182 20.2499517,3.37499195 L20.2499517,10.1249759 C20.2499517,11.988596 21.7613235,13.4999678 23.6249437,13.4999678 L30.3749276,13.4999678 Z M10.1249759,30.3749276 C11.988596,30.3749276 13.4999678,28.8635558 13.4999678,26.9999356 L13.4999678,20.2499517 C13.4999678,18.3863316 11.988596,16.8749598 10.1249759,16.8749598 L3.37499195,16.8749598 C1.51137182,16.8749598 0,18.3863316 0,20.2499517 L0,26.9999356 C0,28.8635558 1.51137182,30.3749276 3.37499195,30.3749276 L10.1249759,30.3749276 Z M30.3749276,30.3749276 C32.2385477,30.3749276 33.7499195,28.8635558 33.7499195,26.9999356 L33.7499195,20.2499517 C33.7499195,18.3863316 32.2385477,16.8749598 30.3749276,16.8749598 L23.6249437,16.8749598 C21.7613235,16.8749598 20.2499517,18.3863316 20.2499517,20.2499517 L20.2499517,26.9999356 C20.2499517,28.8635558 21.7613235,30.3749276 23.6249437,30.3749276 L30.3749276,30.3749276 Z M10.1249759,47.2498873 C11.988596,47.2498873 13.4999678,45.7385155 13.4999678,43.8748954 L13.4999678,37.1249115 C13.4999678,35.2612914 11.988596,33.7499195 10.1249759,33.7499195 L3.37499195,33.7499195 C1.51137182,33.7499195 0,35.2612914 0,37.1249115 L0,43.8748954 C0,45.7385155 1.51137182,47.2498873 3.37499195,47.2498873 L10.1249759,47.2498873 Z M30.3749276,47.2498873 C32.2385477,47.2498873 33.7499195,45.7385155 33.7499195,43.8748954 L33.7499195,37.1249115 C33.7499195,35.2612914 32.2385477,33.7499195 30.3749276,33.7499195 L23.6249437,33.7499195 C21.7613235,33.7499195 20.2499517,35.2612914 20.2499517,37.1249115 L20.2499517,43.8748954 C20.2499517,45.7385155 21.7613235,47.2498873 23.6249437,47.2498873 L30.3749276,47.2498873 Z" id="grip-vertical"></path>
        </g>
    </g>
</svg>