<?xml version="1.0" encoding="UTF-8"?><svg version="1.1" width="61px" height="48px" viewBox="0 0 61.0 48.0" xmlns="http://www.w3.org/2000/svg" xmlns:xlink="http://www.w3.org/1999/xlink"><defs><clipPath id="i0"><path d="M30.3785325,11.9718075 C30.6290201,11.9718075 30.9904351,12.0993173 31.1854077,12.2564901 L50.6264242,28.2603048 L50.6264242,45.5571385 C50.6264242,46.4886396 49.8704293,47.2446345 48.9389283,47.2446345 L37.1243965,47.2119846 L36.9787575,47.2057867 C36.1153082,47.13192 35.4367975,46.4069633 35.4367975,45.5244886 L35.4369005,35.4321627 C35.4369005,34.5006616 34.6808026,33.7446667 33.7494046,33.7446667 L26.9994206,33.7446667 C26.0679196,33.7446667 25.3119247,34.5006616 25.3119247,35.4321627 L25.3119247,45.5265486 C25.3119247,46.4534148 24.5596376,47.2094097 23.6327714,47.2140445 L11.8140168,47.2446345 C10.8825157,47.2446345 10.1265208,46.4886396 10.1265208,45.5571385 L10.1265208,28.2719434 L29.5717602,12.2564901 C29.7667328,12.0993173 30.1281478,11.9718075 30.3785325,11.9718075 Z M50.2045503,0 C50.9031761,0 51.4701722,0.566996176 51.4701722,1.26562198 L51.4701722,15.874039 L60.2872975,23.1418897 C60.545201,23.3515907 60.75449,23.7914891 60.75449,24.1238591 C60.75449,24.3741408 60.6255383,24.7341139 60.4666146,24.9275414 L57.7771679,28.1970649 C57.5676728,28.4505395 57.1305553,28.6563266 56.8016872,28.6563266 C56.5500666,28.6563266 56.1885486,28.526139 55.994812,28.3657733 L31.1854077,7.93228166 C30.9904351,7.77510887 30.6290201,7.64759911 30.3785325,7.64759911 C30.1281478,7.64759911 29.7667328,7.77510887 29.5717602,7.93228166 L4.76348886,28.3657733 C4.56975229,28.525727 4.20864628,28.6556057 3.95743762,28.6556057 C3.62753957,28.6556057 3.18959811,28.4486855 2.98000007,28.193872 L0.290553354,24.9243485 C0.130187678,24.730509 0,24.368991 0,24.1174733 C0,23.7885022 0.205787168,23.3514878 0.459261753,23.1418897 L27.1564904,1.15490066 C27.9302007,0.518278794 29.3713289,0.00154494871 30.3732796,0.00154494871 C31.3753334,0.00154494871 32.8163585,0.518278794 33.5900688,1.15490066 L43.0326924,8.92372674 L43.0326924,1.26562198 C43.0326924,0.566996176 43.5996885,0 44.2983143,0 Z"></path></clipPath></defs><g clip-path="url(#i0)"><polygon points="0,0 60.75449,0 60.75449,47.2446345 0,47.2446345 0,0" stroke="none" fill="#151515"></polygon></g></svg>