<?xml version="1.0" encoding="UTF-8"?><svg version="1.1" width="25px" height="48px" viewBox="0 0 25.0 48.0" xmlns="http://www.w3.org/2000/svg" xmlns:xlink="http://www.w3.org/1999/xlink"><defs><clipPath id="i0"><path d="M9.82302718,0.741420886 C10.8114854,-0.247140295 12.4141122,-0.247140295 13.4026733,0.741420886 L22.479247,9.81789156 C24.0738401,11.4125876 22.9444826,14.1390101 20.6892694,14.1390101 L15.8315387,14.1390101 L15.8315387,45.9843169 C15.8315387,46.6832517 15.2648515,47.2499388 14.5659167,47.2499388 L8.6596808,47.2499388 C7.96074601,47.2499388 7.39405882,46.6832517 7.39405882,45.9843169 L7.39405882,14.1390101 L2.53643109,14.1390101 C0.281217959,14.1390101 -0.848139548,11.4124846 0.746453513,9.81789156 Z"></path></clipPath></defs><g transform="translate(1.0 0.0)"><g clip-path="url(#i0)"><polygon points="6.13953333e-14,0 23.2257005,0 23.2257005,47.2499388 6.13953333e-14,47.2499388 6.13953333e-14,0" stroke="none" fill="#151515"></polygon></g></g></svg>