<?xml version="1.0" encoding="UTF-8"?><svg version="1.1" width="53px" height="53px" viewBox="0 0 53.0 53.0" xmlns="http://www.w3.org/2000/svg" xmlns:xlink="http://www.w3.org/1999/xlink"><defs><clipPath id="i0"><path d="M26.1561876,0 C40.6008401,0 52.3123753,11.715758 52.3123753,26.1561876 C52.3123753,40.6050629 40.6008401,52.3123753 26.1561876,52.3123753 C11.7115352,52.3123753 0,40.6050629 0,26.1561876 C0,11.715758 11.7115352,0 26.1561876,0 Z M26.1561876,34.8046045 C23.4809545,34.8046045 21.3046367,36.9809223 21.3046367,39.6561555 C21.3046367,42.3312856 23.4809545,44.5077064 26.1561876,44.5077064 C28.8314208,44.5077064 31.0077386,42.3312856 31.0077386,39.6561555 C31.0077386,36.9809223 28.8314208,34.8046045 26.1561876,34.8046045 Z M26.8581093,8.64841688 C21.1103852,8.64841688 17.4445309,11.0696605 14.5658794,15.3728576 C14.1929288,15.9303781 14.3176577,16.6822532 14.8522099,17.0875447 L18.5117814,19.8624786 C19.0607532,20.2787908 19.8429092,20.1797081 20.2694181,19.638667 C22.1535345,17.2489404 23.4454206,15.8632244 26.3131544,15.8632244 C28.4677399,15.8632244 31.1327764,17.2498673 31.1327764,19.339256 C31.1327764,20.9187085 29.8289427,21.7299096 27.7015483,22.92261 C25.2204637,24.3134758 21.9374477,26.0445393 21.9374477,30.3749276 L21.9374477,30.7968016 C21.9374477,31.4957364 22.5041349,32.0624236 23.2030697,32.0624236 L29.1093056,32.0624236 C29.8082404,32.0624236 30.3749276,31.4957364 30.3749276,30.7968016 L30.3749276,30.6562112 C30.3749276,27.6543759 39.1483823,27.5293381 39.1483823,19.4062037 C39.1483823,13.2888248 32.802969,8.64841688 26.8581093,8.64841688 Z"></path></clipPath></defs><g clip-path="url(#i0)"><polygon points="0,0 52.3123753,0 52.3123753,52.3123753 0,52.3123753 0,0" stroke="none" fill="#151515"></polygon></g></svg>