<?xml version="1.0" encoding="UTF-8"?><svg version="1.1" width="53px" height="53px" viewBox="0 0 53.0 53.0" xmlns="http://www.w3.org/2000/svg" xmlns:xlink="http://www.w3.org/1999/xlink"><defs><clipPath id="i0"><path d="M26.1561876,0 C40.6008401,0 52.3123753,11.715758 52.3123753,26.1561876 C52.3123753,40.6050629 40.6008401,52.3123753 26.1561876,52.3123753 C11.7115352,52.3123753 0,40.6050629 0,26.1561876 C0,11.715758 11.7115352,0 26.1561876,0 Z M26.1561876,5.06248793 C14.4989316,5.06248793 5.06248793,14.5024335 5.06248793,26.1561876 C5.06248793,37.8177695 14.4985197,47.2498873 26.1561876,47.2498873 C37.8177695,47.2498873 47.2498873,37.8136496 47.2498873,26.1561876 C47.2498873,14.4988287 37.8095298,5.06248793 26.1561876,5.06248793 Z M26.1561876,33.5389825 C28.5987515,33.5389825 30.5858646,35.5260956 30.5858646,37.9686595 C30.5858646,40.4112234 28.5987515,42.3983364 26.1561876,42.3983364 C23.7136237,42.3983364 21.7265107,40.4112234 21.7265107,37.9686595 C21.7265107,35.5260956 23.7136237,33.5389825 26.1561876,33.5389825 Z M26.7672664,10.9687238 C31.9427415,10.9687238 37.4670661,15.0085587 37.4670661,20.3343059 C37.4670661,27.4061541 29.8289427,27.5150215 29.8289427,30.1284568 L29.8289427,30.7968016 C29.8289427,31.4957364 29.2622555,32.0624236 28.5633207,32.0624236 L23.7489516,32.0624236 C23.0500168,32.0624236 22.4833296,31.4957364 22.4833296,30.7968016 L22.4833296,29.8835309 C22.4833296,26.1135471 25.3415877,24.6065011 27.501426,23.3955703 C29.3536135,22.3572618 30.4887388,21.6510142 30.4887388,20.2759069 C30.4887388,18.4569872 28.1685348,17.2496613 26.2927611,17.2496613 C23.8471073,17.2496613 22.7180588,18.4074459 21.1308815,20.4105234 C20.7030337,20.9504315 19.9222166,21.0507501 19.3731418,20.634541 L16.4386663,18.4092998 C15.8999941,18.0009184 15.7793851,17.2422456 16.1597515,16.6834891 C18.6516508,13.0244326 21.8256964,10.9687238 26.7672664,10.9687238 Z"></path></clipPath></defs><g clip-path="url(#i0)"><polygon points="0,0 52.3123753,0 52.3123753,52.3123753 0,52.3123753 0,0" stroke="none" fill="#151515"></polygon></g></svg>