<?xml version="1.0" encoding="UTF-8"?><svg version="1.1" width="40px" height="54px" viewBox="0 0 40.0 54.0" xmlns="http://www.w3.org/2000/svg" xmlns:xlink="http://www.w3.org/1999/xlink"><defs><clipPath id="i0"><path d="M20.25,0 C23.9730469,0 27,3.02695312 27,6.75 L35.4375,6.75 C38.2324219,6.75 40.5,9.01757812 40.5,11.8125 L40.5,48.9375 C40.5,51.7324219 38.2324219,54 35.4375,54 L5.0625,54 C2.26757812,54 0,51.7324219 0,48.9375 L0,11.8125 C0,9.01757812 2.26757812,6.75 5.0625,6.75 L13.5,6.75 C13.5,3.02695312 16.5269531,0 20.25,0 Z M26.094709,40.4998945 L14.3289316,40.4999473 C13.8648691,40.4999473 13.4851816,40.8796348 13.4851816,41.3436973 L13.4851816,43.0311973 C13.4851816,43.4952598 13.8648691,43.8749473 14.3289316,43.8749473 L26.094709,43.8748945 C26.5587715,43.8748945 26.938459,43.4952598 26.938459,43.0311445 L26.938459,41.3436445 C26.938459,40.879582 26.5587715,40.4998945 26.094709,40.4998945 Z M29.4663867,30.3748945 L10.9653223,30.3749473 C10.5012598,30.3749473 10.1215723,30.7546348 10.1215723,31.2186973 L10.1215723,32.9061973 C10.1215723,33.3702598 10.5012598,33.7499473 10.9653223,33.7499473 L29.4663867,33.7498945 C29.9304492,33.7498945 30.3101367,33.3702598 30.3101367,32.9061445 L30.3101367,31.2186445 C30.3101367,30.754582 29.9304492,30.3748945 29.4663867,30.3748945 Z M7.59295898,20.2274297 C7.12889648,20.2274297 6.74920898,20.6071172 6.74920898,21.0711797 L6.74920898,22.7586797 C6.74920898,23.2227949 7.12889648,23.6024297 7.59295898,23.6024297 L32.90625,23.625 C33.3703125,23.625 33.75,23.2453125 33.75,22.78125 L33.75,21.09375 C33.75,20.6296875 33.3703125,20.25 32.90625,20.25 Z M20.25,4.21875 C18.8472656,4.21875 17.71875,5.34726563 17.71875,6.75 C17.71875,8.15273437 18.8472656,9.28125 20.25,9.28125 C21.6527344,9.28125 22.78125,8.15273437 22.78125,6.75 C22.78125,5.34726563 21.6527344,4.21875 20.25,4.21875 Z"></path></clipPath></defs><g transform="translate(-0.5 0.0)"><g clip-path="url(#i0)"><polygon points="0,0 40.5,0 40.5,54 0,54 0,0" stroke="none" fill="#010202"></polygon></g></g></svg>