<?xml version="1.0" encoding="UTF-8"?><svg version="1.1" width="41px" height="54px" viewBox="0 0 41.0 54.0" xmlns="http://www.w3.org/2000/svg" xmlns:xlink="http://www.w3.org/1999/xlink"><defs><clipPath id="i0"><path d="M34.5936675,0 C35.9916401,0 37.1249115,1.13327138 37.1249115,2.53124397 L37.1249115,7.5937319 C37.1249115,8.99170448 35.9916401,10.1249759 34.5936675,10.1249759 L30.1421553,10.1249759 L31.4325995,22.5983768 C36.4939544,24.9517456 40.5,29.1955137 40.5,34.5936675 C40.5,35.9916401 39.3667351,37.1249115 37.9687625,37.1249115 L23.6250467,37.1249115 L23.6250467,48.0943563 C23.6250467,48.2043567 23.585084,48.373374 23.5359546,48.4717358 L21.0047107,53.5342237 C20.693867,54.1557051 19.8055215,54.1545721 19.4952958,53.5342237 L16.9640518,48.4717358 C16.9054468,48.3545257 16.8749598,48.225368 16.8749598,48.0943563 L16.8749598,37.1249115 L2.53124397,37.1249115 C1.13327138,37.1249115 0,35.9916401 0,34.5936675 C0,29.2422742 3.95136082,24.9770828 9.06730397,22.5983768 L10.3577481,10.1249759 L5.90623592,10.1249759 C4.50826333,10.1249759 3.37499195,8.99170448 3.37499195,7.5937319 L3.37499195,2.53124397 C3.37499195,1.13327138 4.50826333,0 5.90623592,0 Z"></path></clipPath></defs><g transform=""><g clip-path="url(#i0)"><polygon points="0,0 40.5,0 40.5,53.99991 0,53.99991 0,0" stroke="none" fill="#151515"></polygon></g></g></svg>