<?xml version="1.0" encoding="UTF-8"?><svg version="1.1" width="48px" height="54px" viewBox="0 0 48.0 54.0" xmlns="http://www.w3.org/2000/svg" xmlns:xlink="http://www.w3.org/1999/xlink"><defs><clipPath id="i0"><path d="M15.9362489,30.3749276 C18.2882788,31.4507269 20.8827627,32.0624236 23.6249437,32.0624236 C26.3671246,32.0624236 28.9722171,31.4507269 31.3136384,30.3749276 L33.0748799,30.3749276 C40.9006631,30.3749276 47.2498873,36.7241518 47.2498873,44.549935 L47.2498873,48.9373833 C47.2498873,51.7322985 44.9823146,53.9998713 42.1873994,53.9998713 L5.06248793,53.9998713 C2.26757272,53.9998713 0,51.7322985 0,48.9373833 L0,44.549935 C0,36.7241518 6.34922421,30.3749276 14.1750074,30.3749276 Z M23.6249437,0 C31.0815871,0 37.1249115,6.04332437 37.1249115,13.4999678 C37.1249115,20.9566113 31.0815871,26.9999356 23.6249437,26.9999356 C16.1683002,26.9999356 10.1249759,20.9566113 10.1249759,13.4999678 C10.1249759,6.04332437 16.1683002,0 23.6249437,0 Z"></path></clipPath></defs><g clip-path="url(#i0)"><polygon points="0,0 47.2498873,0 47.2498873,53.9998713 0,53.9998713 0,0" stroke="none" fill="#151515"></polygon></g></svg>