<?xml version="1.0" encoding="UTF-8"?>
<svg width="48px" height="54px" viewBox="0 0 48 54" version="1.1" xmlns="http://www.w3.org/2000/svg" xmlns:xlink="http://www.w3.org/1999/xlink">
    <title></title>
    <g id="Icons" stroke="none" stroke-width="1" fill="none" fill-rule="evenodd">
        <g id="Icons/4.-Size-xl/Framework/user" fill="#151515">
            <path d="M23.6249437,26.9999356 C31.0815871,26.9999356 37.1249115,20.9566113 37.1249115,13.4999678 C37.1249115,6.04332437 31.0815871,0 23.6249437,0 C16.1683002,0 10.1249759,6.04332437 10.1249759,13.4999678 C10.1249759,20.9566113 16.1683002,26.9999356 23.6249437,26.9999356 Z M42.1873994,53.9998713 C44.9823146,53.9998713 47.2498873,51.7322985 47.2498873,48.9373833 L47.2498873,44.549935 C47.2498873,36.7241518 40.9006631,30.3749276 33.0748799,30.3749276 L31.3136384,30.3749276 C28.9722171,31.4507269 26.3671246,32.0624236 23.6249437,32.0624236 C20.8827627,32.0624236 18.2882788,31.4507269 15.9362489,30.3749276 L14.1750074,30.3749276 C6.34922421,30.3749276 0,36.7241518 0,44.549935 L0,48.9373833 C0,51.7322985 2.26757272,53.9998713 5.06248793,53.9998713 L42.1873994,53.9998713 Z" id="user"></path>
        </g>
    </g>
</svg>