<?xml version="1.0" encoding="UTF-8"?><svg version="1.1" width="140px" height="36px" viewBox="0 0 140.0 36.0" xmlns="http://www.w3.org/2000/svg" xmlns:xlink="http://www.w3.org/1999/xlink"><defs><clipPath id="i0"><path d="M153,0 C154.656854,-3.04359188e-16 156,1.34314575 156,3 L156,49 C156,50.6568542 154.656854,52 153,52 L3,52 C1.34314575,52 -1.57345071e-15,50.6568542 0,49 L0,3 C-2.02906125e-16,1.34314575 1.34314575,1.19253761e-15 3,0 L153,0 Z"></path></clipPath><clipPath id="i1"><path d="M140,0 L140,36 L0,36 L0,0 L140,0 Z"></path></clipPath><clipPath id="i2"><path d="M8,0 L8,36 L0,36 L0,0 L8,0 Z"></path></clipPath><clipPath id="i3"><path d="M124,0 L124,6 L0,6 L0,0 L124,0 Z"></path></clipPath></defs><g transform="translate(-8.0 -8.0)"><g clip-path="url(#i0)"><polygon points="0,0 156,0 156,52 0,52 0,0" stroke="none" fill="rgba(0, 102, 204, 0.2)"></polygon></g><g clip-path="url(#i0)"><path d="M3,0 L153,0 C154.656854,-3.04359188e-16 156,1.34314575 156,3 L156,49 C156,50.6568542 154.656854,52 153,52 L3,52 C1.34314575,52 -1.57345071e-15,50.6568542 0,49 L0,3 C-2.02906125e-16,1.34314575 1.34314575,1.19253761e-15 3,0 Z" stroke="#0066CC" stroke-width="2" fill="none" stroke-miterlimit="5"></path></g><g transform="translate(8.0 8.0)"><g clip-path="url(#i1)"><polygon points="0,0 140,0 140,36 0,36 0,0" stroke="none" fill="#FFFFFF"></polygon><g transform="translate(1.0 0.0)"><polygon points="0,0 0,36 -1,36 -1,0 0,0 0,0" stroke="none" fill="#EDEDED"></polygon></g><g transform="translate(-1.0 0.0)"><polygon points="141,0 141,36 140,36 140,0 141,0 141,0" stroke="none" fill="#EDEDED"></polygon></g><g transform="translate(0.0 1.0)"><polygon points="140,0 0,0 0,-1 140,-1 140,0 140,0" stroke="none" fill="#EDEDED"></polygon></g><g transform="translate(0.0 -2.0)"><polygon points="140,36 140,38 0,38 0,36 140,36 140,36" stroke="none" fill="#0066CC"></polygon></g></g></g><g transform="translate(139.0 34.0)"><g transform="translate(4.0 4.000000000000014)"><path d="M0,3 L3,0" stroke="#BBBBBB" stroke-width="1" fill="none" stroke-miterlimit="10"></path></g><g transform=""><path d="M0,7 L7,0" stroke="#BBBBBB" stroke-width="1" fill="none" stroke-miterlimit="10"></path></g></g></g><g transform="translate(8.0 6.0)"><text transform="translate(0.0 16.0)" font-family="RedHatText-Regular, Red Hat Text" font-size="16.0" font-weight="normal" fill="#151515" text-anchor="left" line-spacing="24.0">Text box</text></g><g clip-path="url(#i2)"><polygon points="0,0 8,0 8,36 0,36 0,0" stroke="none" fill="rgba(146, 211, 0, 0.9)"></polygon></g><g clip-path="url(#i2)"><polygon points="0,0 8,0 8,36 0,36 0,0 0,0" stroke="#7EB200" stroke-width="2" fill="none" stroke-miterlimit="5"></polygon></g><g transform="translate(132.0 0.0)"><g clip-path="url(#i2)"><polygon points="0,0 8,0 8,36 0,36 0,0" stroke="none" fill="rgba(146, 211, 0, 0.9)"></polygon></g><g clip-path="url(#i2)"><polygon points="0,0 8,0 8,36 0,36 0,0 0,0" stroke="#7EB200" stroke-width="2" fill="none" stroke-miterlimit="5"></polygon></g></g><g transform="translate(8.0 30.0)"><g clip-path="url(#i3)"><polygon points="0,0 124,0 124,6 0,6 0,0" stroke="none" fill="rgba(243, 213, 59, 0.9)"></polygon></g><g clip-path="url(#i3)"><polygon points="0,0 124,0 124,6 0,6 0,0 0,0" stroke="#CAB534" stroke-width="2" fill="none" stroke-miterlimit="5"></polygon></g></g><g transform="translate(8.0 0.0)"><g clip-path="url(#i3)"><polygon points="0,0 124,0 124,6 0,6 0,0" stroke="none" fill="rgba(243, 213, 59, 0.9)"></polygon></g><g clip-path="url(#i3)"><polygon points="0,0 124,0 124,6 0,6 0,0 0,0" stroke="#CAB534" stroke-width="2" fill="none" stroke-miterlimit="5"></polygon></g></g></svg>