<?xml version="1.0" encoding="UTF-8"?><svg version="1.1" width="268px" height="40px" viewBox="0 0 268.0 40.0" xmlns="http://www.w3.org/2000/svg" xmlns:xlink="http://www.w3.org/1999/xlink"><defs><clipPath id="i0"><path d="M260,0 L260,8 L0,8 L0,0 L260,0 Z"></path></clipPath><clipPath id="i1"><path d="M8,0 L8,40 L0,40 L0,0 L8,0 Z"></path></clipPath><filter id="i2" x="-15.9090909%" y="-25%" filterUnits="userSpaceOnUse" width="122.727273%" height="141.666667%"><feGaussianBlur stdDeviation="2" in="SourceAlpha" result="i3"></feGaussianBlur><feOffset dx="0" dy="2" in="i3" result="i4"></feOffset><feColorMatrix values="0 0 0 0.0 0 0 0 0 0.0 0 0 0 0 0.0 0 0 0 0 0.5 0" type="matrix" in="i4"></feColorMatrix></filter><clipPath id="i5"><path d="M80,0 L80,40 L0,40 L0,0 L80,0 Z"></path></clipPath><clipPath id="i6"><path d="M24,0 L24,40 L0,40 L0,0 L24,0 Z"></path></clipPath></defs><g transform="translate(104.0 8.0)"><text transform="translate(0.0 16.0)" font-family="RedHatText-Medium, Red Hat Text" font-size="16.0" font-weight="400" fill="#0066CC" text-anchor="left" line-spacing="24.0">Fourth level</text></g><g clip-path="url(#i0)"><polygon points="0,0 260,0 260,8 0,8 0,0" stroke="none" fill="rgba(146, 211, 0, 0.9)"></polygon></g><g clip-path="url(#i0)"><polygon points="0,0 260,0 260,8 0,8 0,0 0,0" stroke="#7EB200" stroke-width="2" fill="none" stroke-miterlimit="5"></polygon></g><g transform="translate(0.0 32.0)"><g clip-path="url(#i0)"><polygon points="0,0 260,0 260,8 0,8 0,0" stroke="none" fill="rgba(146, 211, 0, 0.9)"></polygon></g><g clip-path="url(#i0)"><polygon points="0,0 260,0 260,8 0,8 0,0 0,0" stroke="#7EB200" stroke-width="2" fill="none" stroke-miterlimit="5"></polygon></g></g><g transform="translate(260.0 0.0)"><g clip-path="url(#i1)"><polygon points="0,0 8,0 8,40 0,40 0,0" stroke="none" fill="rgba(146, 211, 0, 0.9)"></polygon></g><g clip-path="url(#i1)"><polygon points="0,0 8,0 8,40 0,40 0,0 0,0" stroke="#7EB200" stroke-width="2" fill="none" stroke-miterlimit="5"></polygon></g></g><polygon points="0,0 80,0 80,40 0,40 0,0 0,0" stroke="none" fill="#000000" filter="url(#i2)"></polygon><g clip-path="url(#i5)"><polygon points="0,0 80,0 80,40 0,40 0,0" stroke="none" fill="#B300B3"></polygon><polygon points="0,0 80,0 80,40 0,40 0,0 0,0" stroke="#8F008F" stroke-width="2" fill="none" stroke-miterlimit="5"></polygon></g><g transform="translate(80.0 0.0)"><g clip-path="url(#i6)"><polygon points="0,0 24,0 24,40 0,40 0,0" stroke="none" fill="rgba(0, 121, 135, 0.9)"></polygon></g><g clip-path="url(#i6)"><polygon points="0,0 24,0 24,40 0,40 0,0 0,0" stroke="#09707A" stroke-width="2" fill="none" stroke-miterlimit="5"></polygon></g></g></svg>