<?xml version="1.0" encoding="UTF-8"?>
<svg width="106px" height="42px" viewBox="0 0 106 42" version="1.1" xmlns="http://www.w3.org/2000/svg" xmlns:xlink="http://www.w3.org/1999/xlink">
    <title></title>
    <g id="Data-List-and-Table" stroke="none" stroke-width="1" fill="none" fill-rule="evenodd">
        <g id="Data-list-+-table-/-2.-Table-header-/-Compact-(8px-spacers)-/-6.-Sort-up">
            <text id="âœï¸-Category" font-family="RedHatText-Medium, Red Hat Text" font-size="14" font-weight="400" line-spacing="18.2000008" fill="#0066CC">
                <tspan x="0" y="25">Category</tspan>
            </text>
            <g id="Icons-/-Framework-/-long-arrow-alt-up" transform="translate(82.000000, 9.000000)">
                <g id="long-arrow-alt-up" fill="#151515">
                    <path d="M13.3158272,18.9999819 C13.522919,18.9999819 13.6908263,18.8320746 13.6908263,18.6249828 L13.6908263,9.18933633 L15.1301539,9.18933633 C15.7983652,9.18933633 16.1329896,8.38150744 15.6605176,7.90900491 L12.9711625,5.21968026 C12.6782555,4.92677325 12.2034031,4.92677325 11.9105266,5.21968026 L9.22117141,7.90900491 C8.74869939,8.38147692 9.08332384,9.18933633 9.75153514,9.18933633 L11.1908322,9.18933633 L11.1908322,18.6249828 C11.1908322,18.8320746 11.3587396,18.9999819 11.5658313,18.9999819 L13.3158272,18.9999819 Z"></path>
                </g>
                <rect id="ðŸŽ¨-Color" fill="#0066CC" x="0" y="0" width="24" height="24"></rect>
            </g>
            <g id="ðŸ“-Padding" fill-opacity="0.9">
                <g id="Spacer-/-Horizontal-/-3.-pf-global--spacer--md-(16px)" transform="translate(66.000000, 12.000000)" fill="#3F9C35" stroke="#418A38">
                    <rect id="Rectangle-Copy-2" x="0.5" y="0.5" width="15" height="17"></rect>
                </g>
                <g id="Spacer-/-Vertical-/-1.-pf-global--spacer--xs-(4px)" fill="#EC7A08" stroke="#C77000">
                    <rect id="Rectangle" x="0.5" y="0.5" width="105" height="3"></rect>
                </g>
                <g id="Spacer-/-Vertical-/-2.-pf-global--spacer--sm-(8px)" transform="translate(0.000000, 4.000000)" fill="#92D400" stroke="#7FB300">
                    <rect id="Rectangle-Copy" x="0.5" y="0.5" width="105" height="7"></rect>
                </g>
                <g id="Spacer-/-Vertical-/-2.-pf-global--spacer--sm-(8px)" transform="translate(0.000000, 30.000000)" fill="#92D400" stroke="#7FB300">
                    <rect id="Rectangle-Copy" x="0.5" y="0.5" width="105" height="7"></rect>
                </g>
            </g>
        </g>
    </g>
</svg>