<?xml version="1.0" encoding="UTF-8"?>
<svg width="489px" height="339px" viewBox="0 0 489 339" version="1.1" xmlns="http://www.w3.org/2000/svg" xmlns:xlink="http://www.w3.org/1999/xlink">
    <title></title>
    <g id="Charts" stroke="none" stroke-width="1" fill="none" fill-rule="evenodd">
        <g id="Charts-/-Axis-/-Full-with-vertical-lines">
            <g id="x-axis-values" transform="translate(38.000000, 317.000000)" fill="#151515" font-family="RedHatText-Regular, Red Hat Text" font-size="14" font-weight="normal" line-spacing="21">
                <text id="1">
                    <tspan x="0" y="14.2000008">1 </tspan>
                </text>
                <text id="2">
                    <tspan x="74" y="14">2</tspan>
                </text>
                <text id="3">
                    <tspan x="148" y="14">3</tspan>
                </text>
                <text id="4">
                    <tspan x="221" y="14">4</tspan>
                </text>
                <text id="5">
                    <tspan x="295" y="14">5</tspan>
                </text>
                <text id="6">
                    <tspan x="369" y="14">6</tspan>
                </text>
                <text id="7">
                    <tspan x="443" y="14">7</tspan>
                </text>
            </g>
            <g id="y-axis-values" transform="translate(0.000000, 2.000000)" fill="#151515" font-family="RedHatText-Regular, Red Hat Text" font-size="14" font-weight="normal" line-spacing="21">
                <text id="0">
                    <tspan x="15" y="308.200001">0</tspan>
                </text>
                <text id="10">
                    <tspan x="9" y="279.200001">10</tspan>
                </text>
                <text id="20">
                    <tspan x="6" y="249.400001">20</tspan>
                </text>
                <text id="30">
                    <tspan x="6" y="220.000001">30</tspan>
                </text>
                <text id="40">
                    <tspan x="6" y="190.600001">40</tspan>
                </text>
                <text id="50">
                    <tspan x="6" y="161.200001">50</tspan>
                </text>
                <text id="60">
                    <tspan x="6" y="131.800001">60</tspan>
                </text>
                <text id="70">
                    <tspan x="7" y="102.400001">70</tspan>
                </text>
                <text id="80">
                    <tspan x="6" y="73.0000008">80</tspan>
                </text>
                <text id="90">
                    <tspan x="6" y="43.6000008">90</tspan>
                </text>
                <text id="100">
                    <tspan x="0" y="14.2000008">100</tspan>
                </text>
            </g>
            <polygon id="x-axis-stroke" fill="#D2D2D2" points="39 310 489 310 489 311 39 311"></polygon>
            <g id="Tick-marks" transform="translate(261.500000, 313.500000) rotate(90.000000) translate(-261.500000, -313.500000) translate(259.000000, 90.000000)" fill="#D2D2D2">
                <rect id="tick-mark" x="1.45661261e-12" y="446" width="5" height="1"></rect>
                <polygon id="tick-mark" points="1.57740487e-12 369 5 369 5 370 1.57740487e-12 370"></polygon>
                <polygon id="tick-mark" points="1.62003744e-12 294 5 294 5 295 1.62003744e-12 295"></polygon>
                <polygon id="tick-mark" points="1.47082346e-12 221 5 221 5 222 1.47082346e-12 222"></polygon>
                <polygon id="tick-mark" points="1.1155521e-12 148 5 148 5 149 1.1155521e-12 149"></polygon>
                <polygon id="tick-mark" points="3.90798505e-13 73 5 73 5 74 3.90798505e-13 74"></polygon>
                <polygon id="tick-mark" points="0 0 5 0 5 1 0 1"></polygon>
            </g>
            <g id="Tick-marks" transform="translate(34.000000, 10.000000)" fill="#D2D2D2">
                <rect id="tick-mark" x="0" y="264" width="5" height="1"></rect>
                <polygon id="tick-mark" points="0 235 5 235 5 236 0 236"></polygon>
                <polygon id="tick-mark" points="0 205 5 205 5 206 0 206"></polygon>
                <polygon id="tick-mark" points="0 176 5 176 5 177 0 177"></polygon>
                <polygon id="tick-mark" points="0 147 5 147 5 148 0 148"></polygon>
                <polygon id="tick-mark" points="0 117 5 117 5 118 0 118"></polygon>
                <polygon id="tick-mark" points="0 88 5 88 5 89 0 89"></polygon>
                <polygon id="tick-mark" points="0 59 5 59 5 60 0 60"></polygon>
                <polygon id="tick-mark" points="0 29 5 29 5 30 0 30"></polygon>
                <polygon id="tick-mark" points="0 0 5 0 5 1 0 1"></polygon>
            </g>
            <rect id="y-axis-stroke" fill="#D2D2D2" x="38" y="11" width="1" height="300"></rect>
            <line x1="115.5" y1="310.5" x2="115.5" y2="9.5" id="Line-4" stroke="#D2D2D2" stroke-linecap="square"></line>
            <line x1="190.5" y1="310.5" x2="190.5" y2="9.5" id="Line-4" stroke="#D2D2D2" stroke-linecap="square"></line>
            <line x1="263.5" y1="310.5" x2="263.5" y2="9.5" id="Line-4" stroke="#D2D2D2" stroke-linecap="square"></line>
            <line x1="336.5" y1="310.5" x2="336.5" y2="9.5" id="Line-4" stroke="#D2D2D2" stroke-linecap="square"></line>
            <line x1="411.5" y1="310.5" x2="411.5" y2="9.5" id="Line-4" stroke="#D2D2D2" stroke-linecap="square"></line>
            <line x1="484.5" y1="310.5" x2="484.5" y2="9.5" id="Line-4" stroke="#D2D2D2" stroke-linecap="square"></line>
        </g>
    </g>
</svg>