<?xml version="1.0" encoding="UTF-8"?><svg version="1.1" width="605px" height="28px" viewBox="0 0 605.0 28.0" xmlns="http://www.w3.org/2000/svg" xmlns:xlink="http://www.w3.org/1999/xlink"><defs><clipPath id="i0"><path d="M605,0 L605,1 L0,1 L0,0 L605,0 Z"></path></clipPath><clipPath id="i1"><path d="M5,0 L5,1 L0,1 L0,0 L5,0 Z"></path></clipPath></defs><g transform="translate(-5.0 7.0)"><text transform="translate(0.0 14.0)" font-family="RedHatText-Regular, Red Hat Text" font-size="14.0" font-weight="normal" fill="#141514" text-anchor="left" line-spacing="21.0">0 </text><g transform="translate(144.0 0.0)"><text transform="translate(0.0 14.0)" font-family="RedHatText-Regular, Red Hat Text" font-size="14.0" font-weight="normal" fill="#141514" text-anchor="left" line-spacing="21.0">25</text></g><g transform="translate(295.0 0.0)"><text transform="translate(0.0 14.0)" font-family="RedHatText-Regular, Red Hat Text" font-size="14.0" font-weight="normal" fill="#141514" text-anchor="left" line-spacing="21.0">50</text></g><g transform="translate(448.0 0.0)"><text transform="translate(0.0 14.0)" font-family="RedHatText-Regular, Red Hat Text" font-size="14.0" font-weight="normal" fill="#141514" text-anchor="left" line-spacing="21.0">75</text></g><g transform="translate(599.0 0.0)"><text transform="translate(0.0 14.0)" font-family="RedHatText-Regular, Red Hat Text" font-size="14.0" font-weight="normal" fill="#141514" text-anchor="left" line-spacing="21.0">100</text></g></g><g clip-path="url(#i0)"><polygon points="0,0 605,0 605,1 0,1 0,0" stroke="none" fill="#D2D2D2"></polygon></g><g transform="translate(451.5 0.49999999999998623) rotate(90.0)"><g transform="translate(0.0 450.5)"><g clip-path="url(#i1)"><polygon points="0,0 5,0 5,1 0,1 0,0" stroke="none" fill="#D2D2D2"></polygon></g></g><g transform="translate(6.252776074688882e-13 305.0)"><g clip-path="url(#i1)"><polygon points="5.68434189e-14,0 5,0 5,1 5.68434189e-14,1 5.68434189e-14,0" stroke="none" fill="#D2D2D2"></polygon></g></g><g transform="translate(-1.0231815394945443e-12 153.0)"><g clip-path="url(#i1)"><polygon points="5.68434189e-14,0 5,0 5,1 5.68434189e-14,1 5.68434189e-14,0" stroke="none" fill="#D2D2D2"></polygon></g></g><g transform=""><g clip-path="url(#i1)"><polygon points="5.68434189e-14,0 5,0 5,1 5.68434189e-14,1 5.68434189e-14,0" stroke="none" fill="#D2D2D2"></polygon></g></g></g><g transform="translate(605.0 0.0) rotate(90.0)"><g clip-path="url(#i1)"><polygon points="0,0 5,0 5,1 0,1 0,0" stroke="none" fill="#D2D2D2"></polygon></g></g></svg>