<?xml version="1.0" encoding="UTF-8"?>
<svg width="605px" height="28px" viewBox="0 0 605 28" version="1.1" xmlns="http://www.w3.org/2000/svg" xmlns:xlink="http://www.w3.org/1999/xlink">
    <title></title>
    <g id="Charts" stroke="none" stroke-width="1" fill="none" fill-rule="evenodd">
        <g id="Charts-/-Axis-/-X-axis">
            <g id="Tick-1---x" transform="translate(-5.000000, 1.000000)">
                <text id="0" font-family="RedHatText-Regular, Red Hat Text" font-size="14" font-weight="normal" line-spacing="21" fill="#151515">
                    <tspan x="0" y="20">0 </tspan>
                </text>
                <rect id="tick-mark" fill="#D2D2D2" transform="translate(5.500000, 2.500000) rotate(90.000000) translate(-5.500000, -2.500000) " x="3" y="2" width="5" height="1"></rect>
            </g>
            <g id="Tick-2---x" transform="translate(139.000000, 1.000000)">
                <text id="25" font-family="RedHatText-Regular, Red Hat Text" font-size="14" font-weight="normal" line-spacing="21" fill="#151515">
                    <tspan x="0" y="20">25</tspan>
                </text>
                <polygon id="tick-mark" fill="#D2D2D2" transform="translate(7.000000, 2.500000) rotate(90.000000) translate(-7.000000, -2.500000) " points="4.5 2 9.5 2 9.5 3 4.5 3"></polygon>
            </g>
            <g id="Tick-3---x" transform="translate(290.000000, 1.000000)">
                <text id="50" font-family="RedHatText-Regular, Red Hat Text" font-size="14" font-weight="normal" line-spacing="21" fill="#151515">
                    <tspan x="0" y="20">50</tspan>
                </text>
                <polygon id="tick-mark" fill="#D2D2D2" transform="translate(8.000000, 2.500000) rotate(90.000000) translate(-8.000000, -2.500000) " points="5.5 2 10.5 2 10.5 3 5.5 3"></polygon>
            </g>
            <g id="Tick-4--x" transform="translate(443.000000, 1.000000)">
                <text id="75" font-family="RedHatText-Regular, Red Hat Text" font-size="14" font-weight="normal" line-spacing="21" fill="#151515">
                    <tspan x="0" y="20">75</tspan>
                </text>
                <polygon id="tick-mark" fill="#D2D2D2" transform="translate(8.000000, 2.500000) rotate(90.000000) translate(-8.000000, -2.500000) " points="5.5 2 10.5 2 10.5 3 5.5 3"></polygon>
            </g>
            <g id="Tick-5--x" transform="translate(594.000000, 1.000000)">
                <text id="100" font-family="RedHatText-Regular, Red Hat Text" font-size="14" font-weight="normal" line-spacing="21" fill="#151515">
                    <tspan x="0" y="20">100</tspan>
                </text>
                <polygon id="tick-mark" fill="#D2D2D2" transform="translate(10.500000, 2.500000) rotate(90.000000) translate(-10.500000, -2.500000) " points="8 2 13 2 13 3 8 3"></polygon>
            </g>
            <polygon id="x-axis-stroke" fill="#D2D2D2" points="0 0 605 0 605 1 0 1"></polygon>
        </g>
    </g>
</svg>