<?xml version="1.0" encoding="UTF-8"?>
<svg width="39px" height="315px" viewBox="0 0 39 315" version="1.1" xmlns="http://www.w3.org/2000/svg" xmlns:xlink="http://www.w3.org/1999/xlink">
    <title></title>
    <g id="Charts" stroke="none" stroke-width="1" fill="none" fill-rule="evenodd">
        <g id="Charts-/-Axis-/-Y-axis">
            <g id="y-axis-values" fill="#151515" font-family="RedHatText-Regular, Red Hat Text" font-size="14" font-weight="normal" line-spacing="21">
                <text id="0">
                    <tspan x="15" y="308">0</tspan>
                </text>
                <text id="10">
                    <tspan x="9" y="279">10</tspan>
                </text>
                <text id="20">
                    <tspan x="6" y="249.2">20</tspan>
                </text>
                <text id="30">
                    <tspan x="6" y="219.8">30</tspan>
                </text>
                <text id="40">
                    <tspan x="6" y="190.4">40</tspan>
                </text>
                <text id="50">
                    <tspan x="6" y="161">50</tspan>
                </text>
                <text id="60">
                    <tspan x="6" y="131.6">60</tspan>
                </text>
                <text id="70">
                    <tspan x="7" y="102.2">70</tspan>
                </text>
                <text id="80">
                    <tspan x="6" y="72.8">80</tspan>
                </text>
                <text id="90">
                    <tspan x="6" y="43.4">90</tspan>
                </text>
                <text id="100">
                    <tspan x="0" y="14">100</tspan>
                </text>
            </g>
            <g id="Tick-marks" transform="translate(34.000000, 7.799999)" fill="#D2D2D2">
                <rect id="tick-mark" x="0" y="264" width="5" height="1"></rect>
                <polygon id="tick-mark" points="0 235 5 235 5 236 0 236"></polygon>
                <polygon id="tick-mark" points="0 205 5 205 5 206 0 206"></polygon>
                <polygon id="tick-mark" points="0 176 5 176 5 177 0 177"></polygon>
                <polygon id="tick-mark" points="0 147 5 147 5 148 0 148"></polygon>
                <polygon id="tick-mark" points="0 117 5 117 5 118 0 118"></polygon>
                <polygon id="tick-mark" points="0 88 5 88 5 89 0 89"></polygon>
                <polygon id="tick-mark" points="0 59 5 59 5 60 0 60"></polygon>
                <polygon id="tick-mark" points="0 29 5 29 5 30 0 30"></polygon>
                <polygon id="tick-mark" points="0 0 5 0 5 1 0 1"></polygon>
            </g>
            <rect id="y-axis-stroke" fill="#D2D2D2" x="38" y="8.79999924" width="1" height="300"></rect>
        </g>
    </g>
</svg>