<?xml version="1.0" encoding="UTF-8"?><svg version="1.1" width="39px" height="315px" viewBox="0 0 39.0 315.0" xmlns="http://www.w3.org/2000/svg" xmlns:xlink="http://www.w3.org/1999/xlink"><defs><clipPath id="i0"><path d="M5,0 L5,1 L0,1 L0,0 L5,0 Z"></path></clipPath><clipPath id="i1"><path d="M1,0 L1,300 L0,300 L0,0 L1,0 Z"></path></clipPath></defs><g transform="translate(15.0 294.0000000000001)"><text transform="translate(0.0 14.0)" font-family="RedHatText-Regular, Red Hat Text" font-size="14.0" font-weight="normal" fill="#141514" text-anchor="left" line-spacing="21.0">0</text></g><g transform="translate(9.0 265.0000000000001)"><text transform="translate(0.0 14.0)" font-family="RedHatText-Regular, Red Hat Text" font-size="14.0" font-weight="normal" fill="#141514" text-anchor="left" line-spacing="21.0">10</text></g><g transform="translate(6.0 235.2)"><text transform="translate(0.0 14.0)" font-family="RedHatText-Regular, Red Hat Text" font-size="14.0" font-weight="normal" fill="#141514" text-anchor="left" line-spacing="21.0">20</text></g><g transform="translate(6.0 205.8)"><text transform="translate(0.0 14.0)" font-family="RedHatText-Regular, Red Hat Text" font-size="14.0" font-weight="normal" fill="#141514" text-anchor="left" line-spacing="21.0">30</text></g><g transform="translate(6.0 176.4)"><text transform="translate(0.0 14.0)" font-family="RedHatText-Regular, Red Hat Text" font-size="14.0" font-weight="normal" fill="#141514" text-anchor="left" line-spacing="21.0">40</text></g><g transform="translate(6.0 147.0000000000001)"><text transform="translate(0.0 14.0)" font-family="RedHatText-Regular, Red Hat Text" font-size="14.0" font-weight="normal" fill="#141514" text-anchor="left" line-spacing="21.0">50</text></g><g transform="translate(6.0 117.6)"><text transform="translate(0.0 14.0)" font-family="RedHatText-Regular, Red Hat Text" font-size="14.0" font-weight="normal" fill="#141514" text-anchor="left" line-spacing="21.0">60</text></g><g transform="translate(7.0 88.20000000000002)"><text transform="translate(0.0 14.0)" font-family="RedHatText-Regular, Red Hat Text" font-size="14.0" font-weight="normal" fill="#141514" text-anchor="left" line-spacing="21.0">70</text></g><g transform="translate(6.0 58.80000000000001)"><text transform="translate(0.0 14.0)" font-family="RedHatText-Regular, Red Hat Text" font-size="14.0" font-weight="normal" fill="#141514" text-anchor="left" line-spacing="21.0">80</text></g><g transform="translate(6.0 29.400000000000006)"><text transform="translate(0.0 14.0)" font-family="RedHatText-Regular, Red Hat Text" font-size="14.0" font-weight="normal" fill="#141514" text-anchor="left" line-spacing="21.0">90</text></g><text transform="translate(0.0 14.0)" font-family="RedHatText-Regular, Red Hat Text" font-size="14.0" font-weight="normal" fill="#141514" text-anchor="left" line-spacing="21.0">100</text><g transform="translate(34.0 7.79999923706049)"><g transform="translate(0.0 264.0)"><g clip-path="url(#i0)"><polygon points="0,0 5,0 5,1 0,1 0,0" stroke="none" fill="#D2D2D2"></polygon></g></g><g transform="translate(0.0 235.0)"><g clip-path="url(#i0)"><polygon points="0,0 5,0 5,1 0,1 0,0" stroke="none" fill="#D2D2D2"></polygon></g></g><g transform="translate(0.0 205.0)"><g clip-path="url(#i0)"><polygon points="0,0 5,0 5,1 0,1 0,0" stroke="none" fill="#D2D2D2"></polygon></g></g><g transform="translate(0.0 176.0)"><g clip-path="url(#i0)"><polygon points="0,0 5,0 5,1 0,1 0,0" stroke="none" fill="#D2D2D2"></polygon></g></g><g transform="translate(0.0 147.0)"><g clip-path="url(#i0)"><polygon points="0,0 5,0 5,1 0,1 0,0" stroke="none" fill="#D2D2D2"></polygon></g></g><g transform="translate(0.0 117.0)"><g clip-path="url(#i0)"><polygon points="0,0 5,0 5,1 0,1 0,0" stroke="none" fill="#D2D2D2"></polygon></g></g><g transform="translate(0.0 88.0)"><g clip-path="url(#i0)"><polygon points="0,0 5,0 5,1 0,1 0,0" stroke="none" fill="#D2D2D2"></polygon></g></g><g transform="translate(0.0 59.0)"><g clip-path="url(#i0)"><polygon points="0,0 5,0 5,1 0,1 0,0" stroke="none" fill="#D2D2D2"></polygon></g></g><g transform="translate(0.0 29.0)"><g clip-path="url(#i0)"><polygon points="0,0 5,0 5,1 0,1 0,0" stroke="none" fill="#D2D2D2"></polygon></g></g><g clip-path="url(#i0)"><polygon points="0,0 5,0 5,1 0,1 0,0" stroke="none" fill="#D2D2D2"></polygon></g></g><g transform="translate(38.0 8.79999923706049)"><g clip-path="url(#i1)"><polygon points="0,0 1,0 1,300 0,300 0,0" stroke="none" fill="#D2D2D2"></polygon></g></g></svg>