<?xml version="1.0" encoding="UTF-8"?><svg version="1.1" width="84px" height="38px" viewBox="0 0 84.0 38.0" xmlns="http://www.w3.org/2000/svg" xmlns:xlink="http://www.w3.org/1999/xlink"><defs><clipPath id="i0"><path d="M82,0 L82,23 L0,23 L0,0 L82,0 Z"></path></clipPath><clipPath id="i1"><path d="M84,0 L84,36 L0,36 L0,0 L84,0 Z"></path></clipPath><clipPath id="i2"><path d="M11.209998,0.00112078134 L11.2851141,0.0144615207 L13.1913595,0.567591305 C13.3913713,0.623835068 13.5038588,0.833215672 13.447615,1.03319688 L9.1820002,15.726918 C9.12264366,15.9269297 8.91637584,16.0425605 8.71639462,15.9831734 L6.81014917,15.4300437 C6.61013744,15.3737999 6.49764991,15.1644193 6.55389368,14.9644381 L10.8195085,0.270717013 C10.8757523,0.0707052831 11.0851329,-0.0417822417 11.2851141,0.0144615207 Z M4.62265438,3.5050843 C4.77576071,3.36131633 5.01327845,3.37071573 5.15390312,3.52070926 L6.51327488,4.9706875 C6.66012511,5.12382434 6.64764345,5.36756765 6.48825052,5.50819232 L3.65701948,7.99881748 L6.48825052,10.4894426 C6.64764345,10.6300673 6.65701233,10.8738106 6.51327488,11.0269475 L5.15390312,12.4769257 C5.01327845,12.6300625 4.77576071,12.6363186 4.62265438,12.4925507 L0.11952181,8.27069794 C-0.0398406033,8.12381719 -0.0398406033,7.870705 0.11952181,7.72382424 Z M14.8476056,3.51756596 C14.9913736,3.36757242 15.2288608,3.36131633 15.3788543,3.501941 L19.8819869,7.72693703 C20.0413493,7.87381778 20.0413493,8.12692997 19.8819869,8.27381073 L15.3788543,12.495694 C15.225748,12.6363186 14.9882303,12.6300625 14.8476056,12.4769257 L13.4882338,11.0269475 C13.3413836,10.8738106 13.3538653,10.6300673 13.5132582,10.4894426 L16.3444892,7.99881748 L13.5132582,5.50507953 C13.3538653,5.36445487 13.3444964,5.12071155 13.4882338,4.96757471 Z"></path></clipPath></defs><g transform="translate(1.0 15.0)"><g clip-path="url(#i0)"><polygon points="0,0 82,0 82,23 0,23 0,0" stroke="none" fill="#FFFFFF"></polygon></g></g><g clip-path="url(#i1)"><polygon points="0,0 84,0 84,36 0,36 0,0" stroke="none" fill="#FFFFFF"></polygon></g><path d="M0.5,0.5 L0.5,35.5" stroke="#D2D2D2" stroke-width="1" fill="none" stroke-linecap="square" stroke-miterlimit="10"></path><g transform="translate(83.0 0.0)"><path d="M0.5,0.5 L0.5,35.5" stroke="#D2D2D2" stroke-width="1" fill="none" stroke-linecap="square" stroke-miterlimit="10"></path></g><path d="M83.5,0.5 L0.5,0.5" stroke="#D2D2D2" stroke-width="1" fill="none" stroke-linecap="square" stroke-miterlimit="10"></path><g transform="translate(37.0 9.0)"><text transform="translate(0.0 13.0)" font-family="LiberationMono, Liberation Mono" font-size="16.0" font-weight="normal" fill="#696E73" text-anchor="left">HTML</text></g><g transform="translate(8.0 6.0623268698061565)"><g transform="translate(2.0 4.0000000000000036)"><g clip-path="url(#i2)"><polygon points="0,1.73472348e-18 20.0015087,1.73472348e-18 20.0015087,15.9987615 0,15.9987615 0,1.73472348e-18" stroke="none" fill="#696E73"></polygon></g></g></g></svg>