<?xml version="1.0" encoding="UTF-8"?>
<svg width="100px" height="56px" viewBox="0 0 100 56" version="1.1" xmlns="http://www.w3.org/2000/svg" xmlns:xlink="http://www.w3.org/1999/xlink">
    <title></title>
    <g id="Drill-down-menu" stroke="none" stroke-width="1" fill="none" fill-rule="evenodd">
        <g id="Drill-down-menu-/-3.-'Back'-header-/-1.-Default">
            <rect id="Background" fill="#FFFFFF" x="0" y="8" width="100" height="40"></rect>
            <text id="âœï¸-Label" font-family="RedHatText-Regular, Red Hat Text" font-size="16" font-weight="normal" line-spacing="24" fill="#151515">
                <tspan x="48" y="32">Back</tspan>
            </text>
            <g id="Icons/1.-Size-md-(16px)/Framework/angle-right" transform="translate(25.000000, 23.000000)" fill="#151515">
                <path d="M5.5324209,9.78279833 L6.23865701,9.07341892 C6.53241852,8.78280072 6.53241852,8.30779574 6.23865701,8.01406476 L3.22618251,5.00155973 L6.23554423,1.98594192 C6.52927522,1.69532372 6.52927522,1.22031875 6.23554423,0.926557239 L5.5292776,0.22032113 C5.2386594,-0.0734403767 4.76365443,-0.0734403767 4.46992344,0.22032113 L0.21993357,4.470311 C-0.0738279369,4.7640725 -0.0738279369,5.23904696 0.223046355,5.53280846 L4.47303622,9.78279833 C4.76365443,10.0765598 5.2386594,10.0765598 5.5324209,9.78279833 Z" id="angle-left"></path>
            </g>
            <g id="Divider-/-Horizontal" transform="translate(0.000000, 55.000000)" fill="#FFFFFF" stroke="#D2D2D2">
                <rect id="Divider" x="0.5" y="0.5" width="99" height="1"></rect>
            </g>
            <g id="ðŸ“-Padding" fill-opacity="0.9">
                <g id="Spacer-/-Horizontal-/-4.-pf-global--spacer--lg-(24px)" transform="translate(0.000000, 8.000000)" fill="#3F9C35" stroke="#418A38">
                    <rect id="Rectangle-Copy-2" x="0.5" y="0.5" width="15" height="39"></rect>
                </g>
                <g id="Spacer-/-Vertical-/-2.-pf-global--spacer--sm-(8px)" transform="translate(16.000000, 8.000000)" fill="#92D400" stroke="#7FB300">
                    <rect id="Rectangle-Copy" x="0.5" y="0.5" width="67" height="7"></rect>
                </g>
                <g id="Spacer-/-Vertical-/-2.-pf-global--spacer--sm-(8px)-Copy" fill="#92D400" stroke="#7FB300">
                    <rect id="Rectangle-Copy" x="0.5" y="0.5" width="99" height="7"></rect>
                </g>
                <g id="Spacer-/-Vertical-/-2.-pf-global--spacer--sm-(8px)-Copy-2" transform="translate(0.000000, 48.000000)" fill="#92D400" stroke="#7FB300">
                    <rect id="Rectangle-Copy" x="0.5" y="0.5" width="99" height="7"></rect>
                </g>
                <g id="Spacer-/-Horizontal-/-2.-pf-global--spacer--sm-(8px)" transform="translate(40.000000, 16.000000)" fill="#92D400" stroke="#7FB300">
                    <rect id="Rectangle-Copy" x="0.5" y="0.5" width="7" height="23"></rect>
                </g>
                <g id="Spacer-/-Vertical-/-2.-pf-global--spacer--sm-(8px)" transform="translate(16.000000, 40.000000)" fill="#92D400" stroke="#7FB300">
                    <rect id="Rectangle-Copy" x="0.5" y="0.5" width="67" height="7"></rect>
                </g>
                <g id="Spacer-/-Horizontal-/-2.-pf-global--spacer--sm-(8px)" transform="translate(84.000000, 8.000000)" fill="#3F9C35" stroke="#418A38">
                    <rect id="Rectangle-Copy-2" x="0.5" y="0.5" width="15" height="39"></rect>
                </g>
            </g>
        </g>
    </g>
</svg>