<?xml version="1.0" encoding="UTF-8"?>
<svg width="249px" height="40px" viewBox="0 0 249 40" version="1.1" xmlns="http://www.w3.org/2000/svg" xmlns:xlink="http://www.w3.org/1999/xlink">
    <title></title>
    <g id="Wizard" stroke="none" stroke-width="1" fill="none" fill-rule="evenodd">
        <g id="Wizard-/-Step-/--With-Arrow-/-Current--">
            <text id="âœï¸-Step-Name" font-family="RedHatText-Regular, Red Hat Text" font-size="16" font-weight="normal" line-spacing="24" fill="#0066CC">
                <tspan x="56" y="32">Step</tspan>
            </text>
            <circle id="Oval" fill="#0066CC" cx="36" cy="28" r="12"></circle>
            <g id="ðŸ“-Padding" fill-opacity="0.9">
                <g id="Spacer-/-Horizontal-/-2.-pf-global--spacer--sm-(8px)" transform="translate(48.000000, 16.000000)" fill="#92D400" stroke="#7FB300">
                    <rect id="Rectangle-Copy" x="0.5" y="0.5" width="7" height="23"></rect>
                </g>
                <g id="Spacer-/-Vertical-/-3.-pf-global--spacer--md-(16px)" fill="#3F9C35" stroke="#418A38">
                    <rect id="Rectangle-Copy-2" x="0.5" y="0.5" width="248" height="15"></rect>
                </g>
                <g id="Spacer-/-Horizontal-/-4.-pf-global--spacer--lg-(24px)" transform="translate(0.000000, 16.000000)" fill="#007A87" stroke="#09707B">
                    <rect id="Rectangle-Copy-3" x="0.5" y="0.5" width="23" height="23"></rect>
                </g>
                <g id="Spacer-/-Horizontal-/-4.-pf-global--spacer--lg-(24px)" transform="translate(225.000000, 16.000000)" fill="#007A87" stroke="#09707B">
                    <rect id="Rectangle-Copy-3" x="0.5" y="0.5" width="23" height="23"></rect>
                </g>
            </g>
            <g id="Icons/3.-Size-lg-(24px)/Framework/angle-right" transform="translate(201.000000, 16.000000)" fill="#6A6E73">
                <path d="M13.2898286,16.3538633 L19.6648134,9.97887855 C20.1054556,9.54295124 20.1054556,8.83044379 19.6648134,8.3898473 L18.6054592,7.33044736 C18.1695319,6.88985088 17.4570244,6.88985088 17.0163822,7.33044736 L12.4976704,11.8492049 L7.97891288,7.33044736 C7.54298558,6.88985088 6.83047812,6.88985088 6.38983586,7.33044736 L5.33048169,8.3898473 C4.88983944,8.82577461 4.88983944,9.53828206 5.33048169,9.97887855 L11.7054665,16.3538633 C12.1461088,16.7945056 12.8585704,16.7945056 13.2898286,16.3538633 Z" id="angle-down"></path>
            </g>
            <text id="ðŸ’¯-Step-Number" font-family="RedHatText-Regular, Red Hat Text" font-size="16" font-weight="normal" line-spacing="24" fill="#FFFFFF">
                <tspan x="33.544" y="32">1</tspan>
            </text>
        </g>
    </g>
</svg>