<?xml version="1.0" encoding="UTF-8"?>
<svg width="249px" height="40px" viewBox="0 0 249 40" version="1.1" xmlns="http://www.w3.org/2000/svg" xmlns:xlink="http://www.w3.org/1999/xlink">
    <title></title>
    <g id="Wizard" stroke="none" stroke-width="1" fill="none" fill-rule="evenodd">
        <g id="Wizard-/-Step-/--With-Arrow-/-Default-">
            <text id="âœï¸-Step-Name" font-family="RedHatText-Regular, Red Hat Text" font-size="16" font-weight="normal" line-spacing="24" fill="#151515">
                <tspan x="56" y="32">Step</tspan>
            </text>
            <circle id="Oval" fill="#EDEDED" cx="36" cy="28" r="12"></circle>
            <text id="ðŸ’¯-Step-Number" font-family="RedHatText-Regular, Red Hat Text" font-size="16" font-weight="normal" line-spacing="24" fill="#151515">
                <tspan x="33.544" y="32">1</tspan>
            </text>
            <g id="ðŸ“-Padding" fill-opacity="0.9">
                <g id="Spacer-/-Horizontal-/-2.-pf-global--spacer--sm-(8px)" transform="translate(48.000000, 16.000000)" fill="#92D400" stroke="#7FB300">
                    <rect id="Rectangle-Copy" x="0.5" y="0.5" width="7" height="23"></rect>
                </g>
                <g id="Spacer-/-Vertical-/-3.-pf-global--spacer--md-(16px)" fill="#3F9C35" stroke="#418A38">
                    <rect id="Rectangle-Copy-2" x="0.5" y="0.5" width="248" height="15"></rect>
                </g>
                <g id="Spacer-/-Horizontal-/-4.-pf-global--spacer--lg-(24px)" transform="translate(0.000000, 16.000000)" fill="#007A87" stroke="#09707B">
                    <rect id="Rectangle-Copy-3" x="0.5" y="0.5" width="23" height="23"></rect>
                </g>
                <g id="Spacer-/-Horizontal-/-4.-pf-global--spacer--lg-(24px)" transform="translate(225.000000, 16.000000)" fill="#007A87" stroke="#09707B">
                    <rect id="Rectangle-Copy-3" x="0.5" y="0.5" width="23" height="23"></rect>
                </g>
            </g>
            <g id="Icons/3.-Size-lg-(24px)/Framework/angle-right" transform="translate(201.000000, 16.000000)" fill="#6A6E73">
                <path d="M9.97887855,18.6741975 L16.3538633,12.2992127 C16.7945056,11.8585704 16.7945056,11.1461088 16.3491942,10.7054665 L9.97420937,4.33048169 C9.53828206,3.88983944 8.82577461,3.88983944 8.38513235,4.33048169 L7.33044736,5.39921999 C6.88985088,5.8351473 6.88985088,6.54765475 7.33044736,6.98829701 L11.8492049,11.5070088 L7.33044736,16.0257663 C6.88985088,16.4616936 6.88985088,17.1742011 7.33044736,17.6148433 L8.3898473,18.6741975 C8.82577461,19.1148398 9.53828206,19.1148398 9.97887855,18.6741975 Z" id="angle-right"></path>
            </g>
        </g>
    </g>
</svg>