<?xml version="1.0" encoding="UTF-8"?><svg version="1.1" width="18px" height="36px" viewBox="0 0 18.0 36.0" xmlns="http://www.w3.org/2000/svg" xmlns:xlink="http://www.w3.org/1999/xlink"><defs><filter id="i0" x="-60%" y="-37.5%" filterUnits="userSpaceOnUse" width="180%" height="150%"><feGaussianBlur stdDeviation="3" in="SourceAlpha" result="i1"></feGaussianBlur><feOffset dx="0" dy="0" in="i1" result="i2"></feOffset><feColorMatrix values="0 0 0 0.0 0 0 0 0 0.0 0 0 0 0 0.0 0 0 0 0 0.08 0" type="matrix" in="i2"></feColorMatrix></filter><filter id="i3" x="-112%" y="-70.5882353%" filterUnits="userSpaceOnUse" width="260%" height="217.647059%"><feGaussianBlur stdDeviation="8" in="SourceAlpha" result="i4"></feGaussianBlur><feOffset dx="0" dy="8" in="i4" result="i5"></feOffset><feColorMatrix values="0 0 0 0.0 0 0 0 0 0.0 0 0 0 0 0.0 0 0 0 0 0.16 0" type="matrix" in="i5"></feColorMatrix></filter><clipPath id="i6"><path d="M0,0 L18,18 L0,36 L0,0 Z"></path></clipPath><filter id="i7" x="-60%" y="-37.5%" filterUnits="userSpaceOnUse" width="180%" height="150%"><feGaussianBlur stdDeviation="3" in="SourceAlpha" result="i8"></feGaussianBlur><feOffset dx="0" dy="0" in="i8" result="i9"></feOffset><feColorMatrix values="0 0 0 0.0 0 0 0 0 0.0 0 0 0 0 0.0 0 0 0 0 0.08 0" type="matrix" in="i9"></feColorMatrix></filter><filter id="i10" x="-112%" y="-70.5882353%" filterUnits="userSpaceOnUse" width="260%" height="217.647059%"><feGaussianBlur stdDeviation="8" in="SourceAlpha" result="i11"></feGaussianBlur><feOffset dx="0" dy="8" in="i11" result="i12"></feOffset><feColorMatrix values="0 0 0 0.0 0 0 0 0 0.0 0 0 0 0 0.0 0 0 0 0 0.16 0" type="matrix" in="i12"></feColorMatrix></filter></defs><g transform="translate(24.0 0.0)"><g transform="translate(18.0 0.0) scale(-1.0 1.0)"><polygon points="18,18 0,0 0,36 18,18 18,18" stroke="none" fill="#000000" filter="url(#i0)"></polygon><polygon points="18,18 0,0 0,36 18,18 18,18" stroke="none" fill="#000000" filter="url(#i3)"></polygon><g clip-path="url(#i6)"><polygon points="0,0 18,0 18,36 0,36 0,0" stroke="none" fill="#FFFFFF"></polygon></g></g></g><polygon points="18,18 0,0 0,36 18,18 18,18" stroke="none" fill="#000000" filter="url(#i7)"></polygon><polygon points="18,18 0,0 0,36 18,18 18,18" stroke="none" fill="#000000" filter="url(#i10)"></polygon><g clip-path="url(#i6)"><polygon points="0,0 18,0 18,36 0,36 0,0" stroke="none" fill="#FFFFFF"></polygon></g></svg>