<?xml version="1.0" encoding="UTF-8"?>
<svg width="193px" height="93px" viewBox="0 0 193 93" version="1.1" xmlns="http://www.w3.org/2000/svg" xmlns:xlink="http://www.w3.org/1999/xlink">
    <title></title>
    <defs>
        <rect id="path-1" x="0" y="0" width="193" height="93"></rect>
        <filter x="-14.5%" y="-21.5%" width="129.0%" height="160.2%" filterUnits="objectBoundingBox" id="filter-2">
            <feOffset dx="0" dy="0" in="SourceAlpha" result="shadowOffsetOuter1"></feOffset>
            <feGaussianBlur stdDeviation="3" in="shadowOffsetOuter1" result="shadowBlurOuter1"></feGaussianBlur>
            <feColorMatrix values="0 0 0 0 0   0 0 0 0 0   0 0 0 0 0  0 0 0 0.08 0" type="matrix" in="shadowBlurOuter1" result="shadowMatrixOuter1"></feColorMatrix>
            <feOffset dx="0" dy="8" in="SourceAlpha" result="shadowOffsetOuter2"></feOffset>
            <feGaussianBlur stdDeviation="8" in="shadowOffsetOuter2" result="shadowBlurOuter2"></feGaussianBlur>
            <feColorMatrix values="0 0 0 0 0   0 0 0 0 0   0 0 0 0 0  0 0 0 0.16 0" type="matrix" in="shadowBlurOuter2" result="shadowMatrixOuter2"></feColorMatrix>
            <feMerge>
                <feMergeNode in="shadowMatrixOuter1"></feMergeNode>
                <feMergeNode in="shadowMatrixOuter2"></feMergeNode>
            </feMerge>
        </filter>
    </defs>
    <g id="Alerts" stroke="none" stroke-width="1" fill="none" fill-rule="evenodd">
        <g id="Alerts-/-Toast-/-1.-Default-/-5.-Expandable-/-1.-Closed">
            <g id="Background">
                <use fill="black" fill-opacity="1" filter="url(#filter-2)" xlink:href="#path-1"></use>
                <use fill="#FFFFFF" fill-rule="evenodd" xlink:href="#path-1"></use>
            </g>
            <rect id="Status-Color" fill="#009596" x="0" y="0" width="193" height="3"></rect>
            <g id="times" transform="translate(153.000000, 16.000000)" fill="#6A6E73">
                <path d="M9.37280471,17.7121708 L12.5,14.584981 L15.6271843,17.7121708 C16.0109114,18.0959284 16.6334075,18.0959284 17.0171651,17.7121708 L17.7121708,17.0171651 C18.0959284,16.6334075 18.0959284,16.0112471 17.7121708,15.6271843 L14.584981,12.5 L17.7121708,9.37280471 C18.0959284,8.98907759 18.0959284,8.36688669 17.7121708,7.98282389 L17.0171651,7.28781822 C16.6334075,6.90406059 16.0112471,6.90406059 15.6271843,7.28781822 L12.5,10.415008 L9.37280471,7.28781822 C8.98907759,6.90406059 8.36688669,6.90406059 7.98282389,7.28781822 L7.28781822,7.98282389 C6.90406059,8.36658152 6.90406059,8.9887419 7.28781822,9.37280471 L10.415008,12.5 L7.28781822,15.6271843 C6.90406059,16.0109114 6.90406059,16.6331023 7.28781822,17.0171651 L7.98282389,17.7121708 C8.36658152,18.0959284 8.98907759,18.0959284 9.37280471,17.7121708 Z"></path>
            </g>
            <text id="Action-2" font-family="RedHatText-Regular, Red Hat Text" font-size="14" font-weight="normal" line-spacing="21" fill="#0066CC">
                <tspan x="131" y="70">Action</tspan>
            </text>
            <text id="Action" font-family="RedHatText-Regular, Red Hat Text" font-size="14" font-weight="normal" line-spacing="21" fill="#0066CC">
                <tspan x="66" y="70">Action</tspan>
            </text>
            <text id="Title" font-family="RedHatText-Medium, Red Hat Text" font-size="14" font-weight="400" line-spacing="21" fill="#003737">
                <tspan x="66" y="32">Title</tspan>
            </text>
            <g id="Icons/1.-Size-md/Framework/angle-right" transform="translate(7.000000, 16.000000)" fill="#6A6E73">
                <path d="M10.985919,16.7827983 L15.2359089,12.5328085 C15.5296704,12.239047 15.5296704,11.7640725 15.2327961,11.470311 L10.9828062,7.22032113 C10.692188,6.92655962 10.2171831,6.92655962 9.92342157,7.22032113 L9.22029824,7.93281333 C8.92656725,8.22343153 8.92656725,8.6984365 9.22029824,8.99219801 L12.2328033,12.0046725 L9.22029824,15.0171775 C8.92656725,15.3077957 8.92656725,15.7828007 9.22029824,16.0765622 L9.92656487,16.7827983 C10.2171831,17.0765598 10.692188,17.0765598 10.985919,16.7827983 Z" id="angle-right"></path>
            </g>
            <g id="ðŸ“-Padding" fill-opacity="0.9">
                <g id="Spacer-/-Horizontal-/-3.-pf-global--spacer--md-(16px)" fill="#3F9C35" stroke="#418A38" transform="translate(8.000000, 46.500000) scale(-1, 1) translate(-8.000000, -46.500000) ">
                    <rect id="Rectangle-Copy-2" x="0.5" y="0.5" width="15" height="92"></rect>
                </g>
                <g id="Group" transform="translate(22.500000, 0.000000)" fill="#3F9C35" stroke="#418A38">
                    <g id="Spacer-/-Horizontal-/-3.-pf-global--spacer--md-(16px)" transform="translate(8.000000, 46.500000) scale(-1, 1) translate(-8.000000, -46.500000) ">
                        <rect id="Rectangle-Copy-2" x="0.5" y="0.5" width="15" height="92"></rect>
                    </g>
                </g>
                <g id="Group" transform="translate(177.000000, 0.000000)" fill="#3F9C35" stroke="#418A38">
                    <g id="Spacer-/-Horizontal-/-3.-pf-global--spacer--md-(16px)" transform="translate(8.000000, 46.500000) scale(-1, 1) translate(-8.000000, -46.500000) ">
                        <rect id="Rectangle-Copy-2" x="0.5" y="0.5" width="15" height="92"></rect>
                    </g>
                </g>
                <g id="Group" transform="translate(62.000000, 16.000000)" fill="#EC7A08" stroke="#C77000">
                    <g id="Spacer-/-Horizontal-/-3.-pf-global--spacer--md-(16px)" transform="translate(2.000000, 30.500000) scale(-1, 1) translate(-2.000000, -30.500000) ">
                        <rect id="Rectangle" x="0.5" y="0.5" width="3" height="60"></rect>
                    </g>
                </g>
                <g id="Group" transform="translate(107.000000, 56.000000)" fill="#007A87" stroke="#09707B">
                    <g id="Spacer-/-Horizontal-/-3.-pf-global--spacer--md-(16px)-Copy-2" transform="translate(12.000000, 10.500000) scale(-1, 1) translate(-12.000000, -10.500000) ">
                        <rect id="Rectangle-Copy-3" x="0.5" y="0.5" width="23" height="20"></rect>
                    </g>
                </g>
                <g id="Spacer-/-Vertical-/-3.-pf-global--spacer--md-(16px)" transform="translate(38.000000, 0.000000)" fill="#3F9C35" stroke="#418A38">
                    <rect id="Rectangle-Copy-2" x="0.5" y="0.5" width="138" height="15"></rect>
                </g>
                <g id="Spacer-/-Vertical-/-3.-pf-global--spacer--md-(16px)" transform="translate(38.000000, 40.000000)" fill="#3F9C35" stroke="#418A38">
                    <rect id="Rectangle-Copy-2" x="0.5" y="0.5" width="138" height="15"></rect>
                </g>
                <g id="Spacer-/-Vertical-/-3.-pf-global--spacer--md-(16px)" transform="translate(38.000000, 77.000000)" fill="#3F9C35" stroke="#418A38">
                    <rect id="Rectangle-Copy-2" x="0.5" y="0.5" width="138" height="15"></rect>
                </g>
            </g>
            <g id="Default-icon" transform="translate(41.000000, 16.000000)" fill="#009596">
                <path d="M17.9968777,16.999969 C18.5943494,16.999969 18.9968753,16.5124824 19,15.9999714 C19.0015445,15.7640406 18.9184148,15.5227997 18.7309152,15.3215367 C18.1271874,14.6727956 16.9974904,13.6968458 16.9974904,10.4999845 C16.9974904,8.07185919 15.2950103,6.12810772 12.999392,5.65124118 L12.999392,5 C12.999392,4.44781387 12.5518833,4 12,4 C11.4481262,4 11.0006175,4.44781387 11.0006175,5 L11.0006175,5.65124118 C8.70499918,6.12810772 7.0025191,8.07185919 7.0025191,10.4999845 C7.0025191,13.6968458 5.87282209,14.6727956 5.26909428,15.3215367 C5.08159473,15.5231049 4.99846504,15.7640406 5,15.9999714 C5.00346992,16.5124824 5.40566012,16.999969 6.00313184,16.999969 L17.9968777,16.999969 Z M12.0000047,19.9999666 C13.1037619,19.9999666 13.9990539,19.1046393 13.9990539,17.9999666 L10.0009556,17.9999666 C10.0009556,19.1046393 10.8962476,19.9999666 12.0000047,19.9999666 Z" id="bell"></path>
            </g>
        </g>
    </g>
</svg>