<svg xmlns="http://www.w3.org/2000/svg" width="114" height="58" viewBox="0 0 114 58" style="background:#fff">
  <g fill="none" fill-rule="evenodd">
    <rect width="114" height="58" fill="#FFF"/>
    <rect width="114" height="58" fill="#FFF"/>
    <text fill="#151515" font-family="RedHatText-Regular, Red Hat Text" font-size="16">
      <tspan x="16" y="24">Option</tspan>
    </text>
    <path fill="#6A6E73" d="M6.92424458,16.7728081 L13.8242373,9.87279255 C14.0585431,9.63846388 14.0585431,9.25856672 13.8242373,9.02426094 L12.9757286,8.17572933 C12.7414228,7.94142356 12.3615027,7.94142356 12.127197,8.17572933 L6.49999022,13.8029361 L3.87277633,11.1757222 C3.63847056,10.9413935 3.2585505,10.9413935 3.02424473,11.1757222 L2.17573601,12.0242538 C1.94143023,12.2585825 1.94143023,12.6384796 2.17573601,12.8727854 L6.07573587,16.7727853 C6.31001875,17.0071139 6.68991592,17.0071139 6.92424458,16.7728081 Z" transform="translate(82 8)"/>
    <g fill-opacity=".9">
      <rect width="81" height="7" x=".5" y=".5" fill="#92D400" stroke="#7FB300" transform="translate(16)"/>
      <rect width="81" height="7" x=".5" y=".5" fill="#92D400" stroke="#7FB300" transform="translate(16 50)"/>
      <rect width="15" height="57" x=".5" y=".5" fill="#3F9C35" stroke="#418A38"/>
      <rect width="15" height="23" x=".5" y=".5" fill="#3F9C35" stroke="#418A38" transform="translate(66 8)"/>
      <rect width="15" height="57" x=".5" y=".5" fill="#3F9C35" stroke="#418A38" transform="translate(98)"/>
    </g>
    <text fill="#6A6E73" font-family="RedHatText-Regular, Red Hat Text" font-size="12">
      <tspan x="16" y="44">Description</tspan>
    </text>
  </g>
</svg>
