<svg xmlns="http://www.w3.org/2000/svg" width="48" height="48" viewBox="0 0 48 48">
  <path fill="#151515" fill-rule="evenodd" d="M19.5380394,47.2498873 L19.5380394,31.1860257 L12.8935239,31.1860257 L12.8935239,23.6249437 L19.5380394,23.6249437 L19.5380394,17.862182 C19.5380394,11.3072736 23.4403738,7.68653181 29.4172654,7.68653181 C32.2796433,7.68653181 35.27293,8.19698287 35.27293,8.19698287 L35.27293,14.6305613 L31.9748765,14.6305613 C28.7254373,14.6305613 27.711848,16.6471313 27.711848,18.7154057 L27.711848,23.6249437 L34.9660002,23.6249437 L33.8058467,31.1860257 L27.711848,31.1860257 L27.711848,47.2498873 L42.1873994,47.2498873 C44.9819026,47.2498873 47.2498873,44.9819026 47.2498873,42.1873994 L47.2498873,5.06248793 C47.2498873,2.2679847 44.9819026,0 42.1873994,0 L5.06248793,0 C2.2679847,0 0,2.2679847 0,5.06248793 L0,42.1873994 C0,44.9819026 2.2679847,47.2498873 5.06248793,47.2498873 L19.5380394,47.2498873 Z"/>
</svg>
