<svg xmlns="http://www.w3.org/2000/svg" width="52" height="53" viewBox="0 0 52 53">
  <path fill="#151515" fill-rule="evenodd" d="M26.1561876,52.3123753 C41.2486886,52.3123753 51.4686273,41.6916769 51.4686273,26.7678843 C51.4686273,25.0276541 51.2999189,23.7409178 51.0572589,22.4015503 L26.1561876,22.4015503 L26.1561876,31.3979926 L41.0061316,31.3979926 C40.3944349,35.2475928 36.5132148,42.6725133 26.1561876,42.6725133 C17.2335939,42.6725133 9.94565881,35.2792128 9.94565881,26.1561876 C9.94565881,11.4538377 27.2636069,4.70385384 36.5764547,13.6897905 L43.6955783,6.84494675 C39.128813,2.58397821 33.2014627,0 26.1561876,0 C11.685889,0 0,11.685889 0,26.1561876 C0,40.6264862 11.685889,52.3123753 26.1561876,52.3123753 Z"/>
</svg>
