<?xml version="1.0" encoding="UTF-8"?>
<svg width="48px" height="76px" viewBox="0 0 48 76" version="1.1" xmlns="http://www.w3.org/2000/svg" xmlns:xlink="http://www.w3.org/1999/xlink">
    <title></title>
    <g id="Masthead" stroke="none" stroke-width="1" fill="none" fill-rule="evenodd">
        <g id="Masthead-/-4.-Icon-/-Help-/-2.-Menu-Open">
            <rect id="Icon-bg" fill="#3C3F42" x="0" y="20" width="48" height="36" rx="3"></rect>
            <g id="Button-/-6.-Icon-button-/-Default" transform="translate(0.000000, 20.000000)">
                <g id="ðŸ–¼-Icon" transform="translate(8.000000, 6.000000)">
                    <g id="ðŸ–¼-Icon" transform="translate(4.000000, 0.000000)" fill="#151515">
                        <path d="M11.7499815,19.499963 C16.0298785,19.499963 19.499963,16.0311298 19.499963,11.7499815 C19.499963,7.47133572 16.0298785,4 11.7499815,4 C7.4700845,4 4,7.47133572 4,11.7499815 C4,16.0311298 7.4700845,19.499963 11.7499815,19.499963 Z M12.6249794,13.4999774 L10.8749836,13.4999774 C10.6678918,13.4999774 10.4999845,13.33207 10.4999845,13.1249782 L10.4999845,12.9999785 C10.4999845,11.7169005 11.47273,11.2039928 12.2078662,10.7918844 C12.8382052,10.4384917 13.2245263,10.1981359 13.2245263,9.73014991 C13.2245263,9.1110718 12.4348859,8.70021462 11.7964902,8.70021462 C10.9467913,8.70021462 10.5640102,9.11079714 10.0057535,9.8188643 C9.87938051,9.97917276 9.64763058,10.0085306 9.48497227,9.88517884 L8.40065479,9.06297621 C8.24226894,8.94288983 8.20531224,8.72011204 8.31581613,8.55492078 C9.16874988,7.27989941 10.2549289,6.56249389 11.9579583,6.56249389 C13.7193982,6.56249389 15.5995207,7.93742958 15.5995207,9.74998629 C15.5995207,12.1568409 12.9999785,12.1938892 12.9999785,13.0833218 L12.9999785,13.1249782 C12.9999785,13.33207 12.8320712,13.4999774 12.6249794,13.4999774 Z M11.7499815,17.1874686 C10.9573198,17.1874686 10.3124849,16.5426032 10.3124849,15.749972 C10.3124849,14.9573103 10.9573198,14.3124754 11.7499815,14.3124754 C12.5426432,14.3124754 13.1874781,14.9573103 13.1874781,15.749972 C13.1874781,16.5426032 12.5426432,17.1874686 11.7499815,17.1874686 Z" id="question-circle"></path>
                    </g>
                    <rect id="ðŸŽ¨-Color" fill="#FFFFFF" x="0" y="0" width="32" height="24"></rect>
                </g>
                <g id="ðŸ“-Padding" fill-opacity="0.9">
                    <g id="Spacer-/-Horizontal-/-2.-pf-global--spacer--sm-(8px)" fill="#92D400" stroke="#7FB300">
                        <rect id="Rectangle-Copy" x="0.5" y="0.5" width="7" height="35"></rect>
                    </g>
                    <g id="Spacer-/-Horizontal-/-2.-pf-global--spacer--sm-(8px)" transform="translate(32.000000, 0.000000)" fill="#92D400" stroke="#7FB300">
                        <rect id="Rectangle-Copy" x="0.5" y="0.5" width="7" height="35"></rect>
                    </g>
                    <g id="Spacer-/-Vertical-/-8.-pf-global--spacer--form-element-(6px)" transform="translate(8.000000, 0.000000)" fill="#F3D53C" stroke="#CBB534">
                        <rect id="Rectangle" x="0.5" y="0.5" width="23" height="5"></rect>
                    </g>
                    <g id="Spacer-/-Vertical-/-8.-pf-global--spacer--form-element-(6px)" transform="translate(8.000000, 30.000000)" fill="#F3D53C" stroke="#CBB534">
                        <rect id="Rectangle" x="0.5" y="0.5" width="23" height="5"></rect>
                    </g>
                </g>
            </g>
        </g>
    </g>
</svg>