<?xml version="1.0" encoding="UTF-8"?>
<svg width="48px" height="76px" viewBox="0 0 48 76" version="1.1" xmlns="http://www.w3.org/2000/svg" xmlns:xlink="http://www.w3.org/1999/xlink">
    <title></title>
    <g id="Masthead" stroke="none" stroke-width="1" fill="none" fill-rule="evenodd">
        <g id="Masthead-/-4.-Icon-/-Help-/-2.-Menu-Open">
            <rect id="Icon-bg" fill="#3C3F42" x="0" y="20" width="48" height="36" rx="3"></rect>
            <g id="Button-/-6.-Icon-button-/-Default" transform="translate(0.000000, 20.000000)">
                <g id="ðŸ–¼-Icon" transform="translate(16.000000, 10.000000)">
                    <g fill="#151515" id="question-circle">
                        <path d="M7.74998152,15.499963 C12.0298785,15.499963 15.499963,12.0311298 15.499963,7.74998152 C15.499963,3.47133572 12.0298785,0 7.74998152,0 C3.4700845,0 0,3.47133572 0,7.74998152 C0,12.0311298 3.4700845,15.499963 7.74998152,15.499963 Z M8.62497944,9.49997735 L6.87498361,9.49997735 C6.66789182,9.49997735 6.4999845,9.33207004 6.4999845,9.12497824 L6.4999845,8.99997854 C6.4999845,7.71690055 7.47272999,7.20399283 8.20786617,6.79188444 C8.83820525,6.43849173 9.22452635,6.19813586 9.22452635,5.73014991 C9.22452635,5.1110718 8.4348859,4.70021462 7.7964902,4.70021462 C6.9467913,4.70021462 6.56401023,5.11079714 6.0057535,5.8188643 C5.87938051,5.97917276 5.64763058,6.0085306 5.48497227,5.88517884 L4.40065479,5.06297621 C4.24226894,4.94288983 4.20531224,4.72011204 4.31581613,4.55492078 C5.16874988,3.27989941 6.25492893,2.56249389 7.95795832,2.56249389 C9.71939821,2.56249389 11.5995207,3.93742958 11.5995207,5.74998629 C11.5995207,8.1568409 8.99997854,8.19388916 8.99997854,9.08332185 L8.99997854,9.12497824 C8.99997854,9.33207004 8.83207123,9.49997735 8.62497944,9.49997735 Z M7.74998152,13.1874686 C6.95731984,13.1874686 6.31248495,12.5426032 6.31248495,11.749972 C6.31248495,10.9573103 6.95731984,10.3124754 7.74998152,10.3124754 C8.54264321,10.3124754 9.1874781,10.9573103 9.1874781,11.749972 C9.1874781,12.5426032 8.54264321,13.1874686 7.74998152,13.1874686 Z"></path>
                    </g>
                    <rect id="ðŸŽ¨-Color" fill="#FFFFFF" x="-8" y="-4" width="32" height="24"></rect>
                </g>
                <g id="ðŸ“-Padding" fill-opacity="0.9">
                    <g id="Spacer-/-Horizontal-/-3.-pf-global--spacer--md-(16px)" fill="#92D400" stroke="#7FB300">
                        <rect id="Rectangle-Copy" x="0.5" y="0.5" width="7" height="35"></rect>
                    </g>
                    <g id="Spacer-/-Horizontal-/-3.-pf-global--spacer--md-(16px)" transform="translate(32.000000, 0.000000)" fill="#92D400" stroke="#7FB300">
                        <rect id="Rectangle-Copy" x="0.5" y="0.5" width="7" height="35"></rect>
                    </g>
                    <g id="Spacer-/-Vertical-/-8.-pf-global--spacer--form-element-(6px)" transform="translate(8.000000, 0.000000)" fill="#F3D53C" stroke="#CBB534">
                        <rect id="Rectangle" x="0.5" y="0.5" width="23" height="5"></rect>
                    </g>
                    <g id="Spacer-/-Vertical-/-8.-pf-global--spacer--form-element-(6px)" transform="translate(8.000000, 30.000000)" fill="#F3D53C" stroke="#CBB534">
                        <rect id="Rectangle" x="0.5" y="0.5" width="23" height="5"></rect>
                    </g>
                </g>
            </g>
        </g>
    </g>
</svg>