<?xml version="1.0" encoding="UTF-8"?>
<svg width="48px" height="76px" viewBox="0 0 48 76" version="1.1" xmlns="http://www.w3.org/2000/svg" xmlns:xlink="http://www.w3.org/1999/xlink">
    <title></title>
    <g id="Masthead" stroke="none" stroke-width="1" fill="none" fill-rule="evenodd">
        <g id="Masthead-/-4.-Icon-/-Help-/-2.-Menu-Open">
            <rect id="Icon-bg" fill="#3C3F42" x="0" y="20" width="48" height="36" rx="3"></rect>
            <g id="Button-/-6.-Icon-button-/-Default" transform="translate(0.000000, 20.000000)">
                <g id="ðŸ–¼-Icon" transform="translate(8.000000, 6.000000)">
                    <g id="ðŸ–¼-Icon" transform="translate(4.000000, 0.000000)" fill="#151515">
                        <path d="M11.7499815,19.499963 C16.0298785,19.499963 19.499963,16.0311298 19.499963,11.7499815 C19.499963,7.47133572 16.0298785,4 11.7499815,4 C7.4700845,4 4,7.47133572 4,11.7499815 C4,16.0311298 7.4700845,19.499963 11.7499815,19.499963 Z M11.7499815,17.9999666 C8.29585768,17.9999666 5.49999642,15.205265 5.49999642,11.7499815 C5.49999642,8.29701734 8.29597975,5.49999642 11.7499815,5.49999642 C15.2028236,5.49999642 17.9999666,8.29594923 17.9999666,11.7499815 C17.9999666,15.2040443 15.205265,17.9999666 11.7499815,17.9999666 Z M12.4632061,13.4999774 C12.6702979,13.4999774 12.8382052,13.33207 12.8382052,13.1249782 L12.8382052,12.9269502 C12.8382052,12.152599 15.1013529,12.120342 15.1013529,10.0249795 C15.1013529,8.44698036 13.464516,7.24999225 11.9310419,7.24999225 C10.466873,7.24999225 9.52641505,7.85909114 8.78807452,8.94325604 C8.67537337,9.1088135 8.71110937,9.33360545 8.87071593,9.45460736 L9.74019017,10.1139381 C9.90287899,10.2372593 10.1342322,10.2075352 10.2610019,10.0475625 C10.7312767,9.45405804 11.0658096,9.11101076 11.7904477,9.11101076 C12.3462325,9.11101076 13.0337004,9.46873696 13.0337004,10.0076761 C13.0337004,10.4151153 12.697367,10.6243739 12.1485707,10.9320208 C11.5086186,11.2908151 10.6617273,11.7373473 10.6617273,12.8543795 L10.6617273,13.1249782 C10.6617273,13.33207 10.8296346,13.4999774 11.0367264,13.4999774 L12.4632061,13.4999774 Z M11.7499815,16.56247 C12.4737042,16.56247 13.0624784,15.9736958 13.0624784,15.2499732 C13.0624784,14.5262505 12.4737042,13.9374763 11.7499815,13.9374763 C11.0262589,13.9374763 10.4374847,14.5262505 10.4374847,15.2499732 C10.4374847,15.9736958 11.0262589,16.56247 11.7499815,16.56247 Z" id="question-circle"></path>
                    </g>
                    <rect id="ðŸŽ¨-Color" fill="#FFFFFF" x="0" y="0" width="32" height="24"></rect>
                </g>
                <g id="ðŸ“-Padding" fill-opacity="0.9">
                    <g id="Spacer-/-Horizontal-/-2.-pf-global--spacer--sm-(8px)" fill="#92D400" stroke="#7FB300">
                        <rect id="Rectangle-Copy" x="0.5" y="0.5" width="7" height="35"></rect>
                    </g>
                    <g id="Spacer-/-Horizontal-/-2.-pf-global--spacer--sm-(8px)" transform="translate(32.000000, 0.000000)" fill="#92D400" stroke="#7FB300">
                        <rect id="Rectangle-Copy" x="0.5" y="0.5" width="7" height="35"></rect>
                    </g>
                    <g id="Spacer-/-Vertical-/-8.-pf-global--spacer--form-element-(6px)" transform="translate(8.000000, 0.000000)" fill="#F3D53C" stroke="#CBB534">
                        <rect id="Rectangle" x="0.5" y="0.5" width="23" height="5"></rect>
                    </g>
                    <g id="Spacer-/-Vertical-/-8.-pf-global--spacer--form-element-(6px)" transform="translate(8.000000, 30.000000)" fill="#F3D53C" stroke="#CBB534">
                        <rect id="Rectangle" x="0.5" y="0.5" width="23" height="5"></rect>
                    </g>
                </g>
            </g>
        </g>
    </g>
</svg>