<?xml version="1.0" encoding="UTF-8"?><svg version="1.1" width="24px" height="24px" viewBox="0 0 24.0 24.0" xmlns="http://www.w3.org/2000/svg" xmlns:xlink="http://www.w3.org/1999/xlink"><defs><clipPath id="i0"><path d="M7.74998152,0 C12.0312213,0 15.499963,3.46874173 15.499963,7.74998152 C15.499963,12.0312213 12.0312213,15.499963 7.74998152,15.499963 C3.46874173,15.499963 0,12.0312213 0,7.74998152 C0,3.46874173 3.46874173,0 7.74998152,0 Z M8.28123026,3.11562368 C7.98746875,2.82186217 7.5124943,2.82186217 7.22184557,3.11562368 L3.07186157,7.26249489 C2.77813058,7.55622588 2.77813058,8.03123085 3.07186157,8.32184906 L3.41249797,8.66559824 C3.71248505,8.96247253 4.19685889,8.95621644 4.48747709,8.65311658 L6.74998391,6.2937472 L6.74998391,11.9999714 C6.74998391,12.4155893 7.08436421,12.7499696 7.49998212,12.7499696 L7.99998093,12.7499696 C8.41559883,12.7499696 8.74997914,12.4155893 8.74997914,11.9999714 L8.74997914,6.2937472 L11.012486,8.65311658 C11.3031042,8.95621644 11.787478,8.96247253 12.0843523,8.66559824 L12.4249582,8.32184906 C12.7187197,8.02811807 12.7187197,7.5531131 12.4249582,7.26249489 Z"></path></clipPath></defs><g transform="translate(4.0 4.0)"><g clip-path="url(#i0)"><polygon points="0,0 15.499963,0 15.499963,15.499963 0,15.499963 0,0" stroke="none" fill="#151515"></polygon></g></g></svg>