<?xml version="1.0" encoding="UTF-8"?><svg version="1.1" width="24px" height="24px" viewBox="0 0 24.0 24.0" xmlns="http://www.w3.org/2000/svg" xmlns:xlink="http://www.w3.org/1999/xlink"><defs><clipPath id="i0"><path d="M7.74998152,0 C12.0312213,0 15.499963,3.46874173 15.499963,7.74998152 C15.499963,12.0312213 12.0312213,15.499963 7.74998152,15.499963 C3.46874173,15.499963 0,12.0312213 0,7.74998152 C0,3.46874173 3.46874173,0 7.74998152,0 Z M7.99998093,2.74999344 L7.49998212,2.74999344 C7.08436421,2.74999344 6.74998391,3.08437375 6.74998391,3.49999166 L6.74998391,9.20621584 L4.48747709,6.84684647 C4.19685889,6.54374661 3.71248505,6.53749052 3.41561075,6.83436481 L3.07500488,7.17811399 C2.78124337,7.47184498 2.78124337,7.94684995 3.07500488,8.23746815 L7.21873279,12.3843394 C7.5124943,12.6781009 7.98746875,12.6781009 8.27811747,12.3843394 L12.4249582,8.23746815 C12.7187197,7.94373716 12.7187197,7.46873219 12.4249582,7.17811399 L12.0843523,6.83436481 C11.787478,6.53749052 11.3031042,6.54374661 11.012486,6.84684647 L8.74997914,9.20621584 L8.74997914,3.49999166 C8.74997914,3.08437375 8.41559883,2.74999344 7.99998093,2.74999344 Z"></path></clipPath></defs><g transform="translate(4.0 4.0)"><g clip-path="url(#i0)"><polygon points="0,0 15.499963,0 15.499963,15.499963 0,15.499963 0,0" stroke="none" fill="#151515"></polygon></g></g></svg>