<?xml version="1.0" encoding="UTF-8"?><svg version="1.1" width="24px" height="24px" viewBox="0 0 24.0 24.0" xmlns="http://www.w3.org/2000/svg" xmlns:xlink="http://www.w3.org/1999/xlink"><defs><clipPath id="i0"><path d="M9,14 L9,14.016875 C8.9959375,14.571875 8.79802083,15.0402083 8.40625,15.421875 C8.01041667,15.8072917 7.54166667,16 7,16 C6.45833333,16 5.98958333,15.8072917 5.59375,15.421875 C5.19791667,15.0364583 5,14.5625 5,14 L9,14 Z M7,0 C7.27083333,0 7.50520833,0.0989583333 7.703125,0.296875 C7.90104167,0.494791667 8,0.729166667 8,1 L8,1.65625 L8.03484375,1.66328125 C9.18578125,1.89671875 10.1325,2.456875 10.875,3.34375 C11.625,4.23958333 12,5.29166667 12,6.5 C12,7.8125 12.1875,8.88541667 12.5625,9.71875 C12.7916667,10.1979167 13.1458333,10.6875 13.625,11.1875 C13.6527137,11.2317052 13.6840728,11.2735174 13.71875,11.3125 C13.90625,11.5208333 14,11.7552083 14,12.015625 C14,12.2760417 13.90625,12.5052083 13.71875,12.703125 C13.53125,12.9010417 13.2916667,13 13,13 L0.9890625,13 C0.702395833,12.9975 0.466458333,12.8985417 0.28125,12.703125 C0.09375,12.5052083 0,12.2760417 0,12.015625 C0,11.7552083 0.09375,11.5208333 0.28125,11.3125 L0.375,11.1875 L0.3915625,11.1703125 C0.862395833,10.67625 1.21104167,10.1923958 1.4375,9.71875 C1.8125,8.88541667 2,7.8125 2,6.5 C2,5.29166667 2.375,4.23958333 3.125,3.34375 C3.875,2.44791667 4.83333333,1.88541667 6,1.65625 L6,0.98921875 C6.00260417,0.72296875 6.1015625,0.4921875 6.296875,0.296875 C6.49479167,0.0989583333 6.72916667,0 7,0 Z M7,10 C6.44771525,10 6,10.4477152 6,11 C6,11.5522848 6.44771525,12 7,12 C7.55228475,12 8,11.5522848 8,11 C8,10.4477152 7.55228475,10 7,10 Z M7.421875,3 L6.578125,3 C6.25883538,3 6,3.25883537 6,3.578125 L6,8.421875 C6,8.74116462 6.25883538,9 6.578125,9 L7.421875,9 C7.74116462,9 8,8.74116462 8,8.421875 L8,3.578125 C8,3.25883537 7.74116462,3 7.421875,3 Z"></path></clipPath></defs><g transform="translate(5.0 4.0)"><g clip-path="url(#i0)"><polygon points="0,0 14,0 14,16 0,16 0,0" stroke="none" fill="#FFFFFF"></polygon></g></g></svg>