<?xml version="1.0" encoding="UTF-8"?><svg version="1.1" width="24px" height="24px" viewBox="0 0 24.0 24.0" xmlns="http://www.w3.org/2000/svg" xmlns:xlink="http://www.w3.org/1999/xlink"><defs><clipPath id="i0"><path d="M9.99997616,0 C10.8152818,0 11.5324737,0.39623929 11.9887104,1 L16.4999607,1 C16.7762051,1 16.9999595,1.22375197 16.9999595,1.5 L16.9999595,2.5 C16.9999595,2.7762385 16.7762051,3 16.4999607,3 L12.4496468,3 C12.2862256,3.80528878 11.7346522,4.46748813 10.9999738,4.78905108 L10.9999738,13.9999666 L16.4999607,13.9999666 C16.7762051,13.9999666 16.9999595,14.223721 16.9999595,14.4999654 L16.9999595,15.499963 C16.9999595,15.7762075 16.7762051,15.9999619 16.4999607,15.9999619 L3.49999285,15.9999619 C3.2237472,15.9999619 2.99999285,15.7762075 2.99999285,15.499963 L2.99999285,14.4999654 C2.99999285,14.223721 3.2237472,13.9999666 3.49999285,13.9999666 L8.99997854,13.9999666 L8.99997854,4.78905108 C8.26499494,4.46748813 7.71372673,3.8049836 7.55030548,3 L3.49999285,3 C3.2237472,3 2.99999285,2.7762385 2.99999285,2.5 L2.99999285,1.5 C2.99999285,1.22375197 3.2237472,1 3.49999285,1 L8.01124189,1 C8.46747859,0.39623929 9.18467048,0 9.99997616,0 Z M2.65810523,4.82780831 C3.21062467,3.72279996 4.78999712,3.72499722 5.34154,4.82780831 C5.39062546,4.92597813 5.43880463,5.0222861 5.48609421,5.11677049 L5.75929069,5.66210031 C6.32866747,6.79756282 6.75336117,7.63778405 7.07012864,8.26688753 L7.20879945,8.5425587 C7.84329577,9.80547582 7.96885609,10.0822051 7.99351998,10.306606 L7.99731703,10.3525934 L7.99903782,10.3989254 L7.99937058,10.499975 L7.99406204,10.6371336 C7.88012166,11.9539686 6.13542544,12.999969 4,12.999969 C1.7909198,12.999969 0,11.8805869 0,10.499975 L0.000676638806,10.4025946 C0.00176981489,10.3222336 0.0082218771,10.2525122 0.0408398549,10.1462966 L0.0637170077,10.0778109 C0.208641871,9.67290531 0.683831265,8.76791965 2.23702741,5.66900194 Z M14.6580766,4.82780831 C15.2105961,3.72279996 16.7899685,3.72499722 17.3415114,4.82780831 C17.3905969,4.92597813 17.438776,5.0222861 17.4860656,5.11677049 L17.7592621,5.66210031 C18.3286388,6.79756282 18.7533321,7.63778405 19.0700978,8.26688753 L19.2087676,8.5425587 C19.8432587,9.80547582 19.9688054,10.0822051 19.9934338,10.306606 L19.9972232,10.3525934 C19.9985317,10.3755201 19.9990614,10.398576 19.999264,10.422795 L19.9999523,10.499975 C19.9999523,11.8805869 18.2090325,12.999969 15.9999714,12.999969 C13.7908912,12.999969 11.9999714,11.8805869 11.9999714,10.499975 L12.0006998,10.399056 C12.0040019,10.1884615 12.0465026,10.0466931 12.5069343,9.11581291 L12.7403201,8.64734079 C13.091476,7.94599501 13.6090983,6.92290617 14.3720007,5.39953879 Z M3.99999046,5.49998689 L1.74999583,9.99997616 L6.2499851,9.99997616 L3.99999046,5.49998689 Z M15.9999619,5.49998689 L13.7499672,9.99997616 L18.2499565,9.99997616 L15.9999619,5.49998689 Z"></path></clipPath></defs><g transform="translate(2.0 4.0)"><g clip-path="url(#i0)"><polygon points="0,0 19.9999523,0 19.9999523,15.9999619 0,15.9999619 0,0" stroke="none" fill="#151515"></polygon></g></g></svg>