<?xml version="1.0" encoding="UTF-8"?><svg version="1.1" width="24px" height="24px" viewBox="0 0 24.0 24.0" xmlns="http://www.w3.org/2000/svg" xmlns:xlink="http://www.w3.org/1999/xlink"><defs><clipPath id="i0"><path d="M7.74998152,0 C12.0301837,0 15.499963,3.46980984 15.499963,7.74998152 C15.499963,12.0301532 12.0301532,15.499963 7.74998152,15.499963 C3.46980984,15.499963 0,12.0301837 0,7.74998152 C0,3.46977933 3.46980984,0 7.74998152,0 Z M3.03795662,4.45219886 C1.49660898,6.64457644 1.63888159,9.77060659 3.68410377,11.8158593 C5.72822731,13.8599523 8.85395228,14.0043306 11.0477947,12.4619759 Z M11.8158593,3.68410377 C9.77173574,1.64004126 6.64604128,1.49563242 4.45216834,3.03798714 L12.4620064,11.0477642 C14.0033541,8.8553866 13.8610815,5.72935646 11.8158593,3.68410377 Z"></path></clipPath></defs><g transform="translate(4.0 4.0)"><g clip-path="url(#i0)"><polygon points="0,0 15.499963,0 15.499963,15.499963 0,15.499963 0,0" stroke="none" fill="#151515"></polygon></g></g></svg>