<?xml version="1.0" encoding="UTF-8"?>
<svg width="24px" height="24px" viewBox="0 0 24 24" version="1.1" xmlns="http://www.w3.org/2000/svg" xmlns:xlink="http://www.w3.org/1999/xlink">
    <title></title>
    <g id="Icons" stroke="none" stroke-width="1" fill="none" fill-rule="evenodd">
        <g id="Icons/1.-Size-md/Status/ban" fill="#151515">
            <path d="M11.7499815,19.499963 C16.0301532,19.499963 19.499963,16.0301532 19.499963,11.7499815 C19.499963,7.46980984 16.0301837,4 11.7499815,4 C7.46980984,4 4,7.46977933 4,11.7499815 C4,16.0301837 7.46980984,19.499963 11.7499815,19.499963 Z M16.4620064,15.0477642 L8.45216834,7.03798714 C10.6460413,5.49563242 13.7717357,5.64004126 15.8158593,7.68410377 C17.8610815,9.72935646 18.0033541,12.8553866 16.4620064,15.0477642 Z M7.68410377,15.8158593 C5.63888159,13.7706066 5.49660898,10.6445764 7.03795662,8.45219886 L15.0477947,16.4619759 C12.8539523,18.0043306 9.72822731,17.8599523 7.68410377,15.8158593 Z" id="ban"></path>
        </g>
    </g>
</svg>