<?xml version="1.0" encoding="UTF-8"?><svg version="1.1" width="24px" height="24px" viewBox="0 0 24.0 24.0" xmlns="http://www.w3.org/2000/svg" xmlns:xlink="http://www.w3.org/1999/xlink"><defs><clipPath id="i0"><path d="M8.99905394,13.9999666 C8.99905394,15.1046393 8.10376188,15.9999666 7.00000475,15.9999666 C5.89624761,15.9999666 5.00095556,15.1046393 5.00095556,13.9999666 Z M7,0 C7.55188332,0 7.99939201,0.447813874 7.99939201,1 L7.99939201,1.65124118 C10.2950103,2.12810772 11.9974904,4.07185919 11.9974904,6.4999845 C11.9974904,9.69684578 13.1271874,10.6727956 13.7309152,11.3215367 C13.9184148,11.5227997 14.0015445,11.7640406 14,11.9999714 C13.9968753,12.5124824 13.5943494,12.999969 12.9968777,12.999969 L1.00313184,12.999969 C0.405660119,12.999969 0.00346991584,12.5124824 -2.66453526e-14,11.9999714 C-0.00153495504,11.7640406 0.0815947296,11.5231049 0.269094283,11.3215367 C0.872822091,10.6727956 2.0025191,9.69684578 2.0025191,6.4999845 C2.0025191,4.07185919 3.70499918,2.12810772 6.00061748,1.65124118 L6.00061748,1 C6.00061748,0.447813874 6.44812618,0 7,0 Z"></path></clipPath></defs><g transform="translate(5.0 4.0)"><g clip-path="url(#i0)"><polygon points="-2.08566939e-05,0 14.0000211,0 14.0000211,15.9999666 -2.08566939e-05,15.9999666 -2.08566939e-05,0" stroke="none" fill="#73C5C5"></polygon></g></g></svg>