<?xml version="1.0" encoding="UTF-8"?><svg version="1.1" width="24px" height="24px" viewBox="0 0 24.0 24.0" xmlns="http://www.w3.org/2000/svg" xmlns:xlink="http://www.w3.org/1999/xlink"><defs><clipPath id="i0"><path d="M1.29286485,3.29286935 C1.68342788,2.90233683 2.31654405,2.90233683 2.70710708,3.29286935 L4.4141953,4.99998808 L11.5857175,4.99998808 L13.2928057,3.29289986 C13.6833688,2.90236735 14.3164849,2.90236735 14.707048,3.29289986 C15.09755,3.68343238 15.09755,4.31657906 14.707048,4.70711158 L13.2499591,6.16420039 L13.2499591,7.99998093 L14.999955,7.99998093 C15.5615686,7.99998093 16.0150893,8.46299252 15.9995864,9.02811568 C15.9846328,9.57279212 15.5240626,9.99996996 14.9791726,9.99996996 L13.2499591,9.99996996 L13.2499591,10.49997 C13.2499591,11.1832314 13.0974021,11.8307213 12.8249724,12.410737 L14.7070785,14.2928736 C15.0975805,14.6834062 15.0975805,15.3165528 14.7070785,15.7070854 C14.3165154,16.0976179 13.6833688,16.0975874 13.2928362,15.7070854 L11.5823301,13.9965792 C10.8088944,14.6238665 9.82342313,14.99997 8.74996987,14.99997 L8.74996987,7.37498242 C8.74996987,7.16789063 8.58206256,6.99998331 8.37497077,6.99998331 L7.62497256,6.99998331 C7.41788076,6.99998331 7.24997345,7.16789063 7.24997345,7.37498242 L7.24997345,14.99997 C6.1765202,14.99997 5.19104892,14.6238665 4.41761326,13.9965792 L2.70710708,15.7070854 C2.31654405,16.0976179 1.68339737,16.0975874 1.29286485,15.7070854 C0.902362852,15.3165528 0.902362852,14.6834062 1.29286485,14.2928736 L3.17497096,12.410737 C2.90254119,11.8307213 2.74998418,11.1832314 2.74998418,10.49997 L2.74998418,9.99996996 L1.02080129,9.99996996 C0.475941749,9.99996996 0.0153410409,9.57279212 0.00038746325,9.02811568 C-0.015145947,8.46299252 0.4383747,7.99998093 0.999988351,7.99998093 L2.74998418,7.99998093 L2.74998418,6.16420039 L1.29286485,4.70708106 C0.902362852,4.31654855 0.902362852,3.68340186 1.29286485,3.29286935 Z M8.03122993,0 C9.9642309,0 11.5312132,1.56698235 11.5312132,3.5 L4.53122993,3.5 C4.53122993,1.56698235 6.09821228,0 8.03122993,0 Z"></path></clipPath></defs><g transform="translate(4.0 4.000000000000057)"><g clip-path="url(#i0)"><polygon points="-7.77156117e-15,0 15.9999723,0 15.9999723,15.9999733 -7.77156117e-15,15.9999733 -7.77156117e-15,0" stroke="none" fill="#151515"></polygon></g></g></svg>