<?xml version="1.0" encoding="UTF-8"?><svg version="1.1" width="24px" height="24px" viewBox="0 0 24.0 24.0" xmlns="http://www.w3.org/2000/svg" xmlns:xlink="http://www.w3.org/1999/xlink"><defs><clipPath id="i0"><path d="M8.86999515,0.16359978 C9.23183055,-0.0544682406 9.68405831,-0.0545298184 10.0460983,0.16339452 L18.3668191,5.17306802 C18.7109401,5.38029834 18.9215693,5.75352223 18.9215693,6.15628304 L18.9215488,19.851628 C18.9429656,20.7279848 17.9051614,21.3083157 17.1746176,20.8248879 L10.062483,16.3780368 C9.69242456,16.1466679 9.2234643,16.146791 8.85354903,16.3781599 C8.85354903,16.3781599 1.74757155,20.8240463 1.747592,20.8240052 C1.01698684,21.3055652 -0.0213287584,20.7295036 0.000333499702,19.8509711 L0.000333499702,6.15607777 C0.000333499702,5.75346067 0.210819463,5.38029834 0.554797301,5.17300645 Z"></path></clipPath></defs><g transform="translate(2.539999999999962 1.5)"><g clip-path="url(#i0)"><polygon points="1.08420217e-19,0 18.921875,0 18.921875,21 1.08420217e-19,21 1.08420217e-19,0" stroke="none" fill="#000000"></polygon></g></g></svg>