<?xml version="1.0" encoding="UTF-8"?>
<svg width="24px" height="24px" viewBox="0 0 24 24" version="1.1" xmlns="http://www.w3.org/2000/svg" xmlns:xlink="http://www.w3.org/1999/xlink">
    <title></title>
    <g id="Icons" stroke="none" stroke-width="1" fill="none" fill-rule="evenodd">
        <g id="Icons/1.-Size-md/Status/critical-risk" fill="#000000" fill-rule="nonzero">
            <path d="M20.9068191,6.67306802 L12.5860983,1.66339452 C12.2240583,1.44547018 11.7718306,1.44553176 11.4099951,1.66359978 L3.0947973,6.67300645 C2.75081946,6.88029834 2.5403335,7.25346067 2.5403335,7.65607777 L2.5403335,21.3509711 C2.51867124,22.2295036 3.55698684,22.8055652 4.287592,22.3240052 C4.28757155,22.3240463 11.393549,17.8781599 11.393549,17.8781599 C11.7634643,17.646791 12.2324246,17.6466679 12.602483,17.8780368 L19.7146176,22.3248879 C20.4451614,22.8083157 21.4829656,22.2279848 21.4615488,21.351628 C21.4615693,21.351669 21.4615693,7.65628304 21.4615693,7.65628304 C21.4615693,7.25352223 21.2509401,6.88029834 20.9068191,6.67306802" id="Fill-1"></path>
        </g>
    </g>
</svg>