<?xml version="1.0" encoding="UTF-8"?><svg version="1.1" width="24px" height="24px" viewBox="0 0 24.0 24.0" xmlns="http://www.w3.org/2000/svg" xmlns:xlink="http://www.w3.org/1999/xlink"><defs><clipPath id="i0"><path d="M7.7007141,0.749540607 C8.27780012,-0.250762184 9.72320073,-0.248931134 10.2992797,0.749540607 L17.7973697,13.7503641 C18.3741811,14.7501786 17.6501533,15.999962 16.4981174,15.999962 L1.50169323,15.999962 C0.347429627,15.999962 -0.373271779,14.748256 0.202410442,13.7503641 Z M8.99999689,11.0624738 C8.20608399,11.0624738 7.56250032,11.7060575 7.56250032,12.4999704 C7.56250032,13.2938833 8.20608399,13.9374669 8.99999689,13.9374669 C9.79390979,13.9374669 10.4374935,13.2938833 10.4374935,12.4999704 C10.4374935,11.7060575 9.79390979,11.0624738 8.99999689,11.0624738 Z M9.99035097,5.49998704 L8.00961229,5.49998704 C7.79449439,5.49998704 7.62350481,5.68062016 7.63522353,5.89543288 L7.8670345,10.1454227 C7.87786822,10.3442748 8.04229654,10.4999751 8.24145378,10.4999751 L9.75854,10.4999751 C9.95769724,10.4999751 10.1221256,10.3442748 10.1329593,10.1454227 L10.3647702,5.89543288 C10.376489,5.68062016 10.2054689,5.49998704 9.99035097,5.49998704 Z"></path></clipPath></defs><g transform="translate(3.000000000000057 4.000000000000001)"><g clip-path="url(#i0)"><polygon points="-1.77635684e-15,-4.42978987e-14 17.9999599,-4.42978987e-14 17.9999599,15.999962 -1.77635684e-15,15.999962 -1.77635684e-15,-4.42978987e-14" stroke="none" fill="#F0AB00"></polygon></g></g></svg>