<?xml version="1.0" encoding="UTF-8"?><svg version="1.1" width="24px" height="24px" viewBox="0 0 24.0 24.0" xmlns="http://www.w3.org/2000/svg" xmlns:xlink="http://www.w3.org/1999/xlink"><defs><clipPath id="i0"><path d="M7.74998152,0 C12.0252704,0 15.492059,3.46187529 15.4999765,7.73533312 C15.5078671,12.005312 12.0256061,15.4969418 7.75559674,15.4999345 C5.91139338,15.5012448 4.21739717,14.858363 2.88619307,13.7839637 C2.54003301,13.5046065 2.51415416,12.9858089 2.82869809,12.671265 L3.18080907,12.319154 C3.44982088,12.0501422 3.87932425,12.0206928 4.17738872,12.2571729 C5.15816031,13.0354303 6.39939881,13.4999678 7.74998152,13.4999678 C10.9282576,13.4999678 13.4999678,10.9277694 13.4999678,7.74998152 C13.4999678,4.57170541 10.9277694,2 7.74998152,2 C6.2245335,2 4.83906927,2.59276726 3.81035468,3.56035528 L5.39641047,5.14641107 C5.71141216,5.46141276 5.4883292,5.99998569 5.04289569,5.99998569 L0.5,5.99998569 C0.223845902,5.99998569 0,5.77613979 0,5.49998689 L0,0.957090003 C0,0.511656495 0.538572935,0.288573531 0.853574625,0.603544704 L2.39641763,2.1463877 C3.78777173,0.816739996 5.6734789,0 7.74998152,0 Z M7.99998093,3.74999106 C8.41419503,3.74999106 8.74998391,4.08577517 8.74998391,4.49998927 L8.74998391,7.76087627 L10.0218877,8.75016224 C10.3488523,9.0044341 10.4077511,9.4756549 10.1534487,9.80261945 L9.84647311,10.1973329 C9.59217073,10.5242974 9.12098045,10.5831657 8.7940159,10.3288938 L6.74998391,8.73908439 L6.74998391,4.49998927 C6.74998391,4.08577517 7.08576802,3.74999106 7.49998212,3.74999106 Z"></path></clipPath></defs><g transform="translate(4.000000000000001 3.999999999999944)"><g clip-path="url(#i0)"><polygon points="0,0 15.4999899,0 15.4999899,15.4999365 0,15.4999365 0,0" stroke="none" fill="#151515"></polygon></g></g></svg>