<?xml version="1.0" encoding="UTF-8"?>
<svg width="24px" height="24px" viewBox="0 0 24 24" version="1.1" xmlns="http://www.w3.org/2000/svg" xmlns:xlink="http://www.w3.org/1999/xlink">
    <title></title>
    <g id="Icons" stroke="none" stroke-width="1" fill="none" fill-rule="evenodd">
        <g id="Icons/1.-Size-md/Status/lock-open" fill="#151515">
            <path d="M15.4999702,20 C16.3280932,20 16.9999666,19.3281192 16.9999666,18.5 L16.9999666,12.5000105 C16.9999666,11.6718874 16.3280932,11.000014 15.4999702,11.000014 L13.9999738,11.000014 L13.9999738,8.77815654 C13.9999738,7.54064118 14.9906025,6.51253694 16.2280874,6.50002477 C17.4780844,6.48751259 18.499963,7.50313517 18.499963,8.7500194 L18.499963,11.2500134 C18.499963,11.6656313 18.8343434,12.0000117 19.2499613,12.0000117 L20.2499589,12.0000117 C20.6655768,12.0000117 20.9999571,11.6656313 20.9999571,11.2500134 L20.9999571,8.7500194 C20.9999571,6.12502566 18.8593372,3.99066185 16.2343434,4 C13.6093497,4.0093996 11.4999797,6.17190055 11.4999797,8.79689429 L11.4999797,11.000014 L4.5,11.000014 C3.6718734,11.000014 3,11.6718874 3,12.5000105 L3,18.5 C3,19.3281192 3.6718734,20 4.5,20 L15.4999702,20 Z" id="lock-open"></path>
        </g>
    </g>
</svg>