<?xml version="1.0" encoding="UTF-8"?><svg version="1.1" width="24px" height="24px" viewBox="0 0 24.0 24.0" xmlns="http://www.w3.org/2000/svg" xmlns:xlink="http://www.w3.org/1999/xlink"><defs><clipPath id="i0"><path d="M6.99998331,0 C9.61872096,0 11.749972,2.13125102 11.749972,4.74998868 L11.749972,6.99998331 L12.4999702,6.99998331 C13.3280932,6.99998331 13.9999666,7.67185671 13.9999666,8.49997973 L13.9999666,14.4999654 C13.9999666,15.3280885 13.3280932,15.9999619 12.4999702,15.9999619 L1.5,15.9999619 C0.671873398,15.9999619 0,15.3280885 0,14.4999654 L0,8.49997973 C0,7.67185671 0.671873398,6.99998331 1.5,6.99998331 L2.24999464,6.99998331 L2.24999464,4.74998868 C2.24999464,2.13125102 4.38124566,0 6.99998331,0 Z M6.99998331,2.49999404 C5.75935517,2.49999404 4.74998868,3.50936053 4.74998868,4.74998868 L4.74998868,6.99998331 L9.24997795,6.99998331 L9.24997795,4.74998868 C9.24997795,3.50936053 8.24061146,2.49999404 6.99998331,2.49999404 Z"></path></clipPath></defs><g transform="translate(5.0 4.0)"><g clip-path="url(#i0)"><polygon points="0,0 13.9999666,0 13.9999666,15.9999619 0,15.9999619 0,0" stroke="none" fill="#151515"></polygon></g></g></svg>