<?xml version="1.0" encoding="UTF-8"?><svg version="1.1" width="24px" height="24px" viewBox="0 0 24.0 24.0" xmlns="http://www.w3.org/2000/svg" xmlns:xlink="http://www.w3.org/1999/xlink"><defs><clipPath id="i0"><path d="M7.74998152,0 C12.0312213,0 15.499963,3.46874173 15.499963,7.74998152 C15.499963,12.0312213 12.0312213,15.499963 7.74998152,15.499963 C3.46874173,15.499963 0,12.0312213 0,7.74998152 C0,3.46874173 3.46874173,0 7.74998152,0 Z M6.74998868,4.74998868 L5.24998868,4.74998868 C4.97499424,4.74998868 4.74998868,4.97499424 4.74998868,5.24998868 L4.74998868,10.2499756 C4.74998868,10.5249688 4.97499424,10.7499744 5.24998868,10.7499744 L6.74998868,10.7499744 C7.02497715,10.7499744 7.24998868,10.5249688 7.24998868,10.2499756 L7.24998868,5.24998868 C7.24998868,4.97499424 7.02497715,4.74998868 6.74998868,4.74998868 Z M10.2499803,4.74998868 L8.74998033,4.74998868 C8.4749859,4.74998868 8.24998033,4.97499424 8.24998033,5.24998868 L8.24998033,10.2499756 C8.24998033,10.5249688 8.4749859,10.7499744 8.74998033,10.7499744 L10.2499803,10.7499744 C10.5249688,10.7499744 10.7499803,10.5249688 10.7499803,10.2499756 L10.7499803,5.24998868 C10.7499803,4.97499424 10.5249688,4.74998868 10.2499803,4.74998868 Z"></path></clipPath></defs><g transform="translate(4.0 4.0)"><g clip-path="url(#i0)"><polygon points="0,0 15.499963,0 15.499963,15.499963 0,15.499963 0,0" stroke="none" fill="#151515"></polygon></g></g></svg>