<?xml version="1.0" encoding="UTF-8"?><svg version="1.1" width="24px" height="24px" viewBox="0 0 24.0 24.0" xmlns="http://www.w3.org/2000/svg" xmlns:xlink="http://www.w3.org/1999/xlink"><defs><clipPath id="i0"><path d="M3.10642037,0.209861571 C3.45514104,0.513752896 3.49148241,1.04279944 3.1875911,1.39152011 C2.89921795,1.7234636 2.64651409,2.08478305 2.43363988,2.46952986 C1.19077701,4.74170494 1.49542031,7.54766287 3.19695696,9.50016401 C3.41342439,9.74831052 3.46475579,10.1001276 3.32821412,10.3997794 C3.19167243,10.6994312 2.89249488,10.8916483 2.56320086,10.8909933 C2.32168656,10.8930908 2.0914872,10.7893871 1.93256671,10.6075201 C-0.229527278,8.12263797 -0.615101918,4.55404812 0.966322804,1.66469084 C1.2366183,1.17438099 1.55787508,0.713947815 1.92476183,0.291032303 C2.22865314,-0.0576883685 2.7576997,-0.0940297383 3.10642037,0.209861571 Z M14.0582252,0.290407912 C16.6116998,3.22721277 16.6283039,7.59142923 14.0972496,10.5475786 C13.9386914,10.7350124 13.7058743,10.8434321 13.4603716,10.844164 C13.1338476,10.8435382 12.8375085,10.6530502 12.7013565,10.3562658 C12.5652046,10.0594814 12.6141089,9.71061045 12.8266155,9.4627006 C14.8186556,7.13684243 14.806702,3.70282931 12.7985179,1.39089572 C12.5995185,1.16619144 12.5361881,0.85208145 12.6325711,0.567822562 C12.728954,0.28356369 12.9702693,0.0727492041 13.2648978,0.0154181446 C13.5595263,-0.0419128993 13.8622844,0.0630316471 14.0582252,0.290407912 Z M11.8400789,2.75112986 C12.9864169,4.36236013 12.9914222,6.52152897 11.8525667,8.13805669 C11.7162618,8.32644672 11.4981672,8.43839419 11.2656399,8.43932499 C10.9992715,8.43872385 10.7554267,8.28976988 10.6332919,8.05305157 C10.5111571,7.81633325 10.5310801,7.5312883 10.684957,7.31386157 C11.4760431,6.19364491 11.4735397,4.69601269 10.6787131,3.57844694 C10.4502558,3.25774462 10.5250351,2.81256279 10.8457375,2.5841055 C11.1664398,2.3556482 11.6116216,2.43042757 11.8400789,2.75112986 Z M5.10603013,2.60127621 C5.42766361,2.82835579 5.50574553,3.27244673 5.28085939,3.59561767 C4.89529842,4.14039816 4.69705452,4.78508108 4.69705452,5.45473962 C4.69545374,6.12027392 4.90053712,6.76988641 5.28398135,7.31386157 C5.39309295,7.46865113 5.43599165,7.66055368 5.40317696,7.84707002 C5.37036227,8.03358636 5.26454225,8.19932414 5.10915208,8.30757864 C4.98856606,8.38991878 4.84618905,8.43447951 4.70017647,8.43557864 C4.46795927,8.43599418 4.25029039,8.32308572 4.11637159,8.13337377 C2.98806509,6.52638536 2.98619331,4.38506401 4.11168866,2.77610547 C4.33490817,2.4545445 4.7813472,2.37649572 5.10603013,2.60127621 Z M7.99539598,3.72986157 C8.94180664,3.73029226 9.70891651,4.49740213 9.7093472,5.44381279 C9.7093472,6.39040192 8.94198509,7.15776401 7.99539598,7.15776401 C7.04880685,7.15776401 6.28144476,6.39040192 6.28144476,5.44381279 C6.28144476,4.49722368 7.04880685,3.72986157 7.99539598,3.72986157 Z"></path></clipPath></defs><g transform="translate(4.0 7.0)"><g clip-path="url(#i0)"><polygon points="0,1.73472348e-18 15.9844928,1.73472348e-18 15.9844928,10.8916632 0,10.8916632 0,1.73472348e-18" stroke="none" fill="#151515"></polygon></g></g></svg>