<?xml version="1.0" encoding="UTF-8"?>
<svg width="24px" height="24px" viewBox="0 0 24 24" version="1.1" xmlns="http://www.w3.org/2000/svg" xmlns:xlink="http://www.w3.org/1999/xlink">
    <title></title>
    <g id="Icons" stroke="none" stroke-width="1" fill="none" fill-rule="evenodd">
        <g id="Icons/1.-Size-md/Status/pficon-not-started" fill="#151515">
            <path d="M11.9936937,4.01511024 C16.3993912,4.01511024 19.9848898,7.6016078 19.9848898,12.0073054 C19.9848898,16.415001 16.3993912,19.9995005 11.9936937,19.9995005 C7.58499902,19.9995005 4.00049951,16.415001 4.00049951,12.0073054 C4.00049951,7.6016078 7.58499902,4.01511024 11.9936937,4.01511024 Z M11.9936937,6.01216 C8.68792195,6.01216 5.99954732,8.70153366 5.99954732,12.0063063 C5.99954732,15.3140761 8.68792195,18.0004527 11.9936937,18.0004527 C15.2984663,18.0004527 17.98784,15.3130771 17.98784,12.0063063 C17.986841,8.70153366 15.2984663,6.01216 11.9936937,6.01216 Z M8.12097561,10.7590244 C8.81065803,10.7590244 9.3697561,11.3181225 9.3697561,12.0078049 C9.3697561,12.6974873 8.81065803,13.2565854 8.12097561,13.2565854 C7.43129319,13.2565854 6.87219512,12.6974873 6.87219512,12.0078049 C6.87219512,11.3181225 7.43129319,10.7590244 8.12097561,10.7590244 Z M12.0078049,10.7590244 C12.6974873,10.7590244 13.2565854,11.3181225 13.2565854,12.0078049 C13.2565854,12.6974873 12.6974873,13.2565854 12.0078049,13.2565854 C11.3181225,13.2565854 10.7590244,12.6974873 10.7590244,12.0078049 C10.7590244,11.3181225 11.3181225,10.7590244 12.0078049,10.7590244 Z M15.8790244,10.7590244 C16.5687068,10.7590244 17.1278049,11.3181225 17.1278049,12.0078049 C17.1278049,12.6974873 16.5687068,13.2565854 15.8790244,13.2565854 C15.189342,13.2565854 14.6302439,12.6974873 14.6302439,12.0078049 C14.6302439,11.3181225 15.189342,10.7590244 15.8790244,10.7590244 Z" id="not-started"></path>
        </g>
    </g>
</svg>