<?xml version="1.0" encoding="UTF-8"?><svg version="1.1" width="24px" height="24px" viewBox="0 0 24.0 24.0" xmlns="http://www.w3.org/2000/svg" xmlns:xlink="http://www.w3.org/1999/xlink"><defs><clipPath id="i0"><path d="M5.4984375,5 C5.9984375,5 6.4828125,5.0171875 6.94015625,5.0625 C7.3975,5.1078125 7.836875,5.165625 8.25703125,5.2515625 C8.63772175,5.32831716 9.01416677,5.42480141 9.38484375,5.540625 C9.720625,5.6546875 10.0128125,5.7765625 10.2610938,5.91875 C10.5017188,6.0609375 10.6892188,6.2109375 10.809375,6.365625 C10.9259375,6.514375 10.9959375,6.66625 10.9998438,6.81875 L10.9998438,9.0796875 C10.9842188,9.2171875 10.9185937,9.346875 10.8185937,9.478125 C10.6984375,9.6328125 10.5109375,9.7828125 10.2703125,9.925 C9.98809614,10.0726941 9.69380119,10.1960575 9.390625,10.29375 C9.28421875,10.3301562 9.1709375,10.3653125 9.0521875,10.3990625 L9.02671875,10.40625 L8.99859375,10.4125 L8.99859375,11.94375 C9.134375,11.90625 9.265625,11.865625 9.390625,11.8234375 C9.69358778,11.7254407 9.98775359,11.6020876 10.27,11.4546875 C10.510625,11.3125 10.698125,11.1625 10.8182813,11.0078125 C10.8815157,10.927632 10.9306537,10.8372814 10.9635937,10.740625 C10.968125,10.725 10.9957813,10.7279688 10.9992188,10.7420313 L10.9992188,14.1671875 C10.9992188,14.3359375 10.9398437,14.49375 10.8195313,14.6515625 C10.699375,14.80625 10.511875,14.95625 10.27125,15.0984375 C9.98913412,15.2461153 9.69494436,15.3694784 9.391875,15.4671875 C9.022245,15.5887201 8.64562433,15.6878583 8.2640625,15.7640625 C7.8266287,15.8480486 7.38492667,15.9080342 6.9409375,15.94375 C6.48640625,15.9828125 6.006875,16 5.5034375,16 C5.00828125,16 4.5334375,15.98125 4.07265625,15.94375 C3.62835725,15.9126133 3.18644827,15.8536434 2.74953125,15.7671875 C2.32625,15.684375 1.94203125,15.5875 1.60765625,15.4703125 C1.27546875,15.359375 0.987447917,15.2364583 0.74359375,15.1015625 C0.50140625,14.959375 0.31859375,14.809375 0.190625,14.6546875 C0.069375,14.5059375 0.00546875,14.3510938 0.00171875,14.18875 L0.00171875,10.746875 C0.00328125,10.73125 0.02984375,10.728125 0.03609375,10.74375 C0.19234375,11.1289062 0.68375,11.56 1.931875,11.9173438 L1.96984375,11.928125 L1.99796875,11.9359375 L1.99796875,10.4203125 C1.8621875,10.3828125 1.7309375,10.3421875 1.60734375,10.2984375 C1.27473958,10.1875 0.986302083,10.0645833 0.74203125,9.9296875 C0.49984375,9.7875 0.31703125,9.6375 0.1890625,9.4828125 C0.0678125,9.3340625 0.00390625,9.17921875 0,9.016875 L0,6.8375 C0,6.6796875 0.0640625,6.521875 0.1890625,6.3671875 C0.31078125,6.2125 0.49828125,6.0609375 0.74359375,5.9203125 C0.9840625,5.7796875 1.27484375,5.6515625 1.60890625,5.5421875 C1.97875387,5.42346683 2.35536184,5.32694081 2.73671875,5.253125 C3.16,5.1703125 3.60671875,5.1078125 4.06765625,5.0640625 C4.52859375,5.0203125 5.00328125,5 5.4984375,5 Z M3.628125,8.13431501 C3.60446233,8.13404928 3.58100925,8.1388465 3.559375,8.1484375 C3.5425,8.15625 3.5265625,8.16515625 3.5109375,8.17421875 L3.5015625,8.1796875 L3.490625,8.1859375 L2.678125,9.0046875 C2.65672005,9.01953378 2.63993252,9.04011205 2.6296875,9.0640625 C2.61947964,9.08934952 2.61468902,9.11649642 2.615625,9.14375 C2.61529928,9.16741267 2.6200965,9.19086575 2.6296875,9.2125 C2.63995416,9.23369664 2.65304162,9.25340667 2.66859375,9.27109375 L2.678125,9.28125 L4.4125,11.00625 L2.6421875,12.7734375 C2.62078255,12.7882838 2.60399502,12.808862 2.59375,12.8328125 C2.58354214,12.8580995 2.57875152,12.8852464 2.5796875,12.9125 C2.57936178,12.9361627 2.584159,12.9596157 2.59375,12.98125 C2.60401666,13.0024466 2.61710412,13.0221567 2.63265625,13.0398437 L2.6421875,13.05 L3.4546875,13.865625 C3.47429656,13.8860178 3.49763477,13.9024607 3.5234375,13.9140625 C3.54872452,13.9242704 3.57587142,13.929061 3.603125,13.928125 C3.62678767,13.9284507 3.65024075,13.9236535 3.671875,13.9140625 C3.69292836,13.9061066 3.71133203,13.8924121 3.725,13.8745313 L3.73125,13.865625 L5.5015625,12.10625 L7.2703125,13.859375 C7.28515878,13.88078 7.30573705,13.8975675 7.3296875,13.9078125 C7.35122952,13.9176888 7.37474762,13.9224993 7.3984375,13.921875 C7.42570061,13.9229491 7.45287631,13.9181534 7.478125,13.9078125 C7.49932164,13.8975458 7.51903167,13.8844584 7.53671875,13.8689063 L7.546875,13.859375 L8.359375,13.0515625 C8.37976784,13.0319534 8.39621067,13.0086152 8.4078125,12.9828125 C8.41807591,12.9630752 8.42292797,12.9409714 8.421875,12.91875 C8.42294914,12.8914869 8.41815344,12.8643112 8.4078125,12.8390625 C8.39985662,12.8180091 8.38616214,12.7996055 8.36828125,12.7859375 L8.359375,12.7796875 L6.590625,11.0125 L8.325,9.2921875 C8.34539284,9.27257844 8.36183567,9.24924023 8.3734375,9.2234375 C8.38331383,9.20189548 8.38812434,9.17837738 8.3875,9.1546875 C8.38857414,9.12742439 8.38377844,9.10024869 8.3734375,9.075 C8.36548162,9.05394664 8.35178714,9.03554297 8.33390625,9.021875 L8.325,9.015625 L7.521875,8.19375 C7.50001156,8.17940902 7.47701928,8.16686777 7.453125,8.15625 C7.42783798,8.14604214 7.40069108,8.14125152 7.3734375,8.1421875 C7.35009158,8.14223697 7.32689619,8.14592714 7.3046875,8.153125 C7.28344866,8.1578172 7.26450223,8.16974848 7.25109375,8.186875 L5.509375,9.9265625 L3.7671875,8.1859375 C3.75144545,8.16726272 3.73092158,8.15322006 3.7078125,8.1453125 C3.6819592,8.13764275 3.6550887,8.13395466 3.628125,8.13431501 Z M16,5.8875 L16,9.1671875 C16,9.3359375 15.940625,9.49375 15.8203125,9.6515625 C15.7,9.80625 15.5125,9.95625 15.271875,10.0984375 C14.9896499,10.2461131 14.6953566,10.3694758 14.3921875,10.4671875 C14.0224508,10.5887173 13.6457263,10.6878554 13.2640625,10.7640625 C12.8459805,10.8439876 12.4240711,10.9023978 12,10.9390625 L11.9953125,7.4390625 C12.4209478,7.40250255 12.844423,7.34409219 13.2640625,7.2640625 C13.68125,7.178125 14.0984375,7.06875 14.3921875,6.9671875 C14.6859375,6.865625 15.0234375,6.7296875 15.2703125,6.5984375 C15.5109375,6.45625 15.6984375,6.30625 15.81875,6.1515625 C15.8819844,6.07138198 15.9311225,5.98103142 15.9640625,5.884375 C15.96875,5.8671875 15.9984375,5.871875 16,5.8875 Z M10.4953125,0 C10.996875,0 11.478125,0.0171875 11.9359375,0.0625 C12.39375,0.1078125 12.8328125,0.165625 13.253125,0.2515625 C13.6339175,0.328320895 14.0104664,0.42480502 14.38125,0.540625 C14.7171875,0.6546875 15.009375,0.7765625 15.2578125,0.91875 C15.4984375,1.0609375 15.6859375,1.2109375 15.80625,1.365625 C15.9265625,1.5203125 16,1.678125 16,1.8359375 L16,4.146875 C16,4.315625 15.940625,4.4734375 15.8203125,4.63125 C15.7,4.7859375 15.5125,4.9359375 15.271875,5.078125 C14.9896499,5.22580056 14.6953566,5.34916331 14.3921875,5.446875 C14.0224508,5.56840483 13.6457263,5.66754286 13.2640625,5.74375 C12.826522,5.82772558 12.3847165,5.88771098 11.940625,5.9234375 C11.871875,5.9296875 11.803125,5.934375 11.7328125,5.9390625 C11.6938873,5.87418986 11.6505563,5.81206478 11.603125,5.753125 C11.40625,5.4984375 11.134375,5.271875 10.775,5.059375 L10.7625,5.053125 C10.4734375,4.8859375 10.128125,4.7375 9.709375,4.5953125 L9.690625,4.5890625 C9.28606644,4.46219758 8.87507448,4.35684178 8.459375,4.2734375 C8.046875,4.1890625 7.5953125,4.1234375 7.040625,4.06875 C6.571875,4.021875 6.0671875,4 5.4984375,4 C5.3296875,4 5.165625,4.0015625 5.0046875,4.00625 C5.00066897,4.00358805 4.99699523,4.00043912 4.99375,3.996875 L4.99375,1.8375 C4.99375,1.6796875 5.0578125,1.521875 5.1828125,1.3671875 C5.3046875,1.2125 5.4921875,1.0609375 5.7375,0.9203125 C5.978125,0.7796875 6.26875,0.6515625 6.603125,0.5421875 C6.97307358,0.423449789 7.34978656,0.326923611 7.73125,0.253125 C8.1546875,0.1703125 8.6015625,0.1078125 9.0625,0.0640625 C9.5234375,0.0203125 10,0 10.4953125,0 Z"></path></clipPath></defs><g transform="translate(4.0 4.0)"><g clip-path="url(#i0)"><polygon points="0,0 16,0 16,16 0,16 0,0" stroke="none" fill="#151515"></polygon></g></g></svg>