<?xml version="1.0" encoding="UTF-8"?>
<svg width="24px" height="24px" viewBox="0 0 24 24" version="1.1" xmlns="http://www.w3.org/2000/svg" xmlns:xlink="http://www.w3.org/1999/xlink">
    <title></title>
    <g id="Icons" stroke="none" stroke-width="1" fill="none" fill-rule="evenodd">
        <g id="Icons/1.-Size-md/Status/pficon-private" fill="#151515">
            <path d="M12,4 C7.58125,4 4,7.58125 4,12 C4,16.41875 7.58125,20 12,20 C16.41875,20 20,16.41875 20,12 C20,7.58125 16.41875,4 12,4 L12,4 Z M17,15.3015625 C17,15.74375 16.834375,16.1484375 16.5203125,16.471875 L16.5140625,16.478125 L16.5078125,16.484375 C16.08125,16.9109375 15.63125,17 15.328125,17 L8.66875,17 C8.36875,17 7.9234375,16.9109375 7.49375,16.4890625 L7.4875,16.4828125 C7.1671875,16.1625 6.9984375,15.7546875 6.9984375,15.3 L6.9984375,11.6359375 C6.9984375,11.1921875 7.1640625,10.7875 7.4765625,10.465625 L7.4828125,10.459375 L7.4890625,10.453125 C7.7703125,10.171875 8.0859375,10.065625 8.3296875,10.025 L8.3296875,9.675 C8.3296875,8.675 8.6921875,7.803125 9.409375,7.084375 C9.7625,6.7296875 10.1625,6.45625 10.5953125,6.275 C11.03125,6.0921875 11.503125,6 12.0015625,6 C12.4984375,6 12.971875,6.0921875 13.4078125,6.275 C13.8421875,6.45625 14.2421875,6.7296875 14.5953125,7.084375 C15.3078125,7.8 15.6703125,8.671875 15.6703125,9.675 L15.6703125,10.0265625 C15.9984375,10.0828125 16.2796875,10.2234375 16.509375,10.4484375 C16.83125,10.765625 17.0015625,11.1765625 17.0015625,11.6359375 L17,15.3015625 Z M15.80625,11.1625 C15.675,11.0328125 15.51875,11 15.3328125,11 L14.66875,11 L14.66875,9.675 C14.66875,8.9421875 14.4109375,8.3171875 13.8859375,7.7890625 C13.3609375,7.2625 12.73125,7 12,7 C11.26875,7 10.6421875,7.2625 10.1171875,7.7890625 C9.5921875,8.315625 9.3296875,8.9390625 9.3296875,9.675 L9.3296875,11 L8.66875,11 C8.4828125,11 8.325,11.03125 8.1953125,11.1609375 C8.065625,11.29375 8,11.45 8,11.6359375 L8,15.303125 C8,15.490625 8.0671875,15.6484375 8.1953125,15.778125 C8.3265625,15.9078125 8.4828125,16.0015625 8.66875,16.0015625 L15.3296875,16.0015625 C15.515625,16.0015625 15.6734375,15.9078125 15.803125,15.778125 C15.9328125,15.6453125 16.0015625,15.4890625 16.0015625,15.303125 L16.0015625,11.6375 C16,11.45 15.9375,11.2921875 15.80625,11.1625 L15.80625,11.1625 Z M13.3328125,11 L10.6671875,11 L10.6671875,9.7015625 C10.6671875,9.334375 10.7984375,9.01875 11.05625,8.759375 C11.3171875,8.4984375 11.63125,8.3671875 12,8.3671875 C12.36875,8.3671875 12.6859375,8.496875 12.9421875,8.75625 C13.203125,9.0171875 13.334375,9.33125 13.334375,9.7 L13.334375,11 L13.3328125,11 Z" id="pficon-private"></path>
        </g>
    </g>
</svg>