<?xml version="1.0" encoding="UTF-8"?><svg version="1.1" width="24px" height="24px" viewBox="0 0 24.0 24.0" xmlns="http://www.w3.org/2000/svg" xmlns:xlink="http://www.w3.org/1999/xlink"><defs><clipPath id="i0"><path d="M8,0 C9.1015625,0 10.203125,0.4203125 11.0453125,1.2609375 L14.7390625,4.95625 C16.4203125,6.6375 16.4203125,9.3640625 14.7390625,11.0453125 L11.0453125,14.7390625 C10.203125,15.5796875 9.1015625,16 8,16 C6.8984375,16 5.796875,15.5796875 4.9546875,14.7375 L1.2609375,11.04375 C-0.4203125,9.3625 -0.4203125,6.6359375 1.2609375,4.9546875 L4.9546875,1.2609375 C5.796875,0.4203125 6.8984375,0 8,0 Z M9.4078125,2.4734375 C8.6265625,1.696875 7.3640625,1.696875 6.584375,2.475 L2.465625,6.5828125 C1.684375,7.3625 1.684375,8.628125 2.4640625,9.409375 L6.5890625,13.534375 C7.371875,14.315625 8.6375,14.3140625 9.41875,13.5328125 L13.5375,9.409375 C14.3171875,8.628125 14.3171875,7.3640625 13.5359375,6.5828125 Z M8.7390625,9.9890625 C8.8078125,9.9890625 8.8671875,10.0140625 8.915625,10.0625 C8.9640625,10.1140625 8.9890625,10.1703125 8.9890625,10.2390625 L8.9890625,11.7390625 C8.9890625,11.80625 8.965625,11.865625 8.915625,11.915625 C8.8640625,11.9640625 8.8078125,11.9890625 8.7390625,11.9890625 L7.2390625,11.9890625 C7.1703125,11.9890625 7.1109375,11.9640625 7.0625,11.915625 C7.0140625,11.8640625 6.9890625,11.8078125 6.9890625,11.7390625 L6.9890625,10.2390625 C6.9890625,10.1703125 7.0140625,10.1109375 7.0625,10.0625 C7.1140625,10.0140625 7.1703125,9.9890625 7.2390625,9.9890625 Z M8.1453125,3.9625 C9.80625,3.9625 11.1515625,5.084375 11.1515625,6.4640625 C11.1515625,7.84375 9.8046875,9 8.1453125,9 L7.375,9 C7.1265625,9 6.9890625,8.91875 6.9890625,8.653125 L6.9890625,8.1515625 C6.9890625,7.496875 7.6,7.4234375 8.1453125,7.390625 C8.690625,7.3578125 9.1078125,6.9046875 9.1078125,6.4625 C9.1078125,5.5796875 7.2,5.665625 7.2,6.3515625 C7.15625,6.4921875 7.0390625,6.5 6.953125,6.5 L5.3671875,6.5 C5.2375,6.5 5.14375,6.4734375 5.14375,6.3625 C5.2265625,5.2765625 5.71875,3.9625 8.1453125,3.9625 Z"></path></clipPath></defs><g transform="translate(4.0 4.0)"><g clip-path="url(#i0)"><polygon points="0,0 16,0 16,16 0,16 0,0" stroke="none" fill="#151515"></polygon></g></g></svg>