<?xml version="1.0" encoding="UTF-8"?><svg version="1.1" width="24px" height="24px" viewBox="0 0 24.0 24.0" xmlns="http://www.w3.org/2000/svg" xmlns:xlink="http://www.w3.org/1999/xlink"><defs><clipPath id="i0"><path d="M8,0 C12.41875,0 16,3.58125 16,8 C16,12.41875 12.41875,16 8,16 C3.58125,16 0,12.41875 0,8 C0,3.58125 3.58125,0 8,0 Z M8,2 C4.6859375,2 2,4.6859375 2,8 C2,11.3140625 4.6859375,14 8,14 C11.3140625,14 14,11.3140625 14,8 C14,4.6859375 11.3140625,2 8,2 Z M8,4.5 C8.55139533,4.50214136 8.99785864,4.94860467 9,5.5 L9,10.5 C9,11.0522848 8.55228475,11.5 8,11.5 C7.44771525,11.5 7,11.0522848 7,10.5 L7,5.5 C7.00214136,4.94860467 7.44860467,4.50214136 8,4.5 Z"></path></clipPath></defs><g transform="translate(4.0 4.0)"><g clip-path="url(#i0)"><polygon points="0,0 16,0 16,16 0,16 0,0" stroke="none" fill="#151515"></polygon></g></g></svg>