<?xml version="1.0" encoding="UTF-8"?>
<svg width="24px" height="24px" viewBox="0 0 24 24" version="1.1" xmlns="http://www.w3.org/2000/svg" xmlns:xlink="http://www.w3.org/1999/xlink">
    <title></title>
    <g id="Icons" stroke="none" stroke-width="1" fill="none" fill-rule="evenodd">
        <g id="Icons/1.-Size-md/Status/pficon-trend-up" fill="#151515">
            <path d="M20,6.53333333 C20,6.23833333 19.7616667,6 19.4666667,6 L12,6 C11.705,6 11.4666667,6.23833333 11.4666667,6.53333333 L11.4666667,7.6 C11.4666667,7.895 11.705,8.13333333 12,8.13333333 L16.3583333,8.13333333 L11.505,13.0366667 L9.72833333,11.2533333 C9.52,11.045 9.18166667,11.0433333 8.97333333,11.2533333 L4.15666667,16.07 C4.05166667,16.1733333 4,16.31 4,16.445 C4,16.5816667 4.05166667,16.7183333 4.15666667,16.8216667 L4.91166667,17.5766667 C5.015,17.68 5.15166667,17.7333333 5.28833333,17.7333333 C5.425,17.7333333 5.56166667,17.6816667 5.665,17.5766667 L9.34833333,13.8933333 L11.125,15.6766667 C11.3333333,15.885 11.6716667,15.8866667 11.88,15.6766667 L17.8666667,9.64166667 L17.85,14 C17.85,14.295 18.0716667,14.5333333 18.3666667,14.5333333 L19.4333333,14.5333333 C19.7283333,14.5333333 20,14.295 20,14 L20,6.53333333 Z" id="pficon-trend-up"></path>
        </g>
    </g>
</svg>