<?xml version="1.0" encoding="UTF-8"?>
<svg width="24px" height="24px" viewBox="0 0 24 24" version="1.1" xmlns="http://www.w3.org/2000/svg" xmlns:xlink="http://www.w3.org/1999/xlink">
    <title></title>
    <g id="Icons" stroke="none" stroke-width="1" fill="none" fill-rule="evenodd">
        <g id="Icons/1.-Size-md/Status/pficon-new-process" fill="#151515">
            <path d="M12.001,4 C16.411,4 20,7.59 20,12 C20,16.412 16.411,20 12.001,20 C7.588,20 4,16.412 4,12 C4,7.59 7.588,4 12.001,4 Z M12.001,5.999 C8.692,5.999 6.001,8.691 6.001,11.999 C6.001,15.31 8.692,17.999 12.001,17.999 C15.309,17.999 18.001,15.309 18.001,11.999 C18,8.691 15.309,5.999 12.001,5.999 Z M14.7495,8.0005 C14.8875,8.0005 14.9995,8.1135 14.9995,8.2505 L14.9995,8.2505 L14.9995,8.5005 C14.9995,11.0005 12.4995,10.9855 12.4995,12.0005 C12.4995,13.0165 14.9995,13.0005 14.9995,15.5005 L14.9995,15.5005 L14.9995,15.7505 C14.9995,15.8885 14.8875,16.0005 14.7495,16.0005 L14.7495,16.0005 L9.2495,16.0005 C9.1115,16.0005 8.9995,15.8885 8.9995,15.7505 L8.9995,15.7505 L8.9995,15.5005 C8.9995,12.9855 11.4995,12.9855 11.4995,12.0005 C11.4995,11.0165 8.9995,10.9855 8.9995,8.5005 L8.9995,8.5005 L8.9995,8.2505 C8.9995,8.1135 9.1115,8.0005 9.2495,8.0005 L9.2495,8.0005 L14.7495,8.0005 Z M12.2635,13.5685 C12.0045,13.4795 12.0045,13.4795 11.7375,13.5685 C11.5015,13.6475 10.6685,13.9155 10.5525,14.7315 C10.5522361,14.7332917 10.551973,14.7350855 10.5517108,14.736881 L10.55015,14.7476714 L10.55015,14.7476714 L10.548619,14.7584836 C10.5476098,14.7656947 10.5466254,14.7729073 10.5456758,14.7800957 L10.5442786,14.7908568 C10.5303638,14.90001 10.5256806,15.0005 10.5655,15.0005 L10.5655,15.0005 L13.4345,15.0005 C13.4742183,15.0005 13.4696597,14.9026623 13.4564308,14.7950981 L13.4550803,14.7843125 L13.4550803,14.7843125 L13.4536799,14.7734817 L13.4536799,14.7734817 L13.4522376,14.7626252 C13.4517507,14.7590042 13.4512581,14.7553823 13.4507612,14.7517625 L13.4485,14.7355 C13.3365,13.9295 12.4995,13.6515 12.2635,13.5685 Z M13.4345,8.959 L10.5665,8.959 C10.5254578,8.959 10.5324515,9.0642315 10.546208,9.17614334 L10.547559,9.18699108 C10.5477872,9.18880139 10.5480169,9.19061264 10.5482478,9.19242437 L10.5496465,9.20329744 C10.5505871,9.21054572 10.5515419,9.21778873 10.5525,9.225 C10.6645,10.031 11.5015,10.309 11.7375,10.392 C11.9915909,10.4789773 11.9973657,10.480954 12.246703,10.3979303 L12.2645,10.392 C12.5005,10.312 13.3335,10.045 13.4495,9.228 C13.4497676,9.22619719 13.450034,9.22439178 13.4502991,9.22258425 L13.4526445,9.20626995 L13.4526445,9.20626995 L13.454893,9.18990934 C13.4704802,9.07356775 13.4768662,8.959 13.4345,8.959 L13.4345,8.959 Z" id="new-process"></path>
        </g>
    </g>
</svg>