<?xml version="1.0" encoding="UTF-8"?><svg version="1.1" width="24px" height="24px" viewBox="0 0 24.0 24.0" xmlns="http://www.w3.org/2000/svg" xmlns:xlink="http://www.w3.org/1999/xlink"><defs><clipPath id="i0"><path d="M13.4609375,0 C13.759375,0 14,0.2234375 14,0.5 L14,7.065625 C14,12 7.9578125,16 7.0078125,16 C6.0578125,16 0,12 0,7.0640625 L0,0.5 C0,0.2234375 0.240625,0 0.5390625,0 Z M7.6671875,10 L6.3328125,10 C6.15,10.0046875 6.003125,10.1640625 6,10.3640625 L6,11.6359375 C6.003125,11.8359375 6.1484375,11.996875 6.3328125,12 L7.6671875,12 C7.85,11.996875 7.996875,11.8359375 8.0015625,11.6359375 L8,10.3640625 C7.996875,10.1640625 7.8515625,10.003125 7.6671875,10 Z M8,2 L6,2.0046875 C5.7078125,2.0046875 5.4765625,2.2546875 5.5015625,2.546875 L5.9171875,8.0421875 C5.9390625,8.3 6.15625,8.5 6.415625,8.5 L7.5828125,8.5 C7.84375,8.5 8.059375,8.2953125 8.08125,8.0375 L8.4984375,2.5421875 C8.521875,2.25 8.2921875,2 8,2 Z"></path></clipPath></defs><g transform="translate(5.0 4.0)"><g clip-path="url(#i0)"><polygon points="0,0 14,0 14,16 0,16 0,0" stroke="none" fill="#151515"></polygon></g></g></svg>