<?xml version="1.0" encoding="UTF-8"?><svg version="1.1" width="24px" height="24px" viewBox="0 0 24.0 24.0" xmlns="http://www.w3.org/2000/svg" xmlns:xlink="http://www.w3.org/1999/xlink"><defs><clipPath id="i0"><path d="M15.4666667,0 C15.7616667,0 16,0.238333333 16,0.533333333 L16,8 C16,8.295 15.7283333,8.53333333 15.4333333,8.53333333 L14.3666667,8.53333333 C14.0716667,8.53333333 13.85,8.295 13.85,8 L13.8666667,3.64166667 L7.88,9.67666667 C7.67166667,9.88666667 7.33333333,9.885 7.125,9.67666667 L5.34833333,7.89333333 L1.665,11.5766667 C1.56166667,11.6816667 1.425,11.7333333 1.28833333,11.7333333 C1.15166667,11.7333333 1.015,11.68 0.911666667,11.5766667 L0.156666667,10.8216667 C0.0516666667,10.7183333 0,10.5816667 0,10.445 C0,10.31 0.0516666667,10.1733333 0.156666667,10.07 L4.97333333,5.25333333 C5.18166667,5.04333333 5.52,5.045 5.72833333,5.25333333 L7.505,7.03666667 L12.3583333,2.13333333 L8,2.13333333 C7.705,2.13333333 7.46666667,1.895 7.46666667,1.6 L7.46666667,0.533333333 C7.46666667,0.238333333 7.705,0 8,0 Z"></path></clipPath></defs><g transform="translate(4.0 6.0)"><g clip-path="url(#i0)"><polygon points="0,0 16,0 16,11.7333333 0,11.7333333 0,0" stroke="none" fill="#151515"></polygon></g></g></svg>