<?xml version="1.0" encoding="UTF-8"?><svg version="1.1" width="24px" height="24px" viewBox="0 0 24.0 24.0" xmlns="http://www.w3.org/2000/svg" xmlns:xlink="http://www.w3.org/1999/xlink"><defs><clipPath id="i0"><path d="M1.28833333,0 C1.425,0 1.56166667,0.0516666667 1.665,0.156666667 L5.34833333,3.84 L7.125,2.05666667 C7.33333333,1.84833333 7.67166667,1.84666667 7.88,2.05666667 L13.8666667,8.09166667 L13.85,3.73333333 C13.85,3.43833333 14.0716667,3.2 14.3666667,3.2 L15.4333333,3.2 C15.7283333,3.2 16,3.43833333 16,3.73333333 L16,11.2 C16,11.495 15.7616667,11.7333333 15.4666667,11.7333333 L8,11.7333333 C7.705,11.7333333 7.46666667,11.495 7.46666667,11.2 L7.46666667,10.1333333 C7.46666667,9.83833333 7.705,9.6 8,9.6 L12.3583333,9.6 L7.505,4.69666667 L5.72833333,6.48 C5.52,6.68833333 5.18166667,6.69 4.97333333,6.48 L0.156666667,1.66333333 C0.0516666667,1.56 0,1.42333333 0,1.28833333 C0,1.15166667 0.0516666667,1.015 0.156666667,0.911666667 L0.91,0.156666667 C1.015,0.0516666667 1.15166667,0 1.28833333,0 Z"></path></clipPath></defs><g transform="translate(4.0 6.0)"><g clip-path="url(#i0)"><polygon points="0,0 16,0 16,11.7333333 0,11.7333333 0,0" stroke="none" fill="#151515"></polygon></g></g></svg>