<?xml version="1.0" encoding="UTF-8"?><svg version="1.1" width="24px" height="24px" viewBox="0 0 24.0 24.0" xmlns="http://www.w3.org/2000/svg" xmlns:xlink="http://www.w3.org/1999/xlink"><defs><clipPath id="i0"><path d="M8.0015625,0 C12.4109375,0 16,3.5890625 16,8 C16,12.4109375 12.4109375,16 8.0015625,16 C3.5890625,16 0,12.4109375 0,8 C0,3.5890625 3.5890625,0 8.0015625,0 Z M8.0015625,1.9984375 C4.6921875,1.9984375 2.0015625,4.690625 2.0015625,7.9984375 C2.0015625,11.309375 4.6921875,13.9984375 8.0015625,13.9984375 C11.309375,13.9984375 14.0015625,11.3078125 14.0015625,7.9984375 C14,4.690625 11.309375,1.9984375 8.0015625,1.9984375 Z M10.75,4 C10.8875,4 11,4.1125 11,4.25 L11,4.5 C11,7 8.5,6.984375 8.5,8 C8.5,9.015625 11,9 11,11.5 L11,11.75 C11,11.8875 10.8875,12 10.75,12 L5.25,12 C5.1125,12 5,11.8875 5,11.75 L5,11.5 C5,8.984375 7.5,8.984375 7.5,8 C7.5,7.015625 5,6.984375 5,4.5 L5,4.25 C5,4.1125 5.1125,4 5.25,4 Z M8.2640625,9.5671875 C8.0046875,9.478125 8.0046875,9.478125 7.7375,9.5671875 C7.5015625,9.646875 6.66875,9.9140625 6.553125,10.73125 C6.534375,10.859375 6.5203125,11 6.5671875,11 L9.4359375,11 C9.4828125,11 9.4671875,10.8625 9.45,10.734375 C9.3375,9.928125 8.5,9.65 8.2640625,9.5671875 Z"></path></clipPath></defs><g transform="translate(4.0 4.0)"><g clip-path="url(#i0)"><polygon points="0,0 16,0 16,16 0,16 0,0" stroke="none" fill="#151515"></polygon></g></g></svg>