<?xml version="1.0" encoding="UTF-8"?><svg version="1.1" width="24px" height="24px" viewBox="0 0 24.0 24.0" xmlns="http://www.w3.org/2000/svg" xmlns:xlink="http://www.w3.org/1999/xlink"><defs><clipPath id="i0"><path d="M8.0015625,0 C12.4125,0 16,3.5890625 16,8 C16,12.4109375 12.4125,16 8.0015625,16 C3.590625,16 0,12.4109375 0,8 C0,3.590625 3.5890625,0 8.0015625,0 Z M8,2 C4.690625,2 2,4.6921875 2,8 C2,11.3109375 4.690625,14 8,14 C11.3078125,14 14,11.309375 14,8 C14,4.690625 11.3078125,2 8,2 Z M12.03125,10 C11.2953125,11.48125 9.765625,12.5 8,12.5 C6.234375,12.5 4.7046875,11.48125 3.96875,10 Z"></path></clipPath></defs><g transform="translate(4.0 4.0)"><g clip-path="url(#i0)"><polygon points="0,0 16,0 16,16 0,16 0,0" stroke="none" fill="#151515"></polygon></g></g></svg>