<?xml version="1.0" encoding="UTF-8"?>
<svg width="24px" height="24px" viewBox="0 0 24 24" version="1.1" xmlns="http://www.w3.org/2000/svg" xmlns:xlink="http://www.w3.org/1999/xlink">
    <title></title>
    <g id="Icons" stroke="none" stroke-width="1" fill="none" fill-rule="evenodd">
        <g id="Icons/1.-Size-md/Status/pficon-degraded" fill="#151515">
            <path d="M14.4953125,4 C14.996875,4 15.478125,4.0171875 15.9359375,4.0625 C16.39375,4.1078125 16.8328125,4.165625 17.253125,4.2515625 C17.6339175,4.3283209 18.0104664,4.42480502 18.38125,4.540625 C18.7171875,4.6546875 19.009375,4.7765625 19.2578125,4.91875 C19.4984375,5.0609375 19.6859375,5.2109375 19.80625,5.365625 C19.9265625,5.5203125 20,5.678125 20,5.8359375 L20,8.146875 C20,8.315625 19.940625,8.4734375 19.8203125,8.63125 C19.7,8.7859375 19.5125,8.9359375 19.271875,9.078125 C18.9896499,9.22580056 18.6953566,9.34916331 18.3921875,9.446875 C18.0224508,9.56840483 17.6457263,9.66754286 17.2640625,9.74375 C16.826522,9.82772558 16.3847165,9.88771098 15.940625,9.9234375 C15.871875,9.9296875 15.803125,9.934375 15.7328125,9.9390625 C15.6938873,9.87418986 15.6505563,9.81206478 15.603125,9.753125 C15.40625,9.4984375 15.134375,9.271875 14.775,9.059375 L14.7625,9.053125 C14.4734375,8.8859375 14.128125,8.7375 13.709375,8.5953125 L13.690625,8.5890625 C13.2860664,8.46219758 12.8750745,8.35684178 12.459375,8.2734375 C12.046875,8.1890625 11.5953125,8.1234375 11.040625,8.06875 C10.571875,8.021875 10.0671875,8 9.4984375,8 C9.3296875,8 9.165625,8.0015625 9.0046875,8.00625 C9.00066897,8.00358805 8.99699523,8.00043912 8.99375,7.996875 L8.99375,5.8375 C8.99375,5.6796875 9.0578125,5.521875 9.1828125,5.3671875 C9.3046875,5.2125 9.4921875,5.0609375 9.7375,4.9203125 C9.978125,4.7796875 10.26875,4.6515625 10.603125,4.5421875 C10.9730736,4.42344979 11.3497866,4.32692361 11.73125,4.253125 C12.1546875,4.1703125 12.6015625,4.1078125 13.0625,4.0640625 C13.5234375,4.0203125 14,4 14.4953125,4 M20,9.8875 L20,13.1671875 C20,13.3359375 19.940625,13.49375 19.8203125,13.6515625 C19.7,13.80625 19.5125,13.95625 19.271875,14.0984375 C18.9896499,14.2461131 18.6953566,14.3694758 18.3921875,14.4671875 C18.0224508,14.5887173 17.6457263,14.6878554 17.2640625,14.7640625 C16.8459805,14.8439876 16.4240711,14.9023978 16,14.9390625 L15.9953125,11.4390625 C16.4209478,11.4025025 16.844423,11.3440922 17.2640625,11.2640625 C17.68125,11.178125 18.0984375,11.06875 18.3921875,10.9671875 C18.6859375,10.865625 19.0234375,10.7296875 19.2703125,10.5984375 C19.5109375,10.45625 19.6984375,10.30625 19.81875,10.1515625 C19.8819844,10.071382 19.9311225,9.98103142 19.9640625,9.884375 C19.96875,9.8671875 19.9984375,9.871875 20,9.8875 M7.628125,12.134315 C7.60446233,12.1340493 7.58100925,12.1388465 7.559375,12.1484375 C7.5425,12.15625 7.5265625,12.1651563 7.5109375,12.1742187 L7.5015625,12.1796875 L7.490625,12.1859375 L6.678125,13.0046875 C6.65672005,13.0195338 6.63993252,13.040112 6.6296875,13.0640625 C6.61947964,13.0893495 6.61468902,13.1164964 6.615625,13.14375 C6.61529928,13.1674127 6.6200965,13.1908658 6.6296875,13.2125 C6.63995416,13.2336966 6.65304163,13.2534067 6.66859375,13.2710938 L6.6734375,13.2765625 L6.678125,13.28125 L8.4125,15.00625 L6.6421875,16.7734375 C6.62078255,16.7882838 6.60399502,16.808862 6.59375,16.8328125 C6.58354214,16.8580995 6.57875152,16.8852464 6.5796875,16.9125 C6.57936178,16.9361627 6.584159,16.9596157 6.59375,16.98125 C6.60401666,17.0024466 6.61710412,17.0221567 6.63265625,17.0398437 L6.6375,17.0453125 L6.6421875,17.05 L7.4546875,17.865625 C7.47429656,17.8860178 7.49763477,17.9024607 7.5234375,17.9140625 C7.54872452,17.9242704 7.57587142,17.929061 7.603125,17.928125 C7.62678767,17.9284507 7.65024075,17.9236535 7.671875,17.9140625 C7.69292836,17.9061066 7.71133203,17.8924121 7.725,17.8745313 L7.728125,17.8703125 L7.73125,17.865625 L9.5015625,16.10625 L11.2703125,17.859375 C11.2851588,17.88078 11.305737,17.8975675 11.3296875,17.9078125 C11.3512295,17.9176888 11.3747476,17.9224993 11.3984375,17.921875 C11.4257006,17.9229491 11.4528763,17.9181534 11.478125,17.9078125 C11.4993216,17.8975458 11.5190317,17.8844584 11.5367188,17.8689063 L11.5421875,17.8640625 L11.546875,17.859375 L12.359375,17.0515625 C12.3797678,17.0319534 12.3962107,17.0086152 12.4078125,16.9828125 C12.4180759,16.9630752 12.422928,16.9409714 12.421875,16.91875 C12.4229491,16.8914869 12.4181534,16.8643112 12.4078125,16.8390625 C12.3998566,16.8180091 12.3861621,16.7996055 12.3682813,16.7859375 L12.3640625,16.7828125 L12.359375,16.7796875 L10.590625,15.0125 L12.325,13.2921875 C12.3453928,13.2725784 12.3618357,13.2492402 12.3734375,13.2234375 C12.3833138,13.2018955 12.3881243,13.1783774 12.3875,13.1546875 C12.3885741,13.1274244 12.3837784,13.1002487 12.3734375,13.075 C12.3654816,13.0539466 12.3517871,13.035543 12.3339063,13.021875 L12.3296875,13.01875 L12.325,13.015625 L11.521875,12.19375 C11.5000116,12.179409 11.4770193,12.1668678 11.453125,12.15625 C11.427838,12.1460421 11.4006911,12.1412515 11.3734375,12.1421875 C11.3500916,12.142237 11.3268962,12.1459271 11.3046875,12.153125 C11.2834487,12.1578172 11.2645022,12.1697485 11.2510937,12.186875 L11.2484375,12.190625 L11.2453125,12.19375 L9.509375,13.9265625 L7.7671875,12.1859375 C7.75144545,12.1672627 7.73092158,12.1532201 7.7078125,12.1453125 C7.6819592,12.1376427 7.6550887,12.1339547 7.628125,12.134315 M9.4984375,9 C9.9984375,9 10.4828125,9.0171875 10.9401563,9.0625 C11.3975,9.1078125 11.836875,9.165625 12.2570313,9.2515625 C12.6377218,9.32831716 13.0141668,9.42480141 13.3848437,9.540625 C13.720625,9.6546875 14.0128125,9.7765625 14.2610938,9.91875 C14.5017188,10.0609375 14.6892188,10.2109375 14.809375,10.365625 C14.9259375,10.514375 14.9959375,10.66625 14.9998438,10.81875 L14.9998438,13.0796875 C14.9842188,13.2171875 14.9185937,13.346875 14.8185937,13.478125 C14.6984375,13.6328125 14.5109375,13.7828125 14.2703125,13.925 C13.9880961,14.0726941 13.6938012,14.1960575 13.390625,14.29375 C13.2842188,14.3301562 13.1709375,14.3653125 13.0521875,14.3990625 L13.0267188,14.40625 L12.9985937,14.4125 L12.9985937,15.94375 C13.134375,15.90625 13.265625,15.865625 13.390625,15.8234375 C13.6935878,15.7254407 13.9877536,15.6020876 14.27,15.4546875 C14.510625,15.3125 14.698125,15.1625 14.8182813,15.0078125 C14.8815157,14.927632 14.9306537,14.8372814 14.9635937,14.740625 C14.968125,14.725 14.9957813,14.7279688 14.9992188,14.7420313 L14.9992188,14.74375 L14.9992188,18.1671875 C14.9992188,18.3359375 14.9398437,18.49375 14.8195313,18.6515625 C14.699375,18.80625 14.511875,18.95625 14.27125,19.0984375 C13.9891341,19.2461153 13.6949444,19.3694784 13.391875,19.4671875 C13.022245,19.5887201 12.6456243,19.6878583 12.2640625,19.7640625 C11.8266287,19.8480486 11.3849267,19.9080342 10.9409375,19.94375 C10.4864062,19.9828125 10.006875,20 9.5034375,20 C9.00828125,20 8.5334375,19.98125 8.07265625,19.94375 C7.62835725,19.9126133 7.18644827,19.8536434 6.74953125,19.7671875 C6.32625,19.684375 5.94203125,19.5875 5.60765625,19.4703125 C5.27546875,19.359375 4.98744792,19.2364583 4.74359375,19.1015625 C4.50140625,18.959375 4.31859375,18.809375 4.190625,18.6546875 C4.069375,18.5059375 4.00546875,18.3510938 4.00171875,18.18875 L4.00171875,14.746875 C4.00328125,14.73125 4.02984375,14.728125 4.03609375,14.74375 C4.19234375,15.1289062 4.68375,15.56 5.931875,15.9173438 L5.96984375,15.928125 L5.99796875,15.9359375 L5.99796875,14.4203125 C5.8621875,14.3828125 5.7309375,14.3421875 5.60734375,14.2984375 C5.27473958,14.1875 4.98630208,14.0645833 4.74203125,13.9296875 C4.49984375,13.7875 4.31703125,13.6375 4.1890625,13.4828125 C4.0678125,13.3340625 4.00390625,13.1792188 4,13.016875 L4,10.8375 C4,10.6796875 4.0640625,10.521875 4.1890625,10.3671875 C4.31078125,10.2125 4.49828125,10.0609375 4.74359375,9.9203125 C4.9840625,9.7796875 5.27484375,9.6515625 5.60890625,9.5421875 C5.97875387,9.42346683 6.35536184,9.32694081 6.73671875,9.253125 C7.16,9.1703125 7.60671875,9.1078125 8.06765625,9.0640625 C8.52859375,9.0203125 9.00328125,9 9.4984375,9" id="pficon-degraded"></path>
        </g>
    </g>
</svg>