<?xml version="1.0" encoding="UTF-8"?><svg version="1.1" width="24px" height="24px" viewBox="0 0 24.0 24.0" xmlns="http://www.w3.org/2000/svg" xmlns:xlink="http://www.w3.org/1999/xlink"><defs><clipPath id="i0"><path d="M8,0 C12.41875,0 16,3.58125 16,8 C16,12.41875 12.41875,16 8,16 C3.58125,16 0,12.41875 0,8 C0,3.58125 3.58125,0 8,0 Z M8.0015625,2 C7.503125,2 7.03125,2.0921875 6.5953125,2.275 C6.1625,2.45625 5.7625,2.7296875 5.409375,3.084375 C4.6921875,3.803125 4.3296875,4.675 4.3296875,5.675 L4.3296875,6.025 C4.0859375,6.065625 3.7703125,6.171875 3.4890625,6.453125 L3.4765625,6.465625 C3.1640625,6.7875 2.9984375,7.1921875 2.9984375,7.6359375 L2.9984375,11.3 C2.9984375,11.7546875 3.1671875,12.1625 3.4875,12.4828125 C3.9234375,12.9109375 4.36875,13 4.66875,13 L11.328125,13 C11.63125,13 12.08125,12.9109375 12.5078125,12.484375 L12.5203125,12.471875 C12.834375,12.1484375 13,11.74375 13,11.3015625 L13.0015625,7.6359375 C13.0015625,7.1765625 12.83125,6.765625 12.509375,6.4484375 C12.2796875,6.2234375 11.9984375,6.0828125 11.6703125,6.0265625 L11.6703125,5.675 C11.6703125,4.671875 11.3078125,3.8 10.5953125,3.084375 C10.2421875,2.7296875 9.8421875,2.45625 9.4078125,2.275 C8.971875,2.0921875 8.4984375,2 8.0015625,2 Z M8,3 C8.73125,3 9.3609375,3.2625 9.8859375,3.7890625 C10.4109375,4.3171875 10.66875,4.9421875 10.66875,5.675 L10.66875,7 L11.3328125,7 C11.51875,7 11.675,7.0328125 11.80625,7.1625 C11.9375,7.2921875 12,7.45 12.0015625,7.6375 L12.0015625,11.303125 C12.0015625,11.4890625 11.9328125,11.6453125 11.803125,11.778125 C11.6734375,11.9078125 11.515625,12.0015625 11.3296875,12.0015625 L4.66875,12.0015625 C4.4828125,12.0015625 4.3265625,11.9078125 4.1953125,11.778125 C4.0671875,11.6484375 4,11.490625 4,11.303125 L4,7.6359375 C4,7.45 4.065625,7.29375 4.1953125,7.1609375 C4.325,7.03125 4.4828125,7 4.66875,7 L5.3296875,7 L5.3296875,5.675 C5.3296875,4.9390625 5.5921875,4.315625 6.1171875,3.7890625 C6.6421875,3.2625 7.26875,3 8,3 Z M8,4.3671875 C7.63125,4.3671875 7.3171875,4.4984375 7.05625,4.759375 C6.7984375,5.01875 6.6671875,5.334375 6.6671875,5.7015625 L6.6671875,7 L9.334375,7 L9.334375,5.7 C9.334375,5.33125 9.203125,5.0171875 8.9421875,4.75625 C8.6859375,4.496875 8.36875,4.3671875 8,4.3671875 Z"></path></clipPath></defs><g transform="translate(4.0 4.0)"><g clip-path="url(#i0)"><polygon points="0,0 16,0 16,16 0,16 0,0" stroke="none" fill="#151515"></polygon></g></g></svg>