<?xml version="1.0" encoding="UTF-8"?><svg version="1.1" width="24px" height="24px" viewBox="0 0 24.0 24.0" xmlns="http://www.w3.org/2000/svg" xmlns:xlink="http://www.w3.org/1999/xlink"><defs><clipPath id="i0"><path d="M8.0015625,0 C12.4140625,0 16,3.5890625 16,8 C16,12.4109375 12.4125,16 8.0015625,16 C3.590625,16 0,12.4109375 0,8 C0,3.5890625 3.5890625,0 8.0015625,0 Z M8,2 C4.690625,2 2,4.6921875 2,8 C2,11.3109375 4.690625,14 8,14 C11.309375,14 14,11.309375 14,8 C14,4.690625 11.3078125,2 8,2 Z M7.8484375,4.003125 C8,3.996875 8.1765625,4.0984375 8.2359375,4.240625 C8.2984375,4.3828125 8.3078125,4.54375 8.1921875,4.6515625 C7.8921875,4.921875 7.6296875,5.2375 7.471875,5.596875 C7.3140625,5.95625 7.2,6.3 7.2,6.6984375 C7.2,7.2125 7.2921875,7.65 7.5453125,8.084375 C7.79290678,8.51243752 8.14849998,8.86803072 8.5765625,9.115625 C9.009375,9.36875 9.484375,9.4953125 9.9984375,9.4953125 C10.4085413,9.49567303 10.8136064,9.404947 11.184375,9.2296875 C11.3265625,9.1671875 11.4515625,9.1890625 11.559375,9.296875 C11.6069266,9.34507798 11.6385563,9.40670125 11.65,9.4734375 C11.6626482,9.5414527 11.6544797,9.61170169 11.6265625,9.675 C11.3,10.3796875 10.8083333,10.9427083 10.1515625,11.3640625 C9.49479167,11.7854167 8.77760417,11.9963542 8,11.9969167 C7.466882,11.9986357 6.9391617,11.8901126 6.45,11.678125 C5.959375,11.465625 5.53125,11.1828125 5.171875,10.8234375 C4.8125,10.4640625 4.5296875,10.040625 4.3171875,9.5484375 C4.10584856,9.05912609 3.99786319,8.53143397 3.99993868,7.9984375 C3.9983077,7.4757862 4.10027423,6.95798744 4.3,6.475 C4.5,5.990625 4.77083333,5.57135417 5.1125,5.2171875 C5.45416667,4.86302083 5.86302083,4.57760417 6.3390625,4.3609375 C6.81398359,4.1442148 7.32676958,4.02265372 7.8484375,4.003125 Z"></path></clipPath></defs><g transform="translate(4.0 4.0)"><g clip-path="url(#i0)"><polygon points="0,0 16,0 16,16 0,16 0,0" stroke="none" fill="#151515"></polygon></g></g></svg>