<?xml version="1.0" encoding="UTF-8"?><svg version="1.1" width="24px" height="24px" viewBox="0 0 24.0 24.0" xmlns="http://www.w3.org/2000/svg" xmlns:xlink="http://www.w3.org/1999/xlink"><defs><clipPath id="i0"><path d="M8,0 C12.41875,0 16,3.58125 16,8 C16,12.41875 12.41875,16 8,16 C3.58125,16 0,12.41875 0,8 C0,3.58125 3.58125,0 8,0 Z M8.01875,6.884375 L6.4765625,11.3609375 C6.3734375,11.6609375 6.0984375,11.86875 5.784375,11.8859375 L5.7421875,11.8859375 C5.4421875,11.8859375 5.1671875,11.715625 5.0390625,11.44375 L3.721875,8.6796875 L1.9796875,8.6796875 C2.04375,9.2625 2.190625,9.81875 2.41875,10.3546875 C2.7359375,11.09375 3.16875,11.7375 3.721875,12.2828125 C4.275,12.828125 4.91875,13.2609375 5.65,13.578125 C6.3828125,13.8953125 7.16875,14.053125 8,14.053125 C8.8328125,14.053125 9.61875,13.8953125 10.35,13.578125 C11.0828125,13.2609375 11.728125,12.8296875 12.278125,12.2828125 C12.828125,11.7359375 13.2640625,11.09375 13.58125,10.3546875 C13.8109375,9.821875 13.95625,9.2625 14.0171875,8.68125 L11.7609375,8.68125 L10.896875,10.0015625 C10.746875,10.234375 10.46875,10.365625 10.2046875,10.3515625 C9.9296875,10.3375 9.6796875,10.1734375 9.5546875,9.9265625 L8.01875,6.884375 Z M7.9953125,1.9390625 C7.1625,1.9390625 6.3765625,2.096875 5.6453125,2.4140625 C4.9125,2.73125 4.2703125,3.1640625 3.7171875,3.7171875 C3.1671875,4.2703125 2.73125,4.9140625 2.4140625,5.6453125 C2.209375,6.115625 2.0703125,6.609375 2,7.125 L4.2171875,7.125 C4.5171875,7.125 4.7921875,7.2953125 4.9203125,7.5671875 L5.63125,9.05625 L7.1515625,4.6359375 C7.2203125,4.44375 7.3546875,4.2859375 7.5375,4.19375 C7.91875,3.996875 8.3875,4.153125 8.5796875,4.5359375 L10.3359375,8.0203125 L10.69375,7.4734375 C10.8375,7.25625 11.0828125,7.1234375 11.34375,7.1234375 L13.9984375,7.1234375 C13.9265625,6.609375 13.7875,6.1203125 13.5765625,5.6453125 C13.259375,4.9140625 12.8265625,4.2703125 12.2734375,3.7171875 C11.7203125,3.1671875 11.0765625,2.73125 10.3453125,2.4140625 C9.6125,2.096875 8.8265625,1.9390625 7.9953125,1.9390625 Z"></path></clipPath></defs><g transform="translate(4.0 4.0)"><g clip-path="url(#i0)"><polygon points="0,0 16,0 16,16 0,16 0,0" stroke="none" fill="#151515"></polygon></g></g></svg>