<?xml version="1.0" encoding="UTF-8"?>
<svg width="24px" height="24px" viewBox="0 0 24 24" version="1.1" xmlns="http://www.w3.org/2000/svg" xmlns:xlink="http://www.w3.org/1999/xlink">
    <title></title>
    <g id="Icons" stroke="none" stroke-width="1" fill="none" fill-rule="evenodd">
        <g id="Icons/1.-Size-md/Status/pficon-trend-down" fill="#151515">
            <path d="M20,17.2 C20,17.495 19.7616667,17.7333333 19.4666667,17.7333333 L12,17.7333333 C11.705,17.7333333 11.4666667,17.495 11.4666667,17.2 L11.4666667,16.1333333 C11.4666667,15.8383333 11.705,15.6 12,15.6 L16.3583333,15.6 L11.505,10.6966667 L9.72833333,12.48 C9.52,12.6883333 9.18166667,12.69 8.97333333,12.48 L4.15666667,7.66333333 C4.05166667,7.56 4,7.42333333 4,7.28833333 C4,7.15166667 4.05166667,7.015 4.15666667,6.91166667 L4.91,6.15666667 C5.015,6.05166667 5.15166667,6 5.28833333,6 C5.425,6 5.56166667,6.05166667 5.665,6.15666667 L9.34833333,9.84 L11.125,8.05666667 C11.3333333,7.84833333 11.6716667,7.84666667 11.88,8.05666667 L17.8666667,14.0916667 L17.85,9.73333333 C17.85,9.43833333 18.0716667,9.2 18.3666667,9.2 L19.4333333,9.2 C19.7283333,9.2 20,9.43833333 20,9.73333333 L20,17.2 Z" id="pficon-trend-down"></path>
        </g>
    </g>
</svg>