<?xml version="1.0" encoding="UTF-8"?><svg version="1.1" width="24px" height="24px" viewBox="0 0 24.0 24.0" xmlns="http://www.w3.org/2000/svg" xmlns:xlink="http://www.w3.org/1999/xlink"><defs><clipPath id="i0"><path d="M0.243139905,0.214894422 C0.528190098,-0.0710195608 0.991048014,-0.0717197997 1.276962,0.213330394 L7.40904411,6.36402443 C7.59601542,6.29512158 7.79378961,6.26016416 7.99305193,6.26079862 C8.94024028,6.26217955 9.70725937,7.03059858 9.70691313,7.97778787 C9.70759216,8.1773458 9.67268967,8.37542671 9.60384372,8.56273411 L10.7795231,9.73716226 C11.4907293,8.61725369 11.4536395,7.17835661 10.6856815,6.09657575 C10.4654664,5.78220625 10.5356912,5.34740664 10.8495915,5.12531475 C10.9998422,5.01815165 11.1865834,4.97523561 11.3685438,5.00605147 C11.5505041,5.03686733 11.7127014,5.13887781 11.8192885,5.28953763 C12.382964,6.07780742 12.6779395,7.00981133 12.6779395,7.98404398 C12.6809873,8.94393417 12.384669,9.88089048 11.8302367,10.6644741 C11.8143144,10.6882187 11.7965886,10.7107028 11.7772162,10.7317273 L12.9245866,11.881131 C14.8202939,9.54636016 14.7663524,6.1876063 12.7966492,3.91491397 C12.4936971,3.56472824 12.5279493,3.03295894 12.8778222,2.72953763 C13.0445061,2.58312895 13.262765,2.50936369 13.4840923,2.52463575 C13.7054196,2.5399078 13.9114784,2.64295188 14.0564732,2.81086705 C16.6050937,5.74869696 16.6296017,10.1064535 14.1141859,13.0727634 L15.7424948,14.7023236 C16.0283655,14.9877193 16.0287507,15.4508223 15.743355,15.736693 C15.4579593,16.0225639 14.9948562,16.022949 14.7089855,15.7375532 L8.57096005,9.58701563 L6.37881928,7.39143401 L5.19547618,6.20605767 L3.05823277,4.065217 L1.86863356,2.8765562 L0.244703933,1.24871651 C-0.0412100502,0.963666319 -0.041910289,0.500808403 0.243139905,0.214894422 Z M1.01780266,4.09649755 L2.25526112,5.33802247 C1.86859413,6.1634608 1.66799733,7.06377038 1.66765604,7.97528543 C1.66787833,9.46958029 2.2071004,10.9136514 3.18632662,12.0423822 C3.49146836,12.3925679 3.45721616,12.9241808 3.10812525,13.2274457 C2.95741696,13.3614928 2.76240862,13.4349831 2.56071567,13.4337716 C2.3195184,13.4332779 2.09017972,13.3290641 1.93119465,13.1476803 C-0.229096485,10.6575647 -0.614441617,7.08718214 0.964782134,4.19346725 C0.981986435,4.16062267 1.00059836,4.12934212 1.01780266,4.09649755 Z M4.66739576,8.21119315 C4.7068116,8.80424832 4.90861572,9.37665904 5.25271958,9.86478689 C5.47456607,10.1797156 5.39971173,10.6147801 5.08536865,10.8374555 C4.96831259,10.9198478 4.8284322,10.9635946 4.68529045,10.9626118 C4.45811683,10.9630141 4.24504698,10.8524793 4.11457686,10.6665073 C3.28226088,9.47701652 3.04896221,7.96866377 3.48302261,6.58330107 L4.66808615,7.77086705 C4.66339406,7.84124828 4.66026601,7.91334994 4.66026601,7.98857966 Z"></path></clipPath></defs><g transform="translate(4.0 4.0)"><g clip-path="url(#i0)"><polygon points="1.11022302e-16,2.77555756e-17 15.9844683,2.77555756e-17 15.9844683,15.9513484 1.11022302e-16,15.9513484 1.11022302e-16,2.77555756e-17" stroke="none" fill="#151515"></polygon></g></g></svg>