<?xml version="1.0" encoding="UTF-8"?><svg version="1.1" width="24px" height="24px" viewBox="0 0 24.0 24.0" xmlns="http://www.w3.org/2000/svg" xmlns:xlink="http://www.w3.org/1999/xlink"><defs><clipPath id="i0"><path d="M8.001,0 C12.411,0 16,3.59 16,8 C16,12.412 12.411,16 8.001,16 C3.588,16 0,12.412 0,8 C0,3.59 3.588,0 8.001,0 Z M8.001,1.999 C4.692,1.999 2.001,4.691 2.001,7.999 C2.001,11.31 4.692,13.999 8.001,13.999 C11.309,13.999 14.001,11.309 14.001,7.999 C14,4.691 11.309,1.999 8.001,1.999 Z M10.7495,4.0005 C10.8677857,4.0005 10.9669694,4.08352041 10.9928936,4.19351458 L10.9995,4.2505 L10.9995,4.5005 C10.9995,7.0005 8.4995,6.9855 8.4995,8.0005 C8.4995,8.98263333 10.8356111,9.00042 10.9913519,11.2587553 L10.9995,11.5005 L10.9995,11.7505 C10.9995,11.8687857 10.9172143,11.9679694 10.8068003,11.9938936 L10.7495,12.0005 L5.2495,12.0005 C5.13121429,12.0005 5.03203061,11.9182143 5.00610641,11.8078003 L4.9995,11.7505 L4.9995,11.5005 C4.9995,8.9855 7.4995,8.9855 7.4995,8.0005 C7.4995,7.05043103 5.16894114,6.98877111 5.00821294,4.7489548 L4.9995,4.5005 L4.9995,4.2505 C4.9995,4.13307143 5.08178571,4.03327551 5.19219971,4.00715889 L5.2495,4.0005 L10.7495,4.0005 Z M7.7375,9.5685 C7.5015,9.6475 6.6685,9.9155 6.5525,10.7315 L6.55015003,10.7476714 L6.54861897,10.7584836 C6.54760981,10.7656947 6.54662544,10.7729073 6.54567578,10.7800957 L6.54427859,10.7908568 C6.53314677,10.8781794 6.52792312,10.9599575 6.54666649,10.9891758 L6.5655,11.0005 L9.4345,11.0005 C9.47421831,11.0005 9.46965969,10.9026623 9.45643077,10.7950981 L9.45508028,10.7843125 L9.45367992,10.7734817 L9.45223758,10.7626252 C9.45175067,10.7590042 9.45125811,10.7553823 9.45076117,10.7517625 L9.4485,10.7355 C9.3365,9.9295 8.4995,9.6515 8.2635,9.5685 C8.0045,9.4795 8.0045,9.4795 7.7375,9.5685 Z M9.4345,4.959 L6.5665,4.959 C6.52545775,4.959 6.53245152,5.0642315 6.54620802,5.17614334 L6.547559,5.18699108 L6.54964648,5.20329744 C6.55058706,5.21054572 6.55154192,5.21778873 6.5525,5.225 C6.6645,6.031 7.5015,6.309 7.7375,6.392 C7.95529221,6.46655194 7.99064809,6.47865454 8.1533221,6.42830777 L8.2645,6.392 C8.5005,6.312 9.3335,6.045 9.4495,5.228 L9.45264448,5.20626995 L9.454893,5.18990934 C9.47048016,5.07356775 9.4768662,4.959 9.4345,4.959 Z"></path></clipPath></defs><g transform="translate(4.0 4.0)"><g clip-path="url(#i0)"><polygon points="0,0 16,0 16,16 0,16 0,0" stroke="none" fill="#151515"></polygon></g></g></svg>