<?xml version="1.0" encoding="UTF-8"?><svg version="1.1" width="24px" height="24px" viewBox="0 0 24.0 24.0" xmlns="http://www.w3.org/2000/svg" xmlns:xlink="http://www.w3.org/1999/xlink"><defs><clipPath id="i0"><path d="M7.984375,0 C8.53645833,0 9.0703125,0.0520833333 9.5859375,0.15625 C10.1015625,0.260416667 10.6041667,0.421875 11.09375,0.640625 C11.5729167,0.848958333 12.0260417,1.09635417 12.453125,1.3828125 C12.8802083,1.66927083 13.2708333,1.99479167 13.625,2.359375 C13.9895833,2.71354167 14.3151042,3.10416667 14.6015625,3.53125 C14.8880208,3.95833333 15.1354167,4.41145833 15.34375,4.890625 C15.5625,5.38020833 15.7239583,5.8828125 15.828125,6.3984375 C15.9322917,6.9140625 15.984375,7.44791667 15.984375,8 C15.984375,8.55208333 15.9322917,9.08854167 15.828125,9.609375 C15.7239583,10.1302083 15.5625,10.6302083 15.34375,11.109375 C15.1354167,11.5989583 14.8880208,12.0546875 14.6015625,12.4765625 C14.3151042,12.8984375 13.9895833,13.2916667 13.625,13.65625 C13.2708333,14.0208333 12.8802083,14.3463542 12.453125,14.6328125 C12.0260417,14.9192708 11.5729167,15.1666667 11.09375,15.375 C10.6041667,15.5833333 10.1015625,15.7395833 9.5859375,15.84375 C9.0703125,15.9479167 8.53645833,16 7.984375,16 C7.453125,16 6.9375,15.953125 6.4375,15.859375 C5.9375,15.765625 5.453125,15.6197917 4.984375,15.421875 L6.03125,13.59375 C6.33333333,13.6979167 6.64322917,13.7760417 6.9609375,13.828125 C7.27864583,13.8802083 7.609375,13.90625 7.953125,13.90625 C8.34895833,13.90625 8.73697917,13.8697917 9.1171875,13.796875 C9.49739583,13.7239583 9.86979167,13.609375 10.234375,13.453125 C10.5885417,13.296875 10.9192708,13.1145833 11.2265625,12.90625 C11.5338542,12.6979167 11.8229167,12.4583333 12.09375,12.1875 C12.3645833,11.9270833 12.6041667,11.640625 12.8125,11.328125 C13.0208333,11.015625 13.203125,10.6822917 13.359375,10.328125 C13.515625,9.96354167 13.6328125,9.59114583 13.7109375,9.2109375 C13.7890625,8.83072917 13.828125,8.4375 13.828125,8.03125 C13.828125,7.63541667 13.7890625,7.24739583 13.7109375,6.8671875 C13.6328125,6.48697917 13.515625,6.11458333 13.359375,5.75 C13.203125,5.39583333 13.0208333,5.06510417 12.8125,4.7578125 C12.6041667,4.45052083 12.3645833,4.16145833 12.09375,3.890625 C11.8229167,3.61979167 11.5338542,3.38020833 11.2265625,3.171875 C10.9192708,2.96354167 10.5885417,2.78125 10.234375,2.625 C9.88020833,2.46875 9.515625,2.35416667 9.140625,2.28125 C8.765625,2.20833333 8.38020833,2.16666667 7.984375,2.15625 Z M2.28125,9.578125 C2.3125,9.703125 2.34895833,9.828125 2.390625,9.953125 C2.43229167,10.078125 2.47916667,10.203125 2.53125,10.328125 C2.6875,10.6822917 2.87239583,11.015625 3.0859375,11.328125 C3.29947917,11.640625 3.53645833,11.9322917 3.796875,12.203125 C3.83854167,12.2447917 3.8828125,12.2838542 3.9296875,12.3203125 C3.9765625,12.3567708 4.02083333,12.3958333 4.0625,12.4375 L3.015625,14.265625 C2.890625,14.171875 2.7734375,14.0755208 2.6640625,13.9765625 C2.5546875,13.8776042 2.44791667,13.7708333 2.34375,13.65625 C1.97916667,13.2916667 1.65364583,12.8984375 1.3671875,12.4765625 C1.08072917,12.0546875 0.833333333,11.5989583 0.625,11.109375 C0.520833333,10.890625 0.432291667,10.6640625 0.359375,10.4296875 C0.286458333,10.1953125 0.223958333,9.95833333 0.171875,9.71875 Z M0.84375,4.40625 L2.734375,5.34375 C2.69270833,5.41666667 2.65625,5.48697917 2.625,5.5546875 C2.59375,5.62239583 2.5625,5.69270833 2.53125,5.765625 C2.42708333,6.00520833 2.34114583,6.25260417 2.2734375,6.5078125 C2.20572917,6.76302083 2.15625,7.02604167 2.125,7.296875 L0,7.4375 C0.03125,6.98958333 0.0989583333,6.5546875 0.203125,6.1328125 C0.307291667,5.7109375 0.447916667,5.296875 0.625,4.890625 C0.65625,4.80729167 0.690104167,4.72395833 0.7265625,4.640625 C0.763020833,4.55729167 0.802083333,4.47916667 0.84375,4.40625 Z"></path></clipPath></defs><g transform="translate(4.0 4.0)"><g clip-path="url(#i0)"><polygon points="0,0 15.984375,0 15.984375,16 0,16 0,0" stroke="none" fill="#151515"></polygon></g></g></svg>