<?xml version="1.0" encoding="UTF-8"?><svg version="1.1" width="24px" height="24px" viewBox="0 0 24.0 24.0" xmlns="http://www.w3.org/2000/svg" xmlns:xlink="http://www.w3.org/1999/xlink"><defs><clipPath id="i0"><path d="M7.99319415,0 C12.3988917,0 15.9843902,3.58649756 15.9843902,7.99219512 C15.9843902,12.3998907 12.3988917,15.9843902 7.99319415,15.9843902 C3.58449951,15.9843902 0,12.3998907 0,7.99219512 C0,3.58649756 3.58449951,0 7.99319415,0 Z M7.99319415,1.99704976 C4.68742244,1.99704976 1.9990478,4.68642341 1.9990478,7.9911961 C1.9990478,11.2989659 4.68742244,13.9853424 7.99319415,13.9853424 C11.2979668,13.9853424 13.9873405,11.2979668 13.9873405,7.9911961 C13.9863415,4.68642341 11.2979668,1.99704976 7.99319415,1.99704976 Z M4.1204761,6.74391415 C4.81015852,6.74391415 5.36925659,7.30301221 5.36925659,7.99269463 C5.36925659,8.68237705 4.81015852,9.24147512 4.1204761,9.24147512 C3.43079368,9.24147512 2.87169561,8.68237705 2.87169561,7.99269463 C2.87169561,7.30301221 3.43079368,6.74391415 4.1204761,6.74391415 Z M8.00730537,6.74391415 C8.69698779,6.74391415 9.25608585,7.30301221 9.25608585,7.99269463 C9.25608585,8.68237705 8.69698779,9.24147512 8.00730537,9.24147512 C7.31762295,9.24147512 6.75852488,8.68237705 6.75852488,7.99269463 C6.75852488,7.30301221 7.31762295,6.74391415 8.00730537,6.74391415 Z M11.8785249,6.74391415 C12.5682073,6.74391415 13.1273054,7.30301221 13.1273054,7.99269463 C13.1273054,8.68237705 12.5682073,9.24147512 11.8785249,9.24147512 C11.1888425,9.24147512 10.6297444,8.68237705 10.6297444,7.99269463 C10.6297444,7.30301221 11.1888425,6.74391415 11.8785249,6.74391415 Z"></path></clipPath></defs><g transform="translate(4.000499512195119 4.01511024390244)"><g clip-path="url(#i0)"><polygon points="0,0 15.9843902,0 15.9843902,15.9843902 0,15.9843902 0,0" stroke="none" fill="#151515"></polygon></g></g></svg>