<?xml version="1.0" encoding="UTF-8"?><svg version="1.1" width="24px" height="24px" viewBox="0 0 24.0 24.0" xmlns="http://www.w3.org/2000/svg" xmlns:xlink="http://www.w3.org/1999/xlink"><defs><clipPath id="i0"><path d="M15,6 C15.5520705,6.00051684 15.9994831,6.44792947 16,7 L16,15 C15.9994831,15.5520705 15.5520705,15.9994831 15,16 L7,16 C6.44792947,15.9994831 6.00051684,15.5520705 5.99998527,15 L5.99998527,9.1390625 C5.99944491,9.08808361 6.02990511,9.041876 6.07697548,9.02229197 C6.12404588,9.00270794 6.17829298,9.01367238 6.2140625,9.05 L6.9640625,9.8 C6.98727781,9.82381284 7.0001875,9.85580642 7,9.8890625 L7,15 L15,15 L15,7 L9.8890625,7 C9.85575092,7.00048122 9.82364895,6.9875278 9.8,6.9640625 L9.05,6.2140625 C9.01447948,6.17801411 9.00402302,6.1241883 9.0234635,6.07746292 C9.042904,6.03073753 9.0884547,6.00021398 9.1390625,6 Z M2.79630786,2.79943286 C3.18259544,2.41314527 3.80832127,2.41130444 4.196875,2.7953125 L10.9703125,9.565625 L12.4125,8.11875 C12.6296875,7.9015625 13,8.0546875 13,8.3609375 L13,12.490625 C13,12.7719093 12.7719093,13 12.490625,13 L8.3625,13 C8.05625,13 7.903125,12.628125 8.1203125,12.4125 L9.5640625,10.9734375 L2.7921875,4.2 C2.40817944,3.81144627 2.41002027,3.18572044 2.79630786,2.79943286 Z M0.875,7 C0.944035594,7 1,7.05596441 1,7.125 L1,8 L1.875,8 C1.94403559,8 2,8.05596441 2,8.125 L2,8.875 C2,8.94403559 1.94403559,9 1.875,9 L1,9 C0.447929473,8.99948316 0.000516839653,8.55207053 0,8 L0,7.125 C0,7.05596441 0.0559644063,7 0.125,7 Z M4.875,8 C4.94403559,8 5,8.05596441 5,8.125 L5,8.875 C5,8.94403559 4.94403559,9 4.875,9 L3.125,9 C3.05596441,9 3,8.94403559 3,8.875 L3,8.125 C3,8.05596441 3.05596441,8 3.125,8 L4.875,8 Z M0.875,3 C0.944035594,3 1,3.05596441 1,3.125 L1,5.875 C1,5.94403559 0.944035594,6 0.875,6 L0.125,6 C0.0559644063,6 0,5.94403559 0,5.875 L0,3.125 C0,3.05596441 0.0559644063,3 0.125,3 Z M8.875,3 C8.94403559,3 9,3.05596441 9,3.125 L9,4.875 C9,4.94403559 8.94403559,5 8.875,5 L8.125,5 C8.05596441,5 8,4.94403559 8,4.875 L8,3.125 C8,3.05596441 8.05596441,3 8.125,3 Z M8,0 C8.55207053,0.000516839653 8.99948316,0.447929473 9,1 L9,1.875 C9,1.94403559 8.94403559,2 8.875,2 L8.125,2 C8.05596441,2 8,1.94403559 8,1.875 L8,1 L7.125,1 C7.05596441,1 7,0.944035594 7,0.875 L7,0.125 C7,0.0559644063 7.05596441,0 7.125,0 Z M1.875,0 C1.94403559,0 2,0.0559644063 2,0.125 L2,0.875 C2,0.944035594 1.94403559,1 1.875,1 L1,1 L1,1.875 C1,1.94403559 0.944035594,2 0.875,2 L0.125,2 C0.0559644063,2 0,1.94403559 0,1.875 L0,1 C0.000516839653,0.447929473 0.447929473,0.000516839653 1,0 Z M5.875,0 C5.94403559,0 6,0.0559644063 6,0.125 L6,0.875 C6,0.944035594 5.94403559,1 5.875,1 L3.125,1 C3.05596441,1 3,0.944035594 3,0.875 L3,0.125 C3,0.0559644063 3.05596441,0 3.125,0 Z"></path></clipPath></defs><g transform="translate(4.0 4.0)"><g clip-path="url(#i0)"><polygon points="0,0 16,0 16,16 0,16 0,0" stroke="none" fill="#151515"></polygon></g></g></svg>