<?xml version="1.0" encoding="UTF-8"?><svg version="1.1" width="24px" height="24px" viewBox="0 0 24.0 24.0" xmlns="http://www.w3.org/2000/svg" xmlns:xlink="http://www.w3.org/1999/xlink"><defs><clipPath id="i0"><path d="M11.1624851,1.9343826 C11.3812346,1.54687131 11.8874895,1.43124048 12.2499765,1.69060876 C14.2187218,3.09685541 15.4999687,5.39686824 15.4999687,7.99998093 C15.4999687,12.2749646 12.0374831,15.7405936 7.76561214,15.7499813 C3.5,15.7593313 0.0062617478,12.2812207 2.22044605e-14,8.0124931 C-0.00310712635,5.4093499 1.27813982,3.1031115 3.24374182,1.69375207 C3.60937205,1.43438379 4.11873974,1.54375853 4.33748921,1.9343826 L4.83123193,2.81249329 C5.0156187,3.14061751 4.92812501,3.55623542 4.62499463,3.78124098 C3.32812272,4.74373259 2.5,6.26872285 2.5,7.99686814 C2.49688691,10.8812302 4.82811915,13.2499684 7.74998718,13.2499684 C10.6124682,13.2499684 13.0187124,10.9312178 12.9999747,7.96561822 C12.9906058,6.34684766 12.2280954,4.78435139 10.8718669,3.7781282 C10.5687366,3.55312263 10.4843557,3.13750473 10.6687424,2.81249329 Z M8.24998599,0 C8.6656039,0 8.99999016,0.334380306 8.99999016,0.749998212 L8.99999016,8.24998033 C8.99999016,8.66559824 8.6656039,8.99997854 8.24998599,8.99997854 L7.24998837,8.99997854 C6.83437047,8.99997854 6.49999016,8.66559824 6.49999016,8.24998033 L6.49999016,0.749998212 C6.49999016,0.334380306 6.83437047,0 7.24998837,0 Z"></path></clipPath></defs><g transform="translate(3.9999999999999423 4.000000000000001)"><g clip-path="url(#i0)"><polygon points="-5.63866318e-06,0 15.4999687,0 15.4999687,15.7500001 -5.63866318e-06,15.7500001 -5.63866318e-06,0" stroke="none" fill="#151515"></polygon></g></g></svg>