<?xml version="1.0" encoding="UTF-8"?><svg version="1.1" width="24px" height="24px" viewBox="0 0 24.0 24.0" xmlns="http://www.w3.org/2000/svg" xmlns:xlink="http://www.w3.org/1999/xlink"><defs><clipPath id="i0"><path d="M8.3181717,1.31775588 C9.47536498,0.160898288 11.1056712,-0.234425476 12.586289,0.132455973 C12.8703459,0.203073481 12.9700466,0.555581185 12.7631684,0.762459354 L10.439413,3.08618428 L10.7928667,5.20742556 L12.914108,5.56087931 L15.2378635,3.23712386 C15.4434904,3.03149691 15.7966085,3.12713877 15.8666156,3.40930363 C16.2350229,4.89086748 15.84034,6.52367609 14.6819261,7.68212059 C13.4350418,8.92900482 11.6428708,9.27366953 10.0766209,8.7514845 L3.41382548,15.4142799 C2.63288252,16.1952229 1.36665018,16.1952229 0.585707222,15.4142799 C-0.195235741,14.6333369 -0.195235741,13.3671046 0.585707222,12.5861616 L7.25411784,5.91775102 C6.73849407,4.35211144 7.07943564,2.55649194 8.3181717,1.31775588 Z M2.00007153,13.2499174 C1.58601001,13.2499174 1.25007331,13.5855489 1.25007331,13.9999156 C1.25007331,14.4139771 1.58601001,14.7499174 2.00007153,14.7499174 C2.41413304,14.7499174 2.75007331,14.4139771 2.75007331,13.9999156 C2.75007331,13.5855489 2.41413304,13.2499174 2.00007153,13.2499174 Z"></path></clipPath></defs><g transform="translate(3.999999999999943 3.9999999999999423)"><g clip-path="url(#i0)"><polygon points="0,-2.93098879e-14 16.0000023,-2.93098879e-14 16.0000023,15.9999871 0,15.9999871 0,-2.93098879e-14" stroke="none" fill="#151515"></polygon></g></g></svg>