<?xml version="1.0" encoding="UTF-8"?>
<svg width="226px" height="44px" viewBox="0 0 226 44" version="1.1" xmlns="http://www.w3.org/2000/svg" xmlns:xlink="http://www.w3.org/1999/xlink">
    <title></title>
    <defs>
        <linearGradient x1="49.9422414%" y1="3.14212121%" x2="49.9422414%" y2="100.337273%" id="linearGradient-1">
            <stop stop-color="#00F1FF" offset="0%"></stop>
            <stop stop-color="#0076C1" offset="100%"></stop>
        </linearGradient>
    </defs>
    <g id="Masthead" stroke="none" stroke-width="1" fill="none" fill-rule="evenodd">
        <g id="Masthead-/-6.-Logo-(format)-/-SVG-Logo" fill-rule="nonzero">
            <g id="PF-Logo" transform="translate(0.000000, 6.000000)">
                <path d="M12.2701149,25.7 L7.04022989,26.9 L0,17 L17.0977011,0.4 L17.5,0 L17.9022989,0.4 L35,17 L27.9597701,26.9 L22.7298851,25.7 L17.5,33 L12.2701149,25.7 Z M17.5,31.3 L21.7241379,25.5 L20.4166667,25.2 L17.6005747,29.3 L14.5833333,25.2 L13.2758621,25.5 L17.5,31.3 Z M17.6005747,27.5 L19.612069,24.5 L17.5,4.2 L15.387931,24.5 L17.6005747,27.5 Z M27.4568966,25.7 L33.591954,17.1 L23.2327586,7 L28.7643678,13.7 L25.6465517,18 L26.6522989,20.3 L23.433908,24.8 L27.4568966,25.7 Z M7.44252874,25.7 L11.566092,24.8 L8.34770115,20.3 L9.35344828,18 L6.23563218,13.7 L11.6666667,7 L1.30747126,17.1 L7.44252874,25.7 Z M12.6724138,24.5 L13.9798851,24.2 L10.0574713,18.9 L9.5545977,20.1 L12.6724138,24.5 Z M22.3275862,24.5 L25.4454023,20.1 L24.9425287,18.9 L21.0201149,24.2 L22.3275862,24.5 Z M20.5172414,23.1 L24.4396552,17.8 L18.6063218,4.6 L20.5172414,23.1 Z M14.3821839,23.1 L16.3936782,4.6 L10.5603448,17.9 L14.3821839,23.1 Z M9.85632184,16.9 L15.6896552,3.8 L7.54310345,13.7 L9.85632184,16.9 Z M25.1436782,16.9 L27.4568966,13.7 L19.3103448,3.8 L25.1436782,16.9 Z" id="pf-shape" fill="url(#linearGradient-1)"></path>
                <g id="pf-letters" transform="translate(50.000000, 10.000000)" fill="#FFFFFF">
                    <path d="M0.8,13 L0.8,0.9 L6,0.9 C6.8,0.9 7.4,1 7.9,1.2 C8.4,1.4 8.8,1.7 9.2,2.1 C9.5,2.5 9.8,2.9 9.9,3.3 C10,3.8 10.1,4.2 10.1,4.7 C10.1,5 10.1,5.3 10,5.6 C9.9,5.9 9.8,6.2 9.7,6.5 C9.6,6.8 9.4,7 9.2,7.3 C9,7.5 8.7,7.8 8.4,8 C8.1,8.2 7.7,8.3 7.3,8.4 C6.9,8.5 6.5,8.6 6,8.6 L3.1,8.6 L3.1,13 L0.8,13 Z M6.1,6.3 C6.4,6.3 6.6,6.3 6.9,6.2 C7.1,6.1 7.3,6 7.4,5.8 C7.5,5.6 7.6,5.5 7.7,5.3 C7.8,5.1 7.8,4.9 7.8,4.7 C7.8,4.5 7.8,4.3 7.7,4.2 C7.7,4 7.6,3.8 7.4,3.7 C7.3,3.5 7.1,3.4 6.9,3.3 C6.7,3.2 6.4,3.1 6.1,3.1 L3.1,3.1 L3.1,6.3 L6.1,6.3 Z" id="Shape"></path>
                    <path d="M26.2,13 L25.3,10.5 L20.6,10.5 L19.7,13 L17.2,13 L21.8,0.9 L24.1,0.9 L28.7,13 L26.2,13 Z M23.3,5.2 C23.2,5.1 23.2,4.9 23.1,4.7 C23,4.5 23,4.3 22.9,4.1 C22.9,4.3 22.8,4.5 22.7,4.7 C22.6,4.9 22.6,5.1 22.5,5.2 L21.3,8.3 L24.5,8.3 L23.3,5.2 Z" id="Shape"></path>
                    <polygon id="Path" points="41.9 3.2 41.9 13 39.6 13 39.6 3.2 36.1 3.2 36.1 0.9 45.4 0.9 45.4 3.2"></polygon>
                    <polygon id="Path" points="60 3.2 60 13 57.7 13 57.7 3.2 54.2 3.2 54.2 0.9 63.5 0.9 63.5 3.2"></polygon>
                    <polygon id="Path" points="73.1 13 73.1 0.9 81.4 0.9 81.4 3.1 75.5 3.1 75.5 5.6 79 5.6 79 7.8 75.5 7.8 75.5 10.7 81.8 10.7 81.8 13"></polygon>
                    <path d="M91.5,13 L91.5,0.9 L97.1,0.9 C97.9,0.9 98.5,1 99,1.2 C99.5,1.4 99.9,1.7 100.2,2 C100.5,2.3 100.7,2.8 100.9,3.2 C101,3.7 101.1,4.1 101.1,4.6 C101.1,4.9 101,5.3 101,5.6 C100.9,6 100.8,6.3 100.6,6.6 C100.4,6.9 100.2,7.2 99.9,7.5 C99.6,7.8 99.3,8 98.9,8.1 L101.2,12.9 L98.6,12.9 L96.3,8.4 L93.9,8.4 L93.9,13 L91.5,13 Z M97.2,6.3 C97.5,6.3 97.7,6.3 98,6.2 C98.2,6.1 98.4,6 98.5,5.8 C98.6,5.7 98.7,5.5 98.8,5.3 C98.9,5.1 98.9,4.9 98.9,4.7 C98.9,4.5 98.9,4.3 98.8,4.1 C98.8,3.9 98.7,3.7 98.6,3.6 C98.5,3.5 98.3,3.3 98.1,3.2 C97.9,3.1 97.6,3.1 97.3,3.1 L94,3.1 L94,6.3 L97.2,6.3 Z" id="Shape"></path>
                    <path d="M118.8,13 L114,5.9 C113.9,5.8 113.8,5.6 113.7,5.5 C113.6,5.3 113.5,5.2 113.5,5 C113.5,5.1 113.5,5.3 113.5,5.5 C113.5,5.7 113.5,5.8 113.5,6 L113.5,13 L111.2,13 L111.2,0.9 L113.4,0.9 L118.1,7.9 C118.2,8 118.3,8.2 118.4,8.3 C118.5,8.5 118.6,8.6 118.7,8.8 C118.7,8.6 118.7,8.5 118.7,8.3 C118.7,8.1 118.7,8 118.7,7.9 L118.7,0.9 L121,0.9 L121,13 L118.8,13 Z" id="Path"></path>
                    <polygon id="Path" points="131.3 13 131.3 0.9 139.4 0.9 139.4 3.1 133.6 3.1 133.6 5.6 137.3 5.6 137.3 7.8 133.6 7.8 133.6 13"></polygon>
                    <polygon id="Path" points="148.8 13 148.8 0.9 151.1 0.9 151.1 10.8 156.9 10.8 156.9 13"></polygon>
                    <polygon id="Path" points="168.2 13 168.2 8.3 163.7 0.9 166.3 0.9 169.3 5.8 172.3 0.9 175 0.9 170.5 8.3 170.5 13"></polygon>
                </g>
            </g>
        </g>
    </g>
</svg>