<?xml version="1.0" encoding="UTF-8"?>
<svg width="24px" height="24px" viewBox="0 0 24 24" version="1.1" xmlns="http://www.w3.org/2000/svg" xmlns:xlink="http://www.w3.org/1999/xlink">
    <title></title>
    <g id="Icons" stroke="none" stroke-width="1" fill="none" fill-rule="evenodd">
        <g id="Icons-/-2.-Size-sm-/-Brands-/-js" fill="#151515">
            <path d="M17.499975,17.499975 L17.499975,7 L7,7 L7,17.499975 L17.499975,17.499975 Z M15.0484275,16.6773298 C14.1320097,16.6773298 13.5390469,16.2413796 13.2507709,15.6695197 L14.0546707,15.20544 C14.2656077,15.549975 14.5421649,15.8054523 15.0273246,15.8054523 C15.4351453,15.8054523 15.6976264,15.601542 15.6976264,15.3179581 C15.6976264,14.9804497 15.4304532,14.8609279 14.9781151,14.6617096 L14.732022,14.5562411 C14.0195145,14.253889 13.548431,13.8718632 13.548431,13.0679634 C13.548431,12.3273265 14.1132643,11.7648278 14.9921684,11.7648278 C15.6202874,11.7648278 16.0702909,11.9827915 16.393723,12.5546743 L15.6249794,13.0468606 C15.4562253,12.7445084 15.2734178,12.6249866 14.9898339,12.6249866 C14.701535,12.6249866 14.5187275,12.8077941 14.5187275,13.0468606 C14.5187275,13.3421632 14.701535,13.4617079 15.1257665,13.64685 L15.3718596,13.7523185 C16.2109155,14.1109297 16.681999,14.4788793 16.681999,15.3038819 C16.681999,16.1898127 15.9835678,16.6773298 15.0484275,16.6773298 Z M11.2398428,16.6773298 C10.4499964,16.6773298 9.99296619,16.2695091 9.75859175,15.7749882 L10.5624915,15.2898286 C10.7171695,15.5640512 10.8577941,15.7960682 11.1976371,15.7960682 C11.5210921,15.7960682 11.7273371,15.6695197 11.7273371,15.1749759 L11.7273371,11.8210868 L12.7140443,11.8210868 L12.7140443,15.1890521 C12.7140443,16.2109155 12.1140549,16.6773298 11.2398428,16.6773298 Z" id="js"></path>
        </g>
    </g>
</svg>