<?xml version="1.0" encoding="UTF-8"?>
<svg width="24px" height="24px" viewBox="0 0 24 24" version="1.1" xmlns="http://www.w3.org/2000/svg" xmlns:xlink="http://www.w3.org/1999/xlink">
    <title></title>
    <g id="Icons" stroke="none" stroke-width="1" fill="none" fill-rule="evenodd">
        <g id="Icons-/-2.-Size-sm-/-Brands-/-linux" fill="#151515">
            <path d="M14.2591999,17.9976436 C14.6482523,17.9671566 15.0584076,17.7398317 15.3912239,17.3437297 C15.709964,16.9593465 16.2349719,16.7999765 16.5841761,16.5890395 C16.7576223,16.483571 16.898247,16.3523304 16.9099657,16.1601388 C16.9193498,15.9679472 16.8068318,15.7546756 16.5466853,15.4640421 C16.4623197,15.3702924 16.4224714,15.192177 16.3779311,15.0023199 C16.3357483,14.8124858 16.2865388,14.6085754 16.131838,14.4773349 C16.1013739,14.45154 16.0709098,14.4281025 16.0380882,14.4093572 C16.0076241,14.3906118 15.9748025,14.374201 15.9420038,14.3624823 C16.1576329,13.7226446 16.0732444,13.0851416 15.8552807,12.5085896 C15.5880847,11.8031088 15.1216933,11.1867086 14.7654396,10.7648346 C14.3646684,10.2609296 13.9755931,9.78281943 13.9826198,9.07733863 C13.9943385,8.00157367 14.1021645,6.00234138 12.2060661,6 C9.80608554,5.99531472 10.406075,8.42344767 10.3803029,9.16875381 C10.3404547,9.71717627 10.2302941,10.1484344 9.85296043,10.685161 C9.40998358,11.2125035 8.78655672,12.0632782 8.49123119,12.9515436 C8.35060653,13.371083 8.28498626,13.797649 8.34591446,14.2007776 C8.19357107,14.3367102 8.07874133,14.5452898 7.95686204,14.6741957 C7.8584202,14.774995 7.71546095,14.8124858 7.55842549,14.8687448 C7.40139004,14.9249809 7.23030128,15.0093695 7.12483278,15.2085877 C7.0756233,15.29998 7.05921251,15.3984219 7.05921251,15.4991983 C7.05921251,15.5906135 7.07326582,15.6843633 7.08734202,15.7757556 C7.11544865,15.9656126 7.14593563,16.143728 7.1060874,16.2632727 C6.98420811,16.6007582 6.96779732,16.8351326 7.05452045,17.0062214 C7.14357816,17.177333 7.32171646,17.2523146 7.52560392,17.2945203 C7.93109001,17.3788859 8.48186995,17.3577831 8.91546266,17.5874883 C9.37951948,17.831224 9.85060295,17.9179471 10.2256021,17.831224 C10.4974901,17.7702958 10.7201459,17.6062337 10.832641,17.3577831 C11.1256091,17.3554485 11.4490412,17.2312346 11.964665,17.2031051 C12.3138921,17.1749756 12.752154,17.327319 13.256059,17.2991894 C13.2701352,17.3531139 13.2888806,17.4070154 13.3146526,17.4562249 L13.3146526,17.4585824 C13.5092017,17.8499694 13.8724821,18.0281077 14.2591999,17.9976436 Z M12.8763907,8.98358885 C12.8388771,8.96484347 12.7381006,8.92266065 12.5810652,8.86875911 C12.6068601,8.8406296 12.653735,8.80547343 12.6724804,8.76093313 C12.7849755,8.48437587 12.6677883,8.12812214 12.4591859,8.12109548 C12.2880971,8.10937676 12.1334192,8.3742153 12.1826286,8.6601567 C12.0865443,8.61328181 11.9623304,8.57812564 11.8779419,8.55702279 C11.8545044,8.39531816 11.8709152,8.21484526 11.9459196,8.04609108 C12.175602,7.52577525 12.7474848,7.53515938 12.9771672,8.03672984 C13.1295105,8.36952324 13.0615328,8.76093313 12.8763907,8.98358885 Z M10.7951274,8.99766505 C10.4295124,8.65546463 10.5490342,7.77656048 10.9920111,7.77656048 C11.2287201,7.77656048 11.4795053,8.10937676 11.4396571,8.56171486 C11.357626,8.5851523 11.2732604,8.62030847 11.2006135,8.66954083 C11.2287201,8.46093842 11.1232516,8.19843447 10.9756003,8.21015319 C10.7787395,8.22656398 10.7459179,8.70703159 10.9334174,8.86875911 C10.9568549,8.88750448 10.9779577,8.86406704 10.7951274,8.99766505 Z M11.6131033,10.2468762 C11.5216881,10.2421842 11.4490412,10.2234388 11.388113,10.1976439 C11.2006135,10.1156128 11.1021716,9.95390819 10.9193641,9.84608222 C10.7177884,9.73358706 10.6099853,9.60234653 10.5748291,9.4874939 C10.5420076,9.37266415 10.5748291,9.2765569 10.673271,9.19921791 C10.8185648,9.09141483 10.9920111,8.96484347 11.0037298,8.95312475 C11.1138903,8.84999084 11.3201353,8.62030847 11.6576436,8.62030847 C11.8240403,8.62030847 12.0232586,8.67421001 12.2646597,8.82891087 C12.412311,8.92499524 12.5294982,8.93202189 12.7943597,9.04687453 C12.9912205,9.12890558 13.1154343,9.27422231 13.0404528,9.47344059 C12.9795017,9.63983729 12.7826409,9.81092605 12.5084183,9.89764917 C12.2482489,9.9820377 12.0443615,10.2726483 11.6131033,10.2468762 Z M11.5920005,9.90000665 C11.8638886,9.90000665 12.119343,9.76171657 12.3373295,9.64686394 C12.4521592,9.58593574 12.5927839,9.48280183 12.6841991,9.40312825 C12.7755914,9.32343179 12.8224663,9.25547693 12.756846,9.24842739 C12.6912258,9.24140073 12.6959178,9.30937848 12.6162214,9.36797209 C12.5131103,9.44297649 12.3888736,9.54139544 12.2904546,9.59765446 C12.1170084,9.69609631 11.8334245,9.83672097 11.5896659,9.83672097 C11.3459073,9.83672097 11.1513811,9.72422582 11.0060644,9.60937319 C10.9334174,9.55077957 10.8724892,9.49218596 10.8256144,9.44764567 C10.7904582,9.41484698 10.7810741,9.33984258 10.724815,9.33281592 C10.6920164,9.33045845 10.6826322,9.41953904 10.7646633,9.48515931 C10.8115382,9.52967672 10.8748238,9.59062781 10.9521628,9.65155601 C11.1068637,9.77343529 11.3224699,9.90000665 11.5920005,9.90000665 Z M10.7177884,16.4202853 C10.621704,16.2656073 10.4927981,16.1015452 10.3803029,15.9609205 C10.5466996,15.9609205 10.7130963,15.9093536 10.7716899,15.7523181 C10.8256144,15.6070243 10.7716899,15.4031139 10.5982666,15.1687395 C10.2818611,14.7421734 9.70061704,14.4070226 9.70061704,14.4070226 C9.38421155,14.2101389 9.20607324,13.9687378 9.12404218,13.7062338 C9.04201113,13.4437299 9.05372985,13.160146 9.11701553,12.8812312 C9.23889482,12.3445275 9.55294283,11.8218771 9.75451859,11.4937528 C9.80842013,11.4539046 9.77326396,11.5687344 9.55060824,11.9812471 C9.35138997,12.3585808 8.97872545,13.2304583 9.48968004,13.9124788 C9.50373336,13.427342 9.61858599,12.9327982 9.8131122,12.471076 C10.0943615,11.8289037 10.6873243,10.7156251 10.7341992,9.82969432 C10.7599712,9.84843969 10.8420023,9.90467583 10.8795159,9.92577868 C10.987319,9.98906436 11.06935,10.0828141 11.1748185,10.1671798 C11.465452,10.4015542 11.8427857,10.3828088 12.1685753,10.1953093 C12.3138921,10.1132782 12.4310793,10.0195285 12.541217,9.98437229 C12.7732568,9.91172537 12.9584218,9.78281943 13.0638903,9.63281063 C13.2443403,10.3453181 13.6662143,11.3742081 13.9357449,11.8757786 C14.078727,12.1429517 14.3646684,12.7078079 14.4888823,13.3898283 C14.5662213,13.3874938 14.6529444,13.3992125 14.7443367,13.4226499 C15.0677917,12.5859286 14.4701369,11.683587 14.1982488,11.4328018 C14.0880883,11.3249987 14.0834191,11.2781238 14.1373206,11.2804584 C14.4326233,11.5429623 14.8216986,12.0703048 14.9623232,12.6632676 C15.0279435,12.9351557 15.0396622,13.2187396 14.9716845,13.4999889 C15.3560677,13.659359 15.8130979,13.9195283 15.6912186,14.3156074 C15.6396516,14.3132728 15.6162142,14.3156074 15.5927768,14.3156074 C15.6677812,14.0788984 15.5013845,13.9031175 15.0584076,13.7038993 C14.5990429,13.5023235 14.2146596,13.5023235 14.1607581,13.9968673 C13.8771513,14.0953091 13.7318574,14.3414023 13.6591876,14.6367049 C13.5935674,14.8992089 13.574822,15.2156144 13.5560766,15.5718681 C13.5443579,15.7523181 13.4716881,15.9937421 13.3966837,16.251554 C12.6443509,16.7882577 11.59905,17.0226322 10.7177884,16.4202853 Z M13.4576348,17.3859126 C13.3474742,17.1257661 13.4013757,16.8445168 13.4834068,16.5351379 C13.5701299,16.2023216 13.6990359,15.8601441 13.7154466,15.5835868 C13.734192,15.2273331 13.7552949,14.9156197 13.8138885,14.6765532 C13.8748167,14.4351521 13.9685665,14.2734246 14.1349632,14.1820094 C14.1420127,14.1773402 14.1513739,14.1749827 14.1584006,14.1702907 C14.1771689,14.4796695 14.3295123,14.7937404 14.5990429,14.8616953 C14.8943455,14.9390571 15.3185541,14.6859144 15.499027,14.4796695 C15.709964,14.4726428 15.8669994,14.4585895 16.028727,14.5992142 C16.2607439,14.7984325 16.1951237,15.3093642 16.4294981,15.5742027 C16.6779258,15.8460679 16.7576223,16.0312329 16.7505957,16.1507547 C16.7294928,16.5445221 15.7849684,16.617169 15.2693446,17.2405958 C14.9599658,17.6085683 14.5802746,17.8124786 14.2474812,17.8382507 C13.9146649,17.8640456 13.6263889,17.7257555 13.4576348,17.3859126 Z M8.985775,17.4491982 C8.28498626,17.0788912 7.3779526,17.2968549 7.19281052,16.9359091 C7.1365515,16.8257714 7.1365515,16.6382718 7.25373872,16.3171743 L7.25373872,16.3124822 C7.30999774,16.1343668 7.26779203,15.9374831 7.23968541,15.7523181 C7.2115559,15.5695106 7.1974797,15.4007565 7.26076538,15.2835693 C7.34279643,15.1265567 7.45998365,15.0702977 7.60763497,15.0187307 C7.84905896,14.9320076 7.88421512,14.9390571 8.06702261,14.7867137 C8.19592855,14.6531157 8.28967833,14.4843616 8.40217348,14.3648398 C8.52169529,14.2359338 8.63654792,14.1749827 8.81702082,14.2031122 C9.00685496,14.2312417 9.17091707,14.3624823 9.33028711,14.5781113 L9.78967475,15.4124752 C10.0123305,15.8788895 10.7998194,16.5468566 10.75061,17.0273242 C10.6873243,17.8499694 9.72169701,17.8335815 8.985775,17.4491982 Z" id="linux"></path>
        </g>
    </g>
</svg>