<?xml version="1.0" encoding="UTF-8"?>
<svg width="24px" height="24px" viewBox="0 0 24 24" version="1.1" xmlns="http://www.w3.org/2000/svg" xmlns:xlink="http://www.w3.org/1999/xlink">
    <title></title>
    <g id="Icons" stroke="none" stroke-width="1" fill="none" fill-rule="evenodd">
        <g id="Icons-/-2.-Size-sm-/-Brands-/-stack-overflow" fill="#151515">
            <path d="M16.123409,11.3195164 L16.8734072,10.7570177 L14.0773247,7 L13.3273265,7.56249866 L16.123409,11.3195164 Z M15.3476387,12.221858 L15.9452936,11.4999893 L12.3476459,8.49296977 L11.7499911,9.21483847 L15.3476387,12.221858 Z M14.8202962,13.281235 L15.2140407,12.4304604 L10.9648367,10.4453043 L10.5734268,11.300771 L14.8202962,13.281235 Z M14.5577923,14.4531072 L14.7499839,13.5390469 L10.1632715,12.571085 L9.9710799,13.492172 L14.5577923,14.4531072 Z M16.4257612,17.499975 L16.4257612,13.7499839 L15.4882634,13.7499839 L15.4882634,16.5624772 L8.93749776,16.5624772 L8.93749776,13.7499839 L8,13.7499839 L8,17.499975 L16.4257612,17.499975 Z M14.5577923,15.6179528 L14.5577923,14.6874817 L9.87030346,14.6874817 L9.87030346,15.6179528 L14.5577923,15.6179528 Z" id="stack-overflow"></path>
        </g>
    </g>
</svg>