<svg xmlns="http://www.w3.org/2000/svg" width="24" height="24" viewBox="0 0 24 24">
  <path fill="#151515" fill-rule="evenodd" d="M9.63,9.555 C9.57,9.3925 9.345,9.38 9.265,9.5325 L6.62,14.595 C6.55,14.7275 6.415,14.8 6.265,14.8 L0,14.8 L0,11.6 L4.4475,11.6 C4.5225,11.6 4.59,11.565 4.625,11.5 L9.435,2.2925 C9.535,2.1 9.6925,2 9.885,2 C10.0775,2 10.27,2.1475 10.3475,2.3475 L14.7025,13.9675 C14.7625,14.125 14.975,14.1425 15.0625,14 L18.2925,8.6125 C18.365,8.4925 18.495,8.4 18.635,8.4 L24,8.4 L24,11.6 L20.335,11.6 C20.265,11.6 20.2,11.655 20.1625,11.715 L14.605,20.98 C14.525,21.1125 14.41,21.2 14.255,21.2 C14.1,21.2 13.95,21.0825 13.8875,20.915 L9.63,9.555 Z"/>
</svg>
