<svg xmlns="http://www.w3.org/2000/svg" width="24" height="24" viewBox="0 0 24 24">
  <path fill="#151515" fill-rule="evenodd" d="M14.9148833,7.50001704 C14.9148833,8.3273674 14.1484748,9.00001704 13.2062847,9.00001704 L11.4929986,9.00001704 L11.4929986,6.00001704 L13.2062847,6.00001704 C14.1484748,6.00001704 14.9148833,6.6726752 14.9148833,7.50001704 Z M19.8883349,9.07033826 C19.8883349,11.0062813 19.2813019,12.7992551 18.2477052,14.273478 C18.2266114,14.3016031 18.2078614,14.3297282 18.1867676,14.3531658 L11.5633113,23.153972 C11.5633113,23.153972 11.0758099,23.9906931 10.4594019,23.9906931 C10.4594019,23.9906931 9.90627529,24.107881 9.35314872,23.1586595 L2.70156733,14.3531658 C2.68281728,14.3297282 2.66641098,14.3062906 2.65000469,14.2828531 L2.64062966,14.2711343 C1.60703297,12.7992551 1,11.0039375 1,9.0679945 C1,4.05938653 5.43673135,0 10.4453393,0 C15.437541,0 19.8883349,4.05938653 19.8883349,9.07033826 Z M8.49298577,4.50001278 L6.99298577,4.50001278 L6.99298577,15.0000426 L8.49298577,15.0000426 L8.49298577,4.50001278 Z M16.7430135,7.50001278 C16.7430135,5.61095344 15.3109781,4.50001278 13.4219103,4.50001278 L9.99299429,4.50001278 L9.99299429,15.0000426 L11.4929943,15.0000426 L11.4929943,10.5000298 L13.4219103,10.5047173 C15.3086344,10.5047173 16.7430135,9.38908917 16.7430135,7.50001278 Z M23.4297512,9.63283986 C23.4227199,10.989875 23.614908,12.4078477 22.4406859,14.2031653 C22.4195921,14.2312904 22.400842,14.2594155 22.3797482,14.2875406 L15.8500422,23.1586595 C15.8500422,23.1586595 15.3742596,24 14.4250381,23.9953806 C14.4250381,23.9953806 13.597692,24.0914747 13.1031594,23.4070977 C13.2156597,23.2664723 13.2789411,23.1563158 13.2789411,23.1563158 L20.1836482,13.9476959 C20.204742,13.9195708 20.2258359,13.8914457 20.2445859,13.8633206 C21.2781826,12.3890977 21.6039648,11.0039375 21.6039648,9.0679945 C21.6039648,7.35705214 21.1445885,5.77970392 20.2891173,4.42032505 C19.9047412,3.89063605 19.318802,3.23672794 19.318802,3.23672794 C19.2461456,3.17344651 19.1664578,3.09610254 19.0914576,3.0117273 C19.0445825,2.9578209 18.9977074,2.89922698 18.9602073,2.83828931 C18.8617695,2.72813275 18.8008318,2.58281984 18.8008318,2.42344438 C18.8008318,2.08125591 19.0797388,1.80234887 19.4219273,1.80234887 C19.6164591,1.80234887 19.7875534,1.89141162 19.9023974,2.02969326 C20.0664604,2.14219358 20.2609922,2.31094406 20.4930241,2.56641354 C20.7508373,2.85235185 21.0063068,3.13594641 21.254745,3.4336035 C22.55553,4.9804829 23.4438137,7.04298875 23.4297512,9.63283986 L23.4297512,9.63283986 L23.4297512,9.63283986 Z"/>
</svg>
