<svg xmlns="http://www.w3.org/2000/svg" width="24" height="24" viewBox="0 0 24 24">
  <path fill="#151515" fill-rule="evenodd" d="M20,0 L3.5,0 C2.67265625,0 2,0.67265625 2,1.5 L2,18 C2,18.8273437 2.67265625,19.5 3.5,19.5 L3.44140625,24 L19.9414062,24 L19.9414062,19.5 C20.76875,19.5 21.5,18.8273437 21.5,18 L21.5,1.5 C21.5,0.67265625 20.8273437,0 20,0 Z M6.5,22.4390625 L5,22.4390625 L5,19.4390625 L6.5,19.4390625 L6.5,22.4390625 Z M9.5,22.4390625 L8,22.4390625 L8,19.4390625 L9.5,19.4390625 L9.5,22.4390625 Z M12.5,22.4390625 L11,22.4390625 L11,19.4390625 L12.5,19.4390625 L12.5,22.4390625 Z M15.5,22.4390625 L14,22.4390625 L14,19.4390625 L15.5,19.4390625 L15.5,22.4390625 Z M16.9765625,7.5 L15.5,7.5 L15.5,9 L16.9765625,9 L16.9765625,10.5 L15.5,10.5 L15.5,12 L16.9765625,12 L16.9765625,13.5 L15.5,13.5 L15.5,15 L14,15 L14,13.5 L12.5,13.5 L12.5,15 L11,15 L11,13.5 L9.5,13.5 L9.5,15 L8,15 L8,13.5 L6.5,13.5 L6.5,12 L8,12 L8,10.5 L6.5,10.5 L6.5,9 L8,9 L8,7.5 L6.5,7.5 L6.5,6 L8,6 L8,4.5 L9.5,4.5 L9.5,6 L11,6 L11,4.5 L12.5,4.5 L12.5,6 L14,6 L14,4.5 L15.5,4.5 L15.5,6 L16.9765625,6 L16.9765625,7.5 Z M18.5,22.4390625 L17,22.4390625 L17,19.4390625 L18.5,19.4390625 L18.5,22.4390625 Z"/>
</svg>
