<svg xmlns="http://www.w3.org/2000/svg" width="24" height="24" viewBox="0 0 24 24">
  <path fill="#151515" fill-rule="evenodd" d="M12,12.4 C14.3212646,12.4 16.2,10.5212646 16.2,8.2 C16.2,5.87873535 14.3212646,4 12,4 C9.67873535,4 7.8,5.87873535 7.8,8.2 C7.8,10.5212646 9.67873535,12.4 12,12.4 Z M3.6,11.2 C4.92374268,11.2 6,10.1237427 6,8.8 C6,7.47625732 4.92374268,6.4 3.6,6.4 C2.27625732,6.4 1.2,7.47625732 1.2,8.8 C1.2,10.1237427 2.27625732,11.2 3.6,11.2 Z M20.4,11.2 C21.7237427,11.2 22.8,10.1237427 22.8,8.8 C22.8,7.47625732 21.7237427,6.4 20.4,6.4 C19.0762573,6.4 18,7.47625732 18,8.8 C18,10.1237427 19.0762573,11.2 20.4,11.2 Z M22.8,17.2 C23.4637573,17.2 24,16.6637573 24,16 L24,14.8 C24,13.4762573 22.9237427,12.4 21.6,12.4 L19.2,12.4 C18.5400146,12.4 17.94375,12.6662354 17.5087646,13.0974854 C19.0200073,13.9262573 20.0924927,15.4224854 20.325,17.2 L22.8,17.2 Z M3.67126465,17.2 C3.90750732,15.4224854 4.97999268,13.9262573 6.49123535,13.0974854 C6.05625,12.6662354 5.45998535,12.4 4.8,12.4 L2.4,12.4 C1.07625732,12.4 0,13.4762573 0,14.8 L0,16 C0,16.6637573 0.536242676,17.2 1.2,17.2 L3.67126465,17.2 Z M17.4,20.8 C18.39375,20.8 19.2,19.99375 19.2,19 L19.2,17.9200073 C19.2,15.5349854 17.2650146,13.6 14.8799927,13.6 L14.56875,13.6 C13.7887573,13.975 12.9224854,14.2 12,14.2 C11.0775146,14.2 10.2150146,13.975 9.43125,13.6 L9.12000732,13.6 C6.73498535,13.6 4.8,15.5349854 4.8,17.9200073 L4.8,19 C4.8,19.99375 5.60625,20.8 6.6,20.8 L17.4,20.8 Z"/>
</svg>
