<svg xmlns="http://www.w3.org/2000/svg" width="560" height="43" viewBox="0 0 560 43">
  <g fill="none" fill-rule="evenodd">
    <rect width="560" height="8" y="35" fill="#3E8635"/>
    <path fill="#3E8635" d="M11.7499815,17.0520502 C16.0301837,17.0520502 19.499963,13.5822709 19.499963,9.30206871 C19.499963,5.02186651 16.0301837,1.55208718 11.7499815,1.55208718 C7.46977933,1.55208718 4,5.02186651 4,9.30206871 C4,13.5822709 7.46977933,17.0520502 11.7499815,17.0520502 Z M10.1464087,13.4056051 L6.89641643,10.1556128 C6.70119595,9.96036181 6.70119595,9.6437427 6.89641643,9.4484917 L7.60353755,8.7414011 C7.79878855,8.5461501 8.11540767,8.5461501 8.31065867,8.7414011 L10.4999845,10.9307574 L15.1893044,6.24143757 C15.3845859,6.04615606 15.701205,6.04615606 15.8964255,6.24143757 L16.6035466,6.94852817 C16.7987671,7.14377917 16.7987671,7.46039829 16.6035466,7.65564929 L10.8535603,13.4056356 C10.6582788,13.6008561 10.3416902,13.6008561 10.1464087,13.4056051 Z" transform="translate(536)"/>
    <text fill="#151515" font-family="RedHatText-Regular, Red Hat Text" font-size="14">
      <tspan x="502" y="13">100%</tspan>
    </text>
    <text fill="#151515" font-family="RedHatText-Regular, Red Hat Text" font-size="14">
      <tspan x="0" y="14">Title</tspan>
    </text>
    <rect width="559" height="15" x=".5" y=".5" fill="#3F9C35" fill-opacity=".9" stroke="#418A38" transform="translate(0 19)"/>
  </g>
</svg>
