<?xml version="1.0" encoding="UTF-8"?><svg version="1.1" width="990px" height="84px" viewBox="0 0 990.0 84.0" xmlns="http://www.w3.org/2000/svg" xmlns:xlink="http://www.w3.org/1999/xlink"><defs><clipPath id="i0"><path d="M990,0 L990,84 L0,84 L0,0 L990,0 Z"></path></clipPath><clipPath id="i1"><path d="M0.98282389,0.287818222 C1.36688669,-0.0959394075 1.98907759,-0.0959394075 2.37280471,0.287818222 L5.5,3.41500803 L8.62718433,0.287818222 C9.01124713,-0.0959394075 9.63340751,-0.0959394075 10.0171651,0.287818222 L10.7121708,0.98282389 C11.0959284,1.36688669 11.0959284,1.98907759 10.7121708,2.37280471 L7.584981,5.5 L10.7121708,8.62718433 C11.0959284,9.01124713 11.0959284,9.63340751 10.7121708,10.0171651 L10.0171651,10.7121708 C9.63340751,11.0959284 9.01091144,11.0959284 8.62718433,10.7121708 L5.5,7.584981 L2.37280471,10.7121708 C1.98907759,11.0959284 1.36658152,11.0959284 0.98282389,10.7121708 L0.287818222,10.0171651 C-0.0959394075,9.63310234 -0.0959394075,9.01091144 0.287818222,8.62718433 L3.41500803,5.5 L0.287818222,2.37280471 C-0.0959394075,1.9887419 -0.0959394075,1.36658152 0.287818222,0.98282389 Z"></path></clipPath><clipPath id="i2"><path d="M24,0 L24,24 L0,24 L0,0 L24,0 Z"></path></clipPath><clipPath id="i3"><path d="M958,0 L958,24 L0,24 L0,0 L958,0 Z"></path></clipPath><clipPath id="i4"><path d="M16,0 L16,84 L0,84 L0,0 L16,0 Z"></path></clipPath><clipPath id="i5"><path d="M902,0 L902,36 L0,36 L0,0 L902,0 Z"></path></clipPath></defs><g clip-path="url(#i0)"><polygon points="0,0 990,0 990,84 0,84 0,0" stroke="none" fill="#151515"></polygon></g><g transform="translate(934.0 24.0)"><g transform="translate(8.0 6.0)"><g transform="translate(7.000000000000001 7.000000000000001)"><g clip-path="url(#i1)"><polygon points="0,0 10.999989,0 10.999989,10.999989 0,10.999989 0,0" stroke="none" fill="#696E73"></polygon><g clip-path="url(#i2)"><polygon points="0,0 10.999989,0 10.999989,10.999989 0,10.999989 0,0" stroke="none" fill="#FFFFFF"></polygon></g></g></g></g></g><g transform="translate(16.0 0.0)"><g transform=""><g clip-path="url(#i3)"><polygon points="0,0 958,0 958,24 0,24 0,0" stroke="none" fill="rgba(0, 121, 135, 0.9)"></polygon></g><g clip-path="url(#i3)"><polygon points="0,0 958,0 958,24 0,24 0,0 0,0" stroke="#09707A" stroke-width="2" fill="none" stroke-miterlimit="5"></polygon></g></g></g><g transform="translate(16.0 60.00000000000001)"><g transform=""><g clip-path="url(#i3)"><polygon points="0,0 958,0 958,24 0,24 0,0" stroke="none" fill="rgba(0, 121, 135, 0.9)"></polygon></g><g clip-path="url(#i3)"><polygon points="0,0 958,0 958,24 0,24 0,0 0,0" stroke="#09707A" stroke-width="2" fill="none" stroke-miterlimit="5"></polygon></g></g></g><g clip-path="url(#i4)"><polygon points="0,0 16,0 16,84 0,84 0,0" stroke="none" fill="rgba(62, 156, 52, 0.9)"></polygon></g><g clip-path="url(#i4)"><polygon points="0,0 16,0 16,84 0,84 0,0 0,0" stroke="#418A37" stroke-width="2" fill="none" stroke-miterlimit="5"></polygon></g><g transform="translate(974.0 0.0)"><g clip-path="url(#i4)"><polygon points="0,0 16,0 16,84 0,84 0,0" stroke="none" fill="rgba(62, 156, 52, 0.9)"></polygon></g><g clip-path="url(#i4)"><polygon points="0,0 16,0 16,84 0,84 0,0 0,0" stroke="#418A37" stroke-width="2" fill="none" stroke-miterlimit="5"></polygon></g></g><g transform="translate(16.0 24.0)"><g clip-path="url(#i5)"><text transform="translate(-1.932 29.0)" font-family="RedHatDisplay-Medium, Red Hat Display" font-size="28.0" font-weight="500" fill="#FFFFFF" text-anchor="left" line-spacing="36.4">Title</text></g></g></svg>