<?xml version="1.0" encoding="UTF-8"?><svg version="1.1" width="130px" height="36px" viewBox="0 0 130.0 36.0" xmlns="http://www.w3.org/2000/svg" xmlns:xlink="http://www.w3.org/1999/xlink"><defs><clipPath id="i0"><path d="M127,0 C128.656854,-3.04359188e-16 130,1.34314575 130,3 L130,33 C130,34.6568542 128.656854,36 127,36 L0,36 L0,0 L127,0 Z"></path></clipPath></defs><g clip-path="url(#i0)"><polygon points="0,0 130,0 130,36 0,36 0,0" stroke="none" fill="#E7F1FA"></polygon><path d="M0,0 L127,0 C128.656854,-3.04359188e-16 130,1.34314575 130,3 L130,33 C130,34.6568542 128.656854,36 127,36 L0,36 L0,36 L0,0 Z" stroke="#0066CC" stroke-width="2" fill="none" stroke-miterlimit="5"></path></g><g transform="translate(16.0 8.0)"><text transform="translate(0.0 14.0)" font-family="RedHatText-Regular, Red Hat Text" font-size="14.0" font-weight="normal" fill="#141514" text-anchor="left" line-spacing="21.0">Selected - right</text></g></svg>