<?xml version="1.0" encoding="UTF-8"?>
<svg width="53px" height="52px" viewBox="0 0 53 52" version="1.1" xmlns="http://www.w3.org/2000/svg" xmlns:xlink="http://www.w3.org/1999/xlink">
    <title></title>
    <g id="Icons" stroke="none" stroke-width="1" fill="none" fill-rule="evenodd">
        <g id="Icons/4.-Size-xl-(54px)/Brands/Github" fill="#151515">
            <path d="M19.7014949,49.6861685 L19.7010645,49.5101816 C19.6972839,48.5414446 19.669875,45.2725554 19.669875,43.2104645 C19.669875,43.2104645 12.2870801,44.7924919 10.7366726,40.0675238 C10.7366726,40.0675238 9.53439347,36.9983287 7.80466889,36.207315 L7.78828787,36.1958824 C7.5862456,36.0535279 5.6201473,34.6288571 7.79312005,34.5838039 L7.97337729,34.5831619 C7.97337729,34.5831619 10.5995841,34.7940989 12.0445231,37.3042285 C14.3542215,41.3752714 18.2249359,40.2046122 19.7331149,39.5084584 C19.9757748,37.8209624 20.6613201,36.6503032 21.4206109,35.9542524 C15.5249836,35.3003271 9.57651907,34.4459704 9.57651907,24.2999833 C9.57651907,21.3995996 10.3781415,19.9440519 12.0656374,18.0878475 C11.7913575,17.4023023 10.8948753,14.5757671 12.3398143,10.9264953 C14.5441471,10.24095 19.6171407,13.7741447 19.6171407,13.7741447 C21.7265107,13.1835623 23.9940834,12.8776625 26.2405418,12.8776625 C28.4870003,12.8776625 30.754573,13.1835623 32.8639429,13.7741447 C32.8639429,13.7741447 37.9370395,10.2304444 40.1412693,10.9264953 C41.5862084,14.5862727 40.6897261,17.4023023 40.4155492,18.0878475 C42.1030452,19.9546605 43.1366159,21.4101052 43.1366159,24.2999833 C43.1366159,33.2514632 38.3312056,34.9580984 33.1621677,35.6915147 L32.7365878,35.749733 C32.1682998,35.8247792 31.5971061,35.8902009 31.0288529,35.9542524 C31.9991837,36.7873917 32.8218173,38.3694192 32.8218173,40.8479289 L32.8211223,41.8054755 C32.8205237,42.2371378 32.8195648,42.6751329 32.8183484,43.1123337 L32.8163435,43.7666483 C32.808379,46.1570843 32.7941845,48.4156954 32.7908925,49.3567071 L32.7901974,49.6651572 L32.7901974,49.6651572 C32.7901974,50.3507024 33.2753113,51.1838417 34.6147818,50.9412848 C45.1616317,47.43971 52.3123753,37.4308113 52.3123753,25.7343136 C52.3123753,11.1058123 40.4471692,0 25.8186678,0 C11.1901665,0 0,11.1058123 0,25.7343136 C0,37.4308113 7.3616806,47.43971 17.8769105,50.9623991 C19.2268867,51.204956 19.7014949,50.3717137 19.7014949,49.6861685 Z M9.80857036,35.8592895 C9.88241891,35.7222011 9.77695041,35.5533897 9.56601342,35.4479212 C9.35507642,35.3846813 9.18626502,35.4163012 9.11251947,35.5217697 C9.03867092,35.6588582 9.14413942,35.8276696 9.35507642,35.9331381 C9.52378482,36.0386066 9.73472182,36.0069866 9.80857036,35.8592895 Z M10.873761,37.0299486 C11.0109524,36.9244801 10.9792295,36.6819232 10.8000154,36.4815948 C10.6312041,36.3127834 10.3886471,36.2389349 10.2515587,36.3761263 C10.1144702,36.4815948 10.1460902,36.7241518 10.3254072,36.9244801 C10.4941156,37.0932915 10.7366726,37.1671401 10.873761,37.0299486 Z M11.9179403,38.5909648 C12.0866487,38.4537734 12.0866487,38.1795965 11.9179403,37.9370395 C11.7702432,37.6944826 11.4960663,37.5890141 11.3273579,37.7261025 C11.1585465,37.831571 11.1585465,38.1057479 11.3273579,38.3483049 C11.4960663,38.5909648 11.7808519,38.6964333 11.9179403,38.5909648 Z M13.3522707,40.0358008 C13.4894622,39.8987124 13.4261193,39.5823069 13.2151823,39.3819786 C12.983131,39.1393186 12.6667255,39.1076987 12.529637,39.2765101 C12.3609286,39.4135985 12.4241685,39.730004 12.6667255,39.9303323 C12.9093854,40.1729923 13.2151823,40.2046122 13.3522707,40.0358008 Z M15.3245522,40.9006631 C15.3878951,40.6897261 15.1874638,40.4471692 14.8710583,40.3522063 C14.5968814,40.2784608 14.2909816,40.3839293 14.217133,40.5948663 C14.1432845,40.8058033 14.3542215,41.0483602 14.6706269,41.1116001 C14.9449068,41.2170686 15.2613123,41.1116001 15.3245522,40.9006631 Z M19.0159497,41.206563 C19.3218495,41.1327144 19.5327865,40.9322831 19.5011666,40.7213461 C19.4694436,40.5210177 19.1847611,40.3839293 18.8788612,40.4155492 C18.5729614,40.4893978 18.3620244,40.6897261 18.3937473,40.9322831 C18.4253673,41.1432201 18.6995442,41.2804115 19.0159497,41.206563 Z M16.9488083,41.4491199 C17.2546052,41.4491199 17.4972651,41.2804115 17.4972651,41.0694745 C17.4972651,40.8268146 17.2229852,40.6581062 16.9065797,40.6897261 C16.6007829,40.6897261 16.3581229,40.8585375 16.3581229,41.0694745 C16.3581229,41.3120315 16.6007829,41.4807399 16.9488083,41.4491199 Z" id="github"></path>
        </g>
    </g>
</svg>