<?xml version="1.0" encoding="UTF-8"?>
<svg width="48px" height="48px" viewBox="0 0 48 48" version="1.1" xmlns="http://www.w3.org/2000/svg" xmlns:xlink="http://www.w3.org/1999/xlink">
    <title></title>
    <g id="Icons" stroke="none" stroke-width="1" fill="none" fill-rule="evenodd">
        <g id="Icons/4.-Size-xl-(54px)/Brands/js" fill="#151515">
            <path d="M47.2498873,47.2498873 L47.2498873,0 L0,0 L0,47.2498873 L47.2498873,47.2498873 Z M36.2179236,43.5479842 C32.0940435,43.5479842 29.4257111,41.5862084 28.1284692,39.0128388 L31.7460181,36.9244801 C32.6952345,38.4748877 33.9397422,39.6245355 36.1229608,39.6245355 C37.9581538,39.6245355 39.1393186,38.706939 39.1393186,37.4308113 C39.1393186,35.9120238 37.9370395,35.3741756 35.9015181,34.4776934 L34.7940989,34.0030851 C31.5878153,32.6425003 29.4679397,30.9233844 29.4679397,27.3058355 C29.4679397,23.9729691 32.0096893,21.4417252 35.964758,21.4417252 C38.7912932,21.4417252 40.8163089,22.4225616 42.2717536,24.9960342 L38.8124075,27.2108726 C38.0530137,25.8502878 37.23038,25.3124397 35.9542524,25.3124397 C34.6569074,25.3124397 33.8342737,26.1350733 33.8342737,27.2108726 C33.8342737,28.5397345 34.6569074,29.0776856 36.565949,29.910825 L37.6733683,30.3854332 C41.4491199,31.9991837 43.5689955,33.6549567 43.5689955,37.3674684 C43.5689955,41.3541571 40.4260549,43.5479842 36.2179236,43.5479842 Z M19.0792926,43.5479842 C15.5249836,43.5479842 13.4683479,41.7127912 12.4136629,39.4874471 L16.0312118,37.3042285 C16.7272627,38.5382306 17.3600737,39.5823069 18.8893669,39.5823069 C20.3449146,39.5823069 21.2730168,39.0128388 21.2730168,36.7873917 L21.2730168,21.6948907 L25.7131993,21.6948907 L25.7131993,36.8507346 C25.7131993,41.4491199 23.013247,43.5479842 19.0792926,43.5479842 Z" id="js"></path>
        </g>
    </g>
</svg>