<?xml version="1.0" encoding="UTF-8"?>
<svg width="54px" height="51px" viewBox="0 0 54 51" version="1.1" xmlns="http://www.w3.org/2000/svg" xmlns:xlink="http://www.w3.org/1999/xlink">
    <title></title>
    <g id="Icons" stroke="none" stroke-width="1" fill="none" fill-rule="evenodd">
        <g id="Icons/4.-Size-xl-(54px)/Brands/OpenShift" fill="#151515">
            <path d="M15.6983017,23.1684667 L7.01298701,26.2973378 C7.12087912,27.6999352 7.33666334,29.0485865 7.71428571,30.3972379 L15.968032,27.3762589 C15.6983017,26.0276075 15.5904096,24.5710641 15.6983017,23.1684667 M54,13.5660691 C53.4065934,12.3253098 52.7052947,11.1384966 51.8961039,10.0056295 L43.2107892,13.1345006 C44.2357642,14.1594756 45.044955,15.3462888 45.7462537,16.5870481 L54,13.5660691 Z M34.957043,11.1384966 C36.7372627,12.0016335 38.3016983,13.1345006 39.6503497,14.483152 L48.3356643,11.3542808 C45.962038,8.0096255 42.6713287,5.15048464 38.6793207,3.31631881 C26.3256743,-2.45590897 11.5444555,2.93869643 5.77222777,15.2923428 C3.88411588,19.2843508 3.18281718,23.546089 3.56043956,27.6999352 L12.2457542,24.5710641 C12.4075924,22.6829522 12.8391608,20.7948403 13.7022977,19.0146205 C17.3166833,10.8687664 26.8651349,7.36227285 34.957043,11.1384966 M8.25374625,30.2353997 L0,33.2563787 C0.755244755,36.2773578 2.04995005,39.0825526 3.88411588,41.6180171 L12.5154845,38.489146 C10.3576424,36.1694657 8.84715285,33.3103248 8.25374625,30.2353997 M44.1818182,26.9446904 C44.01998,28.8328023 43.5884116,30.7209142 42.7252747,32.501134 C38.9490509,40.539096 29.3466533,44.0455895 21.3086913,40.2693658 C19.5284715,39.4062289 17.9100899,38.2733618 16.6153846,36.9247104 L7.98401598,40.0535815 C10.3576424,43.3982369 13.6483516,46.2573777 17.6403596,48.0915436 C29.994006,53.8637714 44.7752248,48.469166 50.5474525,36.1155196 C52.4355644,32.1235116 53.0829171,27.8617734 52.7592408,23.7618733 L44.1818182,26.9446904 Z M46.2857143,16.3712639 L38.031968,19.3922429 C39.5424575,22.1434916 40.2977023,25.2723628 40.027972,28.4551799 L48.6593407,25.3263088 C48.4975025,22.1974377 47.6343656,19.1764587 46.2857143,16.3712639" id="openshift"></path>
        </g>
    </g>
</svg>