<?xml version="1.0" encoding="UTF-8"?>
<svg width="712px" height="25px" viewBox="0 0 712 25" version="1.1" xmlns="http://www.w3.org/2000/svg" xmlns:xlink="http://www.w3.org/1999/xlink">
    <title></title>
    <defs>
        <rect id="path-1" x="0" y="0" width="712" height="25"></rect>
        <filter x="-2.0%" y="-40.0%" width="103.9%" height="212.0%" filterUnits="objectBoundingBox" id="filter-2">
            <feOffset dx="0" dy="0" in="SourceAlpha" result="shadowOffsetOuter1"></feOffset>
            <feGaussianBlur stdDeviation="2" in="shadowOffsetOuter1" result="shadowBlurOuter1"></feGaussianBlur>
            <feColorMatrix values="0 0 0 0 0   0 0 0 0 0   0 0 0 0 0  0 0 0 0.06 0" type="matrix" in="shadowBlurOuter1" result="shadowMatrixOuter1"></feColorMatrix>
            <feOffset dx="0" dy="4" in="SourceAlpha" result="shadowOffsetOuter2"></feOffset>
            <feGaussianBlur stdDeviation="4" in="shadowOffsetOuter2" result="shadowBlurOuter2"></feGaussianBlur>
            <feColorMatrix values="0 0 0 0 0   0 0 0 0 0   0 0 0 0 0  0 0 0 0.12 0" type="matrix" in="shadowBlurOuter2" result="shadowMatrixOuter2"></feColorMatrix>
            <feMerge>
                <feMergeNode in="shadowMatrixOuter1"></feMergeNode>
                <feMergeNode in="shadowMatrixOuter2"></feMergeNode>
            </feMerge>
        </filter>
    </defs>
    <g id="Banner" stroke="none" stroke-width="1" fill="none" fill-rule="evenodd">
        <g id="Banner-/-3.-Success-/-2.-With-icon">
            <g id="ðŸ“-Padding" fill="#92D400" fill-opacity="0.9" stroke="#7FB300">
                <g id="Spacer-/-Horizontal-/-2.-pf-global--spacer--sm-(8px)">
                    <rect id="Rectangle-Copy" x="0.5" y="0.5" width="7" height="17"></rect>
                </g>
                <g id="Spacer-/-Horizontal-/-2.-pf-global--spacer--sm-(8px)" transform="translate(25.000000, 0.000000)">
                    <rect id="Rectangle-Copy" x="0.5" y="0.5" width="7" height="17"></rect>
                </g>
            </g>
            <g id="Shadow">
                <use fill="black" fill-opacity="1" filter="url(#filter-2)" xlink:href="#path-1"></use>
                <use fill="#FFFFFF" fill-rule="evenodd" xlink:href="#path-1"></use>
            </g>
            <rect id="Background" fill="#3E8635" x="0" y="0" width="712" height="25"></rect>
            <g id="Group" transform="translate(332.000000, 1.000000)" fill="#FFFFFF">
                <g id="Icons/2.-Size-sm/Status/check-circle" transform="translate(6.000000, 6.000000)">
                    <path d="M5.81248614,11.6249723 C9.02263779,11.6249723 11.6249723,9.02263779 11.6249723,5.81248614 C11.6249723,2.60233449 9.02263779,0 5.81248614,0 C2.60233449,0 0,2.60233449 0,5.81248614 C0,9.02263779 2.60233449,11.6249723 5.81248614,11.6249723 Z M4.60980651,8.89013841 L2.17231233,6.45264422 C2.02589696,6.30620597 2.02589696,6.06874163 2.17231233,5.92230338 L2.70265316,5.39198544 C2.84909141,5.24554719 3.08655575,5.24554719 3.232994,5.39198544 L4.87498838,7.0340027 L8.39197828,3.51701279 C8.53843942,3.37055166 8.77590376,3.37055166 8.92231912,3.51701279 L9.45265996,4.04733074 C9.59907532,4.19376899 9.59907532,4.43123333 9.45265996,4.57767158 L5.14017024,8.8901613 C4.9937091,9.03657666 4.75626765,9.03657666 4.60980651,8.89013841 Z" id="check-circle"></path>
                </g>
                <text id="Text" font-family="RedHatText-Regular, Red Hat Text" font-size="12" font-weight="normal" line-spacing="18">
                    <tspan x="24.266" y="15">Text</tspan>
                </text>
            </g>
            <text id="Optional-text-right" font-family="RedHatText-Regular, Red Hat Text" font-size="12" font-weight="normal" line-spacing="18" fill="#FFFFFF">
                <tspan x="617.092" y="16">Optional text</tspan>
            </text>
            <text id="Optional-text-left" font-family="RedHatText-Regular, Red Hat Text" font-size="12" font-weight="normal" line-spacing="18" fill="#FFFFFF">
                <tspan x="24" y="16">Optional text</tspan>
            </text>
        </g>
    </g>
</svg>