<?xml version="1.0" encoding="UTF-8"?><svg version="1.1" width="966px" height="586px" viewBox="0 0 966.0 586.0" xmlns="http://www.w3.org/2000/svg" xmlns:xlink="http://www.w3.org/1999/xlink"><defs><clipPath id="i0"><path d="M966,0 L966,115 L0,115 L0,0 L966,0 Z"></path></clipPath><clipPath id="i1"><path d="M0.98282389,0.287818222 C1.36688669,-0.0959394075 1.98907759,-0.0959394075 2.37280471,0.287818222 L5.5,3.41500803 L8.62718433,0.287818222 C9.01124713,-0.0959394075 9.63340751,-0.0959394075 10.0171651,0.287818222 L10.7121708,0.98282389 C11.0959284,1.36688669 11.0959284,1.98907759 10.7121708,2.37280471 L7.584981,5.5 L10.7121708,8.62718433 C11.0959284,9.01124713 11.0959284,9.63340751 10.7121708,10.0171651 L10.0171651,10.7121708 C9.63340751,11.0959284 9.01091144,11.0959284 8.62718433,10.7121708 L5.5,7.584981 L2.37280471,10.7121708 C1.98907759,11.0959284 1.36658152,11.0959284 0.98282389,10.7121708 L0.287818222,10.0171651 C-0.0959394075,9.63310234 -0.0959394075,9.01091144 0.287818222,8.62718433 L3.41500803,5.5 L0.287818222,2.37280471 C-0.0959394075,1.9887419 -0.0959394075,1.36658152 0.287818222,0.98282389 Z"></path></clipPath><clipPath id="i2"><path d="M24,0 L24,24 L0,24 L0,0 L24,0 Z"></path></clipPath><clipPath id="i3"><path d="M918,0 L918,24 L0,24 L0,0 L918,0 Z"></path></clipPath><clipPath id="i4"><path d="M854,0 L854,35 L0,35 L0,0 L854,0 Z"></path></clipPath><clipPath id="i5"><path d="M290,0 L290,471 L0,471 L0,0 L290,0 Z"></path></clipPath><clipPath id="i6"><path d="M1,0 L1,471 L0,471 L0,0 L1,0 Z"></path></clipPath><clipPath id="i7"><path d="M675,0 L675,471 L0,471 L0,0 L675,0 Z"></path></clipPath><clipPath id="i8"><path d="M64,0 C65.6568542,-3.04359188e-16 67,1.34314575 67,3 L67,33 C67,34.6568542 65.6568542,36 64,36 L3,36 C1.34314575,36 1.53517375e-15,34.6568542 0,33 L0,3 C-2.02906125e-16,1.34314575 1.34314575,-5.83819232e-16 3,0 L64,0 Z"></path></clipPath><clipPath id="i9"><path d="M65,0 C66.6568542,-3.04359188e-16 68,1.34314575 68,3 L68,33 C68,34.6568542 66.6568542,36 65,36 L3,36 C1.34314575,36 1.09108455e-15,34.6568542 0,33 L0,3 C-2.02906125e-16,1.34314575 1.34314575,-5.83819232e-16 3,0 L65,0 Z"></path></clipPath></defs><g clip-path="url(#i0)"><polygon points="0,0 966,0 966,115 0,115 0,0" stroke="none" fill="#151515"></polygon></g><g transform="translate(902.0 24.0)"><g transform="translate(8.0 6.0)"><g transform="translate(7.000000000000001 7.000000000000001)"><g clip-path="url(#i1)"><polygon points="0,0 10.999989,0 10.999989,10.999989 0,10.999989 0,0" stroke="none" fill="#696E73"></polygon><g clip-path="url(#i2)"><polygon points="0,0 10.999989,0 10.999989,10.999989 0,10.999989 0,0" stroke="none" fill="#F0F0F0"></polygon></g></g></g></g></g><g transform="translate(24.0 67.0)"><g clip-path="url(#i3)"><text transform="translate(0.0 16.0)" font-family="RedHatText-Regular, Red Hat Text" font-size="16.0" font-weight="normal" fill="#F0F0F0" text-anchor="left" line-spacing="24.0">Description</text></g></g><g transform="translate(24.0 24.0)"><g clip-path="url(#i4)"><text transform="translate(-1.932 29.0)" font-family="RedHatDisplay-Medium, Red Hat Display" font-size="28.0" font-weight="500" fill="#FFFFFF" text-anchor="left" line-spacing="36.4">Title</text></g></g><g transform="translate(0.0 115.0)"><g clip-path="url(#i5)"><polygon points="0,0 290,0 290,471 0,471 0,0" stroke="none" fill="#FFFFFF"></polygon></g><g transform="translate(290.0 0.0)"><g clip-path="url(#i6)"><polygon points="0,0 1,0 1,471 0,471 0,0" stroke="none" fill="#FFFFFF"></polygon><polygon points="0,0 1,0 1,471 0,471 0,0 0,0" stroke="#D2D2D2" stroke-width="2" fill="none" stroke-miterlimit="5"></polygon></g></g></g><g transform="translate(291.0 115.0)"><g clip-path="url(#i7)"><polygon points="0,0 675,0 675,471 0,471 0,0" stroke="none" fill="#FFFFFF"></polygon></g><g transform="translate(24.0 411.0)"><g clip-path="url(#i8)"><polygon points="0,0 67,0 67,36 0,36 0,0" stroke="none" fill="#0066CC"></polygon></g><g transform="translate(16.0 6.0)"><text transform="translate(0.21199999999999974 16.0)" font-family="RedHatText-Regular, Red Hat Text" font-size="16.0" font-weight="normal" fill="#FFFFFF" text-anchor="center" line-spacing="24.0">Next</text></g><g transform="translate(83.0 0.0)"><g clip-path="url(#i9)"><path d="M3,0 L65,0 C66.6568542,-3.04359188e-16 68,1.34314575 68,3 L68,33 C68,34.6568542 66.6568542,36 65,36 L3,36 C1.34314575,36 1.09108455e-15,34.6568542 0,33 L0,3 C-2.02906125e-16,1.34314575 1.34314575,-5.83819232e-16 3,0 Z" stroke="#0066CC" stroke-width="2" fill="none" stroke-miterlimit="5"></path></g><g transform="translate(16.0 6.0)"><text transform="translate(0.4559999999999995 16.0)" font-family="RedHatText-Regular, Red Hat Text" font-size="16.0" font-weight="normal" fill="#0066CC" text-anchor="center" line-spacing="24.0">Back</text></g></g><g transform="translate(183.0 0.0)"><g transform="translate(16.0 6.0)"><text transform="translate(0.0 16.0)" font-family="RedHatText-Regular, Red Hat Text" font-size="16.0" font-weight="normal" fill="#0066CC" text-anchor="left" line-spacing="24.0">Cancel</text></g></g></g></g></svg>