<?xml version="1.0" encoding="UTF-8"?><svg version="1.1" width="196px" height="56px" viewBox="0 0 196.0 56.0" xmlns="http://www.w3.org/2000/svg" xmlns:xlink="http://www.w3.org/1999/xlink"><defs><clipPath id="i0"><path d="M0.923421565,0.22032113 C1.21718307,-0.0734403767 1.69218804,-0.0734403767 1.98280625,0.22032113 L6.23279611,4.470311 C6.52967041,4.7640725 6.52967041,5.23904696 6.2359089,5.53280846 L1.98591903,9.78279833 C1.69218804,10.0765598 1.21718307,10.0765598 0.926564869,9.78279833 L0.220298242,9.07656222 C-0.0734327473,8.78280072 -0.0734327473,8.30779574 0.220298242,8.01717754 L3.23280327,5.00467252 L0.220298242,1.99219801 C-0.0734327473,1.6984365 -0.0734327473,1.22343153 0.220298242,0.932813328 Z"></path></clipPath><clipPath id="i1"><path d="M40,0 L40,16 L0,16 L0,0 L40,0 Z"></path></clipPath><clipPath id="i2"><path d="M8,0 L8,24 L0,24 L0,0 L8,0 Z"></path></clipPath><clipPath id="i3"><path d="M4.46992344,0.22032113 C4.76365443,-0.0734403767 5.2386594,-0.0734403767 5.5292776,0.22032113 L6.23554423,0.926557239 C6.52927522,1.22031875 6.52927522,1.69532372 6.23554423,1.98594192 L3.22618251,5.00155973 L6.23865701,8.01406476 C6.53241852,8.30779574 6.53241852,8.78280072 6.23865701,9.07341892 L5.5324209,9.78279833 C5.2386594,10.0765598 4.76365443,10.0765598 4.47303622,9.78279833 L0.223046355,5.53280846 C-0.0738279369,5.23904696 -0.0738279369,4.7640725 0.21993357,4.470311 Z"></path></clipPath><clipPath id="i4"><path d="M8.66574605,0 C9.22201914,0 9.50012517,0.671873398 9.10638831,1.06561025 L5.08762958,5.08748177 C4.84388627,5.33122508 4.44700611,5.33122508 4.2032628,5.08748177 L0.184534585,1.06561025 C-0.209232787,0.671873398 0.0689037567,0 0.625146327,0 Z"></path></clipPath><clipPath id="i5"><path d="M8,0 L8,56 L0,56 L0,0 L8,0 Z"></path></clipPath></defs><g transform="translate(156.0 0.0)"><g transform="translate(8.0 16.0)"><g transform="translate(9.0 6.999999999999999)"><g clip-path="url(#i0)"><polygon points="-2.77555756e-17,-2.77555756e-17 6.45584247,-2.77555756e-17 6.45584247,10.0031195 -2.77555756e-17,10.0031195 -2.77555756e-17,-2.77555756e-17" stroke="none" fill="#696E73"></polygon></g></g></g><g clip-path="url(#i1)"><polygon points="0,0 40,0 40,16 0,16 0,0" stroke="none" fill="rgba(62, 156, 52, 0.9)"></polygon></g><g clip-path="url(#i1)"><polygon points="0,0 40,0 40,16 0,16 0,0 0,0" stroke="#418A37" stroke-width="2" fill="none" stroke-miterlimit="5"></polygon></g><g transform="translate(0.0 40.0)"><g clip-path="url(#i1)"><polygon points="0,0 40,0 40,16 0,16 0,0" stroke="none" fill="rgba(62, 156, 52, 0.9)"></polygon></g><g clip-path="url(#i1)"><polygon points="0,0 40,0 40,16 0,16 0,0 0,0" stroke="#418A37" stroke-width="2" fill="none" stroke-miterlimit="5"></polygon></g></g><g transform="translate(0.0 16.0)"><g clip-path="url(#i2)"><polygon points="0,0 8,0 8,24 0,24 0,0" stroke="none" fill="rgba(146, 211, 0, 0.9)"></polygon></g><g clip-path="url(#i2)"><polygon points="0,0 8,0 8,24 0,24 0,0 0,0" stroke="#7EB200" stroke-width="2" fill="none" stroke-miterlimit="5"></polygon></g></g><g transform="translate(32.0 16.0)"><g clip-path="url(#i2)"><polygon points="0,0 8,0 8,24 0,24 0,0" stroke="none" fill="rgba(146, 211, 0, 0.9)"></polygon></g><g clip-path="url(#i2)"><polygon points="0,0 8,0 8,24 0,24 0,0 0,0" stroke="#7EB200" stroke-width="2" fill="none" stroke-miterlimit="5"></polygon></g></g></g><g transform="translate(8.0 16.0)"><g transform="translate(9.0 6.999999999999999)"><g clip-path="url(#i3)"><polygon points="4.22994972e-14,-2.77555756e-17 6.45897814,-2.77555756e-17 6.45897814,10.0031195 4.22994972e-14,10.0031195 4.22994972e-14,-2.77555756e-17" stroke="none" fill="#D2D2D2"></polygon></g></g></g><g clip-path="url(#i1)"><polygon points="0,0 40,0 40,16 0,16 0,0" stroke="none" fill="rgba(62, 156, 52, 0.9)"></polygon></g><g clip-path="url(#i1)"><polygon points="0,0 40,0 40,16 0,16 0,0 0,0" stroke="#418A37" stroke-width="2" fill="none" stroke-miterlimit="5"></polygon></g><g transform="translate(0.0 40.0)"><g clip-path="url(#i1)"><polygon points="0,0 40,0 40,16 0,16 0,0" stroke="none" fill="rgba(62, 156, 52, 0.9)"></polygon></g><g clip-path="url(#i1)"><polygon points="0,0 40,0 40,16 0,16 0,0 0,0" stroke="#418A37" stroke-width="2" fill="none" stroke-miterlimit="5"></polygon></g></g><g transform="translate(0.0 16.0)"><g clip-path="url(#i2)"><polygon points="0,0 8,0 8,24 0,24 0,0" stroke="none" fill="rgba(146, 211, 0, 0.9)"></polygon></g><g clip-path="url(#i2)"><polygon points="0,0 8,0 8,24 0,24 0,0 0,0" stroke="#7EB200" stroke-width="2" fill="none" stroke-miterlimit="5"></polygon></g></g><g transform="translate(32.0 16.0)"><g clip-path="url(#i2)"><polygon points="0,0 8,0 8,24 0,24 0,0" stroke="none" fill="rgba(146, 211, 0, 0.9)"></polygon></g><g clip-path="url(#i2)"><polygon points="0,0 8,0 8,24 0,24 0,0 0,0" stroke="#7EB200" stroke-width="2" fill="none" stroke-miterlimit="5"></polygon></g></g><g transform="translate(40.0 0.0)"><g transform="translate(92.0 15.0)"><g transform="translate(7.0 9.0)"><g clip-path="url(#i4)"><polygon points="5.04041253e-14,0 9.29090831,0 9.29090831,5.27028925 5.04041253e-14,5.27028925 5.04041253e-14,0" stroke="none" fill="#151515"></polygon></g></g></g><g transform="translate(8.0 15.0)"><polygon points="4.32,5.8 4.32,17 2.576,17 2.576,7.624 0.592,8.488 0.592,6.936 3.216,5.8 4.32,5.8" stroke="none" fill="#151515"></polygon><polygon points="9.984,11.704 15.552,11.704 15.552,13.224 9.984,13.224 9.984,11.704" stroke="none" fill="#151515"></polygon><polygon points="24.384,5.8 24.384,17 22.64,17 22.64,7.624 20.656,8.488 20.656,6.936 23.28,5.8 24.384,5.8" stroke="none" fill="#151515"></polygon><path d="M30.928,17.16 C30.2453333,17.16 29.6213333,17.0186667 29.056,16.736 C28.4906667,16.4533333 28.008,16.0613333 27.608,15.56 C27.208,15.0586667 26.8986667,14.4506667 26.68,13.736 C26.4613333,13.0213333 26.352,12.2373333 26.352,11.384 C26.352,10.5413333 26.464,9.76266667 26.688,9.048 C26.912,8.33333333 27.224,7.72533333 27.624,7.224 C28.024,6.72266667 28.5066667,6.33066667 29.072,6.048 C29.6373333,5.76533333 30.256,5.624 30.928,5.624 C31.6106667,5.624 32.2346667,5.76533333 32.8,6.048 C33.3653333,6.33066667 33.848,6.72266667 34.248,7.224 C34.648,7.72533333 34.9573333,8.33333333 35.176,9.048 C35.3946667,9.76266667 35.504,10.5413333 35.504,11.384 C35.504,12.2373333 35.3946667,13.0213333 35.176,13.736 C34.9573333,14.4506667 34.648,15.0586667 34.248,15.56 C33.848,16.0613333 33.3653333,16.4533333 32.8,16.736 C32.2346667,17.0186667 31.6106667,17.16 30.928,17.16 Z M30.928,15.608 C31.792,15.608 32.48,15.2293333 32.992,14.472 C33.504,13.7146667 33.76,12.6853333 33.76,11.384 C33.76,10.104 33.504,9.08266667 32.992,8.32 C32.48,7.55733333 31.792,7.176 30.928,7.176 C30.064,7.176 29.376,7.56 28.864,8.328 C28.352,9.096 28.096,10.1146667 28.096,11.384 C28.096,12.6746667 28.352,13.7013333 28.864,14.464 C29.376,15.2266667 30.064,15.608 30.928,15.608 Z" stroke="none" fill="#151515"></path><path d="M40.896,13.096 C40.896,12.52 40.992,11.9866667 41.184,11.496 C41.376,11.0053333 41.64,10.5786667 41.976,10.216 C42.312,9.85333333 42.7146667,9.57066667 43.184,9.368 C43.6533333,9.16533333 44.1546667,9.064 44.688,9.064 C45.232,9.064 45.736,9.16533333 46.2,9.368 C46.664,9.57066667 47.0666667,9.85333333 47.408,10.216 C47.7493333,10.5786667 48.016,11.0053333 48.208,11.496 C48.4,11.9866667 48.496,12.52 48.496,13.096 C48.496,13.672 48.3973333,14.2106667 48.2,14.712 C48.0026667,15.2133333 47.736,15.6426667 47.4,16 C47.064,16.3573333 46.6613333,16.64 46.192,16.848 C45.7226667,17.056 45.2213333,17.16 44.688,17.16 C44.1546667,17.16 43.656,17.056 43.192,16.848 C42.728,16.64 42.328,16.3546667 41.992,15.992 C41.656,15.6293333 41.3893333,15.2 41.192,14.704 C40.9946667,14.208 40.896,13.672 40.896,13.096 Z M44.688,16.12 C45.4453333,16.12 46.0773333,15.8346667 46.584,15.264 C47.0906667,14.6933333 47.344,13.976 47.344,13.112 C47.344,12.248 47.0906667,11.528 46.584,10.952 C46.0773333,10.376 45.4453333,10.088 44.688,10.088 C43.9306667,10.088 43.3013333,10.376 42.8,10.952 C42.2986667,11.528 42.048,12.248 42.048,13.112 C42.048,13.976 42.2986667,14.6933333 42.8,15.264 C43.3013333,15.8346667 43.9306667,16.12 44.688,16.12 Z" stroke="none" fill="#151515"></path><path d="M49.792,9.192 L51.536,9.192 L51.536,7.48 C51.536,6.712 51.7386667,6.12 52.144,5.704 C52.5493333,5.288 53.1253333,5.08 53.872,5.08 C54.0853333,5.08 54.28,5.09333333 54.456,5.12 C54.632,5.14666667 54.7893333,5.18133333 54.928,5.224 L54.928,6.28 C54.7573333,6.23733333 54.6,6.20266667 54.456,6.176 C54.312,6.14933333 54.1546667,6.136 53.984,6.136 C53.536,6.136 53.2106667,6.248 53.008,6.472 C52.8053333,6.696 52.704,7.03733333 52.704,7.496 L52.704,9.192 L54.928,9.192 L54.928,10.152 L52.704,10.152 L52.704,17 L51.536,17 L51.536,10.152 L49.792,10.152 Z" stroke="none" fill="#151515"></path><path d="M67.84,13.88 C67.84,14.3493333 67.736,14.7866667 67.528,15.192 C67.32,15.5973333 67.032,15.944 66.664,16.232 C66.296,16.52 65.856,16.7466667 65.344,16.912 C64.832,17.0773333 64.272,17.16 63.664,17.16 C62.8426667,17.16 62.072,17.0133333 61.352,16.72 C60.632,16.4266667 60.0213333,16.0133333 59.52,15.48 L60.704,14.376 C61.152,14.8346667 61.6,15.1573333 62.048,15.344 C62.496,15.5306667 63.0293333,15.624 63.648,15.624 C64.3626667,15.624 64.9466667,15.4506667 65.4,15.104 C65.8533333,14.7573333 66.08,14.312 66.08,13.768 C66.08,13.2773333 65.8933333,12.8746667 65.52,12.56 C65.1466667,12.2453333 64.672,12.088 64.096,12.088 L62.704,12.088 L62.704,10.632 L63.952,10.632 C64.4853333,10.632 64.9146667,10.48 65.24,10.176 C65.5653333,9.872 65.728,9.464 65.728,8.952 C65.728,8.45066667 65.5253333,8.02933333 65.12,7.688 C64.7146667,7.34666667 64.208,7.176 63.6,7.176 C63.0453333,7.176 62.5573333,7.27466667 62.136,7.472 C61.7146667,7.66933333 61.2746667,8.01333333 60.816,8.504 L59.632,7.4 C60.1546667,6.83466667 60.7653333,6.39733333 61.464,6.088 C62.1626667,5.77866667 62.896,5.624 63.664,5.624 C64.2186667,5.624 64.7306667,5.704 65.2,5.864 C65.6693333,6.024 66.072,6.24266667 66.408,6.52 C66.744,6.79733333 67.008,7.128 67.2,7.512 C67.392,7.896 67.488,8.312 67.488,8.76 C67.488,9.368 67.2853333,9.904 66.88,10.368 C66.4746667,10.832 65.952,11.1493333 65.312,11.32 C66.0693333,11.4693333 66.68,11.776 67.144,12.24 C67.608,12.704 67.84,13.2506667 67.84,13.88 Z" stroke="none" fill="#151515"></path><polygon points="70.432,17 75.632,7.352 69.216,7.352 69.216,5.8 77.552,5.8 77.552,7.112 72.48,17 70.432,17" stroke="none" fill="#151515"></polygon></g><g clip-path="url(#i5)"><polygon points="0,0 8,0 8,56 0,56 0,0" stroke="none" fill="rgba(146, 211, 0, 0.9)"></polygon></g><g clip-path="url(#i5)"><polygon points="0,0 8,0 8,56 0,56 0,0 0,0" stroke="#7EB200" stroke-width="2" fill="none" stroke-miterlimit="5"></polygon></g></g></svg>