<?xml version="1.0" encoding="UTF-8"?>
<svg width="196px" height="56px" viewBox="0 0 196 56" version="1.1" xmlns="http://www.w3.org/2000/svg" xmlns:xlink="http://www.w3.org/1999/xlink">
    <title></title>
    <g id="Mobile" stroke="none" stroke-width="1" fill="none" fill-rule="evenodd">
        <g id="Mobile-/-Pagination">
            <g id="Right-arrow" transform="translate(156.000000, 0.000000)">
                <g transform="translate(17.000000, 23.000000)" fill="#6A6E73" id="angle-right">
                    <path d="M1.98591903,9.78279833 L6.2359089,5.53280846 C6.52967041,5.23904696 6.52967041,4.7640725 6.23279611,4.470311 L1.98280625,0.22032113 C1.69218804,-0.0734403767 1.21718307,-0.0734403767 0.923421565,0.22032113 L0.220298242,0.932813328 C-0.0734327473,1.22343153 -0.0734327473,1.6984365 0.220298242,1.99219801 L3.23280327,5.00467252 L0.220298242,8.01717754 C-0.0734327473,8.30779574 -0.0734327473,8.78280072 0.220298242,9.07656222 L0.926564869,9.78279833 C1.21718307,10.0765598 1.69218804,10.0765598 1.98591903,9.78279833 Z"></path>
                </g>
                <g id="ðŸ“-Padding" fill-opacity="0.9">
                    <g id="Spacer-/-Vertical-/-3.-pf-global--spacer--md-(16px)" fill="#3F9C35" stroke="#418A38">
                        <rect id="Rectangle-Copy-2" x="0.5" y="0.5" width="39" height="15"></rect>
                    </g>
                    <g id="Spacer-/-Vertical-/-3.-pf-global--spacer--md-(16px)" transform="translate(0.000000, 40.000000)" fill="#3F9C35" stroke="#418A38">
                        <rect id="Rectangle-Copy-2" x="0.5" y="0.5" width="39" height="15"></rect>
                    </g>
                    <g id="Spacer-/-Horizontal-/-2.-pf-global--spacer--sm-(8px)" transform="translate(0.000000, 16.000000)" fill="#92D400" stroke="#7FB300">
                        <rect id="Rectangle-Copy" x="0.5" y="0.5" width="7" height="23"></rect>
                    </g>
                    <g id="Spacer-/-Horizontal-/-2.-pf-global--spacer--sm-(8px)" transform="translate(32.000000, 16.000000)" fill="#92D400" stroke="#7FB300">
                        <rect id="Rectangle-Copy" x="0.5" y="0.5" width="7" height="23"></rect>
                    </g>
                </g>
            </g>
            <g id="Left-arrow">
                <g transform="translate(17.000000, 23.000000)" fill="#D2D2D2" id="angle-left">
                    <path d="M5.5324209,9.78279833 L6.23865701,9.07341892 C6.53241852,8.78280072 6.53241852,8.30779574 6.23865701,8.01406476 L3.22618251,5.00155973 L6.23554423,1.98594192 C6.52927522,1.69532372 6.52927522,1.22031875 6.23554423,0.926557239 L5.5292776,0.22032113 C5.2386594,-0.0734403767 4.76365443,-0.0734403767 4.46992344,0.22032113 L0.21993357,4.470311 C-0.0738279369,4.7640725 -0.0738279369,5.23904696 0.223046355,5.53280846 L4.47303622,9.78279833 C4.76365443,10.0765598 5.2386594,10.0765598 5.5324209,9.78279833 Z"></path>
                </g>
                <g id="ðŸ“-Padding" fill-opacity="0.9">
                    <g id="Spacer-/-Vertical-/-3.-pf-global--spacer--md-(16px)" fill="#3F9C35" stroke="#418A38">
                        <rect id="Rectangle-Copy-2" x="0.5" y="0.5" width="39" height="15"></rect>
                    </g>
                    <g id="Spacer-/-Vertical-/-3.-pf-global--spacer--md-(16px)" transform="translate(0.000000, 40.000000)" fill="#3F9C35" stroke="#418A38">
                        <rect id="Rectangle-Copy-2" x="0.5" y="0.5" width="39" height="15"></rect>
                    </g>
                    <g id="Spacer-/-Horizontal-/-2.-pf-global--spacer--sm-(8px)" transform="translate(0.000000, 16.000000)" fill="#92D400" stroke="#7FB300">
                        <rect id="Rectangle-Copy" x="0.5" y="0.5" width="7" height="23"></rect>
                    </g>
                    <g id="Spacer-/-Horizontal-/-2.-pf-global--spacer--sm-(8px)" transform="translate(32.000000, 16.000000)" fill="#92D400" stroke="#7FB300">
                        <rect id="Rectangle-Copy" x="0.5" y="0.5" width="7" height="23"></rect>
                    </g>
                </g>
            </g>
            <g id="Group" transform="translate(40.000000, 0.000000)">
                <g id="Icons-/-Small-/-caret-down" transform="translate(99.000000, 24.000000)" fill="#151515">
                    <path d="M5.08762958,5.08748177 L9.10638831,1.06561025 C9.50012517,0.671873398 9.22201914,0 8.66574605,0 L0.625146327,0 C0.0689037567,0 -0.209232787,0.671873398 0.184534585,1.06561025 L4.2032628,5.08748177 C4.44700611,5.33122508 4.84388627,5.33122508 5.08762958,5.08748177 Z" id="caret-down"></path>
                </g>
                <text id="âœï¸-Label" font-family="RedHatText-Medium, Red Hat Text" font-size="16" font-weight="400" line-spacing="24" fill="#151515">
                    <tspan x="8" y="31">1 - 10</tspan>
                    <tspan x="44.32" y="31" font-family="RedHatText-Regular, Red Hat Text" font-weight="normal"> of </tspan>
                    <tspan x="66.992" y="31">37</tspan>
                </text>
                <g id="ðŸ“-Padding" fill="#92D400" fill-opacity="0.9" stroke="#7FB300">
                    <rect id="Rectangle-Copy" x="0.5" y="0.5" width="7" height="55"></rect>
                </g>
            </g>
        </g>
    </g>
</svg>