<?xml version="1.0" encoding="UTF-8"?>
<svg width="133px" height="40px" viewBox="0 0 133 40" version="1.1" xmlns="http://www.w3.org/2000/svg" xmlns:xlink="http://www.w3.org/1999/xlink">
    <title></title>
    <g id="Masthead" stroke="none" stroke-width="1" fill="none" fill-rule="evenodd">
        <g id="Masthead-/-8.-Search-input-/-1.-Default">
            <g id="Icons/2.-Size-sm/Actions/search" transform="translate(20.000000, 12.000000)" fill="#6A6E73">
                <path d="M14.8937023,15.7812124 L15.7780996,14.8968456 C16.0718306,14.6030841 16.0718306,14.1280791 15.7812124,13.8343481 L12.6655887,10.7187244 C12.524964,10.5780998 12.3343517,10.499975 12.13434,10.499975 L11.6249723,10.499975 C12.487458,9.3968587 12.999969,8.0093498 12.999969,6.4999845 C12.999969,2.90935586 10.0906131,-1.77635684e-15 6.4999845,-1.77635684e-15 C2.90935586,-1.77635684e-15 0,2.90935586 0,6.4999845 C0,10.0906131 2.90935586,12.999969 6.4999845,12.999969 C8.0093498,12.999969 9.3968587,12.487458 10.499975,11.6249723 L10.499975,12.13434 C10.499975,12.3343517 10.5780998,12.524964 10.7187244,12.6655887 L13.8343481,15.7812124 C14.1280791,16.0749739 14.6030841,16.0749739 14.8937023,15.7812124 Z M6.49999404,10.499975 C4.29060867,10.499975 2.49999404,8.71247312 2.49999404,6.49999404 C2.49999404,4.29060867 4.28749588,2.49999404 6.49999404,2.49999404 C8.70936034,2.49999404 10.499975,4.28749588 10.499975,6.49999404 C10.499975,8.70936034 8.71247312,10.499975 6.49999404,10.499975 Z" id="search"></path>
            </g>
            <g id="Icon" transform="translate(115.000000, 15.000000)" fill="#6A6E73">
                <path d="M2.37280471,10.7121708 L5.5,7.584981 L8.62718433,10.7121708 C9.01091144,11.0959284 9.63340751,11.0959284 10.0171651,10.7121708 L10.7121708,10.0171651 C11.0959284,9.63340751 11.0959284,9.01124713 10.7121708,8.62718433 L7.584981,5.5 L10.7121708,2.37280471 C11.0959284,1.98907759 11.0959284,1.36688669 10.7121708,0.98282389 L10.0171651,0.287818222 C9.63340751,-0.0959394075 9.01124713,-0.0959394075 8.62718433,0.287818222 L5.5,3.41500803 L2.37280471,0.287818222 C1.98907759,-0.0959394075 1.36688669,-0.0959394075 0.98282389,0.287818222 L0.287818222,0.98282389 C-0.0959394075,1.36658152 -0.0959394075,1.9887419 0.287818222,2.37280471 L3.41500803,5.5 L0.287818222,8.62718433 C-0.0959394075,9.01091144 -0.0959394075,9.63310234 0.287818222,10.0171651 L0.98282389,10.7121708 C1.36658152,11.0959284 1.98907759,11.0959284 2.37280471,10.7121708 Z" id="times"></path>
            </g>
            <text id="Search" font-family="RedHatText-Regular, Red Hat Text" font-size="14" font-weight="normal" line-spacing="21" fill="#FFFFFF">
                <tspan x="44" y="24">Search</tspan>
            </text>
            <rect id="Border" stroke="#4F5255" x="0.5" y="0.5" width="103" height="39" rx="1"></rect>
        </g>
    </g>
</svg>