<svg xmlns="http://www.w3.org/2000/svg" width="86" height="24" viewBox="0 0 86 24">
  <g fill="none" fill-rule="evenodd">
    <rect width="85" height="23" x=".5" y=".5" stroke="#CBC1FF" rx="11.5"/>
    <text fill="#1F0066" font-family="RedHatText-Regular, Red Hat Text" font-size="12">
      <tspan x="24" y="15">Label</tspan>
    </text>
    <path fill="#6A6E73" d="M9.77960353,16.0341281 L12.1249959,13.6887358 L14.4703882,16.0341281 C14.7581836,16.3219463 15.2250556,16.3219463 15.5128739,16.0341281 L16.0341281,15.5128739 C16.3219463,15.2250556 16.3219463,14.7584353 16.0341281,14.4703882 L13.6887358,12.1249959 L16.0341281,9.77960353 C16.3219463,9.4918082 16.3219463,9.02516502 16.0341281,8.73711792 L15.5128739,8.21586367 C15.2250556,7.92804544 14.7584353,7.92804544 14.4703882,8.21586367 L12.1249959,10.561256 L9.77960353,8.21586367 C9.4918082,7.92804544 9.02516502,7.92804544 8.73711792,8.21586367 L8.21586367,8.73711792 C7.92804544,9.02493614 7.92804544,9.49155643 8.21586367,9.77960353 L10.561256,12.1249959 L8.21586367,14.4703882 C7.92804544,14.7581836 7.92804544,15.2248268 8.21586367,15.5128739 L8.73711792,16.0341281 C9.02493614,16.3219463 9.4918082,16.3219463 9.77960353,16.0341281 Z" transform="translate(58)"/>
    <path fill="#151515" d="M12.0937355,17.9999714 C12.4062346,17.9999714 12.6718592,17.8905965 12.8906086,17.6718472 L17.6718472,12.8906086 C17.8905965,12.6718592 17.9999714,12.4062346 17.9999714,12.0937355 C17.9999714,11.7812363 17.8905965,11.5156117 17.6718472,11.2968624 L12.703109,6.32812422 C12.4843597,6.10937486 12.2187351,6 11.9062359,6 L7.12499732,6 C6.81249818,6 6.54687358,6.10937486 6.32812422,6.32812422 C6.10937486,6.54687358 6,6.81249818 6,7.12499732 L6,11.9062359 C6,12.2187351 6.10937486,12.4843597 6.32812422,12.703109 L11.2968624,17.6718472 C11.5156117,17.8905965 11.7812363,17.9999714 12.0937355,17.9999714 Z M8.62499374,9.74999106 C8.31249461,9.74999106 8.04687,9.6406162 7.82812064,9.42186684 C7.60937128,9.20311748 7.49999642,8.93749288 7.49999642,8.62499374 C7.49999642,8.31249461 7.60937128,8.04687 7.82812064,7.82812064 C8.04687,7.60937128 8.31249461,7.49999642 8.62499374,7.49999642 C8.93749288,7.49999642 9.20311748,7.60937128 9.42186684,7.82812064 C9.6406162,8.04687 9.74999106,8.31249461 9.74999106,8.62499374 C9.74999106,8.93749288 9.6406162,9.20311748 9.42186684,9.42186684 C9.20311748,9.6406162 8.93749288,9.74999106 8.62499374,9.74999106 Z"/>
    <rect width="24" height="24" fill="#6753AC"/>
    <g fill="#EC7A08" fill-opacity=".9" stroke="#C77000" transform="translate(54)">
      <rect width="3" height="23" x=".5" y=".5"/>
      <rect width="3" height="23" x=".5" y=".5" transform="translate(28)"/>
    </g>
  </g>
</svg>
