<?xml version="1.0" encoding="UTF-8"?>
<svg width="24px" height="24px" viewBox="0 0 24 24" version="1.1" xmlns="http://www.w3.org/2000/svg" xmlns:xlink="http://www.w3.org/1999/xlink">
    <title></title>
    <g id="Icons" stroke="none" stroke-width="1" fill="none" fill-rule="evenodd">
        <g id="Icons/2.-Size-sm-(12px)/Object/key" fill="#151515">
            <path d="M9.1874924,17.9999714 C9.49815298,17.9999714 9.74999106,17.7481333 9.74999106,17.4374727 L9.74999106,16.499975 L10.6874888,16.499975 C10.9981494,16.499975 11.2499875,16.2481369 11.2499875,15.9374763 L11.2499875,14.9999785 L12.1224143,14.9999785 C12.2618488,14.9999785 12.4501952,14.9154069 12.5428235,14.8111973 L13.1055968,14.1780429 C13.3548943,14.2251009 13.6120195,14.2499803 13.8749812,14.2499803 C16.1531511,14.2499803 17.9999714,12.403183 17.9999714,10.1250131 C17.9999714,7.84009113 16.1598574,6 13.8749583,6 C11.5967884,6 9.74999106,7.84682024 9.74999106,10.1249902 C9.74999106,10.5766645 9.82284397,11.0112643 9.95696841,11.4179864 L6.16474875,15.210206 C6.05928025,15.3156974 6,15.458794 6,15.6079788 L6,17.4374727 C6,17.7481333 6.25183808,17.9999714 6.56249866,17.9999714 L9.1874924,17.9999714 Z M14.9999785,10.1249902 C14.3786574,10.1249902 13.8749812,9.621314 13.8749812,8.99999285 C13.8749812,8.3786717 14.3786574,7.87499553 14.9999785,7.87499553 C15.6212997,7.87499553 16.1249759,8.3786717 16.1249759,8.99999285 C16.1249759,9.621314 15.6212997,10.1249902 14.9999785,10.1249902 Z" id="key"></path>
        </g>
    </g>
</svg>