<?xml version="1.0" encoding="UTF-8"?>
<svg width="24px" height="24px" viewBox="0 0 24 24" version="1.1" xmlns="http://www.w3.org/2000/svg" xmlns:xlink="http://www.w3.org/1999/xlink">
    <title></title>
    <g id="Icons" stroke="none" stroke-width="1" fill="none" fill-rule="evenodd">
        <g id="Icons/2.-Size-sm-(12px)/Object/memory" fill="#151515">
            <path d="M19.9999642,13.9999857 L19.9999642,11.6810749 C19.5640369,11.526168 19.249966,11.1141359 19.249966,10.6249937 C19.249966,10.1358515 19.5640369,9.72381944 19.9999642,9.56891258 L19.9999642,8.74999821 C19.9999642,8.33586041 19.6641038,8 19.249966,8 L5.74999821,8 C5.33586041,8 5,8.33586041 5,8.74999821 L5,9.56891258 C5.43592731,9.72381944 5.74999821,10.1358515 5.74999821,10.6249937 C5.74999821,11.1141359 5.43592731,11.526168 5,11.6810749 L5,13.9999857 L19.9999642,13.9999857 Z M10.2499911,12.4999964 L8.74999106,12.4999964 L8.74999106,9.49999642 L10.2499911,9.49999642 L10.2499911,12.4999964 Z M13.2499839,12.4999964 L11.7499839,12.4999964 L11.7499839,9.49999642 L13.2499839,9.49999642 L13.2499839,12.4999964 Z M16.2499768,12.4999964 L14.7499768,12.4999964 L14.7499768,9.49999642 L16.2499768,9.49999642 L16.2499768,12.4999964 Z M6.5,16.9999785 L6.5,16.3749037 C6.5,16.1677204 6.66781219,15.9999046 6.87499553,15.9999046 C7.08217887,15.9999046 7.24999464,16.1677204 7.24999464,16.3749037 L7.24999464,16.9999785 L10.2499875,16.9999785 L10.2499875,16.3749037 C10.2499875,16.1677204 10.4178032,15.9999046 10.6249866,15.9999046 C10.8321699,15.9999046 10.9999857,16.1677204 10.9999857,16.3749037 L10.9999857,16.9999785 L13.9999785,16.9999785 L13.9999785,16.3749037 C13.9999785,16.1677204 14.1677943,15.9999046 14.3749776,15.9999046 C14.582161,15.9999046 14.7499768,16.1677204 14.7499768,16.3749037 L14.7499768,16.9999785 L17.7499696,16.9999785 L17.7499696,16.3749037 C17.7499696,16.1677204 17.9177854,15.9999046 18.1249687,15.9999046 C18.3321521,15.9999046 18.4999678,16.1677204 18.4999678,16.3749037 L18.4999678,16.9999785 L19.9999642,16.9999785 L19.9999642,14.7499839 L5,14.7499839 L5,16.9999785 L6.5,16.9999785 Z" id="memory"></path>
        </g>
    </g>
</svg>