<?xml version="1.0" encoding="UTF-8"?>
<svg width="24px" height="24px" viewBox="0 0 24 24" version="1.1" xmlns="http://www.w3.org/2000/svg" xmlns:xlink="http://www.w3.org/1999/xlink">
    <title></title>
    <g id="Icons" stroke="none" stroke-width="1" fill="none" fill-rule="evenodd">
        <g id="Icons/2.-Size-sm-(12px)/Object/pficon-bundle" fill="#151515">
            <path d="M9.68146829,8.42005388 L9.72143026,11.7224825 L13.62739,12.5860594 C13.7549731,12.6142067 13.888498,12.5919526 14.0000559,12.5239484 L15.7388115,11.4588039 L15.7915472,8.29817574 C15.7958513,8.04400416 15.6106689,7.82620163 15.3591142,7.78956892 L11.9148851,7.29268115 L10.0246021,7.93605706 C9.81756238,8.00623292 9.67901651,8.2014545 9.68107015,8.42005388 L9.68146829,8.42005388 Z M17.5566707,6.79227766 L14.465185,6.41492421 L12.7621725,7.00439249 L16.0798359,7.4637793 C16.3331329,7.499056 16.5202439,7.71785517 16.5157846,7.97355802 L16.4622285,11.0157065 L17.9282819,10.1180272 L17.9997681,7.30662682 C18.0076162,7.04629833 17.8153954,6.82305788 17.5567879,6.79216047 L17.5566707,6.79227766 Z M9.71896926,12.6787571 L9.76467355,16.3456482 L13.4854723,17.4624738 C13.65477,17.5130769 13.8382019,17.4717715 13.9694691,17.3534866 L15.6546687,15.8276662 L15.7120921,12.396328 L13.9847039,13.5260445 C13.8688811,13.6020068 13.7269214,13.6270087 13.5921157,13.5951869 L9.71896926,12.6787571 Z M9.19044005,7.80363178 C9.82795643,7.59386077 10.4654728,7.38448038 11.1029892,7.17549064 L8.33612121,6.77587099 L6.3649768,7.34893259 C6.14278647,7.41338197 5.99262198,7.62034069 6.00027992,7.8515627 L6.10692329,10.9242979 L8.88433843,11.5383762 L8.84214984,8.28985522 C8.83989874,8.06925003 8.98066885,7.87255108 9.19020566,7.80351459 L9.19044005,7.80363178 Z M11.9631676,6.8930615 C12.5526358,6.69969716 13.1417135,6.50633281 13.7304005,6.31296847 L11.1358025,6.00358551 C11.0685804,5.99551773 11.0004215,6.00109799 10.9354068,6.01999219 L9.23473806,6.51453615 L11.9631676,6.8930615 Z M6.12602534,11.8291259 L6.23384062,14.9288149 C6.24095029,15.1454916 6.38584601,15.3333368 6.59361549,15.3952332 L8.96519988,16.1065796 L8.90308891,12.4865647 L6.12602534,11.8291259 Z M16.4352747,11.9240502 L17.9107033,10.9595723 L17.8380452,13.6397193 C17.8347154,13.7778332 17.7744998,13.9084419 17.6716346,14.0006661 L16.3778514,15.1725712 L16.4352747,11.9240502 Z" id="pficon-bundle"></path>
        </g>
    </g>
</svg>