<?xml version="1.0" encoding="UTF-8"?>
<svg width="24px" height="24px" viewBox="0 0 24 24" version="1.1" xmlns="http://www.w3.org/2000/svg" xmlns:xlink="http://www.w3.org/1999/xlink">
    <title></title>
    <g id="Icons" stroke="none" stroke-width="1" fill="none" fill-rule="evenodd">
        <g id="Icons/2.-Size-sm-(12px)/Object/pficon-route" fill="#151515">
            <path d="M17.9531394,11.0477795 L16.8330781,12.1696784 C16.7411945,12.2624809 16.5822358,12.1972435 16.5822358,12.0658499 L16.5822358,11.5283308 L13.5013783,11.5283308 C13.4646248,11.5283308 13.4333844,11.5081164 13.4287902,11.4713629 C13.3993874,11.2526799 13.3598775,11.0388974 13.3102603,10.8300153 C13.2799387,10.7013783 13.245023,10.5764165 13.2073507,10.4551302 C13.1926493,10.4073507 13.2275651,10.3522205 13.2771822,10.3522205 L16.5803982,10.3522205 L16.5803982,9.82480858 C16.5803982,9.69433384 16.738438,9.62817764 16.8312404,9.72098009 L17.9522205,10.8392037 C17.9807044,10.8676876 18,10.9053599 18,10.9430322 C18,10.9807044 17.9807044,11.0183767 17.9531394,11.0477795 Z M10.3111792,14.5669219 L9.19111792,15.6888208 C9.0992343,15.7816233 8.94027565,15.7163859 8.94027565,15.5849923 L8.94027565,15.0566616 L6.14701378,15.0566616 C6.0661562,15.0566616 6,14.9859112 6,14.9050536 L6,14.0229709 C6,13.9421133 6.0661562,13.8805513 6.14701378,13.8805513 L8.94027565,13.8805513 L8.94027565,13.3457887 C8.94027565,13.2153139 9.09831547,13.1491577 9.19111792,13.2419602 L10.3111792,14.3592649 C10.3684239,14.4166485 10.3684239,14.5095384 10.3111792,14.5669219 Z M15.9932619,12.2597243 C15.9912674,12.1799697 15.9260276,12.116361 15.8462481,12.1163859 L11.8805513,12.1163859 L11.8805513,10.9402757 L12.6358346,10.9402757 C12.6836141,10.9402757 12.7194487,10.8897397 12.706585,10.8437979 C12.6671265,10.6923112 12.6198971,10.5429559 12.5650842,10.3963247 C12.5536725,10.3685953 12.5261311,10.3509688 12.4961715,10.3522205 L11.8805513,10.3522205 L11.8805513,8.64042879 C11.9948745,8.68232676 12.102094,8.74151436 12.1984686,8.81592649 C12.4254211,8.98683002 12.6431853,9.25053599 12.8278714,9.57947933 C12.8591118,9.63552833 12.9068913,9.71546708 12.9932619,9.71546708 L13.4370597,9.71546708 C13.4621321,9.71521391 13.4853872,9.70233795 13.4989085,9.68122254 C13.5124297,9.66010712 13.5143948,9.63359806 13.5041348,9.61071975 C13.3884936,9.35731858 13.2474993,9.11627373 13.0833078,8.89127106 C13.5187486,9.07783824 13.9161691,9.34288904 14.2557427,9.67320061 C14.2831041,9.69966819 14.3196655,9.71449038 14.3577335,9.71454824 L14.9255743,9.71454824 C14.9541103,9.71467832 14.9801431,9.698281 14.9923506,9.6724876 C15.0045582,9.64669421 15.0007343,9.6161663 14.9825421,9.5941807 C14.175804,8.62480858 12.9629403,8.00551302 11.6039816,8 L11.5635528,8 C9.14701378,8.01286371 7.17611026,10.0159265 7.17611026,12.4361409 L7.17611026,12.5574273 C7.17611026,12.6566616 7.21929556,13.0572741 7.25145482,13.2281776 C7.25788668,13.2630934 7.28820827,13.2924962 7.32404288,13.2924962 L7.77335375,13.2924962 C7.8202144,13.2924962 7.85513017,13.2447167 7.84502297,13.1987749 C7.81102865,13.0356894 7.78770201,12.8705614 7.77519142,12.704441 L11.2924962,12.704441 L11.2924962,13.8805513 L10.901072,13.8805513 C10.8718461,13.8794425 10.844943,13.8964077 10.8333485,13.9232582 C10.821754,13.9501087 10.8278517,13.9813243 10.8486983,14.0018377 L11.2061256,14.3601838 C11.2613485,14.4151872 11.2924232,14.4898988 11.2924962,14.5678407 L11.2924962,16.1803982 C11.1781729,16.1385002 11.0709535,16.0793126 10.9745789,16.0049005 C10.794487,15.8698315 10.620827,15.6750383 10.463706,15.4370597 C10.4516094,15.4186724 10.4319101,15.406673 10.4100224,15.4043596 C10.3881348,15.4020463 10.3663622,15.4096625 10.3506891,15.4251149 L10.0327718,15.7430322 C10.0077647,15.7681859 10.0042861,15.8076094 10.0245023,15.8367534 C10.0465544,15.8679939 10.0686064,15.8992343 10.0906585,15.9295559 C10.0493109,15.912098 10.0088821,15.8937213 9.96845329,15.8753446 C9.94052692,15.8624634 9.90753361,15.8683289 9.88575804,15.8900459 L9.55589587,16.2189893 C9.53941506,16.2357005 9.53183146,16.2592349 9.53545482,16.2824244 C9.53907819,16.3056139 9.55347953,16.3257131 9.57427259,16.3366003 C10.1969116,16.6558954 10.8867899,16.8219072 11.5865237,16.8208374 C13.923124,16.8208374 15.8361409,15.0042879 15.9877489,12.7053599 C15.9941807,12.6079632 15.9969372,12.5105666 15.9969372,12.4113323 L15.9932619,12.2597243 Z M9.11117917,12.1163859 L7.77519142,12.1163859 C7.80529772,11.7115263 7.9011952,11.314281 8.05911179,10.9402757 L9.24808576,10.9402757 C9.17128441,11.3280538 9.125504,11.7213351 9.11117917,12.1163859 L9.11117917,12.1163859 Z M8.36875957,10.3522205 C8.51746035,10.1197124 8.69023569,9.90351223 8.88422665,9.70719755 C9.23016845,9.36018208 9.63979364,9.08314692 10.0906585,8.89127106 C9.80306279,9.27901991 9.56324655,9.78162328 9.39326187,10.3522205 L8.36875957,10.3522205 Z M11.2924962,12.1163859 L9.6992343,12.1163859 C9.71436187,11.7207505 9.76416998,11.327205 9.84808576,10.9402757 L11.2924962,10.9402757 L11.2924962,12.1163859 Z M11.2924962,10.3522205 L10.0098009,10.3522205 C10.1035222,10.0719755 10.2156202,9.81102603 10.3451761,9.58039816 C10.5298622,9.25145482 10.7476263,8.98774885 10.9745789,8.81684533 C11.0709535,8.7424332 11.1781729,8.6832456 11.2924962,8.64134763 L11.2924962,10.3522205 Z M11.2951991,8.59714395 L11.3851991,8.59714395 L11.3851991,8.50714395 L11.2951991,8.50714395 L11.2951991,8.59714395 Z M11.8805513,12.704441 L13.4738132,12.704441 C13.4592874,13.1000219 13.4100944,13.4935666 13.3267994,13.8805513 L11.8805513,13.8805513 L11.8805513,12.704441 Z M12.1984686,16.0039816 C12.102094,16.0783938 11.9948745,16.1375814 11.8805513,16.1794793 L11.8805513,14.4686064 L13.1660031,14.4686064 C13.0788445,14.7363346 12.9655898,14.9948507 12.8278714,15.2404288 C12.6431853,15.5693721 12.4254211,15.8339969 12.1984686,16.0039816 L12.1984686,16.0039816 Z M14.2897397,15.1136294 C13.9437979,15.4606449 13.5341727,15.73768 13.0833078,15.9295559 C13.3718224,15.5390505 13.6116386,15.0392037 13.7825421,14.4640123 L14.8116386,14.4640123 C14.6615563,14.6987014 14.4865762,14.9165023 14.2897397,15.1136294 L14.2897397,15.1136294 Z M15.117611,13.8759571 L13.9267994,13.8759571 C14.0024729,13.4895978 14.0476352,13.0978841 14.0618683,12.704441 L15.397856,12.704441 C15.3680118,13.1074703 15.2733825,13.5030517 15.117611,13.8759571 L15.117611,13.8759571 Z" id="pficon-route"></path>
        </g>
    </g>
</svg>