<?xml version="1.0" encoding="UTF-8"?>
<svg width="24px" height="24px" viewBox="0 0 24 24" version="1.1" xmlns="http://www.w3.org/2000/svg" xmlns:xlink="http://www.w3.org/1999/xlink">
    <title></title>
    <g id="Icons" stroke="none" stroke-width="1" fill="none" fill-rule="evenodd">
        <g id="Icons/2.-Size-sm-(12px)/Object/pficon-regions" fill="#151515">
            <path d="M12,16 C8.85729167,16.0020833 7.83020833,15.3958333 7.49583333,15 C7.334375,14.8083333 7.33333333,15 7.33333333,15 L7.33333333,16.3333333 C7.33333333,17.0697917 9.421875,17.6666667 12,17.6666667 C14.578125,17.6666667 16.6666667,17.0697917 16.6666667,16.3333333 L16.6666667,15 C16.6666667,15 16.6666667,14.8083333 16.5041667,15 C16.16875,15.3947917 15.1427083,15.9979167 12,16 L12,16 Z M12,13.6666667 C8.85729167,13.6666667 7.83020833,13.0614583 7.49583333,12.6666667 C7.33333333,12.475 7.33333333,12.6666667 7.33333333,12.6666667 L7.33333333,13.6666667 C7.33333333,14.403125 9.421875,15 12,15 C14.578125,15 16.6666667,14.403125 16.6666667,13.6666667 L16.6666667,12.6666667 C16.6666667,12.6666667 16.6666667,12.475 16.5041667,12.6666667 C16.1697917,13.0614583 15.1427083,13.6666667 12,13.6666667 L12,13.6666667 Z M12,11.3333333 C8.85729167,11.3333333 7.83020833,10.728125 7.49583333,10.3333333 C7.33333333,10.1416667 7.33333333,10.3333333 7.33333333,10.3333333 L7.33333333,11.3333333 C7.33333333,12.0697917 9.421875,12.6666667 12,12.6666667 C14.578125,12.6666667 16.6666667,12.0697917 16.6666667,11.3333333 L16.6666667,10.3333333 C16.6666667,10.3333333 16.6666667,10.1416667 16.5041667,10.3333333 C16.1697917,10.728125 15.1427083,11.3333333 12,11.3333333 L12,11.3333333 Z M16.6666667,9 C16.6666667,9.73645833 14.578125,10.3333333 12,10.3333333 C9.421875,10.3333333 7.33333333,9.73645833 7.33333333,9 L7.33333333,8.33333333 C7.33333333,7.596875 9.421875,7 12,7 C14.578125,7 16.6666667,7.596875 16.6666667,8.33333333 L16.6666667,9 Z M17.3333333,8.5 L17.3333333,16.1666667 C17.3333333,16.2583333 17.4083333,16.3333333 17.5,16.3333333 L17.8333333,16.3333333 C17.925,16.3333333 18,16.2583333 18,16.1666667 L18,8.5 C18,8.40833333 17.925,8.33333333 17.8333333,8.33333333 L17.5,8.33333333 C17.4083333,8.33333333 17.3333333,8.40833333 17.3333333,8.5 L17.3333333,8.5 Z M6,8.5 L6,16.1666667 C6,16.2583333 6.075,16.3333333 6.16666667,16.3333333 L6.5,16.3333333 C6.59166667,16.3333333 6.66666667,16.2583333 6.66666667,16.1666667 L6.66666667,8.5 C6.66666667,8.40833333 6.59166667,8.33333333 6.5,8.33333333 L6.16666667,8.33333333 C6.075,8.33333333 6,8.40833333 6,8.5 L6,8.5 Z" id="pficon-regions"></path>
        </g>
    </g>
</svg>