<?xml version="1.0" encoding="UTF-8"?>
<svg width="24px" height="24px" viewBox="0 0 24 24" version="1.1" xmlns="http://www.w3.org/2000/svg" xmlns:xlink="http://www.w3.org/1999/xlink">
    <title></title>
    <g id="Icons" stroke="none" stroke-width="1" fill="none" fill-rule="evenodd">
        <g id="Icons/2.-Size-sm-(12px)/Object/pficon-catalog" fill="#151515">
            <path d="M12.3529412,8.41176471 C13.5805147,7.62426471 15.6463235,7 16.5882353,7 L16.5882353,15.4705882 C15.9132353,15.2841912 14.1397059,15.0349265 12.3529412,16.1764706 L12.3529412,8.41176471 Z M17.2941176,7.70588235 C18,7.70588235 18,8.44264706 18,8.44264706 L18,16.8823529 C18,17.5882353 16.8716912,17.5650735 16.8716912,17.5650735 C15.5194853,15.5224265 12.3529412,17.5882353 12.3529412,17.5882353 L12.3529412,16.8536765 C15.5183824,14.6841912 17.2941176,16.8823529 17.2941176,16.8823529 L17.2941176,7.70588235 Z M7.41176471,15.4705882 L7.41176471,7 C8.34816176,7 10.4183824,7.62095588 11.6470588,8.41176471 L11.6470588,16.1764706 C9.88235294,15.0349265 8.08786765,15.2852941 7.41176471,15.4705882 Z M11.6470588,16.8536765 L11.6470588,17.5882353 C11.6470588,17.5882353 8.51360294,15.5345588 7.13051471,17.5650735 C7.13051471,17.5650735 6,17.5882353 6,16.8823529 L6,8.44264706 C6,8.44264706 6,7.70588235 6.70588235,7.70588235 L6.70588235,16.8823529 C6.70588235,16.88125 8.49264706,14.6841912 11.6470588,16.8536765 Z" id="pficon-catalog"></path>
        </g>
    </g>
</svg>