<?xml version="1.0" encoding="UTF-8"?>
<svg width="24px" height="24px" viewBox="0 0 24 24" version="1.1" xmlns="http://www.w3.org/2000/svg" xmlns:xlink="http://www.w3.org/1999/xlink">
    <title></title>
    <g id="Icons" stroke="none" stroke-width="1" fill="none" fill-rule="evenodd">
        <g id="Icons/2.-Size-sm-(12px)/Object/pficon-cloud-security" fill="#151515">
            <path d="M10.8011719,7.00000318 C11.4585938,7.00000318 12.0550781,7.18633771 12.590625,7.56250959 C13.1261719,7.93868146 13.51875,8.42618146 13.7636719,9.03438459 C14.0554687,8.77071271 14.4011719,8.63711896 14.8007812,8.63711896 C15.2425781,8.63711896 15.6210938,8.79766584 15.928125,9.11758771 C16.2433594,9.43633771 16.3980469,9.82188459 16.3980469,10.2754002 C16.3999822,10.5880519 16.3112451,10.8945613 16.1425781,11.1578221 C16.6804687,11.2863377 17.1246094,11.5726658 17.475,12.0168065 C17.825,12.4613377 18,12.9707127 18,13.5449315 C18,14.2234471 17.7679688,14.8011815 17.2980469,15.2816502 C16.8316641,15.7538338 16.2733969,15.9951579 15.6198341,16.0000032 L15.6,16.0000032 L8.79960937,16.0000032 C8.02890625,15.9992283 7.36992188,15.7187596 6.82265625,15.1586033 C6.27421875,14.5976658 6,13.9234471 6,13.1359471 C6,12.5742283 6.14804687,12.0601658 6.44414063,11.5937596 C6.74101562,11.1257908 7.13085938,10.7769627 7.61367187,10.5472752 C7.60546875,10.427744 7.60078125,10.3351658 7.60078125,10.2718846 C7.60078125,9.36954084 7.9125,8.59610334 8.53828125,7.95743146 C9.16445312,7.31797835 9.91875,6.99883771 10.8011719,7.00000318 Z M12,9.25000959 C11.5886719,9.25000959 11.2359375,9.39766584 10.940625,9.69415021 C10.6453125,9.99063459 10.4976562,10.3410252 10.4976562,10.7546971 L10.4976562,11.4929783 L10.1261719,11.4929783 C10.021875,11.4929783 9.9328125,11.5175877 9.86015625,11.590244 C9.78874211,11.6606954 9.74898807,11.7571201 9.75,11.8574315 L9.75,14.1132908 C9.74835626,14.213723 9.78820874,14.3103864 9.86015625,14.3804783 C9.93398437,14.4531346 10.021875,14.5000096 10.1261719,14.5000096 L13.8726562,14.5000096 C13.9769531,14.5000096 14.0660156,14.4531346 14.1386719,14.3804783 C14.210086,14.3100269 14.2498401,14.2136022 14.2488281,14.1132908 L14.2511719,11.8586033 C14.2533976,11.7580617 14.2134532,11.6611752 14.1410156,11.5914158 C14.0671875,11.5187596 13.9792969,11.4929783 13.875,11.4929783 L13.5011719,11.4929783 L13.5011719,10.7546971 C13.5011719,10.3421971 13.3558594,9.99063459 13.0605469,9.69415021 C12.7652344,9.39766584 12.4113281,9.25000959 12,9.25000959 Z M12,10.0199315 C12.2074219,10.0199315 12.3855469,10.0925877 12.5296875,10.2390721 C12.6733821,10.377941 12.7531404,10.5701245 12.75,10.7699315 L12.75,11.5000096 L11.25,11.5000096 L11.25,10.7699315 C11.25,10.3557179 11.5857864,10.0199315 12,10.0199315 Z" id="pficon-cloud-security"></path>
        </g>
    </g>
</svg>