<?xml version="1.0" encoding="UTF-8"?>
<svg width="24px" height="24px" viewBox="0 0 24 24" version="1.1" xmlns="http://www.w3.org/2000/svg" xmlns:xlink="http://www.w3.org/1999/xlink">
    <title></title>
    <g id="Icons" stroke="none" stroke-width="1" fill="none" fill-rule="evenodd">
        <g id="Icons/2.-Size-sm-(12px)/Object/pficon-flavor" fill="#151515">
            <path d="M18,7.41176471 L18,7.41176471 L18,15.8823529 C17.6103032,15.8819881 17.2944825,15.5661674 17.2941176,15.1764706 L17.2941176,8.11764706 C17.2944825,7.72795021 17.6103032,7.41212954 18,7.41176471 L18,7.41176471 Z M10.2352941,10.9411765 L10.9411765,10.9411765 L10.9411765,9.52941176 L10.2352941,9.52941176 L10.2352941,10.9411765 Z M15,9.51838235 L14.4705882,9.51838235 L14.4705882,11.4705882 C14.4705882,11.5680503 14.3915797,11.6470588 14.2941176,11.6470588 L9.70588235,11.6470588 C9.60842034,11.6470588 9.52941176,11.5680503 9.52941176,11.4705882 L9.52941176,9.51838235 L9,9.51838235 C8.90253799,9.51838235 8.82352941,9.43937378 8.82352941,9.34191176 L8.82352941,7.58823529 C8.82352941,7.49077328 8.90253799,7.41176471 9,7.41176471 L15,7.41176471 C15.097462,7.41176471 15.1764706,7.49077328 15.1764706,7.58823529 L15.1764706,9.34191176 C15.1764706,9.43937378 15.097462,9.51838235 15,9.51838235 Z M13.7647059,13.7647059 L13.0588235,13.7647059 L13.0588235,14.4705882 L13.7647059,14.4705882 L13.7647059,15.1764706 L13.0588235,15.1764706 L13.0588235,15.8823529 L12.3529412,15.8823529 L12.3529412,15.1764706 L11.6470588,15.1764706 L11.6470588,15.8823529 L10.9411765,15.8823529 L10.9411765,15.1764706 L10.2352941,15.1764706 L10.2352941,14.4705882 L10.9411765,14.4705882 L10.9411765,13.7647059 L10.2352941,13.7647059 L10.2352941,13.0588235 L10.9411765,13.0588235 L10.9411765,12.3529412 L11.6470588,12.3529412 L11.6470588,13.0588235 L12.3529412,13.0588235 L12.3529412,12.3529412 L13.0588235,12.3529412 L13.0588235,13.0588235 L13.7647059,13.0588235 L13.7647059,13.7647059 Z M7.41176471,6.70588235 L7.41176471,16.5882353 C7.41212954,16.9779321 7.72795021,17.2937528 8.11764706,17.2941176 L15.8823529,17.2941176 C16.2720498,17.2937528 16.5878705,16.9779321 16.5882353,16.5882353 L16.5882353,6.70588235 C16.5878705,6.31618551 16.2720498,6.00036483 15.8823529,6 L8.11764706,6 C7.72795021,6.00036483 7.41212954,6.31618551 7.41176471,6.70588235 Z M11.6580882,13.7647059 L12.3419118,13.7647059 C12.344893,13.7645087 12.3478145,13.7656072 12.3499272,13.7677199 C12.3520399,13.7698326 12.3531384,13.772754 12.3529412,13.7757353 L12.3529412,14.4595588 C12.3531384,14.4625401 12.3520399,14.4654615 12.3499272,14.4675742 C12.3478145,14.4696869 12.344893,14.4707855 12.3419118,14.4705882 L11.6580882,14.4705882 C11.655107,14.4707855 11.6521855,14.4696869 11.6500728,14.4675742 C11.6479601,14.4654615 11.6468616,14.4625401 11.6470588,14.4595588 L11.6470588,13.7757353 C11.6468616,13.772754 11.6479601,13.7698326 11.6500728,13.7677199 C11.6521855,13.7656072 11.655107,13.7645087 11.6580882,13.7647059 L11.6580882,13.7647059 Z M13.0588235,10.9411765 L13.7647059,10.9411765 L13.7647059,9.52941176 L13.0588235,9.52941176 L13.0588235,10.9411765 Z M11.6470588,10.9411765 L12.3529412,10.9411765 L12.3529412,9.52941176 L11.6470588,9.52941176 L11.6470588,10.9411765 Z M6,7.41176471 L6,7.41176471 C6.38969684,7.41212954 6.70551753,7.72795021 6.70588235,8.11764706 L6.70588235,15.1764706 C6.70551753,15.5661674 6.38969684,15.8819881 6,15.8823529 L6,7.41176471 Z" id="pficon-flavor"></path>
        </g>
    </g>
</svg>