<?xml version="1.0" encoding="UTF-8"?>
<svg width="24px" height="24px" viewBox="0 0 24 24" version="1.1" xmlns="http://www.w3.org/2000/svg" xmlns:xlink="http://www.w3.org/1999/xlink">
    <title></title>
    <g id="Icons" stroke="none" stroke-width="1" fill="none" fill-rule="evenodd">
        <g id="Icons/2.-Size-sm-(12px)/Object/users" fill="#151515">
            <path d="M12.4999821,12.2499875 C13.9507691,12.2499875 15.1249759,11.0757807 15.1249759,9.62499374 C15.1249759,8.1742068 13.9507691,7 12.4999821,7 C11.0491952,7 9.87498838,8.1742068 9.87498838,9.62499374 C9.87498838,11.0757807 11.0491952,12.2499875 12.4999821,12.2499875 Z M7.24999821,11.4999964 C8.07733184,11.4999964 8.74999821,10.82733 8.74999821,9.99999642 C8.74999821,9.17265565 8.07733184,8.49999642 7.24999821,8.49999642 C6.42265744,8.49999642 5.74999821,9.17265565 5.74999821,9.99999642 C5.74999821,10.82733 6.42265744,11.4999964 7.24999821,11.4999964 Z M17.7499732,11.4999964 C18.5773068,11.4999964 19.2499732,10.82733 19.2499732,9.99999642 C19.2499732,9.17265565 18.5773068,8.49999642 17.7499732,8.49999642 C16.9226324,8.49999642 16.2499732,9.17265565 16.2499732,9.99999642 C16.2499732,10.82733 16.9226324,11.4999964 17.7499732,11.4999964 Z M19.249966,15.2499875 C19.6648134,15.2499875 19.9999642,14.9148295 19.9999642,14.4999821 L19.9999642,13.7499875 C19.9999642,12.9226467 19.327305,12.2499875 18.4999678,12.2499875 L16.9999714,12.2499875 C16.5874815,12.2499875 16.214817,12.4163842 15.9429518,12.6859148 C16.8874762,13.203896 17.557778,14.1390363 17.7030947,15.2499875 L19.249966,15.2499875 Z M7.29453493,15.2499875 C7.44218625,14.1390363 8.112488,13.203896 9.05701242,12.6859148 C8.78514723,12.4163842 8.41248271,12.2499875 8,12.2499875 L6.5,12.2499875 C5.67265922,12.2499875 5,12.9226467 5,13.7499875 L5,14.4999821 C5,14.9148295 5.33515087,15.2499875 5.74999821,15.2499875 L7.29453493,15.2499875 Z M15.8749741,17.499975 C16.4960663,17.499975 16.9999714,16.9960699 16.9999714,16.3749776 L16.9999714,15.6999838 C16.9999714,14.2093487 15.7906084,12.9999857 14.2999732,12.9999857 L14.105447,12.9999857 C13.6179528,13.2343601 13.0765341,13.3749848 12.4999821,13.3749848 C11.9234301,13.3749848 11.3843689,13.2343601 10.8945172,12.9999857 L10.699991,12.9999857 C9.20935581,12.9999857 7.99999285,14.2093487 7.99999285,15.6999838 L7.99999285,16.3749776 C7.99999285,16.9960699 8.5038979,17.499975 9.12499017,17.499975 L15.8749741,17.499975 Z" id="users"></path>
        </g>
    </g>
</svg>