<?xml version="1.0" encoding="UTF-8"?><svg version="1.1" width="24px" height="24px" viewBox="0 0 24.0 24.0" xmlns="http://www.w3.org/2000/svg" xmlns:xlink="http://www.w3.org/1999/xlink"><defs><clipPath id="i0"><path d="M2.5,9.99997616 C2.77599436,9.99997616 3,10.2239746 3,10.4999762 L3,12.4999762 C3,12.7759705 2.77599436,12.9999762 2.5,12.9999762 L0.5,12.9999762 C0.223998489,12.9999762 0,12.7759705 0,12.4999762 L0,10.4999762 C0,10.2239746 0.223998489,9.99997616 0.5,9.99997616 Z M15.499963,10.499975 C15.7759634,10.499975 15.9999619,10.7239735 15.9999619,10.999975 L15.9999619,11.999975 C15.9999619,12.2759717 15.7759634,12.499975 15.499963,12.499975 L5.49998808,12.499975 C5.22398657,12.499975 4.99998808,12.2759717 4.99998808,11.999975 L4.99998808,10.999975 C4.99998808,10.7239735 5.22398657,10.499975 5.49998808,10.499975 Z M2.5,4.99998808 C2.77599436,4.99998808 3,5.22398657 3,5.49998808 L3,7.49998808 C3,7.77598244 2.77599436,7.99998808 2.5,7.99998808 L0.5,7.99998808 C0.223998489,7.99998808 0,7.77598244 0,7.49998808 L0,5.49998808 C0,5.22398657 0.223998489,4.99998808 0.5,4.99998808 Z M15.499963,5.49998689 C15.7759634,5.49998689 15.9999619,5.72398538 15.9999619,5.99998689 L15.9999619,6.99998689 C15.9999619,7.27598363 15.7759634,7.49998689 15.499963,7.49998689 L5.49998808,7.49998689 C5.22398657,7.49998689 4.99998808,7.27598363 4.99998808,6.99998689 L4.99998808,5.99998689 C4.99998808,5.72398538 5.22398657,5.49998689 5.49998808,5.49998689 Z M2.5,0 C2.77599436,0 3,0.223998489 3,0.5 L3,2.5 C3,2.77599436 2.77599436,3 2.5,3 L0.5,3 C0.223998489,3 0,2.77599436 0,2.5 L0,0.5 C0,0.223998489 0.223998489,0 0.5,0 Z M15.499963,0.499998808 C15.7759634,0.499998808 15.9999619,0.723997297 15.9999619,0.999998808 L15.9999619,1.99999881 C15.9999619,2.27599555 15.7759634,2.49999881 15.499963,2.49999881 L5.49998808,2.49999881 C5.22398657,2.49999881 4.99998808,2.27599555 4.99998808,1.99999881 L4.99998808,0.999998808 C4.99998808,0.723997297 5.22398657,0.499998808 5.49998808,0.499998808 Z"></path></clipPath></defs><g transform="translate(4.0 6.0)"><g clip-path="url(#i0)"><polygon points="0,0 15.9999619,0 15.9999619,12.9999762 0,12.9999762 0,0" stroke="none" fill="#151515"></polygon></g></g></svg>