<?xml version="1.0" encoding="UTF-8"?><svg version="1.1" width="24px" height="24px" viewBox="0 0 24.0 24.0" xmlns="http://www.w3.org/2000/svg" xmlns:xlink="http://www.w3.org/1999/xlink"><defs><clipPath id="i0"><path d="M12.9088235,0 C14.0955882,0 15.0602941,0.969117647 15.0602941,2.15588235 C15.0602941,3.34264706 14.0955882,4.30735294 12.9088235,4.30735294 C12.5323529,4.30735294 12.1794118,4.20882353 11.8735294,4.04117647 L10.5955882,5.34558824 C11.0352941,5.96029412 11.2941176,6.71470588 11.2941176,7.52941176 C11.2941176,7.95147059 11.225,8.35735294 11.0970588,8.73676471 L12.1882353,9.47941176 C12.4602941,9.66029412 12.5514706,10.0132353 12.3941176,10.2647059 C12.2367647,10.5132353 11.8838235,10.5647059 11.6147059,10.3794118 L10.6088235,9.69411765 C9.95882353,10.6191176 8.90147059,11.2382353 7.69852941,11.2911765 L7.61176471,12.3485294 C8.11617647,12.5632353 8.47058824,13.0632353 8.47058824,13.6470588 C8.47058824,14.4264706 7.83823529,15.0588235 7.05882353,15.0588235 C6.27941176,15.0588235 5.64705882,14.4264706 5.64705882,13.6470588 C5.64705882,13.0014706 6.08088235,12.4573529 6.67352941,12.2882353 L6.76176471,11.2147059 C5.72205882,11 4.83970588,10.3558824 4.30735294,9.47647059 L3.93088235,9.67205882 C3.65147059,9.80588235 3.325,9.69852941 3.21176471,9.42941176 C3.09852941,9.16029412 3.23235294,8.82794118 3.51470588,8.68970588 L3.88970588,8.49558824 C3.80882353,8.18676471 3.76470588,7.86323529 3.76470588,7.52941176 C3.76470588,6.34117647 4.31470588,5.28235294 5.175,4.59264706 L4.84705882,4.16323529 C4.65294118,3.89411765 4.68676471,3.53088235 4.925,3.35588235 C5.16029412,3.17794118 5.51617647,3.25441176 5.71470588,3.52352941 L6.10735294,4.04264706 C6.54558824,3.86323529 7.02647059,3.76470588 7.52941176,3.76470588 C8.40735294,3.76470588 9.21323529,4.06470588 9.85294118,4.56617647 L11.0897059,3.30147059 C10.8779412,2.96764706 10.7573529,2.575 10.7573529,2.15147059 C10.7573529,0.964705882 11.7220588,0 12.9088235,0 Z M7.05882353,12.9411765 C6.66911765,12.9411765 6.35294118,13.2573529 6.35294118,13.6470588 C6.35294118,14.0367647 6.66911765,14.3529412 7.05882353,14.3529412 C7.44852941,14.3529412 7.76470588,14.0367647 7.76470588,13.6470588 C7.76470588,13.2573529 7.44852941,12.9411765 7.05882353,12.9411765 Z M15.5279412,10.475 C15.8426471,10.7897059 16,11.2029412 16,11.6161765 C16,12.0294118 15.8426471,12.4411765 15.5279412,12.7573529 C14.8985294,13.3867647 13.8764706,13.3867647 13.2470588,12.7573529 C12.6176471,12.1264706 12.6176471,11.1058824 13.2470588,10.475 C13.8764706,9.84558824 14.8985294,9.84558824 15.5279412,10.475 Z M1.41176471,8.94117647 C2.19117647,8.94117647 2.82352941,9.57352941 2.82352941,10.3529412 C2.82352941,11.1323529 2.19117647,11.7647059 1.41176471,11.7647059 C0.632352941,11.7647059 0,11.1323529 0,10.3529412 C0,9.57352941 0.632352941,8.94117647 1.41176471,8.94117647 Z M7.52941176,5.64705882 C6.48970588,5.64705882 5.64705882,6.48970588 5.64705882,7.52941176 C5.64705882,8.56911765 6.48970588,9.41176471 7.52941176,9.41176471 C8.57058824,9.41176471 9.41176471,8.56911765 9.41176471,7.52941176 C9.41176471,6.48970588 8.56911765,5.64705882 7.52941176,5.64705882 Z M12.9088235,1.00882353 C12.2764706,1.00882353 11.7661765,1.51911765 11.7661765,2.15147059 C11.7661765,2.78382353 12.2764706,3.29411765 12.9088235,3.29411765 C13.5411765,3.29411765 14.0514706,2.78382353 14.0514706,2.15147059 C14.0514706,1.51911765 13.5411765,1.00882353 12.9088235,1.00882353 Z M3.76470588,0.0338235294 C4.65588235,0.0338235294 5.37794118,0.755882353 5.37794118,1.64705882 C5.37794118,2.53823529 4.65588235,3.26029412 3.76470588,3.26029412 C2.87352941,3.26029412 2.15147059,2.53823529 2.15147059,1.64705882 C2.15147059,0.755882353 2.87352941,0.0338235294 3.76470588,0.0338235294 Z"></path></clipPath></defs><g transform="translate(4.0 4.000000000000001)"><g clip-path="url(#i0)"><polygon points="0,0 16,0 16,15.0588235 0,15.0588235 0,0" stroke="none" fill="#151515"></polygon></g></g></svg>