<?xml version="1.0" encoding="UTF-8"?>
<svg width="24px" height="24px" viewBox="0 0 24 24" version="1.1" xmlns="http://www.w3.org/2000/svg" xmlns:xlink="http://www.w3.org/1999/xlink">
    <title></title>
    <g id="Icons" stroke="none" stroke-width="1" fill="none" fill-rule="evenodd">
        <g id="Icons/1.-Size-md/View-Type/pficon-topology" fill="#151515">
            <path d="M16.9088235,4 C15.7220588,4 14.7573529,4.96470588 14.7573529,6.15147059 C14.7573529,6.575 14.8779412,6.96764706 15.0897059,7.30147059 L13.8529412,8.56617647 C13.2132353,8.06470588 12.4073529,7.76470588 11.5294118,7.76470588 C11.0264706,7.76470588 10.5455882,7.86323529 10.1073529,8.04264706 L9.71470588,7.52352941 C9.51617647,7.25441176 9.16029412,7.17794118 8.925,7.35588235 C8.68676471,7.53088235 8.65294118,7.89411765 8.84705882,8.16323529 L9.175,8.59264706 C8.31470588,9.28235294 7.76470588,10.3411765 7.76470588,11.5294118 C7.76470588,11.8632353 7.80882353,12.1867647 7.88970588,12.4955882 L7.51470588,12.6897059 C7.23235294,12.8279412 7.09852941,13.1602941 7.21176471,13.4294118 C7.325,13.6985294 7.65147059,13.8058824 7.93088235,13.6720588 L8.30735294,13.4764706 C8.83970588,14.3558824 9.72205882,15 10.7617647,15.2147059 L10.6735294,16.2882353 C10.0808824,16.4573529 9.64705882,17.0014706 9.64705882,17.6470588 C9.64705882,18.4264706 10.2794118,19.0588235 11.0588235,19.0588235 C11.8382353,19.0588235 12.4705882,18.4264706 12.4705882,17.6470588 C12.4705882,17.0632353 12.1161765,16.5632353 11.6117647,16.3485294 L11.6985294,15.2911765 C12.9014706,15.2382353 13.9588235,14.6191176 14.6088235,13.6941176 L15.6147059,14.3794118 C15.8838235,14.5647059 16.2367647,14.5132353 16.3941176,14.2647059 C16.5514706,14.0132353 16.4602941,13.6602941 16.1882353,13.4794118 L15.0970588,12.7367647 C15.225,12.3573529 15.2941176,11.9514706 15.2941176,11.5294118 C15.2941176,10.7147059 15.0352941,9.96029412 14.5955882,9.34558824 L15.8735294,8.04117647 C16.1794118,8.20882353 16.5323529,8.30735294 16.9088235,8.30735294 C18.0955882,8.30735294 19.0602941,7.34264706 19.0602941,6.15588235 C19.0602941,4.96911765 18.0955882,4 16.9088235,4 Z M11.7647059,17.6470588 C11.7647059,18.0367647 11.4485294,18.3529412 11.0588235,18.3529412 C10.6691176,18.3529412 10.3529412,18.0367647 10.3529412,17.6470588 C10.3529412,17.2573529 10.6691176,16.9411765 11.0588235,16.9411765 C11.4485294,16.9411765 11.7647059,17.2573529 11.7647059,17.6470588 Z M11.5294118,13.4117647 C10.4897059,13.4117647 9.64705882,12.5691176 9.64705882,11.5294118 C9.64705882,10.4897059 10.4897059,9.64705882 11.5294118,9.64705882 C12.5691176,9.64705882 13.4117647,10.4897059 13.4117647,11.5294118 C13.4117647,12.5691176 12.5705882,13.4117647 11.5294118,13.4117647 Z M16.9088235,7.29411765 C16.2764706,7.29411765 15.7661765,6.78382353 15.7661765,6.15147059 C15.7661765,5.51911765 16.2764706,5.00882353 16.9088235,5.00882353 C17.5411765,5.00882353 18.0514706,5.51911765 18.0514706,6.15147059 C18.0514706,6.78382353 17.5411765,7.29411765 16.9088235,7.29411765 Z M17.2470588,14.475 C17.8764706,13.8455882 18.8985294,13.8455882 19.5279412,14.475 C19.8426471,14.7897059 20,15.2029412 20,15.6161765 C20,16.0294118 19.8426471,16.4411765 19.5279412,16.7573529 C18.8985294,17.3867647 17.8764706,17.3867647 17.2470588,16.7573529 C16.6176471,16.1264706 16.6176471,15.1058824 17.2470588,14.475 M7.76470588,4.03382353 C8.65588235,4.03382353 9.37794118,4.75588235 9.37794118,5.64705882 C9.37794118,6.53823529 8.65588235,7.26029412 7.76470588,7.26029412 C6.87352941,7.26029412 6.15147059,6.53823529 6.15147059,5.64705882 C6.15147059,4.75588235 6.87352941,4.03382353 7.76470588,4.03382353 M5.41176471,12.9411765 C6.19117647,12.9411765 6.82352941,13.5735294 6.82352941,14.3529412 C6.82352941,15.1323529 6.19117647,15.7647059 5.41176471,15.7647059 C4.63235294,15.7647059 4,15.1323529 4,14.3529412 C4,13.5735294 4.63235294,12.9411765 5.41176471,12.9411765" id="pficon-topology"></path>
        </g>
    </g>
</svg>