<?xml version="1.0" encoding="UTF-8"?><svg version="1.1" width="24px" height="24px" viewBox="0 0 24.0 24.0" xmlns="http://www.w3.org/2000/svg" xmlns:xlink="http://www.w3.org/1999/xlink"><defs><clipPath id="i0"><path d="M14.4999654,0 C15.3283936,0 15.9999619,0.671568223 15.9999619,1.5 L15.9999619,12.4999702 C15.9999619,13.3283984 15.3283936,13.9999666 14.4999654,13.9999666 L1.5,13.9999666 C0.671568223,13.9999666 0,13.3283984 0,12.4999702 L0,1.5 C0,0.671568223 0.671568223,0 1.5,0 Z M6.99998331,8.99997854 L1.99999523,8.99997854 L1.99999523,11.9999785 L6.99998331,11.9999785 L6.99998331,8.99997854 Z M13.9999666,8.99997854 L8.99997854,8.99997854 L8.99997854,11.9999785 L13.9999666,11.9999785 L13.9999666,8.99997854 Z M6.99998331,3.99999046 L1.99999523,3.99999046 L1.99999523,6.99999046 L6.99998331,6.99999046 L6.99998331,3.99999046 Z M13.9999666,3.99999046 L8.99997854,3.99999046 L8.99997854,6.99999046 L13.9999666,6.99999046 L13.9999666,3.99999046 Z"></path></clipPath></defs><g transform="translate(4.0 5.0)"><g clip-path="url(#i0)"><polygon points="0,0 15.9999619,0 15.9999619,13.9999666 0,13.9999666 0,0" stroke="none" fill="#151515"></polygon></g></g></svg>