<?xml version="1.0" encoding="UTF-8"?><svg version="1.1" width="24px" height="24px" viewBox="0 0 24.0 24.0" xmlns="http://www.w3.org/2000/svg" xmlns:xlink="http://www.w3.org/1999/xlink"><defs><clipPath id="i0"><path d="M6.74998391,7.49998212 C7.16419801,7.49998212 7.49998212,7.83576623 7.49998212,8.24998033 L7.49998212,13.2499684 C7.49998212,13.6641825 7.16419801,13.9999666 6.74998391,13.9999666 L0.749998212,13.9999666 C0.335784112,13.9999666 0,13.6641825 0,13.2499684 L0,8.24998033 C0,7.83576623 0.335784112,7.49998212 0.749998212,7.49998212 Z M15.2499636,7.49998212 C15.6641777,7.49998212 15.9999619,7.83576623 15.9999619,8.24998033 L15.9999619,13.2499684 C15.9999619,13.6641825 15.6641777,13.9999666 15.2499636,13.9999666 L9.24997795,13.9999666 C8.83576385,13.9999666 8.49997973,13.6641825 8.49997973,13.2499684 L8.49997973,8.24998033 C8.49997973,7.83576623 8.83576385,7.49998212 9.24997795,7.49998212 Z M15.2499636,0 C15.6641777,0 15.9999619,0.335784112 15.9999619,0.749998212 L15.9999619,5.74998629 C15.9999619,6.16420039 15.6641777,6.4999845 15.2499636,6.4999845 L9.24997795,6.4999845 C8.83576385,6.4999845 8.49997973,6.16420039 8.49997973,5.74998629 L8.49997973,0.749998212 C8.49997973,0.335784112 8.83576385,0 9.24997795,0 Z M6.74998391,0 C7.16419801,0 7.49998212,0.335784112 7.49998212,0.749998212 L7.49998212,5.74998629 C7.49998212,6.16420039 7.16419801,6.4999845 6.74998391,6.4999845 L0.749998212,6.4999845 C0.335784112,6.4999845 0,6.16420039 0,5.74998629 L0,0.749998212 C0,0.335784112 0.335784112,0 0.749998212,0 Z"></path></clipPath></defs><g transform="translate(4.0 5.0)"><g clip-path="url(#i0)"><polygon points="0,0 15.9999619,0 15.9999619,13.9999666 0,13.9999666 0,0" stroke="none" fill="#151515"></polygon></g></g></svg>