<?xml version="1.0" encoding="UTF-8"?>
<svg width="24px" height="24px" viewBox="0 0 24 24" version="1.1" xmlns="http://www.w3.org/2000/svg" xmlns:xlink="http://www.w3.org/1999/xlink">
    <title></title>
    <g id="Icons" stroke="none" stroke-width="1" fill="none" fill-rule="evenodd">
        <g id="Icons/1.-Size-md/View-Type/th-large" fill="#151515">
            <path d="M19.2499636,11.4999845 C19.6641777,11.4999845 19.9999619,11.1642004 19.9999619,10.7499863 L19.9999619,5.74999821 C19.9999619,5.33578411 19.6641777,5 19.2499636,5 L13.2499779,5 C12.8357638,5 12.4999797,5.33578411 12.4999797,5.74999821 L12.4999797,10.7499863 C12.4999797,11.1642004 12.8357638,11.4999845 13.2499779,11.4999845 L19.2499636,11.4999845 Z M10.7499839,11.4999845 C11.164198,11.4999845 11.4999821,11.1642004 11.4999821,10.7499863 L11.4999821,5.74999821 C11.4999821,5.33578411 11.164198,5 10.7499839,5 L4.74999821,5 C4.33578411,5 4,5.33578411 4,5.74999821 L4,10.7499863 C4,11.1642004 4.33578411,11.4999845 4.74999821,11.4999845 L10.7499839,11.4999845 Z M10.7499839,18.9999666 C11.164198,18.9999666 11.4999821,18.6641825 11.4999821,18.2499684 L11.4999821,13.2499803 C11.4999821,12.8357662 11.164198,12.4999821 10.7499839,12.4999821 L4.74999821,12.4999821 C4.33578411,12.4999821 4,12.8357662 4,13.2499803 L4,18.2499684 C4,18.6641825 4.33578411,18.9999666 4.74999821,18.9999666 L10.7499839,18.9999666 Z M19.2499636,18.9999666 C19.6641777,18.9999666 19.9999619,18.6641825 19.9999619,18.2499684 L19.9999619,13.2499803 C19.9999619,12.8357662 19.6641777,12.4999821 19.2499636,12.4999821 L13.2499779,12.4999821 C12.8357638,12.4999821 12.4999797,12.8357662 12.4999797,13.2499803 L12.4999797,18.2499684 C12.4999797,18.6641825 12.8357638,18.9999666 13.2499779,18.9999666 L19.2499636,18.9999666 Z" id="th-large"></path>
        </g>
    </g>
</svg>