<?xml version="1.0" encoding="UTF-8"?><svg version="1.1" width="24px" height="24px" viewBox="0 0 24.0 24.0" xmlns="http://www.w3.org/2000/svg" xmlns:xlink="http://www.w3.org/1999/xlink"><defs><clipPath id="i0"><path d="M3.91664716,9.99997616 C4.33086126,9.99997616 4.66664537,10.3357603 4.66664537,10.7499744 L4.66664537,13.2499684 C4.66664537,13.6641825 4.33086126,13.9999762 3.91664716,13.9999762 L0.749998212,13.9999762 C0.335784112,13.9999762 0,13.6641825 0,13.2499684 L0,10.7499744 C0,10.3357603 0.335784112,9.99997616 0.749998212,9.99997616 Z M15.2499636,9.99997616 C15.6641777,9.99997616 15.9999619,10.3357603 15.9999619,10.7499744 L15.9999619,13.2499684 C15.9999619,13.6641825 15.6641777,13.9999762 15.2499636,13.9999762 L12.0833147,13.9999762 C11.6691006,13.9999762 11.3333165,13.6641825 11.3333165,13.2499684 L11.3333165,10.7499744 C11.3333165,10.3357603 11.6691006,9.99997616 12.0833147,9.99997616 Z M9.58329014,9.99997616 C9.99750424,9.99997616 10.3332884,10.3357603 10.3332884,10.7499744 L10.3332884,13.2499684 C10.3332884,13.6641825 9.99750424,13.9999762 9.58329014,13.9999762 L6.4166412,13.9999762 C6.0024271,13.9999762 5.66664298,13.6641825 5.66664298,13.2499684 L5.66664298,10.7499744 C5.66664298,10.3357603 6.0024271,9.99997616 6.4166412,9.99997616 Z M9.58332066,4.99998808 C9.99753476,4.99998808 10.3333189,5.33577219 10.3333189,5.74998629 L10.3333189,8.24998033 C10.3333189,8.66419443 9.99753476,8.99998808 9.58329014,8.99998808 L6.4166412,8.99998808 C6.0024271,8.99998808 5.66664298,8.66419443 5.66664298,8.24998033 L5.66664298,5.74998629 C5.66664298,5.33577219 6.0024271,4.99998808 6.4166412,4.99998808 Z M3.91664716,4.99998808 C4.33086126,4.99998808 4.66664537,5.33577219 4.66664537,5.74998629 L4.66664537,8.24998033 C4.66664537,8.66419443 4.33086126,8.99998808 3.91664716,8.99998808 L0.749998212,8.99998808 C0.335784112,8.99998808 0,8.66419443 0,8.24998033 L0,5.74998629 C0,5.33577219 0.335784112,4.99998808 0.749998212,4.99998808 Z M15.2499636,4.99998808 C15.6641777,4.99998808 15.9999619,5.33577219 15.9999619,5.74998629 L15.9999619,8.24998033 C15.9999619,8.66419443 15.6641777,8.99998808 15.2499636,8.99998808 L12.0833147,8.99998808 C11.6691006,8.99998808 11.3333165,8.66419443 11.3333165,8.24998033 L11.3333165,5.74998629 C11.3333165,5.33577219 11.6691006,4.99998808 12.0833147,4.99998808 Z M3.91664716,0 C4.33086126,0 4.66664537,0.335784112 4.66664537,0.749998212 L4.66664537,3.24999225 C4.66664537,3.66420635 4.33086126,4 3.91664716,4 L0.749998212,4 C0.335784112,4 0,3.66420635 0,3.24999225 L0,0.749998212 C0,0.335784112 0.335784112,0 0.749998212,0 Z M15.2499636,0 C15.6641777,0 15.9999619,0.335784112 15.9999619,0.749998212 L15.9999619,3.24999225 C15.9999619,3.66420635 15.6641777,4 15.2499636,4 L12.0833147,4 C11.6691006,4 11.3333165,3.66420635 11.3333165,3.24999225 L11.3333165,0.749998212 C11.3333165,0.335784112 11.6691006,0 12.0833147,0 Z M9.58332066,0 C9.99753476,0 10.3333189,0.335784112 10.3333189,0.749998212 L10.3333189,3.24999225 C10.3333189,3.66420635 9.99753476,4 9.58329014,4 L6.4166412,4 C6.0024271,4 5.66664298,3.66420635 5.66664298,3.24999225 L5.66664298,0.749998212 C5.66664298,0.335784112 6.0024271,0 6.4166412,0 Z"></path></clipPath></defs><g transform="translate(4.0 5.0)"><g clip-path="url(#i0)"><polygon points="0,0 15.9999619,0 15.9999619,13.9999762 0,13.9999762 0,0" stroke="none" fill="#151515"></polygon></g></g></svg>