<?xml version="1.0" encoding="UTF-8"?>
<svg width="193px" height="93px" viewBox="0 0 193 93" version="1.1" xmlns="http://www.w3.org/2000/svg" xmlns:xlink="http://www.w3.org/1999/xlink">
    <title></title>
    <defs>
        <rect id="path-1" x="0" y="0" width="193" height="93"></rect>
        <filter x="-14.5%" y="-21.5%" width="129.0%" height="160.2%" filterUnits="objectBoundingBox" id="filter-2">
            <feOffset dx="0" dy="0" in="SourceAlpha" result="shadowOffsetOuter1"></feOffset>
            <feGaussianBlur stdDeviation="3" in="shadowOffsetOuter1" result="shadowBlurOuter1"></feGaussianBlur>
            <feColorMatrix values="0 0 0 0 0   0 0 0 0 0   0 0 0 0 0  0 0 0 0.08 0" type="matrix" in="shadowBlurOuter1" result="shadowMatrixOuter1"></feColorMatrix>
            <feOffset dx="0" dy="8" in="SourceAlpha" result="shadowOffsetOuter2"></feOffset>
            <feGaussianBlur stdDeviation="8" in="shadowOffsetOuter2" result="shadowBlurOuter2"></feGaussianBlur>
            <feColorMatrix values="0 0 0 0 0   0 0 0 0 0   0 0 0 0 0  0 0 0 0.16 0" type="matrix" in="shadowBlurOuter2" result="shadowMatrixOuter2"></feColorMatrix>
            <feMerge>
                <feMergeNode in="shadowMatrixOuter1"></feMergeNode>
                <feMergeNode in="shadowMatrixOuter2"></feMergeNode>
            </feMerge>
        </filter>
    </defs>
    <g id="Alerts" stroke="none" stroke-width="1" fill="none" fill-rule="evenodd">
        <g id="Alerts-/-Toast-/-2.-Success-/-5.-Expandable-/-1.-Closed">
            <g id="Background">
                <use fill="black" fill-opacity="1" filter="url(#filter-2)" xlink:href="#path-1"></use>
                <use fill="#FFFFFF" fill-rule="evenodd" xlink:href="#path-1"></use>
            </g>
            <rect id="Status-Color" fill="#3E8635" x="0" y="0" width="193" height="3"></rect>
            <g id="Close-button" transform="translate(160.000000, 23.000000)" fill="#6A6E73">
                <path d="M2.37280471,10.7121708 L5.5,7.584981 L8.62718433,10.7121708 C9.01091144,11.0959284 9.63340751,11.0959284 10.0171651,10.7121708 L10.7121708,10.0171651 C11.0959284,9.63340751 11.0959284,9.01124713 10.7121708,8.62718433 L7.584981,5.5 L10.7121708,2.37280471 C11.0959284,1.98907759 11.0959284,1.36688669 10.7121708,0.98282389 L10.0171651,0.287818222 C9.63340751,-0.0959394075 9.01124713,-0.0959394075 8.62718433,0.287818222 L5.5,3.41500803 L2.37280471,0.287818222 C1.98907759,-0.0959394075 1.36688669,-0.0959394075 0.98282389,0.287818222 L0.287818222,0.98282389 C-0.0959394075,1.36658152 -0.0959394075,1.9887419 0.287818222,2.37280471 L3.41500803,5.5 L0.287818222,8.62718433 C-0.0959394075,9.01091144 -0.0959394075,9.63310234 0.287818222,10.0171651 L0.98282389,10.7121708 C1.36658152,11.0959284 1.98907759,11.0959284 2.37280471,10.7121708 Z" id="times"></path>
            </g>
            <text id="Action-2" font-family="RedHatText-Regular, Red Hat Text" font-size="14" font-weight="normal" line-spacing="21" fill="#0066CC">
                <tspan x="131" y="70">Action</tspan>
            </text>
            <text id="Action" font-family="RedHatText-Regular, Red Hat Text" font-size="14" font-weight="normal" line-spacing="21" fill="#0066CC">
                <tspan x="66" y="70">Action</tspan>
            </text>
            <text id="Title" font-family="RedHatText-Medium, Red Hat Text" font-size="14" font-weight="400" line-spacing="21" fill="#1E4F18">
                <tspan x="66" y="32">Title</tspan>
            </text>
            <g id="Icons/1.-Size-md/Framework/angle-right" transform="translate(16.000000, 23.000000)" fill="#6A6E73">
                <path d="M1.98591903,9.78279833 L6.2359089,5.53280846 C6.52967041,5.23904696 6.52967041,4.7640725 6.23279611,4.470311 L1.98280625,0.22032113 C1.69218804,-0.0734403767 1.21718307,-0.0734403767 0.923421565,0.22032113 L0.220298242,0.932813328 C-0.0734327473,1.22343153 -0.0734327473,1.6984365 0.220298242,1.99219801 L3.23280327,5.00467252 L0.220298242,8.01717754 C-0.0734327473,8.30779574 -0.0734327473,8.78280072 0.220298242,9.07656222 L0.926564869,9.78279833 C1.21718307,10.0765598 1.69218804,10.0765598 1.98591903,9.78279833 Z" id="angle-right"></path>
            </g>
            <g id="ðŸ“-Padding" fill-opacity="0.9">
                <g id="Spacer-/-Horizontal-/-3.-pf-global--spacer--md-(16px)" transform="translate(8.000000, 46.500000) scale(-1, 1) translate(-8.000000, -46.500000) " fill="#3F9C35" stroke="#418A38">
                    <rect id="Rectangle-Copy-2" x="0.5" y="0.5" width="15" height="92"></rect>
                </g>
                <g id="Spacer-/-Horizontal-/-3.-pf-global--spacer--md-(16px)-Copy" transform="translate(30.500000, 46.500000) scale(-1, 1) translate(-30.500000, -46.500000) translate(22.500000, 0.000000)" fill="#3F9C35" stroke="#418A38">
                    <rect id="Rectangle-Copy-2" x="0.5" y="0.5" width="15" height="92"></rect>
                </g>
                <g id="Spacer-/-Horizontal-/-3.-pf-global--spacer--md-(16px)" transform="translate(185.000000, 46.500000) scale(-1, 1) translate(-185.000000, -46.500000) translate(177.000000, 0.000000)" fill="#3F9C35" stroke="#418A38">
                    <rect id="Rectangle-Copy-2" x="0.5" y="0.5" width="15" height="92"></rect>
                </g>
                <g id="Spacer-/-Horizontal-/-3.-pf-global--spacer--md-(16px)" transform="translate(64.000000, 46.500000) scale(-1, 1) translate(-64.000000, -46.500000) translate(62.000000, 16.000000)" fill="#EC7A08" stroke="#C77000">
                    <rect id="Rectangle" x="0.5" y="0.5" width="3" height="60"></rect>
                </g>
                <g id="Spacer-/-Horizontal-/-3.-pf-global--spacer--md-(16px)-Copy-2" transform="translate(119.000000, 66.500000) scale(-1, 1) translate(-119.000000, -66.500000) translate(107.000000, 56.000000)" fill="#007A87" stroke="#09707B">
                    <rect id="Rectangle-Copy-3" x="0.5" y="0.5" width="23" height="20"></rect>
                </g>
                <g id="Spacer-/-Vertical-/-3.-pf-global--spacer--md-(16px)" transform="translate(38.000000, 0.000000)" fill="#3F9C35" stroke="#418A38">
                    <rect id="Rectangle-Copy-2" x="0.5" y="0.5" width="138" height="15"></rect>
                </g>
                <g id="Spacer-/-Vertical-/-3.-pf-global--spacer--md-(16px)" transform="translate(38.000000, 40.000000)" fill="#3F9C35" stroke="#418A38">
                    <rect id="Rectangle-Copy-2" x="0.5" y="0.5" width="138" height="15"></rect>
                </g>
                <g id="Spacer-/-Vertical-/-3.-pf-global--spacer--md-(16px)" transform="translate(38.000000, 77.000000)" fill="#3F9C35" stroke="#418A38">
                    <rect id="Rectangle-Copy-2" x="0.5" y="0.5" width="138" height="15"></rect>
                </g>
            </g>
            <g id="Success-icon" transform="translate(45.000000, 20.000000)" fill="#3E8635">
                <path d="M7.74998152,15.499963 C12.0301837,15.499963 15.499963,12.0301837 15.499963,7.74998152 C15.499963,3.46977933 12.0301837,0 7.74998152,0 C3.46977933,0 0,3.46977933 0,7.74998152 C0,12.0301837 3.46977933,15.499963 7.74998152,15.499963 Z M6.14640869,11.8535179 L2.89641643,8.60352563 C2.70119595,8.40827463 2.70119595,8.09165551 2.89641643,7.89640451 L3.60353755,7.18931391 C3.79878855,6.99406291 4.11540767,6.99406291 4.31065867,7.18931391 L6.4999845,9.37867027 L11.1893044,4.68935039 C11.3845859,4.49406888 11.701205,4.49406888 11.8964255,4.68935039 L12.6035466,5.39644099 C12.7987671,5.59169199 12.7987671,5.90831111 12.6035466,6.10356211 L6.85356032,11.8535484 C6.6582788,12.0487689 6.3416902,12.0487689 6.14640869,11.8535179 Z" id="check-circle"></path>
            </g>
        </g>
    </g>
</svg>