<?xml version="1.0" encoding="UTF-8"?><svg version="1.1" width="39px" height="39px" viewBox="0 0 39.0 39.0" xmlns="http://www.w3.org/2000/svg" xmlns:xlink="http://www.w3.org/1999/xlink"><defs><clipPath id="i0"><path d="M20,0 L20,37 L0,37 L0,0 L20,0 Z"></path></clipPath><filter id="i1" x="-26.6666667%" y="-26.6666667%" filterUnits="userSpaceOnUse" width="135.555556%" height="135.555556%"><feGaussianBlur stdDeviation="2" in="SourceAlpha" result="i2"></feGaussianBlur><feOffset dx="0" dy="0" in="i2" result="i3"></feOffset><feColorMatrix values="0 0 0 0.0 0 0 0 0 0.2404963374137876 0 0 0 0 0.5409895777702332 0 0 0 0 1.0 0" type="matrix" in="i3"></feColorMatrix></filter><clipPath id="i4"><path d="M18.5,0 C28.7172679,0 37,8.28273213 37,18.5 C37,28.7172679 28.7172679,37 18.5,37 C8.28273213,37 0,28.7172679 0,18.5 C0,8.28273213 8.28273213,0 18.5,0 Z"></path></clipPath></defs><g transform="translate(19.0 1.0)"><g clip-path="url(#i0)"><polygon points="0,0 20,0 20,37 0,37 0,0" stroke="none" fill="#E7F1FA"></polygon></g></g><g transform="translate(1.0 1.0)"><path d="M18.5,37 C28.7172679,37 37,28.7172679 37,18.5 C37,8.28273213 28.7172679,0 18.5,0 C8.28273213,0 0,8.28273213 0,18.5 C0,28.7172679 8.28273213,37 18.5,37 Z" stroke="none" fill="#000000" filter="url(#i1)"></path><g clip-path="url(#i4)"><polygon points="0,0 37,0 37,37 0,37 0,0" stroke="none" fill="#003F80"></polygon></g></g><g transform="translate(15.0 9.0)"><text transform="translate(0.20199999999999996 14.0)" font-family="RedHatText-Regular, Red Hat Text" font-size="14.0" font-weight="normal" fill="#FFFFFF" text-anchor="center" line-spacing="21.0">11</text></g></svg>