<?xml version="1.0" encoding="UTF-8"?><svg version="1.1" width="32px" height="24px" viewBox="0 0 32.0 24.0" xmlns="http://www.w3.org/2000/svg" xmlns:xlink="http://www.w3.org/1999/xlink"><defs><clipPath id="i0"><path d="M16,0 L16,16 L0,16 L0,0 L16,0 Z"></path></clipPath><clipPath id="i1"><path d="M10.1271903,0.175729333 C10.3614961,-0.0585764442 10.7414161,-0.0585764442 10.9757219,0.175729333 L11.8242306,1.02426094 C12.0585364,1.25856672 12.0585364,1.63846388 11.8242306,1.87279255 L4.92423791,8.77280814 C4.68990924,9.00711392 4.31001208,9.00711392 4.07572919,8.77278525 L0.175729333,4.87278539 C-0.0585764442,4.63847962 -0.0585764442,4.25858245 0.175729333,4.02425379 L1.02423805,3.17572218 C1.25854383,2.94139352 1.63846388,2.94139352 1.87276966,3.17572218 L4.49998355,5.80293607 Z"></path></clipPath><clipPath id="i2"><path d="M24,0 L24,24 L0,24 L0,0 L24,0 Z"></path></clipPath></defs><g transform="translate(8.0 4.0)"><g clip-path="url(#i0)"><polygon points="0,0 16,0 16,16 0,16 0,0" stroke="none" fill="#D2D2D2"></polygon></g></g><g transform="translate(4.0 0.0)"><g transform="translate(5.999999999999998 8.000000000000014)"><g clip-path="url(#i1)"><polygon points="0,0 11.9999599,0 11.9999599,8.94853461 0,8.94853461 0,0" stroke="none" fill="#696E73"></polygon><g clip-path="url(#i2)"><polygon points="0,0 11.9999599,0 11.9999599,8.94853461 0,8.94853461 0,0" stroke="none" fill="#696E73"></polygon></g></g></g></g></svg>