<?xml version="1.0" encoding="UTF-8"?><svg version="1.1" width="32px" height="24px" viewBox="0 0 32.0 24.0" xmlns="http://www.w3.org/2000/svg" xmlns:xlink="http://www.w3.org/1999/xlink"><defs><clipPath id="i0"><path d="M16,0 L16,16 L0,16 L0,0 L16,0 Z"></path></clipPath><clipPath id="i1"><path d="M9.74997675,0 C10.1641146,0 10.499975,0.335860405 10.499975,0.749998212 L10.499975,1.5 C10.499975,1.91413423 10.1641146,2.24999464 9.74997675,2.24999464 L0.749998212,2.24999464 C0.335860405,2.24999464 0,1.91413423 0,1.5 L0,0.749998212 C0,0.335860405 0.335860405,0 0.749998212,0 Z"></path></clipPath><clipPath id="i2"><path d="M24,0 L24,24 L0,24 L0,0 L24,0 Z"></path></clipPath></defs><g transform="translate(8.0 4.0)"><g clip-path="url(#i0)"><polygon points="0,0 16,0 16,16 0,16 0,0" stroke="none" fill="#0066CC"></polygon></g></g><g transform="translate(4.0 0.0)"><g transform="translate(7.000000000000002 11.0)"><g clip-path="url(#i1)"><polygon points="0,0 10.499975,0 10.499975,2.24999464 0,2.24999464 0,0" stroke="none" fill="#696E73"></polygon><g clip-path="url(#i2)"><polygon points="0,0 10.499975,0 10.499975,2.24999464 0,2.24999464 0,0" stroke="none" fill="#FFFFFF"></polygon></g></g></g></g></svg>