<?xml version="1.0" encoding="UTF-8"?><svg version="1.1" width="32px" height="24px" viewBox="0 0 32.0 24.0" xmlns="http://www.w3.org/2000/svg" xmlns:xlink="http://www.w3.org/1999/xlink"><defs><clipPath id="i0"><path d="M29,0 C30.6568542,-3.04359188e-16 32,1.34314575 32,3 L32,29 C32,30.6568542 30.6568542,32 29,32 L3,32 C1.34314575,32 2.02906125e-16,30.6568542 0,29 L0,3 C-2.02906125e-16,1.34314575 1.34314575,3.04359188e-16 3,0 L29,0 Z"></path></clipPath><clipPath id="i1"><path d="M16,0 L16,16 L0,16 L0,0 L16,0 Z"></path></clipPath><clipPath id="i2"><path d="M9.74997675,0 C10.1641146,0 10.499975,0.335860405 10.499975,0.749998212 L10.499975,1.5 C10.499975,1.91413423 10.1641146,2.24999464 9.74997675,2.24999464 L0.749998212,2.24999464 C0.335860405,2.24999464 0,1.91413423 0,1.5 L0,0.749998212 C0,0.335860405 0.335860405,0 0.749998212,0 Z"></path></clipPath><clipPath id="i3"><path d="M24,0 L24,24 L0,24 L0,0 L24,0 Z"></path></clipPath></defs><g transform="translate(0.0 -4.0)"><g clip-path="url(#i0)"><polygon points="0,0 32,0 32,32 0,32 0,0" stroke="none" fill="rgba(0, 102, 204, 0.2)"></polygon></g><g clip-path="url(#i0)"><path d="M3,0 L29,0 C30.6568542,-3.04359188e-16 32,1.34314575 32,3 L32,29 C32,30.6568542 30.6568542,32 29,32 L3,32 C1.34314575,32 2.02906125e-16,30.6568542 0,29 L0,3 C-2.02906125e-16,1.34314575 1.34314575,3.04359188e-16 3,0 Z" stroke="#0066CC" stroke-width="2" fill="none" stroke-miterlimit="5"></path></g></g><g transform="translate(8.0 4.0)"><g clip-path="url(#i1)"><polygon points="0,0 16,0 16,16 0,16 0,0" stroke="none" fill="#0066CC"></polygon></g></g><g transform="translate(4.0 0.0)"><g transform="translate(7.000000000000002 11.0)"><g clip-path="url(#i2)"><polygon points="0,0 10.499975,0 10.499975,2.24999464 0,2.24999464 0,0" stroke="none" fill="#696E73"></polygon><g clip-path="url(#i3)"><polygon points="0,0 10.499975,0 10.499975,2.24999464 0,2.24999464 0,0" stroke="none" fill="#FFFFFF"></polygon></g></g></g></g></svg>