<?xml version="1.0" encoding="UTF-8"?><svg version="1.1" width="540px" height="121px" viewBox="0 0 540.0 121.0" xmlns="http://www.w3.org/2000/svg" xmlns:xlink="http://www.w3.org/1999/xlink"><defs><filter id="i0" x="-4.77941176%" y="-14.4%" filterUnits="userSpaceOnUse" width="108.823529%" height="138.4%"><feGaussianBlur stdDeviation="4" in="SourceAlpha" result="i1"></feGaussianBlur><feOffset dx="0" dy="8" in="i1" result="i2"></feOffset><feColorMatrix values="0 0 0 0.0 0 0 0 0 0.0 0 0 0 0 0.0 0 0 0 0 0.18 0" type="matrix" in="i2"></feColorMatrix></filter><clipPath id="i3"><path d="M540,0 L540,121 L0,121 L0,0 L540,0 Z"></path></clipPath><filter id="i4" x="-4.77941176%" y="-27.2%" filterUnits="userSpaceOnUse" width="108.823529%" height="138.4%"><feGaussianBlur stdDeviation="4" in="SourceAlpha" result="i5"></feGaussianBlur><feOffset dx="0" dy="-8" in="i5" result="i6"></feOffset><feColorMatrix values="0 0 0 0.0 0 0 0 0 0.0 0 0 0 0 0.0 0 0 0 0 0.18 0" type="matrix" in="i6"></feColorMatrix></filter><clipPath id="i7"><path d="M8.99905394,13.9999666 C8.99905394,15.1046393 8.10376188,15.9999666 7.00000475,15.9999666 C5.89624761,15.9999666 5.00095556,15.1046393 5.00095556,13.9999666 Z M7,0 C7.55188332,0 7.99939201,0.447813874 7.99939201,1 L7.99939201,1.65124118 C10.2950103,2.12810772 11.9974904,4.07185919 11.9974904,6.4999845 C11.9974904,9.69684578 13.1271874,10.6727956 13.7309152,11.3215367 C13.9184148,11.5227997 14.0015445,11.7640406 14,11.9999714 C13.9968753,12.5124824 13.5943494,12.999969 12.9968777,12.999969 L1.00313184,12.999969 C0.405660119,12.999969 0.00346991584,12.5124824 -2.66453526e-14,11.9999714 C-0.00153495504,11.7640406 0.0815947296,11.5231049 0.269094283,11.3215367 C0.872822091,10.6727956 2.0025191,9.69684578 2.0025191,6.4999845 C2.0025191,4.07185919 3.70499918,2.12810772 6.00061748,1.65124118 L6.00061748,1 C6.00061748,0.447813874 6.44812618,0 7,0 Z"></path></clipPath><clipPath id="i8"><path d="M2.24999464,10.9999738 C3.49373557,10.9999738 4.49998927,12.0062275 4.49998927,13.2499684 C4.49998927,14.4937093 3.49373557,15.499963 2.24999464,15.499963 C1.0062537,15.499963 0,14.4937093 0,13.2499684 C0,12.0062275 1.0062537,10.9999738 2.24999464,10.9999738 Z M2.24999464,5.49998689 C3.49373557,5.49998689 4.49998927,6.50624059 4.49998927,7.74998152 C4.49998927,8.99372245 3.49373557,9.99997616 2.24999464,9.99997616 C1.0062537,9.99997616 0,8.99372245 0,7.74998152 C0,6.50624059 1.0062537,5.49998689 2.24999464,5.49998689 Z M2.24999464,0 C3.49373557,0 4.49998927,1.0062537 4.49998927,2.24999464 C4.49998927,3.49373557 3.49373557,4.49998927 2.24999464,4.49998927 C1.0062537,4.49998927 0,3.49373557 0,2.24999464 C0,1.0062537 1.0062537,0 2.24999464,0 Z"></path></clipPath><clipPath id="i9"><path d="M24,0 L24,24 L0,24 L0,0 L24,0 Z"></path></clipPath><clipPath id="i10"><path d="M16,0 L16,121 L0,121 L0,0 L16,0 Z"></path></clipPath><clipPath id="i11"><path d="M540,0 L540,16 L0,16 L0,0 L540,0 Z"></path></clipPath><clipPath id="i12"><path d="M8,0 L8,35.3271028 L0,35.3271028 L0,0 L8,0 Z"></path></clipPath><clipPath id="i13"><path d="M508,0 L508,8 L0,8 L0,0 L508,0 Z"></path></clipPath><clipPath id="i14"><path d="M508,0 L508,4 L0,4 L0,0 L508,0 Z"></path></clipPath></defs><polygon points="6,6 534,6 534,115 6,115 6,6" stroke="none" fill="#000000" filter="url(#i0)"></polygon><g clip-path="url(#i3)"><polygon points="0,0 540,0 540,121 0,121 0,0" stroke="none" fill="#FFFFFF"></polygon></g><polygon points="6,6 534,6 534,115 6,115 6,6" stroke="none" fill="#000000" filter="url(#i4)"></polygon><g clip-path="url(#i3)"><polygon points="0,0 540,0 540,121 0,121 0,0" stroke="none" fill="#FFFFFF"></polygon></g><g transform="translate(16.0 16.0)"><g transform="translate(5.0 4.0)"><g clip-path="url(#i7)"><polygon points="-2.08566939e-05,0 14.0000211,0 14.0000211,15.9999666 -2.08566939e-05,15.9999666 -2.08566939e-05,0" stroke="none" fill="#73C5C5"></polygon></g></g></g><g transform="translate(484.0 16.0)"><g transform="translate(8.0 6.0)"><g transform="translate(10.0 3.999999999999999)"><g clip-path="url(#i8)"><polygon points="0,0 4.49998927,0 4.49998927,15.499963 0,15.499963 0,0" stroke="none" fill="#151515"></polygon><g clip-path="url(#i9)"><polygon points="0,0 4.49998927,0 4.49998927,15.499963 0,15.499963 0,0" stroke="none" fill="#696E73"></polygon></g></g></g></g></g><g transform="translate(16.0 84.0)"><text transform="translate(0.0 14.0)" font-family="RedHatText-Regular, Red Hat Text" font-size="14.0" font-weight="normal" fill="#696E73" text-anchor="left" line-spacing="21.0">A few minutes ago</text></g><g transform="translate(16.0 53.0)"><text transform="translate(0.0 16.0)" font-family="RedHatText-Regular, Red Hat Text" font-size="16.0" font-weight="normal" fill="#151515" text-anchor="left" line-spacing="24.0">Content</text></g><g transform="translate(48.0 16.0)"><text transform="translate(0.0 16.0)" font-family="RedHatText-Regular, Red Hat Text" font-size="16.0" font-weight="normal" fill="#151515" text-anchor="left" line-spacing="24.0">Title</text></g><g clip-path="url(#i10)"><polygon points="0,0 16,0 16,121 0,121 0,0" stroke="none" fill="rgba(62, 156, 52, 0.9)"></polygon></g><g clip-path="url(#i10)"><polygon points="0,0 16,0 16,121 0,121 0,0 0,0" stroke="#418A37" stroke-width="2" fill="none" stroke-miterlimit="5"></polygon></g><g transform="translate(524.0 0.0)"><g clip-path="url(#i10)"><polygon points="0,0 16,0 16,121 0,121 0,0" stroke="none" fill="rgba(62, 156, 52, 0.9)"></polygon></g><g clip-path="url(#i10)"><polygon points="0,0 16,0 16,121 0,121 0,0 0,0" stroke="#418A37" stroke-width="2" fill="none" stroke-miterlimit="5"></polygon></g></g><g clip-path="url(#i11)"><polygon points="0,0 540,0 540,16 0,16 0,0" stroke="none" fill="rgba(62, 156, 52, 0.9)"></polygon></g><g clip-path="url(#i11)"><polygon points="0,0 540,0 540,16 0,16 0,0 0,0" stroke="#418A37" stroke-width="2" fill="none" stroke-miterlimit="5"></polygon></g><g transform="translate(40.0 15.999999999999996)"><g clip-path="url(#i12)"><polygon points="0,0 8,0 8,35.3271028 0,35.3271028 0,0" stroke="none" fill="rgba(146, 211, 0, 0.9)"></polygon></g><g clip-path="url(#i12)"><polygon points="0,0 8,0 8,35.3271028 0,35.3271028 0,0 0,0" stroke="#7EB200" stroke-width="2" fill="none" stroke-miterlimit="5"></polygon></g></g><g transform="translate(0.0 105.0)"><g clip-path="url(#i11)"><polygon points="0,0 540,0 540,16 0,16 0,0" stroke="none" fill="rgba(62, 156, 52, 0.9)"></polygon></g><g clip-path="url(#i11)"><polygon points="0,0 540,0 540,16 0,16 0,0 0,0" stroke="#418A37" stroke-width="2" fill="none" stroke-miterlimit="5"></polygon></g></g><g transform="translate(16.0 76.0)"><g clip-path="url(#i13)"><polygon points="0,0 508,0 508,8 0,8 0,0" stroke="none" fill="rgba(146, 211, 0, 0.9)"></polygon></g><g clip-path="url(#i13)"><polygon points="0,0 508,0 508,8 0,8 0,0 0,0" stroke="#7EB200" stroke-width="2" fill="none" stroke-miterlimit="5"></polygon></g></g><g transform="translate(16.0 49.0)"><g clip-path="url(#i14)"><polygon points="0,0 508,0 508,4 0,4 0,0" stroke="none" fill="rgba(236, 121, 8, 0.9)"></polygon></g><g clip-path="url(#i14)"><polygon points="0,0 508,0 508,4 0,4 0,0 0,0" stroke="#C67000" stroke-width="2" fill="none" stroke-miterlimit="5"></polygon></g></g></svg>