<?xml version="1.0" encoding="UTF-8"?>
<svg width="712px" height="25px" viewBox="0 0 712 25" version="1.1" xmlns="http://www.w3.org/2000/svg" xmlns:xlink="http://www.w3.org/1999/xlink">
    <title></title>
    <defs>
        <rect id="path-1" x="0" y="0" width="712" height="25"></rect>
        <filter x="-2.0%" y="-40.0%" width="103.9%" height="212.0%" filterUnits="objectBoundingBox" id="filter-2">
            <feOffset dx="0" dy="0" in="SourceAlpha" result="shadowOffsetOuter1"></feOffset>
            <feGaussianBlur stdDeviation="2" in="shadowOffsetOuter1" result="shadowBlurOuter1"></feGaussianBlur>
            <feColorMatrix values="0 0 0 0 0   0 0 0 0 0   0 0 0 0 0  0 0 0 0.06 0" type="matrix" in="shadowBlurOuter1" result="shadowMatrixOuter1"></feColorMatrix>
            <feOffset dx="0" dy="4" in="SourceAlpha" result="shadowOffsetOuter2"></feOffset>
            <feGaussianBlur stdDeviation="4" in="shadowOffsetOuter2" result="shadowBlurOuter2"></feGaussianBlur>
            <feColorMatrix values="0 0 0 0 0   0 0 0 0 0   0 0 0 0 0  0 0 0 0.12 0" type="matrix" in="shadowBlurOuter2" result="shadowMatrixOuter2"></feColorMatrix>
            <feMerge>
                <feMergeNode in="shadowMatrixOuter1"></feMergeNode>
                <feMergeNode in="shadowMatrixOuter2"></feMergeNode>
            </feMerge>
        </filter>
    </defs>
    <g id="Banner" stroke="none" stroke-width="1" fill="none" fill-rule="evenodd">
        <g id="Banner-/-4.-Warning-/-2.-With-icon">
            <g id="ðŸ“-Padding" fill="#92D400" fill-opacity="0.9" stroke="#7FB300">
                <g id="Spacer-/-Horizontal-/-2.-pf-global--spacer--sm-(8px)">
                    <rect id="Rectangle-Copy" x="0.5" y="0.5" width="7" height="17"></rect>
                </g>
                <g id="Spacer-/-Horizontal-/-2.-pf-global--spacer--sm-(8px)" transform="translate(25.000000, 0.000000)">
                    <rect id="Rectangle-Copy" x="0.5" y="0.5" width="7" height="17"></rect>
                </g>
            </g>
            <g id="Shadow">
                <use fill="black" fill-opacity="1" filter="url(#filter-2)" xlink:href="#path-1"></use>
                <use fill="#FFFFFF" fill-rule="evenodd" xlink:href="#path-1"></use>
            </g>
            <rect id="Background" fill="#F0AB00" x="0" y="0" width="712" height="25"></rect>
            <g id="Group" transform="translate(332.000000, 1.000000)" fill="#151515">
                <text id="Text" font-family="RedHatText-Regular, Red Hat Text" font-size="12" font-weight="normal" line-spacing="18">
                    <tspan x="24.266" y="15">Text</tspan>
                </text>
                <g id="Icons/2.-Size-sm/Status/exclamation-circle" transform="translate(5.000000, 6.000000)">
                    <path d="M12.3735881,11.9999715 C13.237615,11.9999715 13.7806358,11.062634 13.3480273,10.3127731 L7.72445976,0.562155455 C7.29240055,-0.186698351 6.20835009,-0.188071638 5.77553557,0.562155455 L0.151807831,10.3127731 C-0.279953834,11.061192 0.260572221,11.9999715 1.12626992,11.9999715 L12.3735881,11.9999715 Z M7.318905,7.87498134 L6.18109033,7.87498134 C6.0317224,7.87498134 5.90840116,7.75820611 5.90027588,7.60906706 L5.72641765,4.42157466 C5.71762861,4.26046512 5.84587079,4.12499028 6.00720922,4.12499028 L7.49276323,4.12499028 C7.65410165,4.12499028 7.78236673,4.26046512 7.77357768,4.42157466 L7.59971946,7.60906706 C7.59159417,7.75820611 7.46827293,7.87498134 7.318905,7.87498134 Z M6.74999767,10.4531002 C6.15456299,10.4531002 5.67187524,9.97041244 5.67187524,9.37497777 C5.67187524,8.77954309 6.15456299,8.29685534 6.74999767,8.29685534 C7.34543234,8.29685534 7.8281201,8.77954309 7.8281201,9.37497777 C7.8281201,9.97041244 7.34543234,10.4531002 6.74999767,10.4531002 Z" id="exclamation-triangle"></path>
                </g>
            </g>
            <text id="Optional-text-right" font-family="RedHatText-Regular, Red Hat Text" font-size="12" font-weight="normal" line-spacing="18" fill="#151515">
                <tspan x="617.092" y="16">Optional text</tspan>
            </text>
            <text id="Optional-text-left" font-family="RedHatText-Regular, Red Hat Text" font-size="12" font-weight="normal" line-spacing="18" fill="#151515">
                <tspan x="24" y="16">Optional text</tspan>
            </text>
        </g>
    </g>
</svg>