<svg xmlns="http://www.w3.org/2000/svg" xmlns:xlink="http://www.w3.org/1999/xlink" width="171" height="81" viewBox="0 0 171 81">
  <defs>
    <rect id="no-actions-b" width="171" height="81" x="0" y="0"/>
    <filter id="no-actions-a" width="132.7%" height="169.1%" x="-16.4%" y="-24.7%" filterUnits="objectBoundingBox">
      <feOffset in="SourceAlpha" result="shadowOffsetOuter1"/>
      <feGaussianBlur in="shadowOffsetOuter1" result="shadowBlurOuter1" stdDeviation="3"/>
      <feColorMatrix in="shadowBlurOuter1" result="shadowMatrixOuter1" values="0 0 0 0 0   0 0 0 0 0   0 0 0 0 0  0 0 0 0.08 0"/>
      <feOffset dy="8" in="SourceAlpha" result="shadowOffsetOuter2"/>
      <feGaussianBlur in="shadowOffsetOuter2" result="shadowBlurOuter2" stdDeviation="8"/>
      <feColorMatrix in="shadowBlurOuter2" result="shadowMatrixOuter2" values="0 0 0 0 0   0 0 0 0 0   0 0 0 0 0  0 0 0 0.16 0"/>
      <feMerge>
        <feMergeNode in="shadowMatrixOuter1"/>
        <feMergeNode in="shadowMatrixOuter2"/>
      </feMerge>
    </filter>
  </defs>
  <g fill="none" fill-rule="evenodd">
    <use fill="#000" filter="url(#no-actions-a)" xlink:href="#no-actions-b"/>
    <use fill="#FFF" xlink:href="#no-actions-b"/>
    <rect width="171" height="3" fill="#73C5C5"/>
    <path fill="#73C5C5" d="M17.9968777,16.999969 C18.5943494,16.999969 18.9968753,16.5124824 19,15.9999714 C19.0015445,15.7640406 18.9184148,15.5227997 18.7309152,15.3215367 C18.1271874,14.6727956 16.9974904,13.6968458 16.9974904,10.4999845 C16.9974904,8.07185919 15.2950103,6.12810772 12.999392,5.65124118 L12.999392,5 C12.999392,4.44781387 12.5518833,4 12,4 C11.4481262,4 11.0006175,4.44781387 11.0006175,5 L11.0006175,5.65124118 C8.70499918,6.12810772 7.0025191,8.07185919 7.0025191,10.4999845 C7.0025191,13.6968458 5.87282209,14.6727956 5.26909428,15.3215367 C5.08159473,15.5231049 4.99846504,15.7640406 5,15.9999714 C5.00346992,16.5124824 5.40566012,16.999969 6.00313184,16.999969 L17.9968777,16.999969 Z M12.0000047,19.9999666 C13.1037619,19.9999666 13.9990539,19.1046393 13.9990539,17.9999666 L10.0009556,17.9999666 C10.0009556,19.1046393 10.8962476,19.9999666 12.0000047,19.9999666 Z" transform="translate(16 16)"/>
    <path fill="#6A6E73" d="M9.37280471,17.7121708 L12.5,14.584981 L15.6271843,17.7121708 C16.0109114,18.0959284 16.6334075,18.0959284 17.0171651,17.7121708 L17.7121708,17.0171651 C18.0959284,16.6334075 18.0959284,16.0112471 17.7121708,15.6271843 L14.584981,12.5 L17.7121708,9.37280471 C18.0959284,8.98907759 18.0959284,8.36688669 17.7121708,7.98282389 L17.0171651,7.28781822 C16.6334075,6.90406059 16.0112471,6.90406059 15.6271843,7.28781822 L12.5,10.415008 L9.37280471,7.28781822 C8.98907759,6.90406059 8.36688669,6.90406059 7.98282389,7.28781822 L7.28781822,7.98282389 C6.90406059,8.36658152 6.90406059,8.9887419 7.28781822,9.37280471 L10.415008,12.5 L7.28781822,15.6271843 C6.90406059,16.0109114 6.90406059,16.6331023 7.28781822,17.0171651 L7.98282389,17.7121708 C8.36658152,18.0959284 8.98907759,18.0959284 9.37280471,17.7121708 Z" transform="translate(131 16)"/>
    <text fill="#151515" font-family="RedHatText-Regular, Red Hat Text" font-size="14">
      <tspan x="44" y="58">Description</tspan>
    </text>
    <text fill="#003737" font-family="RedHatText-Medium, Red Hat Text" font-size="14" font-weight="400">
      <tspan x="44" y="32">Title</tspan>
    </text>
    <g fill-opacity=".9">
      <rect width="15" height="80" x=".5" y=".5" fill="#3F9C35" stroke="#418A38" transform="matrix(-1 0 0 1 16 0)"/>
      <rect width="15" height="80" x=".5" y=".5" fill="#3F9C35" stroke="#418A38" transform="matrix(-1 0 0 1 171 0)"/>
      <rect width="3" height="48" x=".5" y=".5" fill="#EC7A08" stroke="#C77000" transform="matrix(-1 0 0 1 44 16)"/>
      <rect width="110" height="3" x=".5" y=".5" fill="#EC7A08" stroke="#C77000" transform="translate(44 40)"/>
      <rect width="138" height="15" x=".5" y=".5" fill="#3F9C35" stroke="#418A38" transform="translate(16)"/>
      <rect width="138" height="15" x=".5" y=".5" fill="#3F9C35" stroke="#418A38" transform="translate(16 65)"/>
    </g>
  </g>
</svg>
