<?xml version="1.0" encoding="UTF-8"?><svg version="1.1" width="123px" height="76px" viewBox="0 0 123.0 76.0" xmlns="http://www.w3.org/2000/svg" xmlns:xlink="http://www.w3.org/1999/xlink"><defs><clipPath id="i0"><path d="M123,0 L123,76 L0,76 L0,0 L123,0 Z"></path></clipPath><clipPath id="i1"><path d="M136,0 C137.656854,-3.04359188e-16 139,1.34314575 139,3 L139,89 C139,90.6568542 137.656854,92 136,92 L3,92 C1.34314575,92 -3.34980755e-15,90.6568542 0,89 L0,3 C-2.02906125e-16,1.34314575 1.34314575,-1.47199765e-15 3,0 L136,0 Z"></path></clipPath><clipPath id="i2"><path d="M123,0 L123,2 L0,2 L0,0 L123,0 Z"></path></clipPath><clipPath id="i3"><path d="M8.66574605,0 C9.22201914,0 9.50012517,0.671873398 9.10638831,1.06561025 L5.08762958,5.08748177 C4.84388627,5.33122508 4.44700611,5.33122508 4.2032628,5.08748177 L0.184534585,1.06561025 C-0.209232787,0.671873398 0.0689037567,0 0.625146327,0 Z"></path></clipPath><clipPath id="i4"><path d="M8,0 L8,24 L0,24 L0,0 L8,0 Z"></path></clipPath><clipPath id="i5"><path d="M16,0 L16,76 L0,76 L0,0 L16,0 Z"></path></clipPath></defs><g clip-path="url(#i0)"><polygon points="0,0 123,0 123,76 0,76 0,0" stroke="none" fill="#151515"></polygon></g><g transform="translate(-8.0 -8.0)"><g clip-path="url(#i1)"><polygon points="0,0 139,0 139,92 0,92 0,0" stroke="none" fill="rgba(0, 102, 204, 0.2)"></polygon></g><g clip-path="url(#i1)"><path d="M3,0 L136,0 C137.656854,-3.04359188e-16 139,1.34314575 139,3 L139,89 C139,90.6568542 137.656854,92 136,92 L3,92 C1.34314575,92 -3.34980755e-15,90.6568542 0,89 L0,3 C-2.02906125e-16,1.34314575 1.34314575,-1.47199765e-15 3,0 Z" stroke="#0066CC" stroke-width="2" fill="none" stroke-miterlimit="5"></path></g></g><g transform="translate(0.0 74.0)"><g clip-path="url(#i2)"><polygon points="0,0 123,0 123,2 0,2 0,0" stroke="none" fill="#2B9AF3"></polygon></g></g><g transform="translate(83.0 26.0)"><g transform="translate(7.0 9.0)"><g clip-path="url(#i3)"><polygon points="5.04041253e-14,0 9.29090831,0 9.29090831,5.27028925 5.04041253e-14,5.27028925 5.04041253e-14,0" stroke="none" fill="#FFFFFF"></polygon></g></g></g><g transform="translate(16.0 26.0)"><text transform="translate(0.0 16.0)" font-family="RedHatText-Regular, Red Hat Text" font-size="16.0" font-weight="normal" fill="#FFFFFF" text-anchor="left" line-spacing="24.0">Context</text></g><g transform="translate(75.0 26.0)"><g clip-path="url(#i4)"><polygon points="0,0 8,0 8,24 0,24 0,0" stroke="none" fill="rgba(146, 211, 0, 0.9)"></polygon></g><g clip-path="url(#i4)"><polygon points="0,0 8,0 8,24 0,24 0,0 0,0" stroke="#7EB200" stroke-width="2" fill="none" stroke-miterlimit="5"></polygon></g></g><g clip-path="url(#i5)"><polygon points="0,0 16,0 16,76 0,76 0,0" stroke="none" fill="rgba(62, 156, 52, 0.9)"></polygon></g><g clip-path="url(#i5)"><polygon points="0,0 16,0 16,76 0,76 0,0 0,0" stroke="#418A37" stroke-width="2" fill="none" stroke-miterlimit="5"></polygon></g><g transform="translate(107.0 0.0)"><g clip-path="url(#i5)"><polygon points="0,0 16,0 16,76 0,76 0,0" stroke="none" fill="rgba(62, 156, 52, 0.9)"></polygon></g><g clip-path="url(#i5)"><polygon points="0,0 16,0 16,76 0,76 0,0 0,0" stroke="#418A37" stroke-width="2" fill="none" stroke-miterlimit="5"></polygon></g></g></svg>