<svg xmlns="http://www.w3.org/2000/svg" width="24" height="24" viewBox="0 0 24 24">
  <path fill="#151515" fill-rule="evenodd" d="M19.246818,10.6390327 L20.7468144,9.51403543 L15.1546529,2 L13.6546529,3.12499732 L19.246818,10.6390327 Z M17.6952775,12.4437159 L18.8905871,10.9999785 L11.6952918,4.98593954 L10.4999821,6.42967694 L17.6952775,12.4437159 Z M16.6405925,14.56247 L17.4280814,12.8609208 L8.92967336,8.89060857 L8.14685357,10.601542 L16.6405925,14.56247 Z M16.1155846,16.9062145 L16.4999678,15.0780938 L7.32654303,13.1421701 L6.94215979,14.984344 L16.1155846,16.9062145 Z M19.8515223,22.9999499 L19.8515223,15.4999678 L17.9765268,15.4999678 L17.9765268,21.1249544 L4.87499553,21.1249544 L4.87499553,15.4999678 L3,15.4999678 L3,22.9999499 L19.8515223,22.9999499 Z M16.1155846,19.2359056 L16.1155846,17.3749633 L6.74060693,17.3749633 L6.74060693,19.2359056 L16.1155846,19.2359056 Z"/>
</svg>
