<svg xmlns="http://www.w3.org/2000/svg" xmlns:xlink="http://www.w3.org/1999/xlink" width="310" height="59" viewBox="0 0 310 59">
  <defs>
    <rect id="2.-expandable-a" width="310" height="59" x="0" y="0"/>
    <filter id="2.-expandable-b" width="102.3%" height="111.9%" x="-1.1%" y="-5.9%" filterUnits="objectBoundingBox">
      <feOffset dy="7" in="SourceAlpha" result="shadowOffsetInner1"/>
      <feComposite in="shadowOffsetInner1" in2="SourceAlpha" k2="-1" k3="1" operator="arithmetic" result="shadowInnerInner1"/>
      <feColorMatrix in="shadowInnerInner1" result="shadowMatrixInner1" values="0 0 0 0 0.941176471   0 0 0 0 0.941176471   0 0 0 0 0.941176471  0 0 0 1 0"/>
      <feOffset dy="-1" in="SourceAlpha" result="shadowOffsetInner2"/>
      <feComposite in="shadowOffsetInner2" in2="SourceAlpha" k2="-1" k3="1" operator="arithmetic" result="shadowInnerInner2"/>
      <feColorMatrix in="shadowInnerInner2" result="shadowMatrixInner2" values="0 0 0 0 0.823529412   0 0 0 0 0.823529412   0 0 0 0 0.823529412  0 0 0 1 0"/>
      <feMerge>
        <feMergeNode in="shadowMatrixInner1"/>
        <feMergeNode in="shadowMatrixInner2"/>
      </feMerge>
    </filter>
  </defs>
  <g fill="none" fill-rule="evenodd">
    <use fill="#FFF" xlink:href="#2.-expandable-a"/>
    <use fill="#000" filter="url(#2.-expandable-b)" xlink:href="#2.-expandable-a"/>
    <g transform="translate(254 15)">
      <rect width="40" height="36" rx="3"/>
      <g transform="translate(8 6)">
        <path fill="#151515" d="M12.2499946,8.49998927 C13.4937356,8.49998927 14.4999893,7.49373557 14.4999893,6.24999464 C14.4999893,5.0062537 13.4937356,4 12.2499946,4 C11.0062537,4 10,5.0062537 10,6.24999464 C10,7.49373557 11.0062537,8.49998927 12.2499946,8.49998927 Z M12.2499946,13.9999762 C13.4937356,13.9999762 14.4999893,12.9937225 14.4999893,11.7499815 C14.4999893,10.5062406 13.4937356,9.49998689 12.2499946,9.49998689 C11.0062537,9.49998689 10,10.5062406 10,11.7499815 C10,12.9937225 11.0062537,13.9999762 12.2499946,13.9999762 Z M12.2499946,19.499963 C13.4937356,19.499963 14.4999893,18.4937093 14.4999893,17.2499684 C14.4999893,16.0062275 13.4937356,14.9999738 12.2499946,14.9999738 C11.0062537,14.9999738 10,16.0062275 10,17.2499684 C10,18.4937093 11.0062537,19.499963 12.2499946,19.499963 Z"/>
        <rect width="24" height="24" fill="#6A6E73"/>
      </g>
      <g fill-opacity=".9">
        <rect width="7" height="35" x=".5" y=".5" fill="#92D400" stroke="#7FB300"/>
        <rect width="7" height="35" x=".5" y=".5" fill="#92D400" stroke="#7FB300" transform="translate(32)"/>
        <rect width="23" height="5" x=".5" y=".5" fill="#F3D53C" stroke="#CBB534" transform="translate(8)"/>
        <rect width="23" height="5" x=".5" y=".5" fill="#F3D53C" stroke="#CBB534" transform="translate(8 30)"/>
      </g>
    </g>
    <rect width="15" height="15" x="8.5" y="4.5" fill="#FFF" stroke="#6A6E73" transform="translate(40 21)"/>
    <path fill="#6A6E73" d="M10.985919,16.7827983 L15.2359089,12.5328085 C15.5296704,12.239047 15.5296704,11.7640725 15.2327961,11.470311 L10.9828062,7.22032113 C10.692188,6.92655962 10.2171831,6.92655962 9.92342157,7.22032113 L9.22029824,7.93281333 C8.92656725,8.22343153 8.92656725,8.6984365 9.22029824,8.99219801 L12.2328033,12.0046725 L9.22029824,15.0171775 C8.92656725,15.3077957 8.92656725,15.7828007 9.22029824,16.0765622 L9.92656487,16.7827983 C10.2171831,17.0765598 10.692188,17.0765598 10.985919,16.7827983 Z" transform="translate(12 21)"/>
    <g fill-opacity=".9" transform="translate(0 7)">
      <rect width="15" height="51" x=".5" y=".5" fill="#3F9C35" stroke="#418A38" transform="translate(294)"/>
      <rect width="15" height="51" x=".5" y=".5" fill="#3F9C35" stroke="#418A38"/>
      <rect width="15" height="51" x=".5" y=".5" fill="#3F9C35" stroke="#418A38" transform="translate(32)"/>
      <rect width="15" height="51" x=".5" y=".5" fill="#3F9C35" stroke="#418A38" transform="translate(64)"/>
      <rect width="15" height="51" x=".5" y=".5" fill="#3F9C35" stroke="#418A38" transform="translate(238)"/>
      <rect width="277" height="7" x=".5" y=".5" fill="#92D400" stroke="#7FB300" transform="translate(16)"/>
      <rect width="277" height="7" x=".5" y=".5" fill="#92D400" stroke="#7FB300" transform="translate(16 44)"/>
    </g>
  </g>
</svg>
