<?xml version="1.0" encoding="UTF-8"?><svg version="1.1" width="60px" height="80px" viewBox="0 0 60.0 80.0" xmlns="http://www.w3.org/2000/svg" xmlns:xlink="http://www.w3.org/1999/xlink"><defs><clipPath id="i0"><path d="M60,0 L60,80 L0,80 L0,0 L60,0 Z"></path></clipPath><clipPath id="i1"><path d="M3,0 L3,56 L0,56 L0,0 L3,0 Z"></path></clipPath><clipPath id="i2"><path d="M60,0 L60,24 L0,24 L0,0 L60,0 Z"></path></clipPath><clipPath id="i3"><path d="M16,0 L16,24 L0,24 L0,0 L16,0 Z"></path></clipPath><clipPath id="i4"><path d="M60,0 L60,16 L0,16 L0,0 L60,0 Z"></path></clipPath></defs><g clip-path="url(#i0)"><polygon points="0,0 60,0 60,80 0,80 0,0" stroke="none" fill="#FFFFFF"></polygon><g transform="translate(1.0 0.0)"><polygon points="0,0 0,80 -1,80 -1,0 0,0 0,0" stroke="none" fill="#D2D2D2"></polygon></g></g><g transform="translate(16.0 16.0)"><text transform="translate(0.0 16.0)" font-family="RedHatText-Regular, Red Hat Text" font-size="16.0" font-weight="normal" fill="#696E73" text-anchor="left" line-spacing="24.0">Tab</text></g><g clip-path="url(#i1)"><polygon points="0,0 3,0 3,56 0,56 0,0" stroke="none" fill="#B8BBBE"></polygon></g><g transform="translate(0.0 56.0)"><g clip-path="url(#i2)"><polygon points="0,0 60,0 60,24 0,24 0,0" stroke="none" fill="rgba(0, 121, 135, 0.9)"></polygon></g><g clip-path="url(#i2)"><polygon points="0,0 60,0 60,24 0,24 0,0 0,0" stroke="#09707A" stroke-width="2" fill="none" stroke-miterlimit="5"></polygon></g></g><g transform="translate(0.0 16.0)"><g clip-path="url(#i3)"><polygon points="0,0 16,0 16,24 0,24 0,0" stroke="none" fill="rgba(62, 156, 52, 0.9)"></polygon></g><g clip-path="url(#i3)"><polygon points="0,0 16,0 16,24 0,24 0,0 0,0" stroke="#418A37" stroke-width="2" fill="none" stroke-miterlimit="5"></polygon></g></g><g transform="translate(0.0 40.00000000000005)"><g transform=""><g clip-path="url(#i4)"><polygon points="0,0 60,0 60,16 0,16 0,0" stroke="none" fill="rgba(62, 156, 52, 0.9)"></polygon></g><g clip-path="url(#i4)"><polygon points="0,0 60,0 60,16 0,16 0,0 0,0" stroke="#418A37" stroke-width="2" fill="none" stroke-miterlimit="5"></polygon></g></g></g><g transform="translate(44.0 16.0)"><g clip-path="url(#i3)"><polygon points="0,0 16,0 16,24 0,24 0,0" stroke="none" fill="rgba(62, 156, 52, 0.9)"></polygon></g><g clip-path="url(#i3)"><polygon points="0,0 16,0 16,24 0,24 0,0 0,0" stroke="#418A37" stroke-width="2" fill="none" stroke-miterlimit="5"></polygon></g></g><g transform=""><g clip-path="url(#i4)"><polygon points="0,0 60,0 60,16 0,16 0,0" stroke="none" fill="rgba(62, 156, 52, 0.9)"></polygon></g><g clip-path="url(#i4)"><polygon points="0,0 60,0 60,16 0,16 0,0 0,0" stroke="#418A37" stroke-width="2" fill="none" stroke-miterlimit="5"></polygon></g></g></svg>