<?xml version="1.0" encoding="UTF-8"?><svg version="1.1" width="310px" height="91px" viewBox="0 0 310.0 91.0" xmlns="http://www.w3.org/2000/svg" xmlns:xlink="http://www.w3.org/1999/xlink"><defs><clipPath id="i0"><path d="M310,0 L310,91 L0,91 L0,0 L310,0 Z"></path></clipPath><clipPath id="i1"><path d="M2.24999464,10.9999738 C3.49373557,10.9999738 4.49998927,12.0062275 4.49998927,13.2499684 C4.49998927,14.4937093 3.49373557,15.499963 2.24999464,15.499963 C1.0062537,15.499963 0,14.4937093 0,13.2499684 C0,12.0062275 1.0062537,10.9999738 2.24999464,10.9999738 Z M2.24999464,5.49998689 C3.49373557,5.49998689 4.49998927,6.50624059 4.49998927,7.74998152 C4.49998927,8.99372245 3.49373557,9.99997616 2.24999464,9.99997616 C1.0062537,9.99997616 0,8.99372245 0,7.74998152 C0,6.50624059 1.0062537,5.49998689 2.24999464,5.49998689 Z M2.24999464,0 C3.49373557,0 4.49998927,1.0062537 4.49998927,2.24999464 C4.49998927,3.49373557 3.49373557,4.49998927 2.24999464,4.49998927 C1.0062537,4.49998927 0,3.49373557 0,2.24999464 C0,1.0062537 1.0062537,0 2.24999464,0 Z"></path></clipPath><clipPath id="i2"><path d="M24,0 L24,24 L0,24 L0,0 L24,0 Z"></path></clipPath><clipPath id="i3"><path d="M16,0 L16,16 L0,16 L0,0 L16,0 Z"></path></clipPath><clipPath id="i4"><path d="M16,0 L16,84 L0,84 L0,0 L16,0 Z"></path></clipPath><clipPath id="i5"><path d="M278,0 L278,24 L0,24 L0,0 L278,0 Z"></path></clipPath></defs><g transform=""><g clip-path="url(#i0)"><polygon points="0,0 310,0 310,91 0,91 0,0" stroke="none" fill="#FFFFFF"></polygon><g transform="translate(0.0 7.0)"><polygon points="310,0 0,0 0,-7 310,-7 310,0 310,0" stroke="none" fill="#F0F0F0"></polygon></g><g transform="translate(0.0 -1.0)"><polygon points="310,91 310,92 0,92 0,91 310,91 310,91" stroke="none" fill="#D2D2D2"></polygon></g></g></g><g transform="translate(254.0 31.0)"><g transform="translate(8.0 6.0)"><g transform="translate(10.0 3.999999999999999)"><g clip-path="url(#i1)"><polygon points="0,0 4.49998927,0 4.49998927,15.499963 0,15.499963 0,0" stroke="none" fill="#151515"></polygon><g clip-path="url(#i2)"><polygon points="0,0 4.49998927,0 4.49998927,15.499963 0,15.499963 0,0" stroke="none" fill="#696E73"></polygon></g></g></g></g></g><g transform="translate(8.0 37.0)"><g transform="translate(8.0 4.0)"><g clip-path="url(#i3)"><polygon points="0,0 16,0 16,16 0,16 0,0" stroke="none" fill="#FFFFFF"></polygon><polygon points="0,0 16,0 16,16 0,16 0,0 0,0" stroke="#696E73" stroke-width="2" fill="none" stroke-miterlimit="5"></polygon></g></g></g><g transform="translate(1.1368683772161603e-13 7.0)"><g transform="translate(293.9999999999999 0.0)"><g clip-path="url(#i4)"><polygon points="0,0 16,0 16,84 0,84 0,0" stroke="none" fill="rgba(62, 156, 52, 0.9)"></polygon></g><g clip-path="url(#i4)"><polygon points="0,0 16,0 16,84 0,84 0,0 0,0" stroke="#418A37" stroke-width="2" fill="none" stroke-miterlimit="5"></polygon></g></g><g clip-path="url(#i4)"><polygon points="0,0 16,0 16,84 0,84 0,0" stroke="none" fill="rgba(62, 156, 52, 0.9)"></polygon></g><g clip-path="url(#i4)"><polygon points="0,0 16,0 16,84 0,84 0,0 0,0" stroke="#418A37" stroke-width="2" fill="none" stroke-miterlimit="5"></polygon></g><g transform="translate(31.999999999999943 0.0)"><g clip-path="url(#i4)"><polygon points="0,0 16,0 16,84 0,84 0,0" stroke="none" fill="rgba(62, 156, 52, 0.9)"></polygon></g><g clip-path="url(#i4)"><polygon points="0,0 16,0 16,84 0,84 0,0 0,0" stroke="#418A37" stroke-width="2" fill="none" stroke-miterlimit="5"></polygon></g></g><g transform="translate(237.9999999999999 0.0)"><g clip-path="url(#i4)"><polygon points="0,0 16,0 16,84 0,84 0,0" stroke="none" fill="rgba(62, 156, 52, 0.9)"></polygon></g><g clip-path="url(#i4)"><polygon points="0,0 16,0 16,84 0,84 0,0 0,0" stroke="#418A37" stroke-width="2" fill="none" stroke-miterlimit="5"></polygon></g></g><g transform="translate(16.0 0.0)"><g clip-path="url(#i5)"><polygon points="0,0 278,0 278,24 0,24 0,0" stroke="none" fill="rgba(0, 121, 135, 0.9)"></polygon></g><g clip-path="url(#i5)"><polygon points="0,0 278,0 278,24 0,24 0,0 0,0" stroke="#09707A" stroke-width="2" fill="none" stroke-miterlimit="5"></polygon></g></g><g transform="translate(16.0 60.0)"><g clip-path="url(#i5)"><polygon points="0,0 278,0 278,24 0,24 0,0" stroke="none" fill="rgba(0, 121, 135, 0.9)"></polygon></g><g clip-path="url(#i5)"><polygon points="0,0 278,0 278,24 0,24 0,0 0,0" stroke="#09707A" stroke-width="2" fill="none" stroke-miterlimit="5"></polygon></g></g></g></svg>