<?xml version="1.0" encoding="UTF-8"?><svg version="1.1" width="74px" height="54px" viewBox="0 0 74.0 54.0" xmlns="http://www.w3.org/2000/svg" xmlns:xlink="http://www.w3.org/1999/xlink"><defs><clipPath id="i0"><path d="M73,0 L73,17 L0,17 L0,0 L73,0 Z"></path></clipPath><clipPath id="i1"><path d="M74,0 L74,1 L0,1 L0,0 L74,0 Z"></path></clipPath><clipPath id="i2"><path d="M73,0 L73,45 L0,45 L0,0 L73,0 Z"></path></clipPath><clipPath id="i3"><path d="M42,0 L42,21 L0,21 L0,0 L42,0 Z"></path></clipPath></defs><g clip-path="url(#i0)"><polygon points="0,0 73,0 73,17 0,17 0,0" stroke="none" fill="#FFFFFF"></polygon></g><g transform="translate(0.0 8.0)"><g clip-path="url(#i1)"><polygon points="0,0 74,0 74,1 0,1 0,0" stroke="none" fill="#D2D2D2"></polygon></g></g><g transform="translate(0.0 9.0)"><g clip-path="url(#i2)"><polygon points="0,0 73,0 73,45 0,45 0,0" stroke="none" fill="#FFFFFF"></polygon></g></g><g transform="translate(16.0 25.0)"><g clip-path="url(#i3)"><text transform="translate(0.0 12.0)" font-family="RedHatText-Medium, Red Hat Text" font-size="12.0" font-weight="400" fill="#696E73" text-anchor="left" line-spacing="21.0">Group</text></g></g></svg>