<?xml version="1.0" encoding="UTF-8"?>
<svg width="171px" height="118px" viewBox="0 0 171 118" version="1.1" xmlns="http://www.w3.org/2000/svg" xmlns:xlink="http://www.w3.org/1999/xlink">
    <title></title>
    <g id="Alerts" stroke="none" stroke-width="1" fill="none" fill-rule="evenodd">
        <g id="Alerts-/-Inline-/-5.-Info-/-3.-Description---Actions">
            <rect id="Background" fill="#E7F1FA" x="0" y="0" width="171" height="118"></rect>
            <rect id="Status-Color" fill="#2B9AF3" x="0" y="0" width="171" height="3"></rect>
            <g id="Info-icon" transform="translate(20.000000, 20.000000)" fill="#2B9AF3">
                <path d="M7.74998152,15.499963 C12.0298785,15.499963 15.499963,12.0311298 15.499963,7.74998152 C15.499963,3.47133572 12.0298785,0 7.74998152,0 C3.4700845,0 0,3.47133572 0,7.74998152 C0,12.0311298 3.4700845,15.499963 7.74998152,15.499963 Z M7.74998152,6.06248555 C7.02509922,6.06248555 6.43748465,5.47487098 6.43748465,4.74998868 C6.43748465,4.02510637 7.02509922,3.4374918 7.74998152,3.4374918 C8.47486383,3.4374918 9.06247839,4.02510637 9.06247839,4.74998868 C9.06247839,5.47487098 8.47486383,6.06248555 7.74998152,6.06248555 Z M9.12497824,11.749972 L6.3749848,11.749972 C6.16789301,11.749972 5.99998569,11.5820647 5.99998569,11.3749729 L5.99998569,10.6249747 C5.99998569,10.4178829 6.16789301,10.2499839 6.3749848,10.2499839 L6.74998391,10.2499839 L6.74998391,8.24998391 L6.3749848,8.24998391 C6.16789301,8.24998391 5.99998569,8.08207302 5.99998569,7.87498122 L5.99998569,7.12498301 C5.99998569,6.91789122 6.16789301,6.74998391 6.3749848,6.74998391 L8.37498003,6.74998391 C8.58207182,6.74998391 8.74997914,6.91789122 8.74997914,7.12498301 L8.74997914,10.2499839 L9.12497824,10.2499839 C9.33207004,10.2499839 9.49998569,10.4178829 9.49998569,10.6249747 L9.49998569,11.3749729 C9.49998569,11.5820647 9.33207004,11.749972 9.12497824,11.749972 Z" id="info-circle"></path>
            </g>
            <text id="Action" font-family="RedHatText-Regular, Red Hat Text" font-size="14" font-weight="normal" line-spacing="21" fill="#0066CC">
                <tspan x="44" y="95">Action</tspan>
            </text>
            <text id="Description" font-family="RedHatText-Regular, Red Hat Text" font-size="14" font-weight="normal" line-spacing="21" fill="#151515">
                <tspan x="44" y="58">Description</tspan>
            </text>
            <text id="Title" font-family="RedHatText-Medium, Red Hat Text" font-size="14" font-weight="400" line-spacing="21" fill="#004368">
                <tspan x="44" y="32">Title</tspan>
            </text>
            <g id="ðŸ“-Padding" fill-opacity="0.9">
                <g id="Spacer-/-Horizontal-/-3.-pf-global--spacer--md-(16px)" transform="translate(8.000000, 59.000000) scale(-1, 1) translate(-8.000000, -59.000000) translate(0.000000, 0.000000)" fill="#3F9C35" stroke="#418A38">
                    <rect id="Rectangle-Copy-2" x="0.5" y="0.5" width="15" height="117"></rect>
                </g>
                <g id="Spacer-/-Horizontal-/-3.-pf-global--spacer--md-(16px)" transform="translate(163.000000, 59.000000) scale(-1, 1) translate(-163.000000, -59.000000) translate(155.000000, 0.000000)" fill="#3F9C35" stroke="#418A38">
                    <rect id="Rectangle-Copy-2" x="0.5" y="0.5" width="15" height="117"></rect>
                </g>
                <g id="Spacer-/-Horizontal-/-3.-pf-global--spacer--md-(16px)" transform="translate(42.000000, 40.500000) scale(-1, 1) translate(-42.000000, -40.500000) translate(40.000000, 16.000000)" fill="#EC7A08" stroke="#C77000">
                    <rect id="Rectangle" x="0.5" y="0.5" width="3" height="48"></rect>
                </g>
                <g id="Spacer-/-Vertical-/-1.-pf-global--spacer--xs-(4px)" transform="translate(44.000000, 40.000000)" fill="#EC7A08" stroke="#C77000">
                    <rect id="Rectangle" x="0.5" y="0.5" width="110" height="3"></rect>
                </g>
                <g id="Spacer-/-Vertical-/-3.-pf-global--spacer--md-(16px)" transform="translate(16.000000, 0.000000)" fill="#3F9C35" stroke="#418A38">
                    <rect id="Rectangle-Copy-2" x="0.5" y="0.5" width="138" height="15"></rect>
                </g>
                <g id="Spacer-/-Vertical-/-3.-pf-global--spacer--md-(16px)" transform="translate(16.000000, 102.000000)" fill="#3F9C35" stroke="#418A38">
                    <rect id="Rectangle-Copy-2" x="0.5" y="0.5" width="138" height="15"></rect>
                </g>
                <g id="Spacer-/-Vertical-/-3.-pf-global--spacer--md-(16px)" transform="translate(16.000000, 65.000000)" fill="#3F9C35" stroke="#418A38">
                    <rect id="Rectangle-Copy-2" x="0.5" y="0.5" width="138" height="15"></rect>
                </g>
            </g>
        </g>
    </g>
</svg>