<?xml version="1.0" encoding="UTF-8"?><svg version="1.1" width="171px" height="81px" viewBox="0 0 171.0 81.0" xmlns="http://www.w3.org/2000/svg" xmlns:xlink="http://www.w3.org/1999/xlink"><defs><clipPath id="i0"><path d="M171,0 L171,81 L0,81 L0,0 L171,0 Z"></path></clipPath><clipPath id="i1"><path d="M171,0 L171,3 L0,3 L0,0 L171,0 Z"></path></clipPath><clipPath id="i2"><path d="M7.74998152,0 C12.0298785,0 15.499963,3.47133572 15.499963,7.74998152 C15.499963,12.0311298 12.0298785,15.499963 7.74998152,15.499963 C3.4700845,15.499963 0,12.0311298 0,7.74998152 C0,3.47133572 3.4700845,0 7.74998152,0 Z M8.37498003,6.74998391 L6.3749848,6.74998391 C6.16789301,6.74998391 5.99998569,6.91789122 5.99998569,7.12498301 L5.99998569,7.87498122 C5.99998569,8.08207302 6.16789301,8.24998391 6.3749848,8.24998391 L6.74998391,8.24998391 L6.74998391,10.2499839 L6.3749848,10.2499839 C6.16789301,10.2499839 5.99998569,10.4178829 5.99998569,10.6249747 L5.99998569,11.3749729 C5.99998569,11.5820647 6.16789301,11.749972 6.3749848,11.749972 L9.12497824,11.749972 C9.33207004,11.749972 9.49998569,11.5820647 9.49998569,11.3749729 L9.49998569,10.6249747 C9.49998569,10.4178829 9.33207004,10.2499839 9.12497824,10.2499839 L8.74997914,10.2499839 L8.74997914,7.12498301 C8.74997914,6.91789122 8.58207182,6.74998391 8.37498003,6.74998391 Z M7.74998152,3.4374918 C7.02509922,3.4374918 6.43748465,4.02510637 6.43748465,4.74998868 C6.43748465,5.47487098 7.02509922,6.06248555 7.74998152,6.06248555 C8.47486383,6.06248555 9.06247839,5.47487098 9.06247839,4.74998868 C9.06247839,4.02510637 8.47486383,3.4374918 7.74998152,3.4374918 Z"></path></clipPath><clipPath id="i3"><path d="M0.98282389,0.287818222 C1.36688669,-0.0959394075 1.98907759,-0.0959394075 2.37280471,0.287818222 L5.5,3.41500803 L8.62718433,0.287818222 C9.01124713,-0.0959394075 9.63340751,-0.0959394075 10.0171651,0.287818222 L10.7121708,0.98282389 C11.0959284,1.36688669 11.0959284,1.98907759 10.7121708,2.37280471 L7.584981,5.5 L10.7121708,8.62718433 C11.0959284,9.01124713 11.0959284,9.63340751 10.7121708,10.0171651 L10.0171651,10.7121708 C9.63340751,11.0959284 9.01091144,11.0959284 8.62718433,10.7121708 L5.5,7.584981 L2.37280471,10.7121708 C1.98907759,11.0959284 1.36658152,11.0959284 0.98282389,10.7121708 L0.287818222,10.0171651 C-0.0959394075,9.63310234 -0.0959394075,9.01091144 0.287818222,8.62718433 L3.41500803,5.5 L0.287818222,2.37280471 C-0.0959394075,1.9887419 -0.0959394075,1.36658152 0.287818222,0.98282389 Z"></path></clipPath><clipPath id="i4"><path d="M111,0 L111,21 L0,21 L0,0 L111,0 Z"></path></clipPath><clipPath id="i5"><path d="M87,0 L87,20 L0,20 L0,0 L87,0 Z"></path></clipPath><clipPath id="i6"><path d="M16,0 L16,81 L0,81 L0,0 L16,0 Z"></path></clipPath><clipPath id="i7"><path d="M4,0 L4,49 L0,49 L0,0 L4,0 Z"></path></clipPath><clipPath id="i8"><path d="M111,0 L111,4 L0,4 L0,0 L111,0 Z"></path></clipPath><clipPath id="i9"><path d="M139,0 L139,16 L0,16 L0,0 L139,0 Z"></path></clipPath></defs><g clip-path="url(#i0)"><polygon points="0,0 171,0 171,81 0,81 0,0" stroke="none" fill="#E7F1FA"></polygon></g><g clip-path="url(#i1)"><polygon points="0,0 171,0 171,3 0,3 0,0" stroke="none" fill="#2B9AF3"></polygon></g><g transform="translate(16.0 16.0)"><g transform="translate(4.0 4.0)"><g clip-path="url(#i2)"><polygon points="0,0 15.499963,0 15.499963,15.499963 0,15.499963 0,0" stroke="none" fill="#2B9AF3"></polygon></g></g></g><g transform="translate(131.0 16.0)"><g transform="translate(7.000000000000001 7.000000000000001)"><g clip-path="url(#i3)"><polygon points="0,0 10.999989,0 10.999989,10.999989 0,10.999989 0,0" stroke="none" fill="#696E73"></polygon></g></g></g><g transform="translate(44.0 44.0)"><g clip-path="url(#i4)"><text transform="translate(0.0 14.0)" font-family="RedHatText-Regular, Red Hat Text" font-size="14.0" font-weight="normal" fill="#141514" text-anchor="left" line-spacing="21.0">Description</text></g></g><g transform="translate(44.0 18.0)"><g clip-path="url(#i5)"><text transform="translate(0.0 14.0)" font-family="RedHatText-Medium, Red Hat Text" font-size="14.0" font-weight="400" fill="#004268" text-anchor="left" line-spacing="21.0">Title</text></g></g><g transform="translate(16.0 0.0) scale(-1.0 1.0)"><g clip-path="url(#i6)"><polygon points="0,0 16,0 16,81 0,81 0,0" stroke="none" fill="rgba(62, 156, 52, 0.9)"></polygon></g><g clip-path="url(#i6)"><polygon points="0,0 16,0 16,81 0,81 0,0 0,0" stroke="#418A37" stroke-width="2" fill="none" stroke-miterlimit="5"></polygon></g></g><g transform="translate(171.0 0.0) scale(-1.0 1.0)"><g clip-path="url(#i6)"><polygon points="0,0 16,0 16,81 0,81 0,0" stroke="none" fill="rgba(62, 156, 52, 0.9)"></polygon></g><g clip-path="url(#i6)"><polygon points="0,0 16,0 16,81 0,81 0,0 0,0" stroke="#418A37" stroke-width="2" fill="none" stroke-miterlimit="5"></polygon></g></g><g transform="translate(44.0 16.0) scale(-1.0 1.0)"><g clip-path="url(#i7)"><polygon points="0,0 4,0 4,49 0,49 0,0" stroke="none" fill="rgba(236, 121, 8, 0.9)"></polygon></g><g clip-path="url(#i7)"><polygon points="0,0 4,0 4,49 0,49 0,0 0,0" stroke="#C67000" stroke-width="2" fill="none" stroke-miterlimit="5"></polygon></g></g><g transform="translate(44.0 40.0)"><g clip-path="url(#i8)"><polygon points="0,0 111,0 111,4 0,4 0,0" stroke="none" fill="rgba(236, 121, 8, 0.9)"></polygon></g><g clip-path="url(#i8)"><polygon points="0,0 111,0 111,4 0,4 0,0 0,0" stroke="#C67000" stroke-width="2" fill="none" stroke-miterlimit="5"></polygon></g></g><g transform="translate(16.0 0.0)"><g clip-path="url(#i9)"><polygon points="0,0 139,0 139,16 0,16 0,0" stroke="none" fill="rgba(62, 156, 52, 0.9)"></polygon></g><g clip-path="url(#i9)"><polygon points="0,0 139,0 139,16 0,16 0,0 0,0" stroke="#418A37" stroke-width="2" fill="none" stroke-miterlimit="5"></polygon></g></g><g transform="translate(16.0 65.0)"><g clip-path="url(#i9)"><polygon points="0,0 139,0 139,16 0,16 0,0" stroke="none" fill="rgba(62, 156, 52, 0.9)"></polygon></g><g clip-path="url(#i9)"><polygon points="0,0 139,0 139,16 0,16 0,0 0,0" stroke="#418A37" stroke-width="2" fill="none" stroke-miterlimit="5"></polygon></g></g></svg>