<?xml version="1.0" encoding="UTF-8"?><svg version="1.1" width="804px" height="20px" viewBox="0 0 804.0 20.0" xmlns="http://www.w3.org/2000/svg" xmlns:xlink="http://www.w3.org/1999/xlink"><defs><clipPath id="i0"><path d="M798,0 C799.104569,-2.02906125e-16 800,0.8954305 800,2 C800,3.1045695 799.104569,4 798,4 L2,4 C0.8954305,4 1.91162759e-15,3.1045695 0,2 C-1.3527075e-16,0.8954305 0.8954305,2.02906125e-16 2,0 L798,0 Z"></path></clipPath><clipPath id="i1"><path d="M8,0 C12.418278,0 16,3.581722 16,8 C16,12.418278 12.418278,16 8,16 C3.581722,16 0,12.418278 0,8 C0,3.581722 3.581722,0 8,0 Z"></path></clipPath></defs><g transform="translate(0.0 8.0)"><g clip-path="url(#i0)"><polygon points="0,0 800,0 800,4 0,4 0,0" stroke="none" fill="#2B9AF3"></polygon></g></g><g transform="translate(784.0 0.0)"><g transform="translate(2.0 2.0)"><g clip-path="url(#i1)"><polygon points="0,0 16,0 16,16 0,16 0,0" stroke="none" fill="#0066CC"></polygon></g></g></g></svg>