<?xml version="1.0" encoding="UTF-8"?><svg version="1.1" width="135px" height="36px" viewBox="0 0 135.0 36.0" xmlns="http://www.w3.org/2000/svg" xmlns:xlink="http://www.w3.org/1999/xlink"><defs><clipPath id="i0"><path d="M135,0 L135,36 L0,36 L0,0 L135,0 Z"></path></clipPath><clipPath id="i1"><path d="M0.737117917,0.215863667 C1.02516502,-0.0719545556 1.4918082,-0.0719545556 1.77960353,0.215863667 L4.12499589,2.56125602 L6.47038824,0.215863667 C6.75843535,-0.0719545556 7.22505563,-0.0719545556 7.51287386,0.215863667 L8.03412811,0.737117917 C8.32194633,1.02516502 8.32194633,1.4918082 8.03412811,1.77960353 L5.68873575,4.12499589 L8.03412811,6.47038824 C8.32194633,6.75843535 8.32194633,7.22505563 8.03412811,7.51287386 L7.51287386,8.03412811 C7.22505563,8.32194633 6.75818358,8.32194633 6.47038824,8.03412811 L4.12499589,5.68873575 L1.77960353,8.03412811 C1.4918082,8.32194633 1.02493614,8.32194633 0.737117917,8.03412811 L0.215863667,7.51287386 C-0.0719545556,7.22482675 -0.0719545556,6.75818358 0.215863667,6.47038824 L2.56125602,4.12499589 L0.215863667,1.77960353 C-0.0719545556,1.49155643 -0.0719545556,1.02493614 0.215863667,0.737117917 Z"></path></clipPath><clipPath id="i2"><path d="M6.4999845,0 C10.0906131,0 12.999969,2.90935586 12.999969,6.4999845 C12.999969,8.0093498 12.487458,9.3968587 11.6249723,10.499975 L12.13434,10.499975 C12.3343517,10.499975 12.524964,10.5780998 12.6655887,10.7187244 L15.7812124,13.8343481 C16.0718306,14.1280791 16.0718306,14.6030841 15.7780996,14.8968456 L14.8937023,15.7812124 C14.6030841,16.0749739 14.1280791,16.0749739 13.8343481,15.7812124 L10.7187244,12.6655887 C10.5780998,12.524964 10.499975,12.3343517 10.499975,12.13434 L10.499975,11.6249723 C9.3968587,12.487458 8.0093498,12.999969 6.4999845,12.999969 C2.90935586,12.999969 0,10.0906131 0,6.4999845 C0,2.90935586 2.90935586,0 6.4999845,0 Z M6.49999404,2.49999404 C4.28749588,2.49999404 2.49999404,4.29060867 2.49999404,6.49999404 C2.49999404,8.71247312 4.29060867,10.499975 6.49999404,10.499975 C8.71247312,10.499975 10.499975,8.70936034 10.499975,6.49999404 C10.499975,4.28749588 8.70936034,2.49999404 6.49999404,2.49999404 Z"></path></clipPath><clipPath id="i3"><path d="M8,0 L8,36 L0,36 L0,0 L8,0 Z"></path></clipPath><clipPath id="i4"><path d="M8,0 L8,24 L0,24 L0,0 L8,0 Z"></path></clipPath><clipPath id="i5"><path d="M129,0 L129,6 L0,6 L0,0 L129,0 Z"></path></clipPath><clipPath id="i6"><path d="M4,0 L4,24 L0,24 L0,0 L4,0 Z"></path></clipPath></defs><g clip-path="url(#i0)"><polygon points="0,0 135,0 135,36 0,36 0,0" stroke="none" fill="#FFFFFF"></polygon><g transform="translate(1.0 0.0)"><polygon points="0,0 0,36 -1,36 -1,0 0,0 0,0" stroke="none" fill="#EDEDED"></polygon></g><g transform="translate(-1.0 0.0)"><polygon points="136,0 136,36 135,36 135,0 136,0 136,0" stroke="none" fill="#EDEDED"></polygon></g><g transform="translate(0.0 1.0)"><polygon points="135,0 0,0 0,-1 135,-1 135,0 135,0" stroke="none" fill="#EDEDED"></polygon></g><g transform="translate(0.0 -2.0)"><polygon points="135,36 135,38 0,38 0,36 135,36 135,36" stroke="none" fill="#0066CC"></polygon></g></g><g transform="translate(36.0 6.0)"><text transform="translate(0.0 16.0)" font-family="RedHatText-Regular, Red Hat Text" font-size="16.0" font-weight="normal" fill="#151515" text-anchor="left" line-spacing="24.0">Text box</text></g><g transform="translate(103.0 6.0)"><g transform="translate(8.0 8.0)"><g clip-path="url(#i1)"><polygon points="0,0 8.24999177,0 8.24999177,8.24999177 0,8.24999177 0,0" stroke="none" fill="#696E73"></polygon></g></g></g><g transform="translate(8.0 6.0)"><g transform="translate(4.0 4.0)"><g clip-path="url(#i2)"><polygon points="0,0 15.9987885,0 15.9987885,16.0015335 0,16.0015335 0,0" stroke="none" fill="#151515"></polygon></g></g></g><g clip-path="url(#i3)"><polygon points="0,0 8,0 8,36 0,36 0,0" stroke="none" fill="rgba(146, 211, 0, 0.9)"></polygon></g><g clip-path="url(#i3)"><polygon points="0,0 8,0 8,36 0,36 0,0 0,0" stroke="#7EB200" stroke-width="2" fill="none" stroke-miterlimit="5"></polygon></g><g transform="translate(127.0 6.0)"><g clip-path="url(#i4)"><polygon points="0,0 8,0 8,24 0,24 0,0" stroke="none" fill="rgba(146, 211, 0, 0.9)"></polygon></g><g clip-path="url(#i4)"><polygon points="0,0 8,0 8,24 0,24 0,0 0,0" stroke="#7EB200" stroke-width="2" fill="none" stroke-miterlimit="5"></polygon></g></g><g transform="translate(6.0 29.999999999999996)"><g transform=""><g clip-path="url(#i5)"><polygon points="0,0 129,0 129,6 0,6 0,0" stroke="none" fill="rgba(243, 213, 59, 0.9)"></polygon></g><g clip-path="url(#i5)"><polygon points="0,0 129,0 129,6 0,6 0,0 0,0" stroke="#CAB534" stroke-width="2" fill="none" stroke-miterlimit="5"></polygon></g></g></g><g transform="translate(6.0 0.0)"><g clip-path="url(#i5)"><polygon points="0,0 129,0 129,6 0,6 0,0" stroke="none" fill="rgba(243, 213, 59, 0.9)"></polygon></g><g clip-path="url(#i5)"><polygon points="0,0 129,0 129,6 0,6 0,0 0,0" stroke="#CAB534" stroke-width="2" fill="none" stroke-miterlimit="5"></polygon></g></g><g transform="translate(32.0 6.0)"><g clip-path="url(#i6)"><polygon points="0,0 4,0 4,24 0,24 0,0" stroke="none" fill="rgba(236, 121, 8, 0.9)"></polygon></g><g clip-path="url(#i6)"><polygon points="0,0 4,0 4,24 0,24 0,0 0,0" stroke="#C67000" stroke-width="2" fill="none" stroke-miterlimit="5"></polygon></g></g><g transform="translate(99.0 6.0)"><g clip-path="url(#i6)"><polygon points="0,0 4,0 4,24 0,24 0,0" stroke="none" fill="rgba(236, 121, 8, 0.9)"></polygon></g><g clip-path="url(#i6)"><polygon points="0,0 4,0 4,24 0,24 0,0 0,0" stroke="#C67000" stroke-width="2" fill="none" stroke-miterlimit="5"></polygon></g></g></svg>