<?xml version="1.0" encoding="UTF-8"?>
<svg width="135px" height="36px" viewBox="0 0 135 36" version="1.1" xmlns="http://www.w3.org/2000/svg" xmlns:xlink="http://www.w3.org/1999/xlink">
    <title></title>
    <defs>
        <rect id="path-1" x="0" y="0" width="135" height="36"></rect>
        <filter x="-0.7%" y="-2.8%" width="101.5%" height="105.6%" filterUnits="objectBoundingBox" id="filter-2">
            <feOffset dx="1" dy="0" in="SourceAlpha" result="shadowOffsetInner1"></feOffset>
            <feComposite in="shadowOffsetInner1" in2="SourceAlpha" operator="arithmetic" k2="-1" k3="1" result="shadowInnerInner1"></feComposite>
            <feColorMatrix values="0 0 0 0 0.929411765   0 0 0 0 0.929411765   0 0 0 0 0.929411765  0 0 0 1 0" type="matrix" in="shadowInnerInner1" result="shadowMatrixInner1"></feColorMatrix>
            <feOffset dx="-1" dy="0" in="SourceAlpha" result="shadowOffsetInner2"></feOffset>
            <feComposite in="shadowOffsetInner2" in2="SourceAlpha" operator="arithmetic" k2="-1" k3="1" result="shadowInnerInner2"></feComposite>
            <feColorMatrix values="0 0 0 0 0.929411765   0 0 0 0 0.929411765   0 0 0 0 0.929411765  0 0 0 1 0" type="matrix" in="shadowInnerInner2" result="shadowMatrixInner2"></feColorMatrix>
            <feOffset dx="0" dy="1" in="SourceAlpha" result="shadowOffsetInner3"></feOffset>
            <feComposite in="shadowOffsetInner3" in2="SourceAlpha" operator="arithmetic" k2="-1" k3="1" result="shadowInnerInner3"></feComposite>
            <feColorMatrix values="0 0 0 0 0.929411765   0 0 0 0 0.929411765   0 0 0 0 0.929411765  0 0 0 1 0" type="matrix" in="shadowInnerInner3" result="shadowMatrixInner3"></feColorMatrix>
            <feOffset dx="0" dy="-2" in="SourceAlpha" result="shadowOffsetInner4"></feOffset>
            <feComposite in="shadowOffsetInner4" in2="SourceAlpha" operator="arithmetic" k2="-1" k3="1" result="shadowInnerInner4"></feComposite>
            <feColorMatrix values="0 0 0 0 0   0 0 0 0 0.4   0 0 0 0 0.8  0 0 0 1 0" type="matrix" in="shadowInnerInner4" result="shadowMatrixInner4"></feColorMatrix>
            <feMerge>
                <feMergeNode in="shadowMatrixInner1"></feMergeNode>
                <feMergeNode in="shadowMatrixInner2"></feMergeNode>
                <feMergeNode in="shadowMatrixInner3"></feMergeNode>
                <feMergeNode in="shadowMatrixInner4"></feMergeNode>
            </feMerge>
        </filter>
    </defs>
    <g id="Search-input" stroke="none" stroke-width="1" fill="none" fill-rule="evenodd">
        <g id="Search-input-/-Active-/-Text-only">
            <g id="Background">
                <use fill="#FFFFFF" fill-rule="evenodd" xlink:href="#path-1"></use>
                <use fill="black" fill-opacity="1" filter="url(#filter-2)" xlink:href="#path-1"></use>
            </g>
            <text id="âœï¸-Content" font-family="RedHatText-Regular, Red Hat Text" font-size="16" font-weight="normal" line-spacing="24" fill="#151515">
                <tspan x="36" y="22">Text box</tspan>
            </text>
            <g id="Icons-/-2.-Size-sm-(12px)-/-times" transform="translate(111.000000, 14.000000)" fill="#6A6E73">
                <path d="M1.77960353,8.03412811 L4.12499589,5.68873575 L6.47038824,8.03412811 C6.75818358,8.32194633 7.22505563,8.32194633 7.51287386,8.03412811 L8.03412811,7.51287386 C8.32194633,7.22505563 8.32194633,6.75843535 8.03412811,6.47038824 L5.68873575,4.12499589 L8.03412811,1.77960353 C8.32194633,1.4918082 8.32194633,1.02516502 8.03412811,0.737117917 L7.51287386,0.215863667 C7.22505563,-0.0719545556 6.75843535,-0.0719545556 6.47038824,0.215863667 L4.12499589,2.56125602 L1.77960353,0.215863667 C1.4918082,-0.0719545556 1.02516502,-0.0719545556 0.737117917,0.215863667 L0.215863667,0.737117917 C-0.0719545556,1.02493614 -0.0719545556,1.49155643 0.215863667,1.77960353 L2.56125602,4.12499589 L0.215863667,6.47038824 C-0.0719545556,6.75818358 -0.0719545556,7.22482675 0.215863667,7.51287386 L0.737117917,8.03412811 C1.02493614,8.32194633 1.4918082,8.32194633 1.77960353,8.03412811 Z" id="times"></path>
            </g>
            <g id="Icons-/-1.-Size-md-(16px)-/-Actions-/-search" transform="translate(12.000000, 10.000000)" fill="#151515">
                <path d="M14.8937023,15.7812124 L15.7780996,14.8968456 C16.0718306,14.6030841 16.0718306,14.1280791 15.7812124,13.8343481 L12.6655887,10.7187244 C12.524964,10.5780998 12.3343517,10.499975 12.13434,10.499975 L11.6249723,10.499975 C12.487458,9.3968587 12.999969,8.0093498 12.999969,6.4999845 C12.999969,2.90935586 10.0906131,-1.77635684e-15 6.4999845,-1.77635684e-15 C2.90935586,-1.77635684e-15 -1.77635684e-15,2.90935586 -1.77635684e-15,6.4999845 C-1.77635684e-15,10.0906131 2.90935586,12.999969 6.4999845,12.999969 C8.0093498,12.999969 9.3968587,12.487458 10.499975,11.6249723 L10.499975,12.13434 C10.499975,12.3343517 10.5780998,12.524964 10.7187244,12.6655887 L13.8343481,15.7812124 C14.1280791,16.0749739 14.6030841,16.0749739 14.8937023,15.7812124 Z M6.49999404,10.499975 C4.29060867,10.499975 2.49999404,8.71247312 2.49999404,6.49999404 C2.49999404,4.29060867 4.28749588,2.49999404 6.49999404,2.49999404 C8.70936034,2.49999404 10.499975,4.28749588 10.499975,6.49999404 C10.499975,8.70936034 8.71247312,10.499975 6.49999404,10.499975 Z" id="search"></path>
            </g>
            <g id="ðŸ“-Padding" fill-opacity="0.9">
                <g id="Spacer--/--Horizontal--/--2.-pf-global--spacer--sm-(8px)" fill="#92D400" stroke="#7FB300">
                    <rect id="Rectangle-Copy" x="0.5" y="0.5" width="7" height="35"></rect>
                </g>
                <g id="Spacer--/--Horizontal--/--2.-pf-global--spacer--sm-(8px)" transform="translate(127.000000, 6.000000)" fill="#92D400" stroke="#7FB300">
                    <rect id="Rectangle-Copy" x="0.5" y="0.5" width="7" height="23"></rect>
                </g>
                <g id="Spacer--/--Vertical--/--8.-pf-global--spacer--form-element-(6px)" transform="translate(6.000000, 30.000000)" fill="#F3D53C" stroke="#CBB534">
                    <rect id="Rectangle" x="0.5" y="0.5" width="128" height="5"></rect>
                </g>
                <g id="Spacer--/--Vertical--/--8.-pf-global--spacer--form-element-(6px)" transform="translate(6.000000, 0.000000)" fill="#F3D53C" stroke="#CBB534">
                    <rect id="Rectangle" x="0.5" y="0.5" width="128" height="5"></rect>
                </g>
                <g id="Spacer--/--Horizontal--/--1.-pf-global--spacer--xs-(4px)" transform="translate(32.000000, 6.000000)" fill="#EC7A08" stroke="#C77000">
                    <rect id="Rectangle" x="0.5" y="0.5" width="3" height="23"></rect>
                </g>
                <g id="Spacer--/--Horizontal--/--1.-pf-global--spacer--xs-(4px)" transform="translate(99.000000, 6.000000)" fill="#EC7A08" stroke="#C77000">
                    <rect id="Rectangle" x="0.5" y="0.5" width="3" height="23"></rect>
                </g>
            </g>
        </g>
    </g>
</svg>