<?xml version="1.0" encoding="UTF-8"?><svg version="1.1" width="136px" height="27px" viewBox="0 0 136.0 27.0" xmlns="http://www.w3.org/2000/svg" xmlns:xlink="http://www.w3.org/1999/xlink"><defs><clipPath id="i0"><path d="M9.05097583,0.0296855352 C9.35142038,-0.0508183388 9.67199091,0.0350782771 9.89193158,0.255018959 L15.4884982,5.85158562 C15.6561055,6.01252385 15.7508477,6.23484337 15.7508477,6.46720796 C15.7508477,6.69957255 15.6561055,6.92189206 15.4884982,7.08283029 L9.89193158,12.679397 C9.5495258,13.0135343 9.0030927,13.0135343 8.66068691,12.679397 C8.49307967,12.5184587 8.3983375,12.2961392 8.3983375,12.0637746 C8.3983375,11.83141 8.49307967,11.6090905 8.66068691,11.4481523 L12.760172,7.33467579 L0.88145925,7.33467579 C0.400054802,7.33473644 0.00764133668,6.94855176 0,6.46720796 C0,6.23343043 0.0928677615,6.00922782 0.258173437,5.84392214 C0.423479112,5.67861647 0.647681722,5.58574871 0.88145925,5.58574871 L12.760172,5.58574871 L8.66068691,1.48626362 C8.44074623,1.26632295 8.35484962,0.945752428 8.43535349,0.645307874 C8.51585737,0.34486332 8.75053128,0.110189409 9.05097583,0.0296855352 Z"></path></clipPath></defs><text transform="translate(0.0 18.0)" font-family="RedHatDisplay-Bold, Red Hat Display" font-size="18.0" font-weight="bold" fill="#0066CC" text-anchor="left" line-spacing="27.0">Call to action</text><g transform="translate(120.0 6.0)"><g transform="translate(0.04152539041454251 1.8449999999999829)"><g clip-path="url(#i0)"><polygon points="0,1.11022302e-16 15.7508477,1.11022302e-16 15.7508477,12.93 0,12.93 0,1.11022302e-16" stroke="none" fill="#0066CC"></polygon></g></g></g></svg>