<svg xmlns="http://www.w3.org/2000/svg" width="24" height="24" viewBox="0 0 24 24">
  <path fill="#151515" fill-rule="evenodd" d="M19.8301296,13.4907634 C19.9275719,13.4907634 20.0570882,13.4297895 20.1191608,13.3546859 L20.9160339,12.3859382 C20.9631225,12.3286263 21.0013304,12.2219676 21.0013304,12.1478101 C21.0013304,12.0493301 20.9393188,11.9189899 20.862903,11.8568562 L18.2504214,9.70341896 L18.2504214,5.37499911 C18.2504214,5.16799887 18.0824225,5 17.8754223,5 L16.1254265,5 C15.9184262,5 15.7504274,5.16799887 15.7504274,5.37499911 L15.7504274,7.64406718 L12.952613,5.34219279 C12.7233655,5.15356409 12.2963951,5.00045776 11.9994903,5.00045776 C11.702616,5.00045776 11.275615,5.15356409 11.0463675,5.34219279 L3.13607756,11.8568562 C3.06097398,11.9189593 3,12.0484451 3,12.145918 C3,12.2204418 3.03857413,12.3275582 3.08608988,12.3849922 L3.88296298,13.3537398 C3.94506611,13.4292402 4.07482654,13.4905498 4.17257411,13.4905498 C4.2470063,13.4905498 4.35400068,13.4520673 4.41140411,13.4046736 L11.762003,7.35030568 C11.8197727,7.30373596 11.9268586,7.26595529 12.0010467,7.26595529 C12.0752652,7.26595529 12.1823512,7.30373596 12.2401208,7.35030568 L19.5910554,13.4046736 C19.6484588,13.4521893 19.7555753,13.4907634 19.8301296,13.4907634 Z M17.5004232,18.9984102 C17.7764235,18.9984102 18.000422,18.7744117 18.000422,18.4984114 L18.000422,13.3734236 L12.2401208,8.63155262 C12.1823512,8.58498291 12.0752652,8.54720224 12.0010467,8.54720224 C11.9268586,8.54720224 11.8197727,8.58498291 11.762003,8.63155262 L6.00045061,13.3768721 L6.00045061,18.4984114 C6.00045061,18.7744117 6.2244491,18.9984102 6.50045061,18.9984102 L10.0023026,18.9893465 C10.2769297,18.9879732 10.4998295,18.7639748 10.4998295,18.4893477 L10.4998295,15.4984186 C10.4998295,15.2224183 10.723828,14.9984198 10.9998283,14.9984198 L12.9998236,14.9984198 C13.2757934,14.9984198 13.4998224,15.2224183 13.4998224,15.4984186 L13.4997919,18.4887374 L13.4997919,18.4887374 C13.4997919,18.734071 13.6767783,18.9383167 13.9099525,18.9806759 L13.9998212,18.9887362 L17.5004232,18.9984102 Z"/>
</svg>
