<?xml version="1.0" encoding="UTF-8"?>
<svg width="24px" height="24px" viewBox="0 0 24 24" version="1.1" xmlns="http://www.w3.org/2000/svg" xmlns:xlink="http://www.w3.org/1999/xlink">
    <title></title>
    <g id="Icons" stroke="none" stroke-width="1" fill="none" fill-rule="evenodd">
        <g id="Icons-/-1.-Size-md-/-Object-/-data-processor" fill="#050606" fill-rule="nonzero">
            <g id="processor" transform="translate(4.000000, 6.000000)">
                <path d="M13.727307,0 L15.9983062,2.43589732 L13.727307,4.87179463 L12.9989479,4.21096614 L14.1996365,2.92307678 L2.80679045,2.92307678 C2.3059625,2.93566732 1.83641579,3.14462164 1.48411903,3.51429951 C1.13097853,3.88486039 0.936509844,4.37404947 0.936509844,4.89175377 L0.936509844,4.90180184 C0.936509844,5.41805983 1.12968165,5.90185949 1.48047841,6.26406219 C1.83158766,6.62656939 2.29994688,6.82051249 2.79927483,6.82051249 L5.0449053,6.82051249 L8.00000078,4.61028127 L10.9550751,6.82051249 L13.2040447,6.82051249 C13.9434507,6.82051249 14.6384459,7.1099726 15.1636193,7.64373428 L15.1794815,7.6599836 C15.7086063,8.20632492 16.0000008,8.93563258 16.0000008,9.71358206 L16.0000008,9.72363013 C16.0000008,10.5000572 15.7092001,11.2328055 15.181169,11.7868656 C14.6564661,12.3374393 13.9568882,12.6498431 13.2113103,12.666666 L13.2058572,12.666666 L0.480439688,12.666666 C0.222752276,12.6661484 -0.00048202213,12.4352558 7.8169207e-07,12.1665763 C0.000502352533,11.8982318 0.223189776,11.6923071 0.480439688,11.6923071 L13.1965291,11.6923071 C13.6973414,11.6797166 14.1669038,11.4707623 14.5191849,11.1010844 C14.8723254,10.7305235 15.0668097,10.2413344 15.0668097,9.72363013 L15.0668097,9.71358206 C15.0668097,9.19732407 14.8736223,8.71352441 14.5228255,8.35132171 C14.1717162,7.98881451 13.7033727,7.79487141 13.2040447,7.79487141 L10.9817783,7.79487141 L8.00000078,9.99425376 L5.01821781,7.79487141 L2.79927483,7.79487141 C2.05985337,7.79487141 1.36487329,7.5054113 0.839700237,6.97164962 L0.823838008,6.9554003 C0.294713189,6.40905898 0.00330703907,5.67975133 0.00330703907,4.90180184 L0.00330703907,4.89175377 C0.00330703907,4.11532672 0.294103814,3.38257836 0.822134884,2.82851829 C1.34683783,2.2779446 2.04641571,1.96554077 2.79199358,1.94883965 L2.79746233,1.94871785 L14.1996365,1.94871785 L12.9989479,0.660828493 L13.727307,0 Z M7.99999336,5.8739639 L6.07708777,7.31220902 L7.99999336,8.73057113 L9.92291458,7.31220902 L7.99999336,5.8739639 Z" id="Combined-Shape"></path>
            </g>
        </g>
    </g>
</svg>