<?xml version="1.0" encoding="UTF-8"?>
<svg width="24px" height="24px" viewBox="0 0 24 24" version="1.1" xmlns="http://www.w3.org/2000/svg" xmlns:xlink="http://www.w3.org/1999/xlink">
    <title></title>
    <g id="Icons" stroke="none" stroke-width="1" fill="none" fill-rule="evenodd">
        <g id="Icons-/-1.-Size-md-/-Object-/-memory" fill="#151515">
            <path d="M21.9999523,13.9999809 L21.9999523,10.9080999 C21.4187159,10.7015574 20.9999547,10.1521813 20.9999547,9.5 C20.9999547,8.84780205 21.4187159,8.29842592 21.9999523,8.09188344 L21.9999523,7 C21.9999523,6.44781387 21.5521384,6 20.9999547,6 L3,6 C2.44781387,6 2,6.44781387 2,7 L2,8.09188344 C2.58123641,8.29842592 3,8.84780205 3,9.5 C3,10.1521813 2.58123641,10.7015574 2,10.9080999 L2,13.9999809 L21.9999523,13.9999809 Z M8.99998808,11.9999952 L6.99998808,11.9999952 L6.99998808,7.99999523 L8.99998808,7.99999523 L8.99998808,11.9999952 Z M12.9999785,11.9999952 L10.9999785,11.9999952 L10.9999785,7.99999523 L12.9999785,7.99999523 L12.9999785,11.9999952 Z M16.999969,11.9999952 L14.999969,11.9999952 L14.999969,7.99999523 L16.999969,7.99999523 L16.999969,11.9999952 Z M4,17.9999785 L4,17.1665383 C4,16.8902939 4.22374958,16.6665395 4.5,16.6665395 C4.7762385,16.6665395 5,16.8902939 5,17.1665383 L5,17.9999785 L8.99998331,17.9999785 L8.99998331,17.1665383 C8.99998331,16.8902939 9.22373766,16.6665395 9.49998212,16.6665395 C9.77622658,16.6665395 9.99998093,16.8902939 9.99998093,17.1665383 L9.99998093,17.9999785 L13.9999714,17.9999785 L13.9999714,17.1665383 C13.9999714,16.8902939 14.2237257,16.6665395 14.4999702,16.6665395 C14.7762147,16.6665395 14.999969,16.8902939 14.999969,17.1665383 L14.999969,17.9999785 L18.9999595,17.9999785 L18.9999595,17.1665383 C18.9999595,16.8902939 19.2237138,16.6665395 19.4999583,16.6665395 C19.7762027,16.6665395 19.9999571,16.8902939 19.9999571,17.1665383 L19.9999571,17.9999785 L21.9999523,17.9999785 L21.9999523,14.9999785 L2,14.9999785 L2,17.9999785 L4,17.9999785 Z" id="memory"></path>
        </g>
    </g>
</svg>