<?xml version="1.0" encoding="UTF-8"?>
<svg width="24px" height="24px" viewBox="0 0 24 24" version="1.1" xmlns="http://www.w3.org/2000/svg" xmlns:xlink="http://www.w3.org/1999/xlink">
    <title></title>
    <g id="Icons" stroke="none" stroke-width="1" fill="none" fill-rule="evenodd">
        <g id="Icons-/-1.-Size-md-/-Object-/-pficon-middleware" fill="#151515">
            <path d="M19.9015625,13.234375 C19.7039167,14.4944161 19.2060568,15.6884223 18.45,16.715625 C18.3768543,16.8152452 18.3874787,16.9533638 18.4749999,17.040625 L19.9265625,18.4921875 C19.9733859,18.5390421 19.9997841,18.60251 20,18.66875 L20,19.75 C20,19.8880713 19.8880712,20 19.75,20 L18.7093749,20 C18.643135,19.9997841 18.5796671,19.9733859 18.5328125,19.9265625 L17.0609374,18.4546875 C16.9736763,18.3671663 16.8355577,18.3565418 16.7359375,18.4296875 C15.7142327,19.1830753 14.526952,19.6808117 13.2734375,19.88125 C13.200975,19.8931838 13.1269304,19.8726531 13.0709598,19.8251083 C13.0149892,19.7775633 12.9828124,19.7078136 12.9828124,19.634375 L12.9828124,18.11875 C12.9828124,17.9993343 13.0672221,17.8965743 13.184375,17.8734375 C15.5578125,17.3984375 17.4234375,15.5234375 17.8875,13.146875 C17.910319,13.0293009 18.0130455,12.9442408 18.1328125,12.94375 L19.6546873,12.94375 C19.7279792,12.9441205 19.7974552,12.9764756 19.8449056,13.0323349 C19.8923559,13.0881942 19.9130495,13.1619882 19.9015625,13.234375 M10.992188,18.121875 L10.992188,19.6390625 C10.992188,19.7125011 10.9600108,19.7822508 10.9040402,19.8297958 C10.8480696,19.8773406 10.774025,19.8978712 10.7015625,19.8859375 C9.46553875,19.682293 8.29486395,19.1903633 7.284375,18.45 C7.1847548,18.3768542 7.0466362,18.3874787 6.959375,18.475 L5.5078125,19.9265625 C5.46095787,19.9733859 5.39749005,19.9997841 5.33125,20 L4.25,20 C4.11192881,20 4,19.8880712 4,19.75 L4,18.709375 C4.00021594,18.643135 4.02661405,18.5796671 4.0734375,18.5328125 L5.5421875,17.0640625 C5.62970875,16.9768013 5.64033325,16.8386827 5.5671875,16.7390625 C4.80569515,15.7085229 4.30400806,14.5095122 4.1046875,13.24375 C4.09326282,13.1715301 4.11402743,13.0979285 4.16151289,13.0423284 C4.20899836,12.9867283 4.27844453,12.9546875 4.3515625,12.9546875 L5.8734375,12.9546875 C5.99333798,12.9548092 6.0962687,13.0400384 6.11875,13.1578125 C6.58125,15.5234375 8.434375,17.3921875 10.7921875,17.8765625 C10.9087192,17.9003493 10.9923604,18.0029405 10.992188,18.121875 M12.9765624,5.871875 L12.9765624,4.340625 C12.9765624,4.26718643 13.0087392,4.19743667 13.0647098,4.14989175 C13.1206804,4.10234683 13.194725,4.08181621 13.2671875,4.09375 C14.5187437,4.29412755 15.7042823,4.79073589 16.725,5.5421875 C16.8246202,5.61533325 16.9627388,5.60470875 17.05,5.5171875 L18.4921874,4.0734375 C18.5390421,4.02661405 18.60251,4.00021594 18.66875,4 L19.7499998,4 C19.8880712,4 19.9999998,4.11192881 19.9999998,4.25 L19.9999998,5.290625 C19.9997841,5.35686505 19.9733859,5.42033287 19.9265625,5.4671875 L18.4640625,6.9296875 C18.3765412,7.0169487 18.3659167,7.1550673 18.4390625,7.2546875 C19.1805786,8.26111473 19.6746448,9.42803192 19.88125,10.6609375 C19.893357,10.7335853 19.8729381,10.8078841 19.8254052,10.8641416 C19.777872,10.920399 19.7080245,10.9529346 19.634375,10.953125 L18.10625,10.953125 C17.9878991,10.953125 17.88564,10.8704317 17.8609375,10.7546875 C17.3703125,8.4203125 15.5203125,6.5859375 13.178125,6.1171875 C13.0609721,6.0940507 12.9765624,5.99129075 12.9765624,5.871875 M4.1109375,10.66875 C4.31602732,9.44133717 4.80683816,8.27934116 5.54375,7.2765625 C5.61689575,7.1769423 5.60627125,7.0388237 5.51875,6.9515625 L4.0734375,5.5078125 C4.02661405,5.46095787 4.00021594,5.39749005 4,5.33125 L4,4.25 C4,4.11192881 4.11192881,4 4.25,4 L5.290625,4 C5.35686505,4.00021594 5.42033287,4.02661405 5.4671875,4.0734375 L6.928125,5.534375 C7.0153862,5.62189625 7.1535048,5.63252075 7.253125,5.559375 C8.26823663,4.80950448 9.44693828,4.31146153 10.6921875,4.10625 C10.76465,4.09431621 10.8386946,4.11484683 10.8946652,4.16239175 C10.9506358,4.20993667 10.9828126,4.27968643 10.9828126,4.353125 L10.9828126,5.8859375 C10.9821459,6.0045722 10.8988814,6.10670131 10.7828125,6.13125 C8.45625,6.609375 6.6203125,8.4375 6.1296875,10.7625 C6.10498497,10.8782442 6.00272592,10.9609375 5.884375,10.9609375 L4.35625,10.9609375 C4.28262995,10.9609375 4.21276068,10.9284612 4.16542297,10.872078 C4.11808526,10.8156949 4.09813599,10.7412485 4.1109375,10.66875 M12,8 C14.209375,8 16,9.790625 16,12 C16,14.209375 14.209375,16 12,16 C9.790625,16 8,14.209375 8,12 C8,9.790625 9.790625,8 12,8" id="pficon-middleware"></path>
        </g>
    </g>
</svg>