<?xml version="1.0" encoding="UTF-8"?>
<svg width="24px" height="24px" viewBox="0 0 24 24" version="1.1" xmlns="http://www.w3.org/2000/svg" xmlns:xlink="http://www.w3.org/1999/xlink">
    <title></title>
    <g id="Icons" stroke="none" stroke-width="1" fill="none" fill-rule="evenodd">
        <g id="Icons-/-1.-Size-md-/-Object-/-pficon-data-source" fill="#000000">
            <path d="M17.4040154,4 L19.9999964,6.85714158 L17.4040154,9.71428316 L16.5714265,8.93917637 L17.943,7.43 L7.19602357,7.4269449 C6.62530954,7.4269449 6.08929192,7.66498051 5.68670282,8.09724817 C5.28473871,8.52883726 5.06456024,9.10185487 5.06673881,9.71074745 C5.07127452,10.9702469 6.02647052,11.9999964 7.19604143,11.9999964 L16.80393,11.9999964 C17.6576975,11.9999964 18.4596435,12.346407 19.062054,12.9846388 C19.666893,13.62546 20,14.4808882 20,15.3933699 L20,15.4051556 C20,16.3158516 19.6675716,17.1753155 19.0639826,17.8251903 C18.4641971,18.4709757 17.6645189,18.8374041 16.8122514,18.8569934 L8.93399094,18.8576695 C8.67466769,19.961465 7.68177323,20.785709 6.5,20.785709 C5.1214995,20.785709 4,19.6642073 4,18.285709 C4,16.9072085 5.1214995,15.785709 6.5,15.785709 C7.68177323,15.785709 8.67466769,16.6099514 8.93399094,17.7137478 L16.7953407,17.7142796 C17.3678226,17.6995117 17.9045724,17.4544226 18.3072686,17.0208156 C18.710947,16.586173 18.9332505,16.0123875 18.9332505,15.4051556 L18.9332505,15.3933699 C18.9332505,14.7878345 18.7124291,14.2203704 18.3114293,13.7955313 C17.9100902,13.3703351 17.3747155,13.1428531 16.80393,13.1428531 L7.19604143,13.1428531 C5.44052436,13.1428531 4.000025,11.6071395 4.000025,9.71512245 C4.000025,8.80356928 4.327382,7.9398911 4.9310603,7.29173067 C5.48490678,6.69705981 6.2070038,6.34728479 6.98310615,6.29311861 L7.19682714,6.28571327 L17.946,6.288 L16.5714265,4.7751068 L17.4040154,4 Z M6.49999888,16.9285657 C5.75165993,16.9285657 5.14285663,17.5373868 5.14285663,18.2857079 C5.14285663,19.034029 5.75165993,19.6428502 6.49999888,19.6428502 C7.24833784,19.6428502 7.85714114,19.034029 7.85714114,18.2857079 C7.85714114,17.5373868 7.24833784,16.9285657 6.49999888,16.9285657 Z" id="Combined-Shape"></path>
        </g>
    </g>
</svg>