<?xml version="1.0" encoding="UTF-8"?>
<svg width="24px" height="24px" viewBox="0 0 24 24" version="1.1" xmlns="http://www.w3.org/2000/svg" xmlns:xlink="http://www.w3.org/1999/xlink">
    <title></title>
    <g id="Icons" stroke="none" stroke-width="1" fill="none" fill-rule="evenodd">
        <g id="Icons-/-1.-Size-md-/-Object-/-pficon-monitoring" fill="#151515">
            <path d="M20,5 L20,16.2927941 L13.4117647,16.2927941 L13.4117647,17.2352941 L16.2352941,17.2435294 L16.2352941,18.1764706 L7.76470588,18.1764706 L7.76470588,17.2435294 L10.5882353,17.2352941 L10.5882353,16.2927941 L4,16.2927941 L4,5 L20,5 Z M18.1176471,6.88235294 L5.88235294,6.88235294 L5.88235294,14.4117647 L18.1176471,14.4117647 L18.1176471,6.88235294 Z M16.4754412,8.49205882 C16.7797059,8.79647059 16.7511765,9.21470588 16.4754412,9.49029412 L13.6764706,12.2897059 C13.4008102,12.565348 12.9538957,12.565348 12.6782353,12.2897059 L10.8477941,10.4594118 L8.49911765,12.8088235 C8.2228166,13.0806606 7.77900872,13.0788534 7.50493059,12.8047753 C7.23085246,12.5306972 7.22904532,12.0868893 7.50088235,11.8105882 L10.3486765,8.96205882 L10.3589706,8.95161765 C10.4913538,8.81920416 10.6709222,8.74481251 10.8581618,8.74481251 C11.0454013,8.74481251 11.2249697,8.81920416 11.3573529,8.95161765 L13.1764706,10.7922059 L15.4772059,8.49205882 C15.7529412,8.21632353 16.1711765,8.18764706 16.4754412,8.49205882 Z" id="pficon-monitoring"></path>
        </g>
    </g>
</svg>