<?xml version="1.0" encoding="UTF-8"?>
<svg width="24px" height="24px" viewBox="0 0 24 24" version="1.1" xmlns="http://www.w3.org/2000/svg" xmlns:xlink="http://www.w3.org/1999/xlink">
    <title></title>
    <g id="Icons" stroke="none" stroke-width="1" fill="none" fill-rule="evenodd">
        <g id="Icons-/-1.-Size-md-/-Object-/-pficon-domain" fill="#151515">
            <path d="M12.5,11.9984375 C12.7730635,11.9992023 12.9947542,12.2181699 12.9999102,12.4901787 L13,12.4984375 L13,19.4984375 C12.9992352,19.7715011 12.7802676,19.9931917 12.5082588,19.9983477 L12.5,19.9984375 L9.5,19.9984375 C9.22693645,19.9976727 9.00524584,19.7787052 9.0000898,19.5066963 L9,19.4984375 L9,12.4984375 C9.00076477,12.225374 9.21973239,12.0036833 9.49174123,11.9985273 L9.5,11.9984375 L12.5,11.9984375 Z M15,13 L15,19 L14,19 L14,13 L15,13 Z M12,18 L10,18 L10,19 L12,19 L12,18 Z M19,12.0171875 L19,12.01875 C19,14.396875 17.8140625,16.4984375 16,17.7640625 L16,17.7640625 L16,16.490625 C16.0828125,16.415625 16.1625,16.340625 16.2421875,16.2609375 C17.3691283,15.1363804 18.0016896,13.6092369 18,12.0171875 L18,12.0171875 L19,12.0171875 Z M6.340625,10.015625 C5.57366227,12.1962688 6.12459186,14.6235176 7.7578125,16.259375 C7.8359375,16.3390625 7.9171875,16.415625 7.99999693,16.4890625 L7.99999693,16.4890625 L7.99999693,17.7625 C6.1859375,16.496875 4.99999693,14.3953125 4.99999693,12.0171875 C4.99955037,11.3394548 5.0974453,10.6652429 5.290625,10.015625 L5.290625,10.015625 L6.340625,10.015625 Z M12.0015625,15 L10,15 L10,17 L12.0015625,17 L12.0015625,15 Z M12,13 L11,13 L11,14 L12,14 L12,13 Z M17.5,4 C17.773381,4 17.9955176,4.21940286 17.999933,4.49173159 L18,4.5 L18,10.34375 C18,10.617131 17.7805971,10.8392676 17.5082684,10.84375 L17.5,10.84375 L13.5,10.84375 C13.226619,10.84375 13.0044824,10.6243471 13.000067,10.3520184 L13,10.34375 L13,4.5 C13,4.22661905 13.2194029,4.00448238 13.4917316,4 L13.5,4 L17.5,4 Z M20,5 L20,10 L19,10 L19,5 L20,5 Z M17,8 L14,8 L14,9.5 L17,9.5 L17,8 Z M7.5,4 C7.77306355,4.00076477 7.99475416,4.21973238 7.9999102,4.49174124 L8,4.5 L8,8.5 C7.99923523,8.77306355 7.78026761,8.99475416 7.50825877,8.9999102 L7.5,9 L4.5,9 C4.22693645,8.99923523 4.00524585,8.78026761 4.00008979,8.50825877 L4,8.5 L4,4.5 C4.00076477,4.22693645 4.21973238,4.00524585 4.49174124,4.00008979 L4.5,4 L7.5,4 Z M7,7 L5,7 L5,8 L7,8 L7,7 Z M12,5.015625 L12,6.015625 C11.1975431,6.01421641 10.4030491,6.17470952 9.6640625,6.4875 C9.43620655,6.58437142 9.21444416,6.69499172 9,6.81875 L9,6.81875 L9,5.690625 C9.93769073,5.2462862 10.962358,5.01573606 12,5.015625 L12,5.015625 Z M17,5 L15.5,5 L15.5,6.5 L17,6.5 L17,5 Z M7,5 L6,5 L6,6 L7,6 L7,5 Z" id="pficon-domain"></path>
        </g>
    </g>
</svg>