<?xml version="1.0" encoding="UTF-8"?>
<svg width="24px" height="24px" viewBox="0 0 24 24" version="1.1" xmlns="http://www.w3.org/2000/svg" xmlns:xlink="http://www.w3.org/1999/xlink">
    <title></title>
    <g id="Icons" stroke="none" stroke-width="1" fill="none" fill-rule="evenodd">
        <g id="Icons-/-1.-Size-md-/-Object-/-pficon-service" fill="#151515">
            <path d="M11.1070615,17.6666667 C11.5930144,17.6666667 12.0587193,17.6079474 12.5041762,17.4905087 C12.949633,17.3730701 13.3788914,17.1928626 13.7919514,16.9498861 C14.1969122,16.7150089 14.5613769,16.4355859 14.8853455,16.1116173 C15.2093141,15.7876487 15.488737,15.4191344 15.7236143,15.0060744 C15.9665907,14.6011136 16.1467983,14.1759048 16.2642369,13.730448 C16.3816755,13.2849911 16.4403948,12.8192863 16.4403948,12.3333333 C16.4403948,12.0255631 16.4160972,11.7238674 16.3675019,11.428246 C16.3189066,11.1326247 16.2460137,10.8430777 16.1488231,10.5596052 L17.3272589,10.5596052 L17.3272589,12.3454822 L20,10.1222475 L17.3272589,7.88686409 L17.3272589,9.67274108 L15.7357631,9.67274108 L15.7236143,9.66059226 L15.7236143,9.66059226 C15.488737,9.24753227 15.2093141,8.88104277 14.8853455,8.56112377 C14.5613769,8.24120476 14.1928626,7.95975702 13.7798026,7.71678056 C13.3748418,7.48190332 12.949633,7.30372058 12.5041762,7.18223235 C12.0587193,7.06074412 11.5930144,7 11.1070615,7 C10.6211086,7 10.1554037,7.06074412 9.70994685,7.18223235 C9.26449,7.30372058 8.83928119,7.48190332 8.43432043,7.71678056 C8.02126044,7.95975702 7.65477094,8.24322956 7.33485194,8.56719818 C7.01493293,8.89116679 6.73348519,9.25563149 6.49050873,9.66059226 C6.25563149,10.065553 6.07744875,10.4907618 5.95596052,10.9362187 C5.83447229,11.3816755 5.77372817,11.8473804 5.77372817,12.3333333 C5.77372817,12.4872184 5.77980258,12.6370539 5.7919514,12.7828398 C5.80410023,12.9286257 5.82232346,13.0744115 5.84662111,13.2201974 L4,13.2201974 L4,14.1070615 L6.07744875,14.1070615 C6.12604404,14.2609466 6.18678815,14.4128069 6.25968109,14.5626424 C6.33257403,14.7124779 6.40951658,14.8602885 6.49050873,15.0060744 C6.73348519,15.4191344 7.01695773,15.7876487 7.34092635,16.1116173 C7.66489496,16.4355859 8.02935966,16.7150089 8.43432043,16.9498861 C8.83928119,17.1928626 9.26651481,17.3730701 9.71602126,17.4905087 C10.1655277,17.6079474 10.6292078,17.6666667 11.1070615,17.6666667 Z M11.1192103,16.5246773 C10.8357378,16.5246773 10.5583397,16.49633 10.2870159,16.4396355 C10.0156922,16.382941 9.75449253,16.3019489 9.50341686,16.1966591 C9.24424196,16.0832701 9.00329031,15.9516578 8.78056188,15.8018223 C8.55783346,15.6519868 8.35332827,15.4839281 8.16704632,15.2976462 C7.99696279,15.1275626 7.8430777,14.9433055 7.70539104,14.7448747 C7.56770438,14.5464439 7.44621615,14.3338395 7.34092635,14.1070615 L11.1070615,14.1070615 L11.1070615,15.8929385 L13.7676538,13.6697039 L11.1070615,11.4343204 L11.1070615,13.2201974 L7.03720577,13.2201974 C7.00480891,13.0744115 6.98253607,12.9306505 6.97038724,12.7889142 C6.95823842,12.6471779 6.95216401,12.4993672 6.95216401,12.3454822 C6.95216401,12.0620096 6.97848646,11.7866363 7.03113136,11.5193622 C7.08377626,11.2520881 7.16679322,10.9888636 7.28018223,10.7296887 C7.39357125,10.4705138 7.52315869,10.2295621 7.66894457,10.0068337 C7.81473045,9.78410529 7.98076436,9.5796001 8.16704632,9.39331815 C8.35332827,9.20703619 8.55783346,9.03897747 8.78056188,8.88914199 C9.00329031,8.7393065 9.24424196,8.61174386 9.50341686,8.50645406 C9.76259175,8.39306505 10.0278411,8.30802329 10.2991648,8.25132878 C10.5704885,8.19463427 10.8478866,8.16628702 11.1313591,8.16628702 C11.4067325,8.16628702 11.680081,8.19463427 11.9514047,8.25132878 C12.2227284,8.30802329 12.4879777,8.39306505 12.7471526,8.50645406 C13.0063275,8.61174386 13.2472792,8.7393065 13.4700076,8.88914199 C13.692736,9.03897747 13.8972412,9.20703619 14.0835232,9.39331815 C14.1240192,9.43381422 14.1645153,9.47835991 14.2050114,9.5269552 C14.2455075,9.57555049 14.2860035,9.62009618 14.3264996,9.66059226 L11.1070615,9.66059226 L11.1070615,10.5596052 L14.8853455,10.5596052 C14.9015439,10.5839028 14.9157175,10.6102253 14.9278664,10.6385725 C14.9400152,10.6669198 14.9541888,10.6972918 14.9703872,10.7296887 C15.075677,10.9807644 15.1566692,11.2419641 15.2133637,11.5132878 C15.2700582,11.7846115 15.2984055,12.0620096 15.2984055,12.3454822 C15.2984055,12.6289547 15.2700582,12.9063528 15.2133637,13.1776765 C15.1566692,13.4490003 15.075677,13.7142496 14.9703872,13.9734244 C14.8569982,14.2245001 14.725386,14.4614022 14.5755505,14.6841306 C14.425715,14.906859 14.2576563,15.1113642 14.0713743,15.2976462 C13.8850924,15.4839281 13.6805872,15.6519868 13.4578588,15.8018223 C13.2351303,15.9516578 12.9982283,16.0832701 12.7471526,16.1966591 C12.4879777,16.3019489 12.2227284,16.382941 11.9514047,16.4396355 C11.680081,16.49633 11.4026829,16.5246773 11.1192103,16.5246773 Z" id="pficon-service"></path>
        </g>
    </g>
</svg>