<?xml version="1.0" encoding="UTF-8"?>
<svg width="24px" height="24px" viewBox="0 0 24 24" version="1.1" xmlns="http://www.w3.org/2000/svg" xmlns:xlink="http://www.w3.org/1999/xlink">
    <title></title>
    <g id="Icons" stroke="none" stroke-width="1" fill="none" fill-rule="evenodd">
        <g id="Icons-/-1.-Size-md-/-Object-/-pficon-data-sink" fill="#000000">
            <path d="M11.689369,4 L14.2857063,6.85714063 L11.689369,9.71428126 L10.8571375,8.93881758 L12.229,7.428 L7.20603321,7.42856876 C6.63240866,7.44322946 6.09544479,7.68821141 5.69357011,8.11949679 C5.29101685,8.55149645 5.06932059,9.123496 5.06932059,9.73013839 L5.06932059,9.74192409 C5.06932059,10.3478701 5.29008828,10.9157089 5.69098082,11.3408514 C6.09228408,11.7664582 6.62764081,11.9999938 7.19839036,11.9999938 L16.8046329,11.9999938 C18.5597565,11.9999938 19.993184,13.5368318 19.9999761,15.4247947 C20.0032375,16.3398832 19.6728449,17.201079 19.0696311,17.8497392 C18.4655066,18.4993458 17.6610608,18.8571313 16.8046507,18.8571313 L4,18.8571313 L4,17.714275 L16.8045079,17.7146857 C17.3755789,17.7146857 17.9117034,17.4762752 18.3143103,17.043347 C18.7159171,16.6114902 18.9358812,16.0382406 18.9337026,15.4291875 C18.9291848,14.1687421 17.9740784,13.14285 16.8046329,13.14285 L7.19839036,13.14285 C6.34489103,13.14285 5.54315951,12.7915467 4.94089212,12.1528329 C4.33610688,11.5114584 4.00305357,10.6552448 4.00305357,9.74192409 L4.00305357,9.73013839 C4.00305357,8.81869267 4.33544617,7.96001477 4.93899927,7.31230099 C5.53753452,6.6699622 6.33644461,6.30544463 7.18860466,6.2857125 L12.228,6.285 L10.8571375,4.77546368 L11.689369,4 Z M17.4999914,4.28571406 C18.8784884,4.28571406 19.9999914,5.40721319 19.9999914,6.78571406 C19.9999914,8.16421104 18.8784884,9.28571406 17.4999914,9.28571406 C16.1214905,9.28571406 14.9999914,8.16421104 14.9999914,6.78571406 C14.9999914,5.40721319 16.1214905,4.28571406 17.4999914,4.28571406 Z M17.4999895,5.42880246 C16.7515258,5.42880246 16.1426155,6.03751627 16.1426155,6.78571211 C16.1426155,7.53392582 16.7515258,8.14262177 17.4999895,8.14262177 C18.2484532,8.14262177 18.8573634,7.53392582 18.8573634,6.78571211 C18.8573634,6.03751627 18.2484532,5.42880246 17.4999895,5.42880246 Z" id="Combined-Shape"></path>
        </g>
    </g>
</svg>