<?xml version="1.0" encoding="UTF-8"?>
<svg width="24px" height="24px" viewBox="0 0 24 24" version="1.1" xmlns="http://www.w3.org/2000/svg" xmlns:xlink="http://www.w3.org/1999/xlink">
    <title></title>
    <g id="Icons" stroke="none" stroke-width="1" fill="none" fill-rule="evenodd">
        <g id="Icons-/-1.-Size-md-/-Object-/-pficon-cloud-security" fill="#151515">
            <path d="M10.4015625,6.00000424 C11.278125,6.00000424 12.0734375,6.24845029 12.7875,6.75001279 C13.5015625,7.25157529 14.025,7.90157529 14.3515625,8.71251279 C14.740625,8.36095029 15.2015625,8.18282529 15.734375,8.18282529 C16.3234375,8.18282529 16.828125,8.39688779 17.2375,8.82345029 C17.6578125,9.24845029 17.8640625,9.76251279 17.8640625,10.3672003 C17.866643,10.7840692 17.7483268,11.1927483 17.5234375,11.5437628 C18.240625,11.715117 18.8328125,12.0968878 19.3,12.6890753 C19.7666667,13.2817836 20,13.9609503 20,14.7265753 C20,15.6312628 19.690625,16.4015753 19.0640625,17.0422003 C18.4422188,17.6717784 17.6978625,17.9935439 16.8264455,18.0000042 L16.8,18.0000042 L7.7328125,18.0000042 C6.70520833,17.9989711 5.8265625,17.6250128 5.096875,16.8781378 C4.365625,16.1302211 4,15.2312628 4,14.1812628 C4,13.4323045 4.19739583,12.7468878 4.5921875,12.1250128 C4.98802083,11.5010545 5.5078125,11.0359503 6.1515625,10.7297003 C6.140625,10.5703253 6.134375,10.4468878 6.134375,10.3625128 C6.134375,9.15938779 6.55,8.12813779 7.384375,7.27657529 C8.21927083,6.42397113 9.225,5.99845029 10.4015625,6.00000424 Z M12,9.00001279 C11.4515625,9.00001279 10.98125,9.19688779 10.5875,9.59220029 C10.19375,9.98751279 9.996875,10.4547003 9.996875,11.0062628 L9.996875,11.9906378 L9.5015625,11.9906378 C9.3625,11.9906378 9.24375,12.0234503 9.146875,12.1203253 C9.05165614,12.2142606 8.99865077,12.3428268 9,12.4765753 L9,15.4843878 C8.99780834,15.6182973 9.05094498,15.7471819 9.146875,15.8406378 C9.2453125,15.9375128 9.3625,16.0000128 9.5015625,16.0000128 L14.496875,16.0000128 C14.6359375,16.0000128 14.7546875,15.9375128 14.8515625,15.8406378 C14.9467814,15.7467025 14.9997867,15.6181363 14.9984375,15.4843878 L15.0015625,12.4781378 C15.0045302,12.3440823 14.9512709,12.2149003 14.8546875,12.1218878 C14.75625,12.0250128 14.6390625,11.9906378 14.5,11.9906378 L14.0015625,11.9906378 L14.0015625,11.0062628 C14.0015625,10.4562628 13.8078125,9.98751279 13.4140625,9.59220029 C13.0203125,9.19688779 12.5484375,9.00001279 12,9.00001279 Z M12,10.0265753 C12.2765625,10.0265753 12.5140625,10.1234503 12.70625,10.3187628 C12.8978428,10.5039213 13.0041872,10.760166 13,11.0265753 L13,12.0000128 L11,12.0000128 L11,11.0265753 C11,10.4742905 11.4477152,10.0265753 12,10.0265753 Z" id="pficon-cloud-security"></path>
        </g>
    </g>
</svg>