<?xml version="1.0" encoding="UTF-8"?>
<svg width="24px" height="24px" viewBox="0 0 24 24" version="1.1" xmlns="http://www.w3.org/2000/svg" xmlns:xlink="http://www.w3.org/1999/xlink">
    <title></title>
    <g id="Icons" stroke="none" stroke-width="1" fill="none" fill-rule="evenodd">
        <g id="Icons-/-1.-Size-md-/-Object-/-pficon-replicator" fill="#151515">
            <path d="M20,12.3677632 L20,15.1177632 C20,15.4361842 19.8210526,15.7269737 19.5368421,15.8703947 L18.3131579,16.4809211 L18.3131579,16.4730263 C18.5657895,16.3217105 18.7223684,16.0480263 18.7223684,15.7506579 L18.7223684,13.1059211 C18.7223684,12.7875 18.5421053,12.4953947 18.2565789,12.3532895 L15.3552632,10.9006579 L15.3552632,7.7375 C15.3552632,7.41907895 15.175,7.12697368 14.8894737,6.98486842 L12.3631579,5.72171053 C12.15,5.61513158 11.9039474,5.60460526 11.6842105,5.69013158 L12.8868421,5.08881579 C13.1236842,4.97039474 13.4026316,4.97039474 13.6394737,5.08881579 L16.1657895,6.35197368 C16.4513158,6.49407895 16.6315789,6.78618421 16.6315789,7.10460526 L16.6315789,10.1625 L19.5342105,11.6138158 C19.8197368,11.7572368 20,12.0493421 20,12.3677632 L20,12.3677632 Z M17.0065789,12.9717105 L14.1052632,11.5190789 L14.1052632,8.35592105 C14.1052632,8.0375 13.925,7.74539474 13.6394737,7.60328947 L11.1131579,6.34013158 C10.8763158,6.22171053 10.5973684,6.22171053 10.3605263,6.34013158 L7.83421053,7.60328947 C7.54868421,7.74539474 7.36842105,8.0375 7.36842105,8.35592105 L7.36842105,11.5190789 L4.46578947,12.9717105 C4.18026316,13.1138158 4,13.4059211 4,13.7243421 L4,16.3677632 C4,16.6861842 4.18026316,16.9782895 4.46578947,17.1203947 L6.99210526,18.3835526 C7.11052632,18.4427632 7.23947368,18.4730263 7.36842105,18.4730263 C7.49736842,18.4730263 7.62631579,18.4427632 7.74473684,18.3835526 L10.7368421,16.8875 L13.7289474,18.3835526 C13.8473684,18.4427632 13.9763158,18.4730263 14.1052632,18.4730263 C14.2342105,18.4730263 14.3631579,18.4440789 14.4815789,18.3848684 L17.0092105,17.1217105 C17.2934211,16.9782895 17.4723684,16.6875 17.4723684,16.3690789 L17.4723684,13.7243421 C17.4723684,13.4059211 17.2921053,13.1138158 17.0065789,12.9717105 Z M4.95131579,13.6861842 L7.36842105,12.4677632 L9.79473684,13.6809211 L7.36842105,14.8940789 L4.95131579,13.6861842 Z M9.89473684,16.3730263 L7.36842105,17.6361842 L7.36842105,15.8361842 L9.89473684,14.5730263 L9.89473684,16.3730263 Z M8.31973684,8.31776316 L10.7368421,7.09934211 L13.1631579,8.30197368 L10.7368421,9.52565789 L8.31973684,8.31776316 Z M10.7368421,10.4677632 L13.2631579,9.20460526 L13.2631579,11.0059211 L10.7368421,12.2690789 L10.7368421,10.4677632 Z M11.6881579,13.6861842 L14.1052632,12.4677632 L16.5421053,13.6756579 L14.1052632,14.8940789 L11.6881579,13.6861842 Z M16.6315789,16.3730263 L14.1052632,17.6361842 L14.1052632,15.8361842 L16.6315789,14.5730263 L16.6315789,16.3730263 Z" id="pficon-replicator"></path>
        </g>
    </g>
</svg>