<?xml version="1.0" encoding="UTF-8"?>
<svg width="24px" height="24px" viewBox="0 0 24 24" version="1.1" xmlns="http://www.w3.org/2000/svg" xmlns:xlink="http://www.w3.org/1999/xlink">
    <title></title>
    <g id="Icons" stroke="none" stroke-width="1" fill="none" fill-rule="evenodd">
        <g id="Icons-/-1.-Size-md-/-Object-/-pficon-repository" fill="#151515">
            <path d="M20,12.9411765 L20,19.0588235 L9.64705882,19.0588235 L9.64705882,12.0661765 C9.64705882,12.0661765 9.64705882,11.5294118 10.1838235,11.5294118 L13.7205882,11.5294118 C14.2676471,11.5294118 14.5235294,12.0838235 14.5235294,12.0838235 L14.7323529,12.4705882 L19.5294118,12.4705882 C19.7897059,12.4705882 20,12.6808824 20,12.9411765 L20,12.9411765 Z M8.70588235,12.0514706 C8.70588235,11.9441176 8.72205882,11.6632353 8.87205882,11.3617647 C9.11911765,10.8676471 9.62352941,10.5735294 10.1985294,10.5735294 L13.7352941,10.5735294 C14.2147059,10.5735294 14.6720588,10.775 15.0220588,11.1411765 C15.1514706,11.2764706 15.2455882,11.4117647 15.3073529,11.5147059 L17.1764706,11.5147059 L17.1764706,9.17647059 C17.1764706,8.91617647 16.9661765,8.70588235 16.7058824,8.70588235 L11.9088235,8.70588235 L11.7,8.31911765 C11.7,8.31911765 11.4441176,7.76470588 10.8970588,7.76470588 L7.36029412,7.76470588 C6.82352941,7.76470588 6.82352941,8.30147059 6.82352941,8.30147059 L6.82352941,15.2941176 L8.70588235,15.2941176 L8.70588235,12.0514706 Z M5.88235294,11.5294118 L4,11.5294118 L4,4.53676471 C4,4.53676471 4,4 4.53676471,4 L8.07352941,4 C8.62058824,4 8.87647059,4.55441176 8.87647059,4.55441176 L9.08529412,4.94117647 L13.8823529,4.94117647 C14.1426471,4.94117647 14.3529412,5.15147059 14.3529412,5.41176471 L14.3529412,7.76470588 L12.4691176,7.76470588 C12.4073529,7.66176471 12.3132353,7.49705882 12.1838235,7.36176471 C11.8338235,6.99558824 11.3764706,6.79411765 10.8970588,6.79411765 L7.36029412,6.79411765 C6.78676471,6.79411765 6.29558824,7.08823529 6.04852941,7.58235294 C5.89852941,7.88235294 5.88235294,8.16470588 5.88235294,8.27205882 L5.88235294,11.5294118 Z" id="pficon-repository"></path>
        </g>
    </g>
</svg>