<?xml version="1.0" encoding="UTF-8"?>
<svg width="24px" height="24px" viewBox="0 0 24 24" version="1.1" xmlns="http://www.w3.org/2000/svg" xmlns:xlink="http://www.w3.org/1999/xlink">
    <title></title>
    <g id="Icons" stroke="none" stroke-width="1" fill="none" fill-rule="evenodd">
        <g id="Icons-/-1.-Size-md-/-Object-/-pficon-services" fill="#151515">
            <path d="M8.4796875,9.2578125 C7.7890625,9.2578125 7.2296875,9.81875 7.2296875,10.5078125 C7.2296875,11.196875 7.790625,11.7578125 8.4796875,11.7578125 C9.16875,11.7578125 9.7296875,11.196875 9.7296875,10.5078125 C9.7296875,9.81875 9.1703125,9.2578125 8.4796875,9.2578125 Z M8.4796875,11.0078125 C8.2046875,11.0078125 7.9796875,10.7828125 7.9796875,10.5078125 C7.9796875,10.2328125 8.2046875,10.0078125 8.4796875,10.0078125 C8.7546875,10.0078125 8.9796875,10.2328125 8.9796875,10.5078125 C8.9796875,10.7828125 8.7546875,11.0078125 8.4796875,11.0078125 Z M8,4.5 C6.8953125,4.5 6,5.396875 6,6.5015625 C6,7.60625 6.8953125,8.5 8,8.5 C9.1046875,8.5 10,7.6046875 10,6.5015625 C10,5.3984375 9.1046875,4.5 8,4.5 Z M8,7.2515625 C7.5859375,7.2515625 7.25,6.915625 7.25,6.5015625 C7.25,6.0875 7.5859375,5.75 8,5.75 C8.4140625,5.75 8.75,6.0859375 8.75,6.5 C8.75,6.9140625 8.4140625,7.2515625 8,7.2515625 Z M18.8265625,7.65625 L17.3265625,7.5328125 C17.2640625,7.3359375 17.29375,7.39375 17.203125,7.2 C17.4,6.9265625 17.925,6.3875 18.128125,6.1140625 C18.15625,6.0734375 18.1765625,6.0296875 18.1765625,5.98125 C18.1765625,5.784375 17.3453125,5.025 17.1640625,4.85625 C17.1234375,4.8203125 17.0734375,4.8 17.0171875,4.8 C16.96875,4.8 16.91875,4.8140625 16.878125,4.8484375 L15.834375,5.759375 C15.665625,5.675 15.640625,5.675 15.45625,5.6203125 L15.3609375,4.1796875 C15.3515625,4.0765625 15.253125,4 15.1546875,4 L13.8484375,4 C13.75,4 13.665625,4.0703125 13.6390625,4.16875 C13.5484375,4.5125 13.59375,5.2734375 13.5578125,5.6265625 C13.36875,5.6890625 13.3859375,5.703125 13.20625,5.7953125 L12.1234375,4.8453125 C12.0828125,4.8171875 12.0328125,4.796875 11.9765625,4.796875 C11.771875,4.796875 10.984375,5.6484375 10.8453125,5.8375 C10.809375,5.878125 10.796875,5.928125 10.796875,5.9765625 C10.796875,6.025 10.81875,6.075 10.8453125,6.115625 C11.06875,6.3828125 11.55625,6.8375 11.753125,7.11875 C11.6625,7.29375 11.6765625,7.375 11.6203125,7.5609375 L10.1625,7.63125 C10.071875,7.6453125 10.0015625,7.7515625 10.0015625,7.840625 L10,9.1421875 C10,9.240625 10.0703125,9.33125 10.16875,9.346875 L11.640625,9.4421875 C11.703125,9.6390625 11.6890625,9.575 11.7875,9.76875 C11.5828125,10.0421875 11.06875,10.628125 10.865625,10.89375 C10.8375,10.934375 10.8171875,10.978125 10.8171875,11.0265625 C10.8171875,11.23125 11.6484375,11.9828125 11.8296875,12.1515625 C11.8703125,12.1875 11.9203125,12.2078125 11.9765625,12.2078125 C12.025,12.2078125 12.0828125,12.19375 12.115625,12.159375 L13.1515625,11.1921875 C13.3203125,11.2765625 13.334375,11.26875 13.5203125,11.325 L13.6359375,12.825 C13.65,12.9234375 13.7484375,13 13.8453125,13 L15.1515625,13 C15.25,13 15.334375,12.9296875 15.3609375,12.83125 C15.4515625,12.4875 15.3859375,11.6859375 15.4203125,11.3234375 C15.609375,11.2671875 15.5921875,11.2578125 15.771875,11.165625 L16.8765625,12.153125 C16.9171875,12.18125 16.9671875,12.2015625 17.0234375,12.2015625 C17.228125,12.2015625 18.015625,11.3421875 18.1546875,11.1546875 C18.190625,11.11875 18.203125,11.0703125 18.203125,11.021875 C18.203125,10.965625 18.18125,10.9234375 18.1546875,10.8828125 C17.93125,10.615625 17.3421875,10.11875 17.1453125,9.8390625 C17.2359375,9.6640625 17.21875,9.6671875 17.275,9.48125 L18.8375,9.365625 C18.928125,9.3515625 18.9984375,9.2453125 18.9984375,9.15625 L18.9984375,7.85625 C18.9953125,7.76875 18.925,7.6765625 18.8265625,7.65625 Z M14.4734375,10.2703125 C13.50625,10.2703125 12.7140625,9.4828125 12.7140625,8.5109375 C12.7140625,7.5390625 13.503125,6.7515625 14.4734375,6.7515625 C15.44375,6.7515625 16.2328125,7.5390625 16.2328125,8.5109375 C16.2328125,9.4828125 15.4453125,10.2703125 14.4734375,10.2703125 Z M18.4953125,14 C17.70625,13.2109375 16.9953125,14 16.9953125,14 L13.9953125,17 L10.9640625,17 C10.9640625,17 10.4640625,17 10.4640625,16.5 C10.4640625,16 10.9953125,16 10.9953125,16 L13.4953125,16 C13.4953125,16 13.9953125,16 13.9953125,15.5 C13.9953125,15 13.4953125,15 13.4953125,15 L8.0109375,14.9921875 C7.69375,14.984375 7.0890625,15.046875 6.5109375,15.6875 L5,17.28125 L7.9953125,20 L8.9953125,19 L14.7875,19 C14.9203125,19 15.0484375,18.946875 15.1421875,18.853125 L15.9953125,18 L18.4953125,15.5 C18.4953125,15.5 19.284375,14.7890625 18.4953125,14 L18.4953125,14 Z" id="pficon-services"></path>
        </g>
    </g>
</svg>