<?xml version="1.0" encoding="UTF-8"?>
<svg width="24px" height="24px" viewBox="0 0 24 24" version="1.1" xmlns="http://www.w3.org/2000/svg" xmlns:xlink="http://www.w3.org/1999/xlink">
    <title></title>
    <g id="Icons" stroke="none" stroke-width="1" fill="none" fill-rule="evenodd">
        <g id="Icons-/-1.-Size-md-/-Object-/-pficon-infrastructure" fill="#151515">
            <path d="M13.25,5 C13.6642136,5 14,5.33578644 14,5.75 L14,5.75 L14,8.25 C14,8.2609375 13.9984375,8.2734375 13.9984375,8.2859375 L13.9984375,8.2859375 L15.7125,10 L17.5,10 C17.7761424,10 18,10.2238576 18,10.5 L18,10.5 L18,12.5 C18,12.7761424 17.7761424,13 17.5,13 L17.5,13 L17,13 L17,13.984375 L18.25,13.984375 C18.6642136,13.984375 19,14.3201614 19,14.734375 L19,14.734375 L19,16 L19.5,16 C19.7761423,16 20,16.2238576 20,16.5 L20,16.5 L20,18.5 C20,18.7761424 19.7761423,19 19.5,19 L19.5,19 L17.5,19 C17.2238576,19 17,18.7761424 17,18.5 L17,18.5 L17,16.5 C17,16.2238576 17.2238576,16 17.5,16 L17.5,16 L18,16 L18,14.984375 L15,14.984375 L15,16 L15.5,16 C15.7761424,16 16,16.2238576 16,16.5 L16,16.5 L16,18.5 C16,18.7761424 15.7761424,19 15.5,19 L15.5,19 L13.5,19 C13.2238576,19 13,18.7761424 13,18.5 L13,18.5 L13,16.5 C13,16.2238576 13.2238576,16 13.5,16 L13.5,16 L14,16 L14,14.734375 C14,14.3201614 14.3357864,13.984375 14.75,13.984375 L14.75,13.984375 L16,13.984375 L16,13 L15.5,13 C15.2238576,13 15,12.7761424 15,12.5 L15,12.5 L15,10.7015625 L13.296875,8.9984375 C13.28125,9 13.265625,9 13.25,9 L13.25,9 L10.7234375,9 L9,10.7234375 L9,12.5 C9,12.7761424 8.77614237,13 8.5,13 L8.5,13 L8,13 L8,13.984375 L9.25,13.984375 C9.66421356,13.984375 10,14.3201614 10,14.734375 L10,14.734375 L10,16 L10.5,16 C10.7761424,16 11,16.2238576 11,16.5 L11,16.5 L11,18.5 C11,18.7761424 10.7761424,19 10.5,19 L10.5,19 L8.5,19 C8.22385763,19 8,18.7761424 8,18.5 L8,18.5 L8,16.5 C8,16.2238576 8.22385763,16 8.5,16 L8.5,16 L9,16 L9,14.984375 L6,14.984375 L6,16 L6.5,16 C6.77614238,16 7,16.2238576 7,16.5 L7,16.5 L7,18.5 C7,18.7761424 6.77614238,19 6.5,19 L6.5,19 L4.5,19 C4.22385762,19 4,18.7761424 4,18.5 L4,18.5 L4,16.5 C4,16.2238576 4.22385762,16 4.5,16 L4.5,16 L5,16 L5,14.734375 C5,14.3201614 5.33578644,13.984375 5.75,13.984375 L5.75,13.984375 L7,13.984375 L7,13 L6.5,13 C6.22385762,13 6,12.7761424 6,12.5 L6,12.5 L6,10.5 C6,10.2238576 6.22385762,10 6.5,10 L6.5,10 L8.3078125,10 L10.0015625,8.30625 C10.0015625,8.2875 10,8.26875 10,8.25 L10,8.25 L10,5.75 C10,5.33578644 10.3357864,5 10.75,5 L10.75,5 L13.25,5 Z M13,6 L11,6 L11,8 L13,8 L13,6 Z" id="pficon-infrastructure"></path>
        </g>
    </g>
</svg>