<?xml version="1.0" encoding="UTF-8"?>
<svg width="24px" height="24px" viewBox="0 0 24 24" version="1.1" xmlns="http://www.w3.org/2000/svg" xmlns:xlink="http://www.w3.org/1999/xlink">
    <title></title>
    <g id="Icons" stroke="none" stroke-width="1" fill="none" fill-rule="evenodd">
        <g id="Icons-/-1.-Size-md-/-Object-/-pficon-service-catalog" fill="#151515">
            <path d="M12,10.4588235 C12.8838235,10.4588235 13.6,11.175 13.6,12.0588235 C13.6,12.9426471 12.8838235,13.6588235 12,13.6588235 C11.1161765,13.6588235 10.4,12.9426471 10.4,12.0588235 C10.4,11.175 11.1161765,10.4588235 12,10.4588235 L12,10.4588235 Z M11.4132353,16.0852941 C11.325,16.0852941 11.2382353,16.0161765 11.225,15.9279412 L11.1220588,14.5852941 C10.9558824,14.5352941 10.9426471,14.5411765 10.7926471,14.4661765 L9.86323529,15.3323529 C9.83235294,15.3632353 9.78235294,15.3764706 9.73823529,15.3764706 C9.68823529,15.3764706 9.64411765,15.3573529 9.60588235,15.3264706 C9.44264706,15.1764706 8.69852941,14.5014706 8.69852941,14.3191176 C8.69852941,14.275 8.71764706,14.2382353 8.74264706,14.2 C8.925,13.9617647 9.38529412,13.4382353 9.56764706,13.1926471 C9.47941176,13.0205882 9.49264706,13.0764706 9.43529412,12.9014706 L8.11764706,12.8161765 C8.02941176,12.8029412 7.96764706,12.7220588 7.96764706,12.6338235 L7.96764706,11.4735294 C7.96764706,11.3926471 8.03088235,11.2985294 8.11176471,11.2852941 L9.41617647,11.2220588 C9.46617647,11.0558824 9.45441176,10.9838235 9.53529412,10.8264706 C9.36029412,10.575 8.92352941,10.1676471 8.72205882,9.92941176 C8.69705882,9.89117647 8.67794118,9.84852941 8.67794118,9.80441176 C8.67794118,9.76029412 8.69117647,9.71617647 8.72205882,9.67941176 C8.84705882,9.51029412 9.55294118,8.74705882 9.73529412,8.74705882 C9.78529412,8.74705882 9.82941176,8.76617647 9.86764706,8.79117647 L10.8367647,9.64117647 C10.9970588,9.56029412 10.9808824,9.54705882 11.15,9.49117647 C11.1808824,9.175 11.1411765,8.49411765 11.2220588,8.18676471 C11.2470588,8.09852941 11.3220588,8.03676471 11.4102941,8.03676471 L11.5279412,8.03676471 L11.5279412,6.88235294 C9.89117647,5.82794118 7.13088235,5 5.88235294,5 L5.88235294,16.2941176 C6.78382353,16.0470588 9.17647059,15.7132353 11.5294118,17.2352941 L11.5294118,16.0838235 L11.4132353,16.0852941 Z M19.0588235,5.94117647 L19.0588235,18.1764706 C19.0588235,18.1764706 16.6911765,15.2455882 12.4705882,18.1382353 L12.4705882,19.1176471 C12.4705882,19.1176471 16.6926471,16.3632353 18.4955882,19.0867647 C18.4955882,19.0867647 20,19.1176471 20,18.1764706 L20,6.92352941 C20,6.92352941 20,5.94117647 19.0588235,5.94117647 L19.0588235,5.94117647 Z M12.5882353,8.03235294 C12.6764706,8.03235294 12.7514706,8.09411765 12.7764706,8.18235294 C12.8573529,8.48970588 12.8176471,9.17058824 12.8485294,9.48676471 C13.0176471,9.54264706 13.0014706,9.55588235 13.1617647,9.63676471 L14.1308824,8.78970588 C14.1691176,8.76470588 14.2132353,8.74558824 14.2632353,8.74558824 C14.4455882,8.74558824 15.1514706,9.50882353 15.2764706,9.67794118 C15.3073529,9.71470588 15.3205882,9.75882353 15.3205882,9.80294118 C15.3205882,9.84705882 15.3014706,9.88970588 15.2764706,9.92794118 C15.075,10.1661765 14.6382353,10.5735294 14.4632353,10.825 C14.5441176,10.9823529 14.5323529,11.0544118 14.5823529,11.2205882 L15.8867647,11.2838235 C15.9676471,11.2970588 16.0308824,11.3911765 16.0308824,11.4720588 L16.0308824,12.6323529 C16.0308824,12.7205882 15.9691176,12.8014706 15.8808824,12.8147059 L14.5632353,12.9 C14.5058824,13.075 14.5191176,13.0191176 14.4308824,13.1911765 C14.6132353,13.4367647 15.0735294,13.9602941 15.2558824,14.1985294 C15.2808824,14.2367647 15.3,14.2735294 15.3,14.3176471 C15.3,14.5 14.5558824,15.175 14.3926471,15.325 C14.3544118,15.3558824 14.3102941,15.375 14.2602941,15.375 C14.2161765,15.375 14.1661765,15.3617647 14.1352941,15.3308824 L13.2073529,14.4647059 C13.0573529,14.5397059 13.0441176,14.5338235 12.8779412,14.5838235 L12.775,15.9264706 C12.7617647,16.0147059 12.675,16.0838235 12.5867647,16.0838235 L12.4691176,16.0838235 L12.4691176,17.2352941 C14.8514706,15.7132353 17.2161765,16.0455882 18.1161765,16.2941176 L18.1161765,5 C16.8602941,5 14.1058824,5.83235294 12.4691176,6.88235294 L12.4691176,8.03382353 L12.5882353,8.03235294 Z M4.94117647,18.1764706 L4.94117647,5.94117647 C4,5.94117647 4,6.92352941 4,6.92352941 L4,18.1764706 C4,19.1176471 5.50735294,19.0867647 5.50735294,19.0867647 C7.35147059,16.3794118 11.5294118,19.1176471 11.5294118,19.1176471 L11.5294118,18.1382353 C7.32352941,15.2455882 4.94117647,18.175 4.94117647,18.1764706 L4.94117647,18.1764706 Z M12.0505147,12.0904044 C12.0305147,12.1204044 12.0305147,12.1204044 12.0505147,12.0904044 L12.0505147,12.0904044 Z M12.0347794,12.1314706 L12.0347794,12.0714706 C12.0547794,12.0914706 12.0547794,12.1114706 12.0347794,12.1314706 L12.0347794,12.1314706 Z" id="pficon-service-catalog"></path>
        </g>
    </g>
</svg>