<?xml version="1.0" encoding="UTF-8"?>
<svg width="24px" height="24px" viewBox="0 0 24 24" version="1.1" xmlns="http://www.w3.org/2000/svg" xmlns:xlink="http://www.w3.org/1999/xlink">
    <title></title>
    <g id="Icons" stroke="none" stroke-width="1" fill="none" fill-rule="evenodd">
        <g id="Icons/2.-Size-sm/Status/arrow-circle-up" fill="#151515">
            <path d="M11.8124861,17.6249723 C15.023416,17.6249723 17.6249723,15.023416 17.6249723,11.8124861 C17.6249723,8.6015563 15.023416,6 11.8124861,6 C8.6015563,6 6,8.6015563 6,11.8124861 C6,15.023416 8.6015563,17.6249723 11.8124861,17.6249723 Z M11.9999857,15.5624772 L11.6249866,15.5624772 C11.3132732,15.5624772 11.0624879,15.311692 11.0624879,14.9999785 L11.0624879,10.7203104 L9.36560782,12.4898374 C9.14764417,12.7171623 8.78436378,12.7218544 8.55937348,12.4991987 L8.30389618,12.2413868 C8.08359794,12.0234231 8.08359794,11.6671694 8.30389618,11.4468712 L11.4163842,8.33671776 C11.6343707,8.11639663 11.9906016,8.11639663 12.2109227,8.33671776 L15.3187186,11.4468712 C15.5390398,11.6648348 15.5390398,12.0210885 15.3187186,12.2413868 L15.0632642,12.4991987 C14.8406085,12.7218544 14.4773281,12.7171623 14.2593645,12.4898374 L12.5624844,10.7203104 L12.5624844,14.9999785 C12.5624844,15.311692 12.3116991,15.5624772 11.9999857,15.5624772 Z" id="arrow-circle-up"></path>
        </g>
    </g>
</svg>