<?xml version="1.0" encoding="UTF-8"?><svg version="1.1" width="24px" height="24px" viewBox="0 0 24.0 24.0" xmlns="http://www.w3.org/2000/svg" xmlns:xlink="http://www.w3.org/1999/xlink"><defs><clipPath id="i0"><path d="M5.81248614,0 C9.02341599,0 11.6249723,2.6015563 11.6249723,5.81248614 C11.6249723,9.02341599 9.02341599,11.6249723 5.81248614,11.6249723 C2.6015563,11.6249723 0,9.02341599 0,5.81248614 C0,2.6015563 2.6015563,0 5.81248614,0 Z M6.21092269,2.33671776 C5.99060156,2.11639663 5.63437072,2.11639663 5.41638418,2.33671776 L2.30389618,5.44687117 C2.08359794,5.66716941 2.08359794,6.02342314 2.30389618,6.24138679 L2.55937348,6.49919868 C2.78436378,6.7218544 3.14764417,6.71716233 3.36560782,6.48983743 L5.06248793,4.7203104 L5.06248793,8.99997854 C5.06248793,9.31169197 5.31327316,9.5624772 5.62498659,9.5624772 L5.99998569,9.5624772 C6.31169912,9.5624772 6.56248435,9.31169197 6.56248435,8.99997854 L6.56248435,4.7203104 L8.25936446,6.48983743 C8.47732812,6.71716233 8.8406085,6.7218544 9.06326422,6.49919868 L9.31871863,6.24138679 C9.53903976,6.02108855 9.53903976,5.66483482 9.31871863,5.44687117 Z"></path></clipPath></defs><g transform="translate(6.0 6.0)"><g clip-path="url(#i0)"><polygon points="0,0 11.6249723,0 11.6249723,11.6249723 0,11.6249723 0,0" stroke="none" fill="#151515"></polygon></g></g></svg>