<?xml version="1.0" encoding="UTF-8"?><svg version="1.1" width="24px" height="24px" viewBox="0 0 24.0 24.0" xmlns="http://www.w3.org/2000/svg" xmlns:xlink="http://www.w3.org/1999/xlink"><defs><clipPath id="i0"><path d="M5.81248614,0 C9.02341599,0 11.6249723,2.6015563 11.6249723,5.81248614 C11.6249723,9.02341599 9.02341599,11.6249723 5.81248614,11.6249723 C2.6015563,11.6249723 0,9.02341599 0,5.81248614 C0,2.6015563 2.6015563,0 5.81248614,0 Z M5.99998569,2.06249508 L5.62498659,2.06249508 C5.31327316,2.06249508 5.06248793,2.31328031 5.06248793,2.62499374 L5.06248793,6.90466188 L3.36560782,5.13513485 C3.14764417,4.90780995 2.78436378,4.90311789 2.56170806,5.12577361 L2.30625366,5.38358549 C2.08593253,5.60388373 2.08593253,5.96013746 2.30625366,6.17810111 L5.41404959,9.28825453 C5.63437072,9.50857566 5.99060156,9.50857566 6.2085881,9.28825453 L9.31871863,6.17810111 C9.53903976,5.95780287 9.53903976,5.60154914 9.31871863,5.38358549 L9.06326422,5.12577361 C8.8406085,4.90311789 8.47732812,4.90780995 8.25936446,5.13513485 L6.56248435,6.90466188 L6.56248435,2.62499374 C6.56248435,2.31328031 6.31169912,2.06249508 5.99998569,2.06249508 Z"></path></clipPath></defs><g transform="translate(6.0 6.0)"><g clip-path="url(#i0)"><polygon points="0,0 11.6249723,0 11.6249723,11.6249723 0,11.6249723 0,0" stroke="none" fill="#151515"></polygon></g></g></svg>