<?xml version="1.0" encoding="UTF-8"?><svg version="1.1" width="24px" height="24px" viewBox="0 0 24.0 24.0" xmlns="http://www.w3.org/2000/svg" xmlns:xlink="http://www.w3.org/1999/xlink"><defs><clipPath id="i0"><path d="M6.75,10.5 L6.75,10.5126563 C6.74695313,10.9289063 6.59851562,11.2801562 6.3046875,11.5664062 C6.0078125,11.8554688 5.65625,12 5.25,12 C4.84375,12 4.4921875,11.8554688 4.1953125,11.5664062 C3.8984375,11.2773437 3.75,10.921875 3.75,10.5 L6.75,10.5 Z M5.25,0 C5.453125,0 5.62890625,0.07421875 5.77734375,0.22265625 C5.92578125,0.37109375 6,0.546875 6,0.75 L6,1.2421875 L6.02613281,1.24746094 C6.88933594,1.42253906 7.599375,1.84265625 8.15625,2.5078125 C8.71875,3.1796875 9,3.96875 9,4.875 C9,5.859375 9.140625,6.6640625 9.421875,7.2890625 C9.59375,7.6484375 9.859375,8.015625 10.21875,8.390625 C10.2395353,8.42377894 10.2630546,8.45513804 10.2890625,8.484375 C10.4296875,8.640625 10.5,8.81640625 10.5,9.01171875 C10.5,9.20703125 10.4296875,9.37890625 10.2890625,9.52734375 C10.1484375,9.67578125 9.96875,9.75 9.75,9.75 L0.741796875,9.75 C0.526796875,9.748125 0.34984375,9.67390625 0.2109375,9.52734375 C0.0703125,9.37890625 0,9.20703125 0,9.01171875 C0,8.81640625 0.0703125,8.640625 0.2109375,8.484375 L0.28125,8.390625 L0.293671875,8.37773437 C0.646796875,8.0071875 0.90828125,7.64429687 1.078125,7.2890625 C1.359375,6.6640625 1.5,5.859375 1.5,4.875 C1.5,3.96875 1.78125,3.1796875 2.34375,2.5078125 C2.90625,1.8359375 3.625,1.4140625 4.5,1.2421875 L4.5,0.741914063 C4.50195313,0.542226563 4.57617188,0.369140625 4.72265625,0.22265625 C4.87109375,0.07421875 5.046875,0 5.25,0 Z M5.25,7.5 C4.83578644,7.5 4.5,7.83578644 4.5,8.25 C4.5,8.66421356 4.83578644,9 5.25,9 C5.66421356,9 6,8.66421356 6,8.25 C6,7.83578644 5.66421356,7.5 5.25,7.5 Z M5.56640625,2.25 L4.93359375,2.25 C4.69412653,2.25 4.5,2.44412653 4.5,2.68359375 L4.5,6.31640625 C4.5,6.55587347 4.69412653,6.75 4.93359375,6.75 L5.56640625,6.75 C5.80587347,6.75 6,6.55587347 6,6.31640625 L6,2.68359375 C6,2.44412653 5.80587347,2.25 5.56640625,2.25 Z"></path></clipPath></defs><g transform="translate(7.0 6.0)"><g clip-path="url(#i0)"><polygon points="0,0 10.5,0 10.5,12 0,12 0,0" stroke="none" fill="#FFFFFF"></polygon></g></g></svg>