<?xml version="1.0" encoding="UTF-8"?><svg version="1.1" width="24px" height="24px" viewBox="0 0 24.0 24.0" xmlns="http://www.w3.org/2000/svg" xmlns:xlink="http://www.w3.org/1999/xlink"><defs><clipPath id="i0"><path d="M7.49998212,0 C8.11146137,0 8.64935529,0.297179467 8.99153282,0.749998212 L12.3749705,0.749998212 C12.5821538,0.749998212 12.7499696,0.917813974 12.7499696,1.12499732 L12.7499696,1.87499553 C12.7499696,2.08217887 12.5821538,2.24999464 12.3749705,2.24999464 L9.33723512,2.24999464 C9.21466919,2.85396658 8.80098915,3.3506161 8.24998033,3.59178831 L8.24998033,10.499975 L12.3749705,10.499975 C12.5821538,10.499975 12.7499696,10.6677907 12.7499696,10.8749741 L12.7499696,11.6249723 C12.7499696,11.8321556 12.5821538,11.9999714 12.3749705,11.9999714 L2.62499374,11.9999714 C2.4178104,11.9999714 2.24999464,11.8321556 2.24999464,11.6249723 L2.24999464,10.8749741 C2.24999464,10.6677907 2.4178104,10.499975 2.62499374,10.499975 L6.74998391,10.499975 L6.74998391,3.59178831 C6.19874621,3.3506161 5.78529504,2.8537377 5.66272911,2.24999464 L2.62499374,2.24999464 C2.4178104,2.24999464 2.24999464,2.08217887 2.24999464,1.87499553 L2.24999464,1.12499732 C2.24999464,0.917813974 2.4178104,0.749998212 2.62499374,0.749998212 L6.00843141,0.749998212 C6.35060894,0.297179467 6.88850286,0 7.49998212,0 Z M1.99357893,3.62085624 C2.4079685,2.79209997 3.59249784,2.79374792 4.006155,3.62085624 L4.40766479,4.42238767 C4.82596024,5.25588502 5.13437057,5.86564473 5.36175449,6.31771643 L5.55992041,6.71309539 C5.91264061,7.42062617 5.98254505,7.5905395 5.99625439,7.74150769 L5.99880611,7.78362989 C5.9990486,7.79070785 5.99921495,7.79784956 5.99932809,7.80510746 L5.99952793,7.87498122 L5.99360428,7.99825468 C5.89202873,8.97625985 4.59052372,9.74997675 3,9.74997675 C1.34318985,9.74997675 0,8.91044018 0,7.87498122 L0.000759012271,7.78879475 C0.00209843153,7.73562697 0.00759052904,7.68679039 0.0284883408,7.61679363 L0.0472260998,7.55993022 C0.105834067,7.39559009 0.237317928,7.12111786 0.531701969,6.53258252 L0.64990776,6.29676177 C0.899058819,5.80052821 1.24367534,5.11816129 1.72029423,4.16689435 Z M10.9935575,3.62085624 C11.407947,2.79209997 12.5924764,2.79374792 13.0061335,3.62085624 L13.4076433,4.42238767 C13.8259388,5.25588502 14.1343491,5.86564473 14.361733,6.31771643 L14.559899,6.71309539 C14.9126192,7.42062617 14.9825236,7.5905395 14.9962329,7.74150769 L14.9987847,7.78362989 C14.9990271,7.79070785 14.9991935,7.79784956 14.9993066,7.80510746 L14.9999642,7.87498122 C14.9999642,8.91044018 13.6567744,9.74997675 11.9999785,9.74997675 C10.3431684,9.74997675 8.99997854,8.91044018 8.99997854,7.87498122 L9.00073755,7.78879475 C9.00207697,7.73562697 9.00756907,7.68679039 9.02846688,7.61679363 L9.04720464,7.55993022 C9.10581261,7.39559009 9.23729647,7.12111786 9.53168051,6.53258252 L9.6498863,6.29676177 C9.89903736,5.80052821 10.2436539,5.11816129 10.7202728,4.16689435 Z M2.99999285,4.12499017 L1.31249687,7.49998212 L4.68748882,7.49998212 L2.99999285,4.12499017 Z M11.9999714,4.12499017 L10.3124754,7.49998212 L13.6874674,7.49998212 L11.9999714,4.12499017 Z"></path></clipPath></defs><g transform="translate(4.999999999999999 5.999999999999999)"><g clip-path="url(#i0)"><polygon points="0,0 14.9999642,0 14.9999642,11.9999714 0,11.9999714 0,0" stroke="none" fill="#151515"></polygon></g></g></svg>