<?xml version="1.0" encoding="UTF-8"?><svg version="1.1" width="24px" height="24px" viewBox="0 0 24.0 24.0" xmlns="http://www.w3.org/2000/svg" xmlns:xlink="http://www.w3.org/1999/xlink"><defs><clipPath id="i0"><path d="M5.81248614,0 C9.02263779,0 11.6249723,2.60235738 11.6249723,5.81248614 C11.6249723,9.0226149 9.0226149,11.6249723 5.81248614,11.6249723 C2.60235738,11.6249723 0,9.02263779 0,5.81248614 C0,2.60233449 2.60235738,0 5.81248614,0 Z M2.27846747,3.33914914 C1.12245674,4.98343233 1.22916119,7.32795494 2.76307782,8.86189446 C4.29617048,10.3949642 6.64046421,10.503248 8.28584603,9.34648193 Z M8.86189446,2.76307782 C7.3288018,1.23003094 4.98453096,1.12172432 3.33912626,2.27849036 L9.34650482,8.28582314 C10.5025155,6.64153995 10.3958111,4.29701734 8.86189446,2.76307782 Z"></path></clipPath></defs><g transform="translate(6.0 6.0)"><g clip-path="url(#i0)"><polygon points="0,0 11.6249723,0 11.6249723,11.6249723 0,11.6249723 0,0" stroke="none" fill="#151515"></polygon></g></g></svg>