<?xml version="1.0" encoding="UTF-8"?><svg version="1.1" width="24px" height="24px" viewBox="0 0 24.0 24.0" xmlns="http://www.w3.org/2000/svg" xmlns:xlink="http://www.w3.org/1999/xlink"><defs><clipPath id="i0"><path d="M6.74929045,10.499975 C6.74929045,11.3284795 6.07782141,11.999975 5.25000356,11.999975 C4.42218571,11.999975 3.75071667,11.3284795 3.75071667,10.499975 Z M5.25000356,0 C5.66391249,0 5.99954401,0.335860405 5.99954401,0.749998212 L5.99954401,1.23843089 C7.72125774,1.59608079 8.99811779,3.05389439 8.99811779,4.87498838 C8.99811779,7.27263433 9.84539055,8.0045967 10.2981864,8.49115255 C10.4388111,8.64209976 10.5011583,8.82303042 10.5,8.99997854 C10.4976565,9.38436178 10.195762,9.74997675 9.74765824,9.74997675 L0.752348879,9.74997675 C0.304245089,9.74997675 0.00260243688,9.38436178 2.22044605e-14,8.99997854 C-0.00115121628,8.82303042 0.0611960472,8.64232864 0.201820712,8.49115255 C0.654616568,8.0045967 1.50188933,7.27263433 1.50188933,4.87498838 C1.50188933,3.05389439 2.77874938,1.59608079 4.50046311,1.23843089 L4.50046311,0.749998212 C4.50046311,0.335860405 4.83609464,0 5.25000356,0 Z"></path></clipPath></defs><g transform="translate(7.0 5.999999999999999)"><g clip-path="url(#i0)"><polygon points="-1.56425204e-05,0 10.5000158,0 10.5000158,11.999975 -1.56425204e-05,11.999975 -1.56425204e-05,0" stroke="none" fill="#151515"></polygon></g></g></svg>