<?xml version="1.0" encoding="UTF-8"?>
<svg width="24px" height="24px" viewBox="0 0 24 24" version="1.1" xmlns="http://www.w3.org/2000/svg" xmlns:xlink="http://www.w3.org/1999/xlink">
    <title></title>
    <g id="Icons" stroke="none" stroke-width="1" fill="none" fill-rule="evenodd">
        <g id="Icons/2.-Size-sm/Status/bug" fill="#151515">
            <path d="M14.6484099,8.62499374 C14.6484099,7.17523676 13.4731732,6 12.0234162,6 C10.5736592,6 9.39842245,7.17523676 9.39842245,8.62499374 L14.6484099,8.62499374 Z M8.03033031,17.780314 L9.31320994,16.4974344 C9.89328669,16.9678999 10.6323901,17.2499775 11.4374801,17.2499775 L11.4374801,11.5312368 C11.4374801,11.375918 11.5634106,11.2499875 11.7187294,11.2499875 L12.2812281,11.2499875 C12.4365469,11.2499875 12.5624774,11.375918 12.5624774,11.5312368 L12.5624774,17.2499775 C13.3675673,17.2499775 14.1066708,16.9678999 14.6867475,16.4974344 L15.9696272,17.780314 C16.2625266,18.0731905 16.7373866,18.0732134 17.0303089,17.780314 C17.3231854,17.4874146 17.3231854,17.0125546 17.0303089,16.7196552 L15.6187293,15.3080528 C15.8230516,14.873041 15.9374694,14.3874235 15.9374694,13.8749812 L15.9374694,13.4999821 L17.2343794,13.4999821 C17.643047,13.4999821 17.9884746,13.1795941 17.9996898,12.7710868 C18.011317,12.3472444 17.6711765,11.9999857 17.2499662,11.9999857 L15.9374694,11.9999857 L15.9374694,10.6231503 L17.030286,9.53033369 C17.3231625,9.2374343 17.3231625,8.76257429 17.030286,8.4696749 C16.7373637,8.17677551 16.2625266,8.17677551 15.9696043,8.4696749 L14.6892881,9.74999106 L9.31064647,9.74999106 L8.03033031,8.46965201 C7.73740804,8.17675262 7.26257091,8.17675262 6.96964864,8.46965201 C6.67677214,8.7625514 6.67677214,9.23741141 6.96964864,9.5303108 L8.06248813,10.6231503 L8.06248813,11.9999857 L6.74999126,11.9999857 C6.32878103,11.9999857 5.98864054,12.3472444 6.0002906,12.7710868 C6.01150578,13.1795941 6.35695631,13.4999821 6.76560097,13.4999821 L8.06248813,13.4999821 L8.06248813,13.8749812 C8.06248813,14.3874235 8.17690589,14.873041 8.38122822,15.3080528 L6.96964864,16.7196552 C6.67677214,17.0125546 6.67677214,17.4874146 6.96964864,17.780314 C7.26254802,18.0731905 7.73740804,18.0732134 8.03033031,17.780314 Z" id="bug"></path>
        </g>
    </g>
</svg>