<?xml version="1.0" encoding="UTF-8"?><svg version="1.1" width="24px" height="24px" viewBox="0 0 24.0 24.0" xmlns="http://www.w3.org/2000/svg" xmlns:xlink="http://www.w3.org/1999/xlink"><defs><clipPath id="i0"><path d="M0.969648638,2.46965201 C1.26257091,2.17675262 1.73740804,2.17675262 2.03033031,2.46965201 L3.31064647,3.74999106 L8.68928813,3.74999106 L9.96960429,2.4696749 C10.2625266,2.17677551 10.7373637,2.17677551 11.030286,2.4696749 C11.3231625,2.76257429 11.3231625,3.2374343 11.030286,3.53033369 L9.93746936,4.62315029 L9.93746936,5.99998569 L11.2499662,5.99998569 C11.6711765,5.99998569 12.011317,6.34724439 11.9996898,6.77108676 C11.9884746,7.17959409 11.643047,7.49998212 11.2343794,7.49998212 L9.93746936,7.49998212 L9.93746936,7.87498122 C9.93746936,8.38742355 9.8230516,8.87304098 9.61872927,9.30805276 L11.0303089,10.7196552 C11.3231854,11.0125546 11.3231854,11.4874146 11.0303089,11.780314 C10.7373866,12.0732134 10.2625266,12.0731905 9.96962718,11.780314 L8.68674755,10.4974344 C8.10667081,10.9678999 7.36756734,11.2499775 6.56247741,11.2499775 L6.56247741,5.53123681 C6.56247741,5.37591797 6.43654692,5.24998748 6.28122808,5.24998748 L5.71872942,5.24998748 C5.56341057,5.24998748 5.43748009,5.37591797 5.43748009,5.53123681 L5.43748009,11.2499775 C4.63239015,11.2499775 3.89328669,10.9678999 3.31320994,10.4974344 L2.03033031,11.780314 C1.73740804,12.0732134 1.26254802,12.0731905 0.969648638,11.780314 C0.676772139,11.4874146 0.676772139,11.0125546 0.969648638,10.7196552 L2.38122822,9.30805276 C2.17690589,8.87304098 2.06248813,8.38742355 2.06248813,7.87498122 L2.06248813,7.49998212 L0.765600968,7.49998212 C0.356956312,7.49998212 0.0115057807,7.17959409 0.000290597437,6.77108676 C-0.0113594602,6.34724439 0.328781025,5.99998569 0.749991264,5.99998569 L2.06248813,5.99998569 L2.06248813,4.62315029 L0.969648638,3.5303108 C0.676772139,3.23741141 0.676772139,2.7625514 0.969648638,2.46965201 Z M6.02341619,0 C7.47317317,0 8.64840993,1.17523676 8.64840993,2.62499374 L3.39842245,2.62499374 C3.39842245,1.17523676 4.57365921,0 6.02341619,0 Z"></path></clipPath></defs><g transform="translate(5.999999999999999 6.0)"><g clip-path="url(#i0)"><polygon points="3.61932706e-14,0 11.9999793,0 11.9999793,11.99998 3.61932706e-14,11.99998 3.61932706e-14,0" stroke="none" fill="#151515"></polygon></g></g></svg>