<?xml version="1.0" encoding="UTF-8"?><svg version="1.1" width="24px" height="24px" viewBox="0 0 24.0 24.0" xmlns="http://www.w3.org/2000/svg" xmlns:xlink="http://www.w3.org/1999/xlink"><defs><clipPath id="i0"><path d="M5.81248614,0 C9.0189528,0 11.6190443,2.59640647 11.6249824,5.80149984 C11.6309003,9.00398396 9.01920457,11.6227064 5.81669756,11.6249509 C4.43354503,11.6259336 3.16304788,11.1437723 2.1646448,10.3379728 C1.90502475,10.1284549 1.88561562,9.73935666 2.12152357,9.50344872 L2.3856068,9.23936548 C2.58736566,9.03760663 2.90949319,9.01551958 3.13304154,9.19287969 C3.86862023,9.77657276 4.7995491,10.1249759 5.81248614,10.1249759 C8.19619323,10.1249759 10.1249759,8.19582702 10.1249759,5.81248614 C10.1249759,3.42877906 8.19582702,1.5 5.81248614,1.5 C4.66840012,1.5 3.62930195,1.94457544 2.85776601,2.67026646 L4.04730786,3.8598083 C4.28355912,4.09605957 4.1162469,4.49998927 3.78217177,4.49998927 L0.374999106,4.49998927 C0.167884426,4.49998927 0,4.33210484 0,4.12499017 L0,0.717817502 C0,0.383742371 0.403929701,0.216430148 0.640180969,0.452658528 L1.79731322,1.60979078 C2.8408288,0.612554997 4.25510918,0 5.81248614,0 Z M5.99998569,2.81249329 C6.31064627,2.81249329 6.56248793,3.06433138 6.56248793,3.37499195 L6.56248793,5.8206572 L7.5164158,6.56262168 C7.76163921,6.75332557 7.8058133,7.10674117 7.61508652,7.35196459 L7.38485483,7.64799965 C7.19412805,7.89322306 6.84073534,7.93737426 6.59551192,7.74667037 L5.06248793,6.55431329 L5.06248793,3.37499195 C5.06248793,3.06433138 5.31432601,2.81249329 5.62498659,2.81249329 Z"></path></clipPath></defs><g transform="translate(5.999999999999999 6.0)"><g clip-path="url(#i0)"><polygon points="0,0 11.6249924,0 11.6249924,11.6249524 0,11.6249524 0,0" stroke="none" fill="#151515"></polygon></g></g></svg>