<?xml version="1.0" encoding="UTF-8"?><svg version="1.1" width="24px" height="24px" viewBox="0 0 24.0 24.0" xmlns="http://www.w3.org/2000/svg" xmlns:xlink="http://www.w3.org/1999/xlink"><defs><clipPath id="i0"><path d="M5.24998748,0 C7.21404072,0 8.81247899,1.59843827 8.81247899,3.56249151 L8.81247899,5.24998748 L9.37497765,5.24998748 C9.99606992,5.24998748 10.499975,5.75389253 10.499975,6.3749848 L10.499975,10.8749741 C10.499975,11.4960663 9.99606992,11.9999714 9.37497765,11.9999714 L1.12499732,11.9999714 C0.503905049,11.9999714 0,11.4960663 0,10.8749741 L0,6.3749848 C0,5.75389253 0.503905049,5.24998748 1.12499732,5.24998748 L1.68749598,5.24998748 L1.68749598,3.56249151 C1.68749598,1.59843827 3.28593424,0 5.24998748,0 Z M5.24998748,1.87499553 C4.31951637,1.87499553 3.56249151,2.6320204 3.56249151,3.56249151 L3.56249151,5.24998748 L6.93748346,5.24998748 L6.93748346,3.56249151 C6.93748346,2.6320204 6.18045859,1.87499553 5.24998748,1.87499553 Z"></path></clipPath></defs><g transform="translate(7.000000000000002 5.999999999999999)"><g clip-path="url(#i0)"><polygon points="0,0 10.499975,0 10.499975,11.9999714 0,11.9999714 0,0" stroke="none" fill="#151515"></polygon></g></g></svg>