<?xml version="1.0" encoding="UTF-8"?><svg version="1.1" width="24px" height="24px" viewBox="0 0 24.0 24.0" xmlns="http://www.w3.org/2000/svg" xmlns:xlink="http://www.w3.org/1999/xlink"><defs><clipPath id="i0"><path d="M9.92575759,0 C11.8945029,-0.00700361092 13.4999678,1.59376924 13.4999678,3.56251455 L13.4999678,5.43751008 C13.4999678,5.74922351 13.2491826,6 12.9374692,6 L12.1874709,6 C11.8757575,6 11.6249723,5.74922351 11.6249723,5.43751008 L11.6249723,3.56251455 C11.6249723,2.62735138 10.8585633,1.86563444 9.92106552,1.87501857 C8.99295189,1.88440271 8.24998033,2.65548089 8.24998033,3.58361741 L8.24998033,5.25001053 L9.37497765,5.25001053 C9.99606992,5.25001053 10.499975,5.75391558 10.499975,6.37500785 L10.499975,10.8749971 C10.499975,11.4960894 9.99606992,12 9.37497765,12 L1.12499732,12 C0.503905049,12 0,11.4960894 0,10.8749971 L0,6.37500785 C0,5.75391558 0.503905049,5.25001053 1.12499732,5.25001053 L6.3749848,5.25001053 L6.3749848,3.59767072 C6.3749848,1.62892541 7.95701228,0.0070497003 9.92575759,0 Z"></path></clipPath></defs><g transform="translate(5.000000000000001 6.000000000000001)"><g clip-path="url(#i0)"><polygon points="0,-2.28940695e-05 13.4999678,-2.28940695e-05 13.4999678,12 0,12 0,-2.28940695e-05" stroke="none" fill="#151515"></polygon></g></g></svg>