<?xml version="1.0" encoding="UTF-8"?><svg version="1.1" width="24px" height="24px" viewBox="0 0 24.0 24.0" xmlns="http://www.w3.org/2000/svg" xmlns:xlink="http://www.w3.org/1999/xlink"><defs><clipPath id="i0"><path d="M6,0 C9.3140625,0 12,2.6859375 12,6 C12,9.3140625 9.3140625,12 6,12 C2.6859375,12 0,9.3140625 0,6 C0,2.6859375 2.6859375,0 6,0 Z M6.00117188,1.5 C5.62734375,1.5 5.2734375,1.56914063 4.94648438,1.70625 C4.621875,1.8421875 4.321875,2.04726562 4.05703125,2.31328125 C3.51914063,2.85234375 3.24726563,3.50625 3.24726563,4.25625 L3.24726563,4.51875 C3.06445312,4.54921875 2.82773438,4.62890625 2.61679688,4.83984375 L2.60742188,4.84921875 C2.37304688,5.090625 2.24882813,5.39414063 2.24882813,5.72695312 L2.24882813,8.475 C2.24882813,8.81601562 2.37539063,9.121875 2.615625,9.36210937 C2.94257813,9.68320312 3.2765625,9.75 3.5015625,9.75 L8.49609375,9.75 C8.7234375,9.75 9.0609375,9.68320312 9.38085938,9.36328125 L9.39023438,9.35390625 C9.62578125,9.11132812 9.75,8.8078125 9.75,8.47617187 L9.75117188,5.72695312 C9.75117188,5.38242188 9.6234375,5.07421875 9.38203125,4.83632812 C9.20976563,4.66757813 8.99882812,4.56210938 8.75273438,4.51992187 L8.75273438,4.25625 C8.75273438,3.50390625 8.48085938,2.85 7.94648438,2.31328125 C7.68164063,2.04726562 7.38164063,1.8421875 7.05585938,1.70625 C6.72890625,1.56914063 6.37382813,1.5 6.00117188,1.5 Z M6,2.25 C6.5484375,2.25 7.02070313,2.446875 7.41445313,2.84179688 C7.80820312,3.23789063 8.0015625,3.70664063 8.0015625,4.25625 L8.0015625,5.25 L8.49960937,5.25 C8.6390625,5.25 8.75625,5.27460938 8.8546875,5.371875 C8.953125,5.46914062 9,5.5875 9.00117188,5.728125 L9.00117188,8.47734375 C9.00117188,8.61679687 8.94960938,8.73398438 8.85234375,8.83359375 C8.75507813,8.93085938 8.63671875,9.00117188 8.49726563,9.00117188 L3.5015625,9.00117188 C3.36210937,9.00117188 3.24492187,8.93085938 3.14648438,8.83359375 C3.05039063,8.73632812 3,8.61796875 3,8.47734375 L3,5.72695312 C3,5.5875 3.04921875,5.4703125 3.14648438,5.37070313 C3.24375,5.2734375 3.36210937,5.25 3.5015625,5.25 L3.99726563,5.25 L3.99726563,4.25625 C3.99726563,3.70429688 4.19414062,3.23671875 4.58789062,2.84179688 C4.98164063,2.446875 5.4515625,2.25 6,2.25 Z M6,3.27539062 C5.7234375,3.27539062 5.48789063,3.37382812 5.2921875,3.56953125 C5.09882812,3.7640625 5.00039062,4.00078125 5.00039062,4.27617187 L5.00039062,5.25 L7.00078125,5.25 L7.00078125,4.275 C7.00078125,3.9984375 6.90234375,3.76289063 6.70664062,3.5671875 C6.51445312,3.37265625 6.2765625,3.27539062 6,3.27539062 Z"></path></clipPath></defs><g transform="translate(6.0 6.0)"><g clip-path="url(#i0)"><polygon points="0,0 12,0 12,12 0,12 0,0" stroke="none" fill="#151515"></polygon></g></g></svg>