<?xml version="1.0" encoding="UTF-8"?><svg version="1.1" width="24px" height="24px" viewBox="0 0 24.0 24.0" xmlns="http://www.w3.org/2000/svg" xmlns:xlink="http://www.w3.org/1999/xlink"><defs><clipPath id="i0"><path d="M2.33207552,0.157548874 C2.59386976,0.385688481 2.62115223,0.782858322 2.39301263,1.04465256 C2.17652295,1.2938517 1.98681118,1.56510418 1.82700064,1.85394424 C0.893949169,3.55972879 1.1226533,5.66623887 2.40004384,7.13203537 C2.56255191,7.3183258 2.60108781,7.58244461 2.49858221,7.8074015 C2.3960766,8.03235838 2.17147575,8.17666104 1.92426564,8.17616929 C1.74295419,8.17774394 1.57013718,8.09989073 1.45083118,7.96335816 C-0.172312463,6.09788854 -0.461773989,3.41884964 0.725445204,1.24972937 C0.928363491,0.881640224 1.16953983,0.535980333 1.44497184,0.218485983 C1.67311143,-0.0433082507 2.07028129,-0.0705907202 2.33207552,0.157548874 Z M10.5538978,0.218017236 C12.4708616,2.42275771 12.4833268,5.69909548 10.5831944,7.91835844 C10.4641604,8.05907013 10.2893781,8.14046382 10.1050725,8.14101327 C9.85994192,8.14054349 9.63747198,7.99753882 9.53525897,7.77473459 C9.43304596,7.55193037 9.46975978,7.29002332 9.62929432,7.10391055 C11.1247738,5.35782462 11.1157999,2.77981618 9.6082007,1.04418381 C9.45880634,0.875492103 9.41126243,0.639681065 9.4836198,0.426280072 C9.55597716,0.21287909 9.73713923,0.0546148357 9.95832495,0.0115748268 C10.1795107,-0.0314651705 10.4067996,0.0473195974 10.5538978,0.218017236 Z M8.88867407,2.06534913 C9.74926166,3.27494417 9.75301929,4.89589182 8.89804901,6.1094638 C8.79572114,6.2508934 8.63199152,6.33493545 8.45742684,6.33563423 C8.25745673,6.33518294 8.07439575,6.22335908 7.98270576,6.04564811 C7.89101578,5.86793713 7.9059725,5.65394602 8.02149214,5.49071777 C8.61538233,4.6497402 8.61350299,3.52542635 8.01680467,2.6864389 C7.84529547,2.44567882 7.90143442,2.11146853 8.1421945,1.93995933 C8.38295458,1.76845013 8.71716485,1.82458906 8.88867407,2.06534913 Z M3.83323776,1.95284985 C4.0746969,2.12332477 4.13331515,2.4567161 3.96448692,2.69932944 C3.67503565,3.10831119 3.52620848,3.59229246 3.52620848,4.09502361 C3.52500673,4.59465858 3.67896849,5.0823406 3.96683066,5.49071777 C4.04874375,5.60692257 4.08094899,5.75098911 4.05631409,5.89101207 C4.0316792,6.03103504 3.95223719,6.15545897 3.8355815,6.23672861 C3.74505424,6.29854363 3.63816789,6.3319966 3.52855222,6.33282174 C3.35422036,6.3331337 3.19081032,6.2483702 3.09027378,6.1059482 C2.24322295,4.89953764 2.24181775,3.2919886 3.08675818,2.08409901 C3.25433523,1.84269431 3.58948933,1.78410094 3.83323776,1.95284985 Z M6.00236447,2.80011004 C6.71286108,2.80043337 7.28875163,3.37632393 7.28907496,4.08682053 C7.28907496,4.79745112 6.71299504,5.37353103 6.00236447,5.37353103 C5.29173388,5.37353103 4.71565398,4.79745112 4.71565398,4.08682053 C4.71565398,3.37618996 5.29173388,2.80011004 6.00236447,2.80011004 Z"></path></clipPath></defs><g transform="translate(6.0 7.999999999999999)"><g clip-path="url(#i0)"><polygon points="0,1.73472348e-18 12,1.73472348e-18 12,8.17667219 0,8.17667219 0,1.73472348e-18" stroke="none" fill="#151515"></polygon></g></g></svg>