<?xml version="1.0" encoding="UTF-8"?><svg version="1.1" width="24px" height="24px" viewBox="0 0 24.0 24.0" xmlns="http://www.w3.org/2000/svg" xmlns:xlink="http://www.w3.org/1999/xlink"><defs><clipPath id="i0"><path d="M11.6,0 C11.82125,0 12,0.17875 12,0.4 L12,6 C12,6.22125 11.79625,6.4 11.575,6.4 L10.775,6.4 C10.55375,6.4 10.3875,6.22125 10.3875,6 L10.4,2.73125 L5.91,7.2575 C5.75375,7.415 5.5,7.41375 5.34375,7.2575 L4.01125,5.92 L1.24875,8.6825 C1.17125,8.76125 1.06875,8.8 0.96625,8.8 C0.86375,8.8 0.76125,8.76 0.68375,8.6825 L0.1175,8.11625 C0.03875,8.03875 0,7.93625 0,7.83375 C0,7.7325 0.03875,7.63 0.1175,7.5525 L3.73,3.94 C3.88625,3.7825 4.14,3.78375 4.29625,3.94 L5.62875,5.2775 L9.26875,1.6 L6,1.6 C5.77875,1.6 5.6,1.42125 5.6,1.2 L5.6,0.4 C5.6,0.17875 5.77875,0 6,0 Z"></path></clipPath></defs><g transform="translate(6.0 8.0)"><g clip-path="url(#i0)"><polygon points="0,0 12,0 12,8.8 0,8.8 0,0" stroke="none" fill="#151515"></polygon></g></g></svg>