<?xml version="1.0" encoding="UTF-8"?>
<svg width="24px" height="24px" viewBox="0 0 24 24" version="1.1" xmlns="http://www.w3.org/2000/svg" xmlns:xlink="http://www.w3.org/1999/xlink">
    <title></title>
    <g id="Icons" stroke="none" stroke-width="1" fill="none" fill-rule="evenodd">
        <g id="Icons/2.-Size-sm/Status/pficon-new-process" fill="#151515">
            <path d="M12.00075,6 C15.30825,6 18,8.6925 18,12 C18,15.309 15.30825,18 12.00075,18 C8.691,18 6,15.309 6,12 C6,8.6925 8.691,6 12.00075,6 Z M12.00075,7.49925 C9.519,7.49925 7.50075,9.51825 7.50075,11.99925 C7.50075,14.4825 9.519,16.49925 12.00075,16.49925 C14.48175,16.49925 16.50075,14.48175 16.50075,11.99925 C16.5,9.51825 14.48175,7.49925 12.00075,7.49925 Z M14.062125,9.000375 C14.165625,9.000375 14.249625,9.085125 14.249625,9.187875 L14.249625,9.187875 L14.249625,9.375375 C14.249625,11.250375 12.374625,11.239125 12.374625,12.000375 C12.374625,12.762375 14.249625,12.750375 14.249625,14.625375 L14.249625,14.625375 L14.249625,14.812875 C14.249625,14.916375 14.165625,15.000375 14.062125,15.000375 L14.062125,15.000375 L9.937125,15.000375 C9.833625,15.000375 9.749625,14.916375 9.749625,14.812875 L9.749625,14.812875 L9.749625,14.625375 C9.749625,12.739125 11.624625,12.739125 11.624625,12.000375 C11.624625,11.262375 9.749625,11.239125 9.749625,9.375375 L9.749625,9.375375 L9.749625,9.187875 C9.749625,9.085125 9.833625,9.000375 9.937125,9.000375 L9.937125,9.000375 L14.062125,9.000375 Z M12.197625,13.176375 C12.003375,13.109625 12.003375,13.109625 11.803125,13.176375 C11.626125,13.235625 11.001375,13.436625 10.914375,14.048625 C10.9141771,14.0499688 10.9139797,14.0513141 10.9137831,14.0526607 L10.9126125,14.0607535 L10.9126125,14.0607535 L10.9114642,14.0688627 C10.9107074,14.074271 10.9099691,14.0796805 10.9092568,14.0850718 L10.9082089,14.0931426 C10.8977729,14.1750075 10.8942604,14.250375 10.924125,14.250375 L10.924125,14.250375 L13.075875,14.250375 C13.1056637,14.250375 13.1022448,14.1769967 13.0923231,14.0963236 L13.0913102,14.0882344 L13.0913102,14.0882344 L13.0902599,14.0801113 L13.0902599,14.0801113 L13.0891782,14.0719689 C13.088813,14.0692532 13.0884436,14.0665367 13.0880709,14.0638219 L13.086375,14.051625 C13.002375,13.447125 12.374625,13.238625 12.197625,13.176375 Z M13.075875,9.71925 L10.924875,9.71925 C10.8940933,9.71925 10.8993386,9.79817363 10.909656,9.88210751 L10.9106693,9.89024331 C10.9108404,9.89160104 10.9110127,9.89295948 10.9111858,9.89431828 L10.9122349,9.90247308 C10.9129403,9.90790929 10.9136564,9.91334155 10.914375,9.91875 C10.998375,10.52325 11.626125,10.73175 11.803125,10.794 C11.9936932,10.8592329 11.9980243,10.8607155 12.1850273,10.7984477 L12.198375,10.794 C12.375375,10.734 13.000125,10.53375 13.087125,9.921 C13.0873257,9.91964789 13.0875255,9.91829384 13.0877243,9.91693819 L13.0894834,9.90470246 L13.0894834,9.90470246 L13.0911698,9.89243201 C13.1028601,9.80517581 13.1076497,9.71925 13.075875,9.71925 L13.075875,9.71925 Z" id="new-process"></path>
        </g>
    </g>
</svg>