<?xml version="1.0" encoding="UTF-8"?>
<svg width="24px" height="24px" viewBox="0 0 24 24" version="1.1" xmlns="http://www.w3.org/2000/svg" xmlns:xlink="http://www.w3.org/1999/xlink">
    <title></title>
    <g id="Icons" stroke="none" stroke-width="1" fill="none" fill-rule="evenodd">
        <g id="Icons/2.-Size-sm/Status/pficon-private" fill="#151515">
            <path d="M12,6 C8.6859375,6 6,8.6859375 6,12 C6,15.3140625 8.6859375,18 12,18 C15.3140625,18 18,15.3140625 18,12 C18,8.6859375 15.3140625,6 12,6 L12,6 Z M15.75,14.4761719 C15.75,14.8078125 15.6257813,15.1113281 15.3902344,15.3539063 L15.3855469,15.3585938 L15.3808594,15.3632812 C15.0609375,15.6832031 14.7234375,15.75 14.4960938,15.75 L9.5015625,15.75 C9.2765625,15.75 8.94257813,15.6832031 8.6203125,15.3667969 L8.615625,15.3621094 C8.37539062,15.121875 8.24882812,14.8160156 8.24882812,14.475 L8.24882812,11.7269531 C8.24882812,11.3941406 8.37304688,11.090625 8.60742188,10.8492188 L8.61210937,10.8445312 L8.61679688,10.8398438 C8.82773438,10.6289062 9.06445312,10.5492187 9.24726563,10.51875 L9.24726563,10.25625 C9.24726563,9.50625 9.51914063,8.85234375 10.0570312,8.31328125 C10.321875,8.04726562 10.621875,7.8421875 10.9464844,7.70625 C11.2734375,7.56914063 11.6273437,7.5 12.0011719,7.5 C12.3738281,7.5 12.7289063,7.56914063 13.0558594,7.70625 C13.3816406,7.8421875 13.6816406,8.04726562 13.9464844,8.31328125 C14.4808594,8.85 14.7527344,9.50390625 14.7527344,10.25625 L14.7527344,10.5199219 C14.9988281,10.5621094 15.2097656,10.6675781 15.3820313,10.8363281 C15.6234375,11.0742188 15.7511719,11.3824219 15.7511719,11.7269531 L15.75,14.4761719 Z M14.8546875,11.371875 C14.75625,11.2746094 14.6390625,11.25 14.4996094,11.25 L14.0015625,11.25 L14.0015625,10.25625 C14.0015625,9.70664063 13.8082031,9.23789063 13.4144531,8.84179688 C13.0207031,8.446875 12.5484375,8.25 12,8.25 C11.4515625,8.25 10.9816406,8.446875 10.5878906,8.84179688 C10.1941406,9.23671875 9.99726563,9.70429688 9.99726563,10.25625 L9.99726563,11.25 L9.5015625,11.25 C9.36210937,11.25 9.24375,11.2734375 9.14648438,11.3707031 C9.04921875,11.4703125 9,11.5875 9,11.7269531 L9,14.4773437 C9,14.6179687 9.05039063,14.7363281 9.14648438,14.8335938 C9.24492187,14.9308594 9.36210937,15.0011719 9.5015625,15.0011719 L14.4972656,15.0011719 C14.6367188,15.0011719 14.7550781,14.9308594 14.8523437,14.8335938 C14.9496094,14.7339844 15.0011719,14.6167969 15.0011719,14.4773437 L15.0011719,11.728125 C15,11.5875 14.953125,11.4691406 14.8546875,11.371875 L14.8546875,11.371875 Z M12.9996094,11.25 L11.0003906,11.25 L11.0003906,10.2761719 C11.0003906,10.0007812 11.0988281,9.7640625 11.2921875,9.56953125 C11.4878906,9.37382812 11.7234375,9.27539062 12,9.27539062 C12.2765625,9.27539062 12.5144531,9.37265625 12.7066406,9.5671875 C12.9023438,9.76289063 13.0007812,9.9984375 13.0007812,10.275 L13.0007812,11.25 L12.9996094,11.25 Z" id="pficon-private"></path>
        </g>
    </g>
</svg>