<?xml version="1.0" encoding="UTF-8"?><svg version="1.1" width="24px" height="24px" viewBox="0 0 24.0 24.0" xmlns="http://www.w3.org/2000/svg" xmlns:xlink="http://www.w3.org/1999/xlink"><defs><clipPath id="i0"><path d="M6.00117188,0 C9.31054688,0 12,2.69179687 12,6 C12,9.30820312 9.309375,12 6.00117188,12 C2.69296875,12 0,9.30820312 0,6 C0,2.69179687 2.69179687,0 6.00117188,0 Z M6,1.5 C3.51796875,1.5 1.5,3.51914063 1.5,6 C1.5,8.48320312 3.51796875,10.5 6,10.5 C8.48203125,10.5 10.5,8.48203125 10.5,6 C10.5,3.51796875 8.48085938,1.5 6,1.5 Z M5.88632813,3.00234375 C6,2.99765625 6.13242187,3.07382813 6.17695313,3.18046875 C6.22382813,3.28710938 6.23085938,3.4078125 6.14414063,3.48867188 C5.91914063,3.69140625 5.72226563,3.928125 5.60390625,4.19765625 C5.48554688,4.4671875 5.4,4.725 5.4,5.02382813 C5.4,5.409375 5.46914062,5.7375 5.65898438,6.06328125 C5.84468009,6.38432814 6.11137499,6.65102304 6.43242188,6.83671875 C6.75703125,7.0265625 7.11328125,7.12148438 7.49882813,7.12148438 C7.806406,7.12175477 8.11020477,7.05371025 8.38828125,6.92226563 C8.49492187,6.87539063 8.58867187,6.89179688 8.66953125,6.97265625 C8.70519498,7.00880849 8.7289172,7.05502594 8.7375,7.10507813 C8.74698613,7.15608953 8.74085977,7.20877627 8.71992188,7.25625 C8.475,7.78476563 8.10625,8.20703125 7.61367188,8.52304688 C7.12109375,8.8390625 6.58320313,8.99726563 6,8.9976875 C5.6001615,8.99897677 5.20437128,8.91758442 4.8375,8.75859375 C4.46953125,8.59921875 4.1484375,8.38710938 3.87890625,8.11757813 C3.609375,7.84804688 3.39726563,7.53046875 3.23789063,7.16132813 C3.07938642,6.79434457 2.99839739,6.39857548 2.99995401,5.99882813 C2.99873078,5.60683965 3.07520568,5.21849058 3.225,4.85625 C3.375,4.49296875 3.578125,4.17851563 3.834375,3.91289063 C4.090625,3.64726562 4.39726562,3.43320313 4.75429687,3.27070313 C5.1104877,3.1081611 5.49507718,3.01699029 5.88632813,3.00234375 Z"></path></clipPath></defs><g transform="translate(6.0 6.0)"><g clip-path="url(#i0)"><polygon points="0,0 12,0 12,12 0,12 0,0" stroke="none" fill="#151515"></polygon></g></g></svg>