<?xml version="1.0" encoding="UTF-8"?><svg version="1.1" width="24px" height="24px" viewBox="0 0 24.0 24.0" xmlns="http://www.w3.org/2000/svg" xmlns:xlink="http://www.w3.org/1999/xlink"><defs><clipPath id="i0"><path d="M0.182532118,0.161327422 C0.396527494,-0.0533164265 0.744008241,-0.0538421159 0.95865209,0.160153261 L5.56218246,4.77765613 C5.7025472,4.72592878 5.85102196,4.69968524 6.00061392,4.70016155 C6.71169545,4.70119825 7.28751874,5.27807252 7.2872588,5.98915475 C7.28776857,6.13896863 7.26156627,6.28767366 7.20988164,6.42829071 L8.09249795,7.3099677 C8.62642089,6.46922013 8.59857655,5.38899872 8.02204833,4.57687472 C7.85672656,4.34086849 7.90944635,4.01445193 8.14510033,3.84772116 C8.2578978,3.76727074 8.39808984,3.73505243 8.53469271,3.75818679 C8.67129558,3.78132114 8.79306174,3.85790334 8.87307973,3.97100799 C9.29624711,4.5627848 9.51769374,5.26246693 9.51769374,5.99385139 C9.51998181,6.71446856 9.29752714,7.4178686 8.88129885,8.00612735 C8.86934557,8.02395309 8.85603828,8.04083255 8.84149482,8.05661624 L9.70285883,8.91950666 C11.1260208,7.16672708 11.0855253,4.64521397 9.60681251,2.93903849 C9.37937766,2.67614399 9.40509177,2.27692948 9.66775143,2.04914238 C9.79288578,1.93922918 9.95673908,1.88385148 10.1228958,1.89531665 C10.2890526,1.90678182 10.4437468,1.98413997 10.5525987,2.11019872 C12.4659213,4.31571211 12.4843202,7.58720528 10.5959252,9.81409941 L11.8183435,11.037457 C12.0329549,11.2517118 12.0332441,11.5993765 11.8189893,11.813988 C11.6047345,12.0285994 11.2570698,12.0288885 11.0424583,11.8146337 L6.43446616,7.1972483 L4.78876306,5.54896205 L3.90039336,4.65906594 L2.29590328,3.0518753 L1.40283694,2.15951345 L0.183706278,0.937447393 C-0.0309375697,0.723452016 -0.0314632591,0.375971269 0.182532118,0.161327422 Z M0.764093725,3.0753585 L1.69308937,4.00740696 C1.40280734,4.62708725 1.25221355,5.30297554 1.25195734,5.9872761 C1.25212422,7.10908622 1.65693374,8.19319193 2.39206701,9.04056259 C2.62114569,9.30345709 2.59543158,9.70255418 2.333359,9.93022387 C2.22021795,10.0308568 2.07381958,10.0860281 1.92240288,10.0851186 C1.74132916,10.084748 1.56915802,10.0065117 1.44980335,9.87034169 C-0.171989319,8.00094031 -0.46127899,5.32055142 0.72428969,3.14815644 C0.737205453,3.12349908 0.751177961,3.10001587 0.764093725,3.0753585 Z M3.5054245,6.18523713 C3.53829927,6.62301584 3.68907535,7.04505337 3.94336763,7.40577918 C4.10991417,7.64220518 4.05371886,7.96882065 3.81773247,8.13598948 C3.72985512,8.19784371 3.62484289,8.23068569 3.51738226,8.22994789 C3.3468365,8.2302499 3.18687883,8.14726829 3.08893116,8.00765376 C2.46408762,7.11466881 2.2889436,5.98230503 2.61480522,4.94227341 L3.5044665,5.83381334 C3.50094402,5.88665056 3.4985957,5.94077935 3.4985957,5.99725646 Z"></path></clipPath></defs><g transform="translate(6.0 6.000000000000001)"><g clip-path="url(#i0)"><polygon points="0,2.77555756e-17 12,2.77555756e-17 12,11.9751359 0,11.9751359 0,2.77555756e-17" stroke="none" fill="#151515"></polygon></g></g></svg>