<?xml version="1.0" encoding="UTF-8"?><svg version="1.1" width="24px" height="24px" viewBox="0 0 24.0 24.0" xmlns="http://www.w3.org/2000/svg" xmlns:xlink="http://www.w3.org/1999/xlink"><defs><clipPath id="i0"><path d="M0.96625,0 C1.06875,0 1.17125,0.03875 1.24875,0.1175 L4.01125,2.88 L5.34375,1.5425 C5.5,1.38625 5.75375,1.385 5.91,1.5425 L10.4,6.06875 L10.3875,2.8 C10.3875,2.57875 10.55375,2.4 10.775,2.4 L11.575,2.4 C11.79625,2.4 12,2.57875 12,2.8 L12,8.4 C12,8.62125 11.82125,8.8 11.6,8.8 L6,8.8 C5.77875,8.8 5.6,8.62125 5.6,8.4 L5.6,7.6 C5.6,7.37875 5.77875,7.2 6,7.2 L9.26875,7.2 L5.62875,3.5225 L4.29625,4.86 C4.14,5.01625 3.88625,5.0175 3.73,4.86 L0.1175,1.2475 C0.03875,1.17 0,1.0675 0,0.96625 C0,0.86375 0.03875,0.76125 0.1175,0.68375 L0.6825,0.1175 C0.76125,0.03875 0.86375,0 0.96625,0 Z"></path></clipPath></defs><g transform="translate(6.0 8.0)"><g clip-path="url(#i0)"><polygon points="0,0 12,0 12,8.8 0,8.8 0,0" stroke="none" fill="#151515"></polygon></g></g></svg>