<?xml version="1.0" encoding="UTF-8"?><svg version="1.1" width="24px" height="24px" viewBox="0 0 24.0 24.0" xmlns="http://www.w3.org/2000/svg" xmlns:xlink="http://www.w3.org/1999/xlink"><defs><clipPath id="i0"><path d="M6,0 C9.3140625,0 12,2.6859375 12,6 C12,9.3140625 9.3140625,12 6,12 C2.6859375,12 0,9.3140625 0,6 C0,2.6859375 2.6859375,0 6,0 Z M6,1.5 C3.51445312,1.5 1.5,3.51445312 1.5,6 C1.5,8.48554688 3.51445312,10.5 6,10.5 C8.48554688,10.5 10.5,8.48554688 10.5,6 C10.5,3.51445312 8.48554688,1.5 6,1.5 Z M6,3.375 C6.4135465,3.37660602 6.74839398,3.7114535 6.75,4.125 L6.75,7.875 C6.75,8.28921356 6.41421356,8.625 6,8.625 C5.58578644,8.625 5.25,8.28921356 5.25,7.875 L5.25,4.125 C5.25160602,3.7114535 5.5864535,3.37660602 6,3.375 Z"></path></clipPath></defs><g transform="translate(6.0 6.0)"><g clip-path="url(#i0)"><polygon points="0,0 12,0 12,12 0,12 0,0" stroke="none" fill="#151515"></polygon></g></g></svg>