<?xml version="1.0" encoding="UTF-8"?>
<svg width="24px" height="24px" viewBox="0 0 24 24" version="1.1" xmlns="http://www.w3.org/2000/svg" xmlns:xlink="http://www.w3.org/1999/xlink">
    <title></title>
    <g id="Icons" stroke="none" stroke-width="1" fill="none" fill-rule="evenodd">
        <g id="Icons/2.-Size-sm/Status/pficon-off" fill="#151515">
            <path d="M12,9.375 C11.5864535,9.37660602 11.251606,9.7114535 11.25,10.125 L11.25,13.875 C11.25,14.2892136 11.5857864,14.625 12,14.625 C12.4142136,14.625 12.75,14.2892136 12.75,13.875 L12.75,10.125 C12.748394,9.7114535 12.4135465,9.37660602 12,9.375 M12,16.5 C9.51445312,16.5 7.5,14.4855469 7.5,12 C7.5,9.51445312 9.51445312,7.5 12,7.5 C14.4855469,7.5 16.5,9.51445312 16.5,12 C16.5,14.4855469 14.4855469,16.5 12,16.5 M12,6 C8.6859375,6 6,8.6859375 6,12 C6,15.3140625 8.6859375,18 12,18 C15.3140625,18 18,15.3140625 18,12 C18,8.6859375 15.3140625,6 12,6" id="pficon-off"></path>
        </g>
    </g>
</svg>