<?xml version="1.0" encoding="UTF-8"?><svg version="1.1" width="24px" height="24px" viewBox="0 0 24.0 24.0" xmlns="http://www.w3.org/2000/svg" xmlns:xlink="http://www.w3.org/1999/xlink"><defs><clipPath id="i0"><path d="M6.00075,0 C9.30825,0 12,2.6925 12,6 C12,9.309 9.30825,12 6.00075,12 C2.691,12 0,9.309 0,6 C0,2.6925 2.691,0 6.00075,0 Z M6.00075,1.49925 C3.519,1.49925 1.50075,3.51825 1.50075,5.99925 C1.50075,8.4825 3.519,10.49925 6.00075,10.49925 C8.48175,10.49925 10.50075,8.48175 10.50075,5.99925 C10.5,3.51825 8.48175,1.49925 6.00075,1.49925 Z M8.062125,3.000375 C8.144925,3.000375 8.215245,3.054615 8.240061,3.128919 L8.249625,3.187875 L8.249625,3.375375 C8.249625,5.250375 6.374625,5.239125 6.374625,6.000375 C6.374625,6.731895 8.102625,6.7500966 8.240865,8.4092623 L8.249625,8.625375 L8.249625,8.812875 C8.249625,8.895675 8.195865,8.965995 8.121369,8.990811 L8.062125,9.000375 L3.937125,9.000375 C3.854325,9.000375 3.784005,8.946615 3.759189,8.872119 L3.749625,8.812875 L3.749625,8.625375 C3.749625,6.739125 5.624625,6.739125 5.624625,6.000375 C5.624625,5.291895 3.896625,5.2421286 3.758385,3.59035414 L3.749625,3.375375 L3.749625,3.187875 C3.749625,3.105675 3.803385,3.034995 3.877881,3.010011 L3.937125,3.000375 L8.062125,3.000375 Z M5.803125,7.176375 C5.626125,7.235625 5.001375,7.436625 4.914375,8.048625 L4.91146423,8.06886268 C4.91070736,8.07427099 4.90996908,8.0796805 4.90925684,8.08507178 C4.89986008,8.15863454 4.89594234,8.21996811 4.90999987,8.24188186 L4.924125,8.250375 L7.075875,8.250375 C7.10566373,8.250375 7.10224477,8.1769967 7.09232307,8.09632357 L7.09025994,8.08011127 C7.088813,8.06925316 7.08844358,8.0665367 7.08807088,8.06382191 L7.086375,8.051625 C7.002375,7.447125 6.374625,7.238625 6.197625,7.176375 C6.003375,7.109625 6.003375,7.109625 5.803125,7.176375 Z M7.075875,3.71925 L4.924875,3.71925 C4.89409331,3.71925 4.89933864,3.79817363 4.90965601,3.88210751 C4.91084043,3.89160104 4.91101266,3.89295948 4.91118581,3.89431828 L4.914375,3.91875 C4.998375,4.52325 5.626125,4.73175 5.803125,4.794 C5.99369318,4.85923295 5.99802428,4.86071552 6.18502725,4.7984477 L6.198375,4.794 C6.375375,4.734 7.000125,4.53375 7.087125,3.921 L7.09116975,3.89243201 C7.10286012,3.80517581 7.10764965,3.71925 7.075875,3.71925 Z"></path></clipPath></defs><g transform="translate(6.0 6.0)"><g clip-path="url(#i0)"><polygon points="0,0 12,0 12,12 0,12 0,0" stroke="none" fill="#151515"></polygon></g></g></svg>