<?xml version="1.0" encoding="UTF-8"?><svg version="1.1" width="24px" height="24px" viewBox="0 0 24.0 24.0" xmlns="http://www.w3.org/2000/svg" xmlns:xlink="http://www.w3.org/1999/xlink"><defs><clipPath id="i0"><path d="M5.98828125,0 C6.40234375,0 6.80273438,0.0390625 7.18945312,0.1171875 C7.57617188,0.1953125 7.953125,0.31640625 8.3203125,0.48046875 C8.6796875,0.63671875 9.01953125,0.822265625 9.33984375,1.03710938 C9.66015625,1.25195312 9.953125,1.49609375 10.21875,1.76953125 C10.4921875,2.03515625 10.7363281,2.328125 10.9511719,2.6484375 C11.1660156,2.96875 11.3515625,3.30859375 11.5078125,3.66796875 C11.671875,4.03515625 11.7929688,4.41210938 11.8710938,4.79882812 C11.9492188,5.18554688 11.9882812,5.5859375 11.9882812,6 C11.9882812,6.4140625 11.9492188,6.81640625 11.8710938,7.20703125 C11.7929688,7.59765625 11.671875,7.97265625 11.5078125,8.33203125 C11.3515625,8.69921875 11.1660156,9.04101562 10.9511719,9.35742188 C10.7363281,9.67382812 10.4921875,9.96875 10.21875,10.2421875 C9.953125,10.515625 9.66015625,10.7597656 9.33984375,10.9746094 C9.01953125,11.1894531 8.6796875,11.375 8.3203125,11.53125 C7.953125,11.6875 7.57617188,11.8046875 7.18945312,11.8828125 C6.80273438,11.9609375 6.40234375,12 5.98828125,12 C5.58984375,12 5.203125,11.9648438 4.828125,11.8945312 C4.453125,11.8242188 4.08984375,11.7148438 3.73828125,11.5664062 L4.5234375,10.1953125 C4.75,10.2734375 4.98242188,10.3320312 5.22070312,10.3710938 C5.45898438,10.4101562 5.70703125,10.4296875 5.96484375,10.4296875 C6.26171875,10.4296875 6.55273438,10.4023438 6.83789062,10.3476562 C7.12304688,10.2929688 7.40234375,10.2070312 7.67578125,10.0898438 C7.94140625,9.97265625 8.18945312,9.8359375 8.41992188,9.6796875 C8.65039062,9.5234375 8.8671875,9.34375 9.0703125,9.140625 C9.2734375,8.9453125 9.453125,8.73046875 9.609375,8.49609375 C9.765625,8.26171875 9.90234375,8.01171875 10.0195312,7.74609375 C10.1367188,7.47265625 10.2246094,7.19335938 10.2832031,6.90820312 C10.3417969,6.62304688 10.3710938,6.328125 10.3710938,6.0234375 C10.3710938,5.7265625 10.3417969,5.43554688 10.2832031,5.15039062 C10.2246094,4.86523438 10.1367188,4.5859375 10.0195312,4.3125 C9.90234375,4.046875 9.765625,3.79882812 9.609375,3.56835938 C9.453125,3.33789062 9.2734375,3.12109375 9.0703125,2.91796875 C8.8671875,2.71484375 8.65039062,2.53515625 8.41992188,2.37890625 C8.18945312,2.22265625 7.94140625,2.0859375 7.67578125,1.96875 C7.41015625,1.8515625 7.13671875,1.765625 6.85546875,1.7109375 C6.57421875,1.65625 6.28515625,1.625 5.98828125,1.6171875 Z M1.7109375,7.18359375 C1.734375,7.27734375 1.76171875,7.37109375 1.79296875,7.46484375 C1.82421875,7.55859375 1.859375,7.65234375 1.8984375,7.74609375 C2.015625,8.01171875 2.15429688,8.26171875 2.31445312,8.49609375 C2.47460938,8.73046875 2.65234375,8.94921875 2.84765625,9.15234375 C2.87890625,9.18359375 2.91210938,9.21289062 2.94726562,9.24023438 C2.98242188,9.26757812 3.015625,9.296875 3.046875,9.328125 L2.26171875,10.6992188 C2.16796875,10.6289062 2.08007812,10.5566406 1.99804688,10.4824219 C1.91601562,10.4082031 1.8359375,10.328125 1.7578125,10.2421875 C1.484375,9.96875 1.24023437,9.67382812 1.02539062,9.35742188 C0.810546875,9.04101562 0.625,8.69921875 0.46875,8.33203125 C0.390625,8.16796875 0.32421875,7.99804688 0.26953125,7.82226562 C0.21484375,7.64648438 0.16796875,7.46875 0.12890625,7.2890625 Z M0.6328125,3.3046875 L2.05078125,4.0078125 C2.01953125,4.0625 1.9921875,4.11523438 1.96875,4.16601562 C1.9453125,4.21679688 1.921875,4.26953125 1.8984375,4.32421875 C1.8203125,4.50390625 1.75585938,4.68945312 1.70507812,4.88085938 C1.65429688,5.07226562 1.6171875,5.26953125 1.59375,5.47265625 L0,5.578125 C0.0234375,5.2421875 0.07421875,4.91601562 0.15234375,4.59960938 C0.23046875,4.28320312 0.3359375,3.97265625 0.46875,3.66796875 C0.4921875,3.60546875 0.517578125,3.54296875 0.544921875,3.48046875 C0.572265625,3.41796875 0.6015625,3.359375 0.6328125,3.3046875 Z"></path></clipPath></defs><g transform="translate(6.0 6.0)"><g clip-path="url(#i0)"><polygon points="0,0 11.9882812,0 11.9882812,12 0,12 0,0" stroke="none" fill="#151515"></polygon></g></g></svg>