<?xml version="1.0" encoding="UTF-8"?>
<svg width="24px" height="24px" viewBox="0 0 24 24" version="1.1" xmlns="http://www.w3.org/2000/svg" xmlns:xlink="http://www.w3.org/1999/xlink">
    <title></title>
    <g id="Icons" stroke="none" stroke-width="1" fill="none" fill-rule="evenodd">
        <g id="Icons/2.-Size-sm/Status/pficon-not-started" fill="#151515">
            <path d="M12.00075,6 C15.30825,6 18,8.6925 18,12 C18,15.309 15.30825,18 12.00075,18 C8.691,18 6,15.309 6,12 C6,8.6925 8.691,6 12.00075,6 Z M12.00075,7.49925 C9.519,7.49925 7.50075,9.51825 7.50075,11.99925 C7.50075,14.4825 9.519,16.49925 12.00075,16.49925 C14.48175,16.49925 16.50075,14.48175 16.50075,11.99925 C16.5,9.51825 14.48175,7.49925 12.00075,7.49925 Z M9.093375,11.062875 C9.61114195,11.062875 10.030875,11.482608 10.030875,12.000375 C10.030875,12.518142 9.61114195,12.937875 9.093375,12.937875 C8.57560805,12.937875 8.155875,12.518142 8.155875,12.000375 C8.155875,11.482608 8.57560805,11.062875 9.093375,11.062875 Z M12.0113437,11.062875 C12.5291107,11.062875 12.9488437,11.482608 12.9488437,12.000375 C12.9488437,12.518142 12.5291107,12.937875 12.0113437,12.937875 C11.4935768,12.937875 11.0738437,12.518142 11.0738437,12.000375 C11.0738437,11.482608 11.4935768,11.062875 12.0113437,11.062875 Z M14.9175938,11.062875 C15.4353607,11.062875 15.8550938,11.482608 15.8550938,12.000375 C15.8550938,12.518142 15.4353607,12.937875 14.9175938,12.937875 C14.3998268,12.937875 13.9800938,12.518142 13.9800938,12.000375 C13.9800938,11.482608 14.3998268,11.062875 14.9175938,11.062875 Z" id="not-started"></path>
        </g>
    </g>
</svg>