<?xml version="1.0" encoding="UTF-8"?><svg version="1.1" width="24px" height="24px" viewBox="0 0 24.0 24.0" xmlns="http://www.w3.org/2000/svg" xmlns:xlink="http://www.w3.org/1999/xlink"><defs><clipPath id="i0"><path d="M6,0 C9.3140625,0 12,2.6859375 12,6 C12,9.3140625 9.3140625,12 6,12 C2.6859375,12 0,9.3140625 0,6 C0,2.6859375 2.6859375,0 6,0 Z M6.0140625,5.16328125 L4.85742188,8.52070313 C4.78007813,8.74570312 4.57382813,8.9015625 4.33828125,8.91445312 L4.30664063,8.91445312 C4.08164063,8.91445312 3.87539063,8.78671875 3.77929688,8.5828125 L2.79140625,6.50976562 L1.48476563,6.50976562 C1.5328125,6.946875 1.64296875,7.3640625 1.8140625,7.76601563 C2.05195313,8.3203125 2.3765625,8.803125 2.79140625,9.21210938 C3.20625,9.62109375 3.6890625,9.94570313 4.2375,10.1835938 C4.78710938,10.4214844 5.3765625,10.5398437 6,10.5398437 C6.62460938,10.5398437 7.2140625,10.4214844 7.7625,10.1835938 C8.31210938,9.94570313 8.79609375,9.62226563 9.20859375,9.21210938 C9.62109375,8.80195313 9.94804687,8.3203125 10.1859375,7.76601563 C10.3582031,7.36640625 10.4671875,6.946875 10.5128906,6.5109375 L8.82070313,6.5109375 L8.17265625,7.50117188 C8.06015625,7.67578125 7.8515625,7.77421875 7.65351563,7.76367188 C7.44726563,7.753125 7.25976563,7.63007813 7.16601563,7.44492187 L6.0140625,5.16328125 Z M5.99648437,1.45429688 C5.371875,1.45429688 4.78242187,1.57265625 4.23398438,1.81054688 C3.684375,2.0484375 3.20273437,2.37304688 2.78789063,2.78789063 C2.37539062,3.20273438 2.0484375,3.68554688 1.81054688,4.23398438 C1.65703125,4.58671875 1.55273438,4.95703125 1.5,5.34375 L3.16289062,5.34375 C3.38789063,5.34375 3.59414062,5.47148438 3.69023437,5.67539063 L4.2234375,6.7921875 L5.36367187,3.47695313 C5.41523438,3.3328125 5.51601562,3.21445313 5.653125,3.1453125 C5.9390625,2.99765625 6.290625,3.11484375 6.43476562,3.40195313 L7.75195312,6.01523438 L8.0203125,5.60507813 C8.128125,5.4421875 8.31210937,5.34257813 8.5078125,5.34257813 L10.4988281,5.34257813 C10.4449219,4.95703125 10.340625,4.59023438 10.1824219,4.23398438 C9.94453125,3.68554688 9.61992187,3.20273438 9.20507812,2.78789063 C8.79023438,2.37539063 8.30742187,2.0484375 7.75898437,1.81054688 C7.209375,1.57265625 6.61992187,1.45429688 5.99648437,1.45429688 Z"></path></clipPath></defs><g transform="translate(6.0 6.0)"><g clip-path="url(#i0)"><polygon points="0,0 12,0 12,12 0,12 0,0" stroke="none" fill="#151515"></polygon></g></g></svg>