<?xml version="1.0" encoding="UTF-8"?><svg version="1.1" width="24px" height="24px" viewBox="0 0 24.0 24.0" xmlns="http://www.w3.org/2000/svg" xmlns:xlink="http://www.w3.org/1999/xlink"><defs><clipPath id="i0"><path d="M10.0957031,0 C10.3195312,0 10.5,0.167578125 10.5,0.375 L10.5,5.29921875 C10.5,9 5.96835937,12 5.25585938,12 C4.54335937,12 0,9 0,5.29804688 L0,0.375 C0,0.167578125 0.18046875,0 0.404296875,0 Z M5.75039062,7.5 L4.74960938,7.5 C4.6125,7.50351562 4.50234375,7.62304688 4.5,7.77304687 L4.5,8.72695313 C4.50234375,8.87695312 4.61132812,8.99765625 4.74960938,9 L5.75039062,9 C5.8875,8.99765625 5.99765625,8.87695312 6.00117187,8.72695313 L6,7.77304687 C5.99765625,7.62304688 5.88867188,7.50234375 5.75039062,7.5 Z M6,1.5 L4.5,1.50351563 C4.28085937,1.50351563 4.10742187,1.69101563 4.12617187,1.91015625 L4.43789062,6.03164063 C4.45429687,6.225 4.6171875,6.375 4.81171875,6.375 L5.68710937,6.375 C5.8828125,6.375 6.04453125,6.22148437 6.0609375,6.028125 L6.37382812,1.90664062 C6.39140625,1.6875 6.21914062,1.5 6,1.5 Z"></path></clipPath></defs><g transform="translate(7.0 6.0)"><g clip-path="url(#i0)"><polygon points="0,0 10.5,0 10.5,12 0,12 0,0" stroke="none" fill="#151515"></polygon></g></g></svg>