<?xml version="1.0" encoding="UTF-8"?>
<svg width="24px" height="24px" viewBox="0 0 24 24" version="1.1" xmlns="http://www.w3.org/2000/svg" xmlns:xlink="http://www.w3.org/1999/xlink">
    <title></title>
    <g id="Icons" stroke="none" stroke-width="1" fill="none" fill-rule="evenodd">
        <g id="Icons/2.-Size-sm/Status/pficon-trend-up" fill="#151515">
            <path d="M18,8.4 C18,8.17875 17.82125,8 17.6,8 L12,8 C11.77875,8 11.6,8.17875 11.6,8.4 L11.6,9.2 C11.6,9.42125 11.77875,9.6 12,9.6 L15.26875,9.6 L11.62875,13.2775 L10.29625,11.94 C10.14,11.78375 9.88625,11.7825 9.73,11.94 L6.1175,15.5525 C6.03875,15.63 6,15.7325 6,15.83375 C6,15.93625 6.03875,16.03875 6.1175,16.11625 L6.68375,16.6825 C6.76125,16.76 6.86375,16.8 6.96625,16.8 C7.06875,16.8 7.17125,16.76125 7.24875,16.6825 L10.01125,13.92 L11.34375,15.2575 C11.5,15.41375 11.75375,15.415 11.91,15.2575 L16.4,10.73125 L16.3875,14 C16.3875,14.22125 16.55375,14.4 16.775,14.4 L17.575,14.4 C17.79625,14.4 18,14.22125 18,14 L18,8.4 Z" id="pficon-trend-up"></path>
        </g>
    </g>
</svg>