<?xml version="1.0" encoding="UTF-8"?><svg version="1.1" width="24px" height="24px" viewBox="0 0 24.0 24.0" xmlns="http://www.w3.org/2000/svg" xmlns:xlink="http://www.w3.org/1999/xlink"><defs><clipPath id="i0"><path d="M11.25,4.5 C11.6640529,4.50038763 11.9996123,4.8359471 12,5.25 L12,11.25 C11.9996123,11.6640529 11.6640529,11.9996123 11.25,12 L5.25,12 C4.8359471,11.9996123 4.50038763,11.6640529 4.49998895,11.25 L4.49998895,6.85429687 C4.49958368,6.81606271 4.52242883,6.781407 4.55773161,6.76671898 C4.59303441,6.75203095 4.63371974,6.76025428 4.66054688,6.7875 L5.22304688,7.35 C5.24045836,7.36785963 5.25014063,7.39185482 5.25,7.41679687 L5.25,11.25 L11.25,11.25 L11.25,5.25 L7.41679688,5.25 C7.39181319,5.25036091 7.36773671,5.24064585 7.35,5.22304687 L6.7875,4.66054687 C6.76085961,4.63351058 6.75301726,4.59314122 6.76759763,4.55809719 C6.782178,4.52305315 6.81634103,4.50016049 6.85429688,4.5 Z M2.09723089,2.09957464 C2.38694658,1.80985895 2.85624095,1.80847833 3.14765625,2.09648438 L8.22773437,7.17421875 L9.309375,6.0890625 C9.47226562,5.92617187 9.75,6.04101562 9.75,6.27070312 L9.75,9.36796875 C9.75,9.57893198 9.57893198,9.75 9.36796875,9.75 L6.271875,9.75 C6.0421875,9.75 5.92734375,9.47109375 6.09023437,9.309375 L7.17304687,8.23007812 L2.09414063,3.15 C1.80613458,2.8585847 1.8075152,2.38929033 2.09723089,2.09957464 Z M0.65625,5.25 C0.708026695,5.25 0.75,5.2919733 0.75,5.34375 L0.75,6 L1.40625,6 C1.4580267,6 1.5,6.0419733 1.5,6.09375 L1.5,6.65625 C1.5,6.7080267 1.4580267,6.75 1.40625,6.75 L0.75,6.75 C0.335947105,6.74961237 0.00038762974,6.4140529 0,6 L0,5.34375 C0,5.2919733 0.0419733047,5.25 0.09375,5.25 Z M3.65625,6 C3.7080267,6 3.75,6.0419733 3.75,6.09375 L3.75,6.65625 C3.75,6.7080267 3.7080267,6.75 3.65625,6.75 L2.34375,6.75 C2.2919733,6.75 2.25,6.7080267 2.25,6.65625 L2.25,6.09375 C2.25,6.0419733 2.2919733,6 2.34375,6 L3.65625,6 Z M0.65625,2.25 C0.708026695,2.25 0.75,2.2919733 0.75,2.34375 L0.75,4.40625 C0.75,4.4580267 0.708026695,4.5 0.65625,4.5 L0.09375,4.5 C0.0419733047,4.5 0,4.4580267 0,4.40625 L0,2.34375 C0,2.2919733 0.0419733047,2.25 0.09375,2.25 Z M6.65625,2.25 C6.7080267,2.25 6.75,2.2919733 6.75,2.34375 L6.75,3.65625 C6.75,3.7080267 6.7080267,3.75 6.65625,3.75 L6.09375,3.75 C6.0419733,3.75 6,3.7080267 6,3.65625 L6,2.34375 C6,2.2919733 6.0419733,2.25 6.09375,2.25 Z M6,0 C6.4140529,0.00038762974 6.74961237,0.335947105 6.75,0.75 L6.75,1.40625 C6.75,1.4580267 6.7080267,1.5 6.65625,1.5 L6.09375,1.5 C6.0419733,1.5 6,1.4580267 6,1.40625 L6,0.75 L5.34375,0.75 C5.2919733,0.75 5.25,0.708026695 5.25,0.65625 L5.25,0.09375 C5.25,0.0419733047 5.2919733,0 5.34375,0 Z M1.40625,0 C1.4580267,0 1.5,0.0419733047 1.5,0.09375 L1.5,0.65625 C1.5,0.708026695 1.4580267,0.75 1.40625,0.75 L0.75,0.75 L0.75,1.40625 C0.75,1.4580267 0.708026695,1.5 0.65625,1.5 L0.09375,1.5 C0.0419733047,1.5 0,1.4580267 0,1.40625 L0,0.75 C0.00038762974,0.335947105 0.335947105,0.00038762974 0.75,0 Z M4.40625,0 C4.4580267,0 4.5,0.0419733047 4.5,0.09375 L4.5,0.65625 C4.5,0.708026695 4.4580267,0.75 4.40625,0.75 L2.34375,0.75 C2.2919733,0.75 2.25,0.708026695 2.25,0.65625 L2.25,0.09375 C2.25,0.0419733047 2.2919733,0 2.34375,0 Z"></path></clipPath></defs><g transform="translate(6.0 6.0)"><g clip-path="url(#i0)"><polygon points="0,0 12,0 12,12 0,12 0,0" stroke="none" fill="#151515"></polygon></g></g></svg>