<?xml version="1.0" encoding="UTF-8"?><svg version="1.1" width="24px" height="24px" viewBox="0 0 24.0 24.0" xmlns="http://www.w3.org/2000/svg" xmlns:xlink="http://www.w3.org/1999/xlink"><defs><clipPath id="i0"><path d="M4.12382813,3.75 C4.49882813,3.75 4.86210938,3.76289063 5.20511719,3.796875 C5.548125,3.83085937 5.87765625,3.87421875 6.19277344,3.93867188 C6.47829131,3.99623787 6.76062507,4.06860105 7.03863281,4.15546875 C7.29046875,4.24101562 7.50960938,4.33242187 7.69582031,4.4390625 C7.87628906,4.54570312 8.01691406,4.65820312 8.10703125,4.77421875 C8.19445313,4.88578125 8.24695313,4.9996875 8.24988281,5.1140625 L8.24988281,6.80976563 C8.23816406,6.91289062 8.18894531,7.01015625 8.11394531,7.10859375 C8.02382813,7.22460938 7.88320313,7.33710938 7.70273438,7.44375 C7.49107211,7.55452058 7.27035089,7.64704315 7.04296875,7.7203125 C6.96316406,7.74761719 6.87820313,7.77398437 6.78914063,7.79929687 L6.77003906,7.8046875 L6.74894531,7.809375 L6.74894531,8.9578125 C6.85078125,8.9296875 6.94921875,8.89921875 7.04296875,8.86757813 C7.27019084,8.79408053 7.4908152,8.7015657 7.7025,8.59101563 C7.88296875,8.484375 8.02359375,8.371875 8.11371094,8.25585938 C8.16113677,8.19572399 8.19799029,8.12796107 8.22269531,8.05546875 C8.22609375,8.04375 8.24683594,8.04597656 8.24941406,8.05652344 L8.24941406,10.6253906 C8.24941406,10.7519531 8.20488281,10.8703125 8.11464844,10.9886719 C8.02453125,11.1046875 7.88390625,11.2171875 7.7034375,11.3238281 C7.49185059,11.4345865 7.27120827,11.5271088 7.04390625,11.6003906 C6.76668375,11.6915401 6.48421825,11.7658937 6.19804688,11.8230469 C5.86997153,11.8860364 5.538695,11.9310257 5.20570313,11.9578125 C4.86480469,11.9871094 4.50515625,12 4.12757813,12 C3.75621094,12 3.40007813,11.9859375 3.05449219,11.9578125 C2.72126794,11.93446 2.3898362,11.8902326 2.06214844,11.8253906 C1.7446875,11.7632812 1.45652344,11.690625 1.20574219,11.6027344 C0.956601563,11.5195312 0.740585938,11.4273437 0.557695313,11.3261719 C0.376054688,11.2195312 0.238945313,11.1070312 0.14296875,10.9910156 C0.05203125,10.8794531 0.0041015625,10.7633203 0.0012890625,10.6415625 L0.0012890625,8.06015625 C0.0024609375,8.0484375 0.0223828125,8.04609375 0.0270703125,8.0578125 C0.144257813,8.34667969 0.5128125,8.67 1.44890625,8.93800781 L1.47738281,8.94609375 L1.49847656,8.95195312 L1.49847656,7.81523438 C1.39664063,7.78710938 1.29820313,7.75664062 1.20550781,7.72382813 C0.956054687,7.640625 0.739726562,7.5484375 0.556523438,7.44726562 C0.374882813,7.340625 0.237773438,7.228125 0.141796875,7.11210937 C0.050859375,7.00054687 0.0029296875,6.88441406 0,6.76265625 L0,5.128125 C0,5.00976562 0.048046875,4.89140625 0.141796875,4.77539062 C0.233085938,4.659375 0.373710938,4.54570312 0.557695313,4.44023437 C0.738046875,4.33476562 0.956132813,4.23867187 1.20667969,4.15664062 C1.48406541,4.06760012 1.76652138,3.99520561 2.05253906,3.93984375 C2.37,3.87773437 2.70503906,3.83085937 3.05074219,3.79804688 C3.39644531,3.76523438 3.75246094,3.75 4.12382813,3.75 Z M2.72109375,6.10073626 C2.70334675,6.10053696 2.68575694,6.10413488 2.66953125,6.11132813 C2.656875,6.1171875 2.64492187,6.12386719 2.63320312,6.13066406 L2.61796875,6.13945313 L2.00859375,6.75351563 C1.99254004,6.76465034 1.97994939,6.78008404 1.97226562,6.79804688 C1.96460973,6.81701214 1.96101676,6.83737232 1.96171875,6.8578125 C1.96147446,6.8755595 1.96507237,6.89314931 1.97226562,6.909375 C1.97996562,6.92527248 1.98978122,6.940055 2.00144531,6.95332031 L3.309375,8.2546875 L1.98164062,9.58007812 C1.96558691,9.59121284 1.95299626,9.60664654 1.9453125,9.62460938 C1.93765661,9.64357464 1.93406364,9.66393482 1.93476562,9.684375 C1.93452134,9.702122 1.93811925,9.71971181 1.9453125,9.7359375 C1.95301249,9.75183498 1.96282809,9.7666175 1.97449219,9.77988281 L1.98164062,9.7875 L2.59101562,10.3992187 C2.60572242,10.4145134 2.62322607,10.4268455 2.64257812,10.4355469 C2.66154339,10.4432028 2.68190357,10.4467957 2.70234375,10.4460938 C2.72009075,10.446338 2.73768056,10.4427401 2.75390625,10.4355469 L2.77590527,10.4235141 L2.79609375,10.4027344 L4.12617187,9.0796875 L5.45273437,10.3945312 C5.46386909,10.410585 5.47930279,10.4231756 5.49726562,10.4308594 C5.51342214,10.4382666 5.53106072,10.4418745 5.54882812,10.4414062 C5.56927546,10.4422119 5.58965723,10.4386151 5.60859375,10.4308594 C5.62449123,10.4231594 5.63927375,10.4133438 5.65253906,10.4016797 L5.66015625,10.3945312 L6.26953125,9.78867188 C6.28482588,9.77396508 6.297158,9.75646143 6.30585937,9.73710938 C6.31355693,9.72230639 6.31719598,9.70572854 6.31640625,9.6890625 C6.31721186,9.66861517 6.31361508,9.64823339 6.30585937,9.62929688 C6.29989247,9.61350686 6.28962161,9.5997041 6.27621094,9.58945313 L4.94296875,8.259375 L6.24375,6.96914063 C6.25904463,6.95443383 6.27137675,6.93693018 6.28007812,6.91757813 C6.28748537,6.90142161 6.29109326,6.88378303 6.290625,6.86601563 C6.29143061,6.84556829 6.28783383,6.82518652 6.28007812,6.80625 C6.27411122,6.79045998 6.26384036,6.77665723 6.25042969,6.76640625 L5.64140625,6.1453125 C5.62500867,6.13455676 5.60776446,6.12515082 5.58984375,6.1171875 C5.57087849,6.10953161 5.55051831,6.10593864 5.53007812,6.10664063 C5.51256868,6.10667773 5.49517214,6.10944536 5.47851562,6.11484375 C5.46258649,6.1183629 5.44837668,6.12731136 5.43832031,6.14015625 L4.13203125,7.44492188 L2.82539062,6.13945313 C2.81358409,6.12544704 2.79819118,6.11491505 2.78085937,6.10898438 C2.7614694,6.10323206 2.74131653,6.10046599 2.72109375,6.10073626 Z M12,4.415625 L12,6.87539062 C12,7.00195312 11.9554688,7.1203125 11.8652344,7.23867187 C11.775,7.3546875 11.634375,7.4671875 11.4539062,7.57382812 C11.2422374,7.6845848 11.0215174,7.77710686 10.7941406,7.85039062 C10.5168381,7.941538 10.2342947,8.01589152 9.94804688,8.07304687 C9.63448535,8.13299073 9.31805333,8.17679838 9,8.20429687 L8.99648438,5.57929687 C9.31571087,5.55187691 9.63331725,5.50806914 9.94804688,5.44804687 C10.2609375,5.38359375 10.5738281,5.3015625 10.7941406,5.22539062 C11.0144531,5.14921875 11.2675781,5.04726562 11.4527344,4.94882813 C11.6332031,4.8421875 11.7738281,4.7296875 11.8640625,4.61367187 C11.9114883,4.55353649 11.9483419,4.48577357 11.9730469,4.41328125 C11.9765625,4.40039062 11.9988281,4.40390625 12,4.415625 Z M7.87148437,0 C8.24765625,0 8.60859375,0.012890625 8.95195312,0.046875 C9.2953125,0.080859375 9.62460937,0.12421875 9.93984375,0.188671875 C10.2254381,0.246240671 10.5078498,0.318603765 10.7859375,0.40546875 C11.0378906,0.491015625 11.2570312,0.582421875 11.4433594,0.6890625 C11.6238281,0.795703125 11.7644531,0.908203125 11.8546875,1.02421875 C11.9449219,1.14023437 12,1.25859375 12,1.37695313 L12,3.11015625 C12,3.23671875 11.9554687,3.35507813 11.8652344,3.4734375 C11.775,3.58945313 11.634375,3.70195313 11.4539062,3.80859375 C11.2422374,3.91935042 11.0215174,4.01187248 10.7941406,4.08515625 C10.5168381,4.17630362 10.2342947,4.25065714 9.94804687,4.3078125 C9.61989146,4.37079418 9.28853736,4.41578324 8.95546875,4.44257813 L8.79960937,4.45429688 C8.77041547,4.40564239 8.73791726,4.35904859 8.70234375,4.31484375 C8.5546875,4.12382813 8.35078125,3.95390625 8.08125,3.79453125 L8.071875,3.78984375 C7.85507812,3.66445313 7.59609375,3.553125 7.28203125,3.44648438 L7.26796875,3.44179688 C6.96454983,3.34664818 6.65630586,3.26763134 6.34453125,3.20507813 C6.03515625,3.14179688 5.69648437,3.09257813 5.28046875,3.0515625 C4.92890625,3.01640625 4.55039062,3 4.12382812,3 C3.99726562,3 3.87421875,3.00117188 3.75351562,3.0046875 C3.75050173,3.00269104 3.74774643,3.00032934 3.7453125,2.99765625 L3.7453125,1.378125 C3.7453125,1.25976562 3.79335937,1.14140625 3.88710937,1.02539063 C3.97851562,0.909375 4.11914062,0.795703125 4.303125,0.690234375 C4.48359375,0.584765625 4.7015625,0.488671875 4.95234375,0.406640625 C5.22980518,0.317587342 5.51233992,0.245192708 5.7984375,0.18984375 C6.11601562,0.127734375 6.45117188,0.080859375 6.796875,0.048046875 C7.14257812,0.015234375 7.5,0 7.87148437,0 Z"></path></clipPath></defs><g transform="translate(6.0 6.0)"><g clip-path="url(#i0)"><polygon points="0,0 12,0 12,12 0,12 0,0" stroke="none" fill="#151515"></polygon></g></g></svg>