<?xml version="1.0" encoding="UTF-8"?><svg version="1.1" width="24px" height="24px" viewBox="0 0 24.0 24.0" xmlns="http://www.w3.org/2000/svg" xmlns:xlink="http://www.w3.org/1999/xlink"><defs><clipPath id="i0"><path d="M6.00117188,0 C9.30820312,0 12,2.69179687 12,6 C12,9.30820312 9.30820312,12 6.00117188,12 C2.69179687,12 0,9.30820312 0,6 C0,2.69179687 2.69179687,0 6.00117188,0 Z M6.00117187,1.49882813 C3.51914062,1.49882813 1.50117187,3.51796875 1.50117187,5.99882813 C1.50117187,8.48203125 3.51914062,10.4988281 6.00117187,10.4988281 C8.48203125,10.4988281 10.5011719,8.48085938 10.5011719,5.99882813 C10.5,3.51796875 8.48203125,1.49882813 6.00117187,1.49882813 Z M8.0625,3 C8.165625,3 8.25,3.084375 8.25,3.1875 L8.25,3.375 C8.25,5.25 6.375,5.23828125 6.375,6 C6.375,6.76171875 8.25,6.75 8.25,8.625 L8.25,8.8125 C8.25,8.915625 8.165625,9 8.0625,9 L3.9375,9 C3.834375,9 3.75,8.915625 3.75,8.8125 L3.75,8.625 C3.75,6.73828125 5.625,6.73828125 5.625,6 C5.625,5.26171875 3.75,5.23828125 3.75,3.375 L3.75,3.1875 C3.75,3.084375 3.834375,3 3.9375,3 Z M6.19804687,7.17539062 C6.00351562,7.10859375 6.00351562,7.10859375 5.803125,7.17539062 C5.62617187,7.23515625 5.0015625,7.43554688 4.91484375,8.0484375 C4.90078125,8.14453125 4.89023437,8.25 4.92539062,8.25 L7.07695312,8.25 C7.11210937,8.25 7.10039062,8.146875 7.0875,8.05078125 C7.003125,7.44609375 6.375,7.2375 6.19804687,7.17539062 Z"></path></clipPath></defs><g transform="translate(6.0 6.0)"><g clip-path="url(#i0)"><polygon points="0,0 12,0 12,12 0,12 0,0" stroke="none" fill="#151515"></polygon></g></g></svg>