<?xml version="1.0" encoding="UTF-8"?>
<svg width="24px" height="24px" viewBox="0 0 24 24" version="1.1" xmlns="http://www.w3.org/2000/svg" xmlns:xlink="http://www.w3.org/1999/xlink">
    <title></title>
    <g id="Icons" stroke="none" stroke-width="1" fill="none" fill-rule="evenodd">
        <g id="Icons/2.-Size-sm/Status/pficon-running" fill="#151515">
            <path d="M12,6 C8.6859375,6 6,8.6859375 6,12 C6,15.3140625 8.6859375,18 12,18 C15.3140625,18 18,15.3140625 18,12 C18,8.6859375 15.3140625,6 12,6 Z M7.81054688,10.2339844 C8.0484375,9.68554688 8.37539062,9.20273438 8.78789062,8.78789063 C9.20273438,8.37304688 9.684375,8.0484375 10.2339844,7.81054688 C10.7824219,7.57265625 11.371875,7.45429688 11.9964844,7.45429688 C12.6199219,7.45429688 13.209375,7.57265625 13.7589844,7.81054688 C14.3074219,8.0484375 14.7902344,8.37539063 15.2050781,8.78789063 C15.6199219,9.20273438 15.9445312,9.68554688 16.1824219,10.2339844 C16.340625,10.5902344 16.4449219,10.9570312 16.4988281,11.3425781 L14.5078125,11.3425781 C14.3121094,11.3425781 14.128125,11.4421875 14.0203125,11.6050781 L13.7519531,12.0152344 L12.4347656,9.40195313 C12.290625,9.11484375 11.9390625,8.99765625 11.653125,9.1453125 C11.5160156,9.21445313 11.4152344,9.3328125 11.3636719,9.47695313 L10.2234375,12.7921875 L9.69023437,11.6753906 C9.59414062,11.4714844 9.38789063,11.34375 9.16289062,11.34375 L7.5,11.34375 C7.55273438,10.9570312 7.65703125,10.5867187 7.81054688,10.2339844 Z M16.1859375,13.7660156 C15.9480469,14.3203125 15.6210938,14.8019531 15.2085938,15.2121094 C14.7960938,15.6222656 14.3121094,15.9457031 13.7625,16.1835938 C13.2140625,16.4214844 12.6246094,16.5398437 12,16.5398437 C11.3765625,16.5398437 10.7871094,16.4214844 10.2375,16.1835938 C9.6890625,15.9457031 9.20625,15.6210938 8.79140625,15.2121094 C8.3765625,14.803125 8.05195313,14.3203125 7.8140625,13.7660156 C7.64296875,13.3640625 7.5328125,12.946875 7.48476563,12.5097656 L8.79140625,12.5097656 L9.77929688,14.5828125 C9.87539063,14.7867187 10.0816406,14.9144531 10.3066406,14.9144531 L10.3382813,14.9144531 C10.5738281,14.9015625 10.7800781,14.7457031 10.8574219,14.5207031 L12.0140625,11.1632813 L13.1660156,13.4449219 C13.2597656,13.6300781 13.4472656,13.753125 13.6535156,13.7636719 C13.8515625,13.7742187 14.0601563,13.6757812 14.1726562,13.5011719 L14.8207031,12.5109375 L16.5128906,12.5109375 C16.4671875,12.946875 16.3582031,13.3664063 16.1859375,13.7660156 Z" id="pficon-running"></path>
        </g>
    </g>
</svg>