<?xml version="1.0" encoding="UTF-8"?>
<svg width="24px" height="24px" viewBox="0 0 24 24" version="1.1" xmlns="http://www.w3.org/2000/svg" xmlns:xlink="http://www.w3.org/1999/xlink">
    <title></title>
    <g id="Icons" stroke="none" stroke-width="1" fill="none" fill-rule="evenodd">
        <g id="Icons/2.-Size-sm/Status/pficon-disconnected" fill="#151515">
            <path d="M7.25195734,11.9872761 C7.25221355,11.3029755 7.40280734,10.6270873 7.69308937,10.007407 L6.76409372,9.0753585 C6.75117796,9.10001587 6.73720545,9.12349908 6.72428969,9.14815644 C5.53872101,11.3205514 5.82801068,14.0009403 7.44980335,15.8703417 C7.56915802,16.0065117 7.74132916,16.084748 7.92240288,16.0851186 C8.07381958,16.0860281 8.22021795,16.0308568 8.333359,15.9302239 C8.59543158,15.7025542 8.62114569,15.3034571 8.39206701,15.0405626 C7.65693374,14.1931919 7.25212422,13.1090862 7.25195734,11.9872761 Z M9.4985957,11.9972565 C9.4985957,11.9407793 9.50094402,11.8866506 9.5044665,11.8338133 L8.61480522,10.9422734 C8.2889436,11.982305 8.46408762,13.1146688 9.08893116,14.0076538 C9.18687883,14.1472683 9.3468365,14.2302499 9.51738226,14.2299479 C9.62484289,14.2306857 9.72985512,14.1978437 9.81773247,14.1359895 C10.0537189,13.9688206 10.1099142,13.6422052 9.94336763,13.4057792 C9.65274788,12.9935211 9.49733297,12.5011824 9.4985957,11.9967868 L9.4985957,11.9972565 Z M16.5959252,15.8140994 C18.4843202,13.5872053 18.4659213,10.3157121 16.5525987,8.11019872 C16.4437468,7.98413997 16.2890526,7.90678182 16.1228958,7.89531665 C15.9567391,7.88385148 15.7928858,7.93922918 15.6677514,8.04914238 C15.4050918,8.27692948 15.3793777,8.67614399 15.6068125,8.93903849 C17.0855253,10.645214 17.1260208,13.1667271 15.7028588,14.9195067 L14.8414948,14.0566162 C14.8560383,14.0408325 14.8693456,14.0239531 14.8812989,14.0061273 C15.2975271,13.4178686 15.5199818,12.7144686 15.5176937,11.9938514 C15.5176937,11.2624669 15.2962471,10.5627848 14.8730797,9.97100799 C14.7930617,9.85790334 14.6712956,9.78132114 14.5346927,9.75818679 C14.3980898,9.73505243 14.2578978,9.76727074 14.1451003,9.84772116 C13.9094464,10.0144519 13.8567266,10.3408685 14.0220483,10.5768747 C14.5985765,11.3889987 14.6264209,12.4692201 14.0924979,13.3099677 L13.2098816,12.4282907 C13.2615663,12.2876737 13.2877686,12.1389686 13.2872588,11.9891548 C13.2875187,11.2780725 12.7116955,10.7011983 12.0006139,10.7001616 C11.851022,10.6996852 11.7025472,10.7259288 11.5621825,10.7776561 L6.95865209,6.16015326 C6.74400824,5.94615788 6.39652749,5.94668357 6.18253212,6.16132742 C5.96853674,6.37597127 5.96906243,6.72345202 6.18370628,6.93744739 L7.40283694,8.15951345 L8.29590328,9.0518753 L9.90039336,10.6590659 L10.7887631,11.548962 L12.4344662,13.1972483 L17.0424583,17.8146337 C17.2570698,18.0288885 17.6047345,18.0285994 17.8189893,17.813988 C18.0332441,17.5993765 18.0329549,17.2517118 17.8183435,17.037457 L16.5959252,15.8140994 Z" id="pficon-disconnected"></path>
        </g>
    </g>
</svg>