<?xml version="1.0" encoding="UTF-8"?><svg version="1.1" width="24px" height="24px" viewBox="0 0 24.0 24.0" xmlns="http://www.w3.org/2000/svg" xmlns:xlink="http://www.w3.org/1999/xlink"><defs><clipPath id="i0"><path d="M6.00117188,0 C9.309375,0 12,2.69179687 12,6 C12,9.30820312 9.309375,12 6.00117188,12 C2.69296875,12 0,9.30820312 0,6 C0,2.69296875 2.69179687,0 6.00117188,0 Z M6,1.5 C3.51796875,1.5 1.5,3.51914063 1.5,6 C1.5,8.48320312 3.51796875,10.5 6,10.5 C8.48085938,10.5 10.5,8.48203125 10.5,6 C10.5,3.51796875 8.48085938,1.5 6,1.5 Z M9.0234375,4.5 C9.2484375,4.95234375 9.375,5.4609375 9.375,6 C9.375,7.86445313 7.86445312,9.375 6,9.375 C4.13554687,9.375 2.625,7.86445313 2.625,6 C2.625,5.4609375 2.75039062,4.95234375 2.97539063,4.5 Z"></path></clipPath></defs><g transform="translate(6.0 6.0)"><g clip-path="url(#i0)"><polygon points="0,0 12,0 12,12 0,12 0,0" stroke="none" fill="#151515"></polygon></g></g></svg>