<?xml version="1.0" encoding="UTF-8"?><svg version="1.1" width="24px" height="24px" viewBox="0 0 24.0 24.0" xmlns="http://www.w3.org/2000/svg" xmlns:xlink="http://www.w3.org/1999/xlink"><defs><clipPath id="i0"><path d="M6,0 C6.82617188,0 7.65234375,0.315234375 8.28398437,0.945703125 L11.0542969,3.7171875 C12.3152344,4.978125 12.3152344,7.02304687 11.0542969,8.28398437 L8.28398437,11.0542969 C7.65234375,11.6847656 6.82617188,12 6,12 C5.17382812,12 4.34765625,11.6847656 3.71601563,11.053125 L0.945703125,8.2828125 C-0.315234375,7.021875 -0.315234375,4.97695312 0.945703125,3.71601563 L3.71601563,0.945703125 C4.34765625,0.315234375 5.17382812,0 6,0 Z M7.05585938,1.85507812 C6.46992188,1.27265625 5.52304688,1.27265625 4.93828125,1.85625 L1.84921875,4.93710937 C1.26328125,5.521875 1.26328125,6.47109375 1.84804687,7.05703125 L4.94179687,10.1507812 C5.52890625,10.7367187 6.478125,10.7355469 7.0640625,10.1496094 L10.153125,7.05703125 C10.7378906,6.47109375 10.7378906,5.52304687 10.1519531,4.93710937 Z M6.55429687,7.49179687 C6.60585938,7.49179687 6.65039062,7.51054687 6.68671875,7.546875 C6.72304688,7.58554687 6.74179688,7.62773437 6.74179688,7.67929687 L6.74179688,8.80429687 C6.74179688,8.8546875 6.72421875,8.89921875 6.68671875,8.93671875 C6.64804687,8.97304687 6.60585938,8.99179687 6.55429687,8.99179687 L5.42929688,8.99179687 C5.37773438,8.99179687 5.33320313,8.97304687 5.296875,8.93671875 C5.26054688,8.89804687 5.24179688,8.85585937 5.24179688,8.80429687 L5.24179688,7.67929687 C5.24179688,7.62773437 5.26054688,7.58320312 5.296875,7.546875 C5.33554688,7.51054687 5.37773438,7.49179687 5.42929688,7.49179687 Z M6.10898438,2.971875 C7.3546875,2.971875 8.36367188,3.81328125 8.36367188,4.84804687 C8.36367188,5.8828125 7.35351563,6.75 6.10898438,6.75 L5.53125,6.75 C5.34492188,6.75 5.24179688,6.6890625 5.24179688,6.48984375 L5.24179688,6.11367188 C5.24179688,5.62265625 5.7,5.56757813 6.10898438,5.54296875 C6.51796875,5.51835938 6.83085938,5.17851562 6.83085938,4.846875 C6.83085938,4.18476563 5.4,4.24921875 5.4,4.76367188 C5.3671875,4.86914062 5.27929688,4.875 5.21484375,4.875 L4.02539063,4.875 C3.928125,4.875 3.8578125,4.85507813 3.8578125,4.771875 C3.91992188,3.95742187 4.2890625,2.971875 6.10898438,2.971875 Z"></path></clipPath></defs><g transform="translate(6.0 6.0)"><g clip-path="url(#i0)"><polygon points="-2.22044605e-16,0 12,0 12,12 -2.22044605e-16,12 -2.22044605e-16,0" stroke="none" fill="#151515"></polygon></g></g></svg>