<?xml version="1.0" encoding="UTF-8"?><svg version="1.1" width="24px" height="24px" viewBox="0 0 24.0 24.0" xmlns="http://www.w3.org/2000/svg" xmlns:xlink="http://www.w3.org/1999/xlink"><defs><clipPath id="i0"><path d="M6.32551978,0.0931712529 C6.39550457,0.13678439 6.45510054,0.195180448 6.50012793,0.264263803 L7.32395028,1.89315863 L9.235265,0.882892277 C9.54112223,0.766877466 9.8844792,0.916876414 10.0016659,1.21453057 C10.0324785,1.29108555 10.0456946,1.37358598 10.0403375,1.45593513 L9.75557385,3.30185969 L11.5590768,3.6562322 C11.874309,3.73943474 12.0641514,4.05818251 11.9786051,4.36650066 C11.9561449,4.44562712 11.9178742,4.51937802 11.8661059,4.58329601 L10.5864274,5.99996577 L11.8661059,7.41686989 C11.9651559,7.53488384 12.0124194,7.68786018 11.9972001,7.8411787 C11.9819807,7.99449722 11.9055651,8.13519641 11.7852471,8.23143449 C11.7200745,8.2834565 11.6445734,8.32100734 11.5637643,8.34158997 L9.70518358,8.64158787 L10.0438531,10.5414183 C10.0637748,10.8625098 9.81182346,11.1355548 9.48604449,11.1519609 C9.40188128,11.1574869 9.31752083,11.1446929 9.2387806,11.1144612 L7.35441882,10.1041948 L6.50012793,11.7356677 C6.32200418,12.0028534 5.95520988,12.0813684 5.68099305,11.9067603 C5.61100826,11.8631472 5.55141229,11.804751 5.5063849,11.7356677 L4.65232839,10.1041948 L2.7679666,11.1144612 C2.46210937,11.230476 2.11886959,11.080477 2.00168291,10.7828229 C1.97078759,10.7062889 1.95752983,10.6237784 1.96289412,10.5414183 L2.30156362,8.64158787 L0.442865718,8.34158997 C0.125289819,8.26073116 -0.0645525994,7.9419834 0.0209936757,7.63366525 C0.0434539307,7.55453879 0.0817246639,7.4807879 0.133492887,7.41686989 L1.41305423,5.99996577 L0.131149153,4.58306164 C0.0328568249,4.46416919 -0.013245711,4.31061529 0.00330283318,4.15724338 C0.0198513775,4.00387147 0.0976478431,3.86368603 0.219039162,3.76849704 C0.28421174,3.71647505 0.359712897,3.67892421 0.440521984,3.65834156 L2.24519683,3.30209406 L1.9604332,1.4561695 C1.94390988,1.13742174 2.19351751,0.864376782 2.5216402,0.847970647 C2.60464481,0.842710606 2.68780331,0.855504221 2.76538849,0.885470384 L4.65092215,1.89573673 L5.50521303,0.264263803 C5.68333678,-0.0029218233 6.05013109,-0.0814368977 6.32551978,0.0931712529 Z M6.57418991,3.74998154 L5.42576046,3.74998154 C5.32867984,3.74998154 5.24999024,3.82868094 5.24999024,3.92576156 L5.24999024,5.24997103 L3.92577098,5.24997103 C3.82842049,5.25042303 3.74979612,5.32957156 3.74999024,5.42692291 L3.74999024,6.57535236 C3.74999024,6.62186507 3.76854686,6.66645586 3.80154613,6.69923514 C3.8345454,6.73201441 3.87925931,6.75027268 3.92577098,6.74996051 L5.24999024,6.74996051 L5.24999024,8.07416997 C5.24999024,8.1712506 5.32867984,8.24994999 5.42576046,8.24994999 L6.57418991,8.24994999 C6.67127053,8.24994999 6.74996993,8.1712506 6.74996993,8.07416997 L6.74996993,6.74996051 L8.07417939,6.74996051 C8.12057288,6.75055576 8.16527313,6.73254994 8.19830043,6.69996301 C8.23132772,6.66737607 8.24996013,6.62292153 8.24996013,6.57652422 L8.24996013,5.42692291 C8.25015426,5.32957156 8.17152988,5.25042303 8.07417939,5.24997103 L6.74996993,5.25114289 L6.74996993,3.92576156 C6.74996993,3.82868094 6.67127053,3.74998154 6.57418991,3.74998154 Z"></path></clipPath></defs><g transform="translate(6.0 5.999999999999999)"><g clip-path="url(#i0)"><polygon points="0,-1.11022302e-16 12,-1.11022302e-16 12,11.9999315 0,11.9999315 0,-1.11022302e-16" stroke="none" fill="#151515"></polygon></g></g></svg>