<?xml version="1.0" encoding="UTF-8"?><svg version="1.1" width="24px" height="24px" viewBox="0 0 24.0 24.0" xmlns="http://www.w3.org/2000/svg" xmlns:xlink="http://www.w3.org/1999/xlink"><defs><clipPath id="i0"><path d="M6.00075,0 C9.30825,0 12,2.6925 12,6 C12,9.309 9.30825,12 6.00075,12 C2.691,12 0,9.309 0,6 C0,2.6925 2.691,0 6.00075,0 Z M6.00075,1.49925 C3.519,1.49925 1.50075,3.51825 1.50075,5.99925 C1.50075,8.4825 3.519,10.49925 6.00075,10.49925 C8.48175,10.49925 10.50075,8.48175 10.50075,5.99925 C10.5,3.51825 8.48175,1.49925 6.00075,1.49925 Z M3.093375,5.062875 C3.61114195,5.062875 4.030875,5.48260805 4.030875,6.000375 C4.030875,6.51814195 3.61114195,6.937875 3.093375,6.937875 C2.57560805,6.937875 2.155875,6.51814195 2.155875,6.000375 C2.155875,5.48260805 2.57560805,5.062875 3.093375,5.062875 Z M6.01134375,5.062875 C6.5291107,5.062875 6.94884375,5.48260805 6.94884375,6.000375 C6.94884375,6.51814195 6.5291107,6.937875 6.01134375,6.937875 C5.4935768,6.937875 5.07384375,6.51814195 5.07384375,6.000375 C5.07384375,5.48260805 5.4935768,5.062875 6.01134375,5.062875 Z M8.91759375,5.062875 C9.4353607,5.062875 9.85509375,5.48260805 9.85509375,6.000375 C9.85509375,6.51814195 9.4353607,6.937875 8.91759375,6.937875 C8.3998268,6.937875 7.98009375,6.51814195 7.98009375,6.000375 C7.98009375,5.48260805 8.3998268,5.062875 8.91759375,5.062875 Z"></path></clipPath></defs><g transform="translate(6.0 6.0)"><g clip-path="url(#i0)"><polygon points="0,0 12,0 12,12 0,12 0,0" stroke="none" fill="#151515"></polygon></g></g></svg>