<?xml version="1.0" encoding="UTF-8"?>
<svg width="24px" height="24px" viewBox="0 0 24 24" version="1.1" xmlns="http://www.w3.org/2000/svg" xmlns:xlink="http://www.w3.org/1999/xlink">
    <title></title>
    <g id="Icons" stroke="none" stroke-width="1" fill="none" fill-rule="evenodd">
        <g id="Icons/2.-Size-sm/Status/power-off" fill="#151515">
            <path d="M12.1874895,12.7499839 C12.4992029,12.7499839 12.7499882,12.4991987 12.7499882,12.1874852 L12.7499882,6.56249866 C12.7499882,6.25078523 12.4992029,6 12.1874895,6 L11.4374913,6 C11.1257779,6 10.8749926,6.25078523 10.8749926,6.56249866 L10.8749926,12.1874852 C10.8749926,12.4991987 11.1257779,12.7499839 11.4374913,12.7499839 L12.1874895,12.7499839 Z M11.8242091,17.812486 C15.0281123,17.8054452 17.6249765,15.2062235 17.6249765,11.9999857 C17.6249765,10.0476512 16.6640413,8.32264156 15.1874823,7.26795657 C14.9156171,7.07343036 14.535926,7.16015348 14.3718639,7.45078695 L14.0015568,8.10936997 C13.8632667,8.35312854 13.9265524,8.66484197 14.1539002,8.83359615 C15.1710716,9.58826354 15.7429543,10.7601357 15.749981,11.9742137 C15.7640343,14.1984134 13.9593511,15.9374763 11.8124904,15.9374763 C9.62108936,15.9374763 7.87266518,14.1609226 7.87499977,11.9976511 C7.87499977,10.7015421 8.49609204,9.55779944 9.46874597,8.83593074 C9.69609376,8.66717656 9.76171403,8.35546313 9.62342395,8.10936997 L9.25311691,7.45078695 C9.0890548,7.15781889 8.70702904,7.07578784 8.43280637,7.27031405 C6.95860486,8.32733362 5.99766966,10.0570124 6,12.0093698 C6.00469631,15.2109155 8.62499799,17.8194985 11.8242091,17.812486 Z" id="power-off"></path>
        </g>
    </g>
</svg>