<?xml version="1.0" encoding="UTF-8"?><svg version="1.1" width="24px" height="24px" viewBox="0 0 24.0 24.0" xmlns="http://www.w3.org/2000/svg" xmlns:xlink="http://www.w3.org/1999/xlink"><defs><clipPath id="i0"><path d="M8.37186386,1.45078695 C8.53592597,1.16015348 8.91561714,1.07343036 9.18748234,1.26795657 C10.6640413,2.32264156 11.6249765,4.04765118 11.6249765,5.99998569 C11.6249765,9.20622347 9.0281123,11.8054452 5.82420911,11.812486 C2.62499799,11.8194985 0.00469631085,9.21091554 4.4408921e-14,6.00936983 C-0.00233034476,4.05701242 0.958604864,2.32733362 2.43280637,1.27031405 C2.70702904,1.07578784 3.0890548,1.15781889 3.25311691,1.45078695 L3.62342395,2.10936997 C3.76171403,2.35546313 3.69609376,2.66717656 3.46874597,2.83593074 C2.49609204,3.55779944 1.87499977,4.70154214 1.87499977,5.99765111 C1.87266518,8.16092262 3.62108936,9.93747631 5.81249039,9.93747631 C7.95935111,9.93747631 9.76403431,8.19841338 9.749981,5.97421366 C9.74295434,4.76013575 9.17107155,3.58826354 8.15390021,2.83359615 C7.92655242,2.66484197 7.86326675,2.35312854 8.00155682,2.10936997 Z M6.18748949,0 C6.49920292,0 6.74998815,0.25078523 6.74998815,0.562498659 L6.74998815,6.18748525 C6.74998815,6.49919868 6.49920292,6.74998391 6.18748949,6.74998391 L5.43749128,6.74998391 C5.12577785,6.74998391 4.87499262,6.49919868 4.87499262,6.18748525 L4.87499262,0.562498659 C4.87499262,0.25078523 5.12577785,0 5.43749128,0 Z"></path></clipPath></defs><g transform="translate(6.000000000000001 6.000000000000001)"><g clip-path="url(#i0)"><polygon points="-4.22899736e-06,0 11.6249765,0 11.6249765,11.8125001 -4.22899736e-06,11.8125001 -4.22899736e-06,0" stroke="none" fill="#151515"></polygon></g></g></svg>