<?xml version="1.0" encoding="UTF-8"?><svg version="1.1" width="24px" height="24px" viewBox="0 0 24.0 24.0" xmlns="http://www.w3.org/2000/svg" xmlns:xlink="http://www.w3.org/1999/xlink"><defs><clipPath id="i0"><path d="M6.23862877,0.988316911 C7.10652374,0.120673716 8.32925337,-0.175819107 9.43971672,0.0993419798 C9.65275943,0.15230511 9.72753494,0.416685889 9.57237632,0.571844515 L7.82955973,2.31463821 L8.09465004,3.90556917 L9.685581,4.17065948 L11.4283976,2.4278429 C11.5826178,2.27362268 11.8474563,2.34535408 11.8999617,2.55697772 C12.1762672,3.66815061 11.880255,4.89275707 11.0114445,5.76159044 C10.0762814,6.69675362 8.7321531,6.95525215 7.55746565,6.56361337 L2.56036911,11.5607099 C1.97466189,12.1464171 1.02498764,12.1464171 0.439280416,11.5607099 C-0.146426805,10.9750027 -0.146426805,10.0253284 0.439280416,9.43962122 L5.44058838,4.43831326 C5.05387055,3.26408358 5.30957673,1.91736896 6.23862877,0.988316911 Z M1.50005364,9.93743803 C1.18950751,9.93743803 0.937554985,10.1891617 0.937554985,10.4999367 C0.937554985,10.8104828 1.18950751,11.0624353 1.50005364,11.0624353 C1.81059978,11.0624353 2.0625523,10.8104828 2.0625523,10.4999367 C2.0625523,10.1891617 1.81059978,9.93743803 1.50005364,9.93743803 Z"></path></clipPath></defs><g transform="translate(6.0 6.0)"><g clip-path="url(#i0)"><polygon points="-5.55111512e-17,6.21724894e-15 12.0000017,6.21724894e-15 12.0000017,11.9999903 -5.55111512e-17,11.9999903 -5.55111512e-17,6.21724894e-15" stroke="none" fill="#151515"></polygon></g></g></svg>