<?xml version="1.0" encoding="UTF-8"?>
<svg width="24px" height="24px" viewBox="0 0 24 24" version="1.1" xmlns="http://www.w3.org/2000/svg" xmlns:xlink="http://www.w3.org/1999/xlink">
    <title></title>
    <g id="Icons" stroke="none" stroke-width="1" fill="none" fill-rule="evenodd">
        <g id="Icons/2.-Size-sm/Status/wrench" fill="#151515">
            <path d="M8.56036911,17.5607099 L13.5574657,12.5636134 C14.7321531,12.9552521 16.0762814,12.6967536 17.0114445,11.7615904 C17.880255,10.8927571 18.1762672,9.66815061 17.8999617,8.55697772 C17.8474563,8.34535408 17.5826178,8.27362268 17.4283976,8.4278429 L15.685581,10.1706595 L14.09465,9.90556917 L13.8295597,8.31463821 L15.5723763,6.57184452 C15.7275349,6.41668589 15.6527594,6.15230511 15.4397167,6.09934198 C14.3292534,5.82418089 13.1065237,6.12067372 12.2386288,6.98831691 C11.3095767,7.91736896 11.0538705,9.26408358 11.4405884,10.4383133 L6.43928042,15.4396212 C5.85357319,16.0253284 5.85357319,16.9750027 6.43928042,17.5607099 C7.02498764,18.1464171 7.97466189,18.1464171 8.56036911,17.5607099 Z M7.50005364,17.0624353 C7.18950751,17.0624353 6.93755499,16.8104828 6.93755499,16.4999367 C6.93755499,16.1891617 7.18950751,15.937438 7.50005364,15.937438 C7.81059978,15.937438 8.0625523,16.1891617 8.0625523,16.4999367 C8.0625523,16.8104828 7.81059978,17.0624353 7.50005364,17.0624353 Z" id="wrench"></path>
        </g>
    </g>
</svg>