<?xml version="1.0" encoding="UTF-8"?>
<svg width="24px" height="24px" viewBox="0 0 24 24" version="1.1" xmlns="http://www.w3.org/2000/svg" xmlns:xlink="http://www.w3.org/1999/xlink">
    <title></title>
    <g id="Icons" stroke="none" stroke-width="1" fill="none" fill-rule="evenodd">
        <g id="Icons/1.-Size-md-(16px)/Object/code-branch" fill="#151515">
            <path d="M8.5,19.9999619 C9.88124685,19.9999619 10.9999881,18.8812206 10.9999881,17.4999678 C10.9999881,16.4374703 10.3374836,15.5281097 9.39998579,15.1687356 C9.49687887,15.0062299 9.64372911,14.8624619 9.86562189,14.7499744 C10.3718768,14.4937189 11.1281006,14.4249629 11.9312298,14.3499814 C13.2499827,14.2280945 14.743723,14.0874698 15.6249771,12.9937225 C16.062476,12.4499921 16.2843383,11.7499815 16.2999632,10.8718708 C17.2874792,10.5343472 17.9999714,9.59999275 17.9999714,8.49998927 C17.9999714,7.11873646 16.8812302,6 15.4999774,6 C14.1187245,6 12.9999833,7.11873646 12.9999833,8.49998927 C12.9999833,9.63749877 13.7593504,10.5968471 14.796854,10.8999774 C14.7781163,11.4031196 14.6655982,11.7906003 14.4531048,12.0531119 C13.9718438,12.6531166 12.9124896,12.7530919 11.7906051,12.8562411 C10.9093511,12.9374787 9.99687768,13.0249724 9.24999225,13.3843465 L9.24999225,8.88435725 C10.2656148,8.56560191 10.9999881,7.61873527 10.9999881,6.5 C10.9999881,5.11874123 9.88124685,4 8.5,4 C7.11874123,4 6,5.11874123 6,6.5 C6,7.61873527 6.73437325,8.56560191 7.74999583,8.88435725 L7.74999583,15.1124613 C6.73437325,15.4343599 6,16.3812266 6,17.4999678 C6,18.8812206 7.11874123,19.9999619 8.5,19.9999619 Z M8.49999404,6.99999404 C8.2250008,6.99999404 7.99999404,6.77498728 7.99999404,6.49999404 C7.99999404,6.2250008 8.2250008,5.99999404 8.49999404,5.99999404 C8.77498728,5.99999404 8.99999404,6.2250008 8.99999404,6.49999404 C8.99999404,6.77498728 8.77498728,6.99999404 8.49999404,6.99999404 Z M15.4999774,8.99998927 C15.2249841,8.99998927 14.9999774,8.77498251 14.9999774,8.49998927 C14.9999774,8.22499603 15.2249841,7.99998927 15.4999774,7.99998927 C15.7749706,7.99998927 15.9999774,8.22499603 15.9999774,8.49998927 C15.9999774,8.77498251 15.7749706,8.99998927 15.4999774,8.99998927 Z M8.49999404,17.9999678 C8.2250008,17.9999678 7.99999404,17.7749611 7.99999404,17.4999678 C7.99999404,17.2249746 8.2250008,16.9999678 8.49999404,16.9999678 C8.77498728,16.9999678 8.99999404,17.2249746 8.99999404,17.4999678 C8.99999404,17.7749611 8.77498728,17.9999678 8.49999404,17.9999678 Z" id="code-branch"></path>
        </g>
    </g>
</svg>