<?xml version="1.0" encoding="UTF-8"?>
<svg width="24px" height="24px" viewBox="0 0 24 24" version="1.1" xmlns="http://www.w3.org/2000/svg" xmlns:xlink="http://www.w3.org/1999/xlink">
    <title></title>
    <g id="Icons" stroke="none" stroke-width="1" fill="none" fill-rule="evenodd">
        <g id="Icons/1.-Size-md-(16px)/Object/cubes" fill="#151515">
            <path d="M16.2530836,18.8820012 L19.3780761,17.3195049 C19.7593313,17.1288621 19.9999619,16.738238 19.9999619,16.3132512 L19.9999619,12.8726466 C19.9999619,12.4038978 19.7093436,11.9851365 19.2687014,11.819518 L16.2499708,10.6882646 L16.2499708,7.29764772 C16.2499708,6.82889884 15.9593526,6.41013763 15.5187103,6.24451913 L12.3937178,5.07264692 C12.1406056,4.97578436 11.8593563,4.97578436 11.6031008,5.07264692 L8.47810822,6.24451913 C8.03749648,6.41013763 7.74687827,6.82889884 7.74687827,7.29764772 L7.74687827,10.6882646 L4.72811716,11.819518 C4.2906182,11.9851365 4,12.4038978 4,12.8726466 L4,16.3132512 C4,16.738238 4.24063053,17.1288621 4.62188572,17.3195049 L7.74687827,18.8820012 C8.06249031,19.0413636 8.43748942,19.0413636 8.75310146,18.8820012 L11.9999809,17.2570051 L15.2468604,18.8820012 C15.5624724,19.0413636 15.9374715,19.0413636 16.2530836,18.8820012 Z M11.9999809,8.56638249 L8.81248853,7.27265388 L8.81248853,7.25388562 L11.9999809,6.06016288 L15.1874733,7.25388562 L15.1874733,7.27265388 L11.9999809,8.56638249 Z M12.5312297,11.7101433 L12.5312297,9.57889228 L15.1874733,8.42264504 L15.1874733,10.7132585 L12.5312297,11.7101433 Z M8.24998987,14.1444942 L5.06249747,12.8507656 L5.06249747,12.8319973 L8.24998987,11.6382746 L11.4374823,12.8319973 L11.4374823,12.8507656 L8.24998987,14.1444942 Z M15.749972,14.1444942 L12.5624796,12.8507656 L12.5624796,12.8319973 L15.749972,11.6382746 L18.9374644,12.8319973 L18.9374644,12.8507656 L15.749972,14.1444942 Z M8.7812386,17.6788791 L8.7812386,15.2069917 L11.4374823,13.9945007 L11.4374823,16.3507572 L8.7812386,17.6788791 Z M16.2812207,17.6788791 L16.2812207,15.2069917 L18.9374644,13.9945007 L18.9374644,16.3507572 L16.2812207,17.6788791 Z" id="cubes"></path>
        </g>
    </g>
</svg>