<?xml version="1.0" encoding="UTF-8"?>
<svg width="24px" height="24px" viewBox="0 0 24 24" version="1.1" xmlns="http://www.w3.org/2000/svg" xmlns:xlink="http://www.w3.org/1999/xlink">
    <title></title>
    <g id="Icons" stroke="none" stroke-width="1" fill="none" fill-rule="evenodd">
        <g id="Icons/1.-Size-md-(16px)/Object/desktop" fill="#151515">
            <path d="M16.2499684,19.9999619 C16.6655863,19.9999619 16.9999666,19.6655815 16.9999666,19.2499636 C16.9999666,18.8343457 16.6655863,18.4999654 16.2499684,18.4999654 L13.9999738,18.4999654 L13.499975,16.999969 L19.4999607,16.999969 C20.3280837,16.999969 20.9999571,16.3280956 20.9999571,15.4999726 L20.9999571,5.5 C20.9999571,4.6718734 20.3280837,4 19.4999607,4 L4.5,4 C3.6718734,4 3,4.6718734 3,5.5 L3,15.4999726 C3,16.3280956 3.6718734,16.999969 4.5,16.999969 L10.4999821,16.999969 L9.99998331,18.4999654 L7.74998868,18.4999654 C7.33437077,18.4999654 7,18.8343457 7,19.2499636 C7,19.6655815 7.33437077,19.9999619 7.74998868,19.9999619 L16.2499684,19.9999619 Z M18.9999619,14.9999738 L4.99999523,14.9999738 L4.99999523,5.99999523 L18.9999619,5.99999523 L18.9999619,14.9999738 Z" id="desktop"></path>
        </g>
    </g>
</svg>