<?xml version="1.0" encoding="UTF-8"?>
<svg width="24px" height="24px" viewBox="0 0 24 24" version="1.1" xmlns="http://www.w3.org/2000/svg" xmlns:xlink="http://www.w3.org/1999/xlink">
    <title></title>
    <g id="Icons" stroke="none" stroke-width="1" fill="none" fill-rule="evenodd">
        <g id="Icons/1.-Size-md-(16px)/Object/microchip" fill="#151515">
            <path d="M15.4999726,19.9999619 C16.3284008,19.9999619 16.999969,19.3283936 16.999969,18.4999654 L16.999969,5.5 C16.999969,4.67156822 16.3284008,4 15.4999726,4 L8.49999285,4 C7.67156107,4 6.99999285,4.67156822 6.99999285,5.5 L6.99999285,18.4999654 C6.99999285,19.3283936 7.67156107,19.9999619 8.49999285,19.9999619 L15.4999726,19.9999619 Z M19.0624641,8.24999344 C19.1659489,8.24999344 19.2499672,8.16597517 19.2499672,8.06249031 L19.2499672,7.87499076 L19.8124623,7.87499076 C19.9159472,7.87499076 19.9999619,7.79097607 19.9999619,7.68749121 L19.9999619,7.3124921 C19.9999619,7.20900724 19.9159472,7.12499255 19.8124623,7.12499255 L19.2499672,7.12499255 L19.2499672,6.937493 C19.2499672,6.83400814 19.1659489,6.74999344 19.0624641,6.74999344 L17.7499672,6.74999344 L17.7499672,8.24999344 L19.0624641,8.24999344 Z M6.24999464,8.24999344 L6.24999464,6.74999344 L4.93749776,6.74999344 C4.8340129,6.74999344 4.74999821,6.83400814 4.74999821,6.937493 L4.74999821,7.12499255 L4.18749955,7.12499255 C4.08401469,7.12499255 4,7.20900724 4,7.3124921 L4,7.68749121 C4,7.79097607 4.08401469,7.87499076 4.18749955,7.87499076 L4.74999821,7.87499076 L4.74999821,8.06249031 C4.74999821,8.16597517 4.8340129,8.24999344 4.93749776,8.24999344 L6.24999464,8.24999344 Z M19.0624641,11.2499863 C19.1659489,11.2499863 19.2499672,11.165968 19.2499672,11.0624832 L19.2499672,10.8749836 L19.8124623,10.8749836 C19.9159472,10.8749836 19.9999619,10.7909689 19.9999619,10.6874841 L19.9999619,10.3124849 C19.9999619,10.2090001 19.9159472,10.1249854 19.8124623,10.1249854 L19.2499672,10.1249854 L19.2499672,9.93748584 C19.2499672,9.83400098 19.1659489,9.74998629 19.0624641,9.74998629 L17.7499672,9.74998629 L17.7499672,11.2499863 L19.0624641,11.2499863 Z M6.24999464,11.2499863 L6.24999464,9.74998629 L4.93749776,9.74998629 C4.8340129,9.74998629 4.74999821,9.83400098 4.74999821,9.93748584 L4.74999821,10.1249854 L4.18749955,10.1249854 C4.08401469,10.1249854 4,10.2090001 4,10.3124849 L4,10.6874841 C4,10.7909689 4.08401469,10.8749836 4.18749955,10.8749836 L4.74999821,10.8749836 L4.74999821,11.0624832 C4.74999821,11.165968 4.8340129,11.2499863 4.93749776,11.2499863 L6.24999464,11.2499863 Z M19.0624641,14.2499791 C19.1659489,14.2499791 19.2499672,14.1659609 19.2499672,14.062476 L19.2499672,13.8749765 L19.8124623,13.8749765 C19.9159472,13.8749765 19.9999619,13.7909618 19.9999619,13.6874769 L19.9999619,13.3124778 C19.9999619,13.2089929 19.9159472,13.1249782 19.8124623,13.1249782 L19.2499672,13.1249782 L19.2499672,12.9374787 C19.2499672,12.8339938 19.1659489,12.7499791 19.0624641,12.7499791 L17.7499672,12.7499791 L17.7499672,14.2499791 L19.0624641,14.2499791 Z M6.24999464,14.2499791 L6.24999464,12.7499791 L4.93749776,12.7499791 C4.8340129,12.7499791 4.74999821,12.8339938 4.74999821,12.9374787 L4.74999821,13.1249782 L4.18749955,13.1249782 C4.08401469,13.1249782 4,13.2089929 4,13.3124778 L4,13.6874769 C4,13.7909618 4.08401469,13.8749765 4.18749955,13.8749765 L4.74999821,13.8749765 L4.74999821,14.062476 C4.74999821,14.1659609 4.8340129,14.2499791 4.93749776,14.2499791 L6.24999464,14.2499791 Z M19.0624641,17.249972 C19.1659489,17.249972 19.2499672,17.1659537 19.2499672,17.0624689 L19.2499672,16.8749693 L19.8124623,16.8749693 C19.9159472,16.8749693 19.9999619,16.7909546 19.9999619,16.6874698 L19.9999619,16.3124706 C19.9999619,16.2089858 19.9159472,16.1249711 19.8124623,16.1249711 L19.2499672,16.1249711 L19.2499672,15.9374715 C19.2499672,15.8339867 19.1659489,15.749972 19.0624641,15.749972 L17.7499672,15.749972 L17.7499672,17.249972 L19.0624641,17.249972 Z M6.24999464,17.249972 L6.24999464,15.749972 L4.93749776,15.749972 C4.8340129,15.749972 4.74999821,15.8339867 4.74999821,15.9374715 L4.74999821,16.1249711 L4.18749955,16.1249711 C4.08401469,16.1249711 4,16.2089858 4,16.3124706 L4,16.6874698 C4,16.7909546 4.08401469,16.8749693 4.18749955,16.8749693 L4.74999821,16.8749693 L4.74999821,17.0624689 C4.74999821,17.1659537 4.8340129,17.249972 4.93749776,17.249972 L6.24999464,17.249972 Z" id="microchip"></path>
        </g>
    </g>
</svg>