<?xml version="1.0" encoding="UTF-8"?>
<svg width="24px" height="24px" viewBox="0 0 24 24" version="1.1" xmlns="http://www.w3.org/2000/svg" xmlns:xlink="http://www.w3.org/1999/xlink">
    <title></title>
    <g id="Icons" stroke="none" stroke-width="1" fill="none" fill-rule="evenodd">
        <g id="Icons/1.-Size-md-(16px)/Object/pficon-resource-pool" fill="#151515">
            <path d="M18,4 L7,4 C6.4484375,4 6,4.4484375 6,5 L6,16 C6,16.5515625 6.4484375,17 7,17 L6.9609375,20 L17.9609375,20 L17.9609375,17 C18.5125,17 19,16.5515625 19,16 L19,5 C19,4.4484375 18.5515625,4 18,4 Z M9,18.959375 L8,18.959375 L8,16.959375 L9,16.959375 L9,18.959375 Z M11,18.959375 L10,18.959375 L10,16.959375 L11,16.959375 L11,18.959375 Z M13,18.959375 L12,18.959375 L12,16.959375 L13,16.959375 L13,18.959375 Z M15,18.959375 L14,18.959375 L14,16.959375 L15,16.959375 L15,18.959375 Z M15.984375,9 L15,9 L15,10 L15.984375,10 L15.984375,11 L15,11 L15,12 L15.984375,12 L15.984375,13 L15,13 L15,14 L14,14 L14,13 L13,13 L13,14 L12,14 L12,13 L11,13 L11,14 L10,14 L10,13 L9,13 L9,12 L10,12 L10,11 L9,11 L9,10 L10,10 L10,9 L9,9 L9,8 L10,8 L10,7 L11,7 L11,8 L12,8 L12,7 L13,7 L13,8 L14,8 L14,7 L15,7 L15,8 L15.984375,8 L15.984375,9 Z M17,18.959375 L16,18.959375 L16,16.959375 L17,16.959375 L17,18.959375 Z" id="pficon-resource-pool"></path>
        </g>
    </g>
</svg>