<?xml version="1.0" encoding="UTF-8"?>
<svg width="24px" height="24px" viewBox="0 0 24 24" version="1.1" xmlns="http://www.w3.org/2000/svg" xmlns:xlink="http://www.w3.org/1999/xlink">
    <title></title>
    <g id="Icons" stroke="none" stroke-width="1" fill="none" fill-rule="evenodd">
        <g id="Icons/1.-Size-md-(16px)/Object/pficon-integration" fill="#151515">
            <path d="M19.1823529,10.2161765 C18.8838235,10.2161765 18.6544118,10.4544118 18.4926471,10.6823529 C18.3308824,10.9102941 18.1176471,10.5029412 18.1176471,10.15 L18.1176471,8.58235294 C18.1189406,8.39707259 18.0462129,8.21894268 17.9156116,8.08751297 C17.7850102,7.95608328 17.6073436,7.88223084 17.4220588,7.88235294 L16.3352941,7.88235294 C15.8588235,7.88235294 15.6676471,7.75882353 15.8632353,7.54705882 C16.0941176,7.29852941 16.2426471,7.08970588 16.2426471,6.82205882 C16.2426471,6.36764706 15.8161765,6 15.2882353,6 C14.7602941,6 14.3338235,6.36764706 14.3338235,6.82205882 C14.3338235,7.12058824 14.4514706,7.29117647 14.6941176,7.525 C14.9294118,7.75147059 14.7044118,7.88235294 14.2794118,7.88235294 L13.1941176,7.88235294 C12.8023539,7.88061609 12.4809782,8.19219374 12.4705882,8.58382353 L12.4705882,9.35147059 C12.5691176,9.33676471 12.5941176,9.32794118 12.6852941,9.32794118 C13.6117647,9.32794118 14.3647059,10.1794118 14.3647059,11.2308824 C14.3647059,12.2823529 13.6132353,13.1338235 12.6852941,13.1338235 C12.5941176,13.1338235 12.5691176,13.125 12.4705882,13.1102941 L12.4705882,14.6985294 C12.4705882,15.0852941 12.7,15.4117647 13.0882353,15.4117647 L14.2941176,15.4117647 C14.7764706,15.4117647 14.9867647,15.5073529 14.7588235,15.7588235 C14.5308824,16.0102941 14.3338235,16.2073529 14.3338235,16.4867647 C14.3338235,16.9338235 14.7602941,17.2941176 15.2882353,17.2941176 C15.8161765,17.2941176 16.2426471,16.9323529 16.2426471,16.4867647 C16.2426471,16.2279412 16.1764706,16.0411765 15.8735294,15.8 C15.5705882,15.5588235 15.8235294,15.4073529 16.3220588,15.4073529 L17.4764706,15.4073529 C17.8632353,15.4073529 18.1176471,15.0647059 18.1176471,14.6779412 L18.1176471,12.1602941 C18.1176471,11.8147059 18.3235294,11.3676471 18.4779412,11.6279412 C18.6323529,11.8882353 18.8735294,12.1205882 19.1823529,12.1205882 C19.6338235,12.1205882 20,11.6941176 20,11.1676471 C20,10.6411765 19.6338235,10.2161765 19.1823529,10.2161765 M13.4911765,11.1676471 C13.4911765,10.6411765 13.1294118,10.2147059 12.6808824,10.2147059 C12.3897059,10.2147059 12.1573529,10.3735294 11.9926471,10.6661765 C11.8279412,10.9588235 11.5294118,10.5147059 11.5294118,10.1352941 L11.5294118,9.51764706 C11.5294118,9.13088235 11.2073529,8.82352941 10.8205882,8.82352941 L9.60441176,8.82352941 C9.08676471,8.82352941 8.95294118,8.74852941 9.18970588,8.44117647 C9.44705882,8.14264706 9.57205882,7.95882353 9.57205882,7.70147059 C9.57205882,7.26470588 9.14558824,6.91176471 8.61764706,6.91176471 C8.08970588,6.91176471 7.66323529,7.26470588 7.66323529,7.70147059 C7.66323529,7.92205882 7.75882353,8.08676471 7.98382353,8.39852941 C8.20882353,8.71029412 8.13088235,8.82352941 7.58970588,8.82352941 L6.59558824,8.82352941 C6.20735294,8.82352941 5.88235294,9.11764706 5.88235294,9.50441176 L5.88235294,10.1220588 C5.88235294,10.4647059 5.75588235,10.8647059 5.50588235,10.6544118 C5.25588235,10.4441176 5.11029412,10.2147059 4.81617647,10.2147059 C4.35735294,10.2161765 4,10.6426471 4,11.1676471 C4,11.6926471 4.35735294,12.1205882 4.81911765,12.1205882 C5.12794118,12.1205882 5.36176471,11.9161765 5.53235294,11.6441176 C5.70294118,11.3720588 5.88235294,11.8441176 5.88235294,12.1735294 L5.88235294,15.6014706 C5.88235294,15.9882353 6.26617647,16.3397059 6.66764706,16.3529412 L7.49705882,16.3529412 C7.38088235,16.1338235 7.32941176,15.8720588 7.32941176,15.6397059 C7.32941176,14.8397059 7.72647059,14.4764706 8.60441176,14.4514706 L8.58823529,14.4514706 C9.23235294,14.4367647 9.76323529,14.8147059 9.76323529,15.6397059 C9.759568,15.8867745 9.70237159,16.1301101 9.59558824,16.3529412 L10.8088235,16.3529412 C11.1970588,16.3529412 11.5294118,16.0014706 11.5294118,15.6147059 L11.5294118,12.1602941 C11.5294118,11.7867647 11.8352941,11.3367647 11.9735294,11.6294118 C12.1117647,11.9220588 12.3764706,12.1205882 12.6808824,12.1205882 C13.1294118,12.1205882 13.4911765,11.6941176 13.4911765,11.1676471" id="pficon-integration"></path>
        </g>
    </g>
</svg>