<?xml version="1.0" encoding="UTF-8"?>
<svg width="24px" height="24px" viewBox="0 0 24 24" version="1.1" xmlns="http://www.w3.org/2000/svg" xmlns:xlink="http://www.w3.org/1999/xlink">
    <title></title>
    <g id="Icons" stroke="none" stroke-width="1" fill="none" fill-rule="evenodd">
        <g id="Icons/1.-Size-md-(16px)/Object/pficon-catalog" fill="#151515">
            <path d="M12.4705882,6.88235294 C14.1073529,5.83235294 16.8617647,5 18.1176471,5 L18.1176471,16.2941176 C17.2176471,16.0455882 14.8529412,15.7132353 12.4705882,17.2352941 L12.4705882,6.88235294 Z M19.0588235,5.94117647 C20,5.94117647 20,6.92352941 20,6.92352941 L20,18.1764706 C20,19.1176471 18.4955882,19.0867647 18.4955882,19.0867647 C16.6926471,16.3632353 12.4705882,19.1176471 12.4705882,19.1176471 L12.4705882,18.1382353 C16.6911765,15.2455882 19.0588235,18.1764706 19.0588235,18.1764706 L19.0588235,5.94117647 Z M5.88235294,16.2941176 L5.88235294,5 C7.13088235,5 9.89117647,5.82794118 11.5294118,6.88235294 L11.5294118,17.2352941 C9.17647059,15.7132353 6.78382353,16.0470588 5.88235294,16.2941176 Z M11.5294118,18.1382353 L11.5294118,19.1176471 C11.5294118,19.1176471 7.35147059,16.3794118 5.50735294,19.0867647 C5.50735294,19.0867647 4,19.1176471 4,18.1764706 L4,6.92352941 C4,6.92352941 4,5.94117647 4.94117647,5.94117647 L4.94117647,18.1764706 C4.94117647,18.175 7.32352941,15.2455882 11.5294118,18.1382353 Z" id="pficon-catalog"></path>
        </g>
    </g>
</svg>