<?xml version="1.0" encoding="UTF-8"?>
<svg width="24px" height="24px" viewBox="0 0 24 24" version="1.1" xmlns="http://www.w3.org/2000/svg" xmlns:xlink="http://www.w3.org/1999/xlink">
    <title></title>
    <g id="Icons" stroke="none" stroke-width="1" fill="none" fill-rule="evenodd">
        <g id="Icons/1.-Size-md-(16px)/Object/pficon-network-range" fill="#151515">
            <path d="M14.2765625,9 C14.2765625,9.5515625 13.765625,10 13.1375,10 L11.9953125,10 L11.9953125,8 L13.1375,8 C13.765625,8 14.2765625,8.4484375 14.2765625,9 Z M17.5921875,10.046875 C17.5921875,11.3375 17.1875,12.5328125 16.4984375,13.515625 C16.484375,13.534375 16.471875,13.553125 16.4578125,13.56875 L12.0421875,19.4359375 C12.0421875,19.4359375 11.7171875,19.99375 11.30625,19.99375 C11.30625,19.99375 10.9375,20.071875 10.56875,19.4390625 L6.134375,13.56875 C6.121875,13.553125 6.1109375,13.5375 6.1,13.521875 L6.09375,13.5140625 C5.4046875,12.5328125 5,11.3359375 5,10.0453125 C5,6.70625 7.9578125,4 11.296875,4 C14.625,4 17.5921875,6.70625 17.5921875,10.046875 Z M9.9953125,7 L8.9953125,7 L8.9953125,14 L9.9953125,14 L9.9953125,7 Z M15.4953125,9 C15.4953125,7.740625 14.540625,7 13.28125,7 L10.9953125,7 L10.9953125,14 L11.9953125,14 L11.9953125,11 L13.28125,11.003125 C14.5390625,11.003125 15.4953125,10.259375 15.4953125,9 Z M19.953125,10.421875 C19.9484375,11.3265625 20.0765625,12.271875 19.29375,13.46875 C19.2796875,13.4875 19.2671875,13.50625 19.253125,13.525 L14.9,19.4390625 C14.9,19.4390625 14.5828125,19.9999546 13.95,19.996875 C13.95,19.996875 13.3984375,20.0609375 13.06875,19.6046875 C13.14375,19.5109375 13.1859375,19.4375 13.1859375,19.4375 L17.7890625,13.2984375 C17.803125,13.2796875 17.8171875,13.2609375 17.8296875,13.2421875 C18.51875,12.259375 18.7359375,11.3359375 18.7359375,10.0453125 C18.7359375,8.9046875 18.4296875,7.853125 17.859375,6.946875 C17.603125,6.59375 17.2125,6.1578125 17.2125,6.1578125 C17.1640625,6.115625 17.1109375,6.0640625 17.0609375,6.0078125 C17.0296875,5.971875 16.9984375,5.9328125 16.9734375,5.8921875 C16.9078125,5.81875 16.8671875,5.721875 16.8671875,5.615625 C16.8671875,5.3875 17.053125,5.2015625 17.28125,5.2015625 C17.4109375,5.2015625 17.525,5.2609375 17.6015625,5.353125 C17.7109375,5.428125 17.840625,5.540625 17.9953125,5.7109375 C18.1671875,5.9015625 18.3375,6.090625 18.503125,6.2890625 C19.3703125,7.3203125 19.9625,8.6953125 19.953125,10.421875 L19.953125,10.421875 L19.953125,10.421875 Z" id="pficon-network-range"></path>
        </g>
    </g>
</svg>