<?xml version="1.0" encoding="UTF-8"?>
<svg width="24px" height="24px" viewBox="0 0 24 24" version="1.1" xmlns="http://www.w3.org/2000/svg" xmlns:xlink="http://www.w3.org/1999/xlink">
    <title></title>
    <g id="Icons" stroke="none" stroke-width="1" fill="none" fill-rule="evenodd">
        <g id="Icons/1.-Size-md-(16px)/Object/tag" fill="#151515">
            <path d="M13.1819544,19.5606318 L19.5606318,13.1819544 C20.1463848,12.5961709 20.1463848,11.6464051 19.5606318,11.0606521 L12.9393097,4.43933001 C12.6968176,4.19683791 12.2216296,4 11.8786738,4 L5.5,4 C4.67156822,4 4,4.67156822 4,5.5 L4,11.8786738 C4,12.2216296 4.19683791,12.6968176 4.43933001,12.9393097 L11.0606521,19.5606318 C11.6464051,20.1463848 12.5961709,20.1463848 13.1819544,19.5606318 Z M7.49999523,8.99999523 C6.67156345,8.99999523 5.99999523,8.32841986 5.99999523,7.49999523 C5.99999523,6.67156345 6.67156345,5.99999523 7.49999523,5.99999523 C8.32841986,5.99999523 8.99999523,6.67156345 8.99999523,7.49999523 C8.99999523,8.32841986 8.32841986,8.99999523 7.49999523,8.99999523 Z" id="tag"></path>
        </g>
    </g>
</svg>