<?xml version="1.0" encoding="UTF-8"?><svg version="1.1" width="193px" height="93px" viewBox="0 0 193.0 93.0" xmlns="http://www.w3.org/2000/svg" xmlns:xlink="http://www.w3.org/1999/xlink"><defs><clipPath id="i0"><path d="M193,0 L193,93 L0,93 L0,0 L193,0 Z"></path></clipPath><clipPath id="i1"><path d="M7.7007141,0.749540607 C8.27780012,-0.250762184 9.72320073,-0.248931134 10.2992797,0.749540607 L17.7973697,13.7503641 C18.3741811,14.7501786 17.6501533,15.999962 16.4981174,15.999962 L1.50169323,15.999962 C0.347429627,15.999962 -0.373271779,14.748256 0.202410442,13.7503641 Z M8.99999689,11.0624738 C8.20608399,11.0624738 7.56250032,11.7060575 7.56250032,12.4999704 C7.56250032,13.2938833 8.20608399,13.9374669 8.99999689,13.9374669 C9.79390979,13.9374669 10.4374935,13.2938833 10.4374935,12.4999704 C10.4374935,11.7060575 9.79390979,11.0624738 8.99999689,11.0624738 Z M9.99035097,5.49998704 L8.00961229,5.49998704 C7.79449439,5.49998704 7.62350481,5.68062016 7.63522353,5.89543288 L7.8670345,10.1454227 C7.87786822,10.3442748 8.04229654,10.4999751 8.24145378,10.4999751 L9.75854,10.4999751 C9.95769724,10.4999751 10.1221256,10.3442748 10.1329593,10.1454227 L10.3647702,5.89543288 C10.376489,5.68062016 10.2054689,5.49998704 9.99035097,5.49998704 Z"></path></clipPath><clipPath id="i2"><path d="M0.98282389,0.287818222 C1.36688669,-0.0959394075 1.98907759,-0.0959394075 2.37280471,0.287818222 L5.5,3.41500803 L8.62718433,0.287818222 C9.01124713,-0.0959394075 9.63340751,-0.0959394075 10.0171651,0.287818222 L10.7121708,0.98282389 C11.0959284,1.36688669 11.0959284,1.98907759 10.7121708,2.37280471 L7.584981,5.5 L10.7121708,8.62718433 C11.0959284,9.01124713 11.0959284,9.63340751 10.7121708,10.0171651 L10.0171651,10.7121708 C9.63340751,11.0959284 9.01091144,11.0959284 8.62718433,10.7121708 L5.5,7.584981 L2.37280471,10.7121708 C1.98907759,11.0959284 1.36658152,11.0959284 0.98282389,10.7121708 L0.287818222,10.0171651 C-0.0959394075,9.63310234 -0.0959394075,9.01091144 0.287818222,8.62718433 L3.41500803,5.5 L0.287818222,2.37280471 C-0.0959394075,1.9887419 -0.0959394075,1.36658152 0.287818222,0.98282389 Z"></path></clipPath><clipPath id="i3"><path d="M87,0 L87,20 L0,20 L0,0 L87,0 Z"></path></clipPath><clipPath id="i4"><path d="M0.923421565,0.22032113 C1.21718307,-0.0734403767 1.69218804,-0.0734403767 1.98280625,0.22032113 L6.23279611,4.470311 C6.52967041,4.7640725 6.52967041,5.23904696 6.2359089,5.53280846 L1.98591903,9.78279833 C1.69218804,10.0765598 1.21718307,10.0765598 0.926564869,9.78279833 L0.220298242,9.07656222 C-0.0734327473,8.78280072 -0.0734327473,8.30779574 0.220298242,8.01717754 L3.23280327,5.00467252 L0.220298242,1.99219801 C-0.0734327473,1.6984365 -0.0734327473,1.22343153 0.220298242,0.932813328 Z"></path></clipPath><clipPath id="i5"><path d="M193,0 L193,3 L0,3 L0,0 L193,0 Z"></path></clipPath><clipPath id="i6"><path d="M16,0 L16,93 L0,93 L0,0 L16,0 Z"></path></clipPath><clipPath id="i7"><path d="M4,0 L4,61 L0,61 L0,0 L4,0 Z"></path></clipPath><clipPath id="i8"><path d="M139,0 L139,16 L0,16 L0,0 L139,0 Z"></path></clipPath><clipPath id="i9"><path d="M24,0 L24,21 L0,21 L0,0 L24,0 Z"></path></clipPath></defs><g clip-path="url(#i0)"><polygon points="0,0 193,0 193,93 0,93 0,0" stroke="none" fill="#FDF7E7"></polygon></g><g transform="translate(41.0 16.0)"><g transform="translate(3.000000000000057 4.000000000000001)"><g clip-path="url(#i1)"><polygon points="-1.77635684e-15,-4.42978987e-14 17.9999599,-4.42978987e-14 17.9999599,15.999962 -1.77635684e-15,15.999962 -1.77635684e-15,-4.42978987e-14" stroke="none" fill="#F0AB00"></polygon></g></g></g><g transform="translate(153.0 16.0)"><g transform="translate(7.000000000000001 7.000000000000001)"><g clip-path="url(#i2)"><polygon points="0,0 10.999989,0 10.999989,10.999989 0,10.999989 0,0" stroke="none" fill="#696E73"></polygon></g></g></g><g transform="translate(131.0 56.0)"><text transform="translate(0.0 14.0)" font-family="RedHatText-Regular, Red Hat Text" font-size="14.0" font-weight="normal" fill="#0066CC" text-anchor="left" line-spacing="21.0">Action</text></g><g transform="translate(66.0 56.0)"><text transform="translate(0.0 14.0)" font-family="RedHatText-Regular, Red Hat Text" font-size="14.0" font-weight="normal" fill="#0066CC" text-anchor="left" line-spacing="21.0">Action</text></g><g transform="translate(66.0 18.0)"><g clip-path="url(#i3)"><text transform="translate(0.0 14.0)" font-family="RedHatText-Medium, Red Hat Text" font-size="14.0" font-weight="400" fill="#795500" text-anchor="left" line-spacing="21.0">Title</text></g></g><g transform="translate(7.0 16.0)"><g transform="translate(9.0 6.999999999999999)"><g clip-path="url(#i4)"><polygon points="-2.77555756e-17,-2.77555756e-17 6.45584247,-2.77555756e-17 6.45584247,10.0031195 -2.77555756e-17,10.0031195 -2.77555756e-17,-2.77555756e-17" stroke="none" fill="#696E73"></polygon></g></g></g><g clip-path="url(#i5)"><polygon points="0,0 193,0 193,3 0,3 0,0" stroke="none" fill="#F0AB00"></polygon></g><g transform="translate(16.0 0.0) scale(-1.0 1.0)"><g clip-path="url(#i6)"><polygon points="0,0 16,0 16,93 0,93 0,0" stroke="none" fill="rgba(62, 156, 52, 0.9)"></polygon></g><g clip-path="url(#i6)"><polygon points="0,0 16,0 16,93 0,93 0,0 0,0" stroke="#418A37" stroke-width="2" fill="none" stroke-miterlimit="5"></polygon></g></g><g transform="translate(38.5 0.0) scale(-1.0 1.0)"><g clip-path="url(#i6)"><polygon points="0,0 16,0 16,93 0,93 0,0" stroke="none" fill="rgba(62, 156, 52, 0.9)"></polygon></g><g clip-path="url(#i6)"><polygon points="0,0 16,0 16,93 0,93 0,0 0,0" stroke="#418A37" stroke-width="2" fill="none" stroke-miterlimit="5"></polygon></g></g><g transform="translate(193.0 0.0) scale(-1.0 1.0)"><g clip-path="url(#i6)"><polygon points="0,0 16,0 16,93 0,93 0,0" stroke="none" fill="rgba(62, 156, 52, 0.9)"></polygon></g><g clip-path="url(#i6)"><polygon points="0,0 16,0 16,93 0,93 0,0 0,0" stroke="#418A37" stroke-width="2" fill="none" stroke-miterlimit="5"></polygon></g></g><g transform="translate(66.0 16.0) scale(-1.0 1.0)"><g clip-path="url(#i7)"><polygon points="0,0 4,0 4,61 0,61 0,0" stroke="none" fill="rgba(236, 121, 8, 0.9)"></polygon></g><g clip-path="url(#i7)"><polygon points="0,0 4,0 4,61 0,61 0,0 0,0" stroke="#C67000" stroke-width="2" fill="none" stroke-miterlimit="5"></polygon></g></g><g transform="translate(38.0 0.0)"><g clip-path="url(#i8)"><polygon points="0,0 139,0 139,16 0,16 0,0" stroke="none" fill="rgba(62, 156, 52, 0.9)"></polygon></g><g clip-path="url(#i8)"><polygon points="0,0 139,0 139,16 0,16 0,0 0,0" stroke="#418A37" stroke-width="2" fill="none" stroke-miterlimit="5"></polygon></g></g><g transform="translate(38.0 40.0)"><g clip-path="url(#i8)"><polygon points="0,0 139,0 139,16 0,16 0,0" stroke="none" fill="rgba(62, 156, 52, 0.9)"></polygon></g><g clip-path="url(#i8)"><polygon points="0,0 139,0 139,16 0,16 0,0 0,0" stroke="#418A37" stroke-width="2" fill="none" stroke-miterlimit="5"></polygon></g></g><g transform="translate(38.0 77.0)"><g clip-path="url(#i8)"><polygon points="0,0 139,0 139,16 0,16 0,0" stroke="none" fill="rgba(62, 156, 52, 0.9)"></polygon></g><g clip-path="url(#i8)"><polygon points="0,0 139,0 139,16 0,16 0,0 0,0" stroke="#418A37" stroke-width="2" fill="none" stroke-miterlimit="5"></polygon></g></g><g transform="translate(106.5 56.0)"><g clip-path="url(#i9)"><polygon points="0,0 24,0 24,21 0,21 0,0" stroke="none" fill="rgba(0, 121, 135, 0.9)"></polygon></g><g clip-path="url(#i9)"><polygon points="0,0 24,0 24,21 0,21 0,0 0,0" stroke="#09707A" stroke-width="2" fill="none" stroke-miterlimit="5"></polygon></g></g></svg>