<?xml version="1.0" encoding="UTF-8"?>
<svg width="193px" height="93px" viewBox="0 0 193 93" version="1.1" xmlns="http://www.w3.org/2000/svg" xmlns:xlink="http://www.w3.org/1999/xlink">
    <title></title>
    <g id="Alerts" stroke="none" stroke-width="1" fill="none" fill-rule="evenodd">
        <g id="Alerts-/-Inline-/-3.-Warning-/-9.-Expandable-/-1.-Closed">
            <rect id="Background" fill="#FDF7E7" x="0" y="0" width="193" height="93"></rect>
            <g id="Success-icon" transform="translate(41.000000, 20.000000)" fill="#F0AB00">
                <path d="M16.4981174,15.999962 C17.6501533,15.999962 18.3741811,14.7501786 17.7973697,13.7503641 L10.2992797,0.749540607 C9.72320073,-0.248931134 8.27780012,-0.250762184 7.7007141,0.749540607 L0.202410442,13.7503641 C-0.373271779,14.748256 0.347429627,15.999962 1.50169323,15.999962 L16.4981174,15.999962 Z M9.75854,10.4999751 L8.24145378,10.4999751 C8.04229654,10.4999751 7.87786822,10.3442748 7.8670345,10.1454227 L7.63522353,5.89543288 C7.62350481,5.68062016 7.79449439,5.49998704 8.00961229,5.49998704 L9.99035097,5.49998704 C10.2054689,5.49998704 10.376489,5.68062016 10.3647702,5.89543288 L10.1329593,10.1454227 C10.1221256,10.3442748 9.95769724,10.4999751 9.75854,10.4999751 Z M8.99999689,13.9374669 C8.20608399,13.9374669 7.56250032,13.2938833 7.56250032,12.4999704 C7.56250032,11.7060575 8.20608399,11.0624738 8.99999689,11.0624738 C9.79390979,11.0624738 10.4374935,11.7060575 10.4374935,12.4999704 C10.4374935,13.2938833 9.79390979,13.9374669 8.99999689,13.9374669 Z" id="exclamation-triangle"></path>
            </g>
            <g id="times" transform="translate(153.000000, 16.000000)" fill="#6A6E73">
                <path d="M9.37280471,17.7121708 L12.5,14.584981 L15.6271843,17.7121708 C16.0109114,18.0959284 16.6334075,18.0959284 17.0171651,17.7121708 L17.7121708,17.0171651 C18.0959284,16.6334075 18.0959284,16.0112471 17.7121708,15.6271843 L14.584981,12.5 L17.7121708,9.37280471 C18.0959284,8.98907759 18.0959284,8.36688669 17.7121708,7.98282389 L17.0171651,7.28781822 C16.6334075,6.90406059 16.0112471,6.90406059 15.6271843,7.28781822 L12.5,10.415008 L9.37280471,7.28781822 C8.98907759,6.90406059 8.36688669,6.90406059 7.98282389,7.28781822 L7.28781822,7.98282389 C6.90406059,8.36658152 6.90406059,8.9887419 7.28781822,9.37280471 L10.415008,12.5 L7.28781822,15.6271843 C6.90406059,16.0109114 6.90406059,16.6331023 7.28781822,17.0171651 L7.98282389,17.7121708 C8.36658152,18.0959284 8.98907759,18.0959284 9.37280471,17.7121708 Z"></path>
            </g>
            <text id="Action-2" font-family="RedHatText-Regular, Red Hat Text" font-size="14" font-weight="normal" line-spacing="21" fill="#0066CC">
                <tspan x="131" y="70">Action</tspan>
            </text>
            <text id="Action" font-family="RedHatText-Regular, Red Hat Text" font-size="14" font-weight="normal" line-spacing="21" fill="#0066CC">
                <tspan x="66" y="70">Action</tspan>
            </text>
            <text id="Title" font-family="RedHatText-Medium, Red Hat Text" font-size="14" font-weight="400" line-spacing="21" fill="#795600">
                <tspan x="66" y="32">Title</tspan>
            </text>
            <g id="Icons/1.-Size-md/Framework/angle-right" transform="translate(7.000000, 16.000000)" fill="#6A6E73">
                <path d="M10.985919,16.7827983 L15.2359089,12.5328085 C15.5296704,12.239047 15.5296704,11.7640725 15.2327961,11.470311 L10.9828062,7.22032113 C10.692188,6.92655962 10.2171831,6.92655962 9.92342157,7.22032113 L9.22029824,7.93281333 C8.92656725,8.22343153 8.92656725,8.6984365 9.22029824,8.99219801 L12.2328033,12.0046725 L9.22029824,15.0171775 C8.92656725,15.3077957 8.92656725,15.7828007 9.22029824,16.0765622 L9.92656487,16.7827983 C10.2171831,17.0765598 10.692188,17.0765598 10.985919,16.7827983 Z" id="angle-right"></path>
            </g>
            <rect id="Status-Color" fill="#F0AB00" x="0" y="0" width="193" height="3"></rect>
            <g id="ðŸ“-Padding" fill-opacity="0.9">
                <g id="Spacer-/-Horizontal-/-3.-pf-global--spacer--md-(16px)" fill="#3F9C35" stroke="#418A38" transform="translate(8.000000, 46.500000) scale(-1, 1) translate(-8.000000, -46.500000) ">
                    <rect id="Rectangle-Copy-2" x="0.5" y="0.5" width="15" height="92"></rect>
                </g>
                <g id="Group" transform="translate(22.500000, 0.000000)" fill="#3F9C35" stroke="#418A38">
                    <g id="Spacer-/-Horizontal-/-3.-pf-global--spacer--md-(16px)" transform="translate(8.000000, 46.500000) scale(-1, 1) translate(-8.000000, -46.500000) ">
                        <rect id="Rectangle-Copy-2" x="0.5" y="0.5" width="15" height="92"></rect>
                    </g>
                </g>
                <g id="Group" transform="translate(177.000000, 0.000000)" fill="#3F9C35" stroke="#418A38">
                    <g id="Spacer-/-Horizontal-/-3.-pf-global--spacer--md-(16px)" transform="translate(8.000000, 46.500000) scale(-1, 1) translate(-8.000000, -46.500000) ">
                        <rect id="Rectangle-Copy-2" x="0.5" y="0.5" width="15" height="92"></rect>
                    </g>
                </g>
                <g id="Group" transform="translate(62.000000, 16.000000)" fill="#EC7A08" stroke="#C77000">
                    <g id="Spacer-/-Horizontal-/-3.-pf-global--spacer--md-(16px)" transform="translate(2.000000, 30.500000) scale(-1, 1) translate(-2.000000, -30.500000) ">
                        <rect id="Rectangle" x="0.5" y="0.5" width="3" height="60"></rect>
                    </g>
                </g>
                <g id="Spacer-/-Vertical-/-3.-pf-global--spacer--md-(16px)" transform="translate(38.000000, 0.000000)" fill="#3F9C35" stroke="#418A38">
                    <rect id="Rectangle-Copy-2" x="0.5" y="0.5" width="138" height="15"></rect>
                </g>
                <g id="Spacer-/-Vertical-/-3.-pf-global--spacer--md-(16px)" transform="translate(38.000000, 40.000000)" fill="#3F9C35" stroke="#418A38">
                    <rect id="Rectangle-Copy-2" x="0.5" y="0.5" width="138" height="15"></rect>
                </g>
                <g id="Spacer-/-Vertical-/-3.-pf-global--spacer--md-(16px)" transform="translate(38.000000, 77.000000)" fill="#3F9C35" stroke="#418A38">
                    <rect id="Rectangle-Copy-2" x="0.5" y="0.5" width="138" height="15"></rect>
                </g>
                <g id="Spacer-/-Horizontal-/-4.-pf-global--spacer--lg-(24px)" transform="translate(106.500000, 56.000000)" fill="#007A87" stroke="#09707B">
                    <rect id="Rectangle-Copy-3" x="0.5" y="0.5" width="23" height="20"></rect>
                </g>
            </g>
        </g>
    </g>
</svg>