<?xml version="1.0" encoding="UTF-8"?><svg version="1.1" width="320px" height="240px" viewBox="0 0 320.0 240.0" xmlns="http://www.w3.org/2000/svg" xmlns:xlink="http://www.w3.org/1999/xlink"><defs><filter id="i0" x="-5.42168675%" y="-7.14285714%" filterUnits="userSpaceOnUse" width="107.228916%" height="109.52381%"><feGaussianBlur stdDeviation="3" in="SourceAlpha" result="i1"></feGaussianBlur><feOffset dx="0" dy="0" in="i1" result="i2"></feOffset><feColorMatrix values="0 0 0 0.0 0 0 0 0 0.0 0 0 0 0 0.0 0 0 0 0 0.08 0" type="matrix" in="i2"></feColorMatrix></filter><filter id="i3" x="-15.9090909%" y="-17.6470588%" filterUnits="userSpaceOnUse" width="122.727273%" height="129.411765%"><feGaussianBlur stdDeviation="8" in="SourceAlpha" result="i4"></feGaussianBlur><feOffset dx="0" dy="8" in="i4" result="i5"></feOffset><feColorMatrix values="0 0 0 0.0 0 0 0 0 0.0 0 0 0 0 0.0 0 0 0 0 0.18 0" type="matrix" in="i5"></feColorMatrix></filter><clipPath id="i6"><path d="M320,0 L320,240 L0,240 L0,0 L320,0 Z"></path></clipPath></defs><polygon points="0,0 320,0 320,240 0,240 0,0 0,0" stroke="none" fill="#000000" filter="url(#i0)"></polygon><polygon points="0,0 320,0 320,240 0,240 0,0 0,0" stroke="none" fill="#000000" filter="url(#i3)"></polygon><g clip-path="url(#i6)"><polygon points="0,0 320,0 320,240 0,240 0,0" stroke="none" fill="#FAFAFA"></polygon><g transform="translate(0.0 -8.0)"><polygon points="320,240 320,248 0,248 0,240 320,240 320,240" stroke="none" fill="#D2D2D2"></polygon></g></g></svg>