<?xml version="1.0" encoding="UTF-8"?>
<svg width="24px" height="24px" viewBox="0 0 24 24" version="1.1" xmlns="http://www.w3.org/2000/svg" xmlns:xlink="http://www.w3.org/1999/xlink">
    <title></title>
    <g id="Icons" stroke="none" stroke-width="1" fill="none" fill-rule="evenodd">
        <g id="Icons/3.-Size-lg-(24px)/Actions/compress" fill="#6A6E73">
            <path d="M22.4374513,9.49998212 C22.7468072,9.49998212 22.9999499,9.24683941 22.9999499,8.93748346 L22.9999499,7.06248793 C22.9999499,6.75313198 22.7468072,6.49998927 22.4374513,6.49998927 L18.4999678,6.49998927 L18.4999678,2.56249866 C18.4999678,2.25314271 18.246818,2 17.937462,2 L16.0624665,2 C15.7531105,2 15.4999678,2.25314271 15.4999678,2.56249866 L15.4999678,8.3749848 C15.4999678,8.99841166 16.0015383,9.49998212 16.6249651,9.49998212 L22.4374513,9.49998212 Z M8.3749848,9.49998212 C8.99841166,9.49998212 9.49998212,8.99841166 9.49998212,8.3749848 L9.49998212,2.56249866 C9.49998212,2.25314271 9.24683941,2 8.93748346,2 L7.06248793,2 C6.75313198,2 6.49998927,2.25314271 6.49998927,2.56249866 L6.49998927,6.49998927 L2.56249866,6.49998927 C2.25314271,6.49998927 2,6.75313198 2,7.06248793 L2,8.93748346 C2,9.24683941 2.25314271,9.49998212 2.56249866,9.49998212 L8.3749848,9.49998212 Z M8.93748346,22.9999499 C9.24683941,22.9999499 9.49998212,22.7468072 9.49998212,22.4374513 L9.49998212,16.6249651 C9.49998212,16.0015383 8.99841166,15.4999678 8.3749848,15.4999678 L2.56249866,15.4999678 C2.25314271,15.4999678 2,15.7531105 2,16.0624665 L2,17.937462 C2,18.246818 2.25314271,18.4999678 2.56249866,18.4999678 L6.49998927,18.4999678 L6.49998927,22.4374513 C6.49998927,22.7468072 6.75313198,22.9999499 7.06248793,22.9999499 L8.93748346,22.9999499 Z M17.937462,22.9999499 C18.246818,22.9999499 18.4999678,22.7468072 18.4999678,22.4374513 L18.4999678,18.4999678 L22.4374513,18.4999678 C22.7468072,18.4999678 22.9999499,18.246818 22.9999499,17.937462 L22.9999499,16.0624665 C22.9999499,15.7531105 22.7468072,15.4999678 22.4374513,15.4999678 L16.6249651,15.4999678 C16.0015383,15.4999678 15.4999678,16.0015383 15.4999678,16.6249651 L15.4999678,22.4374513 C15.4999678,22.7468072 15.7531105,22.9999499 16.0624665,22.9999499 L17.937462,22.9999499 Z" id="compress"></path>
        </g>
    </g>
</svg>