<?xml version="1.0" encoding="UTF-8"?>
<svg width="24px" height="24px" viewBox="0 0 24 24" version="1.1" xmlns="http://www.w3.org/2000/svg" xmlns:xlink="http://www.w3.org/1999/xlink">
    <title></title>
    <g id="Icons" stroke="none" stroke-width="1" fill="none" fill-rule="evenodd">
        <g id="Icons/3.-Size-lg-(24px)/Actions/copy" fill="#6A6E73">
            <path d="M21.8749526,19.4999535 C22.4962738,19.4999535 22.9999499,18.9962773 22.9999499,18.3749562 L22.9999499,5.99998569 L18.1249616,5.99998569 C17.5062039,5.99998569 16.9999642,5.49374606 16.9999642,4.87498838 L16.9999642,0 L9.12498301,0 C8.50366186,0 7.99998569,0.503676167 7.99998569,1.12499732 L7.99998569,18.3749562 C7.99998569,18.9962773 8.50366186,19.4999535 9.12498301,19.4999535 L21.8749526,19.4999535 Z M22.9999499,4.49998927 L22.9999499,4.21599337 C22.9999499,3.95877657 22.8523215,3.6024084 22.6704524,3.42049355 L19.5794564,0.329497505 C19.3975415,0.147628432 19.0411734,0 18.7839566,0 L18.4999607,0 L18.4999607,4.49998927 L22.9999499,4.49998927 Z M15.8749669,23.9999428 C16.4962881,23.9999428 16.9999642,23.4962666 16.9999642,22.8749455 L16.9999642,20.9999499 L9.12498301,20.9999499 C7.67753773,20.9999499 6.49998927,19.8224015 6.49998927,18.3749562 L6.49998927,4.49998927 L3.12499732,4.49998927 C2.50367617,4.49998927 2,5.00366544 2,5.62498659 L2,22.8749455 C2,23.4962666 2.50367617,23.9999428 3.12499732,23.9999428 L15.8749669,23.9999428 Z" id="copy"></path>
        </g>
    </g>
</svg>