<?xml version="1.0" encoding="UTF-8"?>
<svg width="24px" height="24px" viewBox="0 0 24 24" version="1.1" xmlns="http://www.w3.org/2000/svg" xmlns:xlink="http://www.w3.org/1999/xlink">
    <title></title>
    <g id="Icons" stroke="none" stroke-width="1" fill="none" fill-rule="evenodd">
        <g id="Icons/3.-Size-lg-(24px)/Actions/flag" fill="#6A6E73">
            <path d="M3,23.9999324 C3.621314,23.9999324 4.12499017,23.4962563 4.12499017,22.8749351 L4.12499017,18.4499273 C5.45204389,17.8844532 7.10539077,17.4129578 9.48909786,17.4129578 C12.00107,17.4129578 14.0755585,19.0434165 17.2336625,19.0434165 C19.4915765,19.0434165 21.2961681,18.2796397 22.9760652,17.1282294 C23.3830619,16.8492689 23.6249437,16.3861048 23.6249437,15.8926825 L23.6249437,4.49741545 C23.6249437,3.40084519 22.4873579,2.67538305 21.4928229,3.13726549 C19.8832381,3.88483756 17.9090454,4.63044125 16.0108413,4.63044125 C13.498915,4.63044125 11.4243807,2.99998249 8.26627668,2.99998249 C7.09651018,2.99998249 6.04869163,3.20547212 5.07667857,3.56307624 C5.17239673,3.31313788 5.25007904,2.89300338 5.25007904,2.62530382 C5.25007904,2.57925291 5.24769867,2.50459183 5.24476899,2.45863247 C5.16173086,1.12567361 4.0690058,0.0565233254 2.7345821,0.00223268339 C1.23490611,-0.0587870686 0,1.13885717 0,2.62498339 C0,3.51684222 0.44517411,4.30428541 1.12499732,4.77866478 L1.12499732,22.8749351 C1.12499732,23.4962563 1.62867349,23.9999324 2.24999464,23.9999324 L3,23.9999324 Z" id="flag"></path>
        </g>
    </g>
</svg>