<?xml version="1.0" encoding="UTF-8"?>
<svg width="24px" height="24px" viewBox="0 0 24 24" version="1.1" xmlns="http://www.w3.org/2000/svg" xmlns:xlink="http://www.w3.org/1999/xlink">
    <title></title>
    <g id="Icons" stroke="none" stroke-width="1" fill="none" fill-rule="evenodd">
        <g id="Icons/3.-Size-lg-(24px)/Actions/pencil-alt" fill="#6A6E73">
            <path d="M21.1769409,8.81833835 L23.3379007,6.65737854 C24.2191395,5.77613979 24.2191395,4.35117066 23.3379007,3.47460109 L20.5206925,0.657392842 C19.6394537,-0.219130947 18.2144388,-0.219130947 17.337915,0.657392842 L15.1769552,2.81835266 C14.9566341,3.03867379 14.9566341,3.39490463 15.1769552,3.61522576 L20.3800678,8.81833835 C20.600389,9.03865948 20.9566198,9.03865948 21.1769409,8.81833835 Z M1.32075658,23.9823647 L7.0160555,22.9839387 L19.3253828,10.6745656 C19.545704,10.4542445 19.545704,10.0980136 19.3253828,9.87769251 L14.1222702,4.67457992 C13.8972799,4.45425879 13.5410491,4.45425879 13.320728,4.67457992 L1.01135485,16.983953 L0.0176438388,22.679252 C-0.118311648,23.4479727 0.551990099,24.1136052 1.32075658,23.9823647 Z M5.81603089,15.9292681 C5.55821901,15.6714562 5.55821901,15.2589205 5.81603089,15.0011086 L13.0347637,7.78237585 C13.2925756,7.52456397 13.7051112,7.52456397 13.9629231,7.78237585 C14.220735,8.04018774 14.220735,8.45272338 13.9629231,8.71053526 L6.7441903,15.9292681 C6.48637842,16.1870799 6.07384278,16.1870799 5.81603089,15.9292681 Z M3.35043008,22.1026542 L1.89263937,20.6448635 L2.42231645,17.6214332 L4.12386574,17.6214332 L4.12386574,19.8714278 L6.37386037,19.8714278 L6.37386037,21.5729771 L3.35043008,22.1026542 Z" id="pencil-alt"></path>
        </g>
    </g>
</svg>