<?xml version="1.0" encoding="UTF-8"?>
<svg width="24px" height="24px" viewBox="0 0 24 24" version="1.1" xmlns="http://www.w3.org/2000/svg" xmlns:xlink="http://www.w3.org/1999/xlink">
    <title></title>
    <g id="Icons" stroke="none" stroke-width="1" fill="none" fill-rule="evenodd">
        <g id="Icons/3.-Size-lg-(24px)/Actions/pficon-add-circle-o" fill="#6A6E73">
            <path d="M13.5,7.1015625 C13.5,6.9073999 13.3426001,6.75 13.1484375,6.75 L10.8515625,6.75 C10.6573999,6.75 10.5,6.9073999 10.5,7.1015625 L10.5,10.5 L7.1015625,10.5 C6.9073999,10.5 6.75,10.6573999 6.75,10.8515625 L6.75,13.1484375 C6.75,13.3426001 6.9073999,13.5 7.1015625,13.5 L10.5,13.5 L10.5,16.8960937 C10.4996103,17.0907978 10.6568602,17.249096 10.8515625,17.25 L13.1484375,17.25 C13.3431398,17.249096 13.5003897,17.0907978 13.5,16.8960937 L13.5,13.5 L16.8984375,13.5 C16.9914615,13.5006243 17.08089,13.4641076 17.1468889,13.3985486 C17.212888,13.3329895 17.25,13.2438073 17.25,13.1507813 L17.25,10.8539063 C17.2503897,10.6592022 17.0931398,10.500904 16.8984375,10.5 L13.5,10.5 L13.5,7.1015625 Z M12,21 C7.0359375,21 3,16.9664062 3,12 C3,7.03828125 7.0359375,3 12,3 C16.9640625,3 21,7.0359375 21,12 C21,16.9640625 16.9617188,21 12,21 Z M12.0023438,0 C5.38359375,0 0,5.3859375 0,12 C0,18.6140625 5.3859375,24 12.0023438,24 C18.61875,24 24,18.6164062 24,12 C24,5.38359375 18.61875,0 12.0023438,0 Z" id="pficon-add-circle-o"></path>
        </g>
    </g>
</svg>