<?xml version="1.0" encoding="UTF-8"?>
<svg width="24px" height="24px" viewBox="0 0 24 24" version="1.1" xmlns="http://www.w3.org/2000/svg" xmlns:xlink="http://www.w3.org/1999/xlink">
    <title></title>
    <g id="Icons" stroke="none" stroke-width="1" fill="none" fill-rule="evenodd">
        <g id="Icons/3.-Size-lg-(24px)/Actions/plus" fill="#6A6E73">
            <path d="M13.2499732,22.9999499 C14.0782488,22.9999499 14.7499696,22.3282291 14.7499696,21.4999535 L14.7499696,14.7499696 L21.4999535,14.7499696 C22.3282291,14.7499696 22.9999499,14.0782488 22.9999499,13.2499732 L22.9999499,11.7499768 C22.9999499,10.9217011 22.3282291,10.2499803 21.4999535,10.2499803 L14.7499696,10.2499803 L14.7499696,3.5 C14.7499696,2.67172081 14.0782488,2 13.2499732,2 L11.7499768,2 C10.9217011,2 10.2499803,2.67172081 10.2499803,3.5 L10.2499803,10.2499803 L3.5,10.2499803 C2.67172081,10.2499803 2,10.9217011 2,11.7499768 L2,13.2499732 C2,14.0782488 2.67172081,14.7499696 3.5,14.7499696 L10.2499803,14.7499696 L10.2499803,21.4999535 C10.2499803,22.3282291 10.9217011,22.9999499 11.7499768,22.9999499 L13.2499732,22.9999499 Z" id="plus"></path>
        </g>
    </g>
</svg>