<?xml version="1.0" encoding="UTF-8"?>
<svg width="24px" height="24px" viewBox="0 0 24 24" version="1.1" xmlns="http://www.w3.org/2000/svg" xmlns:xlink="http://www.w3.org/1999/xlink">
    <title></title>
    <g id="Icons" stroke="none" stroke-width="1" fill="none" fill-rule="evenodd">
        <g id="Icons/3.-Size-lg-(24px)/Actions/redo" fill="#6A6E73">
            <path d="M11.6413175,23.6249437 C14.1054077,23.6249437 17.5878823,22.2828296 19.4146297,20.6291622 C19.518084,20.5366026 19.6020377,20.3488284 19.6020377,20.2100348 C19.6020377,20.0813578 19.5281548,19.903105 19.4371516,19.8121476 L17.8434054,18.2184014 C17.752448,18.1274897 17.5742868,18.0536984 17.4457013,18.0536984 C17.3291549,18.0536984 17.1633533,18.1159083 17.0756002,18.1926294 C15.7856253,19.3275143 13.3442401,20.2486242 11.626074,20.2486242 C7.07211456,20.2486242 3.37609371,16.5526491 3.37609371,11.9986439 C3.37609371,7.4446844 7.07211456,3.74866355 11.626074,3.74866355 C14.0523988,3.74866355 17.1200032,5.38305907 18.4733783,7.39684821 L13.7142038,7.16856201 C13.7068339,7.16824158 13.6948405,7.16792114 13.6874705,7.16792114 C13.3769701,7.16792114 13.1249718,7.41991944 13.1249718,7.7304198 L13.1249718,9.95340644 C13.1249718,10.2639068 13.3769701,10.5159051 13.6874705,10.5159051 L23.0779205,10.5159051 C23.3884209,10.5159051 23.6404192,10.2639068 23.6404192,9.95340644 L23.6404192,0.562498659 C23.6404192,0.251998301 23.3884209,0 23.0779205,0 L20.8549339,0 C20.5444335,0 20.2924352,0.251998301 20.2924352,0.562498659 C20.2924352,0.569868636 20.2927099,0.581862016 20.2930761,0.589231994 L20.4805756,4.46858676 C18.5630082,2.20893333 14.6013935,0.374999106 11.637747,0.374999106 L11.6249754,0.374999106 C5.21904586,0.374999106 -0.00466605062,5.60296821 0,12.0088978 C0.00467230602,18.425127 5.2077849,23.6249437 11.6249754,23.6249437 L11.6413175,23.6249437 Z" id="redo"></path>
        </g>
    </g>
</svg>