<?xml version="1.0" encoding="UTF-8"?>
<svg width="24px" height="24px" viewBox="0 0 24 24" version="1.1" xmlns="http://www.w3.org/2000/svg" xmlns:xlink="http://www.w3.org/1999/xlink">
    <title></title>
    <g id="Icons" stroke="none" stroke-width="1" fill="none" fill-rule="evenodd">
        <g id="Icons/3.-Size-lg-(24px)/Actions/undo" fill="#6A6E73">
            <path d="M12.0155811,23.6249437 C18.4274616,23.6249437 23.6268663,18.433916 23.6405347,12.0252399 C23.6541489,5.60763739 18.5193803,0.42191977 12.1019151,0.37531954 C8.63715592,0.350142598 5.52061672,1.84121265 3.37499195,4.22400421 L3.37499195,0.562498659 C3.37499195,0.251860972 3.12313098,-1.77635684e-15 2.81249329,-1.77635684e-15 L0.562498659,-1.77635684e-15 C0.251860972,-1.77635684e-15 -2.66453526e-14,0.251860972 -2.66453526e-14,0.562498659 L-2.66453526e-14,9.95308601 C-2.66453526e-14,10.2637237 0.251860972,10.5155847 0.562498659,10.5155847 L9.95308601,10.5155847 C10.2637237,10.5155847 10.5155847,10.2637237 10.5155847,9.95308601 L10.5155847,7.70309138 C10.5155847,7.39245369 10.2637237,7.14059272 9.95308601,7.14059272 L5.34648383,7.14059272 C6.8462056,5.08478097 9.27358324,3.74999106 12.0155811,3.74999106 C16.5757661,3.74999106 20.2655614,7.44061031 20.2655614,11.9999714 C20.2655614,16.5601564 16.5749879,20.2499517 12.0155811,20.2499517 C9.91779252,20.2499517 8.00434493,19.4688257 6.54952967,18.1815057 C6.32742327,17.9849882 5.99046423,17.9963865 5.7807632,18.2061334 L4.18857339,19.7983232 C3.96042452,20.0264263 3.97141082,20.398221 4.21045444,20.61488 C6.27359039,22.4852522 9.01142261,23.6249437 12.0155811,23.6249437 Z" id="undo"></path>
        </g>
    </g>
</svg>