<?xml version="1.0" encoding="UTF-8"?>
<svg width="24px" height="24px" viewBox="0 0 24 24" version="1.1" xmlns="http://www.w3.org/2000/svg" xmlns:xlink="http://www.w3.org/1999/xlink">
    <title></title>
    <g id="Icons" stroke="none" stroke-width="1" fill="none" fill-rule="evenodd">
        <g id="Icons/3.-Size-lg-(24px)/Actions/window-restore" fill="#6A6E73">
            <path d="M17.2499589,23.9999428 C18.4921434,23.9999428 19.4999535,22.9921327 19.4999535,21.7499481 L19.4999535,19.4999535 L21.7499481,19.4999535 C22.9921327,19.4999535 23.9999428,18.4921434 23.9999428,17.2499589 L23.9999428,2.24999464 C23.9999428,1.0078101 22.9921327,0 21.7499481,0 L6.74998391,0 C5.50779937,0 4.49998927,1.0078101 4.49998927,2.24999464 L4.49998927,4.49998927 L2.24999464,4.49998927 C1.0078101,4.49998927 0,5.50779937 0,6.74998391 L0,21.7499481 C0,22.9921327 1.0078101,23.9999428 2.24999464,23.9999428 L17.2499589,23.9999428 Z M21.7499481,17.2499589 L19.4999535,17.2499589 L19.4999535,6.74998391 C19.4999535,5.50779937 18.4921434,4.49998927 17.2499589,4.49998927 L6.74998391,4.49998927 L6.74998391,2.24999464 L21.7499481,2.24999464 L21.7499481,17.2499589 Z M17.2499589,21.7499481 L2.24999464,21.7499481 L2.24999464,11.9999714 L17.2499589,11.9999714 L17.2499589,21.7499481 Z" id="window-restore"></path>
        </g>
    </g>
</svg>