<?xml version="1.0" encoding="UTF-8"?><svg version="1.1" width="560px" height="64px" viewBox="0 0 560.0 64.0" xmlns="http://www.w3.org/2000/svg" xmlns:xlink="http://www.w3.org/1999/xlink"><defs><clipPath id="i0"><path d="M560,0 L560,24 L0,24 L0,0 L560,0 Z"></path></clipPath><clipPath id="i1"><path d="M196,0 L196,24 L0,24 L0,0 L196,0 Z"></path></clipPath><clipPath id="i2"><path d="M560,0 L560,16 L0,16 L0,0 L560,0 Z"></path></clipPath></defs><g transform="translate(0.0 40.0)"><g clip-path="url(#i0)"><polygon points="0,0 560,0 560,24 0,24 0,0" stroke="none" fill="rgba(0, 102, 204, 0.2)"></polygon></g></g><g transform="translate(0.0 40.0)"><g clip-path="url(#i1)"><polygon points="0,0 196,0 196,24 0,24 0,0" stroke="none" fill="#0066CC"></polygon></g></g><g transform="translate(529.0 0.0)"><text transform="translate(0.6799999999999997 16.0)" font-family="RedHatText-Regular, Red Hat Text" font-size="16.0" font-weight="normal" fill="#151515" text-anchor="right" line-spacing="24.0">35%</text></g><text transform="translate(0.0 16.0)" font-family="RedHatText-Regular, Red Hat Text" font-size="16.0" font-weight="normal" fill="#151515" text-anchor="left" line-spacing="24.0">Title</text><g transform="translate(0.0 24.0)"><g clip-path="url(#i2)"><polygon points="0,0 560,0 560,16 0,16 0,0" stroke="none" fill="rgba(62, 156, 52, 0.9)"></polygon></g><g clip-path="url(#i2)"><polygon points="0,0 560,0 560,16 0,16 0,0 0,0" stroke="#418A37" stroke-width="2" fill="none" stroke-miterlimit="5"></polygon></g></g></svg>