<?xml version="1.0" encoding="UTF-8"?><svg version="1.1" width="139px" height="40px" viewBox="0 0 139.0 40.0" xmlns="http://www.w3.org/2000/svg" xmlns:xlink="http://www.w3.org/1999/xlink"><defs><clipPath id="i0"><path d="M139,0 L139,40 L0,40 L0,0 L139,0 Z"></path></clipPath><clipPath id="i1"><path d="M16,0 L16,16 L0,16 L0,0 L16,0 Z"></path></clipPath></defs><rect x="0px" y="0px" width="139px" height="40px" fill="#FFFFFF"></rect><g transform=""><g clip-path="url(#i0)"><polygon points="0,0 139,0 139,40 0,40 0,0" stroke="none" fill="#FFFFFF"></polygon></g></g><g transform="translate(115.0 11.0)"><text transform="translate(0.3279999999999994 14.0)" font-family="RedHatText-Regular, Red Hat Text" font-size="14.0" font-weight="normal" fill="#696E73" text-anchor="right" line-spacing="21.0">2</text></g><g transform="translate(16.0 8.0)"><g transform="translate(8.0 4.0)"><g clip-path="url(#i1)"><polygon points="0,0 16,0 16,16 0,16 0,0" stroke="none" fill="#FFFFFF"></polygon><polygon points="0,0 16,0 16,16 0,16 0,0 0,0" stroke="#696E73" stroke-width="2" fill="none" stroke-miterlimit="5"></polygon></g></g><g transform="translate(32.0 0.0)"><text transform="translate(0.0 16.0)" font-family="RedHatText-Regular, Red Hat Text" font-size="16.0" font-weight="normal" fill="#151515" text-anchor="left" line-spacing="24.0">Option</text></g></g></svg>