<svg xmlns="http://www.w3.org/2000/svg" xmlns:xlink="http://www.w3.org/1999/xlink" width="310" height="95" viewBox="0 0 310 95">
  <defs>
    <rect id="3.-expanded-a" width="310" height="95" x="0" y="0"/>
    <filter id="3.-expanded-b" width="102.3%" height="107.4%" x="-1.1%" y="-3.7%" filterUnits="objectBoundingBox">
      <feOffset dy="7" in="SourceAlpha" result="shadowOffsetInner1"/>
      <feComposite in="shadowOffsetInner1" in2="SourceAlpha" k2="-1" k3="1" operator="arithmetic" result="shadowInnerInner1"/>
      <feColorMatrix in="shadowInnerInner1" values="0 0 0 0 0.941176471   0 0 0 0 0.941176471   0 0 0 0 0.941176471  0 0 0 1 0"/>
    </filter>
  </defs>
  <g fill="none" fill-rule="evenodd">
    <use fill="#FFF" xlink:href="#3.-expanded-a"/>
    <use fill="#000" filter="url(#3.-expanded-b)" xlink:href="#3.-expanded-a"/>
    <g transform="translate(254 15)">
      <rect width="40" height="36" rx="3"/>
      <g transform="translate(8 6)">
        <path fill="#151515" d="M12.2499946,8.49998927 C13.4937356,8.49998927 14.4999893,7.49373557 14.4999893,6.24999464 C14.4999893,5.0062537 13.4937356,4 12.2499946,4 C11.0062537,4 10,5.0062537 10,6.24999464 C10,7.49373557 11.0062537,8.49998927 12.2499946,8.49998927 Z M12.2499946,13.9999762 C13.4937356,13.9999762 14.4999893,12.9937225 14.4999893,11.7499815 C14.4999893,10.5062406 13.4937356,9.49998689 12.2499946,9.49998689 C11.0062537,9.49998689 10,10.5062406 10,11.7499815 C10,12.9937225 11.0062537,13.9999762 12.2499946,13.9999762 Z M12.2499946,19.499963 C13.4937356,19.499963 14.4999893,18.4937093 14.4999893,17.2499684 C14.4999893,16.0062275 13.4937356,14.9999738 12.2499946,14.9999738 C11.0062537,14.9999738 10,16.0062275 10,17.2499684 C10,18.4937093 11.0062537,19.499963 12.2499946,19.499963 Z"/>
        <rect width="24" height="24" fill="#6A6E73"/>
      </g>
      <g fill-opacity=".9">
        <rect width="7" height="35" x=".5" y=".5" fill="#92D400" stroke="#7FB300"/>
        <rect width="7" height="35" x=".5" y=".5" fill="#92D400" stroke="#7FB300" transform="translate(32)"/>
        <rect width="23" height="5" x=".5" y=".5" fill="#F3D53C" stroke="#CBB534" transform="translate(8)"/>
        <rect width="23" height="5" x=".5" y=".5" fill="#F3D53C" stroke="#CBB534" transform="translate(8 30)"/>
      </g>
    </g>
    <g transform="translate(254 51)">
      <rect width="40" height="36" rx="3"/>
      <g transform="translate(8 6)">
        <path fill="#151515" d="M8.98905471,15.238657 L12.0015597,12.2261825 L15.0171775,15.2355442 C15.3077957,15.5292752 15.7828007,15.5292752 16.0765622,15.2355442 L16.7827983,14.5292776 C17.0765598,14.2386594 17.0765598,13.7636544 16.7827983,13.4699234 L12.5328085,9.21993357 C12.239047,8.92617206 11.7640725,8.92617206 11.470311,9.22304636 L7.22032113,13.4730362 C6.92655962,13.7636544 6.92655962,14.2386594 7.22032113,14.5324209 L7.92970054,15.238657 C8.22031875,15.5324185 8.69532372,15.5324185 8.98905471,15.238657 Z"/>
        <rect width="24" height="24" fill="#6A6E73"/>
      </g>
      <g fill-opacity=".9">
        <rect width="7" height="35" x=".5" y=".5" fill="#92D400" stroke="#7FB300"/>
        <rect width="7" height="35" x=".5" y=".5" fill="#92D400" stroke="#7FB300" transform="translate(32)"/>
        <rect width="23" height="5" x=".5" y=".5" fill="#F3D53C" stroke="#CBB534" transform="translate(8)"/>
        <rect width="23" height="5" x=".5" y=".5" fill="#F3D53C" stroke="#CBB534" transform="translate(8 30)"/>
      </g>
    </g>
    <rect width="15" height="15" x="8.5" y="4.5" fill="#FFF" stroke="#6A6E73" transform="translate(222 21)"/>
    <g fill-opacity=".9" transform="translate(0 7)">
      <rect width="15" height="87" x=".5" y=".5" fill="#3F9C35" stroke="#418A38" transform="translate(294)"/>
      <rect width="15" height="87" x=".5" y=".5" fill="#3F9C35" stroke="#418A38"/>
      <rect width="31" height="79" x=".5" y=".5" fill="#0088CE" stroke="#0479B0" transform="translate(222)"/>
      <rect width="277" height="7" x=".5" y=".5" fill="#92D400" stroke="#7FB300" transform="translate(16)"/>
      <rect width="277" height="7" x=".5" y=".5" fill="#92D400" stroke="#7FB300" transform="translate(16 80)"/>
    </g>
  </g>
</svg>
