<?xml version="1.0" encoding="UTF-8"?>
<svg width="51px" height="53px" viewBox="0 0 51 53" version="1.1" xmlns="http://www.w3.org/2000/svg" xmlns:xlink="http://www.w3.org/1999/xlink">
    <title></title>
    <g id="Icons" stroke="none" stroke-width="1" fill="none" fill-rule="evenodd">
        <g id="Icons/4.-Size-xl/Actions/cog" fill="#6A6E73">
            <path d="M30.8027334,51.6796242 C31.3828101,51.5531444 31.7940755,51.0363076 31.7940755,50.4457252 L31.7940755,45.2566545 C34.1354968,44.4234121 36.3082096,43.1683988 38.2066426,41.5546484 L42.6995594,44.1492352 C43.2163963,44.4445264 43.8597129,44.3495636 44.2604726,43.9066783 C46.8655651,41.0906488 48.858961,37.6945425 50.0296201,33.9292965 C50.1878228,33.3492198 49.9557715,32.7375231 49.4390377,32.4422319 L44.9460179,29.847645 C45.3995118,27.4008583 45.3995118,24.8906256 44.9460179,22.4438388 L49.4390377,19.849252 C49.9557715,19.5539608 50.1878228,18.9422641 50.0191144,18.372693 C48.8483523,14.6180556 46.8550595,11.2219494 44.249967,8.39541422 C43.8492073,7.96293158 43.195282,7.85746308 42.6890538,8.15285727 L38.1960339,10.7473411 C36.3082096,9.12308506 34.1354968,7.86807173 31.7835698,7.04543804 L31.7835698,1.86687296 C31.7835698,1.27629057 31.3722015,0.759453728 30.7921248,0.63287093 C26.9215133,-0.231888361 22.9558359,-0.189762759 19.2750471,0.63287093 C18.6949704,0.759453728 18.283602,1.27629057 18.283602,1.86687296 L18.283602,7.05594369 C15.9421808,7.88918603 13.7695709,9.14419936 11.8711379,10.7578468 L7.38872672,8.16336292 C6.87188988,7.86807173 6.22857324,7.96293158 5.82781354,8.40591987 C3.22272103,11.2219494 1.22932521,14.6180556 0.0586660754,18.3833016 C-0.120650971,18.9527697 0.121905976,19.5644664 0.638742817,19.8598606 L5.13165966,22.4543445 C4.67816571,24.9012342 4.67816571,27.4113639 5.13165966,29.8582537 L0.638742817,32.4527375 C0.121905976,32.7480287 -0.11014532,33.3598284 0.0586660754,33.9292965 C1.22932521,37.6840369 3.22272103,41.0800401 5.82781354,43.9066783 C6.22857324,44.3390579 6.88249853,44.4445264 7.38872672,44.1492352 L11.8816436,41.5546484 C13.7695709,43.1789044 15.9421808,44.4340208 18.2941077,45.2566545 L18.2941077,50.4457252 C18.2941077,51.0363076 18.705476,51.5531444 19.2855528,51.6796242 C23.1562673,52.5444865 27.1218416,52.5023609 30.8027334,51.6796242 Z M25.0335859,34.5832218 C20.3824663,34.5832218 16.596106,30.7968615 16.596106,26.1457419 C16.596106,21.4946223 20.3824663,17.708262 25.0335859,17.708262 C29.6847055,17.708262 33.4710658,21.4946223 33.4710658,26.1457419 C33.4710658,30.7968615 29.6847055,34.5832218 25.0335859,34.5832218 Z" id="cog"></path>
        </g>
    </g>
</svg>