<?xml version="1.0" encoding="UTF-8"?><svg version="1.1" width="55px" height="48px" viewBox="0 0 55.0 48.0" xmlns="http://www.w3.org/2000/svg" xmlns:xlink="http://www.w3.org/1999/xlink"><defs><clipPath id="i0"><path d="M48.9373833,0 C51.7333285,0 53.9998713,2.26654275 53.9998713,5.06248793 L53.9998713,42.1873994 C53.9998713,44.9833446 51.7333285,47.2498873 48.9373833,47.2498873 L5.06248793,47.2498873 C2.26654275,47.2498873 0,44.9833446 0,42.1873994 L0,5.06248793 C0,2.26654275 2.26654275,0 5.06248793,0 Z M23.6249437,13.4999678 L6.74998391,13.4999678 L6.74998391,40.4999034 L23.6249437,40.4999034 L23.6249437,13.4999678 Z M47.2498873,13.4999678 L30.3749276,13.4999678 L30.3749276,40.4999034 L47.2498873,40.4999034 L47.2498873,13.4999678 Z"></path></clipPath></defs><g transform="translate(0.9999999999999964 3.552713678800501e-15)"><g clip-path="url(#i0)"><polygon points="0,0 53.9998713,0 53.9998713,47.2498873 0,47.2498873 0,0" stroke="none" fill="#696E73"></polygon></g></g></svg>