<?xml version="1.0" encoding="UTF-8"?>
<svg width="55px" height="48px" viewBox="0 0 55 48" version="1.1" xmlns="http://www.w3.org/2000/svg" xmlns:xlink="http://www.w3.org/1999/xlink">
    <title></title>
    <g id="Icons" stroke="none" stroke-width="1" fill="none" fill-rule="evenodd">
        <g id="Icons/4.-Size-xl/Actions/columns" fill="#6A6E73">
            <path d="M49.9373833,47.2498873 C52.7333285,47.2498873 54.9998713,44.9833446 54.9998713,42.1873994 L54.9998713,5.06248793 C54.9998713,2.26654275 52.7333285,3.55271368e-15 49.9373833,3.55271368e-15 L6.06248793,3.55271368e-15 C3.26654275,3.55271368e-15 1,2.26654275 1,5.06248793 L1,42.1873994 C1,44.9833446 3.26654275,47.2498873 6.06248793,47.2498873 L49.9373833,47.2498873 Z M24.6249437,40.4999034 L7.74998391,40.4999034 L7.74998391,13.4999678 L24.6249437,13.4999678 L24.6249437,40.4999034 Z M48.2498873,40.4999034 L31.3749276,40.4999034 L31.3749276,13.4999678 L48.2498873,13.4999678 L48.2498873,40.4999034 Z" id="columns"></path>
        </g>
    </g>
</svg>