<?xml version="1.0" encoding="UTF-8"?><svg version="1.1" width="48px" height="48px" viewBox="0 0 48.0 48.0" xmlns="http://www.w3.org/2000/svg" xmlns:xlink="http://www.w3.org/1999/xlink"><defs><clipPath id="i0"><path d="M14.3437158,30.3749276 C15.7464262,30.3749276 16.8749598,31.5034611 16.8749598,32.9061715 L16.8749598,45.9842654 C16.8749598,46.6803163 16.3053887,47.2498873 15.6093378,47.2498873 L11.3905978,47.2498873 C10.694547,47.2498873 10.1249759,46.6803163 10.1249759,45.9842654 L10.1249759,37.1249115 L1.26562198,37.1249115 C0.569571091,37.1249115 0,36.5553404 0,35.8592895 L0,31.6405496 C0,30.9444987 0.569571091,30.3749276 1.26562198,30.3749276 Z M45.9842654,30.3749276 C46.6803163,30.3749276 47.2498873,30.9444987 47.2498873,31.6405496 L47.2498873,35.8592895 C47.2498873,36.5553404 46.6803163,37.1249115 45.9842654,37.1249115 L37.1249115,37.1249115 L37.1249115,45.9842654 C37.1249115,46.6803163 36.5553404,47.2498873 35.8592895,47.2498873 L31.6405496,47.2498873 C30.9444987,47.2498873 30.3749276,46.6803163 30.3749276,45.9842654 L30.3749276,32.9061715 C30.3749276,31.5034611 31.5034611,30.3749276 32.9061715,30.3749276 Z M35.8592895,0 C36.5553404,0 37.1249115,0.569571091 37.1249115,1.26562198 L37.1249115,10.1249759 L45.9842654,10.1249759 C46.6803163,10.1249759 47.2498873,10.694547 47.2498873,11.3905978 L47.2498873,15.6093378 C47.2498873,16.3053887 46.6803163,16.8749598 45.9842654,16.8749598 L32.9061715,16.8749598 C31.5034611,16.8749598 30.3749276,15.7464262 30.3749276,14.3437158 L30.3749276,1.26562198 C30.3749276,0.569571091 30.9444987,0 31.6405496,0 Z M15.6093378,0 C16.3053887,0 16.8749598,0.569571091 16.8749598,1.26562198 L16.8749598,14.3437158 C16.8749598,15.7464262 15.7464262,16.8749598 14.3437158,16.8749598 L1.26562198,16.8749598 C0.569571091,16.8749598 0,16.3053887 0,15.6093378 L0,11.3905978 C0,10.694547 0.569571091,10.1249759 1.26562198,10.1249759 L10.1249759,10.1249759 L10.1249759,1.26562198 C10.1249759,0.569571091 10.694547,0 11.3905978,0 Z"></path></clipPath></defs><g transform=""><g clip-path="url(#i0)"><polygon points="0,0 47.2498873,0 47.2498873,47.2498873 0,47.2498873 0,0" stroke="none" fill="#696E73"></polygon></g></g></svg>