<?xml version="1.0" encoding="UTF-8"?><svg version="1.1" width="54px" height="54px" viewBox="0 0 54.0 54.0" xmlns="http://www.w3.org/2000/svg" xmlns:xlink="http://www.w3.org/1999/xlink"><defs><clipPath id="i0"><path d="M44.7133648,30.369649 C46.9704319,30.369649 48.0988624,33.0907157 46.5063293,34.6833518 L43.0258688,37.9633809 L53.4988701,48.4469909 C54.1527954,49.1008131 54.1527954,50.1766124 53.4988701,50.8305377 L50.8200321,53.5094788 C50.1661068,54.1633011 49.0903075,54.1633011 48.4363822,53.5094788 L37.9633809,43.0363745 L34.6938574,46.5063293 C33.1013243,48.0988624 30.369649,46.9704319 30.369649,44.7133648 L30.369649,32.900893 C30.369649,31.4981825 31.4981825,30.369649 32.900893,30.369649 Z M21.0884211,30.369649 C22.4911316,30.369649 23.6196651,31.4981825 23.6196651,32.900893 L23.6196651,44.7133648 C23.6196651,46.9704319 20.8985984,48.0988624 19.3059623,46.5063293 L16.0259332,43.0258688 L5.5529319,53.4988701 C4.89900661,54.1527954 3.82320732,54.1527954 3.16928203,53.4988701 L0.490443968,50.8200321 C-0.163481323,50.1661068 -0.163481323,49.0903075 0.490443968,48.4363822 L10.9529396,37.9633809 L7.48298482,34.6938574 C5.89045169,33.0907157 7.01888223,30.369649 9.2759493,30.369649 Z M48.4363822,0.490443968 C49.0903075,-0.163481323 50.1661068,-0.163481323 50.8200321,0.490443968 L53.4988701,3.16928203 C54.1527954,3.82320732 54.1527954,4.89900661 53.4988701,5.5529319 L43.0258688,16.0259332 L46.5063293,19.2954567 C48.0988624,20.8879898 46.9704319,23.6196651 44.7133648,23.6196651 L32.900893,23.6196651 C31.4981825,23.6196651 30.369649,22.4911316 30.369649,21.0884211 L30.369649,9.2759493 C30.369649,7.01888223 33.0907157,5.89045169 34.6833518,7.48298482 L37.9633809,10.9634453 Z M3.16928203,0.490443968 C3.82320732,-0.163481323 4.89900661,-0.163481323 5.5529319,0.490443968 L16.0259332,10.9634453 L19.2954567,7.49349047 C20.8879898,5.90095734 23.6196651,7.02949088 23.6196651,9.2759493 L23.6196651,21.0884211 C23.6196651,22.4911316 22.4911316,23.6196651 21.0884211,23.6196651 L9.2759493,23.6196651 C7.01888223,23.6196651 5.89045169,20.8985984 7.48298482,19.3059623 L10.9634453,16.0259332 L0.490443968,5.5529319 C-0.163481323,4.89900661 -0.163481323,3.82320732 0.490443968,3.16928203 Z"></path></clipPath></defs><g transform=""><g clip-path="url(#i0)"><polygon points="0,0 53.9893141,0 53.9893141,53.9998455 0,53.9998455 0,0" stroke="none" fill="#696E73"></polygon></g></g></svg>