<?xml version="1.0" encoding="UTF-8"?><svg version="1.1" width="48px" height="55px" viewBox="0 0 48.0 55.0" xmlns="http://www.w3.org/2000/svg" xmlns:xlink="http://www.w3.org/1999/xlink"><defs><clipPath id="i0"><path d="M3,2.99999285 L3,12.2499708 C3,13.2149343 3.78502516,13.9999666 4.74998868,13.9999666 L9.99997616,13.9999666 L9.99997616,15.2499636 C9.99997616,15.6641777 9.66419205,15.9999619 9.24997795,15.9999619 L0.749998212,15.9999619 C0.335784112,15.9999619 0,15.6641777 0,15.2499636 L0,3.74999106 C0,3.33577696 0.335784112,2.99999285 0.749998212,2.99999285 L3,2.99999285 Z M9.99997616,0 L9.99997616,3.24999225 C9.99997616,3.66249737 10.3374692,4 10.7499744,4 L13.9999666,4 L13.9999666,12.2499708 C13.9999666,12.6641849 13.6641825,12.999969 13.2499684,12.999969 L4.74998868,12.999969 C4.33577457,12.999969 3.99999046,12.6641849 3.99999046,12.2499708 L3.99999046,0.749998212 C3.99999046,0.335784112 4.33577457,0 4.74998868,0 L9.99997616,0 Z M11.1893044,0 C11.3607822,0 11.598361,0.0984189548 11.7196376,0.219665004 L13.7803016,2.28032904 C13.9015477,2.4016056 13.9999738,2.63918438 13.9999738,2.81066224 L13.9999738,3 L10.9999738,3 L10.9999738,0 Z"></path></clipPath><clipPath id="i1"><path d="M10.1249759,10.1249759 L10.1249759,41.3436514 C10.1249759,44.6004033 12.7744599,47.2498873 16.0312118,47.2498873 L33.7499195,47.2498873 L33.7499195,51.4686273 C33.7499195,52.8665999 32.6166482,53.9998713 31.2186756,53.9998713 L2.53124397,53.9998713 C1.13327138,53.9998713 0,52.8665999 0,51.4686273 L0,12.6562198 C0,11.2582472 1.13327138,10.1249759 2.53124397,10.1249759 L10.1249759,10.1249759 Z M33.7499195,0 L33.7499195,10.9687238 C33.7499195,12.3609286 34.8889587,13.4999678 36.2811635,13.4999678 L47.2498873,13.4999678 L47.2498873,41.3436514 C47.2498873,42.741624 46.116616,43.8748954 44.7186434,43.8748954 L16.0312118,43.8748954 C14.6332392,43.8748954 13.4999678,42.741624 13.4999678,41.3436514 L13.4999678,2.53124397 C13.4999678,1.13327138 14.6332392,0 16.0312118,0 L33.7499195,0 Z M37.7639023,0 C38.3426401,0 39.1444684,0.332163972 39.5537769,0.741369387 L46.508518,7.6961105 C46.9177234,8.10541891 47.2498873,8.90724729 47.2498873,9.48598507 L47.2498873,10.1249759 L37.1249115,10.1249759 L37.1249115,0 Z"></path></clipPath></defs><g transform="translate(17.0 20.0)"><g clip-path="url(#i0)"><polygon points="0,0 13.9999738,0 13.9999738,15.9999619 0,15.9999619 0,0" stroke="none" fill="#696E73"></polygon></g></g><g transform="translate(0.0 1.0)"><g clip-path="url(#i1)"><polygon points="0,0 47.2498873,0 47.2498873,53.9998713 0,53.9998713 0,0" stroke="none" fill="#696E73"></polygon></g></g></svg>