<?xml version="1.0" encoding="UTF-8"?><svg version="1.1" width="54px" height="54px" viewBox="0 0 54.0 54.0" xmlns="http://www.w3.org/2000/svg" xmlns:xlink="http://www.w3.org/1999/xlink"><defs><clipPath id="i0"><path d="M18.0034933,37.1249115 L23.1714497,42.2928679 C25.2913254,44.4127435 28.7085459,44.4127435 30.8284215,42.2928679 L35.996378,37.1249115 L51.4686273,37.1249115 C52.8713377,37.1249115 53.9998713,38.253445 53.9998713,39.6561555 L53.9998713,51.4686273 C53.9998713,52.8713377 52.8713377,53.9998713 51.4686273,53.9998713 L2.53124397,53.9998713 C1.12853353,53.9998713 0,52.8713377 0,51.4686273 L0,39.6561555 C0,38.253445 1.12853353,37.1249115 2.53124397,37.1249115 L18.0034933,37.1249115 Z M38.8124075,46.8280134 C37.652254,46.8280134 36.7030375,47.7772298 36.7030375,48.9373833 C36.7030375,50.0975368 37.652254,51.0467533 38.8124075,51.0467533 C39.9725609,51.0467533 40.9217774,50.0975368 40.9217774,48.9373833 C40.9217774,47.7772298 39.9725609,46.8280134 38.8124075,46.8280134 Z M45.5623914,46.8280134 C44.4022379,46.8280134 43.4530214,47.7772298 43.4530214,48.9373833 C43.4530214,50.0975368 44.4022379,51.0467533 45.5623914,51.0467533 C46.7225449,51.0467533 47.6717613,50.0975368 47.6717613,48.9373833 C47.6717613,47.7772298 46.7225449,46.8280134 45.5623914,46.8280134 Z M31.2186756,0 C32.621386,0 33.7499195,1.12853353 33.7499195,2.53124397 L33.7499195,20.2499517 L42.9995275,20.2499517 C44.8768461,20.2499517 45.815557,22.5175244 44.4865921,23.8463863 L28.4448747,39.8987124 C27.6538609,40.6897261 26.356619,40.6897261 25.5656052,39.8987124 L9.50267052,23.8463863 C8.17380864,22.5175244 9.11251947,20.2499517 10.9898381,20.2499517 L20.2499517,20.2499517 L20.2499517,2.53124397 C20.2499517,1.12853353 21.3784853,0 22.7811957,0 Z"></path></clipPath></defs><g clip-path="url(#i0)"><polygon points="0,0 53.9998713,0 53.9998713,53.9998713 0,53.9998713 0,0" stroke="none" fill="#696E73"></polygon></g></svg>