<?xml version="1.0" encoding="UTF-8"?><svg version="1.1" width="48px" height="48px" viewBox="0 0 48.0 48.0" xmlns="http://www.w3.org/2000/svg" xmlns:xlink="http://www.w3.org/1999/xlink"><defs><clipPath id="i0"><path d="M45.9842654,30.3749276 C46.6803163,30.3749276 47.2498873,30.9444987 47.2498873,31.6405496 L47.2498873,44.7186434 C47.2498873,46.1213538 46.1213538,47.2498873 44.7186434,47.2498873 L31.6405496,47.2498873 C30.9444987,47.2498873 30.3749276,46.6803163 30.3749276,45.9842654 L30.3749276,41.7655254 C30.3749276,41.0694745 30.9444987,40.4999034 31.6405496,40.4999034 L40.4999034,40.4999034 L40.4999034,31.6405496 C40.4999034,30.9444987 41.0694745,30.3749276 41.7655254,30.3749276 Z M5.48436192,30.3749276 C6.18041282,30.3749276 6.74998391,30.9444987 6.74998391,31.6405496 L6.74998391,40.4999034 L15.6093378,40.4999034 C16.3053887,40.4999034 16.8749598,41.0694745 16.8749598,41.7655254 L16.8749598,45.9842654 C16.8749598,46.6803163 16.3053887,47.2498873 15.6093378,47.2498873 L2.53124397,47.2498873 C1.12853353,47.2498873 0,46.1213538 0,44.7186434 L0,31.6405496 C0,30.9444987 0.569571091,30.3749276 1.26562198,30.3749276 Z M15.6093378,0 C16.3053887,0 16.8749598,0.569571091 16.8749598,1.26562198 L16.8749598,5.48436192 C16.8749598,6.18041282 16.3053887,6.74998391 15.6093378,6.74998391 L6.74998391,6.74998391 L6.74998391,15.6093378 C6.74998391,16.3053887 6.18041282,16.8749598 5.48436192,16.8749598 L1.26562198,16.8749598 C0.569571091,16.8749598 0,16.3053887 0,15.6093378 L0,2.53124397 C0,1.12853353 1.12853353,0 2.53124397,0 Z M44.7186434,0 C46.1213538,0 47.2498873,1.12853353 47.2498873,2.53124397 L47.2498873,15.6093378 C47.2498873,16.3053887 46.6803163,16.8749598 45.9842654,16.8749598 L41.7655254,16.8749598 C41.0694745,16.8749598 40.4999034,16.3053887 40.4999034,15.6093378 L40.4999034,6.74998391 L31.6405496,6.74998391 C30.9444987,6.74998391 30.3749276,6.18041282 30.3749276,5.48436192 L30.3749276,1.26562198 C30.3749276,0.569571091 30.9444987,0 31.6405496,0 Z"></path></clipPath></defs><g clip-path="url(#i0)"><polygon points="0,0 47.2498873,0 47.2498873,47.2498873 0,47.2498873 0,0" stroke="none" fill="#696E73"></polygon></g></svg>