<?xml version="1.0" encoding="UTF-8"?><svg version="1.1" width="48px" height="48px" viewBox="0 0 48.0 48.0" xmlns="http://www.w3.org/2000/svg" xmlns:xlink="http://www.w3.org/1999/xlink"><defs><clipPath id="i0"><path d="M14.3437158,0 C16.5996499,0 17.7281834,2.73167531 16.1366803,4.32420844 L12.3187,8.14218869 L23.6249437,19.4484323 L34.9343802,8.13158004 L31.1132071,4.32420844 C29.5217039,2.73167531 30.6502374,0 32.9061715,0 L44.7250292,0 C46.1187789,0 47.2498873,1.13110845 47.2498873,2.52485818 L47.2498873,14.3437158 C47.2498873,16.6007829 44.519345,17.7292134 42.9256789,16.1366803 L39.1087286,12.3187 L27.7951722,23.6249437 L39.1098616,34.941693 L42.9256789,31.1237127 C44.518212,29.5206739 47.2498873,30.6491045 47.2498873,32.9061715 L47.2498873,44.7250292 C47.2498873,46.1187789 46.1187789,47.2498873 44.7250292,47.2498873 L32.9061715,47.2498873 C30.6502374,47.2498873 29.5217039,44.518212 31.1132071,42.9256789 L34.9311873,39.1076987 L23.6249437,27.801455 L12.3155071,39.1183073 L16.1366803,42.9256789 C17.7281834,44.518212 16.5996499,47.2498873 14.3437158,47.2498873 L2.52485818,47.2498873 C1.13110845,47.2498873 0,46.1187789 0,44.7250292 L0,32.9061715 C0,30.6491045 2.73054235,29.5206739 4.32420844,31.1132071 L8.14115872,34.9311873 L19.4547151,23.6249437 L8.14002576,12.3081944 L4.32420844,16.1366803 C2.73167531,17.7292134 0,16.6007829 0,14.3437158 L0,2.52485818 C0,1.13110845 1.13110845,0 2.52485818,0 Z"></path></clipPath></defs><g clip-path="url(#i0)"><polygon points="0,0 47.2498873,0 47.2498873,47.2498873 0,47.2498873 0,0" stroke="none" fill="#696E73"></polygon></g></svg>