<?xml version="1.0" encoding="UTF-8"?><svg version="1.1" width="54px" height="55px" viewBox="0 0 54.0 55.0" xmlns="http://www.w3.org/2000/svg" xmlns:xlink="http://www.w3.org/1999/xlink"><defs><clipPath id="i0"><path d="M21.9374477,6.74998391 C22.8689488,6.74998391 23.6249437,7.50597881 23.6249437,8.43747988 L23.6249437,11.8124718 C23.6249437,12.7439729 22.8689488,13.4999678 21.9374477,13.4999678 L6.74998391,13.4999678 L6.74998391,47.2498873 L40.4999034,47.2498873 L40.4999034,35.4374155 C40.4999034,34.5059144 41.2558983,33.7499195 42.1873994,33.7499195 L45.5623914,33.7499195 C46.4938924,33.7499195 47.2498873,34.5059144 47.2498873,35.4374155 L47.2498873,48.9373833 C47.2498873,51.7318865 44.9819026,53.9998713 42.1873994,53.9998713 L5.06248793,53.9998713 C2.2679847,53.9998713 0,51.7318865 0,48.9373833 L0,11.8124718 C0,9.01796861 2.2679847,6.74998391 5.06248793,6.74998391 Z M51.4686273,0 C52.8658789,0 53.9998713,1.13399235 53.9998713,2.53124397 L53.9998713,16.0312118 C53.9998713,18.2987845 51.2576903,19.4062037 49.6756628,17.8241763 L45.9083569,14.0610932 L20.2151389,39.761624 C19.8056245,40.1725803 19.0023541,40.5060832 18.4221744,40.5060832 C17.8419947,40.5060832 17.0387243,40.1725803 16.6292099,39.761624 L14.2382473,37.3748842 C13.8272909,36.9653698 13.493788,36.1620995 13.493788,35.5819197 C13.493788,35.00174 13.8272909,34.1984696 14.2382473,33.7889552 L39.9441339,8.09264733 L36.175695,4.32420844 C34.5884147,2.73270528 35.7147853,0 37.9686595,0 Z"></path></clipPath></defs><g transform="translate(0.0 0.9999999999999964)"><g clip-path="url(#i0)"><polygon points="0,0 53.9998713,0 53.9998713,53.9998713 0,53.9998713 0,0" stroke="none" fill="#696E73"></polygon></g></g></svg>