<?xml version="1.0" encoding="UTF-8"?><svg version="1.1" width="54px" height="41px" viewBox="0 0 54.0 41.0" xmlns="http://www.w3.org/2000/svg" xmlns:xlink="http://www.w3.org/1999/xlink"><defs><clipPath id="i0"><path d="M52.734833,0 C53.4335754,0 54.0000022,0.56642681 54.0000022,1.26516924 L54.0000022,39.3004791 C54.0000022,39.9992215 53.4335754,40.5656483 52.734833,40.5656483 L48.5176022,40.5656483 C47.8188598,40.5656483 47.252433,39.9992215 47.252433,39.3004791 L47.252433,1.26516924 C47.252433,0.56642681 47.8188598,0 48.5176022,0 Z M16.9102588,2.54369128 C17.7337258,1.72022425 19.0688484,1.72022425 19.8923154,2.54369128 L21.6992933,4.35066924 C22.5228131,5.17413626 22.5228131,6.50925881 21.6992933,7.33272584 L12.0954464,16.9365728 L36.2337684,16.9365728 C37.3983039,16.9365728 38.3423838,17.8806526 38.3423838,19.0451882 L38.3423838,21.6006719 C38.3423838,22.7652602 37.3983039,23.7092873 36.2337684,23.7092873 L12.0954464,23.7092873 L21.6992933,33.3131869 C22.5227604,34.136654 22.5227604,35.4717238 21.6992933,36.2951908 L19.8923154,38.1021688 C19.0688484,38.9256358 17.7337258,38.9256358 16.9102588,38.1021688 L2.51848429,23.710447 C2.48822566,23.6834567 2.45838875,23.6556757 2.42939529,23.6266823 L0.616302348,21.8135893 C0.204806055,21.402093 -0.000625800018,20.8626038 2.24856615e-06,20.3232727 C-0.000783946172,19.7837307 0.204595193,19.2439252 0.616302348,18.832218 L2.42934258,17.0191778 C2.45844147,16.9900789 2.48838381,16.9622452 2.51869515,16.9352022 Z"></path></clipPath></defs><g transform="translate(-2.248566154605669e-06 0.4343516618015997)"><g clip-path="url(#i0)"><polygon points="-1.33226763e-15,0 54.0000022,0 54.0000022,40.5656483 -1.33226763e-15,40.5656483 -1.33226763e-15,0" stroke="none" fill="#696E73"></polygon></g></g></svg>