<?xml version="1.0" encoding="UTF-8"?><svg version="1.1" width="54px" height="41px" viewBox="0 0 54.0 41.0" xmlns="http://www.w3.org/2000/svg" xmlns:xlink="http://www.w3.org/1999/xlink"><defs><clipPath id="i0"><path d="M52.7348308,0 C53.4335732,0 54,0.566426802 54,1.26516922 L54,39.3004786 C54,39.999221 53.4335732,40.5656478 52.7348308,40.5656478 L48.5176001,40.5656478 C47.8188576,40.5656478 47.2524308,39.999221 47.2524308,39.3004786 L47.2524308,1.26516922 C47.2524308,0.566426802 47.8188576,0 48.5176001,0 Z M18.4500681,2.54368597 C19.2735351,1.72021896 20.6086577,1.72021896 21.4321247,2.54368597 L35.823899,16.9354075 C35.8541576,16.9623978 35.8839945,16.9901788 35.912988,17.0191723 L37.7260809,18.8322652 C38.1376299,19.2437615 38.343009,19.7833035 38.342381,20.3225818 C38.3431672,20.8621238 38.1377881,21.401982 37.7261336,21.8136365 L35.9130407,23.6267294 C35.8839418,23.6557756 35.8539995,23.6836093 35.8236881,23.7106523 L21.4321247,38.1022157 C20.6086577,38.92563 19.2735351,38.92563 18.4500681,38.1022157 L16.6430902,36.2951851 C15.8196232,35.4717181 15.8196232,34.1366482 16.6430902,33.3131812 L26.246937,23.7092817 L2.10861536,23.7092817 C0.944079813,23.7092817 0,22.7652546 0,21.6006663 L0,19.0452354 C0,17.8806471 0.944079813,16.93662 2.10861536,16.93662 L26.2469897,16.93662 L16.6430902,7.33272047 C15.8196232,6.50925345 15.8196232,5.17413092 16.6430902,4.35066391 Z"></path></clipPath></defs><g transform="translate(0.0 0.434352214324349)"><g clip-path="url(#i0)"><polygon points="0,0 54,0 54,40.5656478 0,40.5656478 0,0" stroke="none" fill="#696E73"></polygon></g></g></svg>