<?xml version="1.0" encoding="UTF-8"?>
<svg width="54px" height="41px" viewBox="0 0 54 41" version="1.1" xmlns="http://www.w3.org/2000/svg" xmlns:xlink="http://www.w3.org/1999/xlink">
    <title></title>
    <g id="Icons" stroke="none" stroke-width="1" fill="none" fill-rule="evenodd">
        <g id="Icons/4.-Size-xl/Actions/panel-open" fill="#6A6E73">
            <path d="M52.7348308,0.434352214 C53.4335732,0.434352214 54,1.00077902 54,1.69952143 L54,1.69952143 L54,39.7348308 C54,40.4335732 53.4335732,41 52.7348308,41 L52.7348308,41 L48.5176001,41 C47.8188576,41 47.2524308,40.4335732 47.2524308,39.7348308 L47.2524308,39.7348308 L47.2524308,1.69952143 C47.2524308,1.00077902 47.8188576,0.434352214 48.5176001,0.434352214 L48.5176001,0.434352214 Z M18.4500681,2.97803819 C19.2735351,2.15457117 20.6086577,2.15457117 21.4321247,2.97803819 L21.4321247,2.97803819 L35.823899,17.3697598 C35.8541576,17.39675 35.8839945,17.424531 35.912988,17.4535245 L35.912988,17.4535245 L37.7260809,19.2666174 C38.1376299,19.6781137 38.343009,20.2176557 38.342381,20.756934 C38.3431672,21.296476 38.1377881,21.8363343 37.7261336,22.2479887 L37.7261336,22.2479887 L35.9130407,24.0610816 C35.8839418,24.0901278 35.8539995,24.1179615 35.8236881,24.1450045 L35.8236881,24.1450045 L21.4321247,38.5365679 C20.6086577,39.3599822 19.2735351,39.3599822 18.4500681,38.5365679 L18.4500681,38.5365679 L16.6430902,36.7295373 C15.8196232,35.9060703 15.8196232,34.5710004 16.6430902,33.7475334 L16.6430902,33.7475334 L26.246937,24.1436339 L2.10861536,24.1436339 C0.944079813,24.1436339 0,23.1996068 0,22.0350185 L0,22.0350185 L0,19.4795876 C0,18.3149993 0.944079813,17.3709722 2.10861536,17.3709722 L2.10861536,17.3709722 L26.2469897,17.3709722 L16.6430902,7.76707268 C15.8196232,6.94360567 15.8196232,5.60848314 16.6430902,4.78501612 L16.6430902,4.78501612 Z" id="Fill-4-2"></path>
        </g>
    </g>
</svg>