<?xml version="1.0" encoding="UTF-8"?>
<svg width="54px" height="41px" viewBox="0 0 54 41" version="1.1" xmlns="http://www.w3.org/2000/svg" xmlns:xlink="http://www.w3.org/1999/xlink">
    <title></title>
    <g id="Icons" stroke="none" stroke-width="1" fill="none" fill-rule="evenodd">
        <g id="Icons/4.-Size-xl/Actions/panel-close" fill="#6A6E73">
            <path d="M52.7348308,0.434351662 L48.5176,0.434351662 C47.8188576,0.434351662 47.2524307,1.00077847 47.2524307,1.6995209 L47.2524307,39.7348308 C47.2524307,40.4335732 47.8188576,41 48.5176,41 L52.7348308,41 C53.4335732,41 54,40.4335732 54,39.7348308 L54,1.6995209 C54,1.00077847 53.4335732,0.434351662 52.7348308,0.434351662 M0.6163001,22.247941 L2.42939304,24.0610339 C2.45838651,24.0900274 2.48822341,24.1178084 2.51848204,24.1447987 L16.9102565,38.5365205 C17.7337236,39.3599875 19.0688461,39.3599875 19.8923131,38.5365205 L21.6992911,36.7295425 C22.5227581,35.9060755 22.5227581,34.5710056 21.6992911,33.7475386 L12.0954441,24.1436389 L36.2337661,24.1436389 C37.3983017,24.1436389 38.3423815,23.1996118 38.3423815,22.0350236 L38.3423815,19.4795398 C38.3423815,18.3150043 37.3983017,17.3709244 36.2337661,17.3709244 L12.0954441,17.3709244 L21.6992911,7.7670775 C22.5228108,6.94361048 22.5228108,5.60848792 21.6992911,4.7850209 L19.8923131,2.97804294 C19.0688461,2.15457591 17.7337236,2.15457591 16.9102565,2.97804294 L2.51869291,17.3695538 C2.48838156,17.3965968 2.45843922,17.4244306 2.42934033,17.4535295 L0.6163001,19.2665697 C0.204592944,19.6782768 -0.000786194738,20.2180824 0,20.7576243 C-0.000628048584,21.2969554 0.204803806,21.8364447 0.6163001,22.247941" id="Fill-4-2"></path>
        </g>
    </g>
</svg>