<?xml version="1.0" encoding="UTF-8"?><svg version="1.1" width="48px" height="48px" viewBox="0 0 48.0 48.0" xmlns="http://www.w3.org/2000/svg" xmlns:xlink="http://www.w3.org/1999/xlink"><defs><clipPath id="i0"><path d="M15.1874638,0 C17.982379,0 20.2499517,2.26757272 20.2499517,5.06248793 L20.2499517,42.1873994 C20.2499517,44.9823146 17.982379,47.2498873 15.1874638,47.2498873 L5.06248793,47.2498873 C2.26757272,47.2498873 0,44.9823146 0,42.1873994 L0,5.06248793 C0,2.26757272 2.26757272,0 5.06248793,0 Z M42.1873994,0 C44.9823146,0 47.2498873,2.26757272 47.2498873,5.06248793 L47.2498873,42.1873994 C47.2498873,44.9823146 44.9823146,47.2498873 42.1873994,47.2498873 L32.0624236,47.2498873 C29.2675083,47.2498873 26.9999356,44.9823146 26.9999356,42.1873994 L26.9999356,5.06248793 C26.9999356,2.26757272 29.2675083,0 32.0624236,0 Z"></path></clipPath></defs><g clip-path="url(#i0)"><polygon points="0,0 47.2498873,0 47.2498873,47.2498873 0,47.2498873 0,0" stroke="none" fill="#696E73"></polygon></g></svg>