<?xml version="1.0" encoding="UTF-8"?><svg version="1.1" width="53px" height="53px" viewBox="0 0 53.0 53.0" xmlns="http://www.w3.org/2000/svg" xmlns:xlink="http://www.w3.org/1999/xlink"><defs><clipPath id="i0"><path d="M26.1561876,0 C40.6053719,0 52.3123753,11.7070033 52.3123753,26.1561876 C52.3123753,40.6053719 40.6053719,52.3123753 26.1561876,52.3123753 C11.7070033,52.3123753 0,40.6053719 0,26.1561876 C0,11.7070033 11.7070033,0 26.1561876,0 Z M22.7811957,16.0312118 L17.7187078,16.0312118 C16.7906056,16.0312118 16.0312118,16.7906056 16.0312118,17.7187078 L16.0312118,34.5936675 C16.0312118,35.5217697 16.7906056,36.2811635 17.7187078,36.2811635 L22.7811957,36.2811635 C23.7092979,36.2811635 24.4686917,35.5217697 24.4686917,34.5936675 L24.4686917,17.7187078 C24.4686917,16.7906056 23.7092979,16.0312118 22.7811957,16.0312118 Z M34.5936675,16.0312118 L29.5311796,16.0312118 C28.6030774,16.0312118 27.8436836,16.7906056 27.8436836,17.7187078 L27.8436836,34.5936675 C27.8436836,35.5217697 28.6030774,36.2811635 29.5311796,36.2811635 L34.5936675,36.2811635 C35.5217697,36.2811635 36.2811635,35.5217697 36.2811635,34.5936675 L36.2811635,17.7187078 C36.2811635,16.7906056 35.5217697,16.0312118 34.5936675,16.0312118 Z"></path></clipPath></defs><g clip-path="url(#i0)"><polygon points="0,0 52.3123753,0 52.3123753,52.3123753 0,52.3123753 0,0" stroke="none" fill="#696E73"></polygon></g></svg>