<?xml version="1.0" encoding="UTF-8"?>
<svg width="54px" height="54px" viewBox="0 0 54 54" version="1.1" xmlns="http://www.w3.org/2000/svg" xmlns:xlink="http://www.w3.org/1999/xlink">
    <title></title>
    <g id="Icons" stroke="none" stroke-width="1" fill="none" fill-rule="evenodd">
        <g id="Icons/4.-Size-xl/Actions/pencil-alt" fill="#6A6E73">
            <path d="M47.6481171,19.8412613 L52.5102767,14.9791017 C54.4930638,12.9963145 54.4930638,9.79013398 52.5102767,7.81785245 L46.1715581,1.47913389 C44.1887709,-0.493044631 40.9824874,-0.493044631 39.0103088,1.47913389 L34.1481493,6.34129347 C33.6524267,6.83701602 33.6524267,7.63853541 34.1481493,8.13425795 L45.8551526,19.8412613 C46.3508751,20.3369838 47.1523945,20.3369838 47.6481171,19.8412613 Z M2.9717023,53.9603206 L15.7861249,51.7138621 L43.4821114,24.0177726 C43.9778339,23.5220501 43.9778339,22.7205307 43.4821114,22.2248082 L31.7751081,10.5178048 C31.2688799,10.0220823 30.4673605,10.0220823 29.9716379,10.5178048 L2.27554841,38.2138943 L0.0396986372,51.0283169 C-0.266201207,52.7579385 1.24197772,54.2556118 2.9717023,53.9603206 Z M13.0860695,35.8408531 C12.5059928,35.2607764 12.5059928,34.3325712 13.0860695,33.7524944 L29.3282183,17.5103457 C29.908295,16.9302689 30.8365002,16.9302689 31.416577,17.5103457 C31.9966537,18.0904224 31.9966537,19.0186276 31.416577,19.5987043 L15.1744282,35.8408531 C14.5943514,36.4209299 13.6661463,36.4209299 13.0860695,35.8408531 Z M7.53846768,49.730972 L4.25843858,46.4509429 L5.45021201,39.6482247 L9.27869791,39.6482247 L9.27869791,44.7107126 L14.3411858,44.7107126 L14.3411858,48.5391985 L7.53846768,49.730972 Z" id="pencil-alt"></path>
        </g>
    </g>
</svg>