<?xml version="1.0" encoding="UTF-8"?><svg version="1.1" width="54px" height="54px" viewBox="0 0 54.0 54.0" xmlns="http://www.w3.org/2000/svg" xmlns:xlink="http://www.w3.org/1999/xlink"><defs><clipPath id="i0"><path d="M29.9716379,10.5178048 C30.4673605,10.0220823 31.2688799,10.0220823 31.7751081,10.5178048 L43.4821114,22.2248082 C43.9778339,22.7205307 43.9778339,23.5220501 43.4821114,24.0177726 L15.7861249,51.7138621 L2.9717023,53.9603206 C1.24197772,54.2556118 -0.266201207,52.7579385 0.0396986372,51.0283169 L2.27554841,38.2138943 Z M9.27869791,39.6482247 L5.45021201,39.6482247 L4.25843858,46.4509429 L7.53846768,49.730972 L14.3411858,48.5391985 L14.3411858,44.7107126 L9.27869791,44.7107126 L9.27869791,39.6482247 Z M31.416577,17.5103457 C30.8365002,16.9302689 29.908295,16.9302689 29.3282183,17.5103457 L13.0860695,33.7524944 C12.5059928,34.3325712 12.5059928,35.2607764 13.0860695,35.8408531 C13.6661463,36.4209299 14.5943514,36.4209299 15.1744282,35.8408531 L31.416577,19.5987043 C31.9966537,19.0186276 31.9966537,18.0904224 31.416577,17.5103457 Z M39.0103088,1.47913389 C40.9824874,-0.493044631 44.1887709,-0.493044631 46.1715581,1.47913389 L52.5102767,7.81785245 C54.4930638,9.79013398 54.4930638,12.9963145 52.5102767,14.9791017 L47.6481171,19.8412613 C47.1523945,20.3369838 46.3508751,20.3369838 45.8551526,19.8412613 L34.1481493,8.13425795 C33.6524267,7.63853541 33.6524267,6.83701602 34.1481493,6.34129347 Z"></path></clipPath></defs><g transform=""><g clip-path="url(#i0)"><polygon points="1.42108547e-14,-2.22044605e-16 53.997367,-2.22044605e-16 53.997367,53.9977174 1.42108547e-14,53.9977174 1.42108547e-14,-2.22044605e-16" stroke="none" fill="#696E73"></polygon></g></g></svg>