<?xml version="1.0" encoding="UTF-8"?><svg version="1.1" width="55px" height="54px" viewBox="0 0 55.0 54.0" xmlns="http://www.w3.org/2000/svg" xmlns:xlink="http://www.w3.org/1999/xlink"><defs><clipPath id="i0"><path d="M52.8029302,0 C53.1509771,0 53.4357427,0.110742188 53.6625005,0.3375 C53.8892583,0.564257812 54,0.849023438 54,1.19707031 L54,52.8029297 C54,53.1509766 53.8892583,53.4357422 53.6625005,53.6625 C53.4357427,53.8892578 53.1509771,54 52.8029302,54 L1.19707086,54 C0.849023986,54 0.564258361,53.8892578 0.337500549,53.6625 C0.110742736,53.4357422 0,53.1509766 0,52.8029297 L0,26.1351563 C0,25.7937874 0.205712241,25.4860842 0.521536206,25.3565154 C0.837360171,25.2269466 1.20017986,25.3012466 1.43964899,25.5445312 L6.2542974,30.3591797 C6.5712359,30.6748588 6.74958171,31.1036477 6.75000053,31.5509766 L6.75000053,47.25 L47.2500005,47.25 L47.2500005,6.75 L31.598438,6.75 C31.1511091,6.74958118 30.7223203,6.57123537 30.4066412,6.25429687 L25.5919927,1.43964844 C25.3512905,1.19836351 25.2793847,0.83596165 25.4097305,0.521055365 C25.5400763,0.206149082 25.847075,0.000583159526 26.1878912,0 Z M6.2121099,0 C6.60761771,0 6.96093803,0.152929687 7.2667974,0.458789063 L29.0513677,22.2486328 L34.5832037,16.7115234 C35.9753912,15.3193359 37.1197271,15.7886719 37.1250005,17.7556641 L37.1250005,33.5337891 C37.1250005,36.5818359 36.624024,37.125 33.539063,37.125 L17.760938,37.125 C15.7886724,37.125 15.3193365,35.9753906 16.711524,34.5832031 L22.2486333,29.0460937 L0.458789611,7.26679688 C0.152930236,6.9609375 5.48860516e-07,6.60761719 5.48860516e-07,6.21210937 C5.48860516e-07,5.81660156 0.152930236,5.46328125 0.458789611,5.15742187 L5.15742242,0.458789063 C5.46328178,0.152929687 5.81660209,0 6.2121099,0 Z"></path></clipPath></defs><g clip-path="url(#i0)"><polygon points="0,0 54,0 54,54 0,54 0,0" stroke="none" fill="#696E73"></polygon></g></svg>