<?xml version="1.0" encoding="UTF-8"?><svg version="1.1" width="54px" height="54px" viewBox="0 0 54.0 54.0" xmlns="http://www.w3.org/2000/svg" xmlns:xlink="http://www.w3.org/1999/xlink"><defs><clipPath id="i0"><path d="M23.0923828,16.8697266 C23.4878906,16.8697266 23.8412109,17.0226563 24.1470703,17.3285156 L45.9263672,39.1183594 L51.4582031,33.5865234 C52.8503906,32.1943359 53.9947266,32.6636719 54,34.6306641 L54,50.4087891 C54,53.4568359 53.4990234,54 50.4140625,54 L34.6359375,54 C32.6636719,54 32.1943359,52.8503906 33.5865234,51.4582031 L39.1289062,45.9158203 L17.3390625,24.1365234 C17.0332031,23.8306641 16.8802734,23.4773438 16.8802734,23.0818359 C16.8802734,22.6863281 17.0332031,22.3330078 17.3390625,22.0271484 L22.0376953,17.3285156 C22.3435547,17.0226563 22.696875,16.8697266 23.0923828,16.8697266 Z M52.8029297,0 C53.1509766,0 53.4357422,0.110742188 53.6625,0.3375 C53.8892578,0.564257812 54,0.849023438 54,1.19707031 L54,24.4845703 C54,25.2333984 53.0929687,25.6130859 52.5603516,25.0804688 L47.7457031,20.2658203 C47.4287646,19.9501412 47.2504188,19.5213523 47.25,19.0740234 L47.25,6.75 L6.75,6.75 L6.75,47.25 L19.0265625,47.25 C19.4738914,47.2504188 19.9026802,47.4287646 20.2183594,47.7457031 L25.0330078,52.5603516 C25.2737101,52.8016366 25.3456159,53.1640383 25.21527,53.4789448 C25.0849242,53.7938508 24.7779255,53.9994168 24.4371094,54 L1.19707031,54 C0.849023438,54 0.564257812,53.8892578 0.3375,53.6625 C0.110742188,53.4357422 0,53.1509766 0,52.8029297 L0,1.19707031 C0,0.849023438 0.110742188,0.564257812 0.3375,0.3375 C0.564257812,0.110742188 0.849023438,0 1.19707031,0 Z"></path></clipPath></defs><g clip-path="url(#i0)"><polygon points="0,0 54,0 54,54 0,54 0,0" stroke="none" fill="#696E73"></polygon></g></svg>