<?xml version="1.0" encoding="UTF-8"?><svg version="1.1" width="54px" height="54px" viewBox="0 0 54.0 54.0" xmlns="http://www.w3.org/2000/svg" xmlns:xlink="http://www.w3.org/1999/xlink"><defs><clipPath id="i0"><path d="M43.1789062,0 C43.6271484,0 44.0542969,0.179296875 44.3707031,0.495703125 L53.5042969,9.62929687 C53.8207031,9.94570312 54,10.378125 54,10.8263672 L54,52.3125 C54,53.2458984 53.2458984,54 52.3125,54 L1.6875,54 C0.754101563,54 0,53.2458984 0,52.3125 L0,1.6875 C0,0.754101563 0.754101563,0 1.6875,0 Z M41.0800781,6.75 L6.75,6.75 L6.75,47.25 L47.25,47.25 L47.25,12.9199219 L41.0800781,6.75 Z M29.5681641,13.5 C30.0005859,13.5 30.375,13.8533203 30.375,14.2910156 L30.375,27 L37.0353516,27 C38.4591797,27 39.2449219,28.6558594 38.3431641,29.7580078 L28.2972656,42.0240234 C27.6275391,42.8466797 26.3671875,42.8466797 25.6921875,42.0292969 L15.5671875,29.7632813 C14.6601562,28.6611328 15.440625,27 16.8697266,27 L23.625,27 L23.625,14.4492188 C23.625,13.9271484 24.0521484,13.5 24.5742188,13.5 Z"></path></clipPath></defs><g clip-path="url(#i0)"><polygon points="0,0 54,0 54,54 0,54 0,0" stroke="none" fill="#696E73"></polygon></g></svg>