<?xml version="1.0" encoding="UTF-8"?><svg version="1.1" width="53px" height="53px" viewBox="0 0 53.0 53.0" xmlns="http://www.w3.org/2000/svg" xmlns:xlink="http://www.w3.org/1999/xlink"><defs><clipPath id="i0"><path d="M26.1561876,0 C40.6053719,0 52.3123753,11.7070033 52.3123753,26.1561876 C52.3123753,40.6053719 40.6053719,52.3123753 26.1561876,52.3123753 C11.7070033,52.3123753 0,40.6053719 0,26.1561876 C0,11.7070033 11.7070033,0 26.1561876,0 Z M29.1093056,10.9687238 L23.2030697,10.9687238 C22.5070188,10.9687238 21.9374477,11.5382949 21.9374477,12.2343458 L21.9374477,21.9374477 L12.2343458,21.9374477 C11.5382949,21.9374477 10.9687238,22.5070188 10.9687238,23.2030697 L10.9687238,29.1093056 C10.9687238,29.8053565 11.5382949,30.3749276 12.2343458,30.3749276 L21.9374477,30.3749276 L21.9374477,40.0780294 C21.9374477,40.7740803 22.5070188,41.3436514 23.2030697,41.3436514 L29.1093056,41.3436514 C29.8053565,41.3436514 30.3749276,40.7740803 30.3749276,40.0780294 L30.3749276,30.3749276 L40.0780294,30.3749276 C40.7740803,30.3749276 41.3436514,29.8053565 41.3436514,29.1093056 L41.3436514,23.2030697 C41.3436514,22.5070188 40.7740803,21.9374477 40.0780294,21.9374477 L30.3749276,21.9374477 L30.3749276,12.2343458 C30.3749276,11.5382949 29.8053565,10.9687238 29.1093056,10.9687238 Z"></path></clipPath></defs><g clip-path="url(#i0)"><polygon points="0,0 52.3123753,0 52.3123753,52.3123753 0,52.3123753 0,0" stroke="none" fill="#696E73"></polygon></g></svg>