<?xml version="1.0" encoding="UTF-8"?><svg version="1.1" width="48px" height="48px" viewBox="0 0 48.0 48.0" xmlns="http://www.w3.org/2000/svg" xmlns:xlink="http://www.w3.org/1999/xlink"><defs><clipPath id="i0"><path d="M25.3124397,0 C27.1760598,0 28.6874316,1.51137182 28.6874316,3.37499195 L28.6874316,18.5624557 L43.8748954,18.5624557 C45.7385155,18.5624557 47.2498873,20.0738276 47.2498873,21.9374477 L47.2498873,25.3124397 C47.2498873,27.1760598 45.7385155,28.6874316 43.8748954,28.6874316 L28.6874316,28.6874316 L28.6874316,43.8748954 C28.6874316,45.7385155 27.1760598,47.2498873 25.3124397,47.2498873 L21.9374477,47.2498873 C20.0738276,47.2498873 18.5624557,45.7385155 18.5624557,43.8748954 L18.5624557,28.6874316 L3.37499195,28.6874316 C1.51137182,28.6874316 0,27.1760598 0,25.3124397 L0,21.9374477 C0,20.0738276 1.51137182,18.5624557 3.37499195,18.5624557 L18.5624557,18.5624557 L18.5624557,3.37499195 C18.5624557,1.51137182 20.0738276,0 21.9374477,0 Z"></path></clipPath></defs><g clip-path="url(#i0)"><polygon points="0,0 47.2498873,0 47.2498873,47.2498873 0,47.2498873 0,0" stroke="none" fill="#696E73"></polygon></g></svg>