<?xml version="1.0" encoding="UTF-8"?><svg version="1.1" width="54px" height="55px" viewBox="0 0 54.0 55.0" xmlns="http://www.w3.org/2000/svg" xmlns:xlink="http://www.w3.org/1999/xlink"><defs><clipPath id="i0"><path d="M39.1014159,0 C39.9968681,0 40.8553446,0.3554412 41.4881556,0.988252191 L46.2616352,5.76070175 C46.8944461,6.39454271 47.2498873,7.25198924 47.2498873,8.14744151 L47.2498873,20.2499517 C50.9781576,20.2499517 53.9998713,23.2716654 53.9998713,26.9999356 L53.9998713,38.8124075 C53.9998713,39.7447325 53.2447003,40.4999034 52.3123753,40.4999034 L47.2498873,40.4999034 L47.2498873,50.6248793 C47.2498873,52.4884994 45.7385155,53.9998713 43.8748954,53.9998713 L10.1249759,53.9998713 C8.26135573,53.9998713 6.74998391,52.4884994 6.74998391,50.6248793 L6.74998391,40.4999034 L1.68749598,40.4999034 C0.755170929,40.4999034 0,39.7447325 0,38.8124075 L0,26.9999356 C0,23.2716654 3.02171368,20.2499517 6.74998391,20.2499517 L6.74998391,3.37499195 C6.74998391,1.51137182 8.26135573,0 10.1249759,0 Z M40.4999034,37.1249115 L13.4999678,37.1249115 L13.4999678,47.2498873 L40.4999034,47.2498873 L40.4999034,37.1249115 Z M45.5623914,26.1561876 C44.1649338,26.1561876 43.0311474,27.288944 43.0311474,28.6874316 C43.0311474,30.0848892 44.1649338,31.2186756 45.5623914,31.2186756 C46.959849,31.2186756 48.0936353,30.0848892 48.0936353,28.6874316 C48.0936353,27.288944 46.959849,26.1561876 45.5623914,26.1561876 Z M33.7499195,6.74998391 L13.4999678,6.74998391 L13.4999678,23.6249437 L40.4999034,23.6249437 L40.4999034,13.4999678 L35.4374155,13.4999678 C34.5050905,13.4999678 33.7499195,12.7447969 33.7499195,11.8124718 L33.7499195,6.74998391 Z"></path></clipPath></defs><g transform="translate(0.0 0.9999999999999964)"><g clip-path="url(#i0)"><polygon points="0,0 53.9998713,0 53.9998713,53.9998713 0,53.9998713 0,0" stroke="none" fill="#696E73"></polygon></g></g></svg>