<?xml version="1.0" encoding="UTF-8"?><svg version="1.1" width="54px" height="55px" viewBox="0 0 54.0 55.0" xmlns="http://www.w3.org/2000/svg" xmlns:xlink="http://www.w3.org/1999/xlink"><defs><clipPath id="i0"><path d="M51.9253212,0 C52.623947,0 53.1909431,0.566996176 53.1909431,1.26562198 L53.1909431,22.3951645 C53.1909431,23.0937903 52.623947,23.6607865 51.9253212,23.6607865 L30.7968086,23.6607865 C30.0981828,23.6607865 29.5311866,23.0937903 29.5311866,22.3951645 L29.5311866,17.3934446 C29.5311866,16.6948187 30.0981828,16.1278226 30.7968086,16.1278226 L30.8569586,16.1292645 L41.5651011,16.6429085 C38.5200072,12.1118829 31.6178974,8.43449298 26.1586666,8.43449298 C15.9122578,8.43449298 7.59621085,16.7505399 7.59621085,26.9969487 C7.59621085,37.2434606 15.9122578,45.5594045 26.1586666,45.5594045 C30.0245403,45.5594045 35.5176569,43.4869073 38.4201005,40.933416 C38.617545,40.7607938 38.9905986,40.6208214 39.2528279,40.6208214 C39.5421453,40.6208214 39.943008,40.7868519 40.1476622,40.9914031 L43.7335911,44.5773321 C43.9383483,44.7819863 44.1045848,45.183055 44.1045848,45.4725784 C44.1045848,45.784864 43.9156891,46.207356 43.6829168,46.415615 C39.5727353,50.1363665 31.7371674,53.1561233 26.1929645,53.1561233 L26.1561947,53.1561233 C11.717516,53.1561233 0.0105126885,41.4565357 0,27.02002 C-0.0104986139,12.6066785 11.7428532,0.843747988 26.1561947,0.843747988 L26.1849307,0.843747988 C32.8531353,0.843747988 41.7667684,4.9701 46.0812952,10.0543202 L45.6594212,1.32577199 L45.6579792,1.26562198 C45.6579792,0.566996176 46.2249754,0 46.9236012,0 Z"></path></clipPath></defs><g transform="translate(3.552713678800501e-15 0.9999999999999964)"><g clip-path="url(#i0)"><polygon points="-7.02790204e-06,0 53.1909431,0 53.1909431,53.1561233 -7.02790204e-06,53.1561233 -7.02790204e-06,0" stroke="none" fill="#696E73"></polygon></g></g></svg>