<?xml version="1.0" encoding="UTF-8"?><svg version="1.1" width="54px" height="55px" viewBox="0 0 54.0 55.0" xmlns="http://www.w3.org/2000/svg" xmlns:xlink="http://www.w3.org/1999/xlink"><defs><clipPath id="i0"><path d="M21.9374477,0 C34.0558194,0 43.8748954,9.81907602 43.8748954,21.9374477 C43.8748954,27.0315556 42.1451708,31.7143981 39.2342815,35.4374155 L40.9533974,35.4374155 C41.628437,35.4374155 42.2717536,35.7010868 42.7463619,36.175695 L53.2615918,46.6909249 C54.2424282,47.682267 54.2424282,49.2854088 53.2615918,50.2768539 L50.2768539,53.2615918 C49.2854088,54.2530368 47.682267,54.2530368 46.7014306,53.2615918 L36.175695,42.7463619 C35.7010868,42.2717536 35.4374155,41.628437 35.4374155,40.9533974 L35.4374155,39.2342815 C31.7143981,42.1451708 27.0315556,43.8748954 21.9374477,43.8748954 C9.81907602,43.8748954 0,34.0558194 0,21.9374477 C0,9.81907602 9.81907602,0 21.9374477,0 Z M21.9374477,7.5937319 C14.006196,7.5937319 7.5937319,14.006196 7.5937319,21.9374477 C7.5937319,29.8686994 14.006196,36.2811635 21.9374477,36.2811635 C29.8686994,36.2811635 36.2811635,29.8686994 36.2811635,21.9374477 C36.2811635,14.006196 29.8686994,7.5937319 21.9374477,7.5937319 Z M23.6249437,11.8124718 C24.3209946,11.8124718 24.8905657,12.3820429 24.8905657,13.0780938 L24.8905657,18.9843297 L30.7968016,18.9843297 C31.4928525,18.9843297 32.0624236,19.5539008 32.0624236,20.2499517 L32.0624236,23.6249437 C32.0624236,24.3209946 31.4928525,24.8905657 30.7968016,24.8905657 L24.8905657,24.8905657 L24.8905657,30.7968016 C24.8905657,31.4928525 24.3209946,32.0624236 23.6249437,32.0624236 L20.2499517,32.0624236 C19.5539008,32.0624236 18.9843297,31.4928525 18.9843297,30.7968016 L18.9843297,24.8905657 L13.0780938,24.8905657 C12.3820429,24.8905657 11.8124718,24.3209946 11.8124718,23.6249437 L11.8124718,20.2499517 C11.8124718,19.5539008 12.3820429,18.9843297 13.0780938,18.9843297 L18.9843297,18.9843297 L18.9843297,13.0780938 C18.9843297,12.3820429 19.5539008,11.8124718 20.2499517,11.8124718 Z"></path></clipPath></defs><g clip-path="url(#i0)"><polygon points="0,0 53.9972191,0 53.9972191,54.0051756 0,54.0051756 0,0" stroke="none" fill="#696E73"></polygon></g></svg>