<?xml version="1.0" encoding="UTF-8"?><svg version="1.1" width="61px" height="54px" viewBox="0 0 61.0 54.0" xmlns="http://www.w3.org/2000/svg" xmlns:xlink="http://www.w3.org/1999/xlink"><defs><clipPath id="i0"><path d="M17.8276781,6.7499892 C19.1513902,6.7499892 19.5863448,8.52503227 18.4124927,9.13683196 C16.4320745,10.1689607 14.609138,11.4685715 13.0321573,13.11044 C12.8261642,13.3252909 12.4175767,13.4997671 12.1200196,13.4999731 L6.74998391,13.4999731 L6.74998391,47.2498926 L40.4999034,47.2498926 L40.4999034,39.9860588 C40.4999034,39.2114215 41.1886416,38.624959 41.9553481,38.7352683 C42.2518753,38.7780119 42.7356502,38.8127217 43.0352673,38.8127217 C43.7529474,38.8127217 44.8845709,38.6184702 45.5612584,38.3791061 C46.385334,38.0876258 47.2498873,38.6970566 47.2498873,39.5711886 L47.2498873,48.9373886 C47.2498873,51.7333338 44.9833446,53.9998765 42.1873994,53.9998765 L5.06248793,53.9998765 C2.26654275,53.9998765 0,51.7333338 0,48.9373886 L0,11.8124771 C0,9.01653196 2.26654275,6.7499892 5.06248793,6.7499892 Z M40.4999034,2.53248522 C40.4999034,0.299313359 43.1700898,-0.817993548 44.7691117,0.69234831 L59.9569875,15.0347252 C61.0137324,16.032762 61.0145564,17.7162411 59.9569875,18.715205 L44.7691117,33.0572728 C43.1682359,34.5691596 40.4999034,33.4482478 40.4999034,31.2171359 L40.4999034,23.6273179 C25.2517747,23.7295935 18.8191232,27.3305599 23.1212904,41.6996129 C23.5941477,43.2787565 21.7664734,44.5016349 20.48396,43.5273902 C16.3741904,40.4055639 12.6562198,34.4342341 12.6562198,28.4067712 C12.6562198,13.2260022 25.0591711,10.2134552 40.4999034,10.1278651 Z"></path></clipPath></defs><g transform=""><g clip-path="url(#i0)"><polygon points="0,-1.78745907e-14 60.7498552,-1.78745907e-14 60.7498552,53.9998765 0,53.9998765 0,-1.78745907e-14" stroke="none" fill="#696E73"></polygon></g></g></svg>