<?xml version="1.0" encoding="UTF-8"?><svg version="1.1" width="54px" height="48px" viewBox="0 0 54.0 48.0" xmlns="http://www.w3.org/2000/svg" xmlns:xlink="http://www.w3.org/1999/xlink"><defs><clipPath id="i0"><path d="M11.8125696,0 C12.7440707,0 13.5000656,0.755994902 13.5000656,1.68749598 L13.5000656,33.7499195 L18.5625535,33.7499195 C20.0622867,33.7499195 20.8142647,35.5702811 19.7575198,36.6302189 L11.3200399,46.7551948 C11.047202,47.0278267 10.5128557,47.2490634 10.1271335,47.2490634 C9.74151435,47.2490634 9.20716809,47.0278267 8.93433014,46.7551948 L0.496850261,36.6302189 C-0.566280444,35.5682212 0.190950416,33.7499195 1.68759373,33.7499195 L6.75008166,33.7499195 L6.75008166,1.68749598 C6.75008166,0.755994902 7.50607656,0 8.43757764,0 Z M52.312473,40.4999034 C53.2439741,40.4999034 53.999969,41.2558983 53.999969,42.1873994 L53.999969,45.5623914 C53.999969,46.4938924 53.2439741,47.2498873 52.312473,47.2498873 L25.3125374,47.2498873 C24.3810363,47.2498873 23.6250414,46.4938924 23.6250414,45.5623914 L23.6250414,42.1873994 C23.6250414,41.2558983 24.3810363,40.4999034 25.3125374,40.4999034 Z M45.5624891,26.9999356 C46.4939902,26.9999356 47.2499851,27.7559305 47.2499851,28.6874316 L47.2499851,32.0624236 C47.2499851,32.9939246 46.4939902,33.7499195 45.5624891,33.7499195 L25.3125374,33.7499195 C24.3810363,33.7499195 23.6250414,32.9939246 23.6250414,32.0624236 L23.6250414,28.6874316 C23.6250414,27.7559305 24.3810363,26.9999356 25.3125374,26.9999356 Z M38.8125052,13.4999678 C39.7440063,13.4999678 40.5000012,14.2559627 40.5000012,15.1874638 L40.5000012,18.5624557 C40.5000012,19.4939568 39.7440063,20.2499517 38.8125052,20.2499517 L25.3125374,20.2499517 C24.3810363,20.2499517 23.6250414,19.4939568 23.6250414,18.5624557 L23.6250414,15.1874638 C23.6250414,14.2559627 24.3810363,13.4999678 25.3125374,13.4999678 Z M32.0625213,0 C32.9940224,0 33.7500173,0.755994902 33.7500173,1.68749598 L33.7500173,5.06248793 C33.7500173,5.99398901 32.9940224,6.74998391 32.0625213,6.74998391 L25.3125374,6.74998391 C24.3810363,6.74998391 23.6250414,5.99398901 23.6250414,5.06248793 L23.6250414,1.68749598 C23.6250414,0.755994902 24.3810363,0 25.3125374,0 Z"></path></clipPath></defs><g transform=""><g clip-path="url(#i0)"><polygon points="-2.22044605e-16,0 53.999969,0 53.999969,47.2498873 -2.22044605e-16,47.2498873 -2.22044605e-16,0" stroke="none" fill="#696E73"></polygon></g></g></svg>