<?xml version="1.0" encoding="UTF-8"?>
<svg width="54px" height="48px" viewBox="0 0 54 48" version="1.1" xmlns="http://www.w3.org/2000/svg" xmlns:xlink="http://www.w3.org/1999/xlink">
    <title></title>
    <g id="Icons" stroke="none" stroke-width="1" fill="none" fill-rule="evenodd">
        <g id="Icons/4.-Size-xl/Actions/sort-amount-down-alt" fill="#6A6E73">
            <path d="M32.0625213,6.74998391 C32.9940224,6.74998391 33.7500173,5.99398901 33.7500173,5.06248793 L33.7500173,1.68749598 C33.7500173,0.755994902 32.9940224,3.55271368e-15 32.0625213,3.55271368e-15 L25.3125374,3.55271368e-15 C24.3810363,3.55271368e-15 23.6250414,0.755994902 23.6250414,1.68749598 L23.6250414,5.06248793 C23.6250414,5.99398901 24.3810363,6.74998391 25.3125374,6.74998391 L32.0625213,6.74998391 Z M10.1271335,47.2490634 C10.5128557,47.2490634 11.047202,47.0278267 11.3200399,46.7551948 L19.7575198,36.6302189 C20.8142647,35.5702811 20.0622867,33.7499195 18.5625535,33.7499195 L13.5000656,33.7499195 L13.5000656,1.68749598 C13.5000656,0.755994902 12.7440707,3.55271368e-15 11.8125696,3.55271368e-15 L8.43757764,3.55271368e-15 C7.50607656,3.55271368e-15 6.75008166,0.755994902 6.75008166,1.68749598 L6.75008166,33.7499195 L1.68759373,33.7499195 C0.190950416,33.7499195 -0.566280444,35.5682212 0.496850261,36.6302189 L8.93433014,46.7551948 C9.20716809,47.0278267 9.74151435,47.2490634 10.1271335,47.2490634 Z M38.8125052,20.2499517 C39.7440063,20.2499517 40.5000012,19.4939568 40.5000012,18.5624557 L40.5000012,15.1874638 C40.5000012,14.2559627 39.7440063,13.4999678 38.8125052,13.4999678 L25.3125374,13.4999678 C24.3810363,13.4999678 23.6250414,14.2559627 23.6250414,15.1874638 L23.6250414,18.5624557 C23.6250414,19.4939568 24.3810363,20.2499517 25.3125374,20.2499517 L38.8125052,20.2499517 Z M45.5624891,33.7499195 C46.4939902,33.7499195 47.2499851,32.9939246 47.2499851,32.0624236 L47.2499851,28.6874316 C47.2499851,27.7559305 46.4939902,26.9999356 45.5624891,26.9999356 L25.3125374,26.9999356 C24.3810363,26.9999356 23.6250414,27.7559305 23.6250414,28.6874316 L23.6250414,32.0624236 C23.6250414,32.9939246 24.3810363,33.7499195 25.3125374,33.7499195 L45.5624891,33.7499195 Z M52.312473,47.2498873 C53.2439741,47.2498873 53.999969,46.4938924 53.999969,45.5623914 L53.999969,42.1873994 C53.999969,41.2558983 53.2439741,40.4999034 52.312473,40.4999034 L25.3125374,40.4999034 C24.3810363,40.4999034 23.6250414,41.2558983 23.6250414,42.1873994 L23.6250414,45.5623914 C23.6250414,46.4938924 24.3810363,47.2498873 25.3125374,47.2498873 L52.312473,47.2498873 Z" id="sort-amount-down-alt"></path>
        </g>
    </g>
</svg>