<?xml version="1.0" encoding="UTF-8"?><svg version="1.1" width="53px" height="53px" viewBox="0 0 53.0 53.0" xmlns="http://www.w3.org/2000/svg" xmlns:xlink="http://www.w3.org/1999/xlink"><defs><clipPath id="i0"><path d="M50.6141677,29.5313856 C51.4049754,29.5313856 52.0056515,30.2492718 51.8593963,31.0264839 C49.5773011,43.1446496 38.9375483,52.3123753 26.1561876,52.3123753 C19.1479913,52.3123753 12.7837296,49.5558778 8.08780649,45.0683168 L4.32101555,48.8351077 C2.72642249,50.4297008 0,49.3003433 0,47.0451301 L0,32.9061715 C0,31.508199 1.13327138,30.3749276 2.53124397,30.3749276 L16.6702026,30.3749276 C18.9254157,30.3749276 20.0547732,33.1013501 18.4601801,34.6960461 L14.0568703,39.0993559 C17.3539969,42.1867814 21.6331958,43.8791183 26.1726671,43.8749984 C34.337824,43.8675826 41.3932958,38.2700275 43.3415791,30.4964635 C43.4833024,29.9308063 43.9872647,29.5313856 44.5703283,29.5313856 Z M26.1561876,0 C33.164384,0 39.5286457,2.75649749 44.2245688,7.2440585 L47.9913597,3.47726756 C49.5859528,1.8826745 52.3123753,3.012032 52.3123753,5.26724513 L52.3123753,19.4062037 C52.3123753,20.8041763 51.1791039,21.9374477 49.7811313,21.9374477 L35.6421727,21.9374477 C33.3869596,21.9374477 32.2576021,19.2110252 33.8521951,17.6163292 L38.255505,13.2131223 C34.9583784,10.1257998 30.6794885,8.43346302 26.1401202,8.43747988 C17.9707404,8.44468964 10.9180495,14.0460557 8.97079618,21.8161177 C8.82907288,22.3817749 8.32511061,22.7811957 7.74204697,22.7811957 L1.69831062,22.7811957 C0.907605868,22.7811957 0.306826814,22.0633095 0.453081958,21.2860973 C2.7350742,9.16772564 13.374827,0 26.1561876,0 Z"></path></clipPath></defs><g clip-path="url(#i0)"><polygon points="0,0 52.3123753,0 52.3123753,52.3123753 0,52.3123753 0,0" stroke="none" fill="#696E73"></polygon></g></svg>