<?xml version="1.0" encoding="UTF-8"?><svg version="1.1" width="53px" height="53px" viewBox="0 0 53.0 53.0" xmlns="http://www.w3.org/2000/svg" xmlns:xlink="http://www.w3.org/1999/xlink"><defs><clipPath id="i0"><path d="M26.1561876,0 C40.6053719,0 52.3123753,11.7070033 52.3123753,26.1561876 C52.3123753,40.6053719 40.6053719,52.3123753 26.1561876,52.3123753 C11.7070033,52.3123753 0,40.6053719 0,26.1561876 C0,11.7070033 11.7070033,0 26.1561876,0 Z M19.3007352,13.3206508 C18.8050127,12.8249282 18.0034933,12.8249282 17.5077708,13.3206508 L13.3312594,17.4972651 C12.8355369,17.9928847 12.8355369,18.794507 13.3312594,19.2902296 L20.2499517,26.1561876 L13.3312594,33.01164 C12.8355369,33.5073626 12.8355369,34.308882 13.3312594,34.8046045 L17.4972651,38.9811159 C17.9928847,39.4768384 18.794507,39.4768384 19.2902296,38.9811159 L26.1561876,32.0624236 L33.01164,38.9811159 C33.5073626,39.4768384 34.308882,39.4768384 34.8046045,38.9811159 L38.9811159,34.8151102 C39.4768384,34.3194906 39.4768384,33.5178682 38.9811159,33.0221457 L32.0624236,26.1561876 L38.9917245,19.3007352 C39.4874471,18.8050127 39.4874471,18.0034933 38.9917245,17.5077708 L34.8151102,13.3312594 C34.3194906,12.8355369 33.5178682,12.8355369 33.0221457,13.3312594 L26.1561876,20.2499517 Z"></path></clipPath></defs><g clip-path="url(#i0)"><polygon points="0,0 52.3123753,0 52.3123753,52.3123753 0,52.3123753 0,0" stroke="none" fill="#696E73"></polygon></g></svg>