<?xml version="1.0" encoding="UTF-8"?><svg version="1.1" width="38px" height="38px" viewBox="0 0 38.0 38.0" xmlns="http://www.w3.org/2000/svg" xmlns:xlink="http://www.w3.org/1999/xlink"><defs><clipPath id="i0"><path d="M3.31703063,0.971386501 C4.61324259,-0.3237955 6.71313688,-0.3237955 8.00821588,0.971386501 L18.5624815,11.5256521 L29.1167471,0.971386501 C30.4129591,-0.3237955 32.5127504,-0.3237955 33.8079324,0.971386501 L36.1535765,3.31703063 C37.4487585,4.61324259 37.4487585,6.71313688 36.1535765,8.00821588 L25.5993109,18.5624815 L36.1535765,29.1167471 C37.4487585,30.4129591 37.4487585,32.5127504 36.1535765,33.8079324 L33.8079324,36.1535765 C32.5127504,37.4487585 30.4118261,37.4487585 29.1167471,36.1535765 L18.5624815,25.5993109 L8.00821588,36.1535765 C6.71313688,37.4487585 4.61221263,37.4487585 3.31703063,36.1535765 L0.971386501,33.8079324 C-0.3237955,32.5117204 -0.3237955,30.4118261 0.971386501,29.1167471 L11.5256521,18.5624815 L0.971386501,8.00821588 C-0.3237955,6.71200392 -0.3237955,4.61221263 0.971386501,3.31703063 Z"></path></clipPath></defs><g clip-path="url(#i0)"><polygon points="-1.11022302e-16,-1.11022302e-16 37.124963,-1.11022302e-16 37.124963,37.124963 -1.11022302e-16,37.124963 -1.11022302e-16,-1.11022302e-16" stroke="none" fill="#696E73"></polygon></g></svg>