<?xml version="1.0" encoding="UTF-8"?><svg version="1.1" width="48px" height="55px" viewBox="0 0 48.0 55.0" xmlns="http://www.w3.org/2000/svg" xmlns:xlink="http://www.w3.org/1999/xlink"><defs><clipPath id="i0"><path d="M43.8748954,13.4999678 L41.6389426,49.2537888 C41.4749721,51.8733009 39.2116222,53.9998713 36.5870633,53.9998713 L10.662824,53.9998713 C8.03826514,53.9998713 5.77491528,51.8733009 5.61094472,49.2537888 L3.37499195,13.4999678 L43.8748954,13.4999678 Z M29.6490077,0 C30.514076,0 31.5291073,0.628382138 31.9147265,1.40271043 L32.9061715,3.37499195 L45.5623914,3.37499195 C46.4938924,3.37499195 47.2498873,4.13098686 47.2498873,5.06248793 L47.2498873,8.43747988 C47.2498873,9.36898096 46.4938924,10.1249759 45.5623914,10.1249759 L1.68749598,10.1249759 C0.755994902,10.1249759 0,9.36898096 0,8.43747988 L0,5.06248793 C0,4.13098686 0.755994902,3.37499195 1.68749598,3.37499195 L14.3437158,3.37499195 L15.3351609,1.40271043 C15.7137763,0.628382138 16.7205679,0 17.5825463,0 Z"></path></clipPath></defs><g transform="translate(3.552713678800501e-15 0.9999999999999964)"><g clip-path="url(#i0)"><polygon points="0,0 47.2498873,0 47.2498873,53.9998713 0,53.9998713 0,0" stroke="none" fill="#696E73"></polygon></g></g></svg>