<?xml version="1.0" encoding="UTF-8"?><svg version="1.1" width="54px" height="54px" viewBox="0 0 54.0 54.0" xmlns="http://www.w3.org/2000/svg" xmlns:xlink="http://www.w3.org/1999/xlink"><defs><clipPath id="i0"><path d="M6.32810991,0 C7.02704471,0 7.5937319,0.566687187 7.5937319,1.26562198 L7.5937319,9.50400948 C12.4213876,4.14272847 19.4336008,0.787820845 27.229309,0.844468964 C41.6686056,0.949319483 53.2218351,12.6171841 53.1912031,27.0567897 C53.1604491,41.476311 41.4617885,53.1561233 27.0350575,53.1561233 C20.2757009,53.1561233 14.1155784,50.5918174 9.47352249,46.3834801 C8.93567434,45.8959973 8.91095516,45.0594591 9.42429012,44.5462271 L13.0067172,40.9638 C13.4785445,40.4918697 14.2367024,40.4662236 14.7364418,40.9083879 C18.0097761,43.8048577 22.3150332,45.5623914 27.0350575,45.5623914 C37.2937229,45.5623914 45.5975132,37.260352 45.5975132,26.9999356 C45.5975132,16.7413732 37.2954738,8.43747988 27.0350575,8.43747988 C20.8655623,8.43747988 15.4039626,11.4407572 12.0295886,16.0663336 L22.3944435,16.0663336 C23.0933783,16.0663336 23.6600655,16.6330208 23.6600655,17.3319556 L23.6600655,22.3944435 C23.6600655,23.0933783 23.0933783,23.6600655 22.3944435,23.6600655 L1.26562198,23.6600655 C0.566687187,23.6600655 0,23.0933783 0,22.3944435 L0,1.26562198 C0,0.566687187 0.566687187,0 1.26562198,0 Z"></path></clipPath></defs><g transform=""><g clip-path="url(#i0)"><polygon points="0,0 53.1912639,0 53.1912639,53.1561233 0,53.1561233 0,0" stroke="none" fill="#696E73"></polygon></g></g></svg>