<?xml version="1.0" encoding="UTF-8"?><svg version="1.1" width="54px" height="54px" viewBox="0 0 54.0 54.0" xmlns="http://www.w3.org/2000/svg" xmlns:xlink="http://www.w3.org/1999/xlink"><defs><clipPath id="i0"><path d="M16.8749598,37.1169808 L16.8749598,37.9607287 C16.8749598,41.2197465 19.5221779,43.8669647 22.7811957,43.8669647 L31.2186756,43.8669647 C34.4776934,43.8669647 37.1249115,41.2197465 37.1249115,37.9607287 L37.1249115,37.1169808 L51.4686273,37.1169808 C52.8713377,37.1169808 53.9998713,38.2455143 53.9998713,39.6482247 L53.9998713,51.4606966 C53.9998713,52.863407 52.8713377,53.9919405 51.4686273,53.9919405 L2.53124397,53.9919405 C1.12853353,53.9919405 0,52.863407 0,51.4606966 L0,39.6482247 C0,38.2455143 1.12853353,37.1169808 2.53124397,37.1169808 L16.8749598,37.1169808 Z M38.8124075,46.8200826 C37.652254,46.8200826 36.7030375,47.7692991 36.7030375,48.9294526 C36.7030375,50.0896061 37.652254,51.0388226 38.8124075,51.0388226 C39.9725609,51.0388226 40.9217774,50.0896061 40.9217774,48.9294526 C40.9217774,47.7692991 39.9725609,46.8200826 38.8124075,46.8200826 Z M45.5623914,46.8200826 C44.4022379,46.8200826 43.4530214,47.7692991 43.4530214,48.9294526 C43.4530214,50.0896061 44.4022379,51.0388226 45.5623914,51.0388226 C46.7225449,51.0388226 47.6717613,50.0896061 47.6717613,48.9294526 C47.6717613,47.7692991 46.7225449,46.8200826 45.5623914,46.8200826 Z M25.5549966,0.593260304 C26.3460103,-0.197753435 27.6432523,-0.197753435 28.434266,0.593260304 L44.4865921,16.6455864 C45.815557,17.9744483 44.8768461,20.242021 42.9995275,20.242021 L33.7499195,20.242021 L33.7499195,37.9607287 C33.7499195,39.3634392 32.621386,40.4919727 31.2186756,40.4919727 L22.7811957,40.4919727 C21.3784853,40.4919727 20.2499517,39.3634392 20.2499517,37.9607287 L20.2499517,20.242021 L11.0003438,20.242021 C9.12302512,20.242021 8.18431429,17.9744483 9.51327917,16.6455864 Z"></path></clipPath></defs><g clip-path="url(#i0)"><polygon points="0,0 53.9998713,0 53.9998713,53.9919405 0,53.9919405 0,0" stroke="none" fill="#696E73"></polygon></g></svg>