<?xml version="1.0" encoding="UTF-8"?><svg version="1.1" width="54px" height="55px" viewBox="0 0 54.0 55.0" xmlns="http://www.w3.org/2000/svg" xmlns:xlink="http://www.w3.org/1999/xlink"><defs><clipPath id="i0"><path d="M48.9373833,0 C51.7322985,0 53.9998713,2.26757272 53.9998713,5.06248793 L53.9998713,38.8124075 C53.9998713,41.6073227 51.7322985,43.8748954 48.9373833,43.8748954 L43.8748954,43.8748954 L43.8748954,48.9373833 C43.8748954,51.7322985 41.6073227,53.9998713 38.8124075,53.9998713 L5.06248793,53.9998713 C2.26757272,53.9998713 0,51.7322985 0,48.9373833 L0,15.1874638 C0,12.3925486 2.26757272,10.1249759 5.06248793,10.1249759 L10.1249759,10.1249759 L10.1249759,5.06248793 C10.1249759,2.26757272 12.3925486,0 15.1874638,0 Z M38.8124075,26.9999356 L5.06248793,26.9999356 L5.06248793,48.9373833 L38.8124075,48.9373833 L38.8124075,26.9999356 Z M48.9373833,5.06248793 L15.1874638,5.06248793 L15.1874638,10.1249759 L38.8124075,10.1249759 C41.6073227,10.1249759 43.8748954,12.3925486 43.8748954,15.1874638 L43.8748954,38.8124075 L48.9373833,38.8124075 L48.9373833,5.06248793 Z"></path></clipPath></defs><g transform="translate(0.0 0.9999999999999964)"><g clip-path="url(#i0)"><polygon points="0,0 53.9998713,0 53.9998713,53.9998713 0,53.9998713 0,0" stroke="none" fill="#696E73"></polygon></g></g></svg>