<?xml version="1.0" encoding="UTF-8"?><svg version="1.1" width="800px" height="85px" viewBox="0 0 800.0 85.0" xmlns="http://www.w3.org/2000/svg" xmlns:xlink="http://www.w3.org/1999/xlink"><defs><clipPath id="i0"><path d="M800,0 L800,48 L0,48 L0,0 L800,0 Z"></path></clipPath><clipPath id="i1"><path d="M800,0 L800,37 L0,37 L0,0 L800,0 Z"></path></clipPath><clipPath id="i2"><path d="M800,0 L800,1 L0,1 L0,0 L800,0 Z"></path></clipPath><clipPath id="i3"><path d="M0,1.49588585 C0,0.18961455 1.36874063,-0.322865918 2.26250681,0.205239513 L13.2624806,6.70836732 C14.2468532,7.28649094 14.2437099,8.71147534 13.2624806,9.28959896 L2.26250681,15.7895835 C1.27187807,16.377076 0,15.6708398 0,14.4989676 Z"></path></clipPath><clipPath id="i4"><path d="M3,2.99999285 L3,12.2499708 C3,13.2149343 3.78502516,13.9999666 4.74998868,13.9999666 L9.99997616,13.9999666 L9.99997616,15.2499636 C9.99997616,15.6641777 9.66419205,15.9999619 9.24997795,15.9999619 L0.749998212,15.9999619 C0.335784112,15.9999619 0,15.6641777 0,15.2499636 L0,3.74999106 C0,3.33577696 0.335784112,2.99999285 0.749998212,2.99999285 L3,2.99999285 Z M9.99997616,0 L9.99997616,3.24999225 C9.99997616,3.66249737 10.3374692,4 10.7499744,4 L13.9999666,4 L13.9999666,12.2499708 C13.9999666,12.6641849 13.6641825,12.999969 13.2499684,12.999969 L4.74998868,12.999969 C4.33577457,12.999969 3.99999046,12.6641849 3.99999046,12.2499708 L3.99999046,0.749998212 C3.99999046,0.335784112 4.33577457,0 4.74998868,0 L9.99997616,0 Z M11.1893044,0 C11.3607822,0 11.598361,0.0984189548 11.7196376,0.219665004 L13.7803016,2.28032904 C13.9015477,2.4016056 13.9999738,2.63918438 13.9999738,2.81066224 L13.9999738,3 L10.9999738,3 L10.9999738,0 Z"></path></clipPath><clipPath id="i5"><path d="M16,0 L16,48 L0,48 L0,0 L16,0 Z"></path></clipPath><clipPath id="i6"><path d="M16,0 L16,85 L0,85 L0,0 L16,0 Z"></path></clipPath><clipPath id="i7"><path d="M768,0 L768,16 L0,16 L0,0 L768,0 Z"></path></clipPath><clipPath id="i8"><path d="M16,0 L16,37 L0,37 L0,0 L16,0 Z"></path></clipPath></defs><g transform="translate(0.0 37.0)"><g clip-path="url(#i0)"><polygon points="0,0 800,0 800,48 0,48 0,0" stroke="none" fill="#F0F0F0"></polygon></g></g><g clip-path="url(#i1)"><polygon points="0,0 800,0 800,37 0,37 0,0" stroke="none" fill="#F0F0F0"></polygon></g><g transform="translate(16.0 53.0)"><text transform="translate(0.0 12.0)" font-family="LiberationMono, Liberation Mono" font-size="14.0" font-weight="normal" fill="#141514" text-anchor="left">Text goes here…</text></g><g transform="translate(0.0 37.0)"><g clip-path="url(#i2)"><polygon points="0,0 800,0 800,1 0,1 0,0" stroke="none" fill="#D2D2D2"></polygon></g></g><g transform="translate(765.0 6.0)"><g transform="translate(5.0 4.0)"><g clip-path="url(#i3)"><polygon points="0,4.94049246e-14 13.9995818,4.94049246e-14 13.9995818,16.0006077 0,16.0006077 0,4.94049246e-14" stroke="none" fill="#696E73"></polygon></g></g></g><g transform="translate(719.0 6.5)"><g transform="translate(5.0 4.0)"><g clip-path="url(#i4)"><polygon points="0,0 13.9999738,0 13.9999738,15.9999619 0,15.9999619 0,0" stroke="none" fill="#696E73"></polygon></g></g></g><g transform="translate(0.0 37.0)"><g clip-path="url(#i5)"><polygon points="0,0 16,0 16,48 0,48 0,0" stroke="none" fill="rgba(62, 156, 52, 0.9)"></polygon></g><g clip-path="url(#i5)"><polygon points="0,0 16,0 16,48 0,48 0,0 0,0" stroke="#418A37" stroke-width="2" fill="none" stroke-miterlimit="5"></polygon></g></g><g transform="translate(784.0 0.0)"><g clip-path="url(#i6)"><polygon points="0,0 16,0 16,85 0,85 0,0" stroke="none" fill="rgba(62, 156, 52, 0.9)"></polygon></g><g clip-path="url(#i6)"><polygon points="0,0 16,0 16,85 0,85 0,0 0,0" stroke="#418A37" stroke-width="2" fill="none" stroke-miterlimit="5"></polygon></g></g><g transform="translate(16.0 37.0)"><g clip-path="url(#i7)"><polygon points="0,0 768,0 768,16 0,16 0,0" stroke="none" fill="rgba(62, 156, 52, 0.9)"></polygon></g><g clip-path="url(#i7)"><polygon points="0,0 768,0 768,16 0,16 0,0 0,0" stroke="#418A37" stroke-width="2" fill="none" stroke-miterlimit="5"></polygon></g></g><g transform="translate(16.0 69.0)"><g clip-path="url(#i7)"><polygon points="0,0 768,0 768,16 0,16 0,0" stroke="none" fill="rgba(62, 156, 52, 0.9)"></polygon></g><g clip-path="url(#i7)"><polygon points="0,0 768,0 768,16 0,16 0,0 0,0" stroke="#418A37" stroke-width="2" fill="none" stroke-miterlimit="5"></polygon></g></g><g transform="translate(754.0 0.0)"><g clip-path="url(#i8)"><polygon points="0,0 16,0 16,37 0,37 0,0" stroke="none" fill="rgba(62, 156, 52, 0.9)"></polygon></g><g clip-path="url(#i8)"><polygon points="0,0 16,0 16,37 0,37 0,0 0,0" stroke="#418A37" stroke-width="2" fill="none" stroke-miterlimit="5"></polygon></g></g><g transform="translate(738.0 0.0)"><g clip-path="url(#i8)"><polygon points="0,0 16,0 16,37 0,37 0,0" stroke="none" fill="rgba(62, 156, 52, 0.9)"></polygon></g><g clip-path="url(#i8)"><polygon points="0,0 16,0 16,37 0,37 0,0 0,0" stroke="#418A37" stroke-width="2" fill="none" stroke-miterlimit="5"></polygon></g></g></svg>