<?xml version="1.0" encoding="UTF-8"?>
<svg width="53px" height="53px" viewBox="0 0 53 53" version="1.1" xmlns="http://www.w3.org/2000/svg" xmlns:xlink="http://www.w3.org/1999/xlink">
    <title></title>
    <g id="Icons" stroke="none" stroke-width="1" fill="none" fill-rule="evenodd">
        <g id="Icons/4.-Size-xl-(54px)/Status/arrow-circle-up" fill="#151515">
            <path d="M26.1561876,52.3123753 C40.6053719,52.3123753 52.3123753,40.6053719 52.3123753,26.1561876 C52.3123753,11.7070033 40.6053719,0 26.1561876,0 C11.7070033,0 0,11.7070033 0,26.1561876 C0,40.6053719 11.7070033,52.3123753 26.1561876,52.3123753 Z M26.9999356,43.0311474 L25.3124397,43.0311474 C23.9097292,43.0311474 22.7811957,41.9026139 22.7811957,40.4999034 L22.7811957,21.2413968 L15.1452352,29.2042684 C14.1643988,30.2272305 12.529637,30.2483448 11.5171806,29.246394 L10.3675328,28.0862406 C9.37619072,27.1054041 9.37619072,25.5022623 10.3675328,24.5109203 L24.3737288,10.5152299 C25.3546682,9.52378482 26.957707,9.52378482 27.9491521,10.5152299 L41.9342338,24.5109203 C42.9256789,25.4917567 42.9256789,27.0948985 41.9342338,28.0862406 L40.784689,29.246394 C39.7827382,30.2483448 38.1479765,30.2272305 37.1671401,29.2042684 L29.5311796,21.2413968 L29.5311796,40.4999034 C29.5311796,41.9026139 28.4026461,43.0311474 26.9999356,43.0311474 Z" id="arrow-circle-up"></path>
        </g>
    </g>
</svg>