<?xml version="1.0" encoding="UTF-8"?>
<svg width="53px" height="53px" viewBox="0 0 53 53" version="1.1" xmlns="http://www.w3.org/2000/svg" xmlns:xlink="http://www.w3.org/1999/xlink">
    <title></title>
    <g id="Icons" stroke="none" stroke-width="1" fill="none" fill-rule="evenodd">
        <g id="Icons/4.-Size-xl-(54px)/Status/check-circle" fill="#3E8635">
            <path d="M26.1561876,52.3123753 C40.6018701,52.3123753 52.3123753,40.6018701 52.3123753,26.1561876 C52.3123753,11.7105052 40.6018701,0 26.1561876,0 C11.7105052,0 0,11.7105052 0,26.1561876 C0,40.6018701 11.7105052,52.3123753 26.1561876,52.3123753 Z M20.7441293,40.0056229 L9.77540547,29.036899 C9.11653634,28.3779269 9.11653634,27.3093374 9.77540547,26.6503652 L12.1619392,24.2639345 C12.8209114,23.6049623 13.8895009,23.6049623 14.548473,24.2639345 L21.9374477,31.6530121 L37.7639023,15.8265576 C38.4229774,15.1674825 39.4915669,15.1674825 40.150436,15.8265576 L42.5369698,18.2129883 C43.1958389,18.8719605 43.1958389,19.94055 42.5369698,20.5995221 L23.1307661,40.0057258 C22.471691,40.664595 21.4032044,40.664595 20.7441293,40.0056229 Z" id="check-circle"></path>
        </g>
    </g>
</svg>