<?xml version="1.0" encoding="UTF-8"?>
<svg width="53px" height="53px" viewBox="0 0 53 53" version="1.1" xmlns="http://www.w3.org/2000/svg" xmlns:xlink="http://www.w3.org/1999/xlink">
    <title></title>
    <g id="Icons" stroke="none" stroke-width="1" fill="none" fill-rule="evenodd">
        <g id="Icons/4.-Size-xl-(54px)/Status/exclamation-circle" fill="#C9190B">
            <path d="M26.1561876,52.3123753 C40.6008401,52.3123753 52.3123753,40.6050629 52.3123753,26.1561876 C52.3123753,11.715758 40.6008401,0 26.1561876,0 C11.7115352,0 0,11.715758 0,26.1561876 C0,40.6050629 11.7115352,52.3123753 26.1561876,52.3123753 Z M28.7162706,29.5311796 L23.5961046,29.5311796 C22.9239489,29.5311796 22.3690034,29.005691 22.3324396,28.3345653 L21.5500776,13.9908495 C21.5105269,13.2658566 22.0876167,12.6562198 22.8136396,12.6562198 L29.4986327,12.6562198 C30.2246556,12.6562198 30.8018484,13.2658566 30.7622977,13.9908495 L29.9799357,28.3345653 C29.9433719,29.005691 29.3884263,29.5311796 28.7162706,29.5311796 Z M26.1561876,41.1327144 C23.4767316,41.1327144 21.3046367,38.9606195 21.3046367,36.2811635 C21.3046367,33.6017075 23.4767316,31.4296126 26.1561876,31.4296126 C28.8356437,31.4296126 31.0077386,33.6017075 31.0077386,36.2811635 C31.0077386,38.9606195 28.8356437,41.1327144 26.1561876,41.1327144 Z" id="exclamation-circle"></path>
        </g>
    </g>
</svg>