<?xml version="1.0" encoding="UTF-8"?>
<svg width="61px" height="55px" viewBox="0 0 61 55" version="1.1" xmlns="http://www.w3.org/2000/svg" xmlns:xlink="http://www.w3.org/1999/xlink">
    <title></title>
    <g id="Icons" stroke="none" stroke-width="1" fill="none" fill-rule="evenodd">
        <g id="Icons/4.-Size-xl-(54px)/Status/lock-open" fill="#151515">
            <path d="M42.1873994,54.999975 C44.9823146,54.999975 47.2498873,52.7324022 47.2498873,49.937487 L47.2498873,29.6875353 C47.2498873,26.8926201 44.9823146,24.6250474 42.1873994,24.6250474 L37.1249115,24.6250474 L37.1249115,17.1262783 C37.1249115,12.949664 40.4682835,9.47981218 44.6447948,9.43758358 C48.8635348,9.39535499 52.3123753,12.8230812 52.3123753,17.0313155 L52.3123753,25.4687954 C52.3123753,26.8715058 53.4409088,28.0000393 54.8436192,28.0000393 L58.2186112,28.0000393 C59.6213216,28.0000393 60.7498552,26.8715058 60.7498552,25.4687954 L60.7498552,17.0313155 C60.7498552,8.1719616 53.525263,0.968483751 44.6659091,1 C35.8065553,1.03172365 28.6874316,8.33016435 28.6874316,17.1895182 L28.6874316,24.6250474 L5.06248793,24.6250474 C2.26757272,24.6250474 0,26.8926201 0,29.6875353 L0,49.937487 C0,52.7324022 2.26757272,54.999975 5.06248793,54.999975 L42.1873994,54.999975 Z" id="kock-open"></path>
        </g>
    </g>
</svg>