<?xml version="1.0" encoding="UTF-8"?>
<svg width="54px" height="54px" viewBox="0 0 54 54" version="1.1" xmlns="http://www.w3.org/2000/svg" xmlns:xlink="http://www.w3.org/1999/xlink">
    <title></title>
    <g id="Icons" stroke="none" stroke-width="1" fill="none" fill-rule="evenodd">
        <g id="Icons/4.-Size-xl-(54px)/Status/pficon-in-progress" fill="#151515">
            <path d="M26.9472656,54 C28.8105469,54 30.6123047,53.8242188 32.3525391,53.4726562 C34.0927734,53.1210938 35.7890625,52.59375 37.4414062,51.890625 C39.0585938,51.1875 40.5878906,50.3525391 42.0292969,49.3857422 C43.4707031,48.4189453 44.7890625,47.3203125 45.984375,46.0898438 C47.2148438,44.859375 48.3134766,43.5322266 49.2802734,42.1083984 C50.2470703,40.6845703 51.0820312,39.1464844 51.7851562,37.4941406 C52.5234375,35.8769531 53.0683594,34.1894531 53.4199219,32.4316406 C53.7714844,30.6738281 53.9472656,28.8632813 53.9472656,27 C53.9472656,25.1367188 53.7714844,23.3349609 53.4199219,21.5947266 C53.0683594,19.8544922 52.5234375,18.1582031 51.7851562,16.5058594 C51.0820312,14.8886719 50.2470703,13.359375 49.2802734,11.9179688 C48.3134766,10.4765625 47.2148438,9.15820312 45.984375,7.96289062 C44.7890625,6.73242188 43.4707031,5.63378906 42.0292969,4.66699219 C40.5878906,3.70019531 39.0585938,2.86523437 37.4414062,2.16210938 C35.7890625,1.42382812 34.0927734,0.87890625 32.3525391,0.52734375 C30.6123047,0.17578125 28.8105469,0 26.9472656,0 L26.9472656,7.27734375 C28.2832031,7.3125 29.5839844,7.453125 30.8496094,7.69921875 C32.1152344,7.9453125 33.3457031,8.33203125 34.5410156,8.859375 C35.7363281,9.38671875 36.8525391,10.0019531 37.8896484,10.7050781 C38.9267578,11.4082031 39.9023438,12.2167969 40.8164062,13.1308594 C41.7304688,14.0449219 42.5390625,15.0205078 43.2421875,16.0576172 C43.9453125,17.0947266 44.5605469,18.2109375 45.0878906,19.40625 C45.6152344,20.6367188 46.0107422,21.8935547 46.2744141,23.1767578 C46.5380859,24.4599609 46.6699219,25.7695312 46.6699219,27.1054688 C46.6699219,28.4765625 46.5380859,29.8037109 46.2744141,31.0869141 C46.0107422,32.3701172 45.6152344,33.6269531 45.0878906,34.8574219 C44.5605469,36.0527344 43.9453125,37.1777344 43.2421875,38.2324219 C42.5390625,39.2871094 41.7304688,40.2539062 40.8164062,41.1328125 C39.9023438,42.046875 38.9267578,42.8554688 37.8896484,43.5585938 C36.8525391,44.2617188 35.7363281,44.8769531 34.5410156,45.4042969 C33.3105469,45.9316406 32.0537109,46.3183594 30.7705078,46.5644531 C29.4873047,46.8105469 28.1777344,46.9335938 26.8417969,46.9335938 C25.6816406,46.9335938 24.5654297,46.8457031 23.4931641,46.6699219 C22.4208984,46.4941406 21.375,46.2304688 20.3554688,45.8789062 L16.8222656,52.0488281 C18.4042969,52.7167969 20.0390625,53.2089844 21.7265625,53.5253906 C23.4140625,53.8417969 25.1542969,54 26.9472656,54 Z M0,25.1015625 L7.171875,24.6269531 C7.27734375,23.7128906 7.44433594,22.8251953 7.67285156,21.9638672 C7.90136719,21.1025391 8.19140625,20.2675781 8.54296875,19.4589844 C8.6484375,19.2128906 8.75390625,18.9755859 8.859375,18.7470703 C8.96484375,18.5185547 9.08789062,18.28125 9.22851562,18.0351562 L2.84765625,14.8710938 C2.70703125,15.1171875 2.57519531,15.3808594 2.45214844,15.6621094 C2.32910156,15.9433594 2.21484375,16.2246094 2.109375,16.5058594 C1.51171875,17.8769531 1.03710938,19.2744141 0.685546875,20.6982422 C0.333984375,22.1220703 0.10546875,23.5898438 0,25.1015625 Z M10.1777344,48.1464844 L13.7109375,41.9765625 C13.5703125,41.8359375 13.4208984,41.7041016 13.2626953,41.5810547 C13.1044922,41.4580078 12.9550781,41.3261719 12.8144531,41.1855469 C11.9355469,40.2714844 11.1357422,39.2871094 10.4150391,38.2324219 C9.69433594,37.1777344 9.0703125,36.0527344 8.54296875,34.8574219 C8.3671875,34.4355469 8.20898438,34.0136719 8.06835938,33.5917969 C7.92773438,33.1699219 7.8046875,32.7480469 7.69921875,32.3261719 L0.580078125,32.8007812 C0.755859375,33.609375 0.966796875,34.4091797 1.21289062,35.2001953 C1.45898437,35.9912109 1.7578125,36.7558594 2.109375,37.4941406 C2.8125,39.1464844 3.64746094,40.6845703 4.61425781,42.1083984 C5.58105469,43.5322266 6.6796875,44.859375 7.91015625,46.0898438 C8.26171875,46.4765625 8.62207031,46.8369141 8.99121094,47.1708984 C9.36035156,47.5048828 9.75585938,47.8300781 10.1777344,48.1464844 Z" id="pficon-in-progress"></path>
        </g>
    </g>
</svg>