<?xml version="1.0" encoding="UTF-8"?>
<svg width="54px" height="54px" viewBox="0 0 54 54" version="1.1" xmlns="http://www.w3.org/2000/svg" xmlns:xlink="http://www.w3.org/1999/xlink">
    <title></title>
    <g id="Icons" stroke="none" stroke-width="1" fill="none" fill-rule="evenodd">
        <g id="Icons/4.-Size-xl-(54px)/Status/pficon-resources-almost-empty" fill="#151515">
            <path d="M27.0052734,5.68434189e-14 C12.1130859,5.68434189e-14 0,12.1183594 0,27 C0,41.8869141 12.1183594,54 27.0052734,54 C41.8921875,54 54,41.8869141 54,27 C54,12.1130859 41.8921875,5.68434189e-14 27.0052734,5.68434189e-14 Z M27,47.25 C15.8308594,47.25 6.75,38.1744141 6.75,27 C6.75,15.8361328 15.8308594,6.75 27,6.75 C38.1638672,6.75 47.25,15.8308594 47.25,27 C47.25,38.1691406 38.1638672,47.25 27,47.25 Z M13.3945312,33.75 C15.8783203,38.7492188 21.0410156,42.1875 27,42.1875 C32.9589844,42.1875 38.1216797,38.7492188 40.6054688,33.75 L13.3945312,33.75 Z" id="pficon-resources-almost-empty"></path>
        </g>
    </g>
</svg>