<?xml version="1.0" encoding="UTF-8"?>
<svg width="54px" height="54px" viewBox="0 0 54 54" version="1.1" xmlns="http://www.w3.org/2000/svg" xmlns:xlink="http://www.w3.org/1999/xlink">
    <title></title>
    <g id="Icons" stroke="none" stroke-width="1" fill="none" fill-rule="evenodd">
        <g id="Icons/4.-Size-xl-(54px)/Status/pficon-degraded" fill="#151515">
            <path d="M35.4216797,0 C37.1144531,0 38.7386719,0.0580078125 40.2837891,0.2109375 C41.8289063,0.363867188 43.3107422,0.558984375 44.7292969,0.849023438 C46.0144716,1.10808302 47.285324,1.43371694 48.5367187,1.82460938 C49.6705078,2.20957031 50.6566406,2.62089844 51.4951172,3.10078125 C52.3072266,3.58066406 52.9400391,4.08691406 53.3460937,4.60898438 C53.7521484,5.13105469 54,5.66367188 54,6.19628906 L54,13.9957031 C54,14.5652344 53.7996094,15.0978516 53.3935547,15.6304688 C52.9875,16.1525391 52.3546875,16.6587891 51.5425781,17.1386719 C50.5900685,17.6370769 49.5968285,18.0534262 48.5736328,18.3832031 C47.3257713,18.7933663 46.0543261,19.1279572 44.7662109,19.3851563 C43.2895116,19.6685738 41.7984181,19.8710246 40.2996094,19.9916016 C40.0675781,20.0126953 39.8355469,20.0285156 39.5982422,20.0443359 C39.4668696,19.8253908 39.3206277,19.6157186 39.1605469,19.4167969 C38.4960938,18.5572266 37.5785156,17.7925781 36.365625,17.0753906 L36.3234375,17.0542969 C35.3478516,16.4900391 34.1824219,15.9890625 32.7691406,15.5091797 L32.7058594,15.4880859 C31.3404742,15.0599168 29.9533764,14.704341 28.5503906,14.4228516 C27.1582031,14.1380859 25.6341797,13.9166016 23.7621094,13.7320312 C22.1800781,13.5738281 20.4767578,13.5 18.5572266,13.5 C17.9876953,13.5 17.4339844,13.5052734 16.8908203,13.5210938 C16.8772578,13.5121097 16.8648589,13.501482 16.8539062,13.4894531 L16.8539062,6.2015625 C16.8539062,5.66894531 17.0701172,5.13632813 17.4919922,4.61425781 C17.9033203,4.0921875 18.5361328,3.58066406 19.3640625,3.10605469 C20.1761719,2.63144531 21.1570312,2.19902344 22.2855469,1.82988281 C23.5341233,1.42914304 24.8055296,1.10336719 26.0929687,0.854296875 C27.5220703,0.574804688 29.0302734,0.363867188 30.5859375,0.216210937 C32.1416016,0.0685546875 33.75,0 35.4216797,0 M54,19.8703125 L54,30.9392578 C54,31.5087891 53.7996094,32.0414063 53.3935547,32.5740234 C52.9875,33.0960938 52.3546875,33.6023438 51.5425781,34.0822266 C50.5900685,34.5806316 49.5968285,34.9969809 48.5736328,35.3267578 C47.3257713,35.736921 46.0543261,36.0715118 44.7662109,36.3287109 C43.3551841,36.5984583 41.93124,36.7955927 40.5,36.9193359 L40.4841797,25.1068359 C41.9206989,24.9834461 43.3499276,24.7863111 44.7662109,24.5162109 C46.1742188,24.2261719 47.5822266,23.8570312 48.5736328,23.5142578 C49.5650391,23.1714844 50.7041016,22.7126953 51.5373047,22.2697266 C52.3494141,21.7898437 52.9822266,21.2835938 53.3882813,20.7615234 C53.6016973,20.4909142 53.7675384,20.185981 53.8787109,19.8597656 C53.8945312,19.8017578 53.9947266,19.8175781 54,19.8703125 M12.2449219,27.4533132 C12.1650604,27.4524163 12.0859062,27.4686069 12.0128906,27.5009766 C11.9559375,27.5273437 11.9021484,27.5574023 11.8494141,27.5879883 L11.8177734,27.6064453 L11.7808594,27.6275391 L9.03867188,30.3908203 C8.96643016,30.4409265 8.90977224,30.5103782 8.87519531,30.5912109 C8.84074379,30.6765546 8.82457543,30.7681754 8.82773438,30.8601562 C8.82663507,30.9400178 8.84282569,31.0191719 8.87519531,31.0921875 C8.90984528,31.1637262 8.95401548,31.2302475 9.00650391,31.2899414 L9.02285156,31.3083984 L9.03867188,31.3242187 L14.8921875,37.1460937 L8.91738281,43.1103516 C8.8451411,43.1604578 8.78848318,43.2299094 8.75390625,43.3107422 C8.71945472,43.3960859 8.70328637,43.4877067 8.70644531,43.5796875 C8.70534601,43.659549 8.72153663,43.7387032 8.75390625,43.8117187 C8.78855621,43.8832574 8.83272642,43.9497788 8.88521484,44.0094727 L8.9015625,44.0279297 L8.91738281,44.04375 L11.6595703,46.7964844 C11.7257509,46.8653102 11.8045173,46.9208048 11.8916016,46.9599609 C11.9769452,46.9944125 12.068566,47.0105808 12.1605469,47.0074219 C12.2404084,47.0085212 12.3195625,46.9923306 12.3925781,46.9599609 C12.4636332,46.9331099 12.5257456,46.886891 12.571875,46.826543 L12.5824219,46.8123047 L12.5929688,46.7964844 L18.5677734,40.8585937 L24.5373047,46.7753906 C24.5874109,46.8476323 24.6568625,46.9042903 24.7376953,46.9388672 C24.8103996,46.9721998 24.8897732,46.9884353 24.9697266,46.9863281 C25.0617396,46.9899533 25.1534576,46.9737679 25.2386719,46.9388672 C25.3102105,46.9042172 25.3767319,46.860047 25.4364258,46.8075586 L25.4548828,46.7912109 L25.4707031,46.7753906 L28.2128906,44.0490234 C28.2817165,43.9828429 28.337211,43.9040764 28.3763672,43.8169922 C28.4110062,43.7503788 28.4273819,43.6757784 28.4238281,43.6007812 C28.4274533,43.5087683 28.4112679,43.4170503 28.3763672,43.3318359 C28.3495161,43.2607808 28.3032972,43.1986685 28.2429492,43.1525391 L28.2287109,43.1419922 L28.2128906,43.1314453 L22.2433594,37.1671875 L28.096875,31.3611328 C28.1657008,31.2949522 28.2211954,31.2161858 28.2603516,31.1291016 C28.2936842,31.0563973 28.3099197,30.9770236 28.3078125,30.8970703 C28.3114377,30.8050573 28.2952522,30.7133393 28.2603516,30.628125 C28.2335005,30.5570699 28.1872816,30.4949575 28.1269336,30.4488281 L28.1126953,30.4382812 L28.096875,30.4277344 L25.3863281,27.6539062 C25.312539,27.6055054 25.2349401,27.5631787 25.1542969,27.5273437 C25.0689532,27.4928922 24.9773324,27.4767239 24.8853516,27.4798828 C24.8065591,27.4800498 24.7282746,27.4925041 24.6533203,27.5167969 C24.5816392,27.5326331 24.517695,27.5729011 24.4724414,27.6307031 L24.4634766,27.6433594 L24.4529297,27.6539062 L18.5941406,33.5021484 L12.7142578,27.6275391 C12.6611284,27.5645117 12.5918603,27.5171177 12.5138672,27.4904297 C12.4266123,27.4645443 12.3359244,27.452097 12.2449219,27.4533132 M18.5572266,16.875 C20.2447266,16.875 21.8794922,16.9330078 23.4230273,17.0859375 C24.9665625,17.2388672 26.4494531,17.4339844 27.8674805,17.7240234 C29.1523109,17.9830704 30.4228128,18.3087047 31.6738477,18.6996094 C32.8071094,19.0845703 33.7932422,19.4958984 34.6311914,19.9757813 C35.4433008,20.4556641 36.0761133,20.9619141 36.4816406,21.4839844 C36.8750391,21.9860156 37.1112891,22.4985937 37.1244727,23.0132812 L37.1244727,30.6439453 C37.0717383,31.1080078 36.8502539,31.5457031 36.5127539,31.9886719 C36.1072266,32.5107422 35.4744141,33.0169922 34.6623047,33.496875 C33.7098245,33.9953426 32.716579,34.4116942 31.6933594,34.7414062 C31.3342383,34.8642773 30.9519141,34.9829297 30.5511328,35.0968359 L30.4651758,35.1210938 L30.3702539,35.1421875 L30.3702539,40.3101562 C30.8285156,40.1835938 31.2714844,40.0464844 31.6933594,39.9041016 C32.7158588,39.5733624 33.7086684,39.1570456 34.66125,38.6595703 C35.4733594,38.1796875 36.1061719,37.6734375 36.5116992,37.1513672 C36.7251154,36.8807579 36.8909563,36.5758248 37.0021289,36.2496094 C37.0174219,36.196875 37.1107617,36.2068945 37.1223633,36.2543555 L37.1223633,36.2601563 L37.1223633,47.8142578 C37.1223633,48.3837891 36.9219727,48.9164063 36.515918,49.4490234 C36.1103906,49.9710938 35.4775781,50.4773438 34.6654688,50.9572266 C33.7133277,51.4556391 32.7204372,51.8719897 31.6975781,52.2017578 C30.4500769,52.6119304 29.1789821,52.9465217 27.8912109,53.2037109 C26.4148719,53.487164 24.9241275,53.6896155 23.4256641,53.8101562 C21.8916211,53.9419922 20.2732031,54 18.5741016,54 C16.9029492,54 15.3003516,53.9367187 13.7452148,53.8101562 C12.2457057,53.7050698 10.7542629,53.5060466 9.27966797,53.2142578 C7.85109375,52.9347656 6.55435547,52.6078125 5.42583984,52.2123047 C4.30470703,51.8378906 3.33263672,51.4230469 2.50962891,50.9677734 C1.69224609,50.4878906 1.07525391,49.9816406 0.643359375,49.4595703 C0.234140625,48.9575391 0.0184570312,48.4349414 0.00580078125,47.8870313 L0.00580078125,36.2707031 C0.0110742187,36.2179687 0.100722656,36.2074219 0.121816406,36.2601563 C0.649160156,37.5600586 2.30765625,39.015 6.52007812,40.2210352 L6.64822266,40.2574219 L6.74314453,40.2837891 L6.74314453,35.1685547 C6.28488281,35.0419922 5.84191406,34.9048828 5.42478516,34.7572266 C4.30224609,34.3828125 3.32876953,33.9679687 2.50435547,33.5126953 C1.68697266,33.0328125 1.06998047,32.5265625 0.638085937,32.0044922 C0.228867187,31.5024609 0.0131835937,30.9798633 0,30.4319531 L0,23.0765625 C0,22.5439453 0.216210937,22.0113281 0.638085937,21.4892578 C1.04888672,20.9671875 1.68169922,20.4556641 2.50962891,19.9810547 C3.32121094,19.5064453 4.30259766,19.0740234 5.43005859,18.7048828 C6.67829433,18.3042005 7.94934622,17.9784252 9.23642578,17.7292969 C10.665,17.4498047 12.1726758,17.2388672 13.7283398,17.0912109 C15.2840039,16.9435547 16.8860742,16.875 18.5572266,16.875" id="pficon-degraded"></path>
        </g>
    </g>
</svg>