<?xml version="1.0" encoding="UTF-8"?>
<svg width="54px" height="54px" viewBox="0 0 54 54" version="1.1" xmlns="http://www.w3.org/2000/svg" xmlns:xlink="http://www.w3.org/1999/xlink">
    <title></title>
    <g id="Icons" stroke="none" stroke-width="1" fill="none" fill-rule="evenodd">
        <g id="Icons/4.-Size-xl-(54px)/Status/pficon-pending" fill="#151515">
            <path d="M27.0052734,47.2447266 C15.8361328,47.2447266 6.75527344,38.1691406 6.75527344,26.9947266 C6.75527344,15.8308594 15.8361328,6.74472656 27.0052734,6.74472656 C38.1691406,6.74472656 47.25,15.8308594 47.2552734,26.9947266 C47.2552734,38.1638672 38.1691406,47.2447266 27.0052734,47.2447266 M27.0052734,0 C12.1130859,0 0,12.1130859 0,27 C0,41.8869141 12.1130859,54 27.0052734,54 C41.8869141,54 54,41.8869141 54,27 C54,12.1130859 41.8869141,0 27.0052734,0 M37.125,15.1875 L37.125,14.34375 C37.125,13.8796875 36.7453125,13.5 36.28125,13.5 L17.71875,13.5 C17.2546875,13.5 16.875,13.8796875 16.875,14.34375 L16.875,15.1875 C16.875,23.5722656 25.3125,23.6777344 25.3125,27 C25.3125,30.3222656 16.875,30.3222656 16.875,38.8125 L16.875,39.65625 C16.875,40.1203125 17.2546875,40.5 17.71875,40.5 L36.28125,40.5 C36.7453125,40.5 37.125,40.1203125 37.125,39.65625 L37.125,38.8125 C37.125,30.375 28.6875,30.4277344 28.6875,27 C28.6875,23.5722656 37.125,23.625 37.125,15.1875 M31.8462891,37.125 L22.1642578,37.125 C22.0060547,37.125 22.0535156,36.6503906 22.1167969,36.2179688 C22.5070313,33.4599609 25.3177734,32.5582031 26.1140625,32.2892578 C27.0158203,31.9886719 27.0158203,31.9886719 27.8912109,32.2892578 C28.6875,32.56875 31.5140625,33.5074219 31.89375,36.2285156 C31.9517578,36.6609375 32.0044922,37.125 31.8462891,37.125" id="pficon-pending"></path>
        </g>
    </g>
</svg>