<?xml version="1.0" encoding="UTF-8"?><svg version="1.1" width="139px" height="64px" viewBox="0 0 139.0 64.0" xmlns="http://www.w3.org/2000/svg" xmlns:xlink="http://www.w3.org/1999/xlink"><defs><clipPath id="i0"><path d="M7.74998152,0 C12.0298785,0 15.499963,3.47133572 15.499963,7.74998152 C15.499963,12.0311298 12.0298785,15.499963 7.74998152,15.499963 C3.4700845,15.499963 0,12.0311298 0,7.74998152 C0,3.47133572 3.4700845,0 7.74998152,0 Z M7.74998152,9.3124778 C6.95606862,9.3124778 6.31248495,9.95606147 6.31248495,10.7499744 C6.31248495,11.5438873 6.95606862,12.1874709 7.74998152,12.1874709 C8.54389442,12.1874709 9.1874781,11.5438873 9.1874781,10.7499744 C9.1874781,9.95606147 8.54389442,9.3124778 7.74998152,9.3124778 Z M8.74033561,3.74999106 L6.75959692,3.74999106 C6.54447903,3.74999106 6.37348944,3.93062417 6.38520817,4.14543689 L6.61701914,8.39542676 C6.62785285,8.59427883 6.79228117,8.74997914 6.99143841,8.74997914 L8.50852464,8.74997914 C8.70768188,8.74997914 8.87211019,8.59427883 8.88294391,8.39542676 L9.11475488,4.14543689 C9.1264736,3.93062417 8.9554535,3.74999106 8.74033561,3.74999106 Z"></path></clipPath><clipPath id="i1"><path d="M87,0 L87,21 L0,21 L0,0 L87,0 Z"></path></clipPath><clipPath id="i2"><path d="M4,0 L4,49 L0,49 L0,0 L4,0 Z"></path></clipPath><clipPath id="i3"><path d="M111,0 L111,4 L0,4 L0,0 L111,0 Z"></path></clipPath><clipPath id="i4"><path d="M139,0 L139,16 L0,16 L0,0 L139,0 Z"></path></clipPath></defs><g transform="translate(4.0 4.0)"><g clip-path="url(#i0)"><polygon points="0,0 15.499963,0 15.499963,15.499963 0,15.499963 0,0" stroke="none" fill="#C9190A"></polygon></g></g><g transform="translate(28.0 27.0)"><g clip-path="url(#i1)"><text transform="translate(0.0 14.0)" font-family="RedHatText-Regular, Red Hat Text" font-size="14.0" font-weight="normal" fill="#141514" text-anchor="left" line-spacing="21.0">Description</text></g></g><g transform="translate(28.0 2.0)"><text transform="translate(0.0 14.0)" font-family="RedHatText-Medium, Red Hat Text" font-size="14.0" font-weight="400" fill="#7C0F06" text-anchor="left" line-spacing="21.0">Title</text></g><g transform="translate(-16.0 -16.0)"><g transform="translate(44.0 16.0) scale(-1.0 1.0)"><g clip-path="url(#i2)"><polygon points="0,0 4,0 4,49 0,49 0,0" stroke="none" fill="rgba(236, 121, 8, 0.9)"></polygon></g><g clip-path="url(#i2)"><polygon points="0,0 4,0 4,49 0,49 0,0 0,0" stroke="#C67000" stroke-width="2" fill="none" stroke-miterlimit="5"></polygon></g></g><g transform="translate(44.0 40.0)"><g clip-path="url(#i3)"><polygon points="0,0 111,0 111,4 0,4 0,0" stroke="none" fill="rgba(236, 121, 8, 0.9)"></polygon></g><g clip-path="url(#i3)"><polygon points="0,0 111,0 111,4 0,4 0,0 0,0" stroke="#C67000" stroke-width="2" fill="none" stroke-miterlimit="5"></polygon></g></g><g transform="translate(16.0 65.0)"><g clip-path="url(#i4)"><polygon points="0,0 139,0 139,16 0,16 0,0" stroke="none" fill="rgba(62, 156, 52, 0.9)"></polygon></g><g clip-path="url(#i4)"><polygon points="0,0 139,0 139,16 0,16 0,0 0,0" stroke="#418A37" stroke-width="2" fill="none" stroke-miterlimit="5"></polygon></g></g></g></svg>