<?xml version="1.0" encoding="UTF-8"?>
<svg width="48px" height="76px" viewBox="0 0 48 76" version="1.1" xmlns="http://www.w3.org/2000/svg" xmlns:xlink="http://www.w3.org/1999/xlink">
    <title></title>
    <g id="Masthead" stroke="none" stroke-width="1" fill="none" fill-rule="evenodd">
        <g id="Masthead-/-4.-Icon-/-Notifications-/-1.-No-Count-/-3.-Attention">
            <rect id="Icon-bg" fill="#C9190B" x="0" y="20" width="48" height="36" rx="3"></rect>
            <g id="Icons-/-1.-Size-md-(16px)-/-Status-/-attention-bell" transform="translate(0.000000, 20.000000)" fill="#FFFFFF">
                <path d="M24,10 C24.2708333,10 24.5052083,10.0989583 24.703125,10.296875 C24.9010417,10.4947917 25,10.7291667 25,11 L25,11.65625 L25.0348438,11.6632813 C26.1857812,11.8967187 27.1325,12.456875 27.875,13.34375 C28.625,14.2395833 29,15.2916667 29,16.5 C29,17.8125 29.1875,18.8854167 29.5625,19.71875 C29.7916667,20.1979167 30.1458333,20.6875 30.625,21.1875 C30.6527137,21.2317052 30.6840728,21.2735174 30.71875,21.3125 C30.90625,21.5208333 31,21.7552083 31,22.015625 C31,22.2760417 30.90625,22.5052083 30.71875,22.703125 C30.53125,22.9010417 30.2916667,23 30,23 L17.9890625,23 C17.7023958,22.9975 17.4664583,22.8985417 17.28125,22.703125 C17.09375,22.5052083 17,22.2760417 17,22.015625 C17,21.7552083 17.09375,21.5208333 17.28125,21.3125 L17.375,21.1875 L17.3915625,21.1703125 C17.8623958,20.67625 18.2110417,20.1923958 18.4375,19.71875 C18.8125,18.8854167 19,17.8125 19,16.5 C19,15.2916667 19.375,14.2395833 20.125,13.34375 C20.875,12.4479167 21.8333333,11.8854167 23,11.65625 L23,10.9892187 C23.0026042,10.7229687 23.1015625,10.4921875 23.296875,10.296875 C23.4947917,10.0989583 23.7291667,10 24,10 Z M26,24 L26,24.016875 C25.9959375,24.571875 25.7980208,25.0402083 25.40625,25.421875 C25.0104167,25.8072917 24.5416667,26 24,26 C23.4583333,26 22.9895833,25.8072917 22.59375,25.421875 C22.1979167,25.0364583 22,24.5625 22,24 L26,24 Z M24.421875,13 L23.578125,13 C23.2588354,13 23,13.2588354 23,13.578125 L23,18.421875 C23,18.7411646 23.2588354,19 23.578125,19 L24.421875,19 C24.7411646,19 25,18.7411646 25,18.421875 L25,13.578125 C25,13.2588354 24.7411646,13 24.421875,13 Z M24,20 C23.4477153,20 23,20.4477153 23,21 C23,21.5522847 23.4477153,22 24,22 C24.5522847,22 25,21.5522847 25,21 C25,20.4477153 24.5522847,20 24,20 Z" id="pficon-attention-bell"></path>
            </g>
        </g>
    </g>
</svg>