<?xml version="1.0" encoding="UTF-8"?>
<svg width="24px" height="24px" viewBox="0 0 24 24" version="1.1" xmlns="http://www.w3.org/2000/svg" xmlns:xlink="http://www.w3.org/1999/xlink">
    <title></title>
    <g id="Icons" stroke="none" stroke-width="1" fill="none" fill-rule="evenodd">
        <g id="Icons-/-1.-Size-md-/-Status-/-arrow-circle-down" fill="#151515">
            <path d="M11.7499815,19.499963 C16.0312213,19.499963 19.499963,16.0312213 19.499963,11.7499815 C19.499963,7.46874173 16.0312213,4 11.7499815,4 C7.46874173,4 4,7.46874173 4,11.7499815 C4,16.0312213 7.46874173,19.499963 11.7499815,19.499963 Z M11.2187328,16.3843394 L7.07500488,12.2374682 C6.78124337,11.9468499 6.78124337,11.471845 7.07500488,11.178114 L7.41561075,10.8343648 C7.71248505,10.5374905 8.19685889,10.5437466 8.48747709,10.8468465 L10.7499839,13.2062158 L10.7499839,7.49999166 C10.7499839,7.08437375 11.0843642,6.74999344 11.4999821,6.74999344 L11.9999809,6.74999344 C12.4155988,6.74999344 12.7499791,7.08437375 12.7499791,7.49999166 L12.7499791,13.2062158 L15.012486,10.8468465 C15.3031042,10.5437466 15.787478,10.5374905 16.0843523,10.8343648 L16.4249582,11.178114 C16.7187197,11.4687322 16.7187197,11.9437372 16.4249582,12.2374682 L12.2781175,16.3843394 C11.9874687,16.6781009 11.5124943,16.6781009 11.2187328,16.3843394 Z" id="arrow-circle-down"></path>
        </g>
    </g>
</svg>