<?xml version="1.0" encoding="UTF-8"?>
<svg width="24px" height="24px" viewBox="0 0 24 24" version="1.1" xmlns="http://www.w3.org/2000/svg" xmlns:xlink="http://www.w3.org/1999/xlink">
    <title></title>
    <g id="Icons" stroke="none" stroke-width="1" fill="none" fill-rule="evenodd">
        <g id="Icons-/-1.-Size-md-/-Status-/-attention-bell" fill="#FFFFFF">
            <path d="M12,4 C12.2708333,4 12.5052083,4.09895833 12.703125,4.296875 C12.9010417,4.49479167 13,4.72916667 13,5 L13,5.65625 L13.0348438,5.66328125 C14.1857812,5.89671875 15.1325,6.456875 15.875,7.34375 C16.625,8.23958333 17,9.29166667 17,10.5 C17,11.8125 17.1875,12.8854167 17.5625,13.71875 C17.7916667,14.1979167 18.1458333,14.6875 18.625,15.1875 C18.6527137,15.2317052 18.6840728,15.2735174 18.71875,15.3125 C18.90625,15.5208333 19,15.7552083 19,16.015625 C19,16.2760417 18.90625,16.5052083 18.71875,16.703125 C18.53125,16.9010417 18.2916667,17 18,17 L5.9890625,17 C5.70239583,16.9975 5.46645833,16.8985417 5.28125,16.703125 C5.09375,16.5052083 5,16.2760417 5,16.015625 C5,15.7552083 5.09375,15.5208333 5.28125,15.3125 L5.375,15.1875 L5.3915625,15.1703125 C5.86239583,14.67625 6.21104167,14.1923958 6.4375,13.71875 C6.8125,12.8854167 7,11.8125 7,10.5 C7,9.29166667 7.375,8.23958333 8.125,7.34375 C8.875,6.44791667 9.83333333,5.88541667 11,5.65625 L11,4.98921875 C11.0026042,4.72296875 11.1015625,4.4921875 11.296875,4.296875 C11.4947917,4.09895833 11.7291667,4 12,4 Z M14,18 L14,18.016875 C13.9959375,18.571875 13.7980208,19.0402083 13.40625,19.421875 C13.0104167,19.8072917 12.5416667,20 12,20 C11.4583333,20 10.9895833,19.8072917 10.59375,19.421875 C10.1979167,19.0364583 10,18.5625 10,18 L14,18 Z M12.421875,7 L11.578125,7 C11.2588354,7 11,7.25883538 11,7.578125 L11,12.421875 C11,12.7411646 11.2588354,13 11.578125,13 L12.421875,13 C12.7411646,13 13,12.7411646 13,12.421875 L13,7.578125 C13,7.25883538 12.7411646,7 12.421875,7 Z M12,14 C11.4477152,14 11,14.4477152 11,15 C11,15.5522848 11.4477152,16 12,16 C12.5522848,16 13,15.5522848 13,15 C13,14.4477152 12.5522848,14 12,14 Z" id="pficon-attention-bell"></path>
        </g>
    </g>
</svg>