<?xml version="1.0" encoding="UTF-8"?>
<svg width="24px" height="24px" viewBox="0 0 24 24" version="1.1" xmlns="http://www.w3.org/2000/svg" xmlns:xlink="http://www.w3.org/1999/xlink">
    <title></title>
    <g id="Icons" stroke="none" stroke-width="1" fill="none" fill-rule="evenodd">
        <g id="Icons-/-1.-Size-md-/-Status-/-balance-scale" fill="#151515">
            <path d="M18.4999607,19.9999619 C18.7762051,19.9999619 18.9999595,19.7762075 18.9999595,19.499963 L18.9999595,18.4999654 C18.9999595,18.223721 18.7762051,17.9999666 18.4999607,17.9999666 L12.9999738,17.9999666 L12.9999738,8.78905108 C13.7346522,8.46748813 14.2862256,7.80528878 14.4496468,7 L18.4999607,7 C18.7762051,7 18.9999595,6.7762385 18.9999595,6.5 L18.9999595,5.5 C18.9999595,5.22375197 18.7762051,5 18.4999607,5 L13.9887104,5 C13.5324737,4.39623929 12.8152818,4 11.9999762,4 C11.1846705,4 10.4674786,4.39623929 10.0112419,5 L5.49999285,5 C5.2237472,5 4.99999285,5.22375197 4.99999285,5.5 L4.99999285,6.5 C4.99999285,6.7762385 5.2237472,7 5.49999285,7 L9.55030548,7 C9.71372673,7.8049836 10.2649949,8.46748813 10.9999785,8.78905108 L10.9999785,17.9999666 L5.49999285,17.9999666 C5.2237472,17.9999666 4.99999285,18.223721 4.99999285,18.4999654 L4.99999285,19.499963 C4.99999285,19.7762075 5.2237472,19.9999619 5.49999285,19.9999619 L18.4999607,19.9999619 Z M6,16.999969 C8.13542544,16.999969 9.88012166,15.9539686 9.99406204,14.6371336 L9.99937058,14.499975 L9.99937058,14.422795 C9.99578148,14.0029992 9.8939842,13.932639 7.34154,8.82780831 C6.78999712,7.72499722 5.21062467,7.72279996 4.65810523,8.82780831 L4.23702741,9.66900194 C2.11903267,13.8947988 2.00559593,14.04097 2.00067664,14.4025946 L2,14.499975 C2,15.8805869 3.7909198,16.999969 6,16.999969 Z M17.9999714,16.999969 C20.2090325,16.999969 21.9999523,15.8805869 21.9999523,14.499975 L21.999264,14.422795 C21.9957529,14.0029992 21.8939556,13.932639 19.3415114,8.82780831 C18.7899685,7.72499722 17.2105961,7.72279996 16.6580766,8.82780831 L16.3720007,9.39953879 C13.9402493,14.2552723 14.0005817,14.0280978 14.0005817,14.499975 L13.9999714,14.499975 C13.9999714,15.8805869 15.7908912,16.999969 17.9999714,16.999969 Z M8.2499851,13.9999762 L3.74999583,13.9999762 L5.99999046,9.49998689 L8.2499851,13.9999762 Z M20.2499565,13.9999762 L15.7499672,13.9999762 L17.9999619,9.49998689 L20.2499565,13.9999762 Z" id="balance-scale"></path>
        </g>
    </g>
</svg>