<?xml version="1.0" encoding="UTF-8"?>
<svg width="24px" height="24px" viewBox="0 0 24 24" version="1.1" xmlns="http://www.w3.org/2000/svg" xmlns:xlink="http://www.w3.org/1999/xlink">
    <title></title>
    <g id="Icons" stroke="none" stroke-width="1" fill="none" fill-rule="evenodd">
        <g id="Icons-/-1.-Size-md-/-Status-/-history" fill="#151515">
            <path d="M11.7555967,19.4999345 C16.0256061,19.4969418 19.5078671,16.005312 19.4999765,11.7353331 C19.492059,7.46187529 16.0252704,4 11.7499815,4 C9.6734789,4 7.78777173,4.81674 6.39641763,6.1463877 L4.85357463,4.6035447 C4.53857293,4.28857353 4,4.51165649 4,4.95709 L4,9.49998689 C4,9.77613979 4.2238459,9.99998569 4.5,9.99998569 L9.04289569,9.99998569 C9.4883292,9.99998569 9.71141216,9.46141276 9.39641047,9.14641107 L7.81035468,7.56035528 C8.83906927,6.59276726 10.2245335,6 11.7499815,6 C14.9277694,6 17.4999678,8.57170541 17.4999678,11.7499815 C17.4999678,14.9277694 14.9282576,17.4999678 11.7499815,17.4999678 C10.3993988,17.4999678 9.15816031,17.0354303 8.17738872,16.2571729 C7.87932425,16.0206928 7.44982088,16.0501422 7.18080907,16.319154 L6.82869809,16.671265 C6.51415416,16.9858089 6.54003301,17.5046065 6.88619307,17.7839637 C8.21739717,18.858363 9.91139338,19.5012448 11.7555967,19.4999345 Z M13.8464731,14.1973329 L14.1534487,13.8026195 C14.4077511,13.4756549 14.3488523,13.0044341 14.0218877,12.7501622 L12.7499839,11.7608763 L12.7499839,8.49998927 C12.7499839,8.08577517 12.414195,7.74999106 11.9999809,7.74999106 L11.4999821,7.74999106 C11.085768,7.74999106 10.7499839,8.08577517 10.7499839,8.49998927 L10.7499839,12.7390844 L12.7940159,14.3288938 C13.1209805,14.5831657 13.5921707,14.5242974 13.8464731,14.1973329 Z" id="history"></path>
        </g>
    </g>
</svg>