<?xml version="1.0" encoding="UTF-8"?>
<svg width="24px" height="24px" viewBox="0 0 24 24" version="1.1" xmlns="http://www.w3.org/2000/svg" xmlns:xlink="http://www.w3.org/1999/xlink">
    <title></title>
    <g id="Icons" stroke="none" stroke-width="1" fill="none" fill-rule="evenodd">
        <g id="Icons-/-1.-Size-md-/-Status-/-pficon-unknown" fill="#151515">
            <path d="M18.7390625,8.95625 L15.0453125,5.2609375 C14.203125,4.4203125 13.1015625,4 12,4 C10.8984375,4 9.796875,4.4203125 8.9546875,5.2609375 L5.2609375,8.9546875 C3.5796875,10.6359375 3.5796875,13.3625 5.2609375,15.04375 L8.9546875,18.7375 C9.796875,19.5796875 10.8984375,20 12,20 C13.1015625,20 14.203125,19.5796875 15.0453125,18.7390625 L18.7390625,15.0453125 C20.4203125,13.3640625 20.4203125,10.6375 18.7390625,8.95625 Z M17.5375,13.409375 L13.41875,17.5328125 C12.6375,18.3140625 11.371875,18.315625 10.5890625,17.534375 L6.4640625,13.409375 C5.684375,12.628125 5.684375,11.3625 6.465625,10.5828125 L10.584375,6.475 C11.3640625,5.696875 12.6265625,5.696875 13.4078125,6.4734375 L17.5359375,10.5828125 C18.3171875,11.3640625 18.3171875,12.628125 17.5375,13.409375 Z M12.1453125,13 C13.8046875,13 15.1515625,11.84375 15.1515625,10.4640625 C15.1515625,9.084375 13.80625,7.9625 12.1453125,7.9625 C9.71875,7.9625 9.2265625,9.2765625 9.14375,10.3625 C9.14375,10.4734375 9.2375,10.5 9.3671875,10.5 L10.953125,10.5 C11.0390625,10.5 11.15625,10.4921875 11.2,10.3515625 C11.2,9.665625 13.1078125,9.5796875 13.1078125,10.4625 C13.1078125,10.9046875 12.690625,11.3578125 12.1453125,11.390625 C11.6,11.4234375 10.9890625,11.496875 10.9890625,12.1515625 L10.9890625,12.653125 C10.9890625,12.91875 11.1265625,13 11.375,13 C11.625,13.0015625 12.1453125,13 12.1453125,13 L12.1453125,13 Z M12.9890625,15.7390625 L12.9890625,14.2390625 C12.9890625,14.1703125 12.9640625,14.1140625 12.915625,14.0625 C12.8671875,14.0140625 12.8078125,13.9890625 12.7390625,13.9890625 L11.2390625,13.9890625 C11.1703125,13.9890625 11.1140625,14.0140625 11.0625,14.0625 C11.0140625,14.1109375 10.9890625,14.1703125 10.9890625,14.2390625 L10.9890625,15.7390625 C10.9890625,15.8078125 11.0140625,15.8640625 11.0625,15.915625 C11.1109375,15.9640625 11.1703125,15.9890625 11.2390625,15.9890625 L12.7390625,15.9890625 C12.8078125,15.9890625 12.8640625,15.9640625 12.915625,15.915625 C12.965625,15.865625 12.9890625,15.80625 12.9890625,15.7390625 L12.9890625,15.7390625 Z" id="pficon-unknown"></path>
        </g>
    </g>
</svg>