<?xml version="1.0" encoding="UTF-8"?>
<svg width="24px" height="24px" viewBox="0 0 24 24" version="1.1" xmlns="http://www.w3.org/2000/svg" xmlns:xlink="http://www.w3.org/1999/xlink">
    <title></title>
    <g id="Icons" stroke="none" stroke-width="1" fill="none" fill-rule="evenodd">
        <g id="Icons-/-1.-Size-md-/-Status-/-pficon-resources-almost-full" fill="#151515">
            <path d="M12.0015625,4 C7.5890625,4 4,7.590625 4,12 C4,16.4109375 7.590625,20 12.0015625,20 C16.4125,20 20,16.4109375 20,12 C20,7.5890625 16.4125,4 12.0015625,4 Z M12,18 C8.690625,18 6,15.3109375 6,12 C6,8.6921875 8.690625,6 12,6 C15.3078125,6 18,8.690625 18,12 C18,15.309375 15.3078125,18 12,18 Z M16.03125,10 L7.9671875,10 C7.6671875,10.603125 7.5,11.28125 7.5,12 C7.5,14.4859375 9.5140625,16.5 12,16.5 C14.4859375,16.5 16.5,14.4859375 16.5,12 C16.5,11.28125 16.33125,10.603125 16.03125,10" id="pficon-resources-almost-full"></path>
        </g>
    </g>
</svg>