<?xml version="1.0" encoding="UTF-8"?>
<svg width="24px" height="24px" viewBox="0 0 24 24" version="1.1" xmlns="http://www.w3.org/2000/svg" xmlns:xlink="http://www.w3.org/1999/xlink">
    <title></title>
    <g id="Icons" stroke="none" stroke-width="1" fill="none" fill-rule="evenodd">
        <g id="Icons-/-1.-Size-md-/-Status-/-pficon-running" fill="#151515">
            <path d="M12,4 C7.58125,4 4,7.58125 4,12 C4,16.41875 7.58125,20 12,20 C16.41875,20 20,16.41875 20,12 C20,7.58125 16.41875,4 12,4 Z M6.4140625,9.6453125 C6.73125,8.9140625 7.1671875,8.2703125 7.7171875,7.7171875 C8.2703125,7.1640625 8.9125,6.73125 9.6453125,6.4140625 C10.3765625,6.096875 11.1625,5.9390625 11.9953125,5.9390625 C12.8265625,5.9390625 13.6125,6.096875 14.3453125,6.4140625 C15.0765625,6.73125 15.7203125,7.1671875 16.2734375,7.7171875 C16.8265625,8.2703125 17.259375,8.9140625 17.5765625,9.6453125 C17.7875,10.1203125 17.9265625,10.609375 17.9984375,11.1234375 L15.34375,11.1234375 C15.0828125,11.1234375 14.8375,11.25625 14.69375,11.4734375 L14.3359375,12.0203125 L12.5796875,8.5359375 C12.3875,8.153125 11.91875,7.996875 11.5375,8.19375 C11.3546875,8.2859375 11.2203125,8.44375 11.1515625,8.6359375 L9.63125,13.05625 L8.9203125,11.5671875 C8.7921875,11.2953125 8.5171875,11.125 8.2171875,11.125 L6,11.125 C6.0703125,10.609375 6.209375,10.115625 6.4140625,9.6453125 Z M17.58125,14.3546875 C17.2640625,15.09375 16.828125,15.7359375 16.278125,16.2828125 C15.728125,16.8296875 15.0828125,17.2609375 14.35,17.578125 C13.61875,17.8953125 12.8328125,18.053125 12,18.053125 C11.16875,18.053125 10.3828125,17.8953125 9.65,17.578125 C8.91875,17.2609375 8.275,16.828125 7.721875,16.2828125 C7.16875,15.7375 6.7359375,15.09375 6.41875,14.3546875 C6.190625,13.81875 6.04375,13.2625 5.9796875,12.6796875 L7.721875,12.6796875 L9.0390625,15.44375 C9.1671875,15.715625 9.4421875,15.8859375 9.7421875,15.8859375 L9.784375,15.8859375 C10.0984375,15.86875 10.3734375,15.6609375 10.4765625,15.3609375 L12.01875,10.884375 L13.5546875,13.9265625 C13.6796875,14.1734375 13.9296875,14.3375 14.2046875,14.3515625 C14.46875,14.365625 14.746875,14.234375 14.896875,14.0015625 L15.7609375,12.68125 L18.0171875,12.68125 C17.95625,13.2625 17.8109375,13.821875 17.58125,14.3546875 Z" id="pficon-running"></path>
        </g>
    </g>
</svg>