<?xml version="1.0" encoding="UTF-8"?>
<svg width="24px" height="24px" viewBox="0 0 24 24" version="1.1" xmlns="http://www.w3.org/2000/svg" xmlns:xlink="http://www.w3.org/1999/xlink">
    <title></title>
    <g id="Icons" stroke="none" stroke-width="1" fill="none" fill-rule="evenodd">
        <g id="Icons-/-1.-Size-md-/-Status-/-pficon-enhancement" fill="#151515">
            <path d="M12.7570962,8.99513239 L11.2273401,8.99513239 C11.0980246,8.99513239 10.9931937,9.09996329 10.9931937,9.22927874 L10.9931937,10.9931812 L9.22929129,10.9931812 C9.09961636,10.9937833 8.9948854,11.0992124 8.99514398,11.2288885 L8.99514398,12.7586446 C8.99514398,12.8206015 9.01986217,12.8799983 9.06381858,12.9236616 C9.10777499,12.967325 9.16733579,12.9916458 9.22929129,12.99123 L10.9931937,12.99123 L10.9931937,14.7551324 C10.9931937,14.8844479 11.0980246,14.9892787 11.2273401,14.9892787 L12.7570962,14.9892787 C12.8864116,14.9892787 12.9912425,14.8844479 12.9912425,14.7551324 L12.9912425,12.99123 L14.7551449,12.99123 C14.816943,12.9920229 14.8764856,12.9680384 14.9204794,12.9246312 C14.9644731,12.881224 14.9892922,12.8220087 14.9892922,12.7602056 L14.9892922,11.2288885 C14.9895508,11.0992124 14.8848199,10.9937833 14.7551449,10.9931812 L12.9912425,10.9947422 L12.9912425,9.22927874 C12.9912425,9.09996329 12.8864116,8.99513239 12.7570962,8.99513239 Z M11.3331742,4.35201045 C11.5704425,3.99610801 12.0590279,3.89152264 12.4258571,4.12410801 C12.5190798,4.18220253 12.5984641,4.25998853 12.6584425,4.35201045 L13.7558084,6.52176654 L16.3017596,5.17604947 C16.7091742,5.02151289 17.1665401,5.22131776 17.3226376,5.61780556 C17.3636813,5.71978 17.3812857,5.82967402 17.3741498,5.93936654 L16.9948327,8.39821532 L19.3971742,8.87025435 C19.8170766,8.98108361 20.0699547,9.40566898 19.9560034,9.81636166 C19.9260855,9.92176142 19.8751073,10.0200007 19.8061498,10.1051422 L18.1015645,11.9922056 L19.8061498,13.8795812 C19.9380886,14.0367807 20.0010455,14.2405516 19.9807727,14.4447783 C19.9604998,14.649005 19.8587111,14.8364222 19.6984425,14.9646153 C19.6116299,15.0339108 19.5110592,15.0839301 19.4034181,15.111347 L16.9277108,15.5109568 L17.3788327,18.0416104 C17.4053693,18.4693178 17.0697596,18.8330251 16.6358084,18.8548787 C16.5236994,18.8622397 16.4113278,18.8451975 16.3064425,18.8049275 L13.7963937,17.4592104 L12.6584425,19.6324007 C12.4211742,19.9883031 11.9325888,20.0928885 11.5673206,19.8603031 C11.4740979,19.8022086 11.3947136,19.7244226 11.3347352,19.6324007 L10.1970962,17.4592104 L7.68704738,18.8049275 C7.27963275,18.9594641 6.82242299,18.7596592 6.66632543,18.3631714 C6.62517157,18.261225 6.60751168,18.1513175 6.61465714,18.0416104 L7.06577909,15.5109568 L4.58991567,15.111347 C4.16689128,15.0036397 3.91401324,14.5790543 4.02796445,14.1683617 C4.05788245,14.0629619 4.10886067,13.9647226 4.17781811,13.8795812 L5.88224738,11.9922056 L4.17469616,10.10483 C4.04376667,9.94646024 3.98235616,9.74192002 4.00439951,9.53762221 C4.02644287,9.33332441 4.13007101,9.14659153 4.29176933,9.01979581 C4.37858193,8.95050034 4.47915264,8.90048105 4.58679372,8.8730641 L6.99069616,8.39852752 L6.61137909,5.93967874 C6.58936933,5.51509337 6.92185714,5.15138606 7.35893031,5.1295324 C7.46949591,5.1225258 7.58026652,5.13956743 7.68361324,5.17948362 L10.195223,6.52520069 L11.3331742,4.35201045 Z" id="pficon-enhancement"></path>
        </g>
    </g>
</svg>