<?xml version="1.0" encoding="UTF-8"?>
<svg width="24px" height="24px" viewBox="0 0 24 24" version="1.1" xmlns="http://www.w3.org/2000/svg" xmlns:xlink="http://www.w3.org/1999/xlink">
    <title></title>
    <g id="Icons" stroke="none" stroke-width="1" fill="none" fill-rule="evenodd">
        <g id="Icons-/-1.-Size-md-/-Status-/-wrench" fill="#151515">
            <path d="M7.41382548,19.4142799 L14.0766209,12.7514845 C15.6428708,13.2736695 17.4350418,12.9290048 18.6819261,11.6821206 C19.84034,10.5236761 20.2350229,8.89086748 19.8666156,7.40930363 C19.7966085,7.12713877 19.4434904,7.03149691 19.2378635,7.23712386 L16.914108,9.56087931 L14.7928667,9.20742556 L14.439413,7.08618428 L16.7631684,4.76245935 C16.9700466,4.55558119 16.8703459,4.20307348 16.586289,4.13245597 C15.1056712,3.76557452 13.475365,4.16089829 12.3181717,5.31775588 C11.0794356,6.55649194 10.7384941,8.35211144 11.2541178,9.91775102 L4.58570722,16.5861616 C3.80476426,17.3671046 3.80476426,18.6333369 4.58570722,19.4142799 C5.36665018,20.1952229 6.63288252,20.1952229 7.41382548,19.4142799 Z M6.00007153,18.7499174 C5.58601001,18.7499174 5.25007331,18.4139771 5.25007331,17.9999156 C5.25007331,17.5855489 5.58601001,17.2499174 6.00007153,17.2499174 C6.41413304,17.2499174 6.75007331,17.5855489 6.75007331,17.9999156 C6.75007331,18.4139771 6.41413304,18.7499174 6.00007153,18.7499174 Z" id="wrench"></path>
        </g>
    </g>
</svg>