<?xml version="1.0" encoding="UTF-8"?><svg version="1.1" width="290px" height="56px" viewBox="0 0 290.0 56.0" xmlns="http://www.w3.org/2000/svg" xmlns:xlink="http://www.w3.org/1999/xlink"><defs><clipPath id="i0"><path d="M290,0 L290,56 L0,56 L0,0 L290,0 Z"></path></clipPath><clipPath id="i1"><path d="M4,0 L4,56 L0,56 L0,0 L4,0 Z"></path></clipPath><clipPath id="i2"><path d="M242,0 L242,16 L0,16 L0,0 L242,0 Z"></path></clipPath><clipPath id="i3"><path d="M24,0 L24,56 L0,56 L0,0 L24,0 Z"></path></clipPath></defs><rect x="0px" y="0px" width="290px" height="56px" fill="#4F5255"></rect><g clip-path="url(#i0)"><polygon points="0,0 290,0 290,56 0,56 0,0" stroke="none" fill="#4F5255"></polygon></g><g transform="translate(24.0 16.0)"><text transform="translate(0.0 16.0)" font-family="RedHatText-Regular, Red Hat Text" font-size="16.0" font-weight="normal" fill="#FFFFFF" text-anchor="left" line-spacing="24.0">Page title</text></g><g clip-path="url(#i1)"><polygon points="0,0 4,0 4,56 0,56 0,0" stroke="none" fill="#73BCF7"></polygon></g><g transform="translate(24.0 40.0)"><g clip-path="url(#i2)"><polygon points="0,0 242,0 242,16 0,16 0,0" stroke="none" fill="rgba(62, 156, 52, 0.9)"></polygon></g><g clip-path="url(#i2)"><polygon points="0,0 242,0 242,16 0,16 0,0 0,0" stroke="#418A37" stroke-width="2" fill="none" stroke-miterlimit="5"></polygon></g></g><g transform="translate(24.0 0.0)"><g clip-path="url(#i2)"><polygon points="0,0 242,0 242,16 0,16 0,0" stroke="none" fill="rgba(62, 156, 52, 0.9)"></polygon></g><g clip-path="url(#i2)"><polygon points="0,0 242,0 242,16 0,16 0,0 0,0" stroke="#418A37" stroke-width="2" fill="none" stroke-miterlimit="5"></polygon></g></g><g transform="translate(266.0 0.0)"><g clip-path="url(#i3)"><polygon points="0,0 24,0 24,56 0,56 0,0" stroke="none" fill="rgba(0, 121, 135, 0.9)"></polygon></g><g clip-path="url(#i3)"><polygon points="0,0 24,0 24,56 0,56 0,0 0,0" stroke="#09707A" stroke-width="2" fill="none" stroke-miterlimit="5"></polygon></g></g><g clip-path="url(#i3)"><polygon points="0,0 24,0 24,56 0,56 0,0" stroke="none" fill="rgba(0, 121, 135, 0.9)"></polygon></g><g clip-path="url(#i3)"><polygon points="0,0 24,0 24,56 0,56 0,0 0,0" stroke="#09707A" stroke-width="2" fill="none" stroke-miterlimit="5"></polygon></g></svg>