<svg xmlns="http://www.w3.org/2000/svg" width="43" height="34" viewBox="0 0 43 34">
  <path fill="#151515" fill-rule="evenodd" d="M6.70247673,33.0169444 L21.0461925,18.6732286 C22.0376376,17.6817835 22.0376376,16.0787447 21.0356869,15.0872996 L6.69197108,0.743583814 C5.71113465,-0.247861271 4.10799287,-0.247861271 3.11654778,0.743583814 L0.743506566,3.14824498 C-0.247835522,4.12908142 -0.247835522,5.7322232 0.743506566,6.72366828 L10.910711,16.8907697 L0.743506566,27.0579742 C-0.247835522,28.0388106 -0.247835522,29.6419524 0.743506566,30.6333975 L3.12715643,33.0169444 C4.10799287,34.0083895 5.71113465,34.0083895 6.70247673,33.0169444 Z M26.9524285,32.9958301 L41.2961443,18.6521143 C42.2875893,17.6817835 42.2875893,16.0787447 41.2961443,15.0872996 L26.9524285,0.743583814 C25.9610864,-0.247861271 24.3579446,-0.247861271 23.3771082,0.743583814 L20.9934583,3.12713068 C20.0021162,4.11857577 20.0021162,5.72171754 20.9934583,6.70255398 L31.1606627,16.8697584 L20.9934583,27.0368599 C20.0021162,28.028305 20.0021162,29.6314468 20.9934583,30.6122832 L23.3771082,32.9958301 C24.3684502,33.9872752 25.971592,33.9872752 26.9524285,32.9958301 Z"/>
</svg>
