<svg xmlns="http://www.w3.org/2000/svg" width="61" height="48" viewBox="0 0 61 48">
  <path fill="#151515" fill-rule="evenodd" d="M58.3247703,47.2498873 C59.2951011,47.2498873 60.170469,46.6698106 60.5607231,45.7733284 C60.9403685,44.8768461 60.7610514,43.8432754 60.0966205,43.1366159 L60.0702016,43.1100394 C59.8045997,42.8315041 57.6363551,40.4198445 56.1099318,37.3569628 C59.0103155,34.4987047 60.7505458,30.9127757 60.7505458,26.9999356 C60.7505458,18.5624557 52.6822056,11.5910292 42.1669757,10.3464185 C38.844718,4.27147419 31.0400491,0 21.9381383,0 C9.81976662,0 0.000690608694,7.5515033 0.000690608694,16.8749598 C0.000690608694,20.7772942 1.74092083,24.3632232 4.64130454,27.2319869 C3.02765712,30.4698904 0.707350148,32.9800201 0.66512155,33.0221457 C0.000690608694,33.7288052 -0.189132089,34.7623759 0.201121955,35.6588582 C0.580767351,36.5553404 1.46674394,37.1354171 2.43697173,37.1354171 C8.0795364,37.1354171 12.6357961,35.0050359 15.6416483,33.04326 C16.6119791,33.2648056 17.6139299,33.433514 18.6369949,33.5600968 C21.948644,39.6139269 29.7216929,43.8748954 38.8130981,43.8748954 C41.0068222,43.8748954 43.1161922,43.6217298 45.1200937,43.1577302 C48.1259459,45.1088974 52.6717,47.2498873 58.3247703,47.2498873 Z M8.33270199,31.0499672 C8.61748754,30.5542446 8.90227308,30.0269021 9.17644998,29.488951 L10.8112117,26.2089219 L8.19561354,23.6249437 C6.77178881,22.2116246 5.06317854,19.9019263 5.06317854,16.8749598 C5.06317854,10.4730013 12.7939989,5.06248793 21.9381383,5.06248793 C31.0822777,5.06248793 38.8130981,10.4730013 38.8130981,16.8749598 C38.8130981,23.2769182 31.0822777,28.6874316 21.9381383,28.6874316 C20.1979081,28.6874316 18.4576779,28.4870003 16.7701819,28.0968492 L14.6819262,27.622241 L12.8783531,28.7929001 C11.3912885,29.7526222 9.87250087,30.512016 8.33270199,31.0499672 Z M52.42904,41.1643344 C50.8892412,40.6264862 49.3704536,39.8670924 47.8833889,38.9073703 L46.0799188,37.7366082 L43.9810545,38.2218251 C42.2935585,38.6119761 40.5533283,38.8124075 38.8130981,38.8124075 C33.1177992,38.8124075 28.0341969,36.6925318 24.9651048,33.5706025 C35.6490431,32.4315633 43.875586,25.4074025 43.875586,16.8749598 C43.875586,16.5163257 43.8333574,16.1683002 43.8017375,15.8202748 C50.59395,17.349568 55.6880578,21.8108649 55.6880578,26.9999356 C55.6880578,30.0269021 53.9794476,32.3366005 52.5556228,33.7499195 L49.9505303,36.3233921 L51.585292,39.6034212 C51.8595719,40.1412693 52.1443575,40.6686118 52.42904,41.1643344 Z"/>
</svg>
