<svg xmlns="http://www.w3.org/2000/svg" width="53" height="53" viewBox="0 0 53 53">
  <path fill="#151515" fill-rule="evenodd" d="M26.1561876,52.3123753 C40.6008401,52.3123753 52.3123753,40.6050629 52.3123753,26.1561876 C52.3123753,11.715758 40.6008401,0 26.1561876,0 C11.7115352,0 0,11.715758 0,26.1561876 C0,40.6050629 11.7115352,52.3123753 26.1561876,52.3123753 Z M26.1561876,47.2498873 C14.4985197,47.2498873 5.06248793,37.8177695 5.06248793,26.1561876 C5.06248793,14.5024335 14.4989316,5.06248793 26.1561876,5.06248793 C37.8095298,5.06248793 47.2498873,14.4988287 47.2498873,26.1561876 C47.2498873,37.8136496 37.8177695,47.2498873 26.1561876,47.2498873 Z M28.5633207,32.0624236 C29.2622555,32.0624236 29.8289427,31.4957364 29.8289427,30.7968016 L29.8289427,30.1284568 C29.8289427,27.5150215 37.4670661,27.4061541 37.4670661,20.3343059 C37.4670661,15.0085587 31.9427415,10.9687238 26.7672664,10.9687238 C21.8256964,10.9687238 18.6516508,13.0244326 16.1597515,16.6834891 C15.7793851,17.2422456 15.8999941,18.0009184 16.4386663,18.4092998 L19.3731418,20.634541 C19.9222166,21.0507501 20.7030337,20.9504315 21.1308815,20.4105234 C22.7180588,18.4074459 23.8471073,17.2496613 26.2927611,17.2496613 C28.1685348,17.2496613 30.4887388,18.4569872 30.4887388,20.2759069 C30.4887388,21.6510142 29.3536135,22.3572618 27.501426,23.3955703 C25.3415877,24.6065011 22.4833296,26.1135471 22.4833296,29.8835309 L22.4833296,30.7968016 C22.4833296,31.4957364 23.0500168,32.0624236 23.7489516,32.0624236 L28.5633207,32.0624236 Z M26.1561876,42.3983364 C28.5987515,42.3983364 30.5858646,40.4112234 30.5858646,37.9686595 C30.5858646,35.5260956 28.5987515,33.5389825 26.1561876,33.5389825 C23.7136237,33.5389825 21.7265107,35.5260956 21.7265107,37.9686595 C21.7265107,40.4112234 23.7136237,42.3983364 26.1561876,42.3983364 Z"/>
</svg>
