<?xml version="1.0" encoding="UTF-8"?><svg version="1.1" width="24px" height="24px" viewBox="0 0 24.0 24.0" xmlns="http://www.w3.org/2000/svg" xmlns:xlink="http://www.w3.org/1999/xlink"><defs><clipPath id="i0"><path d="M4.49998927,0 C5.32732647,0 5.99998569,0.672659224 5.99998569,1.5 L7.87498122,1.5 C8.49607349,1.5 8.99997854,2.00390147 8.99997854,2.62499374 L8.99997854,10.8749741 C8.99997854,11.4960663 8.49607349,11.9999714 7.87498122,11.9999714 L1.12499732,11.9999714 C0.503905049,11.9999714 0,11.4960663 0,10.8749741 L0,2.62499374 C0,2.00390147 0.503905049,1.5 1.12499732,1.5 L3,1.5 C3,0.672659224 3.67265207,0 4.49998927,0 Z M6.68200616,5.3062465 C6.57186849,5.19608594 6.39373018,5.19372846 6.28356961,5.30388903 L3.79920054,7.76951273 L2.72107811,6.68200616 C2.61094043,6.57186849 2.43280212,6.56951101 2.32264156,6.67967157 L1.65703188,7.34061208 C1.54687131,7.45077264 1.54453672,7.62888806 1.6546744,7.73904863 L3.59062102,9.69138314 C3.70078158,9.80154371 3.878897,9.8038783 3.98905757,9.69371773 L7.34061208,6.37029273 C7.45077264,6.26013217 7.45310723,6.08435134 7.34294667,5.97185618 Z M4.49998927,0.937497765 C4.18827584,0.937497765 3.93749061,1.18828299 3.93749061,1.49999642 C3.93749061,1.81170985 4.18827584,2.06249508 4.49998927,2.06249508 C4.8117027,2.06249508 5.06248793,1.81170985 5.06248793,1.49999642 C5.06248793,1.18828299 4.8117027,0.937497765 4.49998927,0.937497765 Z"></path></clipPath></defs><g transform="translate(8.0 5.999999999999999)"><g clip-path="url(#i0)"><polygon points="0,0 8.99997854,0 8.99997854,11.9999714 0,11.9999714 0,0" stroke="none" fill="#151515"></polygon></g></g></svg>