<?xml version="1.0" encoding="UTF-8"?><svg version="1.1" width="24px" height="24px" viewBox="0 0 24.0 24.0" xmlns="http://www.w3.org/2000/svg" xmlns:xlink="http://www.w3.org/1999/xlink"><defs><clipPath id="i0"><path d="M1.87499553,0 C2.91093514,0 3.74999106,0.839055922 3.74999106,1.87499553 C3.74999106,2.71405145 3.19921112,3.42420143 2.43749419,3.66326794 L2.43749419,7.03825989 C2.99765826,6.76872928 3.68201332,6.70310902 4.34295382,6.64218082 C5.18436722,6.56481894 5.97888284,6.48983743 6.33982863,6.03983393 C6.49919868,5.84295024 6.58358721,5.55233967 6.59764052,5.17498308 C5.8195128,4.9476353 5.24998748,4.22812407 5.24998748,3.37499195 C5.24998748,2.33905235 6.0890434,1.5 7.12498301,1.5 C8.16092262,1.5 8.99997854,2.33905235 8.99997854,3.37499195 C8.99997854,4.19999456 8.46560939,4.90076041 7.72497243,5.15390312 C7.7132537,5.81248614 7.54685701,6.33749405 7.21873279,6.74529184 C6.55779229,7.56560238 5.43748704,7.67107088 4.44842232,7.76248607 C3.84607542,7.8187222 3.27890759,7.87028916 2.89921642,8.06248078 C2.73279683,8.14684642 2.62265915,8.2546724 2.54998934,8.37655168 C3.25311267,8.64608229 3.74999106,9.32810276 3.74999106,10.1249759 C3.74999106,11.1609155 2.91093514,11.9999714 1.87499553,11.9999714 C0.839055922,11.9999714 0,11.1609155 0,10.1249759 C0,9.28591994 0.550779937,8.57576996 1.31249687,8.33434597 L1.31249687,3.66326794 C0.550779937,3.42420143 0,2.71405145 0,1.87499553 C0,0.839055922 0.839055922,0 1.87499553,0 Z M1.87499553,9.74997675 C1.6687506,9.74997675 1.49999642,9.91873093 1.49999642,10.1249759 C1.49999642,10.3312208 1.6687506,10.499975 1.87499553,10.499975 C2.08124046,10.499975 2.24999464,10.3312208 2.24999464,10.1249759 C2.24999464,9.91873093 2.08124046,9.74997675 1.87499553,9.74997675 Z M7.12498301,2.99999285 C6.91873808,2.99999285 6.74998391,3.16874702 6.74998391,3.37499195 C6.74998391,3.58123688 6.91873808,3.74999106 7.12498301,3.74999106 C7.33122794,3.74999106 7.49998212,3.58123688 7.49998212,3.37499195 C7.49998212,3.16874702 7.33122794,2.99999285 7.12498301,2.99999285 Z M1.87499553,1.49999642 C1.6687506,1.49999642 1.49999642,1.6687506 1.49999642,1.87499553 C1.49999642,2.08124046 1.6687506,2.24999464 1.87499553,2.24999464 C2.08124046,2.24999464 2.24999464,2.08124046 2.24999464,1.87499553 C2.24999464,1.6687506 2.08124046,1.49999642 1.87499553,1.49999642 Z"></path></clipPath></defs><g transform="translate(8.0 5.999999999999999)"><g clip-path="url(#i0)"><polygon points="0,0 8.99997854,0 8.99997854,11.9999714 0,11.9999714 0,0" stroke="none" fill="#151515"></polygon></g></g></svg>