<?xml version="1.0" encoding="UTF-8"?>
<svg width="24px" height="24px" viewBox="0 0 24 24" version="1.1" xmlns="http://www.w3.org/2000/svg" xmlns:xlink="http://www.w3.org/1999/xlink">
    <title></title>
    <g id="Icons" stroke="none" stroke-width="1" fill="none" fill-rule="evenodd">
        <g id="Icons/2.-Size-sm/Object/code" fill="#151515">
            <path d="M10.8865002,17.7951885 L14.0857113,6.77489766 C14.1278941,6.62491175 14.0435285,6.4678763 13.8935197,6.42569348 L12.4638356,6.01084614 C12.3138497,5.96866332 12.1568142,6.05302896 12.1146314,6.20303776 L8.91542026,17.2233286 C8.87323744,17.3733145 8.95760308,17.5303499 9.10761188,17.5725327 L10.537296,17.9873801 C10.6872819,18.0319204 10.8419827,17.9451973 10.8865002,17.7951885 Z M15.5341407,15.3717705 L18.9114902,12.205358 C19.031012,12.0951975 19.031012,11.9053633 18.9114902,11.7952028 L15.5341407,8.62645575 C15.4216456,8.52098725 15.2435302,8.52567932 15.1357042,8.63817447 L14.1161754,9.72568103 C14.0083723,9.84053367 14.0153989,10.0233412 14.1349436,10.1288097 L16.2583669,11.9991131 L14.1349436,13.867082 C14.0153989,13.9725505 14.0060377,14.155358 14.1161754,14.2702106 L15.1357042,15.3576943 C15.2411727,15.4725469 15.419311,15.477239 15.5341407,15.3717705 Z M7.86542734,15.3576943 L8.88495616,14.2702106 C8.99275924,14.155358 8.98573259,13.9725505 8.86618789,13.867082 L6.74276461,11.9991131 L8.86618789,10.1311442 C8.98573259,10.0256757 8.99509383,9.84286825 8.88495616,9.72801562 L7.86542734,8.64053195 C7.75995884,8.52803679 7.58182053,8.52098725 7.46699079,8.62881323 L4.08964136,11.7928682 C3.97011955,11.9030287 3.97011955,12.0928629 4.08964136,12.2030235 L7.46699079,15.369413 C7.58182053,15.477239 7.75995884,15.4725469 7.86542734,15.3576943 Z" id="code"></path>
        </g>
    </g>
</svg>