<?xml version="1.0" encoding="UTF-8"?>
<svg width="24px" height="24px" viewBox="0 0 24 24" version="1.1" xmlns="http://www.w3.org/2000/svg" xmlns:xlink="http://www.w3.org/1999/xlink">
    <title></title>
    <g id="Icons" stroke="none" stroke-width="1" fill="none" fill-rule="evenodd">
        <g id="Icons/2.-Size-sm/Object/code-branch" fill="#151515">
            <path d="M9.87499553,17.9999714 C10.9109351,17.9999714 11.7499911,17.1609155 11.7499911,16.1249759 C11.7499911,15.3281028 11.2531127,14.6460823 10.5499893,14.3765517 C10.6226592,14.2546724 10.7327968,14.1468464 10.8992164,14.0624808 C11.2789076,13.8702892 11.8460754,13.8187222 12.4484223,13.7624861 C13.437487,13.6710709 14.5577923,13.5656024 15.2187328,12.7452918 C15.546857,12.337494 15.7132537,11.8124861 15.7249724,11.1539031 C16.4656094,10.9007604 16.9999785,10.1999946 16.9999785,9.37499195 C16.9999785,8.33905235 16.1609226,7.5 15.124983,7.5 C14.0890434,7.5 13.2499875,8.33905235 13.2499875,9.37499195 C13.2499875,10.2281241 13.8195128,10.9476353 14.5976405,11.1749831 C14.5835872,11.5523397 14.4991987,11.8429502 14.3398286,12.0398339 C13.9788828,12.4898374 13.1843672,12.5648189 12.3429538,12.6421808 C11.6820133,12.703109 10.9976583,12.7687293 10.4374942,13.0382599 L10.4374942,9.66326794 C11.1992111,9.42420143 11.7499911,8.71405145 11.7499911,7.87499553 C11.7499911,6.83905592 10.9109351,6 9.87499553,6 C8.83905592,6 8,6.83905592 8,7.87499553 C8,8.71405145 8.55077994,9.42420143 9.31249687,9.66326794 L9.31249687,14.334346 C8.55077994,14.57577 8,15.2859199 8,16.1249759 C8,17.1609155 8.83905592,17.9999714 9.87499553,17.9999714 Z M9.87499553,8.24999464 C9.6687506,8.24999464 9.49999642,8.08124046 9.49999642,7.87499553 C9.49999642,7.6687506 9.6687506,7.49999642 9.87499553,7.49999642 C10.0812405,7.49999642 10.2499946,7.6687506 10.2499946,7.87499553 C10.2499946,8.08124046 10.0812405,8.24999464 9.87499553,8.24999464 Z M15.124983,9.74999106 C14.9187381,9.74999106 14.7499839,9.58123688 14.7499839,9.37499195 C14.7499839,9.16874702 14.9187381,8.99999285 15.124983,8.99999285 C15.3312279,8.99999285 15.4999821,9.16874702 15.4999821,9.37499195 C15.4999821,9.58123688 15.3312279,9.74999106 15.124983,9.74999106 Z M9.87499553,16.499975 C9.6687506,16.499975 9.49999642,16.3312208 9.49999642,16.1249759 C9.49999642,15.9187309 9.6687506,15.7499768 9.87499553,15.7499768 C10.0812405,15.7499768 10.2499946,15.9187309 10.2499946,16.1249759 C10.2499946,16.3312208 10.0812405,16.499975 9.87499553,16.499975 Z" id="code-branch"></path>
        </g>
    </g>
</svg>