<?xml version="1.0" encoding="UTF-8"?><svg version="1.1" width="24px" height="24px" viewBox="0 0 24.0 24.0" xmlns="http://www.w3.org/2000/svg" xmlns:xlink="http://www.w3.org/1999/xlink"><defs><clipPath id="i0"><path d="M8.39947968,0.000338087072 L8.46383556,0.0108461405 L9.89351966,0.425693479 C10.0435285,0.467876301 10.1278941,0.624911754 10.0857113,0.774897664 L6.88650015,11.7951885 C6.84198274,11.9451973 6.68728188,12.0319204 6.53729597,11.9873801 L5.10761188,11.5725327 C4.95760308,11.5303499 4.87323744,11.3733145 4.91542026,11.2233286 L8.11463138,0.20303776 C8.1568142,0.0530289623 8.31384965,-0.0313366812 8.46383556,0.0108461405 Z M11.1357042,2.63817447 C11.2435302,2.52567932 11.4216456,2.52098725 11.5341407,2.62645575 L14.9114902,5.79520277 C15.031012,5.90536334 15.031012,6.09519748 14.9114902,6.20535804 L11.5341407,9.37177048 C11.419311,9.47723898 11.2411727,9.47254691 11.1357042,9.35769428 L10.1161754,8.2702106 C10.0060377,8.15535797 10.0153989,7.97255049 10.1349436,7.86708199 L12.2583669,5.99911311 L10.1349436,4.12880965 C10.0153989,4.02334115 10.0083723,3.84053367 10.1161754,3.72568103 Z M3.46699079,2.62881323 C3.58182053,2.52098725 3.75995884,2.52803679 3.86542734,2.64053195 L4.88495616,3.72801562 C4.99509383,3.84286825 4.98573259,4.02567574 4.86618789,4.13114424 L2.74276461,5.99911311 L4.86618789,7.86708199 C4.98573259,7.97255049 4.99275924,8.15535797 4.88495616,8.2702106 L3.86542734,9.35769428 C3.75995884,9.47254691 3.58182053,9.47723898 3.46699079,9.369413 L0.0896413573,6.20302345 C-0.0298804524,6.09286289 -0.0298804524,5.90302875 0.0896413573,5.79286818 Z"></path></clipPath></defs><g transform="translate(4.000000000000001 5.999999999999999)"><g clip-path="url(#i0)"><polygon points="0,2.66280054e-15 15.0011315,2.66280054e-15 15.0011315,11.9990711 0,11.9990711 0,2.66280054e-15" stroke="none" fill="#151515"></polygon></g></g></svg>