<?xml version="1.0" encoding="UTF-8"?><svg version="1.1" width="24px" height="24px" viewBox="0 0 24.0 24.0" xmlns="http://www.w3.org/2000/svg" xmlns:xlink="http://www.w3.org/1999/xlink"><defs><clipPath id="i0"><path d="M5.70232558,0.0544851911 C5.8945172,-0.0181617304 6.10545419,-0.0181617304 6.29528834,0.0544851911 L8.63903275,0.933389346 C8.96951444,1.05760322 9.1874781,1.37167413 9.1874781,1.72323579 L9.1874781,4.26619848 L11.451526,5.11463853 C11.7820077,5.23885241 11.9999714,5.55292331 11.9999714,5.90448498 L11.9999714,8.48493842 C11.9999714,8.8036785 11.8194985,9.09664656 11.5335571,9.2396287 L9.18981268,10.4115009 C8.95310365,10.5310227 8.67185432,10.5310227 8.43514529,10.4115009 L5.99998569,9.19275381 L3.5648261,10.4115009 C3.32811707,10.5310227 3.04686774,10.5310227 2.81015871,10.4115009 L0.466414293,9.2396287 C0.180472897,9.09664656 0,8.8036785 0,8.48493842 L0,5.90448498 C0,5.55292331 0.217963653,5.23885241 0.54608787,5.11463853 L2.81015871,4.26619848 L2.81015871,1.72323579 C2.81015871,1.37167413 3.02812236,1.05760322 3.35858116,0.933389346 Z M5.5781117,6.74587549 L3.58592895,7.65524374 L3.58592895,9.5091593 L5.5781117,8.51306793 L5.5781117,6.74587549 Z M11.2030983,6.74587549 L9.21091554,7.65524374 L9.21091554,9.5091593 L11.2030983,8.51306793 L11.2030983,6.74587549 Z M3.1874924,4.97870593 L0.7968731,5.87399799 L0.7968731,5.88807419 L3.1874924,6.85837064 L5.5781117,5.88807419 L5.5781117,5.87399799 L3.1874924,4.97870593 Z M8.81247899,4.97870593 L6.42185969,5.87399799 L6.42185969,5.88807419 L8.81247899,6.85837064 L11.2030983,5.88807419 L11.2030983,5.87399799 L8.81247899,4.97870593 Z M8.390605,2.56698378 L6.39842224,3.43416921 L6.39842224,5.03260748 L8.390605,4.28494385 L8.390605,2.56698378 Z M5.99998569,0.795122158 L3.60936639,1.69041421 L3.60936639,1.70449041 L5.99998569,2.67478687 L8.390605,1.70449041 L8.390605,1.69041421 L5.99998569,0.795122158 Z"></path></clipPath></defs><g transform="translate(5.999999999999999 7.000000000000001)"><g clip-path="url(#i0)"><polygon points="0,0 11.9999714,0 11.9999714,10.5011423 0,10.5011423 0,0" stroke="none" fill="#151515"></polygon></g></g></svg>