<?xml version="1.0" encoding="UTF-8"?><svg version="1.1" width="24px" height="24px" viewBox="0 0 24.0 24.0" xmlns="http://www.w3.org/2000/svg" xmlns:xlink="http://www.w3.org/1999/xlink"><defs><clipPath id="i0"><path d="M5.60388373,0.0717712681 C5.85936103,-0.0243130975 6.14061036,-0.0243130975 6.39373018,0.0741287454 L11.2687186,1.90224939 C11.7070033,2.0663115 11.9976368,2.48582801 11.9976368,2.95457689 L11.9976368,8.2303593 C11.9976368,8.65456788 11.7585703,9.04597778 11.3765445,9.23581192 L6.50155615,11.6733061 C6.18515066,11.8326762 5.81248614,11.8326762 5.49608065,11.6733061 L0.621092269,9.23581192 C0.241401097,9.04597778 0,8.65690247 0,8.2303593 L0,2.95457689 C0,2.48582801 0.290633462,2.06395402 0.728895357,1.89989191 Z M10.499975,4.85770194 L6.74998391,6.3811358 L6.74998391,9.87098039 L10.499975,7.99598486 L10.499975,4.85770194 Z M5.99998569,1.52725028 L1.49999642,3.21474626 L1.49999642,3.24051829 L5.99998569,5.06863893 L10.499975,3.24051829 L10.499975,3.21474626 L5.99998569,1.52725028 Z"></path></clipPath></defs><g transform="translate(6.0 6.000000000000001)"><g clip-path="url(#i0)"><polygon points="0,-1.68615122e-14 11.9976368,-1.68615122e-14 11.9976368,11.7928336 0,11.7928336 0,-1.68615122e-14" stroke="none" fill="#151515"></polygon></g></g></svg>