<?xml version="1.0" encoding="UTF-8"?><svg version="1.1" width="24px" height="24px" viewBox="0 0 24.0 24.0" xmlns="http://www.w3.org/2000/svg" xmlns:xlink="http://www.w3.org/1999/xlink"><defs><clipPath id="i0"><path d="M10.499975,7.87498122 L10.499975,10.2856963 C10.499975,11.2298774 8.1484257,11.9999714 5.24998748,11.9999714 C2.35154926,11.9999714 0,11.2298774 0,10.2856963 L0,7.87498122 C1.127927,8.65175855 3.19236757,9.01339099 5.24998748,9.01339099 C7.30760739,9.01339099 9.37202508,8.65175855 10.499975,7.87498122 Z M10.499975,4.12499017 L10.499975,6.53570524 C10.499975,7.47988634 8.1484257,8.24998033 5.24998748,8.24998033 C2.35154926,8.24998033 0,7.47988634 0,6.53570524 L0,4.12499017 C1.127927,4.90176749 3.19236757,5.26339993 5.24998748,5.26339993 C7.30760739,5.26339993 9.37202508,4.90176749 10.499975,4.12499017 Z M5.24998748,0 C8.1484257,0 10.499975,0.770093989 10.499975,1.71427509 L10.499975,2.78571418 C10.499975,3.72989528 8.1484257,4.49998927 5.24998748,4.49998927 C2.35154926,4.49998927 0,3.72989528 0,2.78571418 L0,1.71427509 C0,0.770093989 2.35154926,0 5.24998748,0 Z"></path></clipPath></defs><g transform="translate(7.0 5.999999999999999)"><g clip-path="url(#i0)"><polygon points="0,0 10.499975,0 10.499975,11.9999714 0,11.9999714 0,0" stroke="none" fill="#151515"></polygon></g></g></svg>