<?xml version="1.0" encoding="UTF-8"?><svg version="1.1" width="24px" height="24px" viewBox="0 0 24.0 24.0" xmlns="http://www.w3.org/2000/svg" xmlns:xlink="http://www.w3.org/1999/xlink"><defs><clipPath id="i0"><path d="M12.3749705,0 C12.9960628,0 13.4999678,0.503905049 13.4999678,1.12499732 L13.4999678,8.62497944 C13.4999678,9.24607171 12.9960628,9.74997675 12.3749705,9.74997675 L7.87498122,9.74997675 L8.24998033,10.8749741 L9.93747631,10.8749741 C10.2491897,10.8749741 10.499975,11.1257593 10.499975,11.4374727 C10.499975,11.7491862 10.2491897,11.9999714 9.93747631,11.9999714 L3.56249151,11.9999714 C3.25077808,11.9999714 3,11.7491862 3,11.4374727 C3,11.1257593 3.25077808,10.8749741 3.56249151,10.8749741 L5.24998748,10.8749741 L5.62498659,9.74997675 L1.12499732,9.74997675 C0.503905049,9.74997675 0,9.24607171 0,8.62497944 L0,1.12499732 C0,0.503905049 0.503905049,0 1.12499732,0 Z M11.9999714,1.49999642 L1.49999642,1.49999642 L1.49999642,8.24998033 L11.9999714,8.24998033 L11.9999714,1.49999642 Z"></path></clipPath></defs><g transform="translate(5.000000000000001 5.999999999999999)"><g clip-path="url(#i0)"><polygon points="0,0 13.4999678,0 13.4999678,11.9999714 0,11.9999714 0,0" stroke="none" fill="#020201"></polygon></g></g></svg>