<?xml version="1.0" encoding="UTF-8"?><svg version="1.1" width="24px" height="24px" viewBox="0 0 24.0 24.0" xmlns="http://www.w3.org/2000/svg" xmlns:xlink="http://www.w3.org/1999/xlink"><defs><clipPath id="i0"><path d="M1.36729105,0.0011163417 C2.0345029,0.0282616627 2.58086543,0.562836804 2.62238449,1.22931623 C2.62384934,1.25229591 2.62503952,1.28962645 2.62503952,1.31265191 C2.62503952,1.44650169 2.58619836,1.65656894 2.53833929,1.78153812 C3.02434582,1.60273606 3.54825509,1.5 4.13313834,1.5 C5.71219036,1.5 6.74945748,2.31522063 8.00542067,2.31522063 C8.95452272,2.31522063 9.94161906,1.94241878 10.7464115,1.56863275 C11.2436789,1.33769152 11.8124718,1.70042259 11.8124718,2.24870772 L11.8124718,7.94634123 C11.8124718,8.19305238 11.691531,8.42463447 11.4880326,8.56411472 C10.648084,9.13981983 9.74578823,9.52170827 8.61683126,9.52170827 C7.03777924,9.52170827 6.00053501,8.70647889 4.74454893,8.70647889 C3.55269539,8.70647889 2.72602194,8.94222662 2.06249508,9.22496367 L2.06249508,11.4374676 C2.06249508,11.7481281 1.810657,11.9999662 1.5,11.9999662 L1.12499732,11.9999662 C0.814336743,11.9999662 0.562498659,11.7481281 0.562498659,11.4374676 L0.562498659,2.38933239 C0.222587055,2.15214271 0,1.75842111 0,1.31249169 C0,0.569428585 0.617453057,-0.0293935343 1.36729105,0.0011163417 Z"></path></clipPath></defs><g transform="translate(6.0 6.0)"><g clip-path="url(#i0)"><polygon points="0,-7.78587264e-15 11.8124718,-7.78587264e-15 11.8124718,11.9999662 0,11.9999662 0,-7.78587264e-15" stroke="none" fill="#151515"></polygon></g></g></svg>