<?xml version="1.0" encoding="UTF-8"?>
<svg width="24px" height="24px" viewBox="0 0 24 24" version="1.1" xmlns="http://www.w3.org/2000/svg" xmlns:xlink="http://www.w3.org/1999/xlink">
    <title></title>
    <g id="Icons" stroke="none" stroke-width="1" fill="none" fill-rule="evenodd">
        <g id="Icons/2.-Size-sm/Object/flag" fill="#151515">
            <path d="M7.5,17.9999662 C7.810657,17.9999662 8.06249508,17.7481281 8.06249508,17.4374676 L8.06249508,15.2249637 C8.72602194,14.9422266 9.55269539,14.7064789 10.7445489,14.7064789 C12.000535,14.7064789 13.0377792,15.5217083 14.6168313,15.5217083 C15.7457882,15.5217083 16.648084,15.1398198 17.4880326,14.5641147 C17.691531,14.4246345 17.8124718,14.1930524 17.8124718,13.9463412 L17.8124718,8.24870772 C17.8124718,7.70042259 17.2436789,7.33769152 16.7464115,7.56863275 C15.9416191,7.94241878 14.9545227,8.31522063 14.0054207,8.31522063 C12.7494575,8.31522063 11.7121904,7.5 10.1331383,7.5 C9.54825509,7.5 9.02434582,7.60273606 8.53833929,7.78153812 C8.58619836,7.65656894 8.62503952,7.44650169 8.62503952,7.31265191 C8.62503952,7.28962645 8.62384934,7.25229591 8.62238449,7.22931623 C8.58086543,6.5628368 8.0345029,6.02826166 7.36729105,6.00111634 C6.61745306,5.97060647 6,6.56942859 6,7.31249169 C6,7.75842111 6.22258705,8.15214271 6.56249866,8.38933239 L6.56249866,17.4374676 C6.56249866,17.7481281 6.81433674,17.9999662 7.12499732,17.9999662 L7.5,17.9999662 Z" id="flag"></path>
        </g>
    </g>
</svg>