<?xml version="1.0" encoding="UTF-8"?><svg version="1.1" width="24px" height="24px" viewBox="0 0 24.0 24.0" xmlns="http://www.w3.org/2000/svg" xmlns:xlink="http://www.w3.org/1999/xlink"><defs><clipPath id="i0"><path d="M12.3749705,4.49998927 C12.9962916,4.49998927 13.4999678,5.00366544 13.4999678,5.62498659 L13.4999678,7.87498122 C13.4999678,8.49630238 12.9962916,8.99997854 12.3749705,8.99997854 L1.12499732,8.99997854 C0.503676167,8.99997854 0,8.49630238 0,7.87498122 L0,5.62498659 C0,5.00366544 0.503676167,4.49998927 1.12499732,4.49998927 Z M11.2499732,5.99998569 C10.8357667,5.99998569 10.499975,6.33577744 10.499975,6.74998391 C10.499975,7.16419038 10.8357667,7.49998569 11.2499732,7.49998569 C11.6641796,7.49998569 11.999975,7.16419038 11.999975,6.74998391 C11.999975,6.33577744 11.6641796,5.99998569 11.2499732,5.99998569 Z M8.99997854,5.99998569 C8.58577207,5.99998569 8.24998033,6.33577744 8.24998033,6.74998391 C8.24998033,7.16419038 8.58577207,7.49998569 8.99997854,7.49998569 C9.41418501,7.49998569 9.74998033,7.16419038 9.74998033,6.74998391 C9.74998033,6.33577744 9.41418501,5.99998569 8.99997854,5.99998569 Z M9.89787984,0 C10.2302384,0 10.6495947,0.224440993 10.8339585,0.50095248 L13.0963128,3.89448382 C12.9056775,3.81471869 12.5832525,3.74999106 12.3765956,3.74999106 L1.12337226,3.74999106 C0.916715344,3.74999106 0.59429027,3.81471869 0.403655043,3.89448382 L2.66603216,0.50095248 C2.85039604,0.224418105 3.26972945,0 3.60208797,0 Z"></path></clipPath></defs><g transform="translate(5.000000000000001 8.0)"><g clip-path="url(#i0)"><polygon points="0,0 13.4999678,0 13.4999678,8.99997854 0,8.99997854 0,0" stroke="none" fill="#151515"></polygon></g></g></svg>