<?xml version="1.0" encoding="UTF-8"?>
<svg width="24px" height="24px" viewBox="0 0 24 24" version="1.1" xmlns="http://www.w3.org/2000/svg" xmlns:xlink="http://www.w3.org/1999/xlink">
    <title></title>
    <g id="Icons" stroke="none" stroke-width="1" fill="none" fill-rule="evenodd">
        <g id="Icons/2.-Size-sm/Object/hdd" fill="#151515">
            <path d="M18.0963128,11.8944838 L15.8339585,8.50095248 C15.6495947,8.22444099 15.2302384,8 14.8978798,8 L8.60208797,8 C8.26972945,8 7.85039604,8.22441811 7.66603216,8.50095248 L5.40365504,11.8944838 C5.59429027,11.8147187 5.91671534,11.7499911 6.12337226,11.7499911 L17.3765956,11.7499911 C17.5832525,11.7499911 17.9056775,11.8147187 18.0963128,11.8944838 Z M17.3749705,16.9999785 C17.9962916,16.9999785 18.4999678,16.4963024 18.4999678,15.8749812 L18.4999678,13.6249866 C18.4999678,13.0036654 17.9962916,12.4999893 17.3749705,12.4999893 L6.12499732,12.4999893 C5.50367617,12.4999893 5,13.0036654 5,13.6249866 L5,15.8749812 C5,16.4963024 5.50367617,16.9999785 6.12499732,16.9999785 L17.3749705,16.9999785 Z M16.2499732,15.4999857 C15.8357667,15.4999857 15.499975,15.1641904 15.499975,14.7499839 C15.499975,14.3357774 15.8357667,13.9999857 16.2499732,13.9999857 C16.6641796,13.9999857 16.999975,14.3357774 16.999975,14.7499839 C16.999975,15.1641904 16.6641796,15.4999857 16.2499732,15.4999857 Z M13.9999785,15.4999857 C13.5857721,15.4999857 13.2499803,15.1641904 13.2499803,14.7499839 C13.2499803,14.3357774 13.5857721,13.9999857 13.9999785,13.9999857 C14.414185,13.9999857 14.7499803,14.3357774 14.7499803,14.7499839 C14.7499803,15.1641904 14.414185,15.4999857 13.9999785,15.4999857 Z" id="hdd"></path>
        </g>
    </g>
</svg>