<?xml version="1.0" encoding="UTF-8"?><svg version="1.1" width="24px" height="24px" viewBox="0 0 24.0 24.0" xmlns="http://www.w3.org/2000/svg" xmlns:xlink="http://www.w3.org/1999/xlink"><defs><clipPath id="i0"><path d="M7.87495834,0 C10.1598574,0 11.9999714,1.84009113 11.9999714,4.12501305 C11.9999714,6.40318298 10.1531511,8.24998033 7.87498122,8.24998033 C7.61201951,8.24998033 7.35489427,8.22510093 7.10559677,8.17804294 L6.54282345,8.81119725 C6.45019519,8.91540691 6.26184878,8.99997854 6.1224143,8.99997854 L5.24998748,8.99997854 L5.24998748,9.93747631 C5.24998748,10.2481369 4.9981494,10.499975 4.68748882,10.499975 L3.74999106,10.499975 L3.74999106,11.4374727 C3.74999106,11.7481333 3.49815298,11.9999714 3.1874924,11.9999714 L0.562498659,11.9999714 C0.251838084,11.9999714 0,11.7481333 0,11.4374727 L0,9.6079788 C0,9.45879398 0.0592802542,9.31569739 0.164748753,9.21020601 L3.95696841,5.41798635 C3.82284397,5.0112643 3.74999106,4.5766645 3.74999106,4.12499017 C3.74999106,1.84682024 5.59678841,0 7.87495834,0 Z M8.99997854,1.87499553 C8.37865739,1.87499553 7.87498122,2.3786717 7.87498122,2.99999285 C7.87498122,3.621314 8.37865739,4.12499017 8.99997854,4.12499017 C9.62129969,4.12499017 10.1249759,3.621314 10.1249759,2.99999285 C10.1249759,2.3786717 9.62129969,1.87499553 8.99997854,1.87499553 Z"></path></clipPath></defs><g transform="translate(5.999999999999999 5.999999999999999)"><g clip-path="url(#i0)"><polygon points="0,0 11.9999714,0 11.9999714,11.9999714 0,11.9999714 0,0" stroke="none" fill="#151515"></polygon></g></g></svg>