<?xml version="1.0" encoding="UTF-8"?><svg version="1.1" width="24px" height="24px" viewBox="0 0 24.0 24.0" xmlns="http://www.w3.org/2000/svg" xmlns:xlink="http://www.w3.org/1999/xlink"><defs><clipPath id="i0"><path d="M14.9999642,6.74998391 L14.9999642,8.99997854 L13.4999678,8.99997854 L13.4999678,8.37490374 C13.4999678,8.16772039 13.3321521,7.99990463 13.1249687,7.99990463 C12.9177854,7.99990463 12.7499696,8.16772039 12.7499696,8.37490374 L12.7499696,8.99997854 L9.74997675,8.99997854 L9.74997675,8.37490374 C9.74997675,8.16772039 9.58216099,7.99990463 9.37497765,7.99990463 C9.1677943,7.99990463 8.99997854,8.16772039 8.99997854,8.37490374 L8.99997854,8.99997854 L5.99998569,8.99997854 L5.99998569,8.37490374 C5.99998569,8.16772039 5.83216993,7.99990463 5.62498659,7.99990463 C5.41780325,7.99990463 5.24998748,8.16772039 5.24998748,8.37490374 L5.24998748,8.99997854 L2.24999464,8.99997854 L2.24999464,8.37490374 C2.24999464,8.16772039 2.08217887,7.99990463 1.87499553,7.99990463 C1.66781219,7.99990463 1.5,8.16772039 1.5,8.37490374 L1.5,8.99997854 L0,8.99997854 L0,6.74998391 L14.9999642,6.74998391 Z M14.249966,0 C14.6641038,0 14.9999642,0.335860405 14.9999642,0.749998212 L14.9999642,1.56891258 C14.5640369,1.72381944 14.249966,2.13585154 14.249966,2.62499374 C14.249966,3.11413595 14.5640369,3.52616805 14.9999642,3.6810749 L14.9999642,5.99998569 L0,5.99998569 L0,3.6810749 C0.435927305,3.52616805 0.749998212,3.11413595 0.749998212,2.62499374 C0.749998212,2.13585154 0.435927305,1.72381944 0,1.56891258 L0,0.749998212 C0,0.335860405 0.335860405,0 0.749998212,0 Z M5.24999106,1.49999642 L3.74999106,1.49999642 L3.74999106,4.49999642 L5.24999106,4.49999642 L5.24999106,1.49999642 Z M8.24998391,1.49999642 L6.74998391,1.49999642 L6.74998391,4.49999642 L8.24998391,4.49999642 L8.24998391,1.49999642 Z M11.2499768,1.49999642 L9.74997675,1.49999642 L9.74997675,4.49999642 L11.2499768,4.49999642 L11.2499768,1.49999642 Z"></path></clipPath></defs><g transform="translate(4.999999999999999 8.0)"><g clip-path="url(#i0)"><polygon points="0,0 14.9999642,0 14.9999642,8.99997854 0,8.99997854 0,0" stroke="none" fill="#151515"></polygon></g></g></svg>