<?xml version="1.0" encoding="UTF-8"?><svg version="1.1" width="24px" height="24px" viewBox="0 0 24.0 24.0" xmlns="http://www.w3.org/2000/svg" xmlns:xlink="http://www.w3.org/1999/xlink"><defs><clipPath id="i0"><path d="M8.62497944,0 C9.24630059,0 9.74997675,0.503676167 9.74997675,1.12499732 L9.74997675,10.8749741 C9.74997675,11.4962952 9.24630059,11.9999714 8.62497944,11.9999714 L3.37499195,11.9999714 C2.7536708,11.9999714 2.24999464,11.4962952 2.24999464,10.8749741 L2.24999464,1.12499732 C2.24999464,0.503676167 2.7536708,0 3.37499195,0 Z M11.2968481,8.81247899 C11.3744617,8.81247899 11.4374727,8.87549001 11.4374727,8.95310365 L11.4374727,9.09372832 L11.8593467,9.09372832 C11.9369604,9.09372832 11.9999714,9.15673934 11.9999714,9.23435298 L11.9999714,9.51560231 C11.9999714,9.59321596 11.9369604,9.65622698 11.8593467,9.65622698 L11.4374727,9.65622698 L11.4374727,9.79685164 C11.4374727,9.87446529 11.3744617,9.93747631 11.2968481,9.93747631 L10.3124754,9.93747631 L10.3124754,8.81247899 Z M1.68749598,8.81247899 L1.68749598,9.93747631 L0.703123324,9.93747631 C0.625509678,9.93747631 0.562498659,9.87446529 0.562498659,9.79685164 L0.562498659,9.65622698 L0.140624665,9.65622698 C0.0630110192,9.65622698 0,9.59321596 0,9.51560231 L0,9.23435298 C0,9.15673934 0.0630110192,9.09372832 0.140624665,9.09372832 L0.562498659,9.09372832 L0.562498659,8.95310365 C0.562498659,8.87549001 0.625509678,8.81247899 0.703123324,8.81247899 L1.68749598,8.81247899 Z M11.2968481,6.56248435 C11.3744617,6.56248435 11.4374727,6.62549537 11.4374727,6.70310902 L11.4374727,6.84373368 L11.8593467,6.84373368 C11.9369604,6.84373368 11.9999714,6.9067447 11.9999714,6.98435835 L11.9999714,7.26560768 C11.9999714,7.34322132 11.9369604,7.40623234 11.8593467,7.40623234 L11.4374727,7.40623234 L11.4374727,7.54685701 C11.4374727,7.62447065 11.3744617,7.68748167 11.2968481,7.68748167 L10.3124754,7.68748167 L10.3124754,6.56248435 Z M1.68749598,6.56248435 L1.68749598,7.68748167 L0.703123324,7.68748167 C0.625509678,7.68748167 0.562498659,7.62447065 0.562498659,7.54685701 L0.562498659,7.40623234 L0.140624665,7.40623234 C0.0630110192,7.40623234 0,7.34322132 0,7.26560768 L0,6.98435835 C0,6.9067447 0.0630110192,6.84373368 0.140624665,6.84373368 L0.562498659,6.84373368 L0.562498659,6.70310902 C0.562498659,6.62549537 0.625509678,6.56248435 0.703123324,6.56248435 L1.68749598,6.56248435 Z M11.2968481,4.31248972 C11.3744617,4.31248972 11.4374727,4.37550074 11.4374727,4.45311438 L11.4374727,4.59373905 L11.8593467,4.59373905 C11.9369604,4.59373905 11.9999714,4.65675007 11.9999714,4.73436371 L11.9999714,5.01561304 C11.9999714,5.09322669 11.9369604,5.15623771 11.8593467,5.15623771 L11.4374727,5.15623771 L11.4374727,5.29686237 C11.4374727,5.37447602 11.3744617,5.43748704 11.2968481,5.43748704 L10.3124754,5.43748704 L10.3124754,4.31248972 Z M1.68749598,4.31248972 L1.68749598,5.43748704 L0.703123324,5.43748704 C0.625509678,5.43748704 0.562498659,5.37447602 0.562498659,5.29686237 L0.562498659,5.15623771 L0.140624665,5.15623771 C0.0630110192,5.15623771 0,5.09322669 0,5.01561304 L0,4.73436371 C0,4.65675007 0.0630110192,4.59373905 0.140624665,4.59373905 L0.562498659,4.59373905 L0.562498659,4.45311438 C0.562498659,4.37550074 0.625509678,4.31248972 0.703123324,4.31248972 L1.68749598,4.31248972 Z M11.2968481,2.06249508 C11.3744617,2.06249508 11.4374727,2.1255061 11.4374727,2.20311975 L11.4374727,2.34374441 L11.8593467,2.34374441 C11.9369604,2.34374441 11.9999714,2.40675543 11.9999714,2.48436908 L11.9999714,2.76561841 C11.9999714,2.84323205 11.9369604,2.90624307 11.8593467,2.90624307 L11.4374727,2.90624307 L11.4374727,3.04686774 C11.4374727,3.12448138 11.3744617,3.1874924 11.2968481,3.1874924 L10.3124754,3.1874924 L10.3124754,2.06249508 Z M1.68749598,2.06249508 L1.68749598,3.1874924 L0.703123324,3.1874924 C0.625509678,3.1874924 0.562498659,3.12448138 0.562498659,3.04686774 L0.562498659,2.90624307 L0.140624665,2.90624307 C0.0630110192,2.90624307 0,2.84323205 0,2.76561841 L0,2.48436908 C0,2.40675543 0.0630110192,2.34374441 0.140624665,2.34374441 L0.562498659,2.34374441 L0.562498659,2.20311975 C0.562498659,2.1255061 0.625509678,2.06249508 0.703123324,2.06249508 L1.68749598,2.06249508 Z"></path></clipPath></defs><g transform="translate(5.999999999999999 5.999999999999999)"><g clip-path="url(#i0)"><polygon points="0,0 11.9999714,0 11.9999714,11.9999714 0,11.9999714 0,0" stroke="none" fill="#151515"></polygon></g></g></svg>