<?xml version="1.0" encoding="UTF-8"?><svg version="1.1" width="24px" height="24px" viewBox="0 0 24.0 24.0" xmlns="http://www.w3.org/2000/svg" xmlns:xlink="http://www.w3.org/1999/xlink"><defs><clipPath id="i0"><path d="M10.5041667,8 C10.6666667,7.80833333 10.6666667,8 10.6666667,8 L10.6666667,9.33333333 C10.6666667,10.0697917 8.578125,10.6666667 6,10.6666667 C3.421875,10.6666667 1.33333333,10.0697917 1.33333333,9.33333333 L1.33359053,7.99368999 C1.33554527,7.96213992 1.35231481,7.82962963 1.49583333,8 C1.83020833,8.39583333 2.85729167,9.00208333 6,9 C9.14270833,8.99791667 10.16875,8.39479167 10.5041667,8 Z M11.8333333,1.33333333 C11.925,1.33333333 12,1.40833333 12,1.5 L12,9.16666667 C12,9.25833333 11.925,9.33333333 11.8333333,9.33333333 L11.5,9.33333333 C11.4083333,9.33333333 11.3333333,9.25833333 11.3333333,9.16666667 L11.3333333,1.5 C11.3333333,1.40833333 11.4083333,1.33333333 11.5,1.33333333 Z M0.5,1.33333333 C0.591666667,1.33333333 0.666666667,1.40833333 0.666666667,1.5 L0.666666667,9.16666667 C0.666666667,9.25833333 0.591666667,9.33333333 0.5,9.33333333 L0.166666667,9.33333333 C0.075,9.33333333 0,9.25833333 0,9.16666667 L0,1.5 C0,1.40833333 0.075,1.33333333 0.166666667,1.33333333 Z M10.5041667,5.66666667 C10.6666667,5.475 10.6666667,5.66666667 10.6666667,5.66666667 L10.6666667,6.66666667 C10.6666667,7.403125 8.578125,8 6,8 C3.421875,8 1.33333333,7.403125 1.33333333,6.66666667 L1.33355624,5.66035665 C1.33533951,5.62880658 1.35138889,5.4962963 1.49583333,5.66666667 C1.83020833,6.06145833 2.85729167,6.66666667 6,6.66666667 C9.14270833,6.66666667 10.1697917,6.06145833 10.5041667,5.66666667 Z M10.5041667,3.33333333 C10.6666667,3.14166667 10.6666667,3.33333333 10.6666667,3.33333333 L10.6666667,4.33333333 C10.6666667,5.06979167 8.578125,5.66666667 6,5.66666667 C3.421875,5.66666667 1.33333333,5.06979167 1.33333333,4.33333333 L1.33355624,3.32702332 C1.33533951,3.29547325 1.35138889,3.16296296 1.49583333,3.33333333 C1.83020833,3.728125 2.85729167,4.33333333 6,4.33333333 C9.14270833,4.33333333 10.1697917,3.728125 10.5041667,3.33333333 Z M6,0 C8.578125,0 10.6666667,0.596875 10.6666667,1.33333333 L10.6666667,2 C10.6666667,2.73645833 8.578125,3.33333333 6,3.33333333 C3.421875,3.33333333 1.33333333,2.73645833 1.33333333,2 L1.33333333,1.33333333 C1.33333333,0.596875 3.421875,0 6,0 Z"></path></clipPath></defs><g transform="translate(6.0 7.0)"><g clip-path="url(#i0)"><polygon points="0,0 12,0 12,10.6666667 0,10.6666667 0,0" stroke="none" fill="#151515"></polygon></g></g></svg>