<?xml version="1.0" encoding="UTF-8"?>
<svg width="24px" height="24px" viewBox="0 0 24 24" version="1.1" xmlns="http://www.w3.org/2000/svg" xmlns:xlink="http://www.w3.org/1999/xlink">
    <title></title>
    <g id="Icons" stroke="none" stroke-width="1" fill="none" fill-rule="evenodd">
        <g id="Icons/2.-Size-sm/Object/pficon-image" fill="#151515">
            <path d="M16.875,17 L7.125,17 C6.50367188,17 6,16.4963281 6,15.875 L6,9.125 C6,8.50367188 6.50367188,8 7.125,8 L16.875,8 C17.4963281,8 18,8.50367188 18,9.125 L18,15.875 C18,16.4963281 17.4963281,17 16.875,17 Z M8.625,9.3125 C7.900125,9.3125 7.3125,9.900125 7.3125,10.625 C7.3125,11.349875 7.900125,11.9375 8.625,11.9375 C9.349875,11.9375 9.9375,11.349875 9.9375,10.625 C9.9375,9.900125 9.349875,9.3125 8.625,9.3125 Z M7.5,15.5 L16.5,15.5 L16.5,12.875 L14.4488672,10.8238672 C14.3390391,10.7140391 14.1609609,10.7140391 14.0511094,10.8238672 L10.875,14 L9.57386719,12.6988672 C9.46403906,12.5890391 9.28596094,12.5890391 9.17610937,12.6988672 L7.5,14.375 L7.5,15.5 Z" id="pficon-image"></path>
        </g>
    </g>
</svg>