<?xml version="1.0" encoding="UTF-8"?><svg version="1.1" width="24px" height="24px" viewBox="0 0 24.0 24.0" xmlns="http://www.w3.org/2000/svg" xmlns:xlink="http://www.w3.org/1999/xlink"><defs><clipPath id="i0"><path d="M8.80078125,1.63712559 C9.24257813,1.63712559 9.62109375,1.79767247 9.928125,2.11759434 C10.2433594,2.43634434 10.3980469,2.82189122 10.3980469,3.27540684 C10.3999822,3.58805853 10.3112451,3.89456789 10.1425781,4.15782872 C10.6804687,4.28634435 11.1246094,4.57267247 11.475,5.01681309 C11.825,5.46134435 12,5.97071934 12,6.54493809 C12,7.22345372 11.7679688,7.80118809 11.2980469,8.28165684 C10.8269531,8.75860997 10.2621094,9.00001622 9.6,9.00001622 L2.79960938,9.00001622 C2.02890625,8.99923497 1.36992188,8.71876622 0.82265625,8.15860997 C0.27421875,7.59767247 0,6.92345372 0,6.13595372 C0,5.57384435 0.148046875,5.06017247 0.444140625,4.59493809 C0.740625,4.1277506 1.1296875,3.77931309 1.61132812,3.54962559 L6.32460938,7.23634434 C6.62460937,7.47071934 7.06523437,7.29142247 7.115625,6.91407872 L7.77304687,2.02618809 C8.06367188,1.76837559 8.40585937,1.63712559 8.80078125,1.63712559 Z M4.80117187,5.3586624e-06 C5.45859375,-0.00115565857 6.05507812,0.186344341 6.590625,0.562516216 C6.79368599,0.703858416 6.98038246,0.867365213 7.14726562,1.05001622 L6.48867187,5.94142247 C6.47664146,6.02853841 6.41903821,6.10261372 6.33757015,6.13573278 C6.25610208,6.16885186 6.16315255,6.1559805 6.09375,6.10196934 L1.65703125,2.63321934 C1.77226562,1.99884435 2.06601562,1.44025059 2.53828125,0.957438091 C3.16445312,0.317984974 3.91875,-0.00115565857 4.80117187,5.3586624e-06 Z"></path></clipPath></defs><g transform="translate(6.0 6.999999999999999)"><g clip-path="url(#i0)"><polygon points="0,-7.77156117e-16 12,-7.77156117e-16 12,9.00001622 0,9.00001622 0,-7.77156117e-16" stroke="none" fill="#151515"></polygon></g></g></svg>