<?xml version="1.0" encoding="UTF-8"?>
<svg width="24px" height="24px" viewBox="0 0 24 24" version="1.1" xmlns="http://www.w3.org/2000/svg" xmlns:xlink="http://www.w3.org/1999/xlink">
    <title></title>
    <g id="Icons" stroke="none" stroke-width="1" fill="none" fill-rule="evenodd">
        <g id="Icons/2.-Size-sm/Object/pficon-zone" fill="#151515">
            <path d="M18,10.3125 C18,7.93125 16.06875,6 13.6875,6 C12.6457031,6 11.690625,6.36914062 10.9453125,6.98320313 C10.7390625,6.95273438 10.5269531,6.9375 10.3125,6.9375 C7.93125,6.9375 6,8.86875 6,11.25 C6,13.1367188 7.21171875,14.7410156 8.90039062,15.3257812 C9.54492188,16.8949219 11.0894531,18 12.890625,18 C15.271875,18 17.203125,16.06875 17.203125,13.6875 C17.203125,13.4214844 17.1785156,13.1601562 17.1328125,12.9070312 C17.6765625,12.1851562 18,11.2863281 18,10.3125 Z M10.5773438,8.99882812 C10.734375,8.62851563 10.9535156,8.29335937 11.2289063,8.00039062 C11.3636719,8.03789062 11.4960938,8.08476562 11.6261719,8.13984375 C12.028125,8.30976563 12.3890625,8.55351562 12.6996094,8.8640625 C12.8589844,9.0234375 13.0007812,9.196875 13.1238281,9.38203125 C13.0464844,9.37734375 12.9691406,9.37617188 12.890625,9.37617188 C11.925,9.37617188 11.0320312,9.69375 10.3136719,10.2304688 C10.3242188,9.80273438 10.4121094,9.3890625 10.5773438,8.99882812 Z M13.575,10.3792969 C13.65,10.6605469 13.6875,10.9511719 13.6875,11.2476563 C13.6875,11.7035156 13.5984375,12.1453125 13.4226562,12.5613281 C13.265625,12.9316406 13.0464844,13.2667969 12.7710937,13.5597656 C12.6363281,13.5246094 12.5039062,13.4777344 12.3738281,13.4226562 C11.971875,13.2527344 11.6109375,13.0089844 11.3003906,12.6984375 C10.9898437,12.3878906 10.7460938,12.0269531 10.5761719,11.625 C10.5363281,11.5300781 10.5,11.4328125 10.4695312,11.334375 C10.48125,11.3226562 10.4917969,11.3109375 10.5035156,11.2992187 C10.8140625,10.9886719 11.175,10.7449219 11.5769531,10.575 C11.9929687,10.3992187 12.4347656,10.3101563 12.890625,10.3101563 C13.1226562,10.3101563 13.3511719,10.3335938 13.575,10.3792969 Z M8.578125,13.6875 C8.578125,13.8480469 8.5875,14.00625 8.60390625,14.1609375 C8.3578125,14.0167969 8.13046875,13.8410156 7.9265625,13.6359375 C7.61601563,13.3253906 7.37226562,12.9644531 7.20234375,12.5625 C7.0265625,12.1476563 6.9375,11.7058594 6.9375,11.25 C6.9375,10.7941406 7.0265625,10.3523437 7.20234375,9.93632812 C7.37226562,9.534375 7.61601563,9.1734375 7.9265625,8.86289062 C8.23710937,8.55234375 8.59804687,8.30859375 9,8.13867188 C9.35859375,7.9875 9.73710937,7.89960937 10.1273437,7.87851562 C9.65273437,8.57226562 9.375,9.41015625 9.375,10.3125 C9.375,10.5785156 9.39960938,10.8398438 9.4453125,11.0929688 C8.90039062,11.8148437 8.578125,12.7136719 8.578125,13.6875 Z M9.628125,14.5558594 C9.553125,14.2746094 9.515625,13.9839844 9.515625,13.6875 C9.515625,13.2316406 9.6046875,12.7898437 9.78046875,12.3738281 C9.79804688,12.3328125 9.815625,12.2917969 9.83554688,12.2519531 C10.275,13.1238281 11.0015625,13.8257812 11.8910156,14.2335938 C11.8042969,14.2792969 11.7164063,14.3214844 11.6261719,14.3601562 C11.2101563,14.5359375 10.7683594,14.625 10.3125,14.625 C10.0804687,14.625 9.85195312,14.6015625 9.628125,14.5558594 Z M15.9996094,15 C15.8308594,15.403125 15.5871094,15.7640625 15.2765625,16.0734375 C14.9660156,16.3839844 14.6050781,16.6277344 14.203125,16.7976562 C13.7871094,16.9734375 13.3453125,17.0625 12.8894531,17.0625 C12.4335938,17.0625 11.9917969,16.9734375 11.5757813,16.7976562 C11.1738281,16.6277344 10.8128906,16.3839844 10.5023437,16.0734375 C10.3429688,15.9140625 10.2011719,15.740625 10.078125,15.5554687 C10.1554688,15.5601562 10.2328125,15.5613281 10.3113281,15.5613281 C11.353125,15.5613281 12.3082031,15.1921875 13.0535156,14.578125 C13.2597656,14.6085938 13.471875,14.6238281 13.6863281,14.6238281 C14.6519531,14.6238281 15.5449219,14.30625 16.2632812,13.7695312 C16.2527344,14.1960937 16.1648437,14.6097656 15.9996094,15 Z M14.5992187,10.7765625 C14.8453125,10.9207031 15.0726562,11.0964844 15.2777344,11.3015625 C15.5882813,11.6121094 15.8320312,11.9730469 16.0019531,12.375 C16.0417969,12.4699219 16.078125,12.5671875 16.1085938,12.665625 C16.096875,12.6773437 16.0863281,12.6890625 16.0746094,12.7007812 C15.7640625,13.0113281 15.403125,13.2550781 15.0011719,13.425 C14.6425781,13.5761719 14.2640625,13.6640625 13.8738281,13.6851562 C14.3472656,12.9902344 14.625,12.1523438 14.625,11.25 C14.625,11.0894531 14.615625,10.93125 14.5992187,10.7765625 Z M16.7988281,11.6273437 C16.78125,11.6683594 16.7636719,11.709375 16.74375,11.7492188 C16.2421875,10.753125 15.3667969,9.9796875 14.3027344,9.61171875 C13.8867188,8.60039062 13.0992187,7.78242187 12.1089844,7.32890625 C12.1957031,7.28320312 12.2835937,7.24101563 12.3738281,7.20234375 C12.7898437,7.0265625 13.2316406,6.9375 13.6875,6.9375 C14.1433594,6.9375 14.5851563,7.0265625 15.0011719,7.20234375 C15.403125,7.37226562 15.7640625,7.61601563 16.0746094,7.9265625 C16.3851563,8.23710937 16.6289062,8.59804687 16.7988281,9 C16.9746094,9.41601562 17.0636719,9.8578125 17.0636719,10.3136719 C17.0636719,10.7695312 16.9746094,11.2113281 16.7988281,11.6273437 Z" id="pficon-zone"></path>
        </g>
    </g>
</svg>