<?xml version="1.0" encoding="UTF-8"?><svg version="1.1" width="24px" height="24px" viewBox="0 0 24.0 24.0" xmlns="http://www.w3.org/2000/svg" xmlns:xlink="http://www.w3.org/1999/xlink"><defs><clipPath id="i0"><path d="M0.159926471,8.47058824 C0.488602941,8.88970588 1.49779412,9.53161765 4.58823529,9.52941176 C4.78345588,9.52941176 4.96985294,9.52610294 5.14852941,9.52169118 C5.18272059,9.52058824 5.21470588,9.53933824 5.23014706,9.57022059 C5.53786765,10.18125 6.03529412,10.6764706 6.64080882,10.9830882 C6.71801471,11.0216912 6.69926471,11.1363971 6.61433824,11.1496324 C6.00330882,11.2422794 5.31507353,11.2941176 4.58823529,11.2941176 C2.05367647,11.2930147 0,10.6621324 0,9.88235294 L0,8.47058824 C0,8.47058824 0,8.26764706 0.159926471,8.47058824 Z M7.82757353,6.00882353 C9,5.86544118 10.0665441,6.70036765 10.2066176,7.87058824 C10.2694853,8.39448529 10.1382353,8.89852941 9.86580882,9.30992647 L9.88125,9.30772059 C9.99816176,9.29338235 10.1459559,9.33308824 10.2926471,9.43676471 L11.7727941,10.4128676 C11.9172794,10.5132353 12,10.6665441 12,10.8198529 C12,10.9411765 11.9713235,11.0283088 11.9029412,11.1165441 C11.8246324,11.2180147 11.6713235,11.2941176 11.5323529,11.2941176 C11.4121324,11.2941176 11.2897059,11.25 11.1893382,11.1617647 L9.88566176,9.96176471 C9.74448529,9.83823529 9.66838235,9.69705882 9.65845588,9.57573529 C9.32536765,9.93639706 8.86985294,10.1889706 8.34264706,10.2518382 C7.17022059,10.3952206 6.10367647,9.56139706 5.9625,8.38897059 C5.82132353,7.21654412 6.65514706,6.15220588 7.82757353,6.00882353 Z M8.05076725,6.70480815 L7.91360294,6.71470588 C7.13161765,6.80845588 6.57683824,7.52095588 6.67058824,8.30294118 C6.76433824,9.08492647 7.47683824,9.64191176 8.25882353,9.54595588 C9.04080882,9.45 9.59448529,8.73970588 9.50183824,7.95772059 C9.40808824,7.17573529 8.69558824,6.62095588 7.91360294,6.71470588 Z M0.159926471,6 C0.488602941,6.41801471 1.49779412,7.05882353 4.58823529,7.05882353 C4.71176471,7.05882353 4.83308824,7.05772059 4.95,7.05551471 C5.01066176,7.05441176 5.05367647,7.11286765 5.03492647,7.17022059 C5.02610294,7.19669118 5.01838235,7.22316176 5.01066176,7.24963235 C4.90588235,7.61580882 4.86727941,7.99301471 4.89595588,8.37242647 C4.90036765,8.42316176 4.86066176,8.46727941 4.80882353,8.46838235 C4.73492647,8.46948818 4.66102941,8.46948818 4.58602941,8.46948818 C2.05367647,8.47058824 0,7.83860294 0,7.05882353 L0,6 C0,6 0,5.79705882 0.159926471,6 Z M9.17625121,3.52273057 L9.17647059,4.58823529 C9.17647059,4.73602941 9.10257353,4.87830882 8.96580882,5.01176471 C8.94375,5.03272059 8.91286765,5.04154412 8.88308824,5.03382353 C8.62830882,4.96875 8.3625,4.93345588 8.08897059,4.93345588 C7.95882353,4.93345588 7.82757353,4.94117647 7.69852941,4.95772059 C7.27058824,5.00955882 6.86580882,5.14522059 6.49411765,5.35808824 C6.22389706,5.51360294 5.98014706,5.70551471 5.76727941,5.92941176 C5.75183824,5.94485294 5.73198529,5.95477941 5.70992647,5.95698529 C5.35036765,5.98455882 4.97536765,6 4.58823529,6 C2.05367647,6 0,5.36801471 0,4.58823529 L0,3.52941176 C0,3.52941176 0,3.32647059 0.159926471,3.52941176 C0.488602941,3.94742647 1.49779412,4.58823529 4.58823529,4.58823529 C7.67867647,4.58823529 8.68786765,3.94742647 9.01654412,3.52941176 C9.15870098,3.34901961 9.17449619,3.48932462 9.17625121,3.52273057 Z M4.58823529,0 C7.12279412,0 9.17647059,0.631985294 9.17647059,1.41176471 L9.17647059,2.11764706 C9.17647059,2.89742647 7.12279412,3.52941176 4.58823529,3.52941176 C2.05367647,3.52941176 0,2.89742647 0,2.11764706 L0,1.41176471 C0,0.631985294 2.05367647,0 4.58823529,0 Z"></path></clipPath></defs><g transform="translate(6.0 5.999999999999999)"><g clip-path="url(#i0)"><polygon points="0,0 12,0 12,11.2941176 0,11.2941176 0,0" stroke="none" fill="#151515"></polygon></g></g></svg>