<?xml version="1.0" encoding="UTF-8"?><svg version="1.1" width="24px" height="24px" viewBox="0 0 24.0 24.0" xmlns="http://www.w3.org/2000/svg" xmlns:xlink="http://www.w3.org/1999/xlink"><defs><clipPath id="i0"><path d="M11.2941176,0.705882353 C12,0.705882353 12,1.44264706 12,1.44264706 L12,9.88235294 C12,10.5882353 10.8716912,10.5650735 10.8716912,10.5650735 C9.51948529,8.52242647 6.35294118,10.5882353 6.35294118,10.5882353 L6.35294118,9.85367647 C9.51838235,7.68419118 11.2941176,9.88235294 11.2941176,9.88235294 L11.2941176,0.705882353 Z M0.705882353,0.705882353 L0.705882353,9.88235294 C0.705882353,9.88125 2.49264706,7.68419118 5.64705882,9.85367647 L5.64705882,10.5882353 C5.64705882,10.5882353 2.51360294,8.53455882 1.13051471,10.5650735 C1.13051471,10.5650735 0,10.5882353 0,9.88235294 L0,1.44264706 C0,1.44264706 0,0.705882353 0.705882353,0.705882353 Z M10.5882353,0 L10.5882353,8.47058824 C9.91323529,8.28419118 8.13970588,8.03492647 6.35294118,9.17647059 L6.35294118,1.41176471 C7.58051471,0.624264706 9.64632353,0 10.5882353,0 Z M1.41176471,0 C2.34816176,0 4.41838235,0.620955882 5.64705882,1.41176471 L5.64705882,9.17647059 C3.88235294,8.03492647 2.08786765,8.28529412 1.41176471,8.47058824 L1.41176471,0 Z"></path></clipPath></defs><g transform="translate(6.0 7.000000000000001)"><g clip-path="url(#i0)"><polygon points="0,0 12,0 12,10.5882353 0,10.5882353 0,0" stroke="none" fill="#151515"></polygon></g></g></svg>