<?xml version="1.0" encoding="UTF-8"?><svg version="1.1" width="24px" height="24px" viewBox="0 0 24.0 24.0" xmlns="http://www.w3.org/2000/svg" xmlns:xlink="http://www.w3.org/1999/xlink"><defs><clipPath id="i0"><path d="M5.65429688,0.0605847812 C5.87768727,-0.0201949271 6.12231273,-0.0201949271 6.34570312,0.0605847812 L11.3378906,1.87874884 C11.7296645,2.02174804 11.9928873,2.3912849 12,2.80828009 L12,8.13925666 C11.9871094,8.50335822 11.7902344,8.96929572 11.4773437,9.14015509 C9.86367188,10.0246863 7.4953125,11.3224207 6.48515625,11.8762488 C6.18276413,12.0412562 5.81723587,12.0412562 5.51484375,11.8762488 L0.52265625,9.14015509 C0.221484375,8.96695197 0.0140625,8.50253791 0.001171875,8.13925666 L0,2.80828009 C0.00838286995,2.39197758 0.271233807,2.023428 0.662109375,1.87992072 Z M8.65195312,7.76636603 L6.721875,8.61515509 L6.721875,10.5117176 L10.5117188,8.43245978 L8.65195312,7.76636603 Z M3.34101563,7.76835822 L1.4859375,8.43328009 L5.221875,10.4804285 L5.221875,8.59370978 L3.34101563,7.76835822 Z M10.875,6.78995978 L9.64921875,7.32843634 L10.875,7.76753791 L10.875,6.78995978 Z M1.125,6.79581916 L1.125,7.76636603 L2.34257813,7.32831916 L1.125,6.79581916 Z M8.240625,4.79847541 L6.721875,5.34374884 L6.721875,7.27933478 L10.6792969,5.67304572 L8.240625,4.79847541 Z M3.74882812,4.79964728 L1.31132812,5.67421759 L5.22070312,7.25824103 L5.22070312,5.32886603 L3.74882812,4.79964728 Z M10.875,3.85546759 L9.3515625,4.40050666 L10.875,4.94777228 L10.875,3.85546759 Z M1.125,3.85956916 L1.125,4.94601447 L2.6390625,4.40285041 L1.125,3.85956916 Z M6.00234375,1.11328009 L1.40507813,2.78835822 L5.99414062,4.43437384 L10.5902344,2.78484259 L6.00234375,1.11328009 Z"></path></clipPath></defs><g transform="translate(6.0 5.999999999999999)"><g clip-path="url(#i0)"><polygon points="0,0 12,0 12,12.0000044 0,12.0000044 0,0" stroke="none" fill="#151515"></polygon></g></g></svg>