<?xml version="1.0" encoding="UTF-8"?><svg version="1.1" width="24px" height="24px" viewBox="0 0 24.0 24.0" xmlns="http://www.w3.org/2000/svg" xmlns:xlink="http://www.w3.org/1999/xlink"><defs><clipPath id="i0"><path d="M7.29044118,5.64705882 C7.70073529,5.64705882 7.89264706,6.06286765 7.89264706,6.06286765 L8.04926471,6.35294118 L11.6470588,6.35294118 C11.8422794,6.35294118 12,6.51066176 12,6.70588235 L12,11.2941176 L4.23529412,11.2941176 L4.23529412,6.04963235 C4.23529412,6.04963235 4.23529412,5.64705882 4.63786765,5.64705882 L7.29044118,5.64705882 Z M5.17279412,2.82352941 C5.58308824,2.82352941 5.775,3.23933824 5.775,3.23933824 L5.93161765,3.52941176 L9.52941176,3.52941176 C9.72463235,3.52941176 9.88235294,3.68713235 9.88235294,3.88235294 L9.88235294,5.63602941 L8.48051471,5.63602941 C8.43419118,5.55882353 8.36360294,5.45735294 8.26654412,5.35588235 C8.00404412,5.08125 7.66102941,4.93014706 7.30147059,4.93014706 L4.64889706,4.93014706 C4.21764706,4.93014706 3.83933824,5.15073529 3.65404412,5.52132353 C3.54154412,5.74742647 3.52941176,5.95808824 3.52941176,6.03860294 L3.52941176,8.47058824 L2.11764706,8.47058824 L2.11794952,3.2167267 C2.12097411,3.15623481 2.15424465,2.82352941 2.52022059,2.82352941 Z M3.05514706,0 C3.46544118,0 3.65735294,0.415808824 3.65735294,0.415808824 L3.81397059,0.705882353 L7.41176471,0.705882353 C7.60698529,0.705882353 7.76470588,0.863602941 7.76470588,1.05882353 L7.76470588,2.82352941 L6.35183824,2.82352941 C6.30551471,2.74632353 6.23492647,2.62279412 6.13786765,2.52132353 C5.87536765,2.24669118 5.53235294,2.09558824 5.17279412,2.09558824 L2.52022059,2.09558824 C2.09007353,2.09558824 1.72169118,2.31617647 1.53639706,2.68676471 C1.42389706,2.91176471 1.41176471,3.12352941 1.41176471,3.20404412 L1.41176471,5.64705882 L0,5.64705882 L0,0.402573529 C0,0.402573529 0,0 0.402573529,0 L3.05514706,0 Z"></path></clipPath></defs><g transform="translate(6.0 5.999999999999999)"><g clip-path="url(#i0)"><polygon points="0,0 12,0 12,11.2941176 0,11.2941176 0,0" stroke="none" fill="#151515"></polygon></g></g></svg>