<?xml version="1.0" encoding="UTF-8"?><svg version="1.1" width="24px" height="24px" viewBox="0 0 24.0 24.0" xmlns="http://www.w3.org/2000/svg" xmlns:xlink="http://www.w3.org/1999/xlink"><defs><clipPath id="i0"><path d="M5.60398162,0 C6.96294028,0.00551301685 8.17580398,0.624808576 8.98254211,1.5941807 C9.00073434,1.6161663 9.00455818,1.64669421 8.99235062,1.6724876 C8.98014306,1.698281 8.95411034,1.71467832 8.92557427,1.71454824 L8.35773354,1.71454824 C8.31966551,1.71449038 8.2831041,1.69966819 8.25574273,1.67320061 C7.91616908,1.34288904 7.51874861,1.07783824 7.08330781,0.891271057 C7.24749927,1.11627373 7.38849357,1.35731858 7.50413476,1.61071975 C7.51439484,1.63359806 7.51242975,1.66010712 7.49890847,1.68122254 C7.4853872,1.70233795 7.46213205,1.71521391 7.43705972,1.71546708 L6.99326187,1.71546708 C6.90689127,1.71546708 6.85911179,1.63552833 6.82787136,1.57947933 C6.6431853,1.25053599 6.42542113,0.986830015 6.19846861,0.815926493 C6.10209395,0.741514364 5.99487453,0.682326763 5.8805513,0.64042879 L5.8805513,2.35222052 L6.49617152,2.35222052 C6.52613112,2.35096881 6.5536725,2.36859529 6.56508423,2.39632466 C6.61989706,2.54295593 6.66712646,2.69231123 6.70658499,2.84379786 C6.7194487,2.88973966 6.68361409,2.94027565 6.63583461,2.94027565 L5.8805513,2.94027565 L5.8805513,4.11638591 L9.84624809,4.11638591 C9.9260276,4.11636097 9.99126735,4.17996973 9.99326187,4.25972435 L9.99693721,4.41133231 C9.99693721,4.51056662 9.9941807,4.60796325 9.98774885,4.70535988 C9.83614089,7.0042879 7.92312404,8.82083738 5.58652374,8.82083738 C4.88678986,8.82190716 4.19691159,8.65589537 3.57427259,8.33660031 C3.55347953,8.32571311 3.53907819,8.3056139 3.53545482,8.28242439 C3.53183146,8.25923487 3.53941506,8.23570052 3.55589587,8.21898928 L3.88575804,7.89004594 C3.90753361,7.86832889 3.94052692,7.86246341 3.96845329,7.87534456 L4.0906585,7.9295559 C4.06860643,7.8992343 4.04655436,7.86799387 4.0245023,7.83675345 C4.00428615,7.80760942 4.00776469,7.7681859 4.03277182,7.74303216 L4.35068913,7.42511485 C4.36636222,7.4096625 4.38813477,7.40204631 4.41002242,7.40435963 C4.43191008,7.40667297 4.45160944,7.41867237 4.46370597,7.43705972 C4.62082695,7.67503828 4.79448698,7.86983155 4.97457887,8.00490046 C5.07095352,8.07931259 5.17817294,8.13850019 5.29249617,8.18039816 L5.29249617,6.56784074 C5.2924232,6.4898988 5.26134848,6.41518725 5.20612557,6.36018377 L4.84869832,6.00183767 C4.82785167,5.98132429 4.82175398,5.9501087 4.83334851,5.92325821 C4.84494303,5.89640773 4.87184609,5.87944246 4.90107198,5.8805513 L5.29249617,5.8805513 L5.29249617,4.70444104 L1.77519142,4.70444104 C1.78770201,4.87056136 1.81102865,5.03568944 1.84502297,5.19877489 C1.85513017,5.24471669 1.8202144,5.29249617 1.77335375,5.29249617 L1.32404288,5.29249617 C1.28820827,5.29249617 1.25788668,5.26309342 1.25145482,5.22817764 C1.21929556,5.05727412 1.17611026,4.65666156 1.17611026,4.55742726 L1.17611026,4.43614089 C1.17611026,2.01592649 3.14701378,0.012863706 5.56355283,0 Z M7.16600306,6.46860643 L5.8805513,6.46860643 L5.8805513,8.17947933 C5.99487453,8.13758135 6.10209395,8.07839375 6.19846861,8.00398162 C6.42542113,7.83399694 6.6431853,7.56937213 6.82787136,7.24042879 C6.96558979,6.99485069 7.07884447,6.73633455 7.16600306,6.46860643 Z M8.81163859,6.46401225 L7.78254211,6.46401225 C7.61163859,7.03920368 7.37182236,7.53905054 7.08330781,7.9295559 C7.53417266,7.73768003 7.94379786,7.46064487 8.28973966,7.1136294 C8.48657619,6.91650232 8.66155627,6.69870141 8.81163859,6.46401225 Z M3.19111792,5.24196018 L4.31117917,6.35926493 C4.36842389,6.41664845 4.36842389,6.50953838 4.31117917,6.5669219 L3.19111792,7.68882083 C3.0992343,7.78162328 2.94027565,7.71638591 2.94027565,7.58499234 L2.94027565,7.05666156 L0.147013783,7.05666156 C0.0661562021,7.05666156 0,6.98591118 0,6.9050536 L0,6.0229709 C0,5.94211332 0.0661562021,5.8805513 0.147013783,5.8805513 L2.94027565,5.8805513 L2.94027565,5.34578867 C2.94027565,5.21531394 3.09831547,5.14915773 3.19111792,5.24196018 Z M7.47381317,4.70444104 L5.8805513,4.70444104 L5.8805513,5.8805513 L7.32679939,5.8805513 C7.41009436,5.49356657 7.45928744,5.10002192 7.47381317,4.70444104 Z M9.39785605,4.70444104 L8.0618683,4.70444104 C8.04763519,5.09788409 8.00247289,5.48959779 7.92679939,5.87595712 L9.11761103,5.87595712 C9.27338251,5.50305165 9.36801179,5.10747028 9.39785605,4.70444104 Z M10.8312404,1.72098009 L11.9522205,2.83920368 C11.9807044,2.8676876 12,2.90535988 12,2.94303216 C12,2.98070444 11.9807044,3.01837672 11.9531394,3.04777948 L10.8330781,4.16967841 C10.7411945,4.26248086 10.5822358,4.19724349 10.5822358,4.06584992 L10.5822358,3.52833078 L7.50137825,3.52833078 C7.46462481,3.52833078 7.43338438,3.50811639 7.4287902,3.47136294 C7.39938744,3.25267994 7.35987749,3.03889739 7.31026034,2.83001531 C7.27993874,2.70137825 7.24502297,2.57641654 7.20735069,2.45513017 C7.19264931,2.40735069 7.22756508,2.35222052 7.27718224,2.35222052 L10.5803982,2.35222052 L10.5803982,1.82480858 C10.5803982,1.69433384 10.738438,1.62817764 10.8312404,1.72098009 Z M3.24808576,2.94027565 L2.05911179,2.94027565 C1.9011952,3.31428104 1.80529772,3.71152632 1.77519142,4.11638591 L3.11117917,4.11638591 C3.125504,3.72133511 3.17128441,3.32805379 3.24808576,2.94027565 Z M5.29249617,2.94027565 L3.84808576,2.94027565 C3.76416998,3.32720504 3.71436187,3.72075051 3.6992343,4.11638591 L5.29249617,4.11638591 L5.29249617,2.94027565 Z M4.0906585,0.891271057 C3.63979364,1.08314692 3.23016845,1.36018208 2.88422665,1.70719755 C2.69023569,1.90351223 2.51746035,2.11971241 2.36875957,2.35222052 L3.39326187,2.35222052 C3.56324655,1.78162328 3.80306279,1.27901991 4.0906585,0.891271057 Z M5.29249617,0.641347626 C5.17817294,0.683245599 5.07095352,0.742433201 4.97457887,0.816845329 C4.74762634,0.987748851 4.52986217,1.25145482 4.34517611,1.58039816 C4.21562021,1.81102603 4.10352221,2.0719755 4.00980092,2.35222052 L5.29249617,2.35222052 Z"></path></clipPath></defs><g transform="translate(6.0 8.0)"><g clip-path="url(#i0)"><polygon points="0,0 12,0 12,8.82084251 0,8.82084251 0,0" stroke="none" fill="#151515"></polygon></g></g></svg>