<?xml version="1.0" encoding="UTF-8"?>
<svg width="24px" height="24px" viewBox="0 0 24 24" version="1.1" xmlns="http://www.w3.org/2000/svg" xmlns:xlink="http://www.w3.org/1999/xlink">
    <title></title>
    <g id="Icons" stroke="none" stroke-width="1" fill="none" fill-rule="evenodd">
        <g id="Icons/2.-Size-sm/Object/pficon-integration" fill="#151515">
            <path d="M17.3867647,11.1621324 C17.1628676,11.1621324 16.9908088,11.3408088 16.8694853,11.5117647 C16.7481618,11.6827206 16.5882353,11.3772059 16.5882353,11.1125 L16.5882353,9.93676471 C16.5892055,9.79780444 16.5346597,9.66420701 16.4367087,9.56563473 C16.3387576,9.46706246 16.2055077,9.41167313 16.0665441,9.41176471 L15.2514706,9.41176471 C14.8941176,9.41176471 14.7507353,9.31911765 14.8974265,9.16029412 C15.0705882,8.97389706 15.1819853,8.81727941 15.1819853,8.61654412 C15.1819853,8.27573529 14.8621324,8 14.4661765,8 C14.0702206,8 13.7503676,8.27573529 13.7503676,8.61654412 C13.7503676,8.84044118 13.8386029,8.96838235 14.0205882,9.14375 C14.1970588,9.31360294 14.0283088,9.41176471 13.7095588,9.41176471 L12.8955882,9.41176471 C12.6017654,9.41046207 12.3607337,9.6441453 12.3529412,9.93786765 L12.3529412,10.5136029 C12.4268382,10.5025735 12.4455882,10.4959559 12.5139706,10.4959559 C13.2088235,10.4959559 13.7735294,11.1345588 13.7735294,11.9231618 C13.7735294,12.7117647 13.2099265,13.3503676 12.5139706,13.3503676 C12.4455882,13.3503676 12.4268382,13.34375 12.3529412,13.3327206 L12.3529412,14.5238971 C12.3529412,14.8139706 12.525,15.0588235 12.8161765,15.0588235 L13.7205882,15.0588235 C14.0823529,15.0588235 14.2400735,15.1305147 14.0691176,15.3191176 C13.8981618,15.5077206 13.7503676,15.6555147 13.7503676,15.8650735 C13.7503676,16.2003676 14.0702206,16.4705882 14.4661765,16.4705882 C14.8621324,16.4705882 15.1819853,16.1992647 15.1819853,15.8650735 C15.1819853,15.6709559 15.1323529,15.5308824 14.9051471,15.35 C14.6779412,15.1691176 14.8676471,15.0555147 15.2415441,15.0555147 L16.1073529,15.0555147 C16.3974265,15.0555147 16.5882353,14.7985294 16.5882353,14.5084559 L16.5882353,12.6202206 C16.5882353,12.3610294 16.7426471,12.0257353 16.8584559,12.2209559 C16.9742647,12.4161765 17.1551471,12.5904412 17.3867647,12.5904412 C17.7253676,12.5904412 18,12.2705882 18,11.8757353 C18,11.4808824 17.7253676,11.1621324 17.3867647,11.1621324 M13.1183824,11.8757353 C13.1183824,11.4808824 12.8470588,11.1610294 12.5106618,11.1610294 C12.2922794,11.1610294 12.1180147,11.2801471 11.9944853,11.4996324 C11.8709559,11.7191176 11.6470588,11.3860294 11.6470588,11.1014706 L11.6470588,10.6382353 C11.6470588,10.3481618 11.4055147,10.1176471 11.1154412,10.1176471 L10.2033088,10.1176471 C9.81507353,10.1176471 9.71470588,10.0613971 9.89227941,9.83088235 C10.0852941,9.60698529 10.1790441,9.46911765 10.1790441,9.27610294 C10.1790441,8.94852941 9.85919118,8.68382353 9.46323529,8.68382353 C9.06727941,8.68382353 8.74742647,8.94852941 8.74742647,9.27610294 C8.74742647,9.44154412 8.81911765,9.56507353 8.98786765,9.79889706 C9.15661765,10.0327206 9.09816176,10.1176471 8.69227941,10.1176471 L7.94669118,10.1176471 C7.65551471,10.1176471 7.41176471,10.3382353 7.41176471,10.6283088 L7.41176471,11.0915441 C7.41176471,11.3485294 7.31691176,11.6485294 7.12941176,11.4908088 C6.94191176,11.3330882 6.83272059,11.1610294 6.61213235,11.1610294 C6.26801471,11.1621324 6,11.4819853 6,11.8757353 C6,12.2694853 6.26801471,12.5904412 6.61433824,12.5904412 C6.84595588,12.5904412 7.02132353,12.4371324 7.14926471,12.2330882 C7.27720588,12.0290441 7.41176471,12.3830882 7.41176471,12.6301471 L7.41176471,15.2011029 C7.41176471,15.4911765 7.69963235,15.7547794 8.00073529,15.7647059 L8.62279412,15.7647059 C8.53566176,15.6003676 8.49705882,15.4040441 8.49705882,15.2297794 C8.49705882,14.6297794 8.79485294,14.3573529 9.45330882,14.3386029 L9.44117647,14.3386029 C9.92426471,14.3275735 10.3224265,14.6110294 10.3224265,15.2297794 C10.319676,15.4150809 10.2767787,15.5975826 10.1966912,15.7647059 L11.1066176,15.7647059 C11.3977941,15.7647059 11.6470588,15.5011029 11.6470588,15.2110294 L11.6470588,12.6202206 C11.6470588,12.3400735 11.8764706,12.0025735 11.9801471,12.2220588 C12.0838235,12.4415441 12.2823529,12.5904412 12.5106618,12.5904412 C12.8470588,12.5904412 13.1183824,12.2705882 13.1183824,11.8757353" id="pficon-integration"></path>
        </g>
    </g>
</svg>