<?xml version="1.0" encoding="UTF-8"?><svg version="1.1" width="24px" height="24px" viewBox="0 0 24.0 24.0" xmlns="http://www.w3.org/2000/svg" xmlns:xlink="http://www.w3.org/1999/xlink"><defs><clipPath id="i0"><path d="M6.33088235,2.82352941 L6.33088235,4.23529412 L9.88235294,4.23529412 C10.239575,4.23562855 10.5347207,4.50103351 10.5817119,4.84543115 L10.5882353,4.94117647 L10.5882353,6.35294118 L11.2941176,6.35294118 C11.6513397,6.3532756 11.9464853,6.61868057 11.9934766,6.96307821 L12,7.05882353 L12,9.17647059 C11.9996656,9.5336927 11.7342606,9.8288383 11.389863,9.87582954 L11.2941176,9.88235294 L9.17647059,9.88235294 C8.81924848,9.88201851 8.52410287,9.61661355 8.47711164,9.27221591 L8.47058824,9.17647059 L8.47058824,7.05882353 C8.47092266,6.70160142 8.73632763,6.40645582 9.08072527,6.35946458 L9.17647059,6.35294118 L9.88235294,6.35294118 L9.88235294,4.94117647 L6.33088235,4.94117647 L6.33088235,6.35294118 L7.04779412,6.35294118 C7.40501623,6.3532756 7.70016183,6.61868057 7.74715307,6.96307821 L7.75367647,7.05882353 L7.75367647,9.17647059 C7.75334204,9.5336927 7.48793708,9.8288383 7.14353944,9.87582954 L7.04779412,9.88235294 L4.93014706,9.88235294 C4.57292495,9.88201851 4.27777935,9.61661355 4.23078811,9.27221591 L4.22426471,9.17647059 L4.22426471,7.05882353 C4.22459913,6.70160142 4.4900041,6.40645582 4.83440174,6.35946458 L4.93014706,6.35294118 L5.625,6.35294118 L5.625,4.94117647 L2.11764706,4.94117647 L2.11764706,6.35294118 L2.82352941,6.35294118 C3.18075152,6.3532756 3.47589713,6.61868057 3.52288836,6.96307821 L3.52941176,7.05882353 L3.52941176,9.17647059 C3.52907734,9.5336927 3.26367237,9.8288383 2.91927473,9.87582954 L2.82352941,9.88235294 L0.705882353,9.88235294 C0.348660248,9.88201851 0.0535146373,9.61661355 0.00652340091,9.27221591 L0,9.17647059 L0,7.05882353 C0.000334425658,6.70160142 0.265739396,6.40645582 0.610137032,6.35946458 L0.705882353,6.35294118 L1.41176471,6.35294118 L1.41176471,4.94117647 C1.41209913,4.58395436 1.6775041,4.28880876 2.02190174,4.24181752 L2.11764706,4.23529412 L5.625,4.23529412 L5.625,2.82352941 L6.33088235,2.82352941 Z M11.2941176,0 L11.2941176,2.11764706 L0.705882353,2.11764706 L0.705882353,0 L11.2941176,0 Z M10.59375,0.705882353 L7.76470588,0.705882353 L7.76470588,1.41176471 L10.59375,1.41176471 L10.59375,0.705882353 Z"></path></clipPath></defs><g transform="translate(6.0 7.0)"><g clip-path="url(#i0)"><polygon points="0,0 12,0 12,9.88235294 0,9.88235294 0,0" stroke="none" fill="#151515"></polygon></g></g></svg>