<?xml version="1.0" encoding="UTF-8"?><svg version="1.1" width="24px" height="24px" viewBox="0 0 24.0 24.0" xmlns="http://www.w3.org/2000/svg" xmlns:xlink="http://www.w3.org/1999/xlink"><defs><clipPath id="i0"><path d="M12,0 L12,8.46959559 L7.05882353,8.46959559 L7.05882353,9.17647059 L9.17647059,9.18264706 L9.17647059,9.88235294 L2.82352941,9.88235294 L2.82352941,9.18264706 L4.94117647,9.17647059 L4.94117647,8.46959559 L0,8.46959559 L0,0 L12,0 Z M10.5882353,1.41176471 L1.41176471,1.41176471 L1.41176471,7.05882353 L10.5882353,7.05882353 L10.5882353,1.41176471 Z M9.35658088,2.61904412 C9.58477941,2.84735294 9.56338235,3.16102941 9.35658088,3.36772059 L7.25735294,5.46727941 C7.05060762,5.67401101 6.71542179,5.67401101 6.50867647,5.46727941 L5.13584559,4.09455882 L3.37433824,5.85661765 C3.16711245,6.06049542 2.83425654,6.05914007 2.62869794,5.85358147 C2.42313934,5.64802287 2.42178399,5.31516696 2.62566176,5.10794118 L4.76922794,2.96371324 C4.86851538,2.86440312 5.00319165,2.80860939 5.14362132,2.80860939 C5.28405099,2.80860939 5.41872727,2.86440312 5.51801471,2.96371324 L6.88235294,4.34415441 L8.60790441,2.61904412 C8.81470588,2.41224265 9.12838235,2.39073529 9.35658088,2.61904412 Z"></path></clipPath></defs><g transform="translate(6.0 7.0)"><g clip-path="url(#i0)"><polygon points="0,0 12,0 12,9.88235294 0,9.88235294 0,0" stroke="none" fill="#151515"></polygon></g></g></svg>