<?xml version="1.0" encoding="UTF-8"?>
<svg width="24px" height="24px" viewBox="0 0 24 24" version="1.1" xmlns="http://www.w3.org/2000/svg" xmlns:xlink="http://www.w3.org/1999/xlink">
    <title></title>
    <g id="Icons" stroke="none" stroke-width="1" fill="none" fill-rule="evenodd">
        <g id="Icons/2.-Size-sm/Object/pficon-blueprint" fill="#151515">
            <path d="M6,14.9917969 L6,13.5 L6.75,13.5 L6.75,14.8160156 C6.75,14.9130969 6.82869995,14.9917969 6.92578125,14.9917969 L7.5,15.0011719 L7.5,15.7511719 L6.75,15.7417969 C6.33594711,15.7414092 6.00038763,15.4058498 6,14.9917969 Z M6.75,6 L8.24179688,6 L8.24179688,6.75 L6.92578125,6.75 C6.82869995,6.75 6.75,6.82869995 6.75,6.92578125 L6.75,8.25 L6,8.25 L6,6.75 C6.00038763,6.33594711 6.33594711,6.00038763 6.75,6 Z M6,10.5 L6.75,10.5 L6.75,9 L6,9 L6,10.5 Z M6,12.75 L6.75,12.75 L6.75,11.25 L6,11.25 L6,12.75 Z M15.75,6.75820312 L15.75,7.5 L15,7.5 L15,6.93398437 C15,6.83690307 14.9213001,6.75820312 14.8242188,6.75820312 L13.5,6.75820312 L13.5,6.00820312 L15,6.00820312 C15.4140529,6.00859075 15.7496124,6.34415023 15.75,6.75820312 Z M11.25,6.75820312 L12.75,6.75820312 L12.75,6.00820312 L11.25,6.00820312 L11.25,6.75820312 Z M9,6.75820312 L10.5,6.75820312 L10.5,6.00820312 L9,6.00820312 L9,6.75820312 Z M17.25,8.25 L9,8.25 C8.5859471,8.25038763 8.25038763,8.5859471 8.25,9 L8.25,17.25 C8.25038763,17.6640529 8.5859471,17.9996123 9,18 L17.25,18 C17.6640529,17.9996123 17.9996123,17.6640529 18,17.25 L18,9 C17.9996123,8.5859471 17.6640529,8.25038763 17.25,8.25 Z M17.25,17.0742188 C17.25,17.1713001 17.1713001,17.25 17.0742188,17.25 L9.17578125,17.25 C9.07869995,17.25 9,17.1713001 9,17.0742188 L9,9.17578125 C9,9.07869995 9.07869995,9 9.17578125,9 L17.0742188,9 C17.1713001,9 17.25,9.07869995 17.25,9.17578125 L17.25,17.0742188 Z" id="pficon-blueprint"></path>
        </g>
    </g>
</svg>