<?xml version="1.0" encoding="UTF-8"?><svg version="1.1" width="24px" height="24px" viewBox="0 0 24.0 24.0" xmlns="http://www.w3.org/2000/svg" xmlns:xlink="http://www.w3.org/1999/xlink"><defs><clipPath id="i0"><path d="M11.2941176,0.705882353 C12,0.705882353 12,1.44264706 12,1.44264706 L12,9.88235294 C12,10.5882353 10.8716912,10.5650735 10.8716912,10.5650735 C9.51948529,8.52242647 6.35294118,10.5882353 6.35294118,10.5882353 L6.35294118,9.85367647 C9.51838235,7.68419118 11.2941176,9.88235294 11.2941176,9.88235294 Z M0.705882353,0.705882353 L0.705882353,9.88235294 C0.705882353,9.88125 2.49264706,7.68419118 5.64705882,9.85367647 L5.64705882,10.5882353 C5.64705882,10.5882353 2.51360294,8.53455882 1.13051471,10.5650735 C1.13051471,10.5650735 0,10.5882353 0,9.88235294 L0.000209150327,1.43326013 C0.0031372549,1.34768627 0.0470588235,0.705882353 0.705882353,0.705882353 Z M1.41176471,0 C2.34816176,0 4.41838235,0.620955882 5.64595588,1.41176471 L5.64595588,2.27757353 L5.55772059,2.27757353 C5.49154412,2.27757353 5.43529412,2.32389706 5.41654412,2.39007353 C5.35588235,2.62058824 5.38566176,3.13125 5.3625,3.36838235 C5.23566176,3.41029412 5.24779412,3.42022059 5.12757353,3.48088235 L4.40073529,2.84338235 C4.37205882,2.82463235 4.33897059,2.81029412 4.30147059,2.81029412 C4.16470588,2.81029412 3.63529412,3.38272059 3.54154412,3.50955882 C3.51838235,3.53713235 3.50845588,3.57022059 3.50845588,3.60330882 C3.50845588,3.63639706 3.52279412,3.66838235 3.54154412,3.69705882 C3.69264706,3.87573529 4.02022059,4.18125 4.15147059,4.36985294 C4.09080882,4.48786765 4.09963235,4.54191176 4.06213235,4.66654412 L3.08382353,4.71397059 C3.02316176,4.72389706 2.97573529,4.79448529 2.97573529,4.85514706 L2.97573529,5.72536765 C2.97573529,5.79154412 3.02205882,5.85220588 3.08823529,5.86213235 L4.07647059,5.92610294 C4.11948529,6.05735294 4.10955882,6.01544118 4.17573529,6.14448529 C4.03897059,6.32867647 3.69375,6.72132353 3.55698529,6.9 C3.53823529,6.92867647 3.52389706,6.95625 3.52389706,6.98933824 C3.52389706,7.12610294 4.08198529,7.63235294 4.20441176,7.74485294 C4.23308824,7.76801471 4.26617647,7.78235294 4.30367647,7.78235294 C4.33676471,7.78235294 4.37426471,7.77242647 4.39742647,7.74926471 L5.09448529,7.09963235 C5.20698529,7.15588235 5.21691176,7.15147059 5.34154412,7.18897059 L5.41875,8.19595588 C5.42867647,8.26213235 5.49375,8.31397059 5.55992647,8.31397059 L5.64705882,8.31286765 L5.64705882,9.17647059 C3.88235294,8.03492647 2.08786765,8.28529412 1.41176471,8.47058824 Z M10.5871324,0 L10.5871324,8.47058824 C9.91213235,8.28419118 8.13860294,8.03492647 6.35183824,9.17647059 L6.35183824,8.31286765 L6.44007353,8.31286765 C6.50625,8.31286765 6.57132353,8.26102941 6.58125,8.19485294 L6.65845588,7.18786765 C6.78308824,7.15036765 6.79301471,7.15477941 6.90551471,7.09852941 L7.60147059,7.74816176 C7.62463235,7.77132353 7.66213235,7.78125 7.69522059,7.78125 C7.73272059,7.78125 7.76580882,7.76691176 7.79448529,7.74375 C7.91691176,7.63125 8.475,7.125 8.475,6.98823529 C8.475,6.95514706 8.46066176,6.92757353 8.44191176,6.89889706 C8.30514706,6.72022059 7.95992647,6.32757353 7.82316176,6.14338235 C7.88933824,6.01433824 7.87941176,6.05625 7.92242647,5.925 L8.91066176,5.86102941 C8.97683824,5.85110294 9.02316176,5.79044118 9.02316176,5.72426471 L9.02316176,4.85404412 C9.02316176,4.79338235 8.97573529,4.72279412 8.91507353,4.71286765 L7.93676471,4.66544118 C7.89926471,4.54080882 7.90808824,4.48676471 7.84742647,4.36875 C7.97867647,4.18014706 8.30625,3.87463235 8.45735294,3.69595588 C8.47610294,3.66727941 8.49044118,3.63529412 8.49044118,3.60220588 C8.49044118,3.56911765 8.48051471,3.53602941 8.45735294,3.50845588 C8.36360294,3.38161765 7.83419118,2.80919118 7.69742647,2.80919118 C7.65992647,2.80919118 7.62683824,2.82352941 7.59816176,2.84227941 L6.87132353,3.47757353 C6.75110294,3.41691176 6.76323529,3.40698529 6.63639706,3.36507353 C6.61323529,3.12794118 6.64301471,2.61727941 6.58235294,2.38676471 C6.56360294,2.32058824 6.50735294,2.27426471 6.44117647,2.27426471 L6.35183824,2.27536765 L6.35183824,1.41176471 C7.57941176,0.624264706 9.64522059,0 10.5871324,0 Z M6,4.09411765 C6.66286765,4.09411765 7.2,4.63125 7.2,5.29411765 C7.2,5.95698529 6.66286765,6.49411765 6,6.49411765 C5.33713235,6.49411765 4.8,5.95698529 4.8,5.29411765 C4.8,4.63125 5.33713235,4.09411765 6,4.09411765 Z"></path></clipPath></defs><g transform="translate(6.0 7.000000000000001)"><g clip-path="url(#i0)"><polygon points="0,0 12,0 12,10.5882353 0,10.5882353 0,0" stroke="none" fill="#151515"></polygon></g></g></svg>