<?xml version="1.0" encoding="UTF-8"?><svg version="1.1" width="24px" height="24px" viewBox="0 0 24.0 24.0" xmlns="http://www.w3.org/2000/svg" xmlns:xlink="http://www.w3.org/1999/xlink"><defs><clipPath id="i0"><path d="M6.00117188,0 C9.309375,0 12,2.69179687 12,6 C12,9.30820312 9.309375,12 6.00117188,12 C2.69296875,12 0,9.30820312 0,6 C0,2.69296875 2.69179687,0 6.00117188,0 Z M6,0.75 C3.10429687,0.75 0.75,3.10546875 0.75,6 C0.75,8.896875 3.10429687,11.25 6,11.25 C8.89453125,11.25 11.25,8.89570312 11.25,6 C11.25,3.10429687 8.89453125,0.75 6,0.75 Z M7.875,6.375 C8.70351563,6.375 9.375,7.04648437 9.375,7.875 C9.375,8.70351563 8.70351563,9.375 7.875,9.375 C7.04648437,9.375 6.375,8.70351563 6.375,7.875 C6.375,7.04648437 7.04648437,6.375 7.875,6.375 Z M4.125,6.375 C4.95351562,6.375 5.625,7.04648437 5.625,7.875 C5.625,8.70351563 4.95351562,9.375 4.125,9.375 C3.29648438,9.375 2.625,8.70351563 2.625,7.875 C2.625,7.04648437 3.29648438,6.375 4.125,6.375 Z M7.875,6.9375 C7.35820312,6.9375 6.9375,7.35820312 6.9375,7.875 C6.9375,8.39179688 7.35820312,8.8125 7.875,8.8125 C8.39179688,8.8125 8.8125,8.39179688 8.8125,7.875 C8.8125,7.35820312 8.39179688,6.9375 7.875,6.9375 Z M4.125,6.9375 C3.60820312,6.9375 3.1875,7.35820312 3.1875,7.875 C3.1875,8.39179688 3.60820312,8.8125 4.125,8.8125 C4.64179688,8.8125 5.0625,8.39179688 5.0625,7.875 C5.0625,7.35820312 4.64179688,6.9375 4.125,6.9375 Z M7.875,2.625 C8.70351563,2.625 9.375,3.29648438 9.375,4.125 C9.375,4.95351562 8.70351563,5.625 7.875,5.625 C7.04648437,5.625 6.375,4.95351562 6.375,4.125 C6.375,3.29648438 7.04648437,2.625 7.875,2.625 Z M4.125,2.625 C4.95351562,2.625 5.625,3.29648438 5.625,4.125 C5.625,4.95351562 4.95351562,5.625 4.125,5.625 C3.29648438,5.625 2.625,4.95351562 2.625,4.125 C2.625,3.29648438 3.29648438,2.625 4.125,2.625 Z M7.875,3.1875 C7.35820312,3.1875 6.9375,3.60820312 6.9375,4.125 C6.9375,4.64179688 7.35820312,5.0625 7.875,5.0625 C8.39179688,5.0625 8.8125,4.64179688 8.8125,4.125 C8.8125,3.60820312 8.39179688,3.1875 7.875,3.1875 Z"></path></clipPath></defs><g transform="translate(6.0 6.0)"><g clip-path="url(#i0)"><polygon points="0,0 12,0 12,12 0,12 0,0" stroke="none" fill="#151515"></polygon></g></g></svg>