<?xml version="1.0" encoding="UTF-8"?><svg version="1.1" width="24px" height="24px" viewBox="0 0 24.0 24.0" xmlns="http://www.w3.org/2000/svg" xmlns:xlink="http://www.w3.org/1999/xlink"><defs><clipPath id="i0"><path d="M10.5,0 C11.3285156,0 12,0.671484375 12,1.5 L12,6.75 C12,7.57851563 11.3285156,8.25 10.5,8.25 L8.25,8.25 L8.25,10.5 C8.25,11.3285156 7.57851563,12 6.75,12 L1.5,12 C0.671484375,12 0,11.3285156 0,10.5 L0,5.25 C0,4.42148438 0.671484375,3.75 1.5,3.75 L3.75,3.75 L3.75,1.5 C3.75,0.671484375 4.42148438,0 5.25,0 Z M10.5,1.5 L5.25,1.5 L5.25,5.25 L1.5,5.25 L1.5,10.5 L6.75,10.5 L6.75,6.75 L10.5,6.75 L10.5,1.5 Z M9.375,2.25 C9.58242188,2.25 9.75,2.41757813 9.75,2.625 L9.75,5.625 C9.75,5.83242187 9.58242188,6 9.375,6 L6.5625,6 C6.25195312,6 6,6.25195312 6,6.5625 L6,9.375 C6,9.58242188 5.83242187,9.75 5.625,9.75 L2.625,9.75 C2.41757813,9.75 2.25,9.58242188 2.25,9.375 L2.25,6.375 C2.25,6.16757812 2.41757813,6 2.625,6 L5.4375,6 C5.74804688,6 6,5.74804688 6,5.4375 L6,2.625 C6,2.41757813 6.16757812,2.25 6.375,2.25 L9.375,2.25 Z"></path></clipPath></defs><g transform="translate(6.0 6.0)"><g clip-path="url(#i0)"><polygon points="0,0 12,0 12,12 0,12 0,0" stroke="none" fill="#151515"></polygon></g></g></svg>