<?xml version="1.0" encoding="UTF-8"?><svg version="1.1" width="24px" height="24px" viewBox="0 0 24.0 24.0" xmlns="http://www.w3.org/2000/svg" xmlns:xlink="http://www.w3.org/1999/xlink"><defs><clipPath id="i0"><path d="M9.21096366,0.901174434 C9.30822956,0.901174434 9.39377668,0.945705811 9.45119872,1.01484663 C9.5332302,1.07109679 9.6304961,1.15547203 9.74651206,1.28320677 C9.87541867,1.42617593 10.0031534,1.5679732 10.1273725,1.71680175 C10.777765,2.49024145 11.2219069,3.52149438 11.2148756,4.81641993 C11.21136,5.49493748 11.307454,6.20392387 10.7203429,7.10158267 C10.709796,7.11564521 10.700421,7.12970775 10.6898741,7.14377029 L7.42502109,11.5793298 C7.42502109,11.5793298 7.18712979,12 6.71251906,11.9976903 C6.71251906,11.9976903 6.29884601,12.0457373 6.05157969,11.7035489 C6.10782985,11.6332362 6.13947056,11.5781579 6.13947056,11.5781579 L9.59182412,6.97384793 C9.60237102,6.95978539 9.61291793,6.94572285 9.62229295,6.93166031 C10.1390913,6.19454884 10.3019824,5.50196875 10.3019824,4.53399725 C10.3019824,3.67852607 10.0722942,2.88985196 9.64455864,2.21016253 C9.49080821,1.99828693 9.27255759,1.74666121 9.19140735,1.65448595 L9.15940101,1.61836397 C9.12307279,1.58672326 9.08322892,1.54805127 9.04572882,1.50586365 C9.02229125,1.47891045 8.99885368,1.44961349 8.98010363,1.41914466 C8.93088474,1.36406637 8.9004159,1.29140992 8.9004159,1.21172219 C8.9004159,1.04062796 9.03986942,0.901174434 9.21096366,0.901174434 Z M4.72266966,0 C7.2187705,0 9.44416745,2.02969326 9.44416745,4.53516913 C9.44416745,5.50314063 9.14065096,6.39962755 8.62385262,7.13673902 C8.61330571,7.15080156 8.60393069,7.1648641 8.59338378,7.17658288 L5.28165563,11.576986 C5.28165563,11.576986 5.03790493,11.9953466 4.72970093,11.9953466 C4.72970093,11.9953466 4.45313765,12.0539405 4.17657436,11.5793298 L0.850783666,7.17658288 C0.84140864,7.1648641 0.833205491,7.15314532 0.825002343,7.14142653 C0.303516487,6.39962755 0,5.50196875 0,4.53399725 C0,2.02969326 2.21836568,0 4.72266966,0 Z M3.74649502,2.25000639 L2.99649289,2.25000639 L2.99649289,7.5000213 L3.74649502,7.5000213 L3.74649502,2.25000639 Z M6.21095514,2.25000639 L4.49649715,2.25000639 L4.49649715,7.5000213 L5.24649928,7.5000213 L5.24649928,5.25000639 L6.21095514,5.25235867 C7.15431719,5.25235867 7.87150673,4.69454458 7.87150673,3.75000639 C7.87150673,2.80547672 7.15548907,2.25000639 6.21095514,2.25000639 Z M6.10314233,3.00000852 C6.57423742,3.00000852 6.95744164,3.3363376 6.95744164,3.75001065 C6.95744164,4.1636837 6.57423742,4.50000852 6.10314233,4.50000852 L5.24649928,4.50000852 L5.24649928,3.00000852 L6.10314233,3.00000852 Z"></path></clipPath></defs><g transform="translate(5.999999999999999 6.0)"><g clip-path="url(#i0)"><polygon points="0,0 11.2187407,0 11.2187407,12 0,12 0,0" stroke="none" fill="#151515"></polygon></g></g></svg>