<?xml version="1.0" encoding="UTF-8"?><svg version="1.1" width="24px" height="24px" viewBox="0 0 24.0 24.0" xmlns="http://www.w3.org/2000/svg" xmlns:xlink="http://www.w3.org/1999/xlink"><defs><clipPath id="i0"><path d="M6.00117188,0 L12,1.28554688 L12,10.2855469 L7.71445312,12 L6.85664063,12 L0,10.3394531 L0,1.28554688 L5.14335937,0 L6.00117188,0 Z M11.25,2.38007812 L7.5,3.83203125 L7.5,11.1621094 L8.25,10.8574219 L8.25,9.83671875 L10.4988281,8.94726562 L10.4988281,9.95742187 L11.25,9.65859375 L11.25,2.38007812 Z M0.8578125,2.35429688 L0.8578125,9.66914063 L1.5046875,9.81796875 L1.5046875,8.51601563 L5.9953125,9.60234375 L5.9953125,10.8867188 L6.75,11.0660156 L6.75,3.66328125 L0.8578125,2.35429688 Z M10.5011719,6.37734375 L10.5011719,8.09179688 L8.25,8.98007812 L8.25,7.265625 L10.5011719,6.37734375 Z M1.5046875,5.94492188 L5.9953125,7.00429688 L5.9953125,8.7328125 L1.5046875,7.659375 L1.5046875,5.94492188 Z M10.5,3.80625 L10.5,5.51953125 L8.25,6.4078125 L8.25,4.69335938 L10.5,3.80625 Z M1.5046875,3.40898438 L5.9953125,4.41445313 L5.9953125,6.1546875 L1.5046875,5.08828125 L1.5046875,3.40898438 Z"></path></clipPath></defs><g transform="translate(6.0 6.0)"><g clip-path="url(#i0)"><polygon points="0,0 12,0 12,12 0,12 0,0" stroke="none" fill="#151515"></polygon></g></g></svg>