<?xml version="1.0" encoding="UTF-8"?><svg version="1.1" width="24px" height="24px" viewBox="0 0 24.0 24.0" xmlns="http://www.w3.org/2000/svg" xmlns:xlink="http://www.w3.org/1999/xlink"><defs><clipPath id="i0"><path d="M6.00117188,0 C9.24140625,0 11.8898438,2.5828125 11.9964844,5.79726562 C12,5.90273437 11.9144531,5.990625 11.8089844,5.990625 L10.6828125,5.990625 C10.5832031,5.990625 10.5,5.91210938 10.4953125,5.81132812 C10.396875,3.4171875 8.41757812,1.5 6,1.5 C4.75898438,1.5 3.63398438,2.00507812 2.81953125,2.81953125 L3.56601563,3.56601563 L3.90703125,3.225 C3.95976562,3.17226562 4.05351562,3.16054687 4.11445313,3.20625 L4.865625,3.85078125 C4.99570313,3.7828125 5.1328125,3.72539062 5.27578125,3.68203125 L5.33085937,2.6859375 C5.35195312,2.6109375 5.41640625,2.55703125 5.49140625,2.55703125 L6.49101562,2.55703125 C6.56601562,2.55703125 6.64101563,2.615625 6.6515625,2.690625 L6.7171875,3.68554688 C6.85546875,3.72890625 6.9890625,3.78398437 7.11679687,3.85078125 L7.86328125,3.1828125 C7.93125,3.14414063 8.015625,3.15234375 8.06835938,3.20507812 L8.775,3.91171875 C8.82773437,3.96445313 8.83945312,4.05820313 8.79375,4.11914062 L8.14101563,4.86445313 C8.20898438,4.99335938 8.26757812,5.12929687 8.31210937,5.26992187 L9.30234375,5.325 C9.37734375,5.34609375 9.43125,5.41054687 9.43242187,5.48671875 L9.43242187,6.48632812 C9.43242187,6.56132812 9.37382812,6.63632812 9.29882812,6.646875 L8.32617188,6.71132813 C8.28164063,6.8578125 8.22421875,6.99960937 8.15507812,7.13320313 L8.484375,7.50117188 L11.90625,7.50117188 C11.9578125,7.5 12,7.5421875 12,7.59375 L12,11.7738281 C12,11.8570312 11.8992187,11.8992187 11.8394531,11.840625 L10.2410156,10.2410156 C9.1546875,11.3273438 7.6546875,12 6.00117188,12 C2.75742188,12 0.10546875,9.4125 0.003515625,6.19335938 C0,6.08789062 0.085546875,6 0.191015625,6 L1.3171875,6 C1.41796875,6 1.5,6.07851563 1.5046875,6.17929687 C1.5984375,8.57929688 3.57890625,10.5 6.00117188,10.5 C7.2421875,10.5 8.3671875,9.99492187 9.1828125,9.18046875 L8.42460937,8.42226563 L8.07539063,8.77148438 C8.02265625,8.82421875 7.92890625,8.8359375 7.86796875,8.79023438 L7.14726562,8.15859375 C7.01015625,8.23242188 6.86601562,8.29335938 6.71601563,8.34023438 L6.67851562,9.29882812 C6.65742188,9.37382812 6.59296875,9.42773438 6.51796875,9.42773438 L5.51835937,9.42773438 C5.44335938,9.42773438 5.36835938,9.36914062 5.3578125,9.29414063 L5.28515625,8.34726562 C5.13164062,8.30039062 4.9828125,8.23945313 4.84335938,8.16445313 L4.14140625,8.8125 C4.0734375,8.85117187 3.9890625,8.84296875 3.93632812,8.79023438 L3.2296875,8.08359375 C3.17695313,8.03085937 3.16523438,7.93710937 3.2109375,7.87617188 L3.834375,7.14960938 C3.76171875,7.01132812 3.70195312,6.86601562 3.65625,6.71367187 L2.69179687,6.675 C2.61679688,6.65390625 2.56289062,6.58945312 2.56289062,6.51445312 L2.56289062,5.51484375 C2.56289062,5.43984375 2.62148437,5.36484375 2.69648437,5.35429687 L3.66679687,5.27929688 C3.71367187,5.1328125 3.7734375,4.9921875 3.84492188,4.85859375 L3.51445312,4.50117188 L0.09375,4.50117188 C0.0421875,4.50117188 0,4.45898438 0,4.40742188 L0,0.226171875 C0,0.14296875 0.10078125,0.10078125 0.160546875,0.159375 L1.76015625,1.75898437 C2.84648438,0.673828125 4.34648437,0 6.00117188,0 Z M5.98945313,4.51054687 C5.1609375,4.51054687 4.48945313,5.18203125 4.48945313,6.01054687 C4.48945313,6.8390625 5.1609375,7.51054687 5.98945313,7.51054687 C6.81796875,7.51054687 7.48945313,6.8390625 7.48945313,6.01054687 C7.48945313,5.18203125 6.81796875,4.51054687 5.98945313,4.51054687 Z"></path></clipPath></defs><g transform="translate(6.0 6.0)"><g clip-path="url(#i0)"><polygon points="0,0 12,0 12,12 0,12 0,0" stroke="none" fill="#151515"></polygon></g></g></svg>