<?xml version="1.0" encoding="UTF-8"?><svg version="1.1" width="24px" height="24px" viewBox="0 0 24.0 24.0" xmlns="http://www.w3.org/2000/svg" xmlns:xlink="http://www.w3.org/1999/xlink"><defs><clipPath id="i0"><path d="M9.88235294,0 C10.2720498,0.00036482799 10.5878705,0.316185511 10.5882353,0.705882353 L10.5882353,10.5882353 C10.5878705,10.9779321 10.2720498,11.2937528 9.88235294,11.2941176 L2.11764706,11.2941176 C1.72795021,11.2937528 1.41212954,10.9779321 1.41176471,10.5882353 L1.41176471,0.705882353 C1.41212954,0.316185511 1.72795021,0.00036482799 2.11764706,0 Z M12,1.41176471 L12,9.88235294 C11.6103032,9.88198811 11.2944825,9.56616743 11.2941176,9.17647059 L11.2941176,2.11764706 C11.2944521,1.76042495 11.5598571,1.46527935 11.9042547,1.41828811 L12,1.41176471 Z M5.64705882,6.35294118 L4.94117647,6.35294118 L4.94117647,7.05882353 L4.23529412,7.05882353 L4.23529412,7.76470588 L4.94117647,7.76470588 L4.94117647,8.47058824 L4.23529412,8.47058824 L4.23529412,9.17647059 L4.94117647,9.17647059 L4.94117647,9.88235294 L5.64705882,9.88235294 L5.64705882,9.17647059 L6.35294118,9.17647059 L6.35294118,9.88235294 L7.05882353,9.88235294 L7.05882353,9.17647059 L7.76470588,9.17647059 L7.76470588,8.47058824 L7.05882353,8.47058824 L7.05882353,7.76470588 L7.76470588,7.76470588 L7.76470588,7.05882353 L7.05882353,7.05882353 L7.05882353,6.35294118 L6.35294118,6.35294118 L6.35294118,7.05882353 L5.64705882,7.05882353 L5.64705882,6.35294118 Z M0,1.41176471 C0.389696842,1.41212954 0.705517525,1.72795021 0.705882353,2.11764706 L0.705882353,9.17647059 C0.705517525,9.56616743 0.389696842,9.88198811 0,9.88235294 L0,1.41176471 Z M6.34191176,7.76470588 L6.3523004,7.77140187 L6.35294118,8.45955882 C6.34781449,8.46968692 6.34489305,8.47078546 6.34191176,8.47058824 L5.65808824,8.47058824 L5.6476996,8.46389225 L5.64705882,7.77573529 C5.65218551,7.76560719 5.65510695,7.76450865 5.65808824,7.76470588 L6.34191176,7.76470588 Z M9,1.41176471 L3,1.41176471 C2.90253799,1.41176471 2.82352941,1.49077328 2.82352941,1.58823529 L2.82352941,3.34191176 C2.82352941,3.43937378 2.90253799,3.51838235 3,3.51838235 L3.52941176,3.51838235 L3.52941176,5.47058824 C3.52941176,5.56805025 3.60842034,5.64705882 3.70588235,5.64705882 L8.29411765,5.64705882 C8.39157966,5.64705882 8.47058824,5.56805025 8.47058824,5.47058824 L8.47058824,3.51838235 L9,3.51838235 C9.09746201,3.51838235 9.17647059,3.43937378 9.17647059,3.34191176 L9.17647059,1.58823529 C9.17647059,1.49077328 9.09746201,1.41176471 9,1.41176471 Z M4.94117647,3.52941176 L4.94117647,4.94117647 L4.23529412,4.94117647 L4.23529412,3.52941176 L4.94117647,3.52941176 Z M7.76470588,3.52941176 L7.76470588,4.94117647 L7.05882353,4.94117647 L7.05882353,3.52941176 L7.76470588,3.52941176 Z M6.35294118,3.52941176 L6.35294118,4.94117647 L5.64705882,4.94117647 L5.64705882,3.52941176 L6.35294118,3.52941176 Z"></path></clipPath></defs><g transform="translate(6.0 5.999999999999999)"><g clip-path="url(#i0)"><polygon points="0,0 12,0 12,11.2941176 0,11.2941176 0,0" stroke="none" fill="#151515"></polygon></g></g></svg>