<?xml version="1.0" encoding="UTF-8"?><svg version="1.1" width="24px" height="24px" viewBox="0 0 24.0 24.0" xmlns="http://www.w3.org/2000/svg" xmlns:xlink="http://www.w3.org/1999/xlink"><defs><clipPath id="i0"><path d="M8.46617647,0 C8.86213235,0 9.18198529,0.275735294 9.18198529,0.616544118 C9.18198529,0.817279412 9.07058824,0.973897059 8.89742647,1.16029412 C8.75073529,1.31911765 8.89411765,1.41176471 9.25147059,1.41176471 L10.0665441,1.41176471 C10.2055077,1.41167313 10.3387576,1.46706246 10.4367087,1.56563473 C10.5346597,1.66420701 10.5892055,1.79780444 10.5882353,1.93676471 L10.5882353,3.1125 C10.5882353,3.37720588 10.7481618,3.68272059 10.8694853,3.51176471 C10.9908088,3.34080882 11.1628676,3.16213235 11.3867647,3.16213235 C11.7253676,3.16213235 12,3.48088235 12,3.87573529 C12,4.27058824 11.7253676,4.59044118 11.3867647,4.59044118 C11.1551471,4.59044118 10.9742647,4.41617647 10.8584559,4.22095588 C10.7426471,4.02573529 10.5882353,4.36102941 10.5882353,4.62022059 L10.5882353,6.50845588 C10.5882353,6.79852941 10.3974265,7.05551471 10.1073529,7.05551471 L9.24154412,7.05551471 C8.86764706,7.05551471 8.67794118,7.16911765 8.90514706,7.35 C9.13235294,7.53088235 9.18198529,7.67095588 9.18198529,7.86507353 C9.18198529,8.19926471 8.86213235,8.47058824 8.46617647,8.47058824 C8.07022059,8.47058824 7.75036765,8.20036765 7.75036765,7.86507353 C7.75036765,7.65551471 7.89816176,7.50772059 8.06911765,7.31911765 C8.24007353,7.13051471 8.08235294,7.05882353 7.72058824,7.05882353 L6.81617647,7.05882353 C6.525,7.05882353 6.35294118,6.81397059 6.35294118,6.52389706 L6.35294118,5.33272059 C6.42683824,5.34375 6.44558824,5.35036765 6.51397059,5.35036765 C7.20992647,5.35036765 7.77352941,4.71176471 7.77352941,3.92316176 C7.77352941,3.13455882 7.20882353,2.49595588 6.51397059,2.49595588 C6.44558824,2.49595588 6.42683824,2.50257353 6.35294118,2.51360294 L6.35294118,1.93786765 C6.36073367,1.6441453 6.60176543,1.41046207 6.89558824,1.41176471 L7.70955882,1.41176471 C8.02830882,1.41176471 8.19705882,1.31360294 8.02058824,1.14375 C7.83860294,0.968382353 7.75036765,0.840441176 7.75036765,0.616544118 C7.75036765,0.275735294 8.07022059,0 8.46617647,0 Z M3.31770856,6.34653053 C2.75383028,6.3979423 2.49705882,6.67263655 2.49705882,7.22977941 C2.49705882,7.40404412 2.53566176,7.60036765 2.62279412,7.76470588 L2.00073529,7.76470588 C1.69963235,7.75477941 1.41176471,7.49117647 1.41176471,7.20110294 L1.41176471,4.63014706 C1.41176471,4.38308824 1.27720588,4.02904412 1.14926471,4.23308824 C1.02132353,4.43713235 0.845955882,4.59044118 0.614338235,4.59044118 C0.268014706,4.59044118 0,4.26948529 0,3.87573529 C0,3.48198529 0.268014706,3.16213235 0.612132353,3.16102941 C0.832720588,3.16102941 0.941911765,3.33308824 1.12941176,3.49080882 C1.31691176,3.64852941 1.41176471,3.34852941 1.41176471,3.09154412 L1.41176471,2.62830882 C1.41176471,2.33823529 1.65551471,2.11764706 1.94669118,2.11764706 L2.69227941,2.11764706 C3.09816176,2.11764706 3.15661765,2.03272059 2.98786765,1.79889706 C2.81911765,1.56507353 2.74742647,1.44154412 2.74742647,1.27610294 C2.74742647,0.948529412 3.06727941,0.683823529 3.46323529,0.683823529 C3.85919118,0.683823529 4.17904412,0.948529412 4.17904412,1.27610294 C4.17904412,1.46911765 4.08529412,1.60698529 3.89227941,1.83088235 C3.71470588,2.06139706 3.81507353,2.11764706 4.20330882,2.11764706 L5.11544118,2.11764706 C5.40551471,2.11764706 5.64705882,2.34816176 5.64705882,2.63823529 L5.64705882,3.10147059 C5.64705882,3.38602941 5.87095588,3.71911765 5.99448529,3.49963235 C6.11801471,3.28014706 6.29227941,3.16102941 6.51066176,3.16102941 C6.84705882,3.16102941 7.11838235,3.48088235 7.11838235,3.87573529 C7.11838235,4.27058824 6.84705882,4.59044118 6.51066176,4.59044118 C6.28235294,4.59044118 6.08382353,4.44154412 5.98014706,4.22205882 C5.87647059,4.00257353 5.64705882,4.34007353 5.64705882,4.62022059 L5.64705882,7.21102941 C5.64705882,7.50110294 5.39779412,7.76470588 5.10661765,7.76470588 L4.19669118,7.76470588 C4.27677869,7.5975826 4.319676,7.4150809 4.32242647,7.22977941 C4.32242647,6.61102941 3.92426471,6.32757353 3.44117647,6.33860294 L3.45,6.338 Z"></path></clipPath></defs><g transform="translate(6.0 8.0)"><g clip-path="url(#i0)"><polygon points="0,0 12,0 12,8.47058824 0,8.47058824 0,0" stroke="none" fill="#151515"></polygon></g></g></svg>