<?xml version="1.0" encoding="UTF-8"?><svg version="1.1" width="24px" height="24px" viewBox="0 0 24.0 24.0" xmlns="http://www.w3.org/2000/svg" xmlns:xlink="http://www.w3.org/1999/xlink"><defs><clipPath id="i0"><path d="M5.33029613,0 C5.69476082,0 6.04403948,0.0455580866 6.37813212,0.13667426 C6.71222475,0.227790433 7.03113136,0.361427487 7.33485194,0.537585421 C7.64464692,0.719817768 7.92103265,0.930903569 8.16400911,1.17084282 C8.40698557,1.41078208 8.61655277,1.6856492 8.79271071,1.99544419 L8.80182232,2.00455581 L9.99544419,2.00455581 L9.99544419,0.665148064 L12,2.34168565 L9.99544419,4.00911162 L9.99544419,2.66970387 L9.11161731,2.66970387 C9.18451025,2.88230828 9.23917995,3.09946849 9.27562642,3.32118451 C9.31207289,3.54290053 9.33029613,3.76917236 9.33029613,4 C9.33029613,4.36446469 9.28625664,4.71374336 9.19817768,5.04783599 C9.11009871,5.38192863 8.97494305,5.70083523 8.79271071,6.00455581 C8.61655277,6.3143508 8.40698557,6.59073652 8.16400911,6.83371298 C7.92103265,7.07668945 7.64768413,7.28625664 7.34396355,7.46241458 C7.03416856,7.64464692 6.71222475,7.77980258 6.37813212,7.86788155 C6.04403948,7.95596052 5.69476082,8 5.33029613,8 C4.97190585,8 4.62414579,7.95596052 4.28701595,7.86788155 C3.9498861,7.77980258 3.6294609,7.64464692 3.32574032,7.46241458 C3.02201974,7.28625664 2.74867122,7.07668945 2.50569476,6.83371298 C2.2627183,6.59073652 2.0501139,6.3143508 1.86788155,6.00455581 C1.80713743,5.8952164 1.74943052,5.78435839 1.69476082,5.67198178 C1.64009112,5.55960516 1.59453303,5.44570995 1.55808656,5.33029613 L0,5.33029613 L0,4.66514806 L1.38496583,4.66514806 C1.3667426,4.55580866 1.35307517,4.44646925 1.34396355,4.33712984 C1.33485194,4.22779043 1.33029613,4.11541382 1.33029613,4 C1.33029613,3.63553531 1.37585421,3.28625664 1.46697039,2.95216401 C1.55808656,2.61807137 1.69172361,2.29916477 1.86788155,1.99544419 C2.0501139,1.69172361 2.2611997,1.41837509 2.50113895,1.17539863 C2.74107821,0.932422172 3.01594533,0.719817768 3.32574032,0.537585421 C3.6294609,0.361427487 3.9483675,0.227790433 4.28246014,0.13667426 C4.61655277,0.0455580866 4.96583144,0 5.33029613,0 Z M5.34851936,0.874715262 C5.13591496,0.874715262 4.92786636,0.895975702 4.72437358,0.938496583 C4.52088079,0.981017464 4.32194381,1.04479879 4.12756264,1.12984055 C3.93318147,1.2088079 3.75246773,1.30447988 3.58542141,1.41685649 C3.41837509,1.52923311 3.2649962,1.65527715 3.12528474,1.79498861 C2.98557327,1.93470008 2.86104784,2.08807897 2.75170843,2.25512528 C2.64236902,2.4221716 2.54517844,2.60288535 2.46013667,2.79726651 C2.37509491,2.99164768 2.31283219,3.18906606 2.27334852,3.38952164 C2.23386484,3.58997722 2.21412301,3.79650721 2.21412301,4.00911162 C2.21412301,4.12452544 2.21867882,4.23538345 2.22779043,4.34168565 C2.23690205,4.44798785 2.25360668,4.55580866 2.27790433,4.66514806 L5.33029613,4.66514806 L5.33029613,3.32574032 L7.32574032,5.0022779 L5.33029613,6.66970387 L5.33029613,5.33029613 L2.50569476,5.33029613 C2.58466211,5.50037965 2.67577828,5.65983295 2.77904328,5.80865604 C2.88230828,5.95747912 2.9977221,6.09567198 3.12528474,6.22323462 C3.2649962,6.36294609 3.41837509,6.48899013 3.58542141,6.60136674 C3.75246773,6.71374336 3.93318147,6.81245254 4.12756264,6.89749431 C4.3158694,6.97646166 4.51176917,7.03720577 4.71526196,7.07972665 C4.91875475,7.12224753 5.12680334,7.14350797 5.33940774,7.14350797 C5.55201215,7.14350797 5.76006074,7.12224753 5.96355353,7.07972665 C6.16704632,7.03720577 6.3659833,6.97646166 6.56036446,6.89749431 C6.74867122,6.81245254 6.92634776,6.71374336 7.09339408,6.60136674 C7.26044039,6.48899013 7.41381929,6.36294609 7.55353075,6.22323462 C7.69324222,6.08352316 7.81928626,5.93014427 7.93166287,5.76309795 C8.04403948,5.59605163 8.14274867,5.41837509 8.22779043,5.23006834 C8.30675778,5.03568717 8.3675019,4.83675019 8.41002278,4.6332574 C8.45254366,4.42976462 8.4738041,4.22171602 8.4738041,4.00911162 C8.4738041,3.79650721 8.45254366,3.58845862 8.41002278,3.38496583 C8.3675019,3.18147304 8.30675778,2.98557327 8.22779043,2.79726651 C8.21564161,2.77296887 8.20501139,2.75018983 8.19589977,2.72892938 C8.18678815,2.70766894 8.17615793,2.68792711 8.16400911,2.66970387 L5.33029613,2.66970387 L5.33029613,1.99544419 L7.74487472,1.99544419 C7.71450266,1.96507213 7.6841306,1.93166287 7.65375854,1.8952164 C7.62338648,1.85876993 7.59301443,1.82536067 7.56264237,1.79498861 C7.4229309,1.65527715 7.26955201,1.52923311 7.10250569,1.41685649 C6.93545938,1.30447988 6.75474563,1.2088079 6.56036446,1.12984055 C6.3659833,1.04479879 6.16704632,0.981017464 5.96355353,0.938496583 C5.76006074,0.895975702 5.55504935,0.874715262 5.34851936,0.874715262 Z"></path></clipPath></defs><g transform="translate(6.0 8.0)"><g clip-path="url(#i0)"><polygon points="0,0 12,0 12,8 0,8 0,0" stroke="none" fill="#151515"></polygon></g></g></svg>