<?xml version="1.0" encoding="UTF-8"?><svg version="1.1" width="24px" height="24px" viewBox="0 0 24.0 24.0" xmlns="http://www.w3.org/2000/svg" xmlns:xlink="http://www.w3.org/1999/xlink"><defs><clipPath id="i0"><path d="M4.9425,0 C5.03875,0 5.135,0.07375 5.17375,0.17375 L7.35125,5.98375 C7.38125,6.0625 7.4875,6.07125 7.53125,6 L9.14625,3.30625 C9.1825,3.24625 9.2475,3.2 9.3175,3.2 L12,3.2 L12,4.8 L10.1675,4.8 C10.1325,4.8 10.1,4.8275 10.08125,4.8575 L7.3025,9.49 C7.2625,9.55625 7.205,9.6 7.1275,9.6 C7.05,9.6 6.975,9.54125 6.94375,9.4575 L4.815,3.7775 C4.785,3.69625 4.6725,3.69 4.6325,3.76625 L3.31,6.2975 C3.275,6.36375 3.2075,6.4 3.1325,6.4 L0,6.4 L0,4.8 L2.22375,4.8 C2.26125,4.8 2.295,4.7825 2.3125,4.75 L4.7175,0.14625 C4.7675,0.05 4.84625,0 4.9425,0 Z"></path></clipPath></defs><g transform="translate(6.0 7.000000000000001)"><g clip-path="url(#i0)"><polygon points="0,0 12,0 12,9.6 0,9.6 0,0" stroke="none" fill="#151515"></polygon></g></g></svg>