<?xml version="1.0" encoding="UTF-8"?><svg version="1.1" width="24px" height="24px" viewBox="0 0 24.0 24.0" xmlns="http://www.w3.org/2000/svg" xmlns:xlink="http://www.w3.org/1999/xlink"><defs><clipPath id="i0"><path d="M6.375,5.99882813 C6.57979766,5.9994017 6.74606562,6.16362742 6.74993265,6.36763405 L6.75,11.6238281 C6.74942643,11.8286258 6.58520071,11.9948938 6.38119407,11.9987607 L4.125,11.9988281 C3.92020234,11.9982545 3.75393438,11.8340289 3.75006735,11.6300222 L3.75,6.37382813 C3.75057357,6.16903046 3.91479929,6.00276251 4.11880593,5.99889547 L6.375,5.99882813 Z M8.25,6.75 L8.25,11.25 L7.5,11.25 L7.5,6.75 L8.25,6.75 Z M6,10.5 L4.5,10.5 L4.5,11.25 L6,11.25 L6,10.5 Z M11.25,6.01289063 C11.25,7.71272321 10.4432398,9.22324617 9.19111395,10.1832245 L9,10.3230469 L9,9.36796875 C9.06210937,9.31171875 9.121875,9.25546875 9.18164062,9.19570313 C9.97049916,8.40851318 10.4363631,7.35830007 10.493942,6.25097394 L10.5,6.01289063 L11.25,6.01289063 Z M1.75546875,4.51171875 C1.1802467,6.14720159 1.59344389,7.9676382 2.81835938,9.19453125 L2.90786133,9.28242188 L3,9.36679688 L3,10.321875 C1.63945313,9.37265625 0.749997695,7.79648438 0.749997695,6.01289063 C0.749729762,5.60625098 0.79666574,5.20130138 0.889631854,4.80613383 L0.96796875,4.51171875 L1.75546875,4.51171875 Z M6.00117188,8.25 L4.5,8.25 L4.5,9.75 L6.00117188,9.75 L6.00117188,8.25 Z M6,6.75 L5.25,6.75 L5.25,7.5 L6,7.5 L6,6.75 Z M10.125,0 C10.3300357,0 10.4966382,0.164552143 10.4999498,0.368798689 L10.5,4.7578125 C10.5,4.96284821 10.3354479,5.12945072 10.1312013,5.1328125 L7.125,5.1328125 C6.91996429,5.1328125 6.75336178,4.96826036 6.75005024,4.76401382 L6.75,0.375 C6.75,0.169964286 6.91455214,0.00336178574 7.11879868,0 L10.125,0 Z M12,0.75 L12,4.5 L11.25,4.5 L11.25,0.75 L12,0.75 Z M9.75,3 L7.5,3 L7.5,4.125 L9.75,4.125 L9.75,3 Z M2.625,6.66133815e-16 C2.82979766,0.000573577024 2.99606562,0.164799288 2.99993265,0.368805932 L3,3.375 C2.99942643,3.57979766 2.83520071,3.74606562 2.63119407,3.74993265 L0.375,3.75 C0.170202341,3.74942643 0.00393438806,3.58520071 6.73459398e-05,3.38119407 L0,0.375 C0.000573577024,0.170202341 0.164799288,0.00393438806 0.368805932,6.73459398e-05 L2.625,6.66133815e-16 Z M2.25,2.25 L0.75,2.25 L0.75,3 L2.25,3 L2.25,2.25 Z M6,0.76171875 L6,1.51171875 C5.39815733,1.5106623 4.80228681,1.63103214 4.24804688,1.865625 C4.1341189,1.91406071 4.02222211,1.96707938 3.91262866,2.02454525 L3.75,2.1140625 L3.75,1.26796875 C4.45326805,0.934714646 5.22176851,0.761802042 6,0.76171875 Z M9.75,0.75 L8.625,0.75 L8.625,1.875 L9.75,1.875 L9.75,0.75 Z M2.25,0.75 L1.5,0.75 L1.5,1.5 L2.25,1.5 L2.25,0.75 Z"></path></clipPath></defs><g transform="translate(6.0 6.0)"><g clip-path="url(#i0)"><polygon points="0,0 12,0 12,11.9988281 0,11.9988281 0,0" stroke="none" fill="#151515"></polygon></g></g></svg>