<?xml version="1.0" encoding="UTF-8"?><svg version="1.1" width="24px" height="24px" viewBox="0 0 24.0 24.0" xmlns="http://www.w3.org/2000/svg" xmlns:xlink="http://www.w3.org/1999/xlink"><defs><clipPath id="i0"><path d="M9,0 C9.41367187,0 9.75,0.336328125 9.75,0.75 L9.75,9 C9.75,9.41367187 9.384375,9.75 8.97070312,9.75 L8.97070312,12 L0.720703125,12 L0.75,9.75 C0.336328125,9.75 0,9.41367187 0,9 L0,0.75 C0,0.336328125 0.336328125,0 0.75,0 Z M2.25,9.71953125 L1.5,9.71953125 L1.5,11.2195312 L2.25,11.2195312 L2.25,9.71953125 Z M3.75,9.71953125 L3,9.71953125 L3,11.2195312 L3.75,11.2195312 L3.75,9.71953125 Z M5.25,9.71953125 L4.5,9.71953125 L4.5,11.2195312 L5.25,11.2195312 L5.25,9.71953125 Z M6.75,9.71953125 L6,9.71953125 L6,11.2195312 L6.75,11.2195312 L6.75,9.71953125 Z M8.25,9.71953125 L7.5,9.71953125 L7.5,11.2195312 L8.25,11.2195312 L8.25,9.71953125 Z M3.75,2.25 L3,2.25 L3,3 L2.25,3 L2.25,3.75 L3,3.75 L3,4.5 L2.25,4.5 L2.25,5.25 L3,5.25 L3,6 L2.25,6 L2.25,6.75 L3,6.75 L3,7.5 L3.75,7.5 L3.75,6.75 L4.5,6.75 L4.5,7.5 L5.25,7.5 L5.25,6.75 L6,6.75 L6,7.5 L6.75,7.5 L6.75,6.75 L7.48828125,6.75 L7.48828125,6 L6.75,6 L6.75,5.25 L7.48828125,5.25 L7.48828125,4.5 L6.75,4.5 L6.75,3.75 L7.48828125,3.75 L7.48828125,3 L6.75,3 L6.75,2.25 L6,2.25 L6,3 L5.25,3 L5.25,2.25 L4.5,2.25 L4.5,3 L3.75,3 L3.75,2.25 Z"></path></clipPath></defs><g transform="translate(7.0 6.0)"><g clip-path="url(#i0)"><polygon points="0,0 9.75,0 9.75,12 0,12 0,0" stroke="none" fill="#151515"></polygon></g></g></svg>