<?xml version="1.0" encoding="UTF-8"?><svg version="1.1" width="24px" height="24px" viewBox="0 0 24.0 24.0" xmlns="http://www.w3.org/2000/svg" xmlns:xlink="http://www.w3.org/1999/xlink"><defs><clipPath id="i0"><path d="M11.5710937,8.99973104 C11.6859375,8.99973104 11.7867187,9.04191854 11.8722656,9.12746542 C11.9578125,9.21301229 12,9.31144979 12,9.42863729 L12,10.8208248 C12,10.9380123 11.9578125,11.0364498 11.8722656,11.1219967 C11.7867187,11.2075436 11.6882812,11.2497311 11.5710937,11.2497311 L0.4265625,11.2497311 C0.309375,11.2497311 0.2109375,11.2075436 0.125390625,11.1219967 C0.0421875,11.0352779 0,10.9368404 0,10.8196529 L0,9.42863729 C0,9.31379354 0.0421875,9.21301229 0.127734375,9.12746542 C0.21328125,9.04191854 0.31171875,8.99973104 0.42890625,8.99973104 Z M1.5,9.74973104 L0.75,9.74973104 L0.75,10.499731 L1.5,10.499731 L1.5,9.74973104 Z M3,9.74973104 L2.25,9.74973104 L2.25,10.499731 L3,10.499731 L3,9.74973104 Z M4.5,9.74973104 L3.75,9.74973104 L3.75,10.499731 L4.5,10.499731 L4.5,9.74973104 Z M6,9.74973104 L5.25,9.74973104 L5.25,10.499731 L6,10.499731 L6,9.74973104 Z M11.25,9.74973104 L10.5,9.74973104 L10.5,10.499731 L11.25,10.499731 L11.25,9.74973104 Z M11.5710937,5.99973104 C11.6859375,5.99973104 11.7867187,6.04191854 11.8722656,6.12746542 C11.9578125,6.21301229 12,6.31144979 12,6.42863729 L12,7.82082479 C12,7.93801229 11.9578125,8.03644979 11.8722656,8.12199667 C11.7867187,8.20754354 11.6882812,8.24973104 11.5710937,8.24973104 L0.4265625,8.24973104 C0.309375,8.24973104 0.2109375,8.20754354 0.125390625,8.12199667 C0.0421875,8.03527792 0,7.93684042 0,7.81965292 L0,6.42863729 C0,6.31379354 0.0421875,6.21301229 0.127734375,6.12746542 C0.21328125,6.04191854 0.31171875,5.99973104 0.42890625,5.99973104 Z M1.5,6.74973104 L0.75,6.74973104 L0.75,7.49973104 L1.5,7.49973104 L1.5,6.74973104 Z M3,6.74973104 L2.25,6.74973104 L2.25,7.49973104 L3,7.49973104 L3,6.74973104 Z M4.5,6.74973104 L3.75,6.74973104 L3.75,7.49973104 L4.5,7.49973104 L4.5,6.74973104 Z M6,6.74973104 L5.25,6.74973104 L5.25,7.49973104 L6,7.49973104 L6,6.74973104 Z M11.25,6.74973104 L10.5,6.74973104 L10.5,7.49973104 L11.25,7.49973104 L11.25,6.74973104 Z M11.5710937,2.99973104 C11.6859375,2.99973104 11.7867187,3.04191854 11.8722656,3.12746542 C11.9578125,3.21301229 12,3.31144979 12,3.42863729 L12,4.82082479 C12,4.93801229 11.9578125,5.03644979 11.8722656,5.12199667 C11.7867187,5.20754354 11.6882812,5.24973104 11.5710937,5.24973104 L0.4265625,5.24973104 C0.309375,5.24973104 0.2109375,5.20754354 0.125390625,5.12199667 C0.0421875,5.03527792 0,4.93684042 0,4.81965292 L0,3.42863729 C0,3.31379354 0.0421875,3.21301229 0.127734375,3.12746542 C0.21328125,3.04191854 0.31171875,2.99973104 0.42890625,2.99973104 Z M1.5,3.74973104 L0.75,3.74973104 L0.75,4.49973104 L1.5,4.49973104 L1.5,3.74973104 Z M3,3.74973104 L2.25,3.74973104 L2.25,4.49973104 L3,4.49973104 L3,3.74973104 Z M4.5,3.74973104 L3.75,3.74973104 L3.75,4.49973104 L4.5,4.49973104 L4.5,3.74973104 Z M6,3.74973104 L5.25,3.74973104 L5.25,4.49973104 L6,4.49973104 L6,3.74973104 Z M11.25,3.74973104 L10.5,3.74973104 L10.5,4.49973104 L11.25,4.49973104 L11.25,3.74973104 Z M2.17382812,0.0024263567 L9.85101563,0.0024263567 C9.85101563,0.0024263567 9.98929687,-0.0139798933 10.1145703,0.121957607 C10.2007031,0.217031825 11.0298176,1.05181464 11.5195343,1.54412764 L11.7054778,1.73099636 C11.7319533,1.75759487 11.7559082,1.78165733 11.7769482,1.80278936 L11.8650526,1.89126126 C11.8728548,1.89909403 11.8769531,1.90320761 11.8769531,1.90320761 C11.9753906,2.00164511 12,2.01687948 12,2.12352011 C12,2.23602011 11.8628906,2.25008261 11.7269531,2.25008261 L0.258984375,2.25008261 C0.1265625,2.25090292 0,2.23098104 0,2.12316854 C0,2.03691854 0.009,2.00991854 0.063,1.95336854 L0.213644399,1.80374573 C0.320040176,1.69821128 0.500131875,1.51945698 0.70402875,1.31656792 L1.08597631,0.935904437 C1.47208066,0.550380165 1.83832617,0.182080654 1.89375,0.117270107 C2.01691406,-0.0267533308 2.17382812,0.0024263567 2.17382812,0.0024263567 Z"></path></clipPath></defs><g transform="translate(6.0 5.999999999999999)"><g clip-path="url(#i0)"><polygon points="0,-2.77555756e-17 12,-2.77555756e-17 12,11.2497311 0,11.2497311 0,-2.77555756e-17" stroke="none" fill="#151515"></polygon></g></g></svg>