<?xml version="1.0" encoding="UTF-8"?><svg version="1.1" width="24px" height="24px" viewBox="0 0 24.0 24.0" xmlns="http://www.w3.org/2000/svg" xmlns:xlink="http://www.w3.org/1999/xlink"><defs><clipPath id="i0"><path d="M10.6842855,7.53442888 L10.7303547,7.54464928 L11.666331,7.87500077 C11.8664692,7.94685541 11.9999638,8.1366123 11.9999638,8.34925849 L11.9999638,8.55562564 C11.9998211,8.7351764 11.9019156,8.90040303 11.7444951,8.98675836 L6.4723477,11.8766016 C6.32798402,11.9573391 6.16537173,11.9998175 5.99996498,12 C5.83090698,11.9998792 5.66456626,11.957458 5.51609789,11.8766016 L0.256255208,8.98675836 C0.0987440592,8.90046467 0.000741737684,8.73522611 0.000552134204,8.55562564 L0.000552134204,8.33531318 C0.00225474411,8.12797024 0.132976423,7.94365033 0.328091131,7.87347734 L1.17945814,7.56773521 C1.22613564,7.55119093 1.27744813,7.55367447 1.32230967,7.57464927 L1.80277833,7.79976641 C1.9537158,7.8700789 1.94328611,8.08921948 1.78637208,8.14546947 L1.30402843,8.31878975 L5.99996498,10.7363674 L10.6757453,8.32031318 L10.1051595,8.1152351 C9.94601887,8.05793042 9.93781575,7.83527422 10.0934407,7.76730548 L10.5921906,7.54921959 C10.6359823,7.53015455 10.6853988,7.5285199 10.7303547,7.54464928 Z M9.99312653,4.61456926 L10.0349642,4.62480612 L11.6158232,5.17968882 C11.8499946,5.26289474 12.0042626,5.48706553 11.9983232,5.73550902 L11.9983232,5.88668086 C12.0094803,6.12643843 11.8716803,6.34826052 11.6517998,6.44449325 L9.40472992,7.43519617 L6.38129303,8.75824278 C6.12665462,8.86922878 5.83723906,8.86884646 5.58289475,8.7571881 L0.351528626,6.45703231 C0.129605587,6.36050513 -0.00992903342,6.13724974 0.000552134204,5.89546992 L0.000552134204,5.7431262 C-0.00315465027,5.49290809 0.152859877,5.26809827 0.388559869,5.18402475 L1.94328611,4.62632955 C1.98424064,4.61238254 2.0286597,4.61238254 2.06961421,4.62632955 L2.62344222,4.82449358 C2.78844219,4.88308731 2.78844219,5.11746227 2.62344222,5.17711069 L1.28293468,5.65757935 L5.99996498,7.57945396 L10.7010578,5.66015747 L9.35246431,5.17558726 C9.18617528,5.11699352 9.18617528,4.88144669 9.35246431,4.82285295 L9.90851888,4.62480612 C9.94926877,4.60945083 9.99421429,4.60945083 10.0349642,4.62480612 Z M6.25367587,4.05902498 C6.36775539,4.02153149 6.49290154,4.04112282 6.59006505,4.11168592 C6.68722856,4.18224899 6.74457948,4.29519256 6.74422595,4.41527491 L6.74422595,4.87230607 C6.74414733,5.03045935 6.64485784,5.17156481 6.49601957,5.22504037 L6.12840246,5.36109503 C6.04141758,5.39846797 5.94348311,5.40140014 5.85441814,5.36929815 L5.49512133,5.2462513 C5.34615025,5.19295013 5.24678459,5.05173642 5.24691676,4.893517 L5.24691676,4.43531397 C5.24667808,4.31529904 5.30403832,4.2024569 5.40113904,4.13192256 C5.49823976,4.06138823 5.62328786,4.04172825 5.73734785,4.07906404 L5.99996498,4.14105621 Z M2.77775914,3.18742407 C2.87483835,3.11692856 2.99983389,3.09725911 3.11387181,3.13453298 L3.86316854,3.37933762 C4.01739251,3.4296243 4.121799,3.57337236 4.12191849,3.73558755 L4.12144974,4.21722807 C4.12172941,4.3393226 4.06255195,4.45390937 3.96283349,4.52436062 C3.86311501,4.59481185 3.73534157,4.61230615 3.62035609,4.57125144 L2.87105936,4.30172024 C2.72253291,4.24807804 2.62352726,4.10713671 2.62344164,3.94922032 L2.62344164,3.49066572 C2.62329165,3.37069086 2.68067992,3.25791959 2.77775914,3.18742407 Z M8.87598003,3.12984548 C8.99006189,3.09229627 9.11523864,3.11186453 9.21241805,3.18243915 C9.30959745,3.25301378 9.3669359,3.36599359 9.36653113,3.48609541 L9.36653113,3.94336094 C9.36670258,4.10186702 9.26741165,4.24344332 9.11832373,4.29726712 L8.369027,4.56445457 C8.25425057,4.60539141 8.12673972,4.58800564 8.02711243,4.51783541 C7.92748515,4.44766518 7.8681659,4.33346137 7.86805054,4.21160307 L7.86805054,3.73113442 C7.86822071,3.56896243 7.97261754,3.42527494 8.12680049,3.37500168 Z M5.99996498,7.79595071e-07 C6.11418038,9.56801704e-05 6.22745487,0.0206549603 6.33441804,0.0607054768 L11.6768779,2.00953321 C11.8707026,2.08044213 11.9997017,2.26474666 11.9999645,2.47113468 L11.9999645,2.9153924 C12.0002152,3.12835327 11.8663507,3.31840157 11.6657451,3.38988449 L10.8146124,3.68988443 C10.740301,3.71640049 10.6577377,3.70513763 10.5932437,3.65968648 C10.5287497,3.61423533 10.4903755,3.54026933 10.4903547,3.46136885 L10.4903547,2.75590024 L5.99996498,1.11328339 L1.49996589,2.74898618 L1.49996589,3.27386889 C1.49998115,3.39588606 1.4406308,3.51028168 1.34086469,3.58053064 C1.24109859,3.65077959 1.11339223,3.66809743 0.998520683,3.62695476 L0.335942692,3.39011887 C0.136208433,3.31862505 0.00229501369,3.13010751 0.000544203735,2.91797052 L0.000544203735,2.47265811 C-0.000279658017,2.26508973 0.129198556,2.07931052 0.324223944,2.00824414 L5.65191818,0.0607054768 C5.76352387,0.0203960951 5.88130305,-0.000145862289 5.99996498,7.79595071e-07 Z"></path></clipPath></defs><g transform="translate(5.999999999999999 6.0)"><g clip-path="url(#i0)"><polygon points="1.08420217e-19,-3.73897178e-16 11.9999649,-3.73897178e-16 11.9999649,12 1.08420217e-19,12 1.08420217e-19,-3.73897178e-16" stroke="none" fill="#151515"></polygon></g></g></svg>