<?xml version="1.0" encoding="UTF-8"?><svg version="1.1" width="24px" height="24px" viewBox="0 0 24.0 24.0" xmlns="http://www.w3.org/2000/svg" xmlns:xlink="http://www.w3.org/1999/xlink"><defs><clipPath id="i0"><path d="M9,3.00000997 L9,11.62501 C9,11.8324319 8.83242188,12.00001 8.625,12.00001 L0.375,12.00001 C0.167578125,12.00001 0,11.8324319 0,11.62501 L0,3.37500997 C0,3.16758809 0.167578125,3.00000997 0.375,3.00000997 L9,3.00000997 Z M11.625,3.00000997 C11.8324219,3.00000997 12,3.16758809 12,3.37500997 L12,10.87501 C12,11.0824318 11.8324219,11.25001 11.625,11.25001 L9.75,11.25001 L9.75,3.00000997 Z M7.5,9.00000997 L3.75,9.00000997 L3.75,10.12501 L7.5,10.12501 L7.5,9.00000997 Z M7.5,6.75000997 L1.5,6.75000997 L1.5,7.87500997 L7.5,7.87500997 L7.5,6.75000997 Z M7.5,4.50000997 L5.25,4.50000997 L5.25,5.62500997 L7.5,5.62500997 L7.5,4.50000997 Z M6.5625,3.3098213e-06 L8.8125,2.25000997 L0.258984375,2.25000997 C0.1265625,2.25118184 0,2.23125997 0,2.12344747 C0,2.01563497 0.0140625,2.00040059 0.1125,1.90430684 L0.124537354,1.8923773 C0.132429199,1.88455518 0.144067383,1.87301836 0.159052734,1.85815958 L0.2859375,1.73228497 C0.393046875,1.62598184 0.5409375,1.47909434 0.7040625,1.31675684 L0.956982422,1.06480489 C1.38691406,0.636045126 1.83222656,0.189267783 1.89375,0.117197471 C1.99570313,-0.00233377909 2.17382812,3.3098213e-06 2.17382812,3.3098213e-06 L6.5625,3.3098213e-06 Z M9.85948319,0.000358458523 C9.89318399,0.00244938418 10.0180246,0.0170858637 10.1144531,0.119541221 C10.1698242,0.180713096 10.5322676,0.547770712 10.9142055,0.933029598 L11.168563,1.18940831 C11.4194969,1.44216944 11.6506923,1.67460674 11.7769411,1.80148038 L11.92755,1.95243809 C11.98425,2.01015059 12,2.03696309 12,2.12227559 C12,2.23477559 11.8628906,2.24883809 11.7269531,2.24883809 L9.75,2.25000997 L7.5,9.97091441e-06 Z"></path></clipPath></defs><g transform="translate(6.0 5.999999999999999)"><g clip-path="url(#i0)"><polygon points="0,-1.77339053e-17 12,-1.77339053e-17 12,12.00001 0,12.00001 0,-1.77339053e-17" stroke="none" fill="#151515"></polygon></g></g></svg>