<?xml version="1.0" encoding="UTF-8"?><svg version="1.1" width="24px" height="24px" viewBox="0 0 24.0 24.0" xmlns="http://www.w3.org/2000/svg" xmlns:xlink="http://www.w3.org/1999/xlink"><defs><clipPath id="i0"><path d="M11.6496094,0 C11.8430712,0.000129276238 11.9998707,0.1569288 12,0.350390625 L12,11.6835938 C12,11.8734375 11.8464844,12 11.6566406,12 L0.355078125,12 C0.159375,12 0,11.8675781 0,11.671875 L0,0.3421875 C0.000193781598,0.153282887 0.153282887,0.000193781598 0.3421875,0 Z M11.25,0.75 L0.75,0.75 L0.75,11.25 L11.25,11.25 L11.25,0.75 Z M6.75,9 L6.75,9.75 L4.5,9.75 L4.5,9 L6.75,9 Z M9.75,6.75 L9.75,9.75 L7.5,9.75 L7.5,9 L9,9 L9,7.5 L8.25,7.5 L8.25,6.75 L9.75,6.75 Z M4.5,6.75 L4.5,7.5 L3,7.5 L3,9 L3.75,9 L3.75,9.75 L2.25,9.75 L2.25,6.75 L4.5,6.75 Z M7.5,6.75 L7.5,7.5 L5.25,7.5 L5.25,6.75 L7.5,6.75 Z M6.75,4.5 L6.75,5.25 L4.5,5.25 L4.5,4.5 L6.75,4.5 Z M9.75,2.25 L9.75,5.25 L7.5,5.25 L7.5,4.5 L9,4.5 L9,3 L8.25,3 L8.25,2.25 L9.75,2.25 Z M4.5,2.25 L4.5,3 L3,3 L3,4.5 L3.75,4.5 L3.75,5.25 L2.25,5.25 L2.25,2.25 L4.5,2.25 Z M7.5,2.25 L7.5,3 L5.25,3 L5.25,2.25 L7.5,2.25 Z"></path></clipPath></defs><g transform="translate(6.0 6.0)"><g clip-path="url(#i0)"><polygon points="0,0 12,0 12,12 0,12 0,0" stroke="none" fill="#151515"></polygon></g></g></svg>