<?xml version="1.0" encoding="UTF-8"?><svg version="1.1" width="24px" height="24px" viewBox="0 0 24.0 24.0" xmlns="http://www.w3.org/2000/svg" xmlns:xlink="http://www.w3.org/1999/xlink"><defs><clipPath id="i0"><path d="M11.7410155,6.7078125 C11.7959844,6.70809035 11.8480914,6.73235668 11.8836792,6.77425118 C11.919267,6.81614566 11.9347871,6.87149115 11.9261719,6.92578125 C11.7779375,7.87081206 11.4045426,8.76631671 10.8375,9.53671875 C10.7826407,9.6114339 10.7906091,9.71502285 10.8562499,9.78046875 L11.9449219,10.8691406 C11.9800395,10.9042816 11.999838,10.9518825 12,11.0015625 L12,11.8125 C12,11.9160534 11.9160534,12 11.8125,12 L11.0320312,12 C10.9823512,11.999838 10.9347503,11.9800395 10.8996094,11.9449219 L9.79570307,10.8410156 C9.73025722,10.7753747 9.62666828,10.7674063 9.55195313,10.8222656 C8.78567452,11.3873065 7.89521396,11.7606088 6.95507813,11.9109375 C6.90073126,11.9198878 6.84519779,11.9044898 6.80321985,11.8688312 C6.76124189,11.8331725 6.73710932,11.7808602 6.73710932,11.7257813 L6.73710932,10.5890625 C6.73710932,10.4995007 6.80041655,10.4224307 6.88828125,10.4050781 C8.66835938,10.0488281 10.0675781,8.64257812 10.415625,6.86015625 C10.4327393,6.7719757 10.5097841,6.7081806 10.5996094,6.7078125 L11.7410155,6.7078125 Z M1.40507812,6.71601563 C1.49500349,6.71610687 1.57220153,6.78002882 1.5890625,6.86835938 C1.9359375,8.64257812 3.32578125,10.0441406 5.09414062,10.4074219 C5.1815394,10.425262 5.24427032,10.5022054 5.24414102,10.5914062 L5.24414102,11.7292969 C5.24414102,11.7843758 5.22000811,11.8366881 5.17803015,11.8723468 C5.13605221,11.9080055 5.08051874,11.9234034 5.02617187,11.9144531 C4.09915406,11.7617197 3.22114796,11.3927725 2.46328125,10.8375 C2.3885661,10.7826407 2.28497715,10.7906091 2.21953125,10.85625 L1.13085938,11.9449219 C1.0957184,11.9800395 1.04811754,11.999838 0.9984375,12 L0.1875,12 C0.0839466094,12 0,11.9160534 0,11.8125 L0,11.0320312 C0.000161952496,10.9823512 0.0199605411,10.9347503 0.055078125,10.8996094 L1.15664063,9.79804688 C1.22228156,9.73260097 1.23024994,9.62901203 1.17539062,9.55429688 C0.60427136,8.78139214 0.228006046,7.88213413 0.078515625,6.9328125 C0.0699471115,6.87864757 0.0855205689,6.82344636 0.121134669,6.7817463 C0.15674877,6.74004626 0.208833398,6.71601563 0.263671875,6.71601563 L1.40507812,6.71601563 Z M6,3 C7.65703125,3 9,4.34296875 9,6 C9,7.65703125 7.65703125,9 6,9 C4.34296875,9 3,7.65703125 3,6 C3,4.34296875 4.34296875,3 6,3 Z M0.96796875,0 C1.01764879,0.000161952496 1.06524965,0.0199605411 1.10039062,0.055078125 L2.19609375,1.15078125 C2.26153965,1.21642219 2.3651286,1.22439056 2.43984375,1.16953125 C3.20117747,0.607128359 4.08520371,0.233596144 5.01914062,0.0796875 C5.07348749,0.0707371539 5.12902096,0.0861351257 5.1709989,0.121793815 C5.21297686,0.157452504 5.23710943,0.20976482 5.23710943,0.26484375 L5.23710943,1.41445313 C5.23660945,1.50342915 5.17416108,1.58002598 5.08710937,1.5984375 C3.3421875,1.95703125 1.96523437,3.328125 1.59726562,5.071875 C1.57873873,5.15868318 1.50204444,5.22070312 1.41328125,5.22070312 L0.2671875,5.22070312 C0.211972459,5.22070312 0.15957051,5.19634588 0.124067229,5.15405854 C0.0885639482,5.11177118 0.0736019957,5.0559364 0.083203125,5.0015625 C0.23702049,4.08100288 0.605128623,3.20950587 1.1578125,2.45742188 C1.21267181,2.38270672 1.20470344,2.27911778 1.1390625,2.21367188 L0.055078125,1.13085938 C0.0199605411,1.0957184 0.000161952496,1.04811754 0,0.9984375 L0,0.1875 C0,0.0839466094 0.0839466094,0 0.1875,0 L0.96796875,0 Z M11.8124999,0 C11.9160534,0 11.9999999,0.0839466094 11.9999999,0.1875 L11.9999999,0.96796875 C11.999838,1.01764879 11.9800395,1.06524965 11.9449219,1.10039062 L10.8480469,2.19726562 C10.7824059,2.26271153 10.7744376,2.36630047 10.8292969,2.44101562 C11.3854339,3.19583605 11.7559836,4.07102394 11.9109375,4.99570313 C11.9200178,5.05018901 11.9047036,5.10591311 11.8690539,5.14810618 C11.833404,5.19029927 11.7810184,5.21470095 11.7257812,5.21484375 L10.5796875,5.21484375 C10.4909243,5.21484375 10.41423,5.1528238 10.3957031,5.06601563 C10.0277344,3.31523437 8.64023437,1.93945312 6.88359375,1.58789062 C6.79572905,1.57053803 6.73242182,1.49346806 6.73242182,1.40390625 L6.73242182,0.25546875 C6.73242182,0.20038982 6.75655439,0.148077504 6.79853235,0.112418814 C6.84051029,0.0767601257 6.89604376,0.0613621539 6.95039062,0.0703125 C7.8890578,0.220595665 8.77821172,0.593051918 9.54375,1.15664063 C9.61846515,1.21149994 9.7220541,1.20353156 9.7875,1.13789062 L10.8691406,0.055078125 C10.9042816,0.0199605411 10.9518825,0.000161952496 11.0015625,0 L11.8124999,0 Z"></path></clipPath></defs><g transform="translate(6.0 6.0)"><g clip-path="url(#i0)"><polygon points="0,0 12,0 12,12 0,12 0,0" stroke="none" fill="#151515"></polygon></g></g></svg>