<?xml version="1.0" encoding="UTF-8"?><svg version="1.1" width="24px" height="24px" viewBox="0 0 24.0 24.0" xmlns="http://www.w3.org/2000/svg" xmlns:xlink="http://www.w3.org/1999/xlink"><defs><clipPath id="i0"><path d="M3,0 C3.56953125,0 3.85546875,0.057421875 4.3078125,0.432421875 L7.25625,3.41953125 L7.44375,3.23203125 L8.29453125,2.38828125 C8.41875,2.2546875 8.57109375,2.22421875 8.74921875,2.296875 C8.91796875,2.36953125 9.00235508,2.4984375 9.00235508,2.68125 L9.00235508,5.59453125 C9.00293285,5.7051035 8.95801175,5.8110495 8.878125,5.8875 C8.79609375,5.96953125 8.69765625,6 8.58515625,6 L5.66953125,6 C5.48671875,6 5.3578125,5.925 5.28515625,5.7515625 C5.2125,5.58046875 5.24296875,5.4328125 5.3765625,5.3015625 L6.40546875,4.27265625 L3.66328125,1.48007813 C3.42890625,1.29257813 3.15703125,1.22929687 2.9859375,1.23164063 C2.97421875,1.22929687 2.96484375,1.23164063 2.95546875,1.22929687 L2.9015625,1.22929687 C1.94296875,1.25742188 1.21875,2.04375 1.21875,3.009375 C1.21875,3.98203125 1.9125,4.75078125 2.88046875,4.76367188 C3.21218837,4.7391968 3.53081128,4.62407096 3.8015625,4.43085938 C3.97896225,4.30105117 4.21247801,4.27671533 4.41283099,4.36715606 C4.61318398,4.45759678 4.74939122,4.64882814 4.76937735,4.8677377 C4.78936349,5.08664727 4.69003784,5.29938244 4.509375,5.42460937 L4.44609375,5.46679688 C4.03359375,5.79960937 3.5625,6 3,6 C1.34296875,6 0,4.66523438 0,3.009375 C0,1.35351562 1.34296875,0 3,0 Z M9,0 C10.6570312,0 12,1.34296875 12,3.00351562 C12,4.4015625 11.04375,5.57578125 9.75,5.90859375 L9.75,4.6171875 C10.3783839,4.32446265 10.7804597,3.69439152 10.78125,3.00117188 C10.78125,2.0203125 9.98203125,1.22109375 9,1.22109375 C8.95972983,1.22310988 8.91894667,1.22624705 8.878125,1.22578125 C8.49856271,1.21873249 8.12636886,1.33104649 7.8140625,1.546875 C7.63503429,1.6774227 7.3992535,1.70050775 7.19830423,1.60716326 C6.99735496,1.51381876 6.86290761,1.31875617 6.84718545,1.09774346 C6.83146328,0.876730758 6.93694416,0.664600406 7.12265625,0.54375 C7.64352971,0.184011105 8.26393998,-0.00366915234 8.896875,0.00703125 C8.93148277,0.00655430859 8.96604558,0.009696375 9,0.01640625 Z"></path></clipPath></defs><g transform="translate(6.0 9.0)"><g clip-path="url(#i0)"><polygon points="0,0 12,0 12,6 0,6 0,0" stroke="none" fill="#151515"></polygon></g></g></svg>