<?xml version="1.0" encoding="UTF-8"?>
<svg width="24px" height="24px" viewBox="0 0 24 24" version="1.1" xmlns="http://www.w3.org/2000/svg" xmlns:xlink="http://www.w3.org/1999/xlink">
    <title></title>
    <g id="Icons" stroke="none" stroke-width="1" fill="none" fill-rule="evenodd">
        <g id="Icons/2.-Size-sm/Object/pficon-service" fill="#151515">
            <path d="M11.3302961,16 C11.6947608,16 12.0440395,15.9559605 12.3781321,15.8678815 C12.7122248,15.7798026 13.0341686,15.6446469 13.3439636,15.4624146 C13.6476841,15.2862566 13.9210326,15.0766894 14.1640091,14.833713 C14.4069856,14.5907365 14.6165528,14.3143508 14.7927107,14.0045558 C14.9749431,13.7008352 15.1100987,13.3819286 15.1981777,13.047836 C15.2862566,12.7137434 15.3302961,12.3644647 15.3302961,12 C15.3302961,11.7691724 15.3120729,11.5429005 15.2756264,11.3211845 C15.23918,11.0994685 15.1845103,10.8823083 15.1116173,10.6697039 L15.9954442,10.6697039 L15.9954442,12.0091116 L18,10.3416856 L15.9954442,8.66514806 L15.9954442,10.0045558 L14.8018223,10.0045558 L14.7927107,9.99544419 L14.7927107,9.99544419 C14.6165528,9.6856492 14.4069856,9.41078208 14.1640091,9.17084282 C13.9210326,8.93090357 13.6446469,8.71981777 13.3348519,8.53758542 C13.0311314,8.36142749 12.7122248,8.22779043 12.3781321,8.13667426 C12.0440395,8.04555809 11.6947608,8 11.3302961,8 C10.9658314,8 10.6165528,8.04555809 10.2824601,8.13667426 C9.9483675,8.22779043 9.6294609,8.36142749 9.32574032,8.53758542 C9.01594533,8.71981777 8.74107821,8.93242217 8.50113895,9.17539863 C8.2611997,9.41837509 8.0501139,9.69172361 7.86788155,9.99544419 C7.69172361,10.2991648 7.55808656,10.6180714 7.46697039,10.952164 C7.37585421,11.2862566 7.33029613,11.6355353 7.33029613,12 C7.33029613,12.1154138 7.33485194,12.2277904 7.34396355,12.3371298 C7.35307517,12.4464692 7.3667426,12.5558087 7.38496583,12.6651481 L6,12.6651481 L6,13.3302961 L7.55808656,13.3302961 C7.59453303,13.4457099 7.64009112,13.5596052 7.69476082,13.6719818 C7.74943052,13.7843584 7.80713743,13.8952164 7.86788155,14.0045558 C8.0501139,14.3143508 8.2627183,14.5907365 8.50569476,14.833713 C8.74867122,15.0766894 9.02201974,15.2862566 9.32574032,15.4624146 C9.6294609,15.6446469 9.9498861,15.7798026 10.2870159,15.8678815 C10.6241458,15.9559605 10.9719058,16 11.3302961,16 Z M11.3394077,15.143508 C11.1268033,15.143508 10.9187547,15.1222475 10.715262,15.0797267 C10.5117692,15.0372058 10.3158694,14.9764617 10.1275626,14.8974943 C9.93318147,14.8124525 9.75246773,14.7137434 9.58542141,14.6013667 C9.41837509,14.4889901 9.2649962,14.3629461 9.12528474,14.2232346 C8.9977221,14.095672 8.88230828,13.9574791 8.77904328,13.808656 C8.67577828,13.659833 8.58466211,13.5003797 8.50569476,13.3302961 L11.3302961,13.3302961 L11.3302961,14.6697039 L13.3257403,13.0022779 L11.3302961,11.3257403 L11.3302961,12.6651481 L8.27790433,12.6651481 C8.25360668,12.5558087 8.23690205,12.4479879 8.22779043,12.3416856 C8.21867882,12.2353834 8.21412301,12.1245254 8.21412301,12.0091116 C8.21412301,11.7965072 8.23386484,11.5899772 8.27334852,11.3895216 C8.31283219,11.1890661 8.37509491,10.9916477 8.46013667,10.7972665 C8.54517844,10.6028853 8.64236902,10.4221716 8.75170843,10.2551253 C8.86104784,10.088079 8.98557327,9.93470008 9.12528474,9.79498861 C9.2649962,9.65527715 9.41837509,9.52923311 9.58542141,9.41685649 C9.75246773,9.30447988 9.93318147,9.2088079 10.1275626,9.12984055 C10.3219438,9.04479879 10.5208808,8.98101746 10.7243736,8.93849658 C10.9278664,8.8959757 11.135915,8.87471526 11.3485194,8.87471526 C11.5550494,8.87471526 11.7600607,8.8959757 11.9635535,8.93849658 C12.1670463,8.98101746 12.3659833,9.04479879 12.5603645,9.12984055 C12.7547456,9.2088079 12.9354594,9.30447988 13.1025057,9.41685649 C13.269552,9.52923311 13.4229309,9.65527715 13.5626424,9.79498861 C13.5930144,9.82536067 13.6233865,9.85876993 13.6537585,9.8952164 C13.6841306,9.93166287 13.7145027,9.96507213 13.7448747,9.99544419 L11.3302961,9.99544419 L11.3302961,10.6697039 L14.1640091,10.6697039 C14.1761579,10.6879271 14.1867882,10.7076689 14.1958998,10.7289294 C14.2050114,10.7501898 14.2156416,10.7729689 14.2277904,10.7972665 C14.3067578,10.9855733 14.3675019,11.181473 14.4100228,11.3849658 C14.4525437,11.5884586 14.4738041,11.7965072 14.4738041,12.0091116 C14.4738041,12.221716 14.4525437,12.4297646 14.4100228,12.6332574 C14.3675019,12.8367502 14.3067578,13.0356872 14.2277904,13.2300683 C14.1427487,13.4183751 14.0440395,13.5960516 13.9316629,13.7630979 C13.8192863,13.9301443 13.6932422,14.0835232 13.5535308,14.2232346 C13.4138193,14.3629461 13.2604404,14.4889901 13.0933941,14.6013667 C12.9263478,14.7137434 12.7486712,14.8124525 12.5603645,14.8974943 C12.3659833,14.9764617 12.1670463,15.0372058 11.9635535,15.0797267 C11.7600607,15.1222475 11.5520121,15.143508 11.3394077,15.143508 Z" id="pficon-service"></path>
        </g>
    </g>
</svg>