<?xml version="1.0" encoding="UTF-8"?>
<svg width="24px" height="24px" viewBox="0 0 24 24" version="1.1" xmlns="http://www.w3.org/2000/svg" xmlns:xlink="http://www.w3.org/1999/xlink">
    <title></title>
    <g id="Icons" stroke="none" stroke-width="1" fill="none" fill-rule="evenodd">
        <g id="Icons/2.-Size-sm/Object/pficon-builder-image" fill="#151515">
            <path d="M16.5902344,8.78484259 L11.9941406,10.4343738 L7.40507813,8.78835822 L12.0023437,7.11328009 L16.5902344,8.78484259 Z M7.4859375,14.4332801 L9.34101563,13.7683582 L11.221875,14.5937098 L11.221875,16.4804285 L7.4859375,14.4332801 Z M7.125,9.85956916 L8.6390625,10.4028504 L7.125,10.9460145 L7.125,9.85956916 Z M8.34257812,13.3283192 L7.125,13.766366 L7.125,12.7958192 L8.34257812,13.3283192 Z M11.2207031,11.328866 L11.2207031,13.258241 L7.31132812,11.6742176 L9.74882812,10.7996473 L11.2207031,11.328866 Z M14.6519531,13.766366 L16.5117188,14.4324598 L12.721875,16.5117176 L12.721875,14.6151551 L14.6519531,13.766366 Z M15.3515625,10.4005067 L16.875,9.85546759 L16.875,10.9477723 L15.3515625,10.4005067 Z M16.875,12.7899598 L16.875,13.7675379 L15.6492187,13.3284363 L16.875,12.7899598 Z M14.240625,10.7984754 L16.6792969,11.6730457 L12.721875,13.2793348 L12.721875,11.3437488 L14.240625,10.7984754 Z M18,8.80828009 C17.9928873,8.3912849 17.7296645,8.02174804 17.3378906,7.87874884 C15.6738281,7.27234259 14.0097656,6.66628791 12.3457031,6.06058478 C12.1223127,5.97980507 11.8776873,5.97980507 11.6542969,6.06058478 L6.66210938,7.87992072 C6.27123381,8.023428 6.00838287,8.39197758 6,8.80828009 L6,14.1392567 L6.00117187,14.1392567 C6.0140625,14.5025379 6.22148438,14.966952 6.52265625,15.1401551 L11.5148438,17.8762488 C11.8172359,18.0412562 12.1827641,18.0412562 12.4851562,17.8762488 C13.4953125,17.3224207 15.8636719,16.0246863 17.4773437,15.1401551 C17.7902344,14.9692957 17.9871094,14.5033582 18,14.1392567 L18,8.80828009 Z" id="pficon-builder-image"></path>
        </g>
    </g>
</svg>