<?xml version="1.0" encoding="UTF-8"?><svg version="1.1" width="24px" height="24px" viewBox="0 0 24.0 24.0" xmlns="http://www.w3.org/2000/svg" xmlns:xlink="http://www.w3.org/1999/xlink"><defs><clipPath id="i0"><path d="M6.9375,0 C7.21709415,0 7.44904383,0.203990261 7.49263782,0.471259578 L7.5,0.5625 L7.5,2.4375 L7.49941406,2.45053711 L7.49882812,2.46445313 L8.784375,3.75 L10.125,3.75 C10.3062184,3.75 10.457414,3.87854325 10.4923813,4.04942442 L10.5,4.125 L10.5,5.625 C10.5,5.80621843 10.3714568,5.95741398 10.2005756,5.99238133 L10.125,6 L9.75,6 L9.75,6.73828125 L10.6875,6.73828125 C10.9670942,6.73828125 11.1990438,6.94227151 11.2426378,7.20954083 L11.25,7.30078125 L11.25,8.25 L11.625,8.25 C11.8062184,8.25 11.957414,8.37854325 11.9923813,8.54942442 L12,8.625 L12,10.125 C12,10.3062184 11.8714567,10.457414 11.7005756,10.4923813 L11.625,10.5 L10.125,10.5 C9.94378157,10.5 9.79258602,10.3714568 9.75761867,10.2005756 L9.75,10.125 L9.75,8.625 C9.75,8.44378157 9.87854325,8.29258602 10.0494244,8.25761867 L10.125,8.25 L10.5,8.25 L10.5,7.48828125 L8.25,7.48828125 L8.25,8.25 L8.625,8.25 C8.80621843,8.25 8.95741398,8.37854325 8.99238133,8.54942442 L9,8.625 L9,10.125 C9,10.3062184 8.87145675,10.457414 8.70057558,10.4923813 L8.625,10.5 L7.125,10.5 C6.94378157,10.5 6.79258602,10.3714568 6.75761867,10.2005756 L6.75,10.125 L6.75,8.625 C6.75,8.44378157 6.87854325,8.29258602 7.04942442,8.25761867 L7.125,8.25 L7.5,8.25 L7.5,7.30078125 C7.5,7.0211871 7.70399026,6.78923742 7.97125958,6.74564343 L8.0625,6.73828125 L9,6.73828125 L9,6 L8.625,6 C8.44378157,6 8.29258602,5.87145675 8.25761867,5.70057558 L8.25,5.625 L8.25,4.27617188 L6.97265625,2.99882813 L6.95507812,2.99985352 L6.9375,3 L5.04257813,3 L3.75,4.29257813 L3.75,5.625 C3.75,5.80621843 3.62145675,5.95741398 3.45057558,5.99238133 L3.375,6 L3,6 L3,6.73828125 L3.9375,6.73828125 C4.21709415,6.73828125 4.44904383,6.94227151 4.49263782,7.20954083 L4.5,7.30078125 L4.5,8.25 L4.875,8.25 C5.05621843,8.25 5.20741398,8.37854325 5.24238133,8.54942442 L5.25,8.625 L5.25,10.125 C5.25,10.3062184 5.12145675,10.457414 4.95057558,10.4923813 L4.875,10.5 L3.375,10.5 C3.19378157,10.5 3.04258602,10.3714568 3.00761867,10.2005756 L3,10.125 L3,8.625 C3,8.44378157 3.12854325,8.29258602 3.29942442,8.25761867 L3.375,8.25 L3.75,8.25 L3.75,7.48828125 L1.5,7.48828125 L1.5,8.25 L1.875,8.25 C2.05621843,8.25 2.20741398,8.37854325 2.24238133,8.54942442 L2.25,8.625 L2.25,10.125 C2.25,10.3062184 2.12145675,10.457414 1.95057558,10.4923813 L1.875,10.5 L0.375,10.5 C0.193781566,10.5 0.0425860166,10.3714568 0.00761866718,10.2005756 L0,10.125 L0,8.625 C0,8.44378157 0.128543246,8.29258602 0.29942442,8.25761867 L0.375,8.25 L0.75,8.25 L0.75,7.30078125 C0.75,7.0211871 0.953990261,6.78923742 1.22125958,6.74564343 L1.3125,6.73828125 L2.25,6.73828125 L2.25,6 L1.875,6 C1.69378157,6 1.54258602,5.87145675 1.50761867,5.70057558 L1.5,5.625 L1.5,4.125 C1.5,3.94378157 1.62854325,3.79258602 1.79942442,3.75761867 L1.875,3.75 L3.23085937,3.75 L4.50117188,2.4796875 L4.50058594,2.45859375 L4.5,0.5625 C4.5,0.282905845 4.70399026,0.0509561691 4.97125958,0.00736217536 L5.0625,0 L6.9375,0 Z M6.75,0.75 L5.25,0.75 L5.25,2.25 L6.75,2.25 L6.75,0.75 Z"></path></clipPath></defs><g transform="translate(6.0 7.0)"><g clip-path="url(#i0)"><polygon points="0,0 12,0 12,10.5 0,10.5 0,0" stroke="none" fill="#151515"></polygon></g></g></svg>