<?xml version="1.0" encoding="UTF-8"?><svg version="1.1" width="24px" height="24px" viewBox="0 0 24.0 24.0" xmlns="http://www.w3.org/2000/svg" xmlns:xlink="http://www.w3.org/1999/xlink"><defs><clipPath id="i0"><path d="M4.80117187,3.18049966e-06 C5.45859375,3.18049966e-06 6.05507813,0.186337714 6.590625,0.562509589 C7.12617188,0.938681464 7.51875,1.42618146 7.76367188,2.03438459 C8.05546875,1.77071271 8.40117187,1.63711896 8.80078125,1.63711896 C9.24257813,1.63711896 9.62109375,1.79766584 9.928125,2.11758771 C10.2433594,2.43633771 10.3980469,2.82188459 10.3980469,3.27540021 C10.3999822,3.58805191 10.3112451,3.89456126 10.1425781,4.15782209 C10.6804687,4.28633772 11.1246094,4.57266584 11.475,5.01680646 C11.825,5.46133772 12,5.97071271 12,6.54493146 C12,7.22344709 11.7679688,7.80118146 11.2980469,8.28165021 C10.8316641,8.75383381 10.2733969,8.99515791 9.6198341,9.00000318 L2.79960938,9.00000318 C2.02890625,8.99922835 1.36992188,8.71875959 0.82265625,8.15860334 C0.27421875,7.59766585 0,6.92344709 0,6.13594709 C0,5.57422834 0.148046875,5.06016584 0.444140625,4.59375959 C0.741015625,4.12579084 1.13085938,3.77696271 1.61367187,3.54727521 C1.60546875,3.42774396 1.60078125,3.33516584 1.60078125,3.27188459 C1.60078125,2.36954084 1.9125,1.59610334 2.53828125,0.957431464 C3.16445312,0.317978347 3.91875,-0.00116228562 4.80117187,3.18049966e-06 Z M6,2.25000959 C5.58867187,2.25000959 5.2359375,2.39766584 4.940625,2.69415021 C4.6453125,2.99063459 4.49765625,3.34102521 4.49765625,3.75469709 L4.49765625,4.49297834 L4.12617187,4.49297834 C4.021875,4.49297834 3.9328125,4.51758771 3.86015625,4.59024396 C3.78874211,4.66069545 3.74898807,4.75712011 3.75,4.85743146 L3.75,7.11329084 C3.74835626,7.213723 3.78820874,7.31038644 3.86015625,7.38047834 C3.93398437,7.45313459 4.021875,7.50000959 4.12617187,7.50000959 L7.87265625,7.50000959 C7.97695313,7.50000959 8.06601562,7.45313459 8.13867188,7.38047834 C8.21008602,7.31002686 8.24984005,7.2136022 8.24882812,7.11329084 L8.25117188,4.85860334 C8.25339763,4.75806173 8.21345319,4.66117521 8.14101562,4.59141584 C8.0671875,4.51875959 7.97929687,4.49297834 7.875,4.49297834 L7.50117187,4.49297834 L7.50117187,3.75469709 C7.50117187,3.34219709 7.35585937,2.99063459 7.06054688,2.69415021 C6.76523437,2.39766584 6.41132812,2.25000959 6,2.25000959 Z M6,3.01993146 C6.20742188,3.01993146 6.38554687,3.09258771 6.5296875,3.23907209 C6.67338209,3.37794096 6.75314037,3.57012447 6.75,3.76993146 L6.75,4.50000959 L5.25,4.50000959 L5.25,3.76993146 C5.25,3.3557179 5.58578644,3.01993146 6,3.01993146 Z"></path></clipPath></defs><g transform="translate(6.0 7.000000000000001)"><g clip-path="url(#i0)"><polygon points="0,1.11022302e-16 12,1.11022302e-16 12,9.00000318 0,9.00000318 0,1.11022302e-16" stroke="none" fill="#151515"></polygon></g></g></svg>