<?xml version="1.0" encoding="UTF-8"?><svg version="1.1" width="24px" height="24px" viewBox="0 0 24.0 24.0" xmlns="http://www.w3.org/2000/svg" xmlns:xlink="http://www.w3.org/1999/xlink"><defs><clipPath id="i0"><path d="M11.7908654,5.53846154 C12,5.27307692 12,5.53846154 12,5.53846154 L12,8.30769231 C12,9.32740385 9.31442308,10.1538462 6,10.1538462 C2.68557692,10.1538462 0,9.32740385 0,8.30769231 L0.000157125932,5.53247992 C0.00172838525,5.49459631 0.0190122378,5.2972028 0.209134615,5.53846154 C0.638942308,6.08509615 1.95865385,6.92307692 6,6.92307692 C10.0413462,6.92307692 11.3610577,6.08509615 11.7908654,5.53846154 Z M6,0 C9.31442308,0 12,0.826442308 12,1.84615385 L12,3.67788462 C12,4.69759615 9.31442308,5.52403846 6,5.52403846 C2.68557692,5.52403846 0,4.69759615 0,3.67788462 L0,1.84615385 C0,0.826442308 2.68557692,0 6,0 Z"></path></clipPath></defs><g transform="translate(6.0 7.0)"><g clip-path="url(#i0)"><polygon points="0,0 12,0 12,10.1538462 0,10.1538462 0,0" stroke="none" fill="#151515"></polygon></g></g></svg>