<?xml version="1.0" encoding="UTF-8"?><svg version="1.1" width="24px" height="24px" viewBox="0 0 24.0 24.0" xmlns="http://www.w3.org/2000/svg" xmlns:xlink="http://www.w3.org/1999/xlink"><defs><clipPath id="i0"><path d="M11.25,2.25 C11.6640529,2.25038763 11.9996123,2.5859471 12,3 L12,11.25 C11.9996123,11.6640529 11.6640529,11.9996123 11.25,12 L3,12 C2.5859471,11.9996123 2.25038763,11.6640529 2.25,11.25 L2.25,3 C2.25038763,2.5859471 2.5859471,2.25038763 3,2.25 Z M11.0742188,3 L3.17578125,3 C3.07869995,3 3,3.07869995 3,3.17578125 L3,11.0742188 C3,11.1713001 3.07869995,11.25 3.17578125,11.25 L11.0742188,11.25 C11.1713001,11.25 11.25,11.1713001 11.25,11.0742188 L11.25,3.17578125 C11.25,3.07869995 11.1713001,3 11.0742188,3 Z M0.75,7.5 L0.75,8.81601563 C0.75,8.91309693 0.828699947,8.99179688 0.92578125,8.99179688 L1.5,9.00117188 L1.5,9.75117188 L0.75,9.74179688 C0.335947105,9.74140924 0.00038762974,9.40584977 0,8.99179688 L0,7.5 L0.75,7.5 Z M0.75,5.25 L0.75,6.75 L0,6.75 L0,5.25 L0.75,5.25 Z M0.75,3 L0.75,4.5 L0,4.5 L0,3 L0.75,3 Z M2.24179687,0 L2.24179687,0.75 L0.92578125,0.75 C0.828699947,0.75 0.75,0.828699947 0.75,0.92578125 L0.75,2.25 L0,2.25 L0,0.75 C0.00038762974,0.335947105 0.335947105,0.00038762974 0.75,0 L2.24179687,0 Z M9,0.008203125 C9.4140529,0.00859075474 9.74961237,0.34415023 9.75,0.758203125 L9.75,1.5 L9,1.5 L9,0.933984375 C9,0.836903072 8.92130005,0.758203125 8.82421875,0.758203125 L7.5,0.758203125 L7.5,0.008203125 L9,0.008203125 Z M6.75,0.008203125 L6.75,0.758203125 L5.25,0.758203125 L5.25,0.008203125 L6.75,0.008203125 Z M4.5,0.008203125 L4.5,0.758203125 L3,0.758203125 L3,0.008203125 L4.5,0.008203125 Z"></path></clipPath></defs><g transform="translate(6.0 6.0)"><g clip-path="url(#i0)"><polygon points="0,0 12,0 12,12 0,12 0,0" stroke="none" fill="#151515"></polygon></g></g></svg>