<?xml version="1.0" encoding="UTF-8"?><svg version="1.1" width="24px" height="24px" viewBox="0 0 24.0 24.0" xmlns="http://www.w3.org/2000/svg" xmlns:xlink="http://www.w3.org/1999/xlink"><defs><clipPath id="i0"><path d="M10.875,0 C11.4963281,0 12,0.503671875 12,1.125 L12,7.875 C12,8.49632812 11.4963281,9 10.875,9 L1.125,9 C0.503671875,9 0,8.49632812 0,7.875 L0,1.125 C0,0.503671875 0.503671875,0 1.125,0 L10.875,0 Z M8.05110937,2.82386719 L4.875,6 L3.57386719,4.69886719 C3.46403906,4.58903906 3.28596094,4.58903906 3.17610938,4.69886719 L1.5,6.375 L1.5,7.5 L10.5,7.5 L10.5,4.875 L8.44886719,2.82386719 C8.33903906,2.71403906 8.16096094,2.71403906 8.05110937,2.82386719 Z M2.625,1.3125 C1.900125,1.3125 1.3125,1.900125 1.3125,2.625 C1.3125,3.349875 1.900125,3.9375 2.625,3.9375 C3.349875,3.9375 3.9375,3.349875 3.9375,2.625 C3.9375,1.900125 3.349875,1.3125 2.625,1.3125 Z"></path></clipPath></defs><g transform="translate(6.0 8.0)"><g clip-path="url(#i0)"><polygon points="0,0 12,0 12,9 0,9 0,0" stroke="none" fill="#151515"></polygon></g></g></svg>