<?xml version="1.0" encoding="UTF-8"?><svg version="1.1" width="24px" height="24px" viewBox="0 0 24.0 24.0" xmlns="http://www.w3.org/2000/svg" xmlns:xlink="http://www.w3.org/1999/xlink"><defs><clipPath id="i0"><path d="M2.67131525,4.66746789 C2.71924014,4.66746789 2.76612319,4.67580265 2.81300624,4.69351403 L5.0623507,5.9291428 C5.14361465,5.95935632 5.20820907,6.00936491 5.25717581,6.0802104 C5.30614255,6.1510559 5.33114684,6.22919431 5.33114684,6.31462564 L5.33114684,9.01613105 C5.33114684,9.16615681 5.22383675,9.23596046 5.11756851,9.29326196 L2.86718221,10.6174476 C2.80779701,10.6518285 2.74216075,10.668498 2.6723571,10.668498 L2.65777126,10.668498 C2.58796761,10.668498 2.52233134,10.6518285 2.46294615,10.6174476 L0.212559845,9.29326196 C0.101082375,9.23075123 -0.00101848515,9.16615681 7.66956967e-06,8.98695938 L7.66956967e-06,6.31566749 C7.66956967e-06,6.23023616 0.0239858071,6.1510559 0.0729525462,6.08125225 C0.121919286,6.01040675 0.187555553,5.96039817 0.267777657,5.93018465 L2.51712211,4.69351403 C2.56296332,4.67580265 2.61088821,4.66746789 2.65672941,4.66746789 Z M9.33912652,4.66746789 C9.38705142,4.66746789 9.43393446,4.67580265 9.48081751,4.69351403 L11.730162,5.9291428 C11.811426,5.95935632 11.8760204,6.00936491 11.9249871,6.0802104 C11.9739539,6.1510559 11.9989582,6.22919431 12,6.31462564 L12,9.01613105 C12,9.16615681 11.8926899,9.23596046 11.7864217,9.29326196 L9.53603532,10.6174476 C9.47665013,10.6518285 9.41101386,10.668498 9.34121021,10.668498 L9.32662438,10.668498 C9.25682073,10.668498 9.19118446,10.6518285 9.13179927,10.6174476 L6.88141296,9.29326196 C6.76993549,9.23075123 6.66783463,9.16615681 6.66783463,8.98695938 L6.66783463,6.31566749 C6.66783463,6.23023616 6.69179708,6.1510559 6.74076382,6.08125225 C6.78973056,6.01040675 6.85536682,5.96039817 6.93558893,5.93018465 L9.18493339,4.69351403 C9.23077459,4.67580265 9.27869948,4.66746789 9.32454069,4.66746789 Z M4.94670585,8.00137353 L2.66402233,9.33493578 L0.370920363,8.00137353 L0.370920363,8.66815465 L2.66506418,10.0017169 L4.94670585,8.66815465 L4.94670585,8.00137353 Z M11.6145172,8.00137353 L9.3318336,9.33493578 L7.03873163,8.00137353 L7.03873163,8.66815465 L9.3318336,10.0017169 L11.6145172,8.66815465 L11.6145172,8.00137353 Z M4.94670585,6.66781127 L2.66402233,8.00137353 L0.370920363,6.66781127 L0.370920363,7.3345924 L2.66506418,8.66815465 L4.94670585,7.3345924 L4.94670585,6.66781127 Z M11.6145172,6.66781127 L9.3318336,8.00137353 L7.03873163,6.66781127 L7.03873163,7.3345924 L9.3318336,8.66815465 L11.6145172,7.3345924 L11.6145172,6.66781127 Z M6.00522089,0 C6.05314578,0 6.10002883,0.00833476409 6.14691188,0.0260461378 L8.39625633,0.84493671 C8.47752028,0.875150229 8.54211471,0.925158814 8.59108145,0.996004309 C8.64004818,1.0668498 8.66505248,1.14498822 8.66609432,1.23041955 L8.66609432,3.77564813 C8.66609432,3.92567389 8.55878423,3.99547754 8.45251599,4.05277904 L6.20212969,5.28319859 C6.14274449,5.31757949 6.07710823,5.33424902 6.00730458,5.33424902 L5.99271874,5.33424902 C5.92291509,5.33424902 5.85727882,5.31757949 5.79789363,5.28319859 L3.54750733,4.05277904 C3.43602986,3.99026831 3.333929,3.92567389 3.333929,3.74647646 L3.333929,1.23146139 C3.333929,1.14603006 3.35893329,1.0668498 3.40685818,0.997046154 C3.45582492,0.92620066 3.52146119,0.876192075 3.60168329,0.845978555 L5.85102775,0.0260461378 C5.89686895,0.00833476409 5.94479385,0 5.99063505,0 Z M8.28061148,2.83381979 L5.99792797,4.00068676 L3.704826,2.83381979 L3.704826,3.46205263 L5.99896981,4.66746789 L8.28061148,3.46205263 L8.28061148,2.83381979 Z M8.28061148,1.50025754 L5.99792797,2.66712451 L3.704826,1.50025754 L3.704826,2.16703866 L5.99896981,3.33390564 L8.28061148,2.16703866 L8.28061148,1.50025754 Z"></path></clipPath></defs><g transform="translate(6.0 6.999999999999999)"><g clip-path="url(#i0)"><polygon points="-8.48698214e-16,0 12,0 12,10.668498 -8.48698214e-16,10.668498 -8.48698214e-16,0" stroke="none" fill="#151515"></polygon></g></g></svg>