<?xml version="1.0" encoding="UTF-8"?><svg version="1.1" width="24px" height="24px" viewBox="0 0 24.0 24.0" xmlns="http://www.w3.org/2000/svg" xmlns:xlink="http://www.w3.org/1999/xlink"><defs><clipPath id="i0"><path d="M4.77039474,1.00509868 C4.94802632,0.916282895 5.15723684,0.916282895 5.33486842,1.00509868 L7.22960526,1.95246711 C7.44375,2.05904605 7.57894737,2.278125 7.57894737,2.51694079 L7.57894737,4.88930921 L9.75493421,5.97878289 C9.96907895,6.08536184 10.1042763,6.30444079 10.1042763,6.54325658 L10.1042763,8.52680921 C10.1042763,8.765625 9.97006579,8.98371711 9.75690789,9.09128289 L7.86118421,10.0386513 C7.77236842,10.0830592 7.67565789,10.1047697 7.57894737,10.1047697 C7.48223684,10.1047697 7.38552632,10.0820724 7.29671053,10.0376645 L5.05263158,8.915625 L2.80855263,10.0376645 C2.71973684,10.0820724 2.62302632,10.1047697 2.52631579,10.1047697 C2.42960526,10.1047697 2.33289474,10.0820724 2.24407895,10.0376645 L0.349342105,9.09029605 C0.135197368,8.98371711 0,8.76463816 0,8.52582237 L0,6.54325658 C0,6.30444079 0.135197368,6.08536184 0.349342105,5.97878289 L2.52631579,4.88930921 L2.52631579,2.51694079 C2.52631579,2.278125 2.66151316,2.05904605 2.87565789,1.95246711 Z M4.42105263,7.17976974 L2.52631579,8.12713816 L2.52631579,9.47713816 L4.42105263,8.52976974 L4.42105263,7.17976974 Z M9.47368421,7.17976974 L7.57894737,8.12713816 L7.57894737,9.47713816 L9.47368421,8.52976974 L9.47368421,7.17976974 Z M7.22960526,0.0666118421 L9.12434211,1.01398026 C9.33848684,1.12055921 9.47368421,1.33963816 9.47368421,1.57845395 L9.47368421,3.871875 L11.6506579,4.96036184 C11.8648026,5.06792763 12,5.28700658 12,5.52582237 L12,7.58832237 C12,7.82713816 11.8657895,8.04523026 11.6526316,8.15279605 L10.7348684,8.61069079 C10.9243421,8.49128289 11.0417763,8.28601974 11.0417763,8.06299342 L11.0417763,6.07944079 C11.0417763,5.840625 10.9065789,5.62154605 10.6924342,5.51496711 L8.51644737,4.42549342 L8.51644737,2.053125 C8.51644737,1.81430921 8.38125,1.59523026 8.16710526,1.48865132 L6.27236842,0.541282895 C6.1125,0.461348684 5.92796053,0.453453947 5.76315789,0.517598684 L6.66513158,0.0666118421 C6.84276316,-0.0222039474 7.05197368,-0.0222039474 7.22960526,0.0666118421 Z M2.52631579,5.60082237 L0.713486842,6.51463816 L2.52631579,7.42055921 L4.34605263,6.51069079 L2.52631579,5.60082237 Z M7.57894737,5.60082237 L5.76611842,6.51463816 L7.57894737,7.42055921 L9.40657895,6.50674342 L7.57894737,5.60082237 Z M6.94736842,3.15345395 L5.05263158,4.10082237 L5.05263158,5.45180921 L6.94736842,4.50444079 L6.94736842,3.15345395 Z M5.05263158,1.57450658 L3.23980263,2.48832237 L5.05263158,3.39424342 L6.87236842,2.47648026 L5.05263158,1.57450658 Z"></path></clipPath></defs><g transform="translate(6.0 7.000000000000001)"><g clip-path="url(#i0)"><polygon points="0,0 12,0 12,10.1047697 0,10.1047697 0,0" stroke="none" fill="#151515"></polygon></g></g></svg>