<?xml version="1.0" encoding="UTF-8"?><svg version="1.1" width="24px" height="24px" viewBox="0 0 24.0 24.0" xmlns="http://www.w3.org/2000/svg" xmlns:xlink="http://www.w3.org/1999/xlink"><defs><clipPath id="i0"><path d="M8.66666667,1.33333333 L8.66666667,2 L12,2 L12,8.66666667 L8,8.66666667 L8,9.29166667 L10,9.29166667 L10,10 L4,10 L4,9.29166667 L6,9.29166667 L6,8.66666667 L2,8.66666667 L2,6 L1.33333333,6 L1.33333333,5.33333333 L2,5.33333333 L2,2 L8,2 L8,1.33333333 L8.66666667,1.33333333 Z M10.6666667,3.33333333 L3.33333333,3.33333333 L3.33333333,7.33333333 L10.6666667,7.33333333 L10.6666667,3.33333333 Z M8.66666667,5.33333333 L8.66666667,6 L8,6 L8,5.33333333 L8.66666667,5.33333333 Z M7.33333333,5.33333333 L7.33333333,6 L6.66666667,6 L6.66666667,5.33333333 L7.33333333,5.33333333 Z M6,5.33333333 L6,6 L5.33333333,6 L5.33333333,5.33333333 L6,5.33333333 Z M4.66666667,5.33333333 L4.66666667,6 L4,6 L4,5.33333333 L4.66666667,5.33333333 Z M0.666666667,5.33333333 L0.666666667,6 L0,6 L0,5.33333333 L0.666666667,5.33333333 Z M8.66666667,4 L8.66666667,4.66666667 L8,4.66666667 L8,4 L8.66666667,4 Z M0.666666667,4 L0.666666667,4.66666667 L0,4.66666667 L0,4 L0.666666667,4 Z M0.666666667,2.66666667 L0.666666667,3.33333333 L0,3.33333333 L0,2.66666667 L0.666666667,2.66666667 Z M0.666666667,1.33333333 L0.666666667,2 L0,2 L0,1.33333333 L0.666666667,1.33333333 Z M8.66666667,0 L8.66666667,0.666666667 L8,0.666666667 L8,0 L8.66666667,0 Z M7.33333333,0 L7.33333333,0.666666667 L6.66666667,0.666666667 L6.66666667,0 L7.33333333,0 Z M6,0 L6,0.666666667 L5.33333333,0.666666667 L5.33333333,0 L6,0 Z M4.66666667,0 L4.66666667,0.666666667 L4,0.666666667 L4,0 L4.66666667,0 Z M3.33333333,0 L3.33333333,0.666666667 L2.66666667,0.666666667 L2.66666667,0 L3.33333333,0 Z M2,0 L2,0.666666667 L1.33333333,0.666666667 L1.33333333,0 L2,0 Z M0.666666667,0 L0.666666667,0.666666667 L0,0.666666667 L0,0 L0.666666667,0 Z"></path></clipPath></defs><g transform="translate(6.0 7.000000000000001)"><g clip-path="url(#i0)"><polygon points="0,0 12,0 12,10 0,10 0,0" stroke="none" fill="#151515"></polygon></g></g></svg>