<?xml version="1.0" encoding="UTF-8"?><svg version="1.1" width="24px" height="24px" viewBox="0 0 24.0 24.0" xmlns="http://www.w3.org/2000/svg" xmlns:xlink="http://www.w3.org/1999/xlink"><defs><clipPath id="i0"><path d="M9.01785148,7.47831805 C9.12275492,7.3771356 9.59931066,6.97782629 10.1214844,7.5 C10.7132812,8.09179687 10.1214844,8.625 10.1214844,8.625 L7.60664062,11.1398437 C7.53632812,11.2101562 7.44023437,11.25 7.340625,11.25 L2.99648437,11.25 L2.24648437,12 L0,9.9609375 L1.13320312,8.765625 C1.56679687,8.28515625 2.0203125,8.23828125 2.25820312,8.24414062 L6.37148437,8.25 C6.37148437,8.25 6.74648437,8.25 6.74648437,8.625 C6.74648437,9 6.37148437,9 6.37148437,9 L4.49648437,9 C4.49648437,9 4.09804687,9 4.09804687,9.375 C4.09804687,9.75 4.47304687,9.75 4.47304687,9.75 L6.74648437,9.75 Z M7.61601562,0 C7.68984375,0 7.76367187,0.057421875 7.77070312,0.134765625 L7.8421875,1.21523438 C7.98046875,1.25625 7.99921875,1.25625 8.12578125,1.31953125 L8.90859375,0.636328125 C8.9390625,0.610546875 8.9765625,0.6 9.01289062,0.6 C9.05507812,0.6 9.09257812,0.615234375 9.12304687,0.6421875 C9.25898437,0.76875 9.88242187,1.33828125 9.88242187,1.4859375 C9.88242187,1.52226562 9.8671875,1.55507812 9.84609375,1.58554688 C9.69375,1.790625 9.3,2.19492188 9.15234375,2.4 C9.2203125,2.5453125 9.19804687,2.50195312 9.24492187,2.64960937 L10.3699219,2.7421875 C10.44375,2.75742188 10.4964844,2.8265625 10.4988281,2.8921875 L10.4988281,3.8671875 C10.4988281,3.93398437 10.4460937,4.01367188 10.378125,4.02421875 L9.20625,4.1109375 C9.1640625,4.25039062 9.17695312,4.24804688 9.10898437,4.37929687 C9.25664062,4.5890625 9.6984375,4.96171875 9.86601562,5.16210938 C9.8859375,5.19257812 9.90234375,5.22421875 9.90234375,5.26640625 C9.90234375,5.30273438 9.89296875,5.3390625 9.86601562,5.36601562 C9.76171875,5.50664062 9.17109375,6.15117188 9.01757812,6.15117188 C8.97539062,6.15117188 8.93789062,6.1359375 8.90742187,6.11484375 L8.07890625,5.37421875 C7.94414062,5.44335938 7.95703125,5.45039062 7.81523437,5.49257812 C7.78945312,5.76445312 7.83867187,6.365625 7.77070312,6.6234375 C7.75078125,6.69726562 7.6875,6.75 7.61367187,6.75 L6.63398437,6.75 C6.56132812,6.75 6.4875,6.69257812 6.47695312,6.61875 L6.39023437,5.49375 C6.25078125,5.4515625 6.24023437,5.45742187 6.11367187,5.39414063 L5.33671875,6.11953125 C5.31210937,6.1453125 5.26875,6.15585937 5.23242187,6.15585937 C5.19023437,6.15585937 5.15273437,6.140625 5.12226562,6.11367188 C4.98632812,5.98710938 4.36289062,5.4234375 4.36289062,5.26992188 C4.36289062,5.23359375 4.378125,5.20078125 4.39921875,5.1703125 C4.45,5.10390625 4.52669271,5.01080729 4.61206597,4.90859375 L4.87699653,4.5921875 C4.9625,4.48932292 5.03945312,4.39492187 5.090625,4.3265625 C5.01679687,4.18125 5.02734375,4.22929687 4.98046875,4.08164063 L3.8765625,4.01015625 C3.80273437,3.9984375 3.75,3.93046875 3.75,3.85664063 L3.75117187,2.88046875 C3.75117187,2.81367187 3.80390625,2.73398438 3.871875,2.7234375 L4.96523437,2.67070313 C5.00742187,2.53125 4.996875,2.4703125 5.06484375,2.3390625 C4.9171875,2.128125 4.5515625,1.78710937 4.38398437,1.58671875 C4.3640625,1.55625 4.34765625,1.51875 4.34765625,1.48242188 C4.34765625,1.44609375 4.35703125,1.40859375 4.38398437,1.378125 C4.48828125,1.23632812 5.07890625,0.59765625 5.23242187,0.59765625 C5.27460937,0.59765625 5.31210937,0.612890625 5.34257812,0.633984375 L6.1546875,1.34648438 C6.28945312,1.27734375 6.2765625,1.26679688 6.41835937,1.21992188 C6.4453125,0.955078125 6.41132812,0.384375 6.47929687,0.1265625 C6.49921875,0.052734375 6.5625,0 6.63632812,0 Z M2.60976562,3.94335938 C3.12773437,3.94335938 3.54726562,4.3640625 3.54726562,4.88085938 C3.54726562,5.39765625 3.1265625,5.81835938 2.60976562,5.81835938 C2.09296875,5.81835938 1.67226562,5.39765625 1.67226562,4.88085938 C1.67226562,4.3640625 2.09179687,3.94335938 2.60976562,3.94335938 Z M2.60976562,4.50585938 C2.40351562,4.50585938 2.23476562,4.67460937 2.23476562,4.88085938 C2.23476562,5.08710938 2.40351562,5.25585938 2.60976562,5.25585938 C2.81601562,5.25585938 2.98476562,5.08710938 2.98476562,4.88085938 C2.98476562,4.67460937 2.81601562,4.50585938 2.60976562,4.50585938 Z M7.10507812,2.06367187 C6.37734375,2.06367187 5.78554687,2.65429688 5.78554687,3.38320312 C5.78554687,4.11210937 6.3796875,4.70273438 7.10507812,4.70273438 C7.83398437,4.70273438 8.42460937,4.11210937 8.42460937,3.38320312 C8.42460937,2.65429688 7.8328125,2.06367187 7.10507812,2.06367187 Z M2.25,0.375 C3.07851562,0.375 3.75,1.04882812 3.75,1.87617187 C3.75,2.70351562 3.07851562,3.375 2.25,3.375 C1.42148437,3.375 0.75,2.7046875 0.75,1.87617187 C0.75,1.04765625 1.42148437,0.375 2.25,0.375 Z M2.25,1.3125 C1.93945312,1.3125 1.6875,1.565625 1.6875,1.87617187 C1.6875,2.18671875 1.93945312,2.43867187 2.25,2.43867187 C2.56054687,2.43867187 2.8125,2.18554688 2.8125,1.875 C2.8125,1.56445312 2.56054687,1.3125 2.25,1.3125 Z"></path></clipPath></defs><g transform="translate(6.999999999999999 6.0)"><g clip-path="url(#i0)"><polygon points="0,0 10.4988281,0 10.4988281,12 0,12 0,0" stroke="none" fill="#151515"></polygon></g></g></svg>