<?xml version="1.0" encoding="UTF-8"?>
<svg width="24px" height="24px" viewBox="0 0 24 24" version="1.1" xmlns="http://www.w3.org/2000/svg" xmlns:xlink="http://www.w3.org/1999/xlink">
    <title></title>
    <g id="Icons" stroke="none" stroke-width="1" fill="none" fill-rule="evenodd">
        <g id="Icons/2.-Size-sm/Object/pficon-network" fill="#151515">
            <path d="M12.3308824,9.82352941 L12.3308824,11.2352941 L15.8823529,11.2352941 C16.2720498,11.2356589 16.5878705,11.5514796 16.5882353,11.9411765 L16.5882353,11.9411765 L16.5882353,13.3529412 L17.2941176,13.3529412 C17.6838144,13.353306 17.9996351,13.6691267 18,14.0588235 L18,14.0588235 L18,16.1764706 C17.9996351,16.5661674 17.6838144,16.8819881 17.2941176,16.8823529 L17.2941176,16.8823529 L15.1764706,16.8823529 C14.7867737,16.8819881 14.4709531,16.5661674 14.4705882,16.1764706 L14.4705882,16.1764706 L14.4705882,14.0588235 C14.4709531,13.6691267 14.7867737,13.353306 15.1764706,13.3529412 L15.1764706,13.3529412 L15.8823529,13.3529412 L15.8823529,11.9411765 L12.3308824,11.9411765 L12.3308824,13.3529412 L13.0477941,13.3529412 C13.437491,13.353306 13.7533116,13.6691267 13.7536765,14.0588235 L13.7536765,14.0588235 L13.7536765,16.1764706 C13.7533116,16.5661674 13.437491,16.8819881 13.0477941,16.8823529 L13.0477941,16.8823529 L10.9301471,16.8823529 C10.5404502,16.8819881 10.2246295,16.5661674 10.2242647,16.1764706 L10.2242647,16.1764706 L10.2242647,14.0588235 C10.2246295,13.6691267 10.5404502,13.353306 10.9301471,13.3529412 L10.9301471,13.3529412 L11.625,13.3529412 L11.625,11.9411765 L8.11764706,11.9411765 L8.11764706,13.3529412 L8.82352941,13.3529412 C9.21322626,13.353306 9.52904693,13.6691267 9.52941176,14.0588235 L9.52941176,14.0588235 L9.52941176,16.1764706 C9.52904693,16.5661674 9.21322626,16.8819881 8.82352941,16.8823529 L8.82352941,16.8823529 L6.70588235,16.8823529 C6.31618551,16.8819881 6.00036483,16.5661674 6,16.1764706 L6,16.1764706 L6,14.0588235 C6.00036483,13.6691267 6.31618551,13.353306 6.70588235,13.3529412 L6.70588235,13.3529412 L7.41176471,13.3529412 L7.41176471,11.9411765 C7.41212954,11.5514796 7.72795021,11.2356589 8.11764706,11.2352941 L8.11764706,11.2352941 L11.625,11.2352941 L11.625,9.82352941 L12.3308824,9.82352941 Z M17.2941176,7 L17.2941176,9.11764706 L6.70588235,9.11764706 L6.70588235,7 L17.2941176,7 Z M13.7647059,8.41176471 L16.59375,8.41176471 L16.59375,7.70588235 L13.7647059,7.70588235 L13.7647059,8.41176471 Z" id="pficon-network"></path>
        </g>
    </g>
</svg>