<?xml version="1.0" encoding="UTF-8"?><svg version="1.1" width="24px" height="24px" viewBox="0 0 24.0 24.0" xmlns="http://www.w3.org/2000/svg" xmlns:xlink="http://www.w3.org/1999/xlink"><defs><clipPath id="i0"><path d="M5.8945172,5.99998569 C6.38436893,6.23436014 6.92343015,6.3749848 7.49998212,6.3749848 C8.07653409,6.3749848 8.61795278,6.23436014 9.10544704,5.99998569 L9.29997325,5.99998569 C10.7906084,5.99998569 11.9999714,7.20934866 11.9999714,8.69998384 L11.9999714,9.37497765 C11.9999714,9.99606992 11.4960663,10.499975 10.8749741,10.499975 L4.12499017,10.499975 C3.5038979,10.499975 2.99999285,9.99606992 2.99999285,9.37497765 L2.99999285,8.69998384 C2.99999285,7.20934866 4.20935581,5.99998569 5.69999099,5.99998569 Z M13.4999678,5.24998748 C14.327305,5.24998748 14.9999642,5.92264671 14.9999642,6.74998748 L14.9999642,7.49998212 C14.9999642,7.91482946 14.6648134,8.24998748 14.249966,8.24998748 L12.7030947,8.24998748 C12.557778,7.13903632 11.8874762,6.20389604 10.9429518,5.68591479 C11.214817,5.41638418 11.5874815,5.24998748 11.9999714,5.24998748 Z M3,5.24998748 C3.41248271,5.24998748 3.78514723,5.41638418 4.05701242,5.68591479 C3.112488,6.20389604 2.44218625,7.13903632 2.29453493,8.24998748 L0.749998212,8.24998748 C0.335150873,8.24998748 0,7.91482946 0,7.49998212 L0,6.74998748 C0,5.92264671 0.672659224,5.24998748 1.5,5.24998748 Z M7.49998212,0 C8.95076906,0 10.1249759,1.1742068 10.1249759,2.62499374 C10.1249759,4.07578069 8.95076906,5.24998748 7.49998212,5.24998748 C6.04919517,5.24998748 4.87498838,4.07578069 4.87498838,2.62499374 C4.87498838,1.1742068 6.04919517,0 7.49998212,0 Z M2.24999821,1.49999642 C3.07733184,1.49999642 3.74999821,2.17265565 3.74999821,2.99999642 C3.74999821,3.82733005 3.07733184,4.49999642 2.24999821,4.49999642 C1.42265744,4.49999642 0.749998212,3.82733005 0.749998212,2.99999642 C0.749998212,2.17265565 1.42265744,1.49999642 2.24999821,1.49999642 Z M12.7499732,1.49999642 C13.5773068,1.49999642 14.2499732,2.17265565 14.2499732,2.99999642 C14.2499732,3.82733005 13.5773068,4.49999642 12.7499732,4.49999642 C11.9226324,4.49999642 11.2499732,3.82733005 11.2499732,2.99999642 C11.2499732,2.17265565 11.9226324,1.49999642 12.7499732,1.49999642 Z"></path></clipPath></defs><g transform="translate(4.999999999999999 7.0)"><g clip-path="url(#i0)"><polygon points="0,0 14.9999642,0 14.9999642,10.499975 0,10.499975 0,0" stroke="none" fill="#151515"></polygon></g></g></svg>