<?xml version="1.0" encoding="UTF-8"?>
<svg width="24px" height="24px" viewBox="0 0 24 24" version="1.1" xmlns="http://www.w3.org/2000/svg" xmlns:xlink="http://www.w3.org/1999/xlink">
    <title></title>
    <g id="Icons" stroke="none" stroke-width="1" fill="none" fill-rule="evenodd">
        <g id="Icons/2.-Size-sm/Object/user" fill="#151515">
            <path d="M12.2499946,11.9999857 C13.9070194,11.9999857 15.2499803,10.6570247 15.2499803,9 C15.2499803,7.34296097 13.9070194,6 12.2499946,6 C10.5929556,6 9.24999464,7.34296097 9.24999464,9 C9.24999464,10.6570247 10.5929556,11.9999857 12.2499946,11.9999857 Z M16.3749776,17.9999714 C16.9960699,17.9999714 17.499975,17.4960663 17.499975,16.8749741 L17.499975,15.8999856 C17.499975,14.1609226 16.0890363,12.7499839 14.3499733,12.7499839 L13.9585863,12.7499839 C13.4382705,12.9890504 12.859361,13.124983 12.2499875,13.124983 C11.6406139,13.124983 11.064062,12.9890504 10.5413887,12.7499839 L10.1500016,12.7499839 C8.41093871,12.7499839 7,14.1609226 7,15.8999856 L7,16.8749741 C7,17.4960663 7.50390505,17.9999714 8.12499732,17.9999714 L16.3749776,17.9999714 Z" id="user"></path>
        </g>
    </g>
</svg>