<?xml version="1.0" encoding="UTF-8"?>
<svg width="155px" height="40px" viewBox="0 0 155 40" version="1.1" xmlns="http://www.w3.org/2000/svg" xmlns:xlink="http://www.w3.org/1999/xlink">
    <title></title>
    <g id="Dropdowns" stroke="none" stroke-width="1" fill="none" fill-rule="evenodd">
        <g id="Dropdowns-/-3.-Menu-Item-/-7.-With-icon-/-Single-select">
            <rect id="Background" fill="#FFFFFF" x="0" y="-3.55271368e-15" width="155" height="40"></rect>
            <text id="âœï¸-Label" font-family="RedHatText-Regular, Red Hat Text" font-size="16" font-weight="normal" line-spacing="24" fill="#151515">
                <tspan x="56" y="24">Option</tspan>
            </text>
            <g id="ðŸ“-Padding" fill-opacity="0.9">
                <g id="Spacer-/-Horizontal-/-3.-pf-global--spacer--md-(16px)" fill="#3F9C35" stroke="#418A38">
                    <rect id="Rectangle-Copy-2" x="0.5" y="0.5" width="15" height="39"></rect>
                </g>
                <g id="Spacer-/-Vertical-/-2.-pf-global--spacer--sm-(8px)" transform="translate(16.000000, 0.000000)" fill="#92D400" stroke="#7FB300">
                    <rect id="Rectangle-Copy" x="0.5" y="0.5" width="138" height="7"></rect>
                </g>
                <g id="Spacer-/-Vertical-/-2.-pf-global--spacer--sm-(8px)" transform="translate(16.000000, 32.000000)" fill="#92D400" stroke="#7FB300">
                    <rect id="Rectangle-Copy" x="0.5" y="0.5" width="138" height="7"></rect>
                </g>
                <g id="Spacer-/-Horizontal-/-3.-pf-global--spacer--md-(16px)" transform="translate(107.000000, 0.000000)" fill="#3F9C35" stroke="#418A38">
                    <rect id="Rectangle-Copy-2" x="0.5" y="0.5" width="15" height="39"></rect>
                </g>
                <g id="Spacer-/-Horizontal-/-3.-pf-global--spacer--md-(16px)" transform="translate(139.000000, 0.000000)" fill="#3F9C35" stroke="#418A38">
                    <rect id="Rectangle-Copy-2" x="0.5" y="0.5" width="15" height="39"></rect>
                </g>
                <g id="Spacer-/-Horizontal-/-3.-pf-global--spacer--md-(16px)" transform="translate(40.000000, 0.000000)" fill="#3F9C35" stroke="#418A38">
                    <rect id="Rectangle-Copy-2" x="0.5" y="0.5" width="15" height="39"></rect>
                </g>
            </g>
            <g id="cube" transform="translate(16.000000, 8.000000)" fill="#151515">
                <path d="M12.6687415,19.5644081 L19.168726,16.3144159 C19.6780937,16.0613037 19.9968491,15.5394238 19.9968491,14.9738124 L19.9968491,7.93943586 C19.9968491,7.31443735 19.6093378,6.75508199 19.0249581,6.53633252 L12.5249736,4.09883833 C12.1874805,3.96758254 11.8124814,3.96758254 11.471845,4.09569502 L4.97186048,6.53318921 C4.38751128,6.75193869 4,7.31443735 4,7.93943586 L4,14.9738124 C4,15.5425366 4.32186813,16.0613037 4.82812303,16.3144159 L11.3281075,19.5644081 C11.7499815,19.7769015 12.2468675,19.7769015 12.6687415,19.5644081 Z M11.9999809,10.7581852 L5.99999523,8.32069105 L5.99999523,8.28632834 L11.9999809,6.03633371 L17.9999666,8.28632834 L17.9999666,8.32069105 L11.9999809,10.7581852 Z M12.9999785,17.1613072 L12.9999785,12.5081811 L17.9999666,10.4769359 L17.9999666,14.6613131 L12.9999785,17.1613072 Z"></path>
            </g>
            <g id="Check" transform="translate(123.000000, 8.000000)" fill="#0066CC">
                <path d="M6.92424458,16.7728081 L13.8242373,9.87279255 C14.0585431,9.63846388 14.0585431,9.25856672 13.8242373,9.02426094 L12.9757286,8.17572933 C12.7414228,7.94142356 12.3615027,7.94142356 12.127197,8.17572933 L6.49999022,13.8029361 L3.87277633,11.1757222 C3.63847056,10.9413935 3.2585505,10.9413935 3.02424473,11.1757222 L2.17573601,12.0242538 C1.94143023,12.2585825 1.94143023,12.6384796 2.17573601,12.8727854 L6.07573587,16.7727853 C6.31001875,17.0071139 6.68991592,17.0071139 6.92424458,16.7728081 Z" id="check"></path>
            </g>
        </g>
    </g>
</svg>