<?xml version="1.0" encoding="UTF-8"?>
<svg width="155px" height="40px" viewBox="0 0 155 40" version="1.1" xmlns="http://www.w3.org/2000/svg" xmlns:xlink="http://www.w3.org/1999/xlink">
    <title></title>
    <g id="Dropdowns" stroke="none" stroke-width="1" fill="none" fill-rule="evenodd">
        <g id="Dropdowns-/-3.-Menu-Item-/-7.-With-icon-/-Single-select">
            <rect id="Background" fill="#FFFFFF" x="0" y="-3.55271368e-15" width="155" height="40"></rect>
            <text id="âœï¸-Label" font-family="RedHatText-Regular, Red Hat Text" font-size="16" font-weight="normal" line-spacing="24" fill="#151515">
                <tspan x="56" y="24">Option</tspan>
            </text>
            <g id="ðŸ“-Padding" fill-opacity="0.9">
                <g id="Spacer-/-Horizontal-/-4.-pf-global--spacer--lg-(24px)" fill="#3F9C35" stroke="#418A38">
                    <rect id="Rectangle-Copy-2" x="0.5" y="0.5" width="15" height="39"></rect>
                </g>
                <g id="Spacer-/-Vertical-/-2.-pf-global--spacer--sm-(8px)" transform="translate(16.000000, 0.000000)" fill="#92D400" stroke="#7FB300">
                    <rect id="Rectangle-Copy" x="0.5" y="0.5" width="138" height="7"></rect>
                </g>
                <g id="Spacer-/-Vertical-/-2.-pf-global--spacer--sm-(8px)" transform="translate(16.000000, 32.000000)" fill="#92D400" stroke="#7FB300">
                    <rect id="Rectangle-Copy" x="0.5" y="0.5" width="138" height="7"></rect>
                </g>
                <g id="Spacer-/-Horizontal-/-2.-pf-global--spacer--sm-(8px)" transform="translate(107.000000, 0.000000)" fill="#3F9C35" stroke="#418A38">
                    <rect id="Rectangle-Copy-2" x="0.5" y="0.5" width="15" height="39"></rect>
                </g>
                <g id="Spacer-/-Horizontal-/-2.-pf-global--spacer--sm-(8px)" transform="translate(139.000000, 0.000000)" fill="#3F9C35" stroke="#418A38">
                    <rect id="Rectangle-Copy-2" x="0.5" y="0.5" width="15" height="39"></rect>
                </g>
                <g id="Spacer-/-Horizontal-/-4.-pf-global--spacer--lg-(24px)" transform="translate(40.000000, 0.000000)" fill="#3F9C35" stroke="#418A38">
                    <rect id="Rectangle-Copy-2" x="0.5" y="0.5" width="15" height="39"></rect>
                </g>
            </g>
            <g id="Icons/1.-Size-md-(16px)/Object/cube" transform="translate(20.000000, 12.000000)" fill="#151515">
                <path d="M8.66874154,15.5644081 L15.168726,12.3144159 C15.6780937,12.0613037 15.9968491,11.5394238 15.9968491,10.9738124 L15.9968491,3.93943586 C15.9968491,3.31443735 15.6093378,2.75508199 15.0249581,2.53633252 L8.52497357,0.0988383272 C8.18748048,-0.0324174634 7.81248137,-0.0324174634 7.47184498,0.0956950242 L0.971860476,2.53318921 C0.387511283,2.75193869 0,3.31443735 0,3.93943586 L0,10.9738124 C0,11.5425366 0.321868129,12.0613037 0.828123026,12.3144159 L7.32810753,15.5644081 C7.74998152,15.7769015 8.24686754,15.7769015 8.66874154,15.5644081 Z M7.99998093,6.75818524 L1.99999523,4.32069105 L1.99999523,4.28632834 L7.99998093,2.03633371 L13.9999666,4.28632834 L13.9999666,4.32069105 L7.99998093,6.75818524 Z M8.99997854,13.1613072 L8.99997854,8.50818107 L13.9999666,6.47693591 L13.9999666,10.6613131 L8.99997854,13.1613072 Z" id="cube"></path>
            </g>
            <g id="Check" transform="translate(125.000007, 16.000000)" fill="#0066CC">
                <path d="M4.92423791,8.77280814 L11.8242306,1.87279255 C12.0585364,1.63846388 12.0585364,1.25856672 11.8242306,1.02426094 L10.9757219,0.175729333 C10.7414161,-0.0585764442 10.3614961,-0.0585764442 10.1271903,0.175729333 L4.49998355,5.80293607 L1.87276966,3.17572218 C1.63846388,2.94139352 1.25854383,2.94139352 1.02423805,3.17572218 L0.175729333,4.02425379 C-0.0585764442,4.25858245 -0.0585764442,4.63847962 0.175729333,4.87278539 L4.07572919,8.77278525 C4.31001208,9.00711392 4.68990924,9.00711392 4.92423791,8.77280814 Z" id="check"></path>
            </g>
        </g>
    </g>
</svg>