<?xml version="1.0" encoding="UTF-8"?><svg version="1.1" width="155px" height="40px" viewBox="0 0 155.0 40.0" xmlns="http://www.w3.org/2000/svg" xmlns:xlink="http://www.w3.org/1999/xlink"><defs><clipPath id="i0"><path d="M155,0 L155,40 L0,40 L0,0 L155,0 Z"></path></clipPath><clipPath id="i1"><path d="M51,0 L51,24 L0,24 L0,0 L51,0 Z"></path></clipPath><clipPath id="i2"><path d="M16,0 L16,40 L0,40 L0,0 L16,0 Z"></path></clipPath><clipPath id="i3"><path d="M139,0 L139,8 L0,8 L0,0 L139,0 Z"></path></clipPath><clipPath id="i4"><path d="M7.47184498,0.0956950242 C7.81248137,-0.0324174634 8.18748048,-0.0324174634 8.52497357,0.0988383272 L15.0249581,2.53633252 C15.6093378,2.75508199 15.9968491,3.31443735 15.9968491,3.93943586 L15.9968491,10.9738124 C15.9968491,11.5394238 15.6780937,12.0613037 15.168726,12.3144159 L8.66874154,15.5644081 C8.24686754,15.7769015 7.74998152,15.7769015 7.32810753,15.5644081 L0.828123026,12.3144159 C0.321868129,12.0613037 0,11.5425366 0,10.9738124 L0,3.93943586 C0,3.31443735 0.387511283,2.75193869 0.971860476,2.53318921 Z M13.9999666,6.47693591 L8.99997854,8.50818107 L8.99997854,13.1613072 L13.9999666,10.6613131 L13.9999666,6.47693591 Z M7.99998093,2.03633371 L1.99999523,4.28632834 L1.99999523,4.32069105 L7.99998093,6.75818524 L13.9999666,4.32069105 L13.9999666,4.28632834 L7.99998093,2.03633371 Z"></path></clipPath><clipPath id="i5"><path d="M10.1271903,0.175729333 C10.3614961,-0.0585764442 10.7414161,-0.0585764442 10.9757219,0.175729333 L11.8242306,1.02426094 C12.0585364,1.25856672 12.0585364,1.63846388 11.8242306,1.87279255 L4.92423791,8.77280814 C4.68990924,9.00711392 4.31001208,9.00711392 4.07572919,8.77278525 L0.175729333,4.87278539 C-0.0585764442,4.63847962 -0.0585764442,4.25858245 0.175729333,4.02425379 L1.02423805,3.17572218 C1.25854383,2.94139352 1.63846388,2.94139352 1.87276966,3.17572218 L4.49998355,5.80293607 Z"></path></clipPath></defs><g transform=""><g clip-path="url(#i0)"><polygon points="0,0 155,0 155,40 0,40 0,0" stroke="none" fill="#FFFFFF"></polygon></g></g><g transform="translate(56.0 8.0)"><g clip-path="url(#i1)"><text transform="translate(0.0 16.0)" font-family="RedHatText-Regular, Red Hat Text" font-size="16.0" font-weight="normal" fill="#151515" text-anchor="left" line-spacing="24.0">Option</text></g></g><g clip-path="url(#i2)"><polygon points="0,0 16,0 16,40 0,40 0,0" stroke="none" fill="rgba(62, 156, 52, 0.9)"></polygon></g><g clip-path="url(#i2)"><polygon points="0,0 16,0 16,40 0,40 0,0 0,0" stroke="#418A37" stroke-width="2" fill="none" stroke-miterlimit="5"></polygon></g><g transform="translate(16.0 0.0)"><g clip-path="url(#i3)"><polygon points="0,0 139,0 139,8 0,8 0,0" stroke="none" fill="rgba(146, 211, 0, 0.9)"></polygon></g><g clip-path="url(#i3)"><polygon points="0,0 139,0 139,8 0,8 0,0 0,0" stroke="#7EB200" stroke-width="2" fill="none" stroke-miterlimit="5"></polygon></g></g><g transform="translate(16.0 32.0)"><g clip-path="url(#i3)"><polygon points="0,0 139,0 139,8 0,8 0,0" stroke="none" fill="rgba(146, 211, 0, 0.9)"></polygon></g><g clip-path="url(#i3)"><polygon points="0,0 139,0 139,8 0,8 0,0 0,0" stroke="#7EB200" stroke-width="2" fill="none" stroke-miterlimit="5"></polygon></g></g><g transform="translate(107.0 0.0)"><g clip-path="url(#i2)"><polygon points="0,0 16,0 16,40 0,40 0,0" stroke="none" fill="rgba(62, 156, 52, 0.9)"></polygon></g><g clip-path="url(#i2)"><polygon points="0,0 16,0 16,40 0,40 0,0 0,0" stroke="#418A37" stroke-width="2" fill="none" stroke-miterlimit="5"></polygon></g></g><g transform="translate(139.0 0.0)"><g clip-path="url(#i2)"><polygon points="0,0 16,0 16,40 0,40 0,0" stroke="none" fill="rgba(62, 156, 52, 0.9)"></polygon></g><g clip-path="url(#i2)"><polygon points="0,0 16,0 16,40 0,40 0,0 0,0" stroke="#418A37" stroke-width="2" fill="none" stroke-miterlimit="5"></polygon></g></g><g transform="translate(40.0 0.0)"><g clip-path="url(#i2)"><polygon points="0,0 16,0 16,40 0,40 0,0" stroke="none" fill="rgba(62, 156, 52, 0.9)"></polygon></g><g clip-path="url(#i2)"><polygon points="0,0 16,0 16,40 0,40 0,0 0,0" stroke="#418A37" stroke-width="2" fill="none" stroke-miterlimit="5"></polygon></g></g><g transform="translate(16.0 8.0)"><g transform="translate(4.0 4.000000000000057)"><g clip-path="url(#i4)"><polygon points="0,1.60010893e-14 15.9968491,1.60010893e-14 15.9968491,15.7237782 0,15.7237782 0,1.60010893e-14" stroke="none" fill="#151515"></polygon></g></g></g><g transform="translate(123.0 8.0)"><g transform="translate(2.0000066757156665 8.000000000000014)"><g clip-path="url(#i5)"><polygon points="0,0 11.9999599,0 11.9999599,8.94853461 0,8.94853461 0,0" stroke="none" fill="#0066CC"></polygon></g></g></g></svg>