<?xml version="1.0" encoding="UTF-8"?>
<svg width="171px" height="118px" viewBox="0 0 171 118" version="1.1" xmlns="http://www.w3.org/2000/svg" xmlns:xlink="http://www.w3.org/1999/xlink">
    <title></title>
    <g id="Alerts" stroke="none" stroke-width="1" fill="none" fill-rule="evenodd">
        <g id="Alerts-/-Inline-/-4.-Danger-/-3.-Description---Actions">
            <rect id="Background" fill="#FAEAE8" x="0" y="0" width="171" height="118"></rect>
            <rect id="Status-Color" fill="#C9190B" x="0" y="0" width="171" height="3"></rect>
            <g id="Danger-icon" transform="translate(20.000000, 20.000000)" fill="#C9190B">
                <path d="M7.74998152,15.499963 C12.0298785,15.499963 15.499963,12.0311298 15.499963,7.74998152 C15.499963,3.47133572 12.0298785,0 7.74998152,0 C3.4700845,0 0,3.47133572 0,7.74998152 C0,12.0311298 3.4700845,15.499963 7.74998152,15.499963 Z M8.50852464,8.74997914 L6.99143841,8.74997914 C6.79228117,8.74997914 6.62785285,8.59427883 6.61701914,8.39542676 L6.38520817,4.14543689 C6.37348944,3.93062417 6.54447903,3.74999106 6.75959692,3.74999106 L8.74033561,3.74999106 C8.9554535,3.74999106 9.1264736,3.93062417 9.11475488,4.14543689 L8.88294391,8.39542676 C8.87211019,8.59427883 8.70768188,8.74997914 8.50852464,8.74997914 Z M7.74998152,12.1874709 C6.95606862,12.1874709 6.31248495,11.5438873 6.31248495,10.7499744 C6.31248495,9.95606147 6.95606862,9.3124778 7.74998152,9.3124778 C8.54389442,9.3124778 9.1874781,9.95606147 9.1874781,10.7499744 C9.1874781,11.5438873 8.54389442,12.1874709 7.74998152,12.1874709 Z" id="exclamation-circle"></path>
            </g>
            <text id="Action" font-family="RedHatText-Regular, Red Hat Text" font-size="14" font-weight="normal" line-spacing="21" fill="#0066CC">
                <tspan x="44" y="95">Action</tspan>
            </text>
            <text id="Description" font-family="RedHatText-Regular, Red Hat Text" font-size="14" font-weight="normal" line-spacing="21" fill="#151515">
                <tspan x="44" y="58">Description</tspan>
            </text>
            <text id="Title" font-family="RedHatText-Medium, Red Hat Text" font-size="14" font-weight="400" line-spacing="21" fill="#7D1007">
                <tspan x="44" y="32">Title</tspan>
            </text>
            <g id="ðŸ“-Padding" fill-opacity="0.9">
                <g id="Spacer-/-Horizontal-/-3.-pf-global--spacer--md-(16px)" transform="translate(8.000000, 59.000000) scale(-1, 1) translate(-8.000000, -59.000000) translate(0.000000, 0.000000)" fill="#3F9C35" stroke="#418A38">
                    <rect id="Rectangle-Copy-2" x="0.5" y="0.5" width="15" height="117"></rect>
                </g>
                <g id="Spacer-/-Horizontal-/-3.-pf-global--spacer--md-(16px)" transform="translate(163.000000, 59.000000) scale(-1, 1) translate(-163.000000, -59.000000) translate(155.000000, 0.000000)" fill="#3F9C35" stroke="#418A38">
                    <rect id="Rectangle-Copy-2" x="0.5" y="0.5" width="15" height="117"></rect>
                </g>
                <g id="Spacer-/-Horizontal-/-3.-pf-global--spacer--md-(16px)" transform="translate(42.000000, 40.500000) scale(-1, 1) translate(-42.000000, -40.500000) translate(40.000000, 16.000000)" fill="#EC7A08" stroke="#C77000">
                    <rect id="Rectangle" x="0.5" y="0.5" width="3" height="48"></rect>
                </g>
                <g id="Spacer-/-Vertical-/-1.-pf-global--spacer--xs-(4px)" transform="translate(44.000000, 40.000000)" fill="#EC7A08" stroke="#C77000">
                    <rect id="Rectangle" x="0.5" y="0.5" width="110" height="3"></rect>
                </g>
                <g id="Spacer-/-Vertical-/-3.-pf-global--spacer--md-(16px)" transform="translate(16.000000, 0.000000)" fill="#3F9C35" stroke="#418A38">
                    <rect id="Rectangle-Copy-2" x="0.5" y="0.5" width="138" height="15"></rect>
                </g>
                <g id="Spacer-/-Vertical-/-3.-pf-global--spacer--md-(16px)" transform="translate(16.000000, 102.000000)" fill="#3F9C35" stroke="#418A38">
                    <rect id="Rectangle-Copy-2" x="0.5" y="0.5" width="138" height="15"></rect>
                </g>
                <g id="Spacer-/-Vertical-/-3.-pf-global--spacer--md-(16px)" transform="translate(16.000000, 65.000000)" fill="#3F9C35" stroke="#418A38">
                    <rect id="Rectangle-Copy-2" x="0.5" y="0.5" width="138" height="15"></rect>
                </g>
            </g>
        </g>
    </g>
</svg>