<svg xmlns="http://www.w3.org/2000/svg" width="40" height="40" viewBox="0 0 40 40">
  <g fill="none" fill-rule="evenodd">
    <circle cx="20" cy="20" r="20" fill="#151515"/>
    <path fill="#FFF" d="M15.9660059,26.3902135 L19.8749931,22.4812263 L23.7839804,26.3902135 C24.2636393,26.8699106 25.0417594,26.8699106 25.5214564,26.3902135 L26.3902135,25.5214564 C26.8699106,25.0417594 26.8699106,24.2640589 26.3902135,23.7839804 L22.4812263,19.8749931 L26.3902135,15.9660059 C26.8699106,15.486347 26.8699106,14.7086084 26.3902135,14.2285299 L25.5214564,13.3597728 C25.0417594,12.8800757 24.2640589,12.8800757 23.7839804,13.3597728 L19.8749931,17.26876 L15.9660059,13.3597728 C15.486347,12.8800757 14.7086084,12.8800757 14.2285299,13.3597728 L13.3597728,14.2285299 C12.8800757,14.7082269 12.8800757,15.4859274 13.3597728,15.9660059 L17.26876,19.8749931 L13.3597728,23.7839804 C12.8800757,24.2636393 12.8800757,25.0413779 13.3597728,25.5214564 L14.2285299,26.3902135 C14.7082269,26.8699106 15.486347,26.8699106 15.9660059,26.3902135 Z"/>
  </g>
</svg>
