<?xml version="1.0" encoding="UTF-8"?><svg version="1.1" width="147px" height="119px" viewBox="0 0 147.0 119.0" xmlns="http://www.w3.org/2000/svg" xmlns:xlink="http://www.w3.org/1999/xlink"><defs><clipPath id="i0"><path d="M147,0 L147,119 L0,119 L0,0 L147,0 Z"></path></clipPath><clipPath id="i1"><path d="M99,0 L99,18 L0,18 L0,0 L99,0 Z"></path></clipPath><clipPath id="i2"><path d="M88,0 L88,24 L0,24 L0,0 L88,0 Z"></path></clipPath><clipPath id="i3"><path d="M7.49998212,0 C8.05216586,0 8.49997973,0.447813874 8.49997973,1 L8.49997973,5.49998689 L12.999969,5.49998689 C13.5521527,5.49998689 13.9999666,5.94780076 13.9999666,6.4999845 L13.9999666,7.49998212 C13.9999666,8.05216586 13.5521527,8.49997973 12.999969,8.49997973 L8.49997973,8.49997973 L8.49997973,12.999969 C8.49997973,13.5521527 8.05216586,13.9999666 7.49998212,13.9999666 L6.4999845,13.9999666 C5.94780076,13.9999666 5.49998689,13.5521527 5.49998689,12.999969 L5.49998689,8.49997973 L1,8.49997973 C0.447813874,8.49997973 0,8.05216586 0,7.49998212 L0,6.4999845 C0,5.94780076 0.447813874,5.49998689 1,5.49998689 L5.49998689,5.49998689 L5.49998689,1 C5.49998689,0.447813874 5.94780076,0 6.4999845,0 Z"></path></clipPath><clipPath id="i4"><path d="M24,0 L24,24 L0,24 L0,0 L24,0 Z"></path></clipPath></defs><g clip-path="url(#i0)"><polygon points="0,0 147,0 147,119 0,119 0,0" stroke="none" fill="#FAFAFA"></polygon><g transform="translate(0.0 -8.0)"><polygon points="147,119 147,127 0,127 0,119 147,119 147,119" stroke="none" fill="#D2D2D2"></polygon></g></g><g transform="translate(24.0 72.0)"><g clip-path="url(#i1)"><text transform="translate(0.21600000000000108 12.0)" font-family="RedHatText-Regular, Red Hat Text" font-size="12.0" font-weight="normal" fill="#696E73" text-anchor="center" line-spacing="18.0">Subtext goes here</text></g></g><g transform="translate(29.0 48.0)"><g clip-path="url(#i2)"><text transform="translate(0.09599999999998943 16.0)" font-family="RedHatText-Regular, Red Hat Text" font-size="16.0" font-weight="normal" fill="#696E73" text-anchor="center" line-spacing="24.0">Disabled tile</text></g></g><g transform="translate(61.0 24.0)"><g transform="translate(5.0 5.0)"><g clip-path="url(#i3)"><polygon points="0,0 13.9999666,0 13.9999666,13.9999666 0,13.9999666 0,0" stroke="none" fill="#696E73"></polygon><g clip-path="url(#i4)"><polygon points="0,0 13.9999666,0 13.9999666,13.9999666 0,13.9999666 0,0" stroke="none" fill="#696E73"></polygon></g></g></g></g></svg>