<?xml version="1.0" encoding="UTF-8"?><svg version="1.1" width="171px" height="93px" viewBox="0 0 171.0 93.0" xmlns="http://www.w3.org/2000/svg" xmlns:xlink="http://www.w3.org/1999/xlink"><defs><filter id="i0" x="-9.83606557%" y="-17.1428571%" filterUnits="userSpaceOnUse" width="113.114754%" height="122.857143%"><feGaussianBlur stdDeviation="3" in="SourceAlpha" result="i1"></feGaussianBlur><feOffset dx="0" dy="0" in="i1" result="i2"></feOffset><feColorMatrix values="0 0 0 0.0 0 0 0 0 0.0 0 0 0 0 0.0 0 0 0 0 0.08 0" type="matrix" in="i2"></feColorMatrix></filter><filter id="i3" x="-27.5862069%" y="-38.4%" filterUnits="userSpaceOnUse" width="139.408867%" height="164%"><feGaussianBlur stdDeviation="8" in="SourceAlpha" result="i4"></feGaussianBlur><feOffset dx="0" dy="8" in="i4" result="i5"></feOffset><feColorMatrix values="0 0 0 0.0 0 0 0 0 0.0 0 0 0 0 0.0 0 0 0 0 0.16 0" type="matrix" in="i5"></feColorMatrix></filter><clipPath id="i6"><path d="M171,0 L171,93 L0,93 L0,0 L171,0 Z"></path></clipPath><clipPath id="i7"><path d="M171,0 L171,3 L0,3 L0,0 L171,0 Z"></path></clipPath><clipPath id="i8"><path d="M7.74998152,0 C12.0301837,0 15.499963,3.46977933 15.499963,7.74998152 C15.499963,12.0301837 12.0301837,15.499963 7.74998152,15.499963 C3.46977933,15.499963 0,12.0301837 0,7.74998152 C0,3.46977933 3.46977933,0 7.74998152,0 Z M11.8964255,4.68935039 C11.701205,4.49406888 11.3845859,4.49406888 11.1893044,4.68935039 L6.4999845,9.37867027 L4.31065867,7.18931391 C4.11540767,6.99406291 3.79878855,6.99406291 3.60353755,7.18931391 L2.89641643,7.89640451 C2.70119595,8.09165551 2.70119595,8.40827463 2.89641643,8.60352563 L6.14640869,11.8535179 C6.3416902,12.0487689 6.6582788,12.0487689 6.85356032,11.8535484 L12.6035466,6.10356211 C12.7987671,5.90831111 12.7987671,5.59169199 12.6035466,5.39644099 Z"></path></clipPath><clipPath id="i9"><path d="M0.98282389,0.287818222 C1.36688669,-0.0959394075 1.98907759,-0.0959394075 2.37280471,0.287818222 L5.5,3.41500803 L8.62718433,0.287818222 C9.01124713,-0.0959394075 9.63340751,-0.0959394075 10.0171651,0.287818222 L10.7121708,0.98282389 C11.0959284,1.36688669 11.0959284,1.98907759 10.7121708,2.37280471 L7.584981,5.5 L10.7121708,8.62718433 C11.0959284,9.01124713 11.0959284,9.63340751 10.7121708,10.0171651 L10.0171651,10.7121708 C9.63340751,11.0959284 9.01091144,11.0959284 8.62718433,10.7121708 L5.5,7.584981 L2.37280471,10.7121708 C1.98907759,11.0959284 1.36658152,11.0959284 0.98282389,10.7121708 L0.287818222,10.0171651 C-0.0959394075,9.63310234 -0.0959394075,9.01091144 0.287818222,8.62718433 L3.41500803,5.5 L0.287818222,2.37280471 C-0.0959394075,1.9887419 -0.0959394075,1.36658152 0.287818222,0.98282389 Z"></path></clipPath><clipPath id="i10"><path d="M111,0 L111,21 L0,21 L0,0 L111,0 Z"></path></clipPath><clipPath id="i11"><path d="M87,0 L87,20 L0,20 L0,0 L87,0 Z"></path></clipPath><clipPath id="i12"><path d="M16,0 L16,93 L0,93 L0,0 L16,0 Z"></path></clipPath><clipPath id="i13"><path d="M4,0 L4,24 L0,24 L0,0 L4,0 Z"></path></clipPath><clipPath id="i14"><path d="M139,0 L139,16 L0,16 L0,0 L139,0 Z"></path></clipPath></defs><polygon points="0,0 171,0 171,93 0,93 0,0 0,0" stroke="none" fill="#000000" filter="url(#i0)"></polygon><polygon points="0,0 171,0 171,93 0,93 0,0 0,0" stroke="none" fill="#000000" filter="url(#i3)"></polygon><g clip-path="url(#i6)"><polygon points="0,0 171,0 171,93 0,93 0,0" stroke="none" fill="#FFFFFF"></polygon></g><g clip-path="url(#i7)"><polygon points="0,0 171,0 171,3 0,3 0,0" stroke="none" fill="#3E8634"></polygon></g><g transform="translate(16.0 16.0)"><g transform="translate(4.0 4.0)"><g clip-path="url(#i8)"><polygon points="0,0 15.499963,0 15.499963,15.499963 0,15.499963 0,0" stroke="none" fill="#3E8634"></polygon></g></g></g><g transform="translate(131.0 16.0)"><g transform="translate(7.000000000000001 7.000000000000001)"><g clip-path="url(#i9)"><polygon points="0,0 10.999989,0 10.999989,10.999989 0,10.999989 0,0" stroke="none" fill="#696E73"></polygon></g></g></g><g transform="translate(44.0 56.0)"><g clip-path="url(#i10)"><text transform="translate(0.0 14.0)" font-family="RedHatText-Regular, Red Hat Text" font-size="14.0" font-weight="normal" fill="#0066CC" text-anchor="left" line-spacing="21.0">Action</text></g></g><g transform="translate(44.0 18.0)"><g clip-path="url(#i11)"><text transform="translate(0.0 14.0)" font-family="RedHatText-Medium, Red Hat Text" font-size="14.0" font-weight="400" fill="#1E4F17" text-anchor="left" line-spacing="21.0">Title</text></g></g><g transform="translate(16.0 0.0) scale(-1.0 1.0)"><g clip-path="url(#i12)"><polygon points="0,0 16,0 16,93 0,93 0,0" stroke="none" fill="rgba(62, 156, 52, 0.9)"></polygon></g><g clip-path="url(#i12)"><polygon points="0,0 16,0 16,93 0,93 0,0 0,0" stroke="#418A37" stroke-width="2" fill="none" stroke-miterlimit="5"></polygon></g></g><g transform="translate(171.0 0.0) scale(-1.0 1.0)"><g clip-path="url(#i12)"><polygon points="0,0 16,0 16,93 0,93 0,0" stroke="none" fill="rgba(62, 156, 52, 0.9)"></polygon></g><g clip-path="url(#i12)"><polygon points="0,0 16,0 16,93 0,93 0,0 0,0" stroke="#418A37" stroke-width="2" fill="none" stroke-miterlimit="5"></polygon></g></g><g transform="translate(44.0 16.0) scale(-1.0 1.0)"><g clip-path="url(#i13)"><polygon points="0,0 4,0 4,24 0,24 0,0" stroke="none" fill="rgba(236, 121, 8, 0.9)"></polygon></g><g clip-path="url(#i13)"><polygon points="0,0 4,0 4,24 0,24 0,0 0,0" stroke="#C67000" stroke-width="2" fill="none" stroke-miterlimit="5"></polygon></g></g><g transform="translate(16.0 0.0)"><g clip-path="url(#i14)"><polygon points="0,0 139,0 139,16 0,16 0,0" stroke="none" fill="rgba(62, 156, 52, 0.9)"></polygon></g><g clip-path="url(#i14)"><polygon points="0,0 139,0 139,16 0,16 0,0 0,0" stroke="#418A37" stroke-width="2" fill="none" stroke-miterlimit="5"></polygon></g></g><g transform="translate(16.0 40.0)"><g clip-path="url(#i14)"><polygon points="0,0 139,0 139,16 0,16 0,0" stroke="none" fill="rgba(62, 156, 52, 0.9)"></polygon></g><g clip-path="url(#i14)"><polygon points="0,0 139,0 139,16 0,16 0,0 0,0" stroke="#418A37" stroke-width="2" fill="none" stroke-miterlimit="5"></polygon></g></g><g transform="translate(16.0 77.0)"><g clip-path="url(#i14)"><polygon points="0,0 139,0 139,16 0,16 0,0" stroke="none" fill="rgba(62, 156, 52, 0.9)"></polygon></g><g clip-path="url(#i14)"><polygon points="0,0 139,0 139,16 0,16 0,0 0,0" stroke="#418A37" stroke-width="2" fill="none" stroke-miterlimit="5"></polygon></g></g></svg>