<?xml version="1.0" encoding="UTF-8"?><svg version="1.1" width="54px" height="44px" viewBox="0 0 54.0 44.0" xmlns="http://www.w3.org/2000/svg" xmlns:xlink="http://www.w3.org/1999/xlink"><defs><clipPath id="i0"><path d="M8.43747988,33.7499195 C9.36898096,33.7499195 10.1249759,34.5059144 10.1249759,35.4374155 L10.1249759,42.1873994 C10.1249759,43.1189005 9.36898096,43.8748954 8.43747988,43.8748954 L1.68749598,43.8748954 C0.755994902,43.8748954 0,43.1189005 0,42.1873994 L0,35.4374155 C0,34.5059144 0.755994902,33.7499195 1.68749598,33.7499195 Z M52.3123753,35.4374155 C53.2438764,35.4374155 53.9998713,36.1934104 53.9998713,37.1249115 L53.9998713,40.4999034 C53.9998713,41.4314045 53.2438764,42.1873994 52.3123753,42.1873994 L18.5624557,42.1873994 C17.6309547,42.1873994 16.8749598,41.4314045 16.8749598,40.4999034 L16.8749598,37.1249115 C16.8749598,36.1934104 17.6309547,35.4374155 18.5624557,35.4374155 Z M8.43747988,16.8749598 C9.36898096,16.8749598 10.1249759,17.6309547 10.1249759,18.5624557 L10.1249759,25.3124397 C10.1249759,26.2439407 9.36898096,26.9999356 8.43747988,26.9999356 L1.68749598,26.9999356 C0.755994902,26.9999356 0,26.2439407 0,25.3124397 L0,18.5624557 C0,17.6309547 0.755994902,16.8749598 1.68749598,16.8749598 Z M52.3123753,18.5624557 C53.2438764,18.5624557 53.9998713,19.3184506 53.9998713,20.2499517 L53.9998713,23.6249437 C53.9998713,24.5564447 53.2438764,25.3124397 52.3123753,25.3124397 L18.5624557,25.3124397 C17.6309547,25.3124397 16.8749598,24.5564447 16.8749598,23.6249437 L16.8749598,20.2499517 C16.8749598,19.3184506 17.6309547,18.5624557 18.5624557,18.5624557 Z M8.43747988,0 C9.36898096,0 10.1249759,0.755994902 10.1249759,1.68749598 L10.1249759,8.43747988 C10.1249759,9.36898096 9.36898096,10.1249759 8.43747988,10.1249759 L1.68749598,10.1249759 C0.755994902,10.1249759 0,9.36898096 0,8.43747988 L0,1.68749598 C0,0.755994902 0.755994902,0 1.68749598,0 Z M52.3123753,1.68749598 C53.2438764,1.68749598 53.9998713,2.44349088 53.9998713,3.37499195 L53.9998713,6.74998391 C53.9998713,7.68148498 53.2438764,8.43747988 52.3123753,8.43747988 L18.5624557,8.43747988 C17.6309547,8.43747988 16.8749598,7.68148498 16.8749598,6.74998391 L16.8749598,3.37499195 C16.8749598,2.44349088 17.6309547,1.68749598 18.5624557,1.68749598 Z"></path></clipPath></defs><g clip-path="url(#i0)"><polygon points="0,0 53.9998713,0 53.9998713,43.8748954 0,43.8748954 0,0" stroke="none" fill="#151515"></polygon></g></svg>