<?xml version="1.0" encoding="UTF-8"?><svg version="1.1" width="62px" height="48px" viewBox="0 0 62.0 48.0" xmlns="http://www.w3.org/2000/svg" xmlns:xlink="http://www.w3.org/1999/xlink"><defs><clipPath id="i0"><path d="M30.3749276,0 C47.1507016,0 60.7498552,13.5991535 60.7498552,30.3749276 C60.7498552,35.9436437 59.2469291,41.1601115 56.6303009,45.6467456 C56.0385856,46.6613649 54.911082,47.2498873 53.7362,47.2498873 L7.01365515,47.2498873 C5.83877316,47.2498873 4.71126959,46.6613649 4.11955423,45.6467456 C1.5029261,41.1601115 0,35.9436437 0,30.3749276 C0,13.5991535 13.5991535,0 30.3749276,0 Z M39.6139269,9.41100356 C38.2818721,8.95956955 36.8517646,9.68621043 36.4119692,11.0109524 L29.9425479,30.4181861 C26.4198589,30.6460146 23.6249437,33.5452653 23.6249437,37.1249115 C23.6249437,38.3609735 23.9814148,39.5032055 24.5614916,40.4999034 L36.1883636,40.4999034 C36.7684403,39.5032055 37.1249115,38.3609735 37.1249115,37.1249115 C37.1249115,35.0724986 36.1893935,33.2573899 34.7455875,32.019165 L41.2138757,12.6129613 C41.6548041,11.2871893 40.9396988,9.85285889 39.6139269,9.41100356 Z M10.1249759,30.3749276 C8.26135573,30.3749276 6.74998391,31.8862994 6.74998391,33.7499195 C6.74998391,35.6135397 8.26135573,37.1249115 10.1249759,37.1249115 C11.988596,37.1249115 13.4999678,35.6135397 13.4999678,33.7499195 C13.4999678,31.8862994 11.988596,30.3749276 10.1249759,30.3749276 Z M50.6248793,30.3749276 C48.7612592,30.3749276 47.2498873,31.8862994 47.2498873,33.7499195 C47.2498873,35.6135397 48.7612592,37.1249115 50.6248793,37.1249115 C52.4884994,37.1249115 53.9998713,35.6135397 53.9998713,33.7499195 C53.9998713,31.8862994 52.4884994,30.3749276 50.6248793,30.3749276 Z M45.5623914,13.5009978 C45.1489631,13.5009978 44.7629319,13.6001835 44.3969851,13.736242 L42.7600604,18.64578 C43.3591915,19.5887137 44.3621722,20.2499517 45.5623914,20.2509817 C47.4260115,20.2509817 48.9373833,18.7396099 48.9373833,16.8759897 C48.9373833,15.0123696 47.4260115,13.5009978 45.5623914,13.5009978 Z M15.1874638,13.4999678 C13.3238437,13.4999678 11.8124718,15.0113396 11.8124718,16.8749598 C11.8124718,18.7385799 13.3238437,20.2499517 15.1874638,20.2499517 C17.0510839,20.2499517 18.5624557,18.7385799 18.5624557,16.8749598 C18.5624557,15.0113396 17.0510839,13.4999678 15.1874638,13.4999678 Z M30.3749276,6.74998391 C28.5113075,6.74998391 27.0009656,8.26135573 27.0009656,10.1249759 C27.0009656,11.988596 28.5123374,13.4999678 30.3759575,13.4999678 C31.0794242,13.4999678 31.6953437,13.2342366 32.2364878,12.8661269 L33.2088785,9.94782174 C33.2942627,9.69043329 33.4556583,9.48268918 33.5727654,9.2443551 C33.1782885,7.81836744 31.9263651,6.74998391 30.3749276,6.74998391 Z"></path></clipPath></defs><g transform="translate(0.9999999999999964 3.552713678800501e-15)"><g clip-path="url(#i0)"><polygon points="0,0 60.7498552,0 60.7498552,47.2498873 0,47.2498873 0,0" stroke="none" fill="#151515"></polygon></g></g></svg>