<?xml version="1.0" encoding="UTF-8"?><svg version="1.1" width="54px" height="48px" viewBox="0 0 54.0 48.0" xmlns="http://www.w3.org/2000/svg" xmlns:xlink="http://www.w3.org/1999/xlink"><defs><clipPath id="i0"><path d="M22.7811957,25.3124397 C24.1791683,25.3124397 25.3124397,26.445711 25.3124397,27.8436836 L25.3124397,44.7186434 C25.3124397,46.116616 24.1791683,47.2498873 22.7811957,47.2498873 L2.53124397,47.2498873 C1.13327138,47.2498873 0,46.116616 0,44.7186434 L0,27.8436836 C0,26.445711 1.13327138,25.3124397 2.53124397,25.3124397 Z M51.4686273,25.3124397 C52.8665999,25.3124397 53.9998713,26.445711 53.9998713,27.8436836 L53.9998713,44.7186434 C53.9998713,46.116616 52.8665999,47.2498873 51.4686273,47.2498873 L31.2186756,47.2498873 C29.820703,47.2498873 28.6874316,46.116616 28.6874316,44.7186434 L28.6874316,27.8436836 C28.6874316,26.445711 29.820703,25.3124397 31.2186756,25.3124397 Z M51.4686273,0 C52.8665999,0 53.9998713,1.13327138 53.9998713,2.53124397 L53.9998713,19.4062037 C53.9998713,20.8041763 52.8665999,21.9374477 51.4686273,21.9374477 L31.2186756,21.9374477 C29.820703,21.9374477 28.6874316,20.8041763 28.6874316,19.4062037 L28.6874316,2.53124397 C28.6874316,1.13327138 29.820703,0 31.2186756,0 Z M22.7811957,0 C24.1791683,0 25.3124397,1.13327138 25.3124397,2.53124397 L25.3124397,19.4062037 C25.3124397,20.8041763 24.1791683,21.9374477 22.7811957,21.9374477 L2.53124397,21.9374477 C1.13327138,21.9374477 0,20.8041763 0,19.4062037 L0,2.53124397 C0,1.13327138 1.13327138,0 2.53124397,0 Z"></path></clipPath></defs><g clip-path="url(#i0)"><polygon points="0,0 53.9998713,0 53.9998713,47.2498873 0,47.2498873 0,0" stroke="none" fill="#151515"></polygon></g></svg>