<?xml version="1.0" encoding="UTF-8"?><svg version="1.1" width="55px" height="48px" viewBox="0 0 55.0 48.0" xmlns="http://www.w3.org/2000/svg" xmlns:xlink="http://www.w3.org/1999/xlink"><defs><clipPath id="i0"><path d="M13.2186842,33.7499195 C14.6166567,33.7499195 15.7499281,34.8831909 15.7499281,36.2811635 L15.7499281,44.7186434 C15.7499281,46.116616 14.6166567,47.2498873 13.2186842,47.2498873 L2.53124397,47.2498873 C1.13327138,47.2498873 0,46.116616 0,44.7186434 L0,36.2811635 C0,34.8831909 1.13327138,33.7499195 2.53124397,33.7499195 Z M51.4686273,33.7499195 C52.8665999,33.7499195 53.9998713,34.8831909 53.9998713,36.2811635 L53.9998713,44.7186434 C53.9998713,46.116616 52.8665999,47.2498873 51.4686273,47.2498873 L40.7811871,47.2498873 C39.3832145,47.2498873 38.2499431,46.116616 38.2499431,44.7186434 L38.2499431,36.2811635 C38.2499431,34.8831909 39.3832145,33.7499195 40.7811871,33.7499195 Z M32.3436042,33.7499195 C33.7415768,33.7499195 34.8748482,34.8831909 34.8748482,36.2811635 L34.8748482,44.7186434 C34.8748482,46.116616 33.7415768,47.2498873 32.3436042,47.2498873 L21.656164,47.2498873 C20.2581914,47.2498873 19.1249201,46.116616 19.1249201,44.7186434 L19.1249201,36.2811635 C19.1249201,34.8831909 20.2581914,33.7499195 21.656164,33.7499195 Z M32.3437072,16.8749598 C33.7416798,16.8749598 34.8749512,18.0082311 34.8749512,19.4062037 L34.8749512,27.8436836 C34.8749512,29.2416562 33.7416798,30.3749276 32.3436042,30.3749276 L21.656164,30.3749276 C20.2581914,30.3749276 19.1249201,29.2416562 19.1249201,27.8436836 L19.1249201,19.4062037 C19.1249201,18.0082311 20.2581914,16.8749598 21.656164,16.8749598 Z M13.2186842,16.8749598 C14.6166567,16.8749598 15.7499281,18.0082311 15.7499281,19.4062037 L15.7499281,27.8436836 C15.7499281,29.2416562 14.6166567,30.3749276 13.2186842,30.3749276 L2.53124397,30.3749276 C1.13327138,30.3749276 0,29.2416562 0,27.8436836 L0,19.4062037 C0,18.0082311 1.13327138,16.8749598 2.53124397,16.8749598 Z M51.4686273,16.8749598 C52.8665999,16.8749598 53.9998713,18.0082311 53.9998713,19.4062037 L53.9998713,27.8436836 C53.9998713,29.2416562 52.8665999,30.3749276 51.4686273,30.3749276 L40.7811871,30.3749276 C39.3832145,30.3749276 38.2499431,29.2416562 38.2499431,27.8436836 L38.2499431,19.4062037 C38.2499431,18.0082311 39.3832145,16.8749598 40.7811871,16.8749598 Z M13.2186842,0 C14.6166567,0 15.7499281,1.13327138 15.7499281,2.53124397 L15.7499281,10.9687238 C15.7499281,12.3666964 14.6166567,13.4999678 13.2186842,13.4999678 L2.53124397,13.4999678 C1.13327138,13.4999678 0,12.3666964 0,10.9687238 L0,2.53124397 C0,1.13327138 1.13327138,0 2.53124397,0 Z M51.4686273,0 C52.8665999,0 53.9998713,1.13327138 53.9998713,2.53124397 L53.9998713,10.9687238 C53.9998713,12.3666964 52.8665999,13.4999678 51.4686273,13.4999678 L40.7811871,13.4999678 C39.3832145,13.4999678 38.2499431,12.3666964 38.2499431,10.9687238 L38.2499431,2.53124397 C38.2499431,1.13327138 39.3832145,0 40.7811871,0 Z M32.3437072,0 C33.7416798,0 34.8749512,1.13327138 34.8749512,2.53124397 L34.8749512,10.9687238 C34.8749512,12.3666964 33.7416798,13.4999678 32.3436042,13.4999678 L21.656164,13.4999678 C20.2581914,13.4999678 19.1249201,12.3666964 19.1249201,10.9687238 L19.1249201,2.53124397 C19.1249201,1.13327138 20.2581914,0 21.656164,0 Z"></path></clipPath></defs><g transform="translate(0.9999999999999964 3.552713678800501e-15)"><g clip-path="url(#i0)"><polygon points="0,0 53.9998713,0 53.9998713,47.2498873 0,47.2498873 0,0" stroke="none" fill="#151515"></polygon></g></g></svg>