<svg xmlns="http://www.w3.org/2000/svg" width="24" height="24" viewBox="0 0 24 24">
  <path fill="#151515" fill-rule="evenodd" d="M16.9413778,17.499975 C17.2024627,17.499975 17.453019,17.3691922 17.5845113,17.1437212 C18.1659842,16.1466914 18.4999678,14.9874764 18.4999678,13.7499839 C18.4999678,10.0220341 15.4779337,7 11.7499839,7 C8.02203412,7 5,10.0220341 5,13.7499839 C5,14.9874764 5.33398358,16.1466914 5.9154565,17.1437212 C6.0469488,17.3691922 6.29750515,17.499975 6.55859003,17.499975 L16.9413778,17.499975 Z M11.7502128,9.99999642 C11.336075,9.99999642 11.0002146,9.66413244 11.0002146,9.24999464 C11.0002146,8.83585683 11.3358461,8.49999642 11.7499839,8.49999642 C12.0947478,8.49999642 12.372953,8.73741499 12.4606145,9.05430113 C12.4345907,9.10726426 12.398725,9.15342962 12.3797508,9.21062705 L12.163664,9.8591393 C12.0434097,9.94094147 11.9065387,9.99999642 11.7502128,9.99999642 Z M13.0418586,15.9999785 L10.4581092,15.9999785 C10.3292033,15.7784901 10.2499875,15.5246608 10.2499875,15.2499803 C10.2499875,14.4545034 10.8710798,13.8102255 11.6538995,13.7595969 L13.0915487,9.44687832 C13.189281,9.15249121 13.5070827,8.99101546 13.8030949,9.09133413 C14.0977109,9.1895242 14.2566231,9.50826428 14.1586391,9.80288028 L12.7212417,14.11537 C13.0420875,14.3905311 13.2499875,14.7938886 13.2499875,15.2499803 C13.2499875,15.5246608 13.1707645,15.7784901 13.0418586,15.9999785 Z M8.37499195,11.4999928 C7.96085415,11.4999928 7.62499374,11.1641289 7.62499374,10.7499911 C7.62499374,10.3358533 7.96085415,9.99999285 8.37499195,9.99999285 C8.78912976,9.99999285 9.12499374,10.3358533 9.12499374,10.7499911 C9.12499374,11.1641289 8.78912976,11.4999928 8.37499195,11.4999928 Z M15.1249759,11.5002217 C14.8582605,11.4999893 14.6353759,11.3530475 14.5022356,11.1435067 L14.8659967,10.0524982 C14.9473182,10.022263 15.0331029,10.0002217 15.1249759,10.0002217 C15.5391137,10.0002217 15.8749741,10.3360821 15.8749741,10.7502199 C15.8749741,11.1643577 15.5391137,11.5002217 15.1249759,11.5002217 Z M7.24999464,15.2499839 C6.83585683,15.2499839 6.49999642,14.9141199 6.49999642,14.4999821 C6.49999642,14.0858443 6.83585683,13.7499839 7.24999464,13.7499839 C7.66413244,13.7499839 7.99999642,14.0858443 7.99999642,14.4999821 C7.99999642,14.9141199 7.66413244,15.2499839 7.24999464,15.2499839 Z M16.2499732,15.2499839 C15.8358354,15.2499839 15.499975,14.9141199 15.499975,14.4999821 C15.499975,14.0858443 15.8358354,13.7499839 16.2499732,13.7499839 C16.664111,13.7499839 16.999975,14.0858443 16.999975,14.4999821 C16.999975,14.9141199 16.664111,15.2499839 16.2499732,15.2499839 Z"/>
</svg>
