<svg xmlns="http://www.w3.org/2000/svg" width="24" height="24" viewBox="0 0 24 24">
  <path fill="#151515" fill-rule="evenodd" d="M17.4374727,11.8749884 C17.7481333,11.8749884 17.9999714,11.6231503 17.9999714,11.3124897 L17.9999714,7.56249866 C17.9999714,7.25183808 17.7481333,7 17.4374727,7 L12.9374835,7 C12.6268229,7 12.3749848,7.25183808 12.3749848,7.56249866 L12.3749848,11.3124897 C12.3749848,11.6231503 12.6268229,11.8749884 12.9374835,11.8749884 L17.4374727,11.8749884 Z M11.0624879,11.8749884 C11.3731485,11.8749884 11.6249866,11.6231503 11.6249866,11.3124897 L11.6249866,7.56249866 C11.6249866,7.25183808 11.3731485,7 11.0624879,7 L6.56249866,7 C6.25183808,7 6,7.25183808 6,7.56249866 L6,11.3124897 C6,11.6231503 6.25183808,11.8749884 6.56249866,11.8749884 L11.0624879,11.8749884 Z M11.0624879,17.499975 C11.3731485,17.499975 11.6249866,17.2481369 11.6249866,16.9374763 L11.6249866,13.1874852 C11.6249866,12.8768247 11.3731485,12.6249866 11.0624879,12.6249866 L6.56249866,12.6249866 C6.25183808,12.6249866 6,12.8768247 6,13.1874852 L6,16.9374763 C6,17.2481369 6.25183808,17.499975 6.56249866,17.499975 L11.0624879,17.499975 Z M17.4374727,17.499975 C17.7481333,17.499975 17.9999714,17.2481369 17.9999714,16.9374763 L17.9999714,13.1874852 C17.9999714,12.8768247 17.7481333,12.6249866 17.4374727,12.6249866 L12.9374835,12.6249866 C12.6268229,12.6249866 12.3749848,12.8768247 12.3749848,13.1874852 L12.3749848,16.9374763 C12.3749848,17.2481369 12.6268229,17.499975 12.9374835,17.499975 L17.4374727,17.499975 Z"/>
</svg>
