<svg xmlns="http://www.w3.org/2000/svg" width="24" height="24" viewBox="0 0 24 24">
  <path fill="#151515" fill-rule="evenodd" d="M8.93748537,10 C9.24814594,10 9.49998403,9.74815476 9.49998403,9.43749419 L9.49998403,7.56249866 C9.49998403,7.25183808 9.24814594,7 8.93748537,7 L6.56249866,7 C6.25183808,7 6,7.25183808 6,7.56249866 L6,9.43749419 C6,9.74815476 6.25183808,10 6.56249866,10 L8.93748537,10 Z M17.4374727,10 C17.7481333,10 17.9999714,9.74815476 17.9999714,9.43749419 L17.9999714,7.56249866 C17.9999714,7.25183808 17.7481333,7 17.4374727,7 L15.062486,7 C14.7518254,7 14.4999874,7.25183808 14.4999874,7.56249866 L14.4999874,9.43749419 C14.4999874,9.74815476 14.7518254,10 15.062486,10 L17.4374727,10 Z M13.1874676,10 C13.4981511,10 13.7499822,9.74815476 13.7499822,9.43749419 L13.7499822,7.56249866 C13.7499822,7.25183808 13.4981511,7 13.1874905,7 L10.8124809,7 C10.5018203,7 10.2499822,7.25183808 10.2499822,7.56249866 L10.2499822,9.43749419 C10.2499822,9.74815476 10.5018203,10 10.8124809,10 L13.1874676,10 Z M13.1874676,13.7499911 C13.4981511,13.7499911 13.7499822,13.4981458 13.7499822,13.1874852 L13.7499822,11.3124897 C13.7499822,11.0018291 13.4981511,10.7499911 13.1874905,10.7499911 L10.8124809,10.7499911 C10.5018203,10.7499911 10.2499822,11.0018291 10.2499822,11.3124897 L10.2499822,13.1874852 C10.2499822,13.4981458 10.5018203,13.7499911 10.8124809,13.7499911 L13.1874676,13.7499911 Z M8.93748537,13.7499911 C9.24814594,13.7499911 9.49998403,13.4981458 9.49998403,13.1874852 L9.49998403,11.3124897 C9.49998403,11.0018291 9.24814594,10.7499911 8.93748537,10.7499911 L6.56249866,10.7499911 C6.25183808,10.7499911 6,11.0018291 6,11.3124897 L6,13.1874852 C6,13.4981458 6.25183808,13.7499911 6.56249866,13.7499911 L8.93748537,13.7499911 Z M17.4374727,13.7499911 C17.7481333,13.7499911 17.9999714,13.4981458 17.9999714,13.1874852 L17.9999714,11.3124897 C17.9999714,11.0018291 17.7481333,10.7499911 17.4374727,10.7499911 L15.062486,10.7499911 C14.7518254,10.7499911 14.4999874,11.0018291 14.4999874,11.3124897 L14.4999874,13.1874852 C14.4999874,13.4981458 14.7518254,13.7499911 15.062486,13.7499911 L17.4374727,13.7499911 Z M8.93748537,17.4999821 C9.24814594,17.4999821 9.49998403,17.2481369 9.49998403,16.9374763 L9.49998403,15.0624808 C9.49998403,14.7518202 9.24814594,14.4999821 8.93748537,14.4999821 L6.56249866,14.4999821 C6.25183808,14.4999821 6,14.7518202 6,15.0624808 L6,16.9374763 C6,17.2481369 6.25183808,17.4999821 6.56249866,17.4999821 L8.93748537,17.4999821 Z M17.4374727,17.4999821 C17.7481333,17.4999821 17.9999714,17.2481369 17.9999714,16.9374763 L17.9999714,15.0624808 C17.9999714,14.7518202 17.7481333,14.4999821 17.4374727,14.4999821 L15.062486,14.4999821 C14.7518254,14.4999821 14.4999874,14.7518202 14.4999874,15.0624808 L14.4999874,16.9374763 C14.4999874,17.2481369 14.7518254,17.4999821 15.062486,17.4999821 L17.4374727,17.4999821 Z M13.1874676,17.4999821 C13.4981282,17.4999821 13.7499663,17.2481369 13.7499663,16.9374763 L13.7499663,15.0624808 C13.7499663,14.7518202 13.4981282,14.4999821 13.1874676,14.4999821 L10.8124809,14.4999821 C10.5018203,14.4999821 10.2499822,14.7518202 10.2499822,15.0624808 L10.2499822,16.9374763 C10.2499822,17.2481369 10.5018203,17.4999821 10.8124809,17.4999821 L13.1874676,17.4999821 Z"/>
</svg>
