<?xml version="1.0" encoding="UTF-8"?><svg version="1.1" width="408px" height="115px" viewBox="0 0 408.0 115.0" xmlns="http://www.w3.org/2000/svg" xmlns:xlink="http://www.w3.org/1999/xlink"><defs><filter id="i0" x="-1.69902913%" y="-5.17241379%" filterUnits="userSpaceOnUse" width="102.427184%" height="108.62069%"><feGaussianBlur stdDeviation="1" in="SourceAlpha" result="i1"></feGaussianBlur><feOffset dx="0" dy="1" in="i1" result="i2"></feOffset><feColorMatrix values="0 0 0 0.0 0 0 0 0 0.0 0 0 0 0 0.0 0 0 0 0 0.12 0" type="matrix" in="i2"></feColorMatrix></filter><clipPath id="i3"><path d="M408,0 L408,112 L0,112 L0,0 L408,0 Z"></path></clipPath><clipPath id="i4"><path d="M408,0 L408,115 L0,115 L0,0 L408,0 Z"></path></clipPath><clipPath id="i5"><path d="M2.24999464,10.9999738 C3.49373557,10.9999738 4.49998927,12.0062275 4.49998927,13.2499684 C4.49998927,14.4937093 3.49373557,15.499963 2.24999464,15.499963 C1.0062537,15.499963 0,14.4937093 0,13.2499684 C0,12.0062275 1.0062537,10.9999738 2.24999464,10.9999738 Z M2.24999464,5.49998689 C3.49373557,5.49998689 4.49998927,6.50624059 4.49998927,7.74998152 C4.49998927,8.99372245 3.49373557,9.99997616 2.24999464,9.99997616 C1.0062537,9.99997616 0,8.99372245 0,7.74998152 C0,6.50624059 1.0062537,5.49998689 2.24999464,5.49998689 Z M2.24999464,0 C3.49373557,0 4.49998927,1.0062537 4.49998927,2.24999464 C4.49998927,3.49373557 3.49373557,4.49998927 2.24999464,4.49998927 C1.0062537,4.49998927 0,3.49373557 0,2.24999464 C0,1.0062537 1.0062537,0 2.24999464,0 Z"></path></clipPath><clipPath id="i6"><path d="M24,0 L24,24 L0,24 L0,0 L24,0 Z"></path></clipPath></defs><polygon points="0,0 408,0 408,112 0,112 0,0 0,0" stroke="none" fill="#000000" filter="url(#i0)"></polygon><g clip-path="url(#i3)"><polygon points="0,0 408,0 408,112 0,112 0,0" stroke="none" fill="#FFFFFF"></polygon></g><g clip-path="url(#i4)"><polygon points="0,0 408,0 408,115 0,115 0,0" stroke="none" fill="#E7F1FA"></polygon><polygon points="0,0 408,0 408,115 0,115 0,0 0,0" stroke="#BEE1F3" stroke-width="2" fill="none" stroke-miterlimit="5"></polygon></g><g transform="translate(24.0 67.0)"><text transform="translate(0.0 16.0)" font-family="RedHatText-Regular, Red Hat Text" font-size="16.0" font-weight="normal" fill="#0066CC" text-anchor="left" line-spacing="24.0">Optional link and/or secondary button</text></g><g transform="translate(24.0 24.0)"><text transform="translate(0.0 18.0)" font-family="RedHatDisplay-Medium, Red Hat Display" font-size="18.0" font-weight="500" fill="#151515" text-anchor="left" line-spacing="27.0">Header</text></g><g transform="translate(344.0 18.0)"><g transform="translate(8.0 6.0)"><g transform="translate(10.0 3.999999999999999)"><g clip-path="url(#i5)"><polygon points="0,0 4.49998927,0 4.49998927,15.499963 0,15.499963 0,0" stroke="none" fill="#151515"></polygon><g clip-path="url(#i6)"><polygon points="0,0 4.49998927,0 4.49998927,15.499963 0,15.499963 0,0" stroke="none" fill="#696E73"></polygon></g></g></g></g></g></svg>