<?xml version="1.0" encoding="UTF-8"?><svg version="1.1" width="83px" height="18px" viewBox="0 0 83.0 18.0" xmlns="http://www.w3.org/2000/svg" xmlns:xlink="http://www.w3.org/1999/xlink"><defs><clipPath id="i0"><path d="M74,0 C78.9705627,-9.13077564e-16 83,4.02943725 83,9 C83,13.9705627 78.9705627,18 74,18 L9,18 C4.02943725,18 6.08718376e-16,13.9705627 0,9 C-6.08718376e-16,4.02943725 4.02943725,9.13077564e-16 9,0 L74,0 Z"></path></clipPath><clipPath id="i1"><path d="M0.737117917,0.215863667 C1.02516502,-0.0719545556 1.4918082,-0.0719545556 1.77960353,0.215863667 L4.12499589,2.56125602 L6.47038824,0.215863667 C6.75843535,-0.0719545556 7.22505563,-0.0719545556 7.51287386,0.215863667 L8.03412811,0.737117917 C8.32194633,1.02516502 8.32194633,1.4918082 8.03412811,1.77960353 L5.68873575,4.12499589 L8.03412811,6.47038824 C8.32194633,6.75843535 8.32194633,7.22505563 8.03412811,7.51287386 L7.51287386,8.03412811 C7.22505563,8.32194633 6.75818358,8.32194633 6.47038824,8.03412811 L4.12499589,5.68873575 L1.77960353,8.03412811 C1.4918082,8.32194633 1.02493614,8.32194633 0.737117917,8.03412811 L0.215863667,7.51287386 C-0.0719545556,7.22482675 -0.0719545556,6.75818358 0.215863667,6.47038824 L2.56125602,4.12499589 L0.215863667,1.77960353 C-0.0719545556,1.49155643 -0.0719545556,1.02493614 0.215863667,0.737117917 Z"></path></clipPath><clipPath id="i2"><path d="M5.81248614,0 C9.02240891,0 11.6249723,2.60350179 11.6249723,5.81248614 C11.6249723,9.02334732 9.02240891,11.6249723 5.81248614,11.6249723 C2.60256338,11.6249723 0,9.02334732 0,5.81248614 C0,2.60350179 2.60256338,0 5.81248614,0 Z M6.28123502,5.06248793 L4.7812386,5.06248793 C4.62591976,5.06248793 4.49998927,5.18841842 4.49998927,5.34373726 L4.49998927,5.90623592 C4.49998927,6.06155476 4.62591976,6.18748525 4.7812386,6.18748525 L5.06248793,6.18748525 L5.06248793,7.68748167 L4.7812386,7.68748167 C4.62591976,7.68748167 4.49998927,7.81341216 4.49998927,7.968731 L4.49998927,8.53122966 C4.49998927,8.6865485 4.62591976,8.81247899 4.7812386,8.81247899 L6.84373368,8.81247899 C6.99905253,8.81247899 7.12498301,8.6865485 7.12498301,8.53122966 L7.12498301,7.968731 C7.12498301,7.81341216 6.99905253,7.68748167 6.84373368,7.68748167 L6.56248435,7.68748167 L6.56248435,5.34373726 C6.56248435,5.18841842 6.43655387,5.06248793 6.28123502,5.06248793 Z M5.81248614,2.57811885 C5.26882441,2.57811885 4.82811349,3.01882978 4.82811349,3.56249151 C4.82811349,4.10615324 5.26882441,4.54686416 5.81248614,4.54686416 C6.35614787,4.54686416 6.79685879,4.10615324 6.79685879,3.56249151 C6.79685879,3.01882978 6.35614787,2.57811885 5.81248614,2.57811885 Z"></path></clipPath><clipPath id="i3"><path d="M8,0 L8,18 L0,18 L0,0 L8,0 Z"></path></clipPath><clipPath id="i4"><path d="M4,0 L4,18 L0,18 L0,0 L4,0 Z"></path></clipPath></defs><g clip-path="url(#i0)"><polygon points="0,0 83,0 83,18 0,18 0,0" stroke="none" fill="#FFFFFF"></polygon><path d="M9,0 L74,0 C78.9705627,-9.13077564e-16 83,4.02943725 83,9 C83,13.9705627 78.9705627,18 74,18 L9,18 C4.02943725,18 6.08718376e-16,13.9705627 0,9 C-6.08718376e-16,4.02943725 4.02943725,9.13077564e-16 9,0 Z" stroke="#D2D2D2" stroke-width="4" fill="none" stroke-miterlimit="5"></path></g><g transform="translate(24.0 0.0)"><text transform="translate(0.0 12.0)" font-family="RedHatText-Regular, Red Hat Text" font-size="12.0" font-weight="normal" fill="#0066CC" text-anchor="left" line-spacing="18.0">Label</text></g><g transform="translate(58.0 -3.0)"><g transform="translate(8.0 8.0)"><g clip-path="url(#i1)"><polygon points="0,0 8.24999177,0 8.24999177,8.24999177 0,8.24999177 0,0" stroke="none" fill="#696E73"></polygon></g></g></g><g transform="translate(2.0 -3.0)"><g transform="translate(6.0 6.0)"><g clip-path="url(#i2)"><polygon points="0,0 11.6249723,0 11.6249723,11.6249723 0,11.6249723 0,0" stroke="none" fill="#0066CC"></polygon></g></g></g><g transform="translate(1.0 0.0)"><g clip-path="url(#i3)"><polygon points="0,0 8,0 8,18 0,18 0,0" stroke="none" fill="rgba(146, 211, 0, 0.9)"></polygon></g><g clip-path="url(#i3)"><polygon points="0,0 8,0 8,18 0,18 0,0 0,0" stroke="#7EB200" stroke-width="2" fill="none" stroke-miterlimit="5"></polygon></g><g transform="translate(20.0 0.0)"><g clip-path="url(#i4)"><polygon points="0,0 4,0 4,18 0,18 0,0" stroke="none" fill="rgba(236, 121, 8, 0.9)"></polygon></g><g clip-path="url(#i4)"><polygon points="0,0 4,0 4,18 0,18 0,0 0,0" stroke="#C67000" stroke-width="2" fill="none" stroke-miterlimit="5"></polygon></g></g><g transform="translate(54.0 0.0)"><g clip-path="url(#i4)"><polygon points="0,0 4,0 4,18 0,18 0,0" stroke="none" fill="rgba(236, 121, 8, 0.9)"></polygon></g><g clip-path="url(#i4)"><polygon points="0,0 4,0 4,18 0,18 0,0 0,0" stroke="#C67000" stroke-width="2" fill="none" stroke-miterlimit="5"></polygon></g></g><g transform="translate(74.0 0.0)"><g clip-path="url(#i3)"><polygon points="0,0 8,0 8,18 0,18 0,0" stroke="none" fill="rgba(146, 211, 0, 0.9)"></polygon></g><g clip-path="url(#i3)"><polygon points="0,0 8,0 8,18 0,18 0,0 0,0" stroke="#7EB200" stroke-width="2" fill="none" stroke-miterlimit="5"></polygon></g></g></g></svg>