<?xml version="1.0" encoding="UTF-8"?><svg version="1.1" width="24px" height="24px" viewBox="0 0 24.0 24.0" xmlns="http://www.w3.org/2000/svg" xmlns:xlink="http://www.w3.org/1999/xlink"><defs><clipPath id="i0"><path d="M8.5666876,0.281275969 C10.2025937,-0.0843390041 11.965117,-0.103061494 13.6853888,0.281275969 C13.9432007,0.33753499 14.126031,0.567240253 14.126031,0.829721317 L14.126031,3.1313058 C15.1713319,3.49692077 16.1369821,4.05470447 16.9760151,4.77659606 L18.9729128,3.62349212 C19.1979031,3.49220581 19.4885366,3.5390807 19.666652,3.73129521 C20.8244709,4.98753306 21.7103788,6.49691362 22.2307175,8.16564133 C22.305699,8.41878403 22.2025651,8.69064923 21.9729056,8.82188976 L19.9760079,9.97503948 C20.1775608,11.0625003 20.1775608,12.1781592 19.9760079,13.26562 L21.9729056,14.4187697 C22.2025651,14.5500103 22.305699,14.8218755 22.2353867,15.0796873 C21.7150938,16.75313 20.8291401,18.2625106 19.6713212,19.5140792 C19.4932057,19.7109171 19.2072872,19.7531229 18.977582,19.6218823 L16.98073,18.4687326 C16.1369821,19.185955 15.1713319,19.7437387 14.1307002,20.1140686 L14.1307002,22.4203223 C14.1307002,22.6828034 13.9479156,22.9125086 13.6901037,22.9687219 C12.0541518,23.3343826 10.2916743,23.3531051 8.57135678,22.9687219 C8.3135449,22.9125086 8.13071452,22.6828034 8.13071452,22.4203223 L8.13071452,20.1140686 C7.08541367,19.7484537 6.11980928,19.1906242 5.28073047,18.4687326 L3.28387854,19.6218823 C3.05888824,19.7531229 2.76825477,19.706248 2.59013935,19.5140792 C1.43232046,18.2577956 0.54636676,16.7484608 0.0260738113,15.0796873 C-0.0489534757,14.8265904 0.0541804337,14.5546794 0.283885697,14.4234389 L2.28073763,13.270335 C2.07918476,12.1828284 2.07918476,11.0672152 2.28073763,9.97970866 L0.283885697,8.82660472 C0.0541804337,8.69531841 -0.053622654,8.42345321 0.0260738113,8.17035628 C0.54636676,6.49691362 1.43232046,4.98753306 2.59013935,3.73596439 C2.76825477,3.5390807 3.05417328,3.49692077 3.28387854,3.6281613 L5.27606129,4.78126524 C6.11980928,4.06408861 7.08541367,3.5063049 8.12604534,3.13597497 L8.12604534,0.829721317 C8.12604534,0.567240253 8.30887572,0.33753499 8.5666876,0.281275969 Z M11.1260382,7.87033869 C9.05887393,7.87033869 7.37604713,9.55316548 7.37604713,11.6203297 C7.37604713,13.687494 9.05887393,15.3703208 11.1260382,15.3703208 C13.1932025,15.3703208 14.8760293,13.687494 14.8760293,11.6203297 C14.8760293,9.55316548 13.1932025,7.87033869 11.1260382,7.87033869 Z"></path></clipPath></defs><g transform="translate(1.0 0.0)"><g clip-path="url(#i0)"><polygon points="3.55271368e-15,-8.8817842e-15 22.2571721,-8.8817842e-15 22.2571721,23.2500322 3.55271368e-15,23.2500322 3.55271368e-15,-8.8817842e-15" stroke="none" fill="#696E73"></polygon></g></g></svg>