<?xml version="1.0" encoding="UTF-8"?>
<svg width="24px" height="24px" viewBox="0 0 24 24" version="1.1" xmlns="http://www.w3.org/2000/svg" xmlns:xlink="http://www.w3.org/1999/xlink">
    <title></title>
    <g id="Icons" stroke="none" stroke-width="1" fill="none" fill-rule="evenodd">
        <g id="Icons/3.-Size-lg/Actions/cog" fill="#6A6E73">
            <path d="M14.6901037,22.9687219 C14.9479156,22.9125086 15.1307002,22.6828034 15.1307002,22.4203223 L15.1307002,20.1140686 C16.1713319,19.7437387 17.1369821,19.185955 17.98073,18.4687326 L19.977582,19.6218823 C20.2072872,19.7531229 20.4932057,19.7109171 20.6713212,19.5140792 C21.8291401,18.2625106 22.7150938,16.75313 23.2353867,15.0796873 C23.305699,14.8218755 23.2025651,14.5500103 22.9729056,14.4187697 L20.9760079,13.26562 C21.1775608,12.1781592 21.1775608,11.0625003 20.9760079,9.97503948 L22.9729056,8.82188976 C23.2025651,8.69064923 23.305699,8.41878403 23.2307175,8.16564133 C22.7103788,6.49691362 21.8244709,4.98753306 20.666652,3.73129521 C20.4885366,3.5390807 20.1979031,3.49220581 19.9729128,3.62349212 L17.9760151,4.77659606 C17.1369821,4.05470447 16.1713319,3.49692077 15.126031,3.1313058 L15.126031,0.829721317 C15.126031,0.567240253 14.9432007,0.33753499 14.6853888,0.281275969 C12.965117,-0.103061494 11.2025937,-0.0843390041 9.5666876,0.281275969 C9.30887572,0.33753499 9.12604534,0.567240253 9.12604534,0.829721317 L9.12604534,3.13597497 C8.08541367,3.5063049 7.11980928,4.06408861 6.27606129,4.78126524 L4.28387854,3.6281613 C4.05417328,3.49692077 3.76825477,3.5390807 3.59013935,3.73596439 C2.43232046,4.98753306 1.54636676,6.49691362 1.02607381,8.17035628 C0.946377346,8.42345321 1.05418043,8.69531841 1.2838857,8.82660472 L3.28073763,9.97970866 C3.07918476,11.0672152 3.07918476,12.1828284 3.28073763,13.270335 L1.2838857,14.4234389 C1.05418043,14.5546794 0.951046524,14.8265904 1.02607381,15.0796873 C1.54636676,16.7484608 2.43232046,18.2577956 3.59013935,19.5140792 C3.76825477,19.706248 4.05888824,19.7531229 4.28387854,19.6218823 L6.28073047,18.4687326 C7.11980928,19.1906242 8.08541367,19.7484537 9.13071452,20.1140686 L9.13071452,22.4203223 C9.13071452,22.6828034 9.3135449,22.9125086 9.57135678,22.9687219 C11.2916743,23.3531051 13.0541518,23.3343826 14.6901037,22.9687219 Z M12.1260382,15.3703208 C10.0588739,15.3703208 8.37604713,13.687494 8.37604713,11.6203297 C8.37604713,9.55316548 10.0588739,7.87033869 12.1260382,7.87033869 C14.1932025,7.87033869 15.8760293,9.55316548 15.8760293,11.6203297 C15.8760293,13.687494 14.1932025,15.3703208 12.1260382,15.3703208 Z" id="cog"></path>
        </g>
    </g>
</svg>