<?xml version="1.0" encoding="UTF-8"?><svg version="1.1" width="24px" height="24px" viewBox="0 0 24.0 24.0" xmlns="http://www.w3.org/2000/svg" xmlns:xlink="http://www.w3.org/1999/xlink"><defs><clipPath id="i0"><path d="M21.7499481,0 C22.9925904,0 23.9999428,1.00735233 23.9999428,2.24999464 L23.9999428,18.7499553 C23.9999428,19.9925976 22.9925904,20.9999499 21.7499481,20.9999499 L2.24999464,20.9999499 C1.00735233,20.9999499 0,19.9925976 0,18.7499553 L0,2.24999464 C0,1.00735233 1.00735233,0 2.24999464,0 Z M10.499975,5.99998569 L2.99999285,5.99998569 L2.99999285,17.9999571 L10.499975,17.9999571 L10.499975,5.99998569 Z M20.9999499,5.99998569 L13.4999678,5.99998569 L13.4999678,17.9999571 L20.9999499,17.9999571 L20.9999499,5.99998569 Z"></path></clipPath></defs><g transform="translate(0.0 2.0)"><g clip-path="url(#i0)"><polygon points="0,0 23.9999428,0 23.9999428,20.9999499 0,20.9999499 0,0" stroke="none" fill="#696E73"></polygon></g></g></svg>