<?xml version="1.0" encoding="UTF-8"?><svg version="1.1" width="24px" height="24px" viewBox="0 0 24.0 24.0" xmlns="http://www.w3.org/2000/svg" xmlns:xlink="http://www.w3.org/1999/xlink"><defs><clipPath id="i0"><path d="M19.8726066,13.4976218 C20.8757475,13.4976218 21.3772722,14.7069847 20.6694797,15.414823 L19.1226084,16.8726137 L23.7772756,21.5319959 C24.0679091,21.8225836 24.0679091,22.3007166 23.7772756,22.5913501 L22.5866809,23.7819906 C22.2960475,24.0725783 21.8179144,24.0725783 21.527281,23.7819906 L16.8726137,19.1272775 L15.4194922,20.6694797 C14.7116997,21.3772722 13.4976218,20.8757475 13.4976218,19.8726066 L13.4976218,14.6226191 C13.4976218,13.9991922 13.9991922,13.4976218 14.6226191,13.4976218 Z M9.37263162,13.4976218 C9.99605847,13.4976218 10.4976289,13.9991922 10.4976289,14.6226191 L10.4976289,19.8726066 C10.4976289,20.8757475 9.28826597,21.3772722 8.58042769,20.6694797 L7.12263698,19.1226084 L2.46796973,23.7772756 C2.17733627,24.0679091 1.69920325,24.0679091 1.40856979,23.7772756 L0.217975097,22.5866809 C-0.0726583656,22.2960475 -0.0726583656,21.8179144 0.217975097,21.527281 L4.86797317,16.8726137 L3.32577103,15.4194922 C2.61797853,14.7069847 3.11950321,13.4976218 4.12264413,13.4976218 Z M21.527281,0.217975097 C21.8179144,-0.0726583656 22.2960475,-0.0726583656 22.5866809,0.217975097 L23.7772756,1.40856979 C24.0679091,1.69920325 24.0679091,2.17733627 23.7772756,2.46796973 L19.1226084,7.12263698 L20.6694797,8.57575851 C21.3772722,9.28355102 20.8757475,10.4976289 19.8726066,10.4976289 L14.6226191,10.4976289 C13.9991922,10.4976289 13.4976218,9.99605847 13.4976218,9.37263162 L13.4976218,4.12264413 C13.4976218,3.11950321 14.7069847,2.61797853 15.414823,3.32577103 L16.8726137,4.87264234 Z M1.40856979,0.217975097 C1.69920325,-0.0726583656 2.17733627,-0.0726583656 2.46796973,0.217975097 L7.12263698,4.87264234 L8.57575851,3.33044021 C9.28355102,2.62264771 10.4976289,3.12421817 10.4976289,4.12264413 L10.4976289,9.37263162 C10.4976289,9.99605847 9.99605847,10.4976289 9.37263162,10.4976289 L4.12264413,10.4976289 C3.11950321,10.4976289 2.61797853,9.28826597 3.32577103,8.58042769 L4.87264234,7.12263698 L0.217975097,2.46796973 C-0.0726583656,2.17733627 -0.0726583656,1.69920325 0.217975097,1.40856979 Z"></path></clipPath></defs><g clip-path="url(#i0)"><polygon points="-2.77555756e-17,-2.77555756e-17 23.9952507,-2.77555756e-17 23.9952507,23.9999313 -2.77555756e-17,23.9999313 -2.77555756e-17,-2.77555756e-17" stroke="none" fill="#696E73"></polygon></g></svg>