<?xml version="1.0" encoding="UTF-8"?><svg version="1.1" width="24px" height="24px" viewBox="0 0 24.0 24.0" xmlns="http://www.w3.org/2000/svg" xmlns:xlink="http://www.w3.org/1999/xlink"><defs><clipPath id="i0"><path d="M6.3749848,13.4999678 C6.99841166,13.4999678 7.49998212,14.0015383 7.49998212,14.6249651 L7.49998212,20.4374513 C7.49998212,20.7468072 7.24683941,20.9999499 6.93748346,20.9999499 L5.06248793,20.9999499 C4.75313198,20.9999499 4.49998927,20.7468072 4.49998927,20.4374513 L4.49998927,16.4999678 L0.562498659,16.4999678 C0.253142707,16.4999678 0,16.246818 0,15.937462 L0,14.0624665 C0,13.7531105 0.253142707,13.4999678 0.562498659,13.4999678 Z M20.4374513,13.4999678 C20.7468072,13.4999678 20.9999499,13.7531105 20.9999499,14.0624665 L20.9999499,15.937462 C20.9999499,16.246818 20.7468072,16.4999678 20.4374513,16.4999678 L16.4999678,16.4999678 L16.4999678,20.4374513 C16.4999678,20.7468072 16.246818,20.9999499 15.937462,20.9999499 L14.0624665,20.9999499 C13.7531105,20.9999499 13.4999678,20.7468072 13.4999678,20.4374513 L13.4999678,14.6249651 C13.4999678,14.0015383 14.0015383,13.4999678 14.6249651,13.4999678 Z M15.937462,0 C16.246818,0 16.4999678,0.253142707 16.4999678,0.562498659 L16.4999678,4.49998927 L20.4374513,4.49998927 C20.7468072,4.49998927 20.9999499,4.75313198 20.9999499,5.06248793 L20.9999499,6.93748346 C20.9999499,7.24683941 20.7468072,7.49998212 20.4374513,7.49998212 L14.6249651,7.49998212 C14.0015383,7.49998212 13.4999678,6.99841166 13.4999678,6.3749848 L13.4999678,0.562498659 C13.4999678,0.253142707 13.7531105,0 14.0624665,0 Z M6.93748346,0 C7.24683941,0 7.49998212,0.253142707 7.49998212,0.562498659 L7.49998212,6.3749848 C7.49998212,6.99841166 6.99841166,7.49998212 6.3749848,7.49998212 L0.562498659,7.49998212 C0.253142707,7.49998212 0,7.24683941 0,6.93748346 L0,5.06248793 C0,4.75313198 0.253142707,4.49998927 0.562498659,4.49998927 L4.49998927,4.49998927 L4.49998927,0.562498659 C4.49998927,0.253142707 4.75313198,0 5.06248793,0 Z"></path></clipPath></defs><g transform="translate(2.0 2.0)"><g clip-path="url(#i0)"><polygon points="0,0 20.9999499,0 20.9999499,20.9999499 0,20.9999499 0,0" stroke="none" fill="#696E73"></polygon></g></g></svg>