<?xml version="1.0" encoding="UTF-8"?><svg version="1.1" width="24px" height="24px" viewBox="0 0 24.0 24.0" xmlns="http://www.w3.org/2000/svg" xmlns:xlink="http://www.w3.org/1999/xlink"><defs><clipPath id="i0"><path d="M4.49998927,4.49998927 L4.49998927,18.3749562 C4.49998927,19.8224015 5.67753773,20.9999499 7.12498301,20.9999499 L14.9999642,20.9999499 L14.9999642,22.8749455 C14.9999642,23.4962666 14.4962881,23.9999428 13.8749669,23.9999428 L1.12499732,23.9999428 C0.503676167,23.9999428 0,23.4962666 0,22.8749455 L0,5.62498659 C0,5.00366544 0.503676167,4.49998927 1.12499732,4.49998927 L4.49998927,4.49998927 Z M14.9999642,0 L14.9999642,4.87498838 C14.9999642,5.49374606 15.5062039,5.99998569 16.1249616,5.99998569 L20.9999499,5.99998569 L20.9999499,18.3749562 C20.9999499,18.9962773 20.4962738,19.4999535 19.8749526,19.4999535 L7.12498301,19.4999535 C6.50366186,19.4999535 5.99998569,18.9962773 5.99998569,18.3749562 L5.99998569,1.12499732 C5.99998569,0.503676167 6.50366186,0 7.12498301,0 L14.9999642,0 Z M16.7839566,0 C17.0411734,0 17.3975415,0.147628432 17.5794564,0.329497505 L20.6704524,3.42049355 C20.8523215,3.6024084 20.9999499,3.95877657 20.9999499,4.21599337 L20.9999499,4.49998927 L16.4999607,4.49998927 L16.4999607,0 Z"></path></clipPath></defs><g transform="translate(2.0 0.0)"><g clip-path="url(#i0)"><polygon points="0,0 20.9999499,0 20.9999499,23.9999428 0,23.9999428 0,0" stroke="none" fill="#696E73"></polygon></g></g></svg>