<?xml version="1.0" encoding="UTF-8"?><svg version="1.1" width="24px" height="24px" viewBox="0 0 24.0 24.0" xmlns="http://www.w3.org/2000/svg" xmlns:xlink="http://www.w3.org/1999/xlink"><defs><clipPath id="i0"><path d="M20.4374513,13.4999678 C20.7468072,13.4999678 20.9999499,13.7531105 20.9999499,14.0624665 L20.9999499,19.8749526 C20.9999499,20.4983795 20.4983795,20.9999499 19.8749526,20.9999499 L14.0624665,20.9999499 C13.7531105,20.9999499 13.4999678,20.7468072 13.4999678,20.4374513 L13.4999678,18.5624557 C13.4999678,18.2530998 13.7531105,17.9999571 14.0624665,17.9999571 L17.9999571,17.9999571 L17.9999571,14.0624665 C17.9999571,13.7531105 18.2530998,13.4999678 18.5624557,13.4999678 Z M2.43749419,13.4999678 C2.74685014,13.4999678 3,13.7531105 3,14.0624665 L3,17.9999571 L6.93748346,17.9999571 C7.24683941,17.9999571 7.49998212,18.2530998 7.49998212,18.5624557 L7.49998212,20.4374513 C7.49998212,20.7468072 7.24683941,20.9999499 6.93748346,20.9999499 L1.12499732,20.9999499 C0.501570459,20.9999499 0,20.4983795 0,19.8749526 L0,14.0624665 C0,13.7531105 0.253142707,13.4999678 0.562498659,13.4999678 Z M6.93748346,0 C7.24683941,0 7.49998212,0.253142707 7.49998212,0.562498659 L7.49998212,2.43749419 C7.49998212,2.74685014 7.24683941,3 6.93748346,3 L3,3 L3,6.93748346 C3,7.24683941 2.74685014,7.49998212 2.43749419,7.49998212 L0.562498659,7.49998212 C0.253142707,7.49998212 0,7.24683941 0,6.93748346 L0,1.12499732 C0,0.501570459 0.501570459,0 1.12499732,0 Z M19.8749526,0 C20.4983795,0 20.9999499,0.501570459 20.9999499,1.12499732 L20.9999499,6.93748346 C20.9999499,7.24683941 20.7468072,7.49998212 20.4374513,7.49998212 L18.5624557,7.49998212 C18.2530998,7.49998212 17.9999571,7.24683941 17.9999571,6.93748346 L17.9999571,3 L14.0624665,3 C13.7531105,3 13.4999678,2.74685014 13.4999678,2.43749419 L13.4999678,0.562498659 C13.4999678,0.253142707 13.7531105,0 14.0624665,0 Z"></path></clipPath></defs><g transform="translate(2.0 2.0)"><g clip-path="url(#i0)"><polygon points="0,0 20.9999499,0 20.9999499,20.9999499 0,20.9999499 0,0" stroke="none" fill="#696E73"></polygon></g></g></svg>