<?xml version="1.0" encoding="UTF-8"?><svg version="1.1" width="24px" height="24px" viewBox="0 0 24.0 24.0" xmlns="http://www.w3.org/2000/svg" xmlns:xlink="http://www.w3.org/1999/xlink"><defs><clipPath id="i0"><path d="M6.3749848,0 C7.37762218,0 7.87919264,1.21407792 7.1718579,1.92187042 L5.47497779,3.61875053 L10.499975,8.6437477 L15.5263912,3.61403557 L13.828092,1.92187042 C13.1207573,1.21407792 13.6223278,0 14.6249651,0 L19.8777907,0 C20.4972351,0 20.9999499,0.502714866 20.9999499,1.12215919 L20.9999499,6.3749848 C20.9999499,7.37812572 19.7863756,7.8796504 19.0780795,7.1718579 L17.3816572,5.47497779 L12.3534099,10.499975 L17.3821607,15.5296413 L19.0780795,13.8327612 C19.785872,13.1202995 20.9999499,13.6218242 20.9999499,14.6249651 L20.9999499,19.8777907 C20.9999499,20.4972351 20.4972351,20.9999499 19.8777907,20.9999499 L14.6249651,20.9999499 C13.6223278,20.9999499 13.1207573,19.785872 13.828092,19.0780795 L15.5249721,17.3811994 L10.499975,12.3562022 L5.47355873,17.3859144 L7.1718579,19.0780795 C7.87919264,19.785872 7.37762218,20.9999499 6.3749848,20.9999499 L1.12215919,20.9999499 C0.502714866,20.9999499 0,20.4972351 0,19.8777907 L0,14.6249651 C0,13.6218242 1.21357438,13.1202995 1.92187042,13.828092 L3.61829276,15.5249721 L8.64654005,10.499975 L3.61778923,5.47030861 L1.92187042,7.1718579 C1.21407792,7.8796504 0,7.37812572 0,6.3749848 L0,1.12215919 C0,0.502714866 0.502714866,0 1.12215919,0 Z"></path></clipPath></defs><g transform="translate(2.0 2.0)"><g clip-path="url(#i0)"><polygon points="0,0 20.9999499,0 20.9999499,20.9999499 0,20.9999499 0,0" stroke="none" fill="#696E73"></polygon></g></g></svg>