<?xml version="1.0" encoding="UTF-8"?>
<svg width="24px" height="24px" viewBox="0 0 24 24" version="1.1" xmlns="http://www.w3.org/2000/svg" xmlns:xlink="http://www.w3.org/1999/xlink">
    <title></title>
    <g id="Icons" stroke="none" stroke-width="1" fill="none" fill-rule="evenodd">
        <g id="Icons/3.-Size-lg/Actions/external-link-alt" fill="#6A6E73">
            <path d="M8.18763307,18.0027037 C8.44549073,18.0027037 8.80249977,17.8544801 8.98450617,17.6718329 L20.4037142,6.24937475 L22.0780724,7.92185611 C22.7811957,8.62497944 23.9999428,8.13279311 23.9999428,7.12498301 L23.9999428,1.12499732 C23.9999428,0.503996601 23.4959462,0 22.8749455,0 L16.8749598,0 C15.8732379,0 15.3726288,1.21453568 16.0780867,1.92187042 L17.7529484,3.59673215 L6.32810991,15.0173134 C6.14546264,15.1993198 5.99723912,15.5563289 5.99723912,15.8141865 C5.99723912,16.0720442 6.14546264,16.4290532 6.32810991,16.6110596 L7.39075997,17.6718329 C7.57276637,17.8544801 7.92977541,18.0027037 8.18763307,18.0027037 Z M18.7499553,23.9999428 C19.9919567,23.9999428 20.9999499,22.9919496 20.9999499,21.7499481 L20.9999499,15.7499624 C20.9999499,15.335962 20.6639522,14.9999642 20.2499517,14.9999642 L18.7499553,14.9999642 C18.3359548,14.9999642 17.9999571,15.335962 17.9999571,15.7499624 L17.9999571,20.9999499 L3,20.9999499 L3,5.99999285 L9.74997675,5.99999285 C10.1639772,5.99999285 10.499975,5.66398796 10.499975,5.24998748 L10.499975,3.74999106 C10.499975,3.33599058 10.1639772,2.99999285 9.74997675,2.99999285 L2.24999464,2.99999285 C1.0079932,2.99999285 0,4.00798605 0,5.24998748 L0,21.7499481 C0,22.9919496 1.0079932,23.9999428 2.24999464,23.9999428 L18.7499553,23.9999428 Z" id="external-link-alt"></path>
        </g>
    </g>
</svg>