<?xml version="1.0" encoding="UTF-8"?><svg version="1.1" width="24px" height="24px" viewBox="0 0 24.0 24.0" xmlns="http://www.w3.org/2000/svg" xmlns:xlink="http://www.w3.org/1999/xlink"><defs><clipPath id="i0"><path d="M9.74997675,2.99999285 C10.1639772,2.99999285 10.499975,3.33599058 10.499975,3.74999106 L10.499975,5.24998748 C10.499975,5.66398796 10.1639772,5.99999285 9.74997675,5.99999285 L3,5.99999285 L3,20.9999499 L17.9999571,20.9999499 L17.9999571,15.7499624 C17.9999571,15.335962 18.3359548,14.9999642 18.7499553,14.9999642 L20.2499517,14.9999642 C20.6639522,14.9999642 20.9999499,15.335962 20.9999499,15.7499624 L20.9999499,21.7499481 C20.9999499,22.9919496 19.9919567,23.9999428 18.7499553,23.9999428 L2.24999464,23.9999428 C1.0079932,23.9999428 0,22.9919496 0,21.7499481 L0,5.24998748 C0,4.00798605 1.0079932,2.99999285 2.24999464,2.99999285 Z M22.8749455,0 C23.4959462,0 23.9999428,0.503996601 23.9999428,1.12499732 L23.9999428,7.12498301 C23.9999428,8.13279311 22.7811957,8.62497944 22.0780724,7.92185611 L20.4037142,6.24937475 L8.98450617,17.6718329 C8.80249977,17.8544801 8.44549073,18.0027037 8.18763307,18.0027037 C7.92977541,18.0027037 7.57276637,17.8544801 7.39075997,17.6718329 L6.32810991,16.6110596 C6.14546264,16.4290532 5.99723912,16.0720442 5.99723912,15.8141865 C5.99723912,15.5563289 6.14546264,15.1993198 6.32810991,15.0173134 L17.7529484,3.59673215 L16.0780867,1.92187042 C15.3726288,1.21453568 15.8732379,0 16.8749598,0 Z"></path></clipPath></defs><g clip-path="url(#i0)"><polygon points="0,0 23.9999428,0 23.9999428,23.9999428 0,23.9999428 0,0" stroke="none" fill="#696E73"></polygon></g></svg>