<?xml version="1.0" encoding="UTF-8"?><svg version="1.1" width="24px" height="24px" viewBox="0 0 24.0 24.0" xmlns="http://www.w3.org/2000/svg" xmlns:xlink="http://www.w3.org/1999/xlink"><defs><clipPath id="i0"><path d="M11.6249723,0 C18.046832,0 23.2499446,5.20311259 23.2499446,11.6249723 C23.2499446,18.046832 18.046832,23.2499446 11.6249723,23.2499446 C5.20311259,23.2499446 0,18.046832 0,11.6249723 C0,5.20311259 5.20311259,0 11.6249723,0 Z M17.8124575,9.74997675 L5.43748704,9.74997675 C5.12813108,9.74997675 4.87498838,10.0031195 4.87498838,10.3124754 L4.87498838,12.9374692 C4.87498838,13.2468251 5.12813108,13.4999678 5.43748704,13.4999678 L17.8124575,13.4999678 C18.1218135,13.4999678 18.3749562,13.2468251 18.3749562,12.9374692 L18.3749562,10.3124754 C18.3749562,10.0031195 18.1218135,9.74997675 17.8124575,9.74997675 Z"></path></clipPath></defs><g clip-path="url(#i0)"><polygon points="0,0 23.2499446,0 23.2499446,23.2499446 0,23.2499446 0,0" stroke="none" fill="#696E73"></polygon></g></svg>