<?xml version="1.0" encoding="UTF-8"?>
<svg width="24px" height="24px" viewBox="0 0 24 24" version="1.1" xmlns="http://www.w3.org/2000/svg" xmlns:xlink="http://www.w3.org/1999/xlink">
    <title></title>
    <g id="Icons" stroke="none" stroke-width="1" fill="none" fill-rule="evenodd">
        <g id="Icons/3.-Size-lg/Actions/panel-close" fill="#6A6E73">
            <path d="M23.4367277,3 L21.5591535,3 C21.2480629,3 20.9958812,3.25133784 20.9958812,3.56138746 L20.9958812,20.4386125 C20.9958812,20.7486622 21.2480629,21 21.5591535,21 L23.4367277,21 C23.7478183,21 24,20.7486622 24,20.4386125 L24,3.56138746 C24,3.25133784 23.7478183,3 23.4367277,3 M0.273627353,12.5028792 L1.07860858,13.2913159 C1.09148117,13.3039239 1.10472823,13.3160047 1.11816252,13.3277416 L7.50785608,19.5860871 C7.87346089,19.9441778 8.46623171,19.9441778 8.83183652,19.5860871 L9.6341028,18.8003095 C9.99970761,18.4422189 9.99970761,17.861654 9.6341028,17.5035633 L5.37016447,13.3272373 L16.0871529,13.3272373 C16.6041861,13.3272373 17.0233409,12.9167202 17.0233409,12.4102905 L17.0233409,11.2990197 C17.0233409,10.7926129 16.6041861,10.3820729 16.0871529,10.3820729 L5.37016447,10.3820729 L9.6341028,6.2057698 C9.99973102,5.84767914 9.99973102,5.26709133 9.6341028,4.90900067 L8.83183652,4.12322309 C8.46623171,3.76513243 7.87346089,3.76513243 7.50785608,4.12322309 L1.11825614,10.3814769 C1.10479844,10.3932367 1.09150457,10.4053404 1.07858518,10.4179943 L0.273627353,11.2064081 C0.0908366511,11.3854419 -0.000348057457,11.6201803 9.99114206e-07,11.8548041 C-0.000277843359,12.0893362 0.0909302699,12.323937 0.273627353,12.5028792" id="Fill-4-2"></path>
        </g>
    </g>
</svg>