<?xml version="1.0" encoding="UTF-8"?><svg version="1.1" width="24px" height="24px" viewBox="0 0 24.0 24.0" xmlns="http://www.w3.org/2000/svg" xmlns:xlink="http://www.w3.org/1999/xlink"><defs><clipPath id="i0"><path d="M23.4367277,0 C23.7478183,0 24,0.251337843 24,0.561387459 L24,17.4386125 C24,17.7486622 23.7478183,18 23.4367277,18 L21.5591535,18 C21.2480629,18 20.9958812,17.7486622 20.9958812,17.4386125 L20.9958812,0.561387459 C20.9958812,0.251337843 21.2480629,0 21.5591535,0 Z M7.50785608,1.12322309 C7.87346089,0.765132433 8.46623171,0.765132433 8.83183652,1.12322309 L9.6341028,1.90900067 C9.99973102,2.26709133 9.99973102,2.84767914 9.6341028,3.2057698 L5.37016446,7.38207288 L16.0871529,7.38207288 C16.6041861,7.38207288 17.0233409,7.7926129 17.0233409,8.29901971 L17.0233409,9.41029049 C17.0233409,9.91672022 16.6041861,10.3272373 16.0871529,10.3272373 L5.37016446,10.3272373 L9.6341028,14.5035633 C9.99970761,14.861654 9.99970761,15.4422189 9.6341028,15.8003095 L8.83183652,16.5860871 C8.46623171,16.9441778 7.87346089,16.9441778 7.50785608,16.5860871 L1.11816252,10.3277416 L1.07860858,10.2913159 L0.273627352,9.50287919 C0.0909302691,9.32393702 -0.00027784415,9.08933618 9.98323648e-07,8.8548041 C-0.000348058248,8.62018033 0.0908366503,8.38544195 0.273627352,8.20640808 L1.07858518,7.41799427 L1.11825614,7.38147687 Z"></path></clipPath></defs><g transform="translate(7.905587295908845e-10 3.0)"><g clip-path="url(#i0)"><polygon points="8.27116153e-15,0 24,0 24,18 8.27116153e-15,18 8.27116153e-15,0" stroke="none" fill="#696E73"></polygon></g></g></svg>