<?xml version="1.0" encoding="UTF-8"?><svg version="1.1" width="24px" height="24px" viewBox="0 0 24.0 24.0" xmlns="http://www.w3.org/2000/svg" xmlns:xlink="http://www.w3.org/1999/xlink"><defs><clipPath id="i0"><path d="M23.4375,0 C23.7481641,0 24,0.251337843 24,0.561387459 L24,17.4386125 C24,17.7486622 23.7481641,18 23.4375,18 L21.5625,18 C21.2518359,18 21,17.7486622 21,17.4386125 L21,0.561387459 C21,0.251337843 21.2518359,0 21.5625,0 Z M8.18027337,1.2685679 C8.54537692,0.910477367 9.13733502,0.910477367 9.50243857,1.2685679 L15.8833715,7.52691113 C15.8967874,7.53864804 15.9100163,7.55072881 15.9228712,7.56333683 L16.7267488,8.35177327 C16.9092188,8.53071538 17.0002785,8.76533906 17,8.99984813 C17.0003486,9.23447182 16.9092889,9.46923304 16.7267722,9.64824392 L15.9228946,10.4366804 C15.9099929,10.4493113 15.8967173,10.461415 15.883278,10.4731748 L9.50243857,16.7314493 C9.13733502,17.0895169 8.54537692,17.0895169 8.18027337,16.7314493 L7.37910704,15.9456491 C7.01400349,15.5875585 7.01400349,15.0069939 7.37910704,14.6489033 L11.6371993,10.4725788 L0.934904412,10.4725788 C0.418580078,10.4725788 0,10.0620619 0,9.55563233 L0,8.44438487 C0,7.93795532 0.418580078,7.52743837 0.934904412,7.52743837 L11.6372227,7.52743837 L7.37910704,3.35111386 C7.01400349,2.99302333 7.01400349,2.41243573 7.37910704,2.0543452 Z"></path></clipPath></defs><g transform="translate(0.0 3.0)"><g clip-path="url(#i0)"><polygon points="0,0 24,0 24,18 0,18 0,0" stroke="none" fill="#696E73"></polygon></g></g></svg>