<?xml version="1.0" encoding="UTF-8"?>
<svg width="24px" height="24px" viewBox="0 0 24 24" version="1.1" xmlns="http://www.w3.org/2000/svg" xmlns:xlink="http://www.w3.org/1999/xlink">
    <title></title>
    <g id="Icons" stroke="none" stroke-width="1" fill="none" fill-rule="evenodd">
        <g id="Icons/3.-Size-lg/Actions/panel-close" fill="#6A6E73">
            <path d="M23.4367277,3 C23.7478183,3 24,3.25133784 24,3.56138746 L24,3.56138746 L24,20.4386125 C24,20.7486622 23.7478183,21 23.4367277,21 L23.4367277,21 L21.5591535,21 C21.2480629,21 20.9958812,20.7486622 20.9958812,20.4386125 L20.9958812,20.4386125 L20.9958812,3.56138746 C20.9958812,3.25133784 21.2480629,3 21.5591535,3 L21.5591535,3 Z M7.50785608,4.12322309 C7.87346089,3.76513243 8.46623171,3.76513243 8.83183652,4.12322309 L8.83183652,4.12322309 L9.6341028,4.90900067 C9.99973102,5.26709133 9.99973102,5.84767914 9.6341028,6.2057698 L9.6341028,6.2057698 L5.37016447,10.3820729 L16.0871529,10.3820729 C16.6041861,10.3820729 17.0233409,10.7926129 17.0233409,11.2990197 L17.0233409,11.2990197 L17.0233409,12.4102905 C17.0233409,12.9167202 16.6041861,13.3272373 16.0871529,13.3272373 L16.0871529,13.3272373 L5.37016447,13.3272373 L9.6341028,17.5035633 C9.99970761,17.861654 9.99970761,18.4422189 9.6341028,18.8003095 L9.6341028,18.8003095 L8.83183652,19.5860871 C8.46623171,19.9441778 7.87346089,19.9441778 7.50785608,19.5860871 L7.50785608,19.5860871 L1.11816252,13.3277416 L1.11816252,13.3277416 L1.07860858,13.2913159 L0.273627353,12.5028792 C0.0909302699,12.323937 -0.000277843359,12.0893362 9.99114206e-07,11.8548041 C-0.000348057457,11.6201803 0.0908366511,11.3854419 0.273627353,11.2064081 L0.273627353,11.2064081 L1.07858518,10.4179943 L1.07858518,10.4179943 L1.11825614,10.3814769 Z" id="Fill-4-2"></path>
        </g>
    </g>
</svg>