<?xml version="1.0" encoding="UTF-8"?>
<svg width="24px" height="24px" viewBox="0 0 24 24" version="1.1" xmlns="http://www.w3.org/2000/svg" xmlns:xlink="http://www.w3.org/1999/xlink">
    <title></title>
    <g id="Icons" stroke="none" stroke-width="1" fill="none" fill-rule="evenodd">
        <g id="Icons/3.-Size-lg/Actions/panel-open" fill="#6A6E73">
            <path d="M23.4375,3 C23.7481641,3 24,3.25133784 24,3.56138746 L24,3.56138746 L24,20.4386125 C24,20.7486622 23.7481641,21 23.4375,21 L23.4375,21 L21.5625,21 C21.2518359,21 21,20.7486622 21,20.4386125 L21,20.4386125 L21,3.56138746 C21,3.25133784 21.2518359,3 21.5625,3 L21.5625,3 Z M8.18027337,4.2685679 C8.54537692,3.91047737 9.13733502,3.91047737 9.50243857,4.2685679 L9.50243857,4.2685679 L15.8833715,10.5269111 C15.8967874,10.538648 15.9100163,10.5507288 15.9228712,10.5633368 L15.9228712,10.5633368 L16.7267488,11.3517733 C16.9092188,11.5307154 17.0002785,11.7653391 17,11.9998481 C17.0003486,12.2344718 16.9092889,12.469233 16.7267722,12.6482439 L16.7267722,12.6482439 L15.9228946,13.4366804 C15.9099929,13.4493113 15.8967173,13.461415 15.883278,13.4731748 L15.883278,13.4731748 L9.50243857,19.7314493 C9.13733502,20.0895169 8.54537692,20.0895169 8.18027337,19.7314493 L8.18027337,19.7314493 L7.37910704,18.9456491 C7.01400349,18.5875585 7.01400349,18.0069939 7.37910704,17.6489033 L7.37910704,17.6489033 L11.6371993,13.4725788 L0.934904412,13.4725788 C0.418580078,13.4725788 0,13.0620619 0,12.5556323 L0,12.5556323 L0,11.4443849 C0,10.9379553 0.418580078,10.5274384 0.934904412,10.5274384 L0.934904412,10.5274384 L11.6372227,10.5274384 L7.37910704,6.35111386 C7.01400349,5.99302333 7.01400349,5.41243573 7.37910704,5.0543452 L7.37910704,5.0543452 Z" id="Fill-4-2"></path>
        </g>
    </g>
</svg>