<?xml version="1.0" encoding="UTF-8"?><svg version="1.1" width="24px" height="24px" viewBox="0 0 24.0 24.0" xmlns="http://www.w3.org/2000/svg" xmlns:xlink="http://www.w3.org/1999/xlink"><defs><clipPath id="i0"><path d="M6.74998391,0 C7.99216845,0 8.99997854,1.0078101 8.99997854,2.24999464 L8.99997854,18.7499553 C8.99997854,19.9921398 7.99216845,20.9999499 6.74998391,20.9999499 L2.24999464,20.9999499 C1.0078101,20.9999499 0,19.9921398 0,18.7499553 L0,2.24999464 C0,1.0078101 1.0078101,0 2.24999464,0 Z M18.7499553,0 C19.9921398,0 20.9999499,1.0078101 20.9999499,2.24999464 L20.9999499,18.7499553 C20.9999499,19.9921398 19.9921398,20.9999499 18.7499553,20.9999499 L14.249966,20.9999499 C13.0077815,20.9999499 11.9999714,19.9921398 11.9999714,18.7499553 L11.9999714,2.24999464 C11.9999714,1.0078101 13.0077815,0 14.249966,0 Z"></path></clipPath></defs><g transform="translate(2.0 2.0)"><g clip-path="url(#i0)"><polygon points="0,0 20.9999499,0 20.9999499,20.9999499 0,20.9999499 0,0" stroke="none" fill="#696E73"></polygon></g></g></svg>