<?xml version="1.0" encoding="UTF-8"?><svg version="1.1" width="24px" height="24px" viewBox="0 0 24.0 24.0" xmlns="http://www.w3.org/2000/svg" xmlns:xlink="http://www.w3.org/1999/xlink"><defs><clipPath id="i0"><path d="M13.320728,4.67457992 C13.5410491,4.45425879 13.8972799,4.45425879 14.1222702,4.67457992 L19.3253828,9.87769251 C19.545704,10.0980136 19.545704,10.4542445 19.3253828,10.6745656 L7.0160555,22.9839387 L1.32075658,23.9823647 C0.551990099,24.1136052 -0.118311648,23.4479727 0.0176438388,22.679252 L1.01135485,16.983953 Z M4.12386574,17.6214332 L2.42231645,17.6214332 L1.89263937,20.6448635 L3.35043008,22.1026542 L6.37386037,21.5729771 L6.37386037,19.8714278 L4.12386574,19.8714278 L4.12386574,17.6214332 Z M13.9629231,7.78237585 C13.7051112,7.52456397 13.2925756,7.52456397 13.0347637,7.78237585 L5.81603089,15.0011086 C5.55821901,15.2589205 5.55821901,15.6714562 5.81603089,15.9292681 C6.07384278,16.1870799 6.48637842,16.1870799 6.7441903,15.9292681 L13.9629231,8.71053526 C14.220735,8.45272338 14.220735,8.04018774 13.9629231,7.78237585 Z M17.337915,0.657392842 C18.2144388,-0.219130947 19.6394537,-0.219130947 20.5206925,0.657392842 L23.3379007,3.47460109 C24.2191395,4.35117066 24.2191395,5.77613979 23.3379007,6.65737854 L21.1769409,8.81833835 C20.9566198,9.03865948 20.600389,9.03865948 20.3800678,8.81833835 L15.1769552,3.61522576 C14.9566341,3.39490463 14.9566341,3.03867379 15.1769552,2.81835266 Z"></path></clipPath></defs><g clip-path="url(#i0)"><polygon points="-3.46944695e-18,0 23.9988298,0 23.9988298,23.9989855 -3.46944695e-18,23.9989855 -3.46944695e-18,0" stroke="none" fill="#696E73"></polygon></g></svg>