<?xml version="1.0" encoding="UTF-8"?><svg version="1.1" width="24px" height="24px" viewBox="0 0 24.0 24.0" xmlns="http://www.w3.org/2000/svg" xmlns:xlink="http://www.w3.org/1999/xlink"><defs><clipPath id="i0"><path d="M19.190625,0 C19.3898437,0 19.5796875,0.0796875 19.7203125,0.2203125 L23.7796875,4.2796875 C23.9203125,4.4203125 24,4.6125 24,4.81171875 L24,23.25 C24,23.6648438 23.6648438,24 23.25,24 L0.75,24 C0.33515625,24 0,23.6648438 0,23.25 L0,0.75 C0,0.33515625 0.33515625,0 0.75,0 Z M18.2578125,3 L3,3 L3,21 L21,21 L21,5.7421875 L18.2578125,3 Z M13.1414062,6 C13.3335937,6 13.5,6.15703125 13.5,6.3515625 L13.5,12 L16.4601562,12 C17.0929687,12 17.4421875,12.7359375 17.0414062,13.2257813 L12.5765625,18.6773438 C12.2789062,19.0429688 11.71875,19.0429688 11.41875,18.6796875 L6.91875,13.228125 C6.515625,12.7382813 6.8625,12 7.49765625,12 L10.5,12 L10.5,6.421875 C10.5,6.18984375 10.6898437,6 10.921875,6 Z"></path></clipPath></defs><g clip-path="url(#i0)"><polygon points="0,0 24,0 24,24 0,24 0,0" stroke="none" fill="#696E73"></polygon></g></svg>