<?xml version="1.0" encoding="UTF-8"?><svg version="1.1" width="24px" height="24px" viewBox="0 0 24.0 24.0" xmlns="http://www.w3.org/2000/svg" xmlns:xlink="http://www.w3.org/1999/xlink"><defs><clipPath id="i0"><path d="M12.0023438,0 C18.61875,0 24,5.38359375 24,12 C24,18.6164062 18.61875,24 12.0023438,24 C5.3859375,24 0,18.6140625 0,12 C0,5.3859375 5.38359375,0 12.0023438,0 Z M12,3 C7.0359375,3 3,7.03828125 3,12 C3,16.9664062 7.0359375,21 12,21 C16.9617188,21 21,16.9640625 21,12 C21,7.0359375 16.9640625,3 12,3 Z M13.1484375,6.75 C13.3426001,6.75 13.5,6.9073999 13.5,7.1015625 L13.5,10.5 L16.8984375,10.5 C17.0931398,10.500904 17.2503897,10.6592022 17.25,10.8539063 L17.25,13.1507813 C17.25,13.2438073 17.212888,13.3329895 17.1468889,13.3985486 C17.08089,13.4641076 16.9914615,13.5006243 16.8984375,13.5 L13.5,13.5 L13.5,16.8960937 C13.5003897,17.0907978 13.3431398,17.249096 13.1484375,17.25 L10.8515625,17.25 C10.6568602,17.249096 10.4996103,17.0907978 10.5,16.8960937 L10.5,13.5 L7.1015625,13.5 C6.9073999,13.5 6.75,13.3426001 6.75,13.1484375 L6.75,10.8515625 C6.75,10.6573999 6.9073999,10.5 7.1015625,10.5 L10.5,10.5 L10.5,7.1015625 C10.5,6.9073999 10.6573999,6.75 10.8515625,6.75 Z"></path></clipPath></defs><g clip-path="url(#i0)"><polygon points="0,0 24,0 24,24 0,24 0,0" stroke="none" fill="#696E73"></polygon></g></svg>