<?xml version="1.0" encoding="UTF-8"?><svg version="1.1" width="24px" height="24px" viewBox="0 0 24.0 24.0" xmlns="http://www.w3.org/2000/svg" xmlns:xlink="http://www.w3.org/1999/xlink"><defs><clipPath id="i0"><path d="M10.2632813,7.49765625 C10.4390625,7.49765625 10.5960938,7.565625 10.7320313,7.7015625 L20.4117187,17.3859375 L22.8703125,14.9273437 C23.4890625,14.3085938 23.9976562,14.5171875 24,15.3914063 L24,22.4039062 C24,23.7585937 23.7773438,24 22.40625,24 L15.39375,24 C14.5171875,24 14.3085938,23.4890625 14.9273438,22.8703125 L17.390625,20.4070313 L7.70625,10.7273437 C7.5703125,10.5914062 7.50234375,10.434375 7.50234375,10.2585937 C7.50234375,10.0828125 7.5703125,9.92578125 7.70625,9.78984375 L9.79453125,7.7015625 C9.93046875,7.565625 10.0875,7.49765625 10.2632813,7.49765625 Z M23.4679687,0 C23.6226562,0 23.7492187,0.04921875 23.85,0.15 C23.9507812,0.25078125 24,0.37734375 24,0.53203125 L24,10.8820313 C24,11.2148438 23.596875,11.3835937 23.3601563,11.146875 L21.2203125,9.00703125 C21.0794509,8.86672941 21.0001861,8.67615659 21,8.47734375 L21,3 L3,3 L3,21 L8.45625,21 C8.65506284,21.0001861 8.84563566,21.0794509 8.9859375,21.2203125 L11.1257812,23.3601563 C11.23276,23.4673941 11.2647182,23.6284615 11.2067867,23.7684199 C11.1488552,23.9083781 11.0124113,23.9997408 10.8609375,24 L0.53203125,24 C0.37734375,24 0.25078125,23.9507812 0.15,23.85 C0.04921875,23.7492187 0,23.6226562 0,23.4679687 L0,0.53203125 C0,0.37734375 0.04921875,0.25078125 0.15,0.15 C0.25078125,0.04921875 0.37734375,0 0.53203125,0 Z"></path></clipPath></defs><g clip-path="url(#i0)"><polygon points="0,0 24,0 24,24 0,24 0,0" stroke="none" fill="#696E73"></polygon></g></svg>