<?xml version="1.0" encoding="UTF-8"?><svg version="1.1" width="24px" height="24px" viewBox="0 0 24.0 24.0" xmlns="http://www.w3.org/2000/svg" xmlns:xlink="http://www.w3.org/1999/xlink"><defs><clipPath id="i0"><path d="M7.1953125,5.78671875 C7.63359375,5.3484375 8.3484375,5.3484375 8.78671875,5.78671875 L23.671875,20.671875 C23.8921875,20.8921875 24,21.1828125 24,21.4734375 C24,21.7640625 23.8921875,22.0453125 23.6742188,22.2632813 L22.265625,23.671875 C22.0453125,23.8898438 21.7570312,24 21.46875,24 C21.1804688,24 20.8898437,23.8898438 20.671875,23.671875 L5.78671875,8.78671875 C5.3484375,8.3484375 5.3484375,7.63359375 5.78671875,7.1953125 Z M8.625,13.5 C8.83125,13.5 9,13.66875 9,13.875 L9,16.125 C9,16.33125 8.83125,16.5 8.625,16.5 L7.875,16.5 C7.66875,16.5 7.5,16.33125 7.5,16.125 L7.5,13.875 C7.5,13.66875 7.66875,13.5 7.875,13.5 L8.625,13.5 Z M4.76484375,10.7648437 L5.73515625,11.7351562 C5.88046875,11.8804687 5.88046875,12.1195312 5.73515625,12.2648437 L3.11015625,14.8898437 C3.03984375,14.9601562 2.94375,15 2.8453125,15 L1.875,15 C1.66875,15 1.5,14.83125 1.5,14.625 L1.5,13.6546875 C1.5,13.55625 1.53984375,13.4601562 1.61015625,13.3898437 L4.23515625,10.7648437 C4.38046875,10.6195312 4.61953125,10.6195312 4.76484375,10.7648437 Z M7.9921875,6.4921875 L6.4921875,7.9921875 L11.2734375,12.7734375 L12.7734375,11.2734375 L7.9921875,6.4921875 Z M2.625,7.5 C2.83125,7.5 3,7.66875 3,7.875 L3,8.625 C3,8.83125 2.83125,9 2.625,9 L0.375,9 C0.16875,9 0,8.83125 0,8.625 L0,7.875 C0,7.66875 0.16875,7.5 0.375,7.5 L2.625,7.5 Z M16.125,7.5 C16.33125,7.5 16.5,7.66875 16.5,7.875 L16.5,8.625 C16.5,8.83125 16.33125,9 16.125,9 L13.875,9 C13.66875,9 13.5,8.83125 13.5,8.625 L13.5,7.875 C13.5,7.66875 13.66875,7.5 13.875,7.5 L16.125,7.5 Z M14.625,1.5 C14.83125,1.5 15,1.66875 15,1.875 L15,2.8453125 C15,2.94375 14.9601562,3.03984375 14.8898437,3.11015625 L12.2648437,5.73515625 C12.1195312,5.88046875 11.8804687,5.88046875 11.7351562,5.73515625 L10.7648437,4.76484375 C10.6195312,4.61953125 10.6195312,4.38046875 10.7648437,4.23515625 L13.3898437,1.61015625 C13.4601562,1.53984375 13.55625,1.5 13.6546875,1.5 L14.625,1.5 Z M2.8453125,1.5 C2.94375,1.5 3.03984375,1.53984375 3.11015625,1.61015625 L5.73515625,4.23515625 C5.88046875,4.38046875 5.88046875,4.61953125 5.73515625,4.76484375 L4.76484375,5.73515625 C4.61953125,5.88046875 4.38046875,5.88046875 4.23515625,5.73515625 L1.61015625,3.11015625 C1.53984375,3.03984375 1.5,2.94375 1.5,2.8453125 L1.5,1.875 C1.5,1.66875 1.66875,1.5 1.875,1.5 L2.8453125,1.5 Z M8.625,0 C8.83125,0 9,0.16875 9,0.375 L9,2.625 C9,2.83125 8.83125,3 8.625,3 L7.875,3 C7.66875,3 7.5,2.83125 7.5,2.625 L7.5,0.375 C7.5,0.16875 7.66875,0 7.875,0 L8.625,0 Z"></path></clipPath></defs><g clip-path="url(#i0)"><polygon points="0,0 24,0 24,24 0,24 0,0" stroke="none" fill="#696E73"></polygon></g></svg>