<?xml version="1.0" encoding="UTF-8"?><svg version="1.1" width="24px" height="24px" viewBox="0 0 24.0 24.0" xmlns="http://www.w3.org/2000/svg" xmlns:xlink="http://www.w3.org/1999/xlink"><defs><clipPath id="i0"><path d="M17.3784071,0 C17.7763858,0 18.157931,0.157973867 18.4391803,0.439223196 L20.5607267,2.56031189 C20.8419761,2.84201898 20.9999499,3.22310633 20.9999499,3.62108512 L20.9999499,8.99997854 C22.6569589,8.99997854 23.9999428,10.3429624 23.9999428,11.9999714 L23.9999428,17.2499589 C23.9999428,17.6643256 23.6643113,17.9999571 23.2499446,17.9999571 L20.9999499,17.9999571 L20.9999499,22.4999464 C20.9999499,23.328222 20.3282291,23.9999428 19.4999535,23.9999428 L4.49998927,23.9999428 C3.67171366,23.9999428 3,23.328222 3,22.4999464 L3,17.9999571 L0.749998212,17.9999571 C0.335631524,17.9999571 0,17.6643256 0,17.2499589 L0,11.9999714 C0,10.3429624 1.34298386,8.99997854 3,8.99997854 L3,1.5 C3,0.671720811 3.67171366,0 4.49998927,0 Z M17.9999571,16.4999607 L5.99998569,16.4999607 L5.99998569,20.9999499 L17.9999571,20.9999499 L17.9999571,16.4999607 Z M20.2499517,11.6249723 C19.6288595,11.6249723 19.1249544,12.1284196 19.1249544,12.7499696 C19.1249544,13.3710619 19.6288595,13.8749669 20.2499517,13.8749669 C20.871044,13.8749669 21.374949,13.3710619 21.374949,12.7499696 C21.374949,12.1284196 20.871044,11.6249723 20.2499517,11.6249723 Z M14.9999642,2.99999285 L5.99998569,2.99999285 L5.99998569,10.499975 L17.9999571,10.499975 L17.9999571,5.99999285 L15.7499624,5.99999285 C15.3355958,5.99999285 14.9999642,5.66435417 14.9999642,5.24998748 L14.9999642,2.99999285 Z"></path></clipPath></defs><g clip-path="url(#i0)"><polygon points="0,0 23.9999428,0 23.9999428,23.9999428 0,23.9999428 0,0" stroke="none" fill="#696E73"></polygon></g></svg>