<?xml version="1.0" encoding="UTF-8"?><svg version="1.1" width="24px" height="24px" viewBox="0 0 24.0 24.0" xmlns="http://www.w3.org/2000/svg" xmlns:xlink="http://www.w3.org/1999/xlink"><defs><clipPath id="i0"><path d="M9.74997675,0 C15.1359197,0 19.4999535,4.36403378 19.4999535,9.74997675 C19.4999535,12.0140247 18.731187,14.095288 17.4374584,15.7499624 L18.2015099,15.7499624 C18.5015275,15.7499624 18.7874461,15.8671497 18.998383,16.0780867 L23.6718186,20.7515222 C24.1077459,21.1921187 24.1077459,21.9046261 23.6718186,22.3452684 L22.3452684,23.6718186 C21.9046261,24.1124608 21.1921187,24.1124608 20.7561914,23.6718186 L16.0780867,18.998383 C15.8671497,18.7874461 15.7499624,18.5015275 15.7499624,18.2015099 L15.7499624,17.4374584 C14.095288,18.731187 12.0140247,19.4999535 9.74997675,19.4999535 C4.36403378,19.4999535 0,15.1359197 0,9.74997675 C0,4.36403378 4.36403378,0 9.74997675,0 Z M9.74997675,3.37499195 C6.224976,3.37499195 3.37499195,6.224976 3.37499195,9.74997675 C3.37499195,13.2749775 6.224976,16.1249616 9.74997675,16.1249616 C13.2749775,16.1249616 16.1249616,13.2749775 16.1249616,9.74997675 C16.1249616,6.224976 13.2749775,3.37499195 9.74997675,3.37499195 Z M13.6874674,8.43747988 C13.9968233,8.43747988 14.249966,8.69062259 14.249966,8.99997854 L14.249966,10.499975 C14.249966,10.8093309 13.9968233,11.0624736 13.6874674,11.0624736 L5.81248614,11.0624736 C5.50313019,11.0624736 5.24998748,10.8093309 5.24998748,10.499975 L5.24998748,8.99997854 C5.24998748,8.69062259 5.50313019,8.43747988 5.81248614,8.43747988 Z"></path></clipPath></defs><g clip-path="url(#i0)"><polygon points="0,0 23.998764,0 23.998764,24.0023003 0,24.0023003 0,0" stroke="none" fill="#696E73"></polygon></g></svg>