<?xml version="1.0" encoding="UTF-8"?>
<svg width="24px" height="24px" viewBox="0 0 24 24" version="1.1" xmlns="http://www.w3.org/2000/svg" xmlns:xlink="http://www.w3.org/1999/xlink">
    <title></title>
    <g id="Icons" stroke="none" stroke-width="1" fill="none" fill-rule="evenodd">
        <g id="Icons/3.-Size-lg/Actions/search-minus" fill="#6A6E73">
            <path d="M22.3452684,23.6718186 L23.6718186,22.3452684 C24.1077459,21.9046261 24.1077459,21.1921187 23.6718186,20.7515222 L18.998383,16.0780867 C18.7874461,15.8671497 18.5015275,15.7499624 18.2015099,15.7499624 L17.4374584,15.7499624 C18.731187,14.095288 19.4999535,12.0140247 19.4999535,9.74997675 C19.4999535,4.36403378 15.1359197,0 9.74997675,0 C4.36403378,0 0,4.36403378 0,9.74997675 C0,15.1359197 4.36403378,19.4999535 9.74997675,19.4999535 C12.0140247,19.4999535 14.095288,18.731187 15.7499624,17.4374584 L15.7499624,18.2015099 C15.7499624,18.5015275 15.8671497,18.7874461 16.0780867,18.998383 L20.7561914,23.6718186 C21.1921187,24.1124608 21.9046261,24.1124608 22.3452684,23.6718186 Z M9.74997675,16.1249616 C6.224976,16.1249616 3.37499195,13.2749775 3.37499195,9.74997675 C3.37499195,6.224976 6.224976,3.37499195 9.74997675,3.37499195 C13.2749775,3.37499195 16.1249616,6.224976 16.1249616,9.74997675 C16.1249616,13.2749775 13.2749775,16.1249616 9.74997675,16.1249616 Z M13.6874674,11.0624736 C13.9968233,11.0624736 14.249966,10.8093309 14.249966,10.499975 L14.249966,8.99997854 C14.249966,8.69062259 13.9968233,8.43747988 13.6874674,8.43747988 L5.81248614,8.43747988 C5.50313019,8.43747988 5.24998748,8.69062259 5.24998748,8.99997854 L5.24998748,10.499975 C5.24998748,10.8093309 5.50313019,11.0624736 5.81248614,11.0624736 L13.6874674,11.0624736 Z" id="search-minus"></path>
        </g>
    </g>
</svg>