<?xml version="1.0" encoding="UTF-8"?><svg version="1.1" width="24px" height="24px" viewBox="0 0 24.0 24.0" xmlns="http://www.w3.org/2000/svg" xmlns:xlink="http://www.w3.org/1999/xlink"><defs><clipPath id="i0"><path d="M9.74997675,0 C15.1359197,0 19.4999535,4.36403378 19.4999535,9.74997675 C19.4999535,12.0140247 18.731187,14.095288 17.4374584,15.7499624 L18.2015099,15.7499624 C18.5015275,15.7499624 18.7874461,15.8671497 18.998383,16.0780867 L23.6718186,20.7515222 C24.1077459,21.1921187 24.1077459,21.9046261 23.6671494,22.3452684 L22.3405534,23.6718186 C21.9046261,24.1124608 21.1921187,24.1124608 20.7515222,23.6718186 L16.0780867,18.998383 C15.8671497,18.7874461 15.7499624,18.5015275 15.7499624,18.2015099 L15.7499624,17.4374584 C14.095288,18.731187 12.0140247,19.4999535 9.74997675,19.4999535 C4.36403378,19.4999535 0,15.1359197 0,9.74997675 C0,4.36403378 4.36403378,0 9.74997675,0 Z M9.74997675,3.74999106 C6.43124382,3.74999106 3.74999106,6.435913 3.74999106,9.74997675 C3.74999106,13.0687097 6.435913,15.7499624 9.74997675,15.7499624 C13.0687097,15.7499624 15.7499624,13.0640405 15.7499624,9.74997675 C15.7499624,6.43124382 13.0640405,3.74999106 9.74997675,3.74999106 Z"></path></clipPath></defs><g transform=""><g clip-path="url(#i0)"><polygon points="0,0 23.9981827,0 23.9981827,24.0023003 0,24.0023003 0,0" stroke="none" fill="#696E73"></polygon></g></g></svg>