<?xml version="1.0" encoding="UTF-8"?><svg version="1.1" width="24px" height="24px" viewBox="0 0 24.0 24.0" xmlns="http://www.w3.org/2000/svg" xmlns:xlink="http://www.w3.org/1999/xlink"><defs><clipPath id="i0"><path d="M7.92341251,2.9999952 C8.51172897,2.9999952 8.70504211,3.78890323 8.1833301,4.06081421 C7.30314421,4.51953809 6.49295022,5.09714291 5.79206993,5.82686224 C5.70051741,5.92235151 5.518923,5.9998965 5.38667539,5.9999952 L3,5.9999952 L3,20.9999523 L17.9999571,20.9999523 L17.9999571,17.7715817 C17.9999571,17.4272985 18.3060629,17.1666484 18.6468214,17.2156748 C18.7786112,17.234672 18.9936223,17.2500986 19.1267855,17.2500986 C19.4457544,17.2500986 19.9486982,17.1637645 20.2494482,17.0573805 C20.615704,16.9278337 20.9999499,17.1986918 20.9999499,17.5871949 L20.9999499,21.7499505 C20.9999499,22.9925928 19.9925976,23.9999451 18.7499553,23.9999451 L2.24999464,23.9999451 C1.00735233,23.9999451 0,22.9925928 0,21.7499505 L0,5.24998984 C0,4.00734754 1.00735233,2.9999952 2.24999464,2.9999952 Z M17.9999571,1.12554899 C17.9999571,0.133028159 19.1867066,-0.363552688 19.897383,0.30771036 L26.64755,6.68210007 C27.1172144,7.12567201 27.1175806,7.87388495 26.64755,8.31786887 L19.897383,14.6921213 C19.1858826,15.3640709 17.9999571,14.8658879 17.9999571,13.8742826 L17.9999571,10.5010302 C11.223011,10.546486 8.36405477,12.1469155 10.2761291,18.5331613 C10.4862879,19.2350029 9.67398817,19.7785044 9.1039822,19.3455068 C7.27741795,17.9580284 5.62498659,15.304104 5.62498659,12.6252317 C5.62498659,5.8782232 11.1374094,4.53931343 17.9999571,4.50127336 Z"></path></clipPath></defs><g transform="translate(-1.0 0.0)"><g clip-path="url(#i0)"><polygon points="0,-5.55111512e-17 26.9999356,-5.55111512e-17 26.9999356,23.9999451 0,23.9999451 0,-5.55111512e-17" stroke="none" fill="#696E73"></polygon></g></g></svg>