<?xml version="1.0" encoding="UTF-8"?>
<svg width="24px" height="24px" viewBox="0 0 24 24" version="1.1" xmlns="http://www.w3.org/2000/svg" xmlns:xlink="http://www.w3.org/1999/xlink">
    <title></title>
    <g id="Icons" stroke="none" stroke-width="1" fill="none" fill-rule="evenodd">
        <g id="Icons/3.-Size-lg/Actions/sort-amount-down-alt" fill="#6A6E73">
            <path d="M14.2500095,5 C14.6640099,5 15.0000077,4.66399511 15.0000077,4.24999464 L15.0000077,2.74999821 C15.0000077,2.33599773 14.6640099,2 14.2500095,2 L11.2500166,2 C10.8360161,2 10.5000184,2.33599773 10.5000184,2.74999821 L10.5000184,4.24999464 C10.5000184,4.66399511 10.8360161,5 11.2500166,5 L14.2500095,5 Z M4.50094824,22.9995837 C4.67238033,22.9995837 4.90986756,22.9012563 5.03112886,22.7800866 L8.78111992,18.2800973 C9.25078433,17.8090138 8.91657187,16.9999642 8.25002378,16.9999642 L6.00002914,16.9999642 L6.00002914,2.74999821 C6.00002914,2.33599773 5.66403141,2 5.25003093,2 L3.7500345,2 C3.33603403,2 3.00003629,2.33599773 3.00003629,2.74999821 L3.00003629,16.9999642 L0.750041657,16.9999642 C0.0848668518,16.9999642 -0.251680197,17.8080983 0.220822338,18.2800973 L3.9708134,22.7800866 C4.09207471,22.9012563 4.32956193,22.9995837 4.50094824,22.9995837 Z M17.2500023,10.9999857 C17.6640028,10.9999857 18.0000005,10.6639808 18.0000005,10.2499803 L18.0000005,8.74998391 C18.0000005,8.33598343 17.6640028,7.99998569 17.2500023,7.99998569 L11.2500166,7.99998569 C10.8360161,7.99998569 10.5000184,8.33598343 10.5000184,8.74998391 L10.5000184,10.2499803 C10.5000184,10.6639808 10.8360161,10.9999857 11.2500166,10.9999857 L17.2500023,10.9999857 Z M20.2499952,16.9999714 C20.6639956,16.9999714 20.9999934,16.6639665 20.9999934,16.249966 L20.9999934,14.7499696 C20.9999934,14.3359691 20.6639956,13.9999714 20.2499952,13.9999714 L11.2500166,13.9999714 C10.8360161,13.9999714 10.5000184,14.3359691 10.5000184,14.7499696 L10.5000184,16.249966 C10.5000184,16.6639665 10.8360161,16.9999714 11.2500166,16.9999714 L20.2499952,16.9999714 Z M23.249988,22.9999571 C23.6639885,22.9999571 23.9999862,22.6639522 23.9999862,22.2499517 L23.9999862,20.7499553 C23.9999862,20.3359548 23.6639885,19.9999571 23.249988,19.9999571 L11.2500166,19.9999571 C10.8360161,19.9999571 10.5000184,20.3359548 10.5000184,20.7499553 L10.5000184,22.2499517 C10.5000184,22.6639522 10.8360161,22.9999571 11.2500166,22.9999571 L23.249988,22.9999571 Z" id="sort-amount-down-alt"></path>
        </g>
    </g>
</svg>