<?xml version="1.0" encoding="UTF-8"?><svg version="1.1" width="24px" height="24px" viewBox="0 0 24.0 24.0" xmlns="http://www.w3.org/2000/svg" xmlns:xlink="http://www.w3.org/1999/xlink"><defs><clipPath id="i0"><path d="M5.25003093,0 C5.66403141,0 6.00002914,0.335997734 6.00002914,0.749998212 L6.00002914,14.9999642 L8.25002378,14.9999642 C8.91657187,14.9999642 9.25078433,15.8090138 8.78111992,16.2800973 L5.03112886,20.7800866 C4.90986756,20.9012563 4.67238033,20.9995837 4.50094824,20.9995837 C4.32956193,20.9995837 4.09207471,20.9012563 3.9708134,20.7800866 L0.220822338,16.2800973 C-0.251680197,15.8080983 0.0848668518,14.9999642 0.750041657,14.9999642 L3.00003629,14.9999642 L3.00003629,0.749998212 C3.00003629,0.335997734 3.33603403,0 3.7500345,0 Z M14.2500095,17.9999571 C14.6640099,17.9999571 15.0000077,18.3359548 15.0000077,18.7499553 L15.0000077,20.2499517 C15.0000077,20.6639522 14.6640099,20.9999571 14.2500095,20.9999571 L11.2500166,20.9999571 C10.8360161,20.9999571 10.5000184,20.6639522 10.5000184,20.2499517 L10.5000184,18.7499553 C10.5000184,18.3359548 10.8360161,17.9999571 11.2500166,17.9999571 Z M17.2500023,11.9999714 C17.6640028,11.9999714 18.0000005,12.3359691 18.0000005,12.7499696 L18.0000005,14.249966 C18.0000005,14.6639665 17.6640028,14.9999714 17.2500023,14.9999714 L11.2500166,14.9999714 C10.8360161,14.9999714 10.5000184,14.6639665 10.5000184,14.249966 L10.5000184,12.7499696 C10.5000184,12.3359691 10.8360161,11.9999714 11.2500166,11.9999714 Z M20.2499952,5.99998569 C20.6639956,5.99998569 20.9999934,6.33598343 20.9999934,6.74998391 L20.9999934,8.24998033 C20.9999934,8.66398081 20.6639956,8.99998569 20.2499952,8.99998569 L11.2500166,8.99998569 C10.8360161,8.99998569 10.5000184,8.66398081 10.5000184,8.24998033 L10.5000184,6.74998391 C10.5000184,6.33598343 10.8360161,5.99998569 11.2500166,5.99998569 Z M23.249988,0 C23.6639885,0 23.9999862,0.335997734 23.9999862,0.749998212 L23.9999862,2.24999464 C23.9999862,2.66399511 23.6639885,3 23.249988,3 L11.2500166,3 C10.8360161,3 10.5000184,2.66399511 10.5000184,2.24999464 L10.5000184,0.749998212 C10.5000184,0.335997734 10.8360161,0 11.2500166,0 Z"></path></clipPath></defs><g transform="translate(3.552713678800501e-15 2.0)"><g clip-path="url(#i0)"><polygon points="-2.22044605e-16,0 23.9999862,0 23.9999862,20.9999571 -2.22044605e-16,20.9999571 -2.22044605e-16,0" stroke="none" fill="#696E73"></polygon></g></g></svg>