<?xml version="1.0" encoding="UTF-8"?><svg version="1.1" width="24px" height="24px" viewBox="0 0 24.0 24.0" xmlns="http://www.w3.org/2000/svg" xmlns:xlink="http://www.w3.org/1999/xlink"><defs><clipPath id="i0"><path d="M22.4951856,13.1250603 C22.8466557,13.1250603 23.1136229,13.4441208 23.0486206,13.7895484 C22.034356,19.1753998 17.305577,23.2499446 11.6249723,23.2499446 C8.51021836,23.2499446 5.6816576,22.0248346 3.59458066,20.030363 L1.92045135,21.7044923 C1.21174333,22.4132003 0,21.9112637 0,20.9089467 L0,14.6249651 C0,14.003644 0.503676167,13.4999678 1.12499732,13.4999678 L7.40897892,13.4999678 C8.41129586,13.4999678 8.91323253,14.7117111 8.20452451,15.4204649 L6.24749792,17.3774915 C7.71288749,18.7496806 9.61475369,19.5018303 11.6322965,19.4999993 C15.2612551,19.4967034 18.3970203,17.0089011 19.262924,13.5539838 C19.3259122,13.3025806 19.5498954,13.1250603 19.8090348,13.1250603 Z M11.6249723,0 C14.7397262,0 17.568287,1.22510999 19.6553639,3.21958156 L21.3294932,1.54545225 C22.0382012,0.836744221 23.2499446,1.33868089 23.2499446,2.34099784 L23.2499446,8.62497944 C23.2499446,9.24630059 22.7462684,9.74997675 22.1249472,9.74997675 L15.8409657,9.74997675 C14.8386487,9.74997675 14.336712,8.53823343 15.0454201,7.82947962 L17.0024466,5.87249882 C15.5370571,4.50035548 13.6353282,3.74820579 11.6178312,3.74999106 C7.98699573,3.7531954 4.85246646,6.24269142 3.98702052,9.69605232 C3.92403239,9.94745553 3.70004916,10.1249759 3.44090976,10.1249759 L0.754804719,10.1249759 C0.403380386,10.1249759 0.136367473,9.80591534 0.201369759,9.4604877 C1.21558853,4.07454473 5.94436754,0 11.6249723,0 Z"></path></clipPath></defs><g clip-path="url(#i0)"><polygon points="0,0 23.2499446,0 23.2499446,23.2499446 0,23.2499446 0,0" stroke="none" fill="#696E73"></polygon></g></svg>