<?xml version="1.0" encoding="UTF-8"?><svg version="1.1" width="24px" height="24px" viewBox="0 0 24.0 24.0" xmlns="http://www.w3.org/2000/svg" xmlns:xlink="http://www.w3.org/1999/xlink"><defs><clipPath id="i0"><path d="M12.9407765,0.431727334 C13.5168707,-0.143909111 14.4501113,-0.143909111 15.0257477,0.431727334 L16.0682562,1.47423583 C16.6438927,2.05033004 16.6438927,2.98361639 16.0682562,3.55920706 L11.3774715,8.24999177 L16.0682562,12.9407765 C16.6438927,13.5168707 16.6438927,14.4501113 16.0682562,15.0257477 L15.0257477,16.0682562 C14.4501113,16.6438927 13.5163672,16.6438927 12.9407765,16.0682562 L8.24999177,11.3774715 L3.55920706,16.0682562 C2.98361639,16.6438927 2.04987228,16.6438927 1.47423583,16.0682562 L0.431727334,15.0257477 C-0.143909111,14.4496535 -0.143909111,13.5163672 0.431727334,12.9407765 L5.12251205,8.24999177 L0.431727334,3.55920706 C-0.143909111,2.98311285 -0.143909111,2.04987228 0.431727334,1.47423583 L1.47423583,0.431727334 C2.05033004,-0.143909111 2.98361639,-0.143909111 3.55920706,0.431727334 L8.24999177,5.12251205 Z"></path></clipPath></defs><g transform="translate(4.0 4.0)"><g clip-path="url(#i0)"><polygon points="0,0 16.4999835,0 16.4999835,16.4999835 0,16.4999835 0,0" stroke="none" fill="#696E73"></polygon></g></g></svg>