<?xml version="1.0" encoding="UTF-8"?><svg version="1.1" width="24px" height="24px" viewBox="0 0 24.0 24.0" xmlns="http://www.w3.org/2000/svg" xmlns:xlink="http://www.w3.org/1999/xlink"><defs><clipPath id="i0"><path d="M11.6249723,0 C18.046832,0 23.2499446,5.20311259 23.2499446,11.6249723 C23.2499446,18.046832 18.046832,23.2499446 11.6249723,23.2499446 C5.20311259,23.2499446 0,18.046832 0,11.6249723 C0,5.20311259 5.20311259,0 11.6249723,0 Z M8.57810455,5.92028923 C8.35778342,5.6999681 8.00155258,5.6999681 7.78123145,5.92028923 L5.92500418,7.77656227 C5.70468305,7.99683762 5.70468305,8.35311424 5.92500418,8.57343537 L8.99997854,11.6249723 L5.92500418,14.67184 C5.70468305,14.8921611 5.70468305,15.248392 5.92500418,15.4687131 L7.77656227,17.3249404 C7.99683762,17.5452615 8.35311424,17.5452615 8.57343537,17.3249404 L11.6249723,14.249966 L14.67184,17.3249404 C14.8921611,17.5452615 15.248392,17.5452615 15.4687131,17.3249404 L17.3249404,15.4733823 C17.5452615,15.2531069 17.5452615,14.8968303 17.3249404,14.6765092 L14.249966,11.6249723 L17.3296553,8.57810455 C17.5499765,8.35778342 17.5499765,8.00155258 17.3296553,7.78123145 L15.4733823,5.92500418 C15.2531069,5.70468305 14.8968303,5.70468305 14.6765092,5.92500418 L11.6249723,8.99997854 Z"></path></clipPath></defs><g clip-path="url(#i0)"><polygon points="0,0 23.2499446,0 23.2499446,23.2499446 0,23.2499446 0,0" stroke="none" fill="#696E73"></polygon></g></svg>