<?xml version="1.0" encoding="UTF-8"?><svg version="1.1" width="24px" height="24px" viewBox="0 0 24.0 24.0" xmlns="http://www.w3.org/2000/svg" xmlns:xlink="http://www.w3.org/1999/xlink"><defs><clipPath id="i0"><path d="M19.4999535,5.99998569 L18.5061967,21.8905728 C18.4333209,23.0548004 17.4273876,23.9999428 16.260917,23.9999428 L4.73903289,23.9999428 C3.57256228,23.9999428 2.56662901,23.0548004 2.49375321,21.8905728 L1.49999642,5.99998569 L19.4999535,5.99998569 Z M13.1773367,0 C13.5618115,0 14.0129366,0.27928095 14.1843229,0.623426858 L14.6249651,1.5 L20.2499517,1.5 C20.6639522,1.5 20.9999499,1.83599416 20.9999499,2.24999464 L20.9999499,3.74999106 C20.9999499,4.16399154 20.6639522,4.49998927 20.2499517,4.49998927 L0.749998212,4.49998927 C0.335997734,4.49998927 0,4.16399154 0,3.74999106 L0,2.24999464 C0,1.83599416 0.335997734,1.5 0.749998212,1.5 L6.3749848,1.5 L6.81562706,0.623426858 C6.98390059,0.27928095 7.43136351,0 7.81446501,0 Z"></path></clipPath></defs><g transform="translate(2.0 0.0)"><g clip-path="url(#i0)"><polygon points="0,0 20.9999499,0 20.9999499,23.9999428 0,23.9999428 0,0" stroke="none" fill="#696E73"></polygon></g></g></svg>