<?xml version="1.0" encoding="UTF-8"?>
<svg width="24px" height="24px" viewBox="0 0 24 24" version="1.1" xmlns="http://www.w3.org/2000/svg" xmlns:xlink="http://www.w3.org/1999/xlink">
    <title></title>
    <g id="Icons" stroke="none" stroke-width="1" fill="none" fill-rule="evenodd">
        <g id="Icons/3.-Size-lg/Actions/trash" fill="#6A6E73">
            <path d="M22.2499517,4.49998927 C22.6639522,4.49998927 22.9999499,4.16399154 22.9999499,3.74999106 L22.9999499,2.24999464 C22.9999499,1.83599416 22.6639522,1.5 22.2499517,1.5 L16.6249651,1.5 L16.1843229,0.623426858 C16.0129366,0.27928095 15.5618115,0 15.1773367,0 L9.81446501,0 C9.43136351,0 8.98390059,0.27928095 8.81562706,0.623426858 L8.3749848,1.5 L2.74999821,1.5 C2.33599773,1.5 2,1.83599416 2,2.24999464 L2,3.74999106 C2,4.16399154 2.33599773,4.49998927 2.74999821,4.49998927 L22.2499517,4.49998927 Z M18.260917,23.9999428 C19.4273876,23.9999428 20.4333209,23.0548004 20.5061967,21.8905728 L21.4999535,5.99998569 L3.49999642,5.99998569 L4.49375321,21.8905728 C4.56662901,23.0548004 5.57256228,23.9999428 6.73903289,23.9999428 L18.260917,23.9999428 Z" id="trash"></path>
        </g>
    </g>
</svg>