<?xml version="1.0" encoding="UTF-8"?><svg version="1.1" width="24px" height="24px" viewBox="0 0 24.0 24.0" xmlns="http://www.w3.org/2000/svg" xmlns:xlink="http://www.w3.org/1999/xlink"><defs><clipPath id="i0"><path d="M2.81249329,0 C3.12313098,0 3.37499195,0.251860972 3.37499195,0.562498659 L3.37499195,4.22400421 C5.52061672,1.84121265 8.63715592,0.350142598 12.1019151,0.37531954 C18.5193803,0.42191977 23.6541489,5.60763739 23.6405347,12.0252399 C23.6268663,18.433916 18.4274616,23.6249437 12.0155811,23.6249437 C9.01142261,23.6249437 6.27359039,22.4852522 4.21045444,20.61488 C3.97141082,20.398221 3.96042452,20.0264263 4.18857339,19.7983232 L5.7807632,18.2061334 C5.99046423,17.9963865 6.32742327,17.9849882 6.54952967,18.1815057 C8.00434493,19.4688257 9.91779252,20.2499517 12.0155811,20.2499517 C16.5749879,20.2499517 20.2655614,16.5601564 20.2655614,11.9999714 C20.2655614,7.44061031 16.5757661,3.74999106 12.0155811,3.74999106 C9.27358324,3.74999106 6.8462056,5.08478097 5.34648383,7.14059272 L9.95308601,7.14059272 C10.2637237,7.14059272 10.5155847,7.39245369 10.5155847,7.70309138 L10.5155847,9.95308601 C10.5155847,10.2637237 10.2637237,10.5155847 9.95308601,10.5155847 L0.562498659,10.5155847 C0.251860972,10.5155847 0,10.2637237 0,9.95308601 L0,0.562498659 C0,0.251860972 0.251860972,0 0.562498659,0 Z"></path></clipPath></defs><g transform=""><g clip-path="url(#i0)"><polygon points="0,0 23.6405617,0 23.6405617,23.6249437 0,23.6249437 0,0" stroke="none" fill="#696E73"></polygon></g></g></svg>