<?xml version="1.0" encoding="UTF-8"?><svg version="1.1" width="24px" height="24px" viewBox="0 0 24.0 24.0" xmlns="http://www.w3.org/2000/svg" xmlns:xlink="http://www.w3.org/1999/xlink"><defs><clipPath id="i0"><path d="M21.7499481,0 C22.9921327,0 23.9999428,1.0078101 23.9999428,2.24999464 L23.9999428,17.2499589 C23.9999428,18.4921434 22.9921327,19.4999535 21.7499481,19.4999535 L19.4999535,19.4999535 L19.4999535,21.7499481 C19.4999535,22.9921327 18.4921434,23.9999428 17.2499589,23.9999428 L2.24999464,23.9999428 C1.0078101,23.9999428 0,22.9921327 0,21.7499481 L0,6.74998391 C0,5.50779937 1.0078101,4.49998927 2.24999464,4.49998927 L4.49998927,4.49998927 L4.49998927,2.24999464 C4.49998927,1.0078101 5.50779937,0 6.74998391,0 Z M17.2499589,11.9999714 L2.24999464,11.9999714 L2.24999464,21.7499481 L17.2499589,21.7499481 L17.2499589,11.9999714 Z M21.7499481,2.24999464 L6.74998391,2.24999464 L6.74998391,4.49998927 L17.2499589,4.49998927 C18.4921434,4.49998927 19.4999535,5.50779937 19.4999535,6.74998391 L19.4999535,17.2499589 L21.7499481,17.2499589 L21.7499481,2.24999464 Z"></path></clipPath></defs><g clip-path="url(#i0)"><polygon points="0,0 23.9999428,0 23.9999428,23.9999428 0,23.9999428 0,0" stroke="none" fill="#696E73"></polygon></g></svg>