<?xml version="1.0" encoding="UTF-8"?><svg version="1.1" width="540px" height="121px" viewBox="0 0 540.0 121.0" xmlns="http://www.w3.org/2000/svg" xmlns:xlink="http://www.w3.org/1999/xlink"><defs><filter id="i0" x="-4.77941176%" y="-14.4%" filterUnits="userSpaceOnUse" width="108.823529%" height="138.4%"><feGaussianBlur stdDeviation="4" in="SourceAlpha" result="i1"></feGaussianBlur><feOffset dx="0" dy="8" in="i1" result="i2"></feOffset><feColorMatrix values="0 0 0 0.0 0 0 0 0 0.0 0 0 0 0 0.0 0 0 0 0 0.18 0" type="matrix" in="i2"></feColorMatrix></filter><clipPath id="i3"><path d="M540,0 L540,121 L0,121 L0,0 L540,0 Z"></path></clipPath><filter id="i4" x="-4.77941176%" y="-27.2%" filterUnits="userSpaceOnUse" width="108.823529%" height="138.4%"><feGaussianBlur stdDeviation="4" in="SourceAlpha" result="i5"></feGaussianBlur><feOffset dx="0" dy="-8" in="i5" result="i6"></feOffset><feColorMatrix values="0 0 0 0.0 0 0 0 0 0.0 0 0 0 0 0.0 0 0 0 0 0.18 0" type="matrix" in="i6"></feColorMatrix></filter><clipPath id="i7"><path d="M3,0 L3,121 L0,121 L0,0 L3,0 Z"></path></clipPath><clipPath id="i8"><path d="M7.74998152,0 C12.0312213,0 15.499963,3.46874173 15.499963,7.74998152 C15.499963,12.0312213 12.0312213,15.499963 7.74998152,15.499963 C3.46874173,15.499963 0,12.0312213 0,7.74998152 C0,3.46874173 3.46874173,0 7.74998152,0 Z M8.28123026,3.11562368 C7.98746875,2.82186217 7.5124943,2.82186217 7.22184557,3.11562368 L3.07186157,7.26249489 C2.77813058,7.55622588 2.77813058,8.03123085 3.07186157,8.32184906 L3.41249797,8.66559824 C3.71248505,8.96247253 4.19685889,8.95621644 4.48747709,8.65311658 L6.74998391,6.2937472 L6.74998391,11.9999714 C6.74998391,12.4155893 7.08436421,12.7499696 7.49998212,12.7499696 L7.99998093,12.7499696 C8.41559883,12.7499696 8.74997914,12.4155893 8.74997914,11.9999714 L8.74997914,6.2937472 L11.012486,8.65311658 C11.3031042,8.95621644 11.787478,8.96247253 12.0843523,8.66559824 L12.4249582,8.32184906 C12.7187197,8.02811807 12.7187197,7.5531131 12.4249582,7.26249489 Z"></path></clipPath><clipPath id="i9"><path d="M2.24999464,10.9999738 C3.49373557,10.9999738 4.49998927,12.0062275 4.49998927,13.2499684 C4.49998927,14.4937093 3.49373557,15.499963 2.24999464,15.499963 C1.0062537,15.499963 0,14.4937093 0,13.2499684 C0,12.0062275 1.0062537,10.9999738 2.24999464,10.9999738 Z M2.24999464,5.49998689 C3.49373557,5.49998689 4.49998927,6.50624059 4.49998927,7.74998152 C4.49998927,8.99372245 3.49373557,9.99997616 2.24999464,9.99997616 C1.0062537,9.99997616 0,8.99372245 0,7.74998152 C0,6.50624059 1.0062537,5.49998689 2.24999464,5.49998689 Z M2.24999464,0 C3.49373557,0 4.49998927,1.0062537 4.49998927,2.24999464 C4.49998927,3.49373557 3.49373557,4.49998927 2.24999464,4.49998927 C1.0062537,4.49998927 0,3.49373557 0,2.24999464 C0,1.0062537 1.0062537,0 2.24999464,0 Z"></path></clipPath><clipPath id="i10"><path d="M24,0 L24,24 L0,24 L0,0 L24,0 Z"></path></clipPath><clipPath id="i11"><path d="M436,0 L436,32 L0,32 L0,0 L436,0 Z"></path></clipPath><clipPath id="i12"><path d="M508,0 L508,4 L0,4 L0,0 L508,0 Z"></path></clipPath><clipPath id="i13"><path d="M16,0 L16,121 L0,121 L0,0 L16,0 Z"></path></clipPath><clipPath id="i14"><path d="M540,0 L540,16 L0,16 L0,0 L540,0 Z"></path></clipPath><clipPath id="i15"><path d="M508,0 L508,8 L0,8 L0,0 L508,0 Z"></path></clipPath><clipPath id="i16"><path d="M8,0 L8,32 L0,32 L0,0 L8,0 Z"></path></clipPath></defs><polygon points="6,6 534,6 534,115 6,115 6,6" stroke="none" fill="#000000" filter="url(#i0)"></polygon><g clip-path="url(#i3)"><polygon points="0,0 540,0 540,121 0,121 0,0" stroke="none" fill="#FFFFFF"></polygon></g><polygon points="6,6 534,6 534,115 6,115 6,6" stroke="none" fill="#000000" filter="url(#i4)"></polygon><g clip-path="url(#i3)"><polygon points="0,0 540,0 540,121 0,121 0,0" stroke="none" fill="#FFFFFF"></polygon></g><g clip-path="url(#i7)"><polygon points="0,0 3,0 3,121 0,121 0,0" stroke="none" fill="#009596"></polygon></g><g transform="translate(16.0 16.0)"><g transform="translate(4.0 4.0)"><g clip-path="url(#i8)"><polygon points="0,0 15.499963,0 15.499963,15.499963 0,15.499963 0,0" stroke="none" fill="#009596"></polygon></g></g></g><g transform="translate(484.0 16.0)"><g transform="translate(8.0 6.0)"><g transform="translate(10.0 3.999999999999999)"><g clip-path="url(#i9)"><polygon points="0,0 4.49998927,0 4.49998927,15.499963 0,15.499963 0,0" stroke="none" fill="#151515"></polygon><g clip-path="url(#i10)"><polygon points="0,0 4.49998927,0 4.49998927,15.499963 0,15.499963 0,0" stroke="none" fill="#696E73"></polygon></g></g></g></g></g><g transform="translate(16.0 84.0)"><text transform="translate(0.0 14.0)" font-family="RedHatText-Regular, Red Hat Text" font-size="14.0" font-weight="normal" fill="#696E73" text-anchor="left" line-spacing="21.0">A few minutes ago</text></g><g transform="translate(16.0 52.0)"><text transform="translate(0.0 16.0)" font-family="RedHatText-Regular, Red Hat Text" font-size="16.0" font-weight="normal" fill="#151515" text-anchor="left" line-spacing="24.0">Content</text></g><g transform="translate(48.0 16.0)"><g clip-path="url(#i11)"><text transform="translate(0.0 16.0)" font-family="RedHatDisplay-Medium, Red Hat Display" font-size="16.0" font-weight="500" fill="#151515" text-anchor="left" line-spacing="24.0">Title</text></g></g><g transform="translate(16.0 48.0)"><g clip-path="url(#i12)"><polygon points="0,0 508,0 508,4 0,4 0,0" stroke="none" fill="rgba(236, 121, 8, 0.9)"></polygon></g><g clip-path="url(#i12)"><polygon points="0,0 508,0 508,4 0,4 0,0 0,0" stroke="#C67000" stroke-width="2" fill="none" stroke-miterlimit="5"></polygon></g></g><g clip-path="url(#i13)"><polygon points="0,0 16,0 16,121 0,121 0,0" stroke="none" fill="rgba(62, 156, 52, 0.9)"></polygon></g><g clip-path="url(#i13)"><polygon points="0,0 16,0 16,121 0,121 0,0 0,0" stroke="#418A37" stroke-width="2" fill="none" stroke-miterlimit="5"></polygon></g><g transform="translate(524.0 0.0)"><g clip-path="url(#i13)"><polygon points="0,0 16,0 16,121 0,121 0,0" stroke="none" fill="rgba(62, 156, 52, 0.9)"></polygon></g><g clip-path="url(#i13)"><polygon points="0,0 16,0 16,121 0,121 0,0 0,0" stroke="#418A37" stroke-width="2" fill="none" stroke-miterlimit="5"></polygon></g></g><g clip-path="url(#i14)"><polygon points="0,0 540,0 540,16 0,16 0,0" stroke="none" fill="rgba(62, 156, 52, 0.9)"></polygon></g><g clip-path="url(#i14)"><polygon points="0,0 540,0 540,16 0,16 0,0 0,0" stroke="#418A37" stroke-width="2" fill="none" stroke-miterlimit="5"></polygon></g><g transform="translate(16.0 75.0)"><g transform="translate(0.0 1.0)"><g clip-path="url(#i15)"><polygon points="0,0 508,0 508,8 0,8 0,0" stroke="none" fill="rgba(146, 211, 0, 0.9)"></polygon></g><g clip-path="url(#i15)"><polygon points="0,0 508,0 508,8 0,8 0,0 0,0" stroke="#7EB200" stroke-width="2" fill="none" stroke-miterlimit="5"></polygon></g></g></g><g transform="translate(40.0 16.0)"><g clip-path="url(#i16)"><polygon points="0,0 8,0 8,32 0,32 0,0" stroke="none" fill="rgba(146, 211, 0, 0.9)"></polygon></g><g clip-path="url(#i16)"><polygon points="0,0 8,0 8,32 0,32 0,0 0,0" stroke="#7EB200" stroke-width="2" fill="none" stroke-miterlimit="5"></polygon></g></g><g transform="translate(0.0 105.0)"><g clip-path="url(#i14)"><polygon points="0,0 540,0 540,16 0,16 0,0" stroke="none" fill="rgba(62, 156, 52, 0.9)"></polygon></g><g clip-path="url(#i14)"><polygon points="0,0 540,0 540,16 0,16 0,0 0,0" stroke="#418A37" stroke-width="2" fill="none" stroke-miterlimit="5"></polygon></g></g></svg>