<svg xmlns="http://www.w3.org/2000/svg" width="320" height="172" viewBox="0 0 320 172">
  <g fill="none" fill-rule="evenodd">
    <rect width="319" height="171" x=".5" y=".5" fill="#FFF" stroke="#D2D2D2"/>
    <path fill="#6A6E73" d="M20.4166577,14.37498 C21.6603987,14.37498 22.6666524,13.3687263 22.6666524,12.1249854 C22.6666524,10.8812445 21.6603987,9.87499076 20.4166577,9.87499076 C19.1729168,9.87499076 18.1666631,10.8812445 18.1666631,12.1249854 C18.1666631,13.3687263 19.1729168,14.37498 20.4166577,14.37498 Z M20.4166577,19.8749669 C21.6603987,19.8749669 22.6666524,18.8687132 22.6666524,17.6249723 C22.6666524,16.3812314 21.6603987,15.3749776 20.4166577,15.3749776 C19.1729168,15.3749776 18.1666631,16.3812314 18.1666631,17.6249723 C18.1666631,18.8687132 19.1729168,19.8749669 20.4166577,19.8749669 Z M20.4166577,25.3749538 C21.6603987,25.3749538 22.6666524,24.3687001 22.6666524,23.1249592 C22.6666524,21.8812182 21.6603987,20.8749645 20.4166577,20.8749645 C19.1729168,20.8749645 18.1666631,21.8812182 18.1666631,23.1249592 C18.1666631,24.3687001 19.1729168,25.3749538 20.4166577,25.3749538 Z" transform="translate(256 24)"/>
    <text fill="#151515" font-family="RedHatText-Medium, Red Hat Text" font-size="16" font-weight="400">
      <tspan x="24" y="45">OPTIONAL title</tspan>
    </text>
    <g fill-opacity=".9">
      <rect width="23" height="171" x=".5" y=".5" fill="#007A87" stroke="#09707B"/>
      <rect width="23" height="171" x=".5" y=".5" fill="#007A87" stroke="#09707B" transform="translate(296)"/>
      <rect width="271" height="23" x=".5" y=".5" fill="#007A87" stroke="#09707B" transform="translate(24)"/>
      <rect width="271" height="23" x=".5" y=".5" fill="#007A87" stroke="#09707B" transform="translate(24 148)"/>
      <rect width="271" height="15" x=".5" y=".5" fill="#3F9C35" stroke="#418A38" transform="translate(24 60)"/>
    </g>
  </g>
</svg>
