<svg xmlns="http://www.w3.org/2000/svg" width="320" height="160" viewBox="0 0 320 160">
  <g fill="none" fill-rule="evenodd">
    <rect width="319" height="159" x=".5" y=".5" fill="#FFF" stroke="#D2D2D2"/>
    <path fill="#6A6E73" d="M12.2499946,8.49998927 C13.4937356,8.49998927 14.4999893,7.49373557 14.4999893,6.24999464 C14.4999893,5.0062537 13.4937356,4 12.2499946,4 C11.0062537,4 10,5.0062537 10,6.24999464 C10,7.49373557 11.0062537,8.49998927 12.2499946,8.49998927 Z M12.2499946,13.9999762 C13.4937356,13.9999762 14.4999893,12.9937225 14.4999893,11.7499815 C14.4999893,10.5062406 13.4937356,9.49998689 12.2499946,9.49998689 C11.0062537,9.49998689 10,10.5062406 10,11.7499815 C10,12.9937225 11.0062537,13.9999762 12.2499946,13.9999762 Z M12.2499946,19.499963 C13.4937356,19.499963 14.4999893,18.4937093 14.4999893,17.2499684 C14.4999893,16.0062275 13.4937356,14.9999738 12.2499946,14.9999738 C11.0062537,14.9999738 10,16.0062275 10,17.2499684 C10,18.4937093 11.0062537,19.499963 12.2499946,19.499963 Z" transform="translate(272 24)"/>
    <text fill="#151515" font-family="RedHatText-Regular, Red Hat Text" font-size="16">
      <tspan x="24" y="128">This is optional text in the footer</tspan>
    </text>
    <text fill="#151515" font-family="RedHatText-Regular, Red Hat Text" font-size="16">
      <tspan x="24" y="80">Some optional card description here</tspan>
    </text>
    <text fill="#151515" font-family="RedHatText-Medium, Red Hat Text" font-size="16" font-weight="400">
      <tspan x="24" y="40">OPTIONAL title</tspan>
    </text>
    <g fill-opacity=".9">
      <rect width="23" height="159" x=".5" y=".5" fill="#007A87" stroke="#09707B"/>
      <rect width="23" height="159" x=".5" y=".5" fill="#007A87" stroke="#09707B" transform="translate(296)"/>
      <rect width="271" height="23" x=".5" y=".5" fill="#007A87" stroke="#09707B" transform="translate(24)"/>
      <rect width="271" height="23" x=".5" y=".5" fill="#007A87" stroke="#09707B" transform="translate(24 136)"/>
      <rect width="271" height="15" x=".5" y=".5" fill="#3F9C35" stroke="#418A38" transform="translate(24 48)"/>
      <rect width="271" height="23" x=".5" y=".5" fill="#007A87" stroke="#09707B" transform="translate(24 88)"/>
    </g>
  </g>
</svg>
