<?xml version="1.0" encoding="UTF-8"?>
<svg width="197px" height="118px" viewBox="0 0 197 118" version="1.1" xmlns="http://www.w3.org/2000/svg" xmlns:xlink="http://www.w3.org/1999/xlink">
    <title></title>
    <g id="Alerts" stroke="none" stroke-width="1" fill="none" fill-rule="evenodd">
        <g id="Alerts-/-Inline-/-5.-Info-/-9.-Expandable-/-2.-Expanded">
            <g id="ðŸ“-Padding" transform="translate(0.000000, 0.000000)" fill-opacity="0.9">
                <g id="Spacer-/-Horizontal-/-3.-pf-global--spacer--md-(16px)" fill="#3F9C35" stroke="#418A38" transform="translate(8.000000, 59.000000) scale(-1, 1) translate(-8.000000, -59.000000) ">
                    <rect id="Rectangle-Copy-2" x="0.5" y="0.5" width="15" height="117"></rect>
                </g>
                <g id="Group" transform="translate(181.000000, 0.000000)" fill="#3F9C35" stroke="#418A38">
                    <g id="Spacer-/-Horizontal-/-3.-pf-global--spacer--md-(16px)" transform="translate(8.000000, 59.000000) scale(-1, 1) translate(-8.000000, -59.000000) ">
                        <rect id="Rectangle-Copy-2" x="0.5" y="0.5" width="15" height="117"></rect>
                    </g>
                </g>
                <g id="Group" transform="translate(66.000000, 16.000000)" fill="#EC7A08" stroke="#C77000">
                    <g id="Spacer-/-Horizontal-/-3.-pf-global--spacer--md-(16px)" transform="translate(2.000000, 24.500000) scale(-1, 1) translate(-2.000000, -24.500000) ">
                        <rect id="Rectangle" x="0.5" y="0.5" width="3" height="48"></rect>
                    </g>
                </g>
                <g id="Spacer-/-Vertical-/-1.-pf-global--spacer--xs-(4px)" transform="translate(70.000000, 40.000000)" fill="#EC7A08" stroke="#C77000">
                    <rect id="Rectangle" x="0.5" y="0.5" width="110" height="3"></rect>
                </g>
                <g id="Spacer-/-Vertical-/-3.-pf-global--spacer--md-(16px)" transform="translate(16.000000, 0.000000)" fill="#3F9C35" stroke="#418A38">
                    <rect id="Rectangle-Copy-2" x="0.5" y="0.5" width="164" height="15"></rect>
                </g>
                <g id="Spacer-/-Vertical-/-3.-pf-global--spacer--md-(16px)" transform="translate(16.000000, 102.000000)" fill="#3F9C35" stroke="#418A38">
                    <rect id="Rectangle-Copy-2" x="0.5" y="0.5" width="164" height="15"></rect>
                </g>
                <g id="Spacer-/-Vertical-/-3.-pf-global--spacer--md-(16px)" transform="translate(16.000000, 65.000000)" fill="#3F9C35" stroke="#418A38">
                    <rect id="Rectangle-Copy-2" x="0.5" y="0.5" width="164" height="15"></rect>
                </g>
                <g id="Spacer-/-Horizontal-/-3.-pf-global--spacer--md-(16px)" transform="translate(26.000000, 16.000000)" fill="#3F9C35" stroke="#418A38">
                    <rect id="Rectangle-Copy-2" x="0.5" y="0.5" width="15" height="48"></rect>
                </g>
                <g id="Group" transform="translate(66.000000, 81.000000)" fill="#EC7A08" stroke="#C77000">
                    <g id="Spacer-/-Horizontal-/-3.-pf-global--spacer--md-(16px)-Copy" transform="translate(2.000000, 10.500000) scale(-1, 1) translate(-2.000000, -10.500000) ">
                        <rect id="Rectangle" x="0.5" y="0.5" width="3" height="20"></rect>
                    </g>
                </g>
            </g>
            <rect id="Background" fill="#E7F1FA" x="0" y="0" width="197" height="118"></rect>
            <g id="Success-icon" transform="translate(46.000000, 20.000000)" fill="#2B9AF3">
                <path d="M7.74998152,15.499963 C12.0298785,15.499963 15.499963,12.0311298 15.499963,7.74998152 C15.499963,3.47133572 12.0298785,0 7.74998152,0 C3.4700845,0 0,3.47133572 0,7.74998152 C0,12.0311298 3.4700845,15.499963 7.74998152,15.499963 Z M7.74998152,6.06248555 C7.02509922,6.06248555 6.43748465,5.47487098 6.43748465,4.74998868 C6.43748465,4.02510637 7.02509922,3.4374918 7.74998152,3.4374918 C8.47486383,3.4374918 9.06247839,4.02510637 9.06247839,4.74998868 C9.06247839,5.47487098 8.47486383,6.06248555 7.74998152,6.06248555 Z M9.12497824,11.749972 L6.3749848,11.749972 C6.16789301,11.749972 5.99998569,11.5820647 5.99998569,11.3749729 L5.99998569,10.6249747 C5.99998569,10.4178829 6.16789301,10.2499839 6.3749848,10.2499839 L6.74998391,10.2499839 L6.74998391,8.24998391 L6.3749848,8.24998391 C6.16789301,8.24998391 5.99998569,8.08207302 5.99998569,7.87498122 L5.99998569,7.12498301 C5.99998569,6.91789122 6.16789301,6.74998391 6.3749848,6.74998391 L8.37498003,6.74998391 C8.58207182,6.74998391 8.74997914,6.91789122 8.74997914,7.12498301 L8.74997914,10.2499839 L9.12497824,10.2499839 C9.33207004,10.2499839 9.49998569,10.4178829 9.49998569,10.6249747 L9.49998569,11.3749729 C9.49998569,11.5820647 9.33207004,11.749972 9.12497824,11.749972 Z" id="info-circle"></path>
            </g>
            <g id="times" transform="translate(157.000000, 16.000000)" fill="#6A6E73">
                <path d="M9.37280471,17.7121708 L12.5,14.584981 L15.6271843,17.7121708 C16.0109114,18.0959284 16.6334075,18.0959284 17.0171651,17.7121708 L17.7121708,17.0171651 C18.0959284,16.6334075 18.0959284,16.0112471 17.7121708,15.6271843 L14.584981,12.5 L17.7121708,9.37280471 C18.0959284,8.98907759 18.0959284,8.36688669 17.7121708,7.98282389 L17.0171651,7.28781822 C16.6334075,6.90406059 16.0112471,6.90406059 15.6271843,7.28781822 L12.5,10.415008 L9.37280471,7.28781822 C8.98907759,6.90406059 8.36688669,6.90406059 7.98282389,7.28781822 L7.28781822,7.98282389 C6.90406059,8.36658152 6.90406059,8.9887419 7.28781822,9.37280471 L10.415008,12.5 L7.28781822,15.6271843 C6.90406059,16.0109114 6.90406059,16.6331023 7.28781822,17.0171651 L7.98282389,17.7121708 C8.36658152,18.0959284 8.98907759,18.0959284 9.37280471,17.7121708 Z"></path>
            </g>
            <text id="Action-2" font-family="RedHatText-Regular, Red Hat Text" font-size="14" font-weight="normal" line-spacing="21" fill="#0066CC">
                <tspan x="135" y="95">Action</tspan>
            </text>
            <text id="Action" font-family="RedHatText-Regular, Red Hat Text" font-size="14" font-weight="normal" line-spacing="21" fill="#0066CC">
                <tspan x="70" y="95">Action</tspan>
            </text>
            <text id="Description" font-family="RedHatText-Regular, Red Hat Text" font-size="14" font-weight="normal" line-spacing="21" fill="#151515">
                <tspan x="70" y="58">Description</tspan>
            </text>
            <text id="Title" font-family="RedHatText-Medium, Red Hat Text" font-size="14" font-weight="400" line-spacing="21" fill="#004368">
                <tspan x="70" y="32">Title</tspan>
            </text>
            <g id="Icons/1.-Size-md/Framework/angle-right" transform="translate(9.000000, 16.000000)" fill="#6A6E73">
                <path d="M12.5265524,15.2359089 L16.7765422,10.985919 C17.0703037,10.6953008 17.0703037,10.2202959 16.7765422,9.92656487 L16.0703061,9.22029824 C15.7796879,8.92656725 15.304683,8.92656725 15.0109215,9.22029824 L11.9984469,12.2328033 L8.98594192,9.22029824 C8.69532372,8.92656725 8.22031875,8.92656725 7.92655724,9.22029824 L7.22032113,9.92656487 C6.92655962,10.2171831 6.92655962,10.692188 7.22032113,10.985919 L11.470311,15.2359089 C11.7640725,15.5296704 12.239047,15.5296704 12.5265524,15.2359089 Z" id="angle-down"></path>
            </g>
            <rect id="Status-Color" fill="#2B9AF3" x="0" y="0" width="197" height="3"></rect>
        </g>
    </g>
</svg>