<?xml version="1.0" encoding="UTF-8"?>
<svg width="197px" height="118px" viewBox="0 0 197 118" version="1.1" xmlns="http://www.w3.org/2000/svg" xmlns:xlink="http://www.w3.org/1999/xlink">
    <title></title>
    <g id="Alerts" stroke="none" stroke-width="1" fill="none" fill-rule="evenodd">
        <g id="Alerts-/-Inline-/-5.-Info-/-9.-Expandable-/-2.-Expanded">
            <g id="ðŸ“-Padding" transform="translate(0.000000, 0.000000)" fill-opacity="0.9">
                <g id="Spacer-/-Horizontal-/-3.-pf-global--spacer--md-(16px)" transform="translate(8.000000, 59.000000) scale(-1, 1) translate(-8.000000, -59.000000) translate(-0.000000, 0.000000)" fill="#3F9C35" stroke="#418A38">
                    <rect id="Rectangle-Copy-2" x="0.5" y="0.5" width="15" height="117"></rect>
                </g>
                <g id="Spacer-/-Horizontal-/-3.-pf-global--spacer--md-(16px)" transform="translate(189.000000, 59.000000) scale(-1, 1) translate(-189.000000, -59.000000) translate(181.000000, 0.000000)" fill="#3F9C35" stroke="#418A38">
                    <rect id="Rectangle-Copy-2" x="0.5" y="0.5" width="15" height="117"></rect>
                </g>
                <g id="Spacer-/-Horizontal-/-3.-pf-global--spacer--md-(16px)" transform="translate(68.000000, 40.500000) scale(-1, 1) translate(-68.000000, -40.500000) translate(66.000000, 16.000000)" fill="#EC7A08" stroke="#C77000">
                    <rect id="Rectangle" x="0.5" y="0.5" width="3" height="48"></rect>
                </g>
                <g id="Spacer-/-Vertical-/-1.-pf-global--spacer--xs-(4px)" transform="translate(70.000000, 40.000000)" fill="#EC7A08" stroke="#C77000">
                    <rect id="Rectangle" x="0.5" y="0.5" width="110" height="3"></rect>
                </g>
                <g id="Spacer-/-Vertical-/-3.-pf-global--spacer--md-(16px)" transform="translate(16.000000, 0.000000)" fill="#3F9C35" stroke="#418A38">
                    <rect id="Rectangle-Copy-2" x="0.5" y="0.5" width="164" height="15"></rect>
                </g>
                <g id="Spacer-/-Vertical-/-3.-pf-global--spacer--md-(16px)" transform="translate(16.000000, 102.000000)" fill="#3F9C35" stroke="#418A38">
                    <rect id="Rectangle-Copy-2" x="0.5" y="0.5" width="164" height="15"></rect>
                </g>
                <g id="Spacer-/-Vertical-/-3.-pf-global--spacer--md-(16px)" transform="translate(16.000000, 65.000000)" fill="#3F9C35" stroke="#418A38">
                    <rect id="Rectangle-Copy-2" x="0.5" y="0.5" width="164" height="15"></rect>
                </g>
                <g id="Spacer-/-Horizontal-/-3.-pf-global--spacer--md-(16px)" transform="translate(26.000000, 16.000000)" fill="#3F9C35" stroke="#418A38">
                    <rect id="Rectangle-Copy-2" x="0.5" y="0.5" width="15" height="48"></rect>
                </g>
                <g id="Spacer-/-Horizontal-/-3.-pf-global--spacer--md-(16px)-Copy" transform="translate(68.000000, 91.500000) scale(-1, 1) translate(-68.000000, -91.500000) translate(66.000000, 81.000000)" fill="#EC7A08" stroke="#C77000">
                    <rect id="Rectangle" x="0.5" y="0.5" width="3" height="20"></rect>
                </g>
            </g>
            <rect id="Background" fill="#E7F1FA" x="0" y="0" width="197" height="118"></rect>
            <g id="Close-button" transform="translate(164.000000, 23.000000)" fill="#6A6E73">
                <path d="M2.37280471,10.7121708 L5.5,7.584981 L8.62718433,10.7121708 C9.01091144,11.0959284 9.63340751,11.0959284 10.0171651,10.7121708 L10.7121708,10.0171651 C11.0959284,9.63340751 11.0959284,9.01124713 10.7121708,8.62718433 L7.584981,5.5 L10.7121708,2.37280471 C11.0959284,1.98907759 11.0959284,1.36688669 10.7121708,0.98282389 L10.0171651,0.287818222 C9.63340751,-0.0959394075 9.01124713,-0.0959394075 8.62718433,0.287818222 L5.5,3.41500803 L2.37280471,0.287818222 C1.98907759,-0.0959394075 1.36688669,-0.0959394075 0.98282389,0.287818222 L0.287818222,0.98282389 C-0.0959394075,1.36658152 -0.0959394075,1.9887419 0.287818222,2.37280471 L3.41500803,5.5 L0.287818222,8.62718433 C-0.0959394075,9.01091144 -0.0959394075,9.63310234 0.287818222,10.0171651 L0.98282389,10.7121708 C1.36658152,11.0959284 1.98907759,11.0959284 2.37280471,10.7121708 Z" id="times"></path>
            </g>
            <text id="Action-2" font-family="RedHatText-Regular, Red Hat Text" font-size="14" font-weight="normal" line-spacing="21" fill="#0066CC">
                <tspan x="135" y="95">Action</tspan>
            </text>
            <text id="Action" font-family="RedHatText-Regular, Red Hat Text" font-size="14" font-weight="normal" line-spacing="21" fill="#0066CC">
                <tspan x="70" y="95">Action</tspan>
            </text>
            <text id="Description" font-family="RedHatText-Regular, Red Hat Text" font-size="14" font-weight="normal" line-spacing="21" fill="#151515">
                <tspan x="70" y="58">Description</tspan>
            </text>
            <text id="Title" font-family="RedHatText-Medium, Red Hat Text" font-size="14" font-weight="400" line-spacing="21" fill="#004368">
                <tspan x="70" y="32">Title</tspan>
            </text>
            <g id="Icons/1.-Size-md/Framework/angle-right" transform="translate(16.000000, 25.000000)" fill="#6A6E73">
                <path d="M5.52655238,6.2359089 L9.77654224,1.98591903 C10.0703037,1.69530083 10.0703037,1.22029586 9.77654224,0.926564869 L9.07030613,0.220298242 C8.77968793,-0.0734327473 8.30468296,-0.0734327473 8.01092145,0.220298242 L4.99844695,3.23280327 L1.98594192,0.220298242 C1.69532372,-0.0734327473 1.22031875,-0.0734327473 0.926557239,0.220298242 L0.22032113,0.926564869 C-0.0734403767,1.21718307 -0.0734403767,1.69218804 0.22032113,1.98591903 L4.470311,6.2359089 C4.7640725,6.52967041 5.23904696,6.52967041 5.52655238,6.2359089 Z" id="angle-down"></path>
            </g>
            <rect id="Status-Color" fill="#2B9AF3" x="0" y="0" width="197" height="3"></rect>
            <g id="Info-icon" transform="translate(45.000000, 20.000000)" fill="#2B9AF3">
                <path d="M7.74998152,15.499963 C12.0298785,15.499963 15.499963,12.0311298 15.499963,7.74998152 C15.499963,3.47133572 12.0298785,0 7.74998152,0 C3.4700845,0 0,3.47133572 0,7.74998152 C0,12.0311298 3.4700845,15.499963 7.74998152,15.499963 Z M7.74998152,6.06248555 C7.02509922,6.06248555 6.43748465,5.47487098 6.43748465,4.74998868 C6.43748465,4.02510637 7.02509922,3.4374918 7.74998152,3.4374918 C8.47486383,3.4374918 9.06247839,4.02510637 9.06247839,4.74998868 C9.06247839,5.47487098 8.47486383,6.06248555 7.74998152,6.06248555 Z M9.12497824,11.749972 L6.3749848,11.749972 C6.16789301,11.749972 5.99998569,11.5820647 5.99998569,11.3749729 L5.99998569,10.6249747 C5.99998569,10.4178829 6.16789301,10.2499839 6.3749848,10.2499839 L6.74998391,10.2499839 L6.74998391,8.24998391 L6.3749848,8.24998391 C6.16789301,8.24998391 5.99998569,8.08207302 5.99998569,7.87498122 L5.99998569,7.12498301 C5.99998569,6.91789122 6.16789301,6.74998391 6.3749848,6.74998391 L8.37498003,6.74998391 C8.58207182,6.74998391 8.74997914,6.91789122 8.74997914,7.12498301 L8.74997914,10.2499839 L9.12497824,10.2499839 C9.33207004,10.2499839 9.49998569,10.4178829 9.49998569,10.6249747 L9.49998569,11.3749729 C9.49998569,11.5820647 9.33207004,11.749972 9.12497824,11.749972 Z" id="info-circle"></path>
            </g>
        </g>
    </g>
</svg>