<?xml version="1.0" encoding="UTF-8"?>
<svg width="46px" height="32px" viewBox="0 0 46 32" version="1.1" xmlns="http://www.w3.org/2000/svg" xmlns:xlink="http://www.w3.org/1999/xlink">
    <title></title>
    <g id="Toggle-group" stroke="none" stroke-width="1" fill="none" fill-rule="evenodd">
        <g id="Toggle-group-/-On-white-bg-/-Icon-/-1.-Left-/-2.-Hover">
            <path d="M45.5,0.5 L45.5,31.5 L3,31.5 C2.30964406,31.5 1.68464406,31.220178 1.23223305,30.767767 C0.779822031,30.3153559 0.5,29.6903559 0.5,29 L0.5,29 L0.5,3 C0.5,2.30964406 0.779822031,1.68464406 1.23223305,1.23223305 C1.68464406,0.779822031 2.30964406,0.5 3,0.5 L3,0.5 L45.5,0.5 Z" id="Rectangle-Copy" stroke="#8A8D90" fill="#F0F0F0"></path>
            <g id="Icons-/-🖼-Dynamic-Icon" transform="translate(19.000000, 12.000000)">
                <g id="🖼-Icon" fill="#6A6E73">
                    <path d="M1.77960353,8.03412811 L4.12499589,5.68873575 L6.47038824,8.03412811 C6.75818358,8.32194633 7.22505563,8.32194633 7.51287386,8.03412811 L8.03412811,7.51287386 C8.32194633,7.22505563 8.32194633,6.75843535 8.03412811,6.47038824 L5.68873575,4.12499589 L8.03412811,1.77960353 C8.32194633,1.4918082 8.32194633,1.02516502 8.03412811,0.737117917 L7.51287386,0.215863667 C7.22505563,-0.0719545556 6.75843535,-0.0719545556 6.47038824,0.215863667 L4.12499589,2.56125602 L1.77960353,0.215863667 C1.4918082,-0.0719545556 1.02516502,-0.0719545556 0.737117917,0.215863667 L0.215863667,0.737117917 C-0.0719545556,1.02493614 -0.0719545556,1.49155643 0.215863667,1.77960353 L2.56125602,4.12499589 L0.215863667,6.47038824 C-0.0719545556,6.75818358 -0.0719545556,7.22482675 0.215863667,7.51287386 L0.737117917,8.03412811 C1.02493614,8.32194633 1.4918082,8.32194633 1.77960353,8.03412811 Z" id="times"></path>
                </g>
                <rect id="🎨-Color" fill="#151515" x="-8" y="-8" width="24" height="24"></rect>
            </g>
        </g>
    </g>
</svg>