<?xml version="1.0" encoding="UTF-8"?>
<svg width="46px" height="36px" viewBox="0 0 46 36" version="1.1" xmlns="http://www.w3.org/2000/svg" xmlns:xlink="http://www.w3.org/1999/xlink">
    <title></title>
    <g id="Toggle-group" stroke="none" stroke-width="1" fill="none" fill-rule="evenodd">
        <g id="Toggle-group-/-On-white-bg-/-Icon-/-1.-Left-/-4.-Disabled">
            <path d="M3,0 L46,0 L46,0 L46,36 L3,36 C1.34314575,36 2.02906125e-16,34.6568542 0,33 L0,3 C-2.02906125e-16,1.34314575 1.34314575,3.04359188e-16 3,0 Z" id="Rectangle-Copy" fill="#D2D2D2"></path>
            <g id="Icons/1.-Size-md/Framework/home" transform="translate(11.000000, 6.000000)" fill="#6A6E73">
                <path d="M18.2499684,16.999969 C18.6641825,16.999969 18.9999666,16.6641849 18.9999666,16.2499708 L18.9999666,8 L15.7499744,8 C15.3374692,8 14.9999762,7.66249737 14.9999762,7.24999225 L14.9999762,4 L9.74998868,4 C9.33577457,4 8.99999046,4.33578411 8.99999046,4.74999821 L8.99999046,16.2499708 C8.99999046,16.6641849 9.33577457,16.999969 9.74998868,16.999969 L18.2499684,16.999969 Z M18.9999738,7 L18.9999738,6.81066224 C18.9999738,6.63918438 18.9015477,6.4016056 18.7803016,6.28032904 L16.7196376,4.219665 C16.598361,4.09841895 16.3607822,4 16.1893044,4 L15.9999738,4 L15.9999738,7 L18.9999738,7 Z M14.2499779,19.9999619 C14.664192,19.9999619 14.9999762,19.6641777 14.9999762,19.2499636 L14.9999762,17.9999666 L9.74998868,17.9999666 C8.78502516,17.9999666 8,17.2149343 8,16.2499708 L8,6.99999285 L5.74999821,6.99999285 C5.33578411,6.99999285 5,7.33577696 5,7.74999106 L5,19.2499636 C5,19.6641777 5.33578411,19.9999619 5.74999821,19.9999619 L14.2499779,19.9999619 Z" id="copy"></path>
            </g>
        </g>
    </g>
</svg>