<?xml version="1.0" encoding="UTF-8"?>
<svg width="46px" height="36px" viewBox="0 0 46 36" version="1.1" xmlns="http://www.w3.org/2000/svg" xmlns:xlink="http://www.w3.org/1999/xlink">
    <title></title>
    <g id="Toggle-group" stroke="none" stroke-width="1" fill="none" fill-rule="evenodd">
        <g id="Toggle-group-/-On-white-bg-/-Icon-/-1.-Left-/-4.-Disabled">
            <path d="M3,0 L46,0 L46,0 L46,36 L3,36 C1.34314575,36 -1.57345071e-15,34.6568542 0,33 L0,3 C-2.02906125e-16,1.34314575 1.34314575,-1.39730022e-16 3,0 Z" id="Rectangle-Copy" fill="#D2D2D2"></path>
            <g id="Icons/1.-Size-md/Framework/home" transform="translate(16.000000, 10.000000)" fill="#6A6E73">
                <path d="M13.2499684,12.999969 C13.6641825,12.999969 13.9999666,12.6641849 13.9999666,12.2499708 L13.9999666,4 L10.7499744,4 C10.3374692,4 9.99997616,3.66249737 9.99997616,3.24999225 L9.99997616,1.77635684e-15 L4.74998868,1.77635684e-15 C4.33577457,1.77635684e-15 3.99999046,0.335784112 3.99999046,0.749998212 L3.99999046,12.2499708 C3.99999046,12.6641849 4.33577457,12.999969 4.74998868,12.999969 L13.2499684,12.999969 Z M13.9999738,3 L13.9999738,2.81066224 C13.9999738,2.63918438 13.9015477,2.4016056 13.7803016,2.28032904 L11.7196376,0.219665004 C11.598361,0.0984189548 11.3607822,1.77635684e-15 11.1893044,1.77635684e-15 L10.9999738,1.77635684e-15 L10.9999738,3 L13.9999738,3 Z M9.24997795,15.9999619 C9.66419205,15.9999619 9.99997616,15.6641777 9.99997616,15.2499636 L9.99997616,13.9999666 L4.74998868,13.9999666 C3.78502516,13.9999666 3,13.2149343 3,12.2499708 L3,2.99999285 L0.749998212,2.99999285 C0.335784112,2.99999285 0,3.33577696 0,3.74999106 L0,15.2499636 C0,15.6641777 0.335784112,15.9999619 0.749998212,15.9999619 L9.24997795,15.9999619 Z" id="copy"></path>
            </g>
        </g>
    </g>
</svg>