<?xml version="1.0" encoding="UTF-8"?><svg version="1.1" width="91px" height="29px" viewBox="0 0 91.0 29.0" xmlns="http://www.w3.org/2000/svg" xmlns:xlink="http://www.w3.org/1999/xlink"><defs><clipPath id="i0"><path d="M77,0 C84.7319865,-1.42034288e-15 91,6.2680135 91,14 L91,15 C91,22.7319865 84.7319865,29 77,29 L14,29 C6.2680135,29 9.46895252e-16,22.7319865 0,15 L0,14 C-9.46895252e-16,6.2680135 6.2680135,1.42034288e-15 14,0 L77,0 Z"></path></clipPath><clipPath id="i1"><path d="M0.737117917,0.215863667 C1.02516502,-0.0719545556 1.4918082,-0.0719545556 1.77960353,0.215863667 L4.12499589,2.56125602 L6.47038824,0.215863667 C6.75843535,-0.0719545556 7.22505563,-0.0719545556 7.51287386,0.215863667 L8.03412811,0.737117917 C8.32194633,1.02516502 8.32194633,1.4918082 8.03412811,1.77960353 L5.68873575,4.12499589 L8.03412811,6.47038824 C8.32194633,6.75843535 8.32194633,7.22505563 8.03412811,7.51287386 L7.51287386,8.03412811 C7.22505563,8.32194633 6.75818358,8.32194633 6.47038824,8.03412811 L4.12499589,5.68873575 L1.77960353,8.03412811 C1.4918082,8.32194633 1.02493614,8.32194633 0.737117917,8.03412811 L0.215863667,7.51287386 C-0.0719545556,7.22482675 -0.0719545556,6.75818358 0.215863667,6.47038824 L2.56125602,4.12499589 L0.215863667,1.77960353 C-0.0719545556,1.49155643 -0.0719545556,1.02493614 0.215863667,0.737117917 Z"></path></clipPath><clipPath id="i2"><path d="M5.90623592,0 C6.21873505,0 6.48435966,0.109374858 6.70310902,0.328124218 L11.6718472,5.29686237 C11.8905965,5.51561173 11.9999714,5.78123634 11.9999714,6.09373547 C11.9999714,6.40623461 11.8905965,6.67185921 11.6718472,6.89060857 L6.89060857,11.6718472 C6.67185921,11.8905965 6.40623461,11.9999714 6.09373547,11.9999714 C5.78123634,11.9999714 5.51561173,11.8905965 5.29686237,11.6718472 L0.328124218,6.70310902 C0.109374858,6.48435966 0,6.21873505 0,5.90623592 L0,1.12499732 C0,0.812498182 0.109374858,0.546873577 0.328124218,0.328124218 C0.546873577,0.109374858 0.812498182,0 1.12499732,0 Z M2.62499374,1.49999642 C2.31249461,1.49999642 2.04687,1.60937128 1.82812064,1.82812064 C1.60937128,2.04687 1.49999642,2.31249461 1.49999642,2.62499374 C1.49999642,2.93749288 1.60937128,3.20311748 1.82812064,3.42186684 C2.04687,3.6406162 2.31249461,3.74999106 2.62499374,3.74999106 C2.93749288,3.74999106 3.20311748,3.6406162 3.42186684,3.42186684 C3.6406162,3.20311748 3.74999106,2.93749288 3.74999106,2.62499374 C3.74999106,2.31249461 3.6406162,2.04687 3.42186684,1.82812064 C3.20311748,1.60937128 2.93749288,1.49999642 2.62499374,1.49999642 Z"></path></clipPath></defs><g clip-path="url(#i0)"><polygon points="0,0 91,0 91,29 0,29 0,0" stroke="none" fill="#FFFFFF"></polygon><path d="M14,0 L77,0 C84.7319865,-1.42034288e-15 91,6.2680135 91,14 L91,15 C91,22.7319865 84.7319865,29 77,29 L14,29 C6.2680135,29 9.46895252e-16,22.7319865 0,15 L0,14 C-9.46895252e-16,6.2680135 6.2680135,1.42034288e-15 14,0 Z" stroke="#D2D2D2" stroke-width="2" fill="none" stroke-miterlimit="5"></path></g><g transform="translate(24.0 4.0)"><text transform="translate(0.0 14.0)" font-family="RedHatText-Regular, Red Hat Text" font-size="14.0" font-weight="normal" fill="#151515" text-anchor="left" line-spacing="21.0">Label</text></g><g transform="translate(67.0 2.0)"><g transform="translate(8.0 8.0)"><g clip-path="url(#i1)"><polygon points="0,0 8.24999177,0 8.24999177,8.24999177 0,8.24999177 0,0" stroke="none" fill="#151515"></polygon></g></g></g><g transform="translate(0.0 2.0)"><g transform="translate(5.999999999999999 5.999999999999999)"><g clip-path="url(#i2)"><polygon points="0,0 11.9999714,0 11.9999714,11.9999714 0,11.9999714 0,0" stroke="none" fill="#151515"></polygon></g></g></g><g transform="translate(25.0 24.5)"><path d="M0,0.5 L33,0.5" stroke="#151515" stroke-width="1" fill="none" stroke-miterlimit="10" stroke-dasharray=" 4.0 2.0"></path></g></svg>