<?xml version="1.0" encoding="UTF-8"?><svg version="1.1" width="46px" height="18px" viewBox="0 0 46.0 18.0" xmlns="http://www.w3.org/2000/svg" xmlns:xlink="http://www.w3.org/1999/xlink"><defs><clipPath id="i0"><path d="M36,0 C40.9705627,-9.13077564e-16 45,4.02943725 45,9 C45,13.9705627 40.9705627,18 36,18 L9,18 C4.02943725,18 6.08718376e-16,13.9705627 0,9 C-6.08718376e-16,4.02943725 4.02943725,9.13077564e-16 9,0 L36,0 Z"></path></clipPath><clipPath id="i1"><path d="M8,0 L8,18 L0,18 L0,0 L8,0 Z"></path></clipPath></defs><g clip-path="url(#i0)"><polygon points="0,0 45,0 45,18 0,18 0,0" stroke="none" fill="#FFFFFF"></polygon><path d="M9,0 L36,0 C40.9705627,-9.13077564e-16 45,4.02943725 45,9 C45,13.9705627 40.9705627,18 36,18 L9,18 C4.02943725,18 6.08718376e-16,13.9705627 0,9 C-6.08718376e-16,4.02943725 4.02943725,9.13077564e-16 9,0 Z" stroke="#D2D2D2" stroke-width="2" fill="none" stroke-miterlimit="5"></path></g><g transform="translate(8.0 0.0)"><text transform="translate(0.0 12.0)" font-family="RedHatText-Regular, Red Hat Text" font-size="12.0" font-weight="normal" fill="#3E8634" text-anchor="left" line-spacing="18.0">Label</text></g><g clip-path="url(#i1)"><polygon points="0,0 8,0 8,18 0,18 0,0" stroke="none" fill="rgba(146, 211, 0, 0.9)"></polygon></g><g clip-path="url(#i1)"><polygon points="0,0 8,0 8,18 0,18 0,0 0,0" stroke="#7EB200" stroke-width="2" fill="none" stroke-miterlimit="5"></polygon></g><g transform="translate(38.0 0.0)"><g clip-path="url(#i1)"><polygon points="0,0 8,0 8,18 0,18 0,0" stroke="none" fill="rgba(146, 211, 0, 0.9)"></polygon></g><g clip-path="url(#i1)"><polygon points="0,0 8,0 8,18 0,18 0,0 0,0" stroke="#7EB200" stroke-width="2" fill="none" stroke-miterlimit="5"></polygon></g></g><g transform="translate(9.0 14.49810149343091)"><path d="M0,0.5 L28,0.5" stroke="#151515" stroke-width="1" fill="none" stroke-miterlimit="10" stroke-dasharray=" 4.0 2.0"></path></g></svg>