<svg xmlns="http://www.w3.org/2000/svg" xmlns:xlink="http://www.w3.org/1999/xlink" width="32" height="76" viewBox="0 0 32 76">
  <defs>
    <rect id="left-hover-b" width="32" height="76" x="0" y="0"/>
    <filter id="left-hover-a" width="262.5%" height="150%" x="-40.6%" y="-25%" filterUnits="objectBoundingBox">
      <feMorphology in="SourceAlpha" radius="2" result="shadowSpreadOuter1"/>
      <feOffset dx="20" in="shadowSpreadOuter1" result="shadowOffsetOuter1"/>
      <feGaussianBlur in="shadowOffsetOuter1" result="shadowBlurOuter1" stdDeviation="5"/>
      <feColorMatrix in="shadowBlurOuter1" values="0 0 0 0 0.0823529412   0 0 0 0 0.0823529412   0 0 0 0 0.0823529412  0 0 0 0.7 0"/>
    </filter>
  </defs>
  <g fill="none" fill-rule="evenodd">
    <use fill="#000" filter="url(#left-hover-a)" xlink:href="#left-hover-b"/>
    <use fill="#151515" xlink:href="#left-hover-b"/>
    <path fill="#2B9AF3" d="M14.5324209,16.7827983 L15.238657,16.0734189 C15.5324185,15.7828007 15.5324185,15.3077957 15.238657,15.0140648 L12.2261825,12.0015597 L15.2355442,8.98594192 C15.5292752,8.69532372 15.5292752,8.22031875 15.2355442,7.92655724 L14.5292776,7.22032113 C14.2386594,6.92655962 13.7636544,6.92655962 13.4699234,7.22032113 L9.21993357,11.470311 C8.92617206,11.7640725 8.92617206,12.239047 9.22304636,12.5328085 L13.4730362,16.7827983 C13.7636544,17.0765598 14.2386594,17.0765598 14.5324209,16.7827983 Z" transform="translate(4 26)"/>
    <g fill="#92D400" fill-opacity=".9" stroke="#7FB300">
      <rect width="7" height="75" x=".5" y=".5"/>
      <rect width="7" height="75" x=".5" y=".5" transform="translate(24)"/>
    </g>
  </g>
</svg>
