<svg xmlns="http://www.w3.org/2000/svg" xmlns:xlink="http://www.w3.org/1999/xlink" width="32" height="76" viewBox="0 0 32 76">
  <defs>
    <rect id="right-hover-b" width="32" height="76" x="0" y="0"/>
    <filter id="right-hover-a" width="262.5%" height="150%" x="-121.9%" y="-25%" filterUnits="objectBoundingBox">
      <feMorphology in="SourceAlpha" radius="2" result="shadowSpreadOuter1"/>
      <feOffset dx="-20" in="shadowSpreadOuter1" result="shadowOffsetOuter1"/>
      <feGaussianBlur in="shadowOffsetOuter1" result="shadowBlurOuter1" stdDeviation="5"/>
      <feColorMatrix in="shadowBlurOuter1" values="0 0 0 0 0.0823529412   0 0 0 0 0.0823529412   0 0 0 0 0.0823529412  0 0 0 0.7 0"/>
    </filter>
  </defs>
  <g fill="none" fill-rule="evenodd">
    <use fill="#000" filter="url(#right-hover-a)" xlink:href="#right-hover-b"/>
    <use fill="#151515" xlink:href="#right-hover-b"/>
    <path fill="#2B9AF3" d="M10.985919,16.7827983 L15.2359089,12.5328085 C15.5296704,12.239047 15.5296704,11.7640725 15.2327961,11.470311 L10.9828062,7.22032113 C10.692188,6.92655962 10.2171831,6.92655962 9.92342157,7.22032113 L9.22029824,7.93281333 C8.92656725,8.22343153 8.92656725,8.6984365 9.22029824,8.99219801 L12.2328033,12.0046725 L9.22029824,15.0171775 C8.92656725,15.3077957 8.92656725,15.7828007 9.22029824,16.0765622 L9.92656487,16.7827983 C10.2171831,17.0765598 10.692188,17.0765598 10.985919,16.7827983 Z" transform="translate(4 26)"/>
    <g fill="#92D400" fill-opacity=".9" stroke="#7FB300">
      <rect width="7" height="75" x=".5" y=".5"/>
      <rect width="7" height="75" x=".5" y=".5" transform="translate(24)"/>
    </g>
  </g>
</svg>
