<?xml version="1.0" encoding="UTF-8"?><svg version="1.1" width="134px" height="56px" viewBox="0 0 134.0 56.0" xmlns="http://www.w3.org/2000/svg" xmlns:xlink="http://www.w3.org/1999/xlink"><defs><clipPath id="i0"><path d="M134,0 L134,56 L0,56 L0,0 L134,0 Z"></path></clipPath><clipPath id="i1"><path d="M134,0 L134,1 L0,1 L0,0 L134,0 Z"></path></clipPath><clipPath id="i2"><path d="M16,0 L16,24 L0,24 L0,0 L16,0 Z"></path></clipPath><clipPath id="i3"><path d="M134,0 L134,16 L0,16 L0,0 L134,0 Z"></path></clipPath></defs><g clip-path="url(#i0)"><polygon points="0,0 134,0 134,56 0,56 0,0" stroke="none" fill="#FFFFFF"></polygon></g><g transform="translate(16.0 16.0)"><text transform="translate(0.0 16.0)" font-family="RedHatText-Regular, Red Hat Text" font-size="16.0" font-weight="normal" fill="#151515" text-anchor="left" line-spacing="24.0">Hover section</text></g><g clip-path="url(#i1)"><polygon points="0,0 134,0 134,1 0,1 0,0" stroke="none" fill="#FFFFFF"></polygon><polygon points="0,0 134,0 134,1 0,1 0,0 0,0" stroke="#D2D2D2" stroke-width="2" fill="none" stroke-miterlimit="5"></polygon></g><g transform="translate(0.0 16.00000000000006)"><g clip-path="url(#i2)"><polygon points="0,0 16,0 16,24 0,24 0,0" stroke="none" fill="rgba(62, 156, 52, 0.9)"></polygon></g><g clip-path="url(#i2)"><polygon points="0,0 16,0 16,24 0,24 0,0 0,0" stroke="#418A37" stroke-width="2" fill="none" stroke-miterlimit="5"></polygon></g></g><g transform="translate(0.0 40.0)"><g clip-path="url(#i3)"><polygon points="0,0 134,0 134,16 0,16 0,0" stroke="none" fill="rgba(62, 156, 52, 0.9)"></polygon></g><g clip-path="url(#i3)"><polygon points="0,0 134,0 134,16 0,16 0,0 0,0" stroke="#418A37" stroke-width="2" fill="none" stroke-miterlimit="5"></polygon></g></g><g transform="translate(118.0 16.0)"><g clip-path="url(#i2)"><polygon points="0,0 16,0 16,24 0,24 0,0" stroke="none" fill="rgba(62, 156, 52, 0.9)"></polygon></g><g clip-path="url(#i2)"><polygon points="0,0 16,0 16,24 0,24 0,0 0,0" stroke="#418A37" stroke-width="2" fill="none" stroke-miterlimit="5"></polygon></g></g><g clip-path="url(#i3)"><polygon points="0,0 134,0 134,16 0,16 0,0" stroke="none" fill="rgba(62, 156, 52, 0.9)"></polygon></g><g clip-path="url(#i3)"><polygon points="0,0 134,0 134,16 0,16 0,0 0,0" stroke="#418A37" stroke-width="2" fill="none" stroke-miterlimit="5"></polygon></g></svg>