<?xml version="1.0" encoding="UTF-8"?><svg version="1.1" width="16px" height="56px" viewBox="0 0 16.0 56.0" xmlns="http://www.w3.org/2000/svg" xmlns:xlink="http://www.w3.org/1999/xlink"><defs><clipPath id="i0"><path d="M16,0 L16,56 L0,56 L0,0 L16,0 Z"></path></clipPath><clipPath id="i1"><path d="M16,0 L16,1 L0,1 L0,0 L16,0 Z"></path></clipPath></defs><g transform=""><g clip-path="url(#i0)"><polygon points="0,0 16,0 16,56 0,56 0,0" stroke="none" fill="#FFFFFF"></polygon></g></g><g clip-path="url(#i1)"><polygon points="0,0 16,0 16,1 0,1 0,0" stroke="none" fill="#FFFFFF"></polygon><polygon points="0,0 16,0 16,1 0,1 0,0 0,0" stroke="#D2D2D2" stroke-width="2" fill="none" stroke-miterlimit="5"></polygon></g><g clip-path="url(#i0)"><polygon points="0,0 16,0 16,56 0,56 0,0" stroke="none" fill="rgba(62, 156, 52, 0.9)"></polygon></g><g clip-path="url(#i0)"><polygon points="0,0 16,0 16,56 0,56 0,0 0,0" stroke="#418A37" stroke-width="2" fill="none" stroke-miterlimit="5"></polygon></g></svg>