<?xml version="1.0" encoding="UTF-8"?><svg version="1.1" width="452px" height="209px" viewBox="0 0 452.0 209.0" xmlns="http://www.w3.org/2000/svg" xmlns:xlink="http://www.w3.org/1999/xlink"><defs><clipPath id="i0"><path d="M151,0 L225,128 L298,58.8 L372,176.8 L448,202.8 L0,202.8 L0,20.1333333 L78,104.320846 L151,0 Z"></path></clipPath><clipPath id="i1"><path d="M3,0 C4.65685425,0 6,1.34314575 6,3 C6,4.65685425 4.65685425,6 3,6 C1.34314575,6 0,4.65685425 0,3 C0,1.34314575 1.34314575,0 3,0 Z"></path></clipPath></defs><g transform="translate(0.0 0.5)"><g transform="translate(1.0 3.700000000000074)"><g clip-path="url(#i0)"><polygon points="0,0 448,0 448,202.8 0,202.8 0,0" stroke="none" fill="rgba(0, 102, 204, 0.4)"></polygon></g></g><g transform="translate(3.0 3.7000000000000455)"><path d="M0,20.8 L75.5,103.960144 L149.5,0 L223,128 L296.5,58.8 L370,176.8 L446,201.8" stroke="#0066CC" stroke-width="2" fill="none" stroke-linecap="round" stroke-miterlimit="10"></path></g><g transform="translate(0.0 21.5)"><g clip-path="url(#i1)"><polygon points="0,0 6,0 6,6 0,6 0,0" stroke="none" fill="#0066CC"></polygon></g></g><g transform="translate(76.0 103.5)"><g clip-path="url(#i1)"><polygon points="0,0 6,0 6,6 0,6 0,0" stroke="none" fill="#0066CC"></polygon></g></g><g transform="translate(223.0 128.5)"><g clip-path="url(#i1)"><polygon points="0,0 6,0 6,6 0,6 0,0" stroke="none" fill="#0066CC"></polygon></g></g><g transform="translate(297.0 59.5)"><g clip-path="url(#i1)"><polygon points="0,0 6,0 6,6 0,6 0,0" stroke="none" fill="#0066CC"></polygon></g></g><g transform="translate(149.5 0.0)"><g clip-path="url(#i1)"><polygon points="0,0 6,0 6,6 0,6 0,0" stroke="none" fill="#0066CC"></polygon></g></g><g transform="translate(370.0 177.5)"><g clip-path="url(#i1)"><polygon points="0,0 6,0 6,6 0,6 0,0" stroke="none" fill="#0066CC"></polygon></g></g><g transform="translate(446.0 202.5)"><g clip-path="url(#i1)"><polygon points="0,0 6,0 6,6 0,6 0,0" stroke="none" fill="#0066CC"></polygon></g></g></g></svg>