<?xml version="1.0" encoding="UTF-8"?><svg version="1.1" width="1499px" height="336px" viewBox="0 0 1499.0 336.0" xmlns="http://www.w3.org/2000/svg" xmlns:xlink="http://www.w3.org/1999/xlink"><defs><clipPath id="i0"><path d="M1460,0 L1460,1 L0,1 L0,0 L1460,0 Z"></path></clipPath><clipPath id="i1"><path d="M5,0 L5,1 L0,1 L0,0 L5,0 Z"></path></clipPath><clipPath id="i2"><path d="M1,0 L1,300 L0,300 L0,0 L1,0 Z"></path></clipPath><clipPath id="i3"><path d="M706.117755,0 L1050,42 L1050,170 L0,169.5 L0,100.409691 L362.235511,82 L706.117755,0 Z"></path></clipPath><clipPath id="i4"><path d="M3,0 C4.65685425,0 6,1.34314575 6,3 C6,4.65685425 4.65685425,6 3,6 C1.34314575,6 0,4.65685425 0,3 C0,1.34314575 1.34314575,0 3,0 Z"></path></clipPath><clipPath id="i5"><path d="M1410,0 L1410,129.498069 L0,130 L0,83.3204633 L361.798561,63.2432432 L706.690647,51.1969112 L1050.13361,10.03861 L1410,0 Z"></path></clipPath></defs><g transform="translate(39.0 308.0)"><g transform="translate(13.0 7.0)"><text transform="translate(0.0 14.0)" font-family="RedHatText-Regular, Red Hat Text" font-size="14.0" font-weight="normal" fill="#141514" text-anchor="left" line-spacing="21.0">2015</text></g><g transform="translate(245.0 7.0)"><text transform="translate(0.0 14.0)" font-family="RedHatText-Regular, Red Hat Text" font-size="14.0" font-weight="normal" fill="#141514" text-anchor="left" line-spacing="21.0">2016</text></g><g transform="translate(480.0 7.0)"><text transform="translate(0.0 14.0)" font-family="RedHatText-Regular, Red Hat Text" font-size="14.0" font-weight="normal" fill="#141514" text-anchor="left" line-spacing="21.0">2017</text></g><g transform="translate(714.0 7.0)"><text transform="translate(0.0 14.0)" font-family="RedHatText-Regular, Red Hat Text" font-size="14.0" font-weight="normal" fill="#141514" text-anchor="left" line-spacing="21.0">2018</text></g><g transform="translate(949.0 7.0)"><text transform="translate(0.0 14.0)" font-family="RedHatText-Regular, Red Hat Text" font-size="14.0" font-weight="normal" fill="#141514" text-anchor="left" line-spacing="21.0">2019</text></g><g transform="translate(1184.0 7.0)"><text transform="translate(0.0 14.0)" font-family="RedHatText-Regular, Red Hat Text" font-size="14.0" font-weight="normal" fill="#141514" text-anchor="left" line-spacing="21.0">2020</text></g><g transform="translate(1419.0 7.0)"><text transform="translate(0.0 14.0)" font-family="RedHatText-Regular, Red Hat Text" font-size="14.0" font-weight="normal" fill="#141514" text-anchor="left" line-spacing="21.0">2021</text></g><g clip-path="url(#i0)"><polygon points="0,0 1460,0 1460,1 0,1 0,0" stroke="none" fill="#D2D2D2"></polygon></g><g transform="translate(30.0 1.0) rotate(90.0)"><g clip-path="url(#i1)"><polygon points="0,0 5,0 5,1 0,1 0,0" stroke="none" fill="#D2D2D2"></polygon></g></g><g transform="translate(266.0 1.0) rotate(90.0)"><g clip-path="url(#i1)"><polygon points="0,0 5,0 5,1 0,1 0,0" stroke="none" fill="#D2D2D2"></polygon></g></g></g><g transform="translate(15.0 294.2000007629395)"><text transform="translate(0.0 14.0)" font-family="RedHatText-Regular, Red Hat Text" font-size="14.0" font-weight="normal" fill="#141514" text-anchor="left" line-spacing="21.0">0</text></g><g transform="translate(9.0 265.2000007629395)"><text transform="translate(0.0 14.0)" font-family="RedHatText-Regular, Red Hat Text" font-size="14.0" font-weight="normal" fill="#141514" text-anchor="left" line-spacing="21.0">10</text></g><g transform="translate(6.0 235.4000007629394)"><text transform="translate(0.0 14.0)" font-family="RedHatText-Regular, Red Hat Text" font-size="14.0" font-weight="normal" fill="#141514" text-anchor="left" line-spacing="21.0">20</text></g><g transform="translate(6.0 206.0000007629395)"><text transform="translate(0.0 14.0)" font-family="RedHatText-Regular, Red Hat Text" font-size="14.0" font-weight="normal" fill="#141514" text-anchor="left" line-spacing="21.0">30</text></g><g transform="translate(6.0 176.6000007629395)"><text transform="translate(0.0 14.0)" font-family="RedHatText-Regular, Red Hat Text" font-size="14.0" font-weight="normal" fill="#141514" text-anchor="left" line-spacing="21.0">40</text></g><g transform="translate(6.0 147.2000007629395)"><text transform="translate(0.0 14.0)" font-family="RedHatText-Regular, Red Hat Text" font-size="14.0" font-weight="normal" fill="#141514" text-anchor="left" line-spacing="21.0">50</text></g><g transform="translate(6.0 117.80000076293942)"><text transform="translate(0.0 14.0)" font-family="RedHatText-Regular, Red Hat Text" font-size="14.0" font-weight="normal" fill="#141514" text-anchor="left" line-spacing="21.0">60</text></g><g transform="translate(7.0 88.40000076293947)"><text transform="translate(0.0 14.0)" font-family="RedHatText-Regular, Red Hat Text" font-size="14.0" font-weight="normal" fill="#141514" text-anchor="left" line-spacing="21.0">70</text></g><g transform="translate(6.0 59.000000762939464)"><text transform="translate(0.0 14.0)" font-family="RedHatText-Regular, Red Hat Text" font-size="14.0" font-weight="normal" fill="#141514" text-anchor="left" line-spacing="21.0">80</text></g><g transform="translate(6.0 29.60000076293946)"><text transform="translate(0.0 14.0)" font-family="RedHatText-Regular, Red Hat Text" font-size="14.0" font-weight="normal" fill="#141514" text-anchor="left" line-spacing="21.0">90</text></g><g transform="translate(0.0 0.20000076293945312)"><text transform="translate(0.0 14.0)" font-family="RedHatText-Regular, Red Hat Text" font-size="14.0" font-weight="normal" fill="#141514" text-anchor="left" line-spacing="21.0">100</text></g><g transform="translate(34.0 8.0)"><g transform="translate(0.0 264.0)"><g clip-path="url(#i1)"><polygon points="0,0 5,0 5,1 0,1 0,0" stroke="none" fill="#D2D2D2"></polygon></g></g><g transform="translate(0.0 235.0)"><g clip-path="url(#i1)"><polygon points="0,0 5,0 5,1 0,1 0,0" stroke="none" fill="#D2D2D2"></polygon></g></g><g transform="translate(0.0 205.0)"><g clip-path="url(#i1)"><polygon points="0,0 5,0 5,1 0,1 0,0" stroke="none" fill="#D2D2D2"></polygon></g></g><g transform="translate(0.0 176.0)"><g clip-path="url(#i1)"><polygon points="0,0 5,0 5,1 0,1 0,0" stroke="none" fill="#D2D2D2"></polygon></g></g><g transform="translate(0.0 147.0)"><g clip-path="url(#i1)"><polygon points="0,0 5,0 5,1 0,1 0,0" stroke="none" fill="#D2D2D2"></polygon></g></g><g transform="translate(0.0 117.0)"><g clip-path="url(#i1)"><polygon points="0,0 5,0 5,1 0,1 0,0" stroke="none" fill="#D2D2D2"></polygon></g></g><g transform="translate(0.0 88.0)"><g clip-path="url(#i1)"><polygon points="0,0 5,0 5,1 0,1 0,0" stroke="none" fill="#D2D2D2"></polygon></g></g><g transform="translate(0.0 59.0)"><g clip-path="url(#i1)"><polygon points="0,0 5,0 5,1 0,1 0,0" stroke="none" fill="#D2D2D2"></polygon></g></g><g transform="translate(0.0 29.0)"><g clip-path="url(#i1)"><polygon points="0,0 5,0 5,1 0,1 0,0" stroke="none" fill="#D2D2D2"></polygon></g></g><g clip-path="url(#i1)"><polygon points="0,0 5,0 5,1 0,1 0,0" stroke="none" fill="#D2D2D2"></polygon></g></g><g transform="translate(38.0 9.0)"><g clip-path="url(#i2)"><polygon points="0,0 1,0 1,300 0,300 0,0" stroke="none" fill="#D2D2D2"></polygon></g></g><g transform="translate(541.0 309.0) rotate(90.0)"><g clip-path="url(#i1)"><polygon points="-1.13686838e-13,0 5,0 5,1 -1.13686838e-13,1 -1.13686838e-13,0" stroke="none" fill="#D2D2D2"></polygon></g></g><g transform="translate(775.0 309.0) rotate(90.0)"><g clip-path="url(#i1)"><polygon points="-1.13686838e-13,0 5,0 5,1 -1.13686838e-13,1 -1.13686838e-13,0" stroke="none" fill="#D2D2D2"></polygon></g></g><g transform="translate(1009.0 309.0) rotate(90.0)"><g clip-path="url(#i1)"><polygon points="0,0 5,0 5,1 0,1 0,0" stroke="none" fill="#D2D2D2"></polygon></g></g><g transform="translate(1245.0 309.0) rotate(90.0)"><g clip-path="url(#i1)"><polygon points="0,0 5,0 5,1 0,1 0,0" stroke="none" fill="#D2D2D2"></polygon></g></g><g transform="translate(1479.0 309.0) rotate(90.0)"><g clip-path="url(#i1)"><polygon points="0,0 5,0 5,1 0,1 0,0" stroke="none" fill="#D2D2D2"></polygon></g></g><g transform="translate(66.0 135.0)"><g transform="translate(3.0 4.0)"><g clip-path="url(#i3)"><polygon points="0,0 1050,0 1050,170 0,170 0,0" stroke="none" fill="rgba(0, 102, 204, 0.2)"></polygon></g><polygon points="0,169.5 0,100.409691 362.235511,82 706.117755,0 1050,42 1050,170 0,169.5 0,169.5" stroke="#0066CC" stroke-width="1" fill="none" stroke-miterlimit="10"></polygon></g><g transform="translate(0.0 101.0)"><g clip-path="url(#i4)"><polygon points="0,0 6,0 6,6 0,6 0,0" stroke="none" fill="#0066CC"></polygon></g></g><g transform="translate(361.0 83.0)"><g clip-path="url(#i4)"><polygon points="0,0 6,0 6,6 0,6 0,0" stroke="none" fill="#0066CC"></polygon></g></g><g transform="translate(706.0 0.0)"><g clip-path="url(#i4)"><polygon points="0,0 6,0 6,6 0,6 0,0" stroke="none" fill="#0066CC"></polygon></g></g><g transform="translate(1050.0 43.0)"><g clip-path="url(#i4)"><polygon points="0,0 6,0 6,6 0,6 0,0" stroke="none" fill="#0066CC"></polygon></g></g></g><g transform="translate(66.0 176.0)"><g transform="translate(2.0 3.0)"><g clip-path="url(#i5)"><polygon points="0,0 1410,0 1410,130 0,130 0,0" stroke="none" fill="rgba(240, 171, 0, 0.2)"></polygon></g><polygon points="0,130 0,83.3204633 361.798561,63.2432432 706.690647,51.1969112 1050.13361,10.03861 1410,0 1410,129.498069 0,130 0,130" stroke="#F0AB00" stroke-width="1" fill="none" stroke-miterlimit="10"></polygon></g><g transform="translate(0.0 83.0)"><g clip-path="url(#i4)"><polygon points="0,0 6,0 6,6 0,6 0,0" stroke="none" fill="#F0AB00"></polygon></g></g><g transform="translate(361.0 63.0)"><g clip-path="url(#i4)"><polygon points="0,0 6,0 6,6 0,6 0,0" stroke="none" fill="#F0AB00"></polygon></g></g><g transform="translate(706.0 51.0)"><g clip-path="url(#i4)"><polygon points="0,0 6,0 6,6 0,6 0,0" stroke="none" fill="#F0AB00"></polygon></g></g><g transform="translate(1050.0 10.0)"><g clip-path="url(#i4)"><polygon points="0,0 6,0 6,6 0,6 0,0" stroke="none" fill="#F0AB00"></polygon></g></g><g transform="translate(1409.0 0.0)"><g clip-path="url(#i4)"><polygon points="0,0 6,0 6,6 0,6 0,0" stroke="none" fill="#F0AB00"></polygon></g></g></g></svg>