<?xml version="1.0" encoding="UTF-8"?>
<svg width="1499px" height="336px" viewBox="0 0 1499 336" version="1.1" xmlns="http://www.w3.org/2000/svg" xmlns:xlink="http://www.w3.org/1999/xlink">
    <title></title>
    <g id="Charts" stroke="none" stroke-width="1" fill="none" fill-rule="evenodd">
        <g id="Charts-/-Area-/-Full">
            <g id="Group">
                <g id="Line-Chart---Dark-Copy" transform="translate(39.000000, 308.000000)">
                    <text id="2015" font-family="RedHatText-Regular, Red Hat Text" font-size="14" font-weight="normal" line-spacing="21" fill="#151515">
                        <tspan x="13" y="21">2015</tspan>
                    </text>
                    <text id="2016" font-family="RedHatText-Regular, Red Hat Text" font-size="14" font-weight="normal" line-spacing="21" fill="#151515">
                        <tspan x="245" y="21">2016</tspan>
                    </text>
                    <text id="2017" font-family="RedHatText-Regular, Red Hat Text" font-size="14" font-weight="normal" line-spacing="21" fill="#151515">
                        <tspan x="480" y="21">2017</tspan>
                    </text>
                    <text id="2018" font-family="RedHatText-Regular, Red Hat Text" font-size="14" font-weight="normal" line-spacing="21" fill="#151515">
                        <tspan x="714" y="21">2018</tspan>
                    </text>
                    <text id="2019" font-family="RedHatText-Regular, Red Hat Text" font-size="14" font-weight="normal" line-spacing="21" fill="#151515">
                        <tspan x="949" y="21">2019</tspan>
                    </text>
                    <text id="2020" font-family="RedHatText-Regular, Red Hat Text" font-size="14" font-weight="normal" line-spacing="21" fill="#151515">
                        <tspan x="1184" y="21">2020</tspan>
                    </text>
                    <text id="2021" font-family="RedHatText-Regular, Red Hat Text" font-size="14" font-weight="normal" line-spacing="21" fill="#151515">
                        <tspan x="1419" y="21">2021</tspan>
                    </text>
                    <rect id="Rectangle-5" fill="#D2D2D2" x="0" y="0" width="1460" height="1"></rect>
                    <polygon id="tick-mark" fill="#D2D2D2" transform="translate(28.500000, 3.500000) rotate(90.000000) translate(-28.500000, -3.500000) " points="26 3 31 3 31 4 26 4"></polygon>
                    <polygon id="tick-mark" fill="#D2D2D2" transform="translate(265.500000, 3.500000) rotate(90.000000) translate(-265.500000, -3.500000) " points="263 3 268 3 268 4 263 4"></polygon>
                </g>
                <g id="y-axis-values" fill="#151515" font-family="RedHatText-Regular, Red Hat Text" font-size="14" font-weight="normal" line-spacing="21">
                    <text id="0">
                        <tspan x="15" y="308.200001">0</tspan>
                    </text>
                    <text id="10">
                        <tspan x="9" y="279.200001">10</tspan>
                    </text>
                    <text id="20">
                        <tspan x="6" y="249.400001">20</tspan>
                    </text>
                    <text id="30">
                        <tspan x="6" y="220.000001">30</tspan>
                    </text>
                    <text id="40">
                        <tspan x="6" y="190.600001">40</tspan>
                    </text>
                    <text id="50">
                        <tspan x="6" y="161.200001">50</tspan>
                    </text>
                    <text id="60">
                        <tspan x="6" y="131.800001">60</tspan>
                    </text>
                    <text id="70">
                        <tspan x="7" y="102.400001">70</tspan>
                    </text>
                    <text id="80">
                        <tspan x="6" y="73.0000008">80</tspan>
                    </text>
                    <text id="90">
                        <tspan x="6" y="43.6000008">90</tspan>
                    </text>
                    <text id="100">
                        <tspan x="0" y="14.2000008">100</tspan>
                    </text>
                </g>
                <g id="Tick-marks" transform="translate(34.000000, 8.000000)" fill="#D2D2D2">
                    <rect id="tick-mark" x="0" y="264" width="5" height="1"></rect>
                    <polygon id="tick-mark" points="0 235 5 235 5 236 0 236"></polygon>
                    <polygon id="tick-mark" points="0 205 5 205 5 206 0 206"></polygon>
                    <polygon id="tick-mark" points="0 176 5 176 5 177 0 177"></polygon>
                    <polygon id="tick-mark" points="0 147 5 147 5 148 0 148"></polygon>
                    <polygon id="tick-mark" points="0 117 5 117 5 118 0 118"></polygon>
                    <polygon id="tick-mark" points="0 88 5 88 5 89 0 89"></polygon>
                    <polygon id="tick-mark" points="0 59 5 59 5 60 0 60"></polygon>
                    <polygon id="tick-mark" points="0 29 5 29 5 30 0 30"></polygon>
                    <polygon id="tick-mark" points="0 0 5 0 5 1 0 1"></polygon>
                </g>
                <rect id="y-axis-stroke" fill="#D2D2D2" x="38" y="9" width="1" height="300"></rect>
                <polygon id="tick-mark" fill="#D2D2D2" transform="translate(540.500000, 311.500000) rotate(90.000000) translate(-540.500000, -311.500000) " points="538 311 543 311 543 312 538 312"></polygon>
                <polygon id="tick-mark" fill="#D2D2D2" transform="translate(774.500000, 311.500000) rotate(90.000000) translate(-774.500000, -311.500000) " points="772 311 777 311 777 312 772 312"></polygon>
                <polygon id="tick-mark" fill="#D2D2D2" transform="translate(1008.500000, 311.500000) rotate(90.000000) translate(-1008.500000, -311.500000) " points="1006 311 1011 311 1011 312 1006 312"></polygon>
                <polygon id="tick-mark" fill="#D2D2D2" transform="translate(1244.500000, 311.500000) rotate(90.000000) translate(-1244.500000, -311.500000) " points="1242 311 1247 311 1247 312 1242 312"></polygon>
                <polygon id="tick-mark" fill="#D2D2D2" transform="translate(1478.500000, 311.500000) rotate(90.000000) translate(-1478.500000, -311.500000) " points="1476 311 1481 311 1481 312 1476 312"></polygon>
            </g>
            <g id="dogs" transform="translate(68.000000, 179.000000)" fill="#005F60" fill-opacity="0.395733173" stroke="#003D44" stroke-width="2">
                <path d="M0,130 L0,83.3219595 C131.377316,74.9295059 251.976836,68.2373137 361.798561,63.2453829 C526.531148,55.7574867 498.711629,67.2745922 706.690647,51.1994369 C914.669666,35.1242817 909.362406,20.2894674 1050.13361,10.042455 C1143.98107,3.21111334 1263.93654,-0.134982757 1410,0.00416668657 L1410,129.498086" id="Path-4"></path>
            </g>
            <g id="cats" transform="translate(68.000000, 125.000000)" fill="#73C5C5" fill-opacity="0.199491914" stroke="#A2D9D9" stroke-width="2">
                <polygon id="Path-9" points="0 183.5 0 114.409691 1410 7.38922812e-14 1410 56 1410 184"></polygon>
            </g>
            <g id="cats" transform="translate(68.000000, 138.000000)" fill="#73C5C5" fill-opacity="0.347082605" stroke="#009596" stroke-width="2">
                <path d="M0,170.500485 L0,101.477175 C96.5323548,109.821982 217.39252,103.691369 362.580497,83.0853365 C580.362461,52.1762878 564.624518,9.41725683 706.790248,1.16485453 C801.567402,-4.336747 916.303986,9.64967675 1051,43.1241258 L1051,171 L0,170.500485 Z" id="Path-9"></path>
            </g>
        </g>
    </g>
</svg>