<?xml version="1.0" encoding="UTF-8"?><svg version="1.1" width="1499px" height="336px" viewBox="0 0 1499.0 336.0" xmlns="http://www.w3.org/2000/svg" xmlns:xlink="http://www.w3.org/1999/xlink"><defs><clipPath id="i0"><path d="M1460,0 L1460,1 L0,1 L0,0 L1460,0 Z"></path></clipPath><clipPath id="i1"><path d="M5,0 L5,1 L0,1 L0,0 L5,0 Z"></path></clipPath><clipPath id="i2"><path d="M1,0 L1,300 L0,300 L0,0 L1,0 Z"></path></clipPath><clipPath id="i3"><path d="M1410,0.00416668657 L1410,129.498086 L0,83.3219595 C131.377316,74.9295059 251.976836,68.2373137 361.798561,63.2453829 C526.531148,55.7574867 498.711629,67.2745922 706.690647,51.1994369 C914.669666,35.1242817 909.362406,20.2894674 1050.13361,10.042455 C1143.98107,3.21111334 1263.93654,-0.134982757 1410,0.00416668657 Z"></path></clipPath><clipPath id="i4"><path d="M1410,0 L1410,184 L0,183.5 L0,114.409691 L1410,0 Z"></path></clipPath><clipPath id="i5"><path d="M1051,43.1241258 L1051,171 L0,170.500485 L0,101.477175 C96.5323548,109.821982 217.39252,103.691369 362.580497,83.0853365 C580.362461,52.1762878 564.624518,9.41725683 706.790248,1.16485453 C801.567402,-4.336747 916.303986,9.64967675 1051,43.1241258 Z"></path></clipPath></defs><g transform="translate(39.0 308.0)"><g transform="translate(13.0 7.0)"><text transform="translate(0.0 14.0)" font-family="RedHatText-Regular, Red Hat Text" font-size="14.0" font-weight="normal" fill="#141514" text-anchor="left" line-spacing="21.0">2015</text></g><g transform="translate(245.0 7.0)"><text transform="translate(0.0 14.0)" font-family="RedHatText-Regular, Red Hat Text" font-size="14.0" font-weight="normal" fill="#141514" text-anchor="left" line-spacing="21.0">2016</text></g><g transform="translate(480.0 7.0)"><text transform="translate(0.0 14.0)" font-family="RedHatText-Regular, Red Hat Text" font-size="14.0" font-weight="normal" fill="#141514" text-anchor="left" line-spacing="21.0">2017</text></g><g transform="translate(714.0 7.0)"><text transform="translate(0.0 14.0)" font-family="RedHatText-Regular, Red Hat Text" font-size="14.0" font-weight="normal" fill="#141514" text-anchor="left" line-spacing="21.0">2018</text></g><g transform="translate(949.0 7.0)"><text transform="translate(0.0 14.0)" font-family="RedHatText-Regular, Red Hat Text" font-size="14.0" font-weight="normal" fill="#141514" text-anchor="left" line-spacing="21.0">2019</text></g><g transform="translate(1184.0 7.0)"><text transform="translate(0.0 14.0)" font-family="RedHatText-Regular, Red Hat Text" font-size="14.0" font-weight="normal" fill="#141514" text-anchor="left" line-spacing="21.0">2020</text></g><g transform="translate(1419.0 7.0)"><text transform="translate(0.0 14.0)" font-family="RedHatText-Regular, Red Hat Text" font-size="14.0" font-weight="normal" fill="#141514" text-anchor="left" line-spacing="21.0">2021</text></g><g clip-path="url(#i0)"><polygon points="0,0 1460,0 1460,1 0,1 0,0" stroke="none" fill="#D2D2D2"></polygon></g><g transform="translate(29.0 1.0) rotate(90.0)"><g clip-path="url(#i1)"><polygon points="0,0 5,0 5,1 0,1 0,0" stroke="none" fill="#D2D2D2"></polygon></g></g><g transform="translate(266.0 1.0) rotate(90.0)"><g clip-path="url(#i1)"><polygon points="0,0 5,0 5,1 0,1 0,0" stroke="none" fill="#D2D2D2"></polygon></g></g></g><g transform="translate(15.0 294.2000007629395)"><text transform="translate(0.0 14.0)" font-family="RedHatText-Regular, Red Hat Text" font-size="14.0" font-weight="normal" fill="#141514" text-anchor="left" line-spacing="21.0">0</text></g><g transform="translate(9.0 265.2000007629395)"><text transform="translate(0.0 14.0)" font-family="RedHatText-Regular, Red Hat Text" font-size="14.0" font-weight="normal" fill="#141514" text-anchor="left" line-spacing="21.0">10</text></g><g transform="translate(6.0 235.4000007629394)"><text transform="translate(0.0 14.0)" font-family="RedHatText-Regular, Red Hat Text" font-size="14.0" font-weight="normal" fill="#141514" text-anchor="left" line-spacing="21.0">20</text></g><g transform="translate(6.0 206.0000007629395)"><text transform="translate(0.0 14.0)" font-family="RedHatText-Regular, Red Hat Text" font-size="14.0" font-weight="normal" fill="#141514" text-anchor="left" line-spacing="21.0">30</text></g><g transform="translate(6.0 176.6000007629395)"><text transform="translate(0.0 14.0)" font-family="RedHatText-Regular, Red Hat Text" font-size="14.0" font-weight="normal" fill="#141514" text-anchor="left" line-spacing="21.0">40</text></g><g transform="translate(6.0 147.2000007629395)"><text transform="translate(0.0 14.0)" font-family="RedHatText-Regular, Red Hat Text" font-size="14.0" font-weight="normal" fill="#141514" text-anchor="left" line-spacing="21.0">50</text></g><g transform="translate(6.0 117.80000076293942)"><text transform="translate(0.0 14.0)" font-family="RedHatText-Regular, Red Hat Text" font-size="14.0" font-weight="normal" fill="#141514" text-anchor="left" line-spacing="21.0">60</text></g><g transform="translate(7.0 88.40000076293947)"><text transform="translate(0.0 14.0)" font-family="RedHatText-Regular, Red Hat Text" font-size="14.0" font-weight="normal" fill="#141514" text-anchor="left" line-spacing="21.0">70</text></g><g transform="translate(6.0 59.000000762939464)"><text transform="translate(0.0 14.0)" font-family="RedHatText-Regular, Red Hat Text" font-size="14.0" font-weight="normal" fill="#141514" text-anchor="left" line-spacing="21.0">80</text></g><g transform="translate(6.0 29.60000076293946)"><text transform="translate(0.0 14.0)" font-family="RedHatText-Regular, Red Hat Text" font-size="14.0" font-weight="normal" fill="#141514" text-anchor="left" line-spacing="21.0">90</text></g><g transform="translate(0.0 0.20000076293945312)"><text transform="translate(0.0 14.0)" font-family="RedHatText-Regular, Red Hat Text" font-size="14.0" font-weight="normal" fill="#141514" text-anchor="left" line-spacing="21.0">100</text></g><g transform="translate(34.0 8.0)"><g transform="translate(0.0 264.0)"><g clip-path="url(#i1)"><polygon points="0,0 5,0 5,1 0,1 0,0" stroke="none" fill="#D2D2D2"></polygon></g></g><g transform="translate(0.0 235.0)"><g clip-path="url(#i1)"><polygon points="0,0 5,0 5,1 0,1 0,0" stroke="none" fill="#D2D2D2"></polygon></g></g><g transform="translate(0.0 205.0)"><g clip-path="url(#i1)"><polygon points="0,0 5,0 5,1 0,1 0,0" stroke="none" fill="#D2D2D2"></polygon></g></g><g transform="translate(0.0 176.0)"><g clip-path="url(#i1)"><polygon points="0,0 5,0 5,1 0,1 0,0" stroke="none" fill="#D2D2D2"></polygon></g></g><g transform="translate(0.0 147.0)"><g clip-path="url(#i1)"><polygon points="0,0 5,0 5,1 0,1 0,0" stroke="none" fill="#D2D2D2"></polygon></g></g><g transform="translate(0.0 117.0)"><g clip-path="url(#i1)"><polygon points="0,0 5,0 5,1 0,1 0,0" stroke="none" fill="#D2D2D2"></polygon></g></g><g transform="translate(0.0 88.0)"><g clip-path="url(#i1)"><polygon points="0,0 5,0 5,1 0,1 0,0" stroke="none" fill="#D2D2D2"></polygon></g></g><g transform="translate(0.0 59.0)"><g clip-path="url(#i1)"><polygon points="0,0 5,0 5,1 0,1 0,0" stroke="none" fill="#D2D2D2"></polygon></g></g><g transform="translate(0.0 29.0)"><g clip-path="url(#i1)"><polygon points="0,0 5,0 5,1 0,1 0,0" stroke="none" fill="#D2D2D2"></polygon></g></g><g clip-path="url(#i1)"><polygon points="0,0 5,0 5,1 0,1 0,0" stroke="none" fill="#D2D2D2"></polygon></g></g><g transform="translate(38.0 9.0)"><g clip-path="url(#i2)"><polygon points="0,0 1,0 1,300 0,300 0,0" stroke="none" fill="#D2D2D2"></polygon></g></g><g transform="translate(541.0 309.0) rotate(90.0)"><g clip-path="url(#i1)"><polygon points="0,0 5,0 5,1 0,1 0,0" stroke="none" fill="#D2D2D2"></polygon></g></g><g transform="translate(775.0 309.0) rotate(90.0)"><g clip-path="url(#i1)"><polygon points="0,0 5,0 5,1 0,1 0,0" stroke="none" fill="#D2D2D2"></polygon></g></g><g transform="translate(1009.0 309.0) rotate(90.0)"><g clip-path="url(#i1)"><polygon points="0,0 5,0 5,1 0,1 0,0" stroke="none" fill="#D2D2D2"></polygon></g></g><g transform="translate(1245.0 309.0) rotate(90.0)"><g clip-path="url(#i1)"><polygon points="0,0 5,0 5,1 0,1 0,0" stroke="none" fill="#D2D2D2"></polygon></g></g><g transform="translate(1479.0 309.0) rotate(90.0)"><g clip-path="url(#i1)"><polygon points="-2.27373675e-13,0 5,0 5,1 -2.27373675e-13,1 -2.27373675e-13,0" stroke="none" fill="#D2D2D2"></polygon></g></g><g transform="translate(68.0 179.0)"><g clip-path="url(#i3)"><polygon points="0,1.77635684e-15 1410,1.77635684e-15 1410,130 0,130 0,1.77635684e-15" stroke="none" fill="rgba(0, 94, 96, 0.395733)"></polygon></g><path d="M0,130 L0,83.3219595 C131.377316,74.9295059 251.976836,68.2373137 361.798561,63.2453829 C526.531148,55.7574867 498.711629,67.2745922 706.690647,51.1994369 C914.669666,35.1242817 909.362406,20.2894674 1050.13361,10.042455 C1143.98107,3.21111334 1263.93654,-0.134982757 1410,0.00416668657 L1410,129.498086" stroke="#003C44" stroke-width="2" fill="none" stroke-miterlimit="10"></path></g><g transform="translate(68.0 125.0)"><g clip-path="url(#i4)"><polygon points="0,0 1410,0 1410,184 0,184 0,0" stroke="none" fill="rgba(115, 197, 197, 0.199492)"></polygon></g><polygon points="0,183.5 0,114.409691 1410,0 1410,56 1410,184 0,183.5 0,183.5" stroke="#A2D9D9" stroke-width="2" fill="none" stroke-miterlimit="10"></polygon></g><g transform="translate(68.0 138.0)"><g clip-path="url(#i5)"><polygon points="0,2.22044605e-16 1051,2.22044605e-16 1051,171 0,171 0,2.22044605e-16" stroke="none" fill="rgba(115, 197, 197, 0.347083)"></polygon></g><path d="M0,170.500485 L0,101.477175 C96.5323548,109.821982 217.39252,103.691369 362.580497,83.0853365 C580.362461,52.1762878 564.624518,9.41725683 706.790248,1.16485453 C801.567402,-4.336747 916.303986,9.64967675 1051,43.1241258 L1051,171 L0,170.500485 Z" stroke="#009596" stroke-width="2" fill="none" stroke-miterlimit="10"></path></g></svg>