<?xml version="1.0" encoding="UTF-8"?>
<svg width="1499px" height="336px" viewBox="0 0 1499 336" version="1.1" xmlns="http://www.w3.org/2000/svg" xmlns:xlink="http://www.w3.org/1999/xlink">
    <title></title>
    <g id="Charts" stroke="none" stroke-width="1" fill="none" fill-rule="evenodd">
        <g id="Charts-/-Area-/-Full">
            <g id="dogs" transform="translate(68.000000, 179.000000)" fill="#005F60" fill-opacity="0.395733173" stroke="#003D44" stroke-width="2">
                <path d="M0,130 L0,83.3219595 C131.377316,74.9295059 251.976836,68.2373137 361.798561,63.2453829 C526.531148,55.7574867 498.711629,67.2745922 706.690647,51.1994369 C914.669666,35.1242817 909.362406,20.2894674 1050.13361,10.042455 C1143.98107,3.21111334 1263.93654,-0.134982757 1410,0.00416668657 L1410,129.498086" id="Path-4"></path>
            </g>
            <g id="cats" transform="translate(68.000000, 125.000000)" fill="#73C5C5" fill-opacity="0.199491914" stroke="#A2D9D9" stroke-width="2">
                <polygon id="Path-9" points="0 183.5 0 114.409691 1410 7.38922812e-14 1410 56 1410 184"></polygon>
            </g>
            <g id="cats" transform="translate(68.000000, 138.000000)" fill="#73C5C5" fill-opacity="0.347082605" stroke="#009596" stroke-width="2">
                <path d="M0,170.500485 L0,101.477175 C96.5323548,109.821982 217.39252,103.691369 362.580497,83.0853365 C580.362461,52.1762878 564.624518,9.41725683 706.790248,1.16485453 C801.567402,-4.336747 916.303986,9.64967675 1051,43.1241258 L1051,171 L0,170.500485 Z" id="Path-9"></path>
            </g>
            <g id="X" transform="translate(39.000000, 309.799999)">
                <g id="Tick-1---X" transform="translate(14.000000, 1.000000)">
                    <text id="2015" font-family="RedHatText-Regular, Red Hat Text" font-size="14" font-weight="normal" line-spacing="21" fill="#151515">
                        <tspan x="0" y="20">2015</tspan>
                    </text>
                    <polygon id="tick-mark" fill="#D2D2D2" transform="translate(15.500000, 2.500000) rotate(90.000000) translate(-15.500000, -2.500000) " points="13 2 18 2 18 3 13 3"></polygon>
                </g>
                <g id="Tick-2---X" transform="translate(250.000000, 1.000000)">
                    <text id="2016" font-family="RedHatText-Regular, Red Hat Text" font-size="14" font-weight="normal" line-spacing="21" fill="#151515">
                        <tspan x="0" y="20">2016</tspan>
                    </text>
                    <polygon id="tick-mark" fill="#D2D2D2" transform="translate(15.500000, 2.500000) rotate(90.000000) translate(-15.500000, -2.500000) " points="13 2 18 2 18 3 13 3"></polygon>
                </g>
                <g id="Tick-3---x" transform="translate(487.000000, 1.000000)">
                    <text id="2017" font-family="RedHatText-Regular, Red Hat Text" font-size="14" font-weight="normal" line-spacing="21" fill="#151515">
                        <tspan x="0" y="20">2017</tspan>
                    </text>
                    <rect id="tick-mark" fill="#D2D2D2" transform="translate(14.500000, 2.500000) rotate(90.000000) translate(-14.500000, -2.500000) " x="12" y="2" width="5" height="1"></rect>
                </g>
                <g id="Tick-4--x" transform="translate(721.000000, 1.000000)">
                    <text id="2018" font-family="RedHatText-Regular, Red Hat Text" font-size="14" font-weight="normal" line-spacing="21" fill="#151515">
                        <tspan x="0" y="20">2018</tspan>
                    </text>
                    <rect id="tick-mark" fill="#D2D2D2" transform="translate(15.500000, 2.500000) rotate(90.000000) translate(-15.500000, -2.500000) " x="13" y="2" width="5" height="1"></rect>
                </g>
                <g id="Tick-5---x" transform="translate(955.000000, 1.200001)">
                    <text id="2019" font-family="RedHatText-Regular, Red Hat Text" font-size="14" font-weight="normal" line-spacing="21" fill="#151515">
                        <tspan x="0" y="19.7999992">2019</tspan>
                    </text>
                    <rect id="tick-mark" fill="#D2D2D2" transform="translate(15.500000, 2.500000) rotate(90.000000) translate(-15.500000, -2.500000) " x="13" y="2" width="5" height="1"></rect>
                </g>
                <g id="Tick-6---x" transform="translate(1189.000000, 1.200001)">
                    <text id="2020" font-family="RedHatText-Regular, Red Hat Text" font-size="14" font-weight="normal" line-spacing="21" fill="#151515">
                        <tspan x="0" y="19.7999992">2020</tspan>
                    </text>
                    <rect id="tick-mark" fill="#D2D2D2" transform="translate(17.500000, 2.500000) rotate(90.000000) translate(-17.500000, -2.500000) " x="15" y="2" width="5" height="1"></rect>
                </g>
                <g id="Tick-7---x" transform="translate(1425.000000, 1.000000)">
                    <text id="2021" font-family="RedHatText-Regular, Red Hat Text" font-size="14" font-weight="normal" line-spacing="21" fill="#151515">
                        <tspan x="0" y="20">2021</tspan>
                    </text>
                    <rect id="tick-mark" fill="#D2D2D2" transform="translate(14.500000, 2.500000) rotate(90.000000) translate(-14.500000, -2.500000) " x="12" y="2" width="5" height="1"></rect>
                </g>
                <rect id="Rectangle-5" fill="#D2D2D2" x="0" y="0" width="1460" height="1"></rect>
            </g>
            <g id="y-axis-values">
                <text id="Tick-1---Y" font-family="RedHatText-Regular, Red Hat Text" font-size="14" font-weight="normal" line-spacing="21" fill="#151515">
                    <tspan x="15" y="310">0</tspan>
                </text>
                <g id="Tick-2---Y" transform="translate(9.000000, 267.000000)">
                    <text id="10" font-family="RedHatText-Regular, Red Hat Text" font-size="14" font-weight="normal" line-spacing="21" fill="#151515">
                        <tspan x="0" y="14">10</tspan>
                    </text>
                    <rect id="tick-mark" fill="#D2D2D2" x="25" y="10" width="5" height="1"></rect>
                </g>
                <g id="Tick-3---Y" transform="translate(6.000000, 237.200000)">
                    <text id="20" font-family="RedHatText-Regular, Red Hat Text" font-size="14" font-weight="normal" line-spacing="21" fill="#151515">
                        <tspan x="0" y="14">20</tspan>
                    </text>
                    <polygon id="tick-mark" fill="#D2D2D2" points="28 10 33 10 33 11 28 11"></polygon>
                </g>
                <g id="Tick-4---Y" transform="translate(6.000000, 208.000000)">
                    <text id="30" font-family="RedHatText-Regular, Red Hat Text" font-size="14" font-weight="normal" line-spacing="21" fill="#151515">
                        <tspan x="0" y="14">30</tspan>
                    </text>
                    <polygon id="tick-mark" fill="#D2D2D2" points="28 10 33 10 33 11 28 11"></polygon>
                </g>
                <g id="Tick-5---Y" transform="translate(6.000000, 178.400000)">
                    <text id="40" font-family="RedHatText-Regular, Red Hat Text" font-size="14" font-weight="normal" line-spacing="21" fill="#151515">
                        <tspan x="0" y="14">40</tspan>
                    </text>
                    <polygon id="tick-mark" fill="#D2D2D2" points="28 7.39999924 33 7.39999924 33 8.39999924 28 8.39999924"></polygon>
                </g>
                <g id="Tick-6---Y" transform="translate(6.000000, 149.000000)">
                    <text id="50" font-family="RedHatText-Regular, Red Hat Text" font-size="14" font-weight="normal" line-spacing="21" fill="#151515">
                        <tspan x="0" y="14">50</tspan>
                    </text>
                    <polygon id="tick-mark" fill="#D2D2D2" points="28 7.79999924 33 7.79999924 33 8.79999924 28 8.79999924"></polygon>
                </g>
                <g id="Tick-7---Y" transform="translate(6.000000, 120.000000)">
                    <text id="60" font-family="RedHatText-Regular, Red Hat Text" font-size="14" font-weight="normal" line-spacing="21" fill="#151515">
                        <tspan x="0" y="14">60</tspan>
                    </text>
                    <polygon id="tick-mark" fill="#D2D2D2" points="28 10 33 10 33 11 28 11"></polygon>
                </g>
                <g id="Tick-8---Y" transform="translate(7.000000, 90.000000)">
                    <text id="70" font-family="RedHatText-Regular, Red Hat Text" font-size="14" font-weight="normal" line-spacing="21" fill="#151515">
                        <tspan x="0" y="14">70</tspan>
                    </text>
                    <polygon id="tick-mark" fill="#D2D2D2" points="27 10 32 10 32 11 27 11"></polygon>
                </g>
                <g id="Tick-9---Y" transform="translate(6.000000, 61.000000)">
                    <text id="80" font-family="RedHatText-Regular, Red Hat Text" font-size="14" font-weight="normal" line-spacing="21" fill="#151515">
                        <tspan x="0" y="14">80</tspan>
                    </text>
                    <polygon id="tick-mark" fill="#D2D2D2" points="28 10 33 10 33 11 28 11"></polygon>
                </g>
                <g id="Tick-10---Y" transform="translate(6.000000, 31.000000)">
                    <text id="90" font-family="RedHatText-Regular, Red Hat Text" font-size="14" font-weight="normal" line-spacing="21" fill="#151515">
                        <tspan x="0" y="14">90</tspan>
                    </text>
                    <polygon id="tick-mark" fill="#D2D2D2" points="28 10 33 10 33 11 28 11"></polygon>
                </g>
                <g id="Tick-11---Y">
                    <text id="100" font-family="RedHatText-Regular, Red Hat Text" font-size="14" font-weight="normal" line-spacing="21" fill="#151515">
                        <tspan x="0" y="14">100</tspan>
                    </text>
                    <polygon id="tick-mark" fill="#D2D2D2" points="34 10 39 10 39 11 34 11"></polygon>
                </g>
            </g>
            <rect id="y-axis-stroke" fill="#D2D2D2" x="38" y="10.7999992" width="1" height="300"></rect>
        </g>
    </g>
</svg>