<?xml version="1.0" encoding="UTF-8"?>
<svg width="400px" height="400px" viewBox="0 0 400 400" version="1.1" xmlns="http://www.w3.org/2000/svg" xmlns:xlink="http://www.w3.org/1999/xlink">
    <title></title>
    <defs>
        <linearGradient x1="49.9787368%" y1="3.15251895%" x2="49.9787368%" y2="100.372269%" id="linearGradient-1">
            <stop stop-color="#54EEFF" offset="0%"></stop>
            <stop stop-color="#1C75BC" offset="100%"></stop>
        </linearGradient>
    </defs>
    <g id="⭐️-About-this-document-⭐️" stroke="none" stroke-width="1" fill="none" fill-rule="evenodd">
        <g id="Library-Preview">
            <rect fill="#FFFFFF" x="0" y="0" width="400" height="400"></rect>
            <g id="pf4-logo.9537d7e7fbe83c92625af8ac0ab5350b" transform="translate(0.000000, 10.000000)" fill="url(#linearGradient-1)" fill-rule="nonzero">
                <path d="M200.421052,0.844850648 L200.421052,0.506910387 L200.421052,0.844850648 L200.252632,0.675880519 L200.252632,0.168970129 L199.915789,0.337940258 L199.578948,0 L199.578948,0.506910387 L199.578948,0.506910387 L199.410526,0.337940258 L199.410526,0.675880519 L0,196.34329 L78.9894736,308.539456 L139.957895,294.514935 L199.915789,379 L259.873684,294.514935 L320.842106,308.539456 L369.85263,238.923763 L400,196.17432 L200.421052,0.844850648 Z M193.852632,23.8247882 L166.568421,279.983504 L113.347368,207.157378 L193.852632,23.8247882 Z M110.821052,203.440036 L77.305263,157.649131 L193.684211,14.8693714 L110.821052,203.440036 Z M165.389474,284.883638 L141.642105,290.290682 L101.557895,233.854659 L111.494737,211.212662 L165.389474,284.883638 Z M199.242105,11.3209987 L199.915789,9.96923762 L200.589474,11.3209987 L228.715789,286.742309 L228.547368,286.742309 L200.926316,327.63308 L171.115789,286.573339 L171.115789,286.573339 L199.242105,11.3209987 Z M233.263158,279.983504 L205.978948,23.8247882 L286.484211,207.157378 L233.263158,279.983504 Z M288.168421,211.043692 L298.105263,233.685689 L258.021052,290.121712 L234.273684,284.714668 L288.168421,211.043692 Z M206.315789,14.8693714 L322.694736,157.649131 L289.178948,203.440036 L206.315789,14.8693714 Z M80.6736842,304.315203 L5.05263158,196.850201 L181.052632,24.3316986 L72.4210525,157.480161 L108.968421,207.495319 L97.1789475,234.192599 L137.6,291.135533 L80.6736842,304.315203 Z M199.915789,372.579136 L144,293.839055 L167.915789,288.263041 L168.252632,288.769951 L167.915789,288.938921 L200.926316,334.391886 L231.578948,288.938921 L231.242105,288.769951 L231.578948,288.263041 L255.494737,293.839055 L199.915789,372.579136 Z M366.65263,236.896121 L319.157895,304.315203 L262.231579,291.135533 L302.652632,234.192599 L290.863158,207.495319 L327.410525,157.480161 L218.778948,24.1627285 L394.778948,196.681231 L366.65263,236.896121 Z" id="Shape"></path>
            </g>
        </g>
    </g>
</svg>