<?xml version="1.0" encoding="UTF-8"?><svg version="1.1" width="400px" height="400px" viewBox="0 0 400.0 400.0" xmlns="http://www.w3.org/2000/svg" xmlns:xlink="http://www.w3.org/1999/xlink"><defs><clipPath id="i0"><path d="M400,0 L400,400 L0,400 L0,0 L400,0 Z"></path></clipPath><clipPath id="i1"><path d="M199.578948,0 L199.915789,0.337940258 L200.252632,0.168970129 L200.252632,0.675880519 L200.421052,0.844850648 L400,196.17432 L369.85263,238.923763 L320.842106,308.539456 L259.873684,294.514935 L199.915789,379 L139.957895,294.514935 L78.9894736,308.539456 L0,196.34329 L199.410526,0.675880519 L199.410526,0.337940258 L199.578948,0.506910387 L199.578948,0 Z M231.578948,288.263041 L231.242105,288.769951 L231.578948,288.938921 L200.926316,334.391886 L167.915789,288.938921 L168.252632,288.769951 L167.915789,288.263041 L144,293.839055 L199.915789,372.579136 L255.494737,293.839055 L231.578948,288.263041 Z M199.915789,9.96923762 L199.242105,11.3209987 L171.115789,286.573339 L200.926316,327.63308 L228.547368,286.742309 L228.715789,286.742309 L200.589474,11.3209987 L199.915789,9.96923762 Z M181.052632,24.3316986 L5.05263158,196.850201 L80.6736842,304.315203 L137.6,291.135533 L97.1789475,234.192599 L108.968421,207.495319 L72.4210525,157.480161 L181.052632,24.3316986 Z M218.778948,24.1627285 L327.410525,157.480161 L290.863158,207.495319 L302.652632,234.192599 L262.231579,291.135533 L319.157895,304.315203 L366.65263,236.896121 L394.778948,196.681231 L218.778948,24.1627285 Z M111.494737,211.212662 L101.557895,233.854659 L141.642105,290.290682 L165.389474,284.883638 L111.494737,211.212662 Z M288.168421,211.043692 L234.273684,284.714668 L258.021052,290.121712 L298.105263,233.685689 L288.168421,211.043692 Z M193.852632,23.8247882 L113.347368,207.157378 L166.568421,279.983504 L193.852632,23.8247882 Z M205.978948,23.8247882 L233.263158,279.983504 L286.484211,207.157378 L205.978948,23.8247882 Z M193.684211,14.8693714 L77.305263,157.649131 L110.821052,203.440036 L193.684211,14.8693714 Z M206.315789,14.8693714 L289.178948,203.440036 L322.694736,157.649131 L206.315789,14.8693714 Z"></path></clipPath><linearGradient id="i2" x1="199.914947px" y1="11.9480468px" x2="199.914947px" y2="380.4109px" gradientUnits="userSpaceOnUse"><stop stop-color="#53EEFF" offset="0%"></stop><stop stop-color="#1B75BC" offset="100%"></stop></linearGradient></defs><rect x="0px" y="0px" width="400px" height="400px" fill="#FFFFFF"></rect><g clip-path="url(#i0)"><g transform="translate(0.0 10.0)"><g clip-path="url(#i1)"><polygon points="0,0 400,0 400,379 0,379 0,0" stroke="none" fill="url(#i2)"></polygon></g></g></g></svg>