<?xml version="1.0" encoding="UTF-8"?><svg version="1.1" width="1024px" height="1446px" viewBox="0 0 1024.0 1446.0" xmlns="http://www.w3.org/2000/svg" xmlns:xlink="http://www.w3.org/1999/xlink"><defs><clipPath id="i0"><path d="M1024,0 L1024,1446 L0,1446 L0,0 L1024,0 Z"></path></clipPath><clipPath id="i1"><path d="M214,0 L214,50 L0,50 L0,0 L214,0 Z"></path></clipPath><clipPath id="i2"><path d="M244,0 L244,50 L0,50 L0,0 L244,0 Z"></path></clipPath><clipPath id="i3"><path d="M160,0 L160,244 L0,244 L0,0 L160,0 Z"></path></clipPath><clipPath id="i4"><path d="M60,0 L60,60 L0,60 L0,0 L60,0 Z"></path></clipPath><filter id="i5" x="-25%" y="-25%" filterUnits="userSpaceOnUse" width="133.333333%" height="133.333333%"><feGaussianBlur stdDeviation="3" in="SourceAlpha" result="i6"></feGaussianBlur><feOffset dx="0" dy="0" in="i6" result="i7"></feOffset><feColorMatrix values="0 0 0 0.0 0 0 0 0 0.0 0 0 0 0 0.0 0 0 0 0 0.08 0" type="matrix" in="i7"></feColorMatrix></filter><filter id="i8" x="-60.8695652%" y="-52.173913%" filterUnits="userSpaceOnUse" width="186.956522%" height="186.956522%"><feGaussianBlur stdDeviation="8" in="SourceAlpha" result="i9"></feGaussianBlur><feOffset dx="0" dy="8" in="i9" result="i10"></feOffset><feColorMatrix values="0 0 0 0.0 0 0 0 0 0.0 0 0 0 0 0.0 0 0 0 0 0.18 0" type="matrix" in="i10"></feColorMatrix></filter><filter id="i11" x="-25%" y="-25%" filterUnits="userSpaceOnUse" width="133.333333%" height="133.333333%"><feGaussianBlur stdDeviation="3" in="SourceAlpha" result="i12"></feGaussianBlur><feOffset dx="0" dy="0" in="i12" result="i13"></feOffset><feColorMatrix values="0 0 0 0.0 0 0 0 0 0.0 0 0 0 0 0.0 0 0 0 0 0.08 0" type="matrix" in="i13"></feColorMatrix></filter><filter id="i14" x="-60.8695652%" y="-52.173913%" filterUnits="userSpaceOnUse" width="186.956522%" height="186.956522%"><feGaussianBlur stdDeviation="8" in="SourceAlpha" result="i15"></feGaussianBlur><feOffset dx="0" dy="8" in="i15" result="i16"></feOffset><feColorMatrix values="0 0 0 0.0 0 0 0 0 0.0 0 0 0 0 0.0 0 0 0 0 0.18 0" type="matrix" in="i16"></feColorMatrix></filter></defs><rect x="0px" y="0px" width="1024px" height="1446px" fill="#FFFFFF"></rect><g clip-path="url(#i0)"><g transform="translate(54.0 555.0)"><g transform="translate(233.0 57.0)"><text transform="translate(-1.072 13.951904296875)" font-family="RedHatDisplay-Regular, Red Hat Display" font-size="16.0" font-weight="normal" fill="#282C33" text-anchor="left" line-spacing="24.0">Disabled</text></g><g transform="translate(4.0 57.0)"><text transform="translate(-1.072 13.951904296875)" font-family="RedHatDisplay-Regular, Red Hat Display" font-size="16.0" font-weight="normal" fill="#282C33" text-anchor="left" line-spacing="24.0">Active</text></g><g transform="translate(462.0 99.0)"><g clip-path="url(#i1)"><polygon points="0,0 214,0 214,50 0,50 0,0" stroke="none" fill="rgba(0, 102, 204, 0.2)"></polygon></g><g clip-path="url(#i1)"><polygon points="0,0 214,0 214,50 0,50 0,0 0,0" stroke="#0066CC" stroke-width="2" fill="none" stroke-miterlimit="5"></polygon></g><g transform="translate(17.0 15.0)"><text transform="translate(0.0 14.0)" font-family="RedHatText-Regular, Red Hat Text" font-size="14.0" font-weight="normal" fill="#141514" text-anchor="left" line-spacing="21.0">Focus</text></g><g transform="translate(95.0 15.0)"><text transform="translate(0.0 14.0)" font-family="RedHatText-Regular, Red Hat Text" font-size="14.0" font-weight="normal" fill="#141514" text-anchor="left" line-spacing="21.0">#0066cc (20%)</text></g></g><g transform="translate(233.0 99.0)"><g clip-path="url(#i1)"><polygon points="0,0 214,0 214,50 0,50 0,0" stroke="none" fill="#696E73"></polygon></g><g transform="translate(17.0 15.0)"><text transform="translate(0.0 14.0)" font-family="RedHatText-Regular, Red Hat Text" font-size="14.0" font-weight="normal" fill="#FEFFFE" text-anchor="left" line-spacing="21.0">100</text></g><g transform="translate(135.0 15.0)"><text transform="translate(0.0 14.0)" font-family="RedHatText-Regular, Red Hat Text" font-size="14.0" font-weight="normal" fill="#FEFFFE" text-anchor="left" line-spacing="21.0">#6A6E73</text></g><g transform="translate(0.0 50.0)"><g clip-path="url(#i1)"><polygon points="0,0 214,0 214,50 0,50 0,0" stroke="none" fill="#D2D2D2"></polygon></g><g transform="translate(17.0 15.0)"><text transform="translate(0.0 14.0)" font-family="RedHatText-Regular, Red Hat Text" font-size="14.0" font-weight="normal" fill="#141514" text-anchor="left" line-spacing="21.0">200</text></g><g transform="translate(135.0 15.0)"><text transform="translate(0.0 14.0)" font-family="RedHatText-Regular, Red Hat Text" font-size="14.0" font-weight="normal" fill="#141514" text-anchor="left" line-spacing="21.0">#D2D2D2</text></g></g><g transform="translate(0.0 100.0)"><g clip-path="url(#i1)"><polygon points="0,0 214,0 214,50 0,50 0,0" stroke="none" fill="#F0F0F0"></polygon></g><g transform="translate(17.0 15.0)"><text transform="translate(0.0 14.0)" font-family="RedHatText-Regular, Red Hat Text" font-size="14.0" font-weight="normal" fill="#141514" text-anchor="left" line-spacing="21.0">300</text></g><g transform="translate(135.0 15.0)"><text transform="translate(0.0 14.0)" font-family="RedHatText-Regular, Red Hat Text" font-size="14.0" font-weight="normal" fill="#141514" text-anchor="left" line-spacing="21.0">#F0F0F0</text></g></g></g><g transform="translate(0.0 97.0)"><g clip-path="url(#i1)"><polygon points="0,0 214,0 214,50 0,50 0,0" stroke="none" fill="#0066CC"></polygon></g><g transform="translate(17.0 15.0)"><text transform="translate(0.0 14.0)" font-family="RedHatText-Regular, Red Hat Text" font-size="14.0" font-weight="normal" fill="#FEFFFE" text-anchor="left" line-spacing="21.0">100</text></g><g transform="translate(135.0 15.0)"><text transform="translate(0.0 14.0)" font-family="RedHatText-Regular, Red Hat Text" font-size="14.0" font-weight="normal" fill="#FEFFFE" text-anchor="left" line-spacing="21.0">#0066CC</text></g><g transform="translate(0.0 50.0)"><g clip-path="url(#i1)"><polygon points="0,0 214,0 214,50 0,50 0,0" stroke="none" fill="#BEE1F3"></polygon></g><g transform="translate(17.0 15.0)"><text transform="translate(0.0 14.0)" font-family="RedHatText-Regular, Red Hat Text" font-size="14.0" font-weight="normal" fill="#141514" text-anchor="left" line-spacing="21.0">200</text></g><g transform="translate(135.0 15.0)"><text transform="translate(0.0 14.0)" font-family="RedHatText-Regular, Red Hat Text" font-size="14.0" font-weight="normal" fill="#141514" text-anchor="left" line-spacing="21.0">#BEE1F4</text></g></g><g transform="translate(0.0 100.0)"><g clip-path="url(#i1)"><polygon points="0,0 214,0 214,50 0,50 0,0" stroke="none" fill="#73BCF7"></polygon></g><g transform="translate(17.0 15.0)"><text transform="translate(0.0 14.0)" font-family="RedHatText-Regular, Red Hat Text" font-size="14.0" font-weight="normal" fill="#141514" text-anchor="left" line-spacing="21.0">300</text></g><g transform="translate(135.0 15.0)"><text transform="translate(0.0 14.0)" font-family="RedHatText-Regular, Red Hat Text" font-size="14.0" font-weight="normal" fill="#141514" text-anchor="left" line-spacing="21.0">#73BCF7</text></g></g><g transform="translate(0.0 150.0)"><g clip-path="url(#i1)"><polygon points="0,0 214,0 214,50 0,50 0,0" stroke="none" fill="#2B9AF3"></polygon></g><g transform="translate(17.0 15.0)"><text transform="translate(0.0 14.0)" font-family="RedHatText-Regular, Red Hat Text" font-size="14.0" font-weight="normal" fill="#141514" text-anchor="left" line-spacing="21.0">400</text></g><g transform="translate(135.0 15.0)"><text transform="translate(0.0 14.0)" font-family="RedHatText-Regular, Red Hat Text" font-size="14.0" font-weight="normal" fill="#141514" text-anchor="left" line-spacing="21.0">#2B9AF3</text></g></g></g><g transform="translate(2.0 0.0)"><text transform="translate(-2.412 26.691783905029297)" font-family="RedHatDisplay-Regular, Red Hat Display" font-size="36.0" font-weight="normal" fill="#282C33" text-anchor="left" line-spacing="46.79999923706055">State</text></g></g><g transform="translate(54.0 912.0)"><g transform="translate(1.0 0.0)"><text transform="translate(-2.412 26.691783905029297)" font-family="RedHatDisplay-Regular, Red Hat Display" font-size="36.0" font-weight="normal" fill="#282C33" text-anchor="left" line-spacing="46.79999923706055">Status</text></g><g transform="translate(0.0 87.0)"><text transform="translate(-1.072 13.951904296875)" font-family="RedHatDisplay-Regular, Red Hat Display" font-size="16.0" font-weight="normal" fill="#282C33" text-anchor="left" line-spacing="24.0">Success</text></g><g transform="translate(0.0 129.0)"><g clip-path="url(#i2)"><polygon points="0,0 244,0 244,50 0,50 0,0" stroke="none" fill="#3E8634"></polygon></g><g transform="translate(17.0 15.0)"><text transform="translate(0.0 14.0)" font-family="RedHatText-Regular, Red Hat Text" font-size="14.0" font-weight="normal" fill="#FEFFFE" text-anchor="left" line-spacing="21.0">Success color-100</text></g><g transform="translate(153.92523364485976 15.0)"><text transform="translate(0.0 14.0)" font-family="RedHatText-Regular, Red Hat Text" font-size="14.0" font-weight="normal" fill="#FEFFFE" text-anchor="left" line-spacing="21.0">#3E8635</text></g><g transform="translate(0.0 50.0)"><g clip-path="url(#i2)"><polygon points="0,0 244,0 244,50 0,50 0,0" stroke="none" fill="#1E4F18"></polygon></g><g transform="translate(17.0 15.0)"><text transform="translate(0.0 14.0)" font-family="RedHatText-Regular, Red Hat Text" font-size="14.0" font-weight="normal" fill="#FEFFFE" text-anchor="left" line-spacing="21.0">Success color-200</text></g><g transform="translate(153.92523364485976 15.0)"><text transform="translate(0.0 14.0)" font-family="RedHatText-Regular, Red Hat Text" font-size="14.0" font-weight="normal" fill="#FEFFFE" text-anchor="left" line-spacing="21.0">#1E4F18</text></g></g></g><g transform="translate(268.0 87.0)"><text transform="translate(-1.072 13.951904296875)" font-family="RedHatDisplay-Regular, Red Hat Display" font-size="16.0" font-weight="normal" fill="#282C33" text-anchor="left" line-spacing="24.0">Info</text></g><g transform="translate(268.0 269.0)"><text transform="translate(-1.072 13.951904296875)" font-family="RedHatDisplay-Regular, Red Hat Display" font-size="16.0" font-weight="normal" fill="#282C33" text-anchor="left" line-spacing="24.0">Warning</text></g><g transform="translate(268.0 129.0)"><g clip-path="url(#i2)"><polygon points="0,0 244,0 244,50 0,50 0,0" stroke="none" fill="#2B9AF3"></polygon></g><g transform="translate(17.0 15.0)"><text transform="translate(0.0 14.0)" font-family="RedHatText-Regular, Red Hat Text" font-size="14.0" font-weight="normal" fill="#FEFFFE" text-anchor="left" line-spacing="21.0">Info color-100</text></g><g transform="translate(153.92523364485976 15.0)"><text transform="translate(0.0 14.0)" font-family="RedHatText-Regular, Red Hat Text" font-size="14.0" font-weight="normal" fill="#FEFFFE" text-anchor="left" line-spacing="21.0">#2B9AF3</text></g><g transform="translate(0.0 50.0)"><g clip-path="url(#i2)"><polygon points="0,0 244,0 244,50 0,50 0,0" stroke="none" fill="#003F80"></polygon></g><g transform="translate(17.0 15.0)"><text transform="translate(0.0 14.0)" font-family="RedHatText-Regular, Red Hat Text" font-size="14.0" font-weight="normal" fill="#FEFFFE" text-anchor="left" line-spacing="21.0">Info color-200</text></g><g transform="translate(153.92523364485976 15.0)"><text transform="translate(0.0 14.0)" font-family="RedHatText-Regular, Red Hat Text" font-size="14.0" font-weight="normal" fill="#FEFFFE" text-anchor="left" line-spacing="21.0">#004080</text></g></g></g><g transform="translate(268.0 311.0)"><g clip-path="url(#i2)"><polygon points="0,0 244,0 244,50 0,50 0,0" stroke="none" fill="#F0AB00"></polygon></g><g transform="translate(17.0 15.0)"><text transform="translate(0.0 14.0)" font-family="RedHatText-Regular, Red Hat Text" font-size="14.0" font-weight="normal" fill="#FEFFFE" text-anchor="left" line-spacing="21.0">Warning color-100</text></g><g transform="translate(153.92523364485976 15.0)"><text transform="translate(0.0 14.0)" font-family="RedHatText-Regular, Red Hat Text" font-size="14.0" font-weight="normal" fill="#FEFFFE" text-anchor="left" line-spacing="21.0">#F0AB00</text></g><g transform="translate(0.0 50.0)"><g clip-path="url(#i2)"><polygon points="0,0 244,0 244,50 0,50 0,0" stroke="none" fill="#795500"></polygon></g><g transform="translate(17.0 15.0)"><text transform="translate(0.0 14.0)" font-family="RedHatText-Regular, Red Hat Text" font-size="14.0" font-weight="normal" fill="#FEFFFE" text-anchor="left" line-spacing="21.0">Warning color-200</text></g><g transform="translate(153.92523364485976 15.0)"><text transform="translate(0.0 14.0)" font-family="RedHatText-Regular, Red Hat Text" font-size="14.0" font-weight="normal" fill="#FEFFFE" text-anchor="left" line-spacing="21.0">#795600</text></g></g></g><g transform="translate(1.0 269.0)"><text transform="translate(-1.072 13.951904296875)" font-family="RedHatDisplay-Regular, Red Hat Display" font-size="16.0" font-weight="normal" fill="#282C33" text-anchor="left" line-spacing="24.0">Warning</text></g><g transform="translate(1.0 311.0)"><g clip-path="url(#i2)"><polygon points="0,0 244,0 244,50 0,50 0,0" stroke="none" fill="#73C5C5"></polygon></g><g transform="translate(17.0 15.0)"><text transform="translate(0.0 14.0)" font-family="RedHatText-Regular, Red Hat Text" font-size="14.0" font-weight="normal" fill="#FEFFFE" text-anchor="left" line-spacing="21.0">Default color-100</text></g><g transform="translate(153.92523364485976 15.0)"><text transform="translate(0.0 14.0)" font-family="RedHatText-Regular, Red Hat Text" font-size="14.0" font-weight="normal" fill="#FEFFFE" text-anchor="left" line-spacing="21.0">#73C5C5</text></g><g transform="translate(0.0 50.0)"><g clip-path="url(#i2)"><polygon points="0,0 244,0 244,50 0,50 0,0" stroke="none" fill="#003636"></polygon></g><g transform="translate(17.0 15.0)"><text transform="translate(0.0 14.0)" font-family="RedHatText-Regular, Red Hat Text" font-size="14.0" font-weight="normal" fill="#FEFFFE" text-anchor="left" line-spacing="21.0">Default color-200</text></g><g transform="translate(153.92523364485976 15.0)"><text transform="translate(0.0 14.0)" font-family="RedHatText-Regular, Red Hat Text" font-size="14.0" font-weight="normal" fill="#FEFFFE" text-anchor="left" line-spacing="21.0">#003737</text></g></g></g><g transform="translate(535.0 86.0)"><text transform="translate(-1.072 13.951904296875)" font-family="RedHatDisplay-Regular, Red Hat Display" font-size="16.0" font-weight="normal" fill="#282C33" text-anchor="left" line-spacing="24.0">Danger</text></g><g transform="translate(535.0 128.0)"><g clip-path="url(#i2)"><polygon points="0,0 244,0 244,50 0,50 0,0" stroke="none" fill="#C9190A"></polygon></g><g transform="translate(17.0 15.0)"><text transform="translate(0.0 14.0)" font-family="RedHatText-Regular, Red Hat Text" font-size="14.0" font-weight="normal" fill="#FEFFFE" text-anchor="left" line-spacing="21.0">Danger color-100</text></g><g transform="translate(153.92523364485976 15.0)"><text transform="translate(0.0 14.0)" font-family="RedHatText-Regular, Red Hat Text" font-size="14.0" font-weight="normal" fill="#FEFFFE" text-anchor="left" line-spacing="21.0">#C9190B</text></g><g transform="translate(0.0 50.0)"><g clip-path="url(#i2)"><polygon points="0,0 244,0 244,50 0,50 0,0" stroke="none" fill="#7C0F06"></polygon></g><g transform="translate(17.0 15.0)"><text transform="translate(0.0 14.0)" font-family="RedHatText-Regular, Red Hat Text" font-size="14.0" font-weight="normal" fill="#FEFFFE" text-anchor="left" line-spacing="21.0">Danger color-200</text></g><g transform="translate(153.92523364485976 15.0)"><text transform="translate(0.0 14.0)" font-family="RedHatText-Regular, Red Hat Text" font-size="14.0" font-weight="normal" fill="#FEFFFE" text-anchor="left" line-spacing="21.0">#7D1007</text></g></g><g transform="translate(0.0 100.0)"><g clip-path="url(#i2)"><polygon points="0,0 244,0 244,50 0,50 0,0" stroke="none" fill="#470000"></polygon></g><g transform="translate(17.0 15.0)"><text transform="translate(0.0 14.0)" font-family="RedHatText-Regular, Red Hat Text" font-size="14.0" font-weight="normal" fill="#FEFFFE" text-anchor="left" line-spacing="21.0">Danger color-200</text></g><g transform="translate(153.92523364485976 15.0)"><text transform="translate(0.0 14.0)" font-family="RedHatText-Regular, Red Hat Text" font-size="14.0" font-weight="normal" fill="#FEFFFE" text-anchor="left" line-spacing="21.0">#470000</text></g></g></g></g><g transform="translate(677.9999999999995 167.0)"><g clip-path="url(#i3)"><polygon points="0,0 160,0 160,244 0,244 0,0" stroke="none" fill="#282C33"></polygon><polygon points="0,0 160,0 160,244 0,244 0,0 0,0" stroke="#FF00FF" stroke-width="2" fill="none" stroke-miterlimit="5"></polygon></g></g><g transform="translate(239.0 343.0)"><g clip-path="url(#i4)"><polygon points="0,0 60,0 60,60 0,60 0,0" stroke="none" fill="#FFFFFF"></polygon><g transform="translate(-1.0 0.0)"><polygon points="61,0 61,60 60,60 60,0 61,0 61,0" stroke="none" fill="#F0F0F0"></polygon></g><g transform="translate(0.0 1.0)"><polygon points="60,0 0,0 0,-1 60,-1 60,0 60,0" stroke="none" fill="#F0F0F0"></polygon></g><g transform="translate(1.0 0.0)"><polygon points="0,0 0,60 -1,60 -1,0 0,0 0,0" stroke="none" fill="#F0F0F0"></polygon></g><g transform="translate(0.0 -1.0)"><polygon points="60,60 60,61 0,61 0,60 60,60 60,60" stroke="none" fill="#8A8D90"></polygon></g></g></g><g transform="translate(323.0 343.0)"><g clip-path="url(#i4)"><polygon points="0,0 60,0 60,60 0,60 0,0" stroke="none" fill="#FFFFFF"></polygon><g transform="translate(-1.0 0.0)"><polygon points="61,0 61,60 60,60 60,0 61,0 61,0" stroke="none" fill="#F0F0F0"></polygon></g><g transform="translate(0.0 1.0)"><polygon points="60,0 0,0 0,-1 60,-1 60,0 60,0" stroke="none" fill="#F0F0F0"></polygon></g><g transform="translate(1.0 0.0)"><polygon points="0,0 0,60 -1,60 -1,0 0,0 0,0" stroke="none" fill="#F0F0F0"></polygon></g><g transform="translate(0.0 -2.0)"><polygon points="60,60 60,62 0,62 0,60 60,60 60,60" stroke="none" fill="#696E73"></polygon></g></g></g><g transform="translate(773.0 174.0)"><g clip-path="url(#i4)"><polygon points="0,0 60,0 60,60 0,60 0,0" stroke="none" fill="#151515"></polygon><g transform="translate(-1.0 0.0)"><polygon points="61,0 61,60 60,60 60,0 61,0 61,0" stroke="none" fill="#3B3F41"></polygon></g><g transform="translate(0.0 1.0)"><polygon points="60,0 0,0 0,-1 60,-1 60,0 60,0" stroke="none" fill="#3B3F41"></polygon></g><g transform="translate(1.0 0.0)"><polygon points="0,0 0,60 -1,60 -1,0 0,0 0,0" stroke="none" fill="#3B3F41"></polygon></g><g transform="translate(0.0 -1.0)"><polygon points="60,60 60,61 0,61 0,60 60,60 60,60" stroke="none" fill="#8A8D90"></polygon></g></g></g><g transform="translate(239.0 259.0)"><g clip-path="url(#i4)"><polygon points="0,0 60,0 60,60 0,60 0,0" stroke="none" fill="#FFFFFF"></polygon><g transform="translate(1.0 0.0)"><polygon points="0,0 0,60 -1,60 -1,0 0,0 0,0" stroke="none" fill="#EDEDED"></polygon></g><g transform="translate(-1.0 0.0)"><polygon points="61,0 61,60 60,60 60,0 61,0 61,0" stroke="none" fill="#EDEDED"></polygon></g><g transform="translate(0.0 1.0)"><polygon points="60,0 0,0 0,-1 60,-1 60,0 60,0" stroke="none" fill="#EDEDED"></polygon></g><g transform="translate(0.0 -1.0)"><polygon points="60,60 60,61 0,61 0,60 60,60 60,60" stroke="none" fill="#0066CC"></polygon></g></g></g><g transform="translate(323.0 259.0)"><g clip-path="url(#i4)"><polygon points="0,0 60,0 60,60 0,60 0,0" stroke="none" fill="#FFFFFF"></polygon><g transform="translate(1.0 0.0)"><polygon points="0,0 0,60 -1,60 -1,0 0,0 0,0" stroke="none" fill="#EDEDED"></polygon></g><g transform="translate(-1.0 0.0)"><polygon points="61,0 61,60 60,60 60,0 61,0 61,0" stroke="none" fill="#EDEDED"></polygon></g><g transform="translate(0.0 1.0)"><polygon points="60,0 0,0 0,-1 60,-1 60,0 60,0" stroke="none" fill="#EDEDED"></polygon></g><g transform="translate(0.0 -2.0)"><polygon points="60,60 60,62 0,62 0,60 60,60 60,60" stroke="none" fill="#0066CC"></polygon></g></g></g><g transform="translate(239.0 175.0)"><g clip-path="url(#i4)"><polygon points="0,0 60,0 60,60 0,60 0,0" stroke="none" fill="#FFFFFF"></polygon><g transform="translate(1.0 0.0)"><polygon points="0,0 0,60 -1,60 -1,0 0,0 0,0" stroke="none" fill="#EDEDED"></polygon></g><g transform="translate(-1.0 0.0)"><polygon points="61,0 61,60 60,60 60,0 61,0 61,0" stroke="none" fill="#EDEDED"></polygon></g><g transform="translate(0.0 1.0)"><polygon points="60,0 0,0 0,-1 60,-1 60,0 60,0" stroke="none" fill="#EDEDED"></polygon></g><g transform="translate(0.0 -2.0)"><polygon points="60,60 60,62 0,62 0,60 60,60 60,60" stroke="none" fill="#C9190A"></polygon></g></g></g><g transform="translate(400.0 174.0)"><g clip-path="url(#i4)"><polygon points="0,0 60,0 60,60 0,60 0,0" stroke="none" fill="#FFFFFF"></polygon><g transform="translate(1.0 0.0)"><polygon points="0,0 0,60 -1,60 -1,0 0,0 0,0" stroke="none" fill="#EDEDED"></polygon></g><g transform="translate(-1.0 0.0)"><polygon points="61,0 61,60 60,60 60,0 61,0 61,0" stroke="none" fill="#EDEDED"></polygon></g><g transform="translate(0.0 1.0)"><polygon points="60,0 0,0 0,-1 60,-1 60,0 60,0" stroke="none" fill="#EDEDED"></polygon></g><g transform="translate(0.0 -2.0)"><polygon points="60,60 60,62 0,62 0,60 60,60 60,60" stroke="none" fill="#F0AB00"></polygon></g></g></g><g transform="translate(685.9999999999995 343.0)"><g clip-path="url(#i4)"><polygon points="0,0 60,0 60,60 0,60 0,0" stroke="none" fill="#393F44"></polygon><g transform="translate(0.0 -1.0)"><polygon points="60,60 60,61 0,61 0,60 60,60 60,60" stroke="none" fill="#8B8D8F"></polygon></g></g></g><g transform="translate(769.9999999999995 343.0)"><g clip-path="url(#i4)"><polygon points="0,0 60,0 60,60 0,60 0,0" stroke="none" fill="#393F44"></polygon><g transform="translate(0.0 -2.0)"><polygon points="60,60 60,62 0,62 0,60 60,60 60,60" stroke="none" fill="#8B8D8F"></polygon></g></g></g><g transform="translate(685.9999999999995 259.0)"><g clip-path="url(#i4)"><polygon points="0,0 60,0 60,60 0,60 0,0" stroke="none" fill="#393F44"></polygon><g transform="translate(0.0 -1.0)"><polygon points="60,60 60,61 0,61 0,60 60,60 60,60" stroke="none" fill="#2B9AF3"></polygon></g></g></g><g transform="translate(769.9999999999995 259.0)"><g clip-path="url(#i4)"><polygon points="0,0 60,0 60,60 0,60 0,0" stroke="none" fill="#393F44"></polygon><g transform="translate(0.0 -2.0)"><polygon points="60,60 60,62 0,62 0,60 60,60 60,60" stroke="none" fill="#2B9AF3"></polygon></g></g></g><g transform="translate(685.9999999999995 175.0)"><g clip-path="url(#i4)"><polygon points="0,0 60,0 60,60 0,60 0,0" stroke="none" fill="#393F44"></polygon><g transform="translate(0.0 -1.0)"><polygon points="60,60 60,61 0,61 0,60 60,60 60,60" stroke="none" fill="#C9190A"></polygon></g></g></g><g transform="translate(73.99999999999977 277.0)"><text transform="translate(-1.072 13.951904296875)" font-family="RedHatDisplay-Regular, Red Hat Display" font-size="16.0" font-weight="normal" fill="#282C33" text-anchor="left" line-spacing="24.0">primary underline</text></g><g transform="translate(77.99999999999977 204.0)"><text transform="translate(-1.072 13.951904296875)" font-family="RedHatDisplay-Regular, Red Hat Display" font-size="16.0" font-weight="normal" fill="#282C33" text-anchor="left" line-spacing="24.0">status underlines</text></g><g transform="translate(518.9999999999995 196.0)"><text transform="translate(-1.072 13.951904296875)" font-family="RedHatDisplay-Regular, Red Hat Display" font-size="16.0" font-weight="normal" fill="#282C33" text-anchor="left" line-spacing="24.0">Underlines (dark fill)</text></g><g transform="translate(53.99999999999977 365.0)"><text transform="translate(-1.072 13.951904296875)" font-family="RedHatDisplay-Regular, Red Hat Display" font-size="16.0" font-weight="normal" fill="#282C33" text-anchor="left" line-spacing="24.0">secondary underline</text></g><g transform="translate(118.9999999999998 434.0)"><text transform="translate(-1.072 13.951904296875)" font-family="RedHatDisplay-Regular, Red Hat Display" font-size="16.0" font-weight="normal" fill="#282C33" text-anchor="left" line-spacing="24.0">card states</text></g><g transform="translate(58.99999999999977 78.0)"><text transform="translate(-2.412 26.691783905029297)" font-family="RedHatDisplay-Regular, Red Hat Display" font-size="36.0" font-weight="normal" fill="#282C33" text-anchor="left" line-spacing="46.79999923706055">Common Fills</text></g><g transform="translate(323.0 175.0)"><g clip-path="url(#i4)"><polygon points="0,0 60,0 60,60 0,60 0,0" stroke="none" fill="#FFFFFF"></polygon><g transform="translate(1.0 0.0)"><polygon points="0,0 0,60 -1,60 -1,0 0,0 0,0" stroke="none" fill="#EDEDED"></polygon></g><g transform="translate(-1.0 0.0)"><polygon points="61,0 61,60 60,60 60,0 61,0 61,0" stroke="none" fill="#EDEDED"></polygon></g><g transform="translate(0.0 1.0)"><polygon points="60,0 0,0 0,-1 60,-1 60,0 60,0" stroke="none" fill="#EDEDED"></polygon></g><g transform="translate(0.0 -2.0)"><polygon points="60,60 60,62 0,62 0,60 60,60 60,60" stroke="none" fill="#3E8634"></polygon></g></g></g><g transform="translate(239.0 416.0)"><polygon points="0,0 60,0 60,60 0,60 0,0 0,0" stroke="none" fill="#000000" filter="url(#i5)"></polygon><polygon points="0,0 60,0 60,60 0,60 0,0 0,0" stroke="none" fill="#000000" filter="url(#i8)"></polygon><g clip-path="url(#i4)"><polygon points="0,0 60,0 60,60 0,60 0,0" stroke="none" fill="#FFFFFF"></polygon><g transform="translate(0.0 -4.0)"><polygon points="60,60 60,64 0,64 0,60 60,60 60,60" stroke="none" fill="#73BCF7"></polygon></g></g></g><g transform="translate(323.0 416.0)"><polygon points="0,0 60,0 60,60 0,60 0,0 0,0" stroke="none" fill="#000000" filter="url(#i11)"></polygon><polygon points="0,0 60,0 60,60 0,60 0,0 0,0" stroke="none" fill="#000000" filter="url(#i14)"></polygon><g clip-path="url(#i4)"><polygon points="0,0 60,0 60,60 0,60 0,0" stroke="none" fill="#FFFFFF"></polygon><g transform="translate(0.0 -8.0)"><polygon points="60,60 60,68 0,68 0,60 60,60 60,60" stroke="none" fill="#0066CC"></polygon></g></g></g></g></svg>