<?xml version="1.0" encoding="UTF-8"?>
<svg width="68px" height="54px" viewBox="0 0 68 54" version="1.1" xmlns="http://www.w3.org/2000/svg" xmlns:xlink="http://www.w3.org/1999/xlink">
    <title></title>
    <g id="Icons" stroke="none" stroke-width="1" fill="none" fill-rule="evenodd">
        <g id="Icons-/-4.-Size-xl-/-Status-/-balance-scale" fill="#151515">
            <path d="M55.6873672,53.9998713 C56.6196923,53.9998713 57.3748632,53.2447003 57.3748632,52.3123753 L57.3748632,48.9373833 C57.3748632,48.0050583 56.6196923,47.2498873 55.6873672,47.2498873 L37.1249115,47.2498873 L37.1249115,16.1630474 C39.6044512,15.0777724 41.4660114,12.8428496 42.0175581,10.1249759 L55.6873672,10.1249759 C56.6196923,10.1249759 57.3748632,9.36980493 57.3748632,8.43747988 L57.3748632,5.06248793 C57.3748632,4.13016288 56.6196923,3.37499195 55.6873672,3.37499195 L40.4618977,3.37499195 C38.9220988,1.3373076 36.5015762,0 33.7499195,0 C30.9982629,0 28.5777402,1.3373076 27.0379414,3.37499195 L11.8124718,3.37499195 C10.8801468,3.37499195 10.1249759,4.13016288 10.1249759,5.06248793 L10.1249759,8.43747988 C10.1249759,9.36980493 10.8801468,10.1249759 11.8124718,10.1249759 L25.482281,10.1249759 C26.0338277,12.8418197 27.8943579,15.0777724 30.3749276,16.1630474 L30.3749276,47.2498873 L11.8124718,47.2498873 C10.8801468,47.2498873 10.1249759,48.0050583 10.1249759,48.9373833 L10.1249759,52.3123753 C10.1249759,53.2447003 10.8801468,53.9998713 11.8124718,53.9998713 L55.6873672,53.9998713 Z M13.4999678,43.8748954 C20.9555813,43.8748954 26.9999356,40.0969808 26.9999356,35.4374155 L26.9978757,35.4374155 L26.9979701,35.3378472 C26.998008,35.3055399 26.9980273,35.2740575 26.9979528,35.2432279 L26.9973727,35.1525256 L26.9973727,35.1525256 L26.9957791,35.0647083 C26.9612676,33.7350195 26.4102678,33.0588042 18.0276975,16.2938531 C16.1662403,12.5718656 10.8358583,12.5644499 8.97110517,16.2938531 L8.43101778,17.3736421 C1.37832056,31.4672108 0.223266217,33.5090681 0.0368899326,34.6647422 L0.0246509676,34.7499307 C0.021125393,34.7778892 0.0181282271,34.8054684 0.0155824549,34.8328427 L0.0069134609,34.9552322 C0.00350127276,35.0231121 0.00218827854,35.0913466 0.00177111766,35.1626619 L0.00187381102,35.3411289 C0.00197221972,35.3723245 0.00205993161,35.4043618 0.00205993161,35.4374155 L0,35.4374155 C0,40.0969808 6.04435433,43.8748954 13.4999678,43.8748954 Z M53.9998713,43.8748954 C61.4554847,43.8748954 67.4998391,40.0969808 67.4998391,35.4374155 L67.4977791,35.4374155 L67.4972762,35.1525256 L67.4972762,35.1525256 L67.4956825,35.0647083 C67.4904308,34.8623643 67.4732188,34.6751528 67.418269,34.4440762 L67.3923335,34.3421858 C67.0326472,33.0131983 65.452333,30.1431606 58.5276009,16.2938531 C56.6661437,12.5718656 51.3357617,12.5644499 49.4710086,16.2938531 C41.9365821,31.364564 40.7278291,33.4801763 40.5367934,34.6647422 L40.5245544,34.7499307 C40.5227916,34.7639099 40.5211609,34.7777944 40.5196527,34.7916058 L40.5119962,34.8737721 C40.5045984,34.9690173 40.5022586,35.0628206 40.5016746,35.1626619 L40.5019634,35.4374155 L40.5019634,35.4374155 L40.4999034,35.4374155 C40.4999034,40.0969808 46.5442578,43.8748954 53.9998713,43.8748954 Z M21.0936997,33.7499195 L5.90623592,33.7499195 L13.4999678,18.5624557 L21.0936997,33.7499195 Z M61.5936031,33.7499195 L46.4061394,33.7499195 L53.9998713,18.5624557 L61.5936031,33.7499195 Z" id="balance-scale"></path>
        </g>
    </g>
</svg>