<?xml version="1.0" encoding="UTF-8"?>
<svg width="53px" height="53px" viewBox="0 0 53 53" version="1.1" xmlns="http://www.w3.org/2000/svg" xmlns:xlink="http://www.w3.org/1999/xlink">
    <title></title>
    <g id="Icons" stroke="none" stroke-width="1" fill="none" fill-rule="evenodd">
        <g id="Icons-/-4.-Size-xl-/-Status-/-ban" fill="#151515">
            <path d="M26.1561876,52.3123753 C40.6017671,52.3123753 52.3123753,40.6017671 52.3123753,26.1561876 C52.3123753,11.7106082 40.6018701,0 26.1561876,0 C11.7106082,0 0,11.7105052 0,26.1561876 C0,40.6018701 11.7106082,52.3123753 26.1561876,52.3123753 Z M42.0592717,37.2862041 L15.0260681,10.2532066 C22.4303893,5.04775942 32.9796081,5.53513924 39.8785251,12.4338502 C46.7811499,19.336578 47.26132,29.8869298 42.0592717,37.2862041 Z M12.4338502,39.8785251 C5.53122537,32.9757972 5.05105531,22.4254455 10.2531036,15.0261711 L37.2863071,42.0591687 C29.8820889,47.2646159 19.3327672,46.777339 12.4338502,39.8785251 Z" id="ban"></path>
        </g>
    </g>
</svg>