<?xml version="1.0" encoding="UTF-8"?>
<svg width="61px" height="55px" viewBox="0 0 61 55" version="1.1" xmlns="http://www.w3.org/2000/svg" xmlns:xlink="http://www.w3.org/1999/xlink">
    <title></title>
    <g id="Icons" stroke="none" stroke-width="1" fill="none" fill-rule="evenodd">
        <g id="Icons-/-4.-Size-xl-/-Status-/-exclamation-triangle" fill="#F0AB00">
            <path d="M55.6811464,54.9998718 C59.5692673,54.9998718 62.0128612,50.7818528 60.0661228,47.4074788 L34.7600689,3.52969955 C32.8158025,0.159857423 27.9375754,0.153677628 25.9899101,3.52969955 L0.683135242,47.4074788 C-1.25979225,50.775364 1.17257499,54.9998718 5.06821466,54.9998718 L55.6811464,54.9998718 Z M32.9350725,36.437416 L27.8149065,36.437416 C27.1427508,36.437416 26.5878052,35.9119275 26.5512414,35.2408018 L25.7688794,20.897086 C25.7293287,20.172093 26.3064186,19.5624563 27.0324415,19.5624563 L33.7174345,19.5624563 C34.4434574,19.5624563 35.0206503,20.172093 34.9810996,20.897086 L34.1987376,35.2408018 C34.1621738,35.9119275 33.6072282,36.437416 32.9350725,36.437416 Z M30.3749895,48.0389509 C27.6955335,48.0389509 25.5234386,45.866856 25.5234386,43.1873999 C25.5234386,40.5079439 27.6955335,38.335849 30.3749895,38.335849 C33.0544455,38.335849 35.2265404,40.5079439 35.2265404,43.1873999 C35.2265404,45.866856 33.0544455,48.0389509 30.3749895,48.0389509 Z" id="exclamation-triangle"></path>
        </g>
    </g>
</svg>