<?xml version="1.0" encoding="UTF-8"?>
<svg width="53px" height="54px" viewBox="0 0 53 54" version="1.1" xmlns="http://www.w3.org/2000/svg" xmlns:xlink="http://www.w3.org/1999/xlink">
    <title></title>
    <g id="Icons" stroke="none" stroke-width="1" fill="none" fill-rule="evenodd">
        <g id="Icons-/-4.-Size-xl-/-Status-/-history" fill="#151515">
            <path d="M26.175139,53.312279 C40.5864206,53.3021786 52.3390514,41.5179278 52.3124206,27.1067493 C52.2856992,12.6838291 40.5852876,1 26.1561876,1 C19.1479913,1 12.7837296,3.75649749 8.08790949,8.2440585 L2.88081436,3.03696337 C1.81768365,1.97393567 0,2.72684067 0,4.23017876 L0,19.5624557 C0,20.4944718 0.755479919,21.2499517 1.68749598,21.2499517 L17.019773,21.2499517 C18.523111,21.2499517 19.2760161,19.4322681 18.2128853,18.3691374 L12.8599471,13.0161991 C16.3318588,9.75058949 21.0078006,7.74998391 26.1561876,7.74998391 C36.8812216,7.74998391 45.5623914,16.4295058 45.5623914,27.1561876 C45.5623914,37.8812216 36.8828695,46.5623914 26.1561876,46.5623914 C21.597971,46.5623914 17.408791,44.9945774 14.0986869,42.3679586 C13.0927193,41.5698381 11.6431455,41.6692298 10.7352306,42.5771447 L9.54685605,43.7655192 C8.4852703,44.827105 8.5726114,46.5780469 9.74090161,47.5208775 C14.2337155,51.1469752 19.9509526,53.3167011 26.175139,53.312279 Z M33.2318467,35.4159984 L34.2678893,34.0838406 C35.1261598,32.9803353 34.9273764,31.3899651 33.8238711,30.5317976 L29.5311796,27.1929574 L29.5311796,16.1874638 C29.5311796,14.7894912 28.3979082,13.6562198 26.9999356,13.6562198 L25.3124397,13.6562198 C23.9144671,13.6562198 22.7811957,14.7894912 22.7811957,16.1874638 L22.7811957,30.4944098 L29.6798037,35.8600167 C30.783309,36.7181842 32.3735762,36.5195038 33.2318467,35.4159984 Z" id="history"></path>
        </g>
    </g>
</svg>