<?xml version="1.0" encoding="UTF-8"?>
<svg width="54px" height="54px" viewBox="0 0 54 54" version="1.1" xmlns="http://www.w3.org/2000/svg" xmlns:xlink="http://www.w3.org/1999/xlink">
    <title></title>
    <g id="Icons" stroke="none" stroke-width="1" fill="none" fill-rule="evenodd">
        <g id="Icons-/-4.-Size-xl-/-Status-/-pficon-not-started" fill="#151515">
            <path d="M27.0041243,0.0226653659 C41.8878743,0.0226653659 54.0007493,12.1270946 54.0007493,26.9963239 C54.0007493,41.8722966 41.8878743,53.9699824 27.0041243,53.9699824 C12.1102493,53.9699824 0.000749268293,41.8722966 0.000749268293,26.9963239 C0.000749268293,12.1270946 12.1102493,0.0226653659 27.0041243,0.0226653659 Z M27.0041243,6.76270829 C15.8362493,6.76270829 6.75412427,15.8393444 6.75412427,26.9929522 C6.75412427,38.1566751 15.8362493,47.2231961 27.0041243,47.2231961 C38.1686243,47.2231961 47.2541243,38.1533034 47.2541243,26.9929522 C47.2507493,15.8393444 38.1686243,6.76270829 27.0041243,6.76270829 Z M13.9209368,22.7833756 C16.2508881,22.7833756 18.1396868,24.6703316 18.1396868,26.9980098 C18.1396868,29.3256879 16.2508881,31.2126439 13.9209368,31.2126439 C11.5909855,31.2126439 9.70218677,29.3256879 9.70218677,26.9980098 C9.70218677,24.6703316 11.5909855,22.7833756 13.9209368,22.7833756 Z M27.0517961,22.7833756 C29.3817474,22.7833756 31.2705461,24.6703316 31.2705461,26.9980098 C31.2705461,29.3256879 29.3817474,31.2126439 27.0517961,31.2126439 C24.7218449,31.2126439 22.8330461,29.3256879 22.8330461,26.9980098 C22.8330461,24.6703316 24.7218449,22.7833756 27.0517961,22.7833756 Z M40.1299211,22.7833756 C42.4598724,22.7833756 44.3486711,24.6703316 44.3486711,26.9980098 C44.3486711,29.3256879 42.4598724,31.2126439 40.1299211,31.2126439 C37.7999699,31.2126439 35.9111711,29.3256879 35.9111711,26.9980098 C35.9111711,24.6703316 37.7999699,22.7833756 40.1299211,22.7833756 Z" id="not-started"></path>
        </g>
    </g>
</svg>