<?xml version="1.0" encoding="UTF-8"?>
<svg width="54px" height="37px" viewBox="0 0 54 37" version="1.1" xmlns="http://www.w3.org/2000/svg" xmlns:xlink="http://www.w3.org/1999/xlink">
    <title></title>
    <g id="Icons" stroke="none" stroke-width="1" fill="none" fill-rule="evenodd">
        <g id="Icons-/-4.-Size-xl-/-Status-/-pficon-connected" fill="#151515">
            <path d="M8.65919538,36.7949747 C7.84329383,36.7998477 7.0656173,36.4495083 6.5287403,35.8351117 C-0.775406085,27.4404984 -2.07798295,15.3848234 3.26450342,5.62378214 C4.17763571,3.96738101 5.26292922,2.4119115 6.50237328,0.983186925 C7.52900145,-0.194887128 9.3162658,-0.317658241 10.4943398,0.708969935 C11.6724139,1.73559816 11.795185,3.52286245 10.7685568,4.7009365 C9.79435326,5.82233265 8.94065032,7.04296882 8.22150287,8.34274907 C4.02277126,16.0187796 5.05193987,25.4980749 10.8001973,32.0941591 C11.5314836,32.9324661 11.7048952,34.1210008 11.2436199,35.1333067 C10.7823447,36.1456127 9.77164087,36.7949747 8.65919538,36.7927618 M45.4728263,36.6345597 C44.3697386,36.6324457 43.3686239,35.9889247 42.9086654,34.9863057 C42.4487068,33.9836867 42.613919,32.8051049 43.3318244,31.9675975 C50.0614822,24.1102108 50.0210995,12.5091728 43.2369032,4.69882714 C42.5646285,3.93971446 42.3506809,2.87856479 42.6762891,1.91826032 C43.0018972,0.957955903 43.8171265,0.245766761 44.8124623,0.0520867205 C45.8077981,-0.141593267 46.830598,0.212938188 47.4925399,0.981077563 C56.1188772,10.9024097 56.1749704,25.6459296 47.624375,35.632613 C47.0887219,36.2658156 46.3022017,36.6320872 45.4728263,36.6345597 M32.8008373,18.3906924 C32.8008373,21.58853 30.2084777,24.1808896 27.0106401,24.1808896 C23.8128025,24.1808896 21.2204429,21.58853 21.2204429,18.3906924 C21.2204429,15.1928548 23.8128025,12.6004952 27.0106401,12.6004952 C30.2078748,12.6019502 32.7993823,15.1934577 32.8008373,18.3906924 M38.0584208,28.510354 C37.1585553,28.5083232 36.3347809,28.0051159 35.9221759,27.2054165 C35.509571,26.4057171 35.5768762,25.4427571 36.0967146,24.70823 C38.7692205,20.9238309 38.7607635,15.8644186 36.075621,12.088975 C35.3038296,11.0055547 35.5564549,9.50160837 36.6398752,8.729817 C37.7232956,7.95802559 39.2272418,8.21065078 39.9990333,9.29407109 C43.8716775,14.7372488 43.8885868,22.0315132 40.0412205,27.4925871 C39.5807451,28.1290203 38.8439618,28.5072095 38.0584208,28.510354 M15.878485,28.4998072 C15.0939916,28.4991016 14.3586464,28.1176659 13.906232,27.4767669 C10.0945033,22.0479194 10.0881799,14.8139487 13.8904118,9.37844555 C14.6445085,8.2921244 16.152702,8.02845421 17.2495699,8.78782434 C18.336136,9.55496145 18.5999182,11.0552224 17.8401911,12.1469825 C16.5376604,13.9874003 15.8679382,16.1653161 15.8679382,18.4276062 C15.8625303,20.6759636 16.5553582,22.8705327 17.850738,24.70823 C18.2193469,25.2311516 18.3642704,25.879451 18.2534134,26.5095543 C18.1425564,27.1396577 17.7850674,27.6995654 17.2601167,28.0652788 C16.8527441,28.3434463 16.3717555,28.4939847 15.878485,28.4976979" id="pficon-connected"></path>
        </g>
    </g>
</svg>