<?xml version="1.0" encoding="UTF-8"?>
<svg width="54px" height="54px" viewBox="0 0 54 54" version="1.1" xmlns="http://www.w3.org/2000/svg" xmlns:xlink="http://www.w3.org/1999/xlink">
    <title></title>
    <g id="Icons" stroke="none" stroke-width="1" fill="none" fill-rule="evenodd">
        <g id="Icons-/-4.-Size-xl-/-Status-/-pficon-enhancement" fill="#151515">
            <path d="M29.5838546,16.8749169 L24.4159221,16.8749169 C23.9790593,16.8749169 23.624912,17.2290642 23.624912,17.665927 L23.624912,23.6248696 L17.6659694,23.6248696 C17.2278922,23.6269036 16.8740825,23.983072 16.8749561,24.4211531 L16.8749561,29.5890856 C16.8749561,29.7983928 16.9584608,29.9990514 17.1069576,30.1465581 C17.2554543,30.2940648 17.4566669,30.3762271 17.6659694,30.3748223 L23.624912,30.3748223 L23.624912,36.3337649 C23.624912,36.7706277 23.9790593,37.1247749 24.4159221,37.1247749 L29.5838546,37.1247749 C30.0207174,37.1247749 30.3748647,36.7706277 30.3748647,36.3337649 L30.3748647,30.3748223 L36.3338073,30.3748223 C36.542578,30.3775009 36.7437291,30.2964747 36.8923519,30.1498335 C37.0409748,30.0031923 37.1248206,29.8031469 37.1248206,29.594359 L37.1248206,24.4211531 C37.1256942,23.983072 36.7718845,23.6269036 36.3338073,23.6248696 L30.3748647,23.630143 L30.3748647,17.665927 C30.3748647,17.2290642 30.0207174,16.8749169 29.5838546,16.8749169 Z M24.7734586,1.18918711 C25.5750155,-0.0131482049 27.2255899,-0.36646604 28.464839,0.419270638 C28.7797706,0.615529755 29.0479524,0.878312015 29.2505757,1.18918711 L32.9577763,8.51921382 L41.5586925,3.97301525 C42.93505,3.4509486 44.4801564,4.12594386 45.0074964,5.46538758 C45.1461533,5.80988497 45.2056257,6.1811369 45.1815187,6.55170809 L43.9000823,14.8583686 L52.0158457,16.4530449 C53.4343903,16.8274563 54.2886812,18.2618213 53.903723,19.649253 C53.8026519,20.005322 53.6304337,20.3372011 53.3974765,20.6248321 L47.6389233,26.9998459 L53.3974765,33.3759145 C53.8432017,33.9069773 54.0558875,34.5953708 53.9874002,35.2853042 C53.918913,35.9752375 53.575043,36.6083838 53.0336119,37.0414552 C52.7403354,37.2755542 52.4005802,37.444533 52.0369393,37.5371549 L43.6733261,38.8871454 L45.1973389,47.4363823 C45.2869867,48.8812941 44.1532056,50.1099964 42.6872002,50.183824 C42.3084658,50.2086912 41.9288437,50.1511182 41.5745127,50.0150752 L33.0948847,45.4688766 L29.2505757,52.8105049 C28.4490188,54.0128402 26.7984444,54.366158 25.5644687,53.5804213 C25.2495372,53.3841622 24.9813553,53.1213797 24.778732,52.8105049 L20.9354777,45.4688766 L12.4558497,50.0150752 C11.0794922,50.5371418 9.53491316,49.8621466 9.00757311,48.5227028 C8.86854417,48.1783002 8.80888424,47.8070028 8.83302355,47.4363823 L10.3570363,38.8871454 L1.99289573,37.5371549 C0.563804188,37.1732902 -0.290486697,35.7389253 0.0944715406,34.3514936 C0.195542688,33.9954245 0.367760988,33.6635456 0.600717991,33.3759145 L6.35874403,26.9998459 L0.59017119,20.6237774 C0.147855712,20.0887614 -0.0596056997,19.3977688 0.0148627493,18.7075952 C0.0893311985,18.0174216 0.439415294,17.3865871 0.985676229,16.9582367 C1.27895283,16.7241377 1.61870804,16.5551589 1.98234893,16.462537 L10.1033857,14.8594233 L8.82194941,6.55276277 C8.74759446,5.11839784 9.87082877,3.88969552 11.3473809,3.81586791 C11.7209016,3.79219773 12.0951149,3.849769 12.4442482,3.98461673 L20.9291497,8.5308153 L24.7734586,1.18918711 Z" id="pficon-enhancement"></path>
        </g>
    </g>
</svg>