<?xml version="1.0" encoding="UTF-8"?>
<svg width="54px" height="40px" viewBox="0 0 54 40" version="1.1" xmlns="http://www.w3.org/2000/svg" xmlns:xlink="http://www.w3.org/1999/xlink">
    <title></title>
    <g id="Icons" stroke="none" stroke-width="1" fill="none" fill-rule="evenodd">
        <g id="Icons-/-4.-Size-xl-/-Status-/-pficon-trend-down" fill="#151515">
            <path d="M54,37.8 C54,38.795625 53.195625,39.6 52.2,39.6 L27,39.6 C26.004375,39.6 25.2,38.795625 25.2,37.8 L25.2,34.2 C25.2,33.204375 26.004375,32.4 27,32.4 L41.709375,32.4 L25.329375,15.85125 L19.333125,21.87 C18.63,22.573125 17.488125,22.57875 16.785,21.87 L0.52875,5.61375 C0.174375,5.265 0,4.80375 0,4.348125 C0,3.886875 0.174375,3.425625 0.52875,3.076875 L3.07125,0.52875 C3.425625,0.174375 3.886875,0 4.348125,0 C4.809375,0 5.270625,0.174375 5.619375,0.52875 L18.050625,12.96 L24.046875,6.94125 C24.75,6.238125 25.891875,6.2325 26.595,6.94125 L46.8,27.309375 L46.74375,12.6 C46.74375,11.604375 47.491875,10.8 48.4875,10.8 L52.0875,10.8 C53.083125,10.8 54,11.604375 54,12.6 L54,37.8 Z" id="pficon-trend-down"></path>
        </g>
    </g>
</svg>