<?xml version="1.0" encoding="UTF-8"?>
<svg width="54px" height="54px" viewBox="0 0 54 54" version="1.1" xmlns="http://www.w3.org/2000/svg" xmlns:xlink="http://www.w3.org/1999/xlink">
    <title></title>
    <g id="Icons" stroke="none" stroke-width="1" fill="none" fill-rule="evenodd">
        <g id="Icons-/-4.-Size-xl-/-Status-/-pficon-disconnected" fill="#151515">
            <path d="M5.63380803,26.9427424 C5.634961,23.8633899 6.31263304,20.8218926 7.61890218,18.0333313 L3.43842176,13.8391133 C3.38030082,13.9500714 3.31742454,14.0557458 3.2593036,14.166704 C-2.07575546,23.9424814 -0.773951935,36.0042314 6.5241151,44.4165376 C7.06121109,45.0293027 7.83598123,45.381366 8.65081298,45.3830337 C9.33218811,45.3871264 9.99098078,45.1388557 10.5001155,44.6860074 C11.6794421,43.6614938 11.7951556,41.8655569 10.7643016,40.6825317 C7.45620181,36.8693637 5.63455901,31.990888 5.63380803,26.9427424 Z M15.7436806,26.9876541 C15.7436806,26.7335071 15.7542481,26.4899275 15.7700992,26.25216 L11.7666235,22.2402303 C10.3002462,26.9203726 11.0883943,32.0160097 13.9001902,36.0344419 C14.3409547,36.6627073 15.0607642,37.0361245 15.8282202,37.0347655 C16.311793,37.0380856 16.784348,36.8902967 17.1797961,36.6119527 C18.2417349,35.8596929 18.4946137,34.3899233 17.7451543,33.3260063 C16.4373655,31.470845 15.7379984,29.2553209 15.7436806,26.9855406 L15.7436806,26.9876541 Z M47.6816632,44.1634473 C56.1794408,34.1424237 56.096646,19.4207045 47.4866939,9.49589424 C46.9968608,8.92862989 46.3007368,8.58051819 45.5530313,8.52892492 C44.8053259,8.47733165 44.067986,8.72653129 43.5048815,9.22114072 C42.322913,10.2461827 42.2071995,12.042648 43.2306563,13.2256732 C49.8848639,20.9034629 50.0670937,32.2502718 43.6628647,40.13778 L39.7867267,36.2547731 C39.8521723,36.1837465 39.9120551,36.1077889 39.9658448,36.0275731 C41.8388721,33.3804087 42.8399181,30.2151085 42.8296219,26.9723313 C42.8296219,23.6811012 41.833112,20.5325316 39.9288588,17.869536 C39.5687778,17.360565 39.0208301,17.0159451 38.4061172,16.9118405 C37.7914043,16.807736 37.1605401,16.9527183 36.6529515,17.3147452 C35.5925086,18.0650337 35.3552695,19.5339082 36.0992175,20.5959362 C38.6935945,24.2504942 38.818894,29.1114906 36.4162408,32.8948546 L32.4444674,28.9273082 C32.6770482,28.2945315 32.7949586,27.6253588 32.7926646,26.9511964 C32.7938343,23.7513263 30.2026295,21.1553921 27.0027627,21.150727 C26.3295988,21.1485836 25.6614624,21.2666795 25.0298211,21.4994526 L4.3139344,0.720689676 C3.34803708,-0.242289521 1.78437372,-0.239923919 0.821394532,0.725973397 C-0.141584666,1.69187071 -0.139219063,3.25553407 0.826678253,4.21851327 L6.31276624,9.71781054 L10.3315648,13.7334388 L17.5517701,20.9657967 L21.5494338,24.9703292 L28.9550977,32.3876174 L49.6910625,53.1658518 C50.6568139,54.1299984 52.2213053,54.1286975 53.1854518,53.1629458 C54.1495983,52.1971945 54.148297,50.6327031 53.1825457,49.6685567 L47.6816632,44.1634473 Z" id="pficon-disconnected"></path>
        </g>
    </g>
</svg>