<?xml version="1.0" encoding="UTF-8"?>
<svg width="54px" height="54px" viewBox="0 0 54 54" version="1.1" xmlns="http://www.w3.org/2000/svg" xmlns:xlink="http://www.w3.org/1999/xlink">
    <title></title>
    <g id="Icons" stroke="none" stroke-width="1" fill="none" fill-rule="evenodd">
        <g id="Icons-/-4.-Size-xl-/-Status-/-pficon-resources-almost-full" fill="#151515">
            <path d="M27.0052734,0 C12.1130859,0 0,12.1183594 0,27 C0,41.8869141 12.1183594,54 27.0052734,54 C41.8921875,54 54,41.8869141 54,27 C54,12.1130859 41.8921875,0 27.0052734,0 Z M27,47.25 C15.8308594,47.25 6.75,38.1744141 6.75,27 C6.75,15.8361328 15.8308594,6.75 27,6.75 C38.1638672,6.75 47.25,15.8308594 47.25,27 C47.25,38.1691406 38.1638672,47.25 27,47.25 Z M40.6054688,20.25 L13.3892578,20.25 C12.3767578,22.2855469 11.8125,24.5742188 11.8125,27 C11.8125,35.3900391 18.6099609,42.1875 27,42.1875 C35.3900391,42.1875 42.1875,35.3900391 42.1875,27 C42.1875,24.5742188 41.6179688,22.2855469 40.6054688,20.25" id="pficon-resources-almost-full"></path>
        </g>
    </g>
</svg>