<?xml version="1.0" encoding="UTF-8"?>
<svg width="54px" height="54px" viewBox="0 0 54 54" version="1.1" xmlns="http://www.w3.org/2000/svg" xmlns:xlink="http://www.w3.org/1999/xlink">
    <title></title>
    <g id="Icons" stroke="none" stroke-width="1" fill="none" fill-rule="evenodd">
        <g id="Icons-/-4.-Size-xl-/-Status-/-pficon-private" fill="#151515">
            <path d="M27,0 C12.0867187,0 0,12.0867187 0,27 C0,41.9132812 12.0867187,54 27,54 C41.9132812,54 54,41.9132812 54,27 C54,12.0867187 41.9132812,0 27,0 L27,0 Z M43.875,38.1427734 C43.875,39.6351563 43.3160156,41.0009766 42.2560547,42.0925781 L42.2349609,42.1136719 L42.2138672,42.1347656 C40.7742188,43.5744141 39.2554688,43.875 38.2324219,43.875 L15.7570312,43.875 C14.7445312,43.875 13.2416016,43.5744141 11.7914062,42.1505859 L11.7703125,42.1294922 C10.6892578,41.0484375 10.1197266,39.6720703 10.1197266,38.1375 L10.1197266,25.7712891 C10.1197266,24.2736328 10.6787109,22.9078125 11.7333984,21.8214844 L11.7544922,21.8003906 L11.7755859,21.7792969 C12.7248047,20.8300781 13.7900391,20.4714844 14.6126953,20.334375 L14.6126953,19.153125 C14.6126953,15.778125 15.8361328,12.8355469 18.2566406,10.4097656 C19.4484375,9.21269531 20.7984375,8.28984375 22.2591797,7.678125 C23.7304688,7.06113281 25.3230469,6.75 27.0052734,6.75 C28.6822266,6.75 30.2800781,7.06113281 31.7513672,7.678125 C33.2173828,8.28984375 34.5673828,9.21269531 35.7591797,10.4097656 C38.1638672,12.825 39.3873047,15.7675781 39.3873047,19.153125 L39.3873047,20.3396484 C40.4947266,20.5294922 41.4439453,21.0041016 42.2191406,21.7634766 C43.3054688,22.8339844 43.8802734,24.2208984 43.8802734,25.7712891 L43.875,38.1427734 Z M39.8460938,24.1734375 C39.403125,23.7357422 38.8757813,23.625 38.2482422,23.625 L36.0070312,23.625 L36.0070312,19.153125 C36.0070312,16.6798828 35.1369141,14.5705078 33.3650391,12.7880859 C31.5931641,11.0109375 29.4679687,10.125 27,10.125 C24.5320312,10.125 22.4173828,11.0109375 20.6455078,12.7880859 C18.8736328,14.5652344 17.9876953,16.6693359 17.9876953,19.153125 L17.9876953,23.625 L15.7570313,23.625 C15.1294922,23.625 14.596875,23.7304688 14.1591797,24.1681641 C13.7214844,24.6164063 13.5,25.14375 13.5,25.7712891 L13.5,38.1480469 C13.5,38.7808594 13.7267578,39.3134766 14.1591797,39.7511719 C14.6021484,40.1888672 15.1294922,40.5052734 15.7570313,40.5052734 L38.2376953,40.5052734 C38.8652344,40.5052734 39.3978516,40.1888672 39.8355469,39.7511719 C40.2732422,39.3029297 40.5052734,38.7755859 40.5052734,38.1480469 L40.5052734,25.7765625 C40.5,25.14375 40.2890625,24.6111328 39.8460938,24.1734375 L39.8460938,24.1734375 Z M31.4982422,23.625 L22.5017578,23.625 L22.5017578,19.2427734 C22.5017578,18.0035156 22.9447266,16.9382812 23.8148437,16.0628906 C24.6955078,15.1822266 25.7554687,14.7392578 27,14.7392578 C28.2445312,14.7392578 29.3150391,15.1769531 30.1798828,16.0523437 C31.0605469,16.9330078 31.5035156,17.9929687 31.5035156,19.2375 L31.5035156,23.625 L31.4982422,23.625 Z" id="pficon-private"></path>
        </g>
    </g>
</svg>