<?xml version="1.0" encoding="UTF-8"?>
<svg width="53px" height="55px" viewBox="0 0 53 55" version="1.1" xmlns="http://www.w3.org/2000/svg" xmlns:xlink="http://www.w3.org/1999/xlink">
    <title></title>
    <g id="Icons" stroke="none" stroke-width="1" fill="none" fill-rule="evenodd">
        <g id="Icons-/-4.-Size-xl-/-Status-/-power-off" fill="#151515">
            <path d="M27.8437027,31.3749276 C29.2464131,31.3749276 30.3749467,30.246394 30.3749467,28.8436836 L30.3749467,3.53124397 C30.3749467,2.12853353 29.2464131,1 27.8437027,1 L24.4687108,1 C23.0660003,1 21.9374668,2.12853353 21.9374668,3.53124397 L21.9374668,28.8436836 C21.9374668,30.246394 23.0660003,31.3749276 24.4687108,31.3749276 L27.8437027,31.3749276 Z M26.208941,54.156187 C40.6265053,54.1245033 52.3123944,42.4280056 52.3123944,27.9999356 C52.3123944,19.2144303 47.9881859,11.451887 41.3436705,6.70580457 C40.1202771,5.83043663 38.4116669,6.22069068 37.6733874,7.52854126 L36.0070057,10.4921649 C35.3847004,11.5890785 35.6694859,12.9917889 36.6925509,13.7511827 C41.269822,17.1471859 43.8432945,22.4206109 43.8749145,27.8839615 C43.9381544,37.8928602 35.81708,45.7186434 26.1562067,45.7186434 C16.2949021,45.7186434 8.42699333,37.7241518 8.43749898,27.98943 C8.43749898,22.1569396 11.2324142,17.0100975 15.6093569,13.7616883 C16.6324219,13.0022945 16.9277131,11.5995841 16.3054078,10.4921649 L14.6390261,7.52854126 C13.9007466,6.21018503 12.1816307,5.84104528 10.9476286,6.71641322 C4.31372189,11.4730013 -0.0104865514,19.2565559 0,28.0421642 C0.0211333988,42.4491199 11.8124909,54.1877432 26.208941,54.156187 Z" id="power-off"></path>
        </g>
    </g>
</svg>