<?xml version="1.0" encoding="UTF-8"?>
<svg width="55px" height="55px" viewBox="0 0 55 55" version="1.1" xmlns="http://www.w3.org/2000/svg" xmlns:xlink="http://www.w3.org/1999/xlink">
    <title></title>
    <g id="Icons" stroke="none" stroke-width="1" fill="none" fill-rule="evenodd">
        <g id="Icons-/-4.-Size-xl-/-Status-/-wrench" fill="#151515">
            <path d="M11.521661,53.0231946 L34.0085954,30.5362602 C39.294689,32.2986347 45.3432661,31.1353913 49.5515004,26.927157 C53.4611476,23.0174068 54.7932024,17.5066777 53.5498277,12.5063997 C53.3135535,11.5540934 52.1217801,11.2313021 51.4277891,11.925293 L43.5851145,19.7679677 L36.4259252,18.5750613 L35.2330188,11.415872 L43.0756934,3.57330032 C43.7739072,2.8750865 43.4374174,1.685373 42.4787252,1.44703891 C37.4816401,0.208814017 31.9793568,1.54303172 28.0738295,5.4474261 C23.8930953,9.6281603 22.7424175,15.6883761 24.4826477,20.9724097 L1.97676187,43.4782955 C-0.658920624,46.113978 -0.658920624,50.3875121 1.97676187,53.0231946 C4.61244437,55.6588771 8.88597849,55.6588771 11.521661,53.0231946 Z M6.7502414,50.7809591 C5.35278379,50.7809591 4.21899743,49.6471727 4.21899743,48.2497151 C4.21899743,46.8512275 5.35278379,45.7184711 6.7502414,45.7184711 C8.147699,45.7184711 9.28148536,46.8512275 9.28148536,48.2497151 C9.28148536,49.6471727 8.147699,50.7809591 6.7502414,50.7809591 Z" id="wrench"></path>
        </g>
    </g>
</svg>