<svg xmlns="http://www.w3.org/2000/svg" width="136" height="27" viewBox="0 0 136 27">
  <g fill="none" fill-rule="evenodd">
    <text fill="#06C" font-family="RedHatDisplay-Bold, Red Hat Display" font-size="18" font-weight="bold">
      <tspan x="0" y="18">Call to action</tspan>
    </text>
    <path fill="#06C" d="M15.5300236,7.69658562 L9.93345697,2.10001896 C9.7135163,1.88007828 9.39294577,1.79418166 9.09250122,1.87468554 C8.79205667,1.95518941 8.55738276,2.18986332 8.47687888,2.49030787 C8.39637501,2.79075243 8.48227162,3.11132295 8.70221231,3.33126362 L12.8016974,7.43074871 L0.92298464,7.43074871 C0.689207112,7.43074871 0.465004503,7.52361647 0.299698827,7.68892214 C0.134393152,7.85422782 0.0415253904,8.07843043 0.0415253904,8.31220796 C0.0491667271,8.79355176 0.441580192,9.17973644 0.92298464,9.17967579 L12.8016974,9.17967579 L8.70221231,13.2931523 C8.53460506,13.4540905 8.43986289,13.67641 8.43986289,13.9087746 C8.43986289,14.1411392 8.53460506,14.3634587 8.70221231,14.524397 C9.04461809,14.8585343 9.59105119,14.8585343 9.93345697,14.524397 L15.5300236,8.92783029 C15.6976309,8.76689206 15.792373,8.54457255 15.792373,8.31220796 C15.792373,8.07984337 15.6976309,7.85752385 15.5300236,7.69658562 Z" transform="translate(120 6)"/>
  </g>
</svg>
