<?xml version="1.0" encoding="UTF-8"?><svg version="1.1" width="320px" height="172px" viewBox="0 0 320.0 172.0" xmlns="http://www.w3.org/2000/svg" xmlns:xlink="http://www.w3.org/1999/xlink"><defs><clipPath id="i0"><path d="M320,0 L320,172 L0,172 L0,0 L320,0 Z"></path></clipPath><clipPath id="i1"><path d="M2.24999464,10.9999738 C3.49373557,10.9999738 4.49998927,12.0062275 4.49998927,13.2499684 C4.49998927,14.4937093 3.49373557,15.499963 2.24999464,15.499963 C1.0062537,15.499963 0,14.4937093 0,13.2499684 C0,12.0062275 1.0062537,10.9999738 2.24999464,10.9999738 Z M2.24999464,5.49998689 C3.49373557,5.49998689 4.49998927,6.50624059 4.49998927,7.74998152 C4.49998927,8.99372245 3.49373557,9.99997616 2.24999464,9.99997616 C1.0062537,9.99997616 0,8.99372245 0,7.74998152 C0,6.50624059 1.0062537,5.49998689 2.24999464,5.49998689 Z M2.24999464,0 C3.49373557,0 4.49998927,1.0062537 4.49998927,2.24999464 C4.49998927,3.49373557 3.49373557,4.49998927 2.24999464,4.49998927 C1.0062537,4.49998927 0,3.49373557 0,2.24999464 C0,1.0062537 1.0062537,0 2.24999464,0 Z"></path></clipPath><clipPath id="i2"><path d="M24,0 L24,172 L0,172 L0,0 L24,0 Z"></path></clipPath><clipPath id="i3"><path d="M272,0 L272,24 L0,24 L0,0 L272,0 Z"></path></clipPath><clipPath id="i4"><path d="M272,0 L272,16 L0,16 L0,0 L272,0 Z"></path></clipPath></defs><g clip-path="url(#i0)"><polygon points="0,0 320,0 320,172 0,172 0,0" stroke="none" fill="#FFFFFF"></polygon><polygon points="0,0 320,0 320,172 0,172 0,0 0,0" stroke="#D2D2D2" stroke-width="2" fill="none" stroke-miterlimit="5"></polygon></g><g transform="translate(256.0 24.0)"><g transform="translate(18.166663090388 9.87499076128006)"><g clip-path="url(#i1)"><polygon points="0,0 4.49998927,0 4.49998927,15.499963 0,15.499963 0,0" stroke="none" fill="#696E73"></polygon></g></g></g><g transform="translate(24.0 29.0)"><text transform="translate(0.0 16.0)" font-family="RedHatDisplay-Medium, Red Hat Display" font-size="16.0" font-weight="500" fill="#151515" text-anchor="left" line-spacing="24.0">OPTIONAL title</text></g><g clip-path="url(#i2)"><polygon points="0,0 24,0 24,172 0,172 0,0" stroke="none" fill="rgba(0, 121, 135, 0.9)"></polygon></g><g clip-path="url(#i2)"><polygon points="0,0 24,0 24,172 0,172 0,0 0,0" stroke="#09707A" stroke-width="2" fill="none" stroke-miterlimit="5"></polygon></g><g transform="translate(296.0 0.0)"><g clip-path="url(#i2)"><polygon points="0,0 24,0 24,172 0,172 0,0" stroke="none" fill="rgba(0, 121, 135, 0.9)"></polygon></g><g clip-path="url(#i2)"><polygon points="0,0 24,0 24,172 0,172 0,0 0,0" stroke="#09707A" stroke-width="2" fill="none" stroke-miterlimit="5"></polygon></g></g><g transform="translate(24.0 0.0)"><g clip-path="url(#i3)"><polygon points="0,0 272,0 272,24 0,24 0,0" stroke="none" fill="rgba(0, 121, 135, 0.9)"></polygon></g><g clip-path="url(#i3)"><polygon points="0,0 272,0 272,24 0,24 0,0 0,0" stroke="#09707A" stroke-width="2" fill="none" stroke-miterlimit="5"></polygon></g></g><g transform="translate(24.0 148.0)"><g clip-path="url(#i3)"><polygon points="0,0 272,0 272,24 0,24 0,0" stroke="none" fill="rgba(0, 121, 135, 0.9)"></polygon></g><g clip-path="url(#i3)"><polygon points="0,0 272,0 272,24 0,24 0,0 0,0" stroke="#09707A" stroke-width="2" fill="none" stroke-miterlimit="5"></polygon></g></g><g transform="translate(24.0 60.0)"><g clip-path="url(#i4)"><polygon points="0,0 272,0 272,16 0,16 0,0" stroke="none" fill="rgba(62, 156, 52, 0.9)"></polygon></g><g clip-path="url(#i4)"><polygon points="0,0 272,0 272,16 0,16 0,0 0,0" stroke="#418A37" stroke-width="2" fill="none" stroke-miterlimit="5"></polygon></g></g></svg>