<?xml version="1.0" encoding="UTF-8"?>
<svg width="24px" height="24px" viewBox="0 0 24 24" version="1.1" xmlns="http://www.w3.org/2000/svg" xmlns:xlink="http://www.w3.org/1999/xlink">
    <title></title>
    <g id="Icons" stroke="none" stroke-width="1" fill="none" fill-rule="evenodd">
        <g id="Icons-/-2.-Size-sm-/-Object-/-cube" fill="#151515">
            <path d="M12.5015562,17.6733061 L17.3765445,15.2358119 C17.7585703,15.0459778 17.9976368,14.6545679 17.9976368,14.2303593 L17.9976368,8.95457689 C17.9976368,8.48582801 17.7070033,8.0663115 17.2687186,7.90224939 L12.3937302,6.07412875 C12.1406104,5.9756869 11.859361,5.9756869 11.6038837,6.07177127 L6.72889536,7.89989191 C6.29063346,8.06395402 6,8.48582801 6,8.95457689 L6,14.2303593 C6,14.6569025 6.2414011,15.0459778 6.62109227,15.2358119 L11.4960806,17.6733061 C11.8124861,17.8326762 12.1851507,17.8326762 12.5015562,17.6733061 Z M11.9999857,11.0686389 L7.49999642,9.24051829 L7.49999642,9.21474626 L11.9999857,7.52725028 L16.499975,9.21474626 L16.499975,9.24051829 L11.9999857,11.0686389 Z M12.7499839,15.8709804 L12.7499839,12.3811358 L16.499975,10.8577019 L16.499975,13.9959849 L12.7499839,15.8709804 Z" id="cube"></path>
        </g>
    </g>
</svg>