<?xml version="1.0" encoding="UTF-8"?>
<svg width="24px" height="24px" viewBox="0 0 24 24" version="1.1" xmlns="http://www.w3.org/2000/svg" xmlns:xlink="http://www.w3.org/1999/xlink">
    <title></title>
    <g id="Icons" stroke="none" stroke-width="1" fill="none" fill-rule="evenodd">
        <g id="Icons-/-2.-Size-sm-/-Object-/-data-processor" fill="#050606" fill-rule="nonzero">
            <g id="processor" transform="translate(6.000000, 7.000000)">
                <path d="M10.2954808,0 L11.9987303,1.86234809 L10.2954808,3.72469617 L9.7492114,3.21946442 L10.6497279,2.2348177 L2.10509294,2.2348177 C1.72947196,2.24444372 1.37731191,2.40419826 1.11308933,2.68683286 C0.848233937,2.97014257 0.702382418,3.34414862 0.702382418,3.73995579 L0.702382418,3.74763797 C0.702382418,4.14233937 0.847261281,4.51222498 1.11035886,4.7891445 C1.37369081,5.06629682 1.72496024,5.21457464 2.09945623,5.21457464 L3.78367916,5.21457464 L6.00000059,3.52475798 L8.21630676,5.21457464 L9.90303401,5.21457464 C10.4575885,5.21457464 10.978835,5.43587933 11.372715,5.84396305 L11.3846117,5.85638635 C11.7814553,6.27408775 12.0000006,6.83167477 12.0000006,7.42645055 L12.0000006,7.43413273 C12.0000006,8.02774455 11.7819006,8.58796213 11.3858773,9.01156484 C10.9923501,9.43250207 10.4676667,9.67134821 9.90848323,9.68421005 L9.90439339,9.68421005 L0.360329784,9.68421005 C0.167064215,9.6838143 -0.000361516615,9.50728698 5.86269076e-07,9.30186999 C0.000376764418,9.09670907 0.16739234,8.93927082 0.360329784,8.93927082 L9.8973973,8.93927082 C10.2730066,8.92964481 10.6251783,8.76989026 10.8893892,8.48725566 C11.1542446,8.20394596 11.3001078,7.8299399 11.3001078,7.43413273 L11.3001078,7.42645055 C11.3001078,7.03174915 11.1552172,6.66186354 10.8921197,6.38494402 C10.6287877,6.10779171 10.27753,5.95951388 9.90303401,5.95951388 L8.2363341,5.95951388 L6.00000059,7.64103611 L3.76366354,5.95951388 L2.09945623,5.95951388 C1.5448901,5.95951388 1.02365502,5.73820919 0.629775209,5.33012547 L0.617878536,5.31770217 C0.221034903,4.90000077 0.00248027943,4.34241376 0.00248027943,3.74763797 L0.00248027943,3.73995579 C0.00248027943,3.14634398 0.220577872,2.58612639 0.616601193,2.16252368 C1.01012842,1.74158645 1.53481186,1.50274031 2.09399529,1.48997159 L2.09809685,1.48987847 L10.6497279,1.48987847 L9.7492114,0.505231757 L10.2954808,0 Z M5.99999532,4.4908976 L4.55781605,5.59049775 L5.99999532,6.67489649 L7.4421863,5.59049775 L5.99999532,4.4908976 Z" id="Combined-Shape"></path>
            </g>
        </g>
    </g>
</svg>