<?xml version="1.0" encoding="UTF-8"?>
<svg width="24px" height="24px" viewBox="0 0 24 24" version="1.1" xmlns="http://www.w3.org/2000/svg" xmlns:xlink="http://www.w3.org/1999/xlink">
    <title></title>
    <g id="Icons" stroke="none" stroke-width="1" fill="none" fill-rule="evenodd">
        <g id="Icons-/-2.-Size-sm-/-Object-/-desktop" fill="#030302" fill-rule="nonzero">
            <path d="M14.9374763,17.9999714 C15.2491897,17.9999714 15.499975,17.7491862 15.499975,17.4374727 C15.499975,17.1257593 15.2491897,16.8749741 14.9374763,16.8749741 L13.2499803,16.8749741 L12.8749812,15.7499768 L17.3749705,15.7499768 C17.9960628,15.7499768 18.4999678,15.2460717 18.4999678,14.6249794 L18.4999678,7.12499732 C18.4999678,6.50390505 17.9960628,6 17.3749705,6 L6.12499732,6 C5.50390505,6 5,6.50390505 5,7.12499732 L5,14.6249794 C5,15.2460717 5.50390505,15.7499768 6.12499732,15.7499768 L10.6249866,15.7499768 L10.2499875,16.8749741 L8.56249151,16.8749741 C8.25077808,16.8749741 8,17.1257593 8,17.4374727 C8,17.7491862 8.25077808,17.9999714 8.56249151,17.9999714 L14.9374763,17.9999714 Z M16.9999714,14.2499803 L6.49999642,14.2499803 L6.49999642,7.49999642 L16.9999714,7.49999642 L16.9999714,14.2499803 Z" id="desktop"></path>
        </g>
    </g>
</svg>