<?xml version="1.0" encoding="UTF-8"?>
<svg width="24px" height="24px" viewBox="0 0 24 24" version="1.1" xmlns="http://www.w3.org/2000/svg" xmlns:xlink="http://www.w3.org/1999/xlink">
    <title></title>
    <g id="Icons" stroke="none" stroke-width="1" fill="none" fill-rule="evenodd">
        <g id="Icons-/-2.-Size-sm-/-Object-/-pficon-infrastructure" fill="#151515">
            <path d="M12.9375,7 C13.2481602,7 13.5,7.25183983 13.5,7.5625 L13.5,7.5625 L13.5,9.4375 C13.5,9.44570312 13.4988281,9.45507812 13.4988281,9.46445313 L13.4988281,9.46445313 L14.784375,10.75 L16.125,10.75 C16.3321068,10.75 16.5,10.9178932 16.5,11.125 L16.5,11.125 L16.5,12.625 C16.5,12.8321068 16.3321068,13 16.125,13 L16.125,13 L15.75,13 L15.75,13.7382812 L16.6875,13.7382812 C16.9981602,13.7382812 17.25,13.9901211 17.25,14.3007812 L17.25,14.3007812 L17.25,15.25 L17.625,15.25 C17.8321068,15.25 18,15.4178932 18,15.625 L18,15.625 L18,17.125 C18,17.3321068 17.8321068,17.5 17.625,17.5 L17.625,17.5 L16.125,17.5 C15.9178932,17.5 15.75,17.3321068 15.75,17.125 L15.75,17.125 L15.75,15.625 C15.75,15.4178932 15.9178932,15.25 16.125,15.25 L16.125,15.25 L16.5,15.25 L16.5,14.4882812 L14.25,14.4882812 L14.25,15.25 L14.625,15.25 C14.8321068,15.25 15,15.4178932 15,15.625 L15,15.625 L15,17.125 C15,17.3321068 14.8321068,17.5 14.625,17.5 L14.625,17.5 L13.125,17.5 C12.9178932,17.5 12.75,17.3321068 12.75,17.125 L12.75,17.125 L12.75,15.625 C12.75,15.4178932 12.9178932,15.25 13.125,15.25 L13.125,15.25 L13.5,15.25 L13.5,14.3007812 C13.5,13.9901211 13.7518398,13.7382812 14.0625,13.7382812 L14.0625,13.7382812 L15,13.7382812 L15,13 L14.625,13 C14.4178932,13 14.25,12.8321068 14.25,12.625 L14.25,12.625 L14.25,11.2761719 L12.9726562,9.99882812 C12.9609375,10 12.9492188,10 12.9375,10 L12.9375,10 L11.0425781,10 L9.75,11.2925781 L9.75,12.625 C9.75,12.8321068 9.58210678,13 9.375,13 L9.375,13 L9,13 L9,13.7382812 L9.9375,13.7382812 C10.2481602,13.7382812 10.5,13.9901211 10.5,14.3007812 L10.5,14.3007812 L10.5,15.25 L10.875,15.25 C11.0821068,15.25 11.25,15.4178932 11.25,15.625 L11.25,15.625 L11.25,17.125 C11.25,17.3321068 11.0821068,17.5 10.875,17.5 L10.875,17.5 L9.375,17.5 C9.16789322,17.5 9,17.3321068 9,17.125 L9,17.125 L9,15.625 C9,15.4178932 9.16789322,15.25 9.375,15.25 L9.375,15.25 L9.75,15.25 L9.75,14.4882812 L7.5,14.4882812 L7.5,15.25 L7.875,15.25 C8.08210678,15.25 8.25,15.4178932 8.25,15.625 L8.25,15.625 L8.25,17.125 C8.25,17.3321068 8.08210678,17.5 7.875,17.5 L7.875,17.5 L6.375,17.5 C6.16789322,17.5 6,17.3321068 6,17.125 L6,17.125 L6,15.625 C6,15.4178932 6.16789322,15.25 6.375,15.25 L6.375,15.25 L6.75,15.25 L6.75,14.3007812 C6.75,13.9901211 7.00183983,13.7382812 7.3125,13.7382812 L7.3125,13.7382812 L8.25,13.7382812 L8.25,13 L7.875,13 C7.66789322,13 7.5,12.8321068 7.5,12.625 L7.5,12.625 L7.5,11.125 C7.5,10.9178932 7.66789322,10.75 7.875,10.75 L7.875,10.75 L9.23085937,10.75 L10.5011719,9.4796875 C10.5011719,9.465625 10.5,9.4515625 10.5,9.4375 L10.5,9.4375 L10.5,7.5625 C10.5,7.25183983 10.7518398,7 11.0625,7 L11.0625,7 L12.9375,7 Z M12.75,7.75 L11.25,7.75 L11.25,9.25 L12.75,9.25 L12.75,7.75 Z" id="pficon-infrastructure"></path>
        </g>
    </g>
</svg>