<?xml version="1.0" encoding="UTF-8"?>
<svg width="24px" height="24px" viewBox="0 0 24 24" version="1.1" xmlns="http://www.w3.org/2000/svg" xmlns:xlink="http://www.w3.org/1999/xlink">
    <title></title>
    <g id="Icons" stroke="none" stroke-width="1" fill="none" fill-rule="evenodd">
        <g id="Icons-/-2.-Size-sm-/-Object-/-pficon-data-sink" fill="#000000">
            <path d="M11.7670268,6 L13.7142797,8.14285547 L11.7670268,10.2857109 L11.1428531,9.70411318 L12.171,8.571 L8.40452491,8.57142657 C7.9743065,8.58242209 7.5715836,8.76615856 7.27017758,9.08962259 C6.96826264,9.41362234 6.80199045,9.842622 6.80199045,10.2976038 C6.80199045,10.7609025 6.96756621,11.1867817 7.26823562,11.5056386 C7.56921306,11.8248437 7.97073061,11.9999953 8.39879277,11.9999953 L15.6034747,11.9999953 C16.9198174,11.9999953 17.994888,13.1526239 17.9999821,14.568596 C18.0024281,15.2549124 17.7546337,15.9008092 17.3022233,16.3873044 C16.8491299,16.8745094 16.2457956,17.1428485 15.603488,17.1428485 L6,17.1428485 L6,16.2857063 L15.6029925,16.2857063 C16.0316841,16.2860143 16.4337776,16.1072064 16.7357327,15.7825102 C17.0369378,15.4586176 17.2019109,15.0286805 17.200277,14.5718906 C17.1968886,13.6265566 16.4805588,12.8571375 15.6034747,12.8571375 L8.39879277,12.8571375 C7.75866827,12.8571375 7.15736963,12.59366 6.70566909,12.1146247 C6.25208016,11.6335938 6.00229018,10.9914336 6.00229018,10.3064431 C6.00229018,9.6140195 6.25158463,8.97001108 6.70424945,8.48422574 C7.15315089,8.00247165 7.75233346,7.72908347 8.39145349,7.71428438 L12.172,7.714 L11.1428531,6.58159776 L11.7670268,6 Z M16.1249921,6.21428555 C17.1588663,6.21428555 17.9999906,7.05540989 17.9999906,8.08928409 C17.9999906,9.12315828 17.1588663,9.96428262 16.1249921,9.96428262 C15.0911179,9.96428262 14.2499936,9.12315828 14.2499936,8.08928409 C14.2499936,7.05540989 15.0911179,6.21428555 16.1249921,6.21428555 Z M16.1249921,7.07160184 C15.5636443,7.07160184 15.1069616,7.5281372 15.1069616,8.08928409 C15.1069616,8.65044436 15.5636443,9.10696633 16.1249921,9.10696633 C16.6863399,9.10696633 17.1430226,8.65044436 17.1430226,8.08928409 C17.1430226,7.5281372 16.6863399,7.07160184 16.1249921,7.07160184 Z" id="Combined-Shape"></path>
        </g>
    </g>
</svg>