<?xml version="1.0" encoding="UTF-8"?>
<svg width="24px" height="24px" viewBox="0 0 24 24" version="1.1" xmlns="http://www.w3.org/2000/svg" xmlns:xlink="http://www.w3.org/1999/xlink">
    <title></title>
    <g id="Icons" stroke="none" stroke-width="1" fill="none" fill-rule="evenodd">
        <g id="Icons-/-2.-Size-sm-/-Object-/-pficon-repository" fill="#151515">
            <path d="M18,12.7058824 L18,17.2941176 L10.2352941,17.2941176 L10.2352941,12.0496324 C10.2352941,12.0496324 10.2352941,11.6470588 10.6378676,11.6470588 L13.2904412,11.6470588 C13.7007353,11.6470588 13.8926471,12.0628676 13.8926471,12.0628676 L14.0492647,12.3529412 L17.6470588,12.3529412 C17.8422794,12.3529412 18,12.5106618 18,12.7058824 L18,12.7058824 Z M9.52941176,12.0386029 C9.52941176,11.9580882 9.54154412,11.7474265 9.65404412,11.5213235 C9.83933824,11.1507353 10.2176471,10.9301471 10.6488971,10.9301471 L13.3014706,10.9301471 C13.6610294,10.9301471 14.0040441,11.08125 14.2665441,11.3558824 C14.3636029,11.4573529 14.4341912,11.5588235 14.4805147,11.6360294 L15.8823529,11.6360294 L15.8823529,9.88235294 C15.8823529,9.68713235 15.7246324,9.52941176 15.5294118,9.52941176 L11.9316176,9.52941176 L11.775,9.23933824 C11.775,9.23933824 11.5830882,8.82352941 11.1727941,8.82352941 L8.52022059,8.82352941 C8.11764706,8.82352941 8.11764706,9.22610294 8.11764706,9.22610294 L8.11764706,14.4705882 L9.52941176,14.4705882 L9.52941176,12.0386029 Z M7.41176471,11.6470588 L6,11.6470588 L6,6.40257353 C6,6.40257353 6,6 6.40257353,6 L9.05514706,6 C9.46544118,6 9.65735294,6.41580882 9.65735294,6.41580882 L9.81397059,6.70588235 L13.4117647,6.70588235 C13.6069853,6.70588235 13.7647059,6.86360294 13.7647059,7.05882353 L13.7647059,8.82352941 L12.3518382,8.82352941 C12.3055147,8.74632353 12.2349265,8.62279412 12.1378676,8.52132353 C11.8753676,8.24669118 11.5323529,8.09558824 11.1727941,8.09558824 L8.52022059,8.09558824 C8.09007353,8.09558824 7.72169118,8.31617647 7.53639706,8.68676471 C7.42389706,8.91176471 7.41176471,9.12352941 7.41176471,9.20404412 L7.41176471,11.6470588 Z" id="pficon-repository"></path>
        </g>
    </g>
</svg>