<?xml version="1.0" encoding="UTF-8"?>
<svg width="24px" height="24px" viewBox="0 0 24 24" version="1.1" xmlns="http://www.w3.org/2000/svg" xmlns:xlink="http://www.w3.org/1999/xlink">
    <title></title>
    <g id="Icons" stroke="none" stroke-width="1" fill="none" fill-rule="evenodd">
        <g id="Icons-/-2.-Size-sm-/-Object-/-pficon-domain" fill="#151515">
            <path d="M12.375,11.9988281 C12.5797977,11.9994017 12.7460656,12.1636274 12.7499327,12.3676341 L12.75,12.3738281 L12.75,17.6238281 C12.7494264,17.8286258 12.5852007,17.9948938 12.3811941,17.9987607 L12.375,17.9988281 L10.125,17.9988281 C9.92020234,17.9982545 9.75393438,17.8340289 9.75006735,17.6300222 L9.75,17.6238281 L9.75,12.3738281 C9.75057357,12.1690305 9.91479929,12.0027625 10.1188059,11.9988955 L10.125,11.9988281 L12.375,11.9988281 Z M14.25,12.75 L14.25,17.25 L13.5,17.25 L13.5,12.75 L14.25,12.75 Z M12,16.5 L10.5,16.5 L10.5,17.25 L12,17.25 L12,16.5 Z M17.25,12.0128906 L17.25,12.0140625 C17.25,13.7976563 16.3605469,15.3738281 15,16.3230469 L15,16.3230469 L15,15.3679688 C15.0621094,15.3117188 15.121875,15.2554688 15.1816406,15.1957031 C16.0268462,14.3522853 16.5012672,13.2069277 16.5,12.0128906 L16.5,12.0128906 L17.25,12.0128906 Z M7.75546875,10.5117188 C7.1802467,12.1472016 7.59344389,13.9676382 8.81835938,15.1945313 C8.87695312,15.2542969 8.93789062,15.3117188 9,15.3667969 L9,15.3667969 L9,16.321875 C7.63945313,15.3726562 6.74999769,13.7964844 6.74999769,12.0128906 C6.74966278,11.5045911 6.82308397,10.9989322 6.96796875,10.5117188 L6.96796875,10.5117188 L7.75546875,10.5117188 Z M12.0011719,14.25 L10.5,14.25 L10.5,15.75 L12.0011719,15.75 L12.0011719,14.25 Z M12,12.75 L11.25,12.75 L11.25,13.5 L12,13.5 L12,12.75 Z M16.125,6 C16.3300357,6 16.4966382,6.16455214 16.4999498,6.36879869 L16.5,6.375 L16.5,10.7578125 C16.5,10.9628482 16.3354479,11.1294507 16.1312013,11.1328125 L16.125,11.1328125 L13.125,11.1328125 C12.9199643,11.1328125 12.7533618,10.9682604 12.7500502,10.7640138 L12.75,10.7578125 L12.75,6.375 C12.75,6.16996429 12.9145521,6.00336179 13.1187987,6 L13.125,6 L16.125,6 Z M18,6.75 L18,10.5 L17.25,10.5 L17.25,6.75 L18,6.75 Z M15.75,9 L13.5,9 L13.5,10.125 L15.75,10.125 L15.75,9 Z M8.625,6 C8.82979766,6.00057358 8.99606562,6.16479929 8.99993265,6.36880593 L9,6.375 L9,9.375 C8.99942643,9.57979766 8.83520071,9.74606562 8.63119407,9.74993265 L8.625,9.75 L6.375,9.75 C6.17020234,9.74942643 6.00393439,9.58520071 6.00006735,9.38119407 L6,9.375 L6,6.375 C6.00057358,6.17020234 6.16479929,6.00393439 6.36880593,6.00006735 L6.375,6 L8.625,6 Z M8.25,8.25 L6.75,8.25 L6.75,9 L8.25,9 L8.25,8.25 Z M12,6.76171875 L12,7.51171875 C11.3981573,7.5106623 10.8022868,7.63103214 10.2480469,7.865625 C10.0771549,7.93827857 9.91083312,8.02124379 9.75,8.1140625 L9.75,8.1140625 L9.75,7.26796875 C10.4532681,6.93471465 11.2217685,6.76180204 12,6.76171875 L12,6.76171875 Z M15.75,6.75 L14.625,6.75 L14.625,7.875 L15.75,7.875 L15.75,6.75 Z M8.25,6.75 L7.5,6.75 L7.5,7.5 L8.25,7.5 L8.25,6.75 Z" id="pficon-domain"></path>
        </g>
    </g>
</svg>