<?xml version="1.0" encoding="UTF-8"?>
<svg width="24px" height="24px" viewBox="0 0 24 24" version="1.1" xmlns="http://www.w3.org/2000/svg" xmlns:xlink="http://www.w3.org/1999/xlink">
    <title></title>
    <g id="Icons" stroke="none" stroke-width="1" fill="none" fill-rule="evenodd">
        <g id="Icons-/-2.-Size-sm-/-Object-/-pficon-cluster" fill="#151515">
            <path d="M17.8722656,9.12746542 C17.7867187,9.04191854 17.6859375,8.99973104 17.5710937,8.99973104 L6.42890625,8.99973104 C6.31171875,8.99973104 6.21328125,9.04191854 6.12773438,9.12746542 C6.0421875,9.21301229 6,9.31379354 6,9.42863729 L6,10.8196529 C6,10.9368404 6.0421875,11.0352779 6.12539062,11.1219967 C6.2109375,11.2075435 6.309375,11.249731 6.4265625,11.249731 L17.5710937,11.249731 C17.6882812,11.249731 17.7867187,11.2075435 17.8722656,11.1219967 C17.9578125,11.0364498 18,10.9380123 18,10.8208248 L18,9.42863729 C18,9.31144979 17.9578125,9.21301229 17.8722656,9.12746542 Z M7.5,10.499731 L6.75,10.499731 L6.75,9.74973104 L7.5,9.74973104 L7.5,10.499731 Z M9,10.499731 L8.25,10.499731 L8.25,9.74973104 L9,9.74973104 L9,10.499731 Z M10.5,10.499731 L9.75,10.499731 L9.75,9.74973104 L10.5,9.74973104 L10.5,10.499731 Z M12,10.499731 L11.25,10.499731 L11.25,9.74973104 L12,9.74973104 L12,10.499731 Z M17.25,10.499731 L16.5,10.499731 L16.5,9.74973104 L17.25,9.74973104 L17.25,10.499731 Z M6,8.12316854 C6,8.01535604 6.0140625,8.00012167 6.1125,7.90402792 C6.1125,7.90402792 7.77058594,6.26129354 7.89375,6.11727011 C8.01691406,5.97324667 8.17382812,6.00242636 8.17382812,6.00242636 L15.8510156,6.00242636 C15.8510156,6.00242636 15.9892969,5.98602011 16.1145703,6.12195761 C16.2376172,6.25777792 17.8769531,7.90320761 17.8769531,7.90320761 C17.9753906,8.00164511 18,8.01687948 18,8.12352011 C18,8.23602011 17.8628906,8.25008261 17.7269531,8.25008261 L6.25898437,8.25008261 C6.1265625,8.25090292 6,8.23098104 6,8.12316854 Z M17.8722656,15.1274654 C17.7867187,15.0419185 17.6859375,14.999731 17.5710937,14.999731 L6.42890625,14.999731 C6.31171875,14.999731 6.21328125,15.0419185 6.12773438,15.1274654 C6.0421875,15.2130123 6,15.3137935 6,15.4286373 L6,16.8196529 C6,16.9368404 6.0421875,17.0352779 6.12539062,17.1219967 C6.2109375,17.2075436 6.309375,17.2497311 6.4265625,17.2497311 L17.5710937,17.2497311 C17.6882812,17.2497311 17.7867187,17.2075436 17.8722656,17.1219967 C17.9578125,17.0364498 18,16.9380123 18,16.8208248 L18,15.4286373 C18,15.3114498 17.9578125,15.2130123 17.8722656,15.1274654 Z M7.5,16.499731 L6.75,16.499731 L6.75,15.749731 L7.5,15.749731 L7.5,16.499731 Z M9,16.499731 L8.25,16.499731 L8.25,15.749731 L9,15.749731 L9,16.499731 Z M10.5,16.499731 L9.75,16.499731 L9.75,15.749731 L10.5,15.749731 L10.5,16.499731 Z M12,16.499731 L11.25,16.499731 L11.25,15.749731 L12,15.749731 L12,16.499731 Z M17.25,16.499731 L16.5,16.499731 L16.5,15.749731 L17.25,15.749731 L17.25,16.499731 Z M17.8722656,12.1274654 C17.7867187,12.0419185 17.6859375,11.999731 17.5710937,11.999731 L6.42890625,11.999731 C6.31171875,11.999731 6.21328125,12.0419185 6.12773438,12.1274654 C6.0421875,12.2130123 6,12.3137935 6,12.4286373 L6,13.8196529 C6,13.9368404 6.0421875,14.0352779 6.12539062,14.1219967 C6.2109375,14.2075435 6.309375,14.249731 6.4265625,14.249731 L17.5710937,14.249731 C17.6882812,14.249731 17.7867187,14.2075435 17.8722656,14.1219967 C17.9578125,14.0364498 18,13.9380123 18,13.8208248 L18,12.4286373 C18,12.3114498 17.9578125,12.2130123 17.8722656,12.1274654 Z M7.5,13.499731 L6.75,13.499731 L6.75,12.749731 L7.5,12.749731 L7.5,13.499731 Z M9,13.499731 L8.25,13.499731 L8.25,12.749731 L9,12.749731 L9,13.499731 Z M10.5,13.499731 L9.75,13.499731 L9.75,12.749731 L10.5,12.749731 L10.5,13.499731 Z M12,13.499731 L11.25,13.499731 L11.25,12.749731 L12,12.749731 L12,13.499731 Z M17.25,13.499731 L16.5,13.499731 L16.5,12.749731 L17.25,12.749731 L17.25,13.499731 Z" id="pficon-cluster"></path>
        </g>
    </g>
</svg>