<?xml version="1.0" encoding="UTF-8"?>
<svg width="24px" height="24px" viewBox="0 0 24 24" version="1.1" xmlns="http://www.w3.org/2000/svg" xmlns:xlink="http://www.w3.org/1999/xlink">
    <title></title>
    <g id="Icons" stroke="none" stroke-width="1" fill="none" fill-rule="evenodd">
        <g id="Icons-/-2.-Size-sm-/-Object-/-pficon-monitoring" fill="#151515">
            <path d="M18,7 L18,15.4695956 L13.0588235,15.4695956 L13.0588235,16.1764706 L15.1764706,16.1826471 L15.1764706,16.8823529 L8.82352941,16.8823529 L8.82352941,16.1826471 L10.9411765,16.1764706 L10.9411765,15.4695956 L6,15.4695956 L6,7 L18,7 Z M16.5882353,8.41176471 L7.41176471,8.41176471 L7.41176471,14.0588235 L16.5882353,14.0588235 L16.5882353,8.41176471 Z M15.3565809,9.61904412 C15.5847794,9.84735294 15.5633824,10.1610294 15.3565809,10.3677206 L13.2573529,12.4672794 C13.0506076,12.674011 12.7154218,12.674011 12.5086765,12.4672794 L11.1358456,11.0945588 L9.37433824,12.8566176 C9.16711245,13.0604954 8.83425654,13.0591401 8.62869794,12.8535815 C8.42313934,12.6480229 8.42178399,12.315167 8.62566176,12.1079412 L10.7615074,9.97154412 L10.7692279,9.96371324 C10.8685154,9.86440312 11.0031917,9.80860939 11.1436213,9.80860939 C11.284051,9.80860939 11.4187273,9.86440312 11.5180147,9.96371324 L12.8823529,11.3441544 L14.6079044,9.61904412 C14.8147059,9.41224265 15.1283824,9.39073529 15.3565809,9.61904412 Z" id="pficon-monitoring"></path>
        </g>
    </g>
</svg>