<?xml version="1.0" encoding="UTF-8"?>
<svg width="24px" height="24px" viewBox="0 0 24 24" version="1.1" xmlns="http://www.w3.org/2000/svg" xmlns:xlink="http://www.w3.org/1999/xlink">
    <title></title>
    <g id="Icons" stroke="none" stroke-width="1" fill="none" fill-rule="evenodd">
        <g id="Icons-/-2.-Size-sm-/-Object-/-pficon-vcenter" fill="#151515">
            <path d="M16.5,6 L11.25,6 C10.4214844,6 9.75,6.67148438 9.75,7.5 L9.75,9.75 L7.5,9.75 C6.67148438,9.75 6,10.4214844 6,11.25 L6,16.5 C6,17.3285156 6.67148438,18 7.5,18 L12.75,18 C13.5785156,18 14.25,17.3285156 14.25,16.5 L14.25,14.25 L16.5,14.25 C17.3285156,14.25 18,13.5785156 18,12.75 L18,7.5 C18,6.67148438 17.3285156,6 16.5,6 L16.5,6 Z M12.75,12.75 L12.75,16.5 L7.5,16.5 L7.5,11.25 L11.25,11.25 L11.25,7.5 L16.5,7.5 L16.5,12.75 L12.75,12.75 Z M11.4375,12 C11.7480469,12 12,11.7480469 12,11.4375 L12,8.625 C12,8.41757813 12.1675781,8.25 12.375,8.25 L15.375,8.25 C15.5824219,8.25 15.75,8.41757813 15.75,8.625 L15.75,11.625 C15.75,11.8324219 15.5824219,12 15.375,12 L12.5625,12 C12.2519531,12 12,12.2519531 12,12.5625 L12,15.375 C12,15.5824219 11.8324219,15.75 11.625,15.75 L8.625,15.75 C8.41757813,15.75 8.25,15.5824219 8.25,15.375 L8.25,12.375 C8.25,12.1675781 8.41757813,12 8.625,12 L11.4375,12 Z" id="pficon-vcenter"></path>
        </g>
    </g>
</svg>