<?xml version="1.0" encoding="UTF-8"?>
<svg width="24px" height="24px" viewBox="0 0 24 24" version="1.1" xmlns="http://www.w3.org/2000/svg" xmlns:xlink="http://www.w3.org/1999/xlink">
    <title></title>
    <g id="Icons" stroke="none" stroke-width="1" fill="none" fill-rule="evenodd">
        <g id="Icons-/-2.-Size-sm-/-Object-/-pficon-replicator" fill="#151515">
            <path d="M18,12.5258224 L18,14.5883224 C18,14.8271382 17.8657895,15.0452303 17.6526316,15.1527961 L16.7348684,15.6106908 L16.7348684,15.6047697 C16.9243421,15.4912829 17.0417763,15.2860197 17.0417763,15.0629934 L17.0417763,13.0794408 C17.0417763,12.840625 16.9065789,12.6215461 16.6924342,12.5149671 L14.5164474,11.4254934 L14.5164474,9.053125 C14.5164474,8.81430921 14.38125,8.59523026 14.1671053,8.48865132 L12.2723684,7.54128289 C12.1125,7.46134868 11.9279605,7.45345395 11.7631579,7.51759868 L12.6651316,7.06661184 C12.8427632,6.97779605 13.0519737,6.97779605 13.2296053,7.06661184 L15.1243421,8.01398026 C15.3384868,8.12055921 15.4736842,8.33963816 15.4736842,8.57845395 L15.4736842,10.871875 L17.6506579,11.9603618 C17.8648026,12.0679276 18,12.2870066 18,12.5258224 L18,12.5258224 Z M15.7549342,12.9787829 L13.5789474,11.8893092 L13.5789474,9.51694079 C13.5789474,9.278125 13.44375,9.05904605 13.2296053,8.95246711 L11.3348684,8.00509868 C11.1572368,7.91628289 10.9480263,7.91628289 10.7703947,8.00509868 L8.87565789,8.95246711 C8.66151316,9.05904605 8.52631579,9.278125 8.52631579,9.51694079 L8.52631579,11.8893092 L6.34934211,12.9787829 C6.13519737,13.0853618 6,13.3044408 6,13.5432566 L6,15.5258224 C6,15.7646382 6.13519737,15.9837171 6.34934211,16.0902961 L8.24407895,17.0376645 C8.33289474,17.0820724 8.42960526,17.1047697 8.52631579,17.1047697 C8.62302632,17.1047697 8.71973684,17.0820724 8.80855263,17.0376645 L11.0526316,15.915625 L13.2967105,17.0376645 C13.3855263,17.0820724 13.4822368,17.1047697 13.5789474,17.1047697 C13.6756579,17.1047697 13.7723684,17.0830592 13.8611842,17.0386513 L15.7569079,16.0912829 C15.9700658,15.9837171 16.1042763,15.765625 16.1042763,15.5268092 L16.1042763,13.5432566 C16.1042763,13.3044408 15.9690789,13.0853618 15.7549342,12.9787829 Z M6.71348684,13.5146382 L8.52631579,12.6008224 L10.3460526,13.5106908 L8.52631579,14.4205592 L6.71348684,13.5146382 Z M10.4210526,15.5297697 L8.52631579,16.4771382 L8.52631579,15.1271382 L10.4210526,14.1797697 L10.4210526,15.5297697 Z M9.23980263,9.48832237 L11.0526316,8.57450658 L12.8723684,9.47648026 L11.0526316,10.3942434 L9.23980263,9.48832237 Z M11.0526316,11.1008224 L12.9473684,10.1534539 L12.9473684,11.5044408 L11.0526316,12.4518092 L11.0526316,11.1008224 Z M11.7661184,13.5146382 L13.5789474,12.6008224 L15.4065789,13.5067434 L13.5789474,14.4205592 L11.7661184,13.5146382 Z M15.4736842,15.5297697 L13.5789474,16.4771382 L13.5789474,15.1271382 L15.4736842,14.1797697 L15.4736842,15.5297697 Z" id="pficon-replicator"></path>
        </g>
    </g>
</svg>