<?xml version="1.0" encoding="UTF-8"?>
<svg width="24px" height="24px" viewBox="0 0 24 24" version="1.1" xmlns="http://www.w3.org/2000/svg" xmlns:xlink="http://www.w3.org/1999/xlink">
    <title></title>
    <g id="Icons" stroke="none" stroke-width="1" fill="none" fill-rule="evenodd">
        <g id="Icons-/-2.-Size-sm-/-Object-/-pficon-server-group" fill="#151515">
            <path d="M6.375,9.00000997 C6.16757813,9.00000997 6,9.16758809 6,9.37500997 L6,17.62501 C6,17.8324319 6.16757813,18.00001 6.375,18.00001 L14.625,18.00001 C14.8324219,18.00001 15,17.8324319 15,17.62501 L15,9.00000997 L6.375,9.00000997 Z M13.5,16.12501 L9.75,16.12501 L9.75,15.00001 L13.5,15.00001 L13.5,16.12501 Z M13.5,13.87501 L7.5,13.87501 L7.5,12.75001 L13.5,12.75001 L13.5,13.87501 Z M13.5,11.62501 L11.25,11.62501 L11.25,10.50001 L13.5,10.50001 L13.5,11.62501 Z M8.17382812,6.00000331 C8.17382812,6.00000331 7.99570313,5.99766622 7.89375,6.11719747 C7.77070312,6.2613381 6.1125,7.90430684 6.1125,7.90430684 C6.0140625,8.00040059 6,8.01563497 6,8.12344747 C6,8.23125997 6.1265625,8.25118184 6.25898437,8.25000997 L14.8125,8.25000997 L12.5625,6.00000331 L8.17382812,6.00000331 Z M17.625,9.00000997 L15.75,9.00000997 L15.75,17.25001 L17.625,17.25001 C17.8324219,17.25001 18,17.0824318 18,16.87501 L18,9.37500997 C18,9.16758809 17.8324219,9.00000997 17.625,9.00000997 L17.625,9.00000997 Z M17.7269531,8.24883809 C17.8628906,8.24883809 18,8.23477559 18,8.12227559 C18,8.01563497 17.9753906,8.00040059 17.8769531,7.90196309 C17.8769531,7.90196309 16.2375,6.25547872 16.1144531,6.11954122 C16.0019531,6.00000997 15.8507813,6.00000997 15.8507813,6.00000997 L13.5,6.00000997 L15.75,8.25000997 L17.7269531,8.25000997 L17.7269531,8.24883809 Z" id="pficon-server-group"></path>
        </g>
    </g>
</svg>