<?xml version="1.0" encoding="UTF-8"?>
<svg width="24px" height="24px" viewBox="0 0 24 24" version="1.1" xmlns="http://www.w3.org/2000/svg" xmlns:xlink="http://www.w3.org/1999/xlink">
    <title></title>
    <g id="Icons" stroke="none" stroke-width="1" fill="none" fill-rule="evenodd">
        <g id="Icons-/-2.-Size-sm-/-Object-/-pficon-data-source" fill="#000000">
            <path d="M16.0530116,6 L17.9999973,8.14285619 L16.0530116,10.2857124 L15.4285699,9.70438227 L16.456,8.572 L8.39701768,8.57020867 C7.96898216,8.57020867 7.56696894,8.74873538 7.26502711,9.07293613 C6.96355403,9.39662795 6.79842018,9.82639115 6.80005411,10.2830606 C6.80345589,11.2276852 7.51985289,11.9999973 8.39703107,11.9999973 L15.6029475,11.9999973 C16.2432731,11.9999973 16.8447327,12.2598052 17.2965405,12.7384791 C17.7501698,13.219095 18,13.8606661 18,14.5450274 C18,15.2368887 17.7506787,15.8814867 17.2979869,16.3688927 C16.8481478,16.8532318 16.2483892,17.1280531 15.6091886,17.142745 L9.70062267,17.1426933 C9.50633424,17.9708204 8.761529,18.5892801 7.87499916,18.5892801 C6.84112462,18.5892801 6,17.7481555 6,16.7142809 C6,15.6804064 6.84112462,14.8392818 7.87499916,14.8392818 C8.761529,14.8392818 9.50633424,15.4577414 9.70062267,16.2858685 L15.5965055,16.2857097 C16.025867,16.2746338 16.4284293,16.0908169 16.7304515,15.7656117 C17.0332103,15.4396297 17.1999379,15.0092906 17.1999379,14.5538667 C17.1999379,14.0908759 17.0343219,13.6652778 16.733572,13.3466485 C16.4325677,13.0277513 16.0310366,12.8571398 15.6029475,12.8571398 L8.39703107,12.8571398 C7.08039327,12.8571398 6.00001875,11.7053546 6.00001875,10.2863418 C6.00001875,9.60267696 6.2455365,8.95491832 6.69829522,8.46879801 C7.10612763,8.030904 7.63560101,7.77006363 8.20562066,7.72227449 L8.39762036,7.71428495 L16.46,7.716 L15.4285699,6.5813301 L16.0530116,6 Z M7.87499916,15.6964242 C7.31374495,15.6964242 6.85714247,16.1530401 6.85714247,16.7142809 C6.85714247,17.2755218 7.31374495,17.7321376 7.87499916,17.7321376 C8.43625338,17.7321376 8.89285585,17.2755218 8.89285585,16.7142809 C8.89285585,16.1530401 8.43625338,15.6964242 7.87499916,15.6964242 Z" id="Combined-Shape"></path>
        </g>
    </g>
</svg>