<?xml version="1.0" encoding="UTF-8"?><svg version="1.1" width="97px" height="97px" viewBox="0 0 97.0 97.0" xmlns="http://www.w3.org/2000/svg" xmlns:xlink="http://www.w3.org/1999/xlink"><defs><clipPath id="i0"><path d="M48.5,0 C57.235216,0 65.3185484,2.18380476 72.75,6.55141129 C80.1814516,10.9190178 86.0809822,16.8185484 90.4485887,24.25 C94.8161952,31.6814516 97,39.764784 97,48.5 C97,57.235216 94.8161952,65.3185484 90.4485887,72.75 C86.0809822,80.1814516 80.1814516,86.0809822 72.75,90.4485887 C65.3185484,94.8161952 57.235216,97 48.5,97 C39.764784,97 31.6814516,94.8161952 24.25,90.4485887 C16.8185484,86.0809822 10.9190178,80.1814516 6.55141129,72.75 C2.18380476,65.3185484 0,57.235216 0,48.5 C0,39.764784 2.18380476,31.6814516 6.55141129,24.25 C10.9190178,16.8185484 16.8185484,10.9190178 24.25,6.55141129 C31.6814516,2.18380476 39.764784,0 48.5,0 Z M72.2610887,28.3568548 C71.4136435,28.3568548 70.6639775,28.6827967 70.0120968,29.3346774 L40.6774194,58.6693548 L26.9879032,44.9798387 C26.3360225,44.327958 25.5863565,44.0020161 24.7389113,44.0020161 C23.891466,44.0020161 23.1418001,44.327958 22.4899194,44.9798387 L18.1875,49.4778226 C17.5356193,49.999329 17.2096774,50.7163969 17.2096774,51.6290323 C17.2096774,52.5416677 17.5356193,53.2587356 18.1875,53.7802419 L38.5262097,74.1189516 C39.047716,74.7708323 39.764784,75.0967742 40.6774194,75.0967742 C41.5900548,75.0967742 42.3071227,74.7708323 42.828629,74.1189516 L78.8125,38.1350806 C79.4643807,37.6135743 79.7903226,36.8965064 79.7903226,35.983871 C79.7903226,35.0712356 79.4643807,34.3541677 78.8125,33.8326613 L74.5100806,29.3346774 C73.8581999,28.6827967 73.108534,28.3568548 72.2610887,28.3568548 Z"></path></clipPath></defs><g clip-path="url(#i0)"><polygon points="0,0 97,0 97,97 0,97 0,0" stroke="none" fill="#3E8634"></polygon></g></svg>