<?xml version="1.0" encoding="UTF-8"?><svg version="1.1" width="125px" height="87px" viewBox="0 0 125.0 87.0" xmlns="http://www.w3.org/2000/svg" xmlns:xlink="http://www.w3.org/1999/xlink"><defs><clipPath id="i0"><path d="M18.75,0 L19.3789872,0.00517091082 C24.6036929,0.0913527578 29.4070522,1.25480769 33.7890625,3.49553571 C36.5234375,4.91964187 40.234375,7.57366071 44.921875,11.4575893 C49.609375,15.3415179 53.515625,18.1897331 56.640625,20.0022321 C61.71875,22.9799097 67.3177093,25.1160704 73.4375,26.4107143 L33.203125,26.4107143 L33.5194989,26.6289846 C34.5633177,27.3779514 35.4995256,28.3409082 36.328125,29.5178571 L92.1875,29.5178571 L93.1067642,29.5242973 C97.0837651,29.5801124 100.976562,29.9987254 104.785156,30.7801339 C108.886719,31.6216508 112.565103,32.7544653 115.820312,34.1785714 C118.684897,35.6026776 120.930991,37.1238849 122.558594,38.7421875 C124.186197,40.3604901 125,41.9464286 125,43.5 C125,45.0535714 124.186197,46.6395099 122.558594,48.2578125 C120.930991,49.8761151 118.684897,51.3973224 115.820312,52.8214286 C112.565103,54.2455347 108.886719,55.3783492 104.785156,56.2198661 C100.683594,57.0613829 96.484375,57.4821429 92.1875,57.4821429 L36.328125,57.4821429 L36.0763169,57.8288078 C35.2261958,58.9629583 34.2684659,59.8831169 33.203125,60.5892857 L73.4375,60.5892857 L72.6422201,60.7629246 C66.8318279,62.0712734 61.497962,64.1495545 56.640625,66.9977679 C53.515625,68.8102669 49.609375,71.6584821 44.921875,75.5424107 C40.234375,79.4263393 36.5234375,82.0803581 33.7890625,83.5044643 C29.2317718,85.8348214 24.21875,87 18.75,87 L18.75,62.1428571 L15.625,62.1428571 L15.625,87 L15.3262529,86.9946854 C12.8511396,86.9061096 10.7371785,85.7103356 8.984375,83.4073661 C7.16145933,81.0122778 6.25,78.0669643 6.25,74.5714286 L6.25,62.1428571 L5.9559241,62.140215 C1.98530896,62.0679968 0,60.5153061 0,57.4821429 L0,49.7142857 L0.00354308555,49.4949891 C0.100387423,46.534044 2.18254065,45.0535714 6.25,45.0535714 L6.25,41.9464286 L5.9559241,41.9437864 C1.98530896,41.8715683 0,40.3188776 0,37.2857143 L0,29.5178571 L0.00354308555,29.2985605 C0.100387423,26.3376154 2.18254065,24.8571429 6.25,24.8571429 L6.25,12.4285714 L6.25474718,11.9944952 C6.32753733,8.68854818 7.23741415,5.88792688 8.984375,3.59263393 C10.8072907,1.19754563 13.0208343,0 15.625,0 L15.625,24.8571429 L18.75,24.8571429 L18.75,0 Z M95.3125,35.7321429 C94.921875,35.7321429 94.5638031,35.8939722 94.2382812,36.2176339 C93.9127594,36.5412956 93.75,36.8973214 93.75,37.2857143 L93.75,49.7142857 L93.7576294,49.8584158 C93.793233,50.1911793 93.9534497,50.4991621 94.2382812,50.7823661 C94.5638031,51.1060278 94.921875,51.2678571 95.3125,51.2678571 C97.265625,51.2678571 98.6328125,49.9732133 99.4140625,47.3839286 C100.195312,44.7946438 100.195312,42.2053562 99.4140625,39.6160714 C98.6328125,37.0267867 97.265625,35.7321429 95.3125,35.7321429 Z"></path></clipPath></defs><g clip-path="url(#i0)"><polygon points="0,0 125,0 125,87 0,87 0,0" stroke="none" fill="#696E73"></polygon></g></svg>