<?xml version="1.0" encoding="UTF-8"?><svg version="1.1" width="24px" height="24px" viewBox="0 0 24.0 24.0" xmlns="http://www.w3.org/2000/svg" xmlns:xlink="http://www.w3.org/1999/xlink"><defs><clipPath id="i0"><path d="M12,0 C18.6267188,0 24,5.37328125 24,12 C24,18.6267188 18.6267188,24 12,24 C5.37328125,24 0,18.6267188 0,12 C0,5.37328125 5.37328125,0 12,0 Z M12.1928906,4.76367188 C11.8607812,4.76367188 11.5661719,4.94039063 11.4321094,5.26734375 L6.19289062,17.8767187 L7.98210937,17.8767187 L10.0546875,12.6796875 L16.2536719,17.6786719 C16.5,17.8821094 16.6767187,17.9732812 16.9178906,17.9732812 C17.3838281,17.9732812 17.7911719,17.6196094 17.7911719,17.1161719 C17.7963281,17.0303906 17.775,16.9017188 17.7161719,16.7625 L12.9321094,5.26734375 C12.7982812,4.935 12.525,4.76367188 12.1928906,4.76367188 Z M12.2036719,7.32867188 L15.3107812,15 L10.6232812,11.3088281 L12.2036719,7.32867188 Z"></path></clipPath></defs><g clip-path="url(#i0)"><polygon points="0,0 24,0 24,24 0,24 0,0" stroke="none" fill="#151515"></polygon></g></svg>