<?xml version="1.0" encoding="UTF-8"?><svg version="1.1" width="24px" height="24px" viewBox="0 0 24.0 24.0" xmlns="http://www.w3.org/2000/svg" xmlns:xlink="http://www.w3.org/1999/xlink"><defs><clipPath id="i0"><path d="M12.3562022,13.0968621 L18.5436875,17.048406 L12.3562022,20.9999499 L6.16871698,17.048406 L12.3562022,13.0968621 Z M6.20153856,0 L12.3937388,3.95154392 L6.20625351,7.90308785 L12.3937388,11.8546775 L6.20625351,15.8062215 L0,11.817141 L6.20153856,7.86559709 L0,3.95154392 L6.20153856,0 Z M18.5484024,0 L24.749941,3.95154392 L18.5484024,7.90308785 L24.749941,11.8499626 L18.5484024,15.8015065 L12.3937388,11.817141 L18.581224,7.86559709 L12.3937388,3.94687475 L18.5484024,0 Z"></path></clipPath></defs><g transform="translate(0.0 2.0)"><g clip-path="url(#i0)"><polygon points="0,0 24.749941,0 24.749941,20.9999499 0,20.9999499 0,0" stroke="none" fill="#151515"></polygon></g></g></svg>