<?xml version="1.0" encoding="UTF-8"?><svg version="1.1" width="24px" height="24px" viewBox="0 0 24.0 24.0" xmlns="http://www.w3.org/2000/svg" xmlns:xlink="http://www.w3.org/1999/xlink"><defs><clipPath id="i0"><path d="M8.26403364,0 C8.9765411,0.8578013 9.8343424,1.85155809 10.4437159,2.26404795 C11.4374727,2.92029638 12.4358987,3.17810827 13.4765304,3.8343567 C14.1093414,4.22340912 17.9999571,6.97497422 17.9999571,12.239015 C17.9999571,17.4890025 13.8515295,20.9577442 9.08434419,20.9577442 C4.30310559,20.9577442 0,17.1936999 0,12.0749529 C0,6.96559008 3.9843655,4.22340912 4.72497958,3.8343567 C5.60154914,3.36089287 6.23436014,3.11718007 7.2327861,2.32030697 C7.72497243,1.93120877 8.13746229,1.37342507 8.26403364,0 Z M13.5937176,19.096802 C13.7906013,18.8999183 13.6827982,18.4827593 13.3968339,18.6983655 C12.9983974,18.9936681 12.1077745,19.3546139 10.8421525,19.3546139 C9.22496885,19.3546139 8.42809575,18.731187 8.42809575,18.731187 C8.13746229,18.731187 7.89841867,19.0686954 8.12340898,19.2936857 C9.37030847,20.4421205 12.6515506,20.0390147 13.5937176,19.096802 Z M12.7640229,16.6921294 C12.3984079,16.4530858 11.4468569,16.4624241 11.0390362,16.6312012 C10.7343494,16.7577725 9.70777104,17.4186902 9.98902037,17.8030734 C10.1015384,17.9577514 10.2327789,17.8640016 10.5609032,17.5827523 C10.8984115,17.3108871 11.1234018,17.0671285 11.8124718,17.0671285 C12.9983974,17.0671285 12.660889,17.9999571 13.0546564,17.8030734 C13.5187361,17.5733681 12.9562374,16.8233699 12.7640229,16.6921294 Z M7.19529535,12.1593185 C4.08278446,12.1780868 2.94844878,15.8437122 4.76718529,17.0905659 C7.44843805,18.9046333 10.8796433,15.0796149 12.3280956,15.1218206 C13.2421559,15.1546422 14.6624559,17.3952527 15.3749633,17.4421276 C17.2077532,17.5968056 18.3983936,12.4733895 16.1155774,12.4733895 C15.1780797,12.4733895 13.2796467,14.4186973 12.2812207,14.4327506 C11.1234018,14.4561881 9.51560231,12.1358811 7.19529535,12.1593185 Z"></path></clipPath></defs><g transform="translate(3.0 2.0)"><g clip-path="url(#i0)"><polygon points="0,0 17.9999571,0 17.9999571,20.9577442 0,20.9577442 0,0" stroke="none" fill="#151515"></polygon></g></g></svg>