<?xml version="1.0" encoding="UTF-8"?><svg version="1.1" width="24px" height="24px" viewBox="0 0 24.0 24.0" xmlns="http://www.w3.org/2000/svg" xmlns:xlink="http://www.w3.org/1999/xlink"><defs><clipPath id="i0"><path d="M18.7499553,0 C19.9919567,0 20.9999499,1.0079932 20.9999499,2.24999464 L20.9999499,18.7499553 C20.9999499,19.9919567 19.9919567,20.9999499 18.7499553,20.9999499 L12.3163769,20.9999499 L12.3163769,13.8604558 L15.0248207,13.8604558 L15.5404445,10.499975 L12.3163769,10.499975 L12.3163769,8.31795807 C12.3163769,7.39872504 12.766861,6.50247168 14.2110562,6.50247168 L15.6768578,6.50247168 L15.6768578,3.6431035 C15.6768578,3.6431035 14.3465082,3.41623636 13.0743402,3.41623636 C10.4179439,3.41623636 8.68357305,5.02545494 8.68357305,7.93874755 L8.68357305,10.499975 L5.73045509,10.499975 L5.73045509,13.8604558 L8.68357305,13.8604558 L8.68357305,20.9999499 L2.24999464,20.9999499 C1.0079932,20.9999499 0,19.9919567 0,18.7499553 L0,2.24999464 C0,1.0079932 1.0079932,0 2.24999464,0 Z"></path></clipPath></defs><g transform="translate(2.0 2.0)"><g clip-path="url(#i0)"><polygon points="0,0 20.9999499,0 20.9999499,20.9999499 0,20.9999499 0,0" stroke="none" fill="#151515"></polygon></g></g></svg>