<?xml version="1.0" encoding="UTF-8"?><svg version="1.1" width="24px" height="24px" viewBox="0 0 24.0 24.0" xmlns="http://www.w3.org/2000/svg" xmlns:xlink="http://www.w3.org/1999/xlink"><defs><clipPath id="i0"><path d="M11.4749635,0 C17.9765196,0 23.2499446,4.93591658 23.2499446,11.4374727 C23.2499446,16.6359161 20.0718363,21.0843156 15.3843475,22.640571 C14.7890272,22.7483741 14.5734211,22.37809 14.5734211,22.0734032 L14.5737484,21.9310997 C14.5756489,21.3961585 14.5852465,19.9284035 14.5871471,18.5932964 L14.5874744,18.1546351 C14.5874744,17.0530752 14.2218594,16.3499519 13.7906013,15.9796677 C16.4108801,15.6843193 19.1718293,15.3234193 19.1718293,10.7999926 C19.1718293,9.51560231 18.7124645,8.86873801 17.9624663,8.03904333 C18.0843227,7.73435656 18.4827593,6.48278789 17.8405642,4.85622011 C16.8609065,4.54686416 14.6061969,6.12184209 14.6061969,6.12184209 C13.6686991,5.85936103 12.660889,5.72340554 11.662463,5.72340554 C10.6640371,5.72340554 9.65622698,5.85936103 8.71872921,6.12184209 C8.71872921,6.12184209 6.4640654,4.55153334 5.48436192,4.85622011 C4.8421668,6.47811871 5.24060335,7.73435656 5.36250553,8.03904333 C4.61250731,8.86402306 4.2562307,9.51093313 4.2562307,10.7999926 C4.2562307,14.8395986 6.37789561,15.565118 8.70368468,15.8813781 L9.02934521,15.9231436 C9.19264491,15.9429906 9.35650407,15.9615031 9.52027149,15.9796677 C9.18280892,16.2890237 8.87812214,16.8093166 8.77027328,17.5593148 C8.09997153,17.8687166 6.37965398,18.3890095 5.35312139,16.5796571 C4.71092627,15.4640439 3.54372324,15.3702942 3.54372324,15.3702942 C2.39528848,15.3561951 3.46874173,16.09214 3.46874173,16.09214 C4.23750821,16.4437016 4.77185447,17.8077884 4.77185447,17.8077884 C5.46092448,19.9077742 8.74216666,19.2046509 8.74216666,19.2046509 L8.74270442,19.5746241 C8.74527881,20.548064 8.75621997,21.8263406 8.75621997,22.0827415 C8.75621997,22.3874283 8.54528297,22.7577582 7.94529356,22.6499552 C3.27185804,21.0843156 0,16.6359161 0,11.4374727 C0,4.93591658 4.97340733,0 11.4749635,0 Z M7.51403543,18.0843227 C7.65466009,18.0702694 7.77656227,18.1452509 7.77656227,18.2530998 C7.77656227,18.3468496 7.66871341,18.4218311 7.5328037,18.4218311 C7.37812572,18.4358844 7.27027686,18.3609029 7.27027686,18.2530998 C7.27027686,18.15935 7.37812572,18.0843227 7.51403543,18.0843227 Z M8.390605,17.9624663 C8.52656048,17.948413 8.65308606,18.0093412 8.66718515,18.098376 C8.68123846,18.1921258 8.58748868,18.2812064 8.45153319,18.314028 C8.31090853,18.3468496 8.18905213,18.2858756 8.17499882,18.1921258 C8.16089973,18.0843227 8.25464951,17.9952879 8.390605,17.9624663 Z M6.54779886,17.9244118 L6.60935924,17.9343139 C6.74998391,17.9765196 6.8390645,18.0843227 6.81091211,18.1780725 C6.78280548,18.2718223 6.64218082,18.3186972 6.52027864,18.2718223 C6.37965398,18.2437157 6.2859042,18.1359126 6.31872578,18.0421628 C6.35154736,17.948413 6.48750284,17.9015381 6.60935924,17.9343139 Z M5.56872757,17.4562267 C5.62965577,17.3811994 5.77028043,17.3952527 5.87341434,17.5031016 C5.96716412,17.5921364 5.99531652,17.7327611 5.93434254,17.7936893 C5.87341434,17.8687166 5.73750463,17.8546632 5.62965577,17.7468144 C5.52185268,17.6577796 5.49374606,17.5171549 5.56872757,17.4562267 Z M5.03438131,16.7671567 C5.10936282,16.7062285 5.23121922,16.7531034 5.29686237,16.8609065 C5.37184388,16.9687095 5.37184388,17.0905659 5.29686237,17.1515399 C5.23593417,17.1984148 5.10936282,17.1515399 5.03438131,17.0436911 C4.95935402,16.935888 4.95935402,16.8140316 5.03438131,16.7671567 Z"></path></clipPath></defs><g transform="translate(0.0 1.0)"><g clip-path="url(#i0)"><polygon points="0,0 23.2499446,0 23.2499446,22.66905 0,22.66905 0,0" stroke="none" fill="#151515"></polygon></g></g></svg>