<?xml version="1.0" encoding="UTF-8"?><svg version="1.1" width="24px" height="24px" viewBox="0 0 24.0 24.0" xmlns="http://www.w3.org/2000/svg" xmlns:xlink="http://www.w3.org/1999/xlink"><defs><clipPath id="i0"><path d="M19.0707581,0.312903612 C19.2207669,-0.104301204 19.8113722,-0.104301204 19.9567118,0.312903612 L22.605143,8.50662492 L16.4223269,8.50662492 L12.0020341,22.2878421 L7.5817413,8.50662492 L1.39892523,8.50662492 L4.04735641,0.312903612 C4.19736521,-0.104301204 4.78797049,-0.104301204 4.93331011,0.312903612 C4.93331011,0.312903612 7.5817413,8.50662492 7.58641048,8.50662492 L16.4176577,8.50662492 Z M1.39425605,8.50662492 L11.9973649,22.2878421 L0.377061821,13.6628626 C0.058321736,13.4237732 -0.0776337504,13.0066142 0.0442684248,12.6316151 L1.39425605,8.50662492 Z M22.6098122,8.50662492 L23.9597998,12.6316151 C24.076987,13.0066142 23.9457465,13.4237732 23.6223372,13.6628626 L12.0020341,22.2878421 L22.6098122,8.50662492 Z"></path></clipPath></defs><g transform="translate(0.0 1.0)"><g clip-path="url(#i0)"><polygon points="-3.73034936e-14,0 24.0020285,0 24.0020285,22.2878421 -3.73034936e-14,22.2878421 -3.73034936e-14,0" stroke="none" fill="#151515"></polygon></g></g></svg>