<?xml version="1.0" encoding="UTF-8"?><svg version="1.1" width="24px" height="24px" viewBox="0 0 24.0 24.0" xmlns="http://www.w3.org/2000/svg" xmlns:xlink="http://www.w3.org/1999/xlink"><defs><clipPath id="i0"><path d="M11.6249723,0 C14.7562057,0 17.3905835,1.14843476 19.420257,3.04219856 L16.2562021,6.08435134 C12.1171586,2.09060171 4.42029281,5.09059455 4.42029281,11.6249723 C4.42029281,15.6796501 7.65937505,18.9655615 11.6249723,18.9655615 C16.2280955,18.9655615 17.9530822,15.6655968 18.2249474,13.9546634 L11.6249723,13.9546634 L11.6249723,9.95624457 L22.6921151,9.95624457 C22.799964,10.551519 22.8749455,11.1234018 22.8749455,11.8968375 C22.8749455,18.5296342 18.3327505,23.2499446 11.6249723,23.2499446 C5.19372846,23.2499446 0,18.0562161 0,11.6249723 C0,5.19372846 5.19372846,0 11.6249723,0 Z"></path></clipPath></defs><g transform="translate(1.0 0.0)"><g clip-path="url(#i0)"><polygon points="0,0 22.8749455,0 22.8749455,23.2499446 0,23.2499446 0,0" stroke="none" fill="#151515"></polygon></g></g></svg>