<?xml version="1.0" encoding="UTF-8"?><svg version="1.1" width="24px" height="24px" viewBox="0 0 24.0 24.0" xmlns="http://www.w3.org/2000/svg" xmlns:xlink="http://www.w3.org/1999/xlink"><defs><clipPath id="i0"><path d="M20.9999499,0 L20.9999499,20.9999499 L0,20.9999499 L0,0 L20.9999499,0 Z M15.9843369,9.52965562 C14.2265286,9.52965562 13.0968621,10.6546529 13.0968621,12.1359269 C13.0968621,13.7437264 14.039029,14.5077779 15.4640439,15.1124823 L15.9562303,15.3234193 C16.8609065,15.7218558 17.3952527,15.9608994 17.3952527,16.6359161 C17.3952527,17.203084 16.8702906,17.6109047 16.0546492,17.6109047 C15.0843299,17.6109047 14.5312154,17.0999501 14.1093414,16.4108801 L12.5015418,17.3390395 C13.0780938,18.4827593 14.2640193,19.3546597 16.0968549,19.3546597 C17.9671355,19.3546597 19.363998,18.3796254 19.363998,16.6077637 C19.363998,14.9577585 18.4218311,14.2218594 16.7437192,13.504637 L16.2515329,13.2937 C15.40307,12.9234158 15.037455,12.6843264 15.037455,12.0937212 C15.037455,11.6155882 15.40307,11.2499732 15.9796677,11.2499732 C16.5468355,11.2499732 16.9124505,11.4890168 17.2499589,12.0937212 L18.7874461,11.1093485 C18.1405817,9.96558293 17.2405747,9.52965562 15.9843369,9.52965562 Z M11.4280886,9.64217367 L9.45467411,9.64217367 L9.45467411,16.3499519 C9.45467411,17.3390395 9.04218425,17.5921364 8.39527417,17.5921364 C7.71558829,17.5921364 7.43433896,17.1281025 7.12498301,16.5796571 L5.5171835,17.5499765 C5.98593238,18.5390183 6.8999927,19.3546597 8.47968559,19.3546597 C10.2281098,19.3546597 11.4280886,18.4218311 11.4280886,16.3781043 L11.4280886,9.64217367 Z"></path></clipPath></defs><g transform="translate(2.0 2.0)"><g clip-path="url(#i0)"><polygon points="0,0 20.9999499,0 20.9999499,20.9999499 0,20.9999499 0,0" stroke="none" fill="#151515"></polygon></g></g></svg>