<?xml version="1.0" encoding="UTF-8"?><svg version="1.1" width="24px" height="24px" viewBox="0 0 24.0 24.0" xmlns="http://www.w3.org/2000/svg" xmlns:xlink="http://www.w3.org/1999/xlink"><defs><clipPath id="i0"><path d="M19.4999535,0 C20.3249332,0 20.9999499,0.679685879 20.9999499,1.51404973 L20.9999499,19.4859002 C20.9999499,20.3202641 20.3249332,20.9999499 19.4999535,20.9999499 L1.49532725,20.9999499 C0.670301747,20.9999499 0,20.3202641 0,19.4859002 L0,1.51404973 C0,0.679685879 0.670301747,0 1.49532725,0 Z M14.2780726,7.72968738 C12.7640229,7.72968738 11.7468287,8.55933628 11.3296696,9.34687103 L11.2874639,9.34687103 L11.2874639,7.97811513 L8.3015244,7.97811513 L8.3015244,17.9999571 L11.4140353,17.9999571 L11.4140353,13.0406031 C11.4140353,11.7327754 11.662463,10.4671534 13.2843616,10.4671534 C14.8781078,10.4671534 14.9015453,11.9624806 14.9015453,13.1249687 L14.9015453,17.9999571 L18.0140104,17.9999571 L18.0140104,12.506211 C18.0140104,9.80623578 17.4280743,7.72968738 14.2780726,7.72968738 Z M6.35154736,7.97811513 L3.23436729,7.97811513 L3.23436729,17.9999571 L6.35154736,17.9999571 L6.35154736,7.97811513 Z M4.79062273,2.99999285 C3.79219677,2.99999285 2.98593954,3.81091926 2.98593954,4.80467604 C2.98593954,5.79843283 3.79219677,6.60935924 4.79062273,6.60935924 C5.7890487,6.60935924 6.59530593,5.80310201 6.59530593,4.80467604 C6.59530593,3.81091926 5.78437952,2.99999285 4.79062273,2.99999285 Z"></path></clipPath></defs><g transform="translate(2.0 2.0)"><g clip-path="url(#i0)"><polygon points="0,0 20.9999499,0 20.9999499,20.9999499 0,20.9999499 0,0" stroke="none" fill="#151515"></polygon></g></g></svg>