<?xml version="1.0" encoding="UTF-8"?><svg version="1.1" width="24px" height="24px" viewBox="0 0 24.0 24.0" xmlns="http://www.w3.org/2000/svg" xmlns:xlink="http://www.w3.org/1999/xlink"><defs><clipPath id="i0"><path d="M10.4121322,0 C14.2043289,0.00468275974 13.988677,4.00314735 13.9652395,6.15467725 C13.9529429,7.38926865 14.5471774,8.27569871 15.2328988,9.15316976 L15.5308791,9.52966921 C16.2433866,10.3734172 17.1761694,11.6062176 17.7105614,13.0171792 C18.1464887,14.1702831 18.3152658,15.4452893 17.8840077,16.7249646 C17.949605,16.748402 18.0152482,16.7812236 18.0761764,16.8187143 C18.1418196,16.8562051 18.2027478,16.90308 18.263676,16.9546698 C18.5730777,17.2171509 18.6714966,17.6249716 18.7558623,18.0046398 C18.8449429,18.3843539 18.9246393,18.7405847 19.0933706,18.9280843 C19.6136636,19.5093512 19.8386997,19.9358944 19.8199314,20.3202776 C19.796494,20.7046609 19.5152446,20.9671419 19.1683521,21.1780789 C18.4699438,21.5999529 17.419928,21.918693 16.7824478,22.6874595 C16.1168152,23.4796634 15.2965047,23.9343132 14.5183998,23.9952872 C13.7449642,24.0562154 13.0184034,23.6999388 12.6293052,22.9171648 C12.5777612,22.8140308 12.5402704,22.7062278 12.512118,22.5983789 C11.5043079,22.6546379 10.6277841,22.3499511 9.92932998,22.4062102 C8.89808244,22.4624692 8.25121813,22.7108969 7.66528203,22.7155661 C7.44029172,23.2124674 6.99498028,23.5405916 6.45120411,23.662448 C5.7012059,23.8358943 4.75903896,23.662448 3.83092533,23.1749766 C2.9637399,22.7155661 1.86218002,22.7577718 1.05120783,22.5890405 C0.643432928,22.5046291 0.287156311,22.3546661 0.109040891,22.0124428 C-0.0644053507,21.6702653 -0.0315837736,21.2015164 0.2121748,20.5265455 C0.291871266,20.2874561 0.23089729,19.9312252 0.174684045,19.5515112 C0.146531646,19.3687266 0.118425024,19.181227 0.118425024,18.9983966 C0.118425024,18.7968438 0.151246601,18.5999601 0.249665556,18.4171755 C0.460602553,18.0187389 0.802780082,17.8499619 1.11685099,17.7374896 C1.43092189,17.6249716 1.7168404,17.54999 1.91372409,17.3483914 C2.15748266,17.0905795 2.38714215,16.6734205 2.69182892,16.4015553 C2.56997252,15.5952981 2.70121306,14.7421659 2.98246239,13.9030871 C3.57311344,12.1265563 4.81996716,10.425007 5.70592086,9.37032205 C6.46058825,8.2968688 6.68090938,7.43435255 6.76060584,6.33750763 C6.81214991,4.84689534 5.61217108,-0.00937055148 10.4121322,0 Z M14.3168012,16.3405813 L14.2699263,16.3640188 C13.9371329,16.5468491 13.7496334,16.8703042 13.627777,17.3531064 C13.5105897,17.8312394 13.468384,18.4546662 13.4308933,19.1671737 C13.3980717,19.7202882 13.1402598,20.4046433 12.9668136,21.0702758 C12.8027515,21.6890335 12.6949484,22.2515322 12.9152695,22.7718251 C13.2527779,23.451511 13.8293298,23.7280912 14.4949624,23.6765013 C15.1605492,23.6249573 15.9199315,23.2171366 16.5386892,22.4811917 C17.5699368,21.234338 19.4589856,21.0890441 19.5011913,20.3015094 C19.5152446,20.0624657 19.3558517,19.6921358 18.8589962,19.1484054 C18.3902473,18.6187283 18.5214878,17.5968649 18.0574539,17.1984284 C17.7339989,16.9171791 17.419928,16.9452857 16.998054,16.959339 C16.6371082,17.3718289 15.788691,17.8781143 15.1980857,17.7233905 C14.6590245,17.5874808 14.3543377,16.959339 14.3168012,16.3405813 Z M3.63404164,16.4062245 C3.27309585,16.3499654 3.04339058,16.4718676 2.80434696,16.7296795 C2.57935666,16.9687231 2.3918571,17.3062315 2.13404522,17.5734275 C1.76843025,17.8781143 1.69811791,17.8640152 1.21526994,18.0374614 C0.919967302,18.1405953 0.685592861,18.2531134 0.521530752,18.5671385 C0.394959399,18.8015129 0.423111798,19.1390213 0.479370819,19.5046363 C0.535584064,19.8749662 0.619995483,20.2687336 0.507477441,20.6249644 L0.507477441,20.6343485 C0.273103,21.2765437 0.273103,21.6515428 0.385621042,21.8718181 C0.755905194,22.5937097 2.56997252,22.1577824 3.97154999,22.8983965 C5.44339402,23.667163 7.37464857,23.6999388 7.50121992,22.0546485 C7.59963888,21.0937133 6.02466094,19.757779 5.5793495,18.8249504 L4.66057423,17.1562227 C4.34183414,16.7249646 4.01370993,16.4624835 3.63404164,16.4062245 Z M12.1277805,7.26562126 C11.9168435,7.56563885 11.5465136,7.82345074 11.0824339,7.96874458 C10.8621586,8.03905691 10.6277841,8.22655647 10.3371507,8.39061858 C9.6855714,8.76562126 8.93090401,8.80310844 8.34963709,8.33435956 C8.13870009,8.16562827 7.97463798,7.97812872 7.75903181,7.85155736 C7.68400452,7.80935165 7.51994241,7.69687939 7.46839834,7.65938863 C7.37464857,9.43125025 6.18872305,11.6578074 5.62622439,12.9421519 C5.23717198,13.8655964 5.00746671,14.854684 4.97936009,15.8249575 C3.95745091,14.4609166 4.70277994,12.7171616 5.10121649,11.9624942 C5.54652793,11.1374687 5.61684026,10.9078092 5.50903717,10.9875057 C5.10588567,11.6437541 4.47778963,12.689055 4.23403106,13.7624625 C4.1074597,14.3202919 4.08402226,14.8874598 4.24808437,15.4124677 C4.41214648,15.9374756 4.76842309,16.4202778 5.40123408,16.8140451 C5.40123408,16.8140451 6.56372216,17.4843469 7.19653315,18.337479 C7.54337986,18.8062279 7.65122872,19.2140486 7.54337986,19.5046363 C7.42619264,19.8187072 7.09339924,19.9218411 6.76060584,19.9218411 C6.98559615,20.2030904 7.24340804,20.5312146 7.43557677,20.8405706 C9.19810003,22.0452644 11.2887017,21.5765155 12.7933673,20.503108 C12.9433761,19.9874842 13.0887158,19.5046363 13.1121532,19.1437362 C13.149644,18.4312288 13.1871347,17.7984178 13.3183752,17.2734099 C13.4637149,16.6828046 13.7543025,16.1906183 14.3215162,15.9937346 C14.4293192,15.004647 15.1980857,15.004647 16.1168152,15.4077985 C17.0027689,15.8062351 17.3355623,16.1577967 17.1855535,16.6312148 C17.2324284,16.6312148 17.2793033,16.6265456 17.3824372,16.6312148 C17.6261958,15.8390566 16.7121355,15.3187179 15.943369,14.9999778 C16.0793245,14.4374792 16.055887,13.8703113 15.9246465,13.3265352 C15.6433972,12.1406096 14.8652466,11.0859247 14.2746413,10.5609167 C14.1668382,10.5562476 14.1761765,10.6499973 14.3964977,10.8656035 C14.9402738,11.367174 16.1355835,13.1718572 15.4886734,14.8452998 C15.3058888,14.798425 15.1324426,14.7749875 14.9777646,14.7796567 C14.7293368,13.4156158 14.1574541,12.2859035 13.8714898,11.7515572 C13.3324286,10.7484163 12.4886806,8.69063617 12.1277805,7.26562126 Z M9.31528725,5.24061693 C8.64027055,5.24061693 8.22778069,5.69998168 8.00745956,5.9062495 C7.98923044,5.92447862 7.77533098,6.08166525 7.54444106,6.2520701 L7.34654195,6.39843583 C7.14965826,6.5531138 7.08401511,6.74532831 7.14965826,6.9749878 C7.21997059,7.20469306 7.43557677,7.46717412 7.83872827,7.69216443 C8.20434325,7.90781638 8.40122693,8.23122565 8.77622604,8.39528775 C8.89808244,8.4468776 9.04337628,8.48436835 9.22620665,8.49375249 C10.0887229,8.54529655 10.4964978,7.9640754 11.0168365,7.79529834 C11.5652819,7.6218521 11.9590035,7.27967457 12.0809057,6.94688117 C12.2308687,6.54844462 11.9824409,6.25781116 11.5887193,6.09374905 C11.0589965,5.86404379 10.824622,5.84999048 10.5293194,5.65782175 C10.0465172,5.34842002 9.64808065,5.24061693 9.31528725,5.24061693 Z M11.513692,6.49685478 C11.6449326,6.51095387 11.5511828,6.64686358 11.3683982,6.80625651 C11.1855678,6.96560366 10.9043185,7.17187148 10.674659,7.29372788 C10.2386859,7.52343314 9.72777711,7.8000133 9.18400094,7.8000133 C8.64493973,7.8000133 8.21372738,7.54687059 7.90432565,7.30311201 C7.74964767,7.18125562 7.62307632,7.05935344 7.52932654,6.97031862 C7.36526444,6.83907809 7.3840327,6.66091689 7.44963008,6.66563184 C7.56214812,6.67968516 7.58091639,6.82969395 7.65122872,6.89529133 C7.7449785,6.98437193 7.8668349,7.10155915 8.01212874,7.21874637 C8.3027622,7.44845163 8.69181462,7.67344194 9.17933177,7.67344194 C9.66684891,7.67344194 10.2340168,7.39219261 10.5809092,7.19530893 C10.7777471,7.08279088 11.0262207,6.88595297 11.2324427,6.73594418 C11.3918356,6.61875696 11.3824515,6.48280147 11.513692,6.49685478 Z M7.98402212,3.55312095 C7.09806842,3.55312095 6.8590248,5.31092926 7.59025474,5.9953301 C7.95591549,5.72813408 7.91370978,5.77500897 7.8668349,5.73751821 C7.49183579,5.41406317 7.55747894,4.45312796 7.95120054,4.42030639 C8.24650318,4.39686894 8.45744018,4.92187685 8.40122693,5.33908166 C8.54652077,5.24061693 8.71525206,5.1703046 8.87931417,5.12342971 C8.95901064,4.21875352 8.45744018,3.55312095 7.98402212,3.55312095 Z M11.9543343,4.07345968 C11.4949696,3.07031876 10.351204,3.0515505 9.89183922,4.09218217 C9.74183042,4.42969052 9.70900885,4.79063631 9.75588374,5.11404558 C9.9246608,5.15625129 10.1730886,5.22656362 10.3652573,5.3203134 C10.2668383,4.74843061 10.5761943,4.21875352 10.9183718,4.24219097 C11.3355766,4.25624428 11.5699511,4.96875173 11.3449608,5.52186626 C11.30747,5.61094686 11.2137202,5.68125919 11.1621304,5.73751821 C11.4762013,5.8453213 11.6777542,5.92968694 11.7527814,5.9671777 C12.1230656,5.52186626 12.2590211,4.73904647 11.9543343,4.07345968 Z"></path></clipPath></defs><g transform="translate(1.9999999999999432 8.526512829121202e-14)"><g clip-path="url(#i0)"><polygon points="4.97102359e-14,-1.35421605e-05 19.8210121,-1.35421605e-05 19.8210121,24.001957 4.97102359e-14,24.001957 4.97102359e-14,-1.35421605e-05" stroke="none" fill="#151515"></polygon></g></g></svg>