<?xml version="1.0" encoding="UTF-8"?><svg version="1.1" width="24px" height="24px" viewBox="0 0 24.0 24.0" xmlns="http://www.w3.org/2000/svg" xmlns:xlink="http://www.w3.org/1999/xlink"><defs><clipPath id="i0"><path d="M5.4175911,16.0005078 L5.4175911,16.8585142 C5.41832588,17.5240621 5.95767599,18.0634119 6.62322386,18.0641462 L17.3688926,18.0641462 C18.0344407,18.0634122 18.5737911,17.5240623 18.5745259,16.8585142 L18.5745259,16.0005078 L24,16.0005078 L24,21.2528052 C23.9963313,22.4871625 22.9934755,23.4852385 21.7591147,23.4830138 L2.22893292,23.4830138 C0.998941888,23.4793702 0.00293815273,22.4827981 0,21.2528052 L0,16.0005078 L5.4175911,16.0005078 Z M5.41886264,9.0319463 L5.41886264,14.4510626 L0,14.4510626 L0,9.0319463 L5.41886264,9.0319463 Z M23.9933884,9.0319463 L23.9933884,14.4510626 L18.5745259,14.4510626 L18.5745259,9.0319463 L23.9933884,9.0319463 Z M21.7631835,0 C22.9954618,0 23.9956347,0.996662363 24,2.22893292 L24,7.48275524 L18.5783395,7.48275524 L18.5783395,6.62474956 C18.5783988,6.30495445 18.4514044,5.99823655 18.225299,5.77208336 C17.9991936,5.54593016 17.6925026,5.41887092 17.3727075,5.41886264 L6.62729265,5.41886264 C6.3074974,5.41887072 6.00080616,5.54592986 5.7747006,5.77208308 C5.54859505,5.9982363 5.42160055,6.30495431 5.42165988,6.62474956 L5.42165988,7.48275524 L0.00381448866,7.48275524 L0.00381448866,2.22893292 C0.00745169733,0.999337802 1.00340618,0.00349693198 2.23300171,0 Z"></path></clipPath></defs><g clip-path="url(#i0)"><polygon points="0,0 24,0 24,23.4830175 0,23.4830175 0,0" stroke="none" fill="#151515"></polygon></g></svg>