<?xml version="1.0" encoding="UTF-8"?><svg version="1.1" width="24px" height="24px" viewBox="0 0 24.0 24.0" xmlns="http://www.w3.org/2000/svg" xmlns:xlink="http://www.w3.org/1999/xlink"><defs><clipPath id="i0"><path d="M23.4485514,10.1163881 C23.5924076,11.9385659 23.3046953,13.8326718 22.4655345,15.6068976 C19.9000999,21.0974071 13.3306693,23.4950095 7.84015984,20.9295749 C6.06593407,20.1143901 4.6033966,18.8436608 3.54845155,17.3571474 L3.568,17.384 L5.56243756,16.6618427 L5.539,16.635 L7.38461538,15.966538 C7.88811189,16.4910135 8.50174825,16.9420624 9.17733829,17.3036228 L9.47052947,17.4530514 C13.042957,19.1313731 17.3106893,17.5729316 18.989011,14.000504 C19.3726274,13.2092952 19.5644356,12.3701344 19.6363636,11.5309735 L19.636,11.533 L21.6263736,10.8116928 L21.625,10.792 Z M3.66833167,12.993511 C3.93206793,14.3601444 4.6033966,15.6308736 5.56243756,16.6618427 L5.539,16.635 L3.54845155,17.3571474 L3.568,17.384 L1.72627373,18.052452 C0.992607393,17.0382662 0.453146853,15.9269775 0.107892108,14.7360644 L0,14.3361683 Z M6.97702298,9.85265185 C6.92907093,10.4760285 6.97702298,11.1233811 7.0969031,11.7227817 L3.42857143,13.0654391 C3.26073926,12.4660385 3.16483516,11.8666379 3.11688312,11.2432612 L3.122,11.311 L5.44255744,10.4760285 L5.45,10.402 Z M23.0649351,4.002502 C23.4245754,4.5059985 23.7362637,5.03347103 24,5.58491958 L20.574,6.838 L20.7294794,7.1740382 C21.1871494,8.20805152 21.4945325,9.30334691 21.5991011,10.4336606 L21.625,10.792 L19.6363636,11.5309735 L19.636,11.533 L17.7902098,12.2023022 C17.901527,10.8887586 17.6200534,9.5958882 17.0417716,8.43887029 L16.9030969,8.17433017 L20.327,6.92 L20.1716062,6.65407265 C19.95227,6.29265629 19.7080697,5.94544794 19.4247974,5.62665562 L19.224,5.415 L21.4825175,4.6019026 L21.465,4.578 Z M2.56543457,6.35215235 C5.13086913,0.861642857 11.7002997,-1.53595954 17.1908092,1.02947502 C18.965035,1.84465984 20.4275724,3.11538911 21.4825175,4.6019026 L21.465,4.578 L19.2047952,5.39311139 L19.224,5.415 L17.6223776,5.99251199 C17.1086057,5.47874005 16.5243736,5.03542825 15.8696813,4.67767522 L15.5364635,4.5059985 C11.9400599,2.82767682 7.6963037,4.38611838 6.08991009,8.006498 C5.70629371,8.79770679 5.51448551,9.63686763 5.44255744,10.4760285 L5.45,10.402 L3.11688312,11.2432612 L3.122,11.311 L1.58241758,11.8666379 C1.42577423,10.1435609 1.68684649,8.37871245 2.40462116,6.70854618 Z"></path></clipPath></defs><g transform="translate(0.0 1.0)"><g clip-path="url(#i0)"><polygon points="0,-2.22044605e-16 24,-2.22044605e-16 24,21.9590499 0,21.9590499 0,-2.22044605e-16" stroke="none" fill="#151515"></polygon></g></g></svg>