<?xml version="1.0" encoding="UTF-8"?>
<svg width="147px" height="36px" viewBox="0 0 147 36" version="1.1" xmlns="http://www.w3.org/2000/svg" xmlns:xlink="http://www.w3.org/1999/xlink">
    <title></title>
    <defs>
        <rect id="path-1" x="0" y="0" width="147" height="36"></rect>
        <filter x="-0.3%" y="-1.4%" width="100.7%" height="102.8%" filterUnits="objectBoundingBox" id="filter-2">
            <feOffset dx="-1" dy="0" in="SourceAlpha" result="shadowOffsetInner1"></feOffset>
            <feComposite in="shadowOffsetInner1" in2="SourceAlpha" operator="arithmetic" k2="-1" k3="1" result="shadowInnerInner1"></feComposite>
            <feColorMatrix values="0 0 0 0 0.941176471   0 0 0 0 0.941176471   0 0 0 0 0.941176471  0 0 0 1 0" type="matrix" in="shadowInnerInner1" result="shadowMatrixInner1"></feColorMatrix>
            <feOffset dx="0" dy="1" in="SourceAlpha" result="shadowOffsetInner2"></feOffset>
            <feComposite in="shadowOffsetInner2" in2="SourceAlpha" operator="arithmetic" k2="-1" k3="1" result="shadowInnerInner2"></feComposite>
            <feColorMatrix values="0 0 0 0 0.941176471   0 0 0 0 0.941176471   0 0 0 0 0.941176471  0 0 0 1 0" type="matrix" in="shadowInnerInner2" result="shadowMatrixInner2"></feColorMatrix>
            <feOffset dx="1" dy="0" in="SourceAlpha" result="shadowOffsetInner3"></feOffset>
            <feComposite in="shadowOffsetInner3" in2="SourceAlpha" operator="arithmetic" k2="-1" k3="1" result="shadowInnerInner3"></feComposite>
            <feColorMatrix values="0 0 0 0 0.941176471   0 0 0 0 0.941176471   0 0 0 0 0.941176471  0 0 0 1 0" type="matrix" in="shadowInnerInner3" result="shadowMatrixInner3"></feColorMatrix>
            <feOffset dx="0" dy="-1" in="SourceAlpha" result="shadowOffsetInner4"></feOffset>
            <feComposite in="shadowOffsetInner4" in2="SourceAlpha" operator="arithmetic" k2="-1" k3="1" result="shadowInnerInner4"></feComposite>
            <feColorMatrix values="0 0 0 0 0.541176471   0 0 0 0 0.552941176   0 0 0 0 0.564705882  0 0 0 1 0" type="matrix" in="shadowInnerInner4" result="shadowMatrixInner4"></feColorMatrix>
            <feMerge>
                <feMergeNode in="shadowMatrixInner1"></feMergeNode>
                <feMergeNode in="shadowMatrixInner2"></feMergeNode>
                <feMergeNode in="shadowMatrixInner3"></feMergeNode>
                <feMergeNode in="shadowMatrixInner4"></feMergeNode>
            </feMerge>
        </filter>
    </defs>
    <g id="Dropdowns" stroke="none" stroke-width="1" fill="none" fill-rule="evenodd">
        <g id="Dropdowns-/-1.-Toggle-/-With-typeahead-/-Default">
            <g id="Background">
                <use fill="#FFFFFF" fill-rule="evenodd" xlink:href="#path-1"></use>
                <use fill="black" fill-opacity="1" filter="url(#filter-2)" xlink:href="#path-1"></use>
            </g>
            <g id="ðŸ–¼-Icon-2" transform="translate(122.000000, 15.000000)" fill="#151515">
                <path d="M5.08762958,5.08748177 L9.10638831,1.06561025 C9.50012517,0.671873398 9.22201914,0 8.66574605,0 L0.625146327,0 C0.0689037567,0 -0.209232787,0.671873398 0.184534585,1.06561025 L4.2032628,5.08748177 C4.44700611,5.33122508 4.84388627,5.33122508 5.08762958,5.08748177 Z" id="caret-down"></path>
            </g>
            <text id="âœï¸-Label" font-family="RedHatText-Regular, Red Hat Text" font-size="16" font-weight="normal" line-spacing="24" fill="#6A6E73">
                <tspan x="8" y="22">Dropdown</tspan>
            </text>
            <g id="ðŸ“-Padding" fill-opacity="0.9">
                <g id="Spacer-/-Horizontal-/-2.-pf-global--spacer--sm-(8px)" transform="translate(-0.000000, 0.000000)" fill="#92D400" stroke="#7FB300">
                    <rect id="Rectangle-Copy" x="0.5" y="0.5" width="7" height="35"></rect>
                </g>
                <g id="Spacer-/-Vertical-/-8.-pf-global--spacer--form-element-(6px)" transform="translate(8.000000, 0.000000)" fill="#F3D53C" stroke="#CBB534">
                    <rect id="Rectangle" x="0.5" y="0.5" width="131" height="5"></rect>
                </g>
                <g id="Spacer-/-Vertical-/-8.-pf-global--spacer--form-element-(6px)" transform="translate(8.000000, 30.000000)" fill="#F3D53C" stroke="#CBB534">
                    <rect id="Rectangle" x="0.5" y="0.5" width="131" height="5"></rect>
                </g>
                <g id="Spacer-/-Horizontal-/-2.-pf-global--spacer--sm-(8px)" transform="translate(140.000000, 0.000000)" fill="#92D400" stroke="#7FB300">
                    <rect id="Rectangle-Copy" x="0.5" y="0.5" width="7" height="35"></rect>
                </g>
            </g>
            <g id="ðŸ–¼-Icon-1" transform="translate(97.000000, 12.000000)" fill="#6A6E73">
                <path d="M5.81248614,11.6249723 C9.02341599,11.6249723 11.6249723,9.02341599 11.6249723,5.81248614 C11.6249723,2.6015563 9.02341599,0 5.81248614,0 C2.6015563,0 0,2.6015563 0,5.81248614 C0,9.02341599 2.6015563,11.6249723 5.81248614,11.6249723 Z M7.33592001,8.66247019 L5.81248614,7.12498301 L4.28671768,8.66247019 C4.17655712,8.77263076 3.99841881,8.77263076 3.88828113,8.66247019 L2.96250209,7.73435656 C2.85234153,7.62419599 2.85234153,7.44608057 2.96250209,7.33592001 L4.49998927,5.81248614 L2.96250209,4.28671768 C2.85234153,4.17655712 2.85234153,3.99841881 2.96250209,3.88828113 L3.89061572,2.96014461 C4.00077629,2.84998405 4.17889171,2.84998405 4.28905227,2.96014461 L5.81248614,4.49998927 L7.3382546,2.96250209 C7.44841516,2.85234153 7.62655347,2.85234153 7.73669115,2.96250209 L8.66482767,3.89061572 C8.77498823,4.00077629 8.77498823,4.17889171 8.66482767,4.28905227 L7.12498301,5.81248614 L8.66247019,7.3382546 C8.77263076,7.44841516 8.77263076,7.62655347 8.66247019,7.73669115 L7.73435656,8.66247019 C7.62419599,8.77263076 7.44608057,8.77263076 7.33592001,8.66247019 Z" id="times-circle"></path>
            </g>
        </g>
    </g>
</svg>