<?xml version="1.0" encoding="UTF-8"?>
<svg width="147px" height="36px" viewBox="0 0 147 36" version="1.1" xmlns="http://www.w3.org/2000/svg" xmlns:xlink="http://www.w3.org/1999/xlink">
    <title></title>
    <defs>
        <rect id="path-1" x="0" y="0" width="147" height="36"></rect>
        <filter x="-0.3%" y="-1.4%" width="100.7%" height="102.8%" filterUnits="objectBoundingBox" id="filter-2">
            <feOffset dx="-1" dy="0" in="SourceAlpha" result="shadowOffsetInner1"></feOffset>
            <feComposite in="shadowOffsetInner1" in2="SourceAlpha" operator="arithmetic" k2="-1" k3="1" result="shadowInnerInner1"></feComposite>
            <feColorMatrix values="0 0 0 0 0.941176471   0 0 0 0 0.941176471   0 0 0 0 0.941176471  0 0 0 1 0" type="matrix" in="shadowInnerInner1" result="shadowMatrixInner1"></feColorMatrix>
            <feOffset dx="0" dy="1" in="SourceAlpha" result="shadowOffsetInner2"></feOffset>
            <feComposite in="shadowOffsetInner2" in2="SourceAlpha" operator="arithmetic" k2="-1" k3="1" result="shadowInnerInner2"></feComposite>
            <feColorMatrix values="0 0 0 0 0.941176471   0 0 0 0 0.941176471   0 0 0 0 0.941176471  0 0 0 1 0" type="matrix" in="shadowInnerInner2" result="shadowMatrixInner2"></feColorMatrix>
            <feOffset dx="1" dy="0" in="SourceAlpha" result="shadowOffsetInner3"></feOffset>
            <feComposite in="shadowOffsetInner3" in2="SourceAlpha" operator="arithmetic" k2="-1" k3="1" result="shadowInnerInner3"></feComposite>
            <feColorMatrix values="0 0 0 0 0.941176471   0 0 0 0 0.941176471   0 0 0 0 0.941176471  0 0 0 1 0" type="matrix" in="shadowInnerInner3" result="shadowMatrixInner3"></feColorMatrix>
            <feOffset dx="0" dy="-1" in="SourceAlpha" result="shadowOffsetInner4"></feOffset>
            <feComposite in="shadowOffsetInner4" in2="SourceAlpha" operator="arithmetic" k2="-1" k3="1" result="shadowInnerInner4"></feComposite>
            <feColorMatrix values="0 0 0 0 0.541176471   0 0 0 0 0.552941176   0 0 0 0 0.564705882  0 0 0 1 0" type="matrix" in="shadowInnerInner4" result="shadowMatrixInner4"></feColorMatrix>
            <feMerge>
                <feMergeNode in="shadowMatrixInner1"></feMergeNode>
                <feMergeNode in="shadowMatrixInner2"></feMergeNode>
                <feMergeNode in="shadowMatrixInner3"></feMergeNode>
                <feMergeNode in="shadowMatrixInner4"></feMergeNode>
            </feMerge>
        </filter>
    </defs>
    <g id="Dropdowns" stroke="none" stroke-width="1" fill="none" fill-rule="evenodd">
        <g id="Dropdowns-/-1.-Toggle-/-With-typeahead-/-Default">
            <g id="Background">
                <use fill="#FFFFFF" fill-rule="evenodd" xlink:href="#path-1"></use>
                <use fill="black" fill-opacity="1" filter="url(#filter-2)" xlink:href="#path-1"></use>
            </g>
            <g id="caret-down" transform="translate(115.000000, 6.000000)" fill="#151515">
                <path d="M12.0876296,14.0874818 L16.1063883,10.0656103 C16.5001252,9.6718734 16.2220191,9 15.6657461,9 L7.62514633,9 C7.06890376,9 6.79076721,9.6718734 7.18453458,10.0656103 L11.2032628,14.0874818 C11.4470061,14.3312251 11.8438863,14.3312251 12.0876296,14.0874818 Z"></path>
            </g>
            <text id="âœï¸-Label" font-family="RedHatText-Regular, Red Hat Text" font-size="16" font-weight="normal" line-spacing="24" fill="#6A6E73">
                <tspan x="8" y="22">Dropdown</tspan>
            </text>
            <g id="ðŸ“-Padding" fill-opacity="0.9">
                <g id="Spacer-/-Horizontal-/-2.-pf-global--spacer--sm-(8px)" transform="translate(-0.000000, 0.000000)" fill="#92D400" stroke="#7FB300">
                    <rect id="Rectangle-Copy" x="0.5" y="0.5" width="7" height="35"></rect>
                </g>
                <g id="Spacer-/-Vertical-/-8.-pf-global--spacer--form-element-(6px)" transform="translate(8.000000, 0.000000)" fill="#F3D53C" stroke="#CBB534">
                    <rect id="Rectangle" x="0.5" y="0.5" width="131" height="5"></rect>
                </g>
                <g id="Spacer-/-Vertical-/-8.-pf-global--spacer--form-element-(6px)" transform="translate(8.000000, 30.000000)" fill="#F3D53C" stroke="#CBB534">
                    <rect id="Rectangle" x="0.5" y="0.5" width="131" height="5"></rect>
                </g>
                <g id="Spacer-/-Horizontal-/-2.-pf-global--spacer--sm-(8px)" transform="translate(140.000000, 0.000000)" fill="#92D400" stroke="#7FB300">
                    <rect id="Rectangle-Copy" x="0.5" y="0.5" width="7" height="35"></rect>
                </g>
            </g>
            <g id="times-circle" transform="translate(91.000000, 6.000000)" fill="#6A6E73">
                <path d="M11.8124861,17.6249723 C15.023416,17.6249723 17.6249723,15.023416 17.6249723,11.8124861 C17.6249723,8.6015563 15.023416,6 11.8124861,6 C8.6015563,6 6,8.6015563 6,11.8124861 C6,15.023416 8.6015563,17.6249723 11.8124861,17.6249723 Z M13.33592,14.6624702 L11.8124861,13.124983 L10.2867177,14.6624702 C10.1765571,14.7726308 9.99841881,14.7726308 9.88828113,14.6624702 L8.96250209,13.7343566 C8.85234153,13.624196 8.85234153,13.4460806 8.96250209,13.33592 L10.4999893,11.8124861 L8.96250209,10.2867177 C8.85234153,10.1765571 8.85234153,9.99841881 8.96250209,9.88828113 L9.89061572,8.96014461 C10.0007763,8.84998405 10.1788917,8.84998405 10.2890523,8.96014461 L11.8124861,10.4999893 L13.3382546,8.96250209 C13.4484152,8.85234153 13.6265535,8.85234153 13.7366911,8.96250209 L14.6648277,9.89061572 C14.7749882,10.0007763 14.7749882,10.1788917 14.6648277,10.2890523 L13.124983,11.8124861 L14.6624702,13.3382546 C14.7726308,13.4484152 14.7726308,13.6265535 14.6624702,13.7366911 L13.7343566,14.6624702 C13.624196,14.7726308 13.4460806,14.7726308 13.33592,14.6624702 Z"></path>
            </g>
        </g>
    </g>
</svg>