<?xml version="1.0" encoding="UTF-8"?><svg version="1.1" width="147px" height="36px" viewBox="0 0 147.0 36.0" xmlns="http://www.w3.org/2000/svg" xmlns:xlink="http://www.w3.org/1999/xlink"><defs><clipPath id="i0"><path d="M147,0 L147,36 L0,36 L0,0 L147,0 Z"></path></clipPath><clipPath id="i1"><path d="M8.66574605,0 C9.22201914,0 9.50012517,0.671873398 9.10638831,1.06561025 L5.08762958,5.08748177 C4.84388627,5.33122508 4.44700611,5.33122508 4.2032628,5.08748177 L0.184534585,1.06561025 C-0.209232787,0.671873398 0.0689037567,0 0.625146327,0 Z"></path></clipPath><clipPath id="i2"><path d="M5.81248614,0 C9.02341599,0 11.6249723,2.6015563 11.6249723,5.81248614 C11.6249723,9.02341599 9.02341599,11.6249723 5.81248614,11.6249723 C2.6015563,11.6249723 0,9.02341599 0,5.81248614 C0,2.6015563 2.6015563,0 5.81248614,0 Z M4.28905227,2.96014461 C4.17889171,2.84998405 4.00077629,2.84998405 3.89061572,2.96014461 L2.96250209,3.88828113 C2.85234153,3.99841881 2.85234153,4.17655712 2.96250209,4.28671768 L4.49998927,5.81248614 L2.96250209,7.33592001 C2.85234153,7.44608057 2.85234153,7.62419599 2.96250209,7.73435656 L3.88828113,8.66247019 C3.99841881,8.77263076 4.17655712,8.77263076 4.28671768,8.66247019 L5.81248614,7.12498301 L7.33592001,8.66247019 C7.44608057,8.77263076 7.62419599,8.77263076 7.73435656,8.66247019 L8.66247019,7.73669115 C8.77263076,7.62655347 8.77263076,7.44841516 8.66247019,7.3382546 L7.12498301,5.81248614 L8.66482767,4.28905227 C8.77498823,4.17889171 8.77498823,4.00077629 8.66482767,3.89061572 L7.73669115,2.96250209 C7.62655347,2.85234153 7.44841516,2.85234153 7.3382546,2.96250209 L5.81248614,4.49998927 Z"></path></clipPath><clipPath id="i3"><path d="M8,0 L8,36 L0,36 L0,0 L8,0 Z"></path></clipPath><clipPath id="i4"><path d="M131,0 L131,6 L0,6 L0,0 L131,0 Z"></path></clipPath></defs><g clip-path="url(#i0)"><polygon points="0,0 147,0 147,36 0,36 0,0" stroke="none" fill="#FFFFFF"></polygon><g transform="translate(1.0 0.0)"><polygon points="0,0 0,36 -1,36 -1,0 0,0 0,0" stroke="none" fill="#EDEDED"></polygon></g><g transform="translate(-1.0 0.0)"><polygon points="148,0 148,36 147,36 147,0 148,0 148,0" stroke="none" fill="#EDEDED"></polygon></g><g transform="translate(0.0 1.0)"><polygon points="147,0 0,0 0,-1 147,-1 147,0 147,0" stroke="none" fill="#EDEDED"></polygon></g><g transform="translate(0.0 -2.0)"><polygon points="147,36 147,38 0,38 0,36 147,36 147,36" stroke="none" fill="#0066CC"></polygon></g></g><g transform="translate(115.0 6.0)"><g transform="translate(7.0 9.0)"><g clip-path="url(#i1)"><polygon points="5.04041253e-14,0 9.29090831,0 9.29090831,5.27028925 5.04041253e-14,5.27028925 5.04041253e-14,0" stroke="none" fill="#151515"></polygon></g></g></g><g transform="translate(91.0 6.0)"><g transform="translate(6.0 6.0)"><g clip-path="url(#i2)"><polygon points="0,0 11.6249723,0 11.6249723,11.6249723 0,11.6249723 0,0" stroke="none" fill="#696E73"></polygon></g></g></g><g transform="translate(8.0 6.0)"><text transform="translate(0.0 16.0)" font-family="RedHatText-Regular, Red Hat Text" font-size="16.0" font-weight="normal" fill="#151515" text-anchor="left" line-spacing="24.0">Dropdown</text></g><g transform=""><g clip-path="url(#i3)"><polygon points="0,0 8,0 8,36 0,36 0,0" stroke="none" fill="rgba(146, 211, 0, 0.9)"></polygon></g><g clip-path="url(#i3)"><polygon points="0,0 8,0 8,36 0,36 0,0 0,0" stroke="#7EB200" stroke-width="2" fill="none" stroke-miterlimit="5"></polygon></g></g><g transform="translate(139.0 0.0)"><g clip-path="url(#i3)"><polygon points="0,0 8,0 8,36 0,36 0,0" stroke="none" fill="rgba(146, 211, 0, 0.9)"></polygon></g><g clip-path="url(#i3)"><polygon points="0,0 8,0 8,36 0,36 0,0 0,0" stroke="#7EB200" stroke-width="2" fill="none" stroke-miterlimit="5"></polygon></g></g><g transform="translate(8.0 0.0)"><g clip-path="url(#i4)"><polygon points="0,0 131,0 131,6 0,6 0,0" stroke="none" fill="rgba(243, 213, 59, 0.9)"></polygon></g><g clip-path="url(#i4)"><polygon points="0,0 131,0 131,6 0,6 0,0 0,0" stroke="#CAB534" stroke-width="2" fill="none" stroke-miterlimit="5"></polygon></g></g><g transform="translate(8.0 29.999999999999996)"><g transform=""><g clip-path="url(#i4)"><polygon points="0,0 131,0 131,6 0,6 0,0" stroke="none" fill="rgba(243, 213, 59, 0.9)"></polygon></g><g clip-path="url(#i4)"><polygon points="0,0 131,0 131,6 0,6 0,0 0,0" stroke="#CAB534" stroke-width="2" fill="none" stroke-miterlimit="5"></polygon></g></g></g></svg>