<svg xmlns="http://www.w3.org/2000/svg" width="489" height="339" viewBox="0 0 489 339">
  <g fill="none" fill-rule="evenodd">
    <g fill="#151515" font-family="RedHatText-Regular, Red Hat Text" font-size="14" transform="translate(38 317)">
      <text>
        <tspan x="0" y="14.2">1 </tspan>
      </text>
      <text>
        <tspan x="74" y="14">2</tspan>
      </text>
      <text>
        <tspan x="148" y="14">3</tspan>
      </text>
      <text>
        <tspan x="221" y="14">4</tspan>
      </text>
      <text>
        <tspan x="295" y="14">5</tspan>
      </text>
      <text>
        <tspan x="369" y="14">6</tspan>
      </text>
      <text>
        <tspan x="443" y="14">7</tspan>
      </text>
    </g>
    <g fill="#151515" font-family="RedHatText-Regular, Red Hat Text" font-size="14" transform="translate(0 2)">
      <text>
        <tspan x="15" y="308.2">0</tspan>
      </text>
      <text>
        <tspan x="9" y="279.2">10</tspan>
      </text>
      <text>
        <tspan x="6" y="249.4">20</tspan>
      </text>
      <text>
        <tspan x="6" y="220">30</tspan>
      </text>
      <text>
        <tspan x="6" y="190.6">40</tspan>
      </text>
      <text>
        <tspan x="6" y="161.2">50</tspan>
      </text>
      <text>
        <tspan x="6" y="131.8">60</tspan>
      </text>
      <text>
        <tspan x="7" y="102.4">70</tspan>
      </text>
      <text>
        <tspan x="6" y="73">80</tspan>
      </text>
      <text>
        <tspan x="6" y="43.6">90</tspan>
      </text>
      <text>
        <tspan x="0" y="14.2">100</tspan>
      </text>
    </g>
    <polygon fill="#D2D2D2" points="39 310 489 310 489 311 39 311"/>
    <g fill="#D2D2D2" transform="rotate(90 87 398)">
      <rect width="5" height="1" y="446"/>
      <polygon points="0 369 5 369 5 370 0 370"/>
      <polygon points="0 294 5 294 5 295 0 295"/>
      <polygon points="0 221 5 221 5 222 0 222"/>
      <polygon points="0 148 5 148 5 149 0 149"/>
      <polygon points="0 73 5 73 5 74 0 74"/>
      <polygon points="0 0 5 0 5 1 0 1"/>
    </g>
    <g fill="#D2D2D2" transform="translate(34 10)">
      <rect width="5" height="1" y="264"/>
      <polygon points="0 235 5 235 5 236 0 236"/>
      <polygon points="0 205 5 205 5 206 0 206"/>
      <polygon points="0 176 5 176 5 177 0 177"/>
      <polygon points="0 147 5 147 5 148 0 148"/>
      <polygon points="0 117 5 117 5 118 0 118"/>
      <polygon points="0 88 5 88 5 89 0 89"/>
      <polygon points="0 59 5 59 5 60 0 60"/>
      <polygon points="0 29 5 29 5 30 0 30"/>
      <polygon points="0 0 5 0 5 1 0 1"/>
    </g>
    <rect width="1" height="300" x="38" y="11" fill="#D2D2D2"/>
  </g>
</svg>
