<svg xmlns="http://www.w3.org/2000/svg" width="605" height="28" viewBox="0 0 605 28">
  <g fill="none" fill-rule="evenodd">
    <g fill="#151515" font-family="RedHatText-Regular, Red Hat Text" font-size="14" transform="translate(-5 7)">
      <text>
        <tspan x="0" y="14">0 </tspan>
      </text>
      <text>
        <tspan x="144" y="14">25</tspan>
      </text>
      <text>
        <tspan x="295" y="14">50</tspan>
      </text>
      <text>
        <tspan x="448" y="14">75</tspan>
      </text>
      <text>
        <tspan x="599" y="14">100</tspan>
      </text>
    </g>
    <polygon fill="#D2D2D2" points="0 0 605 0 605 1 0 1"/>
    <g fill="#D2D2D2" transform="rotate(90 225.5 226)">
      <rect width="5" height="1" y="450.5"/>
      <polygon points="0 305 5 305 5 306 0 306"/>
      <polygon points="0 153 5 153 5 154 0 154"/>
      <polygon points="0 0 5 0 5 1 0 1"/>
    </g>
    <polygon fill="#D2D2D2" points="602 2 607 2 607 3 602 3" transform="rotate(90 604.5 2.5)"/>
  </g>
</svg>
