<?xml version="1.0" encoding="UTF-8"?>
<svg width="24px" height="24px" viewBox="0 0 24 24" version="1.1" xmlns="http://www.w3.org/2000/svg" xmlns:xlink="http://www.w3.org/1999/xlink">
    <title></title>
    <g id="Icons" stroke="none" stroke-width="1" fill="none" fill-rule="evenodd">
        <g id="Icons-/-3.-Size-lg-/-Actions-/-compress-arrows-alt" fill="#6A6E73">
            <path d="M19.8726066,10.4976289 C20.8757475,10.4976289 21.3772722,9.28355102 20.6694797,8.57575851 L19.1226084,7.12263698 L23.7772756,2.46796973 C24.0679091,2.17733627 24.0679091,1.69920325 23.7772756,1.40856979 L22.5866809,0.217975097 C22.2960475,-0.0726583656 21.8179144,-0.0726583656 21.527281,0.217975097 L16.8726137,4.87264234 L15.414823,3.32577103 C14.7069847,2.61797853 13.4976218,3.11950321 13.4976218,4.12264413 L13.4976218,9.37263162 C13.4976218,9.99605847 13.9991922,10.4976289 14.6226191,10.4976289 L19.8726066,10.4976289 Z M9.37263162,10.4976289 C9.99605847,10.4976289 10.4976289,9.99605847 10.4976289,9.37263162 L10.4976289,4.12264413 C10.4976289,3.12421817 9.28355102,2.62264771 8.57575851,3.33044021 L7.12263698,4.87264234 L2.46796973,0.217975097 C2.17733627,-0.0726583656 1.69920325,-0.0726583656 1.40856979,0.217975097 L0.217975097,1.40856979 C-0.0726583656,1.69920325 -0.0726583656,2.17733627 0.217975097,2.46796973 L4.87264234,7.12263698 L3.32577103,8.58042769 C2.61797853,9.28826597 3.11950321,10.4976289 4.12264413,10.4976289 L9.37263162,10.4976289 Z M2.46796973,23.7772756 L7.12263698,19.1226084 L8.58042769,20.6694797 C9.28826597,21.3772722 10.4976289,20.8757475 10.4976289,19.8726066 L10.4976289,14.6226191 C10.4976289,13.9991922 9.99605847,13.4976218 9.37263162,13.4976218 L4.12264413,13.4976218 C3.11950321,13.4976218 2.61797853,14.7069847 3.32577103,15.4194922 L4.86797317,16.8726137 L0.217975097,21.527281 C-0.0726583656,21.8179144 -0.0726583656,22.2960475 0.217975097,22.5866809 L1.40856979,23.7772756 C1.69920325,24.0679091 2.17733627,24.0679091 2.46796973,23.7772756 Z M22.5866809,23.7819906 L23.7772756,22.5913501 C24.0679091,22.3007166 24.0679091,21.8225836 23.7772756,21.5319959 L19.1226084,16.8726137 L20.6694797,15.414823 C21.3772722,14.7069847 20.8757475,13.4976218 19.8726066,13.4976218 L14.6226191,13.4976218 C13.9991922,13.4976218 13.4976218,13.9991922 13.4976218,14.6226191 L13.4976218,19.8726066 C13.4976218,20.8757475 14.7116997,21.3772722 15.4194922,20.6694797 L16.8726137,19.1272775 L21.527281,23.7819906 C21.8179144,24.0725783 22.2960475,24.0725783 22.5866809,23.7819906 Z" id="compress-arrows-alt"></path>
        </g>
    </g>
</svg>