<?xml version="1.0" encoding="UTF-8"?>
<svg width="24px" height="24px" viewBox="0 0 24 24" version="1.1" xmlns="http://www.w3.org/2000/svg" xmlns:xlink="http://www.w3.org/1999/xlink">
    <title></title>
    <g id="Icons" stroke="none" stroke-width="1" fill="none" fill-rule="evenodd">
        <g id="Icons-/-3.-Size-lg-/-Actions-/-open-drawer-right" fill="#6A6E73">
            <path d="M23.3684211,2 C23.7172303,2 24,2.28290789 24,2.631875 L24,21.5786316 C24,21.9276184 23.7172303,22.2105263 23.3684211,22.2105263 L0.631578947,22.2105263 C0.282769737,22.2105263 0,21.9276184 0,21.5786316 L0,2.631875 C0,2.28290789 0.282769737,2 0.631578947,2 L23.3684211,2 Z M22.7360526,3.26376974 L1.26315789,3.26376974 L1.26315789,20.9467368 L22.7368421,20.9467368 L22.7360526,3.26376974 Z M20.8606717,4.53866316 C21.2101322,4.53866316 21.4934151,4.82180789 21.4934151,5.17107105 L21.4934151,19.0517947 C21.4934151,19.4010776 21.2101322,19.6842026 20.8606717,19.6842026 L14.5472309,19.6842026 C14.1977704,19.6842026 13.9144678,19.4010776 13.9144678,19.0517947 L13.9144678,5.17107105 C13.9144678,4.82180789 14.1977704,4.53866316 14.5472309,4.53866316 L20.8606717,4.53866316 Z" id="quick-start"></path>
        </g>
    </g>
</svg>