<?xml version="1.0" encoding="UTF-8"?>
<svg width="24px" height="24px" viewBox="0 0 24 24" version="1.1" xmlns="http://www.w3.org/2000/svg" xmlns:xlink="http://www.w3.org/1999/xlink">
    <title></title>
    <g id="Icons" stroke="none" stroke-width="1" fill="none" fill-rule="evenodd">
        <g id="Icons-/-3.-Size-lg-/-Actions-/-pficon-save" fill="#6A6E73">
            <path d="M23.7796875,4.2796875 L19.7203125,0.2203125 C19.5796875,0.0796875 19.3898437,0 19.190625,0 L0.75,0 C0.33515625,0 0,0.33515625 0,0.75 L0,23.25 C0,23.6648438 0.33515625,24 0.75,24 L23.25,24 C23.6648438,24 24,23.6648438 24,23.25 L24,4.81171875 C24,4.6125 23.9203125,4.4203125 23.7796875,4.2796875 Z M21,21 L3,21 L3,3 L18.2578125,3 L21,5.7421875 L21,21 Z M13.5,12 L13.5,6.3515625 C13.5,6.15703125 13.3335937,6 13.1414062,6 L10.921875,6 C10.6898437,6 10.5,6.18984375 10.5,6.421875 L10.5,12 L7.49765625,12 C6.8625,12 6.515625,12.7382813 6.91875,13.228125 L11.41875,18.6796875 C11.71875,19.0429688 12.2789062,19.0429688 12.5765625,18.6773438 L17.0414062,13.2257813 C17.4421875,12.7359375 17.0929687,12 16.4601562,12 L13.5,12 Z" id="pficon-save"></path>
        </g>
    </g>
</svg>