<?xml version="1.0" encoding="UTF-8"?>
<svg width="24px" height="24px" viewBox="0 0 24 24" version="1.1" xmlns="http://www.w3.org/2000/svg" xmlns:xlink="http://www.w3.org/1999/xlink">
    <title></title>
    <g id="Icons" stroke="none" stroke-width="1" fill="none" fill-rule="evenodd">
        <g id="Icons-/-3.-Size-lg-/-Actions-/-pficon-export" fill="#6A6E73">
            <path d="M22.8703125,14.9273437 L20.4117187,17.3859375 L10.7320313,7.7015625 C10.5960938,7.565625 10.4390625,7.49765625 10.2632813,7.49765625 C10.0875,7.49765625 9.93046875,7.565625 9.79453125,7.7015625 L7.70625,9.78984375 C7.5703125,9.92578125 7.50234375,10.0828125 7.50234375,10.2585937 C7.50234375,10.434375 7.5703125,10.5914062 7.70625,10.7273437 L17.390625,20.4070313 L14.9273438,22.8703125 C14.3085938,23.4890625 14.5171875,24 15.39375,24 L22.40625,24 C23.7773438,24 24,23.7585937 24,22.4039062 L24,15.3914063 C23.9976562,14.5171875 23.4890625,14.3085938 22.8703125,14.9273437 Z M3,3 L21,3 L21,8.47734375 C21.0001861,8.67615659 21.0794509,8.86672941 21.2203125,9.00703125 L23.3601563,11.146875 C23.596875,11.3835937 24,11.2148438 24,10.8820313 L24,0.53203125 C24,0.37734375 23.9507812,0.25078125 23.85,0.15 C23.7492187,0.04921875 23.6226562,0 23.4679687,0 L0.53203125,0 C0.37734375,0 0.25078125,0.04921875 0.15,0.15 C0.04921875,0.25078125 0,0.37734375 0,0.53203125 L0,23.4679687 C0,23.6226562 0.04921875,23.7492187 0.15,23.85 C0.25078125,23.9507812 0.37734375,24 0.53203125,24 L10.8609375,24 C11.0124113,23.9997408 11.1488552,23.9083781 11.2067867,23.7684199 C11.2647182,23.6284615 11.23276,23.4673941 11.1257812,23.3601563 L8.9859375,21.2203125 C8.84563566,21.0794509 8.65506284,21.0001861 8.45625,21 L3,21 L3,3 Z" id="pficon-export"></path>
        </g>
    </g>
</svg>