<?xml version="1.0" encoding="UTF-8"?>
<svg width="24px" height="24px" viewBox="0 0 24 24" version="1.1" xmlns="http://www.w3.org/2000/svg" xmlns:xlink="http://www.w3.org/1999/xlink">
    <title></title>
    <g id="Icons" stroke="none" stroke-width="1" fill="none" fill-rule="evenodd">
        <g id="Icons-/-3.-Size-lg-/-Actions-/-pficon-import" fill="#6A6E73">
            <path d="M21,21 L3,21 L3,14.0226562 C2.99981409,13.8238434 2.92054929,13.6332706 2.77968773,13.4929688 L0.639843994,11.353125 C0.533413273,11.2449985 0.372160076,11.2119763 0.231793869,11.2695624 C0.0914276627,11.3271485 0,11.4639055 0,11.615625 L0,23.4679687 C0,23.6226562 0.049218994,23.7492187 0.150000244,23.85 C0.250781494,23.9507812 0.377343994,24 0.532031494,24 L23.467969,24 C23.6226565,24 23.749219,23.9507812 23.8500002,23.85 C23.9507815,23.7492187 24,23.6226562 24,23.4679687 L24,0.53203125 C24,0.37734375 23.9507815,0.25078125 23.8500002,0.15 C23.749219,0.04921875 23.6226565,0 23.467969,0 L11.6390627,0 C11.4875889,0.000259182012 11.351145,0.0916218143 11.2932135,0.231580162 C11.2352821,0.371538511 11.2672402,0.532606003 11.374219,0.63984375 L13.5140627,2.7796875 C13.6543646,2.92054905 13.8449374,2.99981386 14.0437502,3 L21,3 L21,21 Z M15.3703127,7.42734375 L12.911719,9.88828125 L3.22968773,0.20390625 C3.09375023,0.06796875 2.93671898,0 2.76093773,0 C2.58515648,0 2.42812523,0.06796875 2.29218774,0.20390625 L0.203906494,2.2921875 C0.067968994,2.428125 2.43938008e-07,2.58515625 2.43938008e-07,2.7609375 C2.43938008e-07,2.93671875 0.067968994,3.09375 0.203906494,3.2296875 L9.88828148,12.909375 L7.42734398,15.3703125 C6.80859398,15.9890625 7.01718773,16.5 7.89375023,16.5 L14.9062502,16.5 C16.277344,16.5 16.5000002,16.2585938 16.5000002,14.9039062 L16.5000002,7.89140625 C16.4976565,7.0171875 15.9890627,6.80859375 15.3703127,7.42734375 Z" id="pficon-import"></path>
        </g>
    </g>
</svg>