<?xml version="1.0" encoding="UTF-8"?>
<svg width="24px" height="24px" viewBox="0 0 24 24" version="1.1" xmlns="http://www.w3.org/2000/svg" xmlns:xlink="http://www.w3.org/1999/xlink">
    <title></title>
    <g id="Icons" stroke="none" stroke-width="1" fill="none" fill-rule="evenodd">
        <g id="Icons-/-3.-Size-lg-/-Actions-/-plus-circle" fill="#6A6E73">
            <path d="M11.6249723,23.2499446 C18.046832,23.2499446 23.2499446,18.046832 23.2499446,11.6249723 C23.2499446,5.20311259 18.046832,0 11.6249723,0 C5.20311259,0 0,5.20311259 0,11.6249723 C0,18.046832 5.20311259,23.2499446 11.6249723,23.2499446 Z M12.9374692,18.3749562 L10.3124754,18.3749562 C10.0031195,18.3749562 9.74997675,18.1218135 9.74997675,17.8124575 L9.74997675,13.4999678 L5.43748704,13.4999678 C5.12813108,13.4999678 4.87498838,13.2468251 4.87498838,12.9374692 L4.87498838,10.3124754 C4.87498838,10.0031195 5.12813108,9.74997675 5.43748704,9.74997675 L9.74997675,9.74997675 L9.74997675,5.43748704 C9.74997675,5.12813108 10.0031195,4.87498838 10.3124754,4.87498838 L12.9374692,4.87498838 C13.2468251,4.87498838 13.4999678,5.12813108 13.4999678,5.43748704 L13.4999678,9.74997675 L17.8124575,9.74997675 C18.1218135,9.74997675 18.3749562,10.0031195 18.3749562,10.3124754 L18.3749562,12.9374692 C18.3749562,13.2468251 18.1218135,13.4999678 17.8124575,13.4999678 L13.4999678,13.4999678 L13.4999678,17.8124575 C13.4999678,18.1218135 13.2468251,18.3749562 12.9374692,18.3749562 Z" id="plus-circle"></path>
        </g>
    </g>
</svg>