<?xml version="1.0" encoding="UTF-8"?>
<svg width="24px" height="24px" viewBox="0 0 24 24" version="1.1" xmlns="http://www.w3.org/2000/svg" xmlns:xlink="http://www.w3.org/1999/xlink">
    <title></title>
    <g id="Icons" stroke="none" stroke-width="1" fill="none" fill-rule="evenodd">
        <g id="Icons-/-3.-Size-lg-/-Actions-/-share-square" fill="#6A6E73">
            <path d="M9.27612906,18.5331613 C7.36405477,12.1469155 10.223011,10.546486 16.9999571,10.5010302 L16.9999571,13.8742826 C16.9999571,14.8658879 18.1858826,15.3640709 18.897383,14.6921213 L25.64755,8.31786887 C26.1175806,7.87388495 26.1172144,7.12567201 25.64755,6.68210007 L18.897383,0.30771036 C18.1867066,-0.363552688 16.9999571,0.133028159 16.9999571,1.12554899 L16.9999571,4.50127336 C10.1374094,4.53931343 4.62498659,5.8782232 4.62498659,12.6252317 C4.62498659,15.304104 6.27741795,17.9580284 8.1039822,19.3455068 C8.67398817,19.7785044 9.48628786,19.2350029 9.27612906,18.5331613 Z M17.7499553,23.9999451 C18.9925976,23.9999451 19.9999499,22.9925928 19.9999499,21.7499505 L19.9999499,17.5871949 C19.9999499,17.1986918 19.615704,16.9278337 19.2494482,17.0573805 C18.9486982,17.1637645 18.4457544,17.2500986 18.1267855,17.2500986 C17.9936223,17.2500986 17.7786112,17.234672 17.6468214,17.2156748 C17.3060629,17.1666484 16.9999571,17.4272985 16.9999571,17.7715817 L16.9999571,20.9999523 L2,20.9999523 L2,5.9999952 L4.38667539,5.9999952 C4.518923,5.9998965 4.70051741,5.92235151 4.79206993,5.82686224 C5.49295022,5.09714291 6.30314421,4.51953809 7.1833301,4.06081421 C7.70504211,3.78890323 7.51172897,2.9999952 6.92341251,2.9999952 L1.24999464,2.9999952 C0.00735233461,2.9999952 -1,4.00734754 -1,5.24998984 L-1,21.7499505 C-1,22.9925928 0.00735233461,23.9999451 1.24999464,23.9999451 L17.7499553,23.9999451 Z" id="share-square"></path>
        </g>
    </g>
</svg>