<?xml version="1.0" encoding="UTF-8"?>
<svg width="24px" height="24px" viewBox="0 0 24 24" version="1.1" xmlns="http://www.w3.org/2000/svg" xmlns:xlink="http://www.w3.org/1999/xlink">
    <title></title>
    <g id="Icons" stroke="none" stroke-width="1" fill="none" fill-rule="evenodd">
        <g id="Icons-/-3.-Size-lg-/-Actions-/-sync-alt" fill="#6A6E73">
            <path d="M3.44090976,10.1249759 C3.70004916,10.1249759 3.92403239,9.94745553 3.98702052,9.69605232 C4.85246646,6.24269142 7.98699573,3.7531954 11.6178312,3.74999106 C13.6353282,3.74820579 15.5370571,4.50035548 17.0024466,5.87249882 L15.0454201,7.82947962 C14.336712,8.53823343 14.8386487,9.74997675 15.8409657,9.74997675 L22.1249472,9.74997675 C22.7462684,9.74997675 23.2499446,9.24630059 23.2499446,8.62497944 L23.2499446,2.34099784 C23.2499446,1.33868089 22.0382012,0.836744221 21.3294932,1.54545225 L19.6553639,3.21958156 C17.568287,1.22510999 14.7397262,0 11.6249723,0 C5.94436754,0 1.21558853,4.07454473 0.201369759,9.4604877 C0.136367473,9.80591534 0.403380386,10.1249759 0.754804719,10.1249759 L3.44090976,10.1249759 Z M11.6249723,23.2499446 C17.305577,23.2499446 22.034356,19.1753998 23.0486206,13.7895484 C23.1136229,13.4441208 22.8466557,13.1250603 22.4951856,13.1250603 L19.8090348,13.1250603 C19.5498954,13.1250603 19.3259122,13.3025806 19.262924,13.5539838 C18.3970203,17.0089011 15.2612551,19.4967034 11.6322965,19.4999993 C9.61475369,19.5018303 7.71288749,18.7496806 6.24749792,17.3774915 L8.20452451,15.4204649 C8.91323253,14.7117111 8.41129586,13.4999678 7.40897892,13.4999678 L1.12499732,13.4999678 C0.503676167,13.4999678 0,14.003644 0,14.6249651 L0,20.9089467 C0,21.9112637 1.21174333,22.4132003 1.92045135,21.7044923 L3.59458066,20.030363 C5.6816576,22.0248346 8.51021836,23.2499446 11.6249723,23.2499446 Z" id="sync-alt"></path>
        </g>
    </g>
</svg>