<?xml version="1.0" encoding="UTF-8"?><svg version="1.1" width="111px" height="40px" viewBox="0 0 111.0 40.0" xmlns="http://www.w3.org/2000/svg" xmlns:xlink="http://www.w3.org/1999/xlink"><defs><clipPath id="i0"><path d="M7.47184498,0.0956950242 C7.81248137,-0.0324174634 8.18748048,-0.0324174634 8.52497357,0.0988383272 L15.0249581,2.53633252 C15.6093378,2.75508199 15.9968491,3.31443735 15.9968491,3.93943586 L15.9968491,10.9738124 C15.9968491,11.5394238 15.6780937,12.0613037 15.168726,12.3144159 L8.66874154,15.5644081 C8.24686754,15.7769015 7.74998152,15.7769015 7.32810753,15.5644081 L0.828123026,12.3144159 C0.321868129,12.0613037 0,11.5425366 0,10.9738124 L0,3.93943586 C0,3.31443735 0.387511283,2.75193869 0.971860476,2.53318921 Z M13.9999666,6.47693591 L8.99997854,8.50818107 L8.99997854,13.1613072 L13.9999666,10.6613131 L13.9999666,6.47693591 Z M7.99998093,2.03633371 L1.99999523,4.28632834 L1.99999523,4.32069105 L7.99998093,6.75818524 L13.9999666,4.32069105 L13.9999666,4.28632834 L7.99998093,2.03633371 Z"></path></clipPath></defs><g transform="translate(44.0 8.0)"><text transform="translate(0.0 16.0)" font-family="RedHatText-Regular, Red Hat Text" font-size="16.0" font-weight="normal" fill="#0066CC" text-anchor="left" line-spacing="24.0">Toggle</text></g><g transform="translate(16.0 8.0)"><g transform="translate(4.0 4.000000000000073)"><g clip-path="url(#i0)"><polygon points="0,1.38777878e-17 15.9968491,1.38777878e-17 15.9968491,15.7237782 0,15.7237782 0,1.38777878e-17" stroke="none" fill="#0066CC"></polygon></g></g></g></svg>