<?xml version="1.0" encoding="UTF-8"?>
<svg width="24px" height="24px" viewBox="0 0 24 24" version="1.1" xmlns="http://www.w3.org/2000/svg" xmlns:xlink="http://www.w3.org/1999/xlink">
    <title></title>
    <g id="Icons" stroke="none" stroke-width="1" fill="none" fill-rule="evenodd">
        <g id="Icons-/-1.-Size-md-/-View-Type-/-th" fill="#151515">
            <path d="M7.91664716,9 C8.33086126,9 8.66664537,8.66420635 8.66664537,8.24999225 L8.66664537,5.74999821 C8.66664537,5.33578411 8.33086126,5 7.91664716,5 L4.74999821,5 C4.33578411,5 4,5.33578411 4,5.74999821 L4,8.24999225 C4,8.66420635 4.33578411,9 4.74999821,9 L7.91664716,9 Z M19.2499636,9 C19.6641777,9 19.9999619,8.66420635 19.9999619,8.24999225 L19.9999619,5.74999821 C19.9999619,5.33578411 19.6641777,5 19.2499636,5 L16.0833147,5 C15.6691006,5 15.3333165,5.33578411 15.3333165,5.74999821 L15.3333165,8.24999225 C15.3333165,8.66420635 15.6691006,9 16.0833147,9 L19.2499636,9 Z M13.5832901,9 C13.9975348,9 14.3333189,8.66420635 14.3333189,8.24999225 L14.3333189,5.74999821 C14.3333189,5.33578411 13.9975348,5 13.5833207,5 L10.4166412,5 C10.0024271,5 9.66664298,5.33578411 9.66664298,5.74999821 L9.66664298,8.24999225 C9.66664298,8.66420635 10.0024271,9 10.4166412,9 L13.5832901,9 Z M13.5832901,13.9999881 C13.9975348,13.9999881 14.3333189,13.6641944 14.3333189,13.2499803 L14.3333189,10.7499863 C14.3333189,10.3357722 13.9975348,9.99998808 13.5833207,9.99998808 L10.4166412,9.99998808 C10.0024271,9.99998808 9.66664298,10.3357722 9.66664298,10.7499863 L9.66664298,13.2499803 C9.66664298,13.6641944 10.0024271,13.9999881 10.4166412,13.9999881 L13.5832901,13.9999881 Z M7.91664716,13.9999881 C8.33086126,13.9999881 8.66664537,13.6641944 8.66664537,13.2499803 L8.66664537,10.7499863 C8.66664537,10.3357722 8.33086126,9.99998808 7.91664716,9.99998808 L4.74999821,9.99998808 C4.33578411,9.99998808 4,10.3357722 4,10.7499863 L4,13.2499803 C4,13.6641944 4.33578411,13.9999881 4.74999821,13.9999881 L7.91664716,13.9999881 Z M19.2499636,13.9999881 C19.6641777,13.9999881 19.9999619,13.6641944 19.9999619,13.2499803 L19.9999619,10.7499863 C19.9999619,10.3357722 19.6641777,9.99998808 19.2499636,9.99998808 L16.0833147,9.99998808 C15.6691006,9.99998808 15.3333165,10.3357722 15.3333165,10.7499863 L15.3333165,13.2499803 C15.3333165,13.6641944 15.6691006,13.9999881 16.0833147,13.9999881 L19.2499636,13.9999881 Z M7.91664716,18.9999762 C8.33086126,18.9999762 8.66664537,18.6641825 8.66664537,18.2499684 L8.66664537,15.7499744 C8.66664537,15.3357603 8.33086126,14.9999762 7.91664716,14.9999762 L4.74999821,14.9999762 C4.33578411,14.9999762 4,15.3357603 4,15.7499744 L4,18.2499684 C4,18.6641825 4.33578411,18.9999762 4.74999821,18.9999762 L7.91664716,18.9999762 Z M19.2499636,18.9999762 C19.6641777,18.9999762 19.9999619,18.6641825 19.9999619,18.2499684 L19.9999619,15.7499744 C19.9999619,15.3357603 19.6641777,14.9999762 19.2499636,14.9999762 L16.0833147,14.9999762 C15.6691006,14.9999762 15.3333165,15.3357603 15.3333165,15.7499744 L15.3333165,18.2499684 C15.3333165,18.6641825 15.6691006,18.9999762 16.0833147,18.9999762 L19.2499636,18.9999762 Z M13.5832901,18.9999762 C13.9975042,18.9999762 14.3332884,18.6641825 14.3332884,18.2499684 L14.3332884,15.7499744 C14.3332884,15.3357603 13.9975042,14.9999762 13.5832901,14.9999762 L10.4166412,14.9999762 C10.0024271,14.9999762 9.66664298,15.3357603 9.66664298,15.7499744 L9.66664298,18.2499684 C9.66664298,18.6641825 10.0024271,18.9999762 10.4166412,18.9999762 L13.5832901,18.9999762 Z" id="th"></path>
        </g>
    </g>
</svg>