<?xml version="1.0" encoding="UTF-8"?>
<svg width="147px" height="40px" viewBox="0 0 147 40" version="1.1" xmlns="http://www.w3.org/2000/svg" xmlns:xlink="http://www.w3.org/1999/xlink">
    <title></title>
    <defs>
        <linearGradient x1="49.9422414%" y1="3.14212121%" x2="49.9422414%" y2="100.337273%" id="linearGradient-1">
            <stop stop-color="#00F1FF" offset="0%"></stop>
            <stop stop-color="#0076C1" offset="100%"></stop>
        </linearGradient>
    </defs>
    <g id="Application-launcher" stroke="none" stroke-width="1" fill="none" fill-rule="evenodd">
        <g id="Application-launcher-/-2.-Menu-Item-/-2.-With-icons-/-2.-With-favoriting-/-1.-Default-/-1.-Favorited">
            <rect fill="#FFFFFF" x="0" y="0" width="147" height="40"></rect>
            <text id="✏️-Label" font-family="RedHatText-Regular, Red Hat Text" font-size="16" font-weight="normal" line-spacing="24" fill="#151515">
                <tspan x="48" y="24">Option</tspan>
            </text>
            <g id="Icons-/-Small-/-star" transform="translate(116.910159, 14.000000)" fill="#F0AB00">
                <path d="M3.20624413,11.9135414 L6.26952266,10.3033844 L9.33280118,11.9135414 C9.87655446,12.1994828 10.5257534,11.740118 10.4202849,11.1236949 L9.83434875,7.71354683 L12.3116912,5.29949008 C12.7570026,4.86589736 12.5109094,4.1088725 11.8968438,4.01981479 L8.4726424,3.5206018 L6.94218188,0.417475048 C6.66795921,-0.135639478 5.8734207,-0.142666133 5.59686343,0.417475048 L4.06640291,3.5206018 L0.642201479,4.01981479 C0.0281358651,4.1088725 -0.217957298,4.86589736 0.22735414,5.29949008 L2.70469656,7.71354683 L2.11876046,11.1236949 C2.01329196,11.740118 2.66249085,12.2018174 3.20624413,11.9135414 Z" id="star"></path>
            </g>
            <g id="Icons-/-Social-/-Gitlab" transform="translate(20.000000, 12.501863)" fill="url(#linearGradient-1)" fill-rule="nonzero">
                <path d="M5.6091954,11.7485714 L3.2183908,12.2971429 L0,7.77142857 L7.81609195,0.182857143 L8,-1.77635684e-15 L8.18390805,0.182857143 L16,7.77142857 L12.7816092,12.2971429 L10.3908046,11.7485714 L8,15.0857143 L5.6091954,11.7485714 Z M8,14.3085714 L9.93103448,11.6571429 L9.33333333,11.52 L8.04597701,13.3942857 L6.66666667,11.52 L6.06896552,11.6571429 L8,14.3085714 Z M8.04597701,12.5714286 L8.96551724,11.2 L8,1.92 L7.03448276,11.2 L8.04597701,12.5714286 Z M12.5517241,11.7485714 L15.3563218,7.81714286 L10.6206897,3.2 L13.1494253,6.26285714 L11.7241379,8.22857143 L12.183908,9.28 L10.7126437,11.3371429 L12.5517241,11.7485714 Z M3.40229885,11.7485714 L5.28735632,11.3371429 L3.81609195,9.28 L4.27586207,8.22857143 L2.85057471,6.26285714 L5.33333333,3.2 L0.597701149,7.81714286 L3.40229885,11.7485714 Z M5.79310345,11.2 L6.3908046,11.0628571 L4.59770115,8.64 L4.36781609,9.18857143 L5.79310345,11.2 Z M10.2068966,11.2 L11.6321839,9.18857143 L11.4022989,8.64 L9.6091954,11.0628571 L10.2068966,11.2 Z M9.37931034,10.56 L11.1724138,8.13714286 L8.50574713,2.10285714 L9.37931034,10.56 Z M6.57471264,10.56 L7.49425287,2.10285714 L4.82758621,8.18285714 L6.57471264,10.56 Z M4.50574713,7.72571429 L7.17241379,1.73714286 L3.44827586,6.26285714 L4.50574713,7.72571429 Z M11.4942529,7.72571429 L12.5517241,6.26285714 L8.82758621,1.73714286 L11.4942529,7.72571429 Z" id="pf-shape"></path>
            </g>
        </g>
    </g>
</svg>