<?xml version="1.0" encoding="UTF-8"?>
<svg width="147px" height="40px" viewBox="0 0 147 40" version="1.1" xmlns="http://www.w3.org/2000/svg" xmlns:xlink="http://www.w3.org/1999/xlink">
    <title></title>
    <g id="Application-launcher" stroke="none" stroke-width="1" fill="none" fill-rule="evenodd">
        <g id="Application-launcher-/-2.-Menu-Item-/-2.-With-icons-/-2.-With-favoriting-/-1.-Default-/-2.-Unfavorited">
            <rect fill="#FFFFFF" x="0" y="0" width="147" height="40"></rect>
            <text id="✏️-Label" font-family="RedHatText-Regular, Red Hat Text" font-size="16" font-weight="normal" line-spacing="24" fill="#151515">
                <tspan x="48" y="24">Option</tspan>
            </text>
            <g id="gitlab" transform="translate(16.000000, 8.000000)" fill="#151515">
                <path d="M9.0544942,10.6710833 L12.0013561,19.8585614 L14.9482179,10.6710833 L19.0700953,10.6710833 L17.3044745,5.20860241 C17.2075815,4.93046586 16.8138446,4.93046586 16.7138387,5.20860241 L14.9451052,10.6710833 L9.05760698,10.6710833 C9.05609776,10.6710833 8.64026158,9.38697391 8.21222482,8.06395214 L8.05192454,7.56842698 C7.65367109,6.33721416 7.28887341,5.20860241 7.28887341,5.20860241 C7.19198033,4.93046586 6.79824347,4.93046586 6.69823761,5.20860241 L4.93261682,10.6710833 L9.0544942,10.6710833 Z M11.9982433,19.8585614 L4.92950403,10.6710833 L4.02951228,13.4210767 C3.94824417,13.6710833 4.03888116,13.9491822 4.25137455,14.1085751 L11.9982433,19.8585614 Z M12.0013561,19.8585614 L19.7482248,14.1085751 C19.963831,13.9491822 20.0513247,13.6710833 19.9731999,13.4210767 L19.0732081,10.6710833 L12.0013561,19.8585614 Z"></path>
            </g>
            <g id="Icons-/-Small-/-star" transform="translate(115.000000, 8.000000)" fill="#D2D2D2">
                <path d="M5.11640325,17.9135414 L8.17968177,16.3033844 L11.2429603,17.9135414 C11.7867136,18.1994828 12.4359125,17.740118 12.330444,17.1236949 L11.7445079,13.7135468 L14.2218503,11.2994901 C14.6671617,10.8658974 14.4210686,10.1088725 13.8070029,10.0198148 L10.3828015,9.5206018 L8.852341,6.41747505 C8.57811832,5.86436052 7.78357981,5.85733387 7.50702255,6.41747505 L5.97656202,9.5206018 L2.55236059,10.0198148 C1.93829498,10.1088725 1.69220182,10.8658974 2.13751325,11.2994901 L4.61485568,13.7135468 L4.02891957,17.1236949 C3.92345107,17.740118 4.57264997,18.2018174 5.11640325,17.9135414 Z" id="star"></path>
            </g>
        </g>
    </g>
</svg>