<?xml version="1.0" encoding="UTF-8"?><svg version="1.1" width="24px" height="24px" viewBox="0 0 24.0 24.0" xmlns="http://www.w3.org/2000/svg" xmlns:xlink="http://www.w3.org/1999/xlink"><defs><clipPath id="i0"><path d="M3.74999106,14.9999642 C4.16399154,14.9999642 4.49998927,15.335962 4.49998927,15.7499624 L4.49998927,18.7499553 C4.49998927,19.1639558 4.16399154,19.4999535 3.74999106,19.4999535 L0.749998212,19.4999535 C0.335997734,19.4999535 0,19.1639558 0,18.7499553 L0,15.7499624 C0,15.335962 0.335997734,14.9999642 0.749998212,14.9999642 Z M23.2499446,15.7499624 C23.663945,15.7499624 23.9999428,16.0859602 23.9999428,16.4999607 L23.9999428,17.9999571 C23.9999428,18.4139576 23.663945,18.7499624 23.2499446,18.7499624 L8.24998033,18.7499624 C7.83597985,18.7499624 7.49998212,18.4139576 7.49998212,17.9999571 L7.49998212,16.4999607 C7.49998212,16.0859602 7.83597985,15.7499624 8.24998033,15.7499624 Z M3.74999106,7.49998212 C4.16399154,7.49998212 4.49998927,7.83597985 4.49998927,8.24998033 L4.49998927,11.2499732 C4.49998927,11.6639737 4.16399154,11.9999714 3.74999106,11.9999714 L0.749998212,11.9999714 C0.335997734,11.9999714 0,11.6639737 0,11.2499732 L0,8.24998033 C0,7.83597985 0.335997734,7.49998212 0.749998212,7.49998212 Z M23.2499446,8.24998033 C23.663945,8.24998033 23.9999428,8.58597806 23.9999428,8.99997854 L23.9999428,10.499975 C23.9999428,10.9139754 23.663945,11.2499803 23.2499446,11.2499803 L8.24998033,11.2499803 C7.83597985,11.2499803 7.49998212,10.9139754 7.49998212,10.499975 L7.49998212,8.99997854 C7.49998212,8.58597806 7.83597985,8.24998033 8.24998033,8.24998033 Z M3.74999106,0 C4.16399154,0 4.49998927,0.335997734 4.49998927,0.749998212 L4.49998927,3.74999106 C4.49998927,4.16399154 4.16399154,4.49998927 3.74999106,4.49998927 L0.749998212,4.49998927 C0.335997734,4.49998927 0,4.16399154 0,3.74999106 L0,0.749998212 C0,0.335997734 0.335997734,0 0.749998212,0 Z M23.2499446,0.749998212 C23.663945,0.749998212 23.9999428,1.08599595 23.9999428,1.49999642 L23.9999428,2.99999285 C23.9999428,3.41399333 23.663945,3.74999821 23.2499446,3.74999821 L8.24998033,3.74999821 C7.83597985,3.74999821 7.49998212,3.41399333 7.49998212,2.99999285 L7.49998212,1.49999642 C7.49998212,1.08599595 7.83597985,0.749998212 8.24998033,0.749998212 Z"></path></clipPath></defs><g transform="translate(0.0 2.0)"><g clip-path="url(#i0)"><polygon points="0,0 23.9999428,0 23.9999428,19.4999535 0,19.4999535 0,0" stroke="none" fill="#151515"></polygon></g></g></svg>