<?xml version="1.0" encoding="UTF-8"?>
<svg width="24px" height="24px" viewBox="0 0 24 24" version="1.1" xmlns="http://www.w3.org/2000/svg" xmlns:xlink="http://www.w3.org/1999/xlink">
    <title></title>
    <g id="Icons" stroke="none" stroke-width="1" fill="none" fill-rule="evenodd">
        <g id="Icons/3.-Size-lg/View-Type/pficon-topology" fill="#151515">
            <path d="M19.3632353,1 C17.5830882,1 16.1360294,2.44705882 16.1360294,4.22720588 C16.1360294,4.8625 16.3169118,5.45147059 16.6345588,5.95220588 L14.7794118,7.84926471 C13.8198529,7.09705882 12.6110294,6.64705882 11.2941176,6.64705882 C10.5397059,6.64705882 9.81838235,6.79485294 9.16102941,7.06397059 L8.57205882,6.28529412 C8.27426471,5.88161765 7.74044118,5.76691176 7.3875,6.03382353 C7.03014706,6.29632353 6.97941176,6.84117647 7.27058824,7.24485294 L7.7625,7.88897059 C6.47205882,8.92352941 5.64705882,10.5117647 5.64705882,12.2941176 C5.64705882,12.7948529 5.71323529,13.2801471 5.83455882,13.7433824 L5.27205882,14.0345588 C4.84852941,14.2419118 4.64779412,14.7404412 4.81764706,15.1441176 C4.9875,15.5477941 5.47720588,15.7088235 5.89632353,15.5080882 L6.46102941,15.2147059 C7.25955882,16.5338235 8.58308824,17.5 10.1426471,17.8220588 L10.0102941,19.4323529 C9.12132353,19.6860294 8.47058824,20.5022059 8.47058824,21.4705882 C8.47058824,22.6397059 9.41911765,23.5882353 10.5882353,23.5882353 C11.757347,23.5882353 12.7058824,22.6397059 12.7058824,21.4705882 C12.7058824,20.5948529 12.1742647,19.8448529 11.4176471,19.5227941 L11.5477941,17.9367647 C13.3522059,17.8573529 14.9382353,16.9286765 15.9132353,15.5411765 L17.4220588,16.5691176 C17.8257353,16.8470588 18.3551471,16.7698529 18.5911765,16.3970588 C18.8272059,16.0198529 18.6904412,15.4904412 18.2823529,15.2191176 L16.6455882,14.1051471 C16.8375,13.5360294 16.9411765,12.9272059 16.9411765,12.2941176 C16.9411765,11.0720588 16.5529412,9.94044118 15.8933824,9.01838235 L17.8102941,7.06176471 C18.2691176,7.31323529 18.7985294,7.46102941 19.3632353,7.46102941 C21.1433824,7.46102941 22.5904412,6.01397059 22.5904412,4.23382353 C22.5904412,2.45367647 21.1433824,1 19.3632353,1 Z M11.6470588,21.4705882 C11.6470588,22.0551471 11.1727941,22.5294118 10.5882353,22.5294118 C10.0036765,22.5294118 9.52941176,22.0551471 9.52941176,21.4705882 C9.52941176,20.8860294 10.0036765,20.4117647 10.5882353,20.4117647 C11.1727941,20.4117647 11.6470588,20.8860294 11.6470588,21.4705882 Z M11.2941176,15.1176471 C9.73455882,15.1176471 8.47058824,13.8536765 8.47058824,12.2941176 C8.47058824,10.7345588 9.73455882,9.47058824 11.2941176,9.47058824 C12.8536765,9.47058824 14.1176471,10.7345588 14.1176471,12.2941176 C14.1176471,13.8536765 12.8558824,15.1176471 11.2941176,15.1176471 Z M19.3632353,5.94117647 C18.4147059,5.94117647 17.6492647,5.17573529 17.6492647,4.22720588 C17.6492647,3.27867647 18.4147059,2.51323529 19.3632353,2.51323529 C20.3117647,2.51323529 21.0772059,3.27867647 21.0772059,4.22720588 C21.0772059,5.17573529 20.3117647,5.94117647 19.3632353,5.94117647 Z M19.8705882,16.7125 C20.8147059,15.7683824 22.3477941,15.7683824 23.2919118,16.7125 C23.7639706,17.1845588 24,17.8044118 24,18.4242647 C24,19.0441176 23.7639706,19.6617647 23.2919118,20.1360294 C22.3477941,21.0801471 20.8147059,21.0801471 19.8705882,20.1360294 C18.9264706,19.1897059 18.9264706,17.6588235 19.8705882,16.7125 M5.64705882,1.05073529 C6.98382353,1.05073529 8.06691176,2.13382353 8.06691176,3.47058824 C8.06691176,4.80735294 6.98382353,5.89044118 5.64705882,5.89044118 C4.31029412,5.89044118 3.22720588,4.80735294 3.22720588,3.47058824 C3.22720588,2.13382353 4.31029412,1.05073529 5.64705882,1.05073529 M2.11764706,14.4117647 C3.28676471,14.4117647 4.23529412,15.3602941 4.23529412,16.5294118 C4.23529412,17.6985294 3.28676471,18.6470588 2.11764706,18.6470588 C0.948529412,18.6470588 0,17.6985294 0,16.5294118 C0,15.3602941 0.948529412,14.4117647 2.11764706,14.4117647" id="pficon-topology"></path>
        </g>
    </g>
</svg>