<?xml version="1.0" encoding="UTF-8"?><svg version="1.1" width="24px" height="24px" viewBox="0 0 24.0 24.0" xmlns="http://www.w3.org/2000/svg" xmlns:xlink="http://www.w3.org/1999/xlink"><defs><clipPath id="i0"><path d="M19.3632353,0 C21.1433824,0 22.5904412,1.45367647 22.5904412,3.23382353 C22.5904412,5.01397059 21.1433824,6.46102941 19.3632353,6.46102941 C18.7985294,6.46102941 18.2691176,6.31323529 17.8102941,6.06176471 L15.8933824,8.01838235 C16.5529412,8.94044118 16.9411765,10.0720588 16.9411765,11.2941176 C16.9411765,11.9272059 16.8375,12.5360294 16.6455882,13.1051471 L18.2823529,14.2191176 C18.6904412,14.4904412 18.8272059,15.0198529 18.5911765,15.3970588 C18.3551471,15.7698529 17.8257353,15.8470588 17.4220588,15.5691176 L15.9132353,14.5411765 C14.9382353,15.9286765 13.3522059,16.8573529 11.5477941,16.9367647 L11.4176471,18.5227941 C12.1742647,18.8448529 12.7058824,19.5948529 12.7058824,20.4705882 C12.7058824,21.6397059 11.757347,22.5882353 10.5882353,22.5882353 C9.41911765,22.5882353 8.47058824,21.6397059 8.47058824,20.4705882 C8.47058824,19.5022059 9.12132353,18.6860294 10.0102941,18.4323529 L10.1426471,16.8220588 C8.58308824,16.5 7.25955882,15.5338235 6.46102941,14.2147059 L5.89632353,14.5080882 C5.47720588,14.7088235 4.9875,14.5477941 4.81764706,14.1441176 C4.64779412,13.7404412 4.84852941,13.2419118 5.27205882,13.0345588 L5.83455882,12.7433824 C5.71323529,12.2801471 5.64705882,11.7948529 5.64705882,11.2941176 C5.64705882,9.51176471 6.47205882,7.92352941 7.7625,6.88897059 L7.27058824,6.24485294 C6.97941176,5.84117647 7.03014706,5.29632353 7.3875,5.03382353 C7.74044118,4.76691176 8.27426471,4.88161765 8.57205882,5.28529412 L9.16102941,6.06397059 C9.81838235,5.79485294 10.5397059,5.64705882 11.2941176,5.64705882 C12.6110294,5.64705882 13.8198529,6.09705882 14.7794118,6.84926471 L16.6345588,4.95220588 C16.3169118,4.45147059 16.1360294,3.8625 16.1360294,3.22720588 C16.1360294,1.44705882 17.5830882,0 19.3632353,0 Z M10.5882353,19.4117647 C10.0036765,19.4117647 9.52941176,19.8860294 9.52941176,20.4705882 C9.52941176,21.0551471 10.0036765,21.5294118 10.5882353,21.5294118 C11.1727941,21.5294118 11.6470588,21.0551471 11.6470588,20.4705882 C11.6470588,19.8860294 11.1727941,19.4117647 10.5882353,19.4117647 Z M23.2919118,15.7125 C23.7639706,16.1845588 24,16.8044118 24,17.4242647 C24,18.0441176 23.7639706,18.6617647 23.2919118,19.1360294 C22.3477941,20.0801471 20.8147059,20.0801471 19.8705882,19.1360294 C18.9264706,18.1897059 18.9264706,16.6588235 19.8705882,15.7125 C20.8147059,14.7683824 22.3477941,14.7683824 23.2919118,15.7125 Z M2.11764706,13.4117647 C3.28676471,13.4117647 4.23529412,14.3602941 4.23529412,15.5294118 C4.23529412,16.6985294 3.28676471,17.6470588 2.11764706,17.6470588 C0.948529412,17.6470588 0,16.6985294 0,15.5294118 C0,14.3602941 0.948529412,13.4117647 2.11764706,13.4117647 Z M11.2941176,8.47058824 C9.73455882,8.47058824 8.47058824,9.73455882 8.47058824,11.2941176 C8.47058824,12.8536765 9.73455882,14.1176471 11.2941176,14.1176471 C12.8558824,14.1176471 14.1176471,12.8536765 14.1176471,11.2941176 C14.1176471,9.73455882 12.8536765,8.47058824 11.2941176,8.47058824 Z M19.3632353,1.51323529 C18.4147059,1.51323529 17.6492647,2.27867647 17.6492647,3.22720588 C17.6492647,4.17573529 18.4147059,4.94117647 19.3632353,4.94117647 C20.3117647,4.94117647 21.0772059,4.17573529 21.0772059,3.22720588 C21.0772059,2.27867647 20.3117647,1.51323529 19.3632353,1.51323529 Z M5.64705882,0.0507352941 C6.98382353,0.0507352941 8.06691176,1.13382353 8.06691176,2.47058824 C8.06691176,3.80735294 6.98382353,4.89044118 5.64705882,4.89044118 C4.31029412,4.89044118 3.22720588,3.80735294 3.22720588,2.47058824 C3.22720588,1.13382353 4.31029412,0.0507352941 5.64705882,0.0507352941 Z"></path></clipPath></defs><g transform="translate(0.0 1.0)"><g clip-path="url(#i0)"><polygon points="0,0 24,0 24,22.5882353 0,22.5882353 0,0" stroke="none" fill="#151515"></polygon></g></g></svg>