<?xml version="1.0" encoding="UTF-8"?><svg version="1.1" width="24px" height="24px" viewBox="0 0 24.0 24.0" xmlns="http://www.w3.org/2000/svg" xmlns:xlink="http://www.w3.org/1999/xlink"><defs><clipPath id="i0"><path d="M12,0 C18.6274821,0 24,5.3725179 24,12 C24,14.1999919 23.40625,16.2608236 22.3725179,18.0333252 C22.1387533,18.4341634 21.6933187,18.6666667 21.2291667,18.6666667 L2.77083333,18.6666667 C2.30668132,18.6666667 1.86124674,18.4341634 1.6274821,18.0333252 C0.59375,16.2608236 0,14.1999919 0,12 C0,5.3725179 5.3725179,0 12,0 Z M15.6499837,3.7179362 C15.1237386,3.53959147 14.5587565,3.82666016 14.3850098,4.35001628 L11.8291829,12.0170898 C10.4375,12.1070964 9.33333333,13.2524821 9.33333333,14.6666667 C9.33333333,15.1549886 9.47416178,15.6062419 9.70332845,16 L14.2966715,16 C14.5258382,15.6062419 14.6666667,15.1549886 14.6666667,14.6666667 C14.6666667,13.855835 14.2970785,13.1387533 13.7266846,12.6495768 L16.2820638,4.98291016 C16.4562581,4.45914714 16.1737467,3.89249674 15.6499837,3.7179362 Z M4,12 C3.26375326,12 2.66666667,12.5970866 2.66666667,13.3333333 C2.66666667,14.0695801 3.26375326,14.6666667 4,14.6666667 C4.73624674,14.6666667 5.33333333,14.0695801 5.33333333,13.3333333 C5.33333333,12.5970866 4.73624674,12 4,12 Z M20,12 C19.2637533,12 18.6666667,12.5970866 18.6666667,13.3333333 C18.6666667,14.0695801 19.2637533,14.6666667 20,14.6666667 C20.7362467,14.6666667 21.3333333,14.0695801 21.3333333,13.3333333 C21.3333333,12.5970866 20.7362467,12 20,12 Z M18,5.33374023 C17.8366699,5.33374023 17.6841634,5.3729248 17.5395915,5.42667643 L16.8929036,7.36625163 C17.129598,7.73876953 17.5258382,8 18,8.0004069 C18.7362467,8.0004069 19.3333333,7.40332031 19.3333333,6.66707357 C19.3333333,5.93082682 18.7362467,5.33374023 18,5.33374023 Z M6,5.33333333 C5.26375326,5.33333333 4.66666667,5.93041992 4.66666667,6.66666667 C4.66666667,7.40291341 5.26375326,8 6,8 C6.73624674,8 7.33333333,7.40291341 7.33333333,6.66666667 C7.33333333,5.93041992 6.73624674,5.33333333 6,5.33333333 Z M12,2.66666667 C11.2637533,2.66666667 10.6670736,3.26375326 10.6670736,4 C10.6670736,4.73624674 11.2641602,5.33333333 12.0004069,5.33333333 C12.2783203,5.33333333 12.5216471,5.22835286 12.7354329,5.08292643 L13.1195882,3.93001302 C13.1533203,3.82832845 13.2170817,3.74625651 13.2633464,3.65209961 C13.1075033,3.08874512 12.612915,2.66666667 12,2.66666667 Z"></path></clipPath></defs><g transform="translate(0.0 3.0)"><g clip-path="url(#i0)"><polygon points="0,0 24,0 24,18.6666667 0,18.6666667 0,0" stroke="none" fill="#151515"></polygon></g></g></svg>