<?xml version="1.0" encoding="UTF-8"?>
<svg width="24px" height="24px" viewBox="0 0 24 24" version="1.1" xmlns="http://www.w3.org/2000/svg" xmlns:xlink="http://www.w3.org/1999/xlink">
    <title></title>
    <g id="Icons" stroke="none" stroke-width="1" fill="none" fill-rule="evenodd">
        <g id="Icons/3.-Size-lg/View-Type/tachometer-alt" fill="#151515">
            <path d="M21.2291667,21.6666667 C21.6933187,21.6666667 22.1387533,21.4341634 22.3725179,21.0333252 C23.40625,19.2608236 24,17.1999919 24,15 C24,8.3725179 18.6274821,3 12,3 C5.3725179,3 0,8.3725179 0,15 C0,17.1999919 0.59375,19.2608236 1.6274821,21.0333252 C1.86124674,21.4341634 2.30668132,21.6666667 2.77083333,21.6666667 L21.2291667,21.6666667 Z M12.0004069,8.33333333 C11.2641602,8.33333333 10.6670736,7.73624674 10.6670736,7 C10.6670736,6.26375326 11.2637533,5.66666667 12,5.66666667 C12.612915,5.66666667 13.1075033,6.08874512 13.2633464,6.65209961 C13.2170817,6.74625651 13.1533203,6.82832845 13.1195882,6.93001302 L12.7354329,8.08292643 C12.5216471,8.22835286 12.2783203,8.33333333 12.0004069,8.33333333 Z M14.2966715,19 L9.70332845,19 C9.47416178,18.6062419 9.33333333,18.1549886 9.33333333,17.6666667 C9.33333333,16.2524821 10.4375,15.1070964 11.8291829,15.0170898 L14.3850098,7.35001628 C14.5587565,6.82666016 15.1237386,6.53959147 15.6499837,6.7179362 C16.1737467,6.89249674 16.4562581,7.45914714 16.2820638,7.98291016 L13.7266846,15.6495768 C14.2970785,16.1387533 14.6666667,16.855835 14.6666667,17.6666667 C14.6666667,18.1549886 14.5258382,18.6062419 14.2966715,19 Z M6,11 C5.26375326,11 4.66666667,10.4029134 4.66666667,9.66666667 C4.66666667,8.93041992 5.26375326,8.33333333 6,8.33333333 C6.73624674,8.33333333 7.33333333,8.93041992 7.33333333,9.66666667 C7.33333333,10.4029134 6.73624674,11 6,11 Z M18,11.0004069 C17.5258382,11 17.129598,10.7387695 16.8929036,10.3662516 L17.5395915,8.42667643 C17.6841634,8.3729248 17.8366699,8.33374023 18,8.33374023 C18.7362467,8.33374023 19.3333333,8.93082682 19.3333333,9.66707357 C19.3333333,10.4033203 18.7362467,11.0004069 18,11.0004069 Z M4,17.6666667 C3.26375326,17.6666667 2.66666667,17.0695801 2.66666667,16.3333333 C2.66666667,15.5970866 3.26375326,15 4,15 C4.73624674,15 5.33333333,15.5970866 5.33333333,16.3333333 C5.33333333,17.0695801 4.73624674,17.6666667 4,17.6666667 Z M20,17.6666667 C19.2637533,17.6666667 18.6666667,17.0695801 18.6666667,16.3333333 C18.6666667,15.5970866 19.2637533,15 20,15 C20.7362467,15 21.3333333,15.5970866 21.3333333,16.3333333 C21.3333333,17.0695801 20.7362467,17.6666667 20,17.6666667 Z" id="tachometer-alt"></path>
        </g>
    </g>
</svg>