<?xml version="1.0" encoding="UTF-8"?><svg version="1.1" width="24px" height="24px" viewBox="0 0 24.0 24.0" xmlns="http://www.w3.org/2000/svg" xmlns:xlink="http://www.w3.org/1999/xlink"><defs><clipPath id="i0"><path d="M10.1249759,11.2499732 C10.746297,11.2499732 11.2499732,11.7536493 11.2499732,12.3749705 L11.2499732,19.8749526 C11.2499732,20.4962738 10.746297,20.9999499 10.1249759,20.9999499 L1.12499732,20.9999499 C0.503676167,20.9999499 0,20.4962738 0,19.8749526 L0,12.3749705 C0,11.7536493 0.503676167,11.2499732 1.12499732,11.2499732 Z M22.8749455,11.2499732 C23.4962666,11.2499732 23.9999428,11.7536493 23.9999428,12.3749705 L23.9999428,19.8749526 C23.9999428,20.4962738 23.4962666,20.9999499 22.8749455,20.9999499 L13.8749669,20.9999499 C13.2536458,20.9999499 12.7499696,20.4962738 12.7499696,19.8749526 L12.7499696,12.3749705 C12.7499696,11.7536493 13.2536458,11.2499732 13.8749669,11.2499732 Z M22.8749455,0 C23.4962666,0 23.9999428,0.503676167 23.9999428,1.12499732 L23.9999428,8.62497944 C23.9999428,9.24630059 23.4962666,9.74997675 22.8749455,9.74997675 L13.8749669,9.74997675 C13.2536458,9.74997675 12.7499696,9.24630059 12.7499696,8.62497944 L12.7499696,1.12499732 C12.7499696,0.503676167 13.2536458,0 13.8749669,0 Z M10.1249759,0 C10.746297,0 11.2499732,0.503676167 11.2499732,1.12499732 L11.2499732,8.62497944 C11.2499732,9.24630059 10.746297,9.74997675 10.1249759,9.74997675 L1.12499732,9.74997675 C0.503676167,9.74997675 0,9.24630059 0,8.62497944 L0,1.12499732 C0,0.503676167 0.503676167,0 1.12499732,0 Z"></path></clipPath></defs><g transform="translate(0.0 2.0)"><g clip-path="url(#i0)"><polygon points="0,0 23.9999428,0 23.9999428,20.9999499 0,20.9999499 0,0" stroke="none" fill="#151515"></polygon></g></g></svg>