<?xml version="1.0" encoding="UTF-8"?>
<svg width="48px" height="48px" viewBox="0 0 48 48" version="1.1" xmlns="http://www.w3.org/2000/svg" xmlns:xlink="http://www.w3.org/1999/xlink">
    <title></title>
    <g id="Icons" stroke="none" stroke-width="1" fill="none" fill-rule="evenodd">
        <g id="Icons-/-4.-Size-xl-/-Brands-/-linkedin" fill="#151515">
            <path d="M43.8748954,47.2498873 C45.7310998,47.2498873 47.2498873,45.7205941 47.2498873,43.8432754 L47.2498873,3.4066119 C47.2498873,1.52929323 45.7310998,0 43.8748954,0 L3.3644863,0 C1.50817893,0 0,1.52929323 0,3.4066119 L0,43.8432754 C0,45.7205941 1.50817893,47.2498873 3.3644863,47.2498873 L43.8748954,47.2498873 Z M10.7789012,14.8710583 C8.53244273,14.8710583 6.71836396,13.0464739 6.71836396,10.8105211 C6.71836396,8.57456833 8.53244273,6.74998391 10.7789012,6.74998391 C13.0148539,6.74998391 14.8394383,8.57456833 14.8394383,10.8105211 C14.8394383,13.0569795 13.0253596,14.8710583 10.7789012,14.8710583 Z M25.6815794,40.4999034 L18.6784299,40.4999034 L18.6784299,17.9507591 L25.3967938,17.9507591 L25.3967938,21.0304598 L25.4917567,21.0304598 C26.4303645,19.2585066 28.7190516,17.3917966 32.1256635,17.3917966 C39.2131672,17.3917966 40.5315234,22.0640305 40.5315234,28.1389748 L40.5315234,40.4999034 L33.5284769,40.4999034 L33.5284769,29.5311796 C33.5284769,29.3605971 33.5282526,29.1868294 33.5268386,29.0110174 L33.5221381,28.6570058 C33.4752691,26.2239219 33.0859678,23.5510951 29.8898137,23.5510951 C26.2405418,23.5510951 25.6815794,26.3987446 25.6815794,29.3413569 L25.6815794,40.4999034 Z M14.2909816,40.4999034 L7.2773264,40.4999034 L7.2773264,17.9507591 L14.2909816,17.9507591 L14.2909816,40.4999034 Z" id="linkedin"></path>
        </g>
    </g>
</svg>