<?xml version="1.0" encoding="UTF-8"?>
<svg width="45px" height="37px" viewBox="0 0 45 37" version="1.1" xmlns="http://www.w3.org/2000/svg" xmlns:xlink="http://www.w3.org/1999/xlink">
    <title></title>
    <g id="Toggle-group" stroke="none" stroke-width="1" fill="none" fill-rule="evenodd">
        <g id="Toggle-group-/-On-white-bg-/-Icon-/-2.-Center-/-1.-Default">
            <rect id="Rectangle-Copy" fill="#F0F0F0" x="0" y="0" width="45" height="37"></rect>
            <g id="Divider-/-Vertical" transform="translate(44.000000, 0.000000)" fill="#FFFFFF" stroke="#D2D2D2">
                <rect id="Divider" x="0.5" y="0.5" width="1" height="36"></rect>
            </g>
            <g id="Icons-/-🖼-Dynamic-Icon" transform="translate(10.000000, 7.000000)">
                <g id="copy" fill="#6A6E73">
                    <path d="M16.9374763,15.7499768 C17.2481369,15.7499768 17.499975,15.4981387 17.499975,15.1874781 L17.499975,9 L15.0624808,9 C14.7531019,9 14.4999821,8.74687303 14.4999821,8.43749419 L14.4999821,6 L10.5624915,6 C10.2518309,6 9.99999285,6.25183808 9.99999285,6.56249866 L9.99999285,15.1874781 C9.99999285,15.4981387 10.2518309,15.7499768 10.5624915,15.7499768 L16.9374763,15.7499768 Z M17.499975,8.24999464 L17.499975,8.10799668 C17.499975,7.97938829 17.4261607,7.8012042 17.3352262,7.71024678 L15.7897282,6.16474875 C15.6987708,6.07381422 15.5205867,6 15.3919783,6 L15.2499803,6 L15.2499803,8.24999464 L17.499975,8.24999464 Z M13.9374835,17.9999714 C14.248144,17.9999714 14.4999821,17.7481333 14.4999821,17.4374727 L14.4999821,16.499975 L10.5624915,16.499975 C9.83876887,16.499975 9.24999464,15.9112007 9.24999464,15.1874781 L9.24999464,8.24999464 L7.56249866,8.24999464 C7.25183808,8.24999464 7,8.50183272 7,8.81249329 L7,17.4374727 C7,17.7481333 7.25183808,17.9999714 7.56249866,17.9999714 L13.9374835,17.9999714 Z"></path>
                </g>
                <rect id="🎨-Color" fill="#151515" x="0" y="0" width="24" height="24"></rect>
            </g>
        </g>
    </g>
</svg>