<?xml version="1.0" encoding="UTF-8"?>
<svg width="136px" height="36px" viewBox="0 0 136 36" version="1.1" xmlns="http://www.w3.org/2000/svg" xmlns:xlink="http://www.w3.org/1999/xlink">
    <title></title>
    <g id="Labels" stroke="none" stroke-width="1" fill="none" fill-rule="evenodd">
        <g id="Labels-/-8.-Label-group-/-1.-Group-/-2.-Dismissible">
            <g id="Group">
                <rect id="Background" stroke="#F0F0F0" fill="#FFFFFF" x="0.5" y="0.5" width="135" height="35" rx="3"></rect>
                <text id="âœï¸-Label" font-family="RedHatText-Regular, Red Hat Text" font-size="14" font-weight="normal" line-spacing="21" fill="#151515">
                    <tspan x="8" y="22">Label group</tspan>
                </text>
                <g transform="translate(92.000000, 0.000000)" fill="#6A6E73" id="Button-/-6.-Icon-button-/-Default">
                    <path d="M19.5833025,25.3749538 C23.8645423,25.3749538 27.3332841,21.9062121 27.3332841,17.6249723 C27.3332841,13.3437325 23.8645423,9.87499076 19.5833025,9.87499076 C15.3020627,9.87499076 11.833321,13.3437325 11.833321,17.6249723 C11.833321,21.9062121 15.3020627,25.3749538 19.5833025,25.3749538 Z M17.0176959,21.424951 L15.7833238,20.1874662 C15.6364431,20.0405854 15.6364431,19.8030982 15.7833238,19.6562174 L17.8333067,17.6249723 L15.7833238,15.5906143 C15.6364431,15.4437336 15.6364431,15.2062158 15.7833238,15.0593656 L17.0208086,13.8218502 C17.1676894,13.6749695 17.4051766,13.6749695 17.5520574,13.8218502 L19.5833025,15.8749765 L21.6176605,13.8249936 C21.7645412,13.6781128 22.002059,13.6781128 22.1489092,13.8249936 L23.3864246,15.0624784 C23.5333053,15.2093591 23.5333053,15.4468464 23.3864246,15.5937271 L21.3332984,17.6249723 L23.3832813,19.6593302 C23.530162,19.806211 23.530162,20.0437287 23.3832813,20.190579 L22.1457964,21.424951 C21.9989157,21.5718318 21.7614284,21.5718318 21.6145477,21.424951 L19.5833025,19.3749681 L17.5489446,21.424951 C17.4020638,21.5718318 17.1645461,21.5718318 17.0176959,21.424951 Z" id="times-circle"></path>
                </g>
            </g>
            <g id="ðŸ“-Padding" fill-opacity="0.9">
                <g id="Spacer-/-Horizontal-/-2.-pf-global--spacer--sm-(8px)" transform="translate(0.000000, 4.000000)" fill="#92D400" stroke="#7FB300">
                    <rect id="Rectangle-Copy" x="0.5" y="0.5" width="7" height="27"></rect>
                </g>
                <g id="Spacer-/-Vertical-/-2.-pf-global--spacer--sm-(8px)" fill="#EC7A08" stroke="#C77000">
                    <rect id="Rectangle" x="0.5" y="0.5" width="135" height="3"></rect>
                </g>
                <g id="Spacer-/-Horizontal-/-2.-pf-global--spacer--sm-(8px)" transform="translate(132.000000, 4.000000)" fill="#EC7A08" stroke="#C77000">
                    <rect id="Rectangle" x="0.5" y="0.5" width="3" height="27"></rect>
                </g>
                <g id="Spacer-/-Vertical-/-2.-pf-global--spacer--sm-(8px)" transform="translate(0.000000, 32.000000)" fill="#EC7A08" stroke="#C77000">
                    <rect id="Rectangle" x="0.5" y="0.5" width="135" height="3"></rect>
                </g>
                <g id="Spacer-/-Horizontal-/-2.-pf-global--spacer--sm-(8px)" transform="translate(84.000000, 4.000000)" fill="#92D400" stroke="#7FB300">
                    <rect id="Rectangle-Copy" x="0.5" y="0.5" width="7" height="27"></rect>
                </g>
            </g>
        </g>
    </g>
</svg>