<?xml version="1.0" encoding="UTF-8"?>
<svg width="226px" height="36px" viewBox="0 0 226 36" version="1.1" xmlns="http://www.w3.org/2000/svg" xmlns:xlink="http://www.w3.org/1999/xlink">
    <title></title>
    <g id="Labels" stroke="none" stroke-width="1" fill="none" fill-rule="evenodd">
        <g id="Labels-/-8.-Label-group-/-1.-Group-/-4.-Dismissible-with-label">
            <rect id="Background" stroke="#F0F0F0" fill="#FFFFFF" x="0.5" y="0.5" width="225" height="35" rx="3"></rect>
            <text id="âœï¸-Label" font-family="RedHatText-Regular, Red Hat Text" font-size="14" font-weight="normal" line-spacing="21" fill="#151515">
                <tspan x="8" y="22">Label group</tspan>
            </text>
            <g id="Button-/-6.-Icon-button-/-Default" transform="translate(179.000000, 0.000000)" fill="#6A6E73">
                <path d="M19.5833025,25.3749538 C23.8645423,25.3749538 27.3332841,21.9062121 27.3332841,17.6249723 C27.3332841,13.3437325 23.8645423,9.87499076 19.5833025,9.87499076 C15.3020627,9.87499076 11.833321,13.3437325 11.833321,17.6249723 C11.833321,21.9062121 15.3020627,25.3749538 19.5833025,25.3749538 Z M17.0176959,21.424951 L15.7833238,20.1874662 C15.6364431,20.0405854 15.6364431,19.8030982 15.7833238,19.6562174 L17.8333067,17.6249723 L15.7833238,15.5906143 C15.6364431,15.4437336 15.6364431,15.2062158 15.7833238,15.0593656 L17.0208086,13.8218502 C17.1676894,13.6749695 17.4051766,13.6749695 17.5520574,13.8218502 L19.5833025,15.8749765 L21.6176605,13.8249936 C21.7645412,13.6781128 22.002059,13.6781128 22.1489092,13.8249936 L23.3864246,15.0624784 C23.5333053,15.2093591 23.5333053,15.4468464 23.3864246,15.5937271 L21.3332984,17.6249723 L23.3832813,19.6593302 C23.530162,19.806211 23.530162,20.0437287 23.3832813,20.190579 L22.1457964,21.424951 C21.9989157,21.5718318 21.7614284,21.5718318 21.6145477,21.424951 L19.5833025,19.3749681 L17.5489446,21.424951 C17.4020638,21.5718318 17.1645461,21.5718318 17.0176959,21.424951 Z" id="times-circle"></path>
            </g>
            <g id="Group" transform="translate(90.000000, 4.000000)">
                <rect id="Rectangle" stroke="#BEE1F4" fill="#E7F1FA" x="1" y="0" width="87" height="28" rx="14"></rect>
                <text id="Label" font-family="RedHatText-Regular, Red Hat Text" font-size="14" font-weight="normal" line-spacing="21" fill="#002952">
                    <tspan x="25" y="17">Label</tspan>
                </text>
                <g transform="translate(64.000000, 2.000000)" fill="#6A6E73" id="Close">
                    <path d="M9.77960353,16.0341281 L12.1249959,13.6887358 L14.4703882,16.0341281 C14.7581836,16.3219463 15.2250556,16.3219463 15.5128739,16.0341281 L16.0341281,15.5128739 C16.3219463,15.2250556 16.3219463,14.7584353 16.0341281,14.4703882 L13.6887358,12.1249959 L16.0341281,9.77960353 C16.3219463,9.4918082 16.3219463,9.02516502 16.0341281,8.73711792 L15.5128739,8.21586367 C15.2250556,7.92804544 14.7584353,7.92804544 14.4703882,8.21586367 L12.1249959,10.561256 L9.77960353,8.21586367 C9.4918082,7.92804544 9.02516502,7.92804544 8.73711792,8.21586367 L8.21586367,8.73711792 C7.92804544,9.02493614 7.92804544,9.49155643 8.21586367,9.77960353 L10.561256,12.1249959 L8.21586367,14.4703882 C7.92804544,14.7581836 7.92804544,15.2248268 8.21586367,15.5128739 L8.73711792,16.0341281 C9.02493614,16.3219463 9.4918082,16.3219463 9.77960353,16.0341281 Z" id="times"></path>
                </g>
                <g transform="translate(1.000000, 2.000000)" id="Tag-icon">
                    <g id="tag" fill="#151515">
                        <path d="M12.0937355,17.9999714 C12.4062346,17.9999714 12.6718592,17.8905965 12.8906086,17.6718472 L17.6718472,12.8906086 C17.8905965,12.6718592 17.9999714,12.4062346 17.9999714,12.0937355 C17.9999714,11.7812363 17.8905965,11.5156117 17.6718472,11.2968624 L12.703109,6.32812422 C12.4843597,6.10937486 12.2187351,6 11.9062359,6 L7.12499732,6 C6.81249818,6 6.54687358,6.10937486 6.32812422,6.32812422 C6.10937486,6.54687358 6,6.81249818 6,7.12499732 L6,11.9062359 C6,12.2187351 6.10937486,12.4843597 6.32812422,12.703109 L11.2968624,17.6718472 C11.5156117,17.8905965 11.7812363,17.9999714 12.0937355,17.9999714 Z M8.62499374,9.74999106 C8.31249461,9.74999106 8.04687,9.6406162 7.82812064,9.42186684 C7.60937128,9.20311748 7.49999642,8.93749288 7.49999642,8.62499374 C7.49999642,8.31249461 7.60937128,8.04687 7.82812064,7.82812064 C8.04687,7.60937128 8.31249461,7.49999642 8.62499374,7.49999642 C8.93749288,7.49999642 9.20311748,7.60937128 9.42186684,7.82812064 C9.6406162,8.04687 9.74999106,8.31249461 9.74999106,8.62499374 C9.74999106,8.93749288 9.6406162,9.20311748 9.42186684,9.42186684 C9.20311748,9.6406162 8.93749288,9.74999106 8.62499374,9.74999106 Z"></path>
                    </g>
                    <rect id="ðŸŽ¨-Color" fill="#0066CC" x="0" y="0" width="24" height="24"></rect>
                </g>
            </g>
            <g id="ðŸ“-Padding" fill-opacity="0.9">
                <g id="Spacer-/-Horizontal-/-2.-pf-global--spacer--sm-(8px)" transform="translate(0.000000, 6.000000)" fill="#92D400" stroke="#7FB300">
                    <rect id="Rectangle-Copy" x="0.5" y="0.5" width="7" height="23"></rect>
                </g>
                <g id="Spacer-/-Vertical-/-8.-pf-global--spacer--form-element-(6px)" fill="#F3D53C" stroke="#CBB534">
                    <rect id="Rectangle" x="0.5" y="0.5" width="225" height="5"></rect>
                </g>
                <g id="Spacer-/-Vertical-/-8.-pf-global--spacer--form-element-(6px)" transform="translate(0.000000, 30.000000)" fill="#F3D53C" stroke="#CBB534">
                    <rect id="Rectangle" x="0.5" y="0.5" width="225" height="5"></rect>
                </g>
                <g id="Spacer-/-Horizontal-/-2.-pf-global--spacer--sm-(8px)" transform="translate(84.000000, 6.000000)" fill="#92D400" stroke="#7FB300">
                    <rect id="Rectangle-Copy" x="0.5" y="0.5" width="7" height="23"></rect>
                </g>
                <g id="Spacer-/-Horizontal-/-2.-pf-global--spacer--sm-(8px)" transform="translate(218.000000, 6.000000)" fill="#92D400" stroke="#7FB300">
                    <rect id="Rectangle-Copy" x="0.5" y="0.5" width="7" height="23"></rect>
                </g>
            </g>
        </g>
    </g>
</svg>