<?xml version="1.0" encoding="UTF-8"?><svg version="1.1" width="65px" height="76px" viewBox="0 0 65.0 76.0" xmlns="http://www.w3.org/2000/svg" xmlns:xlink="http://www.w3.org/1999/xlink"><defs><clipPath id="i0"><path d="M63,0 L63,3 L0,3 L0,0 L63,0 Z"></path></clipPath><clipPath id="i1"><path d="M16,0 L16,76 L0,76 L0,0 L16,0 Z"></path></clipPath><clipPath id="i2"><path d="M33,0 L33,24 L0,24 L0,0 L33,0 Z"></path></clipPath><clipPath id="i3"><path d="M33,0 L33,8 L0,8 L0,0 L33,0 Z"></path></clipPath></defs><g transform="translate(1.0 65.0)"><g clip-path="url(#i0)"><polygon points="0,0 63,0 63,3 0,3 0,0" stroke="none" fill="#73BCF7"></polygon></g></g><g transform="translate(16.0 28.0)"><text transform="translate(0.0 16.0)" font-family="RedHatText-Regular, Red Hat Text" font-size="16.0" font-weight="normal" fill="#73BCF7" text-anchor="left" line-spacing="24.0">Item</text></g><g clip-path="url(#i1)"><polygon points="0,0 16,0 16,76 0,76 0,0" stroke="none" fill="rgba(62, 156, 52, 0.9)"></polygon></g><g clip-path="url(#i1)"><polygon points="0,0 16,0 16,76 0,76 0,0 0,0" stroke="#418A37" stroke-width="2" fill="none" stroke-miterlimit="5"></polygon></g><g transform="translate(49.0 0.0)"><g clip-path="url(#i1)"><polygon points="0,0 16,0 16,76 0,76 0,0" stroke="none" fill="rgba(62, 156, 52, 0.9)"></polygon></g><g clip-path="url(#i1)"><polygon points="0,0 16,0 16,76 0,76 0,0 0,0" stroke="#418A37" stroke-width="2" fill="none" stroke-miterlimit="5"></polygon></g></g><g transform="translate(16.0 52.0)"><g clip-path="url(#i2)"><polygon points="0,0 33,0 33,24 0,24 0,0" stroke="none" fill="rgba(0, 121, 135, 0.9)"></polygon></g><g clip-path="url(#i2)"><polygon points="0,0 33,0 33,24 0,24 0,0 0,0" stroke="#09707A" stroke-width="2" fill="none" stroke-miterlimit="5"></polygon></g></g><g transform="translate(16.0 68.0)"><g clip-path="url(#i3)"><polygon points="0,0 33,0 33,8 0,8 0,0" stroke="none" fill="rgba(146, 211, 0, 0.9)"></polygon></g><g clip-path="url(#i3)"><polygon points="0,0 33,0 33,8 0,8 0,0 0,0" stroke="#7EB200" stroke-width="2" fill="none" stroke-miterlimit="5"></polygon></g></g></svg>