<?xml version="1.0" encoding="UTF-8"?><svg version="1.1" width="78px" height="76px" viewBox="0 0 78.0 76.0" xmlns="http://www.w3.org/2000/svg" xmlns:xlink="http://www.w3.org/1999/xlink"><defs><clipPath id="i0"><path d="M75,0 C76.6568542,-3.04359188e-16 78,1.34314575 78,3 L78,33 C78,34.6568542 76.6568542,36 75,36 L3,36 C1.34314575,36 -1.57345071e-15,34.6568542 0,33 L0,3 C-2.02906125e-16,1.34314575 1.34314575,-1.39730022e-16 3,0 L75,0 Z"></path></clipPath><clipPath id="i1"><path d="M8.99907479,13.9999666 C8.99907479,15.1046393 8.10378274,15.9999666 7.00002561,15.9999666 C5.89626847,15.9999666 5.00097642,15.1046393 5.00097642,13.9999666 Z M7.00002086,0 C7.55190417,0 7.99941287,0.447813874 7.99941287,1 L7.99941287,1.65124118 C10.2950312,2.12810772 11.9975112,4.07185919 11.9975112,6.4999845 C11.9975112,9.69684578 13.1272083,10.6727956 13.7309361,11.3215367 C13.9184356,11.5227997 14.0015653,11.7640406 14.0000209,11.9999714 C13.9968961,12.5124824 13.5943702,12.999969 12.9968985,12.999969 L1.0031527,12.999969 C0.405680976,12.999969 0.00349077253,12.5124824 2.08566939e-05,11.9999714 C-0.00151409835,11.7640406 0.0816155863,11.5231049 0.269115139,11.3215367 C0.872842948,10.6727956 2.00253996,9.69684578 2.00253996,6.4999845 C2.00253996,4.07185919 3.70502003,2.12810772 6.00063834,1.65124118 L6.00063834,1 C6.00063834,0.447813874 6.44814704,0 7.00002086,0 Z"></path></clipPath><clipPath id="i2"><path d="M16,0 L16,76 L0,76 L0,0 L16,0 Z"></path></clipPath><clipPath id="i3"><path d="M4,0 L4,76 L0,76 L0,0 L4,0 Z"></path></clipPath></defs><g transform="translate(0.0 20.0)"><g clip-path="url(#i0)"><polygon points="0,0 78,0 78,36 0,36 0,0" stroke="none" fill="#0066CC"></polygon></g></g><g transform="translate(11.0 26.0)"><g transform="translate(4.999979143306074 4.0)"><g clip-path="url(#i1)"><polygon points="-1.66533454e-16,0 14.000042,0 14.000042,15.9999666 -1.66533454e-16,15.9999666 -1.66533454e-16,0" stroke="none" fill="#FFFFFF"></polygon></g></g></g><g transform="translate(34.0 28.0)"><text transform="translate(0.0 14.0)" font-family="RedHatText-Regular, Red Hat Text" font-size="14.0" font-weight="normal" fill="#FEFFFE" text-anchor="left" line-spacing="21.0">000</text></g><g clip-path="url(#i2)"><polygon points="0,0 16,0 16,76 0,76 0,0" stroke="none" fill="rgba(62, 156, 52, 0.9)"></polygon></g><g clip-path="url(#i2)"><polygon points="0,0 16,0 16,76 0,76 0,0 0,0" stroke="#418A37" stroke-width="2" fill="none" stroke-miterlimit="5"></polygon></g><g transform="translate(62.0 0.0)"><g clip-path="url(#i2)"><polygon points="0,0 16,0 16,76 0,76 0,0" stroke="none" fill="rgba(62, 156, 52, 0.9)"></polygon></g><g clip-path="url(#i2)"><polygon points="0,0 16,0 16,76 0,76 0,0 0,0" stroke="#418A37" stroke-width="2" fill="none" stroke-miterlimit="5"></polygon></g></g><g transform="translate(30.0 0.0)"><g clip-path="url(#i3)"><polygon points="0,0 4,0 4,76 0,76 0,0" stroke="none" fill="rgba(236, 121, 8, 0.9)"></polygon></g><g clip-path="url(#i3)"><polygon points="0,0 4,0 4,76 0,76 0,0 0,0" stroke="#C67000" stroke-width="2" fill="none" stroke-miterlimit="5"></polygon></g></g></svg>