<?xml version="1.0" encoding="UTF-8"?><svg version="1.1" width="956px" height="40px" viewBox="0 0 956.0 40.0" xmlns="http://www.w3.org/2000/svg" xmlns:xlink="http://www.w3.org/1999/xlink"><defs><clipPath id="i0"><path d="M956,0 L956,40 L0,40 L0,0 L956,0 Z"></path></clipPath><clipPath id="i1"><path d="M3,0 L3,40 L0,40 L0,0 L3,0 Z"></path></clipPath><clipPath id="i2"><path d="M2.24999464,10.9999738 C3.49373557,10.9999738 4.49998927,12.0062275 4.49998927,13.2499684 C4.49998927,14.4937093 3.49373557,15.499963 2.24999464,15.499963 C1.0062537,15.499963 0,14.4937093 0,13.2499684 C0,12.0062275 1.0062537,10.9999738 2.24999464,10.9999738 Z M2.24999464,5.49998689 C3.49373557,5.49998689 4.49998927,6.50624059 4.49998927,7.74998152 C4.49998927,8.99372245 3.49373557,9.99997616 2.24999464,9.99997616 C1.0062537,9.99997616 0,8.99372245 0,7.74998152 C0,6.50624059 1.0062537,5.49998689 2.24999464,5.49998689 Z M2.24999464,0 C3.49373557,0 4.49998927,1.0062537 4.49998927,2.24999464 C4.49998927,3.49373557 3.49373557,4.49998927 2.24999464,4.49998927 C1.0062537,4.49998927 0,3.49373557 0,2.24999464 C0,1.0062537 1.0062537,0 2.24999464,0 Z"></path></clipPath><clipPath id="i3"><path d="M24,0 L24,24 L0,24 L0,0 L24,0 Z"></path></clipPath><clipPath id="i4"><path d="M16,0 L16,16 L0,16 L0,0 L16,0 Z"></path></clipPath><clipPath id="i5"><path d="M0.926557239,0.220298242 C1.22031875,-0.0734327473 1.69532372,-0.0734327473 1.98594192,0.220298242 L4.99844695,3.23280327 L8.01092145,0.220298242 C8.30468296,-0.0734327473 8.77968793,-0.0734327473 9.07030613,0.220298242 L9.77654224,0.926564869 C10.0703037,1.22029586 10.0703037,1.69530083 9.77654224,1.98591903 L5.52655238,6.2359089 C5.23904696,6.52967041 4.7640725,6.52967041 4.470311,6.2359089 L0.22032113,1.98591903 C-0.0734403767,1.69218804 -0.0734403767,1.21718307 0.22032113,0.926564869 Z"></path></clipPath><clipPath id="i6"><path d="M24,0 L24,40 L0,40 L0,0 L24,0 Z"></path></clipPath><clipPath id="i7"><path d="M908,0 L908,8 L0,8 L0,0 L908,0 Z"></path></clipPath></defs><g clip-path="url(#i0)"><polygon points="0,0 956,0 956,40 0,40 0,0" stroke="none" fill="#FFFFFF"></polygon></g><g transform=""><g clip-path="url(#i1)"><polygon points="0,0 3,0 3,40 0,40 0,0" stroke="none" fill="#0066CC"></polygon></g></g><g transform="translate(902.0 2.0)"><g transform="translate(8.0 6.0)"><g transform="translate(10.0 3.999999999999999)"><g clip-path="url(#i2)"><polygon points="0,0 4.49998927,0 4.49998927,15.499963 0,15.499963 0,0" stroke="none" fill="#151515"></polygon><g clip-path="url(#i3)"><polygon points="0,0 4.49998927,0 4.49998927,15.499963 0,15.499963 0,0" stroke="none" fill="#696E73"></polygon></g></g></g></g></g><g transform="translate(48.0 8.0)"><g transform="translate(8.0 4.0)"><g clip-path="url(#i4)"><polygon points="0,0 16,0 16,16 0,16 0,0" stroke="none" fill="#FFFFFF"></polygon><polygon points="0,0 16,0 16,16 0,16 0,0 0,0" stroke="#696E73" stroke-width="2" fill="none" stroke-miterlimit="5"></polygon></g></g></g><g transform="translate(24.0 8.0)"><g transform="translate(7.0 9.0)"><g clip-path="url(#i5)"><polygon points="0,0 9.99686337,0 9.99686337,6.45623003 0,6.45623003 0,0" stroke="none" fill="#696E73"></polygon></g></g></g><g clip-path="url(#i6)"><polygon points="0,0 24,0 24,40 0,40 0,0" stroke="none" fill="rgba(0, 121, 135, 0.9)"></polygon></g><g clip-path="url(#i6)"><polygon points="0,0 24,0 24,40 0,40 0,0 0,0" stroke="#09707A" stroke-width="2" fill="none" stroke-miterlimit="5"></polygon></g><g transform="translate(932.0 0.0)"><g clip-path="url(#i6)"><polygon points="0,0 24,0 24,40 0,40 0,0" stroke="none" fill="rgba(0, 121, 135, 0.9)"></polygon></g><g clip-path="url(#i6)"><polygon points="0,0 24,0 24,40 0,40 0,0 0,0" stroke="#09707A" stroke-width="2" fill="none" stroke-miterlimit="5"></polygon></g></g><g transform="translate(24.0 0.0)"><g clip-path="url(#i7)"><polygon points="0,0 908,0 908,8 0,8 0,0" stroke="none" fill="rgba(146, 211, 0, 0.9)"></polygon></g><g clip-path="url(#i7)"><polygon points="0,0 908,0 908,8 0,8 0,0 0,0" stroke="#7EB200" stroke-width="2" fill="none" stroke-miterlimit="5"></polygon></g></g><g transform="translate(24.000000000000057 32.0)"><g clip-path="url(#i7)"><polygon points="0,0 908,0 908,8 0,8 0,0" stroke="none" fill="rgba(146, 211, 0, 0.9)"></polygon></g><g clip-path="url(#i7)"><polygon points="0,0 908,0 908,8 0,8 0,0 0,0" stroke="#7EB200" stroke-width="2" fill="none" stroke-miterlimit="5"></polygon></g></g></svg>