<?xml version="1.0" encoding="UTF-8"?>
<svg width="48px" height="76px" viewBox="0 0 48 76" version="1.1" xmlns="http://www.w3.org/2000/svg" xmlns:xlink="http://www.w3.org/1999/xlink">
    <title></title>
    <g id="Masthead" stroke="none" stroke-width="1" fill="none" fill-rule="evenodd">
        <g id="Button-/-6.-Icon-button-/-Default" transform="translate(0.000000, 20.000000)">
            <g id="ðŸ–¼-Icon" transform="translate(17.000000, 10.000000)">
                <g transform="translate(0.000000, -0.000000)" fill="#73C5C5" id="bell">
                    <path d="M12.9968777,12.999969 C13.5943494,12.999969 13.9968753,12.5124824 14,11.9999714 C14.0015445,11.7640406 13.9184148,11.5227997 13.7309152,11.3215367 C13.1271874,10.6727956 11.9974904,9.69684578 11.9974904,6.4999845 C11.9974904,4.07185919 10.2950103,2.12810772 7.99939201,1.65124118 L7.99939201,1 C7.99939201,0.447813874 7.55188332,0 7,0 C6.44812618,0 6.00061748,0.447813874 6.00061748,1 L6.00061748,1.65124118 C3.70499918,2.12810772 2.0025191,4.07185919 2.0025191,6.4999845 C2.0025191,9.69684578 0.872822091,10.6727956 0.269094283,11.3215367 C0.0815947296,11.5231049 -0.00153495504,11.7640406 -2.48689958e-14,11.9999714 C0.00346991584,12.5124824 0.405660119,12.999969 1.00313184,12.999969 L12.9968777,12.999969 Z M7.00000475,15.9999666 C8.10376188,15.9999666 8.99905394,15.1046393 8.99905394,13.9999666 L5.00095556,13.9999666 C5.00095556,15.1046393 5.89624761,15.9999666 7.00000475,15.9999666 Z"></path>
                </g>
                <rect id="ðŸŽ¨-Color" fill="#F0F0F0" x="-9" y="-4" width="32" height="24"></rect>
            </g>
            <g id="ðŸ“-Padding" fill-opacity="0.9">
                <g id="Spacer-/-Horizontal-/-3.-pf-global--spacer--md-(16px)" fill="#92D400" stroke="#7FB300">
                    <rect id="Rectangle-Copy" x="0.5" y="0.5" width="7" height="35"></rect>
                </g>
                <g id="Spacer-/-Horizontal-/-3.-pf-global--spacer--md-(16px)" transform="translate(32.000000, 0.000000)" fill="#92D400" stroke="#7FB300">
                    <rect id="Rectangle-Copy" x="0.5" y="0.5" width="7" height="35"></rect>
                </g>
                <g id="Spacer-/-Vertical-/-8.-pf-global--spacer--form-element-(6px)" transform="translate(8.000000, 0.000000)" fill="#F3D53C" stroke="#CBB534">
                    <rect id="Rectangle" x="0.5" y="0.5" width="23" height="5"></rect>
                </g>
                <g id="Spacer-/-Vertical-/-8.-pf-global--spacer--form-element-(6px)" transform="translate(8.000000, 30.000000)" fill="#F3D53C" stroke="#CBB534">
                    <rect id="Rectangle" x="0.5" y="0.5" width="23" height="5"></rect>
                </g>
            </g>
        </g>
    </g>
</svg>