<svg xmlns="http://www.w3.org/2000/svg" xmlns:xlink="http://www.w3.org/1999/xlink" width="408" height="155" viewBox="0 0 408 155">
  <defs>
    <rect id="header-and-body-b" width="408" height="152" x="0" y="0"/>
    <filter id="header-and-body-a" width="101.7%" height="104.6%" x="-.9%" y="-1.6%" filterUnits="objectBoundingBox">
      <feOffset dy="1" in="SourceAlpha" result="shadowOffsetOuter1"/>
      <feGaussianBlur in="shadowOffsetOuter1" result="shadowBlurOuter1" stdDeviation="1"/>
      <feColorMatrix in="shadowBlurOuter1" values="0 0 0 0 0   0 0 0 0 0   0 0 0 0 0  0 0 0 0.12 0"/>
    </filter>
  </defs>
  <g fill="none" fill-rule="evenodd">
    <use fill="#000" filter="url(#header-and-body-a)" xlink:href="#header-and-body-b"/>
    <use fill="#FFF" xlink:href="#header-and-body-b"/>
    <rect width="407" height="154" x=".5" y=".5" fill="#E7F1FA" stroke="#BEE1F4"/>
    <text fill="#06C" font-family="RedHatText-Regular, Red Hat Text" font-size="16">
      <tspan x="24" y="123">Optional link and/or secondary button</tspan>
    </text>
    <text fill="#151515" font-family="RedHatText-Regular, Red Hat Text" font-size="16">
      <tspan x="24" y="83">Body</tspan>
    </text>
    <text fill="#151515" font-family="RedHatText-Regular, Red Hat Text" font-size="18">
      <tspan x="24" y="42">Header</tspan>
    </text>
    <g transform="translate(344 18)">
      <rect width="40" height="36" rx="3"/>
      <g transform="translate(8 6)">
        <path fill="#151515" d="M12.2499946,8.49998927 C13.4937356,8.49998927 14.4999893,7.49373557 14.4999893,6.24999464 C14.4999893,5.0062537 13.4937356,4 12.2499946,4 C11.0062537,4 10,5.0062537 10,6.24999464 C10,7.49373557 11.0062537,8.49998927 12.2499946,8.49998927 Z M12.2499946,13.9999762 C13.4937356,13.9999762 14.4999893,12.9937225 14.4999893,11.7499815 C14.4999893,10.5062406 13.4937356,9.49998689 12.2499946,9.49998689 C11.0062537,9.49998689 10,10.5062406 10,11.7499815 C10,12.9937225 11.0062537,13.9999762 12.2499946,13.9999762 Z M12.2499946,19.499963 C13.4937356,19.499963 14.4999893,18.4937093 14.4999893,17.2499684 C14.4999893,16.0062275 13.4937356,14.9999738 12.2499946,14.9999738 C11.0062537,14.9999738 10,16.0062275 10,17.2499684 C10,18.4937093 11.0062537,19.499963 12.2499946,19.499963 Z"/>
        <rect width="24" height="24" fill="#6A6E73"/>
      </g>
      <g fill-opacity=".9">
        <rect width="7" height="35" x=".5" y=".5" fill="#92D400" stroke="#7FB300"/>
        <rect width="7" height="35" x=".5" y=".5" fill="#92D400" stroke="#7FB300" transform="translate(32)"/>
        <rect width="23" height="5" x=".5" y=".5" fill="#F3D53C" stroke="#CBB534" transform="translate(8)"/>
        <rect width="23" height="5" x=".5" y=".5" fill="#F3D53C" stroke="#CBB534" transform="translate(8 30)"/>
      </g>
    </g>
    <g fill-opacity=".9">
      <rect width="23" height="154" x=".5" y=".5" fill="#007A87" stroke="#09707B"/>
      <rect width="23" height="154" x=".5" y=".5" fill="#007A87" stroke="#09707B" transform="translate(384)"/>
      <rect width="47" height="106" x=".5" y=".5" fill="#582FC0" stroke="#5431A5" transform="translate(296 24)"/>
      <rect width="407" height="23" x=".5" y=".5" fill="#007A87" stroke="#09707B"/>
      <rect width="407" height="23" x=".5" y=".5" fill="#007A87" stroke="#09707B" transform="translate(0 131)"/>
      <rect width="271" height="15" x=".5" y=".5" fill="#3F9C35" stroke="#418A38" transform="translate(24 51)"/>
      <rect width="271" height="15" x=".5" y=".5" fill="#3F9C35" stroke="#418A38" transform="translate(24 91)"/>
    </g>
  </g>
</svg>
