<?xml version="1.0" encoding="UTF-8"?>
<svg width="560px" height="43px" viewBox="0 0 560 43" version="1.1" xmlns="http://www.w3.org/2000/svg" xmlns:xlink="http://www.w3.org/1999/xlink">
    <title></title>
    <g id="Progress-Bar" stroke="none" stroke-width="1" fill="none" fill-rule="evenodd">
        <g id="Progress-Bar-/-2.-Success-/-Small">
            <rect id="Indicator" fill="#3E8635" x="0" y="35" width="560" height="8"></rect>
            <g id="Icons-/-Status-/-exclamation-circle" transform="translate(540.000000, 1.552087)" fill="#3E8635">
                <path d="M7.74998152,15.499963 C12.0301837,15.499963 15.499963,12.0301837 15.499963,7.74998152 C15.499963,3.46977933 12.0301837,1.77635684e-15 7.74998152,1.77635684e-15 C3.46977933,1.77635684e-15 0,3.46977933 0,7.74998152 C0,12.0301837 3.46977933,15.499963 7.74998152,15.499963 Z M6.14640869,11.8535179 L2.89641643,8.60352563 C2.70119595,8.40827463 2.70119595,8.09165551 2.89641643,7.89640451 L3.60353755,7.18931391 C3.79878855,6.99406291 4.11540767,6.99406291 4.31065867,7.18931391 L6.4999845,9.37867027 L11.1893044,4.68935039 C11.3845859,4.49406888 11.701205,4.49406888 11.8964255,4.68935039 L12.6035466,5.39644099 C12.7987671,5.59169199 12.7987671,5.90831111 12.6035466,6.10356211 L6.85356032,11.8535484 C6.6582788,12.0487689 6.3416902,12.0487689 6.14640869,11.8535179 Z" id="check-circle"></path>
            </g>
            <text id="ðŸ’¯-Value" font-family="RedHatText-Regular, Red Hat Text" font-size="14" font-weight="normal" line-spacing="21" fill="#151515">
                <tspan x="502" y="13">100%</tspan>
            </text>
            <text id="âœï¸-Label" font-family="RedHatText-Regular, Red Hat Text" font-size="14" font-weight="normal" line-spacing="21" fill="#151515">
                <tspan x="0" y="14">Title</tspan>
            </text>
            <g id="ðŸ“-Padding" transform="translate(0.000000, 19.000000)" fill="#3F9C35" fill-opacity="0.9" stroke="#418A38">
                <g id="Spacer-/-Vertical-/-3.-pf-global--spacer--md-(16px)">
                    <rect id="Rectangle-Copy-2" x="0.5" y="0.5" width="559" height="15"></rect>
                </g>
            </g>
        </g>
    </g>
</svg>