<?xml version="1.0" encoding="UTF-8"?><svg version="1.1" width="139px" height="64px" viewBox="0 0 139.0 64.0" xmlns="http://www.w3.org/2000/svg" xmlns:xlink="http://www.w3.org/1999/xlink"><defs><clipPath id="i0"><path d="M7.74998152,0 C12.0298785,0 15.499963,3.47133572 15.499963,7.74998152 C15.499963,12.0311298 12.0298785,15.499963 7.74998152,15.499963 C3.4700845,15.499963 0,12.0311298 0,7.74998152 C0,3.47133572 3.4700845,0 7.74998152,0 Z M8.37498003,6.74998391 L6.3749848,6.74998391 C6.16789301,6.74998391 5.99998569,6.91789122 5.99998569,7.12498301 L5.99998569,7.87498122 C5.99998569,8.08207302 6.16789301,8.24998391 6.3749848,8.24998391 L6.74998391,8.24998391 L6.74998391,10.2499839 L6.3749848,10.2499839 C6.16789301,10.2499839 5.99998569,10.4178829 5.99998569,10.6249747 L5.99998569,11.3749729 C5.99998569,11.5820647 6.16789301,11.749972 6.3749848,11.749972 L9.12497824,11.749972 C9.33207004,11.749972 9.49998569,11.5820647 9.49998569,11.3749729 L9.49998569,10.6249747 C9.49998569,10.4178829 9.33207004,10.2499839 9.12497824,10.2499839 L8.74997914,10.2499839 L8.74997914,7.12498301 C8.74997914,6.91789122 8.58207182,6.74998391 8.37498003,6.74998391 Z M7.74998152,3.4374918 C7.02509922,3.4374918 6.43748465,4.02510637 6.43748465,4.74998868 C6.43748465,5.47487098 7.02509922,6.06248555 7.74998152,6.06248555 C8.47486383,6.06248555 9.06247839,5.47487098 9.06247839,4.74998868 C9.06247839,4.02510637 8.47486383,3.4374918 7.74998152,3.4374918 Z"></path></clipPath><clipPath id="i1"><path d="M87,0 L87,21 L0,21 L0,0 L87,0 Z"></path></clipPath><clipPath id="i2"><path d="M139,0 L139,16 L0,16 L0,0 L139,0 Z"></path></clipPath></defs><g transform="translate(4.0 4.0)"><g clip-path="url(#i0)"><polygon points="0,0 15.499963,0 15.499963,15.499963 0,15.499963 0,0" stroke="none" fill="#2B9AF3"></polygon></g></g><g transform="translate(28.0 27.0)"><g clip-path="url(#i1)"><text transform="translate(0.0 14.0)" font-family="RedHatText-Regular, Red Hat Text" font-size="14.0" font-weight="normal" fill="#141514" text-anchor="left" line-spacing="21.0">Description</text></g></g><g transform="translate(28.0 2.0)"><text transform="translate(0.0 14.0)" font-family="RedHatText-Medium, Red Hat Text" font-size="14.0" font-weight="400" fill="#004268" text-anchor="left" line-spacing="21.0">Title</text></g><g transform="translate(0.0 49.0)"><g clip-path="url(#i2)"><polygon points="0,0 139,0 139,16 0,16 0,0" stroke="none" fill="rgba(62, 156, 52, 0.9)"></polygon></g><g clip-path="url(#i2)"><polygon points="0,0 139,0 139,16 0,16 0,0 0,0" stroke="#418A37" stroke-width="2" fill="none" stroke-miterlimit="5"></polygon></g></g></svg>