<?xml version="1.0" encoding="UTF-8"?>
<svg width="93px" height="37px" viewBox="0 0 93 37" version="1.1" xmlns="http://www.w3.org/2000/svg" xmlns:xlink="http://www.w3.org/1999/xlink">
    <title></title>
    <g id="Toggle-group" stroke="none" stroke-width="1" fill="none" fill-rule="evenodd">
        <g id="Toggle-group-/-On-white-bg-/-Text-+-Icon-on-left-/-4.-Single-item-/-2.-Hover">
            <rect id="Rectangle-Copy" fill="#D2D2D2" opacity="0.789999962" x="0" y="0" width="93" height="37" rx="3"></rect>
            <text id="Hover" font-family="RedHatText-Regular, Red Hat Text" font-size="14" font-weight="normal" line-spacing="21" fill="#151515">
                <tspan x="38.446" y="22">Hover</tspan>
            </text>
            <g id="ðŸ–¼-Icon" transform="translate(11.000000, 6.000000)" fill="#151515">
                <path d="M18.2499684,16.999969 C18.6641825,16.999969 18.9999666,16.6641849 18.9999666,16.2499708 L18.9999666,8 L15.7499744,8 C15.3374692,8 14.9999762,7.66249737 14.9999762,7.24999225 L14.9999762,4 L9.74998868,4 C9.33577457,4 8.99999046,4.33578411 8.99999046,4.74999821 L8.99999046,16.2499708 C8.99999046,16.6641849 9.33577457,16.999969 9.74998868,16.999969 L18.2499684,16.999969 Z M18.9999738,7 L18.9999738,6.81066224 C18.9999738,6.63918438 18.9015477,6.4016056 18.7803016,6.28032904 L16.7196376,4.219665 C16.598361,4.09841895 16.3607822,4 16.1893044,4 L15.9999738,4 L15.9999738,7 L18.9999738,7 Z M14.2499779,19.9999619 C14.664192,19.9999619 14.9999762,19.6641777 14.9999762,19.2499636 L14.9999762,17.9999666 L9.74998868,17.9999666 C8.78502516,17.9999666 8,17.2149343 8,16.2499708 L8,6.99999285 L5.74999821,6.99999285 C5.33578411,6.99999285 5,7.33577696 5,7.74999106 L5,19.2499636 C5,19.6641777 5.33578411,19.9999619 5.74999821,19.9999619 L14.2499779,19.9999619 Z" id="copy"></path>
            </g>
            <g id="ðŸ“-Padding" fill-opacity="0.9">
                <g id="Spacer-/-Horizontal-/-2.-pf-global--spacer--sm-(8px)" transform="translate(30.000000, 0.000000)" fill="#92D400" stroke="#7FB300">
                    <rect id="Rectangle-Copy" x="0.5" y="0.5" width="7" height="36"></rect>
                </g>
                <g id="Spacer-/-Horizontal-/-3.-pf-global--spacer--md-(16px)" fill="#3F9C35" stroke="#418A38">
                    <rect id="Rectangle-Copy-2" x="0.5" y="0.5" width="15" height="36"></rect>
                </g>
                <g id="Spacer-/-Horizontal-/-3.-pf-global--spacer--md-(16px)" transform="translate(77.000000, 0.000000)" fill="#3F9C35" stroke="#418A38">
                    <rect id="Rectangle-Copy-2" x="0.5" y="0.5" width="15" height="36"></rect>
                </g>
            </g>
        </g>
    </g>
</svg>