<?xml version="1.0" encoding="UTF-8"?><svg version="1.1" width="24px" height="24px" viewBox="0 0 24.0 24.0" xmlns="http://www.w3.org/2000/svg" xmlns:xlink="http://www.w3.org/1999/xlink"><defs><clipPath id="i0"><path d="M6.70488516,0.330481695 C7.14548164,-0.110160565 7.8579891,-0.110160565 8.2939164,0.330481695 L9.35331634,1.38983586 C9.79391282,1.83047812 9.79391282,2.54298558 9.35331634,2.97891288 L4.83927376,7.5023396 L9.35798552,12.0210971 C9.79862778,12.4616936 9.79862778,13.1742011 9.35798552,13.6101284 L8.29863136,14.6741975 C7.8579891,15.1148398 7.14548164,15.1148398 6.70955433,14.6741975 L0.334569533,8.2992127 C-0.110741905,7.85857044 -0.110741905,7.14610876 0.329900355,6.7054665 Z"></path></clipPath></defs><g transform="translate(7.0 4.0)"><g clip-path="url(#i0)"><polygon points="-5.02375919e-14,5.55111512e-17 9.68846721,5.55111512e-17 9.68846721,15.0046792 -5.02375919e-14,15.0046792 -5.02375919e-14,5.55111512e-17" stroke="none" fill="#151515"></polygon></g></g></svg>