<?xml version="1.0" encoding="UTF-8"?>
<svg width="24px" height="24px" viewBox="0 0 24 24" version="1.1" xmlns="http://www.w3.org/2000/svg" xmlns:xlink="http://www.w3.org/1999/xlink">
    <title></title>
    <g id="Icons" stroke="none" stroke-width="1" fill="none" fill-rule="evenodd">
        <g id="Icons/3.-Size-lg/Framework/angle-double-left" fill="#151515">
            <path d="M20.2986099,18.6741975 L21.3579641,17.6101284 C21.7986063,17.1742011 21.7986063,16.4616936 21.3579641,16.0210971 L16.8392523,11.5023396 L21.3532949,6.97891288 C21.7938914,6.54298558 21.7938914,5.83047812 21.3532949,5.38983586 L20.2938949,4.33048169 C19.8579676,3.88983944 19.1454602,3.88983944 18.7048637,4.33048169 L12.3298789,10.7054665 C11.8892366,11.1461088 11.8892366,11.8585704 12.3345481,12.2992127 L18.7095329,18.6741975 C19.1454602,19.1148398 19.8579676,19.1148398 20.2986099,18.6741975 Z M11.2939164,18.6741975 L12.3533163,17.6148433 C12.7939128,17.1742011 12.7939128,16.4616936 12.3533163,16.0257663 L7.83927376,11.5023396 L12.3579855,6.98358206 C12.7986278,6.54298558 12.7986278,5.83047812 12.3579855,5.39455081 L11.2986314,4.33048169 C10.8579891,3.88983944 10.1454816,3.88983944 9.70955433,4.33048169 L3.33456953,10.7054665 C2.88925809,11.1461088 2.88925809,11.8585704 3.32990035,12.2992127 L9.70488516,18.6741975 C10.1454816,19.1148398 10.8579891,19.1148398 11.2939164,18.6741975 Z" id="angle-double-left"></path>
        </g>
    </g>
</svg>