<?xml version="1.0" encoding="UTF-8"?>
<svg width="24px" height="24px" viewBox="0 0 24 24" version="1.1" xmlns="http://www.w3.org/2000/svg" xmlns:xlink="http://www.w3.org/1999/xlink">
    <title></title>
    <g id="Icons" stroke="none" stroke-width="1" fill="none" fill-rule="evenodd">
        <g id="Icons/3.-Size-lg/Framework/angle-double-right" fill="#151515">
            <path d="M5.97887855,18.6741975 L12.3538633,12.2992127 C12.7945056,11.8585704 12.7945056,11.1461088 12.3491942,10.7054665 L5.97420937,4.33048169 C5.53828206,3.88983944 4.82577461,3.88983944 4.38513235,4.33048169 L3.33044736,5.39921999 C2.88985088,5.8351473 2.88985088,6.54765475 3.33044736,6.98829701 L7.8492049,11.5070088 L3.33044736,16.0257663 C2.88985088,16.4616936 2.88985088,17.1742011 3.33044736,17.6148433 L4.3898473,18.6741975 C4.82577461,19.1148398 5.53828206,19.1148398 5.97887855,18.6741975 Z M14.9788571,18.6648134 L21.3538419,12.2898286 C21.7944842,11.8585704 21.7944842,11.1461088 21.3538419,10.7054665 L14.9788571,4.33048169 C14.5382606,3.88983944 13.8257532,3.88983944 13.3898258,4.33048169 L12.3304259,5.38983586 C11.8898294,5.83047812 11.8898294,6.54298558 12.3304259,6.97891288 L16.8491834,11.4976704 L12.3304259,16.0163822 C11.8898294,16.4570244 11.8898294,17.1695319 12.3304259,17.6054592 L13.3898258,18.6648134 C13.8304223,19.1054556 14.5429298,19.1054556 14.9788571,18.6648134 Z" id="angle-double-right"></path>
        </g>
    </g>
</svg>