<?xml version="1.0" encoding="UTF-8"?><svg version="1.1" width="24px" height="24px" viewBox="0 0 24.0 24.0" xmlns="http://www.w3.org/2000/svg" xmlns:xlink="http://www.w3.org/1999/xlink"><defs><clipPath id="i0"><path d="M6.7054665,0.334569533 C7.14610876,-0.110741905 7.85857044,-0.110741905 8.2992127,0.329900355 L14.6741975,6.70488516 C15.1148398,7.14548164 15.1148398,7.8579891 14.6741975,8.2939164 L13.6148433,9.35331634 C13.1742011,9.79391282 12.4616936,9.79391282 12.0257663,9.35331634 L7.5023396,4.83927376 L2.98358206,9.35798552 C2.54298558,9.79862778 1.83047812,9.79862778 1.39455081,9.35798552 L0.330481695,8.29863136 C-0.110160565,7.8579891 -0.110160565,7.14548164 0.330481695,6.70955433 Z"></path></clipPath></defs><g transform="translate(4.0 7.0)"><g clip-path="url(#i0)"><polygon points="5.55111512e-17,6.605827e-15 15.0046792,6.605827e-15 15.0046792,9.68846721 5.55111512e-17,9.68846721 5.55111512e-17,6.605827e-15" stroke="none" fill="#151515"></polygon></g></g></svg>