<?xml version="1.0" encoding="UTF-8"?><svg version="1.1" width="24px" height="24px" viewBox="0 0 24.0 24.0" xmlns="http://www.w3.org/2000/svg" xmlns:xlink="http://www.w3.org/1999/xlink"><defs><clipPath id="i0"><path d="M1.38513235,0.330481695 C1.82577461,-0.110160565 2.53828206,-0.110160565 2.97420937,0.330481695 L9.34919417,6.7054665 C9.79450561,7.14610876 9.79450561,7.85857044 9.35386335,8.2992127 L2.97887855,14.6741975 C2.53828206,15.1148398 1.82577461,15.1148398 1.3898473,14.6741975 L0.330447363,13.6148433 C-0.110149121,13.1742011 -0.110149121,12.4616936 0.330447363,12.0257663 L4.8492049,7.50700877 L0.330447363,2.98829701 C-0.110149121,2.54765475 -0.110149121,1.8351473 0.330447363,1.39921999 Z M10.3898258,0.330481695 C10.8257532,-0.110160565 11.5382606,-0.110160565 11.9788571,0.330481695 L18.3538419,6.7054665 C18.7944842,7.14610876 18.7944842,7.85857044 18.3538419,8.28982856 L11.9788571,14.6648134 C11.5429298,15.1054556 10.8304223,15.1054556 10.3898258,14.6648134 L9.33042591,13.6054592 C8.88982942,13.1695319 8.88982942,12.4570244 9.33042591,12.0163822 L13.8491834,7.49767042 L9.33042591,2.97891288 C8.88982942,2.54298558 8.88982942,1.83047812 9.33042591,1.38983586 Z"></path></clipPath></defs><g transform="translate(3.0 4.0)"><g clip-path="url(#i0)"><polygon points="0,0 18.6843236,0 18.6843236,15.0046792 0,15.0046792 0,0" stroke="none" fill="#151515"></polygon></g></g></svg>