<?xml version="1.0" encoding="UTF-8"?><svg version="1.1" width="24px" height="24px" viewBox="0 0 24.0 24.0" xmlns="http://www.w3.org/2000/svg" xmlns:xlink="http://www.w3.org/1999/xlink"><defs><clipPath id="i0"><path d="M15.7048637,0.330481695 C16.1454602,-0.110160565 16.8579676,-0.110160565 17.2938949,0.330481695 L18.3532949,1.38983586 C18.7938914,1.83047812 18.7938914,2.54298558 18.3532949,2.97891288 L13.8392523,7.5023396 L18.3579641,12.0210971 C18.7986063,12.4616936 18.7986063,13.1742011 18.3579641,13.6101284 L17.2986099,14.6741975 C16.8579676,15.1148398 16.1454602,15.1148398 15.7095329,14.6741975 L9.33454808,8.2992127 C8.88923664,7.85857044 8.88923664,7.14610876 9.3298789,6.7054665 Z M6.70955433,0.330481695 C7.14548164,-0.110160565 7.8579891,-0.110160565 8.29863136,0.330481695 L9.35798552,1.39455081 C9.79862778,1.83047812 9.79862778,2.54298558 9.35798552,2.98358206 L4.83927376,7.5023396 L9.35331634,12.0257663 C9.79391282,12.4616936 9.79391282,13.1742011 9.35331634,13.6148433 L8.2939164,14.6741975 C7.8579891,15.1148398 7.14548164,15.1148398 6.70488516,14.6741975 L0.329900355,8.2992127 C-0.110741905,7.85857044 -0.110741905,7.14610876 0.334569533,6.7054665 Z"></path></clipPath></defs><g transform="translate(3.0 4.0)"><g clip-path="url(#i0)"><polygon points="-5.06261699e-14,5.55111512e-17 18.6884458,5.55111512e-17 18.6884458,15.0046792 -5.06261699e-14,15.0046792 -5.06261699e-14,5.55111512e-17" stroke="none" fill="#151515"></polygon></g></g></svg>