<?xml version="1.0" encoding="UTF-8"?><svg version="1.1" width="24px" height="24px" viewBox="0 0 24.0 24.0" xmlns="http://www.w3.org/2000/svg" xmlns:xlink="http://www.w3.org/1999/xlink"><defs><clipPath id="i0"><path d="M9.97029788,0.330481695 C10.4108944,-0.110160565 11.1234018,-0.110160565 11.5593291,0.330481695 L20.6718257,9.43826333 C21.112468,9.87890558 21.112468,10.5913673 20.6718257,11.0273403 L11.5593291,20.1397912 C11.1187326,20.5804334 10.4062252,20.5804334 9.97029788,20.1397912 L8.92966621,19.0991595 C8.48435477,18.653848 8.4937389,17.9272873 8.94843448,17.49136 L14.5968585,12.110132 L1.12499732,12.110132 C0.501570459,12.110132 0,11.6085615 0,10.9851346 L0,9.48513821 C0,8.86171135 0.501570459,8.3601409 1.12499732,8.3601409 L14.5968585,8.3601409 L8.94843448,2.97891288 C8.48902395,2.54298558 8.47968559,1.81642481 8.92966621,1.37111337 Z"></path></clipPath></defs><g transform="translate(1.0 2.0)"><g clip-path="url(#i0)"><polygon points="0,0 21.0023074,0 21.0023074,20.4702729 0,20.4702729 0,0" stroke="none" fill="#151515"></polygon></g></g></svg>