<?xml version="1.0" encoding="UTF-8"?>
<svg width="24px" height="24px" viewBox="0 0 24 24" version="1.1" xmlns="http://www.w3.org/2000/svg" xmlns:xlink="http://www.w3.org/1999/xlink">
    <title></title>
    <g id="Icons" stroke="none" stroke-width="1" fill="none" fill-rule="evenodd">
        <g id="Icons/3.-Size-lg/Framework/arrows-alt-v" fill="#151515">
            <path d="M12.9567437,23.6704682 L16.9907764,19.6364812 C17.6995302,18.9277732 17.1975936,17.7159841 16.1952766,17.7159841 L14.0362852,17.7159841 L14.0362852,6.28400449 L16.1952766,6.28400449 C17.1975936,6.28400449 17.6995302,5.07226116 16.9908222,4.36350736 L12.9567895,0.329520394 C12.517429,-0.109840131 11.8051962,-0.109840131 11.3658356,0.329520394 L7.33180289,4.36350736 C6.62309487,5.07221538 7.12503154,6.28400449 8.12734848,6.28400449 L10.2862941,6.28400449 L10.2862941,17.7159841 L8.12730271,17.7159841 C7.12498576,17.7159841 6.62304909,18.9277274 7.33175712,19.6364812 L11.3657899,23.6704682 C11.8051504,24.1098287 12.5173832,24.1098287 12.9567437,23.6704682 Z" id="arrows-alt-v"></path>
        </g>
    </g>
</svg>