<?xml version="1.0" encoding="UTF-8"?>
<svg width="24px" height="24px" viewBox="0 0 24 24" version="1.1" xmlns="http://www.w3.org/2000/svg" xmlns:xlink="http://www.w3.org/1999/xlink">
    <title></title>
    <g id="Icons" stroke="none" stroke-width="1" fill="none" fill-rule="evenodd">
        <g id="Icons/3.-Size-lg/Framework/bars" fill="#151515">
            <path d="M22.2499517,6.37499195 C22.6641811,6.37499195 22.9999499,6.0392231 22.9999499,5.62499374 L22.9999499,3.74999821 C22.9999499,3.33576885 22.6641811,3 22.2499517,3 L2.74999821,3 C2.33576885,3 2,3.33576885 2,3.74999821 L2,5.62499374 C2,6.0392231 2.33576885,6.37499195 2.74999821,6.37499195 L22.2499517,6.37499195 Z M22.2499517,13.8749741 C22.6641811,13.8749741 22.9999499,13.5392052 22.9999499,13.1249759 L22.9999499,11.2499803 C22.9999499,10.835751 22.6641811,10.4999821 22.2499517,10.4999821 L2.74999821,10.4999821 C2.33576885,10.4999821 2,10.835751 2,11.2499803 L2,13.1249759 C2,13.5392052 2.33576885,13.8749741 2.74999821,13.8749741 L22.2499517,13.8749741 Z M22.2499517,21.3749562 C22.6641811,21.3749562 22.9999499,21.0391873 22.9999499,20.624958 L22.9999499,18.7499624 C22.9999499,18.3357331 22.6641811,17.9999642 22.2499517,17.9999642 L2.74999821,17.9999642 C2.33576885,17.9999642 2,18.3357331 2,18.7499624 L2,20.624958 C2,21.0391873 2.33576885,21.3749562 2.74999821,21.3749562 L22.2499517,21.3749562 Z" id="bars"></path>
        </g>
    </g>
</svg>