<?xml version="1.0" encoding="UTF-8"?><svg version="1.1" width="24px" height="24px" viewBox="0 0 24.0 24.0" xmlns="http://www.w3.org/2000/svg" xmlns:xlink="http://www.w3.org/1999/xlink"><defs><clipPath id="i0"><path d="M20.2499517,14.9999642 C20.6641811,14.9999642 20.9999499,15.3357331 20.9999499,15.7499624 L20.9999499,17.624958 C20.9999499,18.0391873 20.6641811,18.3749562 20.2499517,18.3749562 L0.749998212,18.3749562 C0.335768853,18.3749562 0,18.0391873 0,17.624958 L0,15.7499624 C0,15.3357331 0.335768853,14.9999642 0.749998212,14.9999642 Z M20.2499517,7.49998212 C20.6641811,7.49998212 20.9999499,7.83575097 20.9999499,8.24998033 L20.9999499,10.1249759 C20.9999499,10.5392052 20.6641811,10.8749741 20.2499517,10.8749741 L0.749998212,10.8749741 C0.335768853,10.8749741 0,10.5392052 0,10.1249759 L0,8.24998033 C0,7.83575097 0.335768853,7.49998212 0.749998212,7.49998212 Z M20.2499517,0 C20.6641811,0 20.9999499,0.335768853 20.9999499,0.749998212 L20.9999499,2.62499374 C20.9999499,3.0392231 20.6641811,3.37499195 20.2499517,3.37499195 L0.749998212,3.37499195 C0.335768853,3.37499195 0,3.0392231 0,2.62499374 L0,0.749998212 C0,0.335768853 0.335768853,0 0.749998212,0 Z"></path></clipPath></defs><g transform="translate(2.0 3.0)"><g clip-path="url(#i0)"><polygon points="0,0 20.9999499,0 20.9999499,18.3749562 0,18.3749562 0,0" stroke="none" fill="#151515"></polygon></g></g></svg>