<?xml version="1.0" encoding="UTF-8"?><svg version="1.1" width="24px" height="24px" viewBox="0 0 24.0 24.0" xmlns="http://www.w3.org/2000/svg" xmlns:xlink="http://www.w3.org/1999/xlink"><defs><clipPath id="i0"><path d="M13.4985809,20.9999499 C13.4985809,22.6569589 12.1556428,23.9999499 10.5000071,23.9999499 C8.84437142,23.9999499 7.50143334,22.6569589 7.50143334,20.9999499 Z M10.5,0 C11.327825,0 11.999088,0.671720811 11.999088,1.5 L11.999088,2.47686177 C15.4425155,3.19216158 17.9962356,6.10778878 17.9962356,9.74997675 C17.9962356,14.5452687 19.6907811,16.0091934 20.5963728,16.9823051 C20.8776222,17.2841995 21.0023167,17.6460608 21.0000142,17.9999571 C20.9953129,18.7687236 20.3915241,19.4999535 19.4953165,19.4999535 L1.50469776,19.4999535 C0.608490179,19.4999535 0.00520487376,18.7687236 4.4408921e-14,17.9999571 C-0.00230243256,17.6460608 0.122392094,17.2846573 0.403641424,16.9823051 C1.30923314,16.0091934 3.00377866,14.5452687 3.00377866,9.74997675 C3.00377866,6.10778878 5.55749876,3.19216158 9.00092622,2.47686177 L9.00092622,1.5 C9.00092622,0.671720811 9.67218927,0 10.5,0 Z"></path></clipPath></defs><g transform="translate(1.0 0.0)"><g clip-path="url(#i0)"><polygon points="-3.12850408e-05,0 21.0000455,0 21.0000455,23.9999499 -3.12850408e-05,23.9999499 -3.12850408e-05,0" stroke="none" fill="#151515"></polygon></g></g></svg>