<?xml version="1.0" encoding="UTF-8"?>
<svg width="24px" height="24px" viewBox="0 0 24 24" version="1.1" xmlns="http://www.w3.org/2000/svg" xmlns:xlink="http://www.w3.org/1999/xlink">
    <title></title>
    <g id="Icons" stroke="none" stroke-width="1" fill="none" fill-rule="evenodd">
        <g id="Icons/3.-Size-lg/Framework/calendar" fill="#151515">
            <path d="M20.7499553,23.9999428 C21.9921398,23.9999428 22.9999499,22.9921327 22.9999499,21.7499481 L22.9999499,5.24998748 C22.9999499,4.00780294 21.9921398,3 20.7499553,3 L18.4999607,3 L18.4999607,0.562498659 C18.4999607,0.253142707 18.246818,0 17.937462,0 L16.0624665,0 C15.7531105,0 15.4999678,0.253142707 15.4999678,0.562498659 L15.4999678,3 L9.49998212,3 L9.49998212,0.562498659 C9.49998212,0.253142707 9.24683941,0 8.93748346,0 L7.06248793,0 C6.75313198,0 6.49998927,0.253142707 6.49998927,0.562498659 L6.49998927,3 L4.24999464,3 C3.0078101,3 2,4.00780294 2,5.24998748 L2,21.7499481 C2,22.9921327 3.0078101,23.9999428 4.24999464,23.9999428 L20.7499553,23.9999428 Z M20.468706,21.7499481 L4.53124397,21.7499481 C4.37656599,21.7499481 4.24999464,21.6233768 4.24999464,21.4686988 L4.24999464,7.49998212 L20.7499553,7.49998212 L20.7499553,21.4686988 C20.7499553,21.6233768 20.6233839,21.7499481 20.468706,21.7499481 Z M8.93748346,13.499975 C9.24683941,13.499975 9.49998927,13.2468251 9.49998927,12.9374692 L9.49998927,11.0624736 C9.49998927,10.7531177 9.24683941,10.499975 8.93748346,10.499975 L7.06248793,10.499975 C6.75313198,10.499975 6.49998927,10.7531177 6.49998927,11.0624736 L6.49998927,12.9374692 C6.49998927,13.2468251 6.75313198,13.499975 7.06248793,13.499975 L8.93748346,13.499975 Z M13.4374727,13.499975 C13.7468287,13.499975 13.9999785,13.2468251 13.9999785,12.9374692 L13.9999785,11.0624736 C13.9999785,10.7531177 13.7468287,10.499975 13.4374727,10.499975 L11.5624772,10.499975 C11.2531212,10.499975 10.9999785,10.7531177 10.9999785,11.0624736 L10.9999785,12.9374692 C10.9999785,13.2468251 11.2531212,13.499975 11.5624772,13.499975 L13.4374727,13.499975 Z M17.937462,13.499975 C18.246818,13.499975 18.4999678,13.2468251 18.4999678,12.9374692 L18.4999678,11.0624736 C18.4999678,10.7531177 18.246818,10.499975 17.937462,10.499975 L16.0624665,10.499975 C15.7531105,10.499975 15.4999678,10.7531177 15.4999678,11.0624736 L15.4999678,12.9374692 C15.4999678,13.2468251 15.7531105,13.499975 16.0624665,13.499975 L17.937462,13.499975 Z M13.4374727,17.9999642 C13.7468287,17.9999642 13.9999785,17.7468144 13.9999785,17.4374584 L13.9999785,15.5624629 C13.9999785,15.2531069 13.7468287,14.9999642 13.4374727,14.9999642 L11.5624772,14.9999642 C11.2531212,14.9999642 10.9999785,15.2531069 10.9999785,15.5624629 L10.9999785,17.4374584 C10.9999785,17.7468144 11.2531212,17.9999642 11.5624772,17.9999642 L13.4374727,17.9999642 Z M8.93748346,17.9999642 C9.24683941,17.9999642 9.49998927,17.7468144 9.49998927,17.4374584 L9.49998927,15.5624629 C9.49998927,15.2531069 9.24683941,14.9999642 8.93748346,14.9999642 L7.06248793,14.9999642 C6.75313198,14.9999642 6.49998927,15.2531069 6.49998927,15.5624629 L6.49998927,17.4374584 C6.49998927,17.7468144 6.75313198,17.9999642 7.06248793,17.9999642 L8.93748346,17.9999642 Z M17.937462,17.9999642 C18.246818,17.9999642 18.4999678,17.7468144 18.4999678,17.4374584 L18.4999678,15.5624629 C18.4999678,15.2531069 18.246818,14.9999642 17.937462,14.9999642 L16.0624665,14.9999642 C15.7531105,14.9999642 15.4999678,15.2531069 15.4999678,15.5624629 L15.4999678,17.4374584 C15.4999678,17.7468144 15.7531105,17.9999642 16.0624665,17.9999642 L17.937462,17.9999642 Z" id="calendar-alt"></path>
        </g>
    </g>
</svg>