<?xml version="1.0" encoding="UTF-8"?><svg version="1.1" width="24px" height="24px" viewBox="0 0 24.0 24.0" xmlns="http://www.w3.org/2000/svg" xmlns:xlink="http://www.w3.org/1999/xlink"><defs><clipPath id="i0"><path d="M11.6249723,0 C18.046832,0 23.2499446,5.20311259 23.2499446,11.6249723 C23.2499446,18.046832 18.046832,23.2499446 11.6249723,23.2499446 C5.20311259,23.2499446 0,18.046832 0,11.6249723 C0,5.20311259 5.20311259,0 11.6249723,0 Z M11.6249723,2.24999464 C6.44529713,2.24999464 2.24999464,6.44529713 2.24999464,11.6249723 C2.24999464,16.8046474 6.44529713,20.9999499 11.6249723,20.9999499 C16.8046474,20.9999499 20.9999499,16.8046474 20.9999499,11.6249723 C20.9999499,6.44529713 16.8046474,2.24999464 11.6249723,2.24999464 Z M12.3749705,4.49998927 C12.6843264,4.49998927 12.9374692,4.75313198 12.9374692,5.06248793 L12.9374692,11.7046687 L16.0687025,13.98277 C16.3218452,14.1656004 16.3733893,14.517162 16.1906047,14.770259 L15.3093202,15.9843369 C15.1265356,16.2327646 14.7749739,16.2890237 14.5218312,16.1061933 L10.5421807,13.2140493 C10.3968411,13.1062004 10.3124754,12.9374692 10.3124754,12.7593537 L10.3124754,5.06248793 C10.3124754,4.75313198 10.5656181,4.49998927 10.8749741,4.49998927 Z"></path></clipPath></defs><g clip-path="url(#i0)"><polygon points="0,0 23.2499446,0 23.2499446,23.2499446 0,23.2499446 0,0" stroke="none" fill="#151515"></polygon></g></svg>