<?xml version="1.0" encoding="UTF-8"?>
<svg width="24px" height="24px" viewBox="0 0 24 24" version="1.1" xmlns="http://www.w3.org/2000/svg" xmlns:xlink="http://www.w3.org/1999/xlink">
    <title></title>
    <g id="Icons" stroke="none" stroke-width="1" fill="none" fill-rule="evenodd">
        <g id="Icons/3.-Size-lg/Framework/comments" fill="#151515">
            <path d="M23.9221201,22.9999499 C24.3533783,22.9999499 24.7424307,22.742138 24.9158769,22.3437015 C25.0846082,21.9452649 25.0049117,21.4859002 24.7096091,21.1718293 C24.6908866,21.157776 23.6549241,20.0421628 22.9377475,18.6030946 C24.2268069,17.3327576 25.0002426,15.7390114 25.0002426,13.9999714 C25.0002426,10.2499803 21.4143136,7.15156853 16.7408781,6.59840823 C15.2643191,3.89843297 11.7955774,2 7.75028369,2 C2.36434072,2 -1.99969306,5.35622369 -1.99969306,9.49998212 C-1.99969306,11.234353 -1.22625741,12.8280992 0.0628020198,14.1031053 C-0.654374615,15.5421735 -1.68562216,16.6577867 -1.70439042,16.6765092 C-1.99969306,16.9905801 -2.08405871,17.4499449 -1.91061246,17.8483814 C-1.74188118,18.246818 -1.34811381,18.5046298 -0.916901455,18.5046298 C1.59090507,18.5046298 3.61590939,17.5577937 4.95184371,16.6858933 C5.38310184,16.7843581 5.82841327,16.8593396 6.28310884,16.9155986 C7.75495287,19.6061897 11.2096413,21.4999535 15.2502658,21.4999535 C16.2252543,21.4999535 17.1627521,21.3874355 18.053375,21.1812134 C19.3893093,22.0483989 21.4096444,22.9999499 23.9221201,22.9999499 Z M1.70342311,15.7999854 C1.82999446,15.5796643 1.95656582,15.3452898 2.07842221,15.1062004 L2.80498298,13.6484097 L1.64249491,12.499975 C1.00968392,11.8718332 0.250301573,10.8453006 0.250301573,9.49998212 C0.250301573,6.65466725 3.68622173,4.24999464 7.75028369,4.24999464 C11.8143457,4.24999464 15.2502658,6.65466725 15.2502658,9.49998212 C15.2502658,12.345297 11.8143457,14.7499696 7.75028369,14.7499696 C6.97684804,14.7499696 6.20341238,14.660889 5.45341417,14.4874885 L4.52530054,14.2765515 L3.72371248,14.7968445 C3.06279487,15.2233877 2.38777817,15.560896 1.70342311,15.7999854 Z M21.3017956,20.2952597 C20.6174405,20.0562161 19.9424238,19.7187078 19.2815062,19.2921646 L18.4799639,18.7718259 L17.5471353,18.9874778 C16.7971371,19.1608783 16.0237015,19.2499589 15.2502658,19.2499589 C12.7190218,19.2499589 10.4596431,18.3077919 9.09560214,16.9202678 C13.8440192,16.4140281 17.5002604,13.2921789 17.5002604,9.49998212 C17.5002604,9.34058919 17.4814922,9.18591121 17.4674389,9.03123324 C20.4862,9.71091912 22.7502479,11.6937177 22.7502479,13.9999714 C22.7502479,15.3452898 21.9908656,16.3718224 21.3580546,16.9999642 L20.2002357,18.1437298 L20.9267965,19.6015205 C21.0486986,19.8405642 21.17527,20.0749386 21.3017956,20.2952597 Z" id="comments"></path>
        </g>
    </g>
</svg>