<?xml version="1.0" encoding="UTF-8"?><svg version="1.1" width="24px" height="24px" viewBox="0 0 24.0 24.0" xmlns="http://www.w3.org/2000/svg" xmlns:xlink="http://www.w3.org/1999/xlink"><defs><clipPath id="i0"><path d="M9.75028369,0 C13.7955774,0 17.2643191,1.89843297 18.7408781,4.59840823 C23.4143136,5.15156853 27.0002426,8.24998033 27.0002426,11.9999714 C27.0002426,13.7390114 26.2268069,15.3327576 24.9377475,16.6030946 C25.6549241,18.0421628 26.6908866,19.157776 26.7096091,19.1718293 C27.0049117,19.4859002 27.0846082,19.9452649 26.9158769,20.3437015 C26.7424307,20.742138 26.3533783,20.9999499 25.9221201,20.9999499 C23.4096444,20.9999499 21.3893093,20.0483989 20.053375,19.1812134 C19.1627521,19.3874355 18.2252543,19.4999535 17.2502658,19.4999535 C13.2096413,19.4999535 9.75495287,17.6061897 8.28310884,14.9155986 C7.82841327,14.8593396 7.38310184,14.7843581 6.95184371,14.6858933 C5.61590939,15.5577937 3.59090507,16.5046298 1.08309855,16.5046298 C0.651886194,16.5046298 0.258118823,16.246818 0.0893875354,15.8483814 C-0.0840587064,15.4499449 0.000306937197,14.9905801 0.295609578,14.6765092 C0.314377844,14.6577867 1.34562538,13.5421735 2.06280202,12.1031053 C0.773742593,10.8280992 0.000306937197,9.23435298 0.000306937197,7.49998212 C0.000306937197,3.35622369 4.36434072,0 9.75028369,0 Z M19.4674389,7.03123324 C19.4814922,7.18591121 19.5002604,7.34058919 19.5002604,7.49998212 C19.5002604,11.2921789 15.8440192,14.4140281 11.0956021,14.9202678 C12.4596431,16.3077919 14.7190218,17.2499589 17.2502658,17.2499589 C18.0237015,17.2499589 18.7971371,17.1608783 19.5471353,16.9874778 L20.4799639,16.7718259 L21.2815062,17.2921646 C21.9424238,17.7187078 22.6174405,18.0562161 23.3017956,18.2952597 C23.17527,18.0749386 23.0486986,17.8405642 22.9267965,17.6015205 L22.2002357,16.1437298 L23.3580546,14.9999642 C23.9908656,14.3718224 24.7502479,13.3452898 24.7502479,11.9999714 C24.7502479,9.69371773 22.4862,7.71091912 19.4674389,7.03123324 Z M9.75028369,2.24999464 C5.68622173,2.24999464 2.25030157,4.65466725 2.25030157,7.49998212 C2.25030157,8.84530057 3.00968392,9.87183315 3.64249491,10.499975 L4.80498298,11.6484097 L4.07842221,13.1062004 C3.95656582,13.3452898 3.82999446,13.5796643 3.70342311,13.7999854 C4.38777817,13.560896 5.06279487,13.2233877 5.72371248,12.7968445 L6.52530054,12.2765515 L7.45341417,12.4874885 C8.20341238,12.660889 8.97684804,12.7499696 9.75028369,12.7499696 C13.8143457,12.7499696 17.2502658,10.345297 17.2502658,7.49998212 C17.2502658,4.65466725 13.8143457,2.24999464 9.75028369,2.24999464 Z"></path></clipPath></defs><g transform="translate(-2.0 2.0)"><g clip-path="url(#i0)"><polygon points="-7.28306304e-14,0 27.003159,0 27.003159,20.9999499 -7.28306304e-14,20.9999499 -7.28306304e-14,0" stroke="none" fill="#151515"></polygon></g></g></svg>