<?xml version="1.0" encoding="UTF-8"?><svg version="1.1" width="24px" height="24px" viewBox="0 0 24.0 24.0" xmlns="http://www.w3.org/2000/svg" xmlns:xlink="http://www.w3.org/1999/xlink"><defs><clipPath id="i0"><path d="M3.37499195,16.4999607 C5.24060335,16.4999607 6.74998391,18.0093412 6.74998391,19.8749526 C6.74998391,21.740564 5.24060335,23.2499446 3.37499195,23.2499446 C1.50938056,23.2499446 0,21.740564 0,19.8749526 C0,18.0093412 1.50938056,16.4999607 3.37499195,16.4999607 Z M3.37499195,8.24998033 C5.24060335,8.24998033 6.74998391,9.75936089 6.74998391,11.6249723 C6.74998391,13.4905837 5.24060335,14.9999642 3.37499195,14.9999642 C1.50938056,14.9999642 0,13.4905837 0,11.6249723 C0,9.75936089 1.50938056,8.24998033 3.37499195,8.24998033 Z M3.37499195,0 C5.24060335,0 6.74998391,1.50938056 6.74998391,3.37499195 C6.74998391,5.24060335 5.24060335,6.74998391 3.37499195,6.74998391 C1.50938056,6.74998391 0,5.24060335 0,3.37499195 C0,1.50938056 1.50938056,0 3.37499195,0 Z"></path></clipPath></defs><g transform="translate(9.0 0.0)"><g clip-path="url(#i0)"><polygon points="0,0 6.74998391,0 6.74998391,23.2499446 0,23.2499446 0,0" stroke="none" fill="#151515"></polygon></g></g></svg>