<?xml version="1.0" encoding="UTF-8"?>
<svg width="24px" height="24px" viewBox="0 0 24 24" version="1.1" xmlns="http://www.w3.org/2000/svg" xmlns:xlink="http://www.w3.org/1999/xlink">
    <title></title>
    <g id="Icons" stroke="none" stroke-width="1" fill="none" fill-rule="evenodd">
        <g id="Icons/3.-Size-lg/Framework/eye-slash" fill="#030303" fill-rule="nonzero">
            <path d="M19.0416667,22.1602564 L19.5833333,21.7435897 C19.8055553,21.604701 19.9375,21.3963677 19.9791667,21.1185897 C20.0208333,20.8408117 19.972222,20.5908117 19.8333333,20.3685897 L18.0833333,17.9102564 C19.25,17.3269231 20.3194447,16.5908117 21.2916667,15.7019231 C22.2638887,14.8130344 23.0694447,13.7991451 23.7083333,12.6602564 C23.902778,12.354701 24,12.0213677 24,11.6602564 C24,11.2991451 23.902778,10.9658117 23.7083333,10.6602564 C22.5138887,8.63247839 20.8888887,7.02136771 18.8333333,5.82692305 C16.75,4.60470104 14.472222,3.99358972 12,3.99358972 C10.8055553,3.99358972 9.63888868,4.14636771 8.5,4.45192305 L6.375,1.41025638 C6.20833333,1.18803437 5.98611132,1.05608972 5.70833333,1.01442305 C5.43055534,0.972756384 5.18055534,1.02136771 4.95833333,1.16025638 L4.41666667,1.57692305 C4.19444466,1.71581173 4.0625,1.92414506 4.02083333,2.20192305 C3.97916667,2.47970104 4.02777799,2.72970104 4.16666667,2.95192305 L17.625,21.9102564 C17.7916667,22.1324784 18.0138887,22.2644231 18.2916667,22.3060897 C18.5694447,22.3477564 18.8194447,22.2991451 19.0416667,22.1602564 Z M16.2916667,15.3685897 L15.5,14.2435897 C16,13.5491451 16.277778,12.7852564 16.3333333,11.9519231 C16.3888887,11.1185897 16.222222,10.3408117 15.8333333,9.61858972 C15.8333333,10.1185897 15.659722,10.542201 15.3125,10.8894231 C14.965278,11.2366451 14.5416667,11.4102564 14.0416667,11.4102564 C13.5416667,11.4102564 13.1180553,11.2366451 12.7708333,10.8894231 C12.4236113,10.542201 12.25,10.1185897 12.25,9.61858972 C12.25,9.11858972 12.4236113,8.69497839 12.7708333,8.34775638 C13.1180553,8.00053437 13.5416667,7.82692305 14.0416667,7.82692305 C13.5138887,7.54914506 12.9583333,7.38942305 12.375,7.34775638 C11.7916667,7.30608972 11.2361113,7.36858972 10.7083333,7.53525638 L9.875,6.41025638 C10.5694447,6.13247839 11.277778,5.99358972 12,5.99358972 C13.027778,5.99358972 13.972222,6.25053437 14.8333333,6.76442305 C15.6944447,7.27831173 16.3819447,7.96581173 16.8958333,8.82692305 C17.409722,9.68803437 17.6666667,10.6324784 17.6666667,11.6602564 C17.6666667,13.0769231 17.2083333,14.3130344 16.2916667,15.3685897 Z M12,19.3269231 C12.4444447,19.3269231 12.875,19.3130344 13.2916667,19.2852564 L11.9583333,17.3269231 C10.9305553,17.3269231 9.98611132,17.0699784 9.125,16.5560897 C8.26388868,16.042201 7.58333333,15.354701 7.08333333,14.4935897 C6.58333333,13.6324784 6.33333333,12.6880344 6.33333333,11.6602564 C6.33333333,11.0213677 6.44444466,10.3963677 6.66666667,9.78525638 L4.29166667,6.36858972 C2.625,7.50747839 1.29166667,8.93803437 0.291666667,10.6602564 C0.0972220103,10.9658117 0,11.2991451 0,11.6602564 C0,12.0213677 0.0972220103,12.354701 0.291666667,12.6602564 C1.48611132,14.6880344 3.11111132,16.2991451 5.16666667,17.4935897 C7.25,18.7158117 9.52777799,19.3269231 12,19.3269231 Z M10.9166667,15.8685897 L7.66666667,11.2435897 C7.58333333,12.3269231 7.84722201,13.2991451 8.45833333,14.1602564 C9.06944466,15.0213677 9.88888868,15.5908117 10.9166667,15.8685897 Z" id="eye-slash"></path>
        </g>
    </g>
</svg>