<?xml version="1.0" encoding="UTF-8"?><svg version="1.1" width="24px" height="24px" viewBox="0 0 24.0 24.0" xmlns="http://www.w3.org/2000/svg" xmlns:xlink="http://www.w3.org/1999/xlink"><defs><clipPath id="i0"><path d="M5.57175917,0.00111288041 L5.70833333,0.0144230509 C5.98611132,0.0560897175 6.20833333,0.188034374 6.375,0.410256384 L8.5,3.45192305 C9.63888868,3.14636771 10.8055553,2.99358972 12,2.99358972 C14.472222,2.99358972 16.75,3.60470104 18.8333333,4.82692305 C20.8888887,6.02136771 22.5138887,7.63247839 23.7083333,9.66025638 C23.902778,9.96581173 24,10.2991451 24,10.6602564 C24,11.0213677 23.902778,11.354701 23.7083333,11.6602564 C23.0694447,12.7991451 22.2638887,13.8130344 21.2916667,14.7019231 C20.3194447,15.5908117 19.25,16.3269231 18.0833333,16.9102564 L19.8333333,19.3685897 C19.972222,19.5908117 20.0208333,19.8408117 19.9791667,20.1185897 C19.9375,20.3963677 19.8055553,20.604701 19.5833333,20.7435897 L19.0416667,21.1602564 C18.8194447,21.2991451 18.5694447,21.3477564 18.2916667,21.3060897 C18.0138887,21.2644231 17.7916667,21.1324784 17.625,20.9102564 L4.16666667,1.95192305 C4.02777799,1.72970104 3.97916667,1.47970104 4.02083333,1.20192305 C4.0625,0.924145061 4.19444466,0.715811728 4.41666667,0.576923051 L4.95833333,0.160256384 C5.18055534,0.0213677073 5.43055534,-0.0272436158 5.70833333,0.0144230509 Z M4.29166667,5.36858972 L6.66666667,8.78525638 C6.44444466,9.39636771 6.33333333,10.0213677 6.33333333,10.6602564 C6.33333333,11.6880344 6.58333333,12.6324784 7.08333333,13.4935897 C7.58333333,14.354701 8.26388868,15.042201 9.125,15.5560897 C9.98611132,16.0699784 10.9305553,16.3269231 11.9583333,16.3269231 L13.2916667,18.2852564 C12.875,18.3130344 12.4444447,18.3269231 12,18.3269231 C9.52777799,18.3269231 7.25,17.7158117 5.16666667,16.4935897 C3.11111132,15.2991451 1.48611132,13.6880344 0.291666667,11.6602564 C0.0972220103,11.354701 0,11.0213677 0,10.6602564 C0,10.2991451 0.0972220103,9.96581173 0.291666667,9.66025638 C1.29166667,7.93803437 2.625,6.50747839 4.29166667,5.36858972 Z M7.66666667,10.2435897 L10.9166667,14.8685897 C9.88888868,14.5908117 9.06944466,14.0213677 8.45833333,13.1602564 C7.84722201,12.2991451 7.58333333,11.3269231 7.66666667,10.2435897 Z M12,4.99358972 C11.277778,4.99358972 10.5694447,5.13247839 9.875,5.41025638 L10.7083333,6.53525638 C11.2361113,6.36858972 11.7916667,6.30608972 12.375,6.34775638 C12.9583333,6.38942305 13.5138887,6.54914506 14.0416667,6.82692305 C13.5416667,6.82692305 13.1180553,7.00053437 12.7708333,7.34775638 C12.4236113,7.69497839 12.25,8.11858972 12.25,8.61858972 C12.25,9.11858972 12.4236113,9.54220104 12.7708333,9.88942305 C13.1180553,10.2366451 13.5416667,10.4102564 14.0416667,10.4102564 C14.5416667,10.4102564 14.965278,10.2366451 15.3125,9.88942305 C15.659722,9.54220104 15.8333333,9.11858972 15.8333333,8.61858972 C16.222222,9.34081173 16.3888887,10.1185897 16.3333333,10.9519231 C16.277778,11.7852564 16,12.5491451 15.5,13.2435897 L16.2916667,14.3685897 C17.2083333,13.3130344 17.6666667,12.0769231 17.6666667,10.6602564 C17.6666667,9.63247839 17.409722,8.68803437 16.8958333,7.82692305 C16.3819447,6.96581173 15.6944447,6.27831173 14.8333333,5.76442305 C13.972222,5.25053437 13.027778,4.99358972 12,4.99358972 Z"></path></clipPath></defs><g transform="translate(0.0 0.9999999999999769)"><g clip-path="url(#i0)"><polygon points="0,1.73472348e-18 24,1.73472348e-18 24,21.3205128 0,21.3205128 0,1.73472348e-18" stroke="none" fill="#020202"></polygon></g></g></svg>