<?xml version="1.0" encoding="UTF-8"?>
<svg width="24px" height="24px" viewBox="0 0 24 24" version="1.1" xmlns="http://www.w3.org/2000/svg" xmlns:xlink="http://www.w3.org/1999/xlink">
    <title></title>
    <g id="Icons" stroke="none" stroke-width="1" fill="none" fill-rule="evenodd">
        <g id="Icons/3.-Size-lg/Framework/eye" fill="#030303" fill-rule="nonzero">
            <path d="M12,19.1111111 C14.472222,19.1111111 16.75,18.5088565 18.8333333,17.3043478 C20.8888887,16.127214 22.5138887,14.5394527 23.7083333,12.5410628 C23.902778,12.2399358 24,11.9114334 24,11.5555556 C24,11.1996777 23.902778,10.8711753 23.7083333,10.5700483 C22.5138887,8.57165841 20.8888887,6.98389715 18.8333333,5.80676329 C16.75,4.60225464 14.472222,4 12,4 C9.52777799,4 7.25,4.60225464 5.16666667,5.80676329 C3.11111132,6.98389715 1.48611132,8.57165841 0.291666667,10.5700483 C0.0972220103,10.8711753 0,11.1996777 0,11.5555556 C0,11.9114334 0.0972220103,12.2399358 0.291666667,12.5410628 C1.48611132,14.5394527 3.11111132,16.127214 5.16666667,17.3043478 C7.25,18.5088565 9.52777799,19.1111111 12,19.1111111 Z M12,17.3333333 C10.9520695,17.3333333 9.98910697,17.0713505 9.11111111,16.5473856 C8.23311525,16.0234207 7.53213486,15.3224403 7.00816993,14.4444444 C6.48420501,13.5664486 6.22222222,12.6034861 6.22222222,11.5555556 C6.22222222,10.5076251 6.48420501,9.54466253 7.00816993,8.66666667 C7.53213486,7.78867081 8.23311525,7.08769042 9.11111111,6.56372549 C9.98910697,6.03976056 10.9520695,5.77777778 12,5.77777778 C13.0479305,5.77777778 14.010893,6.03976056 14.8888889,6.56372549 C15.7668847,7.08769042 16.4678651,7.78867081 16.9918301,8.66666667 C17.515795,9.54466253 17.7777778,10.5076251 17.7777778,11.5555556 C17.7777778,12.6034861 17.515795,13.5664486 16.9918301,14.4444444 C16.4678651,15.3224403 15.7668847,16.0234207 14.8888889,16.5473856 C14.010893,17.0713505 13.0479305,17.3333333 12,17.3333333 Z M12,16 C13.2250714,16 14.27208,15.5655268 15.1410256,14.6965812 C16.0099713,13.8276355 16.4444444,12.780627 16.4444444,11.5555556 C16.4444444,10.3304841 16.0099713,9.28347557 15.1410256,8.41452991 C14.27208,7.54558426 13.2250714,7.11111111 12,7.11111111 C11.2592595,7.11111111 10.5612533,7.28205128 9.90598291,7.62393162 C10.4188034,7.62393162 10.8532766,7.80199452 11.2094017,8.15811966 C11.5655268,8.5142448 11.7435897,8.94871795 11.7435897,9.46153846 C11.7435897,9.97435897 11.5655268,10.4088321 11.2094017,10.7649573 C10.8532766,11.1210824 10.4188034,11.2991453 9.90598291,11.2991453 C9.39316239,11.2991453 8.95868924,11.1210824 8.6025641,10.7649573 C8.24643896,10.4088321 8.06837607,9.97435897 8.06837607,9.46153846 C7.72649573,10.1168089 7.55555556,10.814815 7.55555556,11.5555556 C7.55555556,12.780627 7.99002871,13.8276355 8.85897436,14.6965812 C9.72792001,15.5655268 10.7749286,16 12,16 Z" id="eye"></path>
        </g>
    </g>
</svg>