<?xml version="1.0" encoding="UTF-8"?><svg version="1.1" width="24px" height="24px" viewBox="0 0 24.0 24.0" xmlns="http://www.w3.org/2000/svg" xmlns:xlink="http://www.w3.org/1999/xlink"><defs><clipPath id="i0"><path d="M12,0 C14.472222,0 16.75,0.602254637 18.8333333,1.80676329 C20.8888887,2.98389715 22.5138887,4.57165841 23.7083333,6.57004831 C23.902778,6.87117531 24,7.19967773 24,7.55555556 C24,7.91143338 23.902778,8.2399358 23.7083333,8.5410628 C22.5138887,10.5394527 20.8888887,12.127214 18.8333333,13.3043478 C16.75,14.5088565 14.472222,15.1111111 12,15.1111111 C9.52777799,15.1111111 7.25,14.5088565 5.16666667,13.3043478 C3.11111132,12.127214 1.48611132,10.5394527 0.291666667,8.5410628 C0.0972220103,8.2399358 0,7.91143338 0,7.55555556 C0,7.19967773 0.0972220103,6.87117531 0.291666667,6.57004831 C1.48611132,4.57165841 3.11111132,2.98389715 5.16666667,1.80676329 C7.25,0.602254637 9.52777799,0 12,0 Z M12,1.77777778 C10.9520695,1.77777778 9.98910697,2.03976056 9.11111111,2.56372549 C8.23311525,3.08769042 7.53213486,3.78867081 7.00816993,4.66666667 C6.48420501,5.54466253 6.22222222,6.50762506 6.22222222,7.55555556 C6.22222222,8.60348605 6.48420501,9.56644859 7.00816993,10.4444444 C7.53213486,11.3224403 8.23311525,12.0234207 9.11111111,12.5473856 C9.98910697,13.0713505 10.9520695,13.3333333 12,13.3333333 C13.0479305,13.3333333 14.010893,13.0713505 14.8888889,12.5473856 C15.7668847,12.0234207 16.4678651,11.3224403 16.9918301,10.4444444 C17.515795,9.56644859 17.7777778,8.60348605 17.7777778,7.55555556 C17.7777778,6.50762506 17.515795,5.54466253 16.9918301,4.66666667 C16.4678651,3.78867081 15.7668847,3.08769042 14.8888889,2.56372549 C14.010893,2.03976056 13.0479305,1.77777778 12,1.77777778 Z M12,3.11111111 C13.2250714,3.11111111 14.27208,3.54558426 15.1410256,4.41452991 C16.0099713,5.28347557 16.4444444,6.33048411 16.4444444,7.55555556 C16.4444444,8.780627 16.0099713,9.82763554 15.1410256,10.6965812 C14.27208,11.5655268 13.2250714,12 12,12 C10.7749286,12 9.72792001,11.5655268 8.85897436,10.6965812 C7.99002871,9.82763554 7.55555556,8.780627 7.55555556,7.55555556 C7.55555556,6.81481503 7.72649573,6.1168089 8.06837607,5.46153846 C8.06837607,5.97435897 8.24643896,6.40883213 8.6025641,6.76495726 C8.95868924,7.1210824 9.39316239,7.2991453 9.90598291,7.2991453 C10.4188034,7.2991453 10.8532766,7.1210824 11.2094017,6.76495726 C11.5655268,6.40883213 11.7435897,5.97435897 11.7435897,5.46153846 C11.7435897,4.94871795 11.5655268,4.5142448 11.2094017,4.15811966 C10.8532766,3.80199452 10.4188034,3.62393162 9.90598291,3.62393162 C10.5612533,3.28205128 11.2592595,3.11111111 12,3.11111111 Z"></path></clipPath></defs><g transform="translate(0.0 3.9999999999999876)"><g clip-path="url(#i0)"><polygon points="0,0 24,0 24,15.1111111 0,15.1111111 0,0" stroke="none" fill="#020202"></polygon></g></g></svg>