<?xml version="1.0" encoding="UTF-8"?>
<svg width="24px" height="32px" viewBox="0 0 24 32" version="1.1" xmlns="http://www.w3.org/2000/svg" xmlns:xlink="http://www.w3.org/1999/xlink">
    <title></title>
    <g id="Icons" stroke="none" stroke-width="1" fill="none" fill-rule="evenodd">
        <g id="Icons/3.-Size-lg/Framework/file" fill="#151515" fill-rule="nonzero">
            <g id="file-solid">
                <path d="M13.9508772,8.5 L13.9508772,0 L1.49473684,0 C0.666403509,0 0,0.66875 0,1.5 L0,30.5 C0,31.33125 0.666403509,32 1.49473684,32 L22.4210526,32 C23.249386,32 23.9157895,31.33125 23.9157895,30.5 L23.9157895,10 L15.445614,10 C14.6235088,10 13.9508772,9.325 13.9508772,8.5 Z M23.9157895,7.61875 L23.9157895,8 L15.9438596,8 L15.9438596,0 L16.3237719,0 C16.7223684,0 17.1022807,0.15625 17.3825439,0.4375 L23.4798246,6.5625 C23.7600877,6.84375 23.9157895,7.225 23.9157895,7.61875 Z" id="Shape"></path>
            </g>
        </g>
    </g>
</svg>