<?xml version="1.0" encoding="UTF-8"?><svg version="1.1" width="24px" height="32px" viewBox="0 0 24.0 32.0" xmlns="http://www.w3.org/2000/svg" xmlns:xlink="http://www.w3.org/1999/xlink"><defs><clipPath id="i0"><path d="M13.9508772,0 L13.9508772,8.5 C13.9508772,9.325 14.6235088,10 15.445614,10 L23.9157895,10 L23.9157895,30.5 C23.9157895,31.33125 23.249386,32 22.4210526,32 L1.49473684,32 C0.666403509,32 0,31.33125 0,30.5 L0,1.5 C0,0.66875 0.666403509,0 1.49473684,0 L13.9508772,0 Z M16.3237719,0 C16.7223684,0 17.1022807,0.15625 17.3825439,0.4375 L23.4798246,6.5625 C23.7600877,6.84375 23.9157895,7.225 23.9157895,7.61875 L23.9157895,8 L15.9438596,8 L15.9438596,0 L16.3237719,0 Z"></path></clipPath></defs><g clip-path="url(#i0)"><polygon points="0,0 23.9157895,0 23.9157895,32 0,32 0,0" stroke="none" fill="#151515"></polygon></g></svg>