<?xml version="1.0" encoding="UTF-8"?><svg version="1.1" width="24px" height="24px" viewBox="0 0 24.0 24.0" xmlns="http://www.w3.org/2000/svg" xmlns:xlink="http://www.w3.org/1999/xlink"><defs><clipPath id="i0"><path d="M4.49998927,8.99997854 C5.32826488,8.99997854 5.99998569,9.67169935 5.99998569,10.4999785 L5.99998569,13.4999678 C5.99998569,14.3282434 5.32826488,14.9999642 4.49998927,14.9999642 L1.5,14.9999642 C0.671720811,14.9999642 0,14.3282434 0,13.4999678 L0,10.4999785 C0,9.67169935 0.671720811,8.99997854 1.5,8.99997854 Z M11.9999714,8.99997854 C12.828247,8.99997854 13.4999678,9.67169935 13.4999678,10.4999785 L13.4999678,13.4999678 C13.4999678,14.3282434 12.828247,14.9999642 11.9999714,14.9999642 L8.99998212,14.9999642 C8.17170293,14.9999642 7.49998212,14.3282434 7.49998212,13.4999678 L7.49998212,10.4999785 C7.49998212,9.67169935 8.17170293,8.99997854 8.99998212,8.99997854 Z M19.4999535,8.99997854 C20.3282291,8.99997854 20.9999499,9.67169935 20.9999499,10.4999785 L20.9999499,13.4999678 C20.9999499,14.3282434 20.3282291,14.9999642 19.4999535,14.9999642 L16.4999642,14.9999642 C15.671685,14.9999642 14.9999642,14.3282434 14.9999642,13.4999678 L14.9999642,10.4999785 C14.9999642,9.67169935 15.671685,8.99997854 16.4999642,8.99997854 Z M4.49998927,0 C5.32826488,0 5.99998569,0.671720811 5.99998569,1.5 L5.99998569,4.49998927 C5.99998569,5.32826488 5.32826488,5.99998569 4.49998927,5.99998569 L1.5,5.99998569 C0.671720811,5.99998569 0,5.32826488 0,4.49998927 L0,1.5 C0,0.671720811 0.671720811,0 1.5,0 Z M11.9999714,0 C12.828247,0 13.4999678,0.671720811 13.4999678,1.5 L13.4999678,4.49998927 C13.4999678,5.32826488 12.828247,5.99998569 11.9999714,5.99998569 L8.99998212,5.99998569 C8.17170293,5.99998569 7.49998212,5.32826488 7.49998212,4.49998927 L7.49998212,1.5 C7.49998212,0.671720811 8.17170293,0 8.99998212,0 Z M19.4999535,0 C20.3282291,0 20.9999499,0.671720811 20.9999499,1.5 L20.9999499,4.49998927 C20.9999499,5.32826488 20.3282291,5.99998569 19.4999535,5.99998569 L16.4999642,5.99998569 C15.671685,5.99998569 14.9999642,5.32826488 14.9999642,4.49998927 L14.9999642,1.5 C14.9999642,0.671720811 15.671685,0 16.4999642,0 Z"></path></clipPath></defs><g transform="translate(2.0 4.999999999999999)"><g clip-path="url(#i0)"><polygon points="0,0 20.9999499,0 20.9999499,14.9999642 0,14.9999642 0,0" stroke="none" fill="#151515"></polygon></g></g></svg>