<?xml version="1.0" encoding="UTF-8"?><svg version="1.1" width="24px" height="24px" viewBox="0 0 24.0 24.0" xmlns="http://www.w3.org/2000/svg" xmlns:xlink="http://www.w3.org/1999/xlink"><defs><clipPath id="i0"><path d="M4.49998927,14.9999642 C5.32826488,14.9999642 5.99998569,15.671685 5.99998569,16.4999642 L5.99998569,19.4999535 C5.99998569,20.3282291 5.32826488,20.9999499 4.49998927,20.9999499 L1.5,20.9999499 C0.671720811,20.9999499 0,20.3282291 0,19.4999535 L0,16.4999642 C0,15.671685 0.671720811,14.9999642 1.5,14.9999642 Z M13.4999678,14.9999642 C14.3282434,14.9999642 14.9999642,15.671685 14.9999642,16.4999642 L14.9999642,19.4999535 C14.9999642,20.3282291 14.3282434,20.9999499 13.4999678,20.9999499 L10.4999785,20.9999499 C9.67169935,20.9999499 8.99997854,20.3282291 8.99997854,19.4999535 L8.99997854,16.4999642 C8.99997854,15.671685 9.67169935,14.9999642 10.4999785,14.9999642 Z M4.49998927,7.49998212 C5.32826488,7.49998212 5.99998569,8.17170293 5.99998569,8.99998212 L5.99998569,11.9999714 C5.99998569,12.828247 5.32826488,13.4999678 4.49998927,13.4999678 L1.5,13.4999678 C0.671720811,13.4999678 0,12.828247 0,11.9999714 L0,8.99998212 C0,8.17170293 0.671720811,7.49998212 1.5,7.49998212 Z M13.4999678,7.49998212 C14.3282434,7.49998212 14.9999642,8.17170293 14.9999642,8.99998212 L14.9999642,11.9999714 C14.9999642,12.828247 14.3282434,13.4999678 13.4999678,13.4999678 L10.4999785,13.4999678 C9.67169935,13.4999678 8.99997854,12.828247 8.99997854,11.9999714 L8.99997854,8.99998212 C8.99997854,8.17170293 9.67169935,7.49998212 10.4999785,7.49998212 Z M4.49998927,0 C5.32826488,0 5.99998569,0.671720811 5.99998569,1.5 L5.99998569,4.49998927 C5.99998569,5.32826488 5.32826488,5.99998569 4.49998927,5.99998569 L1.5,5.99998569 C0.671720811,5.99998569 0,5.32826488 0,4.49998927 L0,1.5 C0,0.671720811 0.671720811,0 1.5,0 Z M13.4999678,0 C14.3282434,0 14.9999642,0.671720811 14.9999642,1.5 L14.9999642,4.49998927 C14.9999642,5.32826488 14.3282434,5.99998569 13.4999678,5.99998569 L10.4999785,5.99998569 C9.67169935,5.99998569 8.99997854,5.32826488 8.99997854,4.49998927 L8.99997854,1.5 C8.99997854,0.671720811 9.67169935,0 10.4999785,0 Z"></path></clipPath></defs><g transform="translate(4.999999999999999 2.0)"><g clip-path="url(#i0)"><polygon points="0,0 14.9999642,0 14.9999642,20.9999499 0,20.9999499 0,0" stroke="none" fill="#151515"></polygon></g></g></svg>