<?xml version="1.0" encoding="UTF-8"?><svg version="1.1" width="24px" height="24px" viewBox="0 0 24.0 24.0" xmlns="http://www.w3.org/2000/svg" xmlns:xlink="http://www.w3.org/1999/xlink"><defs><clipPath id="i0"><path d="M13.50157,5.32080335 C13.6128978,5.32080335 13.7735267,5.37747436 13.8601812,5.44732893 L22.500633,12.5601355 L22.500633,20.2476171 C22.500633,20.6616176 22.1646353,20.9976153 21.7506348,20.9976153 L16.4997318,20.9831043 L16.3979602,20.9762536 C16.0320192,20.926563 15.7496878,20.6126065 15.7496878,20.2331061 L15.7497336,15.7476279 C15.7497336,15.3336274 15.4136901,14.9976296 14.9997354,14.9976296 L11.9997425,14.9976296 C11.585742,14.9976296 11.2497443,15.3336274 11.2497443,15.7476279 L11.2497443,20.2340216 C11.2497443,20.6459621 10.9153945,20.9819599 10.503454,20.9840198 L5.25067413,20.9976153 C4.83667365,20.9976153 4.50067592,20.6616176 4.50067592,20.2476171 L4.50067592,12.5653082 L13.1430046,5.44732893 C13.229659,5.37747436 13.3902879,5.32080335 13.50157,5.32080335 Z M22.3131334,0 C22.6236338,0 22.8756321,0.251998301 22.8756321,0.562498659 L22.8756321,7.05512844 L26.7943545,10.2852843 C26.9089782,10.3784848 27.0019956,10.5739952 27.0019956,10.7217152 C27.0019956,10.8329515 26.9446837,10.9929395 26.8740509,11.0789073 L25.6787413,12.5320288 C25.5856324,12.6446842 25.3913579,12.7361452 25.2451943,12.7361452 C25.1333629,12.7361452 24.9726883,12.678284 24.8865831,12.6070103 L13.8601812,3.52545851 C13.7735267,3.45560394 13.6128978,3.39893294 13.50157,3.39893294 C13.3902879,3.39893294 13.229659,3.45560394 13.1430046,3.52545851 L2.11710616,12.6070103 C2.03100102,12.6781009 1.87050946,12.7358247 1.75886116,12.7358247 C1.61223981,12.7358247 1.41759916,12.6438602 1.32444447,12.5306098 L0.129134824,11.0774882 C0.0578611902,10.9913373 0,10.8306627 0,10.718877 C0,10.5726677 0.0914609636,10.378439 0.204116335,10.2852843 L12.0695513,0.513289181 C12.4134226,0.23034613 13.053924,0.000686643871 13.4992354,0.000686643871 C13.9445926,0.000686643871 14.5850482,0.23034613 14.9289195,0.513289181 L19.125641,3.96610077 L19.125641,0.562498659 C19.125641,0.251998301 19.3776393,0 19.6881397,0 Z"></path></clipPath></defs><g transform="translate(-2.0 2.0)"><g clip-path="url(#i0)"><polygon points="0,0 27.0019956,0 27.0019956,20.9976153 0,20.9976153 0,0" stroke="none" fill="#151515"></polygon></g></g></svg>