<?xml version="1.0" encoding="UTF-8"?><svg version="1.1" width="24px" height="24px" viewBox="0 0 24.0 24.0" xmlns="http://www.w3.org/2000/svg" xmlns:xlink="http://www.w3.org/1999/xlink"><defs><clipPath id="i0"><path d="M4.36578986,0.329520394 C4.80510461,-0.109840131 5.51738318,-0.109840131 5.95674371,0.329520394 L9.99077645,4.36350736 C10.6994845,5.07226116 10.1975478,6.28400449 9.19523086,6.28400449 L7.03623942,6.28400449 L7.03623942,20.4374742 C7.03623942,20.7481118 6.78437845,20.9999728 6.47374076,20.9999728 L3.84874702,20.9999728 C3.53810934,20.9999728 3.28624836,20.7481118 3.28624836,20.4374742 L3.28624836,6.28400449 L1.12730271,6.28400449 C0.124985759,6.28400449 -0.37695091,5.07221538 0.331757117,4.36350736 Z"></path></clipPath></defs><g transform="translate(7.0 2.0)"><g clip-path="url(#i0)"><polygon points="-2.32036612e-14,0 10.3225336,0 10.3225336,20.9999728 -2.32036612e-14,20.9999728 -2.32036612e-14,0" stroke="none" fill="#151515"></polygon></g></g></svg>