<?xml version="1.0" encoding="UTF-8"?><svg version="1.1" width="24px" height="24px" viewBox="0 0 24.0 24.0" xmlns="http://www.w3.org/2000/svg" xmlns:xlink="http://www.w3.org/1999/xlink"><defs><clipPath id="i0"><path d="M6.47378654,0 C6.78442423,0 7.0362852,0.251860972 7.0362852,0.562498659 L7.0362852,14.7159683 L9.19523086,14.7159683 C10.1975478,14.7159683 10.6994845,15.9277574 9.99077645,16.6364655 L5.95674371,20.6704524 C5.51742896,21.109813 4.80515038,21.109813 4.36578986,20.6704524 L0.331757117,16.6364655 C-0.37695091,15.9277117 0.124985759,14.7159683 1.12730271,14.7159683 L3.28629414,14.7159683 L3.28629414,0.562498659 C3.28629414,0.251860972 3.53815511,0 3.8487928,0 Z"></path></clipPath></defs><g transform="translate(7.0 2.0000000000000018)"><g clip-path="url(#i0)"><polygon points="-2.30926389e-14,0 10.3225336,0 10.3225336,20.9999728 -2.30926389e-14,20.9999728 -2.30926389e-14,0" stroke="none" fill="#151515"></polygon></g></g></svg>