<?xml version="1.0" encoding="UTF-8"?>
<svg width="24px" height="24px" viewBox="0 0 24 24" version="1.1" xmlns="http://www.w3.org/2000/svg" xmlns:xlink="http://www.w3.org/1999/xlink">
    <title></title>
    <g id="Icons" stroke="none" stroke-width="1" fill="none" fill-rule="evenodd">
        <g id="Icons/3.-Size-lg/Framework/question-circle-(fas)" fill="#151515">
            <path d="M11.625,23.25 C18.0448608,23.25 23.25,18.0467377 23.25,11.625 C23.25,5.20701599 18.0448608,0 11.625,0 C5.20513916,0 0,5.20701599 0,11.625 C0,18.0467377 5.20513916,23.25 11.625,23.25 Z M12.9375,14.25 L10.3125,14.25 C10.0018616,14.25 9.75,13.9981384 9.75,13.6875 L9.75,13.5 C9.75,11.5753784 11.2091217,10.806015 12.3118286,10.187851 C13.2573395,9.65776062 13.8368225,9.29722595 13.8368225,8.59524536 C13.8368225,7.66662598 12.652359,7.05033875 11.6947632,7.05033875 C10.4202118,7.05033875 9.84603882,7.66621399 9.00865173,8.72831726 C8.8190918,8.96878052 8.47146606,9.01281738 8.22747803,8.82778931 L6.60099792,7.59448242 C6.36341858,7.41435242 6.3079834,7.08018494 6.47373962,6.83239746 C7.75314331,4.91986084 9.38241577,3.84375 11.9369659,3.84375 C14.5791321,3.84375 17.3993225,5.90615845 17.3993225,8.625 C17.3993225,12.2352905 13.5,12.290863 13.5,13.6250153 L13.5,13.6875 C13.5,13.9981384 13.2481384,14.25 12.9375,14.25 Z M11.625,19.78125 C10.4360046,19.78125 9.46875,18.8139496 9.46875,17.625 C9.46875,16.4360046 10.4360046,15.46875 11.625,15.46875 C12.8139954,15.46875 13.78125,16.4360046 13.78125,17.625 C13.78125,18.8139496 12.8139954,19.78125 11.625,19.78125 Z" id="question-circle"></path>
        </g>
    </g>
</svg>