<?xml version="1.0" encoding="UTF-8"?><svg version="1.1" width="24px" height="24px" viewBox="0 0 24.0 24.0" xmlns="http://www.w3.org/2000/svg" xmlns:xlink="http://www.w3.org/1999/xlink"><defs><clipPath id="i0"><path d="M11.6249723,0 C18.0448178,0 23.2499446,5.20700358 23.2499446,11.6249723 C23.2499446,18.0466946 18.0448178,23.2499446 11.6249723,23.2499446 C5.20512675,23.2499446 0,18.0466946 0,11.6249723 C0,5.20700358 5.20512675,0 11.6249723,0 Z M11.6249723,2.24999464 C6.44396962,2.24999464 2.24999464,6.44552601 2.24999464,11.6249723 C2.24999464,16.8078975 6.44378652,20.9999499 11.6249723,20.9999499 C16.8078975,20.9999499 20.9999499,16.8060665 20.9999499,11.6249723 C20.9999499,6.44392385 16.8042354,2.24999464 11.6249723,2.24999464 Z M11.6249723,14.9062145 C12.7105562,14.9062145 13.5937176,15.7893758 13.5937176,16.8749598 C13.5937176,17.9605437 12.7105562,18.8437051 11.6249723,18.8437051 C10.5393883,18.8437051 9.65622698,17.9605437 9.65622698,16.8749598 C9.65622698,15.7893758 10.5393883,14.9062145 11.6249723,14.9062145 Z M11.8965628,4.87498838 C14.196774,4.87498838 16.6520294,6.67047055 16.6520294,9.0374693 C16.6520294,12.180513 13.2573079,12.2288985 13.2573079,13.3904252 L13.2573079,13.6874674 C13.2573079,13.9981051 13.0054469,14.249966 12.6948092,14.249966 L10.5550896,14.249966 C10.2444519,14.249966 9.99259092,13.9981051 9.99259092,13.6874674 L9.99259092,13.2815693 C9.99259092,11.6060209 11.2629279,10.9362227 12.222856,10.3980312 C13.0460504,9.93656078 13.5505506,9.62267298 13.5505506,9.01151416 C13.5505506,8.20310544 12.5193488,7.66651615 11.6856716,7.66651615 C10.5987144,7.66651615 10.096915,8.18108706 9.39150288,9.07134373 C9.2013483,9.31130287 8.85431849,9.35588895 8.61028526,9.17090709 L7.30607389,8.18191103 C7.06666406,8.00040817 7.01306006,7.66322025 7.18211178,7.41488405 C8.28962257,5.78863671 9.70030951,4.87498838 11.8965628,4.87498838 Z"></path></clipPath></defs><g clip-path="url(#i0)"><polygon points="0,0 23.2499446,0 23.2499446,23.2499446 0,23.2499446 0,0" stroke="none" fill="#151515"></polygon></g></svg>