<?xml version="1.0" encoding="UTF-8"?><svg version="1.1" width="24px" height="24px" viewBox="0 0 24.0 24.0" xmlns="http://www.w3.org/2000/svg" xmlns:xlink="http://www.w3.org/1999/xlink"><defs><clipPath id="i0"><path d="M11.625,0 C18.0448608,0 23.25,5.20701599 23.25,11.625 C23.25,18.0467377 18.0448608,23.25 11.625,23.25 C5.20513916,23.25 0,18.0467377 0,11.625 C0,5.20701599 5.20513916,0 11.625,0 Z M11.625,15.46875 C10.4360046,15.46875 9.46875,16.4360046 9.46875,17.625 C9.46875,18.8139496 10.4360046,19.78125 11.625,19.78125 C12.8139954,19.78125 13.78125,18.8139496 13.78125,17.625 C13.78125,16.4360046 12.8139954,15.46875 11.625,15.46875 Z M11.9369659,3.84375 C9.38241577,3.84375 7.75314331,4.91986084 6.47373962,6.83239746 C6.3079834,7.08018494 6.36341858,7.41435242 6.60099792,7.59448242 L8.22747803,8.82778931 C8.47146606,9.01281738 8.8190918,8.96878052 9.00865173,8.72831726 C9.84603882,7.66621399 10.4202118,7.05033875 11.6947632,7.05033875 C12.652359,7.05033875 13.8368225,7.66662598 13.8368225,8.59524536 C13.8368225,9.29722595 13.2573395,9.65776062 12.3118286,10.187851 C11.2091217,10.806015 9.75,11.5753784 9.75,13.5 L9.75,13.6875 C9.75,13.9981384 10.0018616,14.25 10.3125,14.25 L12.9375,14.25 C13.2481384,14.25 13.5,13.9981384 13.5,13.6875 L13.5,13.6250153 C13.5,12.290863 17.3993225,12.2352905 17.3993225,8.625 C17.3993225,5.90615845 14.5791321,3.84375 11.9369659,3.84375 Z"></path></clipPath></defs><g clip-path="url(#i0)"><polygon points="0,0 23.25,0 23.25,23.25 0,23.25 0,0" stroke="none" fill="#151515"></polygon></g></svg>