<?xml version="1.0" encoding="UTF-8"?><svg version="1.1" width="24px" height="32px" viewBox="0 0 24.0 32.0" xmlns="http://www.w3.org/2000/svg" xmlns:xlink="http://www.w3.org/1999/xlink"><defs><clipPath id="i0"><path d="M12,0 C14.20625,0 16,1.79375 16,4 L21,4 C22.65625,4 24,5.34375 24,7 L24,29 C24,30.65625 22.65625,32 21,32 L3,32 C1.34375,32 0,30.65625 0,29 L0,7 C0,5.34375 1.34375,4 3,4 L8,4 C8,1.79375 9.79375,0 12,0 Z M15.4982635,22.6666667 L8.50173648,22.6667083 C8.22578142,22.6667083 8,22.9667036 8,23.3333646 L8,24.6666771 C8,25.033338 8.22578142,25.3333333 8.50173648,25.3333333 L15.4982635,25.3332917 C15.7742186,25.3332917 16,25.033338 16,24.6666354 L16,23.3333229 C16,22.966662 15.7742186,22.6666667 15.4982635,22.6666667 Z M18.1651451,17.3333333 L7.16818821,17.333375 C6.89235136,17.333375 6.66666667,17.6333703 6.66666667,18.0000312 L6.66666667,19.3333437 C6.66666667,19.7000047 6.89235136,20 7.16818821,20 L18.1651451,19.9999583 C18.440982,19.9999583 18.6666667,19.7000047 18.6666667,19.3333021 L18.6666667,17.9999896 C18.6666667,17.6333286 18.440982,17.3333333 18.1651451,17.3333333 Z M4.49998535,12 C4.22499341,12 4,12.2980071 4,12.662238 L4,13.9867139 C4,14.3509861 4.22499341,14.6489518 4.49998535,14.6489518 L19.5000146,14.6666667 C19.7750066,14.6666667 20,14.3686596 20,14.0044287 L20,12.6799528 C20,12.3157219 19.7750066,12.0177149 19.5000146,12.0177149 Z M12,2.66666667 C11.2611111,2.66666667 10.6666667,3.26111111 10.6666667,4 C10.6666667,4.73888889 11.2611111,5.33333333 12,5.33333333 C12.7388889,5.33333333 13.3333333,4.73888889 13.3333333,4 C13.3333333,3.26111111 12.7388889,2.66666667 12,2.66666667 Z"></path></clipPath></defs><g clip-path="url(#i0)"><polygon points="0,0 24,0 24,32 0,32 0,0" stroke="none" fill="#010202"></polygon></g></svg>