<?xml version="1.0" encoding="UTF-8"?><svg version="1.1" width="24px" height="24px" viewBox="0 0 24.0 24.0" xmlns="http://www.w3.org/2000/svg" xmlns:xlink="http://www.w3.org/1999/xlink"><defs><clipPath id="i0"><path d="M15.3749633,0 C15.9962845,0 16.4999607,0.503676167 16.4999607,1.12499732 L16.4999607,3.37499195 C16.4999607,3.9963131 15.9962845,4.49998927 15.3749633,4.49998927 L13.3965135,4.49998927 L13.9700442,10.043723 C16.2195353,11.0896647 18,12.9757839 18,15.3749633 C18,15.9962845 17.4963267,16.4999607 16.8750055,16.4999607 L10.5000207,16.4999607 L10.5000207,21.3752695 C10.5000207,21.4241585 10.4822596,21.4992774 10.4604243,21.5429937 L9.33542696,23.7929883 C9.19727421,24.0692023 8.80245399,24.0686987 8.6645759,23.7929883 L7.53957858,21.5429937 C7.51353189,21.4909003 7.49998212,21.4334969 7.49998212,21.3752695 L7.49998212,16.4999607 L1.12499732,16.4999607 C0.503676167,16.4999607 0,15.9962845 0,15.3749633 C0,12.9965663 1.75616036,11.1009257 4.02991288,10.043723 L4.60344361,4.49998927 L2.62499374,4.49998927 C2.00367259,4.49998927 1.5,3.9963131 1.5,3.37499195 L1.5,1.12499732 C1.5,0.503676167 2.00367259,0 2.62499374,0 Z"></path></clipPath></defs><g transform="translate(3.0 0.0)"><g clip-path="url(#i0)"><polygon points="0,0 18,0 18,23.99996 0,23.99996 0,0" stroke="none" fill="#151515"></polygon></g></g></svg>