<?xml version="1.0" encoding="UTF-8"?><svg version="1.1" width="24px" height="24px" viewBox="0 0 24.0 24.0" xmlns="http://www.w3.org/2000/svg" xmlns:xlink="http://www.w3.org/1999/xlink"><defs><clipPath id="i0"><path d="M8,0 C12.4178125,0 16,3.5821875 16,8 C16,12.4178125 12.4178125,16 8,16 C3.5821875,16 0,12.4178125 0,8 C0,3.5821875 3.5821875,0 8,0 Z M8.12859375,3.17578125 C7.9071875,3.17578125 7.71078125,3.29359375 7.62140625,3.5115625 L4.12859375,11.9178125 L5.32140625,11.9178125 L6.703125,8.453125 L10.8357813,11.7857812 C11,11.9214063 11.1178125,11.9821875 11.2785938,11.9821875 C11.5892188,11.9821875 11.8607813,11.7464062 11.8607813,11.4107812 C11.8642187,11.3535937 11.85,11.2678125 11.8107812,11.175 L8.62140625,3.5115625 C8.5321875,3.29 8.35,3.17578125 8.12859375,3.17578125 Z M8.13578125,4.88578125 L10.2071875,10 L7.0821875,7.53921875 L8.13578125,4.88578125 Z"></path></clipPath></defs><g transform="translate(4.0 4.0)"><g clip-path="url(#i0)"><polygon points="0,0 16,0 16,16 0,16 0,0" stroke="none" fill="#151515"></polygon></g></g></svg>