<?xml version="1.0" encoding="UTF-8"?><svg version="1.1" width="24px" height="24px" viewBox="0 0 24.0 24.0" xmlns="http://www.w3.org/2000/svg" xmlns:xlink="http://www.w3.org/1999/xlink"><defs><clipPath id="i0"><path d="M8.23746815,8.73124139 L12.3624583,11.365604 L8.23746815,13.9999666 L4.11247799,11.365604 L8.23746815,8.73124139 Z M4.13435904,0 L8.26249251,2.63436262 L4.13750234,5.26872523 L8.26249251,7.90311836 L4.13750234,10.537481 L0,7.87809401 L4.13435904,5.24373139 L0,2.63436262 L4.13435904,0 Z M12.3656016,0 L16.4999607,2.63436262 L12.3656016,5.26872523 L16.4999607,7.89997506 L12.3656016,10.5343377 L8.26249251,7.87809401 L12.3874827,5.24373139 L8.26249251,2.63124983 L12.3656016,0 Z"></path></clipPath></defs><g transform="translate(4.0 5.0)"><g clip-path="url(#i0)"><polygon points="0,0 16.4999607,0 16.4999607,13.9999666 0,13.9999666 0,0" stroke="none" fill="#151515"></polygon></g></g></svg>