<?xml version="1.0" encoding="UTF-8"?><svg version="1.1" width="24px" height="24px" viewBox="0 0 24.0 24.0" xmlns="http://www.w3.org/2000/svg" xmlns:xlink="http://www.w3.org/1999/xlink"><defs><clipPath id="i0"><path d="M5.50935576,0 C5.98436073,0.571867533 6.55622827,1.23437206 6.9624773,1.5093653 C7.62498182,1.94686425 8.29059913,2.11873885 8.98435358,2.5562378 C9.40622757,2.81560608 11.9999714,4.64998281 11.9999714,8.15934334 C11.9999714,11.659335 9.23435298,13.9718295 6.05622946,13.9718295 C2.86873706,13.9718295 0,11.4624666 0,8.0499686 C0,4.64372672 2.65624367,2.81560608 3.14998639,2.5562378 C3.7343661,2.24059524 4.15624009,2.07812005 4.8218574,1.54687131 C5.14998162,1.28747252 5.42497486,0.915616713 5.50935576,0 Z M9.06247839,12.7312013 C9.19373418,12.5999455 9.12186546,12.3218395 8.9312226,12.465577 C8.66559824,12.6624454 8.07184965,12.9030759 7.22810166,12.9030759 C6.14997923,12.9030759 5.6187305,12.487458 5.6187305,12.487458 C5.42497486,12.487458 5.26561245,12.7124636 5.41560598,12.8624571 C6.24687231,13.6280803 8.4343671,13.3593431 9.06247839,12.7312013 Z M8.50934861,11.1280863 C8.26560529,10.9687238 7.63123791,10.9749494 7.35935745,11.0874675 C7.15623294,11.1718484 6.47184736,11.6124601 6.65934692,11.8687156 C6.73435894,11.9718342 6.82185263,11.9093344 7.04060211,11.7218348 C7.26560768,11.5405914 7.41560122,11.3780857 7.87498122,11.3780857 C8.66559824,11.3780857 8.44059267,11.9999714 8.70310425,11.8687156 C9.01249072,11.7155788 8.63749161,11.2155799 8.50934861,11.1280863 Z M4.79686356,8.10621236 C2.7218563,8.11872454 1.96563252,10.5624748 3.17812353,11.3937106 C4.96562537,12.6030888 7.2530955,10.0530766 8.2187304,10.0812138 C8.82810395,10.1030948 9.77497059,11.5968351 10.2499756,11.6280851 C11.4718354,11.7312037 12.2655958,8.31559297 10.7437183,8.31559297 C10.1187198,8.31559297 8.85309779,9.61246488 8.18748048,9.62183375 C7.41560122,9.63745871 6.34373488,8.0905874 4.79686356,8.10621236 Z"></path></clipPath></defs><g transform="translate(5.999999999999999 4.999999999999999)"><g clip-path="url(#i0)"><polygon points="0,0 11.9999714,0 11.9999714,13.9718295 0,13.9718295 0,0" stroke="none" fill="#151515"></polygon></g></g></svg>