<?xml version="1.0" encoding="UTF-8"?><svg version="1.1" width="24px" height="24px" viewBox="0 0 24.0 24.0" xmlns="http://www.w3.org/2000/svg" xmlns:xlink="http://www.w3.org/1999/xlink"><defs><clipPath id="i0"><path d="M7.64997566,0 C11.9843464,0 15.499963,3.29061105 15.499963,7.62498182 C15.499963,11.0906108 13.3812242,14.0562104 10.2562317,15.093714 C9.85935149,15.1655827 9.71561404,14.9187266 9.71561404,14.7156021 L9.71596341,14.5860861 C9.71707913,14.3064658 9.72061788,13.7249444 9.72291694,13.0950248 L9.72411831,12.7132933 L9.72498292,12.10309 C9.72498292,11.3687168 9.4812396,10.8999679 9.19373418,10.6531118 L9.48541292,10.6194223 C11.1394205,10.4209147 12.7812195,10.0480785 12.7812195,7.19999504 C12.7812195,6.34373488 12.4749764,5.91249201 11.9749776,5.35936222 C12.0562152,5.15623771 12.3218395,4.32185859 11.8937094,3.23748007 C11.2406043,3.03124277 9.73746458,4.08122806 9.73746458,4.08122806 C9.11246607,3.90624069 8.44059267,3.8156037 7.77497536,3.8156037 C7.10935805,3.8156037 6.43748465,3.90624069 5.81248614,4.08122806 C5.81248614,4.08122806 4.30937693,3.03435556 3.65624128,3.23748007 C3.2281112,4.31874581 3.49373557,5.15623771 3.57500368,5.35936222 C3.07500488,5.9093487 2.83748713,6.34062209 2.83748713,7.19999504 C2.83748713,10.2062135 4.59999514,10.4593562 6.34684766,10.6531118 C6.12187261,10.8593491 5.9187481,11.2062111 5.84684885,11.7062099 C5.39998102,11.9124777 4.25310265,12.2593397 3.56874759,11.0531048 C3.14061751,10.3093626 2.36248216,10.2468628 2.36248216,10.2468628 C1.59685899,10.2374634 2.31249449,10.7280933 2.31249449,10.7280933 C2.82500547,10.9624678 3.18123631,11.8718589 3.18123631,11.8718589 C3.64061632,13.2718495 5.8281111,12.8031006 5.8281111,12.8031006 L5.82863008,13.1058516 C5.83059672,13.7468494 5.83747998,14.5557776 5.83747998,14.7218277 C5.83747998,14.9249522 5.69685531,15.1718388 5.29686237,15.0999701 C2.1812387,14.0562104 0,11.0906108 0,7.62498182 C0,3.29061105 3.31560489,0 7.64997566,0 Z"></path></clipPath></defs><g transform="translate(4.0 3.999999999999999)"><g clip-path="url(#i0)"><polygon points="0,0 15.499963,0 15.499963,15.1127 0,15.1127 0,0" stroke="none" fill="#151515"></polygon></g></g></svg>