<?xml version="1.0" encoding="UTF-8"?><svg version="1.1" width="24px" height="24px" viewBox="0 0 24.0 24.0" xmlns="http://www.w3.org/2000/svg" xmlns:xlink="http://www.w3.org/1999/xlink"><defs><clipPath id="i0"><path d="M2.69823761,0.208602408 C2.79824347,-0.069534136 3.19198033,-0.069534136 3.28887341,0.208602408 C3.28887341,0.208602408 3.65367109,1.33721416 4.05192454,2.56842698 L4.21222482,3.06395214 C4.64026158,4.38697391 5.05609776,5.67108328 5.05760698,5.67108328 L10.9451052,5.67108328 L12.7138387,0.208602408 C12.8138446,-0.069534136 13.2075815,-0.069534136 13.3044745,0.208602408 L15.0700953,5.67108328 L10.9482179,5.67108328 L8.00135607,14.8585614 L5.0544942,5.67108328 L0.932616819,5.67108328 Z M0.929504034,5.67108328 L7.99824328,14.8585614 L0.251374547,9.10857509 C0.0388811573,8.94918215 -0.0517558336,8.67108328 0.0295122832,8.42107672 L0.929504034,5.67108328 Z M15.0732081,5.67108328 L15.9731999,8.42107672 C16.0513247,8.67108328 15.963831,8.94918215 15.7482248,9.10857509 L8.00135607,14.8585614 L15.0732081,5.67108328 Z"></path></clipPath></defs><g transform="translate(4.0 5.0)"><g clip-path="url(#i0)"><polygon points="1.28785871e-14,0 16.0013523,0 16.0013523,14.8585614 1.28785871e-14,14.8585614 1.28785871e-14,0" stroke="none" fill="#151515"></polygon></g></g></svg>