<?xml version="1.0" encoding="UTF-8"?><svg version="1.1" width="24px" height="24px" viewBox="0 0 24.0 24.0" xmlns="http://www.w3.org/2000/svg" xmlns:xlink="http://www.w3.org/1999/xlink"><defs><clipPath id="i0"><path d="M7.74998152,0 C9.83747044,0 11.5937224,0.765623175 12.946838,2.02813237 L10.8374681,4.05623423 C8.07810574,1.39373447 2.94686187,3.3937297 2.94686187,7.74998152 C2.94686187,10.4531001 5.10625003,12.6437076 7.74998152,12.6437076 C10.8187303,12.6437076 11.9687215,10.4437312 12.1499649,9.30310892 L7.74998152,9.30310892 L7.74998152,6.63749638 L15.1280767,6.63749638 C15.199976,7.03434602 15.2499636,7.41560122 15.2499636,7.93122499 C15.2499636,12.3530894 12.2218337,15.499963 7.74998152,15.499963 C3.46248564,15.499963 0,12.0374774 0,7.74998152 C0,3.46248564 3.46248564,0 7.74998152,0 Z"></path></clipPath></defs><g transform="translate(4.0 4.0)"><g clip-path="url(#i0)"><polygon points="0,0 15.2499636,0 15.2499636,15.499963 0,15.499963 0,0" stroke="none" fill="#151515"></polygon></g></g></svg>