<?xml version="1.0" encoding="UTF-8"?><svg version="1.1" width="24px" height="24px" viewBox="0 0 24.0 24.0" xmlns="http://www.w3.org/2000/svg" xmlns:xlink="http://www.w3.org/1999/xlink"><defs><clipPath id="i0"><path d="M13.9999666,0 L13.9999666,13.9999666 L0,13.9999666 L0,0 L13.9999666,0 Z M10.6562246,6.35310375 C9.48435239,6.35310375 8.73124139,7.10310196 8.73124139,8.09061792 C8.73124139,9.16248426 9.35935269,9.67185194 10.3093626,10.0749882 L10.6374868,10.2156129 C11.2406043,10.4812372 11.5968351,10.6405996 11.5968351,11.0906108 C11.5968351,11.4687227 11.2468604,11.7406031 10.7030995,11.7406031 C10.0562199,11.7406031 9.6874769,11.3999667 9.40622757,10.9405867 L8.33436123,11.5593596 C8.71872921,12.3218395 9.50934622,12.9031064 10.7312366,12.9031064 C11.9780903,12.9031064 12.909332,12.2530836 12.909332,11.0718425 C12.909332,9.97183902 12.2812207,9.4812396 11.1624795,9.00309133 L10.8343612,8.86246666 C10.2687133,8.61561056 10.02497,8.45621763 10.02497,8.06248078 C10.02497,7.74372543 10.2687133,7.49998212 10.6531118,7.49998212 C11.0312237,7.49998212 11.274967,7.65934453 11.4999726,8.06248078 L12.524964,7.40623234 C12.0937212,6.64372195 11.4937165,6.35310375 10.6562246,6.35310375 Z M7.61872573,6.42811578 L6.30311608,6.42811578 L6.30311608,10.8999679 C6.30311608,11.5593596 6.02812283,11.7280909 5.59684945,11.7280909 C5.14372553,11.7280909 4.95622598,11.418735 4.74998868,11.0531048 L3.67812233,11.6999843 C3.99062159,12.3593455 4.59999514,12.9031064 5.65312373,12.9031064 C6.81873985,12.9031064 7.61872573,12.2812207 7.61872573,10.9187362 L7.61872573,6.42811578 Z"></path></clipPath></defs><g transform="translate(5.0 5.0)"><g clip-path="url(#i0)"><polygon points="0,0 13.9999666,0 13.9999666,13.9999666 0,13.9999666 0,0" stroke="none" fill="#151515"></polygon></g></g></svg>