<?xml version="1.0" encoding="UTF-8"?>
<svg width="24px" height="24px" viewBox="0 0 24 24" version="1.1" xmlns="http://www.w3.org/2000/svg" xmlns:xlink="http://www.w3.org/1999/xlink">
    <title></title>
    <g id="Icons" stroke="none" stroke-width="1" fill="none" fill-rule="evenodd">
        <g id="Icons/1.-Size-md/Brands/linux" fill="#151515">
            <path d="M14.6789332,19.9968581 C15.1976698,19.9562088 15.7445435,19.6531089 16.1882985,19.124973 C16.6132853,18.612462 17.3132958,18.3999686 17.7789014,18.1187193 C18.0101631,17.9780946 18.1976626,17.8031072 18.2132876,17.5468518 C18.2257998,17.2905963 18.0757757,17.0062341 17.7289138,16.6187229 C17.6164262,16.4937232 17.5632953,16.2562359 17.5039082,16.0030932 C17.4476644,15.749981 17.3820518,15.4781006 17.175784,15.3031132 C17.1351652,15.26872 17.0945464,15.2374701 17.0507843,15.2124762 C17.0101655,15.1874824 16.9664034,15.1656013 16.9226718,15.1499764 C17.2101772,14.2968595 17.0976592,13.4468554 16.807041,12.6781195 C16.4507796,11.7374784 15.8289244,10.9156115 15.3539194,10.3531128 C14.8195579,9.68123941 14.3007908,9.04375924 14.3101597,8.10311817 C14.3257847,6.6687649 14.4695526,4.00312184 11.9414214,4 C8.74144739,3.99375297 9.54143327,7.23126356 9.50707056,8.22500508 C9.45393959,8.95623503 9.30705883,9.53124587 8.80394724,10.2468814 C8.21331144,10.9500047 7.38207563,12.0843709 6.98830826,13.2687247 C6.8008087,13.8281106 6.71331502,14.3968654 6.79455262,14.9343702 C6.5914281,15.1156137 6.43832177,15.3937197 6.27581606,15.5655943 C6.14456027,15.6999934 5.95394793,15.749981 5.74456733,15.8249931 C5.53518672,15.8999746 5.30706837,16.0124926 5.1664437,16.278117 C5.10083107,16.3999734 5.07895002,16.5312292 5.07895002,16.6655978 C5.07895002,16.7874847 5.09768776,16.9124844 5.11645603,17.0343408 C5.15393153,17.2874835 5.19458084,17.5249707 5.14144987,17.6843636 C4.97894415,18.1343443 4.9570631,18.4468435 5.07269393,18.6749619 C5.19143754,18.9031107 5.42895529,19.0030861 5.70080522,19.0593604 C6.24145335,19.1718479 6.9758266,19.1437107 7.55395022,19.4499844 C8.17269264,19.7749653 8.80080394,19.8905962 9.30080274,19.7749653 C9.66332019,19.6937277 9.96019448,19.4749783 10.110188,19.1437107 C10.5008121,19.140598 10.932055,18.9749795 11.6195533,18.9374734 C12.0851894,18.8999674 12.6695386,19.1030919 13.341412,19.0655859 C13.3601803,19.1374852 13.3851741,19.2093539 13.4195368,19.2749665 L13.4195368,19.2781098 C13.6789356,19.7999592 14.1633095,20.0374769 14.6789332,19.9968581 Z M12.8351876,7.97811847 C12.7851694,7.95312463 12.6508009,7.89688087 12.4414203,7.82501214 C12.4758135,7.78750613 12.5383133,7.74063124 12.5633072,7.68124417 C12.7133007,7.31250116 12.5570511,6.83749619 12.2789145,6.82812731 C12.0507962,6.81250235 11.8445589,7.1656204 11.9101715,7.5468756 C11.782059,7.48437575 11.6164405,7.43750086 11.5039225,7.40936372 C11.4726726,7.19375754 11.4945536,6.95312701 11.5945595,6.72812145 C11.9008026,6.034367 12.663313,6.04687917 12.9695562,6.71563979 C13.1726807,7.15936431 13.0820437,7.68124417 12.8351876,7.97811847 Z M10.0601698,7.99688673 C9.5726832,7.54061951 9.73204561,6.3687473 10.3226814,6.3687473 C10.6382935,6.3687473 10.9726738,6.81250235 10.9195428,7.41561981 C10.810168,7.44686973 10.6976805,7.49374462 10.600818,7.55938778 C10.6382935,7.28125123 10.4976688,6.93124596 10.3008004,6.94687092 C10.0383193,6.96875198 9.99455719,7.60937545 10.2445566,7.82501214 C10.2758065,7.85000598 10.3039437,7.81875605 10.0601698,7.99688673 Z M11.1508044,9.66250166 C11.0289175,9.65624557 10.932055,9.63125173 10.8508174,9.5968585 C10.600818,9.48748376 10.4695622,9.27187759 10.2258188,9.12810962 C9.95705118,8.97811608 9.81331373,8.80312871 9.76643884,8.64999186 C9.72267674,8.49688554 9.76643884,8.36874253 9.89769463,8.26562388 C10.0914198,8.12188643 10.3226814,7.95312463 10.3383064,7.93749967 C10.4851871,7.79998779 10.7601804,7.49374462 11.2101915,7.49374462 C11.4320538,7.49374462 11.6976781,7.56561335 12.0195463,7.77188116 C12.2164147,7.89999365 12.3726643,7.90936253 12.7258129,8.06249937 C12.988294,8.17187411 13.1539125,8.36562975 13.0539371,8.63125412 C12.972669,8.85311638 12.7101879,9.08123473 12.3445577,9.19686556 C11.9976652,9.3093836 11.7258153,9.69686437 11.1508044,9.66250166 Z M11.1226673,9.20000886 C11.4851847,9.20000886 11.8257906,9.0156221 12.1164393,8.86248525 C12.2695457,8.78124765 12.4570452,8.64373578 12.5789321,8.53750434 C12.7007885,8.43124239 12.7632884,8.34063591 12.6757947,8.33123652 C12.588301,8.32186765 12.5945571,8.41250464 12.4882951,8.49062945 C12.3508138,8.59063532 12.1851648,8.72186059 12.0539395,8.79687262 C11.8226778,8.92812841 11.4445659,9.11562796 11.1195545,9.11562796 C10.7945431,9.11562796 10.5351748,8.96563442 10.3414192,8.81249758 C10.2445566,8.73437277 10.163319,8.65624795 10.1008191,8.59686089 C10.0539443,8.5531293 10.0414321,8.45312344 9.96642005,8.44375456 C9.92268847,8.44061126 9.91017629,8.55938539 10.019551,8.64687908 C10.0820509,8.70623563 10.1664318,8.78750374 10.2695504,8.86874134 C10.4758183,9.03124706 10.7632932,9.20000886 11.1226673,9.20000886 Z M9.95705118,17.8937137 C9.82893869,17.6874764 9.6570641,17.4687269 9.50707056,17.2812274 C9.72893283,17.2812274 9.95079509,17.2124714 10.0289199,17.0030908 C10.1008191,16.8093657 10.0289199,16.5374853 9.79768877,16.224986 C9.37581477,15.6562313 8.60082272,15.2093634 8.60082272,15.2093634 C8.17894873,14.9468519 7.94143098,14.6249837 7.83205625,14.2749785 C7.72268151,13.9249732 7.73830647,13.5468613 7.82268737,13.174975 C7.98519309,12.45937 8.40392378,11.7625028 8.67269145,11.3250038 C8.74456017,11.2718728 8.69768528,11.4249791 8.40081099,11.9749961 C8.13518663,12.4781077 7.6383006,13.6406111 8.31957339,14.5499717 C8.33831114,13.9031227 8.49144798,13.2437309 8.75081626,12.6281013 C9.12581537,11.7718716 9.91643238,10.2875002 9.97893223,9.10625909 C10.0132949,9.13125292 10.1226697,9.20623443 10.1726879,9.23437157 C10.3164253,9.31875248 10.4258001,9.44375218 10.5664247,9.5562397 C10.953936,9.86873896 11.4570476,9.84374751 11.8914338,9.59374572 C12.0851894,9.48437098 12.241439,9.35937128 12.3882893,9.31249639 C12.6976757,9.21563383 12.9445624,9.04375924 13.085187,8.84374751 C13.325787,9.79375745 13.8882857,11.1656109 14.2476598,11.8343715 C14.4383027,12.1906023 14.8195579,12.9437438 14.9851764,13.8531045 C15.088295,13.8499917 15.2039259,13.8656166 15.3257823,13.8968666 C15.7570557,12.7812381 14.9601826,11.578116 14.5976651,11.2437357 C14.4507844,11.0999982 14.4445588,11.0374984 14.5164275,11.0406112 C14.9101644,11.3906164 15.4289314,12.0937398 15.616431,12.8843568 C15.7039247,13.2468742 15.7195496,13.6249861 15.6289127,13.9999852 C16.1414236,14.2124786 16.7507972,14.5593711 16.5882915,15.0874765 C16.5195355,15.0843637 16.4882856,15.0874765 16.4570357,15.0874765 C16.5570415,14.7718645 16.3351793,14.53749 15.7445435,14.2718657 C15.1320572,14.003098 14.6195462,14.003098 14.5476774,14.6624897 C14.169535,14.7937455 13.9758099,15.1218697 13.8789168,15.5156066 C13.7914231,15.8656119 13.7664293,16.2874859 13.7414355,16.7624908 C13.7258105,17.0030908 13.6289174,17.3249895 13.5289116,17.6687387 C12.5258012,18.3843437 11.1320667,18.6968429 9.95705118,17.8937137 Z M13.6101797,19.1812168 C13.4632989,18.8343548 13.5351676,18.4593557 13.6445424,18.0468506 C13.7601732,17.6030955 13.9320478,17.1468588 13.9539289,16.7781158 C13.9789227,16.3031108 14.0070598,15.8874929 14.0851846,15.5687376 C14.1664222,15.2468694 14.2914219,15.0312328 14.5132842,14.9093458 C14.5226836,14.9031203 14.5351653,14.899977 14.5445341,14.8937209 C14.5695585,15.306226 14.772683,15.7249872 15.1320572,15.8155937 C15.525794,15.9187428 16.0914054,15.5812192 16.332036,15.306226 C16.6132853,15.2968571 16.8226659,15.2781194 17.0383026,15.4656189 C17.3476586,15.7312433 17.2601649,16.4124856 17.5726641,16.7656036 C17.9039011,17.1280905 18.0101631,17.3749772 18.0007942,17.5343396 C17.9726571,18.0593627 16.7132912,18.1562253 16.0257928,18.9874611 C15.6132877,19.478091 15.1070328,19.7499715 14.6633083,19.7843342 C14.2195532,19.8187274 13.8351852,19.6343407 13.6101797,19.1812168 Z M7.6477,19.2655977 C6.71331502,18.7718549 5.5039368,19.0624731 5.25708069,18.5812121 C5.18206867,18.4343618 5.18206867,18.1843624 5.33831829,17.7562324 L5.33831829,17.7499763 C5.41333032,17.512489 5.35705604,17.2499775 5.31958055,17.0030908 C5.28207453,16.7593475 5.26330627,16.534342 5.34768717,16.3780923 C5.45706191,16.1687422 5.61331153,16.0937302 5.81017996,16.0249743 C6.13207861,15.9093435 6.1789535,15.9187428 6.42269681,15.7156183 C6.5945714,15.5374877 6.7195711,15.3124821 6.86956464,15.1531197 C7.02892706,14.9812451 7.1820639,14.899977 7.42269443,14.937483 C7.67580662,14.974989 7.8945561,15.1499764 8.10704949,15.4374818 L8.71956634,16.5499669 C9.01644063,17.1718527 10.0664259,18.0624755 10.0008133,18.703099 C9.91643238,19.7999592 8.62892935,19.7781086 7.6477,19.2655977 Z" id="linux"></path>
        </g>
    </g>
</svg>