<?xml version="1.0" encoding="UTF-8"?><svg version="1.1" width="24px" height="24px" viewBox="0 0 24.0 24.0" xmlns="http://www.w3.org/2000/svg" xmlns:xlink="http://www.w3.org/1999/xlink"><defs><clipPath id="i0"><path d="M6.94142145,8.8817842e-15 C9.46955263,0.00312183983 9.32578466,2.6687649 9.3101597,4.10311817 C9.30079082,5.04375924 9.8195579,5.68123941 10.3539194,6.3531128 C10.8289244,6.91561146 11.4507796,7.7374784 11.807041,8.67811947 C12.0976592,9.44685543 12.2101772,10.2968595 11.9226718,11.1499764 C11.9664034,11.1656013 12.0101655,11.1874824 12.0507843,11.2124762 C12.0945464,11.2374701 12.1351652,11.26872 12.175784,11.3031132 C12.3820518,11.4781006 12.4476644,11.749981 12.5039082,12.0030932 C12.5632953,12.2562359 12.6164262,12.4937232 12.7289138,12.6187229 C13.0757757,13.0062341 13.2257998,13.2905963 13.2132876,13.5468518 C13.1976626,13.8031072 13.0101631,13.9780946 12.7789014,14.1187193 C12.3132958,14.3999686 11.6132853,14.612462 11.1882985,15.124973 C10.7445435,15.6531089 10.1976698,15.9562088 9.67893323,15.9968581 C9.16330946,16.0374769 8.67893562,15.7999592 8.41953682,15.2781098 C8.38517411,15.2093539 8.36018027,15.1374852 8.34141201,15.0655859 C7.66953861,15.1030919 7.08518942,14.8999674 6.61955332,14.9374734 C5.93205496,14.9749795 5.50081209,15.140598 5.11018802,15.1437107 C4.96019448,15.4749783 4.66332019,15.6937277 4.30080274,15.7749653 C3.80080394,15.8905962 3.17269264,15.7749653 2.55395022,15.4499844 C1.9758266,15.1437107 1.24145335,15.1718479 0.700805223,15.0593604 C0.428955285,15.0030861 0.191437541,14.9031107 0.0726939274,14.6749619 C-0.0429369004,14.4468435 -0.0210558491,14.1343443 0.141449867,13.6843636 C0.194580844,13.5249707 0.153931527,13.2874835 0.11645603,13.0343408 C0.0976877643,12.9124844 0.078950016,12.7874847 0.078950016,12.6655978 C0.078950016,12.5312292 0.100831067,12.3999734 0.166443704,12.278117 C0.307068369,12.0124926 0.535186721,11.8999746 0.744567326,11.8249931 C0.95394793,11.749981 1.14456027,11.6999934 1.27581606,11.5655943 C1.43832177,11.3937197 1.5914281,11.1156137 1.79455262,10.9343702 C1.71331502,10.3968654 1.8008087,9.82811062 1.98830826,9.26872475 C2.38207563,8.08437088 3.21331144,6.95000469 3.80394724,6.24688137 C4.30705883,5.53124587 4.45393959,4.95623503 4.50707056,4.22500508 C4.54143327,3.23126356 3.74144739,-0.00624703432 6.94142145,8.8817842e-15 Z M9.54453414,10.8937209 C9.53516526,10.899977 9.5226836,10.9031203 9.51328421,10.9093458 C9.29142195,11.0312328 9.16642225,11.2468694 9.08518465,11.5687376 C9.00705983,11.8874929 8.97892269,12.3031108 8.95392886,12.7781158 C8.9320478,13.1468588 8.76017321,13.6030955 8.64454239,14.0468506 C8.53516765,14.4593557 8.46329892,14.8343548 8.61017968,15.1812168 C8.83518524,15.6343407 9.21955322,15.8187274 9.66330827,15.7843342 C10.1070328,15.7499715 10.6132877,15.478091 11.0257928,14.9874611 C11.7132912,14.1562253 12.9726571,14.0593627 13.0007942,13.5343396 C13.0101631,13.3749772 12.9039011,13.1280905 12.5726641,12.7656036 C12.2601649,12.4124856 12.3476586,11.7312433 12.0383026,11.4656189 C11.8226659,11.2781194 11.6132853,11.2968571 11.332036,11.306226 C11.0914054,11.5812192 10.525794,11.9187428 10.1320572,11.8155937 C9.77268301,11.7249872 9.56955849,11.306226 9.54453414,10.8937209 Z M2.42269443,10.937483 C2.1820639,10.899977 2.02892706,10.9812451 1.86956464,11.1531197 C1.7195711,11.3124821 1.5945714,11.5374877 1.42269681,11.7156183 C1.1789535,11.9187428 1.13207861,11.9093435 0.810179962,12.0249743 C0.613311535,12.0937302 0.457061907,12.1687422 0.347687168,12.3780923 C0.263306266,12.534342 0.282074532,12.7593475 0.319580546,13.0030908 C0.357056042,13.2499775 0.413330322,13.512489 0.338318294,13.7499763 C0.182068667,14.1843624 0.182068667,14.4343618 0.257080695,14.5812121 C0.503936796,15.0624731 1.71331502,14.7718549 2.6477,15.2655977 C3.62892935,15.7781086 4.91643238,15.7999592 5.00081328,14.703099 C5.06642592,14.0624755 4.01644063,13.1718527 3.71956634,12.5499669 L3.10704949,11.4374818 C2.8945561,11.1499764 2.67580662,10.974989 2.42269443,10.937483 Z M8.08518703,4.84374751 C7.94456237,5.04375924 7.69767575,5.21563383 7.38828928,5.31249639 C7.24143904,5.35937128 7.08518942,5.48437098 6.89143377,5.59374572 C6.4570476,5.84374751 5.95393601,5.86873896 5.56642473,5.5562397 C5.42580006,5.44375218 5.31642532,5.31875248 5.17268787,5.23437157 C5.12266968,5.20623443 5.01329494,5.13125292 4.97893223,5.10625909 C4.91643238,6.28750017 4.12581537,7.77187163 3.75081626,8.62810128 C3.49144798,9.24373091 3.33831114,9.90312265 3.31957339,10.5499717 C2.6383006,9.64061107 3.13518663,8.47810774 3.40081099,7.97499614 C3.69768528,7.42497914 3.74456017,7.27187282 3.67269145,7.3250038 C3.40392378,7.76250275 2.98519309,8.45936999 2.82268737,9.17497497 C2.73830647,9.54686129 2.72268151,9.92497318 2.83205625,10.2749785 C2.94143098,10.6249837 3.17894873,10.9468519 3.60082272,11.2093634 C3.60082272,11.2093634 4.37581477,11.6562313 4.79768877,12.224986 C5.0289199,12.5374853 5.10081915,12.8093657 5.0289199,13.0030908 C4.95079509,13.2124714 4.72893283,13.2812274 4.50707056,13.2812274 C4.6570641,13.4687269 4.82893869,13.6874764 4.95705118,13.8937137 C6.13206669,14.6968429 7.52580116,14.3843437 8.52891156,13.6687387 C8.62891742,13.3249895 8.7258105,13.0030908 8.74143547,12.7624908 C8.7664293,12.2874859 8.79142314,11.8656119 8.87891683,11.5156066 C8.97580991,11.1218697 9.16953503,10.7937455 9.54767744,10.6624897 C9.61954617,10.003098 10.1320572,10.003098 10.7445435,10.2718657 C11.3351793,10.53749 11.5570415,10.7718645 11.4570357,11.0874765 C11.4882856,11.0874765 11.5195355,11.0843637 11.5882915,11.0874765 C11.7507972,10.5593711 11.1414236,10.2124786 10.6289127,9.99998521 C10.7195496,9.62498611 10.7039247,9.24687422 10.616431,8.88435677 C10.4289314,8.09373976 9.91016437,7.39061643 9.51642752,7.04061116 C9.44455879,7.03749838 9.45078436,7.09999823 9.59766511,7.24373568 C9.96018256,7.57811599 10.7570557,8.78123812 10.3257823,9.89686656 C10.2039259,9.86561664 10.088295,9.84999167 9.9851764,9.85310446 C9.8195579,8.94374383 9.4383027,8.19060232 9.24765985,7.83437148 C8.8882857,7.16561087 8.32578704,5.79375745 8.08518703,4.84374751 Z M6.2101915,3.49374462 C5.76018037,3.49374462 5.48518713,3.79998779 5.33830637,3.93749967 C5.32268141,3.95312463 5.09141975,4.12188643 4.89769463,4.26562388 C4.76643884,4.36874253 4.72267674,4.49688554 4.76643884,4.64999186 C4.81331373,4.80312871 4.95705118,4.97811608 5.22581885,5.12810962 C5.46956216,5.27187759 5.60081795,5.48748376 5.85081736,5.5968585 C5.93205496,5.63125173 6.02891752,5.65624557 6.15080444,5.66250166 C6.72581527,5.69686437 6.99766521,5.3093836 7.34455769,5.19686556 C7.71018793,5.08123473 7.97266899,4.85311638 8.05393711,4.63125412 C8.15391245,4.36562975 7.98829395,4.17187411 7.72581289,4.06249937 C7.37266432,3.90936253 7.21641469,3.89999365 7.01954626,3.77188116 C6.69767813,3.56561335 6.43205377,3.49374462 6.2101915,3.49374462 Z M7.6757947,4.33123652 C7.76328838,4.34063591 7.70078853,4.43124239 7.57893213,4.53750434 C7.45704522,4.64373578 7.26954567,4.78124765 7.11643934,4.86248525 C6.82579062,5.0156221 6.48518474,5.20000886 6.1226673,5.20000886 C5.76329315,5.20000886 5.47581825,5.03124706 5.26955043,4.86874134 C5.16643178,4.78750374 5.08205088,4.70623563 5.01955103,4.64687908 C4.91017629,4.55938539 4.92268847,4.44061126 4.96642005,4.44375456 C5.04143208,4.45312344 5.05394426,4.5531293 5.10081915,4.59686089 C5.163319,4.65624795 5.2445566,4.73437277 5.34141916,4.81249758 C5.5351748,4.96563442 5.79454308,5.11562796 6.11955451,5.11562796 C6.44456594,5.11562796 6.82267783,4.92812841 7.05393949,4.79687262 C7.18516476,4.72186059 7.35081378,4.59063532 7.48829514,4.49062945 C7.5945571,4.41250464 7.58830101,4.32186765 7.6757947,4.33123652 Z M5.32268141,2.3687473 C4.73204561,2.3687473 4.5726832,3.54061951 5.06016983,3.99688673 C5.30394366,3.81875605 5.27580652,3.85000598 5.2445566,3.82501214 C4.99455719,3.60937545 5.0383193,2.96875198 5.30080036,2.94687092 C5.49766879,2.93124596 5.63829345,3.28125123 5.60081795,3.55938778 C5.69768052,3.49374462 5.81016804,3.44686973 5.91954278,3.41561981 C5.97267376,2.81250235 5.63829345,2.3687473 5.32268141,2.3687473 Z M7.9695562,2.71563979 C7.66331304,2.04687917 6.90080265,2.034367 6.59455948,2.72812145 C6.49455362,2.95312701 6.47267257,3.19375754 6.50392249,3.40936372 C6.61644053,3.43750086 6.78205903,3.48437575 6.91017152,3.5468756 C6.84455889,3.1656204 7.05079619,2.81250235 7.27891454,2.82812731 C7.55705108,2.83749619 7.71330071,3.31250116 7.56330717,3.68124417 C7.53831333,3.74063124 7.47581348,3.78750613 7.44142026,3.82501214 C7.65080086,3.89688087 7.78516944,3.95312463 7.83518763,3.97811847 C8.08204373,3.68124417 8.17268072,3.15936431 7.9695562,2.71563979 Z"></path></clipPath></defs><g transform="translate(4.9999999999999725 4.0)"><g clip-path="url(#i0)"><polygon points="-4.35207426e-14,-9.02810702e-06 13.2140081,-9.02810702e-06 13.2140081,16.0013047 -4.35207426e-14,16.0013047 -4.35207426e-14,-9.02810702e-06" stroke="none" fill="#151515"></polygon></g></g></svg>