<?xml version="1.0" encoding="UTF-8"?><svg version="1.1" width="24px" height="24px" viewBox="0 0 24.0 24.0" xmlns="http://www.w3.org/2000/svg" xmlns:xlink="http://www.w3.org/1999/xlink"><defs><clipPath id="i0"><path d="M3.6117274,10.6670052 L3.6117274,11.2390095 C3.61221725,11.6827081 3.97178399,12.0422746 4.41548257,12.0427642 L11.5792617,12.0427642 C12.0229604,12.0422748 12.3825274,11.6827082 12.3830172,11.2390095 L12.3830172,10.6670052 L16,10.6670052 L16,14.1685368 C15.9975542,14.9914417 15.3289837,15.6568257 14.5060765,15.6553425 L1.48595528,15.6553425 C0.665961259,15.6529135 0.00195876849,14.9885321 0,14.1685368 L0,10.6670052 L3.6117274,10.6670052 Z M3.61257509,6.02129753 L3.61257509,9.63404171 L0,9.63404171 L0,6.02129753 L3.61257509,6.02129753 Z M15.9955923,6.02129753 L15.9955923,9.63404171 L12.3830172,9.63404171 L12.3830172,6.02129753 L15.9955923,6.02129753 Z M14.508789,0 C15.3303079,0 15.9970898,0.664441575 16,1.48595528 L16,4.98850349 L12.3855596,4.98850349 L12.3855596,4.41649971 C12.3855992,4.20330296 12.3009363,3.99882437 12.1501993,3.84805557 C11.9994624,3.69728677 11.7950017,3.61258062 11.581805,3.61257509 L4.4181951,3.61257509 C4.20499826,3.61258048 4.00053744,3.69728657 3.8498004,3.84805539 C3.69906336,3.9988242 3.61440037,4.20330287 3.61443992,4.41649971 L3.61443992,4.98850349 L0.00254299244,4.98850349 L0.00254299244,1.48595528 C0.00496779822,0.666225201 0.668937455,0.00233128799 1.48866781,0 Z"></path></clipPath></defs><g transform="translate(4.0 4.000000000000049)"><g clip-path="url(#i0)"><polygon points="0,0 16,0 16,15.655345 0,15.655345 0,0" stroke="none" fill="#151515"></polygon></g></g></svg>