<?xml version="1.0" encoding="UTF-8"?>
<svg width="24px" height="24px" viewBox="0 0 24 24" version="1.1" xmlns="http://www.w3.org/2000/svg" xmlns:xlink="http://www.w3.org/1999/xlink">
    <title></title>
    <g id="Icons" stroke="none" stroke-width="1" fill="none" fill-rule="evenodd">
        <g id="Icons/1.-Size-md/Brands/Satellite" fill="#151515">
            <path d="M19.925,17.0952151 L15.7109375,12.8827464 C15.6140625,12.7858722 15.4546875,12.7858722 15.3578125,12.8827464 L14.4734375,13.7671148 L13.765625,13.0593076 L16.0640625,10.7608872 C16.1609375,10.6640129 16.1609375,10.5046391 16.0640625,10.4077648 L15.8875,10.2312037 L16.4171875,9.69995761 C16.5140625,9.60308333 16.5140625,9.44370952 16.4171875,9.34683523 L14.6515625,7.57966088 C14.5546875,7.48278659 14.3953125,7.48278659 14.2984375,7.57966088 L13.7671875,8.11090692 L13.590625,7.93434573 C13.49375,7.83747145 13.334375,7.83747145 13.2375,7.93434573 L10.9390625,10.2312037 L10.23125,9.52339642 L11.115625,8.639028 C11.2125,8.54215372 11.2125,8.38277991 11.115625,8.28590563 L6.9015625,4.07343695 C6.853125,4.02499981 6.7890625,4 6.725,4 C6.6609375,4 6.596875,4.02499981 6.5484375,4.07343695 L4.0734375,6.54841855 C4.025,6.59685569 4,6.6609177 4,6.72497973 C4,6.78904175 4.025,6.85310378 4.0734375,6.90154092 L8.2875,11.1155721 C8.384375,11.2124464 8.54375,11.2124464 8.640625,11.1155721 L9.525,10.2312037 L10.2328125,10.9390109 L9.3484375,11.8233793 C9.2515625,11.9202536 9.2515625,12.0796274 9.3484375,12.1765017 L11.8234375,14.6514833 C11.9203125,14.7483575 12.0796875,14.7483575 12.1765625,14.6514833 L13.0609375,13.7671148 L13.76875,14.4749221 L12.884375,15.3592905 C12.7875,15.4561648 12.7875,15.6155386 12.884375,15.7124129 L17.096875,19.9248816 C17.1453125,19.9733188 17.2109375,20.0014434 17.275,20 C17.3390625,20 17.4015625,19.9733188 17.45,19.9248816 L19.925,17.4499 C19.9734375,17.4014628 20,17.3374008 20,17.2733388 C20,17.2092768 19.9734375,17.1452147 19.925,17.0952151 Z M8.4640625,9.87808128 L5.3109375,6.72497973 L6.725,5.31092775 L9.878125,8.4640293 L8.4640625,9.87808128 Z M17.2734375,18.6873907 L14.1203125,15.5342892 L15.534375,14.1202372 L18.6875,17.2733388 L17.2734375,18.6873907 Z M6.6953125,18.3623932 C6.403125,18.6545785 5.928125,18.6545785 5.634375,18.3623932 C5.340625,18.0702078 5.3421875,17.5952114 5.634375,17.3014636 C5.7921875,17.1436522 6,17.0717778 6.20625,17.0827152 L7.4,15.8889741 L5.6328125,14.1217997 C5.6328125,14.1217997 7.753125,11.9968155 9.8765625,14.1186747 C12,16.240534 9.8765625,18.3639557 9.8765625,18.3639557 L8.1078125,16.5967813 L6.9140625,17.7905224 C6.925,17.9967709 6.853125,18.2061443 6.6953125,18.3623932 Z" id="pficon-satellite"></path>
        </g>
    </g>
</svg>