<?xml version="1.0" encoding="UTF-8"?><svg version="1.1" width="24px" height="24px" viewBox="0 0 24.0 24.0" xmlns="http://www.w3.org/2000/svg" xmlns:xlink="http://www.w3.org/1999/xlink"><defs><clipPath id="i0"><path d="M2.725,0 C2.7890625,0 2.853125,0.0249998141 2.9015625,0.0734369538 L7.115625,4.28590563 C7.2125,4.38277991 7.2125,4.54215372 7.115625,4.639028 L6.23125,5.52339642 L6.9390625,6.23120366 L9.2375,3.93434573 C9.334375,3.83747145 9.49375,3.83747145 9.590625,3.93434573 L9.7671875,4.11090692 L10.2984375,3.57966088 C10.3953125,3.48278659 10.5546875,3.48278659 10.6515625,3.57966088 L12.4171875,5.34683523 C12.5140625,5.44370952 12.5140625,5.60308333 12.4171875,5.69995761 L11.8875,6.23120366 L12.0640625,6.40776484 C12.1609375,6.50463911 12.1609375,6.66401294 12.0640625,6.7608872 L9.765625,9.05930761 L10.4734375,9.76711484 L11.3578125,8.88274642 C11.4546875,8.78587216 11.6140625,8.78587216 11.7109375,8.88274642 L15.925,13.0952151 C15.9734375,13.1452147 16,13.2092768 16,13.2733388 C16,13.3374008 15.9734375,13.4014628 15.925,13.4499 L13.45,15.9248816 C13.4015625,15.9733188 13.3390625,16 13.275,16 C13.2109375,16.0014434 13.1453125,15.9733188 13.096875,15.9248816 L8.884375,11.7124129 C8.7875,11.6155386 8.7875,11.4561648 8.884375,11.3592905 L9.76875,10.4749221 L9.0609375,9.76711484 L8.1765625,10.6514833 C8.0796875,10.7483575 7.9203125,10.7483575 7.8234375,10.6514833 L5.3484375,8.17650169 C5.2515625,8.07962741 5.2515625,7.92025359 5.3484375,7.82337931 L6.2328125,6.93901089 L5.525,6.23120366 L4.640625,7.11557208 C4.54375,7.21244636 4.384375,7.21244636 4.2875,7.11557208 L0.0734375,2.90154092 C0.025,2.85310378 0,2.78904175 0,2.72497973 C0,2.6609177 0.025,2.59685569 0.0734375,2.54841855 L2.5484375,0.0734369538 C2.596875,0.0249998141 2.6609375,0 2.725,0 Z M11.534375,10.1202372 L10.1203125,11.5342892 L13.2734375,14.6873908 L14.6875,13.2733388 L11.534375,10.1202372 Z M5.8765625,10.1186747 C8,12.240534 5.8765625,14.3639557 5.8765625,14.3639557 L4.1078125,12.5967813 L2.9140625,13.7905224 C2.925,13.9967709 2.853125,14.2061443 2.6953125,14.3623932 C2.403125,14.6545785 1.928125,14.6545785 1.634375,14.3623932 C1.340625,14.0702078 1.3421875,13.5952114 1.634375,13.3014636 C1.7921875,13.1436522 2,13.0717778 2.20625,13.0827152 L3.4,11.8889741 L1.6328125,10.1217997 C1.6328125,10.1217997 3.753125,7.99681552 5.8765625,10.1186747 Z M2.725,1.31092775 L1.3109375,2.72497973 L4.4640625,5.87808128 L5.878125,4.4640293 L2.725,1.31092775 Z"></path></clipPath></defs><g transform="translate(4.0 4.0)"><g clip-path="url(#i0)"><polygon points="0,0 16,0 16,16.000053 0,16.000053 0,0" stroke="none" fill="#151515"></polygon></g></g></svg>