<?xml version="1.0" encoding="UTF-8"?><svg version="1.1" width="24px" height="24px" viewBox="0 0 24.0 24.0" xmlns="http://www.w3.org/2000/svg" xmlns:xlink="http://www.w3.org/1999/xlink"><defs><clipPath id="i0"><path d="M1.24999702,8.99997854 L1.24999702,12.7499696 L9.9843512,12.7499696 L9.9843512,8.99997854 L11.2343482,8.99997854 L11.2343482,13.9999666 L0,13.9999666 L0,8.99997854 L1.24999702,8.99997854 Z M8.74372305,10.2499756 L8.74372305,11.4906037 L2.49373795,11.4906037 L2.49373795,10.2499756 L8.74372305,10.2499756 Z M2.88436202,7.42811339 L8.99997854,8.71872921 L8.74372305,9.93747631 L2.62810653,8.65622936 L2.88436202,7.42811339 Z M3.95311558,4.59373905 L9.61872096,7.24061384 L9.09372832,8.37498003 L3.43123572,5.73436133 L3.95311558,4.59373905 Z M5.79686118,1.99062636 L10.5937247,5.99998569 L9.79685164,6.9624773 L4.99998808,2.95311796 L5.79686118,1.99062636 Z M8.10310196,0 L11.8312096,5.00935695 L10.831212,5.75935517 L7.10310196,0.749998212 L8.10310196,0 Z"></path></clipPath></defs><g transform="translate(6.0 5.0)"><g clip-path="url(#i0)"><polygon points="0,0 11.8312096,0 11.8312096,13.9999666 0,13.9999666 0,0" stroke="none" fill="#151515"></polygon></g></g></svg>