<?xml version="1.0" encoding="UTF-8"?><svg version="1.1" width="24px" height="24px" viewBox="0 0 24.0 24.0" xmlns="http://www.w3.org/2000/svg" xmlns:xlink="http://www.w3.org/1999/xlink"><defs><clipPath id="i0"><path d="M11.0760539,0 C12.020235,0 12.8729857,0.395934115 13.4720138,1.03551999 C14.2131009,0.89339997 14.9237315,0.619291736 15.5532161,0.243651763 C15.3095338,1.00509404 14.7917738,1.64467992 14.1115997,2.05074584 C14.7715102,1.97970109 15.4110961,1.79693175 15.9999008,1.54314818 C15.5532771,2.19286587 14.9948678,2.7715388 14.3552819,3.23854819 C14.3654443,3.38066821 14.3654443,3.52284927 14.3654443,3.66496929 C14.3654443,7.99995041 11.0659831,12.9948726 5.03551046,12.9948726 C3.17763525,12.9948726 1.45177877,12.4567879 0,11.5228302 C0.263976421,11.5532561 0.517759996,11.5634185 0.791868229,11.5634185 C2.32482356,11.5634185 3.73601404,11.0456585 4.86293396,10.1624208 C3.42131753,10.1319339 2.21319052,9.18778327 1.79693175,7.88828686 C2,7.91874333 2.20302819,7.93903747 2.416254,7.93903747 C2.71065638,7.93903747 3.00508927,7.89841867 3.27916699,7.82737392 C1.77663761,7.5227787 0.649717689,6.20301866 0.649717689,4.60911987 L0.649717689,4.56853159 C1.08624009,4.81218335 1.59389879,4.9644657 2.13192241,4.98472933 C1.24868477,4.39589406 0.670042348,3.39083054 0.670042348,2.25377881 C0.670042348,1.6446494 0.832425994,1.0862706 1.11672707,0.598967078 C2.73092,2.58879998 5.15733634,3.88826588 7.87809401,4.03041642 C7.8273434,3.78676465 7.79688693,3.53298108 7.79688693,3.27916699 C7.79688693,1.47207291 9.25882802,0 11.0760539,0 Z"></path></clipPath></defs><g transform="translate(4.0 6.000000000000001)"><g clip-path="url(#i0)"><polygon points="0,0 15.9999008,0 15.9999008,12.9948726 0,12.9948726 0,0" stroke="none" fill="#151515"></polygon></g></g></svg>